<svg><path id="kvg:03049-s1" d="M31.09,49.46c1.09,0.81,2.88,1.92,4.77,1.71c1.89-0.2,15.59-4.14,16.78-4.64c1.19-0.5,3.18-1.01,4.67-1.61"/><path id="kvg:03049-s2" d="M46.14,34.12c1.42,1.38,2.35,3.54,1.98,5.95c-1.99,13.01-2.43,36.74-1.54,47.11c0.6,6.96-0.51,8.43-5.66,5.75c-4.07-2.12-10.92-6.46-10.92-9.99c0-6.05,19.36-19.07,35.55-19.07c13.7,0,19.86,6.66,19.86,13.92c0,6.66-7.45,15.23-21.25,16.95"/><path id="kvg:03049-s3" d="M70.92,38.97c4.27,2.12,6.97,4.8,8.44,6.66c3.57,4.5,0.3,3.63-0.89,4.04"/></svg>