<svg><path id="kvg:0304e-s1" d="M30.5,30.5c1.88,0.75,4.64,1.06,5.88,0.88c6.75-1,22.25-4.5,26.5-6c2.17-0.76,3.5-1.25,4.88-2.12"/><path id="kvg:0304e-s2" d="M36.25,48.95c2.01,0.85,4.97,1.2,6.29,0.99c7.23-1.13,23.82-5.09,28.37-6.79c2.32-0.86,3.75-1.41,5.22-2.4"/><path id="kvg:0304e-s3" d="M42,14.38c1.5,0.88,3.13,2.94,4,5.12c5.5,13.75,16,29.25,26.38,40.75c7.64,8.47,9.12,9.38-6,3.88"/><path id="kvg:0304e-s4" d="M33.75,83.5c10.62,9.75,27.25,8.62,38.12,5"/><path id="kvg:0304e-s5" d="M77.37,19c2.75,1.75,6,5.38,7.75,8.5"/><path id="kvg:0304e-s6" d="M83.75,14.12c3.06,1.57,6.68,4.82,8.62,7.62"/></svg>