<svg><path id="kvg:0304c-s1" d="M24.62,38.62c1.88,1.62,4.65,2.33,8.62,1c25.5-8.5,29.5-4.13,29.5,7.62c0,9.38-1.24,17.46-4.25,25.25c-7.62,19.76-10.87,17.39-16.12,10.89"/><path id="kvg:0304c-s2" d="M48.5,17.5c1,1.38,1.29,4.7,0.5,7.12c-5,15.25-18.02,40.93-19.62,43.88c-3.12,5.75-6.38,11.88-9.38,16.25"/><path id="kvg:0304c-s3" d="M77.37,31.62c7.5,6.88,13.25,15.75,15,24.88"/><path id="kvg:0304c-s4" d="M80.5,18.25c2.75,1.75,6,5.38,7.75,8.5"/><path id="kvg:0304c-s5" d="M86.87,13.38c3.06,1.57,6.68,4.82,8.62,7.62"/></svg>