<svg><path id="kvg:03041-s1" d="M35.72,46.75c0.7,0.7,2.21,1.47,4.22,1.4c8.56-0.28,16.06-1.7,23.69-3.41c1.21-0.27,3.72-0.7,5.32-0.4"/><path id="kvg:03041-s2" d="M51.03,34.43c0.7,0.8,1.21,2.87,0.85,4.46c-3.01,13.43-5.02,30.31-4.12,42.73c0.33,4.57,1.51,8.72,2.71,10.92"/><path id="kvg:03041-s3" d="M63.53,55.67c0.6,0.9,0.93,3.52,0.4,4.91c-3.71,9.82-9.04,19.04-20.38,28.66c-5.51,4.67-12.75,3-13.05-6.71c-0.27-8.72,10.74-18.54,26-21.44c9.97-1.9,21.75,1.67,24.5,10.22c3.39,10.53-3.01,21.14-16.77,24.45"/></svg>