<svg><path id="kvg:03042-s1" d="M31.01,33c0.88,0.88,2.75,1.82,5.25,1.75c8.62-0.25,20-2.12,29.5-4.25c1.51-0.34,4.62-0.88,6.62-0.5"/><path id="kvg:03042-s2" d="M49.76,17.62c0.88,1,1.82,3.26,1.38,5.25c-3.75,16.75-6.25,38.13-5.13,53.63c0.41,5.7,1.88,10.88,3.38,13.62"/><path id="kvg:03042-s3" d="M65.63,44.12c0.75,1.12,1.16,4.39,0.5,6.12c-4.62,12.26-11.24,23.76-25.37,35.76c-6.86,5.83-15.88,3.75-16.25-8.38c-0.34-10.87,13.38-23.12,32.38-26.74c12.42-2.37,27,1.38,30.5,12.75c4.05,13.18-3.76,26.37-20.88,30.49"/></svg>