<svg><path id="kvg:03060-s1" d="M24.38,35.38c1.38,0.62,3.88,1.51,6.38,1.12c6.5-1,16.25-2.88,24.88-4.75c2.64-0.57,5.38-1.5,7.62-2.38"/><path id="kvg:03060-s2" d="M45,16.88c0.75,1.25,0.87,3.62,0.38,5.25c-6.35,20.94-12.75,36.37-18.88,52.37c-1.36,3.56-4.75,11.75-6,14.62"/><path id="kvg:03060-s3" d="M56.38,53.25c12.38-2.75,18.25-3.7,23.62-3.12c15.12,1.62-1.12,2.25-4.25,4.88"/><path id="kvg:03060-s4" d="M54.13,82.25c4.38,7,14.25,8.12,34.5,5.62"/><path id="kvg:03060-s5" d="M76,22.5c2.75,1.75,6,5.38,7.75,8.5"/><path id="kvg:03060-s6" d="M82.38,17.62c3.06,1.57,6.68,4.82,8.62,7.62"/></svg>