<svg><path id="kvg:03071-s1" d="M24.51,18c1.25,1.5,2.15,4,1.62,6.62c-3.5,17.62-6.98,36.4-4,54.88c2.5,15.5,1.12,2,5.62-6.25"/><path id="kvg:03071-s2" d="M49.64,37.89c2.41,1.57,4.85,2.16,7.8,1.71c9.36-1.43,17.46-2.94,23.4-4.57c3.12-0.86,5.96-1.29,7.8-1.29"/><path id="kvg:03071-s3" d="M69.77,16.5c2.25,2.12,2.88,4.12,2.88,6.5c0,2.38,1.5,38.62,1.5,48c0,22.5-30.62,19.62-30.62,10.5c0-9.75,23.88-5.62,29.5-2.88c5.62,2.74,11.98,8.26,13.36,9.38"/><path id="kvg:03071-s4" d="M91.01,24.38c-9.62,0-9.25-14.25,0-14.25c9.76-0.01,9.5,14.25,0,14.25"/></svg>