<svg><path id="kvg:03070-s1" d="M24.75,17.75c1.25,1.5,1.9,4.25,1.38,6.88c-3.5,17.62-6.98,36.4-4,54.88c2.5,15.5,1.12,2,5.62-6.25"/><path id="kvg:03070-s2" d="M49.88,37.89c2.41,1.57,4.85,2.41,7.8,1.96c9.36-1.43,17.21-3.19,23.15-4.82c3.12-0.86,5.96-1.29,7.8-1.29"/><path id="kvg:03070-s3" d="M69.75,16.5c2.26,2.12,2.88,4.12,2.88,6.5c0,2.38,1.5,38.62,1.5,48c0,22.5-30.62,19.62-30.62,10.5c0-9.75,23.88-5.62,29.5-2.88c5.62,2.74,12,8.25,13.38,9.38"/><path id="kvg:03070-s4" d="M84.75,15.25c2.75,1.75,6,5.38,7.75,8.5"/><path id="kvg:03070-s5" d="M91.13,10.38c3.06,1.57,6.68,4.82,8.62,7.62"/></svg>