<svg><path id="kvg:03077-s1" d="M42.13,15.62c3.62,3.38,7.5,5.38,12.74,6.13c9.59,1.37,3.5,3.38-1.88,6.12"/><path id="kvg:03077-s2" d="M43.13,46.88c1.88,4.62,7.5,9.41,14.25,17.5c10.62,12.74,0.49,30-19.13,21.62"/><path id="kvg:03077-s3" d="M16.5,73.88c0.75,4,1.88,8.12,5,10.12c1.16,0.74,0.12-3.38,13.25-9.12"/><path id="kvg:03077-s4" d="M79.63,61.88c5.5,3.38,10.28,7.49,11.38,8.88c6.75,8.5-0.25,4.62-4.62,7.12"/><path id="kvg:03077-s5" d="M80.87,26.62c-9.62,0-9.25-14.25,0-14.25c9.76,0.01,9.5,14.25,0,14.25"/></svg>