<svg><path id="kvg:030ae-s1" d="M27,40.5c1.75,0.62,4.77,1.09,7.25,0.38c11.75-3.38,30.62-8.13,37.5-9.88c2.62-0.67,6.75-1.12,9-1"/><path id="kvg:030ae-s2" d="M19.5,65.8c2.28,0.84,6.24,1.18,9.46,0.17c17.79-5.59,32.67-9.09,49.17-12.99c3.43-0.81,8.81-1.52,11.74-1.35"/><path id="kvg:030ae-s3" d="M48.87,16.75c2.5,1.75,3.43,3.24,3.88,6.12c2.12,13.62,6.38,45.38,8.25,59.25c0.4,3,1,8.38,1.38,11.12"/><path id="kvg:030ae-s4" d="M81.87,15.13c2.75,1.93,6,5.93,7.75,9.37"/><path id="kvg:030ae-s5" d="M88.25,10c2.71,1.73,5.9,5.32,7.62,8.41"/></svg>