<svg><path id="kvg:030b6-s1" d="M16.5,44.34c2.84,1.27,4.77,1.91,8.93,1.13c17.2-3.22,40.45-5.35,58.53-5.34c4.33,0,6.92,0.37,10.42,0.82"/><path id="kvg:030b6-s2" d="M36.63,23.38c1.12,1.38,1.19,2.5,1.25,4.75c0.25,9,0.38,20.25,0.75,28.88c0.14,3.25,0.38,7.12,0.38,9.25"/><path id="kvg:030b6-s3" d="M69.63,16.62c1.5,2,1.62,2.87,1.62,6.25c0,8.25-0.16,9-0.16,15.88c0,23.25-9.34,42.5-23.21,53"/><path id="kvg:030b6-s4" d="M82.75,18.73c2.85,1.78,6.21,5.47,8.03,8.65"/><path id="kvg:030b6-s5" d="M89.5,14.12c2.93,1.57,6.39,4.83,8.25,7.63"/></svg>