<svg><path id="kvg:030c2-s1" d="M70,15.25c-0.38,2.62-2.26,4.37-4.12,5.38c-7.88,4.25-18.62,9.75-35.5,13.25"/><path id="kvg:030c2-s2" d="M18.5,51.5c2.88,0.88,4.39,1.65,7.88,1.25c22-2.5,36.38-4.25,56.12-4.88c4.88-0.15,7.88,0.51,10.88,1.51"/><path id="kvg:030c2-s3" d="M54.88,30.75c0.88,0.75,1.75,2.49,1.75,4.75c0,6.03,0.03,11.25,0.03,18.27c0,14.98-5.03,29.48-16.53,39.23"/><path id="kvg:030c2-s4" d="M79.88,25.73c2.85,1.78,6.21,5.47,8.03,8.65"/><path id="kvg:030c2-s5" d="M86.63,21.12c2.93,1.57,6.39,4.83,8.25,7.63"/></svg>