<svg><path d="M23.25,22.95c3.12,0.68,6.55,0.52,9.63,0.22c10.04-0.99,30.3-3.66,43.12-4.47c3.06-0.19,5.99-0.3,9,0.34"/><path d="M19.75,41.9c1.11,1.11,1.68,2.69,1.75,4.24c0.48,10.52,1.1,31.64,1.37,42.11c0.08,3.2,0.13,5.4,0.13,6"/><path d="M21.75,45.35c10.5-1.1,61.11-6.07,63-6.15c5-0.21,7.88,2.04,7.5,5.52c-0.38,3.52-3,35.53-6.75,44.78c-2.32,5.73-5,4.5-8.5-1"/><path d="M53.04,23.75c0.98,0.98,1.66,2.85,1.66,3.75c0,2.88-0.08,40.4-0.19,46"/><path d="M39.06,58.5c0.61,0.45,1.31,2.35,1.22,3.25c-0.4,4-0.59,7.12-1.07,11.75c-0.34,3.25,0.39,3.77,3.21,3.25c7.45-1.38,14.45-2.5,27.91-4.25"/><path d="M71.53,54.25c1.11,1.11,1.64,2.62,1.47,4.25c-0.65,6.12-0.96,8.52-1.52,12.52c-0.19,1.39-0.42,2.98-0.7,4.98"/></svg>