<svg><path d="M34.77,17.84c3.56,2.48,9.2,9.7,10.09,13.56"/><path d="M69.52,14.01c0.08,1.19-0.03,1.87-0.52,2.98c-2.05,4.61-5.25,9.76-11.34,17.11"/><path d="M24.25,39.65c3,0.6,5.46,0.3,8,0c10.37-1.23,34.22-4.13,44.25-4.9c2.37-0.18,4.67-0.32,6.99,0.25"/><path d="M43.37,41.25c0.94,0.94,1.46,2.38,1.46,3.75c0,1.02-0.08,38.62-0.08,45.75"/><path d="M61.62,39.25c0.88,0.88,1.21,2.38,1.21,3.75c0,1.02,0.03,39.75,0.03,46.25"/><path d="M24.52,59.09c3.03,3.01,7.83,12.37,8.59,17.05"/><path d="M84.75,51.26c0.11,1.29-0.18,2.5-0.75,3.7c-2.5,5.29-6.51,11.69-17.34,22.64"/><path d="M14.75,93.2c3.27,1.17,7.35,0.8,10.74,0.45c12.81-1.32,44.94-3.96,61.51-4.72c3.12-0.14,6.45-0.03,9.5,0.62"/></svg>