<svg><path d="M23.84,26.34c0.79,0.79,1.16,1.79,1.37,2.86c0.66,3.41,1.22,6.63,2.17,11.69c0.29,1.52,0.61,3.2,0.98,5.1"/><path d="M25.78,27.97c17.76-1.8,44.33-3.88,55.34-3.98c3.85-0.03,4.7,1.31,4.07,4c-0.75,3.2-1.7,6.64-3.2,11.51"/><path d="M29.14,43.54c18.61-1.17,36.36-2.29,54.98-3.37"/><path d="M21.14,56.37c0.87,0.87,1.49,1.88,1.76,3.15C23.55,62.49,25,70.5,26.25,78"/><path d="M23.08,57.76c21.17-1.88,46.67-3.63,62.43-4.27c4.39-0.18,4.87,0.89,3.87,4.17c-1.1,3.6-1.74,5.72-3.49,12.97"/><path d="M26.99,75.09C43,74,67.75,72.75,87.75,71.75"/><path d="M53.5,10.75c1.25,1,1.5,2.5,1.5,3.81c0,2.44,0.09,49.77,0.03,73.57C55.01,94.24,55,98.69,55,100.25"/></svg>