<svg><path d="M41,10.5c0.08,0.95,0.17,2.45-0.16,3.81c-1.9,8.02-12.83,25.63-27.79,36.41"/><path d="M37.13,30.92c1.08,0.38,3.05,0.44,4.14,0.38c14.23-0.8,38.16-4.92,48.75-5.8c1.98-0.16,2.86-0.25,4.19-0.08"/><path d="M52.87,32.25c1.09,0.5,1.74,2.25,1.96,3.25c0.22,1,0,57.75-0.22,64"/><path d="M57.88,49.62c0.5,0.19,1.41,0.21,1.92,0.19c5.2-0.21,13.51-2.09,23.08-2.14c0.83,0,1.33,0.09,1.75,0.18"/><path d="M57.13,70.12c0.6,0.19,1.69,0.21,2.29,0.19c6.22-0.21,16.16-2.09,27.62-2.14c1,0,1.59,0.09,2.09,0.18"/></svg>