<svg><path d="M23.38,21.68c2.99,0.65,5.98,0.58,9.01,0.33c13.11-1.04,30.12-2.73,45.99-3.15c2.81-0.07,5.73-0.07,8.5,0.53"/><path d="M20,43.14c1.19,0.96,1.48,1.7,1.82,3.1c1.31,5.39,2.44,12.96,3.43,19.51c0.3,2,0.57,3.56,0.81,5"/><path d="M22.75,45.54c23-2.79,41.54-4.46,60.89-5.84c3.48-0.25,6.74,0.45,5.39,5.54c-1.26,4.77-3.41,11.01-5.27,16.76"/><path d="M26.5,67c19.64-1.66,31.34-2.67,50.25-3.8c2.63-0.25,5.26-0.28,7.89-0.09"/><path d="M42.12,24c1.09,1.56,1.57,3.23,1.46,5.01c0,7.22,0.03,50.43,0.03,58.99"/><path d="M62.62,22.75c0.91,1.63,1.32,3.09,1.21,4.88c0,8.29,0.03,52.17,0.03,58.88"/><path d="M15.88,89.23c3.62,0.65,7.25,0.71,10.62,0.49c18.61-1.21,42.5-2.34,60.12-2.56c3.21-0.04,6.34,0.23,9.5,0.91"/></svg>