<svg><path d="M23.5,21.34c2.61,0.95,5.82,0.56,8.5,0.31c11.48-1.08,32.06-3.69,43.25-4.27c2.58-0.13,5.2-0.27,7.75,0.29"/><path d="M43.5,23.5c0.75,1.5,0.77,2.89,0.25,5.25c-2.5,11.25-8.25,27-11.38,35.6c-0.87,2.4-0.59,3.91,2.63,3.4c11-1.75,16.75-3,32.75-4.5"/><path d="M43.5,42.5c1.62,0.62,3.27,1.01,5.96,0.53c8.04-1.41,13.16-2.41,19.51-3.91c4.27-1.01,5.28,0.79,4.19,4.76c-2.43,8.86-6.45,28.17-9.91,44.87"/><path d="M15.75,91.71c3.75,0.91,6.94,0.83,10.12,0.61c13.34-0.94,38.88-2.45,55.97-3.08c3.74-0.14,7.72,0.11,11.41,0.9"/></svg>