<svg><path d="M35.27,13.73c0.75,0.75,1.16,1.9,1.16,3.12c0,0.76-0.06,32.95-0.06,41.78"/><path d="M37.62,35.25c4.52-1.16,7.75-2,11.88-2.96c0.97-0.17,1.96-0.21,2.95-0.12"/><path d="M20.8,33.01c0.97,0.97,1.08,2.36,1.08,3.9c0,4.49,0.05,22.54,0.05,28.45"/><path d="M15.6,66.64c1.03,0.98,2.45,1.12,3.53,0.64c10.24-4.53,19.87-9.03,33.66-15.7"/><path d="M88.29,21.19c-0.04,1.06-0.64,2.34-1.18,2.81C82.62,27.88,76,32.62,65.38,38"/><path d="M60.96,12.25c0.89,0.89,1.23,2,1.23,3.1s-0.07,26.02-0.07,33.15c0,10.46,2.53,12.83,15.87,12.83c13.13,0,14.16-2.49,14.16-7.48"/><path d="M31.75,76.17c3.12,0.52,6.21,0.21,9.38-0.13c8.62-0.91,19.27-2.22,27.88-2.63c2.99-0.33,5.97-0.27,8.93,0.19"/><path d="M17.75,95.04c5.5,1.33,12.23,0.39,17.52-0.14c17.61-1.78,28.98-2.4,43.1-3.58c5.58-0.46,11.36-0.16,16.88,0.93"/></svg>