<svg><path d="M22,20.4c1.02,0.37,2.89,0.5,3.9,0.37c9.85-1.27,42.85-5.26,52.53-5.26c1.7,0,2.72,0.18,3.57,0.36"/><path d="M44.25,20.75c1.25,1,1.25,2.75,0.75,3.75s-3.56,8.96-4.25,10c-2,3-1.75,3.5,1.5,2.5c1.39-0.43,5-1.25,8-2.25s4.57,0.26,4.75,2.75c0.5,7,0.19,31.4-2.75,39.25c-1.5,4-2.25,9.5-9.25,5"/><path d="M19.75,49.14c0.4,0.39,0.81,0.72,0.98,1.21c1.39,3.9,3.05,15.65,4,22.65"/><path d="M22.24,50.78c8.18-2.03,13.15-3.28,17.83-3.79c1.71-0.19,2.74,1.11,2.5,2.21c-1.01,4.55-2.2,12.05-3.71,18.35"/><path d="M24.92,71.08c5.33-1.33,7.83-1.83,15.65-2.97"/><path d="M62.69,47.54c0.85,0.21,0.96,0.53,2.67,0.21c1.71-0.32,15.48-3.09,16.65-3.41s2.03,1.17,1.6,2.35C78.6,60.56,70.74,71.62,61.14,76.85"/><path d="M62.88,53.09c2.77,0.53,16.33,14.83,25.99,20.69c1.5,0.91,2.6,1.52,4,1.82"/><path d="M15.25,92.7c1.52,0.54,4.31,0.69,5.82,0.54C33.75,92,70.5,88.75,87.69,89.01c2.53,0.04,4.05,0.26,5.31,0.53"/></svg>