<svg><path d="M52.79,9.61c1.13,1.13,1.34,2.32,1.34,3.27c0,3.49,0.09,4.25,0.09,7.31"/><path d="M22,23.83c2.62,0.67,5.28,0.72,8.13,0.4c11.13-1.23,35.9-3.83,48.5-4.39c2.66-0.12,5.09-0.2,7.62,0.75"/><path d="M35.64,33.39c0.82,0.51,1.52,1.25,1.59,2.24c0.82,2.52,1.95,6.15,2.67,9.4c0.21,0.95,0.41,1.87,0.61,2.72"/><path d="M37.56,34.13c6.53-0.88,21.98-3.2,29.69-4.19c3.62-0.46,5.6-0.24,4.46,3.99c-0.58,2.14-1.3,4.11-2.54,8.02"/><path d="M40.97,45.69c5.75-0.77,18.06-2.32,25.78-3.18c1.71-0.19,3.22-0.35,4.42-0.45"/><path d="M22.29,55.69c-0.11,3.81-2.82,13.79-3.79,16.06"/><path d="M23.22,57.75C34,57,67.48,51.96,85.19,51.5c9.56-0.25,4.06,5.75-0.69,9.5"/><path d="M29.27,70.84c2.15,0.84,5.32,0.46,7.53,0.21c9.47-1.07,24.6-3.02,35.21-3.79c2.58-0.19,5.18-0.24,7.73,0.36"/><path d="M55.01,70.79c0.85,0.85,1.08,1.96,1.08,3.44c0,9.74-0.09,17.33-0.09,20.64c0,9.3-5.88,1.12-7.36-0.75"/></svg>