<svg><path d="M51.44,10.92c1.26,1.26,2.06,2.71,2.06,4.81c0,2.95-0.14,7.52-0.14,9.32"/><path d="M15.5,29.55c3.14,0.45,6.19,0.83,9.45,0.35c21.67-3.15,42.67-5.78,58.93-6.57c3.66-0.18,5.53-0.04,8.26,0.5"/><path d="M30.3,41.57c1.06,1.06,1.73,2.17,1.87,2.7c0.84,3.2,1.83,9.56,2.92,15.71c0.21,1.18,0.43,1.85,0.66,3.01"/><path d="M33.27,43.15c12.23-1.9,31.7-4.88,37.48-5.4C73.54,37.5,76.12,40.08,75,43c-0.95,2.47-2.79,8.86-4.03,12.08"/><path d="M36.21,60.53c8.92-1.28,21.37-2.65,32.54-4.03c1.37-0.17,3.25-0.38,4.5-0.25"/><path d="M53.52,65.33c0.98,1.17,1.51,2.79,1.51,4.77c0,4.9-0.26,17.4-0.26,21.62c0,9.03-6.71,1-8.21-0.25"/><path d="M31.75,73.25c0.12,0.91-0.01,1.79-0.39,2.62c-1.54,3.89-6.74,10.21-13.86,15.38"/><path d="M76.12,73.5c5.14,4.19,11.06,10.83,13.38,16.25"/></svg>