<svg><path d="M52.76,12.99c1.19,1.19,1.6,2.51,1.6,4.73c0,4.26-0.11,7.35-0.11,11.28"/><path d="M16.75,32.64c3.88,0.61,7.28,0.37,11.25-0.02c13.25-1.3,38.83-3.5,54.12-4.53c3.55-0.24,7.45-0.96,10.88,0.32"/><path d="M49.48,33.62c0.15,1.26-0.27,2.33-1.49,3.47c-3.48,3.28-7.11,6.66-12.81,11.19c-0.9,0.71-0.95,2.83,0,3.07c5.06,1.23,10.82,2.9,16.18,5.27"/><path d="M67.98,40.5c0.11,0.82-0.21,2.21-0.96,3.04C57.5,54,45.75,64.75,27,74.54"/><path d="M71.93,57.25c0,1.38-0.61,2.53-1.52,3.51C58.54,73.58,43.62,86.38,19.75,96.54"/><path d="M58,77c9.9,3.26,25.58,13.4,28.06,18.47"/></svg>