<svg><path d="M52.73,8.25c1.07,1.07,1.25,2,1.25,3.64c0,2.12-0.1,3.78-0.1,6.11"/><path d="M20.25,21.86c3.36,0.66,6.23,0.52,9.62,0.13c12.98-1.5,34.26-3.62,49.13-4.5c3.34-0.2,7.3-0.53,10.5,0.67"/><path d="M34.89,31.43c0.87,0.55,1.37,1.35,1.52,2.39c0.85,2.57,1.74,6.97,2.46,10.71c0.29,1.5,0.56,2.94,0.78,4.19"/><path d="M37.27,32.65c10.13-1.58,25.69-3.31,32.36-3.95c2.93-0.28,5.54,0.54,4.41,3.99c-0.96,2.91-2.11,5.43-4.06,9.88"/><path d="M40.28,45.85c4.68-0.37,18.5-1.76,27.23-2.49c1.85-0.15,3.47-0.28,4.73-0.36"/><path d="M26.78,58.54c3.14,0.79,5.94,0.58,9.08,0.16c8.84-1.18,32.89-4.33,37.73-5.02c2.35-0.34,3.87,1.91,1.16,3.51C70,60,60,66.62,53.49,71.11"/><path d="M50.98,70.5c5.89,3.25,8.52,15.75,5.56,26.7c-1.46,5.39-6.29,0.68-8.67-1.32"/></svg>