<svg><path d="M53.36,12.25c1.38,1.38,1.48,2.75,1.48,4.66c0,4.45-0.09,11.09-0.09,15.21"/><path d="M18.75,35.36c3.24,0.96,6.91,0.65,10.23,0.28c15.9-1.76,41.72-4.05,55.9-4.74c3.38-0.17,7.88-0.27,10.88,0.76"/><path d="M45.17,37.53c1.08,1.08,1.19,2.63,1.19,4.64C46.36,60.55,42.5,86,26.31,97"/><path d="M64.52,35.33c0.98,0.92,1.76,1.99,1.76,5.02c0,17.65-0.01,44.16-0.01,49.12c0,10.39-5.71,1.75-7.21,0.5"/><path d="M30.01,52.89c0.09,1.28,0.09,2.61-0.47,3.82c-2.8,6.11-7.85,14.36-14.74,21.51"/><path d="M78.77,54.33c4.87,3.73,12.58,15.33,13.79,21.13"/></svg>