<svg><path d="M52.08,10.5c1.09,1.09,1.49,2.5,1.49,4.05c0,3.27-0.07,4.63-0.07,7.95"/><path d="M24.03,25.28c3.34,0.85,6.28,0.56,9.35,0.14c11.33-1.53,29.85-2.84,41.37-3.5c2.87-0.17,6.47-0.27,9.22,0.73"/><path d="M35.12,34.48c0.76,0.6,1.18,1.4,1.27,2.4c0.65,2.93,1.35,5.87,1.93,8.62c0.31,1.47,0.58,2.89,0.79,4.23"/><path d="M36.99,36.35c8.76-1.73,21.76-3.1,29.26-3.86c2.9-0.29,4.78,0.03,3.83,3.41c-0.73,2.63-1.63,5.21-3.11,9.1"/><path d="M39.9,48.02c3.45-0.32,15.57-1.47,23.47-2.17c2.28-0.2,4.21-0.36,5.48-0.46"/><path d="M19.23,55.24c-0.15,3.79-3.71,13.7-4.98,15.96"/><path d="M19.48,59.19c14.89-1.19,39.27-3.94,65.89-4.65c11.72-0.31,3.7,5.34-0.67,8.99"/><path d="M42.99,65.5c0.15,1.62-0.03,3.11-0.55,4.65c-2.57,7.55-11.98,22.47-26.02,30.02"/><path d="M58.49,63.37c1.01,1.01,1.01,2.45,1.05,4.19c0.19,7.75,0,14.53,0,19.8c0,8.31,1.6,10.92,15.23,10.92c13.11,0,14.91-2.06,15.38-8.64"/></svg>