<svg><path d="M51.11,12.25c1.13,0.61,2.98,2.96,2.98,4.16c0,4.45-0.15,6.09-0.15,9.65"/><path d="M14.5,30.61c2,0.39,3.76,0.83,6.06,0.55c13.69-1.66,52.69-5.41,68.64-6.2c2.35-0.12,3.55,0.05,5.3,0.7"/><path d="M32.16,40.88c0.32,0.43,0.33,0.72,0.5,1.26c1.44,4.42,3.29,16.58,4.18,24.82"/><path d="M33.65,41.97c11.12-1.11,30.68-3.5,38.99-4.43c3.05-0.34,4.11,1.37,3.96,2.58c-0.58,4.46-3.49,15.09-4.89,22.53"/><path d="M34.72,53.4c3.62-0.43,36.95-3.62,39.94-3.8"/><path d="M36.91,65.76c8.01-0.47,25.74-2.45,36.79-3.23"/><path d="M53.35,66.37c0.06,0.36,0.87,1.85,0.94,4.11c0.3,10.84-0.19,19.2-0.19,22.89c0,8.38-5.37,1.12-6.48,0.19"/><path d="M32.34,73.82c0.04,0.43,0.08,1.12-0.07,1.74c-0.91,3.66-6.12,11.7-13.24,16.62"/><path d="M76.15,72.21c5.06,2.74,13.06,11.27,14.32,15.54"/></svg>