<svg><path d="M51.67,9.75c0.78,0.42,2.05,2.04,2.05,2.87c0,3.07-0.24,5.46-0.1,8.06"/><path d="M23.95,23.28c1.48,0.29,2.78,0.54,4.48,0.4c11.33-0.93,38.93-3.94,50.71-4.52c1.73-0.09,2.62,0.03,3.91,0.51"/><path d="M35.5,29.54c0.28,0.2,0.56,0.37,0.68,0.62c0.96,1.99,2.11,7.48,2.76,11.05"/><path d="M37.22,30.22c6.77-0.83,25.54-2.43,29.03-2.71c1.28-0.1,2.04,1.04,1.86,1.64c-0.76,2.51-1.62,4.17-3.24,7.78"/><path d="M39.21,39.9c4.1-0.32,21.73-2.33,26.93-2.65"/><path d="M20.4,46.87c0,3.49-3.31,13.09-4.81,15.42"/><path d="M20.29,49.02c8.97-0.18,55.23-4.24,62.44-4.24c13.15,0,2.92,6.59,0.11,8.27"/><path d="M64.27,51c0.08,0.34-0.17,1.86-0.64,2.25c-5.92,4.82-14.2,8.37-29.63,12.26"/><path d="M14.25,80.46c1.61,0.66,4.57,0.95,6.16,0.66c15.81-2.95,51.98-10.8,67.21-12.75c2.66-0.34,4.29-0.34,5.63-0.01"/><path d="M48.75,63.77c0.71,0.72,1.65,2.27,1.65,3.26c0,3.06-0.35,19.17-0.35,22.17c0,6.3,3.7,9.55,19.19,9.55c16.01,0,17.78-3.93,17.78-9.05"/></svg>