<svg><path d="M35.48,15.39c0.15,1.13,0.27,2.55-0.14,3.93c-2.55,8.78-12.4,25.75-24.28,37.64"/><path d="M27.03,41.5c0.59,0.61,0.76,1.97,0.76,3.23c0,13.02-0.29,42.65-0.29,51.4"/><path d="M60.21,22.68c0.43,1.42,0.54,3.64,0.21,5.95c-2.37,17.1-8.02,43.66-25.29,62.03"/><path d="M46.77,19c1.46,0.75,3.56,0.91,5.01,0.75c11.28-1.25,18.48-3,29.35-4.75c2.72-0.44,4.07,1.74,3.13,3.75C81.34,25,75.82,37.5,72.9,44c-0.58,1.28-0.25,3.33,1.46,3c5.14-1,13.03-2.25,17.62-3.25c2.5-0.54,3.69,0.74,3.3,3.25C93,61.75,89,78.75,81.99,89.25c-4.29,6.42-7.52,2.5-9.19-1"/></svg>