<svg><path d="M32.75,18.14c0.13,1.18,0.09,2.45-0.37,3.87c-3.13,9.73-9.75,24.23-20.07,37.7"/><path d="M25.28,42.75c1.11,1.11,1.51,2.62,1.51,4.73c0,9.94,0,26.52,0,38.52c0,3.7-0.04,6.8-0.04,8.87"/><path d="M65.99,17.75c1.38,1.38,1.76,3,1.76,4.99c0,0.96,0,54.88,0,61.43"/><path d="M43.99,60.21c0.96,0.96,1.32,2.42,1.26,4.19C45,71.75,44.75,79.12,44,85.78c-0.24,2.16,0.63,3.41,2.5,2.97c9.88-2.37,34.25-5.62,46.75-6.15"/><path d="M92.24,52.38c1.13,1.13,1.51,2.74,1.51,4.49c0,5.54,0,13.5-0.38,24.88c-0.09,2.63-0.12,6.37-0.37,10.21"/></svg>