<svg><path d="M38.97,13.39c0,1.23-0.16,2.47-0.65,3.92C35.12,27,25.75,43.62,13.06,57.47"/><path d="M29.03,40c1.05,1.05,1.26,1.97,1.26,3.23c0,8.23-0.02,27.29-0.03,40.52c0,4.69-0.01,8.64-0.01,11.12"/><path d="M51.85,19.52c2.42,0.71,4.85,0.82,7.28,0.32c6.94-0.87,20.69-3.31,22.2-3.58c2.79-0.5,3.98,1.84,1.94,3.81C80.5,22.75,71,31.75,65,36.25"/><path d="M62.47,37.1c8.7,6.52,16.6,27.31,11.14,47.61c-2.67,9.89-6.18,12.35-12.81,4.31"/><path d="M38.45,55.02c3.42,0.98,6.83,0.8,10.31,0.46C63.88,54,72.12,52.5,90.04,51.66c3.48-0.16,6.91,0.33,10.27,1.35"/></svg>