<svg><path d="M32.01,17c0.22,1.93-0.31,3.72-1.02,5.37C26.5,32.93,20.8,42.85,10.5,55.7"/><path d="M25.48,37.5c0.57,0.57,1,1.69,1,3.24c0,11.3,0,33.32,0,46.02c0,3.05,0,5.56,0,7.25"/><path d="M47.34,22.01c1.27,0.33,3.61,0.53,4.86,0.33c11.42-1.84,23.3-4.59,32.75-5.84c2.08-0.27,3.38,0.16,4.44,0.32"/><path d="M52.65,23.81c1.14,1.14,1.49,2.48,1.42,4.7c-0.74,22.33-5.06,47.31-16.01,61.4"/><path d="M56.7,41.74c1.51,0.37,2.95,0.43,5.97-0.13c3.02-0.56,15.29-4.17,17.37-4.71c2.97-0.77,4.79,1.08,3.83,4.1c-6.62,20.75-11.62,38.63-36.26,53.52"/><path d="M56.12,52.12c5.64,0.81,18.99,22.02,31.03,33.71c2.35,2.29,5.22,4.66,7.84,6.11"/></svg>