<svg><path d="M30.77,17.5c0.2,2.09-0.05,3.57-0.69,5.35c-4.02,11.39-9.62,23.33-18.83,37.19"/><path d="M23.78,42.75c1.05,1.05,1.26,2.38,1.26,3.98c0,13.4,0.13,32.05,0,43.27C25.02,92.33,25,94.29,25,95.75"/><path d="M59.84,14.44c0.12,0.9-0.06,1.73-0.71,2.41c-3.13,3.28-5.75,5.53-12,8.78"/><path d="M43.37,24.35c0.71,0.71,1.07,2.03,1.07,3.34c0,2.96-0.07,36.81-0.07,40.94c0,1.8,0.61,2.14,2.38,0.75s9-6.38,17.57-12.15"/><path d="M70.5,25.58c1.25,0.3,2.73,0.34,4.05,0.15c1.32-0.19,16.26-3.41,17.91-3.6c1.65-0.19,4.08-0.38,4.29,3.64C97,30.5,95.25,52,91.7,62.39c-2.77,8.12-6.27,0.96-6.76,0.57"/><path d="M71.66,26.62c0.86,0.86,1.31,2.25,1.31,3.87c0,8.5,0,61.75,0,68.35"/></svg>