<svg><path d="M34,16.25c0.24,2.13-0.11,4.16-0.83,6c-4.43,11.5-10.31,24.11-21.43,38.29"/><path d="M27.03,40.25c0.73,0.73,1.27,1.85,1.27,3.24c0,11.45,0.1,35.22-0.02,46.01c-0.02,1.95-0.03,3.57-0.03,4.75"/><path d="M79.18,16.5c-0.18,0.88-1.17,2.03-1.8,2.53c-6.45,5.19-15.29,9.54-31.54,13.78"/><path d="M39.2,55.35c2.55,0.65,5.73,0.69,8.06,0.42c12.24-1.4,30.92-3.48,43.25-3.92c2.44-0.09,4.92-0.22,7.3,0.42"/><path d="M67.29,29.86c0.86,0.86,1.39,2.26,1.39,3.46c0,0.93-0.18,42.18-0.18,50.73"/><path d="M46.33,86.03c2.3,0.47,4.54,0.3,6.56,0.19c10.35-0.58,23.95-2.19,34.72-2.42c2.08-0.04,4.23-0.17,6.28,0.3"/></svg>