<svg><path d="M36.66,15.64c0.16,1.19-0.08,2.73-0.64,4.14C32.38,29,22.5,45.5,10,58.89"/><path d="M26.17,41.56c0.82,0.82,0.95,2.15,0.95,3.37c0,10.03-0.07,31.6-0.1,44.2c-0.01,3.18-0.01,5.79-0.01,7.5"/><path d="M45.88,21.14c2.12,0.61,4.95,0.55,6.87,0.33c8.5-0.97,19.83-1.88,29.76-2.43c2.25-0.13,4.55-0.25,6.75,0.42"/><path d="M65.77,24.03c0.35,1.34,0.19,2.96-0.17,4.5C63.12,39.25,52.12,80.5,49.68,88.89"/><path d="M42.87,53.86c1.76,0.64,3.86,1.08,5.63,0.88c10.5-1.24,26.75-2.86,32.24-3.3c2.08-0.16,3.89,1.43,3.43,4.18C83.31,60.66,80,82.5,79.1,88.03"/><path d="M34,91.22c3.12,0.66,6.95,0.46,10.01,0.26c10.16-0.68,28.98-2.11,43.87-2.41c3.48-0.07,7.21-0.13,10.62,0.71"/></svg>