<svg><path d="M32.75,14.64c0.13,1.23,0.12,2.57-0.36,4.04C28.88,29.38,22,43.75,12.06,56.72"/><path d="M25.03,40.5c0.92,0.92,1.26,2.12,1.26,3.73c0,10.5,0.06,32.2-0.01,44.52c-0.02,2.96-0.03,5.43-0.03,7.12"/><path d="M35.88,46.44c2.62,0.56,5.59,0.51,7.99,0.21c9.12-1.15,24.88-3.15,36.52-4.04c2.63-0.2,5.03-0.36,7.62,0.29"/><path d="M59.27,14.75c1.05,1.05,1.21,2.25,1.29,4.36C61.62,49.25,57.62,81.38,34.75,96"/><path d="M60.62,48.75c6.22,10.89,16.59,27.39,25.41,37.54c2.16,2.49,4.48,5.32,7.21,7.21"/><path d="M77.58,20.75c5.29,3.38,8.93,7.09,11.17,11"/></svg>