<svg><path d="M31.61,20c0.14,1.25,0.07,2.47-0.47,3.93c-4.39,11.82-9.77,22.13-19.64,36.36"/><path d="M26.03,41.5c0.97,1,1.5,2.42,1.5,3.88c0,10.94-0.02,30.36-0.03,41.25c0,2.61,0,4.73,0,6.12"/><path d="M46.39,25.58c2.11,0.42,4.35,0.41,6.1,0.18c8.38-1.09,19.82-2.35,27.9-2.79c1.69-0.09,3.39-0.24,5.04,0.19"/><path d="M38.25,48.83c2.48,0.78,5.36,0.65,7.88,0.36c13.62-1.57,30.24-3.32,42.37-4.31c2.51-0.21,5.01-0.22,7.5,0.25"/><path d="M64.15,50.85c0.37,1.15,0.35,2.59-0.3,4.04C59.75,64,54.75,73.75,47.43,84.62c-1.94,2.87-1.37,4.72,2.14,3.73c12.31-3.48,20.31-5.98,36.04-10.09"/><path d="M79.75,68.21c4.66,3.92,11.41,16.05,12.57,22.15"/></svg>