<svg><path d="M32.99,15.39c0.13,1.16,0.06,2.38-0.37,3.78C29.62,29,21.35,45.79,10.81,57.97"/><path d="M25.53,40.5c1.05,1.05,1.26,2.38,1.26,4.23c0,10.25-0.03,29.62-0.04,41.77c0,3.28,0,6.01,0,7.88"/><path d="M37.75,41.76c2.75,0.49,4.25,0.5,6.73-0.04c7.9-1.71,23.27-6.46,34.8-8.07c2.25-0.31,4.97-0.4,7.22,0.06"/><path d="M55,11.75c1.31,1.31,2.16,3.12,2.46,6.17C60.88,52.5,72,78.5,89.51,93.46c5.64,4.82,5.18,1.02,4.38-6.94"/><path d="M84.69,45.39c-0.07,1.73-0.54,3.07-1.5,4.95c-4.57,8.91-18.32,25.41-39.63,35.88"/><path d="M81.75,14.12c3.18,2.08,8.27,6.82,9.75,10.38"/></svg>