<svg><path d="M32.48,16.89c0.14,1.13,0.25,2.55-0.13,3.93C29.99,29.6,20.84,46.57,9.81,58.47"/><path d="M25.99,41c0.66,0.68,0.84,2.19,0.84,3.58c0,14.46-0.32,39.08-0.32,48.79"/><path d="M62.43,13.12c0.27,0.92,0.54,1.9,0.44,2.61C60.25,34.25,54,52,41.88,60.75"/><path d="M42.29,27.12c0.85,0.35,4.03,0.12,5.09,0c3.37-0.37,26.12-4.37,30-5.02c2.09-0.35,2.99,1.66,2.71,3.11c-0.59,3.04-3.8,11.66-3.8,16.63c0,5.91,2.46,9.91,9.64,9.91c7.07,0,9.53-1.61,9.53-6.29"/><path d="M37.38,70.12c1.61,0.64,4.57,0.8,6.18,0.64c13.2-1.27,31.81-4.95,45.94-5.2c2.68-0.05,4.29,0.31,5.64,0.63"/><path d="M64.71,54.88c0.52,0.41,1.62,3.11,1.73,3.93c0.11,0.83-0.07,33.63-0.17,38.82"/></svg>