<svg><path d="M30.5,16.89c0.12,1.19-0.03,2.43-0.36,3.9c-2.08,9.25-10.13,27.14-19.83,39.68"/><path d="M24.28,41.5c0.92,0.92,1.26,2.12,1.26,4.23c0,10.37-0.03,28.83-0.04,41.02c0,3.11,0,5.82,0,7.88"/><path d="M33.61,37.26c1.58,1.03,4.33,0.85,6.07,0.45c5.86-1.34,15.67-3.63,19.83-4.57c3.1-0.7,5,0.26,4.87,3.78c-0.32,8.91-5.47,40.22-9.89,51.1c-3.62,8.91-5.96,0.83-6.84-0.22"/><path d="M49.12,15.43c0.76,1.07,0.97,2.2,0.88,4.25c-0.85,19.03-6.23,53.15-18.34,69.71"/><path d="M70.31,32.23c0.79,0.79,1.28,1.65,1.39,3.48c0.55,8.54,1.64,27.73,2.27,44.04c0.12,3.24,0.24,6.35,0.34,9.21"/><path d="M72.69,34.74c6.82-1.2,12.75-2.49,17.08-2.94c3.43-0.35,5.22,0.53,4.98,4.21c-0.42,6.68-1.8,28.99-2.94,46.38"/><path d="M75.58,85.28c4.4-0.38,8.42-0.92,13.92-1.51c1.47-0.16,2.97-0.3,4.51-0.42"/></svg>