<svg><path d="M30.69,15.5c0.13,1.16,0.22,2.61-0.11,4.03c-2.11,8.99-10.26,26.36-20.08,38.55"/><path d="M25.94,37.86c0.91,0.91,1.32,2.14,1.32,3.51c0,11.62-0.01,34.18-0.01,47.14c0,2.82,0,5.18,0,6.88"/><path d="M61.61,12.75c0.08,1.01-0.04,2.68-0.66,4.05c-4.32,9.58-13.32,25.95-25.7,37.79"/><path d="M61.93,17.77c4.49,4.19,17.44,18.68,25.07,26.24c2.5,2.47,4.76,4.24,8.26,6.15"/><path d="M56.74,40.42c4.16,2.26,10.76,9.29,11.8,12.81"/><path d="M41.09,62.07c2.35,1.63,6.62,0.89,9.27,0.49c9.15-1.36,29.34-4.52,31.81-4.88c3-0.44,4.25,1.28,2.1,3.61C79.21,66.74,70.5,76.5,65.12,82.38"/><path d="M51,75.12c5.11,2.73,18.32,13.23,20.72,20.38"/></svg>