<svg><path d="M32.25,13.14c0.13,1.23,0.22,2.78-0.11,4.29C30,27,23,45.12,13.06,59.72"/><path d="M26.53,40.75c0.98,0.98,1.26,2.25,1.26,3.98c0,10.23-0.01,30.65-0.01,44.52c0,3.57-0.03,6.5-0.03,8.37"/><path d="M40,22.74c2.55,0.46,5.19,0.6,7.76,0.19C63,20.5,74.88,18.38,85.31,16.99c4.18-0.55,6.01,1.88,6.01,6.07c0,2.36-0.03,59.12-0.03,64.54c0,14.15-5.91,5.9-8.72,2.82"/><path d="M40,39.64c2.5,0.49,5.07,0.21,7.15-0.11c6.36-0.97,16.64-3.03,22.98-3.84c2.06-0.26,4.36-0.42,6.37,0.07"/><path d="M44.75,54.91c0.86,0.86,1,1.97,1.21,3.45c0.45,3.23,1.29,8.45,1.83,13.17c0.18,1.58,0.35,3.1,0.52,4.46"/><path d="M46.74,56.35c7.76-1.72,15.41-2.81,22.28-3.6c2.56-0.29,5.11,1.12,4.14,4.26c-1.66,5.37-2.56,7.4-4.31,13.26"/><path d="M49.13,73.44c5.73-0.56,10.72-1.31,17.64-1.95c1.68-0.15,3.44-0.3,5.31-0.43"/></svg>