<svg><path d="M33.24,16.14c0.14,1.18,0.24,2.4-0.12,3.85c-2.29,9.15-11.39,26.83-22.06,39.22"/><path d="M26.28,40.75c0.98,0.98,1.26,2.5,1.26,4.48c0,10.24-0.03,29-0.04,41.02c0,3.27,0,6,0,7.88"/><path d="M49.23,23.92c0.93,0.93,1.16,2.18,1.16,3.67c0,0.67,0,32.04,0,39.16c0,1.88,0,3.62,0,6.06"/><path d="M51.35,25.86c6.19-0.71,22.9-2.38,28.66-2.93c3.33-0.32,5.69,0.44,5.69,4.21c0,6.12,0.08,28.5-0.03,39.43c-0.03,3.49-0.05,5.82-0.05,6.07"/><path d="M51.43,47.22C61,46.5,77,45.12,84.68,44.86"/><path d="M51.35,70.01c8.9-0.64,23.15-2.14,33.2-2.49"/><path d="M40.13,89.54c2.87,0.71,5.78,0.77,8.25,0.54c11.49-1.09,30.42-2.54,41.5-2.8c2.33-0.06,4.98,0.09,7.25,0.66"/></svg>