<svg><path d="M31.5,16.39c0.13,1.13,0.23,2.55-0.12,3.93c-2.19,8.78-10.64,25.75-20.82,37.64"/><path d="M25.03,41.5c0.59,0.61,0.76,1.97,0.76,3.23c0,13.02-0.29,40.15-0.29,48.9"/><path d="M41.5,27.09c0.36,1.07,1.49,2.77,1.56,4.1C43.75,44.5,44,68.5,44.52,90"/><path d="M43.18,29.09c12.58-1.19,35.13-3.19,44.52-4.34c3.45-0.42,5.2,2.99,5.02,6.15c-0.69,11.57-3.47,40.42-4.18,58.54"/><path d="M65.93,29.43c0.57,0.57,0.96,2.29,0.96,4.2c-0.05,12.55,0.22,47.79,0.22,52.34"/><path d="M44.44,57.01c4.12-0.52,42.79-3.17,46.19-3.17"/><path d="M44.68,87.19c9.1,0,31.15-1.42,43.71-1.71"/></svg>