<svg><path d="M31.76,18.25c0.24,1.38,0.24,2.62-0.31,3.98C27.15,32.75,20.41,42.48,9.5,55.04"/><path d="M24.03,40.25c1.05,1.05,1.5,2.44,1.5,4.12c0,11.05-0.02,31.15-0.03,42.88c0,3.28,0,5.91,0,7.5"/><path d="M71.24,13.11c0.07,0.41,0.15,1.05-0.14,1.64C69.41,18.2,61.5,25,48.35,30.8"/><path d="M46.16,29.7c1.13,1.13,1.57,2.55,1.57,4.04c0,1.97-0.17,38.69-0.17,41.76c0,3.07,0.78,3.54,3.15,1.5c3.04-2.62,10.67-8.62,13.68-10.48"/><path d="M49.03,50.82c0.64,0.21,1.83-0.17,2.47-0.29c9-1.78,25-5.53,33.03-7.88c1.84-0.54,3.73-0.78,5.63-0.41"/><path d="M63.15,26.32c1.22,0.93,1.9,2.31,2.09,3.93C67.88,52.5,75.62,73.88,93.15,87.1c6.04,4.55,4.36-3.07,4.36-5.7"/><path d="M45.25,94.14c1.75,0.36,3.89,0.42,5.74,0.15c7.88-1.16,20.12-2.32,26.26-2.87c1.91-0.17,4.12-0.17,5.75,0.09"/></svg>