<svg><path d="M32.5,13.75c0.23,2.1-0.19,3.81-0.8,5.66c-3.95,11.84-9.67,23.37-20.45,37.34"/><path d="M26.76,36.5c1.24,1.5,1.54,3.04,1.54,5.5c0,9.46-0.13,30.79-0.17,44.62c-0.01,2.6-0.01,4.94-0.01,6.88"/><path d="M38.88,26.64c1.74,0.5,4.68,0.67,6.41,0.5c13.21-1.27,33.84-4.77,46.26-5.86c2.88-0.25,4.63,0.24,6.08,0.49"/><path d="M40.87,44c0.75,0.75,1.26,1.62,1.36,2.21c0.67,4.06,1.44,10.16,2.25,16.3c0.27,2.04,0.26,2.01,0.47,3.75"/><path d="M43.27,45.6c6.28-1.17,15.14-2.97,19.73-3.72c3.13-0.51,4.4,0.31,3.68,3.51c-0.86,3.86-2.49,10.33-3.28,14.14"/><path d="M45.59,63.17c3.71-0.39,9.45-1.24,14.45-1.85c1.89-0.23,3.82-0.47,5.75-0.69"/><path d="M83.25,24.75c1,1,1.74,2.18,1.81,4.99c0.33,13.52-0.21,56.44-0.21,61.04c0,10.71-6.35,2.71-9.18-0.77"/></svg>