<svg><path d="M33.49,14.89c0.13,1.17,0.24,2.64-0.12,4.08c-2.26,9.09-11.02,26.67-21.56,39"/><path d="M26.01,41c0.63,0.66,0.81,2.11,0.81,3.46c0,13.96-0.31,43.03-0.31,52.41"/><path d="M46.14,19.28c1.08,0.37,3.05,0.44,4.14,0.37c6.48-0.4,22.23-2.9,30-3.07c1.8-0.04,2.88,0.18,3.78,0.36"/><path d="M37.25,35.67c1.43,0.5,4.04,0.51,5.47,0.5c11.75-0.06,38.36-4.42,47.36-4.25c2.38,0.05,3.81,0.24,5,0.49"/><path d="M62.92,42.37c0.46,1.17,0.13,2.64-0.23,4.1c-1.78,7.13-8.44,20.52-14.13,28.71c-1.24,1.78-0.26,2.13,0.68,2.15c13.21,0.2,34.84,8.98,41.68,18.15"/><path d="M80.78,52.14c0.12,1.07,0.2,3.67-0.24,5.22C76.94,69.9,64.5,89.75,40.87,97"/><path d="M35.38,57.7c2.01,0.45,4.16,0.75,5.12,0.68c20.33-1.41,34.16-3.44,53.57-3.64c1.61-0.02,4.38,0.27,5.68,0.78"/></svg>