<svg><path d="M32.99,16.89c0.13,1.15,0.23,2.59-0.12,4c-2.24,8.93-10.89,26.21-21.31,38.32"/><path d="M26.53,41.5c0.59,0.61,0.76,1.97,0.76,3.23c0,10.58-0.19,33.62-0.26,46.02C27.01,93.61,27,94.48,27,96.12"/><path d="M38.82,29c2.18,1,4.44,1.02,6.05,0.8c1.61-0.22,35.49-4.62,38.71-5.27s4.28,1.83,3.64,3.84c-0.76,2.38-1.66,4.52-2.6,7.92c-0.3,1.08-0.6,2.23-0.91,3.47"/><path d="M43.25,44.81C54,43.75,73.5,41.25,80.99,40.41c2.04-0.23,4.11-0.47,5.76-0.47"/><path d="M42.26,42.45c0.5,0.87,0.81,3.74,0.19,5.11c-0.72,1.57-5.66,10.89-5.98,11.76c-0.32,0.87-0.04,3.05,2.57,2.61c5.45-0.93,45.7-5.18,52-5.77c1.61-0.15,3.34,1.25,2.92,4.38c-0.65,4.78-4.86,16.2-8.14,21.46c-3.35,5.35-4.25,1.41-6.09-2.44"/><path d="M53.36,15.37c0.73,0.98,1.3,2.38,1.34,4.2C55.75,71.25,50.25,87,38.2,96.95"/><path d="M68.33,10.5c1.41,0.65,2.54,3,2.54,4.21c0,1.33,0,76.43-0.28,84.54"/></svg>