<svg><path d="M31.75,16.25c0.23,2.15-0.05,3.95-0.8,5.78C26.88,32,21,45.88,9.12,60"/><path d="M23.78,42.75c1.11,1.11,1.23,2.89,1.31,4.49c0.46,10.12-0.23,30.08-0.5,41.01c-0.06,2.38-0.09,4.36-0.09,5.75"/><path d="M37.28,36.89c0.95,0.24,3.21,0.59,5.72,0.36c11.97-1.12,30.25-4,42.78-4.7c2.52-0.14,4.42,0.01,6,0.25"/><path d="M61.88,12c1.06,1.06,1.6,2.75,1.6,4.38c0,0.85,0.05,55.5-0.12,74.13c-0.03,2.9-0.05,4.93-0.08,5.74"/><path d="M61.88,36.37c0,1.38-0.51,2.64-0.94,3.49C55.07,51.39,42.61,66.29,32.5,72.5"/><path d="M64.38,36.75c3.77,7.25,17.11,24.4,23.75,30.78c1.71,1.64,3.85,3.76,6.13,4.47"/><path d="M46.54,74.65c1.23,0.29,3.48,0.39,4.71,0.29c10.8-0.93,17.26-2.18,24.7-2.46c2.05-0.08,3.28,0.14,4.3,0.28"/></svg>