<svg><path d="M52.34,10.75c0.11,0.98,0,2.64-0.72,3.93C46.38,24,34.25,39,12.75,52.5"/><path d="M53.24,14.7c5.39,5.92,22.22,19.05,31.57,26.25c2.81,2.17,7.56,5.17,9.69,6.31"/><path d="M37.45,44.7c1.45,0.59,3.91,0.65,5.45,0.53c7.35-0.6,16.86-2.32,23.25-3.04c1.73-0.2,4.23-0.46,5.97-0.03"/><path d="M25.59,63.37c2.91,0.5,5.12,0.39,7.54,0.1c12.25-1.47,33.27-3.22,43.63-3.88c2.27-0.14,4.43-0.24,6.66,0.24"/><path d="M52.71,47c1.02,1.02,1.51,2.5,1.51,4.27c0,19.73-0.01,35.91-0.01,40.87c0,11.25-6.21,2-7.71,0.75"/><path d="M36.19,74.81c0.18,1.38-0.26,2.53-1.19,3.6c-3.87,4.46-9.74,9.42-20.25,15.72"/><path d="M69.71,73.25c6.1,2.94,14.67,11.5,17.04,16.63"/></svg>