<svg><path d="M37.66,15.25c0.16,1.24,0.13,2.82-0.4,4.31C33.38,30.5,23.84,48.79,11,61.82"/><path d="M26.73,43.86c0.9,0.9,1.26,1.97,1.26,3.23c0,9.74-0.02,28.78-0.03,41.42c0,4.25-0.01,7.78-0.01,9.98"/><path d="M64.34,14.75c0.67,1.31,0.94,2.56,0.67,4.91C62.77,38.98,52.25,66.62,39,83.5"/><path d="M39.25,39.65c2.61,1.05,5.95,0.57,8.62,0.22c14.01-1.8,27.54-3.76,39.74-5.21c2.83-0.34,5.35-0.36,8.13,0.34"/><path d="M52.5,67.25c0.81,0.81,1.25,2.18,1.41,3.2c0.83,5.5,1.8,13.6,2.47,19.42c0.31,2.7,0.56,4.9,0.71,6.13"/><path d="M54.88,69.25c8.21-1.14,23-3.5,30.23-4.66c3.6-0.58,6.32,0.85,5.48,4.66C89.12,75.88,87.05,84.9,85.67,91"/><path d="M58.23,94.25c5.11-0.19,16.19-1.42,24.27-1.97c2.44-0.17,4.6-0.28,6.25-0.28"/></svg>