<svg><path d="M34,15.25c0.23,2.17-0.31,4.01-1.07,5.87C28.12,32.98,21.38,46.25,10.5,59.29"/><path d="M24.78,43c0.98,0.98,1.26,2.25,1.26,3.98C26.04,57,26.01,77.13,26,89.5c0,3.08,0,5.6,0,7.25"/><path d="M40.69,39.29c2.94,0.49,5.5,0.22,8.44-0.23c10.87-1.68,20.55-3.45,32.62-4.79c2.58-0.29,5.04-0.61,7.57,0.14"/><path d="M64.16,14c0.71,1.5,0.58,3.08,0.33,4.62C60.25,44.75,52,68,34.77,81.84"/><path d="M54.88,61.03c2.25,0.47,4.28,0.31,5.89,0.11c4.93-0.61,14.03-1.94,20.36-2.54c1.69-0.16,3.82-0.46,5.46,0.19"/><path d="M69.2,63.15c1.16,1.04,1.32,2.1,1.32,3.56c0,5.82,0.04,15.66,0.04,22"/><path d="M44.75,91.73c2.41,0.83,5.67,0.58,8.12,0.23c11.26-1.58,23.88-2.96,33.88-3.5c2.87-0.16,5.72-0.17,8.46,0.93"/></svg>