<svg><path d="M33.99,15.39c0.14,1.18,0.24,2.67-0.12,4.12c-2.34,9.2-11.39,26.98-22.3,39.45"/><path d="M27.99,40c0.66,0.68,0.84,2.19,0.84,3.58c0,14.46-0.32,44.58-0.32,54.29"/><path d="M64.31,13.52c0.96,0.43,2.32,2.53,2.3,3.76c-0.07,3.89-0.07,7.01-0.07,10.55"/><path d="M42.46,29.75c0,3.93-2.06,12.02-3.25,14.64"/><path d="M43.12,31.4c15.61-2.55,42.77-6.12,49.39-5.85c8.73,0.35-0.63,7.49-2.81,9.52"/><path d="M84.87,45.11c0.19,0.42,0.32,1.65-0.18,2.3c-3.25,4.21-14.37,15.81-24.86,20.12"/><path d="M54.05,43.75c0.88,1.02,0.94,1.7,1.23,3.06c0.29,1.36-0.11,35.2-0.11,39.46c0,10.94,10.93,9.23,20.93,9.23c7.76,0,13.41-0.58,16.33-3.63c2.92-3.06,2.56-6.61,2.86-9.67"/></svg>