<svg><path d="M35.5,14c0.23,2.23-0.06,4.15-0.8,6.06C30,32.24,24.03,43.68,13.25,58.5"/><path d="M27.66,40.75c1.09,1.12,1.78,3.48,1.78,4.73c0,12.54-0.16,30.2-0.31,42.02c-0.03,2.58-0.05,4.87-0.05,6.75"/><path d="M60.75,12c0.37,1.5,0.19,3.75-0.37,5.27C57.25,25.75,52.29,38.23,44.31,47"/><path d="M56.86,32.42c2.21,0.08,4.42,0.04,5.97-0.13c8.04-0.91,15.67-2.29,25.6-4.09c2.81-0.51,5.28-0.45,7.4-0.08"/><path d="M68.35,34.21c1.1,1.1,1.62,2.73,1.62,4.09c0,6.33-0.17,37.69-0.22,53.95c-0.01,2.99-0.02,5.41-0.02,7"/><path d="M72.75,52.78c5.12-0.59,10.5-1.4,15.75-2.29c1.61-0.27,3.4-0.12,4.22,0.02"/><path d="M73.04,72.51c6.55-0.75,11.75-1.42,18.9-2.27c1.87-0.22,3.07-0.12,4.03,0.02"/></svg>