<svg><path d="M32.51,18.25c0.23,1.89-0.06,4.11-0.8,5.73C27.03,34.28,21.12,45,10.38,56.5"/><path d="M24.53,42.75c0.92,0.92,1.75,2.5,1.74,3.75c-0.03,10.66-0.2,32.7-0.26,44.5C26.01,93.55,26,95.62,26,97"/><path d="M44,30.64c1.42,0.38,4.04,0.3,5.45,0.13c8.43-1.02,21.93-2.77,31.57-3.63c2.35-0.21,3.79,0.18,4.98,0.37"/><path d="M42.5,43.19c1.12,0.56,1.99,1.94,2.17,2.75c0.79,3.66,1.69,8.6,2.48,13.44c0.17,1.04,0.33,2.08,0.49,3.09"/><path d="M45.57,44.79c8.26-1.22,27.06-3.54,36.45-4.38c4.37-0.39,5.86,1.84,4.52,5.21c-1.45,3.66-2.44,5.85-4.3,10.81"/><path d="M48.26,59.6c4.73-0.44,22.73-1.85,32.87-2.44c1.7-0.1,3.17-0.18,4.33-0.22"/><path d="M63.38,12.93c1.22,1.22,1.39,2.57,1.44,4.82C66,70,66.62,81.25,36.75,95"/><path d="M44,67.88c7.25,0.38,28.04,16.2,40.84,22.59c2.52,1.25,4.41,2.29,7.54,3.04"/></svg>