<svg><path d="M30.01,15.39c0.11,1.19,0.2,2.68-0.1,4.15c-1.9,9.25-9.25,27.14-18.1,39.68"/><path d="M25.53,40.5c0.59,0.61,0.76,1.97,0.76,3.23c0,13.04-0.29,41.12-0.29,49.9"/><path d="M54.5,16.41c0.73,1.69,1.43,3.81,1.43,5.12c0,8.28,0.06,23.56,0.06,32.68c0,22.6-7.49,34.55-17.09,42.72"/><path d="M35.66,33.06c4.04,2.57,10.44,10.57,11.45,14.57"/><path d="M36.11,70.79c1.09,0.45,2.19,0.59,3.02,0.09c1.15-0.7,9.42-6.48,13.93-9.85"/><path d="M69.78,13.19c0.97,1.06,1.46,2.83,1.49,4.47c0.14,7.34-0.02,61.29-0.02,66.29c0,11.66,4.76,10.79,13.19,10.79C94.75,94.73,97,93,97,86.05"/><path d="M90.63,27.75c0.04,0.39,0.1,1-0.09,1.55c-1.1,3.27-7.44,10.45-16.1,14.84"/><path d="M73.95,53.02c5.1,3.37,13.17,13.85,14.45,19.09"/></svg>