<svg><path d="M34,18c0.24,2.09-0.07,4.82-0.83,6.61C28.31,36.02,22.64,46.25,11.5,60.13"/><path d="M27.31,41.01c1.19,1.49,1.26,3.4,1.32,5.74c0.31,13.79-1.03,40.6-0.59,48"/><path d="M43.46,22.92c1.15,0.47,3.26,0.62,4.41,0.47c10.38-1.39,28.79-3.06,43.64-4.02c1.91-0.12,3.07,0.22,4.03,0.46"/><path d="M67.85,23.88c0.33,0.61,0.39,1.35,0.3,1.89c-0.47,3.14-4.53,11.64-8.22,15.85"/><path d="M49.76,42.32c0.61,1.3,1.04,1.96,1.22,3.69c1.06,10.49,1.23,40.19,1.48,48.74"/><path d="M51.34,44.39c3.44-0.22,30.89-3.68,34.02-3.94c2.61-0.22,4.29,1.45,4.08,2.74c-0.41,2.6-1.45,36.44-1.77,50.29"/><path d="M52.78,66.7C67,65.25,78.5,64,86.73,64.13"/><path d="M53.47,91.87c11.28-0.87,23.28-1.62,33.89-1.64"/></svg>