<svg><path d="M32,16.89c0.13,1.23-0.03,2.53-0.36,4.04C29.5,30.5,20.25,46,10.31,58.97"/><path d="M24.03,42.25c0.98,0.98,1.26,2.62,1.26,4.88c0,10.69-0.03,30.36-0.04,42.12c0,3.08,0,5.64,0,7.38"/><path d="M41.25,17.49c1.04,1.08,1.39,2.05,1.66,3.47c0.96,5.05,1.9,10.33,2.76,16.24c0.3,2.01,0.57,3.98,0.8,5.77"/><path d="M43.49,19.04c11.17-1.27,27.68-3.2,34.89-4.04c3.96-0.46,5.43,1.33,4.59,5.26c-1.07,5-2.16,9.77-3.78,16.51"/><path d="M47.29,40.85c5.37-0.54,19.28-2.07,28.51-2.94c1.87-0.18,3.54-0.33,4.92-0.44"/><path d="M44.79,51.89c0.91,0.91,1.14,2.11,1.14,4.1c0,16.89-3.56,28.51-12.87,36.23"/><path d="M60.77,51.37c0.75,0.75,1.01,2.01,1.01,3.77c0,9.73,0.02,23.49,0.02,27.12c0,3.26-0.04,6.11-0.04,7.75"/><path d="M76.1,48.62c1.14,1.14,1.33,2.75,1.33,4.43c0,8.19-0.01,24.14-0.01,29.7c0,10.12,1.58,11.53,9.59,11.53c9.62,0,10-0.9,10-9.12"/></svg>