<svg><path d="M33.75,16.39c0.13,1.23,0.22,2.78-0.11,4.29C31.5,30.25,21.75,47.5,11.81,60.47"/><path d="M26.28,43c0.98,0.98,1.26,2.47,1.26,3.73c0,10.44,0.06,29.94-0.01,41.77c-0.02,2.93-0.03,5.39-0.03,7.12"/><path d="M42.88,27.28c2.83,0.54,5.54,0.37,8.37,0c8.61-1.12,20.47-2.3,29.5-2.82c2.45-0.14,4.95-0.36,7.37,0.13"/><path d="M63.17,12.12c0.86,0.85,1.52,2.23,1.52,3.75c0,7.76-0.07,21.67-0.07,25.01"/><path d="M37.13,43.97c2.74,0.79,5.86,0.33,8.62,0.02c14.38-1.61,27.63-3.11,41.25-3.94c2.83-0.17,5.56-0.17,8.38,0.32"/><path d="M38.88,61.24c3.12,0.51,6.35,0.53,9.26,0.15c12.36-1.64,27.56-3.48,38.24-4.15c2.93-0.18,5.85-0.34,8.75,0.27"/><path d="M77.1,47.06c0.86,0.86,1.4,2.17,1.4,3.81c0,12.04,0,34.15,0,38.25c0,10.83-6.14,2.51-8.14,1.25"/><path d="M51.62,70.12c2.6,1.7,6.73,6.98,7.38,9.62"/></svg>