<svg><path d="M30.12,17.5c0.25,1.75-0.06,3.29-0.72,5.08C25.15,33.98,20.12,45,9.75,58.79"/><path d="M22.78,43.75c0.98,0.98,1.35,2.25,1.35,3.98c0,9.99-0.09,27.46-0.12,37.52C24,87.66,24,89.65,24,91"/><path d="M37.45,22.06c0.92,0.37,2.6,0.45,3.52,0.37c5.93-0.53,14.28-2.05,21.06-2.82c1.52-0.17,2.7-0.07,3.47,0.11"/><path d="M49.73,25.21c0.39,1.16,0.41,2.1,0.12,3.26c-2.11,8.41-8.23,20.28-17.56,31.59"/><path d="M47.82,40.96c1.06,0.29,2.06,0.16,3.51-0.12c3.31-0.66,4.58-0.75,6.7-1.51c2.97-1.07,4.84,0.26,3.83,3.77C57.75,57.38,48.38,78.75,31.77,90.5"/><path d="M41.25,56.25c3.42,1.53,7.84,6.04,8.69,8.42"/><path d="M73.27,27.12c1.25,1.25,1.76,2.76,1.76,5.02c0,10.99,0,21.7,0,29.37c0,2.53,0,4.73,0,6.5"/><path d="M90.02,14.08c1.39,1.39,2.01,2.92,2.01,5.52c0,16.4-0.01,62.41-0.01,67.37c0,9.28-5.52,3.78-8.71,0.25"/></svg>