<svg><path d="M31.99,17.39c0.14,1.13,0.24,2.55-0.12,3.93c-2.34,8.78-11.39,25.75-22.3,37.64"/><path d="M25.49,41c0.66,0.68,0.84,2.19,0.84,3.58c0,14.46-0.32,41.08-0.32,50.79"/><path d="M49.49,20.86c0.03,0.57,0.11,1.64-0.06,2.28c-2.01,8.02-4.98,15.38-10.22,21.85"/><path d="M48.49,32.5c0.67,0.27,2.41,0.3,3.08,0.27c7.01-0.31,21.48-2.7,30.01-3.6c1.12-0.12,1.8,0.13,2.36,0.27"/><path d="M35.39,54c0.8,0.24,2.94,0.42,5.07,0.23c8.47-0.73,33.91-4.62,48.59-5.84c2.13-0.18,4.02,0.24,5.35,0.49"/><path d="M61.98,12.75c1.14,0.49,1.82,2.2,2.05,3.17s0,75.97-0.23,82.08"/><path d="M63.25,52.54C58.43,63.4,45.97,79.86,35.95,86"/><path d="M64.35,52.31c4.22,6.65,22.06,25.66,28.35,31.22c1.57,1.39,2.83,2.1,4.35,2.52"/></svg>