<svg><path d="M35.48,13.89c0.15,1.2,0.26,2.71-0.13,4.19c-2.5,9.36-12.15,27.45-23.79,40.13"/><path d="M26.49,42c0.66,0.68,0.84,2.19,0.84,3.58c0,14.46-0.32,42.08-0.32,51.79"/><path d="M65.13,11.67c0.22,0.31,0.19,1.23,0.03,1.85c-0.96,3.66-9.38,14.64-19.56,21.55"/><path d="M67.26,17.14c0.29,0.02,2.51,0.48,3.32,0.39c2.66-0.3,10.04-2.21,13.54-3.27c2.52-0.77,3.54,0.65,2.86,2.16C82,27.5,62,49.75,42.16,55.84"/><path d="M58.4,29.08c2.29,1.68,6,6.98,6.65,9.67"/><path d="M73.64,45.75c0.35,0.45,0.25,1.86-0.2,2.69c-3.43,6.4-10.96,15.97-26.07,24.65"/><path d="M74.29,52.69c1.21,0.56,2.46,0.31,4.03,0.38c2.92,0.13,10.75-1.33,14.57-2.45c2.74-0.81,3.93,1.23,3.12,2.77C87,70.5,67.25,90,46.75,97"/><path d="M62.76,65.88c2.35,2.41,6.16,10.04,6.82,13.89"/></svg>