<svg><path d="M18.25,30.96c1.89,0.7,4.05,0.93,6.23,0.7c11.1-1.15,43.31-5.15,60.09-6.5c2.16-0.17,3.52,0.12,5.68,0.62"/><path d="M33.5,38.49c0,0.65,0.08,1.2-0.13,1.95c-1.93,7.07-7.69,15.87-16.15,23.68"/><path d="M32.14,49.46c3.3,1.87,7.51,6.83,9.11,11.54"/><path d="M77.76,34.24c0,0.52,0.11,0.97-0.1,1.56c-1.82,5.1-7.01,14.18-13.18,19.32"/><path d="M75.14,45.21c4.7,3.39,8.3,7.64,11.11,12.79"/><path d="M52.25,10.75c1.25,0.5,2.25,2.22,2.25,3.25c0,10.5,0,79.75-0.25,86"/><path d="M54.25,53.75c-6.77,12.28-24.92,31.05-39,38"/><path d="M54.5,55c4.75,4.39,27.09,26.42,32.25,30.74c1.75,1.46,3.25,2.09,5,2.51"/></svg>