<svg><path d="M32.26,17.75c0.22,2.1-0.06,3.34-0.76,5.14c-4.44,11.45-10.57,23.46-20.75,37.4"/><path d="M24.03,42.5c1.05,1.05,1.51,2.5,1.51,4.48c0,10.15,0.07,28.14-0.01,39.77c-0.02,3-0.03,5.51-0.03,7.25"/><path d="M60.61,14c1.19,1.19,1.48,2.75,1.48,4.41c0,4.21-0.15,6.59-0.15,10.4"/><path d="M36.75,32.36c2.22,0.64,4.24,0.61,6.5,0.27c9.12-1.35,27.62-4.38,40-5.09c2.04-0.12,4.25-0.16,6.03,0.37"/><path d="M55.79,34.64c0.12,1.45,0.08,2.69-0.47,4.06c-2.78,7.01-10.57,18.91-22.27,29.27"/><path d="M47.72,59.5c0.76,0.76,1.21,2.21,1.2,3.71c0,7.41-0.14,19.91-0.14,23.72c0,2.41,1.17,2.49,2.8,1.17c4.82-3.9,12.61-10.18,14.19-11.62"/><path d="M80.36,40.89c0.14,0.73-0.36,1.86-1.07,2.71C77.16,46.14,75.47,48.09,68,54"/><path d="M58.32,50.25c4.3,0,14.55,13,29.35,30.33c2.18,2.56,4.7,4.79,7.83,6.67"/></svg>