<svg><path d="M34.68,17c0.14,1.18,0.24,2.67-0.12,4.12c-2.29,9.2-11.14,26.73-21.81,39.2"/><path d="M27.23,41.36c1.08,1.08,1.26,2.47,1.26,3.73c0,7.82-0.03,28.55-0.04,41.29c0,3.4,0,6.24,0,8.11"/><path d="M61.26,13.74c0.74,1.26,0.49,2.49,0.11,4.13c-3.12,13.38-9.37,29.63-23,43.26"/><path d="M38.25,31.45c3.25,0.8,7.19,0.33,9.89-0.06c8.95-1.29,24.86-3.51,36.24-4.83c3.02-0.35,5.87-0.31,9.37,0.54"/><path d="M54.12,45.52c0.99,0.99,1.37,2.35,1.37,3.52c0,3.45,0.01,25.61-0.02,37.84c-0.01,4.48-0.02,7.63-0.04,8.03"/><path d="M56.37,47.31c2.24-0.17,22.59-2.66,24.26-2.88c2.37-0.31,3.74,0.81,3.74,3.19c0,2.75,0.01,27.07-0.06,40.68c-0.06,11.19-4.31,3.44-6.36,1.51"/><path d="M56.62,59.88c7.67-1.01,19.96-2.34,26.69-2.84"/><path d="M56.93,72.16c5.99-0.5,19.33-2.02,26.26-2.35"/></svg>