<svg><path d="M51.12,11.5c0.11,0.94,0.23,2.42-0.22,3.77C48.27,23.22,35,40,13.5,51.85"/><path d="M53.04,16.05C60,20.75,82.32,38.82,88.2,42.73c1.99,1.33,4.55,1.89,6.55,2.27"/><path d="M35.25,42.89c0.94,0.38,2.66,0.49,3.6,0.38c5.98-0.66,22.4-3.02,29.11-3.38c1.56-0.08,2.5,0.18,3.29,0.37"/><path d="M23.75,56.65c0.67,0.73,0.77,1.88,0.89,3.21C25.25,67,27,91.25,27.86,98.5"/><path d="M24.64,58.11c8.42-0.58,53.63-4.21,55.29-4.42c3.55-0.44,4.84,3.06,4.88,4.52C85,66,81.75,88.25,79.53,93.35c-2.21,5.07-2,3.65-4.65,1.75"/><path d="M26,75.75c6.75-0.5,51.75-4.25,56.5-4.5"/><path d="M42.77,58.83c0.98,0.92,1.67,1.99,1.76,5.02c0.4,14.55-0.02,27.69-0.02,32.65"/><path d="M60.27,55.83c0.98,0.92,1.67,1.99,1.76,5.02C62.42,75.41,62,91.04,62,96"/></svg>