<svg><path d="M33.01,18.75c0.21,2.01-0.06,3.4-0.73,5.12C28,34.86,22.07,45.67,12.25,59.04"/><path d="M26.03,42.25c0.59,0.61,1.01,1.97,1.01,3.23c0,9.48,0.06,30.41-0.01,42.02C27.01,90.31,27,92.64,27,94.25"/><path d="M40.78,38.43c1.9,0.69,4.5,0.5,6.48,0.22c8.85-1.28,24.7-3.57,36.64-4.48c2.23-0.17,4.33-0.34,6.52,0.14"/><path d="M52.55,20.6c0.93,0.93,1.57,2.4,1.66,3.91c0.39,7.05,1.13,29.18,1.62,37.21"/><path d="M77.07,15.5c0.84,0.84,1.27,2.42,1.16,3.41c-1.6,13.59-2.97,24.84-4.78,41.1"/><path d="M36.83,63.33c2.73,0.83,5.75,0.62,8.55,0.36c11.35-1.05,31.28-3.48,45-4.05c2.65-0.11,5.18-0.03,7.79,0.45"/><path d="M55.85,72.56c0.12,1.19-0.26,2.51-0.97,3.52c-3,4.3-9.74,11.81-16.97,17.16"/><path d="M75.11,71.19c7.26,3.67,17.39,13.18,20.31,20.52"/></svg>