<svg><path d="M32.62,17.12c0.24,2.09-0.07,3.55-0.85,5.34c-5,11.43-10.82,22.41-22.27,36.32"/><path d="M25.28,39.75c0.8,0.8,1.25,2.39,1.25,3.5c0,10.73-0.02,31.65-0.03,43.25c0,2.8,0,5.06,0,6.5"/><path d="M39.75,29.14c2.62,0.49,5.76,0.13,8.13-0.17c8.56-1.09,25.62-3.34,35.72-4.03c3.03-0.21,5.9-0.43,8.9,0.08"/><path d="M37.25,52.18c1.16,1.16,1.74,2.56,2.03,4.04c1.15,5.98,2.59,19.82,3.54,28.28c0.2,1.76,0.37,3.28,0.52,4.46"/><path d="M40.04,53.92C51,52.5,78.23,49.75,89.13,49.05c4.98-0.32,6.27,1.1,5.53,5.94c-0.93,6.07-2.4,16.07-3.77,24.88c-0.28,1.83-0.56,3.61-0.83,5.29"/><path d="M55.37,31.03c0.93,0.93,1.4,2.05,1.46,3.44c0.42,10.41,1.17,36.29,1.42,49.25"/><path d="M75.12,28.5c0.88,0.88,1.48,2.25,1.38,4.21c-0.5,9.54-1.75,31.54-2.75,49.43"/><path d="M44.5,86.36c9.63-1.24,34.63-3.74,44.7-4.2"/></svg>