<svg><path d="M32.99,11.89c0.14,1.21,0.24,2.73-0.13,4.22c-2.34,9.41-11.39,27.6-22.3,40.36"/><path d="M24.5,40.5c0.65,0.67,0.83,2.16,0.83,3.54c0,14.27-0.32,44-0.32,53.59"/><path d="M43.45,18.88c1.46,0.66,4.29,1.25,5.84,1.12c8.36-0.74,29.69-3.96,33.03-4.35c2.87-0.34,3.8,1.68,3.36,3.62C84.7,23.5,83.25,28,80.82,36.22"/><path d="M46.97,39.61c4.19-0.22,33.42-3.46,37.8-3.68"/><path d="M46.01,19.86c0.49,5.39,0.72,11.14,0.56,22.18C46.25,64.5,43.5,80.25,33.5,93.16"/><path d="M65.18,38.5c5.57,14.25,18.57,38.25,26.49,48.61c1.74,2.28,3.53,3.45,5.08,4.14"/><path d="M56.52,61.58c4.16,1.52,10.75,6.26,11.79,8.63"/><path d="M54.77,81.08c6.1,2.01,15.77,8.26,17.29,11.38"/></svg>