<svg><path d="M33.99,14.89c0.14,1.18,0.24,2.65-0.12,4.1c-2.29,9.15-11.14,26.83-21.81,39.22"/><path d="M27.53,40c0.59,0.61,0.76,1.97,0.76,3.23c0,13.02-0.29,43.65-0.29,52.4"/><path d="M46.39,17.35c0.42,0.5,0.86,0.91,1.04,1.52c1.46,4.84,3.19,16.63,4.18,25.28"/><path d="M48.02,19.56c10.38-1.75,31.55-4.38,36.9-4.92c1.96-0.2,3.63,1.58,3.34,3.04c-1.36,6.98-2.77,13.12-5,20.85"/><path d="M52.03,41.98c6.28-0.61,25.21-2.59,33.18-3.16"/><path d="M65.68,43.43c1.14,1.72,1.24,2.07,0.55,4.07c-0.52,1.49-6.8,13.15-7.72,15.14"/><path d="M44.84,64.52c0.54,0.59,1.1,1.09,1.34,1.82c1.88,5.71,2.61,18.48,3.88,28.64"/><path d="M46.73,66.62c13.36-1.68,36.17-3.99,43.06-4.43c2.52-0.16,4.03,3.13,3.66,4.83c-1.49,6.91-2.61,10.61-5.55,23.04"/><path d="M50.61,92.64c8.09-0.49,29.54-2.19,39.81-2.57"/></svg>