<svg><path d="M31.25,14.39c0.12,1.21-0.03,2.23-0.36,3.72c-2.08,9.41-9.88,27.1-19.58,39.86"/><path d="M23.03,42.25c1.11,1.11,1.51,2.5,1.51,4.48c0,10.54,0.06,31.22-0.01,43.27c-0.02,2.84-0.03,5.21-0.03,6.88"/><path d="M44.66,13.51c2.01,0.81,4.46,0.64,6.59,0.39c6.46-0.76,21.86-2.68,26.91-3.33c3.01-0.39,4.97,0.05,4.58,3.56c-0.59,5.32-1.28,11.64-1.83,16.14c-0.26,2.13-0.5,3.9-0.68,5.06"/><path d="M43.54,24.59c2.84,0.66,4.81,0.46,7.08,0.2c11.16-1.3,17.05-2.17,30.07-3.72"/><path d="M42.29,35.84c2.59,0.53,4.77,0.5,6.97,0.3c10.35-0.96,18.12-2.39,30.17-3.82"/><path d="M39.88,47c-0.15,3.49-3.75,12.63-5.03,14.71"/><path d="M40.58,48.53c14.54-2.15,29.29-3.9,44.44-4.95c13.24-0.91,1.97,7.72,0.73,8.86"/><path d="M45.81,61.58c2.26,0.44,4.01,0.26,6.32-0.08c5.04-0.74,16.22-2.91,19.86-3.59c2.99-0.56,4.55,1.25,3.21,4.06C66.9,79.36,53.25,91.25,37.16,99"/><path d="M45.34,67.99c5.71,0.9,21.66,14.13,36.21,23.88c3,2.01,6.08,3.63,9.95,5.17"/></svg>