<svg><path d="M35.72,12.89c0.16,1.29-0.06,2.95-0.64,4.48C30.25,30.12,23,44.25,10.06,59.72"/><path d="M24.28,44.5c0.8,0.8,1.01,2.22,1.01,3.48c0,9.77-0.02,28.06-0.03,40.27c0,4.06-0.01,7.44-0.01,9.62"/><path d="M57.06,19.64c-0.27,1.12-0.79,2.11-1.57,2.95c-3.75,4.28-8.25,8.03-19.09,14.15"/><path d="M31.81,47.36c3.62,0.63,7.18,0.28,10.83-0.28c12.61-1.95,29.49-4.57,43.62-5.61c2.92-0.43,5.83-0.4,8.73,0.1"/><path d="M50.78,32.58c1.01,1.01,1.09,2.42,1.09,4.27c0,14.56,0.02,49.57,0,54.52c-0.04,9.28-4.71,1.59-5.98,0.34"/><path d="M33.73,72.77c1.65,1.36,2.99,0.86,4.62-0.01c0.96-0.51,19.44-11.05,23.53-13.51"/><path d="M65.54,11.5c1.15,1.84,1.61,3.59,1.87,7.54C69.5,51,78,83.5,93.23,95.17c4.64,3.56,4.02-1.17,2.81-7.34"/><path d="M87.86,52.89c-0.16,1.45-0.54,2.81-1.32,4C81,65.38,71,77.62,59.84,86.75"/><path d="M78.63,20c3.1,2.1,7.8,7.15,9.24,10.75"/></svg>