<svg><path d="M31.74,17.89c0.14,1.09,0.24,2.45-0.12,3.79C29.33,30.14,20.48,46.5,9.81,57.97"/><path d="M24.53,40c1.05,1.05,1.51,2.25,1.51,3.98c0,10.61-0.03,30.57-0.04,42.52c0,2.72,0,5,0,6.62"/><path d="M43.95,22.02c0.6,0.46,1.34,1.71,1.49,2.31c1.32,5.3,2.02,8.63,3.33,14.42c0.36,1.59,0.75,3.25,1.17,4.99"/><path d="M45.63,22.77c9.52-1.49,25.48-3.9,33.87-4.8c3.73-0.4,6.19,0.7,5.29,4.85c-0.91,4.2-1.91,8.07-3.52,13.85"/><path d="M50.44,41.49c8.56-0.99,18.65-2.14,28.33-3.37c1.53-0.19,2.99-0.37,4.36-0.53"/><path d="M64.13,42.35c1.01,1.01,1.23,2.27,1.23,3.96c0,6.34-0.11,26.69-0.11,33.19"/><path d="M66.7,57.02C67.76,57.02,75.88,56,83.02,55.17C84.42,55.01,85.72,54.91,86.81,54.91"/><path d="M49.98,56.2c0.08,0.85,0.22,2.23-0.17,3.44c-3.62,11.14-8.68,23.48-15.47,30.01"/><path d="M46.44,70.83c3.07,0.16,15.81,9.79,34.31,17.09c3.37,1.33,5.99,1.96,10.15,2.83"/></svg>