<svg><path d="M34.5,16.5c0.25,2.03-0.26,4.62-0.87,6.44C29.75,34.56,23,47.02,11,60.5"/><path d="M26.78,42.75c0.84,1.12,1,3.02,0.99,4.25c-0.04,10.67-0.21,31.35-0.26,42.38c-0.01,1.97-0.01,3.63-0.01,4.88"/><path d="M82.45,13.77c-0.2,1.29-0.97,2.23-1.84,2.77c-4.46,2.75-16.11,7.71-34.8,10.27"/><path d="M63.62,26.13c0.25,1.5-0.06,2.59-0.94,3.73c-3.19,4.17-9.08,9.79-13.12,13.18c-1.44,1.21-1.44,2.21,0.5,2.85c3.92,1.3,6.06,2.23,11.93,5.36"/><path d="M80.75,31.22c0,1.41-0.59,2.62-1.25,3.35c-8.25,9.18-16.38,17.18-30,29.08c-1.6,1.4-1,3.05,1,2.63c8.36-1.75,24.62-5.41,36-7.97"/><path d="M80.5,49.88c3.97,2.99,10.26,12.27,11.25,16.92"/><path d="M67.3,65.66c1.02,1.02,1.35,2.21,1.35,3.7c0,5.86-0.01,15.15-0.02,21.27c0,2.9-0.01,5.1-0.01,5.88"/><path d="M52.02,76.09c0.48,1.09,0.48,2.14-0.21,3.36c-2.31,4.03-7.62,10.98-12.56,14.65"/><path d="M83.25,74.92c3.99,3.63,10.83,13.3,12.25,16.92"/></svg>