<svg><path d="M30,18.39c0.12,1.18,0.22,2.65-0.11,4.1c-2.08,9.14-10.13,26.83-19.83,39.22"/><path d="M23.49,44c0.66,0.68,0.84,2.19,0.84,3.58c0,14.46-0.32,34.58-0.32,44.29"/><path d="M59.92,14.7c0.07,0.36,0.15,0.94-0.14,1.46c-1.67,3.08-11.28,9.83-24.43,13.96"/><path d="M30.87,44.49c0.35,0.16,1.28,0.42,2.21,0.48c2.55,0.16,24.04-3.72,30.43-4.53c0.93-0.12,1.16-0.16,1.74,0"/><path d="M49,28.07c0.69,0.46,1.23,3.48,1.23,4.4c0,5.39-0.14,49.53-0.14,61.06"/><path d="M49.85,44.56c-3.91,10.63-10.44,23.73-19.3,32.42"/><path d="M53.01,50.35c3.77,2.98,6.97,8.92,9,12.75"/><path d="M73.32,29.44c0.82,0.93,1.4,2.02,1.47,5.1c0.34,14.8-0.02,30.7-0.02,35.75"/><path d="M90.03,15.83c0.85,0.83,1.44,1.8,1.51,4.56c0.35,13.21-0.22,64.09-0.22,68.59c0,10.7-5.78,1.36-7.07,0.23"/></svg>