<svg><path d="M30.5,16.39c0.12,1.15,0.22,2.59-0.11,4.01c-2.08,8.93-10.13,26.21-19.83,38.32"/><path d="M25.49,39c0.66,0.68,0.84,2.19,0.84,3.58c0,14.46-0.32,43.08-0.32,52.79"/><path d="M53.22,11.4c0.05,0.56,0.21,1.47-0.1,2.23C51,19,44.25,27.5,36.33,34.97"/><path d="M52.54,19.76c1.83,0,18.15-2.89,20.07-3.1c1.65-0.18,2.54,1.44,1.82,2.3C71,23,65.75,29.25,61.03,36.8"/><path d="M39.73,38.1c0.44,0.47,0.89,0.86,1.08,1.45c1.52,4.66,2.5,13.82,3.54,22.19"/><path d="M42.45,39.71c10.71-1.96,36.97-4.03,42.49-4.69c2.02-0.24,3.23,2.43,2.95,3.85c-1.2,5.87-2.14,11.38-4.63,18.4"/><path d="M44.21,59.25c4.33-0.5,34.7-3.25,39.47-3.5"/><path d="M60.38,40c0.87,1.25,0.81,3.42,0.84,5.36C61.5,66.75,53.5,87.75,33,97.17"/><path d="M66.79,59.37c0.64,1.19,1.19,2.59,1.19,4.43c0,9.95-0.46,16.14-0.46,21.7c0,10.5,3.22,11.03,15.32,11.03c11.4,0,12.88-1.53,12.88-8.62"/></svg>