<svg><path d="M32,16.89c0.13,1.19,0.23,2.68-0.12,4.15c-2.16,9.25-10.51,27.14-20.57,39.68"/><path d="M26.49,41.5c0.66,0.68,0.84,2.19,0.84,3.58c0,14.46-0.32,40.08-0.32,49.79"/><path d="M50.69,15.87c0.5,1.14,1.23,1.99,1.23,3.51c0,1.52-0.16,45.85,0,47.37"/><path d="M52.75,17.41c2.82-0.19,24.82-3.69,27.39-3.92c2.14-0.19,3.83,1.06,3.65,2.47c-0.23,1.78-1,47.82-1,48.96"/><path d="M52.7,31.88c4.03,0,24.41-2.58,28.93-2.58"/><path d="M52.93,47.45c8.18-0.54,21.11-2.28,28.37-2.28"/><path d="M53.66,64.97c6.59-0.22,21.11-2.28,28.37-2.28"/><path d="M61,67.75c0.06,0.65,0.12,1.69-0.12,2.62C59.45,75.91,51.23,88.06,40,95.5"/><path d="M71.86,65.97c0.43,1.1,0.77,2.4,0.8,4.11c0.07,4.55-0.33,11.1-0.33,16.43c0,5.75,2.42,7.62,11.92,7.62s12-1.62,12-8.46"/></svg>