<svg><path d="M31.49,15.39c0.13,1.14,0.23,2.58-0.12,3.98c-2.21,8.88-10.76,26.05-21.07,38.09"/><path d="M25.49,39c0.66,0.68,0.84,2.19,0.84,3.58c0,14.46-0.32,44.58-0.32,54.29"/><path d="M44.04,21.5c0.31,0.57,0.32,0.96,0.49,1.67c1.42,5.88,3.75,20.73,4.63,31.69"/><path d="M45.51,22.29c10.98-1.48,31.99-3.54,41.99-4.23c3.04-0.21,4.55,1.16,4.4,2.77c-0.57,5.93-3.14,21.92-6.34,31.97"/><path d="M48.05,36.99c3.58-0.58,37.99-2.32,40.94-2.56"/><path d="M49.72,53.27c7.9-0.63,25.41-1.27,36.32-2.3"/><path d="M66.33,22.63c1.17,1.12,1.6,3.35,1.6,4.36c0,13.76,0.16,57.35,0.16,62.01"/><path d="M47.72,70.67c0.8,0.38,2.27,0.42,3.08,0.38c8.36-0.44,25.76-2.8,36.11-2.88c1.34-0.01,2.14,0.18,2.81,0.37"/><path d="M37.38,90.77c1.44,0.51,4.09,0.59,5.53,0.51c15.01-0.85,35.05-2.53,52.92-2.5c2.4,0,3.85,0.24,5.05,0.5"/></svg>