<svg><path d="M32.99,12.89c0.14,1.13,0.24,2.55-0.13,3.93c-2.34,8.78-11.39,25.75-22.3,37.64"/><path d="M25.48,39c0.67,0.7,0.86,2.24,0.86,3.68c0,14.83-0.33,45.73-0.33,55.7"/><path d="M46.5,15.1c0.38,0.47,0.77,0.86,0.94,1.45c1.32,4.66,2.4,15.03,3.3,23.41"/><path d="M48.87,16.71C59.5,15,74.24,13.68,79.04,13.02c1.76-0.24,2.81,2.43,2.56,3.85c-1.04,5.87-2.23,10.93-4.46,19.4"/><path d="M51.61,38.88c5.64-0.75,21.63-2.13,28.79-2.88"/><path d="M45.96,50.65c0.83,0.29,2.36,0.31,3.19,0.29c9.35-0.19,22.35-2.44,32.37-3.15c1.38-0.1,2.22,0.14,2.91,0.28"/><path d="M37.53,69.12c0.87,0.22,3.1,0.41,4.04,0.31c8.75-0.94,37.96-3.01,47.42-3.2c1.2-0.02,3.38,0.03,5.59,0.46"/><path d="M62.91,53.12c0.52,0.64,1,2.21,0.98,3.45C63.7,78.13,53.99,89.5,38,96.12"/><path d="M64.84,67.55C71.21,74.21,85,89.89,91.35,94.34c2.16,1.51,2.92,1.74,3.9,1.88"/></svg>