<svg><path d="M32.99,14.89c0.14,1.18,0.24,2.67-0.12,4.12c-2.34,9.2-11.39,26.98-22.3,39.45"/><path d="M25.99,41c0.66,0.68,0.84,2.19,0.84,3.58c0,14.46-0.32,40.08-0.32,49.79"/><path d="M43.19,25.87c0.95,0.38,2.7,0.51,3.64,0.38c13.85-1.88,23.43-2.88,36.9-3.88c1.58-0.12,2.54,0.18,3.33,0.37"/><path d="M39.84,37.78c0.74,0.5,1.69,2.39,1.83,3.05c1.01,4.81,2.22,18.17,3.63,27.28"/><path d="M41.2,39.36c11.3-1.15,35.96-4.58,43.66-4.76c3.19-0.07,3.84,1.57,3.71,3.36c-0.47,6.17-2.12,16.28-4.65,26.4"/><path d="M43.36,52.12c8.52-0.25,29.39-2.87,43.36-3.25"/><path d="M45.36,66.12c9.9-1,25.16-2.5,38.05-2.5"/><path d="M37.25,80.41c1.36,0.77,3.82,0.9,5.19,0.77C54.5,80,73.78,77.87,89.76,77.37c2.26-0.07,3.61,0.37,4.74,0.75"/><path d="M62.95,11c0.7,0.6,1.31,2.5,1.31,5.16c0,7.59-0.23,70.09-0.23,82.59"/></svg>