<svg><path d="M31.99,14.39c0.14,1.1,0.24,2.47-0.12,3.82c-2.34,8.51-9.89,25.47-20.8,37.01"/><path d="M24.96,38.5c0.71,0.73,0.91,2.37,0.91,3.88c0,15.65-0.35,41.23-0.35,51.74"/><path d="M62,10.13c0.61,0.42,1.9,3.12,2.02,3.96c0.12,0.83,0.06,3.54-0.06,8.75"/><path d="M37.81,25.03c1.22,0.59,3.46,0.68,4.68,0.59c12.72-0.98,30.13-4.94,46.07-5.17c2.04-0.03,3.26,0.28,4.28,0.57"/><path d="M42.73,27.53c0.04,1.39,0.07,3.6-0.07,5.6c-0.85,11.81-1.16,40.12-11.91,53.16"/><path d="M61.48,32.2c0.17,1.51-0.05,3.48-0.59,4.77c-3.45,8.23-8.16,18.6-16.07,28.62"/><path d="M54.47,53.57c0.53,0.68,0.7,1.9,0.7,3.18c0,11-0.4,31.5-0.4,37.79"/><path d="M61.9,49.26c1.03,0.37,2.91,0.26,3.94,0.14c6.04-0.68,18.33-2.5,28.13-2.94c1.71-0.08,2.74,0.18,3.6,0.36"/><path d="M81.8,29.71c0.06,0.39,1.36,2.02,1.36,4.49c0,17.06-0.17,52.93-0.17,56.96c0,7.55-4.97,1.45-6.47,0.2"/><path d="M65.36,59.2c2.4,2.21,6.2,9.09,6.8,12.53"/></svg>