<svg><path d="M38.45,15.39c0.17,1.17,0.31,2.64-0.16,4.08c-2.94,9.09-14.3,26.67-27.99,39"/><path d="M29.03,40c0.59,0.61,0.76,1.97,0.76,3.23c0,13.02-0.29,43.15-0.29,51.9"/><path d="M54.05,16.73c0.32,0.82,0.94,1.9,1,3.34c0.27,6.4,0.39,52.02,0.39,52.74"/><path d="M55.73,18.67c2.31-0.18,20.06-3.07,22.16-3.28c1.76-0.18,2.99,0.93,2.99,4.81c0,6.3-0.01,33.29-0.53,50.35"/><path d="M55.22,32.66c8.43-1.02,20.06-2.5,25.65-2.85"/><path d="M55.58,46.63c6.13-0.61,17.14-2.37,24.7-2.77"/><path d="M55.99,61.1c9.12-1.49,16.57-2.06,24.11-2.81"/><path d="M39.84,73.8c1.14,0.48,3.22,0.59,4.35,0.48c7.05-0.66,36.62-4.46,49.48-4.45c1.89,0,3.03,0.23,3.98,0.47"/><path d="M57.26,79.22c0.04,0.34,0.09,0.88-0.09,1.37c-1.08,2.89-7.27,9.24-15.74,13.12"/><path d="M74.82,77.61c6.4,3.17,16.54,13.02,18.14,17.95"/></svg>