<svg><path d="M31.5,14.89c0.12,1.1,0.22,2.47-0.11,3.82c-2.08,8.51-10.13,24.97-19.83,36.51"/><path d="M25.99,38.5c0.66,0.68,0.84,2.19,0.84,3.58c0,14.46-0.32,43.08-0.32,52.79"/><path d="M62.28,13.64c0.02,0.3,0.04,0.76-0.04,1.19c-0.49,2.51-3.32,8.01-7.18,11.38"/><path d="M40.99,28.53c0.33,0.48,0.34,0.82,0.53,1.44c1.51,5.04,3.94,19.1,4.88,28.5"/><path d="M42.56,29.77c11.73-1.27,33.69-3.41,42.45-4.47c3.22-0.39,4.47,0.68,4.24,3.35c-0.44,5.1-3,17.86-6.03,26.36"/><path d="M45.25,42.74c3.82-0.49,38.82-3.13,41.98-3.33"/><path d="M46.5,56.2c8.45-0.54,25.55-2.23,37.22-3.12"/><path d="M64.41,28.43c0.59,1.07,0.55,2.68,0.39,4.12C63.25,47,59.75,64.25,45.51,72"/><path d="M34.75,75.47c0.78,0.36,2.87,1.33,4.93,1.07c13.97-1.76,37.25-5.46,50.52-5.8c2.08-0.05,3.75,0.11,5.05,0.46"/><path d="M70.87,59.25c1.13,1,1.74,2.75,1.96,3.75c0.22,1,0,30.25-0.22,36.5"/></svg>