<svg><path d="M33.5,17.14c0.25,1.23-0.14,2.35-0.61,3.71c-4.83,13.91-9.35,23.2-20.33,37.37"/><path d="M26.28,41c0.86,0.86,1.01,2.22,1.01,3.48c0,9.66-0.02,28.75-0.03,41.52c0,4.44-0.01,8.12-0.01,10.37"/><path d="M39.24,31.69c3.29,0.68,6.55,0.47,9.88,0.02c9.88-1.34,20.5-2.59,30.5-3.66c3.05-0.33,6.06-0.51,9.1-0.04"/><path d="M63.21,13.25c0,1.38-0.24,2.6-0.69,3.86C55.93,35.7,47.82,47.98,33.5,58.88"/><path d="M64.36,29.67c6.55,5.51,21.83,19.54,28.37,23.23c2.23,1.25,3,1.44,4.01,1.56"/><path d="M43.94,53.89c0.84,0.84,1.16,1.81,1.28,2.52c0.65,3.72,2.4,14.84,3.24,20.82"/><path d="M45.81,55.01c9.58-1.54,21.98-3.17,30.59-4.3c2.61-0.34,4.84,1.23,4.45,4.04c-0.76,5.44-1.72,11.17-2.91,18.65"/><path d="M47.85,64.58c8.02-1.08,24.27-2.95,31.62-3.7"/><path d="M49.21,74.72c8.54-0.97,20.29-2.09,27.93-2.84"/><path d="M61.17,42.09c0.93,0.93,1.11,2.15,1.11,3.85c0,10.56,0.08,35.12,0.08,40.27c0,7.91,2.1,9.09,15.41,9.07c14.49-0.03,15.97-1.88,15.97-10.3"/></svg>