<svg><path d="M52.38,11.62c0.11,0.93-0.13,2.45-0.72,3.72C48,23.25,35.88,39.25,13.75,51"/><path d="M53,15.62c4.69,4.69,22.79,18.55,31.53,24.83c2.89,2.08,5.81,4.25,9.35,4.92"/><path d="M42.08,35.48c1.4,0,2.54-0.13,3.93-0.31c3.69-0.47,9.82-1.23,13.97-1.81c1.92-0.26,2.99-0.19,3.83-0.19"/><path d="M33.5,45.5c1.25,0.5,2.12,0.5,3.75,0.37c7.43-0.6,22.38-2.42,28.23-3.1c3.39-0.4,6.29-0.22,5.56,3.9c-0.96,5.37-4.01,19.69-4.09,20.18"/><path d="M36.5,56.34c3.17-0.1,28.48-3.3,32.05-3.41"/><path d="M33.23,67.38c6.51-0.6,25.32-3.13,33.41-3.73"/><path d="M35.55,46.75c0.66,0.66,1.06,1.75,0.89,2.79C34.5,61.88,32.25,79.88,16.5,93.5"/><path d="M38.25,77.88c0.94,0.67,1.49,1.59,1.64,2.75c1.06,4.27,2.13,9.16,2.96,13.63c0.24,1.29,0.46,2.55,0.65,3.75"/><path d="M40.38,78.96c8.13-1.07,23.72-2.63,30.51-3.28c3.01-0.29,5.17-0.22,4.27,3.36c-0.98,3.88-2.1,8.94-3.49,13.78"/><path d="M44.45,95.74c4.97-0.44,17.2-1.51,25.67-2.31c1.41-0.13,2.63-0.18,3.84-0.12"/></svg>