<svg><path d="M33.49,16.89c0.14,1.1,0.24,2.47-0.12,3.82c-2.34,8.51-11.39,24.97-22.3,36.51"/><path d="M24.99,41.5c0.66,0.68,0.84,2.19,0.84,3.58c0,14.46-0.32,38.08-0.32,47.79"/><path d="M64.64,13c0.49,0.47,1.3,2.26,1.3,3.19c0,3.41-0.16,6.69-0.06,9.57"/><path d="M40.96,27.81c0.95,0.06,3.14,0.42,4.06,0.33c7.5-0.69,34.16-3.54,43.68-3.72c1.57-0.03,2.38,0.03,3.55,0.42"/><path d="M53.61,33.99c0,0.52,0.03,0.94-0.09,1.57c-0.62,3.28-6.49,14.21-11.51,19.06"/><path d="M52.55,42.53c3.43,1.49,7.81,5.46,9.48,9.22"/><path d="M78.85,30.99c0,0.53,0.03,0.95-0.09,1.59c-0.62,3.32-6.51,14.38-11.55,19.29"/><path d="M76.11,41.46c4.45,1.91,10.12,6.98,12.29,11.79"/><path d="M36.5,69.98c1.51,0.54,4.27,0.65,5.78,0.54c14.97-1.02,38.23-3.54,51.45-3.75c2.51-0.04,4.02,0.26,5.27,0.53"/><path d="M65.14,59.5c0.67,0.56,2.21,2.5,2.21,5.3c0,1.13-0.09,25.71-0.22,32.7"/></svg>