<svg><path d="M29.77,17c0.2,1.95-0.05,4.51-0.69,6.18C25,33.83,19.84,43.83,10.5,56.79"/><path d="M23.53,45c0.47,1,1.25,1.94,1.25,3.23c0,14.27-0.53,33.27-0.53,44.02"/><path d="M36.27,26.83c0.98,0.92,1.67,1.99,1.76,5.02C38.42,46.41,38,80.54,38,85.5"/><path d="M59.34,11.64c0.04,0.65,0.08,1.66-0.08,2.59c-1.02,6.01-6.52,19.26-14.77,26.49"/><path d="M59.72,20.34c0.04-0.09,2.34,0.25,3.17,0.24c6.14-0.08,15.61-2.08,20.98-2.68c1.47-0.16,2.38-0.01,2.77,0.04"/><path d="M80.79,20.53c-0.04,1.22-0.38,3.14-1.27,4.63c-6.76,11.25-13.48,21.85-33.4,32.59"/><path d="M54.75,30.38c6.31,1.78,24.32,17.01,35.48,21.38c2.15,0.84,3.52,0.98,5.27,1.07"/><path d="M45.82,68.98c0.92,0.34,4.03,0.77,5.79,0.57c8.96-1.02,25.83-2.59,37.37-3.34c1.27-0.08,3.07,0.13,5.91,0.72"/><path d="M66.62,49.75c0.69,0.67,1.24,1.32,1.21,2.65C67.5,70.75,64,87,43.5,96.75"/><path d="M67.07,68.78c5.83,7.35,17.17,19.79,24.61,25.04c1.96,1.38,2.67,1.55,3.57,1.68"/><path d="M76.51,53.49c4.11,2.86,5.24,5.04,6.51,7.72"/></svg>