<svg><path d="M31.26,17.5c0.22,2.09-0.06,3.32-0.78,5.1c-4.6,11.39-10.68,23.08-21.23,36.94"/><path d="M24.28,40.25c0.92,0.92,1.5,2.36,1.49,4c-0.04,11.14-0.2,32.7-0.26,43.75c-0.01,2.24-0.02,4.05-0.02,5.25"/><path d="M41.14,25.43c0.78,0.78,1.34,2.02,1.34,3.55c0,11.17,0.02,35.17,0.02,56.27c0,1.6,0,3.19,0,4.75"/><path d="M43.65,26.81C56.65,25.48,77,23,86.83,22c2.9-0.29,5.02,1.12,5.02,4.43c0,11.22,0.11,38,0.13,56.44c0,2.42,0,4.71,0,6.79"/><path d="M50.36,44.11c1.64,0.26,2.92,0.2,4.52,0.02c6.03-0.7,15.82-2.32,22.38-2.85c1.45-0.12,2.64-0.18,4.05,0.12"/><path d="M64.13,26.74c0.75,0.75,1.27,1.88,1.27,3.24c0,10.72,0,24.28-0.11,28.11"/><path d="M52.94,59.02c0.18,0.56,0.4,0.94,0.47,1.37c0.39,2.65,1.2,6.41,1.84,11.11c0.11,0.8,0.21,1.62,0.3,2.47"/><path d="M54.2,60.39c5.68-0.88,16.28-2.96,21.55-3.5c2.59-0.26,4.12,1.1,3.72,3.36c-0.62,3.46-1,5.04-1.8,9.35"/><path d="M56.6,72.15c6.03-0.77,12.28-1.27,18.9-1.56c1.33-0.06,2.55,0.05,3.59-0.01"/><path d="M43.69,86.74C54.62,86,77.73,84.3,90.75,83.97"/></svg>