<svg><path d="M30,15.39c0.12,1.15,0.21,2.59-0.11,4.01c-2,8.93-9.75,26.21-19.09,38.32"/><path d="M23.94,39c0.74,0.76,0.95,2.46,0.95,4.04c0,16.29-0.36,41.89-0.36,52.84"/><path d="M41.47,21.93c1.39,0.44,2.32,0.7,3.7,0.65c6.23-0.2,24.87-3.2,37.83-3.94c1.85-0.11,3.25-0.13,5.33,0.31"/><path d="M37.75,42.27c0.14,0.69,0.97,3.78,1.11,5.18c1.06,10.25,1.31,39.96,1.31,44.57"/><path d="M39.06,45.71c9.87-0.96,45.96-5.76,52.17-6.5c2.01-0.24,3.7,0.97,3.63,3.61c-0.35,13.43-2.35,33.93-5.61,46.35c-1.81,6.9-4.63,4.82-7.25,0"/><path d="M63.94,23.34c1.01,1.2,1.81,2.65,1.81,4.33c0,0.96-0.6,60.52-0.6,63.17"/><path d="M52.43,58.88c-1.44,3.85-5.18,9.31-8.17,11.49"/><path d="M46.8,52.4c0.51,0,0.97,0.42,1.22,0.72c4.07,5.08,8.69,10.3,12.46,13.89c0.43,0.41,0.83,0.55,1.28,0.67"/><path d="M78.62,56.3c-1.41,3.5-5.06,8.45-7.99,10.43"/><path d="M74.09,50.73c0.49,0,0.97,0.37,1.16,0.69c2.88,4.71,7.23,9.95,11.89,13.24c0.47,0.33,0.8,0.53,1.23,0.64"/></svg>