<svg><path d="M34.93,15.75c0.14,1.18,0.25,2.67-0.13,4.12C32.4,29.07,23.15,46.86,12,59.32"/><path d="M26.96,42.11c0.62,0.64,0.8,2.07,0.8,3.4c0,13.71-0.31,42.26-0.31,51.48"/><path d="M43.64,25.23c1.06,0.33,2.24,0.14,2.94,0.09c9.26-0.7,25.75-3.07,34.88-4.06c0.87-0.09,2.44-0.07,3.42-0.07"/><path d="M62.99,12c0.3,0.46,0.47,0.99,0.45,1.98C63.12,27.63,52.99,42.54,44.12,45.5"/><path d="M62.12,27.5c6.59,3.04,14.22,7.96,18.25,12.5"/><path d="M36.5,49.92c1.14,0.58,3.22,0.72,4.35,0.58c6.77-0.83,41.03-4.77,50.43-5.54c1.89-0.15,3.03,0.28,3.97,0.57"/><path d="M42.32,61.21c0.35,0.35,0.71,0.64,0.86,1.08c1.21,3.48,2.66,12.48,3.48,18.74"/><path d="M44.49,62.37c7.14-1.14,15.81-3.03,19.9-3.49c1.49-0.17,2.39,0.99,2.17,1.97c-0.89,4.07-1.92,9.38-3.23,15"/><path d="M46.83,78.57c4.8-0.52,11.41-1.41,18-2.21"/><path d="M80.55,48.97c0.06,0.53,1.24,2.75,1.31,6.1c0.3,16.08-0.19,32.27-0.19,37.75c0,9.39-5.36,1.66-6.47,0.28"/></svg>