<svg><path d="M31.5,17.39c0.13,1.12,0.22,2.53-0.11,3.91C29.25,30.03,21,46.89,11.06,58.72"/><path d="M24.49,43.5c0.66,0.68,0.84,2.19,0.84,3.58c0,14.46-0.32,37.58-0.32,47.29"/><path d="M39.39,18.89c0.55,0.43,1.83,1.86,1.83,4.08c0,0.87-0.07,65.99-0.18,71.36"/><path d="M41.37,19.87c1.83-0.11,14.48-2.38,16.15-2.51c1.39-0.11,2.11,1,2.18,1.88c0.1,1.35-2.16,24.52-2.16,25.18"/><path d="M41.69,32.74c4.5-0.65,12.49-1.83,16.82-2.53"/><path d="M41.87,47.07c5.88-0.82,11.81-1.73,17.2-2.31"/><path d="M69.03,17.17c0.31,0.59,1.1,1.84,1.13,2.63c0.09,1.95,1.39,25.32,1.5,26.11"/><path d="M70.18,18.23c1.78-0.1,18.33-2.62,19.95-2.74c1.35-0.1,2.13,1.07,2.12,1.66c-0.35,18.04-0.36,58.1-0.35,71.18c0,10.7-6.14,3.51-9.07-0.09"/><path d="M71,30.09c2.41,0,17.38-1.85,20.11-1.85"/><path d="M72.18,43.83c3.56,0,15.1-1.65,19.71-1.65"/></svg>