<svg><path d="M35,15.5c0.24,2.06,0.18,3.51-0.61,5.27C29.38,32.03,22.5,44.62,11,57.29"/><path d="M25.53,41.5c0.8,0.8,1.26,2.22,1.26,3.48c0,12.64-0.01,32.9-0.01,44.4c0,2.79-0.03,5.11-0.03,6.75"/><path d="M47.4,30.21c1.86,0.52,4.84,0.43,6.74,0.16C66,28.71,74.62,27.5,88.75,26.22c2.06-0.19,4.18-0.29,6.23,0.01"/><path d="M70.48,14.76c0.82,0.82,1.09,1.88,1.01,2.89c-0.74,9.6-1.24,13.73-2.41,23.35"/><path d="M53.94,42.36c0.72,0.72,1.25,2.34,1.25,3.5c0,0.87-0.01,21.46-0.02,31.76c0,1.85,0,3.37,0,4.38"/><path d="M56.08,43.76c4.04-0.51,25.48-3.79,28.27-4.1c2.18-0.24,3.72,0.96,3.72,2.59c0,2.62-0.09,28.49-0.09,32.49c0,1.9,0,3.7,0,5.32"/><path d="M56.24,55.49c5.75-0.46,25.67-2.99,30.38-3.2"/><path d="M56.47,67.19c7.68-0.84,22.6-2.73,30.06-3.07"/><path d="M56.16,79.3c8.96-1.17,27.16-2.76,31.02-2.94"/><path d="M41.25,53c1.06,1.06,1.5,3,1.5,5.5s0,25.5,0,30.25c0,4.12,0.75,4.58,4.25,4.25c14.5-1.38,29.75-2.38,44.75-2.75c2.75-0.07,5.38,0,7.25,0.25"/></svg>