<svg><path d="M34.98,14.89c0.14,1.16,0.25,2.62-0.13,4.05c-2.37,9.04-11.52,26.52-22.55,38.77"/><path d="M27.49,41c0.66,0.68,0.84,2.19,0.84,3.58c0,14.46-0.32,40.58-0.32,50.29"/><path d="M63.31,11.38c0.76,0.33,2.01,1.62,2.01,3.62c0,0.67,0.4,15.03,0.25,19.13"/><path d="M66.25,22.5c2,0,11.67-1.36,17.5-2.27C85.83,19.9,86.75,20.08,88,20"/><path d="M46.66,35.36c0.68,1.14,1.58,1.5,1.8,3.03c0.59,4.17,2.67,19.12,2.7,22.62"/><path d="M49.33,36.76c3.84-0.19,33.64-4.25,37.11-3.77c1.38,0.19,2.7,1.68,2.17,3.6c-0.99,3.6-3.06,14.66-4.86,21.09"/><path d="M50.1,47.18c6.56-0.42,30.19-2.65,36.07-2.65"/><path d="M51.82,58.43c9.45-0.72,26.73-2.27,31.53-2.27"/><path d="M38.38,74.71c1.19,0.46,3.38,0.58,4.57,0.46c10.31-1.09,42.32-4.46,52.01-4.42c1.99,0.01,3.18,0.22,4.17,0.45"/><path d="M65.23,60.25c0.44,0.55,1.47,2.5,1.47,5.24c0,1.11-0.06,26.12-0.15,33.01"/></svg>