<svg><path d="M31.49,17.39c0.13,1.2,0.24,2.71-0.12,4.19c-2.26,9.36-11.02,27.45-21.56,40.13"/><path d="M25.99,41c0.66,0.68,0.84,2.19,0.84,3.58c0,14.46-0.32,41.08-0.32,50.79"/><path d="M62.54,11.75c1.02,0.37,1.98,1.82,1.95,2.89C64.42,18,64.42,24,64.41,27.06"/><path d="M39.57,27.73c0,3.51-2.06,13.18-2.99,15.52"/><path d="M41.61,29.63c6.14-1.13,43.24-3.85,47.87-4.13c7.67-0.47,3.21,4.67-0.47,8.17"/><path d="M56.02,36.25c0.07,0.5,0.08,1.29-0.15,2.03c-2,6.48-4.57,11.44-13.12,17.72"/><path d="M70.01,32.72c1.02,0.88,1.83,1.92,1.89,3.28c0.12,2.8-0.04,5.46,0.04,7.73c0.21,5.97,0.98,7.25,9.33,6.89c4.02-0.17,8.49-0.91,10.48-1.4"/><path d="M46.67,64.05c0.85,0.46,2.68,0.56,3.55,0.47c7.79-0.88,20.13-2.62,29.77-3.32c1.31-0.09,2.5,0.09,3.58,0.47"/><path d="M64.08,64.45c0.96,1.25,0.96,2,0.96,3c0,7,0.15,15.3,0.15,23.3"/><path d="M36.75,92.2c0.84,0.23,5.25,0.43,6.67,0.36c11.04-0.57,30.68-2.52,47.44-3.04c2.27-0.07,5,0.38,6.14,0.73"/></svg>