<svg><path d="M32.01,17.39c0.12,1.06,0.2,2.39-0.1,3.7c-1.95,8.25-9.5,24.2-18.59,35.38"/><path d="M26.99,39.5c0.66,0.68,0.84,2.19,0.84,3.58c0,14.46-0.32,42.58-0.32,52.29"/><path d="M45.27,16.37c0.41,0.71,1.34,2.09,1.34,3.03c0,0.94,3.36,25.96,3.36,26.43c0,0.47,0.14,0.47,0.27,1.42"/><path d="M47.28,18.51c2.29-0.12,34.85-3.88,36.94-4.02c1.74-0.12,3.54,1.8,3.25,3.54C86.44,24.27,85,35.5,82.85,44.71"/><path d="M48.7,30.81c7.75-0.7,30.72-2.47,36.26-3.04"/><path d="M50.13,45.6c6.32-0.51,25.32-2.36,33.2-2.8"/><path d="M42.52,61.19c0.57,0.78,1.01,1.67,1.15,2.7c0.33,2.46,3.62,29.06,3.62,29.58c0,0.52,0.19,1.99,0.38,3.03"/><path d="M43.62,62.8c3.24-0.13,42.53-3.15,45.49-3.31c2.46-0.13,3.54,2.22,3.39,3.44c-0.75,6.13-3.75,24.07-6.29,31.59"/><path d="M45.69,77.87c9.31-0.71,39.22-2.8,44.18-2.8"/><path d="M47.49,94.61c8.94-0.56,27.23-1.56,38.37-2.04"/></svg>