<svg><path d="M27.77,15.14c0.11,1.04,0.05,2.13-0.34,3.38c-2.55,7.98-9.12,22.98-17.37,33.95"/><path d="M21.53,38.5c0.59,0.61,0.76,1.97,0.76,3.23c0,10.48-0.03,32.69-0.04,45.52c0,3.11,0,5.67,0,7.38"/><path d="M47.79,13c1.23,1.23,1.68,2.71,1.68,3.91c0,3.09-0.1,8.02-0.1,11.96"/><path d="M31.36,32.87c2.06,0.18,3.61,0.38,5.65-0.08c7.56-1.7,14.82-3.02,20.88-4.11c1.83-0.33,3.49-0.68,5.4-0.06"/><path d="M45.97,45.25c3.16,0.62,8.03,1.5,9.84,2.06c2.68,0.83,3.53,3.1,3.27,5.62c-0.82,8.12-6.64,26.61-10.43,31.76c-3.98,5.42-6.3,0.25-7.43-0.54"/><path d="M46.71,34.25c0.54,1.25,0.53,2.36,0.16,3.75c-2.99,11.25-7.24,25.38-16.61,38.5"/><path d="M73.46,14.64c0.03,0.71,0.18,1.86-0.06,2.84c-1.55,6.23-5.04,18.27-10.41,26.89"/><path d="M70.67,35.07c1.46,0.18,3.31,0.04,4.34-0.13c5.14-0.85,12.11-2.94,17-4.21c1.31-0.34,2.98-0.73,4.75-0.3"/><path d="M86.14,38.13c0.45,1.32,0.69,2.27,0.23,4.68c-4.26,21.95-12.99,39.44-28,48.69"/><path d="M65.88,50.28c3.25,1.22,14.25,21.97,22.57,34.11c1.58,2.31,3.59,4.59,5.8,6.32"/></svg>