<svg><path d="M31.44,15.25c0.13,1.23,0.1,2.81-0.36,4.29C28,29.38,21.25,45.25,10.75,60.07"/><path d="M23.73,42.36c1.15,1.15,1.51,2.39,1.51,4.48c0,10.16-0.03,29.68-0.04,41.92c0,3.44,0,6.31,0,8.23"/><path d="M77.67,11.25c-0.17,1.12-0.61,1.85-1.99,2.6C68.75,17.62,59,21,40.33,24.77"/><path d="M36.15,32.84c3.43,0.67,6.58,0.12,9.99-0.27c10.36-1.19,27.64-2.81,39.12-3.38c2.71-0.14,5.25,0.27,7.9,0.58"/><path d="M61.53,21.53c0.97,0.97,1.04,2.09,1.04,3.19c0,0.51-0.04,13.29-0.07,21.65c-0.01,2.6-0.01,4.76-0.01,6"/><path d="M59.25,31.99c0,0.76-1.4,2.48-2.51,3.75C50.49,42.89,41.1,50.25,31.3,53.72"/><path d="M63.79,31.84c5.99,5.05,15.54,11.38,22.09,15.28c2.75,1.63,5.25,2.88,8.48,4"/><path d="M58.02,53.64c0.43,1.11,0.24,2.56-0.22,3.9c-2.55,7.47-4.39,12.75-9.79,20.54c-1.17,1.7-1.08,2.63,1.08,2.83c10.28,0.96,20.15,4.46,29.52,9.91c3.38,1.96,6.13,4.41,8.25,6.8"/><path d="M75.46,60.64c0.11,0.89,0.22,3.07-0.23,4.35C71.41,75.97,62.5,89.75,36.67,98"/><path d="M32.88,65.75c3.17,1.06,6.27,0.68,9.52,0.43c11.3-0.87,30.55-2.72,44.35-3.12c3.12-0.09,7.03-0.64,10,0.65"/></svg>