<svg><path d="M38.95,15.89c0,1.61-0.19,2.64-0.66,4.08c-2.94,9.09-14.3,26.17-27.99,38.5"/><path d="M29.03,40c0.8,0.8,1.01,1.97,1.01,3.23c0,10.08-0.02,30.42-0.04,43.15c0,3.71-0.01,6.78-0.01,8.75"/><path d="M53.8,17.23c0.93,0.93,1.25,2.15,1.25,3.59c0,5.41-0.03,23.27-0.04,34.68C55,59.77,55,63.15,55,64.62"/><path d="M55.73,18.67c2.01-0.16,15.68-2.36,20.6-3.07c2.73-0.4,4.55,1.07,4.55,4.35c0,6.3-0.01,25.04-0.53,42.1"/><path d="M56.22,32.41c9.03-1.16,16.53-1.78,23.4-2.35"/><path d="M55.58,46.13c6.13-0.61,16.39-1.87,23.95-2.27"/><path d="M55.99,61.1c9.12-1.49,15.82-2.06,23.36-2.81"/><path d="M39.84,73.8c3.27,0.34,6.54,0.32,9.8-0.1C62.62,72,74.38,71,88.37,69.73c3.12-0.28,6.21,0.01,9.29,0.57"/><path d="M57.26,79.47c0,1.15-0.35,1.93-1.03,2.68c-3.24,3.6-8.11,7.6-14.81,11.56"/><path d="M75.07,78.36c6.4,3.17,15.79,12.02,17.39,16.95"/></svg>