<svg><path d="M34.5,16.75c0.23,2.11-0.06,3.62-0.82,5.43C28.88,33.7,21.62,47.62,11,60.04"/><path d="M25.03,42.75c0.86,0.86,1.26,2.22,1.26,3.48c0,10.3,0.02,27.9,0.02,41.77c0,3.19-0.06,5.87-0.06,7.75"/><path d="M60.85,13.25c0.28,1-0.1,2.26-0.66,3.41c-3.24,6.73-11.44,20.07-25.99,32.69"/><path d="M62,17.25c4.02,3.81,15.48,14.98,22.83,21.33c1.96,1.7,5.92,4.67,8.47,5.97"/><path d="M48.78,42.59c2.1,0.28,4.18,0.02,5.7-0.22c4.27-0.68,10.94-2.45,16.78-3.16c1.32-0.16,3.49-0.33,5,0.03"/><path d="M43.18,54.18c0.76,0.76,1.32,1.69,1.58,2.77c1.2,5.07,1.17,6.58,1.83,10.82c0.24,1.54,0.5,3.21,0.8,5.16"/><path d="M45.16,55.81c9.63-1.23,25.15-3.42,32.2-4.19c3.51-0.39,5.65,0.44,4.53,4.28c-1.03,3.56-2.11,6.93-3.37,10.87"/><path d="M47.83,70.76c5.4-0.44,19.87-2.25,29.19-3.07c1.91-0.17,3.63-0.3,5.03-0.39"/><path d="M62.29,44.07c0.88,0.88,1.06,2.29,1.11,4.15C64,71.12,61,84.38,38.25,96.25"/><path d="M64.5,70.53c4,4.22,13.01,12.75,20.55,18.91c2.86,2.33,4.95,3.81,7.57,5.19"/></svg>