<svg><path d="M34.98,16.64c0.15,1.12,0,2.03-0.38,3.41c-2.45,8.72-11.23,24.7-23.04,37.91"/><path d="M26.53,41.5c0.98,0.98,1.26,2.25,1.26,3.98c0,10.15-0.02,27.61-0.04,39.52c0,3.37-0.01,6.19-0.01,8.12"/><path d="M47.51,19.26c2.12,0.49,4.29,0.32,6.13,0.05c8.12-1.19,20.21-3,27.63-3.8c2.11-0.23,4.58-0.32,6.65,0.18"/><path d="M45.31,31.88c1.89,0.6,3.61,0.73,5.57,0.53c11.69-1.16,25.49-3.08,33.24-3.92c3.07-0.33,6.01,0.37,4.94,4.26c-0.69,2.5-1.69,5.25-2.61,9"/><path d="M49.07,46.75c8.06-0.88,20.81-2.25,34.43-3.62c2.08-0.21,4.01-0.31,5.68-0.38"/><path d="m47.71,33.43c0.74,0.74,0.79,1.66,0.73,2.82C47.75,50,44.75,69.63,34.75,84.75"/><path d="M48.29,60.15c0.84,0.84,1.02,2.08,0.86,3.17c-0.08,0.55-0.01,16.49,0.03,25.55c0.02,3.5,0.03,5.97,0.03,6.13"/><path d="M50.07,61.54c5.07-0.42,29.83-3.33,37.06-4.14c3.12-0.34,5.55,0.24,5.49,3.84c-0.12,6.99-0.08,26.38-0.08,29.53c0,5.84-3.86,2.81-5.7,1.23"/><path d="M50.21,75.82c10.67-1.07,26.42-2.95,41.05-3.6"/><path d="M61.78,62.7c0.82,0.82,1.05,1.67,1.05,2.9c0,3.68-0.04,13.68-0.07,21.15c-0.02,3.48,0.04,5.49-0.01,6.5"/><path d="M74.99,60.89c0.88,0.88,1.05,1.99,1.05,3.4c0,4.27,0.04,14.7,0.06,22.21c0.01,2.54,0.01,4.61,0.01,5.75"/></svg>