<svg><path d="M31.5,18.39c0.12,1.23,0.21,2.78-0.11,4.29c-2.03,9.57-9.88,28.07-19.34,41.04"/><path d="M26.53,43.5c0.59,0.61,0.76,1.97,0.76,3.23c0,13.02-0.29,40.15-0.29,48.9"/><path d="M39.63,18.78c1.11,0.47,3.14,0.55,4.25,0.47c11.52-0.79,30.25-4.7,42.88-4.7c1.84,0,2.95,0.23,3.88,0.46"/><path d="M54.49,27.54c0.22,0.32,0.22,0.54,0.34,0.95c0.99,3.33,1.91,13.25,2.52,19.47"/><path d="M55.52,27.99c7.64-0.84,21.23-2.26,26.93-2.97c2.1-0.26,3.17,0.66,3.06,1.57c-0.39,3.36-1.87,12.51-2.83,18.12"/><path d="M56.94,36.61c2.49-0.33,24.34-2.73,26.4-2.87"/><path d="M57.76,45.55c5.5-0.36,17.33-1.85,24.92-2.44"/><path d="M69.26,47.87c0.28,0.71,0.08,1.61-0.14,2.5c-1.08,4.34-5.35,14.32-8.81,19.31c-0.75,1.08-0.16,1.3,0.42,1.31c8.03,0.12,19.53,3.52,26.35,11.55"/><path d="M80.99,53.8c0.07,0.7,0.16,2.42-0.15,3.43C77.75,67.5,70.75,80.5,55.99,86.25"/><path d="M49.96,57.48c1.18,0.27,2.43,0.46,2.99,0.41c11.9-0.86,27.27-3.4,38.63-3.52c0.94-0.01,2.56,0.17,3.32,0.47"/><path d="M44.25,21c0,4-0.5,65-0.5,68.75c0,3,1.2,3.63,2.44,3.5C53.26,92.5,85.55,90,87.84,90c2.3,0,4.24,0.25,5.66,0.75"/></svg>