<svg><path d="M34.75,12.75c0.25,1.25,0.13,2.34-0.62,4.08C29.12,28.38,22.75,41,11,54.29"/><path d="M26.53,35.5c0.98,0.98,1.26,2,1.26,3.73c0,10.05,0.05,35.69-0.02,48.77c-0.01,2.58-0.02,4.73-0.02,6.25"/><path d="M64.94,11.02c0.44,0.98,0.56,1.92,0.41,2.78c-1.45,8.22-2.36,13.92-3.88,19.09"/><path d="M51.33,21.9c1.42,0.6,3.33,0.42,4.92,0.21c7.9-1.02,18.84-2.24,23.39-2.71c2.49-0.26,4.57,0.01,3.97,3.11c-0.68,3.5-1.4,5.47-1.94,7.85"/><path d="M40.69,35.19c2,0.68,5.17,0.19,7.18-0.03c10-1.1,28.52-3.11,41.37-4.29c2.38-0.22,5.19-0.42,7.54,0.02"/><path d="M50.23,43.14c0.75,0.75,1.2,1.65,1.3,2.62c0.65,2.62,1.2,4.99,1.79,8.93c0.16,1.06,0.32,2.23,0.49,3.54"/><path d="M52.24,44.42c8.84-1.21,23.39-2.96,30.03-3.89c2.78-0.39,5.36-0.59,4.24,3.1c-0.81,2.66-1.85,6.17-2.34,8.5"/><path d="M54.93,55.91c4.73-0.49,18.48-2,26.58-2.69c1.95-0.17,3.55-0.3,4.61-0.39"/><path d="M45.67,67.64c2.21,0.49,4.14,0.23,6.38-0.04c7.21-0.87,21.33-2.79,30.71-3.96c2.17-0.27,4.68-0.51,6.86-0.08"/><path d="M51.59,68.61c0.53,0.53,0.74,1.59,0.73,2.4c-0.05,3.43-0.07,6.62-0.07,9.62"/><path d="M39.87,82.36c2.37,0.71,5.5,0.25,7.88-0.09c11.26-1.63,27.5-4.02,42.24-4.98c2.38-0.16,4.7-0.42,7.07-0.02"/><path d="M69.65,56.85c1,1,1.27,2.77,1.27,3.81c0,2.78-0.03,21.43-0.04,30.96c0,2.76-0.01,4.76-0.01,5.38"/></svg>