<svg><path d="M32.94,18.5c0.13,1.21,0.23,2.73-0.12,4.22c-2.21,9.41-10.76,27.6-21.07,40.36"/><path d="M25.98,45.11c0.59,0.61,0.76,1.97,0.76,3.23c0,13.02-0.29,37.15-0.29,45.9"/><path d="M44.25,29c3.38-0.25,12.84-2.75,14.19-2.75s3.04-0.25,4.06,0"/><path d="M42.75,16.14c0.9,0.58,0.96,0.97,1.26,1.74c0.3,0.77-0.28,27.37-0.28,30.5c0,2.97,0.52,3.12,3.12,1.59c5.42-3.19,8.38-5.16,12.08-7.66"/><path d="M90.05,16.51C90,17.75,90,18,89.23,18.98c-3.02,3.84-8.49,6.99-18.14,10.86"/><path d="M67.85,11c1.54,0.51,1.61,1.4,1.8,2.2c0.19,0.79-0.21,23.67-0.21,26.15c0,11.59,6.36,9.98,12.88,9.98c5.06,0,9.35-0.33,11.25-2.11c1.91-1.78,1.66-3.76,1.48-6.19"/><path d="M63.05,49.75c0.5,0.63,0.58,1.41,0.46,1.96c-0.7,3.26-6.69,8.92-10.25,12.29"/><path d="M46.09,64.97c0.48,0.85,0.97,1.28,0.97,2.41c0,1.13,3.1,22.78,3.3,28.37"/><path d="M47.35,66.98c2.72-0.14,32.03-3.56,34.51-3.73c2.06-0.14,3.46,1.26,3.23,3.79c-0.58,6.46-2.58,20.21-4.01,26.9"/><path d="M49.11,79.07c3.68,0,30.06-2.16,34.22-2.16"/><path d="M50.15,93.19c5.44,0,23.94-1.88,30.98-1.88"/></svg>