<svg><path d="M32.44,17.5c0.13,1.23,0.22,2.78-0.11,4.29C30.19,31.36,21.94,49.86,12,62.82"/><path d="M26.48,42.61c0.59,0.61,0.76,1.97,0.76,3.23c0,13.02-0.29,40.15-0.29,48.9"/><path d="M64.54,10.22c0.66,0.59,0.99,0.59,0.99,1.97s0,3.61,0,7.36"/><path d="M41.54,22.86c1.16,0.42,2.5,0.46,3.67,0.42c11.27-0.47,24.45-3.85,40.83-4.27c1.93-0.05,3.09,0.2,4.06,0.41"/><path d="M76.07,22.79c0.18,1.21-0.65,2.93-1,3.31C70.5,31,61.25,38.5,53.67,42.13"/><path d="M56.47,29.65C70,33.11,77.37,36.82,78.6,39.1"/><path d="M39.2,47.86c0.97,0.3,5.33,0.43,6.29,0.3c13.6-1.86,28.66-2.87,42.5-4.43c1.6-0.18,4.19,0.14,5,0.29"/><path d="M44.5,48.76c0.32,0.35,0.59,2.85,0.6,3.96c0.17,16.65-4.12,33.91-9.83,39.45"/><path d="M78.17,48.4c0.06,0.41,0.13,1.06-0.12,1.65c-1.44,3.47-9.72,11.09-21.04,15.75"/><path d="M82.89,62.03c0.07,0.46,0.27,1.27-0.15,1.87c-2.49,3.6-13.77,13.3-25.87,17.9"/><path d="M88.51,77.14c0.1,0.49,0.36,1.37-0.2,1.98C84.25,83.5,71.5,91.5,52.17,98"/></svg>