<svg><path d="M32.75,19c0.24,2,0.18,3.37-0.58,5.08C27.31,35,21.5,47.25,10.25,59.29"/><path d="M25.13,42c0.87,1,1.24,2.96,1.24,4.23c0,10.38-0.01,29.32-0.01,40.64c0,3.02,0,5.49,0,7.12"/><path d="M64.76,11.86c1,1,1.54,2.14,1.54,3.38c0,1.76-0.09,4.26-0.09,6.48"/><path d="M44.12,24.7c2.04,0.17,3.83,0.33,4.97,0.2c10.91-1.28,25.16-3.15,36.44-4.09c1.92-0.16,3.66-0.21,5.09,0.33"/><path d="M52.44,32.5c0.65,0.65,1.07,1.42,1.16,1.73c0.57,2.04,1.25,4.8,1.88,7.86c0.21,1.02,0.42,2.05,0.61,3.05"/><path d="M54.61,33.43c5.85-0.95,16.64-2.46,22.14-3.22c2.8-0.38,4.57,0.02,3.62,3.23c-0.71,2.4-1.32,4.39-2.13,6.62"/><path d="M57.14,43.97c4.35-0.7,13.22-1.76,19.13-2.42c1.4-0.16,2.63-0.29,3.6-0.4"/><path d="M43.12,52.25c-0.08,3.66-1.96,12.73-2.62,14.92"/><path d="M44.73,53.99c12.65-1.61,30.52-3.61,46.5-5.01c9.04-0.79,3.65,4.65-0.28,7.6"/><path d="M49.18,63.74c1.3,0.36,3.68,0.5,4.97,0.36c11.29-1.22,17.02-2.47,27.12-3.26c2.15-0.17,3.46,0.17,4.54,0.35"/><path d="M66.52,64.23c0.88,0.87,1.39,2.32,1.39,3.54c0,9.61-0.13,21.4-0.13,24.58c0,8.53-5.48,1.36-7.56-0.73"/></svg>