<svg><path d="M30.94,15.5c0.13,1.1,0.23,2.48-0.12,3.84c-2.16,8.56-10.51,25.13-20.57,36.73"/><path d="M21.98,43.61c0.59,0.61,0.76,1.97,0.76,3.23c0,13.02-0.29,40.15-0.29,48.9"/><path d="M28.75,40.9c0.52,0.15,1.93,0.56,3.32,0.45c5.4-0.43,18.68-2.6,25.6-3.6c1.39-0.2,1.75-0.15,2.62,0"/><path d="M45.13,13.99c0.74,0.45,1.32,2,1.32,2.92c0,15.7-1,39.17-1.15,44.78"/><path d="M33.48,62.75c0.22,0.84,0.47,1.42,0.54,2.06c0.54,4.65,2.23,14.13,2.99,22.94"/><path d="M34.58,64.21c4.93-0.83,16.76-3.58,20.13-3.71c1.39-0.05,2.14,1.17,2.02,2.43c-0.46,4.76-2.23,12.51-2.98,18.82"/><path d="M36.96,85.09c4.1-0.52,11.29-1.59,17.64-2.01"/><path d="M73.88,15.89c0.04,0.83,0.22,2.2-0.07,3.34c-1.83,7.34-5.93,20.84-12.25,31"/><path d="M68.57,40.29c0.52,0.23,1.87,0.3,2.39,0.23c7.05-0.94,11.96-2.34,19.45-4.23c0.89-0.22,2.68-0.32,2.92-0.27"/><path d="M83.43,42.07c0.44,1.27,0.68,2.17,0.22,4.49c-4.17,21.06-12.33,39.37-27.37,47.18"/><path d="M67.22,55.02c3.28,4.73,17.92,28.88,26.19,36.36c1.59,1.44,2.61,1.68,3.91,1.83"/></svg>