<svg><path d="M31.94,17c0.13,1.22,0.23,2.74-0.12,4.24C29.6,30.7,21.05,49,10.75,61.82"/><path d="M25.48,43.61c0.59,0.61,0.76,1.97,0.76,3.23c0,13.02-0.29,38.65-0.29,47.4"/><path d="M53.45,14c0.04,0.56,0.08,1.44-0.08,2.24c-0.97,4.72-6.32,14.03-13.67,21.44"/><path d="M53.09,25.47c0.75,0.37,1.78,0.37,3,0.24c4.66-0.47,26.62-4.72,29.62-4.84c3-0.12,2.94,2.12,2.76,4.74c-0.54,8.1-4.72,25.89-10.67,36.95c-2.81,5.24-5.7,0.36-7.1-2.03"/><path d="M59.6,28.37c0.05,0.6,0.13,1.56-0.09,2.4c-2.17,8.28-7.35,16.16-15.93,22.96"/><path d="M73.23,25.94c0.06,0.83,0.12,2.13-0.11,3.31c-1.33,6.99-8.54,22.32-18.99,31.7"/><path d="M50.86,36.79c6.96,2.66,17.99,10.92,19.73,15.05"/><path d="M39.65,76.86c0.32,2.26-3.23,12.26-5.82,16.03"/><path d="M48.66,70.17C54.5,85.5,62.75,93.5,77.72,96.19c11.49,2.06,12.03-1.69,4.38-8.84"/><path d="M63.72,72.51c1.78,4.58,4.38,9.15,6.29,2.15"/><path d="M85.18,70.5c4.9,2.4,8.58,4.58,12.56,11.99"/></svg>