<svg><path d="M34.92,14.75c0.15,1.16,0.16,2.66-0.38,4.03C31,27.75,22.38,44.12,10.75,57.32"/><path d="M26.19,40.61c0.85,0.85,1.07,1.77,1.07,3.76c0,10.98-0.01,30.25-0.01,43.39c0,3.32,0,6.23,0,8.5"/><path d="M44.13,20.94c0.96,0.96,1.44,2.23,1.67,3.43c1.45,7.76,3.8,22.92,5.01,32.88"/><path d="M46.66,22.28c13.86-2.19,28.27-4.19,36.72-4.88c3.14-0.26,6.21,0.45,5.77,4.42c-0.48,4.36-1.98,16.17-3.93,25.68c-0.41,1.99-0.83,3.87-1.27,5.57"/><path d="M65.71,21.84c0.91,0.91,0.97,1.99,0.96,3.33c-0.06,7.41,0.05,23,0.05,25.2"/><path d="M49.15,37.76c6.35-0.76,27.98-3.88,37.37-4.3"/><path d="M51.73,53.68c8.26-1.43,24.3-3.09,31.82-3.52"/><path d="M41.69,74.54c0.27,2.13-2.67,11.56-4.8,15.12"/><path d="M49.03,70.67c7.47,13.2,17.47,24.4,37.57,24.4c7.24,0,6.56-2.9,2.34-7.46"/><path d="M63.88,67.5c1.98,3.55,6.09,9.13,7.33,4.12"/><path d="M85.55,64.75c4.95,4,8.95,7.5,11.95,13.72"/></svg>