<svg><path d="M34.43,15c0.14,1.18,0.25,2.67-0.13,4.12c-2.37,9.2-11.52,26.98-22.55,39.45"/><path d="M25.98,43.11c0.59,0.61,0.76,1.97,0.76,3.23c0,13.02-0.29,40.65-0.29,49.4"/><path d="M59.71,11.25c0.07,0.81,0.29,2.16-0.15,3.26C56.93,21.22,47.9,36.58,33.5,45.75"/><path d="M60.05,14.61c4.61,4.49,24.46,19.16,29.54,22.45c1.72,1.12,3.94,1.59,5.66,1.91"/><path d="M50.03,37.89c0.52,0.26,1.47,0.28,1.99,0.26C55.5,38,69.75,34.5,73,35.01c0.86,0.13,1.38,0.12,1.82,0.25"/><path d="M38.52,50.25c0.61,1,1.02,2,1.22,3c0.2,1,0.29,40,0.2,42.25"/><path d="M40.96,52.19c1.36-0.14,13.83-2.55,14.84-2.71c1.81-0.28,2.49,1.85,2.27,2.71c-0.22,0.82-0.34,27.06-0.34,38.6c0,10.21-4.03,2.56-5.16,1.28"/><path d="M44.93,59.58c2.63,1.08,6.8,4.45,7.46,6.13"/><path d="M45.83,72.08c2.21,1.21,5.71,4.99,6.26,6.88"/><path d="M74.16,44.12c0.31,1.13,1.18,3.08,0.71,4.63c-1.42,4.75-5.17,13.75-9.46,19.43c-1.17,1.56-0.02,2.55,0.31,2.87c5.2,5.2,8.28,12.2,10.89,23.45"/><path d="M87.48,45.37c0.31,1.13,1.18,3.08,0.71,4.63c-1.42,4.75-4.26,12.25-8.55,17.93c-1.17,1.56-0.01,2.55,0.31,2.87c5.2,5.2,9.3,12.2,11.8,23.45"/></svg>