<svg><path d="M28,18.12c0.49,1.66,0.43,2.93-0.21,4.82c-4.09,12-7.29,21.07-16.67,35.68"/><path d="M23.53,40.5c0.8,0.8,1.25,2.3,1.25,3.5c0,11.73-0.02,34.17-0.03,45.75c0,2.33,0,4.23,0,5.5"/><path d="M39.8,20.15c0.84,0.84,1.36,2.26,1.36,3.8c0,1.24,0,27.47,0,39.18c0,2.84,0,4.83,0,5.4"/><path d="M41.74,21.38c1.67-0.16,12.63-1.67,17.15-2.37c2.77-0.43,4.39,0.09,4.3,3.25c-0.15,5.24-0.45,28.22-0.59,39.49c-0.04,3.59-0.07,5.99-0.07,6.25"/><path d="M42.21,35.6c4.11-0.58,14.54-1.89,19.76-2.37"/><path d="M42.37,49.99c6.04-0.76,12.98-1.41,19.11-1.8"/><path d="M42.38,65.79c5.37-0.67,13.04-1.48,19.12-1.8"/><path d="M46.04,74.66c0.3,1.23-0.02,2.11-0.58,3.04c-2.49,4.16-6.89,9.35-10.46,12.55"/><path d="M57.38,74.25c3.97,3.59,8.67,10.11,9.75,13.25"/><path d="M76.52,23.08c0.98,0.92,1.76,2.29,1.76,4.27c0,10.75-0.01,22.08-0.02,29.27c0,2.55,0,4.58,0,5.88"/><path d="M92.27,14.33c0.98,0.92,1.76,2.29,1.76,4.27c0,14.56-0.01,64.91-0.01,69.87c0,6.78-4.02,4.53-8.71,0.25"/></svg>