<svg><path d="M32.75,15.5c0.24,1.94-0.07,4.47-0.83,6.13C27.06,32.2,20.9,42.13,9.75,55"/><path d="M23.28,40.75c0.8,0.8,1.26,2,1.26,3.98c0,8.17-0.03,30.15-0.04,41.4c0,3.14,0,5.45,0,6.38"/><path d="M45.84,18.17c2.88,1.94,7.45,7.99,8.17,11.02"/><path d="M71,15.25c0.11,1.39-0.1,3.13-0.72,5.08C66.38,32.62,54.07,58.09,32,73.5"/><path d="M42.24,37.82c1.93,0.32,3.8,0.86,5.77,0.49c8.3-1.57,21.93-3.84,27.37-4.69c2.95-0.46,4.5-0.17,3.39,3.06c-0.65,1.89-1.75,4.6-2.69,7.42"/><path d="M57.97,47.74c7.83-0.82,19.4-2.99,23.54-3.7c1.96-0.33,3.86,0.01,3.09,2.48c-0.58,1.84-2.03,5.68-3.32,9.53"/><path d="M51.72,59.42c1.13,0.71,3.41,0.86,5.27,0.72c3.3-0.24,26.3-3.03,32.76-3.65c3.9-0.38,5.36,0.6,4.54,4.56c-1.4,6.81-5.61,21.7-10.95,30.08c-2.72,4.28-4.56,1.78-7.23-1.18"/><path d="M43.84,73.35c1.44,2.13,3.73,8.75,4.09,12.06"/><path d="M55.62,70.62c1.67,1.6,4.33,6.6,4.75,9.09"/><path d="M66.75,67.38c1.73,1.46,4.48,6.01,4.91,8.28"/><path d="M77.62,65.5c1.36,1.42,3.51,5.82,3.85,8.03"/></svg>