<svg><path d="M29.52,15c0.2,1.98-0.06,3.56-0.69,5.25C24.75,31.04,19.34,42.16,10,55.29"/><path d="M23.45,37.25c0.96,0.96,1.4,2.35,1.4,3.86c0,14.3,0.07,35,0.09,47.64c0.01,2.96,0.01,5.51,0.01,7.5"/><path d="M43.42,18.93c0.89,0.89,1.68,1.92,1.95,3.15c1.09,5.05,2.71,13.7,3.69,19.38c0.49,2.8,0.82,4.88,0.87,5.44"/><path d="M45.02,20.12c16.06-2.68,29.71-4.1,38.54-4.65c2.78-0.17,4.28,0.97,4.05,3.95c-0.31,4.03-1.62,11.34-3,19.12c-0.28,1.57-0.56,3.15-0.83,4.74"/><path d="M48.45,32.2c14.05-1.82,31.67-3.82,37.4-4.06"/><path d="M50.83,44.24c10.38-1.19,20.92-2.74,32.29-3.37"/><path d="M38.38,55.34c1.2,1.2,1.71,2.58,1.91,3.81c1.11,6.71,2.26,20.24,3.12,29.34c0.27,2.91,0.52,5.37,0.72,7.01"/><path d="M40.99,58.23c7.39-0.96,45.01-4.86,49.42-5.31c3.18-0.32,5.17,1.76,5.06,3.88c-0.27,5.13-3.36,27.11-5.67,33.67c-2.3,6.52-3.17,5-5.92-0.06"/><path d="M64.27,19.48c0.81,0.81,1.4,1.75,1.4,3.3c-0.01,6.8-0.04,49.88-0.04,51.97"/><path d="M51.79,78.2c1.21,1.18,2.57,0.88,3.86,0.45c3.63-1.21,14.98-5.15,23.63-7.95"/><path d="M75.5,64c3.17,2.49,8.18,10.24,8.97,14.12"/></svg>