<svg><path d="M32.94,18c0.13,1.23,0.22,2.78-0.11,4.29c-2.13,9.57-10.38,28.07-20.33,41.04"/><path d="M27.48,43.11c0.59,0.61,0.76,1.97,0.76,3.23c0,13.02-0.29,39.15-0.29,47.9"/><path d="M45.25,22.24c1.02,0.36,2.89,0.43,3.91,0.36c4.9-0.32,16.92-2.91,28.48-3.04c1.7-0.02,2.72,0.17,3.57,0.36"/><path d="M45.17,30.68c0.51,0.54,0.85,1.09,1.02,1.64c0.17,0.55,0.3,21.34,0.31,26.25"/><path d="M47.2,32.62c5.73-0.23,31.83-3.33,33.35-3.48c2.72-0.27,3.74,1.77,3.4,2.59c-0.03,1.84-0.43,10.41-0.43,22.9"/><path d="M47.2,41.97c7.58-0.48,29.44-2.56,35.56-2.97"/><path d="M47.36,51.19c5.44-0.41,29.58-2.57,35.86-2.84"/><path d="M62.14,11.73c0.99,0.45,1.58,2.04,1.78,2.95c0.2,0.91,0,37.34-0.2,43.02"/><path d="M80.41,11c3.25,1.37,8.4,5.62,9.22,7.75"/><path d="M35.99,67.99c1.09,0.55,3.06,0.62,4.17,0.55c11.84-0.79,37.29-3.67,50.55-4.5c1.81-0.11,2.9,0.26,3.8,0.53"/><path d="M76.5,57.29c0.06,0.33,0.86,1.71,0.86,3.79c0,14-0.18,25.55-0.18,28.96c0,8.26-6.18,1.96-7.66-0.33"/><path d="M48.46,75.7c2.59,1.75,6.68,7.19,7.33,9.91"/></svg>