<svg><path d="M30.95,19.5c0.12,1.19,0.21,2.68-0.11,4.15C28.86,32.9,21.22,50.79,12,63.32"/><path d="M24.48,45.61c0.59,0.61,0.76,1.97,0.76,3.23c0,13.02-0.29,38.65-0.29,47.4"/><path d="M61.47,12.5c0.03,0.34,0.1,0.98-0.05,1.37c-1.81,4.82-4.48,9.24-9.2,13.13"/><path d="M41.75,28.12c0.3,0.54,0.31,0.91,0.47,1.57c1.33,5.5,2.98,16.74,3.76,26.88"/><path d="M43.17,29.45c12.83-1.7,29.59-3.99,37.51-4.53c2.91-0.2,4.1,1.58,3.79,3.87c-0.73,5.38-1.71,14.71-4.28,24.34"/><path d="M60.07,27.88c0.38,2.14,2.31,11.97,3.53,18.93c0.28,1.6,0.66,3.44,1.46,3.76"/><path d="M44.56,41.57c6.44-0.82,33.63-3.82,38.46-4.37"/><path d="M46.54,55.14c11.3-1.89,21.25-2.39,32.74-3.88"/><path d="M53.59,58c0.21,0.78,0.24,1.84-0.1,3.08c-2.35,8.6-8.36,25.41-18.99,34.67"/><path d="M65.41,55.87c0.74,1.21,1.32,2.64,1.36,4.51c0.2,8.34,0.04,13.76-0.33,25.07c-0.37,11.3,7.14,11.51,14.17,11.51c11.5,0,15.14-0.95,15.14-8.11"/><path d="M80.74,58.72c0.22,0.42,0.14,2.33-0.07,2.84c-1.92,4.68-4.37,11.46-7.42,16.23c-0.97,1.51,0.08,3.03,1.45,2.51c4.77-1.8,10.3-3.55,14.93-5.44"/><path d="M85.77,67.43c1.65,1.85,5.27,9.16,5.68,12.04"/></svg>