<svg><path d="M53.99,9.75c0.12,0.89-0.15,2.25-1,3.35C46.5,21.5,32,37.75,9.75,47.75"/><path d="M55.25,13.38c4.8,4.77,22.51,17.93,31.54,24.38c3.36,2.4,5.21,3.88,9.96,5.35"/><path d="M38.02,37.89c0.1,1.04-0.06,1.66-0.55,2.6c-1.91,3.71-6.38,9.47-13.41,14.47"/><path d="M36.88,45c3.59,1.63,9.28,6.69,10.18,9.22"/><path d="M36.27,55.39c0.11,0.83,0,1.63-0.33,2.38c-1.38,3.55-5.99,9.51-13.37,14.95"/><path d="M36.5,63.38c3.37,1.38,8.71,5.69,9.56,7.84"/><path d="M73.16,36.89c0.11,0.82,0,1.59-0.33,2.32c-1.29,3.16-5.57,8.7-11.45,12.91"/><path d="M73.75,44c3.72,1.49,9.62,6.14,10.55,8.47"/><path d="M74.02,53.64c0.11,0.86-0.02,1.66-0.4,2.42c-1.53,3.53-6.7,9.89-13.56,13.91"/><path d="M74.25,60.5c3.64,1.54,9.4,6.32,10.31,8.72"/><path d="M15.31,78.74c3.16,0.98,7.31,0.75,10.56,0.39c16.2-1.77,38.59-3.46,54.88-3.94c3.66-0.11,7.58,0.17,11.19,0.84"/><path d="M52.83,32.12c0.67,0.63,1.74,1.87,1.74,4.17c0,11.59,0.05,42.86-0.04,57.22c-0.02,2.79-0.03,5.03-0.03,6.5"/></svg>