<svg><path d="M34.49,12.39c0.14,1.24,0.24,2.79-0.12,4.31c-2.29,9.62-11.14,28.22-21.81,41.26"/><path d="M26.01,43.5c0.63,0.65,0.81,2.1,0.81,3.45c0,13.9-0.31,42.84-0.31,52.18"/><path d="M65.45,10.13c0.67,0.37,2.08,2.79,2.22,3.53c0.13,0.74,0.07,4-0.07,8.65"/><path d="M41.59,24.21c1.34,0.52,3.79,0.55,5.13,0.52C59.5,24.5,74.5,21.5,90.94,20.18c2.22-0.18,3.57,0.25,4.68,0.51"/><path d="M45.88,24.89c0.04,1.54,0.08,3.97-0.07,6.18c-0.9,13.03-1.31,44.18-12.59,58.66"/><path d="M54.33,33.59c1.72,0.19,2.55,0.5,4.13,0.38c9.65-0.76,22.54-2.72,28.65-3.42c2.22-0.26,3.29,1.44,2.95,3.33c-0.9,4.94-1.55,7.37-2.76,15.87"/><path d="M47.83,42.9c1.55,0.19,2.76,0.48,4.48,0.38c13.44-0.77,31.5-3.64,43.39-4.21c1.9-0.09,3.45-0.12,4.31,0.07"/><path d="M54.74,52.83c0.86,0.12,2.42,0.41,3.44,0.35c9.48-0.58,20.23-2.31,29.38-3.18c1.37-0.13,2.24,0,3.27,0.12"/><path d="M53.22,60.33c0.51,0.75,0.86,1.51,1.03,2.26c0.17,0.75,0.17,32.93,0.17,34.62"/><path d="M55.27,62.78c6.61-0.82,32.03-3.86,33.56-4.07c2.74-0.38,3.76,2.45,3.42,3.57c-0.33,1.08-0.51,13.26-0.51,28.5c0,10.87-5.04,1.62-6.13,0.97"/><path d="M55.27,71.95c7.63-0.66,29.63-2.85,35.78-3.41"/><path d="M55.43,82.41c5.47-0.56,29.76-3.31,36.09-3.69"/><path d="M69.27,25.73c0.96,0.48,1.54,2.17,1.73,3.14c0.19,0.97,0,62.59-0.19,68.64"/></svg>