<svg><path d="M32.75,17.64c0.13,1.23,0.08,2.55-0.36,4.04C29.12,32.5,21.5,49.25,11.56,62.22"/><path d="M25.53,44c0.59,0.61,1.01,1.97,1.01,3.23c0,10.29-0.01,26.15-0.01,41.27c0,3.15-0.03,5.79-0.03,7.62"/><path d="M63.93,11.7c0.93,0.93,1.24,2.17,1.24,4c0,0.7,0.05,9.04,0.05,14.1"/><path d="M47.15,21.81c0.64,0.64,0.73,1.56,0.45,2.99c-0.59,3.03-0.98,3.68-1.48,6.28c-0.3,1.55,0.29,2.55,1.66,1.93c3.37-1.53,29.62-4.7,37.15-4.89"/><path d="M87.14,15.35c0.73,0.9,0.86,2.4,0.6,3.97c-0.48,2.96-1.03,5.87-1.5,8.55c-0.29,1.69-0.52,2.57-0.79,4.51"/><path d="M54.01,38.92c0.19,1.57-0.05,2.87-0.67,4.22c-3.91,8.57-8.82,17.68-18.06,26.75"/><path d="M49.53,52.82c0.82,0.82,1.02,2.46,1.03,3.18c0.09,8.03,0.11,25.05,0.03,35c-0.02,2.56-0.05,4.65-0.08,6"/><path d="M74.13,36.06c0.06,0.79,0.04,1.85-0.2,2.5c-0.94,2.56-2.06,4.81-5.29,9.42"/><path d="M50.43,52c6.15-0.68,24.55-2.95,34.3-4.18c2.94-0.37,5.09-0.65,5.88-0.76"/><path d="M69.98,52.49c0.83,0.83,0.97,2.14,0.97,3.97c0,10.73-0.07,28.74-0.07,34.04"/><path d="M51.61,65.39c5.71-0.56,21.29-2.21,29.95-3.15c2.8-0.31,4.87-0.54,5.66-0.63"/><path d="M51.94,78.28c6.05-0.47,21.93-2.14,31.33-3.07c2.99-0.29,5.19-0.51,6.02-0.59"/><path d="M51.97,93.01c6.22-0.69,25.37-2.18,35.8-3.03c3-0.25,5.18-0.44,5.95-0.55"/></svg>