<svg><path d="M33.27,15.75c0.2,2.16-0.06,3.49-0.7,5.34c-4.13,11.79-10.44,25.66-19.31,38.45"/><path d="M26.28,41.25c1.05,1.05,1.26,2.5,1.26,4.73c0,10.18,0.01,30.02,0.01,43.77c0,2.94-0.05,5.36-0.05,7"/><path d="M45.64,23.48c2.48,0.65,4.35,0.27,5.99,0.12c6.76-0.61,19.95-2.03,26.99-2.66c2.2-0.2,4.09-0.35,6.26-0.07"/><path d="M62.88,13.56c1.09,1.09,1.53,2.31,1.53,3.41c0,6.27-0.04,16.91-0.04,24.28"/><path d="M47.26,33.33c1.86,0.29,3.75,0.08,5.25-0.1c7.24-0.86,18.39-2.14,23.87-2.59c1.53-0.13,3.04-0.24,4.58-0.09"/><path d="M37.38,44.06c3.37,0.57,5.54,0.49,8.25,0.24c10.97-1.02,31.65-3.01,42.12-3.66c2.39-0.15,5.39-0.24,7.75,0.38"/><path d="M48.64,51.09c0.82,0.82,1.25,1.91,1.25,3.32c0,0.68-0.05,15.09-0.07,22.84c-0.01,2.59-0.01,4.35-0.01,4.47"/><path d="M50.73,52.29c2.87-0.16,24.47-2.35,27.08-2.53c2.18-0.15,3.21,0.74,3.21,2.86c0,4.19-0.01,15.4-0.01,22.26c0,2.53,0,4.47,0,5.25"/><path d="M51.19,60.94c5.69-0.31,24.05-2.22,28.65-2.3"/><path d="M50.92,70.19c6.58-0.57,21.64-2.1,29.01-2.22"/><path d="M50.91,79.27c7.21-0.52,18.21-1.77,29.07-2.01"/><path d="M55.59,82.13c0.44,1.12-0.12,2.43-1,3.21c-2.65,2.37-10.07,7.38-15.37,10.12"/><path d="M74.42,82.9c7.22,3.52,15.75,9.77,17.71,12.73"/></svg>