<svg><path d="M33.01,17.39c0.11,1.16,0.2,2.61-0.1,4.03c-1.93,8.99-9.37,26.36-18.35,38.55"/><path d="M27.53,42.5c0.59,0.61,0.76,1.97,0.76,3.23c0,13.02-0.29,39.65-0.29,48.4"/><path d="M43.85,20.27c0.95,0.47,2.69,0.57,3.64,0.47c9.27-0.99,22.02-3.24,33.32-3.87c1.58-0.09,2.53,0.22,3.32,0.46"/><path d="M43.81,28.83c0.6,0.42,1.37,1.99,1.48,2.55c0.81,4.02,1.85,11.8,3.04,20.23"/><path d="M46.12,30.36c9.15-0.81,29.21-3.38,35.45-3.5c2.58-0.05,2.79,1.27,2.6,3.47c-0.38,4.33-0.92,11.18-2.46,18.98"/><path d="M48.78,39.79c6.9-0.21,21.3-3.13,34.29-3.13"/><path d="M48.38,50.36c8.02-0.84,22.9-2.9,33.34-2.9"/><path d="M62.56,11.5c0.61,0.6,1.63,1.75,1.63,5.66c0,1.2-0.08,32.63-0.2,40.09"/><path d="M41.68,61.63c0.61,1.12,2.17,1.71,3.03,1.63c2.84-0.26,30.94-6.63,36.23-7.76"/><path d="M75.44,52.37c4.18,1.63,10.78,6.71,11.83,9.25"/><path d="M37.13,72.67c1.28,0.8,3.62,0.96,4.91,0.8C54.02,72,79,69,90.39,67.79c2.13-0.23,3.42,0.38,4.49,0.78"/><path d="M74.67,61.08c0.06,0.4,0.84,2.06,0.84,4.58c0,16.93-0.17,22.67-0.17,26.78c0,9.99-5.05,1.48-6.52,0.21"/><path d="M50.26,78.87c2.5,1.72,6.46,7.07,7.08,9.75"/></svg>