<svg><path d="M31.44,17c0.13,1.23,0.22,2.78-0.11,4.29C29.19,30.86,20.94,49.36,11,62.32"/><path d="M25.98,41.61c0.59,0.61,0.76,1.97,0.76,3.23c0,13.02-0.29,40.15-0.29,48.9"/><path d="M39.38,21.22c1.35,0.47,3.82,0.55,5.16,0.47c14.02-0.79,26.67-3.23,41.79-3.66c2.24-0.06,3.59,0.23,4.71,0.46"/><path d="M55.43,30.87c0.31,0.31,0.64,0.57,0.77,0.96c1.09,3.08,2.39,11.57,3.14,17.09"/><path d="M56.84,32.38c7.49-1.18,20.09-2.56,24.38-3.03c1.57-0.17,2.51,1.02,2.29,2.04c-0.93,4.19-1.58,6.5-2.96,12.3"/><path d="M59.29,46.48c5.04-0.53,16.34-1.45,23.26-2.27"/><path d="M50.37,59.89c0.37,0.36,0.74,0.66,0.9,1.12c1.27,3.59,2.61,14.79,3.48,21.24"/><path d="M52.21,62.32c4.67-0.95,10.4-3.02,14.69-3.49c1.57-0.17,2.51,1.02,2.29,2.04c-0.93,4.19-1.58,11.56-2.96,17.36"/><path d="M54.67,80.1c5.04-0.53,11.65-1.92,13.57-1.81"/><path d="M74.3,57.14c0.37,0.4,0.74,0.72,0.9,1.22c1.27,3.91,2.29,14.19,3.16,21.21"/><path d="M75.72,58.79c7.06-1.53,12.07-2.79,16.37-3.3c1.57-0.19,2.51,1.11,2.29,2.21c-0.93,4.57-2.01,10.58-3.4,16.89"/><path d="M78.6,77.64c5.04-0.58,7.02-0.58,13.94-1.48"/><path d="M43.18,22.11c0,3.5-0.44,64.64-0.44,67.92c0,2.78,0.88,3.61,2.44,3.5c8.87-0.66,41.33-3.36,44.22-3.36c2.88,0,3.84,0.33,6.09,1.16"/></svg>