<svg><path d="M31.44,17.5c0.13,1.22,0.23,2.74-0.12,4.24C29.1,31.2,20.55,49.5,10.25,62.32"/><path d="M24.48,44.61c0.59,0.61,0.76,1.97,0.76,3.23c0,13.02-0.29,37.15-0.29,45.9"/><path d="M40.22,15.98c0.78,0.45,2.2,0.51,2.98,0.45c7.17-0.61,30.99-3.92,36.95-3.95c1.3-0.01,2.08,0.21,2.72,0.44"/><path d="M38.25,28.3c0.32,0.3,0.65,0.55,0.79,0.92c1.12,2.95,2.06,10.19,2.83,15.49"/><path d="M40.26,29.32c7.91-1.24,40.6-4.67,44.67-5.09c1.49-0.15,2.39,1.54,2.17,2.44c-0.92,3.86-1.15,7.96-3,13.18"/><path d="M53.67,18.81c0.86,0.47,1.43,2.09,1.55,3.04c0.33,2.8,0.28,11.4,0.41,19.4"/><path d="M68.44,16.47c0.86,0.47,0.92,2.52,0.89,4.67c-0.08,6.61-0.08,10.36-0.76,17.53"/><path d="M42.2,43.26c4.79-0.47,35.54-3.82,41.61-4.29"/><path d="M32.71,53.93c0.99,0.27,3.64,0.59,5.74,0.47c14.24-0.81,35.44-3.93,48.22-4.32c2.2-0.07,3.97-0.03,5.95,0.18"/><path d="M58.1,44.16c0.15,1.09-0.15,2.06-0.4,3.06C55.25,57.25,46.5,71.75,32.25,78.95"/><path d="M68.77,51.75c5.25,4.41,17.51,15.64,22.76,18.59c1.79,1,2.41,1.15,3.22,1.25"/><path d="M51.25,66.79c1.06,0.64,1.97,0.64,3.52,0.43c3.16-0.43,17.65-2.66,18.61-2.75c1.27-0.11,2.27,0.71,1.82,2.37c-0.13,0.5-2.49,7.31-3.38,12.07"/><path d="M53.25,80.93c2.33-0.23,16.79-1.63,21.24-2.56"/><path d="M52.71,67.14c-0.02,3.19,0.58,17.72,0.6,20.61c0.04,8.18,1.88,9,17.63,9c17,0,16.12-3.12,16.12-5.85"/></svg>