<svg><path d="M51.76,11.25c0.1,0.98,0.44,2.61-0.2,3.93C47.5,23.5,36,41,16.75,52.75"/><path d="M52,14.5c5.4,6.22,28.66,26.55,34.62,31.1c2.02,1.55,4.61,2.21,6.63,2.65"/><path d="M39.75,42.11c0.52,0.19,1.48,0.2,2,0.19c4-0.05,20.71-2.66,23.93-2.44c0.87,0.06,1.39,0.09,1.82,0.19"/><path d="M26.75,54.75c0.32,0.34,0.66,0.62,0.8,1.05c1.13,3.37,2.97,12.65,3.74,18.7"/><path d="M28.27,56.54C36.5,55,43.5,53.34,47.3,52.9c1.39-0.16,2.23,0.96,2.03,1.91c-0.82,3.93-1.79,9.68-3.01,15.12"/><path d="M31.45,72.54c4.47-0.5,11.13-1.36,17.26-2.13"/><path d="M56.75,53.09c0.33,0.31,0.67,0.57,0.82,0.95c1.15,3.07,2.53,11.53,3.32,17.04"/><path d="M58.82,54.67c6.93-1.17,15.05-1.87,18.94-2.27c1.42-0.15,2.27,0.87,2.07,1.74c-0.84,3.58-1.83,8.41-3.08,13.37"/><path d="M61.04,69.89c4.57-0.46,10.86-1.24,17.13-1.94"/><path d="M40.28,73.62c0.22,1.13,0.14,2.22-0.16,2.95C37.5,83,31.5,91.5,20.75,99.25"/><path d="M39.42,81.32c4.11,1.87,9.36,6.84,11.36,11.56"/><path d="M68.31,72.37c0.2,1.19,0.13,2.33-0.14,3.1c-2.36,6.74-7.75,15.66-17.42,23.79"/><path d="M67.99,80.7c6.08,2.89,13.83,10.58,16.79,17.87"/></svg>