<svg><path d="M30.01,17.39c0.11,1.1,0.19,2.48-0.1,3.84c-1.85,8.56-8.99,25.13-17.61,36.73"/><path d="M24.53,41.5c0.59,0.61,0.76,1.97,0.76,3.23c0,13.02-0.29,43.15-0.29,51.9"/><path d="M38.25,26.81c1.75,0.44,3.51,0.46,4.92,0.34c10.58-0.9,32.33-3.15,44.95-4.41c2.32-0.23,3.72,0.4,4.89,0.82"/><path d="M51.04,14.55c0.52,0.54,1.3,1.72,1.38,2.53c0.7,7.6,0.8,17.63,1,20.39"/><path d="M76.13,12.37c0.12,1,0.52,3.05,0.27,4.39c-1.47,7.9-2.14,11.29-3.74,18.73"/><path d="M54.36,36.85c2.88-0.21,14.64-1.3,18.3-1.51"/><path d="M43.25,43.45c0.38,0.3,0.77,0.55,0.94,0.93c1.32,2.98,2.4,11.2,3.3,16.55"/><path d="M45.12,44.98c9.31-1.25,33.88-4.89,38.67-5.31c1.76-0.15,2.81,1.55,2.56,2.46c-1.04,3.75-2.73,7.47-4.96,12.88"/><path d="M47.36,58.46c5.64-0.47,28.63-3.01,35.79-3.49"/><path d="M62.72,36.48c1.03,1.02,1.25,2.1,1.25,3.29c0,3.73-0.25,42.98-0.25,52.16"/><path d="M 42.307775,70.989881 c 0.55,0.17 3.689644,0.2 4.239644,0.17 5.06,-0.31 28.848099,-2.279881 36.478099,-3.149881 1.399881,0.226587 3.80635,0.08 4.26635,0.16"/><path d="M45,81.34c0.72,0.24,4.26,0.26,4.98,0.24c9.55-0.31,20.48-2.51,29.68-3.14c1.19-0.08,3.27,0.11,3.87,0.23"/><path d="M37.38,93.99c1.05,0.35,2.47,1.06,3.52,0.95c16.31-1.81,33.32-3.3,48.34-3.58c1.75-0.03,4.8,0.17,5.68,0.34"/></svg>