<svg><path d="M29.76,14.89c0.12,1.16,0.06,2.14-0.36,3.53C27,26.38,19.02,44.04,9.81,56.22"/><path d="M21.78,41.25c0.8,0.8,1.26,1.75,1.26,3.73c0,10.64,0.06,32.53-0.02,44.77C23.01,92.49,23,94.77,23,96.38"/><path d="M37.73,24.6c2.52,0.52,5.12,0.37,7.27,0.08c10.77-1.45,23.7-3.71,33.62-4.62c2.55-0.24,5.11-0.46,7.63,0.12"/><path d="M61.21,10c0.45,0.66,0.53,1.96,0.17,3.34C57.12,29.5,48,46.5,30.75,57.01"/><path d="M60.18,23.92c6.44,5.7,17.56,15.2,26.12,21.14c2.68,1.86,5.33,4.07,8.45,5.18"/><path d="M38.02,33.58c2.4,1.35,6.19,5.54,6.79,7.63"/><path d="M86.28,26.89c0.06,0.63-0.29,1.23-0.57,1.8c-1.46,2.05-3.21,3.68-6.9,7.27"/><path d="M45.24,47.59c0.83,0.83,1.09,2.06,1.28,3c0.61,2.74,1.92,11.32,2.68,16.56c0.31,2.15,0.53,3.73,0.56,4.13"/><path d="M46.91,48.14c7.98-0.95,21.87-2.69,29.09-3.69c3.87-0.53,5.39,0.88,4.92,4.57c-0.53,4.14-1.42,10.44-2.21,15.72c-0.21,1.38-0.41,2.7-0.6,3.88"/><path d="M49.03,58.07c7.09-0.95,24.22-2.57,29.82-2.8"/><path d="M50.71,69.16c6.27-0.44,16.42-1.78,26.4-2.27"/><path d="M63.86,70.87c0.82,0.82,1.02,2.26,1.02,3.98c0,6.03,0.04,14.63,0.04,18.66c0,9.14-5.85,1.22-7.07,0.2"/><path d="M48.7,79.43c0.11,0.96-0.07,1.45-0.58,2.28C46.1,85.02,41.68,89.98,34,95.25"/><path d="M76.96,78.12c4.6,2.36,11.29,8.63,13.29,13.13"/></svg>