<svg><path d="M32.43,16c0.13,1.12,0.24,2.52-0.12,3.89c-2.26,8.67-11.02,25.44-21.56,37.19"/><path d="M24.48,43.11c0.59,0.61,0.76,1.97,0.76,3.23c0,13.02-0.29,41.15-0.29,49.9"/><path d="M40.41,22.07c1,0.32,2.83,0.3,3.83,0.19c10.4-1.09,30.42-3.31,42.15-3.76c1.67-0.06,2.67,0.06,3.5,0.2"/><path d="M63.11,10.26c0.71,0.3,1.14,1.47,1.28,2.15c0.14,0.67,0.01,14.28-0.13,18.55"/><path d="M46.75,33.02c0.7,0.23,1.98,0.19,2.67,0.12c9.22-0.84,17.77-2.26,31.13-3.08c1.17-0.07,1.86,0.03,2.44,0.13"/><path d="M47.32,40.68c0.3,0.25,0.61,0.46,0.75,0.77c1.05,2.48,2.31,9.33,3.02,13.79"/><path d="M49.21,42c7.41-1.04,28.41-3.38,32.23-3.73c1.4-0.13,2.24,1.29,2.04,2.05c-0.83,3.13-1.39,5.85-3.16,10.36"/><path d="M51.39,53.6c4.49-0.4,25-2.13,30.7-2.53"/><path d="M47.93,57.69c1.83,1.45,4.73,5.96,5.19,8.22"/><path d="M80.24,55.21c0.02,0.26,0.04,0.68-0.04,1.06c-0.43,2.24-2.93,7.15-6.35,10.16"/><path d="M35.1,69.81c1.34,0.5,3.81,0.63,5.15,0.5c9.88-0.92,38.73-3.62,53.7-4.3c2.24-0.1,3.58,0.24,4.7,0.49"/><path d="M47.58,79.11c0.36,0.3,0.73,0.56,0.89,0.94c1.25,3.01,2.47,12.76,3.32,18.16"/><path d="M49.82,80.71c8.81-1.26,28.8-3.48,33.34-3.91c1.66-0.15,2.66,1.57,2.42,2.49c-0.99,3.79-1.65,8.42-3.76,13.88"/><path d="M52.14,96.22c5.34-0.48,25.03-2.1,31.81-2.58"/></svg>