<svg><path d="M31.5,15.14c0.13,1.23-0.03,2.53-0.36,4.04C29,28.75,20,47.25,10.06,60.22"/><path d="M23.75,42.75c1.06,1.06,1.32,2.38,1.32,4.24c0,11.39,0.04,32.24-0.03,45.01c-0.02,3.02-0.03,5.56-0.03,7.38"/><path d="M55.55,13.89c0.84,0.84,1.36,2.1,1.45,3.76c0.25,4.73,0.62,9.98,0.85,14.77"/><path d="M68.55,10.39c1,1.59,1.2,2.54,1.2,3.81c0,1.27-1,15.05-1.4,18.21"/><path d="M41.52,18.33c2.04,1.96,5.28,8.08,5.79,11.13"/><path d="M84.78,14.64c0.11,0.88-0.02,1.73-0.39,2.53c-1.89,4.08-4,8.13-8.08,13.05"/><path d="M36.5,35.65c2.45,0.89,5.73,0.33,8.24-0.01c9.39-1.28,30.78-3.87,41.39-4.49c2.45-0.14,4.95-0.31,7.38,0.22"/><path d="M50.52,38.08c1.43,1.57,3.69,6.45,4.04,8.88"/><path d="M74.53,35.39c0.03,0.33,0.13,0.88-0.05,1.34c-0.98,2.39-2.1,4.89-4.98,8.77"/><path d="M43,50.4c2.5,0.47,5.05,0.27,7.39-0.04c6.7-0.88,18.67-2.7,27.11-3.21c2.49-0.15,5.04-0.56,7.5-0.02"/><path d="M44.5,62.65c2.62,0.47,4.5,0.33,6.63,0.06c6.17-0.78,18.74-2.09,25.99-2.86c2.28-0.24,4.62-0.22,6.88,0.27"/><path d="M37.5,75.4c3.12,0.35,6.07,0.33,9,0.08c9.11-0.78,26.88-2.77,38.88-3.15c3.13-0.1,6.04,0.04,9.12,0.54"/><path d="M61.78,51.75c0.47,1,0.87,2.79,0.86,4.38C62.5,71.25,57.25,90.25,36.75,98"/><path d="M63.65,74.98c2.98,1.65,12.46,11.19,22,17.91c2.27,1.6,3.98,2.74,6.85,4.06"/></svg>