<svg><path d="M32.99,15.14c0,1.36-0.18,2.8-0.62,4.29c-3,10.32-10.76,27.82-21.07,40.79"/><path d="M24.78,43.5c0.8,0.8,1.01,1.97,1.01,3.23c0,9.62-0.02,27.21-0.03,39.27c0,4.26-0.01,7.84-0.01,10.12"/><path d="M74.83,11.23c-0.45,0.9-1.52,1.76-2.42,2.18c-7.91,3.72-15.03,6.09-27.97,9.63"/><path d="M39.05,31c2.75,0.41,5.49,0.36,8.22-0.17c8.12-1.07,23.35-3.2,32.19-4.46c3.52-0.5,6.12-0.52,10.01-0.19"/><path d="M61.37,21.44c-0.17,1.44-0.71,2.69-1.52,3.84C52.25,36,46.38,43,34.75,51.05"/><path d="M67.72,30.27c4.87,3.47,13.41,9.85,19.88,13.9c2.63,1.91,5.51,3.24,8.65,3.99"/><path d="M50.09,43.41c0.75,0.75,1.02,1.77,1.18,2.69c0.5,2.83,1.02,5.76,1.52,8.55c0.23,1.3,0.45,2.51,0.66,3.56"/><path d="M52.17,44.55c5.57-0.88,16.22-2.26,20.22-2.77c2.42-0.31,4.29,0.44,3.51,3.18c-0.9,3.16-1.55,4.3-2.25,7.83"/><path d="M54.5,56c3.23-0.4,9.72-0.97,15.99-1.59c1.5-0.15,2.98-0.3,4.41-0.45"/><path d="M41,67.25c1.02,1.16,1.57,2.45,1.65,3.87c0.26,3.02,0.74,12.25,1.14,19.13c0.14,2.41,0.27,4.54,0.39,6"/><path d="M42.75,68.5c8.1-0.8,36.22-4.25,42.02-5.07c4.25-0.59,5.82,0.38,5.37,5.18c-0.64,6.76-2.06,17.81-5.19,24.96c-2.7,6.17-3.58,3.3-6.79-0.23"/><path d="M54.42,74.72c0.62,0.62,0.73,1.39,0.88,2.15c0.64,3.17,1.04,5.25,1.39,7.13c0.23,1.24,0.44,2.4,0.69,3.74"/><path d="M56.16,74.98c6.46-1.11,10.71-1.61,15.39-2.37c2.06-0.33,2.99,0.88,2.41,2.72c-0.83,2.66-1.71,5.04-2.58,7.54"/><path d="M57.95,85.92c2.82-0.55,7.03-1.12,10.94-1.67c1.43-0.2,2.81-0.39,4.07-0.58"/></svg>