<svg><path d="M33.44,16.5c0.13,1.23,0.22,2.78-0.11,4.29C31.19,30.36,22.94,48.86,13,61.82"/><path d="M26.48,44.61c0.59,0.61,0.76,1.97,0.76,3.23c0,13.02-0.29,39.15-0.29,47.9"/><path d="M40.07,24.04c0.55,0.24,1.56,0.33,2.1,0.24c2.86-0.45,14.23-2.13,18.27-2.35c0.91-0.05,1.46,0.12,1.92,0.24"/><path d="M43.2,27.1c0.26,0.31,0.69,1.66,0.52,2.27c-0.96,3.38-2.21,7.63-5.02,11.27c-1.34,1.73,0.43,2.44,1.01,2.12c3.55-2,15.8-5.56,21.68-5.77c0.68-0.02,1.11-0.13,1.64,0.13"/><path d="M54.84,12.9c0.28,0.69,0.51,2.03,0.35,3.72C53.5,33.75,51.5,51,36.25,62.5"/><path d="M54.15,41.7c0.28,0.5,0.5,1.1,0.52,1.88c0.07,3.47-0.21,9.74-0.21,11.33s-0.2,3.34,1.8,1.84s5.5-4.75,8.25-7"/><path d="M70.07,22.79c0.6,0.24,1.7,0.33,2.29,0.24c3.12-0.45,15.51-2.13,19.91-2.35c1-0.05,1.59,0.12,2.09,0.24"/><path d="M73.2,24.85c0.26,0.31,0.69,1.66,0.52,2.27c-0.96,3.38-2.46,7.88-4.52,11.77c-1.03,1.93,0.43,2.44,1.01,2.12c3.55-2,18.3-5.06,24.18-5.27c0.68-0.02,1.11-0.13,1.64,0.13"/><path d="M85.37,12.15c0.26,0.64,0.48,1.87,0.33,3.42C84.12,31.32,82.25,47.18,68,57.75"/><path d="M83.65,40.45c0.28,0.5,0.5,1.1,0.52,1.88c0.08,3.47-0.21,8.99-0.21,11.33s2.31,4.19,6.31,3.89S97,57,96.5,53.18"/><path d="M47.24,67.98c0.26,0.52,1.38,1.83,1.44,2.48c0.57,6.54,1.95,17.81,2.73,27.5"/><path d="M48.55,68.67c9.76-1.31,27-3.03,34.29-4.12c2.68-0.4,4.05,1.02,3.91,2.45c-0.5,5.24-2.5,19-4.47,28.25"/><path d="M50.87,81.61c3.18-0.51,29.62-3.26,32.25-3.47"/><path d="M51.91,95.54c7.03-0.56,20.66-1.88,30.37-2.79"/></svg>