<svg><path d="M31.44,16.5c0.13,1.23,0.22,2.78-0.11,4.29C29.19,30.36,20.94,48.86,11,61.82"/><path d="M24.48,44.61c0.59,0.61,0.76,1.97,0.76,3.23c0,13.02-0.29,40.15-0.29,48.9"/><path d="M37.42,26.62c0.56,0.26,1.59,0.27,2.15,0.26c4.76-0.08,11.84-1.59,17.44-1.94c0.93-0.06,1.5,0.12,1.96,0.25"/><path d="M32.53,37.9c0.56,0.26,2.48,0.32,3.04,0.26c7.31-0.82,15.23-1.82,21.52-2.45c0.93-0.09,2.39,0.12,2.85,0.25"/><path d="M48.28,15.26c0.24,0.69,0.38,1.34,0.33,2.67C47.68,43,44.21,50.7,34.8,60.42"/><path d="M48.17,43.81c3.97,1.94,7.53,5.47,9.89,9.94"/><path d="M64.73,24.08c0.48,0.22,2.37,0.25,2.86,0.22c4.73-0.27,15.16-1.55,19.67-2.04c0.8-0.09,2.29,0.11,2.69,0.22"/><path d="M65.18,36.34c0.48,0.22,2.71,0.25,3.19,0.22C72.53,36.33,86,35,90.51,34.15c0.79-0.15,2.18,0.11,2.58,0.22"/><path d="M77.16,14.25c0.21,0.63,0.35,1.22,0.3,2.43c-0.89,21.74-3.54,30.65-12.44,38.7"/><path d="M75.06,36.28c4.65,6.11,12.81,15.8,18.02,19.53c1.5,1.08,1.87,1.46,2.5,1.58"/><path d="M47.06,61.57c0.94,1.18,1.57,2.17,1.66,3.18c0.37,4.26,1.39,24.57,1.8,30.68"/><path d="M48.31,63.16c3.4-0.56,28.25-3.12,29.95-3.27c1.42-0.13,2.48,0.86,2.42,2.66c-0.14,4.23-0.47,18.69-1.53,30.95"/><path d="M49.54,77.04c3.96-0.72,27.09-2.76,29.95-2.76"/><path d="M50.61,93.1c5.15-0.55,21.66-1.54,28.07-2.01"/></svg>