<svg><path d="M35.98,17.14c0.14,1.11,0,2.25-0.38,3.61c-2.42,8.62-11.52,25.28-22.79,36.96"/><path d="M27.53,41.25c0.98,0.98,1.26,2.25,1.26,3.98c0,10.45-0.03,30.32-0.04,42.27c0,2.94,0,5.4,0,7.12"/><path d="M50.38,17.88c2.64,2,6.82,8.23,7.49,11.35"/><path d="M81.04,13.81c0.02,0.35,0.08,0.91-0.04,1.41c-0.88,3.41-3.25,8.28-7.61,13.47"/><path d="M42.41,33.3c0.84,0.57,1.22,1.2,1.53,2.27c1,3.51,2.44,11.57,3.37,18.92c0.27,2.16,0.52,4.25,0.72,6.14"/><path d="M44.99,34.92c10.81-0.9,30.09-3.42,41.53-4.3c4.61-0.36,6.55,0.5,5.86,5.15c-0.54,3.65-1.4,9.39-2.37,15.3c-0.33,2.02-0.68,4.06-1.03,6.04"/><path d="M66.3,33.53c0.9,0.9,1.23,1.6,1.23,2.98c0,5.16,0.04,12.3,0.04,19.7"/><path d="M47.23,45.85c10.27-1.1,35.52-3.22,42.83-3.65"/><path d="M48.9,57.92c8.46-0.79,25.23-2.05,39.19-2.68"/><path d="M52.87,66.24c0.82,0.82,1.02,1.76,1.02,3.36c0,7.5,0.02,13,0.02,19.9c0,1.97,0,4.03,0,6.25"/><path d="M54.8,67.43c5.07-0.68,17.7-1.81,24.45-2.44c2.89-0.27,4.17,0.47,4.11,3c-0.09,3.91,0.08,11.52-0.03,20.75c-0.02,2-0.04,4.09-0.04,6.28"/><path d="M55.25,79.6C61,79,77.78,77.62,82.18,77.62"/><path d="M55.11,92.47c7.71-0.41,19.02-1.09,27.12-1.34"/></svg>