<svg><path d="M30.5,17.39c0.13,1.19,0.22,2.68-0.11,4.15c-2.11,9.25-10.76,27.14-20.58,39.68"/><path d="M22.53,44.5c0.59,0.61,0.76,1.97,0.76,3.23c0,13.02-0.29,40.15-0.29,48.9"/><path d="M37.31,24.8c0.92,0.49,2.69,0.92,3.66,0.82c5.24-0.54,12.84-2.24,14.95-2.44c1.04-0.1,1.99,1.24,1.77,2.66c-0.54,3.5-1.66,10.34-2.51,18.11"/><path d="M39.59,47.06c2.63-0.16,11.6-1.52,18.37-2.2"/><path d="M40.27,26.3c0,2.53-0.22,7.17-0.25,9.53c-0.16,17.12-3.61,38.87-11.22,49.85"/><path d="M39.13,65.8c0.11,0.77,0.5,2.5,0.54,3.09c0.29,4.27,1.67,14.86,2.07,22.94"/><path d="M39.71,67.75c3.21-0.86,14.46-3.28,16.65-3.42c0.91-0.05,2.75,1.8,2.62,3.07c-0.49,5.05-2.72,13.23-3.2,19.68"/><path d="M41.92,89.17c2.65-0.36,12.1-1.48,15.29-1.94"/><path d="M76.93,13.59c1.02,1.31,1.53,1.31,1.53,4.36c0,3.05,0,4.16,0,8.16"/><path d="M64.88,27.46c0.84,0.58,2.38,0.61,3.22,0.58c7.12-0.29,15.4-2.54,22.61-3.57c1.39-0.2,2.75-0.22,3.45,0.06"/><path d="M67.81,33.63c3.2,5.03,4.65,10.18,4.94,13.5"/><path d="M88.48,28.78c0.43,0.55,0.14,2.61,0.02,3.03c-1.24,4.2-2.82,11.39-3.67,13.79"/><path d="M61.84,50.52c1.1,0.48,2.39,0.53,3.49,0.48c7.03-0.27,20.79-3.49,29.02-3.78c1.84-0.06,2.94,0.23,3.86,0.47"/><path d="M65.53,68.91c0.79,0.39,2.23,0.44,3.02,0.39c8.19-0.55,15.66-1.63,24.95-2.45c1.31-0.12,2.1,0.19,2.76,0.38"/><path d="M78.27,52.37c0.36,0.4,1.12,2.98,1.19,3.77c0.41,4.56-0.1,40.48-0.12,41.65"/></svg>