<svg><path d="M33.44,17c0.13,1.23,0.22,2.78-0.11,4.29C31.19,30.86,22.94,49.36,13,62.32"/><path d="M27.48,44.11c0.59,0.61,0.76,1.97,0.76,3.23c0,13.02-0.29,40.15-0.29,48.9"/><path d="M62.47,10.25c0.09,0.98,0.41,2.61-0.19,3.93C58.49,22.5,47.74,40,29.75,51.75"/><path d="M62.7,13.5c5.05,6.22,26.79,26.55,32.35,31.1c1.89,1.55,4.31,2.21,6.2,2.65"/><path d="M51.25,41.11c0.49,0.19,1.38,0.2,1.87,0.19c3.74-0.05,19.36-2.66,22.36-2.44c0.81,0.06,1.3,0.09,1.71,0.19"/><path d="M39.1,53.75c0.3,0.34,0.61,0.62,0.75,1.05c1.05,3.37,2.78,12.65,3.5,18.7"/><path d="M40.52,55.54c7.69-1.54,14.23-3.2,17.79-3.64c1.3-0.16,2.08,0.96,1.89,1.91c-0.77,3.93-1.67,9.68-2.81,15.12"/><path d="M43.49,71.54c4.18-0.5,10.4-1.36,16.13-2.13"/><path d="M67.14,52.09c0.31,0.31,0.63,0.57,0.76,0.95c1.08,3.07,2.36,11.53,3.1,17.04"/><path d="M69.07,53.67c6.48-1.17,14.07-1.87,17.7-2.27c1.33-0.15,2.13,0.87,1.93,1.74c-0.79,3.58-1.71,8.41-2.88,13.37"/><path d="M71.14,68.89c4.27-0.46,10.15-1.24,16.01-1.94"/><path d="M51.74,72.62c0.21,1.13,0.13,2.22-0.15,2.95C49.14,82,43.54,90.5,33.49,98.25"/><path d="M50.94,80.32c3.84,1.87,8.75,6.84,10.62,11.56"/><path d="M77.94,71.37c0.19,1.19,0.12,2.33-0.13,3.1c-2.21,6.74-7.25,15.66-16.28,23.79"/><path d="M77.64,79.7c5.68,2.89,12.93,10.58,15.69,17.87"/></svg>