<svg><path d="M32.43,16.5c0.13,1.22,0.23,2.74-0.12,4.24C30.08,30.2,21.42,48.5,11,61.32"/><path d="M26.46,41.61c0.62,0.64,0.79,2.05,0.79,3.37c0,13.58-0.3,41.88-0.3,51.01"/><path d="M50.76,12.75c0.16,1.27-0.04,2.93-0.56,4.02c-3.28,6.94-7.43,12.81-14.95,21.26"/><path d="M45.18,26.09c0.71,0.54,1.25,1.71,1.3,2.55c0.42,7.42-0.58,27-0.22,30.86"/><path d="M71.79,12.05c0.04,0.53-0.01,1.23-0.15,1.69c-0.87,2.91-1.97,5.16-3.96,8.7"/><path d="M46.28,26.26c8.22-0.7,40.91-4.28,44.44-4.66"/><path d="M68.03,25.29c0.4,0.27,0.71,0.65,0.71,1.12c0,4.81,0.04,19.38-0.2,26.95"/><path d="M47.38,35.88c7.75-0.58,35.8-3.31,39.13-3.63"/><path d="M46.44,45.15c8.18-0.49,37.29-3.08,40.8-3.34"/><path d="M46.44,55.42c8.22-0.7,43.54-3.13,47.06-3.51"/><path d="M43.84,65.63c0.38,0.25,1.19,1.89,1.27,2.4c0.08,0.51-0.13,28.47-0.13,29.1"/><path d="M44.92,67.25C46.75,67,55.7,64.89,58.28,64.5c1.65-0.25,2.75,0,2.75,2.5s0,7.5,0,9.25s-0.55,3,1.1,2.75c1.65-0.25,13-2.25,14.65-2.25"/><path d="M74.72,61.44c0.35,0.96,0.7,1.45,0.7,2.73c0,1.29,0.27,11.86,0.27,12.51"/><path d="M76.75,62.65c4.15-0.65,11.94-1.89,13.63-2.33c1.1-0.29,1.71,0.79,1.71,2.8c-0.01,7.12,0.12,18.12-0.31,29.6c-0.27,7.27-4.02,3.02-6.17,0.57"/></svg>