<svg><path d="M32.93,16c0.13,1.15,0.24,2.59-0.12,4.01c-2.26,8.93-11.02,26.21-21.56,38.32"/><path d="M25.45,41.11c0.63,0.65,0.81,2.1,0.81,3.45c0,13.9-0.31,42.84-0.31,52.18"/><path d="M40.36,22.8c1.02,0.43,2.21,0.51,3.23,0.43c9.39-0.78,37.01-3.9,47.83-3.96c1.7-0.01,2.72,0.2,3.58,0.42"/><path d="M53.4,12.94c1.25,0.9,1.65,1.18,1.78,1.73c1.25,5.2,1.81,11.06,2.17,12.96"/><path d="M75.37,11.75c0.23,0.74,0.32,1.25,0.27,2.19c-0.14,2.56-1.39,7.81-2.28,12.47"/><path d="M42.92,32.16c0.24,0.23,0.49,0.42,0.6,0.71c0.84,2.28,2.27,8.57,2.85,12.67"/><path d="M44.43,33.71c5.35-0.89,41.69-3.73,44.53-4.03c1.04-0.11,2.45,0.77,2.17,2.05c-0.58,2.68-2.01,7.73-3.56,11.55"/><path d="M58.79,32.44c0.16,1.52,1.31,8.93,1.47,10.64"/><path d="M73.04,31.49c0.84,0.72,1.15,1.88,1.05,2.81c-0.31,2.94-0.84,6.49-1.09,7.64"/><path d="M47.13,44.3c3.34-0.34,36.24-2.44,40.82-2.97"/><path d="M42.62,49.33c-0.15,3.22-3.82,11.63-5.12,13.55"/><path d="M42.1,52.93c2.98,0,34.3-4.19,50.07-4.89c10.17-0.45,3.21,5.31-0.59,8.77"/><path d="M62.99,53.29c0.21,0.42-0.24,2.19-0.59,2.98c-2.4,5.49-8.74,14.9-19.48,21.44"/><path d="M62.71,62.71c0.31,0.04,2.63,0,3.52-0.12c2.91-0.4,8.46-1.86,13.47-2.31c2.96-0.26,2.99,1.32,1.67,3.3C73.25,75.75,63,89.25,41.2,97.25"/><path d="M54.11,71.92c3.08,1.61,7.96,6.63,8.73,9.14"/></svg>