<svg><path d="M31.25,16.89c0.13,1.23-0.03,2.28-0.36,3.79C28.75,30.25,20,47.5,10.06,60.47"/><path d="M26.03,37.75c0.92,0.92,1.26,2.12,1.26,3.98c0,10.62-0.02,34.65-0.02,49.02c0,3.13-0.03,5.76-0.03,7.62"/><path d="M63.71,12.87c0.84,0.84,1.26,1.76,1.26,3.49c0,3.64-0.01,8.52-0.01,13.26"/><path d="M45.75,17.88c2.58,1.56,6.66,6.42,7.31,8.84"/><path d="M82.01,15.25c0.07,0.77-0.04,1.52-0.32,2.24c-0.81,2.38-2.88,5.41-6.63,9.73"/><path d="M40.64,32.48c-0.14,3.32-1.98,13.2-3.14,15.18"/><path d="M41.63,33.58C47,33,76.52,29.19,90.85,29.09c7.51-0.05,1.52,5.28-1.81,7.43"/><path d="M49.51,38c0.78,0.44,1.28,1.41,1.46,2.33c0.53,2.66,0.69,3.27,1.16,5.24c0.33,1.38,0.65,2.74,0.95,3.93"/><path d="M52.06,39.57c3.72-0.46,17.89-2.19,23.82-2.96c2.68-0.34,4.11,0.64,3.25,3.15c-0.57,1.65-1.26,2.99-2.01,4.62"/><path d="M53.88,47.25c4.51-0.38,15.41-1.16,21.82-1.61c1.57-0.11,2.86-0.2,3.74-0.27"/><path d="M50.77,54.26c0.86,0.86,1.16,1.99,1.16,3.19c0,0.49,0.02,16.3,0.04,25.3c0,3.57,0.01,6.06,0.01,6.1"/><path d="M52.7,55.76c5.96-0.48,19.44-2.07,24.16-2.57c3.02-0.32,4.78,0.55,4.78,3.82c0.01,5.81,0.06,15.06,0.08,23.5c0,1.99,0.01,3.93,0.01,5.77"/><path d="M53.2,64.9c7.8-0.65,21.05-1.9,27.2-2.15"/><path d="M52.95,74.73c7.55-0.61,19.92-2.11,27.67-2.37"/><path d="M53.18,84.59c7.32-0.84,19.57-2.09,27.42-2.62"/><path d="M59.61,90.48c-0.11,1.02-0.64,1.55-1.5,2.22c-3.66,2.85-7.99,5.17-15.5,8.05"/><path d="M75,88.75c6.47,3.08,14.12,8.65,15.89,11.34"/></svg>