<svg><path d="M30.94,15.5c0.13,1.19,0.23,2.68-0.12,4.15C28.6,28.9,20.05,46.79,9.75,59.32"/><path d="M25.43,39.11c0.66,0.68,0.84,2.19,0.84,3.58c0,14.46-0.32,44.58-0.32,54.29"/><path d="M42,16.91c0.3,0.54,0.31,0.9,0.47,1.56C43.81,23.9,45.51,36.98,46.3,47"/><path d="M43.42,18.73c12.08-1.23,29.37-2.97,37.31-3.5c2.92-0.2,4.4,1.88,4.24,3.34c-0.58,5.34-2.22,17.69-3.69,26.02"/><path d="M62.4,17.58c-0.02,0.42,0.97,1.15,0.96,2.11c-0.04,6.31,0.19,21.5,0.19,23.78"/><path d="M45.82,31.68c3.47-0.26,33.91-2.85,36.77-2.85"/><path d="M46.86,45.09c6.64-0.34,23.95-2.71,34.52-2.86"/><path d="M37.5,59.28c0.16,0.59,0.17,0.99,0.25,1.72c0.72,6,1.38,20.96,1.8,32"/><path d="M38.27,60.19c5.75-0.6,15.62-1.62,19.92-2.21c1.58-0.22,2.38,1.52,2.3,3.13c-0.31,5.89-1.63,21.06-1.95,30.28"/><path d="M49.08,60.02c-0.01,0.46-0.02,1.26-0.02,2.32c-0.02,6.95,0.1,24.8,0.1,27.32"/><path d="M39.29,75.56c1.88-0.29,18.34-2.03,19.89-2.03"/><path d="M39.86,90.44c4.14,0,13-0.84,18.72-1"/><path d="M68.75,56.9c0.19,0.65,1.25,2.57,1.29,3.37c0.46,7.72,1.09,20.41,1.58,32.47"/><path d="M70.13,58.39c6.54-0.65,18.24-2.74,23.45-3.41c1.82-0.24,2.74,1.66,2.65,3.42c-0.36,6.43-2.3,23.47-2.68,33.55"/><path d="M82.59,56.71c-0.01,0.5-0.02,1.38-0.02,2.54c-0.02,7.59,0.12,27.09,0.12,29.85"/><path d="M71.32,73.2c2.16-0.32,21.14-1.72,22.92-1.72"/><path d="M71.97,90.05c4.77,0,14.55-0.46,21.14-0.64"/></svg>