<svg><path d="M28.95,14.5c0.11,1.14,0.2,2.56-0.1,3.96c-1.9,8.83-9.25,25.9-18.1,37.87"/><path d="M23.45,40.11c0.63,0.66,0.81,2.11,0.81,3.46c0,13.96-0.31,43.03-0.31,52.41"/><path d="M38.39,16.38c0.3,0.26,0.61,0.48,0.74,0.8c1.04,2.58,1.84,8.72,2.55,13.35"/><path d="M40.26,18.13c6.13-1.35,14.05-2.34,17.56-2.68c1.28-0.12,2.06,0.74,1.87,1.46c-0.76,3.02-2.15,5.67-3.28,9.84"/><path d="M42.27,29.26c4.13-0.38,10.66-1.55,16.33-2.14"/><path d="M67.11,15.49c0.3,0.28,0.61,0.51,0.75,0.85c1.05,2.74,1.86,7.81,2.58,12.73"/><path d="M69,16.36c7.5-1.37,14.75-2.02,18.3-2.38c1.3-0.13,2.08,0.78,1.89,1.55c-0.77,3.2-1.72,5.07-2.86,9.49"/><path d="M71.03,27.66c4.17-0.41,10.87-1.61,16.6-2.23"/><path d="M36.55,36.97c1.29,0.54,3.66,0.15,4.95,0.04c15.14-1.26,35.11-3.24,47.92-3.7c2.15-0.08,3.44,0.26,4.52,0.53"/><path d="M39.55,38.24c0.04,1.3-0.08,3.36-0.08,5.24c0,12.17-3.28,39.53-14.16,51.43"/><path d="M43.31,44.93c0.52,0.16,1.47,0.21,1.98,0.16c3.3-0.28,13.88-1.62,18.17-2.02c0.86-0.08,1.38,0.08,1.81,0.16"/><path d="M52.07,44.63c0.67,0.22,1.64,1.27,1.62,1.89c-0.05,1.96-0.05,5.29-0.05,7.08"/><path d="M41.35,54.68c0.6,0.23,1.71,0.31,2.31,0.23c6.81-0.83,15.74-2.4,22.38-2.78c1-0.06,1.61,0.11,2.11,0.23"/><path d="M46.05,57.08c0.22,0.43,0.56,0.43,0.56,1.14c0,0.71-0.11,25.77-0.11,28.33"/><path d="M46.92,64.49c2.18,0,10.53-1.71,14.26-1.71"/><path d="M46.7,74.46c2.7,0,10.22-1.57,14.15-1.57"/><path d="M40.19,88.34c0.19,0.52,2.09,0.81,2.75,0.53c7.29-3.07,13.45-5.78,18.57-8.09"/><path d="M60.96,54.8c0.22,0.57,0.56,0.43,0.56,1.14c0,0.71,0.11,35.47,0.11,41.32"/><path d="M76.17,41.68c0.02,0.63,0.15,1.67-0.05,2.54c-1.25,5.57-4.06,16.04-8.39,23.75"/><path d="M74.97,53.38c0.39,0.09,1.11,0.09,1.5,0.09c4.07-0.1,10.87-1.82,17.09-1.98c0.7-0.02,1.13,0,1.31,0.02"/><path d="M87.65,55.65c0.33,0.99,0.6,1.74,0.16,3.52C83.71,75.9,80.35,86.32,67.4,96.15"/><path d="M70.88,61.66C73.2,61.9,86.75,86.78,94.4,93.48c1.39,1.22,2.23,1.49,3.35,1.63"/></svg>