<svg><path d="M68.22,13.43c0,1.57-0.82,2.88-1.75,4.26C58.75,29.12,50.25,37.38,36,46.32"/><path d="M38.06,19.58c11.81,4.05,25.19,14.17,30.91,23.89"/><path d="M27.31,17.88c1.09,1.09,1.14,2.37,1.14,3.81c0,4.49-0.64,22.56-0.64,28.68c0,1.84,0.21,3.34,2.32,3.16c10.99-0.91,41.69-3.26,47.62-3.61"/><path d="M80.83,13.88c0.96,0.96,1.05,1.87,0.98,3.35c-0.14,3.28-1.56,21.02-3.24,36.65"/><path d="M43.74,57c0.08,0.92,0.14,1.88-0.15,3.21C41.25,71,33.12,86.5,16.17,96.17"/><path d="M58.99,55.87c1.01,1.01,1.31,2.25,1.31,3.93c0,8.19-0.03,19.14-0.03,24.7c0,9.75,1.98,11.53,16.85,11.53c12.75,0,16.87,0.36,17.51-9.12"/></svg>