<svg><path d="M75.19,10.5c0.13,0.41-1.03,2.12-1.77,2.66C63.75,20.25,52.75,23,25,28.04"/><path d="M26.5,39.1c0.5,0.47,1.02,0.86,1.24,1.45c1.75,4.66,3.34,12.53,4.54,20.91"/><path d="M29.64,40.71c12.36-1.96,43.17-5.03,49.55-5.69c2.33-0.24,3.73,2.43,3.4,3.85c-1.38,5.87-1.46,9.43-4.42,17.9"/><path d="M33.29,59.38C46.75,57.75,65.5,56.25,78.5,56"/><path d="M  52.27,22.83 c 0.98,0.92 1.67,1.99 1.76,5.02 0.39,14.56 -0.09945,22.954292 -1.370857,28.845477 -0.182401,0.845168 -1.206237,3.576175 -1.564455,4.690635 C 48.503945,69.44622 35.9,86.75 17.42,96.17"/><path d="M55.99,61.37c0.74,1.19,1.33,2.59,1.38,4.43c0.2,8.19-0.53,14.64-0.53,20.2c0,13,7.17,11.5,19.67,11.53c9.25,0.02,14.34-1.68,15.64-2.62c2.75-2,2.75-8.4,2.75-13"/><path d="M69.25,69.25c3.62,1.99,9.34,8.16,10.25,11.25"/></svg>