<svg><path d="M52.57,12.75c1.15,1.15,1.58,2.62,1.58,4.36c0,3.86-0.02,7.27-0.02,10.77"/><path d="M19.1,31.18c3.02,0.82,6.35,0.91,9.64,0.53c13.63-1.58,38.93-3.78,52.76-4.7c2.51-0.17,5.62-0.14,8.4,0.63"/><path d="M51.2,32.95c0.18,1.17-0.07,2.05-0.81,2.94C44.87,42.59,41,46.12,35.02,51.53c-2.31,2.08-2.18,4.59,1.39,3.88c11.47-2.29,21.72-4.41,35.6-7.33"/><path d="M62.38,38.5c5.85,2.91,15.1,11.97,16.57,16.49"/><path d="M44.73,63.08c0.12,1.43,0.03,2.57-0.37,3.95c-2.12,7.39-11.39,22.99-24.22,30.69"/><path d="M60.04,57.51c1.1,1.1,1.51,2.51,1.51,4.47c0,8.9-0.04,17.59-0.04,23.52c0,9.65,2,11.39,17.43,11.39c13.32,0,15.48-2.01,15.48-9.22"/></svg>