<svg><path d="M28.24,20.33c0.96,0.96,1.51,2.17,1.72,3.33c0.73,4.23,2.35,13.89,3.5,22.34c0.16,1.16,0.32,2.29,0.48,3.38"/><path d="M31.29,22.29C43.75,20.38,61,18.12,72,17c2.62-0.27,5,2.25,4.5,4.67c-0.99,4.8-4.27,14.16-5.61,19.85"/><path d="M34.5,45.88c6.96-0.45,23.37-2.05,34.45-3.18c1.48-0.15,2.8-0.07,4.17-0.13"/><path d="M43.49,53.25c0.26,1.38,0.2,2.51-0.15,4.1C41.56,65.48,32.5,84.25,17.75,94"/><path d="M55.99,48.12c0.88,0.88,1.74,2.63,1.74,4.64c0,6.72-0.12,16.9-0.12,25.23c0,14.25,0.63,15.23,16.89,15.23c16.87,0,17.63-1.72,17.63-11.85"/></svg>