<svg><path d="M37.51,21c0.07,0.62,0.15,1.61-0.14,2.49C35.25,29.88,31.62,37.38,24.5,45"/><path d="M38.13,32.04c1.5,0.09,3.95-0.16,4.64-0.22c6.48-0.57,20.36-1.82,27.82-2.94c1.65-0.25,3.66-0.13,5.16,0.27"/><path d="M52.81,12.38c1.28,1.28,2.01,3.12,2.01,4.75c0,0.75-0.05,31.92-0.07,32.87"/><path d="M15.88,53.26c3.42,0.98,7.15,0.5,10.62,0.22c15.99-1.3,38.99-3.55,59-4.4c2.94-0.13,5.84-0.03,8.75,0.47"/><path d="M45.18,55.68c0.32,1.45,0.15,2.48-0.15,3.85C43.24,67.65,35,86.62,20,96.38"/><path d="M60.49,53.62c1.07,1.07,1.38,2.71,1.38,4.98c0,7.78-0.22,14.88-0.22,21.89c0,15.14,1.1,16.04,15.85,16.04c14.62,0,15.64-1.78,15.64-11.29"/></svg>