<svg><path d="M39.5,17.25c1.12,1.12,1.6,3,1.62,4.81c0.5,41.19-0.38,59.94-15.88,73.69"/><path d="M19.25,34c5.25,2.75,11.12,7.38,13.5,11.5"/><path d="M15.38,72.64c1.49,0.72,2.49,0.24,3.62-0.58C20.56,70.92,31.84,61.49,38,56"/><path d="M58.49,11.37c1.2,1.2,1.38,2.84,1.38,4.68c0,9.95-0.03,56.89-0.03,62.45c0,15.62,3.04,16.78,20.17,16.78c14.12,0,16.39-1.78,16.39-10.62"/><path d="M84.76,23.64c0.04,0.38-0.06,1.28-0.34,1.79c-2.05,3.81-7.05,9.06-15.61,14.53"/><path d="M70.38,54.12C76.24,56.97,84.62,64.88,87,70"/></svg>