<svg><path d="M51.72,15.37c1.14,1.14,1.93,3.06,1.93,5.27c0,6.12,0.05,20.6-0.03,26.62"/><path d="M26.5,26.25c4.01,2.63,10.36,10.84,11.37,14.94"/><path d="M77.5,20.5c0.06,0.86,0.01,1.7-0.21,2.54c-1.08,4.25-5.38,12.46-11.17,17.59"/><path d="M16.13,51.48c2.19,0.54,5,0.65,8.38,0.29c15.8-1.67,41.61-4.89,58.84-5.73c3.64-0.18,5.83,0.26,7.65,0.53"/><path d="M45.5,53.5c0.25,1.25,0.23,2.35-0.13,3.62C42.38,67.62,37.75,81.25,22,91.75"/><path d="M58.74,51.37c0.68,1.19,1.21,2.59,1.25,4.43c0.11,4.82-0.02,13.81-0.02,21.2c0,13,1.28,14.53,17.78,14.53c14.5,0,15.89-2.03,15.89-8.62"/></svg>