<svg><path d="M49.17,13.46c0.05,0.21-0.78,1.62-1.1,1.85c-4.35,3.03-8.32,5.94-18.85,9.87"/><path d="M27.08,24.3c0.84,0.64,1.18,2.06,1.39,3.36c0.76,4.77,3.15,21.39,3.91,27.84"/><path d="M30.66,37.34c4.46-0.62,16.76-3.1,17.82-3.1c1.06,0,2.55,0,3.4,0"/><path d="M59.49,18.49c0.98,0.15,1.77,0.43,3.15,0.43c1.38,0,15.47-1.74,17.05-1.88c1.58-0.14,3.48,0.94,3.26,2.59c-1.21,9.11-2.76,23.64-3.94,30.59c-0.17,1.01,0,1.59-0.2,2.17"/><path d="M58.89,32.49c0.99,0.14,1.78,0.43,3.16,0.43c1.38,0,17.58-1.66,19.15-1.8"/><path d="M32.57,53.04c4.93-0.29,42.5-3.38,45.45-3.53"/><path d="M44.5,58.75c0.07,0.89,0.14,2.31-0.13,3.59c-1.61,7.56-10.08,25.61-23.45,34.33"/><path d="M58.99,54.62c0.74,1.19,1.33,2.59,1.38,4.43c0.2,8.19,0.16,20.14-0.03,25.7C60,94.75,63.25,96.28,78,96.28c15.5,0,16.39-2.28,16.39-9.12"/></svg>