<svg><path d="M25.37,14c0.81,0.81,1.21,2.25,1.21,3.5c0,0.85,0.02,18.41,0.03,29.12c0,2.16,0,4.01,0,5.38"/><path d="M45.74,16.05c0.79,0.79,1.31,2.22,1.31,3.3c0,2.48-0.01,19.6-0.02,27.77c0,1.37,0,2.5,0,3.25"/><path d="M47.72,17.44c1.93-0.12,19.5-2.2,26.03-2.95c3.12-0.36,5.12,1.39,4.79,4.77c-0.67,6.82-1.49,15.67-2.4,26.74c-0.1,1.17-0.19,2.37-0.29,3.59"/><path d="M48.12,33.08c4.26-0.46,22.63-2.08,28.16-2.15"/><path d="M47.98,48.71c7.4-0.46,19.24-1.13,27.04-1.63"/><path d="M39.25,60c0.06,0.82,0.14,2.12-0.13,3.3c-1.59,6.97-9.97,23.58-23.2,31.61"/><path d="M55.74,56.87c1.07,1.07,1.59,2.46,1.59,4.38c0,9.37-0.01,16.89-0.01,22.71c0,10.41,1.69,12.06,17.7,12.06c15.62,0,17.38-1.9,17.38-12.05"/></svg>