<svg><path d="M46.38,12.15c0.06,0.47,0.13,1.22-0.12,1.9c-1.47,4-9.93,12.79-21.51,18.17"/><path d="M48.33,15.7c2.69,0,14.69-1.77,17.52-2.04c2.43-0.23,3.19,2.44,2.17,3.57C63.75,21.98,57.75,28,51,35.6"/><path d="M27.5,37.6c0.5,0.47,1.02,0.86,1.24,1.45c1.75,4.66,2.31,10.32,3.51,18.69"/><path d="M30.64,39.21c12.36-1.96,40.17-5.53,46.55-6.19c2.33-0.24,3.73,2.43,3.4,3.85c-1.38,5.87-2.84,8.13-6.92,16.4"/><path d="M33.25,55.75c5-0.5,35.75-4.25,41.25-4.5"/><path d="M51.97,39.5c0.09,1.33,0.2,3.45-0.19,5.36c-2.27,11.31-12.02,40.07-32.12,52.31"/><path d="M55.49,59.37c0.74,1.19,1.33,2.59,1.38,4.43c0.2,8.19-0.53,14.14-0.53,19.7c0,13,8.9,12.03,17.67,12.03c9.25,0,15.34-1.68,16.64-2.62c2.75-2,2-3,2.25-6.5"/><path d="M70.5,64c3.35,1.94,8.66,7.98,9.5,11"/></svg>