<svg><path d="M50.75,9.75c0.11,1.02,0.41,2.7-0.21,4.09C46.75,22.25,33.75,41.5,13,53"/><path d="M51.5,12.86c5.63,6.2,29.88,26.44,36.08,30.98c2.11,1.54,4.81,2.2,6.92,2.64"/><path d="M38.25,40.89c0.64,0.26,1.81,0.33,2.45,0.26c4.07-0.45,21.88-3.44,25.82-3.14c1.06,0.08,1.7,0.12,2.24,0.25"/><path d="M22.25,54.75c0.75,1,1.25,2,1.5,3S24.1,95.25,24,97.5"/><path d="M25.25,55.69c1.67-0.14,17.01-2.55,18.25-2.71c2.23-0.28,3.07,1.85,2.79,2.71c-0.27,0.82-0.42,27.06-0.42,38.6c0,10.21-4.34,1.56-5.74,0.28"/><path d="M29.52,62.58c3.46,0.91,8.93,3.72,9.79,5.13"/><path d="M30.02,76.58c3.37,1.39,8.7,5.72,9.54,7.88"/><path d="M64.87,50.12c0.38,1.13,1.45,3.08,0.88,4.63C64,59.5,60,66,54.73,71.68c-1.45,1.56-0.02,2.55,0.38,2.87c6.4,5.2,9.4,10.7,13.4,21.45"/><path d="M81.87,48.87c0.38,1.13,1.45,3.08,0.88,4.63C81,58.25,77.5,64.75,72.23,70.43c-1.45,1.56-0.02,2.55,0.38,2.87c6.4,5.2,9.9,12.2,13.9,22.95"/></svg>