<svg><path d="M10.65,27.53c0.46,0.16,1.68,0.48,2.9,0.48c6.7-0.01,23.45-3.19,29.9-3.51c1.22-0.06,2.09,0.16,2.85,0.32"/><path d="M26.78,14.5c1.16,0.66,2.09,2.59,2.09,3.93c0,4.82-0.23,15.07-0.23,22.07"/><path d="M13.29,41.81c0.26,0.67,0.55,1.14,0.64,1.66c0.63,3.74,2.55,10.96,3.44,18.04"/><path d="M14.59,43.44c7.88-1.41,23.61-4.94,29.28-4.95c1.46,0,2.53,1.45,2.1,3.28c-1.07,4.61-2.36,9.17-3.45,14.88"/><path d="M18.26,59.96c7.44-1.08,18.49-2.34,25.57-2.75"/><path d="M24.58,62.5c0.04,0.8,0.09,2.06-0.09,3.21c-1.04,6.77-6.55,22.9-15.25,30.71"/><path d="M34.09,61.37c0.58,1.19,1.03,2.59,1.07,4.43c0.17,9.19-0.52,15.95-0.52,22.2c0,2,0.86,4.5,3.61,1.75c4.63-4.63,11.5-13,14.75-16.25"/><path d="M55.04,26.53c0.48,0.16,1.76,0.58,3.03,0.48c6.24-0.48,24.47-3.19,31.2-3.51c1.28-0.06,2.18,0.16,2.98,0.32"/><path d="M69.58,12.5c1.16,0.66,2.09,2.59,2.09,3.93c0,4.82-0.23,17.07-0.23,24.07"/><path d="M56.15,41.04c0.25,0.62,0.55,1.05,0.64,1.52c0.63,3.44,2.71,10.68,4.43,18.93"/><path d="M57.43,42.54c7.84-1.29,25.52-4.04,31.17-4.06c1.45,0,2.52,1.33,2.1,3.02c-1.06,4.24-2.35,8.43-3.44,13.69"/><path d="M61.59,58.24c7.41-0.99,19.92-2.16,26.96-2.53"/><path d="M67.63,60.75c0.06,0.82,0.12,2.12-0.11,3.3c-1.36,6.96-8.53,23.58-19.86,31.61"/><path d="M75.38,60.37c0.57,1.19,1.03,2.59,1.06,4.43c0.15,8.19-0.52,15.64-0.52,21.2c0,7.75,2.59,9.03,11.14,9.03c8.94,0,10.08-1.78,10.08-9.12"/></svg>