<svg><path d="M42.44,14.75c0.5,1.03,0.01,2.24-0.71,3.45C37.49,25.37,25.16,41.36,12.75,49"/><path d="M54.75,10.75c1.56,0.32,3.04,0.74,4.04,1.57c9.13,7.66,20.12,23.54,28.78,28.34c3.73,2.07,5.07,3.17,8.69,3.84"/><path d="M32.04,38.25c0.77,0.29,2.18,0.32,2.95,0.29c5.96-0.26,26.2-2.94,34.77-3.33c1.28-0.06,2.05,0.14,2.69,0.28"/><path d="M44.87,40.55c0.42,0.78,0.66,1.79,0.08,2.92c-1.61,3.13-5.24,10.42-7.37,13.56c-1.21,1.78-0.39,3.42,2.53,2.91c5.29-0.93,21.4-4.57,28-5.43c3.41-0.44,4.11,0.2,3.47,4.44C70,69.5,64.5,84.5,57.64,93.31c-4.1,5.27-5.39,0.94-7.77-1.95"/></svg>