<svg><path d="M33.34,17.63c1.08,1.08,1.3,2.54,1.3,3.9c0,4.34,0.06,27.34,0.07,36.85c0,1.67,0,2.92,0,3.58"/><path d="M35.45,20.05c5.55-0.8,30.33-4.1,33.59-4.31c3.63-0.23,4.97,1.38,4.97,4.51c0,6.29-0.12,21.37-0.14,33.62c0,1.63,0,3.21,0,4.71"/><path d="M35.89,33.24C46.25,32,66.25,30.25,73,29.75"/><path d="M36,46.5c14.25-1.25,26.74-2.7,36.75-3.25"/><path d="M36,58.75C44,58,61.5,56.5,72.5,55.5"/><path d="M15.75,71.7c3.75,0.68,8.42,0.66,12.39,0.26c12.76-1.28,39.61-3.71,55.24-4.05c3.49-0.08,7.12-0.03,10.62,0.63"/><path d="M41.25,77.14c0.13,0.98,0.04,1.84-0.54,2.64c-2.83,3.97-10.08,10.09-20.9,15.68"/><path d="M67.25,78c6.46,2.91,15.62,11.25,18.31,16.47"/></svg>