<svg><path d="M24.5,39.15c2.5,0.6,4.91,0.49,7.21,0.13c9.36-1.44,35.65-5.22,47.54-6.09c2.49-0.18,5.03-0.36,7.49,0.18"/><path d="M39.12,18.5c0.88,0.88,1.64,2.23,1.71,3.25c0.55,8.5,1.42,30,1.92,38.25"/><path d="M66.62,12.75c0.88,0.88,1.5,2.23,1.46,3.25c-0.58,13.75-1.33,26.75-1.83,42"/><path d="M13.5,63.23c2.26,0.74,6.41,0.99,8.65,0.74c15.72-1.72,47.22-6.16,66.07-6.83c3.76-0.13,6.02,0.35,7.9,0.73"/><path d="M42,72.14c0.05,0.57,0.11,1.46-0.1,2.28c-1.27,4.8-9.65,13.33-18.59,21.05"/><path d="M68.5,72.62c6.99,4.25,18.06,17.48,19.81,24.09"/></svg>