<svg><path d="M63.53,13c-0.03,1-0.73,2.17-1.42,2.86c-6.96,7.1-13.96,11.56-27.87,18.68"/><path d="M33.18,34.33c1.06,1.06,1.62,2.26,1.77,4.07c0.55,6.7,1.65,21.04,2.3,27.54"/><path d="M36.53,41.82c9.72-1.17,28.09-4.32,39.51-6.15c1.75-0.28,4.85-0.44,5.96-0.25"/><path d="M67.87,41.47c0.63,1.03,0.81,2.14,0.57,3.32c-0.7,3.46-1.95,8.21-3.95,16.88"/><path d="M14.75,67.5c2.48,0.72,7.04,1,9.5,0.72c17.37-1.98,35.35-3.97,60.95-5.44c4.12-0.24,7.55-0.16,10.67,0.63"/><path d="M42.66,76.5c0.07,0.51,0.04,1.48-0.39,2.06C36.91,85.79,28.98,92.42,15,98.25"/><path d="M67.25,76.5c7.88,4.25,19.38,14,22.56,20.22"/></svg>