<svg><path d="M25.22,31.84c0.97,0.97,1.46,2.71,1.58,4c0.33,3.53,3.63,34.81,3.63,35.46"/><path d="M27.23,33.41c4.5-0.49,43.47-3.96,52.29-4.8c3.65-0.35,5.9,0.52,5.28,4.65c-0.87,5.77-3.43,20.11-5.2,34.53"/><path d="M42.47,16.98c1.28,0.89,1.77,2.6,1.8,3.44c0.48,17.45,1.36,39.95,1.71,49.4"/><path d="M65.06,13.25c0.84,0.84,1.38,2.37,1.29,3.69c-1.73,25.81-2.32,34.68-3.51,52.09"/><path d="M29.59,52.34c15.66-1.47,42.41-3.97,51.5-4.23"/><path d="M15.75,72.45c2.21,0.54,6.28,0.75,8.49,0.54C41.38,71.38,73,69.12,88,68.51c3.69-0.15,5.9,0.26,7.75,0.53"/><path d="M41.97,78.64c0.09,0.54-0.2,1.21-0.67,1.92C38.38,85,31.88,90.5,20.17,97.08"/><path d="M64.88,78.62C73.14,81.68,86.23,91.23,88.29,96"/></svg>