<svg><path d="M20.25,17.75c0.74,1.25,0.99,2,0.99,4c0,2.26,0.25,69.5,0.25,73.25"/><path d="M21.23,20.25c9.43-1,61.18-5,63.07-5c6.45,0,5.46,3.25,5.46,7.75c0,2.5,0.25,60.5,0.25,66.25c0,10.75-5.26,4.5-8.71,1"/><path d="M43.91,21.35c0.06,1.15,0.45,1.11,0.43,2.44c-0.09,6.71-4.59,17.96-12.26,23.37"/><path d="M60.41,20.37c0.42,0.77,0.76,1.67,0.78,2.86c0.11,5.28-0.3,10.42-0.3,14.01c0,8.39,5.08,7.44,10.07,7.44c5.27,0,8.74-1.08,9.48-1.69c1.57-1.29,1.14-1.94,1.28-4.2"/><path d="M39,57.64c0.42,0.39,0.85,0.72,1.04,1.21c1.46,3.9,2.71,14.65,3.71,21.65"/><path d="M41.63,59.28C50.25,58,63.25,56,68.19,55.49c1.8-0.19,2.89,1.11,2.63,2.21c-1.18,5.03-1.94,10.52-3.41,16.35"/><path d="M43.95,77.58c5.8-0.58,17.3-1.58,25.27-2.47"/></svg>