<svg><path d="M27.19,18.64c0.84,0.83,1.53,2.36,1.53,4.53c0,2.26-0.04,48.62-0.05,65.7c0,3.36,0,5.59,0,6.12"/><path d="M29.71,21.29c7.38-0.96,41.79-4.54,48.31-5.3c3.17-0.37,5.05,0.76,5.05,4.13c0,2.01-0.58,61.86-0.58,67.38c0,8.88-4.41,3.16-6.88,0.69"/><path d="M45.37,22.5c0.81,0.81,1.21,2.25,1.21,3.5c0,0.69,0.05,43.47,0.04,59.25c0,3.4,0,5.55-0.01,5.75"/><path d="M62.12,20.5c0.75,0.75,1.21,1.75,1.21,3.25c0,2.65,0.05,44.8,0.04,61c0,3.7,0,6.04-0.01,6.25"/><path d="M12.5,53.45c3.02,1.08,7.1,0.72,10.25,0.43c16-1.5,45-3.38,66.87-4.03c2.67-0.08,5.75,0.14,8.38,0.7"/></svg>