<svg><path d="M23.75,14.25c0.75,1.25,1.89,3.12,2,4c0.85,6.58,2.42,17.98,3.5,25.25"/><path d="M25.75,16.34C35.94,15.37,73.5,12.5,78,12c2.78-0.31,5.25,2.91,5,4.25c-1.03,5.45-2.54,17-3.8,23.75"/><path d="M34.75,26.65c0.65,0.21,3.08,0.56,3.73,0.48C44,26.5,60.5,24.5,68.22,24c1.09-0.07,3.24,0.45,3.78,0.56"/><path d="M35.5,39.56c0.65,0.24,2.74,0.37,3.39,0.38c5.47,0.04,28.15-3.03,30.59-2.86c1.08,0.07,2.48,0.42,3.02,0.54"/><path d="M32.75,50.5c1.03,0.69,1.5,2.72,1.5,3.5c0,5.25,0.39,43.43,0.25,45"/><path d="M35.28,52.33c3.04-0.21,32.44-3.41,34.7-3.62c4.05-0.39,5.08,1.94,5.08,3.05c0,2.49-0.08,25.46-0.08,38.8c0,10.69-7.01,2.52-8.03,1.71"/><path d="M36.83,64.54c10.32-1,27.19-2.52,36.26-3.07"/><path d="M35.75,76.71c8.29-0.59,27.92-2.47,37.5-2.92"/></svg>