<svg><path d="M19,16.62c-0.12,4.66-2.98,16.85-4,19.62"/><path d="M20.47,19.44c12.4-0.82,45.24-4.46,64.51-4.69c10.4-0.13,3.52,6.12-0.71,9.87"/><path d="M40,37c8-1,16.75-2.25,24.5-3.5c2.47-0.4,4-0.25,5.25,0"/><path d="M39.75,25.25c1,1.5,1.16,3.47,0.75,5.82c-1,5.68-2.62,10.93-4.25,17.4c-1.09,4.33-0.52,4.94,4.25,3.92c7.62-1.63,16.5-3.26,25.5-4.06c3-0.27,4.91,1.94,4.5,5.1c-2,15.33-6.25,30.58-11.25,37.54c-5.06,7.05-8.35,3.92-14-0.68"/><path d="M13.25,68.45c4.88,1.05,8.87,0.83,13,0.31c16.25-2.01,38.75-5.44,55.49-5.7c4.38-0.07,8.28,0.18,12.01,0.98"/></svg>