<svg><path d="M20.91,13.63c0,3.48-3.03,13.05-4.41,15.37"/><path d="M20.24,17.74c9.51-0.99,58.74-5.53,66.45-5.9c12.05-0.59,2.55,7.16-0.45,9.28"/><path d="M46.5,23.46c0.04,0.25,0.17,0.73-0.08,1c-3.32,3.57-7.2,6.75-14.77,9.58"/><path d="M28.62,34.04c0.7,0.55,0.98,1.77,1.15,2.88c0.63,4.09,2.62,13.05,3.25,18.58"/><path d="M31.38,41.72c1.65-0.12,9.12-1.97,13.77-2.74c0.81-0.13,2.97-0.5,3.62-0.5"/><path d="M57.51,26.6c0.85,0.13,1.53,0.39,2.71,0.39c1.18,0,13.72-2.04,15.07-2.17c1.36-0.13,2.48,0.64,2.37,1.41c-1.02,7.44-2.89,24.39-3.06,24.9"/><path d="M56.49,37.49c0.82,0.12,1.97,0.37,3.12,0.37c1.15,0,15.45-1.49,16.76-1.62"/><path d="M33.19,53.89c6.31-0.89,35.06-4.14,40.88-4.24"/><path d="M39,56c0.06,0.47-0.18,1.82-0.63,2.39C35,62.75,28.25,70,16.75,76.01"/><path d="M36.5,63.69c1.25,0.37,3,0.49,5,0.24s34.75-4.96,39.75-4.94c3.5,0.01,4.14,2.14,3.75,4.79c-1,6.72-4.16,22.43-10.5,31.21c-2.29,3.17-3.5,2.51-7-1.1"/><path d="M27.84,77.78c0,5.15-5.02,12.75-6.34,14.22"/><path d="M37.75,74.8c2.1,2.7,4.09,10.12,4.62,14.32"/><path d="M50.68,72.83c2.48,2.05,6.4,8.41,7.02,11.59"/><path d="M64.29,70.41c2.57,1.85,6.63,7.63,7.27,10.51"/></svg>