<svg><path d="M20.91,15.63c0,3.48-3.03,13.05-4.41,15.37"/><path d="M21.24,17.24c9.51-0.99,56.24-2.53,63.95-2.9c12.05-0.59,2.55,7.16-0.45,9.28"/><path d="M  28.39074,25.402849 c 0.96,0.26 2.16,0.22 2.99,0.14 3.083623,0.03528 31.34935,-3.628723 35.62871,-4.230953 2.46,-0.17 3.13,1.75 3,2.94 -0.36,3.15 -1.6,10.91 -4.41,15.01 -3.74,5.47 -4.36,1.54 -5.72,0.16"/><path d="M 41.230741,26.656067 c -0.04012,2.32286 -1.873232,6.677289 -3.685362,9.131202 -2.262277,3.063483 -11.132862,11.90212 -16.00572,15.97012"/><path d="M 26.830802,49.142979 c 0.57,0.43 1.15,0.79 1.4,1.33 1.329046,4.740715 1.63857,9.157378 2.257497,16.717259"/><path d="M 29.169014,48.760238 c 13.89,-1.79 38.680347,-4.54 45.850347,-5.15 2.62,-0.22 4.19,2.22 3.82,3.52 -1.55,5.36 -3.14,10.89 -4.78,15.47"/><path d="M 31.458061,66.401787 c 5.62,-0.46 35.38987,-4.921549 41.56987,-5.151549"/><path d="M52.23,49.85c0.09,1.13,0.12,2.91-0.18,4.56c-2.02,11.16-11.2,35.66-31.38,44.5"/><path d="M53.99,65.48c0.74,0.96,1.33,2.1,1.38,3.59c0.2,6.64-0.53,13.48-0.53,18c0,10.55,8.9,9.76,17.67,9.76c9.25,0,15.34-1.36,16.64-2.13c2.75-1.62,2-2.43,2.25-5.28"/><path d="M70,72.24c2.47,2.1,6.38,8.66,7,11.93"/></svg>