<svg><path d="M22,18.12c0,4.22-3.61,15.81-5.25,18.62"/><path d="M22.49,21.24c9.51-0.99,46.88-4.11,62.88-4.59c10.67-0.52,2.26,6.09-0.4,7.97"/><path d="M26.93,38.83c1.23,0.76,3.36,0.6,4.7,0.47c3.89-0.37,8.7-1.04,13.5-1.95c1.17-0.29,2.32-0.27,3.47,0.06"/><path d="M20.71,56.42c1.67,0.46,3.75,0.26,5.15,0.08c6.01-0.77,13.39-2.24,23.27-3.15c1.6-0.15,3.38-0.2,4.92,0.3"/><path d="M33.44,59.2c0.18,1.05,0.32,2.09-0.03,3.35C30.75,72,27.12,84.75,14.5,96"/><path d="M42.45,57.12c1.09,1.09,1.25,2.5,1.25,4.66c0,6.81,0,14.22,0,22.22c0,12.38,0.04,11.87,22.91,11.87c22.63,0,24.63-1.74,24.63-12.69"/><path d="M57.29,47.81c2.21,0.57,4.58,0.38,6.33,0.15c7.15-0.91,17.19-2.28,24.51-2.91c1.73-0.15,3.4-0.37,5.09,0.16"/><path d="M79.59,30.83c0.79,0.79,1.21,1.79,1.21,3.34c0,13.29,0.05,43.57,0.05,46.8c0,7.84-5.48,1.77-7.39,0.16"/><path d="M62.52,57.28c2.06,1.75,5.32,7.19,5.83,9.92"/></svg>