<svg><path d="M21.41,14.13c0,4.22-3.53,15.81-4.91,18.62"/><path d="M21.24,17.89c1.39,0.04,55.74-4.62,62.95-5.05c12.05-0.71,2.55,8.68-0.45,11.25"/><path d="M21.85,39.64c1.68,0.73,4.78,0.94,6.46,0.73c14.69-1.87,37.25-5.22,52.45-6.1c2.82-0.16,5.34-0.43,6.74-0.06"/><path d="M52.28,37.42c0.08,0.53,0.16,1.36-0.15,2.12C50.25,44,39.46,53.79,24.71,59.78"/><path d="M49.2,47.74C55.5,57.5,60.75,75,56.89,93.15c-1.61,7.57-8.32-0.15-9.38-0.95"/><path d="M50.38,53.63c0.08,0.53,0.16,1.38-0.15,2.15C48.37,60.3,37.7,70.23,23.1,76.31"/><path d="M53.45,65.88c0.08,0.66,0.18,1.71-0.17,2.65c-2.04,5.6-14.84,16.37-30.89,23.89"/><path d="M77.29,43.97c0.04,0.34-0.34,1.42-0.58,1.88c-2.46,4.64-9.15,10.84-16.91,14.77"/><path d="M55.43,60.07c4.9,4.07,26.38,23.33,31.7,27.33c1.8,1.36,3.35,1.94,5.15,2.33"/><path d="M33,64.5c3.71,1.81,9.57,7.44,10.5,10.25"/></svg>