<svg><path d="M20.91,12.13c0,3.48-3.03,13.05-4.41,15.37"/><path d="M20.74,14.47c8.83-0.94,56.46-4.78,63.63-5.14c11.2-0.55,2.37,6.78-0.42,8.78"/><path d="M26.5,24.56c1.29,0.41,2.8,0.49,4.1,0.41c11.9-0.75,28.15-3.72,42.12-4.63c2.15-0.14,3.45,0.19,4.53,0.4"/><path d="M39.25,16.64c1.75,0.85,2.42,2.08,2.5,2.63c0.75,5.49,1,6.49,1.25,9.79"/><path d="M63.1,15.37c0.35,0.74,0.51,1.22,0.42,2.19C63,23,62,26,61.25,28.66"/><path d="M29.52,31.57c0.48,0.42,1.85,2.28,1.94,2.83c0.65,4.2,3.14,16.2,3.3,16.76"/><path d="M32.25,33.29c7.32-0.78,38.99-3.73,41.47-3.81c2.07-0.07,3.33,1.93,3.24,2.36c-0.67,3.35-2.77,12.07-3.91,15.52"/><path d="M32.73,40.5c5.77-0.36,38.3-3.23,42.48-3.23"/><path d="M34.43,48.52c9.82-1.03,29.07-2.44,38.43-2.69"/><path d="M16.38,59.11c1.96,0.43,4.15,0.2,5.43,0.12c23.69-1.48,46.2-4.66,64.87-5.67c1.62-0.09,4.82-0.06,6.32,0.41"/><path d="M46.64,50.04c-0.09,0.99,0.31,1.41-0.13,2.2c-6.3,11.35-15.98,20-31.51,27.8"/><path d="M62.5,55.85c7,3.4,22.35,13.85,28.95,16.61c2.25,0.94,3.03,1.08,4.05,1.17"/><path d="M31.99,72.67c0.45,0.24,0.91,1.83,1,2.32c0.09,0.49,2.44,16.79,2.35,19.84"/><path d="M33.89,75.12c3.64-0.2,37.21-4.2,39.92-4.32c3.19-0.14,3.72,1.42,3.76,2.71c0.22,7.12-1.38,13.19-2.93,17.46c-1.62,4.49-3.79,0.63-5.32-0.94"/><path d="M52.88,62.2c0.52,0.28,1.64,2.12,1.74,2.69c0.11,0.57-0.07,32.57-0.17,36.11"/></svg>