<svg><path d="M15.29,22.25c3.99,1.93,10.3,7.92,11.29,10.91"/><path d="M12.48,84.67c2.02,0.83,4.14-0.14,5.13-2c2.64-4.92,5.89-12.67,9.66-24.01"/><path d="M36.01,18.44c1.01,0.33,2.85,0.39,3.85,0.33c9.7-0.6,35.97-3.74,45.52-3.74c1.68,0,2.68,0.16,3.52,0.32"/><path d="M53.02,21.57c0.87,1.58,0.89,4.63,0.44,7.11c-2.18,11.85-7.26,27.83-9.99,36.89c-0.76,2.53-0.57,4.15,2.28,3.93C55.5,68.75,63,68,72.2,67.7"/><path d="M49.87,43.91c8.13-1.16,24.68-2.5,27.03-2.74c2.84-0.3,3.36,1.81,2.66,3.87C76,55.5,72,69.5,67.18,91.09"/><path d="M28.75,93.68c1.3,0.56,3.68,0.61,4.98,0.56c13.77-0.52,46.07-4.56,59.72-3.77c2.16,0.12,3.47,0.27,4.55,0.55"/></svg>