<svg><path d="M16.29,20.5c3.99,1.93,10.3,7.92,11.29,10.91"/><path d="M11.23,79.92c2.02,0.7,3.64,0.11,4.63-1.75c1.64-3.05,6.89-13.55,11.66-23.26"/><path d="M37.97,18.44c3.03,0.81,5.91,0.67,8.54,0.42c8.81-0.83,22.92-2.85,32.87-3.5c2.6-0.17,5.16-0.36,7.7,0.3"/><path d="M48.17,23.53c0.46,1.22,0.53,2.36,0.18,4.34c-1.23,7-2.73,13.37-4.09,19.12"/><path d="M35.25,47.5c3.38,0.96,6.7,0.99,10.13,0.54c13.5-1.79,30-3.17,40.36-3.72c3.78-0.2,6.48-0.13,10.08,0.79"/><path d="M72.01,19.13c1.18,1.18,1.39,2.37,1.39,4.66c0,14.94,0.02,62.48,0.02,67.57c0,10.17-6.56,1.79-7.92,0.5"/><path d="M70.54,46.48c0,1.02-0.33,2.08-0.78,3.01C65.18,58.93,50.7,75.16,31,85.75"/></svg>