<svg><path d="M18.92,22.75c4.56,1.97,11.78,8.1,12.92,11.16"/><path d="M14.23,84.74c1.77,1.01,3.1,0.25,4.24-1.5c6-9.21,7.78-12.37,13.3-22.08"/><path d="M65.73,15.75c0.4,1.5,0.4,3.08-0.71,4.92c-5.52,9.2-11.27,18.58-16.9,26.6c-2.77,3.96-2.26,4.69,2.17,3.79c11.46-2.32,20.61-4.13,36.21-7.2"/><path d="M79.21,32.57C84.43,36.04,92.7,46.83,94,52.22"/><path d="M48.25,63.88c0.94,0.94,1.5,2.12,1.73,3.76c0.96,6.75,1.66,13.47,2.38,19.74c0.2,1.75,0.4,3.46,0.61,5.12"/><path d="M50.51,66.04c13.24-1.67,25.03-2.63,32.73-3.56c3.59-0.44,5.88,1.01,4.9,4.78c-1.62,6.23-2.81,11.98-4.41,19.77"/><path d="M54.42,90.08c8.28-0.55,16.35-1.12,26.45-1.71c1.87-0.11,3.81-0.22,5.83-0.33"/></svg>