<svg><path d="M14.54,22c4.08,1.66,9.46,5.88,11.04,9.16"/><path d="M13.23,83.67c2.27-0.17,3.59-1.05,4.38-3C19.5,76,22.25,67.5,26.77,55.17"/><path d="M36.75,22.64c2.9,0.47,5.77,0.22,8.63-0.25c8.02-1.06,21.72-2.82,29.73-3.36c2.81-0.31,5.61-0.23,8.39,0.24"/><path d="M41.39,32.62c2.56,1,5.1,0.95,7.74,0.59c8.36-1.15,18.84-2.85,27.61-3.61c2.96-0.25,5.11,0.24,4.28,3.83c-1.52,6.57-2.08,9.67-3.47,18.37"/><path d="M29.64,44.63c3.29,0.53,6.58,0.32,9.88-0.13c15.62-1.71,33.61-4,47.86-5.08c3.11-0.24,6.17-0.29,9.23,0.41"/><path d="M39.68,54.75c2.32,0.48,4.64,0.55,6.95,0.23c8.06-0.81,18.9-2.12,26.14-2.63c2.31-0.22,4.62-0.24,6.93-0.04"/><path d="M58.87,10.25c0.94,0.94,1.46,2.38,1.46,3.5c0,1.02,0,33-0.22,39.25"/><path d="M58.46,56.87c0,1.26-0.1,2.23-0.75,3.43c-2.08,3.83-5.73,11.95-12.46,18.88c-2.5,2.58-2.25,2.54,0.75,2.78c10.29,0.83,20.27,4.43,28.44,11.62c2.15,1.89,4.18,4.27,6.06,6.63"/><path d="M74.62,64.49c0,1.38,0.02,2.91-0.51,4.1C69.25,79.5,58.5,92.12,31.5,99"/><path d="M29.38,69.06c3.77,0.42,7.51,0.24,11.27-0.17c11.16-1.2,30.97-3.42,46.73-3.72c2.98-0.16,5.94,0.07,8.88,0.69"/></svg>