<svg><path d="M16.79,18.25c4.87,1.75,12.58,7.19,13.79,9.91"/><path d="M14.48,84.17c2.02,0.58,3.31,0.14,4.63-1.5C22.5,78.5,27.5,69.5,33.27,59.67"/><path d="M64.15,9.92c0.99,0.58,2.62,2.86,2.62,4.06c0,4.42-0.12,6.52-0.12,10.57"/><path d="M38,27c1.21,0.07,3.97,0.48,5.16,0.39C55,26.5,79.9,22.5,91.26,22.09c2-0.07,3.02-0.04,4.51,0.56"/><path d="M46.61,39.32c0.56,0.39,1.27,0.67,1.39,1.2c0.85,3.82,2.03,11.74,3.28,18.98"/><path d="M48.47,41.11c8.49-1.49,29.03-3.5,34.8-4.11c2.39-0.25,4.1,1.58,3.14,4.5c-1.07,3.25-1.86,8.75-3.35,13.25"/><path d="M51.67,58.03C61.25,57.25,75,55.5,85.47,55"/><path d="M66.42,59.33c0.08,0.5,1.5,2.61,1.63,5.78c0.21,5.13-0.23,24.23-0.23,28.65c0,9.47-6.47,0.52-7.82-0.79"/><path d="M50.7,70c0.04,0.46,0.08,1.19-0.08,1.85C49.7,75.74,44.5,83,37.14,89.5"/><path d="M81.76,69.25C87.13,73.04,94.55,83.6,95.9,89.5"/></svg>