<svg><path d="M17.5,24.5c3,1.85,7.75,7.62,8.5,10.5"/><path d="M14.25,82.21C16,83,17.56,82.32,18.5,80.7c2.75-4.7,10-18.95,12.5-24.95"/><path d="M43.94,23.95c2.05,0.8,4.58,0.34,6.69,0.09c6.54-0.76,16.45-2.22,23.63-2.81c2.07-0.17,4.26-0.47,6.31,0.01"/><path d="M59.87,11.37c1.07,1.07,1.55,2.08,1.55,3.71c0,5.12-0.03,12.9-0.03,20.61"/><path d="M36.01,38.82c3.12,0.8,6.14,0.34,8.63,0.02c11.93-1.53,28.79-3.61,40-4.58c2.83-0.25,5.61-0.69,8.36,0.23"/><path d="M53.38,41.25c0.11,1.01-0.05,1.96-0.5,2.86c-1.66,4.01-5.39,10.14-13.36,14.81"/><path d="M68.6,38.37c0.89,0.89,1.06,1.63,1.06,3.08c0,1.68-0.03,3.69-0.03,5.68c0,3.25,1.12,4.94,10.1,4.94c5.43,0,9.26-1.1,10.02-1.44"/><path d="M55.23,56.5c0.13,1.22-0.15,2.49-0.77,3.61c-2.99,5.42-8.85,14.25-19.76,22.53"/><path d="M56.92,62.17c1.95,0.21,3.82,0.06,5.75-0.51c4.33-1.28,9.02-2.44,12.15-3.14c2.76-0.61,3.79,1.2,3.09,2.86C74.04,70.48,54.87,91.64,35.33,98"/><path d="M51.13,68.14c7.37,5.23,22.74,16.48,34.19,23.59c2.38,1.48,5.31,2.9,9.18,4.02"/></svg>