<svg><path d="M15.25,25.75c3.18,1.5,8.21,6.17,9,8.5"/><path d="M13.75,86.56c1.62,0.44,2.67-0.15,3.49-2.04c2.76-6.39,5.16-12.83,7.51-19.76"/><path d="M37.62,26.64c2.38,0.23,5.19-0.06,7.42-0.39c9.38-1.39,20.55-3.46,29.97-4.26c2.39-0.2,4.88-0.52,7.23,0.14"/><path d="M36.53,38.78c0.97,0.97,1.34,1.6,1.71,2.96c0.18,0.68,2.7,13.52,3.91,19.44c0.35,1.71,0.73,3.4,0.88,4.31"/><path d="M38.76,40.33c10.05-1.95,28.99-5.08,40.37-6.17c2.83-0.27,5.25,0.87,4.81,3.99c-0.81,5.79-2.04,10.95-3.48,18.65c-0.31,1.64-0.88,3.39-1.23,5.27"/><path d="M41.14,51.13c13.11-2.25,30.11-4.5,40.37-5.13"/><path d="M43.86,63.18c10.52-1.68,24.77-3.68,35.26-4.46"/><path d="M58.8,9.5c1.22,1.22,1.57,2.62,1.57,4.42c0,0.71,0.04,55.34,0.03,77.71c0,5.58,0,9.15-0.01,9.38"/><path d="M57.4,62.03c0,1.34-1.42,3.65-2.69,5.58c-6.58,10.01-13.46,18.01-24.8,25.62"/><path d="M60.95,61.53C69,70.12,78.21,79.3,85.27,85.35c2.81,2.41,5.88,4.75,9.32,6.19"/></svg>