<svg><path d="M15.54,22.25c3.37,1.84,8.7,7.55,9.54,10.41"/><path d="M12.98,80.32c2.02,1.05,3.38,0.11,4.56-1.75c1.15-1.8,7.77-13.67,11.99-23.66"/><path d="M60.89,9.5c1.18,1.18,1.3,2.25,1.3,3.87c0,3.07-0.07,3.45-0.07,6.01"/><path d="M34.42,21.21c3.57,0.7,7.01,0.64,10.6,0.32c11.49-1.03,26.45-2.15,37.86-2.75c3.33-0.18,6.52-0.63,9.71,0.56"/><path d="M41.62,29.12c0.95,1,1.2,2.12,1.4,3.35c0.72,4.33,1.62,10.71,2.53,18.02c0.23,1.87,0.46,3.79,0.69,5.76"/><path d="M43.49,30.86c11.8-1.13,32.21-3.29,41.27-3.57c3.47-0.11,4.59,1.45,4.05,4.64c-0.74,4.4-1.85,9.73-3.06,15.25c-0.39,1.77-0.79,3.56-1.19,5.34"/><path d="M53.52,37.05c0.59,0.59,0.86,1.2,1.07,1.96c0.37,1.37,0.81,3.41,1.19,5.36c0.27,1.37,0.51,2.69,0.7,3.69"/><path d="M55.15,38.25c3.65-0.52,12.12-1.7,16-2.11c1.76-0.19,3,0.07,2.56,2.01c-0.41,1.84-0.88,3.44-1.46,5.68"/><path d="M57.39,46.4c2-0.31,8.4-0.96,13-1.42c1.62-0.16,3.01-0.31,3.9-0.41"/><path d="M47.09,54.73c11.79-1.36,26.23-2.82,37.03-3.41"/><path d="M79.03,55c0,1.19-1.31,1.86-2.21,2.35c-4.75,2.59-16.33,6.02-34.44,9.35"/><path d="M34.32,72.94c3.43,1.44,6.46,0.77,9.66,0.37c9.92-1.23,29.12-3.38,40.9-4.49c3.49-0.33,6.95-0.89,10.34,0.27"/><path d="M63.15,64.98c0.81,0.81,1.06,1.77,1.06,3.13c0,3.54-0.04,14.27-0.07,22.02c-0.01,2.96-0.02,5.48-0.02,7"/><path d="M61.25,72.01c0,0.87-0.85,2.48-2.01,3.71c-6.88,7.35-16.46,14.33-27.11,18.96"/><path d="M64.86,72.61c2.99,2.33,13.84,11.16,20.35,16.18c2.29,1.76,4.71,3.11,7.29,4.38"/></svg>