<svg><path d="M14.28,22.75c2.62,1.8,6.76,7.4,7.41,10.21"/><path d="M10.5,84.89c2,1.61,3.6,0.58,4.54-1.5c0.92-2.02,5.96-16.43,9.46-26.68"/><path d="M52.01,16.75c0,0.88-0.51,1.5-1.22,1.93c-2.35,1.43-7.04,4.11-12.04,5.32"/><path d="M35.18,11.75c0.78,0.79,1.06,1.62,1.06,2.68c0,0.54-0.12,14.67-0.12,16.32c0,4.87,1.12,5.82,8.44,5.82c7.43,0,8.65-1.2,8.65-5.15"/><path d="M37.4,42.96c0.02,0.46,0.12,1.21-0.08,1.85c-1.32,4.31-3.57,10.31-7.98,16.84"/><path d="M36.19,53.79c0.77-0.08,1.86,0.02,3.12-0.18c3.75-0.58,8.84-1.76,12.37-2.17c1.24-0.15,2.03-0.19,2.66-0.08"/><path d="M28.94,68.52c1.27,0.6,3.48,0.43,4.81,0.19c6.36-1.15,12.7-3.02,17.87-3.79c1.78-0.26,2.9-0.47,4.64,0"/><path d="M43.17,54.48c0.61,0.61,0.66,1.63,0.54,2.74C42,73.75,37.25,84.25,27.36,91.91"/><path d="M43.62,72.25c3.67,2.12,6.2,7.07,7.78,10.6"/><path d="M58.73,17.74c1.14,0.9,3.74,0.48,5.11,0.18c5.26-1.12,19.52-4.17,21.37-4.48c2.18-0.36,3.46,1.45,2.54,3.02c-0.92,1.56-9.36,11.17-10.73,12.61"/><path d="M70.85,27.73c1.69,0.72,6.45,3.79,7.24,5.67"/><path d="M57.75,40.32c1.87,0.56,3.92,0.51,5.55,0.25c9.28-1.49,12.78-2.7,23.38-4.8c6.4-1.27,1.07,4.86-0.65,6.77"/><path d="M73.91,41.16c0.84,0.84,1,1.84,1,3.15c0,0.67-0.03,30.13-0.03,35.69"/><path d="M75.26,61.4c4.53-0.49,6.75-0.99,13.58-1.98c1.1-0.16,1.38-0.16,2.08,0"/><path d="M63.77,56.11c0.61,1.02,0.58,2.37,0.42,3.55c-0.95,6.96-4.37,23.98-13.81,31.66"/><path d="M62.29,69.47c3.59,2.99,16.46,14.79,23.73,20.88c2.11,1.77,4.11,3.27,7.34,4.87"/></svg>