<svg><path d="M17.29,14.5c4.46,1.71,11.52,7.02,12.63,9.67"/><path d="M16.5,56.95c1.75,0.55,2.75,0.4,4.2-1c1.41-1.36,9.92-10.04,15.3-16.93"/><path d="M51.27,10.5c0.21,1.24-0.06,2.87-0.75,3.93c-4.41,6.78-9.99,12.52-20.09,20.78"/><path d="M44.06,25.21c0.76,0.54,1.35,1.73,1.4,2.58c0.45,7.5-0.62,27.31-0.24,31.22"/><path d="M71.18,10.25c0.06,0.62-0.02,1.44-0.21,1.98c-1.23,3.41-2.8,6.04-5.62,10.19"/><path d="M45.24,25.87c8.84-0.71,41.98-4.26,45.77-4.65"/><path d="M66.42,25.39c0.43,0.28,0.77,1.66,0.77,2.13c0,4.87,0.05,18.78-0.21,26.44"/><path d="M45.93,35.1c8.34-0.58,36.34-3.29,39.92-3.61"/><path d="M45.91,45.48c8.8-0.49,36.84-3.5,40.61-3.76"/><path d="M45.41,55.6c8.84-0.71,44.37-3.06,48.16-3.44"/><path d="M16.38,73.48c1.52,0.54,4.31,0.68,5.82,0.54C41.5,72.25,76,69,89.31,68.79c2.53-0.04,4.05,0.26,5.31,0.53"/><path d="M54.84,58.13c0.45,0.36,1.39,2.66,1.48,3.37c0.09,0.71-0.06,33.94-0.15,38.38"/></svg>