<svg><path d="M27.29,20c0.46,1.95,1.11,3.49,1.11,5.92c0,22.27,1.1,50.33-13.65,65.83"/><path d="M28.25,21.5c11-1.75,44.75-5.75,48.75-5.75s5.83,0.94,5.5,4.75c-1.75,20.25-3.08,47.96,8,64.75c8.25,12.5,6.5,7,6-3"/><path d="M38.39,44.54c0.37,0.36,1.16,2.71,1.23,3.43c0.07,0.72-0.05,25.36-0.12,29.88"/><path d="M39.45,45.83c2.32-0.25,28.59-4.21,30.32-4.33c3.47-0.25,3.48,2.18,3.4,3.83c-0.37,8.3-0.5,20.83-1.69,28.97c-0.86,5.85-4.99,0.95-6.54-1.21"/><path d="M53.59,24.88c0.37,0.36,1.16,2.71,1.23,3.43c0.07,0.72-0.05,64.05-0.12,68.57"/></svg>