<svg><path d="M25.23,19c0.48,1.97,1.17,3.52,1.17,5.98c0,22.5,0.85,49.27-14.4,66.52"/><path d="M26.75,22c11-1.75,45.25-6.25,49.25-6.25s5.95,0.95,5.5,4.75c-2.5,21-3.25,45,9,66.25c5.12,8.88,7,3.5,5.5-5"/><path d="M33.71,44.93c1.11,0.49,2.37,0.65,3.64,0.49c6.49-0.81,23.34-3.61,33.16-4.56c1.26-0.12,2.06,0.08,3.33,0.43"/><path d="M53.17,26c0.79,0.43,1.43,1.92,1.43,2.81c0,9.07,0,60.29-0.16,65.69"/><path d="M54.48,43.69C49.96,54.97,37.84,72.21,28.43,78.6"/><path d="M57.47,55.72c6.9,2.69,14.47,10.9,16.68,17.74"/></svg>