<svg><path d="M25.95,19.5c0.59,2.08,1.43,3.72,1.43,6.31C27.38,49.56,28.5,78.5,9.75,96"/><path d="M26.75,21.5c11-1.75,44.75-5.25,48.75-5.25S81.47,17.2,81,21c-2.5,20.25-1.25,53.75,10,67.75c6.42,7.99,5.75,3.5,6-3"/><path d="M52.54,24.5c0.33,0.4,0.39,0.9,0.31,1.25c-0.47,2.08-4.52,7.05-8.21,9.85"/><path d="M36.57,35.99c0.57,0.59,1.02,1.69,1.15,2.47c0.68,4.33,3.01,15.57,3.24,19.47"/><path d="M38.06,37.39c7.95-1.07,25.8-3.94,28.73-4.32c2.45-0.32,3.2,0.68,3.02,3.71c-0.23,3.69-2.33,11.47-3.69,18.43"/><path d="M39.74,46.79c7.23-1.46,23.45-3.03,28.4-3.03"/><path d="M40.69,56.38c8.26-0.67,18.42-2.24,25.23-2.44"/><path d="M35.88,66.27c0.68,0.47,2.86,0.07,3.56,0.03C45,66,59.51,63.85,67.16,63.36c1.04-0.07,1.99,0.09,2.85,0.49"/><path d="M52.35,67.04c1.07,1.69,1.07,2.71,1.07,4.07c0,9.48-0.06,6.05-0.06,17.85"/><path d="M37.7,78.08c0.61,0.47,2.62,0.29,3.25,0.21c6.5-0.82,16.03-1.62,23.67-2.46c0.76-0.08,2.44-0.19,3.57,0.22"/><path d="M27.59,91.08c0.58,0.25,3.61,0.51,4.59,0.42c11.8-1.04,27.55-2.5,42.28-3.31c2.47-0.14,4.76-0.12,6.45,0"/></svg>