<svg><path d="M29.91,13.25c0.98,0.98,1.18,2.25,1.18,3.76c0,0.7-0.09,15.49-0.09,17.61"/><path d="M16.85,21.07c0.79,0.79,0.91,1.8,0.91,3c0,4.43-0.01,5.93-0.17,10.42c-0.09,2.4,0.06,3.06,2.57,2.66c6.09-0.96,12.09-2.02,24.64-3.14"/><path d="M46.44,18.91c0.95,0.95,1.06,2.22,0.91,3.51c-0.36,3.2-0.58,5.13-1.04,9.39c-0.15,1.39-0.33,3-0.57,4.94"/><path d="M12.88,48.68c2.15,0.88,5.13,0.54,7.37,0.26c8.31-1.06,16.13-1.68,25.13-2.75c2.1-0.25,4.68-0.41,6.75,0.09"/><path d="M18.33,57.55c0.75,0.75,1.04,1.7,1.19,2.66c0.32,2.14,0.7,4.98,1.45,9.51c0.24,1.47,0.51,2.92,0.79,4.29"/><path d="M20.62,59c5.17-0.5,16.95-2.11,22.25-2.51c2.85-0.22,4.52,0.45,3.75,3.55c-0.66,2.68-1.63,5.69-2.73,9.4"/><path d="M22.57,71.76c5.56-0.33,11.7-0.98,18.66-1.51c1.74-0.13,3.4-0.24,4.87-0.29"/><path d="M23.5,78.67c1.52,1.45,3.93,5.96,4.31,8.22"/><path d="M40.99,76.56c0.02,0.4,0.04,1.04-0.04,1.61c-0.26,1.81-1.19,4.77-2.57,7.83"/><path d="M14.88,95.36c1.37,0.89,2.36,1.11,3.99,0.46C33,90.12,41.88,86.88,50.81,83.34"/><path d="M64.13,23c1.12,1.12,1.21,2.75,1.21,4.73c0,22.5-0.08,50.27-11.63,67.52"/><path d="M65.7,25c3.75-0.75,11.5-1.75,14.5-2.5s4.41,0.97,4,3.5c-2.83,17.5-4,34.75-4,56.5c0,8,1.8,10,8.25,10c7.67,0,8-2,8-9"/></svg>