<svg><path d="M21.25,20.33c1.15,0.43,3.25,0.55,4.39,0.43c7.3-0.74,45.53-4.86,52.6-4.36c1.9,0.13,3.06,0.2,4.01,0.42"/><path d="M44.11,20.05c1.02,0.8,0.86,2.97,0.2,4.23c-0.76,1.45-5.58,11.48-6.03,12.23c-1.03,1.74,0.14,2.84,2.71,1.9c1.94-0.71,7.52-2.35,12.63-3.67c2.87-0.74,3.61,1.46,3.71,2.95c0.66,9.56-1.09,29.11-3.57,39.78c-1.52,6.52-5.5,1.37-7.04-0.18"/><path d="M32.5,46c3.18,1.37,8.21,5.62,9,7.75"/><path d="M28,72.16c1.71,1.59,3.14,2.27,4.85,0.91c1.01-0.8,9.12-7.96,13.4-11.82"/><path d="M75.27,39.64c0.03,0.3,0.07,0.76-0.06,1.19c-0.76,2.51-5.15,8.02-11.15,11.38"/><path d="M63.25,60c5.47,2.42,14.13,9.98,15.5,13.75"/><path d="M18.56,55.13c0.76,0.45,1.56,3.34,1.51,4.25C19.75,65.25,18.5,74.5,17.32,88c-0.57,2.75,0.68,2.75,3.16,2.52c13.75-1.26,60.4-4.32,68.27-4.77"/><path d="M88.81,47.88c0.76,0.45,2.06,3.34,2.01,4.25c-0.32,6.37-1.07,23.12-1.75,37.25"/></svg>