<svg><path d="M52.76,13.38c1.42,1.42,1.86,2.91,1.86,5.31c0,3.18,0.19,61.81,0.19,68.31"/><path d="M29.02,36.13c0.98,1.12,1.23,2.87,1.06,4.04c-0.4,2.82-1.02,7.67-2.78,13.4c-0.43,1.41,0.07,2.84,1.55,2.39c10.61-3.24,33.9-5.33,55.97-6.28"/><path d="M86.31,30.63c0.94,1.37,1.17,3,0.94,4.87c-0.62,5.12-0.86,7.07-1.66,13.48c-0.15,1.19-0.34,1.9-0.51,3.4"/><path d="M25.27,71.13c1.11,1.11,1.6,2.74,1.31,4.29c-0.53,2.8-1.27,8.92-3.03,14.65c-0.43,1.41,0.57,3.11,2.05,2.64c12.9-4.08,41.9-6.21,59.47-7.03"/><path d="M85.06,66.88c1.06,1.49,1.56,3.12,1.44,5.37c-0.27,4.8-0.23,9.14-0.45,13.51c-0.08,1.54-0.17,3.17-0.3,4.99"/></svg>