<svg><path d="M17.79,26.53c1.68,0.31,3.42,0.39,5.1,0.17c5.15-0.67,16.03-2.46,23.11-3.28c1.84-0.21,3.75-0.28,5.53,0.36"/><path d="M11.79,48.72c1.95,0.77,4.67,0.58,6.71,0.28c10.56-1.55,21.53-3.24,31.5-4.36c2.51-0.28,4.74-0.57,7.21,0.03"/><path d="M33.85,28.58c1.1,1.1,1.74,2.54,1.74,3.94c0,0.79-0.03,39.01-0.09,54.86c-0.01,3.08-0.02,5.31-0.03,6.26"/><path d="M66.02,33.08C67,34,67.52,35.62,67.52,37.6c0,10.25-0.01,18.3-0.02,23.9c0,2.36,0,4.28,0,5.75"/><path d="M87.27,16.83c0.98,0.92,1.76,2.29,1.76,4.27c0,14.56-0.01,60.41-0.01,65.37c0,14.28-6.77,4.78-8.71,2.5"/></svg>