<svg><path d="M30.34,14.25c0.04,0.74,0.09,1.92-0.09,2.98C29.21,23.52,23.21,37.31,15,45.75"/><path d="M28.46,30.64c0.83,0.67,2.44,0.64,3.83,0.45c5.96-0.84,20.46-3.26,23.79-3.48c3.33-0.22,4.83,1.13,4.49,4.95C60,39,57.25,74.5,51.97,90.74c-1.84,5.65-5.72,4.01-8.33-0.62"/><path d="M34.32,34.25c0.05,0.78,0.14,2.03-0.1,3.12c-2.37,10.77-8.01,21.03-17.35,29.88"/><path d="M48.01,32c0.08,1.26,0.16,3.25-0.15,5.06c-1.86,10.67-11.91,34.1-26.5,48.44"/><path d="M73.77,24.83c0.98,0.92,1.67,1.99,1.76,5.02c0.4,14.55-0.02,34.69-0.02,39.65"/><path d="M90.27,13.33c0.98,0.92,1.67,1.99,1.76,5.02c0.4,14.55-0.26,65.66-0.26,70.62c0,13.14-7.21,1.5-8.71,0.25"/></svg>