<svg><path d="M16.25,24.98c2.5,0.64,5.16,0.42,7.51,0.1c7.22-0.98,19.17-2.95,26.48-3.61c2.38-0.22,4.68-0.37,7,0.29"/><path d="M37.11,25.65c0.23,0.62,0.29,1.73-0.05,2.94C34.75,36.62,26.5,52.38,14.48,60.8"/><path d="M35.81,39.06c1.19,0.56,2.19,0.31,3.36,0.11c2.72-0.47,4.2-0.8,8.38-2.06c2.67-0.81,4.31,0.95,3.78,3.58C48.25,56,30,85.38,12.27,95.75"/><path d="M26.25,54c4.01,1.77,10.35,7.29,11.35,10.05"/><path d="M68.77,28.87c1.18,1.18,1.76,2.51,1.76,4.77c0,11.46,0,19.5,0,24.74c0,1.96,0,3.63,0,5.12"/><path d="M87.02,16.58c1.33,1.33,2.01,2.74,2.01,5.77c0,16.15-0.01,58.9-0.01,65.12c0,10.28-7.21,1.5-8.71,0.25"/></svg>