<svg><path d="M26.95,11.12c2.85,2.32,6.44,5.81,8.88,9.88"/><path d="M13.58,31c1.01,0.45,3.03,0.66,4.76,0.45c5.79-0.69,19.67-4.32,23.24-5.7c2.44-0.94,4.42,1.2,3,3.5c-8.33,13.5-19.83,28.25-32.33,39"/><path d="M31.75,49.86c0.76,0.76,1.27,2.02,1.27,3.89c0,8.76,0.03,27.66,0.05,37.38c0,2.77,0.01,4.79,0.01,5.62"/><path d="M46.5,42.14c0.2,0.85-0.1,1.83-0.5,2.45c-1.2,1.87-4.65,5.45-7.05,7.66"/><path d="M36.75,54.62c3.63,2.45,6.98,5.61,10.08,9.87"/><path d="M53.26,37.63c1.84,0.69,4.16,0.6,5.76,0.37c13.11-1.91,23.14-4.14,30.41-4.85c4.73-0.46,6.33,1.37,6.07,4.57c-0.69,8.45-9.17,41.71-15.88,51.21c-4.49,6.36-7.37,2.44-10.61,0.06"/><path d="M70.13,40.12c0.43,1.16,0.34,2.82-0.16,4.31C65.12,58.88,57.38,76.5,43.75,88.08"/></svg>