<svg><path d="M17.33,32.84c0.69,0.34,1.96,0.38,2.65,0.34c6.07-0.34,22.1-2.27,31.23-2.79c1.15-0.07,1.84,0.16,2.42,0.33"/><path d="M35.67,13c0.09,0.31,1.26,1.63,1.35,3.61c0.43,9.52,0.11,31.2,0.11,34.44"/><path d="M10.25,53c1.05,0.48,2.98,0.62,4.04,0.48c13.46-1.73,29.46-3.23,41.03-4.48c1.74-0.19,2.81,0.23,3.68,0.47"/><path d="M34.72,55.13c0.24,1.09,0.08,2.65-0.21,3.28c-4.51,9.84-9.12,20.11-14.49,27.1c-1.68,2.19-1.43,4.46,1.25,3.66c7.11-2.13,20.56-6.62,30.86-9.9"/><path d="M43.78,66.85c3.79,3.25,9.78,13.35,10.72,18.4"/><path d="M58.58,24.82c1.43,0.9,3.22,1.16,4.49,0.98c11.19-1.55,19.77-2.62,25.44-3.54c3.68-0.6,5.57,1.23,5.5,4.37c-0.25,12.87-3,47.62-7.79,63.1c-2.59,8.4-5.72,3.77-9.33-0.4"/><path d="M72.01,26.68c0.49,1.82,0.63,4.17,0.4,6.48C70.7,50.25,68,76.75,54.14,94.65"/></svg>