<svg><path d="M20,19.64c0.81,0.81,1.3,1.98,1.58,3.13c1.09,4.48,2.31,10.62,3.2,16.11c0.17,1.07,0.33,2.12,0.48,3.13"/><path d="M22.13,21.53c8.81-1.37,22.1-3.5,28.37-4.31c3.81-0.49,5.13,0.6,4.29,4.29c-0.95,4.18-2.29,9.26-3.63,14.54"/><path d="M26.2,39.58c4.97-0.5,15.78-1.67,23.94-2.4c1.36-0.12,2.65-0.23,3.83-0.32"/><path d="M36.45,49.54c4.3,1.46,11.3,3.08,15.05,3.56c1.62,0.21,2.63,1.65,2.13,3.84c-0.89,3.97-8.9,25.29-15.66,33.27c-3.1,3.66-5.47,0.91-7-1.61"/><path d="M36.5,41.5c0.06,0.9,0.21,1.85-0.13,3.13c-2.25,8.62-10.25,24.62-22.13,35.25"/><path d="M69.02,25.83c0.98,0.92,1.76,2.42,1.76,5.02c0,10.9-0.01,21.65-0.02,28.65c0,2.41,0,4.37,0,5.75"/><path d="M90.77,13.83c0.98,0.92,1.76,2.67,1.76,5.02c0,15.02-0.01,63.77-0.01,69.62c0,10.53-7.21,1.5-8.71,0.25"/></svg>