<svg><path d="M46.77,13.25c0.08,0.41-0.64,1.95-1.1,2.39c-3.53,3.35-12.48,9.49-28.12,14.15"/><path d="M10.03,48.06c1.06,0.45,3.69,0.58,4.75,0.45c9.35-1.11,35.47-5.07,42.5-5.65c1.76-0.15,2.82,0.22,3.7,0.44"/><path d="M34.71,26.87c0.44,0.35,1.35,2.63,1.44,3.33c0.16,1.31,0.45,33.67,0.36,38.19"/><path d="M18.18,70.09c0.43,0.45,0.86,0.82,1.05,1.38c1.47,4.44,3.74,15.79,4.75,23.77"/><path d="M20.55,71.35c11.2-1.34,23.85-3.41,30.15-3.96c2.3-0.2,2.97,2.04,2.64,3.23c-1.26,4.52-2.58,10.64-4.08,18.48"/><path d="M24.27,91.78c6.61-0.67,18.5-1.42,27.57-2.46"/><path d="M69.27,25.08c0.98,0.92,1.67,1.99,1.76,5.02C71.42,44.66,71,58.79,71,63.75"/><path d="M89.27,11.08c0.98,0.92,1.67,1.99,1.76,5.02c0.4,14.55-0.26,68.66-0.26,73.62c0,13.14-7.21,1.5-8.71,0.25"/></svg>