<svg><path d="M48.13,13.68c0.12,0.82,0.6,2.3-0.25,3.44C40.24,27.3,31.35,34.99,17,41.75"/><path d="M21.7,19.47c8.03,1.33,23.76,10.17,30.34,20"/><path d="M12.53,57.71c0.54,0.24,3.77,0.41,5.21,0.31c6.21-0.41,23.24-3.21,33.23-4.41c1.44-0.17,3.39-0.24,4.3,0"/><path d="M36.27,40.5c1.09,0.47,1.61,2.25,1.61,4.92c0,0.96-0.14,47.25-0.36,53.08"/><path d="M37.33,57.78C31.75,69.25,21.5,80.25,12.02,86.59"/><path d="M41.34,64.65c3.39,1.88,9.16,6.85,11.84,11.6"/><path d="M67.77,25.33c0.98,0.92,1.67,1.99,1.76,5.02C69.92,44.91,69.5,63.04,69.5,68"/><path d="M88.77,13.33c0.98,0.92,1.67,1.99,1.76,5.02c0.4,14.55-0.26,65.66-0.26,70.62c0,13.14-7.21,1.5-8.71,0.25"/></svg>