<svg><path d="M19.52,18.18c1.07,0.61,3.15,0.87,4.29,0.79c7.69-0.59,21.69-2.84,27.43-3.57c1.75-0.22,3,1.1,2.75,3.36c-0.34,3.08-1.17,5.77-2.11,12.32"/><path d="M23.75,35.3c2.36-0.16,16.89-1.88,24.99-2.76c2.47-0.27,4.34-0.46,5.09-0.51"/><path d="M22.53,19.28c0.85,0.85,1.26,1.73,1.22,2.6c-1,25.75-4.12,40.88-13.25,53.88"/><path d="M23.81,52.78c0.7,0.7,1.3,1.5,1.35,2.34c0.64,12.45,0.94,17.39,1.27,22.5c0.1,1.61,0.21,3.24,0.33,5.13"/><path d="M26.02,54.28c5.11-0.91,20.73-3.28,26.86-3.55c2.23-0.1,3.12,1.14,3.13,3.05c0.03,6.34-0.25,17.72-1.2,24.95c-0.69,5.27-3.54,0.58-4.67-0.58"/><path d="M38.8,39.13c0.97,0.97,1.35,2.5,1.35,3.84c0,5.64-0.06,33.62-0.1,45.91c-0.01,3.31-0.02,5.48-0.03,5.76"/><path d="M71.27,26.33c1.26,1.26,1.76,3.04,1.76,5.02c0,11.4-0.01,22.23-0.02,28.77c0,1.81,0,3.3,0,4.38"/><path d="M91.27,12.83c1.08,1.08,1.76,2.79,1.76,5.02c0,16.27-0.01,67.9-0.01,73.12c0,11.03-5.64,3.16-9.46-0.25"/></svg>