<svg><path d="M14.98,21.46c1.36,0.66,3.81,0.47,5.28,0.31c8.36-0.91,19.61-2.55,29.36-3.09c1.86-0.1,3.78-0.35,5.6,0.18"/><path d="M33.28,23.65c0.47,1.1,0.14,2.49-0.26,2.97c-4.77,5.88-8.27,9.76-13.55,15.9c-1.64,1.91-0.94,3.27,1.59,2.7c5.9-1.35,18.48-4.69,27.78-6.92"/><path d="M44.22,29.64c3.61,2.84,9.33,11.68,10.24,16.1"/><path d="M18.48,62.25c1.9,0.63,3.85,0.67,5.55,0.47c9.07-1.07,18.96-2.6,24.81-3.68c1.1-0.2,2.04-0.08,2.6,0.11"/><path d="M35.17,46.2c0.75,0.75,1.08,2.19,1.08,3.95c0,5.85,0,25.56,0,28.44"/><path d="M14.19,85.08c1.18,1.17,2.66,1.48,4.4,0.83c14.78-5.53,20.03-7.41,35.14-12.88"/><path d="M65.77,28.58c1.14,1.14,1.26,2.54,1.26,4.77c0,10.93-0.01,19.93-0.02,25.9c0,2.16,0,3.93,0,5.25"/><path d="M85.27,15.58c1.26,1.26,1.76,2.67,1.76,5.02c0,14.56-0.01,62.41-0.01,67.37c0,13.14-7.21,1.5-8.71,0.25"/></svg>