<svg><path d="M17.45,26.05c2.68,0.45,4.54,0.39,6.54,0.13c6.43-0.83,16.39-2.19,24.9-2.87c2.36-0.19,3.99-0.19,6.08,0.4"/><path d="M17.88,39.62c0.88,0.88,1.42,2.26,1.55,3.65c0.11,1.14,0.67,6.09,1.25,10.74c0.35,2.75,0.62,5.13,0.62,5.99"/><path d="M19.92,41.31c6.66-0.82,24.25-2.95,31.22-3.84c4.09-0.53,4.93,0.45,4.48,4.81c-0.37,3.58-1.19,8.44-2.11,11.09c-1.91,5.45-3.52,2.44-4.94,0.43"/><path d="M35.49,12c0.96,0.96,1.26,2.25,1.26,3.5c0,3.26,0,52.63,0,73.12c0,4.67,0,7.84,0,8.62"/><path d="M36.41,53.25c-0.16,1.5-0.68,3.35-1.79,5.2C28.38,68.88,23,74.88,11.5,85.25"/><path d="M40,62.25c6.92,2.79,12.11,7.22,16,13.5"/><path d="M67.77,23.83c0.98,0.92,1.51,1.92,1.51,4.02c0,10.4,0.16,21.41,0.06,27.9c-0.04,2.67-0.08,4.81-0.08,6.25"/><path d="M87.27,11.83c1.26,1.26,1.76,2.67,1.76,5.02c0,14.56-0.01,68.16-0.01,73.12c0,13.14-7.21,1.5-8.71,0.25"/></svg>