<svg><path d="M29.25,16.88c3.28,2.18,8.49,8.95,9.31,12.34"/><path d="M73.77,13.39c0.09,1.19-0.21,2.34-0.77,3.41c-3,5.69-5.88,10.07-11.94,16.16"/><path d="M27.75,37.89c2.5,0.49,4.43,0.29,6.5,0.08c8.35-0.86,27.5-2.59,35.62-3.11c1.92-0.12,4-0.05,5.88,0.41"/><path d="M15.25,53.45c2.85,1.02,6.52,0.68,9.5,0.44c11.47-0.91,39.7-2.45,55.75-3.17c3.39-0.15,6.66-0.15,10,0.57"/><path d="M53.75,11.25c0.5,1.25,0.91,2.54,0.53,4.22C50,34.25,41.75,61.88,14.5,77.25"/><path d="M50,34.25c6.15,6.29,24.79,23.54,33.79,31.35c2.93,2.54,5.83,5.08,9.21,7.03"/><path d="M35.62,68.13c1.5,0.5,2.88,0.62,4.59,0.45c8.19-0.85,22.68-3.24,27.21-3.61c2.98-0.25,4.35,1.06,3.94,3.93c-0.85,5.88-4.49,19.11-8.53,25.64c-2.5,4.04-4.33,2.84-7.81-0.63"/><path d="M50.2,71.47c0.05,1.03-0.22,1.86-0.66,2.66c-5.03,9-12.53,16.87-27.66,24"/></svg>