<svg><path d="M37.5,11.99c0.94,0.94,1.34,2.68,1.34,3.88c0,4.41-0.08,6.49-0.08,9.76"/><path d="M15.5,29.35c2.24,0.23,4.41,0.2,6.66-0.15c8.06-1.27,22.19-3.26,32.34-4.33c2.65-0.28,5.34-0.64,7.99-0.17"/><path d="M35.39,30.09c0.35,1.27-0.03,2.31-0.79,3.62c-2.6,4.42-5.22,7.92-9.62,13.1c-0.63,0.74-0.2,2.69,0.5,2.93c3.7,1.27,7.9,2.77,11.91,4.97"/><path d="M49.32,34.21c0.08,0.92,0.06,2.69-0.41,3.69C42.75,51,34.5,62.5,19.55,73"/><path d="M51.21,55.57c0.1,0.93-0.13,2.45-0.7,3.48C43.12,72.5,30.99,86.07,14.25,95.04"/><path d="M44.52,74.86c5.98,3.64,11.73,10.52,14.01,15.57"/><path d="M71.77,27.08c1.08,1.08,1.76,2.79,1.76,5.02c0,10.52,0.15,21.37,0.05,28.15c-0.04,2.57-0.07,4.63-0.07,6"/><path d="M90.77,14.83c0.98,0.92,1.76,2.67,1.76,5.02c0,14.56-0.01,63.52-0.01,68.62c0,11.53-7.46,1.5-8.96,0.25"/></svg>