<svg><path d="M33.5,14.5c3.34,2.07,8.64,8.5,9.48,11.72"/><path d="M72.67,12c0.26,1.14,0.07,2.23-0.52,3.19c-2.12,3.41-6.02,8.65-8.6,11.31"/><path d="M13.38,33.24c2.63,0.72,7.46,0.94,10.08,0.72c21.67-1.83,39.8-3.58,62.68-4.61c4.37-0.2,7.01,0.34,9.2,0.7"/><path d="M24.65,45.46c1.1,1.29,1.63,2.92,1.63,4.17c0,3.05,0.1,28.65,0.08,40.62c0,3.23-0.03,5.46-0.1,6"/><path d="M27.01,46.8c2.3-0.41,13.37-2.3,17.2-2.9c2.2-0.34,3.51,1.1,3.51,3.24c0,1.02-0.16,30.82-0.16,44.63c0,5.48-3.79,2.98-5.93,0.53"/><path d="M27.65,60.01c5.72-0.76,13.63-1.81,18.59-2.32"/><path d="M27.57,73.47c4.41-0.51,13.3-1.54,18.4-1.89"/><path d="M62.27,47.58c1.2,1.2,1.76,2.67,1.76,4.58c0,8.93-0.01,15.1-0.09,18.59c-0.04,1.49-0.09,2.76-0.16,4.05"/><path d="M78.85,39.25c1.26,1.26,2.01,2.88,2.01,5.02c0,14.56-0.01,42.91-0.01,47.87c0,8.62-5.96,1-7.46-0.25"/></svg>