<svg><path d="M35.24,11.25c0.12,0.38,1.67,1.95,1.67,4.34c0,8.16-0.03,21.38-0.03,25.28"/><path d="M15.62,20.62c3.98,2.91,9.01,9.92,10.01,14.44"/><path d="M56.21,17.85c0.09,0.86-0.01,1.69-0.31,2.5c-1.11,3.41-4.49,8.22-8.27,11.67"/><path d="M21.86,42.44c0.85,0.85,1.35,1.93,1.35,3.28c0,0.73-0.03,30.34-0.04,44.02c0,3.92-0.01,6.62-0.03,7.08"/><path d="M23.81,43.37c4.06-0.62,19.42-3.12,23.23-3.44c2.21-0.18,4.18,1.19,4.18,4.4c0,9.99-0.05,26.65-0.05,45.42c0,11.25-4.97,2.58-6.62,0.96"/><path d="M24.06,56.94c8.56-1.19,18.31-2.56,26.24-3.28"/><path d="M24.26,71.61c5.89-0.7,19-2.57,25.81-3.03"/><path d="M70.27,26.83c0.98,0.92,1.76,2.42,1.76,4.52c0,10.53,0.15,23.4,0.05,30.9c-0.04,2.87-0.07,5.13-0.07,6.5"/><path d="M89.27,13.58c0.98,0.92,1.76,2.17,1.76,4.52c0,14.56-0.01,65.9-0.01,71.12c0,14.91-5.64,5.41-7.96,2.5"/></svg>