<svg><path d="M19.01,20.13c0.8,0.8,1.38,2.25,1.38,3.38c0,4,0,36.01,0,48c0,2.23,0,3.76,0,4.3"/><path d="M21.41,21.65c2.6-0.21,21.69-2.9,24.06-3.15c1.98-0.21,3.37,1.17,3.37,2.73c0,3.02-0.01,38.15-0.01,47.75c0,1.9-0.08,4.77-0.08,6.03"/><path d="M21.37,38.88c5.38-0.63,19.38-2.38,26.23-2.91"/><path d="M21.58,55.34c7.92-0.84,17.92-2.09,25.96-2.52"/><path d="M22.25,72.91c6.25-0.91,17.5-2.16,25.46-2.52"/><path d="M27.32,79.94c0.34,1.17,0.13,2.21-0.5,3.09C24,87,18.53,92.45,14.5,95.5"/><path d="M42.38,81.43c3.8,3.48,8.29,9.79,9.32,12.84"/><path d="M67.52,25.33c1.26,1.26,1.76,2.92,1.76,5.27c0,11.15-0.21,20.4-0.21,27.9c0,2.21-0.06,4-0.06,5.24"/><path d="M87.77,15.08c1.08,1.08,1.76,2.79,1.76,4.52c0,19.4-0.01,63.91-0.01,68.87c0,9.91-5.52,3.41-8.21,0.75"/></svg>