<svg><path d="M14.25,21.31c1.03,0.42,2.91,0.49,3.95,0.42c7.84-0.57,30.86-3.59,37.95-3.71c1.71-0.03,2.75,0.2,3.6,0.41"/><path d="M22.53,28.34c0.69,0.33,0.15,2.59-0.12,3.36c-1.7,4.95-3.33,9.48-7.82,13.92c-0.87,0.86-0.42,0.88,0,1.11c5.19,2.88,7.96,6.28,10.7,12.14"/><path d="M39.05,26.04c0.72,0.34,0.15,2.69-0.12,3.48c-1.77,5.13-3.95,9.33-8.6,13.93c-0.9,0.89-0.43,0.91,0,1.15c5.38,2.99,8.93,6.9,11.73,11.58"/><path d="M54.74,24.66c0.62,0.29,0.13,2.3-0.1,2.98c-1.51,4.4-2.95,9.78-6.94,13.72c-0.77,0.76-0.3,0.68,0,0.99C51.25,46,54,49.5,56.19,54.73"/><path d="M16.39,65.56c0.61,0.4,2.86,1.19,4.56,0.92c6.39-0.98,24.59-3.44,31.52-4.03c0.95-0.08,2.7-0.29,3.48,0.05"/><path d="M35.38,66.41c0.96,0.97,1.63,3.04,1.63,3.82c0,6.52,0.02,12.34-0.17,16.67"/><path d="M14.85,92.76c0.66,0.17,2.19,1.91,4.27,1.11c6.28-2.41,22.64-8.74,32.41-12.26"/><path d="M68.77,24.83c0.98,0.92,1.67,1.99,1.76,5.02c0.4,14.55-0.02,36.69-0.02,41.65"/><path d="M88.77,11.83c0.98,0.92,1.67,1.99,1.76,5.02c0.4,14.55-0.26,68.66-0.26,73.62c0,13.14-7.21,1.5-8.71,0.25"/></svg>