<svg><path d="M16.46,16.59c2.99,2.15,7.73,8.85,8.48,12.21"/><path d="M43.05,11.89c0.02,0.35,0.01,0.9-0.05,1.42c-0.5,4.44-3.25,11.94-7.04,17.55"/><path d="M13.2,35.99c1.05,0.5,2.98,0.61,4.03,0.5C25.02,35.71,38,33,46.29,32.31c1.75-0.15,2.8,0.24,3.68,0.49"/><path d="M8.25,60.2c1.25,0.59,3.53,0.71,4.77,0.59C26.5,59.45,33,56.5,47.64,55.81c2.07-0.1,3.32,0.28,4.36,0.57"/><path d="M24.17,38.43c0.46,1.48,0.61,2.64,0.61,4.49c0,16.89,0.96,38.33-12.19,53.41"/><path d="M38.41,35.73c0.7,0.42,1.12,1.91,1.26,2.76c0.14,0.85,0,52.69-0.14,58"/><path d="M52.22,25.9c1.66,0.83,3.73,0.57,5.21,0.45C68,25.5,75,24.11,81.57,23.26c4.27-0.55,6.02,1.66,5.93,5.55c-0.25,11.69-0.75,41.44-7.87,61.91c-3.13,9.01-5.69,5.81-8.88,0.26"/><path d="M65.95,28.83c0.3,1.67,0.57,2.76,0.4,4.86c-1.72,20.54-6.85,45.56-17.6,60.67"/><path d="M51.5,39.5c1.5,0,2.4,0.58,3.09,1.41c8.08,9.74,28.24,36.73,37.9,44.27c2.35,1.84,3.91,3.19,6.01,3.82"/></svg>