<svg><path d="M35.71,19.5c1.04,1.01,1.32,2.25,1.32,3.67c0,2.39,0,4.91,0,11.4"/><path d="M15.75,37.75c2.32,0.65,5.18,0.41,7.54,0.08c8.31-1.17,21.53-3.46,27.64-4.22c1.92-0.24,3.1,0.15,4.07,0.32"/><path d="M23.12,43.62c3.48,3.89,5.06,7.86,5.38,10.43"/><path d="M49.75,38.26c0.25,0.86-0.02,2.01-0.23,2.5C47.25,46,44.04,52.24,42.5,55.03"/><path d="M11.5,61.49c2.31,0.74,5.16,0.62,7.51,0.2c10.87-1.94,22.61-4.08,33.24-5.21c2.5-0.26,4.77-0.35,7.25,0.13"/><path d="M20.25,73.09c0.78,0.6,1.25,1.38,1.38,2.36c0.95,3.05,2.14,8.5,3.02,13.22c0.31,1.67,0.58,3.24,0.78,4.58"/><path d="M22.57,74.04c6.88-0.93,19.06-3.12,24.94-3.74c2.87-0.3,4.25,1.32,3.81,3.97c-0.68,4.12-2.21,9.11-3.38,13.46"/><path d="M26.11,91c4.09-0.38,12-0.99,18.9-1.59c1.73-0.15,3.36-0.3,4.77-0.45"/><path d="M69.52,29.83c0.98,0.92,1.76,2.79,1.76,5.02c0,10.5,0.15,20.27,0.05,26.9c-0.04,2.56-0.07,4.62-0.07,6"/><path d="M89.27,16.33c1.33,1.33,1.76,2.79,1.76,5.27c0,14.56-0.01,60.16-0.01,65.12c0,14.03-5.71,2.5-7.21,1.25"/></svg>