<svg><path d="M15.64,24.23c1.05,0.33,2.23,0.14,2.92,0.09c9.21-0.7,25.59-3.06,34.66-4.04c0.87-0.09,2.43-0.07,3.4-0.07"/><path d="M35.08,11.5c0.24,0.44,0.37,0.96,0.36,1.92C35.19,26.66,27.15,41.13,20.12,44"/><path d="M35.87,27c6.38,2,13.63,7.25,16.75,12.5"/><path d="M10,49.92c1.07,0.58,3.04,0.72,4.11,0.58c6.39-0.83,38.76-4.77,47.64-5.54c1.78-0.15,2.86,0.28,3.75,0.57"/><path d="M19.97,61.08c0.31,0.38,0.63,0.7,0.77,1.18c1.08,3.81,2.38,13.67,3.12,20.51"/><path d="M21.92,62.36c6.39-1.25,14.65-2.72,18.3-3.22c1.34-0.19,2.14,1.08,1.95,2.16c-0.79,4.45-2.22,10.17-3.39,16.33"/><path d="M24.01,80.59c4.29-0.57,10.21-1.54,16.1-2.42"/><path d="M52.55,48.47c0.06,0.53,1.24,2.75,1.31,6.1c0.3,16.08-0.19,32.27-0.19,37.75c0,9.39-6.86,1.16-7.97-0.22"/><path d="M72.27,23.83c0.98,0.92,1.67,1.99,1.76,5.02C74.42,43.41,74,65.54,74,70.5"/><path d="M90.45,11.83c1.05,0.98,1.79,2.12,1.88,5.36c0.43,15.56-0.27,68.04-0.27,73.34c0,14.05-7.7,1.6-9.31,0.27"/></svg>