<svg><path d="M38.1,14.25c0.89,0.89,1.47,1.88,1.47,3.36c0,1.76-0.01,3.99-0.07,6.76"/><path d="M15.3,27.32c2.58,0.68,5.02,0.45,7.7,0.18c8.83-0.89,25.31-3.04,34.75-3.74c2.11-0.16,4.25-0.51,6.51,0.22"/><path d="M48.56,28.33c-0.06,1.06-0.06,1.97-0.8,2.93C41.5,39.38,30,48.12,14.19,53.84"/><path d="M25.15,34.49c16.1,2.63,27.87,9.59,36.63,16.58"/><path d="M26.08,52.97c0.66,0.66,1.03,1.78,1.03,2.88C27.1,81,24,87.12,16.33,94.83"/><path d="M28.29,61.74c7.4-0.54,18.25-1.86,24.75-2.13"/><path d="M27.46,73.95c6.91-0.82,18.7-2.12,25.48-2.35"/><path d="M53.03,51.56c0.83,0.83,1.17,1.82,1.17,2.93c0,2.38-0.01,24.05-0.03,34.76c-0.01,3.14-0.02,5.34-0.03,5.84"/><path d="M72.02,27.33c0.98,0.92,1.76,2.17,1.76,4.27c0,10.33,0.16,23.71,0.05,31.65c-0.04,3.25-0.08,5.81-0.08,7.25"/><path d="M88.77,14.33c1.26,1.26,1.76,2.92,1.76,5.02c0,14.56-0.01,63.66-0.01,68.62c0,13.14-7.21,1.5-8.71,0.25"/></svg>