<svg><path d="M45.68,13c0.08,0.28,0.17,0.72-0.16,1.11c-1.95,2.35-13.16,7.51-28.49,10.67"/><path d="M12.25,32.15c0.54,0.31,2.7,1.12,4.13,0.92c6.47-0.92,28.33-4.27,39.29-5.11c1.43-0.11,3.23,0.36,4.13,0.67"/><path d="M10.93,49.26c0.97,0.28,1.21,0.41,2.18,0.41s12.52-2.7,13.37-2.7"/><path d="M25.38,38.51c0.72,0.83,0.98,2.72,0.98,3.28c0,0.55,0.12,16.21,0.12,17.72"/><path d="M11.45,65.81c1.5,1.16,2.65,1.23,3.75,0.65c6.62-3.48,10.24-5.51,13.74-7.45"/><path d="M60.71,36.77c0.09,0.2,0.13,0.77-0.09,1.1c-2.12,3.23-7.34,7.95-11.93,9.64"/><path d="M47.08,34.8c0.32,0.37,0.75,1.08,0.75,1.81c0,0.49,0.11,16.35,0.11,17.85c0,3.83,1.81,4.83,7.59,4.83c5.15,0,7.49-0.95,7.49-4.93"/><path d="M36.72,22.7c0.62,0.45,0.99,2.04,1.11,2.95c0.12,0.91,0,65.18-0.12,70.85"/><path d="M37.79,56.61C33.45,67.74,22.61,80.67,12.1,87.65"/><path d="M39.63,62.96c8.37,3.79,13.62,9.29,16.7,15.99"/><path d="M70.52,26.08c0.98,0.92,1.67,1.99,1.76,5.02c0.4,14.55-0.02,30.69-0.02,35.65"/><path d="M88.52,14.08c0.98,0.92,1.67,1.99,1.76,5.02c0.4,14.55-0.26,64.66-0.26,69.62c0,13.14-7.21,1.5-8.71,0.25"/></svg>