<svg><path d="M19.25,19.82c1.39,0.35,3.96,0.29,5.35,0.1c7.9-1.05,17.4-2.55,26.65-3.2c2.31-0.16,3.72-0.08,4.88,0.1"/><path d="M20.75,31.01c0.81,0.81,1.43,1.88,1.58,2.83c0.88,2.68,1.67,6.17,2.32,10.03c0.18,1.04,0.34,2.12,0.5,3.21"/><path d="M22.96,32.63c7.69-1.21,18.67-2.88,27.79-3.64c3.7-0.31,4.81,1.03,3.8,4.57c-0.81,2.84-1.69,4.63-2.85,8.16"/><path d="M26.01,45.43c4.44-0.44,16.47-1.69,24.12-2.39c1.41-0.13,2.66-0.24,3.7-0.32"/><path d="M18.75,57.38c0.62,0.62,1.18,1.65,1.27,2.35c0.75,6.26,1.75,15.94,2.57,25.15c0.12,1.31,0.23,2.61,0.34,3.88"/><path d="M20.78,58.98c11.47-1.48,23.95-2.96,31.5-3.62c4.02-0.35,5.67,0.42,5.34,4.65c-0.45,5.66-1.49,14.59-2.58,22.38c-0.15,1.09-0.31,2.16-0.47,3.19"/><path d="M37.76,59.08c0.77,0.77,1.05,2.21,1.05,3.68c0,6.99,0.08,16.49,0.08,21.21"/><path d="M22.48,71.93C30.38,71,51,68.88,55.57,68.84"/><path d="M23.92,86.34c8.95-0.71,20.95-1.96,29.72-2.36"/><path d="M70.27,23.83c0.98,0.92,1.76,2.17,1.76,4.27c0,10.71-0.01,21.72-0.02,28.77c0,2.54,0,4.56,0,5.87"/><path d="M88.77,14.08c1.33,1.33,1.76,2.92,1.76,4.77c0,14.56-0.01,63.66-0.01,68.62c0,8.12-4.91,3.42-8.71,0.25"/></svg>