<svg><path d="M18.75,19.75c1.97,0.75,3.24,0.65,5.26,0.5c6.57-0.5,15.99-2.75,20.37-3c2.84-0.16,4.75,1.24,4.38,3.75c-1.1,7.5-2.19,11.25-3.07,21"/><path d="M19.25,31.3c1.53,0.12,2.74,0.99,4.42,0.75C30.75,31,39.5,30.5,47.11,29.98"/><path d="M12,44.58c1.11,0.21,4.43,0.32,5.75,0.21c12.17-1.03,24.57-2.67,35.63-3.08c1.77-0.07,5.53,0,6.86,0.21"/><path d="M35.27,46.83c0.09,0.48,1.17,2.49,1.26,5.52c0.4,14.55-0.26,33.16-0.26,38.12c0,10.78-5.71,2-7.21,0.75"/><path d="M16,55.75c3.18,1.41,8.21,5.8,9,8"/><path d="M11,83.1c2,0.9,3.88,0.86,5.45-0.55c0.93-0.84,6.88-6.77,10.8-10.79"/><path d="M54.28,52.14c0.03,0.28,0.06,0.73-0.05,1.14c-0.66,2.41-4.46,7.7-9.66,10.93"/><path d="M43.25,70.75c4.24,2.1,10.95,8.83,13.82,14.53"/><path d="M69.27,25.83c0.98,0.92,1.67,1.99,1.76,5.02C71.42,45.41,71,60.54,71,65.5"/><path d="M89.77,12.33c0.98,0.92,1.67,1.99,1.76,5.02c0.4,14.55-0.26,65.66-0.26,70.62c0,13.14-7.21,1.5-8.71,0.25"/></svg>