<svg><path d="M25.09,13.16c0.62,0.26,0.13,2.07-0.1,2.68c-1.51,3.95-3.95,6.57-7.94,10.11c-0.77,0.68-0.37,0.7,0,0.89c4.61,2.3,6.58,6.01,9,10.69"/><path d="M39.8,12.16c0.62,0.26,0.13,2.07-0.1,2.68c-1.51,3.95-4.45,6.57-8.44,10.11c-0.77,0.68-0.37,0.7,0,0.89c4.61,2.3,7,4.66,8.55,10.19"/><path d="M53.24,11.66c0.62,0.26,0.13,2.07-0.1,2.68c-1.51,3.95-2.45,6.09-6.44,9.63c-0.77,0.68-0.37,0.7,0,0.89c4.61,2.3,6.81,5.64,8,9.67"/><path d="M17.88,41.68c0.5,0.51,1.22,1.13,1.22,1.82c0,0.69,4.42,20.02,4.42,20.37"/><path d="M20.2,43.32c1.51-0.09,33.6-4.08,34.98-4.08c1.81,0.01,2.57,2.01,2.48,2.52c-0.18,1.04-3.9,17.24-3.9,17.76"/><path d="M21.5,52.04c2.04,0,32.16-3.06,34.48-3.06"/><path d="M25.31,60.31c4.16-0.37,22.99-1.72,28.17-2.03"/><path d="M13.21,71c0.53,0.16,1.95,0.43,3.36,0.49c3.89,0.17,30.87-3.16,42.18-3.49c1.42-0.04,1.77,0.16,2.65,0.33"/><path d="M37.44,43.1c0.77,0.39,1.23,1.77,1.38,2.55c0.15,0.78,0,48.19-0.15,53.09"/><path d="M36.47,69.94C32.39,77.97,23.5,89,13.25,93.88"/><path d="M42.82,75.99c5.36,2.05,12.85,8.19,15.37,12.88"/><path d="M69.77,24.33c0.98,0.92,1.67,1.99,1.76,5.02c0.4,14.55-0.02,34.19-0.02,39.15"/><path d="M88.77,11.83c0.98,0.92,1.67,1.99,1.76,5.02c0.4,14.55-0.26,69.66-0.26,74.62c0,13.14-7.21,2-8.71,0.75"/></svg>