<svg><path d="M12.82,27.99c0.97,0.5,2.1,0.6,3.07,0.5c8.92-0.92,31.92-4.31,42.2-4.38c1.62-0.01,2.59,0.24,3.4,0.49"/><path d="M24.5,17.19c1.31,1.37,1.79,1.77,1.88,2.63c0.75,8.12,1.12,8.43,1.94,15.97"/><path d="M48.12,13.5c0.32,1.13,0.58,1.92,0.38,3.35c-1.12,7.65-2.19,11.78-3.12,17.03"/><path d="M36.15,36.02c0.07,0.67,0.36,1.79-0.15,2.7c-3.52,6.29-11.61,17.1-26.26,25.84"/><path d="M36.96,41.04C45.75,44.25,55.2,52,59.48,57.49"/><path d="M24.45,61.18c0.48,0.18,2.71,0.2,3.19,0.18c4.98-0.21,12.61-2.54,19.72-2.57c0.8,0,1.95,0.08,2.35,0.17"/><path d="M21.24,74.05c0.48,0.54,1.06,1.83,1.19,2.53c1.62,9.21,2.32,11.02,3.41,18.7"/><path d="M22.32,75.29c12.37-1.43,22.06-3.65,27.7-4.35c2.06-0.26,3.3,1.52,3,3.02c-1.22,6.22-2.59,10.1-3.84,17.04"/><path d="M25.71,92.8c7.61-0.6,15.44-1.44,25.16-2.02"/><path d="M71.77,25.33c0.98,0.92,1.67,1.99,1.76,5.02C73.92,44.91,73.5,63.04,73.5,68"/><path d="M88.77,12.33c0.98,0.92,1.67,1.99,1.76,5.02c0.4,14.55-0.26,67.16-0.26,72.12c0,13.14-7.21,1.5-8.71,0.25"/></svg>