<svg><path d="M36.08,15.75c0.65,0.65,1.09,1.88,1.09,3.28c0,2.1-0.05,6.1-0.05,8.6"/><path d="M17.04,28.27c0,3.36-1.77,12.59-2.57,14.83"/><path d="M17.69,31.24c13.56-1.49,29.06-3.99,41.22-4.65c8.07-0.43,0.86,6.18-0.26,6.79"/><path d="M22.25,43.62c1.75,0.38,3.51,0.22,4.89,0c5.39-0.85,15.65-2.71,20.88-3.38c1.53-0.2,2.86-0.24,4.45-0.14"/><path d="M36.85,33.69c0.79,0.79,1.18,2.06,1.18,3.12c0,0.9-0.03,20.6-0.03,26.93"/><path d="M22.37,54.29c1.76,0.34,3.5,0.22,4.88,0.02c5.43-0.77,14.63-1.93,21.38-2.91c1.43-0.21,2.5-0.4,3.83-0.24"/><path d="M14.39,67.41c1.86,0.46,4.36,0.19,5.98-0.03c8.29-1.11,27.34-4.32,35.61-5.06c1.82-0.16,3.83-0.34,5.62,0.19"/><path d="M23.05,76.1c0.62,0.63,1.18,1.65,1.31,2.53C25,83,26.3,88.44,26.85,92.19c0.23,1.55,0.43,3.01,0.58,4.28"/><path d="M24.86,77.47c6.89-0.96,19.83-2.65,25.39-3.38c2.7-0.35,3.82,0.6,3.19,3.67c-0.75,3.71-1.4,6.88-2.97,12.32"/><path d="M28.21,93.31c3.62-0.44,13.34-1.68,20.03-2.38c1.3-0.13,2.43-0.25,3.32-0.33"/><path d="M73.27,28.58c0.98,0.92,1.76,2.67,1.76,5.02c0,10.55-0.1,24.72-0.2,32.65c-0.04,3.02-0.07,5.38-0.07,6.75"/><path d="M89.27,15.08c1.14,1.14,1.76,2.92,1.76,5.02c0,14.56-0.01,64.41-0.01,69.37c0,13.14-7.21,1.5-8.71,0.25"/></svg>