<svg><path d="M35.91,11.5c0.58,0.34,1.81,2.58,1.93,3.26c0.12,0.69-0.07,13.6-0.19,17.9"/><path d="M19.6,20.57c0.58,0.34,1.21,1.8,1.16,2.5c-0.26,3.43-0.26,4.68-0.42,9.17c-0.06,1.58-0.29,3.11,1.15,2.88C31.5,33.5,48.5,31.2,55.8,31.01"/><path d="M55.94,16.16c0.58,0.35,1.26,2.57,1.16,3.26c-0.58,4.23-0.65,5.71-1.61,13.58"/><path d="M16.13,44.63c1.21,0.6,3.41,0.67,4.62,0.6c10.16-0.56,21.74-3.72,32.66-4.01c2.01-0.05,3.22,0.29,4.22,0.59"/><path d="M21.58,53.8c0.38,0.29,0.87,0.52,0.94,0.91c0.52,2.81,1.82,9.46,2.99,15.05"/><path d="M22.31,55.28c5.79-0.56,24.48-4.3,28.43-4.39c1.64-0.04,2.74,0.74,2.37,2.37c-0.66,2.94-1.72,7.23-2.98,11.41"/><path d="M25.82,68.83c5.43-0.83,18.93-3.33,26.4-3.57"/><path d="M25,74.42c1.7,2.11,4.38,8.68,4.81,11.97"/><path d="M49.11,69.56c0.02,0.31,0.03,0.81-0.03,1.26c-0.35,2.66-2.35,8.49-5.09,12.06"/><path d="M17.38,92.66c1.54,0.85,3.5,1.26,4.49,0.92c16.18-5.59,27.15-9.43,35.94-11.98"/><path d="M70.27,25.33c0.98,0.92,1.67,1.99,1.76,5.02C72.42,44.91,72,61.54,72,66.5"/><path d="M89.27,14.83c0.98,0.92,1.67,1.99,1.76,5.02c0.4,14.55-0.26,63.66-0.26,68.62c0,13.14-7.21,1.5-8.71,0.25"/></svg>