<svg><path d="M46.01,12.39c0,0.73-0.64,1.32-1.26,1.79c-2.81,2.14-10.42,5.25-23.05,8.53"/><path d="M14.59,33.2c3.16,0.55,5.85,0.29,8.19-0.09c9.71-1.6,18.34-2.73,29.22-3.95c2.82-0.31,5.52-0.63,8.29,0.13"/><path d="M12.25,47.2c3,0.55,5.54,0.23,8-0.09c9.56-1.25,24.21-2.94,36.76-4.08c2.64-0.24,5.01-0.39,7.61,0.26"/><path d="M23.42,39.63c1.1,1.1,1.21,2.12,1.4,3.84c0.73,6.51,1.18,9.78,1.9,15.03"/><path d="M54.37,35.13c0.5,0.99,0.75,1.87,0.54,3.26c-0.54,3.51-1.16,9.36-2.13,16.36"/><path d="M17.52,59.95c2.1,0.3,4.38,0.21,6.25-0.06c6.59-0.94,20.1-3.01,29.36-3.89c2.07-0.2,3.62-0.38,6.45,0.04"/><path d="M39.07,21.88c1.27,1.27,1.29,2.24,1.29,4c0,4.46,0.04,45.95-0.06,63.11c-0.02,3.47-0.04,5.94-0.06,6.88"/><path d="M39.2,59.25c0,1-0.46,2.41-1.14,3.34C31.5,71.5,22.25,80.25,12.64,87"/><path d="M44.34,64.5C49,67.25,55.5,73.25,58.11,78.94"/><path d="M73.02,25.58c1.08,1.08,1.26,2.42,1.26,4.27c0,10.77,0.14,22.92,0.04,30.4c-0.04,2.63-0.06,4.71-0.06,6"/><path d="M91.02,12.83c1.39,1.39,1.51,2.92,1.51,5.02c0,14.56-0.01,66.16-0.01,71.12c0,13.14-6.21,2-7.71,0.75"/></svg>