<svg><path d="M15.62,17.95c0.98,0.36,2.76,0.41,3.75,0.36c11.58-0.56,29.24-3.6,35.27-3.18c1.63,0.11,2.61,0.17,3.42,0.35"/><path d="M16.07,29.26c0.29,0.3,0.59,0.55,0.71,0.93c1.01,2.99,2.71,11.24,3.4,16.61"/><path d="M17.88,30.28c7.11-1.25,33.55-5.05,37.23-5.22c1.39-0.07,3.39,1.68,2.95,3.97c-0.72,3.78-1.56,8.82-3.26,14.25"/><path d="M28.94,19.61c0.77,0.47,1.29,2.12,1.39,3.08c0.3,2.84,0.51,13.49,1.22,20.12"/><path d="M44.42,16.29c0.77,0.47,1.16,2.6,0.8,4.73c-0.63,3.81-0.6,14.05-2.2,21.15"/><path d="M20.48,44.32c4.3-0.48,29.5-2.95,34.96-3.43"/><path d="M22.44,54.43c0.7,0.27,1.98,0.34,2.67,0.27c4.45-0.46,19.92-2.28,25.03-2.35c1.16-0.02,1.86,0.13,2.44,0.26"/><path d="M12.88,65.3c0.98,0.47,2.77,0.54,3.75,0.47c7.26-0.57,31.47-3.89,42.09-4.49c1.63-0.09,2.61,0.22,3.42,0.46"/><path d="M37.71,66.61c0.1,0.45,1.42,2.33,1.42,5.16c0,6.71-0.01,14.54-0.01,19.18c0,6.39-5.14,2.37-7.25,0.27"/><path d="M24.39,74.52c0.03,0.43,0.06,1.12-0.06,1.74c-0.72,3.67-5.36,9.17-12.7,14.52"/><path d="M50.94,74.42c3.51,2.53,9.24,10.1,10.12,14.03"/><path d="M71.77,26.33c0.98,0.92,1.67,1.99,1.76,5.02c0.4,14.55-0.02,31.19-0.02,36.15"/><path d="M89.27,13.33c0.98,0.92,1.67,1.99,1.76,5.02c0.4,14.55-0.26,63.66-0.26,68.62c0,13.14-7.21,1.5-8.71,0.25"/></svg>