<svg><path d="M38.52,10.83c0.98,0.92,1.51,2.42,1.51,4.52c0,5.9-0.02,8.19-0.02,13.15"/><path d="M41.1,19.52c6.65-0.77,9.65-1.27,13.11-1.88c1.09-0.19,3.04-0.14,4.29,0.11"/><path d="M21.18,32.43c0.7,0.7,1.03,1.7,1.03,2.84c0,22.48-2.95,40.98-11.95,53.39"/><path d="M22.74,33.6c1.76-0.22,2.82-0.4,4.38-0.83c9.13-2.51,23.13-5.51,29.7-5.74c10.29-0.36,2.18,6.11-0.38,7.91"/><path d="M27,42.52c1.3,0.43,2.96,0.15,4.24-0.07c4.96-0.84,11.52-3.18,16.89-4.43c1.62-0.38,2.62-0.64,4.37-0.5"/><path d="M37.25,32.43c0.54,0.54,0.81,1.57,0.81,2.27c0,2.8-0.06,4.55-0.06,7.49c0,3.19,0.88,4.08,6.58,4.08c1.85,0,5.84-0.25,7.43-0.76"/><path d="M27.7,55.49c1.18,0.26,2.75,0.25,3.55,0.14c5.43-0.71,13.34-2.46,19.4-3.5c1.52-0.26,3.1-0.63,4.5-0.28"/><path d="M39.82,56.74c0.11,0.94-0.21,1.73-0.94,2.38c-2.06,2.41-6.85,6.15-13.75,9.5"/><path d="M38.22,62.67c6.86,3.12,12.46,20.56,7.1,33.1c-1.6,3.76-5.93,0.63-6.78,0.03"/><path d="M39.62,66.94c0.13,0.88-0.03,1.71-0.63,2.34c-2.74,2.85-8.99,7.85-17.8,12.38"/><path d="M43.21,75.11c0.18,1.18-0.52,2.09-1.33,2.98c-3.64,4.02-10.03,8.93-21.4,14.79"/><path d="M56.92,57.86c0.08,0.82-0.12,1.57-0.6,2.26c-1.34,2.43-4.66,6.19-8.95,8.64"/><path d="M48.12,70.25c4.85,2.06,12.17,7.17,15.38,13.25"/><path d="M71.77,28.08c0.98,0.92,1.76,2.67,1.76,4.52c0,10.59,0.15,21.16,0.05,27.65c-0.04,2.43-0.07,4.4-0.07,5.75"/><path d="M88.27,13.83c1.39,1.39,1.76,2.92,1.76,5.02c0,17.4-0.01,64.66-0.01,69.62c0,11.91-7.21,1.5-8.71,0.25"/></svg>