<svg><path d="M36.98,12.75c0.07,0.79,0.34,2.11-0.15,3.17C33.7,22.65,24.83,36.79,10,46.29"/><path d="M37.17,19.04c8.61,4.06,17.14,9.33,22.42,15.32"/><path d="M28.14,36.59c0.41,0.18,1.15,0.19,1.55,0.18c3.11-0.05,16.11-2.49,18.61-2.28c0.67,0.06,1.08,0.08,1.42,0.17"/><path d="M16.53,48.91c0.25,0.32,0.51,0.58,0.62,0.98c0.87,3.15,2.31,11.83,2.91,17.48"/><path d="M17.71,50.58c6.4-1.44,11.84-2.49,14.8-2.9c1.08-0.15,1.73,0.9,1.58,1.78c-0.64,3.68-1.39,9.05-2.34,14.13"/><path d="M20.18,65.54c3.47-0.47,8.15-0.77,12.93-1.49"/><path d="M39.86,46.41c0.26,0.31,0.52,0.57,0.64,0.96c0.9,3.07,1.97,11.55,2.58,17.06"/><path d="M41.47,47.99c5.39-1.17,12.21-1.87,15.23-2.27c1.11-0.15,1.77,0.87,1.61,1.74c-0.66,3.59-2.42,8.92-3.39,13.89"/><path d="M43.2,63.23c3.55-0.46,8.55-1.23,13.33-1.45"/><path d="M27.55,70.54c0.17,1.06,0.11,2.08-0.12,2.76c-2.04,6.01-6.71,13.95-15.07,21.2"/><path d="M26.63,79.99c3.47,1.47,7.9,5.36,9.58,9.05"/><path d="M49.86,68.87c0.14,1.11,0.09,2.18-0.1,2.9C48.13,78.07,44.39,86.4,37.69,94"/><path d="M48.6,79.16c4.54,1.81,10.35,6.63,12.56,11.2"/><path d="M70.77,30.08c0.98,0.92,1.67,1.99,1.76,5.02c0.4,14.55-0.02,29.69-0.02,34.65"/><path d="M89.27,15.58c0.98,0.92,1.67,1.99,1.76,5.02c0.4,14.55-0.26,63.66-0.26,68.62c0,13.14-7.21,1.5-8.71,0.25"/></svg>