<svg><path d="M35.49,12.25c0.07,0.78,0.31,2.1-0.14,3.15c-2.9,6.68-11.11,20.71-24.85,30.14"/><path d="M36.67,18.54c7.74,4.06,15.42,9.33,20.17,15.32"/><path d="M25.14,36.59c0.41,0.18,1.15,0.19,1.55,0.18c3.11-0.05,17.11-2.49,19.61-2.28c0.67,0.06,1.08,0.08,1.42,0.17"/><path d="M15.03,48.41c0.25,0.32,0.51,0.58,0.62,0.98c0.87,3.15,2.31,11.83,2.91,17.48"/><path d="M16.21,50.08c6.4-1.44,11.84-2.49,14.8-2.9c1.08-0.15,1.73,0.9,1.58,1.78c-0.64,3.68-1.39,9.05-2.34,14.13"/><path d="M18.68,65.04c3.47-0.47,8.15-0.77,12.93-1.49"/><path d="M37.36,46.39c0.25,0.3,0.51,0.55,0.62,0.93c0.87,2.99,1.91,11.24,2.51,16.61"/><path d="M38.93,47.93c5.25-1.14,11.88-1.82,14.82-2.21c1.08-0.14,1.72,0.85,1.57,1.69c-0.64,3.49-2.35,8.69-3.3,13.52"/><path d="M40.61,62.76c3.45-0.44,8.32-1.2,12.96-1.41"/><path d="M27.05,70.04c0.17,1.05,0.11,2.06-0.12,2.73c-1.97,5.95-6.49,13.81-14.57,20.98"/><path d="M24.88,79.99c3.2,1.38,7.28,5.07,8.83,8.55"/><path d="M46.86,68.37c0.14,1.11,0.09,2.18-0.1,2.9c-1.63,6.3-5.37,14.63-12.07,22.23"/><path d="M46.35,79.91c3.28,1.41,7.47,5.15,9.06,8.7"/><path d="M60.54,25.31c1.24,0.82,3.28,1.09,4.39,0.94c9.32-1.25,21.23-3.16,26.14-4c3.19-0.55,4.61,1.64,4.44,5.47c-0.47,10.11-3.26,49.02-9.37,62.57c-3.71,8.21-6.38,6.21-9.88,1.26"/><path d="M76.77,28.21c0.06,1.47,0.08,3.79-0.11,5.9c-1.9,20.68-4.91,42.64-19.41,60.05"/><path d="M66.02,45.03c0.3,2.22-2.54,12.76-5.47,15.7"/></svg>