<svg><path d="M33.99,12.25c0.07,0.77,0.32,2.07-0.14,3.1c-2.93,6.58-11.22,20.4-25.1,29.69"/><path d="M35.67,18.54c6.88,4.06,13.7,9.33,17.92,15.32"/><path d="M23.14,36.59c0.41,0.18,1.15,0.19,1.55,0.18c3.11-0.05,16.11-2.49,18.61-2.28c0.67,0.06,1.08,0.08,1.42,0.17"/><path d="M14.03,48.41c0.25,0.32,0.51,0.58,0.62,0.98c0.87,3.15,2.31,11.83,2.91,17.48"/><path d="M15.21,50.08c6.4-1.44,10.84-2.49,13.8-2.9c1.08-0.15,1.73,0.9,1.58,1.78c-0.64,3.68-1.39,9.05-2.34,14.13"/><path d="M17.68,65.04c3.47-0.47,7.15-0.77,11.93-1.49"/><path d="M35.86,46.41c0.26,0.31,0.52,0.57,0.63,0.96c0.9,3.07,1.97,11.55,2.58,17.06"/><path d="M36.97,47.49c5.39-1.17,11.71-1.87,14.73-2.27c1.11-0.15,1.77,0.87,1.61,1.74c-0.66,3.59-2.42,8.92-3.39,13.89"/><path d="M39.2,62.73c3.55-0.46,8.05-1.23,12.83-1.45"/><path d="M25.06,70.04c0.15,1,0.1,1.97-0.11,2.62c-1.77,5.7-5.83,13.23-13.1,20.09"/><path d="M22.63,79.49c3.47,1.47,7.9,5.36,9.58,9.05"/><path d="M45.36,68.37c0.14,1.11,0.09,2.18-0.1,2.9c-1.63,6.3-5.37,14.63-12.07,22.23"/><path d="M43.6,79.41c3.64,1.61,8.29,5.89,10.06,9.95"/><path d="M58.18,26.4c1.34,0.83,3.02,0.57,4.21,0.45c8.56-0.85,17.82-3.24,23.14-4.09c3.46-0.55,5,1.66,4.8,5.55c-0.51,10.25-2.61,50.63-7.32,62.41c-3.42,8.55-5.41,5.81-8,0.26"/><path d="M71.34,28.33c0.05,1.48,0.07,3.81-0.09,5.93C69.71,55.04,65.52,76.1,55.5,94.61"/><path d="M57.57,39c1.44,0,1.8,1.07,2.45,1.89c7.72,9.64,27,36.36,36.23,43.83c2.25,1.82,3.73,3.15,5.75,3.78"/></svg>