<svg><path d="M18.33,38.59c2.69,0.56,5.31,0.16,8.07-0.3c6.35-1.05,12.97-2.3,19.6-3.03c2.26-0.25,4.43-0.52,6.62-0.04"/><path d="M34.8,15.5c0.97,0.97,1.13,2,1.13,3.02c0,7.98,0.09,35.81,0.09,38.53"/><path d="M13.25,59.5c2.75,0.37,5.5,0.3,8.24-0.19c9.26-1.36,19.74-2.75,27.9-3.43c3.03-0.31,6.07-0.28,9.11,0.1"/><path d="M35.47,61.63c0,1.24-0.36,2.68-0.71,3.28c-4.88,8.47-7.87,13.36-13.24,20.35c-2.29,2.98-1.05,4.12,2.26,3.1c6.98-2.15,13.9-4.73,23.72-7.86"/><path d="M44.28,70.35c2.9,2.81,7.5,11.54,8.22,15.9"/><path d="M60.1,42.17c3.02,0.78,5.95,0.73,8.78-0.14c6.92-1.9,13.92-4.35,18.95-5.61c3.8-0.96,5.91,1.58,5.77,5.24c-0.28,7.13-3.76,28.44-8.56,41.41c-4.42,11.94-7.03,11.7-10.3,5.4"/><path d="M74.85,16.93c0.68,1.38,0.97,2.17,0.87,3.58c-2.47,36.25-8.47,56.75-20.33,71.4"/></svg>