<svg><path d="M15.71,22.95c0.75,0.42,3.01,0.77,4.17,0.65c9.48-0.98,22.87-3.52,28.13-3.88c3.42-0.24,4.32,2.15,4.25,3.81c-0.24,5.46-2.71,19.58-7.77,26.65c-2.73,3.82-4.86,0.51-5.62-0.31"/><path d="M32.5,25.39c0.06,0.73,0.17,1.89-0.12,2.92C29.4,38.81,22.25,50,12.14,58.03"/><path d="M18,63.98c0.3,0.43,0.61,0.79,0.74,1.33c1.04,4.26,2.69,19.29,3.4,26.94"/><path d="M19.87,65.23c6.94-1.4,20.65-3.68,26.25-4.24c1.85-0.19,4.02,1.93,3.48,4.6c-0.99,4.9-2.35,13.27-3.49,20.15"/><path d="M22.28,90.01c4.13-0.63,17.14-3.23,25.11-3.65"/><path d="M56.91,34.97c1.84,0.28,3.35,0.62,5.36,0.36c8.48-1.08,20.93-3.84,25.21-4.09c4.27-0.24,4.58,2.04,4.37,5.19C91,49.25,86.75,76.25,79.8,88.03c-3.8,6.45-6.23,0.31-7.34-0.68"/><path d="M74.43,15.18c0.32,1.82,0.53,3.11,0.36,5.69C73,48,66.75,72.5,49.39,91.65"/></svg>