<svg><path d="M55.37,9.67c0.77,0.77,1.01,1.62,1.01,3.08c0,4.42,0.01,18.37,0.01,21.14c0,7.84-5.53,0.84-6.74,0.14"/><path d="M35.4,18.92c0.05,0.39,0.19,1.02-0.11,1.56c-2.15,3.88-11.24,11.37-18.63,14.95"/><path d="M79.75,16.75c5.59,2.41,11.75,7.62,14.5,12.34"/><path d="M73.83,24.33c0.16,0.87-0.28,2.01-1.07,3.24C66.25,37.74,41.18,54.17,15.75,61"/><path d="M32.08,63.45c2.26,0.81,5.56,0.79,7.93,0.47c10.46-1.4,29.97-4.06,36.36-4.77c4.35-0.49,5.78,1.04,5.02,5.27c-1.77,9.92-6.84,22.31-13.9,29.92c-4.8,5.18-7.55,0.21-8.9-0.46"/><path d="M56.64,47.43c0.36,1.07,0.29,2.4-0.19,3.97c-3.32,10.73-13.19,28.98-34.5,42.82"/></svg>