<svg><path d="M39.92,17.48c0.05,0.42,0.29,1.19-0.1,1.69C36,24,31,29.5,21.72,35.3"/><path d="M71.68,16.42c6.16,2.67,15.92,10.98,17.46,15.13"/><path d="M34.76,32.39c1.32,0.38,3.74,0.49,5.05,0.38c8.4-0.66,20.58-3.52,30.36-3.88c2.19-0.08,3.52,0.18,4.62,0.37"/><path d="M19.83,49.64c1.32,0.38,3.74,0.49,5.05,0.38c8.4-0.66,56.78-5.33,64.91-4.88c2.19,0.12,3.52,0.18,4.61,0.37"/><path d="M54.14,12.42c0.36,1.08,0.64,2.89,0.06,4.96c-5.86,20.96-15.53,40.29-37.34,57.04"/><path d="M60.64,35.98c4.54,5.79,24.1,24.72,29.12,28.96c1.7,1.44,3.88,2.06,5.58,2.47"/><path d="M33.91,68.01c1.19,0.35,2.69,0.31,3.73,0.19c8.5-0.96,30.25-3.53,34.96-3.88c3.06-0.23,3.92,1.04,3.75,2.66C75.9,71.25,71.88,84.68,67,92c-2.67,4-4.33,4-7.33,0"/><path d="M53.46,54.93c0.08,0.83,0.21,2.14-0.17,3.32c-2.8,8.77-9.54,31-29.09,38.29"/></svg>