<svg><path d="M12.57,23c1.01,0.47,3,0.57,4.02,0.44c6.45-0.81,24.29-2.62,31.46-3.37c1.68-0.18,3.51,0.25,4.35,0.48"/><path d="M31.16,11c0.94,0.5,1.69,2.23,1.69,3.25c0,7.25,0.03,14.5,0.03,20"/><path d="M13.8,34.88c0,3.2-2.5,11.98-3.64,14.12"/><path d="M13.65,37.24c8.05-0.99,31.25-4.53,35.39-4.9c6.47-0.59,4.46,3.66-0.74,8.28"/><path d="M19.8,48.65c0.66,0.24,1.92,0.63,2.93,0.42c1.22-0.26,16.39-4.76,17.55-4.76s2.43,0.74,1.26,2.21c-1.16,1.47-6.52,7.73-9.47,10.4"/><path d="M29.21,57.65C36.25,62,40.52,76.49,35.03,89.2c-3.01,6.95-6.16,5.22-8.92,0.51"/><path d="M15.33,73.42c0.92,1.33,2.61,1.53,4.54,0.71c4.13-1.74,24.38-10.87,30.4-13.46"/><path d="M60.28,41.97c1.47,0.28,2.97,0.53,4.81,0.36c7.61-0.69,21.51-4.34,25.1-4.59c3.58-0.24,3.69,2.03,3.66,5.19C93.75,53,88.25,79,80.75,91.03c-3.7,5.94-5.75,1.47-7.16-1.18"/><path d="M75.78,13.18c0.72,1.57,0.94,2.84,0.83,5.65c-0.86,22.93-9.83,61.4-29.97,77.08"/></svg>