<svg><path d="M17.14,19.11c1.48,0.26,3.44,0.18,4.52,0.07c2.96-0.31,18.45-3.67,20.67-4.16c2.22-0.48,3.18,1.75,1.9,3.37C41.5,21.88,36.5,29,33.38,32.85"/><path d="M23.8,27.98c2.83,1.18,10.17,5.7,11.51,8.78"/><path d="M12.23,42.58c1.65,0.42,2.9,0.54,4.82,0.32C23.27,42.15,36.09,39.31,42,38c11.25-2.5,2.88,6-0.5,10.25"/><path d="M32.09,42.84C34,53.5,35.12,71.25,33.58,88.73c-1.26,14.21-7.83,2.02-8.7,0.14"/><path d="M31.23,42.18c0,0.95-0.17,2.19-0.62,3.39C27,55.25,22.25,67,10.5,79.91"/><path d="M62.9,11.33c0.05,0.94,0.06,2.1-0.23,2.97c-1.6,4.93-4.53,13.59-9.67,20.04"/><path d="M62,25.05c1,0.08,1.87,0.08,2.35,0c5.4-0.92,14.35-3.59,19.82-4.9c1.05-0.25,2.62-0.46,3.67-0.18"/><path d="M76.96,27.26c0.17,0.86,0.06,1.91-0.53,3.33C71.75,42,62.12,53.62,48.65,59.06"/><path d="M58.33,36.19c5.01,0.94,19.02,11.35,28.45,17.49c1.85,1.2,3.85,2.33,5.9,3.38"/><path d="M49.3,70.15c1.5,0.64,3.95,0.55,5.55,0.32c9.53-1.35,24.71-3.96,28.23-4.35c2.54-0.28,3.42,1.29,3.11,3.25C85.25,75.25,82.25,88,76.1,94.23c-4.03,4.09-5.76,0.19-6.79-0.42"/><path d="M68.85,55.98c0.28,0.9,0.17,2.62-0.14,4.06c-2.32,10.72-9.33,29.58-24.73,38.14"/></svg>