<svg><path d="M14.03,29.66c2.6,0.59,4.66,0.28,6.74-0.02c7.48-1.07,20.34-3.13,29.99-4.19c2.47-0.27,4.83-0.68,7.25,0.02"/><path d="M24,17c0.94,0.94,1.15,2.25,1.15,3.62S25.16,59.75,25.16,65"/><path d="M45.31,13.78c0.83,0.83,0.94,1.97,0.94,3.47s0.09,39.38,0.09,44.96"/><path d="M26.19,40.37c2.5-0.4,17.13-2.13,18.89-2.13"/><path d="M26.19,53.05c4.44-0.55,14.44-2.3,19-2.58"/><path d="M10,67.05c2.29,0.95,5.56,0.46,7.9,0.09c10.34-1.63,24.9-3.56,34.84-4.56c2.71-0.27,5.33-0.62,8.01,0.05"/><path d="M33,68.25c0.26,0.29,0.41,1.29,0.26,1.86c-1.38,5.02-4,9.64-8.5,14.64"/><path d="M41.21,66.53c0.88,0.88,1.05,1.97,1.05,3.51c0,0.95-0.13,2.28-0.13,5.06c0,6.02,1.52,6.64,6.63,6.64s5.52-0.79,6.24-1.62"/><path d="M18.31,69.14c1.15,1.15,1.26,2.24,1.26,4.18c0,2.8-0.08,4.06-0.08,11.18S20.88,93,37.35,93c10.53,0,14.78-0.76,16.7-1.77"/><path d="M59.22,43.89c2.03,0.61,4.92,0.7,6.51,0.45c10.41-1.62,21.59-4.1,25.84-4.84c3.55-0.62,4.53,0.58,4.41,3.81c-0.44,11.87-4.24,34-8.79,46.75c-3.06,8.57-6.56,5.19-9.64,1.77"/><path d="M77.42,17.68c0.83,1.07,0.98,2.58,0.9,4.4c-0.95,20.8-3.95,54.3-19.46,73.33"/></svg>