<svg><path d="M21.5,17.68c3,2.32,6,8.57,6.25,12.31"/><path d="M47.73,13.87c0.63,0.45,0.34,2.11-0.24,2.81c-0.57,0.7-5.88,5.14-8.74,6.78"/><path d="M36.06,10.25c0.69,0.75,0.7,2.67,0.69,3.15C36.5,30.25,34.47,35.52,28,39.75"/><path d="M38.72,27.89c4.39,1.62,9.93,6.73,11.08,9.02"/><path d="M55.5,15.68C58,19.25,60,25,60.26,28.99"/><path d="M83.73,13.37c0.63,0.45,0.34,2.11-0.24,2.81c-0.57,0.7-6.88,4.64-9.74,6.28"/><path d="M69.34,10.25c0.91,0.69,0.91,1.54,0.91,1.99c-0.09,17.66-3,21.35-11.5,25.26"/><path d="M72.22,26.89c3.99,1.89,9.03,7.85,10.08,10.52"/><path d="M20.16,43.19c-0.14,3.93-3.48,14.22-4.66,16.56"/><path d="M20.22,47c3.53,0,50.25-4.75,67.97-4.75c12.06,0,3.81,5.75-0.69,9.5"/><path d="M27.98,63.55c1.35,0.47,3.02,0.35,4.22,0.25c11.29-0.93,36.76-3.87,42.15-4.04c5.37-0.17,5.68,1.41,5.49,3.61c-0.51,5.8-7.59,25.38-14.65,31.88c-5.36,4.95-7.44,1.49-8.74-0.97"/><path d="M53.73,50.18c0.09,1.08,0.24,2.79-0.2,4.33c-3.22,11.42-10.86,32.73-34.31,41.4"/></svg>