<svg><path d="M12.75,26.02c1.38,0.48,3.49,0.39,4.52,0.27c8.01-0.96,21.98-2.54,34.48-3.49c1.76-0.13,3.56-0.2,5.25,0.43"/><path d="M24.56,14.02c0.77,0.77,1.22,1.61,1.34,2.74c0.73,7.23,1.74,14.92,2,17.36"/><path d="M44.38,12.37c0.62,1.13,0.77,2.43,0.52,3.61c-1.29,6.07-2.15,10.52-3.74,17.93"/><path d="M16,39.77c0.74,0.74,1.32,1.33,1.42,2.34c0.7,4.14,1.39,8.15,2.06,12.31c0.17,1.07,0.34,2.1,0.5,3.04"/><path d="M18.37,41.27c8.43-1.11,23.51-2.54,29.75-3.11c2.35-0.21,4.33,0.7,3.49,3.62c-0.95,3.3-1.85,5.54-3.21,9.34"/><path d="M20.61,55.02c4.73-0.39,17.71-1.86,25.91-2.6c1.57-0.14,2.98-0.26,4.13-0.33"/><path d="M33.37,42c1,1,1.46,2.25,1.46,3.5c0,1.02,0.03,30.5,0.03,39"/><path d="M20,65.31c1.29,0.45,3.09,0.16,4.39,0.05c4.93-0.44,12.99-1.48,19.49-2.56c1.66-0.28,3.5-0.42,5.12-0.33"/><path d="M19.75,75.81c1.5,0.19,3.42,0.22,4.9,0.05c6.17-0.73,12.18-1.87,19.5-3.19c1.22-0.22,2.62-0.46,3.85-0.2"/><path d="M16.25,88.95c0.5,1.05,1.62,1.92,3.44,1.37c6.83-2.09,20.45-6.07,27.31-8.07"/><path d="M59.5,40.1c2.25,0.52,4.29,0.53,6.02,0.3c9.03-1.18,19.98-2.68,23.87-3.32c2.76-0.45,4.61,1.41,4.37,5.22c-0.52,8.38-8.01,41.45-13.07,47.36c-4.89,5.71-6.69,0.83-8.36-1.68"/><path d="M75.68,16.93c0.45,1.32,0.73,2.54,0.34,5.04C71.88,49,66,75.62,48.39,91.65"/></svg>