<svg><path d="M19.44,21.99c0.77,0.38,2.18,0.45,2.96,0.38c5.56-0.54,24.36-2.19,29.15-2.77c1.28-0.15,1.81-0.09,2.49-0.02"/><path d="M34.72,11.13c0.53,0.21,1.75,2.09,1.75,2.54c0,5.58,0.25,21.12,0.3,26.95"/><path d="M21.11,31.54c0.72,0.24,2.04,0.28,2.76,0.24c5.2-0.34,22.3-2.43,26.78-2.79c1.2-0.1,2.08-0.05,2.71-0.01"/><path d="M11.56,43.06c1.02,0.25,2.89,0.37,3.91,0.25c9.47-1.13,27.96-4.09,36.15-4.29c1.69-0.04,2.97-0.21,4.19,0.41"/><path d="M22.27,49.29c0.45,0.74,1.11,1.29,1.11,2.28c0,0.99-0.15,31.19,0,32.18"/><path d="M24.13,50.59c2.55-0.12,21.01-2.71,23.34-2.85c1.93-0.12,3.29,0.26,3.3,2.61c0.01,3.15-0.4,30.17-0.4,30.92"/><path d="M24.09,60.54c3.64,0,22.14-2.51,26.23-2.51"/><path d="M23.79,70.64c7.21-0.89,20.17-2.48,26.72-2.48"/><path d="M24.95,80.64c5.06,0,18.67-1.98,25.22-1.98"/><path d="M30.71,83.63c0.33,1.08-0.29,2.52-0.95,3.31C27.79,89.33,21.7,95.18,17.75,98"/><path d="M41.76,85.08c3.58,2.3,7.82,6.47,8.79,8.48"/><path d="M60.91,38.47c1.07,0.68,2.4,0.51,3.36,0.36c8.98-1.33,21.93-2.84,26.21-3.09c4.27-0.24,4.57,2.03,4.37,5.19C94,54.25,90,77.25,82.8,92.03c-3.28,6.73-6.23,0.31-7.34-0.68"/><path d="M76,13.68c0.75,0.82,0.85,1.37,0.81,4.15C76.5,38.25,70.25,79.75,54.89,95.9"/></svg>