<svg><path d="M23.09,12.66c0.62,0.26,0.13,2.07-0.1,2.68c-1.51,3.95-2.74,6.41-6.44,11.11c-0.64,0.81-0.37,0.7,0,0.89c4.61,2.3,5.58,5.51,8,10.19"/><path d="M37.3,12.66c0.62,0.26,0.13,2.07-0.11,2.68c-1.51,3.95-3.45,6.57-7.44,10.11c-0.77,0.68-0.37,0.7,0,0.89c4.61,2.3,7.5,6.16,9.05,10.19"/><path d="M50.74,12.16c0.62,0.26,0.07,2.05-0.1,2.68c-0.89,3.16-3.14,6.41-6.44,9.63c-0.74,0.72-0.34,0.66,0,0.89c3.56,2.39,6.56,5.64,8,9.67"/><path d="M17.38,42.18c0.47,0.51,1.14,1.13,1.14,1.82c0,0.69,3.21,19.02,3.21,19.37c0,0.35,0.08,0.35,0.17,1.04"/><path d="M18.61,43.32c1.41-0.09,29.96-3.08,31.25-3.08c1.69,0.01,2.39,2.01,2.31,2.52C52,43.8,49.25,58.5,47.97,62.52"/><path d="M19.82,53.04c1.9,0,27.62-2.56,29.77-2.56"/><path d="M22.47,62.81c3.88-0.37,20.4-1.72,25.23-2.03"/><path d="M10.71,72.57c0.5,0.17,1.82,0.46,3.15,0.52c3.65,0.17,28.94-3.34,39.55-3.68c1.33-0.04,1.66,0.17,2.49,0.35"/><path d="M33.94,44.6c0.77,0.39,1.23,1.77,1.38,2.55c0.15,0.78,0,45.69-0.15,50.59"/><path d="M34.97,71.94c-4.26,6.94-15.35,16.76-24.22,20.69"/><path d="M37.82,76.24c4.83,1.61,11.6,6.44,13.87,10.12"/><path d="M58.41,36.97c1.07,0.68,2.4,0.44,3.36,0.36c7.73-0.58,23.93-3.34,28.21-3.59c4.27-0.24,4.6,2.04,4.37,5.19C93.25,53.75,88,77.25,80.3,91.53c-3.55,6.59-6.23,0.31-7.34-0.68"/><path d="M77.43,14.18c0.82,1.08,1.18,2.12,0.86,4.69c-2.38,18.97-8.79,58.39-25.9,74.79"/></svg>