<svg><path d="M14.58,19.73c1.11,0.54,3.14,0.63,4.25,0.54c11.52-0.91,25.67-3.02,35.92-3.73c1.84-0.13,2.95,0.26,3.88,0.53"/><path d="M19.73,20.5c-0.98,29.75-2.82,48.07-12.67,65.47"/><path d="M23.33,32.07c0.88,0.43,1.9,0.43,2.79,0.43c5.63,0,21.63-3.75,28.46-3.72c1.47,0.01,2.35,0.21,3.08,0.42"/><path d="M31.27,24.19c0.93,1.18,1.23,1.53,1.33,2.26c0.93,6.77,1.2,9.42,1.46,11.88"/><path d="M45.93,22.75c0.6,0.82,0.99,2.07,0.8,3.28c-0.6,3.69-1,6.84-1.86,11.56"/><path d="M25.5,41.45c0.2,0.31,0.21,0.52,0.31,0.9c0.9,3.17,2.67,11.31,3.2,17.19"/><path d="M26.45,42.19c7.14-0.64,21.3-3.44,26.64-3.99c1.96-0.2,2.4,1.38,2.24,3.34c-0.26,3.18-1.19,9-2.34,15.23"/><path d="M27.96,49.56c2.33-0.26,24.38-2.75,26.31-2.83"/><path d="M28.62,57.72c7.3-1.1,17.32-2.45,24.43-2.85"/><path d="M22.38,65.11c0.59,0.34,1,1.34,1.04,2.01c0.2,3.31,1.37,19.97,1.7,23.64"/><path d="M23.42,66.16c4.66-0.79,31.52-4.03,32.45-4.08c1.4-0.08,2.62,1.05,2.58,3.12c-0.12,5.48-2.22,16.95-3.72,21.93c-1.57,5.24-3.83,3.61-5.56,0.66"/><path d="M39.33,42.55c0.3,0.6,0.78,1.19,0.78,2.28c0,4.79,0.13,29.7,0.13,31.17"/><path d="M30.55,78.83c0.81,0.81,1.71,1.24,2.42,0.9c2.02-0.95,10.32-5.3,14.55-7.04"/><path d="M45.72,68.62c1.75,1.53,4.52,6.39,4.96,8.86"/><path d="M63.01,40.31c1.09,0.55,2.45,0.48,3.4,0.29c7.09-1.36,21.89-3.56,26.18-4.12c2.79-0.36,3.77,1.66,3.41,4.19c-1.26,9.08-5.26,36.58-12.72,49.3c-2.97,5.07-6.32,0.25-7.45-0.55"/><path d="M78.21,15.18c0.54,1.32,0.65,1.28,0.38,3.92C76.53,38.69,70.75,79,56.64,93.65"/></svg>