<svg><path d="M40.5,11.5c0.07,0.89,0.35,2.35-0.13,3.56C37,23.5,32,35.75,17.25,49.13"/><path d="M38.5,27.01c1.29,0.79,3.1,1.06,5.16,0.53c2.06-0.53,39.5-5.03,44.66-5.29c5.16-0.26,6.2,2.65,5.42,8.2C92.97,36.01,89,76,78.19,93.62c-2.97,4.83-5.21,1.99-8.26-1.32"/><path d="M54.88,39.68c0.34,0.87,0.61,1.53,0.17,3.09c-3.96,13.88-11.17,26.32-20.93,32.48"/><path d="M37.02,50.42c8.48,4.33,17.48,11.83,22.33,20.34"/><path d="M26.97,52.44c0.45,0.27,1.11,3.02,1.01,3.56C27,61.25,25.75,72.5,25.34,81.13c-0.08,1.62,1.03,2.28,1.9,2.03c11.02-3.17,35.11-4.8,39.85-5.07"/><path d="M68.41,46.88c0.46,0.27,1.42,2.02,1.51,2.56c0.09,0.54-1.42,19.56-2.15,32.84"/></svg>