<svg><path d="M39.347137,4.4573948C39.427372,5.4742637,39.363184,6.8222064,38.785487,8.2292693C34.260199,19.237467,25.434283,33.568226,10.799308,46.882115"/><path d="M32.52711,29.193324C35.271168,29.725407,37.501718,29.630814,39.908786,29.441629C45.894362,28.980491,79.288421,25.705227,85.065384,25.433274C90.842348,25.16132,95.447872,26.130893,94.34062,31.865561C90.633735,51.008711,85.418421,74.964253,72.291876,94.225643C68.954075,99.120803,63.546195,98.316767,58.635776,93.445255"/><path d="M31.291482,43.275777C37.82266,45.238571,46.712765,50.275619,49.809859,54.366744"/><path d="M27.263654,76.891574C28.900461,77.411833,31.740801,77.435481,33.634362,76.371316C41.304885,72.04371,56.854546,64.062471,64.862059,60.054115"/></svg>