<svg><path d="M17.38,18.54c1.55,0.51,4.39,0.6,5.94,0.51c16.13-0.86,41.65-3.51,59.32-3.51c2.58,0,4.13,0.25,5.42,0.5"/><path d="M48.96,24.62c0.54,0.38,1.18,2.06,1.39,2.76c0.09,0.3,0,9.92,0.07,21.19C50.5,61.25,49.25,71.75,36.77,84"/><path d="M30.18,37.97c1.07,0.28,2.95,0.67,4.08,0.5c1.13-0.17,11.75-0.97,15.8-1.24"/><path d="M29.8,51.31c0.7,0.19,3.45,0.67,4.58,0.5c1.13-0.17,12.91-1.57,15.93-2.09"/><path d="M27.9,66.93c1,1.06,2.36,1.71,4.01,1.05c0.97-0.39,12.97-5.02,17.1-6.88"/><path d="M62.15,24.25c0.82,0.35,1.31,1.57,1.47,2.27c0.16,0.7,0,52.85-0.16,57.21"/><path d="M64.33,36.11c3.39-0.26,16.27-1.68,18.81-2.12c0.93-0.16,0.28-0.09,1.88-0.09"/><path d="M64.61,50.65c3.39-0.26,15.64-1.83,18.19-2.27c0.93-0.16,0.28-0.09,1.88-0.09"/><path d="M65.01,66.21c3.39-0.26,17.66-1.83,20.2-2.27c0.93-0.16,0.28-0.09,1.88-0.09"/><path d="M20.83,20.46c0,3.8,0,64.21,0,67.77c0,3.02,1.01,3.92,2.81,3.8c10.21-0.71,55.88-2.56,59.2-2.56c3.32,0,6.12,0.24,8.17,0.71"/></svg>