<svg><path d="M16.63,21.23c3.09,1.1,7.07,0.6,10.26,0.24c15.24-1.72,33.69-3.46,48.86-4.06c3.7-0.15,7.48-0.12,11.13,0.66"/><path d="M34.49,35.07c2.09,0.79,5,0.45,7.13,0.23c7.55-0.77,19.09-2.25,27.01-2.86c2.39-0.18,4.94-0.52,7.3,0.06"/><path d="M54.35,35.75c1.31,1.33,1.31,2.5,1.31,4.19c0,7.45-0.01,19.01-0.01,30.95"/><path d="M37.07,53.57c2.05,0.43,4.51,0.58,6.3,0.39c6.48-0.68,16.41-1.83,23.63-2.48c2.36-0.21,4.59-0.4,6.92,0.14"/><path d="M31,73.33c2.76,0.78,5.71,0.77,8.5,0.44c12.75-1.52,23.21-2.5,36.13-3.01c2.98-0.12,5.75-0.24,8.62,0.69"/><path d="M20.77,22.63c1.06,1.06,1.24,2.45,1.23,4.25C21.92,38.78,22.01,72.25,22.01,86c0,4.68,0.26,6.41,5.11,5.79C41,90,66.5,88.38,80.75,87.98c4.13-0.11,8.74-0.23,12.75,0.77"/></svg>