<svg><path d="M21.38,20.98c3.62,0.77,7.34,0.7,10.75,0.52c14.34-0.78,33.9-1.95,48.74-2.67c3.23-0.16,6.58-0.19,9.75,0.49"/><path d="M69.35,27c-0.35,0.88-1.02,1.63-1.69,2.18c-5,4.15-12.26,7.37-22.06,11.03"/><path d="M42.32,38.23c0.85,0.85,1.01,2.82,1.04,4.26C43.75,63.5,41.5,73.5,33.22,81.31"/><path d="M45.72,50.07c1.02,0,2.61-0.11,4.56-0.3c8.14-0.78,22.48-2.47,29.48-3.04c1.87-0.15,3.98-0.49,5.83-0.15"/><path d="M65.07,51.33c0.86,0.86,1.14,2.3,1.14,3.68c0,0.54-0.04,12.85-0.05,22.12c0,1.77,0,3.43,0,4.88"/><path d="M23.75,21.75c0.81,0.81,1.15,2.25,1.15,3.51c0,13.31-1.37,54.01-1.62,63.62c-0.07,2.85,0.33,4.92,3.71,4.38c11.81-1.89,39.12-4.5,57.62-4.13c3.4,0.07,6.58,0.56,9.88,1.38"/></svg>