<svg><path d="M17.38,16.04c1.55,0.51,4.39,0.6,5.94,0.51c16.13-0.86,42.15-3.51,59.82-3.51c2.58,0,4.13,0.25,5.42,0.5"/><path d="M53.03,21.25c0.07,0.73,0.31,1.95-0.14,2.93C50.01,30.39,41.85,43.44,28.2,52.2"/><path d="M54.2,24.16c4,4.03,21.26,17.2,25.67,20.15c1.5,1,3.42,1.43,4.92,1.72"/><path d="M42.32,45.35c0.48,0.18,1.36,0.18,1.84,0.18c3.68-0.05,19.04-2.45,21.99-2.25c0.8,0.05,1.28,0.08,1.68,0.17"/><path d="M34.36,55.08c0.26,0.23,0.53,0.42,0.65,0.71c0.91,2.29,2.41,8.6,3.03,12.7"/><path d="M35.6,56.29c6.66-1.04,12.83-2.17,15.92-2.47c1.13-0.11,1.8,0.65,1.64,1.3c-0.67,2.67-1.45,6.08-2.44,9.77"/><path d="M38.17,67.17c3.62-0.34,9.52-1.42,14.48-1.95"/><path d="M59.84,51.98c0.25,0.25,0.51,0.46,0.63,0.78c0.88,2.51,1.94,9.43,2.54,13.94"/><path d="M61.42,53.28c5.31-0.96,13.03-2.03,16.01-2.36c1.09-0.12,1.74,0.71,1.59,1.42c-0.63,2.87-2.37,6.74-3.36,10.94"/><path d="M63.13,64.73c3.5-0.37,9.82-1.02,14.62-1.59"/><path d="M45.73,68.78c0.16,0.87,0.1,1.71-0.12,2.27C43.67,76,39.23,82.54,31.27,88.5"/><path d="M44.32,76.33c3.42,1.25,7.79,4.56,9.45,7.7"/><path d="M70.2,67.25c0.15,0.91,0.19,1.82-0.11,2.36C67.25,74.75,63,81.5,56.99,87.75"/><path d="M67.95,75.57c5.1,1.8,11.63,6.59,14.11,11.12"/><path d="M20.83,16.96c0,3.8-0.5,71.71-0.5,75.27c0,3.02,1.01,3.92,2.81,3.8c10.21-0.71,58.38-3.06,61.7-3.06c3.32,0,6.12,0.24,8.17,0.71"/></svg>