<svg><path d="M 17.88,20.29 c 1.91,0.51 5.41,0.64 7.31,0.51 17.69,-1.18 38.69,-3.05 58.21,-3.51 3.18,-0.08 5.08,0.25 6.67,0.5"/><path d="M 48.05,26.75 c 0.04,0.48 0.07,1.24 -0.07,1.93 -0.85,4.08 -6.22,14.11 -11.57,17.82"/><path d="M 47.12,38.02 c 1.17,0.28 3.33,0.41 4.48,0.28 6.77,-0.8 13.54,-1.92 21.98,-3.32 1.9,-0.32 3.64,-0.32 4.61,-0.18"/><path d="M 32.39,56.74 c 2.47,0.48 5.17,0.4 7.67,0.17 10.06,-0.92 26.6,-2.98 38.22,-3.8 2.76,-0.19 5.72,-0.24 8.33,0.07"/><path d="M 57.92,40.43 c 0.58,1.07 0.81,2.39 0.81,3.53 C 58.75,61.25 52.25,74 36.06,81.18"/><path d="M 61.03,60.17 C 66.83499,67.883722 79.23773,77.927914 87.25,81"/><path d="M 21.83,21.46 c 0.67,1.54 1,3.26 1,5.79 0,14.77 -0.33,47 -1.5,60.48 -0.26,3 1.01,3.97 2.81,3.8 16.11,-1.53 44.49,-2.91 60.2,-2.56 3.32,0.07 6.12,0.24 8.17,0.71"/></svg>