<svg><path d="M17.38,23.09c3.05,0.97,6.26,0.86,9.38,0.52c15.15-1.67,35.99-4.36,52.87-4.98c3.6-0.13,6.71-0.04,10.25,0.64"/><path d="M45.27,29.25c1.05,1.05,1.42,2.46,1.42,3.98c0,13.02-3.31,32.27-15.19,41.02"/><path d="M64.99,27.37c1.2,1.2,1.38,2.59,1.38,4.43c0,8.45-0.1,17.83-0.1,27.95c0,8.12,0.98,9.53,10.58,9.53c8.9,0,10.9-1.03,12.15-2.37"/><path d="M21.75,24.9c0.5,0.85,1,2.22,1,4.1c0,12.97-1.5,52.62-1.5,57.48c0,2.38,0.94,3.79,3.37,3.51C38.05,88.42,70.5,85.75,86,85.95c3.25,0.04,6,0.22,8,0.67"/></svg>