<svg><path d="M51.27,10.14c0.03,0.33,0.07,0.84-0.07,1.31c-0.62,2.1-3.46,6.12-7.58,9.55"/><path d="M28.49,23.73c0.76,0.76,1.18,1.76,1.43,3.25C31.12,34,32.1,41.63,33.01,50c0.19,1.74,0.37,3.41,0.53,4.96"/><path d="M30.45,25.17c14.17-2.17,33.42-4.8,45.69-5.88c3.51-0.31,4.36,1.2,4.11,3.95c-0.39,4.33-2.03,14.19-3.49,22.5c-0.31,1.77-0.61,3.46-0.9,5"/><path d="M52.7,24.75c1.02,1.03,1.37,2.17,1.37,2.99c0,4.51-0.07,17.09-0.07,21.14"/><path d="M32.83,38.36c10.23-1.47,37.07-4.29,44.13-4.72"/><path d="M34.45,51.79c13.55-1.67,26.43-3.04,40.92-3.54"/><path d="M46.22,54.18c0.07,0.96,0.02,1.6-0.38,2.49c-1.91,4.23-5.54,10.26-10.22,16.08"/><path d="M15.75,75.5c2.86,1.1,6.03,1.01,8.98,0.63c18.21-2.34,44.49-5.02,61.26-5.65c3.31-0.12,7.24-0.1,10.51,0.65"/><path d="M62.87,54.75c1.07,1.06,1.21,2.25,1.21,3.5c0,0.64,0.02,23.95,0.03,35.5c0,3.37,0,5.74,0,6.25"/></svg>