<svg><path d="M10.75,43.28c1.69,0.46,3.66,0.26,5.4,0.11c6.1-0.53,14.22-2.39,20.81-3.46c1.53-0.25,3.25-0.21,4.04-0.09"/><path d="M25.62,17.5c0.88,0.88,1.46,2.48,1.46,3.5c0,8.41,0.02,47.7,0.03,67c0,3.08,0,5.64,0,7.5"/><path d="M47.42,28.61c1.95,0.84,3.8,1.03,5.84,0.82c8.74-0.92,26.03-4.34,29.22-4.69c2.32-0.26,2.96,1.16,2.84,2.97c-0.34,4.76-5.96,18.49-9.57,21.71c-2.7,2.41-3.38,1.3-6.19-0.39"/><path d="M66.37,12c0.47,1.09,0.64,2.25,0.4,3.64c-1.79,10.27-7.3,26.67-19.02,37.24"/><path d="M35.82,70.33c0.86,0.41,3.76,0.66,4.69,0.49c6.14-1.14,16.76-3.12,19.28-3.43c1.88-0.23,2.4,1.04,2.3,2.65c-0.28,4.26-5.89,19.17-8.82,22.05c-2.21,2.17-2.8,1.12-5.01-0.35"/><path d="M49.5,58.43c0.38,1.2,0.38,2.31,0.14,3.58c-1.76,9.46-4.89,24.87-17.51,33.56"/><path d="M68.84,66.61c0.83,0.46,3.21,0.49,4.16,0.27c5.91-1.35,16.1-4.04,18.56-4.4c1.81-0.26,2.88,0.92,2.71,2.71c-0.89,9.05-5.52,22.3-9.22,27.71c-1.84,2.68-2.56,1.35-4.81-0.39"/><path d="M80.53,55.43c0.6,0.95,0.59,2.15,0.39,3.49c-1.42,9.46-6.04,26.83-19.42,35.83"/></svg>