<svg><path d="M52.81,11.13c0.9,0.9,1.51,2.12,1.51,3.37c0,0.67,0,12.75,0,19.13"/><path d="M57,24.5c3.62-0.62,8.38-1.5,15.25-2.77c2.08-0.38,3.76-0.4,5-0.48"/><path d="M33.91,35.78c1.03,1.03,1.47,2.36,1.7,4c0.5,3.47,1.96,13.09,2.61,19.19c0.19,1.76,0.3,3.19,0.31,4.03"/><path d="M35.8,37.03c4.92-0.66,27.99-3.46,37.2-4c4.18-0.24,6.48,0.56,5.51,5.25c-0.76,3.69-2.09,10.51-3.22,16.28c-0.35,1.77-0.72,3.44-1.13,4.89"/><path d="M37.39,48.2c9.11-1.08,28.11-2.7,38.35-3.09"/><path d="M39.51,60.27c11.99-1.39,25.99-2.39,34.22-2.69"/><path d="M16.63,75.66c2.77,0.89,6.52,0.7,9.37,0.41c16.1-1.63,46.09-3.65,60-3.98c3.23-0.08,6.21,0.05,9.38,0.66"/><path d="M54.73,61.25c1.13,1.13,1.22,2.38,1.22,4.24c0,0.87,0.07,16.75-0.01,27.01c-0.02,2.74-0.04,5.05-0.06,6.5"/></svg>