<svg><path d="M52.72,11.25c1.02,1.02,1.53,2.25,1.53,3.44c0,3.41-0.27,5.94-0.11,8.82"/><path d="M24.45,26.31c2.52,0.57,5.57,0.35,7.22,0.19c12.83-1.24,33.45-2.99,47.31-3.66c2.79-0.14,4.47,0.04,6.56,0.55"/><path d="M39.5,32.24c0,0.61-0.09,1.39-0.44,2.09c-2.05,4.04-9.3,12.42-18.3,17.97"/><path d="M39.62,40.62c3.39,1.6,7.72,5.85,9.38,9.88"/><path d="M70,30.74c0,0.61,0.16,1.38-0.17,2.08c-1.66,3.54-5.92,9.98-13.82,16.34"/><path d="M70.38,39.25c7.38,2.62,14.5,7,18.62,11.75"/><path d="M14.88,67.59c2.46,0.54,6.98,0.76,9.42,0.54c18.45-1.63,47.82-3.63,61.72-3.98c3.88-0.1,6.23,0.34,8.6,1.03"/><path d="M52.84,55c1.02,1.02,1.73,2.38,1.73,4.23c0,4.77-0.11,20.96-0.15,32.89c-0.01,2.92-0.02,5.35-0.02,6.88"/></svg>