<svg><path d="M27.38,28.25c1.82,0.38,4.2,0.45,7.22,0.2c11.52-0.95,28.37-3.2,40.58-3.7c3.03-0.12,4.92-0.23,6.82,0"/><path d="M52.35,10.75c0.95,0.95,1.55,2.86,1.55,3.96c0,7.3,0,19.47,0,28.54"/><path d="M20.25,45.75c1.25,1.25,1.89,2.74,2,5c0.19,4.06,0.83,27.03,1.12,37.99c0.08,3.23,0.13,5.48,0.13,6.01"/><path d="M22.78,47.6c16.31-1.76,59.32-6.35,60.97-6.35c5,0,6.25,1.62,6.25,6.75c0,5.25-0.25,37.3-0.25,43.05c0,7.7-3.5,6.45-9.5,0.95"/><path d="M38.5,49.38c2.58,1.74,6.66,7.14,7.31,9.84"/><path d="M66.25,45.5c0.05,0.89-0.07,1.75-0.37,2.59c-0.8,2.73-2.75,6.92-5.26,9.66"/><path d="M34.78,61.67c1.81,0.39,4.55,0.55,6.36,0.39c9.11-0.8,18.63-1.54,27.63-2.39c2.99-0.28,4.83-0.32,6.33-0.12"/><path d="M33.13,74.19c1.81,0.49,4.55,0.83,6.38,0.74c10.73-0.56,22.66-1.94,31.04-2.66c3-0.26,4.82-0.02,6.33,0.23"/><path d="M53.5,62.5c0.75,0.75,1,2.14,0.99,3.5c-0.04,6.22-0.15,18.46-0.21,25.26c-0.02,2.19-0.03,3.81-0.03,4.49"/></svg>