<svg><path d="M40.07,13c0.16,0.98-0.28,1.86-1,2.54c-4.45,4.21-8.32,6.46-18.07,11"/><path d="M18.12,25.01c1.06,1.06,1.03,2.24,1.03,3.24c0,0.93-0.02,33.33-0.02,35.62c0,3.53,1.25,3.38,3.72,2.02c6.52-3.57,13.66-7.15,19.16-9.4"/><path d="M42.22,28.18c1.24,1.24,1.42,2.45,1.42,5.14c0,16.44,2.86,42.44-15,57.59"/><path d="M59.5,20.24c2.1,1.18,4.37,0.77,6.63,0.53c5.58-0.59,18.79-2.17,20.56-2.35c2.14-0.21,5.35-0.43,5.56,4.07c0.1,2.15-1.2,26.56-3.42,36.38c-2.58,11.38-6.63,2.07-7.28,1.64"/><path d="M62.22,21.61c1.03,1.02,1.31,1.89,1.31,3.64c0,11.54,0.19,47.64,0.08,63.48c-0.03,3.7-0.06,6.31-0.09,7.27"/></svg>