<svg><path d="M22.1,29.68c1.92,0.36,3.85,0.48,5.8,0.36c8.04-0.71,13.77-1.82,20.09-2.75c2.01-0.31,4.03-0.48,6.07-0.51"/><path d="M37.03,11.5c0.98,0.98,1.23,2.5,1.23,3.92c0,13-0.01,14.01-0.01,31.2"/><path d="M15.13,49.73c2.87,0.72,5.7,0.48,8.62,0.02c10.74-1.69,19.88-2.87,30-3.51c2.33-0.15,5.11-0.24,7.38,0.33"/><path d="M21.54,70.68c2.21,0.79,4.45,0.65,6.84,0.37c7.47-0.88,16.12-2.3,22.63-3.37c1.92-0.32,4.21-0.38,6.06,0.11"/><path d="M38.18,53.12c0.79,0.79,1.02,2.01,1.02,3.39c0,12-0.08,16.26-0.08,32.12"/><path d="M16.63,96.22c1.25,0.65,2.81,0.62,3.79,0.25C35.5,90.88,40.75,89,57.31,82.7"/><path d="M69.81,11.38c1.28,1.28,1.26,2.87,1.26,4.25c0,0.73,0,49.94,0,72.37c0,5.46,0,9.36,0,10.63"/><path d="M74.38,44c7.88,4.38,18.33,11.16,20.38,17.88"/></svg>