<svg><path d="M45.5,10.5c0.06,0.54-0.17,1.49-0.62,2.18c-3,4.57-12.38,15.07-23.13,22.32"/><path d="M42.25,17.63c2.84,0,17.7-1.87,20.69-2.15c2.56-0.24,3.37,2.31,2.31,3.51c-4.88,5.5-8.62,10.88-15.5,19"/><path d="M23.69,41.32c2.59,0.79,6.19,0.66,8.83,0.28c12.74-1.85,26.24-3.85,42.49-5.37c3.03-0.28,5.64-0.6,8.63-0.05"/><path d="M25.72,42.17c0.81,0.81,1.2,2.04,1.18,3.75c-0.15,12.46-1.78,33.46-12.09,47.58"/><path d="M37,52.25c1.38,0.62,2.8,0.77,4.64,0.58c7.98-0.83,22.54-2.8,24.82-3.17c3.75-0.6,6.19,1.31,6.04,3.73c-0.25,4.11-3.43,14.92-5.85,20.21c-2.32,5.06-5.9,1.02-7.49-0.41"/><path d="M39.74,53.8c0.86,0.86,1.34,2.2,1.34,3.84c0,9.87,0.04,19.21,0.04,25.92c0,11.69,2.75,13.65,24.44,13.65c23.44,0,24.82-2.21,24.82-11"/></svg>