<svg><path d="M42.38,13.25c0,1.25-0.6,2.34-1.37,3.09c-3.98,3.91-9.81,7.29-20.2,12.13"/><path d="M17.87,29.75c0.88,0.88,1.46,2.38,1.46,3.75c0,3.04-0.14,23.52-0.2,34.75c-0.01,2.61-0.02,4.73-0.02,6"/><path d="M20,49c9-1.62,17.62-3.75,19.5-4c1.51-0.2,2.88-0.25,4.25,0"/><path d="M19.75,71.5c8.88-1.88,19.38-4,21.55-4.25c1.31-0.15,2.88-0.25,4.2,0.03"/><path d="M57.5,26.16c1.5,0.44,2.81,0.38,3.91,0.29c7.97-0.72,21.75-2.92,26.68-3.46c3.21-0.35,4.01,1.59,3.92,4.06C91.5,40.35,88.5,54.49,83.4,65.43c-2.17,4.66-5.52,1.7-8.3-1.52"/><path d="M60,27c0.81,0.81,1.25,2.43,1.25,3.88c0,11.58,0,47.58,0,62.12c0,2.8,0,4.82,0,5.75"/></svg>