<svg><path d="M36.58,13c0.16,1.17-0.36,2.32-1.25,3.2c-4.09,4.05-7.21,6.18-15.34,10.1"/><path d="M16.87,24.76c1,1,1.22,2.24,1.22,3.62C18.08,29.28,18,57.46,18,63c0,1.99,0.53,3.89,2.48,2.35c1.96-1.54,5.77-4.48,10.14-7.23"/><path d="M31.81,31.43c1.32,1.32,1.81,3.15,1.81,5.18c0,30.02-1,44.64-16.73,55.55"/><path d="M54.38,13.08c0.16,0.45,0.34,1.04,0.2,1.67c-0.82,3.75-1.65,6.69-3.35,8.96"/><path d="M42.77,25.33c0.89,0.89,1.22,2,1.22,3.24c0,0.96-0.07,39.71-0.05,57.81c0.01,5.31,0.02,8.84,0.05,9.12"/><path d="M44.87,26.77c1.65-0.13,10.79-1.94,15-2.7c3.41-0.62,4.55,0.75,4.2,4.06c-0.42,3.99-1.36,13.37-2,19.49c-0.23,2.24-0.43,4.04-0.54,4.98"/><path d="M45.47,38.61c4.15-0.61,12.78-1.74,16.48-2"/><path d="M45.1,52.45c5.57-0.67,8.82-1.36,15.76-1.94"/><path d="M45.05,67.93c2.77-0.25,9.91-1.67,14.58-2.29c1.49-0.2,3.06-0.3,4.55-0.01"/><path d="M45.05,84.55c3.47-0.24,9.53-1.74,14.58-2.23c1.85-0.18,3.78-0.26,5.64,0.03"/><path d="M70.08,24.59c1.29,0.53,2.71,0.54,3.92,0.41c3.72-0.41,11.76-1.87,15.09-2.44c3.29-0.56,5.51,0.02,5.29,3.96c-0.27,4.8-2.05,25.94-3.44,33.26c-2.12,11.09-5.44,2.72-6.19,1.27"/><path d="M73.98,26.15c0.94,0.94,1.06,1.98,1.06,3.57c0,0.8-0.03,35.66-0.04,54.53C75,86.03,75,94.31,75,95.38"/></svg>