<svg><path d="M37.76,15.64c0.05,0.44,0.1,1.15-0.1,1.78c-1.14,3.76-7.42,10.17-16.6,17.04"/><path d="M69.77,15.08c5.32,2.23,12.96,8.66,14.29,12.13"/><path d="M33.25,32.89c0.94,0.38,2.66,0.49,3.6,0.38c5.98-0.66,26.65-3.52,34.11-3.88c1.56-0.08,2.5,0.18,3.29,0.37"/><path d="M17.25,49.7c1.52,0.54,4.31,0.69,5.82,0.54c7.68-0.74,48.68-5.99,64.61-6.23c2.53-0.04,4.05,0.26,5.31,0.53"/><path d="M53.21,11.75c0.78,0.95,1.27,2.37,0.83,4.49C51.38,28.86,42.48,61.42,14.5,74.25"/><path d="M58,36.5c2.5,0.5,25.88,23.6,31.26,27.65c1.83,1.38,4.17,1.96,5.99,2.35"/><path d="M39.65,63.22c0.68,0.11,2.48,0.34,3.86,0.25c5.36-0.34,20.72-3.8,22.54-4.19c2.73-0.59,4.5,1.03,4.39,3.39c-0.18,4.01-1.51,11.49-5.1,17.86c-2.62,4.65-4.94,0.56-5.45,0.34"/><path d="M40.87,63.57c0.92,1.37,0.75,2.56,0.75,4.67c0,12.58,0.27,9.82,0.27,16.22c0,12.86,2.55,13.25,21.96,13.25c20.16,0,22.78-1.08,22.78-10.49"/></svg>