<svg><path d="M26.8,17.97c2.78,0.45,5.69,0.2,8.47-0.1c16.2-1.75,31.6-3.75,42.24-4.47c2.8-0.19,5.46-0.09,8.24,0.18"/><path d="M29.44,18.62c0.72,0.72,1.23,1.76,1.13,3.28c-1.82,25.47-3.82,43.59-20.01,59.67"/><path d="M40.02,27.47c1.07,1.07,1.61,2.16,1.87,3.63c0.63,3.58,1.45,10.14,2.32,15.26c0.19,1.13,0.39,2.2,0.59,3.14"/><path d="M42.69,29.06c7.31-1.44,28.72-3.87,34.33-4.22c3.48-0.22,5.36,1.59,4.7,4.45c-1.27,5.51-2.08,9.19-3.64,14.03c-0.4,1.25-0.85,2.57-1.37,4.03"/><path d="M44.08,38.42c9.42-1.17,28.79-3.3,34.97-3.21"/><path d="M45.69,48.2c6.93-0.7,23.06-2.44,30.6-2.77"/><path d="M41.45,58.28C43,59,45.24,59.14,46.75,59c5.5-0.5,18.34-3.31,23.29-4.25c3.96-0.75,5.09,1.38,1.89,3.91c-1.77,1.4-5.55,4.09-10.67,7.59"/><path d="M59.28,66.62c4.64,3.73,7.06,19.1,3.49,28.16c-2.21,5.6-6.42,0-8-1.65"/><path d="M24.81,77.86c3.5,1.51,8.06,0.69,11.69,0.3c11.87-1.29,34.72-4.11,47.01-4.67c3.23-0.15,6.71-0.37,9.8,0.75"/></svg>