<svg><path d="M22.88,18.66c2.74,0.98,5.94,0.75,8.76,0.53c14.9-1.13,30.75-3.07,47.11-3.48c3.15-0.08,6.28-0.23,9.38,0.43"/><path d="M26.99,20.5c1.01,1.01,1.24,2.11,1.15,4C27.25,42.75,25,73.75,10.81,87.97"/><path d="M37.01,33.95c0.83,0.83,1.24,2.05,1.43,3.26c0.97,6.29,1.86,13.04,2.65,20.25c0.19,1.71,0.37,3.38,0.53,4.95"/><path d="M38.56,34.85c11.61-1.22,30.19-2.98,40.67-3.81c3.88-0.31,4.81,1.2,4.35,4.59c-0.6,4.45-1.93,11.73-2.96,18.17c-0.35,2.2-0.7,4.28-1.02,6.09"/><path d="M40.98,47.36c10.15-1.11,33.15-2.99,40.12-3.16"/><path d="M42.47,60.85c12.28-1.35,27.03-2.47,36.63-2.79"/><path d="M58.54,35.28c0.91,0.91,1.31,2.35,1.31,4.06c0,13.03-0.1,46.5-0.1,50.17"/><path d="M39.77,76.17c2.48,0.58,4.61,0.33,6.62,0.06c9.36-1.24,21.23-2.61,29.23-3.04c2.14-0.12,4.65-0.05,6.75,0.45"/><path d="M26.46,92.11c2.57,0.93,6.29,0.7,8.94,0.44c13.36-1.3,31.73-2.8,47.48-3.15c2.81-0.06,5.66,0.06,8.43,0.66"/></svg>