<svg><path d="M21.13,19.73c2.12,0.27,4.31,0.68,5.82,0.54c16.8-1.52,39.3-4.02,54.61-4.73c2.53-0.12,4.05,0.26,5.31,0.53"/><path d="M25.5,20.5c0.5,1.5,0.51,1.9,0.43,4.36C25.25,44.5,23.5,75.75,12.81,92.47"/><path d="M31.51,44.17c0.73,0.46,2.05,0.47,2.79,0.46c7.2-0.13,22.7-3.13,30.73-3.94c1.21-0.12,1.94,0.22,2.54,0.45"/><path d="M49.75,26.75c0.5,1.5,0.65,1.63,0.68,4c0.14,11.16-5.93,48-27.26,64.26"/><path d="M51.3,56.44c0.86,1.21,1.14,1.92,1.19,3.79c0.23,8.36-0.21,17.21-0.21,22.89c0,12.86,4.66,12.14,20.47,12.14c18.14,0,21.88-1.65,21.88-9.68"/><path d="M83.73,29.5c0.05,0.59,0.3,1.63-0.11,2.36c-3.04,5.44-9.11,14.73-19.34,21.75"/><path d="M87.88,46.39c0.07,0.55,0.23,1.51-0.13,2.22c-2.45,4.85-12.4,15.64-22.49,21.23"/><path d="M89.62,65.68c0.08,0.54,0.16,1.39-0.15,2.16c-1.84,4.55-12.38,14.53-26.81,20.64"/><path d="M60.16,25.46c2.61,1.35,6.75,5.57,7.4,7.68"/></svg>