<svg><path d="M23.13,15.23c1.57,0.54,4.45,0.63,6.02,0.54c16.33-0.91,41.66-3.02,57.49-3.73c2.61-0.12,4.18,0.26,5.49,0.53"/><path d="M27.42,16.5c0.58,1.56,0.6,1.98,0.5,4.52c-0.79,20.39-2.84,52.84-15.36,70.19"/><path d="M34.69,26.69c1.1,0.34,3.13,0.47,4.23,0.34c10.33-1.28,29.83-4.03,42.55-4.36c1.84-0.05,2.94,0.16,3.86,0.33"/><path d="M57.43,26.36c0.32,0.09,0.7,1.49,0.58,1.8c-1.04,2.5-1.96,4.2-5.08,6.53"/><path d="M41.25,36.11c0.54,0.58,1.34,1.92,1.34,2.7s1.32,23.34,1.5,24.12"/><path d="M42.5,37.26c3.08-0.1,28.55-2.98,31.36-3.09c2.33-0.1,3.97,0.75,3.98,3.07c0,0.95-0.99,14.52-0.99,23.32"/><path d="M43.44,44.77c6.07-0.13,29.2-2.37,34.13-2.37"/><path d="M43.7,52.59c8.15-0.33,25.11-2.3,33.02-2.3"/><path d="M44.49,60.52c6.11,0,24.15-1.51,32.06-1.51"/><path d="M52.02,62.72c0.06,0.54,0.26,1.46-0.12,2.19C49.5,69.5,41.5,78.5,30.05,85.83"/><path d="M51.73,70.71c0.38,0.03,1.67,0,2.75-0.08c3.57-0.24,12.48-2.14,17.58-2.89c3.5-0.51,3.57,1.49,2.68,2.88c-4.9,7.62-24.44,23.44-45.99,28.87"/><path d="M46.02,73.71c5.99,4.08,31.45,18.7,39.52,22.42c2.41,1.11,4.36,1.65,6.7,1.98"/></svg>