<svg><path d="M21.13,19.23c1.52,0.54,4.3,0.63,5.82,0.54c15.8-0.91,42.8-4.02,58.11-4.73c2.53-0.12,4.05,0.26,5.31,0.53"/><path d="M24.5,20c0.5,1.5,0.51,1.9,0.43,4.36C24.25,44,22.5,75.25,11.81,91.97"/><path d="M34.38,30.3c0.33,1.19,0.82,2.07,0.82,3.65c0,1.58-0.11,44.48,0,46.06"/><path d="M35.76,31.78c1.89-0.2,16.26-3.22,17.98-3.46c1.43-0.2,2.56,1.1,2.44,2.57c-0.15,1.86-0.67,45.64-0.67,46.82"/><path d="M35.72,46.42c3.9-0.6,14.05-2.2,19.01-2.69"/><path d="M35.88,60.95c5.74-0.79,12.81-1.45,18.63-1.85"/><path d="M36.36,77.2c4.53-0.86,12.86-2.03,18.63-2.37"/><path d="M40.74,81.63c0.31,1.13,0.58,1.41,0,2.26c-2.61,3.82-7.21,8.59-10.95,11.53"/><path d="M50.38,82.26c4.51,3.73,9.83,10.5,11.06,13.77"/><path d="M69.81,33.44c1.01,0.88,1.72,1.9,1.8,4.81c0.41,13.95-0.02,30.51-0.02,35.27"/><path d="M87.72,26.33c1.01,0.88,1.72,1.9,1.8,4.81c0.41,13.95-0.26,53-0.26,57.75c0,9.35-4.12,4.34-8.94,0.24"/></svg>