<svg><path d="M20.13,18.73c2.49,0.53,4.99,0.68,7.5,0.44c15.14-0.93,40.05-3.16,55.24-3.99c2.68-0.27,5.35-0.14,8.01,0.39"/><path d="M22.5,19.75c0.81,0.81,1.18,1.9,1.18,4.36c0,20.14-2.18,50.64-12.87,67.36"/><path d="M 44.675777,25.076648 c -0.0403,0.570179 -0.04881,1.114486 -0.319595,2.023663 -0.589742,1.980065 -1.28377,4.083971 -2.98377,6.353971"/><path d="M 31.5,34.94 c 0.72,0.4 1.05,1.8 1.05,2.62 0,6.07 0.14,56.690977 0.14,60.870977"/><path d="M 30.5,34.19 c 0.97,0.97 2,1.06 3.96,0.79 4.73,-0.65 15.82,-2.08 16.75,-2.21 1.95,-0.28 2.4,1.02 2.36,2.31 -0.14,5.05 -0.670166,10.811164 -1.470166,17.391164 -0.29,2.34 -0.52,4.18 -0.65,5.1"/><path d="M 33.54,47.136861 c 4.72,-0.69 12.85,-1.97 18.37,-2.52"/><path d="M 33.573306,59.237193 c 3.5,-0.38 12.25,-1.56 17.21,-2.11"/><path d="M 32.520249,74.42792 c 4.72,-0.69 12.85,-1.97 18.37,-2.52"/><path d="M  34.219834,88.265758 c 4.72,-0.69 12.85,-1.97 18.37,-2.52"/><path d="M60.54,32.18c1.88,0.31,3.75,0.32,5.61,0.03c5.08-0.6,13.99-1.56,19.61-1.95c1.55-0.18,3.09-0.11,4.63,0.21"/><path d="M64.92,34.27c0.71,1.19,0.99,2.44,0.82,3.74c-0.29,5.28-0.75,8.94-1.01,17.02"/><path d="M57.59,56.45c1.53,0.55,3.52,0.37,5.27,0.11c7.38-0.8,18.76-1.94,27.39-2.7c1.92-0.17,3.85-0.02,5.77,0.17"/><path d="M78.32,33.84c0.86,0.86,0.9,2.28,0.7,4.38c-1.66,16.76-7.68,42.7-23.92,57.03"/><path d="M77.85,62.7c0.85,0.85,1.09,2.48,1.09,4.23c0,8.07-0.23,12.15-0.39,17.88c-0.27,10.04,1.87,11.02,10,11.02c7.33,0,8.82-1.7,8.82-8.72"/></svg>