<svg><path d="M28.38,39c2.81,0.63,6.48,0.28,9.3,0c10.67-1.09,23.05-3.73,35.61-4.63c2.53-0.18,4.97-0.35,7.46,0.17"/><path d="M52.65,13.75c1.36,1.36,1.81,3.09,1.81,5.04c0,11.96,0.14,33.68,0.14,36.86"/><path d="M12.13,60.35c4.02,0.9,8.1,0.74,12.11,0.19c19.26-2.66,43.18-5.3,60.26-6.23c3.91-0.21,8.63-0.3,11.88,0.3"/><path d="M50.6,61c0.28,1.25-0.31,3.07-0.85,3.75c-7.25,9.12-12.12,14.42-21.5,22.75c-2.82,2.5-2.39,5.11,2.1,4.19c11.9-2.44,29.15-6.19,46.4-9.94"/><path d="M66.75,70.88c6.99,4.43,17,17.5,19.81,25.09"/></svg>