<svg><path d="M33.12,18.38c3.22,2.96,6.67,8.14,7.12,9.62"/><path d="M50.75,14.88c1.38,2.02,4.7,7.34,5.25,10.62"/><path d="M78.25,12.25c0.12,0.88,0.07,1.72-0.75,3c-1.75,2.75-5,7.75-6.75,10"/><path d="M22.63,35.48c2.96,1.05,6.44,0.51,9.48,0.26c15.78-1.27,34.87-3.62,48.77-4.3c3.05-0.15,6-0.26,9,0.38"/><path d="M23.99,36c1,1,1.16,2.24,1.16,3.92c0,10.83-3.81,36.45-15.59,47.05"/><path d="M30.65,44.96c1.31,0.43,2.89,0.07,4.21-0.09c3.97-0.48,10.98-1.44,15.39-1.98c1.51-0.18,2.95-0.44,4.45-0.14"/><path d="M41.86,44.91c0.8,0.8,0.92,1.84,0.92,2.92c0,2.24-0.03,3.52-0.03,5.68"/><path d="M26.52,56.38c1.85,0.37,3.67,0.18,5.36-0.07c6.6-0.97,14.51-2.29,20.99-2.87c1.84-0.17,3.62-0.4,5.43,0.07"/><path d="M32.58,57.16c0.57,0.57,0.66,1.47,0.66,2.4c0,0.71-0.13,22.64-0.13,25.22"/><path d="M34.41,64.6c3.46-0.35,9.59-1.1,15.27-1.72"/><path d="M34.4,73.86c4.73-0.36,10.6-1.61,15.14-1.82"/><path d="M22.48,87.31c0.64,0.69,1.72,0.81,2.59,0.53c9.78-3.08,15.55-5.09,23.99-7.62"/><path d="M49.92,54.87c0.67,0.67,0.91,1.63,0.91,2.65c0,0.57,0.08,21.96,0.12,33.99c0.01,3.11,0.01,5.55,0.01,6.76"/><path d="M69.55,39.93c0.04,0.6,0.21,1.6-0.07,2.43c-1.82,5.33-5.86,14.14-12.2,22.73"/><path d="M67.25,53.54c1.13,0.09,1.91,0.08,2.42,0.04c4.47-0.29,10.24-1.92,17.31-2.79c1.49-0.18,3.53-0.42,5.07-0.28"/><path d="M82.7,54.95c0.41,0.98,0.37,2-0.3,3.72C76.25,74.75,69.25,84.5,57.09,94.9"/><path d="M63.63,62.53c5.14,5.77,14.61,19.05,23.45,27.03c2.2,1.99,4.42,3.94,6.92,5.55"/></svg>