<svg><path d="M50.93,9c0.19,0.75,0,2.05-0.39,2.49c-5.79,6.39-13.29,12.01-19.28,16.45c-2.11,1.56-1.69,3.23,1.53,2.64C44.12,28.5,58.88,25.75,69,23.75"/><path d="M62.75,17.8c4.09,2.01,10.57,8.28,11.59,11.42"/><path d="M14.07,45.9c2.59,0.65,5.97,0.62,7.86,0.38C39.88,43.98,63,42.19,80.56,41.2c2.35-0.13,6.03,0.08,8.62,0.67"/><path d="M48.12,31.88c0.48,1.07,0.64,1.98,0.3,3.16C43.38,52.5,28.38,65.62,13.75,74.08"/><path d="M55.34,43.36c6.71,6.04,20.28,19.26,28.7,25.57c2.32,1.74,4.46,3.32,7.46,4.19"/><path d="M54.35,53.75c0.06,0.4-0.27,1.34-0.6,1.87c-2.2,3.45-8.73,10.76-20.51,14.89"/><path d="M61.09,66.14c0.07,0.35-0.24,1.21-0.63,1.66c-2.66,3.1-10.96,10.14-24.34,13.57"/><path d="M69.15,76c0.11,0.54-0.26,1.38-0.72,2.16C65.71,82.7,50.09,92.65,28.7,98.75"/></svg>