<svg><path d="M52.25,10.25c1.25,0.5,2,2.25,2.25,3.25s0,41.75-0.25,48"/><path d="M43.51,15.71c0.05,0.25-0.28,1.24-0.6,1.52c-4.28,3.62-8.26,6.35-18.01,9.23"/><path d="M24.24,24.92c0.84,0.75,1.19,2.42,1.4,3.96c0.76,5.61,2.67,16.53,3.44,24.12"/><path d="M27.09,36.66c4.17-0.34,13.7-2.21,14.69-2.21s2.38,0,3.18,0"/><path d="M 29.28,51.662003 c 4.750734,-0.961399 14.3008,-1.357192 17.228257,-1.143708"/><path d="M62.9,18.71c0.99,0.17,1.79,0.51,3.18,0.51S81.18,17.17,82.77,17s2.91,0.84,2.78,1.88c-1.19,9.89-4.47,29.56-4.67,30.24"/><path d="M62.8,33.27c0.99,0.17,1.79,0.51,3.18,0.51s15.7-0.86,17.29-1.04"/><path d="M 62.806092,48.744611 c 1.380267,0.223658 2.644375,0.349456 3.825641,0.301662 4.231262,-0.1712 9.439223,-0.303205 13.228543,-0.469112"/><path d="M31.5,63.71c2,0.28,2.28,0.91,6.25,0.28C44,63,70.5,59.88,73.25,59.46c2.75-0.42,3.93,2.7,2.75,4.12C61.75,80.75,42,92.55,19.5,99.5"/><path d="M35.5,70.83C43,71,64.9,89.72,82.3,97.18c2.71,1.16,4.68,1.94,7.2,2.32"/></svg>