<svg><path d="M10.19,19.97c1.27,0.43,3.6,0.61,4.87,0.43c8.02-1.15,23.87-2.9,33.37-3.64c2.11-0.17,3.39,0.2,4.45,0.42"/><path d="M19.93,23.07c0.88,0.88,1.28,2.33,1.28,3.72s-0.16,42.55-0.16,47.54"/><path d="M22.55,37.73c9.2-1.73,10.95-1.98,19.08-2.83"/><path d="M22.24,54.2c7.51-1.2,10.51-1.7,19.67-2.55"/><path d="M10.7,77.55c1.3,0.7,2.55,0.58,3.99,0.11c7.07-2.3,26.66-8.82,32.69-10.82"/><path d="M41.25,20.5c1.06,1.06,1.6,2.21,1.6,3.6c0,1.2,0.12,45.77,0.15,65.27c0,3.1,0.01,5.57,0.01,7.12"/><path d="M55.48,35.58c1.31,0.36,2.7,0.5,5.35,0.11c4.8-0.69,18.69-4.63,20.52-5.08c2.52-0.61,4.27,1.14,3.46,4.01C77.95,58.81,67.62,76,49.5,86"/><path d="M52.19,45.05c4.28,0.67,20.92,23.2,35.28,35.86c2.2,1.94,4.4,3.84,7.4,5.09"/></svg>