<svg><path d="M32.06,15.75c0.08,0.72,0.28,1.9-0.16,2.89c-3.41,7.86-9.28,18.24-21.28,27.61"/><path d="M34.38,22.62c5.07,3.03,11.21,7.88,13.88,12.12"/><path d="M20.5,44.52c0.98,0.39,3.19,0.4,4.13,0.3c4.68-0.51,10.39-1.86,14.5-2.35c1.18-0.14,2.22-0.23,3.37,0.07"/><path d="M12.73,61.42c2.04,0.72,4.46,0.29,6.54,0.1c7.5-0.71,14.73-1.64,23.09-3.06c2-0.34,3.82-0.57,5.82-0.32"/><path d="M32.04,46.05c0.83,0.83,1.21,2.32,1.21,4.3c0,18.93,0,32.01,0,36.77c0,10.8-5.96,1.92-7.4,0.72"/><path d="M20.5,71.25c0.08,1.15-0.08,1.88-0.51,2.97c-1.55,4.01-4.78,9.47-9.61,15.04"/><path d="M41.5,68.75c2.02,2.33,5.21,9.58,5.71,13.2"/><path d="M55.57,31.69c1.38,0.43,3.25,0.52,6.05,0.18c6.13-0.74,14.87-2.89,17.7-3.88c2.81-0.99,4.68,0.64,3.83,4.23C77.16,57.54,66.5,81.5,45.77,92.5"/><path d="M54.51,41.64c3.5,1.06,18.44,25.24,31.37,39.86c2.8,3.16,5.99,7.31,9.85,9.22"/></svg>