<svg><path d="M31.58,15.13c0.95,0.95,1.02,2.37,1.02,3.58c0,0.5,0.02,23.66,0.02,28.66"/><path d="M35.34,31.29c1.65,0,8.65-2.1,13.46-2.76c1.73-0.24,2.49-0.04,3.52-0.17"/><path d="M14.93,50.06c2.07,0.69,3.57,0.5,5.3,0.33c7.39-0.76,17.52-2.89,26.24-4.57c0.98-0.19,3.03-0.57,4.1-0.19"/><path d="M32.89,51.87c0.07,0.38,1.01,1.99,1.01,4.42c0,12.71,0.04,27.8,0.04,31.78c0,9.02-5.78,1.2-6.98,0.2"/><path d="M21.56,63.45c0.06,1.06,0.07,1.95-0.27,2.97c-2.23,6.53-5.47,13.59-11.41,21.83"/><path d="M42.93,61.06c2.9,2.35,7.48,9.67,8.2,13.33"/><path d="M59,33.91c2.42,0.75,4.49,0.68,6.99-0.05c4.69-1.38,14.08-4.46,17.13-5.59c3.12-1.15,5.12,0.1,3.98,3.67C78.27,59.59,65.25,81.5,48.15,92.5"/><path d="M56.8,44.05c6.65,0.74,17.7,23.45,28.05,37.66c2.19,3.01,5.14,6.16,7.99,8.29"/></svg>