<svg><path d="M24.75,27.02c0.63,0.61,1.27,1.11,1.54,1.87c0.16,0.43,0.36,0.91,0.47,1.45c1.43,6.85,3.26,16.09,4.65,24.55c0.42,2.55,0.8,5.04,1.12,7.36"/><path d="M27.52,29.03c18.68-2.16,39.17-4.27,49.37-5.15c4.42-0.38,6.95,0.77,5.84,5.51c-1.67,7.18-3.48,16.11-5.17,24.05"/><path d="M33.16,58.55c9.14-0.73,25.38-2.22,39.33-3.49c2.97-0.27,5.85-0.53,8.52-0.77"/><path d="M40.49,67.89c0.14,1.35-0.01,2.8-0.77,3.97C36.5,76.88,29.02,84.9,17.56,93.22"/><path d="M67.52,68.58c7.78,4.13,20.1,17.46,22.04,23.88"/></svg>