<svg><path d="M13.88,21.98C18,22.75,21.74,22.34,25.39,22c13.57-1.26,43.04-4.34,58.11-5.52c3.93-0.31,7.74-0.5,11.63,0.33"/><path d="M25,42.14c0.87,0.87,1.5,1.99,1.79,3.21c0.74,3.14,1.96,9.62,2.94,15.63c0.28,1.74,0.55,3.45,0.77,5.02"/><path d="M27.38,44.28c7.5-1.77,16.49-3.18,21.87-4.27c3.75-0.76,5.13,1.05,4.31,4.53c-1.01,4.33-1.94,8.21-3.4,14.01"/><path d="M31.2,61.83c5.62-0.7,11.39-1.52,17.83-2.29c1.21-0.14,2.43-0.29,3.69-0.43"/><path d="M75.46,20.33c1.04,1.04,2.01,2.67,2.01,4.77c0,14.56-0.01,60.44-0.01,65.4c0,10.62-7.96,1.25-9.46,0"/></svg>