<svg><path d="M47.12,11.5c1.06,1.06,1.21,2.38,1.21,3.5c0,1.02-0.08,8.5-0.08,15"/><path d="M62.12,10c1,1,1.26,2.48,1.21,3.5c-0.2,4.12-0.33,6.5-1.08,14.75"/><path d="M27.27,16.83c2.84,1.66,7.33,6.81,8.04,9.38"/><path d="M79.94,14.39c0.05,0.79-0.04,1.57-0.27,2.33c-1.54,3.15-2.42,5.78-5.01,9.99"/><path d="M15.25,32.14c4.21,0.77,8.38,0.2,12.65-0.19c14.73-1.33,38.98-2.83,55.48-3.76c4.41-0.25,8.77-0.3,13.12,0.4"/><path d="M41.52,34.58c2.04,1.44,5.03,4.4,5.54,6.63"/><path d="M67.44,31.89c0.05,0.56-0.04,1.1-0.27,1.62c-1.04,1.99-2.35,3.96-5.04,6.86"/><path d="M29.25,44.99c2.88,0.41,5.74,0.19,8.65-0.08c8.35-0.78,22.35-2.03,31.48-2.39c2.81-0.11,5.59-0.19,8.38,0.16"/><path d="M53.18,44.51c0.84,0.84,1.12,1.99,1.12,3.15c0,1,0.02,8.59,0.02,11.84"/><path d="M26,53.73c3.21,0.42,6.4,0.28,9.62-0.05c10.25-1.05,25.43-2.24,35.26-2.68c2.87-0.45,5.74-0.47,8.61-0.06"/><path d="M17.25,62.28c4.33,0.56,8.64,0.43,13,0.04c16-1.44,29.25-2.19,46.01-3.14c3.92-0.32,7.84-0.24,11.74,0.25"/><path d="M29.31,63.67c0.76,0.76,0.89,1.71,0.89,2.82c0,0.77-0.14,21.37-0.14,24.15"/><path d="M31.42,70.48C35,70,42,69.38,45.56,69.16"/><path d="M31.14,79.17C37.82,78.5,40.62,78,45.9,77.5"/><path d="M19.5,93.55c0.75,0.95,2.27,0.81,3.07,0.49c8.68-3.42,18.56-7.05,24.19-9.25"/><path d="M45.75,63.23c0.76,0.76,0.98,1.82,0.98,2.59c0,0.77,0.14,26.34,0.14,32.68"/><path d="M56.91,67.89c1.89,0.39,3.75,0.38,5.59-0.01c3.56-0.62,12.16-2.01,15.01-2.56c2.4-0.47,3.38,0.93,2.28,3.02C73.31,80.59,64.88,88,52.15,94.35"/><path d="M53.49,72.78c4.66,0.19,17.76,11.34,30.64,18.69c3.01,1.82,6.21,3.19,9.62,4.09"/></svg>