<svg><path d="M30.75,14.66c1,0.59,1.88,1.59,2.04,2.42c1.04,5.07,2.25,11.09,3.53,17.31c0.25,1.2,0.48,2.39,0.71,3.58"/><path d="M34.14,16.95c10.39-1.58,29.99-4.15,35.35-4.68c1.96-0.19,3.39,1.48,2.86,3.6c-1.18,4.73-2.6,9.38-4.47,14.89"/><path d="M37.7,34.98c5.39-0.51,19.86-2.18,29.07-3.03c1.54-0.14,2.92-0.26,4.06-0.35"/><path d="M12.5,47.45c2.5,0.54,6.6,0.56,9.08,0.29c19-2.04,41.7-4.56,63.04-5.4c3.71-0.14,7.32-0.03,11,0.45"/><path d="M46.25,47.25c0.75,1.38,0.5,3.08-0.5,4.75c-1.5,2.5-4.38,6.62-6,9C38.61,62.66,40,65.25,42,65s23.96-5.39,26.25-6c3.75-1,5.71,0.78,5,4.5c-2,10.5-8.8,22.89-12.5,28c-5.25,7.25-11.25,1.75-14-0.5"/></svg>