<svg><path d="M14.75,38.79c0.92,0.92,1.1,1.79,1.23,2.85c0.97,5.21,1.92,12.07,2.82,19.13c0.29,2.24,0.57,4.5,0.85,6.74"/><path d="M16.08,40.22c8.84-1.95,15.7-3.23,20.2-3.96c2.28-0.37,4.33,0.78,3.91,3.5c-0.85,5.36-2.16,12.15-3.57,20.35"/><path d="M19.82,63.3c4.04-0.59,8.86-1.21,14.67-2.01c1.58-0.22,3.24-0.45,4.97-0.7"/><path d="M87.78,25.84c0,1.41-0.4,2.6-1.31,3.74C77.38,41,62.75,56.62,44.8,66.86"/><path d="M54.5,14.13c1.25,1.25,1.26,3.12,1.26,4.72c0,2.12-0.17,54.56-0.12,61.13c0.1,13.52,3.25,14.74,20.47,14.74c16.55,0,19.68-2.8,19.68-14.52"/></svg>