<svg><path d="M31,12.6c0.5,0.47,1.02,0.86,1.24,1.45c1.75,4.66,3.01,12.94,5.04,20.91"/><path d="M32.14,13.71c11.36-0.96,36.17-2.03,42.55-2.69c2.33-0.24,3.73,2.43,3.4,3.85c-1.38,5.87-2.46,7.93-5.42,16.4"/><path d="M37.29,33.38C44.77,32.63,66.5,32.25,76,31.5"/><path d="M24.31,50.33c0.76,0.4,2.36,2.97,2.51,3.77c0.15,0.79,2.4,28.66,2.25,33.62"/><path d="M26.5,51.95c4.75-0.28,52.79-4.14,56.34-4.31c4.16-0.2,5.06,3.5,4.91,5.31c-0.75,9.12-1.57,20.34-4,29.27c-1.75,6.43-6.25,0.89-8.25-1.33"/><path d="M52.81,35.38c0.76,0.4,2.36,2.97,2.51,3.77c0.15,0.79-0.1,55.77-0.25,60.73"/></svg>