<svg><path d="M70.21,14.14c-0.21,1.11-0.83,2.48-2.36,3.25c-6.9,3.5-16.85,7.1-33.79,11.57"/><path d="M28.81,25.5c0.84,0.84,1.22,2.39,1.22,4.01c-0.12,33.9-5.01,48.97-18.53,57.74"/><path d="M33,46.65c2.5,0.47,6.4,0.05,9.12-0.33c10.77-1.52,31.03-4.09,42.38-5.18c2.61-0.25,5.44-0.32,8,0.24"/><path d="M38.25,66.6c0.95,0.95,1.62,2.15,1.88,3.7c0.89,5.33,1.7,12.41,2.65,19.41c0.24,1.78,0.48,3.55,0.7,5.25"/><path d="M40.62,68.71c10.18-1.77,29.01-4.08,36.76-4.95c3.79-0.43,5.98,1.3,4.91,5.25c-1.66,6.12-2.61,10.22-5.09,18.01"/><path d="M43.94,91.13c5.86-0.64,21.8-2.11,31.55-3c1.62-0.15,3.08-0.28,4.32-0.38"/></svg>