<svg><path d="M48.5,10.5c0.37,1.75,0.01,3.14-0.71,4.73C42.75,26.25,32.5,45.12,11,60"/><path d="M50.25,14.75c5.41,6.77,25.92,26.39,35.46,34.92c3.33,2.98,6.37,5.04,10.79,6.08"/><path d="M31.38,53.77c1.93,0.48,3.65,0.5,6.88,0.25c6.37-0.51,15.19-1.64,24.02-2.3c1.89-0.14,3.82-0.21,5.6,0.24"/><path d="M27.5,72.08c0.84,0.84,1.77,1.84,1.94,2.64c1.93,8.81,2.6,14.74,3.67,21.26c0.21,1.28,0.44,2.11,0.69,3.55"/><path d="M30.5,74.23c10.5-1.98,33-4.86,39.76-5.27c2.95-0.18,4.74,1.16,4.04,4.2c-1.42,6.12-3.17,11.21-5.5,19.45"/><path d="M33.63,96.19c9.65-0.61,21.14-1.61,33.13-2.35c1.51-0.09,3.05-0.18,4.61-0.25"/></svg>