<svg><path d="M13.25,34.5c4.12,0.63,7.66,0.79,11.12,0.3c19.88-2.8,43.24-4.17,61.5-5.43c3.55-0.25,7.36-0.42,10.89,0.18"/><path d="M52.98,12.01c1.01,1.01,1.26,2.62,1.26,4.14c0,6.35-0.11,22.78-0.11,35.48"/><path d="M26.9,54.88c2.36,0.65,5.25,0.36,7.62,0.09c11.87-1.36,24.73-3.09,38.1-3.94c2.47-0.16,4.67,0.1,7.11,0.46"/><path d="M31,68.85c0.76,0.76,1.68,2.38,1.95,3.59c1.3,5.8,2.47,12.33,3.55,19.27c0.29,1.85,0.55,3.63,0.78,5.25"/><path d="M33.14,70.46c11.27-1.34,32.91-3.42,41.22-4.25c3.61-0.36,6.07,1.2,4.91,4.95c-2.03,6.59-2.9,10.09-5.61,18.61"/><path d="M37.79,93.63c6.11-0.61,22.14-1.98,32.71-2.87c2.37-0.2,4.51-0.38,6.25-0.51"/></svg>