<svg><path d="M13.5,37.82c0.82,0.85,1.28,1.87,1.39,3.05c0.87,5.92,1.7,10.83,2.4,15.72c0.29,2.03,0.56,4.06,0.8,6.16"/><path d="M15.67,38.72c8.58-1.71,14.15-2.34,18.44-3c3.88-0.59,4.5,0.67,4.01,3.39c-0.94,5.15-2.04,12.17-3.4,18.9"/><path d="M18.27,60.59c4.25-0.53,9.2-0.8,14.74-1.4c1.43-0.16,2.9-0.33,4.41-0.54"/><path d="M46.5,43.22c3.28,0.52,6.52,0.49,9.73-0.12c10.35-1.56,18.72-2.89,30.27-3.84c3.33-0.35,6.66-0.26,10,0.27"/><path d="M78.14,13.58c0.89,0.89,1.26,2.17,1.26,4.77c0,20.4-0.01,65.66-0.01,70.62c0,12.03-5.64,4.03-7.71,1.25"/><path d="M54.58,58.12c3.18,2.12,8.21,8.71,9,12"/></svg>