<svg><path d="M28.38,23.61c0.99,0.33,3.53,0.51,4.62,0.46c10.76-0.56,28.26-2.81,38.87-4.22c1.36-0.18,2.89-0.34,4.89,0.19"/><path d="M15.12,44.36c0.99,0.33,3.53,0.5,4.62,0.46c12.65-0.54,51.51-6.09,67.37-6.22c1.37-0.01,3.32,0.13,6.39,0.69"/><path d="M53.6,24.95c0.4,1.05,0.19,2.63-0.11,4.15C49.25,50.25,34.5,65.09,15.25,75.5"/><path d="M56,41.27c8.21,7.44,26.01,24.96,34.22,29.94c2.79,1.69,3.76,1.95,5.03,2.1"/><path d="M33.75,71.52c0.51,0.44,1.03,0.8,1.26,1.34c1.77,4.32,3.89,16.23,5.1,23.99"/><path d="M36.93,73.45c10.57-1.2,29.14-2.74,35.12-3.31c2.18-0.21,3.01,2.39,2.7,3.61c-1.29,5.04-3.32,12.97-5.25,19.95"/><path d="M40.34,96.06c7.02-0.64,20.16-1.56,31.34-1.74"/></svg>