<svg><path d="M13,38.81c0.75,1.04,1,1.77,1.25,3.06c0.87,4.5,1.67,12.81,2.46,20.13c0.27,2.48,0.51,4.87,0.71,7"/><path d="M14.84,40.02c9.08-1.74,15.14-2.67,19.45-3.25c3.34-0.45,4.62,0.41,4.09,3.87c-0.84,5.58-1.5,13.48-2.28,19.65"/><path d="M17.85,63.27c4-0.59,9.76-1.21,15.45-2c1.66-0.23,3.83-0.49,5.16-0.49"/><path d="M46.85,48.92c2.15,0.46,3.78,0.58,5.4,0.4c9.42-1.01,20.76-2.85,29.62-3.48c1.99-0.14,4.02-0.39,5.96,0.2"/><path d="M64.67,17.62c0.86,0.85,1.27,2.27,1.27,4.14c0,12-0.07,47.13-0.07,62.75"/><path d="M36.88,87.23c2.87,0.77,6.09,0.67,8.62,0.38c14.07-1.6,31.24-2.86,43.27-3.52c3.39-0.19,6.33-0.43,9.61,0.48"/></svg>