<svg><path d="M49.51,18.39c0.24,0.98,0.04,2.08-0.33,2.85C45.62,28.5,43,32.75,34.06,42.97"/><path d="M18.75,42.5c1,1,1.66,2.28,1.78,3.64c0.41,4.91,1.18,24.14,1.58,36.73c0.06,1.78,0.1,3.42,0.14,4.87"/><path d="M21.35,45.1c16.03-1.85,61.13-7.17,62.97-7.43c2.93-0.42,6.74,1.55,6.66,5.33c-0.22,9.76-3.67,33.44-6.49,42.28C81.12,95.75,78.62,90.12,76,86"/><path d="M38.75,55.53c0.8,0.8,1.29,1.9,1.35,2.4c0.67,5.55,1.13,8.83,1.97,14.58c0.13,0.93,0.28,1.92,0.43,2.99"/><path d="M41.03,57.28c10.34-1.53,17.23-2.44,24.75-3.54c2.47-0.36,3.35,1.14,2.97,2.76c-1,4.35-2.25,7.5-3.33,13.38"/><path d="M43.52,73.26c5.61-0.5,12.98-1.38,21.6-2.24c1.16-0.12,2.32-0.09,3.46-0.11"/></svg>