<svg><path d="M11.39,34.69c0.66,0.99,0.92,1.73,1.15,2.9c1.1,5.72,2.2,13.3,3.11,20.92c0.22,1.87,0.44,3.71,0.64,5.49"/><path d="M13.71,36.23c6.48-0.89,11.28-1.77,16.82-2.96c3.26-0.69,4.49,0.51,3.97,3.85c-0.94,6.09-2.21,11.1-3.8,21.38"/><path d="M17.3,61.36c4.21-0.68,7.3-1.16,12.44-1.69c1.12-0.12,2.3-0.23,3.56-0.36"/><path d="M64.16,16c0.07,0.99-0.08,2.65-0.64,3.97c-4.77,11.16-10.64,21.28-24.34,36.47"/><path d="M64.84,20.98C71,29.25,79.38,39.5,87.74,47.65c2.2,2.14,5.38,4.35,8.08,5.85"/><path d="M52.81,48c1.56,0.37,2.99,0.21,4.07,0.09c5.12-0.59,10.86-2.11,14.74-2.71c1.11-0.17,2.48-0.27,3.56,0.08"/><path d="M45.02,63.2c2.35,0.55,4.18,0.45,6.35,0.14c6.75-0.98,22.4-3.19,26.39-4.11c2.72-0.63,4.58,1.24,2.89,4.41c-4.9,9.23-12.49,23.17-16.4,31.6"/></svg>