<svg><path d="M53.17,11.25c0.1,1.09,0.01,2.92-0.71,4.39C47.5,25.75,35,43.64,14.5,57.86"/><path d="M54.16,17.65C60,23.62,73.5,36.25,84.31,45.7c3.28,2.87,7.31,5.3,11.69,7.05"/><path d="M40.48,41.84c0.38,0.18,2.71,0.19,3.1,0.18c3.97-0.2,14.8-2.04,18.71-2.02c0.63,0,3.29,0.08,3.61,0.17"/><path d="M30.5,55.24c1.5,0.51,4.06,0.73,6.5,0.5C45,55,58.25,53,67.24,51.88c4.02-0.5,5.04,0.73,2.26,3.87c-5.75,6.5-8.75,9.12-18,18.75"/><path d="M33.68,75.7c0.98,0.97,1.6,1.87,1.88,3.17c1.07,5.01,2.24,9.46,3.06,14.87c0.31,2.01,0.59,3.97,0.83,5.73"/><path d="M36.31,77.37c9.36-1.42,25.15-3.24,32.44-4.07c4.69-0.53,6.02,1.16,4.59,5.6c-1.47,4.59-2.29,8.11-4.14,14.74"/><path d="M40.37,97.48c5-0.53,17.06-1.66,25.89-2.43c2.26-0.2,4.28-0.37,5.91-0.51"/></svg>