<svg><path d="M11.25,33.29c0.37,0.51,0.76,0.94,0.92,1.58C13.46,39.93,15.51,53.9,16.4,63"/><path d="M13.58,35.72c9.42-2.22,16.05-3.06,20.42-3.73c1.6-0.24,2.56,1.44,2.33,2.87c-0.95,5.92-2.55,14.07-3.96,22.25"/><path d="M16.57,59.05c5.14-0.75,10.83-1.05,17.89-2.21"/><path d="M65.17,10.75c0.59,0.63,0.64,3.1,0.2,3.88C59.75,24.5,54,31.75,46.3,41.3c-2.15,2.67-2.54,2.97,1.18,2.28c9.05-1.68,26.34-5.57,38.94-8.39"/><path d="M77.25,24.83c5.57,3.6,14.38,14.79,15.77,20.39"/><path d="M56.47,49.21c0.78,0.79,1.39,2.96,1.38,4.63C57.75,68.75,53,90,34.89,98.17"/><path d="M72.84,43.87c0.61,1.54,1.09,3.35,1.12,5.72c0.16,10.58,0.07,25.86,0.07,33.06c0,12.1-0.04,13.91,12.44,13.91c9.77,0,10.94-2.56,10.94-13.3"/></svg>