<svg><path d="M10.25,33.29c0.37,0.51,0.76,0.94,0.92,1.58c1.29,5.07,3.34,18.54,4.23,27.63"/><path d="M12.58,35.72c9.42-2.22,16.55-3.56,20.92-4.23c1.6-0.24,2.56,1.44,2.33,2.87c-0.95,5.92-3.05,13.07-4.46,21.25"/><path d="M15.57,58.55c5.14-0.75,11.33-1.05,18.39-2.21"/><path d="M82.77,11.5c0.08,0.37,0.33,1.09-0.16,1.48c-6.71,5.43-15.28,9.54-29.42,14.21"/><path d="M49.42,25.33c1.02,1.96,1,3.84,1,5.98c0,21.16-0.42,44.94-14.62,57.71"/><path d="M52.59,45.35c0.53,0.2,2.63,0.34,4.04,0.12c7.81-1.26,25.44-3.59,34.33-4.21c1.43-0.1,3.9-0.2,4.79,0"/><path d="M73.18,45.98c0.94,0.63,1.5,2.84,1.69,4.1c0.19,1.26,0,40.54-0.19,48.42"/></svg>