<svg><path d="M10.75,38.89c0.38,0.4,0.78,0.73,0.95,1.23c1.33,3.94,2.93,14.81,3.85,21.89"/><path d="M13.15,40.78c9.72-1.73,16.51-2.77,21.02-3.29c1.65-0.19,2.64,1.12,2.4,2.23c-0.98,4.6-2.62,10.72-4.07,17.09"/><path d="M15.73,60.1c5.29-0.59,12.19-1.82,19.46-2.72"/><path d="M43.4,45.27c0.72,0.35,3.18,0.79,4.57,0.58c7.28-1.07,32.46-4.28,41.23-5.02c1-0.08,2.42,0.14,4.66,0.74"/><path d="M62.5,14.25c1.02,1.18,1.65,2.35,1.78,4.7c1.8,30.67-3.54,64.55-35.79,78.55"/><path d="M65.06,45c6.4,14.1,18.85,37.96,27.02,48.03c2.15,2.64,2.93,2.98,3.92,3.22"/><path d="M77.41,20c6.09,3.61,7.75,6.36,9.64,9.75"/></svg>