<svg><path d="M23.56,17.85c3.69,0.52,6.84,0.49,9.95,0.17c10.8-1.12,31.53-2.65,45.12-3.52c3.24-0.21,6.62-0.27,9.8,0.42"/><path d="M53.22,19.55c0.11,0.85,0.17,1.78-0.47,2.9C48.38,30.12,35.38,44,14.27,54.98"/><path d="M52.79,30.78c0.78,0.78,1.26,1.72,1.26,2.92c0,1.99,0.05,14.33,0.06,21.67c0,2.95,0,5.1-0.01,5.44"/><path d="M67.22,33.76c9.41,3.61,19.28,10.49,26.38,17.79"/><path d="M30,69.35c1.01,1.01,1.62,2.27,1.86,3.37c1.26,5.93,2.68,12.5,3.73,19.3c0.25,1.65,0.49,3.24,0.7,4.69"/><path d="M32.14,71.21c13.99-1.58,31.73-3.46,42.47-4.25c4.16-0.31,6.01,1.5,5.06,5.68c-1.07,4.71-1.56,7.65-3.76,17.38"/><path d="M36.29,93.63C46.5,93,57.5,92.25,72.25,91.26c2.02-0.14,3.96-0.19,5.75-0.26"/></svg>