<svg><path d="M10.25,33.29c0.37,0.51,0.76,0.94,0.92,1.58c1.29,5.07,3.34,18.54,4.23,27.63"/><path d="M12.58,35.22C22,33,28.62,32.16,32.99,31.49c1.6-0.24,2.56,1.44,2.33,2.87c-0.95,5.92-2.55,14.07-3.96,22.25"/><path d="M15.57,58.55c5.14-0.75,11.33-1.05,18.39-2.21"/><path d="M53.88,20.27c0.03,0.67,0.2,1.79-0.07,2.71c-2.23,7.72-6.41,17.9-12.66,27.6"/><path d="M51.43,36.86c0.89,0.38,2.51,0.46,3.4,0.38C65.71,36.2,76.5,34,87.33,31.92c1.45-0.28,4.36,0.18,5.1,0.37"/><path d="M40.09,61.38c1.43,0.54,4.06,0.62,5.5,0.54c14.92-0.9,35.67-5.16,50.32-5.14c2.39,0,3.82,0.25,5.02,0.52"/><path d="M68.41,10.88c0.71,0.44,2.37,2.37,2.37,4.2c0,0.9-0.09,78.63-0.24,84.17"/></svg>