<svg><path d="M12.25,34.42c0.6,0.6,1.12,1.83,1.23,2.9c0.49,4.73,1.18,9.53,1.85,16.89c0.14,1.51,0.27,3.06,0.39,4.65"/><path d="M14.24,36.17c8.47-1.88,15.06-3.08,20.38-4.04c2.77-0.5,4.12,0.86,3.67,3.25c-0.85,4.49-2.56,11.38-3.94,16.85"/><path d="M16.67,55.61c4.51-0.45,9.68-1.51,15.83-2.34c1.35-0.18,2.71-0.35,4.07-0.51"/><path d="M52.32,30.71c0.68,1.29,0.7,2.97,0.42,4.76c-1.99,12.78-10.99,38.78-31.61,50.95"/><path d="M41.65,26.58c1.98,0.55,4.28,0.72,6.89,0.26c6.09-1.07,21.11-5.81,25.2-7.08s5.27,1.31,3.62,4.29C61.5,52.75,60.38,47.62,77,44.65c2.65-0.47,3.97,1.32,3.07,3.55c-7.82,19.3-18.32,32.55-38.07,42.57"/><path d="M49.4,53.36c6.52,5.93,22.43,22.03,32.39,29.72c3.24,2.51,6.83,4.75,10.46,6.65"/></svg>