<svg><path d="M10.25,32.79c0.37,0.51,0.76,0.94,0.92,1.58c1.29,5.07,3.34,19.04,4.23,28.13"/><path d="M12.58,35.22C22,33,29.12,32.16,33.49,31.49c1.6-0.24,2.56,1.44,2.33,2.87c-0.95,5.92-3.05,13.07-4.46,21.25"/><path d="M15.57,58.55c5.14-0.75,11.33-1.05,18.39-2.21"/><path d="M46.5,29.86c0.52,1.06,0.86,2.77,0.69,4.68c-0.17,1.91,0.17,59.27,0.17,62.46"/><path d="M47.19,31.48c6.56-0.85,42.54-3.96,43.84-4.25c2.76-0.64,4.79,1.56,4.49,2.55C95,31.48,95,85.29,95,90.18c0,11.32-5.5,4.57-8,2.28"/><path d="M69.99,40.39c-3.12,9.71-11.24,23.94-17.74,29.44"/><path d="M58.95,10.5c1.01,0,2.62,1.45,2.89,2.73C66.75,36.75,73.5,52,85.74,65.73c1.08,1.22,1.63,2.1,2.51,2.52"/></svg>