<svg><path d="M10.25,33.29c0.37,0.51,0.76,0.94,0.92,1.58C12.46,39.93,14.51,53.9,15.4,63"/><path d="M12.58,35.22C22,33,29.12,32.16,33.49,31.49c1.6-0.24,2.56,1.44,2.33,2.87c-0.95,5.92-3.05,13.07-4.46,21.25"/><path d="M15.57,58.55c5.14-0.75,11.33-1.05,18.39-2.21"/><path d="M44.44,17.89c1.04,0.48,2.94,0.54,3.98,0.48c7.91-0.42,30.55-3.89,40.94-4.19c1.73-0.05,2.77,0.23,3.64,0.47"/><path d="M49.28,26.85c1.48,1.24,1.59,2.8,1.58,4.2c-1.09,7.41-2.08,12.85-3.58,16.55c-1.12,2.76,0.47,3.04,2.73,2.47c5.91-1.48,35.94-5.19,45.91-4.55c1.73,0.11,2.77,0.23,3.64,0.47"/><path d="M77.15,17.84c1.18,1.11,2.18,3.22,2.26,7.15c0.41,18.86-0.26,60.41-0.26,66.83c0,12.85-7.22,3.21-9.86,0.82"/><path d="M72.32,47.09c0.84,0.51,0.54,2.18,0.06,3.11c-4.88,9.51-15.47,27.3-37.18,37.18"/></svg>