<svg><path d="M28.3,17.97c1.02,0.89,1.54,1.55,1.88,2.93c1.36,5.69,2.52,12.28,3.89,19.26c0.34,1.73,0.69,3.47,1.06,5.24"/><path d="M30.99,19.31c11.74-1.08,30.48-3.06,38.31-3.74c3.71-0.32,5.72,0.98,4.98,4.71c-1.16,5.84-2.16,9.59-4.16,18.73"/><path d="M35.6,43.23c5.77-0.5,21.08-1.93,31.29-2.74c2.2-0.17,4.17-0.32,5.75-0.42"/><path d="M51.58,45.43c0.29,0.94,0.17,1.82-0.58,3.32c-1.68,3.36-5.5,9.62-7.81,13.14"/><path d="M25.59,64.27c0.91,1.11,1.42,2.03,1.64,3.52c1.09,7.14,2.18,14,3.37,21.7c0.32,2.1,0.65,4.25,0.99,6.5"/><path d="M27.63,65.88c16.51-1.72,38.75-3.64,48.25-4.29c4.26-0.29,6.97,1.54,5.97,6.16c-1.46,6.75-2.34,11.5-4.34,22.07"/><path d="M32.45,93.64c7.47-0.4,27.3-1.81,40.42-2.49c2.75-0.14,5.2-0.26,7.19-0.32"/></svg>