<svg><path d="M35.53,16.45c0.96,0.67,1.49,1.84,1.6,3.01c0.86,5.16,1.66,9.42,2.52,14.25c0.27,1.5,0.51,2.94,0.72,4.24"/><path d="M37.71,18.15c9.92-1.69,26.64-3.25,33.93-3.93c3.23-0.3,5.88,0.25,4.79,4.1c-1.09,3.84-2.04,6.05-4.38,12.61"/><path d="M41.3,34.9c5.46-0.48,20.25-1.86,29.44-2.6c1.52-0.12,2.88-0.23,4.03-0.31"/><path d="M23.64,32.24c1.25,1.25,1.61,2.51,1.56,4.38c-0.07,2.87-0.08,6.27-0.09,10.88c0,2.21,0.64,3.06,3.31,2.72c13.46-1.72,37.83-4.34,47.1-4.74c2.98-0.13,3.98,1.15,3.03,4.42c-1.33,4.6-2.55,7.1-4.3,13.35"/><path d="M13.75,67.95c3.5,0.93,6.79,0.7,10.01,0.43c18.29-1.55,44.12-3.25,61.62-4.04c3.07-0.14,6.1,0.05,9.12,0.7"/><path d="M41.25,77.14c0.14,1.14,0.03,2.11-0.64,3.05c-3.36,4.68-9.98,10.93-19.8,16.78"/><path d="M67.27,76.58c6.54,3.6,16.91,14.79,18.54,20.38"/></svg>