<svg><path d="M28.71,19.08c0.89,0.59,1.45,1.4,1.68,2.42c1.36,4.62,2.71,9.67,4.11,16.5c0.28,1.37,0.56,2.78,0.84,4.21"/><path d="M31.03,20.45c11.23-1.56,33.93-4,41.99-4.79c3.06-0.3,5.53,0.85,4.56,4.26c-1.28,4.5-3.05,8.27-5.72,14.96"/><path d="M35.83,39.33c7.17-0.95,22.87-2.46,33.41-3.41c1.85-0.17,3.51-0.31,4.89-0.4"/><path d="M29,53.97c2.88,0.41,5.88,0.14,8.12-0.14c7.65-0.98,25.12-2.7,35.27-3.42c2.23-0.16,4.98-0.28,7.11,0.35"/><path d="M53,54.75c0.88,0.88,1.25,1.75,1.25,3.25c0,7,0,22.38,0,29.5"/><path d="M29.25,70.25c2.5,0.62,6.43,0.36,8.39,0.15c9.26-0.96,22.62-2.68,32.87-3.63c2.82-0.26,6.25-0.4,8.75,0.23"/><path d="M15.75,90.49c3.07,1.06,7.09,0.77,10.25,0.52c20.4-1.58,37.09-3.35,57.63-4.17c3.43-0.14,7.35,0.09,10.62,1.4"/></svg>