<svg><path d="M34.89,20.39c0.04,0.59,0.18,1.54-0.08,2.35C33.12,28,28.5,37.25,21,45.25"/><path d="M33.13,34.17c1.62,0.21,2.91,0.19,3.85,0.13c9.4-0.55,21.77-2.05,32.4-3.37c2.16-0.27,4.37-0.41,6.5,0.11"/><path d="M52.81,10.13c1.22,1.22,1.51,2.74,1.51,4.25c0,5.12,0,33.62,0,40.12"/><path d="M12.88,58.73c1.92,0.54,5.45,0.75,7.36,0.54c19.89-2.14,47.39-4.89,66.43-6.23c3.19-0.22,5.12,0.26,6.72,0.53"/><path d="M29.75,71.6c1.12,1.04,1.62,2.09,1.86,3.62c1.33,8.62,2.24,15.02,2.95,20.77c0.17,1.35,0.32,2.67,0.47,3.97"/><path d="M32.64,74.21c13.21-2.16,31.39-4.69,40.98-5.52c3.64-0.32,6.11,1,5.16,4.95c-1.34,5.65-3.12,12.52-5.87,20.38"/><path d="M36.04,97.38c9.92-0.53,24.79-1.6,34.96-2.14c1.84-0.1,3.53-0.18,5-0.24"/></svg>