<svg><path d="M29.75,16.79c0.5,0.46,1.01,0.85,1.22,1.43c1.72,4.59,4.29,16.77,5.47,25.02"/><path d="M31.35,18.9c13.15-1.4,38.04-3.55,43.86-4.15c2.13-0.22,3.41,1.31,3.1,2.6c-1.26,5.37-2.73,12.85-4.61,20.27"/><path d="M36.67,41.21c6.84-0.68,29.77-1.86,39.16-2.91"/><path d="M19.15,59.08c1.55,0,3.89,0.32,5.96,0.2c9.4-0.53,46.3-3.04,60.54-4.06c2.06-0.15,2.59-0.2,3.89,0"/><path d="M52.25,46.25c1.25,0.5,2.25,3.22,2.25,4.25c0,7,0,42.75-0.25,49"/><path d="M52.28,58.68C45.81,69.44,28.97,84.66,15.5,90.75"/><path d="M55.21,58.48c4.92,4.26,26.51,24.42,31.86,28.62c1.81,1.42,3.37,2.03,5.18,2.44"/></svg>