<svg><path d="M9.75,34.29c0.37,0.51,0.76,0.94,0.92,1.58c1.29,5.07,3.34,16.54,4.23,25.63"/><path d="M11.08,36.22c7.67-1.47,16.55-3.06,20.92-3.73c1.6-0.24,2.56,1.44,2.33,2.87c-0.95,5.92-2.05,12.57-3.46,20.75"/><path d="M15.07,58.05c5.14-0.75,11.33-1.05,18.39-2.21"/><path d="M65.35,11.25c1.16,0.63,2.56,3.08,2.56,4.34c0,4.64-0.37,10.81-0.15,14.73"/><path d="M42,32.38c1.13,0.07,3.72,0.48,4.82,0.38c8.89-0.81,33.54-4.52,46.22-5.08c1.87-0.08,2.82,0.03,4.21,0.49"/><path d="M62.21,34.4c0.4,1.44,0.65,2.59-0.2,4.08c-3.69,6.48-8.26,14.02-13.68,19.12c-0.78,0.73-0.3,3.36,0.5,3.6c5.92,1.8,11.92,3.3,17.36,6"/><path d="M82.49,39.81c0.59,1.52,0.76,3.44-0.54,5.48C73.23,58.9,63.53,73.3,48.33,89.86c-1.7,1.85-0.6,3.72,1.58,3.24c12.84-2.85,21.59-5.1,38.89-8.96"/><path d="M79.86,69.21c4.89,4.83,12.62,19.88,13.85,27.4"/></svg>