<svg><path d="M11.25,28.79c0.76,0.95,1.19,2.02,1.3,3.23c0.81,5.79,1.57,10.81,2.23,15.98c0.32,2.52,0.61,5.06,0.88,7.75"/><path d="M13.33,30.22c8.11-1.41,15.1-1.98,19.67-2.59c3.55-0.48,5.38,0.72,4.73,4.54c-0.96,5.68-2.12,11.67-3.37,18.94"/><path d="M16.82,53.55c4.98-0.51,9.17-0.84,14.18-1.26c1.7-0.14,3.5-0.29,5.45-0.45"/><path d="M47.86,20.6c0.86,1.01,1.44,2.15,1.73,3.42c1.05,5.85,1.78,10.19,2.63,16.5c0.29,2.16,0.59,4.55,0.92,7.3"/><path d="M49.93,22.24c9.3-0.99,24.1-2.06,32.19-2.76c4.61-0.4,5.94,0.86,5.09,5.53c-0.84,4.6-2.02,9.31-3.81,17.17"/><path d="M54.02,45.09c7.97-0.63,17.14-1.2,24.47-1.76c2.53-0.19,4.85-0.38,6.82-0.58"/><path d="M63.47,48.51c0,1.24-0.16,2.6-0.65,3.97c-3.69,10.27-11.19,25.27-26.7,37.27"/><path d="M72.24,46.75c0.88,0.88,1.1,2.12,1.1,3.6c0,6.49-0.08,21.89-0.08,30.88c0,10.09,1.99,11.51,12.48,11.27C95.5,92.28,96.77,90.42,96.77,81"/></svg>