<svg><path d="M25.25,16c1.12,1.12,1.46,2.74,1.5,5c0.5,32,0.5,59-13.5,73.75"/><path d="M27.25,17.75c8.39-0.88,41.3-3.77,50.11-4.57c5.74-0.52,7.62-0.19,7.64,5.94c0.03,9.63,0,63.78,0,69.13c0,12.25-6.25,4-8.83,1.42"/><path d="M37.72,33.48c1.42,0.45,4.02,0.38,5.44,0.27c4.6-0.35,18.83-2.53,24.51-2.75c2.36-0.09,3.78,0.08,4.96,0.28"/><path d="M53.72,21.42c0.81,0.81,1.25,2.2,1.25,3.49c0,4.34,0.07,16.84,0.07,22.62"/><path d="M35.32,49.5c2.06,0.38,4.63,0.25,6.7,0.07c8.03-0.69,15.82-1.8,26.86-2.48c2.32-0.14,4.74-0.22,7.05,0.13"/><path d="M39.88,62.12c0.81,0.74,1.43,2.17,1.62,3.26c0.84,4.98,1.5,9.36,2.34,14.6c0.17,1.07,0.35,2.17,0.54,3.32"/><path d="M42.35,64.25c5.96-0.92,15.55-2.27,20.89-2.82c3.28-0.34,4.88,1.2,4.39,3.86c-0.72,3.9-1.64,8.07-2.9,12.59"/><path d="M45.15,80.68c3.46-0.46,11.71-1.14,17.85-1.52c1.35-0.08,2.57-0.14,3.58-0.16"/></svg>