<svg><path d="M10.75,34.79c0.37,0.51,0.76,1.44,0.92,2.08C12.96,41.93,15.01,52.9,15.9,62"/><path d="M12.08,36.22c8.17-1.47,16.55-3.06,20.92-3.73c1.6-0.24,2.56,1.44,2.33,2.87c-0.95,5.92-2.05,12.07-3.46,20.25"/><path d="M16.07,58.05c5.14-0.75,10.83-1.05,17.89-2.21"/><path d="M46.25,29.49c0.31,0.61,0.31,1.01,0.48,1.76c1.36,6.16,4.43,21.79,5.22,33.13"/><path d="M46.69,31.42c15.06-2.17,35.51-3.98,43.56-4.58c2.96-0.22,4.47,1.56,4.31,3.21c-0.58,5.9-1.06,19.2-3.94,31.79"/><path d="M49.96,46.22c3.52-0.3,40.46-3.47,43.36-3.47"/><path d="M52.51,62.03c9.99-0.78,26.24-2.28,38.04-2.85"/><path d="M68.37,10.25c1.09,0.5,1.74,2.25,1.96,3.25c0.22,1-0.22,71.5-0.22,86"/></svg>