<svg><path d="M8.75,34.41c0.34,0.47,0.69,0.87,0.83,1.46c1.17,4.7,2.58,17.68,3.38,26.13"/><path d="M10.86,36.67c8.54-2.06,13.64-3.31,17.61-3.93c1.45-0.23,2.32,1.34,2.11,2.67c-0.86,5.49-1.86,12.49-3.14,20.09"/><path d="M13.12,57.73c4.66-0.7,10.28-0.98,16.67-2.05"/><path d="M49.12,14.44c0.4,1.43,1.12,3.79,0.91,5.75c-1.02,9.6-6.53,34.54-11.01,45.28c-0.92,2.2,0.39,3.37,0.91,3.61c7.72,3.52,13.14,6.67,19.14,16.04"/><path d="M60.56,36.94c0.06,1.37,0.11,4.7-0.15,6.64c-2.14,15.69-8.29,37.5-23.47,47.27"/><path d="M34.75,44.89c0.6,1.36,1.81,1.82,3.43,1.7c1.74-0.12,17.62-3.86,24.81-6.25"/><path d="M66.78,30.14c1.41,0.49,1.55,1.12,4.39,0.49c5.08-1.13,15.05-3.27,16.98-4.01c1.93-0.74,4.24,2.12,3.57,4.82C86.28,53.37,77.25,82,58.83,93.12"/><path d="M66.89,36.77C70,39.25,80.75,73,94.77,88.08c1.89,2.04,2.79,3.77,4.29,4.52"/></svg>