<svg><path d="M11.25,33.29c0.37,0.51,0.76,0.94,0.92,1.58C13.46,39.93,15.01,53.9,15.9,63"/><path d="M13.58,35.72c9.42-2.22,15.05-3.56,19.42-4.23c1.6-0.24,2.56,1.44,2.33,2.87c-0.95,5.92-2.05,15.07-3.46,23.25"/><path d="M16.07,60.55c5.14-0.75,11.33-1.05,18.39-2.21"/><path d="M75,8c0.07,0.5-0.11,2.1-0.52,2.66c-5.14,7.03-12.37,12.82-25.78,18.49"/><path d="M45.24,28.21c0.35,0.82,0.9,2.26,0.99,4.6c0.96,24.32-0.63,52.82-12.19,64.41"/><path d="M59.22,26.53c0.96,0.68,1.73,3.04,1.73,4.43c0,7.12-0.19,38.79-0.19,50.34"/><path d="M48.72,86.22c0.65,0.68,1.93,1.98,3.29,1.25c7.23-3.88,12.69-7.37,20.42-11.67"/><path d="M69.04,70.09c2.15,2.95,5.56,12.12,6.1,16.71"/><path d="M71.97,22c0.2,0,0.86,0.69,1.09,2.09c2.49,15.23,6.66,47.59,15.31,66.57c1.31,2.88,2.71,4.67,3.64,5.61"/></svg>