<svg><path d="M9.75,34.62c0.37,0.46,0.76,0.85,0.92,1.43c1.29,4.58,3.34,17.23,4.23,25.46"/><path d="M12.08,35.82c9.42-2.01,15.55-3.22,19.92-3.83c1.6-0.22,2.56,1.3,2.33,2.6c-0.95,5.35-2.05,13.13-3.46,20.53"/><path d="M15.07,58.29c5.14-0.68,11.33-1.45,18.39-2.5"/><path d="M38.72,22.13c1.61,0.51,4.55,0.6,6.16,0.51C55.4,22,81.62,18.96,94.92,18.29c2.67-0.13,4.28,0.24,5.62,0.5"/><path d="M45.83,41.07c0.33,0.37,1.18,2.18,1.32,2.64c1.16,3.66,3.54,16.26,4.33,22.83"/><path d="M47.9,43.05c6.85-1.55,15.64-3.52,19.55-4c1.43-0.18,2.2,1.03,2.08,2.08C69,45.75,67.5,54,66.94,60.98"/><path d="M51.64,63.33c4.59-0.54,10.92-0.98,17.23-1.82"/><path d="M86.31,21.59c0.07,0.48,1.41,2.5,1.48,5.54c0.34,14.6-0.22,57.89-0.22,62.86c0,8.53-5.57,4.51-10.36,0.25"/></svg>