<svg><path d="M51.75,10.25c0.11,1-0.06,2.67-0.71,4.02c-4.47,9.23-17.06,25.98-38.79,38.48"/><path d="M53.5,15c7.12,7,22.89,20.46,30.6,26.65c2.82,2.26,5.65,4.22,9.15,5.72"/><path d="M38.25,40.64c1.76,0.72,3.84,0.36,5.65,0.14c5.4-0.66,13.08-1.76,18.48-2.24c1.88-0.17,3.54-0.23,5.37,0.21"/><path d="M21.2,54.29c1.01,1.01,1.59,2.26,1.67,3.43c0.9,3.88,1.77,10.12,2.4,15.89c0.16,1.43,0.3,2.79,0.42,4.04"/><path d="M23.92,56.51c10.83-1.76,15.42-2.18,20.28-2.65c1.78-0.17,2.79,1.16,2.49,2.28c-1.23,4.63-1.67,9.73-3.48,16.13"/><path d="M26.02,75.17c4.77-0.44,9.31-1.17,15.25-1.89c1.17-0.14,2.39-0.28,3.68-0.42"/><path d="M54,54c0.61,0.15,3,1,4.21,0.87c3.29-0.37,17.99-4.02,19.51-4.17c1.52-0.15,4.28-0.29,3.95,2.89c-0.43,4.17-2.68,16.92-6,23.84c-1.89,3.94-3.18,3.45-6.23,0.46"/><path d="M57.38,55.38c0.87,0.87,1.8,2,1.8,3.5c0,7.36-0.04,24.53-0.1,34.13c-0.02,3.3-0.05,5.71-0.08,6.51"/></svg>