<svg><path d="M11.5,27.54c1.11,1.1,1.43,2.24,1.51,3.43c0.72,5.71,1.64,14.09,2.39,21.42c0.27,2.65,0.53,5.16,0.74,7.37"/><path d="M14.08,30.22c8.38-1.73,12.55-2.5,16.32-3.47c1.98-0.51,4.23,0.37,3.92,2.61c-0.8,5.94-2.05,14.07-3.46,22.25"/><path d="M16.57,54.8c3.84-0.56,7.77-1.15,12.41-1.79c1.57-0.22,3.22-0.44,4.97-0.67"/><path d="M55.76,13c0.04,0.98-0.15,2.35-0.58,3.68C51.5,28.12,48.12,39.5,40.31,53.5"/><path d="M54.36,31.67c2.52,0.25,5.02,0.13,7.51-0.35c9.17-1.32,20.36-3.94,27.96-5.31c2.53-0.7,5.17-0.76,7.63-0.64"/><path d="M62.5,33.25c1.13,1.13,1.19,2.25,1.19,3.84c0,0.74-0.04,31.76-0.06,49.66c-0.01,5.61-0.01,9.93-0.01,11.62"/><path d="M65.32,48.38c5.65-0.95,12.61-2.46,18.92-3.42c2.05-0.45,4.13-0.5,6.23-0.13"/><path d="M64.99,67.84c4.85-0.58,12.34-1.98,23.02-3.29c2.56-0.49,5.14-0.53,7.73-0.13"/></svg>