<svg><path d="M9.25,34.17c0.37,0.48,0.76,0.88,0.92,1.48c1.29,4.74,3.34,17.33,4.23,25.85"/><path d="M11.58,36.45c9.42-2.08,14.55-2.84,18.92-3.46c1.6-0.23,2.56,1.35,2.33,2.69c-0.95,5.54-2.55,11.61-3.96,19.27"/><path d="M14.57,57.71c5.14-0.7,9.83-0.98,16.89-2.07"/><path d="M54.25,11.25c4.95,2.53,8.91,6.02,10.39,9.5"/><path d="M45.69,32.75c0.02,0.12,1.26,0.95,3.13,0.81C53,33.25,58.16,31.5,61.5,31.5c1.77,0,3.94,1.01,3.75,4.25c-0.8,13.75-0.49,53.22-0.49,57.77c0,7.23-6.87,0.49-7.97-0.58"/><path d="M38,53.46c1.27,0.23,2.76,0.91,4.03,0.45c1.27-0.45,7.39-1.85,9.5-2.75c2.12-0.91,3.98,0.75,3.18,2.72C49.75,66,43.25,76.5,33.27,84.87"/><path d="M85.24,35.85c0.08,0.43,0.14,1.16-0.16,1.73c-2.77,5.29-8.96,12.31-13.98,15.06"/><path d="M65.41,51.24c7.68,9.92,20.56,23.32,29.15,29.03c1.81,1.21,3.53,1.81,5.19,2.22"/></svg>