<svg><path d="M10.25,34.38c0.33,0.45,0.67,0.83,0.81,1.4c1.15,4.49,3.02,17.86,3.8,25.92"/><path d="M12.31,36.54c8.35-1.97,13.83-3.16,17.7-3.75c1.42-0.22,2.27,1.28,2.06,2.54c-0.84,5.24-1.82,12.35-3.07,19.59"/><path d="M15.02,58.03c4.55-0.67,10.04-1.43,16.29-2.46"/><path d="M53.62,16.77c0.18,1.93-0.05,4.46-0.64,6.11c-3.76,10.54-8.89,23.8-17.51,36.63"/><path d="M46.69,44.35c0.38,1.04,1.02,3.21,1.02,4.66c0,13.74-0.44,34.99-0.44,43.85"/><path d="M55.09,41.25c1.17,0.79,3.31,0.5,4.49,0.29c8.17-1.45,22.58-3.68,33.73-4.63c1.95-0.17,3.12-0.12,4.1,0.28"/><path d="M81.58,13.43c1.17,1.32,1.7,2.27,1.78,6.26c0.41,19.16-0.26,63.23-0.26,69.75c0,12.22-6.65,2.35-8.89,0.33"/><path d="M62.51,55.15c2.93,2.27,7.58,9.34,8.32,12.87"/></svg>