<svg><path d="M9.75,34.06c0.35,0.45,0.72,0.82,0.87,1.38c1.23,4.42,3.7,18.12,4.54,26.06"/><path d="M11.96,36.18c8.94-1.94,15.27-3.11,19.41-3.69c1.52-0.21,2.43,1.26,2.21,2.51c-0.9,5.17-2.45,12.65-3.78,19.8"/><path d="M14.82,57.86c4.87-0.66,10.75-1.42,17.43-2.43"/><path d="M59.77,14.75c0.06,0.83,0.31,2.2-0.12,3.33c-3.27,8.69-10.57,21.65-20.82,32.49"/><path d="M58.76,26.41c0.33,0.04,1.76,0,2.71-0.11c3.14-0.35,11.46-2.59,15.94-3.68c3.08-0.75,3.95,0.85,3.16,2.89C76.28,36.64,56.5,63.75,36.94,72.53"/><path d="M53.15,33.08c5.52,5.62,30.55,26.99,37.99,32.13c2.22,1.53,4.01,2.28,6.18,2.73"/><path d="M48.83,71.01c0.36,0.44,0.73,0.8,0.89,1.35c1.25,4.34,3.25,16.81,4.11,24.6"/><path d="M51.08,72.97c10.17-1.47,27.09-2.79,31.33-3.36c1.55-0.21,2.48,1.23,2.25,2.46c-0.92,5.07-2.99,12.17-4.35,19.18"/><path d="M54.01,94.63c4.97-0.65,19.74-1.63,28.36-2.25"/></svg>