<svg><path d="M10.75,32.79c0.37,0.51,0.76,0.94,0.92,1.58C12.96,39.43,15.01,52.9,15.9,62"/><path d="M13.08,35.22c9.42-2.22,17.05-3.06,21.42-3.73c1.6-0.24,2.56,1.44,2.33,2.87c-0.95,5.92-3.05,13.07-4.46,21.25"/><path d="M16.07,58.55c5.14-0.75,11.33-1.05,18.39-2.21"/><path d="M42.75,20.16c0.98,0.4,2.76,0.44,3.74,0.4c11.38-0.55,27.82-4.27,44.16-4.76c1.62-0.05,2.6,0.19,3.41,0.39"/><path d="M61.71,22.15c0.46,0.55,0.63,2.29,0.28,2.94C57.92,32.56,53.5,36,47,43.07c-1.99,2.17-1.94,3.89,0.97,3.2c6.79-1.6,27.69-5.87,38.39-8.51"/><path d="M77.31,28.66c5.31,3.24,13.72,13.31,15.05,18.35"/><path d="M45.71,69.4c0.76,0.33,2.16,0.4,2.92,0.33c7.84-0.8,32.91-3.68,40.04-3.68c1.27,0,2.03,0.15,2.66,0.32"/><path d="M65.61,49.56c0.09,0.25,1.4,1.29,1.37,2.87c-0.15,9.02,0.43,35.77,0.43,38.34"/><path d="M38.88,92.83c1.18,0.46,3.34,0.52,4.52,0.46c15.11-0.79,29.55-3.77,52.11-3.89c1.96-0.01,3.14,0.22,4.12,0.45"/></svg>