<svg><path d="M15.75,20.7c0.52,0.21,2.47,0.23,3,0.21c5-0.16,17-1.91,20.93-2.16c0.87-0.05,2.39,0.1,2.82,0.21"/><path d="M14,48.91c0.74,1.09,2.23,1.66,4.45,0.23c6.18-3.98,12.61-7.67,18.8-11.65"/><path d="M57.57,9.5c0.04,0.72,0.08,1.86-0.08,2.9c-0.99,6.11-6.65,19.53-14.41,27.74"/><path d="M56.55,24.11c1.06,0.23,3.05,0.59,4.65,0.39c1.94-0.25,26.04-3.99,27.89-4c6.37-0.04-0.67,5.68-4.6,8.7"/><path d="M65.49,27.42c0.08,0.79,0.05,2.01-0.17,3.15c-1.37,7.14-13.07,24.68-29.33,30.18"/><path d="M63.87,38.68c3.81,4.22,17.15,16.88,23.99,21.39c1.44,0.95,2.54,1.52,3.9,1.82"/><path d="M28.82,68.92c0.53,0.51,1.07,0.94,1.3,1.58c1.83,5.08,4.53,19.09,5.79,28.21"/><path d="M32.12,70.17c12.96-2.13,35.9-3.93,42.58-4.65c2.45-0.26,3.91,2.65,3.56,4.19c-1.45,6.39-2.26,12.54-4.7,22.12"/><path d="M36.44,95.35C48,94.75,64.75,93,76,92.63"/></svg>