<svg><path d="M16.89,19.71c1.25,0.73,3.27,1.29,4.61,1.23c7.38-0.34,21.27-3.35,24.14-3.79c2.47-0.38,3.27,1.84,2.89,3.99c-0.83,4.66-3.38,12.53-4.84,20.37"/><path d="M23,43.75c4.32-0.26,17.55-1.51,22.06-1.76"/><path d="M23.09,21.62c0,3.99-0.01,13.05-0.5,21.6C21.31,65.42,18.5,77.5,8.5,92.5"/><path d="M28.5,43.75c9.69,11.99,33.47,37.5,46.85,46.12c3.11,2,7.77,3.24,10.4,3.88"/><path d="M58.2,18.18c0.43,0.42,0.87,0.77,1.06,1.3c1.49,4.19,3.28,15.74,4.3,23.27"/><path d="M60.34,20.02c10.65-1.19,22.65-2.51,27.94-3.03c1.94-0.19,2.92,1.03,2.54,2.91c-1,4.95-3.43,13.22-5.13,19.62"/><path d="M63.86,41.27c6.22-0.59,16.14-1.52,24.04-1.34"/><path d="M66.04,50.27c0.03,0.32,0.07,0.83-0.06,1.3c-0.76,2.73-5.16,8.73-11.17,12.4"/><path d="M81.69,49.65c4.89,3.2,12.64,13.16,13.87,18.15"/></svg>