<svg><path d="M10.88,31.02c0.67,1.06,1.02,1.95,1.18,3.22c0.92,7.21,1.96,17.4,2.74,26.14c0.13,1.42,0.25,2.79,0.36,4.12"/><path d="M13.08,33.01c7.09-1.1,12.83-2,17.08-2.71c3.14-0.52,4.46,0.69,4.04,3.83c-0.88,6.59-1.82,14.99-2.84,25.04"/><path d="M16.32,61.74c4.82-0.59,7.78-0.82,12.8-1.24c1.29-0.11,2.71-0.23,4.34-0.37"/><path d="M44.5,18.74c0.88,0.88,1.06,2.25,1.07,3.96c0.07,8.32,0.05,43.24,0.04,60.55c0,5.49-0.01,9.21-0.01,9.75"/><path d="M46.47,20.58c11.69-1.35,32.97-3.42,43.15-3.78c3.68-0.13,4.88,0.44,4.88,4.39c0,12.56,0,44.39,0,63.8c0,2.89,0,5.51,0,7.75"/><path d="M53.5,44.97c1.58,0.48,3.65,0.35,5.24,0.11c7.5-1.09,14.75-1.96,22.63-2.56c1.68-0.13,3.12-0.16,4.77,0.26"/><path d="M68.76,25.64c0.8,0.8,0.92,2.67,0.92,4.12c0,24.61-5.47,41.01-16.39,50.26"/><path d="M70.38,56.25c5.49,4.42,12.41,12.38,15.74,21"/><path d="M46.77,89.56C58.62,89,80.56,87.67,93.39,87.3"/></svg>