<svg><path d="M31.75,15.75c0.75,1.25,1.29,2.75,1.5,5C34,29,35.25,40,36,50.25"/><path d="M33.25,17.75c9.5-1,38.75-3.97,43-4.5c2-0.25,3.99,0.79,3.5,3c-1,4.5-3,24.5-4,31.5"/><path d="M54.37,29.25c1.09,0.5,1.74,2.25,1.96,3.25c0.22,1,0.14,10.25-0.08,16.5"/><path d="M56.5,30.25C60,30,72,28.25,77,27.75"/><path d="M20.25,50.25c0.75,1.25,1.66,3.26,2,5.5c0.5,3.25,3.5,34.75,4.5,40.25"/><path d="M22.25,52.75c9.5-1,62.63-5.65,64.5-6c4-0.75,5.85,1.76,6,3C93.25,54,87.56,84.47,86,90c-2.75,9.75-4.25,4.75-7.25,1.5"/><path d="M40.25,61.64c0.42,0.39,0.85,0.72,1.04,1.21C42.75,66.75,44,76.5,45,83.5"/><path d="M42.38,63.78C52,62,63.5,60.5,68.44,59.99c1.8-0.19,2.89,1.11,2.63,2.21c-1.07,4.55-2.32,9.05-3.91,15.35"/><path d="M45.2,80.58C51,80,61,79,68.96,78.11"/></svg>