<svg><path d="M13.14,38.36c0.81,0.92,0.94,1.4,1.21,2.64c0.89,4.08,1.95,9.79,3.02,15.42c0.27,1.41,0.51,2.8,0.71,4.13"/><path d="M15.23,39.52c6.11-0.92,11.67-2.07,17.29-3.05c3.44-0.6,5.07-0.04,4.3,3.8c-0.83,4.11-1.65,7.56-3.14,14.86"/><path d="M18.85,57.96c4.21-0.52,7.73-1.01,12.73-1.7c1.15-0.16,2.37-0.33,3.7-0.51"/><path d="M44.88,17.62c3.69,2.55,9.54,10.48,10.47,14.44"/><path d="M78.25,14.64c0.05,0.58,0.22,1.54-0.1,2.34c-1.65,4.14-5.03,9.39-10.9,16.52"/><path d="M46.29,39.34c1.96,0.29,3.96,0.31,5.58,0.13c6.28-0.69,17.97-2.39,24.4-3.01c1.98-0.19,3.88-0.35,5.84,0.13"/><path d="M39.24,61.73c3.26,0.77,5.78,0.8,8.64,0.46C60,60.75,73.99,59.49,83,58.84c3.02-0.22,6.01-0.07,8.98,0.64"/><path d="M60.68,42.12c0.6,0.76,0.77,2.38,0.7,3.84C59.95,73.25,49.59,87,31.95,93.37"/><path d="M60.95,61.89c5.79,5.58,15.85,16.6,23.41,23.76c3.14,2.97,6.01,4.84,8.49,6.14"/></svg>