<svg><path d="M28.01,34.89c0.05,1.4-0.05,3.6-0.1,5.61c-0.41,18.75-5.41,45.75-16.1,54.47"/><path d="M24.75,33.7c1.52,0.54,4.32,0.8,5.82,0.54c6.15-1.05,34.93-4.74,51.11-5.23c2.53-0.08,4.05,0.26,5.31,0.53"/><path d="M31.75,49.38c1.15,0.47,3.26,0.66,4.41,0.47c4.06-0.65,10.36-1.52,14.08-1.95c1.9-0.22,3.55-0.39,4.51-0.15"/><path d="M31.75,62.14c0.42,0.39,0.85,0.72,1.04,1.21c1.46,3.9,2.46,11.9,3.46,18.9"/><path d="M34.38,63.78C43,62.25,48.5,60.5,53.44,59.99c1.8-0.19,2.89,1.11,2.63,2.21c-1.07,4.55-1.82,8.3-3.41,14.6"/><path d="M36,80c5.8-0.58,10.5-1.75,18.46-2.64"/><path d="M54.25,11c1.79,1.83,2.62,2.32,2.91,6.26c2.3,30.77,14.02,64.33,35.11,76.5c6.97,4.02,5.95,1.45,5.05-6.63"/><path d="M82.47,45.14c0.09,1.13,0.18,2.92-0.17,4.54c-2.12,9.58-13.85,31.41-30.49,44.28"/><path d="M72.25,12.5c3.59,1.6,9.33,5.26,11,8"/></svg>