<svg><path d="M12.75,34.29c0.78,0.97,1.21,2.07,1.3,3.3c0.71,5.59,1.67,12.86,2.54,19.8c0.28,2.26,0.55,4.49,0.81,6.61"/><path d="M14.58,35.72c8.12-1.48,13.05-2.31,17.05-2.94c2.54-0.4,4.44,0.89,4.01,3.74c-0.91,6.02-1.82,14.43-3.14,22.1"/><path d="M18.32,61.55c4-0.59,7.9-0.9,13.1-1.55c1.47-0.19,2.98-0.4,4.54-0.65"/><path d="M66.28,12.39c1.17,1.17,1.35,2.86,1.35,4.23c0,4.4,0.09,7.08,0.09,11.25"/><path d="M43,30.31c3,0.5,5.97,0.2,9.01-0.12c9.61-1.04,24.25-2.03,34.49-2.79c3.33-0.35,6.66-0.25,10,0.29"/><path d="M65.48,32.37c0,1.26-0.52,2.36-1.49,3.72c-3.26,4.59-6.09,7.73-10.59,13.05c-1.22,1.45-1.8,3.67,0.39,4.56c3.72,1.5,5.57,2.08,10.46,4.05"/><path d="M80.25,40c-0.03,1.63-0.56,3-1.54,4.16C69.25,55.38,60,64,42.25,75"/><path d="M83.97,59.25c-0.23,1.65-0.92,3.02-2.01,4.17c-10.08,10.7-22.08,21.33-42.21,32.33"/><path d="M74.12,77.12c7.62,4.25,17.16,13.63,19.12,19.38"/></svg>