<svg><path d="M11.25,33.29c0.37,0.51,0.76,0.94,0.92,1.58c1.29,5.07,2.84,18.54,3.73,27.63"/><path d="M12.58,35.22c7.92-1.97,16.55-3.06,20.92-3.73c1.6-0.24,2.56,1.44,2.33,2.87c-0.95,5.92-2.55,14.57-3.96,22.75"/><path d="M16.07,59.05c5.14-0.75,11.33-1.05,18.39-2.21"/><path d="M43.99,38.11c0.9,0.35,2.56,0.38,3.47,0.35c7.79-0.21,31.79-4.21,42.14-4.71c1.51-0.07,3.41,0.67,4.17,0.85"/><path d="M53.5,17.68c1.27,0.54,2.25,2.4,2.28,3.5c0.2,7.81,1.66,35.41,2.24,44.3"/><path d="M79.5,12.2c1.03,0.56,1.96,2.52,1.84,3.67c-1.96,18.88-2.49,29.82-4.37,47.95"/><path d="M39,66.37c1.28,0.42,3.62,0.46,4.9,0.42c9.89-0.29,38.96-4.54,51.88-4.15c2.13,0.06,3.41,0.2,4.47,0.42"/><path d="M56.69,73.84c0.05,0.47,0.1,1.21-0.1,1.89c-1.2,3.98-9.08,11.67-17.5,18.06"/><path d="M78.1,72.19c6.19,3.9,16,16.02,17.55,22.08"/></svg>