<svg><path d="M8.75,33.29c0.37,0.51,0.76,0.94,0.92,1.58c1.29,5.07,2.84,18.54,3.73,27.63"/><path d="M11.08,35.22c9.42-2.22,16.55-3.06,20.92-3.73c1.6-0.24,2.69,1.47,2.33,2.87c-1.57,6.14-3.05,14.57-4.46,22.75"/><path d="M13.57,59.05c5.14-0.75,11.33-1.05,18.39-2.21"/><path d="M41.45,21.23c0.9,0.39,4.06,0.43,4.96,0.39c11.94-0.47,31.69-3.7,45.93-3.93c1.5-0.02,2.91,0.19,3.66,0.39"/><path d="M41.79,42.38c0.82,0.79,1.86,3.36,2.02,4.4c1.11,7.58,2.45,32.29,4.02,46.63"/><path d="M43.39,44.67c12.48-1.52,41.38-4.69,49.89-4.92c3.53-0.1,5.11,2.7,4.68,6.41c-1.05,9.01-2.36,32.28-5.71,45.72"/><path d="M61.95,23.1c0.37,1.32,0.71,4.23,0.63,6.07c-0.65,16.53-1.89,37.79-9.55,44.11"/><path d="M73.92,21.77c0.73,1.1,1.36,2.4,1.36,4.09c0,14.82-0.35,28.65-0.35,33.14c0,5.76,0.82,7.43,6.36,7.43c4.69,0,7.78-1.16,8.04-1.5"/><path d="M48.5,90.74c10.47-0.54,31.07-2.26,43.81-2.49"/></svg>