<svg><path d="M11.5,33.85c0.22,0.47,0.94,2.37,1.03,2.94c0.75,4.49,3.15,17.74,3.67,25.71"/><path d="M12.85,35.53c5.31-1.19,17.81-3.45,20.56-3.65c1.84-0.13,3.09,0.87,2.96,2.82c-0.38,5.48-2.77,13.66-4.04,21.49"/><path d="M15.91,58.62c3.21-0.3,14.33-1.92,18.41-2.12"/><path d="M48.05,32.74c0.95,0.48,2.7,0.55,3.66,0.48c9-0.61,21.65-2.87,34-3.3c1.59-0.06,2.55,0.23,3.34,0.47"/><path d="M65.45,11.87c0.13,0.32,1.91,1.65,1.91,3.66c0,12.97,0.15,18.21,0.15,35.36"/><path d="M45.2,52.15c1.57,0.51,3.35,0.58,4.92,0.51c9.26-0.42,28.18-2.67,38.44-3.04c2.61-0.09,3.62,0.24,4.94,0.5"/><path d="M46.82,71.96c0.98,0.38,2.76,0.45,3.74,0.38c14.59-0.99,25.11-2.36,36.03-2.65c1.62-0.04,2.6,0.18,3.41,0.37"/><path d="M66.6,55.82c0.12,0.28,1.68,1.45,1.68,3.22c0,11.39,0.13,17.64,0.13,32.7"/><path d="M40.8,93.09c1.61,0.57,3.44,0.7,5.05,0.57c19.9-1.61,29.23-2.08,47.03-2.83c2.68-0.11,3.73,0.27,5.07,0.56"/></svg>