<svg><path d="M10.75,34.29c0.37,0.51,0.76,0.94,0.92,1.58C12.96,40.93,14.51,52.9,15.4,62"/><path d="M13.08,36.72c9.42-2.22,13.05-3.56,17.42-4.23c1.6-0.24,2.56,1.44,2.33,2.87c-0.95,5.92-2.05,11.57-3.46,19.75"/><path d="M15.57,58.05c5.14-0.75,9.33-1.05,16.39-2.21"/><path d="M56.14,15.5c0.04,0.38,0.2,1.06-0.08,1.53c-1.96,3.31-7.12,9.07-14.33,14.67"/><path d="M55.92,34.77c0.06,0.68,0.19,1.85-0.11,2.72c-2.43,7.01-9.66,16.52-19.56,26.03"/><path d="M50.87,49.62c0.31,0.28,1.08,2.42,1.14,2.98c0.06,0.57,0,37.38-0.06,40.89"/><path d="M65.34,20.8c0.7,0.36,3.68,0.97,4.38,0.86c4.53-0.66,17.23-3.03,20.46-2.88c1.16,0.06,1.86,0.17,2.44,0.35"/><path d="M61.09,43.21c0.73,0.36,2.06,0.4,2.79,0.36c6.88-0.33,24.36-2.83,34.44-3.62c1.21-0.1,1.94,0.17,2.55,0.35"/><path d="M83.25,44.66c0.07,0.45,0.99,2.37,1.06,5.25c0.34,13.85-0.72,35.3-0.72,40.01c0,7.65-6.1-0.48-7.37-1.67"/></svg>