<svg><path d="M19.75,17.64c0.42,0.39,0.85,0.72,1.04,1.21C22.25,22.75,24,30.5,25,37.5"/><path d="M20.88,18.28C29.25,17.75,41,16,45.94,15.49c1.8-0.19,2.89,1.11,2.63,2.21c-1.07,4.55-2.32,8.55-3.91,14.85"/><path d="M25.2,35.08C31,34.5,39,33.5,46.96,32.61"/><path d="M59.25,15.14c0.42,0.39,0.85,0.72,1.04,1.21C61.75,20.25,63,28.5,64,35.5"/><path d="M60.38,16.78c9.37-1.53,20.12-2.28,25.06-2.79c1.8-0.19,2.89,1.11,2.63,2.21c-1.07,4.55-2.82,9.05-4.41,15.35"/><path d="M64.2,33.58C70,33,78.5,32.5,86.46,31.61"/><path d="M19.34,56.55c1.03,0.29,4.51,0.64,6.48,0.47c10.32-0.87,46.05-3.48,58.49-4.08c1.42-0.07,3.44,0.11,6.62,0.6"/><path d="M51.24,38.75c1.1,0.8,1.42,2.09,1.42,3.69c0,19.06-7.41,44.06-38.63,53.31"/><path d="M52.99,54.69c8.12,11.09,23.9,29.86,34.25,37.77c2.72,2.08,3.72,2.34,4.97,2.54"/><path d="M69.49,39.53c7.01,3.21,8.93,5.65,11.1,8.65"/></svg>