<svg><path d="M9.75,33.79c0.37,0.51,0.76,0.94,0.92,1.58C11.96,40.43,14.51,52.9,15.4,62"/><path d="M11.58,36.22C21,34,27.12,33.16,31.49,32.49c1.6-0.24,2.56,1.44,2.33,2.87c-0.95,5.92-2.55,12.57-3.96,20.75"/><path d="M15.07,58.05c5.14-0.75,10.33-1.05,17.39-2.21"/><path d="M61.52,15.14c0.05,0.39,0.21,1.08-0.11,1.57c-2.48,3.96-8.32,9.9-18.86,15.03"/><path d="M38.5,44.89c1.17,0.38,3.32,0.56,4.47,0.38c4.72-0.74,38.04-6.09,50.67-6.61c1.94-0.08,3.11,0.18,4.08,0.37"/><path d="M53.22,28.33c1.03,0.97,1.93,2.64,2.02,5.85c0.43,15.42-0.25,51.03-0.28,56.28c-0.04,9.83-5.7,1.06-7.3-0.26"/><path d="M36.73,70.5c2.02,1.4,4.29,1.19,6.31-0.01c1.19-0.7,15.63-9.35,20.67-12.74"/><path d="M71.25,13.25c1.23,1.84,1.81,2.33,1.99,6.29c1.51,32.96,9.26,61.71,21.75,74.13c4.32,4.3,4.13,0.79,3.52-7.34"/><path d="M90.12,46.39c0.07,0.85,0.35,2.26-0.14,3.41C86.75,57.5,78.25,72,65.93,83.25"/><path d="M83.65,16.25c3.43,2.15,8.91,7.06,10.51,10.75"/></svg>