<svg><path d="M14.25,34.06c0.37,0.45,0.76,0.82,0.92,1.38c1.29,4.42,2.84,16.62,3.73,24.56"/><path d="M16.08,36.68c9.42-1.94,15.55-3.11,19.92-3.69c1.6-0.21,2.56,1.26,2.33,2.51c-0.95,5.17-2.05,13.15-3.46,20.3"/><path d="M19.07,57.86c5.14-0.66,11.33-0.42,18.39-1.43"/><path d="M69.23,12c0.13,0.38,1.82,2,1.82,4.44c0,8.35,0.1,21.5,0.1,25.5"/><path d="M56.93,22.88c0.04,0.4,0.08,1.04-0.08,1.63c-0.94,3.43-6.58,10.88-11.71,14.67"/><path d="M84.57,21.6c5.45,2.95,12.32,10.06,13.68,14.65"/><path d="M52.19,42.68c0.72,0.96,1.2,1.92,1.44,2.88c0.24,0.96,0.34,50.3,0.24,52.46"/><path d="M53.97,45.69c2.87-0.24,29.84-3.29,31.98-3.56c3.83-0.48,4.79,3.05,4.79,4.56c0,10.36-0.17,26.38-0.17,45.85c0,11.67-6.46,2.68-8.62,0.99"/><path d="M54.52,59c11.73-0.94,27.49-1.65,36.11-2.37"/><path d="M54.34,73.2c9.16-0.45,27.02-1.39,35.88-1.87"/></svg>