<svg><path d="M14.25,36.79c0.37,0.51,0.76,0.94,0.92,1.58c1.29,5.07,2.84,19.04,3.73,28.13"/><path d="M16.58,39.22C26,37,31.62,35.66,35.99,34.99c1.6-0.24,2.56,1.44,2.33,2.87c-0.95,5.92-2.05,15.07-3.46,23.25"/><path d="M19.07,64.05c5.14-0.75,11.33-1.05,18.39-2.21"/><path d="M46.04,21c0.31,0.57,0.32,0.96,0.49,1.67c1.42,5.88,3.25,20.23,4.13,31.19"/><path d="M47.51,21.79c10.98-1.48,31.29-3.99,39.49-5.23c3.01-0.46,4.55,1.16,4.4,2.77c-0.57,5.93-2.97,22.07-4.34,31.97"/><path d="M49.55,35.99c3.58-0.58,35.49-3.82,38.44-4.06"/><path d="M51.22,51.77c7.9-0.63,24.91-2.27,35.82-3.3"/><path d="M67.33,20.63c1.17,1.12,1.57,3.35,1.6,4.36c0.39,12.89,0.16,60.35,0.16,65.01"/><path d="M48.22,70.67c0.8,0.38,2.27,0.42,3.08,0.38c8.36-0.44,27.26-3.8,37.61-3.88c1.34-0.01,2.14,0.18,2.81,0.37"/><path d="M36.88,91.73c1.3,0.54,3.68,0.63,4.98,0.54c13.52-0.91,35.62-3.77,51.72-3.73c2.17,0,3.46,0.26,4.55,0.53"/></svg>