<svg><path d="M9.75,34.29c0.37,0.51,0.76,0.94,0.92,1.58c1.29,5.07,3.34,16.54,4.23,25.63"/><path d="M11.08,36.22c9.42-2.22,16.05-3.06,20.42-3.73c1.6-0.24,2.56,1.44,2.33,2.87c-0.95,5.92-2.05,12.07-3.46,20.25"/><path d="M15.07,58.05c5.14-0.75,10.33-1.05,17.39-2.21"/><path d="M43.07,17.39c1.24,0.38,3.52,0.42,4.77,0.38C56,17.5,74.13,14.5,86.74,14.39c2.07-0.02,3.32,0.18,4.35,0.37"/><path d="M43.98,31.85c0.56,0.75,0.76,1.74,1.13,2.67c1.64,4.22,4.68,26.78,4.48,25.72"/><path d="M46.04,33.06c3.17-0.12,38.93-4.17,41.82-4.32c2.41-0.12,3.8,1.64,3.1,5.39c-1.09,5.9-1.57,9.83-4.81,22.89"/><path d="M48.55,45.51c7.99-1.28,34.18-3.78,39.04-3.78"/><path d="M51.39,57.43c12.36-1.53,21.85-2.34,35.03-3.53"/><path d="M67.27,18c0.72,1.51,0.68,2.77,0.68,4.96c0,34.79-0.69,61.96-29.46,74.08"/><path d="M45.22,67c8.91,3.17,31.98,20.72,45.62,27.19c2.65,1.26,4.82,1.93,7.42,2.31"/></svg>