<svg><path d="M14.25,29.76c1.99,0.23,3.89,0.3,5.89,0.1c5.04-0.52,14.17-2.32,21.85-3.92c0.83-0.17,2.14-0.32,3.18-0.25"/><path d="M34.77,12.33c1.08,1.08,1.51,2.67,1.51,4.61c0,12.15-0.01,36.38-0.01,40.52c0,10.67-6.21,2.09-7.71,1.04"/><path d="M14.25,51.45c0.88,0.92,1.75,0.92,3.38,0.22c1.72-0.74,17.12-8.92,25.87-13.61"/><path d="M78.88,11.75c0.18,0.87-0.12,1.65-0.87,2.13c-4.88,3.12-8.38,4.24-17.5,7.87"/><path d="M57.25,22.5c0.88,0.88,1.11,1.88,1.11,3.19c0,19.88-0.99,27.93-8.36,36.07"/><path d="M61.5,32.94c1.38,0.06,2.83-0.04,3.95-0.19c5.61-0.79,17.27-1.82,24.17-2.77c1.84-0.25,3.81-0.63,5.67-0.27"/><path d="M78.81,33.13c0.91,0.91,1.13,2.12,1.13,3.56c0,0.64-0.04,9.56-0.04,17.81c0,2.93,0.02,5.37-0.03,6.88"/><path d="M30.75,72.68c0.91,0.91,1.43,1.86,1.69,3.31c1.31,7.39,2.14,12.25,3.04,18.73c0.21,1.5,0.41,2.93,0.62,4.25"/><path d="M33.06,74.2c13.02-1.46,33.86-3.27,42.2-4.02c3.41-0.31,5.5,1.18,4.52,4.95c-1.32,5.04-2.27,8.24-4.91,16.51"/><path d="M36.88,95.53c6.87-0.55,25.38-2.14,36.82-2.98c1.82-0.13,3.47-0.25,4.86-0.33"/></svg>