<svg><path d="M13.25,28.71c0.81,1.18,1.07,2.27,1.34,3.67c1.03,5.33,2.28,15.07,3.06,23.11c0.17,1.76,0.33,3.45,0.47,5.01"/><path d="M15.31,31.11c8.35-1.6,15.19-2.42,19.71-3.06c3.06-0.44,4.69,0.21,4.17,3.61c-0.95,6.23-2.22,14.14-3.56,22.44"/><path d="M19.05,57.28c6-0.65,8.5-1.03,14.46-1.73c1.2-0.14,2.5-0.28,3.96-0.43"/><path d="M51.08,15.08c1.04,1.04,1.35,2.38,1.35,4.2c0,1.51-0.05,34.29-0.05,49.79c0,3.06-0.01,4.62-0.01,6.69"/><path d="M53.35,16.66c3.11-0.23,25.69-2.34,28.53-2.61c2.36-0.23,3.62,1.25,3.62,2.95c0,3.27,0.01,43.62,0.01,50.26c0,3.9-0.01,6.58-0.01,6.87"/><path d="M53.75,35.38c5.46-0.48,25.92-2.46,30.61-2.46"/><path d="M53.5,52.84c8.78-1,21.59-1.78,30.89-1.98"/><path d="M53.6,72.12c8.78-0.75,22.54-1.73,30.55-1.73"/><path d="M59.31,79.24c0.07,1.14-0.51,2.27-1.75,3.29C53.81,85.59,44,92.5,35.75,95.75"/><path d="M75.89,79.73C83.47,84.21,90.75,90.88,94.25,96"/></svg>