<svg><path d="M10.25,34.79c0.47,0.47,0.96,0.86,1.17,1.44c1.64,4.64,3.61,17.44,4.73,25.77"/><path d="M12.08,36.22c9.42-2.22,15.55-3.06,19.92-3.73c1.6-0.24,2.56,1.44,2.33,2.87c-0.95,5.92-2.05,12.57-3.46,20.75"/><path d="M16.07,58.05c5.14-0.75,10.33-1.05,17.39-2.21"/><path d="M80.53,8.68c0.23,1.24-0.28,1.95-1.17,2.79c-7.51,7.14-18.26,15.6-31.3,20.47"/><path d="M52.49,14.72C63.5,17.25,75.5,23,83.86,31.26"/><path d="M62.11,30.17c0.08,1.03-0.14,2.75-0.69,4.16C57.25,45.12,49.6,59.99,33.19,74.15"/><path d="M39.79,43.1c1.25,0.53,3.55,0.61,4.81,0.53c10.92-0.7,35.32-4.46,49.71-4.93c2.09-0.07,3.34,0.25,4.39,0.51"/><path d="M51.21,58.1c0.42,0.3,1.31,2.21,1.4,2.8c0.08,0.59-0.05,24.25-0.14,27.94"/><path d="M52.48,59.79c2.64-0.21,33.88-5.32,35.85-5.45c2.31-0.15,3.73,1.41,3.73,3.95c0,9.09-0.44,17.41-1.04,24.15c-0.78,8.8-5.7,2.55-6.58,1.51"/><path d="M69.65,46c0.5,0.35,1.56,2.62,1.66,3.32c0.1,0.7-0.07,46.81-0.17,51.18"/></svg>