<svg><path d="M13.39,37.93c0.91,1.25,0.98,1.92,1.26,3.55c0.8,4.75,1.89,11.95,2.79,18.53c0.31,2.28,0.6,4.48,0.85,6.49"/><path d="M15.71,40.39c6.35-1.16,12.31-2.09,18.18-3.23c2.92-0.56,4.11,0.64,3.61,3.6c-0.88,5.34-1.71,8.55-3.29,17.91"/><path d="M18.8,61.9c4.26-0.47,8.83-1.22,14.23-1.86c1.33-0.16,2.71-0.33,4.14-0.5"/><path d="M60.46,13.5c0.19,1.94-0.3,3.23-0.92,4.89c-3.9,10.59-8.85,20.05-17.8,32.94"/><path d="M52.72,39.8c1.12,1.12,1.43,2.46,1.43,3.94c0,8.19-0.02,32.39,0,45.64c0.01,4.99,0.05,6.75,0.05,8.88"/><path d="M77.86,21.75c0.07,0.85,0.04,1.99-0.24,2.7c-1.88,4.8-2.66,6.75-5.85,12.42"/><path d="M54.97,41.54c5.23-0.78,19.44-2.84,28.67-4.09c2.49-0.34,5.02-0.58,7.49-1.05"/><path d="M71.63,42.27c0.93,0.93,1.14,2.11,1.14,3.51c0,7.55,0.07,30.35,0.07,42.49"/><path d="M55.2,57.11c4.91-0.64,17.64-2.29,25.7-3.36c2.23-0.3,4.47-0.56,6.69-0.93"/><path d="M55.11,72.2c5.26-0.55,17.99-2.54,26.17-3.78c2.18-0.33,4.35-0.67,6.53-0.96"/><path d="M55.11,90.55c6.59-0.6,22.62-2.12,32.41-3.05c2.31-0.22,4.7-0.3,6.99-0.74"/></svg>