<svg><path d="M35.58,11.22c0.21,1.48-0.06,3.43-0.74,4.7c-4.35,8.1-9.87,14.96-19.84,24.81"/><path d="M27.9,28.5c0.92,0.56,1.63,1.79,1.69,2.66c0.55,7.74-0.75,31.28-0.29,35.31"/><path d="M60.88,11.13c0.06,0.76-0.02,1.77-0.21,2.42c-1.21,4.18-2.75,7.4-5.53,12.48"/><path d="M29.83,28.99c12.96-0.74,52.74-4.03,57.33-4.43"/><path d="M56.96,28.94c0.52,0.29,0.93,0.68,0.93,1.17c0,5.02,0.06,22.35-0.25,30.26"/><path d="M29.76,40.97c10.1-0.6,49.25-3.86,53.58-4.19"/><path d="M29.54,51.84c10.66-0.51,50.16-3.36,54.73-3.64"/><path d="M29.54,63.05c10.7-0.73,56.37-3.62,60.96-4.02"/><path d="M30.75,72.53c0.45,0.5,1.41,1.91,1.6,2.54c1.55,4.93,2.41,17.54,3.47,26.4"/><path d="M32.17,74.38c15.08-1.42,37.15-3.12,45.45-3.68c2.27-0.15,3.63,1.76,2.92,3.88c-1.65,4.97-3.04,12.12-5.07,20.65"/><path d="M35.91,98.02c9.75-0.62,28.7-1.71,42.09-2.67"/></svg>