<svg><path d="M8.25,34.75c0.34,0.43,0.69,0.79,0.83,1.33c1.17,4.26,3.08,17.52,3.88,25.17"/><path d="M10.36,36.8c8.54-1.87,13.64-3,17.61-3.56c1.45-0.21,2.32,1.21,2.11,2.42c-0.86,4.98-1.86,12.68-3.14,19.56"/><path d="M12.62,57.69c4.66-0.63,10.28-0.89,16.67-1.86"/><path d="M46.51,13.25c0.83,0.52,2.18,2.54,2.18,3.58c0,3.83-0.11,8.69-0.11,13.81"/><path d="M35.05,31.35c0.67,0.32,2.09,0.53,2.71,0.45c6.12-0.79,14.94-1.47,23.25-3.22c1.04-0.22,2-0.44,2.78,0.09"/><path d="M47.25,41.1c2.21,0.89,6.89,2.51,10.24,3.41c1.17,0.32,2.06,2.37,1.84,4.09c-1.67,13.42-6.63,30.7-12.73,40.09c-3.74,5.76-6.17-0.23-7.28-1"/><path d="M46.56,33.67c0.26,1.51,0.21,3.21-0.1,4.91c-2.11,11.71-8.21,35.37-17.69,46.45"/><path d="M78.23,13.97c0.04,0.92,0.18,2.42-0.08,3.72c-1.67,8.46-6.77,24.3-13.79,35.57"/><path d="M78.18,17.3c2.59,6.76,13.77,28.83,16.63,33.78c0.97,1.68,2.22,2.4,3.19,2.88"/><path d="M73.28,54.42c3.8,1.65,9.82,6.8,10.77,9.38"/><path d="M69.18,75.78c6.58,3.25,17,13.38,18.64,18.44"/></svg>