<svg><path d="M11.25,33.79c0.37,0.51,0.76,0.94,0.92,1.58C13.46,40.43,15.51,52.9,16.4,62"/><path d="M13.08,35.72c9.42-1.47,15.05-2.56,19.42-3.23c1.6-0.24,2.56,1.44,2.33,2.87c-0.95,5.92-2.05,12.57-3.46,20.75"/><path d="M16.57,58.05c5.14-0.75,9.83-1.05,16.89-2.21"/><path d="M63.31,10.38c0.76,0.33,1.86,2.96,2.01,3.62c0.15,0.66,0.4,14.53,0.25,18.63"/><path d="M65.75,21.5c2,0,13.17-1.36,19-2.27C86.83,18.9,87.75,19.08,89,19"/><path d="M45.66,34.17c0.69,1.17,1.6,1.54,1.82,3.11c0.6,4.28,2.7,19.63,2.73,23.22"/><path d="M47.36,35.11c3.89-0.19,36.04-4.36,39.55-3.87c1.39,0.19,2.73,1.73,2.2,3.69c-1,3.69-3.09,15.05-4.92,21.66"/><path d="M49.14,46.31c6.64-0.43,31.55-3.22,37.5-3.22"/><path d="M50.88,57.36c9.56-0.74,28.05-2.83,32.91-2.83"/><path d="M36.88,73.21c1.19,0.46,3.38,0.58,4.57,0.46c10.31-1.09,43.82-4.46,53.51-4.42c1.99,0.01,3.18,0.22,4.17,0.45"/><path d="M65.73,58.75c0.44,0.55,1.38,2.63,1.47,3.74c0.09,1.1-0.06,29.62-0.15,36.51"/></svg>