<svg><path d="M9.75,34.29c0.37,0.51,0.76,0.94,0.92,1.58C11.96,40.93,14.01,52.9,14.9,62"/><path d="M11.08,36.22c9.42-2.22,16.05-3.56,20.42-4.23c1.6-0.24,2.56,1.44,2.33,2.87c-0.95,5.92-2.05,12.07-3.46,20.25"/><path d="M14.57,58.05c5.14-0.75,10.83-1.05,17.89-2.21"/><path d="M64.85,11.25c1.08,0.39,2.62,2.4,2.59,3.53c-0.08,3.56-0.08,8.96-0.09,12.2"/><path d="M43.87,26.72c0,3.72-2.17,13.94-3.16,16.42"/><path d="M44.02,29.87c7.34-1.3,42.09-4.52,47.62-4.85c9.16-0.54,3.84,5.37-0.56,9.39"/><path d="M58.04,35.26c0.08,0.61,0.09,1.56-0.17,2.45C55.59,45.53,51.75,50,42.94,59.07"/><path d="M71.73,32.41c0.99,1.08,1.78,2.35,1.84,4c0.12,3.38,0.04,6.59,0.04,9.34c0,6.25,2.91,7.03,11.65,7.03S95,52,96.38,51.05"/><path d="M47.74,65.71c1.08,0.42,3.43,0.51,4.53,0.43c9.96-0.8,18.86-2.4,31.17-3.03c1.67-0.09,3.19,0.08,4.58,0.43"/><path d="M66.95,65.63c1.02,1.32,1.02,2.12,1.02,3.17c0,7.41-0.34,12.82-0.34,21.28"/><path d="M38.74,91.52c0.76,0.34,4.79,0.64,6.09,0.54c10.08-0.85,34.02-2.76,49.33-3.53c2.08-0.1,4.57,0.56,5.61,1.09"/></svg>