<svg><path d="M10.25,33.91c0.86,0.86,1.12,2.47,1.39,3.84c1.06,5.5,1.77,12.66,2.66,20.63c0.21,1.91,0.38,3.8,0.49,5.62"/><path d="M12.12,35.21c5.51-1.09,12.12-1.9,17.13-2.46c3.59-0.4,5.29,0.21,4.61,4.24c-0.93,5.51-2.35,13.69-3.67,21.62"/><path d="M16.04,61.02c4.01-0.47,8.46-0.93,12.33-1.28c1.39-0.12,2.71-0.23,3.91-0.32"/><path d="M37.66,21.45c2.84,0.55,5.63,0.35,8.08,0.09c9.38-1.02,27.69-3.05,38.64-3.6c2.42-0.12,5.25-0.12,7.56,0.65"/><path d="M62.69,22.68c0.15,1.32-0.33,2.37-1.13,3.37C57.5,31.12,50,37.75,39.77,44.9"/><path d="M56.2,34.25c10.05,9,17.8,34.5,9.77,57.33c-3.24,9.21-7.39,1.62-8.35,0.56"/><path d="M59,42c0.14,1.29-0.05,2.4-0.59,3.58c-2.54,5.51-11.63,15.68-23.77,22.08"/><path d="M64.2,56.25c0.17,1.54,0.01,3.08-0.76,4.46c-3.69,6.66-14.19,17.91-28.89,26.79"/><path d="M87.74,33.25c0.11,0.86-0.21,1.95-0.76,2.68c-2.98,3.95-6.74,7.93-16.73,14.7"/><path d="M67.17,50.75c3.18,3.53,14.59,18.37,21.27,26.17c1.57,1.83,4.18,4.46,7.06,6.58"/></svg>