<svg><path d="M52.86,12.25c1.01,1.01,1.73,2.46,1.73,3.66c0,1.59-0.15,5.84-0.15,8.65"/><path d="M18,27.61c2.81,0.52,6.58,0.44,8.52,0.3c15.74-1.16,37.26-3.66,58.65-3.95c3.3-0.05,4.99,0.05,7.45,0.7"/><path d="M35.27,31.46c2.57,2.43,6.65,9.98,7.29,13.76"/><path d="M70.54,28.14c0.34,0.86,0.29,1.72,0.03,2.41c-1.02,3.52-2.94,8.45-5.69,13.32"/><path d="M23,47.5c1.06,1.06,1.17,2.54,1.17,3.83c0,1.18-0.01,28.78-0.02,40.66c0,2.84,0,4.78,0,5.25"/><path d="M25.23,49.4c8.77-0.65,55.33-4.34,57.09-4.41c4.14-0.16,5.33,1.51,5.33,5.68c0,1.61-0.02,38.07-0.02,41.79c0,7.54-4.75,2.66-7.85-0.06"/><path d="M45.72,51.43c0.03,0.82-0.29,1.77-0.83,2.68C43,57.25,38.5,61.62,30.75,66.75"/><path d="M61.1,49.37c0.51,0.51,0.73,1.79,0.73,2.53c0,1.73-0.03,4.23-0.03,5.8c0,3.42,0.58,4.38,9.36,4.38c4.9,0,8.13-0.67,8.82-1.05"/><path d="M39.31,71.82C40,72.38,40.5,73,40.62,73.93c0.57,4.4,1.16,8.16,1.86,12.95c0.13,0.89,0.27,1.58,0.41,2.58"/><path d="M41.98,73.23c7.93-0.82,18.28-2.46,23.9-3.04c3.23-0.33,4.93,0.5,3.99,3.95c-0.91,3.38-2.08,8.03-3.43,11.76"/><path d="M43.35,87.9c5.21-0.36,13.55-0.98,21.91-1.36c1.09-0.05,2.18-0.09,3.27-0.13"/></svg>