<svg><path d="M9.75,34.06c0.33,0.45,0.68,0.82,0.82,1.38c1.16,4.42,3.55,18.12,4.34,26.06"/><path d="M11.33,36.18c8.45-1.94,15.99-3.11,19.9-3.69c1.43-0.21,2.29,1.26,2.09,2.51c-0.85,5.17-1.84,13.15-3.1,20.3"/><path d="M15.07,57.86c4.6-0.66,10.66-0.92,16.98-1.93"/><path d="M40.39,21.15c0.24,0.03,1.56,0.24,2.26,0.17c3.12-0.31,12.38-2.85,15.65-3.63c2.24-0.54,2.88,0.61,2.31,2.08c-3.14,8.01-7.32,20.19-20.55,31.56"/><path d="M43.5,29.43c5.57,3.26,11.76,9.26,14.51,14.36"/><path d="M68.4,18.77c0.25,0.03,1.59,0.26,2.31,0.19c3.18-0.34,13.66-3.03,17-3.88c2.29-0.58,2.94,0.66,2.36,2.24C86.86,25.96,78,42.25,62.98,51.24"/><path d="M70.44,29.25c6.75,4.03,14.25,11.46,17.58,17.77"/><path d="M39.12,61.67c0.25,0.03,1.56,0.25,2.26,0.17c3.12-0.31,11.89-2.38,15.15-3.17c2.24-0.54,2.88,0.61,2.31,2.08c-3.14,8-10.86,23.58-24.6,33.09"/><path d="M40.71,69.54c6.35,3.8,13.4,10.8,16.53,16.75"/><path d="M66.64,59.28c0.39,0.04,2.48,0.33,3.58,0.23c4.95-0.42,11.43-2.91,16.62-3.96c3.56-0.72,4.57,0.82,3.66,2.77c-4.99,10.69-12.33,25.88-32.9,36.42"/><path d="M64.23,63.95c4.25,4.86,23.53,23.31,29.26,27.75c1.71,1.33,3.09,1.97,4.76,2.36"/></svg>