<svg><path d="M8.75,34.62c0.35,0.46,0.7,0.85,0.85,1.43c1.2,4.58,2.64,17.23,3.46,25.46"/><path d="M10.91,36.56c8.42-1.88,13.44-3.01,17.34-3.57c1.43-0.21,2.28,1.22,2.08,2.42c-0.85,5-1.83,12.73-3.09,19.64"/><path d="M13.14,57.54c4.59-0.64,10.12-0.89,16.42-1.86"/><path d="M63.45,12.5c0.07,0.35,0.15,0.91-0.14,1.42c-1.67,2.99-11.24,9.56-24.34,13.58"/><path d="M34.78,44.12c0.42,0.19,2.11,0.64,3.24,0.57c7.99-0.44,18.64-2.79,27.23-3.32c1.12-0.07,2.53-0.27,3.24-0.08"/><path d="M53.71,25.5c0.61,0.46,0.97,2.05,1.09,2.97c0.12,0.91,0,64.58-0.12,70.28"/><path d="M54.55,43.68c-5.05,14.07-14.3,29.82-25.8,38.57"/><path d="M55.12,50.46c5.88,9.29,24.38,29.04,35,34.6c2.26,1.18,5,2.46,6.88,2.95"/><path d="M73.25,32.24c0.37,0.64,0.76,1.17,0.92,1.96c1.29,6.31,2.84,23.72,3.73,35.05"/><path d="M74.58,33.77c9.17-2.02,16.05-2.94,20.42-3.77c1.6-0.3,3.56,1.8,3.33,3.58c-0.95,7.37-2.05,21.27-3.46,31.46"/><path d="M78.07,67.2c5.14-0.94,10.93-1.7,19.39-2.25"/></svg>