<svg><path d="M10.3,33.95c0.35,0.49,0.71,0.89,0.87,1.5c1.22,4.82,3.68,17.63,4.52,26.3"/><path d="M12.5,36.27c8.9-2.12,15.7-3.39,19.83-4.03c1.51-0.23,2.42,1.37,2.2,2.73c-0.89,5.64-2.44,12.35-3.77,20.14"/><path d="M15.85,57.92c4.85-0.72,10.7-1,17.35-2.1"/><path d="M42.12,23.08c3.35,2.16,8.22,8.28,9.13,10.44"/><path d="M83.95,19.03c0.64,0.5,0.17,2.53-0.42,3.31c-0.58,0.77-5.78,5.47-8.69,7.27"/><path d="M62.73,11.25c0.77,1,1.1,2.8,1.03,3.45C61.87,33.68,59.06,42.69,42.5,51"/><path d="M62.26,27.83c8.41,7.99,18.61,16.11,24.15,19.44c1.75,1.05,2.15,0.93,3.58,1.2"/><path d="M44.25,62c4.64,2.19,7.53,7.63,8.79,9.83"/><path d="M84.21,56.65c0.54,1.28,0.44,2.84-0.18,3.95c-0.62,1.12-5.42,5.77-8.5,8.37"/><path d="M64.05,52c0.95,1.2,1.12,2.51,1.09,3.27c-1.17,25.71-12.5,34.75-29.2,42.23"/><path d="M63.64,69.21C73.7,79.46,85.9,89.88,92.53,94.15c2.09,1.34,2.57,1.2,4.28,1.54"/></svg>