<svg><path d="M16.67,20.56c1.39,0.55,3.78,0.39,5.21,0.22c5.32-0.63,13.87-1.9,20.62-2.52c1.72-0.16,3.55-0.27,5.25,0.13"/><path d="M20.07,33.61c1.18,0.26,2.53,0.35,3.75,0.19c5.05-0.62,13.85-2.17,18.44-2.85c2.13-0.32,4.22-0.08,3.59,2.82c-0.71,3.32-1.61,6.97-3.41,12.62"/><path d="M23,49.56c4.5-0.56,10.2-1.14,16.72-1.98c1.72-0.22,3.36-0.43,4.83-0.58"/><path d="M21.21,34.51c0.77,0.77,0.9,1.69,0.92,3.03C22.25,50.12,22.5,61,11.62,71.75"/><path d="M62.52,12.39c0.23,0.86,0.15,1.96-0.06,2.73c-1.59,6-3.96,12-10.3,20.1"/><path d="M62.82,24.22c1.5,0.22,2.94,0.1,4.44-0.1c5.01-0.67,12.19-2.29,17.36-3.48c1.41-0.33,3.55-0.53,4.99-0.04"/><path d="M75.47,28.72c0.45,0.76,0.48,1.82-0.03,3.2C71.38,43,62.88,53.62,47.09,59.25"/><path d="M58.86,37.92c4.64,0.43,18.32,12.71,28.28,19.14c2.36,1.52,5.49,3.06,8.13,3.96"/><path d="M33.75,70.44c0.97,1.05,1.28,2.02,1.64,3.39c1.17,4.49,2.62,12.3,3.64,19.13c0.29,1.94,0.55,3.81,0.76,5.5"/><path d="M36.02,71.58c10.73-1.3,27.67-3.39,35.13-4.3c3.44-0.42,5.76,0.45,4.95,4.39c-1.16,5.61-2.29,11.32-4.72,19.41"/><path d="M40.73,94.8c5.35-0.62,17.57-1.51,26.76-2.42c2.15-0.21,4.1-0.4,5.69-0.55"/></svg>