<svg><path d="M8.5,34.06c0.3,0.45,0.61,0.82,0.74,1.38c1.05,4.42,3.15,18.12,3.87,26.06"/><path d="M10.38,36.18c7.62-1.94,14.03-3.11,17.56-3.69c1.29-0.21,2.07,1.26,1.88,2.51c-0.77,5.17-2.09,12.65-3.23,19.8"/><path d="M12.83,57.86c4.15-0.66,10.17-1.42,15.88-2.43"/><path d="M57.48,12.75c0.05,0.37,0.12,0.96-0.11,1.49c-1.35,3.14-9.1,10.02-19.7,14.24"/><path d="M33.98,45.9c0.28,0.19,1.01,0.49,1.75,0.56c2.02,0.19,19.02-2.78,24.07-3.7c0.73-0.13,0.92-0.19,1.38,0"/><path d="M49.77,25.6c0.27,0.45,1.19,2.02,1.25,2.91c0.05,0.9,0,61.39-0.06,66.99"/><path d="M50.78,44.8C46.45,56.57,39.22,71.1,29.41,80.74"/><path d="M53.02,53.86c3.51,2.59,6.47,7.78,8.36,11.11"/><path d="M63.37,34.76c2.2,3.72,5.41,14.24,6.01,17.96"/><path d="M94.68,29.21c0.54,0.88,1.15,2.05,0.66,3.43c-0.5,1.37-5.91,12.1-8.37,15.3"/><path d="M77.17,12.3c0.7,0.82,1.06,3.02,1.07,4.38C78.53,51.67,79,80.25,60.52,95.79"/><path d="M78.18,53.12C83.52,70.88,91,85.96,95.55,92.87c1.33,2.01,1.54,1.91,2.57,2.45"/></svg>