<svg><path d="M9.75,34.06c0.35,0.45,0.72,0.82,0.87,1.38c1.23,4.42,3.7,18.12,4.54,26.06"/><path d="M11.96,36.18c8.94-1.94,15.27-3.11,19.41-3.69c1.52-0.21,2.43,1.26,2.21,2.51c-0.9,5.17-2.45,12.65-3.78,19.8"/><path d="M14.82,57.86c4.87-0.66,10.75-1.42,17.43-2.43"/><path d="M65.77,9.59c0.66,0.81,1.66,2.63,1.66,4.71c0,3.29,0,4.7,0,8.13"/><path d="M44.79,24.42c1.31,0.27,2.85,0.31,4.15,0.27c7.4-0.23,28.86-4.17,40.05-4.36c2.18-0.04,3.5,0.13,4.59,0.26"/><path d="M53.55,27.7c2.24,3.89,3.66,8.58,3.87,11.15"/><path d="M81.3,24.18c0.56,0.46,0.25,1.59,0.1,1.95c-1.81,4.35-4.15,9.96-5.28,11.95"/><path d="M42.86,41.85c-0.09,3.42-2.26,12.35-3.04,14.39"/><path d="M43.82,43.83c2.17,0,39.24-5.17,50.16-5.17c7.43,0,2.35,4.99-0.43,7.92"/><path d="M49.02,56.78c0.43,0.31,1.44,2.33,1.44,2.96c0,4.09-0.06,24.3-0.14,28.2"/><path d="M50.85,58.24c2.95-0.22,32.24-4,34.44-4.14c2.59-0.16,2.98,2.75,3.06,4.17C88.75,66,89,74.5,87.57,83.6c-0.8,5.11-4.89-0.3-6.13-2.04"/><path d="M67.07,42.76c0.43,0.31,1.35,2.34,1.44,2.96C68.6,46.35,68.46,95.1,68.37,99"/></svg>