<svg><path d="M9.25,33.79c0.37,0.51,0.76,0.94,0.92,1.58c1.29,5.07,2.84,18.04,3.73,27.13"/><path d="M11.58,36.22C21,34,26.12,33.66,30.49,32.99c1.6-0.24,2.56,1.44,2.33,2.87c-0.95,5.92-3.05,13.07-4.46,21.25"/><path d="M14.07,60.05c5.14-0.75,9.83-1.05,16.89-2.21"/><path d="M37.75,29.36c1.02,0.36,2.9,0.4,3.92,0.36c7.86-0.32,39.05-4.18,51.25-4.83c1.7-0.09,2.72,0.17,3.58,0.35"/><path d="M63.39,13c0.67,0.31,1.08,1.41,1.21,2.03s1.43,22.7,1.29,26.61"/><path d="M80.05,11.75c0.67,0.31,1.08,1.41,1.21,2.03c0.13,0.63-2.79,17.85-3.18,24.42"/><path d="M66.29,39.64c2.48,0,11.84-1.25,13.24-1.25"/><path d="M47.5,15.82c0.74,0.33,1.18,1.5,1.33,2.17c0.15,0.67,0.55,21.2,0.02,28.87c-0.17,2.51-0.26,4.4,2.55,4.18C63.35,50.1,75.25,48.33,87.02,48c2.22-0.06,4.08,0.13,4.93,0.3"/><path d="M38.99,67.15c1.36,0.45,2.91,0.59,4.47,0.45c7.96-0.73,34.58-2.78,46.62-3.64c1.55-0.11,2.53,0.08,4.08,0.39"/><path d="M64.82,54c0.72,0.29,1.79,2.29,1.79,2.88c0,6.09,0,37.99-0.14,41.62"/><path d="M65.1,66.73C60.34,74.49,50,86.25,37.69,90.75"/><path d="M66.68,66.09c3.92,4.41,20.58,19.16,26.3,22c1.59,0.79,2.65,1.5,4.08,1.8"/></svg>