<svg><path d="M9.75,34.06c0.35,0.45,0.72,0.82,0.87,1.38c1.23,4.42,3.7,18.12,4.54,26.06"/><path d="M11.96,36.18c8.94-1.94,15.27-3.11,19.41-3.69c1.52-0.21,2.43,1.26,2.21,2.51c-0.9,5.17-2.45,12.65-3.78,19.8"/><path d="M14.82,57.86c4.87-0.66,10.75-1.42,17.43-2.43"/><path d="M44.76,32.03c0.04,1.37-0.04,3.53-0.08,5.51c-0.34,18.41-4.5,44.93-13.38,53.49"/><path d="M40.65,30.88c1.32,0.54,3.74,0.67,5.07,0.54c9.53-0.92,28.22-4.05,42.85-5.24c2.2-0.18,3.52-0.29,4.62-0.02"/><path d="M49.75,46.73c1.5,0.27,3.61,0.1,4.53-0.07c3.25-0.59,7.29-1.39,10.26-1.78c1.52-0.2,2.84-0.36,3.61-0.14"/><path d="M48.25,58.36c0.34,0.36,0.68,0.66,0.83,1.11c1.17,3.55,2.47,12.84,3.27,19.22"/><path d="M49.35,59.35c6.9-1.39,13.8-2.49,17.75-2.96c1.44-0.17,2.31,1.01,2.1,2.01c-0.85,4.15-1.96,9.57-3.23,15.3"/><path d="M52.15,75.63c4.64-0.53,8.9-1.09,15.27-1.91"/><path d="M68.25,11.75c1.49,1.76,2.18,2.25,2.42,6.05c1.91,29.74,9.55,59.17,24.56,75c4.83,5.09,4.96,1.4,4.21-6.41"/><path d="M92.3,43.12c0.09,1.15,0.19,2.97-0.18,4.63c-2.23,9.76-14.57,32.01-32.07,45.12"/><path d="M81.4,11.12c3.6,1.56,9.37,5.12,11.05,7.79"/></svg>