<svg><path d="M35.52,12.33c3.63,1.7,9.38,6.99,10.29,9.63"/><path d="M69.78,9.89c0.07,0.76-0.05,1.48-0.36,2.17c-0.98,2.54-3.55,6.13-8.36,10.4"/><path d="M29,27.64c2.5,0.49,4.82,0.28,7,0.08c9.55-0.87,26.51-2.49,37.25-2.98c1.95-0.09,4.12-0.23,6.25,0.28"/><path d="M30.25,39.14c2.62,0.61,4.82,0.29,6.99,0.12c9.76-0.77,24.35-2.03,33.39-2.68c2.1-0.15,4.62-0.08,6.62,0.18"/><path d="M29.25,50.64c2.38,0.61,5.33,0.43,7.52,0.21c10.77-1.09,25.83-2.33,35.6-2.82c2.24-0.11,4.75-0.16,6.63,0.23"/><path d="M51.75,26.75C53,27.25,53.75,29,54,30s0,28.75-0.25,35"/><path d="M36.27,55.83c1.78,1.39,4.6,5.72,5.04,7.88"/><path d="M72.04,51.89c0.08,0.61-0.01,1.19-0.27,1.74c-0.78,2.28-1.89,4.25-4.46,8.09"/><path d="M13.75,68.45c3.13,1.12,6.98,0.59,10.21,0.21c12.67-1.48,45.53-4.59,62.16-5.08c3.14-0.09,6.29,0.05,9.38,0.71"/><path d="M34.14,76.71c0.88,0.88,1.53,1.96,1.66,3.18c0.95,5.6,1.58,9.84,2.49,15.3c0.23,1.42,0.45,2.77,0.64,4.01"/><path d="M36.41,78.17C46.06,76.78,63.3,75.2,71,74.49c3.37-0.31,6.15,0.23,5.08,4.27c-1.13,4.27-2.49,8.77-4.84,14.87"/><path d="M39.62,96.93c5.53-0.51,19.55-1.47,28.88-2.29c1.8-0.16,2.75-0.13,4.79-0.14"/></svg>