<svg><path d="M8.75,34.56C9.07,35,9.4,35.38,9.54,35.94c1.11,4.42,3.35,18.12,4.11,26.06"/><path d="M10.75,36.68c8.09-1.94,13.83-3.11,17.58-3.69c1.37-0.21,2.2,1.26,2,2.51c-0.81,5.17-2.22,12.65-3.43,19.8"/><path d="M13.35,57.86c4.41-0.66,9.73-1.42,15.79-2.43"/><path d="M36.96,27.75c0.61,0.45,2.73,0.73,3.34,0.65c5.12-0.61,20.26-3.29,25.74-3.71c1.02-0.08,2.63,0.21,3.14,0.43"/><path d="M38.59,38.1c0.23,0.36,0.46,0.66,0.56,1.11c0.79,3.57,2.19,12.73,2.73,19.14"/><path d="M40.01,40.05c6.86-1.54,23.14-3.5,25.83-3.86c1.67-0.22,2.73,2.31,2.29,4.38c-1.18,5.54-1.47,7.98-2.41,12.21"/><path d="M41.99,56.25c8.24-0.89,18.97-2.28,25.15-2.95"/><path d="M52.16,12.75c0.97,0.47,1.56,2.13,1.75,3.08c0.19,0.95,0,74.74-0.19,80.67"/><path d="M53.17,55.87c-4.6,10.2-16.57,24.64-26.15,30.42"/><path d="M56.01,61.17c5.67,2.99,10.23,8.87,13.08,14.84"/><path d="M77.95,23.97c0.77,0.79,1.31,1.71,1.38,4.31c0.32,12.51-0.02,37.11-0.02,41.37"/><path d="M92.75,14.07c0.99,0.88,1.68,1.9,1.76,4.8c0.41,13.93-0.26,65.72-0.26,70.46c0,12.58-7.25,1.44-8.76,0.24"/></svg>