<svg><path d="M29.62,20.91c2.76,0.46,5.77,0.27,8.38-0.01c9.75-1.02,23.42-2.51,33.88-3.14c2.65-0.16,5.38-0.46,8.01-0.01"/><path d="M52.51,8.01c0.99,0.99,1.54,2.12,1.54,3.65c0,3.09-0.16,12.47-0.16,17.93"/><path d="M36.68,31.93c2.19,0.32,4.12,0.35,5.95,0.08c7.74-1.13,14.84-1.9,24.88-2.57c1.95-0.13,3.96-0.38,5.91-0.09"/><path d="M34.74,40.09c0.9,0.52,1.44,1.56,1.61,2.62c0.93,2.59,1.77,6.43,2.46,9.91c0.2,0.99,0.38,1.95,0.56,2.85"/><path d="M37.18,41.25c8.38-0.98,23.27-2.39,30.19-3.01c4.13-0.37,5.25,1.38,4.44,3.78c-0.91,2.68-1.44,4.35-3.43,8.55"/><path d="M40.01,53.7c4.92-0.36,18.18-1.75,26.62-2.42c1.54-0.12,2.92-0.22,4.06-0.29"/><path d="M33.5,58.38c2.49,1.7,6.44,7,7.06,9.64"/><path d="M71.28,55.14c0.02,0.3,0.04,0.76-0.04,1.19c-0.4,2.11-2.89,6.34-5.74,9.64"/><path d="M13.25,72.2c4,0.55,7.19,0.46,10.39,0.18c14.15-1.28,46.46-4.26,63.22-5.2c2.95-0.16,6.24-0.26,9.15,0.36"/><path d="M34.28,80.43c0.83,0.83,1.23,2.08,1.44,3.17c0.88,4.58,1.64,9.42,2.38,14.28c0.13,0.86,0.26,1.72,0.39,2.58"/><path d="M36.64,81.84c10.2-1.19,25.31-3.19,32.33-3.88c3.26-0.32,5.33,0.87,4.23,4.44c-1.07,3.48-1.89,6.74-4.06,11.84"/><path d="M39.2,97.9c5.82-0.43,19.21-1.72,28.43-2.39c1.54-0.11,2.97-0.21,4.21-0.28"/></svg>