<svg><path d="M11.25,32.53c0.73,0.86,1.13,1.85,1.2,2.98c0.92,6.87,1.45,12.21,1.97,19c0.14,1.76,0.28,3.46,0.43,4.99"/><path d="M13.68,34.65c7.54-1.53,12.44-2.25,16.21-2.79c3.86-0.55,4.96,0.2,4.38,4.28c-0.72,5.05-1.02,10.73-2.18,17.26"/><path d="M15.77,56.71c3.77-0.54,8.47-1.07,13.72-1.78c1.45-0.2,2.88-0.38,4.34-0.38"/><path d="M59.35,13.5c0.1,1.03-0.16,2.16-0.67,3.03c-2.75,4.71-9.27,14.28-17.93,21.22"/><path d="M59.55,20.01c4.2-0.51,10.82-2.01,13.59-2.72c2.58-0.66,3.6,0.59,1.71,2.76c-3.56,4.07-8.35,10.2-14.35,18.45"/><path d="M44,40c0.94,0.94,1.51,2.61,1.73,3.87c1.13,6.45,1.18,9.73,1.95,16.33c0.16,1.41,0.35,2.99,0.57,4.79"/><path d="M46.39,41.4c11.11-1.9,28.57-4.48,35.25-4.67c2.77-0.08,3.79,2.16,3.6,3.94c-0.19,1.82-0.84,8.01-1.84,14.4c-0.28,1.79-0.59,3.6-0.92,5.33"/><path d="M58,43.75c0.25,0.5,0.25,1.23,0.18,1.79c-0.56,4.96-1.96,8.82-5.92,12.71"/><path d="M67.77,39.21c0.49,0.87,0.91,1.89,0.91,3.22c0,1.8,0.1,3.42,0.1,4.7c0,3.36,1.43,4.69,4.65,4.69c2.91,0,5.05,0,6.29-1.13"/><path d="M35.09,70.64c2.48,0.59,5.42,0.44,7.91,0.13c15.38-1.89,33.6-3.26,45.88-4.22c2.51-0.2,5.5-0.3,7.76,0.22"/><path d="M62.89,58.92c0.31,1.17,0.54,2.4,0.31,3.49c-3.44,15.97-13.82,27.47-31.33,34.34"/><path d="M63.7,69.39c5.24,4.67,16.25,14.96,23.51,20.55c2.26,1.74,4.42,3.43,7.42,4.43"/></svg>