<svg><path d="M9.75,34.09c0.36,0.45,0.72,0.83,0.88,1.4c1.24,4.5,3.73,17.92,4.57,26.01"/><path d="M11.98,36.25c9.03-1.98,15.42-3.17,19.61-3.76c1.53-0.22,2.45,1.28,2.23,2.55c-0.91,5.26-2.47,12.89-3.82,20.17"/><path d="M14.87,57.83c4.92-0.67,10.86-0.93,17.62-1.96"/><path d="M55.66,10.75c0.59,1.19,0.83,3.07,0.29,4.84c-1.18,3.91-4.98,12.66-6.65,15.93c-0.7,1.37,0.18,2.23,1.62,1.98c5.97-1.02,16.3-3.05,25.17-3.78"/><path d="M54.32,20.96c4.43-0.21,20.84-2.44,23.17-2.71c1.94-0.23,2.99,1.38,2.41,2.95c-2.4,6.55-4.86,12.55-6.37,18.55"/><path d="M38,42.71c1.11,0.53,3.14,0.58,4.24,0.53c11.73-0.49,38.76-4.88,50.38-4.13c1.84,0.12,2.95,0.25,3.88,0.52"/><path d="M66.04,42.9c0.07,0.42,0.15,1.09-0.14,1.7c-1.72,3.58-11.58,11.43-25.07,16.24"/><path d="M58.43,52.9C68.5,60.5,74,77.25,68.35,94.08c-2.33,6.93-8.35,2.92-9.3,0.54"/><path d="M61.76,58.48c0.06,0.45,0.14,1.15-0.13,1.79c-1.56,3.78-10.5,12.08-22.74,17.17"/><path d="M65.97,68.95c0.08,0.57,0.16,1.46-0.15,2.27c-1.87,4.78-12.56,15.28-27.21,21.71"/><path d="M85.82,48.74c0.05,0.37,0.1,0.95-0.1,1.48c-1.17,3.12-7.9,9.97-17.1,14.17"/><path d="M69.3,65.83c3.69,3.39,19.87,19.44,23.88,22.77c1.36,1.13,2.52,1.61,3.88,1.94"/></svg>