<svg><path d="M14.25,33.65c0.72,1.06,1.04,1.92,1.23,3.23c0.89,6.25,2.23,14.12,3.01,22.08c0.18,1.87,0.35,3.66,0.5,5.29"/><path d="M16.25,34.96c6.62-0.82,13.25-1.9,17.74-2.63c3-0.49,4.7,0.09,4.2,3.55c-0.88,6.1-1.92,14.57-3.21,22.65"/><path d="M19.16,61.63c4.04-0.64,8.02-1.15,13.56-1.84c1.27-0.16,2.61-0.32,4.06-0.5"/><path d="M48.75,13.77c0.8,0.8,1.12,1.98,1.42,3.24c0.42,3.28,1.24,13.54,1.79,18.99c0.2,2,0.46,3.9,0.59,4.75"/><path d="M50.94,15.37c3.74-0.54,20.39-2.76,26.32-3.43c2.95-0.33,5.22,0.2,4.8,3.58c-0.77,6.25-1.8,12.39-2.79,18.77c-0.27,1.75-0.54,3.52-0.8,5.32"/><path d="M52.33,26.97c5.17-0.47,23.86-3.03,27.22-3.03"/><path d="M53.44,38.86c6.06-0.46,16.81-1.68,24.35-2.07"/><path d="M58,42c0.12,1.41-0.27,2.39-0.84,3.69C54.43,52.01,48.92,60.54,40,68.25"/><path d="M57.7,51.1c2.08,0.22,3.73,0.3,5.82-0.03c5.17-0.81,18.25-3,23.62-3.72c4.47-0.6,6.44,0.25,5.86,4.92c-1.62,13.11-2.86,26.47-10.58,42.05c-1.63,3.3-4.54,2.55-7.69-0.6"/><path d="M73.57,60.61c-0.1,1.29-0.79,2.07-1.78,2.7c-3.7,2.35-8.54,4.82-17.22,7.88"/><path d="M49.93,62.55c0.78,0.81,1.09,1.32,1.09,2.43c0,2.67-0.02,6.26-0.02,11.39s1.38,5.7,12.38,5.7s12.61-0.95,12.61-6.81"/></svg>