<svg><path d="M9.75,34.06c0.35,0.45,0.72,0.82,0.87,1.38c1.23,4.42,3.7,18.12,4.54,26.06"/><path d="M11.96,36.18c8.94-1.94,15.27-3.11,19.41-3.69c1.52-0.21,2.43,1.26,2.21,2.51c-0.9,5.17-2.45,12.65-3.78,19.8"/><path d="M14.82,57.86c4.87-0.66,10.75-1.42,17.43-2.43"/><path d="M66.29,10.5c1.35,1.35,2.03,2,2.03,3.43c0,6.07-0.08,12.75-0.2,17.28"/><path d="M48.92,19.56c0.69,0.41,1.48,2.14,1.38,2.96c-0.46,3.64-2.22,7.34-2.84,10.79c-0.33,1.85,0.78,2,2.49,1.72c7.7-1.23,29.56-4.67,38.2-4.9"/><path d="M89.63,14.76c0.69,0.41,1.46,3.04,1.38,3.87c-0.5,5.37-1,9.12-1.69,15.17"/><path d="M42.79,46.8c1.24,0.34,3.51,0.38,4.74,0.34c9.52-0.35,32.17-4.22,45.67-4.4c2.06-0.03,3.3,0.16,4.33,0.33"/><path d="M66.97,49.06c0.02,0.26,0.04,0.67-0.03,1.04c-0.42,2.19-2.82,7-6.1,9.95"/><path d="M43.5,61.82c0.49,0.85,1.04,2.7,1.16,4.23c0.16,2.2,1.8,28.73,1.8,31.27"/><path d="M45.91,64.25c11.59-2,45.23-4.92,46.33-5.13c2.62-0.51,4.36,1.02,4.26,3.05c-0.25,4.84-2.75,24.09-4.65,29.79c-2.41,7.24-3.77,3.22-5.74,1.02"/><path d="M59.76,65.43c0.65,0.62,1.15,1.35,1.15,3.4c0,10.48-0.2,14.67-0.2,24.13"/><path d="M74.64,64.22c0.65,0.62,1.15,1.35,1.15,3.4c0,11.63-0.33,18.13-0.33,24.68"/></svg>