<svg><path d="M12.75,34.56c0.35,0.45,0.72,0.82,0.87,1.38c1.23,4.42,3.7,18.12,4.54,26.06"/><path d="M14.96,36.68c8.94-1.94,15.27-3.11,19.41-3.69c1.52-0.21,2.43,1.26,2.21,2.51c-0.9,5.17-2.45,12.65-3.78,19.8"/><path d="M17.82,58.36c4.87-0.66,10.75-1.42,17.43-2.43"/><path d="M47.13,18.03c0.31,0.49,0.68,1.31,0.84,1.92c1.38,5.06,3.17,17.33,3.98,26.75"/><path d="M48.6,19.18c10.98-1.11,30.17-2.96,38.37-3.91c3.01-0.35,4.71,1.18,4.38,3.88c-0.62,5.07-2,12.62-3.49,23.24"/><path d="M67.97,17.94c0.56,0.4,1.19,2.52,1.19,4.21c0,7.71-0.09,12.06-0.09,20.18"/><path d="M50.56,32.27c3.58-0.44,35.37-4.12,38.33-4.28"/><path d="M52.53,44.35c9.19-0.85,24.5-2.52,35.42-3.25"/><path d="M51.56,53.66c0.64,0.63,1.07,1.76,1.29,2.4c0.22,0.64,0.38,37.34,0.3,38.79"/><path d="M52.86,54.75c2.57-0.21,27.37-3.33,29.28-3.55c3.42-0.38,4.29,1.9,4.29,2.99c0,2.44-0.07,23.42-0.07,36.48c0,10.47-6.54,1.21-7.4,0.42"/><path d="M53.63,65.66c8.76-1.12,24.71-2.32,32.4-2.93"/><path d="M53.24,77.39c6.84-0.6,24.5-2.31,32.42-2.77"/></svg>