<svg><path d="M9.75,34.56c0.35,0.45,0.72,0.82,0.87,1.38c1.23,4.42,3.7,18.12,4.54,26.06"/><path d="M11.96,36.68c8.94-1.94,15.27-3.11,19.41-3.69c1.52-0.21,2.43,1.26,2.21,2.51c-0.9,5.17-2.45,12.65-3.78,19.8"/><path d="M14.82,58.36c4.87-0.66,10.75-1.42,17.43-2.43"/><path d="M63.78,10.5c0.74,0.45,1.95,2.17,1.95,3.05c0,3.27-0.23,6.38-0.1,9.14"/><path d="M40.3,25.03c1.31,0.29,2.47,0.61,3.97,0.4c8.97-1.21,34.51-3.96,44.96-4.55c1.54-0.09,2.32,0.03,3.47,0.51"/><path d="M50.17,32.48c0.26,0.26,0.53,0.47,0.64,0.8c0.9,2.56,1.99,8.1,2.61,12.69"/><path d="M51.79,33.85c6.39-1.07,25.11-3.48,28.41-3.84c1.21-0.13,1.93,1.33,1.76,2.11c-0.71,3.22-1.53,4.49-3.06,9.13"/><path d="M53.68,44.27c3.87-0.41,21.51-2.21,26.42-2.62"/><path d="M41.83,50.74c-0.13,3.79-3.23,13.7-4.33,15.96"/><path d="M42.08,53.85c9.67-0.6,33.83-3.31,48.83-3.31c10.21,0,3.22,4.99-0.59,8.24"/><path d="M55.3,61.5c0.2,1,0.41,2.27,0.38,3.56c-0.18,9.19-4.18,28.44-22.05,34.1"/><path d="M71.79,59.37c0.61,1.13,1.1,2.45,1.13,4.19c0.16,7.75,0,14.78,0,20.05c0,13.39,0.33,14.42,11.89,14.42c10.44,0,11.76-3.28,11.76-12.14"/></svg>