<svg><path d="M11.75,29.79c0.66,1.15,1.01,2.38,1.04,3.71c0.49,4.09,1.45,12.61,2.15,19.76c0.3,3.07,0.56,5.89,0.71,7.99"/><path d="M13.83,31.72c6.19-1.1,12.37-1.88,15.3-2.24c3.67-0.46,4.47,0.84,4.06,3.53c-0.89,5.99-1.94,13.62-3.32,22.6"/><path d="M16.57,58.05c4.05-0.59,6.58-0.91,11.42-1.33c1.3-0.11,2.69-0.24,4.21-0.37"/><path d="M65.67,13.03c1.2,1.2,1.45,2.62,1.45,4.72c0,2.03,0.06,5.12,0.06,8.95"/><path d="M44.02,28.87c0,3.26-2.58,11.99-3.63,14.16"/><path d="M44.76,30.59C58.87,28.87,71.87,27.62,90.07,26.4C99.21,25.79,91.37,32.52,89.26,34.33"/><path d="M49.53,43.32c1.94,0.43,3.86,0.27,5.85,0.07c6.49-0.65,15.7-2.02,21.24-2.52c2.09-0.36,4.15-0.32,6.21,0.11"/><path d="M51.47,53.59c0.91,0.91,1.21,2.31,1.21,3.22c0.65,7.39,1.7,15.32,2.41,23.34"/><path d="M53.34,55.02c6.54-1.02,20.18-2.6,26.05-2.93c2.74-0.16,4.17,1.81,3.96,4.3c-0.55,6.64-1.43,15.9-2.34,21.85"/><path d="M54.63,65.62c5.58-0.68,21.25-2.24,27.15-2.56"/><path d="M55.97,77.29c7.28-0.54,15.53-1.54,24.34-1.62"/><path d="M40.53,89.09c3.36,0.38,6.72,0.37,10.1,0.09c11.12-0.93,26.65-1.78,37.25-2.12c3.11-0.12,6.19,0.11,9.24,0.68"/></svg>