<svg><path d="M23.14,14.4c0.4,0.34,0.85,0.61,0.98,1.06c1.13,3.95,2.56,12.24,3.69,18.04"/><path d="M25.6,16.72c7.31-0.84,13.59-2.5,20.33-3.35c1.69-0.21,2.71,0.97,2.47,1.93c-1.01,3.99-1.38,6.34-3.17,12.97"/><path d="M28.63,31.43c5.45-0.51,11.32-1.88,18.8-2.67"/><path d="M55.64,12.4c0.35,0.36,0.75,0.65,0.86,1.13c0.99,4.21,2.75,10.54,3.75,16.71"/><path d="M56.81,13.87c6.44-0.89,17.48-2.6,23.42-3.5c1.49-0.22,2.39,1.04,2.18,2.06c-0.89,4.25-2.16,6.72-3.74,13.78"/><path d="M59.97,28.05c4.8-0.54,14.1-0.97,20.69-1.81"/><path d="M29.4,39.09c0.34,0.5,0.35,0.84,0.54,1.46c1.56,5.1,3.54,18.01,4.52,27.48"/><path d="M31.02,41.02c12.99-1.71,34.43-4.03,43.38-4.91c3.29-0.32,5.27,0.69,5.17,2.84c-0.23,5.11-4.37,23.06-4.96,25.19"/><path d="M34.25,52.98c3.9-0.41,39.61-3.95,42.84-4.09"/><path d="M35.57,66.12c11.3-1.62,26.75-3,39.12-4"/><path d="M16.75,79.7c1.52,0.54,4.3,0.63,5.82,0.54c8.43-0.49,49.18-3.99,68.11-4.73c2.53-0.1,4.05,0.26,5.31,0.53"/><path d="M53.24,39.61c0.67,0.38,1.09,1.44,1.1,2.73c0.04,6.56,0.2,56.54,0.22,58.68"/></svg>