<svg><path d="M68.95,8.98c-0.57,1.52-1.88,2.55-2.73,3.06c-5.93,3.55-19.23,8.07-36.91,9.79"/><path d="M18.62,32.46c3.6,0.91,7.67,0.36,11.26-0.11c14.16-1.85,34.45-4.44,48.11-5.04c3.88-0.17,7.65-0.17,11.5,0.37"/><path d="M50.41,21.69C50.25,22.88,49.73,24,49,24.88C38.12,38,30.25,46,14,55.34"/><path d="M61.5,29.48c5.91,4.12,16.96,12.53,24.56,17.04c2.4,1.42,4.19,2.61,7.44,3.73"/><path d="M36.75,41.07c0.59,0.59,1,1.43,1.32,2.42c0.84,2.57,1.27,6.18,1.92,9.27c0.27,1.27,0.52,2.47,0.76,3.5"/><path d="M38.6,42.16c8.22-1.07,18.98-2.25,24.02-2.99c2.1-0.31,4.88,0.15,4.08,2.8c-0.78,2.57-1.44,5.52-2.05,7.89"/><path d="M41.5,54c6.38-0.62,13.01-1.54,20.39-2.32c1.52-0.16,2.99-0.18,4.36-0.18"/><path d="M24.75,61.39c1.04,1.03,1.08,2.18,1.13,3.49c0.24,6.57,1.09,19.21,1.45,27.88c0.13,3.07,0.22,5.28,0.22,5.75"/><path d="M26.7,63.88c10.93-1.13,46.18-4.63,52.83-5.23c3.74-0.34,5.84,1.44,5.47,5.85c-0.25,3-2.25,18.5-5,29.5c-1.58,6.33-4.12,4.38-7.75,0"/><path d="M39.75,72.57c0.88,0.56,1.19,1.43,1.54,3.04c0.57,2.64,1.03,5.47,1.69,8.59c0.27,1.29,0.53,2.51,0.77,3.55"/><path d="M41.6,73.66c8.53-1.41,15.75-2.36,20.15-3.16c2.75-0.5,3.8,0.94,3.25,3c-1.12,4.25-1.5,5-2.86,9.12"/><path d="M44,86c4.1-0.66,10.8-1.37,16.26-2.14c1.44-0.2,2.74-0.36,3.99-0.36"/></svg>