<svg><path d="M9.75,34.07c0.34,0.47,0.69,0.86,0.83,1.46c1.18,4.68,3.58,17.57,4.39,25.97"/><path d="M11.36,35.74c7.14-0.99,16.38-2.64,20.35-3.25c1.45-0.22,2.32,1.33,2.12,2.65c-0.86,5.46-1.87,12.06-3.14,19.61"/><path d="M15.13,57.9c4.66-0.69,10.6-1.39,17-2.46"/><path d="M65.21,11.25c0.07,0.84,0.37,2.27-0.15,3.38C61,23.5,52.75,36.75,39.5,47"/><path d="M65.05,15.36c4.18,4.82,22.2,20.54,26.82,24.06c1.56,1.2,3.57,1.71,5.14,2.05"/><path d="M53.53,40.39c0.52,0.26,1.47,0.28,1.99,0.26C59,40.5,73.75,38,77,38.51c0.86,0.13,1.38,0.12,1.82,0.25"/><path d="M46.81,52.73c0.85,0.85,1.1,1.89,1.1,3.3c0,0.71-0.04,21.35-0.04,32.22c0,3.81,0.02,5.83,0,6.38"/><path d="M48.52,54.36c0.99-0.11,8.18-1.85,11.38-2.49c2.81-0.57,3.52,0.56,3.46,3.26c-0.11,4.76,0,23.9,0,33.49c0,9.53-4.32,2.46-5.34,1.26"/><path d="M49.03,64.7c3.52-0.49,9.64-1.4,13.21-1.85"/><path d="M48.83,75.28c3.91-0.28,8.46-1.03,13.13-1.32"/><path d="M76.48,52.96c0.78,0.78,1.25,1.76,1.25,3.68c0,1.91-0.01,12.31-0.01,18.74c0,2.77,0,4.05,0,4.35"/><path d="M89.72,48.13c0.95,0.95,1.25,2.12,1.25,4.18c0,9.22-0.1,34.43-0.1,37.57c0,7.75-5.13,0.95-6.2,0.16"/></svg>