<svg><path d="M26.12,17.25c3.67,3.85,6.5,8.75,7.89,12.25"/><path d="M46.38,13.5c2.18,2.44,6.31,7.38,8.27,12.25"/><path d="M78.64,12.5c0.3,0.9,0.09,2.03-0.43,2.94C77,17.5,73.25,22.75,69.67,26.5"/><path d="M21.12,37.5c0,2.95-3.88,14.03-5.38,16"/><path d="M22.91,40.25c20.47-2.38,43.72-5.5,62.11-6.25c9.6-0.39,4.85,5,0.06,8.75"/><path d="M34.21,48.12c0.37,0.32,1,1.33,1.16,1.73c1.06,2.56,2.11,7.96,2.93,12.9c0.18,1.05,0.34,2.08,0.49,3.05"/><path d="M36.02,48.98c9.24-1.3,24.32-3.08,30.85-3.66c3.1-0.28,5.37,0.62,4.19,4.2c-1.04,3.15-2.54,5.91-4.44,10.7"/><path d="M39.67,63.52c4.76-0.34,17.42-1.89,25.31-2.54c1.26-0.1,2.39-0.19,3.36-0.24"/><path d="M51.57,65.78c0.3,1.1,0.22,1.75-0.23,2.71c-0.45,0.96-4.29,5.73-5.1,7.01"/><path d="M29.59,76.71c0.48,0.38,1.22,1.45,1.43,1.92c1.43,3.18,2.53,10.1,3.53,16.14c0.15,0.93,0.31,1.85,0.45,2.72"/><path d="M32.57,78.31c12.05-1.58,33.45-3.53,40.93-3.96c2.61-0.15,4.67,1.73,3.46,4.6c-1.96,4.68-2.48,6.32-4.88,13.73"/><path d="M35.98,95.48c6.12-0.27,23.61-1.11,34.27-1.5c1.74-0.06,3.28-0.11,4.54-0.15"/></svg>