<svg><path d="M12.75,34.06c0.35,0.45,0.72,0.82,0.87,1.38c1.23,4.42,3.7,18.12,4.54,26.06"/><path d="M14.96,36.18c8.94-1.94,15.27-3.11,19.41-3.69c1.52-0.21,2.43,1.26,2.21,2.51c-0.9,5.17-2.45,12.65-3.78,19.8"/><path d="M17.82,57.86c4.87-0.66,10.75-1.42,17.43-2.43"/><path d="M63.99,10.45c0.38,0.12-0.35,2.09-0.58,2.44c-1.55,2.31-3.14,5.45-6.79,8.49"/><path d="M48.57,22.53c0.51,0.77,1.61,2.25,1.67,3.27c0.43,6.7,0.51,21.7,0.71,31.01"/><path d="M51.1,24.2c2.9-0.13,25.85-3.12,28.5-3.27c2.2-0.13,3.39,2.5,3.35,3.46c-0.26,6.09-0.67,17.11-0.67,29.66"/><path d="M51.87,33.69c5.73-0.18,25.25-2.53,29.91-2.53"/><path d="M52.11,43.15c7.69-0.43,21.86-1.99,29.33-1.99"/><path d="M51.38,53.4c5.77,0,22.95-2.05,30.42-2.05"/><path d="M36.62,73.11c1.43,0.39,3.04,0.19,3.97,0.11c11.76-0.97,37.82-2.47,50.15-3.64c1.18-0.11,3.08,0.17,4.62,0.42"/><path d="M63.32,58.75c0.09,0.99,0.39,1.7,0.28,2.89C61.75,82.75,53.5,93,34.25,99.75"/><path d="M63.33,71.75c6.41,5.83,21.35,20.69,27.75,24.6c2.18,1.33,2.93,1.53,3.92,1.65"/><path d="M73.77,57.08c2.57,1.26,6.65,5.18,7.29,7.13"/></svg>