<svg><path d="M10.75,34.06c0.35,0.45,0.72,0.82,0.87,1.38c1.23,4.42,3.7,18.12,4.54,26.06"/><path d="M12.96,36.18c8.94-1.94,15.27-3.11,19.41-3.69c1.52-0.21,2.43,1.26,2.21,2.51c-0.9,5.17-2.45,12.65-3.78,19.8"/><path d="M15.82,57.86c4.87-0.66,10.75-1.42,17.43-2.43"/><path d="M81.83,10.25c-0.31,0.74-0.62,1.11-1.28,1.43c-4.25,2.07-17.09,7.78-30.81,9.9"/><path d="M48.09,10c0.89,0.71,0.95,1.18,1.24,2.12c0.29,0.94-0.21,6.82-0.21,9.77c0,7.6,11.86,6.89,21.96,6.89c14.66,0,20.2-1.25,20.2-9.24"/><path d="M55.18,36.03c0.44,0.81,1.09,2.28,1.09,3.36s-0.15,33.04,0,34.12"/><path d="M57.01,38.27c2.51-0.13,22.84-2.57,25.13-2.53c1.05,0.02,2.09,0.53,2.09,2.27c0,1.29,0.04,33.34-0.11,34.14"/><path d="M56.38,48.82c4.96-0.18,23.25-2.23,27.28-2.23"/><path d="M56.19,59.67c6.66-0.45,21.09-2.13,27.56-2.13"/><path d="M56.41,71.21c5,0,20.92-2.24,27.38-2.24"/><path d="M42.04,50c0.58,1,1.36,1.75,1.36,3.5S42.43,76,42.43,78.25s0.2,4.56,2.33,4.25C60,80.25,84,79,92.51,79.5c1.74,0.1,3.88,0.25,5.24,0.5"/><path d="M58.23,86.89c0.05,0.33,0.1,0.86-0.1,1.33c-1.15,2.81-7.77,8.97-16.83,12.74"/><path d="M78.1,86.08c5.9,2.36,15.25,9.71,16.73,13.38"/></svg>