<svg><path d="M13.75,36.06c0.35,0.45,0.72,0.82,0.87,1.38c1.23,4.42,3.2,16.62,4.04,24.56"/><path d="M15.96,38.18c8.94-1.94,15.27-3.11,19.41-3.69c1.52-0.21,2.43,1.26,2.21,2.51c-0.9,5.17-2.45,12.65-3.78,19.8"/><path d="M18.32,58.86c4.87-0.66,10.75-1.42,17.43-2.43"/><path d="M64.05,8.68c0.02,0.3,0.04,0.78-0.04,1.21c-0.54,2.56-3.62,8.17-7.85,11.61"/><path d="M48.89,20.82c0.49,0.39,1.38,2.99,1.38,3.67c0,6.9-0.45,34.35-0.74,45.21"/><path d="M50.94,24.22c1.59-0.1,25.36-3.73,26.91-3.73c2.29,0,3.42,1.76,3.21,3.49c-0.13,1.06-1.72,8.27-3.41,15.52"/><path d="M50.6,42.28c3.97-0.38,24.59-2.38,29.53-2.7"/><path d="M50.32,55.05c10.31-1.09,33.46-3.22,37.89-3.82c1.54-0.21,4.16-0.03,4.94,0.13"/><path d="M49.85,69.4c9.33-2.09,35.03-3.14,40.2-3.9c3.36-0.5,5.09,2.33,4.49,5.75c-1.68,9.5-4.79,15.75-8.85,21.5c-3.65,5.16-5.19,3.75-6.73,0.75"/><path d="M34.14,80.75c0.38,5.29-0.28,11.69-1.4,15"/><path d="M44.43,78c3.26,2.13,6.35,7.99,7.17,11.3"/><path d="M57.77,75.5c2.36,1.72,6.08,7.07,6.67,9.75"/><path d="M71.3,73c2.33,1.59,6.03,6.53,6.61,9"/></svg>