<svg><path d="M9.75,34.06c0.35,0.45,0.72,0.82,0.87,1.38c1.23,4.42,3.7,18.12,4.54,26.06"/><path d="M11.96,36.18c8.94-1.94,15.27-3.11,19.41-3.69c1.52-0.21,2.43,1.26,2.21,2.51c-0.9,5.17-2.45,12.65-3.78,19.8"/><path d="M14.82,57.86c4.87-0.66,10.75-1.42,17.43-2.43"/><path d="M46.18,17.44c0.6,0.4,2.33,1.11,1.55,3.32c-0.97,2.75-1.47,6-2.33,9.68c-0.56,2.4-1.17,3.4,1.72,3.1c8.46-0.86,35.04-3.47,42.6-4.56"/><path d="M89.7,14.75c0.51,0.53,1.69,2.28,1.55,3.38C90.5,24,89.5,30.75,88.96,34.42"/><path d="M68.3,11.62c0.63,0.4,1.28,1.73,1.2,2.38c-1.26,11-5.26,23.75-15.27,33.34"/><path d="M39.75,49.7c1.18,0.54,3.34,0.58,4.51,0.54c15.46-0.49,36.09-3.99,49.61-3.73c1.96,0.04,3.14,0.26,4.12,0.53"/><path d="M44.81,60.71c0.62,0.4,1.07,1.38,1.18,1.91c0.85,3.8,2.21,9.81,3.4,17"/><path d="M46.45,62.24c9.49-0.76,35.76-3.95,42.63-4.24c2.68-0.11,2.8,1.21,2.53,2.9c-0.62,3.93-1.6,5.69-3.45,12.17"/><path d="M49.74,75.59c7.63-0.76,29.46-1.94,40.14-2.66"/><path d="M67.07,50.75c0.85,0.42,1.36,1.91,1.53,2.76c0.17,0.85,0,32.68-0.17,37.99"/><path d="M42.68,95.28c0.99,0.74,1.98,1.59,2.98,1.47c2.32-0.27,37.55-8.66,43.67-10.13"/><path d="M82.76,80.07c4.82,2.96,12.45,12.15,13.65,16.75"/></svg>