<svg><path d="M7.75,34.53c0.35,0.44,0.7,0.8,0.85,1.35c1.2,4.35,3.62,17.81,4.44,25.62"/><path d="M9.91,36.62c8.75-1.91,14.95-3.06,19-3.63c1.48-0.21,2.38,1.24,2.16,2.46c-0.88,5.08-2.4,12.44-3.7,19.46"/><path d="M12.72,57.93c4.77-0.65,10.52-1.39,17.07-2.39"/><path d="M35.47,27.54c0.51,0.35,2.45,0.41,2.96,0.35c4.3-0.48,20.44-2.67,25.05-3.01c0.85-0.06,1.36,0.17,1.79,0.35"/><path d="M37.6,38.15c0.19,0.32,0.38,0.59,0.47,0.99c0.66,3.18,2.38,12.92,2.83,18.63"/><path d="M39.25,39.4c7.39-1.22,20.01-3.04,22.24-3.37c1.39-0.2,2.26,2.06,1.9,3.91c-0.98,4.94-1.69,8.55-2.47,12.33"/><path d="M40.52,55.4c7.29-0.79,15.51-2,21.71-2.18"/><path d="M49.49,11.25c0.99,0.5,1.58,2.25,1.78,3.25s0,75.25-0.2,81.5"/><path d="M51.25,55.05C47.69,64.93,38.42,78.91,31,84.5"/><path d="M53.91,62.82c3.48,2.21,8.97,8.36,10.64,11.67"/><path d="M79.13,13.25c0.03,0.83,0.07,2.14-0.06,3.33c-0.77,7.02-5.21,22.43-11.28,31.86"/><path d="M75.84,33.95c0.65,0.29,1.88,0.77,2.85,0.5c4.31-1.2,14.46-3.08,15.59-3.21c4.22-0.49,0.47,7.76-3.32,12.61"/><path d="M77.07,46.4c0.69,0.76,0.96,1.44,0.82,3.04C77.03,59.37,73.6,82.2,59.5,92.75"/><path d="M76.29,62.56c2.97,5.48,13.35,21.94,18.67,27.8c1.12,1.24,1.97,1.97,3.04,2.37"/></svg>