<svg><path d="M8.75,34.56c0.32,0.45,0.64,0.82,0.78,1.38c1.1,4.42,2.81,18.12,3.56,26.06"/><path d="M9.72,36.68c8-1.94,15.17-3.11,18.88-3.69c1.36-0.21,2.17,1.26,1.98,2.51c-0.8,5.17-2.19,13.15-3.39,20.3"/><path d="M13.29,57.86c4.36-0.66,9.62-0.92,15.61-1.93"/><path d="M37.55,27.75c0.72,0.38,2.05,0.44,2.77,0.38c5.55-0.43,14.76-2.06,21.49-3.17c1.2-0.2,1.93,0.18,2.53,0.37"/><path d="M49.78,13c0.1,0.29,1.5,1.53,1.5,3.42c0,12.09-0.3,9.47-0.3,25.45"/><path d="M34.53,43.74c1.07,0.7,3.02,0.78,4.09,0.7c3.37-0.23,18.54-3.31,23.26-3.6c1.78-0.11,2.85,0.33,3.74,0.69"/><path d="M49.82,47.39c0.54,0.4,1.42,1.96,1.42,2.77c0,2.96-0.17,4.12-0.07,6.62"/><path d="M34.71,59.01c0.72,0.26,2.23,0.46,2.9,0.37c6.4-0.88,18.87-2.98,25.12-3.83c1.12-0.15,1.69,0.03,2.53,0.46"/><path d="M48.07,66.57c2.93,0.68,9.37,0.59,12.99,1.52c0.61,0.16,1.21,0.8,1.11,2.05c-0.27,3.29-6.17,17.75-8.49,20.42c-2.51,2.9-4.42,1.19-5.95-2"/><path d="M48.31,60.34c0.24,0.9,0.19,1.92-0.09,2.93c-1.93,7-5.46,21.22-16.17,27.77"/><path d="M76.21,12.61c0.03,0.83,0.07,2.18-0.05,3.35C75.4,24.04,72.25,38,67.32,50.13"/><path d="M74,35.77c0.02-0.17,1.73,0,2.17-0.05c4.52-0.51,10.37-3.3,17.28-4.12c0.78-0.09,1.25-0.02,1.45,0.08"/><path d="M87.88,37c0.4,1.37,0.62,2.35,0.2,4.85c-3.81,22.72-12.49,43.02-25.02,50.9"/><path d="M70.04,48.18c4.51,10.45,17.28,34.85,25.21,43.25c1.53,1.62,2.5,1.88,3.75,2.06"/></svg>