<svg><path d="M8.25,34.06c0.35,0.45,0.72,0.82,0.87,1.38c1.23,4.42,3.2,18.12,4.04,26.06"/><path d="M10.46,36.18c8.94-1.94,14.27-3.11,18.41-3.69c1.52-0.21,2.43,1.26,2.21,2.51c-0.9,5.17-2.45,12.65-3.78,19.8"/><path d="M12.82,57.86c4.87-0.66,10.25-1.42,16.93-2.43"/><path d="M57.66,24.04c0.7,0.36,1.98,0.37,2.68,0.36c6.16-0.14,18.86-2.66,28.77-3.6c1.16-0.11,1.87,0.17,2.45,0.35"/><path d="M57.95,34.11c0.5,0.45,1.13,0.79,1.22,1.38c0.67,4.27,2.62,15.73,3.57,23.81"/><path d="M59.86,35.72c7.54-0.86,24.05-3.39,29.2-3.52c2.13-0.05,2.57,1.64,2.48,2.98C91.23,39.78,89.7,49.66,88,57.2"/><path d="M62.02,46.38c7.49-0.88,18.33-2.77,28.28-3.32"/><path d="M62.78,57.96c6.61-0.89,17-2.6,25.61-2.6"/><path d="M54.32,70.72c1,0.72,2.8,0.8,3.82,0.72c9.11-0.69,25.12-2.97,36.87-3.44c1.66-0.07,2.66,0.34,3.49,0.7"/><path d="M73.3,10.13c0.51,0.56,1.7,2.12,1.7,4.29c0,1.12-0.07,66.49-0.17,73.46"/><path d="M40.87,13.75c3.22,1.52,8.32,6.26,9.12,8.63"/><path d="M38.37,38c3.04,1.35,7.86,5.54,8.62,7.63"/><path d="M33.5,61.08c1.88,0.89,3.14,0.45,3.98,0.22c0.84-0.22,9.7-3.62,10.96-4.07c1.26-0.45,3.14,1.11,2.3,2.45c-0.84,1.34-6.35,6.96-6.98,8.08c-0.63,1.12-0.42,3.12,0.84,4.68c1.26,1.56,3.3,2.34,3.93,3.68c0.63,1.34,0.63,2.45-0.63,3.57c-1.26,1.11-8.54,8.35-9.79,8.8"/><path d="M34.55,88.59c2.35-0.32,7.05-1.11,10.57-0.47c3.52,0.63,23.55,4.89,27.02,5.7c9.4,2.22,16.64,2.85,23.69,1.74"/></svg>