<svg><path d="M28.31,21.1c2.11,0.78,5.45,0.25,7.58,0.02c10.37-1.15,24.86-2.78,35.75-3.73c2.65-0.23,5.41-0.45,8.05,0.08"/><path d="M52.16,9.51c0.98,0.98,1.17,1.99,1.17,3.06c0,3.16-0.09,9.6-0.09,15.93"/><path d="M33.43,31.26c1.83,0.52,4.09,0.29,5.94,0.1c8.58-0.88,16.81-2.33,28.75-3.15c1.95-0.13,3.95-0.36,5.9-0.06"/><path d="M35.51,38.58c1.07,0.66,1.3,1.39,1.71,2.51c0.82,2.26,1.66,5.65,2.34,8.62c0.25,1.08,0.47,2.1,0.66,3"/><path d="M37.5,39.63c6.95-0.87,24.37-3.57,31.13-4.38c2.91-0.35,4.59,0.18,3.51,3.42c-0.76,2.28-1.26,4.2-2.69,7.96"/><path d="M40.79,50.43c3.81-0.3,17.81-2.1,26.23-2.99c2.02-0.21,3.73-0.37,4.89-0.44"/><path d="M35.25,54.88c2.32,1.15,5.98,4.73,6.56,6.52"/><path d="M68.94,50.89c0.02,0.28,0.04,0.72-0.04,1.11c-0.36,1.64-1.89,4.63-4.15,7.37"/><path d="M15.14,65.67c2.94,0.96,6.85,0.7,9.88,0.33c16.6-2.01,45.02-5.08,61.98-5.73c3.25-0.12,6.5-0.06,9.71,0.56"/><path d="M21.45,77.92c1.95,0.59,3.53,0.67,5.54,0.38c5.47-0.78,14.24-2.43,18.75-3.1c3.64-0.53,5.02-0.12,4.55,3.67c-0.45,3.64-1.54,9.5-5.02,14.75c-2.61,3.94-4.88,0.12-5.75-0.25"/><path d="M36.34,68.43c0.74,0.74,0.62,1.95,0.52,2.7c-1.15,8.26-6.92,21.69-18.82,28.55"/><path d="M60,73.62c0.74,0.75,1.15,1.66,1.23,2.72c0.81,3.35,1.85,9.34,2.63,14.57c0.33,2.18,0.61,4.24,0.81,5.92"/><path d="M62.01,75.24c8.62-1.37,14.12-2.37,19.94-3.06c2.81-0.34,3.76,1.02,3.19,3.61c-1.12,4.98-2.05,8.5-3.24,14.88"/><path d="M65.43,93.32c5.32-0.69,8.85-0.95,14.3-1.52c1.32-0.14,2.69-0.25,4.14-0.33"/></svg>