<svg><path d="M11.25,34.06c0.35,0.45,0.72,0.82,0.87,1.38c1.23,4.42,3.7,18.12,4.54,26.06"/><path d="M13.46,36.18c8.94-1.94,15.77-3.11,19.91-3.69c1.52-0.21,2.43,1.26,2.21,2.51c-0.9,5.17-2.45,12.65-3.78,19.8"/><path d="M16.32,57.86c4.87-0.66,11.25-1.42,17.93-2.43"/><path d="M49.54,22.54c0.86,0.37,2.43,0.44,3.3,0.37c6.2-0.53,26.18-2.12,31.53-2.69c1.43-0.15,2.02-0.08,2.78-0.02"/><path d="M64.86,10.13c0.66,0.23,2.19,2.28,2.19,2.76c0,6.08,0.32,23.02,0.37,29.37"/><path d="M49.77,33.25c0.85,0.16,2.41,0.19,3.26,0.16c6.12-0.23,25.28-2.83,30.56-3.07c1.41-0.06,2.45-0.04,3.19-0.01"/><path d="M40.31,44.74c1.31,0.37,3.71,0.55,5.01,0.37c12.14-1.67,37.12-3.81,47.62-4.11c2.17-0.06,3.81-0.31,5.38,0.6"/><path d="M52.04,51.5c0.5,0.71,1.22,1.24,1.22,2.18c0,0.94-0.16,28.82,0,29.76"/><path d="M54.09,52.27c2.81-0.12,23.72-2.58,26.28-2.72c2.13-0.12,3.63,0.25,3.64,2.49c0.01,3.01-0.49,28.79-0.49,29.5"/><path d="M53.54,61.79c4.02,0,25.81-1.92,30.32-1.92"/><path d="M53.27,70.95c5.58,0,23.03-1.92,30.26-1.92"/><path d="M53.5,80.47c5.58,0,22.53-1.92,29.76-1.92"/><path d="M61.46,83.67c0.45,1.2,0.39,2.52-0.5,3.39c-2.68,2.63-10.46,8.09-15.83,11.2"/><path d="M76.22,84.62c6.63,3.66,14.47,10.29,16.28,13.5"/></svg>