<svg><path d="M9.75,34.06c0.35,0.45,0.72,0.82,0.87,1.38c1.23,4.42,3.7,18.12,4.54,26.06"/><path d="M11.96,36.18c8.94-1.94,15.27-3.11,19.41-3.69c1.52-0.21,2.43,1.26,2.21,2.51c-0.9,5.17-2.45,12.65-3.78,19.8"/><path d="M14.82,57.86c4.87-0.66,10.75-1.42,17.43-2.43"/><path d="M40.38,17.17c1.45,0.51,4.11,0.59,5.56,0.51c15.1-0.85,28.74-3.48,45.02-3.94c2.42-0.07,3.87,0.24,5.08,0.5"/><path d="M57.43,27.37c0.31,0.31,0.64,0.57,0.77,0.96c1.09,3.08,3.39,11.07,4.14,16.59"/><path d="M58.84,28.88c7.49-1.18,21.09-3.56,25.38-4.03c1.57-0.17,2.51,1.02,2.29,2.04c-0.93,4.19-1.58,6-2.96,11.8"/><path d="M62.29,42.48c5.04-0.53,16.34-2.45,23.26-3.27"/><path d="M52.37,56.61c0.37,0.44,0.74,0.8,0.9,1.34c1.27,4.32,2.61,17.79,3.48,25.55"/><path d="M54.21,58.53c4.67-1.14,10.4-2.14,14.69-2.7c1.57-0.21,2.51,1.23,2.29,2.45c-0.93,5.04-2.08,14.41-3.46,21.38"/><path d="M56.67,80.92c5.04-0.64,11.65-1.3,13.57-1.18"/><path d="M76.8,54.64c0.37,0.4,0.74,0.72,0.9,1.22c1.27,3.91,2.79,19.19,3.66,26.21"/><path d="M78.22,56.79c7.06-1.53,11.57-2.79,15.87-3.3c1.57-0.19,2.51,1.11,2.29,2.21c-0.93,4.57-2.51,16.08-3.9,22.39"/><path d="M81.1,79.14c5.04-0.58,7.02-0.58,13.94-1.48"/><path d="M44.68,18.11c0,3.5-0.44,71.14-0.44,74.42c0,2.78,0.88,3.61,2.44,3.5c8.87-0.66,45.83-2.86,48.72-2.86c2.88,0,3.84,0.33,6.09,1.16"/></svg>