<svg><path d="M9.75,34.06c0.35,0.45,0.72,0.82,0.87,1.38c1.23,4.42,3.7,18.12,4.54,26.06"/><path d="M11.96,36.18c8.94-1.94,15.27-3.11,19.41-3.69c1.52-0.21,2.43,1.26,2.21,2.51c-0.9,5.17-2.45,12.65-3.78,19.8"/><path d="M14.82,57.86c4.87-0.66,10.75-1.42,17.43-2.43"/><path d="M54.51,12.5c0.04,0.56,0.15,1.62-0.08,2.25c-2.72,7.91-6.75,15.16-13.84,21.54"/><path d="M52.83,25c0.72-0.03,2.13-0.1,3.17-0.21c8.01-0.86,23.7-3.89,29.02-4.4c1.4-0.13,2.24,0.17,2.94,0.35"/><path d="M37.25,48.7c1.24,0.54,3.52,0.7,4.77,0.54C52,48,80.69,45.25,94.15,44.51c2.07-0.11,3.32,0.26,4.35,0.53"/><path d="M47.09,37.25c0.89,0.5,1.43,2.25,1.6,3.25c0.18,1,0.31,15.75,0.48,27.5"/><path d="M58.37,30.75c0.89,0.5,1.62,2.23,1.6,3.25c-0.07,5.5,0.14,19.5,0.14,33.75"/><path d="M71.65,29.75c0.89,0.5,1.67,2.23,1.6,3.25c-0.47,8-0.88,17.5-1.5,33.25"/><path d="M85.34,30.25c0.89,0.5,1.87,2.28,1.6,4.25c-1.09,8-1.5,15.25-3.54,30.75"/><path d="M37.16,68.7c1.32,0.54,3.74,0.67,5.05,0.54c7.53-0.74,37.49-2.99,51.76-3.73c2.19-0.11,3.52,0.26,4.61,0.53"/><path d="M40.94,80.5c0,5.25-4.71,13-5.94,14.5"/><path d="M53.75,79.08c2.49,2.57,4.85,9.64,5.47,13.63"/><path d="M71.51,78.83c2.4,2.27,6.19,9.35,6.79,12.88"/><path d="M87.89,77.08c3.73,2.89,9.63,11.89,10.56,16.38"/></svg>