<svg><path d="M9.25,34.06c0.34,0.45,0.69,0.82,0.83,1.38c1.18,4.42,3.04,18.12,3.85,26.06"/><path d="M11.36,36.18c8.56-1.94,14.63-3.11,18.6-3.69c1.45-0.21,2.32,1.26,2.12,2.51c-0.86,5.17-2.34,12.65-3.62,19.8"/><path d="M13.61,57.86c4.67-0.66,10.8-1.42,17.2-2.43"/><path d="M36.04,28.01c0.72,0.37,3.93,0.45,4.68,0.37c6.34-0.66,17.89-2.72,23.35-2.91c1.21-0.04,3.08-0.14,3.69,0.04"/><path d="M52.23,13.25c0.32,0.34,0.99,2.53,1.06,3.2c0.06,0.68-1.54,18.33-1.61,22.55"/><path d="M38.62,39.94c0.33,0.6,0.66,0.9,0.66,1.7c0,0.8,3.17,20.51,3.17,20.91"/><path d="M40.49,41.5c4.4-0.75,19.54-3,23.37-3.51c1.41-0.19,2.46,1.26,2.22,3.7c-0.44,4.59-2.65,13.81-3.49,18.81"/><path d="M41.51,50.88c5.14-0.63,20-2.65,22.86-2.65"/><path d="M42.44,60.5c5.15-0.43,13.53-1.25,19.46-1.95"/><path d="M31.38,74.83c0.66,0.32,3.61,0.43,4.27,0.32c3.44-0.56,20.99-2.81,27.63-3.45c1.09-0.1,2.82-0.12,3.37,0.04"/><path d="M50.65,62.25c0.32,0.34,0.99,2.53,1.06,3.2c0.06,0.67-0.04,26.83-0.1,31.05"/><path d="M74.47,18.47c0.62,1.03,1.24,2.05,1.24,3.1c0,3.93-0.23,24.01-0.29,26.33c-0.28,10.62-0.92,29.85-10.38,44.85"/><path d="M76.23,20.47c1.94-0.25,14.62-2.44,16.06-2.72c2.59-0.5,3.56,3.27,3.24,4.78c-0.31,1.45-0.49,47.06-0.49,67.43c0,8.04-5.48,1.29-7.09-0.73"/><path d="M81,39c2.98,2.07,7,5.5,9.11,9.19"/><path d="M81,60c3.56,2.1,7.74,6.88,9,9.75"/></svg>