<svg><path d="M9.75,34.06c0.35,0.45,0.72,0.82,0.87,1.38c1.23,4.42,3.7,18.12,4.54,26.06"/><path d="M11.96,36.18c8.94-1.94,15.27-3.11,19.41-3.69c1.52-0.21,2.43,1.26,2.21,2.51c-0.9,5.17-2.45,12.65-3.78,19.8"/><path d="M14.82,57.86c4.87-0.66,10.75-1.42,17.43-2.43"/><path d="M42.52,24.33c0.92,0.39,2.6,0.46,3.51,0.39c9.53-0.66,29.91-4.74,40.8-4.71c1.53,0,2.44,0.19,3.21,0.39"/><path d="M64.52,10.5c0.76,0.36,1.21,1.63,1.36,2.36c0.15,0.73,0.42,15.98,0.27,20.52"/><path d="M49.67,34.69c0.73,0.27,2.07,0.29,2.8,0.27c9.65-0.32,19.55-2.41,29.73-2.38c1.22,0,1.95,0.13,2.56,0.26"/><path d="M41.55,43.95c-0.11,3.2-2.64,11.58-3.55,13.49"/><path d="M43.07,46.15c2.6,0,34.96-3.77,48.03-3.77c8.89,0,2.81,4.1-0.51,7.43"/><path d="M49.29,54.43c0.73,0.36,2.07,0.4,2.81,0.36c7.63-0.41,17.9-2.54,27.05-3.18c1.22-0.08,1.96,0.17,2.57,0.35"/><path d="M49.38,63.67c0.37,0.27,0.84,0.47,0.91,0.83c0.5,2.57,1.87,8.65,2.99,13.75"/><path d="M50.8,65.11C56.4,64.6,73.5,62,78.9,61.04c1.56-0.28,2.65,0.67,2.3,2.16c-0.64,2.68-1.3,4.8-3.23,9.92"/><path d="M53.58,76.49c5.54-0.27,20.63-2.76,25.33-2.83"/><path d="M53,82.92c1.77,1.82,4.57,7.5,5.01,10.34"/><path d="M78.6,78.47c0.02,0.34,0.04,0.88-0.04,1.36c-0.45,2.87-3.01,9.18-6.51,13.04"/><path d="M37.94,96.51c1.26,0.51,3.58,0.59,4.84,0.51c13.15-0.85,37.69-2.65,51.67-3c2.11-0.05,3.37,0.24,4.42,0.5"/></svg>