<svg><path d="M12.25,33.99c0.37,0.51,0.76,0.94,0.92,1.58c1.29,5.07,2.84,19.04,3.73,28.13"/><path d="M13.58,35.92c6.42-1.22,16.55-2.56,20.92-3.23c1.6-0.24,2.56,1.44,2.33,2.87c-0.95,5.92-2.55,15.07-3.96,23.25"/><path d="M17.07,61.75c5.14-0.75,11.33-1.05,18.39-2.21"/><path d="M60.99,9.94c0.01,0.55,0.01,2.19-0.37,2.78c-2.24,3.52-8.74,10.3-15.29,14.06"/><path d="M72.21,7.7c1.03,0.16,2.01,0.36,2.67,0.78c6.04,3.78,13.32,11.61,19.04,13.98c2.47,1.02,3.35,1.57,5.75,1.9"/><path d="M46.25,30.45c0.37,0.49,0.86,2.03,1.06,2.63c1.66,4.97,4,17.36,4.98,26.51"/><path d="M48.72,31.84c12.19-1.46,32.5-3.31,42.32-3.55c3.01-0.07,2.71,2.67,2.54,4.03c-0.6,4.98-2.62,15.55-4.51,24.06"/><path d="M69.23,31.49c0.52,0.71,1,1.74,0.99,2.72c-0.04,5.79,0.31,12.91,0.31,21.33"/><path d="M56.66,38.08c2.2,2.02,5.68,8.13,6.23,11.12"/><path d="M84.01,35.64c0.13,0.44,0,0.95-0.18,1.46c-1.07,2.99-4.18,9.62-7.31,12.69"/><path d="M52.46,57.06c10.09-0.61,25.83-2.32,36.71-2.48"/><path d="M53.5,67.51c0.52,0.68,1.64,3.04,1.73,3.94c0.84,8.48,2.56,18.24,2.91,26.74"/><path d="M54.2,68.58c2.94-0.11,29.14-2.87,31.81-3.01c2.23-0.11,2.85,2.69,2.79,3.4c-0.35,4.14-3.56,18.78-4.78,28.28"/><path d="M56.53,81.24c3.97,0,24.53-2.11,29.02-2.11"/><path d="M58.51,95.48c7.87-0.44,18.11-1.4,25.71-1.4"/></svg>