<svg><path d="M9.75,34.56c0.35,0.45,0.72,0.82,0.87,1.38c1.23,4.42,2.7,18.12,3.54,26.06"/><path d="M11.96,36.68c8.94-1.94,13.77-3.11,17.91-3.69c1.52-0.21,2.43,1.26,2.21,2.51c-0.9,5.17-2.45,12.65-3.78,19.8"/><path d="M13.82,58.36c4.87-0.66,10.25-1.42,16.93-2.43"/><path d="M49.05,15.67c0.03,0.51,0.06,1.31-0.06,2.03c-0.69,4.28-4.62,13.68-10,19.44"/><path d="M45.93,27.41c3.62,0,14.25-2.18,18.32-2.18"/><path d="M51.2,29.51c1.93,1.68,4.98,6.93,5.46,9.55"/><path d="M75.98,14c0.03,0.51,0.14,1.32-0.07,2.03c-1.56,5.31-5.89,12.89-11.62,19.42"/><path d="M74.68,24.29c4.54,0,15.66-2.8,20.76-2.8"/><path d="M84.67,27.25c0.02,0.26,0.04,0.68-0.04,1.05c-0.46,2.22-3.13,7.1-6.77,10.09"/><path d="M39.43,47.81c0.95,0.38,4.04,0.49,4.99,0.38c4.46-0.51,37.46-3.42,44.94-3.8c1.46-0.08,2.79,0.08,4,0.39"/><path d="M64.49,46.01c1.54,2.31,1.54,3.69,1.54,5.54c0,6.94-0.04,32.19-0.04,39.78"/><path d="M50.7,56.42c0.18,0.66,0.13,2.12-0.11,2.86c-2.42,7.23-6.23,16.65-13.69,23.55"/><path d="M47.89,68.84c3.85,2.02,8.77,7.4,10.64,12.49"/><path d="M85.38,54.78c0.16,0.64,0.12,2.06-0.1,2.77c-2.18,7.02-5.6,16.18-12.31,22.88"/><path d="M82.31,66.7c4.62,3.1,8.59,7.79,11.8,13.19"/><path d="M33.9,93.22c0.77,0.21,3.53,0.44,4.83,0.34c14.08-1.05,43.02-3.08,55.84-3.4c2.1-0.05,4.62,0.36,5.67,0.7"/></svg>