<svg><path d="M22.8,15.59c0.76,0.61,1.2,1.4,1.33,2.37c0.94,3.23,1.96,8.62,2.72,13.4c0.17,1.09,0.33,2.15,0.47,3.14"/><path d="M25.06,16.86c7.67-1.42,14.62-2.42,19.07-2.94c2.67-0.31,4.29,0.04,3.6,2.99c-0.85,3.66-2.09,7.45-3.32,12.3"/><path d="M28.24,32.06c4.29-0.43,9.05-0.94,14.66-1.56c0.92-0.1,1.85-0.21,2.81-0.31"/><path d="M59.8,15.09c0.74,0.74,1.37,1.95,1.61,2.9c0.87,3.49,1.71,7.11,2.41,11.1c0.18,1.03,0.34,2.08,0.5,3.16"/><path d="M61.81,15.86c7.04-1.29,15.47-2.56,20.32-3.16c3.18-0.39,4.6,0.09,3.69,3.45c-0.93,3.43-2,6.44-3.17,11.05"/><path d="M64.99,30.31c4.24-0.42,9.85-1.16,15.64-1.64c1.02-0.09,2.05-0.16,3.08-0.23"/><path d="M23.88,49.61c3.08,0.74,6.03,0.21,9.13-0.1c13-1.26,28.75-2.67,41-3.6c3.18-0.24,6.62-0.42,9.5,0.08"/><path d="M53.38,32.88c0.37,1.09,0.49,2.39-0.01,3.64C45.62,56.12,31.25,68.12,14,78.79"/><path d="M55.5,47.75c8.37,6.09,26.51,20.45,34.87,24.53c2.84,1.39,3.83,1.59,5.13,1.72"/><path d="M25.3,78.34c0.73,0.58,1.41,1.59,1.54,2.51c0.9,3.1,1.72,8.42,2.41,13.17c0.2,1.4,0.39,2.76,0.57,3.99"/><path d="M27.56,79.86c6.88-1.2,13.24-2.17,17.56-2.69c2.8-0.34,4.32,0.1,3.56,3.12c-0.84,3.38-1.82,6.65-3.02,11.4"/><path d="M30.49,94.31c4.23-0.42,8.21-0.8,13.78-1.32c1.01-0.09,2.07-0.19,3.19-0.3"/><path d="M56.55,76.59c0.82,0.41,1.54,1.81,1.65,2.89c0.94,3.41,1.78,9.07,2.46,13.89c0.14,1.01,0.28,1.97,0.41,2.88"/><path d="M58.56,77.61c7.59-1.12,14.01-2.04,18.07-2.4c2.95-0.26,4.12,1.16,3.54,3.7c-0.78,3.39-1.57,6.83-2.76,11.54"/><path d="M61.74,93.31c4.31-0.43,9.2-1,15.26-1.43c0.96-0.07,1.94-0.13,2.96-0.19"/></svg>