<svg><path d="M9.75,34.06c0.35,0.45,0.72,0.82,0.87,1.38c1.23,4.42,3.2,18.12,4.04,26.06"/><path d="M11.96,36.18c8.94-1.94,13.77-2.61,17.91-3.19c1.52-0.21,2.43,1.26,2.21,2.51c-0.9,5.17-2.45,12.65-3.78,19.8"/><path d="M14.32,57.86c4.87-0.66,9.75-0.92,16.43-1.93"/><path d="M49.54,13.92c0.44,0.31,0.88,0.56,1.07,0.94c1.51,3.02,2.65,10.55,3.68,15.98"/><path d="M51.8,15.45c8.92-1.58,21.27-3.07,26.38-3.46c1.87-0.15,2.99,1.15,2.72,2c-1.1,3.53-2.06,7.3-3.71,12.18"/><path d="M55.72,28.79c6-0.45,14.77-1.49,23-2.18"/><path d="M39.75,39.71c0.32,0.29,0.65,0.54,0.79,0.91c1.11,2.92,2.73,9.89,3.49,15.13"/><path d="M40.74,41.07c8.1-1.07,15.01-2.57,18.75-2.95c1.37-0.14,2.19,0.83,2,1.65c-0.81,3.41-1.76,7.3-2.97,12.02"/><path d="M44.18,54.25c4.4-0.43,8.52-1.39,16.72-2.03"/><path d="M68.92,36.82c0.33,0.34,0.66,0.62,0.8,1.05c1.13,3.38,2.79,8.37,3.57,14.45"/><path d="M70.95,38.14c8.24-1.24,16.04-2.74,19.85-3.19c1.39-0.16,2.23,0.96,2.03,1.92c-0.82,3.95-1.79,6.23-3.02,11.69"/><path d="M73.78,51.47c6.23-0.43,8.24-1.34,17.95-1.92"/><path d="M39.65,67.34c1.48,0.48,3.16,0.64,4.85,0.48c8.65-0.79,33.76-3.1,46.84-4.03c1.68-0.12,2.74,0.08,4.43,0.42"/><path d="M66.04,56.67c0.96,1.08,1.43,2.9,1.43,4.01c0,11.34,0,31.91-0.27,38.66"/><path d="M64.3,66.43C59.52,74.8,49.25,86.5,36.75,92.35"/><path d="M66.79,66.25c3.88,3.34,22.15,20.08,26.37,23.36c1.43,1.11,2.66,1.59,4.09,1.91"/></svg>