<svg><path d="M8.25,34.06c0.35,0.45,0.72,0.82,0.87,1.38c1.23,4.42,3.2,18.12,4.04,26.06"/><path d="M10.46,36.18c8.94-1.94,13.77-2.61,17.91-3.19c1.51-0.21,2.43,1.26,2.21,2.51c-0.9,5.17-2.45,12.65-3.78,19.8"/><path d="M12.82,57.86c4.87-0.66,9.75-0.92,16.43-1.93"/><path d="M43.25,21.77c1.07,0.32,3.03,0.4,4.1,0.32C61.08,21,72,18.7,85.83,18.42c1.78-0.04,2.85,0.15,3.74,0.31"/><path d="M64.24,9.5c0.13,0.31,1.9,1.64,1.9,3.64c0,4.11,0.11,11.36,0.11,16.26"/><path d="M41.67,31.06c0,3.19-2.77,11.95-4.03,14.08"/><path d="M42.68,32.39c7.13-0.74,42.71-4.41,48.5-4.69c9.05-0.44,1.92,5.4-0.34,6.99"/><path d="M48.9,39.17c0.24,0.29,0.24,0.5,0.38,0.88c1.08,3.08,2.59,10.39,3.26,16.16"/><path d="M50.02,39.57c8.35-0.93,23.16-3.02,29.39-3.79c2.29-0.28,3.46,0.55,3.34,1.4c-0.43,3.13-1.49,11.66-2.54,16.91"/><path d="M65.56,37.94c0.3,4.02,0.15,12.83,0.15,15.51"/><path d="M52.07,47.06c2.72-0.35,26.61-3.03,28.86-3.2"/><path d="M52.96,55.36c6.01-0.44,18.95-2.07,27.25-2.77"/><path d="M42.97,64.2c1.93,0.34,3.1,0.62,5.05,0.34c11.09-1.56,27.14-3.83,39.43-3.83c6.63,0,3.85,2.77-0.48,6.59"/><path d="M65.37,64.25c0.32,0.32,1.08,1.72,1.08,2.36c0,4.33,0.29,19.31,0.23,23.28"/><path d="M66.64,76.99C67.81,76.99,76.01,76.01,83.19,75.21C84.71,75.04,86.15,75.03,87.35,75.03"/><path d="M49.06,72.88c0.09,0.64,0.24,1.67-0.18,2.58c-3.85,8.35-6.77,14.27-16.19,22.51"/><path d="M46.15,81.76c3.81-0.28,22.37,11.13,40.54,16.33c2.4,0.69,4.09,0.64,7.88,0.91"/></svg>