<svg><path d="M11.25,34.06c0.35,0.45,0.72,0.82,0.87,1.38c1.23,4.42,3.7,18.12,4.54,26.06"/><path d="M13.46,36.18c8.94-1.94,15.77-3.11,19.91-3.69c1.52-0.21,2.43,1.26,2.21,2.51c-0.9,5.17-2.45,12.65-3.78,19.8"/><path d="M16.32,57.86c4.87-0.66,11.25-1.42,17.93-2.43"/><path d="M63.48,9.42c0.26,0.08,0.26,1.94,0.09,2.18c-1.08,1.59-3.07,4.89-5.23,8.35"/><path d="M49.75,21.26c0.43,0.54,1.06,0.95,1.06,1.67c0,0.72,2.67,18.88,2.67,19.24c0,0.36,0.14,1.12,0.29,1.84"/><path d="M51.52,21.48c2.43-0.09,24.88-2.68,27.09-2.79c1.85-0.09,3.14,1.22,3.15,3.04c0,0.87-1.22,10.01-2.17,19.8"/><path d="M51.93,27.96c4.79-0.12,25.14-1.61,29.03-1.61"/><path d="M52.63,35.24c6.44-0.3,21.3-2.05,27.55-2.05"/><path d="M53.86,42.6C60,42.25,72.9,40.3,79.15,40.3"/><path d="M42.99,48.65c0.34,0.3,0.84,1.51,1.03,1.89c1.5,3.13,2.87,11.03,3.76,16.86"/><path d="M45.08,50.08c11.88-0.77,31.25-3.09,40.12-3.74c3.26-0.24,4.55,1.41,4.05,4.41c-0.53,3.17-2,9.5-3.27,14.5"/><path d="M65.9,49.14c-0.16,1.86-0.3,14.19-0.29,15.74"/><path d="M47.22,57.66c3.87-0.3,36.87-2.52,40.07-2.64"/><path d="M48.4,66.55C59,66,73,64.5,86.08,64.24"/><path d="M34.38,75.57c1.26,0.46,3.57,0.53,4.84,0.46c13.13-0.76,39.08-3.6,55.75-3.98c2.1-0.05,3.36,0.22,4.42,0.45"/><path d="M55.65,75.25c0.85,0.85,0.81,1.62,0.81,2.47c0,4.31-4.96,17.53-16.46,22.28"/><path d="M75.63,73.91c0.82,0.38,1.31,1.69,1.47,2.44c0.16,0.75,0,18.97-0.16,23.66"/></svg>