<svg><path d="M11.5,35.18c1.03,1.03,1.25,2.32,1.43,3.8c0.56,4.5,0.92,11.88,1.31,18.51c0.12,2.03,0.24,3.98,0.36,5.77"/><path d="M13.8,36.48c4.03-0.77,6.7-1.23,10.22-1.75c3.12-0.46,5.17-1.18,4.71,2.9c-0.61,5.51-1.57,11.83-2.46,19.3"/><path d="M15.47,59.22c3.42-0.18,5.02-0.63,8.78-1.01c0.95-0.1,1.97-0.2,3.09-0.33"/><path d="M34,32.24c0.63,0.46,2.78,0.51,3.38,0.48c4.69-0.26,8.53-1.03,14.63-2.17c1.24-0.23,2.62-0.3,3.6,0.02"/><path d="M44.9,14.45c0.89,0.89,1.11,2.3,1.11,3.84c0,0.55,0,23.34,0,27.13"/><path d="M32.44,47.64c1.26,0.85,4.06,0.39,5.41,0.19c5.18-0.76,11.29-1.76,18.03-2.66c1.47-0.2,2.55-0.46,3.92,0.1"/><path d="M39.76,50c0.87,0.87,1.14,2.41,1.14,3.89c-0.02,22.61-1.65,29.49-9.65,39.36"/><path d="M49.13,48.66c0.73,0.73,1.1,2.24,1.1,4.1s0.02,26.86,0.02,33.74c0,9.38-3.88,3.75-5.71,1.78"/><path d="M33.35,56.36c0.02,0.55,0.04,1.41-0.04,2.19c-0.46,4.62-2.68,12.58-6.06,20.2"/><path d="M55.48,58c1.08,1.94,2.78,7.98,3.05,11"/><path d="M65.66,28.74c0.88,0.62,3.1,0.49,4.09,0.41c5.18-0.43,11.19-0.93,17.37-2.03c1.43-0.26,2.75-0.37,4.08-0.05"/><path d="M77.02,13.7c1.08,1.08,1.47,2.55,1.47,4.24s-0.05,19.16-0.11,22.56"/><path d="M62.77,42.89c1.86,0.49,4.12,0.39,5.5,0.21c6.65-0.88,17.61-2,25.24-2.91c1.46-0.17,2.79-0.23,4.2,0.33"/><path d="M72.06,45.86c0.68,1.03,1.14,2.8,1.11,4.53C72.85,69.34,72.75,85.25,62,96"/><path d="M81.27,44.41c0.85,0.85,1.1,2.49,1.1,5.1s-0.12,32.81-0.12,41.74c0,9.5-4.3,3.64-5.54,1.67"/><path d="M64.75,53.25c0.37,0.88,0.54,1.78,0.46,2.77c-0.52,5.85-2.5,16.87-6.59,24.73"/><path d="M88.25,54.5c2.75,4.42,7.1,18.2,7.79,25.08"/></svg>