<svg><path d="M26,14.47c1.06,0.31,3,0.34,4.07,0.31c9.21-0.22,40.28-3.27,48.72-3.16c1.77,0.02,2.83,0.15,3.71,0.3"/><path d="M34.58,21.57c0.15,0.14,0.3,0.26,0.37,0.43c0.52,1.39,1.14,5.21,1.5,7.71"/><path d="M35.52,22.05c3.68-0.58,35.1-3.04,37.01-3.04c1.47,0,2.22,0.49,2.01,1.65c-0.33,1.76-0.88,2.75-1.76,5.27"/><path d="M36.6,28.79c2.23-0.22,34.04-2.43,36.87-2.65"/><path d="M52.25,6.75C53.5,7.25,54.5,8.97,54.5,10c0,10.5,0,17.75-0.25,24"/><path d="M20.91,33.63c0,3.48-3.03,13.05-4.41,15.37"/><path d="M21.24,36.74c9.51-0.99,60.23-3.83,67.95-3.9c9.8-0.09,2.55,5.16-0.45,7.28"/><path d="M41.75,38.14c0.05,0.26,0.11,0.67-0.1,1.05c-1.24,2.21-8.36,7.06-18.09,10.03"/><path d="M63.52,37.33c6.28,1.3,16.22,5.36,17.79,7.38"/><path d="M28.5,53.97c1.06,0.31,3,0.34,4.07,0.31c9.21-0.22,36.28-2.27,44.72-2.16c1.77,0.02,2.83,0.15,3.71,0.3"/><path d="M41.75,46C43,46.5,44,48.22,44,49.25c0,10.5,0,16.75-0.25,23"/><path d="M65,44c1.25,0.5,1.89,2.23,1.75,3.25c-1.5,11-1.75,17-3.25,24"/><path d="M28.5,63.47c1.06,0.31,3,0.34,4.07,0.31c9.21-0.22,34.28-2.27,42.72-2.16c1.77,0.02,2.83,0.15,3.71,0.3"/><path d="M17.75,73.7c1.52,0.54,4.3,0.62,5.82,0.54c9.68-0.49,48.68-3.99,64.61-3.23c2.53,0.12,4.05,0.26,5.31,0.53"/><path d="M46.06,75.14c0.08,0.41,0.32,1.09-0.16,1.65c-3.1,3.58-13.19,10.12-28.7,15.78"/><path d="M40.05,82.11c0.41,0.46,0.86,0.91,0.85,1.71c-0.03,10.1-0.28,11.5-0.28,13.21c0,1.71,1.01,2.68,2.29,1.4c1.28-1.28,12.26-9.12,13.97-10.4"/><path d="M78.54,75.27c0.03,0.22-0.18,1.57-0.36,1.86c-1.14,1.83-4.21,3.94-10.03,7.58"/><path d="M56.45,77.26c1.42,0.67,3.7,2.57,4.09,2.85c5.81,4.23,19.93,15.03,23.85,17.52c1.48,0.94,2.74,1.34,4.22,1.61"/></svg>