<svg><path d="M8.75,34.56C9.1,35,9.47,35.38,9.62,35.94c1.23,4.42,2.7,18.12,3.54,26.06"/><path d="M10.96,36.68c8.94-1.94,13.27-3.11,17.41-3.69c1.52-0.21,2.43,1.26,2.21,2.51c-0.9,5.17-2.45,12.65-3.78,19.8"/><path d="M12.82,57.86c4.87-0.66,9.75-0.92,16.43-1.93"/><path d="M52.31,13.12c0.03,0.24,0.12,0.69-0.06,0.96c-2.22,3.36-5.51,6.45-11.31,9.16"/><path d="M38.05,23.55c0.4,0.29,0.64,1.33,0.72,1.92c0.08,0.59,0.17,15.35,0.08,16.81c-0.08,1.33-0.72,3.84,0.24,2.8c0.96-1.03,7.63-7.49,11.22-9.92"/><path d="M47.08,28.13c3.51,2.38,5.75,5.91,7.09,9.38"/><path d="M56.29,21.08c0.7,0.3,1.95,0.27,2.56,0.16c5-0.84,11.03-2.47,13.8-2.79c1.8-0.2,2.25,1.75,2.15,3.16c-0.26,3.74-3.3,16.75-5.75,21.04c-1.78,3.12-2.82,2.12-4.17,0.1"/><path d="M63.14,22.61c0.02,0.42,0.53,1.61,0.46,2.18c-0.85,6.46-2.64,10.43-7.35,16.61"/><path d="M54.1,45.55c0,0.54,0.05,0.97-0.16,1.62c-1.11,3.38-11.67,14.65-20.72,19.65"/><path d="M55.45,49.1c6.18,1.72,14.08,6.29,17.09,10.62"/><path d="M44.37,62.32c1.4,0,2.05,0.12,2.5,0.04c4.43-0.85,12.76-1.53,16.15-2.15c0.68-0.12,0.84-0.04,2.01-0.04"/><path d="M38.08,72.32c0.56,0.23,2.4,0.34,2.97,0.3c5.15-0.34,18.07-2.08,24.97-3.14c0.69-0.11,2.23-0.09,3.27,0.11"/><path d="M53.6,63.24c1.16,0.54,1.16,1.76,1.16,2.2c0,3.04,0.58,20.6,0.29,23.63"/><path d="M40.82,78.78c3.49,2.82,5.2,5.87,5.92,7.51"/><path d="M65.96,76.08c0.34,0.5,0.18,1.31-0.12,1.64c-1.84,2.04-2.52,3.04-6.32,6.2"/><path d="M37.28,93.23c1.43,1.3,1.83,1.3,4.22,0.66c1.18-0.32,14.79-4.32,26.97-8.51"/><path d="M81.03,28.63c0.8,0.83,1.36,1.81,1.43,4.57c0.33,13.25-0.02,31.57-0.02,36.08"/><path d="M94.5,14.52c0.99,0.9,1.68,1.94,1.77,4.91c0.41,14.23-0.26,64.68-0.26,69.53c0,12.85-7.25,1.47-8.76,0.25"/></svg>