<svg><path d="M10.25,34.5c0.33,0.43,0.67,0.79,0.82,1.33c1.15,4.27,2.96,18,3.75,25.67"/><path d="M12.32,36.56c8.37-1.87,14.31-3,18.19-3.56c1.42-0.21,2.27,1.22,2.07,2.42c-0.84,4.99-2.29,12.72-3.54,19.62"/><path d="M14.51,57.99c4.56-0.63,10.57-1.37,16.84-2.34"/><path d="M83.82,8.89c-0.32,1.11-0.79,1.47-1.69,1.76c-3.38,1.09-13.66,4.15-31.33,6.31"/><path d="M49.1,21.64c0.03,0.32,0.06,0.83-0.05,1.28c-0.67,2.71-4.5,8.65-9.75,12.29"/><path d="M62.38,21.08c1.83,1.35,4.74,5.54,5.2,7.63"/><path d="M82.19,18.58c4.87,2.05,12.57,8.44,13.78,11.63"/><path d="M41.78,36.22c0.26,0.26,0.53,0.48,0.65,0.81c0.92,2.64,2.03,8.44,2.67,13.2"/><path d="M43.92,36.99c5.8-1.15,43.1-4.6,46.18-5.01c1.12-0.15,2.65,0.85,2.36,2.35c-0.62,3.13-2.15,8.5-3.82,12.98"/><path d="M58.07,35.24c0.04,0.42,0.65,1.23,0.78,2.24c0.44,3.24,0.71,8.59,0.84,10.11"/><path d="M73.72,34.82c0.78,0.93,0.88,1.34,0.77,2.22c-0.45,3.46-1.38,8.05-1.65,9.47"/><path d="M46.43,49.27c3.62-0.46,37.65-3.55,42.62-4.25"/><path d="M42.17,56.78c0.73,0.4,1.17,1.8,1.31,2.59c0.15,0.8,0.31,39.19,0.15,41.17"/><path d="M43.74,58.8c1.28-0.08,15.9-1.83,17.07-1.99c1.97-0.28,2.43,1.01,2.39,2.29C63,65,61.58,75.64,61.58,76.14"/><path d="M43.96,67.16c1.74,0,13.29-1.41,18.58-1.74"/><path d="M43.88,76.21c3.54-0.37,13.73-0.89,17.66-1.58"/><path d="M43.97,86.5c4.38-0.48,12.21-2.03,16.12-2.39c0.85-0.08,1.36,0.15,1.79,0.31"/><path d="M43.72,96.25c4.38-0.48,13.71-2.03,17.62-2.39c0.85-0.08,1.36,0.15,1.79,0.31"/><path d="M68.06,64.17c0.82,0.38,2.33,0.44,3.16,0.38c7.06-0.58,19.97-2.45,26.27-2.88c1.37-0.09,2.2,0.18,2.89,0.37"/><path d="M87.91,53.08c0.07,0.32,0.92,1.66,0.92,3.69c0,13.64-0.18,33.8-0.18,37.11c0,8.04-5.49,1.19-7.09,0.17"/><path d="M72.27,73.02c2.41,1.68,6.21,6.92,6.82,9.54"/></svg>