<svg><path d="M8.75,34.56C9.1,35,9.47,35.38,9.62,35.94c1.23,4.42,2.7,18.12,3.54,26.06"/><path d="M9.96,36.68c8.94-1.94,14.77-3.11,18.91-3.69c1.52-0.21,2.43,1.26,2.21,2.51c-0.9,5.17-2.45,12.65-3.78,19.8"/><path d="M12.82,57.86c4.87-0.66,9.25-1.42,15.93-2.43"/><path d="M35.16,20.27c1.14,0.53,2.46,0.63,3.6,0.53c10.45-0.96,42.2-3.96,54.25-4.03c1.9-0.01,3.03,0.25,3.98,0.51"/><path d="M53.07,11.05c1.25,1.16,1.73,1.5,1.78,2.23c0.4,5.48,0.3,7.23,0.96,11.68"/><path d="M74.78,9c0.66,0.67,1.09,1.68,0.88,2.67c-0.66,3-1.6,9-2.55,12.83"/><path d="M38.18,35.05c0.64,0.19,1.8,0.24,2.43,0.19c3.47-0.28,14.41-2.48,18.31-2.46c1.06,0.01,1.69,0.09,2.22,0.18"/><path d="M49.3,27.54c0.07,0.15,1.01,0.79,1.01,1.76c0,5.95-0.21,11.41-0.21,13"/><path d="M35.19,43.81c0.87,0.28,2.47,0.39,3.33,0.28c7.72-0.93,15.01-2.39,21.62-3.09c1.44-0.15,2.31,0.13,3.04,0.28"/><path d="M44.22,46.03c0.04,0.26,0.04,0.65-0.08,1.03c-1.1,3.28-2.51,5.78-7.2,8.96"/><path d="M53.33,43.77c0.43,0.42,0.8,0.91,0.8,1.56c0,0.87-0.13,2.5-0.13,3.13c0,1.7,1.48,2.39,4.32,2.39c2.56,0,4.45,0,5.54-0.55"/><path d="M40.45,59.31c1.32,0,0.9,0.35,2.21,0.2C47,59,51.77,57.08,56.32,56.6c1.3-0.14,1.64-0.16,2.46,0"/><path d="M49.09,51.49c0.87,0.36,1.39,1.64,1.57,2.37c0.17,0.73-0.1,6.42-0.27,10.97"/><path d="M36.57,68.49c0.95,0.67,2.04,1.26,4.81,0.38c5.11-1.62,13.56-3.69,19.37-5.87"/><path d="M79.39,27.5c0.27,0.31,0.63,1.53,0.56,2.09C78,45.75,74.75,55,67.33,64.12"/><path d="M67.29,37.12c1.21,0.88,3.43,1.13,4.33,1c2.63-0.37,11.4-1.95,14.54-3.06c1.59-0.56,3.09,0.19,2.67,2.63c-1.67,9.72-0.16,18.68,4.05,24.31c3.37,4.5,4.37,2.75,4.09-2.45"/><path d="M70.45,45.56c4.38,2.01,11.32,8.28,12.41,11.42"/><path d="M51.64,70.48c0.67,0.28,1.88,0.31,2.55,0.28c6.29-0.26,17.16-2.51,25.51-2.72c1.11-0.03,1.78,0.13,2.33,0.27"/><path d="M35.53,80.24c1.25,0.35,3.55,0.47,4.79,0.35c13.02-1.35,42.71-3.96,55.09-3.95c2.08,0,3.33,0.17,4.37,0.34"/><path d="M60.2,81.64c0.19,0.49,0.36,1.23-0.16,1.73C55.5,87.75,52.5,90,46.22,94.96c-1.29,1.02-1.3,2.04,0.6,1.81c3.98-0.47,30.47-6.02,38.06-7.6"/><path d="M75.77,83.02c5.78,2.57,14.16,10.49,15.6,14.48"/></svg>