<svg><path d="M19.25,15.75c0.75,1.25,1.25,3.25,1,5.5s0.25,68.5,0.25,72.25"/><path d="M20.25,18.25c9.5-1,61.63-4.65,63.5-5c4-0.75,6.94,1.83,6.5,3c-0.75,2-0.75,65.25-0.75,71c0,9.25-4.25,4.75-7.25,1.5"/><path d="M39.69,30.12c1.22,0.94,2.26,0.94,4.05,0.63c3.64-0.63,19.73-3.16,20.84-3.27c1.46-0.16,2.62,1.03,2.09,3.46c-0.16,0.72-1.14,7.74-2.17,14.69"/><path d="M42,50.03c2.69-0.34,18.17-2.37,23.29-3.73"/><path d="M41.6,30.98c-0.02,5.15,0.08,28.62,0.1,33.29C41.74,77.49,44.02,78,59.37,78c16.57,0,14.75-4.24,14.75-8.64"/></svg>