<svg><path d="M11,34.53c0.33,0.44,0.67,0.8,0.82,1.35c1.15,4.35,3.46,17.81,4.25,25.62"/><path d="M13.07,36.62c8.37-1.91,14.31-3.06,18.19-3.63c1.42-0.21,2.27,1.24,2.07,2.46c-0.84,5.08-2.29,12.44-3.54,19.46"/><path d="M15.76,57.93c4.56-0.65,10.07-1.39,16.34-2.39"/><path d="M42.47,13.93c1.67,0.68,3.59,0.8,5.36,0.68c11.24-0.82,37.13-3.9,40.93-4.46c2.51-0.37,3.16,1.03,2.72,3.7c-0.55,3.36-1.74,4.28-2.5,8.3"/><path d="M45.2,25.97c4.79-0.22,41.61-3.38,46.61-3.6"/><path d="M45.43,15c0,4.09-0.23,15.99-0.6,19.79C42.75,56.44,41.23,73.58,31,89.12"/><path d="M69.18,29.12c0.63,0.67,1.08,1.45,1.13,3.67c0.26,10.64-0.01,6.72-0.01,10.34"/><path d="M50.73,33.41c0.25,0.12,0.71,0.07,0.96,0.12c2.52,0.45,9.49-0.82,11.04-0.69c0.42,0.04,0.67,0.06,0.88,0.11"/><path d="M50.65,41.35c0.3,0.14,0.84,0.08,1.14,0.14c2.97,0.53,9.27-1.47,11.1-1.31c0.49,0.04,0.79,0.07,1.04,0.13"/><path d="M77.34,30.19c0.27,0.13,0.77,0.08,1.04,0.13c2.72,0.49,11.3-0.89,12.98-0.74c0.45,0.04,0.72,0.06,0.95,0.12"/><path d="M77.69,38.89c0.31,0.15,0.89,0.09,1.2,0.15c3.13,0.56,12.42-1.52,14.35-1.35c0.52,0.05,0.83,0.07,1.09,0.14"/><path d="M48.77,49.14c0.18,0.22,0.36,0.41,0.44,0.69c0.62,2.23,2.57,7.67,2.99,11.66"/><path d="M49.86,50.44c3.91-0.87,40.76-4.82,42.83-5.11c0.76-0.11,1.79,0.75,1.58,2c-0.42,2.61-1.95,7.24-3.09,10.96"/><path d="M63.62,49.21c0.88,0.79,1.06,1.38,1.1,2.04c0.14,2.21,0.38,4.88,0.83,7.84"/><path d="M77.08,47.28c0.67,0.72,0.94,1.54,0.89,2.21c-0.21,2.9-0.62,7.28-0.82,8.48"/><path d="M52.75,60.29c2.44-0.33,35.37-3.38,38.72-3.89"/><path d="M59.32,61.53c0.04,0.42,0.1,1.08-0.09,1.68c-1.09,3.55-7.34,11.34-15.9,16.12"/><path d="M59.57,67.09c0.9,0.4,2.15,0.44,3.61,0.27c5.27-0.63,24.52-3.49,28.13-3.62c3.61-0.13,4.18,1.32,3.79,4.16C94.1,75.36,91.75,89,87.06,97.7c-2.53,4.7-4.65,1.01-6.78-0.67"/><path d="M53.18,74.99c0.3,0.21,0.68,1,0.73,1.27c0.4,2,1.08,4.96,1.65,8.75"/><path d="M54.4,75.75c4.54-0.4,21.72-2.56,24.99-2.97c0.86-0.11,1.87,0.88,1.71,1.48c-0.55,2.06-0.64,3.13-1.53,6.55"/><path d="M55.74,83.57c3.65-0.4,19.74-2.15,24.85-2.52"/><path d="M65.79,69.63c0.65,0.63,1.11,1.95,1.11,2.57c0,3.08,0,14.14-0.21,17.89"/><path d="M51.84,91.85c0.64,0.44,1.02,0.99,1.66,0.88c0.64-0.11,21.54-4.35,25.49-5.23"/><path d="M76.21,85.43c2.35,1.03,6.07,4.24,6.66,5.84"/></svg>