<svg><path d="M17.5,26.25c1.06,1.06,1.9,3.09,2.11,4.98c1.27,11.64,2.42,29.54,4.16,51.27c0.17,2.12,0.34,2.78,0.53,5"/><path d="M20.54,28.66c20.23-2.59,57.72-6.91,68.71-6.91c2.75,0,3.82,2.51,3.5,5.5c-1.35,12.85-3.11,34.06-5.64,51.98c-0.28,1.95-0.56,2.88-0.86,4.77"/><path d="M37.75,45.14c0.8,0.64,1.29,1.45,1.47,2.45c1.2,3.61,2.35,10.46,3.54,16.12c0.28,1.32,0.53,2.1,0.74,3.3"/><path d="M40.03,46.4c7.97-1.53,22.18-3.48,26.41-3.91c1.8-0.19,2.89,1.11,2.63,2.21c-0.88,3.74-3.13,11.37-4.34,16.3"/><path d="M44.25,64.5c5.23-0.84,12.05-1.6,18.8-2.43c1.31-0.16,2.62-0.32,3.92-0.46"/><path d="M25.25,84.76c15.54-1.45,41.13-3.14,60.75-4.51"/></svg>