<svg><path d="M17.5,17.32c0.97,0.97,1.65,3.06,1.65,4.41c0,8.9,0.02,58.27,0.02,67.03c0,1.93-0.09,4-0.09,6.25"/><path d="M20.05,19.4c23.33-2.65,46.33-4.9,64.7-5.61C88.6,13.64,90,15.6,90,19.5c0,14.5,0.1,43.5,0.1,67c0,3.2-0.12,6.62-0.12,9.5"/><path d="M28.89,43.81c1.74,0.32,4.4,0.28,6.49,0.06c10.47-1.13,27.39-4.02,38.5-4.81c2.03-0.14,3.99-0.24,6,0.17"/><path d="M62.37,24.33c0.77,0.77,1.56,2.04,1.56,3.54c0,13.09,0.09,44.73,0.09,47.91c0,7.72-4.82,1.14-6.23,0.16"/><path d="M39.07,54.03c3.56,2.97,7.56,8.72,9.25,13.31"/><path d="M20.3,91.01c17.58-0.89,50.27-1.85,68.69-2.26"/></svg>