<svg><path d="M19,16.82c1.03,1.03,1.61,2.81,1.61,4.41c0,11.09-0.04,49.54-0.06,68.15c0,3.7,0,6.62,0,8.38"/><path d="M21.23,18.65c19.15-1.9,49.27-4.77,64.02-4.9c2.75-0.02,4.5,2.24,4.5,5.25c0,12.41,0,52.9,0,69.12c0,3.56,0,5.95,0,6.62"/><path d="M30.23,40.92c1.88,0.61,4.43,0.69,6.41,0.56c8.53-0.56,25.75-2.5,36.11-3.6c1.76-0.19,3.76-0.17,5.52,0.01"/><path d="M52.87,22.25c1,1,1.44,2.5,1.44,3.94c0,0.86,0.05,37.4,0.06,53.06c0,2.69,0,4.71,0,5.75"/><path d="M52.75,41.02c0,1.23-0.64,3.3-1.35,4.81c-4.9,10.35-14.09,23.45-21.43,28.73"/><path d="M54.56,42.83c3.44,4.92,14.6,17.81,19.48,23.39c1.49,1.7,3.26,3.56,5.23,4.71"/><path d="M21.75,93.01c15.38-0.64,48.71-2.1,66.75-2.51"/></svg>