<svg><path d="M18.75,17.32c0.75,1.43,1.34,2.51,1.36,4.41C20.25,36,20.3,80,20.3,95"/><path d="M20.23,19.65C38.25,18,73.68,15.5,85.75,15.5c2.75,0,3.55,2.49,3.5,5.5c-0.25,15.75-1,49.25-0.5,71.5"/><path d="M50.65,23.18c0.07,0.93,0.16,2.41-0.13,3.73c-2.2,9.85-8.27,23.34-22.41,35.75"/><path d="M26.06,35.37c1.32,0.42,3.76,0.51,5.08,0.42c7.79-0.57,31.3-4.53,45.42-4.52c2.21,0,3.53,0.2,4.64,0.41"/><path d="M43.19,45.04c0.52,0.59,0.87,1.19,1.04,1.78c0.17,0.59,0.25,36.81,0.17,38.15"/><path d="M45.27,45.9c2.08-0.15,20.63-3.04,22.18-3.21c2.77-0.3,3.81,1.93,3.46,2.82c-0.33,0.86-0.52,20.52-0.52,32.55c0,8.49-5.19,2.08-5.89,1.34"/><path d="M45.27,57.08c7.1-0.89,18.2-1.85,24.43-2.29"/><path d="M45.79,67.28c5.54-0.45,17.16-1.78,23.56-2.08"/><path d="M21.25,91.51c13.07,0,49.46-2.1,67.5-2.51"/></svg>