<svg><path d="M19,17.88c1.25,1.25,1.82,2.7,1.82,4.56c0,15.18,0.04,41.06,0.04,67.55c0,2.12-0.06,4.2-0.1,6.25"/><path d="M21.52,19.73c18.46-1.58,52.47-4.4,63.27-4.4c3.2,0,4.72,1.93,4.68,4.87c-0.22,13.81-0.33,46.02-0.1,67.53c0.03,2.46,0.06,4.83,0.11,7.06"/><path d="M33,37.12c2.82,1.52,7.29,6.26,8,8.62"/><path d="M47.38,30.38c2.96,1.88,7.64,7.71,8.38,10.62"/><path d="M72.02,32.18c0.48,1.32,0.38,2.64-0.43,4.81C65.25,54.12,53.12,70.62,34,80.75"/><path d="M40.25,54.5C48.33,57.57,63.72,67.3,70.5,76"/><path d="M22.19,92.08c15.31-0.58,47.64-2.3,65.29-2.71"/></svg>