<svg><path d="M18.75,16.32c0.75,1.43,1.34,2.51,1.36,4.41C20.25,35,20.25,69.25,19.8,96.5"/><path d="M19.73,18.15c18.02-1.65,53.95-3.65,66.02-3.65c2.75,0,3.55,2.49,3.5,5.5c-0.25,15.75-1,53.75-0.5,76"/><path d="M51.96,22c0.07,0.8,0.31,2.11-0.14,3.23c-2.8,7.09-11.66,21.57-22.04,30.18"/><path d="M51.13,25.82c4.53,4.09,21,20.63,24.83,24.03c1.3,1.15,2.96,1.65,4.26,1.97"/><path d="M48.5,45.01c3.25,1.4,8.41,5.75,9.22,7.92"/><path d="M35.65,59.96c0.89,0.73,2.77,1.09,3.78,0.9c2-0.37,28.56-3.5,30.68-3.86c2.11-0.37,2.64,0.86,1.13,2.81c-3.56,4.56-16.11,14.95-17.45,16.41"/><path d="M44.63,70c3.69,2.14,13.24,10.39,14.98,16"/><path d="M20.25,93.01c13.07,0,49.96-1.1,68-1.51"/></svg>