<svg><path d="M19,16.82c1.09,1.09,1.61,2.51,1.61,4.41c0,14.65-0.22,44.9-0.22,71.53c0,1.95-0.06,3.86-0.09,5.75"/><path d="M21.52,18.67C41.38,16.75,74.03,13.5,85,13.5c3.38,0,5,1.85,5,5.25c0,15.36-0.04,47.89-0.08,70.62c0,1.68,0,3.31,0,4.88"/><path d="M35.12,33.88c1.32,0.28,4.2,0.44,5.51,0.28c10.47-1.29,20.62-2.54,28.62-3.13c2.02-0.15,3.88-0.19,5.56,0.04"/><path d="M52.8,34.89c0.96,0.97,1.47,2.48,1.47,3.81c0,3.99-0.13,24.74-0.09,33.55"/><path d="M37.58,52.16c1.79,0.22,3.41,0.14,5.36-0.08c7.56-0.83,17.56-1.99,25.38-2.8c1.25-0.13,4.02-0.15,5.89,0.17"/><path d="M31.08,75.14c1.54,0.36,3.85,0.28,5.19,0.16c9.98-0.92,25.85-2.67,37.03-3.54c2.15-0.17,5.04-0.18,6.12,0.13"/><path d="M67.75,56.62c3,1.75,6.12,5.12,8,8.38"/><path d="M21.5,93.01c14.25-0.51,48.38-1.89,67-2.51"/></svg>