<svg><path d="M20,16.34c1.02,1.02,1.37,2.56,1.37,4.5c0,5.76-0.04,49.91-0.06,68.79c0,4.17-0.01,7.11-0.01,8.12"/><path d="M21.75,17.72c17.72-1.02,48.91-2.52,62.75-2.7c4.15-0.05,6,1.09,6,5.6c0,15.01,0.14,45.88,0.14,68.88c0,2.34,0.06,4.58,0.11,6.7"/><path d="M33.49,24.37c2.79,1.37,6.8,5.3,7.49,7.42"/><path d="M69.27,22.75c0.06,0.69-0.05,1.35-0.3,1.99c-0.75,2.16-2.74,5.3-5.47,8.64"/><path d="M32.68,38.13c1.56,0.56,3.96,0.42,5.59,0.25c6.37-0.68,19.6-2.08,26.86-2.73c2.06-0.19,4.11-0.43,6.15,0.01"/><path d="M29.46,49.4c2.33,0.64,5.42,0.63,7.8,0.42c8.05-0.72,22.24-1.56,33.12-2.35c2.24-0.16,4.5-0.21,6.72,0.16"/><path d="M52.85,21.75c0.4,1.12,0.45,2.13,0.01,3.73C50.25,35,45,53.38,28.46,68.96"/><path d="M54.14,37.16c3.61,3.71,11.98,12.96,18.71,20.11c2.62,2.79,4.77,4.48,7.04,5.95"/><path d="M41.91,58.05c0.8,0.53,2.23,0.5,3.41,0.35c4.84-0.63,11.02-1.55,14.55-1.99c3.25-0.41,4.38,0.71,3.82,2.95c-0.42,1.67-1.62,4.9-2.84,8.42"/><path d="M41.61,69.68c1.14,0.32,2.64,0.56,3.95,0.4c3.56-0.45,8.63-0.69,12.93-1.21c1.33-0.16,2.59-0.3,3.7-0.41"/><path d="M42.27,70.46c0.5,0.58,0.68,1.04,0.68,1.67c0,1.12-0.08,3.62-0.08,4.75c0,5.56,2,6.65,14.12,6.65c11.76,0,13.77-0.98,13.77-6.82"/><path d="M22.51,93.2c14.61-0.45,48.81-1.15,66.98-1.57"/></svg>