<svg><path d="M18.75,15.82c0.75,1.43,1.84,2.51,1.86,4.41c0.14,14.27,0.14,48.02-0.31,75.27"/><path d="M20.73,17.65C38.75,16,74.68,14.5,86.75,14.5c2.75,0,3.55,2.49,3.5,5.5c-0.25,15.75-1,50.25-0.5,72.5"/><path d="M35.53,30.22c0.85,0.31,2.42,0.4,3.27,0.31c10.96-1.07,21.39-3.12,32.42-3.4c1.42-0.04,2.27,0.15,2.99,0.31"/><path d="M53.02,20.5c0.1,0.23,1.49,1.21,1.49,2.69c0,9.63-0.16,14.46-0.16,16.88"/><path d="M29,41.85c1.34,0.43,3.8,0.5,5.14,0.43c14.11-0.78,23.61-2.53,42.68-3.66c2.23-0.13,3.57,0.21,4.69,0.42"/><path d="M41.71,45.07c1.42,1.46,3.66,6.02,4.01,8.29"/><path d="M67.19,42.58c0.02,0.22,0.03,0.57-0.03,0.89c-0.37,1.87-2.52,5.99-5.45,8.5"/><path d="M29.25,57.06c0.79,0.34,3.51,0.36,4.31,0.31c5.47-0.4,32.69-3.02,42.02-3.68c1.31-0.09,4.08,0.29,4.73,0.46"/><path d="M34.27,70.22c1.32,0.36,3.76,0.46,5.08,0.36c9.09-0.68,22.18-3.37,32.64-3.62c2.21-0.05,3.53,0.17,4.63,0.35"/><path d="M53.34,56.88c0.45,0.41,1.41,2.24,1.5,3.05c0.09,0.81-0.06,21.01-0.15,26.07"/><path d="M20.75,92.51c13.07,0,50.96-2.1,69-2.51"/></svg>