<svg><path d="M18.25,16.32c0.75,1.43,1.84,2.51,1.86,4.41C20.25,35,20.25,68.75,19.8,96"/><path d="M21.73,18.65C39.75,17,74.18,15,86.25,15c2.75,0,3.55,2.49,3.5,5.5c-0.25,15.75-1,52.75-0.5,75"/><path d="M28.68,36.88c1.05,0.42,3,0.59,4.05,0.42c8.12-1.34,32.88-4.15,42.39-4.72c1.76-0.1,2.81,0.2,3.69,0.41"/><path d="M28.55,45.94c0.31,0.29,0.66,0.52,0.76,0.91c0.88,3.38,1.99,11.67,2.87,16.62"/><path d="M30.47,47.92c5.68-0.71,13.22-2.09,18.46-2.81c1.32-0.18,2.11,0.83,1.92,1.65c-0.78,3.41-1.47,6.99-2.86,12.67"/><path d="M32.82,61.7c4.24-0.43,10.68-1.18,16.5-1.85"/><path d="M27.64,76.47c0.59,0.66,1.77,1.02,3.53,0.14c4.9-2.43,13.73-6.77,18.63-9.2"/><path d="M56.71,21c0.95,1.29,1.28,1.65,1.54,4.42c2,21.83,8.03,49.08,19.02,57c3.74,2.69,4.19,0.55,3.72-5.16"/><path d="M74.94,42.53c0.07,0.91,0.15,2.35-0.14,3.65c-1.71,7.7-11.54,25.45-25,35.79"/><path d="M69.78,20.89c2.52,1.3,6.56,4.29,7.73,6.52"/><path d="M20.75,93.51c13.07,0,50.46-2.6,68.5-3.01"/></svg>