<svg><path d="M18.75,17.82c0.75,1.43,1.84,2.51,1.86,4.41c0.14,14.27,0.14,46.02-0.31,73.27"/><path d="M20.73,20.65C38.75,19,74.18,16,86.25,16c2.75,0,3.55,2.49,3.5,5.5c-0.25,15.75-0.5,48-0.5,72"/><path d="M36.25,33.19c0.91,0.31,2.57,0.32,3.47,0.31C47.75,33.5,60,32,68.33,30.63c1.49-0.25,2.42,0.15,3.17,0.31"/><path d="M36.84,42.74c0.49,0.49,0.81,0.97,0.98,1.46c0.16,0.49-0.19,34.62-0.18,39.01"/><path d="M38.79,44.36c5.47-0.2,31.4-3.02,32.85-3.16c2.6-0.24,3.57,1.58,3.25,2.31c-0.03,1.64-0.55,21.98-0.55,33.11c0,7.94-5.34,1.18-6.5,0.71"/><path d="M38.79,54.01c7.24-0.43,29.12-2.34,34.96-2.71"/><path d="M38.44,64.24c5.19-0.37,29.75-3.35,35.75-3.59"/><path d="M52.24,22.82c1.01,1.18,2.07,2.74,2.07,3.55c0,4.63,0,50.59-0.23,55.51"/><path d="M69.33,21.3c3.33,1.41,8.04,5.28,8.88,7.47"/><path d="M20.75,93.01c13.07,0,49.96-2.1,68-2.51"/></svg>