<svg><path d="M32.38,29.43c2.04,0.79,5.05,0.39,7.13,0.19c9.15-0.89,21.01-1.85,30.36-2.26c2.4-0.11,4.89-0.38,7.25,0.17"/><path d="M53.17,13.62c0.92,0.92,1.27,2.02,1.27,3.89c0,12-0.07,20.38-0.07,29.12"/><path d="M20.38,49.23c2.84,1.01,6.08,0.52,9,0.29c16.33-1.29,34.75-2.59,49.87-3.27c3.46-0.16,6.49-0.15,9.88,0.58"/><path d="M31.88,70.43c1.99,0.77,4.96,0.41,7,0.19c9.75-1,23.62-2.32,33.37-2.78c2.13-0.1,4.28-0.3,6.38,0.19"/><path d="M52.67,54.12c0.98,0.98,1.27,2.27,1.27,4.14c0,12-0.07,24.13-0.07,30.87"/><path d="M17.63,91.48c3.87,1.02,7.76,0.63,11.37,0.37C45.73,90.62,64.88,89,84,88.76c3.51-0.04,6.92,0.07,10.38,0.81"/></svg>