<svg><path d="M11.5,49.5c1.71,0.69,3.51,0.56,5.24,0.2c5.76-1.2,13.37-2.96,19.65-4.7c1.6-0.44,3.08-0.5,4.12-0.25"/><path d="M25.37,26.25c1.09,0.5,1.74,2.25,1.96,3.25c0.18,0.82-0.18,43.4-0.22,44.5"/><path d="M11,82.02c1.25,1.23,3.36,1.32,6-0.37c1.56-1,15.12-9.36,21.75-14.15"/><path d="M41,53.06c2.12,0.69,4.88,0.69,7.38-0.04c11.34-3.34,29.47-9.63,37.12-12.26c3.51-1.21,5.25,0.75,4.76,3.61c-0.93,5.4-3.34,11.85-5.26,15.89c-2.5,5.25-5.62,2.75-7.75,0"/><path d="M66.25,18c1.19,1.19,2,2.88,2,4.5c0,8.5,0.07,29.73-0.12,43.25c-0.04,2.91-0.09,4.64-0.13,5.75"/><path d="M49.49,37.62c1.26,1.26,2.02,3.13,2.02,4.85c0,8.57-0.38,20.78-0.38,28.03c0,16.5,0.87,19,22.37,19c20,0,20.64-1.75,20.64-13.07"/></svg>