<svg><path d="M12.5,45.64c0.76,0.38,2.74,0.46,3.5,0.36c4.82-0.66,17.65-2.89,23-3.5c1.25-0.14,2.62-0.18,3.25,0.01"/><path d="M25.87,19c1.09,0.5,1.96,2.23,1.96,3.25c0,7.25,0.03,38.75,0.03,49.5"/><path d="M12.5,78.79c0.75,0.96,2.25,1.46,4.5,0.21c6.25-3.5,17.5-9.75,23.75-13.25"/><path d="M40,21.5c1.21,0.5,3.16,0.85,3.88,0.75C53.28,21,80.5,16.5,92.13,16c0.86-0.04,3.26,0.25,4.12,0.75"/><path d="M66.97,22.25c0.93,1.07,1.06,2.8,1.06,4.8c0,10.53-0.29,55.7-0.29,68.95"/><path d="M70.66,41.42C76,43.75,84.25,52.25,86.78,57.12"/></svg>