<svg><path d="M13.5,41.39c0.76,0.38,2.24,0.46,3,0.36c0.78-0.11,1.71-0.01,2.74-0.18c5.3-0.91,11.51-2.32,17.51-3.57c1.24-0.26,2.62-0.43,3.25-0.24"/><path d="M26.87,19c0.88,1.25,1.21,2.5,1.21,4c0,7.25,0.03,32.75,0.03,43.5"/><path d="M13.75,74.19c1.25,1.18,2.62,1.31,4.67-0.02c6.09-3.96,15.45-10.29,22.33-14.92"/><path d="M68.8,13c1.16,1.16,1.59,2.38,1.59,4.29c0,4.86,0.11,9.33,0.11,12.75"/><path d="M46.38,33.14c2.98,0.66,6.1,0.47,9.12,0.03c10.85-1.6,22.51-3.04,35.01-4.42c2.83-0.31,5.43-0.6,8.12,0.41"/><path d="M66.86,45.58c5.77,2.3,11.77,4.67,18.09,6.09c3.11,0.7,4.55,1.92,3.75,5.1c-2,7.88-10.89,28.74-14.78,33.94c-4.4,5.88-7.17,0.8-8.66-1.02"/><path d="M68.06,35c0.45,1.43,0.42,3.05-0.17,4.64c-4.51,12.11-14.01,31.48-31.21,44.19"/></svg>