<svg><path d="M11.5,44.14c0.76,0.38,2.24,0.46,3,0.36c4.82-0.66,17.65-2.39,23-3c1.25-0.14,2.62-0.18,3.25,0.01"/><path d="M25.37,15.5c1.09,0.52,1.96,2.32,1.96,3.39c0,7.56,0.03,43.9,0.03,55.11"/><path d="M11.5,79.86c0.76,0.89,2.27,1.36,4.54,0.19C22.35,76.8,33.69,71,40,67.75"/><path d="M58.75,13.5c0.04,0.91,0.08,2.34-0.08,3.64C57.72,24.83,52.3,41.68,44.89,52"/><path d="M57.22,34.27c1.03,0.31,2.47,0.25,4.04,0.03c3.99-0.55,25.02-4.39,26.82-4.56c9.05-0.86-1,9.36-2.89,11.01"/><path d="M62.6,42c0.65,1.25,0.88,2.41,0.86,4.37C63.25,66.5,58.75,86.75,39,98.25"/><path d="M62.92,59.5c4.49,8.3,20.73,27.86,28.11,34.73c1.56,1.45,2.74,2.31,4.21,2.77"/></svg>