<svg><path d="M10.5,44.53c0.81,0.42,2.89,0.43,3.7,0.4c4.8-0.18,18.87-2.67,24.58-3.35c1.34-0.16,2.8-0.2,3.47,0.01"/><path d="M25.37,19c1.09,0.5,1.96,2.73,1.96,3.75c0,7.25,0.03,39.75,0.03,50.5"/><path d="M12,79.29c0.75,0.96,2.25,1.46,4.5,0.21C22.75,76,34,69.75,40.25,66.25"/><path d="M42.97,22.96c1.2,0.52,3.41,0.65,4.62,0.52c11.53-1.23,32.36-3.53,45.6-4.47c2-0.14,3.21,0.25,4.22,0.51"/><path d="M71.56,23.66c0.08,1.15,0.46,3.05-0.17,4.61C67.5,38,56.75,58.5,41.87,72.42"/><path d="M66.12,44.75c1.44,1.2,1.9,2.88,1.9,4.91c0,4.45-0.11,33-0.11,48.84"/><path d="M77.64,49.25c6.88,3.92,17.76,16.11,19.49,22.2"/></svg>