<svg><path d="M 14.5,43.89 c 1.5,0.36 3.25,0.25 4,0.11 5.5,-1 11.5,-2 19,-3.75 1.23,-0.29 2.25,-0.5 3.75,-0.49"/><path d="M 28.62,16 c 0.94,0.94 1.21,2.38 1.21,3.75 0,7.25 0.03,38.75 0.03,49.5"/><path d="M 16.26,80.76 c 1.15,0.36 2.73,0.3 4.12,-1.15 5.14,-5.37 14.42,-14.98 19.56,-20.34"/><path d="M 61.04,13.75 c 0.05,0.86 0.01,2 -0.35,3.19 -2.82,9.31 -8.32,21.43 -17.44,32.69"/><path d="M 56.79,34.67 c 1.71,0.45 3.1,0.37 4.6,0.21 3.73,-0.39 24.54,-3.16 28.14,-3.39 3.6,-0.23 6.47,0.59 5.78,5.44 -2.31,16.19 -5.56,36.45 -13.74,52.74 -2.08,4.14 -5.45,3.46 -8.51,-0.66"/><path d="M 55.154459,52.714213 c 0.85,0.3 1.88,0.58 2.98,0.55 2.25,-0.05 5.98,-0.55 8.02,-0.69 1.73,-0.11 1.98,-0.11 3.73,0.14"/><path d="M 53.51,75.01 c 1.02,0.44 2.79,0.46 3.97,-0.44 4.78,-3.66 14.47,-10.41 19.46,-13.8"/></svg>