<svg><path d="M14.5,46.89c1.88,0.36,3.61,0.18,5.14-0.05c5.75-0.86,12.37-2.55,18.11-3.84c1.23-0.28,2.5-0.25,3.12-0.25"/><path d="M28.87,23.75c1,1,1.21,2.12,1.21,3.75c0,7.25,0.03,31.25,0.03,42"/><path d="M14.24,79.65c0.82,0.77,2.11,0.7,3.89-0.6C24.21,74.61,34.92,66.94,41,62.5"/><path d="M63.68,15.25c1.29,1.29,1.51,2.5,1.51,4.35c0,4.12-0.06,5.9-0.06,9.65"/><path d="M43.46,32.51c3.04,0.37,4.84,0.36,7.81-0.04c8.5-1.15,22.05-3.44,31.75-4.09c2.06-0.14,4.08-0.32,6.05,0.41"/><path d="M54.2,46.38c0.83,0.83,1.04,1.86,1.05,3.61c0.25,26.76-4.5,36.76-19.36,45.26"/><path d="M56.25,48.38c5.92-1.31,10.02-2.27,15.24-3.21c3.18-0.57,4.73,0.29,4.5,3.58C75.5,56,75.55,78.82,75.55,83.4c0,8.23,2.58,10.35,8.87,10.35c8.58,0,9.55-1.43,9.83-8.19"/></svg>