<svg><path d="M12.25,44.89c0.76,0.38,2.24,0.42,3,0.36c6.5-0.5,18.65-2.39,24-3c1.25-0.14,2.62-0.18,3.25,0.01"/><path d="M27.37,19.75c1.09,0.5,1.74,2.25,1.96,3.25c0.22,1,0,43.25-0.22,49.5"/><path d="M13,82c2,0.5,3.75,0.25,5.12-0.68c7.45-5.02,14.51-10.59,21.63-16.08"/><path d="M51.56,23.66c0.5,1.11,1.01,1.67,1.01,3.16c0,1.49-0.17,44.84,0,46.33"/><path d="M52.92,24.85c2.86-0.19,26.08-2.38,28.68-2.6c2.17-0.19,3.56,2.06,3.39,3.16c-0.34,2.23-0.17,44.89-0.17,46"/><path d="M52.92,46.89c3.86,0,27.36-2.36,31.73-2.36"/><path d="M52.42,70.1c8.83-0.85,24.08-2.1,32.4-2.49"/><path d="M39.55,88.59c1.16,0.46,3.3,0.49,4.46,0.46c10.28-0.23,38.58-2.56,50.61-2.54c1.94,0,3.1,0.22,4.07,0.45"/></svg>