<svg><path d="M9.25,44.19c0.78,0.34,2.8,0.4,3.58,0.32c7.42-0.75,16.59-2.98,22.08-3.52c1.29-0.13,2.69-0.16,3.34,0.01"/><path d="M23.37,19c1.09,0.5,1.96,2.23,1.96,3.25c0,7.25,0.03,37.75,0.03,48.5"/><path d="M10,79.23c0.73,1.02,2.22,1.62,4.38,0.22C21.25,75,30.25,69.5,37.5,64.25"/><path d="M44.9,32.87c0.67,1.09,1.17,2.07,1.16,4.35C45.92,62.88,45.36,82,33.62,90.63"/><path d="M45.89,35.51c14.61-2.26,33.75-5.34,39.28-5.68c9.75-0.59,2.33,6.41-0.1,8.78"/><path d="M63.98,13.75c1.61,0.5,2.58,2.25,2.9,3.25c0.32,1-0.12,26.5-0.12,36.75"/><path d="M52,55.67c1.27,0.33,1.55,0.87,4.08,0.38c5.4-1.05,17.38-3.8,22.76-4.57c1.79-0.26,3.14,1.91,2.37,3.61c-8,17.58-17.95,30.9-35.94,40.54"/><path d="M52.81,62.62C56.71,63.4,75.8,84.4,89.4,93c2.12,1.34,3.66,2.23,5.63,2.68"/></svg>