<svg><path d="M11.5,43.64c0.76,0.38,2.24,0.46,3,0.36c4.82-0.66,16.65-3.39,22-4c1.25-0.14,2.62-0.18,3.25,0.01"/><path d="M25.29,15.5c1.17,0.54,2.11,2.4,2.11,3.5c0,7.8,0.03,41.19,0.03,52.75"/><path d="M12.5,77.79c0.75,0.96,2.25,1.46,4.5,0.21c6.25-3.5,16.5-9.25,22.75-12.75"/><path d="M56.78,14.46c0.18,1.88-0.05,4.35-0.65,5.97c-3.79,10.3-8.97,23.26-17.66,35.79"/><path d="M48.98,43.65c0.37,0.87,0.95,2.7,1,3.91c0.43,10.97-0.81,41-0.43,47.29"/><path d="M56.21,42.41c1.15,0.75,3.23,0.42,4.39,0.28c7.9-0.94,22.12-3.47,33.04-4.37c1.91-0.16,3.06-0.11,4.01,0.26"/><path d="M83.16,13.43c1.09,1.32,1.25,2.32,1.25,4.9c0,18.21-0.16,63.56-0.25,69.76C84,98.75,79.5,92,77.95,89.41"/><path d="M62.74,54.83c3.14,2.03,8.12,8.37,8.91,11.54"/></svg>