<svg><path d="M66.52,13.75c-0.15,0.62-0.75,1.57-1.33,1.97c-6.15,4.24-14.93,7.63-30.44,11.07"/><path d="M25.75,39.15c2.75,0.47,4.93,0.37,7.27,0.1c10.16-1.16,35.89-4.38,45.86-4.88c2.13-0.11,4.28-0.15,6.38,0.36"/><path d="M17.75,57.77c2.44,0.99,5.83,0.69,8.39,0.38c14.49-1.78,39.17-4.5,53.37-5.61c2.86-0.22,6.21-0.45,9,0.23"/><path d="M33.25,47.75c0.88,0.88,1.48,2.18,1.6,3.09C36.12,60.25,37.08,67.9,37.5,71"/><path d="M75.76,43.25c0.36,1.12,0.35,2.01,0.06,3.43C74.12,55,73.62,57.5,71.75,67"/><path d="M29.25,76.15c3,0.6,6.12,0.31,8.87-0.05c10.38-1.35,28.04-3.1,37.75-3.64c2.77-0.16,5.65-0.14,8.38,0.53"/><path d="M53.25,26.5c1.12,1.12,1.5,2.62,1.5,4c0,1.03,0,51.25,0,61.25"/><path d="M23.5,94.4c2.21,0.9,6.05,0.79,8.4,0.53c12.85-1.43,36.48-3.43,49.85-4.07c2.85-0.14,5.97-0.05,8.75,0.64"/></svg>