<svg><path d="M17.54,22.38c1.11,0.38,3.15,0.44,4.27,0.38c8.24-0.43,18.19-1.89,26.67-2.98c1.84-0.24,2.97-0.07,3.9,0.12"/><path d="M12.61,39.56c1.9,0.52,3.99,0.44,5.91,0.23c7.52-0.84,24.67-3.51,33.12-4.47c2.11-0.24,4.1-0.43,6.21-0.08"/><path d="M28.06,25.73c0.62,1.04,0.94,2.29,0.99,3.39C30,49.5,26.5,59.38,17.58,65.46"/><path d="M41.84,23.81c0.74,0.74,1.3,2.19,1.3,3.49c0,2.66-0.08,18.19-0.12,27.07c-0.01,2.2-0.01,4-0.01,5.08"/><path d="M66.4,20.05c0.91,0.81,1.62,2.2,1.62,4.44c0,4.77-0.01,14.36-0.02,20.63c0,1.63,0,3.07,0,4.2"/><path d="M86.56,13.58c0.93,0.93,1.62,2.29,1.62,3.87c0,9.05,0.02,34.57,0.02,37.65c0,8.77-4.08,2.34-6.44-0.35"/><path d="M33.13,70.42c2.37,0.46,4.68,0.29,6.87,0.06c10.41-1.06,21.21-2.06,30.25-2.64c2.18-0.14,4.24-0.31,6.38,0.2"/><path d="M52.67,53.62c0.98,0.98,2.02,2.77,2.02,4.64c0,11-0.11,25.75-0.11,30.11"/><path d="M17.38,90.48c3.33,1.19,7.09,1.13,10.5,0.83c14.22-1.27,39.81-2.83,56.25-3.19c3.27-0.07,6.53,0.01,9.75,0.7"/></svg>