<svg><path d="M11.75,39.64c1.21,0.61,4.04,0.72,5.36,0.52C23,39.27,32.75,37.5,38,36.5c1.24-0.24,2.62-0.18,3.25,0.01"/><path d="M27.37,16c1.13,1.13,1.21,2.38,1.21,4c0,7.25,0.03,37.75,0.03,48.5"/><path d="M11.5,76.29c0.75,0.96,2.25,1.46,4.5,0.21c6.25-3.5,19.5-10.75,25.75-14.25"/><path d="M47.13,21.25c1.97,0.98,5.31,0.57,7.38,0.34c8.7-0.97,23.04-3.12,31.74-3.71c2.16-0.15,4.64-0.1,6.73,0.52"/><path d="M52.28,36.3c1.02,1.02,1.41,2.21,1.41,3.33c0.42,4.3,0.71,21.16,1.13,29.37c0.13,2.53,0.22,4.24,0.26,4.51"/><path d="M54.89,38.17c3-0.14,24.35-2.74,27.09-2.91c2.28-0.14,3.82,1.18,3.63,3.55c-0.13,3.7-1.21,18.28-2.11,27.7c-0.21,2.19-0.42,4.36-0.63,5.79"/><path d="M55.2,53.62C59.88,53.25,79.58,51,83.44,51"/><path d="M56.07,70.78c8.18-0.78,18.3-1.91,26.34-2.32"/><path d="M37.5,90.75c2.45,1.03,5.84,1.15,8.37,0.82c14-1.82,32.1-3.24,44.12-3.73c2.59-0.11,5.22,0.26,7.75,0.91"/></svg>