<svg><path d="M11.5,47.39c2.07,0.42,4.16,0.49,6.26,0.22c5.85-0.86,14.46-2.79,18.62-3.59c1.61-0.31,3.23-0.48,4.87-0.51"/><path d="M27.37,16.5c1.19,1.19,1.21,2.5,1.21,3.75c0,1.02,0.03,48.5,0.03,55.25"/><path d="M13,83.75c1.12,0.87,2.35,0.84,4.2-0.29c6.92-4.22,14.17-8.84,21.3-13.72"/><path d="M81.99,13.64c-0.18,1.08-0.62,2.04-1.3,2.88c-5.18,4.6-11.47,8.4-25.06,14.1"/><path d="M51.64,30.75c0.99,0.99,1.13,2.36,1.09,3.33c-1.35,29.42-6.1,45.3-19.98,56.67"/><path d="M55.18,47.65c2.57,0.35,4.63-0.12,7.18-0.4c7.41-0.81,18.16-3.25,25.04-4.28c2.3-0.34,5.58-1.27,7.86-0.6"/><path d="M55.19,68.35c1.08,1.11,1.35,2.43,1.56,3.92c0.83,5.85,1.54,11.24,2.17,16.47c0.27,2.26,0.53,4.49,0.78,6.72"/><path d="M57.07,70.26c8.37-1.07,19.43-2.39,28.21-3.09c3.07-0.25,6.24,0.17,5.33,3.95c-1.99,8.25-2.43,10.53-4.49,19.38"/><path d="M60.62,93.5c5.35-0.48,14.63-1.1,22-1.59c2.28-0.15,4.37-0.29,6.11-0.41"/></svg>