<svg><path d="M11,43.21c0.74,0.33,2.21,0.41,2.95,0.32c4.74-0.58,17.84-2.53,23.1-3.06c1.23-0.13,2.58-0.16,3.2,0.01"/><path d="M25.34,17c1.12,0.51,2.01,2.29,2.01,3.34c0,7.46,0.03,39.85,0.03,50.91"/><path d="M12,77.33c0.75,0.92,2.25,1.41,4.5,0.2c6.25-3.38,17.5-9.4,23.75-12.78"/><path d="M43.25,19.7c0.93,0.36,2.63,0.42,3.56,0.36c12.75-0.96,26.47-3.83,42.01-4.27c1.55-0.04,2.47,0.17,3.25,0.35"/><path d="M64.21,20.65c0.46,0.55,0.13,2.79-0.22,3.44C59.92,31.56,54.62,36.87,49,44.07c-1.81,2.32-1.94,3.89,0.97,3.2c6.79-1.6,24.69-6.87,35.39-9.51"/><path d="M76.81,27.66c5.14,3.5,13.27,14.4,14.55,19.85"/><path d="M46.21,69.62C47.1,70,48.74,70.09,49.63,70c9.2-0.94,29.21-3.23,37.58-3.23c1.49,0,2.38,0.18,3.12,0.37"/><path d="M67.11,50.06c0.09,0.25,1.4,1.29,1.37,2.87c-0.15,9.02-0.07,34.27-0.07,36.84"/><path d="M38.88,91.33c1.18,0.46,3.34,0.54,4.52,0.46c14.36-1.04,29.05-2.27,51.61-2.39c1.96-0.01,3.14,0.22,4.12,0.45"/></svg>