<svg><path d="M11,43.14c0.76,0.38,2.24,0.45,3,0.36c6.5-0.75,15-1.75,22-3c1.24-0.22,2.62-0.18,3.25,0.01"/><path d="M25.37,17c1.09,0.5,1.96,2.23,1.96,3.25c0,7.25,0.03,38.75,0.03,49.5"/><path d="M11.5,76.79c0.75,0.96,2.25,1.46,4.5,0.21c6.25-3.5,17.5-9.75,23.75-13.25"/><path d="M65.84,10.38c0.57,0.36,1.76,2.72,1.87,3.44c0.11,0.73-0.07,21.21-0.19,25.75"/><path d="M67.7,25.53c2.05-0.19,19.37-3.24,20.49-3.24s2.63,0,3.54,0.19"/><path d="M45.61,41.94c1.1,0.31,3.12,0.38,4.21,0.31c9.56-0.66,25.39-2.84,41.83-3.81c1.83-0.11,2.93,0.14,3.85,0.3"/><path d="M42.75,57.71c0.72,0.23,3.65,0.5,4.89,0.39c16.16-1.48,31.57-2.76,44.32-3.95c1.48-0.14,3.56,0.3,5.04,0.89"/><path d="M66.47,59.25c0.93,1.07,1.06,2.8,1.06,4.8c0,10.53-0.29,21.7-0.29,34.95"/><path d="M70.08,66.17C77,69,85.75,74.75,90.5,80.62"/></svg>