<svg><path d="M12,42.64c1.64,0.83,4.45,0.65,6.15,0.35c5.4-0.96,13.94-2.72,18.85-3.74c1.24-0.26,2.62-0.43,3.25-0.24"/><path d="M26.12,19.25c1.13,1.13,1.46,2.5,1.46,4c0,7.25,0.03,32.75,0.03,43.5"/><path d="M11.25,74.54c0.75,0.96,2.25,1.21,4.5-0.04c6.25-3.5,18.75-9.75,25-13.25"/><path d="M46.04,19.75c0.98,0.98,1.38,1.99,1.64,3.36c1.33,7.14,2.98,16.97,3.85,26.14c0.14,1.5,0.27,2.96,0.38,4.37"/><path d="M48.01,21.04c12.06-1.97,27.44-3.6,37.26-4.68c4.67-0.51,7.48-0.36,6.86,4.89c-0.69,5.87-2.43,16.16-3.62,24.5c-0.25,1.8-0.5,3-0.71,4.55"/><path d="M51.05,35.24c3.58-0.58,31.95-3.37,38.44-3.56"/><path d="M52.97,50.89c9.53-0.89,20.15-2.14,34.07-2.92"/><path d="M68.08,21.38c1.15,1.15,1.6,2.62,1.6,4.36c0,12.9-0.05,57.85-0.05,62.51"/><path d="M49.97,70.42c2.78,0.58,4.9,0.29,7.17-0.05c8.7-1.31,20.46-3.11,29.24-3.58c1.99-0.11,4.41-0.04,6.34,0.51"/><path d="M39.13,90.98c3,1.25,6.38,0.71,9.51,0.45c12.35-1.03,28.35-3.27,41.99-3.59c2.96-0.07,5.62,0.01,8.5,0.74"/></svg>