<svg><path d="M10.5,43.14c0.76,0.38,2.24,0.46,3,0.36c4.82-0.66,18.15-2.89,23.5-3.5c1.25-0.14,2.62-0.18,3.25,0.01"/><path d="M24.87,16c1.09,0.5,1.96,2.23,1.96,3.25c0,7.25,0.03,39.75,0.03,50.5"/><path d="M12.5,76.69c0.71,1.06,2.13,1.62,4.26,0.23c5.92-3.88,16.57-10.79,22.49-14.67"/><path d="M41.46,27.09c0.93,0.43,2.01,0.47,2.94,0.43c10.15-0.45,29.5-3.52,47.29-3.64c1.55-0.01,2.48,0.21,3.25,0.42"/><path d="M54.36,15.08c0.98,1.29,1.29,1.68,1.39,2.47c0.98,7.41,1.87,14.44,2.15,17.14"/><path d="M79,12.91c0.25,1.09,0.57,1.9,0.3,3.23c-1.63,7.85-2.37,11.23-4.14,18.61"/><path d="M55.49,44.37c0,1.34-0.57,3.37-1.15,4.52c-3.73,7.44-11.13,16.77-16.05,21.69"/><path d="M50.01,62.64c0.64,1.13,1.01,2.73,1.03,3.89c0.14,8.64-0.48,24.74-0.1,28.97"/><path d="M90.31,51.04c0,1.22,0.04,2.58-1.13,3.56c-5.31,4.46-10.57,8.62-17.62,12.86"/><path d="M69.48,43.14c0.54,0.74,1.25,2.69,1.25,3.72c0,3.96-0.53,36.17,0.18,39.14c0.71,2.97,2.85,6.19,5.71,6.44c2.85,0.25,15.34,0.49,17.12-1.73c1.78-2.23,1.96-5.45,2.14-7.68"/></svg>