<svg><path d="M11.75,42.64c1.5,0.49,3.19,0.39,4.5,0.24c5.2-0.57,13.91-2.35,18.75-3.38c1.23-0.26,2.62-0.18,3.25,0.01"/><path d="M25.62,18.75c0.81,0.81,1.21,2.23,1.21,3.25c0,7.25,0.03,36.5,0.03,47.25"/><path d="M13.17,77.74c0.83,0.48,2.37,0.51,3.89-0.69C22.7,72.61,32.36,64.94,38,60.5"/><path d="M41.76,33.93c2.49,0.32,4.7,0.06,6.75-0.31c8.67-1.57,24.97-4.46,32.75-4.94c1.6-0.1,2.56,0.19,3.37,0.39"/><path d="M41.46,47.28c0.69,0.69,1.04,1.6,1.15,2.6c0.35,2.99,1.1,7.42,1.63,11.34c0.15,1.11,0.3,2.15,0.44,3.08"/><path d="M43.53,48.7c3.96-0.59,9.03-1.47,13.1-2.14c3.17-0.53,3.83,0.04,3.19,3.2c-0.51,2.5-1.04,4.97-1.95,9.36"/><path d="M45.46,62.07c2.71-0.33,6.51-1.2,10.31-1.99c1.07-0.22,2.63-0.41,3.68-0.56"/><path d="M39.75,78.76c1.12,0.74,2.04,0.78,3.82-0.32c4.96-3.06,13.15-8.51,18.11-11.57"/><path d="M61,13.75c1.45,1.68,1.69,2.9,2.11,6.51c3.27,28.11,10.52,56.24,28.42,69.3c5.44,3.97,4.89,1.47,4.17-5.97"/><path d="M83.35,43.62c0.07,0.98,0.01,2.32-0.38,3.7c-2.22,7.8-11.19,26.75-23.65,37.92"/><path d="M75.25,14.25c3.03,1.41,7.87,4.63,9.28,7.05"/></svg>