<svg><path d="M11.5,38.64c2.33,0.43,4.66,0.48,7,0.13c4.83-0.84,11.73-2.2,16.25-2.86c1.49-0.25,2.98-0.3,4.49-0.15"/><path d="M25.37,15.25c0.94,0.94,1.21,2.25,1.21,3.75c0,3,0.03,38.88,0.03,46.25"/><path d="M11.75,73.28c1.75,0.97,3.15,0.86,5.54-0.74c6.65-4.46,12.81-8.34,19.46-12.8"/><path d="M48.27,22.3c2.11,0.41,4.24,0.43,6.37,0.05c7.04-0.55,16.83-2.02,23.89-2.75c2.31-0.28,4.64-0.25,6.97,0.1"/><path d="M65.68,9.25c0.66,0.66,0.67,1.98,0.62,2.88c-0.92,14.62-7.42,26.38-16.8,31.12"/><path d="M67.75,26.5c6.68,2.92,14.88,8.12,18,12"/><path d="M39.63,49.92c3.77,0.82,7.55,0.82,11.36,0.01c10.64-1.65,27.33-3.7,37.39-4.67c3.53-0.3,7.03-0.12,10.5,0.53"/><path d="M49.45,61.83c0.86,0.86,1,1.8,1.2,2.79c0.59,2.92,1.18,6.31,1.86,10.15c0.31,1.75,0.64,3.58,0.99,5.51"/><path d="M51.35,63.13c6.03-1.1,12.63-2.7,16.65-3.29c2.42-0.36,3.61,1.22,3.1,3.4c-0.8,3.45-1.99,7.71-2.98,12.11"/><path d="M54.15,78.05c3.83-0.5,7.69-1.09,11.74-1.65c1.48-0.21,2.99-0.41,4.53-0.6"/><path d="M83.35,48.47c1.09,1.09,1.42,2.4,1.42,4.63c0,17.49-0.21,35.61-0.21,41.56c0,10.21-5.83,1.8-7.04,0.3"/></svg>