<svg><path d="M16.41,15.2c0.82,0.82,1,1.92,1,3.2c0,0.43,0.35,25.28,0.42,36.85c0.02,2.87,0.02,4.92,0.01,5.58"/><path d="M18.28,17.25c3.27-0.42,17.1-2.22,25.84-2.95c1.58-0.13,3.45-0.54,5.01-0.22"/><path d="M31.68,16.92c0.64,0.64,1,1.33,1,2.2c0,1.64-0.06,5.14-0.06,8.26"/><path d="M18.66,29.91c7.84-1.04,17.89-1.9,24.12-2.63c2.67-0.32,5.13-0.51,4.26,2.86c-0.65,2.51-1.42,4.86-2.54,8.52"/><path d="M18.85,41.53c3.77-0.15,15.2-1.3,22.65-2c2.36-0.22,4.19-0.14,5.01-0.21"/><path d="M32.38,41.58c0.58,0.58,0.75,1.54,0.75,2.45c0,3.35-0.01,5.6-0.01,9.85"/><path d="M19.3,56.32c3.29-0.42,17.34-1.84,26.09-2.5c1.55-0.12,3.35-0.51,4.88-0.19"/><path d="M55.35,19.33c2.09,0.51,4.67,0.1,6.8-0.35c4.68-1,13.33-3.07,17.28-4.04c2.98-0.73,4.63,0.56,3.29,3.99C76.37,35.23,68.12,44.75,56,52.51"/><path d="M55.46,26.94c3.21,0.6,16.91,13.06,28.17,22.34c2.38,1.96,4.87,3.46,7.51,4.59"/><path d="M29.35,72.35c2.9,0.52,5.17,0.47,7.52,0.24c11.17-1.1,25-2.21,36.76-3.04c2.08-0.15,4.12-0.21,6.16,0.27"/><path d="M53.52,58.87c0.74,0.74,1.23,2.01,1.23,3.55c0,5.83,0,19.35,0,26.96"/><path d="M18.38,91.66c3.87,0.71,7.38,0.6,10.61,0.36C44.85,90.84,65,89.62,82,89.18c3.34-0.09,7.09,0.13,10.38,0.83"/></svg>