<svg><path d="M14.25,45.39c0.76,0.38,2.24,0.46,3,0.36c4.82-0.66,18.15-3.39,23.5-4c1.25-0.14,2.62-0.18,3.25,0.01"/><path d="M28.37,19.25c1.09,0.5,1.74,2.25,1.96,3.25c0.22,1,0,43.25-0.22,49.5"/><path d="M15.5,78.54c0.75,0.96,2.25,1.46,4.5,0.21c6.25-3.5,12.75-6.75,19-10.25"/><path d="M62.12,13.5c0.19,1.69-0.05,3.91-0.65,5.36C57.64,28.1,52.78,35.93,44,47.18"/><path d="M55.19,36.65c0.63,0.88,1.11,2.8,1.15,4.16c0.37,12.12-0.51,46.63-0.2,52.94"/><path d="M78.69,16.5c0.07,0.92-0.02,2.12-0.24,2.9c-1.44,5-3.26,8.87-6.56,14.96"/><path d="M56.16,37.41c8.84-1.16,33.59-3.96,36.72-4.59"/><path d="M73.98,37.33c0.35,0.45,0.63,1.06,0.63,1.83c0,7.86,0.04,35-0.17,47.38"/><path d="M57.14,53.82c6.89-0.94,29.5-3.69,32.45-4.21"/><path d="M56.3,69.29c7.27-0.8,31.15-2.91,34.27-3.35"/><path d="M56.3,89.18c7.3-1.14,36.06-3.32,39.2-3.95"/></svg>