<svg><path d="M52.32,12.62c1.16,1.16,1.6,2.38,1.6,4.47c0,10.17-0.03,14.57-0.03,17.46"/><path d="M29.76,19.47c3.25,1.79,8.4,7.34,9.22,10.12"/><path d="M75.99,15.04c0.03,0.32,0.11,0.85-0.05,1.3c-1.31,3.54-3.68,6.91-8.81,11.19"/><path d="M18.62,35.75c-0.15,4.6-2.64,15.39-3.86,18.14"/><path d="M19.46,38.84c18.41-2.09,48.34-4.83,66.18-5.46c10.6-0.37,0.97,8.03-0.7,9.39"/><path d="M33.38,48.75c1,0.38,1.69,1.81,1.69,2.82c0.76,2.85,1.9,7.73,2.71,11.3c0.23,1.01,0.43,1.91,0.58,2.63"/><path d="M35.71,50.29c4.79-0.49,19.54-2.04,28.92-2.71c3.22-0.23,4.99,0.67,4.37,3.54c-0.57,2.65-1.22,5.31-2.31,10.07"/><path d="M39.47,64.29c6.73-0.78,17.99-1.46,25.53-1.89c1.33-0.07,2.52-0.13,3.54-0.17"/><path d="M33.96,78.72c1.29,0.32,3.67,0.23,4.96,0.07c8.33-1.04,22.08-2.54,29.36-2.9c2.15-0.11,3.45,0.15,4.52,0.31"/><path d="M52.86,66.12c0.83,0.83,1.22,2.01,1.22,3.32c0,7.06-0.05,19.64-0.05,22.92"/><path d="M21.09,94.58c1.88,0.45,5.33,0.58,7.21,0.45c19.95-1.4,38.2-2.78,52.66-2.85c3.13-0.02,5.01,0.21,6.58,0.44"/></svg>