<svg><path d="M11,43.14c0.76,0.38,2.24,0.46,3,0.36c4.82-0.66,16.15-2.39,21.5-3c1.25-0.14,2.62-0.18,3.25,0.01"/><path d="M24.87,16c1.09,0.5,1.96,2.23,1.96,3.25c0,7.25,0.03,39.75,0.03,50.5"/><path d="M11.5,77.7c0.73,1.05,2.19,1.61,4.38,0.23C21.96,74.08,32.92,66.1,39,62.25"/><path d="M42.76,17.87c1.11,0.36,3.14,0.46,4.25,0.36c7.07-0.62,34.22-4.51,41.06-4.1c1.84,0.11,2.96,0.17,3.88,0.35"/><path d="M43.5,31.85c0.31,0.39,0.62,0.71,0.76,1.2c1.06,3.86,2.84,18.51,3.57,25.44"/><path d="M44.91,33.76c8.59-1.01,41.75-4.03,45.63-4.58c1.42-0.2,2.77,2.01,2.57,3.19c-0.84,4.86-2.68,15.09-4.48,22.09"/><path d="M57.62,19.58c0.82,0.61,1.42,2.73,1.47,3.97C59.5,33.75,59.75,42.5,60.41,54"/><path d="M74.37,17.62c0.25,0.61,1.38,1.62,1.26,4.37c-0.21,4.92-1.03,21.67-1.56,30.84"/><path d="M47.63,55.94c4.55-0.62,35.88-3.31,41.67-3.93"/><path d="M47,74.78c1.02,0.38,2.88,0.48,3.89,0.38c8.18-0.79,26.38-2.81,35.8-3.2c1.69-0.07,2.71,0.18,3.55,0.37"/><path d="M66.3,59.25c0.12,0.34,1.77,2.34,1.77,4.5c0,5.5-0.36,18.18-0.36,27.51"/><path d="M39.25,93.42c1.3,0.45,3.7,0.56,5,0.45c16.14-1.27,36.01-2.7,50.44-3.3c2.17-0.09,3.48,0.22,4.56,0.44"/></svg>