<svg><path d="M18.87,19.62c1.03,0.14,2.2,0.52,3.41,0.32c7.22-1.19,13.58-3.14,16.14-3.74c3.07-0.72,4.06,1.61,3.02,3.52c-1.94,3.54-5.06,8.54-8.53,14.7"/><path d="M32.9,34.41C46.75,45,41.75,61,33.6,52.75"/><path d="M21.04,20.34c0.81,0.81,1.5,2.03,1.5,3.6c0,0.47,0.04,29.39,0.04,42.68c0,3.86,0,6.42-0.01,6.62"/><path d="M70.17,10.18c0.45,1.07,0.28,2.2-0.12,3.38c-3.37,9.87-8.81,22.6-20.52,32.07"/><path d="M48.05,24.94c2.26,0.76,5.03,0.56,7.34,0.35c9.62-0.84,22.43-3.04,32.11-3.5c2.33-0.11,4.7-0.21,7,0.25"/><path d="M62.05,36.27c0.96,0.96,1.18,2.23,1.18,3.24c0,0.45-0.07,15.82-0.07,24.98c0,3.16-0.01,5.4-0.02,5.73"/><path d="M63.91,37.21c4.11-0.74,13.53-2.23,18.49-2.75c3.04-0.32,4.63,0.33,4.61,3.66c-0.03,4.41,0.04,16.34,0.04,27.08c0,8.3-3.51,3.9-6.15,1.31"/><path d="M64.16,46.18c7.46-0.93,15.96-1.68,22.02-1.94"/><path d="M64.62,56.05c6.64-0.52,15.53-1.44,21.25-1.73"/><path d="M31.13,80.17c2.12,0.58,4.32,0.33,6.37,0.11c10.68-1.12,22.77-2.65,33.62-3.2c2.51-0.13,5.03-0.36,7.5,0.21"/><path d="M53.67,66.87c0.86,0.86,1.27,2.13,1.27,3.64c0,8-0.07,15.51-0.07,22.75"/><path d="M16.38,95.73c3.75,0.77,7.13,0.93,10.49,0.67c16.97-1.31,40.84-2.85,56.76-3.62c3.46-0.17,7.11,0.06,10.5,0.79"/></svg>