<svg><path d="M11.75,41.64c1.45,0.73,3.96,0.48,5.5,0.23c5.56-0.9,14.25-2.62,19.25-3.37c1.25-0.19,2.62-0.18,3.25,0.01"/><path d="M26.62,17.5c1.06,1.06,1.21,2.12,1.21,3.75c0,7.25,0.03,36.75,0.03,47.5"/><path d="M14,78.01c0.74,0.62,2.12,0.49,3.34-0.51C22.79,73,32,65.67,37.5,61.25"/><path d="M49.69,18.51c1.03,1.03,1.54,2.05,1.74,3.38c0.88,5.88,1.91,14.09,2.62,19.06c0.27,1.89,0.57,3.3,0.69,4.28"/><path d="M51.82,19.5c3.49-0.52,16.96-2.51,22.43-3.24c3.35-0.45,5.41,0.47,5.1,4.24c-0.28,3.52-1.16,10.42-2.1,18c-0.18,1.46-0.37,2.94-0.55,4.45"/><path d="M53.63,30.93c5.24-0.68,19.12-2.56,23.69-2.92"/><path d="M55.61,42.67c7.26-0.92,13.27-1.69,20.58-2.15"/><path d="M43.61,55.14c2.89,0.61,5.26,0.35,7.64,0.09c8.18-0.88,23.57-2.59,33-2.99c2.38-0.1,4.82-0.26,7.14,0.38"/><path d="M65.71,56c0.9,0.9,1.16,2,1.16,3.29c0,0.95-0.12,17.97-0.12,24.59"/><path d="M68.18,68.5c3.94-0.62,7.94-1.37,12.74-1.76c1.15-0.09,2.6-0.08,3.18,0.1"/><path d="M51.41,65.69c0.04,0.54,0.16,1.43-0.08,2.19C49.62,73.5,45.5,80.5,38.08,88.82"/><path d="M49.75,75.5c5.02,2.34,18.62,11.75,32.29,16.78c3.34,1.23,5.9,2.03,9.42,2.47"/></svg>