<svg><path d="M31.11,20.53c0.83,0.32,2.35,0.31,3.18,0.32c10.46,0.14,28.27-2.42,39.01-2.71c1.38-0.04,2.21,0.15,2.9,0.31"/><path d="M52.74,9.62c0.1,0.23,1.42,1.22,1.42,2.71c0,1.67-0.29,10.42-0.29,17.38"/><path d="M22.61,31.59c1.21,0.43,3.44,0.53,4.66,0.43c15.04-1.21,43.43-3.61,56.88-4.18c2.02-0.09,3.24,0.21,4.25,0.42"/><path d="M18.5,46.14c0.76,0.38,2.24,0.4,3,0.36c5-0.25,19.65-2.39,25-3c1.25-0.14,2.62-0.18,3.25,0.01"/><path d="M33.37,37c1.09,0.5,1.96,2.23,1.96,3.25c0,7.25,0.03,5.75,0.03,16.5"/><path d="M20,60.19c0.77,0.56,2.31,1.36,4.62,0.62c6.42-2.06,17.96-6.25,24.38-8.31"/><path d="M56.11,43.03c0.83,0.32,2.35,0.33,3.18,0.32c7.71-0.11,18.46-1.61,26.01-1.71c1.38-0.02,2.21,0.15,2.9,0.31"/><path d="M69.24,33.62c0.1,0.23,1.42,1.22,1.42,2.71c0,1.67-0.29,11.92-0.29,18.88"/><path d="M53.71,56.73c0.96,0.3,3.23,0.37,4.19,0.3C66.5,56.5,82,55,90.63,54.59c1.6-0.08,2.57,0.15,3.37,0.3"/><path d="M22,69.9c1.47,0.37,4.17,0.41,5.64,0.37C37.9,70,70.35,65.51,84.35,65.51c2.45,0,3.93,0.18,5.15,0.36"/><path d="M43.98,72c0.08,0.66,0.18,1.71-0.17,2.67c-2.05,5.62-12.85,19.02-29.9,25.5"/><path d="M59.99,69.87c0.74,1.19,1.38,2.59,1.38,4.43c0,2.45-0.03,6.14-0.03,11.7c0,9.75,3.42,11.53,16.67,11.53s15.39-2.28,15.39-10.12"/></svg>