<svg><path d="M12.5,43.89c0.76,0.38,2.24,0.46,3,0.36c3.49-0.48,18-2.75,23-4c1.22-0.31,2.62-0.18,3.25,0.01"/><path d="M25.37,18.25c1.09,0.5,1.96,2.23,1.96,3.25c0,7.25,0.03,38.75,0.03,49.5"/><path d="M12.75,77.2c0.73,0.93,2.19,1.43,4.38,0.2c6.08-3.41,17.04-9.49,23.12-12.9"/><path d="M45,18.75c0.24,0.34,0.49,0.63,0.6,1.06c0.84,3.41,2.85,12.81,3.43,18.94"/><path d="M46.51,20.56c6.74-0.81,40.81-3.88,43.66-4.33c1.04-0.16,2.45,0.65,2.17,2.57c-0.58,4-2.01,10.86-3.56,16.57"/><path d="M60.05,19.16c0.04,0.63,1.15,1.93,1.3,3.54c0.4,4.21,0.55,10.51,0.67,12.36"/><path d="M75.93,18.24c0.49,1.11,0.86,2.09,0.76,3.47c-0.31,4.4-1.82,10.41-2.07,12.15"/><path d="M49.79,36.89c3.34-0.51,34.78-3.65,39.37-4.43"/><path d="M47.24,48.54c0.86,0.24,2.44,0.27,3.3,0.24c8.63-0.35,27.62-3.11,39.71-3.24c1.43-0.02,2.29,0.11,3.01,0.23"/><path d="M68.26,48.34c0.07,0.31,0.9,1.61,0.97,3.57c0.31,9.4-0.2,34.02-0.2,37.23"/><path d="M70.56,67.85c0.39,0.12,1.1,0.18,1.49,0.12c1.57-0.24,10.47-1.37,17.89-1.4c0.65,0,1.03,0.06,1.36,0.12"/><path d="M46.27,61.75c0.1,0.24,1.43,1.26,1.53,2.8c0.49,7.38-0.06,18.95-0.06,25.2c0,2,0.5,2.87,2.5,2.87c4.52,0,27.75-3.12,43.07-3.66c1.85-0.07,3.47,0.48,4.43,0.96"/></svg>