<svg><path d="M20,20.18c2.52,2.23,5.04,8.22,5.25,11.81"/><path d="M49.24,17.87c0.6,0.5,0.32,2.33-0.22,3.1c-0.54,0.77-5.56,5.68-8.27,7.48"/><path d="M35.26,12.75c0.99,0.81,1.03,2.88,0.99,3.39c-1,14.36-4.5,21.36-12,28.36"/><path d="M36.47,32.14c4.29,1.75,9.7,7.29,10.83,9.77"/><path d="M55.25,17.18c3.42,2.9,6.15,7.57,6.5,10.81"/><path d="M86.25,13.87c0.59,0.53,0.31,2.46-0.22,3.27c-0.53,0.82-6.38,5.41-9.04,7.31"/><path d="M71.34,11.25c0.91,0.69,0.93,2.04,0.91,2.49C71.75,29,67.75,35.75,59.75,42"/><path d="M74.22,29.39c3.99,1.89,9.03,7.85,10.08,10.52"/><path d="M16.66,48.69c-0.13,3.93-3.1,14.22-4.16,16.56"/><path d="M16.72,51.12c3.61,0,51.43-4.87,69.57-4.87c12.34,0,3.9,5.89-0.71,9.72"/><path d="M28.63,71.08c1.08,0.33,3.07,0.49,4.13,0.33c4.36-0.65,35.26-3.32,45.35-3.32c1.8,0,2.87,0.16,3.77,0.32"/><path d="M52.42,54.12c1.08,0.88,1.77,2.21,1.77,3.69c0,9.7,0.06,32.78,0.06,35.2"/><path d="M18.38,94.86c1.52,0.43,4.31,0.48,5.82,0.43c9.3-0.29,33.53-3.03,62.61-3.15c2.53-0.01,4.05,0.2,5.31,0.42"/></svg>