<svg><path d="M13.5,43.64c1.33,0.67,3.7,0.53,5.13,0.25C23.63,42.93,31,41.25,35.75,40c1.22-0.32,2.37-0.43,3-0.24"/><path d="M27.12,19.75c1.13,1.13,1.21,2.25,1.21,4c0,7.25,0.03,33.75,0.03,44.5"/><path d="M14.75,77c1,1.12,2.62,1.12,4.06,0.02c5.76-4.42,15.8-12.21,21.44-16.77"/><path d="M61.61,12.25c0.08,1.09,0.01,1.73-0.54,2.7c-2.45,4.3-3.96,6.34-8.57,11.3"/><path d="M43.08,28.37c0.71,0.71,1.17,1.88,1.48,3.62c1.16,6.62,2.04,13.59,2.73,21.74c0.12,1.38,0.22,2.75,0.32,4.09"/><path d="M44.84,29.45c11.16-1.7,27.12-4.49,34.19-5.03c2.6-0.2,4.41,2.08,4.13,4.37c-0.56,4.64-1.39,11.27-3.2,20.94c-0.29,1.55-0.61,3.18-0.95,4.9"/><path d="M61.61,28.92c0.98,0.98,1.27,1.9,1.29,3.58c0.08,5.24-0.02,13.75,0.01,20.24"/><path d="M47.28,41.32c3.08-0.27,24.22-3.07,33.9-3.62"/><path d="M48.6,55.14c10.02-1.39,17.77-2.39,29.73-3.38"/><path d="M54.16,63.75c0.31,0.7,0.38,2.1-0.05,3.19C51,75,42.25,88.75,25,97.25"/><path d="M64.99,56.37c1.01,1.01,1.33,2.59,1.38,4.43c0.2,8.19-0.3,17.64-0.3,23.2c0,10.75,1.69,12.53,16.23,12.53c12.58,0,14-2.65,14-9.87"/><path d="M79.54,63.22c0.46,1.03,0.24,2.17-0.06,2.81c-2.35,4.97-4.05,8.21-6.85,12.08c-0.89,1.23-0.35,2.65,0.91,2.23c4.38-1.46,8.78-2.95,13.03-4.48"/><path d="M85,71c1.51,1.53,4.82,7.59,5.19,9.97"/></svg>