<svg><path d="M12.25,43.89c0.76,0.38,2.24,0.46,3,0.36c5.75-0.75,14.65-2.89,20-3.5c1.25-0.14,2.62-0.18,3.25,0.01"/><path d="M24.37,18.75c1.09,0.5,1.74,2.25,1.96,3.25c0.22,1,0,42.25-0.22,48.5"/><path d="M12,78.05c1.75,0.95,3.4,1.23,5.79-0.69c6.65-5.33,12.56-9.78,19.21-15.11"/><path d="M68.5,12.38c0.65,0.36,2.01,2.67,2.14,3.38c0.13,0.71-0.06,3.94-0.06,8.79"/><path d="M44.6,27.17c1.3,0.54,3.69,0.68,4.99,0.54c11.99-1.27,31.41-4.02,41.84-4.74c2.16-0.15,3.47,0.26,4.55,0.53"/><path d="M48.66,28.27c0.03,1.43-0.06,3.68-0.06,5.73c0,20.53-4.96,43.93-13.02,54.9"/><path d="M56.24,39.87c1.52,0.21,2.25,0.56,3.65,0.43c8.53-0.85,19.17-2.82,27.06-3.27c1.98-0.11,3.35,1.06,3.04,3.19c-0.8,5.56-1.5,12.03-2.94,19.87"/><path d="M51.35,51.67c1.37,0.21,2.45,0.66,3.96,0.43c10.19-1.59,30.38-4.42,40.88-5.05c1.68-0.1,3.8-0.02,4.57,0.2"/><path d="M55.14,63.28c1,0.2,2.82,0.69,4.02,0.58c11.06-0.97,17.04-3.1,27.1-3.49c1.61-0.06,2.61,0,3.82,0.19"/><path d="M69.62,30.61c0.93,0.46,1.49,2.08,1.68,3.01c0.19,0.92,0.43,22.9,0.24,28.68"/><path d="M55.42,73.7c0.52,0.39,1.05,0.73,1.28,1.22c1.8,3.92,3.24,15.29,4.47,22.33"/><path d="M56.92,75.33c8.68-1.24,28.03-3.84,32.26-4.29c1.55-0.17,2.48,0.99,2.25,1.96c-0.92,4.04-2.92,12.82-4.28,18.41"/><path d="M61.34,94.64c4.97-0.51,18.9-2.59,28.29-3.19"/></svg>