<svg><path d="M10.5,42.64c0.76,0.38,2.24,0.43,3,0.36c5.25-0.5,12.75-2.5,18-3.5c1.24-0.24,1.62-0.18,2.25,0.01"/><path d="M21.87,18c1.09,0.5,1.96,2.23,1.96,3.25c0,7.25,0.03,37.25,0.03,48"/><path d="M10.75,77.17c1.25,0.58,2.77,0.65,4.54-0.77C20.22,72.47,28.08,66.44,33,62.5"/><path d="M38.15,21.84c0.36,1.08,0.72,1.62,0.72,3.07s-0.12,54.15,0,55.59"/><path d="M38.84,23.52c1.49-0.18,10.58-2.3,11.93-2.53c1.48-0.25,2.64,0.75,2.64,2.57c0,2.17-0.35,54.13-0.35,55.21"/><path d="M38.92,47.93c3.53-0.56,11.88-1.95,14.28-1.95"/><path d="M39.21,77.52c4.61-0.77,8.54-1.02,13.56-1.45"/><path d="M60.88,28.95c0.55,0.21,1.57,0.26,2.12,0.21c6.41-0.58,17.59-2.29,25.14-2.44c0.92-0.02,1.48,0.1,1.94,0.21"/><path d="M73.48,11.37c0.07,0.26,0.96,1.37,0.96,3.05c0,12.05,0.3,26.82,0.3,29.55"/><path d="M59.75,44.49c0.7,0.31,1.97,0.37,2.67,0.31c6.15-0.56,22.3-2.68,31.66-3c1.16-0.04,1.86,0.15,2.43,0.3"/><path d="M58.53,61.59c0.76,0.35,2.14,0.38,2.92,0.35C71.55,61.6,86.48,58.51,96,58.56c1.27,0.01,2.03,0.17,2.66,0.34"/><path d="M83.45,48.58c0.49,0.67,1.32,2.06,1.38,4.56c0.26,12.03-0.21,34.43-0.21,38.52c0,9.83-6.47,1.97-7.88,0.71"/><path d="M65.38,68.75c2.83,2.07,6.45,7.52,7.15,10.75"/></svg>