<svg><path d="M14.75,43.39c0.76,0.38,2.24,0.44,3,0.36c6.75-0.75,14.65-2.39,20-3c1.25-0.14,2.62-0.18,3.25,0.01"/><path d="M26.87,16.75c1.09,0.5,1.74,2.25,1.96,3.25c0.22,1,0,43.25-0.22,49.5"/><path d="M13.5,75.94c0.74,1.06,2.23,1.63,4.45,0.23c6.18-3.9,13.61-8.52,19.8-12.42"/><path d="M43.07,24.68c0.92,0.51,2.61,0.59,3.53,0.51c11.4-0.94,33.07-3.78,41.14-3.98c1.54-0.04,2.46,0.24,3.23,0.5"/><path d="M64.11,11.75c0.37,0.29,1.28,2.17,1.24,2.75C65,20,64.5,26.25,63.09,36.05"/><path d="M48.84,35.64c0.4,0.65,1.27,1.5,1.27,2.64c0,9.22-0.01,33.45-0.01,34.02"/><path d="M50.47,37.5c2.93-0.14,25.85-3.44,28.52-3.61c2.22-0.14,3.78,0.74,3.79,3.8c0,4.97-0.02,19.57-0.67,33.03"/><path d="M50.33,47.53c10.67-0.81,24.84-2.99,31.92-3.27"/><path d="M50.28,58.06c7.75-0.48,22.65-2.37,32.22-2.68"/><path d="M50.8,68.99c11.54-1.17,21.93-2.14,31.47-2.73"/><path d="M39.09,79.58c1.12,0.35,3.18,0.43,4.3,0.35c6.97-0.48,35.63-3.25,48.33-3.24c1.87,0,2.99,0.17,3.93,0.34"/><path d="M57.04,83.72c0.04,0.34,0.09,0.87-0.09,1.35c-1.05,2.84-7.04,9.08-15.26,12.9"/><path d="M74.46,85.11c5.77,2.2,14.92,9.03,16.36,12.45"/></svg>