<svg><path d="M17.61,17.04c0.2,0.44,0.2,0.74,0.31,1.28c0.89,4.49,3.4,16.21,3.95,24.51"/><path d="M18.02,17.69c8.1-0.7,23.38-2.41,29.43-3.03c2.22-0.23,3.36,1.04,3.24,2.26c-0.42,4.45-2.9,16.08-4.25,23.17"/><path d="M20.92,28.71c2.64-0.3,25.82-2.31,28-2.37"/><path d="M21.78,40.64c5.83-0.18,16.61-2.33,24.66-2.69"/><path d="M33.5,18.7c1,0.55,1.08,1.33,1.1,3.3c0.15,11.68,0.03,37.41,0.03,40.7"/><path d="M16.95,51.75c0.93,0,3.46,0.38,4.41,0.3c5.52-0.47,15.73-2.44,22.51-2.99c1.02-0.08,3.45-0.16,4.41-0.2"/><path d="M15,65.32c1.16,1.55,1.25,2.18,4.37,1.55c1.97-0.39,21.71-5.82,29.98-8.17"/><path d="M56.75,13.89c1.02,0.83,2.4,1.74,3.56,1.53c2.29-0.42,21.85-2.28,24.27-2.69c2.41-0.42,2.74,1.26,1.3,2.62C83.4,17.69,77,23.5,72.98,26.4"/><path d="M64.42,21.67c2.51,1.01,9.01,4.92,10.19,7.57"/><path d="M53.57,33.82c0.77,0.5,2.25,1.44,5.42,0.9c3.17-0.54,27.79-4.1,30.31-4.48c8.2-1.24,1.95,5.01-2.52,9.66"/><path d="M72.41,35.1c0.84,0.9,1.67,2.06,1.67,3.4c0,1.34-0.62,23.25-0.62,25.7c0.01,7.44-4.46,3.05-6.55,0.83"/><path d="M28.63,79.95c1.08,0.3,3.07,0.34,4.15,0.3c8.4-0.25,35.42-3.48,45.56-3.48c1.8,0,2.89,0.14,3.79,0.3"/><path d="M52.42,63.62c0.12,0.23,1.81,1.21,1.77,2.69c-0.19,8.45,0.06,25.78,0.06,28.2"/><path d="M17.88,96.36c1.52,0.43,4.31,0.5,5.82,0.43c16.05-0.79,43.8-4.04,63.11-3.15c2.53,0.12,4.05,0.2,5.31,0.42"/></svg>