<svg><path d="M13.25,39.89c1.62,0.36,3.04,0.41,4.48,0.22c5.32-0.67,12.3-1.45,18.11-2.61c1.39-0.28,2.95-0.43,3.66-0.24"/><path d="M26.37,16.25c0.94,0.94,1.46,2.38,1.46,3.75c0,7.25,0.03,36,0.03,46.75"/><path d="M12.5,73.79c0.75,0.96,2.25,1.46,4.5,0.21c6.25-3.5,17.5-9.75,23.75-13.25"/><path d="M63.69,11.15c0.77,0.77,1.41,1.73,1.41,2.95c0,2.7-0.07,5.78-0.07,8.32"/><path d="M45.95,25.04c1.93,0.33,3.75,0.31,4.87,0.22c9.36-0.76,19.69-2.39,30.47-3.2c1.88-0.14,3.01-0.03,3.96,0.01"/><path d="M52.61,28.89c2.45,3.45,3.4,7.56,3.75,9.89"/><path d="M76.3,25.98c0.45,0.65,0.52,1.88,0.16,2.84c-1.59,4.18-2.84,7.05-4.59,10.03"/><path d="M40.35,42.88c2.77,0.49,5.02,0.35,7.54,0.01c11.6-1.52,27.9-3.41,38.73-4c2.49-0.13,5.29-0.4,7.65,0.58"/><path d="M47.63,50.38c0.8,0.8,1.24,1.62,1.44,2.88c0.32,2.04,1.35,8.77,2.01,13.22c0.34,2.3,0.59,3.99,0.59,4.1"/><path d="M49.67,51.41c3.87-0.72,23.04-3,29.2-3.65c3.19-0.33,4.8,0.44,4.39,3.86c-0.54,4.52-1.31,7.89-2.32,12.02c-0.36,1.46-0.74,3-1.16,4.73"/><path d="M51.12,59.7c6.51-0.82,23.63-2.7,30-3.2"/><path d="M52.57,68.71c7.18-0.59,17.31-1.84,26.51-2.64"/><path d="M57.47,74.4c0.28,0.73,0.21,1.7-0.1,2.45C55,82.5,48.12,91,37.45,97.67"/><path d="M68.52,69.72c0.94,0.94,1.43,2.41,1.43,3.95c0,3.83-0.22,8.7-0.22,13.44c0,7.64,1.39,9.63,11.94,9.63c11.95,0,12.76-1.24,12.76-7.87"/></svg>