<svg><path d="M11.5,44.64c0.76,0.38,2.24,0.46,3,0.36c4.82-0.66,15.15-1.89,20.5-2.5c1.25-0.14,2.62-0.18,3.25,0.01"/><path d="M23.37,18.5c1.09,0.5,1.96,2.23,1.96,3.25c0,7.25,0.03,38.75,0.03,49.5"/><path d="M12,78.76c0.7,0.99,2.59,1.02,4.68-0.29c5.81-3.62,15.76-9.6,21.57-13.22"/><path d="M64.09,10.58c0.91,0.92,1.62,1.99,1.62,5.02c0,5.9-0.02,8.19-0.02,13.15"/><path d="M65.66,20.17c4.91-0.93,10.9-2.01,15.45-2.68c1.54-0.23,2.48,0.2,3.25,0.42"/><path d="M45.18,30.18c0.54,0.58,1.05,2.74,1.1,4.82C46.75,57.25,46,77,32.5,93.75"/><path d="M45.81,31.68c0.97,0.16,1.23,0.41,2.8,0.17c11.2-1.73,31.46-4.88,41.05-5.02c10.11-0.15,2.14,5.72-0.38,7.53"/><path d="M52.63,43.69c0.65,0.37,2.24,0.45,2.9,0.37c6.72-0.81,20.1-2.57,27.13-3.47c1.08-0.14,1.73,0.18,2.28,0.36"/><path d="M65.47,33.68c0.43,0.45,1.01,2.22,1.01,2.84c0,4.98-0.08,7.14-0.08,9.37c0,6.61,3.85,6.61,10.07,6.61c2.31,0,11.37,0,13.36-0.89"/><path d="M51.86,65.99c0.61,0.4,1.03,1.87,1.08,3.2c0.09,2.4-0.17,6.24-0.56,11.05c-0.08,0.94,0.5,1.58,1.78,1.2c4.09-1.2,8.76-1.6,10.44-1.7"/><path d="M63.14,58.33c0.76,0.86,1.29,1.87,1.35,4.73c0.31,13.72-0.2,26.23-0.2,30.9"/><path d="M88.68,63.33c0.61,0.4,1.08,1.87,1.08,3.2c0,3.67-1.44,10-1.44,14.93"/><path d="M 76.546186,78.772595 c 2.460509,-0.155264 8.539916,-0.613125 10.917628,-0.670858"/><path d="M74.6,58.58c0.75,0.85,1.27,1.85,1.33,4.66c0.31,13.52-0.19,25.37-0.19,29.97"/><path d="M42.38,96.32c1.08,0.42,3.07,0.62,4.14,0.42c4.37-0.81,39.17-2.95,49.44-2.95c1.8,0,2.88,0.2,3.78,0.41"/></svg>