<svg><path d="M18.5,16.5c0.74-0.12,3.04,0.36,3.75,0.25c4.67-0.7,11.5-1.7,13.78-2.48c2.64-0.9,5.27,0.9,4.1,3.01c-1.17,2.11-5.57,12.26-7.62,15.27"/><path d="M32.01,33.05c11.49,10.2,6.74,33.45-1.54,25.68"/><path d="M22.96,18.21c0.19,0.9,0,48.9-0.19,54.54"/><path d="M47.22,19.89c1.46,0.27,2.92,0.55,4.23,0.41c11.5-1.15,22.3-2.6,36.61-3.83c2.01-0.17,3.06-0.18,4.71,0.35"/><path d="M64.49,10c0.12,0.6,0.28,1.72-0.02,2.36C59,24,54.25,31.75,45.26,39.61"/><path d="M59.7,26.08c0.51,0.22,2.93,0.26,3.46,0.23c3.85-0.27,15.09-1.14,20.79-1.83c0.78-0.09,2.64,0.04,3.29,0.23"/><path d="M70.64,25.97c0.95,0.61,1.29,0.95,1.29,1.44c0,2.32,0.03,4.83,0.03,7.26"/><path d="M54.01,36.07c0.62,0.15,2.49,0.26,3.54,0.24c8.94-0.12,20.62-2.42,31.25-2.32c1.69,0.02,3.04,0.26,3.88,0.49"/><path d="M58.96,42.34c0.48,0.56,0.8,1.11,0.97,1.65c0.16,0.54,0.23,24.6,0.16,25.8"/><path d="M60.89,43.5c1.93-0.05,19.67-1.93,21.11-2.01c2.58-0.15,3.54,1.9,3.22,2.69c-0.31,0.76-0.48,10.85-0.48,21.68c0,8.15-2.9,3.94-5.06,1.79"/><path d="M60.89,51.54c6.61-0.51,17.4-1.64,23.2-1.78"/><path d="M60.12,59.36c5.16-0.17,17.1-1.14,24.5-1.7"/><path d="M30.16,82.39c0.89,0.2,2.53,0.22,3.42,0.2c13.08-0.32,31.48-2.6,43.02-2.78c1.49-0.02,2.38,0.09,3.12,0.19"/><path d="M53.11,69.8c0.1,0.24,1.47,1.27,1.47,2.82c0,6.88-0.3,19.13-0.3,22.38"/><path d="M18.81,96.6c1.36,0.37,3.87,0.46,5.23,0.37c16.89-1.05,48.78-2.62,63.88-3.11c2.27-0.07,3.64,0.18,4.77,0.37"/></svg>