<svg><path d="M27.61,14.13c0.41,0.41,0.92,1.58,1.15,2.09c1.53,3.46,2.64,10.9,3.62,17.8c0.21,1.48,0.42,2.93,0.62,4.31"/><path d="M29.87,15.79c13.42-1.47,34.16-3.02,45.52-3.76c4.17-0.27,6.52,0.51,5.48,5.15c-0.85,3.8-2.39,9.71-4.18,14.89c-0.54,1.58-1.09,3.07-1.61,4.39"/><path d="M32.32,26.76c10.31-1.13,35.06-3.26,45.56-3.63"/><path d="M33.97,36.76c10.78-0.88,27.81-2.52,40.87-3.19"/><path d="M52.77,16.19c0.89,0.89,1.35,2.19,1.35,3.48c0,9.08-0.11,31.68-0.11,34.72"/><path d="M34.88,45.31c2.08,0.62,4.24,0.49,6.37,0.37c7.32-0.41,17.01-1.64,25.88-2.21c2.12-0.14,4.21-0.34,6.31,0.04"/><path d="M26.13,56.71c2.71,0.86,5.74,0.41,8.49,0.24c12.57-0.81,26.02-2.27,43-2.43c2.43-0.02,4.85,0.2,7.25,0.66"/><path d="M23.06,65.49c-1.14,4.87-6.59,10.54-8.06,11.76"/><path d="M38.02,63.69c2.14,1.4,4.35,4.68,5.2,7.68"/><path d="M61.25,61.4c2.65,1.49,5,5.1,6,7.93"/><path d="M83.46,61.32c4,2.13,9.85,8.78,10.85,12.11"/><path d="M33.19,81.83c1.93,0.75,4.81,0.43,6.8,0.24c9.46-0.9,21.3-1.96,30.88-2.39c2.34-0.11,4.73-0.36,7.03,0.19"/><path d="M53.14,68.77c0.79,0.79,1.07,2.23,1.07,3.75c0,10.62-0.07,7.66-0.07,21.7"/><path d="M20.24,96.64c2.77,0.99,6.13,0.93,9.01,0.66c15.72-1.49,37.08-2.69,51.25-3.34c3.26-0.15,6.36,0.08,9.52,0.75"/></svg>