<svg><path d="M40.65,11.25c-0.15,1.12-1.06,1.8-1.7,2.25c-5.89,4.04-11.41,6.29-25.42,11.03"/><path d="M15.56,26.67c2.14,1.47,5.53,6.05,6.07,8.33"/><path d="M27.82,22.46c1.76,1.11,4.54,4.56,4.98,6.29"/><path d="M46.28,22.42c0.16,1.07-0.48,2.4-1.16,3.08c-6.37,6.39-15.21,13.15-27.88,18.78"/><path d="M33.81,35.25c7.44,5.5,12.9,19.57,6.98,32.1c-3.45,7.3-6.88,1.17-7.77,0.54"/><path d="M35.71,42.58c0.13,0.76-0.02,1.44-0.46,2.04c-1.86,2.99-8.12,7.86-17.58,12.48"/><path d="M38.68,51.58c-0.05,0.92-0.32,1.46-1.06,2.27c-3.27,3.58-10.25,8.74-20.51,13.06"/><path d="M55.67,16.18c1.08,0.57,2.65,0.83,4.61,0.62c4.37-0.47,11.82-1.4,15.98-1.87c2.85-0.33,5.02-0.68,4.76,2.84c-0.28,3.75-0.64,10.81-1.36,15.26c-0.28,1.75-0.54,3.14-0.73,3.8"/><path d="M59,26.97c4.4-0.43,16.32-1.89,20.54-2.24"/><path d="M59.12,37.27c6.03-0.69,12.65-1.44,19.21-2.1"/><path d="M56.78,17.03c0.79,0.79,1.04,1.97,1.04,3.31c0,0.89-0.05,40.55-0.05,42.72c0,2.56,0.75,2.89,3.01,1.2c3.35-2.51,7.14-5.67,9.13-7.62"/><path d="M86.3,37.93c-0.05,1.07-0.53,2.14-1.3,2.94c-2.5,2.62-5.89,4.5-7.92,6.05"/><path d="M63.8,38.93c2.75,1.19,13.69,12.63,20.52,18.5c2.58,2.22,5.18,4.19,8.47,5.93"/><path d="M32.52,78.79c2.48,0.58,5.21,0.42,7.23,0.23c8.81-0.85,18.74-1.53,27.63-1.89c2.41-0.1,4.9-0.39,7.26,0.21"/><path d="M52.69,69.34c0.8,0.8,1.3,1.95,1.3,3.72c0,3.44-0.07,13.44-0.07,18.54"/><path d="M18.44,93.53c3.81,0.85,6.76,0.85,9.68,0.6c17.12-1.5,35.5-2.13,50.14-2.26c3.83-0.03,7.13,0.1,10.8,0.96"/></svg>