<svg><path d="M10,45.14c0.76,0.38,2.24,0.46,3,0.36c4.82-0.66,18.15-2.89,23.5-3.5c1.25-0.14,2.62-0.18,3.25,0.01"/><path d="M23.37,18.5c1.09,0.5,1.96,2.23,1.96,3.25c0,7.25,0.03,38.75,0.03,49.5"/><path d="M10,78.29c0.75,0.96,2.25,1.46,4.5,0.21C20.75,75,32,68.75,38.25,65.25"/><path d="M62.59,10.89c0.02,0.36,0.05,0.93-0.05,1.45c-0.58,3.06-3.9,9.76-8.44,13.87"/><path d="M45.61,26.62c0.42,0.8,0.71,2.08,0.57,3.52c-0.14,1.44,0.14,34.36,0.14,36.75"/><path d="M46.68,27.72c7.82-0.97,34.8-3.97,35.86-4.2c2.26-0.48,3.92,1.67,3.67,2.42c-0.42,1.28-0.84,35.8-0.84,39.48"/><path d="M73.36,27.24c0.06,0.21,0.08,0.51-0.11,0.85c-1.55,2.77-10.55,6.47-19.9,7.62"/><path d="M54.5,38.26c1.18,1,2.97,3.81,3.26,5.37"/><path d="M77.54,34.43c0.02,0.23,0.1,0.62-0.04,0.94c-1.15,2.54-3,5.52-6.79,9.01"/><path d="M51.4,46.55c0.34,0.13,1.24,0.33,2.14,0.38c2.48,0.13,19.92-2.1,24.7-2.53c0.9-0.08,1.13-0.13,1.69,0"/><path d="M65.11,34.56c0.56,0.25,0.9,1.14,1.01,1.64c0.11,0.51,0,19.41-0.11,22.57"/><path d="M65.45,46.49c-2.34,4.25-8.04,10.22-13.31,12.67"/><path d="M68.29,48.16c3.82,1.93,8.36,5.19,10.24,8.5"/><path d="M37.12,74.12c1.02,0.33,3.73,0.71,5.89,0.57c14.6-0.98,33.78-2.93,46.89-3.4c2.26-0.08,4.07-0.04,6.1,0.21"/><path d="M65.04,63.79c0.43,0.46,0.85,2.44,0.65,3.42C62.25,84,52.25,93,37.94,99"/><path d="M64.78,73.03c6.14,5.52,20.48,19.59,26.61,23.29c2.09,1.26,2.81,1.44,3.76,1.56"/></svg>