<svg><path d="M52.91,8.75c0.6,0.38,1.6,1.84,1.6,2.59c0,2.77-0.19,5.84-0.08,8.18"/><path d="M17.72,23.41c1.89,0.21,3.56,0.43,5.72,0.29c12.93-0.87,48.26-4.34,63.33-4.76c2.22-0.06,3.35,0.02,5,0.37"/><path d="M29.97,28.66c0.33,0.65,0.15,0.99-0.16,1.86c-0.8,2.23-3.3,5.98-6,8.89c-0.48,0.52-0.38,1.15,0.27,1.27c3.44,0.66,5.92,1.32,9.05,3.22"/><path d="M42.98,31.84c0.33,0.33,0.11,1.54-0.27,1.93c-4.74,4.75-13.8,15.85-21.66,21.2c-1.06,0.72-0.67,1.59,0.66,1.42c7.12-0.94,12.55-2.13,19.74-3.35"/><path d="M43.31,45.92c0.06,0.68,0.09,1.91-0.13,2.72C40.5,58.5,35.75,69,19.75,74.7"/><path d="M61.86,25.58c0.11,0.88-0.03,2.02-0.4,2.78c-2.35,4.79-5.33,8.84-10.72,14.67"/><path d="M57.48,36.19c0.52,0.49,0.92,1.56,0.95,2.32c0.31,6.76-0.42,24.72-0.17,28.24"/><path d="M75.96,24.83c0.04,0.49-0.01,1.13-0.12,1.55c-0.74,2.67-1.68,4.73-3.37,7.97"/><path d="M58.28,36.01c6.72-0.48,28.46-1.85,31.04-2.2"/><path d="M73.37,35.45c0.29,0.25,0.52,0.59,0.52,1.02c0,4.39,0.03,20.08-0.14,26.99"/><path d="M59.09,44.65c7.91-0.29,24.44-1.42,26.88-1.71"/><path d="M58.4,53.56c5.99-0.44,25.63-1.35,28.19-1.59"/><path d="M58.4,64.29c7.27,0,31.03-1.71,33.61-2.06"/><path d="M28.71,82.36c0.94,0.35,2.67,0.44,3.61,0.35c12.1-1.19,33.21-3.72,45.39-4.03c1.57-0.04,2.51,0.17,3.3,0.34"/><path d="M52.61,68c0.12,0.3,1.81,1.56,1.81,3.46c0,6.54-0.37,18.79-0.37,23.32"/><path d="M18.01,96.89c2.13,0.49,6.04,0.58,8.17,0.49C46,96.5,66,94.25,83.5,93.17c3.54-0.22,5.69,0.23,7.46,0.48"/></svg>