<svg><path d="M11.75,43.64c1.38,0.7,4.53,0.49,6.01,0.25C23.28,43.01,28.12,42,34,40.75c1.23-0.26,2.62-0.43,3.25-0.24"/><path d="M25.87,21c0.88,0.88,1.21,2.12,1.21,3.5c0,7.25,0.03,29.75,0.03,40.5"/><path d="M12,74.86c1.12,0.77,2.88,0.77,4.24-0.25c5.35-3.99,14.31-11.42,19.51-15.6"/><path d="M63.39,13.25c1.05,1.05,1.35,2.12,1.35,3.59c0,1.16-0.09,3.78-0.09,4.93"/><path d="M40.37,25.1c2.57,0.51,5.3,0.41,7.89,0.07c9.42-1.21,25.76-3.67,35.24-4.4c2.04-0.16,4.12-0.14,6.38,0.25"/><path d="M54.52,27.64c0.04,0.25,0.07,0.64-0.07,1c-0.79,1.94-5.03,6.02-10.95,8.86"/><path d="M74.77,27.33c4.34,1.35,10.96,5.29,12.04,7.38"/><path d="M47.25,43.02c1.63,0.66,4.52,0.48,6.27,0.27c6.75-0.85,16.44-2.5,24.35-3.53c1.19-0.16,2.44-0.4,3.63-0.11"/><path d="M55.87,38c1,1,1.21,2.62,1.21,4c0,1.02,0.42,10.75,0.78,20.25"/><path d="M72.62,34c0.88,1,1.17,2.48,0.96,4c-1.33,9.5-1.83,14.25-2.83,22.75"/><path d="M47.25,53.27c1.89,0.77,4.32,0.55,6.27,0.34c6.54-0.71,17.29-2.41,23.85-3.11c1.36-0.15,2.79-0.43,4.12-0.1"/><path d="M39,64.64c2.1,0.85,4.96,0.32,7.11,0.12c9.55-0.89,30.31-3.79,39.26-4.48c2.34-0.18,4.82-0.34,7.12,0.22"/><path d="M58.28,65.64c0.06,0.55,0.11,1.52-0.37,2.2c-4.03,5.66-9.2,11.24-20.9,18.77"/><path d="M53.59,77.45c0.67,0.75,0.66,1.32,0.66,2.3c-0.01,7.15-0.12,11.62-0.12,12.88c0,1.31,0.88,1.61,1.94,0.68c4.19-3.68,9.5-9.04,10.82-10.02"/><path d="M79.64,63.94c0.07,0.74,0.04,1.52-0.39,2.13c-2.13,3.06-2.79,3.55-6.98,7.5"/><path d="M61.12,69.25C63.88,70,77.89,80.58,86.15,86.09c2.66,1.78,4.85,2.66,7.91,3.58"/></svg>