<svg><path d="M13,42.64c0.76,0.38,2.24,0.43,3,0.36c5.75-0.5,11.75-1.75,17.5-3c1.23-0.27,2.62-0.18,3.25,0.01"/><path d="M23.87,15.5c1.09,0.5,1.96,2.23,1.96,3.25c0,7.25,0.03,39.75,0.03,50.5"/><path d="M12.5,74.61c0.64,0.78,1.91,1.19,3.82,0.17C21.63,71.93,31.19,66.85,36.5,64"/><path d="M61.63,8.46c0.82,0.44,2.18,2.01,2.18,3.05c0,1.71-0.11,6.65-0.11,8.52"/><path d="M38.75,21.98c1.04,0.08,3.42,0.48,4.43,0.4c11.29-0.85,31.53-3.32,42.65-3.54c1.72-0.03,2.59,0.03,3.87,0.51"/><path d="M43.5,30.15c0.23,0.25,0.46,0.45,0.56,0.76c0.78,2.45,1.72,8.69,2.26,13.09"/><path d="M44.91,31.31c4.98-0.96,37.02-4,39.67-4.32c0.97-0.12,2.28,0.83,2.02,2.2c-0.54,2.87-1.87,7.8-3.31,11.89"/><path d="M58.46,29.44c0.15,1.63,0.72,9.58,0.87,11.41"/><path d="M71.79,28.42c-0.15,2.65-0.41,9.58-0.72,11.21"/><path d="M47.03,42.17c3.11-0.36,32.34-2.62,36.61-3.18"/><path d="M62.59,45.33c0.65,0.6,1.16,1.31,1.16,3.32c0,2.85-0.01,8.57-0.01,11.85"/><path d="M41.75,51.68c0.29,0.12,0.82,0.07,1.11,0.12c2.89,0.46,11.48-0.83,13.26-0.69c0.48,0.04,0.77,0.06,1.01,0.11"/><path d="M42.5,60.68c0.32,0.12,0.9,0.07,1.22,0.12c3.18,0.46,9.58-1.33,11.54-1.19c0.53,0.04,0.85,0.06,1.11,0.12"/><path d="M70.75,49.43c0.29,0.12,0.82,0.07,1.11,0.12c2.89,0.46,12.97-1.33,14.76-1.19c0.48,0.04,0.77,0.06,1.01,0.11"/><path d="M71.5,58.2c0.32,0.13,0.91,0.08,1.23,0.13c3.22,0.51,12.28-1.42,14.27-1.27c0.53,0.04,0.86,0.06,1.12,0.13"/><path d="M61.85,62.86c0.08,0.53,0.31,1.42-0.16,2.14c-2.99,4.64-12.7,13.12-27.65,20.45"/><path d="M50.85,78.63c0.35,0.39,0.73,0.78,0.73,1.46c-0.02,8.65-0.24,14.54-0.24,16.01c0,1.46,0.86,2.29,1.96,1.2c1.1-1.1,10.5-8.66,11.96-9.76"/><path d="M82.62,63.97c0.02,0.25,0.25,1.21,0.11,1.55c-0.9,2.08-3.7,5.04-8.27,9.17"/><path d="M62.4,68.12c1.44,0.75,3.75,2.86,4.14,3.17c5.89,4.71,20.2,16.72,24.18,19.49c1.5,1.04,2.78,1.49,4.28,1.79"/></svg>