<svg><path d="M20.84,16.61c1.36,0.39,3.85,0.45,5.21,0.39c14.15-0.65,40.53-3.46,54.24-3.97c2.26-0.08,3.62,0.19,4.76,0.38"/><path d="M24.12,17.17c0.42,1.13,0.42,1.43,0.35,3.28c-0.56,14.81-2.02,38.36-10.92,50.96"/><path d="M30.76,22.65c0.28,0.31,0.48,0.82,0.56,1.23c0.27,1.41,2.3,12.25,2.3,12.47"/><path d="M31.78,23.47c1.57-0.05,18.43-2.24,19.86-2.3c1.19-0.05,1.96,1.58,1.87,1.89c-0.19,0.63-1.11,11.25-1.11,11.56"/><path d="M32.47,29.24c2.13,0,17.71-2.09,20.11-2.09"/><path d="M34.26,35.18c5.1-0.17,12.38-1.56,17.3-1.65"/><path d="M32.46,41.74c0.35,0.41,0.71,1.16,0.71,1.57c0,2.88,0.12,22.82,0.12,26.01"/><path d="M33.87,42.15c1.41-0.1,14.52-1.33,15.57-1.44c1.88-0.21,2.59,1.34,2.35,1.96c-0.23,0.59-0.35,13.41-0.35,21.75c0,7.05-3.42,2.47-5.27,0.93"/><path d="M33.87,49.96c4.43-0.21,12.87-1.03,17.1-1.34"/><path d="M33.54,57.03c3.77-0.31,12.84-0.75,17.2-0.96"/><path d="M57.18,37.41c0.4,0.16,1.76,0.35,2.53,0.26c4.03-0.48,18-2.42,22.86-2.75c0.55-0.04,1.34,0.06,2.58,0.33"/><path d="M67.48,20.22c0.35,0.65,0.57,1.3,0.61,2.6c0.62,17-1.93,36.01-12.32,43.55"/><path d="M69.04,38.75c4.45,6.94,13.1,18.68,18.78,23.63c1.49,1.3,2.04,1.47,2.72,1.59"/><path d="M76.94,20.68c3.75,2.67,4.78,4.71,5.94,7.22"/><path d="M30.75,81.47c0.91,0.25,2.59,0.31,3.51,0.25c11.76-0.85,32.27-2.63,44.11-2.85c1.52-0.03,2.44,0.12,3.2,0.24"/><path d="M54.49,71c0.11,0.26,1.58,1.36,1.58,3.02c0,3.48-0.32,15.98-0.32,19.98"/><path d="M19.98,95.62c1.36,0.3,3.86,0.37,5.22,0.3c16.87-0.85,48.72-2.53,63.81-2.93c2.27-0.06,3.63,0.14,4.77,0.3"/></svg>