<svg><path d="M33.44,9.88c0.36,0.23,1.13,1.74,1.2,2.21c0.07,0.47-0.05,9.38-0.12,12.29"/><path d="M35.97,17.04c2.04-0.19,11.31-2.22,12.42-2.22c1.11,0,2.61,0,3.52,0.19"/><path d="M17.48,25.6c0,2.61-1.85,9.81-2.69,11.55"/><path d="M18.07,27.3c5.44-0.63,29.5-3.39,33.91-3.63c6.9-0.37,1.46,4.57-0.26,5.92"/><path d="M23.75,33.12c0.38,0.22,1.09,0.2,1.48,0.22c3.02,0.16,15.3-2.54,17.68-2.28c0.64,0.07,1.03,0.11,1.35,0.22"/><path d="M24.75,38.84c0.02,0.21,0.04,0.54-0.04,0.84c-0.51,1.77-3.43,5.66-7.43,8.04"/><path d="M41.55,37.04c3.73,1.46,8.28,4.24,9.55,5.74"/><path d="M34.24,39.52c0.05,0.46,0.27,1.27-0.1,1.86C31,46.25,24.5,53.75,15.96,59.14"/><path d="M34.35,42.5c4.54,3.26,13,7.92,17.16,9.65c1.03,0.43,2.23,0.71,3.2,0.85"/><path d="M24.84,58.03c0.23,0.2,0.46,0.37,0.55,0.63c0.78,2.01,1.71,9.07,2.25,12.68"/><path d="M25.9,58.87c6.15-0.93,13.64-2.39,17.4-2.8c1.28-0.14,2.07,0.92,1.88,1.52c-0.94,2.88-1.63,5.96-2.5,9.49"/><path d="M28.25,68.82c4.95-0.28,10.17-1.3,15.86-1.73"/><path d="M61.53,21.75c1.22,0.27,1.34,0.41,3.8,0.27c4.67-0.27,15.91-2.41,17.58-2.82c1.67-0.4,2.89,1.48,2.28,2.97c-7.14,17.54-13.69,27.58-28.44,37.5"/><path d="M61.75,28.63C64.88,29.44,80.13,51.22,91,60.15c1.69,1.39,2.93,2.32,4.5,2.78"/><path d="M30.69,80c1.19,0.34,3.39,0.44,4.58,0.34c15.37-1.17,28.66-2.65,44.12-2.95c1.99-0.04,3.19,0.16,4.19,0.34"/><path d="M53.95,65.25c0.11,0.26,1.6,1.37,1.6,3.05c0,6.2,0.17,21.95,0.17,27.2"/><path d="M20.04,96.42c1.57,0.49,4.45,0.54,6.02,0.49C45,96.25,70.8,94.83,88.2,94.19c2.62-0.1,4.19,0.23,5.5,0.48"/></svg>