<svg><path d="M11.5,43.14c0.76,0.38,2.24,0.46,3,0.36c4.82-0.66,16.15-2.39,21.5-3c1.25-0.14,2.62-0.18,3.25,0.01"/><path d="M24.37,14.5c1.09,0.5,1.96,2.23,1.96,3.25c0,7.25,0.03,43.75,0.03,54.5"/><path d="M13,77.83c0.69,0.92,2.07,1.41,4.14,0.2c5.75-3.38,15.61-10.4,21.36-13.78"/><path d="M67.57,9.38c0.52,0.32,1.63,2.43,1.73,3.07c0.1,0.65,0.05,5.08-0.05,9.12"/><path d="M42.55,23.34c1.31,0.46,3.72,0.54,5.03,0.46c13.65-0.78,30.23-3.3,43.46-3.9c2.18-0.1,3.5,0.22,4.59,0.45"/><path d="M46.26,24.27c0.24,1.48,0.47,4.15,0.41,6.46C46.25,46.25,48,75.5,31.81,92.11"/><path d="M50.27,35.02c0.98,0.29,2.79,0.34,3.77,0.29c12.02-0.64,25.98-3.11,36.87-3.73c1.63-0.09,2.62,0.14,3.44,0.28"/><path d="M60.2,27.77c0.4,0.24,1.23,1.81,1.25,2.31c0.12,3.32,0.79,7.67,2.12,14.72"/><path d="M78.91,24.88c0.4,0.29,0.86,2.12,0.79,2.69c-0.39,3.48-0.73,7.34-1.39,13.84"/><path d="M63.32,43.54c2.58,0,13.82-1.79,16.71-1.79"/><path d="M49.69,52.44c1.05,0.44,2.99,0.53,4.04,0.44c9.77-0.88,27.61-3.55,39.5-3.72c1.76-0.03,2.81,0.21,3.69,0.43"/><path d="M51.76,61.77c0.6,0.39,1.42,2.06,1.47,2.58c0.38,3.98,2.35,13.89,3.04,21.59"/><path d="M54.05,63.46c10.86-1.9,28.69-4.13,34.88-4.25c2.56-0.05,3.5,1.59,3.37,2.71c-0.51,4.11-1.98,13.17-4.69,21.96"/><path d="M70.41,51.98c0.57,0.34,1.06,2.11,1.06,2.54c0.01,7.13,0.12,26.04,0.12,27.94"/><path d="M55.48,73.44c3.04-0.2,32.18-3.07,34.69-3.07"/><path d="M57.1,84.33c8.79-1.43,20.24-2.18,30.59-2.7"/><path d="M63.6,87.96c0.05,0.32,0.1,0.84-0.09,1.3c-1.16,2.74-7.79,7.81-16.87,11.5"/><path d="M79.86,88.35c5.77,1.92,14.9,7.91,16.35,10.9"/></svg>