<svg><path d="M34.12,16.25c1.19,1.19,1.46,3,1.46,4.5c0,0.65,0.04,45.06,0.04,65c0,5.58,0,9.25-0.01,9.5"/><path d="M13.88,30.25c4.02,2.43,10.37,9.98,11.38,13.75"/><path d="M12.5,76.3c1.88,0.95,3.08,0.2,4.34-0.76c3.66-2.8,7.33-6.22,10.66-9.78"/><path d="M44.63,46.23c2.12,0.65,5.24,0.48,7.25,0.18c11.12-1.65,26.75-3.78,38.5-4.62c1.96-0.14,4.25-0.15,6.25,0.29"/><path d="M69,17.25c1.19,1.19,1.75,2.75,1.75,4.75c0,1.03,0,45.25,0,60.5"/><path d="M47.5,83.75c2.88,0.75,4.73,0.7,7.25,0.46c10.56-1,22.05-2.24,33.26-2.41c2.12-0.03,4.53,0.11,6.61,0.59"/></svg>