<svg><path d="M36.6,13.72c1.21,1.37,1.98,3.71,1.98,5.33c0,15.46-0.04,72.31-0.04,77.58"/><path d="M20.5,19.86c1.21,0.56,1.68,1.22,1.78,3.09c0.16,2.79-0.66,13.19-1.03,16.12c-0.12,0.93,0.24,2.54,2.02,2.18C29.5,40,34.02,38.98,38.06,38.4"/><path d="M15.3,59.18c1.33,0.14,1.61,0.57,3.17,0.47c6.66-0.42,15.19-3.42,19.84-3.65"/><path d="M25.24,59.39c0.03,0.77-0.06,1.98-0.06,3.09c0,9.48-1.92,20.02-11.16,29.61"/><path d="M44.5,46.17c1,0.33,3.01,0.63,5.07,0.41c10.18-1.08,30.91-4.3,42.98-4.66c1.55-0.05,2.99,0.19,3.77,0.4"/><path d="M66.22,13.75c0.13,0.32,1.93,1.65,1.93,3.68c0,13.04-0.39,53.24-0.39,70.48"/><path d="M47.17,89.34c0.92,0.33,2.61,0.4,3.53,0.33c11.41-0.92,28.45-2.74,38.65-3.17c1.53-0.06,2.46,0.16,3.22,0.32"/></svg>