<svg><path d="M11,43.14c0.76,0.38,2.24,0.46,3,0.36c4.82-0.66,16.15-2.39,21.5-3c1.25-0.14,2.62-0.18,3.25,0.01"/><path d="M24.37,15c1.09,0.5,1.96,2.23,1.96,3.25c0,7.25,0.03,42.25,0.03,53"/><path d="M11.5,77.24c0.72,1.01,2.17,1.54,4.34,0.22c6.03-3.69,16.88-10.27,22.91-13.96"/><path d="M42.4,16.73c1.18,0.54,3.35,0.63,4.54,0.54c13.56-1.02,26.35-3.02,41.79-3.23c1.97-0.03,3.16,0.26,4.14,0.53"/><path d="M46.19,17.5c0.04,1.75-0.08,4.52-0.08,7.05c0,15.2,1.39,51.45-13.55,66.92"/><path d="M53.97,25.67c0.26,0.29,0.59,1.14,0.73,1.5c1.19,3.01,2.3,10.94,3.04,16.56"/><path d="M55.41,26.68c8.41-0.69,22.97-2.18,29.24-2.76c2.31-0.21,3.48,0.84,3.37,1.93c-0.28,2.78-1.63,10.79-3.34,15.67"/><path d="M59.67,29.31c1.92,1.57,4.97,6.45,5.45,8.89"/><path d="M82.24,26.48c0.02,0.28,0.04,0.72-0.04,1.11c-0.48,2.35-3.23,7.49-6.99,10.65"/><path d="M57.88,42.07c6.06-0.29,19.08-2.16,27.45-2.64"/><path d="M69.92,26.26c0.46,0.44,0.68,0.7,0.7,1.24c0.21,6.19,0.09,27.72,0.09,29.9"/><path d="M55.66,50.17c0.61,0.19,1.73,0.21,2.34,0.19c6.36-0.22,14.33-2.15,26.04-2.2c1.02,0,1.63,0.09,2.14,0.19"/><path d="M50.85,58.97c0.87,0.25,2.46,0.3,3.32,0.25c9.02-0.43,24.4-2.79,37-2.79c1.44,0,2.31,0.12,3.03,0.25"/><path d="M52.8,64.33c-0.5,4.21-2.9,9.12-3.55,10.17"/><path d="M60.85,63.43c1.69,1.26,4.2,4.61,3.72,6.69"/><path d="M74.23,62.78c2.63,1.23,6.47,4.78,6.47,6.94"/><path d="M86.99,61.64c3.11,1.66,8.04,6.85,8.82,9.44"/><path d="M53,83.59c0.96,0.28,2.73,0.35,3.69,0.28c12.38-0.94,17.79-2.23,30.25-2.47c1.61-0.03,2.57,0.13,3.37,0.27"/><path d="M70.02,73.5c0.09,0.22,1.34,1.15,1.34,2.56c0,3.94-0.27,14.44-0.27,18.09"/><path d="M44.67,95.76c1.44,0.51,4.07,0.63,5.5,0.51c17.78-1.44,28.97-2.21,44.87-2.88c2.39-0.1,3.83,0.24,5.03,0.5"/></svg>