<svg><path d="M27.38,24.88c2.04,1.02,5.5,0.6,7.65,0.39c10.24-1.04,26.98-2.51,38.1-3.47c2.4-0.21,4.91-0.3,7.25,0.4"/><path d="M51.53,11.11c0.99,0.99,1.35,2.39,1.35,3.76c0,2.62-0.02,12.12-0.02,22.01"/><path d="M30.81,39.17c2.57,0.33,4.84,0.32,6.94,0.16c10.75-0.83,22.53-2.32,32.01-2.81c1.96-0.1,3.9-0.24,5.83,0.21"/><path d="M17.41,51.13c0,3.48-3.03,14.55-4.41,16.87"/><path d="M18.27,52.91C37.25,51,64.88,48.12,88.2,47.09c12.06-0.54,2.55,7.41-0.45,9.53"/><path d="M72.19,60.03c-0.06,0.97-0.72,2.16-1.27,2.52C65.62,66,55.75,71,43.41,74.96"/><path d="M39,57.5c0.75,0.75,1.29,2,1.29,3.31c0,1.39,0.06,18.72,0.06,22.98c0,9.84,1.66,11.73,21.79,11.73c20.99,0,22.46-1.27,22.46-13.31"/></svg>