<svg><path d="M23,24.5c1.42,0.31,5.02,0.4,7.82,0.14c14.99-1.39,28.63-3.89,47.02-4.91c3.4-0.19,5.44-0.02,7.14,0.16"/><path d="M52.75,10c1.06,1.06,1.75,3.25,1.75,4.5c0,0.83-0.18,20.94-0.23,22.15"/><path d="M30.33,39.41c1.68,0.32,4.76,0.22,6.44,0.06c11.24-1.08,27.49-3.33,39.97-4.6c2.79-0.29,4.48-0.05,5.88,0.08"/><path d="M32,50.25c1.75,0.75,3.05,0.62,4.74,0.41c12.38-1.54,28.89-3.8,37.26-4.41c5.12-0.38,6.38,1.12,5.63,4.76c-0.5,2.47-2.05,7.41-3.16,10.32c-0.49,1.28-0.87,1.73-0.97,1.91"/><path d="M54.75,49.25c1,0.75,1.01,1.89,1.02,2.75C55.84,55.65,56,61.58,56,63"/><path d="M33.5,66.75C43.62,65.62,68.75,62.5,75,62"/><path d="M33,50.75c0.81,0.81,1.13,2.01,1,3.25c-1.88,17.62-6.38,32.88-15.25,42.75"/></svg>