<svg><path d="M25.77,23.78c1.1,0.39,3.11,0.45,4.21,0.39c11.43-0.66,35.86-4.72,48.92-4.7c1.83,0,2.93,0.19,3.84,0.38"/><path d="M52.15,10.5c0.9,0.36,1.45,1.63,1.63,2.35c0.18,0.72,0.5,13.43,0.32,17.95"/><path d="M33.14,33.61c0.88,0.27,2.48,0.29,3.35,0.27c11.57-0.32,25.83-3.9,38.05-3.87c1.46,0,2.33,0.13,3.06,0.26"/><path d="M21.3,41.04c-0.14,3.41-3.39,12.33-4.55,14.36"/><path d="M23.24,43.38c3.33,0,46.06-4.55,62.8-4.55c11.39,0,3.59,5.43-0.66,8.98"/><path d="M33.13,51.17c0.94,0.38,2.66,0.42,3.6,0.38c9.77-0.44,25.27-2.8,33.36-2.88c1.57-0.02,2.5,0.18,3.29,0.37"/><path d="M34.53,60.82c0.45,0.3,1.03,0.53,1.11,0.92c0.61,2.85,2.29,9.6,3.68,15.27"/><path d="M36.27,61.31c6.89-0.57,28.61-3.32,33.31-3.41c1.95-0.04,3.26,0.75,2.82,2.4c-0.78,2.98-0.98,5.89-3.35,11.58"/><path d="M39.69,75.05c6.81-0.3,24.74-2.52,30.52-2.59"/><path d="M37.25,80.92c2.49,1.85,6.44,7.59,7.06,10.47"/><path d="M68.11,78.31c0.02,0.36,0.05,0.93-0.05,1.45c-0.57,3.06-3.85,9.77-8.34,13.87"/><path d="M19.88,96.98c1.52,0.54,4.3,0.63,5.82,0.54c15.8-0.91,45.3-3.35,62.11-3.73c2.53-0.06,4.05,0.26,5.31,0.53"/></svg>