<svg><path d="M26.31,22.86c1.04,0.37,2.95,0.43,3.99,0.37c10.83-0.62,36.87-4.58,49.25-4.56c1.73,0,2.78,0.18,3.64,0.36"/><path d="M52.77,11.77c0.86,0.34,1.37,1.54,1.54,2.23s0,13.87-0.17,18.16"/><path d="M35.38,34.87c0.83,0.25,2.35,0.3,3.18,0.25C46,34.75,59,32.33,70.58,32.35c1.38,0,2.21,0.12,2.9,0.25"/><path d="M21.16,42.94c-0.13,3.87-3.1,14.01-4.16,16.31"/><path d="M21.22,46c3.53,0,47.25-4.25,64.97-4.25c12.06,0,3.81,4.75-0.69,8.5"/><path d="M26.66,59c0.38,0.31,0.78,0.57,0.94,0.96c1.33,3.07,2.92,13.99,3.83,19.51"/><path d="M29.23,60.56c10.82-1.6,46.56-4.64,51.06-4.93c2.93-0.19,3.49,1.61,2.96,3.75c-0.99,3.94-1.75,8.37-4.02,15.95"/><path d="M31.19,76.51c5.27-0.46,39.81-3.01,48.65-3.26"/><path d="M44.19,46.47c0.98,0.45,1.57,2.02,1.76,2.92c0.2,0.9,0,38.24-0.2,43.86"/><path d="M62.18,44c0.98,0.45,1.57,2.02,1.76,2.92s0,40.04-0.2,45.66"/><path d="M17.82,94.65c1.48,0.53,4.2,0.62,5.68,0.53C43.8,93.95,72.59,92.5,89,92.05c2.47-0.07,3.95,0.25,5.19,0.52"/></svg>