<svg><path d="M19.75,17.56c2.06,0.37,5.85,0.54,7.9,0.37c16.1-1.31,35.23-3.18,51.51-3.76c3.43-0.12,5.5,0.18,7.21,0.36"/><path d="M51.24,18.88c0.26,1,0.13,2-0.12,2.58C50,24.04,49,25.66,46.25,28"/><path d="M35.25,29.57c0.96,0.96,1.46,1.8,1.46,2.98c0,0.6-0.1,13.36-0.09,21.19c0,3.31,0.03,5.75,0.09,6"/><path d="M37.77,31.62c7.99-1.02,29.58-3.88,31.4-3.95c2.55-0.11,4.33,0.83,4.34,3.39c0,0.9,0.01,12.2,0.01,21.69c0,1.49,0,2.95,0,4.32"/><path d="M37.89,39.64c7.86-0.76,28.11-2.76,34.79-3.17"/><path d="M37.91,47.78c10.21-1.03,25.21-2.41,34.37-3.1"/><path d="M38.23,57.09c9.27-0.84,25.52-2.59,33.82-3.02"/><path d="M47.01,59.25c0.24,1.5-0.01,2.75-1,4.14c-3.62,5.1-12.51,15.11-24.34,20.55"/><path d="M48.22,66.14c1.28,0.24,2.26,0.12,3.37-0.08c4.42-0.81,6.75-1.76,12.31-2.58c3.81-0.57,3.9,1.65,2.92,3.18C61.47,75.07,40.75,92.5,17.25,98.5"/><path d="M40.75,73.72c5.25-0.22,31,16.91,41.72,20.99c2.58,0.98,4.57,1.66,7.03,1.99"/></svg>