<svg><path d="m39.374375,9.6030228c0.08743,1.0055362-0.4226,2.2598652-0.976353,3.1721032-2.827052,4.60266-7.752533,10.946867-15.942241,17.861224"/><path d="m39.57839,18.90164c1.005497,0.290257,2.827052,0.10366,3.832549,0.0311,5.610387,-0.435386,24.641984,-2.311697,35.93562,-3.524559,2.477314,-0.269526,5.144068,-0.290258,7.635955,-0.217693"/><path d="m34.871494,31.009538c1.063787,0.756744,1.690402,1.783012,1.865271,2.850748,0.65576,3.991044,1.967279,10.843203,3.016494,16.669092,0.335165,1.886676,0.582897,3.203201,0.626614,3.37943"/><path d="m38.033712,32.657789c5.042062,-0.653081,27.337883,-3.130638,35.615025,-3.908115,4.298868,-0.404288,7.067631,0.549416,6.339008,3.814817-0.728621,3.265401-2.346161,11.123095-3.293369,15.943448-0.451745,2.249498-0.743194,3.845917-0.743194,3.991045"/><path d="M39.694969,42.319227C52.329268,40.961235,64.715836,39.530679,76.810956,38.794668"/><path d="m41.31251,52.115429c10.288137,-0.663446,22.674705,-1.95924,33.662319,-2.30133"/><path d="m43.702388,59.620668c0.189442,1.150665-0.451745,2.228765-1.165794,3.255035-3.497384,4.395332-10.7836,10.998698-21.698353,16.876419"/><path d="m46.820888,64.005635c1.500961,0.155494,3.074784,0.10366,4.109427,-0.08293,5.056634,-0.922605,12.852886,-2.570855,17.822085,-3.400164,3.40995,-0.570149,5.260649,1.181765,3.876267,3.503827-5.042062,8.417478-27.949925,26.434196-50.172886,32.654006"/><path d="m37.975422,72.640806c7.971121,3.172103,30.572964,14.74095,43.046966,19.758265,3.715971,1.503121,8.014839,3.068439,12.109692,3.980678"/></svg>