<svg><path d="M26.37,20.75c1,1,1.27,2.5,1.27,4.49C27.64,46.81,29,75.75,11.75,90"/><path d="M28.75,22.5c16.7-3.02,26.95-4.87,45-6.12c5.69-0.4,7.39,1.5,6.7,7.14c-2.39,19.68-4.01,44.76,8.04,62.38c10.81,15.79,8.48,1.27,8.64-3.27"/><path d="M34.55,33.45c3.18,0.24,6.29-0.03,9.33-0.79c6.18-1.38,13.89-2.79,19.75-3.7c2.47-0.34,4.92-0.51,7.37-0.03"/><path d="M50.83,34.3c0.17,1.33,0,2.29-0.39,3.5c-2.65,8.13-7.8,19.53-17.21,29.45"/><path d="M49.73,48.72c1.86,0.2,3.63-0.08,5.39-0.62c3.13-0.97,5.38-1.47,9.05-2.68c2.5-0.82,5.36,0.55,4.01,3.68C61.5,64.62,49.75,81.5,29.61,93"/><path d="M42.75,60.5c3.95,1.92,7.75,5.12,9.88,8.88"/></svg>