<svg><path d="M15.38,16.44c0.47,0.66,1.13,1.44,1.13,2.32c0,0.88,3.19,24.23,3.19,24.67s0.08,0.44,0.16,1.32"/><path d="M16.6,17.89c1.4-0.11,29.25-3.15,30.52-3.14c1.68,0.01,2.38,2.56,2.29,3.21c-0.17,1.32-4.68,24.09-4.68,24.75"/><path d="M18.3,30.27c1.89,0,27.42-3.26,29.55-3.26"/><path d="M20.44,42.72c3.85-0.47,19.75-2.18,24.54-2.59"/><path d="M11.21,55.22c0.44,0.18,1.63,0.47,2.82,0.53c3.26,0.18,25.9-2.9,35.4-3.25c1.19-0.04,1.48,0.18,2.22,0.35"/><path d="M30.94,18.25c0.77,0.5,1.23,2.25,1.38,3.25c0.15,1,0,70.75-0.15,77"/><path d="M31.47,56.25c-3.65,9.81-13.13,23.7-20.72,29.25"/><path d="M35.07,62.5c4.4,2.05,10.55,8.2,12.62,12.9"/><path d="M68.78,13.17c0.16,0.25,0.51,0.99,0.39,1.49c-0.71,2.96-7.3,11.83-14.82,17.41"/><path d="M71.54,17.49c0.28,0.02,1.44-0.02,2.22-0.11c2.55-0.29,9.62-1.62,12.98-2.64c2.41-0.73,3.29,0.58,2.75,2.07c-2.96,8.14-19.37,28.17-34.82,32.53"/><path d="M64.4,28.83c2.29,1.46,6,6.08,6.65,8.42"/><path d="M75.74,45.75c0.28,0.41,0.6,1.23,0.24,1.99c-2.76,5.82-9.21,14.96-21.35,22.85"/><path d="M77.08,52.69c0.29,0.03,2.01,0.48,2.83,0.38c2.68-0.32,9.43-1.33,12.96-2.45c2.53-0.81,3.36,0.6,2.88,2.27C93.08,62.2,73.25,89,47.75,98.5"/><path d="M66.51,65.13c2.95,1.93,7.74,8.05,8.57,11.14"/></svg>