<svg><path d="M24.28,21.48c1.77,0.72,4.35,0.71,6.23,0.51c12.23-1.36,34.88-3.62,47.86-4.25c2.7-0.13,5.44-0.32,8.09,0.33"/><path d="M39.8,11.62c0.79,0.79,1.45,1.78,1.61,2.38c1.48,5.64,2.74,11.45,3.16,13.5"/><path d="M69.48,10c0.52,0.75,0.62,1.89,0.32,2.87c-1.76,5.76-2.31,7.39-4.23,12.8"/><path d="M29,32.96c1,0.67,1.12,1.81,1.31,2.52c0.81,3.02,1.47,5.3,2.08,8.24c0.28,1.33,0.52,2.62,0.69,3.75"/><path d="M31.04,34.63c13.83-1.51,38.46-3.88,49.82-4.64c2.1-0.14,4.14,1.01,3.32,3.87c-0.53,1.86-1.02,3.79-1.97,6.46c-0.57,1.62-0.95,2.49-1.59,3.94"/><path d="M47.31,33.75c0.66,0.66,1.19,1.35,1.41,2.75c0.48,3.05,0.95,5.72,1.08,7.03"/><path d="M64.75,33.47c0.37,0.65,0.44,1.55,0.24,2.54c-0.75,3.86-1,5.28-1.29,6.53"/><path d="M34.24,46.12c9.38-0.99,36.38-2.99,45.84-3.21"/><path d="M24.25,53.5c-1.5,7.25-4.25,12.62-6.75,15.75"/><path d="M24.72,56c3.53,0,40.15-4,62.97-4.75c12.05-0.4,4.06,6-0.44,9.75"/><path d="M52.27,56.64c0.23,1.36-0.36,2.73-0.95,3.49C47.5,65,39.27,72.91,28.66,77.98"/><path d="M50.49,65.82c1.01,0.18,2.25,0.21,2.99,0.11C56.93,65.5,62,65,67.93,64.52c3.5-0.29,4.17,1.76,2.48,3.83C60.5,80.5,47,92,24.25,100.25"/><path d="M44.5,74.38c3.1,1.06,8.01,4.35,8.78,5.99"/></svg>