<svg><path d="M17.88,33.24c1.26,0.57,4.63,1.24,7.31,0.99c18.14-1.7,41.95-5.08,58.24-5.9c2.8-0.14,5.05-0.07,7.58,0.37"/><path d="M31.74,39.74c0.46,0.44,0.47,1.35,0.31,2.24c-1.3,7.52-6.8,18.52-18.08,27.15"/><path d="M30.66,50.49c4.01,2.01,9.14,7.35,11.09,12.41"/><path d="M77.07,34.74c0.36,0.37,0.37,1.13,0.25,1.88c-1.03,6.3-5.4,15.52-14.35,22.76"/><path d="M75.91,48.49c4.92,2.25,11.2,8.24,13.59,13.91"/><path d="M52.55,13.75c0.63,1.16,1.34,2.51,1.44,5.01C56,66.75,48.25,81.5,13,98.5"/><path d="M52.75,54.75c8.34,9,27.31,31.43,35.64,37.45c2.83,2.05,3.82,2.35,5.11,2.55"/></svg>