<svg><path d="M21.88,23.61c1.62,0.39,3.45,0.21,4.51,0.11c15.61-1.47,39.86-4.47,53.86-5.64C81.59,17.97,84,18,85.5,18"/><path d="M51.13,10.25c0.58,0.63,0.86,1.96,0.36,3.24C46,27.5,32.5,46.5,15,56.5"/><path d="M60,21c6.83,6.17,22.75,21.88,29.57,26c2.32,1.4,3.12,1.61,4.18,1.75"/><path d="M41.3,42.33c0.48,0.25,2.35,0.28,2.83,0.25c5.11-0.33,14.11-2.33,20.31-3.34c0.78-0.13,2.77,0.12,3.17,0.24"/><path d="M29.54,55.97c0.9,0.3,2.56,0.37,3.46,0.3c5.63-0.45,33.74-5.02,43.79-5.42c1.5-0.06,2.41,0.14,3.16,0.29"/><path d="M45.81,56.37c0.5,0.96,0.42,2.05,0.1,3.56c-0.37,1.73-2.86,5.92-3.95,8.64c-0.96,2.42-0.46,3.67,3,3.05c6.29-1.13,13.54-3.13,21.88-4.18c4.05-0.51,5.13,1.64,4.13,5.42C69,80.25,66.25,87.25,60.51,94.76c-4.9,6.41-6.79,1.19-7.54-0.66"/></svg>