<svg><path d="M19.62,27.36c3.51,1.22,6.99,0.8,10.62,0.39c15.5-1.75,28.63-2.87,42.26-3.68c3.55-0.21,7.02-0.25,10.49,0.68"/><path d="M51.58,11c0,1.75-0.24,2.89-0.83,4.28C42,35.75,31,49,12,61"/><path d="M54.5,27.25c6.09,4.73,16.54,13.71,25.65,20.27c3.7,2.8,7.73,5.04,12.1,6.73"/><path d="M28.74,55.23c0.88,1.09,1.36,2.3,1.44,3.63c0.84,6.33,1.51,10.89,2.52,17.02c0.34,2.06,0.71,4.3,1.14,6.84"/><path d="M30.63,56.08C40.75,54.5,58,52.12,68.14,51.44c3.78-0.25,5.67,0.83,5.17,4.71c-0.48,3.68-1.36,10.03-2.41,16.84c-0.33,2.19-0.69,4.39-1.05,6.53"/><path d="M32.6,67.43c10.27-1.18,24.4-3.3,38.88-4.21"/><path d="M34.47,80.2c10.78-1.7,26.78-3.08,34.66-3.73"/><path d="M49.99,39.87c0.95,0.95,1.14,2.59,1.12,4.43C51,55.62,51,74.25,51.08,84.5c0.08,9.5,5.67,12.78,21.42,12.78c15.25,0,17.39-2.28,17.39-11.37"/></svg>