<svg><path d="M24.62,28.74c3.88,1.01,7.42,0.92,10.65,0.4c12.47-2.01,26.02-3.4,37.11-4.45c3.52-0.33,7.12-0.76,10.61,0.01"/><path d="M54.05,10.75c0.45,1.25,0.37,2.59-0.06,4.06C47.25,38,35,54.75,13.75,62.25"/><path d="M54.12,28c7.77,6.85,20.63,18.52,29.66,24.95c3.05,2.18,6.59,4.05,10.46,5.3"/><path d="M40.89,54.08c1.65,0.67,3.93,0.26,5.63,0.06c4.47-0.52,10.15-1.48,14.49-1.75c1.68-0.11,3.53-0.13,5.18,0.27"/><path d="M24.34,69.57c2.86,1.02,7.19,0.52,10.16,0.17c9.74-1.16,28.21-3.04,39.88-3.32c3.19-0.08,6.59-0.23,9.73,0.44"/><path d="M54.09,70.55c0.86,0.87,1.31,2.07,1.31,3.89c0,12.24,0.04,16.3,0.04,20.47c0,8.86-3.8,3.18-7.32,0.21"/><path d="M35.59,80.81c0.14,1.12-0.15,2.12-0.86,3.01C32.53,87.11,27,91,20.25,95.57"/><path d="M70.66,78.49C76.25,82.12,83.62,89.12,85.5,94"/></svg>