<svg><path d="M15.25,24.75c2,0.75,3.76,0.61,5.86,0.29c8.78-1.33,19.04-3.06,24.77-3.94c1.69-0.3,3.39-0.41,5.11-0.35"/><path d="M34.87,9.5c0.94,0.94,1.21,2.5,1.21,3.75c0,1.02-0.08,26.5-0.08,37"/><path d="M19.25,38.5c1.75,0.62,3.81,0.58,5.51,0.3c7.74-1.3,15.89-2.9,21.76-4.1c1.29-0.27,2.44-0.54,3.74-0.19"/><path d="M13.75,57c1.12,1.12,2.09,1.54,5,0.5c8.38-3,18.5-6.5,29.75-10.75"/><path d="M57.99,21.28c2.06,0.71,5.02,0.31,7.11-0.04c7.42-1.24,17.87-3.45,23.26-4.26c3.94-0.59,6.85-0.37,6.19,4.27c-0.86,6.06-3.71,18.12-7.87,25.89c-2.8,5.23-4.93,2.11-7.49-1.42"/><path d="M73.75,22.99c0.04,0.64-0.04,1.68-0.34,2.56C70.5,34,67,41.62,58.38,50.12"/><path d="M17.4,72.36c2.94,0.76,5.72,0.91,8.71,0.42c14.89-2.41,39.05-5.02,54.14-6.16c3.18-0.24,6.53-0.17,9.66,0.38"/><path d="M51.44,52.75c0.97,0.97,1.27,2.68,1.19,4.12C51.38,81.75,40.45,92.86,22,100.5"/><path d="M55.62,70c6.75,5.62,19.92,18.01,28.68,23.88c2.75,1.84,5.04,3.16,7.57,4.25"/></svg>