<svg><path d="M20.88,23.36c3.04,0.63,5.94,0.78,9,0.44c13.18-1.46,32.6-2.94,46.37-3.81c3.17-0.2,6.13-0.18,9.25,0.51"/><path d="M51.66,10.75c0.22,1.25,0.12,2.42-0.41,3.62C43.75,31,30.25,47.38,16,55"/><path d="M57.12,23.12c6.43,5.51,17.38,15.75,26.89,23.52c2.52,2.06,4.84,3.65,7.74,5.1"/><path d="M35.89,49.77c2.73,0.48,4.71,0.16,6.85-0.07c8.06-0.86,16.05-2.05,22.25-2.44c1.96-0.12,3.93-0.25,5.87,0.17"/><path d="M51.77,36.88c0.98,0.98,1.26,2.12,1.26,3.12c0,0.46-0.01,11.88-0.01,19.11c0,2.33-0.01,4.21-0.02,5.13"/><path d="M12.88,74.48c3.02,1.08,6.38,0.85,9.5,0.56c16.51-1.52,43.41-3.89,62.12-4.6c3.4-0.13,6.77-0.09,10.13,0.63"/><path d="M37.61,63.25c0.55,0.85,1.05,1.74,1.1,2.99c0.44,11.37-2,27.3-16.46,33.51"/><path d="M70.12,60.25c1,1,1.21,2.25,1.21,3.75c0,5.36,0.02,19.49,0.03,29.75c0,2.66,0,5,0,6.75"/></svg>