<svg><path d="M51.78,11.25c0.89,0.34,2.35,2.17,2.35,2.86c0,2.52-0.28,6.72-0.12,8.86"/><path d="M20.27,24.71c1.29,0.06,4.25,0.42,5.51,0.33c10.17-0.69,46.76-3.25,59.67-3.43c2.13-0.03,3.22,0.03,4.81,0.42"/><path d="M46.91,25.98c0.55,0.91,0.97,1.64,0.83,2.77C46.5,38.75,43.5,52,35.83,57.5"/><path d="M62.26,24.81c0.78,0.52,1.38,2.12,1.38,3.84c0,9.99-0.2,19.21-0.2,22.02c0,5.88-2.45,3.83-6.37,0.14"/><path d="M35.01,32.4c0.05,0.43,0.3,1.14-0.1,1.71c-3.03,4.43-8.69,10.86-17.11,16.37"/><path d="M72.33,33.09c5.84,2.75,15.09,11.3,16.55,15.58"/><path d="M18.8,68.38c1.29,0.41,4.72,0.88,7.45,0.7c18.48-1.21,42.75-3.63,59.34-4.21c2.85-0.1,5.15-0.05,7.72,0.27"/><path d="M52.35,55.12c0.58,0.63,0.89,1.36,0.87,2.73c-0.28,23.66-13.47,37.4-37.38,43.4"/><path d="M53.29,66.55c7.71,7.27,25.7,25.78,33.4,30.64c2.62,1.65,3.53,1.9,4.72,2.06"/></svg>