<svg><path d="M38.84,10.72c0.75,0.86,1.24,2.33,1.24,3.33c0,9.68-0.02,45.27-0.02,48.57"/><path d="M20.76,15.06c0.86,0.4,1.19,1.37,1.27,2.7c0.11,1.99-0.47,8.89-0.73,10.97c-0.09,0.66,0.17,1.8,1.44,1.55c4.43-0.89,12.52-2.03,17.02-2.02"/><path d="M14.75,42.03c1.46,0.1,1.76,0.4,3.46,0.33c7.28-0.3,16.61-2.41,21.69-2.57"/><path d="M26.22,42.81c0.03,0.47-0.06,1.21-0.06,1.89c0,5.79-1.76,12.23-10.22,18.08"/><path d="M46.5,29.32c0.93,0.22,2.81,0.43,4.73,0.28c9.49-0.74,28.82-2.94,40.07-3.18c1.45-0.03,2.79,0.13,3.51,0.27"/><path d="M67.22,10.25c0.13,0.32,1.93,1.65,1.93,3.68c0,7.07,0.11,26.57,0.11,32.98"/><path d="M51.17,48.17c0.79,0.18,2.25,0.23,3.04,0.18c9.84-0.52,24.53-1.54,33.33-1.78c1.32-0.04,2.12,0.09,2.78,0.18"/><path d="M19.3,70.55c1.26,0.38,4.64,0.83,7.32,0.67c18.15-1.15,41.98-3.44,58.28-3.99c2.8-0.1,5.05-0.05,7.58,0.25"/><path d="M54.61,55.5c0.56,0.61,0.86,1.31,0.84,2.63c-0.28,22.81-13.81,34.85-36.08,41.86"/><path d="M53.62,70.88c7.44,6.08,24.79,21.58,32.21,25.65c2.53,1.38,3.41,1.59,4.55,1.72"/></svg>