<svg><path d="M44,9c0.06,0.54,0.33,1.5-0.12,2.18C41,15.5,32.5,26,22.25,33"/><path d="M40,18.38c2.84,0,21.45-2.37,24.44-2.65c2.56-0.24,3.88,2.57,2.81,3.76c-4.5,5-6,7.5-10.75,14.25"/><path d="M27.99,34.4c1.26,1.1,2.26,2.85,2.42,4.54c1.03,10.54,1.08,16.3,1.33,29.44"/><path d="M31,36.48c11.89-1.27,38.28-2.93,46.39-3.13c3.36-0.08,4.6,2.31,4.37,4.22C80.75,46,80.25,52,78.42,65.68"/><path d="M47.08,37.28c0.05,0.52,0.05,1.32-0.09,2.08C45.73,46,44.5,52.25,38.75,57.5"/><path d="M59.37,37.09c0.6,0.93,1.11,2.02,1.11,3.45c0,1.93-0.18,5.54-0.18,6.91c0,3.75,2.04,5.29,5.94,5.29c3.53,0,6.13,0,7.62-1.21"/><path d="M14.88,72.11c1.85,0.39,3.93,0.17,5.14,0.11c19.99-0.97,50.32-2.47,66.26-3.64c1.53-0.11,4.27-0.08,5.98-0.08"/><path d="M51.62,58.75c0.38,1.25,0.6,1.22,0.37,2.4C48,81.25,37.15,92.37,14,98.75"/><path d="M52,70.5c7.79,6.06,25.96,21.48,33.73,25.54c2.64,1.38,3.57,1.58,4.77,1.71"/></svg>