<svg><path d="M21.62,23.86c2.83,0.68,5.66,0.58,8.5,0.24c17.5-2.1,37.03-3.27,50.63-4.06c2.79-0.16,6.11,0.08,8.49,0.46"/><path d="M53.03,9.5c0.22,1.5-0.38,2.87-1.04,3.85C43,26.75,31.75,38.75,11.5,49.5"/><path d="M59,22c7.38,5.22,23.36,17.53,30.73,21.02c2.51,1.19,3.38,1.37,4.52,1.48"/><path d="M41.42,34.25c0.17,1.14-0.05,2.39-0.58,3.37c-3.42,6.25-7.21,11.88-15.58,19.14"/><path d="M35.99,47.01c0.69,0.69,0.97,1.65,0.97,2.74c0,4.19,0.01,13.76,0.01,19.63c0,2.02,0,3.61,0,4.38"/><path d="M59.15,33.25c0.06,0.62-0.02,1.43-0.21,1.96c-1.23,3.39-2.29,4.51-5.12,8.63"/><path d="M38.17,46.51c5.66-0.43,22.82-2.29,32.32-3.06c2.29-0.19,4.05-0.31,4.97-0.33"/><path d="M54.12,46.02c0.62,0.62,0.86,1.35,0.86,2.36c0,3.69-0.17,13.87-0.17,19.69"/><path d="M38.18,54.26c5.14-0.34,20.08-1.44,28.33-1.92c2.4-0.14,4.16-0.25,4.8-0.3"/><path d="M37.87,61.74c5.63-0.3,21.81-0.92,29.89-1.36c1.97-0.11,3.4-0.19,3.98-0.23"/><path d="M38.06,70.31c5.73-0.44,25.68-2.11,35.2-2.56c2.16-0.1,3.75-0.13,4.49-0.04"/><path d="M30.07,78.93c0.35,0.34,0.36,0.58,0.55,1.01c1.24,2.81,2.4,10.26,3.29,16.5c0.23,1.61,0.44,3.15,0.64,4.5"/><path d="M31.21,79.93c14.66-1.18,36.98-3.42,46.21-3.63c2.08-0.05,3.58,1.08,2.93,3.99c-0.62,2.79-1.9,8.54-3.89,14.19c-0.51,1.44-1.06,2.85-1.67,4.15"/><path d="M53.69,80.27c0.53,0.33,1.17,2.11,1.16,2.61c-0.05,3.94-0.11,9.62-0.23,13.55"/><path d="M33.44,88.8c13.31-1.05,31.06-2.55,44.4-3.28"/><path d="M35.43,97.74c9.82-0.74,27.19-2.02,39.46-2.42"/></svg>