<svg><path d="M36.67,14.6c1.05,0.88,1.73,2.38,1.73,3.41c0,9.9-0.03,43.24-0.03,46.61"/><path d="M22.28,17.75c1.2,0.41,1.15,1.88,1.25,3.23c0.15,2.02-0.65,6.05-1.02,8.16c-0.12,0.67,0.21,1.73,1.98,1.57c3.16-0.27,10.77-1.75,13.44-2.01"/><path d="M15.15,42.27c1.16,0.09,1.4,0.36,2.76,0.3c5.81-0.27,16.19-2.55,20.24-2.7"/><path d="M26.02,44.23c0.03,0.5,0.53,1.29,0.5,2.02c-0.27,6.5-4.27,14-10.81,19.32"/><path d="M65.57,10c0.18,1,0.07,2.11-0.54,2.95c-3.04,4.17-8.28,9.3-17.23,14.4"/><path d="M64.45,16.58c1.15,0.26,2.04,0.45,3.7,0.33c5.14-0.36,9.01-0.84,11.63-1.29c2.1-0.36,3.05,0.58,1.9,1.72C75,24,63.25,32,44.79,37.84"/><path d="M60.2,21.13c0.88,0.34,4.38,2.38,6.13,4.43"/><path d="M52.51,25.38c1.26,0.83,5.03,4.36,6.07,6.24"/><path d="M44.48,42.28c0.89,0.4,2.52,0.45,3.43,0.4c9.9-0.49,30.58-4.02,41.49-4.63c1.49-0.08,2.38,0.19,3.13,0.39"/><path d="M78.35,29.95c0.06,0.19,0.84,1,0.84,2.23c0,8.23-0.17,23.3-0.17,25.31c0,9.01-4.52,2.01-6.5,0.1"/><path d="M55.77,47.65c2.45,1.61,6.33,6.62,6.94,9.13"/><path d="M20.38,73.47c1.12,0.46,4.12,1,6.51,0.8C43.04,72.9,67.75,70.66,82.25,70c2.49-0.11,4.5-0.06,6.75,0.3"/><path d="M53.13,60.08c0.58,0.57,0.92,1.73,0.87,2.96C53.25,79,39.5,97,17.25,101.75"/><path d="M53,72.32c6.88,5.99,22.92,21.23,29.79,25.24c2.34,1.36,3.15,1.57,4.21,1.69"/></svg>