<svg><path d="M18.88,24.49c1.12,0.38,4.12,0.83,6.51,0.66c16.15-1.14,42.36-3.42,56.86-3.96c2.49-0.09,4.5-0.05,6.75,0.25"/><path d="M50.05,11.25c0.45,1,0.42,2.23-0.05,3.25C42.5,30.75,28.75,41.75,10.25,49.85"/><path d="M62.25,23.28c6.62,5.33,22.08,18.9,28.69,22.47c2.25,1.21,3.03,1.39,4.06,1.51"/><path d="M25.38,47.71c1.35,0.32,3.82,0.38,5.16,0.32c14.02-0.54,28.17-2.71,43.29-3c2.24-0.04,3.59,0.15,4.71,0.32"/><path d="M43.68,55.29c0.25,0.21,0.5,0.39,0.61,0.65c0.86,2.1,1.88,7.89,2.47,11.66"/><path d="M44.79,56.32c5.89-0.81,16.31-2.25,19.68-2.57c1.23-0.12,1.98,0.7,1.8,1.39c-0.73,2.86-1.74,4.93-2.83,8.89"/><path d="M46.72,65.93c3.97-0.36,12.85-0.99,18.29-1.55"/><path d="M36.25,75.27c0.33,0.23,0.67,0.41,0.82,0.69c1.15,2.22,1.37,9.15,2.16,13.13"/><path d="M37.93,76.77c4.23-0.59,8.93-1.87,12.82-2.16c1.42-0.11,2.28,0.63,2.07,1.26c-0.84,2.59-1.43,7.15-2.68,10.73"/><path d="M39.15,87.76c4.57-0.33,11.05-1.19,12.8-1.12"/><path d="M59.33,74.39c0.27,0.21,0.55,0.39,0.66,0.66c0.94,2.13,1.19,8.23,1.83,12.05"/><path d="M60.37,75.29c5.19-0.83,12.39-1.52,15.55-1.8c1.15-0.1,1.85,0.6,1.68,1.21c-0.69,2.49-1.48,5.76-2.5,9.2"/><path d="M62.5,85.55c3.71-0.32,8.66-0.32,13.76-0.8"/><path d="M28.68,49.31c0,2.39-0.44,38.6-0.44,40.83c0,4.1,2,7.39,7.94,7.39c8.88,0,34.31-0.54,40.22-0.79c2.88-0.12,5.34-0.49,7.59-0.21"/></svg>