<svg><path d="M37.67,14.29c1.08,1.08,1.46,2.68,1.46,4.59c0,0.58,0.14,25.62,0.12,38.62c-0.01,3.53-0.03,6.16-0.07,7.12"/><path d="M21.38,24.12c3,1.86,7.75,7.65,8.51,10.54"/><path d="M17.5,54.11c1.69,0.7,2.82,0.4,3.88-0.46c3.1-2.5,6.87-5.65,10.42-9"/><path d="M75.92,10.85c-0.04,1.03-0.62,1.68-1.24,2.12c-3.4,2.42-12.38,6.44-24.54,8.93"/><path d="M50.62,27.38c2.17,1.42,5.6,5.82,6.14,8.02"/><path d="M63.37,25.18c2,1.4,5.16,5.75,5.66,7.92"/><path d="M86.22,18.74c0.09,0.68-0.05,1.32-0.41,1.9c-1.13,2.54-3.12,5.37-6.74,8.63"/><path d="M45.9,43.72c2.22,0.41,4.09,0.53,5.98,0.31c9.04-1.08,23.52-3.28,33.38-4.07c2-0.16,3.93-0.35,5.89,0.17"/><path d="M77.19,32.15c0.95,0.95,1.33,2.1,1.33,3.85s0.09,16.76,0.09,24.07s-4.99,0.93-6.04-0.38"/><path d="M57.25,49.5c2.1,1.39,5.42,5.72,5.94,7.89"/><path d="M17.88,75.16c4.04,0.67,7.43,0.67,11.5,0.19c15.29-1.81,34.42-4.04,51.25-4.8c3.39-0.16,6.77,0.09,10.12,0.7"/><path d="M51.23,59.5c0.91,1.01,0.78,2.38,0.74,3.63C51.28,83.93,38.5,95,18.5,101.5"/><path d="M56.5,73.25c5.85,4.98,17.71,16.08,25.49,21.88c2.39,1.78,4.51,3.12,7.51,4.37"/></svg>