<svg><path d="M26.62,19.62c0.38,1.13,0.82,2.99,0.63,4.63c-0.97,8.06-2.62,28.25-6.52,40.18c-0.66,2.02,0.38,2.74,0.88,2.87c5.2,1.37,10.33,3.88,14.91,7.68c1.94,1.61,3.78,3.44,5.48,5.52"/><path d="M40.26,38.25c0.07,1.19,0.11,3.09-0.14,4.82C38.12,57.04,31.84,78.1,17.5,88.5"/><path d="M10.75,54.17c0.38,0.88,1.91,1.39,3.65,0.77c7.47-2.69,16.47-5.69,30.6-10.96"/><path d="M48.41,28.98c1.5,0.42,3.69,0.54,6.69-0.08c3-0.62,21.8-3.99,23.91-4.42c2.99-0.61,4.69,1,3.82,4.08C75.62,54.12,61,78.5,43.27,86.75"/><path d="M51.72,43.57c3.86,0.94,19.86,23.01,33.86,35.61c2.89,2.6,6.14,5.87,9.65,7.61"/></svg>