<svg><path d="M36.81,18.62c0.4,1,0.76,2.4,0.41,3.82c-2.17,8.83-6.71,27.9-11.59,38.44c-0.71,1.54-0.99,3.09,1.08,3.45c7.76,1.37,14.32,5.19,20.82,10.64c3.11,2.61,5.55,6.4,7.46,9.83"/><path d="M48.74,37.39c0.51,1.11,0.69,2.67,0.32,4.42C46.38,54.5,38.5,77.88,18,88.25"/><path d="M13.5,48.22c0.5,1.16,1.5,1.62,3.5,1.39c2.15-0.24,24.75-4.36,37-6.73"/><path d="M63.25,40.11c0.94,0.94,1.38,1.87,1.54,3.54c0.71,7.6,0.84,18.1,1.38,31.85c0.05,1.35,0.06,2.69,0.08,4"/><path d="M65.63,41.8c9.62-1.05,16.75-1.92,22.56-2.55c1.82-0.2,3.94,0.75,3.63,3.46c-0.87,7.67-2.32,20.04-3.66,32.45"/><path d="M67.7,77.76c6.11-0.59,10.37-0.87,17.05-1.28c1.84-0.11,3.81-0.23,5.96-0.37"/></svg>