<svg><path d="M31.06,19.37c0.4,1,0.62,2.38,0.41,3.82c-1.01,7.08-6.28,32.24-10.73,40.52c-0.91,1.7,0.41,2.36,0.91,2.52c6.77,2.16,11.95,5.47,16.42,10.19c1.92,2.02,3.7,4.31,5.43,6.87"/><path d="M43,37.39c0.5,1.23,0.64,2.59,0.34,4.43C40.93,56.66,33.62,78.38,16.5,90.5"/><path d="M11.75,50.47c0.5,1.41,1.77,1.77,3.75,1.39c3.88-0.74,24.09-5.6,33-7.98"/><path d="M52.94,23.81c1.94,0.81,3.51,0.95,5.91,0.6c9.66-1.41,25.33-2.77,26.81-2.93c1.95-0.21,3.74,1.14,3.04,4.43c-0.21,0.98-2.27,11.23-3.64,20.63"/><path d="M54.54,49.87c1.21,0.38,2.44,0.78,3.99,0.67c6.17-0.42,15.1-1.67,24-2.59c1.82-0.19,3.61-0.24,5.07-0.24"/><path d="M55.79,50.87c0.92,0.92,1.36,2.13,1.36,3.51c0,6.98-0.02,15.05-0.02,21.37C57.12,89,58,90,76.5,90c17.62,0,18.99-1.75,18.99-11.24"/></svg>