<svg><path d="M29.31,18.37c0.4,1,0.62,2.38,0.41,3.82c-1.01,7.08-6.03,33.24-10.48,41.52c-0.91,1.7,0.41,2.36,0.91,2.52c6.16,1.96,12.49,5.62,17.13,9.73c2.65,2.35,4.34,4.67,6.47,7.83"/><path d="M41,37.39c0.62,1.36,0.64,2.84,0.34,4.68C38.93,56.91,32.88,76.75,14.5,90"/><path d="M11.38,49.45c0.88,1.05,1.55,1.25,3.25,0.94c4.07-0.74,20.12-4.64,30.87-6.77"/><path d="M89.14,16c0,0.88-0.68,1.63-1.29,2.12c-6.9,5.52-16.82,10.38-34.33,14.87"/><path d="M48.04,57.93c2.46,0.57,5.06,0.45,7.09,0.25c12.24-1.18,25.49-2.55,38.49-2.99c2.05-0.07,4.36,0.13,6.34,0.73"/><path d="M73.39,29.86c0.94,0.94,1.54,1.89,1.54,3.36c0,0.97-0.05,48.14-0.05,54.78"/><path d="M52.7,89.59c2.05,0.54,4.19,0.61,6.07,0.51c10.3-0.53,22.32-1.83,33.11-2.03c2.08-0.04,4.21,0.08,6.24,0.6"/></svg>