<svg><path d="M28.98,23.37c0.39,1.07,0.59,2.32,0.39,3.86c-0.94,7.29-7.03,28.06-11.35,37.58c-0.98,2.16-1.02,3.4,1.35,4.12c8.31,2.53,16.34,8.62,21.39,16.15"/><path d="M40.25,41.98c0.5,1.27,0.43,2.6,0.08,4.22C37.38,60,29.12,79,12,88.5"/><path d="M10.25,52.34c0.75,0.97,2.04,1.66,4,1.18c9.38-2.27,19.5-4.65,30.25-7.43"/><path d="M43.1,33.35c2.91,0.59,5.78,0.44,8.67-0.12c8.23-1.6,18.35-2.85,28.2-4.14c2.97-0.39,5.53-0.34,8.87,0.05"/><path d="M62.84,12.59c1.22,1.22,1.49,2.66,1.49,4.11c0,0.93,0.03,26.68,0.03,32.99"/><path d="M47.98,52.2c1.58,0.39,3.02,0.73,6.17,0.14c3.15-0.59,19.4-3.41,21.57-4c2.17-0.59,4.28,1.59,3.3,3.68C71.12,69,60.25,84.5,39.09,94.57"/><path d="M46.94,56.93C52.25,58,68.21,75.97,83.39,86.85c3.72,2.84,7.75,5.15,12.08,6.92"/></svg>