<svg><path d="M37.6,13.72c1.21,1.37,1.98,3.71,1.98,5.33c0,15.46-0.04,69.81-0.04,75.08"/><path d="M17.25,18.42c1.37,0.64,1.89,1.38,2.01,3.48c0.18,3.15-0.74,15.51-1.16,18.81c-0.14,1.05,0.24,2.62,2.28,2.46C27.56,42.6,35,41.25,39.56,40.6"/><path d="M12.8,58.68c1.33,0.14,1.61,0.57,3.17,0.47c6.66-0.42,18.69-1.92,23.34-2.15"/><path d="M22.74,60.89c0.26,0.86,0.51,1.72,0.45,2.97C22.5,77.25,18.5,87.5,10,93.75"/><path d="M68.1,15.87c0.34,1.54,0.1,3.48-0.17,5.39C66.6,30.64,59,55.5,52.9,66.51c-1.22,2.21,0.31,2.83,1.01,2.83C66.75,69.25,82.75,78.5,91,92.22"/><path d="M82.79,32.09c1.01,1.42,1.1,2.53,0.9,4.67C82,54,71.25,83,48.29,93.75"/><path d="M45.88,42.93c1.39,0.35,2.87,0.58,3.54,0.53c14.06-1.09,32.23-3.06,45.65-3.21c1.11-0.01,3.03,0.21,3.93,0.61"/></svg>