<svg><path d="M26.48,16.37c0.39,1.04,1.08,2.74,0.89,4.24C26.38,28,20.05,55.27,15.73,63.9c-0.89,1.77,0.39,2.51,0.89,2.63C27.5,69,34.5,76.66,39.75,84.28"/><path d="M38.75,37.39c0.08,1.27,0.14,4.34-0.16,6.18C36.18,58.41,29.23,79.46,12,90.5"/><path d="M9,48.22c0.75,0.94,1.75,1.62,3.75,1.39c2.15-0.24,21.34-4.85,30.25-7.23"/><path d="M51.23,45.62c4.85-0.54,8.47-1.6,12.7-2.52c1.24-0.27,3.3-0.26,3.93-0.1"/><path d="M48.87,17.83c0.69,1.12,1.29,2.3,1.29,3.84c0,4.17,0.28,58.83,0.28,65.03c0,3.8,1.57,3.55,3.28,2.14c4.79-3.94,8.81-6.61,11.76-8.6"/><path d="M94.55,29.94c0.25,1.08,0.32,3.53-0.86,4.76c-6.76,7.03-11.88,12.18-19.41,18.04"/><path d="M72.79,15c0.8,1.18,1.49,3.06,1.49,4.55c0,3.93,0.13,53.04,0.13,57.65c0,13.54,0.59,15.55,11.39,15.55c12.2,0,11.89-4.51,11.89-12.57"/></svg>