<svg><path d="M32.15,17.37c0.33,1.01,0.93,2.67,0.76,4.13c-0.84,7.19-6.54,33.27-10.22,41.69c-0.76,1.73,0.33,2.43,0.76,2.56c7.37,2.23,13.81,7.26,19.31,14.34"/><path d="M43.25,37.75c0.08,1.2,0.13,4.13-0.16,5.88C40.75,57.74,34,77.75,17.25,88.25"/><path d="M10.5,51.51c0.77,1.26,1.79,2.16,3.83,1.86c2.2-0.33,21.81-6.48,30.92-9.67"/><path d="M51.56,27.26c0.85,0.36,2.74,0.46,3.58,0.36C67,26.25,83.5,23.25,94.16,23.04c1.42-0.03,2.26,0.17,2.97,0.35"/><path d="M68.78,28.52c0.06,1.01,0.13,2.6-0.12,4.04c-1.48,8.53-10,27.24-21.66,38.7"/><path d="M60.5,58.54c0.42,0.65,0.95,1.14,1.03,2c0.57,6.21,1.71,19.45,2.51,31.21"/><path d="M61.65,60.59c8.85-1.34,25.61-2.91,29.96-3.1c1.8-0.08,2.93,1.86,2.61,3.65c-1.1,6.19-3.26,14.95-4.19,25.54"/><path d="M63.92,90.09c6.58-0.59,21.89-1.72,28.4-1.91"/></svg>