<svg><path d="M66.29,11.89c-0.17,1.23-1.07,2.16-1.77,2.64c-4.39,3-16.71,8.01-33.19,11.22"/><path d="M25.08,35.3c2.69,2.06,6.95,8.46,7.62,11.66"/><path d="M48.38,29.67c2.22,2,5.74,8.22,6.29,11.33"/><path d="M81.45,24.61c0.08,0.98-0.02,1.89-0.32,2.83c-1.44,4.45-6.25,11.8-13.74,17.95"/><path d="M50.03,49.12c0.46,1.27,0.41,2.7-0.23,4.18c-3.37,7.78-8.34,14.68-13.72,22.9c-1.46,2.24-1.46,2.94,1.04,3.27c8.7,1.15,19.73,4.56,28.68,9.87c5.05,3,9.29,6.43,11.69,9.92"/><path d="M69.12,57.68c0.13,1.06,0.07,3.16-0.51,4.66C63.5,75.5,53.5,92.75,26.25,101"/><path d="M14.38,64.43c3.37,0.82,6.21,0.57,9.25,0.3c18.63-1.61,42.91-3.06,62.13-3.43c3.11-0.06,7,0.07,10,0.94"/></svg>