<svg><path d="M53.05,10.75c0.79,0.79,1.32,1.62,1.32,2.77c0,1.24,0,7.03,0,10.39"/><path d="M27.24,26.15c2.96,0.35,5.9,0.08,8.89-0.08c10.25-0.57,28.37-2.19,38.5-2.39c2.75-0.05,5.48-0.25,8.22,0.05"/><path d="M37.39,29.85c4.67,5.36,6.79,10.6,7.21,14.14"/><path d="M73.15,27.46c0,0.91-0.28,1.91-0.65,2.71C70.5,34.5,68,38.88,65.25,43"/><path d="M17.75,47.93c4.15,0.89,8.32,0.43,12.5,0.16c13.98-0.89,34.12-1.85,49.5-2.46c3.85-0.16,7.69,0.21,11.5,0.77"/><path d="M49.66,51.62c0.47,1.38,0.33,2.71-0.25,4.11c-2.78,6.71-5.98,13.63-12.49,22.4c-1.53,2.06-0.89,3.1,1.58,3.32c10.59,0.92,22.58,4.69,31.61,9.88c3.87,2.23,7.2,4.71,9.64,7.35"/><path d="M69.37,59.71c0.13,0.97-0.03,2.58-0.51,3.99C64.75,75.88,52.25,92.38,26,99.25"/><path d="M15.88,66.53c5,0.72,10.1,0.3,14.12,0c15.75-1.15,29.12-2.03,50.87-2.67c4.27-0.13,8.46-0.17,12.62,0.72"/></svg>