<svg><path d="M26.55,18.62c0.33,1.11,0.69,2.93,0.51,4.54c-1.3,11.72-3.8,28.84-6.37,38.68c-0.52,1.98,0.34,2.68,0.76,2.81c4.84,1.55,10.03,4.05,14,7.92c1.41,1.38,2.7,3.36,3.81,4.94"/><path d="M39.73,34.75c0.77,1.78,0.65,3.07,0.36,5.01C37.71,55.44,30.1,78.2,13.12,89.88"/><path d="M10,47.71c0.88,1.29,2.27,1.68,4.25,1.29c9-1.75,22.33-4.73,33.25-7.03"/><path d="M51.84,34.46c1.19,0.2,3.14,0.08,4.33-0.05c6.08-0.66,16.08-2.15,22.4-2.91c1.96-0.23,3.18,0.1,4.18,0.19"/><path d="M44.25,51.25c2.26,0.5,3.88,0.61,6.8,0.25c8.2-1,24.32-3.25,34.64-3.89c2.7-0.17,4.56,0.14,6.33,0.75"/><path d="M65.14,13.25C66.38,14.49,67,16,67,17.72c0,4.53,0.07,51.14-0.14,71.53c-0.04,4.02-0.08,6.81-0.13,7.75"/><path d="M64.75,51c0,1.5-0.42,2.54-0.8,3.33C57.88,66.75,48.5,80,36.25,87.5"/><path d="M68,51c4.56,8.8,13.2,20.09,20.34,27.47c2.02,2.09,4.91,4.41,7.54,6.03"/></svg>