<svg><path d="M28.98,16.87c0.39,1.04,1.08,2.74,0.89,4.24c-0.98,7.39-6.82,34.16-11.13,42.79c-0.89,1.77,0.4,2.46,0.89,2.63c9.38,3.22,19.13,9.22,22.63,18.25"/><path d="M41.75,36.89c0.75,1.36,0.64,2.84,0.34,4.68C39.68,56.41,32.23,78.96,15,90"/><path d="M10,46.72c0.75,0.94,1.75,1.62,3.75,1.39c2.15-0.24,21-4.36,31.75-6.73"/><path d="M55.06,17.83c0.52,1.32,1.04,1.98,1.04,3.75c0,1.76-0.35,50.29-0.35,51.17c0,0.88,0.17,0.88,0.35,2.65"/><path d="M56.97,19.83c2.94-0.22,25.33-2.82,28.02-3.09c2.23-0.22,3.67,2.44,3.5,3.75c-0.35,2.65-0.52,30.43-0.51,49.83c0,2-0.18,2.87-0.18,4.19"/><path d="M56.46,45.41c3.98,0,26.65-2.21,31.16-2.21"/><path d="M55.94,73.56c9.11-1.01,23.28-2.5,31.85-2.95"/><path d="M45.3,90.09c1.71,1.11,4.84,1.22,6.55,1.11C63,90.5,82.5,88.5,95.47,88.35c2.85-0.03,4.55,0.53,5.98,1.09"/></svg>