<svg><path d="M27.48,16.37c0.39,1.04,1.08,2.74,0.89,4.24C27.38,28,21.55,54.77,17.23,63.4c-0.89,1.77,0.4,2.46,0.89,2.63c9.38,3.22,18.38,9.72,22.63,18.25"/><path d="M39.75,37.39c0.08,1.27,0.14,4.34-0.16,6.18C37.18,58.41,30.23,79.46,13,90.5"/><path d="M8.5,46.82c0.78,0.88,1.81,1.51,3.89,1.3c2.23-0.23,22.13-4.51,31.36-6.74"/><path d="M56.9,15.94c0.79,1.05,2.38,3.05,2.16,5.79c-1.01,12.98-6.68,37.24-10,49.38c-1.01,3.7-0.3,5.29,2.51,5.35c12.93,0.28,30.68,1.28,43.23,11.16"/><path d="M59.63,19.76c0.87-0.01,2.65,0.13,3.29,0.01c6.57-1.24,19.47-2.73,23.27-3.76c2.77-0.75,4.02,0.78,3.8,4.37C88.78,39.69,85,76.25,77.08,94.07c-3.24,7.29-6.81,1.73-7.88,0"/><path d="M68.27,29.66c2.66,1.72,6.87,7.09,7.54,9.78"/><path d="M64.81,58.74c2.73,1.95,7.05,8.02,7.73,11.06"/><path d="M43.88,49.92c1.27,0.89,3.59,1.03,4.86,0.89c16.34-1.88,34.08-3.61,47.45-4.02c2.12-0.06,3.39,0.42,4.44,0.86"/></svg>