<svg><path d="M28.12,20.37c0.38,1.13,0.57,2.99,0.38,4.63c-0.97,8.06-4.99,28-9.27,37.43c-0.88,1.94,0.37,2.8,0.88,2.87c6.05,0.78,13.68,5.27,19.13,12.22c1.21,1.54,2.32,3.21,3.27,4.98"/><path d="M40.5,38.75c0.38,1.75,0.36,2.98,0.08,4.67C38.12,58.25,30,78.88,12.75,87.75"/><path d="M10.25,48.71c1,0.92,2.53,1.24,4.5,0.79c7.12-1.62,19.5-5.25,30-7.78"/><path d="M69.23,13c1.32,1.32,1.65,2.75,1.65,4.77c0,4.3-0.11,4.98-0.11,8.58"/><path d="M44.5,29.22c3.09,0.48,5.97,0.51,7.72,0.33c11.4-1.18,30.28-3.43,40.66-4.05c2.98-0.18,4.52,0.03,6.75,0.42"/><path d="M53.38,46.06c0.78,0.78,1.16,2.19,1.16,3.98c0,4.71,0,13.1-0.09,20.96c-0.03,2.29-0.05,3.66-0.07,4.69"/><path d="M55.52,47.9c8.95-1.14,30.63-4.27,32.52-4.4c3.59-0.25,4.49,0.75,4.49,4.91c0,8.97-0.3,15.52-0.81,23.17c-0.47,6.93-3.47,3.68-5.95-0.23"/><path d="M70.57,34.12c1.21,1.21,1.41,2.93,1.41,4.58c0,0.63-0.06,37.87-0.09,53.16c0,3.21-0.02,3.95-0.03,4.77"/></svg>