<svg><path d="M29.31,19.62c0.4,1,0.62,2.38,0.41,3.82c-1.01,7.08-6.53,32.99-10.98,41.27c-0.91,1.7,0.41,2.36,0.91,2.52c6.93,2.21,12.86,5.23,17.52,9.59c1.85,1.73,3.29,3.89,4.83,5.96"/><path d="M40.25,38.39c0.5,1.61,0.88,3.59,0.59,5.43c-2.32,14.84-9.01,36.63-25.6,47.68"/><path d="M11.75,49.22c0.75,0.94,1.75,1.62,3.75,1.39c2.15-0.24,20.09-4.6,29-6.98"/><path d="M58.02,29.49c0.05,1.16,0.06,2.29-0.25,3.42c-1.64,5.97-4.63,13.87-8.85,19.5"/><path d="M58.18,42.37c1.57,0.13,2.88,0.06,4.18-0.08c5.37-0.56,17-1.93,23.16-2.6c1.83-0.2,3.32-0.35,5.12-0.15"/><path d="M69.65,16.13c1.11,1.11,1.69,2.74,1.69,5.09c0,1.03,0.01,58.9,0.01,68.27"/><path d="M54.43,64.55c2.07,0.45,3.85,0.46,5.46,0.27c7.87-0.94,19-1.69,25.26-2.22c1.63-0.14,3.5,0.06,5.14,0.2"/><path d="M45.93,90.76c2.58,0.79,5.18,0.7,7.82,0.57c9.4-0.47,27-1.71,36.27-1.74c2.55-0.01,4.8,0.12,7.18,1.28"/></svg>