<svg><path d="M30.48,20.12c0.39,1.07,0.56,2.81,0.39,4.36c-1.07,9.61-5.25,29.99-10.01,40.87c-0.89,2.04-1.35,3.61,1.12,4.29c5.62,1.56,10.64,3.37,14.87,6.76c1.98,1.59,3.79,3.52,5.41,5.94"/><path d="M42.75,39.48c0.38,1.27,0.41,3.53,0.08,5.33C40,60.25,33.25,80.38,14.75,91.75"/><path d="M10.5,49.25c0.81,1.19,2.12,1.38,3.53,1.02c3.85-1,20.72-5.14,32.97-8.42"/><path d="M50.55,46.78c3.18,0.36,6.33,0.33,9.47-0.09c8.91-1.02,21.92-2.7,30.35-3.4c2.87-0.28,5.75-0.22,8.63,0.18"/><path d="M71.9,16.5c0.99,0.99,1.33,2.62,1.33,4.03c0,22.97-0.04,36.47-0.04,46.33"/><path d="M55.29,68.64c0.91,0.91,1.09,1.73,1.25,2.72c0.58,3.39,1.67,10.55,2.62,17.5c0.3,2.19,0.59,4.36,0.84,6.38"/><path d="M56.81,69.69c7.89-0.84,26.07-2.56,33.71-3.06c2.59-0.17,3.65,1.58,3.3,3.74c-0.62,3.75-3.35,17.72-3.69,19.56"/><path d="M60.95,92.72c5.45-0.29,16.6-0.99,25.17-1.5c2.35-0.14,4.51-0.27,6.3-0.37"/></svg>