<svg><path d="M68.25,11.75c-0.25,1-1.3,1.89-1.94,2.18C61.48,16.15,49,20.12,32.25,22"/><path d="M22.5,33.54c2.5,0.46,4.85,0.52,7.96,0.19c14.91-1.6,31.16-3.1,49.15-4.36c3.12-0.22,5.43-0.15,7.39,0"/><path d="M53.47,20.96c0.91,0.91,1.35,2.04,1.35,3.74c0,3.55,0.05,14.88-0.08,23.32c-0.03,1.99-0.06,3.51-0.1,4.24"/><path d="M50.88,32.38c-0.24,1.04-0.82,2.12-1.54,2.94c-7.44,8.5-19.48,17.66-32.09,21.81"/><path d="M56,33.07c4.56,2.96,19.56,11.49,27.74,15.96c3.02,1.65,6.3,2.93,9.76,3.51"/><path d="M49.71,54.87c0.29,1.38-0.02,3.21-0.75,4.49c-4.21,7.39-5.46,11.02-11.71,19C35.89,80.09,36,80.76,38.5,81c13.25,1.25,21.5,4.25,32.4,10.18c4.21,2.29,7.98,4.82,10.85,7.67"/><path d="M70.75,61c0.13,0.93,0,2.45-0.52,3.79C65.75,76.25,53.75,93,25.25,99.75"/><path d="M14.13,68.86c1.45,0.34,6.94,0.41,8.38,0.34c25.84-1.3,42.74-3.7,67.61-3.65c2.41,0,6.56,0.32,8.51,0.92"/></svg>