<svg><path d="M24.98,16.87c0.39,1.04,1.08,2.74,0.89,4.24c-0.98,7.39-6.82,34.16-11.13,42.79c-0.89,1.77,0.4,2.46,0.89,2.63C25,69.75,33,77.16,38.25,84.78"/><path d="M36.75,36.89c0.08,1.27,0.14,4.34-0.16,6.18C34.18,57.91,27.23,78.96,10,90"/><path d="M7.5,46.72c0.75,0.94,1.75,1.62,3.75,1.39c2.15-0.24,21.34-4.85,30.25-7.23"/><path d="M57.65,16.26c0.19,1.87-0.05,4.32-0.67,5.93c-3.95,10.22-8.18,20.29-17.23,32.73"/><path d="M49.63,44.57c0.08,0.96,0.49,2.19,0.53,3.63C50.52,61,49.45,88,49.78,95.5"/><path d="M89.2,18.75c0.08,0.38,0.29,1.11-0.15,1.54c-5.37,5.41-13.31,10.37-27.31,14.73"/><path d="M56.17,57.8c0.76,0.51,2.16,0.6,2.92,0.51c7.93-0.86,28.73-3.55,37.8-3.51c1.27,0.01,2.03,0.25,2.67,0.5"/><path d="M74.68,32.92c0.63,0.47,1,2.14,1.13,3.08c0.12,0.95,0,45.72-0.13,51.65"/><path d="M57.75,89.15c0.71,0.41,2.01,0.45,2.72,0.41c9.39-0.49,22.99-1.91,32.9-1.86c1.18,0,1.89,0.19,2.49,0.4"/></svg>