<svg><path d="M32.31,21.37c0.4,1,0.62,2.38,0.41,3.82c-1.85,12.94-4.97,29.07-9.48,39.52c-0.76,1.77,0.4,2.4,0.91,2.52c7.22,1.65,11.85,4.65,16.88,9.49c1.91,1.84,3.3,4.15,4.46,6.57"/><path d="M44.5,38.14c0.62,1.23,0.64,2.47,0.33,4.25C42.36,56.82,35.62,78.25,16.75,90"/><path d="M11.5,51.22c0.75,0.94,1.75,1.62,3.75,1.39c2.15-0.24,23.09-5.1,32-7.48"/><path d="M54.98,19.74c1.21,1.21,1.26,2.64,1.26,4.54c0,0.74,0.04,43.22-0.08,59.97c-0.02,3.04-0.01,5.18-0.03,6"/><path d="M57.39,22.38c6.52-0.72,19.74-2.45,31.11-3.48c1.6-0.15,3.58-0.59,5.18-0.13"/><path d="M74.75,23.42c0.98,0.98,1.26,2.08,1.26,3.29C76.01,27.58,76,36.44,76,42"/><path d="M57.42,45.51c11.04-1.58,22.08-3.01,31-3.8c3.12-0.27,3.97,1.34,3.54,3.65c-0.78,4.19-1.83,8.51-2.98,14.01"/><path d="M57.46,63.34c3.61-0.5,19.96-1.88,29.32-2.65c2.6-0.21,4.6-0.38,5.55-0.46"/><path d="M74.98,64.6c0.77,0.77,1.01,1.65,1.01,3.04c0,4.98-0.05,10.98-0.05,16.84"/><path d="M57.14,86.59c5.26-0.44,24.98-1.44,36.25-2.08c1.65-0.09,3.86-0.32,5.51,0.15"/></svg>