<svg><path d="M20.75,16.25c4.5,2.75,8.5,6.38,10.75,10.5"/><path d="M19.63,47.49c0.74,0.39,2.37,0.49,3.4,0.04c1.54-0.66,11.84-5.91,17.72-9.28"/><path d="M54.14,11.5c0.08,1.15,0.05,2.5-0.43,3.58C51.25,20.5,47.25,27.12,40.87,34"/><path d="M53.61,22.12c0.94,0.24,2.72,0.12,4.13-0.09c1.73-0.26,16.76-3.53,21.8-4.53c6.39-1.26,2.46,5-1.34,9.13"/><path d="M60.03,26.2c0.35,0.8,0.31,1.77,0.12,2.78c-1.52,7.64-7.64,19.27-20.39,25.27"/><path d="M60.92,32.47c5.95,5.16,11.58,10.28,19.23,16.17c0.88,0.68,3.59,2.49,5.84,3.21"/><path d="M49.95,55.12c0.45,1.18,0.37,2.75-0.22,4.13c-2.35,5.5-5.52,12.07-11.09,20.33c-1.21,1.8-1.14,2.39,0.53,2.56c11.33,1.11,19.89,4.25,30.03,9.72c4.23,2.29,7.84,4.81,10.05,7.39"/><path d="M67.38,62.93c0.37,1.32,0.22,2.91-0.25,4.24C63,78.75,53,92.88,26,100.5"/><path d="M17.63,68.68c2.38,0.87,6.24,0.83,8.74,0.6c11.78-1.11,41.88-4.03,57.75-4.75C87.47,64.38,92,64.38,95,65.25"/></svg>