<svg><path d="M26.01,32.89c1.02,1.02,1.13,2.34,1.15,4.36C27.38,56,22.75,81.5,12.81,92.97"/><path d="M27,33.95c2.12,0.18,3.82,0.01,5.32-0.21c9.6-1.41,27.86-4.1,43.29-5.52c2.64-0.24,5.27-0.49,7.89,0.07"/><path d="M32.75,48.63c1.19,0.47,3.37,0.41,4.55,0.22c4.2-0.65,10.7-2.02,14.54-2.45c1.96-0.22,3.67-0.39,4.66-0.15"/><path d="M44.39,53.4c0.31,0.78,0.51,1.83,0.21,2.94c-1.48,5.54-5.77,14.25-9.25,20.73c-0.71,1.33,0.3,1.93,0.71,1.97c4.07,0.44,10.16,2.76,15,6.12c2.32,1.61,4.35,3.78,5.74,5.95"/><path d="M55.13,60.46c0.37,1.29,0.37,2.68,0.1,3.81C53.04,73.42,46,86,30.58,92.97"/><path d="M30.75,65.21c0.62,1.04,1.58,1.14,3.21,0.97c1.75-0.18,14.79-2.17,25.29-3.67"/><path d="M57.75,13.5c1.55,1.75,1.9,3.49,2.26,7.25c2.86,29.63,12.34,60.17,30.54,71.84c6.01,3.86,5.13,1.39,4.36-6.36"/><path d="M83.75,47.64c0.25,1.11,0.23,2.39-0.12,3.68c-2.38,8.8-9.48,25.21-20.57,35.64"/><path d="M72.12,12.62c2.89,1.62,7.52,5.34,8.88,8.12"/></svg>