<svg><path d="M24.37,15.87c0.38,1.13,1.07,2.99,0.88,4.63c-0.97,8.06-6.24,31-10.52,40.43c-0.88,1.94,0.38,2.76,0.88,2.87C23.25,65.5,30,70.5,36,80"/><path d="M35.26,36c0.07,1.22,0.13,4.19-0.15,5.96c-2.23,14.32-8.66,34.63-24.61,45.29"/><path d="M7.5,45.07c0.71,0.94,2.12,1.17,4.01,0.94c2.03-0.24,20.6-4.4,28.99-6.78"/><path d="M42.84,21.78c1.05,0.71,2.37,0.53,3.31,0.38c6.71-1.09,14.89-1.94,19.06-2.67c2.71-0.47,3.26,2.12,3.32,5.44c0.17,10.41-2.35,51.23-6.21,63.02c-3.02,9.23-6.14,0.32-7.24-0.71"/><path d="M43.2,42.61c0.67,0.25,1.9,0.32,2.57,0.25c4.28-0.43,14.8-2.3,18.89-2.7c1.11-0.11,1.79,0.12,2.35,0.24"/><path d="M41.77,59.19c0.74,0.27,2.1,0.34,2.84,0.27c4.72-0.47,14.12-1.97,18.63-2.4c1.23-0.12,1.98,0.13,2.59,0.27"/><path d="M51.69,24.18c0.51,1.76,1.25,3.15,1.25,5.35c0,20.1-0.75,44.66-15.37,59.43"/><path d="M75.05,22.46c0.75,0.08,2.09,0.6,3.06,0.42c4.18-0.78,13.22-2.04,15.42-2.81c2.7-0.96,5.41,0.96,4.21,3.2c-1.2,2.24-6.81,15.08-8.92,18.28"/><path d="M89.01,41.51c14.99,14.74,11.24,43.24,0.74,31.97"/><path d="M80.17,23.94c0.16,0.95,0,65.64-0.16,71.56"/></svg>