<svg><path d="M24.88,12.75c3.66,1.14,9.45,4.67,10.37,6.43"/><path d="M17.5,26.76c3.88,0.86,10.03,3.54,11,4.88"/><path d="M18.75,56.39c1.78,1.07,3.41,1.61,4.53,0.29c3.26-3.84,7.01-9.03,9.97-13.93"/><path d="M64.36,11.75c0.05,0.23,0.73,1.22,0.78,2.7c0.25,7.13-0.16,18.04-0.16,20.47c0,6.89-4.17,1.44-5.11,0.83"/><path d="M53.18,21.12c0.03,0.34,0.12,0.89-0.06,1.36c-1.32,3.39-6.91,9.92-11.45,13.04"/><path d="M80.25,20.13c5.11,2.72,11.97,9.7,13.25,13.93"/><path d="M79.9,27.31c0.1,0.69,0.31,1.78-0.21,2.75C75.41,38.08,58.95,51.61,42.25,57"/><path d="M47.77,60.12c0.43,1.02,0.13,2.3-0.22,3.57c-1.7,6.2-6.55,13.07-10.84,18.08c-1.27,1.48-0.24,1.86,0.65,1.87C49.93,83.79,70.5,91.43,77,99.41"/><path d="M68.33,65.36c0.12,0.82,0.21,2.81-0.24,4C64.45,78.97,53.97,92.6,28,99.75"/><path d="M12.38,70.93c2.21,0.57,4.58,0.96,5.64,0.87c22.39-1.8,51.34-5.05,72.72-5.3c1.77-0.02,4.82,0.35,6.26,1"/></svg>