<svg><path d="M28.06,19.62c0.4,1,0.62,2.38,0.41,3.82c-1.01,7.08-4.72,27.94-9.48,38.77c-0.78,1.77,0.4,2.4,0.91,2.52c6.3,1.53,11.32,4.34,15.74,7.91c2.14,1.73,4.09,3.76,5.85,6.15"/><path d="M41.5,37.39c0.38,1.48,0.21,4.35-0.17,6.18C38.75,56.12,31.12,79.25,13.5,90.5"/><path d="M11.75,47.61c0.62,1.26,1.38,1.89,3.22,1.5c2.11-0.45,18.03-4.36,30.53-7.23"/><path d="M66.5,11.75c1.06,1.06,1.35,2.44,1.35,3.64c0,3.61-0.02,7.11-0.02,10.05"/><path d="M52.76,27.73c1.86,0.77,2.93,0.81,5.48,0.46c6.11-0.85,16.49-2.09,21.26-2.69c3.39-0.43,5.2,0.08,4.92,3.75c-0.38,4.73-1.28,13.19-2.22,18.74c-0.36,2.1-0.68,3.74-0.92,4.55"/><path d="M56.38,40.5c6.62-0.75,19.25-2.12,26.07-2.65"/><path d="M56.09,53.17c7.91-0.87,15.54-1.62,24.13-2.45"/><path d="M53.76,28.23c1,1,1.1,2.11,1.1,3.2c0,5.07,0.01,50.07,0.01,54.77c0,4.5,1.13,5.06,3.69,2.62c3.07-2.91,6.05-5.88,9.88-9.69"/><path d="M91.72,53.55c0,1.2-0.31,1.87-1.22,3.09c-1.75,2.37-6.75,7.49-9.92,9.97"/><path d="M63.13,54.23c4.9,3.84,16.37,20.14,24.61,28.65c2.21,2.28,4.76,4.74,7.83,6.51"/></svg>