<svg><path d="M27,13.24c3.83,1.04,8.25,3.01,10.84,5.66"/><path d="M21.71,29.33c3.75,0.85,9.68,3.88,10.61,5.21"/><path d="M22.25,55.88c1.38,0.74,2.53,0.27,3.4-0.64c2.52-2.67,6.3-7.93,8.59-11.33"/><path d="M47.06,21.31c0.88,0.88,0.98,2.01,0.87,3.4C47,36.75,44.12,47.5,36.38,56.22"/><path d="M49.28,23.37c13.6-2.24,27.58-4.03,32.87-4.17c7.36-0.2,1.86,4.43-0.37,5.81"/><path d="M65.16,11.05c0.77,0.77,1.1,1.95,1.1,2.95c0,0.63-0.01,10.73-0.01,16.87"/><path d="M54.75,33.94c0.91,0.19,2.27,0.31,4.09-0.07c3.03-0.62,12.16-2.62,15.71-3.63c2.29-0.65,3.07,1,2.15,2.61c-4.17,7.24-14.45,17.4-27.73,21.25"/><path d="M54.73,38.83c2.91,0.42,18.08,9.04,28.95,14.19c2.19,1.04,4.44,1.98,6.84,2.61"/><path d="M49.61,58.87c0.26,1.13,0.23,2.08-0.22,3.03c-2.84,5.99-6.7,12.3-11.7,18.17c-1.57,1.85-1.32,2.48,1.05,2.52c9.75,0.17,20.97,3.22,30.18,7.82c3.8,1.9,7.04,4.09,9.23,6.48"/><path d="M68.63,61.52c0.12,0.9-0.04,2.33-0.5,3.64C64.47,75.7,53.92,90.9,27.75,98.75"/><path d="M13.38,70.75c2.81,0.71,5.99,0.56,8.87,0.33c20.51-1.59,45.46-3.48,65.12-3.84c2.95-0.05,6.38,0.12,9.12,0.93"/></svg>