<svg><path d="M29.48,16.87c0.39,1.04,1.08,2.74,0.89,4.24c-0.98,7.39-7.31,34.65-11.63,43.29c-0.89,1.77,0.38,2.55,0.89,2.63c9.13,1.47,18.13,8.47,22.63,16.75"/><path d="M41.75,37.39c0.08,1.27,0.14,4.34-0.16,6.18C39.18,58.41,32.23,79.46,15,90.5"/><path d="M10,46.88c0.78,0.84,1.83,1.44,3.92,1.24c2.25-0.22,22.29-3.86,31.58-5.99"/><path d="M69.27,10.14c0.03,0.31,0.06,0.81-0.05,1.26c-0.7,2.66-4.69,8.49-10.16,12.06"/><path d="M50.49,24.85c0.3,0.46,0.31,0.79,0.48,1.37c1.37,4.81,2.66,17.27,3.5,26.24"/><path d="M51.91,26.04c10.6-1.21,29.59-3.23,37.51-4.24c2.91-0.38,4.04,0.65,3.83,3.19c-0.4,4.87-2.81,16.55-4.14,24.65"/><path d="M53.89,37.93c3.45-0.47,33.28-3.94,36.14-4.13"/><path d="M55.02,50.3c7.64-0.52,23.55-2.13,34.09-2.98"/><path d="M71.41,26.43c0.59,1.07,0.69,2.7,0.39,4.12C68.75,45,65.5,56.75,52.51,70"/><path d="M45.5,72.31c0.75,0.25,2.76,0.93,4.75,0.75c13.45-1.24,32.36-3.32,45.14-3.56c2-0.04,3.61,0.07,4.86,0.32"/><path d="M75.87,54.25c1.09,0.5,1.74,2.25,1.96,3.25c0.22,1,0,35.25-0.22,41.5"/></svg>