<svg><path d="M27.48,17.87c0.39,1.04,1.08,2.74,0.89,4.24c-0.98,7.39-7.32,34.16-11.63,42.79c-0.89,1.77,0.39,2.52,0.89,2.63C28,69.75,36,77.66,41.25,85.28"/><path d="M39.75,37.89c0.08,1.29,0.14,4.42-0.17,6.29C37.03,59.31,29.69,80.75,11.5,92"/><path d="M8.5,47.87c0.76,0.84,1.76,1.45,3.78,1.25c2.17-0.22,21.5-4.35,30.47-6.49"/><path d="M85.47,11.39c0.09,0.32,0.19,0.83-0.18,1.28c-2.23,2.71-15,8.65-32.47,12.29"/><path d="M56.28,28.64c0.03,0.46,0.05,1.18-0.05,1.83c-0.59,3.86-4,12.32-8.67,17.5"/><path d="M68.52,27.58c2.49,2.58,6.42,10.62,7.04,14.63"/><path d="M84.77,25.33c4.6,3.07,11.89,12.61,13.04,17.38"/><path d="M87.16,43.25c-0.43,0.89-0.6,1.38-1.12,1.68c-6.51,3.82-15.2,6.73-32.18,9.82"/><path d="M47.45,70.26c1.23,0.35,3.47,0.41,4.7,0.35c12.76-0.59,28.35-3.09,42.94-3.06c2.04,0,3.27,0.17,4.29,0.34"/><path d="M71.49,53.79c0.81,0.41,1.3,1.86,1.46,2.68c0.16,0.83,0,28.06-0.16,33.21"/><path d="M52.01,91.86c1.08,0.33,3.05,0.36,4.13,0.33c14.25-0.39,19.3-2.83,34.34-2.8c1.8,0,2.87,0.16,3.77,0.32"/></svg>