<svg><path d="M28.15,21.87c0.48,1.26,0.3,2.21,0.11,3.56c-0.95,6.64-6.13,28.82-10.3,37.4c-0.67,1.38-0.21,2.1,0.86,2.36c6.94,1.68,12.06,5.18,16.27,9.22c2.04,1.96,3.54,4.16,4.93,6.62"/><path d="M39.26,40.39c0.49,1.36,0.38,3.12,0.1,4.86C37.08,59.32,30.26,80.03,14,90.5"/><path d="M13,49.67c0.5,1.21,1.38,1.71,2.83,1.44c2.04-0.37,18.29-4.36,28.67-6.98"/><path d="M42.76,29.07c2.37,0.43,5.29,0.34,7.65-0.03c8.79-1.35,24.72-2.92,36.22-3.47c2.32-0.11,4.63-0.03,6.93,0.46"/><path d="M53.91,17.09c0.81,0.81,1.23,1.78,1.3,2.92c0.29,4.61,0.8,17.93,1.17,27.48c0.07,1.9,0.14,3.55,0.19,4.8"/><path d="M78.14,14.26c0.8,0.8,1.06,1.87,1.06,2.92c0,0.43-0.07,19.41-0.12,28.32c-0.01,2.6-0.02,4.34-0.03,4.52"/><path d="M57.41,38.77c2.83-0.33,18.31-2.26,20.31-2.26"/><path d="M57.66,50.65c5.21-0.53,16.4-1.94,20.4-2.1"/><path d="M43.76,65.94c2.24,0.56,5.49,0.42,8.25,0.03c8.52-1.2,20.36-2.47,33.75-3.25c2.95-0.17,5.6-0.18,8.5,0.46"/><path d="M66.68,54.9c1.02,1.02,1.27,2.23,1.27,4.02c0,9.15,0.08,20.43,0.03,31.84c-0.01,1.84-0.01,3.66-0.01,5.45"/><path d="M66.43,65.36c0,1.26-0.86,2.99-1.56,3.97C58.26,78.42,51,84,37.84,91.32"/><path d="M68.81,66.72c2.81,2.78,13.46,12.23,19.49,17.01c1.8,1.43,3.58,2.52,5.36,3.35"/></svg>