<svg><path d="M28.98,16.87c0.39,1.04,1.08,2.74,0.89,4.24C28.88,28.5,24,54,18.23,63.9c-1,1.71,0.4,2.46,0.89,2.63c9.38,3.22,16.38,8.12,21.63,15.75"/><path d="M42,36.89c0.08,1.27,0.14,4.34-0.16,6.18C39.41,57.91,32.39,78.96,15,90"/><path d="M10,47.22c0.75,0.94,1.75,1.62,3.75,1.39c2.15-0.24,21.34-4.35,30.25-6.73"/><path d="M52.54,19.4c1.6,0.73,3.5,1.37,5.2,1.22c9.16-0.81,30.46-3.43,34.14-3.72c1.82-0.14,3.69,0.87,3.12,2.96c-1.05,3.82-2.03,6.95-3.4,14.5"/><path d="M73.4,20.36c0.47,0.26,0.75,1.17,0.84,1.69c0.09,0.52,0,9.81-0.09,13.05"/><path d="M54.94,37.53c4.6-0.24,34.07-3.12,38.86-3.37"/><path d="M54.74,20.6c0,3.87,0.24,14.26,0.2,17.88c-0.2,19.81-2.4,35.28-11.19,48.32"/><path d="M62.53,46.74c0.46,1.05,1.13,1.83,1.13,3.22c0,1.4-0.31,46.44-0.31,47.14"/><path d="M64.31,48.59c2.59-0.17,23.47-2.68,25.84-2.89c1.97-0.17,3.36,0.97,3.36,2.27c0,3.04-0.47,32.28-0.46,47.64"/><path d="M64.38,61.79c5.12-0.24,24.2-2.2,28.36-2.2"/><path d="M64.59,75.87c6.87-0.58,19.72-1.2,27.84-2.08"/><path d="M63.89,92.01c5.9-0.31,22.09-2.05,28.76-2.05"/></svg>