<svg><path d="M26.87,22.87c0.38,1.13,0.57,2.74,0.38,4.38c-0.93,7.78-5.18,26.61-9.32,36.4c-0.82,1.93-1.19,3.53,1.16,4.06c5.05,1.14,10.74,3.74,15.2,7.64c1.94,1.7,3.64,3.85,4.96,5.9"/><path d="M39.75,39.75c0.37,1.75,0.39,3.21,0.09,4.99C37.4,59.13,30.39,80.54,13,91.25"/><path d="M10.5,50.46c0.88,1.29,2.28,1.49,4.25,1.04c7.12-1.62,17.5-4.12,29-7.03"/><path d="M79.48,11.29c-0.23,1.18-1.09,1.9-1.91,2.48c-3.95,2.76-14.59,7.09-29.17,10.03"/><path d="M48.27,28.4c1.95,1.66,5.03,6.84,5.52,9.43"/><path d="M61.87,26c2.41,1.72,6.24,7.07,6.84,9.75"/><path d="M86.03,21.64c0.08,0.93,0.03,1.87-0.37,2.71c-1.66,3.52-3.37,6.27-6.85,10.78"/><path d="M52.04,45.97c2.34,0.53,4.5,0.32,6.46-0.01c6.35-1.08,15.26-2.35,20.52-3.09c2.01-0.28,4.1-0.4,6.06,0.11"/><path d="M45.11,58.78c2.55,0.98,6.02,0.67,8.65,0.28c10.49-1.56,19.49-2.93,32.37-3.73c2.65-0.16,5.42-0.38,8,0.22"/><path d="M62.96,48.79c0.27,0.9,0.47,2.16,0.07,3.76C59.88,65.12,52.38,81.38,34.5,95.98"/><path d="M60.3,68.92c1.39,0.17,3.77-0.33,5.09-0.71c5.11-1.46,10.98-2.94,14.24-3.75c2.71-0.68,3.53,1.59,2.61,3.33C77.25,77.25,60.19,94.81,43.23,100"/><path d="M55.4,73c3.55,0.66,21.36,15.08,28.17,19.29c5.07,3.13,7.3,4.08,10.23,4.87"/></svg>