<svg><path d="M27.02,22.12c0.34,1.06,0.45,2.78,0.27,4.31c-0.86,7.5-5.58,27.98-9.36,36.75c-0.77,1.8,0.34,2.54,0.77,2.67c9.53,2.91,16.16,9.53,19.53,15.75"/><path d="M37.51,38.73c0.37,1.52,0.51,3.2,0.1,4.94C34.12,58.62,29,77.62,12.75,89.5"/><path d="M10.75,49.84c0.75,0.97,2.06,1.48,4,0.93c11-3.15,18.25-5.15,28.5-8.18"/><path d="M72.57,13.63c1.08,1.08,1.27,2.37,1.27,3.75c0,0.69-0.05,3.49-0.05,7.68"/><path d="M51.9,27.77c3.62,0.53,7.19,0.49,10.73-0.13c9.64-1.45,17.72-2.08,25.64-2.8c2.95-0.27,5.83-0.49,8.72,0.12"/><path d="M55.76,29.1c0.88,0.88,0.92,2.37,0.87,3.65c-1.1,27.34-6.17,45.04-15.2,56.5"/><path d="M44.49,47.34c2.01,1.36,4.95,5.12,5.45,7.24"/><path d="M39.67,67.91c1.11,0.54,1.89,0.52,2.93-0.03c3.15-1.64,3.77-2.14,7.73-4.45"/><path d="M70.32,33.2c0.04,1.03-0.16,1.99-0.61,2.88c-2.6,6.27-5.08,12.05-8.84,18.29"/><path d="M70.35,43.38c0.95,0.08,2.86-0.09,3.51-0.24c2.44-0.56,9.3-1.99,13.63-3.04c1.23-0.42,2.5-0.5,3.81-0.26"/><path d="M59.53,61.42c2.57,0.48,5.1,0.17,7.72-0.06c7.68-0.68,16.38-1.74,22.61-2.38c2.48-0.25,4.85-0.42,7.24,0.21"/><path d="M76.74,45.4c0.81,0.81,0.92,1.9,0.82,3.29c-1.43,19.94-10.8,35.81-24.65,43.73"/><path d="M76.75,63.38c3.71,7.74,9.25,16.25,13.39,21.76c1.94,2.58,4.13,4.97,6.84,6.64"/></svg>