<svg><path d="M26.48,17.37c0.39,1.04,1.08,2.74,0.89,4.24C26.38,29,20.55,54.76,16.23,63.4c-0.89,1.77,0.4,2.46,0.89,2.63c9.38,3.22,18.38,10.62,23.63,18.25"/><path d="M38.25,36.89c0.08,1.27,0.14,4.34-0.16,6.18C35.68,57.91,28.73,78.96,11.5,90"/><path d="M8.5,46.72c0.75,0.94,1.75,1.62,3.75,1.39c2.15-0.24,21.34-4.35,30.25-6.73"/><path d="M58.14,16.4c0.03,0.2-0.16,0.97-0.35,1.19c-2.49,2.83-4.8,4.96-10.47,7.21"/><path d="M45.85,23.1c0.6,0.71,1.35,2.29,1.5,3.74c0.55,5.3,1.91,16.61,2.46,23.77"/><path d="M48.39,35.18c2.99-0.32,9.3-2.08,10.01-2.08c0.71,0,1.71,0,2.27,0"/><path d="M73.51,17.74c0.71,0.16,1.28,0.48,2.27,0.48s10.8-1.93,11.94-2.09c1.14-0.16,2.08,0.8,1.99,1.77c-0.85,9.34-3.7,29.4-3.84,30.05"/><path d="M72.94,31.48c0.71,0.16,1.28,0.48,2.27,0.48c0.99,0,11.73-0.82,12.87-0.98"/><path d="M50.709138,50.371897 c 2.401445,-0.103347 2.750499,-0.18351 4.387027,-0.437677 3.483453,-0.54101 23.357254,-2.822909 25.564761,-3.00199 3.187698,-0.258599 4.316029,-0.226612 4.876029,-0.226612"/><path d="M65.39,11.75c0.89,0.47,1.43,2.12,1.61,3.07c0.18,0.94,0,38.91-0.18,44.81"/><path d="M47.02,62.21c1.68,0.27,1.91,0.86,5.24,0.27c5.24-0.94,27.45-3.88,29.76-4.28c2.31-0.4,3.3,2.54,2.31,3.89C72.38,78.3,56.82,89.44,37.96,96"/><path d="M51.41,67.44c6.17,0.16,24.17,18.16,38.46,25.33c2.23,1.12,3.85,1.86,5.92,2.23"/></svg>