<svg><path d="M26.98,17.37c0.39,1.04,1.08,2.74,0.89,4.24C26.88,29,20.55,55.26,16.23,63.9c-0.89,1.77,0.4,2.46,0.89,2.63C26.5,69.75,35,77,39.75,84.78"/><path d="M38.75,36.89c0.08,1.27,0.14,4.34-0.16,6.18C36.18,57.91,28.73,79.46,11.5,90.5"/><path d="M8,47.22c0.75,0.94,1.75,1.62,3.75,1.39c2.15-0.24,21.34-4.35,30.25-6.73"/><path d="M48.62,17.26c1.05,0.43,2.98,0.48,4.04,0.43c8.81-0.37,29.95-3.68,36.46-3.18c1.75,0.13,2.82,0.2,3.69,0.42"/><path d="M47.57,29.76c0.29,0.3,1.09,1.05,1.21,1.43c1.01,2.99,2.21,11.24,2.9,16.61"/><path d="M48.88,30.78c7.87-0.53,40.57-3.8,44.23-4.22c1.34-0.15,2.14,1.56,1.95,2.47c-0.79,3.76-2.06,10.32-3.76,15.75"/><path d="M61.44,20.61c0.77,0.47,1.29,2.12,1.39,3.08c0.3,2.84,0.67,13.06,1.22,20.12"/><path d="M77.92,18.29c0.77,0.47,1.16,2.6,0.8,4.73c-0.63,3.81-0.1,13.05-1.7,20.15"/><path d="M51.98,45.82c4.3-0.48,34.5-2.45,39.96-2.93"/><path d="M55.44,54.47c0.93,0.27,2.64,0.28,3.58,0.27c5.78-0.07,18.95-1.88,25.79-1.94c1.56-0.02,2.49,0.13,3.27,0.26"/><path d="M44.88,66.66c1.34,0.55,3.8,0.64,5.14,0.55c9.94-0.68,29.4-3.43,43.94-4.15c2.23-0.11,3.57,0.26,4.69,0.54"/><path d="M71.71,67.61c0.1,0.45,1.42,2.33,1.42,5.16c0,6.71-0.01,14.54-0.01,19.18c0,6.39-5.14,2.37-7.25,0.27"/><path d="M55.39,76.02c0.03,0.42,0.06,1.08-0.05,1.69c-0.66,3.56-4.94,8.89-11.71,14.08"/><path d="M85.19,75.17c4.29,2.93,11.3,11.72,12.37,16.28"/></svg>