<svg><path d="M25.48,16.87c0.39,1.04,1.08,2.74,0.89,4.24C25.38,28.5,20.5,54.5,15.23,63.9c-0.97,1.73,0.4,2.46,0.89,2.63c9.38,3.22,17.38,10.62,22.63,18.25"/><path d="M37.25,36.89c0.08,1.27,0.14,4.34-0.16,6.18C34.68,57.91,27.73,78.96,10.5,90"/><path d="M6.5,46.72c0.75,0.94,1.75,1.62,3.75,1.39c2.15-0.24,21.34-4.35,30.25-6.73"/><path d="M43.38,18.72c1.35,0.47,3.82,0.55,5.16,0.47c14.02-0.79,27.17-3.23,42.29-3.66c2.24-0.06,3.59,0.23,4.71,0.46"/><path d="M60.43,28.37c0.31,0.31,0.64,0.57,0.77,0.96c1.09,3.08,2.89,11.57,3.64,17.09"/><path d="M61.84,29.88c7.49-1.18,19.09-2.56,23.38-3.03c1.57-0.17,2.51,1.02,2.29,2.04c-0.93,4.19-1.58,6.5-2.96,12.3"/><path d="M64.79,43.98c5.04-0.53,14.84-1.45,21.76-2.27"/><path d="M54.87,56.54c0.35,0.41,0.7,0.76,0.85,1.27c1.2,4.09,2.47,16.84,3.3,24.19"/><path d="M56.62,58.81c4.42-1.08,9.85-2.44,13.92-2.98c1.48-0.2,2.38,1.17,2.16,2.32c-0.88,4.78-1.5,12.17-2.8,18.77"/><path d="M58.94,79.05c4.77-0.61,11.03-2.18,12.85-2.07"/><path d="M78.8,55.14c0.37,0.4,0.74,0.72,0.9,1.22c1.27,3.91,2.29,16.69,3.16,23.71"/><path d="M80.22,56.79c7.06-1.53,10.57-2.79,14.87-3.3c1.57-0.19,2.51,1.11,2.29,2.21c-0.93,4.57-2.01,11.08-3.4,17.39"/><path d="M83.1,76.14c5.04-0.58,5.52-0.58,12.44-1.48"/><path d="M47.68,19.61c0,3.5-0.44,67.64-0.44,70.92c0,2.78,0.91,3.82,2.44,3.5c12.06-2.53,43.33-4.36,46.22-4.36c2.88,0,3.84,0.33,6.09,1.16"/></svg>