<svg><path d="M27.48,16.87c0.39,1.04,1.08,2.74,0.89,4.24c-0.98,7.39-7.31,34.65-11.63,43.29c-0.89,1.77,0.4,2.46,0.89,2.63C27,70.25,35,76.16,40.25,83.78"/><path d="M39.75,37.39c0.08,1.27,0.14,4.34-0.16,6.18C37.18,58.41,30.23,79.46,13,90.5"/><path d="M8,47.22c0.75,0.94,1.75,1.62,3.75,1.39c2.15-0.24,21.34-4.35,30.25-6.73"/><path d="M50.15,17.38c1,0.33,2.84,0.38,3.85,0.33c10.07-0.49,25.01-2.95,34.99-3.54c1.67-0.1,2.68,0.16,3.51,0.32"/><path d="M70.95,19.01c0.05,0.22,0.67,1.16,0.71,2.57c0.23,6.77-0.15,17.6-0.15,19.91"/><path d="M71.88,28.92C77.75,28.25,82.5,27,88.61,26.6c0.53-0.03,1.85,0.05,2.12,0.11"/><path d="M56.77,27.66c0.05,0.18,1.21,1.44,1.26,2.59c0.24,5.53-0.01,11.14-0.01,13.02"/><path d="M46.96,43.7c1.14,0.26,3.6,0.64,4.69,0.57c9.7-0.63,31.85-4.02,42.76-4.77c1.83-0.12,3.42-0.12,4.38,0.27"/><path d="M57.61,54.97c6.28-0.01,20.06-2.37,32.83-3.48c1.09-0.09,1.74,0.08,2.28,0.17"/><path d="M57.99,46.15c0.33,0.35,0.78,2.28,0.69,2.86c-1.05,6.78-1.96,10.63-3.07,14.48c-0.45,1.55,0.09,3.92,1.83,3.29c3.83-1.4,29.04-3.66,34.76-4.46c3.72-0.52,5.62,0.93,4.96,4.5c-1.44,7.77-3.9,20.19-7.98,26.86c-2.52,4.11-5.74,5.17-8.74-0.51"/><path d="M47.91,78.58c-0.6,5.28-2.06,11.02-4.94,14"/><path d="M56.06,76.69c1.52,2.48,2.96,9.3,3.34,13.16"/><path d="M65.92,75.33c2,2.04,5.16,8.38,5.67,11.55"/><path d="M77.51,72.59c2.25,1.92,5.82,7.88,6.39,10.86"/></svg>