<svg><path d="M23.23,15.87c0.39,1.04,1.08,2.74,0.89,4.24C23.13,27.5,16.8,52.76,12.48,61.4c-0.89,1.77,0.4,2.46,0.89,2.63c9.38,3.22,15.38,7.62,20.63,15.25"/><path d="M33.5,35.89c0.08,1.23,0.13,4.22-0.15,6C31.05,56.32,24.43,76.77,8,87.5"/><path d="M6.75,44.22c0.75,0.94,1.75,1.62,3.75,1.39c2.15-0.24,17.34-4.35,26.25-6.73"/><path d="M37.03,30.01c0.77,0.35,2.17,0.41,2.94,0.35c6.46-0.48,17.5-2.1,23.4-2.67c1.28-0.12,2.05,0.17,2.69,0.35"/><path d="M40.02,39.22c0.3,0.35,0.6,0.65,0.73,1.09c1.03,3.5,2.31,13.58,3.22,20.06"/><path d="M41.86,40.63c8.89-1.52,16.76-2.53,20.24-2.88c2.17-0.22,3.37,1.71,2.96,3.8c-0.61,3.12-2.35,9.79-3.01,13.95"/><path d="M44.1,58.69c6.35-0.86,15.61-2.02,21.22-2.22"/><path d="M51.12,13.91c0.93,0.46,1.48,2.08,1.67,3.01s0,70.63-0.19,76.42"/><path d="M53.1,56.02C50.27,65.34,42.9,78.53,37,83.81"/><path d="M55.32,65.6c3.31,2.07,8.06,6.38,10.82,10.33"/><path d="M79.14,15.4c0.03,0.78,0.18,2.07-0.05,3.14c-1.48,6.9-4.81,20.52-9.93,30.07"/><path d="M76.31,38.4c1.35,0.34,3.03,0,3.53-0.05c5.16-0.54,11.86-2.22,14.94-2.83c0.88-0.17,3.46-0.02,3.69,0.09"/><path d="M87.27,41.12c0.39,1.31,0.6,2.25,0.19,4.65c-3.68,21.77-10.43,37.88-25.19,46.59"/><path d="M68.25,53.75c4.25,0.75,19.16,27.71,27.2,35.28c1.55,1.46,2.53,1.7,3.8,1.85"/></svg>