<svg><path d="M25.98,16.87c0.39,1.04,1.08,2.74,0.89,4.24c-0.98,7.39-6.31,34.15-10.63,42.79c-0.89,1.77,0.4,2.46,0.89,2.63c9.38,3.22,16.63,9.72,21.13,17.75"/><path d="M37.75,36.89c0.08,1.27,0.14,4.34-0.16,6.18C35.18,57.91,28.23,78.96,11,90"/><path d="M7.5,46.72c0.75,0.94,1.75,1.62,3.75,1.39c2.15-0.24,19-3.61,30.25-5.73"/><path d="M68.29,10.12c0.09,0.26,1.26,1.38,1.35,3.06c0.43,8.07,0.26,13.86,0.26,16.61"/><path d="M51.9,15.66c2.49,1.69,6.44,6.96,7.07,9.59"/><path d="M88.05,13.44c0.02,0.27,0.04,0.71-0.04,1.1c-0.48,2.32-3.21,7.4-6.96,10.51"/><path d="M49.43,28.23c-0.12,3.58-2.17,11.99-3.18,14.12"/><path d="M48.63,32.73c6.46-1.14,31.22-4.11,44.2-4.92c8.93-0.56,0.71,6.7-0.51,7.93"/><path d="M55.51,41.13c0.21,0.2,0.46,0.36,0.53,0.62c0.61,2.32,1.78,11.88,2.39,15.28"/><path d="M56.85,42.49c3.96-0.49,23.38-2.77,27.03-3.27c0.92-0.12,1.99,0.6,1.6,2.02c-0.64,2.31-2.34,8-3.42,11.13"/><path d="M58.88,54.87c5.12-0.67,19.57-1.85,24.88-2.22"/><path d="M50.59,65.1c0.34,1.09,1.18,2.76,1.28,3.5c0.1,0.74,0.33,16.4,0.22,21.01"/><path d="M51.82,67.7c3-0.25,35.86-3.67,38.1-3.69c1.58-0.01,3.53,1.59,3.6,3.19c0.19,4.34-0.39,13.84-1.13,17.49c-1.14,5.67-4.94,1.28-6.2-0.67"/><path d="M69.41,56.37c0.43,0.31,1.42,2.34,1.42,2.97c0,7.19-0.05,36.73-0.14,40.65"/></svg>