<svg><path d="M27.98,17.37c0.39,1.04,1.08,2.74,0.89,4.24C27.88,29,21.55,54.76,17.23,63.4c-0.89,1.77,0.4,2.46,0.89,2.63C27.5,69.25,36,76.75,40.75,84.78"/><path d="M39.25,36.89c0.08,1.28,0.13,4.38-0.16,6.24C36.73,58.11,29.91,79.35,13,90.5"/><path d="M9.5,46.72c0.75,0.94,1.75,1.62,3.75,1.39c2.15-0.24,21.34-4.35,30.25-6.73"/><path d="M47,16.18c0.31,0.32,0.67,0.58,0.77,1c0.89,3.73,2.53,10.07,3.43,15.54"/><path d="M48.96,17.37c5.8-0.79,10.78-1.36,16.13-2.16c1.34-0.2,2.15,0.92,1.96,1.83c-0.8,3.77-1.1,5.49-2.52,11.75"/><path d="M51.86,31.27c4.32-0.48,8.48-1.28,14.42-2.02"/><path d="M73.29,14.79c0.28,0.34,1.09,1.62,1.18,2.07c0.79,3.97,2.19,8.46,2.98,14.29"/><path d="M74.72,15.68c6.53-0.93,13.37-0.96,18.08-1.81c1.18-0.21,1.9,0.98,1.73,1.95c-0.7,4.01-2.03,7.18-2.97,11.52"/><path d="M77.23,29.07c5.02-0.32,9.02-1.07,16.42-1.21"/><path d="M50.98,39.01c0.27,0.47,0.78,1.29,0.93,1.88c1.24,4.82,2.81,14.52,3.59,23.47"/><path d="M52.75,40.83c10.3-1.62,27.32-3.31,34.42-4.13c2.61-0.3,4.18,0.65,4.1,2.68c-0.18,4.83-2.97,19.78-3.43,21.8"/><path d="M54.32,51.13c3.1-0.39,31.18-3.13,35.49-2.86"/><path d="M55.87,62.04c10.63-1.29,22.23-1.84,32.04-2.78"/><path d="M44.94,74.38c1.2,0.51,3.41,0.6,4.62,0.51c6.69-0.46,31.02-2.77,46.04-3.47c2.01-0.09,3.21,0.25,4.22,0.5"/><path d="M70.39,39.99c0.53,0.36,0.86,1.36,0.87,2.58c0.03,6.19,0.16,53.42,0.17,55.44"/></svg>