<svg><path d="M26.04,21.12c0.28,0.91,0.78,2.41,0.64,3.73c-0.71,6.49-3.66,29.49-6.78,37.08c-0.64,1.56,0.29,2.16,0.64,2.31c4.25,1.77,8.1,4.48,11.32,7.91c1.91,2.03,3.59,4.31,5,6.81"/><path d="M36.89,38.16c0.49,1.71,0.39,4.16,0.11,5.92C34.88,57.25,29.5,77,13.21,89.25"/><path d="M12,49.47c0.88,1.03,1.98,1.15,3.59,0.71C21.75,48.5,29,46.12,39.5,43.12"/><path d="M63.39,13.25c1.05,1.05,1.35,2.25,1.35,3.59c0,1.16-0.09,3.28-0.09,5.18"/><path d="M40.62,25.1c2.47,0.49,5.12,0.18,7.63-0.13c9.05-1.12,24.83-3.34,34.49-4.12c2.2-0.18,5.03-0.37,7.15,0.43"/><path d="M54.77,27.64c0.03,0.26,0.07,0.66-0.07,1.03c-0.69,1.82-4.15,5.49-9.08,8.33"/><path d="M74.77,27.08c4.34,1.35,11.21,5.54,12.29,7.63"/><path d="M46.75,43.02c1.83,0.75,4.46,0.52,6.37,0.31c8.63-0.95,16.01-2.07,24.4-3.34c1.2-0.18,2.54-0.39,3.74-0.09"/><path d="M56.12,38c0.88,0.88,1.21,2.38,1.21,3.75c0,1.02,0.3,10.25,0.53,20.5"/><path d="M73.12,34c0.63,1,0.64,2.48,0.46,4C72.38,48,72,52.25,71,60.75"/><path d="M47.5,53.27c2.11,0.86,4.71,0.51,6.9,0.28c6.67-0.72,17.06-2.43,23.36-3.09c1.13-0.12,2.36-0.34,3.49-0.06"/><path d="M39,64.64c2.17,0.88,5.55,0.46,7.78,0.06c9.1-1.63,26.35-3.32,38.85-4.24c2.25-0.17,4.25-0.21,6.87,0.05"/><path d="M58.28,65.39c0.06,0.55-0.01,1.46-0.37,2.2c-2.34,4.78-9.2,11.24-20.9,18.77"/><path d="M53.34,77.45c0.73,0.73,0.91,1.8,0.91,3.06c0,5.56,0.02,8.61,0.03,10.24c0.02,2.56,0.67,3.19,2.9,1.29c2.58-2.21,8.07-7.29,10.45-9.25"/><path d="M80.14,64.19c0.04,0.5-0.35,1.31-0.67,1.69c-1.98,2.38-3.05,3.53-7.2,7.45"/><path d="M61.5,68.75c1.54,0.67,24.46,17.31,28.72,19.8c1.6,0.94,2.98,1.34,4.58,1.61"/></svg>