<svg><path d="M26.98,21.87c0.39,1.07,1.08,2.82,0.89,4.36c-0.98,7.59-7.32,27.59-11.63,36.47c-0.89,1.82,0.39,2.57,0.89,2.7c8.63,2.35,16.88,8.35,22.13,16.19"/><path d="M37.75,38.98c0.08,1.2,0.14,4.11-0.17,5.85C35.03,58.88,27.69,78.79,9.5,89.25"/><path d="M10,46.99c0.71,0.87,1.65,1.5,3.53,1.29c2.03-0.22,20.09-4.48,28.47-6.69"/><path d="M51.5,17.64c1.15,0.05,2.84,0.21,3.97,0.15c5.53-0.29,22.09-2.54,27.48-2.65c1.57-0.03,2.88-0.14,4.32,0.1"/><path d="M48.91,27.08c-0.17,4.45-1.66,8.52-2.75,13.01"/><path d="M48.56,29.76c5.32-1.05,32.26-5.01,43.55-5.01c6.54,0,1.39,4.49-1.2,7.64"/><path d="M68.1,18.93c0.65,1.4,0.94,2.32,0.95,3.69c0.01,0.49,0.3,23.35,0.3,24.7"/><path d="M55.21,34.12c2.34,0.5,5.53,2.01,6.8,2.85"/><path d="M53.06,41.23c2.21,0.67,5.64,3.13,6.85,4.24"/><path d="M76.74,32.26c3.05,0.88,6.5,2.63,7.72,3.36"/><path d="M76.09,41.26c2.65,0.69,6.26,2.76,7.71,3.91"/><path d="M45.28,54.92c1.01,0.46,2.84,0.52,3.86,0.46C56,55,85.84,51.78,92.05,52.31c1.67,0.14,2.68,0.22,3.52,0.45"/><path d="M67.63,55.86c0.01,0.23,0.03,0.6-0.03,0.94c-0.39,1.98-2.63,6.31-5.7,8.96"/><path d="M48.56,66.63c0.46,0.93,0.85,1.9,0.97,3.58c0.17,2.46,0.22,20.54,0.11,25.59"/><path d="M49.6,67.98c5.79-0.74,38.44-4.43,39.58-4.69c2.44-0.56,3.85,0.71,3.82,3.19C92.94,70.55,92.25,81,91.85,91.1c-0.26,6.59-3.96,5.02-5.78,2.61"/><path d="M62.23,68.99c0.55,0.61,1.26,1.81,1.31,2.71c0.18,3.02-0.32,20.55-0.32,21.91"/><path d="M75.65,67.52c0.65,1.4,0.95,2.33,0.95,3.69c0,7.29-0.38,16.54-0.38,22.26"/></svg>