<svg><path d="M25.48,15.87c0.39,1.04,1.08,2.74,0.89,4.24c-0.98,7.39-6.81,32.65-11.13,41.29c-0.89,1.77,0.39,2.52,0.89,2.63C25,66,32.5,72.5,36.25,79.28"/><path d="M35.75,36.39c0.08,1.22,0.13,4.18-0.16,5.95C33.25,56.62,26.5,76.87,9.75,87.5"/><path d="M9,44.27c0.68,0.91,1.6,1.56,3.42,1.34c1.96-0.23,19.46-4.18,27.58-6.48"/><path d="M50.85,16.35c1.24,0.14,2.84,0.25,3.96,0.12c6.61-0.78,19.95-2.49,30.2-3.08c1.57-0.09,2.87-0.12,4.32,0.08"/><path d="M46.56,27.16c-0.09,4.29-0.81,7.84-2.38,12.37"/><path d="M47.22,29.03C63,26.5,79,24.75,92.2,24.18c6.01-0.26,2.9,3.22-0.21,6.95"/><path d="M68.1,17.56c0.96,0.64,1.33,1.9,1.33,3.3c0,6.3-0.18,23.88-0.18,25.29"/><path d="M55.07,33.28c2.14,0.49,5.05,1.96,6.21,2.78"/><path d="M53.1,41.71c2.23,0.59,5.68,2.75,6.9,3.74"/><path d="M76.51,32.17c3.32,1,7.07,3,8.4,3.83"/><path d="M77.98,41.11c2.5,0.73,5.92,2.94,7.28,4.17"/><path d="M41.64,60.98c1.25,0.73,2.45,0.38,3.96,0.3c6.24-0.32,11.71-1.06,18.54-2.16c1.49-0.24,1.88-0.31,2.82,0"/><path d="M55.13,50.77c0.73,0.31,1.17,1.39,1.31,2.01C56.59,53.4,56.3,82.83,56.3,96"/><path d="M55.95,60.62c-2.81,7.83-10.12,18.91-15.97,23.34"/><path d="M57.65,66.94c3.44,1.4,6.47,4.79,9.1,8.78"/><path d="M72.39,52.01c0.33,0.94,0.81,1.64,0.81,2.89s-0.11,39,0,40.25"/><path d="M73.75,53.45c1.86-0.16,15.78-2.16,17.48-2.34c1.42-0.16,2.53,0.87,2.41,2.03c-0.15,1.47-0.55,40-0.66,40.92"/><path d="M73.72,65.14c3.68-0.21,15.8-1.98,18.79-1.98"/><path d="M73.87,78.27c4.94-0.52,14.21-1.87,19.01-1.87"/><path d="M74.46,92.37c3.71,0,13.21-1.4,18.01-1.4"/></svg>