<svg><path d="M31.5,28.06c1.67,0.56,3.88,0.42,5.62,0.29c8.33-0.63,21.28-2.9,29.01-3.45c1.65-0.12,3.14-0.19,4.75,0.13"/><path d="M52.92,10.87c0.98,0.98,1.52,2.51,1.52,3.89c0,8.95-0.19,18.37-0.19,24.5"/><path d="M13.5,43.53c3.38,0.84,7.19,0.56,10.36,0.21c14.75-1.63,38.7-4.24,61.02-5.64c3.56-0.22,7.29-0.31,10.75,0.61"/><path d="M80.84,15.98C81,17.12,80.62,18.75,79.5,20c-15.74,17.49-31,32.88-61.19,50.22"/><path d="M49.13,54.47c0.87,0.26,2.49,0.59,3.81,0.45c5.31-0.55,19.33-2.63,20.81-2.92c2.5-0.5,4.56,1.88,1.25,4.25c-3.5,2.5-8.5,5.62-14.75,9.75"/><path d="M56.5,65c4.94,3.88,8.75,20.12,3.41,30.75c-2.89,5.75-5.41,1.75-7.69-1.42"/><path d="M30.55,75.93c3.06,0.63,6,0.36,9.07,0.03c9.98-1.06,34.62-3.68,45.88-4.39c3-0.19,6.62-0.07,9.16,0.58"/></svg>