<svg><path d="M13.54,26.08c2.3,0.85,4.68,0.45,6.99-0.12c4.99-1.22,13.97-3.61,17.83-4.45c3.05-0.66,5.1,1.56,2.51,4.09c-3.74,3.65-10.51,10.68-14.24,13.9"/><path d="M23.95,40.63c9.8,6.99,14.3,23.12,7.83,45.92c-2.95,10.38-8.53,3.2-10.26,0.8"/><path d="M12.25,61.91c1.36,0.89,2.55,0.83,4.57-0.42c8.92-5.51,12.06-7.37,24.68-15.74"/><path d="M65.32,17.39c0.05,0.8,0.02,1.85-0.35,2.97C62.5,28,55.16,43.46,46.25,53.25"/><path d="M58.97,40.76c3.03,0.49,4.45,0.29,7.16-0.01c6.62-0.75,13.75-2.5,21.11-3.86c2.07-0.38,4.09-0.65,6.16-0.39"/><path d="M79.49,42.18c0.39,1.45,0.17,2.67-0.7,5.1C71.5,67.75,61.38,83.38,41.37,97"/><path d="M53.75,51.76C58.94,53.7,71,73,84.36,86.39c4.2,4.21,6.52,6.49,10.14,7.86"/></svg>