<svg><path d="M31.12,16.51c2.86,1.02,5.79,1.29,8.76,0.78c8.59-1.5,24.14-4.18,30.41-5.29c2.84-0.5,3.24,2.57,1.23,3.95c-4.64,3.18-8.64,5.68-17.23,10.92"/><path d="M49.86,27.1c7.39,3.15,11.14,14.4,8.16,29.27c-1.13,5.6-5.26,3.26-7.81-0.44"/><path d="M16.79,39.61c4.58,1.14,8.43,0.78,12.47,0.26c13.62-1.74,37.62-4.12,51.74-4.41c4.16-0.09,8.27-0.11,12.21,1.38"/><path d="M25.56,66.01c1.03,1.03,1.38,2.24,1.53,3.25c1.19,8.04,1.87,15.25,2.98,23.39"/><path d="M28.15,68.29c11.74-1.25,38.48-3.96,48.84-4.77c3.9-0.31,6.43,0.42,5.68,5.02c-0.92,5.64-2.17,13.72-3.24,20.79"/><path d="M43.69,68.19c0.87,0.87,1.13,2.19,1.22,3.15c0.71,6.91,1.33,13.16,2.03,19.9"/><path d="M62.49,67.54c0.51,1.34,0.58,2.49,0.47,3.67c-0.71,7.92-1.21,12.29-1.92,19.11"/><path d="M13.38,93.54c3.39,1.21,7.64,0.77,11.11,0.44C40.12,92.5,62.25,91.25,86,90.57c3.97-0.11,8.22,0.3,12.13,1.14"/></svg>