<svg><path d="M27,22.96c1.39,0.5,4.11,0.61,5.5,0.47c8.82-0.87,33.24-2.79,43.05-3.59c2.3-0.19,4.8,0.26,5.95,0.51"/><path d="M52.87,10c1.09,0.5,1.96,2.23,1.96,3.25c0,7.25,0.03,16,0.03,21.5"/><path d="M19.41,36.13c0,3.71-2.35,13.9-3.41,16.37"/><path d="M19.74,38.24c15.01-0.99,58.24-4.53,65.95-4.9c12.05-0.59,2.55,7.16-0.45,9.28"/><path d="M33.47,48.49c1.05,0.27,3.04,0.71,4.63,0.47c1.93-0.3,25.94-3.65,27.78-3.65s3.84,0.82,2,2.47c-1.84,1.65-10.32,8.65-14.99,11.64"/><path d="M51.38,58.15C57,65,63.92,79.85,57.83,94.49c-3.33,8.01-6.83,6.01-9.89,0.59"/><path d="M17.44,69.77c1.3,0.65,4.66,0.87,7,0.71c8.17-0.56,52.16-5.24,62.04-4.67c2.33,0.14,4.41,0.22,5.96,0.87"/></svg>