<svg><path d="M15.29,22.33c0.94,0.33,2.69,0.77,4.12,0.56C25.5,22,37.48,19.5,39.12,19.5c1.64,0,3.42,0.99,1.78,2.97c-1.64,1.98-9.18,9.92-13.34,13.51"/><path d="M26.35,36.63c7.15,7.62,12.77,28.15,6.84,48.12C30,95.5,23.87,86.51,22.52,85.63"/><path d="M12.5,57.97c1.36,0.82,3.3,1.23,5.32,0.07c8.92-5.11,12.98-7.61,24.93-15.3"/><path d="M67.01,13.74c1.08,0.58,2.85,2.83,2.85,3.98c0,4.26-0.34,8.97-0.14,12.58"/><path d="M45.5,31.81c1.03,0.06,3.39,0.44,4.4,0.35c8.12-0.73,30.19-2.91,41.76-3.42c1.7-0.07,2.57,0.03,3.84,0.44"/><path d="M63.98,33.37c0.48,1.23,0.23,2.61-0.74,3.97c-3.48,4.91-5.73,7.41-10.8,13.44c-0.74,0.88-0.48,2.5,0.5,2.57c6.07,0.4,11.1,1.27,15.43,3.52"/><path d="M81.01,38.5c0.09,0.87,0.39,2.55-0.19,3.5C72.25,56,63.75,65.75,45,75.5"/><path d="M84.99,55.5c0.1,0.93,0.41,2.69-0.21,3.71C76.75,72.5,65.25,86,45,95.25"/><path d="M76.77,75.33c5.99,3.38,15.49,13.91,16.98,19.17"/></svg>