<svg><path d="M16.79,25.08c2.06,0.73,4.42,0.89,6.52,0.45c5.18-1.1,15.19-4.15,17.81-4.53c1.62-0.23,3.42,0.99,1.78,2.97c-1.64,1.98-8.65,9.03-14.34,15.01"/><path d="M27.35,39.63c8.4,6.12,12.27,27.65,6.34,47.62C30.5,98,24.87,89.51,23.52,88.63"/><path d="M14.12,68.88c1.13,0.37,2.46,0.29,3.83-0.67c8.87-6.25,12.91-9.3,24.8-18.7"/><path d="M78.98,12.14c0.21,1.13-0.71,1.9-1.48,2.49c-4.1,3.15-11.22,7.85-24.95,12.93"/><path d="M66.88,24.88c0.38,1.14,0.19,1.84-0.69,2.98c-3.19,4.17-8.7,9.96-12.87,13.18c-1.57,1.21-1.44,2.33,0,2.85c4.22,1.52,6.81,3.73,10.93,6.36"/><path d="M82,31.22c0.38,1.16-0.13,2.34-0.75,3.1c-6.62,8.05-17.88,18.8-29.75,28.33c-1.66,1.33-1,3.05,1,2.63c8.36-1.75,20.88-4.66,33-6.72"/><path d="M79.75,50.42c3.53,2.8,9.12,11.52,10,15.88"/><path d="M69.05,64.16c0.83,0.83,1.1,1.71,1.1,3.2c0,6.88-0.01,15.97-0.02,22.14c0,2.71-0.01,4.86-0.01,6"/><path d="M56.15,74.34c0.22,0.87-0.11,2.29-0.47,2.94c-2.3,4.1-7.8,10.98-12.68,15.07"/><path d="M82.75,73.25C86.74,76.8,93.58,86.29,95,89.84"/></svg>