<svg><path d="M26.49,16c0.03,0.31,0.12,0.89-0.06,1.23c-2.34,4.33-5.79,8.31-11.89,11.81"/><path d="M12.37,30.01c0.46,0.46,0.73,2.07,0.83,2.99c0.09,0.92,0.37,35.14-0.18,37.44c-0.55,2.3,0.74,2.81,3.05,1.15c1.58-1.14,6.44-7.08,10.16-10.33"/><path d="M18.26,41.83c1.25,1.92,3.22,7.9,3.54,10.88"/><path d="M26.4,28.93c0.59,0.88,1.07,4.57,1.07,6.82c0,27.76,2.28,49.76-11.62,60.16"/><path d="M33.81,26.74c0.61,0.21,1.81,0.9,3.03,0.78c2.91-0.28,8.71-2.14,10.22-2.35c1.52-0.21,3.79-0.43,3.94,4.07c0.07,2.15-0.28,25.01-0.28,36.38c0,11.52-6.2,2.07-6.65,1.64"/><path d="M39.94,39.58c1.54,1.88,3.97,7.72,4.36,10.63"/><path d="M37.14,28.86c0.02,7.39,0,62.84-0.11,68.64"/><path d="M85.26,10.04c0.07,0.26,0.14,0.68-0.13,1.06c-1.61,2.23-11.31,8.14-23.48,10.13"/><path d="M63.19,24.84c0.02,0.37,0.04,0.96-0.04,1.49c-0.43,3.14-2.89,10.04-6.25,14.25"/><path d="M71.89,24.74c1.94,1.87,5.02,7.68,5.5,10.59"/><path d="M82.51,20.51c4.28,2.57,11.05,10.59,12.12,14.59"/><path d="M61.42,43.72c0.72,0.3,2.08,0.77,3.17,0.51c1.32-0.32,22.7-3.93,23.92-4.23c2-0.5,2.86,1.4,1.6,3.19c-1.26,1.79-12.96,11.74-16.16,14.98"/><path d="M72.91,57.41c12.84,11.09,9.34,53.59-3.72,34.6"/><path d="M55.84,65.67c1.04,0.65,2.93,0.75,3.97,0.65c8.74-0.81,27.16-4.17,35.57-3.98c1.73,0.04,2.76,0.31,3.63,0.63"/></svg>