<svg><path d="M59.03,10.01c0.03,0.3,0.07,0.77-0.06,1.19C58.21,13.72,53.9,19.24,48,22.62"/><path d="M49.68,13.36c4.26,1.01,9.92,6.14,11.58,9.69"/><path d="M58.65,27.58c0.03,0.35,0.07,0.9-0.07,1.4c-0.84,2.96-5.64,9.44-12.21,13.41"/><path d="M49.24,31.62c4.1,1.03,9.55,6.23,11.15,9.84"/><path d="M40.39,9.71c0.03,0.23,0.15,0.68-0.07,0.93c-2.8,3.3-6.07,6.25-12.46,8.88"/><path d="M27.04,17.49c0.71,0.74,1.12,2.38,1.18,3.9C28.5,28.5,29,40.75,29.55,49.5"/><path d="M28.87,26.48c3.53-0.34,8.28-1.18,9.12-1.18s2.02,0,2.69,0"/><path d="M29.62,36.73c3.53-0.34,8.28-1.18,9.12-1.18s2.02,0,2.69,0"/><path d="M66.71,14.57C67.43,14.71,68,15,69,15c1,0,11.62-1.72,12.77-1.87c1.15-0.14,2.1,0.71,2.01,1.58c-0.86,8.32-3.01,24.4-3.87,31.28"/><path d="M67.5,24.42c0.72,0.14,1.29,0.43,2.29,0.43c1,0,11.34-1.15,12.49-1.29"/><path d="M68.25,34.67c0.72,0.14,1.29,0.43,2.29,0.43c1,0,9.34-1.15,10.49-1.29"/><path d="M20.72,48.38c0,3.54-1.9,13.26-2.77,15.62"/><path d="M22.24,51.24c9.51-0.99,56.74-4.53,64.45-4.9c12.05-0.59,2.55,7.16-0.45,9.28"/><path d="M38.34,58.52c0.9,0.23,2.6,0.61,3.95,0.4c1.65-0.25,21.13-2.61,22.71-2.61c1.57,0,3.28,0.7,1.7,2.11c-1.57,1.41-8.8,7.38-12.79,9.93"/><path d="M52.07,69.26c3.85,5.15,8.59,16.31,4.42,27.31c-2.28,6.02-4.68,4.52-6.78,0.44"/><path d="M19.69,76.97c1.2,0.6,4.32,0.81,6.48,0.66c7.57-0.52,48.34-4.85,57.49-4.32c2.16,0.13,4.08,0.2,5.52,0.8"/></svg>