<svg><path d="M51.76,11.5c1.05,0.42,2.3,2,2.27,3.22c-0.08,3.82-0.08,6.83-0.08,10.31"/><path d="M27,27.25c0,3.58-3.04,13.44-4.42,15.83"/><path d="M27.6,29.35c8.9-1.6,47.15-5.53,53.31-5.56c9.85-0.04,1.22,7.34-1.86,9.35"/><path d="M36.32,42.43c1.56,0.32,3.58,0.39,4.83,0.23c7.1-0.91,15.48-2.66,21.48-3.15c2.08-0.17,3.36,0.11,4.41,0.23"/><path d="M23.33,58.92c3.24,0.85,6.54,0.53,9.79,0.13c12.16-1.51,24.75-3.43,38.02-4.03c3.36-0.15,6.69-0.31,10.03,0.21"/><path d="M41.5,61.5c0.07,0.89,0.14,2.29-0.13,3.56c-1.61,7.51-10.08,25.44-23.45,34.1"/><path d="M56.24,59.62c1.01,1.01,1.38,2.63,1.38,3.93c0,8.19-0.03,16.89-0.03,22.45c0,9.75,1.79,12.03,18.67,12.03c16.25,0,17.64-2.03,17.64-12.62"/></svg>