<svg><path d="M52.04,9.25c1.11,1.11,1.64,2.5,1.64,4.27c0,3.9-0.07,5.54-0.08,9.08"/><path d="M20.86,24.13c0,4.38-4.03,16.44-5.86,19.37"/><path d="M21.51,27.78c20.24-2.53,48.61-6.03,63.59-6.2c12.9-0.14,0.88,8.16-0.92,9.03"/><path d="M15.63,56.92c2.94,0.58,6.22,0.82,8.42,0.55c20.65-2.6,49.39-6.35,59.89-6.68c3.66-0.12,5.86,0.13,7.69,0.53"/><path d="M66.27,34.33c1.14,1.14,1.76,2.92,1.76,5.27c0,14.56,0.24,47.41,0.24,52.37c0,11.78-6.52,1.78-8.71,0.25"/><path d="M36.46,67.24c3.26,2.23,8.43,9.16,9.25,12.62"/></svg>