<svg><path d="M52.83,12c1.21,1.21,1.55,2.5,1.55,3.72c0,3.08,0,8.73,0,11.53"/><path d="M21.33,27.38c0,3.76-2.4,14.11-3.83,16.62"/><path d="M22.03,31.25c25.47-2.75,41.47-4.13,63.98-5.12c11.61-0.51,0.74,8.65-2.16,10.32"/><path d="M52.57,39c1.15,1.15,1.59,2.94,1.59,4.34c0,5.56,0.1,9.06,0.1,13.16"/><path d="M15.25,60.13c5.09,0.45,9.45,0.38,14.52-0.17c16.98-1.84,34.98-3.09,51.73-3.76c4.03-0.16,7.99,0.29,11.91,1.17"/><path d="M42.26,72.1c0,1.4-0.44,2.75-1.45,4.13c-5.51,7.49-13.72,14.01-25.14,20.52"/><path d="M66.41,72.67c9.42,7.2,17.45,15.5,22.16,24.24"/></svg>