<svg><path d="M52.56,11.25c1.22,1.22,1.31,2.75,1.31,3.95c0,3.31,0,5.66,0,8.67"/><path d="M21.69,27.13c0,3.59-3.4,13.47-4.94,15.87"/><path d="M22.54,29c23.71-3.5,38.08-5,63.89-6.37c10.71-0.57,1.14,7.15-1.53,8.82"/><path d="M19.75,55.08c3.96,0.75,7.87,0.5,11.87,0.04c12.4-1.41,32.38-3,46.88-4.12c3.85-0.3,7.66-0.57,11.5-0.18"/><path d="M53,33c1.12,1.12,1.5,2.62,1.5,4.14c0,7.76,0,36.27,0,51.99c0,4.8,0,8.41,0,9.88"/><path d="M53.5,53.53c0,1.22-0.59,2.87-1.54,4.4C44.43,70.01,29.76,85.1,16,91.85"/><path d="M56.12,55c3.95,3.64,15.35,16.4,24.62,25.12c3.6,3.44,7.52,6.45,11.76,9.03"/></svg>