<svg><path d="M53.06,13.73c0.92,0.92,1.63,2.6,1.6,3.75c-0.09,3.62-0.09,7.03-0.09,10.33"/><path d="M26.67,28.85c0,3.6-3.32,13.5-4.83,15.9"/><path d="M27.53,30.96c12.72-1.58,40.97-4.21,54.14-4.86c9.82-0.48,1.45,6.65-2.17,9.9"/><path d="M49.87,36.87c0.51,1.45,0.52,3.55,0,5.32c-2.74,9.22-7.03,20.09-13.85,30.42c-1.43,2.17-0.76,2.95,1.26,3.14c8.23,0.75,21.61,4.5,33.74,11.77c4.36,2.61,8.24,5.98,10.24,9.48"/><path d="M70,50c0.38,1.48,0.22,3.46-0.26,5.13c-3.88,13.52-17.45,34.6-43.24,42.49"/><path d="M15.13,60.22c2.85,0.74,6.22,0.42,9.12,0.2c11.33-0.85,40.73-4.55,64.72-4.64c2.27-0.01,6.19,0.33,8.03,0.96"/></svg>