<svg><path d="M53.12,12.25c0.88,0.88,1.25,2.12,1.25,3.47c0,3.08-0.08,6.31-0.08,9.11"/><path d="M26.88,27.88c0,3.48-3.01,13.05-4.37,15.38"/><path d="M27.89,29.5c11.61-1.75,40.99-5.38,53.6-5.87c9.51-0.37,1.01,7.15-1.35,8.82"/><path d="M37.25,38.64c0.13,1.11-0.11,2.23-0.41,3.3C34.75,49.25,28,62,20.09,70.44"/><path d="M36.8,47.51c1.12,0.23,2.22,0.2,3.31-0.07c2.51-0.44,6.01-1.18,9.03-1.88c2.55-0.59,3.25,0.99,2.51,3.22C45.75,66.62,34.88,85.5,16.75,98"/><path d="M29,64.5c3.02,1.51,7.29,5.71,8.04,8.06"/><path d="M59.62,45c1,0.75,2.46,0.75,3.72,0.57c4.15-0.57,14.07-1.97,15.73-2.4c2.51-0.64,4.13,1.13,4.03,3.72c-0.17,4.39-3.36,15.86-6.65,22.84c-2.4,5.09-5.29,0.62-5.75,0.37"/><path d="M60.24,45.7c0.97,0.97,0.98,1.8,0.98,2.95c0,14.09-0.09,24.3-0.09,31.47c0,13,1,14.09,15.61,14.09c16.02,0,16.91-1.21,16.91-11.75"/></svg>