<svg><path d="M52.79,11.75c0.98,0.98,1.45,2.25,1.45,3.39c0,3.36-0.08,6.74-0.08,9.8"/><path d="M26.98,27.5c0,3.3-2.94,13.55-4.28,15.75"/><path d="M27.74,29.38C46.25,26.88,71,24.25,80.9,23.97c11.6-0.32,1.35,7.03-1.35,8.9"/><path d="M36.87,39.75c0.88,0.88,1.46,2.48,1.46,3.5c0,3.43,0.02,35.84,0.03,50.5c0,2.44,0,4.43,0,5.75"/><path d="M39.25,41.75c8.04-1.34,21.67-2.88,28.01-3.56c2.93-0.31,5.09-0.02,4.21,3.46c-0.99,3.89-2.14,7.28-3.55,12.89"/><path d="M39.75,58.5c4.97-0.5,18.24-2.26,26.38-3.07c1.36-0.14,2.57-0.25,3.58-0.32"/><path d="M39,75.75c8.69-1.34,24.54-3.43,31.38-4.26c3.19-0.39,4.88,0.76,4.37,3.66c-0.81,4.7-2.16,10.16-3.59,16.37"/><path d="M39.5,95.5c5.08-0.55,19.17-2.05,29.38-2.83c1.45-0.11,2.83-0.21,4.09-0.29"/></svg>