<svg><path d="M52.54,11.25c1.17,1.17,1.84,2.74,1.82,3.75c-0.08,3.16-0.08,7.05-0.08,9.93"/><path d="M26.63,26.78c0,2.82-3.96,13.59-5.08,15.47"/><path d="M27.03,28.49c16.72-1.87,43.97-4.69,56.24-5.3c8.99-0.45,4.24,4.43-0.86,8.03"/><path d="M35,42.8c1.75,0.45,3.66,0.38,5.41,0.18c6.52-0.75,20.65-2.15,27.2-2.77c1.82-0.17,3.37-0.22,5.14,0.21"/><path d="M32.75,55.15c2.25,0.47,4.78,0.24,6.87,0.07C47,54.62,60,53.38,68.99,52.6c2.41-0.21,4.88-0.25,7.26,0.27"/><path d="M23.75,69.4c3.25,0.6,5.43,0.47,7.87,0.22c9.92-1.01,33.55-3.35,45.5-3.95c2.85-0.14,5.81-0.42,8.62,0.2"/><path d="M52.27,31.5c1.3,1.3,1.75,3.13,1.83,5.06C55.88,79.62,44,88.12,24,97.75"/><path d="M53.5,70c9.25,8.25,22.2,19.32,29.2,24.65c2.38,1.81,5.42,2.58,7.8,3.1"/></svg>