<svg><path d="M53.04,9.25c1.17,1.17,1.31,2.38,1.31,4.1c0,3.46-0.09,4.35-0.09,7.5"/><path d="M21.12,21.38c0,3.34-3.34,12.53-4.85,14.75"/><path d="M22.53,24.64c8.82-0.87,56.92-4.98,64.08-5.31c11.18-0.52,2.37,6.31-0.42,8.18"/><path d="M51.91,28.45c0.09,1.14-0.15,2.99-0.69,4.58c-4.3,12.7-14.97,30.71-33.58,43.86"/><path d="M20.5,41.98c3.5,1.25,7.17,0.69,10.76,0.34c11.39-1.11,33.66-3.74,48.62-4.93c3.28-0.26,6.65-0.26,9.87,0.44"/><path d="M42.98,56.42c0.86,0.86,1.19,1.83,1.19,3.07c0,0.61-0.03,21.18-0.04,33.01c0,3.67-0.01,6.5-0.01,7.63"/><path d="M45.11,58.19C47.5,58,69.08,55.3,70.86,55.12c2.52-0.25,3.97,1.13,3.97,3.68c0,4.83-0.08,18.78-0.08,34.45c0,11.05-6.22,2.04-7.02,1.07"/><path d="M45.11,69.09c9.51-0.99,21.68-1.85,28.82-2.38"/><path d="M45.46,80.12c6.35-0.58,20.99-1.96,28.33-2.35"/></svg>