<svg><path d="M52.44,11c0.97,0.97,1.69,2.25,1.69,3.68c0,3.42-0.08,4.99-0.08,8.1"/><path d="M27.09,23.28c0,3.73-2.77,13.98-4.03,16.47"/><path d="M27.99,27.18C41.88,25,72.75,21.5,79.81,21.2c12.19-0.52,1.14,7.87-0.34,8.63"/><path d="M32.76,40.23c1.38,0.4,3.92,0.57,5.29,0.4c8.08-1,19.7-3.38,25.59-3.84c2.29-0.18,3.41-0.04,4.83-0.11"/><path d="M51.26,41.5c0.18,1.1-0.06,2.08-0.72,2.94C47.84,48.63,38.92,55.58,26.5,60.5"/><path d="M48.07,48.96c8.31,7.92,14.18,25.04,6.92,43.51c-2.42,6.16-8.12,0.9-9.3,0.05"/><path d="M49,56c0.17,1.16-0.14,2.17-0.92,3.04c-2.78,3.84-10.78,9.86-22.33,14.21"/><path d="M52.5,65.5c0.21,1.3-0.06,2.45-0.84,3.44c-3.27,5.04-13.97,13.61-29.91,19.56"/><path d="M76.8,45.3c0.14,1.12-0.2,2.09-1.02,2.91c-2.55,3.35-9.29,8.72-18.05,12.19"/><path d="M58.79,62.82c3.72,2.92,18.27,15.42,25.25,20.69c2.49,1.88,4.18,3.12,7.08,3.87"/></svg>