<svg><path d="M53.25,10.5c1,1,1.74,2.53,1.71,3.77c-0.09,3.9-0.1,6.23-0.1,8.83"/><path d="M21.75,24.75c0,3.89-3.25,15.16-4.5,17.75"/><path d="M22.72,27.76c18.03-2.01,43.91-5.26,63.12-5.93c12.16-0.42,3.17,7.41-0.42,9.28"/><path d="M32.77,37.81c0.21,1.75-0.06,3.54-0.73,5.04C27.77,52.4,22.79,61.21,13,72.83"/><path d="M25.71,59.44c0.99,0.99,1.65,2.31,1.65,4.06c0,9.93-0.1,23.35-0.14,31.25c-0.01,1.55-0.01,2.88-0.01,3.94"/><path d="M43.62,44.56c2.26,0.56,5.09,0.25,7.53-0.05c8.81-1.11,20.6-2.76,30.35-3.68c2.29-0.22,4.53-0.24,6.79,0.2"/><path d="M64.17,45.27c0.36,0.8,0.38,1.59,0.08,2.38c-0.54,2.37-1.87,5.47-4.72,10.48"/><path d="M48.26,59.41c0.92,0.92,1.62,2.44,1.64,3.73c0.09,8.52-0.06,20.6-0.11,29.74c-0.01,1.44-0.01,2.8-0.01,4.06"/><path d="M50.98,61.44c2.99-0.15,22.75-2.59,27.9-3.08c3.26-0.31,5.17,0.94,4.95,4.28c-0.46,6.99-1.54,18.46-1.97,27.74c-0.08,1.61-0.13,3.09-0.17,4.39"/><path d="M51.08,76.19c11.67-1.07,21.8-2.32,30.73-2.65"/><path d="M50.97,93.8c10.54-0.64,19.9-1.68,29.68-2.21"/></svg>