<svg><path d="M50.98,9.81c1.2,0.39,2.92,2.31,2.89,3.45c-0.09,3.56-0.09,5.97-0.09,9.21"/><path d="M21.32,21.08c0,3.7-2.45,13.89-3.57,16.36"/><path d="M21.2,25.38c8.69-0.9,58.55-4.3,65.59-4.8C95,20,87.96,26.86,85.22,28.8"/><path d="M29.04,36.24c1.33,0.49,3.76,0.6,5.09,0.49c10.75-0.92,33.06-4.27,38.8-4.69c2.21-0.16,3.54,0.23,4.64,0.48"/><path d="M33.29,37.25c0.05,1.57-0.1,4.05-0.1,6.31c0,14.53-4.92,37.48-17.7,51.8"/><path d="M41.63,47.26c1.07,0.35,3.03,0.44,4.1,0.35c6.81-0.6,18.7-2.46,25.49-3.02c1.77-0.15,2.85,0.16,3.74,0.34"/><path d="M34.26,60.89c0.85,0.35,2.4,0.44,3.25,0.35c5.4-0.6,39.82-4.28,45.66-4.38c1.41-0.03,4.07,0.16,4.77,0.34"/><path d="M41.28,62.71c1.31,1.59,1.22,2.27,1.22,4.53c0,10.71-0.39,25.35-0.39,27.16c0,1.81,1.44,2.84,3.27,1.48c1.83-1.36,12.92-8.78,15.35-10.14"/><path d="M77.23,62.46c0.03,0.3,0.06,0.77-0.05,1.2c-0.67,2.54-4.51,8.1-9.78,11.51"/><path d="M49.65,65.13c6.6,0.12,25.6,22.87,37.5,29.23c2.32,1.24,3.96,2.21,6.1,2.65"/></svg>