<svg><path d="M52.65,8.25c1.11,1.11,1.67,2.75,1.67,4.77c0,4.1-0.06,4.87-0.06,7.23"/><path d="M19.91,21.13c0,3.74-1.74,15.12-2.91,17.62"/><path d="M20.74,24.49C43.25,21.88,72,19.88,87.2,19.34c12.06-0.43,2.55,7.16-0.45,9.28"/><path d="M53.19,27.12c0.97,0.97,1.47,2.51,1.47,4.06c0,9.83,0,14.4,0,16.93"/><path d="M30.56,31.14c3.24,2.27,8.38,8.88,9.19,12.41"/><path d="M74.21,28.85c0.08,0.86,0.06,1.73-0.34,2.49c-1.99,3.78-3.54,6.58-9.01,12.03"/><path d="M33,49.43c0.97,0.97,1.32,2.45,1.32,3.72c0,0.61,0.01,26.95,0.01,39.85c0,3.45,0,5.93,0,6.72"/><path d="M35.15,51.42c2.85-0.22,26.92-2.44,33.24-3.07c4.19-0.42,6.61,1.21,6.61,5.52c-0.02,10.44,0,20.77,0,40.25c0,9.23-6.12,2.88-8.23,0.92"/><path d="M35.9,64.56c12.6-1.06,25.98-2.06,37.79-2.47"/><path d="M35.36,77.68c8.59-0.69,28.2-1.6,38.14-2.05"/></svg>