<svg><path d="M53.53,10.66c0.84,0.84,1.3,2.44,1.3,3.63c0,1.96-0.1,4.21-0.1,8.06"/><path d="M20.75,24.38c0,3.39-3.61,12.7-5.25,14.96"/><path d="M21.51,26.36c13.49-0.98,44.87-4.11,65.16-4.97c11.61-0.49,2.46,6.9-0.43,8.93"/><path d="M39.84,34.23c0.13,1.1-0.32,2.05-0.98,2.98c-2.59,3.68-7.83,7.74-15.69,12.6"/><path d="M65.88,34.38c6.01,3.2,13.34,9.31,15.4,12.58"/><path d="M52.32,43.05c0.09,0.77-0.03,2.13-0.69,3.1c-6.01,8.97-17.01,18.97-34.12,29.71"/><path d="M52.23,47.34c10.69,7.66,22.21,16.25,31.45,22.27c2.87,1.87,5.07,3.4,7.92,4.59"/><path d="M34.27,74.32c0.71,0.71,1.12,1.64,1.32,2.71C37,84.38,37.56,88.22,38.51,95c0.15,1.03,0.29,2.03,0.42,2.96"/><path d="M36.56,76.45c11.31-1.36,23.31-2.7,32.08-3.34c3.51-0.25,5.07,1.59,3.96,5.17c-1.56,5.04-2.56,8.12-4.07,14.3"/><path d="M39.86,95.72c8.45-0.47,16.94-0.92,26.38-1.6c1.26-0.09,3.04-0.18,4.34-0.28"/></svg>