<svg><path d="M52.34,10c1.14,1.14,1.77,2.5,1.77,3.96c0,3.11-0.08,3.9-0.08,6.73"/><path d="M27.25,22.62c0,3.71-3.18,13.9-4.62,16.38"/><path d="M27.9,24.63c10.6-1.26,39.97-4.63,54.87-4.91c9.48-0.18,1.48,6.28-1.61,8.4"/><path d="M32.75,39.89c2.04,0.66,4.32,0.42,6.4,0.21c7.57-0.76,20.98-2.56,28.73-3.1c2.05-0.14,4.22-0.38,6.24,0.01"/><path d="M52.37,28c0.88,0.88,1.46,2.38,1.46,3.75c0,1.02-0.08,21.62-0.08,30.5"/><path d="M33.75,51.89c2.08,0.64,4.39,0.42,6.51,0.22c7.42-0.71,18.58-2.17,26.86-2.83c2.16-0.17,4.12-0.17,6.25,0.23"/><path d="M19,65.64c3.64,0.77,7.35,0.46,11.01,0.08c15.12-1.59,39.03-3.93,51.5-4.64c3.16-0.18,6.88-0.07,9.99,0.69"/><path d="M34,75.85c0.95,0.95,1.5,1.9,1.73,3.15c0.57,3.08,1.52,9.72,2.37,15.63c0.22,1.52,0.42,2.98,0.62,4.33"/><path d="M36.48,77.86c9.39-1.11,26.21-3.08,33.89-3.84c3.95-0.39,5.81,0.49,4.79,4.77c-0.94,3.93-1.7,7.37-3.71,13.09"/><path d="M39.36,95.78c4.89-0.49,20.59-1.86,30.14-2.65c2.01-0.17,3.75-0.31,5.05-0.41"/></svg>