<svg><path d="M52.77,11.69c0.83,0.83,1.44,2.06,1.44,3.56c0,3.42,0.16,5,0.16,7.85"/><path d="M22.35,23.59c0,3.73-3.85,13.98-5.6,16.47"/><path d="M23.04,27.06c17.21-1.43,48.33-4.68,62.58-5.3c12.38-0.53,4.13,6.49,0.08,9.13"/><path d="M36,36.06c1.62,0.44,4.29,0.39,6,0.18c6.51-0.78,18.71-2.59,25.01-2.92c1.89-0.1,3.61-0.45,5.49,0.01"/><path d="M36.75,45.64c0.79,0.43,1.26,1.09,1.41,1.98c0.77,2.23,1.45,5.83,2.05,9.09c0.21,1.15,0.42,2.26,0.61,3.25"/><path d="M39.04,46.98c7.82-0.89,21.94-2.41,28.46-3.01c2.93-0.27,4.38,1.03,3.77,3.46c-0.6,2.4-1.22,3.9-2.97,7.5"/><path d="M41.69,58.35c4.52-0.32,16.37-1.58,24.3-2.23c1.63-0.13,3.08-0.24,4.25-0.3"/><path d="M29.13,68.06c0.84,0.84,1.37,1.69,1.62,3.04c1.14,6.38,2.11,14.69,2.96,22.63c0.16,1.48,0.31,2.92,0.44,4.27"/><path d="M32.06,70.07c13.69-0.95,33.56-2.86,42.99-3.35c3.47-0.18,5.2,1.28,5.04,4.11c-0.23,4.24-1.96,12.92-3.77,21.98c-0.31,1.54-0.7,3.06-1.17,4.67"/><path d="M53.3,70.43c0.7,0.7,1.2,2.07,1.2,3.32c0,6.75-0.02,16.38-0.02,20.71"/><path d="M33.57,82.42c11.93-0.8,35.06-2.17,43.69-2.2"/><path d="M34.56,95.95c10.07-0.57,27.39-1.37,39.96-1.5"/></svg>