<svg><path d="M50.91,11.33c1.24,0.4,3,2.38,2.97,3.54c-0.09,3.66-0.09,7.2-0.1,10.53"/><path d="M21.7,24.12c0,3.8-2.72,14.27-3.95,16.8"/><path d="M21.87,28.45c8.92-0.93,56.54-5.13,63.78-5.48c11.31-0.55,1.71,8.01-1.11,9.99"/><path d="M37.76,31.25c0.23,1.52-0.06,3.5-0.79,4.8c-4.65,8.28-10.55,15.28-21.22,25.36"/><path d="M31.47,47.81c0.84,0.79,1.49,2.54,1.54,3.77c0.5,10.98-0.69,42.46-0.27,48.17"/><path d="M61.43,29.75c0.07,0.81-0.02,1.88-0.24,2.57c-1.4,4.43-3.17,7.86-6.37,13.26"/><path d="M32.27,49.04c9.77-1.03,48.96-4.54,53.15-5.11"/><path d="M56.79,47.61c0.47,0.41,0.85,0.96,0.85,1.66c0,7.12,0.05,32.6-0.23,43.81"/><path d="M33.58,62.55c9.22-0.86,44.49-4.35,48.44-4.81"/><path d="M33.46,77.5c9.73-0.72,45.19-4.69,49.37-5.08"/><path d="M32.96,95.97c9.77-1.03,51.1-4.01,55.29-4.57"/></svg>