<svg><path d="M51.33,10c1.17,0.38,2.84,2.25,2.81,3.35c-0.09,3.46-0.09,4.86-0.09,8.01"/><path d="M22.41,21.63c0,3.48-3.03,13.05-4.41,15.37"/><path d="M22.24,24.24c9.51-0.99,54.74-4.03,62.45-4.4c12.05-0.59,2.55,6.66-0.45,8.78"/><path d="M43.89,27.65c0.06,0.64,0.12,1.65-0.12,2.57C42.34,35.63,34.18,47.5,23,54.77"/><path d="M45.33,35.78c0.55,0,2.5-0.06,3.68-0.15c4.56-0.35,11.59-2.21,13.84-2.36c2.43-0.17,2.95,1.59,2.17,2.65C61.25,41,59,44.5,54,51.53"/><path d="M28.5,53.26c0.5,0.42,1.02,0.78,1.24,1.31c1.75,4.21,2.31,9.81,3.51,17.38"/><path d="M29.64,54.21c12.36-1.77,42.17-3.99,48.55-4.59c2.33-0.22,3.73,2.19,3.4,3.48c-1.38,5.3-2.59,7.4-4.42,13.3"/><path d="M33.25,69.64c5-0.45,40.25-2.84,45.75-3.06"/><path d="M54.96,54.42c0.11,1,0.03,2.53-0.22,4.02C52.75,70,44.25,89.25,16.67,97.67"/><path d="M54.99,72.65c0.77,0.88,1.39,1.92,1.43,3.28c0.21,6.07-0.05,7.98-0.05,12.1c0,9.64,9.26,8.92,18.38,8.92c9.62,0,15.95-1.24,17.3-1.94c2.86-1.48,2.08-2.22,2.34-4.82"/><path d="M67.5,75.58c3.71,2.06,9.57,8.46,10.5,11.65"/></svg>