<svg><path d="M51.51,10c1.05,0.42,2.55,1.5,2.52,2.72c-0.08,3.82-0.08,6.33-0.08,9.81"/><path d="M23.55,23.77c0,3.41-2.87,12.79-4.17,15.07"/><path d="M23.6,26.16c8.9-1.47,54.15-5.35,60.31-5.37c9.85-0.04-0.32,7.57-1.86,8.35"/><path d="M26.07,41.16c0.48,0.18,1.37,0.24,1.85,0.18c6.26-0.72,13.82-2.12,19.93-2.51c0.8-0.05,1.29,0.09,1.69,0.18"/><path d="M17.83,56.3c0.64,0.23,1.81,0.27,2.44,0.23c4.67-0.33,22.34-2.66,29.41-2.9c1.06-0.04,1.7,0.11,2.23,0.22"/><path d="M32.01,59.5c0.05,0.81,0.11,2.09-0.1,3.26c-1.23,6.87-7.73,23.24-18,31.16"/><path d="M39.99,56.87c1.07,1.19,1.98,2.59,1.98,4.43c0,10.7-0.26,16.14-0.26,21.7c0,13,12.33,11.53,24.97,11.53c13.33,0,22.1-1.68,23.97-2.62c3.96-2,2.88-3,3.24-6.5"/><path d="M65.94,31.09c0.39,0.21,1.21,1.58,1.29,2.01c0.08,0.42-0.05,19.99-0.13,22.64"/><path d="M67.58,41.82c2.19-0.23,15.82-3.41,17.01-3.41c1.19,0,2.8,0,3.78,0.24"/><path d="M58.09,56.8c1.42,0.23,3.6,0.57,6.45,0.23c2.85-0.34,14.97-3.93,16.94-4.27c1.96-0.34,3.38,1.24,2.67,2.52c-7.4,13.47-15.65,23.22-32.4,29.76"/><path d="M59.14,64.56c8.82,3.29,17.28,10.74,24,19.17"/></svg>