<svg><path d="M51.65,9.33c1.04,0.34,2.52,2,2.49,2.97c-0.08,3.07-0.08,6.3-0.08,9.1"/><path d="M22.45,21.62c0,3.69-2.2,13.84-3.2,16.3"/><path d="M22.37,24.45c8.86-0.8,56.13-5.18,63.32-5.49c11.23-0.47,1.2,7.3-1.6,9"/><path d="M37.24,29.97c0.4,0.61,0.68,0.92,0.8,1.72c0.75,4.98,3.48,19.2,3.48,19.6c0,0.4,0.13,0.03,0.26,0.84"/><path d="M38.7,31.19c2.25-0.1,28.47-3.58,30.52-3.7c1.71-0.1,2.74,1.11,2.67,1.72c-0.28,2.64-1.53,11.12-2.89,19.81c-0.14,0.91-0.13-0.18-0.13,0.42"/><path d="M40.35,40.59c3.04,0,26.66-2.61,30.1-2.61"/><path d="M42.7,50.23c6.2-0.44,17.52-1.6,25.23-1.97"/><path d="M24.29,61.12c1.37,0.47,3.88,0.57,5.25,0.47c8.95-0.64,40.16-3.6,53.39-3.59c2.28,0,3.65,0.22,4.79,0.46"/><path d="M53.42,61.51c1.13,0.43,2.03,1.91,2.03,2.8c0,7.44-0.22,19.44-0.22,25.74"/><path d="M55.44,76.6c9.19-0.83,16.31-2.35,22.16-3.03c1.81-0.21,2.92,0.2,3.83,0.4"/><path d="M38.1,70.42c0.06,0.67,0.12,1.72-0.12,2.67c-1.42,5.64-9.54,18.02-20.67,25.6"/><path d="M34.77,82.58C42.5,85.25,63.75,96,83.75,99.13c2.71,0.42,4.87,0.64,7.49,0.87"/></svg>