<svg><path d="M50.83,8.84c1.27,0.41,3.08,2.44,3.05,3.63c-0.09,3.76-0.09,7.43-0.1,10.85"/><path d="M17.33,23.41c0,3.96-2.81,14.86-4.08,17.5"/><path d="M17.53,26.03c9.16-0.95,63.05-4.31,70.48-4.67c11.62-0.56,1.24,7.74-1.66,9.77"/><path d="M37.25,32.72c0.95,1.08,1.55,2.92,1.55,4.18c0,12.14-0.03,59.59-0.03,63.72"/><path d="M21.35,40.88c1.08,0.5,1.48,1.08,1.58,2.73c0.14,2.47-1.58,8.57-1.91,11.16C20.91,55.6,21.23,57,22.8,56.7c4.95-0.95,12.02-2.12,15.6-2.63"/><path d="M14.32,70.29c1.18,0.22,1.42,0.86,2.8,0.71c5.9-0.64,17.36-2.92,21.47-3.28"/><path d="M25.9,71.89c0.03,0.63,0.24,1.61,0.24,2.51c0,7.5-4.9,19.34-11.7,24.05"/><path d="M49.95,43.82c0.96,0.21,2.72,0.3,3.68,0.21c8.36-0.78,20.11-2.28,29.15-3.48c1.58-0.21,2.56,0.1,3.36,0.21"/><path d="M46.13,58.04c0.62,0.19,2.27,0.71,3.9,0.57c6.52-0.57,27.29-3,38.59-3.95c1.64-0.14,3.09,0.19,4.12,0.38"/><path d="M66.36,27.75c1.03,0.38,1.64,1.71,1.85,2.48c0.21,0.76,0,65.51-0.21,70.27"/><path d="M68.1,56.15C64.2,66.6,54.11,82.44,46,88.36"/><path d="M67.5,56.58c3.84,5.98,20.07,23.05,25.79,28.04c1.43,1.25,2.57,1.88,3.96,2.26"/></svg>