<svg><path d="M51.72,8.81c1,0.33,2.44,1.93,2.42,2.88c-0.07,2.97-0.07,7.07-0.08,9.78"/><path d="M22.57,20.58c0,3.48-2.63,13.04-3.82,15.36"/><path d="M22.7,23.88c8.69-0.9,56.54-3.45,63.59-3.8c11.01-0.54,1.67,6.78-1.07,8.71"/><path d="M27.74,38.5c1.19,0.42,2.58,0.51,3.77,0.42c10.95-0.78,35.25-3.7,47.88-3.76c1.99-0.01,3.18,0.2,4.17,0.42"/><path d="M40.16,28.91c1.45,1.04,1.91,1.35,2.06,1.99c1.44,5.97,1.86,11.03,2.27,13.2"/><path d="M65.38,27c0.3,0.87,0.62,1.49,0.36,2.58c-1.25,5.15-1.78,7.92-3.2,13.07"/><path d="M32.42,49.13c0.45,0.45,1.26,1.95,1.34,2.54c0.61,4.53,2.31,14.78,2.31,15.07c0,0.3,0.15,0.3,0.3,0.9"/><path d="M34.51,50.48c6.83-0.84,37.66-3.51,39.98-3.6c1.93-0.08,3.1,2.08,3.02,2.54c-0.63,3.61-2.59,12.51-3.64,16.22"/><path d="M34.96,57.74c3.44,0,37.02-2.46,40.91-2.46"/><path d="M36.54,66.39c7.01-0.32,28.41-1.61,37.14-1.88"/><path d="M21.33,78.34c1.5,0.61,3.17,0.76,4.15,0.67c19.77-1.76,44.27-3.01,60.09-3.49c1.24-0.04,3.68-0.02,5.33,0.38"/><path d="M53.75,67.54c0.5,1.21,0.54,1.52,0.33,2.49C50.25,87,39.5,96.25,21.85,101.75"/><path d="M52.62,77.01c7.64,5.38,24.2,18.06,31.83,21.66c2.6,1.23,3.5,1.41,4.68,1.52"/></svg>