<svg><path d="M52.76,10.86c1.07,1.07,1.51,2.41,1.49,3.35c-0.08,2.94-0.08,3.7-0.08,6.38"/><path d="M27,21.5c0,3.37-2.92,12.65-4.25,14.89"/><path d="M27.86,25.13c14.01-1.88,37.39-4.88,53.15-5.7c9.47-0.51,2.01,6.23-0.35,8.06"/><path d="M29.22,39.5c1.92,0.78,4.19,0.29,6.17,0.08c9.32-0.99,26.48-3.32,36.98-4.21c2.21-0.19,4.46-0.27,6.63,0.26"/><path d="M42.48,29.89c0.82,0.82,1.14,1.74,1.31,3c0.79,5.86,0.71,9.62,0.97,14.09"/><path d="M61.93,28.28c0.83,0.83,0.98,1.73,0.86,3.54c-0.29,4.68-1.04,8.68-1.58,13.06"/><path d="M34.17,47.99c0.86,0.86,1.17,2.26,1.17,3.84c0,0.58,0.05,13.92,0.03,22.55c-0.01,1.8-0.02,3.39-0.03,4.62"/><path d="M36.29,49.59c2.93-0.21,23.64-3.04,30.7-4.05c3.47-0.49,4.73-0.17,4.73,3.59c0,3.87-0.14,13.66-0.2,21.13c-0.02,2.18-0.03,4.16-0.03,5.74"/><path d="M36.51,57.98c9.36-1.36,25.11-3.36,33.72-3.65"/><path d="M36.56,67.01c7.56-0.76,25.02-2.81,33.56-3.13"/><path d="M36.45,75.32c7.67-0.57,24.77-2.31,33.31-2.63"/><path d="M45.99,77.5c0.08,0.58,0.05,1.55-0.41,2.32C42.5,85,33,94.88,17,101.5"/><path d="M58.49,75.69c0.85,0.85,1.22,1.94,1.22,3.06c0,1.76-0.08,6.75-0.08,9.88c0,8.37,1.88,9.87,16.08,9.87c16.79,0,17.54-1.12,17.54-7.89"/></svg>