<svg><path d="M51.53,7.25c1,0.33,2.44,1.93,2.41,2.87c-0.07,2.97-0.07,8.03-0.08,10.73"/><path d="M19.41,19.88c0,3.42-2.35,12.83-3.41,15.12"/><path d="M19.24,23.61c9.31-0.96,59.02-4.41,66.57-4.77c11.81-0.57,4,5.97,1.06,8.03"/><path d="M35.75,31.22c1.11,1.03,1.83,2.79,1.83,4c0,11.62-0.04,61.45-0.04,65.4"/><path d="M21.33,39.13c1.26,0.48,1.74,1.04,1.85,2.62c0.16,2.37-1.68,10.52-2.07,13c-0.13,0.79,0.29,2.37,2.1,1.85c3.79-1.1,8.08-1.33,14.39-2.06"/><path d="M14.8,67.87c1.23,0.11,1.48,0.42,2.92,0.35c6.15-0.32,15.32-2.44,19.61-2.62"/><path d="M23.81,69.02c0.02,0.65,0.45,1.67,0.45,2.61c0,7.99-2.76,17.37-8.96,24.46"/><path d="M50.33,32.07c0.85,0.4,2.92,0.85,3.63,0.81c0.96-0.05,22.23-3.07,23.37-3.28c1.13-0.2,2.41,0.59,2.27,2.02c-0.64,6.8-1.98,15.73-2.41,18.97"/><path d="M43.34,42.77c1.34,0.74,3.81,0.86,5.15,0.74c13.98-1.25,23.5-2.49,39.05-4.08c3.27-0.33,4.21-0.19,6.46,0.17"/><path d="M50.77,52.46c0.8,0.44,2.27,0.51,3.08,0.44c7.57-0.67,15.06-1.15,22.67-2.08c0.78-0.09,2.24-0.57,3.46-0.28"/><path d="M46.61,62.09c-0.11,2.79-1.73,8.58-2.66,10.24"/><path d="M48.4,62.88c9.6-1.13,26.6-3.63,38.66-4.4c10.73-0.68,1.8,5.99,0.8,6.94"/><path d="M53.58,70.75c1.19,0.2,1.34,0.5,3.71,0.2c2.38-0.3,17.32-3.03,18.96-3.33c1.63-0.3,2.82,1.1,2.23,2.2c-6.98,13-19.3,24.03-32.66,28.93"/><path d="M51.94,75.85c3.91,0.54,22.98,15.12,36.58,21.09c2.12,0.93,3.66,1.55,5.63,1.86"/></svg>