<svg><path d="M51.25,8.06c0.98,0.32,2.39,1.9,2.37,2.82c-0.07,2.91-0.07,6.93-0.08,9.58"/><path d="M20.07,20.58c0,3.48-2.8,13.04-4.07,15.36"/><path d="M20.2,23.38c9.4-0.9,59.54-4.45,67.17-4.8c11.92-0.54,2.27,5.78-0.7,7.71"/><path d="M25.67,32.65c1.06,0.44,1.97,0.39,3.54,0.3c4.52-0.27,14.74-2.22,15.71-2.27c2.18-0.1,2.58,0.57,2.72,2.49c0.03,0.4-0.41,17.2-0.41,21.43"/><path d="M38.41,34.19c0.04,0.28,0.09,0.72-0.08,1.13c-1,2.37-6.76,7.59-14.63,10.77"/><path d="M42.7,41.95c0.05,0.39,0.11,1-0.11,1.55c-1.32,3.27-8.89,10.45-19.25,14.84"/><path d="M55.92,30.87c1.25,0.49,2.31,0.36,4.16,0.33c5.09-0.1,15.01-1.68,16.16-1.73c2.56-0.11,3.2,1.04,3.2,2.59c0,0.45-0.48,22.44-0.48,27.09"/><path d="M69.1,33.59c0.03,0.27,0.06,0.69-0.06,1.08c-0.75,2.27-5.04,7.24-10.91,10.29"/><path d="M75.64,41.21c0.04,0.28,0.08,0.71-0.08,1.11c-0.94,2.35-6.32,7.49-13.69,10.65"/><path d="M54.59,51.46c0.1,0.57,0.43,1.55-0.19,2.28c-4.43,5.18-14.77,13.88-34.52,21.83"/><path d="M55.1,53.85c4.97,4.01,26.39,17.09,31.88,20.02c1.86,1,4.25,1.42,6.11,1.71"/><path d="M56.92,64.81c0.08,0.38,0.28,1.03-0.15,1.53c-2.8,3.26-12.21,9.61-26.06,14.07"/><path d="M66.64,71.29c0.1,0.47,0.35,1.28-0.19,1.88C62.81,77.28,50.9,85.5,33.03,91.18"/><path d="M75.89,80.74c0.13,0.52,0.27,1.34-0.24,2.08c-3.02,4.39-20.32,14.03-44,19.93"/></svg>