<svg><path d="M53.08,11.25c1.15,1.15,1.26,2.25,1.26,3.79c0,3.4-0.08,3.45-0.09,6.55"/><path d="M24.12,22.25c0,3.42-4.55,13.97-6.05,16.25"/><path d="M24.78,25.3c12.72-1.05,45.59-4.05,58.59-4.53c10.53-0.39,2.73,5.26,0.11,7.1"/><path d="M30.87,33.5c0.16,1.7-1.61,9.19-2.9,12.01"/><path d="M39.04,30.96C46,40.25,51.76,43.13,65.06,42.68c5.44-0.18,5.69-2.43,1.89-5.65"/><path d="M51.05,29.37c1.3,3.14,3.18,6.28,4.57,1.47"/><path d="M72.65,28.98c3.29,1.47,6.47,3.52,9.19,7.38"/><path d="M28.56,50.53c0.63,0.56,1,1.27,1.12,2.12c0.73,2.23,1.69,5.58,2.43,8.96c0.24,1.1,0.44,2.17,0.58,3.14"/><path d="M30.25,51.29c10.89-0.91,36.13-2.79,46.03-3.36c2.47-0.14,4.85,1.2,4.26,3.65c-0.51,2.12-2.32,6.25-2.47,6.62c-0.34,0.83-0.68,1.66-1,2.48"/><path d="M44.82,51.59c0.48,0.48,0.59,1.15,0.67,1.86c0.34,2.96,0.79,5.92,0.91,7.49"/><path d="M61.38,50.38c0.49,0.49,0.44,1.21,0.39,1.99c-0.16,2.54-0.44,5.97-0.58,7.02"/><path d="M33.54,63.09C41,62.25,70,60.12,76.24,59.96"/><path d="M21,73.51c2.7,0.81,6.25,0.56,9.01,0.32c13.22-1.14,35.68-3.64,50.75-4.44c3.14-0.17,5.91-0.11,8.99,0.44"/><path d="M56.08,74.9c0.89,0.89,1.14,1.97,1.14,3.37c0,7.48,0.02,11.73,0.02,15.42c0,10.31-6.74,0.86-8.11-0.02"/></svg>