<svg><path d="M51.84,9.06c0.91,0.29,2.2,1.74,2.18,2.59c-0.07,2.68-0.07,5.87-0.07,8.31"/><path d="M21.32,20.33c0,3.08-2.45,11.55-3.57,13.61"/><path d="M21.2,22.38c8.69-0.9,57.53-3.52,64.59-3.8c8.46-0.33,2.17,5.28-0.57,7.21"/><path d="m34.83,26.81c0.81,0.33,1.37,1.56,1.31,2.55-0.3,4.68-1.28,13.59-2.68,17.44-0.52,1.41-0.07,2.08,1.36,1.85,9.6,-1.54,23.93,-2.65,36.87,-2.61"/><path d="M36.19,29.4c0.83-0.06,29.75-2.5,33.87-2.43c1.6,0.02,3.06,0.96,2.74,2.5c-1.21,5.87-1.98,9.09-3.79,16.39"/><path d="M53.28,28.31c0.9,1.69-0.02,5.82,0.65,2.77c0.33-1.49-0.86,9.14-1.95,14.98"/><path d="M20.88,38.38c1.51,0.39,3.09,0.78,4.19,0.71c13.01-0.85,37.02-3.74,58.5-4.54c1.82-0.07,3.4-0.1,4.31,0.23"/><path d="M35.37,54.35c0.56,0.71,1.37,2.24,1.37,3.17s0.11,28.9,0.11,29.37"/><path d="M37.19,55.9c3.15-0.05,27.62-2.71,30.49-2.78c2.39-0.06,3.6,0.73,3.6,2.87c0,3.69-0.39,19.32-0.38,29.5"/><path d="M37.62,65.25c8.9-0.33,25.39-2.54,33.17-2.44"/><path d="M37.4,74.63c8.4-0.68,22.98-2,33.02-2.31"/><path d="M37.25,84.02c10.46-0.55,21.92-1.37,32.54-1.96"/><path d="M44.21,88.46c0.51,1.03,0,2.32-1,3.04c-3.04,2.19-11.4,6.53-17.47,9.07"/><path d="M63.21,88.79c6.94,3.06,15.15,8.53,17.04,11.13"/></svg>