<svg><path d="M52.86,10.41c0.86,0.86,1.12,2.09,1.12,3.38c0,3.23-0.08,4.48-0.08,7.42"/><path d="M26.75,22.75c0,3.52-2.93,13.74-4.27,16.09"/><path d="M27.91,25.02c12.22-1.77,39.97-4.89,53.32-5.31c10-0.32,3.39,4.92-0.62,8.44"/><path d="M33.75,32.69c2.02,0.82,4.57,0.17,6.62-0.09c6.91-0.87,19.23-2.59,25.38-3.24c1.8-0.19,3.47-0.33,5.25,0.11"/><path d="M51.98,33.42c0.22,0.08-0.21,1.39-0.35,1.62c-0.64,1.08-1.3,2.42-2.38,3.83"/><path d="M38.06,39.61c0.79,0.79,1.16,2.06,1.16,3.25c0,3.14-0.06,23.01-0.06,23.4"/><path d="M40.19,42.09c4.81-0.84,22.38-3.03,24.7-3.14c1.93-0.09,3.03,0.55,3.03,2.46c0,3.35,0,13.52,0,21.68"/><path d="M40.4,50.27c5.85-0.52,21.1-2.27,26.14-2.68"/><path d="M40.1,58.26c7.9-0.88,18.02-2.01,26.63-2.61"/><path d="M20.25,67.65c3.05,0.79,6.76,0.51,9.87,0.21c14.22-1.36,38.95-3.89,52.5-4.3c2.8-0.08,5.61-0.12,8.38,0.31"/><path d="M41.02,67.75c0,1.19-0.42,2.09-1.02,3.08c-4.3,7-14.97,16.5-23,19.39"/><path d="M61.75,65.5c7.33,3.61,15.48,11.49,23.77,16.92c2.64,1.72,5.35,3.32,8.23,4.58"/><path d="M39.38,78.26c2.04,0.62,3.68,0.66,5.76,0.4c6.16-0.77,14.25-1.92,18.5-2.37c3.51-0.37,4.86-0.13,4.42,3.71c-0.5,4.37-2.63,12.7-5.44,16.69c-3.43,4.87-3.95,1.81-6.77-0.3"/><path d="M48.62,81c0.12,1.12-0.02,1.72-0.59,2.71c-3.22,5.55-7.59,10.5-15.95,16.87"/></svg>