<svg><path d="M52.23,9c0.84,0.27,2.03,1.61,2.01,2.4c-0.06,2.48-0.06,6.2-0.06,8.46"/><path d="M21.91,19.13c0,3.48-3.03,13.05-4.41,15.37"/><path d="M21.74,22.71c9.51-0.88,58.74-4.63,66.45-4.88c10.55-0.33,2.55,5.39-0.45,7.28"/><path d="M27.35,29.39c0.44,0.17,2.85,0.21,3.3,0.16c2.09-0.23,10.58-0.98,15.59-1.23c0.69-0.03,1.95-0.12,2.52,0.02"/><path d="M37.12,30.02c0.72,0.37,1.22,1.15,1.22,1.44c0,2.46-0.07,13.59-0.22,15.23"/><path d="M27.07,39.09c0.4,0.19,3.19,0.21,3.6,0.17c2.33-0.24,10.93-1.67,14.16-1.94c0.5-0.04,2.31-0.08,3.05,0.09"/><path d="M24.37,49.17c0.45,0.09,2.2,0.8,2.87,0.62c4.31-1.14,12.97-3.8,19.53-5.77"/><path d="M60.9,23.14c0.02,0.23,0.04,0.59-0.04,0.92c-0.42,1.94-2.85,6.2-6.16,8.8"/><path d="M59.25,27.66c0.42,0.14,1.2,0.17,1.63,0.14c5.21-0.38,13.11-1.29,17.78-1.78c0.7-0.07,1.13,0.07,1.48,0.14"/><path d="M52.88,36.21c0.69,0.2,1.94,0.23,2.63,0.2c7.14-0.33,17.3-2.51,27.72-2.59c1.14-0.01,1.83,0.09,2.4,0.19"/><path d="M68.29,29.93c0.42,0.5,0.91,0.86,0.91,1.55c0,2.41-0.05,12.18-0.11,14.22"/><path d="M58.27,40.86c0.34,0.16,0.69,0.85,0.68,1.18c-0.03,2.05-0.53,0.87-0.5,4.74c0.01,0.75-0.15,1.57,0.68,1.37c4.62-1.15,16.57-3.55,20.86-3.64"/><path d="M80.61,38.77c0.34,0.16,0.74,1.22,0.68,1.55c-0.34,2-0.18,2.33-0.74,6.07"/><path d="M35.29,54c0.58,0.75,0.94,1.81,0.94,2.81c0,1,0.27,26.26-0.43,30.46"/><path d="M37.2,55.87c3.3-0.12,33.49-3.23,36.5-3.38c2.51-0.12,2.85,1.69,2.85,2.63c0,2.29-0.74,30.12-0.74,30.88"/><path d="M36.29,64.95c6.18-0.29,34.14-3.04,39.44-3.04"/><path d="M36.56,74.95c9.32-0.55,29.32-2.67,39.21-2.78"/><path d="M36.14,85.31c9.32-0.41,31.13-2.5,39.63-2.5"/><path d="M45.49,88.59c0.5,1.08-0.38,2.14-1.37,2.92c-3,2.37-8.61,7.24-16.89,10.24"/><path d="M64.06,89.06c7.93,3.13,17.3,8.81,19.47,11.55"/></svg>