<svg><path d="M29.88,28.28c1.66,0.31,3.87,0.6,6.37,0.31c10.23-1.18,24.38-2.59,37.19-3.31c2.76-0.16,4.43,0.15,5.82,0.3"/><path d="M52.55,10.37c1.2,1.13,1.82,2.62,1.82,4.6c0,8.45,0.13,26.9,0.13,27.79"/><path d="M13.38,45.54c2.71,0.64,7.69,0.85,10.39,0.64c20.86-1.56,45.36-3.47,61.38-3.94c4.51-0.13,7.22,0.31,9.48,0.63"/><path d="M21.13,64.99c1.9,0.46,5.39,0.54,7.3,0.46c16.2-0.7,40.2-3.2,55.42-3.64c3.17-0.09,5.07,0.22,6.66,0.44"/><path d="M66.07,49.33c0.99,0.99,1.65,2.79,1.65,4.81c0,12.04-0.15,34.92-0.15,39.02c0,9.83-5.96,1.47-7.96,0.21"/><path d="M36,74.25c3.18,1.9,8.21,7.8,9,10.75"/></svg>