<svg><path d="M26.75,24.15c2.75,0.47,5.14,0.38,7.5,0.07c11.13-1.47,31.48-3.27,42.38-3.84c2.45-0.13,4.96-0.29,7.38,0.24"/><path d="M28,37.39c2.38,0.61,5,0.36,7.24,0.06c9.88-1.32,27.13-2.88,36.39-3.72c2.56-0.23,5.09-0.59,7.62,0.03"/><path d="M21.75,51.01c2.63,0.94,6.15,0.48,8.86,0.18c11.32-1.27,33.96-3.48,47.51-4.36c2.91-0.19,5.75-0.46,8.63,0.16"/><path d="M53.25,11.5c0.75,1.38,0.74,3.03,0.31,5.24C48.25,44.25,42,74.25,17.75,92.79"/><path d="M14.13,68.06c3.87,1.06,7.3,0.76,10.5,0.42C41.13,66.74,68.38,64,86,62.82c3.46-0.23,6.74-0.52,10.12,0.36"/><path d="M74.27,50.58c0.89,0.89,1.26,2.29,1.26,4.02c0,20.4-0.01,32.91-0.01,37.87c0,12.03-6.77,2.28-8.96,0.75"/><path d="M44.71,75.87c3,1.72,7.75,7.07,8.5,9.75"/></svg>