<svg><path d="M50.87,9.75c1.04,0.34,2.52,2,2.5,2.97c-0.08,3.07-0.08,5.81-0.08,8.61"/><path d="M21.91,21.88c0,3.2-2.86,11.99-4.16,14.12"/><path d="M22.39,24.5c7.5-0.78,57.01-5.57,63.1-5.87c9.51-0.46,1.01,7.15-1.35,8.82"/><path d="M33.29,30.25c0.55,0.48,1.39,1.55,1.39,2.78c0,1.68,0,4.15,0,6.81"/><path d="M18.29,41.5c0.6,0.23,2.66,0.27,3.26,0.23c3.38-0.2,22.64-2.86,27.75-3.03c1-0.03,1.6,0.11,2.1,0.23"/><path d="M25.27,44.56c2.04,3.08,2.97,6.24,3.16,8.27"/><path d="M43.61,41.78c0.48,0.35,0.53,1.3,0.48,1.58c-0.38,1.96-4.35,7.79-5.31,9.29"/><path d="M14.3,56.36c0.72,0.33,1.56,0.37,2.29,0.33c8.58-0.49,25.93-4.06,35.04-4.73c1.2-0.09,1.92,0.16,2.53,0.32"/><path d="M24.33,63.06c0.42,0.49,0.7,0.97,0.85,1.46c0.14,0.49,0.2,32.2,0.14,33.3"/><path d="M26.02,63.54c1.69-0.12,17.2-2.17,18.46-2.31c2.25-0.24,3.1,1.58,2.82,2.31c-0.27,0.7-0.42,18.15-0.42,28c0,8.74-3.06,4.91-6.15,2.26"/><path d="M26.02,72.52c5.78-0.73,15.22-1.44,20.29-1.8"/><path d="M26.44,81.36c4.51-0.37,14.37-1.46,19.59-1.7"/><path d="M61.05,36.78c4.31-0.41,11.13-1.94,16-2.69c1.11-0.17,1.8,0.11,2.37,0.23"/><path d="M59.74,27.43c1.26,0.82,1.62,2.83,1.64,3.98c0.04,2.43-0.18,10.49-0.31,13.84c-0.03,0.72,0.25,1.61,2.54,1.27c5.05-0.75,12.41-1.71,17.97-2.71c3.15-0.56,3.24,0.63,2.75,1.88c-0.95,2.41-1.56,6.53-2.54,10.74"/><path d="M62.19,58.38c4.86-0.41,15.08-1.94,21.86-2.3"/><path d="M60.1,57.53c0.67,0.92,1.21,2.01,1.25,3.43c0.18,6.35,0.52,24.1,0.52,28.42c0,10.08,9.06,8.94,17,8.94c12.67,0,14.98-2.15,14.98-7.07"/><path d="M62.92,67.96c4.31-0.41,11.53-1.55,16.41-2.3c1.11-0.17,1.8,0.11,2.37,0.23"/><path d="M62.69,77.3c4.31-0.41,12.89-1.16,17.77-1.91c1.11-0.17,1.8,0.11,2.37,0.23"/><path d="M62.24,86.55c4.31-0.41,14.25-1.05,19.13-1.8c1.11-0.17,1.8,0.11,2.37,0.23"/></svg>