<svg><path d="M51.56,12.37c1.82,1.37,4.71,5.63,5.17,7.75"/><path d="M76.38,11.03c0.09,0.57-0.03,1.08-0.37,1.54c-1.02,2.13-1.78,3.75-4.41,6.85"/><path d="M42.2,23.77c1.88,0.52,4.02,0.38,5.93,0.21c9.12-0.85,20.99-2.51,36-3.03c1.8-0.06,3.57-0.03,5.35,0.26"/><path d="M63.16,24.22c0.23,0.07-0.21,1.27-0.35,1.49c-0.93,1.41-1.88,3.32-4.06,5.17"/><path d="M51.89,32.64c0.61,0.61,1.05,1.49,1.05,2.6c0,0.58-0.14,10.11-0.07,17.27c0.01,1.31,0.04,2.54,0.07,3.6"/><path d="M53.66,33.35c2.42-0.09,20.37-1.95,22.58-2.06c1.84-0.09,2.89,1.33,2.89,2.87c0,2.06,0.03,10.75,0.04,17.33c0,1.27,0,2.46,0,3.5"/><path d="M54.37,40.04c4.78-0.12,19.55-1.36,23.44-1.36"/><path d="M54.07,47.51c6.42-0.29,17.72-1.55,23.95-1.55"/><path d="M54.05,54.26c7.08-0.39,19.1-1.03,23.69-1.03"/><path d="M23.18,16.41c3.49,1.4,8.26,5.27,9.13,7.44"/><path d="M16.25,38.02c2.22,0.67,3.7,0.33,4.69,0.17c0.99-0.17,9.95-3.15,11.38-3.66c1.8-0.65,2.54,1.19,1.72,2.33c-6.79,9.4-7.54,5.4-0.5,12.4c0.88,0.88,1.24,2.08-0.24,2.91c-1.48,0.83-9.89,6.74-11.37,7.07"/><path d="M17.23,59.7c3.14-0.58,8.93-0.97,13.14-0.56s28.16,3.38,32.3,3.92c11.24,1.45,18.45,1.69,25.82,1.83"/><path d="M18.63,78.02c3,0.86,5.65,0.71,8.25,0.55c18.1-1.08,38.94-3.07,59.37-3.01c2.89,0.01,5.83-0.11,8.63,0.73"/><path d="M70.38,69.14c0.93,0.93,1.12,2.73,1.12,4.45c0,7.91,0.02,13.46,0.02,17.91c0,11.37-5.25,2.85-7.21,1.48"/><path d="M42.62,83.41c1.93,1.62,4.97,6.67,5.45,9.19"/></svg>