<svg><path d="M23,22.27c1.17,0.47,3.33,0.62,4.5,0.47c17.08-2.31,37.53-4.14,54.15-5.37c1.95-0.14,3.13,0.22,4.1,0.46"/><path d="M29.75,29.75c0.74,0.38,1.69,1.8,1.83,2.3c1.01,3.63,1.67,10.2,3.14,17.82"/><path d="M32.61,31.12c11.3-0.73,35.48-4.4,43.19-4.52c3.19-0.05,3.45,1.15,3.21,3.13c-0.47,3.91-1.12,9.82-3.65,16.23"/><path d="M35.28,39.18C43.8,39,61.6,36.35,77.66,36.35"/><path d="M34.78,48.74c9.9-0.75,27.68-3.52,40.58-3.52"/><path d="M52.31,10c0.76,0.6,2.01,1.75,2.01,5.66c0,1.2-0.1,33.63-0.25,41.09"/><path d="M26.5,60.13c0.75,1.12,2.68,1.71,3.74,1.63c3.51-0.26,39.47-6.63,46.01-7.76"/><path d="M69.46,49.37c4.94,1.99,12.76,8.16,14,11.25"/><path d="M20.88,73.17c1.58,0.8,4.47,0.96,6.07,0.8C41.75,72.5,72,69,86.08,67.79c2.63-0.23,4.22,0.38,5.54,0.78"/><path d="M69.13,58.58c0.07,0.4,1.04,2.06,1.04,4.58c0,16.93-0.21,26.17-0.21,30.28c0,9.99-6.24,1.48-8.06,0.21"/><path d="M38.96,78.37c3.09,1.72,7.98,7.07,8.75,9.75"/></svg>