<svg><path d="M15.52,31.35c0.5,0.22,1.84,0.28,3.18,0.15c6.55-0.65,25.71-3.82,32.78-4.25c1.34-0.08,2.29,0.22,3.13,0.43"/><path d="M33.82,14.5c1.08,0.66,1.94,2.59,1.94,3.93c0,4.82-0.22,16.57-0.22,23.57"/><path d="M19.33,43.04c0.24,0.62,0.51,1.05,0.59,1.52c0.59,3.44,2.39,11.42,3.22,17.93"/><path d="M21.53,45.04c7.29-1.29,21.9-3.54,27.14-3.56c1.35,0,2.34,1.33,1.95,3.02c-0.99,4.24-2.19,7.93-3.19,13.19"/><path d="M24.5,60.74c6.89-0.99,17.58-2.16,24.13-2.53"/><path d="M28.89,66c0.04,0.73,0.07,1.89-0.09,2.95C27.75,76,23.5,89.5,12.75,97.17"/><path d="M38.78,62.87c0.53,1.19,0.96,2.59,0.99,4.43c0.14,8.19-0.02,12.14-0.02,17.7c0,13,8.35,11.53,27.68,11.53S96,96,95.97,87.4"/><path d="M57,38.92c0.72,0.44,2.04,0.55,2.76,0.44c7.99-1.23,25.41-3.73,34.21-4.4c1.2-0.09,1.92,0.21,2.52,0.43"/><path d="M80.37,15.1c0.08,0.41,1.14,2.15,1.14,4.77c0,17.62-0.23,56.72-0.23,61.01c0,10.4-5.12,3.48-7,1.08"/><path d="M60.71,50.01c2.84,2.27,7.33,9.33,8.04,12.86"/></svg>