<svg><path d="M16.342509,20.377979C19.578636,21.309958,23.533903,20.642746,26.829958,20.367388C38.396116,19.403636,61.243773,17.169004,72.735021,16.575926C75.941184,16.406475,79.117383,16.258205,82.263617,16.79833"/><path d="M22.365301,30.88393C23.80358,31.900635,24.23806,32.800843,24.552684,34.198812C24.972182,36.126315,26.26064,47.93492,26.964797,54.787088C27.249456,57.604208,27.444223,59.584665,27.444223,59.701162"/><path d="M25.736267,32.483122C33.72171,31.625278,63.506066,28.543391,74.203264,27.60082C80.420823,27.050105,82.847918,29.348282,82.203689,31.900635C81.334729,35.427331,79.851504,42.756079,77.978745,50.974445C77.664122,52.351233,77.349498,53.749202,77.004911,55.157762"/><path d="M27.579062,43.762193C35.264864,43.264432,66.532444,40.351995,78.862687,39.737736"/><path d="M28.822574,56.153286C42.18658,54.914176,62.322482,53.198487,76.210861,52.31946"/><path d="M49.108296,4.6084606C50.80127,5.8052071,51.67023,7.2561298,51.67023,8.8447314C51.67023,11.757168,51.715177,46.039189,51.715177,53.060808"/><path d="M80.570643,5.9322952C85.919242,7.8915705,94.399094,14.002391,95.732498,17.052506"/><path d="M8.2971377,69.931756C12.791759,70.662513,16.162724,70.397746,20.612399,70.058844C41.67719,68.41729,68.225418,66.172066,89.380101,65.367175C94.713717,65.165952,97.949845,65.409537,100.61665,65.737848"/><path d="M69.453947,58.440872C70.92219,59.478758,71.776168,61.395671,71.776168,62.973682C71.776168,78.7432,71.701258,77.948899,71.701258,89.990499C71.701258,101.2378,65.229004,93.559557,61.932948,90.986022"/><path d="M31.878916,77.02751C34.965222,78.944422,39.849377,84.917564,40.613463,87.904135"/></svg>