<svg><path d="M36.39,10.14c0.36,0.61,0.21,1.66,0.05,2.13c-1.19,3.48-3.69,9.1-7.06,14.19"/><path d="M21.47,26.5c0.76,0.76,1.31,2.24,1.31,3.25c0,3.38-0.04,29.5-0.04,37.25"/><path d="M23.78,28.59c3.5-0.84,15.96-3.34,18.83-3.36c2.41-0.02,2.99,1.02,2.99,4.02c0,12.39-0.19,49.81-0.19,60.93c0,10.33-4.41,5.33-6.77,2.07"/><path d="M23.32,41.75c5.03-1,19.01-2.75,21.36-3"/><path d="M23.82,53.5c6.18-1,13.68-2.25,20.85-2.75"/><path d="M12.5,70.37c1.12,0.88,2.56,0.78,4.23,0.13c6.14-2.41,20.77-7.75,27.78-11"/><path d="M54.74,45.75c0.26,1.25,0.07,2.37-1,4.12C46.5,61.62,26.38,82.38,11.28,91"/><path d="M59.63,43.26c1.92,0.75,5.02,0.52,7.05,0.24c9.7-1.37,16.07-2.62,25.07-3.38c2.07-0.18,4.38-0.32,6.38,0.15"/><path d="M84.17,13.83c1,1,1.46,2.79,1.46,4.77c0,20.4,0,68.91,0,73.87c0,12.03-6.39,2.91-8.59,0.5"/><path d="M64.56,59.12c2.63,2.25,6.8,9.25,7.46,12.75"/></svg>