<svg><path d="M35.12,15.75c0.88,0.88,1.46,2.62,1.46,4.25c0,0.76-0.09,45.77-0.1,69.38c0,2.79,0,5.28,0,7.38"/><path d="M17.5,33c3.09,1.98,7.73,8.41,8.5,11.5"/><path d="M14,73.97c1.99,0.98,3.32,0.56,4.57-0.65c3.65-3.52,8.36-7.83,11.68-12.32"/><path d="M80.23,12.39c0.02,1.23-0.73,2.1-1.38,2.61c-3.87,3-14.18,8.03-28.16,11.26"/><path d="M50.27,32.49c2.53,2.33,6.52,9.6,7.16,13.23"/><path d="M67.85,28.74c2.09,2.06,5.39,8.49,5.92,11.7"/><path d="M92.03,23.96c0.07,0.81,0.04,1.62-0.29,2.35c-1.49,3.31-3.72,7.59-7.91,12.28"/><path d="M43.86,59.21c2.77,0.79,6.08,0.5,8.56,0.15c10.69-1.53,26.93-4.18,38.47-5.26c2.76-0.26,5.99-0.34,8.51,0.12"/><path d="M80.57,43.83c1.3,1.3,1.78,3.16,1.78,4.85s0.07,39.53,0.07,42.78c0,7.89-5.36,1.17-6.92,0.16"/><path d="M60.29,69.01c2.5,1.65,6.45,6.78,7.07,9.34"/></svg>