<svg><path d="M18.33,33.3c1.8,0.32,3.45,0.46,4.92,0.19c7.63-1.37,15.03-2.53,21.87-3.11c1.72-0.15,3.47-0.35,5.15,0.16"/><path d="M33.35,17c1.14,1.14,1.45,2.35,1.45,4.01c0,6.11-0.05,18.49-0.05,25.24"/><path d="M15.15,49.69c2.47,0.44,4.51,0.18,6.45-0.13c6.86-1.12,15.36-2.7,25.27-3.67c1.95-0.19,4.42-0.76,6.31-0.02"/><path d="M18.31,68.62c1.57,0.5,3.58,0.29,4.8,0.04c8.01-1.66,15.76-2.79,23.04-3.93c1.25-0.2,3.37-0.52,4.56-0.02"/><path d="M33.48,50.93c0.73,0.73,1.13,1.69,1.13,3.01c0,10.65-0.11,17.35-0.11,31.43"/><path d="M16.58,90.74c1.05,1.01,2.32,0.86,3.21,0.56c12.47-4.1,18.38-6.14,30.14-9.92"/><path d="M57.64,42.75c2.23,0.3,4.65,0.16,6.86-0.21c7.79-1.3,18.82-2.68,26.99-3.54c1.87-0.2,4.12-0.38,6.14,0.05"/><path d="M80.15,14.58c1.14,1.14,1.44,2.79,1.44,4.96c0,6.46,0.01,64.58,0.01,69.25c0,9.96-4.59,3.58-6.41,1.74"/><path d="M61.25,57.62c2.73,2.04,7.06,8.4,7.75,11.58"/></svg>