<svg><path d="M34.1,14.72c1.21,1.37,1.98,3.71,1.98,5.33c0,15.46-0.04,73.81-0.04,79.08"/><path d="M18.75,20.42c1.37,0.64,1.89,1.38,2.01,3.48c0.18,3.15-0.74,11.01-1.16,14.31c-0.14,1.05,0.25,2.7,2.28,2.46c3.63-0.43,10.63-1.18,13.68-1.58"/><path d="M12.3,57.18c1.33,0.14,1.61,0.57,3.17,0.47c6.66-0.42,15.69-2.42,20.34-2.65"/><path d="M23.69,57.89c0.03,0.78,0.49,1.99,0.49,3.12c0,9.55-0.43,21.74-10.67,29.83"/><path d="M64.43,13c0.67,0.86,0.57,2.82-0.04,3.94c-3,5.58-8.76,14.27-17.54,19.25"/><path d="M64.94,19.56c1.31,0.44,2.32,0.75,4.21,0.55C75,19.5,81.13,17.86,84.11,17.1c2.39-0.6,3.31,0.76,2.17,2.9C80,31.75,66.5,48,44.27,55.33"/><path d="M62.22,27.26c1.09,0.65,5.43,4.56,7.6,8.48"/><path d="M52.26,35.46c1.44,1.3,5.76,6.82,6.96,9.74"/><path d="M43.63,61.36c0.98,0.48,2.75,0.53,3.74,0.48c10.82-0.58,33.41-4.79,45.34-5.51c1.62-0.1,2.6,0.23,3.42,0.47"/><path d="M79.6,41.83c0.07,0.3,0.96,1.57,0.96,3.48c0,12.86-0.2,42.66-0.2,45.79c0,7.59-5.77,1.12-7.45,0.16"/><path d="M55.43,69.48c2.81,1.83,7.25,7.52,7.96,10.36"/></svg>