<svg><path d="M53.51,12.37c1.06,1.06,1.08,2.43,1.04,3.76c0,8.75,0.01,26.99,0.01,29.46c0,7.66-4.81,1.41-5.98-0.37"/><path d="M36.17,22.9c0,1.1-0.23,1.93-0.63,2.95C33.12,31,26.88,39.62,17.25,46.82"/><path d="M70.3,21.98c7.66,3.75,19.29,15.17,21.2,21.01"/><path d="M19.38,69.88c3.91,0.8,7.81,0.76,11.75,0.27c15.25-1.9,31.25-3.02,45.88-3.62c4.27-0.17,8.52-0.25,12.74,0.47"/><path d="M53.36,57.5c0.69,0.7,0.9,1.73,0.88,2.96C53.95,81.78,39.25,93.5,16,98.83"/><path d="M54.38,71.88c5.88,5,16.44,13.7,25.16,19.52c3.72,2.48,7.34,4.48,10.72,5.86"/></svg>