<svg><path d="M13.97,37.44c0.95,0.54,2.68,0.61,3.64,0.54c9.39-0.73,31.21-5.23,41.42-5.21c1.58,0,2.53,0.26,3.32,0.53"/><path d="M37.19,13.5c0.08,2.1,0.15,1.98,0.18,4.88C37.5,32,31.65,82.39,10.92,96.17"/><path d="M41.76,43.62c1.06,1.66,1.41,2.62,1.47,5.19c0.28,11.44-0.26,23.56-0.26,31.34c0,17.61,5.77,16.62,25.33,16.61c22.44-0.01,27.08-2.26,27.08-13.25"/><path d="M83.13,13.5c0.06,0.7,0.32,1.93-0.12,2.8c-3.26,6.45-9.76,17.45-20.73,25.77"/><path d="M88.87,32.42c0.08,0.68,0.27,1.85-0.14,2.71c-2.81,5.93-14.22,19.12-25.8,25.96"/><path d="M94.39,51.53c0.09,0.79,0.2,2.04-0.18,3.17C91.97,61.38,79.1,76.03,61.48,85"/><path d="M47.45,15.5c3.41,1.59,8.81,6.53,9.66,9"/></svg>