<svg><path d="M32.95,16.88c2.17,0.99,4.54,0.87,6.82,0.67c8.62-0.73,26.1-2.12,32.5-2.71c3.62-0.33,6.15,0.16,5.18,4.42c-0.83,3.68-1.95,7.99-3.37,12.96"/><path d="M36.47,36.11c3.24-0.17,23.23-1.64,34.3-2.63c3.27-0.29,5.75-0.5,6.74-0.55"/><path d="M36.01,18.36c1,1,0.99,2.27,0.93,4.14c-0.68,19.73-6.56,40.75-21.18,52.41"/><path d="M52.68,36.25c6.12,4.01,18.6,16.34,26.88,23.67c3.19,2.82,7.06,5.2,10.94,7.07"/><path d="M46.27,59.83c4.34,2.1,11.21,8.62,12.29,11.88"/><path d="M40.14,82.21c11.23,2.54,24.31,10.89,26.67,15.01"/></svg>