<svg><path d="M25.18,18.9c3.26,0.79,6.51,0.79,9.81,0.43c12.82-1.42,30.89-3.58,43.01-4.46c3.99-0.29,5.5,0.88,5,3.75c-0.63,3.61-2,6.38-2.87,10.69"/><path d="M29.9,34.67c8.26-0.59,30.16-2.88,44.28-4.19c4.04-0.37,7.1-0.88,8.38-0.94"/><path d="M28.63,20.08c0.87,0.87,1.04,2.42,1.01,4.26C29,54.5,25.25,76.75,11.75,93.5"/><path d="M55.04,39.38c0.76,1.19,0.92,2.43,0.87,3.76c-1.2,30.23-11.77,44.94-26.35,52.64"/><path d="M37.75,57.26c2.89,0.62,5.73,0.54,8.53-0.25c6.89-1.33,20.87-4.06,25.45-5.05c3.94-0.85,5.3,0.45,4.38,3.79c-1.6,5.75-3.85,16.38-5.07,24.72c-1.74,11.88,1.42,14.41,12.69,14.41c8.28,0,12.01-0.63,12.01-7.41"/></svg>