<svg><path d="M26.48,17c1.66,0.75,4.14,0.92,5.9,0.77c8.4-0.74,30.78-3.01,38.62-3.68c3.29-0.28,5.62,1.41,5.1,4.19c-0.75,3.96-1.71,6.64-2.59,9.97"/><path d="M30.63,33.25c3.73-0.2,25.62-2.43,37.6-3.63c3.35-0.33,6.14-0.32,7.23-0.37"/><path d="M28.8,18.25c0.98,0.98,1.11,2.38,1.08,3.88c-0.5,23.12-4.25,51-18.38,65.62"/><path d="M67.21,37.75c-0.21,0.88-0.64,1.43-1.33,1.94c-3.33,2.46-13.38,6.81-27.17,10.16"/><path d="M34.87,60.88c2.38,0.75,6.23,0.31,8.4-0.14c9.18-1.92,19.9-3.99,27.84-5.03c2.1-0.28,4.41-0.59,6.46,0.18"/><path d="M29.53,75.23c2.1,0.83,5.81,0.41,7.96,0.03C50.25,73,64.5,70.25,78.63,68.77c2.17-0.23,4.71-0.61,6.87-0.09"/><path d="M52.77,48.12c0.93,0.93,1.27,2.3,1.29,3.58C54.18,57.39,54,77.75,54,81.25c0,10.96,1.38,12.05,18.03,12.05c15.1,0,16.82-1.68,16.82-7.94"/></svg>