<svg><path d="M26.18,15.15c1.91,0.73,4.13,0.88,6.16,0.73C43.3,15.07,73,12.75,77.37,12.15c2.88-0.4,3.63,1.1,3.13,3.97c-0.63,3.61-2,6.13-2.87,10.44"/><path d="M30.4,30.17c5.5-0.24,44.17-3.13,49.91-3.37"/><path d="M30.58,16.83c0,3.82-0.27,14.92-0.69,18.47C27.5,55.5,25.75,71.5,14,86"/><path d="M43.71,34.22c2.37,1.61,6.13,6.62,6.73,9.13"/><path d="M71.05,31.39c0.02,0.3,0.04,0.77-0.03,1.19c-0.42,2.51-2.8,8.02-6.06,11.4"/><path d="M36.2,47.68c1.08,0.43,3.06,0.52,4.14,0.43c7.98-0.67,31.34-4.37,41.61-4.37c1.8,0,2.88,0.2,3.78,0.42"/><path d="M31.25,67.16c1.4,0.49,3.97,0.6,5.37,0.49c15.17-1.13,35.99-3.61,52.47-4.19c2.33-0.08,3.74,0.23,4.91,0.48"/><path d="M50.4,50.34c0.57,1.28,1.38,2.28,1.38,3.88c0,14.59,0.72,32.04-18.19,43.12"/><path d="M70.38,47.43c0.74,0.4,1.18,1.79,1.33,2.58c0.15,0.8,0,45.55-0.15,50.52"/></svg>