<svg><path d="M26.43,18.4c3.28,0.65,6.56,0.85,9.82,0.43c13.38-1.71,29.88-2.96,41.5-3.96c4.16-0.36,5.77,1.02,5.01,3.75c-1.12,4.01-1.62,5.76-3.12,10.69"/><path d="M31.9,34.17c10.05-0.85,28.78-2.38,40.48-3.25c4.43-0.33,7.85-0.56,9.42-0.63"/><path d="M30.25,19.75c1,1,1.04,2.25,1.01,3.5C30.62,51.12,26.5,72.5,13,88.5"/><path d="M35.87,45.06c3.69,0.48,7.36,0.44,11-0.13c10.39-1.23,22.47-2.6,30.51-3.14c2.77-0.19,5.4-0.47,8.04,0.23"/><path d="M47.81,49.43c0,1.07-0.34,1.98-0.64,2.8C45.25,57.5,39.88,66.5,30.24,74.1"/><path d="M47.35,59.73c0.53,0.27,1.16,0.34,2.25,0.16c3.78-0.64,5.19-1.22,7.09-1.95c3.04-1.16,4.21,0.42,2.92,3.23c-5.48,11.96-16.86,26.46-31.36,33.59"/><path d="M40.12,69.52c2.4,1.44,4.7,5.42,5.3,7.66"/><path d="M87.77,54.29c0,1.09-0.46,2.13-1.12,2.94c-3.27,4.02-6.41,6.89-14.52,11.4"/><path d="M67.52,46.52c0.85,0.85,1.28,2.35,1.28,4.22c0,1-0.05,32.54-0.05,35.63c0,7.08,2.38,8.65,13.99,8.65c9.74,0,11.52-1.05,12.24-9.64"/></svg>