<svg><path d="M28.89,17c1.77,0.57,4.21,0.88,6.08,0.7c10.28-0.95,33.28-3.45,43.63-4.36c3.26-0.29,4.77,1.79,3.98,5.06c-0.86,3.54-1.26,5.03-2.49,9.8"/><path d="M32.64,33.15C36.8,33,63.31,30.53,76,29.54c2.82-0.22,4.93-0.37,5.89-0.4"/><path d="M30.5,18c0.94,0.94,1.25,2.5,1.25,4.25c0,19.53-4,48.75-21.25,63.24"/><path d="M59.52,40.88c1.24,1.24,1.63,2.99,1.63,4.81c0,6.31-0.02,36.96-0.02,46.81"/><path d="M40,52.49c0.63,0.63,0.75,2.01,0.61,3.2c-0.62,5.33-0.86,5.81-1.82,12.2c-0.33,2.23,0.36,2.57,2.34,1.98c10.69-3.19,30.61-6.29,40.65-6.14"/><path d="M84.18,48.12c0.98,0.98,1.07,2.26,0.74,3.83c-0.73,3.52-1.07,4.9-1.92,9.06c-0.26,1.29-0.57,2.87-0.96,4.91"/><path d="M37.57,80.3C38,81.25,38,82.75,37.68,84c-1.14,4.51-1.5,6.67-2.57,10.35c-0.86,2.94,0.15,3.07,3.14,2.53c15.37-2.76,38.17-5.59,47.99-5.44"/><path d="M86.84,75.57c0.92,0.92,1.16,2.05,1.14,3.36c-0.05,5.08-0.4,7.49-0.68,10.82c-0.15,1.77-0.31,3.66-0.45,5.84"/></svg>