<svg><path d="M25.68,16.65c1.91,0.73,4.13,0.88,6.16,0.73C42.8,16.57,72,13.75,76.37,13.15c2.88-0.4,3.63,1.1,3.13,3.97c-0.63,3.61-2,9.63-2.87,13.94"/><path d="M29.4,35.17c5.5-0.24,44.17-3.63,49.91-3.87"/><path d="M30.08,18.33c0,4.07-0.33,15.89-0.85,19.68C26.3,59.52,24.16,76.56,9.75,92"/><path d="M40.46,61.72c5.46-0.4,10.95-1.81,15.7-2.48c1.4-0.2,2.29-0.19,3-0.08"/><path d="M38.5,43.39c0.86,0.89,1.61,1.82,1.61,3.03c0,3.31-0.27,37.47-0.27,42.62c0,4.33-0.09,5.28,3.48,2.48c5.43-4.26,9.43-7.76,13.57-10.45"/><path d="M87.82,44.62c0.23,0.78,0.59,2.08,0.2,3.42C87.46,49.96,76.05,58.78,69.09,63"/><path d="M64.59,38.5c1,0.93,1.87,2.42,1.87,3.59c0,3.1-0.59,37.42-0.59,41.06c0,11.35,0.38,12.13,14.27,12.13c5.26,0,10.59-0.48,12.57-3.1c1.98-2.61,0.87-4.6,1.07-7.22"/></svg>