<svg><path d="M30.06,16.97c1.68,0.56,4.2,0.81,5.99,0.7c8.45-0.55,28.33-3.08,39.44-4.04c4.38-0.38,6.13,1.12,5.39,4.2c-0.91,3.75-2,6.55-3.66,11.98"/><path d="M33.78,34.98c7.47-0.73,24.95-2.48,38.11-3.62c2.52-0.22,4.98-0.49,7.81-0.37"/><path d="M32.07,17.9c0.83,0.83,1.23,1.85,1.21,3.08C32.88,50.88,27.75,74.25,13.75,89"/><path d="M35.04,55.42c2.83,0.58,5.54,0.58,8.19,0.27c12.15-1.44,29.34-3.5,41.23-4.12c2.74-0.14,5.2-0.08,7.89,0.38"/><path d="M58.8,38.5c1.23,1.23,1.98,3,1.98,4.71c0,13.25,0,24.14-0.17,28.87"/><path d="M40.24,73.86c0.76,0.76,1.01,2.02,1.25,2.94c0.81,3.1,1.91,10.06,2.86,16.45c0.2,1.37,0.4,2.72,0.58,4"/><path d="M42.5,75.47c8.64-1.09,25.12-3.09,34.62-4.22c3.55-0.42,5.5,1.25,4.65,4.55c-1.08,4.17-2.48,9.32-3.6,14.43"/><path d="M45.63,94.55c6.95-0.59,21.89-2.3,31.12-3c1.38-0.11,2.64-0.19,3.72-0.24"/></svg>