<svg><path d="M22.68,16.65c1.91,0.73,4.13,0.88,6.16,0.73C39.8,16.57,73,13.75,77.37,13.15c2.88-0.4,3.63,1.1,3.13,3.97c-0.63,3.61-2.5,8.63-3.37,12.94"/><path d="M27.4,34.17c5.5-0.24,46.67-4.13,52.41-4.37"/><path d="M27.58,17.83c0,3.82-0.27,14.92-0.69,18.47C24.5,56.5,22.75,72.5,11,87"/><path d="M35.39,42.96c4.02,2.28,10.08,8.72,11.08,12.26"/><path d="M77.82,37.61c0.03,0.35,0.06,0.9-0.06,1.39c-0.71,2.94-4.8,9.39-10.39,13.33"/><path d="M30.36,61.43c0.64,0.21,2.34,0.56,4.04,0.64c4.68,0.21,42.34-5.03,49.79-4.61c1.7,0.1,2.13-0.21,3.19,0"/><path d="M56.36,38c0.96,0.38,1.54,1.73,1.73,2.5c0.19,0.77,0,53.94-0.19,58.75"/><path d="M57.36,59.95C51.43,70.37,37.03,84.99,23.71,91"/><path d="M57.51,61.11c4.82,3.69,25.97,21.17,31.21,24.8c1.78,1.23,3.3,1.76,5.07,2.11"/></svg>