<svg><path d="M22.68,16.65c1.91,0.73,4.13,0.88,6.16,0.73C39.8,16.57,74,13.25,78.37,12.65c2.88-0.4,3.63,1.1,3.13,3.97c-0.63,3.61-2,9.13-2.87,13.44"/><path d="M26.9,34.17c5.5-0.24,48.67-4.13,54.41-4.37"/><path d="M27.08,17.83c0,3.96-0.26,15.46-0.67,19.14C24.09,57.9,22.4,74.48,11,89.5"/><path d="M39.94,57.45c0.83,0.3,2.36,0.35,3.19,0.3C51.8,57.25,63,55,71.65,54.2c1.38-0.13,2.22,0.14,2.92,0.29"/><path d="M55.22,37.25c0.69,0.27,1.1,1.23,1.23,1.78c0.14,0.55,0,35.84-0.14,39.27"/><path d="M40.89,79.17c0.66,0.2,1.88,0.22,2.55,0.2c8.78-0.24,16.56-1.88,26.13-2.42c1.11-0.06,1.77,0.1,2.32,0.2"/><path d="M32.1,53.4c0.53,0.27,1.42,1.26,1.42,2.52c0,0.54-0.12,34.84-0.18,36.1c-0.05,1.26,0.48,2.15,2.23,2.01c9.72-0.75,38.25-2.77,43.82-3.04"/><path d="M81.51,47.38c0.49,0.87,1.28,2.11,1.28,3.52c0,2.84-2.73,31.36-2.68,43.75"/></svg>