<svg><path d="M25.68,16.65c1.91,0.73,4.13,0.88,6.16,0.73C42.8,16.57,76,13.75,80.37,13.15c2.88-0.4,3.63,1.1,3.13,3.97c-0.63,3.61-2,6.63-2.87,10.94"/><path d="M30.9,31.67c5.5-0.24,46.67-3.63,52.41-3.87"/><path d="M29.58,17.83c0,3.76-0.3,14.7-0.78,18.21C26.08,55.94,24.09,71.71,10.75,86"/><path d="M41.57,38.82c0.44,0.99,1.09,1.72,1.09,3.04s0.21,36.64-0.32,42.16"/><path d="M43.4,39.96c2.51-0.16,30.17-2.27,32.46-2.47c1.91-0.16,2.93,0.91,2.93,2.14c0,3.01-0.56,40.87-0.56,41.86"/><path d="M43.21,52.86c4.7-0.38,31.42-2.67,35.46-2.67"/><path d="M42.92,65.83c7.09-0.72,27.76-2.19,35.28-2.34"/><path d="M42.59,79.93c7.09-0.54,29.14-2.47,35.6-2.47"/><path d="M51.38,85.51c0.49,1.09-0.47,2.04-1.36,2.94c-2.52,2.55-8.74,7.62-16.68,10.3"/><path d="M69.67,86.04c6.62,3.58,14.44,10.05,16.24,13.18"/></svg>