<svg><path d="M26.68,15.65c1.91,0.73,4.13,0.88,6.16,0.73c10.97-0.81,44.66-4.13,49.03-4.73c2.88-0.4,3.63,1.1,3.13,3.97c-0.63,3.61-2.5,5.63-3.37,9.94"/><path d="M31.9,30.17c5.5-0.24,45.67-4.13,51.41-4.37"/><path d="M31.08,17.33c0,3.84-0.31,15.03-0.79,18.61C27.54,56.28,25.52,72.4,12,87"/><path d="M59.81,31.58c0.14,0.29,1.99,1.53,1.99,3.39c0,6.37,0.11,12.92,0.11,15.96"/><path d="M48.38,34.04c0.03,0.36,0.07,0.93-0.07,1.46c-0.82,3.07-5.75,9.73-10.24,13.12"/><path d="M72.53,33.33c5.24,2.58,11.86,8.79,13.17,12.81"/><path d="M40.33,51.87c0.85,0.83,1.42,1.66,1.7,2.49c0.28,0.83,0.4,42.98,0.28,44.84"/><path d="M41.92,53.09c2.97-0.18,32.18-2.88,34.39-3.08c3.96-0.36,4.94,2.29,4.94,3.44c0,7.81-0.24,24.19-0.24,38.86c0,8.79-6.67,2.02-8.9,0.75"/><path d="M43.42,65c10.14-1.09,28.2-2.13,37.1-2.67"/><path d="M42.68,77.07c7.91-0.54,29.21-1.81,38.35-2.17"/></svg>