<svg><path d="M25.68,13.98c1.91,0.68,4.13,0.81,6.16,0.68c12.91-0.83,42.66-3.95,47.03-4.51c2.88-0.38,3.63,1.04,3.13,3.74c-0.63,3.4-2,4.84-2.87,8.9"/><path d="M29.4,27.16c5.5-0.23,46.67-3.92,52.41-4.15"/><path d="M29.08,15.06c0,4.14-0.27,16.17-0.69,20.02C26,56.96,24.25,74.29,12.5,90"/><path d="M57.52,29.83c0.73,0.68,1.24,1.47,1.3,3.71C59.11,44.3,58.8,40.34,58.8,44"/><path d="M35.75,34.68c0.29,0.12,0.82,0.07,1.11,0.12c2.89,0.46,11.48-0.83,13.26-0.69c0.48,0.04,0.77,0.06,1.01,0.11"/><path d="M34.5,42.21c0.34,0.14,0.97,0.08,1.3,0.14c3.41,0.54,13.53-0.98,15.63-0.82c0.56,0.04,0.91,0.07,1.19,0.14"/><path d="M65.75,32.44c0.31,0.13,0.89,0.08,1.2,0.13c3.13,0.49,12.41-0.9,14.34-0.75c0.52,0.04,0.83,0.06,1.09,0.12"/><path d="M65,40.22c0.36,0.15,1.02,0.09,1.38,0.15c3.6,0.57,14.27-1.03,16.49-0.86c0.6,0.05,0.96,0.07,1.26,0.14"/><path d="M35.21,49.58c0.24,0.23,0.49,0.42,0.6,0.7c0.85,2.25,3.54,7.75,4.11,11.79"/><path d="M36.72,50.9c5.38-0.88,42.3-4.37,45.16-4.66c1.04-0.11,2.46,0.76,2.18,2.03c-0.58,2.64-2,7.32-3.56,11.09"/><path d="M51.52,49.14c0.16,1.5,0.48,6.61,1.28,10.5"/><path d="M66.6,48.2c-0.16,2.44-0.95,8.81-1.28,10.31"/><path d="M40.7,60.85c3.36-0.33,35.58-2.91,40.19-3.43"/><path d="M46.77,63.37c0.05,0.42,0.11,1.09-0.1,1.7c-1.23,3.59-8.3,11.47-17.98,16.3"/><path d="M44.76,68.73c1.04,0.41,2.47,0.45,4.15,0.27c6.06-0.64,28.18-4.04,32.33-4.17c4.15-0.14,4.8,1.34,4.36,4.21c-1.16,7.55-2.42,16.62-7.52,29.13c-2.07,5.08-4.19,1.02-6.64-0.68"/><path d="M37.99,76.22c0.5,0.21,1.13,1.01,1.22,1.29c0.67,2.02,1.8,5.01,2.75,8.85"/><path d="M40.02,76.99c7.56-0.41,21.18-2.59,26.62-3c1.44-0.11,3.12,0.89,2.85,1.5c-0.91,2.08-1.07,3.17-2.54,6.62"/><path d="M42.24,84.9c6.08-0.41,17.05-2.17,25.56-2.55"/><path d="M53.06,70.8c0.75,0.64,1.27,1.97,1.27,2.6c0,3.11,0,14.8-0.24,18.59"/><path d="M37.02,94.79c0.73,0.44,1.17,1,1.9,0.89c0.73-0.11,25.32-4.91,29.86-5.79"/><path d="M64.45,86.27c2.7,1.04,6.98,4.29,7.65,5.91"/></svg>