<svg><path d="M80.19,18.25c-0.19,1.25-0.96,2.04-2.16,2.55C67.62,25.25,53.92,30.06,29,34.29"/><path d="M26.04,46.52c0.85,0.85,0.96,2.36,0.81,4.2c-0.23,2.79-1.78,12.2-2.23,17.13c-0.23,2.54-0.84,4.44,2.97,3.73C44,68.5,65.38,67,81.09,66.33"/><path d="M84.04,40.67c0.71,1.2,0.92,2.6,0.81,3.75c-0.37,4.14-1.28,11.51-2.41,19.11c-0.33,2.22-0.68,4.46-1.04,6.64"/><path d="M51.74,11.62c1.13,1.13,1.39,2.75,1.39,4.53c0,9.76,0.12,58.99,0.12,65.63c0,12.48,2,13.99,21.57,13.99c18.94,0,21.27-1.52,21.27-11.13"/></svg>