<svg><path d="M25.18,13.15c3.17,0.76,6.36,0.92,9.57,0.49c12.14-0.81,36.9-2.17,44.27-2.82c3.3-0.29,6.57-0.24,5.45,4.17c-0.66,2.59-0.9,3.36-2.08,7.07"/><path d="M29.9,25.67c4.25-0.19,31.25-1.9,45.98-2.67c4.34-0.23,6.88-0.25,8.93-0.2"/><path d="M27.83,14.08c0.98,0.98,1.25,1.92,1.17,3.3c-2.5,43.5-7.75,58-17.5,71.12"/><path d="M41.85,32.44c2.48,1.44,6.21,5.75,6.83,7.99"/><path d="M78.83,30.05c0.08,0.72-0.06,1.4-0.4,2.04c-1.03,2.17-3.76,5.41-7.34,9.3"/><path d="M32.63,46.56c3.27,0.86,6.47,0.4,9.87,0.01c10.37-1.19,28.24-2.81,38.11-3.29c2.49-0.12,4.93-0.42,7.39-0.06"/><path d="M58.93,27.75c0.97,0.97,1.21,2,1.21,3.1c0,4.67,0.05,16.31,0.07,25.27c0.01,3.32,0.02,6.28,0.02,8.37"/><path d="M57.68,45.35c-0.43,1.15-1.26,2.41-2.21,3.57c-5.29,6.44-14.89,14.19-23.4,17.52"/><path d="M61.25,45.32c2.58,1.6,10.68,7.06,17.11,11.2c3.22,2.22,6.83,3.71,10.33,5.46"/><path d="M55.64,66.62c0.14,1.06,0,2.05-0.42,2.98c-1.56,3.82-5.57,9.92-9.68,14.43c-1.28,1.4-2.19,2.74,0.33,2.76c11.76,0.09,28.13,6.09,33.39,12.3"/><path d="M72.27,72.25c0.23,1.25-0.07,2.14-0.47,3.15c-3.27,8.17-12.93,19.01-36.27,25.09"/><path d="M27.73,74.67c4.01,1,7.96,0.38,12.14,0.05c13.62-1.09,26-2.09,40.62-2.4c4.01-0.08,7.97,0.34,11.89,1.14"/></svg>