<svg><path d="M52.29,10.13c0.69,0.41,2.15,3.06,2.29,3.87c0.14,0.82,0.41,14.15,0.27,19.25"/><path d="M26.43,24.25c0.56,0.33,1.12,1.73,1.12,2.41c0,2.59-0.3,3.84-1.59,7.76c-0.48,1.45,0.81,2.53,2.11,2.28c19.18-3.7,49.33-4.42,54.35-4.55"/><path d="M84.04,17.88c0.64,0.38,1.38,2.83,1.28,3.59c-0.63,4.65-1.88,9.97-2.9,14.49"/><path d="M19.34,51.84c2.19,0.58,4.96,0.51,6.87,0.31c15.64-1.6,42.52-4.33,51.19-4.92c5.64-0.38,6.84,1.02,6.33,4.85c-0.94,7.1-3.5,27.92-10.17,41.31c-3.63,7.29-7.58,5.36-12.54,0.18"/><path d="M48.88,53.18c0.09,1.01,0.13,2.61-0.18,4.06C45.67,71.48,37.5,88.5,18.25,98.6"/></svg>