<svg><path d="M25.2,16.25c0.61,0.36,2.01,2.69,2.01,3.42c0,7.55,0.25,43.47,0.25,53.15"/><path d="M11.79,42.51c0.67,0.4,1.39,2.07,1.33,2.88c-0.37,5.52,0.13,21.06-1.2,29.36c-0.29,1.8,0.19,2.22,1.82,1.81C23,74.25,29.75,72.75,41,70.45"/><path d="M41.72,38.66c0.67,0.4,1.33,2.96,1.33,3.76c0,6.21-1.8,22.82-2.42,32.81"/><path d="M63.51,12.5c0.04,0.71,0.14,2.06-0.07,2.86C60.79,25.42,56.89,34.64,50,42.75"/><path d="M59.25,34.82c1.32-0.22,1.8-0.1,3.11-0.22c7.24-0.65,16.51-3.78,26.83-5.96c1.85-0.19,3.4-0.22,4.56,0"/><path d="M54.25,51.07c0.81,0.55,2.22,0.77,3.25,0.74c2-0.06,21.84-4.43,22.85-4.31c1.62,0.19,2.74,1.02,1.02,2.78C71.26,60.54,64.81,66.89,58,78.5C51.25,90,55.25,93.75,69.75,95.75c7.25,1,14.25,0.5,22.19-0.54c5.12-0.67,4.06-4.44,3.86-7.04"/></svg>