<svg><path d="M52.51,9.88c0.56,0.33,1.86,1.87,1.86,3.65c0,0.67-0.07,10.58-0.18,14.73"/><path d="M25.93,15.75c0.56,0.33,1.12,1.73,1.12,2.41c0,2.59-0.3,7.84-1.59,11.76c-0.48,1.45,0.83,2.6,2.11,2.28C43,28.25,77.9,26.28,82.92,26.15"/><path d="M83.49,13.12c0.42,0.34,0.91,2.56,0.84,3.25c-0.42,4.2-1.23,9-1.9,13.09"/><path d="M52.91,32.5c0.11,0.85,0.53,2.28-0.22,3.42c-5.19,7.88-17.49,21.62-38.94,32.7"/><path d="M52.66,36.4c5.71,5.18,30.29,22.1,36.58,25.89c2.14,1.29,4.88,1.84,7.01,2.2"/><path d="M40.23,59.79c0.44,0.22,3.13,0.24,3.58,0.22c4.58-0.25,17.66-3.05,22.18-3.03c0.73,0.01,3.8,0.11,4.16,0.21"/><path d="M30,73.24c1.5,0.51,4.07,1.1,6.5,0.75c6.31-0.91,27.75-3.7,34.49-4.87c3.99-0.69,4.52,0.44,2.51,4.12c-4.5,8.25-8,14.5-14.75,26.25"/></svg>