<svg><path d="M42.11,15.65c0.42,0.74-0.09,1.56-0.59,2.48c-4.05,7.54-15.48,18.88-23.99,22.1"/><path d="M59.11,11.25c3.89,1.5,19.45,17.34,27.55,21.11c3.13,1.46,4.26,2.24,7.3,2.71"/><path d="M34.03,34.53c1.16,0.34,2.62,0.3,3.63,0.19c8.25-0.96,27.56-4.48,32.14-4.83c2.98-0.23,3.8,1.69,3.63,3.3c-0.44,4.25-3.18,19.57-6.77,25.88c-3.41,5.99-4.63,2.08-7.94-0.34"/><path d="M48.28,36.29c0.06,0.61,0.21,1.62-0.13,2.47c-3.84,9.49-9.79,17.4-22.36,25.1"/><path d="M52.28,64c0.61,0.36,1.92,2.72,2.04,3.45c0.12,0.73-0.08,20.95-0.2,25.49"/><path d="M26.62,72.25c0.61,0.36,1.32,1.91,1.23,2.64c-0.41,3.25-0.38,12.56-2.03,19.17c-0.41,1.62-0.28,3.43,1.22,3.04C37,94.5,73.99,90.43,81.7,90.22"/><path d="M82.4,66.08c0.62,0.36,1.33,2.72,1.23,3.45c-0.61,4.46-1.22,17.65-2.23,25.97"/></svg>