<svg><path d="M24.2,16.25c0.61,0.36,2.01,2.69,2.01,3.42c0,7.55,0.25,42.97,0.25,52.65"/><path d="M11.79,42.51c0.67,0.4,1.39,2.07,1.33,2.88c-0.37,5.52-0.37,20.56-1.7,28.86c-0.29,1.8,0.19,2.22,1.82,1.81c9.26-2.31,14.51-3.31,25.76-5.61"/><path d="M39.72,38.16c0.67,0.4,1.33,2.96,1.33,3.76c0,6.21-0.8,23.07-1.92,33.31"/><path d="M50.56,20.77c8.98-1.58,33.54-4.14,37.91-4.75c1.6-0.22,2.62,2.27,2.33,3.56c-1.09,4.73-1.94,8.43-2.97,11.66"/><path d="M51.2,36.56c5.92-0.94,35.3-4.06,39.2-4.13"/><path d="M48.75,19.35c1.37,0.69,1.88,3.23,1.88,5.31c0,2.08-0.17,63.16-0.17,66.39c0,3.23,0.17,4.16,2.4,1.85c2.23-2.31,12.89-10.39,16.07-12.35"/><path d="M50.63,55.32c9.97-0.57,28.09-3.07,41.62-4.43c1.33-0.13,2.11,0.18,2.77,0.37"/><path d="M69.48,37.81c0.35,0.74,1.01,2.75,1.15,4.16c2.16,22.59,10.7,44.38,24,53.46c5.76,3.94,3.8-3.13,3.8-5.81"/></svg>