<svg><path d="M53.85,10c0.89,0.89,1.43,2.12,1.43,3.27c0,0.7-0.08,9.63-0.19,13.93"/><path d="M28.91,18.23c0.87,0.87,1.34,2.16,1.16,3.25c-0.57,3.52-0.57,4.15-1.19,8.2c-0.24,1.57,0.98,2.72,2.4,2.38C44.12,29,63.12,27,80.77,26.04"/><path d="M83.16,12.92c1.02,1.02,1.06,2.58,0.91,3.27c-0.73,3.41-1.64,6.64-2.55,10.47c-0.27,1.15-0.54,2.35-0.81,3.63"/><path d="M28.38,44.68c2.98,1.16,6.88,0.37,9.94,0.1c11.18-1,25.98-3.02,36.38-3.72c3.22-0.22,6.5-0.5,9.67,0.25"/><path d="M29.43,45.03c0.47,1.15,0.67,2.48,0.41,3.99C27.5,62.38,24.38,75.75,10.5,89.5"/><path d="M41.21,57.97c1.79,0.53,4.06,0.48,6.01,0.25c6.03-0.71,15.03-1.96,22.66-2.58c1.63-0.13,3.28-0.13,4.89,0.24"/><path d="M30.15,76.76c2.01,0.37,5.73,0.3,7.72,0.08c14.38-1.62,34.88-3.78,46.05-4.16c3.35-0.12,5.37,0.18,7.05,0.37"/><path d="M56.98,58.84c0.78,0.78,1.36,1.91,1.36,3.22c0,0.66-0.01,23.15-0.09,33.32c-0.02,2.08-0.03,3.68-0.04,4.51"/></svg>