<svg><path d="M34.97,15.21c0.22,1.61-0.06,3.71-0.77,5.09c-4.52,8.77-8.85,16.61-19.2,27.29"/><path d="M27.97,33.58c1.22,0.71,1.51,2.21,1.56,3.18c0.44,8.45-0.87,25.11-0.47,30.2"/><path d="M36.41,36.09c1.57,0.4,4.48,0.6,6.04,0.4c6.38-0.79,27.16-5.86,40.34-7.65c2.58-0.35,3.95-0.31,5.51,0.01"/><path d="M54.33,11.54c1.81,1.15,2.47,2.03,2.95,4.44C62.5,42.25,69.75,55.75,89.13,65.1c7,3.38,7.12-0.35,5.71-7.1"/><path d="M70.6,13.96c3.23,1.39,8.41,4.58,9.92,6.97"/><path d="M53.79,61c0.48,0.23,1.5,1.7,1.59,2.15c0.1,0.45-0.06,26.35-0.16,29.18"/><path d="M28.77,73.74c0.56,0.29,1.2,2.53,1.12,3.12c-0.37,2.61-2.34,12.18-3.85,17.48c-0.37,1.3-0.26,2.75,1.11,2.44C46,92.5,81,90.44,83.99,90.37"/><path d="M83.83,71.24c0.39,0.3,1.34,2.76,1.28,3.37c-0.39,3.72-0.77,14.71-1.42,21.64"/></svg>