<svg><path d="M59,10.85c-0.12,1.27-0.85,2.36-1.57,3.08c-6.27,6.3-13.93,11.44-25.18,16.82"/><path d="M29.25,31.36c1.07,1.07,1.95,2.47,2.2,3.82c1.54,8.32,3.52,21.17,4.16,26.06"/><path d="M35.78,38.37c2.09,0.13,3.48,0.14,5.69-0.13c10.47-1.29,23.27-3.61,33.19-5.58c2.65-0.53,4.87-0.83,7.58-0.48"/><path d="M67.63,38.35c0.95,0.95,1.07,2.29,0.8,4.22c-0.81,5.68-0.93,7.55-2.17,15.68"/><path d="M13.5,63.23c3.41,1.16,7.22,0.83,10.74,0.43C37.47,62.14,63.5,58.5,81.99,58c4.04-0.11,8.08-0.06,12.01,0.74"/><path d="M52.94,63.44c1.18,1.18,1.62,2.81,1.62,4.45c0,4.73,0.04,15.23,0.04,22.49"/><path d="M25.9,76.38c0.86,0.86,1.1,2.12,1.03,3.08c-0.29,4.05-0.39,5.65-0.96,13.13c-0.22,2.91,0.17,3.05,1.77,2.76c13.88-2.48,38.63-5.98,54.3-6.28"/><path d="M84.59,70.75c1.08,1.08,0.91,2.62,0.76,3.59c-0.56,3.75-1.16,7.7-2.08,12.87c-0.4,2.25-0.84,4.73-1.3,7.52"/></svg>