<svg><path d="M53.01,9.88c0.56,0.33,1.75,2.48,1.86,3.15c0.11,0.66-0.07,13.08-0.18,17.23"/><path d="M27.43,19.75c0.56,0.33,1.12,1.73,1.12,2.41c0,2.59-1.3,5.84-2.59,9.76c-0.48,1.45,0.83,2.58,2.11,2.28C41.5,31,77.9,28.28,82.92,28.15"/><path d="M83.02,16.12c0.56,0.33,1.21,2.48,1.12,3.15c-0.56,4.07-0.39,7.48-1.04,13.19"/><path d="M52.73,34.25c0.1,0.85,0.49,2.26-0.2,3.4c-4.82,7.93-15.34,22.68-35.92,32.58"/><path d="M52.83,37.12c5.6,5.05,29.74,21.53,35.92,25.23c2.1,1.25,4.79,1.79,6.88,2.15"/><path d="M39.15,62.52c0.64,0.17,3.64,0.19,4.29,0.17c6.71-0.2,15.63-2.46,25.21-2.49c1.07,0,2.63,0.08,3.17,0.17"/><path d="M34.35,74.39c0.63,0.57,1.38,1.93,1.54,2.68c2.1,9.75,3.01,14.84,4.43,22.97"/><path d="M35.83,76.78C49,75,64.72,73.94,72.05,73.2c2.68-0.27,4.29,1.6,3.9,3.19c-1.59,6.58-2.96,10.85-4.8,17.54"/><path d="M40.16,97.4c9.9-0.64,21.05-2.03,33.68-2.64"/></svg>