<svg><path d="M23.84,21.75c0.58,0.34,1.91,2.55,1.91,3.25c0,7.17,0.24,33.3,0.24,42.5"/><path d="M12.48,42.14c0.63,0.38,1.32,1.97,1.27,2.73c-0.36,5.24,0.12,16.1-1.14,23.98c-0.27,1.71,0.18,2.11,1.73,1.72c8.79-2.19,11.87-3.14,22.56-5.33"/><path d="M37.1,39.43c0.64,0.38,1.27,2.81,1.27,3.57c0,5.89-0.87,16.29-0.87,25.83"/><path d="M50.19,26.78c0.71,0.31,2,0.38,2.71,0.31c8.45-0.84,22.45-3.34,32.1-3.56c1.18-0.03,1.89,0.15,2.47,0.3"/><path d="M65.15,12.12c1.35,0.88,1.89,1.65,1.89,4.26c0,6.37-0.38,20.12-0.38,25.34"/><path d="M45.63,43.4c0.98,0.39,2.77,0.47,3.75,0.39c8.66-0.7,31.4-3.35,44.57-3.75c1.63-0.05,2.61,0.19,3.43,0.38"/><path d="M42,59.99c1.06,0.46,3.01,0.54,4.08,0.46c12.03-0.95,35.02-3.95,48.35-3.89c1.77,0.01,2.84,0.22,3.73,0.44"/><path d="M79.91,45.95c0.54,0.83,1.45,2.58,1.51,5.72c0.28,15.08,0.01,32.27,0.01,37.4c0,12.32-5.61,4.47-7.16,2.89"/><path d="M56.5,66.75c2.77,2.17,6.32,7.87,7.02,11.25"/></svg>