<svg><path d="M24.62,20.88c0.87,0.87,1.24,2.24,1.24,3.61c0,0.72-0.11,39.94-0.11,45.76"/><path d="M12.78,48.69c0.77,0.76,0.97,1.93,0.95,3.07c-0.12,4.99-0.47,11.99-1.02,19.46c-0.14,1.95-0.04,2.71,2.02,2.28c4.72-0.99,15.75-2.83,23.03-4"/><path d="M39.21,43.51c0.96,0.96,1.04,2.24,0.95,3.87c-0.21,3.53-0.39,11.65-1,19.43c-0.2,2.62-0.43,5.14-0.68,7.33"/><path d="M46.25,32.39c2.38,0.61,4.42,0.35,6.24,0.1c10.13-1.37,19.63-2.87,29.4-4.11c2.02-0.26,3.86-0.36,5.86,0.13"/><path d="M46.75,41.38c2.2,2.07,5.68,8.51,6.23,11.73"/><path d="M80.52,35.89c0.12,0.9,0.01,1.76-0.32,2.59c-1.29,4.09-3.71,8.99-8.96,15.52"/><path d="M44.88,59.86c2.3,0.55,5.27,0.26,7.6-0.05c9.92-1.29,22.4-2.69,34.16-3.87c2.16-0.22,4.49-0.31,6.62,0.06"/><path d="M63.08,12.75c1.02,1.02,1.16,2.41,1.17,4.83c0.13,46.17-1.37,59.29-29.49,76.92"/><path d="M63.5,60.25C69,67.12,78.25,78,86.81,86.78c2.64,2.71,5.5,4.92,7.26,6.22"/></svg>