<svg><path d="M52.01,8.38c0.56,0.33,1.75,2.48,1.86,3.15c0.11,0.66-0.07,9.08-0.18,13.23"/><path d="M26.93,12.75c0.56,0.33,1.12,1.73,1.12,2.41c0,2.59-1.3,6.84-2.59,10.76c-0.48,1.45,0.83,2.6,2.11,2.28c11.68-2.95,47.83-4.92,52.85-5.05"/><path d="M82.52,9.62c0.56,0.33,1.21,2.48,1.12,3.15C83.09,16.84,82,23,81.11,26.96"/><path d="M47.3,29c0.07,0.45,0.13,1.16-0.13,1.8C45.62,34.6,36.7,42.94,24.5,48.05"/><path d="M45.72,35.84c0.29,0.03,1.5,0,2.31-0.08c2.67-0.26,14.71-2.96,18.52-3.77c2.61-0.56,3.36,0.63,2.69,2.15C65.58,42.42,37.75,57.5,15,61.75"/><path d="M38.78,40.81c7.47,0.94,38.34,14.11,47.68,16.89c2.79,0.83,5.04,1.23,7.75,1.48"/><path d="M34.3,63.95c1.05,0.34,2.99,0.42,4.04,0.34c12.18-0.93,22.94-2.07,33.1-2.97c1.74-0.15,2.81,0.16,3.69,0.33"/><path d="M30.3,74.89c1.13,0.42,3.19,0.52,4.32,0.42c13.02-1.15,29.2-2.06,40.07-3.18c1.86-0.19,3,0.2,3.94,0.41"/><path d="M25.8,86.8c1.45,0.54,4.11,0.62,5.56,0.54c16.96-0.98,34.44-2.43,49.93-3.37c2.41-0.15,3.87,0.26,5.08,0.53"/><path d="M52.58,54.44c0.67,0.34,2.21,1.96,2.21,3.25c0,7.17,0.28,35.2,0.28,44.4"/></svg>