<svg><path d="M23,23.75c0.81,0.81,1.04,2.25,1.04,3.6c0,6.85-0.02,31.99-0.02,40.78"/><path d="M12.54,43.49c0.61,0.61,0.69,1.88,0.69,2.61c0,4.98-0.08,13.81-0.62,21.77c-0.27,3.96,0.64,4.59,2.86,3.81c8.41-2.94,9.91-3.44,19.46-6.71"/><path d="M34.62,38.91c0.8,0.8,1.19,1.97,1.19,3.41c0,3.9-0.03,12.4-0.04,20.18c-0.01,3.47-0.01,6.79-0.01,9.5"/><path d="M63.05,16.71c-0.05,1.17-0.6,1.98-1.24,2.67c-3.56,3.87-7.81,7.49-18.22,13.11"/><path d="M42.72,44.51c2.77,1.1,6.84,0.36,9.66-0.1c8.11-1.33,21.73-3.97,33.12-4.9c2.99-0.25,6.67-0.36,9.59,0.33"/><path d="M56.19,29.04c1.14,1.14,1.3,2.59,1.3,4.58c0,14.73-0.19,50.23-0.21,55.24c-0.04,9.39-5.03,2.89-7.1,0.75"/><path d="M42.23,71.45c1.9,1.43,3.7,0.97,5.46-0.51c1.69-1.43,13.52-10.21,17.87-14.45"/><path d="M71.8,11.5c1.1,1.84,1.47,3.08,1.54,7.04C73.89,51,79,82.25,91.91,94.67c4.09,3.93,3.71,0.79,3.16-7.34"/><path d="M89.83,49.08c-0.05,1.41-0.37,2.73-0.97,3.97c-3.98,7.08-10.6,17.58-23.44,30.25"/><path d="M83.05,18.82c2.7,2.27,7.01,7.47,8.27,11.36"/></svg>