<svg><path d="M25.7,18.75c0.61,0.36,2.01,2.69,2.01,3.42c0,7.55,0.25,39.97,0.25,49.65"/><path d="M14.29,44.51c0.67,0.4,1.39,2.07,1.33,2.88c-0.37,5.52-0.37,17.06-1.7,25.36c-0.29,1.8,0.19,2.22,1.82,1.81c9.26-2.31,13.51-2.81,24.76-5.11"/><path d="M40.22,40.16c0.67,0.4,1.33,2.96,1.33,3.76c0,6.21-0.92,19.26-0.92,29.31"/><path d="M68.99,11.5c0.12,0.38,1.67,1.95,1.67,4.34c0,8.16,0.09,20.01,0.09,23.91"/><path d="M57.71,20.6c0.03,0.4,0.07,1.02-0.07,1.59c-0.86,3.35-5.04,8.63-9.75,12.33"/><path d="M80.31,19.58c6.4,2.77,14.47,9.43,16.07,13.74"/><path d="M52.86,39.98c0.66,0.94,1.1,1.88,1.32,2.82c0.22,0.94,0.31,51.15,0.22,53.26"/><path d="M55.49,41.92c2.64-0.23,26.38-3.73,28.34-3.99c3.52-0.47,4.39,2.98,4.39,4.46c0,10.12-0.66,28.77-0.66,47.78c0,11.4-5.93,2.61-7.91,0.97"/><path d="M55.49,55.91c9.01-1.41,23.72-2.11,31.63-2.82"/><path d="M54.83,70.77c7.03-0.7,23.29-2.35,31.41-2.82"/></svg>