<svg><path d="M23.83,22c0.96,0.96,1.21,2,1.21,3.99c0,8.26,0.03,27.51,0.03,38.11"/><path d="M12.04,43.65c1.03,1.03,1.08,2.23,1.08,3.86c0,5.5-0.25,10.87-1.2,20c-0.19,1.81,0.25,2.38,1.82,1.8c8.26-3.06,12.76-4.56,21.51-7.56"/><path d="M36.22,39.83c1.04,1.04,1.15,2.04,1.08,3.74c-0.21,4.89-0.5,9.68-1.02,16.93c-0.14,1.9-0.27,3.96-0.4,6.25"/><path d="M59.81,10.5c0.05,0.58-0.23,1.56-0.6,2.34c-2.71,5.78-7.7,15.53-16.96,22.17"/><path d="M59.22,18.7c1.26,0.15,2.7-0.13,3.92-0.39c3.77-0.8,11.17-3.14,14.41-4c2.61-0.69,3.5,1.09,2.69,2.9C75.5,27.88,60.25,45.88,43.28,52.25"/><path d="M53.03,26.07c5.22,2.77,21.84,12.34,31.9,17.29c3.34,1.65,6.78,3.39,10.28,4.66"/><path d="M52.8,56.65c1.54,0.71,4.06,0.52,5.69,0.33c7.6-0.88,14.49-2.1,21.02-2.99c1.36-0.18,3.24-0.75,4.61-0.37"/><path d="M51.8,68.9c1.46,0.67,3.88,0.54,5.45,0.36c8.16-0.9,17.38-2.14,24.38-3.04c1.48-0.19,3.03-0.51,4.5-0.1"/><path d="M40.55,83c3.2,0.75,5.81,0.74,8.45,0.37c13.23-1.85,26.87-3.37,40.25-3.98c2.55-0.12,5.17-0.04,7.63,0.63"/><path d="M67.08,46c0.9,0.9,1.21,2.25,1.21,3.74c0,6.97-0.05,31.05,0.01,44.76c0.01,2.53,0.02,4.7,0.02,6.35"/></svg>