<svg><path d="M24.87,19.38c0.6,0.35,1.87,2.65,1.99,3.36c0.12,0.71-0.08,42.78-0.2,47.21"/><path d="M13.28,41.69c0.6,0.35,1.23,1.85,1.2,2.57c-0.22,4.99-0.72,18.49-1.27,25.96c-0.12,1.62-0.28,2.8,1.19,2.46c4.11-0.94,16.36-2.94,24.11-4.19"/><path d="M38.71,38.76c0.6,0.38,1.29,2.85,1.2,3.62C39.25,47.5,39.25,60,38.73,70.65"/><path d="M44.25,30.15c1.08,0.44,3.05,0.56,4.12,0.44c6.85-0.76,32.98-5.52,39.62-5.02c1.79,0.14,2.87,0.21,3.76,0.43"/><path d="M54.01,39.74c0,0.6,0.05,1.1-0.09,1.8c-1.31,6.52-5.21,14.63-10.95,21.83"/><path d="M51.39,52.21c2.48,1.74,5.65,6.39,6.86,10.79"/><path d="M83.76,36.24c0,0.61,0.09,1.13-0.08,1.82c-1.48,5.96-5.69,16.55-10.71,22.56"/><path d="M81.64,47.21c5.54,3.52,9.8,7.94,13.11,13.29"/><path d="M65.25,12.75c0.48,1.17,1.21,2.52,1.25,5.04C67.25,64,63.75,82.5,35.25,98"/><path d="M65.25,59.5c6.25,10,20,27.75,28.47,33.5c2.38,1.61,3.01,2.08,4.03,2.25"/></svg>