<svg><path d="M52.96,9.68c0.1,0.69-0.01,1.33-0.32,1.94c-1.24,2.86-4.42,6.01-9.65,10.95"/><path d="M34.63,23.65c0.8,0.8,1.32,2.1,1.32,3.81c0,6.57-0.17,25.1-0.21,37.3c-0.01,2.04-0.01,3.92-0.01,5.53"/><path d="M36.77,26.05c7.48-1.55,23.86-4.43,31.67-5.25c2.88-0.3,4.68,1.63,4.1,4.49c-0.56,2.76-2.21,10.46-3.75,17.07c-0.27,1.15-0.54,2.27-1.04,3.83"/><path d="M36.86,36.33c11.14-1.7,24.77-3.45,33.12-3.9"/><path d="M36.99,47.73c9.14-1.36,22.89-2.98,30.23-3.47"/><path d="M37.03,58.56c11.22-1.31,35.09-4.06,42.22-5.08c2.24-0.32,5.25-0.36,7.13-0.35"/><path d="M36.73,69.99c15.77-2.24,35.41-4.4,49.02-5.69c5.75-0.55,7.12,0.95,6,5.78c-2.23,9.56-6.25,18.11-10,24.15c-3.75,6.02-6.25,3.4-9.5,0.25"/><path d="M45.9,71.5c0.86,0.86,1.4,1.88,1.4,3.05c0,2.7-0.16,6.7-0.16,11.09"/><path d="M26.57,77.43c0.81,0.81,1.14,2.31,1,2.89c-0.82,3.31-1.44,5.93-2.05,8.3c-0.34,1.31,0.53,2.29,1.74,1.97c8.38-2.21,30.5-5.84,40.2-5.94"/><path d="M69.68,71.56c0.75,0.75,0.85,1.96,0.75,2.55c-0.68,3.85-1.24,6.07-2.24,11.15c-0.17,0.89-0.36,1.85-0.57,2.92"/></svg>