<svg><path d="M52.51,9.88c0.56,0.33,1.75,2.48,1.86,3.15c0.11,0.66-0.07,11.08-0.18,15.23"/><path d="M25.93,16.25c0.56,0.33,1.12,1.73,1.12,2.41c0,2.59-0.3,6.84-1.59,10.76c-0.48,1.45,0.84,2.63,2.11,2.28c8.68-2.45,51.83-5.42,56.85-5.55"/><path d="M84.02,14.12c0.56,0.33,1.21,2.48,1.12,3.15c-0.56,4.07-0.39,8.73-0.54,13.19"/><path d="M52.4,32c0.11,0.73,0.47,2.03-0.21,2.94C46.75,42.25,34.25,54,14.91,63"/><path d="M53.14,34.36c7.04,4.09,29.63,19.83,35.58,23.23c2.02,1.16,4.61,1.65,6.62,1.98"/><path d="M41.06,54.46c0.71,0.28,2,0.36,2.7,0.28c4.49-0.49,16.82-2.25,21.87-2.52c1.17-0.06,1.88,0.13,2.47,0.28"/><path d="M28.67,63.81c0.6,0.58,0.8,1.49,0.8,2.54c0,7.65,0.41,25.4,0.41,31.65"/><path d="M29.47,65.47c7.61-0.46,46.98-3.84,48.48-4c3.21-0.35,4.37,2.43,4.41,3.58c0.17,6.18-0.27,16.45-0.27,25.87c0,7.58-3.09,7.08-6.71,1.89"/><path d="M29.7,78.96c6.1-0.4,46.78-3.37,51.07-3.57"/><path d="M47.29,65.54c0.45,0.73,0.76,1.58,0.79,3.98c0.18,11.54-0.01,21.96-0.01,25.89"/><path d="M62.5,63.66c0.56,0.73,0.94,1.58,0.99,3.98c0.23,11.54-0.01,23.94-0.01,27.88"/></svg>