<svg><path d="M52.3,10.38c0.61,0.36,1.91,2.71,2.03,3.43c0.12,0.72-0.08,10.6-0.2,15.12"/><path d="M25.61,18.88c0.61,0.36,1.22,1.89,1.22,2.63c0,2.83-0.92,3.92-2.33,8.2c-0.52,1.58,0.91,2.84,2.3,2.48c10.69-2.69,50.84-4.96,56.32-5.1"/><path d="M82.88,14.47c0.61,0.36,1.24,2.7,1.22,3.43c-0.1,4.6-0.6,8.1-1.27,12.85"/><path d="M53,34.5c0,0.81,0.1,1.46-0.29,2.44C50.7,42.03,33.15,60.97,16.75,68.5"/><path d="M52.75,37.8c9.25,6.2,32,21.7,37.27,24.07c3.08,1.39,4.1,1.63,5.48,1.76"/><path d="M36.77,59.49c0.67,0.21,2.85,0.28,3.53,0.22c3.15-0.29,14.82-2.13,27.88-2.88c1.03-0.06,1.97,0.04,2.83,0.22"/><path d="M26.8,72.79c1.07,0.37,4.61,0.58,5.7,0.49c6.27-0.49,25.06-2.79,45.44-3.65c1.34-0.06,4.28-0.15,6.27,0.18"/><path d="M52.89,60.67c1,0.66,1,2.15,1,2.68c0,3.71,0.5,27.4,0.25,31.11"/><path d="M33,80.69c5.61,4.04,8.35,8.41,9.5,10.76"/><path d="M74.54,76.55c0.38,0.97,0.57,2.37,0.43,3.19c-0.38,2.09-6.04,9.13-9.22,12.08"/><path d="M20,96.95c0.77,0.2,4.63,0.77,6.33,0.65c8.26-0.6,35.14-3.51,59.42-3.51c2.31,0,5.09,0.26,6.25,0.51"/></svg>