<svg><path d="M22.65,22.45c0.56,0.33,1.86,2.44,1.86,3.11c0,6.86,0.24,33.12,0.24,41.92"/><path d="M12.54,44.76c0.62,0.36,1.29,1.88,1.24,2.61c-0.35,5.01,0.12,14.31-1.11,21.85c-0.27,1.64,0.18,2.01,1.69,1.65c8.58-2.1,11.59-3.01,22.01-5.1"/><path d="M36.07,41.13c0.62,0.36,1.24,2.69,1.24,3.42c0,5.64-0.35,16.99-0.35,26.12"/><path d="M66.23,13.15c0.07,0.87,0.14,2.25-0.14,3.5c-1.68,7.39-10.14,22.99-23.85,34"/><path d="M67,15.82c5.05,4.85,21.25,23.47,25.52,27.5c1.45,1.37,3.31,1.95,4.75,2.34"/><path d="M56.69,44.96c0.74,0.31,2.08,0.34,2.82,0.31c5.23-0.26,14.66-1.94,19.92-2.23c1.23-0.07,1.97,0.15,2.58,0.3"/><path d="M48.86,57.1c0.48,0.62,1.07,1.61,1.15,2.75c0.44,6.12-0.25,28.37,0.37,34.58"/><path d="M50.53,58.89c6.09-0.5,35.71-4.17,36.91-4.35c2.57-0.38,3.5,2.62,3.53,3.87c0.14,6.67-0.42,17.68-0.42,29.59c0,7.86-2.44,5.29-5.7,2.54"/><path d="M51,73.49c4.88-0.43,36.4-3.64,39.83-3.86"/><path d="M63.12,57.95c0.27,0.79,0.45,1.7,0.48,4.3c0.11,12.48,0.18,24.55,0.18,28.8"/><path d="M75.78,56.86c0.18,0.79,0.3,1.7,0.32,4.3c0.07,12.47,0,25.23,0,29.48"/></svg>