<svg><path d="M23.95,18.25c0.96,0.96,1.01,2.12,1.01,3.92c0,7.55,0,39.72,0,49.4"/><path d="M12.29,43.26c0.85,0.85,1.08,1.86,1.08,3.38c0,5.16-0.11,14.6-0.12,24.36c0,3,0.38,4.13,3.38,3.55c5.99-1.17,10.61-1.92,18.61-3.6"/><path d="M36.22,40.91c1,1,1.15,1.96,1.08,4.01c-0.18,5.21-0.62,15.12-0.98,24.08c-0.07,1.71-0.13,3.38-0.19,4.98"/><path d="M47.19,24.85c1.73,0.68,4.42,0.41,6.22,0.18c8.45-1.06,19.01-2.68,27.59-3.32c2.18-0.16,4.42-0.41,6.58,0.1"/><path d="M65.63,11.37c0.82,0.82,1.24,1.88,1.24,3.35c0,4.93-0.04,13.81-0.04,21.23"/><path d="M43.76,38.71c2.74,0.66,5.75,0.3,8.23-0.04c12.51-1.68,25.59-2.84,34.25-3.5c2.46-0.19,4.85-0.51,7.26,0.19"/><path d="M57.88,42.25c0.11,1.07-0.09,2.07-0.61,3c-1.73,3.85-6.4,9.37-14,13.67"/><path d="M73.6,39.62c0.89,0.89,1.06,2,1.06,3.34c0,1.41-0.03,1.57-0.03,3.79c0,4,1.75,4.79,10.6,4.79c5.43,0,8.51-0.79,9.27-1.24"/><path d="M59.51,54c0.14,1.64,0.11,2.66-0.62,4.19c-2.43,5.07-7.21,12.52-15.43,19.96"/><path d="M58.65,63.8c1.72,0.18,3.17-0.08,4.88-0.42c3.78-0.75,9.57-2.21,13.08-3.04c3.5-0.83,5.41,0.19,3.58,3.76C75.31,73.61,60.62,90,40.83,98.5"/><path d="M55.13,69.14c4.12,3.8,20.18,16.46,28.96,22.66c2.82,2,5.79,3.57,9.08,4.66"/></svg>