<svg><path d="M52.44,10.2c0.64,0.36,1.99,2.73,2.12,3.46c0.13,0.73-0.08,9.12-0.21,13.68"/><path d="M25.8,18.57c0.64,0.36,1.37,1.91,1.28,2.65c-0.42,3.26-1.57,5.78-2.11,8.55c-0.32,1.65,0.31,2.72,1.77,2.06c3.58-1.63,47.23-5,55.24-5.2"/><path d="M82.73,14.88c0.64,0.37,1.38,2.73,1.28,3.46c-0.63,4.48-1.25,8.4-1.82,13.07"/><path d="M35.98,36.25c0.22,1.52-0.06,3.52-0.77,4.82c-4.54,8.32-9.96,16.68-20.71,25.48"/><path d="M29.81,54.24C30,63.25,30,93.5,29.78,101"/><path d="M59.6,34c0.07,0.84-0.02,1.94-0.26,2.67c-1.51,4.6-3.43,8.15-6.9,13.75"/><path d="M29.35,53.37c10.44-0.95,51.15-4.21,55.63-4.73"/><path d="M55.16,52.55c0.88,0.65,1.58,2.04,1.58,3.16c0,11.42-0.44,29.78-0.44,38.55"/><path d="M31.21,65.75c9.85-0.78,45.45-3.07,49.67-3.5"/><path d="M30.01,80.01c10.39-0.66,47.81-3.01,52.26-3.37"/><path d="M30.05,95.95C40.49,95,85.52,93.19,90,92.67"/></svg>