<svg><path d="M52.51,9.38c0.56,0.33,1.75,2.48,1.86,3.15c0.11,0.66-0.07,8.58-0.18,12.73"/><path d="M26.43,16.25c0.56,0.33,1.12,1.73,1.12,2.41c0,2.59-0.55,5.09-1.09,8.26c-0.26,1.5,0.83,2.61,2.11,2.28c6.43-1.7,48.83-5.92,53.85-6.05"/><path d="M82.52,12.62c0.56,0.33,1.21,2.48,1.12,3.15C83.09,19.84,83,23,82.11,26.96"/><path d="M31.35,38.01c0.56,0.53,1.13,1.29,1.13,2c0,0.71,3.37,21.76,3.37,22.11"/><path d="M32.51,39.38c3.17-0.09,38.19-4.53,41.08-4.64c2.41-0.09,3.54,1.09,3.27,3.17c-0.14,1.1-1.54,12.69-3.96,20.33"/><path d="M34.44,49.22c8.6-0.44,35.99-3.68,40.84-3.68"/><path d="M35.65,59.63c8.74-0.38,26.55-2.39,37.44-2.72"/><path d="M28.24,76.54c4.45-0.59,12.76-3.04,18.32-4.54c1.35-0.37,2.07-0.5,3.25-0.11"/><path d="M26.4,64.04c0.97,0.52,1.32,1.99,1.37,2.73c0.27,4.67-0.31,25.67-0.31,28.02c0,1.45,0.76,2.74,3.93,1.46C37.87,93.62,42,91,49.05,87.67"/><path d="M82.27,62.38c0.29,0.38-0.15,2.28-0.84,2.76C74.5,70,68.75,73.75,59.65,77.59"/><path d="M54.73,63.16c1.52,0.84,2.14,3.25,2.11,3.96c-0.14,3.98-0.3,19.74-0.3,21.88c0,6.51,1.95,8.59,16.11,8.59c16.84,0,17.95-1.58,17.95-11.14"/></svg>