<svg><path d="M51.84,10.38c0.6,0.34,1.88,2.57,2,3.25c0.12,0.69-0.08,10.46-0.2,14.75"/><path d="M25.55,18.49c0.6,0.34,1.2,1.79,1.2,2.49c0,2.68-0.9,5.56-2.28,9.62c-0.51,1.5,0.92,2.78,2.27,2.35c11.77-3.7,39.52-5.2,56.49-5.76"/><path d="M82.94,14.25c0.6,0.34,1.3,2.56,1.2,3.25c-0.6,4.21-0.89,8.24-1.22,13.62"/><path d="M23.44,41.67c0.65,0.95,1.35,2.87,1.35,4.59C24.78,51.3,25,95.14,25,98"/><path d="M25.28,43.48c8.25-0.76,53.52-5.74,55.14-6.01c3.47-0.57,5.58,1.4,5.64,3.08c0.08,2.09-0.65,49.79-0.65,54.18c0,7.06-3.69,3.62-6.29,1.14"/><path d="M40.98,47.44c2.23,1.38,5.77,5.67,6.33,7.81"/><path d="M66.95,44.08c0.02,0.32,0.05,0.83-0.05,1.3c-0.62,2.73-3.79,7.9-8.63,12.41"/><path d="M32.87,61.43c0.9,0.3,2.54,0.39,3.43,0.3c5.71-0.53,30.72-4.29,37.13-4.38c1.49-0.02,2.39,0.14,3.14,0.3"/><path d="M52.44,60.83c0.45,0.26,1.4,1.97,1.49,2.49c0.09,0.53-0.05,18.12-0.14,21.4"/><path d="M37.94,71.49c0.45,0.26,0.96,1.38,0.89,1.91c-0.3,2.34-0.23,7.02-1.43,11.78c-0.3,1.17-0.13,2.67,0.89,2.2c2.51-1.17,25.8-4.46,31.42-4.6"/><path d="M70.61,66.17c0.45,0.26,0.95,1.96,0.89,2.49c-0.38,3.86-0.64,11.06-1.35,17.45"/></svg>