<svg><path d="M53.26,11.67c0.85,0.85,0.96,2.08,0.96,3.56c0,0.71-0.09,10.19-0.09,14.76"/><path d="M27.57,20.9c0.56,0.85,0.63,2,0.54,2.76c-0.42,3.4-0.61,3.84-1.38,7.05c-0.56,2.33,0.02,3.39,2.38,3.04c14.27-2.13,39.39-4.63,54.57-4.95"/><path d="M84.2,14.76c0.96,0.96,1.3,2.24,1.29,3.61c-0.04,2.89-0.49,5.96-0.73,8.9c-0.17,2.05-0.36,4.02-0.61,5.8"/><path d="M24.44,43.06c1,1,1.36,1.94,1.36,3.51c0,33.93-3.8,44.18-11.52,52.93"/><path d="M26.71,45.33c4.42-0.7,14.69-2.64,16.74-2.84c2.31-0.24,3.66,1.26,3.66,3.36c0,6.47-0.1,31.71-0.1,45.91c0,9.9-4.07,3.89-6.36,2.18"/><path d="M26.71,59.74c3.89-0.38,13.79-1.58,19.04-1.77"/><path d="M25.56,73.04c7.32-0.57,11.93-1.26,20.4-1.64"/><path d="M63.25,41.56c0.85,0.85,0.9,2.07,0.94,3.47C65,75.88,61.12,89.38,53.61,98.25"/><path d="M65,43.21c2-0.17,13.86-2.15,18.15-2.79c3.62-0.54,4.6,0.77,4.58,4.08c-0.05,8.2-0.07,34.74-0.07,48.22c0,9.9-3.68,3.82-5.58,2.11"/><path d="M65.38,57.75c3.24-0.38,16.89-1.83,21.26-2.02"/><path d="M64.18,72.52c6.09-0.57,15.3-1.51,22.35-1.89"/></svg>