<svg><path d="M25.34,21.27c0.56,0.32,1.87,2.38,1.87,3.02c0,6.67,0.24,36.3,0.24,44.85"/><path d="M14.76,45.52c0.62,0.35,1.29,1.83,1.24,2.54c-0.35,4.88,0.15,14.56-1.08,21.89c-0.27,1.59,0.18,1.96,1.69,1.6c8.59-2.04,12.03-2.48,22.47-4.51"/><path d="M38.82,41.18c0.62,0.35,1.24,2.61,1.24,3.32c0,5.48-0.85,17.01-0.85,25.88"/><path d="M46.73,16.71c1.68,0.74,3.68,1.4,5.46,1.25c9.62-0.83,34.2-3.52,38.06-3.81C92.16,14,93,15.98,93,18.2c0,3.74-1.05,6.91-2.52,14.82"/><path d="M70.19,16.2c0.49,0.3,0.78,1.35,0.88,1.95c0.1,0.6,0,13.36-0.1,17.11"/><path d="M51.75,37.24c4.83-0.25,36.4-3.7,41.44-3.95"/><path d="M50.96,18.45c0,4.36,0.34,16.08,0.29,20.17C50.96,60.96,47.77,78.4,35,93.11"/><path d="M59.33,46.73c0.48,1.08,1.18,1.89,1.18,3.33c0,1.44-0.32,44.33-0.32,45.05"/><path d="M60.7,48.13c2.72-0.18,24.6-2.8,27.08-3.02c2.07-0.18,3.72,0.64,3.53,3.34c-0.12,1.71-0.99,29.76-0.98,45.61"/><path d="M60.76,61.76c5.37-0.25,24.86-2.29,29.23-2.29"/><path d="M61.49,76.8c7.22-0.6,19.66-1.75,28.19-2.66"/><path d="M60.76,92.95c6.2-0.32,22.14-2.11,29.15-2.11"/></svg>