<svg><path d="M52.51,11.38c0.56,0.33,1.75,2.48,1.86,3.15c0.11,0.66-0.07,9.58-0.18,13.73"/><path d="M25.93,18.75c0.56,0.33,1.12,1.73,1.12,2.41c0,2.59-0.3,4.84-1.59,8.76c-0.48,1.45,0.82,2.54,2.11,2.28c16.93-3.45,51.33-4.92,56.35-5.05"/><path d="M84.02,15.62c0.56,0.33,1.21,2.48,1.12,3.15c-0.56,4.07-0.64,7.23-1.54,11.19"/><path d="M9.92,55.75c1.09,0.49,3.08,0.61,4.16,0.49c8-0.89,22.83-3.4,35.94-4.58c1.81-0.16,2.9,0.23,3.8,0.48"/><path d="M22.03,43.24c0.81,0.36,1.3,1.62,1.46,2.34c0.16,0.72,0,46.66-0.16,51.17"/><path d="M40.95,39.75c0.81,0.36,1.3,1.62,1.46,2.34c0.16,0.72,0,48.92-0.16,53.43"/><path d="M24,72.52c4.16-0.25,15.87-1.93,18.11-1.93"/><path d="M24,94.09c6.75-1.09,13.45-1.76,17.92-1.94"/><path d="M66.75,35.75c0.04,0.65,0.08,1.68-0.08,2.62c-0.97,5.52-6.54,17.64-14.17,25.06"/><path d="M65.76,48.13c0.77,0.29,2.24,0.75,3.4,0.49c1.42-0.31,16.39-3.52,17.74-3.68c6.79-0.8-2.13,8.27-3.55,9.79"/><path d="M69.59,56.13c0.06,0.95,0.14,2.43-0.12,3.8C66.99,73.17,62.2,86.83,48.5,96.3"/><path d="M68.37,67.02c3.81,6.2,17.55,20.78,23.81,25.91c1.32,1.08,2.32,1.72,3.57,2.07"/></svg>