<svg><path d="M36.65,16.4c0.52,0.31,1.17,1.02,1.28,1.46c1.08,4.39,1.83,10.89,2.88,17.29"/><path d="M38.18,17.4c10.82-0.65,25.22-2.01,31.3-2.42c2.22-0.15,3.77,1.26,3.24,3.05c-1.1,3.68-1.45,6.98-3.41,11.98"/><path d="M41.85,32.62c7.14-0.46,20.48-1.46,30.28-2.16"/><path d="M21.31,43.46c0.41,0.34,0.83,0.62,1.01,1.05c1.42,3.37,2.68,12.68,3.65,18.74"/><path d="M23.86,44.95c10.35-1.24,17.25-2.27,22.03-2.71c1.75-0.16,2.8,0.96,2.55,1.91c-1.04,3.94-2.25,9.03-3.79,14.48"/><path d="M25.66,61.43c5.62-0.5,10.55-1.58,21.03-2.31"/><path d="M59.24,41.62c0.38,0.31,0.77,0.57,0.93,0.96c1.31,3.09,2.09,12.24,2.98,17.79"/><path d="M61.6,42.82c9.58-1.13,18.37-2.51,22.8-2.92c1.62-0.15,2.59,0.88,2.36,1.75c-0.96,3.61-2.08,9.46-3.51,14.46"/><path d="M63.74,59.14c7.25-0.4,14.76-1.89,21.33-2.07"/><path d="M53.02,64.75c0.68,0.4,1.77,1.5,1.77,3.83c0,0.82-0.09,17.86-0.23,22.91"/><path d="M24.05,73.98c0.68,0.4,1.47,2.12,1.37,2.93c-0.45,3.61-0.42,7.33-1.26,13.75c-0.24,1.84,0.65,3.13,2.35,2.88c6.09-0.9,49.02-3.19,57.59-3.41"/><path d="M84.95,70.8c0.69,0.41,1.48,3.02,1.37,3.83c-0.68,4.96-0.85,10.12-1.98,19.37"/></svg>