<svg><path d="M22.84,25.77c0.94,0.94,1.12,2.11,1.12,3.58c0,6.8-0.01,31.01-0.01,39.74"/><path d="M11.76,45.98c0.75,0.75,0.83,2.01,0.74,3.09c-0.45,5.53-0.91,12.26-1.62,20.3c-0.28,3.17,0,4.38,2.96,3.58c6.48-1.75,12.04-3.2,20.24-4.5"/><path d="M36.32,43.31c0.56,1.19,0.56,2.44,0.49,3.64c-0.26,4.32-0.75,11.73-1.33,19.43c-0.17,2.24-0.35,4.51-0.53,6.73"/><path d="M50.62,11.88c2.85,2.06,7.36,8.47,8.07,11.67"/><path d="M78.93,10.52c0.07,1.05-0.04,2.1-0.57,3.02c-1.73,2.96-2.83,4.98-6.61,8.91"/><path d="M44.92,28.07c2.46,0.55,5.35,0.41,7.33,0.17c8.4-1.01,24-2.79,31.88-3.18c1.91-0.09,3.97-0.26,5.81,0.35"/><path d="M64.46,28.66c0.75,0.75,1.06,1.84,1.06,3.32c0,3.9,0.08,14.28,0.08,20.32"/><path d="M47.14,40.79c1.85,0.71,4.37,0.19,6.26,0.01c6.42-0.61,17.18-2.12,24.49-2.54c1.99-0.12,4.05-0.32,6.01,0.13"/><path d="M42.27,54.35c3.6,0.65,6.02,0.62,8.59,0.41c9.15-0.75,27.38-2.36,37.89-2.92c2.51-0.13,4.99-0.37,7.43,0.34"/><path d="M54.14,57.59c0.07,0.86-0.19,2.08-0.64,3.21c-2.98,7.5-9.75,21.45-22.41,31.43"/><path d="M53.61,69.41c2.23,0.46,4.9,0.05,6.39-0.12c6.17-0.7,15.75-1.91,22.11-2.32c1.88-0.12,4.64-0.34,6.26,0.1"/><path d="M68.04,69.38c0.79,0.79,0.91,1.74,0.91,3.02c0,5.84-0.08,16.84-0.08,21.47"/><path d="M43.07,95.68c2.7,0.73,5.3,0.67,8.06,0.47c13.6-0.99,24.64-1.92,36.63-2.17c3.04-0.06,6,0.14,8.57,1.08"/></svg>