<svg><path d="M52,9.15c0.86,0.86,1.14,1.97,1.14,3.09c0,0.71,0.09,5.01,0.09,9.93"/><path d="M26.8,16.14c0.49,0.35,0.72,2.38,0.49,3.05c-0.68,1.99-1.05,3.6-1.6,5.08c-0.86,2.33-0.5,2.85,1.95,2.44C46,23.62,63.75,22,80.3,21.24"/><path d="M82.27,11.38c0.61,1.25,0.48,2.12,0.24,3.34c-0.53,2.6-0.97,4.49-1.46,6.67c-0.32,1.43-0.67,2.99-1.08,4.96"/><path d="M52.83,29.5c1.15,1.15,1.16,2.38,1.16,4.05c0,1.45-0.12,1.68-0.12,3.83"/><path d="M20.85,40.45c3.28,0.55,6.19,0.4,9.53,0.05c11.54-1.21,34.7-3.58,48.51-4.27c3.21-0.16,7.26-0.47,10.31,0.65"/><path d="M36.33,47.05c0.62,0.62,1.21,1.35,1.57,2.48c0.94,2.99,1.56,4.98,2.19,7.19c0.29,0.99,0.57,2.03,0.9,3.22"/><path d="M38.45,48.22c10.27-1.28,22.6-3.19,28.47-3.52c2.8-0.15,2.98,1.47,2.2,3.68c-0.75,2.12-1,3-2.05,6.24"/><path d="M41.97,58.04c8.21-0.78,13.86-1.53,21.8-2.37c1.41-0.15,2.88-0.3,4.46-0.46"/><path d="M23,66.53c0.92,0.92,1.11,2.12,1.4,4.25c0.67,4.93,2.07,14.76,3.16,22.85c0.29,2.11,0.55,4.11,0.78,5.87"/><path d="M25.02,68.13c11.11-1.01,50.73-4.63,57.17-5.18c4.41-0.37,7,0.95,6.07,7.36c-1.29,8.82-2.35,18.51-5.34,25.42c-2.67,6.18-5.17,1.64-7.33-0.75"/><path d="M40.9,75.74c0.74,0.74,1.13,1.68,1.31,2.66c0.91,3.73,1.57,6.77,2.37,10.7"/><path d="M42.12,76.48c8.1-1.34,17.2-2.69,21.82-3.17c1.85-0.19,4.15,1.1,3.34,3.22c-1.03,2.72-1.67,4.32-3.01,8.05"/><path d="M45.27,87.09c4.45-0.31,10.27-1.14,16.34-1.76c1.36-0.14,2.74-0.27,4.11-0.37"/></svg>