<svg><path d="M23.2,20.25c0.61,0.36,1.51,1.75,1.51,3.42c0,6.3-0.17,26.07-0.23,38.08c-0.01,2.39-0.02,4.47-0.02,6.07"/><path d="M11.79,45.01c0.67,0.4,1.39,2.07,1.33,2.88c-0.37,5.52-0.37,12.56-1.7,20.86c-0.29,1.8,0.19,2.22,1.82,1.81c9.26-2.31,12.51-2.81,23.76-5.11"/><path d="M36.72,41.16c0.67,0.4,1.33,2.96,1.33,3.76c0,5.09-0.62,12.42-0.84,20.07c-0.05,1.68-0.08,2.43-0.08,4.24"/><path d="M44.39,19.41c1.11,0.59,3.52,0.55,4.6,0.45c6.63-0.61,10.6-1.86,14.58-2.62c2.2-0.42,2.86,1.24,2.22,3.18c-0.46,1.39-0.97,5.46-1.79,9.2c-0.32,1.47-0.7,2.9-1.13,4.08"/><path d="M49.5,36.5c1.75,0,10.5-1.5,11.75-1.5s2.5-0.5,3.5-0.5"/><path d="M47.92,35.12c0.5,0.97,0.96,2.1,0.63,3.63c-0.37,1.76-2.05,7.51-2.93,11.32c-0.6,2.59,0.35,2.91,1.83,2.41c3.54-1.22,13.25-3.41,15.97-3.58c2.21-0.14,3.32,1.28,3.1,4.6C65.83,64,62.68,80.25,57.45,92.58c-1.81,4.25-4.89,2.42-6.34-1.53"/><path d="M56.26,53.64c0.04,0.4,0.09,1.02-0.08,1.59C55.16,58.59,49,66,41.81,70.97"/><path d="M60.5,63.14c0.05,0.5,0.11,1.28-0.1,1.99c-1.22,4.21-7.74,13.93-17.35,19.58"/><path d="M74.73,18.41c1.82,0.84,3.53,0.62,4.6,0.45c3.81-0.61,12.5-2.39,14.64-3.12c2.13-0.73,3.36,0.74,2.72,2.68c-0.51,1.54-1.16,4.58-2.38,9.91c-0.32,1.38-0.67,1.84-1.07,3.37"/><path d="M79.25,34.25c1.75,0,11.5-2,12.75-2s2.5-0.5,3.5-0.5"/><path d="M77.77,33.12c0.5,0.97,0.96,2.1,0.63,3.63c-0.37,1.76-2.33,7.02-3.39,11.82c-0.26,1.19,0.33,2.83,1.83,2.41c6.09-1.72,15.29-2.91,18.01-3.08c2.21-0.14,3.53,1.3,3.1,4.6C95.88,68.5,92.63,82.9,87.6,93.58c-1.97,4.17-4.52,0.67-5.87-2.03"/><path d="M86.26,52.64c0.04,0.4,0.09,1.02-0.08,1.59c-1.02,3.36-6.87,10.72-14.87,15.23"/><path d="M91.5,61.64c0.06,0.54,0.12,1.4-0.12,2.18c-1.41,4.61-9.5,14.71-20.57,20.89"/></svg>