<svg><path d="M25.7,15.25c0.61,0.36,2.01,2.69,2.01,3.42c0,8.05,0.25,40.47,0.25,49.65"/><path d="M12.79,45.51c0.67,0.4,1.39,2.07,1.33,2.88c-0.37,5.52,0.13,13.86-0.7,20.36c-0.23,1.81,0.17,2.08,1.82,1.81c8.01-1.31,14.26-2.31,26.76-3.61"/><path d="M42.72,38.66c0.67,0.4,1.33,2.96,1.33,3.76c0,6.21-1.55,17.32-2.42,27.81"/><path d="M67.54,9.66c0.02,0.28,0.04,0.72-0.03,1.11c-0.41,2.32-2.74,7.29-5.93,10.18"/><path d="M55.3,21.42c0.33,0.45,1.1,2.06,1.1,2.8c0,7.53-0.96,34.97-1.17,46.81"/><path d="M56.81,23.25c1.55,0,24.5-3.67,26.01-3.56c2.24,0.16,3.33,2.15,3.13,4.02c-0.12,1.15-2.14,13.19-3.58,21.96"/><path d="M57.06,34.08c3.19-0.58,24.19-2.33,27.75-2.59"/><path d="M56.47,46.12c3.88-0.14,21.05-2.48,25.88-2.5"/><path d="M55.69,57.64c9.46-0.97,30.38-3.3,34.44-3.91c1.42-0.21,3.82-0.41,4.53-0.12"/><path d="M55.24,70.25c9.1-1.63,34.63-4.42,39.67-4.9c3.28-0.31,4.97,0.89,4.38,4.57c-1.64,10.24-5.04,19.82-9.43,26.25c-3.92,5.73-5.97,1.04-7.3-0.24"/><path d="M50.45,81.72c0.45,4.53-0.32,9.96-1.64,12.73"/><path d="M58.52,80.6c2.3,1.95,4.48,7.07,5.05,9.93"/><path d="M68.77,77.52c2.13,1.45,5.49,5.83,6.02,7.96"/><path d="M78.8,75.2c2.37,1.46,6.13,5.87,6.72,8.01"/></svg>