<svg><path d="M22.27,20c0.58,0.33,1.94,2.5,1.94,3.18c0,7.01,0.25,35.61,0.25,44.6"/><path d="M11.77,44.92c0.64,0.37,1.34,1.93,1.29,2.67c-0.36,5.13,0.14,13.84-1.14,21.54c-0.28,1.67,0.19,2.06,1.76,1.68c8.93-2.14,12.02-3.11,22.87-5.24"/><path d="M36.77,41.38c0.65,0.37,1.29,2.75,1.29,3.49c0,5.76-0.81,15.62-1.39,25.21"/><path d="M43.38,18.72c1.35,0.47,3.82,0.55,5.16,0.47c14.02-0.79,27.17-3.73,42.29-4.16c2.24-0.06,3.59,0.23,4.71,0.46"/><path d="M59.43,27.87c0.29,0.31,0.6,0.57,0.73,0.96c1.02,3.08,3.24,11.57,3.94,17.09"/><path d="M60.75,29.38c7.03-1.18,19.84-2.56,23.87-3.03c1.47-0.17,2.36,1.02,2.14,2.04c-0.87,4.19-1.48,6.5-2.78,12.3"/><path d="M64.05,43.48c4.73-0.53,15.32-1.45,21.81-2.27"/><path d="M54.37,56.53c0.34,0.41,0.69,0.75,0.84,1.26c1.19,4.05,2.44,16.69,3.25,23.96"/><path d="M56.09,58.77c4.36-1.07,9.71-2.41,13.72-2.94c1.46-0.19,2.35,1.15,2.13,2.3c-0.87,4.73-1.48,13.04-2.76,19.59"/><path d="M58.38,79.33c4.71-0.6,10.87-1.66,12.67-1.55"/><path d="M78.3,54.83c0.34,0.44,0.7,0.81,0.85,1.36c1.19,4.35,2.15,16.31,2.96,24.13"/><path d="M79.63,56.67c6.62-1.71,11.32-2.61,15.35-3.18c1.47-0.21,2.35,1.24,2.14,2.47c-0.87,5.09-2.39,13.79-3.68,20.82"/><path d="M82.34,78.17c4.73-0.65,6.58-0.65,13.07-1.64"/><path d="M47.2,19.36c0,3.66-0.45,67.58-0.45,71.01c0,2.91,0.91,3.78,2.53,3.66c9.21-0.69,42.9-3.51,45.9-3.51c2.99,0,3.99,0.34,6.33,1.21"/></svg>