<svg><path d="M22.63,20c0.59,0.33,1.96,2.44,1.96,3.1c0,6.84,0.25,36.22,0.25,44.99"/><path d="M11.53,44.85c0.65,0.36,1.35,1.88,1.3,2.61c-0.36,5,0.14,13.96-1.15,21.48c-0.28,1.63,0.19,2.01,1.77,1.64c9.01-2.09,12.64-2.54,23.59-4.63"/><path d="M36.76,41.4c0.65,0.36,1.3,2.68,1.3,3.41c0,5.62-0.9,15.95-0.9,25.06"/><path d="M67.24,11c0.99,1.22,1.48,1.22,1.48,4.07c0,2.85,0,2.08,0,7.25"/><path d="M47.36,24.27c1.1,0.27,2.4,0.37,3.49,0.27c9.36-0.82,23.63-3.4,37.6-3.52c1.84-0.02,2.94,0.13,3.86,0.26"/><path d="M56.1,26.41c2.61,3.22,4.03,6.67,4.27,8.79"/><path d="M80.35,24.53c0.41,0.34,0.46,0.51,0.41,0.8c-0.33,1.93-3.37,7.96-4.19,9.44"/><path d="M44.5,39.4c1.11,0.33,2.4,0.41,3.5,0.33c8.07-0.58,31.1-3.9,44.87-4.15c1.84-0.03,2.95,0.16,3.87,0.32"/><path d="M51.34,46.49c0.6,0.9,0.9,1.36,1.59,2.41c0.99,1.51,2.62,12.35,3.61,17.68"/><path d="M53.3,47.34c3.4-0.15,28.52-3.11,31.61-3.11c2.07,0,2.65,1.37,2.27,4.21c-0.2,1.51-1.05,9.35-2.93,16.02"/><path d="M55.25,55.93C62.3,55,78.3,52.79,85.03,52.52"/><path d="M56.77,65.02c8.81-0.98,22.88-2.71,27.12-2.71"/><path d="M43.28,76.33c1.09,0.28,3.1,0.33,4.19,0.28c9.86-0.44,33.03-2.59,47.21-3.55c1.81-0.12,2.91,0.13,3.82,0.28"/><path d="M68.63,66.31c0.33,0.33,1.02,2.46,1.09,3.12c0.06,0.66-0.04,26.21-0.11,30.32"/></svg>