<svg><path d="M52.51,9.38c0.56,0.33,1.75,2.48,1.86,3.15c0.11,0.66-0.07,8.58-0.18,12.73"/><path d="M25.93,16.25c0.56,0.33,1.12,1.73,1.12,2.41c0,2.59-0.8,4.34-2.09,8.26c-0.48,1.45,0.85,2.68,2.11,2.28c7.68-2.45,51.33-5.92,56.35-6.05"/><path d="M83.52,12.12c0.56,0.33,1.21,2.48,1.12,3.15c-0.56,4.07-1.04,6.73-1.04,11.19"/><path d="M15.37,45.32c0.68,0.39,1.91,0.39,2.6,0.39c6.53,0.03,19.86-2.48,29.48-3.5c1.13-0.12,1.81,0.19,2.37,0.38"/><path d="M16.38,54.28c0.47,0.38,1.06,1.46,1.15,1.96c0.63,3.6,1.84,10.48,2.74,17.3"/><path d="M18.63,55.24c7.12-0.72,22.35-2.88,27.21-2.99c2.01-0.05,2.42,0.99,2.34,2.12c-0.3,3.88-1.41,10.13-3.01,16.49"/><path d="M19.42,63.43c5.37-0.19,17.29-2.43,27.59-2.91"/><path d="M20.76,72.01c6.24-0.75,15.78-2.7,23.91-2.7"/><path d="M12.47,82.47c0.91,0.71,2.56,0.8,3.49,0.71c9.37-0.86,22.44-3.56,31.16-4.4c1.51-0.15,2.9-0.15,3.66,0.2"/><path d="M30.02,34.9c0.66,0.45,2.18,2.48,2.18,4.24c0,6.59-0.54,53.25-0.68,58.83"/><path d="M80.68,30.5c0.05,0.3,0.2,0.89-0.1,1.22c-4.08,4.46-9.28,7.83-17.88,11.67"/><path d="M60.92,43.64c0.9,1.48,0.88,2.89,0.88,4.51c0,15.95-2.31,32.96-12.89,43.13"/><path d="M63.17,52.57c0.41,0.19,2.02,0.32,3.1,0.11c5.99-1.19,19.5-3.38,26.31-3.97c1.09-0.09,2.99-0.19,3.67,0"/><path d="M77.5,52.9c1.05,0.61,1.68,2.74,1.89,3.96c0.21,1.22,0,36.28-0.21,43.89"/></svg>