<svg><path d="M22.81,20.53c0.53,0.32,1.78,2.37,1.78,3.02c0,6.66,0.22,36.28,0.22,44.83"/><path d="M12.24,44.27c0.59,0.35,1.22,1.83,1.18,2.54c-0.33,4.87,0.17,15.06-1,22.38c-0.25,1.59,0.17,1.96,1.61,1.6c8.17-2.04,11.92-2.48,21.85-4.51"/><path d="M35.63,38.93c0.59,0.35,1.18,2.61,1.18,3.32c0,5.48-0.81,18.5-0.81,27.37"/><path d="M64.34,12.75c0.06,0.86,0.29,2.31-0.13,3.47c-2.65,7.37-10.15,22.85-22.71,33.25"/><path d="M64.51,15.7c4.48,5.66,23.79,24.13,28.73,28.27c1.68,1.41,3.83,2.01,5.51,2.41"/><path d="M55.84,43.3c0.43,0.17,1.22,0.18,1.66,0.17c3.32-0.05,16.19-2.92,18.86-2.72c0.72,0.05,1.15,0.08,1.51,0.17"/><path d="M44.05,56.77c0.27,0.26,0.54,0.47,0.65,0.79c0.92,2.55,2.44,9.6,3.07,14.19"/><path d="M45.3,58.12c6.74-1.17,12.47-2.43,15.58-2.76c1.14-0.12,1.82,0.73,1.66,1.45c-0.67,2.98-1.46,7.35-2.47,11.47"/><path d="M47.9,70.27c3.66-0.38,9.11-1.03,14.14-1.62"/><path d="M69.95,53.73c0.31,0.26,0.62,0.47,0.76,0.79c1.07,2.54,2.34,9.56,3.08,14.12"/><path d="M71.87,55.04c6.43-0.97,13.96-1.55,17.56-1.88c1.32-0.12,2.11,0.72,1.92,1.44c-0.78,2.97-1.69,6.97-2.85,11.08"/><path d="M73.93,67.66c4.23-0.38,10.07-1.03,15.89-1.61"/><path d="M55.78,73.95c0.18,1,0.11,1.96-0.13,2.6c-2.11,5.66-6.94,13.14-15.59,19.96"/><path d="M55.32,80.45c3.32,1.54,7.56,5.63,9.18,9.5"/><path d="M80.04,72.31c0.18,1.06,0.11,2.08-0.13,2.76c-2.12,6.01-6.98,13.94-15.69,21.18"/><path d="M79.78,79.89c5.41,2.63,12.31,9.62,14.94,16.24"/></svg>