<svg><path d="M21.88,21.25c0.55,0.33,1.83,2.45,1.83,3.11c0,6.87,0.23,31.9,0.23,40.72"/><path d="M11.49,40.21c0.61,0.36,1.26,1.89,1.21,2.62c-0.34,5.03,0.16,15.53-1.05,23.09c-0.26,1.64,0.18,2.02,1.66,1.65c8.43-2.1,11.3-2.56,21.54-4.65"/><path d="M35.1,39.25c0.61,0.36,1.21,2.69,1.21,3.43c0,5.65-1.34,14.54-1.34,23.69"/><path d="M65.38,21.03c3.64-0.3,6.39-1.52,8.8-1.82c0.68-0.08,1.31,0.11,1.65,0.22"/><path d="M65.42,12.55c0.59,0.98,0.94,3.62,0.62,5.18c-0.79,3.77-2.19,14.03-2.49,14.96c-0.76,2.32,0.18,3.07,1.95,2.43c1.26-0.45,3.85-1.15,7.02-1.66c1.33-0.21,2.38,0.91,2.15,2.67c-1.18,9.05-2.89,22.87-3.83,33.92"/><path d="M63.19,43.25c0.82,0.5,1.61,2.24,1.47,3.25c-0.25,1.75-1,15.5-1.93,24"/><path d="M55.24,18.5c0.03,0.23,0.1,0.65-0.05,0.9c-1.96,3.17-4.85,6.08-9.95,8.64"/><path d="M42.33,27.25c0.82,0.5,1.36,2.24,1.47,3.25c0.31,3,3.2,29.25,4.69,41.25"/><path d="M44.99,41.5c2.6-0.52,6.7-1.03,8.83-1.59c0.93-0.25,2.08,0.09,2.6,0.09"/><path d="M46.8,54.5c3-0.5,6.22-0.84,8.51-1.11c0.8-0.09,1.88-0.14,2.42-0.14"/><path d="M81.59,21.98c1.05,0.02,1.75,0.54,3.17,0.12c3.69-1.1,7.51-1.5,7.94-1.5c1.21,0,1.83,1.19,1.58,2.75c-1.14,6.9-3.01,36.15-3.76,45.65"/><path d="M80.77,38.5c0.53,0.16,1.63,0.71,2.44,0.68c2.9-0.11,8.44-0.68,9.17-0.68"/><path d="M78.15,52.25c0.47,0.13,1.73,0.82,2.25,0.73c4.36-0.73,8.99-0.98,11.24-1.23"/><path d="M37,71.7c1.14,0.54,3.22,0.64,4.36,0.54c8.94-0.74,39.53-2.74,53.91-3.23c1.89-0.06,3.03,0.26,3.98,0.53"/><path d="M56.35,78.39c0.04,0.43,0.09,1.11-0.09,1.73c-1.07,3.66-7.2,11.68-15.6,16.59"/><path d="M78.66,78.58c5.37,3.11,13.86,12.79,15.2,17.63"/></svg>