<svg><path d="M51.51,10.38c0.56,0.33,1.75,2.48,1.86,3.15c0.11,0.66-0.07,8.08-0.18,12.23"/><path d="M25.93,16.75c0.56,0.33,1.12,1.73,1.12,2.41c0,2.59-0.8,3.84-2.09,7.76c-0.48,1.45,0.84,2.62,2.11,2.28C39,26,71,24.5,80.92,24.65"/><path d="M81.02,13.62c0.56,0.33,1.21,2.48,1.12,3.15c-0.56,4.07-0.64,7.23-1.54,11.19"/><path d="M34.53,36.4c0.06,0.44,0.28,1.29-0.12,1.77c-5.11,6.07-10.29,10.37-22.7,16.93"/><path d="M17.01,37.56c25.51,18,17.24,70.19,5.19,55.15"/><path d="M29.41,59.72c0.05,0.52,0.23,1.53-0.1,2.1c-4.14,7.19-8.35,12.28-18.42,20.06"/><path d="M46.43,32.07c2.69,1.6,6.94,6.58,7.61,9.07"/><path d="M37.95,46.74c0.54,0.2,2.57,0.23,3.1,0.2c6.6-0.36,16.43-1.85,21.22-2.02c0.89-0.03,2.23,0.1,2.68,0.2"/><path d="M43.27,56.49c0.28,0.1,2.02,0.11,2.31,0.1c2.95-0.12,8.07-0.87,11.11-1.32c0.47-0.07,2.45,0.05,2.68,0.1"/><path d="M43.02,67.08c0.29,0.1,2.04,0.11,2.33,0.1c2.98-0.11,8.82-0.78,12.32-1.35c0.47-0.08,2.47,0.05,2.71,0.1"/><path d="M42.24,78.49c0.28,0.33,0.6,0.59,0.69,1.03c0.8,3.82,1.32,10.86,2.12,16.47"/><path d="M43.49,79.77c5.16-0.81,9.61-1.45,14.37-2.27c1.19-0.2,1.92,0.94,1.75,1.87c-0.71,3.86-1.33,6.12-2.6,12.54"/><path d="M45.63,94c3.85-0.49,7.79-0.86,13.07-1.61"/><path d="M64.71,54c0.46,0.2,2.05,0.45,2.95,0.33c4.69-0.62,16.16-2.24,21.81-2.67c0.64-0.05,1.56,0.08,3,0.42"/><path d="M76.59,34.25c0.46,0.88,0.74,1.76,0.8,3.52c0.97,26.94-1.4,45.48-16.15,58.82"/><path d="M77.54,57.92c3.98,11.02,11.73,29.67,16.81,37.54c1.34,2.07,1.82,2.33,2.44,2.52"/><path d="M84.98,35.28c3.11,2.21,6.3,6.86,7.43,9.07"/></svg>