<svg><path d="M53.26,9.38c0.99,0.99,1.12,2.09,1.12,3.12c0,0.67,0.06,8.38,0.06,13.01"/><path d="M26.18,16.75c0.7,1.25,0.79,2.26,0.62,3.41c-0.3,1.97-0.3,2.72-1.34,7.26c-0.34,1.49,0.04,2.56,2.11,2.28c17.56-2.45,35.93-3.95,52.85-4.55"/><path d="M82.02,12.38c0.6,1.12,0.71,2.48,0.62,3.15c-0.56,4.07-0.77,5.98-1.54,11.69"/><path d="M32.5,35.32c0.13,1.47-0.11,2.71-0.65,4.1c-2.08,5.36-8.21,13.8-18.33,22.63"/><path d="M35.5,40.03c5,2.22,10.56,6.25,13.42,10.62"/><path d="M29.1,55.93c2.41,1.44,6.23,5.93,6.83,8.17"/><path d="M16.11,72.19c1.77,1.19,4.69,0.87,6.66,0.49c5.49-1.05,16.85-3.63,21.59-4.5c3.22-0.59,4.92,0.6,2.12,3.68c-5.1,5.63-12.33,13.5-13.6,14.63"/><path d="M24.33,83.27c3.15,1.81,11.31,8.77,12.79,13.51"/><path d="M53.11,37.57c2.76,0.56,4.86,0.45,6.89,0.23c8.36-0.92,19.1-1.99,26.88-2.56c2.27-0.17,4.24-0.35,7,0.11"/><path d="M71.3,39.83c0.02,0.33,0.04,0.84-0.04,1.31c-0.34,1.92-1.83,5.44-4.02,8.65"/><path d="M58.3,51.19c0.88,0.88,1.09,2.06,1.09,3.51c0,0.82,0,15.36,0,24.54c0,2.97,0,5.38,0,6.58"/><path d="M60.13,52.03c2.5-0.14,21.45-2.48,23.73-2.64c1.9-0.14,3.24,0.74,3.24,2.52c0,2.75,0.01,15.67,0.01,26.84c0,1.89,0,3.72,0,5.46"/><path d="M60.79,62.08c6.53-0.61,19.89-1.83,25.24-2.06"/><path d="M60.54,72.25c7.92-0.78,19.17-1.6,26.01-1.98"/><path d="M60.56,83.48c7.31-0.35,18.56-1.13,25.44-1.37"/><path d="M66.21,89.59c0,1.04-0.45,2.21-1.25,2.83c-3.46,2.71-6.71,4.96-13.36,8.33"/><path d="M79.66,88.34c4.79,2.95,10.44,8.3,11.75,10.89"/></svg>