<svg><path d="M48.58,10.75c1.88,1.02,4.85,4.21,5.32,5.8"/><path d="M41.06,22.59c0.53,0.16,2.53,0.18,3.06,0.16c6.51-0.29,14.17-1.82,18.9-1.96c0.88-0.03,2.2,0.08,2.64,0.16"/><path d="M45.45,29.95c0.32,0.08,2.27,0.09,2.59,0.08c3.31-0.09,6.18-0.91,9.45-0.9c0.53,0,2.75,0.04,3.01,0.08"/><path d="M45.78,38.32c0.28,0.08,2.02,0.09,2.31,0.08c2.96-0.09,7.78-1.44,10.7-1.43c0.47,0,2.45,0.04,2.69,0.08"/><path d="M44.45,46.37c0.29,0.25,0.62,0.45,0.72,0.77c0.83,2.87,0.88,9.39,1.72,13.61"/><path d="M46.27,47.55c5.38-0.61,9.5-1.59,14.46-2.21c1.24-0.15,2,0.71,1.82,1.41c-0.74,2.9-1.39,6.24-2.7,11.06"/><path d="M47.49,59.25c4.01-0.37,8.1-0.5,13.6-1.07"/><path d="M26.4,12.25c0.31,0.99,0.48,1.76-0.16,2.82C23.25,20,20.03,24.68,16.92,27c-0.64,0.48-0.62,2.3,0,2.49c3.26,0.99,5.34,1.65,8.14,3.48"/><path d="M34.03,22.35c0.29,0.45,0.38,1.93,0,2.4c-5.53,7.06-12.28,12.83-19.88,19.27c-1.74,1.48,0.43,2.32,1.57,2.02c4.75-1.26,14.62-3.27,20.73-4.47"/><path d="M33.25,36.68c1.85,1.47,4.79,6.04,5.25,8.32"/><path d="M26.33,46.05c0.05,0.23,0.73,1.21,0.78,2.68c0.25,7.08-0.16,14.6-0.16,17.01"/><path d="M19.01,50.37c0.11,0.55,0.09,1.64-0.11,2.04c-1.3,2.58-4.56,7.55-6.4,9.77"/><path d="M33.5,48.58c2.5,2.72,4.42,9.04,5,11.51"/><path d="M79.37,10.75c0.26,0.89,0.39,1.58-0.13,2.52c-2.49,4.48-3.49,6.23-7.93,11.55c-0.44,0.52-0.52,2.05,0,2.22c2.74,0.89,5.75,2.37,8.1,4"/><path d="M88.64,17.72c0.24,0.4,0.31,1.72,0,2.15c-4.65,6.3-12.01,14.75-18.4,20.5c-1.46,1.32,0.36,2.07,1.32,1.8c4-1.12,14.11-3.03,19.25-4.1"/><path d="M87.12,33.5c2.27,1.68,5.86,6.91,6.42,9.52"/><path d="M80.64,43.33c0.04,0.21,0.61,1.08,0.66,2.4c0.21,6.32-0.13,15.37-0.13,17.52"/><path d="M73.29,48.6c0.1,0.56,0.08,1.65-0.1,2.05c-1.22,2.6-4.27,7.6-5.99,9.83"/><path d="M89.59,49.27c2.52,2.38,4.46,7.9,5.04,10.06"/><path d="M52.22,67.63c0.64,0.38,2,2.84,2.13,3.6c0.13,0.76-0.08,18.37-0.21,23.11"/><path d="M25.89,76.17c0.64,0.38,1.38,1.99,1.28,2.75c-0.42,3.39-1.92,10.83-2.96,16.83c-0.3,1.72,0.19,3,1.77,2.68c16.52-3.42,50.35-5.14,58.4-5.35"/><path d="M84.63,75.87c0.64,0.38,1.39,2.84,1.28,3.6c-0.63,4.66-0.77,9.42-1.83,18.1"/></svg>