<svg><path d="M53.51,8.38c0.56,0.33,1.75,2.48,1.86,3.15c0.11,0.66-0.07,7.58-0.18,11.73"/><path d="M27.43,14.25c0.56,0.33,1.12,1.73,1.12,2.41c0,2.59-0.3,3.34-1.59,7.26c-0.48,1.45,0.81,2.53,2.11,2.28C40.5,24,77.9,22.28,82.92,22.15"/><path d="M83.02,12.12c0.56,0.33,1.21,2.48,1.12,3.15c-0.56,4.07-0.64,6.23-1.54,10.19"/><path d="M44.35,29.88c-0.22,0.52-0.43,0.78-0.89,1.01c-2.96,1.46-11.91,5.49-21.47,6.98"/><path d="M20.84,29.7c0.62,0.5,0.66,0.83,0.87,1.5c0.2,0.67-0.14,4.81-0.14,6.9c0,5.37,8.26,4.86,15.3,4.86c10.21,0,14.08-0.88,14.08-6.52"/><path d="M26.77,49.09c0.31,0.56,0.75,1.58,0.75,2.33c0,0.75-0.1,22.88,0,23.63"/><path d="M28.03,50.64c1.73-0.09,15.73-1.78,17.31-1.75c0.73,0.01,1.44,0.37,1.44,1.57c0,0.9,0.03,23.09-0.08,23.64"/><path d="M27.6,57.95c3.42-0.13,16.01-1.54,18.79-1.54"/><path d="M27.47,65.46c4.59-0.31,14.53-1.47,18.98-1.47"/><path d="M27.62,73.45c3.44,0,14.41-1.55,18.86-1.55"/><path d="M17.2,58.52c0.54,0.74,1.27,1.3,1.27,2.61c0,1.31-0.9,16.77-0.9,18.45s0.19,3.4,2.17,3.17c14.21-1.68,22.59-3.11,30.52-2.74c1.63,0.08,3.62,0.69,4.89,0.87"/><path d="M28.11,87.02c0.04,0.28,0.08,0.72-0.08,1.11c-0.92,2.34-6.18,7.48-13.39,10.63"/><path d="M39.84,86.42c3.46,1.85,8.95,7.6,9.82,10.48"/><path d="M57.46,34.63c0.93,0.41,2.65,0.53,3.58,0.41c10.33-1.35,21.36-2.56,30.32-3.11c1.55-0.09,2.49,0.2,3.27,0.4"/><path d="M74.19,36.15c0.01,0.22,0.02,0.57-0.02,0.89c-0.24,1.86-1.94,6.34-3.84,8.84"/><path d="M61.6,44.93c0.42,0.87,1.04,1.54,1.04,2.67c0,1.13-0.28,31.08-0.28,31.65c0,0.56,0.14,0.57,0.28,1.71"/><path d="M63.34,46.54c2.38-0.01,21.57-2.32,23.75-2.37c1.81-0.04,2.16,1.1,2.16,2.73c0,1.35-0.53,31.74-0.53,32.58"/><path d="M63.3,56.31c4.15-0.4,20.26-2.04,25.36-2.07"/><path d="M63.19,67.1c5.49-0.42,18.68-1.82,25.19-1.87"/><path d="M62.88,78.81c5.49-0.55,18.25-1.71,25.19-1.76"/><path d="M68.09,84.41c0.35,1.33,0.27,2.01-0.33,3.07c-1.96,3.45-7.18,8.6-12.56,12.07"/><path d="M79.59,83.64c4.93,3.48,11.15,11.13,12.5,14.01"/></svg>