<svg><path d="M52.01,9.88c0.56,0.33,1.75,2.48,1.86,3.15c0.11,0.66-0.07,6.58-0.18,10.73"/><path d="M26.93,15.25c0.56,0.33,1.12,1.73,1.12,2.41c0,2.59-0.3,2.84-1.59,6.76c-0.48,1.45,0.83,2.61,2.11,2.28c8.43-2.2,47.83-4.42,52.85-4.55"/><path d="M81.02,12.62c0.56,0.33,1.21,2.48,1.12,3.15c-0.56,4.07-0.64,4.73-1.04,9.19"/><path d="M27.5,31.91c0.29,0.19,0.59,0.34,0.72,0.58c1.01,1.85,1.78,6.25,2.47,9.57"/><path d="M29.31,33.17c5.95-0.96,12.64-1.68,16.04-1.92c1.25-0.09,1.49,1.53,1.32,2.05c-0.74,2.16-1.6,3.42-2.7,6.41"/><path d="M31.26,41.14c4-0.28,8.83-0.75,14.33-1.17"/><path d="M56.69,29.71c0.33,0.23,0.68,0.41,0.83,0.69c1.16,2.23,2.06,6.38,2.85,10.39"/><path d="M58.78,30.42c8.29-1.12,11.19-1.65,15.11-1.94c1.43-0.11,2.3,0.64,2.09,1.27c-0.85,2.61-1.35,4.55-2.61,8.16"/><path d="M61.02,39.14c4.61-0.33,7.46-0.9,13.79-1.41"/><path d="M23.53,48.56C24.96,49,27.57,49.08,29,49c16.72-1.03,37.13-4.87,51.28-5.24c2.38-0.06,3.8,0.21,4.99,0.43"/><path d="M27.29,49.59c0.05,1.06-0.09,2.74-0.09,4.28c0,9.93-3.63,32.26-15.64,41.97"/><path d="M33.11,55.46c0.47,0.13,1.34,0.17,1.82,0.13c3.02-0.23,12.71-2.23,16.64-2.56c0.79-0.07,1.26,0.06,1.66,0.13"/><path d="M41.12,54.81c0.75,0.18,1.81,1.04,1.79,1.55c-0.05,1.6-0.05,4.32-0.06,5.78"/><path d="M30.82,63.73c0.6,0.25,1.69,0.33,2.29,0.25c6.74-0.9,15.58-2.61,22.15-3.03c0.99-0.06,1.59,0.12,2.09,0.25"/><path d="M35.47,64.97c0.22,0.35,0.56,0.35,0.56,0.93c0,0.58-0.11,21.03-0.11,23.12"/><path d="M36.83,71.01c2.16,0,10.42-1.4,14.12-1.4"/><path d="M36.6,78.34c2.67,0,10.12-1.28,14.01-1.28"/><path d="M29.42,89.59c0.2,0.36,1.12,0.91,1.79,0.72c7.47-2.15,14.81-4.38,20.05-6"/><path d="M50.72,63.11c0.22,0.46,0.56,0.35,0.56,0.93c0,0.58,0.11,30.45,0.11,35.22"/><path d="M66.2,49.86c0.02,0.52,0.15,1.38-0.05,2.09c-1.23,4.6-4.01,13.25-8.28,19.61"/><path d="M65.32,60.25c0.47,0.37,1.33,0.41,1.8,0.37c4.89-0.43,13.64-3.59,21.1-4.28c0.84-0.08,1.35-0.02,1.57,0.07"/><path d="M80.33,61.26c0.36,0.85,0.68,1.49,0.18,3C76.75,75.75,69.25,88,57.96,95.74"/><path d="M62.11,67.49c2.64,0.21,18.1,21.65,26.83,27.42c1.59,1.05,2.54,1.28,3.82,1.4"/></svg>