<svg><path d="M20.75,40.17c2.95,0.49,5.68,0.29,8.64-0.05c14.5-1.68,29.75-4.47,47.22-5.96c2.83-0.24,5.87-0.58,8.64,0.26"/><path d="M55.48,12.5c0.27,1.57,0.21,4.18-0.29,5.93C46.59,48.64,32.07,74.14,11.25,91"/><path d="M43.25,64.59c1.25,0.29,2.38,0.29,3.86,0.17c4.86-0.37,17.91-2.17,26.92-3.77c1.88-0.33,3.97-0.5,5.97-0.11"/><path d="M58.54,66.75c1.04,1.04,1.91,2.62,1.91,4.03c0,6.84,0.04,13.22,0.04,18.72"/><path d="M28.5,92.25c2.76,0.84,5.92,0.51,8.75,0.34c14.54-0.9,32.08-2.65,48.13-3.26c3.25-0.12,6.38-0.17,9.49,0.93"/></svg>