<svg><path d="M27.62,15.88c3.78,3.81,7.83,10.47,8.38,12.38"/><path d="M47,11.88c2.5,2.75,5.12,8.75,6.25,13.62"/><path d="M76.75,11c0.12,1-0.07,1.71-0.5,2.5c-1.5,2.75-4.75,7.62-7.5,10.75"/><path d="M29.04,33.81c0.83,0.83,1.36,1.81,1.5,2.63c0.35,2,2.74,14.15,4,20.55c0.43,2.19,0.72,3.7,0.75,3.91"/><path d="M30.43,34.61c10.82-1.74,39.95-4.74,43.88-4.77c2.58-0.02,4.81,1.28,4.29,4.17c-0.17,0.94-2.49,12.79-3.78,19.13c-0.44,2.16-0.73,3.65-0.73,3.81"/><path d="M33.57,46.52c8.81-0.9,34.93-3.4,42.24-3.6"/><path d="M35.91,58.2c7.34-0.82,27.84-2.95,37.27-3.48"/><path d="M20.05,69.22c2.71,0.91,5.66,0.81,8.45,0.5C43,68.12,66,66,81.12,65.22c2.78-0.14,5.35-0.08,8.08,0.47"/><path d="M52.92,33.81c0.95,0.95,1.28,2.32,1.28,3.93c0,3.91,0.02,38.31,0.02,54.38c0,3.48,0,6.11,0,7.38"/><path d="M50.97,68.1c0,1.53-0.76,2.61-1.51,3.59c-6.51,8.58-18.5,19.21-30.88,23.73"/><path d="M55.5,69.38C61.45,74.81,73.89,85,81.95,89.6c2.4,1.37,5.24,2.96,7.96,3.46"/></svg>