<svg><path d="M24.75,26.6c1.06,0.4,4.53,0.53,5.6,0.41c5-0.54,42.01-3.64,50.41-4.06c1.64-0.08,3.13,0.08,4.49,0.41"/><path d="M52.12,26.25c2.27,2.83,2.27,4.53,2.27,6.8c0,15.86-0.07,24.01-0.07,51.2"/><path d="M34.75,40.74C35,41.5,34.94,43.16,34.59,44C31.25,52.25,26,63,15.72,70.88"/><path d="M31.89,54.36c4.56,2.26,10.39,8.28,12.61,13.98"/><path d="M78.26,37.74c0.24,0.77,0.18,2.45-0.15,3.31c-3.17,8.39-8.15,19.31-17.89,27.32"/><path d="M75.39,52.36c5.65,2.51,12.86,9.17,15.61,15.48"/><path d="M16,86.21c0.96,0.22,4.39,0.45,6.01,0.35c17.5-1.09,52.25-3.71,68.19-4.04c2.61-0.05,5.75,0.37,7.05,0.72"/></svg>