<svg><path d="M74.18,11.39c0.13,0.31,0.27,0.8-0.25,1.24c-3.09,2.61-20.84,8.33-45.12,11.84"/><path d="M23.76,23.75c0.59,0.7,0.77,1.63,0.77,2.79c0,40.16-3.86,58.96-14.78,69.21"/><path d="M26,37.5c1.28,0.39,3.62-0.07,4.89-0.13c10.67-0.54,39.14-4.69,53.15-5.46c2.12-0.12,3.4,0.18,4.46,0.38"/><path d="M37.65,51.18c11.6-0.93,29.69-2.62,37.49-3.16c2.85-0.19,3.68,1.8,3.34,2.97c-1.24,4.26-1.74,9.76-2.67,16.18"/><path d="M55.21,51.59c0.62,0.3,1.25,2.22,1.23,2.83c-0.19,4.33-0.19,7.33-0.18,14.06"/><path d="M37.95,69.97c4.25-0.33,34.96-2,39.82-2.33"/><path d="M36.13,49.83c0.67,0.9,1.21,1.96,1.25,3.35c0.18,6.19,0.66,23.59,0.66,27.77c0,14.31,1.21,14.84,25,14.84C88,95.79,88.54,91,88.54,85.38"/></svg>