<svg><path d="M25,29.63c1.02,0.3,2.9,0.44,3.9,0.3c4.12-0.58,40.85-4.22,50.53-4.22c1.7,0,2.72,0.14,3.57,0.29"/><path d="M37.87,12.86c1.09,0.4,1.94,1.79,1.96,2.61c0.17,5.82,0.92,24.77,1.42,31.39"/><path d="M68.12,11.25c1.09,0.4,2.11,1.8,1.96,2.61C68.46,22.8,66.5,34,64.75,44.96"/><path d="M14.75,49.13c1.52,0.44,4.31,0.56,5.82,0.44c9.93-0.8,51.18-5.41,67.11-5.8c2.53-0.06,4.05,0.21,5.31,0.42"/><path d="M41.99,50.25c0.07,0.5,0.14,1.3-0.14,2.02c-1.65,4.25-12.48,12.46-24.04,19.3"/><path d="M64.5,47.25c4.29,3.05,21.75,18.25,27.74,20.5c1.76,0.66,2.93,1.45,4.51,1.75"/><path d="M39.27,61.96c1.36,0.79,2.53,0.79,4.54,0.53c4.07-0.54,22.09-2.67,23.34-2.77c1.64-0.13,2.93,0.87,2.35,2.92c-0.17,0.61-1.78,5.82-2.92,11.7"/><path d="M41.48,77.64c3.01-0.29,18.77-2.14,26.94-2.73"/><path d="M40.5,63.42c0.73,0.97,0.6,2.11,0.6,3.6c0,2.72-0.07,17.49-0.07,19.98c0,8.5,1.22,9.29,17.86,9.29c21.6,0,22.34-1.79,22.34-10.02"/></svg>