<svg><path d="M67.18,8.43c0.07,1.07-0.18,2.43-1.16,3.52C57,22,44.5,27.25,24,33"/><path d="M36.75,15.25c16,0.5,32,5.5,42,13.5"/><path d="M52.88,27.75c0.11,1.02,0.35,2.66-0.23,4.09c-4.4,10.91-15.52,26.78-40.01,39.18"/><path d="M13.75,43.32c1.89,0.54,5.36,0.66,7.25,0.54c17.35-1.11,47.17-5.49,68.88-5.98c3.15-0.07,5.04,0.26,6.62,0.53"/><path d="M34.25,60c0.94,0.94,1.34,2.09,1.34,3.21c0,5.35,0.04,16.35,0.06,23.29c0,1.86,0.01,3.42,0.01,4.51"/><path d="M36.34,60.84c3.48-0.24,39.04-4.38,41.63-4.53c3.05-0.17,4.35,0.81,4.35,4.53c0,10.42,0.06,14.54-0.78,22.66c-0.67,6.55-4.88,0.31-6.04-0.88"/><path d="M56.49,46.25c0.94,0.94,1.59,2.62,1.59,4.21c0,3.65-0.12,30.52-0.16,43.79c-0.01,3.24-0.02,5.67-0.02,6.75"/></svg>