<svg><path d="M51.65,10.43c0.48,1.45,0.59,2.92,0.04,4.92c-4.19,15.4-14.19,39.4-36.8,56.55"/><path d="M14.25,31.45c2.75,0.55,6.4,0.62,9.24,0.27c16.13-1.97,42.69-4.11,61.89-5.43c3.19-0.22,6.5-0.17,9.62,0.5"/><path d="M37.25,55.39c0.93,0.93,1.34,2.61,1.34,3.71c0,5.78-0.1,13.4-0.1,23.9c0,2.51-0.06,4.47-0.08,5.39"/><path d="M39.09,57.72c7.66-1.22,24.66-3.6,38.38-4.78c4.04-0.35,4.15,2.98,4.1,4.53c-0.31,9.78-0.06,21.15-2.03,28.16c-1.65,5.91-5.13,0.06-6.29-1.13"/><path d="M57.24,39.63c0.87,0.87,1.34,2.62,1.34,3.71c0,5.78-0.12,31.91-0.12,50.16c0,3.57-0.05,6.09-0.07,6.88"/></svg>