<svg><path d="M53.11,8.59c1.33,1.33,1.68,2.35,1.68,4.59c0,3.56,0-1.37,0,8.3"/><path d="M26.75,24.38c2.15,0.6,4.56,0.22,6.74,0.04c9.3-0.77,31.44-3.33,42.13-3.98c2.55-0.16,5.09-0.09,7.62,0.34"/><path d="M39.75,27.5c3.37,4.07,5.52,8.97,5.82,11.66"/><path d="M67.84,23.82c0.28,0.8,0.27,1.81,0.11,2.22C66,31,64.88,33.88,62.88,38.12"/><path d="M20.54,42.06c-0.1,4.38-2.45,15.83-3.29,18.44"/><path d="M21.22,45c14.78-2.13,48.25-7,65.97-7c12.06,0,3.81,5.25-0.69,9"/><path d="M33.31,59.38c0.84,0.84,1.15,2,1.15,3.45c0,3.28,0.07,13.92,0,21c-0.02,2.45-0.05,4.46-0.08,5.54"/><path d="M34.96,60.95c4.54-0.7,37.17-4.83,39.84-5.01c2.7-0.19,3.7,1.4,3.7,4.51c0,9.42,0.24,15.8-1.4,23.85c-1.12,5.51-4.71,0.75-6.22-1.13"/><path d="M54.17,47.17c0.83,0.83,1.14,2.08,1.14,3.7c0,0.55-0.11,29.56-0.11,43.63c0,2.38-0.05,6.02-0.07,6.88"/></svg>