<svg><path d="M32.93,10.44c0.38,0.87,0.56,2.29,0.36,3.47c-0.97,5.8-5.75,17.67-9.98,24.16c-0.87,1.33,0.37,2.04,0.86,2.18c7.29,2.13,13.94,2.92,19.6,8.58"/><path d="M44.62,21.17c0.07,0.78,0.11,2.67-0.15,3.78c-2.13,8.93-8.26,21.35-23.38,26.91"/><path d="M12.25,28.29c0.83,1.8,2.59,1.89,4.73,1.25C20.5,28.5,37.25,25,50.27,21.78"/><path d="M59.8,16.51c1.07,0.23,1.2,0.57,3.34,0.23c2.14-0.34,17.81-3.4,19.28-3.74c1.47-0.34,3.23,0.99,2.72,2.25C81,25.49,70.86,39.1,58.69,44.04"/><path d="M58.52,22.39c3.27,0.57,19.22,15.81,30.59,22.05c1.77,0.97,3.06,1.62,4.71,1.94"/><path d="M28.25,60.93c0.6,0.27,1.88,2.02,2,2.56c0.12,0.54,2.92,23.67,2.8,27.04"/><path d="M29.79,62.39c3.78-0.19,44.8-4.49,47.62-4.61c3.31-0.14,4.03,2.38,3.91,3.61c-0.6,6.19-2.65,16.78-4.88,22.75C74.25,90,72.5,87,69.88,83.24"/><path d="M52.52,46.38c0.6,0.27,1.88,2.02,2,2.56c0.12,0.54-0.08,49.57-0.2,52.94"/></svg>