<svg><path d="M51.64,7.75c0.33,0.49,0.38,1.08,0.3,1.51c-0.46,2.51-4.44,8.5-8.05,11.86"/><path d="M29.12,21.22c0.75,1.1,1.27,1.67,1.51,3.11C31.75,31,33,39.25,34.44,49.75"/><path d="M31.08,23.81c4.25-0.18,41.61-3.95,45.48-4.17c3.23-0.18,5.18,0.61,5.06,3.31c-0.1,2.25-1.38,12.79-3.88,24.04"/><path d="M33.83,35.15C45.5,34.5,69.25,32.25,79.75,32"/><path d="M35.19,47.74C50.5,46.5,66,45.25,77.77,44.67"/><path d="M24.84,62.12c0.91,1.13,1.83,3.47,1.91,4.13c1,8.25,2,17,2.79,26.34"/><path d="M26.42,64.06c4.01-0.27,52.28-4.89,55.27-5.05c3.51-0.19,4.27,3.33,4.15,5.05c-0.63,8.68-2.34,15.19-5.14,24.27c-1.86,6.01-5.27,0.84-6.96-1.27"/><path d="M53.35,49.13c0.64,0.38,1.62,1.86,1.62,3.59c0,9.28-0.08,42.94-0.21,47.66"/></svg>