<svg><path d="M34.51,14.64c0.04,0.35-0.29,1.21-0.58,1.65C30.75,21,26,24.5,18.89,29.44"/><path d="M17.04,30.59c1,1,1.16,2.28,1.16,3.95c0,0.78-0.03,36.97-0.05,52.08c-0.01,3.81-0.01,6.02-0.02,6.25"/><path d="M19.38,36c6.24-0.88,14.15-2.39,18.73-3.18c3.12-0.54,4.52,0.1,3.9,3.56c-0.64,3.63-1.42,7.69-2.74,12.77"/><path d="M19.42,52.66c7.37-1,12.71-1.74,17.32-2.26c1.73-0.2,3.25-0.36,4.55-0.5"/><path d="M19.11,69.61c8.02-1.73,16.72-3.35,20.06-3.89c2.84-0.46,4.15,1.33,3.78,3.08c-0.94,4.46-1.05,5.98-2.6,12.75"/><path d="M19.5,85.5c4.39-0.43,12.23-1.47,18.72-2.18c1.59-0.17,3.1-0.33,4.45-0.45"/><path d="M53.09,38.3c0.93,0.93,1.16,2.07,1.16,3.63c0,0.38,0.06,14.95,0.08,23.7c0.01,3.52,0.01,6.09,0,6.43"/><path d="M54.7,39.3c12.05-2.05,25.92-3.84,33.56-4.76c3.71-0.44,5.43,0.58,5.43,4.58c0,9.5-0.33,21.93-1.85,29.46c-1.16,5.76-4.88,0.79-6.21-1.19"/><path d="M71.47,14.13c1.01,1.01,1.4,2.24,1.4,4.06c0,5.1-0.12,63.06-0.12,71.06c0,2.38,0.03,7.35,0,8.38"/></svg>