<svg><path d="M33.01,12.39c0.14,1.39-0.03,2.86-0.91,4.05C29,20.62,23.75,25.5,17.64,29.8"/><path d="M15.04,31c0.98,0.98,1.46,2.5,1.46,3.75c0,0.86-0.12,32.25-0.12,47.02c0,2.7-0.1,3.86-0.1,6.23"/><path d="M16.89,35.09c7.33-1.16,19.17-2.69,22.95-3.08c1.38-0.14,2.21,1.44,2.02,2.29c-0.82,3.48-2.11,6.45-3.51,13.51"/><path d="M17.05,51.29c9.37-0.95,14.83-1.86,19.47-2.42c1.28-0.15,2.49-0.28,3.71-0.38"/><path d="M16.98,66.07c9.4-1.32,18.16-2.92,22.43-3.39c1.56-0.17,2.5,1.7,2.28,2.7c-0.92,4.12-1.56,7.62-2.96,13.6"/><path d="M16.92,82.71c3.99-0.42,12.56-1.56,19.09-2.27c1.68-0.18,3.22-0.34,4.52-0.44"/><path d="M49,20.39c2.75,0.61,5.29,0.5,7.49,0.25c8.33-0.95,24.39-2.76,33.77-3.51c2.12-0.17,4.74-0.26,6.74,0.13"/><path d="M52.28,41.16c0.78,0.78,1.74,2.72,1.74,4.18c0,0.58,0.15,15.79,0.15,25.92c0,2.54-0.05,4.52-0.07,5.47"/><path d="M54.48,43.95c11.02-1.33,27.89-3.83,36.41-5.08c1.98-0.29,4.15,1.5,4.15,3.83c0,9.55,0.46,19.8-0.55,29.23c-0.5,4.65-4.11,2.32-6.95-1.21"/><path d="M71.36,21.63c0.94,0.94,1.51,2.74,1.51,4.07c0,0.68-0.12,46.93-0.12,67.05c0,3.73-0.04,6.3-0.06,7.13"/></svg>