<svg><path d="M13.49,33.31c0.43,0.39,1.33,2.88,1.42,3.65c0.34,3.04-0.06,36.17-0.14,40.98"/><path d="M15.29,36.25c2.47-0.27,22.15-3.91,23.99-4.07c2.16-0.19,3.52,1.34,3.55,3.07C43,44,42.24,64.09,40.97,72.63c-0.91,6.14-4.25,1.85-5.29-0.27"/><path d="M26,12.63c0.61,0.42,1.89,3.18,2.01,4.03c0.12,0.85-0.08,75.66-0.2,80.97"/><path d="M61.64,13.5c0.14,1.64-0.04,3.79-0.48,5.2c-2.83,8.97-6.42,16.56-12.9,27.48"/><path d="M53.69,36.77c0.69,0.91,1.22,2.89,1.26,4.3c0.41,12.52-0.56,48.16-0.22,54.68"/><path d="M80.7,13.5c0.06,1.02-0.01,2.35-0.2,3.23c-1.17,5.56-2.66,9.86-5.36,16.63"/><path d="M54.75,37.56c9.66-1.2,36.71-4.09,40.14-4.74"/><path d="M73.73,38.48c0.39,0.46,0.69,1.1,0.69,1.89c0,8.12,0.04,38.15-0.19,50.94"/><path d="M55.82,53.01c8.68-0.76,32.24-2.32,35.47-2.85"/><path d="M54.91,70.48c7.94-0.82,33.05-2.51,36.45-2.96"/><path d="M54.91,92.53c7.98-1.18,39.42-1.43,42.84-2.08"/></svg>