<svg><path d="M16.46,35.12c0.71,0.71,1.26,1.65,1.26,2.99c0,5.61-0.08,13.76-0.12,19.77c-0.01,1.77-0.02,3.35-0.02,4.63"/><path d="M26.46,17.62c0.84,0.84,1.23,2.1,1.26,3.74c0.66,43.52-0.21,51.27-10.21,62.89"/><path d="M45.75,15.5c1.01,0.24,2.51,0.63,4.18,0.43C57.5,15,71.38,13.38,78,12.25c1.52-0.26,3.42,0.75,3.05,2.44c-1.03,4.73-2.29,13.19-3.06,18.34c-0.22,1.49-0.41,2.74-0.54,3.62"/><path d="M44.89,26.32c1.47,0.38,3.01,0.52,4.49,0.38c10.59-1,21.15-1.96,29.47-2.4"/><path d="M43.68,37.85c1.65,0.5,3.41,0.49,5.08,0.27c8.74-1.13,19.84-2.66,27.98-3.19"/><path d="M40.88,48.75c-0.09,3.63-2.32,9.83-3.12,12"/><path d="M41.49,51.15c11.51-1.9,35.42-5.38,45.63-5.93C96,44.75,89.25,51,85.65,53.7"/><path d="M45.88,60.25c0.87,1,1.31,2.45,1.4,2.97c0.07,0.4,0,8.27-0.08,13.8c-0.02,1.64-0.04,2.48-0.06,3.22"/><path d="M48.28,61.54c7.47-0.86,27.74-3.55,29.36-3.64c2.31-0.13,3.73,0.48,3.73,2.72c0,6.76-0.37,12.13-0.81,17.47c-0.51,6.28-4.2,0.04-5.08-0.87"/><path d="M61.84,50.88c0.91,1.12,1.15,2.12,1.15,3.47c0,0.44-0.01,27.54-0.08,38.66c-0.01,2.19-0.03,3.72-0.04,4.25"/></svg>