<svg><path d="M10.99,34.31c0.43,0.39,1.33,2.88,1.42,3.65c0.34,3.04-0.06,27.17-0.14,31.98"/><path d="M12.29,35.75c2.47-0.27,20.65-3.41,22.49-3.57c2.16-0.19,3.52,1.34,3.55,3.07c0.17,8.75-0.09,20.85-1.36,29.39c-0.91,6.14-4.25,1.85-5.29-0.27"/><path d="M22,13.63c0.61,0.42,1.89,3.18,2.01,4.03c0.12,0.85-0.08,72.66-0.2,77.97"/><path d="M50.17,16.32c0,3.55-3.15,13.31-4.58,15.68"/><path d="M49.56,20.17c6.42-0.77,37.83-3.5,43.04-3.84c8.91-0.58,1.23,6.61-0.8,8.26"/><path d="M56.21,32.78c0.14,0.26,0.48,1.25,0.71,2.25c0.99,4.3,1.92,14.66,2.54,22.68"/><path d="M57.59,33.87c7.67-1.08,22.05-2.42,27.78-3.33c2.1-0.33,3.18,0.85,3.07,2.03c-0.4,4.34-2.24,15.68-4.28,23.92"/><path d="M59.03,44.49c2.5-0.42,25.54-2.01,27.61-2.19"/><path d="M59.49,57.05c5.53-0.46,16.92-1.39,24.55-2.14"/><path d="M70.04,60.5c0.51,0.43,1.36,2.11,1.36,2.97c0,3.42-0.01,3.76-0.07,6.21"/><path d="M45.54,71.45c1.04,0.1,3.4,0.62,4.41,0.55c11.55-0.75,33.3-2.75,46.35-3.37c1.71-0.08,2.58,0.05,3.86,0.7"/><path d="M62.28,77.49c0.4,0.74,0.21,2.7-0.48,3.58c-3.71,4.82-8.74,8.74-16.44,12.93"/><path d="M78.8,77.11c6.5,4.96,11.86,10.68,15.11,16.7"/></svg>