<svg><path d="M11.99,35.31c0.43,0.39,1.33,2.88,1.42,3.65c0.34,3.04-0.06,27.17-0.14,31.98"/><path d="M13.29,36.75c2.47-0.27,22.15-3.41,23.99-3.57c2.16-0.19,3.52,1.34,3.55,3.07C41,45,40.24,56.59,38.97,65.13c-0.91,6.14-4.25,1.85-5.29-0.27"/><path d="M24,16.13c0.61,0.42,1.89,3.18,2.01,4.03c0.12,0.85-0.08,69.16-0.2,74.47"/><path d="M52.56,13.65c0.24,0.37,0.25,0.62,0.38,1.08c1.1,3.8,2.64,13.89,3.32,20.98"/><path d="M53.7,14.66c8.54-0.96,22.93-2.58,29.3-3.38c2.34-0.3,3.62,0.97,3.42,3.29c-0.34,3.84-2.87,12.26-3.94,18.66"/><path d="M55.8,23.98c2.78-0.37,26.89-2.61,29.19-2.77"/><path d="M56.71,33.67c6.15-0.41,17.29-1.61,25.78-2.27"/><path d="M47.91,42.1c0.24,0.25,0.49,0.45,0.59,0.76c0.84,2.46,1.73,9.22,2.3,13.64"/><path d="M49.08,43.32c5.32-0.96,40.52-3.52,43.35-3.84c1.03-0.12,2.43,0.83,2.16,2.21c-0.58,2.88-2,7.83-3.54,11.94"/><path d="M63.51,41.95c0.16,1.64,0.63,9.62,0.79,11.46"/><path d="M78.44,40.93c-0.16,2.66-0.65,8.29-0.97,11.25"/><path d="M51.57,54.73c3.32-0.36,35.3-2.63,39.86-3.19"/><path d="M54.33,65.05c1.24,0.29,1.39,0.71,3.87,0.29c2.47-0.43,22.5-4.2,24.21-4.63c1.7-0.43,2.91,1.68,1.65,3.61C73.83,79.91,62.13,90.12,47.02,96"/><path d="M54.62,70.91c3.74,0.6,21.98,16.82,34.98,23.46c2.02,1.03,3.5,1.72,5.38,2.07"/></svg>