<svg><path d="M10.75,34.66c0.61,0.36,1.89,2.69,2.01,3.41c0.12,0.72,1.42,28.67,1.3,33.16"/><path d="M13.06,35.93c2.04-0.25,21.01-3.14,22.54-3.3c1.79-0.18,3.15,1.16,3.11,2.8c-0.2,9.07-0.28,21.45-2.36,29.28c-1.34,5.04-2.86,2.06-3.54,0.8"/><path d="M22.75,13.03c0.7,0.42,2.19,3.11,2.33,3.95c0.14,0.83-0.09,72.57-0.23,77.76"/><path d="M54.55,12.75c0.78,0.37,1.25,1.51,1.23,2.39c-0.08,3.36-0.15,8.57-0.06,11.42"/><path d="M42.31,27.5c0.59,0.08,2.91,0.48,3.49,0.42c3.7-0.42,14.95-1.92,21.95-2.54c0.97-0.09,1.54-0.14,2.03-0.12"/><path d="M45.91,33.25c2.54,3.4,4.06,7.67,4.43,10.06"/><path d="M64.32,29c1.08,0.75,1.01,2.03,0.86,2.5c-1.51,4.75-3.9,12.79-5.02,15.5"/><path d="M44,49c1.03,0.09,2.22-0.03,3.23-0.13C59,47.75,78,45.5,93.15,44.01c1.69-0.17,3.57,0,4.6,0.54"/><path d="M45.44,61.09c0.31,0.64,0.81,2.14,0.81,3.02s1.93,25.75,1.93,26.64"/><path d="M46.78,62.32c1.78-0.23,15.85-2.21,17.42-2.75c1.57-0.54,2.4-0.27,2.3,0.84c-0.1,1.1-1.01,27.47-1.28,28.55"/><path d="M49.09,74.17c2.4-0.16,13.33-2.07,16.04-2.25"/><path d="M48.78,88.43c3.55-0.23,11.06-1.73,15.65-2.03"/><path d="M74.24,12c1.07,1.79,1.63,2.28,1.74,6.15c0.8,29.46,7.09,65.8,19.53,76.81c4.23,3.75,3.61,0.77,3.08-7.17"/><path d="M92.75,53.65c0.05,0.74,0.11,1.9-0.1,2.96c-1.26,6.24-10.47,25.12-20.34,33.5"/><path d="M86.45,23.51c2.42,2.05,6.28,6.73,7.41,10.25"/></svg>