<svg><path d="M52.49,16.5C53.49,17.51,54,19.12,54,21c0,0.91,0,58,0,65.5"/><path d="M34.36,28.12c0.26,1.16,0.29,1.96-0.13,3.3c-1.6,5.14-4.92,11.28-7.64,15.24c-1.01,1.47-1.69,2.94,0.36,3.73c2.68,1.04,5.31,2.13,8.62,4.08"/><path d="M43.12,40.63c0.26,0.58,0.09,2.74-0.22,3.42c-3.75,8.44-11.44,19.33-17.66,28.83c-1.05,1.61-0.2,3.11,1.66,2.42c6.23-2.3,9.48-3.8,15.53-6.35"/><path d="M40.96,63.35c2.11,2.11,5.46,8.68,5.99,11.97"/><path d="M74.36,24.37c0.26,1.16,0.27,2.31-0.38,3.55c-3.39,6.43-6.01,10.48-8.66,14.14c-0.68,0.94-1.29,2.37,0.01,3.14c2.92,1.75,4.8,2.78,8.74,5.77"/><path d="M81.12,38.63c0.38,1.25,0.32,2.66-0.47,3.92c-4.52,7.32-9.15,14.82-16.16,24.83c-1.39,1.98,0.01,2.69,1.73,2.15c5.14-1.61,8.53-2.89,13.7-4.33"/><path d="M78,59.12c1.92,2.24,4.97,9.21,5.45,12.7"/><path d="M13.13,39.79c1.16,1.17,1.3,3.09,1.25,4.29C14,52.25,13.83,79,13.83,85.94c0,2.72,0.48,4.18,2.98,3.95C32.12,88.5,70.5,86,90.04,85.22"/><path d="M93.25,33.2c0.9,0.9,1.15,2.43,1,4.61c-0.57,8.22-2.13,32.24-2.92,44.33c-0.24,3.64-0.41,6.2-0.46,6.92"/></svg>