<svg><path d="M31.89,20.62c0.38,1.43,0.58,2.48-0.19,4.06c-3.82,7.82-7.82,14.82-11.98,20.84c-0.61,0.88-0.44,2.52,0.32,2.79c4.04,1.43,6.59,2.56,12.39,6.87"/><path d="M44.73,32.5c0.4,1.5,0.27,2.88-0.57,4.47C38.1,48.49,28.6,63.75,19.89,75.85C17.62,79,18.5,81,22.41,79.2C30.23,75.61,36.75,72,46.75,68"/><path d="M41.92,59.9c3.13,2.68,8.08,11.01,8.86,15.17"/><path d="M54.15,42.34c2.35,1.04,5.08,0.97,7.62,0.52c9.79-1.76,22.78-4.41,28.12-5.29c3.75-0.62,5.17,1.33,4.97,5c-0.38,6.95-5.43,29.26-10.53,39.78c-4.2,8.65-8.45,6.78-12.23,2.51"/><path d="M74.09,17.68c0.66,0.95,0.91,2.2,0.84,4.29C74.27,41,66.25,76.25,45.04,92.05"/></svg>