<svg><path d="M33.07,15.5c0.28,1.11,0.04,2.3-0.64,3.39c-2.98,4.8-5.17,8.11-8.28,12.16c-0.48,0.62-0.31,2.06,0.25,2.27c1.63,0.61,4.23,1.56,8.79,3.99"/><path d="M41.94,25.56c0.26,0.5,0.34,2.15,0,2.68c-5.05,7.86-10.78,13.53-17.71,20.7c-1.59,1.64,0.39,2.58,1.43,2.25c4.34-1.4,10.46-3.56,17.08-5.37"/><path d="M41,40.12c2.07,1.88,5.34,7.71,5.86,10.62"/><path d="M70.82,14.25c0.28,1.11-0.01,2.27-0.64,3.39c-1.55,2.74-2.75,5.87-5.28,8.91c-0.9,1.08-1.15,2.2,0,2.77c1.56,0.77,3.81,1.66,7.04,4.24"/><path d="M80.95,21.56c0.18,0.82-0.13,1.91-0.5,2.43c-4.57,6.39-8.82,11.89-15.96,19.2c-1.6,1.64,0.39,2.59,1.43,2.25c4.34-1.4,10.21-3.56,16.33-5.37"/><path d="M80,35.25c2.4,1.85,6.76,7.12,7.36,10"/><path d="M16.5,62.48c3.5,0.89,7.7,0.74,11.23,0.28c12.42-1.62,40.06-5.33,55.39-6.25c3.33-0.2,6.59-0.14,9.88,0.57"/><path d="M33.5,65.43c0.06,0.87,0.1,1.75-0.16,2.6c-2.62,8.7-7.73,18.92-17.54,27.22"/><path d="M34.12,75.62c2.85,1.09,8.03,5.28,10.62,9.66"/><path d="M49.75,11.5c1.72,1.84,2.26,3.59,2.54,7.54C54.5,50,64.5,83,84.75,95.25c6.69,4.05,7.25,2.88,6.1-6.67"/><path d="M78.71,62.93c0.1,0.76-0.03,1.7-0.46,2.79c-2.51,6.41-14.19,21.18-33.94,29.79"/><path d="M73,47.53c2.2,0.9,5.72,2.96,6.75,4.5"/></svg>