<svg><path d="M18.42,21.92c0.62,0.29,2.78,0.32,3.41,0.27c4.33-0.35,14.91-2.03,22.29-2.61c1.04-0.08,3.23,0.25,3.75,0.4"/><path d="M14.38,48.72c0.89,0.51,2.51,0.58,3.4,0.51c9.22-0.73,20.81-2.93,30.49-3.4c1.48-0.07,2.37,0.24,3.11,0.5"/><path d="M33.32,22.13c0.53,0.5,2.26,2.09,2.26,4.77c0,5.21-0.07,61.71-0.18,67.98"/><path d="M61.17,19.21c0.62,0.33,2.78,0.36,3.4,0.3c4.32-0.39,15.38-1.86,22.75-2.51c1.04-0.09,3.22,0.29,3.74,0.45"/><path d="M57.38,45.81c1.22,0.43,3.46,0.54,4.68,0.43C70.5,45.5,86,42.75,92.51,43.08c2.03,0.1,3.26,0.21,4.27,0.42"/><path d="M74.81,22.13c0.54,0.51,2.29,2.12,2.29,4.83c0,5.29-0.07,62.56-0.18,68.92"/></svg>