<svg><path d="M40.01,11.89c0.24,1.61-0.01,2.86-0.84,4.46c-2.53,4.84-6.91,11.4-15.86,19.62"/><path d="M39.13,23.62c2.25,0.38,4.4,0.18,5.79,0.03c11.7-1.27,21.33-2.9,33.22-4.07c2.3-0.23,4.2,0,5.35,0.26"/><path d="M30.13,43.59c1.36,0.33,3.87,0.46,5.21,0.33c10.91-1.05,28.53-3.42,40.78-4.26c2.26-0.15,3.63,0.16,4.76,0.32"/><path d="M33.75,44.5c1,1.25,1,1.97,1.01,3.5C34.8,52.33,35,65.29,35,66.25"/><path d="M13.88,67.74c1.97,0.47,5.61,0.66,7.57,0.47c20.21-2.03,36.35-4.62,66.65-5.31c3.29-0.08,5.26,0.22,6.91,0.46"/><path d="M56.56,25.46c1.12,1.12,1.79,3.54,1.79,4.94c0,0.89-0.05,44.26-0.13,61.6c-0.01,3.12-0.03,5.39-0.05,6.38"/></svg>