<svg><path d="M54.31,8.13c0.84,0.84,1.51,2.62,1.51,4.15c0,1.96-0.07,4.09-0.07,8.96"/><path d="M21.13,24.23c1.52,0.54,4.3,0.63,5.82,0.54c15.8-0.91,43.05-5.02,59.61-5.73c2.53-0.11,4.05,0.26,5.31,0.53"/><path d="M24.74,25c0.88,0.88,1.3,2.51,1.16,4.61c-1.4,20.27-3.52,42.02-16.09,58.86"/><path d="M42.7,33.92c1.18,0.58,3.55,0.5,4.9,0.29c2.67-0.42,21.39-4.3,24.2-4.72c2.82-0.42,3.78,1.77,2.1,3.14c-2.88,2.36-13.42,11.66-15.2,13.34"/><path d="M49.5,42.25c2.66,1.18,9.55,5.74,10.8,8.83"/><path d="M32.84,57.58c2.41,0.54,3.93,0.76,6.24,0.31c8.42-1.64,30.44-6.27,42.59-7.24c8.57-0.69,2.57,5.1-1.93,9.6"/><path d="M60.46,55.91c0.87,0.88,1.33,2.58,1.33,4.16c0,1.57-0.02,30.9-0.02,33.78c0,9.78-5.77,1.03-7.81-1.54"/></svg>