<svg><path d="M51.31,11.13c1.09,1.09,1.51,2.74,1.51,4.65c0,0.79-0.07,4.34-0.07,7.46"/><path d="M19.38,26.98c3.08,1.1,6.85,0.63,10,0.23c15.63-1.96,31-4.08,46.13-5.27c3-0.23,5.92-0.26,8.87,0.38"/><path d="M22.75,28.25c0.88,0.88,0.99,2.25,0.92,4.2C23,49.88,21,71.5,9.56,86.22"/><path d="M31.5,49.98c2.72,0.89,5.51,0.38,8.27,0.04c8.78-1.06,23.71-3.33,34.58-4.34c2.64-0.24,5.04-0.4,7.65,0.13"/><path d="M54.25,32.75c1.25,1.25,1.5,2.75,1.5,4.5c0,8.38,0.12,36.25,0.12,51.5c0,3.71-0.07,6.49-0.12,7.75"/><path d="M54.5,50.25c0,1.25-0.23,2.44-1.65,4.22C44.5,65,33.25,76.5,20.5,85.25"/><path d="M56.5,49.5c3.91,3.34,19.93,17.42,28.67,24.98c2.84,2.46,5.95,4.43,9.33,6.02"/></svg>