<svg><path d="M52.06,10.63c1.22,1.22,1.76,2.62,1.76,3.9c0,0.79-0.07,4.46-0.07,7.21"/><path d="M22.63,25.48c1.9,0.54,5.41,0.52,7.3,0.29C46.5,23.75,63,21.25,79.21,19.79c3.16-0.28,5.08,0.26,6.67,0.53"/><path d="M25.74,26.25c0.88,0.88,1.49,2.13,1.41,3.63C26,53.5,24,75.38,11.31,92.97"/><path d="M61.56,27.61c-0.06,0.5-0.25,1.29-0.62,1.76c-3.53,4.41-9.12,8.72-19.69,14.84"/><path d="M38.16,43.12c0.98,0.98,1.58,2.54,1.58,4.34s-0.19,29.92-0.19,32.71c0,2.79,0.19,3.59,2.64,1.6c2.45-2,8.86-6.98,10.37-8.18"/><path d="M41.71,53.23c0.71,0.19,2.01-0.17,2.71-0.27c10.12-1.45,27.25-4.31,36.97-5.85c1.74-0.28,3.73-0.49,5.25-0.45"/><path d="M56.27,38.5c0.98,1.25,1.83,2.7,2.32,4.22c5.16,16.09,15.45,35.47,31.67,45.34c7.18,4.37,5.99-0.94,4.93-5.09"/><path d="M34.31,94.68c2.44,0.57,4.88,0.26,7.19,0.07c7.63-0.63,22.8-1.47,31-1.75c2.5-0.08,5.08-0.22,7.54,0.28"/></svg>