<svg><path d="M53.06,10.88c1.22,1.22,1.76,2.49,1.76,3.9c0,1.71,0.18,3.34,0.18,8.71"/><path d="M21.13,27.08c2.58,0.42,6.43,0.61,8.68,0.41c15.69-1.37,32.81-3.62,49.76-4.68c3.76-0.24,6.04,0.07,7.93,0.4"/><path d="M24.18,28c0.83,0.83,1.21,1.92,1.23,3.61C25.75,65.75,21.88,81,10.88,92.48"/><path d="M79.04,31.82c0.12,0.8-0.4,1.93-1.06,2.4c-2.61,2.6-9.82,7.07-20.32,9.83"/><path d="M54.22,55.82c1.35,0.4,3.84,0.53,5.19,0.4c7.34-0.71,17.84-2.44,26.14-2.89c2.25-0.12,3.45,0.03,4.74,0.39"/><path d="M69.87,42.8c0.91,0.91,1.44,2.33,1.44,3.9c0,3.18-0.06,18.18-0.06,25.37"/><path d="M57.31,74.21c1.18,0.27,3.35,0.38,4.52,0.27c6.17-0.6,16.42-1.95,22.76-2.24c1.96-0.09,3.15,0.13,4.13,0.26"/><path d="M31.25,42.32c1,0.43,2.71,0.9,4.04,0.54c2.21-0.61,4.46-1.73,6.98-3.1c2.41-1.31,4.14,0.13,2.89,2.85c-1.91,4.15-5.03,10.77-7.78,16.43"/><path d="M36.81,59.75c3.07-0.87,4.78-1.38,7.77-2.65c3.17-1.35,4.76-0.1,3.98,3.04C45.88,70.88,39.5,84.5,27.18,92.81"/><path d="M29.2,69.49c5.19-0.17,37.05,18.76,51.41,24.53c2.61,1.05,4.89,2.1,8.62,2.73"/></svg>