<svg><path d="M54.81,11.63c0.97,0.97,1.51,1.99,1.51,3.15c0,1.71-0.07,5.46-0.07,8.71"/><path d="M21.63,26.73c2.75,0.4,5.81,0.21,7.86,0.04c15.39-1.27,37.89-3.64,52.47-4.73c3.4-0.25,5.47,0.01,7.17,0.28"/><path d="M26.24,27.75c0.88,0.88,1.19,2,1.16,3.63c-0.53,29.74-5.53,50.12-16.6,65.09"/><path d="M33,41.46c2.62,0.54,5.58,0.22,8.25-0.01c9.59-0.84,32.97-3.49,42-4.09c2.38-0.16,4.66-0.1,7,0.33"/><path d="M46.35,31.39c1.03,0.86,1.59,2.29,1.65,3.13c0.21,2.95,0.7,11.1,1.07,17.85c0.07,1.19,0.13,2.33,0.19,3.38"/><path d="M69.71,29.25c0.77,0.77,1.31,2.05,1.15,2.88c-0.73,3.87-1.61,10.62-2.63,18.32"/><path d="M50.26,53.33c6.43-0.67,9.92-1.04,16.62-1.65c1.11-0.1,2.3-0.21,3.61-0.33"/><path d="M42.11,64.16c1.89,0.47,3.2,0.41,6.22,0.01c3.02-0.4,17.29-3.9,19.33-4.47c2.97-0.83,4.47,1.05,3.08,3.15C59.9,79.33,44.38,92.88,26.68,98.75"/><path d="M40.91,69.78c6.56,0.2,24.27,16.4,39.39,24.35c2.89,1.52,5.95,3.07,9.2,3.61"/></svg>