<svg><path d="M51.81,9.63c0.76,0.38,2.36,2.88,2.51,3.65c0.15,0.77,0.08,4.65-0.07,9.46"/><path d="M21.13,25.05c1.6,0.47,4.54,0.55,6.14,0.47c16.67-0.79,39.35-4.37,55.5-4.99c2.67-0.1,4.27,0.23,5.61,0.46"/><path d="M26,26c0.04,1.57,0.05,4.05-0.09,6.31C25,47,24,78,11.31,92.22"/><path d="M42.05,29.1c2.28,1.65,5.88,6.77,6.45,9.33"/><path d="M71.62,24.64c0.02,0.36,0.05,0.93-0.05,1.44c-0.56,3.04-3.76,9.71-8.14,13.8"/><path d="M34.92,44.64c0.84,0.42,2.38,0.46,3.22,0.42c5.95-0.3,34.57-4.71,42.14-4.56c1.4,0.03,2.24,0.2,2.94,0.41"/><path d="M36.42,59.49c0.96,0.44,2.71,0.51,3.67,0.44c8.06-0.6,30-4.64,38.62-4.48c1.6,0.03,2.55,0.21,3.35,0.43"/><path d="M29.3,76.2c1.52,0.43,4.31,0.51,5.83,0.43c11.7-0.59,34.28-4.4,51.5-4.19c2.53,0.03,4.06,0.21,5.32,0.43"/><path d="M56.67,45.77c1,0.4,1.6,1.8,1.8,2.61c0.2,0.8,0,47.11-0.2,52.12"/></svg>