<svg><path d="M54.06,11.63c1.15,1.15,1.26,2.49,1.26,3.9c0,2.59-0.07,5.59-0.07,7.96"/><path d="M23.63,27.23c3,0.65,6.64,0.65,9.61,0.27c15.64-2,30.89-4.12,46.26-5.52c2.86-0.26,5.56-0.26,8.38,0.35"/><path d="M27.49,28.25c1.07,1.07,1.05,2.74,0.9,4.96c-1.26,18.54-2.76,42.16-17.33,60"/><path d="M34.94,41.82c2.69,0.68,4.96,0.36,6.93,0.12c11.29-1.39,24.56-3.5,34.88-4.31c2.37-0.18,4.83-0.46,7.17,0.07"/><path d="M56.91,30.25c0.21,1.38-0.2,2.66-0.67,3.71C49.88,48,42.38,57.62,28.14,68.35"/><path d="M58.38,39.96c5.84,4.02,18.22,13.27,26.11,18c2.25,1.35,4.6,2.67,7.12,3.46"/><path d="M38.83,61.57c0.95,1.03,0.92,2.52,1.07,3.82c0.34,2.93,1.12,9.26,1.71,13.85c0.37,2.89,0.66,5.08,0.71,5.31"/><path d="M40.07,61.94c2.84-0.31,22.86-3.01,31.05-3.65c3.37-0.27,5.26,0.46,4.73,4.09c-0.46,3.12-1.35,8.46-2.31,14.12c-0.26,1.53-0.52,3.09-0.78,4.63"/><path d="M41.88,72.03c4.14-0.33,27.06-3.08,31.73-3.46"/><path d="M43.6,82.69c6.37-0.69,23.55-2.95,28.56-3.35"/><path d="M55.32,50.37c0.97,0.97,1.14,2.09,1.14,3.57c0,4.06-0.09,28.31-0.09,32.81c0,9.12,1.12,10.25,17.9,10.03c12.67-0.17,14.44-1.64,14.44-8.98"/></svg>