<svg><path d="M53.53,11.38c1.1,1.1,1.33,2.37,1.33,3.53c0,0.65-0.06,2.84-0.06,5.59"/><path d="M22.88,23.73c2.66,0.95,6.12,0.7,8.88,0.34c15.26-2,32.31-3.75,45.37-4.95c3.13-0.29,5.92-0.46,9,0.2"/><path d="M26.49,25c1.13,1.13,1.27,2.68,1.16,4.87c-1.16,23.88-3.16,44.51-15.1,61.1"/><path d="M43.17,27.35c2.1,0.93,5.43,3.81,5.95,5.25"/><path d="M65.31,24.14c0.02,0.25,0.04,0.65-0.03,1.02c-0.3,1.48-1.55,4.19-3.4,6.67"/><path d="M33.74,37.18c2.51,0.57,4.54,0.33,6.63,0.08c7.8-0.94,23.79-3.32,33.39-4.38c2.55-0.28,5.42-0.35,7.92,0.26"/><path d="M36.21,47.09c2.66,0.66,5,0.55,7.42,0.24c11.49-1.46,23.42-3.18,32.1-3.74c1.94-0.12,3.02,1.44,2.59,3.49c-1.16,5.5-1.34,6.35-2.84,15.52"/><path d="M32.02,57.32c2.68,0.28,5.03,0.22,7.73-0.05c13.32-1.33,26.75-3.15,40.37-4.18c3.04-0.23,5.84-0.54,8.86,0.03"/><path d="M36.01,67.51c2.24,0.49,4.58,0.6,6.87,0.2c9.12-1.59,23.25-3.21,31.16-3.78c1.72-0.12,2.81,0,4.1,0.12"/><path d="M49.15,38.92c1.16,1.16,1.28,2.58,1.28,3.95c0,0.76,0.09,30.52,0.06,46.64c-0.01,3.54-0.01,6.36-0.01,7.99"/><path d="M62.57,36.94c0.99,0.99,1.28,2.18,1.28,3.7c0,0.74-0.11,34.35-0.11,48.6c0,4.27,0,6.28,0,8.75"/><path d="M48.94,68.19c0,1.19-1.23,3.73-2.36,5.32c-5.57,7.84-14.83,15.87-22.88,20.66"/><path d="M65.26,66.44c3.41,2.79,14.48,13.79,21.6,19.72c2.14,1.78,4.79,3.7,7.24,5.03"/></svg>