<svg><path d="M53.31,8.88c1.03,1.03,1.26,1.99,1.26,3.4c0,1.71-0.07,5.46-0.07,8.21"/><path d="M19.88,23.48c3.23,1.15,7.17,0.56,10.49,0.24c15.26-1.47,34.91-3.19,49.76-4.09c3.19-0.19,6.36-0.23,9.5,0.44"/><path d="M23.24,24.75c1,1,1.16,2.5,1.16,4.13c0,13.5-2.66,45.49-14.85,61.59"/><path d="M43.07,28.51c0.9,0.9,1.05,1.86,1.05,3.35c0,0.95-0.08,3.11-0.08,5.44"/><path d="M31.64,38.7c1.11,0.8,2.94,0.79,5.13,0.49c5.49-0.74,15.29-1.74,16.27-1.87c2.33-0.32,2.91,1.18,2.82,2.67c-0.3,4.97-0.76,12.46-1.33,18.55c-0.15,1.64-0.32,3.17-0.49,4.53"/><path d="M34.51,50.56c3.85-0.4,14.06-1.91,19.9-2.19"/><path d="M34.42,62.13c4.17-0.43,10.71-1.38,18.66-2.17"/><path d="M32.39,39.7c0.89,0.89,1.05,2.05,1.05,3.28c0,0.83-0.06,31.26-0.07,40.89c0,2.89,1.06,3.19,3.49,1.67c4.13-2.57,10.98-7.66,15.45-10.41"/><path d="M49.19,68.79c3,2.67,7.71,9.79,9.43,15.43"/><path d="M63.06,35.37c1.53,0.28,3.02,0.61,4.58,0.34c7.11-1.21,12.86-2.21,16.95-3.21c3.53-0.87,4.83,1.84,3.49,4.4C86.12,40.62,84,45,80.5,50.54"/><path d="M80.67,51.06C97.75,65.75,94,91.25,82.53,82.45"/><path d="M66.09,36.45c0.92,0.92,1.15,2.05,1.15,3.48c0,0.71-0.09,36.82-0.09,53.07c0,3.53-0.02,5.75-0.02,7.75"/></svg>