<svg><path d="M51.81,10.63c0.76,0.38,2.36,2.88,2.51,3.65c0.15,0.77,0.08,3.65-0.07,8.46"/><path d="M19.13,26.55c1.77,0.47,5.01,0.55,6.78,0.47c18.4-0.79,43.44-4.37,61.28-4.99c2.94-0.1,4.72,0.23,6.19,0.46"/><path d="M23,27.5c0.04,1.48,0.08,3.83-0.08,5.95c-0.97,12.55-2.66,43-13.11,56.52"/><path d="M28.16,51.04c0.6,0.22,2.23,0.42,3.83,0.22c6.01-0.77,12.51-1.52,19.5-2.64c1.59-0.26,2.02-0.22,3.03,0"/><path d="M40.4,33.75c1.01,0.44,1.61,1.98,1.82,2.86c0.2,0.88,0,56.38-0.2,61.89"/><path d="M42.21,51.38c-3.87,11.05-13.92,26.69-21.96,32.94"/><path d="M44.83,58.91c3.67,2.84,6.46,6.38,9.08,11.69"/><path d="M61.71,37.92c0.43,1.26,1.06,2.19,1.06,3.87c0,1.67-0.14,53.13,0,54.81"/><path d="M63.49,40.44c2.45-0.21,20.7-2.89,22.93-3.14c1.86-0.21,3.32,1.17,3.17,2.72c-0.2,1.97-0.72,53.88-0.86,55.12"/><path d="M63.45,57.03c4.82-0.29,20.72-2.16,24.65-2.16"/><path d="M63.15,73.43c6.48-0.7,19.63-2.51,25.93-2.51"/><path d="M62.92,93.62c4.86,0,18.83-1.88,25.12-1.88"/></svg>