<svg><path d="M51.86,10.63c0.73,0.37,2.27,2.76,2.41,3.5c0.15,0.74,0.08,3.5-0.07,8.12"/><path d="M19.63,24.78c1.76,0.49,4.98,0.63,6.73,0.49c16.89-1.27,43.15-4.58,60.87-5.23c2.92-0.11,4.68,0.24,6.15,0.48"/><path d="M24.99,26.5c0.04,1.48,0.09,3.83-0.09,5.95C23.85,45,22.25,76.75,10.06,88.97"/><path d="M43.19,30.5c0.15,0.33,0.21,0.76,0.14,1.03c-0.51,2.03-2.09,5.83-3.8,8.14"/><path d="M31.71,41.85c0.31,0.46,0.56,1.41,0.63,2.02c0.23,1.81,1.63,12.11,1.96,17.09"/><path d="M32.53,42.93c1.79-0.08,19.64-2.29,21.26-2.42c1.03-0.08,1.45,0.86,1.45,1.83c0,1.66-1.09,12.39-1.94,17.77"/><path d="M33.69,51.05c3.74-0.23,18.18-1.8,20.91-1.8"/><path d="M34.5,59.77c4.48-0.25,14.1-1.19,18.88-1.31"/><path d="M54.51,67.23c0.15,0.8-0.22,1.62-0.6,1.94c-2.48,2.11-10.2,6.45-18.51,9.31"/><path d="M32.61,66.57c0.48,0.75,0.51,1.24,0.67,2.24c0.16,1-0.06,12.37-0.06,15.48c0,8.01,6.38,6.75,11.82,6.75c8.97,0,11.09-2.54,11.09-9.41"/><path d="M61.69,35.34c0.69,0.25,1.96,0.34,2.65,0.25c3.61-0.46,15.46-3.07,20.55-3.29c1.15-0.05,1.84,0.12,2.42,0.25"/><path d="M64.86,42.63c0.34,0.33,0.74,1.74,0.69,2.4c-0.23,2.96-1.38,8.13-2.37,12.85c-0.48,2.29,0.82,2.96,1.68,2.77c2.53-0.56,18.28-3.74,26.13-3.97c0.91-0.03,1.48-0.14,2.2,0.14"/><path d="M76.37,37.69c0.28,0.79,0.52,2.32,0.35,4.26C75,61.25,71.25,80.25,57.75,94.5"/><path d="M76.83,63.11c0.36,0.87,0.64,1.9,0.67,3.25c0.1,6-0.28,15.5-0.28,19.59c0,9.54,4.09,8.46,8.11,8.46c4.25,0,7.04-0.86,7.64-1.56c1.26-1.47,0.92-2.57,1.03-5.14"/></svg>