<svg><path d="M52,8.88c0.65,0.33,2.02,2.47,2.15,3.12c0.13,0.66,0.07,3.13-0.06,7.24"/><path d="M20.88,22.05c1.63,0.47,4.62,0.55,6.26,0.47c16.98-0.79,40.08-4.37,56.53-4.99c2.72-0.1,4.35,0.23,5.71,0.46"/><path d="M25.5,23c0.04,1.65,0.09,4.27-0.08,6.64c-0.99,14.01-3.21,47.99-13.86,63.07"/><path d="M34.21,35.88c1.04,0.37,2.96,0.44,3.99,0.37c12.75-0.82,27.55-4,39.09-4.8c1.73-0.12,2.78,0.18,3.65,0.37"/><path d="M45.32,27.58c0.49,0.25,1.54,1.84,1.56,2.34c0.15,3.37,1.49,10.09,2.01,15.98"/><path d="M67.34,24.63c0.5,0.29,1.07,2.16,0.99,2.74c-0.49,3.54-0.91,8.48-1.73,15.08"/><path d="M48.58,44.11c3.2,0,17.81-1.82,21.4-1.82"/><path d="M30.38,53.67c1.31,0.45,3.73,0.6,5.03,0.45C47,52.75,69.75,50,84.54,49.83c2.19-0.03,3.5,0.21,4.59,0.44"/><path d="M36.68,62.45c0.69,0.37,1.65,1.94,1.71,2.43c0.44,3.74,1.57,13.06,2.38,20.31"/><path d="M39.35,64.04c12.65-1.79,31.65-3.89,38.86-4c2.98-0.05,4.08,1.49,3.92,2.55c-0.59,3.86-2.88,11.91-6.04,20.19"/><path d="M56.77,54.21c0.71,0.35,1.31,2.14,1.32,2.58c0.02,7.25,0.15,22.91,0.15,24.85"/><path d="M39.85,73.42c3.54-0.19,36.3-3.36,39.22-3.36"/><path d="M41.74,83.67c10.23-1.34,22.39-2.53,34.45-3.01"/><path d="M48.93,86.72c0.05,0.37,0.1,0.95-0.1,1.48c-1.16,3.11-7.84,8.87-16.98,13.05"/><path d="M68.52,87.12c5.2,2.31,13.43,9.51,14.74,13.11"/></svg>