<svg><path d="M51.81,10.13c0.76,0.38,2.36,2.88,2.51,3.65c0.15,0.77,0.08,3.65-0.07,8.46"/><path d="M18.13,24.05c1.71,0.41,4.84,0.48,6.55,0.41c17.78-0.69,41.98-3.33,59.22-3.87c2.84-0.09,4.56,0.2,5.98,0.4"/><path d="M23.5,24.5c0.04,1.61,0.08,4.15-0.07,6.45c-0.9,13.61-1.68,47.55-12.62,61.26"/><path d="M54.39,26c0.78,0.35,2.05,1.69,2.05,2.38c0,2.54-0.25,4.11-0.1,6.26"/><path d="M31.67,35.7c1.67,0.27,3.13,0.5,5.05,0.38c12.53-0.76,31.28-2.33,43.7-3.62c1.95-0.2,2.96,0.03,4.41,0.48"/><path d="M36.66,42.66c0.58,0.48,0.67,0.99,0.79,1.6c0.81,4.1,2.35,10.04,3.54,18.07"/><path d="M38.38,44.27c11.62-1.02,33.72-3.35,40.7-3.35c1.59,0,2.21,0.8,2.02,1.77c-0.87,4.58-2.55,10.82-4.29,17"/><path d="M48.3,47.84c0.17,0.13,0.35,0.23,0.42,0.39c0.59,1.25,1.61,5.52,2.12,7.77"/><path d="M49.37,48.87c3.51-0.65,14.88-1.87,16.89-2.04c0.74-0.06,1.18,0.36,1.07,0.71c-0.44,1.46-0.95,3.61-1.59,5.63"/><path d="M50.53,54.74c2.55-0.32,13.17-1.1,16.42-1.39"/><path d="M41.54,61.36c9.65-0.56,24.71-2.14,34.87-2.59"/><path d="M69.79,62.7c0.1,0.22,0.21,0.56-0.2,0.87c-2.45,1.84-16.48,5.86-35.7,8.33"/><path d="M24.57,78.77c0.64,0.29,3.21,1.04,4.91,0.86c7.68-0.86,41.59-4.29,54.6-5.08c1.7-0.1,3.84,0.34,4.91,0.62"/><path d="M53.65,71.14c0.73,0.34,1.17,1.51,1.31,2.18s0,22.49-0.15,26.68"/><path d="M55,77.38c-7.35,7.31-18.48,14.97-31.5,19.6"/><path d="M56.11,77.59c4.26,2.64,23.76,15.1,28.4,17.7c1.57,0.88,2.92,1.26,4.49,1.51"/></svg>