<svg><path d="M49.33,22.26c1.8,0.22,3.42,0.47,5.06,0.25c8.36-1.13,21.38-2.57,28.57-3c2.33-0.14,4.03,1.33,3.59,3.5c-0.93,4.62-2.05,10.24-3.37,16.71"/><path d="M41.75,34.44c2.14,0.22,3.81,0.21,6.18,0c14.82-1.31,30.32-3.81,44.13-4.92c2.61-0.21,4.75-0.07,5.94,0.15"/><path d="M49.43,44.53c1.11,0.22,3.11,0.35,4.43,0.22c8.77-0.87,19.15-2.24,27.91-3.5c1.75-0.25,2.88-0.25,4.21-0.03"/><path d="M49.78,56.38c1.97,0.25,3.79,0.17,5.13,0.08c10.67-0.71,16.51-1.84,28.64-2.8c2.22-0.18,3.57-0.09,4.68,0.07"/><path d="M44.69,69.29c1.6,0.47,4.54,0.37,6.14,0.22c12.05-1.14,25.63-2.76,37.55-3.54c2.66-0.17,4.56-0.03,5.89,0.21"/><path d="M66.7,10.75c0.96,0.96,1.66,2.38,1.66,3.57c0,2.82-0.11,46.71-0.15,63.31c-0.01,2.84-0.01,4.88-0.01,5.78"/><path d="M13.92,30.59c1.71,0.79,3.25,0.69,4.77,0.39c3.68-0.73,10.02-3.31,13.33-4.78c1.86-0.82,3.44,0.53,2.31,2.46C31.5,33.5,27.5,42,23.83,51.25"/><path d="M24,52c4.08-1.48,7.38-2.38,9.79-2.85c2.29-0.45,4.41,0.72,3.76,3.52c-3.93,17.09-8.43,30.21-24.06,40.45"/><path d="M13.05,64.69c5.42-0.17,34.87,21.46,63.9,29.23c4.93,1.32,9.86,2.24,14.65,2.58"/></svg>