<svg><path d="M80.03,14.5c0,1-0.58,2.09-1.38,2.58C72.25,21,63.75,24,50.25,27.54"/><path d="M67.37,26.75c0.81,0.81,1.42,2.25,1.42,3.36c0,0.74-0.16,31.02-0.16,37.35"/><path d="M70.2,45.06c4.8-0.51,8.54-1.42,13.41-1.84c1.13-0.1,2.37-0.34,3.49-0.09"/><path d="M51.65,42.68c0.83,0.83,1.44,2.19,1.42,3.36c-0.08,4.34,0.05,15.71,0.09,23.08"/><path d="M44.8,69.71c2.06,0.63,4.1,0.54,6.22,0.42c8.73-0.51,23.31-1.64,33.23-1.75c2.15-0.02,4.34,0.11,6.45,0.54"/><path d="M14.75,26.87c1.25,0.65,3.25,0.83,5,0.4c1.75-0.43,10.88-3.02,15-4.31c3.44-1.08,3.75,0.54,2.5,2.48C35.59,28.01,26,43.32,22.5,48.5"/><path d="M22.89,48.83c3.73-1.45,10.17-3.87,12.3-4.59c3.31-1.12,4.85-0.13,4.11,3.74C36.5,62.62,29.25,80.12,15,91.25"/><path d="M14.75,61.75c7.5,0.25,34.62,22.88,63.76,30.76c4.04,1.09,8.18,2.12,11.24,2.49"/></svg>