<svg><path d="M49.5,21.97c0.95,0.95,1.19,1.9,1.24,3.23c0.56,14.21,0.91,22.7,1.23,31.68c0.11,3.14,0.22,6.34,0.33,9.88"/><path d="M51.25,23.25c10.48-1.23,25.76-2.19,33.75-2.94c3.25-0.31,5,0.57,4.78,4.04c-0.49,7.49-1.6,20.61-2.61,31.78c-0.33,3.7-0.66,7.18-0.95,10.18"/><path d="M60.17,33.7c0.75,0.75,0.92,1.38,1.03,2.16c0.58,4.11,1.01,7.74,1.56,11.9c0.21,1.55,0.43,3.17,0.68,4.92"/><path d="M61.8,35.38c4.93-0.89,9.08-1.63,11.99-2.31c2.41-0.57,3.51,0.16,3.16,2.32c-0.73,4.53-1.13,7.26-1.92,12.44"/><path d="M64.08,50.29c2.75-0.39,5.8-0.63,9.07-1c1.24-0.14,2.52-0.29,3.82-0.48"/><path d="M53.58,64.41c7.8-0.36,19.67-1.16,31.89-1.65"/><path d="M12.75,23.95c2.21,0.97,4.28,0.81,6.44,0.26c4.31-1.09,9.81-2.46,13.56-3.99c3.34-1.37,4.07,0.99,3,2.29c-3.5,4.25-12.88,18.75-17.25,25.11"/><path d="M18.59,47.87c1.59-0.48,3.28-0.99,4.95-1.48c4.81-1.4,9.48-2.65,11.29-2.81c2.45-0.22,3.43,0.44,2.95,3.2C34.75,64.38,26,82.38,12,89.33"/><path d="M12.25,57.71c9.26,0,31.92,20.47,53.87,29.21c8.25,3.29,17.15,4.88,25.88,6.33"/></svg>