<svg><path d="M81.73,13.64c-0.05,0.94-0.42,1.72-1.12,2.34c-3.24,3.38-14.01,9.17-28.3,12.99"/><path d="M47.88,47.23c3.25,0.65,5.83,0.06,8.5-0.21c9.06-0.88,23.6-2.73,32.49-2.96c2.44-0.06,4.87-0.01,7.26,0.51"/><path d="M70.25,27c0.94,0.94,1.5,2.25,1.5,3.75c0,1.03,0,29.62,0,37.75"/><path d="M51.5,70.5c1.21,0.37,3.43,0.43,4.64,0.37c7.36-0.37,21.86-2.37,32-2.58c2.02-0.04,3.23,0.18,4.24,0.36"/><path d="M15,27.02c1.25,0.69,3.5,0.65,5.25,0.19s9.5-2.57,13-3.48s4.5,0.02,2.5,3.34C33.91,30.1,26.5,43.09,23,48.6"/><path d="M22.75,48.77C26.75,47,30,46.25,34,44.72c3.04-1.17,5.51-0.43,4.75,3.65C36.25,61.75,29.25,81.5,14,91.56"/><path d="M14.75,61.75c6.38,0,33.5,20.25,55.65,28.2c6.36,2.28,11.6,3.8,19.35,4.55"/></svg>