<svg><path d="M52.36,10.63c0.73,0.37,2.27,2.76,2.41,3.5c0.15,0.74,0.08,3.5-0.07,8.12"/><path d="M19.63,24.8c1.73,0.47,4.91,0.55,6.64,0.47c18.03-0.79,42.57-4.37,60.04-4.99c2.88-0.1,4.62,0.23,6.06,0.46"/><path d="M25,25.5c0.04,1.57-0.08,4.05-0.08,6.31c0,15.69-1.92,46.44-13.86,59.91"/><path d="M39.52,31.23c0.38,0.2,0.55,0.91,0.28,1.32c-1.46,2.15-3.2,7.22-5.69,9.97c-0.48,0.53-0.19,0.48,0,0.69c2.39,2.58,4.24,3.55,5.25,7.04"/><path d="M48.48,31.12c0.38,0.2,0.51,0.91,0.28,1.32c-1.27,2.21-3.28,6.34-5.67,8.92c-0.26,0.28-0.11,0.54,0.09,0.74c2.39,2.4,4.28,3.04,5.75,6.93"/><path d="M57.54,30.34c0.38,0.2,0.5,0.9,0.28,1.32c-1.27,2.38-3.33,5.84-5.73,8.42c-0.26,0.28-0.11,0.54,0.09,0.74c2.39,2.4,4.78,3.81,6.25,7.7"/><path d="M36.26,54.46c0.17,0.18,0.34,0.33,0.42,0.56c0.59,1.8,1.29,6.27,1.69,9.5"/><path d="M37.32,55.42c3.86-0.76,13.59-1.95,15.57-2.19c0.72-0.09,1.16,0.51,1.06,1.02c-0.43,2.1-0.93,4.41-1.57,7.32"/><path d="M38.45,63.47c2.33-0.27,11.65-1.23,14.85-1.64"/><path d="M34.83,69.6c6.19-1.2,15.14-1.99,18.96-2.42c1.39-0.16,1.72,1.44,1.64,2.4c-0.32,3.67-0.77,8.27-1.4,10.97"/><path d="M43.97,68.72c0.3,0.24,0.6,1.8,0.6,2.29c0,3.05-0.1,6.86-0.1,8.71"/><path d="M35.34,80.93c2.08-0.27,16.11-1.35,18.49-1.62"/><path d="M34.2,68.11c0.33,0.73,0.59,1.59,0.61,2.71c0.09,5.01-0.17,10.77-0.17,14.16c0,7.77,0.85,10.52,10.48,10.52c10.62,0,11.77-2.25,11.77-7.22"/><path d="M72.05,30.5c0.13,1.4-0.04,3.22-0.46,4.42C68.88,42.54,65.45,49,59.25,58.28"/><path d="M66.56,47.83c0.41,0.77,0.73,2.45,0.75,3.64c0.24,10.58-0.33,40.02-0.13,45.53"/><path d="M83.37,29.5c0.05,0.78-0.01,1.8-0.17,2.47c-0.99,4.26-2.25,7.55-4.52,12.74"/><path d="M67.19,48.06c4.76-1,22.38-2.9,24.43-3.44"/><path d="M79.14,46.69c0.23,0.39,0.41,0.93,0.41,1.6c0,6.86,0.03,31.43-0.11,42.24"/><path d="M67.83,61.08c4.49-0.83,20.2-1.73,22.12-2.18"/><path d="M67.29,76.52c4.74-0.7,20.77-2.11,22.8-2.49"/><path d="M67.79,92.32c5.46-0.32,22.67-0.9,24.71-1.45"/></svg>