<svg><path d="M15.25,35.7c1.52,0.54,4.32,0.8,5.82,0.54c6.15-1.05,50.43-5.49,64.11-6.73c2.52-0.23,4.05,0.26,5.31,0.53"/><path d="M19.95,57.82c1.09,0.16,2.58,0.7,3.67,0.66c6.64-0.23,16.89-2.98,26-4.05c1.8-0.21,2.9,0.08,3.8,0.16"/><path d="M14.5,80.94c1.33,0.5,3.79,0.65,5.11,0.5C30.5,80.25,47.5,76,56.83,75.68c2.22-0.08,3.56,0.24,4.67,0.49"/><path d="M58.5,11.5c1.61,1.82,2.44,2.31,2.61,6.24c1.21,27.02,10.59,65.57,29.15,77.95c6.23,4.16,5.43,0.78,4.62-7.27"/><path d="M71.75,12.5c3.34,1.95,8.69,6.41,10.25,9.75"/></svg>