<svg><path d="M52.05,10.75c0.2,0.88-0.05,2.25-0.52,3.01c-4.91,7.99-13.16,17.99-21.34,25.72c-2.48,2.34-2.01,4.29,1.68,3.51C41.25,41,60,37,73.69,34.09"/><path d="M66.21,25.98c5.35,2.87,13.17,11.4,15.17,16.24"/><path d="M13.88,63.48c3.75,0.77,6.66,0.58,9.75,0.28c16.75-1.63,44.02-4.51,62.75-5.32c3.21-0.14,6.6-0.04,9.75,0.64"/><path d="M40.13,45.25c1.06,1.06,1.79,2.55,1.82,4.37c0.42,23.5-2.45,37.88-19.45,49.13"/><path d="M66.62,42.25c0.94,0.94,1.46,2.38,1.46,3.5c0,4.25-0.05,33.74-0.07,47c0,3.12-0.01,5.34-0.01,6.12"/></svg>