<svg><path d="M34.66,11.13c0.79,0.79,1.26,1.87,1.26,2.95c0,0.47-0.05,12.54-0.05,16.04"/><path d="M20.16,16.83c2.24,1.61,5.79,6.63,6.35,9.13"/><path d="M51.02,14.64c0.03,0.29,0.06,0.75-0.05,1.17c-0.55,2.02-3.23,6.02-7.07,9.21"/><path d="M19.06,31.14C19.9,31.98,20,33,20,33.98c0,0.29,0.09,11.43,0.11,18.39c0.01,2.89,0.01,5.01,0,5.26"/><path d="M21.39,33.13c2.32-0.17,20.94-2.6,27.01-3.24c3.13-0.33,4.58,0.26,4.49,3.61c-0.21,7.35,0.23,15.3-0.62,21.19c-0.65,4.49-3.51,0.61-4.63-0.92"/><path d="M36.39,35.87c0.02,0.13,0.32,0.69,0.34,1.54c0.07,2.52,0.02,7.99-0.02,12.1c-0.03,2.49-0.05,4.48-0.05,5"/><path d="M29.63,39.93c0.04,0.58,0.03,1.17-0.17,1.71c-1.09,2.99-2.21,5.36-4.18,8.61"/><path d="M42.7,38.62c1.56,1.48,4.02,6.08,4.41,8.38"/><path d="M69.57,12.64c0.03,0.48,0.15,1.27-0.06,1.95C68,19.5,64.59,27.81,59.35,33.73"/><path d="M67.79,26.27c0.78,0.2,2.24,0,2.67-0.03c4.01-0.3,9.71-1.97,15.34-3.34c1.12-0.27,3.36-0.47,4.5-0.08"/><path d="M82.7,27.36c0.05,0.77-0.01,1.65-0.56,2.72C76.46,41,72.25,47.5,60.15,54.25"/><path d="M64.53,34.45c2.65,0.27,15,12.18,23.42,18c2,1.38,4.07,2.55,6.3,3.54"/><path d="M15.38,73.22c2.93,0.89,6.51,0.54,9.51,0.25c16.62-1.6,42.56-3.35,61.26-4c3.27-0.11,6.5-0.26,9.74,0.33"/><path d="M41.7,59.03c0.62,0.91,0.95,2.1,1,3.43c0.5,12.08,1.92,26.42-18.46,35.63"/><path d="M67.62,57c0.82,0.81,0.96,1.88,0.96,3.53c0,4.71,0.02,22.5,0.03,32.97c0,2.37,0,4.37,0,5.75"/></svg>