<svg><path d="M43.73,14.68c0.02,1.07-0.07,2.55-0.79,3.46C36.51,26.33,29.6,31.81,17.5,37.25"/><path d="M17.2,19.47c7.1,1.1,21.02,8.39,26.84,16.5"/><path d="M13.53,52.72c1.72,0.53,3.47,1.03,5.43,0.81c4.79-0.53,15.03-2.21,22.56-3.41c1.09-0.17,2.56-0.24,3.24,0"/><path d="M30.77,37.5c1.09,0.39,2.11,2,2.11,3.71c0,0.81-0.14,50.65-0.36,55.54"/><path d="M32.83,52.78C28.5,64.5,21.75,75.25,12.02,83.09"/><path d="M35.34,61.15c2.82,1.71,7.46,7.28,9.84,10.6"/><path d="M50.25,36.44c1.14,0.54,4.22,0.11,5.37,0.04C63,36,79.56,32.28,89.66,31.8c1.9-0.09,3.04,0.26,3.99,0.53"/><path d="M50.75,51.63c0.44,0.33,1.86,0.36,2.32,0.33c4.44-0.22,12.19-2.22,17.31-2.98c0.67-0.1,1.29,0.07,1.86,0.34"/><path d="M60.78,53.62c0.79,1.33,0.79,2.13,0.79,3.2c0,7.47-0.07,12.67-0.07,20.2"/><path d="M48.75,80.8c1.04,1.04,2.85,1.52,3.83,1.04c7.66-3.75,9.29-4.36,20.78-9.56"/><path d="M73.54,13.5c1.5,1.73,2.28,2.2,2.44,5.95C77.11,45.22,79.5,74,93.33,91.27c3.18,3.97,4.67,4.98,4.32-6.94"/><path d="M85.82,14.74c2.97,1.88,7.31,6.19,8.7,9.42"/></svg>