<svg><path d="M23.25,18.84c1.5,1.03,3.74,1.11,5.63,0.89c6.38-0.72,14.64-2.51,18.09-2.89c2.5-0.27,3.45,1.59,2.49,3.64c-0.67,1.44-3.52,10.63-3.71,11.51"/><path d="M23.5,34.5c1.25,0.62,3.41,0.6,5.04,0.38c4.88-0.67,13.23-1.78,14.55-1.88c1.66-0.12,3.51-0.25,4.91-0.25"/><path d="M24.38,35.43c0.37,1.07,0.24,2.19-0.39,3.83c-0.65,1.66-4.88,10.77-5.24,11.68c-1,2.56-0.49,3.92,2.75,3.06c4.75-1.25,15.5-4,20.71-4.94c2.96-0.53,4.35,1.92,3.54,4.69C42.38,65.25,38,78.88,29.75,89c-4.02,4.94-6.12,1.5-7.94-1.42"/><path d="M70.82,21c0.3,1.5,0.01,2.79-0.48,4.29C64,44.75,57,62.38,49.54,79.12c-1.98,4.43-0.77,4.49,2.55,3.54c6.98-2,21.67-5.41,32.48-8.02"/><path d="M76.35,59.99c5.42,4.94,14.01,20.3,15.37,27.98"/></svg>