<svg><path d="M20.5,17.25c1.5,0.88,3.73,0.9,5,0.75c5.12-0.62,15.62-2.5,21-3.75c2.54-0.59,4.53,0.85,3.75,3.75c-0.88,3.25-2.88,10.25-4,14"/><path d="M24,35c1,0.5,2.45,0.51,3.62,0.44c4.88-0.31,12.62-1.69,15.62-2.19c1.74-0.29,3.62-0.5,5.25-0.25"/><path d="M24.75,35.5c0.88,1.25,0.62,2.25-0.25,4c-0.65,1.3-5.07,10.06-5.5,11c-1.25,2.75,0,3.5,3,3c2.03-0.34,19.5-3.25,23.5-4c3.55-0.67,6.23,1.45,5.52,5c-1.97,9.78-9.4,29.42-13.02,36c-2.75,5-7.5,3.25-11-1"/><path d="M82,11.75c1.31,1.31,1.75,3,1.75,4.75c0,0.89,0.09,58.38,0.09,75.5c0,3.17-0.06,5.38-0.09,6.25"/></svg>