<svg><path d="M33.5,15c3.29,1.85,8.49,7.59,9.31,10.47"/><path d="M67.75,11.5c0.08,0.89-0.06,1.73-0.43,2.54C66.1,17.24,62.6,22.58,58,26"/><path d="M23.62,32.04c2.38,0.83,5.8,0.77,8.26,0.44C45,30.75,59,28.88,76.36,26.72c2.89-0.36,4.04,2.4,3.3,4.3c-0.76,1.96-2.56,7.92-3.16,10.73"/><path d="M24,47.5c1.5,0.38,3.38,0.43,5.25,0.3c11.25-0.8,31.63-2.92,45.15-4.55c1.54-0.19,3.11-0.25,4.36,0"/><path d="M25.43,48.42c0.82,0.82,0.75,2.42,0,3.71c-1.68,2.87-3.6,6.04-4.12,6.84c-1.8,2.78-1.3,4.69,1.32,4.38c2.5-0.29,59.11-6.03,65.75-6.62c6.64-0.6,5.02,3.99,4.54,5.42C92,64.89,87.73,73.5,84.92,78.44c-4.17,7.31-6.92,1.31-8.67-0.98"/><path d="M52.9,32.41c1.06,0.63,1.91,2.34,1.91,4.12c0,10.03,0.09,40.05-0.09,56.48c-0.03,2.78-0.07,5.16-0.12,7"/><path d="M52.69,60.75c0.09,0.64,0.19,1.64-0.19,2.56c-2.22,5.39-16.5,20.21-34,27.44"/></svg>