<svg><path d="M24.25,25.94c1.61,0.49,4,0.49,5.63,0.29c4.77-0.6,7.5-1.35,14.08-2.29c1.55-0.22,2.5-0.11,3.29,0.03"/><path d="M16.75,45.2c3.38,0.93,7.18,0.57,10.51,0.01c15.11-2.58,38.49-6.33,54.49-8.03c2.85-0.3,5.7-0.23,8.5,0.37"/><path d="M22,63.94c1.77,0.54,4.19,0.47,6.02,0.24c5.38-0.7,11.7-1.92,17.87-2.83c1.46-0.21,2.89-0.39,4.36-0.13"/><path d="M21.25,89.15c1.25,0.98,2.49,0.84,4.33-0.07c7.8-3.83,17.81-8.46,24.17-11.58"/><path d="M55.25,12.75c1.19,1.19,1.92,2.48,2.25,6.25c2.25,25.75,8.25,57.75,30.25,73.75c7.05,5.13,6.75,0.75,5.75-7"/><path d="M74.5,17.88c3.75,1.83,9.75,6,11.5,9.12"/></svg>