<svg><path d="M25.62,17.93c2.38,1.07,4.15,1.2,6.22,0.97c19.28-2.15,32.28-3.4,45.68-4.56c5.06-0.44,5.97,0.91,5.24,4.96c-0.73,4.05-2.84,12.9-3.24,15.31"/><path d="M26.75,40.97c2.13,0.59,4.63,0.03,6.77-0.19c12.9-1.37,33.63-3.91,41.25-4.92c2.35-0.31,4.62-0.34,6.98-0.34"/><path d="M27.68,41.8c0.69,1.2,0.44,2.58-0.26,4.18c-1.8,4.15-3.3,7.77-5.12,11.71c-1,2.17-0.3,3.32,2.32,2.93c2.5-0.37,55.36-7.17,62-7.91c6.64-0.73,5.02,4.91,4.54,6.67c-0.91,3.37-4.4,13.89-7.74,19.67c-2.42,4.2-5.05,2.2-7.67-1.3"/><path d="M53.04,19.75c0.98,0.98,1.59,2.25,1.59,4.3c0,1.11,0.12,43.95,0.12,64.96c0,4.57-0.12,7.23-0.12,9.36"/></svg>