<svg><path d="M32.43,9.94c0.38,0.79,1.06,2.09,0.86,3.17c-0.97,5.3-6.75,15.32-10.98,21.25c-0.87,1.21,0.36,1.92,0.86,1.99c7.08,0.91,15.83,5.91,21.1,11.79"/><path d="M44.36,21.23c0.08,0.82,0.13,2.82-0.18,3.99C41.69,34.64,34,46.5,16.84,53.6"/><path d="M12.25,26.29c0.83,1.42,1.53,2.17,3.73,1.78c4.77-0.83,22.02-4.83,34.79-7.05"/><path d="M57.99,17.06c1.26,0.23,1.42,0.59,3.93,0.23c2.52-0.35,19.77-3.47,21.5-3.83c1.73-0.35,3.3,1.01,2.7,2.3C81.25,26.24,69,39.16,54.69,44.23"/><path d="M57.27,22.45c5.98,0,19.9,17.09,31.67,23.84c1.83,1.05,3.17,1.75,4.87,2.1"/><path d="M34.12,52.59c1.63,0.81,3.15,1.05,5.22,0.9c2.07-0.15,32.34-3.55,36.51-3.55c1.64,0,2.89,1.31,2.05,3.27c-0.44,1.03-1.75,3.45-2.74,5.49c-0.54,1.11-0.98,2.1-1.15,2.72"/><path d="M34.75,64.75c2.99,0,34.12-3,36.26-3c2.14,0,4.28,0,5.99,0"/><path d="M33.43,62.42c0.82,1.08,0.62,2.48,0.24,3.67c-0.68,2.16-3.03,7.52-3.37,8.16c-0.8,1.5-0.33,3.5,2.82,2.8c2.38-0.53,37.61-3.97,44.25-4.5c3.88-0.31,5.13,1.94,4.04,5.08c-1.99,5.74-7.02,15.16-12.49,19.81c-3.92,3.34-9.17-1.7-11.17-4.26"/></svg>