<svg><path d="M17.32,19.83c1.8,0.79,3.78,1.01,4.86,0.79c5.94-1.24,14.28-3.01,16.73-3.52c2.83-0.6,3.95,1.34,3.09,3.38c-0.64,1.52-3.25,10.33-4.14,14.05"/><path d="M18.25,37.5c1.12,0.38,1.59,0.4,3,0.24c4.84-0.54,13.21-2.3,14.4-2.49C37.25,35,38.76,35,40,35"/><path d="M19.56,38.87c0.72,0.72,0.67,2.05,0.35,3.56c-0.37,1.73-1.41,5.82-2.2,8.65c-1.09,3.92-0.71,4.8,3.25,3.55c3.93-1.24,9.16-3.06,12.88-4.18c3.16-0.95,4.55,0.79,4.13,4.67C37,64,34.87,79.92,29.51,89.26c-4.01,6.99-6.79,1.19-7.54-0.66"/><path d="M66.11,14.75c1.13,0.61,2.48,2,2.48,4.16c0,4.45-0.09,10.02-0.09,14.34"/><path d="M46,36.52c2.84,0.21,5.5,0.22,8.36-0.18c9.33-1.29,24.07-3.59,33.28-4.36c2.25-0.19,4.69-0.62,6.87,0.2"/><path d="M66.34,37.87c0.66,1.01,0.45,2.04-0.18,3.47C63.75,46.75,60.25,52,56.01,57.92c-0.89,1.25-0.69,2.17,0.25,2.79c4.22,2.78,6.45,4.64,9.74,7.05"/><path d="M80.71,48.12c0.54,1.38,0.18,3.05-1,4.75C73,62.5,64.5,72,50.46,87.12c-1.57,1.69-0.73,3.33,1.25,2.75c13.67-3.99,17.79-5.37,33.75-10.25"/><path d="M81.38,70.5c3.65,3.86,9.42,15.86,10.33,21.87"/></svg>