<svg><path d="M11.82,19.83c1.43,0.92,3.77,1.23,4.86,1.04c6.19-1.12,12.78-2.26,15.23-2.77c2.83-0.6,4.18,1.24,3.59,3.38c-1.13,4.03-2.5,9.9-3.35,13.72"/><path d="M15.5,37.75c0.56,0,1.65,0.18,2.99,0.08c3.85-0.28,9.26-1.08,11.15-1.33C31.19,36.3,32.76,36,34,36"/><path d="M16.56,38.37c0.5,0.96,0.42,2.3,0.1,3.81c-0.37,1.73-1.45,8.06-2.2,10.9c-0.96,3.67-0.41,4.15,2.75,3.3c3.29-0.88,6.91-1.5,10.13-1.93c4.05-0.53,4.55,1.54,4.13,5.42c-0.97,8.88-3.1,22.06-8.46,31.39c-4.01,6.99-6.79,1.19-7.54-0.66"/><path d="M74.8,14c0.17,1.17-0.36,2.12-1.1,2.94c-6.09,6.67-14.06,12.22-25.05,17.24"/><path d="M44.36,34.13c0.82,0.82,1.55,1.94,1.59,3.96c0.43,22.17-0.07,41.04-13.39,54.63"/><path d="M60.72,35.18c1.05,1.05,1.4,2.19,1.4,3.81c0,9.19,0.01,32.97,0.01,39.88"/><path d="M49.18,82.61c0.69,0.54,2.04,1.58,3.48,0.99c7.64-3.09,12.16-5.12,20.33-8.55"/><path d="M70.76,68.39c2.37,2.54,6.11,10.43,6.71,14.37"/><path d="M73.23,35.29c2.97,0.65,4.85,28.39,15.53,47.39c1.97,3.5,4.12,6.82,6.99,9.47"/></svg>