<svg><path d="M20.25,18.84c2,1.28,4.11,1.1,6.12,0.81c4.43-0.65,9.01-1.4,14.56-2.4c2.91-0.52,4.32,0.5,3.28,3.49C43.66,22.3,40.92,32.21,40.75,33"/><path d="M20,35.75c1,0.5,2.02,0.51,3.45,0.38c4.29-0.38,10.8-1.41,14.19-1.88c1.54-0.21,3.86-0.25,5.11-0.25"/><path d="M21.38,36.93c0.55,0.96,0.46,1.81,0.11,3.33c-0.41,1.74-2.88,8.77-3.24,9.68c-1,2.56-0.57,3.79,2.75,3.31c4.38-0.62,12.5-2,16.71-2.44C40.7,50.5,42,51.88,41.75,56c-0.62,10.28-5,25.75-10.25,32.5c-4.47,5.75-7.25,1.62-9.19-1.67"/><path d="M67.94,14.39c0.09,1.43,0.11,2.62-0.4,3.98c-2.77,7.4-9.35,20.71-17.62,29.39"/><path d="M61.22,37.79c2.15,0.46,4.23,0.15,6.16-0.17c7.49-1.24,14.69-2.53,19.99-3.11c2.08-0.23,4.03-0.4,6.08,0.1"/><path d="M71.57,40.7c1.05,1.05,1.28,2.18,1.28,4.54c0,11.98-0.11,39.81-0.11,43.89c0,9.26-6.04,0.81-7.27-0.22"/><path d="M57.26,59.75c0.09,1.33,0.09,2.41-0.39,3.67c-1.67,4.33-4.73,11.29-8.6,16.75"/><path d="M87.61,58.13c3.19,3.95,8.24,16.24,9.04,22.39"/></svg>