<svg><path d="M21.07,18.41c1.68,0.59,3.68,0.7,4.79,0.45c1.11-0.24,15.18-2.95,17.47-3.37c2.67-0.49,4.33,1.24,3.66,3.18c-0.47,1.36-2.43,8.74-2.9,12.34"/><path d="M21.75,34c0.33,0.33,2.49,0.88,3.75,0.77c4.5-0.4,14.65-2.02,15.89-2.02c1.56,0,3.11-0.5,4.36-0.5"/><path d="M23.31,35.12c0.66,0.97,0.81,2.1,0.38,3.63c-0.49,1.76-5.26,9.59-5.93,10.32c-2.01,2.19-0.2,3.41,1.77,2.91c4.72-1.22,19.1-4.23,22.7-4.58c4.02-0.39,4.87,2.82,3.92,6.1c-4.41,15.26-8.81,29.41-15.53,40.08c-2.63,4.17-4.38,2.17-6.22-2.03"/><path d="M19,60c3.14,0.88,8.11,3.62,8.89,4.99"/><path d="M12.75,80.61c1.63,0.98,3.73,0.8,4.9,0c3.87-2.66,5.78-4.43,12.35-8.49"/><path d="M63.32,17.66c1.43,0.59,3.68,0.7,4.79,0.45c1.11-0.24,16.44-2.65,18.72-3.12c2.42-0.49,4.33,1.24,3.66,3.18c-0.44,1.3-2.75,8.14-3.81,11.05"/><path d="M60.75,33c1.25,0.62,2.35,0.36,3.75,0.17c6.62-0.92,17-2.42,19.39-2.67c1.55-0.16,3.11-0.25,4.36-0.25"/><path d="M62.31,33.37c0.79,0.79,1.06,1.85,0.63,3.38c-0.49,1.76-3.01,9.34-3.68,10.07c-2.01,2.19-0.2,3.41,1.77,2.91c4.72-1.22,23.17-4.3,26.7-5.08c6.27-1.39,6.17,3.27,5.42,6.6C89.75,66.5,86,82,79.13,94.83c-2.33,4.35-4.38,2.17-6.22-2.03"/><path d="M59.74,57.75c3.05,1.13,7.89,5.23,8.65,6.99"/><path d="M56,80.92c1.89,1.28,4.3,1,5.68,0c3.85-2.8,6.7-5.77,14.32-11.04"/></svg>