<svg><path d="M12.5,18.59c0.72,1.38,2.49,1.6,3.69,1.54C19,20,29.75,17.25,33.46,16.35c2.44-0.59,3.7,1.34,2.74,3.39c-0.95,2.04-3.31,11.03-3.96,14.01"/><path d="M16.75,35.75c1.75,0,14-2,15.25-2s2.5,0,3.5,0"/><path d="M16.13,34.68c0.55,0.96,0.46,4.56,0.11,6.08c-0.41,1.74-2.38,10.27-2.74,11.18c-1,2.56-0.25,4.56,2.75,3.06c1.21-0.6,11.75-3.25,15.96-3.69c2.99-0.31,2,5.21,1.79,6.94c-1.09,8.88-4.47,25.2-8.25,31.5C22,96,19.39,89.44,18.56,87.58"/><path d="M45,15.82c0.98,0.47,2.76,0.47,3.76,0.47c11.74-0.04,27.74-2.54,41.45-3.6c1.63-0.13,2.62,0.23,3.43,0.46"/><path d="M51.15,25.65c0.3,0.25,0.6,0.45,0.73,0.76c0.78,1.85,1.46,6,2.05,9.82c0.19,1.24,0.37,2.44,0.55,3.52"/><path d="M52.99,27.31c1.08-0.23,2.21-0.46,3.34-0.69c5.24-1.05,10.73-2.05,13.59-2.32c1.27-0.12,2.03,0.7,1.85,1.39c-0.58,2.19-1.23,4.73-2,7.57c-0.24,0.87-0.48,1.76-0.75,2.69"/><path d="M54.61,37.6c3.53-0.32,8.51-0.64,13.42-1.08c0.76-0.07,1.52-0.14,2.27-0.21"/><path d="M83.5,14.54c0.04,0.29,0.98,1.51,1.01,3.35c0.12,6.27,0.06,15.94-0.01,22.11c-0.03,2.53-0.07,4.47-0.09,5.35"/><path d="M43.13,51.25c0.97,0.31,4,0.88,5,0.81c12.12-0.81,25.87-2.31,44.22-3.55c1.62-0.11,2.59,0.15,3.4,0.31"/><path d="M50.93,61.48c0.31,0.33,0.62,0.6,0.76,1c0.87,2.64,1.65,8.88,2.29,14.23c0.14,1.18,0.28,2.33,0.41,3.38"/><path d="M52.35,63.67c0.64-0.09,1.29-0.18,1.95-0.27c6.25-0.86,13.36-1.82,16.62-2.21c1.32-0.15,2.11,0.92,1.92,1.83c-0.62,2.99-1.63,5.53-2.6,9.05c-0.25,0.92-0.51,1.92-0.75,3"/><path d="M55.05,77.76c3.57-0.4,8.54-0.82,13.49-1.38c0.92-0.1,1.85-0.21,2.76-0.33"/><path d="M84.41,51.32c0.06,0.29,0.79,1.51,0.85,3.35c0.27,8.83-0.17,32.16-0.17,35.17c0,10.41-5.34,1.91-6.85-0.81"/></svg>