<svg><path d="M11.78,40.72c1.11,0.78,4.3,0.46,5.6,0.3c4.19-0.52,10.77-1.72,15.89-2.66c1.19-0.22,2.81-0.73,4-0.24"/><path d="M25.61,15c1.13,1.13,1.54,2.75,1.54,4.42c0,1.73-0.1,47.02-0.14,66.83C27,90.59,27,93.71,27,94.88"/><path d="M26.69,41.03c0,1.34-0.49,4.71-1,6.24c-4.27,13-8.97,22.57-15.58,30.82"/><path d="M29.47,49.65c2.59,1.92,6.84,8.14,9.03,11.85"/><path d="M43,38.37c1.75,0.51,3.13,0.51,4.75,0.28c3.64-0.51,9.72-1.75,14.01-2.74c0.93-0.21,2.37-0.41,3.5-0.24"/><path d="M53.1,13.56c1.11,1.11,1.44,2.31,1.44,4.26c0,0.76,0,48.58,0.01,68.93c0,4.08,0,7.06,0,8.32"/><path d="M53.92,38.84c0,1.53-0.75,4.28-1.22,5.56C48.3,56.33,44.25,65,37.11,74.67"/><path d="M57.75,49c2.26,1.81,5.99,7.68,7.9,11.18"/><path d="M91.03,16.54c0.11,1.17-0.2,2.44-0.81,3.45c-3.35,5.51-10.83,14.69-21.64,22.22"/><path d="M93.97,40.03c0.13,1.09-0.41,2.29-1,3.15C89,49,81.25,57.38,67.93,66.19"/><path d="M97.07,63.8c0,1.2-0.73,2.5-1.38,3.49c-6.11,9.36-17.04,20.3-32.33,28.4"/></svg>