<svg><path d="M53.45,9.25c0.84,0.84,1.1,2.05,1.1,3.33c0,1.28,0,4.14,0,7.62"/><path d="M31.48,22.97c2.52,0.4,4.68,0.35,6.89,0.05c8.63-1.15,21.83-2.09,31.88-2.75c2.5-0.17,5.17-0.26,7.64,0.16"/><path d="M37.5,29.88c4.16,5.24,6.43,10.83,6.81,14.29"/><path d="M67.16,23.67c0.34,1.2,0.21,2.2-0.08,3.48c-0.82,3.55-5.24,12.59-6.58,15.34"/><path d="M24.5,47.75c3.08,0.77,6.9,0.45,10.01,0.04c13.61-1.79,31.33-3.76,44.12-4.64c3.08-0.21,6.15-0.52,9.22-0.06"/><path d="M31.01,51.14c0.67,0.67,0.78,1.7,0.65,2.84c-1.54,13.39-6.04,28.77-17.6,39.48"/><path d="M70.75,51c-0.12,1.12-0.66,1.92-1.53,2.71c-3.67,3.33-13.82,8.38-27.71,12.04"/><path d="M74.99,64.25c0,1-0.62,2.14-1.63,2.88C68,71,58.75,75.62,43.75,80.5"/><path d="M82.71,78.5c0,1-0.99,2.31-1.62,2.85c-5.84,5.02-19.92,12.43-41.34,17.4"/></svg>