<svg><path d="M33.21,13.83c1.1,1.1,1.29,2.42,1.29,4.52c0,5.9-0.01,7.69-0.01,12.65"/><path d="M35.88,22.38c4.01-0.76,8.48-1.72,12.64-2.4c1.45-0.24,3.48-0.88,4.96-0.47"/><path d="M19.41,33.43c0.89,0.89,1.24,2.47,1.24,4.53c0,27.54-1.15,43.29-11.15,55.54"/><path d="M21.4,35.02c8.15-2.09,22.92-4.77,29.68-4.93c7.12-0.17,2.01,4.66,0.23,6.78"/><path d="M24.84,49.44c1.91,0.43,4.25-0.22,5.43-0.44c5.24-0.98,10.9-2.59,16.85-4.5c1.3-0.42,3-1,4.74-0.81"/><path d="M33.92,37.43c0.89,0.89,0.92,2.07,0.92,3.34c0,4.98-0.07,7.14-0.07,9.37c0,6.61,1.84,7.11,7.52,7.11c2.11,0,7.42-0.25,9.24-1.14"/><path d="M31.35,65.47c0.27,0.78,0.56,1.9,0.44,2.95c-1.16,10.21-3.91,20.46-12.24,28.25"/><path d="M44,64.75c0.88,0.88,0.9,2.47,0.9,4.03c0,3.09,0.01,8.8,0,13.55c-0.02,9.79,1.6,11.91,24.35,11.91C92.38,94.25,94,92.5,94,83"/><path d="M86.28,15c0.14,1.15-0.39,2.1-0.98,3.03c-2.9,4.63-8.42,10.47-21.61,17.46"/><path d="M89.97,36.41c0.18,1.2-0.73,2.4-1.38,3.29C84.79,45.02,76.5,53,60.3,60.21"/><path d="M93.57,56.74c0.2,1.3-0.51,2.56-1.19,3.59c-3.95,6.02-14.8,16.94-35.58,25.92"/></svg>