<svg><path d="M19.63,23.42c1.2,0.38,3.39,0.46,4.59,0.38c4.66-0.3,16.61-2.55,25.33-3.88c1.96-0.3,3.83-0.32,4.83-0.13"/><path d="M10.88,51.92c1.82,0.38,4.24,0.39,6.04,0.13c13.24-1.92,31.41-5.55,39.38-6.3c3.01-0.28,4.85-0.07,6.36,0.12"/><path d="M28.52,36.64c0.98,0.98,1.19,2.31,1.19,4.02C29.71,57,30.38,74.5,19,88"/><path d="M45.87,27.25c1,1,1.46,2.38,1.46,3.5c0,0.87-0.12,43.25-0.12,58.26c0,2.92-0.06,5.04-0.1,5.99"/><path d="M85.5,17.5c0.13,1.15-0.23,2.18-0.89,3.13C81.25,25.46,76,31.75,67.38,36.75"/><path d="M90.51,41.5c0.15,1.2-0.03,2.02-0.64,3.07C86.63,50.11,78.28,57.44,66.88,64"/><path d="M96.8,64.71c0.2,1.4-0.39,2.9-1.21,4.04c-4.76,6.62-15.5,17.3-31.85,24.38"/></svg>