<svg><path d="M33.09,16c0.05,0.54,0.27,1.49-0.11,2.15c-2.64,4.65-10.6,15.86-18.36,20.6"/><path d="M36.34,35.75c0.07,0.78,0.32,2.18-0.13,3.15C33,45.69,24.54,57.5,12.75,69"/><path d="M27.72,56c0.36,0.25,0.57,1.15,0.65,1.66c0.07,0.51,0,35.15-0.07,38.34"/><path d="M65.3,13.75c1.07,0.66,1.84,2.72,1.84,4.04c0,4.86-0.34,9.64-0.14,13.75"/><path d="M43.38,33.64C45,34,46.83,34.3,48.15,34.16c10.66-1.1,29.45-4.17,43.93-4.93c2.23-0.12,2.38,0.04,4.04,0.67"/><path d="M66.03,41.32C72,44.5,77.9,47.33,83.36,48.31c3.09,0.55,4.29,1.79,3.81,4.45c-1.36,7.44-8.71,33.71-12.6,39.52c-4.22,6.3-7.55-1.25-8.81-2.09"/><path d="M66.6,34.75c0.4,1.5,0.32,3.19-0.15,4.88c-3.28,11.65-12.78,35.18-27.52,46.2"/></svg>