<svg><path d="M35.07,14.25c0.15,1.32,0.02,1.95-0.75,3.05c-3.49,5.02-11.95,15.05-20.21,19.45"/><path d="M36.83,32.25c0.14,1.48,0.14,2.56-0.62,3.87c-3.86,6.65-12.96,17.53-25.46,28.13"/><path d="M26.3,52.5c0.81,0.58,1.3,2.59,1.46,3.75c0.16,1.16,0,34.05-0.16,41.25"/><path d="M44.32,27.5c1.26,1.17,2.44,1.52,4.05,1.3c1.61-0.22,35.99-4.12,39.21-4.77s3.78,2.83,3.14,4.84c-1,3.14-1.74,6.22-3.01,11.39"/><path d="M47,45.5C52.5,45,83.82,41,85.71,41s3.78-0.5,5.29-0.5"/><path d="M45.76,44.45c0.5,0.87,0.81,3.74,0.19,5.11c-0.72,1.57-4.16,10.39-4.48,11.26c-0.32,0.87,0.13,3.63,2.57,2.61c1.84-0.77,45.39-5.72,50.5-6.77c1.59-0.33,2.84,1.25,2.42,4.38c-0.65,4.78-3.86,13.2-7.14,18.46c-3.35,5.35-4.25,1.41-6.09-2.44"/><path d="M57.51,13.87c0.91,0.99,1.66,3.47,1.66,6.24c0,8.59,0.18,13.32,0.13,26.15c-0.06,17.55-4.05,40.49-20.6,49.19"/><path d="M72.67,11c1.06,0.49,1.7,2.19,1.91,3.17c0.21,0.97,0,76.74-0.21,82.83"/></svg>