<svg><path d="M31.35,14.5c0.12,1.15,0,1.71-0.63,2.69C27.87,21.55,21.25,29.38,14.38,34"/><path d="M34.62,34.25c0.13,1.55,0.03,2.63-0.62,4.06C30.5,46,23.5,55.25,12.5,65.25"/><path d="M27.08,53c0.83,0.83,1.59,2.25,1.59,4.16c0,3.36-0.04,23.53-0.06,34.47c0,2.77-0.01,4.96-0.01,6.12"/><path d="M51.58,16.25c0.83,0.83,1.21,2.32,1.19,3.49c-0.15,12.01-3.21,23.9-10.43,29.27"/><path d="M54.01,18.07c5.49-0.82,11.69-2.14,16.23-3.51c2.52-0.76,4.63,0.32,3.7,3.26c-1.23,3.85-1.74,9.31-1.74,13.32c0,6.73,2.17,9.07,9.61,9.07c8.32,0,9.86-1.34,9.86-9.04"/><path d="M49.07,53.83c1.48,0.37,3.43,0.42,5.12,0.12c2.96-0.54,17.69-3.92,19.7-4.55c2.86-0.89,4.74,0.73,3.27,3.78C67.74,72.76,55,86.75,39,95.01"/><path d="M47.48,63.25c8.58,0.47,22.08,17.31,37.83,26.65c2.92,1.73,6.12,3.63,9.49,4.27"/></svg>