<svg><path d="M21.38,15.88c0.75,0.75,1.3,1.94,1.47,2.73c0.67,3.13,1.93,12.24,2.98,18.74c0.22,1.34,0.41,2.56,0.58,3.6"/><path d="M23.77,17.34c6.43-0.88,20.92-3.07,27.6-3.84c3.31-0.38,5.23,0.82,4.77,4.38c-0.46,3.6-1.95,11.19-2.87,15.92c-0.44,2.29-0.76,3.91-0.75,4.08"/><path d="M25.45,28.24c6.92-0.99,21.49-2.88,28.58-3.45"/><path d="M27.22,38.29c7.86-0.8,17.28-2.42,24.53-3"/><path d="M38.51,39.49c0.81,0.81,1,1.76,1,3c0,2.77-0.01,4.26-0.01,6.01"/><path d="M14,52.21c2.62,0.42,4.62,0.19,7.01-0.14c8.98-1.24,25.64-3.35,34.5-3.94c1.96-0.13,4.13-0.46,6.01,0.28"/><path d="M24.31,62.18c0.69,0.69,1.04,1.7,1.41,3.08c0.6,2.26,1.02,4.49,1.65,7.92c0.17,0.96,0.35,1.9,0.53,2.78"/><path d="M26.24,63.11c7.26-1.46,17.63-3.33,22.9-3.96c2.98-0.36,5.06,0.72,3.93,3.96c-0.76,2.16-1.4,4.76-2.42,7.37"/><path d="M28.96,74.17c6.02-1.07,13.24-1.72,20.28-2.57c0.78-0.09,1.64-0.04,2.4-0.04"/><path d="M38.24,75.57c0.72,0.72,1.12,1.81,1.12,3.33c0,3.62-0.11,12.61-0.11,15.73c0,4.99-4.26,0.59-5.84-0.81"/><path d="M25.09,81.36c0.09,0.86-0.07,1.68-0.47,2.45c-2,2.95-4.62,6.2-8.93,10.29"/><path d="M50.28,80.61c2.82,1.77,6.46,6.94,7.17,9.69"/><path d="M90.18,19.2c0.13,1,0.02,1.54-0.64,2.33c-2.98,3.63-12.96,11.66-18.88,14.33"/><path d="M89.04,46.22c0.11,0.77-0.21,1.56-0.64,2.17c-2.42,3.48-9.78,9.23-17.75,13.79"/><path d="M89.25,74.7c0.13,1,0.17,1.86-0.42,2.71c-3.58,5.21-11.71,12.96-23.69,20.39"/></svg>