<svg><path d="M31.83,16.75c0.13,0.96-0.51,1.9-1.06,2.61c-3.17,4.1-10.39,11.14-18.9,16.14"/><path d="M32.61,35.75c0.06,0.7-0.21,1.69-0.62,2.54C29.11,44.32,21.62,55,11.25,65.25"/><path d="M25.97,51.75c0.83,0.83,0.9,1.88,0.9,2.91c0,0.41,0.02,22.68-0.03,33.34c-0.01,2.68-0.03,4.61-0.04,5.25"/><path d="M46.76,36.45c0.9,0.9,0.98,2.35,0.91,4.5c-0.67,21.8-3.3,37.8-11.87,50.39"/><path d="M48.24,37.41c13.89-3.41,23.51-5.16,37.2-6.26c9.82-0.79,3.43,5.1,0.21,8.92"/><path d="M66.38,15.25c1.06,1.06,1.39,2.12,1.39,3.6c0,0.98-0.02,23.86-0.02,33.65"/><path d="M55.75,55.14c1.23,0.33,2.47,0.3,4.95-0.12c3.8-0.65,15.05-3.65,18.25-4.39c2.56-0.6,4.06,1.05,2.81,3.93c-7.8,17.89-20.27,29.39-35.05,37.7"/><path d="M55.47,63.92c3.49,0.61,18.28,14.83,30.88,23.62c2.24,1.56,4.15,2.84,7.25,4.15"/></svg>