<svg><path d="M32.09,14.25c0.06,0.53,0.27,1.48-0.11,2.13c-2.68,4.6-10.75,15.68-18.61,20.37"/><path d="M35.34,33.75c0.07,0.75,0.33,2.1-0.14,3.03C31.89,43.32,23.17,54.69,11,65.75"/><path d="M27.22,52.5c0.36,0.25,0.57,1.15,0.65,1.66c0.07,0.51,0,40.15-0.07,43.34"/><path d="M43.75,26.75c0.65,1.5,0.88,3.08,0.88,4.98c0,13.02,0.05,35.77,0.05,60.77"/><path d="M45.04,28.15c12.71-1.9,36.21-3.9,44.45-4.65c1.26-0.11,2.78,0.75,2.78,3.5c0,14-0.23,44.75-0.23,64"/><path d="M56.45,43.14c0.21,0.53,0.42,0.98,0.51,1.64c0.72,5.28,1.95,18.49,2.56,27.97"/><path d="M57.16,45.28C62.5,44,74.4,41.35,77.63,40.99c2.12-0.24,2.88,1.11,2.71,2.21c-0.7,4.55-3.01,20.05-4.05,26.35"/><path d="M60.18,71.75c5.57-0.5,12.32-1.75,18.29-1.64"/><path d="M45.31,89.51C54.59,89,78,87.25,91.54,86.5"/></svg>