<svg><path d="M34.57,15.75c0.06,0.45,0.3,1.26-0.12,1.82C31.49,21.51,22.56,30.99,13.87,35"/><path d="M36.35,32.75c0.06,0.72,0.32,2-0.13,2.89c-3.15,6.24-11.84,18.72-22.97,27.61"/><path d="M27.22,52.5c0.36,0.25,1.07,1.65,1.15,2.16c0.07,0.51,0,38.65-0.07,41.84"/><path d="M56.57,14.75c0.05,0.8,0.11,2.07-0.1,3.22c-1.23,6.79-8.3,21.7-17.97,30.83"/><path d="M54.84,29.71c1.66,0.54,3.68,0.74,5.22,0.49c7.44-1.2,27.36-4.66,31.08-4.91c3.72-0.25,4.35,0.71,4.35,4.21c0,8.83-2.75,41.75-8.36,60.78c-2.72,9.21-6.76,0.85-8.96-2.23"/><path d="M52.19,43.82c0.28,0.86,0.55,1.29,0.55,2.43c0,1.14-0.09,34.27,0,35.42"/><path d="M53.2,45.11c1.56-0.14,17.29-2.98,18.71-3.15c1.18-0.14,1.94,1.59,1.85,2.43c-0.19,1.72-0.37,34.2-0.37,35.06"/><path d="M52.97,60.16c2.11,0,17.9-2.07,20.28-2.07"/><path d="M53.87,77.46c4.29-0.62,14.03-1.66,19.37-2.19"/></svg>