<svg><path d="M34.25,18.38c0,1.3-0.24,2.26-0.93,3.05c-3.57,4.07-8.94,8.7-15.91,13.39"/><path d="M38.75,36.62c0.14,1.32-0.42,2.67-1.13,3.79c-3.45,5.4-11.43,14.17-22.37,22.71"/><path d="M28.4,54.36c0.81,0.81,1.38,2.02,1.38,3.28c0,0.68,0.03,25.57-0.07,35.86c-0.02,1.74-0.04,3.05-0.05,3.75"/><path d="M61.16,12.62c0.29,1.07,0.21,2.43-0.39,3.54c-2.52,4.6-6.1,9.01-9.88,12.93c-1.01,1.05-1.26,2.17,0,2.68c2.96,1.19,6.3,3.11,8.88,5.07"/><path d="M76.35,20.12c0.27,1.25-0.3,2.56-1,3.31c-7.6,8.19-16.6,16.57-26.61,25.32c-1.25,1.1-0.74,1.76,0.74,1.41C55.72,48.69,74.5,44.4,82.5,43"/><path d="M77.88,36.25c3.66,2.21,9.46,9.07,10.38,12.5"/><path d="M57.75,53c0.09,1.13,0.02,2.27-0.4,3.33c-2.2,5.51-7.08,13.22-15.6,20.92"/><path d="M59.31,59.82c1.17,0.13,2.31,0.02,3.29-0.09c2.65-0.29,9.84-1.39,13.62-2.29c2.59-0.62,3.24,0.68,2.67,2.4C75.25,70.75,59.25,88.88,43.02,96.5"/><path d="M54.75,67.5c2.52,0,19.5,15.75,31.17,24.23c2.31,1.68,4.74,3.38,7.58,4.01"/></svg>