<svg><path d="M32.33,12.25c0.1,0.93-0.16,1.73-0.65,2.5c-2.97,4.64-10.56,13-18.56,18"/><path d="M32.87,33.5c0.05,0.69-0.22,1.93-0.61,2.77c-3.14,6.86-9.64,16.48-19.02,26.23"/><path d="M26.47,50.25c0.89,0.89,1.15,2.25,1.15,3.66c0,0.39,0.03,23-0.02,35.1c-0.02,3.75-0.03,6.49-0.05,7.25"/><path d="M47.13,24.75c2.08,0.35,3.58,0.48,5.49,0.25c8.73-1.05,18.89-2.75,28.49-3.72c2.69-0.27,4.05,1.45,3.65,3.93c-0.62,3.92-2.25,12.04-3.82,21.09"/><path d="M41.03,38.44c3.3,0.43,6.33,0.15,9.62-0.21c14.97-1.67,27.55-3.21,39.85-4c2.59-0.17,5.41-0.53,7.97,0.07"/><path d="M46.96,50.44c1.86,0.44,3.65,0.32,5.52,0.03c9.68-1.54,15.84-1.95,24.8-3c2-0.23,4.23-0.47,5.74-0.21"/><path d="M45.19,64.34c1.98,0.78,4.9,0.47,6.93,0.16c10.02-1.54,19.28-2.71,27.37-3.53c2.25-0.23,4.31-0.46,6.52,0.07"/><path d="M37.22,78.12c2.53,0.63,5.5,0.44,7.91,0.13c13.39-1.71,31.22-3.68,42.36-4.33c2.5-0.15,4.89-0.25,7.34,0.37"/><path d="M63.3,10.75c1.16,1.16,1.57,2.5,1.57,3.94c0,0.73-0.09,54.41-0.11,75.81c0,3.47-0.01,6.09-0.01,7.5"/></svg>