<svg><path d="M35.33,15.25c0.15,1.08-0.22,1.8-0.92,2.65c-3.3,4-9.9,10.35-18.79,15.35"/><path d="M35.84,32.75c0.07,0.75-0.17,2.1-0.64,3.03c-3.32,6.54-11.54,17.41-23.7,28.47"/><path d="M25.97,52c1.01,1.01,1.41,2.5,1.41,3.88c0,5.46,0,27.73-0.05,37.12c-0.01,2.05-0.02,3.49-0.03,4"/><path d="M48.11,27.78c2.02,0.35,3.66,0.24,5.4,0.02c6.01-0.75,17.57-2.51,25.74-2.93c1.72-0.09,3.42-0.18,5.11,0.21"/><path d="M64.35,11.87c1.14,1.14,1.51,2.32,1.51,4c0,8.76-0.06,22.88-0.06,25.35"/><path d="M39.63,44.1c2.87,0.65,5.83,0.36,8.61,0.05c15.05-1.65,30.01-3.28,42.26-4.08c2.44-0.16,4.98-0.33,7.38,0.15"/><path d="M40.03,60.99c2.22,0.51,4.77,0.43,6.99,0.25c10.69-0.9,30.7-3.37,41.36-4.03c2.47-0.15,4.91-0.3,7.34,0.29"/><path d="M76.25,47.5c1,1.25,1.91,3,1.91,4.9c0,12.98-0.13,36.67-0.13,40.77c0,7.31-4.78,3.71-8.05-0.04"/><path d="M54.03,70.38c2.91,1.83,7.51,7.53,8.24,10.38"/></svg>