<svg><path d="M35.58,16.75c0.06,0.51,0.29,1.41-0.12,2.03c-2.93,4.4-11.75,14.99-20.34,19.47"/><path d="M39.83,35.75c0.07,0.67,0.35,1.87-0.14,2.7c-3.45,5.83-12.98,17.49-25.19,25.8"/><path d="M29.22,54.5c0.36,0.25,1.07,1.65,1.15,2.16c0.07,0.51,0,37.15-0.07,40.34"/><path d="M50.32,19.44c2.3-0.13,22.64-3.8,24.73-3.96c1.74-0.13,2.75,1.45,2.73,2.25C77.67,23.37,75,40.5,74.77,47.12"/><path d="M50.48,32.6c5.77-0.63,20.04-2.61,25.59-3.11"/><path d="M50.59,48.14c7.91-1.01,15.79-2.47,24.38-3.44"/><path d="M48.51,15.86c0.99,1.14,1.59,2.78,1.85,4.02c0.26,1.24,0.26,62.62,0.26,66.99c0,2.79,0.72,5.93,3.99,3.43c3.64-2.8,7.39-5.8,13.34-10.17"/><path d="M83.2,49.71c0.29,1.43,0.48,1.99-0.51,3.14c-1.92,2.23-7.72,7.38-10.35,9.38"/><path d="M59.88,55.34c5.38,0.42,16.16,21.53,25.84,29.43c4.2,3.43,6.12,4.58,8.35,5.27"/></svg>