<svg><path d="M35.08,16.75c0.06,0.51,0.27,1.41-0.11,2.03c-2.71,4.4-10.89,14.99-18.86,19.47"/><path d="M39.34,32.75c0.07,0.68,0.34,1.9-0.14,2.74c-3.38,5.93-12.73,17.8-24.7,26.26"/><path d="M28.72,53c0.36,0.25,1.07,1.65,1.15,2.16c0.07,0.51,0,37.15-0.07,40.34"/><path d="M57.61,16.99c0,0.6,0.03,1.08-0.08,1.8c-0.58,3.75-6.07,16.28-10.77,21.83"/><path d="M56.05,31.21c2.88,1.58,6.57,5.8,7.98,9.79"/><path d="M82.85,17.49c0,0.6,0.03,1.08-0.09,1.8c-0.62,3.75-6.51,16.28-11.55,21.83"/><path d="M80.36,29.46c4.17,1.99,9.5,7.27,11.54,12.29"/><path d="M65.86,47c0.39,0.46,1.31,2.48,1.31,3.4c0,6.25,0.36,26.41,0.28,32.13"/><path d="M67.53,62.2C68.51,62.2,75.4,60.74,81.43,59.54C82.71,59.29,83.91,59.27,84.92,59.27"/><path d="M51.37,60.81c0.07,0.78,0.52,1.99,0.35,3.13C50.25,73.75,49,82.25,38.5,91.71"/><path d="M49.83,74.47c10.81,3.83,29.35,15.34,36.4,17.32c2.24,0.63,4.11,1.21,6.27,1.46"/></svg>