<svg><path d="M31.62,13.75c0.06,0.46-0.22,1.28-0.6,1.85c-2.69,3.99-10.53,11.78-18.66,17.65"/><path d="M32.38,32.5c0.06,0.8,0.06,1.71-0.37,2.69c-3.05,6.9-10.82,18.89-22,30.56"/><path d="M24.22,52.75c0.76,0.76,1.15,1.88,1.15,2.91c0,1.97-0.05,26.88-0.07,37.84c0,2.09,0,3.68,0,4.5"/><path d="M47.63,29.17c2,0.33,4.13,0.36,6.02,0.08c8.22-1.24,17.8-2.99,26.6-3.87c1.85-0.18,3.56-0.32,5.38,0.16"/><path d="M63.42,10.62c0.12,0.29,1.65,1.53,1.77,3.39c0.57,8.93,0.31,27.7,0.31,30.75"/><path d="M37.88,47.8c3.37,0.83,6.74,0.56,9.87,0.18c13.14-1.58,23.73-2.73,39.99-4.32c3.14-0.31,6.76-0.28,8.89,0.31"/><path d="M64.87,49.75c1,1,1.46,2.5,1.46,3.75c0,1.02-0.08,23.5-0.08,29.75"/><path d="M68.75,65.25c6-0.5,14.5-2.34,17.09-2.34c1.57,0,2.5,0.18,3.29,0.37"/><path d="M50.55,65.5c0.05,0.69,0.11,1.78-0.11,2.77c-1.3,5.83-7.69,18.11-18.94,26.48"/><path d="M49.12,75c7.92,2.72,27.72,17.4,35.22,19.96c2.31,0.79,5.15,1.49,7.4,1.79"/></svg>