<svg><path d="M32.58,13.25c0.06,0.51,0.27,1.41-0.11,2.03c-2.71,4.4-10.89,14.99-18.86,19.47"/><path d="M35.85,32.75c0.07,0.71,0.32,1.97-0.13,2.84C32.53,41.72,23.75,54,12.5,62.75"/><path d="M28.67,50.5c0.39,0.28,1.18,1.8,1.25,2.36c0.08,0.56,0,40.65-0.08,44.14"/><path d="M57.62,17.2c0.75,0.48,1.2,2.17,1.34,3.13c0.06,0.41,0.07,13.74,0.05,29.35c-0.03,20.99-0.77,36.82-14.71,48.57"/><path d="M43.3,39.37c0.7,0.13,2.73,0.74,3.76,0.5c1.03-0.24,10.59-1.68,11.79-2.41"/><path d="M42.96,54.51c1.03,0,2.23,0.24,3.26,0c1.03-0.24,10.08-1.67,12.82-2.39"/><path d="M 40.25,72.49 c 1.81,0.7 2.73,0.32 4.27,-0.57 2.499583,-1.428333 12.49125,-6.538333 18.863125,-9.735417"/><path d="M73.87,12c0.77,0.5,1.23,2.23,1.38,3.22c0.15,0.99,0,77.62-0.15,83.81"/><path d="M75.74,33.67c4.01-0.47,15.52-2.11,18.52-2.89c1.09-0.28,0.33-0.16,2.23-0.16"/><path d="M75.5,50.57c3.27-0.29,13.83-1.65,16.28-2.13c0.89-0.18,0.27-0.1,1.82-0.1"/><path d="M75.41,69.58c3.72-0.34,17.24-1.9,20.02-2.46C96.45,66.91,95.74,67,97.5,67"/></svg>