<svg><path d="M34.25,12.62c0.05,0.48-0.22,1.32-0.6,1.91c-2.67,4.11-10.17,12.75-18.53,18.22"/><path d="M37.09,33c0.16,1,0.08,1.85-0.39,2.78c-3.32,6.54-11.29,18.91-23.45,29.97"/><path d="M27.97,54c0.76,0.76,1.4,2.12,1.4,3.16c0,0.42-0.05,24.38-0.06,35.84c0,2.65-0.01,4.63-0.01,5.5"/><path d="M52.17,12.66c1.02,1.02,1.33,2.09,1.5,3.35c0.09,0.64,1.51,14.41,2.24,21.72c0.26,2.57,0.43,4.35,0.43,4.46"/><path d="M54.26,14.02c3.87-0.35,20.03-1.67,26.49-2.14c3.32-0.24,5.56-0.19,5.25,3.76c-0.45,5.73-1.27,11.67-2.21,18.74c-0.23,1.72-0.46,3.5-0.7,5.36"/><path d="M56.01,26.17c7.24-0.67,23.66-2.09,27.99-2.09"/><path d="M57.51,39.3c7.99-0.55,16.74-1.43,24.41-1.62"/><path d="M40.75,53c2.08,0.5,5.92,0.47,7.99,0.25c15.38-1.62,28.38-3.12,42.84-4.24c3.46-0.27,5.56-0.01,7.3,0.24"/><path d="M45.25,67.67c2.31,0.45,4.88,0.47,6.85,0.3c13.75-1.22,27.64-3.22,38.96-3.68c3.24-0.13,5.19-0.12,6.82,0.28"/><path d="M81.39,55.08c1.26,1.26,1.76,2.79,1.76,4.77c0,14.56,0.08,27.66-0.01,32.62c-0.14,8.28-5.01,2.78-7.71,0"/><path d="M57.83,75.87c2.65,1.59,6.84,6.53,7.5,9"/></svg>