<svg><path d="M29.34,17c0.13,1.02-0.23,1.75-0.85,2.59c-2.91,3.92-9.62,11.73-16.62,15.16"/><path d="M28.13,38c0.08,0.93-0.26,1.88-0.66,2.67C24.86,45.8,18.4,55.21,10.25,62"/><path d="M21.47,54.25c0.89,0.89,1.15,2,1.15,3.16c0,0.4,0.03,16.9-0.02,26.34c-0.01,2.86-0.03,5.01-0.05,5.75"/><path d="M46.71,16.5c0.89,0.89,1.17,2,1.17,3.07c0,0.6,0.08,15.43,0.08,20.12"/><path d="M36.16,31.53c0.47,0.97,0.59,1.47,0.5,2.65c-0.2,2.66-0.29,5.32-0.66,7.25c-0.26,1.34,0.53,2.32,1.74,1.99c7.5-2.04,12.63-3.54,21.18-5.23"/><path d="M60.66,24.46c0.87,0.87,0.84,1.91,0.75,3.07c-0.18,2.46-0.67,4.72-1.1,8.01c-0.21,1.61-0.45,3.47-0.72,5.71"/><path d="M30.84,57.58c1.9,0.2,3.45,0.14,5.32-0.26c5.18-1.08,12.6-3.69,17.58-4.83c1.67-0.38,3.32-0.44,5.03-0.01"/><path d="M39.28,60.14c0.35,0.73,0.47,1.58,0.44,2.47c-0.22,6.64-2.97,17.64-9.91,23.36"/><path d="M49.71,56.25c0.83,0.83,1.17,1.88,1.17,3.07c0,0.6,0.08,12.9,0.08,16.62c0,2.07,0.91,2.32,2.91,0.32c2.88-2.88,5.75-5.5,9.12-8.75"/><path d="M75.05,20.89c0.33,0.98,0.25,2.13-0.07,3.24c-2.48,8.74-6.6,19.74-12.48,31.61"/><path d="M71.5,44.42c1.88,0.08,3.21-0.11,4.24-0.33c3.27-0.69,7.88-2.09,11.42-3.23c0.78-0.25,2.59-0.62,3.84-0.37"/><path d="M80.67,46.18c0.43,1.09,0.66,1.88,0.21,3.88C76.83,68.23,69.88,80.5,54.5,91.5"/><path d="M67.25,55.75c0.89,0,13.89,18.68,21.82,27.68c1.64,1.86,2.93,3.45,5.18,5.32"/></svg>