<svg><path d="M35.33,14c0.11,0.97-0.23,1.74-0.76,2.51C31.52,20.93,23.72,29.97,16.12,34"/><path d="M36.59,34.25c0.12,1.32-0.4,2.61-1.01,3.74C32.03,44.63,23.74,55.58,12,66.25"/><path d="M28.72,51.25c0.7,0.7,1.15,1.88,1.15,2.91c0,0.4,0.02,24.78-0.03,37.09c-0.01,3.51-0.03,6.04-0.05,6.75"/><path d="M56.61,13c0.06,0.97-0.29,2.18-0.67,3.06C54,20.5,50.62,26.62,45,33.29"/><path d="M56.75,21.97c0.69,0.28,1.94,0.1,2.63,0.03c3.85-0.42,16.91-2.23,24.66-3.4c1.7-0.26,3.53-0.28,5.24-0.21"/><path d="M53.52,33.65c0.73,0.73,1.16,1.72,1.28,2.75c0.45,3.85,1.35,10.46,2.07,16.08c0.23,1.82,0.4,3.09,0.43,3.26"/><path d="M55.69,35.24c3.46-0.63,18.76-3.02,24.44-3.77c2.95-0.39,4.85,0.53,4.35,3.68c-0.5,3.15-1.61,10.73-2.26,15.38c-0.31,2.17-0.51,3.71-0.51,3.85"/><path d="M56.83,44.56c8.67-1.31,17.17-2.69,25.47-3.4"/><path d="M57.94,54.01c7.06-0.64,15.56-1.89,23.1-2.22"/><path d="M59.58,61.25c0.13,1.11-0.31,2.15-0.8,3.14c-2.4,4.24-7.4,10.61-14.89,16.28"/><path d="M61.72,65.48c1.03,0.15,2.11,0.1,2.82-0.08c3.47-0.89,8.82-2.48,12.23-3.28c2.34-0.55,3.61,1.14,2.66,3.38C75.97,73.62,60.25,91,45,97"/><path d="M55.65,73.81c5.47,3.06,20.98,14.22,29.54,19.06c2.55,1.45,5.5,2.96,8.31,3.84"/></svg>