<svg><path d="M32.83,13c0.06,0.44-0.22,1.48-0.61,2.02C29.43,18.86,20.79,27.09,12.62,31"/><path d="M32.87,34.75c0.09,1.17-0.41,2.33-0.86,3.38c-2.9,6.73-10.21,19.57-19.5,28.62"/><path d="M26.22,52.5c0.58,0.58,0.9,1.75,0.9,2.91c0,0.42,0.02,26.45-0.03,38.34c-0.01,2.73-0.03,4.65-0.04,5.25"/><path d="M82.27,12.75c-0.14,1-0.88,1.95-1.8,2.5c-7.59,4.5-14.84,7.12-29.84,11.88"/><path d="M46.78,26.5c0.98,0.98,1.19,2.62,1.19,4.49c0,20.63,0.69,45.88-11.77,62.23"/><path d="M51.31,39.33c2.57,0.42,4.36,0.16,6.32-0.08c10.92-1.33,23.48-3.05,31.76-3.58c2.07-0.13,4.1-0.21,6.12,0.31"/><path d="M68.5,26.38c0.81,0.81,1.16,2.12,1.16,3.55c0,0.96-0.04,13.69-0.04,20.07"/><path d="M56.2,50.8c0.87,0.87,1.18,2.07,1.18,3.64c0,1.06,0.24,25.69,0.16,36.96c-0.02,3.14-0.04,5.2-0.04,5.34"/><path d="M58.23,52.16c2.71-0.17,23.08-2.21,25.54-2.42c2.05-0.17,3.5,0.81,3.5,3.81c0,1.25,0.04,25.4-0.01,37.19c-0.02,3.55-0.04,5.94-0.08,6.17"/><path d="M58.63,65.47c6.53-0.66,22.92-2.16,27.26-2.16"/><path d="M58.67,79.41c7.83-0.42,20.04-1.51,27.64-1.79"/><path d="M58.72,93.4c6.33-0.41,20.48-1.27,27.44-1.27"/></svg>