<svg><path d="M26.86,18.75c0.08,0.81-0.21,1.52-0.61,2.2c-2.38,3.97-8.58,12.4-14.63,16.05"/><path d="M28.62,36c0.09,1.06-0.19,2-0.67,2.92c-2.7,5.13-9.07,14.54-17.45,21.33"/><path d="M21.97,52c0.83,0.83,0.9,1.88,0.9,2.91c0,0.4,0.02,20.16-0.02,31.34c-0.01,3.33-0.03,5.77-0.05,6.5"/><path d="M47.82,17.25c0.84,0.84,1.04,1.88,1.04,3.27c0,3.23-0.11,13.28-0.11,17.86"/><path d="M36.56,28.84c0.8,0.8,1.18,1.92,1.07,2.56c-0.26,1.6-0.89,5.35-1.28,8.08c-0.28,1.97,0.64,2.6,2.41,2.24c6.54-1.38,14.09-3.03,21.17-4.33"/><path d="M62,23.26c0.54,0.32,1.16,2.38,1.08,3.02c-0.34,2.49-0.89,5.56-1.47,8.5c-0.33,1.66-0.67,3.28-0.99,4.73"/><path d="M33.44,53.35c2.06,0.52,3.94,0.16,5.44-0.04c4.83-0.63,11.63-1.84,16.53-2.74c1.11-0.2,2.97-0.7,4.03-0.35"/><path d="M47.5,53.5c0.75,0.75,0.97,1.94,0.97,2.9c0,6.77-0.01,12.82-0.01,23.67"/><path d="M33.81,67.41c0.92,0.56,3.69,0.3,4.69,0.1c5.62-1.14,12.12-2.51,17.74-3.52c1.29-0.23,2.38-0.49,3.81-0.35"/><path d="M33.24,86.66c0.89,0.71,1.89,0.84,3.17,0.26c9.73-4.38,16.34-7.42,24.95-11.86"/><path d="M76.52,17.89c0.03,0.76-0.08,1.75-0.32,2.82C74.46,28.43,70.75,40,64.76,50.82"/><path d="M73.95,38.84c1.06,0.29,2.02,0.06,2.59-0.04c4.21-0.72,10.68-2.19,14.88-3.54c1.15-0.37,2.21-0.64,3.38-0.41"/><path d="M84.85,40.77c0.44,1.23,0.57,2.14-0.03,4.36C79.75,64,70.88,80.75,56.82,91.5"/><path d="M64.89,55.53c2.87,0.4,14.76,18.22,23.97,27.86c2.29,2.4,4.51,5.36,7.87,6.99"/></svg>