<svg><path d="M29.84,19.1c2.16,0.65,4.04,0.84,6.64,0.56c5.28-0.57,27.92-4.58,29.53-4.69c2.13-0.14,3.55,1.42,2.79,3.61c-0.23,0.65-1.66,5.12-3.15,11.37"/><path d="M31.27,34.51c0.86,0.24,1.97,0.31,3.74,0.13c5.9-0.62,18.9-1.96,26.76-3.01c2.37-0.31,3.98-0.38,5.54-0.33"/><path d="M32.31,35.15c0.71,0.71,0.78,1.72,0.78,3.07c0,1.9-0.05,5.03-0.05,6.51c0,11.01,2.09,12.28,21.55,12.28c20.3,0,21.64-1.64,21.64-7.71"/><path d="M23.25,76.5c0.36,2.21-3.61,11.98-6.5,15.67"/><path d="M31.7,68.48C40.5,88,55.52,96.67,79,95.25c8.25-0.5,8.36-4.38,1.75-8"/><path d="M55,70.5c1.44,2.72,5.67,9.85,6.14,2.77"/><path d="M79.25,65.75c5.76,2.74,11.12,8.7,14.75,13.7"/></svg>