<svg><path d="M32.12,17.44c2.45,0.8,5.01,0.54,7.52,0.32c12.21-1.07,29.09-3.29,34.89-3.78c4.04-0.34,5.7,1.79,5.36,4.19c-1.14,8.21-6.72,30.07-12.23,37.38c-4,5.3-6.33,3.6-9.35,0.16"/><path d="M55.96,19.6c0.09,0.9-0.14,2.15-0.68,3.38C50.5,34,41.38,48.12,24.62,58.21"/><path d="M38.03,31.13c6.85,2.32,14.72,7.62,19.67,13.4"/><path d="M23.58,75.84c0.24,2.4-2.37,12.99-4.27,16.99"/><path d="M34.54,71.84C43,87.5,53.5,98,81.04,96.83c6.97-0.3,6.96-3.2,2.38-6.95"/><path d="M51.55,68.63c2.95,4.99,5.84,8.66,6.84,4.33"/><path d="M78.03,66.45c5.33,1.2,9.33,2.29,13.66,6"/></svg>