<svg><path d="M16.25,37.25c0,6.52-2.58,16.14-3.25,18"/><path d="M30.25,28.25c3.28,1.49,8.49,6.14,9.31,8.47"/><path d="M25.37,12.25c1,1,1.46,2.25,1.46,3.75c0,0.86,0.08,51,0.04,72c-0.01,4-0.01,6.93-0.01,8.25"/><path d="M66.16,15.48c1.43,1.43,1.96,2.77,1.96,5.39c0,5,0.1,13.88,0.1,18.7"/><path d="M40.13,43.71c3.24,0.79,5.98,0.69,9.38,0.15c10.46-1.67,29.7-4.41,40.24-5.19c2.92-0.22,5.77-0.39,8.62,0.42"/><path d="M52.72,46.75c1.14,1.14,1.26,2.5,1.26,4.6c0,11.4,0,22.21,0,26.53c0,9.12,1.77,11.64,18.77,11.64c9.5,0,16.75-1.27,20.53-2.29"/></svg>