<svg><path d="M21.61,31.38c2.76,0.87,6.01,0.74,8.64,0.43c13.5-1.57,34.11-3.99,48.01-4.46c2.63-0.09,5.55,0.06,8.14,0.62"/><path d="M52.77,12.25c1.12,1.12,1.83,3.25,1.83,4.64c0,6.61-0.09,25.32-0.09,32.36"/><path d="M28.46,51.82c2.29,0.43,5.54,0.38,7.8,0.11c11.25-1.31,25-2.69,36.87-3.6c2.33-0.18,4.82,0.06,7.13,0.49"/><path d="M19.75,73.5c0.36,2.33-3.61,12.64-6.5,16.54"/><path d="M32.84,70c10.79,20,23.37,27.44,47.85,26.57c8.93-0.32,8.31-3.07,3.29-7.43"/><path d="M51.44,63.25c3.18,6.25,7.4,10.87,8.59,5.58"/><path d="M81.99,62.78c4.88,2.67,8.88,6.47,12.51,13.37"/></svg>