<svg><path d="M25.08,29.23c0.78,0.78,1.17,1.52,1.48,2.73c1.15,4.48,2.03,9.58,3.49,17.53c0.27,1.48,0.54,3.01,0.8,4.6"/><path d="M27.03,30.45c13.34-1.07,42.4-4.22,52.06-4.63c3.62-0.15,5.03,1.53,4.19,4.86c-2.02,7.96-2.77,11.58-3.8,15.65"/><path d="M31.57,51.11c9.41-0.95,29.41-2.28,44.2-3.33c2.08-0.15,4.07-0.29,5.93-0.41"/><path d="M53.06,13c1.03,1.03,1.18,2.5,1.18,3.66c0,4-0.08,27.32-0.11,38.97c-0.01,2.47-0.01,4.41-0.01,5.5"/><path d="M22.07,72.55c0.32,2.67-3.2,14.47-5.75,18.93"/><path d="M34.24,68.96C44,88.88,57.12,96.75,82.11,95.56c7.21-0.34,7.17-3.37,3.24-7.41"/><path d="M54.19,67.25c1.55,3.02,5.85,9.01,6.82,4.75"/><path d="M78.31,63.56c5.57,3.06,10.07,6.31,14.13,12.25"/></svg>