<svg><path d="M17.22,36.75c0,6.61-3.72,16.36-4.69,18.25"/><path d="M32.27,32.33c2.57,2.49,6.65,10.25,7.29,14.13"/><path d="M23.87,13.75c1.09,0.5,1.74,2.25,1.96,3.25c0.22,1,0,74.75-0.22,81"/><path d="M83.76,12c0.08,0.4,0.35,1.17-0.17,1.6c-7.16,5.86-16.3,10.3-31.4,15.34"/><path d="M48.28,28.33c0.65,1.95,0.64,3.81,0.64,5.93c0,20.99-1.68,43.36-9.37,56.75"/><path d="M51.59,43.85c0.54,0.2,2.64,0.11,4.09,0.12c8.83,0.03,25.74-3.59,34.72-4.21c1.44-0.1,3.94-0.2,4.84,0"/><path d="M71.18,45.48c0.94,0.63,1.5,2.84,1.69,4.1c0.19,1.26,0,40.54-0.19,48.42"/></svg>