<svg><path d="M19.72,36.5c0,6.34-4.11,15.69-5.19,17.5"/><path d="M30.27,30.08c3.28,2.45,8.47,10.07,9.29,13.88"/><path d="M25.87,12.75c1.09,0.5,1.74,2.25,1.96,3.25c0.22,1,0,74.25-0.22,80.5"/><path d="M48.65,25.15c1.15,0.62,2.4,0.91,3.75,0.75c9.12-1.02,20.96-2.7,29.22-3.16c4.38-0.24,4.63,1.76,4,5.62c-1.57,9.63-4.82,44.04-6.58,60.35"/><path d="M64.11,26.99c0.39,1.01,0.75,2.38,0.59,3.44C62.75,43,59,70.25,56,89.89"/><path d="M42.25,55.66c1.27,0.57,3.58,0.65,4.86,0.57c15.55-0.98,29.92-3.12,45.72-3.37c2.11-0.03,3.38,0.27,4.43,0.55"/><path d="M40.75,90.27c1.19,0.63,3.38,1.28,4.58,1.15c16.42-1.67,30.85-2.46,45.74-2.74c1.99-0.04,3.18,0.3,4.18,0.62"/></svg>