<svg><path d="M16.72,34.5c0.02,4.44-1.94,14.55-3.69,18"/><path d="M30.77,29.33c2.04,2.32,5.28,9.53,5.79,13.13"/><path d="M22.87,13.25c1.09,0.5,1.74,2.25,1.96,3.25c0.22,1,0,73.75-0.22,80"/><path d="M43.21,32.72c0.93,1.09,1.39,1.97,1.62,3.28c0.23,1.31,2.16,19.03,2.39,20.56"/><path d="M45.36,34.77c3.15-0.44,32.45-3.59,36.71-4.25c4.27-0.66,5.01,0.88,4.64,2.87c-0.37,1.99-2.78,17.44-3.15,19.86"/><path d="M35.77,56.92c0.93,0.4,3.31,0.66,4.33,0.56c14.02-1.35,28.73-3.05,51.27-4.58c1.29-0.09,3.12,0.16,6,0.85"/><path d="M63.55,12.5c0,2.05,0.65,2.5,0.67,5c0.55,52.33-1.48,64.25-28.55,79"/><path d="M64.35,56.19C70.9,67.22,82.44,83,90.9,90.89c2.46,2.29,3,2.89,4.01,3.12"/></svg>