<svg><path d="M16,38.25c0,6.61-2.97,16.36-3.75,18.25"/><path d="M31.77,34.58c2.4,2.01,6.19,8.26,6.79,11.38"/><path d="M24.37,13.75c1.06,1.06,1.46,2.5,1.46,3.75c0,0.67,0.04,49.44,0.04,70.5c0,5.63,0,9.28-0.01,9.5"/><path d="M65.46,11.93c0.41,1.32,0.35,2.68-0.15,4.52c-3.81,13.8-11.06,34.43-25.45,49.21"/><path d="M37.5,30.95c3.38,0.68,6.19,0.57,8.77,0.23c10.54-1.38,29.24-4.14,42.48-5.46c2.95-0.29,6.13-0.5,8.99,0.32"/><path d="M53.73,53.14c0.94,0.94,1.13,2.24,1.13,3.46c0,0.52-0.11,15.09-0.11,24.15c0,2.86,0.02,4.61,0,5.62"/><path d="M55.73,55.03c5.27-0.78,23.02-3.53,28-4.33c3.08-0.5,4.39,1.68,4.39,4.08c0,9.6,0.5,17.6-1.32,27.47c-1.05,5.68-4.49,0.05-5.38-1.08"/><path d="M69.49,38.13c0.94,0.94,1.09,2.37,1.09,3.71c0,0.54-0.01,32.9-0.01,49.02c0,4.23-0.05,7.25-0.08,8.13"/></svg>