<svg><path d="M26.25,19.11c1.26,1.26,2.03,2.95,2.29,4.64c1.21,8.13,2.4,17.99,3.26,26.47c0.15,1.45,0.29,2.81,0.42,4.03"/><path d="M28.75,21c18.13-2.25,36-4,48.68-4.52c3.81-0.16,4.75,2.83,4.54,4.23c-0.65,4.39-2.25,17.38-3.9,26.31c-0.28,1.5-0.57,2.9-0.86,4.15"/><path d="M53.32,19.5c0.84,0.84,1.3,2.42,1.29,3.6c-0.07,6.5,0.06,22.72,0.06,24.65"/><path d="M31.5,35.75c10.25-1.12,36.75-3.75,47.35-3.97"/><path d="M33.25,51.25C44.06,49.86,67.5,48,77.33,47.59"/><path d="M23.11,69.79C22.62,76,20.83,83.92,19,88.42"/><path d="M34.35,64.42c5.15,15.83,21.36,30.41,47.26,28.12c8.89-0.79,8.39-2.79,3.2-8.1"/><path d="M55.47,61.5c2.15,4.88,5.87,9.87,7.01,4.47"/><path d="M83,60.75c3.62,2.5,7.75,6.62,10.25,11.72"/></svg>