<svg><path d="M18.22,34.5c0,5.97-4.11,14.79-5.19,16.5"/><path d="M31.02,27.58c2.66,1.57,6.88,6.44,7.54,8.88"/><path d="M25.37,12.25c1.09,0.5,1.74,2.25,1.96,3.25c0.22,1,0,76.25-0.22,82.5"/><path d="M57.21,11.85c0.05,0.78,0.21,2.04-0.1,3.13C55,22.5,48.25,34.75,39.71,44.92"/><path d="M53.65,29.35c0.91,0.69,2.19,0.91,3.65,0.46c1.46-0.46,27.28-2.79,30.9-3.4c2.74-0.46,5.34,1.59,5.33,4.8C93.5,44,89.5,75.25,84.32,92.38c-1.73,5.7-5.82,3.38-8.84-1.14"/><path d="M48.86,48.22c0.29,0.37,0.58,0.68,0.7,1.15c0.99,3.7,1.86,17.98,2.53,24.61"/><path d="M49.96,50.38c6.54-1.13,15.14-2.65,19.12-3.2c1.45-0.2,2.41,0.96,2.12,2.86c-0.77,4.94-1.58,11.17-2.72,19.15"/><path d="M51.92,71.49c4.67-0.62,13.38-1.3,19.79-2.26"/></svg>