<svg><path d="M18.22,35c0.04,4.31-3,14.14-5.69,17.5"/><path d="M32.77,31.33c2.4,2.58,6.19,10.62,6.79,14.63"/><path d="M24.87,12.75c1.09,0.5,1.74,2.25,1.96,3.25c0.22,1,0,73.75-0.22,80"/><path d="M68.35,13.25c0.15,1,0.3,2.24,0,2.83C65.5,21.75,62,26.75,55.44,33.96"/><path d="M49.3,34.24c0.65,1.46,1.32,3.89,1.32,5.83c0,1.94,1.31,42.79,1.31,54.43"/><path d="M51.01,37.1c3.71-0.24,33.29-3.6,36.67-3.99c3.07-0.36,3.52,1.6,3.51,4.66c-0.01,5.23-1.14,38.6-1.84,54.63"/><path d="M51.52,62.56c7.77-0.73,33.08-2.98,38.75-2.98"/><path d="M52.82,92.7c9.3-0.79,26.4-2.64,36.32-3"/></svg>