<svg><path d="M15.12,36.5c0,6.34-3.27,15.69-4.12,17.5"/><path d="M29.75,32.5c2.49,1.85,6.44,7.59,7.06,10.47"/><path d="M23.12,16c0.94,0.94,1.21,2.25,1.21,3.75c0,2.5,0.02,49.3,0.03,68.88c0,3.88,0,6.7,0,7.88"/><path d="M61.82,13c0.08,1.01-0.08,2.68-0.66,4.07C56.75,27.62,47.38,42.75,35,54.85"/><path d="M62.14,17.54c5.11,5.46,17.12,19.01,24.8,26.64c2.3,2.28,4.81,4.19,7.81,5.94"/><path d="M56.66,40.58c4.2,2.18,10.85,8.98,11.9,12.38"/><path d="M40.89,61.87c2.24,1.55,5.11,1.12,7.61,0.77c6.71-0.94,25.48-3.49,32.01-4.4c4.28-0.59,5.76,1.05,2.2,4.86c-6.34,6.78-14.09,15.03-18.29,19.73"/><path d="M50.63,75.15c5.21,2.69,18.68,13.3,21.13,20.35"/></svg>