<svg><path d="M19.22,35.5c0,6.34-4.11,15.69-5.19,17.5"/><path d="M29.77,30.33c3.28,2.41,8.47,9.89,9.29,13.63"/><path d="M25.87,13.25c1.09,0.5,1.74,2.25,1.96,3.25c0.22,1,0,75.25-0.22,81.5"/><path d="M45.05,38.53c0.71,0.11,2.6,0.4,4.47,0.34c10.77-0.36,30.62-3.21,41.69-3.21c1.89,0,2.36-0.11,3.53,0"/><path d="M66.15,13c1.43,0.66,2.58,2.93,2.58,4.28c0,22.97-0.29,38.47-0.29,48.33"/><path d="M50.54,66.39c0.3,0.8,0.65,1.36,0.75,1.97c0.75,4.46,2.41,17.94,3.46,26.39"/><path d="M52.06,67.69c8.39-0.89,28.24-3.17,33.96-3.31c2.37-0.06,3.64,1.26,3.43,2.62c-0.78,5.13-3.3,15.87-4.58,22.68"/><path d="M54.7,92.97c6.94-0.38,24.39-1.65,32.72-2.13"/></svg>