<svg><path d="M18.47,36.75C18.5,41.25,16.4,51.5,14.53,55"/><path d="M33.02,31.08c2.31,2.63,5.97,10.8,6.54,14.88"/><path d="M24.87,13.75c1.09,0.5,1.74,2.25,1.96,3.25c0.22,1,0,73.75-0.22,80"/><path d="M49.81,22.29c0.52,1.27,1.04,1.91,1.04,3.6c0,1.7-0.17,50.05,0,51.75"/><path d="M51.71,24.22c2.92-0.21,25.15-2.71,27.81-2.97c2.22-0.21,3.64,2.35,3.47,3.6c-0.35,2.54-0.68,49.67-0.68,50.95"/><path d="M51.2,47.81c3.95,0,26.46-2.12,30.93-2.12"/><path d="M51.19,75.38c9.04-0.97,22.61-1.9,31.11-2.34"/><path d="M37.3,92.06c1.43,0.45,4.04,0.47,5.46,0.45c12.59-0.22,33.97-2.45,48.69-2.44c2.38,0,3.8,0.21,4.99,0.43"/></svg>