<svg><path d="M17.47,37.75c0,6.25-3.92,15.47-4.94,17.25"/><path d="M34.27,32.08c2.57,2.45,6.65,10.07,7.29,13.88"/><path d="M25.37,14.75c1.09,0.5,1.74,2.25,1.96,3.25c0.22,1,0,74.25-0.22,80.5"/><path d="M66.19,14.17c0.79,1.75,0.38,3.44-0.47,5.2C60.2,30.74,57,38.52,51.16,46.91c-2.48,3.56-0.73,4.62,2.34,3.95c12-2.61,18.25-4.36,35.67-7.7"/><path d="M78.42,30.58c5.59,4.04,14.44,16.6,15.83,22.88"/><path d="M50.12,67.21c0.42,0.42,0.85,0.76,1.04,1.28c1.46,4.11,3.21,20.46,4.21,27.85"/><path d="M52.09,69.93c13.91-1.68,27.53-3.35,34.58-4.17c2.41-0.28,3.83,0.74,3.51,3.11c-0.95,6.97-3.15,14.31-4.77,21.53"/><path d="M55.49,93.24C65.75,92.5,74.75,92.5,87.8,91.7"/></svg>