<svg><path d="M34.23,13.14c0,1.16-0.17,2.28-0.63,3.31c-3.1,7.04-8.76,16.5-17.26,25.22"/><path d="M34.8,21.87c1.3,0.03,2.58-0.11,3.84-0.42c2.39-0.51,5.79-0.93,8.77-1.52c3.57-0.7,4.87,0.3,3.53,3.89C46.59,35.52,29.4,60.56,14.75,66"/><path d="M27.12,34.12c2.38,1.5,6.62,4.88,9,8.75"/><path d="M59.49,19.73c1.91,0.39,3.78,0.38,5.63-0.03c5.52-1,14.02-2.84,17.28-3.67c2.6-0.66,4.36,0.98,3.97,4.04c-0.74,5.68-2.58,12.56-5.61,18.73c-2.21,4.5-4.18,0.54-4.61,0.32"/><path d="M61.24,20.73c0.89,0.9,1.26,2.4,1.23,4.04c-0.09,5.77-0.11,10.73-0.05,17.81c0.09,11.93,1.84,13.13,15.82,13.13c14.52,0,16.41-1.07,16.41-10.39"/><path d="M22.4,76.32c0.29,2.25-2.95,12.17-5.32,15.92"/><path d="M34.08,71.68C44,90.75,55,97,80.06,96.75c13.29-0.13,14.16-3.56,3.07-9.62"/><path d="M52.91,68.75c1.98,4.87,4.85,9.74,6.97,2.28"/><path d="M75.63,66.73c5.31,1.67,9.29,3.19,13.6,8.36"/></svg>