<svg><path d="M16.72,36c0.02,4.31-1.94,14.14-3.69,17.5"/><path d="M31.52,33.08c1.96,2.36,5.05,9.71,5.54,13.38"/><path d="M22.87,13.75c1.09,0.5,1.74,2.25,1.96,3.25c0.22,1,0,75.25-0.22,81.5"/><path d="M41.82,28c1.26,1.17,2.44,1.52,4.05,1.3c1.61-0.22,38.49-4.62,41.71-5.27s3.78,1.83,3.14,3.84c-0.78,2.45-1.4,5.17-2.24,8.7c-0.24,0.99-0.49,2.05-0.77,3.19"/><path d="M45.5,45.75c5.25-0.5,36.98-5,39.09-5s4.22-0.5,5.91-0.5"/><path d="M44.26,43.95c0.5,0.87,0.81,3.74,0.19,5.11c-0.72,1.57-4.16,10.39-4.48,11.26c-0.32,0.87,0.13,3.63,2.57,2.61c1.84-0.77,44.33-5.55,49.5-6.27c2.95-0.41,3.2,1.09,2.92,3.38c-0.59,4.79-3.36,14.7-6.64,19.96c-3.35,5.35-4.25,1.41-6.09-2.44"/><path d="M55.79,14.37c0.76,0.99,1.4,3.47,1.4,6.24c0,8.59,0.11,13.32,0.11,26.15c0,21.74-3.8,39.49-17.35,49.19"/><path d="M70.92,11c1.32,0.61,2.11,2.73,2.38,3.94c0.26,1.21,0,75.73-0.26,83.31"/></svg>