<svg><path d="M17.72,34.5c0.03,4.31-2.47,14.14-4.69,17.5"/><path d="M32.77,32.83c2.22,2.23,5.74,9.17,6.29,12.63"/><path d="M23.87,13.25c1.09,0.5,1.74,2.25,1.96,3.25c0.22,1,0,73.75-0.22,80"/><path d="M44.28,18.06c1.34,0.7,3.95,1.33,5.38,1.19c7.7-0.79,33.14-3.82,36.23-4.1c1.53-0.14,2.66,0.83,2.2,2.85c-0.96,4.25-1.5,6.42-2.67,13.94"/><path d="M47.9,36.78c4.14-0.41,31.49-3.44,40.69-4.45"/><path d="M47.9,19.68c0,3.98-0.07,9.14-0.11,12.87C47.62,52.92,47.25,79,38,92.25"/><path d="M88.69,44.73c0.19,0.38,0.31,1.49-0.18,2.07C85.31,50.58,74.34,61.01,64,64.88"/><path d="M61.4,43.61c0.68,1.15,0.73,1.92,0.95,3.45c0.22,1.53-0.13,31.36-0.13,36.17c0,12.35,9.08,10.42,16.82,10.42C91.42,93.65,94,93.21,94,81.83"/></svg>