<svg><path d="M14.72,36.5c0.02,4.31-1.94,14.14-3.69,17.5"/><path d="M26.77,30.83c2.93,2.23,7.56,9.17,8.29,12.63"/><path d="M21.37,13.25c1.09,0.5,1.74,2.25,1.96,3.25c0.22,1,0,75.25-0.22,81.5"/><path d="M51,11.25c6.26,2.67,11.27,6.33,13.14,10"/><path d="M43.44,32.25c0.02,0.12,1.42,1.12,3.48,0.81c3.8-0.56,11.46-3.56,15.17-3.56c1.96,0,4.37,1.01,4.16,4.25c-0.89,13.75-1.09,49.72-1.09,54.27c0,9.98-2.9,7.98-8.29,3.42"/><path d="M37,53.46c1.27,0.23,2.76,0.91,4.03,0.45c1.27-0.45,9.89-2.85,12-3.75c2.12-0.91,3.92,0.72,3.18,2.72C52,64.25,45,75.75,35.27,82.37"/><path d="M87.24,35.85c0.08,0.4,0.14,1.1-0.16,1.62c-2.82,4.97-9.12,11.57-14.22,14.17"/><path d="M66.41,47.74c6.45,10.95,17.27,25.74,24.48,32.05c1.52,1.33,2.97,2,4.36,2.46"/></svg>