<svg><path d="M39.42,12c0.04,0.51,0.09,1.33-0.08,2.07C38.33,18.42,32.75,27,25.1,33.82"/><path d="M38.95,22.52c0.98,0.39,2.34,0.52,3.9,0.26c1.56-0.26,33.35-4.45,37.25-4.58c3.9-0.13,3.82,2.24,3.6,5c-0.7,8.55-4.2,25.3-11.28,37.42C69.11,66.29,65,61,63.18,58.47"/><path d="M51.33,24.53c0.06,0.59,0.17,1.53-0.11,2.36c-2.74,8.13-9.27,15.88-20.08,22.56"/><path d="M65.81,23.02c0.07,0.85,0.15,2.2-0.14,3.42c-1.73,7.22-11.11,23.05-24.72,32.74"/><path d="M39.95,31.83c9.06,2.8,23.41,11.52,25.68,15.88"/><path d="M25.64,77.82c0.39,2.39-3.92,12.94-7.06,16.92"/><path d="M36.58,70.75c6.92,14,15.67,28,40.14,26.93c12.46-0.54,13.28-3.25,2.88-8.8"/><path d="M57.91,73.75c2.17,5.25,5.32,10.5,7.63,2.46"/><path d="M82.13,68.73c4.53,2.37,7.92,4.53,11.6,11.86"/></svg>