<svg><path d="M52.28,12.06c1.27,1.27,1.34,2.69,1.34,4.62c0,1.44-0.12,3.9-0.12,6.19"/><path d="M19.55,25.56c2.95,0.69,5.65,0.67,8.7,0.41c11.44-0.97,36.68-3.01,50-3.51c2.94-0.11,6.19-0.33,9,0.73"/><path d="M46.35,27.45c0.78,0.93,0.9,1.92,0.68,3.06c-2.15,11-5.53,23.12-16.84,31.18"/><path d="M61.48,25.88c0.82,0.82,0.92,1.83,0.92,3.86c0,11.81,0.08,22.46,0.08,25.77c0,8.23-4.82,1-5.83,0.17"/><path d="M31.76,37.12c0.12,1.08-0.26,2.02-0.87,2.93c-2.78,4.12-7.11,9.23-14.08,14.09"/><path d="M72.91,36.61c5.47,2.32,14.14,9.53,15.5,13.14"/><path d="M24.15,75.15c0.28,2.46-2.81,13.31-5.07,17.4"/><path d="M35.83,70.66C43,85.75,53.75,95,78.03,95.18c11.47,0.09,12.22-3.41,2.65-9.22"/><path d="M55.41,68.75c2.02,4.7,4.72,9.91,6.88,2.71"/><path d="M79.63,64.73c4.72,2.21,8.49,5.64,11.85,10.78"/></svg>