<svg><path d="M17.22,37c0.03,4.31-2.47,14.14-4.69,17.5"/><path d="M32.77,25.83c2.75,1.96,7.1,8.08,7.79,11.13"/><path d="M24.87,11.75c1.09,0.5,1.74,2.25,1.96,3.25c0.22,1,0,77.75-0.22,84"/><path d="M57.24,11.5c0.05,0.8,0.11,2.08-0.1,3.23c-1.23,6.81-8.26,21.75-17.89,30.9"/><path d="M54.69,28.75c0.86,0.75,2.06,1,3.43,0.5c1.37-0.5,27.93-3.25,31.35-3.5c3.43-0.25,4.61,1,4.1,6.25c-0.51,5.25-3.13,44.72-8.96,59.75c-3.11,8-6.61,3.5-9.98-0.75"/><path d="M49.29,43.94c0.71,0.56,1.51,2.18,1.51,3.22c0,1.04,0.92,29.29,1,30.34"/><path d="M50.22,45.57c1.43-0.13,16.48-2.88,17.71-3.33c2.07-0.74,3.32,1.01,3.2,2.72c-0.1,1.57-2.34,31.23-2.34,32.01"/><path d="M52.47,59.23c1.94,0,15.05-1.81,17.24-1.81"/><path d="M52.38,75.06c3.95-0.56,10.91-1.06,15.82-1.54"/></svg>