<svg><path d="M15.72,36c0.03,4.31-2.47,14.14-4.69,17.5"/><path d="M29.27,30.33c2.22,1.96,5.74,8.08,6.29,11.13"/><path d="M21.37,13.75c1.09,0.5,1.74,2.25,1.96,3.25c0.22,1,0,72.25-0.22,78.5"/><path d="M62.25,14.37c1.25,0.63,1.91,2.85,1.97,4.49c0.31,7.9-0.2,25.57-0.2,28.26"/><path d="M42.94,26.83c3.27,2.32,8.44,9.53,9.26,13.13"/><path d="M84.17,23.25c0.03,0.38,0.06,0.97-0.06,1.51c-0.73,3.19-4.9,10.18-10.62,14.46"/><path d="M37.38,48.98c1.09,0.54,3.09,0.59,4.18,0.54C53.25,49,76,45.25,91.43,45.29c1.82,0,2.91,0.26,3.82,0.53"/><path d="M55.84,52.5c0.06,0.98,0.17,2.55-0.12,3.95c-2.43,11.88-7.22,29.8-21.21,37.8"/><path d="M69.82,49.87c0.52,1.19,0.94,2.59,0.97,4.43c0.09,5.5-0.33,19.39-0.33,27.19c0,12.01,2.54,12.54,12.75,12.54c10.04,0,11.68-0.78,11.68-12.62"/></svg>