<svg><path d="M17.47,34.75c0.02,4.01-1.81,13.13-3.44,16.25"/><path d="M28.77,30.33c2.93,2.23,7.56,9.17,8.29,12.63"/><path d="M23.37,14.25c1.09,0.5,1.74,2.25,1.96,3.25c0.22,1,0,71.75-0.22,78"/><path d="M40.41,22.22c0.98,0.28,2.78,0.33,3.77,0.28c9.49-0.5,34.66-4.16,44-4.16c1.64,0,2.62,0.13,3.44,0.27"/><path d="M55.22,24.65c0.73,1.41,0.75,4.12,0.37,6.33c-1.83,10.56-9.82,35.07-12.1,43.14"/><path d="M53.45,39.94c6.16-1.18,22.39-3.13,24.52-3.38c2.57-0.3,2.99,1.81,2.4,3.91c-2.17,7.79-4.65,22.52-8.99,49.67"/><path d="M57.92,48.66c3.27,1.48,8.45,6.08,9.27,8.39"/><path d="M54.76,67.06c3.22,1.66,8.33,6.81,9.14,9.38"/><path d="M33.75,92.1c1.2,0.69,3.41,0.75,4.61,0.69C51.1,92.15,79.67,89.03,92.29,90c2,0.15,3.21,0.33,4.21,0.67"/></svg>