<svg><path d="M17.72,38.5c0.03,4.31-2.47,14.14-4.69,17.5"/><path d="M30.27,29.83c2.75,2.14,7.1,8.8,7.79,12.13"/><path d="M24.87,12.25c1.09,0.5,1.74,2.25,1.96,3.25c0.22,1,0,73.75-0.22,80"/><path d="M47.64,27.63c1.86,0.37,3.77,0.73,4.5,0.64c5.91-0.74,30.56-4.05,33.83-4.32c2.13-0.18,2.72,0.8,2.61,2.05c-0.31,3.29-5.16,16.39-7.71,19.46c-2.11,2.54-4.36,1.04-5.69-0.27"/><path d="M68.05,12.93c0.06,0.91,0.15,2.36-0.12,3.66C65.38,28.76,59.58,42,46.43,51.62"/><path d="M38.73,67.79c0.65,0.35,1.96,0.25,2.54,0.19c6.4-0.72,16.65-2.57,19.22-2.93c1.67-0.23,2.14,1.05,2.04,2.69c-0.25,4.33-3.98,19.99-6.57,22.93c-2.42,2.74-3.78,0.16-4.46-0.35"/><path d="M50.97,56.18c0.04,0.88,0.1,2.27-0.08,3.53c-1.33,9.32-5.42,24.21-14.14,33.81"/><path d="M70.16,65.94c0.68,0.41,2.47,0.32,3.07,0.22c5.61-0.91,15.39-2.69,18.06-3.11c1.74-0.27,3.22,1.23,3.12,3.16c-0.25,5.07-5.68,23.29-8.37,26.74c-2.51,3.22-3.93,0.19-4.63-0.41"/><path d="M81.88,55.93c0.05,0.95,0.13,2.46-0.11,3.82c-1.75,10.07-7.15,26.16-18.63,36.52"/></svg>