<svg><path d="M15.72,32.5c0.03,4.31-2.21,14.14-4.19,17.5"/><path d="M28.27,29.58c2.4,1.74,6.19,7.17,6.79,9.88"/><path d="M22.87,13.75c1.09,0.5,1.74,2.25,1.96,3.25c0.22,1,0,73.75-0.22,80"/><path d="M53.33,14c0.05,0.8,0.27,2.13-0.1,3.23c-2.58,7.65-6.4,18.76-17.69,30.9"/><path d="M51.35,30.03c1.18,0.72,2.78,0.66,4.71,0.48c5.44-0.51,27.56-3.09,32.28-3.33c4.71-0.24,5.2,2.37,4.95,7.49C93,40.5,91.25,71,86.59,90.84c-1.19,5.04-4.76,1.81-7.54-1.21"/><path d="M67.32,38.43c0.29,0.9,0.71,1.64,0.14,3.19c-4.96,13.63-10.21,24.63-17.94,33.5"/><path d="M51.33,49.5c6.3,4.45,12.98,12.18,16.58,20.94"/><path d="M43.57,50.9c0.36,0.22,0.89,2.48,0.81,2.92c-0.79,4.31-2.28,20.54-2.62,27.63c-0.06,1.33,0.82,1.87,1.51,1.67c8.8-2.6,29.03-4.94,32.8-5.16"/><path d="M76.14,46.84c0.36,0.22,1.13,1.65,1.21,2.1C77.42,49.38,77,69,75.63,81.39"/></svg>