<svg><path d="M34.6,13.12c0.65,1.27,0.38,2.83,0.11,4.15c-1.22,5.86-5.51,21.95-9.03,28.58c-1.04,1.96-1.32,2.75,1.07,3.11c6,0.91,12.29,2.8,17.64,5.86c2.2,1.26,4.24,2.72,6.03,4.39"/><path d="M45.88,26.62c0.2,0.99,0.51,2.67,0.25,3.96c-2.12,10.38-8,26.42-23.8,33.67"/><path d="M12.98,34.99c0.67,1.25,1.86,1.53,3.63,1.08c4.36-1.1,21.52-5.8,32.54-8.95"/><path d="M58.83,30.67c0.81,0.81,1.23,1.83,1.34,2.97c0.89,3.87,1.8,9.9,2.68,15.36c0.32,1.98,0.63,3.89,0.94,5.6"/><path d="M60.6,31.79c9.65-1.42,18.56-3.04,23.39-3.75c2.86-0.42,4.71,0.87,4.09,3.82c-1.09,5.16-2.33,10.01-4.05,18.4"/><path d="M64.72,52.88c5.75-0.43,9.92-0.95,16.29-1.37c1.51-0.1,3.12-0.19,4.87-0.28"/><path d="M20.75,76.28c-0.25,4.22-2.33,12.58-4.4,16.76"/><path d="M33.38,72.53C42,86,50.86,95.1,76.99,95.25c12.6,0.07,13.43-4.22,2.91-9.72"/><path d="M55.76,68.93c2.17,5.57,4.24,8.82,6.63,3.11"/><path d="M80.94,66.91c5.08,2.27,10.56,5.84,14.27,11.63"/></svg>