<svg><path d="M29.18,22.6c1.12,0.4,3.17,0.5,4.28,0.4c14.36-1.35,27.18-3.62,41.63-3.97c1.86-0.04,2.98,0.19,3.91,0.39"/><path d="M52.66,9.62c0.09,0.22,1.35,1.16,1.35,2.57c0,9.12,0.11,11.4,0.11,23.46"/><path d="M22.42,37.69c1.43,0.57,4.05,0.69,5.47,0.57c17.66-1.59,37.87-3.15,53.66-3.9c2.38-0.11,3.8,0.27,4.99,0.55"/><path d="M29.55,53.2c0.93,0.36,2.63,0.46,3.56,0.36c11.93-1.23,31.4-3.83,43.41-4.15c1.55-0.04,2.48,0.17,3.25,0.35"/><path d="M52.78,39.9c0.09,0.22,1.35,1.16,1.35,2.58c0,9.12,0.11,18.78,0.11,22.48"/><path d="M21.27,67.26c1.63,0.68,4.64,0.83,6.27,0.68c20.25-1.9,37.85-3.78,55.96-4.67c2.72-0.13,4.36,0.32,5.73,0.66"/><path d="M25.14,81.07c0.47,2.21-4.75,11.98-8.56,15.67"/><path d="M34.58,74.75c6.07,13.13,15.67,24.52,39.09,24.68c11.3,0.08,12.04-3.5,2.61-9.47"/><path d="M54.41,74.75c2.17,5.25,5.32,10.5,7.63,2.46"/><path d="M80.88,74.73c4.63,2.07,8.09,3.96,11.85,10.36"/></svg>