<svg><path d="M15.72,33.75c0.02,4.38-1.94,14.35-3.69,17.75"/><path d="M29.27,32.33c2.22,2.23,5.74,9.17,6.29,12.63"/><path d="M21.37,12.25c1.09,0.5,1.74,2.25,1.96,3.25c0.22,1,0,74.75-0.22,81"/><path d="M67.42,14.58c0.05,0.5,0.21,1.35-0.1,2.02c-2.2,4.78-8.46,13.54-17.15,19.3"/><path d="M41.48,34.95c0.75,0.55,1.25,1.8,1.37,2.51c0.92,5.6,2.8,38.27,3.43,48.33"/><path d="M43.69,37.47c9.77-1.16,40.73-3.65,44.27-3.69c3.04-0.03,4.54,0.72,4.38,3.04c-0.22,3.25-4.92,42.96-6.05,47.34"/><path d="M57.21,37.9c0.23,0.53,1.03,1.47,1.06,2.14c0.48,10.62,0.96,35.78,1.5,45.27"/><path d="M72.86,36.88c0.02,0.46,1.03,2.09,1.03,2.87c0.02,8.8-1.99,33.69-2.17,44.17"/><path d="M32.88,86.46c1.09,0.38,3.08,0.44,4.16,0.38c11.29-0.63,38.25-2.15,59.04-2.25c1.81-0.01,2.89,0.18,3.8,0.37"/></svg>