<svg><path d="M26.43,28c2.29,0.67,5.23,0.35,7.57,0.06c8.77-1.07,28.93-3.27,39.25-3.94c2.41-0.16,4.85-0.29,7.24,0.13"/><path d="M38.45,14.98c1.43,0.77,1.94,1.96,2,3.24c0.3,6.28,1.28,19.58,1.76,26"/><path d="M67.18,12.75c0.82,1,0.97,2.27,0.65,4.03C66,26.88,65,32.62,63.31,42.61"/><path d="M15.25,47.41c3.21,0.92,6.74,0.34,9.99,0.03c13.44-1.28,45.33-4.91,59.26-5.8c2.96-0.19,5.82-0.27,8.75,0.23"/><path d="M39.47,49.59c0.1,0.81-0.38,2.34-0.91,2.93c-4.8,5.35-13.98,13.92-25.73,21.31"/><path d="M57.25,45c4.62,4.25,17.02,14.26,25.08,20.54c2.83,2.21,5.54,3.83,9.17,5.21"/><path d="M45.49,57.83c1.03,1.03,1.32,2.54,1.32,4.5c0,6.29,0.02,23.71,0.02,28.15c0,9.31-5.71,1.34-7.05,0.22"/><path d="M30.38,75.62c0,5.29-5.85,13.11-7.38,14.62"/><path d="M59,71.75c2.32,3.08,5.98,12.67,6.56,17.47"/><path d="M72.12,71.38c3.24,2.79,8.37,11.49,9.18,15.84"/></svg>