<svg><path d="M9.69,24.26c2.2,0.9,4.83,0.28,7.08,0.01C24.63,23.32,33.28,22.1,44,20.9c2.44-0.27,4.6-0.59,7,0"/><path d="M19.68,27.47c0.93,0.93,1.28,2.19,1.28,3.5c0,1.3-0.08,36.85-0.08,41.54"/><path d="M22.05,39.74c4.2-0.61,14.07-2.11,18.33-2.41"/><path d="M21.99,54.96c7.51-1.25,9.01-1.77,18.17-2.65"/><path d="M11,76.57c0.88,1.06,2.38,1.06,4.12,0.25c3.34-1.55,17.01-8.44,23.76-11.72"/><path d="M40,24.8c1,1.17,1.1,2.63,1.1,3.93c0,0.87-0.06,40.57-0.08,57.64c-0.01,4.38-0.01,7.27-0.01,7.62"/><path d="M50.86,53.25c0.14,5.12-1.33,17.78-2.4,23.25"/><path d="M56.81,46.25C62.75,69.12,73,81.5,88.61,82.7c10.93,0.84,10.39-2.45,3.07-8.37"/><path d="M68.72,45.5c2.4,4.88,6.15,9.66,7.08,4.9"/><path d="M87.25,43.75c2.93,2.3,5.5,5.62,7.5,11.5"/></svg>