<svg><path d="M16.22,35.5c0.03,4.31-2.47,14.14-4.69,17.5"/><path d="M33.02,29.33c2.49,2.05,6.42,8.44,7.04,11.63"/><path d="M23.87,13.75c1.09,0.5,1.74,2.25,1.96,3.25c0.22,1,0,73.75-0.22,80"/><path d="M82.25,14.75c0.1,0.45-0.76,2.87-1.32,3.36C76.67,21.85,65.87,28.04,47,33.25"/><path d="M40.83,50.21c1.08,0.3,3.79,0.37,4.88,0.3c9.35-0.65,35.73-4.55,48.67-4.73c1.81-0.02,2.89,0.14,3.8,0.29"/><path d="M66.92,30.5c0.55,0.38,1.72,2.87,1.83,3.64c0.21,1.43-0.07,30.06-0.18,35"/><path d="M48.5,69.58c0.51,0.41,1.63,1.73,1.76,2.27c1.39,5.9,3.45,15.4,3.98,24.15"/><path d="M51.25,72.06c12.01-1.33,28.96-3.38,35.72-3.93c2.47-0.2,3.18,2.02,2.83,3.2c-1.46,4.85-3.29,12.42-5.5,19.92"/><path d="M54.49,93.82c7.94-0.62,21.64-1.18,32.54-2.13"/></svg>