<svg><path d="M30.79,16.2c0.69,0.69,1.27,1.88,1.28,2.93c0.08,6.81,0.05,22.51,0.04,36.49c0,2.18,0,4.32,0,6.38"/><path d="M33.19,17.99c11.32-0.83,31.67-3.25,41.57-3.67c3.5-0.15,4.93,0.94,4.93,4.06c0,8.25-0.48,22.68-0.55,36c-0.01,1.95-0.02,3.88-0.02,5.75"/><path d="M39,33.61c1.27,0.24,2.61,0.03,3.88-0.05c6.99-0.44,16.75-2.25,24.12-2.88c1.62-0.14,3.21-0.18,4.84-0.18"/><path d="M54.78,21.19c0.64,0.64,0.77,1.96,0.66,2.92c-1.19,11.01-5.94,22.64-15.12,30.27"/><path d="M55.73,38.53c5.18,2.62,10.77,6.97,14.59,12.18"/><path d="M33.26,59.35c13.62-0.98,32.43-2.41,44.86-2.64"/><path d="M23.25,75.5c0.35,2.12-3.47,11.49-6.25,15.03"/><path d="M31.94,70.1c7.31,13.4,14.81,25.52,45.81,25.4c9.38-0.04,9.62-3.12,3.5-7.5"/><path d="M54.15,68.82c2.6,5.18,6.25,7.96,7.42,3.18"/><path d="M83.96,68.51C87.5,71.5,91.25,76,94.75,81.97"/></svg>