<svg><path d="M54.25,10c0.13,0.85-0.12,1.71-0.56,2.63c-2,4.16-4.68,7.36-9.66,12.04"/><path d="M36.65,25.89c0.98,0.98,1.15,2.28,1.15,3.5c0,2.28,0,25.17,0,34.74c0,1.9,0,3.28,0,3.86"/><path d="M38.99,27.9c9.13-1.77,22.51-3.6,28.25-4.47c3.26-0.49,5.43,0.68,5.35,4.19c-0.1,4.7-0.12,23.31-0.12,32.75c0,1.93,0,3.47,0,4.42"/><path d="M38.69,40.23c10.56-1.73,22.56-3.6,32.67-4.66"/><path d="M38.95,52.79c9.8-1.67,21.05-3.29,32.27-4.52"/><path d="M39.01,65.04c8.49-1.17,22.87-3.17,32.02-4"/><path d="M23.99,80.4c-0.24,4.1-4.69,11.45-8.24,14.89"/><path d="M32.25,78.2C43.5,93.25,54.75,99.75,84,98.63c7.77-0.3,8.75-2.76-0.25-8.63"/><path d="M53.5,73.5c3.38,5.88,6.25,8.99,7.5,5.07"/><path d="M83.75,71.12c5.62,3.63,8.62,7.63,9.75,10.74"/></svg>