<svg><path d="M17.22,36.5c0.03,4.31-2.47,14.14-4.69,17.5"/><path d="M34.77,34.33c2.22,2.23,5.74,9.17,6.29,12.63"/><path d="M24.37,14.75c1.09,0.5,1.74,2.25,1.96,3.25c0.22,1,0,72.75-0.22,79"/><path d="M52.71,14.73c0.37,0.31,0.75,0.57,0.91,0.95c1.28,3.06,2.82,12.02,3.7,17.52"/><path d="M55.02,16.79C65,15,81.16,13.31,85.83,12.88c1.71-0.16,2.74,1.6,2.49,2.53c-1.01,3.86-2.17,8.19-4.34,13.75"/><path d="M57.69,31.69c5.49-0.49,19.4-1.69,28.09-2.05"/><path d="M52.26,42.1c0.68,0.85,1.13,1.69,1.36,2.54c0.23,0.85,0.23,38.87,0.23,49.75"/><path d="M54.47,44.44c2.72-0.21,28.22-2.71,30.24-2.95c3.63-0.42,4.99,2.75,4.53,4.02c-0.44,1.22-0.12,25.43-0.12,42.56c0,11-5.44,3.81-7.7,1.9"/><path d="M54.47,57.18c11.01-1.22,26.09-1.63,34.25-2.26"/><path d="M53.98,71.23c7.25-0.63,26.47-2.01,34.85-2.44"/></svg>