<svg><path d="M16.22,34.5c0.03,4.31-2.47,14.14-4.69,17.5"/><path d="M30.52,32.33c1.78,2.41,4.6,9.89,5.04,13.63"/><path d="M21.87,14.25c1.09,0.5,1.74,2.25,1.96,3.25c0.22,1,0,71.75-0.22,78"/><path d="M41,19.46c0.55,1.38,1.35,2.41,1.37,4.23c0.1,13.71,0.1,46.13-0.23,72.31"/><path d="M42.56,21.7C56,20,79.82,18.42,88.67,17.75c3.33-0.25,4.61,0.89,4.58,3.78c-0.18,15.13-0.74,52.19-0.37,73.57"/><path d="M50.31,43.83c0.97,0.41,2.06,0.47,3.18,0.41c6.04-0.33,18.76-1.99,28.1-2.31c1.11-0.04,1.52-0.11,2.35,0"/><path d="M65.11,26.92c0.69,0.36,1.1,1.62,1.24,2.34c0.14,0.72,0,51.41-0.14,55.92"/><path d="M66.39,43.67C63.46,54.08,55.6,70,49.51,75.9"/><path d="M66.04,43.73C69,49.5,78.5,66.25,82.91,70.93c1.09,1.16,1.7,1.85,2.62,2.22"/><path d="M42.34,92.13c14.91-0.38,36.77-1.02,50.05-1.41"/></svg>