<svg><path d="M16.22,35.25c0.02,4.38-1.94,14.35-3.69,17.75"/><path d="M28.02,29.33c2.84,1.96,7.33,8.08,8.04,11.13"/><path d="M23.37,12.25c1.09,0.5,1.74,2.25,1.96,3.25c0.22,1,0,75.25-0.22,81.5"/><path d="M66.49,12.5c0.12,0.38,1.67,1.95,1.67,4.34c0,8.16,0.09,21.01,0.09,24.91"/><path d="M55.21,24.6c0.03,0.4,0.07,1.02-0.07,1.59c-0.86,3.35-6.04,10.63-10.75,14.33"/><path d="M80.56,23.83c5.5,2.82,12.45,9.61,13.82,13.99"/><path d="M50.86,41.98c0.66,0.94,1.1,1.88,1.32,2.82c0.22,0.94,0.31,48.65,0.22,50.76"/><path d="M52.49,44.92c2.64-0.23,27.38-2.73,29.34-2.99c3.52-0.47,4.39,2.98,4.39,4.46c0,10.12-0.16,25.77-0.16,44.78c0,11.4-5.93,2.61-7.91,0.97"/><path d="M52.99,58.41c10.76-0.91,25.22-1.61,33.13-2.32"/><path d="M52.83,72.77c7.03-0.7,24.79-1.85,32.91-2.32"/></svg>