<svg><path d="M17.25,39.25c0,6.61-2.97,16.36-3.75,18.25"/><path d="M30.52,32.33c3.98,2.92,6.73,5.67,8.29,9.63"/><path d="M25.47,14.75c1.27,1.27,1.5,2.75,1.5,4.73c0,4.71,0,48.13,0,68.89c0,4.67,0,8.2,0,9.88"/><path d="M49.91,14.25c2.53,1.85,6.55,7.59,7.18,10.47"/><path d="M81.1,10.5c0.12,1.33-0.15,2.27-0.78,3.41c-2.29,4.18-4.09,6.89-8.22,11.59"/><path d="M43.43,30.29c2.7,1.08,5.03,0.98,7.21,0.76c7.69-0.78,23.99-3.17,33.77-4.04c3.26-0.29,5.14-0.05,4.07,3.76c-0.83,2.99-1.73,7.35-2.57,10.54"/><path d="M46.5,45.25c1.48,0.42,2.75,0.58,5.88,0.33c10.17-0.83,30.07-2.83,31.26-2.83c1.56,0,3.23-0.25,4.61,0"/><path d="M48.23,46.42c0.8,0.8,0.76,1.95,0.18,3.21c-0.66,1.44-4.27,7.29-4.64,8.09c-1.29,2.78-0.94,4.69,0.95,4.38c1.8-0.29,35.29-4.36,46.34-5.37c4.78-0.44,3.6,4.24,3.26,5.67c-0.65,2.74-2.91,11.27-5.74,15.79c-4.57,7.31-5.82,1.44-6.66-0.23"/><path d="M65.62,31.66c0.92,0.92,1.16,1.94,1.21,3.39c0.04,1.17,0.04,36.85,0.03,54.83c0,4.28,0,7.56,0,9.12"/><path d="M65.18,60.75c0,1.29-0.53,2.62-1.23,3.66C59,71.75,51.38,80.75,37.5,88.75"/></svg>