<svg><path d="M16.22,41c0.02,4.31-1.68,14.14-3.19,17.5"/><path d="M28.77,31.33c2.57,1.88,6.65,7.71,7.29,10.63"/><path d="M23.87,12.75c1.09,0.5,1.74,2.25,1.96,3.25c0.22,1,0,74.75-0.22,81"/><path d="M59.75,10.65c0.04,0.48,0.09,1.23-0.09,1.91c-1.07,4.03-7.16,16.69-16.06,24.28"/><path d="M57.16,19.73c5.59-0.48,18.62-2.78,20.67-3.05c1.76-0.23,2.3,2.45,1.57,3.59c-3.09,4.77-5.43,9.83-10.31,17.47"/><path d="M48.23,40.08c0.39,0.51,0.79,0.93,0.96,1.56c1.35,5.02,2.29,11.11,3.22,20.13"/><path d="M49.17,41.3c9.83-1.05,35.61-2.95,40.54-3.66c1.81-0.26,3.39,1.62,3.13,3.15c-1.07,6.32-2.09,11.46-3.85,17.65"/><path d="M53.18,59.61c3.87-0.54,30.68-2.07,34.94-2.34"/><path d="M68.77,42.66c0.48,1.09,0.66,2.76,0.32,4.59C66.5,61,56.75,87.75,38.92,97.42"/><path d="M71.33,64.15c0.92,0.6,1.35,2.32,1.38,3.96c0.13,7.33-0.34,12.66-0.34,17.64c0,11.64,5.67,10.77,11.25,10.77c5.89,0,9.76-1.5,10.59-2.35c1.75-1.79,1.27-2.69,1.43-5.82"/></svg>