<svg><path d="M14.97,35.5c0.02,4.31-1.81,14.14-3.44,17.5"/><path d="M29.27,33.83c1.87,2.14,4.83,8.8,5.29,12.13"/><path d="M21.37,13.75c1.09,0.5,1.74,2.25,1.96,3.25c0.22,1,0,71.75-0.22,78"/><path d="M42.47,27.66c0.99,0.3,2.79,0.35,3.78,0.3c8.3-0.41,30.39-2.57,39.28-2.86c1.64-0.05,2.63,0.14,3.45,0.3"/><path d="M42.24,38.45c0.25,0.32,0.5,0.59,0.61,0.99c0.86,3.2,2.69,14.01,3.28,19.75"/><path d="M43.78,40.19c11.47-1.44,37.48-3.53,40.38-3.85c1.8-0.2,3.44,1.57,2.96,3.42c-1.28,4.96-2.58,11.15-3.59,14.95"/><path d="M46.25,57.31c7.14-1.21,32.97-1.54,39.65-2.14"/><path d="M62.25,12.75c1.25,0.5,2,2.25,2.25,3.25s0,73.25-0.25,79.5"/><path d="M64.25,55.5C58.96,66.8,44.87,82.61,33.86,89"/><path d="M64.99,57.6c4.76,6.9,16.51,19.9,26.1,26.58c1.63,1.14,2.8,1.85,4.3,2.22"/></svg>