<svg><path d="M18.25,39.5c0,6.61-2.97,16.36-3.75,18.25"/><path d="M32.52,37.83c2.49,1.44,6.42,5.9,7.04,8.13"/><path d="M27.12,15.5c1.06,1.06,1.46,3,1.46,4.75c0,6.92,0.02,50.67,0.03,68.38c0,3.41,0,5.85,0,6.88"/><path d="M60.39,14.25c0.07,1.07-0.08,2.27-0.5,3.29C57.12,24.38,51.88,34.5,45,42"/><path d="M57.08,29.93c0.91,0.18,3.56,0.03,4.45-0.07c4.66-0.55,17.24-2.53,24.36-3.73c1.88-0.32,3.3-0.36,5.16-0.14"/><path d="M55.91,41.44c0.47,1.68,0.27,2.9-0.34,4.86C52.5,56,50.25,63,45.75,72.4c-1.32,2.75-0.19,3.76,1.59,3.93C58.5,77.38,65,78.25,76.09,81.21c5.41,1.44,10.69,3.91,16.02,6.97"/><path d="M57.08,43.97c5.67-0.72,19.29-2.59,24.31-3.3c3.31-0.46,5.49,1.25,5.19,3.89C85,58.75,80.96,77.94,76.83,88.79c-2.99,7.84-5.04,7.93-8.85,3.8"/><path d="M70.51,45.46c0.49,1.17,0.4,2.29,0.09,3.33c-3.23,10.72-5.35,16.84-8.9,27.51"/><path d="M37.73,61.88c2.27,0.5,5.03,0.47,7.03,0.3c11.87-1.05,32.74-2.8,48.24-3.26c2.11-0.06,4.48,0.07,6.53,0.67"/></svg>