<svg><path d="M19.25,40.25c0,6.61-3.37,16.36-4.25,18.25"/><path d="M35.02,33.33c2.4,1.61,6.19,6.63,6.79,9.13"/><path d="M28.62,15c1,1,1.21,2.5,1.21,3.75c0,0.87-0.08,59.75-0.08,69.38c0,3.4,0.03,5.93,0,6.88"/><path d="M50.06,18.83c2.58,2.14,6.65,8.8,7.3,12.13"/><path d="M78.02,13.64c0.09,1.04-0.03,2.05-0.36,3.03c-1.78,3.95-4.66,9.27-8.91,15.05"/><path d="M48.24,37.58c0.62,1,0.95,2.1,1.01,3.28c0.56,3.33,1.3,8.74,1.93,13.62c0.15,1.19,0.31,2.34,0.47,3.43"/><path d="M49.87,38.99c8.97-1.19,19.43-2.61,27.26-3.4c2.76-0.28,4.7,0.96,4.06,3.92c-0.88,4.09-2.03,8.29-3.17,13.57"/><path d="M52.56,56.36c4.79-0.31,15.14-1.4,22.96-2.23c1.33-0.14,3.59-0.26,4.72-0.35"/><path d="M60.28,59c0.06,0.78,0.12,2.02-0.11,3.15c-1.36,6.63-8.64,22.15-19.86,30.11"/><path d="M69.56,57.6c0.86,0.86,1.2,2.27,1.2,3.6c0,4.95,0,12.29,0,18.42c0,9.83,1.5,10.67,11.45,10.67c11.17,0,12.05-0.63,12.05-8.66"/></svg>