<svg><path d="M27.02,20.14c1.67,0.22,4.72,0.36,6.38,0.17C45.38,19,61.62,17,74.43,16.12c2.76-0.19,4.44,0.07,5.82,0.18"/><path d="M27.44,34.62c1.06,0.51,1.86,1.44,2.06,2.2c1.12,4.18,1.51,7.44,2.3,11.64c0.2,1.07,0.39,2.05,0.55,2.88"/><path d="M30.5,35.72c13.08-1.76,42.28-5.05,46.21-5.05c2.67,0,4.17,1.45,3.54,4.58c-0.61,3.03-1.06,4.82-1.95,9.01c-0.17,0.81-0.36,1.72-0.57,2.73"/><path d="M33.37,49.41c11-1.28,28.75-3.16,43.96-4.13"/><path d="M43.52,21.44c0.83,0.83,1.48,2.06,1.51,3.07c0.15,5.51,1.4,32.37,1.22,36.74"/><path d="M62,19.31c0.84,0.84,1.03,2.06,1,2.94c-0.25,6-1.71,33.68-1.87,37.74"/><path d="M23,64.05c2.08,0.33,4.38,0.36,8,0.01C47,62.5,66.62,60,80.25,59.7c3.47-0.08,5.5,0.05,7.55,0.5"/><path d="M24,77c0.29,2.19-2.91,11.85-5.25,15.5"/><path d="M35,70.5c8.75,14.45,19.5,25.75,47.3,24.35c9.58-0.48,8.45-3.6-0.55-8.85"/><path d="M55.49,69.75c1.82,3.17,6.58,9.74,7.72,5.27"/><path d="M82.5,68.5c4,2.2,8.88,6.5,12,12"/></svg>