<svg><path d="M16.89,15.79c0.73,0.46,1.93,2.21,1.93,4.4c0,0.94-0.09,69.14-0.24,74.94"/><path d="M19.02,18.08c2.44-0.1,18.77-3.66,20.99-3.78c1.85-0.1,2.81,0.91,2.9,1.71c0.14,1.23-1.04,23.82-1.04,24.42"/><path d="M19.45,28.89c5.99-0.59,17.12-2.12,22.88-2.76"/><path d="M19.02,40.98c8.11-1.15,14.89-2.03,22.06-2.56"/><path d="M64.44,13.51c0.44,0.55,0.88,1.74,0.88,2.48c0,0.74-0.29,20.31-0.29,20.67s0.14,0.37,0.29,1.11"/><path d="M66.05,15.66c2.49-0.11,21.21-2.79,23.49-2.92c1.9-0.11,2.98,1.15,2.97,1.8c-0.49,19.46-0.5,60.79-0.5,74.9c0,9.56-6.01,3.56-8.4,0.36"/><path d="M66.49,25.22c3.38,0,20.59-2.24,24.4-2.24"/><path d="M66.05,36.26c4.99,0,18.09-1.56,24.55-1.56"/><path d="M32.95,62.21c0.19,2-1.88,10.82-3.38,14.16"/><path d="M40.56,57.39c4.62,12.52,11.92,23.39,29.73,23.54c8.59,0.08,9.15-3.34,1.99-9.04"/><path d="M52.66,53.25c1.9,5.18,4.68,10.36,6.71,2.43"/><path d="M71.86,52.48c3.46,1.81,6.06,3.45,8.88,9.04"/></svg>