<svg><path d="M16.22,37c0.03,4.31-2.47,14.14-4.69,17.5"/><path d="M31.77,31.83c2.22,2.05,5.74,8.44,6.29,11.63"/><path d="M23.37,14.25c1.09,0.5,1.74,2.25,1.96,3.25c0.22,1,0,73.75-0.22,80"/><path d="M63.14,11c0.49,0.47,1.3,2.26,1.3,3.19c0,3.41-0.16,5.69-0.06,8.57"/><path d="M40.96,23.91c1.79,0.34,3.85,0.92,4.99,0.83C56,24,73.25,22,85.14,21.08c1.93-0.15,2.92,0.03,4.36,0.43"/><path d="M52.61,30.99c0,0.59,0.04,1.07-0.12,1.78c-0.83,3.71-8.72,16.11-15.48,21.6"/><path d="M50.8,41.21c3.16,1.42,7.19,5.2,8.73,8.79"/><path d="M77.85,28.99c0,0.59,0.04,1.07-0.11,1.78c-0.74,3.71-7.77,16.11-13.78,21.6"/><path d="M75.61,40.71c4.45,1.87,10.12,6.83,12.29,11.54"/><path d="M35.5,68.51c2,0.74,4.07,0.96,5.5,0.86c18.24-1.19,37.14-3.54,49.73-3.69c2.39-0.03,4.32,0.67,5.52,0.86"/><path d="M62.14,58c0.67,0.56,2.08,4.19,2.21,5.3c0.13,1.12-0.09,28.21-0.22,35.2"/></svg>