<svg><path d="M16.73,38c-0.61,7-2.98,14.5-4.72,17.25"/><path d="M32.02,31.58c2.49,1.79,6.42,7.35,7.04,10.13"/><path d="M24.62,14.25c1.13,1.13,1.21,2.38,1.21,3.75c0,0.86,0.02,47.66,0.03,69.12c0,4.18,0,7.39,0,9.12"/><path d="M65.05,8.75c1.23,1.23,1.43,2.38,1.43,4.15c0,1.35-0.11,4.1-0.11,5.97"/><path d="M43.13,21.33c3,0.54,5.73,0.37,8.87,0.03c8.94-0.97,22.68-2.52,33.64-3.2c2.49-0.15,5.5-0.26,7.87,0.62"/><path d="M50.98,29.65c0.73,0.46,1.16,1.13,1.29,2c0.69,3.08,1.26,5.93,1.78,8.71c0.21,1.14,0.42,2.28,0.62,3.41"/><path d="M52.58,30.77c7.15-0.91,19.49-2.19,25.42-2.75c2.91-0.27,5.04-0.07,4.09,3.38c-0.63,2.29-1.34,4.1-2.71,7.83"/><path d="M55.51,42.11c3.84-0.33,14.02-1.21,21.12-1.76c1.84-0.14,3.48-0.27,4.74-0.35"/><path d="M48.36,51.18c2.42,0.76,4.75,1.03,7.26,0.69c5.69-0.78,18.71-2.27,23.26-2.71c2.67-0.26,3.97,1.22,1.16,3.15c-5.17,3.57-9.05,5.95-16.17,10.45"/><path d="M62.88,62.62C70.5,66.12,74.12,82,70,95.22c-2.3,7.37-5.92,1.52-7.32,0.01"/><path d="M38.89,71.8c3.24,0.95,6.62,0.6,9.49,0.26c10.66-1.26,30.8-3.34,41-3.91c2.8-0.16,5.97-0.28,8.62,0.86"/></svg>