<svg><path d="M16.72,37.5c0.02,4.31-1.94,14.14-3.69,17.5"/><path d="M31.27,33.83c2.04,1.88,5.28,7.71,5.79,10.63"/><path d="M22.87,13.25c1.09,0.5,1.74,2.25,1.96,3.25c0.22,1,0,73.75-0.22,80"/><path d="M43.69,18.82c0.51,1.18,1.17,3.02,1.17,5.16c0,3.3,0.01,6.36,0.01,21.92c0,17.4-0.37,39.85-9.62,47.6"/><path d="M44.7,21.21c6.41-0.94,41.63-5.71,42.92-5.71c2.38,0,3.71,2.25,3.71,4.48c0,2.36,0.17,64.27,0.17,69.69c0,8.48-1.75,8.58-7.13,2.84"/><path d="M53.35,34.22c1.02,0.37,2.88,0.26,3.9,0.22c5.5-0.19,17.44-2.77,21.51-2.94c1.7-0.07,2.71,0.06,3.56,0.23"/><path d="M49.64,46.9c1.06,0.19,3,0.19,4.06,0.1c5.79-0.5,20.29-2.75,27.21-2.9c1.77-0.04,2.83,0.02,3.71,0.1"/><path d="M65.55,23.14c0.66,0.33,1.05,1.61,1.18,2.34c0.13,0.74,0.01,25.14-0.12,29.8"/><path d="M54.36,61.68c0.22,0.36,0.44,0.66,0.53,1.11c0.75,3.55,1.64,15.34,2.15,21.72"/><path d="M55.2,63.44c5.55-1.19,18.59-2.84,21.45-3.02c1.05-0.06,1.59,1.88,1.41,2.86c-0.78,4.07-2.36,10.54-3.91,16.36"/><path d="M57.25,81.66C63,81,73.91,79.86,78.16,79.75"/></svg>