<svg><path d="M15.43,26.92c3.03,0.93,6.75,0.54,9.83,0.11c11.72-1.66,31.86-4.96,46.05-6.19c3.3-0.29,6.78-0.54,10.04,0.06"/><path d="M21.56,38.93c0.87,0.52,1.19,1.39,1.59,2.6c0.74,2.25,1.11,4.95,1.77,7.88c0.26,1.15,0.51,2.27,0.75,3.28"/><path d="M23.98,40.37c7.09-1.58,12.73-2.78,17.9-3.5c3.91-0.54,5.62,0.95,4.53,4.13c-0.75,2.18-1.21,3.66-2.29,6.98"/><path d="M26.4,51.17c3.95-0.31,9.91-1.13,15.57-1.73c1.24-0.13,2.46-0.25,3.65-0.36"/><path d="M19.75,65.87c0.76,0.84,2.28,1.26,4.57,0.18c7.43-3.48,16.05-7.61,23.63-11.09"/><path d="M48.82,10.38c1.76,1.26,2.47,2.91,3.06,4.94c5.15,17.85,14.5,35.13,29.63,45.38c10.18,6.9,9.5,2.75,6.4-6.68"/><path d="M75.39,30.4c0.06,0.66,0.12,1.7-0.12,2.64c-1.44,5.57-9.68,18.41-20.97,25.89"/><path d="M62,8.45c3.18,1.03,8.27,3.37,9.75,5.12"/><path d="M24.26,80.51c0.45,2.21-4.54,11.98-8.18,15.67"/><path d="M36.08,78.45c6.79,11.75,16.42,21.3,40.2,21.43c11.47,0.07,12.22-3.93,2.65-8.94"/><path d="M55.16,71.45c2.02,4.85,4.97,9.7,7.13,2.28"/><path d="M81.88,71.68c3.94,2.52,7.24,6.39,10.1,12.61"/></svg>