<svg><path d="M18,37.25c0,6.16-4.15,15.24-5.23,17"/><path d="M32.52,33.83c2.13,1.74,5.51,7.17,6.04,9.88"/><path d="M24.87,15c1.19,1.19,1.21,2.38,1.21,4.25c0,7.22,0.02,50.39,0.03,69.5c0,3.38,0,6,0,7.5"/><path d="M56,15c0.17,1.94-0.3,3.23-0.85,4.89c-3.55,10.59-8.54,20.3-16.67,33.19"/><path d="M49.04,38.27c0.85,0.85,1.11,2.22,1.11,3.67c0,8.18,0.09,38.06,0.09,44.31c0,3.69-0.07,6.74-0.07,8.75"/><path d="M78.4,14c0.08,0.94-0.02,2.17-0.29,2.97c-1.72,5.12-3.9,8.83-7.85,15.06"/><path d="M49.94,34.8c7.56-0.77,25.22-1.9,35.55-2.85c3.76-0.34,6.55-0.63,7.54-0.81"/><path d="M70.8,35.87c0.85,0.85,1.25,2.13,1.25,4.2c0,8.35,0.04,33.81,0.04,47.38"/><path d="M51.34,52.88c7.03-0.38,22.76-1.48,32.43-2.16c3.3-0.23,5.76-0.43,6.64-0.57"/><path d="M51.36,69.33c7.27-0.46,22.89-1.51,32.93-2.23c3.36-0.24,5.86-0.44,6.79-0.55"/><path d="M51.36,89.24c8.27-0.49,27.69-1.15,38.9-1.73c3.17-0.16,5.46-0.32,6.27-0.46"/></svg>