<svg><path d="M23.49,20.47c0.06,1.1,0.12,2.18-0.33,3.19c-1.92,4.34-4.63,8.94-8.61,15.27"/><path d="M24,30.75c6.29-0.62,15.75-2.5,18.62-3.05c1.14-0.22,2.33,0,3.49,0.21"/><path d="M33.62,10.75c1,1,1.08,2.25,1.08,3.43c0,0.69,0.03,32.83,0.04,47.82c0,3.41,0,5.94,0,7"/><path d="M16.17,51.13c1.66,0.99,2.79,0.92,4.44,0.07c0.98-0.5,17.69-8.63,21.83-11.05"/><path d="M61.87,11.75c0.08,1.45,0.05,2.88-0.46,4.26c-2.91,7.86-5.74,15.25-11.87,23.53"/><path d="M60,26.33c1.98,0.78,4.09,0.27,6.13,0.05c6.12-0.64,14.25-1.89,20.81-2.52c4.58-0.44,5.2,1.5,4.58,4.68C90.25,35,88.25,49.25,80.08,61.42c-2.22,3.31-4.83,2.08-7.36-1.25"/><path d="M64.05,30.34c0.08,1.08,0,2.02-0.45,3.02c-2.71,6.1-5.88,11-11.96,17.1"/><path d="M76.48,28.91c0.11,1.37-0.1,2.51-0.65,3.8c-3.62,8.49-9.62,19.43-21.07,29.33"/><path d="M23.39,81.32c0.35,2.28-3.51,12.36-6.31,16.17"/><path d="M36.33,77.5c6.64,11.27,17.14,21.04,42.74,21.18c12.35,0.07,13.16-4,2.86-9.13"/><path d="M55.16,74c2.97,5.12,6.22,8.38,8.13,2.46"/><path d="M82.13,71.98c3.62,2.27,8.37,5.52,11.85,10.36"/></svg>