<svg><path d="M24,23.39c1.38,0.36,3.92,0.48,5.29,0.36c20.11-1.78,30.81-3.19,50.38-4.14c2.3-0.11,3.68,0.17,4.83,0.35"/><path d="M28.81,33.08c0.74,0.46,1.69,2.17,1.83,2.77c1.01,4.36,2.23,13.76,3.65,22.02"/><path d="M31.68,34.73c11.33-0.88,37.57-3.49,45.3-3.62c3.2-0.06,3.86,1.2,3.72,2.56c-0.47,4.7-1.62,12.41-4.17,20.12"/><path d="M34.35,45.62c8.54-0.23,28.39-3.4,44.49-3.4"/><path d="M34.35,56.01c9.93-0.91,29.25-3.13,42.18-3.13"/><path d="M52.81,10.5c0.76,0.6,2.01,2.5,2.01,4.66c0,1.2-0.1,44.63-0.25,52.09"/><path d="M26,69.92c1.25,1.33,2.2,1.83,4.12,1.57c7.38-1,40.84-7.31,48.63-8.5"/><path d="M74.02,58.58c4.34,1.88,11.21,7.71,12.29,10.63"/><path d="M22.89,80.57c0.35,2.21-3.51,11.98-6.31,15.67"/><path d="M32.58,78.25C39.25,90,48.75,98.5,77.75,98.43c13.05-0.03,13.91-2.86,3.02-7.75"/><path d="M54.41,76.57c1.95,4.73,4.79,9.47,6.88,2.22"/><path d="M83.38,75.98c4.82,2.22,8.44,4.24,12.35,11.11"/></svg>