<svg><path d="M25.52,14.53c1.29,0.31,3.67,0.42,4.97,0.31c13.77-1.1,34.27-2.1,48.77-3.6c2.15-0.22,3.46,0.15,4.53,0.31"/><path d="M43.2,15.66c0.93,0.86,1.66,2.28,1.66,3.79c0,3.44-0.02,4.62-0.02,9.3"/><path d="M28.92,31.35c2.6-0.24,15.89-2.12,18.01-2.36"/><path d="M26.76,28.66c1.01,1,1.78,2.03,1.79,3.43c0.03,2.96-1.15,9.58-1.25,13.67c-0.02,0.88,0.18,1.85,2.05,1.55c4.23-0.68,9.16-1.5,13.51-2.35c1.09-0.21,2.21,0.71,2.21,2.29c0,4.35-0.16,5.65-0.16,14.15"/><path d="M61.48,13.97c1.01,1,1.78,2.03,1.79,3.43c0.03,2.96-0.62,4.22-0.72,8.3c-0.02,0.88,0.18,1.85,2.05,1.55c4.23-0.68,10.75-1.19,15.14-1.8c2.6-0.36,3.61,1.76,3.21,3.29c-0.77,2.93-1.67,6.04-2.46,11.17"/><path d="M63.17,41.77c2.6-0.24,16.83-1.62,18.96-1.86"/><path d="M61.53,40.49c0.93,0.86,1.66,2.28,1.66,3.79c0,3.44-0.02,10.72-0.02,15.4"/><path d="M18.84,62.31c1.76,0.44,5,0.54,6.77,0.44c18.65-1,42.33-4.26,59.47-4.25c2.94,0,4.71,0.21,6.18,0.43"/><path d="M24.89,78.82c0.4,2.25-4.06,12.17-7.31,15.92"/><path d="M36.58,71.25c6.17,16.75,15.91,28,40.41,28.18c11.82,0.09,12.6-3.93,2.73-10.63"/><path d="M56.41,71.75c2.17,5.25,5.32,10.5,7.63,2.46"/><path d="M79.88,67.73c4.63,2.07,8.09,3.96,11.85,10.36"/></svg>