<svg><path d="M19.15,22.08c4.78,0.57,9.52,0.25,14.23-0.48c13.36-1.63,30.87-3.02,43.24-3.71c4.52-0.29,9.04-0.24,13.57,0.16"/><path d="M39.87,10.48c0.83,0.83,1.44,1.56,1.48,2.31C41.75,20.88,42,26,42.2,29.62"/><path d="M66.26,9.77c0.74,0.86,0.86,1.75,0.76,2.81c-0.58,6.22-1.09,8.83-1.72,14.68"/><path d="M51.42,26.65c0,1.23-0.32,2.16-0.85,3.35c-4.52,10.11-14.35,23.98-33.57,33.04"/><path d="M18.25,39.7c4.16,0.79,8.26,0.31,12.51-0.22c16.99-2.11,33.26-4.05,44.75-4.72c3.95-0.52,7.86-0.35,11.74,0.51"/><path d="M41,49.12c0.75,0.75,1.18,1.62,1.24,2.21c0.63,5.91,1.26,9.91,1.67,13.16"/><path d="M43.24,50.15c10.6-1.89,19.96-3.1,28.53-4.17c2.7-0.34,5.15,0.94,4.3,3.96c-1.09,3.89-1.57,5.19-2.62,8.63"/><path d="M44.88,62.55c5.99-0.42,16.68-1.57,24.75-2.38c2.38-0.24,4.53-0.45,6.26-0.6"/><path d="M22.4,78.07c0.29,2.21-3.2,11.98-5.57,15.67"/><path d="M33.58,72.25c7.02,13.26,17.17,25,45.17,24.93c13.05-0.03,13.91-3.29,3.02-9.32"/><path d="M54.41,70.75c1.88,4.85,4.62,9.7,6.63,2.28"/><path d="M76.88,68.23C82.68,70.7,87,74,91.49,80.34"/></svg>