<svg><path d="M24.81,20.76c1.16,0.3,3.28,0.34,4.44,0.3c12-0.32,33.66-3.12,48.65-3.5c1.93-0.05,3.09,0.15,4.06,0.3"/><path d="M29.25,30.33c0.94,0.28,2.66,0.31,3.6,0.28c9.77-0.32,28.9-2.36,42.27-3.2c1.56-0.1,2.5,0.13,3.28,0.27"/><path d="M15.88,42.65c1.52,0.26,4.32,0.31,5.84,0.26c15.85-0.44,46.15-4.03,66.08-4.02c2.54,0,4.06,0.13,5.33,0.26"/><path d="M52.76,12c0.1,1.22,0.21,3.17-0.2,4.92C50.11,27.31,37,51.5,14.5,63.31"/><path d="M59.75,29.47c4.75,5.41,22.92,22.59,28.16,26.55c1.78,1.34,4.06,1.92,5.84,2.3"/><path d="M38.77,50.38c0.39,0.57,0.78,0.86,0.78,1.62c0,0.76,2.74,18.04,2.74,18.43"/><path d="M40.19,51.58c2.2-0.1,26.91-3.32,28.92-3.43c1.67-0.1,3.24,2.06,3.11,2.62c-0.26,1.15-2.02,17.53-2.02,18.1"/><path d="M41.08,59.91c2.97,0,26.86-2.55,30.22-2.55"/><path d="M42.94,67.97c6.06-0.41,19.81-1.64,27.35-1.99"/><path d="M27.31,79.38c0.38,2.25-3.78,12.17-6.81,15.92"/><path d="M36.5,74.82c5.98,12.6,15.43,23.53,38.48,23.68c11.12,0.08,11.85-3.36,2.57-9.09"/><path d="M58.33,76.32c1.95,4.85,4.79,9.7,6.88,2.28"/><path d="M78.3,74.3c5.99,2.07,10.49,3.96,15.35,10.36"/></svg>