<svg><path d="M18.75,39.5c0.02,4.31-1.96,14.14-3.72,17.5"/><path d="M33.77,32.71c2.66,1.59,6.88,6.54,7.54,9.01"/><path d="M28.62,14.25c1.06,1.06,1.21,2.5,1.21,4c0,0.69,0.04,51.27,0.04,71c0,4.62,0,7.55-0.01,7.75"/><path d="M45.23,24.53c2.52,0.33,4.87,0.09,7.4-0.2c8.25-0.95,18.73-2.63,30.62-3.57c2.65-0.21,5.39-0.57,8.02,0.04"/><path d="M65.8,10c0.18,0.89,0.3,2.26-0.02,3.25C60.22,30.34,51.57,43.3,38.12,52.84"/><path d="M59.89,32.73c2.23,0.02,3.83-0.04,5.24-0.16c4.15-0.34,10.99-1.57,16.76-1.82c1.69-0.07,3.48-0.25,5.18,0"/><path d="M70.1,33.18c1.03,0.72,1.4,1.73,1.4,2.31c0,2.76,0.03,4.51,0.03,7.4"/><path d="M49.33,45.21c2.35,0.64,5.17,0.29,7.55,0.12c9-0.62,21.41-2.49,31.24-2.73c2.33-0.06,4.75-0.13,7.01,0.57"/><path d="M54.28,53.83c0.88,0.88,1.15,1.92,1.15,2.97c0,0.5-0.03,20.96-0.03,32.45c0,3.92-0.01,6.68-0.03,7.04"/><path d="M56.33,55.21c5.17-0.46,23.39-2.36,25.11-2.4c2.69-0.07,3.83,1.31,3.83,3.45c0,4.11-0.02,22.44-0.02,35.36c0,11.44-3.5,5.12-6.07,2.57"/><path d="M56.58,66.99c8.92-0.86,19.79-1.99,27.6-2.62"/><path d="M56.41,78.61c7.47-0.73,18.09-1.61,28.14-2.28"/></svg>