<svg><path d="M16.22,37c0.03,4.31-2.47,14.14-4.69,17.5"/><path d="M30.77,32.58c1.69,2.27,4.37,9.35,4.79,12.88"/><path d="M22.37,14.75c1.09,0.5,1.74,2.25,1.96,3.25c0.22,1,0,70.75-0.22,77"/><path d="M42.83,17.93c0.3,1.25,0.74,2.17,0.74,3.83c0,1.66-0.1,50.72,0,52.38"/><path d="M44.07,19.94c1.7-0.21,14.66-2.86,16.21-3.11c1.29-0.21,2.31,1.16,2.2,2.7c-0.14,1.95-0.6,52.54-0.6,53.78"/><path d="M44.04,36.35c3.52-0.63,12.67-1.81,17.14-2.33"/><path d="M44.18,52.62c5.18-0.83,11.55-1.52,16.8-1.95"/><path d="M44.12,71.69c5.38-0.69,12.1-1.63,17.3-1.99"/><path d="M47.55,79.04c0.41,1.38,0.77,1.73,0,2.77c-3.46,4.67-9.56,10.52-14.51,14.12"/><path d="M58.32,79.79c3.27,3.84,7.13,10.81,8.02,14.17"/><path d="M75.53,24.1c0.94,0.99,1.6,2.15,1.68,5.42c0.38,15.72-0.02,38.45-0.02,43.81"/><path d="M91.35,14.33c0.94,0.99,1.68,2.15,1.68,5.42c0,16-0.25,64.76-0.25,70.12c0,7.33-3.84,4.9-8.33,0.27"/></svg>