<svg><path d="M41.67,11.16c-0.05,0.71-0.64,1.58-1.27,2c-2.63,2.41-9.9,6.11-20.84,8.78"/><path d="M14.62,32.95c1.76,0.43,3.44,0.42,4.9,0.3c5.79-0.49,18.57-2.25,24.9-3.04c1.04-0.13,2.52-0.5,3.61-0.23"/><path d="M35.33,19.16c0.69,0.69,1.03,1.84,1.03,3.14c0,0.46,0.02,23.77-0.03,35.44c-0.01,3.21-0.03,5.55-0.04,6.34"/><path d="M35.39,33.38c0,1.24-1.26,3.38-2.17,4.64c-4.1,5.72-7.97,10.72-14.97,16.5"/><path d="M39.14,38.61c3.74,2.11,6.91,6.32,8.93,9.02"/><path d="M53.88,23.87c1.63,2.37,4,9.07,4.44,11.44"/><path d="M87.26,20.23c-0.01,0.9-0.18,1.8-1.12,2.7c-2.52,2.44-8.4,7.32-13.43,10.2"/><path d="M68.3,10.89c0.84,0.84,1.09,2.08,1.1,2.9c0.29,21.19-1.52,37.45-17.35,47.41"/><path d="M68.7,36.35c5.8,7.4,11.05,13.03,16.62,17.98c2.5,2.23,4.69,3.8,7.69,5.1"/><path d="M23.65,76.82c0.32,2.28-3.23,12.36-5.82,16.17"/><path d="M35.58,74.75c6.99,12.06,18.03,22.53,44.97,22.68c12.99,0.07,13.84-3.47,3-8.96"/><path d="M54.41,70.25c1.77,4.95,4.36,9.9,6.26,2.32"/><path d="M77.13,67.23c5.5,1.77,9.63,3.38,14.1,8.86"/></svg>