<svg><path d="M14.97,36.25C15,40.63,12.9,50.6,11.03,54"/><path d="M25.27,33.33c2.22,2.23,5.74,9.17,6.29,12.63"/><path d="M20.87,14.75c1.09,0.5,1.74,2.25,1.96,3.25c0.22,1,0,73.75-0.22,80"/><path d="M57.91,16.25c0.05,0.35,0.11,0.91-0.11,1.42c-1.3,2.99-8.76,9.54-18.96,13.55"/><path d="M36.74,43.76c0.25,0.17,0.9,0.44,1.56,0.5c1.81,0.17,17.01-2.51,21.53-3.35c0.66-0.12,0.82-0.17,1.23,0"/><path d="M49.58,28.46c0.26,0.43,1.15,1.92,1.2,2.77c0.05,0.85,0,58.44-0.05,63.77"/><path d="M50.55,43.81C46.37,54.59,39.38,67.9,29.91,76.72"/><path d="M53.43,52.58c3.26,2.82,6.03,8.47,7.79,12.1"/><path d="M64.15,33.89c1.58,3.31,3.88,12.69,4.31,16"/><path d="M91.23,31.8c0.6,0.75,0.27,2.75-0.28,3.91c-0.55,1.16-6.52,9.79-9.24,12.51"/><path d="M76.29,17.3c0.78,0.75,1.18,2.79,1.2,4.04c0.32,32.31-3.4,60.42-19.75,73.05"/><path d="M75.97,54.9c5.4,15.4,12.95,28.49,17.56,34.47c1.34,1.74,1.56,1.65,2.6,2.12"/></svg>