<svg><path d="M32.85,12.5c0.05,0.39,0.23,1.08-0.09,1.55c-2.26,3.35-8.19,9.17-16.48,14.84"/><path d="M39.61,25.4c0.07,0.52,0.23,1.43-0.13,2.1c-2.88,5.42-11.46,12.76-23.21,20.11"/><path d="M29.18,40.22c0.25,0.18,0.86,1.59,0.91,1.96c0.05,0.37,0,20.52-0.05,22.82"/><path d="M46.95,13.57c2.94,1.08,7.6,4.42,8.34,6.1"/><path d="M46.92,30.42c2.91,1.06,7.52,4.37,8.25,6.03"/><path d="M44.3,58.28c1.68,0.85,3.7,0.89,4.75-0.17c3.08-3.07,6.15-6.83,8.95-10.75"/><path d="M64.89,17.07c0.61,0.3,3.23,0.82,3.83,0.71c4.73-0.83,15.09-3.01,17.92-2.88c1.02,0.05,1.63,0.14,2.14,0.29"/><path d="M61.86,30.91c1.39,0.34,2.87,0.7,4.06,0.67C69.5,31.5,87,29,92.69,28.6c1.98-0.14,3.17,0.08,4.16,0.17"/><path d="M78.74,32.49c0.51,0.51,1.42,1.3,1.48,3.49c0.32,10.52-0.2,18.96-0.2,22.54c0,5.81-5.65-0.36-6.82-1.27"/><path d="M26.31,81.38c0.46,2.25-4.61,12.17-8.31,15.92"/><path d="M35.5,73.82c6.51,12.99,16.81,24.27,41.93,24.43c12.12,0.08,12.91-3.47,2.8-9.38"/><path d="M56.33,72.32c2.17,5.25,5.82,9.5,8.13,1.46"/><path d="M81.8,70.3c5.21,2.07,9.12,3.96,13.35,10.36"/></svg>