<svg><path d="M16.25,35.5c0,6.61-2.97,16.36-3.75,18.25"/><path d="M28.02,30.33c3.01,1.61,7.79,6.63,8.54,9.13"/><path d="M23.37,14c1.19,1.19,1.21,2.5,1.21,4c0,0.69,0.04,51.08,0.04,70.62c0,4.55,0,7.43-0.01,7.62"/><path d="M61.45,13c0.07,0.8-0.14,1.91-0.64,2.95C56.5,25,49.88,36.5,36.75,47.35"/><path d="M61.84,16.15c5.4,5.26,16.28,14.72,23.89,21.4c2.43,2.13,5.92,4.17,8.77,5.71"/><path d="M51.56,40.8c1.08,0.49,3.56,0.56,4.68,0.4c5.13-0.72,12.29-2.27,16.36-2.72c1.15-0.13,2.21-0.19,3.33,0.12"/><path d="M42.81,52.73c0.85,0.85,1.1,1.89,1.1,3.3c0,0.71-0.04,21.35-0.04,32.22c0,3.81,0.02,5.83,0,6.38"/><path d="M44.52,54.36c0.99-0.11,8.18-1.85,11.38-2.49c2.81-0.57,3.52,0.56,3.46,3.26c-0.11,4.76,0,23.9,0,33.49c0,9.53-4.32,2.46-5.34,1.26"/><path d="M45.03,64.7c3.52-0.49,9.64-1.4,13.21-1.85"/><path d="M44.83,75.28c3.91-0.28,8.46-1.03,13.13-1.32"/><path d="M72.48,52.96c0.78,0.78,1.25,1.76,1.25,3.68c0,1.91-0.01,12.31-0.01,18.74c0,2.77,0,4.05,0,4.35"/><path d="M85.72,48.13c0.95,0.95,1.25,2.12,1.25,4.18c0,9.22-0.1,34.43-0.1,37.57c0,7.75-5.13,0.95-6.2,0.16"/></svg>