<svg><path d="M19.7,16.62c6.9-1.23,22.48-3.62,25.83-4.1c1.23-0.17,2.02,1.77,1.79,2.78c-0.84,3.7-1.49,7.58-2.28,10.1"/><path d="M19.81,28.56c4.56-0.74,20.62-2.26,25.87-2.88c0.82-0.1,1.32,0.13,1.73,0.27"/><path d="M18.5,14.26c0.91,0.47,1.25,2.21,1.25,3.63s-0.11,39.77-0.11,41.97c0,2.21-0.2,2.47,1.59,1.26c3.52-2.38,7.02-4.88,10.03-6.42"/><path d="M20.08,40.04c6.13-0.98,18.42-3.29,27.43-4.58c0.8-0.11,2.78,0.12,3.17,0.25"/><path d="M32.6,30.39c0.22,0.41,0.63,1.52,0.72,2.3c1.36,12.47,6.5,24.5,14.84,29.52c3.62,2.17,2.38-1.73,2.38-3.21"/><path d="M67.95,11.14c0.04,0.64,0.18,1.68-0.07,2.58c-1.85,6.5-5.99,17.5-12.38,25.33"/><path d="M66.69,25.7c0.97,0.26,2.77,0,3.3-0.04c5.43-0.42,13.87-3.15,22.16-3.83c0.93-0.08,1.5-0.02,1.75,0.07"/><path d="M84.37,26.81c0.43,0.89,0.83,1.58,0.21,3.14c-6.09,15.3-13.84,25.8-26.57,33.55"/><path d="M62.76,33.44c1.06,0,1.68,0.7,2.51,1.65c5.67,6.46,16.11,18.95,23.68,25.08c1.39,1.13,2.87,1.88,4.05,1.99"/><path d="M21.31,78.63c0.35,2.21-3.51,11.98-6.31,15.67"/><path d="M32,70.82c7.08,14.72,18.27,27.5,45.57,27.68c13.17,0.09,14.03-3.93,3.04-10.63"/><path d="M54.83,72.82c1.74,4.22,4.27,8.44,6.13,1.98"/><path d="M78.3,69.3c5.02,1.97,8.78,3.76,12.85,9.86"/></svg>