<svg><path d="M15.22,40c0.02,4.31-1.94,14.14-3.69,17.5"/><path d="M29.77,34.83c2.22,1.88,5.74,7.71,6.29,10.63"/><path d="M21.87,16.75c1.09,0.5,1.74,2.25,1.96,3.25c0.22,1,0,70.25-0.22,76.5"/><path d="M64.14,15.25c1.32,0.55,2.21,2.28,2.18,3.88c-0.1,5.04-0.1,6.22-0.1,10.81"/><path d="M46.09,29.37c0,3.29-2.58,12.32-3.75,14.51"/><path d="M45.9,32.09c10.02-0.86,29.42-3.48,41.63-3.99c8.88-0.37,1.74,5.5-0.31,7.12"/><path d="M51.68,42.12c0.64,0.34,1.81,0.36,2.46,0.34c5.36-0.21,17.11-1.96,23.6-2.55c1.06-0.1,1.71,0.16,2.25,0.33"/><path d="M53.03,52.13c0.44,0.7,1.17,1.85,1.17,2.78c0,9.58,0.08,18.08,0.08,25"/><path d="M54.36,54.09c4.73-0.67,20.63-2.73,22.9-2.87c1.89-0.12,3.05,0.69,2.89,2.68c0,6.6-0.32,16.6-0.32,24.54"/><path d="M55.37,65.25c5.42-0.7,18.88-2,24.67-1.88"/><path d="M54.9,77.99c6.45-0.81,17.44-1.68,24.47-2.17"/><path d="M38.92,91.37c1.35,0.41,3.83,0.43,5.18,0.41c11.93-0.2,33.18-3.04,47.13-3.03c2.25,0,3.6,0.19,4.73,0.39"/></svg>