<svg><path d="M16.72,34c0.03,4.31-2.47,14.14-4.69,17.5"/><path d="M33.27,32.83C35.49,35.06,39,42,39.56,45.47"/><path d="M23.87,12.25c1.09,0.5,1.74,2.25,1.96,3.25c0.22,1,0,73.75-0.22,80"/><path d="M55.85,11.5c0.03,0.51,0.13,1.46-0.07,2.04c-2.42,7.16-5.99,13.73-12.29,19.5"/><path d="M55.75,21.55c0.71,0.21,2,0.27,2.71,0.21c4.5-0.36,21.26-2.06,28.32-2.88c1.16-0.13,1.55-0.05,2.5-0.02"/><path d="M52.77,30.9c0.39,0.53,0.78,0.79,0.78,1.5c0,0.71,2.87,20.14,3,20.85"/><path d="M54.69,32.49c4.06-0.74,24.91-3.64,26.92-3.75c1.67-0.09,2.74,1.98,2.61,2.5c-0.26,1.06-3.02,20.11-3.02,20.64"/><path d="M55.58,41.56c6.92-1.06,21.17-2.31,27.22-2.9"/><path d="M57.44,51.26c6.06-0.38,15.31-1.39,22.85-1.72"/><path d="M58.83,56.75c0.04,0.6,0.09,1.55-0.08,2.41c-1.04,5.07-6.98,16.2-15.11,23.02"/><path d="M61.22,62.98c0.25,0.03,1.84,0,2.57-0.08c2.39-0.26,11.82-1.73,15.23-2.53c2.34-0.55,3.01,0.63,2.41,2.13C78.15,70.7,58.62,92.77,44,97"/><path d="M54.4,69.56c4.98,4.22,27.56,20.24,34.28,24.1c2,1.15,3.62,1.71,5.57,2.05"/></svg>