<svg><path d="M24,28.32c0.5,1,0.67,2.26,0.75,3.75c0.75,14.75-1.5,36-12.25,42.75"/><path d="M24.65,29.11c1.6,0.4,4.54,0.32,6.12,0.15c9.85-1.07,30.48-4.07,41.83-6.2c2.61-0.49,4.4-0.5,6.4-0.5"/><path d="M30.52,42.97c1.09,0.35,1.97,0.42,4.17,0.1C39,42.44,44.62,41.19,48,40.63c1.78-0.3,3.36-0.29,4.26-0.11"/><path d="M30.39,53.41c0.74,0.47,1.18,1.14,1.33,2c0.85,2.51,1.52,6.36,2.16,10.11c0.13,0.77,0.26,1.53,0.39,2.27"/><path d="M32.62,54.26c7.71-1.24,13.96-2.53,18.61-2.94c1.9-0.17,3.45,0.6,2.76,2.86c-0.95,3.13-1.52,5.37-2.57,9.39"/><path d="M34.54,65.82c4.95-0.24,9-1.09,15.72-1.1c0.72,0,1.46,0,2.24,0.01"/><path d="M52.78,10.57c1.22,0.75,2.52,1.82,2.97,4.5c3.5,21,12.34,43.98,32.04,52.35c6.51,2.76,5.21,0.28,3.72-8.05"/><path d="M78.74,36.83c0.05,0.74,0.1,1.92-0.1,2.99c-1.21,6.31-7.76,19.87-17.16,29.64"/><path d="M72.17,9.93c3.35,1.53,8.71,5.04,10.27,7.67"/><path d="M22.31,83.96c-0.69,4.48-3.97,12.45-7.15,16.28"/><path d="M36.01,81.44c8.74,13.88,17.99,19.4,42.42,19c7.7-0.13,7.7-2.25,1.9-7.55"/><path d="M55.06,77.57c1.19,3.12,4.19,7.5,5.3,3.51"/><path d="M86.5,77.75C90,80.32,92.25,82.82,95,87"/></svg>