<svg><path d="M30.22,16.14c0.7,0.77,1.11,1.68,1.24,2.72c0.79,5.52,1.36,9.43,2.05,14.89c0.21,1.68,0.41,3.33,0.6,4.85"/><path d="M32.28,17.3c14.22-1.55,33.47-3.77,42.25-4.45c3.22-0.25,3.95,1.72,3.69,4.15c-0.34,3.11-1.35,7.75-2.7,13.57c-0.36,1.57-0.75,3.19-1.15,4.83"/><path d="M33.94,26.71C44,25.5,69.88,23,76.21,22.69"/><path d="M35.28,36.33c12.01-1.36,26.75-3.3,38.43-3.79"/><path d="M26.29,45.19c0.82,0.82,1.26,1.92,1.32,2.63c0.39,4.42,0.99,10.66,1.71,16.69c0.26,2.16,0.48,3.96,0.61,4.99"/><path d="M28.38,47.51c7.67-0.84,50.03-5.36,51.57-5.42c3.32-0.12,4.33,1.99,4.18,4.91c-0.31,5.71-1.33,13.22-3.58,18.07c-2.58,5.59-3.83,3.32-6.68,0.17"/><path d="M52.97,17.48c0.77,0.77,1.03,1.77,1.03,2.93c0,6.46,0.12,32.44,0.12,35.96"/><path d="M40.67,60.21c0.95,1.04,2.56,0.82,3.74,0.46c3.32-1.02,15.21-4.66,23.43-7.26"/><path d="M63.65,49.06c3.03,1.54,7.82,6.43,8.57,8.92"/><path d="M25.37,79.12c0.29,2.24-2.94,12.13-5.29,15.86"/><path d="M34.75,75.5c10.25,14.5,15,21,42.46,20.93c8.54-0.02,9.79-3.56,2.64-7.51"/><path d="M55.77,72.75c2.36,4.38,6.11,8.69,7.12,4.46"/><path d="M81.7,74.98c5.28,1.82,9.42,4.64,13.53,9.11"/></svg>