<svg><path d="M59.38,8.75c-0.21,0.82-0.79,1.64-1.47,2.17c-3.13,2.42-12.8,6.29-23.36,8.97"/><path d="M32.12,23.38c3.07,1.58,7.54,5.46,8.31,7.92"/><path d="M48.17,22.31c2.68,1.28,6.93,5.28,7.6,7.28"/><path d="M75.86,18.37c0.12,0.96-0.09,1.34-0.68,2.14c-2.05,2.78-6.53,6.83-12.91,10.99"/><path d="M17.99,38.24c-0.1,3.62-1.86,11.86-2.72,14.08"/><path d="M18.36,39.68c18.14-1.93,48.77-6.31,68.68-7.1c13.73-0.55,3.22,6.92-0.68,9.26"/><path d="M29.53,46.89c0.19,1.49-1.93,8.08-3.47,10.57"/><path d="M39.78,45.13c6.35,9.25,13.6,13,34.98,12.1c5.32-0.22,5.31-2.72,2.4-4.63"/><path d="M53.13,42.75c1.49,3,4.72,5.55,5.58,3.13"/><path d="M72.97,40.61c3.28,2.14,5.4,3.51,8.03,7.55"/><path d="M41.78,60.53c0.11,1.11-0.05,2.08-0.47,3.12c-1.89,4.68-8.45,13.22-17.19,18.6"/><path d="M42.58,67.93c0.4,0.03,2.1,0.04,3.24-0.08c5.8-0.6,12.43-2.1,18.93-3.6c3.61-0.83,5.25,1,3.25,4.25c-4.94,8.02-25.58,27.16-48.5,31.22"/><path d="M39.1,73.3c8.4,1.32,25.91,14.1,36.4,19.82C78.94,95,82.46,96.47,86.38,97"/></svg>