<svg><path d="M15.97,36c0.02,4.31-1.81,14.14-3.44,17.5"/><path d="M30.77,34.58c1.87,2.36,4.83,9.71,5.29,13.38"/><path d="M22.87,13.75c1.09,0.5,1.74,2.25,1.96,3.25c0.22,1,0,73.75-0.22,80"/><path d="M58.06,13.25c0.04,0.6,0.09,1.55-0.09,2.42c-1.07,5.1-6.94,15.15-15,23.14"/><path d="M54.17,27.47c0.83,0.35,2,0.47,3.34,0.23c1.33-0.23,28.51-3.03,31.85-3.14c3.33-0.12,3.27,2.02,3.07,4.52c-0.6,7.73-4.59,23.38-10.64,34.34c-2.83,5.13-6.35,0.35-7.9-1.94"/><path d="M62.42,30.23c0.05,0.57,0.14,1.49-0.09,2.3c-2.26,7.94-7.67,15.51-16.61,22.03"/><path d="M77.38,28.76c0.07,0.86,0.14,2.23-0.14,3.46c-1.66,7.3-10.64,23.31-23.67,33.11"/><path d="M54.5,39.37c7.32,2.12,18.9,8.72,20.73,12.01"/><path d="M42.18,79.78c0.24,2.26-2.41,12.25-4.35,16.03"/><path d="M49.97,77.38C55.5,90.5,63.32,99.54,84.17,98.7c10.61-0.43,11.82-3.57,2.96-7.97"/><path d="M62.11,74.31c2,5.13,4.92,10.25,7.06,2.4"/><path d="M84.89,73.41c3.94,2.02,6.9,3.85,10.1,10.08"/></svg>