<svg><path d="M16.72,34c0.03,4.31-2.47,14.14-4.69,17.5"/><path d="M27.52,33.08c2.49,1.92,6.42,7.9,7.04,10.88"/><path d="M22.37,12.25c1.09,0.5,1.74,2.25,1.96,3.25c0.22,1,0,75.75-0.22,82"/><path d="M51.15,11.69c0.2,1.42-0.01,1.96-0.39,3c-1.33,3.67-7.58,16.81-12.27,22.28"/><path d="M49.39,22.68c1.57,0.34,2.9,0.56,4.04,0.49c8.05-0.54,21.16-3.04,30.86-3.43c0.98-0.04,2.86-0.07,3.76-0.09"/><path d="M49.21,35.21c0.82,0.02,1.8,0.01,2.89-0.06c6.35-0.42,17.76-2.31,24.17-2.83c1.18-0.1,3.1-0.16,3.96-0.18"/><path d="M40.93,46.18c0.91,0.45,2.67,0.6,3.94,0.51c10.45-0.74,28.78-3.85,37.34-5.19c2.35-0.37,2.53,1.04,2.12,2.76C79.5,65,81,83.5,93.13,95.23c6.23,6.02,5.25,1.07,4.26-7.63"/><path d="M41.43,54.07c2.33,1.55,5.84,5.94,6.43,8.35"/><path d="M71.95,50.58c0.03,0.29,0.05,0.75-0.05,1.17c-0.6,2.47-4.04,7.9-8.75,11.22"/><path d="M38.64,67.8c0.44,0.15,1.61,0.39,2.78,0.44c3.22,0.15,29.11-3.84,34.23-3.55c1.17,0.07,1.46-0.15,2.19,0"/><path d="M56.79,50.59c0.7,0.3,1.12,1.33,1.26,1.92s0,42.04-0.14,45.74"/><path d="M57.51,67.11c-3.94,7.92-13.52,19.04-22.39,23.6"/><path d="M60.04,73.89c5.53,2.05,12.05,7.97,14.99,13.12"/></svg>