<svg><path d="M17.72,38c0.03,4.31-2.47,14.14-4.69,17.5"/><path d="M29.77,30.58c2.57,2.19,6.65,8.98,7.29,12.38"/><path d="M24.37,14.25c1.09,0.5,1.74,2.25,1.96,3.25c0.22,1,0,74.25-0.22,80.5"/><path d="M81.33,12.75c-0.29,0.7-0.58,1.06-1.2,1.36c-3.98,1.98-16.02,7.44-28.89,9.46"/><path d="M49.59,13.5c0.79,0.62,0.85,1.04,1.11,1.87c0.26,0.83-0.18,6-0.18,8.6c0,6.69,10.62,6.07,19.67,6.07c13.13,0,18.1-1.1,18.1-8.14"/><path d="M56.18,37.25c0.37,0.74,0.9,2.09,0.9,3.07c0,0.98-0.12,30.2,0,31.18"/><path d="M57.69,39.8c2.08-0.12,18.91-2.85,20.81-2.82c0.87,0.02,1.73,0.49,1.73,2.07c0,1.18,0.03,30.47-0.09,31.2"/><path d="M57.17,49.44c4.11-0.17,19.25-2.03,22.59-2.03"/><path d="M57.02,59.36c5.52-0.41,17.46-1.95,22.82-1.95"/><path d="M57.2,69.41c4.14,0,17.32-1.55,22.67-1.55"/><path d="M44.54,49.5c0.58,1,1.36,1.75,1.36,3.5s-0.97,21.5-0.97,23.75s0.2,4.56,2.33,4.25c15.24-2.25,34.24-4,42.75-3.5c1.74,0.1,3.88,0.25,5.24,0.5"/><path d="M57.23,85.89c0.05,0.31,0.1,0.8-0.1,1.24c-1.2,2.61-8.11,8.33-17.57,11.84"/><path d="M75.6,84.33c5.55,2.41,14.34,9.89,15.73,13.63"/></svg>