<svg><path d="M37.82,14.36c2.64,1.41,6.83,5.8,7.49,7.99"/><path d="M71.37,12.64c0.12,0.53-0.15,1.31-0.38,1.69c-1.5,2.46-2.48,4.04-5.49,8.17"/><path d="M21.88,29.18c3.5,0.57,6.87,0.44,10.15-0.01c13.69-1.9,29.43-3.73,48.23-4.69c2.94-0.15,5.8-0.14,8.71,0.49"/><path d="M36.02,35.9c0.23,0.65,0.05,1.64-0.37,2.34c-1.93,3.24-3.51,5.15-6.49,8.5c-0.74,0.83-0.53,1.45,0.25,1.63c3.34,0.76,5.46,1.51,7.81,2.43"/><path d="M47.8,38.86c0.32,1.02,0.2,2.27-0.55,3.24c-4.4,5.74-10.98,12.05-19.64,19.65c-0.99,0.87-0.57,2.19,0.6,1.85c9.17-2.72,11.04-3.34,18.94-5.36"/><path d="M45,52.88c2.1,2.12,5.42,8.72,5.94,12.03"/><path d="M67.07,31.26c0.25,0.73,0.29,1.27-0.12,2.08c-1.7,3.31-3.12,5.49-6.16,9.04c-1.06,1.25-1.2,2.46,0.18,3.01c3.04,1.23,5.71,2.4,7.8,3.65"/><path d="M79.39,34.91c0.11,1.09-0.19,2.39-0.53,2.9c-3.91,5.88-10.42,13.12-18.3,20.38c-1.69,1.56-1.32,2.81,0.72,2.36c6.57-1.46,14.76-3.58,20.33-4.66"/><path d="M78.04,50.21c2.62,2.03,6.77,8.35,7.42,11.51"/><path d="M25.52,78.19c0.34,2.27-3.7,12.27-6.44,16.05"/><path d="M34.58,75.5c8.17,11.62,15.67,19.88,45.06,20.43c12.88,0.25,14.22-3.61,3.48-8.92"/><path d="M52.91,73.25c2.17,5.25,4.97,9.25,6.88,2.96"/><path d="M78.75,70.25c4.78,1.57,8.36,2.99,12.24,7.84"/></svg>