<svg><path d="M15.97,36c0.03,4.31-2.07,14.14-3.94,17.5"/><path d="M27.52,32.33c2.49,2.14,6.42,8.8,7.04,12.13"/><path d="M22.87,15.25c1.09,0.5,1.74,2.25,1.96,3.25c0.22,1,0,71.25-0.22,77.5"/><path d="M39.59,17.84c1.3,0.47,3.68,0.54,4.98,0.47c11.97-0.64,35.83-4.01,43.85-3.47c2.16,0.15,3.47,0.22,4.55,0.46"/><path d="M42.72,29.17c0.32,0.33,0.64,0.6,0.78,1.02c1.1,3.27,2.41,12.28,3.16,18.15"/><path d="M44.69,30.29c7.75-1.37,40.45-4.24,44.45-4.7c1.46-0.17,2.34,1.7,2.13,2.7c-0.87,4.12-2.24,10.28-4.1,16.21"/><path d="M56.36,20.29c0.84,0.45,1.41,2,1.52,2.9c0.33,2.68,1.1,15.62,1.87,21.88"/><path d="M72.78,18.06c0.84,0.45,1.1,2.42,0.88,4.47c-0.58,5.36-0.58,12.83-1.55,21.54"/><path d="M46.97,46.18c4.69-0.52,34.93-2.73,40.88-3.25"/><path d="M39.86,61.61c1.85,0.55,3.95,0.73,6.07,0.55c10.83-0.9,27.65-3.55,44.02-4.62c2.11-0.13,3.43,0.1,5.55,0.48"/><path d="M64.63,47.54c1.1,0.49,1.98,2.17,1.98,3.17c0,10.25,0,40.76-0.22,46.86"/><path d="M66.09,61.11c-6.22,9.7-16.6,21.53-30.84,26.9"/><path d="M66.08,61.95c3.81,3.34,21.75,20.09,25.9,23.38c1.41,1.11,2.61,1.59,4.02,1.91"/></svg>