<svg><path d="M16.72,32c0.03,4.31-2.47,14.14-4.69,17.5"/><path d="M31.77,29.83c2.22,2.23,5.74,9.17,6.29,12.63"/><path d="M22.87,12.75c1.09,0.5,1.74,2.25,1.96,3.25c0.22,1,0,73.75-0.22,80"/><path d="M46.31,18.39c0.42,0.5,0.94,1.89,1.04,2.55c0.9,5.55,1.9,17.8,2.83,29.05"/><path d="M47.76,20.21c11.49-1.46,30.76-2.84,37.52-3.46C88,16.5,88.5,18,88.25,20.19c-0.79,6.93-2.25,19.06-3.78,27.46"/><path d="M66.73,23.28c0.08,0.39,0.36,1.25,0.16,1.84C65.25,30,62.25,36.25,56.01,41.7"/><path d="M66.79,30.83c4.35,1.33,10.68,6.65,11.76,9.24"/><path d="M50.71,47.59c7.35,0,23.61-1.24,33.76-1.39"/><path d="M44.39,60.08c0.55,0.82,1.26,1.72,1.37,2.42c0.92,5.56,1.67,20.5,2.3,30.48"/><path d="M46.62,61.82c9.82-1.15,37.09-3.18,40.65-3.42c2.23-0.15,3.48,1.1,3.25,3.37c-0.33,3.22-3.58,25.25-4.72,29.59"/><path d="M58.65,61.46c0.23,0.53,0.46,0.97,0.56,1.63c0.79,5.24,1.37,20.01,1.91,29.43"/><path d="M74.08,60.25c0.42,0.63,0.82,1.71,0.75,2.53c-0.69,8.12-1.1,18.46-1.94,28.85"/><path d="M35.63,93.65c1.09,0.37,3.09,0.43,4.18,0.37c11.36-0.63,33.09-2.13,54-2.23c1.82-0.01,2.91,0.18,3.82,0.37"/></svg>