<svg><path d="M34.55,10.96c0.33,0.66,0.11,1.73-0.18,2.15C30.62,18.5,27.75,22,22.76,27.33c-1.34,1.43-1.2,2.5,0.93,2.04c5.81-1.24,17.69-3.99,24.01-5.08"/><path d="M43.84,17.95c2.97,1.94,7.68,7.97,8.42,10.99"/><path d="M24.65,36.48c0.75,0.75,1.08,2.18,1.1,3.16c0.03,1.97-0.19,16.52-0.16,24.86c0.01,3.36,0.03,5.56,0.05,5.21"/><path d="M26.35,37.44c1.7-0.12,17.09-2.59,18.35-2.75c1.42-0.19,2.84,1.06,2.84,3c0,2.56,0.07,18.27,0.07,27.86c0,6.16-3.91,1.88-5.33,0.82"/><path d="M26.85,46.56c5.82-0.71,14.59-1.53,19.7-1.88"/><path d="M26.53,55.92c4.54-0.36,14.73-1.17,19.99-1.41"/><path d="M83.05,14.1c-0.09,1.22-0.95,1.84-1.9,2.43c-3.2,1.99-10.75,5.74-16.28,7.44"/><path d="M60.66,10.61c0.54,0.35,1.25,1.39,1.25,2.56c0,0.5-0.07,14.03-0.07,15.5c0,4.19,1.31,5.94,13.26,5.94c9.96,0,11.7-1.36,11.7-6.1"/><path d="M84.73,44.82c-0.23,0.68-0.6,1.18-1.66,1.72c-2.95,1.52-7.98,3.93-17.02,5.75"/><path d="M62.34,39.54c0.62,0.62,1.25,1.71,1.25,2.82c0,2.39-0.07,15.22-0.07,16.71c0,5.12,1.94,6.05,13.26,6.05c10.76,0,12.2-0.37,12.2-6.65"/><path d="M21.88,80.75c0.34,2.22-3.4,12-6.12,15.7"/><path d="M31.75,77c10.88,14.75,24.38,20.88,47.51,19.54c8.98-0.52,8.24-3.29,2.65-6.82"/><path d="M57.02,74.87c2.6,4.38,5.53,6.36,6.66,3.15"/><path d="M81.76,74.01c4.38,1.67,8.61,4.49,11.49,8.36"/></svg>