<svg><path d="M24.19,12.86c3.17,1.27,8.17,5.24,8.97,7.22"/><path d="M18.03,28.97c3.12,1.25,8.05,5.13,8.83,7.07"/><path d="M18.5,62.37c1.8,1.32,3.56,0.87,4.69-0.76c3.29-4.74,4.56-8.11,9.98-16.57"/><path d="M48.12,13.43c1.06,0.58,3.5,1.46,4.7,1.56c3.43,0.27,18.18-2.23,26.83-3.64c4.11-0.67,4.16,1.67,1.46,3.67c-1.38,1.02-12.64,10.25-14.22,11.4"/><path d="M56.64,20.96c2.96,1.1,10.62,5.35,12.02,8.23"/><path d="M47.56,31.47c0.54,0.51,0.91,1.37,1.09,1.88c0.18,0.52,0.18,30.98,0.18,32.14"/><path d="M49.29,33.16c6.25-0.21,33.66-2.99,35.31-3.14c2.97-0.26,4.08,1.67,3.71,2.44c-0.36,0.74-0.56,17.65-0.56,28.07c0,9.47-4.26,2.72-6.49,0.66"/><path d="M49.29,41.87c8.28-0.45,31.94-1.99,38.62-2.37"/><path d="M49.47,50.71c5.94-0.39,31.19-2.2,38.06-2.45"/><path d="M66.81,33.48c0.72,0.25,1.15,1.12,1.29,1.61c0.14,0.5,0,25.58-0.14,28.68"/><path d="M23.82,77.13C24.14,79.42,20.59,89.5,18,93.3"/><path d="M34.5,74.82c6.92,12.46,17.87,23.28,44.56,23.43c12.88,0.08,13.72-3.32,2.98-9"/><path d="M55.83,74.32c1.95,4.26,4.79,8.51,6.88,2"/><path d="M81.8,72.05c5.21,2.22,9.12,4.24,13.35,11.11"/></svg>