<svg><path d="M39.72,10.75c0.04,0.28-0.19,1.33-0.48,1.61c-3.86,3.8-7.58,7.2-15.96,10.43"/><path d="M21.76,22.16c0.82,0.77,0.75,1.34,0.75,3.08c0,15.92,0.3,34.44-9.2,48.2"/><path d="M22.73,26.62c1.63-0.07,19.88-2.33,21.36-2.42c1.24-0.07,1.94,1.07,1.94,2.13c0,0.92-2.17,17.65-2.17,18.1"/><path d="M23.02,34.78c2.2,0,19.18-1.62,21.67-1.62"/><path d="M22.92,43.91c4.49-0.32,14.67-1.19,20.26-1.47"/><path d="M24.22,53.26c1.64,0.47,3.14,0.24,3.64,0.17c4.54-0.67,14.9-2.45,17.14-2.76c1.45-0.2,1.85,0.92,1.77,2.35c-0.21,3.78-4.83,13.49-7.08,16.06c-2.1,2.4-4.15,1.16-5.74-0.7"/><path d="M59.46,14.79c0.24,0.66,0.7,1.34,0.82,2.08c1.22,7.38,0.22,15.63-6.53,19.17"/><path d="M60.24,16.31c3.17-0.03,14.46-2.44,15.95-2.88c2.22-0.66,2.87,1,2.64,2.45c-0.44,2.84-1.1,5.54-1.1,8.38c0,3.93,0.64,6.77,7.97,6.77c5.3,0,7.4-1.19,7.4-7.35"/><path d="M57.06,42.41c1.43,0.29,1.61,0.72,4.47,0.29c2.86-0.43,18.25-4.58,20.22-5.02c1.97-0.43,3.56,1.68,2.68,3.19c-6.88,11.76-19.57,23.65-34.52,29.08"/><path d="M57.31,47.67c3.21,0.48,18.9,13.35,30.09,18.62c1.74,0.82,3.01,1.37,4.63,1.64"/><path d="M24.06,82.38c0.38,2.25-3.78,12.17-6.81,15.92"/><path d="M34.25,78.82c6.86,10.47,17.71,19.55,44.16,19.68c12.76,0.06,14.09-4.29,3.45-9.06"/><path d="M55.58,76.82c1.95,4.45,4.79,8.91,6.88,2.09"/><path d="M78.8,74.05c5.31,1.92,9.29,3.67,13.6,9.61"/></svg>