<svg><path d="M14.75,35.62c0.02,4.47-1.43,14.65-2.72,18.12"/><path d="M31.27,33.08c3.1,1.35,8.02,5.54,8.79,7.63"/><path d="M24.62,16c1.19,1.19,1.21,3,1.21,4.75c0,1.79,0.02,46.77,0.03,66.25c0,3.82,0,6.52,0,7.5"/><path d="M44.82,23.93c2.68,0.57,5.12,0.46,7.07,0.18C63,22.5,76.57,21.18,84.75,20.6c2.03-0.14,4.62-0.1,6.47,0.36"/><path d="M65.61,13.75c0.76,0.76,1.24,1.62,1.24,2.75c0,4.38-0.01,8.25-0.01,16.55"/><path d="M51.09,34.89c0.88,0.88,1.27,1.98,1.27,3.89c0,6.34-0.1,19.5-0.04,28.22c0.02,3.08,0.03,5.15,0.03,5.3"/><path d="M52.97,35.75c6.28-0.62,24.1-3.19,26.77-3.36c2.22-0.14,3.78,0.74,3.79,3.8c0,3.23,0.08,18.95,0.1,27.7c0,3.17,0,5.42-0.02,5.83"/><path d="M53.58,46.78c10.67-0.81,20.3-1.91,28.67-2.52"/><path d="M53.28,57.81c7.75-0.48,19.4-1.87,28.97-2.18"/><path d="M53.3,69.49c11.54-1.17,19.93-2.14,29.47-2.73"/><path d="M41.84,79.83c2.49,0.84,5.48,0.49,8.03,0.29c8.82-0.69,26.53-2.32,37.5-2.62c2.51-0.07,5.06,0.04,7.53,0.54"/><path d="M57.79,85.47c0.13,0.87-0.07,1.64-0.6,2.33c-2.69,3.08-8.14,7.75-15.49,11.17"/><path d="M77,85.5c4.88,2,12.6,8.2,13.82,11.31"/></svg>