<svg><path d="M14.72,34.5c0.02,4.31-1.94,14.14-3.69,17.5"/><path d="M24.02,30.83c2.13,1.79,5.51,7.35,6.04,10.13"/><path d="M19.37,12.25c1.09,0.5,1.74,2.25,1.96,3.25c0.22,1,0,73.75-0.22,80"/><path d="M36.45,28.44c0.56,0.25,1.57,0.3,2.13,0.25c7.76-0.74,16.3-1.55,24.19-2.19c0.93-0.08,1.48,0.12,1.95,0.24"/><path d="M36.35,39.48c0.42,0.51,0.95,2,1.03,2.68c0.57,4.93,1.65,14.35,2.45,23.67"/><path d="M38.37,40.8c6.38-0.99,20.01-2.94,24.36-3.09c1.8-0.06,2.17,1.35,2.09,2.89c-0.26,5.31-1.71,13.55-3.14,22.25"/><path d="M39.07,52.01c4.81-0.26,15.48-2.64,24.7-3.3"/><path d="M40.27,63.75c5.59-1.02,14.13-2.01,21.41-2.01"/><path d="M32.48,76.39c0.93,0.6,2.62,0.56,3.57,0.6c7.45,0.27,16.45-1.73,25.5-3.19c1.53-0.25,2.97-0.13,3.75,0.17"/><path d="M49.22,13.63c0.51,0.56,1.71,3.1,1.71,5.3c0,8.24-0.43,70.99-0.53,77.97"/><path d="M92.02,14.5c0.04,0.4,0.19,1.18-0.09,1.61c-3.86,5.9-8.79,10.37-16.92,15.45"/><path d="M73.45,31.7c0.98,1.88,0.96,3.68,0.96,5.73c0,20.29,0.1,41.07-13.99,54.86"/><path d="M74.89,45.65c0.31,0.2,1.53,0.25,2.38,0.12C82,45,90.21,42.7,95.43,42.08c0.84-0.1,2.29-0.2,2.81,0"/><path d="M88.35,46.77c0.68,0.63,1.08,2.82,1.22,4.07c0.13,1.25,0,37.32-0.14,45.15"/></svg>