<svg><path d="M18.25,21.66c0.65,0.29,1.85,0.35,2.5,0.29c9.1-0.88,19.12-1.84,28.37-2.6c1.09-0.09,1.74,0.14,2.28,0.28"/><path d="M20.74,30.23c0.46,0.35,1.06,1.35,1.14,1.82c0.63,3.34,1.83,9.74,2.72,16.07"/><path d="M22.98,31.12c7.07-0.67,20.19-2.67,25.01-2.78c2-0.04,2.41,0.92,2.32,1.96c-0.29,3.6-1.81,9.19-2.98,15.78"/><path d="M23.76,38.73c5.33-0.17,15.16-1.79,25.39-2.24"/><path d="M25.09,46.7c6.19-0.69,14.17-2.04,22.24-2.04"/><path d="M15.72,56.13c0.87,0.54,2.43,0.61,3.32,0.54c8.91-0.66,21.33-2.73,29.63-3.37c1.44-0.11,2.76-0.12,3.48,0.15"/><path d="M33.32,10.84c0.63,0.41,2.09,2.3,2.09,3.93c0,6.12-0.52,48.36-0.65,53.54"/><path d="M83.25,11.5c0.05,0.27-0.27,1.31-0.61,1.6c-4.67,4.02-10.15,6.57-20,10.03"/><path d="M60.3,21.85c0.75,1.32,0.74,2.58,0.74,4.01c0,14.19-0.04,29.88-10.72,38.38"/><path d="M62.13,34.49c0.39,0.15,1.9,0.25,2.92,0.09c5.64-0.93,18.35-2.65,24.75-3.11c1.03-0.08,2.81-0.15,3.45,0"/><path d="M76.82,35.45c0.83,0.46,1.33,2.09,1.49,3.02c0.16,0.93,0,22.71-0.17,28.53"/><path d="M24.06,79.38c0.36,2.28-3.65,12.36-6.56,16.17"/><path d="M35.25,75.32c6.26,12.2,13.5,22.43,40.3,22.93c11.65,0.22,12.41-3.25,2.69-8.8"/><path d="M54.83,75.07c1.95,5.25,4.79,10.5,6.88,2.46"/><path d="M80.05,73.8c5.7,3.2,9.95,6.95,14.1,12.61"/></svg>