<svg><path d="M21.53,15.43c1.38,0.43,4.4,1,5.77,0.93c14.32-0.72,35.57-2.3,52.16-3.46c2.29-0.16,3.67,0.21,4.82,0.42"/><path d="M34.31,26.41c0.8,0.31,1.72,0.38,2.52,0.31c7.33-0.57,31.28-2.47,39.72-2.51c1.33-0.01,2.12,0.15,2.79,0.31"/><path d="M43.39,20.68c1,0.88,1.32,1.15,1.42,1.69c1,5.08,0.9,6.68,1.27,10.3"/><path d="M65.55,19.8c0.23,0.54,0.79,1.18,0.57,2.01c-1.26,4.87-0.83,4.81-2.21,9.39"/><path d="M53.77,31.65c0.54,0.41,0.53,1.3,0.23,2.02c-2.59,6.09-9.08,14.89-20.1,20.34"/><path d="M34.55,38.31c0.78,0.25,2.42,0.45,3.2,0.38c11.62-1.11,31.75-3.04,39.45-3.18c1.33-0.02,2.65,0.14,3.77,0.36"/><path d="M47.72,45.65c0.35,0.36,0.63,0.93,0.72,1.43c0.59,3.26,1.61,11.08,1.61,12.44"/><path d="M48.8,46.95c4.78-0.24,21.53-2.41,22.75-2.5c1.78-0.13,2.39,1.12,2.09,1.88c-0.93,2.39-2.84,7.33-2.99,9.85"/><path d="M50.2,57.65c4.5-0.13,17.54-1.47,22.35-1.47"/><path d="M25.4,16.56c0,2.91-0.68,45.06-0.68,47.79c0,2.36,0.87,3.07,2.39,2.91c17.4-1.82,48.81-4.04,55.77-3.86c2.83,0.07,5.22,0.55,6.96,0.91"/><path d="M24.56,79.13c0.36,2.25-3.65,12.17-6.56,15.92"/><path d="M36.5,75.07C42.98,86.73,53.23,96.85,78.22,97c12.06,0.07,13.35-3.61,3.29-8.92"/><path d="M59.83,74.07c2.17,5.25,5.32,10.5,7.63,2.46"/><path d="M82.55,71.05c4.33,1.77,7.58,3.38,11.1,8.86"/></svg>