<svg><path d="M14.47,36.5c0.02,4.31-1.81,14.14-3.44,17.5"/><path d="M24.52,33.58c2.13,1.74,5.51,7.17,6.04,9.88"/><path d="M19.37,13.25c1.09,0.5,1.74,2.25,1.96,3.25c0.22,1,0,75.25-0.22,81.5"/><path d="M63.64,15.39c0.06,0.26-0.51,1.65-0.87,1.94c-2.81,2.24-11.61,6.02-24.08,9.43"/><path d="M34.97,35.56c1.06,0.19,2.48,0.34,3.37,0.35C45,36,60.15,33.25,66.99,32.44c1.46-0.17,2.35,0.14,3.08,0.35"/><path d="M38.43,45.4c0.22,0.35,0.22,0.6,0.35,1.05c1,3.71,2.25,12.88,2.87,19.83"/><path d="M39.46,47.2c7.57-1.18,20.17-2.49,25.82-3.45c2.07-0.36,2.73,2.08,2.63,3.09c-0.39,3.7-1.52,10.41-2.47,16.6"/><path d="M40.6,55.14c4.4-0.39,23.96-2.43,26.03-2.65"/><path d="M42.25,64.09c6-0.59,14.98-1.54,22.64-2.46"/><path d="M51.99,24.91c0.72,0.41,1.16,1.92,1.3,2.79c0.14,0.87,0.5,52.69,0.35,58.14"/><path d="M37.56,74.94c0.65,0.2,2.83,0.7,3.47,0.66c6.71-0.39,17.91-2.55,22.64-3.12c1.06-0.13,2.21-0.1,2.74,0"/><path d="M37.22,90.66c0.6,1.03,1.67,2.18,4.28,0.9c10.04-4.92,11.93-5.37,23.66-10.54"/><path d="M72.59,40.4c0.84,0.67,1.87,0.49,2.62,0.36c7.29-1.26,13.87-3.34,17.18-4.03c2.15-0.45,3.61,1.02,3.63,3.15C96.1,51,91.5,81.5,85.41,91.6c-3.34,5.54-4.87,0.31-5.74-0.67"/><path d="M84.48,13.93c0.81,0.93,0.77,2.82,0.82,4.58c0.62,20.85-5.55,57.5-21.66,75.52"/></svg>