<svg><path d="M16.22,34.5c0.03,4.31-2.47,14.14-4.69,17.5"/><path d="M30.77,32.08c2.04,2.27,5.28,9.35,5.79,12.88"/><path d="M22.37,12.75c1.09,0.5,1.74,2.25,1.96,3.25c0.22,1,0,73.75-0.22,80"/><path d="M41.18,15.92c1.16,0.41,3.28,0.46,4.44,0.41C53.5,16,79.5,12.75,86.86,12.14c1.93-0.16,3.09,0.2,4.06,0.4"/><path d="M40.98,27.23c0.31,0.32,0.63,0.59,0.77,1c1.08,3.21,2.91,12.06,3.65,17.83"/><path d="M42.17,29.37c8.16-1.29,43.15-4.45,47.36-4.89c2.22-0.23,3.47,1.27,3.24,3.05c-0.5,3.96-2.86,9.66-4.81,15.26"/><path d="M54.8,16.87c0.83,0.51,1.39,2.27,1.49,3.3c0.32,3.05,1.08,14.48,1.85,21.6"/><path d="M72.95,16.81c0.83,0.51,0.89,2.76,0.86,5.08c-0.06,4.6-0.06,10.85-0.93,19.09"/><path d="M45.71,43.44c3.15-0.35,35.35-2.54,42.71-3.19"/><path d="M47.57,52.53c1.03,0.35,2.92,0.45,3.95,0.35c6.56-0.61,21.47-2.02,29.01-2.1c1.72-0.02,2.75,0.17,3.61,0.34"/><path d="M39.16,65.23c1.12,0.27,3.17,0.31,4.29,0.27c8.31-0.33,36.02-2.75,48.17-3.1c1.86-0.05,2.99,0.13,3.92,0.26"/><path d="M64.71,66.93c0.11,0.48,1.52,2.5,1.52,5.54c0,7.2-0.01,14.75-0.01,19.72c0,6.86-4.02,2.54-6.28,0.29"/><path d="M50.58,74.43c0.04,0.49,0.08,1.27-0.07,1.98c-0.88,4.17-6.56,10.41-15.53,16.49"/><path d="M80.83,74.52c4.71,3.08,12.38,12.32,13.56,17.11"/></svg>