<svg><path d="M15.98,34.5c0,6.34-3.53,15.69-4.45,17.5"/><path d="M32.39,29.46c2.09,1.77,5.4,7.26,5.92,10.01"/><path d="M24.12,13c1.13,1.13,1.21,2.5,1.21,4.5c0,4.64,0.02,52.19,0.03,71.75c0,4.66,0,7.73,0,8.25"/><path d="M46.6,13.89c0.82,0.82,1.12,2.15,1.33,3c0.96,3.51,1.96,9.36,2.75,14.8c0.18,1.24,0.33,2.47,0.46,3.63"/><path d="M48.33,15.15c9.15-0.95,25.05-2.52,33.9-2.87c3.13-0.12,3.83,0.98,3.38,3.73c-0.57,3.48-1.91,8.96-2.84,13.78c-0.29,1.53-0.57,2.99-0.81,4.31"/><path d="M50.68,24.66c6.69-0.79,20.82-2.29,32.42-2.75"/><path d="M52.36,34.3c9.96-1.04,19.52-2.05,28.86-2.26"/><path d="M41.78,43.52c0.58,0.58,0.91,1.28,1,2.09c0.58,2.12,1.19,5.07,1.77,8.63c0.21,1.31,0.4,2.59,0.54,3.75"/><path d="M43.54,44.4c6.21-0.79,32.59-3.4,42.86-3.84c2.83-0.12,5.34,0.1,4.62,3.54c-0.43,2.05-0.98,4.12-1.9,6.94c-0.37,1.13-0.76,2.29-1.18,3.46"/><path d="M57.73,43.85c0.65,0.65,0.87,1.17,0.97,2.13c0.36,3.36,0.75,6.65,0.88,8.26"/><path d="M73.21,42.45c0.67,0.67,0.58,1.73,0.48,2.82c-0.31,3.48-0.51,5.36-0.76,7.85"/><path d="M46.17,56.73c11.58-1.36,28.08-2.86,40.92-3.34"/><path d="M50.75,65.56c2.29,0.5,4.52,0.47,6.87,0.1c4.83-0.76,14.47-2.58,18.54-3.64c2.97-0.78,4.88,0.95,3.34,3.81C70.5,82.5,58.5,92.25,40.27,98"/><path d="M50.18,72.06c4.56,0.4,18.69,12.19,32,20.93c2.21,1.45,4.45,2.76,7.92,3.94"/></svg>