<svg><path d="M33.3,12.25c0.05,0.37,0.24,1.03-0.1,1.48c-2.36,3.2-9.47,10.93-16.4,14.19"/><path d="M34.9,28.17c0.06,0.56,0.28,1.54-0.11,2.23c-2.75,4.81-10.33,14.45-20.04,21.32"/><path d="M28.67,41.49c0.35,0.17,1.03,1.12,1.1,1.47c0.07,0.35,0,23.36-0.07,25.54"/><path d="M54.45,11.42c0,0.56,0.03,1-0.1,1.67c-0.66,3.48-6.95,15.07-12.34,20.21"/><path d="M53.7,21.62c2.68,1.24,6.11,4.55,7.42,7.68"/><path d="M79.22,10.26c0,0.53,0.03,0.95-0.1,1.59c-0.67,3.32-7.1,14.38-12.59,19.29"/><path d="M76.33,21.93c3.83,1.6,8.73,5.85,10.59,9.89"/><path d="M62.38,37.4c0.38,0.31,1.26,1.69,1.26,2.32c0,4.26,0.34,15.03,0.27,18.93"/><path d="M63.99,46.14 C65.2,46.14 73.7,45.02 81.15,44.1 C82.73,43.9 84.22,43.89 85.46,43.89 "/><path d="M49.95,40.32c0.07,0.53,0.5,1.36,0.34,2.13c-1.41,6.7-3.79,14.29-13.21,24.46"/><path d="M46.97,53.65c11.41,2.62,30.97,10.47,38.42,11.82c2.36,0.43,4.33,0.83,6.61,1"/><path d="M23.81,81.88c0.4,2.25-4.06,12.17-7.31,15.92"/><path d="M34.5,76.82c6.7,11.93,17.3,22.29,43.14,22.43c12.47,0.07,13.28-3.18,2.88-8.61"/><path d="M55.33,75.32c2.17,5.25,5.32,10.5,7.63,2.46"/><path d="M80.55,74.8c5.7,2.07,9.97,3.96,14.6,10.36"/></svg>