<svg><path d="M27.55,15.43c0.03,0.3,0.07,0.79-0.06,1.23c-0.75,2.58-5.06,8.25-10.97,11.73"/><path d="M40.23,14.68c4.55,2.35,10.09,6.82,11.65,9.22"/><path d="M36,24.69c0.06,0.58,0.33,1.6-0.12,2.33C31.93,33.38,24.15,43,14.18,49.29"/><path d="M37.78,30.25c3.99,1.46,11,6.65,13.41,9.17"/><path d="M22.97,45.9c0.28,0.29,0.56,0.54,0.68,0.9c0.96,2.9,2.12,10.9,2.78,16.11"/><path d="M24.27,47.51c7.6-1.34,16.86-3.18,21.51-3.76c1.59-0.2,2.56,1.33,2.32,2.19c-1.16,4.14-2.91,7.86-3.98,12.95"/><path d="M27.18,60.66c6.12-0.4,11.96-1.15,18.98-1.77"/><path d="M67.89,12.25c0.03,0.5,0.06,1.28-0.06,1.99c-0.76,4.2-5.13,13.41-11.11,19.05"/><path d="M66.82,22.25c0.82,0.26,2.36,0.67,3.59,0.44c1.5-0.28,16.63-3.07,18.06-3.07c1.43,0,2.98,1.73,1.55,3.29c-1.43,1.56-3.28,3.6-7.1,7.65"/><path d="M70.82,29.26c0.68,0.74,0.93,1.92,0.9,3.03C71.44,42.4,65.25,55.5,53.3,61.25"/><path d="M70.74,39.18c3.33,3.77,15.33,15.08,21.32,19.11c1.26,0.85,2.22,1.35,3.41,1.63"/><path d="M21.39,78.07c0.35,2.28-3.51,12.36-6.31,16.17"/><path d="M32.58,74.25c7.02,11.93,18.11,22.28,45.17,22.43c13.05,0.07,13.91-3.18,3.02-8.61"/><path d="M53.41,73.25c1.88,5.25,4.62,10.5,6.63,2.46"/><path d="M76.13,67.73c5.11,1.87,8.95,3.57,13.1,9.36"/></svg>