<svg><path d="M16.72,34.5c0.03,4.31-2.47,14.14-4.69,17.5"/><path d="M31.77,30.33c2.04,2.05,5.28,8.44,5.79,11.63"/><path d="M23.37,11.75c1.09,0.5,1.74,2.25,1.96,3.25c0.22,1,0,76.25-0.22,82.5"/><path d="M67.4,10.13c0.58,0.37,1.82,2.75,1.94,3.49c0.12,0.74,0.06,5.45-0.06,10.04"/><path d="M44.08,25.03c1.17,0.52,3.32,0.6,4.49,0.52c12.19-0.87,26.54-2.79,41.83-3c1.95-0.03,3.12,0.25,4.1,0.51"/><path d="M46.33,25.68c0.04,1.54-0.07,3.98-0.07,6.21c0,14.61-1,43.11-12.45,58.92"/><path d="M53.72,34.32c1.51,0.19,2.23,0.94,3.62,0.87c9.41-0.45,20.12-2.88,26.76-2.88c1.96,0,3.32,0.93,3.02,2.8C86.33,40,86.26,40.9,85.21,49.3"/><path d="M49.1,43.51c1.36,0.19,2.42,0.54,3.92,0.37c13.12-1.49,30.88-3.09,41.29-3.65c1.66-0.09,3.02,0.37,3.77,0.56"/><path d="M52.9,51.74c0.81,0.09,2.28,0.33,3.25,0.28c8.93-0.46,20.01-1.86,28.64-2.55c1.29-0.1,2.11,0,3.08,0.09"/><path d="M51.97,58.76c0.48,0.75,0.79,1.49,0.95,2.23c0.16,0.74,0.16,32.55,0.16,34.22"/><path d="M53.37,60.67c7.88-0.67,31.65-2.81,33.06-3.01c2.53-0.37,3.48,2.42,3.17,3.53c-0.3,1.07-0.47,14.1-0.47,29.16c0,10.74-4.66,1.6-5.67,0.96"/><path d="M53.87,70.24c7.06-0.65,28.92-2.81,34.62-3.37"/><path d="M53.52,80.08c5.07-0.56,29.55-2.77,35.41-3.14"/><path d="M68.99,27.56c0.84,0.48,1.51,2.14,1.51,3.11c0,8.34-0.17,54.84-0.17,64.85"/></svg>