<svg><path d="M17.72,39c0.03,3.95-2.47,12.93-4.69,16"/><path d="M33.52,33.58c2.49,2.1,6.42,8.62,7.04,11.88"/><path d="M24.87,15.75c1.09,0.5,1.74,2.25,1.96,3.25c0.22,1,0,73.75-0.22,80"/><path d="M43.35,20.24c1.29,0.5,3.66,0.6,4.95,0.5c12.62-1.05,26.95-2.49,38.55-3.61c2.15-0.21,3.45,0.24,4.52,0.49"/><path d="M46.81,28.75c0.6,0.4,1.37,1.91,1.48,2.45c0.81,3.86,1.85,12.32,3.04,20.42"/><path d="M49.12,30.71c9.88-1.21,30.21-4.24,36.45-4.36c2.58-0.05,2.79,1.22,2.6,3.33c-0.38,4.16-1.42,11.22-2.96,18.71"/><path d="M51.78,39.76c6.9-0.2,21.8-3.01,34.79-3.01"/><path d="M51.38,49.42c8.02-0.8,23.4-2.78,33.84-2.78"/><path d="M66.06,9.5c0.61,0.6,1.63,1.75,1.63,5.66c0,1.2-0.08,37.13-0.2,44.59"/><path d="M43.68,61.56c0.7,0.83,2.51,1.27,3.51,1.21c3.29-0.2,35.37-4.93,41.5-5.77"/><path d="M81.69,52.37c4.44,1.9,11.47,7.8,12.58,10.75"/><path d="M42.13,74.67c1.28,0.8,3.62,0.96,4.91,0.8C59.02,74,82,72,93.39,70.79c2.13-0.23,3.42,0.38,4.49,0.78"/><path d="M80.67,62.58c0.06,0.4,0.84,2.06,0.84,4.58c0,16.93-0.17,20.67-0.17,24.78c0,9.99-5.05,1.48-6.52,0.21"/><path d="M56.51,81.12c2.59,1.68,6.68,6.89,7.33,9.5"/></svg>