<svg><path d="M53.25,10.88c1,1,1.4,1.99,1.4,3.12c0,0.67-0.02,1.37-0.02,5.99"/><path d="M23.13,22.98c1.52,0.54,4.31,0.7,5.82,0.54c1.18-0.12,2.36-0.25,3.55-0.37c15.24-1.61,31.44-3.5,46.24-4.25c2.61-0.13,5.07-0.13,7.64,0.42"/><path d="M25.99,23.75c0.88,0.88,1.16,2,1.16,3.88c0,15.12-2.28,46.87-14.85,63.34"/><path d="M35.75,32.23c2.48,0.65,4.72,0.36,7.24,0.08c11.01-1.2,26.9-3.43,32.75-4.06c3.02-0.33,5.66,0.04,4.52,3.66c-0.73,2.32-1.38,3.67-2.41,6.48"/><path d="M47.85,26.88c0.7,0.7,1.02,1.62,1.11,2.68c0.05,0.61,0.58,8.22,1.01,12.34"/><path d="M63.48,24.59c0.65,0.65,0.91,1.78,0.87,2.36c-0.19,2.56-0.74,7.97-1.38,11.94"/><path d="M35.47,42.76c2,0.68,4.88,0.34,6.92,0.09c7.84-0.97,23.66-3.11,31.61-3.77c2.18-0.18,4.43-0.36,6.6,0.08"/><path d="M32.49,51.18c2.83,0.73,5.55,0.23,8.38-0.21C56.5,48.5,72.5,46.38,83,46.35c9.41-0.02,1.99,5.59-0.35,7.24"/><path d="M35.28,59.47c0.31,1.43-3.11,7.76-5.6,10.15"/><path d="M42.5,57.37c7.75,8.38,18.5,9.88,30.49,8.63c6.1-0.64,6.51-2.74,2.01-5.49"/><path d="M54.6,54.44c1.04,1.56,3.5,4.03,4.15,1.84"/><path d="M69.09,51.65c2.69,0.73,4.71,1.39,6.9,3.64"/><path d="M47.17,67.75c0.11,1.16-0.24,1.92-0.81,2.97c-2.74,5.03-8.74,13.16-17.62,19.47"/><path d="M48.29,74.78c1.27,0.09,2.6-0.05,3.85-0.24c3.81-0.58,10.03-2.03,13.39-2.52c2.67-0.39,3.73,1.48,2.5,3.52C64.4,81.48,50.62,95.25,33,99.75"/><path d="M43.75,79.53c6.34,1.18,22.2,9.34,32.31,14.08c3.74,1.75,6.93,3.01,11.43,4.08"/></svg>