<svg><path d="M16.22,36.25c0.03,4.25-2.21,13.94-4.19,17.25"/><path d="M30.27,33.58c2.22,2.1,5.74,8.62,6.29,11.88"/><path d="M21.87,15.25c1.09,0.5,1.74,2.25,1.96,3.25c0.22,1,0,73.75-0.22,80"/><path d="M38.25,19.07c2.1,0.74,1.47,0.74,4.55,0.5c6.27-0.5,12.55-2.26,14.46-2.37c2.17-0.12,3.42,0.99,3.49,3c0.08,2.22-0.31,23.36-0.31,30.43"/><path d="M51.07,21.45c0.03,0.29,0.07,0.76-0.07,1.18c-0.82,2.5-5.53,7.99-11.98,11.35"/><path d="M56.2,30.11c0.05,0.5,0.1,1.3-0.09,2.02c-1.12,4.25-7.58,13.58-16.42,19.28"/><path d="M66.57,17.09c2.09,0.77,1.73,0.77,4.79,0.51c6.24-0.52,13.79-2.31,15.7-2.39c4.28-0.18,4.1,0.91,4.1,3.04c0,3.41-0.52,23.88-0.52,31.17"/><path d="M79.63,19.97c0.03,0.28,0.07,0.73-0.07,1.14C78.7,23.51,73.8,28.77,67.09,32"/><path d="M86.78,26.41c0.05,0.47,0.11,1.2-0.1,1.87c-1.26,3.95-8.51,12.61-18.43,17.91"/><path d="M66.26,52.25c0.49,0.46,0.14,1.57-0.06,1.93c-1.95,3.57-4.95,7.57-8.79,10.92"/><path d="M49.18,65.51c0.55,0.74,1.04,1.12,1.12,2.1c0.29,3.89,2.8,24.27,3.02,29.14"/><path d="M50.62,67.75c3.14-0.12,30.64-3.67,33.5-3.81c2.39-0.12,3.24,1.08,2.96,4.06c-0.44,4.75-1.22,15.75-2.69,27.67"/><path d="M52.45,80.48c6.56-0.98,26.66-2.98,33.38-3.32"/><path d="M54.24,93.39c6.29,0,20.36-1.07,28.49-1.07"/></svg>