<svg><path d="M27.87,13.78c2.11,0.82,5.69,0.71,7.88,0.48c10.95-1.17,25.01-2.38,39.01-3.53c2.78-0.23,5.25-0.6,7.89-0.29"/><path d="M53.55,15.67c0.21,0.37,0.24,0.83,0.19,1.16c-0.2,1.36-1.5,4.05-3.05,6.42"/><path d="M40.01,25.08c0.77,0.77,1.01,1.79,1.01,3.41c0,8.26-0.02,14.01-0.02,21.26"/><path d="M42.07,26.42c4.26-0.58,18.96-2.53,24.57-3.15c2.74-0.3,4.29,0.09,4.29,3.1c-0.01,5.03-0.05,14.46-0.05,19.96"/><path d="M42.5,34.21c6.75-0.46,22.74-2.61,27.09-2.61"/><path d="M41.82,42.01c8.18-0.76,18.43-1.76,27.8-2.37"/><path d="M21.08,50.69c0,3.29-2.81,12.35-4.08,14.55"/><path d="M22.02,53.24C40.5,50.88,59,48.88,86.14,46.59c11.13-0.94,2.36,5.78-0.42,7.79"/><path d="M32.28,60.17c0.28,1.61-2.77,8.74-4.99,11.43"/><path d="M41.91,57.89C50.25,66.75,57.75,68.25,71,68.25c7,0,7.75-1.5,0.25-6"/><path d="M54.82,55.25c2.61,5.36,4.71,5.13,5.42,1.86"/><path d="M72.41,52.56c2.63,1.2,4.6,2.29,6.74,5.99"/><path d="M48.82,69.25c0.15,1.19-0.45,2.11-1.27,3.02C43.75,76.5,35.75,84.75,23.5,91.25"/><path d="M47.3,76.76c0.3,0.02,1.55,0,2.4-0.07c2.55-0.19,8.78-1.72,12.92-2.47c3.55-0.64,4.86,0.6,2.57,3.57c-5.39,7-20.4,18.35-36.68,22.7"/><path d="M42.25,80.25c5.05,2.6,24.7,11.4,35.15,15.44c3.1,1.2,6.13,1.79,9.35,2.56"/></svg>