<svg><path d="M17.47,40.25C17.5,44.63,15.4,54.6,13.53,58"/><path d="M30.02,34.58c2.84,1.74,7.33,7.17,8.04,9.88"/><path d="M25.62,14.75c1.06,1.06,1.21,2.5,1.21,4.25c0,0.67,0.05,49.81,0.04,70c0,5.04,0,8.28-0.01,8.5"/><path d="M49.38,14.38c3.17,2.05,8.19,8.41,8.99,11.6"/><path d="M82.04,11.06c0.09,0.82-0.01,1.61-0.28,2.37C80,16.5,77.3,20.35,72.64,25.19"/><path d="M42.91,32.05c0.9,0.9,1.44,2.1,1.59,3.07c1.01,6.5,2.05,12.27,2.8,18.87c0.17,1.53,0.34,3.01,0.48,4.39"/><path d="M44.99,32.92c14.13-1.79,31.96-3.62,43.53-4.58c3.97-0.33,5.72,2.17,5,5.43c-0.85,3.78-2.07,9.6-3.26,15.49c-0.36,1.79-0.71,3.59-1.02,5.35"/><path d="M66.8,32.03c0.84,0.84,0.98,1.6,0.98,2.98c0,5.16,0.04,10.55,0.04,17.95"/><path d="M47.23,44.35c8.9-1.1,33.15-3.47,43.83-3.9"/><path d="M48.9,55.92c11-1.03,27.59-3.03,39.44-3.68"/><path d="M52.12,65.65c0.86,0.86,1.06,2.22,1.06,3.87c0,8.98,0.06,13.58,0.05,21.48c0,1.87,0,3.78,0,5.75"/><path d="M53.35,66.67c5.3-0.47,20.25-2.28,26.15-2.86c3.43-0.33,4.93,0.95,4.83,4.45c-0.12,4.55-0.03,11.5-0.03,21.5c0,1.93-0.03,3.94-0.03,6.03"/><path d="M54.34,80.37c7.66-0.87,24.24-2.66,28.82-2.66"/><path d="M54.48,94.29c9.64-0.79,19.39-1.79,28.67-2.16"/></svg>