<svg><path d="M23.62,18.29c1.24,0.32,3.53,0.79,4.77,0.69c12.95-1.07,36.28-2.79,50.89-3.23c2.08-0.06,3.32,0.06,4.36,0.2"/><path d="M52.76,9.26c0.86,0.25,1.37,1.22,1.54,1.77c0.17,0.56,0.01,12.13-0.16,15.66"/><path d="M32.93,27.71c1.03,0.16,2.9,0.12,3.93,0.08c8.88-0.3,27.13-2.05,38.46-2.51c1.71-0.07,2.74,0.02,3.59,0.09"/><path d="M34.24,33.47c0.27,0.18,0.55,0.33,0.66,0.56c0.94,1.79,2.06,6.73,2.7,9.95"/><path d="M35.92,34.73c6.53-0.71,33.16-2.86,36.52-3.1c1.23-0.09,1.97,0.88,1.8,1.39c-0.73,2.12-1.22,3.64-2.79,6.7"/><path d="M37.87,42.79c4.01-0.29,30.55-2.5,35.64-2.79"/><path d="M39.27,46.37c1.25,0.91,3.23,3.73,3.54,5.14"/><path d="M68.54,43.76c0.01,0.2,0.03,0.51-0.03,0.79c-0.34,1.67-2.29,5.34-4.95,7.59"/><path d="M13.25,55.62c1.83,0.3,5.19,0.41,7.01,0.3C35.75,55,67.45,52.41,87.85,52c3.05-0.06,4.65,0.25,6.4,0.79"/><path d="M34.78,61.28c0.46,0.21,1.02,0.34,1.13,0.66c1.09,3.31,2.34,9.56,3.08,13.77"/><path d="M37.64,62.41c11.23-0.89,28.91-2.45,34.7-2.75c2.12-0.11,2.39,2.1,2.09,2.75c-1.26,2.66-1.1,3.92-3.79,7.76"/><path d="M38.95,72.81c6.8-0.34,25.76-1.98,34.39-2.32"/><path d="M24.82,82.13C25.14,84.42,21.59,94.5,19,98.3"/><path d="M34,80.32c6.17,10.33,12.75,19.43,39.7,19.43c11.47,0,12.72-3.76,3.15-8.46"/><path d="M55.33,81.32c2.17,5.25,5.32,10.5,7.63,2.46"/><path d="M77.3,78.05c6.19,2.02,10.83,3.86,15.85,10.11"/></svg>