<svg><path d="M16.22,35c0.03,4.31-2.47,14.14-4.69,17.5"/><path d="M26.52,27.83c3.37,1.79,8.7,7.35,9.54,10.13"/><path d="M22.37,12.25c1.09,0.5,1.74,2.25,1.96,3.25c0.22,1,0,76.25-0.22,82.5"/><path d="M52.96,12.5c0.17,1.71-0.05,3.94-0.58,5.4c-3.41,9.31-7.74,17.19-15.56,28.53"/><path d="M46.37,30.98c0.47,0.71,0.99,1.74,1.03,3.04c0.34,9.82-0.55,36.2-0.23,40.81"/><path d="M72.45,13.54c0.08,0.85-0.02,1.97-0.28,2.7C70.5,20.9,68.4,24.5,64.6,30.16"/><path d="M47.19,32.31c7.61-0.85,39.63-2.32,42.89-2.78"/><path d="M65.86,33.24c0.37,0.33,1.07,2.86,1.07,3.44c0,5.85,0.04,23.62-0.18,32.82"/><path d="M48.21,45.52c7.18-0.7,37.94-2.25,41.03-2.63"/><path d="M47.34,58.41c7.58-0.59,37.67-1.86,40.92-2.18"/><path d="M47.34,71.46c7.61-0.85,41.98-1.47,45.24-1.93"/><path d="M41.22,82.95c0,5.45-5.28,13.5-6.45,15.05"/><path d="M53.8,81.91c1.48,2.71,2.88,10.16,3.25,14.37"/><path d="M69.3,80.2c1.73,2.72,4.47,11.19,4.9,15.42"/><path d="M84.38,78.97c3.94,3.11,10.19,12.8,11.17,17.64"/></svg>