<svg><path d="M17.41,35.5c0,6.97-5.02,17.26-6.33,19.25"/><path d="M33.52,26.33c2.4,1.39,6.19,5.72,6.79,7.88"/><path d="M25.37,12.25c1,1,1.46,2.38,1.46,4c0,0.87,0.08,53.91,0.04,75c-0.01,3.59-0.01,6.23-0.01,7.5"/><path d="M48.5,21.77c1.86,0.54,3.61,0.34,5.5,0.09c6-0.77,18.09-2.45,25.24-2.93c2.01-0.14,4.02-0.23,6.01,0.12"/><path d="M64.94,9.75c0.84,0.84,1.11,1.62,1.11,3c0,4.13,0,11.2-0.08,16.25c-0.02,1.37-0.04,2.58-0.08,3.5"/><path d="M38.41,39.07c2,0.81,4.97,0.52,7.09,0.3c11.3-1.19,34.86-3.99,46.37-4.58c2.25-0.12,4.51-0.23,6.71,0.31"/><path d="M53.98,29.18c0.95,1.02,1.02,2.19,1.1,3.45c0.41,6.36,0.67,8.87,0.78,12.24"/><path d="M82.03,25.88c0.33,1.2,0.37,2.06,0.07,3.27c-1.35,5.44-2.04,7.75-3.58,13.16"/><path d="M52.3,48.72c0.93,0.93,0.95,1.91,0.95,3.42c0,4.86,0.12,16.67,0.12,26.94c0,1.98-0.01,3.88-0.12,4.67"/><path d="M54.07,49.88c2.43-0.11,18.71-2.08,24.43-2.78c3.14-0.39,4.95-0.11,4.9,3.28c-0.08,4.97,0.01,18.22,0.01,25.88c0,1.75-0.03,5.55-0.03,5.75"/><path d="M54.55,59.96c7.2-0.96,21.95-2.71,27.68-2.88"/><path d="M54.53,70.41c9.09-1.03,20.47-2.53,27.73-3.11"/><path d="M54.42,81.25C64.25,80,73,79,82.26,78.18"/><path d="M60.46,86.47c0.04,1.28-0.5,2.17-1.5,2.98c-3.02,2.45-10.83,7.23-16.87,10.13"/><path d="M75.62,85.38c6.64,3.74,14.48,10.53,16.29,13.8"/></svg>