<svg><path d="M40.96,12c-0.08,0.88-0.74,1.85-1.28,2.31c-2.94,2.49-8.89,6.43-20.12,9.61"/><path d="M13.97,36.53c1.67,0.44,4.07,0.3,5.78,0.18c8.96-0.65,18.62-2.21,27.5-3.41c1.56-0.21,2.98-0.22,4.53,0.03"/><path d="M34.32,21.82c0.74,0.74,0.95,2.05,0.95,3.21c0,1.07-0.05,19.53-0.14,23.21"/><path d="M22.36,49.34c0.72,0.54,1.03,1.29,1.26,2.16c1.01,3.87,1.76,7.98,2.46,12.19c0.18,1.08,0.34,2.11,0.48,3.05"/><path d="M24.59,50.44c7.27-1.12,13.29-2.19,18.78-2.98c2.92-0.42,4.42,0.29,3.45,3.59c-0.88,3.02-1.41,6-2.67,10.22"/><path d="M27.39,64.69c6.09-0.83,8.64-1.21,15.38-2.07c0.85-0.11,1.77-0.21,2.76-0.32"/><path d="M73.17,10.67c0.37,0.15-0.34,2.7-0.57,3.15c-1.52,2.98-3.08,7.03-6.67,10.95"/><path d="M60.1,24.31c0.98,0.98,1.12,1.94,1.12,3.43c0,0.92-0.09,22.01-0.06,31.25c0.01,2.41,0.03,4.01,0.06,4.25"/><path d="M61.98,25.92c2.34-0.13,18.33-2.09,23.03-2.58c2.93-0.3,4.39,0.24,4.42,3.41c0.04,4.66-0.02,22.12-0.02,30.76c0,2.28,0.12,3.76,0.09,3.93"/><path d="M62.19,36.92c5.94-0.67,21.93-2.6,26.06-2.6"/><path d="M62.4,48.39c6.83-0.49,17.6-1.89,25.8-2.24"/><path d="M62.39,60.5c6.11-0.5,19.36-1.8,25.99-1.8"/><path d="M22.63,80.62c0.31,2.28-3.08,12.32-5.55,16.11"/><path d="M31.25,76c7.62,11.62,16,23.18,49.08,23.18c9.97,0,9.84-3.2,3.08-7.95"/><path d="M53.27,74.75C55.5,80,58.5,86.5,60.89,78.46"/><path d="M77.7,70.23c4.92,2.02,10.42,5.52,14.28,10.61"/></svg>