<svg><path d="M52.7,10.72c0.91,0.91,1.3,2.47,1.27,3.55c-0.08,3.41-0.08,4.97-0.09,8.07"/><path d="M24.12,23.62c0,3.66-3.6,13.72-5.24,16.16"/><path d="M24.85,26.55c12.9-1.18,44.53-5.3,59.95-5.79c10.55-0.33,1.99,7.02-0.64,8.87"/><path d="M36.92,35.06c1.83,0.44,3.8,0.27,5.55,0.06c6.28-0.74,16.15-2.5,23.91-3.32c1.61-0.17,3.19-0.16,4.81-0.04"/><path d="M53.1,24.88c1.01,1.01,1.37,2.37,1.37,3.54c0,3.58-0.09,15.1-0.09,21.95"/><path d="M37.39,44.08c1.86,0.42,3.8,0.3,5.49,0.01c6.65-1.17,17.17-2.53,22.61-3.12c1.66-0.18,3.31-0.3,4.98-0.21"/><path d="M30.36,53.95c2.13,0.5,4.5,0.18,6.64-0.02c8.22-0.76,25.13-2.99,33.5-3.62c2.24-0.17,5.62-0.18,8,0.19"/><path d="M29.5,62c0.81,0.81,1.64,1.88,1.81,2.85c0.84,2.16,1.48,4.78,2.18,7.82c0.25,1.07,0.48,2.11,0.67,3.04"/><path d="M32.11,63.39c6.73-1.1,32.81-4.06,41.54-5.08c3.72-0.44,4.97,1.44,4.33,3.72c-0.52,1.85-1,3.36-1.87,5.76c-0.39,1.09-0.81,2.17-1.24,3.15"/><path d="M45.5,62.63c0.56,0.56,0.97,1.39,1.17,2.34c0.54,2.56,1.16,4.96,1.32,6.11"/><path d="M60.9,60.75c0.49,0.49,0.68,1.28,0.63,2.11c-0.18,2.67-0.48,5.57-0.62,6.63"/><path d="M34.71,73.49c3.44-0.52,31.29-3.24,39.56-3.66"/><path d="M25.37,82.12c0.24,2.12-2.44,11.48-4.38,15.01"/><path d="M37.85,82.42C48.25,95.25,58,99.12,76.81,98.55c5.85-0.18,7.19-3.05,2.13-6.72"/><path d="M54.52,78.87c1.73,4.26,5.22,8.3,6.12,3.92"/><path d="M79.72,77.6C85,80.12,89,83.12,92.26,87.47"/></svg>