<svg><path d="M38.92,13.39c0.54,0.26,3.36,1.17,4.31,1.05C46.75,14,58.4,11.7,60.38,11.37c1.98-0.33,2.66,1.37,1.47,2.43c-2.03,1.83-7.21,7.52-8.46,8.82"/><path d="M44.64,20.65c2.53,0.79,9.07,3.84,10.26,5.91"/><path d="M38.09,29.84c0.59,0.15,1.47,0.78,3.96,0.51c5.1-0.55,16.03-2.21,20.91-2.88C70,26.5,64.5,32,61.55,35.7"/><path d="M54.36,29.47c0,6.3,0.21,13.77,0.21,26.03c0,8.44-5.08,1.25-6.36,0.03"/><path d="M53.49,30.17c0.05,0.5,0.28,1.34-0.1,2.01c-3.01,5.34-7.37,12.09-17.15,19.21"/><path d="M11,25.94c0.62,0.16,2.51,0.14,4.17,0c5.83-0.48,13.12-1.79,19.38-2.11c1.66-0.09,2.92-0.48,3.96-0.32"/><path d="M25,11.7c1.25,0.37,2,1.65,2.25,2.39c0.25,0.73,0,41.84-0.25,46.43"/><path d="M27.25,27.32C24.57,35.29,16.58,48.65,11,53.17"/><path d="M29,33.25c3.03,1.94,6.27,5.82,8,9.21"/><path d="M67.75,23.06c0.46,0.14,1.45,0.22,2.67,0.14c4.31-0.28,11.36-1.75,19.78-2.44c1.22-0.1,2.29-0.14,3.05,0"/><path d="M77.75,10.5c1.25,0.37,2,1.65,2.25,2.39c0.25,0.73,0,42.28-0.25,46.86"/><path d="M79.75,24.12c-2.8,9.45-11.51,22.6-18,27.45"/><path d="M80.25,26.57c4.1,7.75,10.65,17.7,13.98,20.77c0.95,0.87,1.48,1.47,2.27,1.77"/><path d="M24.31,77.88c0.41,2.21-4.06,11.98-7.31,15.67"/><path d="M34,72.07c6.58,13.79,16.97,25.26,42.33,25.43c12.23,0.08,13.03-3.18,2.83-9.45"/><path d="M55.33,73.07c2.02,4.65,4.97,9.31,7.13,2.18"/><path d="M81.3,70.55c4.63,2.07,8.09,3.96,11.85,10.36"/></svg>