<svg><path d="M15.72,37.25c0.03,4.25-2.21,13.94-4.19,17.25"/><path d="M30.77,33.58c2.04,2.54,5.28,10.43,5.79,14.38"/><path d="M21.87,12.75c1.09,0.5,1.74,2.25,1.96,3.25c0.22,1,0,75.75-0.22,82"/><path d="M61.19,11.14c0.03,0.34,0.05,0.88-0.05,1.36c-0.65,2.88-4.37,9.2-9.46,13.06"/><path d="M46.65,26.52c0.41,0.79,0.68,2.06,0.54,3.49c-0.14,1.43,0.14,34.07,0.14,36.45"/><path d="M47.67,27.61c7.52-0.96,32.98-3.94,34-4.16c2.17-0.48,3.77,1.66,3.53,2.4C84.8,27.11,84.9,61.35,84.9,65"/><path d="M72.69,27.07c0.05,0.19,0.07,0.47-0.1,0.78c-1.39,2.54-9.49,5.92-17.9,6.97"/><path d="M54.81,38.81c1.15,0.97,2.89,3.72,3.18,5.23"/><path d="M76.02,36.08c0.01,0.18,0.09,0.48-0.03,0.73c-0.99,1.96-2.59,4.27-5.87,6.97"/><path d="M52.79,46.89c0.33,0.12,1.21,0.33,2.08,0.37c2.41,0.12,17.91-2.55,22.57-2.97c0.88-0.08,1.1-0.12,1.64,0"/><path d="M64.65,34.21c0.55,0.25,0.88,1.11,0.99,1.6c0.11,0.49,0,20.41-0.11,23.49"/><path d="M64.98,46.33c-2.11,4.23-7.23,10.16-11.97,12.6"/><path d="M68.25,49.21c3.34,1.82,7.33,4.9,8.98,8.03"/><path d="M34.88,73.25c0.99,0.32,3.63,0.69,5.74,0.55c14.23-0.95,36.41-2.36,49.19-2.81c2.2-0.08,3.96-0.04,5.95,0.21"/><path d="M64.51,63.19c0.46,0.45,0.91,2.38,0.69,3.33C61.51,82.88,50.78,91.65,35.42,97.5"/><path d="M63.83,72.2c6.24,5.22,20.8,18.5,27.03,21.99c2.12,1.19,2.86,1.36,3.82,1.48"/></svg>