<svg><path d="M14.5,20.01c1.04,0.41,2.26,0.49,3.31,0.41c9.6-0.75,24.46-3.03,35.53-3.09c1.74-0.01,2.79,0.2,3.66,0.4"/><path d="M25.38,13.22c0.66,0.39,1.67,1.24,1.76,1.83c0.9,5.49,1.67,12.37,1.92,14.37"/><path d="M44.62,11.37c0.11,0.72,0.49,2.18,0.26,3.15c-1.12,4.73-0.87,7.23-1.59,12.31"/><path d="M31.25,27.75c3.25,0,10.5-0.5,14.25-0.75"/><path d="M19.4,34.83c0.37,0.21,0.74,0.39,0.9,0.65c1.27,2.08,2.3,7.83,3.17,11.57"/><path d="M21.67,35.9c8.93-0.87,22.08-2.4,28.4-3.32c1.67-0.24,2.7,1.09,2.46,1.72c-1,2.62-1.16,5.53-3.3,9.31"/><path d="M23.82,45.67c5.41-0.33,21.72-1.75,28.59-2.09"/><path d="M35.33,29.05c1.04,0.41,1.88,1.81,1.88,2.65c0,9.55,0.29,31.05,0.29,37.64"/><path d="M20.98,53.79c0.58,0.11,2.34,0.14,2.93,0.11c5.33-0.21,16.99-1.72,25.03-2.31c0.96-0.07,2.64,0.05,3.12,0.11"/><path d="M22.26,62.01c0.55,0.13,3.25,0.15,3.8,0.13c7.27-0.17,14.23-1.42,22.6-2.47c0.9-0.11,2.49,0.06,2.95,0.13"/><path d="M19.62,72.39c0.48,0.82,1.91,1.05,4.3,0.49c6.64-1.57,18.59-4.37,25.22-5.94"/><path d="M60.12,31c1.03,0.56,2.31,0.4,3.23,0.3c9.01-1,21.14-2.89,25.22-3.46c2.65-0.37,4.42,1.15,4.2,4.26c-0.5,6.84-5.7,27.75-10.02,33.05c-4.99,6.11-5.49,2.61-7.06-0.55"/><path d="M77.17,13.09c0.58,1.16,0.5,2.39,0.39,4.27c-0.81,14.89-5.81,39.14-19.34,51.49"/><path d="M25.82,81.13C26.14,83.42,22.59,93.5,20,97.3"/><path d="M36,78.32c6.51,10.6,15.5,20.18,41.93,19.93c12.12-0.12,12.91-2.83,2.8-7.65"/><path d="M56.83,76.82c2.17,5.25,5.32,10.5,7.63,2.46"/><path d="M78.55,77.05c5.11,1.82,8.95,3.48,13.1,9.11"/></svg>