<svg><path d="M16.25,40.25c0,6.61-2.72,16.11-3.5,18"/><path d="M29.77,35.08c2.49,1.66,6.42,6.81,7.04,9.38"/><path d="M24.62,15.75c0.88,0.88,1.21,2.12,1.21,3.5c0,0.74,0.02,50.87,0.03,69.88c0,3.56,0,6.03,0,6.88"/><path d="M40.38,23.74c2.36,0.84,5.24,0.35,7.64,0.03c12.08-1.6,23.73-3.02,32.98-3.98c2.11-0.22,4.31-0.16,6.38,0.28"/><path d="M62.15,11.63c0.86,0.86,1.22,2.49,1.09,4.2C62.93,20.02,62.75,22.88,62,31"/><path d="M43.75,33.98c0.63,0.63,1.12,1.27,1.31,2.01c0.59,2.39,1.78,6.04,2.78,9.73c0.33,1.23,0.63,2.38,0.85,3.35"/><path d="M45.28,34.43c5.26-0.91,27.54-3.72,35.13-4.39c3.22-0.29,4.34,0.84,3.82,3.48c-0.46,2.33-1.28,5.06-2.3,8.29c-0.47,1.48-0.93,2.97-1.31,4.37"/><path d="M56.19,34.1c0.73,0.73,0.88,1.47,1.01,2.65c0.34,3.23,0.88,6.84,0.99,8.41"/><path d="M68.43,31.91c0.83,0.83,1.12,1.82,1,3.36c-0.27,3.55-0.66,7.13-0.85,8.46"/><path d="M49.67,47.2c7.46-1.07,24.58-2.95,30.52-3.46"/><path d="M62.18,49.75c0.97,0.97,1.21,2.12,1.21,3.61c0,2.79-0.02,3.39-0.02,4.77"/><path d="M39.63,61.81c2.5,0.17,4.62,0.29,7.13-0.01c8.46-1.04,25.07-3.44,35.22-4.27c2.64-0.22,5.77-0.52,7.92-0.06"/><path d="M59.53,62.96c0,1.04-0.58,2.1-1.15,2.76C54.38,70.38,47,76.75,33.75,84.25"/><path d="M53.9,74.39c0.98,0.98,1.11,2.24,1.11,4.05c0,1.6,0.07,7.38,0.08,12.81c0.01,3.46,0.54,4.01,3.11,1.96c2.65-2.11,8.1-6.49,9.15-7.24"/><path d="M82.23,64.62c0,0.75-0.64,1.82-1.33,2.53c-1.79,1.85-3.62,3.14-8.9,7.1"/><path d="M63.25,70.25c1.46,0.42,16.83,13.4,24.23,18.81c2.14,1.57,3.77,2.57,5.88,3.37"/></svg>