<svg><path d="M31.7,14.42c0.1,0.79-0.25,1.48-0.69,2.09c-2.24,3.1-7.79,9.41-13.2,12.17"/><path d="M32.11,28.2c0.08,1.02-0.21,1.94-0.65,2.84c-2.42,4.9-8.28,13.83-15.7,20.28"/><path d="M26.87,41.96c0.9,0.9,1.08,1.92,1.08,3.07c0,0.28-0.02,10.1-0.02,16.23c0,2.38-0.03,4.23-0.05,4.85"/><path d="M50.51,12.15c0.67,0.67,0.93,1.98,0.93,2.94c0,0.47-0.07,6.82-0.07,11.04"/><path d="M40.09,18.5c0.71,0.71,0.66,1.63,0.51,2.93c-0.24,2.08-0.1,1.33-0.7,5.8c-0.25,1.86,0.4,2.15,2.08,1.76c6.77-1.61,10.99-2.84,17.61-3.78"/><path d="M61.83,13.19c0.74,0.74,0.92,1.68,0.77,2.69c-0.29,1.97-0.68,4.63-1.13,7.36c-0.2,1.22-0.42,2.35-0.68,3.25"/><path d="M38.42,37.67c1.12,0.48,3.34-0.02,4.46-0.17c4.19-0.58,9.31-2.14,13.73-2.92c1.26-0.37,2.53-0.41,3.81-0.11"/><path d="M50.41,37.36c0.91,0.88,0.91,1.64,0.91,2.86c0,4.92-0.01,9.22-0.01,17.1"/><path d="M38.49,47.76c1,0.47,3.03,0.33,4.02,0.18c5.23-0.82,9.61-1.82,14.87-3.01c0.54-0.12,1.79-0.33,2.62-0.15"/><path d="M36.74,60.24c0.76,0.76,1.62,1.23,2.95,0.91c7.19-1.77,17.13-3.95,23.58-5.49"/><path d="M78.28,13.11c0.07,1.05,0.03,1.91-0.32,2.91C76,21.6,71.5,30.38,65.44,36.72"/><path d="M75.61,26.44c1.13,0.24,2.28,0,3.39-0.16c3.49-0.48,7.57-1.41,11.04-2.19c1.19-0.26,2.87-0.58,4.06-0.23"/><path d="M84.57,28.73c0.44,1.11,0.34,2.03,0.02,3.17c-3.03,10.91-9.48,21.7-18.89,28.61"/><path d="M71.28,32.74c4.68,5.69,11.75,14.98,18.52,21.7c1.94,1.93,3.89,3.44,6.19,4.9"/><path d="M25.14,79.32c0.36,2.39-3.65,12.94-6.56,16.92"/><path d="M35.25,74.5C42.75,88,54.23,97.05,79.1,97.18c12,0.07,12.78-2.93,2.77-7.94"/><path d="M53.91,73.02c1.99,4.82,4.88,9.64,7.01,2.26"/><path d="M84.38,69.98c4.24,2.62,7.87,6.27,10.85,13.11"/></svg>