<svg><path d="M16.72,33.5c0.03,4.31-2.47,14.14-4.69,17.5"/><path d="M27.77,31.58c2.75,1.92,7.1,7.9,7.79,10.88"/><path d="M22.87,13.75c1.09,0.5,1.74,2.25,1.96,3.25c0.22,1,0,71.25-0.22,77.5"/><path d="M60.13,10.46c0.82,0.44,2.18,2.01,2.18,3.05c0,1.71-0.11,6.15-0.11,8.02"/><path d="M38.25,22.98c1.04,0.08,3.42,0.48,4.43,0.4c11.29-0.85,31.53-3.32,42.65-3.54c1.72-0.03,2.59,0.03,3.87,0.51"/><path d="M43,31.26c0.23,0.24,0.46,0.93,0.56,1.23c0.78,2.34,2.22,8.81,2.76,13.01"/><path d="M44.41,32.86c4.98-0.92,37.02-3.83,39.67-4.13c0.97-0.11,2.28,0.79,2.02,2.1c-0.54,2.74-1.87,7.45-3.31,11.37"/><path d="M57.46,31.58c0.15,1.56,0.72,8.66,0.87,10.41"/><path d="M71.29,30.11c-0.15,2.53-0.41,9.16-0.72,10.71"/><path d="M46.53,43.25c3.11-0.35,32.34-2.51,36.61-3.04"/><path d="M62.09,44.33c0.65,0.6,1.16,1.31,1.16,3.32c0,2.85-0.01,8.57-0.01,11.85"/><path d="M40.5,52.18c0.42,0.12,1.2,0.07,1.61,0.12c4.22,0.46,9.44-1.33,12.04-1.19c0.7,0.04,1.12,0.06,1.47,0.11"/><path d="M39.75,60.68c0.52,0.12,1.49,0.62,2.01,0.62c3.99-0.04,7.74-1.29,11.29-1.69c0.86-0.1,1.4,0.06,1.83,0.12"/><path d="M71.25,47.93c0.43,0.12,1.22,0.07,1.64,0.12c4.29,0.46,11.84-1.33,14.48-1.19c0.71,0.04,1.14,0.06,1.5,0.11"/><path d="M71.5,56.2c0.51,0.13,1.45,0.08,1.95,0.13c5.09,0.51,11.01-1.42,14.15-1.27c0.84,0.04,1.36,0.06,1.78,0.13"/><path d="M60.35,63.86c0.08,0.51,0.31,1.37-0.16,2.07c-3.01,4.49-14.44,14.33-27.9,19.77"/><path d="M52.35,79.13c0.35,0.39,0.73,0.78,0.73,1.46c-0.02,8.65-0.24,12.54-0.24,14.01c0,1.46,0.87,2.29,1.96,1.2c1.1-1.1,10.5-8.66,11.96-9.76"/><path d="M83.58,61.97c0.03,0.28,0.32,1.33,0.14,1.69c-1.14,2.27-4.7,5.51-10.51,10.03"/><path d="M60.4,67.62c1.45,0.7,3.77,2.68,4.17,2.98c5.93,4.42,20.35,15.69,24.36,18.3c1.51,0.98,2.8,1.4,4.31,1.68"/></svg>