<svg><path d="M15.22,37.5c0.03,4.19-2.21,13.74-4.19,17"/><path d="M24.52,33.83c2.13,1.96,5.51,8.08,6.04,11.13"/><path d="M20.87,15.25c1.09,0.5,1.74,2.25,1.96,3.25c0.22,1,0,73.75-0.22,80"/><path d="M45.3,17.18c0.23,0.31,0.28,0.94,0.16,1.56c-1.21,6.01-3.96,12.76-9.13,18.92"/><path d="M44.74,27.25c2.13,0.89,4.85,3.26,5.89,5.5"/><path d="M61.29,17.61c0.24,0.3,0.31,0.91,0.17,1.5c-1.45,6.13-4.2,12.38-9.63,18.23"/><path d="M59.99,26.68c2.45,1.43,5.58,5.25,6.78,8.87"/><path d="M36.67,44.26c1.25,0.32,3.55,0.38,4.81,0.32c9.79-0.44,38.21-3.25,49.51-3.69c2.09-0.08,3.34,0.15,4.39,0.31"/><path d="M46.48,45.79c0.53,0.31,0.84,1.39,0.95,2.01c0.1,0.62,0.5,36.04,0.39,39.9"/><path d="M55.59,45.55c0.53,0.31,0.84,1.39,0.95,2.01c0.11,0.62,0,33.98-0.11,37.84"/><path d="M31.36,58.46c0.51,0.24,1.44,0.24,1.95,0.24c4.15-0.01,8.52-1.41,12.3-1.63c0.85-0.05,1.24-0.09,1.78-0.09"/><path d="M31.09,69.09c0.51,0.24,1.44,0.24,1.95,0.24c4.15-0.01,9.16-2.21,12.93-2.44c0.85-0.05,1.24-0.08,1.78-0.08"/><path d="M31.78,78.73c0.51,0.24,1.44,0.24,1.95,0.24c4.15-0.01,8.2-2.21,12.24-3.06c0.83-0.17,1.24-0.09,1.78-0.09"/><path d="M56.76,56.73c0.7,0,0.65-0.01,1.18-0.07c3.35-0.41,7.78-1.09,10.97-1.47c0.87-0.1,1.4,0.11,1.84,0.23"/><path d="M56.62,65.94c0.7,0,0.65-0.01,1.17-0.07c3.35-0.41,8.06-1.09,11.25-1.47c0.87-0.1,1.4,0.11,1.84,0.23"/><path d="M56.76,74.97c0.7,0,0.65-0.01,1.18-0.07c3.35-0.41,8.61-1.09,11.81-1.47c0.87-0.1,1.4,0.11,1.84,0.23"/><path d="M34.65,91.42c0.99,1.15,3.37,0.66,4.15,0.37c10.96-4.04,17.96-6.29,30.19-11"/><path d="M72.93,12.25c1.13,1.84,1.32,2.35,1.56,6.29c1.98,33.04,6.26,62.21,18.56,76.13c3.94,4.46,3.82,0.79,3.25-7.34"/><path d="M91.52,49.97c0.08,1.04,0.18,2.68-0.17,4.18c-2.03,8.8-13.69,29.1-29.65,40.92"/><path d="M82.97,19.09c2.96,2.64,7.68,8.67,9.06,13.19"/></svg>