<svg><path d="M17.72,36c0.03,4.31-2.47,14.14-4.69,17.5"/><path d="M31.77,32.33c2.22,2.23,5.74,9.17,6.29,12.63"/><path d="M23.87,12.75c1.09,0.5,1.74,2.25,1.96,3.25c0.22,1,0,75.75-0.22,82"/><path d="M41.68,22.3c0.99,0.37,2.14,0.44,3.13,0.37c9.08-0.67,34.27-3.18,44.74-3.23c1.65-0.01,2.63,0.18,3.46,0.36"/><path d="M54.14,12.32c0.96,0.9,1.27,1.18,1.38,1.74c0.96,5.21,1.79,10.57,2.06,12.46"/><path d="M77.51,11.28c0.17,0.76,0.39,1.33,0.2,2.26c-1.11,5.5-1.12,7.75-2.33,12.92"/><path d="M42.32,32.05c0.29,0.24,0.59,0.44,0.72,0.74c1.01,2.38,2.22,8.93,2.92,13.2"/><path d="M44.14,33.66c5.97-1.24,13.24-2.1,16.66-2.41c1.25-0.11,2,0.68,1.82,1.35c-0.74,2.78-1.61,5.62-2.71,9.46"/><path d="M46.09,43.9c4.02-0.35,10.73-1.47,16.24-2.01"/><path d="M69.3,30.47c0.3,0.25,0.62,0.45,0.75,0.76c1.05,2.45,1.32,7.2,2.04,11.61"/><path d="M71.2,32.13c6.23-1.28,12.82-2.19,16.39-2.51c1.31-0.12,2.09,0.7,1.9,1.39c-0.77,2.87-1.68,4.8-2.83,8.76"/><path d="M73.24,41.69c4.19-0.36,10.47-0.99,16.23-1.55"/><path d="M55.79,45.33c0.2,1.17-0.05,2.7-0.69,3.7c-4.02,6.39-9.13,11.79-18.36,19.56"/><path d="M49.51,59.5c0.6,0.59,1.06,1.89,1.1,2.8c0.35,8.16-0.49,32.45-0.19,36.7"/><path d="M75.39,47.49c0.05,0.48-0.02,1.1-0.19,1.51c-1.13,2.6-2.57,4.61-5.16,7.78"/><path d="M50.44,60.17c6.93-0.77,39.8-3.01,42.77-3.43"/><path d="M69.82,61.11c0.33,0.3,0.6,0.71,0.6,1.23c0,5.3,0.04,22.75-0.17,31.09"/><path d="M51.36,71.24c6.54-0.64,36.2-2.51,39-2.86"/><path d="M50.64,82.5c6.9-0.54,38.69-2.15,41.65-2.45"/><path d="M50.57,94.71c6.93-0.77,41.6-1.79,44.58-2.21"/></svg>