<svg><path d="M29.33,15.59c0.6,0.6,0.74,1.53,0.74,2.47c0,0.5,0.01,12.33,0.02,20.06c0,1.59,0,3.01,0,4.12"/><path d="M30.57,17.23c1.46-0.08,10.92-1.58,14.69-2.08c2.36-0.31,3.43-0.02,3.43,2.48c0,3.37-0.02,13.04-0.03,18.75c0,1.45,0,2.64,0,3.41"/><path d="M31.21,24.63c4.16-0.63,13.41-1.76,16.14-1.76"/><path d="M31.35,32.87c5.53-0.74,11.15-1.62,16.05-1.94"/><path d="M31.28,40.23c4.47-0.48,11.72-1.73,16.34-1.89"/><path d="M19.94,25.67c0.75,0.75,1.07,1.86,1.07,2.97c0,1.11-0.77,17.25-0.77,18.68c0,2.12,0.65,2.6,2.31,2.34c9.2-1.42,20.07-2.92,25.65-2.97c1.38-0.01,3.05,0.09,4.12,0.25"/><path d="M36.93,49.94c0.81,0.81,1.11,1.93,1.11,3.51c0,3.31-0.01,8.42-0.02,12.3c0,2.04-0.01,3.95-0.01,5.5"/><path d="M27.81,55.38c0.09,0.94-0.09,1.84-0.52,2.68c-1.54,2.94-4.54,6.81-9.85,11.81"/><path d="M44.65,54.66c2.67,1.67,6.9,6.88,7.56,9.48"/><path d="M82,10.14c0,0.98-0.48,1.65-1.24,2.03c-2.9,2.26-11.28,6.03-22.27,8.46"/><path d="M71.42,19.4c0.29,0.8,0.19,1.9-0.39,2.77c-2.15,3.21-4.02,5.21-7.14,8.48c-0.86,0.9-1.1,1.54,0.24,2.14c3,1.35,5.25,2.85,7.22,4.48"/><path d="M82.37,25.38c0.25,0.87-0.06,1.79-0.75,2.6C76,34.62,69.88,40.5,62.1,47.53c-1.16,1.05-1.01,2.64,0.51,2.34c6.36-1.23,17.86-4.53,26.04-5.71"/><path d="M84.25,38.48c2.92,1.99,7.55,8.2,8.28,11.3"/><path d="M74.66,49.47c0.87,0.87,1.07,1.9,1.07,3.55c0,6.99-0.01,9.04-0.02,13.23c0,1.64,0,3.23,0,4.89"/><path d="M66.27,56.45c0.23,0.92-0.31,1.83-0.6,2.25c-1.91,2.75-7.5,8-10.21,10.36"/><path d="M84.68,56.2c3.82,2.2,8.02,7.97,9.07,10.23"/><path d="M24.5,79c0.31,2.19-3.15,11.84-5.67,15.49"/><path d="M36.58,76.75c6.79,11.12,15.54,20.43,39.7,20.43c11.47,0,12.22-2.93,2.65-7.94"/><path d="M57.41,75.75c2.17,5.25,5.22,8.5,6.63,3.21"/><path d="M82.38,75.73c4.99,2.77,8.62,6.02,11.85,10.36"/></svg>