<svg><path d="M16.25,35.95c4.41,0.75,8.79,0.51,13.24-0.06c18.89-2.39,33.3-4.27,47.03-5.58c5.37-0.52,9.98-0.64,15.23,0.48"/><path d="M19.5,64.83c0.88,0.67,2.68,1,3.77,0.64c9.73-3.22,20.17-6.63,27.48-9.1"/><path d="M37.45,42c1.09,1.09,1.18,2.57,1.18,4.37c0,16.44,0.62,36.13-17.82,48.35"/><path d="M53,11c1.38,1.5,1.82,2.99,2.06,5.9c2.81,34.35,13.4,64.03,33.97,76.06c6.6,3.86,5.42,0.77,4.58-7.17"/><path d="M80.47,42.64c0.09,1.15-0.12,3.03-0.68,4.64c-4.54,12.97-14.54,31.35-31.98,45.19"/><path d="M72.25,11c3.18,2,8.52,6.82,10,10.25"/></svg>