<svg><path d="M27.01,34.89c1.24,1.24,1.45,3.38,1.4,5.36C28,59,22.5,86.25,11.81,94.97"/><path d="M23.75,33.7c1.52,0.54,4.31,0.67,5.82,0.54c11.31-0.96,36.75-3.57,53.05-4.18c2.3-0.15,4.6,0.01,6.88,0.48"/><path d="M33.75,60.38c1.19,0.47,3.37,0.62,4.55,0.47c3.95-0.48,10.79-1.78,14.54-2.2c1.96-0.22,3.67-0.39,4.66-0.15"/><path d="M55.5,11.75c1.72,1.84,1.76,3.09,2.04,7.04C59.75,49.75,70.5,82,90.75,94.25c6.69,4.05,5.71,1.46,4.85-6.67"/><path d="M84.71,43.39c0.28,1.97-0.16,3.85-0.81,5.66c-4.4,10.32-17.37,29.92-36.34,42.16"/><path d="M74.25,11.5c3.67,1.75,9.54,5.75,11.25,8.75"/></svg>