<svg><path d="M25.88,36.12c1.12,1.12,1.52,2.75,1.52,4.62c0,6.88,0.17,36.28,0.17,41.97c0,2.08-5.81,7.41,0.51,4.37C33.59,84.43,42.5,80,50,76.75"/><path d="M21.75,33.9c3.04,0.63,6.08,0.66,9.11,0.08C43,32.67,66.55,29.99,79,29.08c2.67-0.35,5.34-0.26,8,0.27"/><path d="M54,12c1.67,1.82,2,2.33,2.3,6.24c2.58,33.64,12.95,64.39,34.52,76.45c6.67,3.73,4.39,0.78,3.55-7.28"/><path d="M82.21,43.39c0.27,2,0.09,3.93-0.55,5.79c-3.24,10.22-17.01,31.3-35.6,43.79"/><path d="M71.5,11.25c3.59,1.55,9.33,5.09,11,7.75"/></svg>