<svg><path d="M18.25,37.2c2.65,0.95,5.45,0.61,8.15,0.18c12.27-1.95,38.52-6.85,52.59-8.13c2.92-0.27,5.64-0.32,8.51,0.29"/><path d="M23.39,50.15c0.97,1.01,1.02,1.8,1.26,3.09c0.71,3.79,1.58,9.79,2.28,14.74c0.21,1.45,0.4,2.82,0.57,4.01"/><path d="M25.81,52.37c6.65-1.31,12.68-2.52,18.2-3.4c2.97-0.48,4.8-0.07,4.1,3.43c-0.77,3.84-1.79,7.56-3.19,13.82"/><path d="M28.72,69.8c5.28-0.8,8.92-1.34,14.5-2.1c1.16-0.16,2.31-0.31,3.44-0.46"/><path d="M16.25,88.75c0.94,0.94,2.56,1.13,5.14,0.16c8.36-3.16,19.98-7.66,27.11-10.41"/><path d="M52,13.25c1.12,1.12,1.99,2.7,2.29,6.41c2.58,31.59,12.58,58.47,34.86,71.62c6.63,3.92,5.3,1.24,4.45-6.39"/><path d="M81.23,42.89c0.08,1.11-0.15,2.67-0.66,4.22c-3.7,11.26-11.07,31.38-27.76,45.1"/><path d="M68.75,13.75c2.69,1.5,6.75,4.68,8,7.25"/></svg>