<svg><path d="M21,13.29c2.61,0.59,5.23,0.66,7.89,0.51c13.86-0.8,35.14-1.63,48.86-2.57C80.5,11.04,83.38,11,86,11.55"/><path d="M51.12,15.38c0.25,1.12-0.23,1.78-0.8,2.54c-1.7,2.21-2.82,3.09-5.2,5.46"/><path d="M32,24.07c0.59,0.64,1.15,2.12,1.21,2.98c0.23,3.57,0.81,14.65,1.22,21.83c0.11,2.01,0.21,3.72,0.28,4.87"/><path d="M34.2,25.34c3.35-0.11,36.41-3.79,39.47-3.92c2.55-0.11,4.33,0.83,4.34,3.39c0,0.87-0.87,10.13-1.87,19.3c-0.2,1.85-0.41,3.69-0.61,5.46"/><path d="M34.62,33.62c8.36-0.64,36.67-3.16,42.05-3.16"/><path d="M34.91,41.78c9.34-0.78,31.71-3.03,40.87-3.35"/><path d="M35.23,50.09c8.77-0.84,29.14-2.97,40.07-3.02"/><path d="M19.04,67.53c3.08,0.72,5.39,0.51,8.22,0.25c19.17-1.81,40.61-3.65,57.37-4.22c2.64-0.09,5.37-0.18,7.91,0.56"/><path d="M49.88,54c1.24,1.12,2.23,3.08,2.61,5c3.32,16.82,13.7,32.95,33.53,39.24c6.58,2.09,6.47-0.35,4.81-7.22"/><path d="M75.28,68.45c0.37,2.07-0.78,3.55-2.56,5.01c-8.43,6.9-24.12,17.38-49.92,25.89"/><path d="M64.08,52.43c3.55,1.26,9.24,4.15,10.9,6.31"/></svg>