<svg><path d="M16.75,34.2c3.62,0.68,8.01,0.24,11.41-0.4c13.72-2.55,34.59-5.55,52.35-7.09c3.13-0.27,6.16-0.33,9.24,0.33"/><path d="M18.13,62.17c0.91,0.32,2.57,0.38,3.48,0.32c9.43-0.54,23.4-5.38,33.85-5.75c1.5-0.05,2.42,0.05,3.17,0.1"/><path d="M30.02,46.9c0.92,0.92,1.19,2.14,1.23,3.67c0.33,13.94-0.49,31.18-11.96,40.9"/><path d="M45.51,40.8c1.09,1.09,1.67,2.45,1.67,4.19c0,2.2,0.08,30.77,0.11,43.51c0.01,3.22,0.01,5.42,0.01,5.94"/><path d="M55.25,12.75c1.62,1.78,2.14,3.26,2.38,7.09c1.87,29.78,13.27,62.97,32.1,73.88c6.41,3.72,5.47,0.76,4.66-7.11"/><path d="M83.48,43.39c0,1.23-0.15,2.22-0.66,3.65C78.62,58.75,71,74.62,54.56,87.72"/><path d="M70.25,11.38c3.59,1.73,9.33,5.67,11,8.62"/></svg>