<svg><path d="M27.62,12.48c2.76,0.64,4.92,0.51,8.25,0.23c11.38-0.96,26.33-1.82,39.25-2.39c2.34-0.16,4.68-0.1,7.02,0.17"/><path d="M53.55,14.42c0.2,0.96-0.02,1.84-0.59,2.58c-0.84,1.47-1.96,2.51-3.71,4.38"/><path d="M36.76,22.83c0.75,1.15,1.09,2.37,1.01,3.67c0.01,7.99,0.22,15.22,0.22,22.25"/><path d="M38.07,24.42c2.56-0.1,23.71-2.81,29.81-3.44c2.58-0.27,3.85,1.46,3.78,3.9c-0.13,5-0.79,13.03-1.03,19.46"/><path d="M39.25,32.96C46,32.5,65.5,30.35,69.85,30.35"/><path d="M39.82,40.51c8.18-0.76,20.68-1.76,30.05-2.37"/><path d="M19.83,49.94c0,3.29-2.81,12.35-4.08,14.55"/><path d="M21.52,51.49c15.76-1.74,55.16-5.24,62.87-5.14c11.17,0.14,2.36,6.78-0.42,8.79"/><path d="M24.29,66.46c2.4,0.47,4.8,0.59,7.21,0.35c11.5-1.18,28.92-3.33,40.37-4.16c2.4-0.29,4.78-0.2,7.17,0.29"/><path d="M45.63,54.25c1.59,1.24,2.21,3.29,2.36,5.15c3.33,16.95,14.04,32.51,34.6,38.84c6.77,2.08,6.66-0.36,4.95-7.23"/><path d="M74.05,69.95c0.32,1.68-0.56,3.6-1.73,4.73C64.25,82.5,52.04,90.9,26.8,97.85"/><path d="M59.33,52.43c2.82,1.06,7.33,3.49,8.65,5.31"/></svg>