<svg><path d="M24.26,33.64c0.86,0.86,1.2,2.23,1.16,3.61C24.62,62.62,21,84,10.06,96.22"/><path d="M21.25,32.2c3.68,0.73,7.35,0.73,11.02-0.03c10.93-1.27,29.19-3.67,42.86-4.46c3.38-0.36,6.76-0.25,10.12,0.33"/><path d="M42,38.13c0.94,0.94,1.14,2.37,1.14,3.31c0,0.6,0.06,12.31,0.06,16.32"/><path d="M44.16,47.45c1.42-0.1,7.27-0.93,9.21-1.12c1.1-0.1,2.2-0.07,3.31,0.08"/><path d="M27.9,59c1.86,0.6,3.77,0.86,5.73,0.76c4.96-0.34,13-1.31,19.75-1.83c2.17-0.3,4.33-0.23,6.48,0.22"/><path d="M42.75,61.62c0.81,0.82,1.06,2.26,1.06,3.56c0,9.4-0.06,21.62-0.06,24.82c0,7.26-4.75,0.37-5.72-0.44"/><path d="M34.33,71.46c0.1,1.04-0.02,2.06-0.48,3C31.62,79,28.5,84.25,22.52,89.3"/><path d="M49.95,68.83c2.3,2.23,5.71,9.19,6.28,12.66"/><path d="M58.25,13.25c1.12,1.12,1.7,3,1.95,6.09c2.3,28.53,11.05,57.91,26.99,70.62c8.22,6.56,7.32,3.66,6.75-3.11"/><path d="M82.47,45.39c0.09,1.13-0.35,2.48-0.92,4.04c-5.8,15.69-16.17,35.06-30.74,44.53"/><path d="M73.5,13.25c3.18,1.45,8.27,5.01,9.75,7.5"/></svg>