<svg><path d="M22.13,21.94c1.87,0.37,3.75,0.53,5.63,0.37c7.99-0.66,16.86-1.09,23.87-1.43c1.67-0.11,3.33-0.07,5,0.11"/><path d="M39.42,11.87c0.98,0.98,1.27,2.27,1.27,4.14c0,2,0.14,14.87,0.14,18.86"/><path d="M15.88,35.73c3,0.9,5.82,0.67,8.75,0.42c19.39-1.32,45.01-3.46,61.25-4.23c2.68-0.25,5.35-0.11,8.01,0.41"/><path d="M27.74,41.5c0.16,1.22-0.04,2.81-0.56,3.85c-3.28,6.64-7.18,12-14.69,20.08"/><path d="M22.57,55.19c0.52,0.61,0.91,1.95,0.95,2.9c0.31,8.45-0.42,33.26-0.16,37.66"/><path d="M44.99,38.75c0.05,0.67-0.01,1.56-0.18,2.14c-1.05,3.68-2.38,6.53-4.79,11.01"/><path d="M23.37,54.87c6-0.8,33.32-2.61,35.89-3.05"/><path d="M39.67,56.27c0.59,0.59,0.91,2.01,0.77,2.85c-0.02,6.28-0.14,20.07-0.14,29.15"/><path d="M24.42,67.02c5.66-0.66,28.94-2.33,31.37-2.69"/><path d="M24.49,78.39c5.97-0.56,29.04-2.68,31.61-2.99"/><path d="M24.24,90.61c6-0.79,33.19-2.82,35.76-3.25"/><path d="M64,10c1.56,1.84,2.01,3.59,2.28,7.56c2.22,31.69,9.47,60.69,24.89,78.61c4.75,5.51,4.76,0.79,3.98-7.36"/><path d="M86.72,44.89c0.41,1.48,0.39,2.83-0.17,5.01C83.61,61.25,74,84.29,57.56,98.47"/><path d="M75.25,12.75C78.43,15,83.52,20.14,85,24"/></svg>