<svg><path d="M13.75,22.62c3.43,3.2,6.5,8,7.6,10.41"/><path d="M25.88,18c2.75,2.38,6.5,8.25,7.85,12.52"/><path d="M50.23,16.12c0.14,1.5-0.36,2.75-0.8,3.58c-1.73,3.29-4.56,7.17-6.44,9.54"/><path d="M16.83,39.2c0.8,0.42,1.57,1.61,1.79,2.51c1.38,5.67,2.32,11.32,3.1,17.41c0.16,1.27,0.32,2.5,0.48,3.67"/><path d="M18.91,40.11c8.04-1.37,20.55-3.18,26.95-4.04c3.41-0.46,4.86,0.38,4.5,3.96c-0.4,3.96-1.61,10.96-2.43,15.36c-0.35,1.88-0.62,3.29-0.72,3.78"/><path d="M21.8,50.1c2.58-0.35,21.32-3.6,26.55-3.93"/><path d="M22.84,60.36c7.47-1.39,15.5-2.4,23.68-3.25"/><path d="M13.42,73.48c1.25,0.45,3.54,0.64,4.79,0.45c8.92-1.31,18.17-3.94,29.75-5.38c2.06-0.26,3.34-0.03,4.38,0.2"/><path d="M33.31,39.75c0.89,1.29,1.28,2.66,1.19,4.12c0,9.91-0.02,33.72-0.02,45.86c0,3.02-0.1,4.51-0.1,6.26"/><path d="M55,43.46c1.02,0.3,2.89,0.42,3.89,0.3c7.81-0.95,18.61-4.51,25.03-6.24c1.6-0.43,2.71-0.39,3.55-0.24"/><path d="M63.06,14.25c1.34,1.72,1.94,2.19,2.17,5.89c1.9,30.36,10.65,59.11,26.41,71.39c5.05,3.93,4.26,0.74,3.6-6.87"/><path d="M84.49,47.33c-0.03,1.64-0.4,3.18-1.1,4.61C79.41,60.98,70.84,75.1,53,86.5"/><path d="M76.12,18c3.15,2.31,8.19,7.59,9.66,11.56"/></svg>