<svg><path d="M37.21,11.82c0.7,0.93,1,2.06,1,4.1c0,5.99-0.02,9.32-0.02,14.36"/><path d="M39.58,21.17c3.32-0.78,7.77-1.55,11.13-2.17c1.11-0.2,2.29-0.31,2.84-0.12"/><path d="M20.06,32.28c0.89,0.89,1.33,2.33,1.2,4.27c0,22.45-3.08,42.77-10.01,55.77"/><path d="M21.8,34.34c0.8-0.15,1.88-0.34,3.17-0.56c8.22-1.4,24.86-4,31.42-4.12c8-0.16,1.69,4.79-0.3,6.79"/><path d="M25.11,44.56c0.57,0.32,1.95,0.39,2.53,0.32c0.69-0.08,1.39,0.07,2.11-0.03c6.24-0.9,13.33-2.71,18.74-3.58c0.81-0.13,1.58-0.24,2.31-0.34c0.94-0.12,1.51,0.16,1.98,0.31"/><path d="M37.02,36.3c0.35,0.34,0.82,1.68,0.82,2.15c0,3.77-0.06,6.93-0.06,8.61c0,3.07,0.97,4.38,6.97,4.38c1.87,0,6.1-0.25,7.71-0.92"/><path d="M35.23,57.89c0.57,0.76,1.02,2.56,1.02,4.15s0.1,24.12,0.1,28.21"/><path d="M45.96,57.62c0.9,0.9,1.27,2.42,1.27,3.9s-0.1,21.89-0.1,25.98"/><path d="M24.75,69.38c1.49,2.38,3.84,9.8,4.22,13.5"/><path d="M58,65.32c0.14,0.86-0.03,1.65-0.5,2.37c-1.27,2.85-2.97,6.07-6.75,10.13"/><path d="M21.73,92.43c1.15,1.7,2.36,1.88,4.37,1.33C36.12,91,46.38,88,57.93,84.32"/><path d="M58.5,46.27c1.5,0.23,3.31,0.17,4.63,0.02c7.34-1.46,16.27-4.57,22.39-6.34c1.19-0.34,2.48-0.7,3.73-0.3"/><path d="M65,10.07c1.5,1.18,2.24,3.37,2.58,6.71c3.67,36.35,11.17,61.97,26.08,78.42c3.69,4.07,5.09,2.87,4.32-8.04"/><path d="M88.73,50.71c0.07,0.71-0.1,1.59-0.39,2.61C84.62,61.75,76.77,72.48,63,80.57"/><path d="M78.25,18.57c3.1,2.35,7.55,7.72,9,11.75"/></svg>