<svg><path d="M11.75,17.46c1.06,0.56,1.96,0.56,3.51,0.37c3.15-0.38,12.15-1.41,13.11-1.46c2.16-0.13,2.97,0.85,2.7,1.25c-0.26,0.38-0.41,21-0.41,26.31"/><path d="M21.27,21.14c0.03,0.28,0.06,0.72-0.06,1.12c-0.71,2.36-4.81,7.54-10.41,10.71"/><path d="M28.01,26.89c0.04,0.35,0.08,0.92-0.08,1.43c-0.97,3.01-6.52,9.61-14.13,13.65"/><path d="M36.8,16c1.04,0.56,1.93,0.56,3.46,0.37c3.11-0.37,10.17-1.34,11.12-1.4c2.13-0.13,2.93,0.85,2.66,1.24c-0.26,0.38-0.4,22.67-0.4,27.97"/><path d="M45.78,19.89c0.02,0.19,0.05,0.49-0.05,0.76c-0.59,1.61-4,5.15-8.67,7.31"/><path d="M50.02,27.14c0.03,0.27,0.07,0.69-0.06,1.07c-0.77,2.26-5.15,7.22-11.15,10.25"/><path d="M24.83,43.25c0.14,1.11-0.04,2.56-0.49,3.51c-2.87,6.06-6.51,11.19-13.09,18.57"/><path d="M19.58,57.77c0.58,0.63,1.02,2.03,1.06,3.01c0.34,8.76-0.47,31.91-0.18,36.47"/><path d="M40.1,43.75c0.05,0.62-0.02,1.44-0.19,1.97c-1.12,3.4-2.55,6.03-5.12,10.17"/><path d="M20.48,58.41c6.25-0.82,31.03-3.19,33.71-3.63"/><path d="M37.29,58.81c0.32,0.32,0.58,0.77,0.58,1.33c0,5.69,0.04,24.04-0.16,32.99"/><path d="M21.31,70.06c5.9-0.67,28.82-2.64,31.35-3.01"/><path d="M21.1,81.46c6.22-0.57,29.23-2.23,31.9-2.54"/><path d="M20.6,95.03c6.25-0.82,32.22-2.37,34.9-2.82"/><path d="M59.75,42.06c0.99,0.29,2.8,0.41,3.78,0.29c7.58-0.94,17.53-2.7,26.37-4.5c1.24-0.25,2.11-0.16,2.93-0.01"/><path d="M66.99,13c1.21,1.81,1.41,2.32,1.66,6.2c2.12,32.56,9.83,64.35,24.64,76.49c4.75,3.9,4.08,0.78,3.48-7.24"/><path d="M89.28,47.74c0.08,0.96,0.38,2.59-0.15,3.85C85.65,59.86,76,78.75,62.25,89.34"/><path d="M82.24,17.71c2.48,1.98,6.44,6.5,7.59,9.89"/></svg>