<svg><path d="M13.5,18.36c0.28,0.3,1.1,1.04,1.2,1.43c0.8,3.46,2.28,9.35,3.09,14.43"/><path d="M15.26,19.96c5.74-1.46,9.71-2.77,14.53-3.51c1.21-0.18,1.94,0.85,1.76,1.7c-0.72,3.5-0.99,5.1-2.27,10.92"/><path d="M17.87,31.37c3.89-0.45,9.64-1.19,14.98-1.87"/><path d="M37.79,15.29c0.28,0.34,1.09,1.62,1.18,2.07c0.79,3.97,1.69,8.46,2.48,14.29"/><path d="M39.22,17.68c6.53-0.93,9.87-1.46,14.58-2.31c1.18-0.21,1.9,0.98,1.73,1.95c-0.7,4.01-2.03,7.18-2.97,11.52"/><path d="M41.73,29.57c5.02-0.32,6.52-0.57,13.92-0.71"/><path d="M17.23,39.51c0.24,0.47,0.7,1.29,0.83,1.88c1.11,4.82,2.51,14.52,3.21,23.47"/><path d="M18.82,41.33c9.22-1.62,24.44-3.31,30.79-4.13c2.33-0.3,3.74,0.65,3.67,2.68c-0.16,4.83-2.66,19.78-3.07,21.8"/><path d="M20.22,51.63c2.77-0.39,27.89-3.13,31.75-2.86"/><path d="M21.6,62.54c9.51-1.29,19.88-1.84,28.66-2.78"/><path d="M13.94,75.88c1.2,0.51,3.41,0.6,4.62,0.51c6.69-0.46,24.7-3.14,35.54-3.47c2.01-0.06,3.21,0.25,4.22,0.5"/><path d="M34.89,41.99c0.53,0.36,0.86,1.36,0.87,2.58c0.03,6.19,0.16,51.42,0.17,53.44"/><path d="M60,41.57c1,0.28,2.85,0.39,3.84,0.28c7.7-0.89,17.79-2.56,26.76-4.25c1.25-0.24,2.14-0.15,2.98-0.01"/><path d="M66.99,13.5c1.3,1.69,1.51,2.16,1.79,5.8C71.05,49.74,77,78.5,89.76,93.3c4.1,4.75,4.39,0.73,3.74-6.76"/><path d="M87.24,47.24c0.09,1.01,0.34,2.67-0.19,4.06c-3.8,9.95-14.8,29.2-33.3,39.79"/><path d="M79.99,17.71c2.39,2.18,6.22,7.16,7.34,10.89"/></svg>