<svg><path d="M19.88,15.76c3.12,0.98,6.71,0.72,9.89,0.51c11.67-0.77,34.29-2.55,48.22-3.49c3.35-0.23,6.81-0.72,10.14-0.09"/><path d="M29.1,27.88c2.31,0.75,4.52,0.91,6.89,0.57c11.88-1.7,30.63-3.45,40.26-4.27c2.54-0.22,4.74,1.44,3.99,4.07c-0.87,3.04-2.25,7.25-3,9.75"/><path d="M32,42.5c1.25,0,29.38-2.75,41.01-3.97c2.6-0.27,4.91-0.28,6.74-0.28"/><path d="M30.94,29.18c1.06,1.06,1.12,2.5,0.9,4.45C29.12,56.62,24.25,75,13,86.75"/><path d="M58.83,46.75c0.9,0.9,1.2,2.12,1.2,3.57c0,1.68-0.03,3.49-0.03,6.05"/><path d="M34.71,59.31c2.42,0.56,5.16,0.6,7.78,0.19c9.64-1.5,25.76-2.88,37.13-3.59c2.49-0.16,5.57-0.18,7.92,0.65"/><path d="M55.19,66.5c4.81,2,11.44,3.37,18.18,4.59c2.62,0.47,3.1,2.33,2.47,4.56c-1.51,5.32-8.58,17.37-11.53,20.37c-3.06,3.1-5.06,1.98-7.03-0.59"/><path d="M55.44,61.21c0.31,1.17,0.05,1.92-0.39,2.93c-3.08,7.01-11.42,19.73-25.55,27.79"/></svg>