<svg><path d="M16.17,23.74c1.21,0.38,2.82,0.41,4.38,0.27c7.08-0.64,18.2-2.51,24.54-3.61c1.92-0.33,3.53-0.66,5.41-0.49"/><path d="M18,40.62c1.25,0.5,2.7,0.45,3.86,0.29c7.62-1.03,16.15-2.68,20.88-3.26c2.26-0.28,3.64,1.6,3.4,3.11c-0.71,4.48-2.07,8.18-3.22,15.72"/><path d="M21.47,59.99c5.64-0.64,13.18-1.84,20.53-2.69c1.16-0.13,2.38-0.18,3.49-0.12"/><path d="M19.86,41.4c0.68,0.68,0.93,1.6,0.93,2.73c0,22.5-0.54,34.37-7.04,44.12"/><path d="M79.5,11.88c-0.13,1.38-0.51,2.68-1.56,3.67C73.88,19.38,68.5,24,59.62,28.75"/><path d="M56.44,30.38c1.15,1.15,1.47,2.63,1.56,4.65c1.12,25.22-2.51,40.22-10.76,48.22"/><path d="M59.77,42.69c2.35,0.06,4.31-0.34,5.97-0.63c7.51-1.31,16.88-2.56,27.37-4.46c1.65-0.3,3.96-0.46,5.02-0.25"/><path d="M77.1,43.3c0.93,0.93,1.65,2.94,1.65,4.26c0,2.43,0.05,31.26,0.06,45.94c0,2.33,0,4.3,0,5.75"/></svg>