<svg><path d="M27.38,18.36c2.62,0.51,5.36,0.41,7.62,0.12c10.43-1.34,24.25-3.85,37.88-4.41c2.73-0.11,5.56,0.18,8.25,0.77"/><path d="M28.1,29.38c2.68,0.87,5.28,0.77,8.02,0.43c11.3-1.42,30.5-4.28,39.15-5.29c3.15-0.37,6.09-0.23,4.93,3.75c-0.86,2.95-1.58,5.79-2.7,8.48"/><path d="M31.75,42.75c1.07,0,26.6-3.38,41.26-4.9c2.43-0.25,4.57-0.46,6.24-0.6"/><path d="M28.92,29.93c0.76,0.76,1.19,1.97,1.17,3.92C29.75,57.5,22.62,77.5,10.25,87.5"/><path d="M30.36,56.67c1.51,0.58,2.69,0.46,4.82,0.14c4.32-0.64,11.8-2.47,13.12-2.57c2.56-0.19,3.71,1.35,3.71,3.64C52,62.95,52,82.77,52,91.12c0,6.94-6.68,0.67-7.42,0.1"/><path d="M33.24,64.53c2.5,0.85,6.45,3.48,7.07,4.79"/><path d="M29,82.86c1.24,1.14,2.53,1.12,3.77,0.15c0.73-0.57,6.37-5.18,9.48-7.94"/><path d="M58.07,51.87c2.31,0.63,3.94,0.8,5.97,0.45c4.52-0.77,14.38-2.67,17.99-3.44c2.98-0.63,4.84,0.75,4.84,4.37c0,7.63-0.12,30.58-0.12,38.25c0,8.52-6.17,1.29-6.91,0.73"/><path d="M61.38,63.12c3.19,1.31,8.25,5.37,9.04,7.4"/><path d="M61.71,84.55c0.91,0.82,2.15,0.71,3.34-0.02c0.79-0.49,7.61-5.03,10.3-7.26"/></svg>