<svg><path d="M13,38.75C15.08,39,14.27,39.3,16.5,39c5.5-0.75,15.5-2.5,24.67-3.67"/><path d="M28.27,14.83c0.48,0.92,1.67,2.49,1.76,5.52c0.4,14.55,0.24,60.44,0.24,65.4c0,14.25-6.32,3.53-7.77,2"/><path d="M11,66.98c2.75,1.02,4.31,1.22,6.94-0.71C19.48,65.13,29.44,55.98,36,50.5"/><path d="M78.28,15c0.08,0.47,0.3,1.34-0.15,1.87C72.5,23.45,64.17,29.49,49.5,34.79"/><path d="M42,58.49c1.19,0.56,4.38,0.81,5.56,0.56c11.7-2.52,33.18-9.24,44.28-9.79c1.98-0.1,3.17,0.27,4.16,0.55"/><path d="M63.75,31.79c0.56,0.84,1.32,2.22,1.32,3.36c0,3.55,0.07,44.83,0.07,48.31c0,7.79,3.11,10.75,14.88,10.75c13.01,0,14.88-3.01,14.88-10.18"/></svg>