<svg><path d="M14.5,38.17c1.88,0.58,3.51,0.74,5.75,0.5c5.12-0.54,14.96-2.42,23.76-4.08c1.54-0.29,2.74-0.33,4.41-0.33"/><path d="M34.02,15.25c1.24,1.24,1.51,2.75,1.51,4.77c0,15.23-0.01,54.46-0.01,65.9c0,14.25-6.32,3.53-7.77,2"/><path d="M14,73.18c1.5,0.7,2.62,0.45,4.25-0.68c4.95-3.43,14.5-10.67,27.5-20.5"/><path d="M73.21,26c0.55,1.17,0.41,2.53-0.09,3.99c-5.49,16.14-13.49,36.26-20.73,51.78c-2.04,4.38-1.57,4.72,2.59,3.46c9.77-2.98,21.02-6.1,35.27-10.6"/><path d="M83.2,60.03c4.67,4.93,12.06,20.27,13.23,27.94"/></svg>