<svg><path d="M13.5,35.02c1.5,0.73,3.01,1.13,5.68,0.83c7.57-0.84,16.03-1.78,26.98-3.31"/><path d="M31.63,11c0.52,0.98,1.79,2.66,1.88,5.89c0.43,15.55,0.26,67.23,0.26,72.52c0,15.22-6.76,3.77-8.29,2.14"/><path d="M12,65.72c1.5,1.03,3.75,2.03,6.25,0.53c2.04-1.23,18.46-9.44,27.5-14.58"/><path d="M50.5,26.97c0.95,0.52,4.03,0.53,5,0.53c6.25,0,28-2.75,35.5-3.29c1.46-0.11,2.79,0.1,4,0.54"/><path d="M70.08,28.75c0.85,2.83,0.85,4.53,0.85,6.8c0,15.86-0.02,23.51-0.02,50.7"/><path d="M43.25,87.59c0.92,0.38,4.2,0.77,5.75,0.6c16.75-1.84,29-2.74,44.25-3.3c2.5-0.09,5.5,0.63,6.75,1.22"/></svg>