<svg><path d="M11,37.42c2.08,0.25,1.27,0.55,3.5,0.25c5.5-0.75,15.5-2,24.67-3.17"/><path d="M26.27,14c0.48,0.92,1.67,2.49,1.76,5.52c0.4,14.55,0.24,60.94,0.24,65.9c0,14.25-6.32,3.53-7.77,2"/><path d="M11,66.64c2.62,2.26,4.31,1.22,6.94-0.71c1.55-1.14,11-8.79,17.56-14.27"/><path d="M57.77,25.02c0.28,0.85-0.06,1.81-0.39,2.87C54.67,36.63,49,46.25,41.35,53.5"/><path d="M66.09,18.5c7.92,3.16,17.52,22.68,24.12,27.74c2.55,1.96,3.47,3.01,5.94,3.64"/><path d="M48.73,55.57c1.16,0.51,2.61,0.45,3.62,0.28c8.24-1.43,22.91-3.84,27.48-4.37c2.97-0.34,4.29,1.03,4.13,3.44c-0.44,6.35-5.63,28.1-9.37,35.5c-3.34,6.59-6.09,0.84-7.43-1.01"/><path d="M62.53,56.75c0.06,0.79,0.22,2.08-0.13,3.18c-3.92,12.22-9.37,22.41-22.2,32.32"/></svg>