<svg><path d="M14,36.75C16.08,37,16.77,37.3,19,37c5.5-0.75,19-2.5,28.17-3.67"/><path d="M32.27,12.33c0.48,0.92,1.76,2.49,1.76,5.52c0,16.9-0.25,68.66-0.26,73.62c-0.02,8.53-3.02,5.53-7.71,1.25"/><path d="M12.5,66.82c2.77,1.66,3.05,1.9,5.82,0.48C19.95,66.46,36.58,57.02,43.5,53"/><path d="M54.25,29.76c0.75,0.74,1.59,1.93,1.72,3.25C56.99,43.45,57.2,72.25,57.89,91"/><path d="M56.32,31.7c9.93-1.2,24.93-3.2,31.66-3.69c2.15-0.16,3.88,1.7,3.58,4.39c-1.25,11.1-3.21,37.51-5.07,52.86"/><path d="M58.13,87.66c8.25-0.42,19.14-1.63,30.47-2.27"/></svg>