<svg><path d="M12.24,36.14c2.21,0.27,1.35,0.59,3.72,0.27c5.84-0.8,16.47-2.66,26.21-3.9"/><path d="M27.27,14.5c0.48,0.92,1.67,2.49,1.76,5.52c0.4,14.55-0.26,58.94-0.26,63.9c0,14.25-6.32,3.53-7.77,2"/><path d="M12,64.48c2.29,1.67,3.76,0.9,6.06-0.52c1.35-0.84,18.6-11.99,24.33-16.04"/><path d="M47.72,23.4c1.66,0.83,3.73,0.57,5.21,0.45C63.5,23,74.5,21.11,81.07,20.26c4.27-0.55,6.17,1.66,5.93,5.55c-0.63,10.25-6.25,46.44-14.87,62.91c-4.42,8.45-6.69,5.81-9.88,0.26"/><path d="M66.93,26.33c0.09,1.42,0.12,3.68-0.17,5.73C63.84,52.13,55.94,72.48,37,90.36"/><path d="M49.5,42c1.47,0,3.57,0.44,5,2.25C63,55,78.75,75.25,89.62,82.6c2.34,1.58,3.82,2.83,5.88,3.4"/></svg>