<svg><path d="M11.5,36.04c2.21,0.19,1.35,0.42,3.72,0.19c5.84-0.56,16.46-1.88,26.2-2.75"/><path d="M26.77,13c0.48,0.92,1.67,2.49,1.76,5.52c0.4,14.55,0.24,62.94,0.24,67.9c0,14.25-6.32,3.53-7.77,2"/><path d="M10,65.56c1.25,1.44,3.25,1.69,5.51,0.52C16.97,65.32,34.09,54.71,40.25,51"/><path d="M50.03,23.95c1.58,0.5,3.72,0.42,6.95,0c5.27-0.69,22.88-3.95,25.13-4.44c3.39-0.75,5.14,1.25,3.97,5.46C77.1,57.33,59.33,82.81,41.5,94.97"/><path d="M61.9,32.1c2.97,1.85,7.68,7.61,8.42,10.49"/><path d="M48.67,34.64c4.19,1.41,24.68,39.27,39.28,54.78c2.27,2.41,3.93,4.02,6.05,4.83"/></svg>