<svg><path d="M13.5,39.42c1.89,0.23,3.55,0.5,5.5,0.23c4.92-0.68,13.36-1.95,20.46-2.93c1.16-0.16,2.16-0.33,3.45-0.21"/><path d="M28.77,16c0.99,0.99,1.51,2.75,1.51,4.77c0,15.23-0.01,53.46-0.01,64.9c0,14.25-6.32,3.53-7.77,2"/><path d="M13.61,64.77c1.1,0.74,2.64,0.83,4.08-0.15c4.19-2.87,8.06-5.62,20.06-14.2"/><path d="M54.92,32.52c0.58,1.35,0.6,2.75,0.35,4.54c-1.88,13.31-5.92,35.13-18.98,48.53"/><path d="M43.6,27.85c2.53,0.65,4.57,0.68,7.48,0.02c7.8-1.75,14.05-3.37,20.08-5c4.61-1.24,6.28,0.03,4.79,3.98c-9.7,25.77-13.33,21.64,4.45,18.01c2.94-0.6,4.34,1.26,3.46,3.48C76.07,67.85,65.5,84,45.66,91.62"/><path d="M51.98,59.88C58.28,65.4,74.74,81.72,83.52,89c2.86,2.37,5.73,4,8.83,5.23"/></svg>