<svg><path d="M11.5,38.52c2.23,0.27,1.36,0.59,3.75,0.27c5.89-0.8,15.6-2.18,25.42-3.43"/><path d="M26.77,13.5c0.48,0.92,1.67,2.49,1.76,5.52c0.4,14.55,0.24,61.94,0.24,66.9c0,14.25-6.32,3.53-7.77,2"/><path d="M11,66.02c2.33,1.6,3.83,0.87,6.16-0.5c1.37-0.81,16.27-11.22,22.09-15.1"/><path d="M44.13,20.47c1.07,0.56,3.03,0.68,4.1,0.56c12.53-1.32,24.8-4.18,38.75-4.4c1.78-0.03,2.85,0.27,3.74,0.55"/><path d="M49.06,22.04c0.04,1.62,0.08,4.17-0.08,6.5c-0.92,13.7-2.22,47.33-12.93,61.68"/><path d="M55.99,39.69c1.76,0.56,3.39,0.48,5.02,0.27c5.74-0.71,14.24-2.46,17.68-2.99c3.3-0.51,5.35,1.39,5.22,4.57c-0.22,5.39-1.46,19.09-3.56,26.02c-2.01,6.65-5.88,0.76-6.48,0.45"/><path d="M58.92,40.35c0,11.99-0.05,27.63-0.05,35.78C58.87,90,61,93,77.13,93c17.12,0,19.01-3.75,19.01-13.36"/></svg>