<svg><path d="M14.75,39.92c2.08,0.25,2.77,0.3,5,0c4.7-0.64,12.47-2.04,19.48-3.51c1.2-0.25,2.35-0.22,3.43-0.41"/><path d="M31.02,17.25c1.05,1.05,1.51,2.88,1.51,5.02c0,15.23-0.01,52.21-0.01,63.65c0,14.25-6.32,3.53-7.77,2"/><path d="M14.75,66.03c1.25,0.84,2.38,0.77,4.05-0.11c4.33-2.3,8.7-4.92,20.95-12.26"/><path d="M52.73,48.56c5.15-1.31,7.37-1.84,10.78-2.62c1.37-0.31,2.85-0.3,3.36-0.12"/><path d="M50.12,23.58c0.9,0.9,1.29,2.17,1.29,3.84c0,4.17,0.03,47.08,0.03,53.28c0,3.05,1.75,3.46,3.53,2.14c4.67-3.47,6.67-5.34,9.76-7.6"/><path d="M94.56,33.44c-0.06,1.06-0.51,2.26-1.55,3.21C87.12,42,83,44.88,75.28,49.99"/><path d="M71.75,18c1.04,1.04,1.49,2.12,1.49,3.8c0,3.93-0.08,47.29-0.08,51.9c0,14.04,1.21,15.55,11.89,15.55c9.95,0,11.14-1.63,11.14-11.07"/></svg>