<svg><path d="M11.5,36.92c2.42,0.25,1.47,0.55,4.06,0.25c6.38-0.75,17.98-2,28.61-3.17"/><path d="M28.27,12.5c0.48,0.92,1.67,2.49,1.76,5.52c0.4,14.55,0.24,65.44,0.24,70.4c0,14.25-6.32,3.53-7.77,2"/><path d="M11.75,65.59c1.53,0.96,2.92,1.63,4.03,1.03c3.97-2.12,16.83-9.07,24.47-13.7"/><path d="M47.5,40.2c1.29,0.39,3.67,0.55,4.95,0.39c9.93-1.24,22.96-3.56,34.54-5.94c1.62-0.33,2.76-0.21,3.84-0.01"/><path d="M60.49,13c1.34,1.8,1.56,2.31,1.84,6.18c2.34,32.46,10.88,64.16,27.3,76.27c5.27,3.89,4.52,0.77,3.85-7.21"/><path d="M86.2,45.74c0.12,0.91,0.57,2.46-0.23,3.67c-5.23,7.87-19.72,25.84-40.47,35.93"/><path d="M75.99,15.21c2.88,1.98,7.5,6.5,8.84,9.89"/></svg>