<svg><path d="M14.75,38.17c2.08,0.25,3.27,0.3,5.5,0c4.72-0.64,10.77-1.78,18.75-2.89c1.31-0.18,2.75-0.4,4.16-0.27"/><path d="M29.27,14.25c1.18,1.18,1.51,2.75,1.51,5.02c0,15.23-0.01,55.71-0.01,67.15c0,14.25-6.32,3.53-7.77,2"/><path d="M13.5,68.18c1.12,1.2,2.12,1.07,4-0.18c5.01-3.34,9.5-6.5,20.75-14.58"/><path d="M50.71,25.87c1.17,0.88,3.24,0.75,4.54,0.59c8.88-1.09,25.58-3.1,32.45-3.69c3.18-0.28,4.68,1.85,4.44,3.88c-0.79,6.62-1.22,12.11-2.55,20.14c-0.25,1.48-0.52,3.04-0.83,4.72"/><path d="M69.95,26.6c0.91,0.91,1,1.89,0.92,3.44c-0.37,6.71-0.62,13.83-0.85,18.89"/><path d="M54.24,51.77c6.38-0.54,27.18-2.24,33.38-2.52"/><path d="M52.03,27.3c0.77,0.77,1.03,1.82,1.03,3.41c0,8.63-0.03,32.57-0.03,38.4c0,19.94,1.47,20.68,21.02,20.68c20.21,0,20.53-1.92,20.53-12.42"/></svg>