<svg><path d="M11,36.92c2.08,0.25,1.27,0.55,3.5,0.25c5.5-0.75,15.5-2,24.67-3.17"/><path d="M26.77,13.5c0.48,0.92,1.76,2.49,1.76,5.52c0,16.48,0.24,64.94,0.24,69.9c0,14.25-6.32,3.53-7.77,2"/><path d="M12,65.64c2.38,1.39,2.92,0.75,5.3-0.44c1.4-0.7,19.99-10.91,25.95-14.28"/><path d="M66.15,12.69c1.04,0.34,2.53,2,2.5,2.98C68.57,18.75,68.57,28.2,68.57,31"/><path d="M47,33.28c1.38,0.4,3.62,0.67,4.44,0.59c10.76-0.99,26.99-4.94,40.41-4.94c0.99,0,3.16,0.59,4.15,0.99"/><path d="M67.5,35.08c0.88,1.01,1,2.64,1,4.53c0,9.93-0.28,45.95-0.28,58.45"/><path d="M71.28,50.02c4.3,2.19,17.83,11.36,19.71,15.16"/></svg>