<svg><path d="M12.25,39.42c2,0.24,3.87,0.22,5.91-0.11c4.55-0.73,10.24-1.91,17.15-3.57c1.01-0.24,2.05-0.24,3.11-0.49"/><path d="M27.52,13.75c1.12,1.12,1.51,3,1.51,5.27c0,15.23-0.01,55.46-0.01,66.9c0,14.25-6.32,3.53-7.77,2"/><path d="M11.62,67.39c1.12,0.99,2.47,0.65,3.74-0.23c4.01-2.78,9.13-6.65,20.38-14.74"/><path d="M64.68,14.25c1.22,1.22,1.51,2.76,1.51,3.89c0,4.16-0.06,5.48-0.06,9.23"/><path d="M41.96,30.55c3.04,0.58,5.45,0.4,8.45,0.03c8.73-1.09,22.23-3.36,32.6-4.14c2.52-0.19,5-0.31,7.56,0.37"/><path d="M54.52,42.92c0.91,0.91,0.98,2.19,0.99,4.02c0.24,30.31-6.13,39.93-18.11,48.81"/><path d="M57.25,45.69c5.12-1.32,9.5-2.57,14.36-3.9c1.92-0.53,3.71,0.58,3.71,2.66c0,2.4-0.02,32.29-0.02,37.33c0,9.22,1.95,10.45,9.62,10.45c9.21,0,10.33-1.23,10.33-8.27"/></svg>