<svg><path d="M12,35.86c2.34,0.28,1.43,0.62,3.94,0.28c6.18-0.84,17.43-2.81,27.73-4.12"/><path d="M28.77,12c0.48,0.92,1.67,2.49,1.76,5.52c0.4,14.55,0.24,62.94,0.24,67.9c0,14.25-6.32,3.53-7.77,2"/><path d="M13,63.74c2.04,1.22,3.34,1.16,5.38,0.12c1.2-0.61,19.53-11.23,24.62-14.19"/><path d="M48.51,17.59c1.74,0.91,3.59,0.68,4.83,0.42c2.46-0.52,27.5-4.24,30.1-4.76c2.6-0.52,3.49,2.21,1.94,3.92c-2.66,2.94-14.29,13.29-15.93,15.39"/><path d="M58.5,28c3.76,1.37,13.48,6.66,15.25,10.25"/><path d="M46.67,43.88c0.83,0.62,2.43,1.3,5.83,0.62c3.41-0.68,27.83-5.45,30.5-6.25c11.75-3.5,10,3.25-1.25,11.5"/><path d="M68.26,46.75c1.62,1.02,2.82,2.38,2.82,4.41c0,2.04,0.21,35.86,0.19,39.59c-0.03,8.25-4.28,5-8.5,0.98"/></svg>