<svg><path d="M13.5,37c1.9,0.23,3.73,0.42,5.64,0.1c5.11-0.85,13.37-2.65,20.74-4.22c1.31-0.28,2.62-0.51,3.79-0.55"/><path d="M32.27,11.58c1.2,1.2,1.76,2.79,1.76,4.77c0,14.56-0.26,66.16-0.26,71.12c0,12.78-6.22,3.24-8.21,1.25"/><path d="M12.6,63.29c1.1,0.6,2.1,0.76,3.9-0.04c1.75-0.78,18.28-9.76,25.5-14"/><path d="M76.54,13.75c0.05,0.45,0,1.34-0.35,1.82C72,21.38,65.5,27.88,57.12,33"/><path d="M54.49,34.88c0.88,0.88,1.11,2.16,1.16,4.06c0.73,28.93-4.52,43.18-14.9,52.31"/><path d="M57.99,46.59c1.64,0.03,2.7-0.01,3.97-0.17C69.38,45.5,85.5,43,92.77,41.64c1.25-0.24,3.23-0.39,4.52,0"/><path d="M76.33,47.48c0.91,0.91,1.6,2.4,1.6,4c0,1.05,0.03,27.44,0.04,40.9c0,2.48,0,4.51,0,5.88"/></svg>