<svg><path d="M12.5,34.89c2.51,0.27,2.53,0.59,5.21,0.27c6.62-0.8,17.66-2.66,28.7-3.9"/><path d="M30.77,13.5c0.48,0.92,1.67,2.49,1.76,5.52c0.4,14.55,0.24,62.94,0.24,67.9c0,14.25-5.82,4.53-7.27,3"/><path d="M15,62.8c1.72,1.65,2.19,2.12,4.57,0.88c1.91-1,17.58-9.21,25.68-14.01"/><path d="M56.25,22c3.44,1.41,8.89,5.8,9.75,8"/><path d="M54.25,42.75c3.62,1.5,9.34,6.17,10.25,8.5"/><path d="M47.75,68.25c0.65,0.25,2.4,0.93,4.13,0.75C59,68.25,84,63,94.24,63c1.74,0,2.18-0.25,3.26,0"/><path d="M78.87,11.25c1.09,0.5,1.74,2.25,1.96,3.25c0.22,1,0,75.75-0.22,82"/></svg>