<svg><path d="M11,36.25c2.08,0.25,1.25,0.25,3.5,0.25c4.26,0,14.5-2,23.67-3.17"/><path d="M24.27,14.33c0.48,0.92,1.67,2.49,1.76,5.52c0.4,14.55,0.24,63.16,0.24,68.12c0,11.78-6.21,2.5-7.71,1.25"/><path d="M11,65.34c2.27,1.63,3.72,0.88,5.99-0.51C18.33,64,33.08,54.2,38.75,50.25"/><path d="M50,14.38c0.24,1.75,0.67,2.68,0.65,3.89C50,60.25,46.75,81.75,32.89,94.25"/><path d="M36.52,41.35c1.48,0.15,3.55,0.25,4.49,0s18.1-5.54,18.94-5.6c1.87-0.13,2.71,0.89,2.43,3.82c-0.56,5.85-2.36,23.74-3.87,34.08c-3.01,20.6,4.99,20.6,19.6,20.73c14.79,0.13,17.95-1.6,18.14-10.81"/><path d="M68.81,34.42c1.44,0.08,4,0.33,4.58,0.21c4.73-1.06,14.41-3.1,17.05-3.26c1.81-0.11,3.31,0.89,3.08,3.42c-1.11,12.21-2.27,30.47-6.76,43.77c-2.1,6.21-5.76,2.19-7.26-0.81"/><path d="M81.64,13.18c0.36,1.32,0.62,3.06,0.4,5.3c-1.63,16.62-3.54,44.28-16.9,61.77"/></svg>