<svg><path d="M13.25,39.42c1.95,0.23,3.77,0.42,5.76,0.18C24.12,39,30.62,37.88,38,36.49c1.22-0.23,2.38-0.24,3.67-0.24"/><path d="M29.02,16.25c1.05,1.05,1.26,2.62,1.26,5.02c0,15.23-0.01,52.21-0.01,63.65c0,14.25-6.32,3.53-7.77,2"/><path d="M13.11,66.77c1.13,0.76,2.5,0.84,3.98-0.22C21,63.75,27.62,59,39.75,50"/><path d="M45.62,22.88c0.88,0.88,1.3,1.86,1.59,3.41c1.66,8.84,3.03,19.72,4.54,31.2c0.21,1.62,0.29,3.22,0.41,4.77"/><path d="M48.17,25c14.58-2,31.82-4.36,40.09-5.02c3.04-0.24,4.86,1.42,4.75,4.19c-0.2,5.06-2.22,20.12-3.47,28.79c-0.38,2.63-0.73,4.64-1,5.59"/><path d="M50.65,41.7c10.97-1.7,31.72-3.95,39.89-4.4"/><path d="M52.99,58.38c11.39-1.26,23.72-2.92,35.16-3.55"/><path d="M68.11,25.19c0.85,0.85,1.19,2.06,1.19,3.56c0,7.33-0.06,46.53,0.02,62.25c0.02,3.56,0.03,5.92,0.03,6.47"/></svg>