<svg><path d="M14.5,39.17c1.99,0.24,3.85,0.46,5.88,0.16c5.03-0.73,12.81-1.89,19.87-2.85c1.24-0.17,2.63-0.23,3.67-0.23"/><path d="M30.77,16c1.12,1.12,1.51,2.49,1.51,5.52c0,15.23-0.01,53.46-0.01,64.9c0,14.25-6.32,3.53-7.77,2"/><path d="M14.25,69.43C15.5,70.5,16.88,70.38,19,69c5.06-3.27,8.12-5.38,20.25-13.33"/><path d="M49.71,46.24c0.9,0.9,1.54,2.38,1.75,4.19c1,8.66,2.07,21.54,2.92,34.56c0.16,2.49,0.31,5,0.45,7.51"/><path d="M51.21,47.53C66,45.5,82.34,43.85,90.76,43.01c3.1-0.31,4.67,2.16,4.5,4.44c-0.53,7.12-1.34,24.62-2.93,36.34c-0.28,2.04-0.58,3.91-0.91,5.51"/><path d="M70.61,15.32c1.1,1.1,1.42,2.18,1.42,4.49c0,14.64-0.03,62.53-0.03,66.35"/><path d="M54.31,67.3c8.31-1.05,28.56-3.05,38.83-3.58"/><path d="M55.92,88.85c11.7-1.22,23.64-2.34,34.85-2.57"/></svg>