<svg><path d="M12,39.67c2.05,0.25,3.36,0.29,5.5-0.04c4.87-0.75,11.62-2.03,19.48-3.69c1.04-0.22,2.27-0.43,3.43-0.43"/><path d="M28.02,14.5c1.12,1.12,1.51,2.75,1.51,5.02c0,15.23-0.01,54.21-0.01,65.65c0,14.25-3.52,6.58-6.27,3"/><path d="M11.25,70.68c1.35,1.35,2.25,0.95,4-0.43c5.59-4.39,8.25-6.5,22-17.83"/><path d="M70.5,15.11c0,0.89-0.25,1.51-0.97,2.12c-3.4,2.89-7.23,6.32-18.93,12.31"/><path d="M46.91,29.95c1.2,1.2,1.57,2.57,1.57,4.54c0,1.97-0.1,34.57-0.1,37.64c0,3.07,0.46,3.45,2.9,1.5c2.98-2.38,10.35-8.63,13.11-10.86"/><path d="M50.53,46.57c1.22-0.07,2.33-0.43,2.97-0.54c11.52-2.12,20.26-3.5,30.38-5.54c2-0.4,4.49-1.15,6.53-0.75"/><path d="M65.65,28.57c0.95,0.95,1.72,2.3,1.84,3.93c1.38,18.76,10.02,46.02,26.91,57.6c6.24,4.28,4.11-3.07,4.11-5.7"/><path d="M41.5,90.14c1.84,0.75,3.98,0.34,5.88,0.12c6.37-0.73,18.12-2.37,24.75-2.6c1.87-0.06,3.79-0.1,5.62,0.35"/></svg>