<svg><path d="M11,35.42c2.08,0.25,1.27,0.55,3.5,0.25C20,34.92,30,33.17,39.17,32"/><path d="M25.01,12.5c0.55,0.95,1.98,2.58,1.98,5.72c0,15.8,0.28,58.56,0.28,70.42c0,14.78-7.14,3.66-8.77,2.07"/><path d="M9.5,62.02c1.25,1.48,3.24,2.35,6,0.98c1.63-0.81,14.35-9.2,21.25-13.08"/><path d="M56.48,15.61c0.18,1.71-0.05,3.95-0.62,5.42c-3.63,9.35-8.58,21.12-16.89,32.5"/><path d="M49.14,41.53c0.34,0.92,0.88,2.83,0.92,4.11c0.39,11.53-0.75,43.1-0.4,49.71"/><path d="M57.25,42.64c1.32,0.62,3.72,0.36,5.05,0.23c9.93-0.99,19.18-3.3,31.74-4.05c2.19-0.13,3.51-0.09,4.61,0.22"/><path d="M83.14,14.43c0.08,0.55,1.08,2.39,1.16,5.91c0.37,16.9-0.24,62.28-0.24,68.04c0,10.78-6,2.07-8.01,0.29"/><path d="M62.77,54.52c3.46,2.51,8.95,10.34,9.82,14.25"/></svg>