<svg><path d="M14,38.42c2.08,0.25,1.27,0.55,3.5,0.25c5.5-0.75,15-2.5,24.17-3.67"/><path d="M28.77,14.5c0.48,0.92,1.76,2.49,1.76,5.52c0,15.23,0.24,56.46,0.24,67.9c0,14.25-6.32,3.53-7.77,2"/><path d="M13.5,62.52c1.25,1.48,3.24,2.35,6,0.98c1.63-0.81,12.85-7.7,19.75-11.58"/><path d="M46.32,29.5c1.26,1.17,2.44,1.52,4.05,1.3c1.61-0.22,31.49-4.62,34.71-5.27s3.78,2.83,3.14,4.84c-0.72,2.24-1.3,5.22-2.03,8.62c-0.29,1.36-0.61,2.79-0.98,4.27"/><path d="M51.25,47.25c9-1.25,30.34-4,32.62-4c2.28,0,3.56,0,5.38,0"/><path d="M49.84,46.03c0.43,0.75,0.7,3.22,0.16,4.4c-0.62,1.36-4.51,10.25-4.79,10.99c-0.28,0.75,0.11,3.12,2.22,2.25c1.59-0.66,38.81-4.43,43.22-5.33c1.37-0.28,3.36,0.67,3.08,3.28c-0.43,4.14-3.6,14.65-6.43,19.18c-2.88,4.61-4.16,1.72-5.75-1.6"/><path d="M57.25,14.37c0.79,0.99,1.44,3.48,1.44,6.26c0,8.62,0.15,13.36,0.12,26.23C58.75,64.46,56.25,84.5,40.95,96.2"/><path d="M70.44,12c1.3,0.59,2.07,2.68,2.33,3.87c0.26,1.19,0,73.95-0.26,81.38"/></svg>