<svg><path d="M11.5,36.63c2.32,0.22,1.42,0.49,3.9,0.22c6.13-0.67,17.29-2.23,27.51-3.27"/><path d="M28.77,12.5c0.48,0.92,1.67,2.49,1.76,5.52c0.4,14.55,0.24,65.44,0.24,70.4c0,14.25-6.32,3.53-7.77,2"/><path d="M12,65.18c2.41,1.32,3.96,0.72,6.37-0.42c1.42-0.67,18.6-9.64,24.63-12.84"/><path d="M83.11,12c0.07,0.38,0.31,1.12-0.15,1.53c-6.25,5.58-14.24,9.81-27.42,14.61"/><path d="M51.09,26.79c0.88,1.82,1.37,3.55,1.37,5.54c0,34.18-1.21,46.18-9.94,58.95"/><path d="M53.78,44c2.14,0,3.58-0.12,4.92-0.29c7.4-0.93,23.41-3,31.82-3.46c1.35-0.07,3.69-0.15,4.54,0"/><path d="M73.5,45.1c1,0.61,1.61,2.77,1.81,3.99s0,41.47-0.2,49.15"/><path d="M63.16,56.23c9.38,2.73,24.23,11.22,26.58,15.47"/></svg>