<svg><path d="M12,37.92c2.08,0.25,1.27,0.55,3.5,0.25c5.5-0.75,15.5-2.5,24.67-3.67"/><path d="M26.77,14c0.48,0.92,1.76,2.49,1.76,5.52c0,15.23,0.24,56.46,0.24,67.9c0,14.25-6.32,3.53-7.77,2"/><path d="M11,65.52c1.25,1.48,3.24,2.35,6,0.98c1.63-0.81,15.25-10,23.25-15.58"/><path d="M66.25,15.75c1,0.75,1.5,0.75,1.5,2.5s0,14.25,0,19"/><path d="M44.84,39.37c1.14,0.24,3.48,0.82,4.62,0.74c8.04-0.61,27.79-2.36,39.72-3.85c1.89-0.24,3.04,0.11,4,0.23"/><path d="M53.92,43.02c0.58,0.48,1.55,1.96,1.69,2.96c2.14,15.52,2.43,31.83,2.73,40.68"/><path d="M81.07,40.04c0.75,1.39,0.84,2.1,0.75,3.25c-0.6,7.89-4.07,30.72-6.14,42.97"/><path d="M38,88.84c1.19,0.36,2.58,0.5,3.76,0.36c12.93-1.54,37.61-2.41,52.59-3.14c1.98-0.1,3.17,0.17,4.16,0.35"/></svg>