<svg><path d="M12.5,38.51c2.27,0.2,1.38,0.45,3.81,0.2c5.99-0.61,16.88-2.03,26.86-2.98"/><path d="M28.64,13.5c0.52,0.95,1.78,2.57,1.87,5.71c0.43,15.05,0.26,65.08,0.26,70.21c0,14.74-6.73,3.65-8.26,2.07"/><path d="M11.5,66.1c2.62,1.46,4.31,0.79,6.94-0.46c1.55-0.74,19.5-10.68,26.06-14.22"/><path d="M65.31,13.63c0.76,0.45,2.36,3.35,2.51,4.25c0.15,0.9-0.25,37.12-0.25,50.25"/><path d="M68.25,40.39c9.82-1.01,19.73-3.04,21.09-3.04c1.36,0,3.82,0,4.91,0.34"/><path d="M48.91,68.05c0.41,0.51,0.82,0.94,1,1.59c1.41,5.09,2.59,19.13,3.55,28.27"/><path d="M50.71,69.89c12.54-1.14,34.14-2.94,39.25-3.66c1.87-0.26,2.99,2.65,2.73,4.2c-1.11,6.41-2.49,13.51-4.02,21.64"/><path d="M53.86,94.48c7.64-0.46,27.64-1.36,37.68-1.68"/></svg>