<svg><path d="M13,39.17c2.22,0.27,3.94,0.48,6.29,0.04c4.72-0.9,11.5-2.77,19-4.29c1.1-0.22,2.23-0.19,3.38-0.41"/><path d="M29.77,14.5c1.24,1.24,1.51,2.88,1.51,5.02c0,15.23-0.01,54.46-0.01,65.9c0,14.25-6.32,3.53-7.77,2"/><path d="M12.57,67.47c0.99,0.63,2.79,0.69,4.11-0.23c4.08-2.86,9.08-6.73,20.33-14.82"/><path d="M60.46,12.6c0.29,0.65,0.29,1.96-0.1,2.96c-2.73,7.06-8.61,17.44-17.89,27.6"/><path d="M53.9,34.1c2.72,0.4,4.69,0.22,6.73-0.17c6.73-1.27,21.71-4.06,27.35-4.99c3.66-0.6,6.07,0.46,6.05,4.51C94,46.25,90.25,74.75,82.82,91.38c-2.43,5.44-5.82,3.38-8.84-1.14"/><path d="M49.61,51.15c0.86,0.88,1,1.69,1.23,2.86c0.6,2.98,1.21,7.98,1.93,12.7c0.37,2.43,0.69,4.66,0.9,6.28"/><path d="M51.55,52.4c6.95-1.54,13.47-2.88,17.85-3.5c3.18-0.45,4.35,0.21,3.77,3.47c-0.67,3.74-1.05,6.32-2.15,12.36"/><path d="M54.48,68.35c3.99-0.42,9.78-1.64,15.55-2.43c1.51-0.21,2.72-0.29,4.18-0.32"/></svg>