<svg><path d="M15,39.42c2.25,0.71,4.24,0.65,6.13,0.4c4.86-0.63,12.06-1.95,18.86-2.89c1.06-0.15,2.27-0.3,3.43-0.17"/><path d="M31.52,15.5c1.18,1.18,1.76,3,1.76,5.52c0,15.23-0.01,52.46-0.01,63.9c0,14.25-6.32,3.53-7.77,2"/><path d="M15.25,66.75c1,0.88,2.25,0.88,4.25-0.25C25.15,63.32,31.75,60,41,54.75"/><path d="M68.21,16.38c1.2,1.2,1.51,2.74,1.51,4.3c0,0.86,0.03,55.42,0.03,64.07"/><path d="M53.07,40.3c0.55,0.95,0.93,2.08,0.67,3.38c-0.46,2.33-0.89,5.18-1.93,9.59c-0.72,3.06-0.69,3.59,2.47,2.95c9.85-1.97,21.22-3.22,32.38-3.47"/><path d="M89.1,35.83c0.78,1.55,0.9,3.05,0.66,4.64c-0.62,4.1-0.65,5.25-1.59,10.32c-0.25,1.37-0.56,3.01-0.93,5.04"/><path d="M50.95,72.62c0.55,1.01,0.67,2.22,0.42,3.38c-0.74,3.37-1.29,5.89-2.6,10.88c-0.63,2.4-0.5,3.35,2.22,2.6C63.62,86,78,84.62,89.33,84.02"/><path d="M91.8,67.11c0.83,1.14,0.83,2.64,0.61,4.39c-0.54,4.3-1.05,7.14-1.62,11.05c-0.26,1.79-0.55,3.7-0.9,5.87"/></svg>