<svg><path d="M15,38.42c1.89,0.23,3.68,0.46,5.61,0.23c4.75-0.56,12.68-1.65,19.51-2.56c1.52-0.2,3.01-0.34,4.54-0.34"/><path d="M31.52,15c1.18,1.18,1.51,3,1.51,5.52c0,15.23-0.01,53.71-0.01,65.15c0,14.25-6.32,3.53-7.77,2"/><path d="M14.75,66.93c1,0.95,2.25,1.07,4.25-0.18c5.11-3.19,7.75-4.75,21.25-13.08"/><path d="M48.66,32.76c2.59,0.49,4.81,0.29,6.97,0.09c11.02-0.99,22.15-2.91,33.62-3.45c2.29-0.11,4.61-0.28,6.86,0.24"/><path d="M66.54,34.9c0.07,1.04-0.14,2.26-0.64,3.69c-2.78,8.03-12.15,28.15-24.63,40.91"/><path d="M56.6,62.62c0.92,0.93,1,2.18,1.14,3.39c0.55,4.87,1.19,11.96,1.92,20.23c0.16,1.88,0.33,3.81,0.51,5.77"/><path d="M58.35,63.87c9.15-1.25,23.15-2.75,29.31-3.17c2.23-0.15,3.57,1.76,3.23,3.47c-1.39,7.07-2.39,14.07-3.47,21.06"/><path d="M60.84,88.73c5.04-0.48,15.11-1.6,23.16-2.22c2.04-0.16,3.93-0.27,5.56-0.3"/></svg>