<svg><path d="M10.5,36.92c2.08,0.25,1.27,0.55,3.5,0.25c5.5-0.75,15.5-1.5,24.67-2.67"/><path d="M26.27,18c0.48,0.92,1.67,2.49,1.76,5.52c0.4,14.55,0.24,56.44,0.24,61.4c0,14.25-6.32,3.53-7.77,2"/><path d="M11.25,63.68c2.54,2.19,4.18,1.19,6.73-0.69c1.5-1.11,10.66-8.52,17.02-13.83"/><path d="M53.19,17.37c0.28,1.43,0.31,2.41-0.14,4.06c-1.89,6.95-6.83,17.59-9.87,22.34c-0.51,0.81-0.32,2.52,0.23,2.79c2.93,1.43,5.77,2.68,9.53,5.87"/><path d="M59.82,37.75c0.28,0.72,0.1,3.38-0.23,4.22C55.56,52.38,48,65.25,39.32,77.35c-1.06,1.47-2.37,4.46,1.64,3.1c6.54-2.2,9.29-3.7,17.82-6.45"/><path d="M56.35,65.4c1.83,2.46,4.71,10.1,5.17,13.92"/><path d="M64.83,37.09c0.88,0.68,1.97,1.01,2.75,0.86c7.66-1.45,18.79-2.88,22.26-3.57c2.26-0.45,3.89,1.03,3.76,4.18c-0.33,8.32-2.51,34.64-7.36,49.19C83.5,96,80.75,94,77,89"/><path d="M79.57,13.18c0.68,1.57,0.85,2.84,0.77,5.7c-0.55,21.53-7.12,60.56-24.3,78.43"/></svg>