<svg><path d="M41.29,16c0.07,0.32,0.27,0.92-0.14,1.28c-5.09,4.5-12.63,8.63-25.9,12.26"/><path d="M15.25,42.89c0.85,0.38,2.38,0.45,3.24,0.38c7.01-0.52,17.26-3.02,23.8-3.38c1.41-0.08,2.25,0.18,2.96,0.37"/><path d="M13,65.59c1.88,0.84,3.44,1.19,5.31,0.48c1.11-0.42,22-9.18,26.69-11.21"/><path d="M30.21,26.25c0.49,1.9,1.18,3.39,1.18,5.76c0,21.65,1.99,52.85-14.59,64"/><path d="M49.75,18.61c1.06,0.26,3,0.31,4.08,0.26c8.82-0.36,21.72-2.08,29.95-2.33c1.78-0.05,2.84,0.12,3.72,0.26"/><path d="M51.75,35.06c0.99,0.29,2.8,0.33,3.81,0.29c8.24-0.39,20.28-2.27,27.97-2.54c1.66-0.06,2.65,0.14,3.48,0.28"/><path d="M52,49.56c0.99,0.29,2.8,0.33,3.81,0.29c8.24-0.39,20.28-2.27,27.97-2.54c1.66-0.06,2.65,0.14,3.48,0.28"/><path d="M43.25,66.51c1.49,0.35,4.21,0.4,5.72,0.35c12.38-0.47,30.49-2.73,42.05-3.05c2.49-0.07,3.98,0.16,5.23,0.34"/><path d="M66.5,20.75c1.09,0.5,1.74,2.25,1.96,3.25c0.22,1,0,67.75-0.22,74"/></svg>