<svg><path d="M12.75,36.42c2.08,0.25,3.02,0.3,5.25,0c5-0.68,12.12-2.17,20.05-3.89c1.21-0.26,2.45-0.4,3.62-0.28"/><path d="M27.52,14.25c1.05,1.05,1.76,2.88,1.76,5.02c0,15.23-0.01,56.21-0.01,67.65c0,14.25-5.89,4.96-7.77,2.75"/><path d="M11.75,66.68c1.12,0.82,2.5,0.97,4.15-0.09C23,62,24.12,61.25,36.75,52.92"/><path d="M44.75,19.14c1.93,0.79,4.85,0.49,6.86,0.27c8.47-0.96,28.01-3.33,36.88-3.74c2.29-0.1,4.76-0.21,7.01,0.34"/><path d="M51.75,35.69c2.25,0.31,3.98,0.24,5.61,0.05c6.38-0.74,19.36-2.29,26.15-2.9c1.87-0.17,3.65-0.33,5.49,0.12"/><path d="M52.75,51.44c2.12,0.44,3.83,0.26,5.62,0.04c6.42-0.79,19.38-2.54,26-3.15c1.63-0.15,3.56-0.24,5.13,0.14"/><path d="M43.25,67.89c2.62,0.49,5.75,0.14,8.12-0.11c9.97-1.09,30.59-3.12,39.5-3.9c2.18-0.19,4.75-0.38,6.88-0.12"/><path d="M69.02,20.5c1.05,1.05,1.76,2.62,1.76,4.77c0,12.82,0.07,46.92,0.01,63.98c-0.01,3.22-0.02,5.85-0.02,7.67"/></svg>