<svg><path d="M13,37.92c2.08,0.25,1.27,0.55,3.5,0.25c5.5-0.75,14-2,23.17-3.17"/><path d="M27.77,14.5c0.48,0.92,1.67,2.49,1.76,5.52c0.4,14.55,0.24,61.94,0.24,66.9c0,16.08-6.32,4.53-7.77,3"/><path d="M13,65.8c2.27,1.43,2.95,1.85,4.89,1.06c0.74-0.3,16.53-9.39,24.36-14.2"/><path d="M46.75,36.89c0.94,0.38,2.66,0.46,3.6,0.38c6.15-0.52,32.32-3.83,38.11-3.38c1.56,0.12,2.5,0.18,3.29,0.37"/><path d="M61.21,13.25c0.79,1.25,1.63,1.78,1.53,4.07C61.75,38.5,57.75,68,37.44,90.22"/><path d="M81.76,44c0.09,1.23,0.13,3.49-0.18,4.95C78,66,66.5,84.5,48.5,96.79"/><path d="M58,51.25c4.5,8.5,20.75,33.25,31.02,40.33c2.04,1.41,3.08,2.64,4.73,3.17"/><path d="M76.52,15.08c3.1,1.7,8.02,6.99,8.79,9.63"/></svg>