<svg><path d="M14.5,38.42c2.08,0.25,1.27,0.55,3.5,0.25c5.5-0.75,13-2,22.17-3.17"/><path d="M28.77,13c0.48,0.92,1.67,2.49,1.76,5.52c0.4,14.55,0.24,64.44,0.24,69.4c0,14.25-6.32,3.53-7.77,2"/><path d="M12.5,65.42c2.81,1.77,4.62,0.96,7.43-0.56c1.66-0.89,11.79-6.89,18.82-11.2"/><path d="M46.86,37.02c1.29,0.46,3.67,0.57,4.96,0.46c9.52-0.84,24.18-2.73,39.79-3.83c2.15-0.15,3.45,0.22,4.53,0.45"/><path d="M56.17,16.37c1.07,0.49,1.71,2.19,1.93,3.17c0.21,0.98,0,71.12-0.21,77.21"/><path d="M79.62,13.5c1.07,0.49,1.71,2.19,1.93,3.17c0.21,0.98,0,71.01-0.21,77.1"/><path d="M58.26,61.34c5.49-0.34,20.28-1.93,23.23-1.93"/><path d="M58.26,91.65c6.4-0.24,17.08-1.71,22.98-1.95"/></svg>