<svg><path d="M13.5,39.67c2.22,0.27,4.25,0.4,6.51,0.08c4.84-0.69,12.14-2.16,18.75-3.13c1.48-0.22,2.98-0.36,4.4-0.36"/><path d="M29.77,15.5c1.05,1.05,1.51,2.88,1.51,5.27c0,15.23-0.01,53.21-0.01,64.65c0,14.25-6.32,3.53-7.77,2"/><path d="M13.54,66.96c1.21,0.79,2.61,0.44,4-0.5C23,62.75,29.5,58.58,40.75,50.5"/><path d="M50,20.39c0.87,0.87,1.37,1.59,1.51,2.7c1.62,7.67,2.57,13.21,3.17,17.21c0.21,1.42,0.4,2.75,0.57,3.95"/><path d="M52.38,21.78c8.85-1.12,23.33-2.79,30.14-3.53c3.28-0.36,5.61-0.27,4.64,3.67c-1.17,4.76-2.59,11.06-4,16.63"/><path d="M56.2,42.58c4.76-0.48,15.39-1.57,23.81-2.44c1.84-0.19,2.99-0.26,4.95-0.28"/><path d="M46.92,55.45c2.19,0.72,5.18,0.47,7.46,0.17c10.8-1.44,26.23-3.68,31.77-4.15c3.54-0.3,5.28,0.84,4.79,4.55c-1,7.61-5.7,28.49-10.72,35.13c-3.87,5.12-6.12,3.48-9.04,0.16"/><path d="M64.96,57.1c0.07,0.8,0.32,2.13-0.14,3.21C59.75,72.12,54.5,82.62,40.75,92.25"/></svg>