<svg><path d="M11.75,38.42c1.89,0.23,3.56,0.56,5.51,0.19c5.86-1.11,12.24-2.63,19.21-4.51c0.78-0.21,1.61,0,2.44-0.1"/><path d="M25.77,15.25c1.12,1.12,1.51,2.88,1.51,5.02c0,15.23-0.01,54.71-0.01,66.15c0,14.25-6.32,4.03-7.77,2.5"/><path d="M11.31,66.66c1.2,1.2,2.56,1.21,3.87,0.18c6.13-4.84,9.44-7.96,18.31-16.34"/><path d="M47.09,19c0.54,1,0.64,1.87,0.5,3.19C46.73,29.97,43.5,48,35,57.25"/><path d="M48.99,30.24c0.15,0.04,1.11,0.07,1.69-0.13c1.82-0.61,4.74-1.67,6.15-2.2s3.51,0.07,3.02,2.55C56.38,48.25,51.38,71.25,35.25,86"/><path d="M39.92,53c5.83,0,22.96,17,39.2,30.68c3.63,3.06,7.38,5.44,12.13,7.07"/><path d="M67.37,28.08c0.84,0.84,1.31,1.91,1.31,3.25c0,12.21,0.32,20.8-7.04,29.79"/><path d="M69.11,29.42c3.01-0.54,10.38-3.08,11.8-3.51c1.67-0.5,3.34,0.47,2.88,2.33C81.66,37.04,81,47.33,81,58.25c0,4.88,2.62,7.94,8.35,7.94c5.9,0,7.39-1.69,7.39-5.31"/></svg>