<svg><path d="M14,36.75c2.19,0.26,4.13,0.43,6.38,0.05c4.32-0.73,9.6-2.25,15.72-3.21c1.16-0.18,2.15-0.22,3.56-0.26"/><path d="M29.27,12.33c1.2,1.2,1.51,2.54,1.51,4.52c0,14.56-0.01,65.69-0.01,70.65c0,14.25-6.32,3.53-7.77,2"/><path d="M12,64.83c1.5,0.8,2.5,0.8,4.43-0.41c1.67-1.04,14.29-9.11,21.32-14.17"/><path d="M45.75,37.94c3.62,0.81,6.59,0.41,9.88-0.28c7.99-1.38,19.62-3.16,29.5-4.07c2.69-0.46,5.36-0.38,8.02,0.24"/><path d="M44,54.63c1.77,0.2,3.52,0.02,5.28-0.27c4.47-0.74,7.56-1.52,12.35-2.05c1.94-0.33,3.89-0.42,5.84-0.25"/><path d="M54.79,55.87c0.79,0.79,0.96,1.63,0.96,2.62c0,4.36,0,11.88,0,16.78"/><path d="M42.5,80.83c1.1,1.23,2.73,1.26,3.77,0.73c7.98-4.06,9.26-4.89,21.33-11.03"/><path d="M69.54,12.25c1.23,1.23,2.05,2.75,2.19,5.45c1.39,26.43,4.77,60.8,21.6,76.57c3.71,3.48,4.67,4.98,4.32-6.94"/><path d="M83.07,15.49c3.06,1.68,7.27,5.78,8.7,8.67"/></svg>