<svg><path d="M11.75,40.05c2.27,0.27,1.38,0.6,3.81,0.27c5.99-0.82,16.38-2.22,26.36-3.49"/><path d="M28.77,14.5c0.48,0.92,1.76,2.49,1.76,5.52c0,15.23,0.24,56.46,0.24,67.9c0,14.25-6.32,3.53-7.77,2"/><path d="M11,67.29c1.05,1.24,2.71,1.97,5.02,0.82c1.36-0.68,20.76-13.45,26.53-16.7"/><path d="M46.42,32.5c1.31,0.47,3.72,0.44,5.03,0.29C65.09,31.19,80.83,30,90.5,29.5c2.19-0.11,3.5,0.08,4.59,0.3"/><path d="M67.69,13.76c1.08,0.44,1.73,2.16,1.94,3.14c0.22,0.99,0.3,24.85,0.3,33.8"/><path d="M49.38,52.18c1.04,0.21,2.94,0.17,3.98,0.11c13.74-0.77,15.89-2.21,35.79-2.97c1.73-0.07,2.77,0.02,3.64,0.12"/><path d="M51.57,66.09c0.42,0.52,0.85,0.95,1.03,1.6c1.45,5.15,2.18,16.51,3.17,25.77"/><path d="M53.67,68.29c11.16-1.38,25.49-3.29,30.76-4.02c1.93-0.27,3.08,2.69,2.81,4.26c-1.14,6.49-2.74,13.71-3.89,19.72"/><path d="M56.18,91.05c7.32-0.55,20.57-1.9,31.09-2.5"/></svg>