<svg><path d="M27.52,13.48c3.37,1.89,7.86,6.89,9.79,10.71"/><path d="M73.78,11.76c0.09,0.86-0.18,1.75-0.63,2.48c-2.02,3.27-4.6,6.64-8.34,10.71"/><path d="M24,31.26c2.88,0.62,6.5,0.31,9.27-0.1c10.48-1.53,30.1-3.16,40.36-4.08c2.71-0.24,5.7-0.38,8.38,0.2"/><path d="M15,44.34c4.12,0.78,7.54,0.38,11.12,0.03c12.2-1.18,39.25-3.86,55.38-4.65c3.92-0.19,7.87-0.46,11.75,0.29"/><path d="M53.25,10.25c0.12,1.43-0.09,2.94-0.49,5c-2.75,14-18,41.25-43,55"/><path d="M53.75,29.35c4.62,5.46,22.64,21.27,31.32,28.48c2.87,2.38,5.72,4.57,9.18,6.06"/><path d="M64.23,47.75c-0.11,1.12-0.78,2.03-1.64,2.5C56.88,53.38,48.5,56.5,34,60.26"/><path d="M27.63,68.11c2.63,0.91,5.95,0.15,8.62-0.13c9.41-0.97,19.83-2.64,33.15-3.8c2.99-0.26,6.5-0.96,9.49-0.34"/><path d="M21.65,77.79c4.1,0.71,7.74,0.7,11.23,0.37c11.08-1.05,29.61-2.7,45.62-3.03c3.24-0.07,6.59-0.29,9.79,0.38"/><path d="M51.63,57.97c5.87,8.78,6.12,23.41,4.45,33.75c-1.54,9.54-3.83,4.79-7.89,1"/></svg>