<svg><path d="M53.51,9.75c0.11,0.78,0.63,2.18-0.22,3.16C46.25,21,36.75,32,14.78,43.12"/><path d="M53.04,14.11C58.5,18.77,82,33.99,88.02,37.4c2.04,1.16,4.66,1.65,6.7,1.98"/><path d="M38.41,32.02c0.6,0.12,3.42,0.64,4.03,0.62c6.3-0.14,12.67-1.87,21.66-1.89c1.01,0,2.47,0.06,2.97,0.12"/><path d="M31.81,39.96c0.43,0.29,0.94,1,1.05,1.39c1.43,5.06,2.05,7.71,3.02,11.93"/><path d="M33.85,41.46c9.15-0.96,33.83-2.75,38.82-3.14c1.83-0.14,2.92,0.83,2.66,1.66c-1.08,3.42-1.73,4.85-3.95,9.63"/><path d="M35.77,51.92c6.74-0.33,30.33-1.55,38.93-1.87"/><path d="M68.22,53.75c0.1,0.23,0.22,0.59-0.21,0.92c-2.52,1.95-16.98,6.22-36.76,8.84"/><path d="M26.38,71.38c1.17,0.31,3.31,0.38,4.48,0.31C45.49,70.84,61,68.75,77.81,67.3c1.93-0.17,5.09-0.12,6.06,0.03"/><path d="M15.9,81.32c1.76,0.41,4.98,0.5,6.73,0.41c13.25-0.68,46.12-3.48,66.01-3.65c2.93-0.03,4.68,0.19,6.15,0.4"/><path d="M54.38,61.47c5.12,9.53,5.87,21.78,3.45,31.39c-2.2,8.73-4.83,4.95-8.89,1.43"/></svg>