<svg><path d="M14,38.25c2.1,0.25,4.02,0.45,6.17,0.1c5.19-0.84,13.63-2.76,20.73-3.84c1.02-0.15,2.03-0.3,3.02-0.42"/><path d="M31.02,11.58c0.95,0.95,1.26,2.29,1.26,4.02c0,14.56-0.01,66.19-0.01,71.15c0,14.25-6.32,3.53-7.77,2"/><path d="M13.75,66.48c1.38,0.77,2.73,0.87,4.69-0.46C26.38,60.62,31.62,57.12,41.5,50"/><path d="M59.35,11.54c0,1.21-0.49,2.49-1.15,3.57c-2.95,4.77-4.2,6.77-8.83,12.36c-1.03,1.24-1.44,1.73-0.07,2.76c3.84,2.9,5.51,4.81,7.24,7.22c1.41,1.95,2.49,4.04,3.53,6.55"/><path d="M77.1,11.62c0,1.01-0.41,2.26-0.86,2.95c-2.58,3.94-3.62,5.93-8.96,11.34c-1.36,1.38-1,1.77-0.14,2.45c2.99,2.39,5.07,4.6,6.85,7.52c1.2,1.97,2.38,3.87,2.9,6.78"/><path d="M92.67,10.96c0,1.17-0.21,2.24-0.89,3.18c-2.29,3.16-4.03,5.74-8.1,9.79c-1.71,1.7-1.44,1.94-0.35,3c3.8,3.7,6.46,6.57,8.37,10.22c0.75,1.43,1.3,2.97,1.73,4.76"/><path d="M68.51,44.64c0.08,1.44-0.18,2.79-0.9,3.97c-4.98,8.14-10.13,15.94-22.77,26.15"/><path d="M67.68,54.94c1.49,0.33,2.95,0.43,4.07,0.22c5.27-0.99,10.89-2.06,16.81-3.45c3.42-0.8,4.69,1.64,3.22,4.37C83.25,72,69,87.75,43.25,99.25"/><path d="M58.79,66.44c3.65,2.27,8.96,8.18,9.83,12.89"/></svg>