<svg><path d="M15.25,39.17c1.99,0.24,3.85,0.47,5.88,0.14c4.55-0.73,10.61-2.14,17.15-3.1c1.11-0.16,2.24-0.32,3.39-0.46"/><path d="M31.27,15.75c0.99,0.99,1.51,2.75,1.51,4.77c0,15.23-0.01,53.71-0.01,65.15c0,14.25-6.32,3.53-7.77,2"/><path d="M13.82,68.47c1.05,0.9,2.86,0.64,4.26-0.31C22.38,65.25,27,62,38.25,53.92"/><path d="M48.75,27.2c1.77,0.75,4.42,0.35,6.25,0.05c7-1.13,11.78-1.98,18.13-2.93c1.33-0.2,3.39-0.32,4.74,0.02"/><path d="M62.92,11.62c0.92,0.92,1.27,2.13,1.27,3.64c0,6.29-0.07,19.87-0.07,24.37"/><path d="M42.75,42.53c2.75,0.84,6.05,0.4,8.28,0.07c11.04-1.65,23.33-3.75,36.1-5.27c2.49-0.3,5.87-0.85,8.25,0.14"/><path d="M85.38,15.73c0.13,1.27-0.18,2.85-1.12,4.35c-12.17,19.26-21.94,32.07-44.7,49.39"/><path d="M86.51,48.5c0,1.12-0.52,2.04-1.28,2.47c-4.23,2.4-7.85,4.15-17.73,7.53"/><path d="M64.5,51.25c0.5,1,0.62,2.62,0.02,4.58c-0.66,2.13-1.86,6.43-3.76,11.2c-1.14,2.85-0.43,3.88,2.14,3.25c5.72-1.4,16.1-4.27,21.51-5.24c3.33-0.59,4.84,1.97,3.93,4.6c-1.89,5.52-5.87,15.21-9.92,20.99c-3.61,5.15-6.36,5.11-10.19,0.58"/></svg>