<svg><path d="M14.42,38.75c2.99,0.67,3.75,0.48,5.98,0.25c7.35-0.75,16.22-2.38,24.41-3.66c1.51-0.24,2.94-0.21,4.11,0"/><path d="M33.52,10.83c1.2,1.2,2.01,3.42,2.01,5.77c0,14.56-0.01,69.41-0.01,74.37c0,8.41-4.22,4.16-7.71,1.25"/><path d="M15.26,67.98c1.6,0.56,3.17,0.44,4.91-0.68C21.89,66.19,35.72,56.33,43,51"/><path d="M85.62,15.62c-0.12,1.12-0.85,2.23-1.45,2.65c-4.67,3.23-14.54,8.1-26.1,12.39"/><path d="M54.65,12.75c1.24,1.24,1.59,2.75,1.59,3.96c0,2.92-0.07,9.01-0.07,16.01c0,11.29,1.09,12.46,19.53,12.46c17.69,0,18.57-1.8,18.57-9.05"/><path d="M58.08,58.23c0.66,0.66,1.23,1.84,1.23,3.01c0,0.95,0,22.61,0,31.76c0,2.14,0,3.6,0,3.94"/><path d="M60.42,59.9c1.85-0.13,17.67-2.02,22.45-2.58c2.84-0.34,4.01,1.11,4.01,3.69c0,5.95,0.05,22.94,0.08,30.5c0.01,2.13,0.01,3.51,0.01,3.69"/><path d="M60.78,76.22c4.47-0.47,20.68-2.22,24.84-2.38"/><path d="M60.65,93.66c5.69-0.63,17.86-1.54,24.96-2.08"/></svg>