<svg><path d="M12,37.45c2.21,0.23,1.35,0.52,3.72,0.23c5.84-0.7,16.46-2.34,26.2-3.44"/><path d="M27.77,13.5c0.48,0.92,1.76,2.49,1.76,5.52c0,15.23,0.24,57.46,0.24,68.9c0,14.25-6.32,3.53-7.77,2"/><path d="M12,64.89c1.04,1.15,2.71,1.82,5.01,0.76C18.37,65.03,37.24,54.68,43,51.67"/><path d="M61.78,11.75c0.05,0.77,0.28,2.03-0.11,3.07c-3,8.02-9.69,19.99-19.09,30"/><path d="M61.76,22.41c0.33,0.04,1.76,0,2.71-0.11c3.14-0.35,12.46-2.59,16.94-3.68c3.08-0.75,3.95,0.85,3.16,2.89C80.28,32.64,64.5,59,41.44,69.03"/><path d="M54.65,31.58c5.24,5.26,28.99,25.25,36.05,30.06c2.11,1.43,3.81,2.13,5.86,2.56"/><path d="M51.33,70.08c0.38,0.46,0.76,0.85,0.93,1.42c1.3,4.58,2.34,17.73,3.23,25.95"/><path d="M53.67,72.29c11.85-1.61,26.42-3.05,31.36-3.68c1.8-0.23,2.89,1.35,2.63,2.69c-1.07,5.55-2.99,13.33-4.57,21.01"/><path d="M55.91,95.47c7.34-0.72,20.59-1.72,30.57-1.92"/></svg>