<svg><path d="M44.84,12.5c0.09,0.43,0.41,1.25-0.18,1.74C39.5,18.5,30.25,25.5,13.51,30.21"/><path d="M47.05,24.03c0.09,0.39,0.32,1.06-0.18,1.56c-3.42,3.42-14.11,11.2-31.33,14.98"/><path d="M48.31,35.45c0.09,0.42,0.19,1.08-0.18,1.69c-2.18,3.55-14.69,11.34-31.81,16.11"/><path d="M29.27,10.83c0.98,0.92,1.37,2.01,1.76,5.02C32.75,29.25,34.25,45,35.5,53.5"/><path d="M54.07,17.63C56,18,58.2,17.99,59.02,17.85c6.72-1.15,23.99-3.2,27.71-3.62c2.42-0.28,3.6,1.24,3.46,3.16c-0.35,5.08-2.44,14.11-5.53,22.31c-1.68,4.45-5.91,2.81-8.96,0.09"/><path d="M68.96,19.68c0.05,0.66,0.13,1.72-0.1,2.67c-1.69,7.05-7.35,16.9-17.96,25.56"/><path d="M69.48,45c0.09,0.33,0.2,0.85-0.19,1.33C67.01,49.12,53.91,55.25,36,59.01"/><path d="M24.88,67.89c1.39,0.48,3.93,0.58,5.32,0.48c17.41-1.32,21.71-2.4,48.46-4.39c2.31-0.17,6.06-0.19,7.21,0.05"/><path d="M16.4,80.22c1.75,0.49,4.94,0.6,6.69,0.49C36.26,79.9,67,77,88.68,76.33c2.91-0.09,4.66,0.23,6.11,0.48"/><path d="M53.29,57.22c6.59,9.12,6.87,24.43,5.55,35.03c-1.24,9.97-5.42,5.97-9.98,2.03"/></svg>