<svg><path d="M15,39.42c1.84,0.22,3.48,0.49,5.38,0.26c4.62-0.57,10.92-1.65,18.39-3.28c0.93-0.2,1.98-0.14,2.9-0.14"/><path d="M31.52,15.75c0.87,0.87,1.51,2.38,1.51,4.77c0,15.23-0.01,53.71-0.01,65.15c0,14.25-6.32,3.53-7.77,2"/><path d="M13.25,67.68c1.5,1.32,2.93,1.55,4.8,0.19c5.83-4.24,11.2-8.12,22.7-16.95"/><path d="M46,30.89c2.17,0.88,5.38,0.42,7.62,0.07c6.64-1.03,17.52-2.55,24.02-3c2.41-0.17,4.72-0.53,7.11,0.05"/><path d="M46.88,40.62c2.15,2.07,5.56,8.51,6.1,11.73"/><path d="M81.53,36.14c0.13,0.93-0.03,1.81-0.48,2.62c-1.42,3.58-3.72,7.5-7.55,12.23"/><path d="M41.88,58.86c2.72,0.65,5.24,0.5,7.97,0.17c9.96-1.2,22.78-2.41,34.79-3.33c2.35-0.18,5.24-0.33,7.37,0.05"/><path d="M62.83,13.5c0.96,0.96,1.17,2.38,1.17,4.33C63.99,62.75,65.25,76,38.75,95"/><path d="M63.5,60c5.18,5.69,14.4,17.72,21.89,25.48c4.23,4.39,6.73,6.27,9.36,7.77"/></svg>