<svg><path d="M12.5,40.42c1.94,0.23,3.61,0.49,5.62,0.2c4.3-0.61,9.24-1.6,16.68-2.85c0.99-0.17,2.07-0.27,3.11-0.27"/><path d="M28.77,17.25c1.05,1.05,1.51,2.49,1.51,5.52c0,15.23-0.01,52.71-0.01,64.15c0,14.25-6.32,3.53-7.77,2"/><path d="M12,68.43c1,0.82,2.25,0.57,3.75-0.43c5.01-3.34,8.75-6,20-14.08"/><path d="M56.54,16.91c1.02,1.02,1.37,2.58,1.39,3.82C58.5,63.25,59.25,80,42.4,93.18"/><path d="M43.54,32.44c2.85,2.33,7.36,9.57,8.07,13.19"/><path d="M40.86,66.74c1.03,0.5,2.06,0.17,2.84-0.4c1.08-0.78,8.61-6.78,12.86-10.56"/><path d="M70.89,15.53c1.21,1.21,1.49,2.32,1.49,3.97c0,7.59,0.12,54.38,0.12,60.95c0,10.33,1.42,11.29,11.19,11.29C94,91.73,95,90,95,83.05"/><path d="M89.14,28.75c0.1,0.84,0.06,1.81-0.5,2.47c-2.77,3.29-5.28,6.37-11.71,10.68"/><path d="M77.2,52.77c3.95,2.62,10.21,10.76,11.2,14.84"/></svg>