<svg><path d="M13.5,36.5c2.25,0.62,3.77,0.72,5.76,0.43c4.77-0.68,11.44-2.06,18.23-3.09c1.22-0.18,2.45-0.36,3.67-0.51"/><path d="M29.02,12.83c1.2,1.2,1.76,3.54,1.76,5.52c0,14.56-0.01,62.94-0.01,67.9c0,14.25-6.32,3.53-7.77,2"/><path d="M13,64.48c2.25,1.02,4.31,0.22,6.94-1.71c1.55-1.14,11.75-9.04,18.31-14.52"/><path d="M64.54,13c0.09,1.26-0.08,2.66-0.73,3.77C60.77,22,56.3,27.93,52.14,32.61c-2.38,2.68-1.08,3.55,2.04,2.7c7.86-2.15,21.27-5.63,28.13-7.12"/><path d="M75.26,19.2c4.37,2.85,11.3,11.74,12.39,16.18"/><path d="M54.55,42.02c0.08,1.22,0.06,2.35-0.43,3.47c-2.12,4.88-5.7,11.21-10.77,17.45"/><path d="M55.3,50.82c1.58,0.43,3.29,0.14,4.17-0.03c4.2-0.81,12.21-2.65,17.92-3.48c1.83-0.26,3.54-0.42,5.39-0.17"/><path d="M43.66,69.63c2.2,0.71,4.6,0.37,6.84,0.09c11.63-1.45,23.63-3.22,34.76-3.9c2.53-0.15,4.83-0.32,7.32,0.2"/><path d="M65.62,53.21c0.58,1.2,0.64,2.35,0.61,3.67c-0.54,21.3-10.83,32.32-27.17,38.97"/><path d="M65.8,68.83c7.57,8.16,15.78,16.76,22.16,21.83c2.06,1.63,4.54,3.21,7.91,4.23"/></svg>