<svg><path d="M12.25,38.5c2.18,0.26,4.13,0.42,6.37,0.09c4.93-0.75,12.86-1.64,19.77-2.57c1.11-0.15,2.36-0.18,3.27-0.18"/><path d="M29.27,14.33c1.01,1.01,1.26,2.42,1.26,4.27c0,14.56-0.01,64.69-0.01,69.65c0,14.25-6.07,3.53-7.52,2"/><path d="M12.25,67.23c1.66,0.75,3.06,0.37,4.45-0.61c9.18-6.49,13.18-9.24,21.05-15.62"/><path d="M55.25,32.49c0,1.38-0.29,2.25-0.72,3.31c-2.27,7.31-5.65,13.63-12.32,23.83"/><path d="M54.25,45.88c3.88,2.62,6.62,6.75,7.75,10.88"/><path d="M87.51,32.49c0.09,0.96-0.03,1.88-0.36,2.76C84.62,42,81.38,48.38,75.22,56.88"/><path d="M87.12,44.5c4.25,3.62,7.25,7.88,8.62,11.25"/><path d="M67.42,13.87c0.79,0.79,1.27,2.26,1.27,3.89c0,12.37-0.07,55.01-0.07,71.12"/><path d="M47.63,69.67c2.71,0.53,5.37,0.2,8.13-0.07c9.74-0.97,17.25-1.83,26.37-2.25c2.82-0.13,5.49,0.05,8.25,0.7"/><path d="M40.13,90.48c3.93,0.95,7.84,0.73,11.87,0.32c12.63-1.29,20.51-1.67,34.02-1.97c4.1-0.09,8.12,0.13,12.12,0.99"/></svg>