<svg><path d="M10.25,39.04c2.25,0.27,1.37,0.6,3.78,0.27c5.94-0.81,16.74-2.7,26.64-3.96"/><path d="M28.27,13.5c0.48,0.92,1.76,2.49,1.76,5.52c0,15.23,0.24,55.46,0.24,66.9c0,14.25-6.32,3.53-7.77,2"/><path d="M9.75,65.39c0.97,1.15,2.52,1.83,4.66,0.76c1.26-0.63,21.23-13.98,26.59-17"/><path d="M46.25,31.65c1.08,0.44,3.05,0.56,4.12,0.44c6.85-0.76,34.48-4.02,41.12-3.52c1.79,0.14,2.87,0.21,3.76,0.43"/><path d="M53.01,42.24c0,0.57,0.06,1.05-0.1,1.71c-1.46,6.18-5.8,13.86-12.19,20.68"/><path d="M50.89,51.71c2.84,1.58,6.48,5.79,7.86,9.79"/><path d="M86.26,38.74c0,0.51,0.1,0.95-0.09,1.52c-1.65,4.98-6.35,13.84-11.95,18.86"/><path d="M82.39,47.71c5.22,3.25,9.24,7.34,12.36,12.29"/><path d="M66.83,12.75c0.45,1.13,1.17,2.43,1.17,4.86c0,45.19-1.49,62.29-29.24,77.39"/><path d="M66.75,57.5c5.58,10.21,17.85,28.33,25.41,34.2c2.12,1.65,2.68,2.12,3.59,2.3"/></svg>