<svg><path d="M11.5,38.42c2.08,0.25,1.27,0.55,3.5,0.25c5.5-0.75,12.5-2,21.67-3.17"/><path d="M26.27,15c0.48,0.92,1.67,2.49,1.76,5.52c0.4,14.55,0.24,59.44,0.24,64.4c0,11.33-4.82,3.53-6.27,2"/><path d="M10.5,65.14c2.62,2.26,4.31,1.22,6.94-0.71c1.55-1.14,11-8.79,17.56-14.27"/><path d="M86.27,17.39c0.06,0.35,0.13,0.89-0.12,1.39c-1.46,2.92-9.81,9.33-21.24,13.25"/><path d="M60.81,47.26c1.22,0.67,3.45,0.83,4.66,0.67c7.24-0.95,18.82-3.41,26.28-3.36c2.03,0.01,3.24,0.32,4.25,0.65"/><path d="M76.82,29.09c0.91,0.49,1.46,2.22,1.65,3.21c0.18,0.99,0.37,31.35,0.18,37.53"/><path d="M64.08,70.8c1,0.37,2.84,0.43,3.84,0.37C74,70.8,82.61,69.32,91,69.11c1.67-0.04,2.67,0.17,3.5,0.36"/><path d="M38.42,28.69c0.92,0.63,2.89,0.63,4.16,0.17c4.42-1.61,5.82-2.45,8.38-3.29c2.56-0.84,3.29,0.02,1.83,3.04C51.45,31.39,44.5,46,40.33,52.17"/><path d="M40.53,52.42c2.88-0.71,6.41-1.96,10.52-2.67c2.49-0.43,3.37-0.16,2.81,3.55C52,65.46,49.25,80.75,35.12,92.32"/><path d="M38.6,65.28c4.62-0.18,34.23,21.45,47.74,25.81c2.36,0.76,4.6,1.49,8.56,2.16"/></svg>