<svg><path d="M11.5,39.42c2.08,0.25,1.77,0.55,4,0.25c5.5-0.75,13-2.5,22.17-3.67"/><path d="M26.27,13.5c0.48,0.92,1.67,2.49,1.76,5.52c0.4,14.55,0.24,63.44,0.24,68.4c0,14.25-6.32,3.53-7.77,2"/><path d="M10.5,66.22c2.73,2.12,4.49,1.15,7.22-0.67c1.61-1.07,11.45-8.25,18.28-13.39"/><path d="M59.89,14.4c0.04,0.48,0.08,1.25-0.08,1.95c-0.95,4.1-6.4,13.11-13.87,18.62"/><path d="M57.85,22.5c2.05,0,16.29-2.59,18.44-2.83c1.85-0.2,2.8,1.69,2.03,2.71c-3.25,4.27-7.55,8.38-12.69,15.22"/><path d="M46.51,40.6c0.38,0.47,0.78,0.86,0.94,1.45c1.33,4.66,2.26,10.32,3.17,18.69"/><path d="M47.4,42.71c9.4-1.96,32.8-5.53,37.65-6.19c1.77-0.24,2.84,2.43,2.58,3.85c-1.05,5.87-2.4,10.13-5.5,18.4"/><path d="M50.88,59.75c3.8-0.5,28.05-2.75,32.24-3"/><path d="M65.38,42 c0.87,1.25,0.81,3.42,0.84,5.36C61.5,66.75,53.5,87.75,33,97.17"/><path d="M71,60.37c0.54,1.05,0.98,2.29,1.01,3.91c0.15,7.23-0.39,15.15-0.39,20.07c0,7.9,0.94,10.19,12.97,10.19c12.22,0,13.86-2.53,13.86-10.06"/></svg>