<svg><path d="M11.5,38.86c2.34,0.28,1.43,0.62,3.94,0.28c6.19-0.84,17.44-2.81,27.75-4.12"/><path d="M28.77,15c0.48,0.92,1.76,2.49,1.76,5.52c0,15.23,0.24,53.96,0.24,65.4c0,14.25-6.32,3.53-7.77,2"/><path d="M12,64.86c1,1.18,2.58,1.87,4.78,0.78C18.07,65,37.51,54,43,50.92"/><path d="M47.78,21.1c0.53,0.71,1.41,1.87,1.41,2.81c0.56,4.75,3.74,27.66,3.88,28.6"/><path d="M48.89,22.46c3-0.12,34.85-3.31,37.59-3.46c2.28-0.12,3.07,1.21,2.88,3.21c-0.16,3.85-3.88,21.66-4.99,28.06"/><path d="M51.2,35.22c3.41,0,31.89-1.93,35.74-1.93"/><path d="M53.82,48.99c6.68-0.24,23.07-1.75,29.59-1.75"/><path d="M49,70.86c1.12,0.23,3.19,0.29,4.31,0.23c14.45-0.79,20.77-2.46,35.32-2.66c1.87-0.03,3,0.11,3.94,0.23"/><path d="M67.58,54.25c0.15,0.37,2.21,1.91,2.21,4.24c0,6.76,0.05,28.26,0.05,33.42"/><path d="M41.67,93.89c1.49,0.31,4.22,0.42,5.71,0.31c12.87-0.95,29-2.57,45.48-2.97c2.48-0.06,3.97,0.15,5.21,0.3"/></svg>