<svg><path d="M12.5,36.75c2.17,0.26,3.62,0.56,5.87,0.28c6.26-0.78,13.08-2.05,19.9-2.92c1.37-0.2,2.76-0.29,4.15-0.27"/><path d="M29.52,15.08c1.08,1.08,1.26,2.54,1.26,4.27c0,14.56-0.01,60.94-0.01,65.9c0,14.25-6.07,4.03-7.52,2.5"/><path d="M12.25,65.16c1.5,0.97,2.61,0.7,4.4-0.36C26,59.25,28.62,57.62,39,51.5"/><path d="M47.92,20.17c0.77,0.77,1.17,1.88,1.28,2.54c0.99,5.93,1.66,10.38,2.49,16.05c0.26,1.78,0.54,3.68,0.84,5.79"/><path d="M49.15,21.24c8.79-1.17,20.48-2.49,30.49-3.4c3.12-0.28,4.98,1.19,4.42,4.54c-0.83,5.11-2.4,10.25-3.84,16.92"/><path d="M53.45,42.58c5.14-0.4,14.2-1.36,22.92-1.93c1.99-0.13,3.97-0.24,5.88-0.32"/><path d="M65.45,44.84c0.98,0.98,1.27,2.29,1.27,3.56c0,6.53,0.02,28.6,0.02,34.85"/><path d="M68.48,63.67C73.75,63.37,79.25,62.62,83.71,61.66C85.05,61.38,86.34,61.46,87.41,61.46"/><path d="M52.31,58.36c0,1.39-0.05,2.05-0.41,3.29C48.6,73.12,45.38,81.62,38,92.3"/><path d="M49.5,74.88c9.62,4.38,23.71,13.38,32.85,17.92c3.58,1.92,7.38,3.16,11.4,3.7"/></svg>