<svg><path d="M11.5,35.92c2.08,0.25,1.25,0.39,3.5,0.25c6.75-0.42,15.75-1.92,26.17-2.67"/><path d="M26.77,12.5c0.48,0.92,1.76,2.49,1.76,5.52c0,15.23,0.24,59.96,0.24,71.4c0,14.25-6.32,3.53-7.77,2"/><path d="M11,64.02c1.25,1.48,2.25,1.73,4,0.98c1.67-0.71,15.85-8.7,22.75-12.58"/><path d="M46.75,15.87c0.44,0.43,0.45,0.74,0.69,1.28c1.97,4.5,3.45,15.87,4.68,24.26"/><path d="M48.1,17.95c10.11-0.9,30-2.92,37.54-3.67c2.77-0.28,3.34,1.59,3.2,2.57c-0.52,3.59-2.67,16.92-3.93,22.93"/><path d="M50.41,28.44c3.29-0.35,32.23-2.92,36.65-2.62"/><path d="M52.42,39.77c9.36-0.98,22.44-1.54,32.49-2.16"/><path d="M48.22,51.87c0.82,0.46,3.64,0.5,4.46,0.42c5.66-0.54,22.41-2.36,32.07-3.27c1.36-0.13,4.22,0.4,4.9,0.63"/><path d="M42,69.98c1.27,0.27,3.62,0.38,4.88,0.27c13.04-1.18,31.53-3.55,45.41-3.81c2.12-0.04,3.39,0.13,4.46,0.26"/><path d="M67.33,52.72c0.42,0.49,1.38,2.03,1.38,4.67c0,0.99-0.05,34.97-0.14,41.12"/></svg>