<svg><path d="M11.75,38.25c2.03,0.24,3.94,0.23,6.02-0.17c4.24-0.83,8.96-2.25,15.11-3.26c1.05-0.17,2.14-0.34,3.28-0.48"/><path d="M25.65,16.58c1.01,1.01,1.4,2.79,1.4,4.93c0,13.66-0.02,59.79-0.02,64.44c0,13.37-5.93,3.31-7.28,1.88"/><path d="M11.5,64.98c1.87,1.4,3.43,0.97,5.19-0.46c5.7-4.65,11.69-9.39,18.31-15.27"/><path d="M40.05,23.64c0.7,0.73,1.1,1.6,1.21,2.61c0.73,3.86,1.48,7.98,2.11,12.38c0.23,1.59,0.44,3.22,0.63,4.87"/><path d="M42.15,24.78c6.84-1.32,13.71-2.94,18-3.75c2.74-0.52,4.11,0.87,3.6,3.59c-0.78,4.25-1.69,9.38-2.82,14.92"/><path d="M45.16,42.08c3.7-0.46,8.22-1.03,13.46-1.57c1.34-0.14,2.73-0.27,4.16-0.4"/><path d="M51.96,50.5c2.28,0.64,5.69,1.58,9.41,2.76c2.72,0.86,4.03,2.95,3.12,5.82C61.12,69.62,58,77.25,50.83,88.79c-2.55,4.11-5.8,6.07-8.14,0.81"/><path d="M51.06,44.25c0.31,1.12,0.49,1.86,0.15,3.13C48.5,57.62,43.62,71.5,33.5,82.13"/><path d="M75.28,27.58c1.09,1.04,1.16,2.66,1.16,4.52c0,9.3-0.01,18.53-0.01,25.27c0,3.81,0,6.84,0,8.63"/><path d="M92.03,13.33c1.13,1.13,1.25,2.67,1.25,4.6c0,15.53,0.03,68.14,0.03,73.42c0,12.03-6.15,1.6-7.43,0.27"/></svg>