<svg><path d="M11,38.42c2.07,0.25,3.99,0.43,6.12,0.15c4.96-0.66,12.21-1.86,18.89-2.79c1.31-0.18,2.87-0.27,3.91-0.27"/><path d="M27.27,15.25c0.93,0.93,1.76,2.5,1.76,4.27c0,15.23-0.01,55.71-0.01,67.15c0,14.25-6.32,3.53-7.77,2"/><path d="M10.17,68.15c1.08,0.72,2.82,0.83,3.96-0.03c5.62-4.25,8.88-6.62,20.12-14.71"/><path d="M62.32,13.25c0.18,0.88-0.11,2.3-0.62,3.28C56.75,26,51.38,34.75,40.5,45.25"/><path d="M63.16,16.74c5.22,4.76,17.41,17,24.48,23.52c2.02,1.86,5.11,4.37,7.36,5.68"/><path d="M48.13,47c1.23,0.4,3.48,0.55,4.71,0.49c4.91-0.24,15.16-1.74,22.94-2.59c2.04-0.22,3.28-0.18,4.3,0"/><path d="M62.94,33.76c0.9,0.9,1.57,2.12,1.57,3.42c0,3.2,0.06,16.07,0.06,22.51"/><path d="M40.84,62.6c1.78,0.52,4.48,0.27,6.28,0.11c9.93-0.91,24.31-2.63,37.64-3.52c2.2-0.15,4.7-0.2,6.88,0.14"/><path d="M48.32,73.41c0.82,0.79,1.28,2.01,1.39,3.16c0.95,3.75,1.96,10.01,2.72,15.38c0.17,1.21,0.33,2.4,0.47,3.53"/><path d="M50.01,74.98c8.95-1.19,22.4-2.79,28.75-3.54c3.29-0.39,5.25,0.47,4.5,4.17c-0.88,4.32-1.59,7.73-3.56,14.18"/><path d="M53.52,93.13C58.13,92.61,68.88,91.62,78,91c1.45-0.1,2.74-0.25,3.82-0.35"/></svg>