<svg><path d="M13.75,39.67c1.95,0.23,3.77,0.48,5.76,0.16c5.05-0.8,12.24-1.95,20.54-3.45c0.95-0.17,1.94-0.13,2.86-0.13"/><path d="M28.77,16c1.12,1.12,1.51,2.75,1.51,5.27c0,15.23-0.01,52.23-0.01,63.9c0,14.25-5.82,3.53-7.27,2"/><path d="M13.25,64.43c0.97,0.97,2.25,1.32,4.25,0.07c5.11-3.19,9-6,20.25-14.08"/><path d="M47.84,20.73c1.29,0.52,3.81,1.05,5.17,0.88c7.7-0.95,23.21-3.02,29.51-3.73c3.23-0.36,5.4,0.37,4.39,4.14c-0.93,3.49-1.65,6.99-2.86,11.56"/><path d="M51.79,38.19c3.22-0.15,17.34-1.94,29.72-3.12c1.73-0.16,3.35-0.23,4.8-0.3"/><path d="M49.88,21.54c1.04,1.04,1.42,2.46,1.41,4.26C51.12,52,46.72,76.5,36.56,88.56"/><path d="M51.82,58.15c2.6,0.27,5.07,0.04,7.65-0.29c7.67-1,21.11-2.95,28.77-3.48c1.87-0.13,4.32-0.33,6.16,0.08"/><path d="M68.72,41.94c1.17,1.17,1.41,2.44,1.41,4.39c0,12.3,0.12,20.42,0.12,26.04"/><path d="M54.45,73.74c0.78,0.78,1.3,1.76,1.58,2.82c0.71,2.76,1.91,8.82,2.79,14.43c0.23,1.45,0.43,2.88,0.6,4.26"/><path d="M56.36,75.02c7.54-1.11,21.04-3.1,27.27-3.66c3.49-0.31,4.89,0.46,4.07,4.09c-0.93,4.06-2.13,9.73-2.98,14.44"/><path d="M60.51,92.73c4.47-0.25,15.27-1.62,22.5-2.28c1.33-0.12,2.86-0.03,4.02-0.03"/></svg>