<svg><path d="M12.5,35.42c2.08,0.25,1.27,0.55,3.5,0.25c5.5-0.75,15-2.5,24.17-3.67"/><path d="M26.77,12c0.48,0.92,1.67,2.49,1.76,5.52c0.4,14.55,0.24,65.44,0.24,70.4c0,14.25-6.32,4.03-7.77,2.5"/><path d="M10,65.38c2.81,1.84,4.62,1,7.43-0.58c1.66-0.93,11.79-7.17,18.82-11.64"/><path d="M45.56,24.07c0.92,0.35,2.59,0.39,3.51,0.35C61.16,24,70.75,21.24,82.57,20.8c1.53-0.06,2.44,0.17,3.2,0.35"/><path d="M48.11,34.97c0.84,0.37,2.39,0.41,3.23,0.37c8.77-0.42,22.16-3.59,29.87-3.76c1.41-0.03,2.25,0.17,2.95,0.36"/><path d="M40.81,46.93c1.23,0.47,3.49,0.54,4.73,0.47c12.83-0.78,35.46-4.65,44.91-4.52c2.05,0.03,3.29,0.22,4.31,0.46"/><path d="M64.83,11c0.32,1.22,0.85,1.86,0.51,3.78C62.25,32.5,56,55.75,38.08,67.73"/><path d="M68.35,37.38c4.17,4.89,20.09,20.42,24.69,24c1.56,1.21,3.56,1.74,5.12,2.08"/><path d="M53.28,64.43c0.67,0.27,1.88,0.27,2.55,0.27c5.11-0.02,15.92-1.7,22.11-2.75c1.09-0.18,1.77,0.13,2.33,0.26"/><path d="M44.22,78.34c1.01,0.41,2.86,0.52,3.88,0.41c6.44-0.71,33.19-4.16,39.43-3.68c1.68,0.13,2.7,0.2,3.54,0.4"/><path d="M65.11,51.79c0.94,0.88,1.6,1.9,1.68,4.8c0.38,13.92-0.02,37.67-0.02,42.41"/></svg>