<svg><path d="M10.5,37.18c2.2,0.23,1.34,0.51,3.69,0.23c5.79-0.7,16.33-2.32,25.98-3.4"/><path d="M26.77,14.5c0.48,0.92,1.76,2.49,1.76,5.52c0,15.23,0.24,56.96,0.24,68.4c0,14.25-6.32,3.53-7.77,2"/><path d="M11,65.1c0.82,0.97,2.12,1.54,3.92,0.64c1.06-0.53,19.4-11.54,23.91-14.07"/><path d="M44.43,17.24c0.86,0.31,3.34,0.36,4.2,0.31c9.94-0.59,22.5-1.7,36.24-3.51c1.42-0.19,3.2,0.15,3.91,0.3"/><path d="M46.7,29.85c1.05,0.39,2.64,1.09,4.7,0.81c10.72-1.46,29.26-3.79,35.97-4.49c1.82-0.19,3.65,1.3,2.96,4.17c-1.21,5.08-1.62,6.86-2.49,9.71"/><path d="M50.11,44.43c1.19,0,30.72-3.52,40.27-3.52"/><path d="M49.51,30.75c0.04,1.5,0.27,3.85,0.28,6.01C49.9,63.92,45.75,84,36.47,94.25"/><path d="M51.84,61.84c0.78,0.41,2.86,0.9,4.52,0.72c11.21-1.24,24.25-3.18,34.32-3.78c1.73-0.1,3.12-0.05,4.68,0.27"/><path d="M70.5,49.46c0.41,0.64,0.63,1.38,0.62,2.77c-0.2,23.99-10.13,36.65-26.47,44.02"/><path d="M70.6,61.81c5.01,9.73,16.15,26.09,22.85,31.23c1.95,1.49,2.49,1.97,3.34,2.13"/></svg>