<svg><path d="M12.25,38c2.14,0.26,4.07,0.43,6.27,0.11c4.13-0.59,9.07-1.73,15.09-2.58c1.06-0.15,2.16-0.3,3.31-0.44"/><path d="M25.77,13.33c0.95,0.95,1.26,2.42,1.26,4.52c0,14.56-0.01,64.94-0.01,69.9c0,14.25-6.57,4.53-8.02,3"/><path d="M10.25,67.58c1.62,1.05,3.03,0.97,5.08-0.41c5.3-3.55,12.47-8.61,19.17-13.67"/><path d="M 52.32,20.2c0,1.17-0.34,2.03-0.83,2.96c-2.31,3.47-4.56,6.59-8.31,10.97"/><path d="M 80.18,21.67 c3.22,1.77,7.83,7.12,8.64,9.88"/><path d="M 49.094345,34.535701 c 2.079988,0.49 3.014432,0.348943 4.415655,0.382863 9.861855,-0.140121 27.652592,-1.029961 30.15561,-0.12853"/><path d="M40,48.79c3.08,0.61,6.17,0.68,9.27,0.19c10.17-1.15,25.73-2.36,37.62-3.52c3.24-0.43,6.46-0.34,9.66,0.27"/><path d="M66.89,13.65c0.61,1.48,0.62,2.74,0.17,4.69C62.75,37.25,56.25,59.75,35,72.06"/><path d="M67.48,35.3c3.44,5.35,14.02,18.2,20.68,25.05c2.56,2.63,4.98,5.19,8.34,6.73"/><path d="M 55.37,62.5 c 2.07,0.43 4.15,0.27 6.24,0.02 4.25,-0.6 9.07569,-1.56 11.91569,-1.96 1.73,-0.24 2.75307,0.650293 2.67,2.7 -0.06788,1.674851 -0.706325,6.70889 -1.805712,9.786419 -1.91763,5.36805 -5.003453,2.195501 -6.582995,0.607443"/><path d="M 55.647172,63.56699 c 0.92,0.92 1.23,1.62 1.23,2.6 0,3.15 -0.188575,20.045895 -0.188575,22.895895 0,5.8 0.251375,6.307115 16.691403,6.307115 14.37,0 14.85,-2.97 14.85,-9.96"/></svg>