<svg><path d="M11.5,37.67c2.05,0.25,3.94,0.44,6.03,0.15c4.6-0.63,10.93-1.65,17.47-2.55c1.3-0.18,2.5-0.39,3.91-0.27"/><path d="M26.77,15.75c1.12,1.12,1.76,3,1.76,5.52c0,15.23-0.01,51.46-0.01,62.9c0,14.25-5.89,4.71-8.02,2.25"/><path d="M11.75,65.43c1.38,1.07,2.88,0.7,4.38-0.43c4.82-3.61,8-6.12,19.88-14.83"/><path d="M43.19,30.49c2.69,0.76,6.47,0.48,8.56,0.21c9.52-1.25,20.86-2.24,29.62-2.97c2.61-0.22,5.25-0.58,7.83,0.09"/><path d="M65.1,14.25c0.28,1.12,0.4,2.19,0.06,3.54C60.25,36.88,50.62,51.88,37.3,62.04"/><path d="M68,29.75c4.75,6.5,13.4,16.28,20.09,21.67c2.28,1.83,4.16,3.21,6.6,4.68"/><path d="M53.4,53.95c1.29,0.63,3.26,0.34,4.6,0.24c4.07-0.31,9.44-1.13,13.67-1.55c1.3-0.13,3.33-0.23,4.62,0.14"/><path d="M43.47,66.73c1.94,0.83,5.13,0.46,7.17,0.25C60.5,66,70.62,65,81.5,64.34c2.53-0.15,5.45-0.19,7.93,0.44"/><path d="M66.31,67.9c0.83,0.83,1.02,2.1,1.02,3.76c0,3.84-0.08,16.38-0.08,20.21c0,7.12-4.88,0.88-6.2-0.64"/><path d="M51.4,76.59c0.1,0.92-0.05,1.79-0.43,2.62c-1.96,3.29-4.9,7.11-9.9,12.19"/><path d="M80,75.75c3.86,2.74,10.16,10.95,11.12,15.21"/></svg>