<svg><path d="M11.25,36.67c2.12,0.71,3.3,0.95,5.51,0.67c4.75-0.61,13.03-1.78,19.85-2.66c1.1-0.14,2.26-0.17,3.3-0.17"/><path d="M27.02,15.5c1.37,1.37,1.51,2.75,1.51,4.77c0,15.23-0.01,55.46-0.01,66.9c0,14.25-6.32,3.53-7.77,2"/><path d="M11.5,66.18c1.25,1.2,2.88,0.95,5-0.43c5.06-3.27,10.12-6.62,20-13.33"/><path d="M45.25,24.39c2.04,0.83,5.23,0.5,7.38,0.29c8.51-0.83,25.19-2.66,33.37-3.02c2.28-0.1,4.76-0.19,7,0.35"/><path d="M49.32,35.12c2.2,0.27,4.33,0.36,6.56,0.13c9.11-0.94,18.87-2.37,26.77-2.75c2.27-0.11,3.85,1.33,3.5,3.48c-0.92,5.63-1.32,8.39-2.55,18.07"/><path d="M42.39,47.13c2.87,0.37,5.35,0.38,8.24,0.08c11.44-1.15,26.99-2.73,38.5-3.51c3.19-0.21,6.09-0.36,9.22,0.37"/><path d="M49.62,57.25c2.27,0.34,4.35,0.63,6.64,0.45c8.07-0.66,16.13-1.79,23.49-2.17c1.87-0.1,3.75-0.2,5.61,0.04"/><path d="M65.87,12.25c1.25,1.25,1.46,2.62,1.46,4c0,1.02,0.03,62,0.03,70.5"/><path d="M68.63,70c4.39-0.34,7.88-0.98,13.1-1.43c1.65-0.14,3.36-0.39,5.01-0.14"/><path d="M51.51,67.14c0.08,1.22-0.21,2.33-0.65,3.45c-2.37,5.94-7.64,16.48-15.8,23.63"/><path d="M49.5,77.5c3.87,0.68,18.8,12.38,33.04,17.62C86,96.39,88.75,97,92.75,97.75"/></svg>