<svg><path d="M12.75,37.92c1.38,0.33,3.01,0.43,5.25,0.25c6.88-0.54,11.62-1.54,19.27-2.74c1.04-0.16,2.35-0.3,3.64-0.17"/><path d="M28.77,14.75c0.87,0.87,1.76,2.88,1.76,4.52c0,15.23,0.24,55.71,0.24,67.15c0,14.25-6.32,3.53-7.77,2"/><path d="M11,63.68c1.25,1.78,3.83,1.61,6.5-0.18c5-3.36,7.5-5.5,18.75-13.58"/><path d="M73.99,14.64c-0.12,0.86-0.61,1.78-1.34,2.39c-3.19,2.68-11.44,7-21.19,9.66"/><path d="M48.92,31.52c1.59,1.42,4.58,5.85,4.97,8.06"/><path d="M63.12,27.75c1.58,1.37,4.57,6.58,4.97,8.71"/><path d="M86.37,23.14c0,0.98-0.3,2-0.55,2.48C84.12,28.88,81.5,32,75.7,37.5"/><path d="M47,45c-0.12,3.75-2.39,12.27-3.48,14.57"/><path d="M48.22,46.72c15.28-2.72,24.66-3.84,39.6-5.29c7.58-0.73,1.81,5.45-0.97,8.07"/><path d="M53.5,59.57c1.32,0.26,2.52,0.36,5.11-0.24c3.63-0.83,16.42-3.83,18.23-4.2c2.53-0.51,3.53,0.99,2.47,2.85c-9.38,16.47-20.06,26.76-36.21,35.32"/><path d="M51.77,65.93c5.86,0.19,21.05,16.13,33.65,24.49c2.37,1.57,4.83,3.13,7.43,4.27"/></svg>