<svg><path d="M12.75,38.42c2.22,0.25,1.35,0.55,3.73,0.25c5.85-0.75,15.43-2.5,25.19-3.67"/><path d="M27.27,14.5c0.48,0.92,1.76,2.49,1.76,5.52c0,15.23,0.24,56.46,0.24,67.9c0,14.25-6.32,3.53-7.77,2"/><path d="M11.75,67.74c0.9,1.06,2.33,1.68,4.31,0.7c1.17-0.58,19.23-12.51,24.19-15.28"/><path d="M65.31,12.88c0.76,0.33,2.36,2.46,2.51,3.12c0.15,0.66,0.4,14.53,0.25,18.63"/><path d="M68.25,23.5c2,0,12.67-1.36,18.5-2.27C88.83,20.9,89.75,21.08,91,21"/><path d="M50.16,36.17c0.65,1.17,1.03,1.54,1.24,3.11c0.57,4.28,3.07,19.63,3.1,23.22"/><path d="M52.73,37.61c3.71-0.19,32.44-3.86,35.79-3.37c1.33,0.19,2.44,1.69,2.09,3.69C89.75,43,88,55,85.43,60.58"/><path d="M53.48,48.31c6.33-0.43,29.11-2.72,34.78-2.72"/><path d="M55.14,59.86c9.11-0.74,25.78-2.33,30.41-2.33"/><path d="M40.88,75.21c1.19,0.46,3.38,0.58,4.57,0.46c10.3-1.09,39.82-3.46,49.51-3.42c1.99,0.01,3.18,0.22,4.17,0.45"/><path d="M67.73,61.75c0.44,0.54,1.38,4.03,1.47,5.1c0.09,1.08-0.06,25.43-0.15,32.15"/></svg>