<svg><path d="M14,35.92c1.68,0.36,3.34,0.37,4.99,0.05c5.77-0.76,15.28-1.9,23.67-2.97"/><path d="M30.77,14.75c1.05,1.05,1.51,2.74,1.51,5.77c0,15.23-0.01,54.71-0.01,66.15c0,14.25-6.32,3.53-7.77,2"/><path d="M12.75,65.25c2.12,1.32,3.97,1.31,5.56-0.03c4.97-3.09,17.81-11.44,23.78-15.31"/><path d="M58.52,13.5c0.12,1.33,0.13,2.66-0.35,3.89C55.62,23.88,50.75,34,43.25,42.13"/><path d="M56.25,27c0.99,0.75,3.3,0.68,4.95,0.5C68,26.75,81,25,88.9,24.25c4.89-0.46,7.11,2.26,6.85,6.5C94.5,51.25,93,66,87.5,88.75c-2.03,8.38-5.75,6.5-8.97,1.25"/><path d="M57.49,34.89c0.02,0.41,0.05,1.05-0.05,1.64c-0.57,3.46-3.85,11.05-8.33,15.7"/><path d="M56.61,43.18c1.25,0.34,2.5,0.37,3.75,0.08c5.42-0.66,10.63-1.39,15.8-1.87c1.46-0.14,2.46-0.26,3.61,0"/><path d="M43.38,60.27c1.91,0.44,3.84,0.6,5.75,0.29c10.37-1.68,21.58-2.84,30.49-3.64c1.76-0.25,3.51-0.16,5.26,0.27"/><path d="M63.99,44.54c0.8,0.8,1.04,2.14,1.04,3.25c0,3.9-0.13,27.33-0.13,32.56"/><path d="M50.8,69.19c0.69,0.69,0.97,1.69,0.78,2.7c-0.58,3.11-1.12,6.47-2,9.28c-0.46,1.46,0.82,2.52,2.65,2.15c7.27-1.44,12.27-2.19,24.98-3.18"/><path d="M78.48,65.81c0.44,0.3,0.94,2.19,0.87,2.78c-0.43,3.6-0.86,7.83-1.58,14.54"/></svg>