<svg><path d="M14.75,39.17c2.07,0.25,3.99,0.43,6.11,0.14c4.76-0.65,11.17-1.53,17.88-2.4c1.05-0.14,2.26-0.16,3.18-0.16"/><path d="M30.02,15c0.99,0.99,1.51,3,1.51,5.52c0,15.23-0.01,54.21-0.01,65.65c0,14.25-6.32,3.53-7.77,2"/><path d="M12.03,68.95c0.97,0.67,2.73,0.58,3.95-0.3c5.39-3.9,8.89-6.9,21.26-16.23"/><path d="M52,15.25c2.08,0.49,4.15,0.45,6.25,0.24c4.92-0.49,17.18-1.84,22.4-2.45c2.85-0.33,5.92-0.63,5.17,3.23c-0.87,4.45-1.66,11.29-2.24,16.28c-0.25,2.17-0.47,3.98-0.63,5.1"/><path d="M52.64,26.07c1.5,0.51,3.44,0.73,4.99,0.63c6.82-0.46,19.48-2.22,25.73-2.39"/><path d="M51.18,37.1c1.64,0.54,3.86,0.72,5.56,0.63c6.47-0.35,17-2.02,25.24-2.29"/><path d="M46.03,46.17c-0.08,4.74-1.96,12.83-2.63,15.66"/><path d="M46.77,48.84c12.73-1.59,32.01-3.47,44.1-4.12c8.88-0.47,2.13,5.53-1.47,8.22"/><path d="M51.88,61.58c0.77,0.77,1.19,1.92,1.19,3.29c0,7.18,0.01,11.92,0.04,16.86c0.01,1.87-0.11,3.27-0.11,5.03"/><path d="M53.95,63.01c4.3-0.51,27.81-3.21,29.83-3.32c2.38-0.14,3.84,1.18,3.84,3.82c0,6.15-0.25,12.61-0.84,18.94c-0.6,6.45-4.81,0.04-5.71-0.89"/><path d="M68.25,49.47c1.14,1.14,1.25,2.41,1.25,3.68c0,4.72,0.12,25.87,0.05,39.07c-0.02,3.83-0.04,6.61-0.05,7.41"/></svg>