<svg><path d="M13,39.42c2.15,0.26,3.88,0.69,6.14,0.4c4.73-0.61,12.16-2.28,18.88-3.25c1.4-0.2,2.85-0.19,4.14-0.06"/><path d="M30.52,15.75c0.99,0.99,1.26,2.62,1.26,5.02c0,15.23-0.01,52.71-0.01,64.15c0,14.25-6.32,3.53-7.77,2"/><path d="M13.07,67.11c1.43,0.52,2.99,0.01,4.08-0.77c6.35-4.58,9.35-6.33,20.6-14.42"/><path d="M48.77,20.53c1.21,0.57,3.81,0.58,5.09,0.46c6.93-0.64,26.02-3.44,28.8-3.59c2.84-0.16,3.71,1.43,3.48,3.12c-0.51,3.84-1.14,6.34-2.16,11.58"/><path d="M52.24,36.85C54.98,36.7,72.25,34.7,81,33.76c2.34-0.25,4.11-0.42,4.88-0.46"/><path d="M50.4,21.66c0.84,0.84,1.19,2.09,1.15,3.58C51,44.75,49.75,69.88,39.21,85.68"/><path d="M70.19,41.5c0.96,0.96,1.59,2.5,1.59,3.96c0,5.73-0.04,33.83-0.04,42.79"/><path d="M57.22,53.03c0.4,0.25,0.81,2.1,0.8,2.61c-0.08,3.59-1.02,5.86-1.88,9.96c-0.24,1.13,0.85,2.08,1.79,1.84c10.2-2.57,18.95-3.45,28.39-3.77"/><path d="M87.93,48.6c0.8,0.8,1.07,2.03,0.89,3.61c-0.45,4.04-0.47,5.24-1.04,9.55c-0.13,0.99-0.3,2.17-0.52,3.59"/><path d="M53.58,77.4c0.76,0.76,0.92,2.23,0.8,3.11c-0.31,2.23-1.02,5.58-2.1,10.12c-0.45,1.9,0.19,2.18,1.83,1.71c9.64-2.72,25.69-3.99,35.08-4.45"/><path d="M90.59,73.18c0.92,0.93,1.42,1.96,1.18,3.86c-0.52,4.21-0.92,7.31-1.42,10.51c-0.25,1.57-0.55,3.22-0.89,5.07"/></svg>