<svg><path d="M15.25,36.92c1.79,0.21,3.41,0.28,5.25-0.01c5.02-0.79,12.36-2.3,17.27-3.48c0.93-0.22,1.91-0.3,2.89-0.43"/><path d="M29.52,14.5c0.99,0.99,1.51,2.5,1.51,4.77c0,15.23-0.01,54.46-0.01,65.9c0,14.25-5.32,4.03-6.77,2.5"/><path d="M14.38,66.1c1.05,1.01,2.33,1.01,4.42-0.4c4.67-3.14,9.48-6.67,19.95-14.28"/><path d="M59.12,14.95c0.9,0.9,1.31,1.92,1.34,3.38C61.5,63.62,62,83.25,45.81,97.25"/><path d="M43.3,39.12c1.07,0.13,2.21,0.13,3.26,0c3.06-0.37,9.44-1.87,11.54-2.41"/><path d="M43.46,55.26c1.17,0.24,2.23,0.24,3.26,0c1.03-0.24,8.83-2.17,11.57-2.89"/><path d="M43,74.88c1.25,0.62,2.31,0.53,3.88-0.47c1.24-0.79,4.99-2.91,10.05-6.37"/><path d="M74.14,12.25c1.12,1.12,1.34,2.25,1.34,3.63c0,0.78,0.05,50.53-0.06,72.62c-0.03,5.46-0.02,7.31-0.05,8.5"/><path d="M76.74,34.36C79.83,34,88,32.25,91.12,31.75c0.86-0.14,1.66-0.12,3.12-0.12"/><path d="M76.75,52.46c5.38-1.21,11.38-2.08,14.88-2.63c0.86-0.13,2-0.2,3.21-0.12"/><path d="M76.66,69.79c2.53-0.3,11.43-1.63,15.75-2.25c1.45-0.21,2.59-0.29,3.84,0.01"/></svg>