<svg><path d="M14.5,39.67c2.11,0.25,3.73,0.23,5.89-0.09c4.2-0.64,9.03-1.47,15.38-2.42c0.93-0.14,1.89-0.27,2.9-0.4"/><path d="M28.27,16.25c0.93,0.93,1.51,2.88,1.51,5.02c0,15.23-0.01,52.21-0.01,63.65c0,14.25-6.07,3.53-7.52,2"/><path d="m13.5,67.39c1.62,0.99,2.5,0.99,4.12,-0.51,4.43,-4.09,7.63,-7,18.45,-17.66"/><path d="M43.96,34.22c1.01,0.5,2.66,0.28,3.67,0.16c7.24-0.88,11.99-1.63,16.38-2.22c1.28-0.17,2.54-0.24,3.78,0.13"/><path d="M54.98,17.25c0.82,0.82,1.11,1.77,1.11,3.33c0,10.02-0.1,13.41-0.1,26.67"/><path d="M41.61,49.48c0.86,0.42,2.44,0.51,3.29,0.42c6.1-0.65,14.05-2.21,23.57-2.76c1.43-0.08,2.29,0.2,3.01,0.41"/><path d="M42.91,68.19c1.2,0.65,3.09,0.53,4.34,0.29c6.58-1.27,13.75-2.22,18.51-2.77c1.18-0.14,2.64-0.37,3.77,0"/><path d="M55.59,55c0.77,0.77,1.25,1.94,1.25,3.17c0,9.46-0.09,10.57-0.09,23.08"/><path d="M42.04,86.57c1.08,0.8,2.67,0.65,3.44,0.34c10.7-4.32,15.28-6.22,25.38-10.2"/><path d="M77.68,15.05c1.01,1.01,1.73,2.45,1.73,4.34c0,0.59,0.04,52.87,0.05,71.85c0,3.61,0,6.01,0,6.63"/><path d="M82.75,47.25c5.12,3.12,11.62,8.88,14,14.5"/></svg>