<svg><path d="M13.5,39.67c2.07,0.25,3.54,0.5,5.64,0.2c4.73-0.69,10.7-2,17.75-3.27c1.07-0.19,2.61-0.34,3.52-0.34"/><path d="M29.02,16.25c1.05,1.05,1.26,2.5,1.26,4.27c-0.02,14.2-0.01,53.86-0.01,64.9c0,14.25-6.32,3.53-7.77,2"/><path d="M13.25,64.64c1.88,1.23,3.31,0.72,5.94-1.21c1.55-1.14,11.25-8.79,17.81-14.27"/><path d="M42.74,30.69c2.82,0.5,5.62,0.53,8.39,0.09c10.48-1.46,20.93-2.95,29.63-3.83c2.68-0.5,5.74-0.45,8.21,0.06"/><path d="M65.47,14.75c0.3,1.08,0.01,2.72-0.41,3.93C58.91,36.46,51.36,47.96,38,58.38"/><path d="M67.75,30.12c5.14,4.57,14.11,13.4,20.77,18.48c2.2,1.92,4.69,3.29,7.48,4.12"/><path d="M47.44,54.43c0.69,0.69,1.11,1.96,1.21,2.75c0.66,4.94,1.8,12.61,2.75,18.97c0.27,1.79,0.52,3.43,0.75,4.82"/><path d="M49.43,55.42c6.73-1.11,17.6-2.86,27.7-4.1c3.17-0.39,5.46,0.15,5.04,3.94c-0.43,3.94-1.06,10.03-1.85,16.49c-0.21,1.75-0.44,3.53-0.68,5.29"/><path d="M50.64,66.23c3.62-0.37,26.09-3.66,30.19-4.07"/><path d="M52.62,77.92c7.51-1.29,19.38-2.79,26.5-3.65"/><path d="M64.17,42.84c1,1,1,2.37,1,4.04c0,8.25-0.13,34.13-0.13,39.21c0,8.67,3.46,8.94,15.53,8.94c11.11,0,13.16-1.85,13.16-10.16"/></svg>