<svg><path d="M9.5,36.42c2.08,0.25,1.27,0.55,3.5,0.25c5.5-0.75,13.5-1.5,22.67-2.67"/><path d="M23.77,14.5c0.48,0.92,1.76,2.49,1.76,5.52c0,15.23,0.24,56.46,0.24,67.9c0,14.25-6.32,3.53-7.77,2"/><path d="M9.5,63.02c1.25,1.48,3.24,2.35,6,0.98c1.63-0.81,12.85-7.7,19.75-11.58"/><path d="M33.84,19.74c1.58,0.48,4.49,0.55,6.07,0.48c18.44-0.87,34.41-3.22,51.55-3.43c2.64-0.03,4.22,0.23,5.54,0.47"/><path d="M42.11,21.26c0.32,0.94,1.26,1.84,1.26,2.94c0,1.1-0.15,45.84-0.15,49.79"/><path d="M43.44,38.38c3.56,0,13.56-1.4,16.51-1.4"/><path d="M43.14,54.8c2.11,0,12.86-1.05,16.6-0.97"/><path d="M34.77,76.82c1.73,0.93,3,1.05,3.95,0.62c3.82-1.76,15.31-6.71,21.17-9.53"/><path d="M58.78,19.23c0.98,0.99,1.08,1.16,1.08,2.25c0,1.2,0.15,66.27,0.15,75.27"/><path d="M67.99,33.86c1.17,0.28,1.28,0.49,3.64,0.28c4.36-0.39,16.15-3.6,17.75-4.02c1.6-0.42,2.96,0.98,2.69,2.61C88.75,52.5,81.75,76.75,67.95,90.28"/><path d="M67.09,41.94c2.8,1.93,15.49,34.11,25.83,44.98c1.59,1.67,2.59,3.19,3.98,3.83"/></svg>