<svg><path d="M11.5,35.92c2.08,0.25,1.27,0.55,3.5,0.25c5.5-0.75,15-2,24.17-3.17"/><path d="M26.27,12.5c0.48,0.92,1.76,2.49,1.76,5.52c0,15.23,0.24,57.96,0.24,69.4c0,14.25-6.82,4.03-8.27,2.5"/><path d="M11.5,64.6c0.82,0.97,2.12,1.54,3.92,0.64c1.06-0.53,18.4-10.54,22.91-13.07"/><path d="M66.17,11.25c0.08,0.83,0.42,2.28-0.16,3.36C61.25,23.5,52.75,35,38,46.75"/><path d="M65.55,16c4.25,4.79,22.54,20.45,27.23,23.96c1.59,1.19,3.63,1.7,5.22,2.04"/><path d="M53.42,40.69c0.85,0.26,2.41,0.33,3.26,0.26c5.42-0.45,15.07-1.73,20.47-1.98c1.41-0.06,2.27,0.12,2.98,0.26"/><path d="M43.56,53.38c0.32,0.49,0.64,0.9,0.77,1.51c1.02,4.83,2.54,16.61,3.1,25.26"/><path d="M45.53,56.07c8.61-2.13,12.26-2.63,16.12-3.21c1.41-0.21,2.22,1.4,1.98,2.76c-0.98,5.6-2.83,13.27-4.26,21.02"/><path d="M47.7,77.64C52.24,77,54.75,77,62.26,76.36"/><path d="M70.95,52c0.48,0.15,2.38,0.94,3.35,0.87c4.7-0.37,12.01-1.52,13.21-1.67c1.21-0.15,3.36-0.29,3.14,2.89C90.25,60,89.75,70.5,87.99,78.68c-1.03,4.79-3.74,2.07-4.96,0.46"/><path d="M72.13,54.13c0.11,0.61,0,40.34-0.11,44.14"/></svg>