<svg><path d="M14.5,39.67c2.32,0.28,4.16,0.41,6.61,0.07c5.03-0.7,12.5-2.22,19.02-3.21c1.26-0.19,2.37-0.28,3.79-0.28"/><path d="M31.27,15.75c0.99,0.99,1.51,2.88,1.51,5.02c0,15.23-0.01,53.71-0.01,65.15c0,14.25-6.32,3.53-7.77,2"/><path d="M13.71,67.02c1.01,1.01,2.04,1.23,3.82,0.02c4.67-3.18,12.47-9.2,23.72-17.29"/><path d="M48.75,14.52c0.87,0.87,0.88,1.86,1,3.11s1.55,14.79,2.06,19.87c0.14,1.45,0.36,2.9,0.49,3.75"/><path d="M50.69,15.62c3.43-0.49,17.62-2.5,24.44-3.26c4.13-0.46,6.9-0.2,6.27,4.65c-0.79,6.16-1.82,12.23-2.79,18.55c-0.22,1.42-0.44,2.85-0.65,4.3"/><path d="M52.08,27.47C58.75,26.5,73,24.62,79.3,24.44"/><path d="M53.19,39.36c8.06-0.73,15.81-1.73,23.85-2.32"/><path d="M56.75,42.5c0.05,0.62,0.23,1.65-0.1,2.51c-2.42,6.4-7.18,13.54-16.41,21.74"/><path d="M56.45,51.35c2.42,0.53,4.9,0.38,6.79,0.07c5.29-0.86,16.92-2.66,22.5-3.43c5.74-0.79,6.89,0.77,6.44,5.64c-0.73,7.87-3.35,23.9-8.39,36.09c-2.91,7.04-5.25,9.01-9.61,4.26"/><path d="M72.98,60.61c0,1.02-0.48,1.77-1.36,2.51c-3.17,2.69-9.79,5.92-18.71,8.56"/><path d="M49.42,62.3c0.82,0.82,1.13,2.07,1.13,3.18c0,2.67-0.06,4.42-0.06,9.01c0,6.12,1.62,7.57,12.42,7.57c10.83,0,12.04-1.2,12.04-6.81"/></svg>