<svg><path d="M14.75,37.75c1.97,0.24,3.84,0.44,5.86,0.2c4.55-0.55,10.35-1.56,16.78-2.38c1.23-0.16,2.48-0.23,3.77-0.23"/><path d="M29.02,13.58c1.2,1.2,1.51,2.92,1.51,4.77c0,14.56-0.01,62.94-0.01,67.9c0,14.25-6.07,3.53-7.52,2"/><path d="M13.5,66c1.38,0.61,2.55,0.55,4.12-0.5C19.23,64.44,31.3,55.31,38,50"/><path d="M49.19,19.02c2.15,0.33,4.29,0.33,6.44-0.02c5.63-0.99,17.35-3.25,20.73-3.94c2.75-0.56,3.63,1.4,2.37,3.57C69.5,34.5,59.62,44.38,44.15,52.82"/><path d="M48.73,26.69c5.04,0.06,19.37,11.78,32.47,18.95c3.58,2.12,6.88,3.95,10.91,4.99"/><path d="M48.12,60.04c0.67,0.67,0.97,1.67,1.07,2.17c0.58,2.9,1.36,6.17,2.25,10.3c0.32,1.47,0.65,3.06,1,4.77"/><path d="M49.58,61.1c9.54-0.97,24.55-2.89,31.79-3.43c3.44-0.26,5.41,0.52,4.21,4.27c-0.95,2.96-1.18,4.73-2.59,10.22"/><path d="M52.98,75.06c5.41-0.6,17.25-1.81,26.39-2.6c1.96-0.17,3.79-0.32,5.41-0.44"/><path d="M65.67,48c1.1,1.1,1.28,2.38,1.28,4.16c0,6.09,0,26.72,0,36.32"/><path d="M45.94,91.04c1.51,1.51,2.55,1.75,4,1.47c11.18-2.14,24.31-4.89,35.35-7.38"/><path d="M80.29,78.93c4.04,2.69,10.42,11.06,11.43,15.24"/></svg>