<svg><path d="M11,36.42c2.08,0.25,1.27,0.55,3.5,0.25c5.5-0.75,15-2,24.17-3.17"/><path d="M25.27,13c0.48,0.92,1.76,2.49,1.76,5.52c0,15.23,0.24,58.96,0.24,70.4c0,14.25-6.32,3.53-7.77,2"/><path d="M10.5,63.13c0.92,0.94,2.39,1.49,4.43,0.62c1.2-0.51,19.48-9.88,24.57-12.33"/><path d="M56.66,9.75c0.59,1.19,0.83,3.07,0.29,4.84c-1.18,3.91-3.71,12.16-6.15,15.93c-0.84,1.29,0.18,2.23,1.62,1.98c5.97-1.02,15.3-2.55,24.17-3.28"/><path d="M56.32,17.46c4.43-0.21,19.84-2.44,22.17-2.71c1.94-0.23,2.99,1.38,2.41,2.95c-2.4,6.55-5.4,13.8-7.87,21.55"/><path d="M39,41.71c1.11,0.53,3.14,0.58,4.24,0.53c11.73-0.49,37.76-4.88,49.38-4.13c1.84,0.12,2.95,0.25,3.88,0.52"/><path d="M65.54,42.9c0.07,0.36,0.28,1.02-0.14,1.44C62,47.75,54.75,52.75,40.58,58.08"/><path d="M59.93,49.9C70,57.96,74,74.24,68.35,92.1c-2.33,7.35-7.6,4.15-9.8,1.08"/><path d="M62.75,56.23c0.07,0.42,0.15,1.09-0.14,1.7c-1.69,3.58-11.42,11.45-24.73,16.26"/><path d="M65.97,68.45c0.08,0.55,0.17,1.43-0.16,2.22c-1.9,4.68-12.79,14.96-27.7,21.26"/><path d="M85.33,47.74c0.04,0.34,0.09,0.89-0.09,1.39c-1.05,2.92-7.1,9.34-15.37,13.26"/><path d="M69.8,63.33C75,70.5,86,83.75,92.18,88.18c1.44,1.03,2.36,1.76,3.64,2.11"/></svg>