<svg><path d="M12.5,37.92c2.08,0.25,1.27,0.55,3.5,0.25c5.5-0.75,13.5-2,22.67-3.17"/><path d="M27.27,14c0.48,0.92,1.67,2.49,1.76,5.52c0.4,14.55,0.24,62.94,0.24,67.9c0,14.25-6.32,3.53-7.77,2"/><path d="M10.5,66c2.33,1.63,3.83,0.89,6.16-0.51c1.37-0.83,16.27-10.85,22.09-14.82"/><path d="M44.25,18.07c0.53,1.44,1.29,2.52,1.31,4.42c0.1,14.32,0.1,48.17-0.22,75.51"/><path d="M45.7,20.91c12.69-1.65,34.04-4.16,44.59-4.16c2.21,0,3.96,1.75,3.96,4.02c0,16.81-0.7,53.91-0.35,76.23"/><path d="M53.54,34.49c0.62,0.24,2.64,0.31,3.26,0.24c2.91-0.32,13.69-1.82,25.74-2.67c0.95-0.07,1.82,0.05,2.61,0.25"/><path d="M67.92,35.7c0.5,0.86,0.5,2.78,0.5,3.47c0,4.8,0.25,35.43,0.12,40.23"/><path d="M54.19,54.95c0.58,0.27,2.51,0.42,3.11,0.35c3.41-0.35,11.56-2,22.66-2.62c0.73-0.04,2.33-0.11,3.41,0.13"/><path d="M52.76,81.14c0.4,0.13,1.95,0.17,2.63,0.11c5.59-0.56,22.14-2.48,28.46-2.82c1.09-0.06,2.41,0.22,2.96,0.44"/><path d="M76.74,61.38c3.21,2.12,5.96,6.62,6.65,9.27"/><path d="M46.01,95c9.2,0,35.19-2.11,47.89-2.52"/></svg>