<svg><path d="M11,36.45c2.16,0.23,1.32,0.52,3.62,0.23c5.7-0.7,16.05-2.34,25.54-3.44"/><path d="M28.27,13.5c0.48,0.92,1.76,2.49,1.76,5.52c0,15.23,0.24,56.46,0.24,67.9c0,14.25-6.32,3.53-7.77,2"/><path d="M10.5,63.89c0.93,1.15,2.42,1.82,4.49,0.76c1.22-0.63,19.61-13.98,24.76-16.99"/><path d="M45.29,17.68c0.97,0.62,2.85,0.5,4.42,0.21c4.1-0.76,8.06-1.97,12.43-2.95c2.59-0.58,3.11,0.53,2.28,3.87c-1.95,7.82-12.93,26.95-25.68,36.7"/><path d="M44.23,26.39c3,1.25,7.75,5.14,8.49,7.08"/><path d="M82.48,14.64c0.02,0.24,0.05,0.62-0.05,0.96c-0.61,2.03-4.12,6.47-8.92,9.19"/><path d="M65.64,18.04C67.8,21.25,86,42,91.85,47.36c1.53,1.4,2.69,2.1,4.15,2.52"/><path d="M93.33,23.29c0.03,0.27,0.08,0.7-0.07,1.09c-0.88,2.29-5.92,7.33-12.82,10.41"/><path d="M52.56,49.34c0.73,0.39,2.06,0.43,2.78,0.39c7.97-0.49,13.96-1.98,22.46-2.37c1.21-0.06,1.94,0.19,2.54,0.38"/><path d="M41.83,66.56c0.87,0.23,4.13,0.34,5.09,0.32c8.82-0.24,30.93-3.12,40.48-3.32c1.21-0.02,3.41,0.03,5.64,0.48"/><path d="M65.42,51.63c0.52,0.63,1,2.15,0.98,3.36c-0.2,20.99-9.91,32.06-25.9,38.51"/><path d="M66.43,72.64C78.5,79.12,86,85.5,91.68,94.37"/></svg>