<svg><path d="M10.5,36.92c2.08,0.25,1.27,0.55,3.5,0.25c5.5-0.75,15.5-2.5,24.67-3.67"/><path d="M26.27,13c0.48,0.92,1.76,2.49,1.76,5.52c0,15.23,0.24,58.46,0.24,69.9c0,14.25-6.32,4.03-7.77,2.5"/><path d="M11,67.02c1.5,1.23,2.75,0.98,4.5-0.02c1.58-0.9,13.85-7.7,20.75-11.58"/><path d="M44.14,24.04c1.11,0.71,2.98,1.1,4.9,1.03c8.96-0.32,26.23-2.23,34.67-3.51c2.08-0.32,4.04-0.07,5.89,0.55"/><path d="M44.72,36.82c0.28,0.41,0.56,0.75,0.68,1.27c0.96,4.08,2.61,13.83,3.27,21.16"/><path d="M45.76,39.14c8.33-1.64,38.98-3.77,42.24-4.15c2.03-0.24,3.09,1.36,2.77,3.64c-0.92,6.62-2.48,14.37-3.61,18.86"/><path d="M53.54,44.08c2.15,1.35,5.56,5.54,6.1,7.63"/><path d="M80.54,42.14c0.02,0.22,0.04,0.57-0.04,0.88c-0.45,1.86-3.05,5.94-6.61,8.44"/><path d="M48.46,57.93c9.09-0.92,30.34-2.69,38.84-3.14"/><path d="M65.65,11.75c0.87,0.5,1.39,2.25,1.56,3.25c0.17,1,0,77.75-0.17,84"/><path d="M67.04,57.25c-4.94,9.9-17.77,23.9-28.04,29.5"/><path d="M67.37,56.75c3.85,3.88,20.4,22.72,24.58,26.53c1.42,1.29,2.63,1.85,4.05,2.22"/></svg>