<svg><path d="M12.25,37.26c2.1,0.2,1.28,0.45,3.53,0.2c5.55-0.61,15.64-2.03,24.88-2.98"/><path d="M27.27,14.5c0.48,0.92,1.76,2.49,1.76,5.52c0,15.23,0.24,52.96,0.24,64.4c0,14.25-6.32,3.53-7.77,2"/><path d="M11.5,65.31c1.03,1.22,2.67,1.94,4.95,0.81c1.34-0.67,16.55-11.87,23.3-17.06"/><path d="M50.49,15.73c1.05,0.4,2.11,0.49,3.12,0.31c2-0.36,26.27-4.08,28.39-4.45c2.12-0.36,2.84,1.53,1.58,2.71c-2.17,2.04-15.36,10.23-16.7,11.68"/><path d="M59.17,22.26c2.23,0.87,7.5,4.21,8.55,6.48"/><path d="M47.73,33.71c0.59,0.23,2.36,0.41,4.23,0.11c13.03-2.07,26.21-4.09,34.93-4.36c6.61-0.21,2.36,4.79-1.97,8.45"/><path d="M69.02,33.15c0,8.71-0.03,13.87-0.03,19.3c0,6.55-4.52,1.72-6.29-0.33"/><path d="M64.24,31.73c0.06,0.54,0.2,1.44-0.12,2.19c-2.5,5.81-7.97,13.92-20.49,20.93"/><path d="M41.53,69.04c1.37,0.56,2.92,0.74,4.49,0.56c8.01-0.92,31.54-3.12,43.65-4.21c1.56-0.14,2.54,0.1,4.1,0.49"/><path d="M65.92,59.33c0.7,0.99,1.23,2.19,1.23,3.2c0,10.35,0,30.3-0.18,36.46"/><path d="M65.92,67.19C61.87,76.5,49.51,88.6,38.5,92.56"/><path d="M67.85,67.95c3.53,3.09,20.11,18.61,23.94,21.65c1.3,1.03,2.41,1.47,3.71,1.77"/></svg>