<svg><path d="M13,36.42c1.62,0.46,2.51,0.42,4.75,0.25c3.75-0.29,11.52-1.29,19.29-2.19c1.28-0.15,2.83-0.22,3.87,0.03"/><path d="M28.27,15.5c0.87,0.87,1.51,2.75,1.51,4.52c0,15.23-0.01,53.46-0.01,64.9c0,14.25-6.32,3.53-7.77,2"/><path d="M12.64,64.57c0.98,0.43,2.33,0.38,4.11-0.82c5-3.36,8.75-5.75,20-13.83"/><path d="M48.79,18.4c0.84,0.84,1.58,2.48,1.77,4.11c0.58,5.18,1.94,13.8,2.57,18.92c0.18,1.47,0.31,2.65,0.36,3.37"/><path d="M50.97,19.59c5.14-0.89,18.23-2.48,23.9-3.11c4.26-0.47,5.39,0.31,4.8,4.63c-0.57,4.21-1.63,12.11-2.46,17.71c-0.25,1.71-0.48,3.2-0.67,4.31"/><path d="M52.58,31.18c4.17-0.8,21.64-3.08,25.01-3.08"/><path d="M54.38,42.56c6.87-0.93,13.96-1.63,21.5-2.07"/><path d="M41.03,55.58c2.19,0.78,4.72,0.45,6.98,0.23c8.7-0.83,26.17-3.14,36.75-3.94c2.16-0.16,4.33-0.07,6.46,0.39"/><path d="M64.72,55.87c0.83,0.83,1.3,2.25,1.3,3.1c0,0.83,0.05,18.78,0.05,24.55"/><path d="M67.41,68.54c6.32-0.62,8.97-1.41,12.39-1.76c1.25-0.12,2.5-0.1,3.13,0.05"/><path d="M50.63,65.64c0.08,1.02-0.04,1.94-0.33,2.92c-1.25,4.19-5.04,10.71-11.03,18.74"/><path d="M49.5,76.5c2.62,0,21.32,12.03,32.36,15.57c2.14,0.68,4.51,1.43,7.66,2.2"/></svg>