<svg><path d="M13,39.67c1.84,0.22,3.47,0.5,5.36,0.25c4.94-0.64,13.98-2.48,21.17-3.47c1.13-0.16,2.34-0.2,3.39-0.2"/><path d="M28.52,16c1.05,1.05,1.76,3.12,1.76,5.52c0,15.23-0.01,52.46-0.01,63.9c0,14.25-6.32,3.53-7.77,2"/><path d="M13.7,65.22c1.13,0.57,2.38,0.5,3.78-0.48c2.65-1.86,9.02-6.24,20.27-14.32"/><path d="M48.01,20.33c1.24,0.54,3.65,1.01,4.97,0.9c6.07-0.51,22.22-2.78,28.64-3.57c2.85-0.35,4.58,0.02,4.31,3.45c-0.14,1.79-0.99,4.6-2.08,10.31"/><path d="M52.79,35.62c5.71-0.37,20.05-1.7,28.71-2.62c1.91-0.2,3.45-0.36,4.43-0.44"/><path d="M50.56,21.45c0.8,0.8,0.95,1.92,0.93,3.05c-0.37,18.75-1.37,42-14.91,64.3"/><path d="M55.53,46.27c1.61,0.57,3.93,0.33,5.59,0.11c8.38-1.12,14.63-2.01,22.38-3.08c1.87-0.26,3.84-0.37,5.7,0.02"/><path d="M70.43,47.79c0.07,0.96-0.32,1.71-0.97,2.41c-3.96,4.3-6.43,6.46-11.13,10.29c-1.58,1.29-1.66,2.67,0.85,2.11c8.19-1.85,15.94-3.23,25.43-5.31"/><path d="M80.62,52.25c2.92,1.89,7.53,7.77,8.26,10.72"/><path d="M53.57,76.26c1.61,0.49,3.91,0.29,5.55,0.1c5.99-0.7,19.14-2,26-2.41c1.72-0.1,3.47-0.21,5.17,0.1"/><path d="M69.84,64.12c0.77,0.77,1.24,2.07,1.24,3.08C71.08,73,71,87,71,89.12"/><path d="M46.08,91.27c2.43,0.67,5.45,0.61,7.93,0.34c7.31-0.78,21.75-2.14,37.11-2.34c2.54-0.03,4.84,0.09,7.33,0.5"/></svg>