<svg><path d="M12.5,37.75C14.58,38,13.75,38,16,38c4.26,0,17.5-2.5,26.67-3.67"/><path d="M29.27,13.83c0.48,0.92,1.67,2.49,1.76,5.52c0.4,14.55,0.24,63.66,0.24,68.62c0,12.28-6.21,2.5-7.71,1.25"/><path d="M13,65.66c1.74,1.05,2.86,0.57,4.6-0.33C18.63,64.8,37.9,54.06,42.25,51.5"/><path d="M46.76,24.4c1.08,0.38,3.05,0.42,4.12,0.38c9.36-0.28,26.36-2.03,36.34-3.2c1.78-0.21,2.87,0.18,3.76,0.38"/><path d="M51.31,34.13c0.5,0.49,0.83,0.98,1,1.47c0.17,0.49-0.2,21.36-0.18,25.77"/><path d="M53.31,36.42c5.61-0.2,31.18-3.54,32.67-3.67c2.66-0.24,3.66,1.59,3.33,2.32c-0.04,1.65-0.92,12.68-0.92,23.87"/><path d="M53.31,45.3c7.42-0.43,28.84-2.85,34.83-3.22"/><path d="M53.47,54.51c5.33-0.37,28.97-2.86,35.13-3.1"/><path d="M67.69,11.74c0.93,0.43,1.48,1.92,1.67,2.77s0,41.19-0.18,46.51"/><path d="M86.03,11.25c3.31,1.11,8.55,4.58,9.38,6.31"/><path d="M41.88,71.67c1.15,0.58,3.24,0.72,4.39,0.58c12.69-1.61,33.36-2.82,47.35-3.7c1.91-0.12,3.05,0.27,4.01,0.56"/><path d="M80.94,59.8c0.06,0.35,0.91,1.8,0.91,3.99c0,14.75-0.18,26.94-0.18,30.53c0,8.7-5.44,1.29-7.02,0.18"/><path d="M54.14,78.83c2.89,1.65,7.47,6.76,8.19,9.32"/></svg>