<svg><path d="M13,35.25c2.08,0.25,1.25,0.25,3.5,0.25c4.26,0,15.5-2.5,24.67-3.67"/><path d="M27.63,13.33c0.52,0.98,1.79,2.67,1.88,5.92c0.43,15.62-0.27,64.55-0.27,69.86c0,10.88-6.66,2.68-8.27,1.34"/><path d="M13,63.71c1.67,0.96,2.74,0.52,4.42-0.3c0.98-0.49,18.91-10.82,23.08-13.16"/><path d="M66.14,12.5c0.85,0.86,0.22,2.84-0.55,3.97C61.78,22.08,54.5,30,43.78,35.82"/><path d="M63.69,20.1c1.33,0.49,1.35,0.84,3.26,0.61c3.8-0.46,11.11-1.87,14.13-2.7c2.42-0.66,3.48,0.91,2.19,3.17c-5.59,9.85-21.78,25.73-42.5,35.4"/><path d="M59.63,27.93c1.06,0.52,5.28,3.6,7.4,6.69"/><path d="M49.28,36.14c1.18,0.88,4.73,4.6,5.72,6.57"/><path d="M57.44,49.14c0.04,0.39,0.08,1-0.08,1.56c-0.91,3.29-6.14,10.5-13.3,14.91"/><path d="M56.87,55.94c0.67,0.24,1.89,0.29,2.56,0.24c8.18-0.65,15.61-2.21,22.96-3.04c1.1-0.12,1.78,0.11,2.33,0.23"/><path d="M38.63,72.39c1.08,0.34,3.06,0.39,4.13,0.34c11.22-0.56,33.21-4.94,49.59-5.07c1.8-0.01,2.88,0.16,3.77,0.33"/><path d="M65.22,58.38c0.67,0.85,1.43,1.47,1.43,2.65c0,4.12-0.07,27.38-0.18,30.86"/><path d="M49.1,81c0.54,0.28,1.1,1.46,1.08,2.03c-0.18,3.47-0.93,5.47-2,9.03c-0.37,1.23-0.26,2.57,1.07,2.34c12.01-2.14,29.41-3.15,36.16-3.3"/><path d="M85.67,76.92c0.54,0.28,1.11,2.08,1.08,2.65c-0.24,3.68-0.45,8.18-0.45,15.57"/></svg>