<svg><path d="M10.5,35.05c2.27,0.27,1.38,0.6,3.81,0.27c5.99-0.82,16.88-2.72,26.86-3.99"/><path d="M26.77,14c0.48,0.92,1.76,2.49,1.76,5.52c0,15.23,0.24,56.46,0.24,67.9c0,14.25-6.32,3.53-7.77,2"/><path d="M12,63.56c0.84,1,2.18,1.58,4.04,0.66c1.1-0.54,21.66-13.19,26.31-15.81"/><path d="M49.95,12.33c3.15,1.79,8.14,7.34,8.93,10.12"/><path d="M81.56,10.52c0.03,0.33,0.06,0.84-0.05,1.31c-0.65,2.77-4.37,8.85-9.46,12.57"/><path d="M47.88,28.18c0.81,0.34,3.8,0.41,4.61,0.34c6.48-0.52,26.36-3.31,33.67-3.18c1.35,0.02,3.66,0.16,4.34,0.33"/><path d="M66.07,28.93c1.08,0.45,1.94,1.98,1.94,2.9c0,3.93,0.28,16.43,0.28,21.93"/><path d="M48.84,42.22c0.81,0.34,2.29,0.38,3.11,0.34c6.71-0.31,24.02-2.81,33.22-2.96c1.35-0.02,2.16,0.16,2.84,0.33"/><path d="M42.02,55.87c1.31,0.48,3.71,0.55,5.02,0.48c7.28-0.35,32.59-3.85,46.37-4.16c2.18-0.05,3.5,0.23,4.59,0.47"/><path d="M54.26,58.52c0.05,0.84,0.2,2.25-0.11,3.36C51.9,70,46.16,83.22,36.07,93.4"/><path d="M55.78,69.36c0.78,0.45,3.34,0.6,4.13,0.46c3.69-0.61,20.49-2.65,26.69-3.12c1.21-0.09,2.31,0.09,3.31,0.47"/><path d="M70.03,71.54c0.83,1.09,0.83,1.75,0.83,2.62c0,6.11,0,12.3-0.21,18.41"/><path d="M44.25,94.58c0.78,0.33,3.14,0.73,4.46,0.6c15.86-1.58,30.59-2.95,43.55-3.45c2.13-0.08,4.68,0.55,5.74,1.07"/></svg>