<svg><path d="M11.75,36.92c1.85,0.22,3.48,0.48,5.4,0.27c5-0.56,12.54-1.34,19.63-2.25c1.13-0.15,2.1-0.18,3.39-0.18"/><path d="M27.52,16.25c1.05,1.05,1.51,2.75,1.51,5.02c0,15.23-0.01,52.71-0.01,64.15c0,14.25-6.32,3.53-7.77,2"/><path d="M11.75,66.68c1.25,1.07,2.55,0.8,4-0.18c5-3.36,8.75-6.5,20-14.58"/><path d="M39.32,28.24c3.05,0.26,4.87,0.31,7.06,0.07c10.12-1.14,29.18-3.61,39.37-4.11c2.1-0.1,4.21-0.23,6.24,0.41"/><path d="M51.75,17.19c0.78,0.78,1.29,1.52,1.38,2.38c0.75,8.12,1.12,8.43,1.94,15.97"/><path d="M74.87,14c0.5,1.12,0.58,1.92,0.38,3.35c-1.12,7.65-2.19,11.78-3.12,17.03"/><path d="M63.15,36.52c0.07,0.85-0.08,2.31-0.65,3.43C58,48.75,50.62,61.12,35.74,72.81"/><path d="M63.71,40.04c3.71,3.75,17.65,15.41,24.43,20.56c2.04,1.55,4.25,3.47,6.62,4.49"/><path d="M52.2,62.68c1.33,0.5,3.46,0.23,4.82,0.06c4.86-0.62,9.49-1.74,15.74-2.42c1.15-0.12,2.57-0.12,3.71,0.14"/><path d="M48.49,74.8c0.98,0.98,1.42,1.93,1.64,3.22c1.06,6.08,1.78,9.54,2.6,13.73c0.29,1.49,0.57,3.11,0.85,5.03"/><path d="M50.32,76.04c12.47-1.71,20.99-2.68,26.79-3.37c3.36-0.4,5.45,0.35,4.65,4.08c-1.15,5.36-2.41,8.06-3.58,14.5"/><path d="M53.71,94.55c6.52-0.52,14.18-1.57,22.27-2.23c1.36-0.11,2.74-0.21,4.13-0.29"/></svg>