<svg><path d="M18.9,17.63c0.73,0.23,2.07,0.27,2.8,0.23c5.2-0.26,17.89-1.77,22.92-1.89c1.22-0.03,1.95,0.11,2.56,0.22"/><path d="M32.88,9.52c0.1,0.19,1.39,0.98,1.39,2.17c0,7.76-0.15,12.99-0.15,14.94"/><path d="M15.53,27.96c1.05,0.31,2.98,0.39,4.03,0.31c11.5-0.93,20.08-2.21,27.86-2.39c1.75-0.04,2.8,0.15,3.68,0.3"/><path d="M24.32,31.34c1.56,1.02,4.04,4.18,4.43,5.76"/><path d="M42.79,29.28c0.01,0.18,0.02,0.46-0.02,0.71c-0.26,1.5-1.76,4.51-4.19,7.4"/><path d="M16.89,39.87c0.61,0.23,2.69,0.23,3.3,0.2c8.65-0.37,15.77-1.23,26.03-1.69c1.01-0.05,3.12-0.14,3.62-0.03"/><path d="M15.32,49.46c1.03,0.27,2.92,0.34,3.95,0.27c8.66-0.66,20.21-2.31,29.07-2.73c1.71-0.08,2.75,0.13,3.6,0.26"/><path d="M33.7,40.59c0.37,0.29,1.16,1.59,1.24,2.17c0.08,0.58-0.05,14.13-0.12,17.73"/><path d="M70.15,9.18c0.46,0.4,0.65,1.77,0.61,2.49c-1.17,22.78-5.01,35.08-19.91,44.18"/><path d="M56.46,23.11c0.83,0.38,3.09,0.13,4.12,0c1.04-0.13,17.09-3.3,20.35-4.06c2.39-0.56,3.74,1.22,3.1,2.65c-0.93,2.1-3.19,12.61-3.99,17.82c-1.29,8.4-0.3,12.46,8.75,12.46c8.39,0,7.24-2.47,7.24-6.96"/><path d="M58.78,33.14c6.14,1.95,12.44,8.91,13.64,12.11"/><path d="M67.98,53c0.09,0.28,0.19,0.73-0.18,1.14c-2.2,2.4-14.8,7.65-32.05,10.87"/><path d="M30.88,72.36c0.94,0.32,2.66,0.4,3.6,0.32c11.77-0.89,24.68-2.79,42.77-4.13c1.56-0.12,4.1-0.13,4.88,0.03"/><path d="M18.4,81.82c1.66,0.41,4.69,0.5,6.35,0.41c12.5-0.68,39.75-2.98,62.24-3.65c2.76-0.08,4.42,0.19,5.8,0.4"/><path d="M54.26,62.72c5.99,5.28,7.99,21.78,4.16,31.89c-3.18,8.4-6.42,3.64-8.48,0.43"/></svg>