<svg><path d="M11.5,37.05c2.27,0.27,1.38,0.6,3.81,0.27c5.99-0.82,16.88-2.72,26.86-3.99"/><path d="M27.77,13.5c0.48,0.92,1.76,2.49,1.76,5.52c0,15.23,0.24,57.46,0.24,68.9c0,14.25-5.82,4.53-7.27,3"/><path d="M11,64.04c0.86,1.02,2.23,1.62,4.14,0.68C16.26,64.16,35,53.9,39.75,51.23"/><path d="M67.93,12.2c0.6,0.34,1.87,2.57,1.99,3.25c0.12,0.69,0.42,11.07,0.3,15.35"/><path d="M50.4,18.06c0.6,0.34,1.29,1.8,1.2,2.49c-0.4,3.06-1.48,8.93-1.98,11.53c-0.3,1.55,0.29,2.55,1.66,1.93c3.37-1.53,33.37-4.2,40.9-4.39"/><path d="M91.64,14.6c0.8,0.39,1.6,2.92,1.6,3.72c0,5.42-0.25,8.92-0.79,13.56"/><path d="M56.77,40.17c0.19,1.29-0.05,2.99-0.65,4.09c-3.8,7.06-8.34,14.16-17.33,21.63"/><path d="M53.03,54.57c0.15,8.47,0.15,35.88-0.02,42.93"/><path d="M74.38,35.06c0.06,0.79-0.02,1.83-0.2,2.5c-1.16,4.32-2.63,7.66-5.29,12.92"/><path d="M52.68,53.25c8.01-0.89,37.74-3.95,41.18-4.44"/><path d="M71.48,52.99c0.68,0.61,1.22,1.92,1.22,2.97c0,10.73-0.34,27.48-0.34,35.71"/><path d="M54.11,65.89c7.56-0.74,33.87-3.38,37.11-3.79"/><path d="M53.19,78.78c7.97-0.62,35.18-2.82,38.6-3.16"/><path d="M53.22,93.26c8.01-0.89,40.56-2.59,44-3.08"/></svg>