<svg><path d="M12,37.42c2.08,0.25,1.27,0.55,3.5,0.25C21,36.92,31,35.17,40.17,34"/><path d="M27.77,16c0.48,0.92,1.67,2.49,1.76,5.52c0.4,14.55,0.24,59.94,0.24,64.9c0,14.25-6.32,3.53-7.77,2"/><path d="M13,62.96c1.5,1.29,3.25,1.54,6.22-0.04c1.61-0.86,12.45-7.12,19.28-11.26"/><path d="M41.05,25.62c1.02,0.52,2.21,0.62,3.23,0.52c9.38-0.95,34.69-3.92,45.51-3.99c1.7-0.01,2.72,0.25,3.57,0.51"/><path d="M52.75,13.98c1.38,1.42,1.82,1.85,1.97,2.72c1.38,8.16,1.77,13.08,2.17,16.04"/><path d="M77.3,12.25c0.33,1.16,0.69,2,0.39,3.46c-1.38,6.92-1.97,9.13-3.55,16.05"/><path d="M47.84,38.57c0.41,0.52,1.14,2.27,1.21,2.97c0.55,5.28,3.09,17.23,3.09,17.58c0,0.35,0.14,1.35,0.27,2.05"/><path d="M49.73,40.14c6.18-0.98,31.62-4.6,33.71-4.7c1.75-0.09,2.81,2.43,2.74,2.97c-0.57,4.21-2.34,15.09-3.3,19.42"/><path d="M50.63,48.61c3.11,0,30.54-2.86,34.06-2.86"/><path d="M 52.507917,59.802708 c 5.725,-0.247708 22.184375,-2.494583 29.923541,-3.022916"/><path d="M39.98,72.88c1.28,0.39,2.72,0.21,3.56,0.11c15.66-1.95,34.6-3.17,46.83-4.08c1.06-0.08,2.96-0.08,4.14-0.08"/><path d="M65.67,60.93c-0.08,1.18,0.41,1.06,0.29,2.1C63.9,80.72,57.25,91.75,37.5,96.5"/><path d="M65.82,70.56c6.35,5.85,20.09,19.63,26.43,23.55c2.16,1.33,2.91,1.53,3.89,1.66"/></svg>