<svg><path d="M12.5,40.75C14.58,41,13.77,41.3,16,41c5.5-0.75,14.5-2,23.67-3.17"/><path d="M28.27,13.83c0.48,0.92,1.67,2.49,1.76,5.52c0.4,14.55,0.24,61.44,0.24,66.4c0,14.25-6.32,3.53-7.77,2"/><path d="M11,68.52c2.73,2.19,4.49,1.19,7.22-0.69C19.83,66.72,29.67,59.31,36.5,54"/><path d="M40.75,19.07c2.1,0.74,1.47,0.74,4.55,0.5c6.27-0.5,12.55-2.26,14.46-2.37c2.17-0.12,3.42,0.99,3.49,3c0.08,2.22-0.31,23.36-0.31,30.43"/><path d="M53.57,21.45c0.03,0.29,0.07,0.76-0.07,1.18c-0.82,2.5-5.53,7.99-11.98,11.35"/><path d="M58.7,30.11c0.05,0.5,0.1,1.3-0.09,2.02c-1.12,4.25-7.58,13.58-16.42,19.28"/><path d="M69.07,18.09c2.09,0.77,1.73,0.77,4.79,0.51c6.24-0.52,13.79-2.31,15.7-2.39c4.28-0.18,4.1,0.91,4.1,3.04c0,3.41-0.52,23.88-0.52,31.17"/><path d="M82.13,20.97c0.03,0.28,0.07,0.73-0.07,1.14C81.2,24.51,76.3,29.77,69.59,33"/><path d="M89.28,27.41c0.05,0.47,0.11,1.2-0.1,1.87c-1.26,3.95-8.51,12.61-18.43,17.91"/><path d="M67.2,53.25c0.47,0.43,0.14,1.47-0.05,1.81c-1.89,3.35-4.79,7.1-8.5,10.24"/><path d="M50.68,65.69c0.54,0.7,1.01,1.05,1.08,1.97c0.28,3.65,2.71,22.77,2.92,27.34"/><path d="M52.08,67.8c3.04-0.12,29.63-3.44,32.4-3.58c2.31-0.12,3.13,1.01,2.87,3.81c-0.43,4.46-1.18,13.37-2.61,24.55"/><path d="M53.84,79.73c6.34-0.92,25.78-2.79,32.28-3.12"/><path d="M55.57,92.79c6.08,0,19.69-1.94,27.55-1.94"/></svg>