<svg><path d="M11.5,37.42c2.08,0.25,1.27,0.55,3.5,0.25c5.5-0.75,16-2,25.17-3.17"/><path d="M26.17,12.5c0.51,0.96,1.84,2.6,1.84,5.77c0,15.94,0.26,59.09,0.26,71.05c0,14.91-6.62,3.7-8.13,2.09"/><path d="M12,65.27c0.69,0.82,1.79,1.3,3.31,0.54c0.9-0.45,20.59-11.25,24.4-13.39"/><path d="M43.35,20.34c1.25,0.41,3.54,0.5,4.8,0.41c12.22-0.87,22.44-2.34,37.35-2.88c2.09-0.08,3.34,0.19,4.38,0.4"/><path d="M46.81,28.83c0.6,0.42,1.37,1.99,1.48,2.55c0.81,4.02,1.85,11.8,3.04,20.23"/><path d="M49.62,30.86c9.15-0.81,30.21-3.38,36.45-3.5c2.58-0.05,2.79,1.27,2.6,3.47c-0.38,4.33-1.92,10.68-3.46,18.48"/><path d="M51.78,39.79c6.9-0.21,21.3-3.13,34.29-3.13"/><path d="M51.38,49.36c8.02-0.84,23.4-2.9,33.84-2.9"/><path d="M65.56,10c0.61,0.6,1.63,1.5,1.63,3.16c0,1.2-0.08,39.13-0.2,46.59"/><path d="M42.93,61.75c0.63,0.86,2.27,1.32,3.16,1.26c2.97-0.21,36.32-5.64,41.85-6.52"/><path d="M82.19,51.87c4.09,1.99,10.56,8.16,11.58,11.25"/><path d="M38.63,74.32c1.33,0.66,3.74,0.79,5.08,0.66c12.39-1.22,38.24-3.7,50.03-4.7c2.2-0.19,3.54,0.31,4.64,0.64"/><path d="M80.17,62.08c0.06,0.4,0.84,2.06,0.84,4.58c0,16.93-0.17,22.67-0.17,26.78c0,9.99-5.05,1.48-6.52,0.21"/><path d="M52.76,80.62c3.21,1.59,8.28,6.53,9.08,9"/></svg>