<svg><path d="M13,35.92c2.08,0.25,1.27,0.55,3.5,0.25c5.5-0.75,15-2,24.17-3.17"/><path d="M27.77,13.5c0.48,0.92,1.76,2.49,1.76,5.52c0,15.23,0.24,56.46,0.24,67.9c0,14.25-6.32,3.53-7.77,2"/><path d="M12,64.1c0.82,0.97,2.12,1.54,3.92,0.64c1.06-0.53,17.9-10.54,22.41-13.07"/><path d="M41.33,19.28c2.52,1.58,5.04,5.84,5.25,8.39"/><path d="M64.11,15.42c0.53,0.46,0.28,2.16-0.2,2.88c-0.48,0.72-4.94,5.26-7.35,6.94"/><path d="M52.93,11c0.77,0.78,0.77,2.78,0.77,3.28c0,14.72-3.45,20.97-9.7,27.37"/><path d="M55.05,30.18c3.38,1.62,7.65,6.74,8.54,9.03"/><path d="M69.43,21.13c2.65,2.04,4.78,5.31,5.05,7.59"/><path d="M93.62,15.95c0.49,0.42,0.26,1.94-0.19,2.58c-0.44,0.64-5.34,4.26-7.57,5.76"/><path d="M82.37,10.5c0.62,0.66,0.62,1.46,0.62,1.88C82.93,29.09,77.25,39,69.17,42.27"/><path d="M83.08,30.73c3.8,1.6,8.61,6.68,9.61,8.95"/><path d="M46.32,45.4c-0.12,3.66-2.96,13.23-3.97,15.42"/><path d="M45.96,48.26c2.4,0,32.68-3,44.74-3c8.2,0,2.59,5.44-0.47,8.98"/><path d="M47.74,65.08c1.01,0.44,2.26,0.33,3.16,0.23c8.44-0.86,27.49-3.58,31.51-3.74c4.01-0.16,4.25,1.31,4.1,3.34c-0.38,5.37-4.17,22.5-9.45,28.52c-4.01,4.58-5.56,1.38-6.53-0.9"/><path d="M66.75,52.76c0.07,1.04,0.18,2.7-0.15,4.19C64.2,67.99,58.5,85,41.03,97.01"/></svg>