<svg><path d="M12.75,37.75c1.93,0.23,3.79,0.22,5.76-0.1c4.74-0.78,7.87-1.65,14.36-3.06c1.1-0.24,2.38-0.47,3.55-0.26"/><path d="M25.77,13.08c1.14,1.14,1.26,3.04,1.26,5.02c0,14.56-0.01,66.69-0.01,71.65c0,14.25-6.07,3.53-7.52,2"/><path d="M12,66.48c1.75,0.65,2.88,0.52,4.19-0.46C17.73,64.87,28.94,55.48,35.5,50"/><path d="M39.26,28.77c2.14,0.32,4.26,0.24,6.37-0.23c3.78-0.64,9.41-1.75,13.12-2.29c2.12-0.35,4.23-0.45,6.36-0.17"/><path d="M43.44,14.8c1.07,1.07,1.33,2.34,1.4,3.45c0.78,11.5,1.37,21.85,1.6,25.01"/><path d="M58.64,13.25c0.98,1.38,0.89,2.6,0.71,4.26C58.25,28.12,58,31.25,56.87,41.26"/><path d="M36,44.29c2.53,0.56,5.03,0.36,7.61-0.1c5.26-0.94,11.26-1.81,15.75-2.6c2.26-0.4,4.47-0.5,6.71,0"/><path d="M42.31,53.31c0.88,0.88,0.95,1.57,0.95,2.74c0,3.9-0.01,22.45-0.01,32.96c0,3.52,0,6.13,0,7"/><path d="M43.71,54.88c4.82-0.96,9.14-2.05,13.53-3.08c2.28-0.53,4.27-0.5,4.27,2.58c0,0.86,0,25.28,0,36.99c0,7.77-4.58,2.12-5.05,1.4"/><path d="M44.21,65.02c4.76-0.87,12.05-2.17,16.23-2.6"/><path d="M44.31,75.69c3.72-0.43,11.85-1.99,16.15-2.27"/><path d="M77.35,15.43c0.03,0.74-0.03,1.97-0.3,2.98c-2.17,8.09-4.42,14.84-9.77,27.86"/><path d="M74.33,38.08c1.42,0.14,2.82,0.04,4.2-0.3c3.5-0.62,9.41-2.37,13.34-2.9c1.24-0.22,2.49-0.27,3.74-0.16"/><path d="M84.25,40.16c0.79,0.79,1.03,1.97,0.88,3.55c-1.75,18.04-5.75,36.16-16.39,48.52"/><path d="M70.41,54.57C71.95,55,81.12,73,88.45,84.66c2.18,3.47,4.5,6.73,7.55,9.41"/></svg>