<svg><path d="M12,39.42c2.08,0.25,1.27,0.55,3.5,0.25c5.5-0.75,15.5-3,24.67-4.17"/><path d="M28.27,15c0.48,0.92,1.67,2.49,1.76,5.52c0.4,14.55,0.24,62.94,0.24,67.9c0,14.25-6.32,3.53-7.77,2"/><path d="M11,68.64c3,0.86,4.84,1.22,7.79-0.71c1.74-1.14,12.35-8.79,19.71-14.27"/><path d="M66.61,11.75c0.79,0.66,1.18,0.66,1.18,2.18c0,1.53,0,4.15,0,8.3"/><path d="M46.61,23.94c1.09,0.29,2.36,0.33,3.44,0.29c6.13-0.25,27.94-3.15,37.21-3.36c1.81-0.04,2.9,0.14,3.8,0.28"/><path d="M53.85,27.7c3.28,4.19,4.78,7.88,5.08,10.64"/><path d="M81.4,24.92c0.35,1.08,0.19,2.15,0.07,2.49c-1.22,3.34-4.18,8.53-5.32,10.37"/><path d="M42.72,41.76c1.15,0.34,2.49,0.46,3.63,0.34c12.9-1.35,32.44-2.66,46.91-3.36c1.91-0.09,3.06,0.16,4.01,0.33"/><path d="M49.45,51.04c0.27,0.36,0.78,1.61,0.93,2.07c1.22,3.76,2.78,14.26,3.54,21.28"/><path d="M51.21,52.54c9.45-0.95,25.65-3.05,32.7-3.85c2.59-0.29,4.33,2.23,4.2,3.27c-0.49,3.79-2.29,11.41-4.12,19.47"/><path d="M52.98,62.28c3.08-0.37,30.12-2.59,32.66-2.74"/><path d="M53.99,72.42c6.8-0.4,20.62-2.13,30.01-2.79"/><path d="M66.86,51.79c0.56,0.53,0.97,1.52,1,2.82c0.19,9.48,0.07,36.22,0.07,38.86"/><path d="M49.33,84.1c0.71,0.33,2.01,0.37,2.72,0.33c7.39-0.38,23.64-2.7,32.78-2.77c1.18-0.01,1.89,0.16,2.49,0.32"/><path d="M41.99,95.55c1.06,0.43,3,0.5,4.05,0.43c11-0.72,30.96-2.23,45.98-2.22c1.76,0,2.82,0.2,3.7,0.42"/></svg>