<svg><path d="M10,37.42c2.08,0.25,1.27,0.55,3.5,0.25c5.5-0.75,14-2,23.17-3.17"/><path d="M25.77,15c0.48,0.92,1.67,2.49,1.76,5.52c0.4,14.55,0.24,63.94,0.24,68.9c0,14.25-6.32,3.53-7.77,2"/><path d="M9.5,67.22c2.81,2.12,4.62,1.15,7.43-0.67c1.66-1.07,11.79-8.25,18.82-13.39"/><path d="M80.38,13.75c0.1,0.3,0.13,0.71-0.18,1.19c-2.56,3.88-16.4,7.53-32.84,10.65"/><path d="M48.2,29.64c2.08,1.33,5.21,5.08,5.73,7.15"/><path d="M86.12,23c0.03,0.32,0.15,0.87-0.05,1.31c-1.6,3.52-4.16,7.66-9.43,12.49"/><path d="M41.59,41.75c0.63,0.14,2.31,0.38,3.99,0.43c4.62,0.14,39.16-4.16,46.51-3.87c1.68,0.07,2.1-0.14,3.15,0"/><path d="M64.37,24.3c1.22,0.33,2.19,1.97,2.19,2.68c0,4.19,0,34.51-0.24,38.68"/><path d="M64.82,41.24c-5.03,8.13-17.01,18.61-28.32,23.3"/><path d="M68.09,43C72,46.75,86.75,58.75,92.71,61.22c1.45,0.6,2.45,1.21,3.76,1.45"/><path d="M46.11,70.91c0.29,0.45,0.79,1.25,0.95,1.81c1.28,4.57,2.38,16.85,3.13,25.28"/><path d="M47.96,72.38c12.7-1.3,28.34-2.2,35.92-2.65c2.78-0.17,4.2,1.16,4.05,2.38c-0.63,5.06-1.98,15.99-4.1,23.76"/><path d="M65.72,71.89c0.6,0.86,0.82,1.21,0.81,2.42c-0.02,5.68,0.18,17.52,0.18,19.37"/><path d="M49.77,82.92c3.31-0.22,33.43-2.25,36.16-2.25"/><path d="M50.72,95.03c8.77-0.3,23.5-1.63,33.58-1.75"/></svg>