<svg><path d="M12.5,36.92c2.08,0.25,1.27,0.55,3.5,0.25c5.5-0.75,12-1.5,21.17-2.67"/><path d="M26.27,11.5c0.48,0.92,1.67,2.49,1.76,5.52c0.4,14.55,0.24,66.94,0.24,71.9c0,14.25-6.32,3.53-7.77,2"/><path d="M12.5,66.5c2.46,1.63,4.05,0.89,6.51-0.51c1.45-0.83,10.33-6.35,16.49-10.32"/><path d="M54.57,14.5c0.04,0.58,0.16,1.67-0.08,2.32c-2.93,8.16-7.25,15.64-14.88,22.22"/><path d="M52.45,27.5c6.53-0.21,27.31-3.6,33.58-4.12c1.45-0.12,2.34,0.15,3.07,0.32"/><path d="M39.5,52.7c1.15,0.54,3.24,0.67,4.4,0.54c8.85-0.99,40.43-3.24,52.84-3.98c1.91-0.11,3.06,0.26,4.01,0.53"/><path d="M47.69,40.25c0.82,0.5,1.31,2.25,1.48,3.25c0.16,1,1.26,17.75,1.83,29"/><path d="M60.02,35.75c0.82,0.5,1.49,2.23,1.48,3.25c-0.06,5.5,0.13,18.5,0.13,32.75"/><path d="M73.84,33.75c0.82,0.5,1.54,2.23,1.48,3.25c-0.44,8-1.57,18.5-3.38,33.75"/><path d="M86.05,33.25c0.82,0.5,1.73,2.28,1.48,4.25c-1,8-1.88,16.75-3.77,32.25"/><path d="M42.53,72.7c1.15,0.54,3.25,0.67,4.4,0.54c6.55-0.74,32.11-2.49,44.53-3.23c1.91-0.11,3.06,0.26,4.01,0.53"/><path d="M42.55,82.25c0,4.98-4.34,12.33-5.48,13.75"/><path d="M54.84,82.58c2.3,2.57,4.47,9.64,5.05,13.63"/><path d="M71.09,81.83c2.31,2.36,5.97,9.71,6.55,13.38"/><path d="M87.56,79.83c2.9,2.67,7.48,10.98,8.21,15.13"/></svg>