<svg><path d="M11,35.92c2.08,0.25,1.27,0.55,3.5,0.25c5.5-0.75,13-2,22.17-3.17"/><path d="M24.77,12.5c0.48,0.92,1.76,2.49,1.76,5.52c0,15.23,0.24,59.46,0.24,70.9c0,14.25-6.32,3.53-7.77,2"/><path d="M11.75,64.4c1.5,0.85,2.75,0.85,4.09-0.3c1.37-1.18,12.98-8.93,19.41-13.68"/><path d="M41.48,24.1c0.84,0.49,3.09,1.07,4.88,0.85c12.1-1.46,29.48-3.39,40.34-4.1c1.87-0.12,3.37-0.06,5.05,0.32"/><path d="M65.25,10.75c0.41,0.61,0.45,1.8,0.15,3.08c-3.75,16.04-11.71,31-27.39,40.69"/><path d="M67.18,22.67c6.23,5.74,20.78,20.36,27,24.2c2.12,1.31,2.85,1.5,3.82,1.62"/><path d="M42.27,32.83c2.66,1.21,6.88,4.99,7.54,6.88"/><path d="M90.78,27.64c0.02,0.24,0.05,0.63-0.04,0.98c-0.54,2.06-3.66,6.58-7.93,9.35"/><path d="M50.74,45.95c0.24,0.38,0.25,0.65,0.38,1.13c1.08,3.98,2.58,14.05,3.26,21.48"/><path d="M51.87,46.96c8.39-1,21.76-2.69,28.03-3.53c2.3-0.31,3.48,0.78,3.36,1.88c-0.43,4.02-1.98,14.46-3.04,21.17"/><path d="M53.43,56.78c2.73-0.39,25.25-2.27,27.51-2.43"/><path d="M54.81,66.99c6.04-0.43,17.06-1.73,25.41-2.43"/><path d="M66.86,68.37c0.07,0.39,1.02,2.02,1.02,4.48c0,11.65-0.21,15.88-0.21,19.91c0,9.14-5.85,1.22-7.07,0.2"/><path d="M53.21,76.93c0.04,0.41,0.08,1.05-0.08,1.64C52.16,82.02,46.6,89.61,39,94.25"/><path d="M81.21,78.37c4.6,2.36,11.89,9.71,13.04,13.38"/></svg>