<svg><path d="M10,35.42c2.03,0.24,3.91,0.47,5.98,0.1c5.02-0.88,14.09-2.84,19.29-3.62c1.65-0.25,3.01-0.4,3.89-0.4"/><path d="M26.77,14.5c1.18,1.18,1.51,2.75,1.51,4.77c0,15.23-0.01,56.71-0.01,68.15c0,14.25-5.07,3.78-6.52,2.25"/><path d="M11.5,65.68c1.12,1.2,2.38,0.95,4.25-0.18c5.19-3.11,8-4.75,20.5-12.58"/><path d="M60.05,14.14c1.2,0.99,1.57,2.11,1.7,4.01c0.22,3.35,0.5,9.98,0.6,14.77"/><path d="M72.05,10.89c0.7,1.11,1.07,2.24,0.95,4.06c-0.09,1.27-0.75,11.8-1.15,16.71"/><path d="M47.52,18.33c1.78,1.92,4.6,7.9,5.04,10.88"/><path d="M87.28,14.64c0.12,0.85,0,1.65-0.37,2.41c-1.19,3.36-2.75,6.34-6.36,11.91"/><path d="M43,35.65c2.28,0.83,5.28,0.39,7.62,0.03c8.36-1.28,27.16-3.96,37.01-4.55c2.29-0.14,4.61-0.25,6.88,0.24"/><path d="M55.02,38.08c1.43,1.57,3.69,6.45,4.04,8.88"/><path d="M78.53,35.39c0.13,0.7,0.02,1.35-0.33,1.95c-1.32,3-2.61,4.77-4.85,8.18"/><path d="M49,50.4c1.76,0.64,4.39,0.34,6.25,0.1c6.17-0.79,17.51-2.71,26.12-3.71c2.13-0.25,4.02-0.38,6.13,0.08"/><path d="M51,62.65c2.06,0.75,4.42,0.35,6.52,0.05c5.69-0.8,14.85-2.33,22.73-2.64c1.99-0.08,4.29-0.37,6.25,0.06"/><path d="M43.75,75.4c2.62,0.7,5.47,0.39,8.13,0.13c8.48-0.84,24.59-2.88,36.37-3.22c2.67-0.08,5.12,0.15,7.75,0.57"/><path d="M66.03,52c0.47,1,0.87,2.79,0.86,4.38c-0.14,15.12-4.14,32.87-24.64,41.87"/><path d="M67.88,74.75c2.25,2,10.8,10.93,19.42,17.75c2.02,1.6,4.36,4.09,6.96,4.69"/></svg>