<svg><path d="M15,37c2.15,0.26,3.82,0.21,6.02-0.09c4.39-0.59,9.43-1.49,15.62-2.35c1.14-0.16,2.31-0.32,3.53-0.47"/><path d="M29.77,13.83c1.2,1.2,1.51,3.04,1.51,5.52c0,14.56-0.01,62.44-0.01,67.4c0,14.25-6.32,3.53-7.77,2"/><path d="M13,66.27c1.62,1.23,3.82,0.9,5.59-0.35c7.66-5.42,11.66-8.17,19.66-14.17"/><path d="M44.26,19.03c1.35,0.73,3.07,0.25,4.5,0.06c3.15-0.42,9.06-1.45,11.76-1.8c2.17-0.28,3.17,0.01,2.63,2.49c-0.37,1.71-1.33,5.33-1.83,7.74"/><path d="M47.33,29.89c1.36-0.12,6.36-0.87,11.31-1.4c1.52-0.16,2.97-0.3,4.19-0.4"/><path d="M45.31,19.91c0.76,0.76,0.88,1.34,0.88,2.73c0,1.99-0.06,11.31-0.06,12.73c0,5,0.88,6.11,9.31,6.11c8.82,0,9.86-0.73,9.86-3.87"/><path d="M71.34,16.47c1.39,0.75,3.19,0.23,4.66,0.05c3.15-0.39,9.01-1.46,11.89-1.87c2.77-0.39,3.4,0.27,2.82,2.99c-0.46,2.17-1.49,6.23-1.97,8.51"/><path d="M74.75,28.52c1.29-0.09,6.04-0.72,10.64-1.21c1.75-0.19,3.45-0.35,4.86-0.47"/><path d="M72.59,17.23c0.71,0.71,0.91,1.64,0.91,3.27c0,2.54,0.06,13.02,0.06,14.75c0,4.25,1.32,5.5,9.99,5.5c8.45,0,9.5-1,9.5-3.94"/><path d="M46.23,58.59c2.36,0.55,4.92,0.38,7.28,0.07c9-1.16,21.87-2.16,31.25-2.72c2.21-0.13,4.45,0.04,6.65,0.35"/><path d="M56.53,48.12c1.05,1.05,1.34,2.13,1.45,3.71c0.37,5.24,0.62,14.06,0.93,20.04"/><path d="M76.93,46.31c0.95,0.95,1.16,2.19,1.02,3.74c-0.82,9.2-1.25,14.82-1.83,20.15"/><path d="M41.75,73.51c3.15,0.83,6.2,0.47,9.39,0.19c9.11-0.8,24.97-2.33,36.49-2.94c3.33-0.18,6.33,0.05,9.62,0.58"/><path d="M59.02,80.06c0.14,1.16-0.21,2.15-1.02,3.03c-3.25,3.53-8.12,7.28-15.22,12.17"/><path d="M76.92,79.29c5.41,2.69,13.98,11.09,15.33,15.28"/></svg>