<svg><path d="M14,39.09c1.88,0.2,3.74,0.4,5.65,0.14c4.34-0.58,10.51-1.73,16.61-2.48c1.23-0.15,2.49-0.25,3.65-0.18"/><path d="M30.31,15.44C31.17,16.3,31.5,18.1,31.5,20c0,14.02,0.12,61.25,0.12,66.02c0,13.72-6.09,3.4-7.48,1.93"/><path d="M12,70.92c1.5,0.83,2.5,0.33,4.43-0.74c1.79-0.99,13.79-10.19,20.82-15.93"/><path d="M50.07,16.75c2.46,2.77,5.06,6.75,5.45,8.75"/><path d="M62.53,12.5c1.75,1.9,5.2,6.9,5.9,10"/><path d="M85.8,11.75c0.33,1.12-0.35,2.41-0.88,3.34c-1.5,2.6-4.94,6.79-6.8,8.91"/><path d="M46.07,30.75c0,2.8-1.85,11.39-3.01,13.25"/><path d="M46.35,34.31c13.53-2.31,26.14-4.53,39.53-5.36c9.25-0.58,5.12,4.3,3.22,6.43"/><path d="M52.28,44.77c0.85,0.85,0.88,2.23,0.88,3.75c0,0.75,0,14.93,0,23.49c0,2.9,0,5.16,0,6.02"/><path d="M53.93,45.95c2.6-0.25,22.39-3.52,24.75-3.78c1.97-0.22,3.36,1.05,3.36,2.95c0,4.63-0.08,17.52-0.13,25.25c-0.02,3.43-0.04,5.85-0.04,6.08"/><path d="M54.2,55.65c8.18-1.03,20.68-2.4,27.15-3.04"/><path d="M54.16,65.93c8.46-1.05,18.73-2.37,26.59-2.93"/><path d="M54.47,75.61c6.03-0.61,19.52-2.17,26.2-2.48"/><path d="M60.38,78.86c0,1.27-0.34,2.13-0.94,3.06C56,87.25,50.88,93,39.11,98.75"/><path d="M71.62,76.65c0.47,0.68,0.88,1.48,0.88,2.53c0,3.57-0.05,6.23-0.05,8.59c0,5.79,2.15,8.04,11.71,8.04c11.67,0,12.58-2.45,12.58-6.86"/></svg>