<svg><path d="M10.5,36.42c2.08,0.25,1.27,0.55,3.5,0.25c5.5-0.75,13.5-2.5,22.67-3.67"/><path d="M25.77,12.5c0.48,0.92,1.76,2.49,1.76,5.52c0,15.23,0.24,57.46,0.24,68.9c0,14.25-7.32,3.53-8.77,2"/><path d="M10.5,65.78c1.5,0.97,2.58,0.69,5.21-0.88c1.55-0.92,13.73-9.3,20.29-13.74"/><path d="M57.26,22.3c1.1,0.31,3.11,0.41,4.2,0.31c7.1-0.65,17.98-2.48,24.89-2.75c1.82-0.07,2.92,0.15,3.83,0.3"/><path d="M72.87,11.62c0.09,0.29,1.27,1.53,1.36,3.39c0.43,8.93,0.11,13.82,0.11,16.86"/><path d="M53,33.47c1.09,0.31,3.08,0.38,4.16,0.31c9.41-0.58,26.82-2.74,36.59-3c1.81-0.05,2.9,0.15,3.8,0.3"/><path d="M63.53,37.1c1.41,1.44,3.64,6.12,3.99,8.52"/><path d="M85.78,34.85c0.01,0.24,0.03,0.63-0.03,0.98c-0.35,2.09-2.36,6.74-5.12,9.69"/><path d="M56.19,49.4c0.83,0.08,2.36,0.04,3.17,0.05c4.39,0.05,24.44-2.07,31.9-2.15c1.38-0.01,2.21,0.01,2.9,0.05"/><path d="M58.24,59.95c0.82,0.13,2.33,0.17,3.14,0.08c3.32-0.38,19.44-2.19,26.83-2.32c1.37-0.02,2.19,0.02,2.87,0.08"/><path d="M54.5,69.91c1.19,0.12,3.36,0.12,4.55,0.06c10.28-0.48,22.79-2,34.32-2.18c1.97-0.03,3.17,0.01,4.16,0.06"/><path d="M74.01,51.3c0.66,0.45,1.05,2.23,1.19,3.26c0.13,1.03,0,24.68-0.13,31.2"/><path d="M40.17,17.75c2.99,1.48,7.72,6.08,8.47,8.38"/><path d="M38.92,39.25c3.17,1.44,8.18,5.9,8.97,8.13"/><path d="M35,61.36c1.92,0.83,3.2,0.41,4.06,0.21c0.85-0.21,7.62-3.01,8.76-3.76c1.14-0.75,3.42,0.3,2.28,2.11c-0.8,1.28-4.16,4.88-4.92,5.83c-1.57,1.96-1.57,3.82,1.07,5.84c0.86,0.66,1.46,1.61,2.35,2.66c1.28,1.51,1.14,2.71-0.43,4.53c-1.09,1.26-6.41,6.82-7.69,7.23"/><path d="M34.11,87.16c2.38-0.35,7.15-1.23,10.72-0.53s23.81,3.92,27.4,4.57c10.72,1.93,16.08,1.93,24.02,1.23"/></svg>