<svg><path d="M11,37.42c2.08,0.25,1.27,0.55,3.5,0.25C20,36.92,30,35.17,39.17,34"/><path d="M25.64,13c0.52,0.94,1.87,2.56,1.87,5.67c0,15.66,0.26,58.04,0.26,69.79c0,14.65-6.73,3.63-8.27,2.06"/><path d="M11.5,63.86c0.89,1.18,2.32,1.87,4.29,0.78c1.16-0.64,18.2-12.13,23.13-15.22"/><path d="M46.63,26.73c0.05,1.07,1.04,2.35,0.95,3.89c-0.81,13.06-1.84,31-12.58,41.41"/><path d="M47.71,27.58c1.13,0.17,3.23,0.26,4.35,0.17c4.59-0.34,21.64-2.58,31.1-3.52c1.86-0.19,3.6-0.09,4.54,0"/><path d="M50.02,41.61c0.9,0.29,3.11-0.03,4-0.15c3.16-0.4,7.24-1.77,10.14-2.03c1.48-0.14,2.76-0.24,3.51-0.09"/><path d="M48.79,50.99c0.29,0.28,0.59,0.51,0.72,0.85c1.01,2.74,2.2,7.87,2.89,12.79"/><path d="M51.11,51.65c5.95-1.08,9.98-1.31,13.39-1.67c1.25-0.13,1.99,0.78,1.82,1.55c-0.74,3.2-0.76,5.29-1.85,9.72"/><path d="M52.23,62.55c4-0.41,7.27-0.55,13.48-1.41"/><path d="M67.55,11.72c1.03,1.22,1.82,1.8,2.14,4.39c3.05,24.14,10.55,42.39,22.36,51.1c4.01,2.95,3.43,0.98,2.92-4.45"/><path d="M88.29,35.64c0.07,0.82,0.15,2.11-0.15,3.29C86.38,45.87,76.61,61.68,62.75,71"/><path d="M82.25,12.5c2.98,1.23,7.75,4.03,9.15,6.14"/><path d="M43.75,79.25c0.36,2.14-3.6,11.61-6.49,15.18"/><path d="M51,74.25c9.14,17.41,18.03,24.32,32.35,24c11.08-0.25,8.4-4.16,3.2-8.42"/><path d="M67.58,77.4c3.19,7.64,5.47,6.49,6.19,2.47"/><path d="M86,75.75c4.43,2.67,7.27,5.26,10.75,9.61"/></svg>