<svg><path d="M12,34.75C14.08,35,13.25,35,15.5,35c4.26,0,14-1.5,23.17-2.67"/><path d="M27.77,14.83c0.48,0.92,1.67,2.49,1.76,5.52c0.4,14.55,0.24,65.16,0.24,70.12c0,10.03-6.21,2.5-7.71,1.25"/><path d="M13,64.72c1.97,1.38,3.52,1.45,5.12,0.43c6.13-3.9,15.82-10.19,22.38-14.65"/><path d="M60.27,11.5c0.05,0.48,0.1,1.25-0.09,1.94C59.07,17.53,52.71,26.51,44,32"/><path d="M58.5,17.37c6-0.37,14-1.62,19.99-3.14c1.73-0.44,2.44,1.21,1.21,2.87c-3.45,4.65-6.2,8.65-9.27,13.15"/><path d="M48.63,31.23c1.52,0.54,3.3,0.62,4.82,0.54c10.55-0.52,27.3-2.52,38.11-3.73c2.51-0.28,4.05,0.26,5.31,0.53"/><path d="M51.99,32c0.04,1.5-0.01,3.86-0.09,6.02c-0.65,18.73-3.15,38.23-14.35,53.19"/><path d="M64.01,34c0.24,0.75,0.49,1.04,0.38,1.67C63.5,40.5,60.5,47,53.25,50.25"/><path d="M76.25,31.5c0.72,0.71,1.34,1.55,1.34,2.65c0,1.48-0.21,4.24-0.21,5.3c0,2.87,2.47,4.06,7.18,4.06c4.26,0,7.4,0,9.21-0.93"/><path d="M67.88,43c1.9,1.16,4.9,4.75,5.37,6.55"/><path d="M54.37,55.51c0.88,0.21,3.7,0.77,4.57,0.71c9.56-0.71,22.92-2.35,30.79-2.53c1.46-0.03,3.64,0.1,4.37,0.2"/><path d="M61.73,63.68c1.77,0.32,3.78,0.61,4.31,0.6c5.53-0.11,9.14-1.72,14.58-1.71c0.88,0,4.58,0.05,5.02,0.1"/><path d="M61.23,71.96c0.49,0.12,2.52,0.13,3.02,0.12c5.15-0.14,14.03-1.15,19.11-1.14c0.82,0,2.26,0.06,2.68,0.12"/><path d="M57.64,80.67c0.35,0.31,0.75,0.55,0.86,0.95c0.99,3.53,1.75,10.45,2.75,15.63"/><path d="M58.81,82.24c6.44-0.75,22.48-2.34,28.42-3.1c1.49-0.19,2.89,0.87,2.68,1.73c-0.89,3.57-1.16,5.72-2.74,11.66"/><path d="M60.97,95.4c4.8-0.46,21.1-1.74,27.69-2.44"/></svg>