<svg><path d="M18.88,15.32c1.13,0.27,3.32,0.51,4.52,0.45c6.46-0.3,18.07-2.84,20.66-2.95c1.28-0.05,2.45,0.69,2.18,1.47c-0.67,1.93-1.54,6.37-2.6,10.66"/><path d="M21.92,27.49c3.24-0.09,16.07-1.66,24.42-2.04"/><path d="M22.65,16.09c0,1.46-0.24,4.15-0.26,5.52c-0.17,9.91-3.81,22.5-11.84,28.85"/><path d="M22.09,34.87c0.14,0.41,0.62,1.34,0.67,1.65c0.35,2.28,1.44,7.92,1.94,12.23"/><path d="M22.81,35.92c3.96-0.46,18.36-2.52,21.06-2.59c1.12-0.03,1.54,0.96,1.38,1.64c-0.61,2.69-2.12,5.99-2.71,9.43"/><path d="M24.91,46.54c3.27-0.19,15.46-1.56,19.38-1.8"/><path d="M67.5,9.09c1.26,0.72,1.88,0.72,1.88,2.4c0,1.68,0,3.12,0,5.32"/><path d="M52.36,17.89c1.05,0.32,2.29,0.37,3.34,0.32c5.95-0.27,18.93-2.51,27.93-2.74c1.75-0.05,2.81,0.15,3.69,0.31"/><path d="M59.08,20.32c2.67,2.56,3.88,5.17,4.12,6.85"/><path d="M79.55,18.89c0.44,0.27,0.15,1.28,0.02,1.49c-1.29,2.07-2.93,5.6-3.82,6.78"/><path d="M50.47,30.1c1.23,0.42,2.66,0.46,3.89,0.42c7.82-0.24,23.14-3.04,32.3-3.29c2.05-0.06,3.27,0.2,4.3,0.41"/><path d="M54.33,39.05c0.84,0.26,2.38,0.32,3.21,0.26c10.65-0.84,16.63-2.07,26.5-2.6c1.39-0.08,2.23,0.12,2.93,0.25"/><path d="M68.5,31.67c0.31,0.16,0.98,1.16,1.04,1.47c0.36,1.78-0.09,12.69-0.1,13.15"/><path d="M77.44,47.5c0.13,0.27,0.27,0.68-0.26,1.06C74.02,50.81,55.85,55.74,31,58.76"/><path d="M26.88,67.3c1.19,0.34,3.36,0.42,4.55,0.34c14.89-0.95,24.89-2.43,47.78-3.86c1.97-0.12,5.18-0.14,6.17,0.03"/><path d="M16.4,78.72c1.72,0.49,4.88,0.6,6.6,0.49c13-0.81,37.07-3.96,65.25-3.88c2.87,0.01,4.6,0.23,6.03,0.48"/><path d="M54.65,58.22c6.64,8.78,7.6,22.53,4.6,33.75c-2.5,9.36-6.76,6.04-10.06,1.5"/></svg>