<svg><path d="M13.25,39.92c1.84,0.22,3.48,0.27,5.38-0.03c4.43-0.71,10.09-2.06,16.6-3.25c0.71-0.13,1.52-0.14,2.19-0.14"/><path d="M27.02,16c1.18,1.18,1.76,2.75,1.76,4.52c0,15.23-0.01,52.96-0.01,64.4c0,14.25-6.32,3.53-7.77,2"/><path d="M12,66.51c0.99,0.99,2.5,1.24,4.18-0.2c4.62-3.97,6.7-6.31,18.32-16.64"/><path d="M57.4,21.75c0.1,0.88-0.43,1.64-0.92,2.02c-1.82,1.4-5.72,3.21-9.85,4.86"/><path d="M43.02,13.8c0.71,0.71,0.98,1.62,0.98,2.58c0,0.6,0.04,17.67,0.04,19.52c0,4.76,1.34,5.69,8.19,5.69c7.4,0,7.76-1.58,7.76-5.77"/><path d="M46.25,48c0.03,0.47,0.06,1.21-0.06,1.88c-0.66,3.97-3.67,10.08-8.69,16.37"/><path d="M44.59,58.03c0.91,0,1.7-0.14,2.93-0.46c2.99-0.77,5.6-1.65,8.05-2.19c0.91-0.2,1.49-0.26,1.95-0.15"/><path d="M35.61,72.44c1.27,0.55,3.45,0.29,4.76,0.06c5.9-1.06,11.55-2.5,16.26-3.14c1.33-0.18,2.6-0.37,3.93-0.05"/><path d="M50.1,60.23c0.65,0.65,0.69,1.76,0.6,2.78c-0.95,11.74-4.45,24.12-15.2,31.49"/><path d="M51.38,76.5c2.84,1.13,4.86,3.82,6.12,5.75"/><path d="M64.71,22.49c2.54,0.64,4.82-0.03,6.18-0.42c4.55-1.31,12.33-3.84,13.63-4.12c1.68-0.36,2.54,0.95,1.83,2.52c-0.71,1.56-8.05,12.67-9.11,14.11"/><path d="M71.12,32.5c1.77,0.94,6.75,4.95,7.59,7.41"/><path d="M61.74,47.57c1.89,0.46,3.54,0.35,5.43-0.02c7.37-1.48,14.55-3.3,22.97-5.28c5.4-1.27,2.12,4.73-0.84,7.77"/><path d="M76.45,47.41c0.94,0.94,1.21,2.21,1.21,3.65c0,3.57-0.04,26.13-0.04,31.82"/><path d="M78.62,65c2.97-0.57,6.35-1.14,10.56-2.16c0.65-0.16,2.36-0.45,3.1-0.14"/><path d="M67.78,60.11c0.47,0.89,0.59,2.15,0.42,3.34c-1.03,7.04-5.23,24.02-15.44,31.8"/><path d="M66.82,74.94c3.76,3,13.99,11.81,20.39,16.86c2.35,1.85,4.42,3.45,7.54,4.7"/></svg>