<svg><path d="M10.5,41.92c2.08,0.25,1.27,0.55,3.5,0.25c5.5-0.75,15.5-2.5,24.67-3.67"/><path d="M26.27,16c0.48,0.92,1.76,2.49,1.76,5.52c0,15.23,0.24,54.46,0.24,65.9c0,14.25-6.32,3.53-7.77,2"/><path d="M10.5,67.99c0.79,1.06,2.05,1.68,3.79,0.7c1.03-0.58,17.61-13.01,21.96-15.78"/><path d="M69.03,10.75c0.15,0.43,0.17,0.97,0.13,1.35c-0.21,2.24-1.99,7.59-3.6,10.59"/><path d="M60.58,23.06c0.39,0.69,0.92,2.01,0.92,2.9c0,0.89-0.09,22.55,0.02,26.96"/><path d="M61.27,24.14c1.51-0.11,11.01-1.91,12.38-2.04c1.14-0.11,1.88,0.75,1.79,1.41c-0.18,1.34,0.06,22.78-0.08,29.92"/><path d="M62.2,37.64c2.04,0,10.58-1.6,12.88-1.6"/><path d="M61.96,51.69c3.01,0,8.7-0.94,12.6-0.94"/><path d="M50.16,14.37c0.19,1.1,0.35,2.02-0.09,3.11c-1.96,4.75-5.24,10.19-7.11,12.75c-0.38,0.52-0.37,2.53,0,2.74c1.97,1.1,4.76,2.29,7.35,3.93"/><path d="M55.52,26.78c0.19,0.48,0.25,2.04,0,2.54c-3.67,7.43-9,16.18-14.25,24.33c-0.65,1-0.38,2.09,0.37,1.77c3.13-1.33,9.4-4.13,13.43-5.4"/><path d="M52.23,45.69c1.74,1.87,4.5,7.7,4.94,10.62"/><path d="M89.15,14.37c0.19,1.05,0.35,1.94-0.09,2.98c-1.96,4.56-4.24,11.22-6.11,13.68c-0.38,0.5-0.37,2.43,0,2.63c1.96,1.05,5.78,2.31,7.46,4.24"/><path d="M96.51,26.28c0.19,0.45,0.29,1.96,0,2.4c-3.93,6.08-8.96,15.69-13.75,23.54c-0.6,0.99-0.38,2,0.37,1.7c3.13-1.25,8.24-3.4,12.27-4.6"/><path d="M92.89,45.19c1.87,1.87,4.84,7.7,5.31,10.62"/><path d="M39.28,67.63c0.68,0.2,2.5,0.64,4.33,0.6c7.41-0.17,34.94-2.74,49.93-3.93c1.81-0.15,2.28-0.2,3.42,0"/><path d="M67.12,57.5c0.69,0.28,1.11,1.24,1.24,1.79s0,35.77-0.14,39.21"/><path d="M66.69,66.75C60,77,50.25,88.25,35.88,95"/><path d="M69.18,66.11c4.88,6.38,15.96,17.92,23,22.67c1.39,0.94,2.39,1.64,3.68,1.97"/></svg>