<svg><path d="M11,39c2.08,0.25,3.99,0.46,6.12,0.07C21.65,38.24,27,37,33.87,35.55c1.07-0.23,2.13-0.3,3.3-0.22"/><path d="M25.52,13.58c1.2,1.2,1.51,2.54,1.51,4.77c0,14.56-0.01,65.44-0.01,70.4c0,14.25-6.07,3.53-7.52,2"/><path d="M11.5,64.14c1.5,0.86,2.56,0.83,4.33-0.37C21.38,60,26.75,56.25,34,50.5"/><path d="M42.32,16.4c3.08,0.59,6.11,0.27,9.22-0.41C59.12,14.33,66.5,13,75,12.35c2.99-0.23,5.96-0.09,8.94,0.57"/><path d="M62.11,16.78c-0.01,0.6,0.04,1.23-0.21,1.76c-0.65,1.34-1.27,2.34-2.65,4.46"/><path d="M49.02,25.17c0.84,0.84,1.37,1.81,1.41,2.62c0.45,10.84,0.45,12.09,0.95,20.37"/><path d="M49.95,26.08c5.18-0.61,20.14-2.52,25.43-3.07c2.98-0.31,3.78,0.69,3.74,3.5C79.05,30.79,79,37.41,79,44.62"/><path d="M51.77,33.11c5.52-0.68,17.11-2.23,26.22-2.6"/><path d="M52.28,40.1c7.34-0.69,17.24-1.59,25.65-2.13"/><path d="M40.25,48.68c0,2.91-1.96,10.65-2.96,12.59"/><path d="M41.2,50.77c21.55-3.4,30.55-4.27,49.93-5.8c9.99-0.79,2.62,4.1,0.13,5.9"/><path d="M47.9,59.37c0.22,1.27-1.92,6.9-3.65,9.03"/><path d="M54.93,56.82c7.18,7.36,13.65,9.27,25.06,9.27c6.03,0,6.68-1.25,0.21-4.98"/><path d="M64.22,53.71c0.99,1.38,3.83,4.47,4.44,2.52"/><path d="M79.61,52.16c2.56,1,4.47,1.9,6.55,4.97"/><path d="M58.54,68.04c0.05,0.54,0.06,1.49-0.35,2.19c-3.82,6.4-8.82,12.4-17.79,19.93"/><path d="M59.34,73.49c0.3,0.02,1.57,0,2.41-0.06c2.64-0.18,7.91-1.46,11.85-2.06c3.01-0.46,3.95,1.07,2.41,3.36c-4.38,6.57-16.53,20.31-33.62,24.52"/><path d="M54.62,79.88c3.25,0.62,17.3,8.64,26.17,13.43c3.83,2.07,7.46,3.7,10.99,4.72"/></svg>