<svg><path d="M11.5,36.42c2.08,0.25,1.27,0.55,3.5,0.25c5.5-0.75,15-2.5,24.17-3.67"/><path d="M25.7,13.5c0.5,0.95,1.81,2.59,1.81,5.74c0,15.84,0.25,58.74,0.25,70.63c0,14.82-6.53,3.67-8.02,2.08"/><path d="M12.5,67.73c0.72,0.85,1.85,1.34,3.43,0.56c0.93-0.46,18.35-10.91,22.3-13.13"/><path d="M66.93,10c0.6,0.34,1.87,2.57,1.99,3.25c0.12,0.69-0.08,7.07-0.2,11.35"/><path d="M49.4,15.36c0.6,0.34,1.29,1.8,1.2,2.49c-0.39,3.06-0.98,4.93-1.48,7.53c-0.3,1.55,0.19,2.25,1.66,1.93c9.47-2.06,32.87-3.2,40.4-3.39"/><path d="M91.14,12.4c0.8,0.39,1.23,2.44,1.1,3.22c-0.79,4.82-0.58,5.54-1.29,10.56"/><path d="M55.27,30.44c0.18,0.85-0.05,1.97-0.61,2.7c-3.59,4.66-7.87,9.35-16.37,14.29"/><path d="M50.53,40.81c0.15,4.88,0.15,20.68-0.02,24.74"/><path d="M72.89,28.36c0.05,0.48-0.01,1.11-0.15,1.52c-0.9,2.63-2.04,4.66-4.09,7.86"/><path d="M50.18,40.26c8.01-0.51,40.74-3.06,44.18-3.35"/><path d="M69.98,39.9c0.68,0.35,1.22,1.11,1.22,1.71c0,6.18-0.34,15.62-0.34,20.36"/><path d="M51.61,47.33c7.56-0.42,36.37-1.95,39.61-2.18"/><path d="M50.69,54.76c7.97-0.36,38.18-1.92,41.6-2.11"/><path d="M50.72,62.89c8.01-0.51,41.06-1.78,44.5-2.06"/><path d="M47.75,70.14c0.48,0.45,0.63,0.71,0.63,1.43c0,0.81,0.16,24.77,0.16,26.1"/><path d="M48.87,72.03c6.02-0.36,40.53-3.28,41.74-3.28c4.12,0,3.48,1.16,3.48,2.76c0,0.89,0.16,18.06,0.16,20.11c0,6.63-4.01,3.63-6.06,0.86"/><path d="M62.3,72.42c0.05,0.48,0.33,0.46,0.32,1.01c-0.07,2.78-3.4,7.44-9.07,9.69"/><path d="M74.87,70.57c0.27,0.27,0.49,0.6,0.5,1.02c0.07,1.88-0.19,3.71-0.19,4.99c0,2.99,3.24,2.65,6.42,2.65c3.36,0,5.58-0.39,6.05-0.6"/><path d="M59.21,86.03c0.27,0.17,0.54,0.31,0.66,0.53c0.93,1.7,1.73,6.39,2.37,9.44"/><path d="M60.89,86.75c5.5-0.56,13.8-1.43,16.95-1.66c1.15-0.08,1.84,0.48,1.68,0.96c-0.75,2.19-1.24,4.59-2.18,7.13"/><path d="M62.37,94.73c3.7-0.25,11.04-0.69,16.12-1.08"/></svg>