<svg><path d="M10,34.42c2.08,0.25,1.27,0.55,3.5,0.25c5.5-0.75,15.5-2,24.67-3.17"/><path d="M25.27,11.5c0.48,0.92,1.76,1.99,1.76,5.02c0,15.23,0.24,60.96,0.24,72.4c0,14.25-6.32,3.53-7.77,2"/><path d="M10.5,62.02c1.25,1.48,2.74,1.35,5.5-0.02c1.63-0.81,13.35-6.7,20.25-10.58"/><path d="M43.38,12.86c0.38,0.17,0.6,1.85,0.68,2.25c0.07,0.39,0,29.15-0.08,31.63"/><path d="M44.14,14.31c2.48-0.45,13.81-2.26,19.58-2.92c0.87-0.1,1.4-0.18,1.84-0.1"/><path d="M53.75,13.4c0.38,0.17,0.6,0.85,0.68,1.25s0.05,5.36-0.03,7.84"/><path d="M44.29,24.32c5.94-1.1,13.77-2.35,17.9-3.12c1.67-0.31,2.13,0.48,1.9,1.56c-0.42,1.96-1.04,5.27-1.47,7.62"/><path d="M44.31,33.72c2.48-0.45,16.83-2.55,19.17-2.88"/><path d="M53.51,32.42c0.38,0.17,0.6,0.85,0.68,1.25c0.08,0.39,0.05,7.13-0.03,9.62"/><path d="M44.14,44.55c2.48-0.45,14.45-1.68,20.22-2.34c0.88-0.1,1.4-0.18,1.84-0.1"/><path d="M75.64,9.96c0.08,0.84-0.02,1.93-0.27,2.65c-1.61,4.56-3.65,8.43-7.33,13.98"/><path d="M74.9,17.95c0.57,0.04,1.69,0.19,2.71,0.16c4.71-0.17,12.64-1.14,15.76-1.3c0.88-0.05,1.7,0.06,2.14,0.12"/><path d="M75.68,26.37c0.53,0.05,1.56,0.26,2.5,0.21c4.36-0.23,11.68-1.53,14.57-1.76c0.81-0.06,1.57,0.08,1.98,0.16"/><path d="M70.06,32.82c0.13,0.21,0.27,0.38,0.33,0.65c0.46,2.08,1.02,7.8,1.34,11.54"/><path d="M70.89,34.23c2.95-0.81,21.93-2.97,23.49-3.25c0.57-0.1,1.35,0.7,1.2,1.87c-0.32,2.44-1.11,6.62-1.96,10.09"/><path d="M78.35,33.07c0.09,1.38,0.72,8.13,0.81,9.69"/><path d="M86.82,32.2c-0.09,2.25-0.54,8.13-0.72,9.51"/><path d="M72.15,43.87c1.84-0.31,19.16-2.23,21.68-2.7"/><path d="M51.93,51.05c0.25,0.63,0.62,1.6,0.62,2.44s-0.3,26.07-0.22,26.91"/><path d="M52.96,52.41c1.42-0.1,28-2.55,29.29-2.67c1.08-0.11,1.84,0.45,1.84,1.96c0,2.35-0.5,25.67-0.5,26.3"/><path d="M52.5,61c2.03,0,29.09-2.51,31.37-2.51"/><path d="M52.62,69.04c2.82,0,27.43-2.36,31.08-2.36"/><path d="M52.56,77.98c2.82,0,27-1.76,30.65-1.76"/><path d="M59.84,80.54c0.06,0.44,0.12,1.13-0.12,1.76c-1.42,3.71-8.93,12.58-20.79,16.86"/><path d="M72.15,79.4c0.47,0.61,0.85,1.34,0.87,2.29c0.13,4.23,0.03,3.72,0.03,9.92c0,6.2,3.96,5.95,11.79,5.95c9.89,0,12.21-2.06,12.21-9.21"/></svg>