<svg><path d="M11,36.42c2.08,0.25,1.27,0.55,3.5,0.25c5.5-0.75,13.5-2,22.67-3.17"/><path d="M24.77,14c0.48,0.92,1.76,2.49,1.76,5.52c0,15.23,0.24,58.46,0.24,69.9c0,14.25-6.32,3.53-7.77,2"/><path d="M11,65.66c0.77,0.91,1.99,1.44,3.68,0.6c1-0.49,14.38-9.22,18.6-11.6"/><path d="M33.98,25.58c1.03,0.52,2.24,0.64,3.27,0.52c11.24-1.39,15.6-3.12,26.49-3.16c1.72-0.01,2.76,0.24,3.62,0.5"/><path d="M42.37,15.07c1,1.27,1.32,1.65,1.42,2.44c1,7.31,1.98,14.82,2.26,17.47"/><path d="M59.36,12.81c0.37,1.04,0.76,1.79,0.44,3.1c-1.15,4.7-1.43,12.55-2.69,17.57"/><path d="M46,34.75c3.5-0.5,9.25-1,13.25-0.75"/><path d="M38.4,43.75c0.24,0.29,0.49,0.52,0.6,0.88c0.85,2.84,2.22,10.15,2.8,15.25"/><path d="M39.64,45.58c5.71-1.41,20.6-3.36,23.87-3.71c1.2-0.13,1.91,0.77,1.74,1.53c-0.71,3.16-1.53,6.49-2.59,10.86"/><path d="M42.43,57.76c3.84-0.4,17.66-1.98,22.93-2.6"/><path d="M38.49,66.83c0.77,0.29,2.19,0.28,2.97,0.29c6.12,0.08,14.49-1.77,21.63-2.37c1.29-0.11,2.07,0.13,2.71,0.28"/><path d="M34.89,77.55c0.86,0.35,2.42,0.35,3.29,0.35c5.11-0.02,18.3-1.33,26.84-2.18c1.42-0.14,2.29,0.17,3,0.34"/><path d="M50.5,36.64c0.25,0.87,1.11,2.17,1.18,3.85C53,73.5,51,88.75,34.44,97.69"/><path d="M50.13,81.42c6.1,3.22,11.89,8.8,14.43,14.51"/><path d="M78.74,12.8c0.11,1.33-0.03,3.07-0.38,4.19c-2.25,7.16-5.09,13.18-10.24,21.79"/><path d="M72.75,36.59c1,0.91,1.1,2.09,1.14,3.66c0.24,12.61-0.37,50.47-0.15,56.33"/><path d="M90.54,13.52c0.06,1.06-0.02,2.45-0.21,3.36c-1.22,5.76-2.76,10.19-5.56,17.15"/><path d="M73.52,37.09c5.2-0.86,22.5-2.15,24.73-2.65"/><path d="M86.3,37.16c0.25,0.43,0.87,3.01,0.87,3.74c0,7.38,0.03,39.28-0.12,50.88"/><path d="M74.45,53.62c4.91-0.68,21.41-2.01,23.51-2.4"/><path d="M74.35,71.07c5.18-0.53,21.67-1.76,23.89-2.08"/><path d="M74.12,92.69c6.7-0.69,23.9-1.52,26.13-2.02"/></svg>