<svg><path d="M50.08,10.25c1.88,1.02,4.85,4.21,5.32,5.8"/><path d="M41.56,21.59c0.53,0.16,2.53,0.18,3.06,0.16c6.51-0.29,14.17-1.82,18.9-1.96c0.88-0.03,2.2,0.08,2.64,0.16"/><path d="M46.2,29.04c0.37,0.1,2.61,0.11,2.97,0.1c3.81-0.12,7.11-1.13,10.86-1.12c0.61,0,3.16,0.05,3.46,0.1"/><path d="M46.78,36.37c0.31,0.09,2.19,0.1,2.49,0.09c3.2-0.1,8.4-1.55,11.55-1.54c0.51,0,2.65,0.04,2.9,0.08"/><path d="M45.45,43.7c0.28,0.21,0.61,0.37,0.7,0.65c0.81,2.4,1.86,7.87,2.67,11.4"/><path d="M47.22,44.69c5.23-0.51,9.74-1.83,14.56-2.35c1.21-0.13,1.94,0.59,1.77,1.18c-0.72,2.43-1.35,4.73-2.63,8.77"/><path d="M48.91,53.99c3.9-0.31,8.87-0.92,14.23-1.4"/><path d="M26.9,10.25c0.31,0.83,0.48,1.47-0.16,2.34c-2.99,4.1-7.21,8.99-10.32,10.92c-0.64,0.39-0.62,1.91,0,2.07c3.26,0.83,6.34,0.37,9.14,1.89"/><path d="M33.89,17.85c0.25,0.39,0.33,1.68,0,2.1c-4.83,6.17-10.73,11.21-17.37,16.84c-1.52,1.29,0.38,2.03,1.37,1.76c4.15-1.1,12.77-2.86,18.11-3.91"/><path d="M34.75,29.68C36.6,31.15,39.54,35.72,40,38"/><path d="M26.83,39.05c0.05,0.23,0.73,1.21,0.78,2.68c0.25,7.08-0.16,16.6-0.16,19.01"/><path d="M19.48,45.37c0.15,0.63,0.13,1.88-0.15,2.34c-1.8,2.96-6.29,8.67-8.83,11.22"/><path d="M34.5,45.08c3,2.13,5.3,7.08,6,9.01"/><path d="M79.42,10.5c0.21,0.72,0.31,1.28-0.1,2.05c-1.99,3.65-2.79,5.08-6.33,9.41c-0.35,0.43-0.41,1.67,0,1.81c2.19,0.72,6.59,2.43,8.46,3.76"/><path d="M89.64,16.22c0.24,0.4,0.31,1.72,0,2.15c-4.65,6.3-10.51,11.75-16.9,17.5c-1.46,1.32,0.36,2.07,1.32,1.8c4-1.12,14.11-3.03,19.25-4.1"/><path d="M89.62,29c2.27,1.68,5.86,6.91,6.42,9.52"/><path d="M83.14,38.83c0.04,0.21,0.61,1.08,0.66,2.4c0.21,6.32-0.13,13.37-0.13,15.52"/><path d="M75.78,44.1c0.12,0.47,0.1,1.41-0.12,1.75c-1.47,2.21-5.13,6.48-7.21,8.38"/><path d="M91.59,43.78c3.27,2.14,5.78,7.11,6.54,9.05"/><path d="M73.46,57c0.11,0.22,0.24,0.56-0.23,0.88c-2.76,1.85-18.58,5.9-40.23,8.38"/><path d="M24.88,74.45c1.12,0.24,3.18,0.29,4.3,0.24c14.07-0.66,29.5-2.42,51.12-3.41c1.86-0.09,4.9-0.1,5.83,0.02"/><path d="M14.4,83.82c1.56,0.41,4.43,0.5,5.99,0.41c11.8-0.68,45.59-3.72,71.17-3.65c2.61,0.01,4.17,0.19,5.47,0.4"/><path d="M54.38,63.72c5.87,7.95,7.89,21.7,4.95,30.53c-2.83,8.5-7.08,3.75-8.89,0.9"/></svg>