<svg><path d="M12.04,33.75c1.96,0.38,4.14,0.16,5.61-0.08c4.32-0.7,14.05-2.27,20.53-3.54c1.33-0.26,3.19-0.38,4.31-0.13"/><path d="M28.35,35.27c0.82,0.82,1.12,2.11,1.12,3.73c0,5.95-0.09,23.43-0.09,28.25"/><path d="M12.25,74.5c0.75,0.88,2.12,1,3.81,0.25c5.8-2.58,11.81-5.75,22.1-11"/><path d="M61.39,13.14c0.05,0.95,0.28,2.51-0.09,3.82c-2.39,8.39-8.27,24.93-16.55,36.54"/><path d="M57.99,35.67c1.42,0.08,2.74,0.03,4.13-0.21c6.72-1.19,15.17-3.47,23.41-5.87c1.55-0.45,3.72-0.6,5.34-0.35"/><path d="M76.83,36.18c0.42,1.2,0.47,2.18-0.19,4.78C70.67,64.52,60.75,82,37.17,93.25"/><path d="M51.71,51.51c1.79,0,22.16,23.87,34.75,35.77c2.47,2.33,4.29,3.73,7.29,5.48"/></svg>