<svg><path d="M32.87,15.75c1.09,0.5,1.74,2.25,1.96,3.25c0.22,1,0,72.75-0.22,79"/><path d="M15.5,32.5c1.5,1.75,1.39,2.5,1.39,5c0,11.82-0.45,27.69-0.45,29.69s1.65,3.14,3.74,1.64s11.5-7.34,14.28-8.84"/><path d="M61.34,13.14c0.04,0.84,0.26,2.22-0.08,3.38C59.1,23.93,53.23,40.74,45.75,51"/><path d="M57.22,36.67c0.03-0.17,1.71,0.5,2.31,0.46c6.28-0.52,19.02-3.38,28.6-4.22c1.08-0.09,1.74-0.02,2.02,0.08"/><path d="M76.82,42.93c0.53,1.3,0.82,2.22,0.27,4.59c-5.06,21.53-16.58,40.76-33.21,48.23"/><path d="M52.25,53.76c3.5,0.49,24.47,29.65,35.7,37.16c2.16,1.45,4.54,3.18,6.31,3.34"/></svg>