<svg><path d="M16.63,25.09c1.39,0.51,3.3,0.28,4.75,0.22c6.5-0.26,16-2.03,22.52-3.02c1.55-0.23,2.71-0.36,4.23-0.03"/><path d="M31.46,27.37c1.09,1.09,1.76,2.88,1.76,4.79c0,14.62-0.01,41.37-0.01,46.34"/><path d="M34.28,48.98c2.47-0.48,6.97-1.23,11.35-1.84c0.71-0.1,1.65,0.08,2,0.16"/><path d="M16.04,52.62c0.99,0.99,1.56,2.66,1.72,4.62c0.82,9.83,1.29,16.55,2.24,26.26"/><path d="M11.46,86.32c0.96,0.86,2.67,0.7,3.57,0.33c7.79-3.25,15.42-5.9,32.22-12.71"/><path d="M64.62,16c0.03,0.75,0.22,1.99-0.07,3.03c-1.83,6.65-5.71,20.02-12.05,29.22"/><path d="M61.84,38.03c1.48-0.06,2.97-0.04,4.43-0.28c6.86-1.12,14.61-2.5,22.5-4c1.45-0.28,3.58-0.3,5.03,0.11"/><path d="M78.6,41.25c0.53,1.28,0.57,2.69,0.01,5.03C73.57,67.53,63.25,84.5,45.51,93.4"/><path d="M54.19,53.43c6.74,6.44,22.26,25.82,33.21,35.07c1.86,1.57,3.34,2.76,5.84,4.3"/></svg>