<svg><path d="M13.54,24.47c0.9,0.3,2.56,0.33,3.46,0.3C24,24.5,35.5,23,45.79,21.34c1.49-0.24,2.41,0.14,3.16,0.29"/><path d="M27.31,24.87c0.5,0.96,0.6,2.1,0.1,3.56C25.5,34,23,43.25,20.46,47.08c-1.44,2.17-0.46,4.17,3,3.55c6.29-1.13,10.79-1.88,15.88-3.18c3.96-1.01,5.06,0.28,4.13,5.42C41.5,63.75,39,80,32.01,89.76c-4.69,6.56-6.51,1.99-8.04-1.16"/><path d="M66.85,15.14c0.04,0.77,0.24,2.03-0.08,3.09c-1.99,6.78-7.39,22.14-14.27,31.52"/><path d="M62.72,37.17c0.03-0.17,1.71,0.5,2.31,0.46c6.28-0.52,17.02-3.38,26.6-4.22c1.08-0.09,1.74-0.02,2.02,0.08"/><path d="M80.76,39.43c0.59,1.39,0.91,2.38,0.29,4.92C75.47,67.4,62.74,88,44.37,96"/><path d="M57.75,54.51c5.77,9.17,22.08,30.57,32.21,37.94c1.95,1.42,3.19,1.65,4.79,1.8"/></svg>