<svg><path d="M33.74,13.5c0.68,0.48,1.79,2.33,1.79,3.29c0,3.77-0.02,8.97-0.09,11.68"/><path d="M13.84,30.04c0.81,0.05,2.65,0.3,3.44,0.27c9.47-0.41,25.08-2.1,34.09-2.74c1.33-0.09,2.01,0.02,3.01,0.34"/><path d="M27.48,36.01c0.26,0.74-0.01,2.47-0.63,3.68c-2.44,4.79-6.85,9.98-11.84,14.16"/><path d="M40.92,34.36c4.46,3.22,8.15,6.93,10.38,10.83"/><path d="M43.24,47.11c0.4,1.04,0.55,2.88-0.13,4.74C36.83,69.2,25.56,84.5,11.77,93.87"/><path d="M23.38,57.1c7.32,2.48,17.31,12.32,23.54,22.2"/><path d="M67.48,14.64c0.04,0.92,0.23,2.42-0.08,3.7c-2.26,9.33-7.34,25.14-15.15,36.4"/><path d="M64.12,37.18c1.08,0.31,3.08,0,3.67-0.04c6.05-0.49,15.44-3.68,24.67-4.48c1.04-0.09,1.67-0.02,1.94,0.08"/><path d="M82.94,38.93c0.62,1.41,0.96,2.42,0.31,4.99c-5.88,23.39-16,43.33-38.61,53.33"/><path d="M57.73,54c1.3,0,2.07,1.02,3.1,2.4c6.99,9.39,19.85,27.56,29.19,36.46c1.72,1.64,3.54,2.73,4.99,2.89"/></svg>