<svg><path d="M13.79,39.09c1.98,0.72,4.23,0.32,6.22,0.03c6.19-0.9,19.25-2.59,26.61-3.45c1.78-0.21,3.39-0.39,5.17,0"/><path d="M33.62,16.08c0.83,0.83,1.2,2.42,1.2,4.17c0,11.01,0.06,61.91,0.06,65.66c0,6.11-3.88,2.44-6.58,0.19"/><path d="M13.34,50.55c3.37,1.38,8.03,5.2,9.79,8.09"/><path d="M10.02,75.93c1.83,1.35,3.43,0.26,5.32-1.35c1.22-1.04,6.26-5.66,12.67-11.08"/><path d="M48.87,42.88c0.05,0.37,0.09,1.01-0.11,1.49c-1.56,3.84-4.53,7.91-7.59,11.04"/><path d="M43.41,62.51c4.36,2.79,7.94,6.98,10.26,11.9"/><path d="M45.91,21.33c2.61,1.29,6.09,4.67,7.41,7.34"/><path d="M66.08,15.39c0.42,1.36,0.27,2.63-0.09,3.88c-2.31,7.97-7.49,23.69-15.47,34.72"/><path d="M62.64,38.93c0.86,0.2,2.33,0.21,2.96,0.11c6.77-1.04,15.52-2.54,22.85-3.8c1.76-0.3,4.42-0.62,5.94-0.3"/><path d="M79.2,40.33c0.54,1.3,0.83,2.23,0.27,4.6C74.37,66.5,65,82.88,45.97,92.75"/><path d="M56.07,49.91c3.18-0.03,21.75,24.25,32.59,34.62c2.33,2.23,4.75,4.69,7.7,5.88"/></svg>