<svg><path d="M32.25,13.87c0.13,0.39,2.47,2.01,2.47,4.47c0,11.16-0.12,22.26-0.12,26.28"/><path d="M24.87,24c0.04,0.39,0.07,1-0.07,1.56c-0.85,3.29-5.72,10.5-12.39,14.91"/><path d="M43.08,23.83c3.82,2.05,9.86,8.44,10.82,11.63"/><path d="M16.75,45.25c0.62,0.75,1.1,2.51,1.15,3.9C18.12,55.25,17.5,84,17.62,93"/><path d="M18.12,47.19C29,45.75,40.6,44.19,48.88,43.06c1.78-0.24,3.12,1.69,3.08,3.94c-0.13,8,0.04,27.75-0.1,41c-0.08,7.07-4,5.75-6,1.25"/><path d="M25.64,58.38c0.15,0.21,0.33,0.38,0.38,0.66c0.44,2.45,2.33,16.61,2.77,20.21"/><path d="M26.6,59.82c2.83-0.52,11.87-2.71,14.5-2.96c1.14-0.11,2.53,1.19,2.14,2.64c-0.74,2.75-1.84,8.25-2.89,17.31"/><path d="M29.11,78.46c3.67-0.71,9.55-1.36,12.46-1.85"/><path d="M71.36,14.14c0.03,0.81,0.21,2.15-0.07,3.26c-1.78,7.17-6.62,23.42-12.79,33.34"/><path d="M67.72,38.17c0.03-0.17,1.71,0.5,2.31,0.46c6.28-0.52,12.02-3.38,21.6-4.22c1.08-0.09,1.74-0.02,2.02,0.08"/><path d="M84.89,40.43c0.46,1.38,0.72,2.37,0.23,4.9c-4.42,22.95-14.47,43.46-29,51.43"/><path d="M62.75,53.26c3-0.01,21.49,31.92,30.67,39.61c1.77,1.48,2.89,1.73,4.34,1.88"/></svg>