<svg><path d="M15.82,30.26c0.99,0.23,2.81,0.37,3.8,0.23c6.25-0.86,14.63-2.11,21.03-2.96c1.63-0.22,2.65,0.11,3.47,0.22"/><path d="M29.8,13.37c1.1,1.1,1.7,2.53,1.7,4.4c0,7.61,0.12,18.3,0.08,24.14"/><path d="M11.5,45.02c1.38,0.37,3.9,0.56,5.31,0.37c9.19-1.26,23.44-4.01,31.85-4.8c2.29-0.22,3.69,0.17,4.84,0.36"/><path d="M50.62,20.75c0.11,1.15-0.39,2.74-1.21,4.1C38.94,42.29,27.54,54.68,10.5,67.75"/><path d="M29.5,54.75c0.56,0.24,1.88,0.11,2.75,0c3-0.38,7.87-0.91,11-1.75c3.25-0.88,4,0.25,1.56,3c-2.79,3.14-5.53,6.11-8.62,8.81"/><path d="M33.05,65.99c4.33,4.39,8.77,16.18,3.33,26.86c-2.63,5.15-5.13,1.4-7.2-1.24"/><path d="M19.35,78.33c1.15,0.92,2.27,1.05,3.89,0.51c3.72-1.23,16.68-6.15,26.84-10.53"/><path d="M70.25,15.38c0.25,1.25,0.04,2.44-0.36,3.73c-2.77,8.9-8.4,24.07-18.15,35.4"/><path d="M64.77,40.23c1.48,0.15,2.35,0.15,3.48,0.02c5.62-0.62,14.14-2.8,20.93-4C90.62,36,92,36,93.24,36.34"/><path d="M81.07,44.07c0.53,1.23,0.6,2.62,0.02,4.86C76.5,66.5,66.62,85.25,48,94.25"/><path d="M57.5,54.25c5.12,3.5,21.57,26.06,31.68,35.08c2.15,1.92,4.57,3.67,6.69,4.17"/></svg>