<svg><path d="M19,19.52c1.23,0.5,3.33,0.34,4.61,0.17c5.01-0.68,14.99-2.37,19.99-2.73c1.43-0.1,2.98-0.18,4.39,0.17"/><path d="M33.04,20.25c0.85,0.85,1.12,2,1.12,3.53c0,3.13-0.04,5.36-0.04,8.84"/><path d="M12.27,36.12c1.98,0.5,3.8,0.29,5.36,0.03c8.12-1.33,20.93-2.74,29.23-3.57c2.01-0.2,3.94-0.53,5.9,0.13"/><path d="M23.01,38.75c0.74,0.74,0.97,1.85,0.97,2.85c0,1-0.11,31.27-0.11,35.4"/><path d="M25,48.17c3.88-0.42,11.63-2.05,17.34-2.66"/><path d="M24.71,60.54c4.54-0.54,11.92-1.79,17.94-2.46"/><path d="M13,80.62c0.75,0.75,2.11,0.84,3.06,0.45C27.62,76.25,34.75,73.25,42.25,70"/><path d="M42.3,35.3c0.83,0.83,1.22,1.95,1.22,3.35c0,0.66-0.01,34.56-0.02,49.48c0,3.4,0,5.81,0,6.62"/><path d="M65.33,15.68c0.3,0.94,0.49,1.99,0.18,3.15c-1.99,7.47-6.71,21.95-13.59,32.29"/><path d="M61.94,38.69c1.36,0.08,2.6-0.09,3.94-0.31c5.56-0.94,12.08-2.14,19.12-3.87c1.28-0.32,3.5-0.62,4.91-0.29"/><path d="M77.51,43.02c0.44,1.19,0.59,2.57-0.03,4.69C71.88,67.18,63.33,81,50.15,90.84"/><path d="M56.17,55.43c2.08,0,19.83,20.32,30.96,29.81c2.51,2.14,5.12,3.76,7.62,4.86"/></svg>