<svg><path d="M18.25,30.21c1.89,0.41,3.64,0.35,5.54,0.09c6.46-0.88,19.22-2.83,23.93-3.21c2.15-0.17,3.45,0.13,4.53,0.27"/><path d="M24.5,18.25c1,1,1.46,2.3,1.55,3.27c0.7,7.98,1.35,14.23,1.7,21.23"/><path d="M43.53,15c0.72,1.25,1.06,2.81,0.79,4.43c-1.6,9.55-2.33,14.33-4.07,23.32"/><path d="M11.75,45.23c2.22,0.65,4.37,0.35,6.61,0.07c6.98-0.87,22.8-2.68,28.88-3.21c2.13-0.19,4.15-0.12,6.25,0.25"/><path d="M22.08,53.83c0.8,0.8,1.1,2.05,1.1,3.2c0,0.46-0.03,22.8-0.07,33.22c-0.01,2.94-0.02,4.93-0.04,5.22"/><path d="M23.78,55.14c1.49-0.12,13.32-1.96,17.22-2.54c3.52-0.52,3.85,1.22,3.85,4.14c0,6-0.06,23.54-0.06,33.35c0,5.04-2.16,4.52-5.83-0.22"/><path d="M24.28,65.57c5.82-0.85,14.08-1.88,19.19-2.3"/><path d="M24.21,77.03c4.54-0.43,14.23-1.7,19.48-1.99"/><path d="M68.53,17.64c0.34,1.11,0.24,2.47-0.09,3.77c-2.32,9.33-6.69,23.21-15.69,34.83"/><path d="M66.82,39.02c1.56,0.11,2.6-0.02,3.25-0.1c3.12-0.38,14.06-2.54,18.93-3.67c1.12-0.26,3.25-0.38,4.31-0.1"/><path d="M79.54,41.43c0.48,1.31,0.74,2.99,0.24,5.39c-4.54,21.73-14.81,38.81-29.81,47.93"/><path d="M57.98,51.64c2.89,1.11,19.29,26.49,29.08,36.66c2.29,2.37,4.44,4.07,7.56,5.32"/></svg>