<svg><path d="M33.1,11.5c1.14,1.13,1.3,2.12,1.3,3.56c0,3.81-0.03,5.01-0.03,7.06"/><path d="M12.55,24.92c2.2,0.45,4.08,0.24,6.47-0.04c6.94-0.8,19.37-2.38,27.75-3.07c2.22-0.18,4.8-0.69,6.94,0.11"/><path d="M19.84,32.93c0.8,0.8,1.16,1.36,1.24,2.33c0.93,3.1,2.09,8.59,2.66,12.2"/><path d="M21.37,34.01c6.16-0.89,17.62-2.46,22.75-3.06c3.05-0.35,3.92,0.48,3.25,3.43c-0.52,2.32-0.88,3.75-2.27,8.05"/><path d="M24.28,45.62c3.29-0.3,11.72-1.7,17.84-2.38c1.77-0.2,3.25-0.24,4.55-0.19"/><path d="M18.82,57.12c2.01,0.47,4.05,0.48,6.07,0.09c4.51-0.88,13.49-2.66,17.26-3.47c2.85-0.61,4,0.52,1.48,2.77c-2.04,1.82-5.12,4.74-10.93,9.26"/><path d="M31.37,66.16c4.38,3.84,10.86,16.45,5.38,27.69c-3.25,6.65-5.75,1.02-7-0.69"/><path d="M15.5,78.05c0.88,1.07,2.38,1.45,4.34,0.72c7.26-2.68,18.9-6.96,29.66-11.27"/><path d="M66.75,15.14c0.38,0.98,0.5,2.15,0.18,3.27C64.5,27,60.5,37.38,54,50.53"/><path d="M62.62,39.07c1.52,0.34,3.61,0.09,5.13-0.17C73.88,37.88,79,37,86.64,35.88c1.69-0.25,3.36-0.25,5.01,0.04"/><path d="M77.03,43.43c0.53,1.25,0.52,2.13,0.01,4.43C72.88,67,62.88,86.75,44.63,95.25"/><path d="M55.62,54.38c2.5,0.88,20.98,24.8,30.98,34.26c2.35,2.22,4.64,4.28,7.64,5.55"/></svg>