<svg><path d="M18.19,22.98c0.3,0.27,0.87,1.47,0.97,2.5c0.67,6.77,2.27,13.77,2.86,18.23"/><path d="M19.3,24.31c8.13-1.06,21.97-2.31,28.4-3.23c2.05-0.29,3.23,1.53,2.96,3.57C49.62,32.75,48.5,37,47.28,42"/><path d="M10.99,32.7c0.91,0.54,2.56,0.64,3.47,0.54C24,32.25,46,29.5,55.69,29.51c1.51,0,2.42,0.26,3.17,0.53"/><path d="M22.83,41.75c4.92-0.5,19.92-1.75,24.86-2"/><path d="M17.88,49.73c0.62,0.52,0.97,1.73,1.27,2.59c0.85,2.43,2.03,7.49,2.46,10.89"/><path d="M19.35,51.82c7.71-0.92,23.96-2.94,30.06-3.74c1.95-0.25,2.59,0.42,2.31,2.6c-0.22,1.72-1.4,5.08-1.87,7.58"/><path d="M21.42,61.25C23.51,61,49.88,59,52.57,58.75"/><path d="M33.93,14.25c0.65,0.5,1.04,2.25,1.17,3.25c0.13,1,0,36.25-0.13,42.5"/><path d="M31.64,61.62c0.26,0.9,0.08,2.02-0.13,3.13c-1.03,5.45-6.44,11.98-9.73,18.24c-0.72,1.36-0.15,1.69,0.39,1.64c9.08-0.88,20.08,3.62,25.6,8.87"/><path d="M44.88,66.18c0.08,0.74,0.26,2.58-0.16,3.61C41,78.75,35.5,90.75,17.89,97.25"/><path d="M12.63,74.34c1.11,0.96,2.29,1.53,2.82,1.47c10.8-1.31,25.3-4.56,37.72-6.07"/><path d="M70.37,14.14c0.03,0.75,0.19,1.97-0.06,3c-1.58,6.58-5.85,21.5-11.31,30.61"/><path d="M68.22,35.67c0.03-0.17,1.71,0,2.31-0.04c6.28-0.52,11.02-2.38,20.6-3.22c1.08-0.09,1.74-0.02,2.02,0.08"/><path d="M83.42,37.93c0.44,1.35,0.68,2.32,0.22,4.79C79.48,65.16,70.03,85.21,56.37,93"/><path d="M63.5,50.51c3,0.24,21.04,32.11,30.69,39.85c1.86,1.49,3.04,1.74,4.56,1.9"/></svg>