<svg><path d="M28.76,13.75c0.55,0.45,1.47,2.2,1.47,3.1c0,3.32-0.07,7.15-0.07,10.72"/><path d="M9.97,29.24c0.88,0.07,2.88,0.43,3.74,0.38c7.79-0.37,24.52-3.19,33.9-3.39c1.45-0.03,2.19,0.03,3.26,0.49"/><path d="M18.82,35.87c0.32,0.29,0.65,0.53,0.79,0.89c1.11,2.86,1.27,9.75,2.03,14.88"/><path d="M20.82,37.81c6.57-1.49,15.98-3.14,19.74-3.52c1.38-0.14,2.2,1.71,2,2.52c-0.82,3.34-1.18,5.09-2.39,9.7"/><path d="M21.79,49.14c4.42-0.42,13.7-1.55,19.77-2.21"/><path d="M11.93,55.77c0.57,0.98,1.33,1.94,1.44,4.35c0.26,5.61,0.84,25.33,1.2,33.88"/><path d="M13.24,57.8c6.68-0.53,32.34-4.28,33.6-4.38c2.16-0.17,3.91,1.58,3.72,4.71c-0.59,9.85-2.14,24.13-4.21,31.83c-1.86,6.88-3.31,1.85-5.1,0"/><path d="M21.86,64.08c0.25,0.28,0.51,0.51,0.62,0.86c0.87,2.76,2.41,10.35,3.01,15.3"/><path d="M23.43,65.95c5.07-1.2,10.74-2.38,13.67-2.89c1.19-0.21,2.34,1.13,2.22,2.46c-0.29,3.31-0.88,5.71-1.83,10.16"/><path d="M25.61,77.82c3.45-0.41,8.21-1.12,12.95-1.74"/><path d="M68.88,15.38c0.28,0.31,0.89,2.32,0.94,2.93c0.06,0.62-0.04,23.7-0.09,27.57"/><path d="M69.9,29.28c2.14-0.23,18.86-2.81,20.03-2.81c1.17,0,2.74,0,3.7,0.23"/><path d="M57.48,47.56c1.11,0.35,1.25,0.87,3.47,0.35s23.26-3.67,24.79-4.19c1.53-0.52,2.72,1.97,2.09,3.81c-7.37,21.49-19.46,40.23-33.08,47.22"/><path d="M59.9,55.2c2.85,2.55,16.6,24.55,30.42,35.34c1.85,1.45,3.04,2.6,4.68,3.12"/></svg>