<svg><path d="M35.98,12.75c0.07,0.81,0.33,2.16-0.15,3.24C32.76,22.87,24.06,37.33,9.5,47.04"/><path d="M36.17,18.54C44.5,22.75,52,29.25,56.09,37.36"/><path d="M25.14,41.59c0.45,0.18,1.28,0.19,1.73,0.18c3.47-0.05,17.98-2.49,20.77-2.28c0.75,0.06,1.21,0.08,1.58,0.17"/><path d="M15.03,52.46c0.24,0.27,0.48,0.49,0.59,0.82c0.83,2.63,2.18,9.88,2.75,14.59"/><path d="M16.14,53.85c6.03-1.2,11.17-2.08,13.96-2.42c1.02-0.13,1.63,0.75,1.49,1.49c-0.6,3.07-1.31,7.56-2.21,11.8"/><path d="M18.47,66.34c3.28-0.39,7.69-0.65,12.19-1.25"/><path d="M37.86,50.77c0.24,0.25,0.49,0.46,0.59,0.78c0.84,2.5,1.83,9.39,2.41,13.88"/><path d="M39.36,52.06c5.03-0.95,11.38-1.52,14.2-1.85c1.03-0.12,1.65,0.71,1.5,1.42c-0.61,2.92-2.26,7.26-3.16,11.29"/><path d="M40.97,64.45c3.31-0.37,7.97-1,12.42-1.18"/><path d="M25.55,70.54c0.17,1.06,0.11,2.08-0.12,2.76c-2.04,6.01-6.71,13.95-15.07,21.2"/><path d="M23.63,79.74c3.11,1.34,7.07,4.92,8.58,8.3"/><path d="M48.34,68.87c0.17,1.11,0.11,2.18-0.12,2.9c-2,6.3-6.58,14.63-14.78,22.23"/><path d="M45.1,79.41c3.82,1.53,8.2,5.1,10.06,8.95"/><path d="M73.88,16.14c0.04,0.76,0.21,2-0.07,3.04c-1.78,6.68-6.6,21.82-12.76,31.06"/><path d="M68.84,38.67c0.03-0.17,1.57,0.5,2.12,0.46c5.76-0.52,13.12-2.88,21.92-3.72c0.99-0.09,1.59-0.02,1.85,0.08"/><path d="M86,40.93c0.49,1.35,0.76,2.31,0.25,4.77C81.58,68.04,70.96,88,55.62,95.75"/><path d="M65.65,51.51c6.1,8.74,19.6,29.24,28.82,38.42c1.6,1.59,2.86,1.67,4.28,1.83"/></svg>