<svg><path d="M52.29,10.5c1.17,1.17,1.64,2.5,1.64,4.37c0,1.63-0.06,4.63-0.06,6"/><path d="M21.16,23.97c3.46,0.4,5.85,0.25,8.97,0.04c11.62-0.81,35.96-2.88,49.36-3.49c2.88-0.13,5.5-0.15,8.83,0.76"/><path d="M67.09,24.5c-0.09,1.25-0.56,2.13-1.68,3.23C55.25,37.75,38.25,49.12,15.87,55"/><path d="M35.07,25.83c13.22,5.84,29.67,15.46,45.78,22.25c3.98,1.68,7.95,3.28,12.24,3.93"/><path d="M33.75,53.25c0.81,0.81,1.2,2.13,1.25,3.5c0.88,22.87-2.38,32.62-11.25,40.75"/><path d="M36.25,60.25c10.82-0.58,28.25-1.71,37.75-2"/><path d="M35.75,74.49c8.58-0.37,28.08-1.48,38-1.72"/><path d="M73.75,52.25c1.06,1.06,1.21,2.25,1.21,3.63c0,2.44-0.01,22.62-0.04,34.62c-0.01,4.33-0.03,7.46-0.04,8.09"/></svg>