<svg><path d="M14.5,24.75c2.99,2.61,7.5,9.99,8.25,14.05"/><path d="M48.26,19.22c0.08,0.97-0.03,1.92-0.33,2.84c-1.93,4.57-4.3,9.2-8.61,14.49"/><path d="M12.1,47.8c0.8,0.28,2.95,0.54,5.06,0.28c7.71-0.96,19.07-3.16,27.7-4.05c2.12-0.22,2.66-0.28,4,0"/><path d="M31.23,13.21c0.84,0.84,1.42,2.04,1.42,3.35c0,0.83,0.05,51.78,0.06,71.44c0,3.47,0,5.96,0,7.04"/><path d="M31.77,46.71c0,1.41-0.44,2.8-0.85,3.85C26.95,60.89,19.37,72.97,12,79.98"/><path d="M35.87,54.19c4.7,2.67,7.63,5.56,9.9,10.02"/><path d="M60,24.25c3.26,1.23,8.43,5.08,9.25,7"/><path d="M57.25,42c3.35,1.23,8.66,5.08,9.5,7"/><path d="M53.88,63.96c1.5,0.41,3.69,0.67,5.42,0.27c10.33-2.36,24.08-6.36,33.41-7.45c1.76-0.2,3.43-0.34,4.54,0"/><path d="M79.62,12.25c0.94,0.94,1.46,2.5,1.46,3.75c0,0.87,0.02,54.18,0.03,74.25c0,3.48,0,5.96,0,7"/></svg>