<svg><path d="M36.55,14.75c0.08,0.7,0.06,1.86-0.42,2.82c-2.38,6.93-8.88,15.93-23.42,27"/><path d="M38.38,21.38c4.98,2.66,11,6.91,13.62,10.62"/><path d="M21.5,41.68c1.33,0.54,3.63,0.42,5.02,0.24c5.19-0.66,11.73-2.28,16.23-2.86c1.32-0.17,2.46-0.28,3.74,0.07"/><path d="M15.24,57.66c2.39,0.72,5.04,0.37,7.03,0.06c7.58-1.21,14.99-3.09,23.35-3.95c1.75-0.18,3.39-0.1,5.1,0.26"/><path d="M35.54,43.05c0.83,0.83,1.21,2.32,1.21,4.55c0,18.93,0,33.26,0,38.02c0,10.8-5.96,1.92-7.4,0.72"/><path d="M24.48,69.5c0.1,0.96-0.06,1.68-0.56,2.53c-1.97,3.37-6.05,8.34-12.54,12.99"/><path d="M45.62,66.24c2.24,1.93,5.78,7.95,6.34,10.96"/><path d="M60.5,24.75c3.09,1.32,7.98,5.44,8.75,7.5"/><path d="M58.25,43.75c3.09,1.41,7.98,5.8,8.75,8"/><path d="M55.25,65.25c2.88,0.62,4.96,0.58,7.63,0.02c8.87-1.89,18.25-3.89,28.87-5.33c1.8-0.25,3.96-0.1,5.76,0.32"/><path d="M78.62,13.5c1,1,1.71,2.5,1.71,4c0,10.56,0.02,49.58,0.03,71.5c0,3.52,0,6.58,0,9"/></svg>