<svg><path d="M14.59,32.59c2.66,0.79,5.27,0.79,7.52,0.6c7.96-0.69,17.89-2.06,25.4-2.69c2.3-0.19,4.53-0.43,6.79,0.01"/><path d="M25.16,17.78c0.96,0.96,1.13,2.22,1.13,3.36c0,0.97,0,43.02-0.15,48.99"/><path d="M44.2,15c0.96,0.96,1.13,2.12,1.13,3.61c0,2.77-0.08,42.17-0.08,49.64"/><path d="M27.34,45.37c2.82-0.24,14.19-1.64,16.84-1.88"/><path d="M27.41,57.52c3.18-0.24,12.88-1.4,16.59-1.88"/><path d="M11.63,71.93c2.59,0.38,5.18,0.34,7.76-0.12c7.57-0.71,19.54-1.83,28.49-2.63c2.62-0.43,5.25-0.47,7.89-0.11"/><path d="M27.23,75.21c0.11,1-0.02,1.95-0.4,2.85C25,82.12,20.62,88.25,13.25,94.5"/><path d="M39.4,75.75c3.21,1.9,7.8,8.3,8.6,11.25"/><path d="M88.72,20.75c0.07,0.37,0.27,1.1-0.13,1.5C83.05,27.75,78.67,29.9,67,34.62"/><path d="M63.35,33.83c0.91,0.91,1.15,2.14,1.15,4.03c0,15.9,0.51,38.9-10.94,51.71"/><path d="M66.97,48.55c2.53,0.07,4.96-0.44,6.78-0.69C79.88,47,86.15,46.17,91,45.51c2.07-0.37,4.15-0.5,6.25-0.38"/><path d="M81.58,49.73c1.03,1.03,1.34,1.77,1.34,3.48c0,0.79-0.08,19.05-0.12,31.67c-0.02,4.56-0.03,8.38-0.03,10.37"/></svg>