<svg><path d="M14.38,28.22c0.73,0.19,2.08,0.24,2.81,0.19c9.18-0.66,15.61-2.06,27.87-3.21c1.22-0.11,1.96,0.09,2.57,0.19"/><path d="M26.95,29.68c0.05,1.05,0.1,2.71-0.1,4.22c-1.14,8.89-7.67,28.41-16.61,40.36"/><path d="M21.5,57.53c0.3,0.5,0.61,0.91,0.74,1.54c1.05,4.94,2.3,18.56,3.02,27.43"/><path d="M23.38,59.7c7.35-1.92,15.28-2.56,18.82-3.2c1.29-0.24,2.07,1.41,1.88,2.8c-0.77,5.77-2.25,13.74-3.38,21.71"/><path d="M25.4,83.35c6.1-0.6,9.35-0.85,17.67-1.63"/><path d="M85.79,13c0.07,0.35,0.29,1.02-0.14,1.39c-5.8,5.08-13.22,8.93-25.46,13.3"/><path d="M56.42,26.33c1.02,2.12,1,4.14,1,6.45c0,22.83-2.62,47.17-14.62,61.73"/><path d="M58.09,44.91c0.49,0.15,2.42,0.27,3.72,0.09c7.18-0.98,23.38-2.78,31.54-3.26c1.31-0.08,3.58-0.15,4.4,0"/><path d="M76.18,46.98c0.94,0.63,1.5,2.84,1.69,4.1c0.19,1.26,0,40.04-0.19,47.92"/></svg>