<svg><path d="M42.08,10.43c0.35,0.5,0.28,2.13-0.33,3c-5.49,7.9-10.97,11.68-18,16.14"/><path d="M68.25,10.46c8.76,4.52,13.87,9.37,18.25,14.86"/><path d="M65.81,17.16c0.19,1.34,0.09,3-1.08,4.12C52.5,33,39.25,40.5,14.25,47.27"/><path d="M42,23.81c4.76,0,31.9,15.38,45.6,19.96c2.57,0.86,4.23,1.25,7.4,1.77"/><path d="M61.94,39.5c0.07,0.29-0.2,1.34-0.65,1.65c-6.12,4.19-13.44,6.86-26.34,10.47"/><path d="M31.92,50.11c1.33,1.38,1.34,2.7,1.31,4.2c-0.11,4.53-0.2,5.72-0.2,11.12c0,9.88-2.83,22.09-12.54,29.05"/><path d="M33.36,62.73c0.63,0.14,3.1,0.24,4.77,0.08c9.21-0.9,32.33-3.47,42.79-3.92c1.68-0.07,4.59-0.14,5.64,0"/><path d="M61.22,63.46c0.9,0.45,1.43,2.02,1.61,2.92c0.18,0.9,0,28.26-0.18,33.87"/></svg>