<svg><path d="M28.64,15.75c0.65,0.61,1.73,2.96,1.73,4.16c0,4.45-0.21,8.38-0.09,12.15"/><path d="M12.75,33.24c0.93,0.03,4.16,0.23,5.06,0.18c7.28-0.39,20.95-2.69,26.18-3.05c1.52-0.1,2.33-0.12,4.01-0.12"/><path d="M30.01,44.5c3.8,1.1,5.86,0.97,10.29,2.48c2.17,0.74,2.89,1.88,2.76,4.79c-0.33,7.7-8.24,36.05-13.31,40.94c-3.62,3.5-5.68-0.81-6.6-1.72"/><path d="M29.28,35c0.05,1.17,0.13,3.02-0.1,4.68c-1.72,12.36-7.02,32.1-18.28,44.82"/><path d="M61.04,13.75c0.12,1.47-0.04,3.4-0.43,4.66C58.06,26.45,54.83,33.25,49,43.04"/><path d="M58.75,29.39c1.02,0.11,3,0.59,4.79,0.48c8.35-0.51,19.39-3.47,24.92-3.98c1.56-0.14,3,0.18,3.79,0.37"/><path d="M54.86,44.36c1.11,1.01,1.39,2.77,1.39,4.02c0,1.26,0.28,44.85,0.28,47.11"/><path d="M56.28,45.8c8.87-1.22,22.38-3.14,27.17-3.43c2.05-0.12,3.53,0.88,3.53,2.43s0,41.42,0,43.63c0,9.06-5.98,2.56-7.8,0.88"/><path d="M69.56,44.83c0.68,0.64,1.16,1.38,1.22,3.49c0.28,10.12-0.01,15.23-0.01,18.68"/><path d="M46.67,68.47c1.67,0.3,3.33,0.65,5.47,0.48c4.4-0.36,38.24-3.64,40.91-3.64c2.67,0,3.47,0,4.54,0.24"/></svg>