<svg><path d="M29.14,17c1.12,1.12,1.73,2.62,1.73,4.66c0,4.45-0.09,7.09-0.09,10.4"/><path d="M12.5,35.16c2.25,0.46,3.9,0.43,5.88,0.13c6.87-1.06,16.29-3.15,20.89-4.27c1.46-0.36,3.46-0.75,4.98-0.4"/><path d="M30.17,48c3.33,1,5.58,2.25,9.46,3.61c1.91,0.67,2.53,1.71,2.42,4.36c-0.29,7-7.67,31.41-12.12,35.85c-3.18,3.18-4.99-0.74-5.79-1.57"/><path d="M29.9,37.25c0.47,1.25,0.71,2.64,0.4,4.08C27.88,52.62,22,70,11.5,80.88"/><path d="M57.88,14.62c0.06,1.18,0.06,2.26-0.24,3.41c-1.6,6.1-5.94,17.66-11.72,25.39"/><path d="M57.25,31.25c1.62,0.12,3.13,0.02,5.07-0.31c6.06-1.06,16.56-3.81,21.93-5.44c1.2-0.36,3.25-0.5,4.5-0.25"/><path d="M68.47,32.75c0.15,1,0.28,2.4-0.12,3.58c-2.85,8.3-9.73,22.17-21.31,31.59"/><path d="M62.27,53.87c0.81,0.81,1.26,2.13,1.26,3.77c0,10.68,0,24.25,0,32.74c0,3.3,0,5.83,0,7.12"/><path d="M86.77,41.14c0.07,0.85-0.09,1.75-0.5,2.55c-2.15,4.18-5,8.01-10.49,12.87"/><path d="M69.25,56.25c3,0.38,16.22,18.61,21.3,24.55c1.39,1.62,2.84,3.21,4.45,3.95"/></svg>