<svg><path d="M28.39,15.5c1.12,1.12,1.73,2.38,1.73,4.16c0,4.45-0.09,7.59-0.09,11.4"/><path d="M12.5,34.13c2.08,0.13,4.03,0.36,6.11,0.12c6.87-0.78,17.99-3.04,22.31-3.56c1.36-0.16,2.08-0.19,3.58-0.19"/><path d="M29.17,46.5c3.33,1,4.58,1.25,8.46,2.61c1.91,0.67,2.53,1.71,2.42,4.36c-0.29,7-5.96,26.17-11.31,33.53c-4,5.5-6,2.25-7.5-0.25"/><path d="M29.28,37.25c0.22,1.12,0.22,1.81-0.11,3.2C26.5,51.75,22.12,66.5,10.39,78.5"/><path d="M59.53,14.5c0.03,0.66-0.04,1.73-0.32,2.64C57.25,23.5,52.5,34,47.17,42.42"/><path d="M57.5,30c1.25,0.25,2.95,0.09,4.32-0.1c7.06-0.95,14.07-2.46,19.96-3.86c1.95-0.46,4.46-0.79,6.46-0.54"/><path d="M51.72,44c2.65,0.75,4.58,0.62,6.91,0.18c8.92-1.68,15.74-2.82,24.23-4.23c4.26-0.71,4.6,1.05,1.89,3.31C80.99,46.42,72.84,53.59,72,54.25"/><path d="M67.87,54.25c0.94,0.94,1.21,2.12,1.21,3.25c0,3.5,0.03,19.5,0.03,26"/><path d="M70.38,67c7.12-0.75,2.87-0.5,13.6-2c1.73-0.24,2.18-0.25,3.26,0"/><path d="M54.76,62.14c0.04,0.68,0.08,1.76-0.08,2.74c-0.95,5.77-6.41,18.09-13.88,25.84"/><path d="M52.62,74.88c6.18,3.73,19.55,12.1,28.37,16.14c3.05,1.39,5.75,2.49,9.5,3.49"/></svg>