<svg><path d="M29.14,15.25c0.65,0.54,1.73,2.65,1.73,3.73c0,3.99-0.21,9.71-0.09,13.09"/><path d="M13.25,33.47c0.86,0.04,3.87,0.25,4.7,0.2c6.77-0.42,19.47-2.9,24.32-3.29c1.41-0.11,2.16-0.13,3.72-0.13"/><path d="M28.84,44.5c3.56,1.03,5.97,2.31,10.12,3.71c2.04,0.69,2.71,1.75,2.59,4.48c-0.31,7.2-7.21,32.28-11.96,36.85c-3.4,3.27-5.34-0.76-6.19-1.61"/><path d="M28.78,36.25c0.05,1.06,0.13,2.74-0.11,4.26c-1.76,11.23-7.21,29.18-18.78,40.74"/><path d="M61.04,14.25c0.12,1.58-0.04,3.66-0.43,5.02C58.06,27.93,54.83,35.25,49,45.79"/><path d="M59.25,29.89c1.02,0.11,3,0.59,4.79,0.48c8.35-0.51,20.39-2.97,25.92-3.48c1.56-0.14,3,0.18,3.79,0.37"/><path d="M58.89,43.94c0.03,0.58,0.06,1.5-0.06,2.33c-0.76,4.91-5.08,15.7-11,22.3"/><path d="M58.3,56.94c1,0.27,2.82,0.32,3.82,0.27c7.19-0.39,19.75-2.68,25.95-3.09c1.65-0.11,2.34-0.06,3.22-0.02"/><path d="M69.49,36.88c0.8,0.4,2.49,2.97,2.65,3.76c0.16,0.79-0.1,46.46-0.26,51.42"/><path d="M57.05,73.16c1.11,0.2,3.13,0.24,4.24,0.2c7.97-0.29,16.64-2.05,23.52-2.35c1.83-0.08,2.6-0.04,3.57-0.01"/><path d="M45,93.55c1.21,0.35,3.41,0.43,4.62,0.35c8.69-0.51,35.69-2.55,43.19-3.09c2-0.14,3.69,0.29,5.54,1.16"/></svg>