<svg><path d="M52.75,9.5c0.6,0.61,1.51,1.97,1.51,3.53c0,2.47,0,1.52,0,8.22"/><path d="M25.5,22.7c1.16,0.33,2.53,0.38,3.68,0.33c6.57-0.28,42.07-3.03,51.99-3.27c1.94-0.05,3.1,0.16,4.07,0.32"/><path d="M35.75,25c3.62,4.37,5.92,9.62,6.25,12.5"/><path d="M69.96,24c0.29,1.25,0.54,2.28,0.31,2.62C68,30,64.12,36.43,62.5,38.5"/><path d="M22.27,39.57C22.08,43.02,17.6,52.06,16,54.11"/><path d="M22.71,41.9c9.54-0.9,44.04-4.15,62.6-4.53c11.35-0.23,3.58,5.41-0.65,8.95"/><path d="M51.9,44.77c0.9,0.49,2.38,2.36,2.38,3.32c0,3.55-0.28,5.69-0.12,8.7"/><path d="M22.97,59.01c1.14,0.08,3.73,0.55,4.84,0.44c8.93-0.92,41.86-3.91,53.99-4.55c1.87-0.1,2.83,0.04,4.23,0.56"/><path d="M48.96,67.9c5.04,1.35,16.63,0.74,20.31,0.38c2.39-0.23,3.05,1.06,2.92,2.7c-0.35,4.34-8.6,22.09-11.59,25.62c-3.24,3.82-5.41-0.15-6.37-0.66"/><path d="M50.14,61.03c0.49,0.99,0.4,2.11-0.19,3.22c-4.04,7.69-15.71,23.22-33.84,30.49"/></svg>