<svg><path d="M27.61,16c1.13,1.13,1.48,2.5,1.48,4.16c0,4.45-0.15,7.21-0.15,11.4"/><path d="M12.5,33.97c1.76,0.11,3.25,0.16,5.02,0c6.61-0.59,15.36-1.97,21.63-3.27c1.64-0.34,3.35-0.2,5.1,0.02"/><path d="M29.4,44.25c3.04,0.77,5.97,1.89,8.83,3.16c2.48,1.1,3.42,3.83,2.77,7.09c-1.23,6.16-5.24,21.03-10.8,28.74c-4.7,6.51-6.95,5.26-9.67,1.02"/><path d="M29.3,35.75c0.05,0.96,0.2,2.5-0.11,3.85c-2.44,10.9-7.44,25.65-18.44,36.9"/><path d="M57.77,14.64c0.03,0.53,0.06,1.37-0.06,2.14c-0.67,4.15-5.53,13.37-10.58,19.45"/><path d="M57.25,27c1.7,0.12,3.34,0.08,5.03-0.13c7.36-0.92,15.41-2.44,20.99-3.22c1.92-0.27,3.38-0.34,5.23,0.11"/><path d="M48.71,42.71c2.42,0.42,4.84,0.22,7.04-0.09c7.77-1.1,23.98-3.49,32.5-4.04c2.02-0.13,4.11-0.29,6.11,0.13"/><path d="M58.68,32.52c0.84,0.84,1.46,2.18,1.48,2.95c0.1,4.03-0.5,32.51-0.66,37.22"/><path d="M79.54,30.75c0.79,0.79,1.23,2.18,1.23,2.95c0,2.67-1,32.52-1.16,37.23"/><path d="M61.09,51.95c3.02-0.19,15.16-1.64,17.99-1.82"/><path d="M60.78,62.51c4.34-0.38,13.9-1.7,17.86-2.07"/><path d="M43.49,74.6c2.76,0.52,5.66,0.28,8.26-0.01c8.74-0.96,27.28-2.81,38.75-3.75c2.58-0.21,4.96-0.42,7.5,0.12"/><path d="M60.73,79.77c0.11,0.66,0,1.26-0.35,1.79c-1.61,2.87-7.66,8.27-15.76,11.65"/><path d="M78.28,80.41c5.07,2.67,13.1,10.97,14.37,15.11"/></svg>