<svg><path d="M29.14,15.25c0.65,0.61,1.73,2.96,1.73,4.16c0,4.45-0.21,8.88-0.09,12.65"/><path d="M13.5,33.24c0.87,0.03,3.9,0.23,4.74,0.18c6.82-0.39,19.62-2.69,24.51-3.05c1.42-0.1,2.18-0.12,3.75-0.12"/><path d="M29.67,44c3.33,1,5.58,2.25,9.46,3.61c1.91,0.67,2.53,1.71,2.42,4.36c-0.29,7-7.67,33.41-12.12,37.85c-3.18,3.18-4.99-0.74-5.79-1.57"/><path d="M28.78,36.25c0.05,1.04,0.13,2.68-0.11,4.16c-1.76,10.98-7.21,28.53-18.78,39.84"/><path d="M60.54,12.75c0.13,1.41-0.04,3.26-0.46,4.46c-2.7,7.7-6.13,14.21-12.33,23.58"/><path d="M59.75,24.39c1.02,0.11,3,0.59,4.79,0.48c8.35-0.51,19.89-3.47,25.42-3.98c1.56-0.14,3,0.18,3.79,0.37"/><path d="M69.12,30c0.71,0.34,1.88,1.65,1.88,2.33c0,2.49-0.09,5.67-0.09,8.18"/><path d="M53.92,42.23c0.9,0.06,2.94,0.39,3.81,0.31c7.04-0.65,22.03-3.7,30.96-3.87c1.48-0.03,2.23,0.03,3.33,0.39"/><path d="M66.65,44.22c0.52,0.3-0.2,1.99-0.5,2.37c-3.82,4.8-4.03,5.47-9,10.16c-2.52,2.38-1.61,2.65,1.6,2.04c8.75-1.67,15.05-3,25.57-5.4"/><path d="M78.84,47.35c3.97,2.09,10.26,8.61,11.25,11.87"/><path d="M56.37,67.76c0.23,0.51,0.41,1.85,0.4,2.9C56.6,84.3,53.03,93.37,43.56,97.98"/><path d="M68.73,65.31c0.07,0.33,0.92,1.74,0.99,3.87c0.32,10.2-0.2,22.84-0.2,26.31"/><path d="M80.79,62.88c0.59,1.04,1.06,2.26,1.09,3.86c0.16,7.13-0.42,14.06-0.42,18.91c0,8.6,1.25,9.63,8.04,9.63c6.71,0,8.49-1.04,8.49-7.54"/></svg>