<svg><path d="M34.51,16.12c0.74,1.5,0.72,2.12,0.62,3.65C32.5,58.88,25,74.25,11.38,91"/><path d="M14,40.5c1,0.75,4.75,0.25,6,0s24.38-5.69,25.5-5.75c2.5-0.12,3.62,0.88,3.25,3.75C48,44.25,44.51,61.98,44,72.25c-1,20,11.75,20.37,26.21,20.37C90,92.62,94.22,91.05,94.48,82"/><path d="M60,28.56c0.97,0.97,1.26,2.02,1.26,3.37c0,1.01,0.75,21.18,1.19,32.33c0.15,3.75,0.26,6.36,0.31,6.7"/><path d="M61.59,29.65c5.16-0.9,20.95-3.66,23.54-3.86c2.16-0.17,3.54,1.87,3.38,2.87c-0.26,1.59-1.25,22.59-2.29,34.59c-0.29,3.31-0.56,5.92-0.79,7.21"/><path d="M62.83,47.58c8.04-1.2,17.67-2.58,23.44-3.03"/><path d="M64.01,68.19c6.87-1.06,15.49-2.31,21.02-2.69"/></svg>