<svg><path d="M29.24,14.08c0.51,0.49,0.52,0.83,0.8,1.45c2.31,5.09,3.46,17.94,4.89,27.43"/><path d="M30.82,15.87c11.83-1.01,35.11-2.74,43.94-3.59c3.24-0.31,3.91,1.79,3.74,2.9c-0.61,4.06-3.12,19.13-4.6,25.92"/><path d="M33.53,28.3c3.85-0.4,37.72-3.3,42.89-2.97"/><path d="M35.29,41.11C46.25,40,62.14,39.37,73.9,38.67"/><path d="M28.88,52.62c0.94,0.43,4.18,0.46,5.12,0.38c6.5-0.5,29.16-2.16,40.25-3c1.56-0.12,4.85,0.37,5.63,0.58"/><path d="M14.38,70.98c1.65,0.28,4.68,0.4,6.31,0.28c16.86-1.22,50.47-3.68,68.43-3.94c2.74-0.04,4.39,0.13,5.76,0.27"/><path d="M52.31,53.63c0.54,0.51,1.68,3.81,1.79,4.83c0.11,1.02-0.07,35.17-0.18,41.54"/></svg>