<svg><path d="M13.52,30.05c0.91,0.91,1.1,2.08,1.1,3.5c0,0.75-0.09,26.97-0.06,39.2c0.01,3.34,0.03,5.55,0.06,5.75"/><path d="M15.33,31.3c5.14-0.91,12.06-2.17,16.55-2.9c2.54-0.41,3.87,0.54,3.83,3.1c-0.08,4.35-0.07,28.18-0.06,39.62c0,3.69,0.01,5.44,0.01,5.77"/><path d="M15.91,52.09c6.12-0.75,12.78-1.77,18.11-2.37"/><path d="M15.81,75.8c6.1-0.52,13.51-1.8,18.53-2.38"/><path d="M43.61,21.6c2.44,0.44,4.96,0.23,7.39-0.08c8.9-1.14,22.52-2.65,31.63-3.35c2.09-0.16,4.73-0.71,6.74,0.07"/><path d="M64.86,21.86c1.2,1.2,1.24,2.73,1.24,4.6c0,13.06-0.02,48.42-0.02,59.14"/><path d="M45.39,53.12c2.24,0.91,4.83,0.41,7.13,0.17c7.93-0.8,19.4-2.03,28.1-2.87c2.29-0.22,4.82-0.42,7.07,0.27"/><path d="M39.59,87.64c3.35,0.85,6.65,0.45,10.03,0.12C61.52,86.64,74.29,85.7,88,85.74c2.76,0.01,6.04-0.3,8.66,0.82"/></svg>