<svg><path d="M29.49,13.44c0.49,0.49,0.59,0.8,0.77,1.44c1.49,5.37,2.99,16.37,4.67,26.33"/><path d="M30.82,15.54c11.83-1.06,35.61-2.87,44.44-3.76c3.24-0.33,3.91,1.87,3.74,3.02c-0.61,4.23-2.76,16.69-5.1,24.35"/><path d="M33.03,26.92c3.85-0.41,41.21-3.46,44.39-3.63"/><path d="M34.79,38.68c10.96-1.16,27.85-2.35,39.61-3.09"/><path d="M51.89,41.75c0.95,0.44,2.5,2.15,2.5,3.03c0,3.49-0.03,6.9-0.13,9.4"/><path d="M19.71,56.53c1.82,0.07,5.25,0.4,7.02,0.36c14.82-0.34,38.9-4.2,58.31-4.4c3-0.03,4.53,0.03,6.76,0.46"/><path d="M67.53,57.23c0.63,0.94,0.37,2.69-0.69,4.33C56.75,77.25,40.5,91,17.55,99.5"/><path d="M34.72,64.8c3.78,0.7,33.25,23.29,49.24,31.71c3.01,1.58,5.22,1.56,7.83,1.7"/></svg>