<svg><path d="M32.24,13.58c0.34,0.45,0.35,0.77,0.54,1.34c1.56,4.69,2.67,16.54,3.63,25.29"/><path d="M34.78,15.37c10.81-1.01,30.24-2.74,38.31-3.59c2.96-0.31,3.57,1.79,3.42,2.9c-0.56,4.06-2.89,16.63-4.25,23.42"/><path d="M36.8,26.3c3.52-0.4,33.94-2.31,36.85-2.47"/><path d="M37.95,37.11c10.01-1.11,24.02-1.24,34.76-1.94"/><path d="M21.63,49.25c1.86,0.45,5.26,0.52,7.12,0.45c19.32-0.76,38.26-2.93,56.98-3.52c3.09-0.1,4.95,0.22,6.5,0.44"/><path d="M30.47,53.51c0.71,0.94,0.73,1.69,0.61,3.23c-0.96,12.3-5.83,29.77-18.2,41.83"/><path d="M58.04,54.5c0.08,1.03,0.17,2.67-0.16,4.15c-1.99,8.75-9.33,30.08-28.57,39.7"/><path d="M56.66,65.22c4.39,5.72,23.29,24.41,28.13,28.59c1.64,1.42,3.75,2.03,5.39,2.44"/></svg>