<svg><path d="M30.49,15.37c0.46,0.48,0.47,0.81,0.72,1.41c2.07,4.95,3.05,15.95,4.33,25.18"/><path d="M32.1,16.94c11.05-1.03,33.42-2.79,41.66-3.66c3.03-0.32,3.65,1.82,3.49,2.95c-0.57,4.13-2.45,15.89-3.83,22.79"/><path d="M34.16,28.04c3.6-0.4,37.71-3.37,40.68-3.53"/><path d="M35.84,39.54c10.23-1.13,27.07-2.78,38.05-3.5"/><path d="M21.87,50.18c1.57,0.41,4.47,0.54,6.04,0.41c23.86-1.85,37.42-3.49,55.87-3.9c2.62-0.06,4.2,0.2,5.51,0.41"/><path d="M27.31,67.26c1.05,0.29,3.74,0.42,4.88,0.4c11.65-0.25,32.85-3.89,44.29-4.14c1.45-0.03,4.08,0.04,6.76,0.6"/><path d="M53.49,50.87c0.74,0.72,0.92,2.46,0.9,3.85C54.11,78.78,40.27,91.48,17.5,98.87"/><path d="M54.98,65.8c7.65,7.23,24.21,24.26,31.84,29.1c2.6,1.64,3.5,1.89,4.68,2.05"/></svg>