<svg><path d="M70.99,11.25c0,1.12-0.58,1.89-1.8,2.49c-6.07,3.01-20.07,8.51-39.69,12.8"/><path d="M25.25,25.48c0.76,0.76,1,1.77,1,3.1c0,1.44,0,23.75,0,30.3c0,4.28,0.86,4.12,4.67,2.32C36.38,58.62,48,53.35,53,51.25"/><path d="M27.63,39.4c11.47-0.88,36.87-4.28,51.4-6.24c3.25-0.44,6.32-0.62,9.51-0.09"/><path d="M53.75,23.01c0.75,0.49,1.77,3.14,1.93,3.95C59.29,45.1,68.55,58.07,87,63.75c9.75,3,7.25-2,6.5-7.5"/><path d="M33.77,69.04c0.79,0.79,1.09,1.32,1.26,2.87c0.34,3.2,1.25,12.16,1.96,19.22c0.49,4.82,0.88,8.76,0.95,9.38"/><path d="M35.62,70.91c4.57-0.37,29.59-2.47,36.89-3.03c3.82-0.3,5.02,0.53,4.53,4.51c-0.5,4.06-1.69,13-2.55,19.47c-0.54,4.09-0.94,7.2-0.94,7.47"/><path d="M37.37,84.39c14.26-1.39,26.51-2.26,37.26-2.67"/><path d="M38.69,97.7c12.94-0.58,18.94-0.95,33.93-1.42"/></svg>