<svg><path d="M31.02,15.01c0.86,0.86,1.36,1.95,1.65,3.35c0.9,4.36,2.64,14.34,3.6,20.1c0.42,2.5,0.7,4.2,0.7,4.31"/><path d="M33.17,16.11c10.95-1.61,27.2-3.23,39.08-4.28c3.4-0.3,6.77,0.45,5.99,4.96c-0.67,3.88-3.2,11.51-5.12,17.5c-0.58,1.81-1.15,3.36-1.67,4.42"/><path d="M35.69,28.74C46.5,27,63.25,25.25,75.25,24.75"/><path d="M37.76,40.44c9.87-1.31,23.22-2.87,33.3-3.25"/><path d="M42.81,44c0.18,1.12-0.33,2-1.09,2.83c-4.45,4.91-10.35,8.07-21.97,13.21"/><path d="M40.28,55c0.71,0.96,0.97,2.22,0.92,3.63C40.75,71.75,36,90,20.25,96.25"/><path d="M14.13,69.41c3.4,0.86,6.69,0.62,10.12,0.22c17.5-2,43.13-5.34,61.12-6.19c3.26-0.15,6.51-0.03,9.75,0.46"/><path d="M66.37,45.25c1,1,1.46,2.38,1.46,4.25c0,2.79,0.02,26.75,0.03,40.49c0,3.69,0,6.58,0,8.01"/></svg>