<svg><path d="M16.75,25.22c0.89,0.89,1.32,2.29,1.32,3.66c0,1.11,0.07,27.44,0,37.63c-0.02,2.32-0.02,3.78-0.02,3.91"/><path d="M19.29,27.75c5.66-0.81,19.54-2.59,21.22-2.75c1.76-0.17,2.89,1.89,2.75,2.91c-0.23,1.7-0.45,27.34-0.52,36.6c-0.01,1.9-0.02,3.11-0.02,3.29"/><path d="M19.16,46.97C23.5,46.5,37,45.12,41.77,44.76"/><path d="M19,66.59c8.5-0.97,14.37-1.59,22.49-2.11"/><path d="M57.55,16c0.95,1.25,1.09,2.48,1.11,3.5c1.09,49.25-4.41,64.75-17.41,75.75"/><path d="M59.5,17.98c6.56-1.04,21.76-3.51,23.07-3.73c2.97-0.5,5.21,0.62,5.21,4.5c0,1.49,0.19,50.25,0.19,70.5c0,11.88-7.22,3.5-8.3,2.5"/><path d="M59.77,39c7.85-1,19.73-2.25,26.95-2.75"/><path d="M59.25,57.75c6.62-0.62,20-1.5,27.36-2"/></svg>