<svg><path d="M28.49,12.83c0.76,0.73,1.23,1.77,1.42,2.78c1.33,6.76,2.71,13.75,3.66,20.77c0.2,1.49,0.4,2.94,0.61,4.32"/><path d="M30.82,15.12c12.72-1.51,28.8-3.87,40.94-4.64c3.93-0.25,6.09,0.87,5.42,5.04c-0.6,3.69-1.64,9.64-2.66,14.87c-0.39,1.98-0.77,3.86-1.12,5.47"/><path d="M33.03,25.8c7.09-0.92,32.22-3.8,41.89-4.22"/><path d="M35.04,36.61c12.08-1.49,25.85-2.74,37.61-3.44"/><path d="M43.54,43.98c-0.29,0.89-0.95,1.5-1.62,2.07c-2.94,2.53-9.67,5.69-16.53,8.21"/><path d="M21,53.27c0.87,0.87,1.03,1.89,1.03,3.14S22,79.06,22,81c0,1.95-0.07,2.18,1.95,1.11c4.66-2.48,17.8-9.24,21.78-11.08"/><path d="M58,44.95c1,0.55,2.76,0.79,4.26,0.64c1.5-0.15,18.24-2.34,21.86-2.63c3.07-0.25,4.35,1.62,4.01,4.44c-0.91,7.61-3.26,20.75-5.2,27.48c-1.88,6.52-5.8,1.5-7.21-0.06"/><path d="M59.56,45.75c0.78,0.78,1,1.73,1,3.13C60.55,57.71,60.52,80.51,60.5,92c0,2.73,0,4.87,0,6.12"/></svg>