<svg><path d="M33.88,13.76c0.81,0.81,1.16,2.05,1.23,2.98c0.34,4.45,1.37,14.98,2.26,24.01c0.11,1.15,0.22,2.27,0.33,3.35"/><path d="M36.14,14.87c10.15-0.83,26.91-2.25,35.24-2.6c3.62-0.15,5.78,1.78,5.42,4.86c-0.55,4.64-1.53,11.96-3.14,21.05c-0.28,1.58-0.58,3.21-0.89,4.89"/><path d="M37.5,28.9c13-1.15,28.75-2.4,36.88-2.67"/><path d="M38.89,41.97C49,41,62.75,40,72.22,39.54"/><path d="M45.37,44.25c0.18,1.09-0.24,2.25-0.94,3.1c-4.05,4.93-13.01,11.6-27.71,17.46"/><path d="M39.11,55.24c1.15,0.46,2.73,0.65,4.6,0.56c5.92-0.3,29.79-2.67,39.01-3.6c4.57-0.46,5.52,1.8,4.83,5.06c-0.69,3.26-6.29,26.25-16.16,36.37c-2.82,2.89-5.51,0.5-8.11-2.02"/><path d="M49.96,58.04c0.07,0.51,0,1.36-0.39,2.05c-4.07,7.15-10.95,12.53-25,19.66"/><path d="M68.38,57c0.11,0.84-0.02,2.17-0.47,3.38c-2.7,7.12-17.27,22.73-38.42,32.28"/></svg>