<svg><path d="M29.25,30.91c1.67,0.47,4.73,0.62,6.4,0.47c14.15-1.26,25.92-2.92,38.63-3.37c2.78-0.1,4.45,0.22,5.84,0.46"/><path d="M40.62,19c0.81,0.81,1.65,1.98,1.71,3c0.42,7.88,0.67,14.38,1.17,25"/><path d="M67.62,13.5c0.63,1.38,0.85,2.74,0.71,3.75c-0.7,5.12-2.83,18.25-4.33,28.5"/><path d="M13.5,49.95c2.25,0.55,6.81,0.78,9.28,0.54C43.38,48.5,65,46,87.05,45.26c4.14-0.14,6.63,0.26,8.7,0.53"/><path d="M37.02,60.89c0.86,0.86,1.4,2.5,1.4,3.61c0,2.69,0,21.35,0,29.25c0,2.01,0,3.32,0,3.5"/><path d="M39.17,62.03c2.28-0.12,23.11-2.17,29.11-2.17c2.98,0,4.32,2.02,4.32,4.14c0,4.67-0.26,18.32-0.31,28.5c0,1.12-0.01,2.2-0.01,3.22"/><path d="M39.86,77.56c4.64-0.31,27.33-1.98,31.22-1.98"/><path d="M39.71,94.13c7-0.6,22.39-1.19,31.11-1.7"/></svg>