<svg><path d="M28.31,25.18c1.46,0.37,4.15,0.5,5.61,0.37c12.83-1.18,22.33-2.3,36.29-3.51c2.43-0.21,4.29-0.04,6.12,0.36"/><path d="M28.5,38.67c1.54,0.38,4.11,0.3,5.65,0.13c11.6-1.3,22.23-2.92,35.13-4.38c2.7-0.31,4.72-0.16,5.88,0.12"/><path d="M15.38,53.48c3.09,1.06,6.46,0.72,9.62,0.27c20.13-2.87,36.38-5.75,54.15-7.79c3.03-0.35,5.97-0.37,8.98,0.11"/><path d="M52.75,11.25c1,1.5,1.02,3.53,0.54,5.9C50.12,32.62,39.5,68,12.5,80.75"/><path d="M53.25,41.25c2.29,0.15,29.6,28.08,35.99,32.9c2.21,1.67,5.05,2.38,7.26,2.85"/><path d="M37.77,64.94c0.83,0.83,1.28,1.93,1.28,2.97c0,0.87-0.18,22.16-0.24,29.84c-0.01,1.59-0.02,2.59-0.02,2.68"/><path d="M39.76,67.17c6.94-0.86,24.26-3.55,25.85-3.68c1.67-0.13,3.11,1.38,3.11,2.72c0,1.26-0.16,20.65-0.24,29.04c-0.02,2.16-0.03,3.57-0.03,3.73"/><path d="M40.08,80.98c4.54-0.35,23.04-1.98,27.22-2.31"/><path d="M40.08,96.98c4.29-0.23,22.79-1.73,27.47-1.81"/></svg>