<svg><path d="M16.75,26.48c0.76,0.76,1.45,1.97,1.45,3.49s-0.23,41.98-0.23,42.74c0,0.76-0.02,2.04-0.02,3.54"/><path d="M18.77,27.42C22,27,35.14,24.48,36.93,24.25c1.49-0.19,2.83,1.13,2.83,3.24c0,2.3-0.35,26.33-0.34,43.12c0,1.73-0.12,2.98-0.12,4.13"/><path d="M19.37,49.55C23.5,49,33.88,47.5,38.49,47.14"/><path d="M18.77,73.15c7.98-1.03,11.73-1.65,19.49-2.53"/><path d="M49.21,22.3c1.85,1.06,4.42,0.72,6.4,0.48c10.13-1.22,24.14-3.53,30.59-4.56c3.6-0.58,5.22,0.91,5.05,3.82c-0.38,6.84-2.38,18.62-5.86,26.2c-2.65,5.76-5.65,3.89-8.45,0.11"/><path d="M65.75,24.64c0.5,0.86,0.48,2.1,0.14,3.22c-3.39,11.14-8.51,23.39-19,32.79"/><path d="M50.75,65.64c0.79,0.78,1.24,1.73,1.33,2.83c1.08,4.58,2.3,13.9,3.13,20.65c0.15,1.22,0.29,2.36,0.41,3.37"/><path d="M52.84,67.28c9.66-1.78,26.44-3.77,33.4-4.54c3.27-0.36,4.77,2.51,4.09,4.96c-1.24,4.48-3.31,12.05-4.73,18.35"/><path d="M56.59,88.83c4.58-0.51,17.89-1.36,27.78-1.82c1.26-0.06,2.46-0.11,3.58-0.15"/></svg>