<svg><path d="M13.27,27.44c0.39,0.78,0.78,1.68,0.78,2.72c0,1.04-0.13,41.29,0,42.34"/><path d="M14.69,29.07C19.75,28,27.75,27,31.61,26.24c1.64-0.32,2.61,1.44,2.61,2.22c0,4.04-0.52,35.79-0.52,43.01"/><path d="M14.08,49.23C20.75,48.5,28,47.5,33.8,46.92"/><path d="M14.44,70.56C20.5,70,26,69,33.29,68.52"/><path d="M48.06,34.52c0.8,0.28,2.27,0.31,3.07,0.28c8.34-0.32,19.61-3.05,29.03-3.73c1.33-0.1,2.14,0.13,2.81,0.27"/><path d="M39.63,51.5c0.81,0.25,2.71,0.69,4.87,0.5c8.5-0.75,29.75-3.75,42.33-4.25c2.16-0.09,4.21,0.25,5.56,0.5"/><path d="M62.68,12.25c1.35,0.5,2.16,2.25,2.43,3.25s0,77.25-0.27,83.5"/><path d="M64.22,51.25c-5.5,11.74-19.04,28.35-30.47,35"/><path d="M65.28,51C71,60.5,83,76,90.95,81.87c1.71,1.26,2.79,2.19,4.3,2.63"/></svg>