<svg><path d="M12.77,28.5c0.81,0.81,1.27,2.15,1.27,3.62c0,1.21-0.16,29.47-0.16,39.88c0,1.43-0.01,3.12-0.01,4.29"/><path d="M14.22,29.93c2.53-0.43,14.67-2.63,16-2.93c2.15-0.5,3.28,1,3.26,2.87c-0.02,1.77,0.02,29.21-0.06,40.63c-0.02,2.84-0.03,4.68-0.03,4.9"/><path d="M14.99,51.09c3.39-0.47,14.01-1.97,17.29-2.2"/><path d="M15.14,73.62c4.61-0.62,11.61-1.49,17.12-1.83"/><path d="M45.21,35.97c0.91,0.91,1.39,1.97,1.62,3.28c0.23,1.31,1.42,15.37,1.89,19.06"/><path d="M47.36,37.52c3.15-0.44,28.7-4.08,32.96-4.75c3.3-0.52,5.17,0.73,4.64,3.87c-0.34,1.99-2.78,15.44-3.15,17.86"/><path d="M39.02,59.2c3.23,0.67,6.03,0.44,8.98,0.09c9.63-1.17,23.38-2.79,37.76-4.04c3.17-0.28,6.62-0.5,9.61,0.19"/><path d="M63.59,14c0.95,0.95,1.1,2.25,1.14,3.69c1.39,47.19-4.98,60.06-27.06,75.06"/><path d="M63.85,57.69C70.5,68.62,77.96,77.4,85.18,84.82c3.12,3.2,5.45,5.18,7.73,6.7"/></svg>