<svg><path d="M33.77,14.8c0.76,1.2,1,2.18,1.21,3.58c0.81,5.45,2.52,16.08,3.43,21.88c0.36,2.32,0.6,3.87,0.6,4.02"/><path d="M35.64,16.44c8.49-1.69,23.36-3.94,33.01-4.74c3.48-0.29,5.55,0.37,5.1,4.07c-0.5,4.09-1.81,11.81-3.03,20.03c-0.23,1.55-0.46,3.13-0.7,4.71"/><path d="M37.75,28.99c9.25-1.24,24.13-3.11,33.36-3.48"/><path d="M39.77,42.12c8.48-1.24,19.48-2.63,29.38-3.13"/><path d="M18.75,55.45c3.3,1.18,7.39,0.57,10.76,0.05c13.74-2.12,37.73-5.24,51.75-5.88c3.25-0.15,6.54-0.27,9.75,0.42"/><path d="M53.25,55c1.12,1.12,1.5,2.5,1.5,3.75c0,1.03,0,20,0,27.75"/><path d="M56.1,68.77C64,68,70.38,67.25,75.71,66.89c1.56-0.11,2.5,0.18,3.29,0.37"/><path d="M36,68.14c0.05,0.63,0.11,1.62-0.1,2.52c-1.24,5.31-8.38,16.96-18.15,24.09"/><path d="M33,80.25c7.24,2.16,30.82,11.12,42.46,15.1c4.12,1.41,7.41,2.4,12.29,3.15"/></svg>