<svg><path d="M14.02,31.44c0.96,0.96,1.36,2.31,1.36,3.72c0,0.85,0.03,26.76,0.04,37.59c0,2.78,0.01,4.56,0.01,4.68"/><path d="M16.38,32.82c1.34-0.1,11.98-2.09,17.26-2.89c2.86-0.43,4.52,1.07,4.52,3.58c0,5.86,0.02,24.4,0.02,35.99c0,1.98,0,3.77,0,5.25"/><path d="M16.43,52.48c6.57-1.1,16.32-2.23,20.94-2.56"/><path d="M16.07,73.56c6.18-0.94,14.05-2.06,21.29-2.54"/><path d="M60.5,12.75c0.25,1.12,0.25,2.16-0.09,3.31C58,24.25,52.34,38.62,43.81,48"/><path d="M55.36,33.67c1.39,0.2,2.64,0.18,3.48,0.12c10-0.69,22.52-3.61,30.91-4.76c1.92-0.26,4.02-0.7,5.96-0.4"/><path d="M66.91,34.71c1,1,1.28,2.29,1.28,3.38c0,0.82-0.12,38.29-0.16,54.16c-0.01,2.96-0.01,5.17-0.01,6.25"/><path d="M70.57,51.69c5.18-0.94,11.68-1.94,17.53-2.88c1.38-0.22,2.89-0.43,4.37-0.07"/><path d="M69.99,69.44c3.76-0.44,12.76-1.69,21.36-2.63c0.77-0.08,2.75-0.16,3.13-0.07"/></svg>