<svg><path d="M29.88,12.88c1.06,1.06,1.5,2.36,1.69,3.51c0.9,5.74,1.63,11.14,2.41,16.64c0.25,1.8,0.51,3.6,0.78,5.44"/><path d="M32.22,14.75c12.19-1.06,29.26-2.46,39.65-3.11c3.62-0.23,5.78,0.2,5.12,4.11c-0.6,3.56-1.72,9.83-2.79,15.02c-0.32,1.56-0.63,3.02-0.93,4.28"/><path d="M33.86,24.43C40.38,24,68,22.5,74.75,22.07"/><path d="M35.58,35.01c11.54-0.88,25.78-1.74,37.18-2.38"/><path d="M42.71,41.5c-0.21,1.12-0.88,1.89-1.63,2.48c-3.63,2.85-7.33,5.39-14.96,7.89"/><path d="M21.37,49.47c0.89,0.89,1.22,2.15,1.22,3.54c0,4.48-0.09,18.77-0.09,23.73c0,1.43,0.57,3.02,2.5,1.88c3.38-2,12.12-7,20.02-11.11"/><path d="M45.19,53.72c1.17,1.17,1.67,3.03,1.67,4.52C46.86,69.88,47,88,28.97,97.9"/><path d="M60.25,45.33c1.88,0.8,3.64,0.85,6.11,0.46c4.92-0.79,15.6-2.73,17.01-2.88c1.78-0.18,4.45-0.37,4.63,3.49c0.08,1.85-1.5,22.82-3.35,31.26c-2.14,9.78-5.4,2.08-6.55,0.41"/><path d="M62.47,46.61c0.9,0.9,1,2.22,1,4.02c-0.01,8.99-0.06,30.26-0.08,42c0,2.9-0.01,5.22-0.01,6.62"/></svg>