<svg><path d="M29.75,17.19c1.44,0.62,3.73,0.67,5.26,0.54c8.25-0.69,28.36-3.73,36.79-4.35c2.84-0.21,4.75,1.81,4.31,3.63c-0.76,3.15-1.86,5.86-3.08,10.08"/><path d="M33.25,32.5c5.64-0.6,27.15-2.94,37.53-3.94c2.49-0.24,4.34-0.4,5.18-0.44"/><path d="M32.25,18.04c0.73,0.73,1.1,1.77,1.06,2.97C32.5,41.38,27.25,62.25,15,70.58"/><path d="M62,32.38C68.78,43,78.05,52.08,86.45,58.67c2.46,1.93,4.88,3.69,7.93,4.46"/><path d="M33.77,54.39c0.92,0.92,1.55,2.02,1.7,3.34c0.55,4.94,2.28,22.35,2.28,22.73c0,0.43,0.14,2.18,0.27,3.05"/><path d="M36.03,55.57c8.32-0.86,29.01-3.23,30.67-3.33c2.46-0.15,3.54,1.46,3.32,3.29c-0.5,4.24-1.65,16.21-2.24,22.99c-0.08,0.97-0.14,1.41-0.14,2.05"/><path d="M37.75,67.21c5.25-0.34,24.13-2.34,29.72-2.57"/><path d="M38.97,79.82c6.44-0.47,19.72-1.71,27.71-2.11"/><path d="M19.88,92.17c2.37,0.83,5.12,1.08,7.81,0.86c16.94-1.41,35.18-3.53,54.01-3.6c3.18-0.01,5.8,0.32,7.68,1.09"/></svg>