<svg><path d="M27,13c6.02,2.6,10.84,6.17,12.64,9.75"/><path d="M21.69,35.75c0.02,0.12,1.78,1.12,3.63,0.81C28.75,36,35.66,33.5,39,33.5c1.77,0,3.94,1.01,3.75,4.25c-0.8,13.75-0.99,48.72-0.99,53.27c0,7.73-5.01,2.98-7.97,0.92"/><path d="M14.5,53.96c1.27,0.23,2.76,0.91,4.03,0.45c1.27-0.45,10.39-2.35,12.5-3.25c2.12-0.91,3.94,0.73,3.18,2.72c-4.1,10.72-11.67,24.69-19.94,31"/><path d="M58.25,40.1c0.06,0.41,0.11,1.11-0.12,1.65C56,46.8,51.22,53.5,47.36,56.14"/><path d="M43.41,55.24C53.55,66.91,70.56,82.66,81.9,89.38c2.39,1.42,4.66,2.13,6.85,2.62"/><path d="M68.27,24.44c0.39,0.78,0.78,1.18,0.78,2.22c0,1.04-0.13,47.29,0,48.34"/><path d="M69.69,26.07c2.2-0.13,18.41-2.17,20.42-2.33c1.67-0.13,2.74,1.45,2.61,2.22c-0.26,1.57-0.52,47.23-0.52,48.01"/><path d="M70.08,47.73c2.97,0,17.86-1.81,21.22-1.81"/><path d="M69.94,72.06C76,71.5,83.75,71,91.29,70.52"/></svg>