<svg><path d="M31.24,11.7c0.78,0.78,1.24,1.71,1.38,2.8c1.25,7.37,2.35,13.74,3.46,21.96"/><path d="M33.23,13.42c8.61-1.05,25.84-2.65,36.78-3.68c3.44-0.32,5.91,0.13,5.3,4.14c-0.7,4.65-2.29,14.15-3.49,19.97"/><path d="M34.72,23.05C42,22.38,65.5,20.5,73.2,20.28"/><path d="M36.85,33.33c10.4-0.58,21.15-1.58,34.43-1.77"/><path d="M52.74,37.23c1.14,1.14,1.5,2.4,1.5,4.19c0,1.33-0.08,2.71-0.08,5.13"/><path d="M21.75,46.75c0,3.45-3.54,12.95-5.15,15.25"/><path d="M22.24,50.23c16.63-1.6,47.76-4.48,65.68-4.88c9.83-0.22-0.64,8.21-2.17,8.9"/><path d="M49.46,51.5c0.5,1.17,0.32,2.7-0.25,4.09c-2.79,6.75-6.33,14.03-12.93,22.18c-1.61,1.99-1.69,3.26,0.97,3.36c9.86,0.35,24.19,4.94,34.22,10.7c4.08,2.35,7.46,4.89,9.53,7.41"/><path d="M67.75,61c0.13,0.95-0.02,2.99-0.52,4.36c-4.04,11.08-17.88,28.41-44.73,34.89"/><path d="M15.63,69.62c3.38,0.73,6.84,0.37,10.25,0.15c12.08-0.78,38.79-2.76,55.62-3.16c3.77-0.09,7.58-0.28,11.25,0.74"/></svg>