<svg><path d="M13.27,24.51c0.39,0.99,0.78,2.11,0.78,3.37c0,1.27-0.13,53.62,0,54.9"/><path d="M14.19,26.63c5.06-0.79,13.06-1.81,16.92-2.34c1.64-0.23,2.61,2,2.61,2.95c0,4.89-0.52,46.31-0.52,55.06"/><path d="M14.08,52.58c6.67-0.22,13.42-1.7,19.22-1.82"/><path d="M13.94,80.26c6.06-0.08,11.56-1.24,18.85-1.09"/><path d="M64.48,13.62c0.1,0.28,1.37,1.46,1.46,3.25c0.47,8.57-0.3,28.83-0.3,31.75"/><path d="M44.19,26.33c3.53,2.58,9.13,10.62,10.01,14.63"/><path d="M89.17,22.75c0.04,0.41,0.08,1.05-0.08,1.63c-0.91,3.44-6.16,10.97-13.34,15.59"/><path d="M39.38,50.32c1.45,0.27,4.13,0.45,5.57,0.27c11.05-1.35,34.3-3.1,46.96-3.12c2.42,0,3.88,0.13,5.09,0.27"/><path d="M59.34,53.5c0.06,0.95,0.18,2.46-0.13,3.81c-2.6,11.45-10.29,29.34-22.69,36.44"/><path d="M71.32,51.37c0.48,1.3,0.85,2.84,0.88,4.84c0.09,6.33-0.24,19.2-0.24,27.79c0,9.75,2.54,10.77,13.01,10.77c9.28,0,10.92-2.52,10.92-9.39"/></svg>