<svg><path d="M31.49,13.79c0.8,0.8,1.1,2,1.24,2.68c1.03,4.88,2.15,10.74,3.17,17.13c0.24,1.51,0.48,3.05,0.7,4.62"/><path d="M33.39,15.05c11.8-1.59,30.18-3.79,40.38-4.64c3.84-0.32,5.74,0.91,4.87,4.96c-0.77,3.57-2.37,9.1-3.99,14.08c-0.51,1.58-1.03,3.1-1.52,4.48"/><path d="M35.47,25.55c7.28-1.05,34.65-3.92,40.35-4.15"/><path d="M37.41,36.18c11.71-1.56,24.09-2.69,35.19-3.39"/><path d="M53.08,37.57c0.8,0.8,1.19,2.03,1.19,3.59c0,2.96,0.01,14.47,0.01,19.51"/><path d="M31.98,45.73c3.7,2.49,7.36,7.5,8.21,11.08"/><path d="M74.85,40.38c0.09,1.09-0.11,2.12-0.61,3.1c-1.3,2.98-4.19,7.37-8.26,12.13"/><path d="M19.38,64.03c3.03,1.16,6.91,0.8,10.01,0.41c14.48-1.81,37.79-4.14,52.49-4.7c3.31-0.12,5.95-0.09,9.14,0.64"/><path d="M45.96,66c0.08,0.78,0.21,2.02-0.15,3.12c-3.11,9.4-10.31,21.5-26.9,30.16"/><path d="M60.53,64.71c0.59,0.94,1.1,2.05,1.1,3.5c0,4.04-0.1,11.54-0.1,17.67c0,8.97,2.26,10.46,14.15,10.46c13.83,0,14.97-2.08,14.97-6.92"/></svg>