<svg><path d="M29.33,14.76c0.33,0.41,0.84,1.2,1.02,1.71c1.5,4.26,3.41,15.53,4.33,23.48"/><path d="M31.38,15.83c11.6-1.07,32.98-2.4,41.65-3.3c3.18-0.33,4.48,0.71,4.15,3.51c-0.51,4.31-2.58,14.01-4.03,21.19"/><path d="M33.54,26.86c3.78-0.42,38.47-3,41.6-3.17"/><path d="M34.78,37.3c8.35-0.46,26.83-1.87,38.36-2.61"/><path d="M44.7,44.39c0.78,0.52,1.37,2.6,1.37,3.5c0,5.66,0.09,10.16,0.09,16.39c0,18.67-7.91,28.96-24.14,34.21"/><path d="M22.09,50.41c4.58,1.68,11.82,6.89,12.96,9.5"/><path d="M16.16,80.09c1.3,0.47,2.6,0.63,3.59,0.09c1.37-0.74,11.21-6.91,16.58-10.5"/><path d="M61.1,43.87c0.64,0.8,1.16,1.74,1.19,2.98c0.17,5.5-0.02,35.94-0.02,39.68c0,8.74,2.68,10.08,15.33,10.08s15.88-2.36,15.88-8.63"/><path d="M81.89,43.79c0.04,0.37,0.09,0.96-0.08,1.49c-1.03,3.15-6.93,10.06-15,14.3"/><path d="M66.94,67.44c5.81,2.46,15.01,10.1,16.46,13.92"/></svg>