<svg><path d="M12.02,30.71c0.83,0.83,0.99,1.94,0.99,3c0,4.12,0,24.9,0,37.17c0,4.24,0,7.47,0,8.62"/><path d="M13.62,32.11c4.39-0.99,10.85-1.92,14.79-2.65c2-0.37,3.56,1,3.56,3.05c0,5.89,0.01,25.19,0.01,37c0,3.48,0,6.32,0,7.96"/><path d="M14.04,53.47c6.35-0.74,10.71-1.22,16.78-1.83"/><path d="M14.14,76.78c5.77-0.57,9.76-1.08,16.7-1.57"/><path d="M39.2,25.23c3.26,0.49,6.53,0.53,9.8,0.11c10.7-0.8,25.9-2.78,37.88-3.44c3.14-0.16,6.26-0.01,9.37,0.43"/><path d="M40.54,44.88c1.04,1.04,1.12,1.99,1.27,3.65c0.63,7.25,1.68,19.1,2.67,30.6c0.29,3.33,0.57,6.63,0.84,9.79"/><path d="M42.75,46.88c11.86-1.44,37.32-4.11,47.13-4.58c4.14-0.2,6.61,1.82,6.08,6.36c-0.78,6.66-1.82,16.09-3.27,26.57c-0.51,3.7-1.07,7.52-1.69,11.4"/><path d="M58.55,27.85c1.05,1.05,1.25,2.54,1.28,4.08c0.29,13.83-2.58,32.83-12.05,38.11"/><path d="M73.17,26.27c0.97,0.97,1.36,2.61,1.36,4.09c0,14.27-0.35,23.15-0.35,27.64c0,5.76,1.07,6.93,6.61,6.93c4.69,0,7.28-1.16,7.54-1.5"/><path d="M46,86.24c11.13-0.86,31.82-2.26,44.56-2.49"/></svg>