<svg><path d="M29.12,14.12c0.75,0.75,0.98,1.67,1.08,2.27c0.9,5.37,1.85,10.68,2.75,16.47c0.27,1.73,0.54,3.51,0.8,5.35"/><path d="M31.22,16.39c10.71-0.84,29.61-2.39,39.04-3.2c3.82-0.33,5.91,0.56,5.05,4.72c-0.65,3.17-1.82,8.15-2.89,12.35c-0.51,1.98-0.99,3.79-1.4,5.15"/><path d="M32.86,26.05c8.26-0.8,33.01-2.68,40.15-2.76"/><path d="M34.58,35.37c10.62-0.98,24.78-1.67,36.18-2.3"/><path d="M25.91,51.25c0.67,0.67,1.02,1.51,0.98,3.02c-0.38,13.85-2.14,28.36-14.33,40.95"/><path d="M23,49.95c3.09,1.1,6.82,0.5,10.01,0.25c9.85-0.77,27.92-2.55,38.74-3.4c3.19-0.25,6.11-0.43,9.25,0.24"/><path d="M26.88,66.68c5.07-0.64,12.05-1.74,15.62-2.22c3.62-0.48,4.43,0.38,4.09,4.04c-0.47,5.12-1.84,14.38-5.61,23.08c-1.82,4.2-4.98,0.42-6.4-2.53"/><path d="M55.75,39c1.42,1.24,1.97,2.59,2.31,5.26C60.75,65.5,70,86,86.13,94.71c5.45,2.94,4.79,0.53,4.08-4.97"/><path d="M80.46,58.14c0.15,1.47-0.09,2.82-0.69,4.17c-3.79,8.59-15.06,25.52-32.72,36.16"/><path d="M80.38,36.88c3.06,1.77,7.95,5.83,9.38,8.88"/></svg>