<svg><path d="M14.27,25.44c0.38,0.78,0.76,1.68,0.76,2.72c0,1.04-0.13,49.79,0,50.84"/><path d="M15.66,27.07C20.6,26,27.4,25,31.17,24.24c1.6-0.32,2.55,1.44,2.55,2.22c0,4.04-0.5,44.29-0.5,51.51"/><path d="M15.06,49.73c6.51-0.73,12.59-1.23,18.25-1.81"/><path d="M15.42,76.56c5.91-0.56,10.28-1.06,17.4-1.54"/><path d="M52.57,16.38c0.03,0.58,0.07,1.49-0.06,2.31c-0.78,4.88-5.28,15.58-11.43,22.14"/><path d="M51.13,30.55c0.75,0.44,3.22,0.54,3.97,0.44c9.22-1.21,22.4-2.85,30.87-3.24c1.25-0.06,2,0.21,2.63,0.43"/><path d="M41.33,49.28c1.12,0.5,3.17,0.58,4.29,0.5c11.63-0.84,30.11-2.88,47.65-3.76c1.86-0.09,2.98,0.24,3.91,0.49"/><path d="M65.76,12.88c0.56,0.41,1.74,3.1,1.85,3.93c0.11,0.83-0.07,37.8-0.18,42.98"/><path d="M48.33,66.71c0.39,0.47,0.79,0.87,0.97,1.46c1.36,4.69,3.1,19.12,4.03,27.54"/><path d="M50,68.83c10.5-1.08,29.75-2.55,34.7-3.22c1.81-0.24,2.9,2.44,2.64,3.87c-1.07,5.9-1.84,11.27-3.48,20.51"/><path d="M54.1,93.12c9.1-0.63,25.92-1.31,32.45-1.89"/></svg>