<svg><path d="M13.75,26.83c0.96,0.96,1.7,2.45,1.7,3.73c0,1.29-0.23,35.36-0.23,36c0,0.64,0.12,1.64,0.23,2.93"/><path d="M15.81,27.88c5.12-0.6,17.72-1.74,19.1-1.89c1.51-0.16,2.47,1.78,2.36,2.73c-0.24,1.93-0.35,21.93-0.35,36.08c0,1.46-0.12,3.09-0.12,4.05"/><path d="M16.39,46.64c2.68,0,16.56-1.61,19.59-1.61"/><path d="M16.04,66.73c3.97,0,14.58-1.29,19.71-1.29"/><path d="M50.36,23.41c1.67,0.61,3.55,0.48,5.27,0.28c7.29-0.85,20.21-2.83,27.12-3.54c2.06-0.21,4.13-0.38,6.14,0.26"/><path d="M66.9,9.63c1.3,1.3,1.78,2.62,1.78,3.87c0,0.45-0.01,20.47,0.06,30.49"/><path d="M52.02,34.52c1.21,0.27,3.43,0.17,4.63,0.02c9.57-1.17,17.91-2.42,26.31-3.29c1.99-0.21,4.17-0.25,5.49-0.02"/><path d="M44.63,46.64c2.23,0.56,4.53,0.38,6.78,0.13c10.69-1.19,31.35-3.45,40.46-4.16c2.16-0.17,4.95-0.07,6.88,0.51"/><path d="M54.65,54.97c1,1,1.44,2.03,1.44,3.29c0,4-0.06,20.62-0.06,35.76c0,1.73,0,3.36,0,4.72"/><path d="M56.79,56.11c7.06-0.88,25.13-3.24,26.51-3.37c3.18-0.3,3.97,1.01,3.97,3.33c0,2.94-0.6,25.77-0.6,37.83c0,8.61-3.43,3.36-5.75,0.84"/><path d="M57.28,67.03c5.09-0.53,20.97-1.9,28.6-2.43"/><path d="M57.88,79.02c6.12-0.4,19.37-1.77,27.61-2.08"/></svg>