<svg><path d="M30.27,11.71c0.09,0.9,0,1.77-0.28,2.62c-1.13,4.02-4.44,11.01-10.83,17.66"/><path d="M29.99,22.13c1.51,0.24,2.63,0.03,4.02-0.19c3.43-0.54,7.28-1.54,12.29-2.31c1.57-0.24,3.12-0.33,4.71-0.01"/><path d="M14.67,39.37c1.87,0.67,4.68,0.28,6.59,0.12c8.99-0.76,21.11-2.73,28.6-4.1c0.77-0.14,2.5-0.38,4.24-0.03"/><path d="M38.49,24.19c0.36,0.91,0.2,1.83,0.02,2.95C35.25,46.5,27.75,56.25,16.32,61.93"/><path d="M37.75,42.75c6.98,2.81,13.23,7.63,14.45,10.66"/><path d="M62.25,23.75c0.98,0.81,1.54,1.85,1.7,3.11c1.15,4.1,2.14,11.22,3.1,17.52c0.29,1.93,0.56,3.78,0.8,5.45"/><path d="M64.46,25.44c7.73-0.91,17.29-2.11,24.05-2.84c2.86-0.31,5.29,0.17,4.53,3.59c-1.05,4.75-1.91,10.43-3.56,17.75"/><path d="M68.54,47.16c6.18-0.65,12.09-1.23,18.6-1.87c1.34-0.13,2.73-0.27,4.15-0.41"/><path d="M36.1,60.03c0.93,0.93,1.14,2.22,1.14,3.68c0,0.92,0,18.77,0,29.42c0,2.58,0,4.74,0,6.12"/><path d="M37.94,61.49c5.07-0.45,23.91-2.43,29.44-2.91c2.94-0.25,4.78,0.31,4.77,3.54c-0.01,3.63-0.02,19.5-0.02,29c0,4.1,0,7.01,0,7.25"/><path d="M38.36,78.1c9.14-0.98,24.89-2.48,32.49-2.71"/><path d="M38.56,95.46c8.44-0.71,26.77-2.43,32.04-2.43"/></svg>