<svg><path d="M14.27,27.85c0.32,0.74,0.65,1.58,0.65,2.57c0,0.99-0.11,46.59,0,47.58"/><path d="M15.45,29.39c5.55-0.64,10.88-0.93,14.09-1.65c1.37-0.3,2.18,1.36,2.18,2.1c0,3.81-0.43,39.92-0.43,46.75"/><path d="M14.94,52.3c5.56-0.69,11.6-1.13,16.43-1.68"/><path d="M15.25,75.22c5.05-0.53,9.63-0.98,15.7-1.43"/><path d="M37.49,37.69c0.26,0.13,1.81,0.22,2.51,0.17c2.99-0.22,16.78-1.74,21.59-2.39c0.7-0.09,1.63-0.13,2.07,0"/><path d="M50.24,14c0.71,0.47,1.98,2.25,1.98,4.42c0,5.83-0.09,73.25-0.24,79.08"/><path d="M52.37,40.28c-5.22,17.63-9.55,27.53-20.01,41.81"/><path d="M55.34,49.15c2.28,1.76,6.02,7.45,7.94,10.85"/><path d="M90.51,14c0.04,0.34,0.19,0.99-0.09,1.35c-3.75,4.94-8.55,8.68-16.46,12.94"/><path d="M69.5,26.94c1.29,2.03,1.27,3.97,1.27,6.18c0,20.57-1.52,44.88-12.38,59.11"/><path d="M70.65,43.5c0.31,0.09,1.89-0.07,2.72-0.17c4.56-0.56,15.69-1.83,22.2-2.74c0.82-0.11,2.28-0.09,2.8,0"/><path d="M83.72,45.32c0.74,0.62,1.18,2.78,1.33,4.02c0.15,1.24,0,40.69-0.15,48.41"/></svg>