<svg><path d="M38.77,16.44c1.02,1.02,1.22,2.68,1.28,3.72c0.15,2.51,1.03,17.22,1.33,24.58c0.1,2.43,0.16,4.06,0.16,4.19"/><path d="M40.94,17.57c1.82-0.11,19.18-2.21,26.1-3.02c3.82-0.45,5.6-0.08,5.19,3.99c-0.44,4.4-1.3,14.64-1.57,23.46c-0.05,1.74-0.17,3-0.33,5"/><path d="M41.83,31.7c6.92-0.57,22.42-1.95,28.1-2.12"/><path d="M42.44,46.31c6.06-0.56,19.56-1.56,27.1-2.04"/><path d="M21.51,59.44c0.96,0.96,1.39,2.31,1.39,3.76c0,0.61,0.04,17,0.05,26.67c0,2.71,0.01,4.89,0.01,6.05"/><path d="M23.22,61.36c1.56-0.07,14.81-1.94,20.06-2.6c2.97-0.37,4.06,0.48,4.06,3.5c0,4.14-0.03,16.75-0.04,24.99c0,2.69-0.01,4.91-0.01,6.23"/><path d="M24.2,75.44c4.3-0.19,17.42-1.69,21.94-1.78"/><path d="M23.99,91.22c5.1-0.44,15.69-1.18,22.04-1.51"/><path d="M64.01,57.44c0.9,0.9,1.14,1.93,1.14,3.51c0,0.6,0.04,17.21,0.05,26.92c0,2.88,0.01,5.17,0.01,6.3"/><path d="M65.71,59.36c1.58-0.07,14.84-1.74,19.81-2.38c2.68-0.34,3.92,0.46,3.83,3.29c-0.14,4.21,0.01,18.04-0.04,25.98c-0.02,3.25-0.03,5.52-0.03,5.73"/><path d="M66.21,73.94c3.92-0.44,17.92-1.69,21.94-1.78"/><path d="M66.49,90.47c5.1-0.44,15.44-1.18,21.79-1.51"/></svg>