<svg><path d="M12.02,22.19c0.83,0.83,1.01,1.93,1.01,3.47c0,0.86,0,32.38,0,45.59c0,2.86,0,4.86,0,5.5"/><path d="M13.91,23.39C20,22.25,22.25,22,27.26,21.21c3.25-0.51,4.23,0.24,4.21,3.16c-0.04,6.34-0.01,32.4,0,45.25c0,2.74,0,4.88,0,6.1"/><path d="M14.06,46.72c6.51-0.74,10.59-1.26,16.25-1.85"/><path d="M14.17,73.04c5.91-0.57,9.03-0.59,16.15-1.08"/><path d="M42.62,14c-0.13,3.5-3.13,12.66-4.2,14.75"/><path d="M43.24,15.83c6.43-0.67,33.38-3.37,46.1-3.37c10.91,0,1,8.15-0.19,9.29"/><path d="M45.64,31.95c2.98,0.68,5.65,0.25,7.99,0.01c7.98-0.83,17.92-2.16,26.74-2.74c2.28-0.15,4.49-0.34,6.74,0.18"/><path d="M44.07,42.83c0.69,0.48,1.58,2.35,1.71,2.98c0.78,3.83,1.53,11.28,2.52,18.69c0.2,1.48,0.41,2.96,0.63,4.41"/><path d="M46.49,44.82c11.66-1.71,30.32-3.9,38.51-4.27c3.72-0.17,5.08,0.77,4.72,4.46c-0.41,4.21-1.44,10.32-2.75,16.58c-0.32,1.51-0.65,3.03-0.99,4.53"/><path d="M47.99,55.53c10.14-1.15,28.76-2.78,39.65-3.33"/><path d="M49.74,66.48c9.27-0.95,22.51-2.35,35.74-3.07"/><path d="M38.25,78.99c3.02,1.18,6.75,0.76,9.89,0.41c13.61-1.52,28.27-2.51,41.87-3.23c3.23-0.17,6.09-0.26,9.24,0.48"/><path d="M65.42,20.38c1.16,1.16,1.62,2.74,1.62,4.79c0,3.23,0.01,45.31,0.01,65.32c0,4.43,0,7.77,0,9.38"/></svg>