<svg><path d="M12.27,20.94c0.38,0.78,0.76,1.68,0.76,2.72c0,1.04-0.13,58.29,0,59.34"/><path d="M13.16,22.57c4.94-1.07,11.25-2.07,15.01-2.83c1.6-0.32,2.55,1.44,2.55,2.22c0,4.04-0.5,52.29-0.5,59.51"/><path d="M13.06,49.23c6.51-0.73,11.59-1.23,17.25-1.81"/><path d="M12.92,80.06c5.91-0.56,9.78-1.06,16.9-1.54"/><path d="M64.63,11.75c1.08,0.41,1.79,2.42,1.77,3.6c-0.08,3.72-0.08,6.86-0.08,10.25"/><path d="M40.88,24.84c0,3.65-2.48,13.68-3.61,16.11"/><path d="M41.28,28.19c0.98-0.07,36.42-3.21,49.41-3.79c9.44-0.42,1.85,6.27-0.33,8.12"/><path d="M46.14,40.99c1.05,0.37,2.98,0.41,4.04,0.37C59.28,41,73,39.25,81.55,38.52c1.75-0.15,2.81,0.17,3.69,0.36"/><path d="M50.06,52.28c0.53,0.7,1.41,2.35,1.41,3.28c0.76,7.56,0.69,19.29,1.6,26.95"/><path d="M51.66,53.74c5.67-0.67,25.57-2.73,28.3-2.87c2.27-0.12,3.06,1.19,2.87,3.18c-0.54,6.67-1.29,20.17-2.39,26.5"/><path d="M52.38,66.38c6.51-0.7,23.78-1.95,29.13-2.38"/><path d="M53.81,80.09c7.75-0.81,18.24-1.18,26.68-1.67"/><path d="M36.23,94.78c1.21,0.47,3.93,0.5,5.14,0.47c10.68-0.23,37.72-1.54,50.22-1.53c2.02,0,4.23,0.22,5.23,0.46"/></svg>