<svg><path d="M32.86,10.71c0.34,0.36,0.35,0.6,0.54,1.05c1.55,3.7,2.16,11.54,3.12,18.44"/><path d="M34.69,11.88c8.27-0.77,30.66-1.96,36.83-2.61c2.27-0.24,2.73,1.36,2.62,2.21c-0.43,3.09-1.83,11.88-2.87,17.04"/><path d="M36.24,20.19c2.7-0.3,33.87-2.39,36.1-2.51"/><path d="M37.12,28.4c7.66-0.84,26.28-1.58,34.5-2.12"/><path d="M21.94,36c-0.15,3.63-3.68,13.11-4.94,15.27"/><path d="M24.04,37.48c8.18-0.73,43.44-3.9,59.61-4.49c12.29-0.44,1.91,7.79,0.4,9.03"/><path d="M29.14,47.36c1.3,0.36,3.67,0.45,4.96,0.36c12.52-0.8,24.35-3.25,38.97-3.71c2.16-0.07,3.46,0.17,4.54,0.36"/><path d="M27.82,55.18c0.76,0.38,1.72,1.68,1.87,2.19c1.03,3.68,2.32,13.13,3.21,19.21"/><path d="M30.24,57.07c11.54-0.74,38.22-3.44,46.09-3.56c3.26-0.05,3.93,1.01,3.79,2.16c-0.48,3.96-1.65,10.46-4.24,16.96"/><path d="M31.96,65.75C42,65,61.83,62.89,78.23,62.89"/><path d="M32.96,74.93c10.11-0.76,29.75-3.06,42.92-3.06"/><path d="M16.5,85.25c1.5,0.51,4.22,0.59,5.73,0.51C47.5,84.45,63.25,82,88.26,81.4c2.49-0.06,3.99,0.24,5.24,0.5"/><path d="M52.42,37.81c0.71,0.46,1.86,1.94,1.86,4.33c0,0.92-0.09,52.79-0.24,58.49"/></svg>