<svg><path d="M29.99,12.83c0.49,0.47,0.65,0.75,0.77,1.39c1.24,6.53,1.99,14.53,3.17,23.74"/><path d="M31.32,15.37c11.83-1.01,34.61-2.24,43.44-3.09c3.24-0.31,3.91,1.79,3.74,2.9c-0.61,4.06-3.62,14.13-5.1,20.92"/><path d="M33.03,25.3c3.85-0.4,40.21-2.31,43.39-2.47"/><path d="M33.79,35.61c10.96-1.11,28.35-1.74,40.11-2.44"/><path d="M44.41,42.08c0.59,0.67,1.29,2.46,1.29,3.15c0,5.02,0.1,8.46,0.07,19.22C45.73,78.9,42,89.5,32.34,98.25"/><path d="M20.84,53.36c1.16,0.14,2.63,0.71,4.3,0.5c1.67-0.21,18.29-1.95,20.24-2.57"/><path d="M20.89,66.93c1.37,0,2.97,0.17,4.34,0c1.37-0.17,16.92-2.49,20.57-2.99"/><path d="M14.95,82.2c1.37,1.15,2.75,1.34,5.02,0.63c1.34-0.42,14.52-4.29,20.19-6.29"/><path d="M62.67,40.75c0.72,0.33,1.15,1.49,1.3,2.15c0.14,0.66,0,52.21-0.14,56.35"/><path d="M64.4,50.39c5.04-0.28,18-1.87,21.78-2.34c1.38-0.17,0.42-0.1,2.8-0.1"/><path d="M64.82,64.96c5.04-0.28,18.56-1.49,22.34-1.96c1.38-0.17,0.42-0.1,2.8-0.1"/><path d="M64.68,79.79C69.72,79.5,87.22,78.3,91,77.82c1.38-0.17,0.42-0.09,2.8-0.09"/></svg>