<svg><path d="M12.27,22.44c0.38,0.78,0.76,1.68,0.76,2.72c0,1.04-0.13,50.29,0,51.34"/><path d="M13.66,24.07C18.6,23,25.4,22,29.17,21.24c1.6-0.32,2.55,1.44,2.55,2.22c0,4.04-0.5,44.29-0.5,51.51"/><path d="M13.06,47.23c6.51-0.73,12.59-1.73,18.25-2.31"/><path d="M13.42,73.56c5.91-0.56,10.28-1.06,17.4-1.54"/><path d="M50.13,13.32c0.28,0.65,0.47,0.99,0.57,1.84c0.69,6.01,1.42,13.4,2.72,24.3c0.05,0.42,0.09,0.43,0.19,1.3"/><path d="M51.39,14.37c5.45-0.85,21.67-3.12,28.66-3.7c1.21-0.1,1.94,2.33,1.9,2.98c-0.53,8.1-1.3,16.62-2.21,22.58c-0.15,0.96-0.58,3.35-0.58,4"/><path d="M52.48,26.29c2.16,0,25.91-2.34,28.35-2.34"/><path d="M53.94,38.28c4.4-0.64,19.26-0.99,24.75-1.54"/><path d="M39.35,49.53c1.31,0.37,3.71,0.42,5.02,0.37c13.64-0.61,35.88-3.51,48.67-3.65c2.18-0.02,3.5,0.18,4.59,0.36"/><path d="M53.94,52.15c0.04,0.63,0.08,1.62-0.08,2.52c-0.91,5.31-8,17.1-13.87,21.33"/><path d="M54.12,61.85c0.86,0.47,2.03,0.38,3.44,0.32c3.69-0.17,29.72-3.5,33.16-3.65c3.44-0.16,4.12,1.58,3.61,4.89c-0.52,3.31-4.7,24.12-12.26,33.11c-2.27,2.7-3.55-0.45-5.58-2.42"/><path d="M61.37,65.6c0.04,0.49,0.13,1.26-0.09,1.94c-2.17,6.7-8.12,16.02-16.68,21.52"/><path d="M76.4,63.89c0.07,0.9,0.15,2.3-0.15,3.58c-1.79,7.56-9.5,21.28-19.29,29.46"/></svg>