<svg><path d="M15.39,20.39c1.64,0.62,3.64,0.22,5.33,0.06c8.25-0.79,15.35-2.05,23.65-2.79c1.86-0.16,3.64-0.37,5.48,0.04"/><path d="M17.21,29.17c0.75,0.75,1.17,1.45,1.35,2.33c0.59,2.83,1.42,7.63,2.2,12.96c0.14,0.98,0.28,1.97,0.42,2.96"/><path d="M19.11,30.08c6.03-0.6,18.52-2.44,24.53-2.93c3-0.24,4.44,0.04,4.08,3.35c-0.32,3-0.74,7.29-1.67,11.51c-0.25,1.14-0.52,2.27-0.8,3.38"/><path d="M21.11,37.98C28,37.25,36.93,35.9,46,35.48"/><path d="M22.39,46c5.97-0.7,14.11-1.5,22.12-2.05"/><path d="M12.22,55.04c2.28,0.58,4.65,0.32,6.66,0.03c9.26-1.33,19.59-2.18,27.63-2.77c1.97-0.15,4.14-0.26,6.02,0.35"/><path d="M31.77,10.55c0.84,0.84,1.16,2.26,1.16,3.68c0,4.46-0.03,31.19-0.05,43.15c0,3.3-0.01,5.47-0.01,5.75"/><path d="M81.07,11.5c-0.06,1.05-0.55,1.72-1.26,2.33c-3.72,3.22-7.74,5.39-15.37,8.32"/><path d="M60.4,21.86c0.87,0.87,1.02,2.09,1.02,3.4c0.08,16-1.37,26.64-7.62,34.87"/><path d="M63.09,34.38c2.41,0,3.92-0.25,5.66-0.51c5.95-0.89,14.84-2.1,21.25-2.69c1.99-0.18,4.27-0.56,6.25-0.18"/><path d="M79.18,35.07c0.81,0.81,1.19,2.06,1.19,3.39c0,0.73,0.06,12.53-0.08,20.54c-0.03,1.98-0.04,3.12-0.04,4.75"/><path d="M34.02,68.54c0.91,0.91,1.23,2.33,1.45,3.7c0.39,2.49,1.32,14.2,2.09,22.23c0.15,1.61,0.29,3.07,0.41,4.28"/><path d="M36,70.16c5.73-0.62,22.48-2.16,30.39-2.87c4.55-0.41,6.71-0.06,6.2,4.97c-0.51,5.08-1.37,14.7-1.86,20.49c-0.23,2.7-0.38,4.56-0.38,4.73"/><path d="M37.72,83.06c5.53-0.56,28.95-2.71,33.03-2.71"/><path d="M39.05,95.93c7.35-0.49,21.53-1.56,30.69-1.98"/></svg>