<svg><path d="M22.38,17.73c3.12,0.65,6.88,0.24,9.88,0.04c13.71-0.87,29.86-2.26,45.99-3.38c3.44-0.24,6.72-0.55,10.13,0.18"/><path d="M24.75,18.5c0.94,0.94,0.97,2.23,0.92,4.6C25.25,41,22.45,72.99,11.81,87.97"/><path d="M28.58,35.31c2.04,0.72,4.47,0.16,6.55-0.07c5.18-0.57,12.05-1.29,16.72-1.62c1.49-0.1,2.61-0.12,3.54,0.07"/><path d="M43.88,23.26c1,1,1.24,2.37,1.24,3.64c0,0.63-0.1,25.73-0.1,30.1c0,1.92,0.01,3.74-0.02,4.5"/><path d="M43.9,35.52c0,1.48-0.92,3.26-1.94,5.1c-3.4,6.15-7.71,11.26-13.03,15.95"/><path d="M47.47,41.09c2.69,1.35,5.57,4.05,7.1,6.41"/><path d="M60.93,32.97c1.34,0.46,3.1,0.29,4.44,0.03c5.26-1,9.24-1.19,15.63-2.07c2.1-0.29,4.01-0.61,6.12-0.17"/><path d="M70.8,20.86c0.98,0.98,1.24,2.14,1.24,3.89c0,4.72-0.05,21.66,0.01,30.75c0.01,1.54,0.02,2.83,0.02,3.76"/><path d="M71.26,33.19c0,1.31-0.55,3.55-2.1,6.29c-3.55,6.28-7.41,10.78-12.61,15.63"/><path d="M72.61,34.48c5.76,6.9,11.09,12.84,16.07,17.09c1.71,1.46,3.57,2.93,5.89,4.05"/><path d="M35.74,68.35c0.76,0.85,1.21,2.57,1.43,3.64c1.2,5.76,2.2,12.79,3.24,20.18c0.29,2.09,0.57,4.13,0.82,6.04"/><path d="M37.61,69.67c15.51-1.8,27.88-2.78,38.3-3.88c4.67-0.49,5.76,1.15,5.21,5.33c-0.65,4.9-1.68,12.67-2.79,19.39c-0.35,2.14-0.72,4.18-1.08,5.98"/><path d="M39.96,82.36c4.55-0.51,27.91-2.73,38.99-3.22"/><path d="M42.2,95.79c10.67-1.04,20.42-1.38,34.3-2.29"/></svg>