<svg><path d="M22.75,22.81c2.38,0.44,5.19,0.38,7.51,0.19c12.52-0.98,35.24-3.25,49.48-3.87c2.59-0.11,4.99,0.11,7.51,0.64"/><path d="M40,13.49c0.82,0.82,1.41,2,1.5,2.74c0.88,7.03,1.5,10.53,1.75,13.35"/><path d="M67.57,12.25c0.38,0.86,0.33,2.25-0.05,3.31C65.5,21.12,64.5,24.38,63,28.3"/><path d="M33.02,34.96c0.95,0.95,1.35,1.91,1.44,2.49c0.45,3.03,1.32,9.14,1.84,12.8c0.24,1.69,0.4,2.85,0.4,2.95"/><path d="M35,36.03c6.56-0.74,28.82-2.71,34.99-3.18c2.35-0.18,4.36,1.06,3.77,3.91c-0.57,2.76-1.64,6.77-2.59,10.38c-0.41,1.57-0.8,2.97-1.12,3.97"/><path d="M36.23,43.38c5.77-0.38,31.3-2.4,35.48-2.4"/><path d="M37.68,51.09c8.57-0.71,22.57-1.82,31.93-2.09"/><path d="M18.62,63.74c2.73,0.56,5.75,0.49,8.51,0.25c17.81-1.52,41.1-3.6,56.12-4.52c3.38-0.21,7,0.02,9.75,0.43"/><path d="M48.66,53.43c0.21,1.19-0.13,2.58-0.66,3.31C39.75,68.12,30.38,77,15.75,84.12"/><path d="M59.75,55.6c3.29,0.02,17.81,14.87,26.91,21.63c2.71,2.01,5.21,3.64,7.84,4.66"/><path d="M38,73.71c0.83,0.83,1.28,1.77,1.4,3.03c0.6,6.51,1.23,10.89,2,18.28c0.18,1.71,0.22,2.9,0.39,3.88"/><path d="M40.14,75.05c4.5-0.57,20.83-2.6,27.34-3.3c3-0.33,5.05,0.96,4.6,4.5c-0.58,4.6-0.98,10.42-2.37,17.05c-0.26,1.25-0.55,2.52-0.87,3.78"/><path d="M41.33,85.05c5.54-0.68,24.91-2.93,28.77-2.93"/><path d="M42.44,95.93c6.06-0.4,18.31-1.95,25.85-2.29"/></svg>