<svg><path d="M33.58,10.75c0.37,0.26,1.16,1.97,1.23,2.5c0.08,0.53-0.05,10.11-0.12,13.4"/><path d="M24.89,15.87c0.03,0.31,0.06,0.79-0.06,1.23c-0.75,2.6-5.08,8.3-11.01,11.79"/><path d="M45.33,13.24c2.99,1.7,7.72,7,8.47,9.65"/><path d="M19.31,27.38c0.39,0.3,1.22,2.23,1.3,2.83c0.08,0.6-0.05,19.57-0.13,23.29"/><path d="M20.46,28.6c2.4-0.21,24.99-2.85,26.78-2.98c2.1-0.15,2.53,1.53,2.48,2.89c-0.27,8.37,0.21,13.83-0.6,20.57c-0.59,4.89-3.66,1.17-4.67-0.5"/><path d="M34.62,30.32c0.03,0.16,0.37,0.83,0.39,1.83c0.13,4.84-0.08,18.16-0.08,19.81"/><path d="M28.9,34.02c0.02,0.27,0.03,0.68-0.03,1.06c-0.36,2.25-2.41,7.17-5.23,10.19"/><path d="M40.69,34.21c1.27,1.42,3.28,5.82,3.6,8.02"/><path d="M67.18,10.75c0.03,0.52,0.16,1.36-0.06,2.08c-1.6,5.23-5.2,14.1-10.73,20.42"/><path d="M66.96,21.95c0.9,0.26,2.56,0,3.04-0.04c5.01-0.42,12.8-3.13,20.45-3.8c0.86-0.08,1.39-0.02,1.61,0.07"/><path d="M81.55,23.86c0.43,0.72,0.28,1.91-0.37,3.14C74.48,39.64,69.5,47.16,55.21,54.97"/><path d="M61.16,27.3c7.18,6.18,19.88,17.64,29.47,23.5c1.77,1.08,3.63,1.8,5.12,1.9"/><path d="M31.99,63.01c0.33,0.6,0.98,1.99,1.03,2.76c0.48,7.73,1.93,21.72,2.87,33.2"/><path d="M34.06,64.87c11.7-1.22,31.27-2.78,40-3.83c3.21-0.39,4.85,1.34,4.69,3.03c-0.6,6.17-2.1,22.99-3.56,33.28"/><path d="M34.74,79.81c3.81-0.49,38.3-2.99,41.46-3.15"/><path d="M36.49,96.81c8.43-0.42,27.06-1.67,38.7-2.42"/></svg>