<svg><path d="M14.27,20.09c0.48,0.91,0.89,2.16,0.87,3.98c-0.01,1.82-0.39,51.77-0.33,53.61"/><path d="M15.49,21.02c1.2,0.09,12.33-1.92,13.42-1.96c1.34-0.06,2.4,1.41,2.4,2.74c0,5.45-0.14,53.72-0.15,55.08"/><path d="M15.54,46.19c1.52,0.43,12.2-1.43,13.92-0.94"/><path d="M15.3,75.2c3.1-0.1,11.62-1.22,15.48-0.96"/><path d="M38.98,21.38c0.95,0.34,3.47,0.74,5.48,0.59c13.6-1.02,30.89-3.39,43.11-3.88c2.1-0.08,3.79-0.04,5.68,0.22"/><path d="M61.01,10.75c0.39,0.54,0.43,1.6,0.14,2.72c-3.62,14.2-11.4,26.28-26.4,36.04"/><path d="M69.68,19.42C75.75,29.75,86.25,40,93.4,44.33c1.96,1.19,2.51,1.54,3.35,1.67"/><path d="M38.52,29.08c2.4,1.35,6.19,5.54,6.79,7.63"/><path d="M90.28,25.14c0.02,0.21,0.04,0.54-0.04,0.83c-0.48,1.76-3.2,5.62-6.94,7.99"/><path d="M46.74,44.59c0.25,0.4,0.75,1.17,0.89,1.68c1.12,4.13,2.18,14.06,2.88,21.77"/><path d="M47.91,45.64c8.7-1.04,24.11-2.31,30.61-3.18c2.39-0.32,3.61,0.81,3.49,1.95c-0.45,4.16-2.06,14.51-3.15,21.46"/><path d="M49.53,55.82c2.83-0.41,28.23-2.39,30.57-2.55"/><path d="M50.96,65.91c6.27-0.44,19.25-1.29,27.9-2.02"/><path d="M62.86,68.37c0.07,0.39,0.95,2.02,1.02,4.48c0.33,11.82-0.21,14.38-0.21,18.41c0,9.14-5.85,1.22-7.07,0.2"/><path d="M50.45,75.68c0.05,0.4,0.1,1.04-0.1,1.62c-1.17,3.41-7.9,10.88-17.1,15.46"/><path d="M76.71,75.12c5.31,2.94,13.72,12.07,15.04,16.63"/></svg>