<svg><path d="M14.27,21c0.32,0.81,0.65,1.74,0.65,2.82c0,1.08-0.11,51.09,0,52.17"/><path d="M15.45,22.69c4.8-0.69,10.88-1.67,14.09-2.45c1.37-0.33,2.18,1.49,2.18,2.3c0,4.18-0.43,44.37-0.43,51.86"/><path d="M14.94,46.18c5.56-0.76,11.6-1.29,16.43-1.89"/><path d="M15.25,72.96c5.05-0.58,9.63-1.12,15.7-1.62"/><path d="M39.52,20.95c1.06,0.41,3.4,0.49,4.46,0.41c9.78-0.75,34.42-2.96,45.69-3.02c1.77-0.01,3.38,0.19,4.27,0.4"/><path d="M51.79,10.68c1.1,1.12,1.52,1.45,1.57,2.14c0.39,4.93,1.54,13.04,1.86,15.38"/><path d="M76.47,8.63c0.46,1.09,1.39,2.31,1.08,3.69c-1.08,4.85-1.35,7.66-2.69,14.58"/><path d="M40.75,33.96c1.36,0.52,2.94,0.64,4.3,0.52c8.86-0.78,27.31-1.79,41.99-2.79c2.26-0.15,3.62,0.25,4.75,0.51"/><path d="M34.85,51.18c1.67,0.56,4.73,0.71,6.4,0.56c17.79-1.55,32.19-3.37,50.81-3.36c2.78,0,4.45,0.27,5.84,0.55"/><path d="M46.59,40.37c1.5,1.24,2.11,1.61,2.14,2.39C49,49.5,49.5,56,50.04,61.32"/><path d="M83.2,37.71c0.34,1.19,0.97,2.5,0.81,4.06c-0.67,6.34-1.01,9.6-2.02,17.21"/><path d="M42.35,67.17c1.35,0.52,2.91,0.54,4.27,0.52c12.13-0.19,31.99-2.3,40.95-2.27c2.25,0.01,3.6,0.25,4.72,0.51"/><path d="M36.54,80.39c1.59,0.5,3.43,0.6,5.02,0.5c9.55-0.66,32.58-2.19,49.74-3.15c2.63-0.15,4.23,0.24,5.55,0.48"/><path d="M63.43,35.64c1.2,0.52,1.92,2.34,2.16,3.37c0.24,1.04,0,53.75-0.24,60.24"/></svg>