<svg><path d="M13.77,27.32c0.32,0.73,0.65,1.56,0.65,2.54c0,0.97-0.11,46.42,0,47.39"/><path d="M14.95,28.84c4.21-1,10.88-1.4,14.09-2.1c1.37-0.3,2.18,1.34,2.18,2.07c0,3.76-0.43,39.82-0.43,46.56"/><path d="M14.44,51c5.56-0.68,11.6-1.16,16.43-1.7"/><path d="M14.75,74.51c5.05-0.52,9.63-1.46,15.7-1.91"/><path d="M78.12,10.64c0.08,0.28,0.16,0.73-0.16,1.13c-1.92,2.39-15.59,7.19-30.71,10.39"/><path d="M46.47,25.83c2.31,1.55,5.67,5.36,6.25,7.78"/><path d="M61.59,22.47c1.97,1.28,5.1,5.25,5.59,7.24"/><path d="M86.6,19.48c0.02,0.27,0.04,0.71-0.04,1.1c-0.51,2.31-3.41,7.39-7.38,10.5"/><path d="M41.25,34.79c-0.12,3.53-2.35,11.56-3.43,13.73"/><path d="M41.39,37.97c11.61-0.95,35.73-4.52,48.64-5.4c9.71-0.66,2.28,6.26-0.48,8.13"/><path d="M44.87,49.56c0.21,1.4-2.07,7.56-3.73,9.89"/><path d="M52.41,45.86c4.96,8.89,12.22,13.93,29.03,12.85c4.42-0.28,4.06-3.45-0.59-5.88"/><path d="M64.4,44.08c1.35,3.17,4.72,4.32,5.36,2"/><path d="M81.24,43.27c3.9,1.65,6.83,3.16,10.01,8.28"/><path d="M57.4,59.13c0.05,0.58,0.11,1.51-0.1,2.34c-1.21,4.94-8.16,15.78-17.66,22.41"/><path d="M58.01,67.23c0.3,0.02,1.57-0.04,2.42-0.08C64.5,67,73.9,65.7,77.9,64.96c2.75-0.51,3.93,0.48,2.43,3.6c-3.69,7.7-25.44,26.77-42.58,30.67"/><path d="M52.85,72.44c8.53,2.72,26.4,18.56,35.64,22.72c2.29,1.03,3.98,1.79,6.12,2.15"/></svg>