<svg><path d="M41.48,12.24c0,1.01-0.42,2.33-1.05,3.09C36.25,20.38,28,28.38,17.75,34.25"/><path d="M58.5,9c5,0.25,18.38,10.83,25.96,15.44c3.37,2.05,6.2,4.28,10.29,4.77"/><path d="M25.4,33.92c0.71,0.71,1.26,1.64,1.35,2.17c0.87,4.9,2.05,10.77,3.29,17.16c0.35,1.8,0.7,3.64,1.05,5.51"/><path d="M27.23,35.24c14.48-1.65,37.32-3.91,50.14-4.65c3.65-0.21,5.68,1.1,4.92,4.82c-0.63,3.13-1.68,7.56-2.96,12.58c-0.49,1.91-1.01,3.9-1.55,5.94"/><path d="M52.95,33.44c0.87,0.87,1,2.05,1,3.19c0,4.35-0.01,9.8-0.01,16.23"/><path d="M36.33,40.32c2.75,1.57,6.87,6.45,7.55,8.89"/><path d="M70.58,36.86c0,0.89-0.25,1.73-0.72,2.34c-1.65,2.77-4.61,6.81-8.67,9.91"/><path d="M31.81,55.9c14.06-1.65,31.71-3.35,45.34-3.95"/><path d="M34.5,65.52c0.8,0.8,1.14,2.06,1.24,3c0.8,6.96,1.76,15.85,2.62,24.48c0.22,2.19,0.43,4.37,0.63,6.5"/><path d="M36.19,67.14c3.93-0.26,26.22-2.28,32.95-2.79c3.78-0.29,5.09,0.78,4.75,4.52c-0.4,4.29-1.24,13.86-2.12,22.5c-0.26,2.52-0.51,4.96-0.77,7.17"/><path d="M37.9,81.02c7.85-0.52,26.73-1.89,34.67-2.17"/><path d="M39.45,96.96c11.93-0.83,21.44-1.6,31.04-1.69"/></svg>