<svg><path d="M21.75,26.33c1.38,0.56,3.31,0.25,4.75,0.13c4.94-0.39,12.21-1.6,17.62-2.12c1.56-0.15,3.07-0.32,4.61,0.06"/><path d="M17.39,40.31c1.55,0.63,4.34,0.42,5.98,0.24c7.03-0.78,14.97-2.12,21.12-2.77c1.59-0.17,3.2-0.29,4.77,0.1"/><path d="M35.96,13.75c0.38,0.85,0.63,1.65,0.52,3.3C34.5,47.5,29.12,58.25,15.05,69"/><path d="M34.88,45.62c5.26,1.91,9.98,5.36,13.11,9.75"/><path d="M59.12,23.55c1.46,0.6,3.53,0.13,5.02-0.03c5.1-0.56,13.28-1.8,18.13-2.17c1.48-0.11,3.06-0.25,4.52,0.11"/><path d="M56.26,38.01c1.87,0.24,3.98,0.21,5.62,0.08c5.72-0.44,18.33-2.08,24.61-2.43c1.89-0.11,3.64-0.32,5.49,0.14"/><path d="M71.59,10.5c0.83,0.83,0.99,2.18,0.92,3.62C71.25,39.75,67,49.62,55.17,59.25"/><path d="M71.02,38.95c4.71,5.41,12.35,13.43,18.47,18.33c1.77,1.41,4.02,3.1,6.72,4.34"/><path d="M31.52,65.69c0.9,0.9,1.36,2.18,1.57,3.71c0.69,4.91,2.29,16.65,3.26,24.34c0.29,2.25,0.52,4.16,0.66,5.44"/><path d="M33.3,66.57c4.99-0.5,31.83-3.14,40.31-3.89c4.08-0.36,5.89,0.9,5.3,5.04c-0.7,4.82-1.62,14.29-2.89,23.57c-0.26,1.91-0.52,3.82-0.79,5.69"/><path d="M35.85,81.73c8.9-1.35,31.4-3.6,40.59-3.81"/><path d="M38.28,97.19c10.22-0.94,25.71-2.25,36.15-2.67"/></svg>