<svg><path d="M30.74,20.63c2.01,0.49,3.84,0.58,5.91,0.39c9.45-0.89,28.54-2.97,37.54-3.64c2.92-0.22,4.18,1.24,3.66,3.55c-0.4,1.76-2.56,9.62-3.88,16.56"/><path d="M11.89,32.34c3.17,0.66,5.87,0.47,9.58,0.19c20.16-1.52,48.41-3.9,67.91-4.64c4.08-0.16,7.07,0.26,8.91,0.59"/><path d="M29.86,41.38c1.64,0.49,3.39,0.52,4.84,0.44c9.67-0.57,27.55-2.07,37.43-2.85c1.93-0.15,3.14-0.08,4.59,0.07"/><path d="M30.04,52.06c1.47,0.26,3.65,0.54,5.12,0.43c12.34-0.98,25.59-2.23,36.78-3.31c2.43-0.23,4.41-0.19,5.63-0.07"/><path d="M17,63.44c2,0.58,5.67,0.57,7.66,0.41c20.78-1.7,42.92-3.93,61.09-4.48c3.33-0.1,5.33,0.15,6.99,0.42"/><path d="M52.69,9.52c1.33,1.33,1.95,2.98,1.95,4.71c0,5.67,0.22,33.72,0.31,45.77"/><path d="M31.25,71.75c0.43,0.46,1.24,1.44,1.43,2.7c1.11,7.42,2.22,14.33,3.18,20.74c0.18,1.2,0.34,2.38,0.49,3.57"/><path d="M33.75,73.75c14.98-2.05,36.1-3.71,44.41-4.26c3.33-0.22,5.09,1.76,4.6,4.33c-0.99,5.22-2.01,11.55-3.81,19.41c-0.3,1.31-0.74,2.55-1.15,3.72"/><path d="M35.5,83.75C46.79,83.03,65.75,81.5,80.25,81"/><path d="M37.25,95.25c10.7-0.68,26.5-1.38,40.5-2"/></svg>