<svg><path d="M51.76,8.75c0.1,0.82,0.4,2.2-0.2,3.29C47.25,19.75,35,32.5,15.5,43.5"/><path d="M52,11.46c6.15,5.2,32.66,22.17,39.44,25.97c2.3,1.29,5.26,1.84,7.56,2.21"/><path d="M38.75,33.39c0.94,0.38,2.66,0.46,3.6,0.38c6.15-0.52,17.4-2.77,23.61-2.88c1.56-0.03,2.5,0.18,3.29,0.37"/><path d="M26.27,43.94c0.39,0.78,0.61,1.19,0.78,2.22c0.45,2.84,2.2,14.59,3,18.84"/><path d="M27.19,45.07c4.81-0.82,50.91-4.17,52.92-4.33c1.67-0.13,2.77,1.45,2.61,2.22C82,46.5,79.25,58.25,78.21,62.48"/><path d="M53.75,43.75c0,2.5,0.25,15.5,0.25,18"/><path d="M36.52,49.33c2.4,1.48,6.19,6.08,6.79,8.38"/><path d="M69.28,45.64c0.02,0.33,0.04,0.86-0.04,1.33c-0.51,2.81-3.43,8.97-7.43,12.74"/><path d="M30.25,64.25c6.25-0.5,43.25-3.5,48-3.5"/><path d="M33.99,71.29c0.29,0.52,0.3,0.87,0.46,1.51c1.32,5.27,2.56,18.46,3.37,28.2"/><path d="M35.36,72.56c10.2-0.71,27.69-2.41,35.31-3.06c2.8-0.24,4.23,1.27,4.09,2.69c-0.53,5.21-2.83,19.39-4.11,28.07"/><path d="M36.76,85.61c3.32-0.31,33.52-2.36,36.27-2.41"/><path d="M37.85,99.11c8.65-0.61,24.4-1.86,32.8-2.35"/></svg>