<svg><path d="M20.47,21.74c0.52,0.95,0.88,1.88,1.05,2.8c0.17,0.92,0.15,25.9-0.41,33.63c-0.8,11-0.86,21.33-7.61,36.72"/><path d="M22.57,22.81c2.1-0.06,12.15-2.34,13.71-2.46c2.8-0.23,3.5,1.31,3.5,2.67c0,3.23-0.03,46.22-0.03,64.55c0,12.61-5.91,3.55-7.7,2.04"/><path d="M22.07,42.7c4.61-0.35,13.03-2.04,17.08-2.07"/><path d="M22.01,61.15c3.79-0.08,11.64-1.28,16.79-1.7"/><path d="M68.75,14.38c0.58,0.46,1.8,3.47,1.91,4.39c0.12,0.93,0.25,64.83,0.13,70.61"/><path d="M52.88,31.83c0.5,0.33,1.07,2.74,1,3.4c-0.33,2.91-1.55,11.32-2.89,17.24c-0.33,1.45,0.37,2.03,1.53,1.64c9.46-3.18,29.48-5.45,38.84-5.27"/><path d="M91.69,27.71c0.58,0.46,0.74,3.09,0.71,4.03c-0.15,6.51-0.65,13.26-1.24,19.93"/><path d="M51.53,67.89c0.5,0.33,1.07,2.74,1,3.4c-0.33,2.91-2.55,16.31-3.89,22.23c-0.33,1.46,0.31,2,1.49,1.69c12.88-3.45,33.77-4.58,43.13-4.4"/><path d="M93.8,63.6c0.58,0.47,1.53,2.59,1.47,3.53c-0.53,8.62-1.03,19.38-1.74,28.89"/></svg>