<svg><path d="M28.53,14.31c0.83,0.83,1.3,1.74,1.42,2.45c0.23,1.38,1.8,13.16,2.75,20.12c0.33,2.4,0.58,4.23,0.67,4.87"/><path d="M30.86,16.22c4.36-0.35,37.52-2.97,43.19-3.25c3.31-0.16,5.45,1.03,5.2,3.91c-0.27,3.03-1.36,9.96-2.82,17.13c-0.31,1.54-0.64,3.08-0.98,4.6"/><path d="M32.49,26.78c5.89-0.36,36.39-2.65,44.54-2.75"/><path d="M33.84,37.96c8.71-0.53,27.78-1.96,41.05-2.59"/><path d="M11.75,49.29c2.47,0.57,7.02,0.79,9.49,0.57c20.44-1.76,40.93-3.28,59.14-3.88c4.14-0.14,8.03,0.15,12.12,0.72"/><path d="M26.06,52.41c0.77,0.77,1.14,1.92,1.14,2.91c0,0.99-0.14,30.36-0.14,33.93"/><path d="M28.42,61.33c4.83-0.7,9.52-1.17,16.14-1.77"/><path d="M28.14,73.61C32.88,73,41.62,72,44.65,71.78"/><path d="M16.5,93.4c0.84,0.59,2.26,0.53,3.09,0.16c3.31-1.51,21.09-10,26.17-12.41"/><path d="M44.5,50.82c0.89,0.89,1.23,2.3,1.23,3.29c0,0.83,0.1,27.02,0.13,40.14c0.01,2.46,0.01,4.46,0.01,5.75"/><path d="M57.91,60.75c1.06,0.25,2.19,0.39,4.3,0c2.11-0.38,13.67-2.69,15.12-3.09c2.42-0.67,3.93,1.09,2.98,3.31C74.12,75.5,64.88,87.25,53.4,94.71"/><path d="M54.25,68c6.67,0.37,20.76,18.64,33.93,26.95c1.91,1.21,3.3,1.93,5.07,2.31"/></svg>