<svg><path d="M51.66,13.68c0.84,1.2,0.73,3.01,0.31,4.68c-3.11,12.34-12.85,30.9-33.08,44.76"/><path d="M14.25,30.2c3.73,1.33,8.33,0.33,12.15-0.02c14.5-1.3,45.59-4.1,61.48-4.6c3.22-0.1,6.46-0.22,9.62,0.46"/><path d="M42.48,44.64c0.75,0.75,1.44,2.11,1.44,3.57c0,2.66-0.03,31.04-0.05,44.91c0,3.26,0,5.71,0,6.85"/><path d="M44.86,47.17c3.64-0.54,23.98-3.91,25.74-4.18c2.39-0.36,4.22,1.01,4.22,3.68c0,6.08-0.09,30.61-0.09,46.28c0,11.05-6.11,3.43-7.75,1.74"/><path d="M44.86,60.56c8.64-0.94,21.68-2.15,28.82-2.73"/><path d="M45.21,74.09c6.35-0.58,20.99-2.32,28.33-2.71"/></svg>