<svg><path d="M19.92,19.5c0.98,0.98,1.41,2.23,1.42,3.25c0.4,41.62-1.72,55.38-9.1,68.75"/><path d="M22.52,21.25c2.34-0.25,11.84-2.53,13.59-2.75c2.01-0.25,3.91,1.12,3.91,4c0,1.49-0.09,40.25-0.09,60.5c0,12.38-5.68,6.25-8.64,3"/><path d="M22.52,39.75C27.75,39,34.5,38,39.15,37.5"/><path d="M22,57.25C27,56.5,33.38,55.5,38.51,55"/><path d="M49.25,17c0.83,0.47,2.46,1.38,4.51,1.13C62.75,17,76.02,15.2,78,15c2.5-0.25,7.41-0.15,5.5,4.75c-1.75,4.5-3.14,8.91-5,12.75c-4,8.25-7.75,3.75-9.75,1.25"/><path d="M51.87,18.25c0.63,0.63,0.96,2.23,0.96,3.25c0,2.93-0.15,45.78-0.2,65.25c-0.01,3.79-0.02,6.7-0.02,8.25"/><path d="M56.34,50.35c2.03,0.53,3.78,0.51,5.61,0.05c1.83-0.45,16.71-4.66,17.97-5.1c2.87-0.99,4.49,1.17,3.96,3.33C80,64.75,70.25,80.5,60.5,90"/><path d="M59.4,58.98c2.91,0.74,15.91,17.85,26.71,27.92c2.41,2.25,4.39,4.23,7.64,6.04"/></svg>