<svg><path d="M22.75,18c0.94,0.94,1.2,2.13,1.25,3.5c1.5,41.5-1.38,61.38-11,73.75"/><path d="M25.5,20.5c4.77-0.78,13.11-2.12,16.48-2.61c4.1-0.59,5.02,1.04,5.02,4.73c0,10.33,0,46.45,0,64.38c0,13-6.5,4.5-9,2.25"/><path d="M25.5,40c4.25-0.5,14.25-1.75,20-2"/><path d="M24.75,60.5c8-0.75,12-1.25,21.25-1.75"/><path d="M63,18.5c1,1,1.47,1.97,1.5,3c0.88,30.75,0.88,56.38-11.25,73.75"/><path d="M65.5,21c4.21-0.76,15.23-2.42,19.51-3.04c3.96-0.57,5.49,0.37,5.49,4.29c0,9.8,0,46.6,0,64.75c0,13-5.75,5.5-8.25,3.25"/><path d="M66,40.25c4.25-0.5,17.5-1.75,23.25-2"/><path d="M65.25,58.5c8-0.75,14.75-1,24-1.5"/></svg>