<svg><path d="M15.96,32.56c2.54,0.31,4.38,0.09,6.29-0.22c8.88-1.46,19.12-3.12,28.54-4.2c2.05-0.23,4.09-0.39,6.09-0.08"/><path d="M26.5,18c1,1,1.46,2.38,1.46,3.77c0,2.06,0.1,40.22,0.1,48.49"/><path d="M44.75,12.5c1.25,1.25,1.63,2.75,1.63,4.31c0,0.95-0.15,42.69-0.15,50.82"/><path d="M29.15,44.16c2.69-0.24,13.31-1.86,15.84-2.09"/><path d="M29.07,56.35c4.05-0.73,10.8-1.6,15.75-2.09"/><path d="M12.25,72.34c2.38,0.66,5.31,0.48,7.75,0.08c9.37-1.54,22.5-3.29,32.88-4.51c2.35-0.27,4.99-0.54,7.62,0.01"/><path d="M29.02,78.48c0.14,1.17-0.11,2.2-0.75,3.07c-2.36,3.59-6.74,8.63-12.56,13.17"/><path d="M43.54,77.29c3.51,2.15,9.07,8.85,9.95,12.19"/><path d="M67.12,22.02c0.99,0.99,1.66,2.37,1.68,3.32C69.5,67,66.75,79,56.75,91.5"/><path d="M69.72,23.46c1.85-0.23,17.58-2.8,18.98-2.97c3.05-0.37,4.34,1.13,4.34,3.97c0,1.39-0.21,46.56-0.21,65.6c0,7.93-5.2,2.68-8,0.12"/><path d="M69.97,42.31c6.78-0.94,14.53-2.06,21.73-2.73"/><path d="M69.18,60.64c5.32-0.51,16.19-1.51,22.46-1.79"/></svg>