<svg><path d="M19.97,20.49c0.77,0.77,1.03,1.76,1.05,3.05C21.5,58,19.38,77.12,11.25,91.89"/><path d="M22.07,22.06c3.95-0.6,9.94-1.92,12.55-2.34c3.7-0.6,4.43,1.24,4.41,4.4c-0.08,9.07-0.01,45.55-0.01,62.19c0,12.61-5.91,3.55-7.7,2.04"/><path d="M22.07,40.7c5.43-0.7,10.8-1.45,15.58-1.82"/><path d="M21.01,59.15c4.99-0.52,11.89-1.28,17.04-1.7"/><path d="M51.61,20.28c2.99,2.35,7.73,9.64,8.48,13.29"/><path d="M80.02,16.64c0.05,0.99,0.04,1.74-0.31,2.68c-1.93,5.19-4.41,10.86-8.7,17.76"/><path d="M49.79,41.59c1.9,0.77,4.39,0.32,6.33,0.03c7.05-1.03,17.59-2.53,23.76-3.13c2.11-0.21,4.14-0.41,6.23,0.09"/><path d="M44.24,58.23c2.63,0.52,4.51,0.42,6.52,0.16c10.22-1.32,27.31-3.1,36.24-3.63c2.79-0.17,5.24,0.08,7.97,0.72"/><path d="M65.39,43.62c0.61,1,0.79,2.35,0.74,3.8C65.14,74.44,58,86,45.7,93.37"/><path d="M66.45,60.14c5.46,6.4,15.33,19.43,22.4,26.5c2.04,2.04,4.15,4.23,6.5,5.66"/></svg>