<svg><path d="M20.33,21.12c0.53,0.99,0.88,2.5,1.06,3.46c0.18,0.96,0.15,27.14-0.41,35.24c-0.8,11.52-2.73,26.44-8.23,36.88"/><path d="M22.45,22.27c2.12-0.06,12.24-1.95,13.81-2.08c2.82-0.24,3.53,1.37,3.53,2.79c0,3.38-0.04,45.4-0.04,64.6c0,13.21-5.95,3.72-7.75,2.14"/><path d="M21.96,43.08c4.64-0.37,12.04-1.58,17.2-2.14"/><path d="M20.94,60.46c3.82-0.08,12.69-0.81,17.88-1.25"/><path d="M66.75,11.75c1.17,0.59,1.87,1.47,2.1,2.64c0.23,1.17,0.23,7.86,0.23,10.8"/><path d="M53.82,27.01c2.41-0.12,27.4-3.38,29.6-3.52c1.83-0.12,2.88,1.31,2.87,2.03c-0.12,5.09-2.64,23.48-3.69,26.98"/><path d="M54.49,40.29c6.05-0.57,24.18-2.81,30-3.26"/><path d="M54.6,53.42c8.3-0.92,19.19-2.23,28.21-3.11"/><path d="M51.51,25.23c1.31,0.53,2.09,2.39,2.35,3.45c0.26,1.06,0.55,60.38,0.26,63.02c-0.26,2.39,0.41,5.47,3.49,3.23C63,91,66.25,88.5,72.95,84.63"/><path d="M88.69,58.05c0.3,1.43,0.5,2-0.54,3.15c-2.01,2.23-8.07,7.4-10.82,9.41"/><path d="M62.88,59.73c4.93,3.99,17.95,22.6,25.46,29.39c4,3.62,6.03,4.58,8.23,5.26"/></svg>