<svg><path d="M16.88,27.13c1.87,0.37,4.34,0.34,5.62,0.12c7.35-1.23,18.38-2.86,24.74-3.37c1.6-0.13,4.33-0.68,5.89-0.07"/><path d="M33.9,11.75c1.1,1,1.76,2.5,1.76,3.7c0,0.68,0.2,16.33,0.12,20.55"/><path d="M17.77,38.44c1.23,0.81,2.01,2.14,2.2,3.32c0.72,4.38,3.12,18.94,3.12,19.29c0,0.4,0.13,1.4,0.26,2.2"/><path d="M20.76,39.32c8.12-1.32,23.99-3.44,29.06-3.83c2.06-0.16,3.43,1.26,3.15,3.7C52.45,43.78,51,52.5,50,57.5c-0.18,0.89-0.49,2.6-0.49,3.2"/><path d="M22.87,50.38c6.5-0.88,23-3.25,27.66-3.65"/><path d="M24.51,61c6.86-0.75,16.99-2.25,24.07-2.95"/><path d="M10.13,75.13c2.12,0.75,5.25,0.78,6.99,0.5C31,73.38,42.55,71.25,52.62,70.5c1.8-0.13,4.61-0.19,5.51,0.06"/><path d="M34.65,62c1.11,1.11,1.51,2.5,1.51,3.95c0,5.55-0.01,16.22-0.08,24.8c-0.02,2.07-0.03,3.68-0.05,4.5"/><path d="M65.6,20.73c0.9,0.9,1.68,2.25,1.73,3.28C69,59.5,64.75,81.5,54.75,93"/><path d="M67.86,21.83c5.79-1.02,19.48-3.54,20.83-3.83c2.32-0.5,4.58,0.62,4.58,3.29c0,2.46-0.11,49.96-0.11,70.41c0,10.8-6.41,1.8-8.44-0.23"/><path d="M69.05,40.67c6.45-0.92,15.95-1.92,22.79-2.73"/><path d="M67.66,60.85c6.53-0.76,16.72-1.72,24.27-2.23"/></svg>