<svg><path d="M21.5,20.27c1.02,0.25,2.89,0.27,3.9,0.25c11.6-0.27,43.85-2.35,56.03-2.7c1.7-0.05,2.72,0.12,3.57,0.24"/><path d="M35.87,10.39c1.09,0.35,1.92,1.54,1.96,2.27C38,16,39.75,40.5,40.11,46.43"/><path d="M67.87,9.25C68.5,10,69.25,11,69.33,12.52c0.2,3.74-2,28.16-2.22,32.52"/><path d="M40.25,29.55c4-0.17,23.25-1.74,27-1.92"/><path d="M40,37.81c4.5-0.17,20-1.4,26.5-1.57"/><path d="M14.25,47.89c1.56,0.43,4.44,0.56,5.99,0.43c13.31-1.17,51.13-4.11,68.04-4.1c2.6,0,4.17,0.2,5.47,0.42"/><path d="M39.31,49.84c0.07,0.5,0.28,1.36-0.14,2.02c-3.27,5.2-11.44,13.63-24.78,19.36"/><path d="M67.02,47.22C74.75,55,82.81,61.63,89.99,66.4c1.63,1.08,4.17,1.99,5.57,2.64"/><path d="M39.75,58.79c0.56,0.74,0.93,1.49,1.12,2.23c0.19,0.75,0.3,9.37,0.19,11.05c-0.8,11.43-3.35,20.68-8.38,26.08"/><path d="M40.98,60.28c2.23-0.19,24.73-2.83,26.4-3.04c2.98-0.37,4.1,2.42,3.72,3.54c-0.36,1.07-0.56,18.88-0.56,33.96c0,9.68-3.97,3.35-5.83,1.68"/><path d="M41.98,70.62c7.64-1.12,21.61-1.79,28.32-2.35"/><path d="M40.54,81.02c5.96-0.56,22.5-1.74,29.39-2.11"/></svg>