<svg><path d="M32.59,14.5c0.96,0.96,1.28,2.75,1.28,4.03c0,3.47,0.01,5.63,0.01,8.72"/><path d="M19.01,28.99c1.99,0.88,3.44,0.93,6.24,0.54c5.5-0.76,14.62-1.82,18.52-2.24c2.88-0.31,4.34,0.34,4.2,3.47c-0.21,4.71-0.88,13.33-1.37,19.48c-0.13,1.6-0.24,3.04-0.33,4.19"/><path d="M21.63,42.02c5.36-0.56,16.37-2.15,24.81-2.69"/><path d="M21.48,55.33c7.35-0.89,14.77-1.7,23.97-2.53"/><path d="M19.51,29.49c0.75,0.75,1.11,1.76,1.11,3.13c0,3.5,0.1,45.13,0.1,50.07c0,4.31,1.28,5.06,4.12,2.95c4.91-3.65,12.41-8.89,18.41-13.64"/><path d="M37.57,64.09C43.12,68.25,47,75.5,48.96,80.43"/><path d="M61.56,18.97c1.04,1.04,1.48,2.94,1.51,3.94c1.18,37.21-1.2,58.46-10.82,69.97"/><path d="M64.15,21.46c1.96-0.17,18.64-2.64,20.87-2.99s4.01,1.5,4.01,4.01s0.04,45.76,0.04,64.37c0,12.83-5.75,4.27-8.04,1.97"/><path d="M64.65,40.59C73,39.75,79.62,39,87.64,38.4"/><path d="M63.64,59.7c5.22-0.53,17.64-1.76,23.67-2.04"/></svg>