<svg><path d="M30.13,30.77c2.62,0.48,5.01,0.34,7.25,0.03c10.24-1.4,24.97-3.2,34.89-4.19c2.11-0.21,4.61-0.24,6.45-0.01"/><path d="M16.69,51.25c3.17,0.89,6.12,0.81,9.34,0.39c13.85-1.77,40.22-4.64,56.98-5.88c3.16-0.23,6.05-0.29,9.18,0.24"/><path d="M52.66,11c1.17,1.17,1.92,2.62,1.92,4.25c0,5.16-0.03,55.71-0.04,77c0,3.47,0,6.16,0,7.75"/><path d="M51.5,49.25c0,1.12-0.66,2.62-1.5,3.88C41.92,65.24,25.89,81.18,12.75,87.5"/><path d="M56.12,49.75c5.62,6.25,20.25,20.5,30.33,28.93c2.53,2.11,5.04,3.82,8.42,5.07"/></svg>