<svg><path d="M20.5,33.5c1.93,0.62,4.91,1.07,8.1,0.75C42.43,32.88,66,30.75,79.64,30c3.2-0.18,7.22,0.25,9.23,0.5"/><path d="M52.1,11.12c1.25,1.25,2.05,3.23,2.05,4.99c0,0.84,0,57.16-0.02,76.76c-0.01,3.96-0.01,6.42-0.02,6.62"/><path d="M51.75,33.5c0,1-0.41,2.22-1.29,3.88C43.62,50.25,30.12,65.5,13.25,75.5"/><path d="M54.75,35.5c4.92,5.74,23.48,23.33,32.85,31.27c2.58,2.18,5.16,4.41,8.52,5.23"/><path d="M33.88,73.92c1.5,0.46,2.74,0.75,5.3,0.59c9.95-0.63,21.2-2.13,27.96-2.95c1.93-0.23,3.62-0.31,6-0.02"/></svg>