<svg><path d="M18.14,22.68c0.47,0.95,0.79,2.38,0.95,3.3c0.16,0.92,0.14,24.9-0.37,32.63c-0.72,11-2.47,25.08-7.97,35.72"/><path d="M20.03,24.25c1.89-0.06,10.94-2.34,12.35-2.46c2.52-0.23,3.15,1.31,3.15,2.67c0,3.23-0.04,44.72-0.04,63.05c0,12.61-5.32,3.55-6.93,2.04"/><path d="M19.6,42.65c4.15-0.35,11.74-1.54,15.38-1.57"/><path d="M18.68,59.09c3.42-0.08,11.35-0.78,15.99-1.2"/><path d="M44.08,21.71c0.99,0.53,2.14,0.63,3.14,0.53c9.11-0.96,30.9-3.46,41.4-3.53c1.65-0.01,2.64,0.25,3.47,0.51"/><path d="M54.81,12.94c1.15,1.05,1.52,1.37,1.64,2.01c1.15,6.04,1.48,11.54,1.81,13.74"/><path d="M75.55,11.69c0.64,0.75,1.07,1.89,0.86,2.99c-0.64,3.36-1.84,8.97-2.77,13.26"/><path d="M44.92,32.04c0,3.38-3,12.68-4.17,14.93"/><path d="M44.68,35.76c17.07-1.82,42.42-3.37,43.92-3.48c9.77-0.7,3.56,5.91-0.1,9.13"/><path d="M53.44,43.47c0.81,0.41,2.29,0.43,3.1,0.41c4.43-0.12,12.56-1.19,19.95-2.39c1.34-0.22,2.54,0.19,3.21,0.4"/><path d="M43.26,52.42c1.23,0.62,3.48,0.65,4.72,0.62c8.42-0.24,28.47-2.84,39.35-3.16c2.05-0.06,3.28,0.29,4.31,0.6"/><path d="M63.43,53.5c0.06,0.31,0.12,0.8-0.12,1.24c-1.44,2.61-9.72,8.35-21.04,11.86"/><path d="M62.33,60.36c6.94,4.68,11.87,23.51,5.75,36.8c-2.7,5.86-6.29,0.7-7.2,0.04"/><path d="M62.42,64.78c0.05,0.34,0.11,0.88-0.1,1.37c-1.27,2.88-8.58,9.22-18.57,13.1"/><path d="M65.59,74.82c0.06,0.46,0.14,1.18-0.13,1.83c-1.57,3.87-11.38,11.32-23.68,16.52"/><path d="M83.04,58.4c0.03,0.25,0.07,0.66-0.07,1.03c-0.84,2.17-5.68,6.92-12.29,9.83"/><path d="M70.38,70.93c3.38,2.78,16.6,15.5,21.85,18.66c1.3,0.79,2.31,1.32,3.55,1.59"/></svg>