<svg><path d="M13.78,36.5c0.37,0.23,2.55,0.38,3.53,0.29c4.21-0.38,17.78-2.07,24.54-3.2c0.98-0.16,2.3-0.23,2.91,0"/><path d="M28.86,14.5c0.91,0.47,2.54,2.25,2.54,4.42c0,0.95-0.12,68.75-0.3,74.58"/><path d="M30.94,39.28c-5.98,15.91-9.31,22.63-18.58,36.56"/><path d="M34.47,45.9c2.37,1.59,7.78,8.1,9.28,11.85"/><path d="M48.91,41.53c1.1,0.69,2.46,0.51,3.44,0.37c9.19-1.35,31.14-3.91,35.53-4.16c4.37-0.25,4.63,2.06,4.47,5.26c-0.41,8.46-7.16,41.28-12.33,47.23c-5,5.75-6.38,0.31-7.52-0.69"/><path d="M69.43,14.18c0.82,1.82,0.93,3.11,0.86,5.69C69.75,38,62.25,74.75,44.89,91.65"/></svg>