<svg><path d="M35.33,18.25c0.08,1.16,0.09,2.19-0.3,3.3c-3.18,9.12-7.64,16.58-15.78,23.99"/><path d="M32.88,34.02c1.77,0.57,4.19,0.39,6,0.12c9.58-1.46,23.21-3.72,33.25-4.74c2.14-0.22,4.49-0.21,6.59,0.2"/><path d="M17.94,54.5c3.45,0.97,6.81,0.56,10.33,0.03c13.49-2.01,36.72-5.03,51.36-6.28c3.01-0.26,6.1,0,9.06,0.5"/><path d="M53.16,12.25c0.98,0.98,1.42,2.75,1.42,4.5c0,12.49-0.06,49.56-0.08,72.5c0,2.77,0,5.33,0,7.62"/><path d="M51.25,52.25c0,1.5-1.06,3.01-2.18,4.48C41.04,67.35,28.62,79.12,15,86"/><path d="M55.5,52.25c5.85,5.85,19.07,18.73,28.12,26.04c2.99,2.41,5.78,4.33,9.13,6.21"/></svg>