<svg><path d="M13.03,37.47c1.85,0.78,4.24,0.79,5.73,0.58c6.5-0.92,17.78-2.35,23.88-3.35c1.29-0.21,3.37-0.57,4.63-0.33"/><path d="M33.11,14.75c1.19,1.19,1.54,3.12,1.54,4.67c0,0.7-0.02,51.65-0.02,70.33c0,3.41,0,5.75,0,6.5"/><path d="M33.94,38.03c0,1.97-1.49,5.74-2.19,7.32c-4.9,11.05-10.06,18.88-18.39,29.98"/><path d="M37.62,45.5c2.83,1.67,7.47,7.38,9.88,11.75"/><path d="M48.67,25.96c2.12,0.81,5.42,0.6,7.59,0.32c10.86-1.4,24.11-2.92,33.99-3.39c2.11-0.1,4.25-0.19,6.33,0.28"/><path d="M66.56,27.3c0.44,0.95,0.67,2.11-0.03,3.68c-2.77,6.15-4.27,8.65-7.99,15.46c-1.7,3.12-1.04,4.07,2.93,3.43c4.55-0.73,15.89-2.83,21.74-3.66c5.04-0.71,6.04,1.41,5.01,6.42C85.48,66,82.25,78.38,75.69,90.55c-4.45,8.27-7.14,0.84-8.81-1.05"/></svg>