<svg><path d="M14.28,37.47c1.28,0.89,4.97,0.37,6.36,0.13c6.66-1.16,19.23-3.51,25.91-4.72c1.77-0.32,4.5-0.47,6.21,0.24"/><path d="M35.61,14.25c1.01,1.01,1.54,2.62,1.54,4.67c0,0.77,0.06,47.95,0.06,70.33c0,4.79-0.05,7.54-0.08,8.62"/><path d="M36.44,36.28c0,1.72-0.85,4.21-1.49,5.56c-5.32,11.33-10.7,19.65-21.59,31.24"/><path d="M40.88,46.62c3.26,1.88,8.62,7.98,11.38,11.62"/><path d="M67.31,12.63c1.09,1.09,1.51,2.74,1.51,4.5c0,0.59,0.02,50.89,0.01,71.62c0,5.28,0,8.68-0.01,8.88"/><path d="M72.75,41.25c7.5,4.25,17.5,12,22,20"/></svg>