<svg><path d="M12.03,37.72c1.85,0.41,3.89,0.4,5.14,0.36c5.46-0.2,17.7-1.87,23.61-2.98c1.85-0.35,3.23-0.47,4.74-0.23"/><path d="M30.86,14.5c1.13,1.13,1.54,2.88,1.54,4.92c0,6.18,0.02,50.73-0.04,69.83c-0.01,2.78-0.01,5.01-0.01,6.5"/><path d="M31.44,38.28c0,1.72-0.44,4.3-0.93,5.47c-5.38,13-10.13,20.75-17.15,30.34"/><path d="M34.97,49.4c2.73,1.43,7.22,6.08,9.53,8.85"/><path d="M54,25.51c1.06,1.06,1.39,2.74,1.38,4.52C55.25,58.5,55,76,41,92.65"/><path d="M56.15,27.94c7.22-1.44,11.89-2.37,16.17-3.1c4.93-0.84,5.62,1.19,5.09,4.83c-2.29,15.83-3.46,35.46-3.46,51.83c0,5.5,1.8,7.94,11.33,7.94c10.22,0,10.99-1.94,10.99-9.38"/></svg>