<svg><path d="M12.28,35.72c0.35,0.24,2.39,0.41,3.31,0.31c3.94-0.41,19.62-1.21,25.95-2.41c0.92-0.17,2.15-0.24,2.73,0"/><path d="M27.86,14c0.91,0.47,2.54,3,2.54,4.92c0,0.95-0.12,71.75-0.3,77.58"/><path d="M29.94,38.78c-5.5,16.45-8.56,23.41-17.08,37.81"/><path d="M32.47,45.9c2.37,1.59,6.28,6.76,8.28,9.85"/><path d="M49.17,21.85c0.77,0.25,3.41,0.27,4.19,0.23c5.32-0.29,23.84-2.15,32.91-2.64c1.28-0.07,3.96,0.21,4.6,0.34"/><path d="M45.88,50.78c1.29,0.46,3.67,0.59,4.96,0.46C63,50,77.99,48.75,92.1,48.33c2.16-0.06,3.45,0.22,4.53,0.45"/><path d="M67.81,23.63c0.54,0.51,1.79,2.12,1.79,4.83c0,5.29-0.07,62.56-0.18,68.92"/></svg>