<svg><path d="M21.25,30.86c3.88,0.76,7.14,0.59,10.64,0.08c12.24-1.77,33.88-3.9,47.87-5c3.18-0.25,6.09-0.18,9.24,0.45"/><path d="M53,11.5c1.25,1.25,1.5,2.62,1.5,4.25c0,6.03,0.03,27.29,0.02,38.5c0,3.94-0.01,6.64-0.02,7"/><path d="M51.75,29.5c0,1.25-1.13,3.57-2.67,5.51C40.74,45.47,29.75,55.75,13.75,63"/><path d="M55.25,29.25c4.75,4.12,20.1,16.72,28.92,23.43c2.05,1.56,5.33,3.69,8.33,4.82"/><path d="M32.5,69.49c1.09,1.03,1.58,2.02,1.93,3.49c1.2,5.15,2.37,11.33,3.44,18.02c0.36,2.26,0.69,4.45,0.97,6.46"/><path d="M34.67,71.08c12.29-1.66,29.1-3.47,36.72-4.33c3.84-0.43,5.73,1.26,4.93,5.26C75.16,77.83,74,84.12,72.1,91.96"/><path d="M39.8,95.4c8.39-0.74,18.83-1.72,28.96-2.33c2.19-0.13,4.37-0.24,6.51-0.33"/></svg>