<svg><path d="M14.78,37.72c2.47,0.66,5.37,0.35,6.85,0.14c6.65-0.93,17.33-2.94,23.04-4.03c1.27-0.24,2.96-0.45,4.35-0.21"/><path d="M33.11,13.25c1.26,1.26,1.54,3.5,1.54,5.42c0,0.63-0.01,47.37-0.02,67.7c0,5.36,0,8.88,0,9.25"/><path d="M33.69,37.78c0,1.97-1.32,5.56-1.98,6.94C26.76,55.07,23.5,62,13.61,74.59"/><path d="M37.22,45.15c3.9,2.98,8.4,7.48,11.53,12.6"/><path d="M82.7,13.25c0.08,0.67-0.21,1.58-0.66,2.46c-2.96,5.79-10.92,16.16-27.02,24.45"/><path d="M86.98,37.61c0.1,0.76-0.1,1.85-0.69,2.78c-4.67,7.48-14.04,20.23-32.71,29.03"/><path d="M97.53,62c0.12,0.89-0.21,1.95-0.98,3.08C89,76.25,74.75,89.25,55.07,99"/></svg>