<svg><path d="M22,26.36c3.16,1.03,6.42,0.51,9.65,0.21C42.66,25.55,61.5,23,77.38,22.25c3.39-0.16,6.56-0.01,9.87,0.66"/><path d="M52.5,9.75C53.56,10.81,54,12.12,54,14c0,7.69,0,16.46,0,23.25c0,2.48,0,4.69,0,6.5"/><path d="M50.25,25.25c0,1.12-1.53,3.22-3.02,4.98C39.16,39.79,24.78,51.79,13.5,56.5"/><path d="M55.25,25.75C59.4,28.4,75.39,40.02,84.34,45.8c2.89,1.86,5.53,3.2,9.41,4.2"/><path d="M38.83,49.08c2.39,1.56,4.67,1.59,7.4,1.26c5.58-0.68,13.39-2.58,17.14-3.58c2.5-0.67,4.81,1.29,2.33,3.72C62.12,54,57.47,58.17,54,61"/><path d="M51.46,61.29C56.88,65.5,60.88,84,55.3,95.68c-2.79,5.84-7.05,1.07-8.66-0.85"/><path d="M15.14,72.68c3.36,1.07,6.84,0.95,12.98,0.19c16.38-2,39.31-3.98,52.75-4.55c3.64-0.15,8.5-0.46,12.23,0.89"/></svg>