<svg><path d="M12.28,41.97c2.32,0.33,4.65,0.22,6.97-0.03c7.63-0.81,13.14-1.66,19.01-2.65c1.48-0.39,2.98-0.54,4.51-0.43"/><path d="M29.86,16c1.19,1.19,1.29,2.75,1.29,4.42c0,0.77,0.07,44.65,0.09,65.08c0.01,4.93,0.01,8.49,0.01,9.75"/><path d="M30.44,42.03c0,1.72-0.79,3.87-1.4,5.29c-4.82,11.29-8.32,17.59-16.43,28.77"/><path d="M34.72,51.9C37.5,54,41,57.75,42.88,62.29"/><path d="M49.51,38.26c3.23,0.47,6.46,0.32,9.74-0.15c11.38-1.62,19.13-2.49,28.12-3.15c2.14-0.16,4.22-0.3,6.32,0.06"/><path d="M69.73,14.93c1.23,1.23,1.16,2.7,1.22,4.88C72.5,73.25,67.25,78.12,43,95"/><path d="M51.17,50.75c2.63,0.82,19.37,20.2,32.1,31.98c3.86,3.58,7.94,6.74,12.73,9.02"/></svg>