<svg><path d="M13.78,40.47c2.47,0.66,4.32,0.42,6.49,0.1c5.19-0.85,14.31-2.24,20.63-2.63c1.21-0.07,2.42-0.1,3.62-0.08"/><path d="M31.36,13.75c0.94,0.94,1.04,2.25,1.04,4.92c0,0.75-0.01,43.7-0.02,65.08c0,5.65,0,9.79,0,11.25"/><path d="M31.94,40.03c0,2.09-1.33,5.47-1.96,6.94c-4.78,11.19-8.54,18.24-16.62,29.37"/><path d="M36.22,50.15c2.37,1.59,6.03,6.6,7.41,10.64"/><path d="M66.76,15.5c0.06,1.25-0.13,2.44-0.59,3.56c-3.8,9.31-9.8,20.31-17.18,29.06"/><path d="M60.75,37.37c2.28,0.44,4.53,0.39,6.75-0.12c7.81-1.76,14.4-3.38,20.61-4.25c4.13-0.58,6.1,2.05,5.4,6.75c-2,13.32-5.63,33.1-13.59,46.15c-4.04,6.63-7.39,8.01-13.16,2.46"/><path d="M53.02,59.9c1.22,0.35,2.23,0.55,3.45,0.5c3.64-0.15,8.49-1,10.98-1c1.87,0,2.25,0.1,3.87,0.5"/></svg>