<svg><path d="M24.25,26.39c2.62,0.36,5.6,0.27,8.01-0.02c10.76-1.28,30.24-3.62,41.86-4.68c3.13-0.28,6-0.32,8.13,0.06"/><path d="M27.25,41.57c0.9,0.9,1.56,2.06,1.79,3.26c0.94,4.9,1.7,10.07,2.38,14.91c0.19,1.37,0.38,2.71,0.56,4.01"/><path d="M29.74,43.64C42.5,41.75,69.5,39,76.33,38.49c2.93-0.22,4.77,2.45,4,4.64C78.25,49,77.75,51,76.11,55.49"/><path d="M32.92,60.93c10.7-1.02,28.73-3.19,40.46-4.23c1.92-0.17,3.67-0.31,5.19-0.41"/><path d="M52,11.25c1.12,1.12,1.5,2.62,1.5,4c0,0.88,0,55.63,0,76.5c0,3.52,0,6.08,0,7.25"/><path d="M50.38,60c0,1-0.1,1.92-0.84,3.1C42.5,74.38,28.88,86.88,16.5,92.5"/><path d="M56,60.5c4.35,3.21,20.69,16.75,28.89,23.01c2.73,2.08,5.36,3.74,8.49,4.62"/></svg>