<svg><path d="M13.78,34.47c2.22,0.53,4.65,0.26,6.35,0.05c6.15-0.75,18.88-2.61,25.39-3.65c1.09-0.17,2.56-0.24,3.24,0"/><path d="M34.02,13.5c1.18,1.18,1.86,2.75,1.86,4.92c0,0.82-0.08,52-0.1,72.33c0,3.46-0.01,6.01-0.01,7.25"/><path d="M34.75,34.38c0,1.62-0.72,3.77-1.13,4.87c-4.87,13-9.99,23.25-20.1,33.59"/><path d="M38.5,44.38c3.13,2.12,8.29,9.01,10.93,13.12"/><path d="M52.75,35.75c2.5,0.25,4.25,0.26,6.5,0.01c8.45-0.93,22.25-3.01,32.32-4.26c2.21-0.27,3.54-0.25,4.93,0"/><path d="M78.02,12.83c1.01,1.01,1.51,2.54,1.51,4.27c0,14.56-0.01,66.41-0.01,71.37c0,14.53-6.39,5.66-8.71,3.25"/><path d="M81.75,42c0,1.5-0.6,2.98-1.5,4c-8,9-19.37,21.56-35.25,31"/></svg>