<svg><path d="M13.03,37.9c0.37,0.26,2.57,0.44,3.55,0.33c4.23-0.43,19.45-1.28,26.26-2.56c0.98-0.18,2.31-0.26,2.93,0"/><path d="M30.36,14.5c0.91,0.47,2.04,2.25,2.04,4.42c0,0.95-0.12,70.75-0.3,76.58"/><path d="M32.19,39.53c-6.55,15.15-10.44,23.72-20.33,34.81"/><path d="M34.97,47.15c2.87,2,7.6,7.23,10.03,11.1"/><path d="M51.71,27.84c1.79,0.91,3.75,1.07,5.98,0.86C65,28,86.88,25.09,88.25,25c3.46-0.23,4.77,2.28,3.61,5.45c-1.11,3.05-3.36,12.3-4.36,18.3"/><path d="M56.25,51.5c9.25-1,26.5-2.25,34.09-2.92"/><path d="M53.75,49c1.16,1.13,1.75,2.48,2.05,3.92c0.42,2.06-0.22,23.47-0.22,25.83c0,10.75,1.92,14.01,17.9,14.01c18.77,0,21.02-2.51,21.02-10.68"/></svg>