<svg><path d="M13.03,40.97c1.19,0.83,4.61,0.43,5.97,0.27c5.23-0.6,15.93-1.85,21.77-2.77c1.55-0.25,3.48-0.34,5-0.1"/><path d="M32.11,14.75c1.26,1.26,1.54,2.5,1.54,5.17c0,0.79-0.02,49.2-0.02,69.58c0,4.07,0,7.02,0,8.25"/><path d="M32.69,41.28c0,1.34-0.62,3.33-1.17,4.54C25.99,58.05,21,65.12,12.11,76.84"/><path d="M36.6,47.15c2.28,2.35,5.78,7.48,7.15,11.6"/><path d="M49.63,51.42c2.12,0.71,4.98,0.56,7.27,0.25c7.77-1.04,16.29-2.17,26.1-2.62c2.39-0.11,4.78-0.31,7.13,0.24"/><path d="M68.17,14.87c1.17,1.17,1.52,2.27,1.52,4.14c0,12-0.07,60.88-0.07,69.5"/><path d="M43.13,90.73c3.09,1.1,6.71,0.47,9.88,0.21c14.59-1.22,22.53-2.12,35.62-2.72c3.17-0.15,6.17,0.2,9.25,0.86"/></svg>