<svg><path d="M12.78,36.22c0.37,0.24,2.55,0.41,3.53,0.31c4.21-0.41,17.78-1.71,24.54-2.91c0.98-0.17,2.3-0.24,2.91,0"/><path d="M28.86,16c0.91,0.47,2.04,2,2.04,4.42c0,0.95-0.12,67.25-0.3,73.08"/><path d="M30.44,37.78C25.75,53.5,20.5,63,12.11,74.59"/><path d="M32.97,46.4c2.73,1.47,7.22,6.25,9.53,9.1"/><path d="M43.5,42.58c1.5,0.42,3.23,0.98,4.69,0.78c11.56-1.6,25.81-3.85,40.72-4.76c1.87-0.11,3.18-0.15,4.42-0.01"/><path d="M59.99,13.5c1.34,1.8,1.56,2.31,1.84,6.18c2.34,32.46,11.38,62.66,27.8,74.77c5.27,3.89,4.52,0.77,3.85-7.21"/><path d="M75.24,19.21c3.13,1.68,8.13,5.52,9.59,8.39"/></svg>