<svg><path d="M13.5,38.46c0.56,0.16,2.24,0.63,3.71,0.5c5.2-0.47,18.69-2.75,24.26-3.06c1.48-0.08,2.6,0.03,3.53,0.19"/><path d="M29.5,14.5c1.25,0.5,2,2.25,2.25,3.25s0,72.25-0.25,78.5"/><path d="M31.75,38.5C28.37,50.37,18.29,70.28,11.25,77"/><path d="M34.25,45.75c3.31,2.1,6.86,6.32,8.75,10"/><path d="M47.06,24.53c1.1,0.5,3.13,0.58,4.23,0.5c11.49-0.83,25.52-3.77,40.47-3.74c1.84,0,2.94,0.24,3.86,0.49"/><path d="M68.32,36.74c4.91,2.99,14.93,6.51,20.55,7.48c3.34,0.58,3.23,2.14,2.62,4.4c-4.18,15.45-7.99,30.14-14.86,40.84c-5.58,8.69-7.63,0.23-8.99-0.51"/><path d="M69.18,26.24c0.08,1.46,0.26,3.77-0.16,5.85C66.25,45.75,56.75,74,41.1,88.03"/></svg>