<svg><path d="M20.75,28.11c1.75,0.57,3.74,0.75,5.75,0.57C36.75,27.75,67.5,25,83,23.9c2-0.14,3.25,0.1,5.25,0.5"/><path d="M52.25,10.25c1.25,0.5,2.25,2.22,2.25,3.25c0,10.5,0,41.25-0.25,47.5"/><path d="M52.25,26.75C45.5,39,30.75,53,13,59.5"/><path d="M54.5,26.5c4.78,3.86,27.27,23.24,32.47,27.04c1.76,1.29,3.27,1.84,5.03,2.21"/><path d="M29.5,67.37c0.9,0.5,3.84,0.52,4.77,0.51c9.23-0.13,32.48-2.88,40.41-3.54c1.39-0.12,2.66,0.1,3.82,0.51"/><path d="M52.62,68.75c1.25,1.56,1.25,2.5,1.25,3.75c0,8.76-0.04,6.74-0.04,21.75"/><path d="M16.5,95.96c0.92,0.32,4.2,0.65,5.75,0.51C39,94.91,70.75,94.16,86,93.69c2.5-0.08,5.5,0.53,6.75,1.03"/></svg>