<svg><path d="M12.78,39.72c0.35,0.24,2.39,0.41,3.31,0.31c3.94-0.41,18.12-2.21,24.45-3.41c0.92-0.17,2.15-0.24,2.73,0"/><path d="M27.36,17.5c0.91,0.47,2.54,2.5,2.54,4.42c0,0.95-0.12,67.25-0.3,73.08"/><path d="M29.44,43.28c-5.34,14.93-8.31,21.24-16.58,34.31"/><path d="M33.22,47.9c2.73,1.55,7.22,6.59,9.53,9.6"/><path d="M68.24,19.5c0.76,0.47,2.51,2.5,2.51,4.49c0,10.76,0.25,55.26,0.25,63.18"/><path d="M50.99,51.21c0.76,0.47,1.63,2.98,1.51,3.94c-0.5,4.23-2,21.6-3.5,31.88c-0.31,2.15,0.63,3.41,2.5,2.97c9.5-2.24,33-4.14,42.5-4.4"/><path d="M92.74,48.63c0.76,0.48,1.51,3.53,1.51,4.49c0,7.38-0.25,21.12-0.25,34.84"/></svg>