<svg><path d="M12.28,41.22c2.2,0.35,4.4,0.42,6.62,0.19c5.37-0.63,14.51-2.26,20.01-3.24c1.1-0.3,2.47-0.15,3.61-0.05"/><path d="M29.61,16c1.13,1.13,1.54,2.62,1.54,4.67c0,0.77-0.04,44.71-0.05,64.83c0,4.58,0,7.93,0,9.25"/><path d="M30.94,41.03c0,1.97-0.78,5.24-1.39,6.61c-4.88,11.13-8.84,17.6-17.19,27.69"/><path d="M34.22,49.9c2.37,1.48,6.15,6.73,7.66,10.14"/><path d="M61.75,15.39c0,0.86-0.19,2.04-0.58,3.09C57.38,28.62,53.75,37,46.86,47.28"/><path d="M58.54,33.75c1.78,0.31,3.56,0.04,5.33-0.31c5.17-0.72,13.38-2.57,20.77-3.89c1.97-0.35,3.74-0.3,5.9-0.14"/><path d="M47.75,57.38c3.04,0.53,6.06,0.28,9.14-0.03c9.6-0.97,20.48-2.22,33.23-3.09c2.63-0.18,5.26,0.07,7.87,0.44"/><path d="M70.32,36.02c1.02,1.02,1.26,2.11,1.26,3.36c0,0.65-0.03,29.44-0.07,45.88c-0.01,5.43-0.03,9.54-0.05,10.88"/></svg>