<svg><path d="M12.28,43c1.97,0.25,4.92,0.12,6.5-0.09c6.04-0.82,17.17-3.08,23.01-4.44c0.91-0.21,2.4-0.23,2.98,0"/><path d="M31.61,15c1.32,1.32,1.79,3.12,1.79,4.52c0,0.79-0.04,50.83-0.05,68.98c0,2.98,0,5.1,0,6"/><path d="M32.44,41.66c0,1.09-0.47,2.56-0.93,3.42c-5.94,10.93-9.9,16.34-19.65,26.72"/><path d="M36.25,51.25c2.72,1.35,7.2,5.73,9.5,8.35"/><path d="M57.37,28.25c0.19,0.59,0,1.76-0.25,2.46c-1.79,5.08-4.62,11.66-10.37,17.54"/><path d="M67.77,23.43c3.58,1.6,15.48,18.28,21.92,22.25c2.49,1.54,3.38,2.36,5.8,2.86"/><path d="M66.22,55.83c0.28,0.92,0.12,2.28-0.26,3C60.73,68.58,57,74.5,48.6,84.71c-1.89,2.3-0.92,4.41,1.99,3.57c9.16-2.65,22.16-6.4,32.77-9.2"/><path d="M78.27,70.95c4.37,3.64,9.86,13.05,11.89,20.12"/></svg>