<svg><path d="M30.63,25.23c2.36,0.62,4.86,0.47,7.25,0.22c8.24-0.86,22.7-2.7,32.4-3.57c2.38-0.21,4.51-0.14,6.85,0.22"/><path d="M26.77,37.86c1.03,1.03,1.78,2.05,2.07,3.44c0.86,4.14,3.61,16.02,4.97,21.91c0.43,1.87,0.72,3.14,0.76,3.36"/><path d="M29.55,39.31c14.7-2.12,34.45-4.37,48.18-5.5c2.89-0.24,4.02,2.01,3.49,4.2c-1.33,5.48-2.84,12.21-5.27,19.87c-0.52,1.65-1.08,3.3-1.7,4.94"/><path d="M32.25,51.07c8.12-0.88,37.75-4.12,45.57-4.4"/><path d="M35.76,63.99c8.99-1.05,28.37-2.68,38.3-3.23"/><path d="M51.25,12.32c1.5,1.5,2.25,3.5,2.25,5.25c0,4.5,0.06,55.21-0.14,75.75c-0.04,3.7-0.07,5.29-0.11,6.25"/><path d="M51.62,63.94c-0.24,1.91-0.81,2.76-1.27,3.45c-6.59,9.83-20.19,21.12-31.6,26.42"/><path d="M55,64.44c7.5,7.2,21.77,17.49,29.78,22.16c2.81,1.64,6.1,3.51,9.34,4.09"/></svg>