<svg><path d="M13.78,37.72c0.35,0.24,2.39,0.41,3.31,0.31c3.94-0.41,18.62-1.71,24.95-2.91c0.92-0.17,2.15-0.24,2.73,0"/><path d="M29.36,15c0.91,0.47,2.04,2.5,2.04,4.92c0,0.95-0.12,70.75-0.3,76.58"/><path d="M30.94,41.28C25.44,56,22.38,62.21,13.86,75.09"/><path d="M34.47,47.9c2.23,1.77,5.9,6.42,7.78,9.85"/><path d="M49.51,16.09c1.27,1.05,3.99,1.68,5.43,1.42c2.85-0.52,25.58-3.74,28.58-4.26c3-0.52,4.1,2.27,2.24,3.92C82,20.5,72.5,29.25,68.09,32.56"/><path d="M60,26.75c2.89,1.47,10.39,7.14,11.75,11"/><path d="M44.67,44.61c0.98,0.65,2.84,1.88,6.84,1.17c4-0.71,33.03-4.35,36.27-4.51C98,40.75,91,47.75,85.46,52.75"/><path d="M67.76,46.75c1.62,1.02,2.82,2.38,2.82,4.41c0,2.04-0.29,34.35-0.31,38.09c-0.03,8.25-5.08,1.68-7.5-0.02"/></svg>