<svg><path d="M28.99,14.56c0.36,0.45,0.96,2.24,1.07,2.83c1.19,6.12,2.68,17.4,3.7,26.08"/><path d="M30.69,16.68c12.71-1.17,34.98-3.16,44.47-4.14c3.48-0.36,5.33,0.67,5.09,3.19c-0.5,5.26-2.28,16.96-3.87,24.8"/><path d="M32.56,28.21c4.14-0.46,41.5-3.31,44.92-3.5"/><path d="M33.42,40.69C44.5,39.5,62.5,38,76.38,37.79"/><path d="M18.25,59.73c1.98,0.46,4.23,0.61,6.51,0.46c11.6-0.76,45.26-3.41,62.8-4.3c2.26-0.11,3.68,0.08,5.94,0.41"/><path d="M52.84,41.25c1.02,0.5,1.83,2.22,1.83,3.25c0,10.5,0,49.25-0.2,55.5"/><path d="M51.75,58.75C45,72,33,86.25,13.5,93"/><path d="M55.5,58.5c4.78,4,27.27,24.04,32.47,27.97c1.76,1.33,3.27,1.9,5.03,2.28"/></svg>