<svg><path d="M13.78,39.22c0.35,0.24,2.39,0.41,3.31,0.31c3.94-0.41,16.12-2.21,22.45-3.41c0.92-0.17,1.15-0.24,1.73,0"/><path d="M27.36,17c0.91,0.47,2.54,2.5,2.54,4.92c0,0.95-0.12,66.75-0.3,72.58"/><path d="M29.44,42.28c-5.34,14.6-8.31,20.78-16.58,33.56"/><path d="M32.47,48.65c3.22,1.79,7.69,7.92,10.41,11.39"/><path d="M51.93,27.71c13.43-2.32,28.65-3.98,36.04-4.75c2.71-0.28,3.36,2.62,3.17,4.32c-0.69,6.22-1.79,13.94-3.75,24.93"/><path d="M68.52,26.93c0.54,0.41,1.1,3.01,1.09,3.83c-0.11,6.49-0.86,11.74-1.49,20.36"/><path d="M51.7,53.65c3.78-0.45,28.3-3.9,35.99-3.65"/><path d="M50.63,25.41c0.65,1.28,1.16,2.79,1.2,4.76c0.17,8.81-0.26,35.53-0.26,43.15c0,16.93,5.93,19.18,21.75,19.25c11.04,0.05,20.41-2.36,20.96-2.85c2.4-2.15,1.75-5.12,1.96-8.89"/></svg>