<svg><path d="M19.5,26.98c1.98,0.46,4.23,0.61,6.51,0.46c11.6-0.76,39.76-2.91,57.3-3.8c2.26-0.11,3.68,0.08,5.94,0.41"/><path d="M52.59,11c1.02,0.5,1.83,2.22,1.83,3.25c0,10.5,0,37.75-0.2,44"/><path d="M52,26c-8.75,12.5-19.25,23.25-38.75,31"/><path d="M54.75,24.75c5.5,5,27,23.25,34.2,26.81c2.02,1,3.45,1.82,5.3,2.19"/><path d="M29.99,64.86c0.34,0.51,0.9,2.56,1,3.24c1.11,7,3.01,19.43,3.96,29.36"/><path d="M31.08,66.79c11.9-1.34,34.77-2.62,43.65-3.74c3.26-0.41,4.99,0.77,4.77,3.66c-0.47,6.03-3.5,19.79-5.62,28.4"/><path d="M33.34,79.5c3.88-0.52,39.91-2.5,44.57-2.51"/><path d="M34.64,94.79c10.38-1.37,26.24-2.08,39.24-2.32"/></svg>