<svg><path d="M20.25,30.61c1.8,0.57,3.85,0.75,5.92,0.57c10.56-0.93,41.2-3.68,57.17-4.78c2.06-0.14,3.35,0.1,5.41,0.5"/><path d="M53.25,11.75C54,12.75,55,14.47,55,15.5c0,10.5,0,47.75-0.25,54"/><path d="M53.75,29.25c-7,11.75-22,27-38.5,33"/><path d="M54.5,29c5.75,6,25,22.25,32.83,26.77c1.93,1.11,3.36,1.86,5.17,2.23"/><path d="M25.19,80c0,6.16-7.73,15.24-9.75,17"/><path d="M40.96,78.33c2.47,3.46,4.82,12.99,5.44,18.38"/><path d="M61.57,75.83c3.24,3.38,8.37,13.88,9.18,19.13"/><path d="M81.46,75.58C86.24,79,93.8,89.65,95,94.97"/></svg>