<svg><path d="M12.28,38.72c0.35,0.24,2.39,0.37,3.31,0.31c4.42-0.28,17.12-2.71,23.45-3.91c0.92-0.17,1.15-0.24,1.73,0"/><path d="M27.86,15.5c0.91,0.47,2.04,1.75,2.04,4.42c0,0.95-0.12,68.25-0.3,74.08"/><path d="M29.44,39.78c-5.34,15.15-8.31,21.55-16.58,34.81"/><path d="M33.47,48.4c2.78,2.6,5.53,6.35,7.66,10.14"/><path d="M48.73,47.06c3.83-0.62,9.19-1.83,12.53-2.88c0.98-0.31,2.6-0.3,3.11-0.12"/><path d="M47.37,16.83c0.69,1.12,1.29,2.3,1.29,3.84c0,4.17-0.72,57.33-0.72,63.53c0,3.8,0.82,5.3,4.28,2.64c4.92-3.78,8.31-5.61,11.26-7.6"/><path d="M93.56,30.94c0.23,0.86,0.19,2.71-0.78,3.77C87.5,40.5,80.75,45,72.28,50.49"/><path d="M70.29,15c0.8,1.18,1.49,3.06,1.49,4.55c0,3.93-0.37,54.54-0.37,59.15c0,12.54,2.09,13.55,12.89,13.55c11.95,0,11.89-4.51,11.89-12.57"/></svg>