<svg><path d="M12.78,37.87c0.36,0.18,2.51,0.31,3.48,0.24c4.14-0.31,17.99-1.68,24.65-2.6c0.96-0.13,2.26-0.18,2.87,0"/><path d="M27.86,14c0.91,0.47,2.54,2.25,2.54,4.92c0,0.95-0.12,70.75-0.3,76.58"/><path d="M30.44,39.28c-6.23,16.56-9.69,23.56-19.33,38.06"/><path d="M33.47,45.9c2.12,1.59,6.49,6.76,8.28,9.85"/><path d="M46.11,23.63c0.88,0.52,3.75,0.58,4.65,0.55c10.64-0.4,28.62-2.22,38.62-2.76c1.36-0.07,2.6,0.1,3.73,0.54"/><path d="M67.61,26.36c1.74,2.33,1.74,3.73,1.74,5.6c0,13.06-0.02,36.71-0.02,57.64"/><path d="M49.14,55.87c0.79,0.52,3.41,0.76,4.23,0.73c8.63-0.35,22.47-1.23,32.41-2.15c0.99-0.09,3.17-0.21,4.65,0.24"/><path d="M39.59,90.89c1.47,0.36,4.06,0.72,6.38,0.5c14.93-1.4,30.07-2.65,47.72-2.37c1.84,0.03,4.04,0.4,4.96,0.78"/></svg>