<svg><path d="M13.28,38.47c1.85,0.53,5.19,0.34,6.63,0.14c6.11-0.85,17.54-2.67,23.49-3.69c1.25-0.22,3.23-0.54,4.37-0.29"/><path d="M32.86,13.75c1.13,1.13,1.54,2.5,1.54,4.67c0,4.25,0.03,45.99,0.03,69.7c0,3.27,0,6.19,0,8.62"/><path d="M33.19,37.03c0,1.97-0.43,3.47-1.1,5.17c-4.46,11.29-8.96,19.54-18.98,33.13"/><path d="M37.38,44.75c2.33,1.7,6.16,7.21,8.12,10.5"/><path d="M80.24,13.5c-0.12,1.12-0.55,1.77-1.47,2.53c-5.15,4.22-12.15,8.72-21.11,12.51"/><path d="M54.32,28.19c0.94,0.94,1.3,2.37,1.3,4.39c0,13.05,1.01,41.55-12.67,55.9"/><path d="M58.58,45.69c1.3,0.06,2.66-0.16,3.83-0.39c5.87-1.13,19.63-3.4,28.97-5.3c2.08-0.42,4.5-0.88,6.49-0.54"/><path d="M78.6,45.32c1.17,1.17,1.7,2.18,1.7,4.02c0,0.76,0.03,26.2,0.05,39.91c0.01,4.72,0.01,8.05,0.01,8.5"/></svg>