<svg><path d="M13.5,38.19c0.73,0.2,2.92,0.17,4.85,0c6.79-0.59,14.9-1.69,22.05-2.46c1.93-0.21,3.89-0.09,5.11,0.11"/><path d="M30,14.5c1.25,0.5,2,2.25,2.25,3.25s0,71.75-0.25,78"/><path d="M32.25,39.5C28.66,51.99,17.97,72.93,10.5,80"/><path d="M35,47.75c3.22,2.21,6.66,6.63,8.5,10.5"/><path d="M48.88,18.26c0.94,0.3,3.66,0.33,4.6,0.3c9.77-0.34,26.52-2.31,38.36-2.9c1.56-0.08,3.5,0.14,4.29,0.29"/><path d="M51.85,35.88c1.15,0.37,2.89,1.05,5.15,0.78c11.75-1.4,26.14-3.23,33.5-3.9c1.99-0.18,4,1.25,3.25,4c-1.33,4.87-1.75,8.5-3.5,16.75"/><path d="M56.25,56.25c1.25,0,2.77-0.05,4.5-0.14c9.74-0.49,22.02-2.11,32-2.11"/><path d="M55.03,37.18c0.04,1.39,0.3,2.54,0.31,4.55C55.46,66.89,50.25,86,40.5,95"/></svg>