<svg><path d="M13.28,39.22c2.1,0.41,5.1,0.49,6.6,0.28c7-1,16.25-1.75,23.66-2.88c0.92-0.14,2.46-0.37,3.73,0"/><path d="M32.36,14c1.07,1.07,1.29,2.75,1.29,4.67c0,4.19,0.04,59.08,0.04,69.58c0,4.1-0.03,7.49-0.06,8.5"/><path d="M32.94,39.28c0,1.72-0.96,3.93-1.76,5.79c-4.67,10.88-9.55,19.55-18.82,31.02"/><path d="M36.12,46c2.46,1.55,7.55,8.5,9.62,11.5"/><path d="M66.65,12.12c0.6,1.25,0.64,2.27,0.47,3.64c-1.75,13.86-4.75,25.99-16.34,36.84"/><path d="M50.14,25.19c1.99,0.68,4.62,0.33,6.01,0.08c5.09-0.92,16.73-3.59,20.58-4.48c2.78-0.64,4.83,0.13,4.27,3.52c-0.63,3.81-1.13,6.81-1.58,13.46c-0.56,8.2,1.08,9.86,7.9,9.86c7.68,0,9.2-0.86,9.2-6.59"/><path d="M46.75,68.47c2.62,0.53,5.27,0.4,7.25,0.12c11.25-1.59,27.32-3.18,36.38-3.8c2.57-0.18,4.68-0.07,7.12,0.81"/><path d="M69.6,50.55c1.12,1.12,1.42,2.58,1.42,4.31c0,0.55,0.07,25.47,0.08,37.14c0,3.34,0.01,5.59,0,5.88"/></svg>