<svg><path d="M22.25,25.11c1.75,0.57,3.74,0.75,5.75,0.57C38.25,24.75,66.5,23,82,21.9c2-0.14,3.25,0.1,5.25,0.5"/><path d="M52.25,8.75c1.25,0.5,2.25,2.22,2.25,3.25c0,10.5,0,31.75-0.25,38"/><path d="M53.75,24.25c-6.68,9.94-24.6,25.12-38.5,30.75"/><path d="M54,26c5.04,3.24,28.72,19.47,34.2,22.65c1.86,1.08,3.45,1.54,5.3,1.85"/><path d="M42.48,54.98c0.42,0.59-0.03,1.29-0.58,2C37.86,62.16,30.24,69.84,18,74.85"/><path d="M64.75,54.75c5.92,1.2,19.58,9.78,25.5,16.97"/><path d="M53.57,67.18c-0.07,1.32-0.5,2.83-1.02,3.48c-7,8.79-12.79,14.68-22.76,23.45c-2.43,2.13-1.55,4.25,2.34,3.44c10.84-2.25,33.52-6.64,45.26-7.95"/><path d="M67.39,80.15c5.86,3.46,15.15,14.22,16.61,19.6"/></svg>