<svg><path d="M13.03,36.72c0.37,0.24,2.57,0.41,3.56,0.31c4.24-0.41,18.42-2.21,25.24-3.41c0.99-0.17,2.31-0.24,2.94,0"/><path d="M28.86,13.5c0.91,0.47,2.04,3.5,2.04,5.42c0,0.95-0.12,69.75-0.3,75.58"/><path d="M30.44,38.78c-5.1,15.04-8.69,22.72-16.83,34.56"/><path d="M33.47,46.65c2.37,1.7,7.28,8.3,9.28,11.6"/><path d="M52.83,25.12c0.41,0.58,0.82,1.06,1,1.79c1.41,5.75,3.1,21.6,4.07,31.92"/><path d="M54.15,27.55c12.37-1.7,27.55-3.31,33.7-4.05c2.25-0.27,3.39,1.48,2.95,4.17c-1.16,7.08-2.24,19.55-4.22,28.7"/><path d="M57.66,55.8c7.22-0.84,17.59-1.3,28.99-2.07"/><path d="M62.58,66.74c0.05,0.55,0.25,1.48-0.1,2.22C60,74.25,54.25,82.75,45.06,90.22"/><path d="M80.7,67.89c5.6,3.73,14.46,15.33,15.86,21.12"/></svg>