<svg><path d="M11.28,37.22c0.35,0.24,2.39,0.41,3.31,0.31c3.94-0.41,16.12-1.71,22.45-2.91c0.92-0.17,2.15-0.24,2.73,0"/><path d="M25.36,15c0.91,0.47,2.04,2.5,2.04,4.92c0,0.95-0.12,69.75-0.3,75.58"/><path d="M27.44,39.28c-5.34,15.04-8.31,21.4-16.58,34.56"/><path d="M29.47,46.9c2.37,1.59,6.28,5.76,8.28,8.85"/><path d="M56.62,14c0.04,0.77,0.22,2.05-0.08,3.1c-2,6.83-7.45,19.66-14.93,29.63"/><path d="M54.99,29.28c0.94,0.7,2.7,0.71,4.26,0.47c7.75-1.24,22.56-2.88,26.31-3.29c1.78-0.19,4,1.29,3.71,3.89c-1.02,9.16-3.77,24.41-10.35,38.42c-2.08,4.42-5.3,0.75-7.52-2.17"/><path d="M47.53,42.74c1.28,0.94,2.37,0.94,4.25,0.63c3.81-0.63,15.64-1.77,16.8-1.89c1.54-0.16,2.75,1.03,2.2,3.47c-0.16,0.73-1.78,6.55-3.62,13.03"/><path d="M50.74,60.35c4.12-0.45,14.07-1.79,19.93-2.18"/><path d="M50.53,44.11c-0.03,5.43,0.64,33.75,0.64,38.49c0,10.3,2.39,11.58,23.07,11.58c17.28,0,20.4-3.07,20.4-12.89"/></svg>