<svg><path d="M12.03,36.8c0.37,0.26,2.53,0.43,3.5,0.33c4.18-0.43,17.63-1.84,24.34-3.12c0.97-0.18,2.28-0.25,2.89,0"/><path d="M27.86,15c0.91,0.47,2.04,2.5,2.04,4.42c0,0.95-0.12,68.75-0.3,74.58"/><path d="M29.44,39.28c-5.1,15.04-8.94,21.4-16.83,34.56"/><path d="M31.97,48.9c2.78,2.6,7.28,7.6,9.28,11.85"/><path d="M58.71,14.35c0.04,0.77,0.09,2-0.08,3.11C57.61,24,51.74,38.37,43.71,47.17"/><path d="M56.65,31.85c0.91,0.69,3.14,0.67,4.65,0.46c3.95-0.56,25.28-3.29,28.9-3.9c2.74-0.46,3.96,0.6,3.83,3.8c-0.54,14.04-3.79,39.54-9.22,58.17c-1.67,5.72-5.82,3.38-8.84-1.14"/><path d="M51.36,47.17c0.26,0.36,0.53,0.67,0.64,1.12c0.9,3.6,2.61,18.49,3.23,24.95"/><path d="M52.87,49.27c9.63-1.02,16.17-1.98,19.89-2.58c1.36-0.22,2.26,1.03,1.98,3.09c-0.72,5.34-1.98,11.97-3.57,18.58"/><path d="M55.13,70.38c5.87-0.63,10.37-1.13,17.58-1.52"/></svg>