<svg><path d="M15.28,38.73c0.39,0.23,2.7,0.39,3.74,0.3c4.46-0.39,19.37-3.03,26.54-4.17c1.04-0.16,1.3-0.23,1.96,0"/><path d="M32.36,14c0.91,0.47,2.54,2.25,2.54,4.92c0,0.95-0.12,70.25-0.3,76.08"/><path d="M34.44,40.78c-6.29,15.04-10.85,21.4-20.58,34.56"/><path d="M37.97,47.4c2.68,2.03,6.4,7.71,8.66,11.64"/><path d="M71.41,16.5c0.5,1.02,0.68,2.31,0.46,3.15c-1.63,6.18-6.71,17.77-12.18,24.81"/><path d="M53.8,44.76c0.59,1.14,1.19,3.03,1.19,4.55c0,1.51,1.19,33.1,1.19,42.19"/><path d="M55.35,47.5c3.35-0.19,31.07-3.57,34.12-3.89c1.94-0.21,2.73,1.24,2.72,3.63c-0.01,4.08-1.53,30.62-2.16,43.12"/><path d="M55.81,66.47c7.03-0.57,29.92-3.11,35.05-3.11"/><path d="M56.98,88.53c8.41-0.61,23.88-2.06,32.85-2.34"/></svg>