<svg><path d="M13.03,39.97c2.03,0.33,4.08,0.41,6.13,0.23c4.78-0.6,12.68-1.73,18.1-2.67c1.31-0.38,2.65-0.52,4.01-0.41"/><path d="M30.61,15.75c1.19,1.19,1.54,2.5,1.54,4.42c0,0.79,0.07,47.66,0.09,66.95c0,3.96,0.01,6.75,0.01,7.75"/><path d="M31.69,40.78c0,1.59-1.37,5.67-2.13,7.42C24.99,58.78,21.62,64,13.61,74.34"/><path d="M35.72,50.4c2.68,1.84,6.15,5.58,8.41,9.14"/><path d="M66.48,15.24c1.01,1.01,1.57,2.38,1.57,3.47c0,3.59-0.04,7.27-0.04,10.54"/><path d="M48.13,31.24c0,3.62-1.85,11.09-2.92,13.51"/><path d="M48.92,33.11c15.39-2.14,24.53-3.72,39.08-4.27c9.61-0.37,2.5,5.13-0.29,7.8"/><path d="M85.78,45.51c-0.17,1.26-0.81,2.19-1.7,3.07C79.5,53.12,71.88,59.5,62.8,63.62"/><path d="M57.5,40.88c0.93,0.93,1.08,2.12,1.08,3.42c0,1.43-0.08,34.29-0.08,38.7c0,8.67,2.53,10.26,17.28,10.26c15.47,0,17.52-2.76,17.52-13.54"/></svg>