<svg><path d="M15.28,37.72c0.35,0.24,2.39,0.41,3.31,0.31c3.94-0.41,18.12-2.21,24.45-3.41c0.92-0.17,2.15-0.24,2.73,0"/><path d="M29.86,15c0.91,0.47,2.54,2,2.54,3.92c0,0.95-0.12,70.75-0.3,76.58"/><path d="M31.94,40.28c-5.1,15.04-8.94,21.4-16.83,34.56"/><path d="M34.47,45.9c2.37,1.59,8.28,8.76,10.28,11.85"/><path d="M84.11,13.5c0.07,0.4,0.31,1.19-0.15,1.62C77.66,21.05,69.6,25.54,56.3,30.64"/><path d="M53.05,29.79c1.43,1.99,1.44,3.89,1.4,6.06c-0.12,6.54-0.22,8.25-0.22,16.04c0,14.25-3.04,31.87-13.47,41.9"/><path d="M55.78,45.5c2.01,0,3.36-0.11,4.62-0.25c6.95-0.8,21.99-2.61,29.89-3.01c1.27-0.06,3.47-0.13,4.26,0"/><path d="M74.06,47.1c0.94,0.57,1.5,2.59,1.69,3.74c0.19,1.15,0,39.73-0.19,46.91"/><path d="M62.66,58.98c9.38,2.51,24.23,10.31,26.58,14.22"/></svg>