<svg><path d="M26.13,13.25c2.78,1.1,7.17,4.5,7.87,6.21"/><path d="M17.5,28c3,1.12,7.75,4.59,8.5,6.33"/><path d="M20.18,56.68c1.26,0.45,2.57,0.29,3.32-0.63c2.75-3.36,5.5-7.47,8-11.76"/><path d="M58,11.62c0.63,0.63,0.86,1.9,0.78,2.56c-2.15,17.06-6.65,29.69-18.68,39.9"/><path d="M42.42,26.81c1.96,0.56,3.46,0.44,5.46-0.05c5.46-1.34,17.46-5.29,21.15-6.4c2.28-0.69,3.66,0.14,3.06,2.55c-0.74,3.02-2.33,10.24-3.44,14.93c-2.03,8.54,0.47,10.7,10.84,10.7c10,0,11.29-0.91,11.29-6.57"/><path d="M15.67,69.75c3.03,0.99,6.45,0.81,9.58,0.37c17-2.37,37.75-4.25,55.63-5.25c2.97-0.17,5.68-0.11,8.62,0.47"/><path d="M52.22,56.91c1.06,1.06,1.45,2.22,1.45,3.82c0,6.06,0.02,22.23,0.03,33.28c0,2.13,0,4.04,0,5.59"/><path d="M49.29,67.6c0,1.27-0.58,2.39-1.6,3.66C39.88,81,29.38,90.88,17,96.11"/><path d="M54.66,68.09c4.84,3.53,18.59,15.14,27.29,20.86c2.93,1.92,5.68,3.17,8.55,4.34"/></svg>