<svg><path d="M12.28,38.25c0.39,0.23,2.68,0.38,3.71,0.29c4.43-0.38,19.22-2.07,26.33-3.2c1.03-0.16,1.29-0.23,1.94,0"/><path d="M29.36,13.5c0.91,0.47,2.54,2,2.54,4.92c0,0.95-0.12,70.25-0.3,76.08"/><path d="M31.44,39.78c-6.15,15.26-9.57,21.7-19.08,35.06"/><path d="M34.47,48.65c2.68,1.55,6.4,6.88,8.66,9.89"/><path d="M45.93,29.2c0.92,0.35,2.97,0.45,3.89,0.35c11.53-1.24,28.52-4.31,42.34-4.51c1.54-0.02,2.46,0.17,3.22,0.35"/><path d="M62.99,31.43c0.06,1.06,0.13,2.74-0.12,4.26c-1.48,8.99-9.98,28.73-21.62,40.81"/><path d="M55.63,61.99c0.62,0.76,1.03,1.63,1.12,2.47c0.62,6.12,1.86,16.7,2.73,28.29"/><path d="M56.88,63.03c6.92-1.23,27.79-3.85,32.52-4.04c1.95-0.08,3.18,1.83,2.84,3.6c-1.2,6.1-3.54,14.73-4.54,25.16"/><path d="M59.34,90.62c5.54-0.62,23.21-2.19,30.28-2.37"/></svg>