<svg><path d="M21.16,26.66c2.19,0.78,5.16,1.03,7.48,0.83c12.74-1.12,36.12-3.44,49.88-4.71c2.57-0.23,5.28-0.61,7.83-0.06"/><path d="M38.67,13.86c0.86,0.86,1.04,2.14,1.04,3.32c0,0.66-0.08,21.44-0.08,34.06c0,2.59,0.02,4.32-0.01,5.25"/><path d="M66.81,11.01c1.03,1.03,1.3,2.24,1.3,3.32c0,0.67-0.08,23.17-0.08,34.17c0,2.33-0.03,3.75-0.03,5.25"/><path d="M40.74,40.37c3.35-0.4,23.65-2.63,26.01-2.63"/><path d="M40.74,54.54c6.88-0.92,21.58-2.63,26.32-2.83"/><path d="M16.33,69.22c3.22,0.98,6.49,0.62,9.78,0.33c12.83-1.15,38.26-4.05,57.52-4.82c3.4-0.14,6.5,0.15,9.82,0.77"/><path d="M53.14,56.3c1.03,1.03,1.33,2.57,1.33,4.2c0,8.81-0.02,19.71-0.03,30.74c0,2.94,0,5.86,0,8.7"/><path d="M50.71,67.55c0,1.45-0.75,3.06-1.99,4.61c-7.59,9.46-17.97,18.46-33.22,23.7"/><path d="M55.61,70.54C60.25,74,74.89,83.78,83.37,89.2c2.71,1.73,5.68,3.27,8.63,4.58"/></svg>