<svg><path d="M12.28,37.97c2.06,0.34,4.14,0.41,6.21,0.22c5.36-0.68,15.48-2.56,21.55-3.58c1.49-0.21,2.98-0.29,4.48-0.24"/><path d="M31.36,15.5c0.82,0.82,1.04,2.62,1.04,4.42c0,0.77,0.07,45.9,0.09,66.45c0.01,4.81,0.01,8.27,0.01,9.5"/><path d="M31.94,37.53c0,1.72-1.24,5.46-1.83,6.83c-5.56,12.93-9.47,19.38-18.75,31.97"/><path d="M35.5,48.12c2.76,1.71,6.75,7.25,8.63,10.66"/><path d="M44.86,40.77c3.26,0.61,6.51,0.61,9.77,0c9.62-1.02,21.95-2.34,33.87-3.28c3.05-0.5,6.12-0.49,9.14-0.15"/><path d="M56.17,17.12c1.23,1.23,1.43,2.58,1.43,3.92c0,1.11-0.07,45.24-0.09,65.84c0,4.33-0.01,7.62-0.01,9.25"/><path d="M82.37,14c0.94,0.94,1.43,2.75,1.43,3.92c0,0.81,0.02,45.97,0.03,66.7c0,4.84,0,8.34,0,9.65"/><path d="M59.01,63.59c6.24-0.59,16.49-1.84,23.73-2.18"/><path d="M58.76,92.65c7.24-0.53,18.08-1.96,23.98-2.2"/></svg>