<svg><path d="M31.02,15.29c2.2,0.6,4.85,0.52,7.11,0.2c7.43-1.05,26.91-4.33,29.48-4.64c3.01-0.37,4.02,1.66,1.74,3.5c-2.89,2.34-12.59,9.62-14.49,11.09"/><path d="M44.5,22c2.65,0.73,8.89,3.55,10.14,5.47"/><path d="M22.32,34.79c3.02,0.56,6.23,0.63,9.21-0.17c12.98-3.5,31.35-7.25,45.9-7.43c7.1-0.09,2.95,4.81-1.88,9.32"/><path d="M55.51,31.29c0.91,0.91,0.97,1.96,0.97,3.59c0,6.23-0.02,10.73-0.02,15.07c0,6.25-3.84,1.89-5.44-0.07"/><path d="M52.99,30.75c0.08,0.64-0.39,1.72-0.92,2.56C47.25,40.88,41.62,49,23.64,57.26"/><path d="M18.75,68.86c3.05,0.89,6.13,0.65,9.24,0.33c13.89-1.44,35.76-3.82,53.88-4.55c3.34-0.13,6.11-0.08,9.38,0.51"/><path d="M53.75,58.25C54.69,59.19,55,60.62,55,62c0,8.67,0.11,23.62,0.11,33c0,1.86-0.07,3.41-0.11,4.5"/><path d="M52.75,67.75c0,1.25-0.82,2.79-1.67,3.98c-6.67,9.34-20.69,20-33.33,23.77"/><path d="M56,68c3.79,2.5,18.27,13.28,26.8,18.99c2.43,1.63,5.7,3.63,8.7,4.51"/></svg>