<svg><path d="M13.28,37.83c0.37,0.16,2.55,0.28,3.53,0.21c4.21-0.27,18.28-2.16,25.04-2.97c0.98-0.12,2.3-0.16,2.91,0"/><path d="M29.86,14.5c0.91,0.47,2.54,2.25,2.54,4.92c0,0.95-0.12,70.25-0.3,76.08"/><path d="M31.94,39.28C25.55,55.85,22,62.85,12.11,77.34"/><path d="M34.47,45.9c2.66,1.95,7.03,7.07,9.28,10.85"/><path d="M67.96,13.88c0.53,0.48,1.66,3.56,1.76,4.52c0.11,0.95,0.23,65.15,0.12,71.1"/><path d="M52.82,28.56c0.46,0.33,0.99,2.82,0.92,3.49c-0.3,2.99-1.39,10.01-2.63,16.1c-0.3,1.5,0.31,1.98,1.41,1.69c9.72-2.58,26.97-3.58,36.38-3.89"/><path d="M88.6,25.79c0.4,1.21,1.2,2.21,1.16,3.17c-0.26,5.53-0.01,9.53-0.52,19.91"/><path d="M51.7,65.11c0.46,0.33,0.99,2.82,0.92,3.49c-0.3,2.99-2.39,16.51-3.63,22.6c-0.3,1.5,0.8,2,1.91,1.75C64,90,81.25,88.75,91.58,88.39"/><path d="M91.05,62.12c0.53,0.48,1.41,2.21,1.36,3.17C92,73.25,92,84.5,91.38,93.22"/></svg>