<svg><path d="M13.03,38.22c0.35,0.24,2.39,0.41,3.31,0.31c3.94-0.41,17.12-1.71,23.45-2.91c0.92-0.17,2.15-0.24,2.73,0"/><path d="M28.11,15c0.91,0.47,2.54,2,2.54,4.42c0,0.95-0.12,71.25-0.3,77.08"/><path d="M30.19,40.28C24.29,56.74,21,63.69,11.86,78.09"/><path d="M32.72,46.4C35.1,47.99,40,53.16,42,56.25"/><path d="M42.72,25.13c1.2,0.51,3.41,0.63,4.61,0.51c7.16-0.72,34.06-3.68,44-4.35c2-0.13,3.21,0.24,4.21,0.5"/><path d="M48.83,41.23c0.33,0.41,0.68,0.75,0.82,1.26c1.16,4.04,2.54,16.3,3.33,23.56"/><path d="M51.4,42.94C59,41,64.54,40.2,68.45,39.56c1.43-0.24,2.2,1.38,2.08,2.79C70,48.56,68.5,52.76,67.94,62.14"/><path d="M53.64,64.14c6.11-0.39,9.11-0.89,15.73-1.29"/><path d="M83.16,25.09c0.07,0.45,1.32,2.34,1.39,5.18c0.32,13.67-0.2,56.07-0.2,60.73c0,7.99-5.71,1.41-6.89,0.23"/></svg>