<svg><path d="M21.25,26.54c3,0.46,5.75,0.71,8.5,0.53c11.73-0.75,37.08-2.23,49.25-3.51c3-0.32,6.5-0.07,8.5,0.05"/><path d="M24.25,39.82c0.4,0.41,0.81,0.75,0.99,1.27c1.39,4.08,3.05,15.33,4,22.66"/><path d="M25.74,42.14c12.01-1.64,51.14-5.27,55.83-5.65c2.92-0.24,4.45,1.36,4,3.64C84.25,46.75,82,57.5,80.36,61.99"/><path d="M35.52,46.33c3.1,1.74,8.02,7.17,8.79,9.88"/><path d="M72.28,44.64c0.03,0.24,0.05,0.63-0.05,0.98c-0.63,2.06-4.23,6.58-9.17,9.35"/><path d="M28.92,62.43c13.1-0.92,39.41-2.69,51.65-3.14"/><path d="M52.25,11.25c1.25,0.5,2,2.25,2.25,3.25s0,78.25-0.25,84.5"/><path d="M54.25,61.25C47.52,71.82,30.01,86.77,16,92.75"/><path d="M54,61.75c5.21,4.15,27.6,24.3,33.27,28.38c1.92,1.38,3.57,1.98,5.48,2.37"/></svg>