<svg><path d="M13.65,39.67c1.1,0.33,2.59,0.54,3.58,0.49c5.39-0.29,16.96-1.67,23.82-2.58c0.99-0.13,2.33-0.18,2.96,0"/><path d="M30.36,15.25c1.13,1.13,2.04,3,2.04,4.67c0,0.81-0.04,48.97-0.05,68.45c0,3.35,0,5.86,0,7.12"/><path d="M31.44,40.28c0,0.97-0.38,3-0.69,3.72c-5.5,12.83-9,18.92-17.89,30.84"/><path d="M35.62,50.25c2.16,1.43,7.55,6.97,9.38,9.75"/><path d="M62.62,13.62c4.2,2.11,10.38,8.05,11.43,11.34"/><path d="M50.25,38.86c1.84,0.27,4.96,0.13,6.14,0.03c10.24-0.89,23.86-3.26,31.19-3.43c1.8-0.04,3.43,0.1,4.92,0.5"/><path d="M69.5,40.58c1.5,1.17,2,2.55,2,4.25c0,6.41,0,35.67,0,43.17"/><path d="M52.75,63.07c0.94,0.52,4.04,0.34,5,0.23c11.5-1.3,14.08-1.82,27-2.68c1.17-0.08,3.75-0.21,5.5,0.25"/><path d="M44.5,89.76c1.75,0.37,3.87,0.43,6.25,0.25c12.12-0.89,31-2.01,42.75-2.3c2.5-0.06,5.5,0.24,6.75,0.69"/></svg>