<svg><path d="M12.53,36.72c2.22,0.53,5.06,0.35,6.49,0.14c4.69-0.7,12.27-2.47,17.36-3.47c1.21-0.24,2.87-0.39,4.14-0.27"/><path d="M28.61,16.5c1.07,1.07,1.29,2.75,1.29,4.67c0,5.7,0.04,62.95,0.04,66.58c0,2,0,6.12-0.07,8.25"/><path d="M29.44,36.53c0,1.47-0.59,2.98-1,4.13c-4.37,12.53-8.57,19.96-15.83,30.93"/><path d="M31.72,44.65c2.44,1.47,6.65,5.6,8.53,9.1"/><path d="M58.45,13c0.1,0.77-0.23,1.58-0.64,2.17c-2.55,3.71-5.24,6.36-10.19,10.71"/><path d="M46.37,28.51c0.94,0.94,1.06,2.11,1.06,3.74c0,3.25-0.63,28.35-0.63,31.22c0,3.03,0.32,4.62,3.16,2.26c2.38-1.98,5.42-4.85,10.73-8.98"/><path d="M60.42,25.43c1.08,1.08,1.45,2.48,1.48,4.8c0.47,36.9-0.03,52.9-15.62,64.68"/><path d="M71.54,22.99c1.34,0.51,3.21,0.56,5.33,0.12c3.17-0.66,8.89-1.87,11.14-2.3c3.32-0.64,5.74,0.82,5.74,4.43c0,6.8-0.13,24.14-1.11,39.13c-0.75,11.52-6.81,2.07-7.3,1.64"/><path d="M73.31,24.11c1.04,1.04,1.3,2.39,1.3,4.14c0,11.66,0.06,44.9-0.03,60.38c-0.03,4.2-0.05,7.2-0.08,8.25"/></svg>