<svg><path d="M11.78,41.47c1.86,0.28,3.73,0.39,5.61,0.31c4.2-0.47,11.49-1.4,17.03-2.54c1.28-0.26,2.55-0.48,3.85-0.38"/><path d="M26.61,15.75c1.07,1.07,1.29,2.75,1.29,4.17c0,7.41-0.03,43.71-0.05,63.08c0,5.67-0.01,9.89-0.01,11.5"/><path d="M27.44,42.28c0,1.84-0.64,4.94-1.29,6.6c-4.5,11.52-8.13,17.37-15.79,28.96"/><path d="M31.47,52.15c2.65,1.85,5.03,5.23,6.66,9.14"/><path d="M47.06,19.34c0.92,0.92,1.09,2.03,1.09,3.67c0,1.66-0.01,41.77-0.02,60.6c0,5.23,0,8.86,0,9.63"/><path d="M48.88,21.38c6.27-0.74,26.92-2.79,33.88-3.59c3.01-0.35,6.02-0.4,6.02,3.46c0.01,8.9,0.09,60.69,0.06,65.87c-0.08,10.88-2.58,5.13-6.54,2.41"/><path d="M59.31,22.89c0.9,0.9,1.24,1.99,1.24,3.19c0,0.79-0.04,34.71-0.05,52.55c0,4.72-0.01,8.32-0.01,9.87"/><path d="M72.5,20.92c0.91,0.91,0.99,1.96,0.99,3.19c0,0.79-0.08,35.21-0.11,53.77c-0.01,4.71-0.01,8.39-0.01,10.25"/><path d="M38.5,51.47c4.52,0.5,9.01,0.43,13.5-0.04c11.12-1.18,23.19-2.24,33.75-3.05c4.24-0.42,8.49-0.42,12.75,0.01"/></svg>