<svg><path d="M12.53,38.22c2.1,0.66,4.4,0.56,6.1,0.32c6.5-0.91,13.33-1.87,18.9-2.77c1.46-0.24,3.48-0.39,4.99-0.15"/><path d="M28.36,14.25c1.19,1.19,1.54,2.62,1.54,4.42c0,0.79,0.07,48.62,0.09,68.83c0,4.23,0.01,7.25,0.01,8.38"/><path d="M29.69,40.53c-0.06,1.59-0.81,3.47-1.66,5.6c-4.7,11.85-9.15,19.49-16.42,29.46"/><path d="M33.22,48.9c2.37,1.59,6.28,7.76,8.28,10.85"/><path d="M47,22.37c2.75,0.5,5.25,0.32,7.52,0.11c8.61-0.81,18.36-2.48,30.73-3.58c2.38-0.21,4.88-0.27,7.23,0.24"/><path d="M68.47,23.57c0.98,0.98,1.24,1.93,1.24,3.96c0,14.41,0,53.12,0,58.03"/><path d="M70.7,51.77c1.44-0.26,10.69-1.68,17.04-2.6c1.58-0.23,3.01-0.55,4.76-0.31"/><path d="M51.15,48.11c0.81,0.81,1.32,1.89,1.32,3.63c0,7.6-0.02,32.45-0.02,35.04"/><path d="M38.8,88.02c2.99,1,6.13,1.02,9.2,0.64c11.42-1.39,27.6-2.85,40.75-3.08c2.93-0.05,6.38-0.2,9.95,1.2"/></svg>