<svg><path d="M13.03,40.97c2.02,0.33,4.05,0.41,6.09,0.23c4.61-0.6,12.39-1.99,17.76-2.93c1.29-0.13,2.59-0.18,3.89-0.14"/><path d="M29.11,17c1.07,1.07,1.54,2.75,1.54,4.92c0,0.77-0.04,44.72-0.05,64.7c0,4.55,0,7.85,0,9.12"/><path d="M29.94,40.78c-0.06,2.47-1.1,5.18-1.63,6.42c-4.96,11.82-8.44,18.49-16.7,29.88"/><path d="M33.47,51.4c2.45,1.36,6.15,6.1,7.66,8.89"/><path d="M43.95,23.23c2.85,0.45,5.69,0.52,8.55,0.19c10.69-0.77,24.96-3.04,37.13-3.6c2.47-0.25,4.92-0.16,7.37,0.27"/><path d="M47.54,40.88c0.85,0.85,1.4,2.55,1.4,4.55c0,7.48-0.04,27.05-0.06,40.57c0,3.77-0.01,7.07-0.01,9.5"/><path d="M49.64,42.92c11.78-1.43,29.43-3.57,38.61-4.52c3.36-0.35,5.21,1.01,5.21,4.76c0,7.45-0.14,26.43-0.19,41.22c-0.01,3.21-0.02,6.22-0.02,8.88"/><path d="M63.43,25.35c0.92,0.92,1.17,2.77,1.15,4.41c-0.21,18.12-1.33,32.24-9.8,40.77"/><path d="M75.67,23.77c1.03,1.03,1.36,2.36,1.36,3.84c0,14.82-0.03,28.53-0.03,33.02c0,5.76,1,7.55,6.54,7.55c4.69,0,6.78-0.91,7.04-1.25"/><path d="M50,91.99C61.38,91.25,78.5,90,92.3,89.75"/></svg>