<svg><path d="M11.53,39.97c1.29,0.9,5.05,0.39,6.49,0.24c5.52-0.55,15-1.73,20.77-2.34c0.93-0.1,2.4-0.24,2.98,0"/><path d="M27.86,13.75c1.38,1.38,2.04,3,2.04,5.42c0,3.16-0.01,47.73-0.03,68.08c-0.01,5.88-0.01,9.74-0.02,10"/><path d="M28.44,40.28c0,1.59-0.75,4.38-1.45,6.21c-4.11,10.82-7.99,18-15.13,28.09"/><path d="M31.72,47.65C34.1,49.24,38.38,55.5,40,59.5"/><path d="M67.29,12.75c0.07,0.84-0.15,2.25-0.64,3.38c-4.4,10.12-10.53,20.74-24.25,32.62"/><path d="M68,18.62c4.17,5.24,11.75,12.62,19.56,19.7c3.17,2.87,5.74,5.11,9.29,7.36"/><path d="M50.67,50.15c2.33,0.35,4.37,0.17,6.06-0.06c4.77-0.66,13.81-1.47,20.76-1.99c1.93-0.14,3.64-0.35,5.71,0.04"/><path d="M66.41,51.31c0.9,1.24,1.15,2.31,1.15,3.73c0,6.96-0.02,26.7-0.02,36.89"/><path d="M48.95,71.17c1.85,0.59,3.9,0.31,5.79,0.11c8.2-0.88,16.13-1.49,25.66-2.39c2.01-0.19,4.17-0.46,6.14,0.15"/><path d="M40.85,93.44c2.02,0.69,4.57,0.56,6.91,0.42c15.13-0.87,25.16-1.68,40.98-2.28c2.46-0.09,5.33,0.25,7.65,1.28"/></svg>