<svg><path d="M10.28,38.72c0.36,0.24,2.47,0.41,3.42,0.31c4.07-0.41,17.7-1.71,24.25-2.91c0.95-0.17,2.22-0.24,2.82,0"/><path d="M25.86,15.5c0.91,0.47,2.39,2,2.54,4.42c0.06,0.95-0.12,68.75-0.3,74.58"/><path d="M27.94,38.78C22.2,55.24,19,62.19,10.11,76.59"/><path d="M30.97,47.9c2.52,1.77,6.66,6.42,8.78,9.85"/><path d="M39,23.4c1.96,0.95,2.3,0.95,5.19,0.63c5.86-0.64,15.16-3.38,16.95-3.52c2.02-0.16,3.2,1.26,3.26,3.82c0.07,2.83-0.75,56.21-0.75,65.22c0,9.52-6.9,0.24-7.91-0.32"/><path d="M54.48,25.66c0.04,0.42,0.07,1.1-0.07,1.71c-0.84,3.61-5.65,11.52-12.24,16.37"/><path d="M59.5,45.75c0.06,0.68,0.12,1.76-0.11,2.73c-1.41,5.76-9.51,18.4-20.6,26.14"/><path d="M70.26,19.84c1.95,0.98,1.61,0.98,4.48,0.65c5.83-0.66,13.55-2.16,15.33-2.26c4-0.23,3.83,1.16,3.83,3.87c0,4.34-0.42,55.92-0.42,65.21c0,9.87-8.36,0.75-9.36,0.17"/><path d="M83.25,22.13c0.04,0.48,0.07,1.25-0.07,1.95c-0.88,4.1-5.95,13.11-12.89,18.63"/><path d="M88.35,45.07c0.05,0.64,0.11,1.67-0.1,2.59c-1.2,5.47-8.06,17.47-17.45,24.81"/></svg>