<svg><path d="M12.78,39.2c2.03,0.35,4.08,0.56,6.11,0.27c5.53-0.81,13.96-2.15,19.66-3.12c1.57-0.26,3.14-0.36,4.72-0.3"/><path d="M29.61,14c1.07,1.07,1.54,3.25,1.54,5.5c0,0.83-0.02,47.87-0.02,68.87c0,4.7,0,8.09,0,9.38"/><path d="M29.94,38.38c0,1.74-0.98,4.45-1.56,6.04c-4.86,13.21-8.13,19.21-16.52,33.24"/><path d="M34.47,50.89c2.68,1.56,6.4,6.38,8.66,9.4"/><path d="M44.71,24.39c2.92,0.56,5.84,0.62,8.78,0.17C62.95,23.45,76,21.75,88,21.17c2.89-0.14,5.71-0.15,8.54,0.41"/><path d="M69.61,25.83c0,1.17-0.12,2.1-0.51,3.1c-1.73,4.44-3.6,8.94-7.1,14.69"/><path d="M51.51,45.85c1.01,1.01,1.41,1.94,1.47,3.65c0.38,10.85,0.87,26.98,1.2,38.13c0.12,4.02,0.22,7.38,0.28,9.62"/><path d="M53.34,47.39c3.15-0.2,25.43-2.67,31.53-3.28c3.8-0.38,5.19,0.88,5.19,4.51c0,6.34-0.25,24.82-0.35,38.38c-0.02,3.29-0.04,6.29-0.04,8.75"/><path d="M54.78,68.23C69,66.79,79.5,66,88.98,65.69"/><path d="M55.47,94.39c11.28-0.86,22.78-2.1,33.39-2.12"/></svg>