<svg><path d="M11.53,40.68c1.1,0.32,2.6,0.45,4.53,0.32c5.4-0.35,16.57-3,23.14-4.04c1.25-0.2,2.3-0.18,3.07,0"/><path d="M28.99,17.25c1.07,1.07,1.76,3.25,1.76,5.25c0,0.77-0.03,48.09-0.18,65.25c-0.03,3.03-0.05,5.16-0.07,6"/><path d="M30.25,40.75c0,1.25-0.49,2.66-0.96,3.77C25.28,53.91,20.88,62.25,15,70"/><path d="M33.75,51.25c2.75,1.5,6,5.25,7.25,7.75"/><path d="M66.39,15.5c0.99,0.99,1.38,1.88,1.38,3.62c0,4.25-0.02,7.62-0.08,10.41"/><path d="M48.12,31.71c2.3,0.29,3.9,0.44,6.09,0.2c10.28-1.16,20.32-2.66,32.45-3.53c2.35-0.17,4.03-0.01,5.33,0.32"/><path d="M59.24,38.93c0.2,0.53,0.06,2.27-0.4,3.14C57,45.5,53.75,49.5,50,52.5"/><path d="M79.27,38.5c4.34,3.07,8.73,8.68,10.9,12.41"/><path d="M79.15,49.18c0.35,1.32,0.17,2.62-0.54,4.18C72.25,67.25,58.75,83.25,44,91.25"/><path d="M55.95,55.88c6.3,3.37,21.64,22.12,31.45,30.33c2.64,2.21,5.07,4.15,8.6,4.44"/></svg>