<svg><path d="M10.53,38.63c0.35,0.15,2.45,0.26,3.39,0.2c4.04-0.26,16.54-2.04,23.04-2.81c0.94-0.11,2.21-0.15,2.8,0"/><path d="M25.36,15.5c0.91,0.47,2.04,2,2.04,4.42c0,0.95-0.12,71.75-0.3,77.58"/><path d="M26.94,39.78c-5.1,15.04-7.94,21.4-15.83,34.56"/><path d="M28.47,44.9c2.37,1.59,6.28,5.76,8.28,8.85"/><path d="M42.09,26.3c1.25,0.46,3.55,0.58,4.8,0.46c7.7-0.75,30.7-4,43.32-4.74c2.08-0.12,3.34,0.22,4.38,0.45"/><path d="M62.05,11.5c0.26,2.53,0.26,3.84-0.38,6.1c-4.08,14.2-11.31,31.72-24.58,45.44"/><path d="M48.72,49c0.79,0.82,1.01,2.63,1.01,4.32c0,9.93-0.22,28.43-0.22,42.93"/><path d="M60.73,39.6c0.81,0.31,2.33,0.7,3.57,0.53c4.45-0.63,17.48-3.63,18.9-3.63c1.42,0,2.96,0.93,1.54,2.8c-1.42,1.86-7.45,10.44-11.05,13.82"/><path d="M72.61,53.79c5.22,3.29,12.39,21.96,5.47,37.05C75.26,97,72,93.25,70.62,91.51"/><path d="M56.17,64.89c0.9,0.72,3.25,0.97,4.88,0.79c5.7-0.63,26.28-4.43,33.79-4.7c1.63-0.06,3.07,0.24,4.16,0.96"/></svg>