<svg><path d="M9.03,39.47c1.85,0.41,4.61,0.36,6.11,0.21c6.74-0.67,17.99-2.92,24.9-4.64c1.43-0.36,3.47-0.66,4.98-0.42"/><path d="M29.53,16.25c1.17,1.17,1.97,2.75,1.97,4.67c0,0.8,0,50.01,0,68.83c0,3.39,0,5.8,0,6.75"/><path d="M30.25,38.5c0,1.38-0.21,2.08-0.45,2.89C26.82,51.44,22.74,62.27,11.75,75"/><path d="M34.75,44.38c2.79,1.89,8.89,8.57,10.5,12.62"/><path d="M52.69,18.69c1.68,0.94,4.18,0.97,6.2,0.65c6.86-1.09,19.9-3.39,21.43-3.59c1.92-0.25,3.42,1,3.36,2.82c-0.14,4.21-1.42,16.85-2.19,23.83c-0.17,1.59-0.32,2.87-0.43,3.68"/><path d="M55.42,33.16c6.83-1.03,20.81-3.38,26.12-3.84"/><path d="M55.39,47.01c7.57-0.93,16.65-2.52,24.88-3.41"/><path d="M52.69,18.69c1.12,1.12,1.75,2.59,1.75,3.78c0,3.28,0,60.78,0,66.47c0,3.56,1.31,4.06,3.75,2.28c3.56-2.59,9.06-6.97,13.25-10.13"/><path d="M89.43,47.75c0.2,1.5-0.28,2.62-1.25,3.7C87.2,52.55,81.5,58,72.74,63.33"/><path d="M60.88,57.38c5.03,0,17.81,16.17,22.38,20.62c5,4.88,7.88,7.38,11.25,8.88"/></svg>