<svg><path d="M13.78,38.22c1.72,0.53,4.39,0.45,5.71,0.32c5.47-0.56,16.68-2.15,22.05-3.17c0.92-0.17,2.15-0.24,2.73,0"/><path d="M31.36,14.25c1.44,1.44,2.04,2.62,2.04,4.67c0,3.08-0.01,49.69-0.04,69.2c-0.01,4.7-0.01,7.69-0.02,7.88"/><path d="M32.44,38.28c0,1.34-0.7,3.95-1.16,4.98C25.73,55.84,22,62.1,12.86,74.09"/><path d="M36.25,48.38c2.24,1.45,6.86,7.06,8.75,9.88"/><path d="M68.76,12.24c1,1,1.6,2.13,1.6,3.98c0,4.28-0.11,8.03-0.11,11.9"/><path d="M47.5,30.81c2.44,0.18,4.78,0.25,7.24,0c8.81-0.87,26.5-2.54,36.26-3.17c2-0.13,4.07-0.43,6,0.29"/><path d="M67.98,32.37c0.48,1.23,0.23,2.61-0.74,3.97c-3.48,4.91-5.23,6.91-11.3,13.44c-1.23,1.33-0.85,2.52,0.5,3.07c4.83,1.93,6.6,3.02,10.93,5.27"/><path d="M82.52,40.5c0.09,0.81-0.04,1.94-0.68,2.76C73.38,54.25,64.31,64.04,48,74.25"/><path d="M87.24,59.5c0.1,0.88-0.46,2.14-1.21,3.02C77.75,72.38,64.5,84.75,45.5,96"/><path d="M77.25,77.12c6.53,3.33,16.87,13.69,18.5,18.88"/></svg>