<svg><path d="M12.28,39.07c2.02,0.45,4.07,0.82,6.11,0.52c4.99-0.72,12.36-1.59,18.37-2.41c1.5-0.2,2.99-0.33,4.5-0.13"/><path d="M29.11,15c1.13,1.13,1.29,3.12,1.29,4.67c0,0.95-0.12,72-0.3,77.83"/><path d="M30.19,40.78c0,1.47-1.25,4.48-1.76,5.62c-4.68,10.47-8.49,17.46-16.82,28.94"/><path d="M33.47,49.4c2.61,1.48,7.03,6.35,8.66,9.39"/><path d="M58.04,14c0,1.38-0.29,2.48-0.75,3.67C54.31,25.3,50.8,32.26,44,41.54"/><path d="M56.25,28.39c2.33,0.52,4.67,0.37,7.01,0.05c7.13-0.69,14.62-2.19,22.89-3.2c2.23-0.27,4.4-0.47,6.61,0.02"/><path d="M52.51,42.12c1.2,1.01,1.5,2.78,1.5,4.04c0,1.26,0.05,47.18,0.05,49.46"/><path d="M54.04,43.57c9.02-1.15,21.84-2.48,27.57-3.09c3.45-0.37,5.84,0.83,5.8,4.4c-0.07,7.04-0.03,45.49-0.03,47.54c0,7.08-5.62,0.96-7.9-0.61"/><path d="M68.9,42.75c0.86,0.86,1,2.09,1,3.25c0,5.91-0.02,15.51-0.02,18.25"/><path d="M42.33,66.84c3.39,0.6,6.77,0.51,10.17,0.13c10.74-1.22,28.09-2.78,36.61-3.32c3.14-0.39,6.51-0.31,9.63,0.25"/></svg>