<svg><path d="M10.53,37.28c0.35,0.21,2.45,0.36,3.39,0.27c4.05-0.36,16.54-1.93,23.04-2.99c0.94-0.15,2.21-0.21,2.8,0"/><path d="M24.36,15c0.91,0.47,2.54,2.25,2.54,4.92c0,0.95-0.12,72.75-0.3,78.58"/><path d="M26.44,38.78C22.25,53.25,19,61.25,10.11,72.34"/><path d="M29.97,44.9c2.37,1.59,5.03,4.1,7.28,6.85"/><path d="M42.16,27.34c1.65,0.31,3.5,0.17,4.58,0.09c12.01-0.93,29.76-2.93,40.33-3.3c1.37-0.05,3.47-0.33,6.02,0.35"/><path d="M64.04,12.75c0.4,0.6,0.5,1.84,0.25,3.07c-3,14.84-11.05,30.65-25.39,40.87"/><path d="M67.73,25.75c5.54,5.36,18.45,19.01,23.98,22.6c1.88,1.22,2.54,1.4,3.39,1.52"/><path d="M52.84,48.23c0.44,0.21,2.19,0.24,2.64,0.21c4.77-0.28,15.08-1.11,20.85-1.98c0.73-0.11,2.58,0.1,2.96,0.21"/><path d="M43.76,59.9c1.05,0.4,2.98,0.48,4.03,0.4c8.33-0.64,27.35-2.43,39.06-2.97c1.75-0.08,2.81,0.19,3.68,0.39"/><path d="M59.63,61.82c0.36,0.93,0.31,2,0.07,3.48c-0.27,1.69-1.7,4.2-3.88,7.45c-1.38,2.05-0.36,3.46,2.19,2.98c6.49-1.23,15.88-3.06,21.96-4.08c2.96-0.5,4.03,1.1,3.51,3.29c-1.69,7.16-5.73,15.31-11.13,21.39c-4.79,5.39-5.6-0.08-7-1.64"/></svg>