<svg><path d="M10.78,38.47c1.9,0.33,3.8,0.41,5.72,0.23c4.67-0.68,13.13-2.32,18.9-3.35c1.39-0.25,2.72-0.33,4.12-0.23"/><path d="M28.61,15c1.13,1.13,1.29,2.75,1.29,4.67c0,0.75,0.06,42.09,0.09,62.7C30,87.83,30,91.84,30,93.25"/><path d="M29.69,38.53c0,1.59-0.65,4.78-1.19,6.07c-4.92,11.6-9.12,19.15-16.88,28.74"/><path d="M33.47,46.4c2.78,2.85,5.53,6.73,7.16,10.14"/><path d="M60.14,16.5c0,1.25-0.42,2.09-1.25,3.1c-3.01,3.65-7.13,8.27-13.4,12.35"/><path d="M58.92,37.27c0.12,1.34-0.15,2.55-0.82,3.65c-3.99,8.05-9.07,15.95-18.61,25.1"/><path d="M53.95,55.12c0.84,0.84,0.98,1.88,0.98,3.08c0,0.39,0,19.79-0.03,29.55c-0.01,2.66-0.02,4.6-0.03,5.25"/><path d="M69.34,21.05c1.92,0.72,3.79,0.76,5.78,0.56c3.5-0.36,9.5-1.48,13.51-2.31c1.61-0.33,3.12-0.42,4.74-0.16"/><path d="M65.09,44.71c2.49,0.55,4.89,0.12,7.43-0.22c7-0.93,13.36-2.37,19.99-3.11c2.13-0.24,4.1-0.62,6.12-0.08"/><path d="M84,44.66c0.86,0.86,1.06,1.97,1.06,4c0,13.86,0.03,36.05,0.03,40.76c0,7.65-6.35-0.73-7.62-1.92"/></svg>