<svg><path d="M12.03,39.47c1.72,0.41,3.88,0.23,5.11,0.07c6.12-0.78,15.11-3.11,20.65-4.17c0.92-0.17,2.15-0.24,2.73,0"/><path d="M27.86,18c1.26,1.26,1.54,3,1.54,4.92c0-0.24,0.17,40.89,0.05,60.58c-0.03,4.72-0.06,8.18-0.11,9.5"/><path d="M29.19,41.53c0,1.97-1.62,5.78-2.27,7.38c-4.36,10.81-7.64,16.29-15.06,27.18"/><path d="M32.75,50c2.29,1.71,6.07,6.18,8,9.5"/><path d="M56.79,18.91c1.15,1.15,1.39,2.34,1.39,4.32c0,24.35,3.94,55.9-16.28,70.96"/><path d="M44.16,39.06c2.89,1.47,7.47,6.03,8.2,8.32"/><path d="M42.11,68.99c1.14,0.76,2.06,0.42,2.84-0.15c1.08-0.78,6.55-5.55,10.8-9.34"/><path d="M70.28,15.94c1.21,1.21,1.24,2.32,1.24,3.97c0,7.59-0.01,55.22-0.01,60.22C71.5,91,73,92.23,83.94,92.23c10.31,0,11.56-1.73,11.56-8.68"/><path d="M89.64,31.25c0.11,0.81,0.02,1.58-0.41,2.25C87,36.88,83.5,40.38,75.5,46.12"/><path d="M75.38,51.88c6.1,2.65,15.75,10.87,17.27,14.98"/></svg>