<svg><path d="M14.78,37.97c1.85,0.66,4.09,0.48,5.74,0.31c4.84-0.51,13.38-1.43,18.88-2.4c1.21-0.21,2.73-0.37,4.12-0.25"/><path d="M29.86,15.5c1.13,1.13,1.54,2.75,1.54,4.67c0,0.81-0.02,48.13-0.02,67.08c0,3.37,0,5.85,0,7"/><path d="M30.69,39.03c0,1.09-0.31,3.88-0.72,5c-4.62,12.94-8.93,21.04-15.61,30.55"/><path d="M34.62,48.38c2.4,1.52,6.35,6.44,8.38,9.38"/><path d="M50.8,33.58c1.76,0.68,4.03,0.27,5.84,0.13c6.57-0.53,14.66-1.7,22.99-2.1c1.82-0.09,3.63-0.21,5.42,0.21"/><path d="M66.83,15.37c0.84,0.84,1.18,1.95,1.18,3.72c0,11.39-0.01,21.28-0.01,28.54"/><path d="M46.45,49.65c2.43,0.6,5,0.61,7.44,0.33c9.62-1.11,22.78-2,31.62-2.49c2.41-0.14,4.63,0.13,7,0.63"/><path d="M50.32,70.01c1.63,0.63,4.23,0.53,5.92,0.35c7-0.74,16.94-1.79,24.26-2.25c2-0.12,4.02-0.3,5.99,0.16"/><path d="M67.1,53.82c0.91,0.91,1.18,2.2,1.18,3.97c0,11.39-0.04,22.6-0.04,29.21"/><path d="M42.3,89.01c2.34,0.83,4.79,0.74,7.2,0.55c15.16-1.19,24.92-1.88,38.5-2.45c2.57-0.11,5.18,0.09,7.7,0.63"/></svg>