<svg><path d="M12.53,39.47c1.09,0.76,4.21,0.47,5.49,0.3c4.48-0.6,13.22-2.05,18.84-3.08c1.25-0.23,3.01-0.55,4.4-0.31"/><path d="M29.11,16.25c1.19,1.19,1.54,2.62,1.54,4.17c0,0.81,0.04,48.92-0.01,67.45c-0.01,3.15-0.01,5.45-0.01,6.5"/><path d="M29.94,39.78c0,1.22-1.4,5.37-1.82,6.37c-4.62,10.86-7.98,16.18-15.76,26.93"/><path d="M33.72,45.15c2.16,1.46,5.71,5.28,7.53,8.1"/><path d="M47.99,30.65c2.63,0.48,4.77,0.41,6.91,0.1c6.87-0.98,16.92-3.08,24.48-4.69c2.04-0.43,3.74-0.69,5.61-0.47"/><path d="M48.98,44.47c2.21,0.9,5.44,0.56,7.65-0.1c7-2.12,17-4.87,24.5-5.68c1.87-0.2,3.33-0.3,5.14-0.3"/><path d="M44.89,59.59c2.68,0.96,5.74,0.52,8.39-0.18c9.09-2.41,24.09-6.03,36.48-7.2c2.1-0.2,4.61-0.33,6.4-0.03"/><path d="M59.98,12.5c1.54,1.79,2.17,3.54,2.5,7.4c2.65,30.85,9.9,59.1,27.41,72.56c5.67,4.36,5.19,0.02,4.42-7.93"/><path d="M84.95,59.28c0.1,0.76-0.21,1.74-0.71,2.79c-3.37,7.05-15.62,20.3-37.45,29.34"/><path d="M76.38,11.75c3.75,1.71,9.74,5.63,11.49,8.56"/></svg>