<svg><path d="M12.28,39.22c1.85,0.41,4.3,0.21,5.59,0c4.45-0.7,11.43-2.24,16.79-3.29c1.24-0.24,3.22-0.43,4.86-0.31"/><path d="M26.61,16c1.19,1.19,1.79,3.25,1.79,4.92c0,0.78,0.23,44.77,0.06,64.08c-0.04,4.34-0.08,7.43-0.11,8.5"/><path d="M27.69,39.03c0,2.59-0.83,6.4-1.34,7.83c-4.18,11.72-8.22,18.51-14.74,28.23"/><path d="M31.25,44.38c2.44,1.52,6.45,6.44,8.5,9.38"/><path d="M43.62,22.61c3.42,5.04,7.08,13.87,7.57,16.39"/><path d="M60.31,19.19c1.87,2.94,6.36,10.65,7.1,15.42"/><path d="M87.34,17.25c0.6,1.07,0.67,2.63-0.35,4.54C85,25.5,80.75,33.38,76.53,39.17"/><path d="M64.92,45.62c0.36,1.16,0.26,2.65-0.18,4.04C62.38,57.12,59.12,64.38,54,72.07c-1.1,1.66-0.87,2.3,0.82,2.75c8.65,2.29,18.01,4.74,26.07,12.54c2.69,2.6,5.11,5.69,7.11,9.38"/><path d="M78.53,56.65c0.34,1.35,0.48,3.43,0.06,4.74C75,72.62,67.25,86.5,47.52,94.5"/><path d="M39.2,61.14c2.29,0.81,5.3,0.79,7.62,0.49c12.43-1.62,26.3-3.37,40.69-4.19c2.7-0.15,5.74-0.31,8.29,0.54"/></svg>