<svg><path d="M12.53,39.97c2.12,0.37,4.25,0.39,6.38,0.15c5.34-0.61,13.97-1.86,19.85-2.69c1.18-0.17,2.57-0.16,3.76-0.06"/><path d="M28.36,14.25c1.32,1.32,1.79,3.38,1.79,5.92c0,2.52-0.02,46.85-0.02,67.32c0,4.54,0,7.91,0,9.38"/><path d="M29.94,41.28c0,1.34-0.89,4.26-1.43,5.53c-4.93,11.62-8.39,18.06-16.65,28.78"/><path d="M33.22,50.15c2.61,1.52,6.21,6.7,8.41,9.64"/><path d="M45.63,24.25c2.86,0.66,5.67,0.34,8.61-0.07C62.62,23,74,21.62,82,20.74c2.62-0.29,5.17-0.42,7.73,0.16"/><path d="M51.78,38.8c0.9,0.9,1.16,2.21,1.16,3.33c0.41,4.16,1.47,16.57,2.33,25.39c0.3,3.12,0.58,5.79,0.8,7.49"/><path d="M53.89,40.17c7.5-1.08,23.25-3.36,27.73-3.83c2.73-0.29,3.85,1.34,3.72,4.04c-0.2,4.17-1.1,14.83-1.65,24.63c-0.13,2.44-0.25,4.83-0.32,7.05"/><path d="M55.45,56.12c9.55-1.25,17.43-2.25,27.74-2.87"/><path d="M56.82,72.28c9.68-1.16,16.93-1.66,25.59-2.32"/><path d="M43,87c3.2,0.6,6.42,0.71,9.64,0.22c12.24-1.85,24.11-2.47,36.24-3.08c3.16-0.16,6.27,0.05,9.38,0.61"/></svg>