<svg><path d="M13.28,36.22c0.38,0.24,2.61,0.41,3.61,0.31c4.3-0.41,16.49-1.71,23.4-2.91c1-0.17,2.35-0.24,2.98,0"/><path d="M30.36,12.5c0.91,0.47,2.54,2,2.54,4.42c0,0.95-0.3,69.08-0.3,79.58"/><path d="M32.44,38.78c-6.55,17.76-10.19,25.26-20.33,40.81"/><path d="M34.97,45.9c2.37,1.59,6.28,6.76,8.28,9.85"/><path d="M85.91,12.04c0.1,0.21,0.21,0.54-0.21,0.85c-2.47,1.78-17.38,6.5-36.08,8.09"/><path d="M54.17,25.84c0.03,0.42,0.06,1.09-0.06,1.7c-0.72,3.59-4.83,11.47-10.46,16.29"/><path d="M64.77,25.24c2.79,2.04,7.21,8.41,7.91,11.59"/><path d="M79.61,22.51c5.36,2.66,13.85,10.95,15.18,15.09"/><path d="M52.67,45.62c0.81,0.26,2.33,0.67,3.54,0.44c1.48-0.28,27.01-4.56,28.42-4.56c1.41,0,2.08,0.78,0.67,2.34c-1.41,1.56-13.2,10.49-16.77,13.32"/><path d="M65.95,55.91c17.8,8.84,10.8,53.34-1.3,36.1"/><path d="M44.25,68.72c1.12,0.52,3.17,0.6,4.3,0.52c9.47-0.65,37.41-3.97,46.52-3.82c1.87,0.03,2.99,0.25,3.93,0.51"/></svg>