<svg><path d="M12.53,40.66c2.2,0.31,4.4,0.37,6.61,0.19c5.25-0.69,14.39-2.32,20.37-3.32c1.32-0.33,2.66-0.45,4.01-0.35"/><path d="M30.61,16c1.07,1.07,1.54,2.75,1.54,5.17c0,0.75-0.03,42.09-0.05,62.7c0,5.39-0.01,9.37-0.01,10.88"/><path d="M31.44,40.53c0,2.34-1.24,5.75-2.05,7.53c-4.65,10.19-8.28,16.05-16.27,26.53"/><path d="M36.22,50.4c2.68,1.28,6.03,5.98,7.91,8.89"/><path d="M51.85,17.42c2.04,0.71,4.1,0.79,6.17,0.23c5.55-0.78,16.92-2.39,22.73-3.01c3.68-0.39,4.41,1.35,2.09,3.81c-2.9,3.07-8.73,8.65-9.96,9.68"/><path d="M61.27,25.03c3.85,1.97,8.6,4.97,11.24,8.68"/><path d="M51.32,37.27c0.83,0.83,1.09,2.34,1.09,3.05c0,2.15-0.02,28.31-0.03,43.94c0,5.77-0.01,9.84-0.01,10.25"/><path d="M52.76,38.86c5.48-0.25,27.99-3.54,34.73-4.51c4.38-0.62,5.45,0.96,5.45,4.9c0,8.51-0.18,38.22-0.18,50.33c0,9.99-5.83,1.47-7.02,0.88"/><path d="M53.76,52.93c10.99-1.43,27.61-3.18,37.75-3.84"/><path d="M53.49,67.81c7.38-1.06,27.88-3.44,38.28-3.73"/><path d="M69.66,38.98c0.93,0.93,1.3,2.15,1.3,3.14c0,0.51-0.04,24.35-0.06,38.38c-0.01,4.37-0.01,7.79-0.01,9.26"/></svg>