<svg><path d="M13.28,37.22c0.35,0.24,2.39,0.41,3.31,0.31c3.94-0.41,18.12-1.71,24.45-2.91c0.92-0.17,2.15-0.24,2.73,0"/><path d="M28.86,14.5c0.91,0.47,2.54,2,2.54,4.42c0,0.95-0.12,72.25-0.3,78.08"/><path d="M30.94,40.28c-5.1,15.04-8.94,21.4-16.83,34.56"/><path d="M33.47,45.9c2.37,1.59,7.28,6.76,9.28,9.85"/><path d="M48.75,16.27c0.55,0.45,0.56,0.77,0.87,1.34c2.49,4.69,3.24,16.55,4.78,25.3"/><path d="M50.22,18.25c9.15-0.98,29.15-3.65,35.98-4.47c2.51-0.3,3.02,1.73,2.89,2.8c-0.47,3.92-2.84,17.41-5.56,24.54"/><path d="M52.81,29.25c2.98-0.38,29.67-3.18,33.67-2.87"/><path d="M54.18,41.12c8.47-1.07,20.26-2.18,29.36-2.86"/><path d="M50.22,52.37c0.82,0.46,3.64,0.5,4.46,0.42c5.66-0.54,22.41-2.36,32.07-3.27c1.36-0.13,4.22,0.4,4.9,0.63"/><path d="M45,69.48c1.27,0.27,3.62,0.38,4.88,0.27c13.04-1.18,29.03-3.05,42.91-3.31c2.12-0.04,3.39,0.13,4.46,0.26"/><path d="M69.33,53.72c0.42,0.49,1.38,2.03,1.38,4.67c0,0.99-0.05,33.47-0.14,39.62"/></svg>