<svg><path d="M12.78,37.85c0.37,0.18,2.55,0.31,3.52,0.24c4.2-0.31,19.3-1.65,26.06-2.56c0.98-0.13,2.29-0.18,2.91,0"/><path d="M28.86,15.5c0.91,0.47,2.54,2.25,2.54,4.42c0,0.95-0.12,68.75-0.3,74.58"/><path d="M30.94,38.28c-6.15,17.21-9.57,24.49-19.08,39.56"/><path d="M33.97,45.9c2.37,1.59,4.28,4.76,6.28,7.85"/><path d="M56.58,20.88c0.03,0.59,0.06,1.52-0.06,2.36c-0.72,4.98-4.82,15.9-10.44,22.59"/><path d="M56.63,34.82c0.69,0.35,2.96,0.43,3.65,0.35c8.48-0.97,17.61-2.78,25.4-3.09c1.15-0.05,1.84,0.17,2.42,0.34"/><path d="M45.33,56.78c1.12,0.5,3.17,0.58,4.29,0.5c11.63-0.84,24.61-2.88,42.15-3.76c1.86-0.09,2.98,0.24,3.91,0.49"/><path d="M68.26,15.38c0.56,0.41,1.74,3.1,1.85,3.93c0.11,0.83-0.07,37.8-0.18,42.98"/><path d="M50.33,70.24c0.34,0.41,0.68,0.75,0.83,1.26c1.17,4.04,2.67,16.47,3.47,23.72"/><path d="M51.77,72.13c9.05-0.93,29.19-3.2,33.45-3.77c1.56-0.21,2.5,2.1,2.27,3.33c-0.92,5.08-2.38,12.13-4.36,19.45"/><path d="M55.3,92.98c7.83-0.54,25.1-1.13,30.72-1.63"/></svg>