<svg><path d="M10.53,37.83c0.37,0.26,2.58,0.44,3.57,0.34c4.25-0.44,17.39-1.38,24.23-2.68c0.99-0.19,2.32-0.26,2.94,0"/><path d="M26.86,15.5c0.91,0.47,2.54,2,2.54,4.42c0,0.95-0.12,68.75-0.3,74.58"/><path d="M28.94,40.28c-5.1,15.04-8.94,21.4-16.83,34.56"/><path d="M31.47,46.9c2.37,1.59,6.28,6.76,8.28,9.85"/><path d="M64.83,10.75c0.29,0.45,0.4,1.03,0.27,1.4c-0.97,2.74-3.99,7.89-7.24,11.01"/><path d="M46.83,24.69c0.56,0.69,0.99,2.13,1.13,3.04c0.41,2.73,2.02,18.27,2.61,25.76"/><path d="M48.3,26.33c3.19-0.12,34.14-3.19,37.03-3.39c1.84-0.13,2.59,1.3,2.59,2.76c-0.01,2.5-2.44,18.43-3.95,26.55"/><path d="M49.96,38.82c6.67-0.35,31.42-2.21,36.29-2.21"/><path d="M50.91,51.72c7.99-0.37,24.65-1.8,33.17-1.97"/><path d="M39,73.17c1.25,0.32,3.54,0.46,4.78,0.32c12.25-1.42,35.98-5.22,47.61-5.53c2.07-0.06,3.32,0.15,4.36,0.31"/><path d="M58.55,59c0.68,0.73,1.58,1.94,1.58,2.94c0,3.1,0.08,21.81,0.08,24.85c0,7.68,1.66,8.96,16.61,8.96c15.57,0,16.61-2.2,16.61-8.46"/></svg>