<svg><path d="M10.78,37.72c0.35,0.24,2.39,0.41,3.31,0.31c3.94-0.41,16.62-1.71,22.95-2.91c0.92-0.17,2.15-0.24,2.73,0"/><path d="M26.36,14.5c0.91,0.47,2.04,2.25,2.04,4.42c0,0.95-0.12,70.75-0.3,76.58"/><path d="M27.94,42.28c-5.1,15.04-7.94,21.4-15.83,34.56"/><path d="M30.47,47.9c2.37,1.59,5.28,4.76,7.28,7.85"/><path d="M90.26,15.39c0.08,0.37,0.16,0.97-0.15,1.5c-1.86,3.17-12.55,10.12-27.19,14.38"/><path d="M65.31,50.56c1.11,0.53,3.15,0.66,4.26,0.53c6.63-0.76,16.72-2.73,23.54-2.69c1.85,0.01,2.96,0.26,3.89,0.52"/><path d="M78.82,27.09c0.91,0.49,1.46,2.22,1.65,3.21c0.18,0.99,0.37,38.35,0.18,44.53"/><path d="M66.58,75.8c0.94,0.37,2.67,0.43,3.62,0.37c5.74-0.37,13.85-1.84,21.76-2.05c1.57-0.04,2.52,0.17,3.3,0.36"/><path d="M41.05,21.46c0.96,0.71,2.97,0.49,4.37,0.19c3.85-0.82,6.09-1.08,8.78-2.03c2.69-0.95,3.46,0.02,1.92,3.46c-1.41,3.16-10.38,21.63-13.07,27.35"/><path d="M43.45,51.2c2.84-0.76,7.33-2.62,11.38-3.39c2.45-0.47,3.33-0.18,2.77,3.83C55.77,64.79,50,83.25,38.12,94.35"/><path d="M41.85,60.16c4.4,1.09,23.4,24.34,42.23,32.19c2.11,0.88,4.07,0.82,7.58,1.65"/></svg>