<svg><path d="M50.72,9.68c0.02,0.25,0.04,0.64-0.04,0.99c-0.51,2.09-3.43,6.69-7.43,9.5"/><path d="M32.13,19.35c0.46,0.31,0.82,1.75,0.82,2.29c0,5.54,0.3,25.1-0.73,34.54"/><path d="M33.52,22.98c2.02-0.07,35.39-2.92,37.34-2.7c1.72,0.19,3.25,1.29,3.12,2.59c-0.21,2.06-0.92,8.97-2.11,15.12"/><path d="M33.84,31.03c2.47,0,36.16-2.44,38.96-2.44"/><path d="M33.73,38.81c5.03-0.28,31.85-2.07,38.12-2.31"/><path d="M33.03,47.04c13.4-1.09,40.65-2.8,46.42-3.13c2.79-0.16,5.41,0.05,6.42,0.21"/><path d="M32.23,56.15c8.26-0.96,46.55-4.31,51.13-4.67c2.98-0.23,3.02,1.3,2.48,2.87c-1.49,4.37-2.36,6.66-4.8,9.44c-2.32,2.64-4.3,1.01-5.63-0.99"/><path d="M14.75,72.26c2.11,0.44,4.51,0.58,6.94,0.44c12.37-0.71,48.27-3.21,66.98-4.05c2.41-0.11,3.92,0.08,6.34,0.38"/><path d="M52.96,59.75c1.02,0.41,1.84,1.81,1.84,2.65c0,8.57,0,33.49-0.2,38.6"/><path d="M52.25,71C45.5,81.5,32.5,92.75,13.5,97.75"/><path d="M55,71c5.75,5,26.5,20.5,34.2,23.81c2,0.86,3.45,1.62,5.3,1.94"/></svg>