<svg><path d="M10.53,37.72c0.38,0.24,2.62,0.41,3.63,0.31c4.32-0.41,17.67-1.21,24.62-2.41c1.01-0.17,2.36-0.24,2.99,0"/><path d="M26.86,14.5c0.91,0.47,2.54,2,2.54,4.42c0,0.95-0.12,70.75-0.3,76.58"/><path d="M28.94,39.78c-5.58,15.58-8.69,22.17-17.33,35.81"/><path d="M31.22,47.15c2.44,1.8,6.47,7.62,8.53,11.1"/><path d="M83.47,12.39c0.09,0.31,0.19,0.8-0.18,1.24c-2.17,2.61-15.12,8.33-32.16,11.84"/><path d="M48.08,24.25c0.41,0.7,1.04,2.13,1.04,3.29c0,40.16-4.21,51.46-11.87,61.71"/><path d="M49.15,37c0.9,0.39,2.54-0.07,3.43-0.13c7.49-0.54,27.97-3.19,37.8-3.96c1.49-0.12,2.39,0.18,3.13,0.38"/><path d="M54.4,47.76c1.1,0.49,3.75,0.81,5.12,0.65c8.54-0.98,22.8-2.9,27.98-3.39c2.14-0.2,3.2,1.83,3.01,3.04c-0.76,4.68-1.76,10.93-3,18.11"/><path d="M71.56,47.18c0.46,0.31,0.94,2.28,0.92,2.9c-0.14,4.45-0.14,7.53-0.13,14.43"/><path d="M57.63,66.05c3.19-0.34,26.2-1.55,29.84-1.89"/><path d="M57.2,49.31c0.14,6.35,0.49,26.21,0.49,30.5c0,14.68,0.91,15.23,18.73,15.23c18.71,0,19.12-4.92,19.12-10.69"/></svg>