<svg><path d="M12.78,37.47c0.36,0.22,2.51,0.38,3.47,0.29c4.14-0.37,19.01-2.52,25.66-3.63c0.96-0.16,2.26-0.22,2.86,0"/><path d="M28.86,14.5c0.91,0.47,2.54,2.25,2.54,4.42c0,0.95-0.12,70.75-0.3,76.58"/><path d="M30.94,39.28c-5.1,15.04-7.94,21.4-15.83,34.56"/><path d="M33.97,47.4c2.37,1.59,7.28,5.76,9.28,8.85"/><path d="M49.77,19.62c0.38,0.46,0.76,0.83,0.93,1.4c1.3,4.44,2.84,16.64,3.72,24.58"/><path d="M52.12,22.2C62,21,81.3,19.14,86.07,18.64c1.75-0.18,2.79,2.37,2.53,3.71c-1.04,5.52-2.23,9.78-4.46,17.72"/><path d="M54.8,42.7c5.6-0.56,24.47-1.38,31.58-1.9"/><path d="M69.2,44.55c0.94,1.63,0.36,3.09-0.64,4.81C65.75,54.25,62.75,60,59.1,64.83"/><path d="M49.84,64.06c0.45,0.55,0.91,1.01,1.11,1.67c1.55,5.26,2.4,18.39,3.45,27.75"/><path d="M52.64,67.5c11.03-1.54,30.11-3.21,35.8-3.62c2.08-0.15,3.33,2.89,3.02,4.44c-1.25,6.44-2.18,8.88-4.58,20.21"/><path d="M54.84,91.32c6.68-0.45,26.13-1.51,34.62-1.86"/></svg>