<svg><path d="M44.1,10.36c-0.22,0.89-0.61,1.46-1.65,2.35c-2.78,2.37-8.97,5.61-18.3,8.04"/><path d="M17.37,29.87c1.61,0.61,3.84,0.61,5.54,0.42c5.98-0.67,18.62-2.53,25.37-3.38c1.38-0.17,3.06-0.36,4.44-0.05"/><path d="M38.66,18.85c0.87,0.87,1.09,1.9,1.09,3.41c0,2.48,0.06,18.29,0.09,27.86c0.01,3.05,0.02,5.47,0.02,6.62"/><path d="M38.29,29.43c0,1.19-0.84,2.25-1.6,3.55c-4.3,7.31-10.6,15.42-18.72,21.08"/><path d="M43.62,36.12c3.94,1.8,7.28,5.4,9.41,7.71"/><path d="M65.91,19.43c0.89,0.89,1.23,2.13,1.23,3.86c0,3.58-0.01,9.86-0.01,14.71c0,2.55-0.01,4.69-0.01,5.85"/><path d="M83.06,10.58c0.99,0.99,1.23,2.04,1.23,3.61c0,8.31-0.02,31.85,0.03,34.67c0.17,8.38-5.41,0.86-6.67,0.14"/><path d="M18,67.92c3.2,1.02,6.49,0.56,9.75,0.24c11.81-1.13,35.27-3.55,50.49-4.76c3.42-0.27,6.61-0.24,10.01,0.43"/><path d="M52.5,53.5c1.31,1.31,1.75,2.75,1.75,4.75c0,8.27,0,23.29,0,33.75c0,2.82,0,5.31,0,7.25"/><path d="M49.75,66.75c0,1.12-0.57,2.02-1.33,3.16c-5.95,8.89-16.21,17.71-32.17,23.59"/><path d="M55.25,66.75c3.79,2.48,18.18,13.29,26.53,18.83c2.71,1.8,6.33,3.83,9.47,4.67"/></svg>