<svg><path d="M11.78,37.95c0.36,0.16,2.52,0.27,3.49,0.21c4.16-0.27,17-2.15,23.68-2.96c0.97-0.12,1.21-0.16,1.82,0"/><path d="M27.36,14c0.91,0.47,2.04,1.75,2.04,4.42c0,0.95-0.12,72.75-0.3,78.58"/><path d="M28.94,39.28c-5.18,14.49-8.06,20.62-16.08,33.31"/><path d="M32.47,47.4c2.6,1.52,6.21,6.7,8.41,9.64"/><path d="M81.57,14c-0.57,1-1.14,2.07-1.65,2.44c-7.18,5.11-12.73,7.74-27.08,12.77"/><path d="M49.92,27.75c0.99,1.74,1.75,3.4,1.86,5.28c0.43,6.98,0.72,26.46,1.27,34.95"/><path d="M52.38,42.63c8.8-1.18,24.88-2.83,35.57-4.32c1.6-0.22,4.39-0.19,5.4,0"/><path d="M79.41,42.31c0.26,1.18,0.56,2.44,0.39,3.8c-0.48,3.95-1.33,9.96-2.7,19.88"/><path d="M38.31,68.46c1.5,0.29,4.27,0.36,5.76,0.29c11.3-0.51,34.36-3.2,50.37-3.73c2.5-0.08,4.01,0.14,5.26,0.29"/><path d="M57.45,75.34c0.05,0.5,0.18,1.46-0.09,2.03c-3.46,7.13-8.56,13.67-17.57,19.42"/><path d="M74.44,73.68c6.34,3.51,16.37,14.42,17.96,19.88"/></svg>