<svg><path d="M10.28,38.22c0.35,0.24,2.39,0.41,3.31,0.31c3.94-0.41,18.62-1.71,24.95-2.91c0.92-0.17,2.15-0.24,2.73,0"/><path d="M27.36,15.5c0.91,0.47,2.04,2.25,2.04,4.42c0,0.95-0.12,69.75-0.3,75.58"/><path d="M28.94,38.28C23.84,53.32,19,62.75,11.61,73.34"/><path d="M32.47,47.15c2.23,1.48,5.9,7.23,7.78,10.1"/><path d="M65.25,11.75c0.77,0.42,2.05,2.03,2.05,2.87c0,3.06-0.24,7.95-0.1,10.55"/><path d="M42.94,26.78c0.98,0.07,3.22,0.48,4.17,0.38c7.7-0.79,33.54-3.06,43.31-3.27c1.62-0.03,2.44,0.03,3.64,0.48"/><path d="M64.69,28c0.57,0.44,0.38,2.9-0.05,3.4c-5.88,6.85-7.63,9.1-13.88,15.1c-3.21,3.08-1.76,3.9,1.75,3c9.56-2.46,20.5-4.5,32-7"/><path d="M76.41,35.1c4.87,2.71,12.58,11.15,13.8,15.37"/><path d="M52.22,57.89c0.26,0.62,0.52,2.25,0.46,3.51C52,77,48.25,87.5,37.31,94.47"/><path d="M65.27,56.37c0.98,1.13,1.26,1.38,1.26,3.52c0,14.56-0.26,28.16-0.26,33.12"/><path d="M79.1,54.37c1.15,1.13,1.88,2.59,1.88,4.43c0,9.45-0.53,18.64-0.53,24.2c0,8.5,1.81,10.03,8.67,10.03c7.64,0,8.39-2.78,8.39-9.12"/></svg>