<svg><path d="M11.28,40.54c1.99,0.33,4,0.41,6,0.23c5.09-0.68,14.22-1.9,20.47-3.12c1.43-0.28,2.82-0.58,4.26-0.47"/><path d="M28.61,15.25c1.19,1.19,1.79,3,1.79,5.19c0,0.95-0.12,69.22-0.3,75.06"/><path d="M29.5,40.25c0,1.88-0.89,4.44-1.43,5.9c-4.27,11.61-7.34,17.91-15.46,29.13"/><path d="M33.72,47.75c2.22,1.4,5.29,6.2,7.16,8.92"/><path d="M45.03,19.68c1.47,1.2,3.54,1.33,4.92,1.23c9.3-0.66,22.55-3.03,34.57-4.25c2.41-0.25,4.73,0.6,4.25,3.48c-0.65,3.91-1.27,4.5-2.4,8.97"/><path d="M51.23,33.7c2.75-0.18,19.35-2.08,29.77-3.15c3.68-0.38,6.49-0.66,7.5-0.72"/><path d="M48.97,21.61c0.96,0.96,1.14,2.89,1.15,4.38c0.01,24.76,0.51,49.38-11.36,64.42"/><path d="M83.53,36.82c-0.28,1.3-1.03,2.24-1.93,2.75c-6.85,3.92-11.47,6.55-23.95,10.01"/><path d="M54.16,62.28c2.84,0.72,4.65,0.53,7.25-0.11c9.34-2.3,17.03-5,23.99-6.98c1.77-0.64,3.61-0.96,5.5-0.97"/><path d="M51.32,76.57c3.31,0.93,7.08,0.21,8.94-0.31c9.5-2.63,21.12-6.38,29.69-9.29c1.86-0.63,3.66-1.16,5.61-1.04"/><path d="M69.15,49.16c0.91,0.91,1.09,2.5,1.11,3.74c0.09,5.54-0.08,27.94-0.08,31.33c0,10.65,4.07,9.31,14.01,9.31c10.36,0,12.4-1.8,12.4-7.96"/></svg>