<svg><path d="M14.03,39.98c1.6,0.39,4.14,0.27,5.37,0.12c5.38-0.65,13.5-2.94,19.24-4.07c1.49-0.29,3.12-0.66,4.38-0.55"/><path d="M27.84,17.5c1.2,1.2,1.59,2.88,1.59,4.72c0,0.78,0.14,47.82,0.18,65.78c0.01,3.03,0.01,5.24,0.01,6.25"/><path d="M28.71,40.59c0,1.16-0.28,3.04-0.57,3.92c-3.74,11.6-9.38,21.35-15.77,29.29"/><path d="M31.75,48.12c2.13,1.29,7.4,5.47,9.2,7.97"/><path d="M42.32,41.88c2.56,0.62,4.8,0.55,7.06,0.05c9.24-2.05,23.24-5.05,33.11-6.71c2.13-0.36,4.54-0.58,6.64,0.01"/><path d="M40.45,63.6c1.55,0.4,3.33,0.35,4.67,0.1c6.5-1.21,11.94-2.48,18.02-3.58c2.11-0.38,3.36-0.51,5.2-0.17"/><path d="M48.62,51.64c0.87,0.87,1.36,2.31,1.4,3.79c0.36,11.82-0.02,22.32-6.97,30.92"/><path d="M60,48.24c0.5,1.01,0.98,2.26,0.98,3.35c0,0.47,0,17.56-0.05,26.28c-0.01,2.21-0.03,3.89-0.05,4.62"/><path d="M66.17,13.96c1.19,1.71,1.67,2.18,1.93,5.87c2.15,29.8,9.77,60.3,24.45,71.45c4.71,3.58,4.02,0.73,3.42-6.85"/><path d="M86.59,46.51c0.29,0.74,0.16,2.56-0.12,3.98c-1.97,9.76-8.47,26.26-22,38.25"/><path d="M78.5,16.5c3.14,1.89,8.17,6.2,9.64,9.44"/></svg>