<svg><path d="M13.28,38.72c0.35,0.24,2.39,0.41,3.31,0.31c3.94-0.41,16.12-1.71,22.45-2.91c0.92-0.17,2.15-0.24,2.73,0"/><path d="M27.36,15c0.91,0.47,2.54,2.5,2.54,4.42c0,0.95-0.12,69.25-0.3,75.08"/><path d="M29.44,39.78c-5.1,15.04-7.94,21.4-15.83,34.56"/><path d="M32.47,46.9c2.37,1.59,6.28,6.76,8.28,9.85"/><path d="M47.05,18.04c0.46,0.69,0.92,1.03,0.92,1.95c0,0.92,3.26,25.77,3.26,26.23"/><path d="M47.59,19.17c2.6-0.12,35.91-3.29,38.28-3.43c1.97-0.11,3.31,0.77,3.09,3.47c-0.11,1.43-2.09,14.64-4.07,24.57"/><path d="M50.09,31.11c7.05-0.58,33.61-2.98,37.59-2.98"/><path d="M51.58,43.48c7.17-0.49,23.32-1.81,32.25-2.23"/><path d="M50.5,67.25c3.75-0.25,11.75-2,12.75-2s1.5-0.25,3,0"/><path d="M48.72,52.7c0.8,0.65,0.86,1.09,1.12,1.96s0.09,31.38-0.25,34.15c-0.34,2.7,0.14,4.43,3.24,1.83c3.43-2.88,8.18-5.38,12.9-8.45"/><path d="M93.42,57.04c0.24,0.32-0.12,1.94-0.68,2.34C87,63.5,82.25,66.75,75,69.94"/><path d="M71.38,50.25c1.44,0.49,1.7,3.09,1.68,3.88c-0.11,4.47-0.24,27.66-0.24,30.06c0,11.19,6.73,9.64,12.83,9.64c4.73,0,8.78-0.32,10.56-2.04c1.78-1.72,1.17-4.26,1.35-5.98"/></svg>