<svg><path d="M20.5,22.67c1.35,0.24,3.84,0.3,5.19,0.24c14.74-0.68,39.14-3.66,55.33-3.98c2.25-0.04,3.61,0.11,4.74,0.23"/><path d="M35.87,12.6c1.09,0.37,1.74,1.67,1.96,2.42c0.22,0.74,1,31.04,0.78,35.69"/><path d="M68.37,9.75c1.09,0.37,1.74,1.67,1.96,2.42c0.22,0.74-1.5,31.9-1.72,36.55"/><path d="M38.75,32.5c4-0.19,26.75-2.36,30.5-2.55"/><path d="M39,41.92c4.5-0.19,23.5-1.99,30-2.17"/><path d="M12.75,51.79c1.76,0.45,4.99,0.53,6.75,0.45C35.5,51.5,71,49,90.34,47.86c2.93-0.17,4.69,0.22,6.16,0.44"/><path d="M40.29,53.46c0.08,0.55,0.32,1.48-0.16,2.2c-3.79,5.65-13.27,14.82-28.74,21.06"/><path d="M69.52,52.35C74.5,57.5,83,63.75,88.75,68c1.55,1.14,3.25,2,5.75,2.75"/><path d="M31.13,69.92c1.34,0.44,2.87,0.58,4.42,0.44c7.87-0.71,25.72-2.71,37.63-3.55c1.53-0.11,2.5,0.08,4.03,0.38"/><path d="M52.83,53.75c0.96,0.38,1.73,1.71,1.73,2.5c0,8.07,0,38.95-0.19,43.75"/><path d="M53.21,69.76C47.02,78.08,33.75,91,17.56,95.5"/><path d="M55.33,69.57c4.92,5.18,23.42,18.68,29.6,22.18c1.67,0.94,2.93,1.54,4.51,1.85"/></svg>