<svg><path d="M12.28,39.72c0.35,0.24,2.39,0.41,3.31,0.31c3.94-0.41,17.12-2.21,23.45-3.41c0.92-0.17,2.15-0.24,2.73,0"/><path d="M27.36,16c0.91,0.47,2.04,2.5,2.04,4.92c0,0.95-0.12,70.75-0.3,76.58"/><path d="M28.94,41.28c-5.1,15.04-7.94,21.4-15.83,34.56"/><path d="M32.47,48.9c2.37,1.59,6.28,6.76,8.28,9.85"/><path d="M81.09,12.25c0.07,0.29,0.15,0.76-0.14,1.18c-1.74,2.49-14.43,9.53-28.08,12.88"/><path d="M49.75,25.37c0.53,0.92,0.88,2.25,0.88,3.7c0,1.45-0.18,25.21-0.18,27.47c0,2.25,0.18,2.9,2.48,1.29c2.3-1.61,12.82-7.33,15.96-8.81"/><path d="M50.68,37.19c11.02-0.97,29.44-2.99,38.84-4.01c1.54-0.17,3.14-0.16,4.54,0.17"/><path d="M69.04,23.15c0.53,0.44,1.64,2.86,1.87,3.57C75.75,42,80,55,90.4,61.88c6.18,4.09,5.12-2.03,4.6-7"/><path d="M51.23,66.2c0.27,0.86,0.74,1.91,0.77,2.81c0.25,6.74,2.66,23.97,2.66,28.74"/><path d="M52.64,68.62c2.17-0.11,27.5-3.22,29.47-3.35c1.65-0.11,2.7,0.9,2.7,3.26c0,6.26-1.29,26.81-1.29,27.49"/><path d="M53.4,80.75c5.1-0.5,24.85-2.25,30.25-2.45"/><path d="M54.93,94.73c5.97-0.48,21.25-1.32,28.69-1.73"/></svg>