<svg><path d="M12.78,39.47c1.85,0.41,3.95,0.25,5.37,0.06c4.54-0.62,12.95-1.7,18.39-2.72c1.13-0.21,2.72-0.43,3.73-0.19"/><path d="M29.11,16.5c1.07,1.07,1.29,2.62,1.29,4.67c0,0.78,0.22,45.91,0.05,65.32c-0.04,4.09-0.04,6.99-0.07,8"/><path d="M29.69,39.53c0,2.22-0.57,4.59-1.17,6.06C23.75,57.12,20,64,13.61,73.84"/><path d="M33.38,50.38c2.26,1.52,5.97,6.44,7.88,9.38"/><path d="M46.71,27.17c2.79,0.46,4.83,0.4,6.83,0.09c9.72-1.51,19.09-2.76,28.72-3.67c2.06-0.2,4.15-0.36,6.17,0.2"/><path d="M45.91,39.64c1.16,1.16,1.62,2.43,1.89,4.1c0.58,3.5,1.74,11.36,2.55,16.58c0.43,2.77,0.73,4.76,0.73,4.88"/><path d="M48.28,40.64c8.35-1.26,27.96-4.1,36.62-4.5c3.1-0.14,4.84,0.97,4.52,3.38c-0.75,5.69-1.64,10.15-2.91,17.23c-0.29,1.59-0.6,3.33-0.96,5.26"/><path d="M50.07,51.34c8.3-1.09,25.8-2.96,36.89-3.45"/><path d="M52.39,63.07c9.86-1.19,24.03-2.65,32.57-3.05"/><path d="M65.44,11.75c1.28,1.28,1.97,2.5,1.97,4.25c0,4.4,0.1,52.94,0.05,73.5c-0.01,3.96-0.02,6.88-0.02,8.25"/><path d="M64.94,62.25c0,2.25-1.22,3.97-3.07,6.5c-6.42,8.76-15.57,17.58-23.86,22"/><path d="M67.94,63c7.69,8.38,16.25,16.79,21.79,21.15C92.08,86,94.25,88,97.5,89.5"/></svg>