<svg><path d="M12.28,39.47c1.97,0.53,4.4,0.44,5.72,0.26c4.65-0.65,12.95-2.45,18.42-3.5c1.27-0.24,3.21-0.6,4.6-0.36"/><path d="M29.11,15.25c0.88,0.88,1.29,2.62,1.29,4.92c0,3.69,0.03,51.38,0.04,70.7c0,3.34,0,5.84,0,7.12"/><path d="M29.94,39.53c0,1.09-0.96,3.94-1.42,4.96c-5.07,11.3-8.53,17-16.91,27.85"/><path d="M33.5,47.12c2.08,1.35,5.5,5.75,7.25,8.38"/><path d="M46.06,24.57c2.57,0.56,4.87,0.39,6.95,0.19c9.48-0.92,18.25-2.29,27.86-2.83c2-0.11,3.94-0.24,5.91,0.22"/><path d="M47.61,35.97c2.27,0.41,4.1,0.11,5.91-0.07c8.98-0.9,19.02-2.55,26.35-3.16c1.94-0.16,3.89-0.3,5.8,0.19"/><path d="M42.81,47.68c2.22,0.84,4.9,0.59,7.19,0.29c13.12-1.72,29.63-3.89,39.38-4.3c2.3-0.1,4.63-0.1,6.89,0.41"/><path d="M66.08,12.5c0.67,1.25,0.85,2.61,0.51,4.53C64,31.62,59,55,39.58,69.23"/><path d="M69.6,39.63C71.12,40.38,86.25,55,90.75,59c1.34,1.19,3.5,2.5,5.67,3.71"/><path d="M54.53,63.93c1.52,0.62,3.13,0.53,4.72,0.46c5.35-0.24,13.97-1.5,18.74-1.86c1.28-0.1,2.37-0.28,3.77-0.06"/><path d="M46.97,77.59c2.41,0.41,4.87,0.3,6.94,0.1c7.84-0.74,23.93-2.33,31.48-2.43c2.02-0.03,4.2-0.02,6.17,0.45"/><path d="M66.61,52.29c0.99,0.99,1.43,2.46,1.43,4.55c0,11.31,0.01,29.16,0.01,38.16c0,2.04-0.04,3.61-0.04,4.5"/></svg>