<svg><path d="M10.28,37.81c0.37,0.26,2.57,0.44,3.56,0.34c4.24-0.44,15.18-1.33,22-2.63c0.99-0.19,2.31-0.26,2.93,0"/><path d="M24.86,15.5c0.91,0.47,2.54,2.5,2.54,4.42c0,0.95-0.12,69.75-0.3,75.58"/><path d="M26.94,41.28c-5.1,15.04-7.94,21.4-15.83,34.56"/><path d="M29.47,46.9c2.37,1.59,6.28,5.76,8.28,8.85"/><path d="M65.13,12.5c1.09,0.38,2.65,2.27,2.63,3.38c-0.08,3.5-0.08,7.52-0.08,10.7"/><path d="M47.5,27.81c0,2.96-2.86,12.48-4.16,14.45"/><path d="M47.69,30.2c7.28-0.82,37.09-4.25,42.99-4.56c9.23-0.48,1.96,5.93-0.34,7.68"/><path d="M53.35,43.99c0.67,0.27,1.89,0.35,2.56,0.27c4.25-0.47,18.37-2.19,22.88-2.26c1.11-0.02,1.78,0.13,2.34,0.27"/><path d="M44.08,59.42c1.08,0.39,3.06,0.46,4.14,0.39c8.14-0.56,27.98-3.15,41.12-3.17c1.8,0,2.88,0.18,3.78,0.38"/><path d="M66.86,61.59c0.07,0.37,1.36,1.92,1.42,4.27c0.31,11.26,0.25,22.55,0.25,26.39c0,8.15-3.5,2.93-6.74,0.19"/><path d="M54.24,71.67c0.04,0.48,0.08,1.25-0.08,1.94c-0.94,4.09-7.8,12.08-15.23,17.58"/><path d="M79.9,70.68c4.76,3.26,12.54,13.03,13.74,18.09"/></svg>