<svg><path d="M12.28,37.72c0.35,0.24,2.39,0.41,3.31,0.31c3.94-0.41,15.12-1.21,21.45-2.41c0.92-0.17,2.15-0.24,2.73,0"/><path d="M26.86,14.5c0.91,0.47,2.04,2.25,2.04,4.42c0,0.95-0.12,70.75-0.3,76.58"/><path d="M27.94,39.78c-5.58,16.56-8.69,23.56-17.33,38.06"/><path d="M31.72,47.65c2.05,1.41,6.3,6.87,8.03,9.6"/><path d="M45.94,19.89c0.54,1.2,1.11,3.61,1.11,5.78c0,6.33-0.32,64.73-0.32,68.33"/><path d="M47.04,22.79c6.99-0.96,41.6-4.51,43.01-4.8c2.45-0.49,4.97,1.76,5.02,3.88c0.07,2.63-0.55,59.11-0.55,64.63c0,10.75-6.02,3-7.34,1.44"/><path d="M57.23,27.41c2.33,1.56,6.02,6.4,6.6,8.83"/><path d="M81.42,23.19c0.02,0.36,0.05,0.94-0.04,1.46c-0.54,3.09-3.25,8.92-7.4,14.02"/><path d="M53.96,41.89c0.74,0.38,2.09,0.49,2.82,0.38c4.69-0.66,23.05-2.77,28.32-2.88c1.23-0.03,1.97,0.18,2.58,0.37"/><path d="M69.29,43.5c0.37,0.28,1.15,2.08,1.22,2.63c0.07,0.55-0.04,24.15-0.12,27.62"/><path d="M57.86,55.35c0.37,0.35,0.79,1.85,0.74,2.56c-0.24,3.14-0.01,9.53-1,15.93c-0.24,1.57,0.7,2.17,1.73,1.95c5.92-1.28,19.57-2.81,24.18-3"/><path d="M83.12,53.29c0.47,0.35,0.98,2.62,0.93,3.33c-0.55,7.13-0.53,8.13-0.77,18.13"/></svg>