<svg><path d="M13.03,37.72c0.35,0.24,2.39,0.41,3.31,0.31c3.94-0.41,17.12-1.21,23.45-2.41c0.92-0.17,2.15-0.24,2.73,0"/><path d="M29.11,14.5c0.91,0.47,2.04,2.5,2.04,4.92c0,0.95-0.12,70.75-0.3,76.58"/><path d="M30.69,40.28c-5.1,15.04-7.94,21.4-15.83,34.56"/><path d="M32.22,45.9c2.69,1.84,8.26,7.79,10.53,11.35"/><path d="M44.72,29.45c0.91,0.44,2.6,0.6,3.5,0.44c9.28-1.65,25.97-4.85,34.2-5.46c1.52-0.11,2.43,0.21,3.2,0.43"/><path d="M58.31,12.5c1.33,0.88,1.93,2.15,2.21,4.05C62.85,32.47,71.3,48,87.54,53.94c5.21,1.91,5.13-0.32,3.81-6.6"/><path d="M80.43,31.7c-0.18,0.6-0.36,1.23-0.78,1.78c-3.71,4.82-13.56,11.76-29.07,17.47"/><path d="M71.42,9.93c3.26,1.5,8.46,4.93,9.99,7.5"/><path d="M44.27,70.13c0.96,0.44,2.73,0.57,3.69,0.44c8.42-1.12,33.01-5.33,41.68-5.93c1.6-0.11,2.57,0.21,3.37,0.43"/><path d="M58.26,54.17c1.43,0.94,2.04,1.67,2.34,3.69c2.5,16.98,10.72,33.55,28.2,39.88c5.61,2.03,4.82,0.4,4.1-3.77"/><path d="M83.16,72.28c0.1,0.57,0.21,1.46-0.2,2.28C80.54,79.36,67,90.43,48.05,96.89"/><path d="M70.92,52.87c2.77,1.45,7.19,4.77,8.49,7.25"/></svg>