<svg><path d="M52.46,11.37c0.09,0.26,1.17,1.35,1.26,2.99c0.4,7.9,0.24,13.07,0.24,15.76"/><path d="M29.77,18.08c2.66,1.83,6.88,7.53,7.54,10.38"/><path d="M78.51,12.75c0.03,0.32,0.05,0.83-0.05,1.3c-0.61,2.74-4.11,8.74-8.9,12.42"/><path d="M17.32,30.13c-0.15,3.7-2.78,12.36-4.07,14.56"/><path d="M17.49,33.18c3.62,0,50-4.12,68.14-5.12c10.12-0.56,0.99,7.94-0.71,9.2"/><path d="M32.64,40.38c0.34,0.27,0.73,0.48,0.84,0.83c0.97,3.06,2.21,11.98,3.19,16.47"/><path d="M34.77,42.17c6.32-0.65,32.32-3.66,38.15-4.31c1.46-0.16,3.18,0.8,2.55,2.67c-1.01,3.04-1.87,8.86-3.59,12.99"/><path d="M36.88,55.83c8.17-0.89,29.87-2.33,37.71-2.55"/><path d="M18.75,69.54c0.99,0.19,3.66,0.85,6.29,0.56C35,69,66.08,66.3,84.29,65.37c2.64-0.14,3.96-0.12,5.96,0.5"/><path d="M53.05,57.75c0.94,0.43,1.5,1.94,1.69,2.8c0.19,0.86,0,33.07-0.19,38.45"/><path d="M52.25,68.3C45.6,77.48,28.32,90.46,14.5,95.65"/><path d="M55,68.15c4.98,3.34,26.84,19.12,32.25,22.4c1.84,1.11,3.41,1.59,5.25,1.91"/></svg>