<svg><path d="M11.78,36.22c0.35,0.24,2.39,0.41,3.31,0.31c3.94-0.41,16.62-1.71,22.95-2.91c0.92-0.17,2.15-0.24,2.73,0"/><path d="M25.86,13.5c0.91,0.47,2.36,3.49,2.54,4.42c0.18,0.93-0.12,73.25-0.3,79.08"/><path d="M28.44,36.28c-5.1,15.04-7.94,21.4-15.83,34.56"/><path d="M30.47,44.9c2.37,1.59,8.28,6.76,10.28,9.85"/><path d="M64.42,11.25c0.06,0.74,0.24,1.95-0.13,2.97c-2.54,7.16-10.09,18.79-22.46,28.42"/><path d="M63.74,15.85c4.31,4.42,22.88,18.87,27.63,22.11c1.61,1.1,3.68,1.57,5.29,1.88"/><path d="M56.25,36.55c0.3,0.14,2.11,0.16,2.4,0.14c3.08-0.16,11.09-0.94,14.7-1.65c0.48-0.1,2.55,0.07,2.8,0.14"/><path d="M48.09,47.65c0.86,0.41,1.34,0.51,3.43,0.3c9.23-0.94,22.15-2.61,27.93-3.67c3.43-0.63,4.83,1.34,2.59,4.17c-4.72,5.96-7.54,8.8-12.81,14.02"/><path d="M44.91,76.33c0.22,2.38-2.2,12.87-3.95,16.83"/><path d="M52.57,72.26C56.5,83.75,69.25,95,86.04,94.64c7.46-0.16,8.21-3.89,2.38-8.21"/><path d="M67.43,72.74c1.82,5.01,4.57,7.01,5.43,2.09"/><path d="M86.56,66.91c4.04,2.46,7.94,7.59,10.35,12.32"/></svg>