<svg><path d="M14.28,39.72c2.22,0.53,4.54,0.23,6.01,0.03c5.47-0.73,15.03-2.8,20.61-3.91c1.16-0.23,2.6-0.46,3.87-0.22"/><path d="M31.86,16.75c1.26,1.26,1.54,2.88,1.54,4.67c0,0.63-0.02,47.45-0.02,67.08c0,4.6,0,7.71,0,8.38"/><path d="M32.69,39.78c0,1.59-0.95,4.46-1.53,6.03c-4.41,11.92-8.3,17.77-15.05,29.03"/><path d="M36.5,46.75c2.65,1.94,7.12,7.88,9.25,12"/><path d="M68.95,14.79c0.95,0.95,1.35,1.96,1.35,3.46c0,3.1-0.06,7.39-0.06,10.22"/><path d="M50.73,30c0,3.15-1.83,12.97-2.66,15.07"/><path d="M51.56,32.72c11.44-2.47,31.57-5.16,38.81-5.37c7.25-0.22,4.88,3.41-0.26,7.84"/><path d="M57.27,43.84c0.82,0.82,1.23,2.04,1.23,3.51c0,0.68-0.06,28.05-0.08,43.78c0,2.12,0,4.02,0,5.62"/><path d="M59.31,46.5c5.64-1.15,15.22-2.69,20.43-3.44c3.41-0.5,4.95-0.28,4.17,3.58c-0.72,3.56-1.55,6.18-2.57,11.13"/><path d="M59.44,61.76c3.66-0.45,13.7-1.8,20.32-2.55c1.29-0.15,2.46-0.29,3.44-0.42"/><path d="M59.67,75.17c5.43-0.79,17.04-2.63,22.59-3.47c2.97-0.45,4.6,0.38,3.94,3.82c-0.8,4.2-1.94,7.98-3.02,13.69"/><path d="M59.56,92.71c3.64-0.49,13.71-1.58,21.43-2.3c1.55-0.14,3.01-0.27,4.3-0.38"/></svg>