<svg><path d="M11.78,37.72c0.35,0.24,2.39,0.41,3.31,0.31c3.94-0.41,17.62-1.71,23.95-2.91c0.92-0.17,2.15-0.24,2.73,0"/><path d="M27.36,15c0.91,0.47,2.04,2.5,2.04,3.92c0,0.95-0.12,68.75-0.3,74.58"/><path d="M28.94,39.28c-5.1,15.04-7.94,21.4-15.83,34.56"/><path d="M31.47,45.4c2.37,1.59,7.28,6.76,9.28,9.85"/><path d="M65.81,11.88c0.76,0.33,1.86,2.46,2.01,3.12c0.15,0.66,0.4,14.53,0.25,18.63"/><path d="M68.25,22.5c2,0,13.67-1.36,19.5-2.27C89.83,19.9,90.75,20.08,92,20"/><path d="M49.16,34.67c0.69,1.17,1.6,1.54,1.82,3.11c0.6,4.28,2.2,17.63,2.23,21.22"/><path d="M51.36,36.11c3.89-0.19,34.04-3.86,37.55-3.37c1.39,0.19,2.73,1.73,2.2,3.69c-1,3.69-3.09,14.55-4.92,21.16"/><path d="M52.14,45.81c6.64-0.43,30.55-2.72,36.5-2.72"/><path d="M53.88,56.36c9.56-0.74,27.05-2.33,31.91-2.33"/><path d="M41.88,72.21c1.19,0.46,3.38,0.58,4.57,0.46c10.3-1.09,37.82-3.46,47.51-3.42c1.99,0.01,3.18,0.22,4.17,0.45"/><path d="M68.73,58.75c0.44,0.55,1.38,1.63,1.47,2.74c0.09,1.1-0.06,28.62-0.15,35.51"/></svg>