<svg><path d="M11.78,38.72c0.35,0.24,2.39,0.41,3.31,0.31c3.94-0.41,17.62-1.71,23.95-2.91c0.92-0.17,2.15-0.24,2.73,0"/><path d="M26.86,14c0.91,0.47,1.86,3.49,2.04,4.42c0.18,0.93-0.12,72.75-0.3,78.58"/><path d="M28.94,41.28c-5.1,15.04-7.94,21.4-15.83,34.56"/><path d="M31.47,47.4c3.28,3.1,5.53,6.85,7.28,10.85"/><path d="M64.97,12.25c0.28,0.75,0.98,1.99,0.98,3.12c0,1.13,0,6.76,0,9.84"/><path d="M45.25,27c1.39,0.36,3.02,0.52,4.4,0.36c9.6-1.11,27.87-2.93,35.52-3.53c2.31-0.18,3.7,0.17,4.86,0.35"/><path d="M54.31,33.28c3.8,3.98,5.53,8.05,5.87,10.67"/><path d="M80.93,28.32c0.32,1.18,0.43,1.81,0.33,2.26c-0.66,3.06-6.81,12.26-8.47,14.6"/><path d="M43.19,48.47c1.39,0.25,3.02,0.42,4.39,0.25C59.5,47.25,78.5,45,90.3,44.67c2.31-0.06,3.7,0.12,4.85,0.25"/><path d="M64.07,50.74c0.37,1.07,0.25,2.48-0.18,3.76c-2.17,6.43-5.38,16.67-10.37,23.78c-0.73,1.04-0.19,1.86,0.56,1.87C67,80.25,80,85.75,89.35,95.21"/><path d="M81.25,57.88c0.1,0.95,0.17,3.26-0.21,4.64C77.96,73.66,64.75,92,47.08,97.25"/><path d="M41.29,67.03c0.76,0.28,4.15,0.35,4.91,0.28c12.05-1.06,31.05-3.31,46.91-3.56c1.26-0.02,3.44,0.27,4.47,0.77"/></svg>