<svg><path d="M11.78,38.22c0.35,0.24,2.39,0.41,3.31,0.31c3.94-0.41,18.12-2.21,24.45-3.41c0.92-0.17,2.15-0.24,2.73,0"/><path d="M27.86,13.5c0.91,0.47,2.54,2.25,2.54,4.92c0,0.95-0.12,71.25-0.3,77.08"/><path d="M29.94,40.28c-5.1,15.04-7.94,21.4-15.83,34.56"/><path d="M32.47,45.9c2.37,1.59,6.28,6.76,8.28,9.85"/><path d="M66.9,12c0.73,0.48,1.94,2.32,1.94,3.27c0,3.5-0.23,5.78-0.1,8.74"/><path d="M43.04,25.58c0.93,0.08,3.05,0.54,3.95,0.43c7.29-0.91,34.33-3.25,44.73-3.87c1.53-0.09,2.31,0.04,3.45,0.55"/><path d="M53.39,32.88c0.32,0.27,0.64,0.5,0.78,0.84c1.1,2.69,2.29,9.7,3.05,14.54"/><path d="M55.37,33.8c7.76-1.13,21.51-3.03,25.51-3.41c1.46-0.14,2.34,1.4,2.13,2.22c-0.87,3.39-1.1,5.9-2.95,10.78"/><path d="M57.53,45.98c4.7-0.43,19.53-1.73,25.49-2.16"/><path d="M51.99,54.82c1.51,0.68,3.19,1.15,4.6,0.94c6.92-1.01,19.67-3.26,26.33-4.65c1.6-0.33,2.99,1.42,1.36,2.98c-1.63,1.56-8.02,6.4-17.07,11.82"/><path d="M66.4,66.75c4.85,8.25,7.35,15,3.6,26.88c-1.98,6.29-6.6,0.49-8.02,0"/><path d="M42.1,75.47c1.06,0.56,3.81,0.76,5.72,0.62c6.68-0.49,35.16-4.29,44.19-4.44c1.91-0.03,3.6,0.19,4.87,0.75"/></svg>