<svg><path d="M11.78,38.22c0.35,0.24,2.39,0.41,3.31,0.31c3.94-0.41,14.12-1.21,20.45-2.41c0.92-0.17,2.15-0.24,2.73,0"/><path d="M26.86,17c0.91,0.47,2.04,2.25,2.04,4.42c0,0.95-0.12,67.25-0.3,73.08"/><path d="M28.44,40.28c-5.1,15.04-7.94,22.4-15.83,35.56"/><path d="M30.97,46.4c2.37,1.59,6.28,5.76,8.28,8.85"/><path d="M64.65,15.25c0.51,0.37,1.24,1.32,1.23,2.39c-0.04,3.36-0.04,8.86-0.04,11.92"/><path d="M46.51,29.48c0,3.34-2.31,12.54-3.36,14.77"/><path d="M47.11,32.13C53.25,31,83.85,28.28,88.47,28c7.67-0.47,3.71,5.17,0.03,8.67"/><path d="M58.52,39.75c0.07,0.54,0.11,1.4-0.15,2.19C56.13,48.72,53.06,53.92,45,61"/><path d="M73.01,35.22c0.94,1.02,1.68,2.22,1.74,3.78c0.12,3.5,0.06,6.81,0.06,9.56c0,5.19,1.19,6.81,8.43,6.81c3.74,0,7.91-1.05,9.76-1.62"/><path d="M49.67,67.98c1.02,0.53,3.21,0.63,4.25,0.55c9.17-0.77,18.31-2.04,29.86-2.84c1.57-0.11,3,0.11,4.29,0.55"/><path d="M66.58,68.95c0.96,1.25,0.96,2,0.96,3c0,7,0.15,11.3,0.15,19.3"/><path d="M39.75,92.55c0.72,0.32,4.53,0.61,5.75,0.51c9.53-0.8,32.98-2.55,47.44-3.28c1.96-0.1,4.32,0.53,5.3,1.03"/></svg>