<svg><path d="M12.28,38.22c0.35,0.24,2.39,0.41,3.31,0.31c3.94-0.41,15.12-1.71,21.45-2.91c0.92-0.17,2.15-0.24,2.73,0"/><path d="M25.86,14c0.91,0.47,2.54,2.5,2.54,4.42c0,0.95-0.12,71.25-0.3,77.08"/><path d="M27.94,40.28c-5.1,15.04-7.94,21.4-15.83,34.56"/><path d="M30.97,46.9c2.37,1.67,6.28,7.11,8.28,10.35"/><path d="M44.39,18.89c0.55,0.43,1.83,1.86,1.83,4.08c0,0.87-0.07,66.49-0.18,71.86"/><path d="M46.37,20.37c1.83-0.11,14.48-2.38,16.15-2.51c1.39-0.11,2.11,1,2.18,1.88c0.1,1.35-0.66,27.02-0.66,27.68"/><path d="M46.69,33.74c4.5-0.65,12.31-1.49,17.82-2.03"/><path d="M46.87,47.07c5.88-0.82,11.81-1.73,17.2-2.31"/><path d="M73.03,16.67c0.31,0.59,1.1,1.84,1.13,2.63c0.09,1.95,0,21.2,0,26.11"/><path d="M74.18,18.23c5.57-1.48,15.33-3.12,16.95-3.24c1.35-0.1,2.13,1.07,2.12,1.66c-0.35,18.04-0.36,58.1-0.35,71.18c0,10.7-4.14,5.01-7.07,1.41"/><path d="M74.5,30.09c2.41,0,14.88-1.85,17.61-1.85"/><path d="M74.18,43.83c3.56,0,14.1-1.65,18.71-1.65"/></svg>