<svg><path d="M12.28,40.33c2.16,0.53,4.32,0.6,6.5,0.22c5.25-0.52,14.61-2.05,20.88-2.89c1.52-0.31,3.06-0.42,4.61-0.34"/><path d="M30.86,15.75c1.19,1.19,1.54,2.88,1.54,4.92c0,0.77-0.02,45.11-0.02,65.2c0,4.69,0,8.07,0,9.25"/><path d="M31.69,40.28c0,2.09-1.52,6.12-2.44,8.02C25.12,56.88,20.38,66,11.86,76.84"/><path d="M35.72,48.65c2.84,1.87,6.02,4.76,8.41,8.39"/><path d="M49.85,18.94c0.85,0.85,1.59,2.16,1.74,3.12c0.48,3.03,1.99,13.86,3.02,21.41c0.39,2.86,0.72,5.25,0.89,6.56"/><path d="M51.72,20.12c6.99-0.88,24.15-2.87,33.4-3.49c3.28-0.22,4.86,1.5,4.37,4.78c-0.78,5.11-1.95,12.38-3.35,19.99c-0.38,2.07-0.78,4.16-1.19,6.24"/><path d="M54.08,34.08c8.67-1.08,25.79-2.58,32.73-2.86"/><path d="M56.41,47.51c6.84-0.76,19.22-2.01,27.98-2.37"/><path d="M49.52,61.74c0.81,0.81,1.16,1.95,1.31,3c0.44,3.09,1.81,14.2,2.73,21.78c0.5,4.12,0.86,7.2,0.86,7.39"/><path d="M51.71,62.62c8.92-1.24,25.92-2.99,38.17-4.2c4.26-0.42,5.33,1.68,4.87,5.58c-0.67,5.61-1.66,15.13-2.66,22.48c-0.31,2.25-0.61,4.3-0.91,5.97"/><path d="M53.19,76.97c11.56-1.35,26.31-2.6,39.39-3.34"/><path d="M55.56,92.02C66,91.12,79.38,90,90.52,89.44"/></svg>