<svg><path d="M 15.53,37.67 c 1.76,0.35 3.51,0.34 5.25,-0.01 4.47,-0.62 12.18,-1.65 17.35,-2.44 1.12,-0.27 2.25,-0.36 3.39,-0.28"/><path d="M 29.86,18 c 1.01,1.01 1.54,3 1.54,5.92 0,2.56 0,41.82 -0.02,61.08 0,4.8 -0.01,8.38 -0.01,9.88"/><path d="M 30.94,37.78 c 0,1.97 -0.69,3.59 -1.5,5.66 -5.06,12.87 -8.49,19.46 -16.83,31.9"/><path d="M 34.5,48.88 c 2,1.03 5,5.47 7.13,8.41"/><path d="M 44.25,30.83 c 2.07,0.51 4.15,0.57 6.25,0.18 10.72,-1.18 22.26,-3.1 36.38,-3.47 2.11,-0.19 4.2,-0.07 6.28,0.36"/><path d="M 55.27,17.98 c 0.9,0.9 1.38,1.94 1.45,3.12 0.92,6.98 2.02,14.38 2.28,16.9"/><path d="M 78.66,14.91 c 0.59,0.84 0.55,1.84 0.29,3.13 -1.58,7.6 -2.3,11.85 -4.02,19.01"/><path d="M 56.36,44.69 c 0,1.39 -0.54,3.27 -1.08,4.46 -3.51,7.76 -10.47,17.5 -15.11,22.63"/><path d="M 51.38,59.38 c 0.81,0.81 1.15,2.03 1.15,3.15 0,6.63 -0.01,17.6 -0.02,25.1 0,2.94 -0.01,5.34 -0.01,6.75"/><path d="M 89.16,52.6 c -3.193536,5.853194 -9.295906,9.86996 -16.381513,13.460665"/><path d="M 71.62,44.21 c 0.96,0.96 1.15,2.16 1.15,3.64 0,3.25 -0.07,25.94 -0.07,34.91 0,6.49 0.8,9.87 11.3,9.87 11.5,-0.01 12,-1.88 12,-9.37"/></svg>