<svg><path d="M12.28,37.72c0.35,0.24,2.39,0.41,3.31,0.31c3.94-0.41,15.12-2.21,21.45-3.41c0.92-0.17,2.15-0.24,2.73,0"/><path d="M25.36,14.5c0.91,0.47,2.86,3.49,3.04,4.42c0.18,0.93-0.12,70.75-0.3,76.58"/><path d="M27.94,41.28c-5.1,15.04-7.94,21.4-15.83,34.56"/><path d="M30.47,46.9c2.37,1.59,7.28,8.76,9.28,11.85"/><path d="M45.5,19.02c0.52,1.36,1.28,2.37,1.29,4.17c0.1,13.52,0.1,45.49-0.22,71.3"/><path d="M47.91,22.23c12.5-1.56,36.04-3.98,44.41-3.98c1.91,0,2.5,1.99,2.43,5.21c-0.35,15.87-0.69,47.6-0.35,68.67"/><path d="M55.61,36.21c0.57,0.36,2.43,0.53,3.01,0.51c6.26-0.22,15.12-1.72,23.77-2.33c0.88-0.06,1.68,0.16,2.41,0.47"/><path d="M70.59,37.09c0.81,0.75,0.81,2.37,0.81,2.95c0,4.04,0.41,28.33,0.21,32.36"/><path d="M59.74,54.25c0.5,0.34,2.13,0.61,2.64,0.57c2.9-0.24,11.62-1.32,16.76-2.38c0.61-0.13,1.98-0.01,2.9,0.32"/><path d="M55.38,74.95c0.4,0.21,1.92,0.34,2.59,0.3c8.28-0.5,20.81-2.05,27.03-2.14c1.08-0.02,2.37-0.05,2.91,0.27"/><path d="M79.71,59.51c2.09,1.57,3.89,4.91,4.34,6.87"/><path d="M47.23,91.67c9.06,0,34.66-1.99,47.17-2.38"/></svg>