<svg><path d="M11.28,36.72c0.35,0.24,2.39,0.41,3.31,0.31c3.94-0.41,15.12-1.71,21.45-2.91c0.92-0.17,2.15-0.24,2.73,0"/><path d="M26.36,15.5c0.91,0.47,2.04,2.5,2.04,4.42c0,0.95-0.12,68.75-0.3,74.58"/><path d="M27.94,39.28c-5.1,15.04-7.94,21.4-15.83,34.56"/><path d="M30.47,44.9c2.37,1.59,4.28,3.76,6.28,6.85"/><path d="M50.13,18.21c0.03,0.58,0.06,1.5-0.06,2.34c-0.69,4.93-3.49,15.24-8.55,23.36"/><path d="M48.77,34.72c1.2,0,1.47,0.14,2.06,0c2.98-0.72,6.41-1.22,12.65-2.41c1.04-0.2,1.95-0.23,2.44-0.04"/><path d="M37.47,57.71c0.43,0.3,2.9,0.44,3.38,0.42c6.9-0.38,17.15-1.63,22.94-2.7c0.59-0.11,1.91-0.19,3.24,0.32"/><path d="M54.25,37.41c0.28,1.27,0.41,2.52,0.41,4.1c-0.13,27.34-6.67,41.77-17.43,50.17"/><path d="M55.38,69.75C60.67,73.77,65.42,80.67,66.34,85"/><path d="M70.79,41.44c0.28,0.72,0.57,1.32,0.69,2.22c0.97,7.13,2.13,26.79,2.79,39.59"/><path d="M71.99,44c6.53-1.25,16.28-2.25,21.44-3.09c1.39-0.23,3.22,1.16,3.02,2.58c-0.84,5.88-2.2,25.76-3.06,35.09"/><path d="M74.42,80.56c7.08-0.81,12.83-1.56,21.86-2.31"/></svg>