<svg><path d="M10.78,35.22c0.35,0.24,2.39,0.41,3.31,0.31c3.94-0.41,16.12-1.21,22.45-2.41c0.92-0.17,2.15-0.24,2.73,0"/><path d="M25.86,12.5c0.91,0.47,2.04,2.5,2.04,4.42c0,0.95-0.12,73.75-0.3,79.58"/><path d="M27.44,37.78c-5.18,15.8-8.06,22.48-16.08,36.31"/><path d="M29.47,44.9c2.37,1.59,7.28,8.76,9.28,11.85"/><path d="M55,18.98c0.03,0.39,0.17,1.1-0.06,1.57c-2.24,4.5-5.18,9.61-10.62,15.01"/><path d="M78.01,18.67c4.8,2.19,12.39,8.98,13.59,12.38"/><path d="M50.53,34.03c1.07,0.26,3.04,0.33,4.11,0.26c6.84-0.45,16.76-2.42,24.72-2.67c1.79-0.06,2.86,0.12,3.76,0.26"/><path d="M43.13,49.14c1.01,0.38,2.86,0.49,3.86,0.38c6.42-0.66,36.89-3.83,43.11-3.38c1.67,0.12,2.69,0.18,3.53,0.37"/><path d="M66.37,12.42c0.26,1.04,0.45,2.78,0.04,4.78c-4.17,20.2-10.91,43.55-26.56,54.97"/><path d="M69.82,32.98c3.47,6.53,18.42,27.86,22.25,32.64c1.3,1.62,2.97,2.32,4.26,2.78"/><path d="M50.39,71.51c0.91,0.35,2.06,0.31,2.85,0.19c6.5-0.96,23.12-3.53,26.72-3.88c2.34-0.23,2.99,1.04,2.86,2.66c-0.34,4.27-2.58,15.28-7.65,22.53c-2.57,3.68-3.31,4-5.6,0"/><path d="M66.82,56.93c0.07,0.79,0.03,2.02-0.14,3.18c-1.42,9.39-6.92,29.39-24.96,36.68"/></svg>