<svg><path d="M9.53,39.22c1.72,0.53,4.72,0.42,6.1,0.28c4.77-0.48,13.01-1.52,18.28-2.47c1.1-0.2,2.35-0.4,3.86-0.16"/><path d="M25.46,14.83c1.13,1.13,1.29,2.5,1.29,4.42c0,0.81,0.11,49.79,0.1,69.75c0,3.37,0,5.91,0,7.25"/><path d="M26.19,39.03c0,1.59-0.43,3.73-0.88,5.02C20.85,56.78,17.02,65.3,9.86,75.59"/><path d="M29.75,49.75c2.08,1.37,5.5,5.83,7.25,8.5"/><path d="M46.21,26.49c2.67,0.39,4.83,0.4,6.81,0.13c9.11-1.24,17.77-2.29,25.73-2.91c2.12-0.17,4.27-0.46,6.35,0.12"/><path d="M46.96,38.07c2.41,0.43,4.56,0.25,6.4,0.03c6.23-0.75,14.02-1.85,24.15-3.02c2.14-0.25,4.7-0.43,6.8,0.23"/><path d="M39.71,51.66c3.54,0.84,6.48,0.75,9.29,0.33c8.72-1.31,22.74-3.11,37-3.94c2.88-0.17,5.96-0.35,8.77,0.42"/><path d="M65.76,12.25c0.49,1,0.66,1.55,0.35,3.8c-1.83,13.27-8.85,48.45-29.35,61.8"/><path d="M67.8,41.83C71,44.3,81.93,58.89,88.99,65.89c2.89,2.86,5.14,5.49,8.01,7.08"/><path d="M52.7,66.02c0.83,0.83,0.93,1.98,0.93,3.52c0,0.75,0,13.64,0,22.09c0,2.18,0,4.07,0,5.38"/><path d="M53.95,67.14c1.62-0.1,15.51-2.09,20.8-2.79c2.84-0.38,4.18,0.19,4.18,3.27c0.01,6.47,0.05,27.4,0.05,28.04"/><path d="M55.03,79.98c4.22-0.35,19.49-2.3,22.41-2.3"/><path d="M54.91,94.09c5.27-0.51,15.59-1.59,23.27-2.06"/></svg>