<svg><path d="M12.28,40.72c0.35,0.24,2.39,0.41,3.31,0.31c3.94-0.41,13.62-1.71,19.95-2.91c0.92-0.17,1.15-0.24,1.73,0"/><path d="M25.36,14.5c0.91,0.47,2.54,2,2.54,4.42c0,0.95-0.12,71.75-0.3,77.58"/><path d="M26.94,43.28c-5.58,14.6-8.69,20.78-17.33,33.56"/><path d="M30.47,50.4c2.37,1.36,5.66,6.01,7.66,8.64"/><path d="M58.96,16c0.03,0.28,0.13,0.8-0.07,1.12c-2.4,3.92-5.95,7.52-12.2,10.68"/><path d="M44.19,26.75C45,27.25,45.48,29,45.64,30c0.16,1,0,58.25-0.16,64.5"/><path d="M45.82,40.75c4.99-0.75,11.08-1.88,12-2c1.04-0.13,1.85,0,2.77,0.25"/><path d="M45.95,56.25c4.99-0.75,11.69-2.38,12.61-2.5c1.04-0.13,1.85,0,2.77,0.25"/><path d="M36.5,76.42c0.74,1.08,1.76,1.72,3.12,0.99c0.8-0.43,16.6-9.34,20.01-11.41"/><path d="M71.39,20.6c0.5,0.58,0.34,1.7,0.33,2.66c-0.14,9.91-1.53,21.33-5.63,25.49"/><path d="M72.26,21.62c2.47-0.3,8.8-2.12,10.96-2.48c1.74-0.29,2.59,0.61,2.41,2.79c-0.32,3.79-0.86,10.19-0.86,13.97c0,5.24-0.57,10.02,5.68,10.02c4.11,0,5.81-1.67,5.81-8.85"/><path d="M69.48,57.32c1.17,0.37,1.29,0.79,3.65,0.37C77,57,85.09,54.68,86.69,54.13c1.61-0.55,3.43,0.61,2.69,2.55C83.75,71.5,74.08,85.25,61.03,93.67"/><path d="M66.99,61.76c2.93,0.72,17.24,20.04,27.44,27.96c1.59,1.23,2.75,2.05,4.22,2.46"/></svg>