<svg><path d="M12.03,39.22c1.72,0.78,4.3,0.74,5.98,0.58c5.13-0.49,14.88-2.6,20.77-3.78c1.4-0.28,3.47-0.76,4.74-0.4"/><path d="M29.11,15.25c1.19,1.19,1.54,2.88,1.54,4.92c0,0.79-0.02,48.24-0.02,68.33c0,4.1,0,7.06,0,8.25"/><path d="M29.44,39.53c0,1.34-0.89,4.35-1.43,5.65c-4.38,10.44-7.63,17.06-16.15,28.91"/><path d="M33.25,48.38c2.25,2.25,5.5,6.88,7,10.88"/><path d="M51.88,14.88c1.06,1.06,1.46,2.39,1.67,3.88c0.62,4.41,1.79,12.88,2.55,18.38c0.39,2.86,0.68,4.92,0.71,5.19"/><path d="M54.12,17c6.09-0.87,18.3-2.14,25.9-2.82c2.97-0.27,5.16-0.2,4.87,3.44c-0.45,5.7-1.39,13.46-2.04,18.62c-0.28,2.18-0.51,3.89-0.63,4.8"/><path d="M55.94,28.55c6.68-0.68,21.06-2.18,26.91-2.5"/><path d="M57.88,40.9c4.33-0.62,17-1.52,23.37-1.96"/><path d="M44.6,51.15c2.5,0.72,5.63,0.41,8.17,0.11c12.99-1.51,23.74-2.89,38.11-3.52c2.65-0.12,5.25-0.12,8,0.54"/><path d="M58.19,53.59c0.08,0.9-0.14,2.12-0.63,2.93C54.62,61.25,50,67.25,42.5,72.5"/><path d="M57.87,61.96c2.38,0.54,4.2,0.34,5.9,0.13c6.38-0.8,19.79-2.84,24.73-3.37c3.79-0.41,5.4,0.95,4.83,4.82c-0.43,2.93-2.73,18.82-8.15,28.84c-3.1,5.75-3.96,5.43-7.85,1.43"/><path d="M64.12,65.56c0.14,1.19-0.29,2.19-0.8,3.23C60.59,74.3,55,80.65,45.75,86.25"/><path d="M78.63,63.44c0.09,0.85,0.04,2.22-0.44,3.41c-3.19,7.9-11.19,19.4-23.99,28"/></svg>