<svg><path d="M10.78,37.97c1.24,0.86,4.74,0.39,6.12,0.18c4.67-0.73,12.58-2.38,17.87-3.43c1.26-0.25,2.48-0.59,4.5-0.35"/><path d="M27.36,15.25c1.07,1.07,1.54,2.38,1.54,3.92c0,5.31-0.02,45.78-0.02,65.45c0,4.23,0,7.5,0,9.25"/><path d="M28.38,38.62c0,1.38-0.67,3.66-1.17,4.9c-4.14,10.25-10.41,22.65-16.34,30.56"/><path d="M31.38,46.5c2.26,1.78,5.97,7.55,7.88,11"/><path d="M45.33,17.98c1.1,1.1,1.15,2.4,1.15,4.13c0,22.12,0.78,50.64-9.47,65.89"/><path d="M47.35,19.55C57.5,18,77.81,15.5,80.8,15.5s4.31,1.01,4.11,4.98c-1.17,23.77-0.79,50.77,8.1,65.57c4.07,6.77,4.74,3.21,4.49-3.14"/><path d="M75.08,22.62c-0.08,1-0.53,1.76-1.43,2.3c-2.88,2.62-10.64,6.52-20.38,9.21"/><path d="M52.51,43.58c0.83,0.83,1.24,1.67,1.48,2.8c0.73,3.53,1.05,6.59,1.92,13c0.15,1.1,0.32,2.29,0.5,3.61"/><path d="M54.34,44.78c7.3-0.94,14.49-1.85,19.54-2.32c2.01-0.19,3.74,0.35,3.38,2.83c-0.62,4.3-1.64,9.45-2.48,13.68"/><path d="M57.6,61.02c4.39-0.31,9.15-0.69,14.78-0.92c1.46-0.06,2.98-0.1,4.57-0.14"/><path d="M64.84,33.19c0.67,0.67,0.96,1.81,0.96,3.19c0,6.83-0.06,37.22-0.06,41.37"/><path d="M51.81,81.14c1.34,1.55,2.49,1.76,4.41,1.1c6.16-2.12,13.48-4.53,20.03-6.99"/><path d="M73.75,68.25c2.2,2.94,6.71,11.21,7.46,15.04"/></svg>