<svg><path d="M11,39.96c0.56,0.16,2.24,0.13,3.71,0c5.2-0.47,11.69-1.25,17.26-1.56c1.48-0.08,2.6-0.47,3.53-0.31"/><path d="M23,16.5c1.25,0.5,2,2.25,2.25,3.25s0,69.25-0.25,75.5"/><path d="M24.75,40.5c-2.81,10.33-11.16,27.65-17,33.5"/><path d="M26.5,49.25c3.22,2.21,6.66,6.63,8.5,10.5"/><path d="M37.92,21.52c0.54,0.35,2.86,0.98,3.81,0.75c1.88-0.44,15.67-3.05,17.65-3.5c1.98-0.44,2.66,1.87,1.47,3.32c-2.03,2.49-7.21,10.24-8.46,12.02"/><path d="M43.64,31.41c2.53,1.08,9.07,5.23,10.26,8.05"/><path d="M36.59,47.33c0.59,0.2,1.47,1.06,3.96,0.69c5.1-0.76,16.05-2.81,20.91-3.92c9.24-2.11,2.78,4.65-0.22,8.9"/><path d="M52.86,48.88c0,8.59,0.21,21.47,0.21,38.18c0,11.49-5.2,1.43-6.86,0.72"/><path d="M51.99,48.46c0.05,0.71,0.29,1.92-0.1,2.86C48.75,58.94,44.19,68.57,34,78.71"/><path d="M65.25,35.37c0.46,0.19,1.45,0.3,2.67,0.19c4.31-0.38,15.86-1.7,24.28-2.64c1.22-0.14,2.29-0.19,3.05,0"/><path d="M77.75,13.5c1.25,0.5,2,2.25,2.25,3.25s0,73.25-0.25,79.5"/><path d="M79.75,37.5c-2.72,13.34-11.19,31.91-17.5,38.75"/><path d="M80.75,36.75c4.6,14.2,11.96,32.41,15.7,38.01c1.06,1.6,1.66,2.7,2.55,3.24"/></svg>