<svg><path d="M11.28,37.77c0.36,0.29,2.52,0.49,3.49,0.37c4.16-0.48,15.94-1.43,22.62-2.87c0.97-0.21,2.27-0.29,2.88,0"/><path d="M26.86,17c0.91,0.47,2.54,2,2.54,4.42c0,0.95-0.12,67.25-0.3,73.08"/><path d="M28.94,38.78c-5.98,15.91-9.19,24.72-18.58,36.56"/><path d="M31.47,47.9c2.37,1.59,6.28,6.76,8.28,9.85"/><path d="M46.64,26.04c1.11,0.71,2.98,0.6,4.9,0.53c8.96-0.32,19.96-1.82,29.67-2.51c2.1-0.15,4.04-0.07,5.89,0.55"/><path d="M46.72,39.82c0.26,0.41,0.53,0.75,0.65,1.27c0.91,4.08,2.97,14.33,3.6,21.66"/><path d="M47.7,41.64c9.05-1.14,36.37-3.27,39.45-3.65c1.92-0.24,2.92,1.36,2.62,3.64c-0.87,6.62-2.84,15.37-3.92,19.86"/><path d="M55.06,47.33c1.68,1.66,4.35,6.81,4.77,9.38"/><path d="M79.11,46.14c0.01,0.22,0.03,0.57-0.03,0.88c-0.33,1.86-2.2,5.94-4.76,8.44"/><path d="M50.76,61.93c8.6-0.92,27.19-1.69,35.23-2.14"/><path d="M65.15,13.25c0.87,0.5,1.39,2.25,1.56,3.25c0.17,1,0,74.75-0.17,81"/><path d="M66.54,60.75c-4.94,9.9-17.77,23.9-28.04,29.5"/><path d="M66.87,61c3.85,3.51,20.4,20.55,24.58,24c1.42,1.17,2.63,1.67,4.05,2"/></svg>