<svg><path d="M16.5,25.75c2.22,0.18,4.43,0.12,6.63-0.18c6.63-0.76,14.19-1.86,21.12-2.32c2-0.13,3.5-0.25,4.75,0"/><path d="M34.75,13.25c0.94,0.94,1.25,2.38,1.25,3.5c0,1.03,0,27.38,0,33.5"/><path d="M35.25,25.75c0,1.12-1.18,3.34-1.96,4.49C28.84,36.8,20.56,45.31,14.5,48.5"/><path d="M39.75,31.5c2.64,1.41,5.94,4.03,8.25,6.25"/><path d="M56,21.75c2.12,0.29,4.25,0.33,6.38,0.13c5.37-0.35,11.83-1.19,20.61-2.16c2-0.34,4-0.33,6.02,0.03"/><path d="M71.25,9.25c0.94,0.94,1.25,2.38,1.25,3.5c0,1.03,0,26.75-0.25,33"/><path d="M71.5,21.5c0,1.38-0.79,3-1.59,4.21c-4.66,7.04-11.2,13.94-18.16,18.79"/><path d="M73.25,22.25c4.01,4.42,9.26,9.74,13.84,13.26c2.19,1.99,4.66,3.49,7.41,4.49"/><path d="M24.58,55.9c3,0.66,5.96,0.64,8.92,0.1c14.5-2.62,31.25-4.38,46.54-4.75c8.55-0.21,4.97,3.08-0.62,8"/><path d="M53.25,55.58c1.02,1.02,1.25,2.17,1.25,3.41c0,6.51,0,16.76,0,25.84"/><path d="M54.76,70.06c5.83-0.61,10.87-0.93,19.25-1.87c1.77-0.2,3.75-0.2,5.53-0.07"/><path d="M35.43,63.54c0,0.96-0.01,1.94-0.36,2.96c-3.45,10.12-8.33,17.24-18.74,27.24"/><path d="M32.21,75.29c6.49,2.5,25.32,12.85,40.82,18.12c6.04,1.96,12.19,3.5,18.44,4.6"/></svg>