<svg><path d="M12.28,37.85c0.36,0.18,2.47,0.31,3.42,0.24c4.08-0.31,16.68-1.65,23.24-2.56c0.95-0.13,2.23-0.18,2.82,0"/><path d="M27.36,13.5c0.91,0.47,2.54,2.25,2.54,4.42c0,0.95-0.12,71.75-0.3,77.58"/><path d="M29.44,39.28c-5.66,16.23-8.81,23.1-17.58,37.31"/><path d="M32.47,48.9c2.37,1.59,6.28,6.76,8.28,9.85"/><path d="M46,16.9c0.24,0.33,0.98,1.11,1.09,1.53c0.83,3.3,3.32,13.39,3.89,19.32"/><path d="M47.49,19.05c5.3-1.39,38.36-4.8,41.21-5.06c2.55-0.24,3.92,1.2,3.65,3.2c-0.58,4.17-2.49,10.84-4.02,16.8"/><path d="M61.81,17.3c0.03,0.36,0.58,1.45,0.65,2.2c0.36,3.8,1.16,11.61,1.3,13.68"/><path d="M75.44,15.93c0.31,0.57,0.46,1.11,0.45,1.82c-0.07,4.44-0.46,12.39-0.74,14.28"/><path d="M51.73,34.95c3.29-0.49,32.72-3.53,37.24-4.29"/><path d="M67.94,38.25c0.74,0.41,1.96,2.01,1.96,2.83c0,3.03-0.23,5.69-0.1,8.26"/><path d="M44.5,51.58c1.26,0.27,3.92,0.47,5.08,0.37c9.38-0.78,31.23-3.33,43.98-3.87c1.97-0.08,2.97,0.03,4.44,0.48"/><path d="M68.52,58.2c4.98,2.3,10.73,3.8,16,4.42c2.25,0.26,2.87,1.16,2.74,2.96c-0.33,4.76-8.64,24.69-11.38,28.6c-3.38,4.82-6.63,0.32-7.99-1.73"/><path d="M68.32,54.02c0.36,1.15,0.29,2.45-0.14,3.74C65.25,66.69,58,84,43.55,93.17"/></svg>