<svg><path d="M10.78,37.72c0.35,0.24,2.39,0.41,3.31,0.31c3.94-0.41,15.62-1.71,21.95-2.91c0.92-0.17,2.15-0.24,2.73,0"/><path d="M25.36,15c0.91,0.47,2.04,2.25,2.04,4.92c0,0.95-0.12,67.75-0.3,73.58"/><path d="M26.94,39.28c-5.1,15.04-7.94,21.4-15.83,34.56"/><path d="M29.97,46.4c2.52,1.76,6.66,7.45,8.78,10.85"/><path d="M42.75,32.36c0.94,0.33,2.66,0.37,3.6,0.33c7.23-0.3,33.9-2.85,45.11-3.46c1.56-0.08,2.5,0.16,3.29,0.32"/><path d="M65.39,15.45c0.86,0.8,1.21,2.05,1.21,3.48c0,0.62-0.57,20.52-0.71,24.32"/><path d="M80.05,13.75c0.7,1,1.22,2.35,1.21,2.98C81.25,20,79.98,33.52,79.58,39.9"/><path d="M66.29,41.3c2.48,0,12.84-1.22,14.24-1.22"/><path d="M51.5,20.39c0.67,0.3,1.71,1.61,1.71,3.48c0,0.62,0,17.75-0.48,24.74c-0.15,2.28-0.24,4,2.32,3.8c10.87-0.86,17.69-2.47,28.41-2.77c2.02-0.06,3.71,0.12,4.49,0.27"/><path d="M44.99,68.11c1.36,0.44,2.91,0.58,4.47,0.44c7.96-0.71,26.08-2.72,38.12-3.55c1.55-0.11,2.53,0.07,4.08,0.38"/><path d="M66.52,55.76c1.05,0.41,1.89,2.33,1.89,3.18c0,8.65-0.21,26.56-0.21,36.31"/><path d="M66.1,67.2c-4.24,7.62-15.6,19.27-24.41,23.59"/><path d="M68.68,67.04c3.3,3.08,18.82,18.56,22.4,21.6c1.22,1.03,2.26,1.47,3.47,1.76"/></svg>