<svg><path d="M45.37,12.75c0.88,0.88,1.46,1.88,1.46,3.25c0,1.02-0.08,7.5-0.08,14"/><path d="M61.37,11c0.88,0.88,1.29,2.23,1.21,3.25c-0.2,2.62-0.45,6.12-1.08,14.75"/><path d="M28.27,19.46c2.4,1.81,6.19,7.44,6.79,10.26"/><path d="M78.62,14.62c0.33,0.94,0.31,1.83-0.06,2.65c-1.03,2.69-2.21,4.87-4.51,8.69"/><path d="M12,33.89c3.25,0.86,6.88,1.03,10.43,0.59c23.8-2.95,42.69-5.04,63.67-5.96c4.53-0.2,7.75,0.28,10.02,0.58"/><path d="M36.62,36.25c1.83,1.41,4.73,5.78,5.18,7.97"/><path d="M66.5,33.25c0.03,0.78-0.15,1.49-0.54,2.12c-1,1.81-2.83,3.88-5.71,6.7"/><path d="M30.25,47.64c2.44,0.32,4.87,0.32,7.29-0.01c9.65-1.1,20.76-2.44,32.11-3.6c0.48-0.05,0.97-0.1,1.45-0.15c2.44-0.24,4.18-0.07,5.4,0.12"/><path d="M31.12,58.89c2.26,0.44,4.52,0.58,6.77,0.28c12.11-1.63,19.55-2.44,30.36-3.66c2.15-0.29,4.32-0.29,6.5,0"/><path d="M20.25,70.48c3.11,0.53,6.21,0.62,9.29,0.29c15.82-1.59,36.9-4.27,50.26-4.93c3.74-0.18,6.46-0.11,8.33,0.19"/><path d="M52.18,47.26c1.03,1.03,1.37,2.4,1.37,3.4c0,2.52-0.17,29.26-0.21,42.09c-0.01,2.24-0.01,4.06-0.01,5.25"/><path d="M48.05,69.46c-0.25,1.09-0.72,2.06-1.41,2.91c-6.27,8.55-17.83,18.94-29.94,23.77"/><path d="M55.48,69.07c4.65,3.8,20.08,15.71,27.51,20.95c2.35,1.65,5.14,3.1,7.98,4.08"/></svg>