<svg><path d="M11.78,37.13c0.35,0.17,2.43,0.28,3.36,0.22c4.01-0.28,17.41-1.52,23.85-2.35c0.93-0.12,2.19-0.17,2.77,0"/><path d="M26.86,13.5c0.91,0.47,2.54,2.25,2.54,4.42c0,0.95-0.12,72.75-0.3,78.58"/><path d="M28.94,38.28c-5.5,15.91-8.56,22.63-17.08,36.56"/><path d="M31.47,47.9c2.37,1.59,5.28,7.76,7.28,10.85"/><path d="M 64.900813,10.431453 c -0.04496,1.753402 -0.431606,2.697541 -0.962123,3.884459 -4.88255,10.898068 -14.74656,24.25989 -22.614389,30.032629"/><path d="M 59.386395,5.3152892 C 65.6228,6.6784373 73.343249,25.137162 82.898922,36.539902 c 2.099248,2.508193 4.239392,4.955045 6.393167,6.318194"/><path d="M53.53,42.39c0.68,0.26,1.93,0.28,2.62,0.26c4.58-0.15,16.75-2.15,21.03-1.64c1.13,0.13,1.82,0.12,2.39,0.25"/><path d="M44.02,54.75c0.61,1,1.02,2,1.22,3c0.2,1,0.29,37.5,0.2,39.75"/><path d="M45.46,56.69c1.36-0.14,13.83-2.55,14.84-2.71c1.81-0.28,2.49,1.85,2.27,2.71c-0.22,0.82-0.34,24.56-0.34,36.1c0,10.21-4.03,2.56-5.16,1.28"/><path d="M50.93,61.58c2.1,0.91,5.43,3.72,5.96,5.13"/><path d="M50.33,75.08c2.21,1.21,5.71,4.99,6.26,6.88"/><path d="M79.16,49.62c0.31,1.13,0.68,2.58,0.21,4.13c-1.42,4.75-5.17,10.75-9.46,16.43c-1.17,1.56-0.02,2.55,0.31,2.87c5.2,5.2,9.03,12.95,10.89,22.45"/><path d="M92.48,49.87C93,51,93.16,52.45,92.69,54c-1.42,4.75-6.26,10.25-10.55,15.93c-1.17,1.56-0.01,2.55,0.31,2.87c5.2,5.2,10.3,11.7,12.8,22.95"/></svg>