<svg><path d="M13.28,40.22c0.35,0.24,2.39,0.41,3.31,0.31c3.94-0.41,16.12-1.71,22.45-2.91c0.92-0.17,1.15-0.24,1.73,0"/><path d="M28.86,15.5c0.91,0.47,2.54,2.25,2.54,4.42c0,0.95-0.12,71.75-0.3,77.58"/><path d="M30.94,41.28c-5.34,15.04-8.31,21.4-16.58,34.56"/><path d="M34.47,48.65c2.37,1.81,5.66,5.88,7.66,9.39"/><path d="M56.98,16.66c0.03,0.43,0.06,1.11-0.06,1.72c-0.73,3.63-4.93,11.61-10.67,16.49"/><path d="M67.91,13.75c5.03,0.87,20.61,14.32,24.54,16.66c1.33,0.79,2.47,1.13,3.8,1.36"/><path d="M53.47,34.31c1.03,0.46,2.91,0.56,3.95,0.46c9.15-0.93,18.26-2.69,23.93-2.94c1.71-0.08,2.75,0.22,3.61,0.45"/><path d="M49.92,47.57c0.84,1.09,1.16,3.7,1.16,5.15c0,1.45,0.05,44.94,0.05,45.37"/><path d="M51.29,49.31c3.18-0.18,33.2-3.31,35.91-3.43c2.25-0.11,4,1.79,4,4.18c0,1.34-0.91,37.16-0.9,46.43"/><path d="M62.79,34.52c0.3,1.36,0.69,2.54,0.71,4.01c0.19,15.43-0.39,24.85-7.49,32.74"/><path d="M73.43,35.38c0.56,1.05,1.01,2.28,1.04,3.89c0.11,5.12-0.25,14.56-0.3,20.88c-0.04,5.49,1.58,6.17,6.95,6.17c3.4,0,6.78-0.68,7.17-1.3"/><path d="M51.44,81.18c3.91,0,34.64-2.11,39.05-2.11"/><path d="M51.52,93.85c7.89-0.29,28.52-1.74,38.34-1.98"/></svg>