<svg><path d="M12.53,40.47c2.32,0.39,4.66,0.48,6.98,0.11c6.62-1.07,11.12-1.7,17.26-2.46c1.52-0.19,2.97-0.6,4.5-0.49"/><path d="M29.61,19.75c1.13,1.13,1.29,2.25,1.29,4.17c0,0.75-0.01,41.24-0.02,61.45c0,5.45,0,9.42,0,10.75"/><path d="M30.69,40.78c-0.44,2.59-1.38,5.38-2.03,7.23c-3.89,11.13-7.14,16.71-13.8,28.08"/><path d="M34.97,49.15c2.28,1.98,4.65,6.23,5.66,9.39"/><path d="M83.77,14.75c-0.38,0.98-1.05,1.58-1.93,2.03C73.62,21,66.81,24.13,52.75,28.25"/><path d="M49.03,28c1.05,1.04,1.19,2.12,1.19,3.99c0,20.63,1.03,44.26-12.02,60.73"/><path d="M53.31,39.83c2.89,0.24,5.75,0.09,8.57-0.44c10.07-1.66,18.88-2.56,28.13-3.68c2.43-0.29,4.84-0.2,7.24,0.27"/><path d="M70.25,27.38c0.94,0.94,1.16,2.12,1.16,3.55c0,0.96-0.04,13.44-0.04,19.57"/><path d="M58.2,52.05c0.68,0.68,0.93,2.03,0.93,3.39c0,1.02,0,21.42,0,33.43c0,3.92,0,6.96,0,8.12"/><path d="M59.98,53.16c2.41-0.15,18.01-1.79,23.16-2.29c3.9-0.38,4.88,1.38,4.89,5.13c0.01,5.33-0.01,22.77-0.02,33.38c0,4.28-0.01,7.45-0.01,8.25"/><path d="M60.13,65.97c6.53-0.66,22.17-1.66,26.51-1.66"/><path d="M60.42,79.66c7.83-0.42,18.79-1.26,26.39-1.54"/><path d="M60.22,93.9c6.33-0.41,19.73-1.02,26.69-1.02"/></svg>