<svg><path d="M10.28,38.22c0.35,0.24,2.39,0.41,3.31,0.31c3.94-0.41,15.12-1.21,21.45-2.41c0.92-0.17,2.15-0.24,2.73,0"/><path d="M25.36,15.5c0.91,0.47,2.04,2.75,2.04,4.42c0,0.95-0.12,69.75-0.3,75.58"/><path d="M26.94,41.28c-5.1,15.04-7.94,21.4-15.83,34.56"/><path d="M30.22,49.4c2.16,1.51,5.71,6.42,7.53,9.35"/><path d="M60.4,14.25c0.05,0.33,0.12,0.85-0.11,1.32c-1.37,2.79-9.22,8.9-19.95,12.65"/><path d="M36.24,43.26c0.56,0.17,2.04,0.44,3.52,0.5c4.07,0.17,9.99-1.27,19.53-2.85c1.46-0.24,1.85-0.17,2.78,0"/><path d="M51.58,25.46c0.26,0.43,1.15,1.92,1.2,2.77c0.05,0.85,0,61.44-0.05,66.77"/><path d="M52.55,43.81c-3.47,11.36-9.27,25.37-17.14,34.67"/><path d="M54.93,52.58c3.47,2.47,6.42,7.42,8.29,10.6"/><path d="M65.65,36.39c1.95,3.31,4.78,12.69,5.31,16"/><path d="M93.73,33.3c0.6,0.85,0.27,3.12-0.28,4.45c-0.55,1.32-6.52,11.13-9.24,14.22"/><path d="M77.99,14.8c0.66,0.79,1,2.93,1,4.25c0,37.7-0.99,62.7-16.5,76.84"/><path d="M78.47,51.9c5,17.4,11.99,32.18,16.25,38.95c1.24,1.97,1.44,1.87,2.41,2.4"/></svg>