<svg><path d="M12.28,38.72c0.35,0.24,2.39,0.41,3.31,0.31c3.94-0.41,17.12-1.71,23.45-2.91c0.92-0.17,1.15-0.24,1.73,0"/><path d="M26.86,14.5c0.91,0.47,2.54,2.25,2.54,4.42c0,0.95-0.12,69.75-0.3,75.58"/><path d="M28.94,40.28C23.44,55,20.38,61.21,11.86,74.09"/><path d="M31.47,46.4c2.61,1.48,6.21,6.53,8.41,9.39"/><path d="M42.26,28.82c1.01,0.36,2.87,0.46,3.88,0.36c9.37-0.93,30.84-3.74,42.79-4.75c1.68-0.14,3.54,0.17,4.38,0.35"/><path d="M53.91,17.09c0.72,0.33,1.25,1.49,1.3,2.17c0.29,3.98,1.04,25.48,1.36,33.03"/><path d="M78.39,14.26c0.73,0.33,1.16,1.5,1.31,2.17c0.14,0.67-0.5,28.91-0.65,33.09"/><path d="M56.16,38.77c2.83-0.33,20.81-2.01,22.81-2.01"/><path d="M56.66,50.65c4.33-0.17,18.15-1.94,22.15-2.1"/><path d="M43.26,65.94c1.61,0.58,3.45,0.76,5.3,0.58c9.44-0.94,26.35-2.73,40.62-3.84c1.84-0.14,2.99,0.1,4.84,0.51"/><path d="M66.68,54.9c0.89,1.14,1.27,2.72,1.27,3.77c0,10.63-0.23,24.98-0.23,37.78"/><path d="M66.93,65.61C60,76,51.25,84.75,37.84,90.82"/><path d="M67.56,65.72c3.58,2.82,20.43,16.97,24.32,19.75c1.32,0.94,2.45,1.34,3.77,1.61"/></svg>