<svg><path d="M9.78,38.22c1.35,0.16,3.24,0.27,4.47,0.15c4.53-0.44,14.17-1.49,20.16-2.43c1.29-0.2,3.22-0.44,4.86-0.07"/><path d="M25.86,13c1.01,1.01,1.54,2.38,1.54,3.92c0,0.81,0.14,52.7,0.19,72.58c0.01,3.42,0.01,5.9,0.01,7"/><path d="M26.69,38.03c0,1.66-0.05,3.42-0.61,4.99c-4.6,13.22-8.03,19.91-15.47,32.31"/><path d="M30.25,47.75c2.5,2.25,6.38,7.12,7.75,10"/><path d="M43.53,22.2c2.49,0.43,4.76,0.19,7-0.09c10.14-1.27,23.34-2.86,33.25-3.76c2.18-0.2,4.43-0.23,6.58,0.26"/><path d="M61.87,23.26c0.63,0.99,0.44,2.91,0.02,3.86c-0.41,0.96-2.67,7.34-3.23,8.33c-1.64,2.88-1.18,4.6,1.48,3.65c1.14-0.41,3.6-1.2,6.06-2.16c2.46-0.96,3.82,0.24,3.89,2.64c0.28,9.04,0.03,24.42-2.5,34.86c-0.95,3.91-2.1,9.1-7.84,4.79"/><path d="M41.94,50.42c0.71,0.75,1.35,1.64,1.42,2.67c0.82,3.62,1.7,9.96,2.36,15.28c0.14,1.15,0.27,2.25,0.39,3.26"/><path d="M43.65,51.44c5.32-1.17,8.46-1.94,11.6-2.45c2.75-0.44,4.58-0.27,3.9,3.01c-0.79,3.85-1.68,8.13-2.17,14.25"/><path d="M47.26,69.04c2.6-0.55,5.39-1.17,8.76-1.56c0.66-0.08,1.35-0.14,2.06-0.2"/><path d="M75.4,45.7c1.23,0.17,2.74-0.05,4.11-0.37c2.64-0.61,8.03-2.14,10.66-3.04c1.96-0.67,3.16,1.23,2.64,2.84C88.62,58,84.25,68.62,75.63,77.54"/><path d="M77.3,54.27C83.5,59,89.5,64.75,94.11,73.1"/><path d="M41,90.98c3.25,0.65,6.41,0.43,9.37,0.17c11.36-0.98,27.93-2.81,41.87-2.96c2.71-0.03,5.48-0.1,8.13,0.52"/></svg>