<svg><path d="M11.78,40.22c1.97,0.66,4,0.85,5.61,0.6c6.3-0.98,12.61-1.59,19.13-2.46c1.24-0.17,3.11-0.48,4.5-0.24"/><path d="M27.86,15.75c1.32,1.32,1.54,2.75,1.54,5.42c0,0.81,0.02,62.7,0.02,69.08c0,3.04-0.02,5.54-0.05,6.38"/><path d="M28.69,41.03c0,1.47-0.59,4-1.1,5.37c-4.46,11.86-7.96,18.72-15.6,29.19"/><path d="M31.62,45.75c2.47,1.35,6.54,4.88,8.62,7.5"/><path d="M48.35,20.47c2.57,1.97,6.44,7.53,7.08,10.59"/><path d="M83.46,16.95c0.06,0.74-0.04,1.46-0.36,2.13c-1.22,2.54-3.43,5.84-6.96,9.21"/><path d="M45.67,35.56c2.05,0.68,4.23,0.53,6.33,0.32c7.35-0.71,23.9-2.81,32.12-3.32c1.95-0.12,4.48-0.23,6.41,0.16"/><path d="M65.47,13.25c1.08,1.08,1.17,2,1.17,3.3c0,0.53,0.11,20.37-0.01,30.7c-0.03,2.44,0.03,4.87,0,5.62"/><path d="M64.72,35.09c0,0.79-0.65,1.92-1.54,3.21c-4.87,7.07-13.21,15.31-21.01,19.04"/><path d="M67.97,36.29c2.82,1.88,11.52,8.34,17.58,12.45c2.13,1.44,4.74,2.79,6.28,3.43"/><path d="M64.54,56.62c0.36,1.09,0.07,2.52-0.43,3.81c-2.36,6.07-6,12.67-10.61,19.45c-1.08,1.59-0.81,2.47,1,2.62c7.7,0.66,18.21,3.24,26.48,8.28c2.99,1.82,5.6,3.92,7.53,6.25"/><path d="M80.63,63.57c0.1,0.8,0.18,2.73-0.21,3.89C77.3,76.8,68.06,90.05,45.78,97"/><path d="M39.51,68.2c2.66,0.72,5.37,0.51,8.11,0.27c13.61-1.22,29.18-2.74,42.12-3.15c2.49-0.08,5.38-0.32,8.38,0.65"/></svg>