<svg><path d="M9.28,37.22c0.35,0.24,2.39,0.41,3.31,0.31c3.94-0.41,15.62-1.71,21.95-2.91c0.92-0.17,2.15-0.24,2.73,0"/><path d="M24.86,15.5c0.91,0.47,2.04,2,2.04,4.42c0,0.95-0.12,70.75-0.3,76.58"/><path d="M26.44,38.28c-5.18,15.58-8.19,22.97-16.08,35.81"/><path d="M29.72,46.15c2.16,1.82,5.71,6.58,7.53,10.1"/><path d="M65.38,12.5c0.89,0.41,2.16,2.42,2.14,3.6c-0.07,3.72-0.07,7.2-0.07,10.59"/><path d="M45.26,26.36c0,3.32-2.05,12.46-2.98,14.67"/><path d="M45.67,29.42c1.03,0.08,39.03-4.79,44.25-4.68c7.3,0.16,3.09,3.93-0.8,7.86"/><path d="M49.31,42.28c0.97,0.45,2.76,0.55,3.73,0.45c7.21-0.73,22.21-2.98,31.14-3.19c1.62-0.04,2.6,0.21,3.41,0.44"/><path d="M63.91,44.41c0.43,0.36,0.15,2.06-0.24,2.41C59,51,57.25,52.25,51.25,56.67c-1.81,1.34-1.79,2.53,0.89,2.09c6.25-1.04,21.49-3.32,31.34-5.04"/><path d="M76,47.53c5.08,2.56,11.88,9.28,13.15,13.27"/><path d="M49.1,77c0.97,0.29,2.76,0.4,3.73,0.29c8.92-1.04,24.42-3.29,33.36-3.73c1.62-0.08,2.6,0.14,3.41,0.28"/><path d="M67.65,61.87c0.11,0.31,1.71,1.6,1.68,3.55c-0.18,11.16-0.03,23.54-0.03,26.73"/><path d="M42.57,93.58c1.41,0.28,3.99,0.33,5.4,0.28c15.68-0.64,22.51-1.97,43.5-2.17c2.34-0.02,3.75,0.13,4.92,0.27"/></svg>