<svg><path d="M12.29,39.02c1.94,0.33,3.88,0.41,5.84,0.22c4.69-0.75,14.28-2.05,20.26-3.07c1.61-0.3,3.24-0.49,4.88-0.56"/><path d="M30.13,15.25c1,1.12,1.59,3,1.59,5.48c0,4.17-0.06,46.85-0.07,66.02c0,3.89,0,6.82,0.01,8.25"/><path d="M31.25,38.38c-0.12,1.89-0.91,5.78-1.58,7.4c-4.82,11.72-8.39,18.11-16.56,29.82"/><path d="M35.09,46.08c2.41,1.61,5.91,6.67,7.79,10.27"/><path d="M43.44,18.4c3.07,0.23,6.13,0.14,9.17-0.26c8.11-0.84,19.08-1.85,30.13-2.73c2.95-0.32,5.9-0.28,8.87,0.1"/><path d="M64,19.62c0.06,1.07-0.22,2-0.84,2.78c-1.43,2.09-2.1,3.31-3.04,4.6"/><path d="M51.39,28.77c0.86,0.98,0.99,1.86,0.93,3.22c-0.03,0.64-0.05,11.2-0.03,19.51c0.01,2.74,0.02,5.19,0.03,6.86"/><path d="M53.12,29.78c2.72-0.11,22.56-2.28,25.04-2.41c2.07-0.11,3.52,0.83,3.52,3.38c0,0.82,0.01,10.07,0.01,18.87c0,2.36,0,4.69,0,6.81"/><path d="M53.08,38.55c7.17-0.8,22.42-2.3,27.94-2.66"/><path d="M53.3,46.93c8.58-0.8,19.08-2.05,27.4-2.59"/><path d="M53.38,55.5C60.5,55,72.75,54,80.6,53.44"/><path d="M59.08,58.13c0.14,1.29-0.01,2.53-0.59,3.67C55.62,67.38,50.62,75,41.97,81.3"/><path d="M59.79,65.73c1.37,0,2.73-0.1,4.09-0.3c3.61-0.45,8.25-1.18,12.86-2.53c2.92-0.85,3.06,2.08,2.29,3.55C74.84,74.52,57.96,90.25,39.5,96"/><path d="M54.4,71.31c4.6,3.26,20.66,13.41,30.25,18.63c3.19,1.99,6.64,3.35,10.34,4.09"/></svg>