<svg><path d="M12.53,40.22c0.35,0.24,2.39,0.41,3.31,0.31c3.94-0.41,12.62-1.96,18.95-3.16c0.92-0.17,2.15-0.24,2.73,0"/><path d="M26.11,17c0.94,0.94,1.29,2.5,1.29,4.67c0,5.01,0.03,46.31,0.03,66.95c0,1.9,0,3.62,0,5.12"/><path d="M26.44,40.28c0,1.34-0.45,3.37-0.9,4.48c-4.36,10.68-7.16,16.2-14.43,26.57"/><path d="M29.72,46.4C32.1,47.99,35,52.16,37,55.25"/><path d="M39.47,22.08c1.91,0.54,3.32,0.41,4.82,0.09c3.25-0.7,8.28-1.71,10.62-2.16c3.09-0.6,3.98,0.04,3.75,3.25c-0.41,5.8-1.3,15.45-1.88,21.49c-0.19,1.99-0.1,3.31-0.2,4.19"/><path d="M42.82,35.72c4.24-0.73,8.83-1.86,13.79-2.44"/><path d="M42.5,49.52c4.13-0.77,8.26-1.69,12.73-2.27"/><path d="M40.22,22.33c0.85,0.85,1.28,1.79,1.28,3.54c0,2.63,0.02,48.25,0.02,52.44c0,1.93,1.1,3.48,2.73,2.06C48.12,77,51,74.88,58.21,67.99"/><path d="M55.38,61.75c1.87,2,4.14,6.38,5.9,11.97"/><path d="M67.54,23.14c2.08,0.36,3.97,0.18,5.6-0.09c3.86-0.63,9.34-1.74,14.1-2.4c1.68-0.23,3.02-0.35,4.65,0.09"/><path d="M70.29,25.42c0.59,0.83,0.59,1.7,0.53,2.86c-0.23,4.25-1.06,11.22-1.8,18.19"/><path d="M61.77,47.53c1.82,0.27,3.64,0.48,5.48,0.17c6.2-1.03,14.5-2.57,22.75-3.89c2.05-0.33,4.19-0.25,6.24,0.11"/><path d="M83.88,24.38c0.37,0.88,0.34,1.86-0.03,3.99C80.75,46,75,72,58,86"/><path d="M79.41,56.02c0.85,0.85,1.3,2.35,1.3,3.87c0,7.63,0.02,18.07,0.02,23.21c-0.04,9.7,1.79,10.65,8.66,10.65c6.19,0,7.87-1.14,7.87-7.93"/></svg>