<svg><path d="M11.78,35.72c0.35,0.24,2.39,0.41,3.31,0.31c3.94-0.41,17.12-1.21,23.45-2.41c0.92-0.17,2.15-0.24,2.73,0"/><path d="M27.86,11.5c0.91,0.47,2.04,2.25,2.04,4.42c0,0.95-0.12,75.75-0.3,81.58"/><path d="M29.44,37.78c-5.9,15.58-9.19,22.17-18.33,35.81"/><path d="M30.97,46.9c3.78,3.35,6.03,6.85,8.28,10.85"/><path d="M65.63,11.25c0.61,0.72,1.54,2.25,1.54,3.17c0,2.92,0,1.79,0,9.7"/><path d="M46.23,26.22c1.52,0.36,3.3,0.42,4.82,0.36c8.58-0.31,22.34-3.37,35.31-3.64c2.54-0.05,4.06,0.17,5.32,0.36"/><path d="M55.52,30.33c2.17,2.83,3.56,6.24,3.75,8.11"/><path d="M80.33,26.09c0.2,1.11,0.36,2.02,0.21,2.32c-1.51,3-4.09,8.69-5.17,10.52"/><path d="M47.27,40.48c-0.1,2.7-2.44,9.77-3.27,11.38"/><path d="M47.11,43.29c7.25-0.89,30-4.61,44.12-4.98c8.63-0.23,2.22,4.35-1,7.85"/><path d="M66.81,45.62c0.68,0.48,1.81,2.33,1.81,3.29c0,3.51-0.21,4.13-0.09,7.1"/><path d="M45.55,57.91c1.12,0.08,3.68,0.56,4.78,0.44c8.82-0.93,28.28-3.03,40.26-3.68c1.85-0.1,2.79,0.04,4.17,0.57"/><path d="M65.57,65.5c3.32,1.45,14.28,3.45,17.76,4.12c1.57,0.3,2.51,1.26,1.92,2.9c-2.51,6.98-5.82,16.14-9.95,22.24c-3.55,5.24-6.05,1.24-7.69-2.71"/><path d="M64.51,60.2c0.32,1,0.07,2.07-0.12,3.23C63,71.75,55.5,86.5,42.34,94.03"/></svg>