<svg><path d="M13.28,35.72c0.35,0.24,2.39,0.41,3.31,0.31c3.94-0.41,14.62-1.21,20.95-2.41c0.92-0.17,1.15-0.24,1.73,0"/><path d="M27.36,13.5c0.91,0.47,2.04,2.25,2.04,4.92c0,0.95-0.12,70.75-0.3,76.58"/><path d="M28.94,37.78c-5.66,15.8-8.81,22.48-17.58,36.31"/><path d="M32.47,48.9c2.37,1.59,5.66,6.05,7.66,9.14"/><path d="M53.22,14.51c0.75,0.56,1.2,1.39,1.34,2.5c0.15,1.11,0.15,8.05,0.15,10.82"/><path d="M46.5,29.22c1.31-0.12,15.77-2.94,16.96-3.16c2.02-0.38,2.52,1.4,2.44,3.18c-0.33,7.51-1.38,19.26-2.07,26.87"/><path d="M46.73,41.73c3.35-0.48,12.64-1.98,17.7-2.32"/><path d="M46.65,55.71c3.62-0.52,11.26-1.71,17.49-2.59"/><path d="M 44.89,27.11 c 0.75,0.56 1.2,2.5 1.35,3.61 0.13,1.01 -0.08,47.44 -0.08,57.28 0,2.61 0.91,2.5 1.78,1.65 3.03,-2.98 10.166978,-9.132699 13.536978,-11.852699"/><path d="M 67.448685,65.746113 c 0.02,0.417151 0.07087,0.624918 -0.08143,0.987139 -1.070583,2.546168 -1.813422,4.16842 -6.282745,7.13842"/><path d="M 54.864371,70.260046 c 4.79,3.08 9.42842,8.39842 12.15842,14.90842"/><path d="M74.32,21.76c1.09,0.27,1.76,0.54,2.64,0.48c5.68-0.44,11.33-1.55,13.77-2.52c2.85-1.14,4.33,1.6,3.06,4.27c-1.27,2.67-6.65,14.7-8.87,18.51"/><path d="M84.56,42.61c19.94,16.64,13.19,46.14,3.64,32.63"/><path d="M75.95,22.75c0.79,0.5,1.27,2.25,1.43,3.25c0.16,1,0,64.25-0.16,70.5"/></svg>