<svg><path d="M12.28,36.72c0.35,0.24,2.39,0.41,3.31,0.31c3.94-0.41,16.12-1.21,22.45-2.41c0.92-0.17,2.15-0.24,2.73,0"/><path d="M27.36,14c0.91,0.47,2.04,2.25,2.04,4.42c0,0.95-0.12,71.75-0.3,77.58"/><path d="M28.94,39.28c-5.82,16.56-9.06,23.56-18.08,38.06"/><path d="M31.72,46.15c2.59,1.88,6.85,7.97,9.03,11.6"/><path d="M43.38,20.31c1.27,0.61,3.6,0.61,4.88,0.61c15,0,29.06-2.14,44.06-2.99c2.12-0.12,3.39,0.29,4.45,0.6"/><path d="M65.62,26.12c0.77,0.35,1.22,1.59,1.38,2.3c0.07,0.3,0.07,10.09,0.05,21.55C67.02,65.38,66.59,76.46,57.09,86"/><path d="M54.88,38.97c0.88,0,1.9,0.17,2.78,0c0.88-0.17,7.75-1.22,8.78-1.74"/><path d="M54.38,53.43c0.85,0,1.85,0.15,2.7,0c0.85-0.15,7.1-1.37,9.37-1.83"/><path d="M53.32,69.75c1.18,0.5,2.31,0.44,3.58-0.31c0.75-0.44,5.76-4.49,8.92-6.59"/><path d="M77.34,25.25c0.55,0.35,0.89,1.57,1,2.27c0.11,0.7,0,51.85-0.11,56.21"/><path d="M78.83,36.56c3.44-0.22,11.96-1.83,14.54-2.2c0.94-0.13,0.29-0.07,1.91-0.07"/><path d="M79.06,51.95c3.28-0.27,11.74-1.92,14.19-2.38c0.89-0.17,0.27-0.09,1.82-0.09"/><path d="M78.98,66.79C82.05,66.54,92.7,65,95,64.57c0.84-0.16,0.26-0.09,1.7-0.09"/><path d="M48.05,21.46c0,3.8,0,64.21,0,67.77c0,3.02,1.68,3.43,2.9,3.3c11.55-1.28,39.79-3.06,42.03-3.06s4.14,0.24,5.52,0.71"/></svg>