<svg><path d="M20.5,18.68c2.76,1.94,5.52,7.18,5.75,10.31"/><path d="M47.23,14.37c0.63,0.45,0.34,1.61-0.24,2.31c-0.57,0.7-5.88,5.64-8.74,7.28"/><path d="M35.36,12.25c0.89,0.76,0.89,2.69,0.89,3.18C36.25,29,31.75,37,25,42"/><path d="M37.97,29.39c4.09,1.71,9.25,7.11,10.33,9.52"/><path d="M54,15.43c2.76,2.7,4.97,7.04,5.25,10.06"/><path d="M81.23,13.87c0.02,1.13-0.12,2.15-0.74,2.81c-1.24,1.32-6.38,4.64-9.24,6.28"/><path d="M67.84,10.75c0.91,0.69,0.91,1.54,0.91,1.99C68.75,25.25,64,34.5,57.25,38"/><path d="M69.97,27.64c4.29,1.75,9.7,7.3,10.83,9.77"/><path d="M19.66,45.69c-0.14,3.93-3.48,14.22-4.66,16.56"/><path d="M19.72,49c6.78-0.75,48.25-5.81,65.97-6.25c10.06-0.25,3.81,5.75-0.69,9.5"/><path d="M26,63.2c1.47,0.48,3.13,0.63,4.82,0.48c8.59-0.78,33.51-3.5,46.49-4.42c1.67-0.12,2.72,0.08,4.4,0.42"/><path d="M53,50.25c0.87,0.35,1.57,2.05,1.57,2.77c0,7.33,0,42.61-0.17,46.98"/><path d="M54.35,62.31c-6.32,9.5-19.85,21.94-36.4,29.39"/><path d="M54.77,64.63C59.3,68,80.6,84.91,85.53,88.23c1.67,1.12,3.1,1.6,4.77,1.93"/></svg>