<svg><path d="M10.78,37.22c0.35,0.24,2.39,0.41,3.31,0.31c3.94-0.41,16.12-1.21,22.45-2.41c0.92-0.17,2.15-0.24,2.73,0"/><path d="M25.36,13.5c0.91,0.47,2.54,2.25,2.54,4.42c0,0.95-0.12,72.25-0.3,78.08"/><path d="M27.44,38.28c-5.26,16.56-8.19,23.56-16.33,38.06"/><path d="M30.47,46.9c2.37,1.59,6.28,6.76,8.28,9.85"/><path d="M45.31,20.89c0.5,0.54,1.11,2.02,1.24,2.72c1.06,5.92,3.53,17.9,4.63,29.89"/><path d="M46.76,23.21c11.49-1.46,29.26-3.84,36.02-4.46C85.5,18.5,86,20,85.75,22.19c-0.79,6.93-2.25,19.56-3.78,27.96"/><path d="M66.75,25.78c0.07,0.39,0.27,1.22,0.15,1.81C66.19,31.08,63,39.5,56.51,44.45"/><path d="M65.79,33.33c3.61,1.18,8.87,5.93,9.76,8.24"/><path d="M51.71,50.59c9.54-0.84,20.11-2.24,30.26-2.39"/><path d="M44.89,63.66c0.55,0.76,1.26,1.58,1.37,2.23c0.92,5.12,2.67,17.98,3.3,27.17"/><path d="M47.12,65.27c9.82-1.06,35.09-3.39,38.65-3.61c2.23-0.14,3.48,1.01,3.25,3.11c-0.33,2.96-1.77,18.74-2.72,25.32"/><path d="M59.15,64.43c0.23,0.49,0.46,0.89,0.56,1.5c0.79,4.83,1.37,17.53,1.91,26.2"/><path d="M73.08,62.86c0.42,0.58,0.82,1.58,0.75,2.33c-0.69,7.48-0.1,16.09-0.94,25.67"/><path d="M36.63,93.18c1.09,0.34,3.09,0.4,4.18,0.34c11.36-0.58,32.09-2.46,53-2.56c1.82-0.01,2.91,0.16,3.82,0.34"/></svg>