<svg><path d="M11.53,37.57c0.35,0.2,2.45,0.33,3.39,0.26c4.04-0.33,17.55-1.79,24.05-2.77c0.94-0.14,2.21-0.2,2.8,0"/><path d="M27.86,13.5c0.91,0.47,2.04,2.5,2.04,4.42c0,0.95-0.12,74.25-0.3,80.08"/><path d="M29.44,38.28c-5.9,16.34-9.19,23.25-18.33,37.56"/><path d="M32.47,46.9c2.09,1.76,5.52,7.45,7.28,10.85"/><path d="M49.49,17.09c0.28,0.41,0.78,1.69,0.94,2.21c1.25,4.23,2.43,14.92,3.21,22.81"/><path d="M51.29,18.66c9.7-1.07,26.83-2.38,34.08-3.27c2.66-0.33,4.13,0.61,3.89,3c-0.44,4.27-2.74,14.89-3.96,22.02"/><path d="M53.1,29.6c3.16-0.41,30.92-3.47,33.54-3.64"/><path d="M54.14,40.96c6.99-0.45,22.02-2.35,31.66-3.09"/><path d="M43.91,53.21c1.9,0.92,2.23,0.92,5.02,0.61c5.67-0.61,12.24-2.79,13.98-2.92c1.96-0.15,3.09,1.22,3.16,3.69c0.07,2.74-0.23,29.56-0.23,38.27c0,9.21-6.67,0.23-7.65-0.31"/><path d="M56.42,55.41c0.05,0.37,0.09,0.97-0.08,1.51c-1.03,3.18-6.94,10.17-15.02,14.44"/><path d="M61.31,65.88c0.06,0.56,0.28,1.5-0.11,2.24c-2.7,5.13-8.95,12.63-20.17,21.43"/><path d="M72.19,50.77c1.89,0.94,1.56,0.94,4.33,0.63c5.64-0.64,11.7-2.59,13.43-2.69c3.87-0.22,3.71,1.12,3.71,3.74c0,4.2-0.41,31.49-0.41,40.48c0,9.54-6.63,1.21-7.6,0.65"/><path d="M84.8,52.99c0.03,0.37,0.07,0.97-0.07,1.5c-0.84,3.17-5.65,10.12-12.24,14.38"/><path d="M89.24,64.24c0.05,0.52,0.1,1.33-0.09,2.08c-1.16,4.38-7.8,14.49-16.88,20.38"/></svg>