<svg><path d="M11.28,37.58c0.36,0.27,2.47,0.46,3.42,0.35c4.08-0.46,16.68-1.36,23.24-2.72c0.95-0.2,2.23-0.27,2.82,0"/><path d="M27.36,13.5c0.91,0.47,2.04,2.5,2.04,4.42c0,0.95-0.12,73.25-0.3,79.08"/><path d="M28.94,38.28c-5.66,15.36-8.81,21.86-17.58,35.31"/><path d="M31.47,46.9c2.37,1.92,6.28,8.14,8.28,11.85"/><path d="M53.72,14.21c0.4,0.54,0.76,1.75,0.81,2.47c0.26,3.7,1.6,21.76,1.6,22.12"/><path d="M55.13,16.23c2.27-0.09,25.74-3.64,27.81-3.74c1.72-0.09,2.79,1.5,2.7,2.04C85,18.75,83.75,26,82.75,35.47"/><path d="M68.34,23.43c0.4,0.54,0.75,1.75,0.81,2.48c0.26,3.24,0.1,10.71,0.1,11.07"/><path d="M69.32,24.45c2.27-0.09,12.65-1.56,14.71-1.8"/><path d="M46.13,37.69c0,3.09-2.08,11.19-2.8,13.26"/><path d="M45.89,40.78c9.29-1.39,39.12-5.62,45.22-5.97c9.52-0.55,2.02,5.68-0.36,7.65"/><path d="M54.61,49.62c0.56,0.7,0.93,1.4,1.11,2.1s0.26,43.01,0.19,44.58"/><path d="M56.84,51.32c2.22-0.17,22.12-3.65,23.77-3.85c2.96-0.35,4.08,2.27,3.71,3.32c-0.36,1.01-0.56,25.87-0.56,40.04c0,9.09-4.45,3.15-6.3,1.57"/><path d="M56.34,63.31c7.6-1.05,21.02-2.14,27.69-2.67"/><path d="M56.38,76.17c5.93-0.53,19.92-2.62,26.77-2.97"/></svg>