<svg><path d="M10.03,38.22c0.36,0.24,2.52,0.41,3.49,0.31c4.16-0.41,19.68-2.71,26.37-3.91c0.97-0.17,2.27-0.24,2.88,0"/><path d="M27.86,14.5c0.91,0.47,2.54,2.5,2.54,4.42c0,0.95-0.12,71.75-0.3,77.58"/><path d="M29.94,40.28c-5.66,13.41-8.81,19.07-17.58,30.81"/><path d="M32.47,44.9c2.37,1.59,6.28,5.76,8.28,8.85"/><path d="M81.09,13.23c-0.27,0.68-1.03,1.52-1.6,1.82c-3.64,1.91-14.17,6.68-25.94,8.64"/><path d="M52.13,13.5c0.76,0.65,0.81,1.09,1.07,1.96c0.25,0.87-0.18,5.79-0.18,8.52c0,7.02,10.18,6.36,18.85,6.36c12.58,0,17.34-1.15,17.34-8.53"/><path d="M58.96,38.01c0.38,0.71,0.95,2,0.95,2.95s-0.13,28.97,0,29.91"/><path d="M60.55,39.97c2.18-0.12,19.8-2.25,21.79-2.22c0.91,0.02,1.81,0.47,1.81,1.99c0,1.13,0.03,29.23-0.1,29.93"/><path d="M60,49.23c4.3-0.16,20.15-1.95,23.65-1.95"/><path d="M59.84,58.74c5.78-0.4,18.28-1.87,23.89-1.87"/><path d="M60.03,68.86c4.33,0,18.13-1.96,23.74-1.96"/><path d="M48.94,48.42c0.5,0.92,1.17,1.62,1.17,3.23c0,1.62-0.85,20.1-1.33,24.85c-0.21,2.07,0.19,3.83,2,3.42c14.23-3.17,32.18-3.23,39.48-2.77c1.5,0.1,3,0.35,4.5,0.96"/><path d="M60.32,84.98c0.05,0.26,0.11,0.68-0.1,1.06c-1.24,2.24-8.39,7.17-18.16,10.18"/><path d="M78.39,83.73c5.07,2.18,13.09,8.96,14.36,12.35"/></svg>