<svg><path d="M11.78,37.72c0.37,0.24,2.56,0.32,3.55,0.31c5.93-0.03,13.43-1.53,22.51-2.41c0.99-0.1,2.31-0.24,2.93,0"/><path d="M27.86,14c0.91,0.47,2.04,1.75,2.04,4.42c0,0.95-0.12,71.75-0.3,77.58"/><path d="M29.44,39.28c-5.5,15.58-8.56,22.17-17.08,35.81"/><path d="M31.97,49.4c2.37,1.59,6.28,7.76,8.28,10.85"/><path d="M50.45,13.99c2.8,1.59,7.23,6.54,7.93,9.01"/><path d="M81.07,11.02c0.02,0.33,0.05,0.84-0.05,1.32c-0.58,2.77-3.91,8.86-8.47,12.58"/><path d="M43.88,28.55c0.81,0.33,3.79,0.34,4.61,0.33c9.51-0.13,29.01-2.13,37.17-2.57c1.35-0.07,3.66,0.16,4.34,0.32"/><path d="M64.81,29.34c0.86,0.34,1.37,1.54,1.55,2.23c0.17,0.69,0.4,14.91,0.23,19.21"/><path d="M48.84,40.16c0.81,0.33,2.29,0.37,3.11,0.33c6.71-0.3,21.52-2.72,30.72-2.87c1.35-0.02,2.16,0.16,2.84,0.32"/><path d="M42.52,51.85c1.31,0.47,3.71,0.53,5.02,0.47c7.28-0.34,29.09-2.75,42.87-3.04c2.18-0.05,3.5,0.22,4.59,0.46"/><path d="M56.26,55.41c0.05,0.77,0.18,2.07-0.1,3.09c-2.03,7.45-7.22,19.57-16.35,28.91"/><path d="M55.28,68.91c0.78,0.44,3.34,0.58,4.13,0.45c3.69-0.59,19.49-3.06,25.69-3.52c1.21-0.09,2.31,0.09,3.31,0.46"/><path d="M70.03,71.05c0.83,1.06,0.83,1.69,0.83,2.54c0,5.92,0,12.88-0.21,18.79"/><path d="M46.75,94.09c0.76,0.27,3.05,0.6,4.34,0.49c15.41-1.29,26.74-3,39.34-3.4c2.07-0.07,4.55,0.45,5.58,0.87"/></svg>