<svg><path d="M11.78,38.22c0.35,0.24,2.39,0.41,3.31,0.31c3.94-0.41,16.12-1.71,22.45-2.91c0.92-0.17,2.15-0.24,2.73,0"/><path d="M26.36,15.5c0.91,0.47,2.04,2.25,2.04,4.42c0,0.95-0.12,68.75-0.3,74.58"/><path d="M27.94,39.28c-5.1,15.04-7.94,21.4-15.83,34.56"/><path d="M31.47,45.65c2.37,1.91,6.28,6.9,8.28,10.6"/><path d="M61.33,11.22c0.02,0.32,0.05,0.84-0.05,1.29c-0.55,2.7-2.63,6.91-7.02,12.49"/><path d="M49.17,25.28c0.36,0.39,0.65,0.92,0.65,1.57c0,7.57,0.02,33.34-0.18,42.7"/><path d="M50.27,26.48c1.69-0.01,23.6-3.56,25.25-3.48c2.44,0.12,3.63,1.92,3.41,3.62c-0.13,1.04-1.18,11.63-2.36,20.68"/><path d="M50.54,36.87C58,36,72.5,34.5,77.14,34.3"/><path d="M50.45,47.86c4.22-0.17,20.85-2.41,26.1-2.47"/><path d="M49.68,57.54c10.44-1.01,34.81-3.96,39.29-4.58c1.56-0.21,4.21-0.42,5-0.16"/><path d="M50.15,68.76c9.91-1.59,33.62-3.46,39.12-3.95c3.57-0.32,5.41,2.58,4.76,5.94c-1.79,9.33-4.56,18.13-7.54,23.93c-2.98,5.79-5.36,2.72-7.94-0.14"/><path d="M54.72,71.41c0.4,0.31,1.24,2.24,1.31,2.82c0.08,0.59,0.15,10.02,0.07,13.64"/><path d="M41.77,76.75c0.4,0.31,0.85,1.57,0.79,2.15c-0.26,2.58-1.04,6.31-1.83,9.59c-0.3,1.27,0.85,2.47,1.78,1.97c3.23-1.71,24.15-4.36,29.12-4.28"/><path d="M72.21,74.86c0.4,0.31,0.86,2.22,0.79,2.8c-0.39,3.55,0.37,3.73-0.73,10.75"/></svg>