<svg><path d="M12.28,37.72c0.35,0.24,2.39,0.41,3.31,0.31c3.94-0.41,17.12-1.21,23.45-2.41c0.92-0.17,2.15-0.24,2.73,0"/><path d="M27.86,14c0.91,0.47,2.04,2.5,2.04,4.42c0,0.95-0.12,72.25-0.3,78.08"/><path d="M28.94,39.28c-5.82,16.34-9.06,23.25-18.08,37.56"/><path d="M32.72,47.65c2.16,1.71,5.71,7.28,7.53,10.6"/><path d="M63.97,11c0.03,0.39,0.1,1.12-0.05,1.56c-1.81,5.48-4.48,10.52-9.2,14.94"/><path d="M47.75,27.62c0.29,0.54,0.79,1.41,0.95,2.07c1.27,5.5,2.84,16.74,3.59,26.88"/><path d="M49.1,28.95c12.4-1.7,28.7-3.99,36.25-4.53c2.77-0.2,3.91,1.58,3.61,3.87c-0.7,5.38-1.61,16.21-4.05,25.84"/><path d="M67.960499,26.339917 c 0.91,0.91 0.97,1.99 0.96,3.33 -0.06,7.41 0.05,20.507277 0.05,22.707277"/><path d="M51.4,41.57c8.35-1.07,25.6-3.32,36.21-3.87"/><path d="M52.82,54.64c12.18-1.89,22.15-2.47,31.22-2.88"/><path d="M62.5,57.75 c 0.26,0.8 0.76,2.38 0.38,3.67 -2.93,9.83 -5.897775,25.83 -17.647775,34.58"/><path d="M72.36,54.87c0.66,1.19,1.18,2.59,1.22,4.43c0.18,8.19,0.03,13.51-0.29,24.61s6.38,11.3,12.65,11.3c10.27,0,13.52,0.55,13.52-8.94"/><path d="M87.19,60.72c0.22,0.42,0.14,2.33-0.07,2.84c-1.92,4.68-4.37,10.46-7.42,15.23c-0.97,1.51,0.08,3.03,1.45,2.51c4.77-1.8,7.8-3.55,12.43-5.44"/><path d="M90.97,71.93c1.29,1.31,4.11,6.5,4.43,8.54"/></svg>