<svg><path d="M13.28,39.22c0.35,0.24,2.39,0.41,3.31,0.31c3.94-0.41,15.12-1.21,21.45-2.41c0.92-0.17,2.15-0.24,2.73,0"/><path d="M27.86,15.5c0.91,0.47,2.04,2.5,2.04,4.42c0,0.95-0.12,69.75-0.3,75.58"/><path d="M29.44,39.78C24.75,52.75,19.5,63.25,9.86,73.59"/><path d="M32.72,46.15c2.31,1.73,7.08,6.25,9.03,9.6"/><path d="M67.02,12.75c1.23,1,1.95,1.94,1.95,3.86c0,3.05,0,5.02,0,8.05"/><path d="M48.33,26.32c1.02,0.29,2.22,0.34,3.24,0.29c5.77-0.25,25.3-2.82,34.03-3.04c1.71-0.04,2.73,0.14,3.58,0.28"/><path d="M56.57,28.72c2.64,3.63,4.33,8.01,4.57,10.4"/><path d="M79.12,26.73c0.38,0.77,0.14,1.64,0.07,2c-0.46,2.43-4.21,9.13-5.36,10.99"/><path d="M44.58,43.32c1.3,0.38,2.83,0.51,4.12,0.38c14.63-1.41,26.73-3.06,43.16-3.85c2.17-0.1,3.47,0.18,4.56,0.37"/><path d="M50.75,52.65c0.26,0.43,0.27,0.72,0.42,1.26c1.19,4.43,2.31,16.56,3.05,24.82"/><path d="M51.98,53.25c9.23-1.11,27.3-2.53,34.19-3.46c2.53-0.35,3.46,1.83,3.33,3.05c-0.48,4.46-2.77,15.17-3.93,22.63"/><path d="M53.2,64.19c3.01-0.43,31.42-2.65,33.91-2.83"/><path d="M54.69,75.57c7.78-0.92,21.7-1.46,30.88-2.23"/><path d="M68.56,51.69c0.47,1.16,0.88,1.52,0.88,3.3c0,8.51-0.34,23.17-0.34,28.58c0,12.64,5.67,11.21,11.25,11.21c11.3,0,12.98-0.03,12.98-9.84"/></svg>