<svg><path d="M11.53,36.78c0.35,0.21,2.41,0.36,3.34,0.27c3.98-0.36,13.25-1.93,19.64-2.99c0.93-0.15,2.17-0.21,2.75,0"/><path d="M24.86,14.5c0.91,0.47,2.54,2,2.54,4.42c0,0.95-0.12,70.75-0.3,76.58"/><path d="M27.44,38.28c-5.18,16.34-8.06,23.25-16.08,37.56"/><path d="M29.47,49.4c2.37,1.59,6.28,6.76,8.28,9.85"/><path d="M52.09,13c0.7,0.52,1.85,2.52,1.85,3.55c0,3.8-0.22,5.51-0.09,8.73"/><path d="M39.3,26.88c0.57,0.06,1.88,0.38,2.44,0.3c4.51-0.64,17.69-2.49,24.12-2.93c0.95-0.06,1.43,0.03,2.13,0.39"/><path d="M43.41,34.12c0.21,0.24,0.92,0.94,1.01,1.25c0.72,2.4,2.33,9.19,2.82,13.5"/><path d="M45.2,35.44c5.08-1.01,15.28-2.64,17.9-2.98c0.96-0.12,1.53,1.25,1.4,1.98c-0.57,3.02-1.22,6.8-2.43,11.15"/><path d="M47.45,47.28c3.08-0.38,12.67-0.93,16.57-1.31"/><path d="M44.62,57.5c0.63,0.21,1.83,0.53,2.78,0.35c1.16-0.22,14.08-4.21,15.18-4.21c1.11,0,1.69,1.11,0.58,2.34c-1.34,1.48-4.42,6.13-8.29,10.65"/><path d="M52.19,66.76c3.81,4.49,8.02,15.07,4.04,25.37c-2.36,6.09-5.48,1.37-6.62-0.49"/><path d="M40.63,78.47c0.87,1.03,2.77,1.25,3.72,0.76C52.5,75,58.25,72,67.85,67.34"/><path d="M74.82,20.93c1.18,0.07,3.11,0.03,3.93-0.1c5-0.83,8.5-1.83,12.12-2.65c2.79-0.63,3.74,1.85,2.58,4.65c-1.15,2.8-6.05,17.4-8.07,21.4"/><path d="M84.84,44.23c18.56,9.14,13.97,47.78,2.02,33.22"/><path d="M76.94,21.45c0.02,0.11,0.53,1.02,0.54,2.55c0.08,11.98-0.06,66.72-0.2,72.25"/></svg>