<svg><path d="M13.28,38.22c0.35,0.24,2.39,0.41,3.31,0.31c3.94-0.41,15.12-1.21,21.45-2.41c0.92-0.17,2.15-0.24,2.73,0"/><path d="M27.36,14c0.91,0.47,2.54,2.75,2.54,4.42c0,0.95-0.12,73.75-0.3,79.58"/><path d="M29.94,39.28c-5.1,15.04-8.94,21.4-16.83,34.56"/><path d="M32.72,47.15c2.16,1.31,5.71,5.56,7.53,8.1"/><path d="M43.85,22.61c1.56,0.53,4.42,0.64,5.98,0.53c15.24-1.11,20.26-2.46,38.83-3.16c2.6-0.1,4.16,0.25,5.46,0.51"/><path d="M48.31,30.83c0.6,0.42,1.37,1.99,1.48,2.55c0.81,4.02,1.85,11.8,3.04,20.23"/><path d="M50.62,31.86c9.15-0.81,29.21-2.38,35.45-2.5c2.58-0.05,2.79,1.27,2.6,3.47C88.29,37.16,87.25,44,85.71,51.8"/><path d="M53.28,41.79c6.9-0.21,21.3-2.13,34.29-2.13"/><path d="M52.88,51.86c8.02-0.84,22.4-1.9,32.84-1.9"/><path d="M67.06,12c0.61,0.6,1.63,1.75,1.63,5.66c0,1.2-0.08,36.63-0.2,44.09"/><path d="M45.18,62.45c0.62,0.9,2.21,1.38,3.08,1.31c2.89-0.21,36.03-3.85,41.42-4.77"/><path d="M83.69,55.12c4.09,1.77,10.56,7.25,11.58,10"/><path d="M41.13,75.66c1.52,0.5,4.29,0.6,5.82,0.5c14.19-0.92,31.62-2.81,45.12-3.57c2.52-0.14,4.05,0.24,5.31,0.49"/><path d="M82.55,64.88c0.07,0.46,0.97,2.37,0.97,5.27c0,19.46-0.2,17.56-0.2,22.28c0,11.48-5.81,1.7-7.5,0.24"/><path d="M54.01,82.37c3.47,1.46,8.96,5.99,9.83,8.25"/></svg>