<svg><path d="M15.62,20.85c0.67,0.31,1.88,0.38,2.55,0.31c9.28-0.93,19.51-1.95,28.95-2.75c1.11-0.09,1.78,0.15,2.33,0.3"/><path d="M18.58,28.43c0.43,0.33,0.97,1.29,1.05,1.74c0.58,3.2,2.19,11.31,3.01,17.36"/><path d="M20.64,29.79c6.52-0.64,19.96-2.55,24.41-2.65c1.84-0.04,2.22,0.88,2.14,1.88c-0.27,3.44-1.44,9.24-2.21,15.58"/><path d="M21.36,37.06c4.91-0.17,15.83-1.71,25.26-2.14"/><path d="M22.59,45.18c5.71-0.66,14.45-1.95,21.89-1.95"/><path d="M15.33,53.5c0.84,0.56,2.35,0.63,3.2,0.56c8.6-0.67,20.59-2.8,28.59-3.46c1.39-0.11,2.66-0.12,3.36,0.16"/><path d="M31.52,10.4c0.58,0.4,1.93,2.2,1.93,3.76c0,5.85-0.48,45.6-0.6,50.55"/><path d="M80.67,12c0.05,0.29,0.21,0.84-0.1,1.15c-4.36,4.2-9.93,7.37-19.12,10.99"/><path d="M58.83,22.64c0.48,1.02,0.97,2,0.97,3.11c0,11.01,0.44,23.49-6.89,30.28"/><path d="M61.92,32.9c0.4,0.16,1.97,0.27,3.03,0.09c5.85-1,17.06-2.85,23.72-3.35c1.07-0.08,2.92-0.16,3.59,0"/><path d="M75.18,32.9c0.86,0.5,1.38,2.25,1.55,3.26c0.17,1,0,20.83-0.17,27.1"/><path d="M18.75,74.61c1.9,0.57,4.06,0.75,6.25,0.57C36.13,74.25,68.96,72,85.8,70.9c2.17-0.14,3.53,0.1,5.7,0.5"/><path d="M52.25,61.25c1.25,0.5,2.25,2.22,2.25,3.25c0,10.5,0,29.75-0.25,36"/><path d="M50.25,73.75c-6.75,8.5-21.25,18.75-36,23"/><path d="M54.5,73.5c4.62,2.67,26.36,16.09,31.38,18.72c1.7,0.89,3.16,1.27,4.87,1.53"/></svg>