<svg><path d="M11.28,38.72c0.35,0.24,2.39,0.41,3.31,0.31c3.94-0.41,15.62-1.21,21.95-2.41c0.92-0.17,2.15-0.24,2.73,0"/><path d="M25.36,15.5c0.91,0.47,2.04,2.5,2.04,4.42c0,0.95-0.12,68.75-0.3,74.58"/><path d="M26.94,40.28c-5.1,14.6-7.94,20.78-15.83,33.56"/><path d="M30.47,47.15c2.23,1.64,5.9,5.93,7.78,9.1"/><path d="M61.71,13c0.28,0.39,0.39,0.88,0.26,1.2c-0.93,2.34-3.83,6.74-6.95,9.41"/><path d="M46.02,23.46c0.57,0.58,1.43,2.25,1.55,3.01c0.47,2.93,2.09,14.28,2.64,19.28"/><path d="M47.5,25.29c5-0.42,31.42-3.07,34.35-3.23c1.86-0.11,3.39,1.2,3.12,3.31c-0.27,2.07-1.62,11.98-3.41,18.66"/><path d="M49.09,34.35c9.3-0.86,29.97-2.73,34.9-2.73"/><path d="M50.55,44.26c8.09-0.31,22.21-1.96,30.83-2.11"/><path d="M42.88,55.59c0.32,0.17,0.9,0.17,1.22,0.17c2.73-0.01,10.9-1.26,13.69-1.75c0.52-0.09,0.85,0.08,1.11,0.17"/><path d="M43.5,65.09c0.32,0.17,0.9,0.17,1.22,0.17c2.73-0.01,11.55-1.51,14.19-1.25c0.53,0.05,0.85,0.08,1.11,0.17"/><path d="M74.91,53.34c0.32,0.17,0.9,0.17,1.22,0.17c2.73-0.01,11.55-1.51,14.19-1.25c0.53,0.05,0.85,0.08,1.11,0.17"/><path d="M74.91,63.34c0.32,0.17,0.9,0.17,1.22,0.17c2.73-0.01,11.8-1.01,14.44-0.75c0.53,0.05,0.85,0.08,1.11,0.17"/><path d="M40.75,76.22c1.4,0.61,2.99,0.73,4.6,0.61c9.41-0.73,32.28-2.89,44.69-4.06c1.6-0.15,4.58-0.01,6.46,1.03"/><path d="M65.03,47.75c0.94,0.5,1.69,2.22,1.69,3.25c0,10.5,0,40.75-0.19,47"/></svg>