<svg><path d="M12.28,36.72c0.35,0.24,2.39,0.41,3.31,0.31c3.94-0.41,14.92-2.03,22.45-2.41c0.93-0.05,2.15-0.24,2.73,0"/><path d="M27.86,14c0.91,0.47,2.54,2.25,2.54,4.92c0,0.95-0.12,72.75-0.3,78.58"/><path d="M30.44,39.28c-5.74,16.23-8.94,23.1-17.83,37.31"/><path d="M32.47,50.4c2.66,1.92,7.03,8.14,9.28,11.85"/><path d="M41.25,25.56c1.46,0.34,3.15,0.41,4.61,0.34c13.39-0.63,28.77-3.89,44.21-3.93c2.43-0.01,3.88,0.16,5.1,0.33"/><path d="M53.94,13.95c1.47,1.25,2.04,2.11,2.09,2.89c0.47,7.41,0.72,15.66,1.38,19.66"/><path d="M77.29,12.17c0.71,0.83,0.95,2.18,0.79,3.46C77.5,20.15,76.84,29.06,76,33.21"/><path d="M57.5,35.26c7.06-0.74,13.5-1.51,20.87-1.87"/><path d="M46.5,44.21c0.38,0.29,0.78,0.53,0.95,0.89c1.33,2.86,2.43,10.23,3.34,15.37"/><path d="M48.46,45.69c9.41-1.2,33.2-3.77,38.05-4.18c1.78-0.15,2.84,1.48,2.59,2.36c-0.85,2.88-2.1,8.63-3.14,11.88"/><path d="M51.17,58.57c5.7-0.46,29.97-2.42,37.2-2.87"/><path d="M65.37,34.75c1.09,0.5,1.74,2.25,1.96,3.25c0.22,1,0.5,49.25,0.28,55.5"/><path d="M48.5,69.83c1.11,0.43,3.13,0.43,4.25,0.43c8-0.01,24.25-2.51,32.87-3.37c1.84-0.18,2.96,0.21,3.88,0.42"/><path d="M49.25,81.83c1.11,0.43,3.14,0.47,4.25,0.43c7.5-0.26,24-2.51,31.87-2.87c1.84-0.08,2.96,0.21,3.88,0.42"/><path d="M41.75,95.33c1.32,0.43,3.75,0.55,5.08,0.43c8.44-0.74,37.62-3.87,45.79-3.37c2.2,0.13,3.53,0.21,4.63,0.42"/></svg>