<svg><path d="M10.28,37.47c1.85,0.66,4.19,0.82,5.86,0.59c4.76-0.65,8.84-1.25,14.75-2.07c1.09-0.15,2.49-0.49,3.63-0.12"/><path d="M24.61,15.25c1.19,1.19,1.29,2.75,1.29,4.42c0,0.77-0.02,46.9-0.02,67.33c0,4.66,0,7.99,0,9.12"/><path d="M25.44,38.53c0,1.72-0.79,4.29-1.28,5.6C19.64,56.2,16.64,63.48,8.75,73.62"/><path d="M28.97,49.4c2,1.59,3.6,6.76,5.28,9.85"/><path d="M39.34,35.43c1.57,0.44,3.04,0.42,4.66,0.31c3.51-0.25,9.3-0.8,14.15-1.47c1-0.14,2.07-0.39,3.09-0.22"/><path d="M37.14,51.08c1.48,0.4,3.62,0.36,5.13,0.25c5.31-0.38,10.85-1.2,16.49-2.01c1.19-0.17,2.33-0.13,3.51,0.06"/><path d="M50.28,15.25c0.92,0.92,1.07,2,1.09,3.73c0.5,40.15,0.13,55.77-16.12,70.27"/><path d="M53.07,65.16c3.35,3.26,6.5,8.42,8.05,12.87"/><path d="M66.39,18.11c0.94,0.94,1.15,2.02,1.15,3.37c0,7.27-0.03,28.31-0.03,39.89c0,2.39,0,4.37,0,5.75"/><path d="M67.9,19.23c2.96-0.62,13.61-2.03,17.86-2.55C88.66,16.32,90,16.95,90,20c-0.02,8.01-0.12,44.68-0.12,45.62"/><path d="M68.74,33.81c5.01-0.44,16.84-1.75,20.17-1.75"/><path d="M68.91,48.75c5.59-0.5,14.42-1.78,19.75-1.78"/><path d="M68.7,64.61c6.3-0.48,13.55-1.23,19.75-1.53"/><path d="M72.13,69.28c0.5,0.85,0.61,1.61,0.41,2.97c-1.03,6.88-4.78,15-16.11,21.25"/><path d="M80.36,66.54c0.92,0.92,0.84,2.22,0.87,3.98c0.08,4.71-0.1,8.49-0.1,13.98c0,7.58,1.46,8.88,8.46,8.88c7.33,0,7.99-0.97,7.99-8.46"/></svg>