<svg><path d="M9.28,36.22c0.35,0.24,2.39,0.41,3.31,0.31c3.94-0.41,16.12-0.71,22.45-1.91c0.92-0.17,2.15-0.24,2.73,0"/><path d="M23.86,14.5c0.91,0.47,2.04,2.75,2.04,4.42c0,0.95-0.12,70.25-0.3,76.08"/><path d="M25.94,39.28c-5.1,15.04-7.94,21.4-15.83,34.56"/><path d="M28.47,44.9c2.37,1.59,6.28,6.76,8.28,9.85"/><path d="M55.8,13.75c0.04,0.56,0.22,1.56-0.09,2.25c-2.19,4.86-8.81,16.56-15.26,21.5"/><path d="M54.96,37.75c0.06,0.71,0.27,1.98-0.11,2.86C52.13,46.8,44.62,59.18,35,68"/><path d="M46.07,59c0.27,0.25,0.8,1.65,0.85,2.16c0.05,0.51,0,32.15-0.05,35.34"/><path d="M70.05,12.99c0,0.54,0.02,0.98-0.08,1.63c-0.52,3.4-5.49,14.73-9.74,19.75"/><path d="M67.9,23.71c2.51,1.34,5.71,4.91,6.93,8.29"/><path d="M87.82,13.49c0,0.65,0.04,1.17-0.1,1.95c-0.73,4.07-7.64,17.65-13.55,23.68"/><path d="M85.22,27.96c3.38,1.83,7.69,6.68,9.33,11.29"/><path d="M74.7,45.5c0.35,0.46,1.16,2.48,1.16,3.4c0,6.25,0.32,27.91,0.25,33.63"/><path d="M75.94,59.93 C76.87,59.93 83.37,59.10 89.07,58.43 C90.28,58.29 91.42,58.28 92.37,58.28"/><path d="M64.36,53.31c0.07,1.02,0.47,2.6,0.31,4.09c-1.31,12.83-3.42,23.1-11.82,36.31"/><path d="M63.27,72.47C72.25,79,85.09,91.49,90.34,93.94c1.66,0.78,3.05,1.5,4.66,1.81"/></svg>