<svg><path d="M13.28,39.72c0.35,0.24,2.39,0.41,3.31,0.31c3.94-0.41,17.12-1.21,23.45-2.41c0.92-0.17,2.15-0.24,2.73,0"/><path d="M28.86,15c0.91,0.47,2.04,2.5,2.04,4.42c0,0.95-0.12,72.75-0.3,78.58"/><path d="M30.44,40.28C23.81,56.19,19.25,66,9.86,76.84"/><path d="M32.97,46.9c2.37,1.67,6.28,7.11,8.28,10.35"/><path d="m52.85,16.19c0.78,0.44,1.29,1.93,1.27,3.12C54,26,53.5,33,53.02,38.38,52.86,40.11,53.45,40.8,54.84,40.66,63.75,39.75,72,38.75,84.69,38.5"/><path d="M54.17,16.75c0.8-0.04,27.37-2.25,31.35-1.97c1.55,0.11,2.96,1.3,2.65,3.13C87,24.89,86.25,31.1,84.5,39.76"/><path d="M69.77,17.3c0.48,1.2,0.48,1.7,0.63,3.35c0.16,1.79-0.8,11.76-1.86,18.71"/><path d="M42.38,28.82c1.37,0.48,2.8,0.97,3.8,0.95c11.85-0.32,29.13-3.31,48.55-3.2c1.65,0.01,3.08,0.05,3.91,0.44"/><path d="M52.38,48.25c0.51,0.82,0.75,1.44,0.75,2.52s0.1,32.56,0.1,33.1"/><path d="M53.54,49.63c2.88-0.05,27.23-2.64,29.85-2.73c2.19-0.07,3.29,0.85,3.29,3.34c0,4.28-0.36,20.19-0.35,32.01"/><path d="M53.93,60c8.14-0.38,23.82-2,32.3-2.33"/><path d="M53.73,70.38c8.52-0.63,22.98-1.41,32.17-1.77"/><path d="M53.6,81.79c9.57-0.64,22.02-1.09,31.73-1.78"/><path d="M62.12,86.86C62,87.75,61.46,89.1,60.5,89.8c-2.9,2.12-11.34,6.8-17.14,9.27"/><path d="M77.56,86.45c6.24,3.25,13.62,9.07,15.32,11.83"/></svg>