<svg><path d="M58.27,11.03c0.04,0.45,0.09,1.16-0.08,1.8c-1,3.8-6.75,12.14-14.63,17.25"/><path d="M44.67,17.11c5.57,1.01,12.97,6.09,15.14,9.61"/><path d="M57.83,32.26c0.04,0.42,0.09,1.08-0.08,1.69c-1.02,3.56-6.9,11.35-14.94,16.13"/><path d="M45.72,37.14c5.3,2.78,11.62,8.95,14.58,13.25"/><path d="M12.78,25.99c0.35,0.33,2.38,0.47,3.31,0.42c7.42-0.38,14.67-1.73,23.95-2.59c0.93-0.09,1.15-0.32,1.73,0"/><path d="M30.29,13.51c0.53,0.36,1.17,1.56,1.17,3.44c0,0.74-0.07,36.04-0.17,40.57"/><path d="M30.94,27.41c-5.98,10.2-9.31,14.51-18.58,23.43"/><path d="M33.22,32.29c2.3,1.52,5.47,6.71,7.41,9.65"/><path d="M65.5,23.8c0.66,0.29,1.4,0.38,2.16,0.29c3.84-0.47,19-2.12,24.81-2.67c0.75-0.07,1.22,0.05,1.97,0.25"/><path d="M76.48,11.5c0.69,0.37,1.24,1.65,1.24,2.42c0,7.83,0,36.57-0.14,41.23"/><path d="M77.5,23.86C75.16,29.77,68.88,38.8,64,42.14"/><path d="M76.78,24.23c2.77,3.01,15.79,18.12,18.8,21.09c1.02,1,1.89,1.44,2.91,1.72"/><path d="M16.38,67.36c1.12,0.64,4.12,1.29,6.51,1.11c16.11-1.22,49.86-3.22,64.36-4.14c2.49-0.16,4.5,0.42,6.75,0.92"/><path d="M53.62,53.5c0.59,0.64,0.89,1.39,0.88,2.78c-0.29,24.1-14.44,36.82-37.74,44.22"/><path d="M55.5,66.75c7.38,6.94,24.61,24.64,31.98,29.28c2.51,1.58,3.38,1.82,4.52,1.97"/></svg>