<svg><path d="M10.28,35.72c0.37,0.24,2.57,0.36,3.56,0.31c5.56-0.28,15.18-0.71,22-1.91c0.99-0.17,2.31-0.24,2.93,0"/><path d="M24.86,14.5c0.91,0.47,2.54,2,2.54,4.42c0,0.95-0.12,72.75-0.3,78.58"/><path d="M26.94,40.28c-4.7,15.15-7.31,21.55-14.58,34.81"/><path d="M29.72,50.15c2.3,1.88,6.09,7.97,8.03,11.6"/><path d="M65.37,12.04c1.03,0.37,2.5,2.36,2.48,3.58c-0.07,3.83-0.07,6.94-0.07,10.43"/><path d="M44.94,26.75c0,3.42-2.36,12.94-3.44,15.28"/><path d="M45.37,28.21c9.13-0.96,39.36-2.37,45.39-3.04c9.42-1.06,2,6.94-0.34,9.14"/><path d="M62.95,37.52c1.12,2.38,3.58,5.7,4.28,2.34"/><path d="M79.05,33.8c0.09,0.75,0.11,1.91-0.18,3.01c-2.38,8.96-19.17,25.7-37.73,33"/><path d="M54.45,37.39c5.41,15.25,10.86,26.1,30.37,25.8c6.88-0.11,5.2-3.76,2.35-6.96"/><path d="M48.3,44.2c0.25,1.81-2.51,9.79-4.51,12.8"/><path d="M85.55,43.24c3.55,1.94,7.76,5.91,9.09,9.68"/><path d="M66.05,66.17c0.48,0.35,1.5,2.64,1.59,3.35c0.1,0.71-0.26,14.67-0.26,23.07"/><path d="M48.59,76.46c0.48,0.35,1.03,1.85,0.96,2.56c-0.32,3.15-0.58,8.15-1.87,14.55c-0.32,1.58-0.14,3.59,0.95,2.95c2.69-1.57,32.39-5.32,38.41-5.51"/><path d="M88.08,73.39c0.48,0.35,1.04,2.64,0.96,3.35c-0.48,4.33-0.56,9.83-1.35,17.9"/></svg>