<svg><path d="M11.28,39.72c0.35,0.24,2.39,0.41,3.31,0.31c3.94-0.41,17.12-1.21,23.45-2.41c0.92-0.17,2.15-0.24,2.73,0"/><path d="M25.86,15.5c0.91,0.47,2.54,2.75,2.54,4.42c0,0.95-0.12,70.75-0.3,76.58"/><path d="M27.94,41.28c-5.1,15.04-7.94,21.4-15.83,34.56"/><path d="M30.47,46.9c2.37,1.59,6.28,5.76,8.28,8.85"/><path d="M52.09,12.16c0.62,0.26,0.13,2.07-0.11,2.68c-1.51,3.95-3.45,8.07-7.44,11.61c-0.77,0.68-0.37,0.7,0,0.89c4.61,2.3,6.71,3.66,10.5,8.69"/><path d="M68.8,11.66c0.62,0.26,0.13,2.07-0.11,2.68c-1.51,3.95-4.95,6.57-8.94,10.11c-0.77,0.68-0.37,0.7,0,0.89c4.61,2.3,8,4.16,11.55,9.19"/><path d="M84.24,10.66c0.62,0.26,0.13,2.07-0.1,2.68c-1.51,3.95-4.45,6.59-8.44,10.13c-0.77,0.68-0.37,0.7,0,0.89c4.61,2.3,9.81,4.64,12.5,8.67"/><path d="M48.01,41.36c0.42,0.48,1.02,1.05,1.02,1.69c0,0.64,2.5,18.77,2.57,19.41"/><path d="M49.61,42.42c1.25-0.08,34.83-3.43,35.98-3.42c1.5,0,2.13,1.86,2.06,2.34c-0.15,0.96-2.41,18.44-2.41,18.92"/><path d="M50.19,51.42c1.7,0,34.14-2.87,36.06-2.87"/><path d="M52.11,60.49c3.46-0.35,28.59-2.09,32.9-2.39"/><path d="M39.78,70.65c1.05,0.28,3.85,1,6.63,0.83c12.19-0.73,30.83-3.23,46.52-3.72c2.79-0.09,3.49,0.28,5.24,0.55"/><path d="M65.97,41.23c0.79,0.37,1.26,1.68,1.41,2.42c0.16,0.74,0,50.44-0.16,55.1"/><path d="M66.52,70.03c-4.67,7.87-16.81,19-26.52,23.46"/><path d="M67.61,70.67c3.78,2.71,21.55,16.28,25.66,18.95c1.39,0.9,2.59,1.29,3.98,1.55"/></svg>