<svg><path d="M11.53,36.97c2.11,0.33,4.24,0.41,6.37,0.24c4.35-0.46,10.85-1.33,16.35-2.24c1.74-0.29,3.5-0.43,5.27-0.36"/><path d="M27.86,14.5c1.13,1.13,1.29,2.88,1.29,4.42c0,0.74-0.01,39.56-0.02,61.33c0,6.27,0,11.13,0,13.25"/><path d="M28.94,37.78c-0.06,1.72-0.84,4.59-1.35,6c-4.26,11.75-8.71,19.72-14.73,29.06"/><path d="M32.75,46c2.75,2.64,5.88,6.28,7.88,9.54"/><path d="M65.82,10.25c0.9,0.9,1.17,2.14,1.17,3.57s0,2.51,0,7.06"/><path d="M48.73,23.39c2.27,0.47,4.47,0.35,6.78,0.08c9.23-1.09,17.23-2.22,27.48-3.23c2.3-0.23,4.63-0.32,6.94-0.06"/><path d="M55.69,26.58c2.54,3.42,4.19,7.06,4.42,9.31"/><path d="M82.24,24.17c-0.02,0.77-0.08,1.53-0.35,2.25c-1.26,3.33-2.92,6.17-3.92,7.72"/><path d="M42.16,39.45c3.1,0.53,6.2,0.35,9.35,0c10.62-1.2,24.61-2.58,36.12-3.19c2.99-0.33,5.96-0.27,8.93,0.18"/><path d="M50.47,47.83c0.91,0.91,1.35,1.77,1.61,3.06c0.67,3.29,1.65,8.31,2.52,12.99c0.32,1.7,0.62,3.35,0.88,4.86"/><path d="M52.45,49.26c9.6-1.11,23.91-2.85,29.54-3.25c2.9-0.21,5.23,0.17,4.56,3.89c-0.56,3.11-0.97,6.11-1.73,10.44c-0.33,1.9-0.74,4.05-1.25,6.59"/><path d="M54.18,57.65c10.45-1.15,23.55-1.86,30.45-2.16"/><path d="M56.22,66.78c8.93-1.04,22.18-1.63,26.49-1.63"/><path d="M40.03,79.76c3.61,0.44,7.2,0.24,10.84-0.04c11.13-0.85,24.5-1.47,37.38-2.15c2.87-0.15,6.15,0.19,9,0.69"/><path d="M68.26,69.48c0.94,0.94,1.06,1.77,1.06,3.35c0,4.54-0.04,11.15-0.06,18.92c-0.01,2.76-0.01,5.12-0.01,6.5"/></svg>