<svg><path d="M10.28,34.02c0.39,0.27,2.69,0.46,3.73,0.35c4.44-0.46,16.54-0.23,23.68-1.59c1.03-0.2,2.42-0.27,3.07,0"/><path d="M27.36,13.5c0.91,0.47,2.54,2.25,2.54,4.42c0,0.95-0.12,71.75-0.3,77.58"/><path d="M29.69,37.53c-5.9,17-9.19,24.18-18.33,39.06"/><path d="M31.97,48.4c2.37,1.59,6.28,7.76,8.28,10.85"/><path d="M49.71,12.06c2.96,1.62,7.65,6.67,8.4,9.19"/><path d="M78.12,10.39c0.03,0.28,0.05,0.71-0.04,1.11c-0.55,2.33-3.73,7.45-8.09,10.58"/><path d="M47.33,27.05c0.73,0.13,2.06,0.15,2.79,0.13c7.02-0.19,28.27-2.06,35.02-2.24c1.21-0.03,1.94,0.06,2.54,0.13"/><path d="M65.17,28.8c0.72,0.42,1.31,1.86,1.31,2.72c0,4.88-0.15,5.15-0.15,14.37"/><path d="M49.1,37.54c0.71,0.32,2,0.37,2.71,0.32c6.31-0.42,24.15-3.28,30.52-3.16c1.18,0.02,1.89,0.15,2.48,0.31"/><path d="M42.63,47.45c1.33,0.4,3.77,0.51,5.1,0.4c8.09-0.7,27.41-2.7,41.99-3.52c2.21-0.12,3.55,0.19,4.65,0.39"/><path d="M59.73,50.5c4.28,1.47,7.7,3.5,8.99,5.53"/><path d="M52.01,62.92c0.01,0.07,1.07,0.64,2.62,0.47c2.87-0.32,7.15-1.26,9.95-1.26c1.48,0,3.29,0.58,3.14,2.44c-0.67,7.9-0.33,27.78-0.33,30.39c0,5.29-5.4-0.71-6.76-1.91"/><path d="M42.64,73.68c1.07,0.13,2.31,0.52,3.37,0.26c1.06-0.26,8.78-1.14,10.55-1.66c1.77-0.52,2.3,1.42,1.66,2.56C54.79,81,49.5,86,41.87,91.43"/><path d="M86.96,60.53c0.07,0.33,0.13,0.9-0.15,1.33c-2.62,4.07-8.46,9.47-13.2,11.59"/><path d="M70.2,71.62c7.55,6.88,14.55,14.13,21.56,19.42c1.25,0.94,2.61,1.21,3.84,1.49"/></svg>