<svg><path d="M9.78,36.22c0.35,0.24,2.39,0.41,3.31,0.31c3.94-0.41,12.42-1.03,21.45-1.41c0.93-0.04,2.15-0.24,2.73,0"/><path d="M24.36,15.5c0.91,0.47,2.04,2.5,2.04,4.42c0,0.95-0.12,70.75-0.3,76.58"/><path d="M25.94,40.28c-5.1,15.04-7.94,21.4-15.83,34.56"/><path d="M28.97,49.9c2.37,1.76,6.28,7.45,8.28,10.85"/><path d="M45.36,18.17c0.56,0.44,1.05,1.64,1.13,2.29c0.25,2.04,2.32,19.95,2.32,20.28"/><path d="M46.55,18.99c3.16-0.33,29.1-2.2,31.97-2.52c2.39-0.27,3.95,0.73,3.76,3.4C82.05,23.28,80.5,32,79.22,39.14"/><path d="M47.69,29.28c4.27-0.33,28.53-2.41,33.36-2.79"/><path d="M48.76,38.9c6.31-0.49,21.3-1.54,29.47-2.18"/><path d="M38.75,49.56c1.1,0.5,3.12,0.58,4.22,0.5c12.81-0.92,34.81-2.67,46.71-2.89c1.83-0.03,2.93,0.24,3.85,0.49"/><path d="M44.75,51.92c0.21,0.79,0.83,1.55,0.83,2.47c0,0.92-0.1,28.41-0.1,31.73"/><path d="M45.78,61.32C51.5,61,55.83,60.5,61.07,59.94"/><path d="M46.08,71.75c4.84-0.8,8.78-1.13,14.68-1.69"/><path d="M38.15,87.55c0.35,0.95,2.03,1.21,2.68,0.92c2.62-1.18,15.68-7.33,19.7-9.21"/><path d="M60.3,52.21c0.65,0.83,0.71,0.97,0.71,1.89c0,0.92,0.1,35.6,0.1,43.15"/><path d="M67.79,57.32c0.76,0.24,1.36,0.59,2.89,0.24c1.53-0.36,14.4-2.44,15.45-2.8c1.05-0.36,2.33,1.32,1.93,2.61C83.31,72.7,78.25,82,67.66,91"/><path d="M67.22,64.84C72,65.5,82.5,83.5,93.61,92.31c1.53,1.21,3.19,2.48,4.64,2.88"/></svg>