<svg><path d="M12.53,38.47c1.89,0.29,3.79,0.39,5.7,0.31c4.24-0.47,11.09-1.81,16.54-2.64c1.57-0.28,3.15-0.37,4.75-0.27"/><path d="M26.61,15.25c1.07,1.07,1.29,2.38,1.29,4.67c0,0.95,0.1,70.2,0.1,76.45"/><path d="M27.69,39.28c0,1.84-0.58,4.89-1.08,6.33c-4.35,12.34-7.71,18.6-15,30.72"/><path d="M32.22,50.4C35,52.5,39,57.75,40.63,61.54"/><path d="M57.64,15c0,1.12-0.21,2.22-0.83,3.46c-4.19,8.42-8.44,15.67-16.25,25.12"/><path d="M51.65,31.15c0.91,0.91,1.2,2.1,1.2,3.36c0,6.88-0.06,21.75-0.09,31.62c-0.01,3.39-0.02,6.19-0.02,7.88"/><path d="M78.41,13.24c0.07,0.79-0.21,1.6-0.51,2.25c-2.02,4.38-3.52,7.13-6.9,11.63"/><path d="M52.67,31.36c5.9-0.61,22.87-1.55,33.34-2.2c4.31-0.27,7.53-0.49,8.41-0.61"/><path d="M70.44,32.46c0.8,0.8,0.99,2.16,0.99,3.24c0,5.5-0.05,24.27-0.05,33.05"/><path d="M53.86,44.3c4.7-0.47,20.63-1.44,30.4-2.1c4.03-0.27,6.8-0.49,7.63-0.59"/><path d="M54.05,56.71c4.99-0.4,20.26-1.34,29.72-1.96c3.82-0.25,6.69-0.45,7.55-0.54"/><path d="M54.05,70.99c5.82-0.49,22.2-1,32.83-1.36c4.33-0.15,7.57-0.28,8.45-0.41"/><path d="M46.97,82.2c0,4.82-5.12,11.93-6.2,13.3"/><path d="M59.82,82.16c1.69,2.66,3.04,9.98,3.46,14.12"/><path d="M74.8,79.95c1.64,2.76,4.49,11.87,4.9,16.17"/><path d="M89.13,79.47c2.97,2.85,7.68,11.96,8.42,16.39"/></svg>