<svg><path d="M14.78,41.41c0.35,0.24,2.39,0.41,3.31,0.31c3.94-0.41,17.12-2.71,23.45-3.91c0.92-0.17,1.15-0.24,1.73,0"/><path d="M29.86,14.7c0.91,0.47,2.54,3.25,2.54,5.42c0,0.95-0.12,70.75-0.3,76.58"/><path d="M31.94,42.48c-5.9,14.39-9.19,20.47-18.33,33.06"/><path d="M35.47,49.09c2.61,1.28,6.21,5.66,8.41,8.14"/><path d="M61.14,11.34c0.04,0.39,0.07,1.02-0.07,1.58c-0.85,3.34-5.73,10.66-12.4,15.14"/><path d="M71.75,8.7c4.75,1,19.45,16.49,23.16,19.18c1.26,0.91,2.33,1.31,3.59,1.57"/><path d="M56.93,26.07c0.8,0.48,2.26,0.59,3.07,0.48c7.11-0.97,15.99-2.61,20.4-2.87c1.33-0.08,2.14,0.23,2.81,0.47"/><path d="M53.19,35.72c0.46,0.68,0.64,2.32,0.64,3.23s0.03,24.35,0.03,24.62"/><path d="M55.58,37.13c2.62-0.11,27.81-3.67,30.04-3.75c1.86-0.07,2.82,1.12,2.82,2.62c0,0.84-0.75,19.47-0.74,25.28"/><path d="M64.6,26.89c0.25,0.74,0.57,1.38,0.58,2.18c0.07,7.83-0.4,14.31-6.15,17.76"/><path d="M73.05,27.71c0.46,0.63,0.82,1.38,0.84,2.35c0.08,3.09-0.2,7.26-0.24,11.08c-0.03,3.32,1.28,3.73,5.6,3.73c2.74,0,5.47-0.41,5.78-0.79"/><path d="M54.28,52.76c3.31,0,29.89-2.06,33.63-2.06"/><path d="M54.81,61.18c6.74-0.28,24.36-1.7,32.75-1.94"/><path d="M43.88,73.03c1.16,0.76,3.28,0.85,4.46,0.76c14.54-1.16,30.77-2.8,44.97-3.95c1.93-0.16,3.1,0.36,4.07,0.74"/><path d="M80.38,63.23c0.05,0.36,0.74,1.9,0.74,4.21c0,8.06,0.22,20.3,0.22,24.08c0,9.19-5.43,1.36-6.73,0.19"/><path d="M57,78.2c2.45,1.43,6.34,5.86,6.95,8.08"/></svg>