<svg><path d="M10.28,36.72c0.35,0.24,2.39,0.41,3.31,0.31c3.94-0.41,17.62-0.71,23.95-1.91c0.92-0.17,2.15-0.24,2.73,0"/><path d="M26.36,13c0.91,0.47,2.54,2,2.54,4.42c0,0.95-0.3,72.83-0.3,81.08"/><path d="M27.94,39.78c-5.1,15.04-7.94,21.4-15.83,34.56"/><path d="M31.72,48.65c2.08,1.5,7.27,9.2,9.03,12.1"/><path d="M60.05,11.89c1,1.36,1.7,2.67,1.7,3.76c0,3.35,0.25,10.6,0.6,14.77"/><path d="M72.05,10.39c1,1.59,1.2,2.54,1.2,3.81c0,1.27-0.5,12.05-0.9,15.21"/><path d="M47.02,16.58c2.4,1.7,6.19,6.99,6.79,9.63"/><path d="M88.28,12.14c0.02,0.37,0.08,0.95-0.04,1.47c-0.99,4.13-3.74,9.63-6.93,14.6"/><path d="M44,32.4c1.02,0.37,2.9,0.55,3.9,0.37c4.12-0.72,36.35-3.76,46.03-3.76c1.7,0,2.72,0.18,3.57,0.36"/><path d="M57.27,35.08c1.96,1.79,5.05,7.35,5.54,10.13"/><path d="M80.04,32.64c0.02,0.28,0.03,0.73-0.03,1.14c-0.39,2.41-2.63,7.69-5.7,10.93"/><path d="M45.5,49.03c1.47,0.28,4.17,0.35,5.64,0.28c8.09-0.39,21.46-2.82,35.45-2.82c2.46,0,3.93,0.13,5.15,0.27"/><path d="M48.5,61.59c1.19,0.28,3.39,0.43,4.56,0.28c8.44-1.12,19.69-2.45,31.02-2.45c1.99,0,3.18,0.13,4.17,0.27"/><path d="M41,72.9c1.4,0.37,3.95,0.47,5.35,0.37c7.66-0.52,31.51-2.76,44.77-2.76c2.32,0,3.72,0.18,4.88,0.36"/><path d="M67.24,51.25c0.49,1.04,1.07,2.9,0.9,4.54C66.5,71.75,61,91.5,41,99.25"/><path d="M65.9,72.73c2.65,0.57,15.57,15.95,24.79,22.25c1.43,0.98,2.48,1.63,3.82,1.96"/></svg>