<svg><path d="M10.28,39.47c1.6,0.66,3.76,0.28,4.98,0.09c4.46-0.7,12.85-2.31,18.53-3.4c1.23-0.23,2.99-0.8,4.23-0.29"/><path d="M25.36,15c1.26,1.26,1.79,2.75,1.79,4.42c0,0.82-0.04,50.17-0.05,69.95c0,3.14,0,5.54,0,6.88"/><path d="M26.19,39.53c0,0.84-0.1,1.58-0.34,2.33C22,54.25,19.33,62.31,12.11,75.34"/><path d="M29.88,45.75c2.33,1.62,6.16,6.86,8.12,10"/><path d="M50.09,15.25c0.22,1.11,0.42,2.05-0.11,3.14c-2.32,4.8-3.86,8.86-5.95,12.16c-0.57,0.89-0.91,2.45,0.25,3.02c1.27,0.62,3.58,1.91,6.1,4.49"/><path d="M54.01,28.56c0.2,0.5,0.27,2.15,0,2.68c-3.93,7.86-5.26,9.77-10.61,18.2c-1.1,1.74,0.31,2.58,1.11,2.25c3.38-1.4,8.97-3.53,13.32-4.87"/><path d="M55.13,42.62c1.6,1.42,4.15,5.84,4.55,8.05"/><path d="M76.71,11.75c0.22,1.11,0.31,2-0.11,3.14c-1.85,4.99-3.47,8.49-6.03,12.41c-0.4,0.61-0.32,1.95,0.75,2.52c1.25,0.66,3.33,1.66,5.85,4.24"/><path d="M85.8,17.56c0.2,0.5,0.27,2.15,0,2.68c-3.93,7.86-7.71,14.03-13.11,21.2c-1.24,1.64,0.31,2.59,1.12,2.25c3.38-1.4,9.22-3.53,13.56-4.87"/><path d="M85.4,34.3c1.81,1.69,5.61,6.07,6.06,8.7"/><path d="M39.54,63.98c2.96,0.39,6.03,0.22,8.92-0.32c8.74-1.64,28.25-4.82,39.65-6.4c3.37-0.47,7.51-0.64,9.89,0.06"/><path d="M52.42,66.43c0.06,0.81,0.12,1.6-0.12,2.75c-1.79,8.61-4.55,16.95-11.99,24.49"/><path d="M54.25,75.38c2.13,0.84,6.01,4.05,7.95,7.41"/><path d="M59.15,12c1.34,1.84,2.13,3.09,2.43,7.04C64,51,74.38,82.25,92.57,94.75c5.44,3.74,5.23,1.46,4.56-6.67"/><path d="M86.62,63.5c0.08,0.7,0.17,1.82-0.16,2.83C84.56,72.29,75.52,86.5,60.55,94.5"/><path d="M77.38,47.25c2.3,1.21,5.98,3.96,7.05,6.03"/></svg>