<svg><path d="M14.28,36.97c1.17,0.81,4.51,0.44,5.85,0.26c4.6-0.59,12.35-1.71,17.64-2.67c1.25-0.23,2.86-0.43,4.25-0.19"/><path d="M30.21,14.7c1.13,1.13,1.29,2.75,1.29,4.42c0,7.21,0.1,56.75,0.1,67.37c0,3.46,0,6.01,0,7.25"/><path d="M30.44,37.53c0,1.59-0.76,4.43-1.26,5.78C24.73,55.42,18.75,66,12.86,74.34"/><path d="M34.5,44c2.29,1.13,6.07,4.81,8,7"/><path d="M48.67,17.28c2.15,0.62,4.86,0.42,7.08,0.07c7.06-1.09,22.9-3.85,25.09-4.13c2.67-0.35,3.42,1.4,1.23,3.11c-2.64,2.07-12.44,9.28-14.97,11.24"/><path d="M58.77,23.65c2.13,0.88,7.63,4.27,8.63,6.57"/><path d="M46.97,34.76c1.4,0.74,3.4,0.76,5.43,0.36C63.12,33,75.25,30.88,87.76,30.2c5.5-0.29,0.27,5.83-1.85,7.19"/><path d="M69.4,35.72c0.88,0.88,0.97,2.15,0.97,3.89c0,3.38-0.04,9.88-0.04,12.41c0,6.19-4.82,1.48-5.96,0.13"/><path d="M65.74,34.63c0,0.87-0.24,1.94-1.11,2.97C60.75,42.25,54.5,48.25,44,54.38"/><path d="M48,60.27c0.93,0.93,0.89,2.1,0.89,3.98c0,3.62,0.12,17.75,0.12,21.5c0,3.81,0.04,6.69,0.04,7.16"/><path d="M49.88,61.05c8.87-1.3,31.5-4.05,37.97-4.8c3.22-0.37,4.64,0.75,4.5,4.17c-0.22,5.33-0.6,22.7-1.34,29.13c-0.89,7.67-4.87,2.34-7.09,0.91"/><path d="M62.46,62.25c0.04,0.57,0.02,1.36-0.25,1.96C61,66.88,59.25,70,55.34,74.57"/><path d="M73.77,58.85c0.69,0.69,1,1.53,1,2.67c0,0.61,0.06,1.98,0.06,2.99c0,3.12,0.3,3.55,4.96,3.55c4.21,0,5.61-1.19,6.08-1.44"/><path d="M60.41,74.32c0.74,0.5,1.13,1.21,1.19,2.15c0.46,1.66,0.88,3.99,1.26,6.21c0.2,1.16,0.39,2.3,0.56,3.28"/><path d="M62.24,74.91c4.65-0.75,9.64-1.74,12.78-2.21c2.86-0.43,3.26-0.06,2.83,2.67c-0.31,1.99-0.41,3.77-1.04,6.06"/><path d="M64.53,83.98c3.47-0.6,6.14-0.98,10.24-1.61c1.08-0.17,2.12-0.31,3.04-0.4"/></svg>