<svg><path d="M11.28,38.22c0.35,0.24,2.39,0.41,3.31,0.31c3.94-0.41,13.92-0.53,21.95-1.41c0.93-0.1,2.15-0.24,2.73,0"/><path d="M27.86,16c0.91,0.47,2.04,2.25,2.04,4.42c0,0.95-0.12,69.75-0.3,75.58"/><path d="M29.44,41.78c-5.34,16.45-8.81,23.91-17.08,38.31"/><path d="M32.47,51.15c2.23,1.8,5.9,7.62,7.78,11.1"/><path d="M66.11,13.75c0.79,0.66,1.18,0.66,1.18,2.18c0,1.53,0,4.15,0,8.3"/><path d="M45.11,24.94c1.32,0.29,2.86,0.33,4.17,0.29c7.43-0.25,26.68-1.65,37.92-1.86c2.19-0.04,3.51,0.14,4.61,0.28"/><path d="M54.85,27.45c3.61,3.5,5.25,6.58,5.58,8.89"/><path d="M80.68,26.92c0.07,0.58,0.11,1.51,0.04,1.8c-0.44,1.94-4.48,8.08-5.57,9.56"/><path d="M43.72,39.81c1.47,0.32,3.19,0.43,4.64,0.32c16.48-1.26,23.56-2.03,42.04-2.69c2.44-0.09,3.91,0.15,5.13,0.31"/><path d="M50.95,48.57c0.24,0.37,0.75,1.12,0.88,1.58c1.1,3.8,2.01,13.9,2.69,20.99"/><path d="M52.09,49.08c8.52-0.96,26.63-2.08,32.99-2.89c2.34-0.3,3.91,2.25,3.79,3.3c-0.44,3.83-1.07,11.02-2.71,19.16"/><path d="M53.68,58.91c2.77-0.37,30.66-2.12,32.96-2.27"/><path d="M54.59,69.15c6.14-0.41,22.09-1.66,30.57-2.32"/><path d="M68.36,50.29c0.56,0.53,0.97,1.52,1,2.82c0.19,9.48,0.07,36.22,0.07,38.86"/><path d="M49.83,80.58c1.08,0.29,3.05,0.32,4.14,0.29c11.23-0.33,19.43-2.33,33.32-2.4c1.8-0.01,2.88,0.13,3.78,0.28"/><path d="M42.99,94.31c1.39,0.29,3.95,0.44,5.34,0.29c13.17-1.35,24.97-2.22,44.77-2.22c2.32,0,3.71,0.14,4.88,0.29"/></svg>