<svg><path d="M11.03,38.11c2.02,0.42,4.06,0.55,6.11,0.4c4.74-0.54,12.78-1.89,18.25-2.63c1.45-0.29,2.91-0.4,4.37-0.33"/><path d="M27.61,15.5c1.07,1.07,1.54,2.75,1.54,4.92c0,1.59-0.04,46.38-0.05,66.08c0,4.18,0,7.23,0,8.5"/><path d="M28.69,37.53c0,2.84-1.4,7.26-2.22,9.25C21.5,58.75,17.88,65.5,10.36,75.84"/><path d="M32.22,49.65c2.68,1.59,6.28,6.6,7.91,9.89"/><path d="M46.75,20.48c2.75,0.39,5.5,0.34,8.25-0.14c8.78-0.83,22.08-2.63,30.26-3.15c2.42-0.29,4.83-0.27,7.24,0.08"/><path d="M49.31,27.85c0.8,0.8,1.43,1.89,1.55,2.65c0.9,5.6,1.47,9.25,1.97,12.99c0.2,1.52,0.4,3.05,0.6,4.74"/><path d="M51.11,29.05c11.2-1.22,25.52-2.71,31.99-3.4c2.44-0.26,5.37,1.12,5.15,3.86c-0.23,2.93-1.38,7.76-2.16,12.08c-0.29,1.59-0.53,3.12-0.65,4.45"/><path d="M67.95,28.88c0.84,0.84,0.97,1.75,0.97,2.87c0,4.09,0.03,10.63,0.03,13.06"/><path d="M52.92,37.5c7.96-0.75,21.21-2.25,33.49-2.68"/><path d="M54.18,46.78c8.32-0.9,18.94-1.65,30.09-2.3"/><path d="M44.75,55.44c2.92,0.42,5.83,0.39,8.75-0.08c9.75-0.83,24.02-2.34,33.5-2.88c2.93-0.34,5.85-0.32,8.75,0.09"/><path d="M50.56,62.6c0.91,1.12,1.39,2.38,1.42,3.79c0.56,3.96,1.09,9.19,1.6,13.99c0.2,1.88,0.4,3.7,0.59,5.35"/><path d="M52.36,63.8c10.39-1.43,22.51-2.18,31.25-3.12c4.04-0.44,5.56,1.06,5.39,3.94c-0.19,3.07-0.93,8.38-1.54,13.03c-0.32,2.45-0.61,4.72-0.77,6.39"/><path d="M68.2,64.13c0.55,0.37,0.97,1.57,0.97,2.37c-0.01,4.09,0.02,13.07,0.03,14.56"/><path d="M53.92,73.25c6.82-0.77,24.61-2.55,33.49-2.93"/><path d="M55.18,83.53c12.19-1.28,20.89-2.1,31.09-2.8"/><path d="M45,93.69c3.09,0.43,6.18,0.39,9.27-0.11c10.53-0.98,23.86-2.09,34.61-2.4c3.27-0.1,6.47,0.03,9.62,0.88"/></svg>