<svg><path d="M 11.78,38.72 c 2.21,0.48 4.4,0.42 6.58,-0.19 4.53,-0.82 11.53,-2.37 16.64,-3.41 1.39,-0.45 2.82,-0.61 4.26,-0.5"/><path d="M 27.11,14 c 0.94,0.94 1.29,2.5 1.29,4.17 0,0.65 0.07,51.67 0.09,72.33 0.01,4.9 0.01,8.09 0.01,8.5"/><path d="M 28.12,37.88 c 0,2.75 -1.25,5.38 -2.07,7.4 -4.7,11.57 -8.32,17.96 -15.94,29.57"/><path d="M 31.47,48.9 c 2.37,1.59 5.66,7.05 7.66,10.14"/><path d="M 64.27,11.25 c 0.02,1.38 -0.23,2.7 -0.92,3.86 -4.48,7.52 -10.98,17.02 -22.75,24.96"/><path d="M 65.88,15.5 c 4.5,4.12 14,11.12 20.78,15.45 3.17,2.02 6.31,3.81 10,4.57"/><path d="M 65.44,26.75 c 0.71,0.71 0.94,1.75 0.94,2.88 0,2.55 -0.01,4.21 -0.01,6.62"/><path d="M 49.77,38.6 c 2.12,0.43 4.18,0.36 6.35,0.07 6.4,-0.84 14.76,-1.55 21.89,-1.98 2.22,-0.13 4.24,-0.07 6.73,0.09"/><path d="M 76.11,40.03 c 0,0.85 -0.43,1.94 -1.02,2.53 -6.21,6.2 -11.09,9.7 -18.72,12.93"/><path d="M 57.83,43.74 c 6.36,1.35 15.51,5.74 18.84,8.95"/><path d="M 48.86,43.17 c 0.76,0.71 1.05,1.83 1.05,2.76 0,1.74 -0.07,7.22 -0.12,10.46 -0.05,3.35 0.56,4.15 3.96,3.83 10.52,-0.97 26.16,-2.51 29.94,-2.66"/><path d="M 85.96,42.06 c 0.8,0.8 0.91,1.57 0.78,2.77 -0.04,0.34 -1.37,8.54 -2.39,14.37"/><path d="M 45.19,68.17 c 0.88,0.88 1.29,2.2 1.29,3.97 0,4.53 0.03,11.09 0.05,17.61 0.01,2.64 0.01,5.27 0.01,7.75"/><path d="M 47.75,70.62 c 6.94,-0.52 39.73,-4.09 41.01,-4.34 2.74,-0.53 4.55,1.28 4.45,2.82 -0.24,3.73 -2.66,19.51 -4.81,24.24 -2.69,5.92 -3.67,3.64 -6.09,-0.04"/><path d="M 66.57,61.49 c 0.05317,7.37129 -0.945707,15.408166 -2.73272,20.605971"/><path d="M 58.59,83.62 C 63.9,82.21 70.67,80.33 78,79"/><path d="M 75.29,72.92 c 2.21,1.9 5.7,7.8 6.25,10.75"/></svg>