<svg><path d="M12.78,35.72c0.35,0.24,2.39,0.41,3.31,0.31c3.94-0.41,13.12-0.71,19.45-1.91c0.92-0.17,2.15-0.24,2.73,0"/><path d="M25.36,14.5c0.91,0.47,2.04,1.75,2.04,4.42c0,0.95-0.12,68.75-0.3,74.58"/><path d="M26.94,38.78C22.75,52.5,17.25,65,11.11,73.34"/><path d="M29.97,45.9c2.88,1.71,7.6,7.28,10.03,10.6"/><path d="M65.64,14.07c1.27,0.36,2.02,1.63,1.99,2.63c-0.13,3.82-0.24,4.85-0.1,8.08"/><path d="M47.9,25.82c0.81,0.03,2.67,0.3,3.45,0.17c3.22-0.52,20.01-0.76,35.32-2.29c1.33-0.13,2.82,0.31,3.49,0.3"/><path d="M55.46,30.8c2.65,3.36,3.69,6.67,4.07,9.09"/><path d="M79.09,27.7c0.66,0.8,0.49,2.31,0.34,2.63c-1.47,3.2-3.81,7.61-4.9,9.43"/><path d="M42.33,43.7c2.1,0.05,2.9,0.37,4.17,0.26c20.19-1.74,27.08-2.05,44.23-2.71c2.19-0.08,4.62-0.16,5.94,0.17"/><path d="M49.62,51.6c0.42,0.42,1.15,1.22,1.15,1.83c0,0.61,2.91,16.05,2.91,16.35c0,0.3,0.18,1.12,0.18,1.73"/><path d="M51.47,52.17c2.39-0.25,30.28-2.56,32.39-3.01c2.11-0.46,3.14,1.59,2.78,3.96c-0.51,3.35-2.89,11.13-4.41,16.96"/><path d="M53.13,60.44c3.24-0.24,28.08-1.59,31.74-1.86"/><path d="M54.66,69.2c4.78-0.35,21.32-1.43,27.51-1.88"/><path d="M43.89,81.14c0.27,1.7-2.66,9.38-4.79,12.33"/><path d="M54.03,79.47C59.5,91.25,68.98,96.33,86,96.44c8,0.06,7.75-3.94,2.8-6.12"/><path d="M68.74,77.52c1.34,2.49,4.86,8.04,5.7,4.4"/><path d="M87.44,74.86c4.21,1.71,7.2,4.03,10.79,8.84"/></svg>