<svg><path d="M10.28,38.72c0.35,0.24,2.39,0.41,3.31,0.31c3.94-0.41,14.12-1.21,20.45-2.41c0.92-0.17,2.15-0.24,2.73,0"/><path d="M23.86,13c0.91,0.47,2.04,3.25,2.04,4.42c0,0.95-0.12,74.75-0.3,80.58"/><path d="M24.94,40.28C22.5,53.25,17.5,63,9.61,75.84"/><path d="M27.72,49.15c2.44,1.43,7.47,7.84,9.53,10.6"/><path d="M66.25,10c0.13,0.41,0.15,0.91,0.12,1.26c-0.18,2.09-1.7,7.1-3.09,9.92"/><path d="M57.97,22.12c0.3,0.76,0.61,1.13,0.61,2.14s1,23.18,1.12,28.15"/><path d="M58.77,23.9c1.73-0.13,14.89-2.72,16.47-2.87c1.31-0.13,2.16,0.85,2.06,1.59c-0.21,1.51-0.89,21.18-1.06,29.23"/><path d="M59.07,36.87c2.34,0,14.45-1.37,17.1-1.37"/><path d="M60.22,51.03c3.46,0,10.62-1.06,15.1-1.06"/><path d="M40.68,24.5c2.89,1.72,7.47,7.07,8.19,9.75"/><path d="M39.67,50.69c1.2,0.58,2.75,0.49,3.59,0c0.81-0.48,5.74-4.26,8.86-6.69"/><path d="M93.3,20.75c0.04,0.29,0.08,0.75-0.07,1.16c-0.86,2.44-5.79,7.81-12.55,11.09"/><path d="M83.12,41.5c4.24,1.85,10.96,7.62,12.02,10.5"/><path d="M41,68.38c0.6,0.12,2.22,0.31,3.83,0.36c4.43,0.12,37.49-3.14,48.58-3.74c1.61-0.09,3.01,0.38,4.02,0.5"/><path d="M67.13,57.5c0.66,0.28,1.06,1.24,1.2,1.79c0.13,0.55,0,37.27-0.13,40.71"/><path d="M65.86,67.25c-5.21,8.89-18.75,21.47-29.58,26.5"/><path d="M69.33,67.11c3.99,5.53,17.23,19.01,23.37,22.71c1.5,0.91,2.47,1.61,3.8,1.93"/></svg>