<svg><path d="M12,35.96c0.56,0.16,2.24,0.13,3.71,0c5.2-0.47,16.69-1.75,22.26-2.06c1.48-0.08,2.6-0.47,3.53-0.31"/><path d="M28,14c1.25,0.5,2,2.25,2.25,3.25s0,73.25-0.25,79.5"/><path d="M30.25,37.5c-3.1,11.72-12.31,31.37-18.75,38"/><path d="M32.5,50.25C35.72,52.93,39.16,58.3,41,63"/><path d="M64.37,9.75c0.07,0.94,0.31,2.5-0.14,3.76C61.35,21.48,53.18,38.25,39.5,49.5"/><path d="M63.55,15.5c4.21,5.44,22.37,23.2,27.02,27.19c1.58,1.35,3.6,1.93,5.18,2.31"/><path d="M55.04,42.11c0.43,0.19,1.21,0.2,1.63,0.19c5.08-0.05,13.83-1.55,18.55-1.94c0.71-0.06,1.14,0.09,1.49,0.19"/><path d="M45.42,53.75c0.27,0.34,0.54,0.62,0.65,1.05c0.92,3.37,1.93,9.65,2.56,15.7"/><path d="M46.66,55.04c6.09-0.79,12.44-1.7,15.55-2.14c1.14-0.16,1.82,0.96,1.66,1.91c-0.67,3.93-1.96,6.68-2.96,12.12"/><path d="M48.76,68.54c3.65-0.5,7.74-0.79,14.1-1.13"/><path d="M68.93,53.09c0.27,0.31,0.55,0.57,0.67,0.95c0.94,3.07,2.07,9.03,2.71,14.54"/><path d="M70.62,54.17c5.66-1.17,12.3-1.87,15.47-2.27c1.16-0.15,1.86,0.87,1.69,1.74c-0.69,3.58-1.99,7.41-3.01,12.37"/><path d="M71.93,66.89c3.73-0.46,9.38-0.24,14.5-0.94"/><path d="M54.99,72.62c0.15,0.96,0.1,1.88-0.11,2.49c-1.81,5.43-5.95,12.6-13.36,19.14"/><path d="M54.77,80.32c2.91,1.38,6.62,5.07,8.03,8.56"/><path d="M79.36,71.37c0.19,1.09,0.12,2.14-0.13,2.84C77,80.38,71.91,88.55,62.78,96"/><path d="M78.11,81.7c4.96,2,11.3,7.33,13.72,12.37"/></svg>