<svg><path d="M12.03,39.47c0.36,0.24,2.47,0.41,3.42,0.31c4.08-0.41,16.68-1.71,23.24-2.91c0.95-0.17,2.23-0.24,2.82,0"/><path d="M28.11,14.75c0.91,0.47,2.04,2.75,2.04,4.42c0,0.95-0.12,72.25-0.3,78.08"/><path d="M29.69,40.53c-5.81,16.23-11.33,23.1-20.33,37.31"/><path d="M32.22,49.15c2.37,1.59,5.28,5.76,7.28,8.85"/><path d="M47.12,26.19c0.93,0.41,3.96,0.54,4.9,0.42c4.37-0.56,29.96-2.46,37.3-2.89c1.43-0.08,2.74,0.08,3.92,0.43"/><path d="M67.46,13c1.57,2.01,1.57,3.22,1.57,4.83c0,6.17-0.05,28.92-0.05,36.92"/><path d="M54.64,33.99c0.11,0.41,0.08,1.31-0.07,1.77c-1.48,4.49-3.81,10.33-8.38,14.61"/><path d="M55.68,41.41c2.21,1.2,5.04,4.38,6.12,7.4"/><path d="M85.22,30.74c0.12,0.42,0.09,1.35-0.08,1.83c-1.68,4.62-4.31,10.65-9.47,15.06"/><path d="M84.65,39.88c2.82,1.24,6.41,4.54,7.78,7.67"/><path d="M46.25,56.21c0.67,0.22,3.04,0.45,4.17,0.35c12.14-1.09,30.89-2.71,41.94-3.04c1.81-0.05,3.99,0.37,4.89,0.72"/><path d="M49.31,65.33c0.56,0.73,0.61,1.51,0.77,2.43c1.17,6.99,2.49,17.28,3.64,29.49"/><path d="M50.42,66.5c10.87-1.29,33.04-3.25,39.85-3.25c1.55,0,3.15,2.22,2.97,3.69c-0.84,6.96-3.5,20.31-6.09,29.1"/><path d="M61.19,73.29c0.27,0.21,0.55,0.39,0.66,0.66c0.93,2.13,1.38,7.92,2.17,11.75"/><path d="M62.86,74.18c5.5-1.11,10.72-1.89,13.87-2.17c1.15-0.1,1.84,0.61,1.68,1.21c-0.68,2.49-1.1,5.95-2.11,9.39"/><path d="M64.19,84.19c3.99-0.55,8.18-0.78,13.27-1.27"/><path d="M53.86,94.72c8.22-0.29,24.05-1.27,34.19-2.06"/></svg>