<svg><path d="M10.78,35.22c0.35,0.24,2.39,0.36,3.31,0.31c5.17-0.28,10.67-0.78,18.95-1.41c0.93-0.07,2.15-0.24,2.73,0"/><path d="M24.36,13.5c0.91,0.47,2.04,2,2.04,4.42c0,0.95-0.12,70.75-0.3,76.58"/><path d="M25.94,39.28c-5.1,15.04-7.94,21.4-15.83,34.56"/><path d="M29.47,44.15c2.8,1.76,7.41,7.45,9.78,10.85"/><path d="M65.07,11c0.93,0.36,2.26,2.13,2.24,3.17c-0.07,3.28-0.07,5.01-0.07,7.99"/><path d="M44.26,23.58c0,2.93-2.96,11.94-3.93,13.89"/><path d="M44.06,25.01c6.73-0.83,42.62-2.31,48.08-2.62c8.53-0.49,1.81,6.03-0.32,7.8"/><path d="M48.86,34.66c0.29,1.28-2.92,6.94-5.25,9.07"/><path d="M54.61,32.22C61,41.17,66.06,44.43,78.26,44c5-0.18,5.23-2.34,1.73-5.45"/><path d="M65.79,32.05c1.82,3.6,4.46,7.2,6.4,1.69"/><path d="M82.25,30.04c2.67,1.42,6.17,3.21,8.34,7.6"/><path d="M48.28,50.32c0.19,0.24,0.38,0.44,0.46,0.73c0.65,2.36,0.92,7.5,1.36,11.73"/><path d="M49.6,51.79c6.15-0.54,35.5-2.12,37.71-2.44c0.81-0.12,1.9,0.85,1.68,2.25c-0.45,2.93-1.1,6.04-2.3,10.22"/><path d="M61.83,50.87c0.13,1.67,0.51,9.3,0.64,11.17"/><path d="M74.26,50.83c-0.13,2.71,0.24,9.3-0.01,10.97"/><path d="M39.27,63.02c1.98,0.16,3.42,0.12,5.02,0.08c11.95-0.25,35.53-1.39,47.88-1.68c2.29-0.05,3.77-0.01,5.02,0.27"/><path d="M44.09,73.35c1.12,0.29,3.17,0.36,4.29,0.29c11.45-0.76,26.19-1.56,39.96-1.93c1.86-0.05,2.98,0.14,3.92,0.28"/><path d="M67.71,75.55c0.06,0.32,0.93,1.68,0.93,3.73c0,7.2,0.22,11.04,0.22,14.59c0,9.93-5.46,0.83-6.57-0.02"/></svg>