<svg><path d="M11.28,36.72c0.35,0.24,2.39,0.41,3.31,0.31c3.94-0.41,14.12-1.21,20.45-2.41c0.92-0.17,2.15-0.24,2.73,0"/><path d="M25.36,15.5c0.91,0.47,2.54,2.25,2.54,4.42c0,0.95-0.12,70.75-0.3,76.58"/><path d="M27.44,41.28c-5.1,15.04-7.94,20.4-15.83,33.56"/><path d="M30.22,49.65c2.16,1.88,5.71,7.97,7.53,11.6"/><path d="M64.67,11.54c0.92,0.36,2.24,2.31,2.21,3.5c-0.07,3.75-0.06,6.85-0.06,10.26"/><path d="M44.75,25.03c0,3.34-2.61,12.65-3.58,14.93"/><path d="M45.03,27.91c6.65-1.32,38.86-3.81,44.29-3.94c9.68-0.22,1.79,6.78-0.31,8.93"/><path d="M62.31,33.48c0.85,1.8,3.09,5.33,3.62,2.79"/><path d="M77.45,30.42c0.08,0.63,0.1,1.61-0.16,2.54c-2.1,7.55-16.89,21.67-33.25,27.82"/><path d="M54.91,33.95c5,13.65,10.59,20.8,28.51,23.1c6.31,0.81,4.81-3.37,2.17-6.23"/><path d="M49.22,40.55c0.26,1.54-2.65,8.33-4.77,10.89"/><path d="M86.49,40.44c3.38,1.6,7.4,4.87,8.67,7.98"/><path d="M48.82,68.03c0.43,0.33,0.73,1.13,0.81,1.56c0.58,3.11,1.17,7.7,1.99,13.58"/><path d="M49.95,68.73c6.51-0.62,28.76-2.82,33.47-3.06c1.84-0.09,1.92,0.99,1.74,2.37c-0.42,3.21-1.09,4.58-2.36,9.88"/><path d="M51.86,80.91c5.24-0.62,24.39-2.16,33.09-2.1"/><path d="M65.59,57.99c0.72,0.33,1.15,1.46,1.29,2.11c0.14,0.65,0,28.11-0.14,32.17"/><path d="M46.38,94.68c0.62,1.07,2.11,1.21,2.95,1.13s31.72-4.21,36.96-4.85"/><path d="M79.67,84.17c4.01,2.29,10.37,9.41,11.38,12.98"/></svg>