<svg><path d="M11.03,39.66c0.35,0.2,2.41,0.33,3.34,0.26c3.98-0.33,16.26-0.98,22.65-1.96c0.92-0.14,2.17-0.2,2.75,0"/><path d="M25.86,15c0.91,0.47,2.04,1.75,2.04,4.42c0,0.95-0.12,69.75-0.3,75.58"/><path d="M27.69,42.53c-5.1,13.73-8.44,20.04-16.33,32.06"/><path d="M30.97,48.65c1.68,1.36,5.86,7.47,7.28,10.1"/><path d="M43.38,18.15c1.42,0.29,4.03,0.34,5.46,0.29c14.81-0.49,25.07-1.99,41.3-1.99c2.37,0,3.79,0.14,4.98,0.28"/><path d="M58.28,26.13c0.23,0.15,0.68,0.47,0.75,0.82c0.52,2.54,1.15,5.02,1.88,9.83"/><path d="M59.57,27.32c5.83-0.51,19.03-2.03,23.25-2.22c1.65-0.08,2.2,1.07,2.01,3.02c-0.17,1.86-1.33,3.63-2.11,5.56"/><path d="M61.22,35.72c4.69-0.51,16.69-1.65,23.25-2.13"/><path d="M70.92,22.27c0.65,0.39,1.17,1.72,1.17,2.52c0,7.38,0,11.31-0.13,16.14"/><path d="M52.76,42.12c1.05,0.39,2.99,0.51,4.03,0.39c8.96-1.06,21.63-2.33,34.58-2.68c1.75-0.05,2.8,0.18,3.68,0.38"/><path d="M60.08,47.68c0.4,0.66,0.68,2.46,0.68,3.34c0,0.88,0.04,25.07,0.04,25.51"/><path d="M61.12,48.76c6.38-0.01,19.76-1.11,21.82-1.24c1.71-0.11,2.69,0.5,2.32,2.74c-0.42,2.52-0.5,24.52-0.5,25.17"/><path d="M61.69,57.65c6.43-0.32,19.13-0.95,22.75-0.95"/><path d="M61.87,66.29c4.49,0,16.5-1.04,22.3-1.04"/><path d="M60.94,74.29c4.49,0,18.01-1.04,23.81-1.04"/><path d="M66.87,77.34c0.34,0.81,0.17,2.03-0.5,2.62c-2.02,1.78-7.76,5.16-11.81,7.27"/><path d="M80.01,78.46c4.49,0.79,8.69,4.78,9.78,6.27"/><path d="M46.54,18.56c0,3.44-0.34,69.25-0.34,72.47c0,2.73,1.69,3.15,2.89,2.94c9.65-1.72,32.65-4.22,42.9-3.82c2.23,0.09,4.13,0.21,5.5,0.65"/></svg>