<svg><path d="M12.78,37.22c0.35,0.24,2.39,0.36,3.31,0.31c5.42-0.28,14.17-0.78,21.45-1.41c0.93-0.08,2.15-0.24,2.73,0"/><path d="M27.36,14.5c0.91,0.47,2.04,2,2.04,4.42c0,0.95-0.12,70.75-0.3,76.58"/><path d="M28.94,39.78c-5.82,16.13-9.06,22.94-18.08,37.06"/><path d="M32.47,49.9c2.37,1.59,6.28,6.76,8.28,9.85"/><path d="M44.25,17.94c1.06,0.72,1.94,0.53,3.51,0.48c5.49-0.17,12.99-0.92,16.11-1.05c2.17-0.09,2.97,1.61,2.7,2.12c-0.26,0.49-0.41,22.29-0.41,29.19"/><path d="M55.77,21.64c0.03,0.26,0.07,0.67-0.06,1.05c-0.75,2.21-5.04,7.06-10.9,10.03"/><path d="M61.5,28.89c0.05,0.38,0.11,0.99-0.1,1.54c-1.24,3.26-8.36,10.4-18.09,14.78"/><path d="M73.3,16.87c1.04,0.87,1.91,0.74,3.46,0.58c4.49-0.45,14.17-1.39,15.12-1.48c2.13-0.21,2.93,1.33,2.66,1.95c-0.26,0.59-0.4,21.96-0.4,30.26"/><path d="M84.52,21.14c0.03,0.25,0.07,0.66-0.07,1.02c-0.83,2.16-5.61,6.9-12.14,9.8"/><path d="M91,28.89c0.05,0.29,0.1,0.75-0.09,1.17c-1.17,2.46-7.9,7.86-17.1,11.16"/><path d="M56.83,44.75c0.15,0.97-0.04,2.24-0.53,3.08c-3.13,5.31-7.11,9.8-14.29,16.25"/><path d="M52.58,55.77c0.58,0.63,1.02,2.03,1.06,3.01c0.34,8.76-0.47,31.91-0.18,36.47"/><path d="M76.34,45.25c0.07,0.55-0.02,1.26-0.26,1.73c-1.49,2.98-3.38,5.28-6.8,8.91"/><path d="M53.48,57.46c8.27-0.46,37.75-1.51,40.9-1.93"/><path d="M71.88,58.39c0.35,0.3,0.64,0.72,0.64,1.24c0,5.3,0.04,23.28-0.17,31.63"/><path d="M53.96,69.01c6.92-0.64,34.15-1.99,37.12-2.34"/><path d="M54.12,79.78c7.3-0.54,34.31-1.63,37.44-1.92"/><path d="M53.62,92.53c7.33-0.77,40.24-1.74,43.38-2.16"/></svg>