<svg><path d="M10.78,38.22c0.35,0.24,2.39,0.37,3.31,0.31c4.92-0.28,8.42-0.78,16.45-1.91c0.92-0.13,2.15-0.24,2.73,0"/><path d="M23.86,15c0.91,0.47,2.04,2,2.04,4.42c0,0.95-0.12,70.25-0.3,76.08"/><path d="M25.44,40.78C20.02,55.93,17,62.33,8.61,75.59"/><path d="M27.47,49.4c3.03,2.6,5.78,5.85,6.78,9.35"/><path d="M49.9,13.75c0.31,1.21,0.51,2.2-0.16,3.44c-2.99,5.56-5.49,10.31-8.82,14.79c-0.51,0.69-0.62,2.81,0,3.04c3.26,1.21,5.84,2.24,8.64,4.47"/><path d="M57.53,23.69c0.29,0.55,0.34,2.33,0,2.94C51.75,36.75,47.25,44.5,39.65,55.11c-1.46,2.04,0.43,2.83,1.57,2.47c4.75-1.53,12.62-2.77,18.73-4.24"/><path d="M53.5,47.25c2.12,1.68,5.47,6.89,6,9.5"/><path d="M48.33,58.76c0.05,0.29,0.73,1.48,0.78,3.28c0.25,8.64-0.16,31.27-0.16,34.21"/><path d="M41,67.75c0.12,0.92,0.1,2.75-0.12,3.41c-1.45,4.32-5.08,12.64-7.13,16.34"/><path d="M55,67.25c2.25,3.01,3.98,10.02,4.5,12.75"/><path d="M71.42,12.75c0.4,1.19,0.56,3.07,0.2,4.84c-0.8,3.91-3.37,9.16-6.01,13.43c-0.76,1.23,0.12,2.23,1.1,1.98c4.05-1.02,10.56-2.05,16.57-2.78"/><path d="M71,20.96c3.01-0.21,13.14-2.44,14.72-2.71c1.32-0.23,2.76,0.96,2.14,2.45C85,27.5,83,33.5,81.04,40.75"/><path d="M59.94,42.71c0.75,0.53,2.13,0.58,2.88,0.53c7.96-0.49,23.29-3.38,31.17-2.63c1.25,0.12,2,0.25,2.63,0.52"/><path d="M76.97,44.9c0.04,0.35,0.08,0.91-0.08,1.41c-0.93,2.98-6.25,9.52-13.54,13.52"/><path d="M72.04,55.65c5.71,4.85,10.46,21.6,5.71,36.38c-1.92,5.96-5.31,2.58-5.85,0.48"/><path d="M72.56,62.48c0.03,0.3,0.07,0.77-0.06,1.2c-0.73,2.54-4.95,8.1-10.72,11.51"/><path d="M74.67,72.95c0.04,0.39,0.09,1.02-0.08,1.58c-1.03,3.34-6.92,10.66-14.98,15.15"/><path d="M88.38,53.49c0.03,0.25,0.05,0.65-0.05,1.01c-0.59,2.12-3.98,6.79-8.63,9.64"/><path d="M79.42,69.08C81.5,73,90.5,84.5,94.97,88.4c0.98,0.86,1.64,1.37,2.53,1.64"/></svg>