<svg><path d="M10.28,38.22c0.35,0.24,2.39,0.41,3.31,0.31c3.94-0.41,13.12-1.21,19.45-2.41c0.92-0.17,2.15-0.24,2.73,0"/><path d="M23.36,12.5c0.91,0.47,2.04,2,2.04,4.42c0,0.95-0.12,74.75-0.3,80.58"/><path d="M24.94,41.28C19.84,56.32,17,62.68,9.11,75.84"/><path d="M27.97,48.9c2.52,1.76,6.66,7.45,8.78,10.85"/><path d="M69.53,12c0.12,0.35,0.14,0.79,0.11,1.09c-0.17,1.82-1.6,6.16-2.91,8.6"/><path d="M61.14,23.06c0.42,0.69,1.01,2.01,1.01,2.9c0,0.89-0.36,22.55-0.24,26.96"/><path d="M62.39,24.14c1.65-0.11,9.37-1.91,10.87-2.04c1.25-0.11,2.06,0.75,1.96,1.41c-0.2,1.34-0.62,21.28-0.78,28.42"/><path d="M62.45,37.14c2.23,0,9.26-1.6,11.78-1.6"/><path d="M62.39,50.69c3.29,0,6.92-0.44,11.18-0.44"/><path d="M47.29,13.87c0.2,1.1,0.39,2.02-0.1,3.11c-2.15,4.75-4.23,8.19-6.28,10.75c-0.42,0.52-0.41,2.53,0,2.74c2.15,1.1,5.21,2.29,8.04,3.93"/><path d="M54.69,23.78c0.21,0.48,0.27,2.04,0,2.54c-4.01,7.43-9.29,16.18-15.04,24.33c-0.71,1-0.41,2.09,0.41,1.77c3.42-1.33,9.78-3.63,14.19-4.9"/><path d="M52.43,42.69c1.45,2.05,3.75,8.43,4.11,11.62"/><path d="M88.53,12.37c0.21,1.05,0.39,1.94-0.1,2.98c-2.15,4.56-4.23,8.72-6.28,11.18c-0.42,0.5-0.41,2.43,0,2.63c2.15,1.05,6.27,2.31,8.11,4.24"/><path d="M96.93,22.28c0.2,0.45,0.31,1.96,0,2.4c-4.3,6.08-10.3,17.69-15.54,25.54c-0.66,0.99-0.41,2,0.41,1.7c3.42-1.25,8.52-2.9,12.92-4.1"/><path d="M92.48,42.19c1.7,2.05,4.38,8.43,4.8,11.62"/><path d="M40.03,67.63c0.75,0.2,2.74,0.65,4.73,0.6C54,68,79.77,66.29,93.47,65.3c1.98-0.15,3.49,0.3,4.74,0.5"/><path d="M66.53,57.5c0.76,0.28,1.21,1.24,1.36,1.79c0.15,0.55,0,36.27-0.15,39.71"/><path d="M66.01,67.75c-6.51,9.75-15.26,19-30.18,25.5"/><path d="M69.33,67.11c5.02,6.25,16.45,17.55,23.7,22.21c1.43,0.92,2.46,1.61,3.79,1.93"/></svg>