<svg><path d="M11.78,38.97c0.35,0.24,2.39,0.41,3.31,0.31c3.94-0.41,14.62-1.21,20.95-2.41c0.92-0.17,2.15-0.24,2.73,0"/><path d="M25.36,15.25c0.91,0.47,2.04,2,2.04,4.42c0,0.95-0.12,71.75-0.3,77.58"/><path d="M26.94,42.03c-5.1,15.04-7.94,21.4-15.83,34.56"/><path d="M29.47,48.65c2.37,1.59,6.28,6.76,8.28,9.85"/><path d="M43.39,17.17c0.48,0.44,1.51,3.28,1.6,4.16c0.1,0.88-0.06,67.59-0.16,73.07"/><path d="M44.63,18.81c1.61-0.09,14.74-2.04,16.2-2.16c1.22-0.09,1.85,0.86,1.91,1.62c0.09,1.16-2.02,20.94-2.02,21.51"/><path d="M45.41,28.46c3.95-0.56,11.09-1.21,16.62-1.63"/><path d="M45.13,39.32c4.87-1.07,10.51-1.41,15.25-1.91"/><path d="M71.96,15.44c0.29,0.52,0.58,1.64,0.58,2.34c0,0.7-0.1,20.2,0,20.9"/><path d="M72.53,16.49c1.65-0.1,16.52-2.13,18.02-2.25c1.25-0.1,1.97,1.09,1.96,1.7c-0.32,18.38-0.33,60.71-0.33,74.03c0,9.53-5.58,1.62-6.54,0.4"/><path d="M72.49,25.97c2.23,0,17.09-1.64,19.62-1.64"/><path d="M73.03,35.83c3.29,0,14.62-0.97,18.88-0.97"/><path d="M56.55,47.59c0.21,0.27,0.43,0.49,0.53,0.82c0.74,2.61,1.62,9.77,2.12,14.43"/><path d="M57.89,49.02c5.26-0.95,16.74-2.06,19.46-2.36c0.99-0.11,1.58,1.39,1.44,2.18c-0.59,3.24-1.27,5.53-2.54,10.19"/><path d="M59.42,61.61c3.18-0.33,14.08-1.84,18.15-2.15"/><path d="M66.17,62.08c0.58,0.92,0.88,1.65,0.53,2.73c-0.26,0.8-3.19,4.78-3.66,5.85"/><path d="M54.92,70.53c0.27,0.29,0.54,0.53,0.65,0.89c0.92,2.79,1.69,9.74,2.31,14.69"/><path d="M56.26,72.41c6.51-0.82,18.69-2.55,22.05-2.77c1.23-0.08,1.96,1.53,1.79,2.35c-0.74,3.41-1.29,4.81-2.71,10.81"/><path d="M58.15,84.97c3.95-0.24,15.46-1.49,20.46-1.68"/></svg>