<svg><path d="M11.28,37.72c0.35,0.24,2.39,0.41,3.31,0.31c3.94-0.41,16.12-1.21,22.45-2.41c0.92-0.17,2.15-0.24,2.73,0"/><path d="M25.86,14.5c0.91,0.47,2.04,2.25,2.04,4.42c0,0.95-0.12,69.75-0.3,75.58"/><path d="M27.94,39.28c-5.42,15.94-8.44,21.61-16.83,35.56"/><path d="M30.47,43.9c2.23,1.77,5.9,6.42,7.78,9.85"/><path d="M46,16.41c0.3,0.54,0.81,1.4,0.97,2.06C48.31,23.9,50.01,36.98,50.8,47"/><path d="M47.92,18.23c13.33-1.73,27.37-2.47,35.31-3c2.92-0.2,4.4,1.38,4.24,2.84C86.89,23.4,85,34.5,82.79,44.58"/><path d="M64.9,17.58c1.1,0.17,1.47,1.15,1.46,2.11c-0.04,6.31,0.19,21.5,0.19,23.78"/><path d="M50.32,31.68c3.47-0.26,31.91-2.85,34.77-2.85"/><path d="M51.36,45.09c9.89-0.84,19.39-1.84,31.02-2.36"/><path d="M42.5,59.58c0.16,0.61,0.67,1.52,0.75,2.28c0.72,6.21,1.88,21.21,2.3,32.65"/><path d="M43.27,60.51c5.75-0.63,15.62-2.18,19.92-2.79c1.58-0.22,2.38,1.58,2.3,3.24c-0.31,6.1-1.63,22.8-1.95,32.35"/><path d="M53.08,60.34c0.42,0.41,0.98,1.31,0.98,2.41c-0.02,7.2,0.1,25.68,0.1,28.29"/><path d="M44.79,75.94c1.88-0.3,17.84-1.61,19.39-1.61"/><path d="M45.86,91.89c4.14,0,12-1.39,17.72-1.55"/><path d="M72.25,57.4c0.19,0.65,0.69,1.58,0.79,2.37c0.83,6.55,2.09,21.41,2.58,33.47"/><path d="M73.13,58.89c6.63-0.66,16-2.77,20.95-3.41c1.82-0.23,2.74,1.66,2.65,3.42c-0.36,6.43-2.23,21.35-3.18,32.55"/><path d="M83.09,58.71c0.66,0.54,0.98,1.38,0.98,2.54c-0.02,7.59,0.12,25.59,0.12,28.35"/><path d="M74.32,74.2c2.16-0.32,18.14-2.22,19.92-2.22"/><path d="M75.97,90.55c4.77,0,11.05-0.96,17.64-1.14"/></svg>