<svg><path d="M10.03,37.72c0.38,0.24,2.61,0.41,3.62,0.31c4.31-0.41,16.54-2.21,23.48-3.41c1-0.17,1.26-0.24,1.89,0"/><path d="M24.86,14c0.91,0.47,2.39,2.25,2.54,4.92c0.05,0.95-0.12,73.75-0.3,79.58"/><path d="M26.94,40.28c-5.52,15.38-7.3,20.87-16.58,34.56"/><path d="M30.47,47.15c2.37,2.03,5.66,6.45,7.66,10.39"/><path d="M64.74,11.58c0.82,0.88,1.47,1.92,1.47,4.85c0,5.7-0.02,6.46-0.02,11.25"/><path d="M67.53,18.97c5.11-0.75,12.43-1.71,17.61-2.3c1.71-0.19,2.75,0.18,3.61,0.36"/><path d="M46.9,29.47c0.55,0.56,0.77,3.62,0.61,5.62C45.81,56.07,45,76.5,35.2,92.92"/><path d="M47.46,30.6c0.97,0.18,3.22,0.03,4.79-0.25c11.17-1.95,28.22-4.36,37.78-4.52c10.08-0.17,2.97,4.99,0.46,7.03"/><path d="M53.49,40.23c0.66,0.35,2.29,0.41,2.96,0.35c6.64-0.54,18.53-4,25.71-4.87c1.1-0.13,1.77,0.17,2.32,0.35"/><path d="M66.31,30.75c0.51,0.44,1.2,2.17,1.2,2.79c0,4.89-0.1,4.55-0.1,6.74c0,6.49,2.86,6,10.25,6c2.75,0,9.58-0.5,11.95-1.37"/><path d="M56.21,54.53c0.22,0.36,0.64,1.57,0.77,2.01c0.99,3.64,1.89,8.3,2.47,15.01"/><path d="M57.68,55.57c9.55-1.07,24.76-2.9,30.67-2.79c1.44,0.03,2.31,1.24,2.31,2.38c0,3.61-1.87,7.94-3.41,14.63"/><path d="M70.43,55.02c1.07,0.73,1.48,1.27,1.47,1.91c-0.03,4.22,0.14,11.06,0.14,12.59"/><path d="M59.09,62.96c2.57-0.18,27.67-2.23,29.8-2.23"/><path d="M59.86,70.12c5.68,0,19.19-1.78,27.04-1.88"/><path d="M53.04,78.12c0.49,0.76,1.13,1.58,1.24,2.23c0.83,5.13,0.47,6.68,1.23,13.47"/><path d="M54.66,79.73c8.84-1.06,33.09-4.13,36.3-3.99c1.39,0.06,2.21,0.19,2.02,2.21c-0.27,2.98-1.62,10.86-2.65,14.87"/><path d="M66.6,79.18c0.21,0.49,0.5,0.89,0.5,1.51c0,4.37,0.2,8.7,0.2,12.71"/><path d="M78.16,78.09c0.38,0.58,0.77,1.59,0.67,2.34c-0.56,4.37-0.75,8.5-0.99,12.18"/><path d="M43.87,95.18c1.11,0.39,3.16,0.46,4.27,0.39c11.6-0.66,26.29-2.73,47.64-2.84c1.86-0.01,2.97,0.19,3.9,0.38"/></svg>