<svg><path d="M12.78,36.22c0.35,0.24,2.39,0.41,3.31,0.31C20.03,36.12,29,35,36.54,34.12c0.93-0.11,2.15-0.24,2.73,0"/><path d="M27.36,13.5c0.91,0.47,2.04,1.75,2.04,4.42c0,0.95-0.12,73.75-0.3,79.58"/><path d="M28.94,37.78C23.2,54.45,20,61.5,11.11,76.09"/><path d="M30.97,46.9c2.37,1.59,6.28,6.76,8.28,9.85"/><path d="M47.4,14.27c0.23,0.6,0.57,1.05,0.57,1.85c0,0.8,0.11,21.45-0.17,24.81"/><path d="M48.36,14.97c1.32-0.1,11.34-1.38,12.54-1.51c1-0.1,1.53,0.55,1.53,1.31c0,1.84-0.29,24.94-0.29,25.54"/><path d="M48,23.45c2.46-0.23,12-1.63,14.11-1.63"/><path d="M48.11,31.57c3.71-0.44,10.08-1.34,14.02-1.43"/><path d="M47.94,39.36c3.71-0.33,10.8-1.2,14.19-1.2"/><path d="M51.89,45.22c0.2,0.89-0.15,1.77-0.55,2.42c-1.2,1.97-4.35,6.16-6.75,8.48"/><path d="M57.43,44.48c2.49,1.58,5.43,4.45,6.11,5.83"/><path d="M71.48,13.78c0.25,0.59,0.62,1.03,0.62,1.82c0,0.79,0.12,21.06-0.18,24.36"/><path d="M72.51,14.46c1.42-0.1,12.19-1.36,13.48-1.48c1.07-0.1,1.65,0.54,1.65,1.28c0,1.8-0.32,24.49-0.32,25.08"/><path d="M72.12,22.79c2.65-0.23,12.9-1.6,15.17-1.6"/><path d="M72.24,30.27c3.99-0.43,10.84-1.32,15.07-1.4"/><path d="M72.05,38.41c3.99-0.32,11.61-1.18,15.25-1.18"/><path d="M76.91,43.76c0.19,0.79-0.14,1.57-0.51,2.14c-1.12,1.74-4.05,5.46-6.29,7.51"/><path d="M84.63,44.29c2.72,1.89,5.93,5.32,6.67,6.98"/><path d="M63.76,55.34c0.38,1.08,0.33,2.56-0.19,3.79c-2.78,6.65-5.22,11.65-9.91,19.23c-1.02,1.65-0.21,1.93,0.56,1.99c11.26,0.73,23.77,6.4,31.33,15.93"/><path d="M80.26,56.81c0.11,0.98,0.19,3.37-0.23,4.79C76.64,73.11,67.15,90.66,42.6,98"/><path d="M38.63,67.52c1.59,0.23,3.29,0.39,4.06,0.35c16.11-0.73,36.93-2.05,52.31-2.15c1.27-0.01,3.47,0.14,4.5,0.41"/></svg>