<svg><path d="M11.53,36.22c0.95,0.67,4.09,0.48,5.12,0.34c4.22-0.57,12.08-1.65,17.63-2.62c1.27-0.22,3.22-0.44,4.48-0.32"/><path d="M25.61,15.75c1.26,1.26,1.54,2.75,1.54,4.42c0,0.8,0.04,51.33,0.04,65.33c0,3.42-0.03,5.71-0.06,6.63"/><path d="M26.44,36.78c0,1.47-1.03,5.48-1.62,7.17c-4.04,11.37-7.08,17.68-13.96,29.14"/><path d="M29.38,48.12c2.04,1.56,5.4,6.61,7.12,9.62"/><path d="M42.89,18.2c0.9,0.9,1.23,2.18,1.23,3.45C44.12,22.16,44,74.12,44,83c0,4.07,0.01,6.91,0,7.62"/><path d="M45.26,19.6c3.24-0.52,10.12-1.61,13.01-1.96c2.07-0.25,3.21,0.48,3.01,2.64c-0.26,2.84-1.15,9.6-1.68,15.53c-0.06,0.72-0.1,1.54-0.1,2.02"/><path d="M45.31,28.17c4.08-0.33,10.11-1.2,14.04-1.56"/><path d="M45.26,38.16c5.42-0.63,7.95-1.12,12.74-1.41"/><path d="M70.69,16.18c0.82,0.82,1.25,1.56,1.36,2.65c0.45,4.43,0.64,9.61,1.05,14.66c0.16,1.96,0.28,3.37,0.33,3.52"/><path d="M72.77,17.69c1.46-0.06,11.91-2.07,16.58-2.83c2.71-0.44,4.09,0.59,4.09,3.39c0,16.12-0.05,62.58-0.05,71.51c0,7.99-6.01,0.44-7.04-0.43"/><path d="M73.71,26c4.17-0.5,15.99-2.22,18.42-2.22"/><path d="M74.52,34.98C79.38,34.62,87,34,92.4,33.54"/><path d="M54.94,46.59c1.23,0.5,2.89,0.44,4.22,0.31c4.95-0.47,11.32-2.18,17.36-2.87c1.32-0.15,2.41-0.29,3.69,0.03"/><path d="M52.81,54.12c0.79,0.79,0.9,1.82,1.06,2.88c0.39,2.54,0.97,6.61,1.44,9.5c0.2,1.23,0.43,2.39,0.53,2.91"/><path d="M54.9,54.58c1.45-0.06,18.69-2.67,24.36-3.37c2.65-0.32,3.98,0.75,3.26,3.32c-0.71,2.52-1.36,5.49-2.26,9.21c-0.27,1.13-0.57,2.35-0.9,3.69"/><path d="M55.69,60.95c5.44-0.82,22.06-2.83,24.63-2.83"/><path d="M56.51,67.69c5.86-0.69,16.43-1.85,22.19-2.09"/><path d="M66.61,38.75c0.82,0.82,1.03,1.88,1.03,3.11c0,0.5,0.16,32.07,0.04,44.27c-0.02,2.19-0.04,3.71-0.06,4.25"/><path d="M66,67.41c0,1.22-0.42,2.16-1.38,3.59c-3.72,5.54-9.63,11.7-14.57,14.51"/><path d="M70.75,72.66c3.12,1.72,7.62,4.84,10.88,9.62"/></svg>