<svg><path d="M10.28,37.72c0.35,0.24,2.38,0.32,3.31,0.31C18.5,38,25.7,37.82,32.04,36.62c0.92-0.17,2.15-0.24,2.73,0"/><path d="M24.36,14.5c0.91,0.47,2.04,2.75,2.04,4.42c0,0.95-0.12,70.75-0.3,76.58"/><path d="M25.94,41.28c-5.1,15.04-7.94,21.4-15.83,34.56"/><path d="M28.47,49.9c2.37,1.59,6.28,6.76,8.28,9.85"/><path d="M35.09,20.8c0.6,0.17,1.3,0.21,1.91,0.17c5.54-0.32,21.85-1.96,28.24-1.98c1,0,1.61,0.08,2.11,0.17"/><path d="M44.62,12.48c0.64,0.89,0.85,1.17,0.92,1.72c0.64,5.15,0.69,10.46,0.87,12.33"/><path d="M58.98,12.02c0.1,0.66,0.23,1.14,0.12,1.95c-0.66,4.73-0.96,6.6-1.68,11.05"/><path d="M38.95,33.65c0.17,0.2,0.35,0.36,0.42,0.61c0.59,1.96,1.31,10.35,1.71,13.86"/><path d="M40.02,34.98c3.5-1.02,7.77-1.73,9.78-1.99c0.73-0.09,1.17,0.56,1.07,1.11c-0.43,2.28-0.94,7.63-1.59,10.79"/><path d="M41.17,46.41c2.36-0.29,6.29-0.71,9.53-1.16"/><path d="M56.01,32.36c0.18,0.23,0.36,0.42,0.44,0.71c0.62,2.27,1.36,9.48,1.78,13.56"/><path d="M57.12,33.37c3.65-1.18,8.09-1.52,10.18-1.82c0.76-0.11,1.22,0.65,1.11,1.29c-0.45,2.65-0.98,7.95-1.66,11.62"/><path d="M58.32,45.69c2.45-0.34,5.84-0.92,9.21-1.44"/><path d="M45.84,52.48c0.11,0.98-0.03,2.25-0.37,3.07c-2.19,5.21-4.96,9.56-9.97,15.75"/><path d="M42.91,63.71c0.35,0.48,0.62,1.51,0.65,2.22c0.21,6.38-0.29,25.87-0.11,29.2"/><path d="M57.75,53.4c0.03,0.37-0.01,0.86-0.1,1.17c-0.58,2-1.31,3.53-2.63,5.94"/><path d="M43.45,62.66c4.1-0.39,20.5-1.29,22.26-1.53"/><path d="M54.34,63.55c0.2,0.25,0.36,0.58,0.36,0.98c0,4.13,0.02,18.93-0.1,25.43"/><path d="M44,71.34c3.87-0.3,19.58-1.04,21.24-1.23"/><path d="M43.87,81.13c4.08-0.21,19.66-1.55,21.42-1.69"/><path d="M43.53,90.83c4.1-0.39,20.78-1.17,22.55-1.4"/><path d="M73.73,17.09c0.31,1.02,0.77,1.79,0.77,3.15c0,1.37-0.1,43.34,0,44.71"/><path d="M74.86,17.96c1.58-0.17,12.04-1.31,13.48-1.51c1.2-0.17,2.14,0.95,2.04,2.21c-0.13,1.6-0.24,44.86-0.24,45.88"/><path d="M74.83,32.87c2.26,0,12.75-1.26,15.28-1.26"/><path d="M74.96,47.38c4.58-0.49,10.91-1.04,14.97-1.04"/><path d="M74.74,63.28c3.14,0,10.54-1.04,14.6-1.04"/><path d="M75.82,72.12c0.03,0.58,0.07,1.48-0.06,2.31C74.99,79.29,72,91,64.5,96.51"/><path d="M83.97,65.29c0.29,0.88,0.51,1.91,0.53,3.26c0.05,3.56-0.22,11.44-0.22,15.64c0,6.56-0.07,9.43,6.58,9.43c6.64,0,6.64-2.48,6.64-6.72"/></svg>