<svg><path d="M43.15,13.25C43,15,42.13,15.9,40.93,17.04C36,21.75,30.38,26.12,21,32.13"/><path d="M18.56,34.04c1.02,1.02,1.26,2.6,1.26,4.47c0,8.99,1.68,30.87-9.91,46.92"/><path d="M23.3,44.93c1.53,0.35,3.31,0.06,4.83-0.14c6.56-0.85,13.49-2.02,18.98-2.87c1.84-0.29,3.68-0.59,5.54-0.34"/><path d="M36.07,46.66c1.01,1.01,1.29,2.34,1.29,4.19c0,0.99-0.09,23.81-0.11,37.28c0,3.16-0.01,5.79-0.01,7.5"/><path d="M66.88,15.75C67,17,66.9,18.19,66.55,19.49c-2.05,7.64-6.8,23.76-14.9,35.51"/><path d="M62.82,40.41c1.81,0.34,3.73,0.05,5.45-0.33c4.98-1.1,19.04-4.25,20.35-4.26c5.24-0.05,0.63,6.43-5.04,11.67"/><path d="M68.71,51.25c0.42,1.12,0.44,2.5,0.13,4.03C66,69.62,61.75,85.25,48.5,95.75"/><path d="M68.58,62.25c4.68,6.25,12.32,16.72,18.94,24.37c2.01,2.32,3.96,4.38,6.49,6.13"/></svg>