<svg><path d="M32.04,15c0.05,0.71,0.1,2.07-0.25,2.61C27,25,22.31,32,16.79,37.27c-1.75,1.67-1.68,3.27,0.81,2.58c7.65-2.11,20.02-5.6,27.2-7.16"/><path d="M39.26,25.95c3.93,2.55,10.16,10.47,11.14,14.43"/><path d="M23.81,46.02c0.03,0.44,0.06,1.14-0.05,1.78c-0.66,3.75-4.79,12.98-8.9,16.39"/><path d="M21.55,55.41c1.22,0.02,3.1,0.03,3.95-0.01c3.46-0.17,13.44-1.25,18.77-1.54c1.4-0.08,2.3-0.1,3.01-0.06"/><path d="M10.66,72.13c1.2,0.39,3.74,0.43,4.52,0.38c10.32-0.76,23.87-2.55,33.26-2.81c1-0.03,2.41,0.1,4.64,0.57"/><path d="M32.06,58.21c0.23,0.58,0.48,1.12,0.44,2.24c-0.5,14.8-6.75,28.3-18.94,35.4"/><path d="M30.8,75.08c5.62,3.1,13.1,9.98,14.93,14.08"/><path d="M65.75,15c0.04,0.83,0.08,2.13-0.08,3.31C64.72,25.3,59.3,40.62,51.89,50"/><path d="M62.22,37.49c0.91,0.36,2.64,0.43,4.01,0.11c1.67-0.39,17.68-4.15,19.26-4.35c8-1,0,9.25-3,13"/><path d="M66.6,46c0.4,1.75,0.59,2.56,0.37,4.3C64.75,68.25,60.5,84,44.25,96.25"/><path d="M66.42,57c3.7,8.36,17.04,28.04,23.11,34.96c1.28,1.46,2.25,2.33,3.46,2.79"/></svg>