<svg><path d="M13.25,28.93c2.14,0.76,4.51,0.34,6.64,0.01c9.35-1.45,19.28-3.25,26.25-4c2.08-0.22,4.05-0.44,6.12,0"/><path d="M32.47,14.17c0.81,0.81,1.09,2.08,1.09,3.66c0,4.17-0.06,14.44-0.06,19.3"/><path d="M18.04,39.51c1.55,0.47,3.29,0.21,4.85-0.03c7.36-1.11,16.76-2.23,22.24-2.93c1.8-0.23,3.07-0.16,4.83,0.17"/><path d="M22.75,51.7c1.13,0.46,3.09,0.38,4.27,0.15c4.36-0.85,9.73-1.98,14.47-2.55c1.3-0.16,2.81-0.45,4.08-0.14"/><path d="M13.83,64.37c1.91,0.68,4.74,0.41,6.69,0.11c7.1-1.11,18.73-2.82,26.85-3.74c1.91-0.22,3.86-0.24,5.76,0.17"/><path d="M33.47,65.19c0.74,0.74,1.23,1.94,1.23,3.57c0,11.12-0.07,17.37-0.07,21.25c0,9.38-4.5,1.75-6.19,0.15"/><path d="M21.76,74c0.11,0.99-0.04,1.93-0.46,2.83c-2.43,4.05-6.18,7.67-11.06,12.42"/><path d="M45.38,72.12c1.62,2.01,4.26,8.03,4.66,11.15"/><path d="M65.71,17.75c0.06,1.22-0.25,2.26-0.67,3.39c-2.53,6.64-6.45,16.03-12.53,24.61"/><path d="M61.54,36.49c2.21,0.51,5.1,0.05,6.83-0.51c5.29-1.69,13.88-4.98,19.78-6.42c5.67-1.39-0.86,8.44-4.47,13.19"/><path d="M69.33,47c0.42,1,0.54,2.44,0.37,4.11C68.62,61.56,62.5,85.75,47,95.5"/><path d="M69.19,59.5c4.18,6.12,13.11,19.92,20.33,28.08c2.12,2.4,3.95,4.3,6.72,5.92"/></svg>