<svg><path d="M32.25,15.49c0,1.24-0.09,2.29-0.55,3.46c-2.24,5.75-11.89,19.72-20.23,26.18"/><path d="M34.14,20.46c5.23,2.41,10.73,6.29,14.11,11.04"/><path d="M21.75,42.25c1.63,0.5,3.37,0.44,5.03,0.17c4.1-0.65,8.82-1.74,13.59-2.42c1.26-0.18,2.36-0.25,3.62-0.25"/><path d="M15.34,56.81c2.04,0.56,4.17,0.59,5.67,0.38c5.69-0.79,14-2.33,20.28-3.12c0.74-0.09,2.38-0.38,3.49-0.1"/><path d="M30.7,43.94c1.24,0.78,1.24,2.52,1.24,3.14c0,4.35,0.62,33.63,0.31,37.98"/><path d="M13.89,68.76c4.37,4.66,6.51,9.71,7.4,12.44"/><path d="M46.7,61.8c0.05,0.95-0.35,1.82-0.66,2.35c-1.29,2.23-2.54,4.11-5.87,8.38"/><path d="M13.75,90.5c1.38,0.88,2.38,0.88,4,0.25c1.26-0.48,13-4.5,26.25-9.5"/><path d="M66.29,15.75c0.04,0.83-0.03,2.17-0.32,3.34C64,27,59.75,38.5,51.97,50"/><path d="M62.11,37.24c1.64,0.14,2.58,0.18,3.93-0.14c1.64-0.39,17.77-3.83,19.32-4.04c5.89-0.81,0.02,8.19-3.89,13.69"/><path d="M67.03,47c0.47,0.75,0.63,2.89,0.37,4.52C65.62,62.38,61.12,82.88,44,94.25"/><path d="M66.62,59.5c3.35,5.23,14.71,20.79,22,28.88c2,2.22,4.02,4.13,6.63,5.62"/></svg>