<svg><path d="M44.87,11.18c0.21,1.14-0.26,1.78-1.06,2.55c-6.79,6.53-16.5,14.26-28.29,18.71"/><path d="M19.8,16.22c8.45,2.53,17.95,8.03,24.42,15.53"/><path d="M31.73,31.67c0.06,0.85-0.11,2.27-0.51,3.43c-3.07,8.89-8.7,21.14-20.78,32.8"/><path d="M11.36,43.66c1.16,0.47,3.28,0.54,4.45,0.47c10.11-0.63,19.75-2.01,33.08-2.44c1.93-0.06,3.1,0.23,4.06,0.46"/><path d="M19.52,59.1c0.3,0.3,0.95,2.21,1.01,2.8s1.96,23.75,1.9,27.44"/><path d="M20.94,60.79c1.9-0.21,24.65-2.82,26.07-2.95c1.67-0.15,3.81,0.91,3.69,3.45c-0.45,9.21-0.7,12.96-2.03,19.15c-1.9,8.87-5.12,2.55-5.75,1.51"/><path d="M34.56,49.5c0.3,0.35,0.95,2.6,1.01,3.29c0.06,0.69-0.04,42.38-0.1,46.71"/><path d="M67.25,13.5c0.03,0.86,0.07,2.22-0.07,3.45C66.32,24.24,63,40.25,54.64,50"/><path d="M63.22,37.49c0.91,0.36,2.64,0.93,4.01,0.61c1.67-0.39,19.68-4.65,21.26-4.85c8-1-1.33,10.59-3,12.5"/><path d="M72.6,44c0.07,1.25,0.16,3.21-0.14,5.02C69.62,66.48,64.15,84.51,48.5,97"/><path d="M70.92,59c3.45,8.53,15.92,28.6,21.59,35.65c1.2,1.49,2.1,2.37,3.24,2.85"/></svg>