<svg><path d="M45.15,14.67c0.08,0.34-0.64,2.14-1.11,2.5c-3.58,2.8-12.67,7.41-28.53,11.3"/><path d="M11.36,39.28c1.01,0.35,3.54,0.43,4.55,0.35c11.72-0.97,20.4-2.43,32.68-3.16c1.69-0.1,2.7,0.17,3.55,0.34"/><path d="M24.47,50.21c0.03,0.16,0.14,0.48-0.06,0.66c-2.62,2.35-5.69,4.45-11.67,6.32"/><path d="M11.7,55.38c0.68,0.65,0.96,2.11,1.13,3.45c0.62,4.89,2.57,24.02,3.19,30.63"/><path d="M14.6,70.87c3-0.26,8.3-1.83,9.01-1.83s1.72,0,2.29,0"/><path d="M38.33,52.27c0.71,0.13,1.29,0.4,2.29,0.4c1,0,8.08-1.59,9.23-1.72c1.14-0.13,2.09,0.66,2,1.46c-0.86,7.68-2.86,31.82-3,32.35"/><path d="M38.62,66.52c0.71,0.13,1.29,0.4,2.29,0.4s8.3-0.56,9.44-0.69"/><path d="M30.88,26.96c0.56,0.43,1.46,1.85,1.46,4.07c0,1.12-0.07,48.21-0.18,53.61"/><path d="M15.67,85.97c1.86,0,30.96-2.72,33.1-2.85"/><path d="M67,14.5c0.03,0.68,0.07,1.75-0.07,2.72c-0.79,5.74-5.33,18.32-11.55,26.03"/><path d="M64.22,32.99c0.91,0.36,2.61,0.22,4.01,0.11c4.51-0.35,18.18-2.15,19.76-2.35c8-1-1.33,10.09-3,12"/><path d="M67.1,43c0.65,1,0.96,3.24,0.88,5.09C67.25,66,61.5,85.5,46.75,96.75"/><path d="M67.42,58c3.94,8.41,18.16,28.23,24.64,35.19c1.37,1.47,2.4,2.34,3.69,2.81"/></svg>