<svg><path d="M34.5,12c0.06,0.85,0.3,2.27-0.13,3.41C31.64,22.64,23.92,37.83,11,48.04"/><path d="M34.42,19.79c7.6,3.6,14.44,9.15,18.17,16.07"/><path d="M24.39,42.09c0.82,0.18,2.32,0.19,3.15,0.18c6.3-0.05,11.75-1.49,16.81-1.28c1.36,0.06,2.19,0.08,2.87,0.17"/><path d="M15.53,53.46c0.24,0.27,0.48,0.49,0.59,0.82c0.83,2.63,1.18,9.88,1.75,14.59"/><path d="M16.64,54.85c6.03-1.2,10.17-2.08,12.96-2.42c1.02-0.13,1.63,0.75,1.49,1.49c-0.6,3.07-1.31,7.56-2.21,11.8"/><path d="M17.97,67.34c3.28-0.39,7.69-0.65,12.19-1.25"/><path d="M35.86,51.77c0.24,0.25,0.49,0.46,0.59,0.78c0.84,2.5,1.83,9.39,2.41,13.88"/><path d="M37.36,53.56c5.03-0.95,10.88-1.52,13.7-1.85c1.03-0.12,1.65,0.71,1.5,1.42c-0.61,2.92-1.75,6.76-2.66,10.79"/><path d="M38.97,65.45c3.31-0.37,7.97-1,12.42-1.18"/><path d="M25.05,72.04c0.17,1.06,0.11,2.08-0.12,2.76C22.89,80.81,18.22,88.76,9.86,96"/><path d="M24.13,79.24c3.11,1.34,7.07,4.92,8.58,8.3"/><path d="M45.84,70.87c0.18,1.08,0.11,2.11-0.13,2.81c-2.1,6.12-6.91,14.2-15.52,21.57"/><path d="M43.85,79.66c3.16,1.4,6.77,4.67,8.31,8.2"/><path d="M67.25,13.5c0.03,0.77,0.07,1.98-0.06,3.08c-0.77,6.48-5.22,20.71-11.3,29.42"/><path d="M65.22,32.99c0.91,0.36,2.63,0.88,4.01,0.61c4.51-0.85,16.18-2.65,17.76-2.85c8-1,0.67,9.09-1,11"/><path d="M69.11,42.5c0.05,1.27,0.12,3.25-0.11,5.09C66.75,65.29,64,83,50,96.25"/><path d="M68.42,54.5c3.76,8.97,17.36,30.09,23.55,37.51c1.31,1.56,2.29,2.49,3.53,2.99"/></svg>