<svg><path d="M17.31,18.6c1.57,0.49,4.45,0.64,6.02,0.49c11.46-1.09,45.86-3.76,63.11-4.65c2.61-0.13,4.18,0.23,5.49,0.48"/><path d="M54.96,19.05c0.12,0.69-0.03,2.42-0.73,3.26C49.5,28,35,39,14.02,48.23"/><path d="M52.79,27.03c0.98,0.45,1.56,2.02,1.76,2.92c0.2,0.9,0,20-0.2,25.61"/><path d="M65.97,30.26c9.75,2.79,21.77,9.53,27.63,15.79"/><path d="M24.88,63.2c1.19,0.32,3.38,0.37,4.57,0.32c11.95-0.48,38.27-3.51,55.01-3.69c1.99-0.02,3.18,0.15,4.17,0.31"/><path d="M53.71,63.5c0.09,0.23,1.17,1.19,1.26,2.65c0.4,6.98-0.26,25.25-0.26,27.63"/><path d="M56.38,75.86c0.43,0.14,1.24,0.21,1.67,0.14c1.76-0.27,13.46-2,20.56-2.59c0.72-0.06,1.16,0.07,1.52,0.13"/><path d="M32.95,73.02c0.1,0.17,1.4,0.86,1.5,1.92c0.48,5.06-0.31,18.31-0.31,20.03"/><path d="M14.25,95.26c1.59,0.28,5.01,0.7,6.52,0.63c6.18-0.28,40.14-2.87,69.4-2.91c2.55,0,4.76,0.42,6.08,0.85"/></svg>