<svg><path d="M54.39,10.75c1.37,1.12,2.13,2.5,2.13,4.14c0,4.86,0.22,13.86,0.22,22.97"/><path d="M57.65,24.41c8.23-1.41,12.73-2.16,19.44-3.17c1.66-0.25,3.1-0.24,4.15-0.04"/><path d="M32.24,21.98c0.76,0.77,1.81,1.92,1.91,2.81c0.35,3.2,0.6,9.08,0.77,15.17"/><path d="M18,41.5c2.84,0.69,5.62,0.68,8.51,0.4c14.37-1.4,40.92-4.27,56.01-5.59c3.09-0.27,6.08-0.29,9.16,0.19"/><path d="M56.13,42c0.75,0.75,1.22,1.99,1.22,3.5c0,8.5,0,18.47,0,20.94c0,7.06-3.73,3.18-7.1-0.19"/><path d="M38.75,50.75c0.12,1.1-0.06,1.76-0.62,2.73C35.6,57.9,29.25,63.5,22,68.75"/><path d="M77,45.5c5.88,2.29,11.62,6.88,14.5,11.51"/><path d="M76.65,55.64c0.14,0.97-0.09,2.53-0.78,3.91C70.15,70.94,48.14,89.35,25.81,97"/></svg>