<svg><path d="M23.5,30.14c1.56,0.63,3.4,0.43,5.01,0.22c4.65-0.6,11.13-1.95,15.38-2.46c0.99-0.12,1.9-0.17,2.87-0.16"/><path d="M14.75,45.7c3.18,1.13,7.02,0.58,10.27,0.06c11.85-1.89,41.57-6.6,57.61-8.15c3.24-0.31,6.18-0.5,9.36,0.18"/><path d="M40.25,50.43c0.66,0.66,1.02,2.07,1.02,3.02c0,1.02,0.08,24.06,0.08,29.67"/><path d="M42.44,63.88c3.93-0.5,8.06-1.38,12.5-2.07c1.33-0.21,1.68-0.19,2.53,0"/><path d="M25.96,63.63c0.83,0.83,1.02,1.99,1.02,3.02c0,0.79,0.08,16.23,0.08,21.69"/><path d="M18.25,90.6c0.7,0.7,1.9,0.97,3.67,0.34C35.88,86,45,82.62,59.5,77"/><path d="M56.25,13.75c1.73,1.73,2.14,3.47,2.56,7.2c3.07,27.43,9.82,54.43,31.07,72.32c5.95,5.01,5.33,1.24,4.47-6.44"/><path d="M71.75,18c3.59,1.85,9.33,6.08,11,9.25"/></svg>