<svg><path d="M22.13,18.48c2.49,0.89,5.42,0.58,8,0.41c14.51-0.95,32.17-2.65,49.62-3.47c2.85-0.13,6-0.29,8.38,0.15"/><path d="M24.75,19.25c1,1,1.18,2.38,1.18,4.06C25.88,46,23.12,71.88,10.06,92.97"/><path d="M29.65,36.53c0.55,0.13,1.72,0.13,3.19,0C39,36,46.5,35.12,52.02,34.45c1.46-0.18,2.58,0.1,3.51,0.23"/><path d="M44.07,24.32c0.74,0.74,1.16,1.81,1.16,3.23c0,0.46-0.12,20.11-0.17,29.83c-0.01,2.29-0.02,4.04-0.02,4.84"/><path d="M44.25,36.95c0,1.18-0.46,2.55-0.93,3.4c-3,5.48-8.78,12.68-13.34,16.11"/><path d="M48.68,43.18c2.07,0.95,4.7,3.45,6.11,5.63"/><path d="M60.89,33.9c1.86,0.47,3.22,0.28,4.75,0.04c4.15-0.64,10.93-1.51,17.36-2.11c1.46-0.14,3.04-0.39,4.5-0.13"/><path d="M71.09,21.75c0.77,0.77,1.16,1.88,1.16,3.23c0,4.65,0.04,21.84,0.06,30.64c0,2.13,0.01,3.77,0.01,4.62"/><path d="M71.38,34.75c0,1.12-0.44,2.79-0.88,3.73c-3.2,6.74-9.75,14.77-14.78,17.98"/><path d="M72.88,34.88c4.84,6.5,12.2,14.59,17.05,18.59c1.48,1.22,3.3,2.78,5.2,3.28"/><path d="M56.87,63.5c0.88,0.88,1.43,2,1.43,3.28c0,0.88,0.06,16.72,0.06,23.22"/><path d="M59.27,75.43c6.09-0.64,11.62-1.64,18.03-2.07c1.49-0.1,1.86-0.21,2.79,0"/><path d="M37.03,71.76c0.92,0.92,1.58,2.16,1.68,3.03c0.29,2.71,0.66,9.09,1.06,16.04"/><path d="M24.41,92.11c2.23,0.68,4.43,0.73,6.71,0.54c12.37-1.02,38.94-2.51,53.37-2.67c2.62-0.03,5.26,0.12,7.84,0.63"/></svg>