<svg><path d="M14.75,17.97c1.5,0.28,2.79,0.59,3.8,0.52C25,18,38,16.25,44.28,15.51c1.64-0.19,2.64,0.25,3.47,0.5"/><path d="M28.69,21.39c0.18,0.7,0.25,1.83-0.13,3.17c-2.57,9.05-7.79,22.31-16.89,33.35"/><path d="M28,35.96c0.28,0.05,1.99,0.5,2.8,0.36c2.65-0.44,6.17-1.76,10.72-2.52c2.68-0.45,3.13,2.19,2.47,4.73C40.33,52.44,24.86,83.84,8.61,91"/><path d="M20.71,51.48c2.93,1.97,7.58,8.09,8.31,11.16"/><path d="M63.79,11.5c0.05,0.91,0.11,2.35-0.1,3.66C62.48,22.86,55.75,42,46.03,50.13"/><path d="M66.28,18.44c0.54,0.37,1.3,0.49,2.17,0.25c0.87-0.25,14.21-1.82,16.37-1.94c2.17-0.12,3.86,0.74,3.34,3.29C87,25.75,83,37.75,78.91,44.71c-2.42,4.12-4.94,1.23-6.57-1.1"/><path d="M54.24,55.35c1.26,0.65,2.12,0.91,5.28,0.71c4.7-0.3,19.25-2.17,21.39-2.6c2.14-0.43,3.61,1.53,2.92,3.14C76.25,74.25,59.5,91.5,40,96.75"/><path d="M48.49,63.78c7.01,0.72,25,22.1,39.5,30.82c2.26,1.36,3.9,2.27,6,2.72"/></svg>