<svg><path d="M13.25,28.66c1.75,0.34,4.1,0.33,6.04-0.04c5.84-1.12,15.58-2.48,21.58-3.16c1.93-0.22,3.51-0.27,5.38,0.21"/><path d="M29.16,30.24c0.2,0.55,0.36,2.24-0.12,3.27c-3.79,8.12-8.54,16.12-18.37,25.84"/><path d="M26.89,43.8c1,0.15,2.13-0.16,3.11-0.29c2.75-0.38,4.25-1,8.2-2.01c2.44-0.62,3.62,0.65,2.79,2.7C35.88,56.88,28.88,74.38,9.61,87.75"/><path d="M20.75,52.62c2.92,1.88,7.54,7.72,8.27,10.64"/><path d="M56.42,21.64c0.33,0.86,0.23,1.69-0.05,2.63c-2.62,8.97-4.75,13.97-9.14,22.04"/><path d="M56.42,34.34c1.58,0.28,2.84,0.17,3.96,0.06c5.14-0.52,13.36-2.17,19.39-3.02c1.62-0.23,3.48-0.25,5.06-0.16"/><path d="M44.7,52.99c2.45,0.59,5.18,0.34,7.69,0.09c8.09-0.81,24.14-2.62,33.86-3.43c2.39-0.2,4.64-0.28,7.02,0.06"/><path d="M66.7,13.5c0.96,0.96,1.38,2.38,1.38,3.94c0,0.74-0.03,53.54-0.04,72.68c0,3.54,0,5.92,0,6.62"/><path d="M65.8,53.27c0,2.1-0.88,3.49-2.08,5.51c-6.29,10.5-17.63,23.32-27.01,28.66"/><path d="M68.76,52.8c5.61,6.7,14.61,16.82,21.49,23.58c2.21,2.17,4,3.62,6.79,5.13"/></svg>