<svg><path d="M14.25,17.97c1.25,0.28,2.79,0.6,3.8,0.52C23.75,18,38,16.25,44.28,15.51c1.64-0.19,2.64,0.25,3.47,0.5"/><path d="M28.19,20.39c0.18,0.72,0.75,2.89,0.36,4.26c-2.64,9.23-8.02,22.75-17.38,34.01"/><path d="M28.13,36.46c0.29,0.05,1.5,0,2.32-0.14c2.67-0.44,6.71-1.76,11.29-2.52c2.7-0.45,3.77,1.73,2.98,4.23C40.25,52.25,29.25,76.5,9.11,91.5"/><path d="M19.71,51.23c3.46,2.01,8.95,8.28,9.81,11.41"/><path d="M68.91,11.75c0.06,0.95,0.31,2.51-0.13,3.8c-3,8.92-10.42,24.24-23.31,35.81"/><path d="M69.12,15.85c3.94,6.42,20.47,26.79,24.81,31.48c1.47,1.59,3.36,2.28,4.84,2.73"/><path d="M72.58,41.58c0.08,0.59,0.3,1.59-0.16,2.36c-3.03,5.04-13.22,14.84-28.21,21.71"/><path d="M80.12,56.39c0.1,0.59,0.34,1.61-0.19,2.37c-3.63,5.18-15.5,15.54-33.31,22.69"/><path d="M88.77,70.6c0.13,0.67,0.27,1.73-0.25,2.69C85.44,78.96,67.76,91.39,43.57,99"/></svg>