<svg><path d="M15.25,19.47c1,0.03,2.79,0.6,3.8,0.52c5.45-0.48,19.45-1.23,25.74-1.97c1.64-0.19,2.64,0.25,3.47,0.5"/><path d="M27.99,22.14c0.17,0.71,0.68,2.87,0.32,4.23c-2.38,9.17-7.22,22.6-15.64,33.79"/><path d="M28.64,37c0.26,0.05,1.39,0,2.14-0.14c2.47-0.45,5.7-0.28,9.93-1.05c2.49-0.46,2.91,2.23,2.29,4.81C39.61,54.76,29.75,83,14.11,94"/><path d="M20.21,55.23c3.64,1.92,9.4,7.91,10.31,10.91"/><path d="M53.55,15.49c0.3,0.32,0.61,0.59,0.74,0.99c1.05,3.19,2.3,10.33,3.01,16.05"/><path d="M54.93,17.15c7.42-1.05,25.97-3.42,29.53-3.42c1.29,0,3.04,0.76,2.88,2.3c-0.38,3.78-1.66,6.58-2.8,11.72"/><path d="M57.95,30.06c4.15-0.47,19.55-1.56,27.89-1.83"/><path d="M53.66,39.25c0.57,0.93,1.39,2.14,1.39,3.37c0,1.23-0.19,36.75,0,37.98"/><path d="M56,40.68c3.2-0.15,27.6-2.65,30.52-2.84c2.43-0.15,3.97,1.47,4.14,3.58c0.12,1.47-1.13,36.07-1.13,37"/><path d="M54.94,53.17c10.32-0.76,30.13-1.98,35.27-1.98"/><path d="M55.2,65.55c6.37,0,26.4-1.85,34.63-1.85"/><path d="M57.03,77.65c6.36,0,23.39-1.85,31.63-1.85"/><path d="M61.54,83.96c0.39,1.19,0.28,2.02-0.5,2.88c-2.35,2.62-9.11,8.55-13.82,11.65"/><path d="M80.9,84.17c5.96,3.48,13,9.79,14.62,12.84"/></svg>