<svg><path d="M15.75,17.47c1,0.28,2.79,0.56,3.8,0.52C25,17.75,39,17.25,45.28,16.51c1.64-0.19,2.64,0.25,3.47,0.5"/><path d="M29.66,20.39c0.2,0.73,0.84,1.96,0.38,3.34C26.75,33.75,20,47.75,11.67,59.41"/><path d="M27.64,36.5c0.26,0.05,1.89,0,2.64-0.14c2.47-0.45,4.7-0.78,8.93-1.55c2.49-0.46,2.91,2.23,2.29,4.81C38.11,53.76,26,79,11.61,91.5"/><path d="M18.96,54.23c3.55,1.84,9.17,7.55,10.06,10.41"/><path d="M61.35,11.5c0.04,0.48,0.14,1.38-0.07,1.92C58.67,20.18,54.89,26.71,48,32.79"/><path d="M61,21.14c0.76,0.38,2.24,0.46,3,0.36c4.82-0.66,20.15-2.39,25.5-3c1.25-0.14,2.62-0.18,3.25,0.01"/><path d="M56.63,30.86c0.24,0.4,0.4,0.61,0.48,1.13c0.59,3.68,2.39,15.99,2.47,16.52"/><path d="M57.7,31.5c4.62-0.52,19.26-1.91,25.18-2.26c1.03-0.06,1.65,1.42,1.61,1.82c-0.45,4.96-1.8,11.17-3.24,15.39"/><path d="M58.63,38.8c1.83,0,21.97-1.74,24.05-1.74"/><path d="M59.86,46.44c3.73-0.39,16.34-1.22,20.99-1.55"/><path d="M46.31,55.56c1.28,0.3,3.62,0.35,4.89,0.3c13.28-0.51,29.55-2.81,42-2.93c2.13-0.02,3.4,0.15,4.47,0.3"/><path d="M59.13,58.23c0.04,0.47,0.24,1.27-0.08,1.89c-2.3,4.38-8.15,11.02-15.85,16.85"/><path d="M57.29,65.46c0.83,0.45,2,0.61,3.34,0.3c1.33-0.3,24.34-2.88,27.68-3.03c3.34-0.15,4,1.51,3.5,4.69C91.31,70.6,88.33,87.62,81,96.24c-2.21,2.59-3.45-0.43-5.42-2.32"/><path d="M64.16,68.72c0.05,0.42,0.15,1.1-0.1,1.69c-2.52,5.85-9.44,13.99-19.4,18.79"/><path d="M77.37,67.54c0.09,0.78,0.34,2.06-0.18,3.13c-3.25,6.74-10.07,16.89-23.32,25.73"/></svg>