<svg><path d="M14.75,21.47c1,0.03,2.79,0.07,3.8,0.02c4.2-0.23,16.45-2.23,22.74-2.97c1.64-0.19,2.64,0.25,3.47,0.5"/><path d="M26.99,23.39c0.17,0.72,0.68,2.89,0.32,4.26c-2.38,9.23-7.22,22.75-15.64,34.01"/><path d="M26.64,40c0.26,0.05,1.39,0,2.14-0.14c2.47-0.45,5.2-1.78,9.43-2.55c2.49-0.46,2.91,2.23,2.29,4.81C37.11,56.26,25.25,82.75,9.61,93"/><path d="M21.46,55.73c2.67,1.66,6.9,6.83,7.56,9.41"/><path d="M67.65,11.05c0.87,0.34,2.11,2.02,2.09,3c-0.06,3.1-0.06,5.13-0.07,7.96"/><path d="M50.74,22.14c0,2.51-2.39,10.24-3.3,11.91"/><path d="M51.06,24.2c6.28-0.79,34.31-2.6,39.4-2.9c7.97-0.47,1.69,5.7-0.3,7.39"/><path d="M54.58,32.31c0.73,0.35,2.05,0.39,2.78,0.35c4.94-0.25,20.3-1.81,24.32-2.15c1.2-0.1,1.93,0.17,2.54,0.35"/><path d="M68.48,34.61c0.04,0.23,0.59,1.18,0.63,2.62c0.21,6.9-0.13,6.29-0.13,8.65c0,6.67-3.64,0.71-4.4,0.12"/><path d="M55.45,40.54c0.03,0.27,0.11,0.71-0.06,1.08c-1.18,2.7-6.16,7.89-10.21,10.38"/><path d="M85.42,38.3c0.12,0.55,0.01,1.95-0.68,2.65c-6.25,6.27-21.89,14.62-41.49,20.83"/><path d="M56.05,56.98c0.77,1.08,1.17,1.84,1.17,3.59c0,3.99-0.35,14.2-0.35,25.72"/><path d="M58.01,56.97c2.68-0.22,24.12-1.5,26.56-1.76c2.04-0.22,3.12,1.21,3.12,2.86c0,4.02-0.6,25.54-0.6,26.86"/><path d="M58.27,65.47c5.01-0.33,24.46-1.87,28.76-1.87"/><path d="M57.49,73.58c7.57-0.64,22.05-1.44,30.07-1.57"/><path d="M57.14,83.3c7.57-0.48,22.02-1.75,28.92-1.75"/><path d="M63.08,87.34c0.4,1.05,0.26,1.92-0.53,2.68c-1.74,1.69-7.21,6.1-14.02,9.04"/><path d="M79.5,87.86c6.18,3,13.47,8.45,15.16,11.08"/></svg>