<svg><path d="M42.81,14.25c0.06,0.3-0.24,1.41-0.61,1.71c-4.95,4.04-9.71,7.65-20.45,11.08"/><path d="M20.1,26.25c0.9,1,0.82,1.75,0.82,4.03c0,20.78,0.33,44.97-10.11,62.94"/><path d="M21.69,31.75c1.89-0.09,22.55-2.15,24.28-2.26c1.44-0.09,2.25,1.26,2.25,2.51c0,1.09-1.94,20.2-1.94,20.73"/><path d="M22.03,41.36c2.56,0,20.57-1.91,23.47-1.91"/><path d="M21.91,52.11c5.22-0.38,17.08-1.4,23.58-1.73"/><path d="M22.75,65.9c1.75,0.6,3.36,0.31,3.89,0.21c4.86-0.86,14.34-2.49,16.73-2.89c1.55-0.26,1.98,1.17,1.9,3c-0.23,4.82-5.17,21.02-7.58,24.3c-2.24,3.06-4.44,1.48-6.14-0.89"/><path d="M61.42,16.85c0.33,0.9,0.48,1.82,0.45,2.84c-0.21,10.56-2.92,21.46-8.59,26.17"/><path d="M62.35,18.78c3.4-0.03,12.8-1.84,14.39-2.4c2.38-0.84,3.07,1.27,2.83,3.12c-0.48,3.62-1.71,10.25-1.71,13.87c0,5.01,0.69,8.64,8.53,8.64c9.36,0,9.53-1.51,9.53-9.36"/><path d="M55.75,52.69c1.53,0.37,1.72,0.92,4.79,0.37c3.06-0.55,20.07-2.02,22.17-2.57c2.1-0.55,3.81,2.14,2.87,4.06C78.22,69.54,62.5,87.25,46.5,94.17"/><path d="M55.48,59.4C59.49,60.26,79.06,83.14,93,92.51c2.17,1.46,3.75,2.43,5.77,2.92"/></svg>