<svg><path d="M11.15,24.99c1.69,0.81,3.71,0.52,5.48,0.3c10-1.21,19.06-2.43,26.49-3.65c1.92-0.32,4.17-0.83,6.1-0.27"/><path d="M42.26,32.54c0.35,1.07,0.5,2.16-0.07,4.04C37.5,52,32,65,21.27,75.17"/><path d="M21.25,44.38c10.25,5.5,19.62,17,25.75,27.32"/><path d="M12.75,25.76c0.81,0.81,1,2.08,1,3.49c0,11.33,0,50.97,0,53.75c0,2.5,0.73,3.39,2.84,3.1c7.78-1.1,28.38-3.14,30.56-3.14c2.18,0,4.02-0.29,5.36,0.13"/><path d="M59.69,18.54c0.69,0.69,0.73,1.54,0.71,2.55c-0.17,10.43-2.21,22.7-7.45,27.08"/><path d="M61.22,20.62c4.53-0.62,11.53-2.24,14.5-2.73c2.1-0.34,2.94,0.3,2.74,2.18c-0.39,3.68-1.09,9.15-1.09,12.82c0,7.36,1.48,8.52,7.94,8.52c6.43,0,7.44-0.9,7.44-7.28"/><path d="M58.32,55.27c1.22,0.35,2.87,0.62,5.31,0.1c2.44-0.52,13.28-3.33,14.94-3.87c2.68-0.87,4.05,1.13,2.78,3.58c-9.25,17.91-19.41,29.19-34.03,37.84"/><path d="M54.77,60.6c4.36,0.15,18.73,15.52,31.38,25.91c2.69,2.21,5.35,4.11,8.87,6.01"/></svg>