<svg><path d="M39.33,12.75c0.11,1.05,0.02,2.04-0.63,2.92C34.75,21,30,25.75,23.25,30.79"/><path d="M20.37,31c0.88,0.88,1.21,2.25,1.21,3.5c0,4.52-0.06,36.54-0.08,55.62c0,2.04,0,3.93,0,5.62"/><path d="M22.75,44c6.75-0.75,16.51-2.38,17.75-2.5c1.4-0.13,2.5-0.25,3.75,0"/><path d="M22.5,61c6.75-0.75,17.51-2.63,18.75-2.75c1.4-0.13,2.5-0.25,3.75,0"/><path d="M10.5,82.67c1,1.08,2.38,0.97,4.22,0.24c1.09-0.43,20.92-7.84,25.53-9.91"/><path d="M56.55,19.6c0.7,0.65,1.02,1.68,0.96,2.77C56.88,34.12,55.88,42.25,49.3,51"/><path d="M58.01,21.12c4.12-0.62,13.24-2.62,16.17-2.98c2.35-0.29,3.13,0.87,2.83,3.04c-0.63,4.45-1.41,10.44-1.41,14.22c0,6.6,1.16,8.77,8.35,8.77c7.3,0,7.85-1.55,7.85-7.6"/><path d="M54.74,55.82c1.58,0.37,3.12,0.8,6.18-0.13c4.32-1.32,11.22-3.77,13.31-4.56c2.64-1,4.51,0.87,3.46,3.8c-7.22,20.1-18.95,32.33-36.59,40.74"/><path d="M51.3,64.26C55.5,64.59,70.32,78,84.21,89.43c2.67,2.2,6.92,4.7,9.69,6.01"/></svg>