<svg><path d="M23.91,15.02c0.43,0.54,0.57,0.88,0.67,1.59c1.16,7.88,2.76,21.18,3.96,31.59"/><path d="M24.92,16.77c15-1.41,41.21-3.29,52.4-4.47c4.11-0.43,6.22,1.1,6.01,2.63c-0.77,5.63-3.69,21.46-5.57,30.86"/><path d="M51.43,16.24c0.82,0.76,1.63,2.19,1.68,3.48c0.29,7.98,0.09,20.3,0.09,24.46"/><path d="M26.72,31.21c4.89-0.55,49.8-3.58,53.84-3.8"/><path d="M29.32,46.69c10.8-0.6,34.04-2.1,48.95-3.08"/><path d="M26.75,69.53c5.98-0.41,15-2.38,20.21-3.08c1.53-0.21,2.5-0.2,3.29-0.08"/><path d="M24,55.05c1.07,0.75,2.01,1.54,2.01,2.56c0,2.8-0.34,30.14-0.34,34.5c0,3.65-0.93,5.03,3.83,2.59c5.7-2.91,10.25-5.45,17.17-8.02"/><path d="M85.85,57.12c0.27,0.63,0.21,2.62-0.76,3.3c-3.33,2.33-14.18,8.28-22.42,11.73"/><path d="M58.5,52.5c1.25,0.78,1.83,2.54,1.83,3.53c0,2.62-0.36,24.84-0.36,27.91c0,14.35,9.33,12.36,17.78,12.36c6.55,0,13.2-0.41,15.67-2.62c2.47-2.21,1.08-3.89,1.33-6.09"/></svg>