<svg><path d="M52.14,9.61c0.83,0.45,2.19,2.17,2.19,3.06c0,3.27-0.26,5.9-0.11,8.66"/><path d="M21.98,23.17c1.66,0.29,3.13,0.61,5.04,0.4c11.39-1.22,43.83-3.47,57.1-4.06c1.95-0.09,2.95,0.03,4.4,0.52"/><path d="M37.5,29.65c0.31,0.21,0.62,0.39,0.76,0.65c1.07,2.09,1.82,7.79,2.55,11.55"/><path d="M39.41,30.36c7.52-0.88,21.71-2.69,25.59-2.99c1.42-0.11,3.34,0.74,3.1,2.31c-0.37,2.48-1.8,3.75-3.6,7.55"/><path d="M41.63,39.88c4.56-0.33,19.54-1.98,25.33-2.32"/><path d="M20.91,45.13c0,3.25-2.81,12.2-3.91,14.37"/><path d="M21.24,48.74c1.39,0.03,56.24-4.55,63.45-4.9c12.05-0.59,2.05,7.16-0.95,9.28"/><path d="M66.78,51.5c-0.03,1.25-0.58,1.77-1.2,2.07c-5.79,2.87-18,6.31-33.19,9.27"/><path d="M28.52,72.04c1.14,0.27,3.25,0.35,4.38,0.27c11.89-0.86,29.66-3.85,39.5-4.48c1.88-0.12,3.05,0.13,4,0.26"/><path d="M16.88,84.67c1.52,0.22,5.93,0.34,7.44,0.22c17.18-1.39,44.92-4.71,58.67-5.22c2.52-0.09,5.67,0.11,6.93,0.22"/><path d="M52.42,62.2c0.77,0.69,1.38,2.01,1.43,3.09c0.21,4.79-0.76,22.74-0.76,25.68c0,7.75,5.56,8.56,20.84,8.56c19.21,0,20.06-2.98,20.06-8.1"/></svg>