<svg><path d="M40.39,13.75c0,1.25-0.29,2.22-1.26,3.25c-4.26,4.5-14.06,11.06-28.51,15.5"/><path d="M11.12,46.58c2.13,0.67,4.16,0.32,5.77,0.02C24,45.25,30.38,44,37.64,42.97c2.17-0.31,4.71-0.72,6.86,0.08"/><path d="M8.5,64.67c2.02,0.83,4.75,0.39,6.83,0.04c8.04-1.34,19.31-3.6,26.67-4.63c2.09-0.29,4.09-0.33,6.12,0.17"/><path d="M27.11,29.87c1.14,1.14,1.35,2.25,1.35,4.43c0,8.19-0.08,36.18-0.08,41.2c0,18.45,1.12,21.03,36.24,21.03c30.64,0,31.51-2.78,31.51-13.03"/><path d="M48.87,29.58c2.63,0.42,5.37,0.27,7.75,0.04c9-0.87,22.37-2.1,30.75-2.55c2.42-0.13,4.92-0.33,7.31,0.18"/><path d="M69.83,12.33c1.11,1.11,1.35,2.29,1.35,4.25c0,12.53,0.03,59.55,0.03,63.81c0,11.61-5.33,3.11-6.62,1.46"/><path d="M53.14,41.42c2.78,1.71,7.19,7.05,7.88,9.71"/><path d="M45.28,72.49c1.35,1.13,2.97,0.88,4.48-0.3c1.15-0.91,8.76-7.44,14.46-12.55"/><path d="M90.27,37.75c0,0.87-0.39,1.87-0.94,2.54c-2.95,3.58-5.7,6.58-10.29,9.94"/><path d="M79.44,58.36C85,61.75,90.25,67,93.39,74.24"/><path d="M79.62,11.12c3,1.57,7.74,6.47,8.49,8.92"/></svg>