<svg><path d="M25.04,16.36c1.27,0.68,2.71,3.28,2.71,4.64c0,5-0.03,11.5-0.03,15.82"/><path d="M11.88,38.35c0.79,0.06,2.58,0.4,3.35,0.34c6.26-0.45,20.71-1.77,26.84-2.03c1.3-0.06,1.95,0,3.29,0.44"/><path d="M14.47,39c0,1.5,0.01,3.57,0.01,4.85c0,11.4,0,28.21,0,32.53c0,9.37,1.77,11.16,12.77,11.16c7.25,0,14.5-0.79,17.03-2.31"/><path d="M49.06,15.27c0.74,0.15,2.93,0.66,4.44,0.55c8.11-0.57,26.75-3.27,30.47-3.3c2.28-0.02,4.12,2.27,3.83,3.56c-1.09,4.73-2.04,12.43-2.97,17.16"/><path d="M52.7,37.56c5.92-0.94,24.63-3.17,31.45-3.97c1.07-0.12,3.21,0.17,3.75,0.34"/><path d="M52.25,16.35c0.25,1.15,0.38,2.23,0.38,4.31c0,2.08-0.17,69.66-0.17,72.89c0,3.23,0.84,3.28,3.4,1.35C61,91,67.5,86.25,71.43,83.54"/><path d="M52.63,56.06c9.69-0.68,27.3-1.27,40.45-2.9c1.29-0.16,2.05,0.22,2.69,0.44"/><path d="M69.48,38.31c0.52,0.69,1.08,2.56,1.17,3.88C72.25,66,79,84.6,92.56,93.01C101,98.25,99,93,97.92,87.1"/></svg>