<svg><path d="M36.68,9.69c0.32,1.72-0.11,2.32-0.62,3.63C33.25,20.5,25.5,32.75,16.5,40.25"/><path d="M37,20.02c1.92,0.19,3.55,0.43,4.93,0.27c9.32-1.04,24.83-1.76,37.72-2.41c1.19-0.06,2.85-0.13,4.6,0.45"/><path d="M36.5,31.72c1.25,0.03,2.29,0.51,3.68,0.47c8.09-0.23,22.62-1.77,30.78-2.06c1.5-0.05,3.54,0.12,5.04,0.4"/><path d="M24.5,42.73c1.15,0.45,3.39,0.61,5,0.52c13.25-0.75,37.99-1.9,48.85-3.26c2.98-0.37,3.9,1.5,3.7,3.31C79.75,63.25,81,80.25,91.21,92.66c6.32,7.68,5.79,3.59,4.54-5.25"/><path d="M38.9,50.03c0.36,0.55-0.08,1.18-0.51,1.87c-3.53,5.68-13.48,14.23-20.89,16.65"/><path d="M52.76,48.25c6.21,1.94,12.41,14.23,17.58,17.33c2,1.2,2.72,1.84,4.66,2.23"/><path d="M28.91,68.75c1.07,0.31,3.41,0.76,4.35,0.67c7-0.67,21.7-3.61,25.92-3.93c2.75-0.21,3.47,1.63,3.31,3.09c-0.4,3.86-3.23,19.37-6.63,24.01c-3.71,5.08-4.27,1.89-7.32-0.31"/><path d="M41.41,71.49c0.59,0.51,0.62,1.5,0.38,2.32c-2.29,7.93-7.04,17.43-20.1,23.65"/></svg>