<svg><path d="M21.13,17.25c4.45,1.47,11.5,6.05,12.62,8.34"/><path d="M17.25,41.5c3.97,1.23,10.26,5.08,11.25,7"/><path d="M16.5,87.94c1.78,1.33,3.91,1.38,5.03-0.26C24.79,82.92,28.04,77.08,31,71"/><path d="M44.48,22.11c0.99,0.21,2.92,0.76,4.93,0.58c7.84-0.69,23.9-3.03,26.33-3.68c3.98-1.07,7.05,1.92,6.41,6.17c-1.14,7.57-2.39,18.07-6.77,30.08c-3.14,8.62-7.21,1.02-7.95,0.61"/><path d="M46.07,22.41c1.18,1.09,1,2.59,1,4c0,16.34,0.34,30.29,0.28,41.61C47.25,88,49,89.96,71.83,89.96c21.67,0,23.06-3.46,23.06-14.55"/></svg>