<svg><path d="M20.13,18.25c4.45,1.47,11.5,6.05,12.62,8.34"/><path d="M16,41.75c4.06,1.37,10.48,5.62,11.5,7.75"/><path d="M16.75,88.68c2.25,0.82,4.21-0.1,5.27-1.76c3.09-4.84,5.67-9.25,8.48-15.42"/><path d="M51.87,19.89c0.54,2.02,1.3,3.61,1.3,6.13c0,23.06,0.73,54.26-16.42,69.23"/><path d="M52.96,22.32c2.86-0.72,17.56-3.61,19.85-4.33c2.29-0.72,4.77,0.72,4.2,4.35c-0.57,3.62-0.85,52.84-0.91,55.49c-0.19,8.69-1.18,14.55,10.23,14.73s10.45-2.9,10.45-10.39"/><path d="M59.45,45.26c5.06,4.09,7.95,8.44,9.52,12.28"/></svg>