<svg><path d="M21.76,19.88c4.94,1.71,12.75,7.05,13.99,9.72"/><path d="M15.75,41.75c4.59,1.59,11.85,6.53,13,9"/><path d="M14.02,88.62c1.39,0.58,2.83,0.38,3.67-0.81C20.71,83.5,27,72.99,29.75,67.5"/><path d="M44.26,36.06c2.74,0.56,5.66,0.47,7.69,0.18c6.86-0.97,20.58-3.25,27.54-4c1.9-0.21,4.38-0.12,6.14,0.21"/><path d="M64.1,37.12c1.08,1.08,1.32,2.51,1.32,5.23c0,10.16-0.05,28.59-0.05,37.03"/><path d="M34.77,82.59c2.61,1.03,6.42,0.82,9.11,0.46c13.62-1.81,28.24-3.43,42.99-4.45c2.59-0.18,6.16-0.01,8.6,1.1"/></svg>