<svg><path d="M22,14.75c3.88,1.43,10.03,5.87,11,8.09"/><path d="M16.5,41.5c3.97,1.32,10.26,5.44,11.25,7.5"/><path d="M17.91,88.2c1.18,0.49,2.38-0.03,3.09-1.24C23.75,82.25,27.5,74,30,68"/><path d="M46.92,16.87c1.5,0.57,4,0.49,5.59,0.33c7.87-0.82,17.92-2.29,25.51-2.64c1.68-0.08,3.41-0.17,5.06,0.21"/><path d="M37,39.41c2.31,0.76,5.73,0.59,8.14,0.28c10.84-1.4,32.11-3.42,43.24-3.82c2.46-0.09,4.94-0.19,7.37,0.29"/><path d="M63.18,18.05c0.69,1.45,0.53,3.27,0,4.93C60.25,32,54.66,44.84,51.3,52.43c-0.8,1.82-0.24,3.99,3.07,3.43C59.5,55,73.48,53.7,80.12,52.96c6.64-0.73,5.03,4.91,4.54,6.67c-2.49,9.05-7.05,23.81-12.49,31.42C66.5,99,62.39,90.89,60.5,89"/></svg>