<svg><path d="M28.12,16.96c0.95,0.3,4.04,0.4,5,0.31c4.46-0.41,37.51-2.26,45.01-2.57c1.46-0.06,2.79,0.06,4,0.31"/><path d="M52.32,18.9c1.88,1.92,1.88,3.07,1.88,4.61c0,2.99-0.06,8.74-0.06,12.95"/><path d="M14.67,38.97c0.94,0.22,4.31,0.45,5.91,0.35c17.21-1.06,51.39-3.63,67.06-3.96c2.57-0.05,5.65,0.36,6.94,0.71"/><path d="M53.79,41.08c0.82,0.76,1.39,2.06,1.46,4.58c0.33,12.08-0.21,43.67-0.21,47.79c0,8.12-6.24,0.03-7.48-1.01"/><path d="M18.5,56.75c1.5,0.25,3.18,0.72,4.75,0.5c5.25-0.75,12-1.75,16.84-2.25c2.68-0.28,4.61,0.79,3.75,3C39.25,69.75,29.25,82.5,13.5,90.25"/><path d="M82.72,44.5c0.09,0.41-0.19,1.59-0.55,2.12C78.79,51.66,71.61,57.87,65.5,60.5"/><path d="M55.5,53c11.25,10.75,25.25,24.25,35.44,31.35c2.1,1.46,4.29,1.96,6.31,2.4"/></svg>