<svg><path d="M21.13,19c4.63,1.69,11.96,6.96,13.12,9.59"/><path d="M15,43.25c4.24,1.63,10.94,6.71,12,9.25"/><path d="M13.25,90.23c1.71,1.27,3.78,1.32,4.86-0.25c3.14-4.57,10.29-18.66,13.14-24.49"/><path d="M40.18,48.99c1.49,0.58,4.21,0.71,5.69,0.58c9.62-0.82,29.62-3.32,40.61-3.66c2.48-0.08,3.96,0.28,5.2,0.57"/><path d="M63.04,16c0.12,0.31,1.85,1.59,1.85,3.54c0,13.91-0.38,50.48-0.38,67.7"/><path d="M32.79,89.71c1.27,0.45,3.59,0.52,4.86,0.45c15.85-0.91,42.1-2.91,57.38-3.37c2.11-0.06,3.38,0.21,4.44,0.44"/></svg>