<svg><path d="M22.63,16.25c4.45,1.91,11.5,7.87,12.62,10.84"/><path d="M16,43.25c4.24,1.72,10.94,7.07,12,9.75"/><path d="M16.75,89.79c1.84,1.2,4.05,1.25,5.2-0.23c3.37-4.3,9.73-14.57,12.8-20.06"/><path d="M50.77,18.73c0.46,1.74,0.91,2.64,0.91,4.89c0,2.24-0.15,66.86,0,69.13"/><path d="M51.44,21.23c2.58,0.06,29.62-2.99,31.97-3.01c1.96-0.02,3.21,2.03,3.06,3.67c-0.31,3.32-0.6,68.39-0.6,70.07"/><path d="M51.89,54.15C57.5,54,79.25,52.5,85.81,52.39"/><path d="M51.73,88.58c7.1-0.26,25.22-1.83,34.06-1.68"/></svg>