<svg><path d="M21.75,19.75c3.88,1.5,10.03,6.17,11,8.5"/><path d="M16.75,42.38c3.62,1.48,9.34,6.08,10.25,8.38"/><path d="M15.5,89.98c2,0.52,3.81-0.19,4.75-1.74c2.07-3.41,4.09-7.55,7.25-14.84"/><path d="M35,54.06c2.96,0.91,5.47,0.57,8.39-0.27C54.1,50.68,80.11,40.95,85.5,39c2.63-0.95,5.25,0,4.76,2.86c-0.93,5.4-4.5,18.28-6.26,22.39c-2.25,5.25-4.25,3.75-7.25,0"/><path d="M65,19c0.94,0.94,1.75,2.62,1.75,3.75c0,5.12-0.18,29.87-0.37,43.5c-0.04,2.8-0.08,4.93-0.13,6"/><path d="M45.99,40.12c1.26,1.26,1.77,3.13,1.77,4.85c0,7.07-0.63,18.39-0.63,26.79c0,17.5,1.62,19.75,24.37,19.75s24.39-2,24.39-13.07"/></svg>