<svg><path d="M17.5,21.62c3.62,1.63,9.34,6.69,10.25,9.22"/><path d="M12.5,43.5C16.03,45,20.88,49,22.75,52"/><path d="M11.25,90.71C13,91,14.56,90.07,15.5,88.45c2.75-4.7,5-9.95,7.5-15.95"/><path d="M38.3,36.57c2.2,0.56,5.59,0.95,8.42,0.46c9.4-1.65,20.15-3.28,29.78-4.61c3.12-0.43,4.74,2.21,3.99,4.58c-1.37,4.35-3,10.25-4.75,16"/><path d="M30.88,57.53c3.62,0.85,7.01,0.54,10.41,0.15c12.59-1.43,28.79-3.34,42.33-4.07c4.25-0.23,7.63,0.02,10.66,0.71"/><path d="M57.41,13c1.11,1.11,1.62,2.33,1.7,4.42C61.25,72.5,48.5,83.88,32,94.75"/><path d="M60.06,56.96c6.58,7.59,18.34,22.12,26.47,29.77c2.19,2.06,5.1,4.4,8.23,5.87"/></svg>