<svg><path d="M21.88,19.5c3.84,1.47,9.91,6.05,10.87,8.34"/><path d="M13.75,43c4.32,1.32,11.17,5.44,12.25,7.5"/><path d="M15.25,90.23c1.93,0.64,3.16,0.07,4.2-1.5c3.03-4.57,6.05-10.16,8.8-15.99"/><path d="M36.62,43.91c3.12,0.96,6.28,0.94,9.02,0.55c11.98-1.72,19.47-2.24,37.11-3.64c3.62-0.29,5.49-0.28,8.99,0.65"/><path d="M61,16c1.06,1.06,1.24,2.56,1.24,4.87C62.24,57,52,81.55,32.25,93.86"/><path d="M61.25,44.3c5.78,8.83,16.79,26.84,24.65,37.81c2.69,3.76,5.22,6.89,9.1,10.27"/><path d="M57.75,79.64c3.97,1.78,9.5,6.73,11.25,10.11"/></svg>