<svg><path d="M17.75,18.82c3.71,1.43,9.57,5.87,10.5,8.09"/><path d="M13.62,41.44c3.93,1.43,10.14,5.9,11.12,8.12"/><path d="M14.25,88.27c1.75,0.79,3.31,0.36,4.25-1.25c2.75-4.7,5-9.95,7.5-15.95"/><path d="M49.91,11.25c0.47,1.44,0.22,3.06-0.61,4.83C46.99,21,40.88,31.69,34,38.57"/><path d="M48.23,24.94c0.77,0.12,2.45-0.02,3.42-0.18c7.01-1.14,16.87-3.24,24.97-4.98c1.48-0.32,2.88-0.59,4.38-0.47"/><path d="M45.06,37.09c1.61,0.39,2.94,0.4,4.57,0.2c8.37-0.99,15.3-2.36,22.25-3.79c1.67-0.34,3.61-0.69,5.04-0.54"/><path d="M37.89,51.74c2.31,0.56,4.03,0.56,6.37,0.15c12.09-2.11,23.99-4.68,32.99-6.58c2.55-0.54,3.47,1.02,3.2,2.78c-3.45,22.73,1.8,35.6,11.89,45.17c5.27,5,5.66,4.3,5.16-6.21"/></svg>