<svg><path d="M19.38,16.75c4.9,1.65,12.64,6.78,13.87,9.34"/><path d="M14.75,44.25c4.68,1.63,12.08,6.71,13.25,9.25"/><path d="M15.25,89.75c1.78,1.25,3.91,1.3,5.03-0.24C23.54,85,31.79,71,34.75,65.25"/><path d="M45.54,21.42c1.27,0.39,3.61,0.53,4.86,0.39c11.94-1.36,25.61-3.06,36.14-3.78c2.1-0.14,3.38,0.19,4.43,0.38"/><path d="M48.75,21.92c0.45,1.81,0.48,4.31,0.42,6.71C48.54,52.79,50.5,74,36.72,93.53"/><path d="M50.3,42.76c1.7,0.24,3.5,0.21,6.27-0.12C62,42,77,40.5,81.77,40.01c1.96-0.2,4.24,1.61,3.56,3.72c-8.03,24.92-18.69,44.94-37.6,53.79"/><path d="M54.19,45.03c3.06,7.22,16.56,31.22,34.91,47.31c2.24,1.96,3.57,3.57,5.49,4.28"/></svg>