<svg><path d="M18.38,17c4.54,1.34,11.73,5.51,12.87,7.59"/><path d="M13.75,40c3.97,1.32,10.26,5.44,11.25,7.5"/><path d="M11.75,88.97c1.81,1.29,3.98,1.34,5.12-0.25c3.31-4.64,6.62-10.31,9.63-16.22"/><path d="M80.57,15.89c-0.07,0.86-0.15,1.73-0.71,2.26C75.75,22,59.25,30.75,42.51,34.5"/><path d="M36.35,52.51c0.77,0.42,2.73,0.64,3.58,0.58c9.8-0.69,39.33-4.74,51.61-4.9c1.07-0.01,2.57,0.16,4.95,0.88"/><path d="M63.66,30.9c0.47,0.88,0.72,1.89,0.71,3.79C64.14,67.56,52.75,84.9,34,95"/><path d="M64.67,52.9c6.83,12.35,19.46,30.07,27.1,36.39c2.33,1.92,2.98,2.36,3.98,2.56"/></svg>