<svg><path d="M20.63,18.25c4.45,1.47,11.5,6.05,12.62,8.34"/><path d="M14,41.5c4.06,1.41,10.48,5.8,11.5,8"/><path d="M15.25,89.71c1.5,1.31,3.31,1.36,4.25-0.25C22.25,84.75,25,79,27.5,73"/><path d="M83.98,20.54c0.1,0.38,0.39,1.11-0.2,1.54c-7.32,5.42-18.14,10.4-37.22,14.77"/><path d="M44.47,46.92c0.51,0.34,1.32,1.28,1.33,3.42c0.01,2.48-2.79,11.17-3.54,16.3c-0.33,2.24-0.54,3.34,1.9,2.69c8.88-2.34,28.6-4.82,39.3-7.06"/><path d="M86.32,39.52c0.62,0.52,1.95,2.22,1.86,3.36c-0.42,5.27-2.11,14.7-3.52,24.26"/><path d="M62.62,13.62c0.89,1.38,1.59,3.01,1.64,5.14c0.24,9.5-0.01,49.54-0.01,62.64s3.18,13.38,14.66,13.38C90.39,94.77,95,93.7,95,84.18"/></svg>