<svg><path d="M21.63,18c4.28,1.43,11.05,5.87,12.12,8.09"/><path d="M16.75,42.75C21.07,44.29,27.92,49.1,29,51.5"/><path d="M16.25,89.73c1.71,1.27,3.78,1.32,4.86-0.25c3.14-4.57,9.79-17.16,12.64-22.99"/><path d="M81.02,12.75c-0.02,1-0.16,1.57-0.66,1.97c-6.89,5.36-15.19,8.92-29.72,13.53"/><path d="M47.2,26.37c1.44,1.94,1.42,3.78,1.42,5.9c0,17.76,1.13,43.49-12.31,58.89"/><path d="M49.01,43.68c0.56,0.12,2.75,0.07,4.24,0.07c7.75,0,26.5-2.5,35.72-3.1c1.49-0.1,4.09-0.12,5.02,0"/><path d="M74.21,44.8c0.92,0.6,1.47,2.69,1.65,3.89c0.18,1.2,0,44.84-0.18,52.31"/></svg>