<svg><path d="M18.88,17.5c3.84,1.52,9.91,6.23,10.87,8.59"/><path d="M13,42.25c4.06,1.72,10.48,7.07,11.5,9.75"/><path d="M13.25,89.23c1.71,1.27,3.78,1.32,4.86-0.25c3.14-4.57,9.29-17.66,12.14-23.49"/><path d="M38.41,19.59c1.04,0.41,2.96,0.41,4,0.41c9.09,0,37.35-2.23,47.28-2.23c1.74,0,2.78,0.2,3.65,0.4"/><path d="M53.91,22.25c0.92,1.5,0.95,4.39,0.46,6.75c-2.31,11.25-7.66,26-10.54,34.6c-0.81,2.4-1.01,4.91,1.97,4.4c10.16-1.75,12.21-2.5,27.62-2.75"/><path d="M52.41,42.5c1.84,0,2.48,0.03,5.7-0.47c7.2-1.11,17.62-1.8,20.11-2.03c3-0.28,3.5,1.7,2.81,3.68C78.49,51,72.75,74.5,69.61,89.25"/><path d="M29.75,91.21c1.38,0.53,3.9,0.58,5.28,0.53c14.58-0.49,42.22-2.88,56.66-2.13c2.29,0.12,3.67,0.25,4.82,0.52"/></svg>