<svg><path d="M19.13,17.25c4.1,1.65,10.59,6.78,11.62,9.34"/><path d="M13.5,41.25c4.24,1.63,10.94,6.21,12,8.75"/><path d="M13.25,85.73c1.71,1.27,3.78,1.32,4.86-0.25c3.14-4.57,6.29-10.16,9.14-15.99"/><path d="M39.75,27.98c1.03,0.1,3.38,0.67,4.38,0.53c8.09-1.11,36.81-4.2,47.79-4.48c1.7-0.05,2.56,0.04,3.83,0.68"/><path d="M43.67,41.81c0.84,0.46,2.14,2.98,2.3,3.92c0.17,0.93,1.39,28.65,1.22,34.47"/><path d="M45.99,44.54c3.68-0.3,37.96-4.5,40.69-4.79c2.32-0.25,3.73,1.81,3.81,3.79C90.9,54.12,90.5,63,88.54,73.27c-1.68,8.81-5.07,3.48-7.4,0.05"/><path d="M 63.98,11.25 c 0.82,0.59 2.15,2.85 2.15,4.02 0.255379,11.349692 0.207795,74.512537 0.23,84.86"/></svg>