<svg><path d="M22.88,18.75c4.37,1.74,11.27,7.14,12.37,9.84"/><path d="M16,42.25c4.06,1.81,10.48,7.44,11.5,10.25"/><path d="M14.25,88.23c1.71,1.27,3.78,1.32,4.86-0.25C22.25,83.42,25,78.5,30.75,69"/><path d="M62.33,15.25c1.25,0.58,2.01,2.59,2.26,3.74c0.25,1.15,0.5,64.23,0.25,71.43"/><path d="M65.23,50.26c6.88-0.94,14.28-1.64,20.14-1.87c2.26-0.09,2.82-0.23,4.23,0"/><path d="M43.01,44.33c1.25,0.58,2.01,2.59,2.26,3.74c0.25,1.15,0,35.74-0.25,42.94"/><path d="M30.22,91.96c0.66,0.15,2.44,0.44,4.21,0.46c11.32,0.08,45.08-3.02,57.21-3.02c1.77,0,4.42,0.22,6.15,0.87"/></svg>