<svg><path d="M16.63,16.5c4.45,1.78,11.5,7.32,12.62,10.09"/><path d="M13,40.75c4.24,1.63,10.94,6.71,12,9.25"/><path d="M11.25,88.73c1.71,1.27,3.78,1.32,4.86-0.25c3.14-4.57,9.79-17.16,12.64-22.99"/><path d="M34.75,37.61c1.75,0.57,3.74,0.75,5.75,0.57c10.25-0.93,31.5-2.68,47-3.78c2-0.14,3.25,0.1,5.25,0.5"/><path d="M59.75,13.75C61,14.25,62,15.97,62,17c0,10.5,0,74.75-0.25,81"/><path d="M61.75,37.75c-5.38,14.46-19.81,36.56-31,44.75"/><path d="M62,37.5c4.15,9.25,22.05,34.25,29.87,41.14c1.92,1.69,3.01,2.8,4.63,3.36"/></svg>