<svg><path d="M24.38,17.5c4.45,1.65,11.5,6.78,12.62,9.34"/><path d="M16.75,41.25c4.68,1.23,12.08,5.08,13.25,7"/><path d="M16.25,89.2c1.91,0.73,3.09,0.08,4.18-1.7c3.2-5.18,6.4-11.52,9.32-18.13"/><path d="M65.71,13.25c0.83,0.83,1.01,2.12,1.01,3.83c0,10.12-0.01,39.7-0.01,43.15c0,9.77-6.71,2.04-8.21,1.17"/><path d="M52.43,33.92c0.07,1.22,0.08,2.29-0.38,3.43c-2.18,5.4-6.76,14.23-11.64,20.83"/><path d="M78.5,34.25c6.37,3.09,14,10.25,16.5,15.84"/><path d="M84.37,50.33c0.12,1.17-0.13,2.54-0.75,4.2c-5.15,13.68-24.74,36.03-44.86,45.22"/></svg>