<svg><path d="M19.13,15.5c4.28,1.6,11.05,6.6,12.12,9.09"/><path d="M13.75,39.75C17.9,41.56,24.46,47.19,25.5,50"/><path d="M13.75,87.73c1.71,1.27,3.78,1.32,4.86-0.25c3.14-4.57,9.29-16.66,12.14-22.49"/><path d="M46.96,19.59c0.59,1.03,0.98,2.05,1.18,3.06c0.2,1.01,0.43,66.58,0.36,68.81"/><path d="M47.8,21.23c2.27-0.1,26.62-1.98,28.31-2.16c3.03-0.31,4.31,2.67,4.31,5.48c0,1.46-0.18,45.21-0.29,65.39"/><path d="M48.38,43.4c8.12-0.65,24.95-1.44,31.77-1.75"/><path d="M48.84,65.86c6.06-0.36,23.82-1.26,30.83-1.31"/><path d="M30.04,92.13c1.47,0.3,4.16,0.35,5.63,0.3c15.27-0.5,43.46-2.5,58.83-2.5c2.45,0,3.91,0.14,5.14,0.29"/></svg>