<svg><path d="M19.63,14c3.31,1.47,8.54,6.05,9.37,8.34"/><path d="M11.25,40.5c3.53,1.37,9.12,5.62,10,7.75"/><path d="M12,90.29c1.75,0.84,3.23,0.3,4.18-1.23C19.88,83.12,23.12,78,27,71.5"/><path d="M46.39,21.57c1.5,0.77,3.43,1,5.02,0.79C59.88,21.25,69,20,75.8,19.31c4.86-0.49,6.87,0.28,5.87,5.42c-0.94,4.9-2.11,10.64-3.67,18.02"/><path d="M50,46.75c3.33-0.2,16.13-1.58,24.02-2.32c2.36-0.22,4.5-0.39,5.54-0.44"/><path d="M48.59,22.87c0.9,0.9,1.25,2.32,1.25,3.63C49.82,48.19,49.42,73.93,33.25,90"/><path d="M58.25,47c6,10.25,14.88,24.62,24.77,35.47C86.25,86.02,89,89,93,92.25"/></svg>