<svg><path d="M20.13,16.25c4.28,1.65,11.05,6.78,12.12,9.34"/><path d="M15.75,42.5c4.15,1.76,10.71,7.26,11.75,10"/><path d="M12.75,88.34c1.81,1.12,3.98,1.17,5.12-0.22C21.18,84.09,28.99,73.65,32,68.5"/><path d="M61.81,13.63c0.76,0.46,2.36,3.45,2.51,4.37c0.15,0.92-0.25,34.08-0.25,47.59"/><path d="M64.25,39.27c9.91-0.77,21.92-1.81,23.29-1.81c1.38,0,3.85,0,4.96,0.26"/><path d="M44.41,65.92c0.46,0.55,0.94,1.02,1.14,1.71c1.61,5.49,3.53,19.15,4.63,29.02"/><path d="M45.46,67.91c12.29-1.16,33.75-1.71,39.6-2.49c2.14-0.28,3.42,2.86,3.12,4.54c-1.27,6.92-2.85,13.08-4.6,21.86"/><path d="M50.14,93.42c8.74-0.49,24.75-1.01,36.23-1.35"/></svg>