<svg><path d="M20.63,17.5c4.45,1.78,11.5,6.82,12.62,9.59"/><path d="M15.25,42.75c4.32,1.9,11.17,7.8,12.25,10.75"/><path d="M14.75,88.73c1.71,1.27,3.78,1.32,4.86-0.25c3.14-4.57,9.79-16.66,12.64-22.49"/><path d="M33.71,39.42c0.94,0.34,3.46,1.2,5.97,1.01c14.36-1.07,36.19-3.19,50.96-3.19c2.52,0,4.14,0.16,5.71,0.5"/><path d="M60.85,11.5c1.57,0.72,2.82,3.2,2.82,4.67c0,25.09-0.31,39.02-0.31,49.78"/><path d="M42.75,65.91c0.33,0.92,0.71,1.56,0.82,2.27c0.82,5.12,2.63,18.88,3.78,28.58"/><path d="M43.91,67.82c10.84-1.07,32.16-2.46,38.41-2.62c2.58-0.06,3.98,1.38,3.75,2.86c-0.85,5.61-2.02,16.56-3.41,24"/><path d="M47.34,93.62c7.58-0.41,29.51-1.25,38.61-1.78"/></svg>