<svg><path d="M18.63,13.5c4.45,1.78,11.5,7.32,12.62,10.09"/><path d="M13.25,39.5C17.75,41.53,24.87,47.84,26,51"/><path d="M14.25,87.23c1.71,1.27,3.75,1.31,4.86-0.25C23,81.5,27.5,74.75,31.75,68.5"/><path d="M42,26.59c0.36,1.07,1.49,2.77,1.56,4.1C44.25,44,44,68,44.52,89.5"/><path d="M43.18,28.59c12.58-1.19,35.63-2.19,45.02-3.34c3.45-0.42,5.2,2.99,5.02,6.15c-0.69,11.57-2.97,39.36-5.18,57.54"/><path d="M65.43,28.43c0.57,0.57,0.96,2.29,0.96,4.2c-0.05,12.55-0.28,48.29-0.28,52.84"/><path d="M44.44,56.51c4.12-0.52,43.79-1.67,47.19-1.67"/><path d="M45.18,86.19c9.1,0,30.65-0.92,43.21-1.21"/></svg>