<svg><path d="M21.13,17.75c3.48,1.38,8.99,5.69,9.87,7.84"/><path d="M15.75,41.25c3.71,1.23,9.57,5.08,10.5,7"/><path d="M15.5,88.01c1.5,0.4,3.27-0.45,4.04-1.91c2.91-5.53,5.81-12.29,8.46-19.34"/><path d="M54.14,22.15c0.25,0.87,0.24,2.15-0.1,3.18c-2.29,7.04-6.92,17.92-14.76,25.92"/><path d="M66.5,16.25C71.2,16.69,80.3,35.06,86.96,43.2c2.22,2.72,4.29,4.67,6.51,6.6"/><path d="M45.75,60.85c0.76,0.76,1.1,1.77,1.26,2.7c1.12,6.82,1.92,13.75,2.78,22.19c0.19,1.9,0.38,3.67,0.56,5.21"/><path d="M47.8,62.46c11.95-1.58,25.08-2.58,33.7-3.2c3.53-0.25,5,1.49,4.35,4.12c-1.68,6.75-2.85,13.13-4.54,21.4"/><path d="M51.24,88.13c6.83-0.32,16.38-1.13,26.77-1.77c1.62-0.1,3.44-0.25,4.93-0.36"/></svg>