<svg><path d="M26.75,18.75c4.24,1.38,10.94,5.69,12,7.84"/><path d="M18.25,43.75c4.68,1.23,12.08,5.08,13.25,7"/><path d="M19.38,90.75c1.02,0.15,2.25-0.24,2.87-1.29c3.01-5.1,6.02-11.33,8.75-17.83"/><path d="M65.09,18c0.66,1.5,0.21,3.46-0.81,5.13c-6.79,11.12-11.6,18.14-18.08,27.1c-2.56,3.53-2.41,4.05,1.11,3.26c8.94-1.99,26.87-6.81,39.1-9.85"/><path d="M79.75,34.62c4.39,3.22,11.35,13.24,12.45,18.25"/><path d="M48.29,65.51c0.72,0.72,1.32,2,1.46,3.1c0.75,5.8,1.86,14.44,2.92,22.14c0.18,1.29,0.35,2.54,0.52,3.76"/><path d="M50.33,67.38c12.17-1.9,22.94-3.24,31.93-4.14c3.38-0.33,5.56,1.28,4.73,4.79c-1.61,6.73-2.3,12.19-3.88,20.63"/><path d="M54.86,92.17c8.6-0.63,15.41-1.48,26.76-2.18c1.25-0.08,2.55-0.15,3.92-0.23"/></svg>