<svg><path d="M19.51,18.88c4.67,1.54,12.07,6.32,13.24,8.72"/><path d="M14.5,45.62c4.68,1.43,12.08,5.9,13.25,8.12"/><path d="M17.31,88.14c1.35,0.54,2.73,0.33,3.54-0.82C23.82,83.09,29.3,72.91,32,67.5"/><path d="M44.16,21.07c0.82,0.82,1.27,1.83,1.45,2.93c0.66,4.11,1.89,11.96,3.02,18.98c0.25,1.54,0.47,3.05,0.66,4.49"/><path d="M46.5,22.28c10-1.41,27.35-3.46,33.58-4.53c2.13-0.37,4.09,1.88,3.68,4.16c-1.03,5.76-2.46,13.09-3.86,20.54"/><path d="M50.52,45.86c5.44-0.4,17.55-1.48,26.73-2.36c1.73-0.17,3.34-0.32,4.76-0.44"/><path d="M56.71,51.53c0.07,0.95,0.17,2.46-0.14,3.83C54.38,65,48.38,81.12,32.11,92"/><path d="M68.19,47.47c0.92,0.92,1.21,2.09,1.24,4.42c0.09,6.41-0.29,20.12-0.29,28.07c0,9.41,1.61,11.26,14.62,11.26c10.87,0,12.49-1.35,12.49-11.55"/></svg>