<svg><path d="M22,16.88c4.5,1.45,11.62,5.96,12.75,8.22"/><path d="M16.25,37.25c4.5,1.41,11.62,5.8,12.75,8"/><path d="M13.88,86.52c1.67,0.8,2.95,0.19,3.95-1.12c3.37-4.37,6.73-9.7,9.8-15.27"/><path d="M54.36,24.5c2.89,6.5,6.64,9.75,7.58,3.97"/><path d="M77.65,22.93C78,24,78.3,24.76,77.91,27.19c-2.79,17.31-14.66,55.06-41.7,68.53"/><path d="M51.37,38.97C56.25,69.5,62.62,84.12,83.5,90.25c10.25,3.01,11.25,0.75,4.46-8.63"/><path d="M45.76,57.32c0.33,2.47-3.33,13.36-5.99,17.48"/><path d="M85.56,48.92c3.49,3.06,7.63,9.33,8.94,15.3"/></svg>