<svg><path d="M21.13,16.5c4.28,1.87,11.05,7.68,12.12,10.59"/><path d="M16.25,41c4.5,1.94,11.62,7.98,12.75,11"/><path d="M15.25,87.79c1.84,1.2,4.05,1.25,5.2-0.23c3.37-4.3,6.73-9.57,9.8-15.06"/><path d="M81.58,12.5c-0.08,1.5-1.12,2.1-1.68,2.5c-7.6,5.49-15.32,8.16-31.36,12.88"/><path d="M46,26.29c1.48,2.07,1.45,4.04,1.45,6.29c0,25.92-1.2,45.67-14.19,60.2"/><path d="M48.28,42.5c2.34,0,3.9-0.11,5.36-0.25c8.07-0.8,25.53-2.61,34.71-3.01c1.47-0.06,4.03-0.13,4.95,0"/><path d="M69.5,43.6c1,0.61,1.61,2.77,1.81,3.99s0,43.97-0.2,51.65"/><path d="M58.41,56.48c10.7,3.65,27.65,15.03,30.33,20.72"/></svg>