<svg><path d="M21.62,18.38c4.28,1.45,10,5.12,12.12,8.22"/><path d="M16.12,41.5c4.28,1.28,9.5,4.25,12.12,7.25"/><path d="M14.62,92.12c1.1,0.26,2.42-0.08,3.07-1.16c2.92-4.77,6.64-12.13,9.3-18.22"/><path d="M45.25,33.73c1.39,0.38,3.95,0.72,5.34,0.63c9.28-0.6,24.28-1.98,33.87-2.81c2.31-0.2,4-0.07,5.16,0.12"/><path d="M64.17,15.25c0.91,0.91,1.52,2.12,1.52,3.85c0,8.86,0.14,30.73,0.14,33.74"/><path d="M38.13,55.92c1.82,0.54,5.18,0.49,7,0.29c14.38-1.58,34.32-3.71,46.12-3.9c3.04-0.05,4.87,0.25,6.39,0.52"/><path d="M63.1,58.57c0.4,1.21,0.05,2.88-0.35,3.63c-5.5,10.3-9.5,15.3-17,25.79c-2.16,3.03-1.84,4.42,2.6,3.31c12.15-3.05,19.65-4.49,36.9-8.12"/><path d="M79.02,73.32c4.43,3.6,11.44,14.8,12.54,20.4"/></svg>