<svg><path d="M17.63,17.5c4.45,1.78,11.5,7.32,12.62,10.09"/><path d="M14,40.75c4.59,1.9,11.85,7.8,13,10.75"/><path d="M13.25,86.64c2.02,1.4,4.45,1.46,5.72-0.27c3.7-5.04,7.41-11.19,10.78-17.62"/><path d="M39,21.36c0.48,1.3,1.39,3.64,1.48,5.35c0.66,12.39,0.95,42.08,1.88,65.54"/><path d="M40.26,23.92c12.49-1.17,40.72-3.28,49.14-3.68c3.48-0.16,4.69,3.68,4.33,7.49c-1.23,13.4-3.56,40.54-5.35,62.27"/><path d="M56.17,23.65c0.33,0.85,0.91,1.87,0.9,3.53C57,41.5,57.25,57.75,47.43,69.19"/><path d="M70.66,24.71c0.58,1.46,1.03,3.19,1.07,5.45c0.12,7.95-0.06,20.59-0.06,31.56c0,4.03,1.09,5.27,7.34,5.27c4.25,0,4.5-0.24,6.38-1.81"/><path d="M42.27,88.93c9.12,0,33.64-1.51,46.23-1.89"/></svg>