<svg><path d="M21.13,19.5c3.31,1.47,7.24,3.62,9.62,7.09"/><path d="M14.38,40.88c3.66,1.29,9.46,5.87,10.38,7.88"/><path d="M14.07,89.41c1.68,0.22,2.95-0.21,3.68-1.45c2.75-4.7,6.5-12.45,9-18.45"/><path d="M40.69,34.49c1.1,1.1,1.59,2.39,1.59,4.33c0,29.68-3.28,42.68-13.91,51.8"/><path d="M42.37,35.97c13.92-2.92,32.76-5.6,41.06-5.78c9.82-0.21,6.32,4.81,0.41,9.81"/><path d="M61.41,12.25c1.24,1.23,1.99,2.88,1.99,4.44c0,1.07-0.07,25.59-0.07,36.42"/><path d="M50.36,55c1.15,0.39,2.61,0.66,4.96,0.36c5.68-0.73,17.95-3.93,19.58-4.33c4.1-1.02,4.81,1.21,3.65,4.54c-5.8,16.68-19.05,31.68-37.3,37.93"/><path d="M48.75,61.62c3.45,0.8,22.03,18.19,34.97,28.04c2.38,1.81,5.11,3.75,8.06,4.52"/></svg>