<svg><path d="M18.13,17c4.45,1.78,11.5,7.32,12.62,10.09"/><path d="M14.5,43.25c4.24,1.63,10.94,6.71,12,9.25"/><path d="M13.75,88.76c1.84,1.23,4.05,1.29,5.2-0.24c3.37-4.44,10.23-15.36,13.3-21.02"/><path d="M39.25,17.5c1.17,0.34,2.71,1.32,5.24,1.07c13.76-1.32,32.01-3.07,38.48-3.55c1.61-0.12,3.12,1.77,2.83,3.06c-1.09,4.73-3.04,12.43-3.47,16.66"/><path d="M44.2,38.56c9.3-0.56,30.13-2.67,36.95-3.47c1.07-0.12,3.21,0.17,3.75,0.34"/><path d="M44.25,19.35c0,2.15-0.12,3.23-0.12,5.31c0,2.08-0.17,60.66-0.17,63.89c0,3.23,0.72,4.11,3.4,2.35C52.5,87.5,62.75,80.5,65.93,78.54"/><path d="M44.13,56.32c9.75-0.42,33.46-3.42,46.68-4.44c1.3-0.1,2.06,0.14,2.7,0.28"/><path d="M64.98,39.81c0.35,0.69,1.06,2.56,1.17,3.88C68,66,77,85.75,94.06,94.51c6.15,3.16,3.86-6.41,3.86-8.91"/></svg>