<svg><path d="M21.38,14.5c4.45,1.47,11.5,6.05,12.62,8.34"/><path d="M13.38,39.88c4.02,1.65,10.37,6.8,11.38,9.38"/><path d="M17.25,86.25c1.25,0.49,2.52,0.22,3.27-0.99c2.91-4.72,5.83-10.49,8.48-16.5"/><path d="M46.28,19.56c1.34,0.7,3.95,1.08,5.38,0.94c6.57-0.67,25.71-2.43,33.09-3.11c3.71-0.34,5.2,1.14,4.25,5.36c-0.87,3.87-1.29,5.55-2.33,12.19"/><path d="M50.65,38.68c3.29-0.2,22.63-1.53,33.6-2.2c1.91-0.12,3.57-0.22,4.84-0.31"/><path d="M49.15,20.93c1.21,1.21,1.32,3.03,1.24,4.32c-1.4,23.25-3.15,46-16.9,64.5"/><path d="M88.71,52.48c0,1.15-0.64,1.91-1.2,2.4c-3.57,3.07-11.95,9.24-20.63,11.75"/><path d="M62.4,47.11c1.12,1.12,1.42,2.52,1.42,4.48c0,1.45-0.07,26.67-0.07,31.16c0,9.67,2.17,11.15,16.25,11.15c13.33,0,14.5-1.74,14.5-11.05"/></svg>