<svg><path d="M21.88,17.88c4.28,1.45,11.05,5.96,12.12,8.22"/><path d="M15.25,43.25c4.32,1.23,11.17,5.08,12.25,7"/><path d="M16.75,87.21c1.5,1.31,3.31,1.36,4.25-0.25c2.75-4.7,5.5-10.45,8-16.45"/><path d="M62.5,17c1,0.75,1.75,2,1.75,3.75s0,12.25,0,17"/><path d="M41.25,40.95c2.11,0.59,4.38,0.32,6.52,0.1c7.96-0.81,24.5-3.43,34.23-4.13c2.44-0.18,4.83-0.25,7.25,0.16"/><path d="M49.25,49.75c3.71,9.23,5.86,20.47,6.79,28.32"/><path d="M78.38,43c0.8,1.31,0.79,3.03,0.55,4.09c-2.34,10.34-6.83,29.12-8.43,34.79"/><path d="M37.5,85.8c2.86,0.77,6.2,0.47,9.12,0.17c13.36-1.36,27.41-2.62,42.63-3.37c2.88-0.14,5.64,0.01,8.5,0.47"/></svg>