<svg><path d="M18.13,18c4.1,1.52,10.59,6.23,11.62,8.59"/><path d="M13.75,42c3.97,1.68,10.26,6.89,11.25,9.5"/><path d="M13.25,88.75c1.78,1.25,3.91,1.3,5.03-0.24c3.26-4.5,8.51-14.01,11.47-19.76"/><path d="M41.71,31.22c0.93,1.09,1.39,1.97,1.62,3.28c0.23,1.31,1.39,17.49,1.39,21.06"/><path d="M43.36,33.27c3.15-0.44,33.95-2.09,38.21-2.75c4.27-0.66,5.01,0.88,4.64,2.87c-0.37,1.99-2.28,17.94-2.65,20.36"/><path d="M32.27,56.2c1.01,0.39,3.59,0.58,4.71,0.54C49.46,56.25,80,54.5,91.59,54.38c1.4-0.01,3.39-0.35,6.52,0.31"/><path d="M61.94,14c1.03,0.77,1.23,2.41,1.29,4.82C64.5,69.75,57.25,83,32.67,96"/><path d="M62.85,55.69C69.25,69,82.5,83.75,91.29,91.1c2.59,2.16,3.27,2.7,4.37,2.92"/></svg>