<svg><path d="M22.63,15.75c3.4,1.38,8.77,5.69,9.62,7.84"/><path d="M14.25,37.75c3.62,1.19,9.34,4.9,10.25,6.75"/><path d="M12.25,89.21c1.5,1.31,3.31,1.36,4.25-0.25c2.75-4.7,5.5-10.45,8-16.45"/><path d="M54.56,13.75c0.05,0.72,0.11,1.86-0.1,2.9c-1.24,6.12-8.36,19.54-18.11,27.76"/><path d="M55.53,22.21c0.39,0.04,2.04,0,3.15-0.12c3.64-0.38,10.81-2.77,16.01-3.94c3.57-0.8,4.56,0.91,3.67,3.09C72.75,35,58.75,56.5,34.09,68.46"/><path d="M48.95,30.13c6,5.56,33.17,26.69,41.26,31.77c2.41,1.52,4.36,2.25,6.71,2.7"/><path d="M45.96,70.68c0.41,0.44,0.82,0.81,1,1.35c1.41,4.35,3.1,15.85,4.07,23.67"/><path d="M47.5,72.65c10.25-1.65,27.53-3.3,32.3-3.87c1.74-0.21,2.79,1.24,2.54,2.47c-1.03,5.08-3.24,12.21-4.78,19.24"/><path d="M51.23,92.87c5.61-0.65,17.52-1.37,28.58-1.76"/></svg>