<svg><path d="M21.88,21.25c3.75,1.25,9.68,5.15,10.62,7.09"/><path d="M15,43.5c3.97,1.46,8.84,5.06,11.25,8.25"/><path d="M14.25,88.5c1.45,0.68,2.98,0.48,3.85-0.83c3.1-4.66,6.21-10.35,9.03-16.3"/><path d="M48.77,27.75c0.09,1.01,0.12,2.17-0.19,3.15c-2.2,6.85-5.08,13.98-9.58,20.35"/><path d="M49.63,38.29c1.37,0.21,2.5,0.21,4.14,0.03c6.47-0.72,15.86-2.57,23.32-3.94c1.13-0.21,3.84,0.13,4.41,0.27"/><path d="M61.81,15.38c1.15,1.15,1.51,2.62,1.51,4c0,0.91-0.07,28.74-0.07,35.12"/><path d="M37.38,57.01c2.61,0.94,6.03,0.64,8.74,0.37C57.25,56.25,73.25,54.5,84,53.64c2.66-0.21,5.26-0.16,7.88,0.4"/><path d="M54.18,59.93c0.07,0.86,0.21,2.25-0.14,3.47C51,74.25,43.38,87.88,31.14,97.15"/><path d="M67.49,58.12c1.07,1.07,1.43,2.63,1.43,4.15c0,5.26-0.04,13.88-0.04,19.98c0,11,1,12.03,12.88,12.03c11.5,0,12.14-1.53,12.14-9.33"/></svg>