<svg><path d="M18.88,21c4.63,1.38,11.71,5.44,12.87,7.59"/><path d="M14.75,44c5.12,1.41,12.97,5.3,14.25,7.5"/><path d="M17.25,91.21c2.12,0.29,3.31-0.39,4.25-2c2.75-4.7,5-9.7,7.5-15.7"/><path d="M40.48,31.61c0.75,0.94,1.14,1.99,1.17,3.15c0.81,5.48,1.59,11.21,2.44,17.49c0.32,2.32,0.64,4.72,0.99,7.21"/><path d="M42.46,32.78c11.8-1.79,29.27-4.22,38.17-4.88c2.34-0.61,4.62,0.85,4.33,3.8c-0.37,3.73-1.15,9.39-2.33,15.9c-0.43,2.39-0.92,4.9-1.44,7.47"/><path d="M44.15,44.55c3.59-0.49,35.77-4.65,38.73-4.85"/><path d="M45.91,56.8c12.59-1.55,23.76-3.5,34.7-4.39"/><path d="M56.01,11c1.12,1.25,1.87,2.32,2.2,6.22C61.5,55.5,71.25,80.25,90.33,94.44c5.95,4.42,5.4,0.78,4.6-7.26"/><path d="M83.74,62.37c-0.31,1.63-0.95,3.08-1.93,4.33c-4.79,6.33-19.73,17.67-39.45,24.55"/></svg>