<svg><path d="M18.63,16c4.45,1.78,11.5,7.32,12.62,10.09"/><path d="M13,42.75c4.41,1.98,11.4,8.16,12.5,11.25"/><path d="M13.25,88.73c1.71,1.27,3.78,1.32,4.86-0.25c3.14-4.57,9.29-16.66,12.14-22.49"/><path d="M61.95,15.08c0.03,0.47,0.15,1.25-0.07,1.88c-1.53,4.44-5.9,12.59-11.96,17.94"/><path d="M39.93,35.95c0.66,0.58,1.09,1.9,1.19,2.65c0.8,5.93,1.14,41.04,1.69,51.68"/><path d="M40.94,38.04c8.81-1.04,36.77-3.5,44.18-4.25c2.71-0.28,4.23,1.61,3.95,3.25c-1.32,7.7-3.57,34.7-5.1,50.86"/><path d="M54.71,37.9c0.23,0.53,1.03,1.47,1.06,2.14c0.48,10.62,0.99,39.45,1,49.27"/><path d="M69.86,36.88c0.02,0.46,1.03,2.09,1.03,2.87c0.02,8.8-0.99,38.69-1.17,49.17"/><path d="M29.38,90.31c1.6,0.56,4.55,0.65,6.15,0.56c16.7-0.93,27.99-2.17,58.73-2.32c2.67-0.01,4.28,0.27,5.62,0.54"/></svg>