<svg><path d="M17.63,17.75C21.88,20,26.5,23,29,26.09"/><path d="M13.25,41.5c4.24,1.37,10.94,5.62,12,7.75"/><path d="M13.83,92.25c1.35,0.5,2.72,0.23,3.53-1.01c3.14-4.79,6.29-10.64,9.14-16.75"/><path d="M65.82,13c0.15,1.12-0.18,2.14-0.95,2.96c-5.12,5.41-10.37,9.66-19.12,14.33"/><path d="M41.75,30.28c0.98,0.98,1.39,2.47,1.39,4.11c0,21.09,1.35,50.11-13.34,62.86"/><path d="M75.34,27.5c0.13,1.15-0.31,1.82-1.13,2.7c-3.72,4.02-6.93,6.37-13.46,10.84"/><path d="M57.02,40.33c0.98,0.92,1.51,2.54,1.51,4.52c0,9.81,0.04,31.42,0.05,44.52c0,2.13,0,4.03,0,5.62"/><path d="M85.59,38.75c0.03,0.75-0.22,1.38-0.83,2.08c-3.92,4.5-6.14,6.42-14.26,11.21"/><path d="M65.5,47.25C71.84,58.96,78,70.88,86.29,82.22c2.01,2.75,4.95,5.58,7.21,7.28"/></svg>