<svg><path d="M18.63,19.12c3.75,1.49,9.68,6.14,10.62,8.47"/><path d="M13.25,40.88c3.71,1.52,9.57,6.26,10.5,8.62"/><path d="M12.5,85.48c1.75,0.77,3.28,0.07,4.36-1.5c3.14-4.57,5.79-9.91,8.64-15.74"/><path d="M37.35,43.5c-0.35,5.12-1.72,10.25-3.79,14.13"/><path d="M45.59,21.93c0.64,1.02,1.01,2.44,1.03,4.4c0.26,37.42-2.69,48.07-13.31,59.41"/><path d="M54.02,42.92c1.81,1.91,4.67,7.84,5.13,10.8"/><path d="M65.75,19.13c1.12,1.12,1.16,2.37,1.16,3.65c0,0.55,0.07,32.03,0.02,48.71c-0.02,5.17-0.04,8.95-0.06,10.01"/><path d="M74.51,42.29c2.43,1.88,6.27,7.75,6.88,10.68"/><path d="M88.06,16.13c1.22,1.22,1.26,2.49,1.26,4.25c0,3.24,0,45.1,0,63.87c0,3.66,0,6.43,0,7.88"/></svg>