<svg><path d="M22.38,15.5c4.45,1.78,11.5,7.32,12.62,10.09"/><path d="M15.25,40c4.24,1.63,10.94,6.71,12,9.25"/><path d="M15,88.48c2.25,0.77,3.28-0.18,4.36-1.75c3.14-4.57,6.29-10.16,9.14-15.99"/><path d="M56.79,13c0.09,1.3-0.31,2.94-0.86,4.17c-3.3,7.45-8.95,17.91-18.68,28.96"/><path d="M52.95,29.21c3.3,1.17,5.92,0.74,8.68,0.48c7.12-0.67,20.59-1.71,25.88-2.1c5.36-0.39,6.66,2,6.04,7.23c-0.54,4.51-2.17,31.18-7.53,51.85c-2.54,9.77-6.16,8.84-10.96,2.77"/><path d="M49.49,44.17c0.86,0.86,1.02,1.83,1.02,3.58c0,0.76,0,15.42,0,24.25c0,2.54,0,4.6,0,5.7"/><path d="M50.94,45.95c1.19-0.1,11.21-1.49,15.58-2.31c2.1-0.39,3.61,0.63,3.61,3.62c0,5.22,0,17.46,0,24.62c0,3.12,0,5.27,0,5.47"/><path d="M51.69,60.45c3.93-0.45,14.85-1.38,17.08-1.38"/><path d="M51.6,75.08c5.02-0.46,11.65-1.08,17.42-1.45"/></svg>