<svg><path d="M21.88,17.5c3.31,1.47,8.62,5.38,10.87,8.84"/><path d="M14.75,40.5c3.44,1.5,8,5.25,10,8.5"/><path d="M15.5,88.47c1.5,0.74,2.56,0.52,3.46-0.91c3.19-5.09,6.39-11.32,9.29-17.81"/><path d="M56.44,11.5c0.05,0.62,0.19,1.66-0.11,2.51c-2.06,5.85-8.83,15.74-18.76,24"/><path d="M53.69,21.76c2.2,0,13.78-1.33,18.35-2.09c3.2-0.53,5.45,0.32,3.24,3.69c-3.36,5.11-5.92,8.88-9.42,14.94"/><path d="M43.46,40.93c2.29,0.98,5,1.09,7.44,0.78c12.6-1.59,22.1-2.34,32.97-3.38c3.14-0.3,3.91,1.56,3.41,4.31c-1.11,6.07-1.96,10.43-3.75,21.1"/><path d="M34,54.66c3.25,0.96,6.69,0.41,10,0.1c14.56-1.37,30.85-2.96,44.75-3.52c3.2-0.13,6.33,0,9.5,0.57"/><path d="M43.7,67.09c2.43,0.53,4.88,0.59,7.42,0.23c9.26-1.32,19.39-2.07,29.76-2.46c2.21-0.08,4.29-0.08,6.5,0.08"/><path d="M64.49,42.9c0.99,0.99,1.6,2.6,1.6,4.8c0,11.07,0.02,37.66,0.02,44.2c0,11.84-6.58,1.44-7.95,0.24"/></svg>