<svg><path d="M16.13,17.75c4.45,1.65,11.5,6.78,12.62,9.34"/><path d="M11.75,40.75c4.32,1.9,11.17,7.8,12.25,10.75"/><path d="M12.25,89.23c1.71,1.27,3.78,1.32,4.86-0.25c3.14-4.57,9.29-18.16,12.14-23.99"/><path d="M62.55,12.42c0.85,0.41,2.06,1.47,2.04,2.65c-0.06,3.73-0.06,6.16-0.07,9.55"/><path d="M41.29,24.3c0,3.33-2.81,12.49-4.08,14.71"/><path d="M41.62,26.36c0.98,0.08,42.12-3.19,47.1-3.19c11.03,0,0.95,8.55-0.29,9.38"/><path d="M46.8,41.66c1.05,0.2,2.97,0.27,4.04,0.2c5.66-0.36,15.74-1.41,28.77-2.2c1.74-0.1,2.81,0.1,3.68,0.2"/><path d="M35.58,57.14c1.47,0.28,4.16,0.93,5.63,0.78c9.54-0.92,36.88-3.02,51.14-3.01c2.45,0,4.15,0.09,5.14,0.78"/><path d="M55.66,61.83c0.07,0.82,0.05,2.11-0.13,3.3c-1.35,8.59-9.08,25.54-23.44,31.61"/><path d="M70.29,59.64c0.6,1.16,1.08,2.53,1.11,4.32c0.16,7.99-0.42,15.81-0.42,21.24c0,10.05,1.77,11.25,12.28,11.25c10.99,0,12.21-1.95,12.21-8.9"/></svg>