<svg><path d="M22.12,17.88c3.93,1.45,10.14,5.96,11.12,8.22"/><path d="M16,40.12c4.15,1.26,10.71,5.17,11.75,7.12"/><path d="M12.72,88.81c1.4,0.19,2.25-0.04,3.14-1.32C19,82.92,24.12,73.75,27.75,67.5"/><path d="M73.52,12.04c-0.4,1.21-1.18,1.7-1.9,2.08c-5.12,2.64-10.74,4.76-22.51,7.86"/><path d="M44.02,29.99c2.84,1.73,6.59,6.64,7.3,9.34"/><path d="M59.19,25.76c2.36,1.74,5.36,6.64,5.95,9.34"/><path d="M87.02,21.09c0.12,0.91-0.3,1.76-0.76,2.55c-2.38,3.36-5.86,7.47-12.07,12.69"/><path d="M45.73,46.87c2.47,0.62,5.05,0.6,7.55,0.14c7.32-1.36,19.85-3.88,27.28-5.26c1.78-0.33,2.82,1.48,0.86,2.84c-3.29,2.28-13.13,9.24-17.72,12.07"/><path d="M62.97,56.91c8.66,9.59,10.25,25.98,7.46,33.41c-2.32,6.19-7.26,8.14-12.14,1.69"/><path d="M36.5,69.89c2.5,0.73,5.83,0.61,8.12,0.24c11.75-1.88,32.5-4.3,44.12-5.21c3.01-0.24,6.6-0.08,9.5,0.84"/></svg>