<svg><path d="M17.76,15.5c3.62,1.38,9.34,5.69,10.24,7.84"/><path d="M12,36.75c3.88,1.5,10.03,6.17,11,8.5"/><path d="M10.91,86.92c1.49,0.54,2.99,0.24,3.89-1.08c3.46-5.14,6.93-11.42,10.07-17.97"/><path d="M51.82,17.73c0.1,1.01-0.23,2.29-0.77,3.17c-2.43,3.95-7.17,8.98-14.72,14.18"/><path d="M73.32,18.28c5.81,2.92,12.88,8.5,14.87,11.49"/><path d="M61.87,31.84c0.08,0.74,0.06,1.98-0.4,2.98C57.75,42.75,48.5,54.75,34.73,62.8"/><path d="M62.01,36.55c7.88,7.02,18.19,15.51,25.48,20.46c2.62,1.78,4.36,2.98,7.19,4.39"/><path d="M44.8,67.14c0.78,0.78,1.47,1.84,1.68,2.87c1.19,5.68,1.94,11.33,3.02,17.74c0.18,1.06,0.36,2.13,0.54,3.2"/><path d="M47.03,68.93c10.87-1.86,23.48-3.51,30.85-4.41c3.08-0.38,5.39,0.9,4.44,4.21c-1.59,5.6-2.59,9.42-4.11,16.45"/><path d="M51.18,88.78c9.7-0.9,16.7-1.52,25.44-2.28c1.24-0.11,2.51-0.22,3.83-0.33"/></svg>