<svg><path d="M22.63,16.5c3.66,1.6,9.45,6.6,10.37,9.09"/><path d="M14.75,40.75c3.62,1.54,9.34,6.35,10.25,8.75"/><path d="M14.85,87.42c1.34,0.68,2.75,0.48,3.55-0.83c2.87-4.67,5.74-10.38,8.35-16.34"/><path d="M47.13,16.55c2.11,0.85,4.2,0.59,6.37,0.41c7.3-0.59,25.45-2.42,26.64-2.6c1.46-0.22,3.11,0.64,2.93,2.21c-0.6,5.35-2.08,12.65-2.65,17.21c-0.22,1.77-0.42,3.24-0.57,4.23"/><path d="M46.36,27.29c2.77,0.58,4.9,0.19,7.02,0.01c9.48-0.82,15-1.55,27.34-2.27"/><path d="M46.22,37.7c1.96,0.91,4.47,0.46,6.53,0.27c9.44-0.88,15.82-1.74,26.83-2.75"/><path d="M42.25,48c-0.07,3.2-1.63,11.57-2.19,13.47"/><path d="M43.3,49.76c10.58-1.01,26.45-3.26,42.74-4.35c12.27-0.82,2.06,7.19,0.91,8.25"/><path d="M50.18,61.04c2.14,0.39,3.94,0.28,6.09-0.1c4.65-0.81,14.76-2.61,17.87-3.34c3.61-0.85,5.11,0.77,3.11,3.82C68.03,75.5,54.5,87.12,40.2,93.25"/><path d="M47.78,66.27c6.47,0.23,21.1,14.48,35.6,23.94c3.11,2.03,5.37,2.54,8.91,3.97"/></svg>