<svg><path d="M20.38,14.75c3.31,1.47,8.54,6.05,9.37,8.34"/><path d="M14.75,39.5c3.79,1.15,9.8,4.72,10.75,6.5"/><path d="M13.75,89.21C16,90,17.06,89.57,18,87.95c2.75-4.7,5.5-10.45,8-16.45"/><path d="M53,11c0.12,1.68-0.19,3.03-0.83,4.57C49.7,21.44,43.05,31.26,37.75,37"/><path d="M51.13,24.03c0.94,0.29,3.67,0.41,4.6,0.29c7.65-0.94,18.52-3.07,26.02-4.84c1.51-0.36,3.5-0.36,4.29-0.21"/><path d="M48.96,36.12C50,37,50.5,38.25,49.75,42.25C47.86,52.35,42.98,67.88,40,73c-1.75,3-0.5,4.43,1.5,4.5c14.75,0.5,31.22,2.68,44.24,10c2.04,1.15,3.97,2.39,5.76,3.75"/><path d="M50.78,37.57c6.97-0.07,24.47-2.7,30.7-3.57c2.51-0.35,3.96,0.99,3.79,3.12C84,52.75,77.33,84.33,73.95,92.43c-2.95,7.07-6.12,0.35-7.12-0.77"/><path d="M64.75,39.75c0.88,0.88,1.22,2.74,1,4c-1.5,8.5-5.5,25.75-8.25,33.75"/><path d="M30.63,58.98c1.85,0.45,5.24,0.61,7.09,0.45c16.91-1.43,37.36-3.68,55.69-4.15c3.08-0.08,4.93,0.21,6.47,0.44"/></svg>