<svg><path d="M19.38,17.25c4.72,1.65,12.19,6.78,13.37,9.34"/><path d="M15.5,42.75c4.59,1.46,11.85,5.99,13,8.25"/><path d="M13.75,88.73c1.71,1.27,3.78,1.32,4.86-0.25c3.14-4.57,8.79-12.66,11.64-18.49"/><path d="M44.28,16.78c0.53,0.77,1.41,2.03,1.41,3.06c0.56,5.17,4.24,30.13,4.38,31.16"/><path d="M45.39,18.27c3-0.13,34.85-3.11,37.59-3.26c2.28-0.13,3.77,0.99,3.88,4.5c-0.16,4.19-2.88,22.1-3.99,29.07"/><path d="M47.7,33.17c7.55-0.92,33.39-3.1,37.24-3.1"/><path d="M49.82,47.68c6.68-0.26,26.57-2.41,33.09-2.41"/><path d="M44,69.84c1.44,0.56,4.09,0.67,5.54,0.56c8.97-0.65,26.97-3.15,35.23-2.81c2.41,0.1,3.85,0.27,5.05,0.55"/><path d="M64.92,52.5c0.11,0.25,1.54,1.33,1.54,2.95c0,10.45-0.31,21.14-0.31,34.96"/><path d="M36.67,91.26c1.43,0.51,4.07,0.6,5.5,0.51C55,91,78.25,89.5,94.8,89.39c2.39-0.02,3.83,0.24,5.02,0.5"/></svg>