<svg><path d="M20.13,14.25c3.75,1.56,9.68,6.41,10.62,8.84"/><path d="M15.75,36.25c3.79,1.46,9.8,5.99,10.75,8.25"/><path d="M13.75,88.21c1.5,1.31,3.81,0.36,4.75-1.25c2.75-4.7,5-9.45,7.5-15.45"/><path d="M45.85,16.53c1.19,0.74,2.8,1.42,4.15,1.36c1.54-0.07,24.52-3.44,32.34-4.03C87,13.5,87,16,83.98,18.57c-1.55,1.32-15.3,13.18-17.08,14.66"/><path d="M54.01,26.86c3.67,1.2,13.15,5.83,14.88,8.97"/><path d="M44.1,38.47c0.61,0.76,1.02,2.02,1.22,2.78c0.2,0.76,0.2,51.78,0.2,53.49"/><path d="M46.04,40.96c7.01-0.32,40-4.43,41.85-4.64c3.33-0.38,4.58,2.48,4.16,3.62c-0.4,1.1-0.62,32.78-0.62,48.2c0,11.15-6.51,1.64-7.84,0.98"/><path d="M46.04,56.07c9.29-0.67,38.06-2.94,45.56-3.51"/><path d="M46.24,70.64c6.66-0.57,37.23-2.51,44.93-2.89"/><path d="M65.69,41.43c0.8,0.37,1.29,1.65,1.45,2.39c0.16,0.73,0,44.52-0.16,49.11"/></svg>