<svg><path d="M23.38,16.25c3.31,1.47,8.74,5.38,10.37,7.84"/><path d="M17.12,38.75c4.02,1.15,10.37,6.72,11.38,8.5"/><path d="M17.16,91.2c1.46,0.18,2.63-0.53,3.34-1.74C23.25,84.75,27.5,76,30,70"/><path d="M65.99,11.5c1.13,1.13,1.67,2.62,1.67,4.34c0,8.16,0.09,21.01,0.09,24.91"/><path d="M43.56,22.58c3.11,1.96,7.29,6.94,8.07,9.99"/><path d="M90.21,15.85c0.04,0.78-0.04,1.84-0.31,2.37c-2.15,4.16-4.65,7.78-8.76,11.55"/><path d="M51.61,41.44c1.1,1.1,1.49,2.43,1.49,3.78c0,0.78,0.2,31.1,0.21,45.02c0,2.98,0,5.16,0,6.08"/><path d="M54.34,42.87c4.78-0.75,24.39-3.65,26.24-3.94c2.8-0.43,4.65,1.07,4.65,3.65c0,9.99,0.13,29.15,0.13,47.92c0,11.25-5.59,2.58-7.46,0.96"/><path d="M54.34,55.94c9.66-1.19,22.13-2.08,29.6-2.78"/><path d="M54.47,70.36c6.63-0.7,21.72-2.32,29.39-2.78"/></svg>