<svg><path d="M18.38,19.5c4.19,1.6,10.82,6.6,11.87,9.09"/><path d="M12.75,46c3.79,1.68,9.8,6.89,10.75,9.5"/><path d="M15.25,90.21c1.5,1.31,3.31,1.36,4.25-0.25c2.75-4.7,5.5-10.45,8-16.45"/><path d="M44.93,26.71c0.93,0.35,2.65,0.41,3.58,0.35c9.72-0.59,30-2.61,38.62-2.96c1.56-0.06,2.49,0.17,3.27,0.34"/><path d="M64.45,13c1.15,0.46,1.85,2.06,2.08,2.97c0.23,0.91,0.5,15.53,0.27,21.24"/><path d="M50.13,38.58c0.74,0.24,2.11,0.26,2.85,0.24c9.84-0.29,18.26-1.89,27.55-2.54c1.24-0.09,1.99,0.11,2.61,0.23"/><path d="M42.77,47.98c-0.11,3.97-1.83,12.11-2.8,14.47"/><path d="M42.72,49.94C56.4,49,74.47,45.95,89.09,45.68c9.66-0.18,0.72,7.64-0.52,8.85"/><path d="M58.39,59.5c0.05,0.91,0.05,2.35-0.1,3.67C56.97,74.88,51,89.19,40.36,97.18"/><path d="M71.81,56.76c0.67,1.14,1.19,2.48,1.23,4.23c0.18,7.82-2.35,29.62,1.42,33.1c3.41,3.14,6.45,2.78,10.14,2.68c4.47-0.12,8.64-0.67,9.76-1.54c2.47-1.91,1.79-2.87,2.02-6.21"/></svg>