<svg><path d="M19.63,16c4.45,1.78,11.5,7.32,12.62,10.09"/><path d="M15,43.5c4.41,1.76,11.4,7.26,12.5,10"/><path d="M16.25,89.76c1.84,1.23,4.05,1.29,5.2-0.24c3.37-4.44,11.73-19.86,14.8-25.52"/><path d="M50.46,14.73c0.41,0.31,0.83,0.57,1,0.95c1.41,3.06,2.11,13.52,3.08,19.02"/><path d="M53,16.29C63,15,80.35,14.31,85.5,13.88c1.88-0.16,3.02,1.6,2.75,2.53c-1.12,3.86-2.39,8.19-4.78,13.75"/><path d="M54.95,32.69C61,32.2,77.56,31,87.15,30.64"/><path d="M49.93,42.03c0.7,0.81,1.17,1.62,1.4,2.43c0.23,0.81,0.33,50.86,0.23,52.68"/><path d="M51.22,43.84c2.79-0.2,31.99-1.85,34.08-1.85c2.2,0,4.16,1.26,4.16,3.85c0,1.25-0.12,25.86-0.12,42.26c0,10.52-5.59,3.64-7.92,1.82"/><path d="M51.72,57.92c11.32-1.17,27.78-1.67,37.18-2.14"/><path d="M51.69,72.41c7.45-0.61,28.71-1.43,37.32-1.83"/></svg>