<svg><path d="M22.13,17.25c4.45,1.47,11.5,6.05,12.62,8.34"/><path d="M14.75,43.25c3.79,1.54,9.8,6.35,10.75,8.75"/><path d="M17.25,89.21c1.5,1.31,3.31,1.36,4.25-0.25c2.75-4.7,5.5-10.45,8-16.45"/><path d="M45.56,24.4c0.89,0.37,2.53,0.45,3.42,0.37c6.21-0.52,25.4-4.26,33.88-4.26c1.49,0,2.38,0.18,3.12,0.36"/><path d="M47.59,35.39c0.82,0.38,2.33,0.45,3.15,0.38c6.04-0.52,22.32-3.52,28.19-3.88c1.37-0.08,2.19,0.18,2.88,0.37"/><path d="M42.4,47.76c1.05,0.43,2.97,0.57,4.02,0.43c8.46-1.19,29.49-3.44,41.8-4.12c1.74-0.1,2.79,0.2,3.67,0.42"/><path d="M64.14,11c0.61,1.5,0.84,2.91,0.72,5.06c-1.61,27.44-4.61,56.69-24.9,73.48"/><path d="M42.63,64.81c1.34,0.67,3.79,0.84,5.15,0.67c14.87-1.86,26.52-3.43,42.91-4.45c2.23-0.14,3.58,0.32,4.7,0.65"/><path d="M77.45,51.83c0.07,0.45,1.1,2.33,1.1,5.17c0,19.11,0.21,29.19,0.21,33.84c0,11.27-6.14,2.14-8.06,0.7"/><path d="M58.06,71.62c2.8,1.59,7.24,6.53,7.94,9"/></svg>