<svg><path d="M19.38,17c3.75,1.65,8.49,6.25,10.37,9.34"/><path d="M13.75,39c3.71,1.5,9.32,6.67,10.25,9"/><path d="M12.25,87.98c1.75,0.64,3.28,0.32,4.36-1.25c3.14-4.57,6.29-10.16,9.14-15.99"/><path d="M64.65,11.92c1.09,1.09,1.37,2.21,1.37,4.06c0,2.02-0.02,4.6-0.02,7.77"/><path d="M38.25,27c3.62,0.75,6.96,0.36,10.63-0.09c11.5-1.41,27.42-2.81,38-3.56c2.92-0.21,6.34-0.83,9.13,0.3"/><path d="M47.11,40.32c0.78,0.78,1.27,1.55,1.54,3.15c0.52,3.11,1.25,7.45,1.92,12.05c0.22,1.48,0.45,2.98,0.71,4.47"/><path d="M48.97,41.36c9.91-1.11,26.78-3.25,32.55-3.86c2.39-0.25,3.86,1.27,3.14,4.25c-0.9,3.75-1.4,6.12-2.85,12.25"/><path d="M51.92,57.53c8.32-0.68,18.65-1.71,28.09-2.3c1.43-0.09,2.84-0.17,4.22-0.23"/><path d="M66.17,59.08c1.06,1.06,1.38,2.54,1.38,4.78c0,5.14,0.02,23.73,0.02,28.15c0,9.47-6.47,0.52-7.82-0.79"/><path d="M48.7,70c0.11,1.02-0.02,2-0.4,2.93c-2.55,4.57-5.91,9.37-13.41,16.32"/><path d="M82.76,68.5c5.47,3.65,13.02,13.82,14.39,19.5"/></svg>