<svg><path d="M19.88,18.25c3.31,1.47,8.54,5.05,9.37,7.34"/><path d="M15.75,41c3.79,1.15,9.8,4.72,10.75,6.5"/><path d="M12.29,88.08c1.25,0.48,2.51,0.22,3.26-0.97C18.45,82.5,21.36,76.87,24,71"/><path d="M63.18,14.94c0.82,0.82,1.5,2.31,1.5,3.93c0,3.93-0.1,4.71-0.1,8.08"/><path d="M35.83,31.12c3.34,0.27,6.07,0.39,9.43-0.04c10.17-1.31,28-3.8,39.48-4.48c2.68-0.16,5.66-0.58,8.21,0.48"/><path d="M49.48,37.32c0.39,1.3,0.2,3.07-0.4,4.4c-3.8,8.45-9.12,17.88-17.83,28.16"/><path d="M42.63,56.59c0.83,0.83,1.19,1.96,1.19,2.89c0,5.02,0.07,19.77,0.1,29.64c0,1.96,0.01,3.73,0.01,5.19"/><path d="M68.13,34.46c0.24,1.04,0.06,1.82-0.14,2.73C66.81,42.56,61.75,52,53.42,60.85"/><path d="M69.48,42.65c0.89,0.1,1.46-0.04,2.27-0.15c2.96-0.41,5.73-1.31,8.92-2.58c2.53-1,3.71,0.08,2.67,3c-5.78,16.24-15.46,32.33-31.63,43.97"/><path d="M65.34,51.55c3.11,1.25,6.79,4.2,8.3,6.59"/><path d="M56.38,64.12C60,64,82.52,86.12,89.02,89.89c1.85,1.07,3.24,1.88,4.98,2.25"/></svg>