<svg><path d="M16.88,17.5c4.37,1.6,11.27,6.6,12.37,9.09"/><path d="M13.25,42c4.5,1.5,11.62,6.17,12.75,8.5"/><path d="M11.75,88.73c1.71,1.27,3.78,1.32,4.86-0.25c3.14-4.57,8.79-14.16,11.64-19.99"/><path d="M37.66,19.32c1.35,0.64,3.83,0.8,5.19,0.64c10.41-1.21,39.5-4.48,48.2-4.26c2.25,0.06,3.61,0.3,4.73,0.62"/><path d="M60.78,20.55c0.81,0.8,0.68,2.97,0.16,4.23c-0.6,1.45-4.43,11.98-4.78,12.73c-0.82,1.74-0.03,2.44,2.15,1.9c3.69-0.91,4.94-1.16,9.02-2.17c2.33-0.57,2.86,1.46,2.94,2.95c0.52,9.56-0.02,27.81-3.33,39.78c-1.77,6.39-5.19,2.27-7.08,0.82"/><path d="M48.58,47.75c2.52,1.68,6.51,6.89,7.14,9.5"/><path d="M45.51,73.26c1.52,1.5,3.29,1.64,4.81,0.36c0.9-0.76,7.61-6.98,11.41-10.62"/><path d="M84,43.64c0.02,0.25,0.05,0.66-0.04,1.02c-0.52,2.16-3.51,6.9-7.6,9.8"/><path d="M73.21,61.25c4.43,2.73,11.43,11.25,12.54,15.5"/><path d="M39.03,40.13c0.6,0.45,1.24,3.34,1.2,4.25C39.97,50.25,40,74.5,39.54,90.5c-0.45,2.75,0.54,2.75,2.51,2.52c10.91-1.26,44.89-2.32,51.14-2.77"/><path d="M92.23,34.38c0.6,0.45,1.63,3.34,1.6,4.25c-0.26,6.37,0.15,42.62-0.39,56.75"/></svg>