<svg><path d="M17.13,16.75c4.1,1.47,10.59,6.05,11.62,8.34"/><path d="M11.5,41.5c4.24,1.68,10.94,6.89,12,9.5"/><path d="M10.75,88.23c1.71,1.27,3.78,1.32,4.86-0.25c3.14-4.57,9.29-15.66,12.14-21.49"/><path d="M34.25,36.72c0.28,0.24,1.96,0.41,2.72,0.31c3.24-0.41,15.18-1.21,20.39-2.41c0.75-0.17,1.77-0.24,2.24,0"/><path d="M47.52,12.5c0.75,0.47,2.09,2.25,2.09,4.42c0,5.83-0.1,73.25-0.25,79.08"/><path d="M49.23,38.28c-4.6,14.78-8.41,23.08-17.62,35.06"/><path d="M51.81,46.15c2.25,1.51,5.94,6.42,7.83,9.35"/><path d="M90.79,14.5c0.06,0.3,0.23,0.89-0.11,1.21C85.96,20.13,79.94,23.48,70,27.29"/><path d="M65.98,26.44c1.09,1.85,1.07,3.62,1.07,5.64c0,18.76,1.2,36.93-9.42,55.4"/><path d="M70.28,44.69c0.36,0.2,2.16-0.33,3.15-0.39C79,44,88.5,42.5,95.63,41.71c0.97-0.11,2.64-0.19,3.24,0"/><path d="M85.44,45.82c0.78,0.62,1.25,2.78,1.4,4.02c0.15,1.24,0,40.69-0.16,48.41"/></svg>