<svg><path d="M16.63,15.25c4.98,1.65,12.87,6.78,14.12,9.34"/><path d="M13.25,41.25c4.5,1.63,11.62,6.71,12.75,9.25"/><path d="M12.75,88.23c1.71,1.27,3.78,1.32,4.86-0.25c3.14-4.57,6.29-10.16,9.14-15.99"/><path d="M80.51,10.9c-0.26,1.6-0.24,2.44-1.18,3.13C70.5,20.5,60.75,24.5,42.05,29.92"/><path d="M48.79,13.77C63.72,17.4,77.36,25.46,84.44,32.1"/><path d="M64.68,29.93c0.08,0.87,0.27,2.28-0.17,3.5C61,43.32,53.08,55.96,35.39,66.95"/><path d="M31.25,42.58c1.5,0.58,4.25,0.72,5.75,0.58c8.82-0.79,40.26-3.12,56.25-3.1c2.5,0,4,0.28,5.25,0.57"/><path d="M53.48,52.9c0.59,0.65,0.99,1.29,1.19,1.94c0.2,0.65,0.28,42.18,0.2,43.63"/><path d="M55.87,54.39c2.38-0.16,21.22-3.31,22.99-3.49c3.17-0.32,4.36,2.1,3.97,3.07c-0.38,0.93-0.59,25.55-0.59,38.64c0,9.23-5.95,0.76-6.75-0.05"/><path d="M55.87,65.99c8.13-0.97,18.43-2,25.57-2.49"/><path d="M56.46,77.08c6.35-0.48,17.24-1.94,24.58-2.26"/></svg>