<svg><path d="M18.63,16.5c4.1,1.69,10.59,6.96,11.62,9.59"/><path d="M14.25,42.5c4.32,1.68,11.17,6.89,12.25,9.5"/><path d="M14.25,90.21c1.65,1.31,3.64,1.36,4.68-0.25c3.03-4.7,8.06-15.45,10.82-21.45"/><path d="M40.82,29.54c2.18,0.21,3,0.33,4.45,0.19c13.18-1.31,27.37-2.59,43.57-3.7c2.39-0.16,3.83,0.31,5.02,0.64"/><path d="M53.22,14.07c0.92,0.52,1.47,2.32,1.66,3.35c0.18,1.03,0,47.1-0.19,53.54"/><path d="M76.61,11.5c0.92,0.52,1.48,2.32,1.66,3.35c0.18,1.03,0,49.11-0.19,55.55"/><path d="M55.24,43.26c3.39-0.26,19.36-1.07,22.54-1.33"/><path d="M56.52,57.6c3.82-0.26,16.59-1.32,21.04-1.83"/><path d="M37.56,71.43c1.69,0.07,3.6,0.61,5.07,0.51c8.34-0.59,35.28-1.56,50.55-1.79c2.42-0.04,3.88,0.32,5.09,0.66"/><path d="M56.45,79.1c0.05,0.44,0.11,1.13-0.1,1.76C55.09,84.59,47.87,92.75,38,97.75"/><path d="M74.24,79.78c5.8,2.77,14.99,11.38,16.44,15.68"/></svg>