<svg><path d="M18.13,15c4.1,1.87,10.59,7.68,11.62,10.59"/><path d="M12.75,40c4.68,2.03,12.08,8.34,13.25,11.5"/><path d="M12.25,87.73c1.71,1.27,3.78,1.32,4.86-0.25c3.14-4.57,6.29-10.16,9.14-15.99"/><path d="M42.29,25.16c1.07,0.25,3.03,0.33,4.1,0.25c5.84-0.39,29.34-2.46,35.92-2.43c1.78,0.01,2.85,0.12,3.74,0.25"/><path d="M61.07,11.62c0.12,0.26,1.78,1.36,1.78,3.02c0,10.26-0.36,19.59-0.36,26.81"/><path d="M36.22,43c1.39,0.31,3.95,0.43,5.33,0.31c12.36-1.04,36.57-2.78,47.15-3.56c2.3-0.17,3.71,0.15,4.87,0.31"/><path d="M52.99,46.4c0.08,0.54,0.1,1.39-0.18,2.19C50.4,55.58,47.3,60.92,37,67.7"/><path d="M69.51,44.09c0.92,1.02,1.7,2.22,1.7,3.79c0,2.11-0.27,6.08-0.27,7.59c0,4.12,3.15,5.81,9.15,5.81c5.43,0,9.44,0,11.74-1.33"/><path d="M40.36,75.33c2.38,0,1.61,0.53,3.99,0.44c8.05-0.31,25.84-2.46,36.2-2.74c2.36-0.07,2.96,0.15,4.44,0.5"/><path d="M60.79,58.91c1.31,0.53,2.36,2.37,2.36,3.47c0,6.87-0.16,20.37-0.16,30.75"/><path d="M33,93.5c1.5,0.84,4.31,1.44,6.25,1.25c10.5-1,34.5-2,48.6-2.65c1.81-0.08,4.4,0.15,6.83,0.86"/></svg>