<svg><path d="M16.63,15.75c4.63,1.65,11.96,6.78,13.12,9.34"/><path d="M13,42.5c4.41,1.76,11.4,7.26,12.5,10"/><path d="M14.75,88.73c1.71,1.27,3.78,1.32,4.86-0.25c3.14-4.57,6.29-10.16,9.14-15.99"/><path d="M78.97,9.64c0.05,1.26-0.87,2.52-1.44,2.85c-3.09,1.83-14.56,5.98-32.98,9.21"/><path d="M45.45,26.59c0.03,0.44,0.06,1.14-0.06,1.77c-0.7,3.74-4.69,11.95-10.16,16.98"/><path d="M58.53,25.61c2.81,1.96,7.27,8.06,7.98,11.11"/><path d="M77.13,21.27c5.65,2.65,14.58,10.9,16,15.03"/><path d="M44.82,43.92c1.43,0.24,2.65,0.63,4.3,0.48c10.04-0.95,23.39-1.86,32.89-2.57c2.33-0.17,3.37,1.17,3.01,3.55c-0.94,6.23-1.43,13.28-2.15,20.89"/><path d="M37,56.98c2.06,0.24,3.66,0.69,5.94,0.48c19.87-1.9,33.09-3.28,48.85-4c2.52-0.11,4.57,0.48,5.71,0.71"/><path d="M43.97,69.34c1.01,0.16,2.83,0.56,4.03,0.48c11.08-0.79,25.1-2.53,35.17-2.85c1.61-0.05,2.62,0,3.83,0.16"/><path d="M64.37,45.95c0.48,0.87,1.37,2.86,1.42,5.77c0.23,13.95-0.14,36.7-0.14,41.45c0,10.05-8.96,0.19-9.59-0.71"/></svg>