<svg><path d="M18.63,16c4.45,1.78,11.5,7.32,12.62,10.09"/><path d="M12,39.5c4.94,2.12,11.76,8.21,13,11.5"/><path d="M14.75,89.23c1.71,1.27,3.78,1.32,4.86-0.25c3.14-4.57,9.29-16.16,12.14-21.99"/><path d="M54.89,13c0.23,1.74-0.06,4.02-0.81,5.51c-4.73,9.5-10.73,17.55-21.58,29.11"/><path d="M47.11,34.67c0.75,0.95,1.33,3.05,1.38,4.53c0.45,13.18-0.61,52.2-0.24,59.06"/><path d="M76.17,12.76c0.11,1.02-0.03,2.36-0.38,3.23c-2.24,5.58-5.09,9.89-10.23,16.68"/><path d="M48.27,37c10.55-1.26,40.11-4.31,43.85-4.99"/><path d="M69.05,36.91c0.42,0.49,0.76,1.15,0.76,1.99c0,8.55,0.05,38.06-0.21,51.52"/><path d="M49.44,53.84c8.23-1.03,36.23-2.52,39.76-3.08"/><path d="M48.44,71.65c8.68-0.87,37.2-3.17,40.92-3.64"/><path d="M48.44,93.78c8.72-1.24,44.56-2.61,48.31-3.29"/></svg>