<svg><path d="M14.88,15.75c4.54,1.56,11.73,6.41,12.87,8.84"/><path d="M12.75,43c4.5,1.5,11.62,6.17,12.75,8.5"/><path d="M10.75,88.23c1.71,1.27,3.78,1.32,4.86-0.25c3.14-4.57,8.79-16.66,11.64-22.49"/><path d="M44.62,14.25c0.79,0.56,2.09,2.73,2.09,3.85c0,4.11-0.1,8.34-0.1,13.85"/><path d="M28.68,33.05c0.83,0.17,2.59,0.27,3.36,0.23c7.58-0.41,18.49-1.28,28.78-2.18c1.28-0.11,2.47-0.23,3.44,0.05"/><path d="M45.72,44.77c1.75,0.79,7.77,1.78,10.42,2.58c0.93,0.28,1.63,2.11,1.46,3.63c-1.32,11.91-8.25,32.19-13.08,40.51c-2.96,5.11-6.52-1.25-7.76-3.39"/><path d="M45.62,36.28c0.27,1.37,0.22,2.91-0.1,4.46c-2.24,10.63-8.7,32.12-18.75,42.17"/><path d="M77.16,13.53c0.04,1.02,0.2,2.67-0.09,4.1c-1.88,9.34-4.32,28.12-14.98,39.26"/><path d="M77.13,22.18c2.54,6.27,13.46,26.75,16.25,31.34c0.95,1.56,2.17,2.23,3.11,2.67"/><path d="M72.67,57.13c4.4,2.09,11.36,8.59,12.46,11.85"/><path d="M66.74,80.95c7.43,2.65,19.18,10.9,21.04,15.02"/></svg>