<svg><path d="M16.88,15.75c4.54,1.65,11.73,6.78,12.87,9.34"/><path d="M12.75,42.5C17.07,44.18,23.92,49.39,25,52"/><path d="M13.25,90.23c1.71,1.27,3.78,0.32,4.86-1.25c3.14-4.57,7.29-12.66,10.14-18.49"/><path d="M62,11.5c0,0.99,0.08,1.77-0.22,2.96C60.22,20.64,46.67,43.61,34,52.75"/><path d="M62.25,15.75c6.97,4.94,25.63,27.18,27.9,28.73c2.31,1.58,3.07,1.87,4.1,2.02"/><path d="M50.27,44.83c0.67,0.31,2.85,0.41,3.53,0.32c3.15-0.42,9.32-1.36,22.38-2.46c1.03-0.09,1.97,0.06,2.83,0.32"/><path d="M38.8,62.61c1.13,0.52,4.85,0.81,6,0.69c6.6-0.69,20.11-1.72,41.56-2.92c1.41-0.08,4.5-0.21,6.6,0.25"/><path d="M63.97,46.32c0.89,0.85,0.89,2.76,0.89,3.43c0,4.75,0.44,38.57,0.22,43.32"/><path d="M44,74.25c5.02,4.69,7.48,9.77,8.5,12.5"/><path d="M82.82,68.61c0.36,1.08,0.54,2.66,0.4,3.58c-0.36,2.35-5.72,10.25-8.72,13.56"/><path d="M32.5,94.61c0.73,0.28,4.39,1.06,6,0.89c7.83-0.82,31.81-3.61,54.82-3.61c2.19,0,4.83,0.36,5.93,0.7"/></svg>