<svg><path d="M17.63,15.25c4.63,1.56,11.96,6.41,13.12,8.84"/><path d="M14,42.5c4.59,1.32,11.85,5.44,13,7.5"/><path d="M14.75,89.44c2.5,1.06,4.01,0.38,5.01-1.26c2.92-4.77,5.34-9.6,7.99-15.69"/><path d="M64.14,10.5c0.49,0.47,1.3,2.26,1.3,3.19c0,3.41-0.16,6.69-0.06,9.57"/><path d="M40.46,25.94c1.21,0.07,3.97,0.48,5.15,0.38c9.5-0.8,30.84-2.86,42.9-3.07c1.99-0.03,3.01,0.03,4.5,0.48"/><path d="M54.61,32.49c0,0.65,0.04,1.16-0.11,1.94c-0.76,4.03-8.02,17.48-14.24,23.45"/><path d="M53.8,44.96c2.79,1.38,6.37,5.05,7.73,8.54"/><path d="M81.35,30.49c0,0.56,0.03,1.01-0.09,1.69c-0.65,3.52-6.79,15.25-12.05,20.45"/><path d="M78.11,42.96c4.26,1.83,9.71,6.68,11.79,11.29"/><path d="M37,69.65c1.44,0.52,4.09,0.65,5.52,0.52c18.32-1.7,39.8-3.34,52.43-3.54c2.4-0.04,3.84,0.25,5.04,0.51"/><path d="M65.14,58.5c0.67,0.56,1.71,2.5,1.71,5.3c0,1.13-0.09,29.71-0.22,36.7"/></svg>