<svg><path d="M18.88,15.25c4.01,1.3,10.36,5.33,11.37,7.34"/><path d="M15.5,39c3.88,1.32,10.03,5.44,11,7.5"/><path d="M14.75,86.71c1.5,0.54,3.31,0.36,4.25-1.25C21.75,80.75,24.5,75,27,69"/><path d="M41.69,17.75c0.5,2.03,1.2,3.63,1.2,6.17c0,23.19,2.03,56.61-14.83,68.55"/><path d="M55.77,16.33c0.98,0.92,1.76,1.99,1.76,5.02c0,3.9-0.02,11.69-0.02,16.65"/><path d="M43.25,40C46,39.75,57.5,38.25,60,38.25"/><path d="M70.77,15.33c0.98,0.92,1.67,1.99,1.76,5.02c0.12,4.54-0.52,10.4-0.83,15.16c-0.1,1.52,1.02,2.05,2.49,1.99C80.25,37.25,84,36,89.75,36"/><path d="M88.27,13.33c0.98,0.92,1.67,1.99,1.76,5.02C90.42,32.91,90,91.04,90,96"/><path d="M43.25,51.5c6.75-0.25,41.5-2.75,47-2.75"/><path d="M41.75,66.25c4.5-0.75,9.75-1.75,12.5-2.25s3.25,1.5,3.25,3S57,88.5,57,90"/><path d="M71.25,63.5c0.73-0.12,2.47,0.23,3.98,0.06c4.66-0.51,11.38-1.62,14.02-1.81"/><path d="M73.02,64.35C73.02,72,73,85.54,73,90.5"/></svg>