<svg><path d="M15.88,15.75c3.31,1.47,7.54,5.05,8.37,7.34"/><path d="M12,39.75c3.79,1.15,8.8,4.97,9.75,6.75"/><path d="M12,90.46c2.38,0.17,3.31-0.89,4.25-2.5c2.75-4.7,5.5-10.45,8-16.45"/><path d="M37.88,19.75c-0.09,3.53-2.33,13.28-3.12,15.38"/><path d="M38.49,21.54c18.39-2.29,27.89-3.53,45.67-4.67c11.59-0.74,3.21,6.01-0.54,9.67"/><path d="M50.51,26.5c0.07,0.55,0.07,1.41-0.13,2.21C48.57,35.77,46.24,41.16,38.5,48"/><path d="M66.75,23.25c0.94,0.94,1.49,2.29,1.49,3.92c0,2.18,0.01,6.28,0.01,7.83c0,4.88,1,5.75,7.75,5.75c4.75,0,8.25,0,10.26-1.37"/><path d="M40.26,58.54c2.49,0.46,4.46,0.52,6.62,0.26c7.62-0.93,20.99-2.29,29.36-3.13c2.05-0.21,4.5-0.42,6.6-0.17"/><path d="M60.38,41.17c1.04,1.04,1.35,2.46,1.35,3.95c0,5.92,0.07,32.58,0.09,45.39c0,2.63,0.01,4.67,0.01,5.83"/><path d="M59.38,58.34c0,1.41-0.26,2.24-0.7,3.01c-5.54,9.72-16.89,21.93-26.31,27.15"/><path d="M62.47,59.19C67,63.5,80.28,74.5,87.44,80.21c2.3,1.83,4.31,3.29,7.95,4.4"/></svg>