<svg><path d="M17.63,15.5c4.28,1.43,11.05,5.87,12.12,8.09"/><path d="M12.5,41c4.32,1.23,11.17,5.08,12.25,7"/><path d="M14.75,87.61c1.75,0.64,2.69,0,3.67-1.78c2.86-5.17,5.72-11.99,8.33-18.58"/><path d="M72.06,13.89C72,15,71.48,15.86,70.55,16.34c-8.8,4.54-15.68,7.29-28.78,10.43"/><path d="M35.6,38.45c2.65,0.55,5.38,0.23,7.66-0.01c10.49-1.11,26.62-3.56,38.5-4.65c2.99-0.27,5.38-0.52,8.34,0.24"/><path d="M59.67,24.94c0.28,1.17,0.32,2.02-0.08,3.2C53.46,46.27,47.44,56.29,33.75,67.5"/><path d="M61.79,36.52c6.04,5.9,18.07,18.63,25.56,24.66c1.77,1.42,3.66,2.78,5.65,3.9"/><path d="M56.96,58.08c0.85,0.85,1.06,2.04,1.06,3.75c0,13.05,0.06,22.96,0.06,27.4c0,9.31-5.37,1.34-6.49,0.22"/><path d="M43,74.75c0,4.84-4.91,11.99-6.25,13.38"/><path d="M69,74c2.45,2.2,6.33,9.05,6.94,12.47"/><path d="M85.14,72.83c2.49,1.96,6.44,8.08,7.06,11.13"/></svg>