<svg><path d="M21.38,14.75c3.66,1.6,9.45,6.6,10.37,9.09"/><path d="M14.25,39.5c3.79,1.15,9.8,4.72,10.75,6.5"/><path d="M13.1,89.3c1.17,0.34,2.3,0,3-1.15c2.97-4.9,5.95-10.9,8.65-17.15"/><path d="M48.05,22.25c1.82,0.38,3.85,0.4,5.59,0.13c7.11-1.12,17.36-2.5,23.48-3.01c1.69-0.14,3.35-0.19,5.05-0.05"/><path d="M64.67,10.13c0.85,0.85,1.21,1.99,1.21,3.1c0,3.65,0.37,22.77,0.37,30.39"/><path d="M45.84,33.49c2.29,0.39,4.15,0.25,6.06,0.02c7.48-0.89,19.54-2.51,26.25-3.23c2.08-0.22,4.4-0.21,6.5-0.08"/><path d="M37.13,46.49c2.82,0.51,5.69,0.53,8.48,0.1c13.64-2.1,30.55-4.27,41.52-5.07c3.49-0.26,6.74-0.26,9.62,0.18"/><path d="M52.01,53.3c0.78,0.78,1.09,1.57,1.09,2.6c0,0.56,0.16,22.54,0.2,37.47c0.01,2.23,0.01,4.31,0.01,6.13"/><path d="M54.18,54.92c2.17-0.15,21.87-3.19,23.47-3.44c2.35-0.36,3.62,0.89,3.62,3.19c0,5.33-0.04,26.58-0.04,39.81c0,8.14-5.48,2.77-7.66,0.64"/><path d="M54.18,66.35c5.94-0.47,19.07-2.1,25.83-2.53"/><path d="M54.48,79.28c7.02-0.9,20.42-2.16,25.42-2.16"/></svg>