<svg><path d="M23,14.75c4.06,1.52,10.48,6.23,11.5,8.59"/><path d="M18.25,41.75c3.97,1.37,10.26,5.62,11.25,7.75"/><path d="M19.26,88.13c1.24,0.58,2.5,0.34,3.24-0.92c2.75-4.7,7-13.95,9.5-19.95"/><path d="M46.25,13.77c1.12,1.12,1.42,2.71,1.59,4.09c0.48,4.03,1.58,12.74,2.07,17.65c0.23,2.27,0.51,4.39,0.64,5.24"/><path d="M48.69,15.37c3.66-0.53,20.69-2.67,27.31-3.39c3.42-0.37,5.74,0,5.26,3.91c-0.61,4.93-1.92,13.48-3.11,19.42c-0.31,1.52-0.6,2.87-0.88,3.94"/><path d="M49.83,27.22c7.04-0.72,25.04-2.97,29.22-3.28"/><path d="M51.69,39.36c7.43-0.98,17.81-2.18,25.35-2.57"/><path d="M56.75,41.75c0.12,1.43-0.27,2.16-0.86,3.49C53.12,51.41,47.4,59.32,38.5,67"/><path d="M55.7,51.1c1.93,0.53,4.22,0.47,6.03,0.17c5.45-0.91,18.59-2.93,24.38-3.63c5.8-0.69,6.41,0.45,6.03,6.12c-0.61,9.31-3.91,29.44-11.49,41.32c-1.98,3.1-4.68,1.03-6.69-1.1"/><path d="M72.45,60.86c-0.08,1.14-0.47,1.74-1.44,2.28c-4.63,2.61-12.01,5.99-19.75,8.54"/><path d="M47.68,62.3c0.82,0.82,1.17,2.07,1.17,3.18c0,2.26-0.1,3.67-0.1,9.01c0,6.01,1.26,7.57,13.86,7.57c11.26,0,12.63-1.98,12.63-6.81"/></svg>