<svg><path d="M20.62,15.38c3.66,1.45,9.46,5.96,10.38,8.22"/><path d="M11.75,39.75c4.32,1.27,11.17,5.78,12.25,7.75"/><path d="M14.5,91.74c1.31,0.74,2.71,0.56,3.5-0.79c2.75-4.7,5.5-10.45,8-16.45"/><path d="M65.87,14c0.88,0.88,1.14,2.25,1.14,3.55c0,0.73,0.1,23.7,0.1,28.97"/><path d="M68.4,32.25c4.63-0.49,11.29-1.42,16.1-1.98c1.17-0.14,2.42-0.16,3.59,0.11"/><path d="M48.27,31.41c0.91,0.91,1.14,2.34,1.14,3.55c0,4.29-0.04,7.38-0.04,13.54"/><path d="M37.71,49.68c3.42,0.69,6.04,0.69,8.91,0.33c12.14-1.51,32.78-4.05,43.76-4.43c2.66-0.09,5.33,0.04,7.92,0.69"/><path d="M43.31,58.77c4.93,2.11,12.75,8.68,13.98,11.96"/><path d="M42.54,93.29c1.1,0.84,2.07,0.87,3.21,0.02c0.76-0.56,10.38-8.8,13.61-11.5"/><path d="M84.56,57.28c0.11,0.96-0.15,1.82-0.69,2.55c-2.15,2.9-5.32,6.21-12.53,11.79"/><path d="M72.75,80.12C78,82.38,87.88,90.38,91.04,95.67"/></svg>