<svg><path d="M19.63,15.5c4.28,1.52,11.05,6.23,12.12,8.59"/><path d="M16,40.25c4.41,1.37,11.4,5.62,12.5,7.75"/><path d="M15.25,85.73c1.71,1.27,3.78,1.32,4.86-0.25c3.14-4.57,6.29-10.16,9.14-15.99"/><path d="M43.15,19.5c0.41,2,1,3.57,1,6.06c0,23.69,3.6,55.19-12.35,67.4"/><path d="M51.19,31.39c2.65,2.26,6.65,8.65,7.31,12.16"/><path d="M80.76,27.97c0.02,0.31,0.16,0.85-0.04,1.26c-1.47,3.02-5.42,8.99-9.4,12.56"/><path d="M51.1,51.53c0.67,0.33,2.47,0.56,4.27,0.38c6.43-0.65,17.52-1.54,26.62-2.05c1.8-0.1,2.24-0.33,3.37,0"/><path d="M65.02,21.96c0.88,0.45,1.41,2.03,1.59,2.94s0,56.74-0.18,62.39"/><path d="M66.52,52.46C63.26,61.1,55.33,73.24,48,78.23"/><path d="M70.12,58.32c7.2,3.1,11.13,6.18,15.15,11.4"/><path d="M89.87,14.25c1.09,0.5,1.74,2.25,1.96,3.25c0.22,1,0,73.25-0.22,79.5"/></svg>