<svg><path d="M16.5,16.25c4.24,1.6,10.94,6.6,12,9.09"/><path d="M12.38,40.75c4.1,1.59,10.6,6.53,11.62,9"/><path d="M13.81,87.4c1.22,0.55,2.46,0.3,3.19-0.95C19.75,81.75,22.5,76,25,70"/><path d="M75.47,10.89c0,1.11-0.63,1.85-1.39,2.35C70,15.9,58.24,20.61,42.81,23.47"/><path d="M40.02,32.33c2.4,1.7,6.19,6.99,6.79,9.63"/><path d="M56.25,27.62c2.49,1.87,6.44,7.69,7.06,10.59"/><path d="M86.77,24.14c0.11,0.89-0.04,1.73-0.46,2.51C84,30.25,79.88,35.12,73.25,40"/><path d="M42.83,57.44c1.89,0.62,4.6,0.28,6.55,0.07c6.24-0.67,18.37-2.18,25.49-2.55c2.07-0.11,4.23-0.26,6.28,0.15"/><path d="M35.07,71.54c2.48,0.8,5.24,0.49,7.8,0.25c9.66-0.93,30.86-2.97,41-3.5c2.4-0.12,4.92-0.36,7.3,0.1"/><path d="M60.55,45c0.79,0.79,1.07,2.1,1.12,3.69c1.07,29.56-8.3,41.18-26.93,49.56"/><path d="M60.74,71.63c7.01,6.12,12.38,10.75,22.02,18.41c2.93,2.33,5.95,3.95,9.24,5.72"/></svg>