<svg><path d="M17.75,15.62c4.24,1.68,10.94,6.35,12,8.97"/><path d="M15,38.25c3.71,1.28,8.75,5.38,10.75,8"/><path d="M14.38,86.86c1.28,0.36,2.52,0,3.28-1.22c3.26-5.19,6.51-11.53,9.47-18.15"/><path d="M40.26,33.78c0.61,0.61,0.93,1.47,0.93,2.73c0,17.48-2.32,39.5-11.89,53.52"/><path d="M37.9,32.94c2.91,0.49,5.31,0.15,7.82-0.17c8.55-1.1,21.07-3.05,34.37-4.21c2.3-0.2,4.9-0.49,7.23,0.1"/><path d="M47.25,48.73c1.5,0.27,2.86,0.1,3.78-0.07c3.25-0.59,6.84-1.41,9.76-2.03c1.5-0.32,2.84-0.36,3.61-0.14"/><path d="M45.75,61.11c0.88,0.88,1.36,1.88,1.4,3.04c0.58,2.95,1.04,7.12,1.49,11.35c0.16,1.49,0.31,2.49,0.46,3.95"/><path d="M48.1,62.35c5.91-1.19,9.8-2.35,13.27-2.95c2.61-0.45,4.19,0.5,3.6,3.37c-0.7,3.43-1.1,4.99-2.25,10.2"/><path d="M50.15,76.38c4.36-0.79,7.15-1.42,11.21-2.08c1.15-0.19,2.39-0.38,3.81-0.58"/><path d="M64,12.75c1.43,1.66,2.11,3.26,2.33,5.95c2.29,27.92,9.42,56.3,23.84,71.22c4.63,4.8,4.76,1.07,4.04-6.29"/><path d="M85.59,41.62c0.29,1.01,0.12,2.34-0.12,3.92c-1.42,9.32-9.22,31.34-20.67,43.33"/><path d="M75.53,11.24c2.83,1.58,7.35,5.2,8.67,7.92"/></svg>