<svg><path d="M19.38,14.25c4.19,1.82,10.82,7.5,11.87,10.34"/><path d="M14,38.75c4.77,1.81,12.31,7.44,13.5,10.25"/><path d="M13.25,88.73c1.71,1.27,3.78,1.32,4.86-0.25c3.14-4.57,7.79-14.66,10.64-20.49"/><path d="M63.51,10.11c0.68,0.46,1.79,2.22,1.79,3.13c0,3.35-0.21,5.15-0.09,7.98"/><path d="M42.12,23.58c1.07,0.1,3.52,0.56,4.57,0.52C57.22,23.63,77.3,21.4,88,21.12c1.77-0.05,2.67,0.04,3.99,0.66"/><path d="M50.44,31.27c0.27,0.26,1.08,0.96,1.16,1.3c0.77,2.97,1.74,9.22,2.51,13.58"/><path d="M52.62,32.51c6.13-0.51,20.68-1.63,25.27-2.27c1.15-0.16,2.44,0.89,2.18,2.46c-0.51,3.06-1.4,4.4-2.61,9.39"/><path d="M54.68,44.59c5.43-0.94,19.84-1.54,24.94-2.13"/><path d="M41.08,52.02c-0.13,3.53-3.13,12.29-4.2,14.39"/><path d="M41.23,54.66C54.5,52.5,74.75,51,91.17,50.49c9.76-0.3,0.8,8.55-0.57,10.09"/><path d="M45.18,66.12c0.91,0.45,2.58,0.46,3.5,0.45c7.31-0.07,20.94-1.61,32.18-2.2c1.52-0.08,2.44,0.21,3.2,0.44"/><path d="M65.77,68.48c0.04,0.3,1.09,2.09,1.14,4.04c0.2,9.33-0.13,18.4-0.13,21.58c0,6.91-6.8-0.67-7.56-1.48"/></svg>