<svg><path d="M21.13,15.75c3.92,1.56,10.13,6.41,11.12,8.84"/><path d="M14.5,40.5c4.41,1.68,11.4,6.89,12.5,9.5"/><path d="M14.75,85.73c1.71,1.27,3.78,1.32,4.86-0.25c3.14-4.57,6.29-12.66,9.14-18.49"/><path d="M57.1,11.5c0.06,0.56,0.29,1.54-0.11,2.24C54.46,18.2,47,29.03,38,36.25"/><path d="M55.3,18.76c3.86,0,15.53-1.18,19.95-2.51c2.5-0.75,4.25,1.25,2.6,3.05c-3.65,3.99-6.35,7.95-12.35,16.2"/><path d="M44.75,36.25c0.66,0.86,1.38,1.98,1.58,3.42c1.2,8.94,0.83,13.63,1.92,25.33"/><path d="M46.39,37.65c11.61-1.4,32.07-3.23,38.75-3.42c2.77-0.08,3.79,2.16,3.6,3.94C88.5,40.5,86,55.5,84.48,63.39"/><path d="M59.35,39.75c0.04,0.4,0.62,1.01,0.59,1.59c-0.25,5.12-2.31,9.89-7.67,13.91"/><path d="M68.27,38.21c0.57,1.07,1.05,2.34,1.05,3.99c0,2.23-0.17,3.92-0.17,5.51c0,4.33,1.93,6.11,5.62,6.11c3.34,0,5.79,0,7.21-1.4"/><path d="M36.59,71.83c2.16,0.42,3.87,0.37,5.08,0.32C51.75,71.75,80.5,70,92.22,69.61c1.56-0.05,4.28,0.14,5.91,0.76"/><path d="M64.9,57.42c0.3,1.19,0.39,1.65,0.29,2.78C63.5,80.75,57,90.75,35.62,97"/><path d="M65.2,70.89c5.86,5.88,19.55,20.33,25.4,24.26c1.99,1.34,2.69,1.54,3.59,1.67"/></svg>