<svg><path d="M18.5,18.38c3.71,1.32,9.57,5.42,10.5,7.47"/><path d="M13.88,42c3.93,1.32,10.14,5.44,11.12,7.5"/><path d="M14.88,88.75c1.07,0.25,2.1-0.09,2.74-1.16C20.5,82.85,23.38,77.05,26,71"/><path d="M45.98,17.5c0.89,0.89,1.27,2.5,1.39,4c0.62,8.25,1.77,19.75,2.34,30"/><path d="M47.61,19c7.32-0.76,23.96-2.65,30.14-3.47c3.54-0.47,4.94,0.18,4.45,4.08c-0.8,6.26-2.14,22.69-2.84,29.13"/><path d="M61.64,30.25c0.99,0.99,1.24,2.24,1.24,3.25c0,3.75-0.06,9.88-0.06,16.75"/><path d="M63.5,31.75c2.66-0.25,11.87-1.5,16.55-2"/><path d="M39.75,50.75c0.88,0.88,1.25,2.29,1.25,4.39c0,4.11,0.09,21.12-0.01,32.11c-0.02,2.68-0.04,5.09-0.06,7"/><path d="M42.02,53.5c8.48-1,40.98-4,46.44-4.25c3.46-0.16,4.63,1.52,4.46,4.63c-0.6,11.73-1.82,25.9-4.53,35.62c-2.68,9.6-5.72,4-8,0.75"/><path d="M51.92,64.27c0.72,0.72,1.08,1.48,1.26,2.38c0.58,2.78,1.14,6.35,1.71,10.36c0.17,1.21,0.34,2.39,0.5,3.49"/><path d="M53.84,65.43c6.82-1.25,14.79-2.32,19.16-2.81c2.65-0.3,3.61,0.38,2.96,3.03c-0.76,3.07-1.39,5.75-2.46,9.98"/><path d="M56.55,78.48c3.75-0.37,9.25-0.97,14.74-1.55c1.15-0.12,2.78-0.25,3.86-0.37"/></svg>