<svg><path d="M14.63,16c4.45,1.78,11.5,7.32,12.62,10.09"/><path d="M11,41c4.24,1.59,10.94,6.53,12,9"/><path d="M10.75,89.73c1.75,1.02,3.81,0.32,4.75-1.25c2.75-4.57,7-15.16,9.5-20.99"/><path d="M34.33,25c0.81,0.47,2.39,0.57,3.2,0.44c5.14-0.81,18.86-2.12,24.57-2.87c1.34-0.18,2.79,0.25,3.47,0.48"/><path d="M48.14,12.5c0.75,0.5,1.35,2.23,1.35,3.25c0,7.25,0.02,14.5,0.02,20"/><path d="M34.46,35.63c0,3.14-2.37,11.77-3.44,13.87"/><path d="M34.19,39.24c6.42-0.99,26.4-3.53,29.7-3.9c5.15-0.59,3.05,3.16-1.09,7.78"/><path d="M38.59,51.15c0.53,0.24,1.53,0.61,2.33,0.42c3.33-0.82,15.56-3.26,16.49-3.26s1.93,0.74,1.01,2.21c-0.93,1.47-6.16,6.23-11.55,10.4"/><path d="M45.59,61.65c5.61,3.99,9.01,17.28,4.64,28.93c-2.4,6.38-4.91,4.78-7.11,0.47"/><path d="M31.53,74.13c0.8,1.09,2.26,1.25,3.94,0.58c3.59-1.43,21.17-8.92,26.4-11.05"/><path d="M71.85,36.47c1.17,0.28,2.37,0.53,3.84,0.36c6.07-0.69,14.19-3,17-3.59c3.56-0.74,4.44,0.03,4.42,3.19C97.02,46.5,91.2,79.3,84.67,91.03c-4.17,7.47-5.17,4.47-7.71-0.18"/><path d="M82.2,13.68c0.58,1.54,0.75,2.77,0.67,5.51c-0.7,22.37-7.91,59.91-24.14,75.22"/></svg>