<svg><path d="M16.63,16.5c4.1,1.6,10.59,6.6,11.62,9.09"/><path d="M13,41.25c4.41,1.72,11.4,7.07,12.5,9.75"/><path d="M12.75,91.17c2,0.33,3.58,0.42,4.6-1.26C20.32,85,25.8,71.5,28.5,65.25"/><path d="M34.66,27.9c1.44,0.52,4.09,0.66,5.53,0.52C52.5,27.25,75,24.25,90.71,24.28c2.4,0,3.84,0.25,5.05,0.51"/><path d="M61.09,12.6c0.71,0.33,1.14,1.49,1.28,2.15c0.14,0.66,0.51,23.56,0.37,27.69"/><path d="M77.16,10.75c0.71,0.33,1.14,1.49,1.28,2.15c0.14,0.66-0.89,18.96-1.31,25.91"/><path d="M63.16,39.83c2.62,0,16.08-0.82,17.55-0.82"/><path d="M45.41,14.93c0.71,0.33,1.14,1.49,1.28,2.15c0.14,0.66,0.52,21,0.02,28.6c-0.16,2.48-0.25,4.36,2.45,4.14c11.49-0.93,24.44-1.69,35.77-2.01c2.13-0.06,3.93,0.13,4.74,0.3"/><path d="M36.47,66.42c1.66,0.55,3.55,0.72,5.46,0.55c9.74-0.9,34.04-2.79,48.76-3.84c1.9-0.13,3.09,0.09,4.99,0.48"/><path d="M63.43,53.98c1.02,0.41,1.83,1.83,1.83,2.68c0,8.65,0,39.19-0.2,44.34"/><path d="M63.88,66.3c-4.96,8.61-18.27,21.76-28.6,26.63"/><path d="M65.07,65.17C70,70.5,85.5,87,91.76,90.97c1.6,1.02,2.69,1.76,4.14,2.11"/></svg>