<svg><path d="M21.38,18.75c3.48,1.48,8.99,6.08,9.87,8.38"/><path d="M16.25,40.5C19.87,41.78,25,45.25,27,48.25"/><path d="M13.62,86.2c2.58,0.69,4.14,0.37,5.17-1.29c2.99-4.83,5.99-10.74,8.71-16.91"/><path d="M43.89,21.51c0.98,0.99,1.47,2.29,1.62,3.87c0.45,4.72,1.9,18.1,2.6,24.36c0.21,1.82,0.35,3.04,0.38,3.26"/><path d="M46.24,23.31c8.26-0.93,30.22-3.22,32.31-3.31c2.7-0.12,4.32,1.63,4.17,3.76c-0.11,1.45-3.1,16.63-4.6,23.88c-0.22,1.05-0.38,1.75-0.6,2.56"/><path d="M47.72,36.04c6.16-0.54,26.41-2.17,32.02-2.54"/><path d="M49.38,50c7.35-0.51,18.4-1.52,27.54-1.95"/><path d="M40.14,64.11c1.25,1.25,1.78,2.42,2.15,4.36c0.97,5.1,1.21,10.03,2.37,19.2"/><path d="M42.26,65.3C54,63.79,81.9,61.18,85.2,61.18c2.3,0,3.42,1.59,2.9,4.05c-0.38,1.8-3.12,14.25-4.42,20.18"/><path d="M55.88,65.24c0.37,0.51,0.99,1.13,1.06,2.31c0.45,7.46,0.74,11.7,1.28,19.33"/><path d="M70.95,63.9c0.67,0.85,0.63,2.12,0.51,3.1c-0.96,7.5-1.79,12.94-2.43,19.4"/><path d="M30.63,89.08c2.51,0.58,7.09,0.5,9.63,0.37c15.36-0.82,34.11-2.32,49.95-3.05c4.19-0.19,6.93-0.02,9.17,0.53"/></svg>