<svg><path d="M20.13,16.5c3.92,1.6,10.13,6.6,11.12,9.09"/><path d="M15.25,43.5c4.32,1.59,11.17,6.53,12.25,9"/><path d="M18.75,88.73c1.71,1.27,3.78,1.32,4.86-0.25c3.14-4.57,7.79-13.66,10.64-19.49"/><path d="M45.13,14.92c0.32,0.47,0.7,1.26,0.87,1.85c1.43,4.86,2.28,16.64,3.12,25.68"/><path d="M46.65,16.02c11.36-1.07,30.19-1.84,38.67-2.75c3.12-0.33,4.87,1.13,4.53,3.73c-0.64,4.87-1.57,12.12-3.11,22.31"/><path d="M65.68,14.83c0.58,0.39,1.23,2.42,1.23,4.04c0,7.4-0.09,12.08-0.09,19.88"/><path d="M48.17,28.59c3.7-0.43,33.58-3.09,40.62-3.11"/><path d="M49.72,40.19c9.5-0.82,25.83-1.92,37.12-2.62"/><path d="M50.88,50.16c0.6,0.63,0.99,1.76,1.2,2.4c0.2,0.64,0.35,41.34,0.28,42.79"/><path d="M52.08,51.25c2.38-0.21,27.36-1.83,29.13-2.05c3.17-0.38,3.97,1.9,3.97,2.99c0,2.44-0.07,23.42-0.07,36.48c0,10.47-7.38,1.71-8.17,0.92"/><path d="M52.8,62.66c7.7-0.41,24.89-1.32,32.02-1.93"/><path d="M52.43,75.39c6.34-0.6,24.7-1.81,32.04-2.27"/></svg>