<svg><path d="M25.88,12.25c3.31,1.32,8.54,5.68,9.37,7.73"/><path d="M18.25,28.58c3.97,1.28,10.26,5.28,11.25,7.28"/><path d="M19.75,56.88c1.25,0.62,3.01,0.03,4.01-0.89c2.92-2.67,9.34-9.94,11.99-13.36"/><path d="M48.52,15.49c0.81,0.81,1.14,2.01,1.14,3.24c0,0.48-0.13,29.27-0.13,32.77"/><path d="M50.3,16.05c4.16-0.34,21.47-2.42,32.81-3.1c2.29-0.17,4.59,0.02,6.89,0.1"/><path d="M50.8,27.4c9.32-0.78,20.9-2.03,28.07-2.66c2.96-0.26,4.59,0.64,3.79,3.61c-0.65,2.4-1.52,5.37-2.12,7.61"/><path d="M50.78,38.98c3.14-0.25,16.63-1.23,24.84-1.8c2.74-0.19,4.89-0.33,5.88-0.38"/><path d="M50.55,50.87c11.32-0.87,20.96-1.51,32.07-1.96c2.25-0.22,4.49,0.08,6.73,0.39"/><path d="M17.25,69.98c3.92,0.49,7.83,0.52,11.75,0.1c13.86-0.97,34.75-2.21,51-2.8c4.36-0.16,8.69,0.14,13,0.78"/><path d="M53.25,57c1.19,1.19,1.25,2.5,1.25,4c0,7.63,0,20.4,0,29.5c0,3.43,0,6.33,0,8.25"/><path d="M51,69.25c0,1-0.73,2.21-1.62,3.33c-7.27,9.15-21.1,18.94-35.13,23.17"/><path d="M56.5,70.38c4.38,3.38,14.87,10.92,23.79,16.81c3.79,2.49,7.86,4.34,12.21,5.57"/></svg>