<svg><path d="M16.12,17c3.66,1.52,9.46,6.23,10.38,8.59"/><path d="M13.38,42.5c3.93,1.32,10.14,5.44,11.12,7.5"/><path d="M11.91,88.45c1.29,0.49,2.59,0.22,3.36-0.99c3-4.7,6-10.45,8.72-16.45"/><path d="M36.68,21.54c0.76,0.77,1.41,2.07,1.41,3.46c0,4.94,0,28.53,0,39c0,1.71,0,3.07,0,3.94"/><path d="M38.96,22.97c2.1-0.17,18.07-2.4,19.97-2.61c1.59-0.17,2.71,0.97,2.71,2.26c0,5.38-0.02,30.35-0.02,38.76c0,1.57,0,4.33,0,5.38"/><path d="M39.43,36.91c4.33-0.52,15.35-1.89,20.87-2.32"/><path d="M39.35,50.2c6.38-0.69,13.98-1.73,20.45-2.08"/><path d="M39.39,65.22c5.03-0.75,14.04-1.79,20.45-2.09"/><path d="M42.6,72.91c0.32,1.34,0.07,2.75-0.52,3.76c-2.67,4.54-7.38,10.22-11.2,13.71"/><path d="M55.62,73.75c3.98,4.04,8.68,11.36,9.77,14.9"/><path d="M74.71,28.61c1.03,1.03,1.72,2.64,1.72,4.91c0,10.91,0.03,25.23,0.03,27.73c0,1.97-0.05,3.58-0.05,4.71"/><path d="M90.9,15.32c1.14,1.14,1.84,3.05,1.84,4.99c0,14.46-0.23,64-0.23,68.92c0,7.86-4.23,3.58-7.87,0.25"/></svg>