<svg><path d="M14.88,16.5c4.37,1.96,11.27,8.05,12.37,11.09"/><path d="M10.25,42.75C14.93,44.73,22.33,50.91,23.5,54"/><path d="M11.25,89.73c1.71,1.27,3.78,1.32,4.86-0.25c3.14-4.57,6.29-10.16,9.14-15.99"/><path d="M36.71,25.63c0.75,0.25,3.28,0.45,5.28,0.23c8.19-0.87,33.5-2.62,45.33-2.97c2.01-0.06,3.54,0.25,4.79,0.5"/><path d="M60.63,10.5c1.06,0.43,1.9,1.93,1.9,2.82c0,8.98,0,31.3-0.21,36.73"/><path d="M62.38,25.13c-5.29,8.88-19.04,21.44-30.05,26.47"/><path d="M62.65,25.43c4.39,3.34,23.62,19.14,28.39,22.42c1.62,1.11,3,1.59,4.62,1.91"/><path d="M45.27,55.89c0.58,0.58,1.06,1.64,1.16,2.24c0.82,5.11,2.57,27.33,2.44,36.69"/><path d="M46.57,57.49c2.29-0.15,28.23-2.66,29.93-2.83c3.04-0.3,3.84,1.79,3.84,2.74c0,5.23-0.13,20.75-0.21,32.46"/><path d="M48.17,70.75c7.8-0.89,24.55-2.72,31.41-3.18"/><path d="M48.66,82.16c6.09-0.45,24.42-2.3,31.46-2.61"/><path d="M32.73,95.19c1.15,0.38,4.25,0.77,5.4,0.64c14.37-1.59,41.37-3.09,53.38-3.41c1.92-0.05,3.49,0.2,6.02,0.67"/></svg>