<svg><path d="M14.38,15.25c4.37,1.91,11.27,7.87,12.37,10.84"/><path d="M11,39c4.24,2.12,10.94,8.71,12,12"/><path d="M11.25,87.23c1.71,1.27,3.78,1.32,4.86-0.25c3.14-4.57,7.14-13.49,10.14-22.49"/><path d="M34.54,18.88c0.61,1.15,1.5,2.03,1.5,3.52c0,1.49,0,59.6,0,67.08"/><path d="M36.22,21.4c1.84-0.02,15.25-1.98,16.93-2.04c1.39-0.06,2.37,1.26,2.37,2.64c0,5.1-0.65,55.15-0.65,66.79"/><path d="M36.19,40.58c5.07-0.39,14.75-1.29,18.87-1.1"/><path d="M36.34,60.18c4.86-0.18,12.03-0.86,18.43-0.92"/><path d="M36.12,86.75c4.99-0.21,12.37-1.19,18.68-1.17"/><path d="M77.25,14.25c0.06,0.33,1.33,1.71,1.39,3.78c0.29,9.98-0.19,37.99-0.19,41.39c0,8.68-5.23,0.52-6.32-0.34"/><path d="M69.82,29.69c0.03,0.57,0.11,1.49-0.06,2.28c-1.27,5.67-5.82,15.96-10.19,21.19"/><path d="M86.46,28.73c4.55,3.68,10.66,13.14,11.79,18.87"/><path d="M92.36,47.72c0.11,1.17,0.35,3.11-0.22,4.71C87,67,73.5,88.75,54.1,97.5"/></svg>