<svg><path d="M16.13,14.5c4.28,1.6,11.05,6.6,12.12,9.09"/><path d="M12.5,40.75c4.59,1.63,11.85,6.71,13,9.25"/><path d="M12.75,89.23c1.71,1.27,3.78,1.32,4.86-0.25c3.14-4.57,8.79-13.16,11.64-18.99"/><path d="M40.75,15.09c-0.15,3.8-3.7,13.75-4.97,16.01"/><path d="M41.1,16.89c6.75-0.71,34.52-2.27,47.87-2.83c10.15-0.43,1.08,7.53-0.17,8.72"/><path d="M41.54,33.45c1.21,0.26,3.42,0.32,4.63,0.26c11.67-0.58,22.91-2.36,36.54-2.69c2.01-0.05,3.22,0.13,4.23,0.26"/><path d="M42.65,42.46c0.65,0.53,1.48,2,1.6,2.66c0.96,5.27,1.98,14.42,3.14,22.92"/><path d="M45.15,43.89c9.91-0.45,31.15-3.21,37.9-3.01c2.79,0.08,3.37,1.46,3.24,2.94c-0.42,5.07-2.54,13.19-3.8,21.57"/><path d="M45.96,54.24c9.29-0.74,25.29-1.99,38.63-2.3"/><path d="M47.44,65.03c8.68-0.54,24.31-1.53,35.11-2.15"/><path d="M34.18,76.75c1.5,0.84,4.21,0.9,5.73,0.84C54,77,72.5,75.5,91.6,75.51c2.49,0,3.98,0.4,5.23,0.82"/><path d="M63.23,19.85c0.61,0.6,1.52,1.4,1.52,3.71c0,4.94-0.08,69.56-0.2,77.07"/></svg>