<svg><path d="M18.13,14.75c3.22,1.82,8.31,7.5,9.12,10.34"/><path d="M13.5,39.25c3.71,1.81,9.57,7.44,10.5,10.25"/><path d="M12.25,86.67c1.75,1.08,3.44,0.92,4.42-0.76C19.54,81,25.4,68.5,28,62.25"/><path d="M44.52,12.28c0.54,0.48,1.42,2.36,1.42,3.32c0,3.55-0.17,11.68-0.07,14.69"/><path d="M30.5,31.63c0.79,0.04,2.59,0.28,3.36,0.23c6.2-0.47,18.43-1.72,23.33-2.03c1.29-0.08,2.36-0.08,3.81-0.08"/><path d="M44.27,44.88c3.1,0.8,5.73,3.62,9.58,3.99c1.65,0.16,3.05,2.3,2.64,4.38C55,61,48.23,82.89,45.96,86.83c-2.71,4.67-4.71,4.17-6.84,0.05"/><path d="M44.04,34.62c0.67,0.73,1.25,2.32,1.02,3.93c-1.69,11.89-6.91,30.9-18.01,43.14"/><path d="M72.77,12.64c0.03,0.63,0.07,1.63-0.07,2.54c-0.82,5.35-5.49,17.1-11.89,24.29"/><path d="M71,28.91c0.78,0.08,2.54,0.55,3.3,0.44c6.09-0.92,12.39-2.34,17.21-2.95c1.27-0.16,2.31-0.15,3.74-0.15"/><path d="M66.71,41.54C68,42.75,69.5,43,72.02,42.9c1.19-0.05,15.24-2.83,16.36-2.83c1.12,0,3.04,1.36,1.71,2.41C86,45.75,79,51.75,73.99,55"/><path d="M73.92,55.2c3.83,3.3,10.86,20.59,7.12,34.58c-1.46,5.46-5.53,5.47-9.24,1.13"/><path d="M58.21,67.21c0.93,0.38,3.33,0.52,5.01,0.42c5.84-0.33,22.61-3.5,30.45-3.33c1.68,0.04,3.15,0.13,4.26,0.51"/></svg>