<svg><path d="M19.63,16.25c4.28,1.56,11.05,6.41,12.12,8.84"/><path d="M15,41.5c4.59,1.68,11.85,6.89,13,9.5"/><path d="M15.25,88.73c1.71,1.27,3.78,1.32,4.86-0.25c3.14-4.57,6.29-10.16,9.14-15.99"/><path d="M64.53,11.5c1.44,1.35,2.16,2,2.16,3.43c0,6.07-0.08,15.25-0.21,19.78"/><path d="M45.04,21.11c0.65,0.47,1.4,2.45,1.3,3.38c-0.43,4.17-1.09,6.9-1.68,10.85c-0.31,2.11,0.74,2.29,2.35,1.97c7.27-1.41,31.24-3.57,41.04-3.11"/><path d="M88.89,17.46c0.65,0.36,1.41,2.71,1.3,3.43c-0.64,4.44-1.94,10.1-2.45,16.35"/><path d="M39.34,48.84c1.47,0.3,4.16,0.34,5.63,0.3c11.29-0.31,31.05-3.74,47.06-3.9c2.45-0.02,3.91,0.14,5.14,0.29"/><path d="M63.72,50.06c0.02,0.24,0.05,0.62-0.04,0.97c-0.55,2.04-3.68,6.52-7.97,9.27"/><path d="M43.41,60.82c0.65,0.85,0.72,2.2,0.87,3.73c0.22,2.2-0.26,28.73-0.26,31.27"/><path d="M45.03,62.75c12.31-2,43.27-4.42,44.44-4.63c2.79-0.51,4.53,1.02,4.53,3.05c0,2.88-1.01,24.52-1.75,29.29c-1.17,7.55-5.01,2.72-7.09,0.52"/><path d="M58.15,63.43c0.69,0.62,1.22,1.35,1.22,3.4c0,10.48-0.22,17.67-0.22,27.13"/><path d="M74.4,61.72c0.69,0.62,1.4,1.35,1.22,3.4C74.5,78.5,74.5,86,73.78,94.3"/></svg>