<svg><path d="M17.63,16.25c4.45,1.47,11.5,6.05,12.62,8.34"/><path d="M14,37.5c3.88,1.32,10.03,5.44,11,7.5"/><path d="M9.75,90.22c1.71,1.29,3.78,1.34,4.86-0.25c3.14-4.64,6.29-10.31,9.14-16.22"/><path d="M40.04,23.92c0.85,0.38,2.39,0.41,3.24,0.38c11.17-0.45,23.85-2.88,34.78-3.35c1.41-0.06,2.25,0.18,2.96,0.37"/><path d="M42.12,35.72c0.72,0.31,2.03,0.34,2.75,0.31c7.47-0.35,18.63-2.52,32.33-3.5c1.19-0.09,1.91,0.14,2.51,0.3"/><path d="M32.57,49.95c1.32,0.36,3.74,0.44,5.05,0.36c12.17-0.76,38.3-3.85,51.15-4.38c2.19-0.09,3.51,0.17,4.61,0.35"/><path d="M60.48,13.5c0.08,1.41,0.16,2.71-0.16,4.73c-1.9,11.95-9.82,41.52-29.57,55.83"/><path d="M65.97,40.44c4.34,5.6,20.92,23.35,25.7,27.44c1.62,1.39,3.71,1.98,5.33,2.38"/><path d="M49.41,62.24c0.62,0.29,1.77,0.38,2.4,0.29c9.47-1.29,13.88-2.8,21.2-3.09c1.04-0.04,1.67,0.14,2.19,0.28"/><path d="M39.79,75.89c0.66,0.29,2.36,0.45,3.08,0.4c7.12-0.53,29.42-3.43,36.64-3.68c0.92-0.03,2.58,0.04,4.27,0.6"/><path d="M60.38,64.48c0.52,0.5,1.05,1.73,1,2.7c-0.97,16.58-8.72,25.95-26.25,30.94"/><path d="M61,75c3.67,2.67,20.91,16.09,24.89,18.72c1.35,0.89,2.51,1.27,3.86,1.53"/></svg>