<svg><path d="M18.38,17.75c3.57,1.47,8.72,6.05,9.62,8.34"/><path d="M13,42.25c3.71,1.28,9.07,5.51,10,7.5"/><path d="M14.25,90.71c1.88,0.42,2.97,0.2,3.75-1.5c3-6.58,4.62-10.45,7.5-17.7"/><path d="M30.9,38.74c1.99,0.54,3.99,0.63,5.99,0.27c4.59-0.48,10.24-1.51,15.48-2.03c1.67-0.16,3-0.23,4.91-0.35"/><path d="M44.77,15.75c1.05,1.05,1.3,2.25,1.3,3.59c0,0.75,0.03,40.52,0.04,62.29c0,6.45,0.01,11.32,0.01,13.12"/><path d="M45.75,38.62c0,1.62-0.29,3.33-0.81,5.18c-3.03,10.8-8.25,21.62-14.44,31.43"/><path d="M48.67,48.26C52.75,51.5,55,54,56.68,58.2"/><path d="M64.18,29.85c0.92,0.92,1.36,2.02,1.36,3.67c0,3.99,0,32.31,0,48.73c0,5.09,0,9.04,0,10.75"/><path d="M66.29,31.41c2.26-0.2,16.37-2.28,21.31-2.95c2.79-0.38,4.68,0.85,4.68,4.29c0,7.47-0.02,34.79-0.03,49.38c0,4.46,0,7.72,0,8.88"/><path d="M66.5,49.59c5.04-0.31,20.67-1.87,24.78-1.87"/><path d="M66.46,68.8c6.78-0.76,18.24-1.71,24.82-1.71"/><path d="M66.52,89.41c5.08,0,18.13-0.77,24.7-0.77"/></svg>