<svg><path d="M16.63,16.75c4.63,1.65,11.96,6.78,13.12,9.34"/><path d="M12.25,42.75c4.85,1.9,12.54,7.8,13.75,10.75"/><path d="M14.25,90.23c1.71,1.27,3.78,1.32,4.86-0.25c3.14-4.57,6.79-12.16,9.64-17.99"/><path d="M62.85,11c0.26,0.5,0.3,1.1,0.24,1.54c-0.37,2.56-3.56,8.67-6.46,12.1"/><path d="M44.55,24.27c0.69,0.78,1.24,2.21,1.38,3.22c0.82,5.65,2.53,20.3,2.81,25.4"/><path d="M46.34,26.1c9.6-1.4,31.26-2.98,34.79-3.49c1.7-0.24,3.3,1.56,2.93,3.69c-0.83,4.74-2.7,14.79-4.36,23.88"/><path d="M47.77,38.38c9.73-1.38,27.92-2.96,33.88-2.96"/><path d="M48.92,50.91c9.97-0.88,22.34-2.43,30.57-2.69"/><path d="M42.25,61.63c1.87,0.37,4.61,0.11,5.72,0.03c9.24-0.66,24.79-1.69,37.1-2.22c1.67-0.07,3.2,0.1,4.58,0.53"/><path d="M63.11,62.65c1.29,2.08,1.29,3.33,1.29,5c0,6.35-0.07,17.35-0.07,25.47"/><path d="M44.25,78.08c0.83,0.57,3.58,0.28,4.43,0.25C57.75,78,70.25,76,81,75.38c1.04-0.06,3.33-0.23,4.88,0.26"/><path d="M34.34,95.23c0.7,0.31,4.35,0.62,5.54,0.52c14.23-1.28,31.36-3.75,51-4.19c2.99-0.07,5.86,0.19,7.76,1"/></svg>