<svg><path d="M16.63,16c4.45,1.6,11.5,6.6,12.62,9.09"/><path d="M12.75,42.5c4.5,1.76,11.62,7.26,12.75,10"/><path d="M14.25,88.73c1.71,1.27,3.78,1.32,4.86-0.25c3.14-4.57,7.79-13.16,10.64-18.99"/><path d="M38.76,18.63c1.77,0.46,4.99,0.58,6.77,0.46c11.97-0.84,32.71-2.84,43.75-3.19c2.94-0.09,4.71,0.22,6.18,0.44"/><path d="M41.53,33.32c0.42,0.43,0.86,0.79,1.04,1.33c1.47,4.27,3.22,16.07,4.23,23.75"/><path d="M42.91,34.67c8.3-1.58,42.86-4.1,47.16-4.44C93,30,93.5,31.5,93.35,33.84c-0.3,4.82-2.9,14.8-4.89,21.63"/><path d="M57.62,20.91c0.82,0.6,1.47,2.66,1.47,3.87c0,9.78,0.82,18.97,0.82,29.72"/><path d="M73.87,19.5c0.25,0.6,1.38,1.58,1.26,4.27c-0.21,4.8-1.53,21.18-2.06,30.12"/><path d="M47.13,56.41C51.68,55.8,82,53.5,89.3,53.08"/><path d="M44,73.49c1.12,0.31,3.17,0.39,4.28,0.31c9-0.65,27.93-2.32,38.3-2.63c1.86-0.06,2.98,0.15,3.91,0.31"/><path d="M64.8,59.63c0.12,0.33,1.77,2.29,1.77,4.39c0,5.36-0.36,17.7-0.36,26.79"/><path d="M34.25,91.55c1.67,0.58,4.72,0.71,6.38,0.58c20.62-1.63,34.35-1.46,52.79-2.22c2.77-0.11,4.44,0.28,5.83,0.57"/></svg>