<svg><path d="M17.63,16.5c4.81,1.78,12.41,7.32,13.62,10.09"/><path d="M14.25,42.5C18.4,44.35,24.96,50.12,26,53"/><path d="M14.75,88.21c1.5,1.31,3.31,1.36,4.25-0.25C21.75,83.25,26.5,72,29,66"/><path d="M81.93,10.89c0.1,0.23,0.21,0.58-0.2,0.91c-2.42,1.91-16.27,6.1-35.23,8.67"/><path d="M47,26.15c0.03,0.42,0.07,1.09-0.07,1.69c-0.79,3.57-5.32,11.39-11.52,16.18"/><path d="M60.26,25.83c2.83,1.86,7.3,7.65,8.01,10.54"/><path d="M76.28,21c6.05,2.96,15.63,12.18,17.15,16.79"/><path d="M44.3,44.1c0.86,0.36,2.42,0.41,3.28,0.36c8.17-0.46,27.17-2.21,33.36-2.73c1.42-0.12,2.28,0.17,3,0.35"/><path d="M37.03,58.88c1.38,0.51,3.92,0.59,5.3,0.51c14.4-0.86,29.76-3.33,48.95-3.53c2.31-0.02,3.69,0.24,4.84,0.5"/><path d="M59.4,46.71c0.26,0.81,0.48,1.68,0.3,3.16C58.42,60.32,48.54,81.94,31,92.11"/><path d="M57.87,66.68c0.31,0.03,2.46,0.45,3.35,0.4c5.78-0.33,14.91-1.67,19.09-2.67c2.87-0.69,3.5,1.89,2.49,3.63C77,78,57.72,93.73,39.83,99"/><path d="M53.22,72.08c3.88,0.7,24.65,18.05,32.68,21.55c5.38,2.34,8.4,3.42,10.38,3.76"/></svg>