<svg><path d="M17.38,15c4.01,1.25,10.36,5.15,11.37,7.09"/><path d="M12.25,39.25c3.79,1.46,9.8,5.99,10.75,8.25"/><path d="M12.25,87.71c1.5,1.31,3.31,1.36,4.25-0.25C19.25,82.75,22,77,24.5,71"/><path d="M42.29,15.86c1.24,0.56,1.75,0.68,3.71,0.19c3.3-0.83,5.77-1.45,9.88-2.58c3.23-0.89,3.95,0.47,2.9,3.48C56.3,24,42.5,45.04,30.75,48.75"/><path d="M36.76,25.32c3.61,1.07,9.34,4.4,10.24,6.06"/><path d="M78.12,14.39c0.02,0.24,0.05,0.62-0.05,0.96c-0.6,2.03-4.02,6.49-8.7,9.22"/><path d="M58.79,18.26c6.4,4.59,24.63,21.84,31.58,25.72c1.86,1.04,3.17,1.82,4.88,2.19"/><path d="M88.89,24.15c0.03,0.22,0.06,0.56-0.06,0.86c-0.72,1.82-4.87,5.82-10.53,8.27"/><path d="M40.72,49.89c1.11,0.38,3.15,0.49,4.27,0.38c7.09-0.66,23.59-2.77,30.95-3.88c1.83-0.28,2.97-0.32,3.9-0.13"/><path d="M32.32,68.99c0.9,0.29,4.46,0.33,5.37,0.29c11.94-0.58,43.45-4.73,49.01-4.39c1.5,0.09,4.32,0.14,5.07,0.28"/><path d="M51.39,52.5c0.67,1,1.2,2.73,1.2,4.3C52.49,75.75,45.22,92,29.93,97.92"/><path d="M66.5,50.37c0.71,0.66,1.39,2.73,1.42,4.65c0.14,8.61-0.37,22.75-0.37,28.61c0,13.67,6.16,12.65,12.22,12.65c6.4,0,10.59-1.08,11.51-3.28c1.13-2.72,1.38-3.15,1.56-6.83"/></svg>