<svg><path d="M16.13,15.75c4.63,1.56,11.96,6.41,13.12,8.84"/><path d="M12.75,41.25c4.5,1.63,11.62,6.71,12.75,9.25"/><path d="M12.75,87.73c1.71,1.27,3.95,1.43,4.86-0.25C21,81.25,24.89,73.83,27.75,68"/><path d="M64.41,11.16c0.61,0.34,1.91,2.53,2.03,3.2c0.12,0.68-0.06,4.16-0.06,8.76"/><path d="M38.37,25.12c1.43,0.58,4.06,0.72,5.49,0.58c13.19-1.35,34.57-3.09,46.04-3.85c2.38-0.16,3.82,0.28,5.01,0.56"/><path d="M44.09,26.04c0.04,1.56-0.09,4.01-0.09,6.25c0,22.4-6.64,47.93-17.43,59.9"/><path d="M51.21,39.1c1.8,0.25,2.67,0.67,4.33,0.5c10.11-1.01,19.67-2.76,29.03-3.28c2.34-0.13,3.97,1.26,3.61,3.78c-0.95,6.6-2.88,12.45-4.57,21.74"/><path d="M46.1,51.31c1.62,0.25,2.89,0.67,4.69,0.5C60,51,81.89,48.86,94.35,48.1c1.99-0.12,4.51-0.02,5.41,0.23"/><path d="M48.87,63.47c1.07,0.18,3,0.64,4.27,0.54c11.75-0.91,19.1-1.9,29.78-2.26c1.71-0.06,2.78,0,4.06,0.18"/><path d="M65.8,28.9c1.11,0.55,1.77,2.47,1.99,3.57c0.22,1.1,0.01,33.1-0.21,39.95"/><path d="M49.34,74.55c0.43,0.41,0.87,0.76,1.06,1.28c1.49,4.1,2.67,16.02,3.69,23.39"/><path d="M51.01,77.28c10.29-1.47,29.5-3.37,34.52-3.91c1.83-0.2,2.94,1.17,2.67,2.33c-1.09,4.8-2.87,11.64-4.48,18.27"/><path d="M54.29,96.12c5.9-0.61,20.63-1.38,31.77-2.1"/></svg>