<svg><path d="M17.88,17c4.54,1.52,11.73,6.23,12.87,8.59"/><path d="M13.75,43c4.5,1.68,11.62,6.89,12.75,9.5"/><path d="M14.75,90.23c1.71,1.27,3.78,1.32,4.86-0.25c3.14-4.57,9.29-16.16,12.14-21.99"/><path d="M43.9,25.39c1,0.38,2.84,0.42,3.85,0.38c8.82-0.37,19.87-2.32,33.13-2.89c1.67-0.07,2.68,0.18,3.52,0.37"/><path d="M61.65,12.25c0.1,0.29,1.42,1.51,1.42,3.36c0,9.5,0.11,16.6,0.11,21.3"/><path d="M36.52,39.28c1.22,0.54,3.46,0.67,4.67,0.54c14.89-1.6,37.77-3.79,49.87-4.21c2.03-0.07,3.25,0.25,4.27,0.52"/><path d="M60.85,40.4c0.3,0.85,0.17,2.12-0.27,2.56C56.5,47,51.75,50,45.28,55.14c-2.17,1.72-1.62,3.48,1.79,2.86c9.03-1.66,20.52-4.88,33.61-7.43"/><path d="M72.46,42.36c5.36,2.75,13.84,11.33,15.18,15.61"/><path d="M42.96,67.36c0.53,0.55,1.22,2.15,1.34,2.62c0.9,3.73,1.72,16.55,2.34,23.24"/><path d="M45.53,69.5c9.57-0.77,36.09-3.7,39.57-3.6c1.5,0.04,3.01,1.35,2.69,2.73C87.25,71,84.69,84.3,84.1,91.17"/><path d="M57.66,70.23c0.22,0.35,0.54,1.61,0.54,2.06c0,5.59,0.7,12.99,0.76,20.15"/><path d="M70.69,69.1c0.41,0.42,0.76,1.15,0.73,1.7C71.15,76.2,70.15,85.77,69.73,92"/><path d="M32.82,93.63c1.54,0.49,4.38,0.57,5.92,0.49c16.07-0.82,26.46-2.29,56.04-2.42c2.57-0.01,4.12,0.23,5.41,0.48"/></svg>