<svg><path d="M16.38,14.5c4.01,2.05,10.36,8.41,11.37,11.59"/><path d="M12.25,42.75C16.93,44.56,24.33,50.19,25.5,53"/><path d="M14.75,88.73c1.71,1.27,3.97,1.44,4.86-0.25C23,82,25.89,74.83,28.75,69"/><path d="M42.67,17.32c0,4.34-3.49,16.28-5.08,19.18"/><path d="M42.56,21.13c7.2-0.87,41.43-2.92,47.27-3.3c9.99-0.65,2.88,7.91,0.6,9.77"/><path d="M49.21,31.35c0.14,0.27,0.49,1.29,0.73,2.32c1.02,4.44,2.48,16.61,3.11,24.88"/><path d="M50.64,32.47c7.91-1.12,23.7-1.74,29.64-2.43c2.47-0.29,4.28,1.87,4.17,3.09c-0.41,4.47-1.81,15.66-3.91,24.17"/><path d="M51.61,44.43c2.58-0.43,29.33-1.58,31.46-1.75"/><path d="M53.59,55.88c5.7-0.48,18.94-0.43,26.81-1.21"/><path d="M63.88,58.25c0.64,0.54,1.69,2.63,1.69,3.7c0,4.25-0.02,3.68-0.08,6.73"/><path d="M37.04,69.67c1.44,0.14,4.73,0.83,6.14,0.74c16.08-1,27.71-1.85,45.86-2.68c2.38-0.11,3.6,0.06,5.37,0.95"/><path d="M54.76,75.49c0.45,0.91,0.23,3.31-0.53,4.4c-4.15,5.91-9.76,10.72-18.36,15.86"/><path d="M74.55,74.86c5.96,5.92,10.88,12.76,13.86,19.95"/></svg>