<svg><path d="M17.63,14.5c3.57,1.43,9.22,5.87,10.12,8.09"/><path d="M11.75,38c3.79,1.32,9.8,5.44,10.75,7.5"/><path d="M10.5,90.5c1.78,1.25,3.91,1.3,5.03-0.24c3.25-4.5,6.51-10.01,9.47-15.76"/><path d="M55.59,13.44c0.04,0.3,0.16,0.86-0.08,1.2c-2.95,4.22-7.3,8.1-14.98,11.5"/><path d="M37.37,26.6c0.55,0.4,0.88,1.79,0.99,2.59c0.11,0.8-0.77,19.47-0.89,21.45c-0.11,1.79,0.29,3.37,2.41,1.75c3.81-2.92,11.91-9.47,15.92-12.15"/><path d="M52.63,33.62c3.66,3.37,5.99,8.37,7.39,13.28"/><path d="M67.38,21.74c0.96,0.41,2.66,0.36,3.5,0.22c6.83-1.14,18.41-3.34,22.19-3.76c2.46-0.27,3.08,2.36,2.94,4.27c-0.36,5.04-4.5,22.59-7.86,28.38c-2.43,4.21-3.85,2.86-5.69,0.13"/><path d="M79.19,24c0.04,0.67,0.14,1.75-0.09,2.67C76.54,36.77,74.25,44,63.58,53.88"/><path d="M40.86,64.82c0.31,0.58,0.82,1.46,0.98,2.17c1.38,5.86,2.77,20.47,3.58,31.25"/><path d="M42.44,66.68c12.42-1.45,32.75-3.38,40.91-3.96c3-0.21,4.53,0.93,4.36,3.96c-0.32,5.78-2.26,18.36-4.05,28.6"/><path d="M63.06,64.67c0.6,0.54,1.1,1.62,1.09,3.04c-0.02,7.25,0.2,23.53,0.2,25.91"/><path d="M43.92,79.31c3.56-0.28,39.61-2.85,42.55-2.85"/><path d="M45.99,95.34c9.4-0.76,26.89-2.22,37.75-2.37"/></svg>