<svg><path d="M17.63,14.7c4.45,1.78,11.5,7.32,12.62,10.09"/><path d="M14,42.45c4.41,1.63,11.4,6.71,12.5,9.25"/><path d="M14.75,88.43c1.71,1.27,3.78,1.32,4.86-0.25c3.14-4.57,6.29-10.16,9.14-15.99"/><path d="M39.76,22.09c1.08,0.38,3.05,0.45,4.12,0.38c5.17-0.34,33.65-3.07,45.84-3.2c1.79-0.02,2.87,0.18,3.76,0.38"/><path d="M44.94,30.52c0.56,0.59,0.94,1.19,1.12,1.78c0.19,0.59-0.22,25.92-0.21,31.26"/><path d="M47.19,32.09c6.31-0.25,35.07-3.08,36.74-3.24c3-0.3,4.12,1.93,3.75,2.82c-0.04,2-0.47,12.95-0.47,26.52c0,9.68-4.74,1.44-5.76,0.86"/><path d="M47.19,42.25c8.35-0.52,32.43-2.25,39.17-2.69"/><path d="M47.36,52.82c5.99-0.45,32.58-2.25,39.51-2.55"/><path d="M63.36,9.44c1.04,0.48,1.67,2.15,1.88,3.11c0.21,0.96,0,44.64-0.21,50.62"/><path d="M76.03,9.2c2.78,1.07,7.18,4.4,7.88,6.06"/><path d="M37.38,70.86c1.15,0.58,3.24,0.72,4.39,0.58c12.69-1.61,40.36-2.82,54.35-3.7c1.91-0.12,3.05,0.27,4.01,0.56"/><path d="M77.44,58c0.06,0.35,0.91,1.8,0.91,3.99c0,14.75-0.18,26.94-0.18,30.53c0,8.7-5.44,1.29-7.02,0.18"/><path d="M47.89,79.77c4.21,1.42,10.89,5.86,11.94,8.07"/></svg>