<svg><path d="M17.13,17c4.1,1.6,10.59,6.6,11.62,9.09"/><path d="M13,42.5c4.24,1.41,10.94,5.8,12,8"/><path d="M13.25,90.23c2.5,0.77,4.95,0.43,5.86-1.25c3.39-6.24,5.79-13.66,8.64-19.49"/><path d="M37.53,16.71c2.57,2.44,6.65,10.05,7.29,13.85"/><path d="M61.16,14.14c0.02,0.44,0.05,1.13-0.05,1.76c-0.58,3.71-3.9,11.85-8.45,16.83"/><path d="M30.75,36.39c1.12,0.38,3.16,0.42,4.28,0.38c9.09-0.27,22.06-4.83,28.94-4.38c1.85,0.12,2.98,0.18,3.91,0.37"/><path d="M37.48,47.38c0.63,0.45,1.35,2.35,1.27,3.25C38.27,56,37.06,60,36.91,65.13c-0.06,2.06,0.69,3.09,2.25,2.75c6.42-1.38,14.08-3.38,23.76-4"/><path d="M63.49,42.63c0.64,0.45,1.31,3.34,1.27,4.25c-0.27,6.37-0.98,10.12-1.54,21"/><path d="M50.06,37.75c0.62,1.61,1.51,2.88,1.51,4.89c0,18.38-0.57,39.11-18.64,54.33"/><path d="M73.77,19.75c0.96,1,1.42,2,1.42,2.99c0,1.05,0.32,19.87,0.32,22.12c0,18.39-4.79,41.64-14.41,50.39"/><path d="M76.57,22c2.51-0.23,13.39-2.74,15.26-3c3.34-0.46,4.6,3,4.18,4.38c-0.4,1.33-0.63,45.47-0.63,64.16c0,13.96-5.76,5.65-7.85,3.58"/><path d="M75.74,42.5c5.02-0.5,13.17-1.25,19.23-2"/><path d="M75.95,61.75c6.69-0.75,10.87-1.5,18.6-2"/></svg>