<svg><path d="M20.38,19.5c4.01,1.43,10.36,5.87,11.37,8.09"/><path d="M14.25,44.25c4.68,1.19,12.08,4.9,13.25,6.75"/><path d="M12.75,87.21c1.5,1.31,3.31,1.36,4.25-0.25c2.75-4.7,5.5-10.45,8-16.45"/><path d="M51.54,14.19c0.29,0.66-0.04,1.41-0.41,2.23c-2.36,5.36-11.25,17.18-16.65,19.93"/><path d="M65.38,11.56c2.37,0.44,16.8,17.3,23.79,21.07c2.71,1.46,3.68,2.24,6.3,2.71"/><path d="M42.02,38.23c1.22,0.23,3.45,0.29,4.67,0.23c7.76-0.4,21.55-2.72,29.8-3.19c2.03-0.12,3.25,0.11,4.27,0.23"/><path d="M53.04,41.19c0.29,0.66-0.04,1.41-0.41,2.23c-2.36,5.36-11.25,17.18-16.65,19.93"/><path d="M66.88,38.56c2.37,0.44,16.8,17.3,23.79,21.07c2.71,1.46,3.68,2.24,6.3,2.71"/><path d="M41.12,67.53c0.59,0.64,1.35,0.8,1.48,1.34c0.99,4.3,1.81,15.64,2.49,23.37"/><path d="M43.52,68.89c10.58-0.89,36.52-3.26,40.34-3.54c1.4-0.1,2.38,1.06,2.04,2.62c-1.08,4.97-3.07,16.43-4.07,22.07"/><path d="M55.2,68.07c0.24,0.41,0.5,0.75,0.6,1.26c0.85,4.06,1.87,14.78,2.45,22.07"/><path d="M70.14,68.78c0.61,1.22,0.41,1.96,0.35,2.98c-0.34,5.71-1.04,10.86-1.92,18.57"/><path d="M32.89,93.74c1.18,0.29,3.33,0.34,4.51,0.29c12.24-0.49,40.86-3.78,55.77-3.64c1.96,0.02,3.14,0.14,4.12,0.28"/></svg>