<svg><path d="M17.38,15.62c4.1,1.54,10.6,6.32,11.62,8.72"/><path d="M14.62,39.25c3.93,1.46,10.14,5.99,11.12,8.25"/><path d="M11.5,90.23c2.12,1.02,3.28,0.32,4.36-1.25c3.14-4.57,6.39-10.24,9.39-15.24"/><path d="M61.69,10.41c1.2,1.2,1.65,2.09,1.65,3.7c0,3.57-0.09,5.52-0.09,9.01"/><path d="M38.29,24.82c0,3.19-2.52,11.95-3.67,14.07"/><path d="M39.06,27.08c8.94-1.46,40.06-4.83,48.98-4.99c9.95-0.17,1.06,7.06-1.07,9"/><path d="M52.85,35.07c0.13,0.98-0.36,1.57-0.97,2.4c-2.17,2.96-5.12,5.53-12.2,10.41"/><path d="M70.75,34.75c4.89,2.33,10.84,6.78,12.51,9.16"/><path d="M61.02,46.5c0.08,0.66,0.14,1.82-0.41,2.65c-4.74,7.22-12.9,16.73-28.03,26.01"/><path d="M61.66,49.4c7.51,6.29,17.7,14.3,25.07,18.71c2.11,1.26,4.27,2.49,6.58,3.35"/><path d="M45.04,73.49c0.7,0.62,1.21,2.01,1.35,2.87c0.86,5.26,1.65,9.7,2.33,14.64c0.21,1.52,0.41,2.95,0.6,4.2"/><path d="M47.32,75.38c9.71-1.44,20.97-2.2,27.56-2.84c2.97-0.29,4.89,0.65,3.88,3.96c-1.33,4.31-2.66,7.98-3.95,13.17"/><path d="M50.09,92.52c6.99-0.38,14.73-1.1,22.7-1.74c1.52-0.12,3.05-0.24,4.58-0.36"/></svg>