<svg><path d="M19.88,16.25c3.31,1.47,8.54,6.05,9.37,8.34"/><path d="M13.25,40.25c3.62,1.37,9.34,5.62,10.25,7.75"/><path d="M14.25,87.71c1.5,1.31,3.31,1.36,4.25-0.25C21.25,82.75,24,77,26.5,71"/><path d="M36.97,18.41c1.15,0.59,3.66,0.55,4.78,0.45c6.88-0.61,11.63-1.86,15.76-2.62c2.29-0.42,3.49-0.26,2.83,1.68c-0.67,1.94-2.46,10.58-4.07,14.78"/><path d="M42.25,35.25c1.75,0,11.5-1.5,12.75-1.5s2.5-0.5,3.5-0.5"/><path d="M40.73,33.12c0.52,0.97,0.99,2.1,0.66,3.63c-0.38,1.76-2.13,8.51-3.05,12.32c-0.62,2.59,0.37,2.91,1.9,2.41c3.67-1.22,13.76-3.41,16.59-3.58c2.29-0.14,3.45,1.28,3.22,4.6C59.34,63,56.07,79.25,50.63,91.58c-1.88,4.25-5.08,2.42-6.58-1.53"/><path d="M48.88,52.14c0.05,0.37,0.22,1.02-0.09,1.5C45.75,58.25,40.3,63,32.31,67.97"/><path d="M52.24,62.64c0.06,0.47,0.3,1.3-0.11,1.9C48.61,69.75,41.08,77,32.57,82.72"/><path d="M68.58,15.91c1.89,0.84,3.67,0.62,4.78,0.45c3.96-0.61,14.03-1.39,16.24-2.12c2.21-0.73,3.49,0.74,2.83,2.68c-0.66,1.94-1.57,6.83-3.58,14.28"/><path d="M74.75,33.75c1.75,0,11.5-2,12.75-2s2.5,0,3.5,0"/><path d="M72.26,32.12c0.52,0.97,0.99,2.1,0.66,3.63c-0.38,1.76-1.9,7.02-3,11.82c-0.27,1.19,0.34,2.83,1.9,2.41c6.33-1.72,14.84-2.91,17.67-3.08c2.29-0.14,3.66,1.3,3.22,4.6c-2.15,16.01-2.52,29.41-7.75,40.08c-2.04,4.17-5.69,1.67-7.09-1.03"/><path d="M82.63,50.14c0.04,0.39,0.09,1.01-0.09,1.57c-1.09,3.31-7.37,10.56-15.96,15.01"/><path d="M86.51,61.64c0.07,0.52,0.27,1.4-0.13,2.09c-3.5,6.02-11.81,13.52-22.91,19.99"/></svg>