<svg><path d="M16.13,16c4.45,1.78,11.5,7.32,12.62,10.09"/><path d="M12,42c4.59,1.76,11.85,7.26,13,10"/><path d="M13.25,88.73c1.71,1.27,3.78,1.32,4.86-0.25c3.14-4.57,6.29-10.16,9.14-15.99"/><path d="M60.95,10.75c0.46,0.6,1.15,1.95,1.15,3.49c0,2.44,0,1.5,0,8.13"/><path d="M40.23,23.8c1.38,0.32,2.99,0.37,4.36,0.32c7.77-0.28,27.03-2,38.77-2.23c2.29-0.05,3.67,0.15,4.82,0.32"/><path d="M49.77,27.08c2.9,3.97,4.74,8.74,5,11.36"/><path d="M77.49,25.59c0.26,1.11,0.48,2.02,0.27,2.32c-2.01,3-5.46,8.69-6.9,10.52"/><path d="M39.52,41.73c-0.17,3.36-4.12,12.13-5.52,14.13"/><path d="M39.61,43.55c7.64-0.94,34.26-3.85,49.13-4.25c9.09-0.24,2.87,5.64-0.52,9.32"/><path d="M61.81,46.62c0.68,0.48,1.81,2.33,1.81,3.29c0,3.51-0.21,6.13-0.09,9.1"/><path d="M40.05,59.11c1.4,0.13,4.58,0.79,5.95,0.69C57.5,59,71.25,58,87.57,58c2.31,0,3.48,0.06,5.2,0.88"/><path d="M61.32,65c4.05,1.47,12.32,1.99,16.57,2.67c1.91,0.31,2.82,1.22,2.35,2.95c-1.58,5.75-8.68,16.59-13.59,23.12c-4.15,5.51-6.15,0.51-7.62-2.22"/><path d="M61.01,62.2c0.32,0.8,0.25,1.69-0.12,2.59c-2.6,6.18-10.12,18.65-21.8,24.49"/></svg>