<svg><path d="M19.51,15.5c3.88,1.47,10.02,6.05,10.99,8.34"/><path d="M13.62,37.12c3.93,1.43,10.14,5.9,11.12,8.12"/><path d="M11.5,87.73c1.71,1.27,3.03,0.32,4.11-1.25c3.14-4.57,6.29-10.16,9.14-15.99"/><path d="M38.26,36.64c0.99,1.11,1.2,2.68,1.16,4.6C39.02,59.13,39.5,80,24.56,92.72"/><path d="M39.75,37.46c2.62,0.43,5.29,0.23,7.89-0.13c9.68-1.34,24.96-4.23,35.11-5.11c2.07-0.18,4.75-0.34,6.75,0.29"/><path d="M43,51.13c2.25,0.37,3.94,0.58,6.15,0.22c3.77-0.61,7.83-1.82,11.19-2.2c1.96-0.22,3.67-0.39,4.66-0.15"/><path d="M43.7,65.15c1.09,1.55,2.87,6.73,3.17,8.29"/><path d="M66.5,60.37c0,0.88-0.23,1.58-0.75,2.24c-2,2.51-5.3,5.94-7.61,7.58"/><path d="M54.55,57.79c0.57,0.96,0.61,2.18,0.58,2.97C54.52,78.56,49.32,85.64,41.37,92"/><path d="M55.91,77.46c3.84,2.54,6.84,5.41,8.86,9.45"/><path d="M64.25,11.75c1.38,1.8,1.8,2.31,2.25,6.16c3.5,30.21,9.25,59.46,27.33,74.62c5.11,4.29,4.59,2.43,3.9-5.53"/><path d="M88,46.89c0.25,0.98,0.01,2.02-0.36,3.08c-2.39,6.9-8.42,20.78-18.83,29.5"/><path d="M79,14.75c2.85,1.8,7.42,5.92,8.75,9"/></svg>