<svg><path d="M17.75,14.12c4.5,1.89,10.38,6.88,12.5,10.72"/><path d="M14,41.88c4.5,1.74,11.62,7.17,12.75,9.88"/><path d="M13.75,89.48c1.88,0.27,3.11-0.62,4.11-2.25c3.52-5.74,5.79-9.66,8.64-15.49"/><path d="M44.19,13.19c0.93,1.06,1.15,2.48,1.35,3.8c0.68,4.38,1.43,10.03,2.19,16c0.23,1.77,0.46,3.58,0.69,5.38"/><path d="M46.35,15.39c8.85-0.9,23.68-2.66,33.15-3.05c3.6-0.15,4.96,0.57,4.62,4.17c-0.45,4.68-1.74,13.37-3.05,20"/><path d="M47.86,25.21c6.64-0.34,22.64-1.09,34.09-1.5"/><path d="M49.11,35.43c10.26-0.68,19.01-0.93,31.18-1.25"/><path d="M62.6,39.26c0.95,0.95,1.25,2.24,1.25,3.73c0,3.76-0.1,14.31-0.1,16.76"/><path d="M42.88,45.5c3.84,2.2,9.92,9.06,10.88,12.49"/><path d="M81.72,41.94c0.1,1.05-0.09,2.05-0.54,3.01c-2.05,3.43-4.85,7.32-9.4,12.39"/><path d="M35.96,61.41c2.82,1.23,6.09,0.94,9.04,0.67c11.85-1.07,29.34-2.05,41.25-2.32c2.88-0.07,5.45-0.07,8.25,0.66"/><path d="M54.58,65.06c0.06,0.75,0.26,1.96-0.13,3c-3.58,9.44-10.08,20.19-23.42,28.48"/><path d="M69.42,63.57c0.88,0.88,0.93,2.05,0.93,3.86c0,3.66-0.1,10.7-0.1,16.32c0,9.12,1,10.21,12.21,10.21c12.17,0,13.06-1.46,13.06-6.17"/></svg>