<svg><path d="M14.63,15.75c4.1,1.56,10.59,6.41,11.62,8.84"/><path d="M8.75,43c4.32,1.76,11.17,7.26,12.25,10"/><path d="M10.75,88.23c1.71,1.27,3.78,1.32,4.86-0.25c3.14-4.57,6.29-10.16,9.14-15.99"/><path d="M47.03,16.72c0.2,1.67-0.06,3.85-0.7,5.28c-4.13,9.1-9.36,17.65-18.83,28.73"/><path d="M36.8,42.24c0.41,0.98,1.09,1.9,1.09,3.16c0,13.98-0.47,38.88-0.47,49.41"/><path d="M47.52,34.62c0.86,0.9,1.46,1.95,1.53,4.92c0.35,14.25-0.02,39.95-0.02,44.81"/><path d="M70.14,15.39c0.04,0.48,0.22,1.26-0.07,1.92c-1.86,4.22-6.89,13.8-13.31,19.64"/><path d="M70.03,24.87c0.03-0.09,1.49,0.26,2.01,0.23c5.47-0.27,11.64-2.18,19.99-2.61c0.94-0.05,1.51-0.01,1.76,0.04"/><path d="M85.16,26.53c-0.04,0.86,0.1,2.56-0.65,3.6c-5.7,7.89-11.79,14.98-28.61,22.51"/><path d="M62.26,31.24c5.32,1.55,20.51,14.8,29.92,18.6c1.81,0.73,2.96,0.85,4.45,0.93"/><path d="M56.41,64.03c1.06,0.39,2.25,0.42,3.47,0.39c6.62-0.17,24.67-2.34,34.03-3.08c1.21-0.1,1.96,0.07,3.17,0.34"/><path d="M73.54,50.26c0.58,0.98,1.11,2.21,1.11,2.78c0,5.81,0,40.51-0.12,43.97"/><path d="M74.23,64.29c-3.64,8.14-13.41,20.59-20.99,25.2"/><path d="M74.65,64.62c4.33,6.38,15.64,19.02,19.98,22.4c1.18,0.92,2.01,1.52,3.1,1.83"/></svg>