<svg><path d="M15.38,16.25c4.54,1.91,11.73,7.87,12.87,10.84"/><path d="M11.5,41.75C15.91,43.73,22.9,49.91,24,53"/><path d="M13.25,89.23c1.71,1.27,4.42,0.41,5.36-1.25C22,82,26.89,72.33,29.75,66.5"/><path d="M64.66,10.75c0.09,0.86,0.47,2.29-0.17,3.45c-4.44,8.02-13.76,21.58-30.74,33.05"/><path d="M63.89,16.25c4.53,5.49,23.55,22.9,28.55,26.92c1.7,1.36,3.87,1.95,5.57,2.33"/><path d="M53.11,38.23c0.89,0.02,2.62,0.42,3.82,0.28c4.08-0.46,10.7-1.04,15.63-1.65c2.13-0.26,2.76-0.44,3.69-0.44"/><path d="M47.45,47.26c0.31-0.03,1.72,0.26,3.04,0.17c6.76-0.44,27.98-1.78,29.38-1.93c1.4-0.15,2.91,0.74,2.76,2.5c-0.25,2.78-1.51,9.37-2.58,17.57"/><path d="M48.95,57.84c2.48-0.1,29.53-1.8,32.33-1.91"/><path d="M47.36,67.63c5.11-0.6,27.57-1.63,33.91-2.23"/><path d="M48.52,47.5c0.61,0.72,0.9,2.81,0.78,4.38c-0.82,10.32-3.21,32.77-17.39,42.37"/><path d="M48.21,76.88c0.33,0.35,0.67,0.63,0.81,1.07c1.15,3.43,3.02,14.39,3.8,20.55"/><path d="M50.27,78.21c7.16-1.21,28.27-2.78,32.14-3.22c2.08-0.24,3.58,1.51,3.06,3.44c-1.15,4.27-2.73,9.82-3.07,15.89"/><path d="M52.99,96.49c4.55-0.51,24.6-1.39,30.84-2.17"/></svg>