<svg><path d="M19.76,17.5c3.53,1.31,9.11,5.38,9.99,7.42"/><path d="M13.25,36.88c4.06,1.48,10.48,6.1,11.5,8.41"/><path d="M12.5,82.81c1.5,1.16,2.81,0.71,3.75-0.72c2.75-4.18,5.5-10.54,8-15.88"/><path d="M36.75,28.56c2.62,0.69,5.27,0.47,7.62,0.19c12.38-1.49,31-3.12,44.27-3.44c2.4-0.06,4.86-0.3,7.11,0.14"/><path d="M44.78,15.75c0.92,0.92,1.54,2.24,1.66,3.25c0.43,3.65,1.41,10.7,2.46,17.73c0.32,2.13,0.64,4.32,0.96,6.52"/><path d="M62.55,14c0.97,0.97,1.66,2.48,1.66,3.5c0,4.38-0.09,12.5-0.09,20.12"/><path d="M81.21,13.5c1.02,1.02,1.02,2.49,0.91,3.5C81.5,23,81,29.75,80.16,37"/><path d="M50.67,40.25c4.06-0.59,16.48-1.79,25.33-2.46c2.42-0.18,4.49-0.32,5.94-0.4"/><path d="M38.12,50.88c-0.12,3.32-2.91,14.26-3.9,16.24"/><path d="M38.86,51.92c2.85-0.38,38.64-4.79,52.8-4.79c10.59,0,1.02,6.53-0.23,7.66"/><path d="M45.25,62.64c0.75,0.75,1.04,1.86,1.04,3.03c0,0.54,0.08,8.49,0.08,15.58c0,2.04,0,3.92,0,5.41"/><path d="M46.75,64.04c3.27-0.24,32.1-3.48,34.54-3.63c2.87-0.18,3.51,2.55,3.39,4.13c-0.43,5.58-1.55,12.08-2.71,17.26c-1.41,6.35-4.59,1.06-5.69-0.16"/><path d="M63.1,51.88c0.82,0.82,0.98,1.99,0.98,3.28c0,0.54,0.09,21.54,0,34.71c-0.03,4-0.06,6.99-0.08,8"/></svg>