<svg><path d="M18.38,17c4.19,1.78,10.82,7.32,11.87,10.09"/><path d="M13.25,41.75c4.68,2.07,12.08,8.53,13.25,11.75"/><path d="M14.75,89.73c1.71,1.27,3.78,1.32,4.86-0.25c3.14-4.57,8.79-15.16,11.64-20.99"/><path d="M81.7,10.43c0.1,0.28,0.21,0.72-0.21,1.12c-2.49,2.35-16.75,7.51-36.28,10.66"/><path d="M48.26,26.62c0.03,0.52,0.07,1.35-0.07,2.09c-0.8,4.41-5.4,14.1-11.69,20.03"/><path d="M61.21,26.94c3.32,2.69,8.58,11.06,9.41,15.24"/><path d="M79.2,22.68c5.66,3.26,14.63,13.43,16.05,18.5"/><path d="M61.87,48.71c0.05,0.3,0.21,0.87-0.1,1.19c-4.04,4.23-8.76,7.99-17.97,11.36"/><path d="M41.53,59.25c0.67,0.76,0.94,2.47,1.11,4.03c0.61,5.71,2.52,27.51,3.13,35.22"/><path d="M44.17,76.41c3.9-0.33,15.69-2.15,16.62-2.15s2.23,0,2.97,0"/><path d="M70.63,57.13c0.93,0.17,1.67,0.49,2.97,0.49c1.3,0,15.06-1.98,16.55-2.14c1.49-0.16,2.72,0.82,2.6,1.81c-1.12,9.56-3.1,31.01-4.22,38.92"/><path d="M70.5,73.11c0.93,0.16,1.67,0.49,2.97,0.49s15.69-1.82,17.17-1.98"/><path d="M45.71,95.7c2.42,0,40.1-2.64,42.89-2.81"/></svg>