<svg><path d="M18.38,15.75c4.19,1.3,10.82,5.33,11.87,7.34"/><path d="M15,40.5c4.06,1.32,10.48,5.44,11.5,7.5"/><path d="M16.25,86.23c1.71,1.27,3.78,1.32,4.86-0.25c3.14-4.57,7.29-13.16,10.14-18.99"/><path d="M44.23,16.14c0.87,0.27,3.38,0.3,4.25,0.27c9.03-0.31,23.52-1.16,36.39-2.17c1.44-0.11,3.24,0.13,3.96,0.26"/><path d="M43.92,24.98c0.92,0.28,2.33,0.78,4.15,0.58c9.43-1.06,31.2-2.42,37.12-2.92c1.6-0.14,3.26,0.95,2.62,2.99c-0.8,2.56-1.81,6.18-2.42,8.88"/><path d="M46.55,37.59c1.29,0,2.86-0.05,4.65-0.12c10.07-0.43,25.9-2.37,36.21-2.37"/><path d="M46.22,25.96c0.43,1.26,0.45,3.03,0.31,5.26c-1.76,27.31-4.03,46.52-14.78,58.62"/><path d="M55.86,44.04c0.2,0.2,0.4,0.37,0.48,0.63c0.68,2.02,1.49,7.6,1.95,11.22"/><path d="M57.08,45.11c4.46-0.86,21.34-3.45,23.64-3.4c1.28,0.03,2.53,1.03,2.22,2.15c-0.65,2.32-2.07,5.51-2.81,8.77"/><path d="M58.39,54.71c2.69-0.3,19.12-1.32,22.81-1.78"/><path d="M49.5,62.75c0.83,0.1,1.94,0.22,3.25,0.14c10.5-0.64,27.53-2.36,33.22-2.8c2.38-0.18,2.94,1.66,2.8,2.77c-0.54,4.24-1.81,8.29-2.89,11.4"/><path d="M68.28,62.84c0.51,0.28,1.03,2.08,1.03,2.64c0,3.52-0.17,6.19-0.17,8.32"/><path d="M53.13,76.66c3.56-0.31,31.56-2.04,35.63-2.35"/><path d="M52.99,63.64c0,1.36,0.01,1.83,0.04,3.13c0.15,5.79-0.29,9.2-0.29,13.11c0,11.93-1.01,13.88,20.83,13.88c19.26,0,21.22-2.18,21.22-9.79"/></svg>