<svg><path d="M16.63,16c4.1,1.52,10.59,6.23,11.62,8.59"/><path d="M12.75,40c4.32,1.76,11.17,7.26,12.25,10"/><path d="M10.25,88.73c1.71,1.27,3.78,1.32,4.86-0.25c3.14-4.57,6.29-10.16,9.14-15.99"/><path d="M34.2,25.23c1.45,0.45,4.12,0.53,5.57,0.45c7.59-0.41,37.23-3.93,51.91-4.79c2.42-0.14,3.88,0.22,5.09,0.44"/><path d="M55.24,12.85c0.82,0.31,1.32,1.41,1.48,2.04c0.17,0.63,0.5,20.33,0.33,24.26"/><path d="M68.8,12c0.82,0.31,1.32,1.41,1.48,2.04S69.42,29.19,68.93,35"/><path d="M57.56,37.55c3.8-0.38,10.64-1.59,13.46-1.73"/><path d="M44.93,13.45c0.33,0.76,0.46,1.36,0.46,2.32c0,8.71-1.49,22.31-9.63,26.29"/><path d="M80.12,11.24c0.73,1.04,1.36,2.26,1.36,3.86c0,2.15-0.22,14.62-0.22,16.16c0,4.93,0.49,5.92,6.3,5.92c3.94,0,5.12,0,6.95-1.35"/><path d="M38.46,46.42c0,3.43-2.77,12.87-4.03,15.16"/><path d="M38.3,48.48c15.45-1.48,44.37-3.45,51.41-3.82c11-0.58,2.33,7.07-0.41,9.15"/><path d="M44.53,60.78c0.44,0.28,1.37,2.11,1.46,2.67c0.09,0.56-0.06,24.05-0.15,27.56"/><path d="M45.88,62.84c2.76-0.2,33.68-2.64,35.74-2.76c2.42-0.14,3.35,2.47,3.35,3.76c0,6.41,0.15,12.65-0.61,21.63c-0.62,7.28-5.13,2.63-6.29,1.06"/><path d="M62.99,51.15c0.44,0.28,1.37,2.11,1.46,2.67c0.09,0.56-0.06,40.55-0.15,44.07"/></svg>