<svg><path d="M20.38,17.75c3.57,1.38,9.22,5.94,10.12,8.09"/><path d="M15,44.75c3.79,1.28,9.8,5.26,10.75,7.25"/><path d="M15.160000,91.180000C16.400000,91.690000,17.650000,91.410000,18.390000,90.150000C21.260000,85.250000,24.140000,79.250000,26.750000,73.000000"/><path d="M62.43,12.25c1.16,1.16,1.38,2.12,1.38,3.75c0,1.92,0,5,0,7.77"/><path d="M39.95,26.66c2.52,0.62,5.25,0.4,7.81,0.14c9.38-0.95,24.11-2.68,34.87-3.59c2.82-0.24,5.61-0.19,8.41,0.23"/><path d="M49.91,30.9c4.13,4.02,6.01,8.13,6.39,10.78"/><path d="M76.37,27.19c0.26,0.69,0.32,1.44,0.18,1.79c-1.3,3.27-4.17,8.4-5.94,11.18"/><path d="M41.95,43.93c1,1,1.17,2.19,1.17,3.71c0,1.22-0.2,29.22-0.11,41.6c0.02,3.07,0.03,5.19,0.03,5.69"/><path d="M44.16,45.88c5.99-0.63,32.61-3.04,39.73-3.59c3.51-0.27,5.54,0.24,5.54,3.96c0,7.64,0,41.8,0,45.31c0,9.75-6.33,2.45-8.35,0.25"/><path d="M50.01,57.47c1.65,0.49,3.21,0.29,4.88,0.1C59.9,57,69.32,55.6,75.38,55.15c1.58-0.12,3.53-0.43,5.12-0.14"/><path d="M63.25,47.22c1.14,1.14,1.45,2.28,1.45,4.27c0,6.72-0.08,10.7-0.08,14.63"/><path d="M53.36,67.5c0.57,0.57,0.89,1.37,1.23,2.3c0.63,1.75,1.45,5.95,2.23,10.14c0.23,1.24,0.44,2.42,0.59,3.45"/><path d="M55.32,67.94c5.75-0.73,13.92-1.71,18.18-1.96c2.53-0.15,3.74,0.09,3.24,2.77c-0.53,2.84-1.32,6.2-2.01,9.24"/><path d="M58.31,81.04c3.55-0.16,9.46-1.16,14.67-1.67c1.24-0.12,2.4-0.22,3.42-0.27"/></svg>