<svg><path d="M18.38,14.75c4.19,1.65,10.82,6.78,11.87,9.34"/><path d="M14,42.5c4.77,1.85,12.31,7.62,13.5,10.5"/><path d="M14.75,90.68c1.65,1.34,4.14,0.9,5.18-0.76c3.03-4.84,5.56-10.25,8.32-16.42"/><path d="M36.57,25.06c1.08,0.38,3.05,0.45,4.13,0.38c5.62-0.35,36.38-3.4,48.22-3.56c1.79-0.03,2.87,0.18,3.77,0.38"/><path d="M50.51,13.69c0.89,0.35,1.42,1.6,1.6,2.31c0.18,0.71,1.5,17.07,1.32,21.5"/><path d="M74.85,11.75c0.89,0.35,1.42,1.6,1.6,2.31c0.18,0.71-0.42,12.84-0.95,19.4"/><path d="M53.43,35.76c3.37,0,21.26-1.79,24.3-1.95"/><path d="M38.25,46.77c1.25,1.23,1.93,2.96,2.11,4.68c1.06,10.25,1.81,39.96,1.81,44.57"/><path d="M41.06,49.21c9.87-0.96,41.96-4.76,48.17-5.5c2.01-0.24,3.7,0.97,3.63,3.61c-0.35,13.43-0.1,27.18-2.11,41.85c-0.97,7.07-4.63,4.82-7.25,0"/><path d="M63.44,36.84c1.01,1.2,1.81,2.65,1.81,4.33c0,0.96-0.1,49.52-0.1,52.17"/><path d="M53.43,64.88c-1.44,3.85-5.18,9.31-8.17,11.49"/><path d="M47.8,56.9c0.47,0,0.89,0.48,1.12,0.84c3.73,5.91,7.96,11.98,11.42,16.16c0.39,0.47,0.76,0.64,1.18,0.77"/><path d="M77.87,61.55c-1.5,3.83-5.38,9.26-8.49,11.43"/><path d="M73.09,53.48c0.5,0,0.99,0.48,1.18,0.88c2.93,6.01,7.36,12.69,12.1,16.87c0.48,0.42,0.81,0.67,1.25,0.81"/></svg>