<svg><path d="M16.88,17.25c3.66,1.47,9.45,6.05,10.37,8.34"/><path d="M12,41.75c4.41,1.63,11.4,6.71,12.5,9.25"/><path d="M13.25,90.11c1.75,0.64,3.04,0.5,3.9-1.28c2.53-5.17,5.05-11.49,7.35-18.08"/><path d="M39.88,13.75c3.37,1.85,8.69,7.62,9.54,10.5"/><path d="M31.37,32.28c0.74,0.3,3.56,0.35,4.3,0.3c9.14-0.54,16.37-1.65,23.02-1.92c1.24-0.05,3.09,0.15,3.71,0.3"/><path d="M34.85,44.06c0.39,0.12,2.76,0.13,3.15,0.12c4.03-0.14,9.82-0.43,14.43-1.05c0.64-0.09,3.34,0.06,3.66,0.12"/><path d="M35.8,57.05c0.35,0.07,2.46,0.57,2.81,0.57c4.89-0.12,11-1.18,14.55-1.18c0.58,0,2.98,0.03,3.27,0.06"/><path d="M35.56,71.12c0.36,0.41,0.77,0.74,0.88,1.29c1.02,4.78,1.81,15.33,2.84,22.34"/><path d="M37.29,72.29c6.61-1.01,12.82-1.39,18.91-2.41c1.53-0.25,3.45,1.68,3.24,2.84c-0.91,4.83-1.7,8.77-3.32,16.81"/><path d="M40.02,91.74c4.93-0.62,9.48-1.24,17.62-1.62"/><path d="M73.18,13.64c0.03,0.8,0.07,2.06-0.07,3.21c-0.83,6.76-6.14,20.75-12.04,30.68"/><path d="M72.86,31c0.46,0.21,1.81,0.24,2.27,0.21c3.09-0.15,11.12-1.97,17.01-2.76c0.78-0.1,2.63,0.1,3.01,0.21"/><path d="M62.15,55.88c1.02,0.39,2.88,0.47,3.9,0.39C76.12,55.5,79.1,54,95.44,53.31c1.69-0.07,2.71,0.19,3.56,0.38"/><path d="M79.29,33.52c0.27,0.43,0.83,3.24,0.88,4.11c0.05,0.87-0.03,54.85-0.09,60.26"/></svg>