<svg><path d="M21.88,17c3.57,1.3,8.49,5,10.12,7.59"/><path d="M16.88,39.62c3.93,1.43,10.14,5.9,11.12,8.12"/><path d="M16.86,86.03c1.02,0.34,2.14-0.16,3.32-1.81c3.19-4.47,5.89-10.31,8.57-16.22"/><path d="M59.87,16.38c0.19,1.1,0.04,2.02-0.48,2.95c-2.63,4.75-7.62,11.68-16.69,18.43"/><path d="M58.99,22.4c0.56,0,1.81-0.12,3.38-0.31c4.47-0.53,10.59-1.35,12.25-1.67c2.75-0.54,3.63,1.58,2.14,3.48C73.2,28.41,69,33,63.43,40.34"/><path d="M45.53,41.57c0.95,0.95,1.49,2.1,1.81,3.81c0.93,4.92,1.47,14.28,2.08,22c0.11,1.38,0.22,2.7,0.34,3.94"/><path d="M48.19,43.46c9.93-1.13,25.06-3.09,34.32-4.07c3.93-0.42,6.11,0.85,5.63,4.11c-0.74,5.01-1.91,12.66-3.66,20.87c-0.26,1.22-0.53,2.46-0.82,3.69"/><path d="M65.55,43.65c0.96,0.96,1.37,2.05,1.41,3.6c0.16,6.84-0.22,15.54-0.22,18.93"/><path d="M49.67,56.13c7.83-0.88,29.45-3.25,35.66-3.63"/><path d="M50.8,69.01c9.7-1.14,21.82-2.42,32.36-3.26"/><path d="M42.2,79.6c0,4.85-6.55,12.01-8.26,13.4"/><path d="M54.12,78.5c1.8,2.56,3.51,9.61,3.96,13.6"/><path d="M68.9,76.67c2.4,2.55,6.19,10.48,6.79,14.45"/><path d="M87.29,77.12c3.16,2.43,8.17,9.98,8.96,13.76"/></svg>