<svg><path d="M18.63,14.75c3.84,1.3,9.91,5.33,10.87,7.34"/><path d="M16.12,36.5c3.66,1.19,9.46,4.9,10.38,6.75"/><path d="M14.12,85.01c1.5,0.72,2.84,0.04,3.74-1.27C21,79.17,25.39,71.33,28.25,65.5"/><path d="M41.76,17.82c1.78,0.74,4.55,0.44,6.38,0.22c7.25-0.87,22.61-2.93,30.24-3.53c2.18-0.17,4.53-0.32,6.67,0.22"/><path d="M39.1,30.65c0.81,0.81,1.15,1.73,1.47,2.7c0.78,2.38,1.33,5.4,1.99,9.14c0.28,1.59,0.54,3.13,0.75,4.47"/><path d="M41.21,31.87C48.39,30.84,73,28,86.03,27.24c3.59-0.21,5.47,1.26,4.74,4.67c-0.55,2.55-1.22,5-2.23,8.18c-0.44,1.38-0.91,2.75-1.41,4.05"/><path d="M55.09,20.28c0.82,0.81,1.12,2.1,1.12,3.41c0,2.71,0.29,10.31,0.5,19.51"/><path d="M70.7,17.9c0.82,0.82,0.96,1.73,0.93,2.97C71.5,26.75,71,33,70.67,42.43"/><path d="M44.65,45.34c9.23-0.97,33.71-2.94,42.21-3.24"/><path d="M45.09,55.75c2.06,0.83,4.66,0.36,6.78,0.15c6.4-0.63,17.08-1.87,23.74-2.31c2.3-0.15,4.6-0.3,6.86,0.25"/><path d="M37.25,68.11c2.59,0.93,5.97,0.6,8.64,0.26c11.48-1.48,27.42-2.97,39.75-3.6c2.85-0.14,5.57-0.29,8.38,0.32"/><path d="M63.27,68.97c0.88,0.88,1.24,2.03,1.24,3.95C64.51,80,64.5,86.11,64.5,91c0,6.75-4.5,1.75-6.34-0.46"/><path d="M49.8,78.32c0.13,0.84-0.19,1.71-0.82,2.26C44.75,84.25,40.75,87,33.5,91.12"/><path d="M78.4,76.92c4.8,2.3,10.85,7.83,13.35,12.26"/></svg>