<svg><path d="M16.13,17.25c4.28,1.6,11.05,6.35,12.12,8.84"/><path d="M13.75,43.5c4.32,1.32,10.92,5.19,12,7.25"/><path d="M15,86.96c1.75,0.42,3.31-0.39,4.25-2c2.75-4.7,5-9.45,7.5-15.45"/><path d="M64.48,13.13c0.88,0.88,1.35,2.12,1.35,3.65c0,1.71-0.06,2.84-0.06,5.71"/><path d="M39.6,25.73c2.99,0.65,6,0.71,9.01,0.21c10.76-0.99,22.57-2.96,35.28-4.09c3.62-0.32,7.17-0.7,10.72-0.02"/><path d="M41.74,26.5c0.82,0.82,0.97,2.13,0.93,3.88C42,59.38,38.62,77.12,28.06,93.47"/><path d="M48.26,39.87c3.99,0.63,5.82,0.46,8.86-0.03c10.48-1.7,23.21-3.2,28.49-3.73c3.47-0.35,5.5,0.64,4.66,4.56c-0.77,3.59-1.16,4.63-2.21,8.78"/><path d="M57.49,31.37c0.88,0.88,1.17,1.87,1.32,2.7c0.15,0.83,1.31,11.93,1.73,17.68"/><path d="M73.82,29.09c0.79,0.79,1.15,1.65,1.07,2.95C74.62,36.5,74.38,44,73.83,50.5"/><path d="M46.97,53.89c3.2,0.18,6.38,0.04,9.53-0.42c7.16-0.88,18.25-1.95,25.39-2.52c2.94-0.27,5.89-0.25,8.85,0.06"/><path d="M51.91,73.29c4.72-1.17,7.46-2,10.22-2.52c1.34-0.3,2.71-0.42,4.08-0.35"/><path d="M49.77,62.95c0.83,0.83,1.14,2.05,1.14,3.3c0,1.79,0.01,16.9,0.01,23.5c0,3.87,0.12,4.67,3.92,2.53c4.57-2.56,6.84-3.83,11.57-6.58"/><path d="M93.14,61.33c0,1.05-0.55,2.02-1.33,2.64c-4.31,3.41-8.7,6.35-14.56,9.29"/><path d="M72.8,58.25c0.91,0.91,0.92,2,0.92,3.42c0,1.87-0.09,19.58-0.09,22.85c0,7.99,1.57,9.82,11.71,9.82c9.49,0,12.68-0.83,12.68-7.72"/></svg>