<svg><path d="M21.38,18.25c3.66,1.3,9.45,5.33,10.37,7.34"/><path d="M14.75,40.5c3.79,1.15,9.8,5.22,10.75,7"/><path d="M12.36,90.86c1.54,0.26,2.6-0.13,3.34-1.65c2.73-5.67,4.95-11.6,7.43-18.83"/><path d="M40.41,24.87c2.04,0.66,4.75,0.51,6.87,0.27c7.16-0.81,19.94-2.72,28.61-3.51c2.19-0.2,4.23-0.37,6.41,0.07"/><path d="M58.79,11.1c0.88,0.88,1.09,2.12,1.09,3.65c0,8.26-0.02,16.4,0.04,23c0.02,2.18,0.02,4.13-0.02,5.75"/><path d="M58.7,24.69c0,1.06-0.43,2.29-1.89,4.08C50.7,36.26,40.69,45.01,32.56,48.7"/><path d="M63.75,28.5c6.75,2.25,15,7.75,19.75,13"/><path d="M58.45,42.75c0,1.12-0.34,2.15-0.92,3.02C53.25,52.25,44.62,61.62,27.96,71"/><path d="M59.49,44.49c4.12,3.35,17.94,12.31,26.13,17.14c2.91,1.72,6.09,3.16,9.17,4.54"/><path d="M60.55,58.08c0.87,0.87,1.03,2.42,1.03,4.03c0,11.96,0.04,24.42,0.04,28.49c0,9.64-4.42,2.23-5.65,1.21"/><path d="M44.81,66.14c2.64,1.13,6.82,4.64,7.48,6.39"/><path d="M37.32,87.31c1.14,0.66,2.18,0.83,3.38,0.1c0.86-0.52,7.78-5.16,11.42-7.66"/><path d="M78.33,64.43c0.08,0.76-0.11,1.45-0.54,2.09c-1.28,1.61-3.28,3.86-7.44,7.08"/><path d="M69.46,79.07c3.35,0.8,12.05,7.12,13.33,9.7"/></svg>