<svg><path d="M 16.63,17.5 c 4.45,1.52 11.5,6.23 12.62,8.59"/><path d="M 13.75,41 c 4.5,1.59 11.62,6.53 12.75,9"/><path d="M 13.25,89.73 c 1.71,1.27 3.78,1.32 4.86,-0.25 3.14,-4.57 8.79,-16.66 11.64,-22.49"/><path d="M 64.69,10.25 c 0.74,0.34 1.96,1.67 1.96,2.36 0,2.52 -0.23,8.49 -0.1,10.62"/><path d="M 40.42,24.01 c 2.09,0.33 3.92,0.56 6.33,0.47 C 59.5,24 71.38,22.77 88.04,22.1 c 2.45,-0.1 3.7,0.04 5.53,0.6"/><path d="M 75.96,27.93 c 0.35,0.45 0.7,0.81 0.18,1.61 -4.71,7.16 -10.89,11.71 -21.87,16.9"/><path d="M 56.56,31.35 c 7.37,2.18 17.98,9.26 21.83,14.45"/><path d="M 47.67,31.3 c 0.42,0.2 1.3,1.47 1.38,1.86 0.61,2.87 -0.54,16.6 -0.58,17.53 -0.04,0.93 0.91,1.41 1.73,1.33 13.05,-1.27 31.65,-2.36 35.97,-2.55"/><path d="M 86.88,28.08 c 0.42,0.2 1.3,1.47 1.38,1.86 0.08,0.39 -1.31,14.7 -1.68,22.42"/><path d="M 42.9,61.73 c 0.75,0.9 0.88,2.34 1.01,3.98 0.34,4.29 1.75,30.58 1.75,33.29"/><path d="M 44.13,63.46 c 6.68,-0.76 46.19,-2.96 47.52,-2.96 1.93,0 3.16,0.57 3.16,2.27 0,3.59 -2.07,23.36 -3.35,28.72 -2.06,8.65 -5.45,3.74 -7.24,1.94"/><path d="M 66.54,53.25 c 0.29,0.5 0.37,2.46 0.1,3.08 -3.545644,11.817751 -4.500634,16.741616 -5.805787,22.015808"/><path d="M 53.824029,80.456421 c 8.3,-2.46 15.55,-4.46 22.99,-6.56"/><path d="M 73.08,66.81 c 3.08,2.76 7.96,11.36 8.73,15.66"/></svg>