<svg><path d="M16.13,16.5c3.75,1.69,9.68,6.96,10.62,9.59"/><path d="M12.25,42.75c3.79,1.54,9.8,6.35,10.75,8.75"/><path d="M11.25,87.62c2,0.62,3.71,0.48,4.77-1.28c3.09-5.1,6.67-13.84,9.48-20.35"/><path d="M48.53,11.64c0.03,0.35,0.06,0.92-0.05,1.43c-0.65,3.01-4.35,9.61-9.42,13.65"/><path d="M34.37,27.51c0.85,0.46,1.36,2.07,1.53,2.99c0.17,0.92,0.36,63.94,0.17,66.22"/><path d="M35.7,29.26c1.49-0.1,19.41-2.76,20.76-2.95c2.29-0.32,2.82,1.16,2.77,2.63C59,36.75,57.25,52.5,56.7,56.53"/><path d="M36.46,42.03c5.54-0.78,15.29-1.53,21.78-2.16"/><path d="M36.37,55.1c4.11-0.43,14.88-1.35,20.71-1.97"/><path d="M36.5,69.5c1.75,0,15.75-1.75,17.5-1.75s2.75,0,3.75,0"/><path d="M36.25,85c1.75,0,16.25-2.25,18-2.25s2.75,0,3.75,0"/><path d="M65.75,22.5c1,0.36,2.85,0.48,3.84,0.36c5.23-0.65,16.02-2.63,23.4-2.95c1.67-0.07,2.67,0.17,3.51,0.35"/><path d="M67.418125,23.547291c0.79,0.42,1.26,1.89,1.42,2.73c0.16,0.84,0,16.6-0.16,21.85"/><path d="M62.8,49.034375c0.91,0.43,2.57,0.49,3.48,0.43c6.47-0.42,24.25-2.54,31.24-3.02c1.51-0.1,2.42,0.2,3.18,0.42"/><path d="M85,23.75c0.42,1,0.78,2.92,0.53,5.35C83.56,48.46,76.75,80.25,57,95"/><path d="M82.74,60.87c0.74,1.19,1.38,1.59,1.38,3.43C84.11,68,84,78,83.81,84c-0.34,10.5,2.18,11.53,7.94,11.53s6.76-1.78,6.76-9.12"/></svg>