<svg><path d="M18.63,18c3.84,1.47,9.91,6.05,10.87,8.34"/><path d="M15,40.75c4.06,1.46,10.48,5.99,11.5,8.25"/><path d="M16.25,90.73c1.38,0.61,2.57-0.09,3.26-1.47c3.48-6.88,6.01-11.58,8.74-17.76"/><path d="M40.28,25.46c2.35,0.41,4.95,0.42,7.24,0.13c10.7-1.35,27.73-2.97,38.49-3.95c2.09-0.19,4.3-0.13,6.33,0.44"/><path d="M52.09,15.38c0.95,0.95,1.48,2.04,1.6,2.89c0.81,5.73,1.64,12.16,2.06,15.05"/><path d="M76.96,13.19c0.42,1.43,0.28,2.46-0.08,3.87c-1.63,6.44-1.85,7.59-3.53,14.32"/><path d="M44.36,38.64c0.81,0.81,1.39,1.99,1.64,3.07c1.07,4.7,1.99,11.06,2.63,14.77c0.22,1.26,0.51,3.53,0.66,4.25"/><path d="M46.56,40.51c8.31-1.39,27.69-3.76,35.44-4.47c3.1-0.28,4.82,1.44,4.27,4.47c-0.67,3.67-2.28,10.08-3.34,14.54c-0.38,1.58-0.71,2.97-0.97,4.02"/><path d="M48.57,49.53c9.06-1.03,24.81-2.78,35.26-3.21"/><path d="M50.21,59.21C58.75,58.5,72.24,57.02,81.3,56.69"/><path d="M37.82,72.85c2.07,0.57,4.57,0.55,6.68,0.28c15.12-1.88,30.62-3,44.13-3.84c2.41-0.15,5.86,0.09,7.86,0.65"/><path d="M64.38,63.01c0.74,0.99,0.71,2.27,0.53,3.25C62.25,80,53,91,38,96.56"/><path d="M65.24,71.61c5.67,5.04,13.88,12.77,22.53,20.16c2.12,1.81,4.47,3.38,6.96,4.58"/></svg>