<svg><path d="M18.13,15c3.75,1.52,9.68,6.23,10.62,8.59"/><path d="M12.5,39c4.24,1.32,10.94,5.44,12,7.5"/><path d="M11.75,89.21c1.5,1.31,3.31,1.36,4.25-0.25c2.75-4.7,5.5-10.45,8-16.45"/><path d="M55.66,24.54c0.7,0.36,1.99,0.48,2.68,0.36c10.19-1.76,20.36-2.16,30.27-3.1c1.16-0.11,1.87,0.17,2.45,0.35"/><path d="M55.25,34.24c0.55,0.47,1.24,0.83,1.34,1.45c0.74,4.5,2.89,16.59,3.93,25.11"/><path d="M57.35,35.94c8.31-0.9,26.5-4.1,32.16-4.24c2.35-0.06,2.83,1.73,2.73,3.14c-0.34,4.85-2.03,15.79-3.89,23.74"/><path d="M59.73,47.17c8.25-0.92,20.18-2.92,31.15-3.51"/><path d="M60.57,59.39c7.28-0.94,18.72-2.74,28.2-2.74"/><path d="M53.82,70.72c1,0.72,2.8,0.81,3.82,0.72c10.86-0.94,21.62-2.47,33.37-2.94c1.66-0.07,2.66,0.34,3.49,0.7"/><path d="M71.8,10.63c0.51,0.56,2.2,1.87,2.2,4.79c0,1.12-0.07,63.99-0.17,70.96"/><path d="M39.53,16.5c2.89,1.74,7.47,7.17,8.19,9.88"/><path d="M34.16,39c3.45,0.99,8.92,4.09,9.79,5.63"/><path d="M33,60.94c1.79,0.85,2.99,0.43,3.78,0.21c0.8-0.21,6.37-2.99,7.56-3.42c1.19-0.43,2.99,1.07,2.19,2.35s-3.19,6.19-3.78,7.26c-0.6,1.07-0.4,2.99,0.8,4.48s2.19,3.2,2.79,4.48c0.6,1.28,0.6,2.35-0.6,3.42c-1.19,1.07-7.17,7.04-8.36,7.47"/><path d="M34,88.07c2.36-0.24,7.07-0.85,10.61-0.37c3.54,0.49,23.64,3.76,27.12,4.39c9.43,1.71,16.7,2.19,23.78,1.34"/></svg>