<svg><path d="M16.63,17.75c4.81,1.47,12.41,6.05,13.62,8.34"/><path d="M13.5,44.25c4.77,1.37,11,4.88,13.5,8.25"/><path d="M15.75,92.54c2,0.46,3.51-0.41,4.51-2.3c2.92-5.5,5.34-11.73,7.99-18.75"/><path d="M56.53,13.75c0,1.38-0.54,2.38-1.02,3.27c-3.07,5.64-6.97,10.41-14.01,17.27"/><path d="M56,22.64c1.54,0.16,3.74,0.01,6.27-0.3c5.7-0.72,12.6-2.21,18.23-3.07c2.12-0.32,4.12-0.39,6.25,0"/><path d="M39.75,40.39c2.72,0.55,5.43,0.51,8.15-0.12c9.71-1.26,29.32-4.25,39.86-5.25c2.93-0.32,5.85-0.23,8.75,0.25"/><path d="M61.32,26.18c0,1.57-0.32,2.7-0.93,4.24C55.16,43.62,49.5,57.25,35.5,70.09"/><path d="M51.9,54.13c0.8,0.8,1,1.65,1,3c0,7.45-0.01,22.7-0.02,32.5c0,3.82,0,6.81,0,8.2"/><path d="M75.45,39.93c0.06,0.8-0.07,1.55-0.37,2.27c-0.96,2.67-2.58,5.3-4.58,7.95"/><path d="M52.55,53.83c5.8-0.64,22.88-2.06,32.59-2.94c3.31-0.3,5.76-0.53,6.61-0.65"/><path d="M71.95,54.74c0.72,0.72,0.92,1.63,0.92,2.88c0,5.93,0.02,23.5,0.02,32.9"/><path d="M53.94,65.83c5.32-0.52,19.81-1.75,28.57-2.54c3.32-0.3,5.81-0.53,6.68-0.64"/><path d="M53.8,78.62c5.58-0.43,20.2-1.45,29.31-2.1c3.53-0.25,6.19-0.45,7.12-0.55"/><path d="M53.96,92.5c6.62-0.47,25.01-1.62,35.42-2.38c3.61-0.26,6.26-0.48,7.12-0.6"/></svg>