<svg><path d="M43.64,15.57c0.18,0.22-0.58,2.02-1.04,2.35c-2.98,2.17-12.29,6.99-21.9,9.21"/><path d="M17.5,16c1.05,0.38,1.37,1.95,1.37,2.43c0,1.28,0.1,11.62,0.1,13.12c0,7.02,1.53,8.05,14.97,8.05c13.81,0,14.81-1.6,14.81-7.76"/><path d="M32.16,44.83c0.56,0.59,0.94,1.6,0.99,3.55C33.38,57.75,33,87.06,33,90.25c0,8.25-5.74,0.02-6.59-0.78"/><path d="M12.25,60.26c1.03,0.19,2.22,0.75,3.25,0.37c1.03-0.37,7.97-1.17,9.69-1.92c1.71-0.75,3.06,0.55,2.57,2.24c-2.29,7.84-9.65,18.66-15.98,22.95"/><path d="M49.72,51c0.07,0.28-0.13,1.09-0.38,1.46c-2.36,3.48-7.38,7.76-11.65,9.57"/><path d="M33.3,58.16c4.35,7.71,11.65,18.11,16.51,22.55c1.02,0.93,2,1.4,2.94,1.73"/><path d="M53.45,17.85c1.51,0.5,4.27,0.57,5.78,0.5c12.45-0.58,22.71-2.08,32.4-2.32c2.51-0.06,4.02,0.24,5.28,0.49"/><path d="M75.73,20.93c0.01,0.24,0.03,0.61-0.02,0.96c-0.29,2.02-3.13,6.45-5.39,9.16"/><path d="M60.16,31.8c0.45,1.08,1.11,1.88,1.11,3.32c0,1.44-0.3,42.91-0.3,43.63"/><path d="M62.28,33.46c2.52,0,22.43-1.8,24.73-1.85c1.92-0.04,3.42,2.27,3.26,3.6c-0.21,1.7-0.81,26.87-0.85,42.89"/><path d="M62.2,46.73c5.85,0.42,23.58-1.43,26.76-1.43"/><path d="M61.87,60.04c9,0.16,20.7-1.23,27.6-1.24"/><path d="M60.98,75.66c5.82-0.67,21.25-1.73,28.61-1.75"/><path d="M68.13,81.48c0.42,1.21,0.83,1.54,0,2.42c-2.51,2.66-11.4,9.2-16.42,12.35"/><path d="M80.32,81.62c6.2,4.33,13.54,12.18,15.23,15.96"/></svg>