<svg><path d="M22.38,17.75c3.31,1.47,8.54,6.05,9.37,8.34"/><path d="M14.75,40.25c3.79,1.54,9.8,6.35,10.75,8.75"/><path d="M13.25,88.71c1.5,1.31,3.31,1.36,4.25-0.25C20.25,83.75,23,78,25.5,72"/><path d="M59.03,11.96c0.04,0.26,0.2,0.77-0.08,1.04c-2.95,2.75-6.25,5.98-14.4,8.91"/><path d="M42.83,21.07c0.67,0.61,0.99,1.96,1.11,3.21c0.33,3.48,2.52,19.32,3.13,25.48"/><path d="M46.49,34.38 c 0.79,0.14,1.42,0.42,2.53,0.42c1.11,0,12.48-1.36,13.75-1.49"/><path d="M68.91,18.87c0.79,0.14,1.42,0.42,2.53,0.42c1.11,0,14.3-2.16,15.56-2.3c1.26-0.14,2.36,0.69,2.21,1.52c-1.46,8-5.46,22.5-7.82,29.73"/><path d="M69.22,32.2c0.79,0.14,1.42,0.42,2.53,0.42c1.11,0,12.48-1.11,13.75-1.24"/><path d="M47.23,47.4c2.05,0,31.16-1.8,33.53-1.94"/><path d="M52.03,51.5c0.06,0.51,0.12,1.31-0.11,2.03c-1.35,4.29-9.08,13.7-19.67,19.47"/><path d="M49.73,62.66c1,0.41,2.4,0.55,4.01,0.27c1.6-0.27,31.64-3.6,35.64-3.73c4-0.14,4.85,1.38,4.2,4.24c-2.33,10.32-6.08,21.32-11.62,30.12c-1.88,2.99-4.04,1.03-6.41-0.68"/><path d="M35.71,77c0,4.71-0.6,11.65-0.75,13"/><path d="M48,73.25c2.84,2.16,5.53,8.11,6.25,11.47"/><path d="M60.75,71.25c2.05,1.71,5.31,7.05,5.82,9.72"/><path d="M72,67.75c2.67,1.71,6.89,7.05,7.56,9.72"/></svg>