<svg><path d="M17.88,19c3.31,1.47,8.54,6.05,9.37,8.34"/><path d="M11.25,45c3.79,1.23,9.8,5.08,10.75,7"/><path d="M12.25,92.72c1.41,0.74,2.64,0.02,3.49-1.41c3.01-5.09,6.03-11.32,8.76-17.81"/><path d="M34.17,26.12c1.26,0.58,3.15,0.49,4.47,0.34c4.16-0.46,10.06-1.5,14.6-2.06c1.43-0.18,2.82-0.36,4.24,0.03"/><path d="M31.28,39.9c1.4,0.64,4.14,0.39,5.61,0.19c6.41-0.85,12.24-1.96,18.2-3.13c0.92-0.18,2.39-0.13,2.85,0"/><path d="M45.76,13.01c0.8,0.8,1.15,1.91,1.1,3.32C45.88,41.75,41.62,52.75,32,61.25"/><path d="M46.04,43.81c3.71,1.75,7.05,4.92,9.27,8.94"/><path d="M63.98,24.83c1.77,0.29,3.53,0.2,5.16-0.01c4.73-0.61,11.28-2.13,15.86-2.9c1.13-0.19,2.56-0.51,3.7-0.2"/><path d="M64.68,36.59c1.43,0.65,3.8,0.2,5.32,0.04c4.88-0.51,13.96-2.04,18.76-2.91c1.5-0.27,2.83-0.51,4.33-0.1"/><path d="M75.8,10.75c0.97,0.97,0.97,2.14,0.9,3.52c-1.2,23.48-4.45,32.48-16.43,43.86"/><path d="M75.56,36.53c4.76,5.89,13.12,15.24,18.46,18.83c1.54,1.04,1.91,1.41,2.56,1.52"/><path d="M41.6,63.14c1.01,1.01,1.53,2.54,1.71,4.08c0.61,5.15,1.92,16.94,2.78,25.02c0.3,2.83,0.55,5.21,0.69,6.69"/><path d="M43.47,64.79c4.4-0.5,27.79-2.7,35.67-3.44c3.48-0.33,5.59,0.57,5.08,4.42c-0.59,4.52-1.39,14.54-2.54,24.25c-0.26,2.25-0.53,4.49-0.8,6.67"/><path d="M45.79,80.19c7.83-0.94,26.71-3.06,36.05-3.37"/><path d="M47.65,96.03c7.7-0.57,22.91-1.86,32.51-2.35"/></svg>