<svg><path d="M19.63,16.25c3.48,1.3,9,5.33,9.87,7.34"/><path d="M15.75,42.5c3.79,1.15,9.8,4.72,10.75,6.5"/><path d="M15.25,87.63c1.47,0.51,2.95,0.23,3.83-1.03c3.41-4.89,6.82-10.86,9.92-17.1"/><path d="M36.75,23.9c1.75,0.35,3.35,0.23,4.88,0.01c4.63-0.68,10.72-2.53,14.12-3.34c1.21-0.29,2.37-0.37,3-0.24"/><path d="M47.37,12.75c0.75,0.75,1.21,1.98,1.21,3c0,7.25,0.03,16.75,0.03,27.5"/><path d="M37,33.89c1.46,0.74,3.39,0.32,4.89,0.07c3.83-0.64,7.53-1.59,11.25-2.5c1.25-0.31,3.1-0.83,4.35-0.7"/><path d="M36.38,47.13c0.58,0.5,2,1.01,3.75,0.36c4.86-1.82,13.6-5.08,18.46-6.9"/><path d="M65.47,18.33c1.82,0.66,3.37,0.68,5.3,0.36c5.88-0.96,13.65-2.48,16.54-2.99c2.57-0.45,3.57,0.92,3.46,3.48c-0.16,3.67-3.01,16.84-5.91,21.05c-2.1,3.06-4.58,2.33-6.17,0.34"/><path d="M76.54,20.77c0.07,1.03-0.02,1.82-0.35,2.8c-2.14,6.47-4.46,11.27-10.58,18.91"/><path d="M60.17,47c0.08,0.88-0.13,2.03-0.92,2.74c-3.88,3.51-6.13,5.51-10.59,8.88c-0.6,0.46-0.66,1.62,0,1.76c3.48,0.7,7.04,1.62,10.02,2.91"/><path d="M71.94,52.01c0.19,0.99-0.21,1.98-0.75,2.41c-8.31,6.7-17.65,13.24-26.57,19.86c-1.2,0.89-0.74,1.35,0.74,1.08c6.22-1.13,27.74-5.01,35.73-6.1"/><path d="M77.55,64.49c2.72,1.89,7.03,7.79,7.71,10.74"/><path d="M62.71,75.63c0.7,0.7,1.14,1.87,1.14,3.38c0,3.5-0.07,8.85-0.12,12.87c-0.03,2.45-0.06,4.4-0.06,5.12"/><path d="M50.1,81.92c0.15,1.21-0.35,2.21-1.22,3.06c-2.62,2.61-8.34,7.19-12.02,9.45"/><path d="M76.25,82.25c3.92,2.33,10.64,8.55,12.04,10.88"/></svg>