<svg><path d="M19.88,16.5c3.84,1.6,9.91,6.6,10.87,9.09"/><path d="M15,42.25c4.24,1.54,10.94,6.35,12,8.75"/><path d="M13.75,87.73c1.71,1.27,3.78,1.32,4.86-0.25c3.14-4.57,7.29-11.66,10.14-17.49"/><path d="M40.98,24.92c0.9,0.32,3.28,0.69,5.18,0.55c12.85-0.95,29.19-3.18,40.72-3.64c1.98-0.08,3.58-0.04,5.37,0.21"/><path d="M65,11.25c0.4,0.59,0.49,1.77,0.15,3.01C60.75,30,54.25,43.5,38.25,54.01"/><path d="M64.18,23.67c6.89,5.85,22.97,20.76,29.85,24.67c2.34,1.33,3.15,1.53,4.22,1.66"/><path d="M42.52,33.33c2.4,1.13,6.19,4.63,6.79,6.38"/><path d="M88.28,28.14c0.02,0.21,0.04,0.55-0.04,0.86c-0.53,1.81-3.55,5.78-7.68,8.22"/><path d="M49.74,48.45c0.23,0.35,0.23,0.59,0.36,1.03c1.04,3.63,2.47,12.79,3.11,19.55"/><path d="M50.82,49.37c8.02-0.91,22.23-2.4,28.23-3.17c2.2-0.28,3.83,1.71,3.71,2.71c-0.41,3.66-2.4,12.11-3.4,18.22"/><path d="M52.31,58.31c2.61-0.36,26.57-2.47,28.73-2.62"/><path d="M53.63,67.6c5.78-0.39,17.74-1.58,25.72-2.21"/><path d="M66.36,70.37c0.07,0.39,0.95,2.02,1.02,4.48c0.33,11.82-0.21,14.38-0.21,18.41c0,9.14-5.85,1.22-7.07,0.2"/><path d="M49.46,76.18c0.04,0.38,0.08,0.99-0.07,1.54c-0.9,3.26-6.07,10.4-13.13,14.78"/><path d="M79.71,76.12c4.78,2.67,12.35,10.98,13.54,15.13"/></svg>