<svg><path d="M20.13,16.25c3.57,1.56,9.22,6.41,10.12,8.84"/><path d="M15.25,41.75c4.32,1.63,11.17,6.71,12.25,9.25"/><path d="M14.25,88.73c1.71,1.27,3.78,1.32,4.86-0.25c3.14-4.57,6.29-10.16,9.14-15.99"/><path d="M40.64,14.16c1.44,0.45,4.08,0.55,5.52,0.45C54.25,14,78,11.75,86.45,11.58c2.39-0.05,3.84-0.29,5.04-0.07"/><path d="M40.5,24.74c0.5,0.84,1.13,1.53,1.24,2.6C42,30,44,38,44.25,42.25"/><path d="M41.63,26.72c10.3-1.36,42.82-3.96,48.13-4.42c1.94-0.17,2.83,1.66,2.83,2.68c0,2.76-2.09,9.76-3.27,14.33"/><path d="M56.36,17.01c0.68,0.52,1.13,2.32,1.22,3.38c0.76,9.15,0.39,8.68,0.84,18.6"/><path d="M73.75,14.83c0.54,0.41,0.76,1.88,0.75,3.77c-0.02,7.53-0.75,12.4-1.62,19.28"/><path d="M44.26,40.42C48,40.25,85,37,89.89,37.02"/><path d="M47.85,46.9c0.45,1.07,0.68,1.6,1.2,2.85c0.75,1.78,2.01,18.31,2.73,19.92"/><path d="M48.53,48c2.57-0.17,33.42-3.44,35.75-3.02c0.92,0.17,1.8,1.49,1.45,3.19c-0.66,3.19-2.4,14.6-3.6,20.32"/><path d="M50.59,57.57c3.48,0,28.98-2.99,32.91-2.99"/><path d="M51.74,67.7c5.14,0,27.31-2.13,30.52-2.13"/><path d="M38.19,79.47c1.51,0.44,4.28,0.56,5.77,0.44c13.03-1.06,37.51-3.33,49.77-3.29c2.51,0.01,4.02,0.21,5.27,0.43"/><path d="M65.92,69.28c0.33,0.37,1.04,2.75,1.1,3.48c0.07,0.73-0.04,23.66-0.11,28.24"/></svg>