<svg><path d="M20.13,16.5c3.92,1.6,10.13,6.6,11.12,9.09"/><path d="M14.5,41.5c4.41,1.68,11.4,6.89,12.5,9.5"/><path d="M13.75,88.23c1.71,1.27,3.78,1.32,4.86-0.25c3.14-4.57,8.29-14.66,11.14-20.49"/><path d="M63.52,10.75c0.9,0.75,1.35,0.75,1.35,2.5c0,1.75,0,4.74,0,9.49"/><path d="M42.11,23.87c1.36,0.43,2.95,0.49,4.3,0.43c7.67-0.37,27.54-2.69,39.14-3c2.26-0.06,3.62,0.2,4.75,0.42"/><path d="M51.1,27.7c2.8,3.01,4.07,5.66,4.33,7.64"/><path d="M77.68,25.42c0.07,0.58-0.29,1.56-0.46,1.8c-1.72,2.53-3.98,6.58-5.07,8.06"/><path d="M36.22,39.38c1.68,0.5,3.65,0.59,5.33,0.5c12.2-0.63,36.2-2.63,49.33-3.44c2.8-0.17,4.49,0.24,5.89,0.49"/><path d="M44.7,47.6c0.3,0.37,0.81,1.63,0.97,2.09c1.35,3.84,3.07,15.04,3.91,22.2"/><path d="M46.6,49.12c10.44-0.97,28.34-3.11,36.13-3.92c2.86-0.3,4.79,2.28,4.64,3.33c-0.54,3.87-2.54,12.63-4.55,20.85"/><path d="M48.55,59.04c3.4-0.38,33.28-2.64,36.09-2.79"/><path d="M49.66,69.88c7.52-0.41,23.28-2.18,33.66-2.85"/><path d="M64.36,49.29c0.56,0.53,0.97,1.52,1,2.82c0.19,9.48,0.07,36.22,0.07,38.86"/><path d="M44.83,80.36c1.13,0.53,3.2,0.58,4.34,0.53c11.77-0.6,21.87-2.58,36.44-2.69c1.89-0.02,3.02,0.25,3.96,0.51"/><path d="M36.49,93.76c1.58,0.64,4.47,0.74,6.04,0.64c16.41-1.07,28.27-2.58,50.67-2.57c2.63,0,4.2,0.3,5.52,0.63"/></svg>