<svg><path d="M19.88,16.5c3.84,1.6,9.91,6.6,10.87,9.09"/><path d="M15,41.75c4.41,1.72,11.4,7.07,12.5,9.75"/><path d="M13.75,87.23c1.71,1.27,3.78,1.32,4.86-0.25c3.14-4.57,7.79-13.16,10.64-18.99"/><path d="M42.13,16.25c1.63,0.7,3.52,0.84,5.25,0.7c9.35-0.78,33.36-2.47,37.09-3.06c2.46-0.38,4.09,1.06,3.67,3.83c-0.54,3.48-1.7,4.46-2.45,8.62"/><path d="M46.58,30.25c4.69-0.23,35.65-3.44,40.54-3.68"/><path d="M45.89,17.87c0,3.68-0.23,14.37-0.59,17.8c-2.04,19.46-3.53,34.87-13.55,48.84"/><path d="M54.84,36.95c0.76,0.17,2.21,0.44,3.36,0.29c1.4-0.18,18.79-2.26,20.12-2.26c1.33,0,2.78,0.51,1.45,1.53c-1.33,1.02-7.82,6.04-11.2,7.88"/><path d="M66.83,44.46c3.2,1.24,6.86,9.3,3.61,18.4c-1.39,3.91-3.69,1.64-5.22-0.59"/><path d="M49.68,50.65c0.71,0.43,2.54,0.58,3.82,0.47c4.46-0.37,29.98-3.96,35.37-3.58c1.27,0.09,2.4,0.14,3.25,0.57"/><path d="M44.08,66.68c0.52,0.16,1.49,0.42,2.27,0.27c0.95-0.17,12.73-2.13,13.64-2.13c0.91,0,1.89,0.48,0.98,1.44c-0.9,0.96-5.3,5.71-7.59,7.46"/><path d="M51.9,73.85c4.35,5.15,6.6,12.65,3.3,19.09c-2.83,5.52-5.19,2.81-6.09,0.43"/><path d="M42.19,83.78c0.48,1.48,2.15,1.03,3.02,0.66c3.03-1.28,18.29-9.32,22.77-11.1"/><path d="M74.57,63.62c0.55,0.18,2.59,0.47,3.42,0.31C79.01,63.73,89.57,62,90.53,62c0.96,0,2.01,0.55,1.05,1.64c-0.96,1.1-5.65,6.5-8.09,8.49"/><path d="M81.44,71.86c3,1.49,6.81,12.14,3.45,20.8c-2.37,6.1-4.89,4.34-7.4,0.5"/><path d="M68.66,80.65c0.69,0.55,2.48,0.74,3.72,0.6c4.34-0.48,20.21-2.93,25.45-2.45c1.24,0.11,2.34,0.18,3.17,0.73"/></svg>