<svg><path d="M14.63,17.75c3.57,1.38,9.22,5.69,10.12,7.84"/><path d="M12,45c3.71,1.32,9.57,5.44,10.5,7.5"/><path d="M12.25,89.33c1.29,1.14,3.33,0.69,4.14-0.72c2.36-4.1,6.21-14.62,8.36-19.86"/><path d="M53.05,15.75c0.06,0.63,0.29,1.83-0.13,2.51C47.54,26.88,42.07,32.97,29,42.29"/><path d="M33,19.75c25.5,22.5,17,85.75,3.25,70"/><path d="M43.85,44c0.04,0.75,0.18,2.2-0.08,3.01c-3.38,10.32-6.02,18.24-15.02,28.79"/><path d="M56.49,31.5c0.87,0.28,2.45,0.32,3.33,0.28c9.86-0.45,10.92-1.56,20.65-1.75c1.45-0.03,2.31,0.13,3.04,0.27"/><path d="M70.52,13.62c0.08,0.29,1.15,1.49,1.23,3.3c0.39,8.7,0.21,26.3,0.21,29.26"/><path d="M52.44,47.87c1.24,0.26,3.15,0.48,4.26,0.39c6.19-0.54,31.35-3.61,38.54-3.73c1.85-0.03,2.96,0.18,3.89,0.38"/><path d="M90.19,18.32c0.1,1.12,0.07,2.62-0.55,4.01C81.5,40.75,73.25,55.5,53.42,67.85"/><path d="M80.74,49.75c2.27,1.1,5.87,4.53,6.44,6.25"/><path d="M65.84,62.15c0.44,1.34,0.88,2,0.88,3.79c0,1.78-0.29,30.17-0.29,31.07"/><path d="M66.52,63.26c1.57-0.14,21.45-2.45,22.88-2.62c1.19-0.14,1.96,1.57,1.87,2.41c-0.19,1.7-0.28,20.54-0.28,33.02"/><path d="M66.85,78.14C73.5,77.5,84,76.5,90.7,76.07"/><path d="M66.76,93.82c5.82,0,17.36-1.25,23.94-1.28"/></svg>