<svg><path d="M18.13,15.75c4.45,1.56,11.5,6.41,12.62,8.84"/><path d="M12.25,40.75c4.85,1.9,12.54,7.8,13.75,10.75"/><path d="M13.25,88.23c1.71,1.27,3.93,1.42,4.86-0.25C22,81,24.75,75.25,27.25,68.5"/><path d="M64.63,11.5c1.04,0.48,1.66,2.14,1.87,3.1c0.21,0.95,0,18.88-0.21,24.83"/><path d="M66.67,25.02c6-0.63,15.07-1.4,20.96-2.03c1.46-0.16,1.83-0.21,2.75,0"/><path d="M47.64,19.5c1.04,0.48,1.66,2.14,1.87,3.1c0.21,0.95,0,12.38-0.21,18.34"/><path d="M34.15,41.16c0.64,0.19,2.36,0.66,4.07,0.59c9.23-0.39,41.12-3.41,52.85-3.41c1.72,0,4.69,0.39,5.67,0.59"/><path d="M46.21,51.59c0.94,0.43,1.5,1.94,1.69,2.8c0.19,0.86-0.19,23.36-0.19,31.82"/><path d="M47.97,67.16c4.16-0.44,6.94-1.31,11.02-1.75c1.01-0.11,1.27-0.15,1.91,0"/><path d="M35.99,65.84c0.81,0.37,1.29,1.67,1.45,2.41c0.16,0.74,0,16.55-0.16,21.18"/><path d="M29.5,90.44c0.34,0.5,2.28,1.29,3.17,1.01c6.08-1.94,20.33-7.19,26.6-9.56"/><path d="M78.58,49.18c1.04,0.48,1.87,2.12,1.87,3.1c0,9.72-0.21,32.97-0.21,39.88"/><path d="M80.56,69.62c4.77-0.5,7.97-1.01,12.65-1.51c1.16-0.12,1.46-0.17,2.19,0"/><path d="M66.77,64.12c1.12,0.51,1.79,2.31,2.01,3.34c0.22,1.03,0,19.12-0.22,25.54"/><path d="M55.25,93.75c0.55,0.17,2.02,0.56,3.49,0.5c7.9-0.33,24.36-1.85,34.41-1.85c1.47,0,4.02,0.33,4.86,0.5"/></svg>