<svg><path d="M14.63,14.75c5.34,2,13.78,8.23,15.12,11.34"/><path d="M11.75,41c5.21,2.21,13.45,9.07,14.75,12.5"/><path d="M11.25,90.23c1.71,1.27,3.78,1.32,4.86-0.25c3.14-4.57,6.79-14.16,9.64-19.99"/><path d="M35.94,20.41c1.07,0.46,2.41,0.28,3.36,0.25c4.45-0.15,15.46-2.46,19.7-2.93c2.75-0.31,4.2,0.95,3.83,3.08c-1.08,6.2-2.33,14.95-6.15,22.35c-2.51,4.86-3.81,3.22-5.87,0.15"/><path d="M49.9,21.59c0.04,0.58,0.06,1.51-0.09,2.35C48.39,32.17,44,42.5,35.25,47.84"/><path d="M39.22,29.49c0.28,1.19-2.36,6.87-5.1,8.45"/><path d="M68.64,17.96c1.06,0.41,2.4,0.36,3.32,0.22c7.56-1.13,13.57-2.05,17.76-2.46c2.72-0.27,3.44,1.31,3.29,3.21c-0.4,5.01-2.76,15.08-5.57,21.59c-2.47,5.71-4.27,2.84-6.3,0.13"/><path d="M79.69,19.76c0.03,0.56,0.05,1.45-0.07,2.26c-1.11,7.91-4.13,15.93-11.38,22.97"/><path d="M71.23,26.95c0.3,1.36-2.49,7.8-5.36,9.61"/><path d="M47.01,51.91c0.84,0.39,1.35,1.74,1.52,2.52c0.17,0.77,0,27.84-0.17,32.68"/><path d="M48.6,68.99c2.9-0.49,6.14-1.21,9.91-1.62c0.94-0.1,1.17-0.13,1.76,0"/><path d="M 34.37,64.78 c 0.59,0.27 1.56,1.72 1.56,3.25 0,0.55 -0.12,19.894876 -0.12,25.684876"/><path d="M 27.174864,97.693418 c 1.043719,-0.04287 1.71801,-0.10659 2.600572,-0.64373 7.75,-3.5 19.576307,-10.319155 28.416307,-14.259155"/><path d="M78.95,51.19c0.84,0.39,1.35,1.74,1.52,2.51c0.17,0.77,0,33.28-0.17,38.12"/><path d="M80.96,68.35c3.43-0.36,8.62-1.09,11.99-1.45c0.84-0.09,1.05-0.12,1.57,0"/><path d="M67.22,64.26c0.96,0.44,1.54,1.99,1.73,2.87c0.19,0.88,0,20.02-0.19,25.54"/><path d="M55.25,93.09c0.62,0.19,2.29,0.64,3.95,0.57c8.95-0.38,23.18-2.22,34.56-2.22c1.66,0,4.55,0.38,5.5,0.57"/></svg>