<svg><path d="M19.13,16.5c4.1,1.69,10.59,6.96,11.62,9.59"/><path d="M14,42.5c4.59,1.32,11.85,5.44,13,7.5"/><path d="M14.25,89.73c1.71,1.27,3.78,1.32,4.86-0.25c3.14-4.57,6.29-10.16,9.14-15.99"/><path d="M51.07,12.5c0.54,0.32,1.68,2.38,1.79,3.02c0.11,0.64-0.07,12.46-0.18,16.43"/><path d="M40.56,20.84c0.54,0.32,1.15,1.67,1.07,2.31c-0.35,2.84-0.33,2.56-1.78,8.33c-0.35,1.42-0.26,2.94,1.07,2.66c6.57-1.39,16.57-2.39,24.01-3.76"/><path d="M65,18.76c0.54,0.32,1.14,2.38,1.08,3.02C65.75,25,65.5,28.75,65.12,33.5"/><path d="M38.45,43.86c1.42,0.3,2.71,1,3.48,0.96c6.33-0.32,13.58-1.32,20.32-1.81c1.34-0.1,2.2-0.02,2.55,0.08"/><path d="M38.94,56.35c0.48,0.26,2.54,0.53,3.02,0.52c5.79-0.12,13.29-0.62,18.95-1.67c0.73-0.13,1.41,0.05,2.02,0.27"/><path d="M49.5,57.75c0.97,1.21,0.97,1.94,0.97,2.9c0,6.77-0.01,14.07-0.01,24.92"/><path d="M38.81,70.91c0.47,0.29,2.04,0.67,2.52,0.63c5.05-0.5,12.91-0.29,18.44-1.53c0.58-0.13,1.89-0.12,2.78,0.14"/><path d="M36.24,90.16c1.01,0.59,2.56,0.76,3.17,0.51c10.09-4.17,15.34-5.92,24.95-10.11"/><path d="M77.03,14.14c0.72,0.86,0.65,2.17,0.44,3.32c-1.49,8.36-3.72,22.79-9.96,32.61"/><path d="M76.45,36.09c1.28,0.29,2.45,0.06,3.13-0.04c5.71-0.8,8.74-1.3,14.67-2.27c1.21-0.2,1.98-0.02,2.3,0.08"/><path d="M88.09,38.52c0.45,1.29,0.7,2.21,0.23,4.58C84.02,64.54,74.28,82.99,60.07,92"/><path d="M68.64,49.78c0.98,0,1.7,1,2.34,2.52c4.9,11.7,13.3,28.45,22,38.29c1.43,1.62,2.67,2.87,3.76,3.04"/></svg>