<svg><path d="M19.88,16.5c4.01,1.6,10.36,6.6,11.37,9.09"/><path d="M15.25,42c4.32,1.68,11.17,6.89,12.25,9.5"/><path d="M14.25,87.73c1.71,1.27,3.78,1.32,4.86-0.25c3.14-4.57,6.79-12.16,9.64-17.99"/><path d="M46.68,21.38c0.99,0.54,2.79,0.59,3.78,0.54c10.45-0.59,17.51-2.37,30.29-2.84c1.64-0.06,2.63,0.25,3.46,0.52"/><path d="M62.89,10.62c1.11,0.63,1.45,0.9,1.45,3.38c0,2.4-0.08,7-0.08,16.96"/><path d="M40.1,32.96c1.22,0.61,3.48,0.75,4.7,0.61c15.18-1.71,29.03-2.98,42.6-3.78c2.04-0.12,3.27,0.29,4.29,0.6"/><path d="M38.19,47.64c0.58,0.38,1.72,0.4,2.31,0.36c3.84-0.25,12.11-1.39,16.22-2c0.96-0.14,2.02-0.18,2.5,0.01"/><path d="M48.13,39c0.84,0.5,1.51,2.23,1.51,3.25c0,7.25,0.02,4.75,0.02,15.5"/><path d="M38.84,61.19c0.59,0.56,1.78,1.36,3.55,0.62c4.93-2.06,13.81-5.25,18.75-7.31"/><path d="M65.36,45.51c0.67,0.38,1.9,0.4,2.57,0.38c6.23-0.13,14.91-1.91,21.01-2.03c1.12-0.02,1.79,0.18,2.35,0.37"/><path d="M76.71,35.62c0.07,0.23,1.09,1.22,1.09,2.71c0,1.67-0.22,11.92-0.22,18.88"/><path d="M63.77,58.23c0.74,0.3,2.48,0.37,3.22,0.3C73.6,58,84.52,56.5,91.16,56.09c1.23-0.08,1.98,0.15,2.59,0.3"/><path d="M39.27,70.9c0.96,0.37,2.73,0.41,3.69,0.37c6.71-0.27,34.31-3.26,43.46-3.26c1.6,0,2.57,0.18,3.37,0.36"/><path d="M54.29,74c0.06,0.58,0.11,1.5-0.12,2.33c-1.57,5.76-8.67,16.17-21.01,22.33"/><path d="M68.09,72.41c0.55,1.14,1.02,2.49,1.02,4.25c0,2.36-0.02,3.9-0.02,9.25c0,9.37,1.23,11.08,13.32,11.08s13.37-2.19,13.37-9.73"/></svg>