<svg><path d="M14.63,15c3.75,1.6,9.68,6.6,10.62,9.09"/><path d="M11.25,42.5C15.75,44,22.87,48.67,24,51"/><path d="M11.25,89.14c1.5,0.61,3.44,0.46,4.42-1.27c2.86-5.04,5.72-11.19,8.33-17.62"/><path d="M29.57,26.78c0.97,0.15,2.74,0.71,3.7,0.65C39.75,27,52.5,26.25,58.4,26.05c1.61-0.06,2.58,0.07,3.38,0.14"/><path d="M44.67,13.38c0.41,0.36,1.29,2.67,1.37,3.38c0.08,0.71-0.05,18.48-0.14,22.92"/><path d="M32.04,40.33c0.41,1.13,0.61,1.7,1.08,3.01c0.67,1.88,2.31,21.87,2.95,23.56"/><path d="M33.87,41.33c2.31-0.19,21.37-2.29,23.46-1.82c0.83,0.19,1.62,1.67,1.31,3.57c-0.6,3.57-1.3,15.1-2.38,21.5"/><path d="M34.72,53.12c3.13,0,19.37-2.13,22.91-2.13"/><path d="M35.76,64.33c5.83-0.85,16.53-2.2,20.76-2.28"/><path d="M28.49,78.37c0.88,0.36,2.49,0.35,3.37,0.36c4.72,0.02,19.58-2.23,26.7-3.01c1.45-0.16,2.35,0.17,3.08,0.35"/><path d="M45.88,65.52c0.33,0.38,1.04,2.8,1.1,3.55c0.07,0.75-0.04,26.19-0.11,30.87"/><path d="M78.04,11.77c0.04,0.9,0.21,2.36-0.09,3.61c-1.9,7.97-6.83,21.92-15.72,33.5"/><path d="M77.47,18.89c3.69,8.47,11.5,21.26,17.18,28.06c1.11,1.32,2.2,2.05,3.16,2.45"/><path d="M65.65,51.72c0.49,0.32,2.17,0.34,2.67,0.29c3.38-0.37,12.35-1.72,18.12-2.35c0.81-0.09,2.52,0.28,2.93,0.43"/><path d="M61.67,67.08C63,67.5,64.75,68,66.59,67.92c7.68-0.33,20.16-1.67,26.96-2.23c1.16-0.09,1.87,0.16,2.45,0.33"/><path d="M76.69,53.85c0.41,0.38,1.26,2.86,1.34,3.62c0.08,0.76-0.05,37.14-0.13,41.91"/></svg>