<svg><path d="M16.13,15.5c4.01,1.47,10.36,6.05,11.37,8.34"/><path d="M11.88,40c4.37,1.5,11.28,6.17,12.38,8.5"/><path d="M12.5,88.96c1.88,0.79,3.06,0.11,4-1.5c2.75-4.7,5.25-10.2,7.75-16.2"/><path d="M40.03,13.01c2.85,0.86,5.02,0.84,7.85,0.66c8.23-0.51,21.15-1.59,30.37-2.02c2.05-0.09,4.25-0.15,6.41,0.26"/><path d="M35.33,24.29c-0.23,5.17-2.23,10.89-3.71,16.11"/><path d="M36.36,26.21C54.25,25,73.62,24,89.78,23.75c9.22-0.14,4.47,5-0.48,8.73"/><path d="M60.8,16.26c1.1,1.1,1.22,2.24,1.22,3.71c0,0.37,0.04,11.01,0.07,17.9c0.01,3.1,0.02,5.49,0.02,5.94"/><path d="M42.62,30.5c3.45,1.12,8.15,4.48,10.03,6.35"/><path d="M41.67,42.93c2.71,0.98,6.9,4.58,8.37,6.22"/><path d="M72.04,28.82c3.72,1.72,7.58,4.3,9.43,6.58"/><path d="M73.19,41.28c4.19,1.97,8.19,4.85,10.54,7.99"/><path d="M62.63,49.12c-0.01,1.25-0.6,2.72-1.32,3.55C56.38,58.38,46.12,68,30.5,74.62"/><path d="M63.73,54.04c5.52,3.59,15.56,10.67,23.09,14.93C89.75,70.62,92,71.62,96,72.9"/><path d="M58.6,63.37c3.21,1.08,8.28,4.42,9.08,6.09"/><path d="M42.63,77.43c2.62,0.82,5.08,0.7,7.25,0.46c7.38-0.81,26.62-3.08,28.78-3.34c2.56-0.31,3.45,1.48,1.61,3.13c-4.3,3.86-8.52,6.58-14.64,11.83"/><path d="M54.98,86.2C61,90,67.12,94.38,70.55,99.75"/></svg>