<svg><path d="M18.13,14c4.1,1.78,10.59,7.32,11.62,10.09"/><path d="M13.5,38.25c4.59,1.81,11.85,7.44,13,10.25"/><path d="M12.75,89.71c1.5,1.31,3.31,1.36,4.25-0.25C19.75,84.75,25,74,27.5,68"/><path d="M46.79,12.87c0.48,0.31,0.97,0.56,1.18,0.94c1.67,3.03,2.93,11.02,4.07,16.46"/><path d="M48.68,14.84C60,14,71.62,12.38,77.25,11.99c2.06-0.15,3.3,1.15,3,2.01c-1.22,3.54-2.28,7.32-4.09,12.21"/><path d="M53.01,28.78c6.62-0.45,15.75-1.44,24.84-2.13"/><path d="M36.84,38.15c0.3,0.27,0.61,0.49,0.74,0.83c1.05,2.67,2.48,10.03,3.2,14.83"/><path d="M39.22,39.44c7.65-0.98,14.33-1.9,17.86-2.25c1.29-0.13,2.07,0.76,1.89,1.51c-0.77,3.12-1.66,7.14-2.8,11.45"/><path d="M40.92,51.97c4.16-0.4,9.74-0.85,17.49-1.44"/><path d="M68.95,35.44c0.33,0.29,0.67,0.52,0.81,0.88c1.14,2.83,1.38,9.81,2.16,14.89"/><path d="M71,37.04c8.33-1.04,14.96-2.29,18.82-2.66c1.41-0.14,2.25,0.8,2.05,1.6c-0.83,3.3-1.81,7.64-3.05,12.21"/><path d="M72.43,50.08c6.3-0.36,8.45-1,18.27-1.48"/><path d="M33.91,66.01c1.55,0.53,3.32,0.7,5.1,0.53c9.09-0.87,39.34-2.88,53.09-3.9c1.77-0.13,2.88,0.09,4.65,0.46"/><path d="M63.57,54.57c1.06,0.46,1.91,2.06,1.91,3.02c0,9.74,0,37.36-0.21,43.16"/><path d="M63.29,65.64c-5.6,8.7-20.6,21.98-32.24,26.91"/><path d="M65.75,64.94c3.88,3.6,22.14,21.68,26.36,25.22c1.43,1.2,2.66,1.72,4.09,2.06"/></svg>