<svg><path d="M20.38,16.5c3.66,1.6,9.45,6.6,10.37,9.09"/><path d="M15.5,42c4.24,1.68,10.94,6.89,12,9.5"/><path d="M13.75,88.23c1.71,1.27,3.78,1.32,4.86-0.25c3.14-4.57,6.29-10.16,9.14-15.99"/><path d="M63.08,10.14c0.03,0.31,0.06,0.79-0.06,1.24c-0.7,2.61-4.7,8.33-10.17,11.83"/><path d="M42.59,24.12c0.46,0.86,0.76,2.25,0.61,3.8c-0.15,1.56,0.15,37.13,0.15,39.72"/><path d="M43.18,25.72c8.81-0.97,39.2-3.97,40.39-4.2c2.54-0.48,4.13,1.62,4.13,2.42c0,3.06-0.95,36.8-0.95,40.48"/><path d="M74.86,26.74c0.06,0.19,0.08,0.47-0.11,0.77c-1.61,2.53-10.95,5.9-20.64,6.94"/><path d="M51.82,37.51c1.41,0.95,3.53,3.64,3.88,5.12"/><path d="M76.55,35.43c0.01,0.18,0.07,0.48-0.03,0.73c-0.81,1.97-2.12,4.28-4.81,6.98"/><path d="M48.4,45.64c0.37,0.14,1.36,0.37,2.34,0.42c2.71,0.14,21.84-2.31,27.08-2.78c0.99-0.09,1.24-0.14,1.85,0"/><path d="M63.61,35.06c0.56,0.25,0.9,1.14,1.01,1.64c0.11,0.51,0,19.41-0.11,22.57"/><path d="M63.45,45.49c-2.34,4.25-8.04,10.22-13.31,12.67"/><path d="M67.54,48.66c4.28,1.93,9.38,5.19,11.49,8.5"/><path d="M34.12,74.7c1.09,0.35,4.01,0.77,6.34,0.61c15.72-1.05,36.36-2.65,50.47-3.16c2.43-0.09,4.38-0.04,6.57,0.23"/><path d="M63.47,62.79c0.48,0.48,0.93,2.54,0.71,3.56C60.4,83.86,50.5,93.75,33.69,99.5"/><path d="M64.78,74.03c5.47,7.22,18.97,18.72,26.61,23.29c2.09,1.25,2.81,1.44,3.76,1.56"/></svg>