<svg><path d="M16.38,17.25c3.66,1.38,9.45,5.69,10.37,7.84"/><path d="M11.75,42.75c3.44,1.28,8.89,5.26,9.75,7.25"/><path d="M11.25,87.21c1.5,1.31,3.31,1.36,4.25-0.25c2.75-4.7,5.5-10.45,8-16.45"/><path d="M33.31,19.94c1.34,0.56,3.05,1.05,4.47,0.94c7.67-0.62,17.37-3.01,20.45-3.23c1.52-0.11,2.19,1.37,2.19,3.03c0,2.8-0.84,5.03-2.01,10.95"/><path d="M37.2,34.27c3.44-0.19,19.39-2.27,22.97-2.46"/><path d="M36.77,21.59c0,3.6-0.2,10.87-0.25,14.25C36.27,54.27,32,71,22.75,86.75"/><path d="M38.37,55.78c0.38,0.17,2.59,0.74,2.97,0.67c1.56-0.32,15.67-2.92,19.32-2.92c0.64,0,2.03,0.08,2.35,0.16"/><path d="M43.45,41.69c0.37,0.3,1.12,1.84,1.17,2.45c0.4,5.11,1.28,21.11,1.45,26.05"/><path d="M54.72,38.25c0.3,0.35,1.05,2.58,1.04,3.3c-0.16,9.74-0.9,15.25-1.8,27.84"/><path d="M36.33,71.75c0.52,0.33,1.47,0.41,1.98,0.33c3.38-0.59,18.73-3.04,23.05-3.33c0.86-0.06,1.38,0.16,1.81,0.32"/><path d="M43.51,78.01c0.03,0.33,0.07,0.86-0.07,1.34c-0.84,2.83-6.35,8.28-12.23,12.82"/><path d="M52.74,76.17c2.22,2.21,5.73,9.11,6.29,12.55"/><path d="M71.9,17.33c0.35,0.67,0.98,1.76,0.96,2.75c-0.18,10.22-2.05,22-7.54,26.29"/><path d="M72.95,17.81c3.55-0.31,10.29-1.19,11.45-1.87c1.73-1.01,2.6-0.08,2.42,2.16c-0.35,4.4-0.93,10.72-0.93,15.12c0,9.42,1.37,10.49,5.08,10.49c4.91,0,5.75-1.91,5.75-8.71"/><path d="M69.42,54.1c1,0.36,2.72,0.9,4.72,0.36c2-0.54,12.32-2.79,13.78-2.97c1.83-0.23,2.99,1.58,2.37,3.45C83.97,74.12,73.41,85,61.43,93.92"/><path d="M66.48,59.15c2.85,0.81,16.75,22.61,26.66,31.54c1.54,1.39,2.67,2.32,4.1,2.78"/></svg>