<svg><path d="M17.88,17c4.72,1.69,12.19,6.96,13.37,9.59"/><path d="M15,43.25c4.77,1.63,12.31,6.71,13.5,9.25"/><path d="M17.25,90.23c1.71,1.27,3.78,1.32,4.86-0.25c3.14-4.57,7.79-13.16,10.64-18.99"/><path d="M46.25,20.01c0.77,0.22,2.82,0.83,4.86,0.66c8.35-0.66,23.39-2.42,35.06-3.6c2.04-0.21,2.56-0.22,3.83,0"/><path d="M65.19,9.25c0.75,0.35,1.33,1.54,1.36,2.25c0.21,6.25,1,14.43,0.85,18.75"/><path d="M40.16,37.45c1.43,0.3,3.1,0.36,4.53,0.3c13.16-0.55,31.3-2.5,46.13-3.81c2.38-0.21,3.82,0.14,5.01,0.29"/><path d="M54.48,27.43c0.95,1.02,1.33,1.32,1.35,1.95c0.17,6.37,0.76,11.37,1.03,13.49"/><path d="M80.28,25.63c0.23,0.83,0.41,1.43,0.27,2.48c-0.55,4.14-1.05,8.39-1.78,12.7"/><path d="M48.55,47.72c0.41,0.79,1,1.37,1,2.42c0,1.05,0.19,28.02-0.3,32.42"/><path d="M50.23,49.53c2.31-0.13,31.89-3.22,34-3.37c1.75-0.13,3.19,1.09,3.19,3.16c0,2.33-0.52,30.16-0.52,30.92"/><path d="M49.6,59.81c6-0.93,32.47-2.86,37.25-3.03"/><path d="M49.79,69.47c6.51-0.56,28.94-2.33,37.09-2.77"/><path d="M49.49,80.01c8.19-1.22,29.66-2.19,37.38-2.99"/><path d="M56.21,84.97c0.29,1.03,0,2.42-1,3.23c-3.02,2.45-9.33,7.48-15.37,10.38"/><path d="M76.09,83.67c6.75,3.73,14.73,10.49,16.58,13.75"/></svg>