<svg><path d="M21.63,14.5c4.45,1.78,11.5,7.32,12.62,10.09"/><path d="M16,43c4.59,2.03,11.85,8.34,13,11.5"/><path d="M15.75,91.23c1.71,1.27,3.78,1.32,4.86-0.25c3.14-4.57,6.29-10.16,9.14-15.99"/><path d="M43.94,15.02c0.31,0.38,0.31,0.65,0.48,1.13c1.38,3.95,2.68,14.94,3.54,22.31"/><path d="M45.37,15.55c10.7-1,29.55-2.19,37.54-3.02c2.94-0.31,4.44,1.78,4.29,2.87c-0.55,3.99-1.92,14.34-3.26,21"/><path d="M47.36,26.27c3.49-0.39,35.61-2.74,38.5-2.9"/><path d="M48.51,36.38c7.71-0.42,24.29-1.7,34.93-2.39"/><path d="M46.66,42.1c0.24,0.73,0.31,1.25-0.12,2.06c-1.79,3.34-3.29,6.76-5.72,8.46c-0.5,0.35-0.48,1.68,0,1.82c2.55,0.73,5.34,1.94,7.52,3.28"/><path d="M58.48,45.71c0.25,0.45,0.35,1.93,0,2.41c-5.21,7.1-12.78,15.1-18.54,22.11c-0.81,0.99-0.5,1.51,0.5,1.2c4.22-1.26,12.2-3.39,17.62-4.59"/><path d="M55.83,61.8c1.98,2.28,5.13,10.39,5.62,13.94"/><path d="M75.66,39.1c0.24,0.73,0.31,1.25-0.12,2.06c-1.79,3.34-4.79,7.09-7.72,9.46c-0.47,0.38-0.48,1.68,0,1.82c2.55,0.73,6.84,0.94,9.02,2.28"/><path d="M85.48,43.71c0.25,0.45,0.35,1.93,0,2.41c-5.21,7.1-12.78,15.1-18.54,22.11c-0.81,0.99-0.5,1.51,0.5,1.2c4.22-1.26,16.2-4.39,21.62-5.59"/><path d="M83.33,57.55c3.4,2.42,8.77,9.93,9.62,13.69"/><path d="M39.64,84c0,5.25-4.52,13-5.7,14.5"/><path d="M53.92,82.08c2.48,2.76,4.83,10.34,5.45,14.63"/><path d="M69.78,80.58c2.74,2.63,7.08,10.8,7.77,14.88"/><path d="M85.48,78.83c3.18,2.93,8.22,12.07,9.02,16.63"/></svg>