<svg><path d="M15.38,16.5c4.19,1.6,10.82,6.6,11.87,9.09"/><path d="M13.5,40.75C17.91,42.38,24.9,47.46,26,50"/><path d="M13.75,88.73c1.71,1.27,3.97,1.44,4.86-0.25C21.75,82.5,24.75,75,27.25,67.5"/><path d="M60.64,7.5c1.01,0.37,2.46,2.21,2.43,3.29C63,14.2,63,15.99,63,19.09"/><path d="M39.85,21.33c0,3.2-3.21,13.04-4.27,15.17"/><path d="M39.76,22.55c12.49-2.3,44.32-4.95,50.25-5.28c9.27-0.51,1.96,6.26-0.35,8.1"/><path d="M45.51,33.25c0.31,1.48-3.07,8.04-5.53,10.51"/><path d="M52.32,28.46c6.53,9.29,11.7,12.68,24.18,12.23c5.11-0.18,5.34-2.43,1.77-5.65"/><path d="M63.29,27.25c1.36,3.74,3.33,7.48,4.79,1.75"/><path d="M77.85,26.73c4.85,1.97,8.49,3.77,12.43,9.88"/><path d="M43.64,48.28c0.31,0.29,0.62,0.52,0.75,0.88c1.05,2.83,1.48,9,2.2,14.09"/><path d="M45,50.19c6.93-0.81,39.19-3.29,42.12-3.64c1.07-0.13,2.53,0.9,2.24,2.4c-0.6,3.13-1.46,6.45-3.06,10.92"/><path d="M59.14,50.09c0.61,0.66,1.05,1.69,1.09,2.66c0.14,3.1-0.11,7.68-0.07,9.19"/><path d="M72.82,49.76c0.43,1.24,0.4,1.38,0.32,2.25c-0.38,3.99-0.37,7.77-0.63,9.13"/><path d="M33.74,63.84c2.05,0.41,3.54,0.29,5.19,0.21C51.29,63.4,79.75,61,93.92,60.79c2.37-0.04,3.9-0.04,5.19,0.68"/><path d="M40.49,72.56c1.44,0.49,4.08,1.19,5.52,1.11c14.99-0.81,23.98-2.11,41.7-2.74c2.4-0.09,3.84,0.23,5.04,0.48"/><path d="M67.1,75.4c0.07,0.33,1.01,1.74,1.01,3.87c0,7.48,0.24,11.98,0.24,15.67c0,10.31-5.93,0.86-7.14-0.02"/></svg>