<svg><path d="M19.88,16c3.75,1.34,9.69,5.51,10.62,7.59"/><path d="M17,43.25c3.79,1.15,9.8,4.72,10.75,6.5"/><path d="M16.57,90.14c1.36,0.87,2.6,0.23,3.43-1.18c2.75-4.7,5.5-10.45,8-16.45"/><path d="M39.15,14.32c1.54,0.77,3.05,0.52,5.35,0.26c2-0.22,10.32-1.22,13.48-1.65c2.08-0.28,3.63,0.55,3.63,2.92c0,1.07-0.05,12.15-0.05,17.39c0,2.9,0.06,5.2,0.06,5.91"/><path d="M38.23,25.1c1.81,0.73,4.03,0.5,5.9,0.35c4.83-0.37,14.21-0.93,16.21-1.16"/><path d="M38.99,36.61c1.9,0.76,3.84,0.44,5.76,0.21c4.58-0.54,13.76-1.56,15.6-1.77"/><path d="M69.37,13.04c1.75,0.46,2.8,0.52,5.1,0.26c1.95-0.22,10-0.99,13.29-1.38c2.15-0.25,3.87,0.33,3.87,2.9c0,0.77,0,11.37,0,17.93c0,2.84,0,4.93,0,5.12"/><path d="M69.69,24.02c1.43,0.48,3.43,0.48,5.18,0.32c4.55-0.41,12-0.84,15.22-1.12"/><path d="M69.44,35.03c1.61,0.64,3.14,0.78,4.81,0.65c4.34-0.34,14.3-1.23,16.37-1.46"/><path d="M51.65,42.27c0.18,1.27-0.05,2.68-0.62,3.77c-3.62,6.93-8.41,13.72-16.53,21.47"/><path d="M46.23,56.11c0.96,0.96,1,2.49,1,4.14c0,8.19-0.01,21.7-0.02,30.99c0,3.84,0,6.91,0,8.51"/><path d="M74.86,41.96c0.07,0.48-0.02,1.12-0.24,1.53c-1.42,2.64-3.23,4.68-6.49,7.89"/><path d="M48,55.12c6.31-0.74,27.02-2.57,38.01-3.63c2.23-0.21,4.48-0.37,6.69-0.7"/><path d="M68.78,55.9c0.97,0.85,1.22,1.97,1.22,3.11c0,5.85,0.05,21.11,0.05,30.47"/><path d="M48.34,67.05c5.88-0.47,23.82-2.12,33.65-2.94c2.18-0.18,4.37-0.35,6.55-0.57"/><path d="M48.51,78.8c5.96-0.44,23.8-1.82,34.12-2.71c2.42-0.21,4.84-0.43,7.27-0.66"/><path d="M48.42,91.94c7.38-0.4,29.69-1.86,41.96-2.8c2.56-0.2,5.15-0.33,7.71-0.66"/></svg>