<svg><path d="M17.13,15.75c4.28,1.3,11.05,5.33,12.12,7.34"/><path d="M13,39.25c4.06,1.19,10.48,4.9,11.5,6.75"/><path d="M14.25,88.21c1.5,1.31,3.31,1.36,4.25-0.25c2.75-4.7,5.5-10.45,8-16.45"/><path d="M46,17.07c1.2,0.06,2.97,0.38,4.13,0.17c5.11-0.94,24.54-3.42,30.15-3.54c1.64-0.03,3-0.16,4.5,0.11"/><path d="M40.73,27.83c-0.21,5.22-2.05,9.99-3.4,15.26"/><path d="M41.56,30.26c5.76-1.05,36.56-5.01,48.79-5.01c7.09,0,3.65,3.99-0.72,7.14"/><path d="M65.1,18.93c0.65,1.4,0.94,2.32,0.95,3.69c0.01,0.49-0.2,24.85-0.2,26.2"/><path d="M48.46,34.84c3.11,0.69,7.35,2.76,9.05,3.91"/><path d="M48.06,44.23c2.54,0.67,6.46,3.13,7.85,4.24"/><path d="M73.74,32.47c3.05,0.83,6.5,2.5,7.72,3.2"/><path d="M73.59,42.21c2.99,0.71,7.08,2.84,8.71,4.03"/><path d="M44.28,58.91c0.85,0.49,2.4,0.63,3.24,0.49c5.39-0.85,30.86-4.93,36.09-4.36c1.41,0.15,2.26,0.23,2.96,0.48"/><path d="M63.63,58.86c0.01,0.23,0.03,0.6-0.03,0.94c-0.39,1.98-2.63,6.31-5.7,8.96"/><path d="M42.56,71.63c0.46,0.93,0.85,2.4,0.97,4.08c0.17,2.46,1.25,16.65,1.61,20.09"/><path d="M43.6,72.98c6.29-0.74,44.51-4.93,45.75-5.19c2.65-0.56,4.19,0.71,4.15,3.19C93.41,77,92.14,84.25,90.62,90.6c-1.54,6.44-4.84,5.02-6.83,2.61"/><path d="M57.23,73.49c0.55,0.61,1.26,1.81,1.31,2.71c0.18,3.02-0.32,15.05-0.32,16.41"/><path d="M73.15,72.02c0.65,1.4,0.93,2.33,0.95,3.69c0.09,5.29-0.5,12.96-0.88,17.76"/></svg>