<svg><path d="M16.88,15.75c3.84,1.65,9.91,6.78,10.87,9.34"/><path d="M12.5,41c4.06,1.76,10.48,7.26,11.5,10"/><path d="M11.75,87.73c1.71,1.27,3.78,1.32,4.86-0.25c3.14-4.57,6.79-12.66,9.64-18.49"/><path d="M43.41,18.13c1.24,0.38,3.51,0.41,4.75,0.38c9.94-0.26,25.16-1.76,34.02-2.11c2.06-0.08,3.3,0.18,4.33,0.37"/><path d="M63.52,10.25c0.74,0.35,1.18,1.57,1.32,2.27c0.15,0.7,0.42,10.97,0.27,15.34"/><path d="M50.2,28.61c0.71,0.26,2.02,0.3,2.73,0.26C59.5,28.5,71,27.25,77.61,26.57c1.18-0.12,1.9,0.12,2.49,0.25"/><path d="M37.16,37.24c1.27,0.51,3.6,0.93,5.93,0.65c16.15-1.89,36.65-3.64,45.49-4.05c10.15-0.48,2.57,6.66,0.04,8.78"/><path d="M49.01,43.69c0.58,0.38,2.49,0.4,3.09,0.39c4.4-0.09,20-1.99,24.63-2.38c0.9-0.08,1.73,0.08,2.47,0.4"/><path d="M64.03,43.54c0.42,0.62,0.42,0.99,0.42,1.48c0,3.46-0.01,0.56-0.01,6.5"/><path d="M46.1,52.86c0.46,0.19,2.09,0.32,2.87,0.3C56,53,69.75,51.25,78,50.23c1.24-0.15,3.24,0.31,3.87,0.61"/><path d="M35.75,61.2c1.28,0.54,3.62,0.66,4.9,0.54c8.14-0.74,38.1-3.49,52.38-3.73c2.13-0.04,3.41,0.26,4.47,0.53"/><path d="M40.14,70.3c0.28,0.29,0.57,0.53,0.69,0.89c0.97,2.85,2.13,10.7,2.79,15.81"/><path d="M41.38,72.23c4.87-0.73,13.16-2.13,16.43-2.5c1.19-0.14,1.91,0.81,1.74,1.61c-0.71,3.33-1.04,6.84-2.09,11.44"/><path d="M43.75,84.5c3.84-0.42,10.64-0.65,15.91-1.3"/><path d="M65.7,70.71c0.78,0.49,2.18,0.54,2.97,0.49c8.08-0.46,17.23-0.88,26.7-1.62c1.29-0.1,2.07,0.23,2.71,0.48"/><path d="M83.62,61.81c0.06,0.4,0.83,2.06,0.83,4.58c0,16.92-0.17,22.64-0.17,26.75c0,9.98-3.95,1.98-5.39,0.71"/><path d="M69.91,79.02c1.8,1.26,4.66,5.17,5.11,7.12"/></svg>