<svg><path d="M16.38,16.75c5.25,1.74,13.55,7.14,14.87,9.84"/><path d="M12.5,42.5c4.77,1.41,12.31,5.8,13.5,8"/><path d="M13.25,88.23c1.71,1.27,3.78,1.32,4.86-0.25c3.14-4.57,6.29-10.16,9.14-15.99"/><path d="M48.18,15.71c0.12,1.08,0.21,2.42-0.11,3.74c-2,8.35-9.71,24.5-19.01,35.82"/><path d="M38.99,44.48c0.51,0.61,1.16,1.95,1.16,3.2c0,12.92-0.25,38.82-0.25,47.5"/><path d="M63.18,15.29c1.1,1.43,1.75,2.82,1.87,3.95c0.45,4.26,1.28,11.16,1.66,15.53"/><path d="M74.2,14.58c0.8,1.46,0.96,2.33,0.96,3.5c0,1.17,0.2,12.3-0.12,15.2"/><path d="M54.03,23.13c1.64,1.36,4.23,5.59,4.64,7.71"/><path d="M86.81,17.98c0.02,0.34,0.04,0.87-0.04,1.35c-0.44,2.85-2.94,9.1-6.36,12.93"/><path d="M48.91,35.98c0.82,0.34,2.31,0.35,3.13,0.34c4.46-0.07,31.54-3.83,39.3-3.83c1.36,0,2.18,0.16,2.86,0.33"/><path d="M60.96,38.25c1.64,1.44,4.25,5.91,4.66,8.15"/><path d="M80.59,36.28c0.02,0.24,0.04,0.63-0.03,0.98c-0.43,2.06-2.91,6.58-6.3,9.35"/><path d="M51.22,49.27c1.3,0.34,3.68,0.32,4.98,0.34c8.2,0.14,18.3-1.61,29.14-2.95c2.15-0.27,3.47,0.16,4.55,0.33"/><path d="M53.42,58.74c1.09,0.34,3.08,0.89,4.16,0.84c6.92-0.33,16.17-1.58,26.3-2.49c1.8-0.16,2.9,0.16,3.8,0.33"/><path d="M47.81,70.2c1.12,0.34,3.17,0.43,4.29,0.34c6.14-0.48,26.87-2.99,37.49-2.99c1.86,0,2.98,0.16,3.91,0.33"/><path d="M68.27,50.01c0.38,0.92,0.7,2.55,0.69,4.01c-0.11,13.87-3.82,33.8-20.25,40.9"/><path d="M69.17,70.12c2.06,4,12.71,15.85,20.22,21.73c1.17,0.92,2.02,1.53,3.11,1.83"/></svg>