<svg><path d="M18.13,16.5c4.45,1.78,11.5,7.32,12.62,10.09"/><path d="M14,43c4.94,1.68,12.76,6.89,14,9.5"/><path d="M17.25,89.23c1.71,1.27,3.78,1.32,4.86-0.25c3.14-4.57,6.29-10.16,9.14-15.99"/><path d="M62.8,10.75c0.89,0.5,1.59,2.23,1.59,3.25c0,5.25,0.23,9.75,0.23,12.5"/><path d="M64.85,18.5C71.66,18,76.8,16.25,82.89,16c1.42-0.06,1.77-0.25,2.66,0"/><path d="M41.93,25.94c-0.13,4.05-3.3,14.65-4.43,17.06"/><path d="M41.73,29.4c2.85,0,33.43-3.71,47.76-3.71c9.75,0,3.08,5.69-0.56,9.4"/><path d="M50.52,35.55c0.7,0.24,1.98,0.21,2.68,0.24C57.64,36,72.25,34,76.81,33.37c1.15-0.16,1.87,0.11,2.45,0.23"/><path d="M53.82,42.14c0.03,0.33,0.07,0.86-0.07,1.33c-0.84,2.81-5.65,8.97-12.23,12.74"/><path d="M73.92,40.83c4.69,1.57,12.12,6.45,13.29,8.88"/><path d="M65.93,42.25c0.08,0.75,0.39,2.03-0.16,3C61.5,52.75,53.25,64,37.2,74"/><path d="M66.35,46.96c3.95,3.72,20.95,15.87,25.3,18.6c1.48,0.93,3.37,1.32,4.85,1.58"/><path d="M52.34,65.35c0.42,0.8,1.05,2.39,1.05,3.45c0,1.06-0.28,28.52-0.28,29.05"/><path d="M53.26,66.8c2.41-0.13,21.22-1.9,23.42-2.06c1.83-0.13,3.12,0.64,3.12,2.98c0,1.27,0.07,28.05-0.08,28.84"/><path d="M54.06,76.42c5.82-0.52,20.42-1.69,24.28-1.69"/><path d="M53.87,85.63c6.97-0.33,18.97-1.87,25.73-2.09"/><path d="M53.47,94.65c5.63-0.32,19.8-1.69,26-1.69"/></svg>