<svg><path d="M17.88,15.5c3.84,1.52,9.91,6.23,10.87,8.59"/><path d="M11.75,36.25c4.15,1.28,10.71,5.26,11.75,7.25"/><path d="M11.75,86.23c1.71,1.27,3.78,1.32,4.86-0.25c3.14-4.57,6.79-13.16,9.64-18.99"/><path d="M37.39,16.81c0.58,0.42,1.02,2.25,1.14,3.09c0.12,0.84-0.08,67.4-0.19,72.65"/><path d="M38.69,18.19c1.94-0.09,15.22-2.48,16.98-2.6c1.47-0.09,2.23,0.85,2.3,1.59c0.11,1.14-1.22,22.68-1.22,23.24"/><path d="M39.03,28.71c4.76-0.55,13.11-1.97,17.69-2.56"/><path d="M38.69,40.46c6.45-1.07,11.34-1.88,17.04-2.38"/><path d="M70.48,15.4c0.32,0.49,0.64,1.54,0.64,2.19c0,0.65-0.11,20.87,0,21.52"/><path d="M71.19,16.73c1.81-0.08,17.48-2.64,19.12-2.74c1.37-0.08,2.66,1.39,2.65,1.89C92.6,30.93,92.6,78.91,92.6,89.82c0,10.93-6.05,1.7-7.1,0.7"/><path d="M71.5,26.19c2.45,0,18.02-1.97,20.79-1.97"/><path d="M71.65,36.83c3.61,0,15.71-1.31,20.39-1.31"/><path d="M74.42,44.75c0.07,0.21-0.51,1.29-0.88,1.51c-2.84,1.69-10.04,4.48-22.62,6.83"/><path d="M46.08,62.16c1.01,0.32,3.53,0.46,4.53,0.32c7.65-1.14,17.36-3.33,29.38-3.52c1.68-0.02,2.69,0.15,3.53,0.31"/><path d="M62.34,52.77c0.41,0.23,1.29,1.72,1.37,2.18c0.15,0.85-0.05,12.03-0.14,14.98"/><path d="M50.57,70.62c0.36,0.25,0.8,0.43,0.87,0.76c0.73,3.17,1.87,10.7,2.25,15.62"/><path d="M52.13,71.94c8.35-0.79,18.72-2.23,23.42-2.55c1.72-0.12,2.21,1.21,1.96,1.91c-1.01,2.9-2.08,6.58-2.95,10.96"/><path d="M53.51,85.7c5.52-0.37,14.65-2.01,22.23-2.58"/></svg>