<svg><path d="M21.13,14.75c3.92,1.74,10.13,7.14,11.12,9.84"/><path d="M14.75,40c4.5,1.68,11.62,6.89,12.75,9.5"/><path d="M14.75,90.73c1.71,1.27,3.91,1.41,4.86-0.25C22.75,85,25.89,77.83,28.75,72"/><path d="M63.15,10.05c0.87,0.34,2.11,2.02,2.09,3c-0.06,3.1-0.06,5.13-0.07,7.96"/><path d="M42.42,22.14c0,2.82-2.84,11.53-3.92,13.41"/><path d="M42.56,23.71c6.51-0.81,41.23-3.73,46.51-4.04c8.25-0.48,1.75,5.91-0.31,7.65"/><path d="M50.08,30.31c0.73,0.35,2.05,0.39,2.78,0.35c4.94-0.25,17.8-2.31,21.82-2.65c1.2-0.1,1.93,0.17,2.54,0.35"/><path d="M63.98,32.11c0.05,0.25,0.73,1.3,0.78,2.89c0.25,7.62-0.16,6.95-0.16,9.55c0,7.36-4.51,0.78-5.45,0.13"/><path d="M51.45,38.04c0.03,0.29,0.12,0.76-0.06,1.16c-1.32,2.87-6.91,8.41-11.45,11.06"/><path d="M80.92,33.55c0.11,0.67,0.01,2.37-0.67,3.21C74.03,44.37,58.49,54.5,39,62.03"/><path d="M52.05,56.48c0.77,1.08,1.17,1.84,1.17,3.59c0,3.99-0.35,15.2-0.35,26.72"/><path d="M54.51,55.97c2.68-0.22,24.62-2.5,27.06-2.76c2.04-0.22,3.12,1.21,3.12,2.86c0,4.02-0.6,29.04-0.6,30.36"/><path d="M53.27,65.47c5.01-0.33,26.96-2.37,31.26-2.37"/><path d="M52.99,74.58c7.57-0.64,23.05-1.94,31.07-2.07"/><path d="M52.64,83.8c7.57-0.48,24.02-2.25,30.92-2.25"/><path d="M61.26,88.34c0.45,0.96-0.1,1.72-1,2.42c-3.51,2.74-7.76,5.74-15.48,9.3"/><path d="M75.5,88.36c6.99,3.14,15.25,8.83,17.16,11.58"/></svg>