<svg><path d="M19.38,19.25c4.19,1.47,10.82,6.05,11.87,8.34"/><path d="M15.25,44.5C19.75,46,26.87,50.67,28,53"/><path d="M13.75,93.25c1.81,1.25,3.98,1.3,5.12-0.24c3.31-4.5,6.62-10.01,9.63-15.76"/><path d="M47.6,11.41c2.86,1.76,7.38,7.24,8.1,9.98"/><path d="M74.61,9.39c0.01,0.24,0.03,0.63-0.03,0.98c-0.34,2.07-2.31,6.6-5.01,9.38"/><path d="M38.84,24.44c1.12,0.3,3.18,0.39,4.3,0.3c10.81-0.84,30.65-1.66,42.33-2.72c1.85-0.17,2.99,0.14,3.93,0.3"/><path d="M61.43,24.71c0.83,0.43,1.33,1.93,1.49,2.79c0.17,0.86,0,8.89-0.17,14.25"/><path d="M42.41,33.12c1.04,0.26,2.96,0.35,4,0.26c7.88-0.68,23.68-1.36,35.2-2.15c1.73-0.12,2.78,0.12,3.65,0.26"/><path d="M37.14,42.7c1.53,0.35,4.35,0.98,5.88,0.85c10.86-0.92,28.49-2.05,45.9-3.38c2.54-0.19,4.08,0.17,5.36,0.34"/><path d="M52.29,44c0.06,0.53,0.24,1.42-0.12,2.14c-3.02,5.94-12,15.37-21.42,20.48"/><path d="M72.42,43.35c3.68,2.63,16.15,13.93,19.43,16.32c1.11,0.81,2.54,1.16,3.65,1.39"/><path d="M55.25,52.25c1,0.25,1.81,0.62,2.75,0.5c4-0.5,8.34-1.11,12.74-2.05c0.83-0.18,1.68,0.17,2.51,0.05"/><path d="M50.9,61.58c2.12-0.07,23.56-4.09,25.5-4.17c1.61-0.07,2.62,1.04,2.52,2.59c-0.21,3.25-2.46,14.27-2.46,14.68"/><path d="M51.27,68.07c2.87,0,22.2-2.39,25.44-2.39"/><path d="M51.14,76.11c5.84-0.3,17.16-2,24.43-2.26"/><path d="M48.62,59.71c1.06,0.36,1.69,1.63,1.9,2.35c0.21,0.72,0.21,29.72,0.21,31.53c0,2.65-0.9,5.21,1.63,3.94c2.54-1.27,9.15-6.29,11.26-7.92"/><path d="M82.53,75.18c0.21,0.91-0.35,2.45-1.08,2.99C79,80,76.3,82.52,74.4,83.78"/><path d="M60.72,77.25c3.65,0,22.77,17.44,25.75,18.75c4.29,1.88,4.93,1.88,7.08,2.29"/></svg>