<svg><path d="M15.88,15.25c4.01,1.47,10.36,6.05,11.37,8.34"/><path d="M13.75,40.25c4.32,1.63,11.17,6.71,12.25,9.25"/><path d="M13.25,88.65c2,0.35,3.37,0.44,4.34-1.27c2.81-4.97,5.61-11.04,8.16-17.38"/><path d="M49.17,13.91c0.03,0.26,0.13,0.75-0.07,1.04c-2.49,3.66-6.16,7.01-12.65,9.96"/><path d="M34.16,24.94c0.39,0.33,0.62,1.48,0.69,2.14c0.08,0.66,0.36,14.9,0.08,16.51C34.5,46,36,46,37.75,44.25c1.04-1.04,6.75-6.75,10.19-10.09"/><path d="M43.62,29.13c3.51,2.74,5.75,6.79,7.09,10.78"/><path d="M51.65,22.12c0.67,0.29,4.26,0.26,4.85,0.16c4.8-0.81,9.21-2.38,11.88-2.68c1.73-0.19,2.17,1.68,2.07,3.04c-0.25,3.6-3.17,16.13-5.53,20.26c-1.71,3-2.71,2.04-4,0.09"/><path d="M59.7,24.55c0.02,0.42,0.05,1.12-0.04,1.69c-1.15,7.01-2.4,11.01-6.77,16.2"/><path d="M51.06,48.19c0,0.57,0.05,1.02-0.16,1.7C49.8,53.43,39.25,65.25,30.22,70.5"/><path d="M52.6,53.35c6.04,1.94,13.76,7.09,16.7,11.98"/><path d="M41.68,65.87c1.42,0,2.07,0.06,2.53,0.02c4.49-0.41,11.9-1.46,15.33-1.76c0.69-0.06,0.85-0.02,2.04-0.02"/><path d="M37.08,74.55c0.55,0.09,2.37,0.63,2.93,0.61c5.08-0.13,15.86-1.86,22.67-2.26c0.68-0.04,2.2-0.04,3.23,0.04"/><path d="M51.07,67.65c1.12,0.52,1.12,1.7,1.12,2.11c0,2.92,0.56,17.77,0.28,20.7"/><path d="M36.52,80.08c3.51,3.27,5.22,6.82,5.94,8.73"/><path d="M61.12,76.58c0.2,0.65,0.31,1.6,0.23,2.15c-0.21,1.41-1.83,3.99-4.13,8.14"/><path d="M34.82,93.98c1.37,1.25,1.76,1.25,4.05,0.63c1.13-0.31,15.85-4.69,27.56-8.73"/><path d="M78.88,23.9c0.77,0.86,1.31,1.86,1.37,4.69c0.32,13.61-0.02,33.95-0.02,38.59"/><path d="M90.87,14.77c0.93,0.9,1.58,1.94,1.66,4.91c0.38,14.23-0.24,64.7-0.24,69.54c0,12.85-6.83,1.47-8.25,0.24"/></svg>