<svg><path d="M16.13,18c3.57,1.25,9.22,5.15,10.12,7.09"/><path d="M12.25,40c3.79,1.41,9.8,5.8,10.75,8"/><path d="M11.25,88.71c1.5,1.31,3.31,1.36,4.25-0.25C18.25,83.75,21,78,23.5,72"/><path d="M47.09,14c0.87,0.42,1.41,1.94,1.58,2.81c0.18,0.87,0.31,21.59,0.17,27.05"/><path d="M49.27,29.41c5.69-0.74,3.1-0.89,9.09-1.42c1.39-0.12,1.74-0.24,2.62-0.04"/><path d="M36.89,25.48c0.88,0.42,1.41,1.94,1.59,2.81c0.18,0.87,0.57,12.21,0.43,17.67"/><path d="M30.46,46.81c0.41,0.13,1.5,0.43,2.59,0.37c5.87-0.36,20.86-3.97,28.3-4.32c1.09-0.05,2.47,0.23,3.09,0.35"/><path d="M48.43,46.5c0.07,0.24,0.95,1.24,1.01,2.75c0.32,7.25-0.21,18.22-0.21,20.69c0,7.06-1.85,4.18-4.65,0.81"/><path d="M39.44,56c0.03,0.42,0.11,1.12-0.06,1.7c-1.24,4.23-6.49,12.4-10.75,16.3"/><path d="M 62.646793,60.691896 c 0.08,0.69 0.06198,1.954256 -0.16,2.79 C 58.296269,79.258911 44.892145,89.671907 29.81,96"/><path d="M66.3,20.53c0.67,0.49,1.91,0.55,2.59,0.49c8.68-0.82,20.4-2.6,26.87-3.24c1.12-0.11,2.56,0.23,3.13,0.48"/><path d="M81.8,22.07c0.01,0.28,0.03,0.73-0.02,1.14c-0.29,2.4-1.99,7.65-4.31,10.87"/><path d="M68.59,36.78c0.38,1,0.93,1.74,0.93,3.07c0,1.33-0.25,39.87-0.25,40.53"/><path d="M70.14,37.6c4.52-0.51,19.42-2.19,21.36-2.39c1.62-0.17,2.89,1.84,2.76,3.07c-0.17,1.56-0.36,39.68-0.36,40.67"/><path d="M70.1,50.15c6.52-0.99,18.51-1.75,23.08-2.11"/><path d="M70.28,63.37c7.48-0.62,16.28-0.94,22.1-1.41"/><path d="M69.58,77.03c7.55-0.78,17.14-0.85,23.35-1.35"/><path d="M74.05,83.91c0.47,1.07-0.09,2.3-1.02,3.08c-2.79,2.36-11.56,7.21-17.14,10"/><path d="M86.27,83.88c5.06,3.37,11.04,9.49,12.42,12.44"/></svg>