<svg><path d="M14.38,17c3.66,1.52,9.45,6.23,10.37,8.59"/><path d="M12.5,45.25c3.53,1.28,9.12,5.26,10,7.25"/><path d="M11.75,88.18c1.75,0.57,3.74,0.4,4.66-1.26c2.69-4.84,5.39-10.75,7.84-16.92"/><path d="M29.68,28.56c0.9,0.26,2.56,0.86,3.46,0.76c8.11-0.82,15.61-1.82,21.26-2.41c1.5-0.16,2.41,0.13,3.16,0.26"/><path d="M41.95,13.88c0.35,0.24,1.1,1.77,1.17,2.24c0.07,0.47-0.04,20.56-0.12,23.51"/><path d="M31.27,40.26c0.73,0.99,1.43,2.29,1.6,3.8C33.5,49.75,34.5,60,35.36,65.28"/><path d="M32.62,41.83c2.34-0.21,18.21-3.11,20.39-3.09c1.73,0.01,2.65,1.83,2.32,3.92c-0.6,3.92-0.89,13.09-1.99,20.1"/><path d="M34.06,52.4c5.94-0.65,16.59-1.89,20.17-1.89"/><path d="M35.48,63.08c5.9-0.94,13.35-1.96,17.62-2.05"/><path d="M29.24,76.07c0.83,0.34,2.35,0.9,3.17,0.84c5.84-0.41,14.09-1.91,21.2-2.78c1.37-0.17,2.21,0.16,2.9,0.33"/><path d="M42.82,62.49c0.25,0.37,0.77,2.79,0.82,3.54s-0.03,26.07-0.08,30.73"/><path d="M73.88,13.75c0.04,0.67,0.18,1.78-0.07,2.7c-1.79,6.45-5.85,17.93-12.73,25.8"/><path d="M74.57,17.15C77.25,23,88.25,35.25,92.7,39.13c1.15,1,2.42,1.56,3.47,1.87"/><path d="M57.24,48.58c1.26,0.53,1.48,0.55,3.34,0.35c4.17-0.44,7.19-1.21,8.34-1.29c1.3-0.09,3.06,1.2,3.1,2.62c0.05,1.57-0.42,33.56-0.42,38.56c0,10.67-4.09,3.92-5.99,1.71"/><path d="M64.77,51.5c0.02,0.35,0.05,0.9-0.04,1.4c-0.52,2.95-3.5,9.41-7.58,13.37"/><path d="M69.29,62.14c0.04,0.54,0.2,1.45-0.08,2.17C67.26,69.25,62.75,76.5,54.66,85"/><path d="M77.6,47.21C79,48,80,48.25,82.03,47.97c3.51-0.49,5.02-1.2,7.16-1.75c2.81-0.72,3.72,0.35,3.72,3.53c0,5.07-0.46,28.19-0.46,39.05c0,11.53-6.22,0.85-7.32,0.18"/><path d="M85.91,50.49c0.02,0.33,0.05,0.86-0.05,1.34c-0.6,2.83-4.04,9.04-8.75,12.84"/><path d="M89.13,59.98c0.03,0.44,0.07,1.13-0.06,1.75c-0.78,3.7-5.23,12.24-11.32,17.2"/></svg>