<svg><path d="M14.63,17c4.63,1.6,11.96,6.6,13.12,9.09"/><path d="M12.25,40.75c4.68,1.72,12.08,7.07,13.25,9.75"/><path d="M11.75,86.23c1.71,1.27,3.78,1.32,4.86-0.25c3.14-4.57,8.29-15.16,11.14-20.99"/><path d="M37.3,19.16c1.51,0.68,4.29,0.75,5.81,0.68c17.56-0.79,23.44-2.77,43.21-3.04c2.52-0.03,4.04,0.32,5.3,0.66"/><path d="M42.03,20.25c0.05,1.64-0.01,2.22-0.09,4.57C41,51.5,37.5,73,26.31,89.22"/><path d="M62.74,24c0.04,0.2,0.09,0.51-0.08,0.79c-1.01,1.66-6.78,5.31-14.68,7.55"/><path d="M46.06,39.15c0.31,0.15,1.55,0.47,2.38,0.45c5.32-0.1,8.82-1.1,15.19-1.82c0.82-0.09,1.86,0.18,2.38,0.33"/><path d="M56.41,32.52c0.27,0.22,0.43,0.99,0.49,1.44c0.05,0.44,0,22.78-0.05,25.54"/><path d="M56.12,39.3c-2.42,5.87-6.25,11.78-12.02,15.08"/><path d="M58.01,43.19c2.75,1.22,5.91,3.51,7.17,6.23"/><path d="M88.53,22.5c0.04,0.17,0.09,0.45-0.08,0.7c-1.02,1.47-6.84,4.69-14.81,6.65"/><path d="M70.18,37.73c0.33,0.09,1.67,0.33,2.55,0.27c3.99-0.27,13.42-1.53,20.18-1.78c0.89-0.03,2,0.11,2.55,0.19"/><path d="M81.08,30.14c0.27,0.19,0.43,0.84,0.48,1.21c0.05,0.37,0,26.45-0.05,28.78"/><path d="M80.82,37.99C78.75,43.75,73.25,50.25,66,53.57"/><path d="M81.39,38.41c2.11,3.34,8.11,11.09,11.75,13.64c0.77,0.54,1.21,0.97,1.86,1.16"/><path d="M66.32,60.75c0.83,0.47,1.33,2.1,1.5,3.04c0.17,0.93,0.45,20.62,0.28,26.46"/><path d="M68.17,74.72c5.98-0.42,12.15-1.4,18.44-1.69c1.46-0.07,1.83-0.14,2.75,0"/><path d="M51.43,69.01c0.8,0.45,1.28,2.02,1.44,2.91c0.16,0.9,0.33,13.8,0.18,19.41"/><path d="M37.41,91.61c0.74,0.21,2.73,0.69,4.71,0.64C53.01,92,74.04,90,89.77,89.97c1.99,0,5.43,0.43,6.56,0.64"/></svg>