<svg><path d="M18.38,14.75c3.84,1.65,9.91,6.78,10.87,9.34"/><path d="M13.75,43c3.79,1.32,9.8,5.44,10.75,7.5"/><path d="M16.25,89.21c1.5,1.31,3.31,1.36,4.25-0.25c2.75-4.7,5.5-10.45,8-16.45"/><path d="M37.91,21.72c0.58,0.22,3.65,0.27,4.23,0.22c4.16-0.35,13.12-1.69,20.28-2.87c0.95-0.16,2.55,0.1,3.03,0.21"/><path d="M51.83,24.04c0.05,0.45,0.1,1.16-0.1,1.81c-1.17,3.81-7.87,12.18-17.04,17.31"/><path d="M44.48,36.43C52.75,49,57,65.75,51.96,86.47c-2.74,11.29-7.84,3.86-8.42,2.9"/><path d="M47.39,44.67c0.03,0.37,0.06,0.96-0.06,1.49c-0.75,3.15-5.04,10.07-10.92,14.3"/><path d="M49.54,58.12c0.04,0.53,0.09,1.37-0.09,2.13c-1.08,4.49-7.28,14.34-15.76,20.37"/><path d="M61.72,38.96c0.03,0.34,0.05,0.87-0.05,1.35c-0.62,2.85-4.19,9.1-9.07,12.93"/><path d="M53.46,57.91c4.28,3.01,9.85,10.91,11.32,18.4"/><path d="M67.19,30.46c0.8,0.15,2.27,0.29,3.06,0.15C75,29.75,80,29,84.55,28.12c1.3-0.25,2.13,0.07,2.79,0.15"/><path d="M76.38,14.12c0.08,0.28,1.04,1.45,1.12,3.23c0.36,8.5,0.19,24,0.19,26.89"/><path d="M63.47,45.51c0.88,0.35,2.23,0.52,3.04,0.52c4.99-0.02,23.71-3.69,28.84-3.85c1.32-0.04,2.12,0.25,2.78,0.51"/><path d="M92.79,20.57c0.08,0.99,0.44,2.82-0.16,3.99c-7.65,15.13-15.15,25.94-29.1,39.93"/><path d="M 81.505208,50.639792 c 1.375137,0.337282 4.160061,2.539577 4.930348,3.516931"/><path d="M71.89,60.92c0.23,0.82,0.46,1.22,0.46,2.31c0,1.08-0.08,29.43,0,30.52"/><path d="M72.73,61.56c1.29-0.14,15.37-2.1,16.55-1.96c1.22,0.15,2.12,1,2.04,1.81c-0.16,1.63-0.3,30.43-0.3,31.24"/><path d="M72.96,75.76c1.75,0,15.54-1.42,17.52-1.42"/><path d="M72.88,91.2c3.56-0.58,13.16-1.14,17.6-1.64"/></svg>