<svg><path d="M17.38,17c3.31,1.16,8.54,4.78,9.37,6.59"/><path d="M12.5,44c3.53,1.32,9.12,5.44,10,7.5"/><path d="M12.25,89.21c1.5,1.31,3.31,1.36,4.25-0.25c2.75-4.7,5.5-10.45,8-16.45"/><path d="M47.44,13.5c0.67,0.73,1.67,2.37,1.67,4.23c0,2.57,0,4.04,0,8.1"/><path d="M33.33,27.7c0.53,0.26,2.35,0.3,2.88,0.26c2.99-0.23,20.03-3.21,24.55-3.4c0.88-0.04,1.42,0.13,1.86,0.26"/><path d="M39.51,31.13c1.81,3.46,2.63,7,2.79,9.29"/><path d="M57.24,28.01c0.42,0.39,0.47,1.45,0.42,1.78c-0.34,2.2-3.85,8.75-4.7,10.43"/><path d="M30.25,43.26c0.64,0.37,1.38,0.41,2.02,0.37c7.59-0.55,22.5-3.43,30.56-4.18c1.06-0.1,1.7,0.17,2.24,0.36"/><path d="M37.52,49.99c0.38,0.63,0.64,1.26,0.77,1.88c0.13,0.63,0.18,41.54,0.13,42.95"/><path d="M39.05,50.61c1.54-0.16,15.61-2.81,16.75-2.98c2.05-0.31,2.81,2.04,2.56,2.98c-0.25,0.91-0.38,23.41-0.38,36.12c0,11.27-2.77,6.33-5.58,2.91"/><path d="M39.05,62.19c5.24-0.94,13.81-1.85,18.41-2.32"/><path d="M39.44,73.59c4.09-0.47,13.04-1.88,17.77-2.2"/><path d="M72.61,22.25c3.67-0.52,10.89-1.25,17.36-2.47c0.96-0.18,1.54,0.14,2.02,0.3"/><path d="M69.71,13.49c1.07,1.06,1.88,2.15,1.9,3.63c0.04,3.13-0.16,11.38-0.27,15.71c-0.02,0.93,0.19,1.96,2.17,1.64c4.48-0.72,10.18-1.85,14.83-2.49c2.76-0.38,2.77,0.81,2.34,2.42c-0.82,3.1-1.33,5.43-2.17,10.85"/><path d="M69.7,47.66c5.07-0.36,14.2-1.72,21.27-2.04"/><path d="M70.09,47.87c0.57,1.19,1.03,2.59,1.06,4.43c0.15,8.19,0.09,26.64,0.09,32.2c0,13,6.88,11.53,13.65,11.53c10.81,0,11.5-2.78,11.5-9.12"/><path d="M72.15,59.54c3.67-0.53,11.97-1.5,16.13-2.47c0.95-0.22,1.54,0.14,2.02,0.3"/><path d="M71.45,69.5c3.67-0.53,11.55-1.75,16.79-2.47c0.96-0.13,1.54,0.14,2.02,0.3"/><path d="M71.57,80c3.67-0.53,13.18-1.25,18.45-1.97c0.96-0.13,1.54,0.14,2.02,0.3"/></svg>