<svg><path d="M15.13,14.5c4.1,1.69,10.59,6.96,11.62,9.59"/><path d="M12,42c4.24,1.41,10.94,5.8,12,8"/><path d="M10.75,87.73c1.71,1.27,3.78,1.32,4.86-0.25c3.14-4.57,6.29-10.16,9.14-15.99"/><path d="M52.82,13.25c0.06,0.77,0.27,2.05-0.12,3.08c-1.73,4.63-10.08,20.81-20.95,29.46"/><path d="M52.71,18.04c6.73,3.76,12.79,9.57,16.1,16.82"/><path d="M43.19,38.59c0.91,0.18,2.58,0.73,3.49,0.68C51.75,39,56.25,38,60.66,37.49c1.5-0.17,2.43,0.08,3.19,0.17"/><path d="M36.15,49.46c0.19,0.27,0.38,0.49,0.47,0.82c0.66,2.63,1.73,9.88,2.18,14.59"/><path d="M37.04,50.85c4.8-1.2,8.89-2.08,11.1-2.42c0.81-0.13,1.3,0.75,1.18,1.49c-0.48,3.07-1.04,7.56-1.76,11.8"/><path d="M38.89,63.34c2.61-0.39,6.12-0.65,9.7-1.25"/><path d="M53.81,47.77c0.19,0.25,0.39,0.46,0.47,0.78c0.66,2.5,1.46,10.39,1.91,14.88"/><path d="M55,49.06c4-0.95,8.55-1.52,10.8-1.85c0.82-0.12,1.31,0.71,1.2,1.42c-0.49,2.92-1.79,8.26-2.52,12.29"/><path d="M56.29,62.45c2.63-0.37,6.34-1,9.88-1.18"/><path d="M42.51,70.54c0.15,1.03,0.1,2.01-0.11,2.67c-1.82,5.82-5.99,13.52-13.47,20.54"/><path d="M42.49,78.99c2.65,1.06,6.04,3.88,7.33,6.55"/><path d="M60.65,68.87c0.13,1.11,0.09,2.18-0.09,2.9C58.96,78.07,55.32,86.4,48.8,94"/><path d="M59.82,79.91c2.56,1.19,5.51,3.96,6.75,6.95"/><path d="M80.96,13.64c0.03,0.82,0.18,2.17-0.06,3.31c-1.52,7.27-5.64,23.74-10.89,33.8"/><path d="M78.46,37.17c0.04-0.17,2.03,0.56,2.74,0.46c4.3-0.63,8.3-2.13,12.71-2.72c1.27-0.17,2.06-0.02,2.39,0.08"/><path d="M87.1,39.93c0.39,1.35,0.6,2.31,0.2,4.77C83.59,67.04,75.14,87,62.94,94.75"/><path d="M71.92,53.01C78.25,68.25,84.75,80.75,95.5,91.9c1.45,1.5,2.34,1.7,3.5,1.85"/></svg>