<svg><path d="M13.13,19.25c3.4,1.21,8.77,4.96,9.62,6.84"/><path d="M11,43.75c3.35,1.19,8.66,4.9,9.5,6.75"/><path d="M11.25,88.21c1.5,0.54,3.31,0.36,4.25-1.25c2.75-4.7,5.5-10.45,8-16.45"/><path d="M28.98,28.62c0.74,0.31,1.61,0.39,2.35,0.31c8.06-0.84,21.88-3.53,29.69-3.56c1.24,0,1.98,0.15,2.6,0.3"/><path d="M36.37,18.07c1,1.27,1.32,1.65,1.42,2.44c1,7.31,1.48,12.82,1.76,15.47"/><path d="M 54.36,14.81 c 0.37,1.04 0.76,1.79 0.44,3.1 -1.15,4.7 -1.93,12.117708 -3.19,17.137708"/><path d="M  41.127083,35.749376 c 2.726041,-0.122292 6.940624,-0.203333 9.624791,-0.362708"/><path d="M31.41,41.95c0.3,0.3,0.6,0.54,0.73,0.91c1.03,2.94,2.7,10.5,3.41,15.77"/><path d="M33.26,42.94c7.49-1.19,21.92-3.18,25.39-3.57c1.27-0.14,2.04,0.84,1.85,1.66c-0.75,3.43-1.63,7.03-2.75,11.78"/><path d="M35.68,56.06c4.09-0.44,17.73-2.15,23.34-2.81"/><path d="M31.99,66.16c0.61,0.27,1.72,0.38,2.33,0.27c5.27-0.93,17.02-2.18,22.62-2.75c1.01-0.1,1.62,0.13,2.12,0.26"/><path d="M28.39,77.5c0.59,0.27,1.68,0.27,2.28,0.27c3.55-0.01,22.84-2.51,28.77-3.16c0.99-0.11,1.59,0.13,2.08,0.26"/><path d="M 45.44,36.87125 c 0.33,0.85 0.311042,3.038333 0.291042,4.688333 C 45.411042,73.989583 42.88,87.42 27.74,96.69"/><path d="M44.13,78.92c6.1,3,11.89,8.19,14.43,13.51"/><path d="M72.25,16.8c0.08,1.09-0.02,2.51-0.29,3.42c-1.72,5.85-3.9,10.77-7.84,17.81"/><path d="M66.75,37.59c0.75,0.91,1.57,2.64,1.59,3.41C68.7,51.91,68,88.42,68.24,94.58"/><path d="M88.04,16.52c0.07,0.97-0.02,2.25-0.23,3.07c-1.38,5.27-3.12,9.32-6.28,15.69"/><path d="M68.02,38.09c5.2-0.86,25-3.15,27.23-3.65"/><path d="M82.3,37.16c0.25,0.43,0.87,3.01,0.87,3.74c0,7.38,0.03,36.28-0.12,47.88"/><path d="M68.95,54.62c4.91-0.68,24.91-2.01,27.01-2.4"/><path d="M68.85,70.57c5.18-0.53,25.17-1.76,27.39-2.08"/><path d="M68.62,90.19c6.7-0.69,28.4-2.02,30.63-2.52"/></svg>