<svg><path d="M18.13,13.5c3.92,1.69,10.13,6.96,11.12,9.59"/><path d="M14,39.75c4.24,1.63,10.94,6.71,12,9.25"/><path d="M14.25,88.23c1.71,1.27,3.78,1.32,4.86-0.25c3.14-4.57,6.29-10.16,9.14-15.99"/><path d="M58.78,10.75c1.95,1.04,5.04,4.28,5.53,5.9"/><path d="M54.73,22.3c0.45,0.16,2.13,0.19,2.58,0.16c5.48-0.29,9.08-1.35,13.07-1.49c0.74-0.03,1.85,0.08,2.22,0.16"/><path d="M56.85,29.27c0.27,0.08,1.91,0.09,2.18,0.08c2.79-0.1,4.78-0.92,7.53-0.92c0.45,0,2.31,0.04,2.53,0.08"/><path d="M57.21,37.26c0.24,0.08,1.71,0.09,1.94,0.08c2.49-0.09,5.71-1.46,8.16-1.45c0.4,0,2.07,0.04,2.26,0.08"/><path d="M55.87,43.81c0.25,0.18,0.55,0.33,0.63,0.57c0.72,2.13,0.77,6.98,1.5,10.11"/><path d="M57.69,44.84c3.96-0.4,7.43-1.04,11.08-1.44c0.92-0.1,1.47,0.46,1.34,0.92c-0.55,1.9-1.02,4.09-1.99,7.24"/><path d="M58.6,52.5c2.96-0.24,6.81-0.33,10.87-0.7"/><path d="M42.22,11.25c0.26,0.91,0.4,1.62-0.13,2.58c-2.48,4.52-4.73,7.93-7.31,10.05c-0.53,0.44-0.51,2.1,0,2.28c2.71,0.91,4.43,1.01,6.75,2.68"/><path d="M48.26,19.67c0.19,0.33,0.25,1.43,0,1.78c-3.64,5.24-9.58,9.99-14.57,14.77c-1.15,1.09,0.28,1.72,1.03,1.5c3.13-0.93,9.61-2.43,13.63-3.32"/><path d="M47.57,31.25c1.63,1.48,4.2,6.07,4.6,8.37"/><path d="M41.66,37.71c0.04,0.21,0.6,1.11,0.65,2.46c0.21,6.48-0.13,11.87-0.13,14.08"/><path d="M36.59,43.96c0.1,0.47,0.08,1.41-0.1,1.75c-1.2,2.21-4.21,6.48-5.91,8.38"/><path d="M46.65,43.77c2.18,1.71,3.85,5.7,4.35,7.25"/><path d="M83.27,9.75c0.24,0.89,0.44,1.62-0.12,2.52c-2.65,4.23-2.3,3.23-6.32,8.55c-0.4,0.52-0.47,2.05,0,2.22c2.48,0.89,5.71,1.87,7.84,3.5"/><path d="M91.56,15.72c0.22,0.4,0.29,1.72,0,2.15c-4.21,6.3-7.96,9.75-13.75,15.5c-1.33,1.32,0.33,2.07,1.19,1.8c3.62-1.12,9.42-2.53,14.07-3.6"/><path d="M90.69,28c1.56,1.42,4.02,5.82,4.41,8.02"/><path d="M85.41,37.33c0.04,0.21,0.55,1.08,0.59,2.4c0.19,6.32-0.12,11.37-0.12,13.52"/><path d="M80.62,41.6c0.11,0.46,0.09,1.38-0.11,1.71c-1.27,2.16-4.44,6.32-6.24,8.18"/><path d="M90.56,41.28c2.53,1.9,4.48,6.33,5.07,8.05"/><path d="M42.47,59.92c1.42,1.19,2.74,1.55,4.54,1.33c1.8-0.22,25.82-2.66,29.44-3.27c1.36-0.23,3.07,0.98,2.16,2.86c-0.8,1.66-1.48,3.66-2.02,6.65"/><path d="M43.75,71.25c2.9,0,27.12-3,29.19-3s4.15-0.5,5.81-0.5"/><path d="M43.24,69.7c0.26,1.05,0.03,2.15-0.31,3.69c-0.3,1.35-1.11,3.35-2.49,5.68c-0.73,1.23-0.44,2.66,0.96,2.66c3.48,0,34.23-3.39,39.42-3.39c2.37,0,3.58,1.75,2.72,4.04c-2.58,6.86-5.29,11.36-9.47,16.01c-3.15,3.5-4.93,0.6-6.64-2.86"/></svg>