<svg><path d="M14.24,38.25c1.59,3.47,3.91,13.28,4.34,16.75"/><path d="M42.04,32c0.21,1.25,0.08,2.34-0.59,3.24c-0.67,0.9-6.6,6.92-9.98,9.01"/><path d="M28.25,16c0.76,0.75,1.02,2.25,1.03,3.5C29.5,71,25.75,79,13,91.75"/><path d="M30.5,65c4.45,2.87,10.08,11.94,11.25,16"/><path d="M65.02,15c0.05,0.77,0.1,1.98-0.09,3.09c-1.14,6.51-7.7,20.79-16.67,29.54"/><path d="M58,37.37c0.85,0.67,3.48,0.68,4.89,0.45c6.61-1.07,21.58-4.6,24.97-4.82s5.16,1.75,4.9,6.5c-0.5,9.26-5.75,38.26-17.08,51.49c-2.84,3.32-6.18,0.52-8.92-2.12"/><path d="M53.02,59.9c1.22,0.35,2.23,0.55,3.45,0.5c3.64-0.15,8.49-1,10.98-1c1.87,0,2.25,0.1,3.87,0.5"/></svg>