<svg><path d="M35.35,14.29c0.28,0.84,0.1,1.96-0.36,2.7c-3.08,5-5.87,8.26-9.87,11.77c-1.63,1.43-1.76,2.59,0.02,3.58c4.01,2.22,6.74,3.65,9.22,6.04c1.33,1.28,2.26,2.24,3.45,4.11"/><path d="M55.85,13.12c0.28,0.76,0.23,1.95-0.11,2.7c-1.61,3.63-3.4,6-7.57,10.95c-1.35,1.6-1.28,2.79,0.42,3.91c2.66,1.75,5.05,3.19,7.35,5.91c1.17,1.39,1.94,3.1,2.7,4.57"/><path d="M78.67,12.71c0.33,0.67,0.19,1.71-0.1,2.45c-1.22,3.09-3.16,6.23-7.96,10.83c-1.78,1.7-1.91,3.1,0.13,4.28c3.88,2.23,5.76,3.48,8.87,6.61c1.1,1.11,1.76,2.37,2.57,4.28"/><path d="M28,55.5c3.21,2.78,7.88,10.64,8.75,13.41"/><path d="M79.63,52.62c0.62,1.33,0.25,2.78-0.5,3.84c-0.74,1.06-8.67,9.1-12.38,11.58"/><path d="M53.24,47.5c0.88,1.25,1.08,2.75,1.01,4.29C53,77.25,39.75,91.12,18.75,98.25"/><path d="M52.75,65.91c10.8,11.75,21.65,21.93,28.78,26.83c2.24,1.54,3.85,2.51,5.85,3.51"/></svg>