<svg><path d="M46.49,11.25c0,1.25-0.56,2.56-1.26,3.57C40.12,22.12,34.5,28.75,22,35.87"/><path d="M45.62,19.75c1.75,0.5,3.01,0.37,5,0.12c4.36-0.54,9.67-1.8,13.15-2.48c1.89-0.37,3.96,1.3,2.83,3.1c-8.1,12.88-25.35,29.75-51.85,38.45"/><path d="M57.75,34.5c4.72,3.01,24.16,16.58,29.29,19.53c1.74,1,3.23,1.43,4.96,1.72"/><path d="M32.75,60.8c3.09,2.33,8.16,9.85,9,12.18"/><path d="M77.75,58.67c-0.12,1.21-0.41,1.96-1.25,2.92C72.88,65.75,70,68,64.75,71.92"/><path d="M53.59,51.5c0.78,1.25,0.96,2.38,0.91,3.5C53.38,80.5,39.75,92.75,18,99.75"/><path d="M53.75,67.53C65,77.62,72.25,83.88,81.06,90.6c3.65,2.89,7.63,5.22,11.94,6.98"/></svg>