<svg><path d="M23.12,26.9c2.96,0.95,6.23,0.55,9.27,0.27c13.63-1.25,32.76-4.23,44.87-4.97c2.98-0.18,5.92-0.28,8.87,0.29"/><path d="M24.93,27.73c0.79,0.79,1.18,2.14,1.18,3.24C26.11,48,26.5,70,12.81,87.22"/><path d="M39,50.25c2.03,2.81,4.98,10.78,5.53,13.59"/><path d="M80.39,44.04c0.11,1.09,0,1.99-0.75,3.15c-0.75,1.16-6.14,8.31-11.5,12.47"/><path d="M57.13,35.75c0.75,0.88,1.2,2.37,1.07,4.32C56.25,69.5,48,83.5,32.64,93.5"/><path d="M55.69,63.37C65.45,72.66,75.48,82.2,82.52,88c1.39,1.15,4.6,3.75,6.8,4.66"/></svg>