<svg><path d="M13.63,37.95c1.54,3.44,3.78,13.19,4.2,16.63"/><path d="M41.46,32.61c0.17,1.02-0.14,1.81-0.72,2.84S36,43.12,32.57,47.04"/><path d="M28.27,17.25c0.72,0.76,0.93,2.02,0.95,3.28C29.75,63,27.25,81.25,12,94.5"/><path d="M30,69c4.27,2.17,9.65,9.05,10.77,12.13"/><path d="M48.37,20.67c2.68,0.54,5.3,0.53,8,0.23c9.14-1.02,20.38-2.22,29.38-2.72c2.07-0.12,4.33,0.05,6.38,0.51"/><path d="M50.34,35.82c2.03,1.18,4.07,0.76,6.28,0.48c8.29-1.06,19.8-2.06,26.63-2.7c3.84-0.36,6.81-0.26,5.59,4.57c-1.09,4.32-2.47,9.08-3.96,15.74"/><path d="M54.21,57.33c8.42-0.83,20.48-2.06,28.55-2.54c1.53-0.09,2.97-0.14,4.27-0.14"/><path d="M52.38,37.33c0.74,1.17,1.08,2.42,1.08,4.04C53.46,65.29,51.62,82,40,94"/></svg>