<svg><path d="M13.32,39.78c0.93,5.34,1.93,11.47,1.81,16.78"/><path d="M43.93,32.71c0.06,0.68-0.35,1.67-0.94,2.34c-0.59,0.68-6.06,5.12-9,6.7"/><path d="M27.51,19.75c0.61,1.25,0.75,2.86,0.75,4.01c0,41.37-0.39,52.24-14.76,64.74"/><path d="M31.25,63.25c4.76,2.31,10.78,9.61,12.04,12.88"/><path d="M62.38,17.75c0.05,0.76,0,1.73-0.35,2.78c-2.28,6.97-9.15,19.97-17.21,28.52"/><path d="M59,34.23c0.74,0.36,2.52,0.38,3.65,0.11c6.6-1.59,12.1-3.59,17.41-4.99c4.32-1.13,1.94,3.89-3.36,10.04"/><path d="M62.58,46.32c0.67,1.18,1,3.11,0.85,4.74C62.25,64,58.38,84.88,37.25,94.01"/><path d="M62.53,60.44c6.84,7.69,15.34,16.94,24.13,25.66c2.25,2.24,5.02,4.16,7.84,5.65"/></svg>