<svg><path d="M51.93,10.75c0.32,1.25-0.27,2.78-1.32,4.08C45.36,21.32,36.47,29.81,20.7,37.2"/><path d="M47.69,19.06c1.56,0.44,2.75,0.68,5.01,0.55c6.37-0.36,14.85-2.25,18.4-3.01c2.84-0.6,4.87,1.69,3.58,3.9C68.5,31,45.5,48.25,19.52,55.33"/><path d="M42.02,27.76c1.6,0.61,8.02,4.3,11.22,7.98"/><path d="M30.28,35.71c1.81,1.13,7.22,5.94,8.73,8.49"/><path d="M29.75,60.25c3.27,2.36,8.61,10.22,9.5,12.58"/><path d="M79.57,52.21c0.74,0.72,0.68,2.06,0,3.16c-1.32,2.13-6.07,9.38-11.32,12.83"/><path d="M53.32,46.25c0.93,0.75,1.19,1.9,1.18,2.77C54.25,79,38,92,17.5,99.75"/><path d="M53.25,67.34c11.9,11.8,26.34,23.8,34.19,28.72c2.47,1.55,3.04,1.38,5.06,1.77"/></svg>