<svg><path d="M13.99,36.75c2.05,3.93,5.03,15.07,5.59,19"/><path d="M42.03,31.25c0.76,0.77,0.61,2.28-0.08,3.47c-0.69,1.19-7.27,10-10.72,12.78"/><path d="M27.75,15.75c0.76,0.75,1.52,1.75,1.53,3c0.22,51.5-3.78,60-15.78,74.75"/><path d="M29.5,66.5c4.26,2.73,9.63,11.38,10.75,15.25"/><path d="M51.04,20.76c0.97,0.43,1.56,1.94,1.75,2.8c0.2,0.86,0,61.81-0.2,67.19"/><path d="M52.51,21.88c7.75-0.49,27.72-2.28,36.83-3.19c2.7-0.27,4.37-0.16,5.73,0.02"/><path d="M53.39,45.16c15.39-1.52,22.46-2.41,33.16-3.24c2.62-0.2,4.05,1.39,3.49,3.98C89.16,50,88,58,87.26,63.49"/><path d="M52.98,66.27c6.43-0.64,30.93-2.22,36.98-2.61"/><path d="M 52.868333,89.525625 c 1.74,0.34 2.86,0.57 5.23,0.35 6.6975,-1.032917 21.130833,-3.641875 29.874792,-2.966458 3.259997,-0.1 5.229997,0.29 6.859997,0.53"/></svg>