<svg><path d="M11.99,32c2.78,3.47,6.83,13.28,7.59,16.75"/><path d="M42.54,26.75c0.75,0.83,0.58,2.42-0.09,3.7c-0.67,1.28-7.1,10.81-10.48,13.8"/><path d="M26.87,13.25c0.71,0.78,1.41,1.83,1.41,3.14C28.48,70.2,27.25,80,13.25,94.5"/><path d="M29.5,71.25c4.65,3.04,10.53,12.69,11.75,17"/><path d="M46.15,19.92c1.46,0.68,4.11,0.79,5.6,0.68c8.77-0.68,24.57-3,38.46-2.98c2.43,0,3.89,0.32,5.11,0.66"/><path d="M47.01,38.11c0.99,1.14,1.28,2.34,1.32,4.14c0.23,11-0.21,41.33-0.02,52.57"/><path d="M48.37,39.51c5.9-0.61,40.75-3.85,41.88-3.96c2.64-0.26,4,1.19,4.07,4.11c0.21,8.92,0.2,38.84,0.2,47.98c0,8.86-4.02,5.36-8.08,1.03"/><path d="M68.07,23.19c0.47,0.65,1.04,1.66,1.03,3.45C69,46,66.75,60.25,53.13,71.19"/><path d="M69.25,40.75C71.75,48.75,80,62,85.42,67.1c1.13,1.07,2.18,1.79,3.08,2.15"/></svg>