<svg><path d="M11.99,38c2.78,3.88,6.83,14.87,7.59,18.75"/><path d="M43.08,28.25c0.71,0.84,0.54,2.45-0.11,3.75c-0.64,1.3-6.77,10.97-9.99,14"/><path d="M27.87,15.75c0.71,0.76,1.41,1.77,1.41,3.03c0.2,52-2.28,62.72-15.03,75.47"/><path d="M31,68c4.65,2.91,10.53,12.13,11.75,16.25"/><path d="M58.73,14c0.06,0.89,0.27,2.33-0.11,3.57c-2.46,8.02-9.04,22.58-19.57,34.18"/><path d="M56.36,31.29c0.99,0.25,2.79,0.29,3.78,0.25c13-0.53,22.09-3.31,31.66-3.86c1.81-0.1,3,0.03,4.41,0.29"/><path d="M63.16,32.96c0.85,0.48,1.36,2.17,1.53,3.13c0.17,0.96,0,54.14-0.17,60.16"/><path d="M65.07,49.34c6.87-0.65,14.16-0.83,21.93-1.48c1.83-0.15,2.51-0.21,4.47,0.12"/><path d="M64.99,66.04c5.34-0.39,14.57-1.26,26.8-2.09c1.1-0.07,3.9,0.08,4.45,0.15"/></svg>