<svg><path d="M32.77,17.58c3.19,2.05,8.24,8.44,9.04,11.63"/><path d="M60.44,15.14c0.12,1.56-0.22,2.85-1,5C53.38,37,39.75,64.75,15.31,80.47"/><path d="M27.37,36.75c2.46,0.39,5,0.57,7.53,0.29c9.95-1.08,28.26-3.76,34.47-4.55c2.47-0.31,4.79-0.23,3.79,2.95c-0.65,2.07-2.06,6.21-3.42,10.06"/><path d="M45.77,49.34c9.08-0.91,23.91-2.76,28.12-3.24c2.28-0.26,3.61,0.6,2.76,2.95c-0.86,2.36-2.99,7.41-4.41,11.44"/><path d="M39.25,63c1.25,0.75,2.95,0.75,5,0.5C48.38,63,79.82,60.02,88,59.36c4.75-0.39,5.92,0.95,4.84,5.57C91.25,71.69,87.45,82.49,82,92.25c-2.64,4.72-5.05,1.88-8-1.25"/><path d="M26.12,79.88c0.95,2,2.45,8.23,2.68,11.34"/><path d="M38.75,76.08c1.79,1.88,4.62,7.71,5.06,10.63"/><path d="M53,73.83c1.79,1.66,4.62,6.81,5.06,9.38"/><path d="M67.75,70.62c2.14,1.65,5.53,6.78,6.07,9.34"/></svg>