<svg><path d="M52.7,10.88c1.21,1.21,1.9,2.87,1.9,4.21c0,0.69-0.07,26.53-0.19,30.76"/><path d="M56.3,29.5c5.96-1,12.48-2.25,17.01-3.08c0.97-0.18,2.76,0,3.55,0.19"/><path d="M32.11,48.83c0.82,0.7,1.31,1.58,1.48,2.64c1.2,3.95,2.99,11.69,3.98,17.77c0.19,1.18,0.37,2.33,0.51,3.41"/><path d="M34.51,50.65c14.24-2.65,35.75-5.73,40.93-6.1c2.56-0.18,3.84,2.43,3.54,3.86c-0.68,3.25-2.51,10.97-3.63,15.49"/><path d="M38.5,69.44c5.17-0.54,23.33-2.7,33.76-3.87c2.12-0.24,3.92-0.43,5.25-0.54"/><path d="M23.25,83c0,5.79-6.74,14.34-8.5,16"/><path d="M40.02,82.08c2.61,2.95,4.58,10.07,5.23,14.67"/><path d="M61.5,80.5c2.4,2.73,5.71,10.72,6.31,14.97"/><path d="M82.25,79c3.81,2.82,9.85,12.08,10.81,16.47"/></svg>