<svg><path d="M49.23,10.68c0.03,1.02-0.07,2.03-0.46,2.95c-1.51,3.5-3.51,7.12-6.76,11.12"/><path d="M33.38,27.07c0.78,0.78,1.07,2.18,1.07,3.3c0,5.08,0.03,19.07-0.08,30.63c-0.03,3.55-0.08,6.75-0.15,9.2"/><path d="M35.02,28.72c5.23-0.72,32.59-4.48,34.67-4.48c2.77,0,4.85,1.82,4.09,4.54c-0.53,1.9-1.98,6.51-3.5,11.35c-0.51,1.63-1.03,3.29-1.52,4.87"/><path d="M35.24,45.78c5.31-0.38,26.87-2.88,33.48-3.2"/><path d="M35.53,58.05c9.25-1.07,27.99-2.77,36.98-3.78c3.18-0.43,6.39-0.55,9.61-0.37"/><path d="M34.48,70.4c17.27-2.53,37.15-4.56,49.02-5.4c5.25-0.38,6.81,2.33,6,5.75c-2.25,9.5-4.32,17.96-8,24c-3.5,5.75-5.25,3.75-9,0.75"/><path d="M16.39,80c0.41,5.38-0.29,11.89-1.5,15.25"/><path d="M32,79.75c2.69,2.18,5.24,8.16,5.91,11.55"/><path d="M47.5,77.25c2.21,1.85,5.7,7.62,6.25,10.5"/><path d="M61.25,75.75c2.29,1.72,5.93,7.07,6.5,9.75"/></svg>