<svg><path d="M37.39,13.86c0.24,1.45-0.07,3.34-0.85,4.58c-5.01,7.89-11.36,15.3-22.85,24.91"/><path d="M29.39,31.85c0.1,0.64,0.6,1.79,0.65,2.7c0.48,8.48-0.47,24.49-0.47,32.76"/><path d="M39.56,31.27c0.61,0.21,3.23,0.78,4.84,0.63c11.69-1.12,28.85-3.24,42.83-3.67c1.63-0.05,3.01-0.21,4.03,0"/><path d="M61.94,13.5c0.84,0.33,1.35,1.51,1.52,2.17c0.17,0.67,0,47.64-0.17,51.83"/><path d="M62.36,30.18c-4.42,9.39-13.77,22.14-22.96,27.45"/><path d="M63.63,30.01C68.75,37.5,79,48.25,88.22,55.95c1.69,1.41,2.82,2.01,4.34,2.42"/><path d="M24.69,77.5c0,6.7-7.34,16.59-9.25,18.5"/><path d="M41.46,76.58c2.7,3.7,5.26,13.88,5.94,19.63"/><path d="M61.82,76.33c2.98,3.29,7.69,13.52,8.43,18.63"/><path d="M82.46,75.83C87.24,79.47,94.8,90.8,96,96.47"/></svg>