<svg><path d="M30.21,15.15c1.12,0.53,2.39,1.58,4.18,1.46c3.15-0.2,29.29-2.12,31.35-2.12c2.06,0,3.69,1.91,1.44,3.43C61.5,21.75,58,25,51.33,29.09"/><path d="M49.43,30.11c7.87,4.81,11.12,19.93,4.53,31.27c-3.18,5.47-4.1,0.76-6.27-0.91"/><path d="M17.65,36.22c1.91,0.22,2.63,0.39,4.54-0.06c1.91-0.44,13.81-2.66,18.27-3.33c2.26-0.34,3.22,1.67,2.26,3.67c-2.22,4.67-13.98,19-26.85,24.67"/><path d="M86,25.73c0.09,0.38,0.16,1.03-0.18,1.52c-3.19,4.67-10.3,10.86-16.06,13.29"/><path d="M57.9,30.8c2.35,0.95,23.39,22.64,31.7,27.83c1.75,1.09,3.42,1.64,5.02,2.01"/><path d="M22.61,69.25c1.45,0.47,4.11,0.56,5.55,0.47c17.77-1.1,37.44-1.93,52.41-1.92c2.42,0,3.86,0.22,5.07,0.46"/><path d="M24,81c0,5.43-7.53,13.45-9.5,15"/><path d="M38.77,77.33c3.49,3.46,6.81,12.99,7.69,18.38"/><path d="M60.87,78.08c3.15,2.89,8.15,11.89,8.93,16.38"/><path d="M81.77,78.33c4.34,3.11,11.21,12.79,12.29,17.63"/></svg>