<svg><path d="M9.99,36.75c2.78,4.14,6.83,15.86,7.59,20"/><path d="M40.03,31.25c0.76,0.77,0.11,2.78-0.58,3.97c-0.69,1.19-6.77,8.5-10.22,11.28"/><path d="M25.25,14.75c0.76,0.75,1.02,2.25,1.03,3.5C26.5,69.75,23.5,82.5,11,95.5"/><path d="M27.25,70c4.55,3.36,10.3,13.99,11.5,18.75"/><path d="M60.77,12.25c0.06,0.78,0.3,2.06-0.12,3.12C57.42,23.51,50,37.5,40.07,45.82"/><path d="M60.76,23.41c0.33,0.04,1.76,0,2.71-0.11c3.14-0.35,11.96-1.59,16.44-2.68c3.08-0.75,4.23,0.99,3.16,2.89C75.5,37,60,58.5,38.94,67.53"/><path d="M54.15,29.08c5.15,5.87,28.47,28.15,35.41,33.51c2.07,1.6,3.74,2.37,5.76,2.85"/><path d="M49.83,71.01c0.36,0.44,0.73,0.8,0.89,1.35c1.25,4.34,2.75,16.81,3.61,24.6"/><path d="M51.08,72.22C60,71.5,74,70.25,81.88,69.38c2.09-0.23,3.33,1.66,3.03,3.31c-1.23,6.82-3.02,11.38-4.85,20.8"/><path d="M54.01,94.63C62,94,73.5,93.5,82.87,93.38"/></svg>