<svg><path d="M51.98,8.5c0.85,0.43,2.25,2.11,2.25,2.97c0,3.18-0.27,6.8-0.11,9.49"/><path d="M17.5,22.86c2,0.37,3.76,0.71,6.06,0.52c13.94-1.13,44.19-3.17,60.14-3.92c2.35-0.11,3.55,0.04,5.3,0.66"/><path d="M31.89,30.73c0.37,0.24,0.74,0.44,0.91,0.75c1.28,2.41,2.8,9.48,3.68,13.8"/><path d="M33.68,32.06c9.01-1.01,33.9-3.34,38.55-3.68c1.7-0.12,2.72,1.25,2.48,1.99c-1.01,3.03-2.16,5.22-4.31,9.59"/><path d="M36.84,43.26c5.46-0.38,28.33-2.54,35.25-2.93"/><path d="M25.53,52.75c1.3,0.31,3.76,0.79,5.72,0.52c2.39-0.33,37.93-4.79,40.21-4.79c2.28,0,4.19,2.15,1.59,3.57c-4.56,2.5-14.46,8.09-19.9,11.88"/><path d="M50.23,60.85c6.02,4.9,8.26,14.82,4.56,23.97C52.5,90.5,49,86,47.18,83.29"/><path d="M24,87c0,5.25-5.16,13-6.5,14.5"/><path d="M39.52,88.83c2.93,2.15,5.7,8.05,6.44,11.38"/><path d="M62.87,88.08c2.8,1.92,7.23,7.9,7.93,10.88"/><path d="M82.77,87.08c3.46,2.27,8.93,9.35,9.79,12.88"/></svg>