<svg><path d="M22.71,14.97c1.13,0.46,3.19,0.52,4.32,0.46c11.31-0.68,37.22-2.5,53.06-2.76c1.88-0.03,3.01,0.22,3.95,0.45"/><path d="M53.38,16.3c0.07,0.24,0.92,1.26,0.98,2.79c0.31,7.37-0.2,16.99-0.2,19.5"/><path d="M55.73,25.88c0.44,0.12,1.24,0.13,1.68,0.12c4.22-0.01,11.86-1.4,20.26-1.44c0.73,0,1.17,0.06,1.54,0.12"/><path d="M32.51,22.46c0.07,0.2,0.97,1.03,1.04,2.28c0.33,6.02,0.68,13.77,0.68,15.81"/><path d="M14.21,40.84c1.57,0.36,4.95,0.9,6.45,0.8c13.34-0.89,49.09-4.39,69.11-4.92c2.52-0.07,4.71,0.54,6.02,1.08"/><path d="M35.73,53.09c0.9,0.2,2.54,0.2,3.44,0.2c8.63-0.01,24.83-2.04,42.4-3.24c1.49-0.1,2.39,0.09,3.14,0.19"/><path d="M36.25,41.5c0.46,0.38,1.08,2.48,0.95,3.12C35.75,52,34.5,60,32.97,64.2c-0.62,1.69,0.13,4.27,2.51,3.58c5.27-1.53,41.3-2.9,49.17-3.77c5.12-0.57,7.73,2.65,6.82,6.53C89.5,79,86.25,86.75,83.25,93.25C78.56,103.41,75.5,96,73.3,92.7"/><path d="M23.08,79c-0.83,5.75-2.83,12-6.8,15.25"/><path d="M36,77.75c2.55,2.65,4.98,9.93,5.62,14.05"/><path d="M53,76c2.39,2.22,6.16,9.12,6.76,12.58"/><path d="M68.25,72.75c2.74,2.14,7.07,8.78,7.75,12.1"/></svg>