<svg><path d="M11.74,37c2.88,3.78,7.06,14.47,7.84,18.25"/><path d="M41.56,31.25c0.73,0.84,0.56,2.45-0.1,3.75c-0.66,1.3-6.94,10.97-10.23,14"/><path d="M27.25,14.25c0.76,0.79,1.02,1.83,1.03,3.14C28.5,71.38,24.5,82.12,12,95.75"/><path d="M28.75,66.75c4.55,3.04,10.3,12.69,11.5,17"/><path d="M67.75,13.25c1,0.75,1.5,0.75,1.5,2.5s0,6.25,0,11"/><path d="M48,28.29c1.39,0.27,3.02,0.31,4.41,0.27c7.85-0.23,24.6-2.87,36.47-3.06c2.32-0.04,3.71,0.13,4.87,0.26"/><path d="M54.75,34.5c3.72,6.25,5.41,12.63,5.75,16.75"/><path d="M83.11,30.5c0.66,0.63,0.74,0.94,0.66,1.46C83.24,35.51,78.83,46.29,77.5,49"/><path d="M42.75,55.54c1.78,0.48,3.88,0.67,5.65,0.48c19.43-2.07,23.6-2.68,46.11-3.66c2.97-0.13,4.76,0.23,6.24,0.47"/><path d="M50.25,66.62c0.46,0.48,0.92,0.88,1.12,1.48c1.58,4.76,3.9,19.6,4.98,28.15"/><path d="M52.1,68.01C61.25,67,80,65.25,84.71,64.99c3.28-0.18,4.96,0.83,4.35,3.2c-1.82,7.06-2.82,13.81-4.28,23.4"/><path d="M56.57,93.29C64.25,92.5,76.5,92,87.24,91.28"/></svg>