<svg><path d="M16.16,28.07c0.82,0.24,3.31,0.7,5.5,0.5c7.7-0.71,14.04-2.08,22.29-2.55c2.19-0.13,3.85-0.71,5.22-0.47"/><path d="M33.57,12.38c0.68,0.62,1.61,2.01,1.61,2.74c0,8.14-0.23,26.39-0.23,36.45"/><path d="M34.74,27.47c-3.49,7.03-13.79,16.79-21,20.34"/><path d="M38.11,31.04c3.39,1.96,7.14,6.21,9.36,9.84"/><path d="M56.52,25.35c0.57,0.17,1.33,0.45,2.85,0.52c4.18,0.17,16.73-1.21,27.19-2.07c1.52-0.12,2.84-0.17,3.79,0"/><path d="M71.06,11.5c1.17,0.34,2.11,2.51,2.11,3.24c0,5.51,0,31.21-0.23,35.51"/><path d="M72.99,24.4c-2.93,7.06-12.05,16.87-18.85,20.49"/><path d="M72.37,25.7c5.52,6.37,14.35,14.54,18.83,17.05c1.28,0.72,1.99,1.21,3.06,1.45"/><path d="M30.25,60.1c2.92,2.72,7.7,11.8,8.5,14.53"/><path d="M78.08,56.38c0.17,1.12,0.15,2.95-0.5,4.02c-0.65,1.07-7.32,8.76-10.58,11.25"/><path d="M53.83,52.25c0.67,0.98,0.69,2.16,0.67,2.92C54,81.15,40.75,92.66,18.25,100.25"/><path d="M52.5,70.72c12.58,10.69,27.84,21.56,36.15,26.01c2.61,1.4,3.21,1.25,5.35,1.6"/></svg>