<svg><path d="M37.57,14.5c0.22,1.66-0.31,2.84-1.01,4.27c-4.44,9.09-10.32,17.03-20.5,28.09"/><path d="M31.68,31.81c0.82,0.82,1.25,1.92,1.25,3.18c0,9-0.01,22.95-0.02,31.75c0,4.15-0.01,7.11-0.01,7.75"/><path d="M61.98,14.25c0.08,0.83-0.02,1.93-0.27,2.64c-1.56,4.56-2.34,6.73-5.61,12.62"/><path d="M33.68,33.06c7.08-0.63,30.96-2.59,43.35-3.54c3.68-0.28,6.35-0.5,7.25-0.6"/><path d="M55.73,33.93c0.86,0.86,1.3,1.95,1.3,3.31c0,5.63,0.03,20.13,0.03,29.92"/><path d="M33.9,44c6.76-0.53,28.01-1.79,38.6-2.38c3-0.17,5.19-0.3,6.01-0.39"/><path d="M34.1,55.69c7.04-0.44,27.93-1.45,39.14-1.96c2.25-0.1,4.51-0.16,6.75-0.34"/><path d="M34.1,69.55c7.01-0.62,31.58-1.47,44.78-2.1c2.68-0.13,5.39-0.17,8.05-0.48"/><path d="M25,82.5c0,5.25-6.75,13-8.25,14.5"/><path d="M40.78,80.17c2.46,2.98,4.8,11.17,5.42,15.8"/><path d="M61.12,79.08c2.89,2.63,7.46,10.8,8.18,14.88"/><path d="M83.02,78.58c4.07,2.71,10.52,11.16,11.54,15.38"/></svg>