<svg><path d="M32.88,14.38c0.5,1.35,0.16,2.57-0.55,4.16c-4.06,9.08-9.31,18.01-15.09,24.07"/><path d="M33.88,21.24c0.69,0.18,1.72,0.58,2.88,0.35c3.73-0.71,7.79-1.38,9.98-1.8c3.03-0.58,3.74,0.43,3.02,3.28C46.73,35,33.5,55.75,17.42,66.25"/><path d="M29.82,31.84c1.36,0.41,6.81,2.86,9.54,5.31"/><path d="M21.68,42.77c1.87,0.9,7.46,4.71,9.02,6.73"/><path d="M50.38,37.19c0.81,0.32,3.56,0.47,5.12,0.29c8.15-0.99,19.56-2.23,25.02-2.63c1.12-0.08,2.72-0.37,5.22,0.18"/><path d="M66.36,14.08c0.71,0.8,1.22,1.85,1.24,3.45C67.88,37,61.5,60.12,44.03,68.12"/><path d="M66.83,40.23c5.89,7.88,16.79,20.16,23.91,26.16c1.86,1.57,2.63,1.7,3.52,1.84"/><path d="M77.62,15c4.12,3,7.12,6.74,8.86,10.33"/><path d="M20.75,80c0,5.52-4.76,13.67-6,15.25"/><path d="M40.5,77.38c2.5,3.38,3.91,12.44,3.92,16.96"/><path d="M61.02,76.84c2.74,2.94,6.29,12.02,6.29,16.53"/><path d="M83.76,77.44c3.5,2.9,8.36,11.85,8.64,16.29"/></svg>