<svg><path d="M12.62,36.75c1.7,2.48,4.16,9.52,4.62,12"/><path d="M40.49,30.75c0.38,1,0.26,2.34-0.38,3.22c-1.86,2.53-3.98,5.53-7.86,9.78"/><path d="M27.76,18.25c0.74,0.72,0.99,2.18,0.99,3.38C28.6,69.4,23.88,75.88,10.25,90.5"/><path d="M29.38,63.88c4.73,4.33,8.51,10.11,10.88,16.38"/><path d="M50.61,25.75c2.14,0.5,4.4,0.11,6.52-0.12c6.98-0.77,17.72-2.23,26.13-2.96c1.97-0.17,3.7-0.44,5.64-0.03"/><path d="M67.86,12.63c0.75,0.76,1.28,1.99,1.28,3.24c0,0.69,0.05,9.38,0.07,16c0,1.58,0.01,3.04,0.01,4.25"/><path d="M43.65,48.13c2.6,0.49,4.58,0.39,6.73,0.16c9.98-1.07,27.12-2.66,39.12-3.62c2.44-0.19,4.89-0.32,7.27,0.37"/><path d="M55.56,37.57c0.93,0.93,1.41,2.31,1.46,3.18c0.48,7.75,0.75,16,0.75,21.47"/><path d="M83.43,35.2c0.57,0.8,0.92,2.52,0.56,4.24C82,49,80.62,55,79.36,60.82"/><path d="M43.98,63.2c2.5,0.56,4.99,0.35,7.52,0.12c9.83-0.89,26.05-2.23,36.5-2.8c2.45-0.13,4.83-0.37,7.21,0.32"/><path d="M60.67,66.12c0.06,0.66-0.08,1.72-0.38,2.67c-2.04,6.46-9.41,17.58-22.88,25.5"/><path d="M73.07,64.26c0.84,0.84,1.37,2.2,1.37,3.57c0,7.92-0.08,12.37-0.08,16.55c0,7.12,1.52,8.65,11.19,8.65c10.71,0,11.7-1.79,11.7-7.6"/></svg>