<svg><path d="M 18.87,17.25 c 0,1 -0.26,1.75 -0.04,2.75 0.22,1 -0.4,41 -0.4,44.88 0,0.69 -0.118035,2.287427 -0.06873,3.071383"/><path d="M16.25,16.5c0.63,0.29,1.78,0.32,2.41,0.29C23.5,16.5,42,15,48.05,14.37c1.04-0.11,2.18,0.14,2.7,0.28"/><path d="M26.06,25.99c0.44,0.76,1.08,2.23,1.08,3.08c0,9.43-0.47,16.93-0.47,22.7"/><path d="M 34.808206,16.888598 c 0.776837,0.624637 0.769936,0.890324 1.327738,2.255921 0.07143,2.427324 -0.102404,8.542557 -0.377502,10.383429 -0.275097,1.840872 0.169396,2.818365 2.187818,2.4335 2.018421,-0.384864 6.026533,-1.259137 8.348595,-1.089406 1.34601,0.09839 2.159881,0.584176 1.965658,2.36277 -0.491556,4.501414 -1.423878,7.084506 -2.763076,12.07017"/><path d="M35.72,46.95c2.28-0.2,7.78-0.7,11.87-1.03"/><path d="M34.13,44.75c0.82,0.38,1.31,1.69,1.47,2.44c0.16,0.75,0,12.62-0.16,17.31"/><path d="M 18.644537,66.889142 C 25.234537,66.099142 41,64.5 50.05,64.37 c 1.05,-0.01 2.18,0.14 2.7,0.28"/><path d="M57.5,14.49c1.19,0.89,2.19,0.71,3.95,0.6c5.55-0.34,22.23-1.63,23.32-1.61C87,13.5,88.25,15,87.82,16.76c-0.17,0.68-3.11,12.36-4.11,18.96"/><path d="M60.75,37.42c5.5-0.17,12.25-0.92,24.71-1.04"/><path d="M60.36,15.8c-0.02,5.31,0.08,29.49,0.1,34.3c0.04,13.62,2.43,14.15,18.48,14.15c14.81,0,14.88-4.37,14.88-8.91"/><path d="M20.75,80c0,6.16-6.15,15.24-7.75,17"/><path d="M39.45,77.62c3.24,3.44,5.66,12.85,6,18.16"/><path d="M59.52,76.26c3.74,3.18,9.02,13.05,9.41,17.96"/><path d="M81.27,76.26c4.98,3.41,12.27,13.96,13.01,19.21"/></svg>