<svg><path d="M14.24,37.75c1.59,3.47,3.91,13.28,4.34,16.75"/><path d="M42.28,31c0.22,1,0.11,1.78-0.58,2.97c-0.69,1.19-5.45,7.4-9.72,11.28"/><path d="M27.5,16.75c0.76,0.75,1.27,2.25,1.28,3.5C29.25,68.12,26.5,78.62,12.5,94"/><path d="M30,66.12C34.55,68.61,40.3,76.48,41.5,80"/><path d="M45.26,23.34c2.49,0.66,4.73,0.43,6.62,0.17C59.61,22.43,75.76,20.56,84,20c2.32-0.16,4.93-0.38,7.21,0.29"/><path d="M45,37.91c0.31,0.34,0.62,0.62,0.76,1.04c0.86,2.69,1.86,9.22,2.6,14.78c0.17,1.32,0.33,2.58,0.47,3.73"/><path d="M47.16,39.56c9.88-1.61,29.46-3.94,39.71-4.69c3.54-0.26,6.07-0.11,5.17,4.16c-0.65,3.08-1.27,6.83-2.36,10.82c-0.33,1.22-0.68,2.45-1.05,3.7"/><path d="M59.12,25.16c0.99,0.99,1.45,2.09,1.47,3.43c0.16,9.79,0.28,14.91,0.57,24.18"/><path d="M74.37,23.47c0.63,0.91,1.04,2.28,1.01,3.78c-0.14,7.01-0.51,17.01-0.81,24.4"/><path d="M49.63,55.26c7.12-0.76,27.5-3.01,38.42-3.58"/><path d="M51.75,71.1c1.56,0.61,3.98,0.5,5.63,0.33c6.78-0.72,18.1-2.25,25.25-2.67c1.58-0.09,3.07-0.13,4.62,0.23"/><path d="M67.55,58.62c0.98,0.98,1.27,2.63,1.27,4.14c0,4.75-0.11,15.5-0.11,23.55"/><path d="M43.25,88.2c2.13,0.76,5.15,0.62,7.39,0.44c12.69-1.01,26.36-2.13,39.61-2.4c2.55-0.05,5-0.03,7.5,0.5"/></svg>