<svg><path d="M14.4,39.5c1.22,4.25,2.47,11.38,2.52,16.25"/><path d="M41.05,32.5c0.07,1.38-0.16,2.3-0.85,3.31C38.88,37.75,35,42.12,30.23,46"/><path d="M26.28,16c1.05,1.05,1.25,2.25,1.25,4c0,43.76-3.78,59.75-16.03,73"/><path d="M27.75,64.5c4.85,2.69,10.97,11.19,12.25,15"/><path d="M48.39,18.09c2.36,0.78,5.21,0.61,7.23,0.33c9.22-1.27,23.16-2.2,32.5-2.88c2.67-0.2,5.42-0.31,8.02,0.58"/><path d="M69.79,20.29c0.04,0.59-0.02,1.16-0.18,1.72c-0.99,2.36-2.29,4.33-4.63,7.93"/><path d="M53.03,31.64c0.98,0.98,1.25,2.3,1.25,3.67c0,1.16,0.14,22.54,0.03,35.19c-0.02,2.29-0.03,4.29-0.03,5.83"/><path d="M55.38,33.76c4.12-0.63,26.01-3.51,28.63-3.72c2.18-0.17,3.72,1.33,3.72,3.18c0,3.03-0.07,24.05-0.04,35.15c0.01,3.54,0.02,5.88,0.02,5.93"/><path d="M55.33,46.56c8.79-1.02,24.79-2.6,30.94-2.97"/><path d="M55.31,59.69c7.52-1.03,23.27-2.52,31.12-3.01"/><path d="M55.55,73.06c9.1-1.01,22.76-2.16,31.13-2.67"/><path d="M57.88,78.88c0.1,1.03-0.17,2.24-0.97,3.2c-2.83,3.38-10.11,9.67-14.8,13.16"/><path d="M78.62,79.25c5.9,4.55,12.87,12.8,14.48,16.79"/></svg>