<svg><path d="M20.25,15.18c3.36,2.23,6.72,8.22,7,11.81"/><path d="M50.31,13.37c0.48,0.55,0.26,2.55-0.18,3.39c-0.43,0.85-4.46,6.21-6.64,8.19"/><path d="M36.6,9.75c1.15,0.84,1.19,2.99,1.15,3.53c-0.75,11.47-5.5,24.97-14.5,29.47"/><path d="M37.72,29.39c4.78,1.88,10.82,7.85,12.08,10.52"/><path d="M57.75,15.93c2.89,2.7,5.21,7.04,5.5,10.06"/><path d="M86.35,13.87c0.42,0.55,0.22,2.57-0.16,3.43s-4.55,5.66-6.44,7.66"/><path d="M71.34,9.25c0.91,0.69,0.95,2.05,0.91,2.49c-1,13.51-4.5,24.35-13,28.26"/><path d="M73.47,28.89c3.89,1.71,8.81,7.11,9.83,9.52"/><path d="M17.66,46.19c-0.16,3.46-3.85,12.5-5.16,14.56"/><path d="M17.72,49c8.03-0.75,51.75-4.25,69.47-4.25c12.06,0,4.31,4.75-0.19,8.5"/><path d="M21.75,60.8c1.75,0.2,2.9,0.4,4.76,0.27C38.5,60.25,71.47,57.55,75,57.55c4,0,4.62,0.98,4,4.75c-2,12.2-0.19,24.88,9.5,32.75c4.25,3.45,6.75,3.2,6-5"/><path d="M21.96,77.92c1.34,0.44,2.87,0.58,4.42,0.44c7.87-0.71,29.72-2.71,41.63-3.55c1.53-0.11,2.5,0.08,4.03,0.38"/><path d="M46.66,64.75c0.96,0.38,1.73,1.71,1.73,2.5c0,8.07,0,28.95-0.19,33.75"/></svg>