<svg><path d="M20.75,21.33c1.02,1.02,1.45,2.66,1.45,3.95c0,0.99,0.01,24.12,0.02,35.23c0,3.42,0,5.69,0,5.85"/><path d="M23.02,23.66c1.63-0.23,11.93-2.17,16.49-3c3-0.54,4.3,0.25,4.18,3.45c-0.19,4.95-0.28,22.53-0.27,35.21c0,1.46-0.12,3.6-0.12,4.57"/><path d="M23.37,42.32c4.51-0.57,14.76-2.32,18.88-2.73"/><path d="M23.52,61.71c3.92-0.23,13.67-1.38,18.74-1.67"/><path d="M53.76,18.64c0.67,0.33,2.71,0.6,3.76,0.51c8.56-0.77,22.2-2.9,26.95-3.19c2.97-0.18,4.66,0.77,4.07,3.83c-0.96,4.94-4.29,13.47-7.04,18.73c-2.75,5.24-7.55,0.01-8.23-0.64"/><path d="M68,21.35c0.05,0.55,0.14,1.44-0.1,2.23c-2.43,8.02-6.54,14.5-16.27,22.46"/><path d="M54.35,49.43c0.73,0.73,1.15,1.57,1.28,2.37c0.48,2.82,1.31,8.83,1.94,14.2c0.15,1.31,0.29,2.57,0.41,3.75"/><path d="M56.59,51.25c7.35-0.92,20.16-3.07,26.08-3.44c1.96-0.12,3.87,1.43,3.68,3.27c-0.35,3.42-2.52,8.62-3.72,13.14"/><path d="M58.89,66.79c3.87-0.37,14.15-1.17,22.49-1.54c1.09-0.05,2.14-0.09,3.12-0.12"/><path d="M21.12,76.88c0,5.93-7.83,14.68-9.88,16.38"/><path d="M39.5,77.38c2.53,2.84,4.94,10.67,5.57,15.09"/><path d="M63.5,76.58c2.69,2.67,6.96,10.98,7.63,15.13"/><path d="M85.6,76.08c3.87,2.93,9.4,10.67,10.96,15.63"/></svg>