<svg><path d="M12.74,40.75c1.41,3.52,3.46,13.48,3.84,17"/><path d="M39.56,32.5c0.73,0.71,0.56,2.15-0.1,3.24c-0.66,1.1-7.44,9.69-10.73,12.26"/><path d="M25.75,16.75c0.76,0.75,1.02,2.75,1.03,4C27,72.25,25.5,79,12.5,94.5"/><path d="M26.5,66.5c4.06,2.46,9.18,10.26,10.25,13.75"/><path d="M89.95,9.93c-0.45,1.29-1.15,2.03-2.09,2.48C77.25,17.51,63.5,21,49.25,22.5"/><path d="M47.65,22.18c0.6,1.32,0.73,2.43,0.74,4.63c0.1,27.73,0.35,55.94-11.15,67.69"/><path d="M50.08,31.15c9.15-1.4,31.31-3.73,37.04-4.4c1.55-0.18,2.55,1.31,2.14,3C88.49,33,87.9,36.5,86.93,39.5"/><path d="M48.99,45.25c0.97,0,30.84-3.25,39.99-4.25"/><path d="M52.72,56.17c1.13,0.96,2.09,0.96,3.75,0.64c3.37-0.64,9.08-1.97,10.11-2.07c2.31-0.23,2.89,1.87,2.89,2.64c0,2.37-0.43,26.48-0.43,35.6c0,6.94-5.98,0.81-6.55,0.25"/><path d="M61.3,59.45c0.03,0.29,0.06,0.76-0.05,1.18c-0.68,2.5-4.61,7.99-9.98,11.35"/><path d="M65.57,68.11c0.04,0.5,0.08,1.3-0.08,2.02c-0.94,4.25-6.31,13.58-13.67,19.28"/><path d="M75.49,54.37c1.13,0.96,2.09,0.96,3.75,0.64c3.36-0.64,10.89-2.23,11.92-2.33c2.31-0.23,3.18,1.46,2.89,2.14c-0.28,0.65-0.43,29.54-0.43,38.66c0,6.56-5.97,0.31-6.55-0.25"/><path d="M85.08,57.97c0.03,0.28,0.06,0.73-0.06,1.14c-0.71,2.4-4.79,7.67-10.38,10.89"/><path d="M91.04,64.41c0.05,0.46,0.09,1.2-0.08,1.87c-1.05,3.95-7.09,12.61-15.35,17.91"/></svg>