<svg><path d="M72.45,9.17c0.12,0.27-0.89,1.7-1.54,1.99c-4.96,2.22-17.57,5.88-39.58,8.97"/><path d="M19.49,30.46c1.24,0.4,4.33,0.47,5.56,0.4C44,29.75,63.25,28,84.68,26.62c2.06-0.13,3.3,0.19,4.33,0.39"/><path d="M28.11,38.01c0.41,0.35,0.92,1.35,1.15,1.79c1.85,3.58,3.59,13.02,4.74,19.7"/><path d="M30.37,39.21c13.13-0.82,36.65-2.59,46.45-3.28c3.6-0.25,5.43,1,5.26,2.3c-0.43,3.31-3.33,13.43-6,19.24"/><path d="M39.77,44.84c2.21,1.16,5.71,4.77,6.27,6.57"/><path d="M69.79,42.47c0.02,0.2,0.04,0.52-0.04,0.8c-0.43,1.69-2.87,5.41-6.21,7.69"/><path d="M34.22,57.52c9.46-0.35,29.81-2.57,42.87-3.14"/><path d="M52.22,19.96c0.65,0.45,2.04,3.36,2.17,4.25c0.13,0.9-0.08,45.19-0.22,50.79"/><path d="M29.38,66.89c1.03,0.28,2.92,0.31,3.96,0.28c10.75-0.32,24.21-3.14,43.99-3.22c1.72,0,2.75,0.13,3.61,0.27"/><path d="M18.13,76.64c1.48,0.43,4.2,0.5,5.68,0.43c15.43-0.73,42.58-3.25,64.13-3.25c2.47,0,3.95,0.21,5.19,0.43"/><path d="M27.19,86.5c-1.26,5.38-7.31,11.66-8.94,13"/><path d="M43.07,83.5c2.99,2.68,7.44,9.81,6.58,14.25"/><path d="M62.25,82.25c3.05,2.29,7.5,8.95,7.5,13"/><path d="M82.21,81.58c4.27,2.63,11.03,10.8,12.1,14.88"/></svg>