<svg><path d="M12.49,35.75c2.05,4.34,5.03,16.66,5.59,21"/><path d="M42.03,31.25c0.22,1.25,0.11,2.78-0.58,3.97c-0.69,1.19-6.77,9.5-10.22,12.28"/><path d="M26.75,13.75c0.76,0.75,1.02,2.25,1.03,3.5C28,68.75,24.75,81.25,11,97"/><path d="M28.5,68.5c4.26,2.64,9.63,11.01,10.75,14.75"/><path d="M66.12,10.44c0.44,0.17,0.41,2.43,0.13,2.91c-1.82,3.18-3.68,7.52-7.94,11.69"/><path d="M51.96,25.88c0.54,0.79,1.25,1.87,1.24,2.96s-0.46,34.22-0.29,35.32"/><path d="M53.62,28.08c2.92-0.16,25.64-2.49,28.31-2.67c2.22-0.15,3.77,1.05,3.75,3.09c-0.01,1.32-1.14,33.38-1.32,34.19"/><path d="M53.43,39.08c5.76-0.23,23.56-1.58,31.6-2.29"/><path d="M53.62,50.09c7.29-0.48,21.28-1.57,31.46-2.22"/><path d="M53.26,61.14c5.8-0.04,23.58-1.87,31.08-1.92"/><path d="M47.41,81.47c0.4,1.97-2.98,11.69-6.16,14.98"/><path d="M53.55,73.38C60.75,89,70.25,97.5,88.82,97.11c5.31-0.11,6.18-2.36,0.39-7.69"/><path d="M67.6,72.14c2.65,4.36,6.6,7.58,7.73,3.84"/><path d="M86.96,71.34c5.32,1.63,10.63,5.55,12.29,9.04"/></svg>