<svg><path d="M9.99,36.25c1.68,3.1,4.13,11.9,4.59,15"/><path d="M35.53,28.25c0.22,1.25,0.11,2.78-0.58,3.97c-0.69,1.19-6.77,9.5-10.22,12.28"/><path d="M23.35,17.5c0.72,0.73,1.43,1.71,1.44,2.93C24.99,70.77,21.23,81.29,9.5,94"/><path d="M24.5,65.5c4.06,3.09,9.18,12.87,10.25,17.25"/><path d="M63.94,12.16c1.21,0.39,2.93,2.32,2.9,3.45c-0.09,3.57-0.09,7.37-0.09,10.62"/><path d="M44.29,27.32c0,3.19-3.02,12.95-4.17,15.07"/><path d="M45.81,29.33c9.94-1.58,38.25-4.94,43.73-4.99c9.95-0.09,1.81,6.56-0.32,8.5"/><path d="M57.35,35.82c0.04,0.35,0.17,0.96-0.07,1.43c-1.93,3.59-5.99,8.59-13.34,13.63"/><path d="M73.17,35.83c5.9,2.94,13.08,8.57,15.1,11.58"/><path d="M66.03,45.5c0.07,0.62,0.3,1.67-0.14,2.49c-3.94,7.31-12,15.95-25.8,24.68"/><path d="M65.16,49.15c6.28,6,17.97,14.56,23.72,17.74c1.43,0.79,3.08,1.31,4.43,1.57"/><path d="M49.54,74.74c0.38,0.33,0.77,1.12,0.93,1.53c1.31,3.32,2.45,14.47,3.35,20.43"/><path d="M51.32,76.63c10.34-1.53,21.44-2.3,27.78-2.96c2.16-0.23,3.49,1.52,3.16,2.51c-1.57,4.74-2.75,10.92-4.2,16.74"/><path d="M54.84,94.52c8.33-0.46,15.71-0.89,25.27-1.6"/></svg>