<svg><path d="M34.17,11.7c0.88,0.88,1.07,2.17,1.07,3.42c0,2.85-0.11,4-0.11,6.77"/><path d="M14.12,24.09c1.75,0.54,3.71,0.79,5.4,0.6c7.32-0.83,19.6-2.93,29.5-4.04c1.35-0.15,2.73-0.14,3.81,0.08"/><path d="M21.28,31.97c0.6,0.4,1.22,1.21,1.36,1.92c0.66,1.67,1.45,4.14,2.05,6.56c0.23,0.95,0.44,1.89,0.6,2.78"/><path d="M23.23,32.68c6.78-1.33,15.46-2.98,19.89-3.61c2.6-0.37,4.1-0.01,3.3,2.79c-0.5,1.77-0.85,3.07-1.67,6"/><path d="M26.03,40.68c6.22-0.93,11.72-1.68,16.94-2.08c1.36-0.1,2.55-0.36,3.53-0.43"/><path d="M21.64,50.96c1.48,0.29,2.71,0.39,4.05,0.01c5.68-1.6,11.05-3.22,15.37-4.47c1.55-0.45,2.39,0.67,1.1,2.01C39.75,51,39,52,34.78,56.31"/><path d="M32.23,57.74c4.02,4.01,4.94,11.63,4.17,15.83c-0.84,4.56-3.73,6.56-7.09,1.8"/><path d="M15.89,67.12C17,68,18.25,68,19.96,67.37c8.61-3.19,17.09-6.26,27.95-10.34"/><path d="M66.91,13.54c0.58,0.59,0.92,2.05,0.92,3.04C67.75,43.5,60.75,65,44.74,76.3"/><path d="M53.26,36.42c1.86,0.21,3.9-0.03,4.79-0.25c2.7-0.67,17.07-5.92,19.96-7c1.96-0.73,3.36,0.79,3.04,3.27c-0.56,4.31-1.78,14.16-2.85,22.44C76.5,68,78,70.13,85.63,70.13c8.49,0,9.12-1.51,9.12-7.38"/><path d="M54.88,49.38c5.77,1.83,14.9,7.51,16.34,10.35"/><path d="M20.38,83.12c0,5.11-5.25,12.66-6.62,14.12"/><path d="M37.5,83.75c2.93,2.26,5.72,8.46,6.45,11.97"/><path d="M57.87,82.08c3.42,2.32,8.83,9.53,9.68,13.13"/><path d="M81.27,81.83c4.16,2.63,10.75,10.8,11.79,14.88"/></svg>