<svg><path d="M20.85,13.05c1.05,0.46,3.1,0.86,4.21,0.77c6.03-0.51,22.04-2.08,24.46-2.26c1.2-0.09,2.6,1.13,2.6,2.5c0,2.3-1.54,4.78-2.46,9.65"/><path d="M23.83,26.79c4.21-0.21,25.1-2.28,28.26-2.43"/><path d="M22.86,13.69c0.89,1.56,0.67,2.3,0.67,4.59c0,10.97-0.79,30.97-8.79,39.1"/><path d="M29.37,34.19c0.79,0.28,2.25,0.36,3.04,0.28c5.78-0.59,10.09-1.22,15.7-1.83c1.31-0.14,2.12,0.13,2.78,0.27"/><path d="M24.32,43.73c0.88,0.24,2.51,0.33,3.38,0.24c8.13-0.82,19.37-2.32,24.91-2.61c1.47-0.08,2.35,0.11,3.09,0.23"/><path d="M40.24,45.04c0.07,0.31,0.9,1.63,0.96,3.62c0.31,9.56-0.12,9.51-0.12,11.88c0,5.03-2.52,1.81-4.86,0.12"/><path d="M28.38,50.97c0.02,0.21,0.03,0.53-0.03,0.82c-0.4,1.74-2.82,5.13-5.92,7.47"/><path d="M48.97,49.06c1.88,1.15,4.95,4.58,5.43,6.37"/><path d="M58.13,25.01c0.92,0.21,2.59,0.27,3.52,0.21c10.17-0.6,19.31-2.19,30.52-2.52c1.53-0.04,2.45,0.1,3.21,0.21"/><path d="M78.48,10.78c0.13,0.38,1.85,1.99,1.85,4.41c0,16.29-0.21,36.22-0.21,39.82c0,8.74-6.23,1.29-8.05,0.18"/><path d="M62.06,35.25c2.67,1.71,6.9,7.03,7.57,9.68"/><path d="M25.25,69.57c3.09,2.09,8.16,9.04,9,11.13"/><path d="M77.58,66.53c0.17,1.14,0.15,1.92-0.5,2.72c-0.65,0.79-7.32,6.8-10.58,8.66"/><path d="M51.93,61.75c0.57,1,1.08,2.33,1.07,2.94c-0.25,17.56-11.25,29.56-34,35.06"/><path d="M51.75,75.65c11.75,8.4,26,16.94,33.75,20.44c2.44,1.1,3,0.98,5,1.26"/></svg>