<svg><path d="M28.12,19.39c1.4,0.36,3.98,0.33,5.38,0.22c14.62-1.21,27.47-3.73,43.97-4.23c2.34-0.07,3.75,0.06,4.92,0.23"/><path d="M52.76,8.26c0.86,0.25,1.37,1.22,1.54,1.77c0.17,0.56,0.01,13.13-0.16,16.66"/><path d="M34.43,28.71c1.14,0.16,3.23,0.17,4.37,0.08C50,28,63.75,26.75,73.43,26.29c1.9-0.09,3.04,0.02,3.99,0.09"/><path d="M34.74,35.83c0.39,0.22,0.79,0.41,0.96,0.68c1.36,2.2,2.99,8.27,3.92,12.22"/><path d="M37.18,37c9.6-0.92,29.57-3,34.66-3.86c1.79-0.3,3.61,1.16,3.14,2.82c-0.73,2.55-1.8,4.74-4.1,8.73"/><path d="M40.01,47.27c5.81-0.35,25.8-1.89,33.18-2.24"/><path d="M35.77,49.61c2.49,1.48,6.42,6.09,7.04,8.39"/><path d="M70.54,48.51c0.01,0.21,0.03,0.56-0.03,0.86c-0.3,1.82-2.06,5.82-4.46,8.27"/><path d="M16.25,62.43c1.94,0.47,5.5,0.58,7.43,0.47c14.28-0.86,43.65-4.75,65.28-5.39c3.23-0.1,5.17,0.22,6.79,0.46"/><path d="M35.28,67.78c0.46,0.21,0.93,0.39,1.13,0.66c1.59,2.12,2.49,8.97,3.58,12.77"/><path d="M38.14,68.91c11.23-0.89,28.41-3.58,34.2-3.25c1.66,0.09,2.89,2.1,2.59,2.75c-1,2.11-1.85,4.76-3.79,8.26"/><path d="M40.45,79.81c6.8-0.34,24.76-2.48,33.39-2.82"/><path d="M24.94,87.5c0,4.89-5.16,12.1-6.5,13.5"/><path d="M39.71,85.83c3.27,2.62,6.37,9.81,7.19,13.88"/><path d="M61.82,85.58c3.33,2.36,8.6,9.71,9.43,13.38"/><path d="M81.21,84.33c4.69,2.58,12.12,10.62,13.29,14.63"/></svg>