<svg><path d="M11.99,38.25c1.5,3.52,3.68,13.48,4.09,17"/><path d="M36.15,31.75c0.68,0.86,0.94,2.5,0.32,3.84s-6.91,11.3-10,14.41"/><path d="M24.53,12.75c0.63,0.79,1.26,2.35,1.25,3.67C25.66,68.92,22.75,83.25,10,93.75"/><path d="M25.75,66.5c4.75,3,10.75,12.5,12,16.75"/><path d="M54.05,13.25c0.78,0.37,1.25,1.51,1.23,2.39c-0.08,3.36-0.15,8.57-0.06,11.42"/><path d="M41.81,28c0.59,0.08,2.91,0.48,3.49,0.42C49,28,59.25,26.5,66.25,25.88c0.97-0.09,1.54-0.14,2.03-0.12"/><path d="M45.16,35c2.68,3.15,4.29,7.1,4.68,9.31"/><path d="M64.77,32.75c0.23,1,0.1,3.16-0.13,3.55c-2.64,4.45-4.69,8.98-6.47,11.2"/><path d="M35,50c1.2,0.25,2.67,0.47,3.88,0.37c21.06-1.63,33.38-3.38,51.6-4.87c2.03-0.17,4.3,0,5.52,0.54"/><path d="M44.94,59.73c0.31,0.69,0.81,2.3,0.81,3.25c0,0.95-0.07,25.57-0.07,26.52"/><path d="M46.28,61.05c1.78-0.24,15.35-1.88,16.92-2.46c1.57-0.58,2.4-0.29,2.3,0.9c-0.1,1.19-0.51,27.92-0.78,29.08"/><path d="M46.59,73.81c2.4-0.17,14.83-1.73,17.54-1.92"/><path d="M46.28,87c3.55-0.25,13.06-1.37,17.65-1.69"/><path d="M72.74,14c1.07,1.79,1.63,2.28,1.74,6.15c0.8,29.46,7.59,64.8,20.03,75.81c4.23,3.75,3.61,0.77,3.08-7.17"/><path d="M89.74,54.15c0.07,0.91,0.14,2.35-0.13,3.65c-1.61,7.7-10.37,25.96-23.05,36.31"/><path d="M83.2,24.26c2.33,2.1,6.07,6.9,7.16,10.5"/></svg>