<svg><path d="M10.24,37c2.23,3.83,5.48,14.67,6.09,18.5"/><path d="M38.15,31.75c0.22,1,0.05,2.06-0.68,3.34c-2.6,4.54-4.97,8.29-9.5,13.41"/><path d="M23.69,14.75c0.81,1.12,0.85,2.07,0.84,3.37c-0.11,51.69,0.97,60.26-13.78,76.13"/><path d="M26.75,69.25c4.06,3.04,9.18,12.69,10.25,17"/><path d="M43.73,24.3c3.14,0.7,5.86,0.3,8.64,0.04c10.94-1.05,23.73-2.47,33.62-3.08c2.77-0.17,5.27,0.17,8.01,0.61"/><path d="M67.01,11c0.24,0.88,0.26,1.83-0.1,3.09c-4.4,15.28-11.15,30.03-26.4,40.42"/><path d="M66.43,23.42c5.4,4.84,16.48,16.13,24.23,21.81c3.09,2.27,4.96,3.39,7.59,4.77"/><path d="M44.75,34c2.49,1.05,6.44,4.33,7.06,5.97"/><path d="M89.28,27.64c0.06,0.7-0.08,1.36-0.5,1.94c-1.03,1.42-2.53,3.04-5.23,5.39"/><path d="M51.62,47.88c0.94,0.94,1.3,2.15,1.43,2.98c0.9,5.85,1.41,9.42,2.04,13.67c0.21,1.39,0.43,2.86,0.68,4.51"/><path d="M53.25,48.91c7.16-0.87,16.88-2.16,26.36-3.04c3.35-0.31,4.35,0.89,3.88,4.24c-0.61,4.27-1.16,7.39-1.9,11.76c-0.3,1.77-0.58,3.48-0.82,5"/><path d="M55.17,57.7c2.47-0.36,24.46-2.26,26.5-2.4"/><path d="M56.66,67.34c7.96-0.84,15.8-1.59,23.35-2.23"/><path d="M67.86,68.87c0.76,0.76,1.02,1.76,1.02,3.73c0,4.4,0.04,15.88,0.04,19.91c0,9.14-6.1,1.22-7.32,0.2"/><path d="M52.96,76.43c0.11,0.92-0.03,1.8-0.42,2.64C50.5,82.88,46.7,87.2,40.5,92.5"/><path d="M81.96,75.87C86.56,78.58,93.6,86.78,94.75,91"/></svg>