<svg><path d="M11.24,36.5c1.78,2.33,4.36,8.92,4.84,11.25"/><path d="M38.58,31.25c0.17,1.25,0.04,2.23-0.61,3.06c-0.64,0.82-6.77,6.77-9.99,8.69"/><path d="M25.75,15.25c0.76,0.71,1.02,2.17,1.03,3.36C27,67.62,23,76.88,10.5,89.25"/><path d="M27.25,64C32,66.64,38,75.01,39.25,78.75"/><path d="M47.58,19.22c1.06,0.58,1.47,0.47,3.18,0.19c4.46-0.72,4.93-1.79,9.7-2.71c2.83-0.55,3.39,0.5,2.49,3.63c-2.12,7.36-12.56,26.11-25.22,32.73"/><path d="M45.77,27.29c2.24,1.67,5.78,6.89,6.33,9.49"/><path d="M81.58,17.63c0.01,0.21,0.03,0.56-0.03,0.86c-0.4,1.82-2.71,5.3-5.87,7.75"/><path d="M64.89,20.36c5.06,3.26,22.39,22.07,26.82,25.86c1.51,1.28,2.8,1.83,4.3,2.2"/><path d="M91.41,25.09c0.03,0.23,0.05,0.59-0.05,0.92c-0.59,1.94-3.97,5.76-8.6,8.37"/><path d="M54.76,44.46c0.66,0.23,1.88,0.29,2.54,0.23c7.09-0.71,12.46-1.41,17.99-1.65c1.1-0.05,1.77,0.11,2.32,0.22"/><path d="M50.73,55.07c0.42,0.35,0.95,0.62,1.03,1.08c0.57,3.36,2.12,9.77,2.98,15.98"/><path d="M52.33,56.16c6.36-0.67,23.41-3.19,27.75-3.29c1.79-0.04,3.01,1.9,2.6,3.86c-0.72,3.51-2.08,7.36-3.3,11.94"/><path d="M55.99,70.9c6.54-0.65,20.73-1.94,25.96-2.2"/><path d="M53.58,76.18c2.06,2.4,5.28,8.51,5.8,12.23"/><path d="M78.48,74.07c0.02,0.35,0.04,0.9-0.04,1.4c-0.43,2.94-2.89,9.41-6.25,13.37"/><path d="M41.53,92.33c1.05,0.48,2.97,0.55,4.02,0.48c10.91-0.8,33.37-3.04,44.98-3.37c1.75-0.05,2.79,0.23,3.67,0.47"/></svg>