<svg><path d="M10.74,35.5c1.96,3.47,4.81,13.28,5.34,16.75"/><path d="M36.23,33.75c0.27,1,0.32,2.04-0.19,3.06c-0.51,1.02-5.26,8.55-7.81,10.94"/><path d="M24.95,11.75c0.8,0.8,1.07,2.39,1.08,3.73C26.26,70.29,22.59,80.66,9.5,94.5"/><path d="M25,72c4.26,2.91,9.63,12.13,10.75,16.25"/><path d="M52.17,10.5c0.7,0.52,1.84,2.53,1.84,3.56c0,3.81-0.22,5.52-0.09,8.74"/><path d="M37.55,23.66c0.89,0.09,2.93,0.58,3.8,0.48c7.15-0.88,13.99-1.56,24-2.25c1.47-0.1,2.23,0.04,3.32,0.61"/><path d="M42.72,32.68c0.23,0.27,0.47,0.5,0.57,0.84c0.81,2.7,2.05,9.81,2.6,14.66"/><path d="M43.94,33.51c6.06-0.76,14.74-2.15,17.36-2.49C62.25,30.89,64,32,63.69,33.5c-0.63,3.01-1.71,6.82-2.93,11.18"/><path d="M45.68,46.87c3.07-0.38,12.64-1.43,16.53-1.82"/><path d="M39.91,55.62c0.63,0.21,1.82,0.53,2.77,0.35c1.16-0.22,17.54-3.22,18.64-3.22s1.68,1.11,0.58,2.34c-1.33,1.49-5.9,5.41-11.77,9.68"/><path d="M49.68,65.41c4.57,1.84,8.5,16.45,4.53,27.69c-2.35,6.65-5.21,2.4-6.61,0.06"/><path d="M37.82,78.35c0.59,1.3,2.58,0.68,3.59,0.21c5.92-2.78,15.63-7.25,24.53-11.31"/><path d="M79.41,12.89c0.04,0.8,0.18,2.1-0.07,3.22c-1.81,8.12-5.88,21.87-12.14,31.66"/><path d="M76.54,34.07c1.04,0.24,2.96,0.05,3.52-0.03C86.75,33,90.5,32,95,31.25c1.02-0.17,3.01-0.33,3.85-0.08"/><path d="M89.49,37.18c0.45,1.36,0.69,2.33,0.22,4.82c-4.23,22.58-13.96,40.5-27.8,51.5"/><path d="M69.76,52.6C75.25,64.25,84,80.75,93.24,90.44c1.51,1.59,2.85,2.83,4.01,3"/></svg>