<svg><path d="M25.75,17.68c1.44,1.38,2.88,5.09,3,7.31"/><path d="M50.23,14.37c0.63,0.45,0.34,2.11-0.24,2.81c-0.57,0.7-5.88,5.14-8.74,6.78"/><path d="M37.86,10c0.89,0.74,0.89,2.65,0.89,3.13c0,14.12-4.75,21.62-11.25,26.12"/><path d="M38.47,28.39c4.09,1.35,9.25,5.61,10.33,7.52"/><path d="M56.75,16.43c1.84,1.76,3.31,4.59,3.5,6.56"/><path d="M81.78,13.37c0.54,0.43,0.29,1.99-0.2,2.65c-0.49,0.66-5.88,4.39-8.33,5.93"/><path d="M69.34,10.25c0.91,0.69,0.91,1.54,0.91,1.99c0,11.51-3,21.35-11.5,25.26"/><path d="M70.22,28.14c4.39,1.21,9.93,5.06,11.08,6.77"/><path d="M20.16,41.19c-0.14,3.93-3.48,14.22-4.66,16.56"/><path d="M19.72,45.5c3.53,0,48.75-4.75,66.47-4.75c12.06,0,3.81,5.75-0.69,9.5"/><path d="M36.12,53.67c0.34,0.28,0.69,0.51,0.83,0.86c1.17,2.74,2.56,10.26,3.35,15.15"/><path d="M38.23,54.64c8.32-0.99,24.41-3.19,28.7-3.5c1.57-0.11,2.51,1.46,2.28,2.28c-0.94,3.4-2.01,6.33-4.01,11.23"/><path d="M40.65,67.89c5.04-0.35,19.73-2.47,26.12-2.79"/><path d="M52.14,69.46c0.84,0.89,0.78,2.1,0.27,3.14c-0.38,0.78-4.14,5.57-4.81,6.6"/><path d="M31.75,80.35c0.46,0.36,0.93,0.67,1.14,1.12c1.59,3.51,2.99,11.27,4.07,17.51"/><path d="M33.13,81.64C44.47,80.61,67.6,77,73.44,76.73c2.14-0.1,3.42,1.92,3.11,2.96c-1.28,4.3-1.24,6.09-3.71,13.65"/><path d="M36.92,97.04C48,96.75,66.26,94.2,74.97,93.96"/></svg>