<svg><path d="M12.49,36.25c2.23,3.21,5.48,12.29,6.09,15.5"/><path d="M40.53,29.25c0.76,0.77,1.11,1.78,0.42,2.97c-0.69,1.19-7.77,10.5-11.22,13.28"/><path d="M26.25,15.25c0.76,0.75,1.02,2.25,1.03,3.5C27.5,70.25,24.25,79.5,12,94"/><path d="M28.25,70.5C33,73.32,39,82.25,40.25,86.25"/><path d="M82.6,10.75c0.1,0.24,0.14,0.57-0.19,0.95c-2.68,3.11-17.18,6.04-34.41,8.55"/><path d="M48.8,26.86c2.53,1.97,6.35,7.52,6.99,10.58"/><path d="M84.51,24.97c0.02,0.26,0.11,0.7-0.04,1.06c-1.23,2.85-3.2,6.2-7.26,10.12"/><path d="M42.49,41.6c0.65,0.15,2.39,0.4,4.12,0.45c4.77,0.15,36.97-3.39,44.56-3.09c1.73,0.07,3.17,0.35,4.25,0.5"/><path d="M65.64,23.73c1.15,0.32,2.07,1.89,2.07,2.57c0,4.01,0,33.03-0.23,37.03"/><path d="M67.03,41c-4.92,7.98-16.66,18.26-27.73,22.86"/><path d="M68.86,41.31c4.39,4.94,20.33,17.31,23.26,19.43c1.25,0.9,2.31,1.29,3.56,1.55"/><path d="M48.81,67.35c0.32,0.54,1.4,1.89,1.5,2.58c1.44,10.32,2.37,19.55,3.06,27.82"/><path d="M50.4,69.67c12.61-1.39,27.14-2.42,34.66-2.9c2.76-0.18,4.17,1.24,4.02,2.55c-0.62,5.41-1.96,18.13-4.07,26.45"/><path d="M67.53,71.14c0.6,0.92,0.81,1.3,0.81,2.58c-0.02,6.08,0.18,17.24,0.18,19.21"/><path d="M52.2,81.45c3.28-0.24,32.69-2.41,35.4-2.41"/><path d="M53.64,94.4c8.71-0.32,21.34-1.74,31.35-1.87"/></svg>