<svg><path d="M10.49,37.5c2.23,3.78,5.48,14.47,6.09,18.25"/><path d="M38.06,31.75c0.44,1,0.56,2-0.1,3.34C37.3,36.42,30.53,46.88,27.23,50"/><path d="M23.75,14.75c0.76,0.75,1.02,2.25,1.03,3.5C25,69.75,24,81,11.5,94"/><path d="M26.25,69c4.35,3.09,9.85,12.87,11,17.25"/><path d="M66.08,10.39c0.03,0.3,0.06,0.78-0.06,1.21c-0.7,2.56-4.7,8.17-10.17,11.6"/><path d="M46.59,23.87c0.45,0.85,0.75,2.22,0.6,3.76c-0.15,1.54,0.15,36.7,0.15,39.26"/><path d="M47.68,25.82c8.31-0.99,36.5-4.07,37.63-4.3c2.4-0.49,3.9,1.67,3.9,2.48c0,6.25-0.39,36.66-0.39,40.42"/><path d="M74.86,26.24c0.06,0.21,0.18,0.59-0.11,0.85c-3.25,2.91-10,5.16-19.9,7.62"/><path d="M55.78,37.76c1.26,0.9,3.15,3.46,3.47,4.87"/><path d="M79.55,34.43c0.02,0.18,0.09,0.48-0.03,0.73c-1.02,1.97-2.67,4.28-6.04,6.98"/><path d="M53.4,45.55c0.34,0.13,1.24,0.33,2.14,0.38c2.48,0.13,19.92-2.1,24.7-2.53c0.9-0.08,1.13-0.13,1.69,0"/><path d="M66.61,34.56c0.56,0.25,0.9,1.14,1.01,1.64c0.11,0.51,0,19.91-0.11,23.07"/><path d="M66.45,45.49c-2.34,4.25-8.04,10.72-13.31,13.17"/><path d="M70.79,49.16c4,1.81,8.77,4.88,10.74,8"/><path d="M39.12,75.12c1.02,0.33,3.73,0.71,5.89,0.57c14.6-0.98,33.78-2.93,46.89-3.4c2.26-0.08,4.07-0.04,6.1,0.21"/><path d="M66.51,63.79c0.46,0.47,0.39,2.51,0.18,3.51C63.06,84.57,54,95,37.44,100"/><path d="M67.28,74.53c6.22,8.22,19.48,19.09,25.61,22.79c2.09,1.26,2.81,1.44,3.76,1.56"/></svg>