<svg><path d="M11.33,36.5c2.24,3.26,5.49,12.49,6.1,15.75"/><path d="M36.66,27.25c0.34,1.25,0.42,1.78-0.15,2.97c-0.57,1.19-6.47,10.5-9.34,13.28"/><path d="M23.75,15.25c0.65,0.76,1.29,1.78,1.3,3.06c0.19,52.49-1.55,62.94-13.8,76.19"/><path d="M26.69,68.25c3.06,2.33,6.93,9.7,7.74,13"/><path d="M65.51,15.01c-0.26,0.74,0,1.23-0.38,1.89c-2.29,3.92-8.94,12.67-15.63,16.85"/><path d="M73.1,10.49c0.86,0.18,1.68,0.41,2.23,0.87c5.04,4.22,11.1,12.96,15.88,15.6C93.27,28.1,94,28.71,96,29.07"/><path d="M57.89,31.27c0.64,0.34,1.8,0.36,2.44,0.34c5.42-0.11,14.7-1.68,21.86-1.83c1.06-0.02,1.7,0.16,2.23,0.34"/><path d="M70.05,32.36c0.05,0.35,0.1,0.91-0.09,1.42c-1.14,3-7.7,9.6-16.68,13.63"/><path d="M67.06,39.46c6.19,5.79,13.69,24.29,8.09,40.44c-2.24,6.45-6.36,0.78-6.99,0.04"/><path d="M67.08,44.7c0.03,0.35,0.07,0.89-0.07,1.39c-0.8,2.93-5.37,9.36-11.63,13.3"/><path d="M71.35,55.88c0.04,0.41,0.09,1.05-0.08,1.63c-1.02,3.45-6.9,11.01-14.94,15.63"/><path d="M88.34,38.11c0.03,0.25,0.07,0.65-0.06,1.02c-0.77,2.15-5.15,6.86-11.16,9.74"/><path d="M76.61,54.35c6.79,5.09,15.22,15.73,17.74,21.26"/><path d="M38.59,14.5c3.09,1.3,7.99,5.36,8.76,7.38"/><path d="M38.67,37.25c2.6,1.39,6.72,5.72,7.37,7.88"/><path d="M35,56.94c1.81,0.85,3.01,0.43,3.81,0.21c0.8-0.21,6.42-2.99,7.62-3.42c1.2-0.43,2.51,1.07,1.71,2.35c-0.8,1.28-2.64,4.41-4.81,6.76c-0.83,0.9-0.83,2.41,0.3,3.98c1.12,1.56,4.71,4.2,5.31,5.48c0.6,1.28,0.6,2.35-0.6,3.42c-1.2,1.07-9.22,9.04-10.43,9.47"/><path d="M34.5,87.31c2.25-0.35,6.76-1.22,10.14-0.53c3.38,0.7,22.58,5.4,25.9,6.3c9.01,2.45,15.95,3.15,22.71,1.92"/></svg>