<svg><path d="M49.45,13.04c2.28,0.91,5.89,3.74,6.46,5.15"/><path d="M43.03,23.95c0.44,0.14,2.13,0.16,2.57,0.14c5.46-0.26,12.89-1.62,16.87-1.74c0.74-0.02,1.85,0.07,2.22,0.14"/><path d="M47.14,31.82c0.27,0.07,1.9,0.08,2.17,0.07c2.78-0.08,6.87-1.25,9.61-1.24c0.44,0,2.3,0.03,2.53,0.07"/><path d="M47.84,39.76c0.24,0.07,1.7,0.08,1.94,0.07c2.48-0.08,6.53-1.28,8.98-1.27c0.4,0,2.06,0.03,2.26,0.07"/><path d="M46.72,45.46c0.25,0.22,0.52,0.4,0.6,0.69c0.7,2.55,1.58,7.4,2.28,11.14"/><path d="M48.24,46.96c4.51-0.54,9.4-0.97,13.56-1.51c1.04-0.13,1.67,0.63,1.53,1.25c-0.62,2.57-1.16,3.27-2.27,7.55"/><path d="M50.11,55.96c3.36-0.33,7.38-0.89,12-1.4"/><path d="M16.21,28.11c1.76,2.26,4.32,8.68,4.8,10.94"/><path d="M37.15,25.92c0.57,0.55,0.69,1.78,0.18,2.63c-0.51,0.85-5.64,6.54-8.19,8.53"/><path d="M28.55,14.29c0.5,0.45,1.01,1.56,1,2.32c-0.3,26.93-3.05,36.43-12.62,44.18"/><path d="M29.03,44.16c3.05,1.88,6.9,7.82,7.7,10.48"/><path d="M66.8,28.43c1.79,1.83,4.4,7,4.89,8.83"/><path d="M89.55,21.92c0.2,0.87-0.01,2.16-0.43,2.94s-5.1,6.84-7.23,8.65"/><path d="M78.44,13.04c0.39,0.41,0.78,1.45,0.78,2.12c0.04,25.13-2.55,33.43-9.78,39.38"/><path d="M80.44,41.73c4.36,2.1,9.87,8.74,11.02,11.71"/><path d="M34.98,67.19c1.57,0.21,1.77,0.54,4.92,0.21s25.79-3.6,27.95-3.92c2.16-0.32,3.24,1.18,2.45,2.35c-9.25,13.89-30.09,25.97-47.8,31.21"/><path d="M35.75,72.71C43,72.54,66.24,88.02,85.16,94.27c2.95,0.97,5.09,1.62,7.84,1.94"/></svg>