<svg><path d="M11.49,35.75c1.75,3.41,4.29,13.09,4.77,16.5"/><path d="M35.19,31.75c0.31,1,0.38,1.78-0.17,2.97c-0.55,1.19-6.21,10.5-8.96,13.28"/><path d="M23.28,15.25c0.61,0.77,1.22,2.3,1.22,3.58c0.17,52.66-3.02,62.63-13,75.92"/><path d="M24.63,72c3.89,2.46,8.81,10.26,9.84,13.75"/><path d="M51.13,17.21c0.02,0.22,0.09,0.64-0.04,0.87c-1.8,3.1-3.9,5.87-8,8.34"/><path d="M40.94,26.96c0.37,0.48,0.52,1.54,0.61,2.52c0.33,3.57,1.71,17.09,2.05,21.92"/><path d="M42.54,37.16c2.08-0.23,6.34-1.16,6.83-1.16c0.5,0,1.19,0,1.59,0"/><path d="M54.93,24.39c0.5,0.12,0.89,0.35,1.59,0.35c0.69,0,8.04-1.4,8.83-1.51c0.79-0.12,1.45,0.58,1.39,1.28c-0.6,6.75-1.89,19.28-2.48,24.87"/><path d="M56.63,35.53c0.5,0.12,2.28,0.35,1.59,0.35c-1.31,0,4.86-0.14,7.63-0.55"/><path d="M43.63,49.34c1.29,0,18.63-1.94,20.12-2.05"/><path d="M39.37,65.54c1.46,0.79,3.87,0.36,4.1,0.33c6.03-0.62,15.95-2.21,20.59-2.77c1.09-0.13,2.27-0.17,2.82,0.01"/><path d="M52.78,53.17c0.79,0.46,1.42,2.06,1.42,3c0,6.7,0.02,15.55,0.02,25.49"/><path d="M39.92,86.87c0.59,0.6,1.76,0.92,3.52,0.13c4.89-2.19,16.69-6.61,21.58-8.81"/><path d="M73.82,17.07c0.43,0.93,0.49,1.81,0.47,2.91c-0.15,8.95,0.46,18.27-3.55,26.01"/><path d="M74.19,18.59c3.56-0.34,6.31-0.84,8.98-1.72c1.68-0.55,3.79,0.73,3.23,2.35c-1.4,4.03-1.07,12.51-1.07,15.85c0,4.63,0.3,8.48,5.55,8.48c4.86,0,5.66-3.3,5.66-8.65"/><path d="M70.06,51.93c1.13,0.4,1.2,0.67,3.52,0.4c4.92-0.58,12.26-1.81,13.92-1.93c2-0.15,3.29,1.31,2.61,3.38C84,72.25,74.75,84.75,60.27,94.99"/><path d="M70.8,58.28C73.75,62,84.65,82.26,92.85,91.73c1.28,1.48,2.21,2.46,3.39,2.95"/></svg>