<svg><path d="M8.25,36.62c2.49,3.43,6.11,13.14,6.79,16.56"/><path d="M32.82,28.97c0.18,1.03-0.04,2.07-0.56,3.11s-5.23,8.72-7.83,11.16"/><path d="M20.77,14.75c1.05,1.05,1.4,2.57,1.39,3.88C22.05,70.48,21.62,80,8.75,95.5"/><path d="M23.88,68.12c3.76,2.62,8.5,10.9,9.49,14.61"/><path d="M49.39,12.38c0.8,0.8,1.02,1.62,1.02,2.73c0,0.34-0.03,9.5-0.03,14.51"/><path d="M51.62,21.04c4.13-0.79,5.88-1.16,7.45-1.47c0.62-0.12,1.76-0.25,2.27-0.16"/><path d="M42.9,24.74c-0.02,0.88-0.14,1.96-0.42,2.79c-1.26,3.67-3.98,9.58-7.77,14.48"/><path d="M43.71,31.46c0.79,0.29,1.54,0.16,2.57-0.07c1.61-0.35,9.21-2.63,12.46-3.5c1.49-0.4,3.54,0.96,2.71,2.83C57.49,39.6,46.7,51.87,34.28,57"/><path d="M42,37.38c2.28,1.15,5.9,4.71,6.47,6.49"/><path d="M68.71,19.79c0.84,0.19,2.19,0.48,3.86,0.19c1.67-0.29,12.68-3.01,13.83-3.3c2.23-0.56,3.18,1.23,2.24,3C83.88,28.62,73.88,39.38,65,45.25"/><path d="M69.17,26.52C75,29,86.19,37.73,90.88,44.18"/><path d="M46.21,55.33c1.94,1.47,4.86,5.63,5.35,7.92"/><path d="M81.98,50.39c0.07,0.87-0.06,1.71-0.4,2.52c-1.33,2.47-2.77,4.63-6.47,8.81"/><path d="M35.56,67.12c2.47,0.49,4.82,0.36,7.31,0.13c9.13-0.81,32.58-2.78,43.51-3.39c2.46-0.14,5.12-0.24,7.48,0.09"/><path d="M61.75,49.75c0.88,0.88,1.15,2,1.15,3.28c0,0.64,0.06,25.02,0.08,37.85c0.01,3.18,0.01,5.66,0.01,6.88"/><path d="M59.75,66.5c0,1.25-0.33,2.13-1.1,3.23c-5.99,8.51-15.9,17.37-27.51,22.02"/><path d="M65.12,66.88c3.75,3.75,14.2,13.65,21.22,19.41c2.4,1.97,4.78,3.34,7.18,4.47"/></svg>