<svg><path d="M12.49,38.25c1.89,3.62,4.14,12,3.84,16.5"/><path d="M41.03,31.5c0,1.12-0.39,2.28-1.08,3.47c-0.69,1.19-5.5,8-8.95,10.78"/><path d="M26.5,15.5c0.87,0.87,1.27,2.25,1.28,3.5C28,70.5,25.25,79,12,94.5"/><path d="M29,67.88c4.5,3.62,7.88,9.45,9,12.88"/><path d="M45.63,15.3c0.65,0.81,1.02,1.75,1.09,2.81c0.7,2.89,1.63,7.32,2.27,11.39c0.22,1.38,0.4,2.72,0.53,3.94"/><path d="M47.71,16.45c4.22-0.37,30.55-2.51,41.67-3.48c3.19-0.28,4.9,1.43,4.35,4.55c-0.45,2.54-1.07,5.51-1.91,8.71c-0.31,1.16-0.64,2.35-1.01,3.56"/><path d="M61.54,16.43c0.64,0.64,0.88,1.65,0.95,2.45C62.75,22,63.08,25.42,63.33,29"/><path d="M76.43,15.1c0.61,0.61,0.62,1.69,0.56,2.4c-0.32,3.81-0.56,7.32-0.92,10.41"/><path d="M50.07,30.96c11.81-1.08,29.31-2.46,40.13-2.88"/><path d="M57.98,34.69c0,1.19-0.14,1.88-0.57,2.7C55,42,50.12,48.75,41.93,54.92"/><path d="M56.42,43.22c2.11,0.46,4.22,0.31,6.33,0.03c8.49-0.75,20.26-2.75,25.5-3.26c4.96-0.48,6.66,1.41,6.09,6.5c-1.21,10.66-2.58,23.63-6.92,40.14c-3.16,12.03-5.17,7.33-8.7,4.14"/><path d="M47.39,58.36c0.75,0.71,1.2,1.55,1.33,2.52c0.45,1.89,1.04,4.31,1.63,7.2c0.27,1.29,0.53,2.68,0.78,4.16"/><path d="M49.3,59.16c8.82-1.03,21.62-2.74,25.58-3.17c2.33-0.25,2.78,1.68,2.35,3.26c-0.59,2.16-1.12,3.84-2.31,7.87"/><path d="M51.9,70c4.63-0.45,12.69-1.34,19.84-1.94c1.71-0.14,3.38-0.27,4.93-0.37"/><path d="M61.2,49.9c0.89,0.89,1.12,2.35,1.12,3.59c0,4.89-0.01,22.77-0.01,29.05"/><path d="M45.55,86.25c1.47,0.7,2.88,0.72,4.32,0.35c9.63-2.47,16.26-4.22,26.56-6.91"/><path d="M72.59,75.29c2.48,1.67,5.89,6.11,6.51,8.71"/></svg>