<svg><path d="M10.49,33.25c2.64,6,5.51,15.62,5.84,20.5"/><path d="M39.05,30.75c0.32,1.12,0.07,2.17-0.6,3.45c-0.67,1.28-6.08,9.06-9.45,12.05"/><path d="M25.37,13c0.71,0.81,0.9,1.9,0.91,3.25c0.47,56.62-3.28,64.62-17.53,80"/><path d="M25.5,71.25c4.75,3,10.75,12.5,12,16.75"/><path d="M42.25,14c1.5,0.75,2.74,0.89,5,0.75c4-0.25,10.12-1,14.25-1.5c2.02-0.24,3.5,0.75,3.5,3c0,1.5,0,27.25,0,29.5"/><path d="M43.75,25c1.53,0.61,3.01,0.79,4.63,0.72c3.43-0.15,11.52-0.78,15.37-1.22"/><path d="M45.25,36.25c1.75,0.7,3.42,0.79,5.26,0.68c3.95-0.23,11.35-1.22,13.24-1.43"/><path d="M71.5,12.5c1.5,0.75,2.74,0.94,5,0.75c4.5-0.38,9.49-1.06,13.25-1.5c2.12-0.25,3.5,0.75,3.5,3c0,1.5,0,29.5,0,31.75"/><path d="M73,24.25c1.73,0.69,3.69,0.53,5.51,0.39c3.97-0.31,11.39-1.19,13.24-1.39"/><path d="M73.25,35.75c1.56,0.62,3.73,0.96,5.39,0.78c4.49-0.48,11.42-1.57,13.36-1.78"/><path d="M54.74,45.43c0.19,1.16-0.31,2.69-0.93,3.69C49.85,55.47,44.25,62.5,35,68.6"/><path d="M49.8,59.06c0.95,0.95,1.18,2.31,1.18,4.19c0,6.73-0.06,21.41-0.09,30.13c-0.01,2.63-0.01,4.72-0.01,5.88"/><path d="M73.48,44.25c0.1,0.77-0.03,1.77-0.34,2.42c-1.54,3.24-3.4,5.91-6.27,9.33"/><path d="M51.48,59.57c6.3-0.42,25.42-1.81,35.77-2.57c2.08-0.15,4.18-0.24,6.25-0.5"/><path d="M70.08,60.71c0.79,0.79,0.87,1.91,0.87,3.29c0,5.52-0.08,22.47-0.08,28.5"/><path d="M52.26,70.8c5.62-0.42,22.23-1.46,31.62-2.04c2.95-0.18,5.1-0.33,5.79-0.42"/><path d="M51.93,81.51c5.34-0.42,22.35-1.43,32.44-2.05c3.45-0.21,5.97-0.38,6.75-0.45"/><path d="M52.11,94.38c6.64-0.38,25.09-1.09,36.27-1.73c3.78-0.22,6.53-0.4,7.31-0.51"/></svg>