<svg><path d="M12.24,36.25c1.96,3.72,4.81,14.28,5.34,18"/><path d="M37.03,31.75c0.47,1,0.13,2.8-0.58,3.97c-1.7,2.78-6.77,9.5-10.22,12.28"/><path d="M24.39,13.25c0.69,0.79,0.88,2.35,0.89,3.66c0.2,54.32-3.43,64.62-14.78,78.34"/><path d="M25,74.25c4.26,2.42,9.63,10.08,10.75,13.5"/><path d="M82.4,12.67c0.09,0.25-0.71,1.54-1.23,1.81c-3.97,2.02-14.04,5.35-31.63,8.15"/><path d="M43.15,31.63c1.15,0.5,4.01,0.58,5.15,0.5c17.55-1.37,22.12-1.99,43.52-2.77c1.91-0.07,3.06,0.24,4.02,0.49"/><path d="M47.12,40.01c0.31,0.35,0.69,1.35,0.86,1.79c1.39,3.58,1.7,11.02,2.56,17.7"/><path d="M48.31,41.21c9.86-0.82,29.51-2.09,36.87-2.78c2.7-0.25,3.82,0.57,3.45,3.3c-0.44,3.29-2,10.93-4,16.74"/><path d="M55.87,45.09c1.48,1.29,3.83,5.31,4.2,7.32"/><path d="M78.9,43.97c0.01,0.2,0.03,0.52-0.03,0.8c-0.32,1.69-2.15,5.41-4.66,7.69"/><path d="M50.71,58.02c7.1-0.35,23.04-1.02,34.17-1.64"/><path d="M65.72,21.46c0.49,0.45,1.53,3.36,1.63,4.25c0.1,0.9-0.06,45.19-0.16,50.79"/><path d="M48.58,66.89c0.78,0.28,2.19,0.31,2.97,0.28c8.07-0.32,20.2-0.67,33.02-1.72c1.29-0.11,2.07,0.13,2.71,0.27"/><path d="M39.63,77.8c1.38,0.54,3.9,0.62,5.28,0.54c14.33-0.9,28.18-2.28,48.19-2.28c2.29,0,3.67,0.26,4.82,0.53"/><path d="M47.18,85.75c-1.33,5.07-7.73,10.98-9.46,12.25"/><path d="M57.85,83.75c2.25,2.35,5.58,8.61,4.94,12.5"/><path d="M73,83.25c2.8,2.29,6.88,8.95,6.88,13"/><path d="M87.48,82.58c3.47,2.36,8.96,9.71,9.83,13.38"/></svg>