<svg><path d="M11.24,36c1.96,3.15,4.81,12.1,5.34,15.25"/><path d="M36.93,31.75c0.07,1.5,0.39,2.51-0.16,3.52c-0.56,1.01-5.76,7.89-8.54,10.23"/><path d="M24.75,15.75c0.76,0.75,1.02,2.25,1.03,3.5C26,70.75,23,80,11.5,93"/><path d="M26.25,66.5c4.55,2.73,10.3,11.38,11.5,15.25"/><path d="M47.92,21.23c2.08,0.22,2.67,0.57,4.59,0.43c9.24-0.66,20.76-1.25,29.1-1.68c2.71-0.14,4.06,1.05,3.67,3.23c-0.62,3.45-1.62,10.41-3.08,20.11"/><path d="M42.88,32.77c1.93,0.38,3.43,0.48,5.58,0.38c10.05-0.5,28.39-1.99,43.19-2.56C94,30.5,95.93,30.96,97,31.15"/><path d="M48.26,44.36c1.04,0.21,2.92,0.26,4.17,0.21c9.07-0.32,18.57-0.82,28.31-1.25c1.67-0.07,2.71,0,3.96,0.22"/><path d="M39.82,55.32c1.27,0.47,3.59,0.51,4.85,0.47c14.83-0.54,34.69-1.65,46.21-2.04c2.11-0.07,3.38,0.22,4.43,0.46"/><path d="M65.83,11.75c0.91,0.43,1.63,1.91,1.63,2.8c0,4.77-0.18,32.38-0.18,38.98"/><path d="M46.84,62.79c0,3.24-5.22,8.02-6.59,8.94"/><path d="M56.86,60.68c2.55,1.77,4.98,6.65,5.62,9.41"/><path d="M72.75,59.72c2.07,1.53,5.35,6.27,5.87,8.65"/><path d="M88.17,59.21c2.97,1.87,7.67,7.69,8.42,10.6"/><path d="M47,73.42c0.46,0.53,1.06,1.11,1.15,1.57c0.78,3.61,1.41,12.58,1.94,19.06"/><path d="M48.86,74.98c8.26-0.75,34.48-2.58,37.48-2.48c1.3,0.04,2.7,0.82,2.39,2.16c-0.48,2.09-2.98,11.24-3.49,17.9"/><path d="M60.81,75.18c0.19,0.34,0.45,1.55,0.47,2c0.22,5.82,1.03,8.7,1.08,15.63"/><path d="M73.43,73.6c0.35,0.41,0.63,1.11,0.63,1.64c0,5.63-0.68,10.17-0.68,17.63"/><path d="M35.07,93.93c1.54,0.75,4.36,0.87,5.9,0.75c16.02-1.25,22.57-1.65,52.07-1.85c2.57-0.02,4.11,0.36,5.39,0.73"/></svg>