<svg><path d="M17.77,16.49c0.97,0.45,2.74,0.55,3.71,0.45c6.93-0.71,14.81-2.45,25.71-2.64c1.61-0.03,2.58,0.22,3.39,0.44"/><path d="M34.16,18.02c0.04,0.31,0.09,0.8-0.08,1.25c-1.02,2.63-6.85,8.4-14.83,11.94"/><path d="M32.62,24.25c5.38,5.75,7.41,14.19,5.4,25.2c-1.52,8.31-5.68,2.02-6.31,1.52"/><path d="M32.08,28.78c0.04,0.27,0.08,0.7-0.07,1.09c-0.86,2.3-5.82,7.36-12.61,10.45"/><path d="M34.94,35.25c0.04,0.31,0.08,0.81-0.08,1.25c-0.98,2.64-6.63,8.45-14.35,12"/><path d="M47.31,21.95c0.02,0.21,0.05,0.55-0.05,0.86c-0.59,1.8-3.97,5.76-8.6,8.19"/><path d="M39.49,34.37c3.82,1.98,8.79,7.15,10.1,12.06"/><path d="M58.02,15.8c0.83,0.42,2.36,0.51,3.19,0.42c5.96-0.66,16.59-2.8,25.96-2.99c1.39-0.03,2.22,0.2,2.91,0.41"/><path d="M71.41,16.25c0.04,0.28,0.08,0.72-0.08,1.12c-0.91,2.37-6.16,7.57-13.34,10.76"/><path d="M68.62,23c7.22,7.72,10.95,17.1,6.9,28.41c-2.32,6.48-5.68,2.19-6.31,1.65"/><path d="M68.59,28.33c0.03,0.25,0.07,0.66-0.07,1.02c-0.79,2.15-5.36,6.86-11.61,9.75"/><path d="M72.44,34.27c0.04,0.33,0.08,0.85-0.08,1.32c-0.93,2.78-6.29,8.88-13.61,12.62"/><path d="M86.81,22.1c0.02,0.25,0.05,0.66-0.05,1.02c-0.56,2.16-3.74,6.89-8.11,9.79"/><path d="M77.74,36.61c4.86,2.12,11.18,7.68,12.85,12.95"/><path d="M27.5,64.43c3.52,2.63,9.29,11.41,10.25,14.04"/><path d="M79.26,61.5c0.24,1.25,0.24,2.21-0.5,3.15s-8.33,8.06-12.01,10.24"/><path d="M53.42,54.5c0.83,1,1.09,2.08,1.08,2.79C54,82.5,37.25,94,19.75,98.75"/><path d="M52.75,71.01c10.99,10.38,24.32,20.93,31.57,25.26c2.28,1.36,2.81,1.21,4.68,1.56"/></svg>