<svg><path d="M10.99,38c2.78,3.67,6.83,14.08,7.59,17.75"/><path d="M38.53,32.75c0.22,1.25,0.11,2.78-0.58,3.97c-0.69,1.19-5.27,7.5-8.72,10.28"/><path d="M25.75,15.25c0.76,0.75,1.02,2.25,1.03,3.5C27,70.25,23.5,81,11,94"/><path d="M26.75,68.25c4.55,3.13,10.3,13.06,11.5,17.5"/><path d="M43.89,17.5c0.52,0.48,1.64,3.63,1.74,4.59c0.1,0.97-0.07,66.29-0.17,72.34"/><path d="M45.78,18.88c1.75-0.1,13.75-2.26,15.34-2.38c1.32-0.1,2.01,0.95,2.08,1.79c0.1,1.28-0.61,12.53-1.47,20.25"/><path d="M46.09,29.05c4.29-0.62,11.54-1.67,16.46-1.81"/><path d="M46.25,38.49c5.81-1.2,10.31-1.11,15.45-1.67"/><path d="M73.08,15c0.32,0.47,0.63,2.74,0.63,2.11c0,2.28,0.18,18.63,0.18,20.15"/><path d="M74.74,17.48c1.79-0.09,16.01-2.38,17.64-2.49c1.36-0.09,2.14,0.98,2.12,1.53c-0.35,16.61-0.36,61.37-0.36,73.42c0,7.81-5.4,2.06-7.65-0.54"/><path d="M74.03,26.49c5.05-0.49,16.22-1.74,20.27-2.41"/><path d="M74.13,35.34c3.57,0,15.39-1.26,20.01-1.26"/><path d="M53.95,46.23c1.44,0.28,2.77,0.43,4.09,0.32c5.65-0.46,16.35-1.35,22.21-2.13c1.44-0.19,3.13-0.04,4.09,0.03"/><path d="M53.9,54.3c0.19,0.25,0.39,0.46,0.47,0.77c0.67,2.48,1.97,10.84,2.43,15.29"/><path d="M54.61,55.7c5.78-0.99,25.63-3.2,27.89-3.43c1.41-0.15,2.14,0.83,1.92,2.21c-0.64,4.02-1.72,10.56-2.51,13.28"/><path d="M60.33,58.25c1.5,1.06,3.86,4.36,4.23,6.01"/><path d="M78.03,56.23c0.01,0.16,0.02,0.41-0.02,0.64c-0.25,1.35-1.69,4.32-3.67,6.13"/><path d="M56.65,67.56c6.31-0.56,19.48-2.15,25.37-2.43"/><path d="M67.88,38.5c0.6,0.3,1.47,2.41,1.59,3.02c0.12,0.61,0,47.55-0.12,51.35"/><path d="M68.83,67.86c-3.02,5.92-10.87,14.29-17.15,17.63"/><path d="M69.98,69.12c5.45,2.36,12.48,8.76,14.52,13"/></svg>