<svg><path d="M73.44,9.39c0.06,1.11-1.05,2.21-1.73,2.5c-3.71,1.61-17.5,5.24-39.65,8.07"/><path d="M32.27,26.14c0.04,0.4,0.08,1.04-0.07,1.62c-0.9,3.41-6.06,10.88-13.13,15.46"/><path d="M48.77,24.33c2.57,1.92,6.65,7.9,7.29,10.88"/><path d="M74.02,21.08c5.04,2.23,13.03,9.17,14.29,12.63"/><path d="M30,42.25c2,0.25,3.7,0.66,6,0.5c14-1,27.75-3,41-3.75c3.24-0.18,4,1.75,3.5,4.25c-1.31,6.54-2,15-3,23"/><path d="M15.25,56.5c2.42,0.25,4.31,0.73,6.98,0.5c23.37-2,50.77-4.5,69.3-5.25c2.96-0.12,5.37,0.5,6.71,0.75"/><path d="M29.5,70.18c1.25,0.15,3.51,0.54,5,0.46c13.75-0.76,29.75-3.48,42.25-3.79c2-0.05,3.25,0,4.75,0.15"/><path d="M53.08,43.33c0.67,0.92,1.91,3.01,1.98,6.06c0.31,14.66-0.2,38.55-0.2,43.55c0,10.56-6.92,0.2-7.8-0.75"/></svg>