<svg><path d="M45.87,14c0.06,0.31-0.09,1.29-0.47,1.63c-4.63,4.32-11.47,8.68-23.53,12.16"/><path d="M19.22,27.25c0.27,0.72,0.78,1.99,0.74,4.05C19.59,51.37,21,77,10.81,88.97"/><path d="M31.17,27.25c0.98,0.62,1.76,2.76,1.76,4.03c0,6.47-0.2,52.97-0.2,63.47"/><path d="M40.94,21.28C44.75,57,52.25,83,83,89.75c4.06,0.89,7.25,1.5,11.25,2"/><path d="M58,19.5c0.68,0.34,1.91,1.21,3.49,1.12c9.76-0.62,20.88-1.34,25.88-1.84c2.21-0.22,3.23,2.53,3.09,3.85C90,27,88.5,37.25,87.18,44.34"/><path d="M73.05,21.17c0.48,0.34,0.95,2.51,0.95,3.2c0,5.63-0.3,10.13-0.3,17.81"/><path d="M60.68,43.37c5.57-0.12,21.82-1.37,26.97-1.63"/><path d="M59.88,20.32c0.52,1.02,0.43,2.21,0.46,3.78c0.14,6.99-0.26,25.71-0.26,30.43c0,14.22,0.92,17.26,18.25,17.26c15.92,0,16.76-3.79,16.76-10.57"/></svg>