<svg><path d="M26.75,17.9c3.12,0.6,6.31,0.17,9.13-0.11c9.91-0.96,26.17-2.73,36.24-3.33c3-0.18,6.15-0.49,9.12,0.16"/><path d="M40.48,23.14c-0.23,0.98-0.84,1.82-1.61,2.55c-3.62,3.43-11.12,8.68-24.57,14.52"/><path d="M71.02,22.58c7.07,1.96,18.27,8.08,20.04,11.13"/><path d="M23.22,40.38c1.07,1.07,1.12,2.53,1.12,4.48c0,5.15-0.02,32.67-0.03,46.39c0,3.98,0,6.77,0,7.5"/><path d="M25.34,42.03c8.24-0.86,49.79-3.91,54.06-4.3c3.51-0.32,5.14,0.77,5.14,3.83c0,5.19-0.15,44.87-0.15,49.81c0,13.12-5.18,4.08-7.79,1.29"/><path d="M52.97,18.38c1.14,1.14,1.37,2.87,1.37,4.73c0,4.12-0.02,45.33-0.03,63.14c0,4.39,0,7.36,0,8"/><path d="M45.33,46.89c0.13,1.1-0.07,2.13-0.61,3.09c-2.35,3.89-6.96,9.6-13.42,14.98"/><path d="M34.23,51.9c4.95,1.97,9.77,6.64,12.08,10.11"/><path d="M44.83,69.14c0.09,1.19-0.04,2.27-0.44,3.41c-1.62,4.58-7.03,11.52-13.59,18.67"/><path d="M33.98,75.65c4.27,2.47,9.27,8.1,11.83,13.36"/><path d="M75.77,45.14c0.13,1.09-0.08,2.11-0.69,3.02c-2.45,3.71-7.7,8.71-14.77,13.8"/><path d="M62.67,49.88c4.95,1.87,10.95,6.37,13.89,10.8"/><path d="M75.33,67.14c0.12,1.06-0.06,2.06-0.53,3.01c-1.6,3.81-6.48,9.64-13,15.07"/><path d="M64.47,71.4C69.5,74,75.5,79.75,78.31,83.77"/></svg>