<svg><path d="M68.71,8.39c0.09,0.22,0.2,0.57-0.19,0.88c-2.28,1.86-15.34,5.94-33.22,8.44"/><path d="M32.02,22.39c0.04,0.42,0.08,1.08-0.07,1.69c-0.87,3.56-5.84,11.36-12.64,16.14"/><path d="M48.77,22.58c3.1,1.96,8.02,8.08,8.79,11.13"/><path d="M68.27,19.33c6.54,2.8,16.91,11.52,18.54,15.88"/><path d="M31.25,41.89c0.94,0.38,2.66,0.49,3.6,0.38c5.98-0.66,30.82-3.33,36.61-2.88c1.56,0.12,2.5,0.18,3.29,0.37"/><path d="M18.88,56.98c1.52,0.54,4.3,0.63,5.82,0.54c15.8-0.91,37.05-3.52,58.11-3.73c2.53-0.03,4.05,0.26,5.31,0.53"/><path d="M46.72,44.64c0.28,0.86,0.53,1.78,0.33,3.34C45.65,59.03,37,79.75,17.75,90.5"/><path d="M42.85,67.86c0.34,0.04,2.7-0.04,3.67-0.11c4.38-0.3,14.72-2.82,19.3-3.88c3.15-0.73,3.54,1.33,2.74,3.3C64.16,77.99,42.14,96.43,22.5,102"/><path d="M37.75,72.5c4.5,0.75,26.43,19.27,35.75,23c6.25,2.5,11.95,3.63,14.25,4"/></svg>