<svg><path d="M31.6,10.22c1.21,1.37,1.98,3.71,1.98,5.33c0,15.46-0.04,80.31-0.04,85.58"/><path d="M15.25,17.92c1.37,0.64,1.89,1.38,2.01,3.48c0.18,3.15-0.74,16.01-1.16,19.31c-0.14,1.05,0.24,2.62,2.28,2.46C25.56,42.6,29,41.75,33.56,41.1"/><path d="M9.3,60.68c1.33,0.14,1.61,0.57,3.17,0.47c6.66-0.42,16.19-1.92,20.84-2.15"/><path d="M21.74,63.39c0.01,0.61,0.62,2.23,0.45,3.47c-1.43,10.39-3.68,21.39-9.67,28.23"/><path d="M45.54,22.59c0.89,0.47,3.81,0.62,4.71,0.48c4.2-0.64,28.81-2.81,35.87-3.3c1.38-0.1,2.63,0.09,3.77,0.49"/><path d="M65.25,9.5c1.69,2.01,1.69,3.22,1.69,4.83c0,6.17-0.05,30.92-0.05,38.92"/><path d="M53.09,30.49c0.15,0.49,0.11,1.55-0.09,2.1c-1.98,5.31-5.09,12.22-11.18,17.29"/><path d="M52.08,40.91c2.39,1.2,5.43,4.38,6.6,7.4"/><path d="M83.3,26.74c0.15,0.51,0.12,1.61-0.1,2.18c-2.06,5.51-5.3,12.69-11.65,17.96"/><path d="M83.01,36.63c3.29,1.36,7.48,4.99,9.08,8.42"/><path d="M39.75,56c0.85,0.28,3.87,0.57,5.3,0.44c15.44-1.36,33.41-3.39,47.47-3.8c2.3-0.07,5.07,0.46,6.22,0.9"/><path d="M46.63,65.33c0.61,0.73,1.19,2.01,1.33,2.93C49,75.5,50.56,85.54,51.8,97.75"/><path d="M47.83,66.5c11.72-1.29,33.63-3.75,40.97-3.75c1.67,0,3.32,2.22,3.13,3.69c-0.91,6.96-2.63,19.2-4.45,28.6"/><path d="M57.86,73.02c0.3,0.25,0.61,0.47,0.74,0.78c1.04,2.52,1.54,9.86,2.43,14.39"/><path d="M59.73,74.08c6.15-1.31,13.71-2.74,17.23-3.07c1.29-0.12,2.56,1.22,2.38,1.93c-0.76,2.94-1.22,7.04-2.36,11.11"/><path d="M61.21,85.92c4.46-0.65,12.38-0.92,18.06-1.5"/><path d="M51.96,94.22c8.87-0.29,25.02-1.27,35.95-2.06"/></svg>