<svg><path d="M27.97,20.19C30.76,20.76,33.57,20.83,36.39,20.42C46.98,19.65,68.43,17.92,79.88,17.33C82.38,17.04,84.86,17.15,87.33,17.66"/><path d="M36.027035,29.002327C36.63294,29.740801,36.617442,30.948089,36.202703,31.897194C33.8193,37.443339,28.818986,48.888158,27.971296,50.896405C29.526062,51.996416,32.83576,51.913128,36.128742,51.475862C52.000248,49.383234,67.988763,47.686228,85.439898,46.905397C88.766311,46.759641,92.084367,46.593064,95.410781,47.03033"/><path d="M65.42,21.38C66.58,22.54,66.82,24.12,66.82,26.37C66.82,45.46,66.78,82.25,66.78,88.75C66.78,101.75,58.73,90.72,57.06,89.08"/><path d="M63.97,48.73C63.68,50.34,63.08,51.8,62.15,53.1C55.58,63.23,37.77,79.16,13.25,90"/></svg>