<svg><path d="M23.77,27.14c0.03,0.61,0.07,1.57-0.07,2.44c-0.85,5.15-5.72,16.46-12.39,23.38"/><path d="M22.75,40.75c6.75-0.75,21-4,22.25-4s2.5,0,3.75,0.25"/><path d="M34.87,12.75c1.09,0.5,1.74,2.25,1.96,3.25c0.22,1,0,74.75-0.22,81"/><path d="M14.5,70.45c1.99,1.31,3.64,1.87,5.63,0.75C21.3,70.54,41.04,59.18,46,56"/><path d="M91.93,31.96c0.21,0.37,0.35,1.44-0.2,2.01C88.16,37.63,75.9,47.74,64.36,51.5"/><path d="M59.5,15.25c1.2,1.28,1.28,2.14,1.68,3.85c0.4,1.71,0.13,54.97,0.13,66.62s9.76,9.79,18.07,9.79C95.72,95.51,96,92.26,96,84.09"/></svg>