<svg><path d="M20.77,28.64c0.23,1.48-0.07,2.88-0.5,4.27c-1.77,5.46-4.9,12.84-9.72,18.8"/><path d="M21.25,40.25c1.35,0.28,2.7,0.29,4.02,0c6.22-1.04,11.65-2.8,14.47-3.56c1.46-0.44,2.96-0.76,4.51-0.45"/><path d="M32.37,12.75c1.06,1.06,1.46,2.48,1.46,3.5c0,3.25,0.03,74.38,0.03,82.25"/><path d="M11.5,72.83c2.12,1.05,4.61,0.27,6.3-1.14c3.54-2.67,20.76-16,24.95-19.19"/><path d="M52.88,51.42c2.76,0.3,5.49,0.25,8.21-0.14c6.97-0.9,13.63-1.5,21.64-2.37c2.46-0.34,4.92-0.3,7.4,0.13"/><path d="M69.17,15.87c0.98,0.98,1.27,2.52,1.27,4.39c0,12.5-0.11,51.25-0.11,67.11"/><path d="M42.88,89.68c3.75,0.57,7.01,0.42,10.5,0.09c11.64-1.09,25-2.06,35.12-2.23c3.08-0.11,6.12,0.28,9.13,1.15"/></svg>