<svg><path d="M24.27,24.64c0.03,0.65,0.07,1.68-0.06,2.61c-0.78,5.5-5.26,17.57-11.4,24.96"/><path d="M24.25,38.75c1,0.12,2.08-0.01,3.24-0.19c6.4-1,11.5-2.03,15.64-2.93c1.75-0.38,3.57-0.44,5.12-0.13"/><path d="M35.37,13.75c1.19,1.19,1.46,2.88,1.46,4c0,0.88-0.16,52.04-0.21,71.5c-0.01,3.29-0.01,5.67-0.01,6.75"/><path d="M14.83,70.21c1.28,0.62,2.49,0.68,3.86-0.21C19.84,69.27,39.15,56.56,44,53"/><path d="M67.27,15.75c0.05,0.66,0.2,1.74-0.1,2.66c-2.36,7.42-7.99,16.52-17.29,25.46"/><path d="M59.25,38.66c1.75,0.47,3.07,0.46,5.16,0.17c6.96-0.96,18.71-3.46,25.66-4.75c5.08-0.95,6.2,2.13,5.42,6.59c-0.77,4.47-5.95,37.3-17.3,49.42c-3.41,3.64-5.21,1.6-8.26-1.06"/><path d="M66.26,41.88c0.06,0.64,0.07,1.99-0.36,2.83c-4.54,8.79-9.7,16.04-20.02,24.7"/><path d="M79.62,39.6c0.51,1.27,0.41,2.72-0.16,4.11c-4.52,11.13-11.71,24.8-27.21,39.28"/></svg>