<svg><path d="M38.27,13.17c0.04,0.47,0.26,1.28-0.07,1.89C35.75,19.5,31,27.25,25.25,33.12"/><path d="M36.63,23.91c0.94,0.27,2.66,0.33,3.6,0.27c11.52-0.75,24.02-2.59,34.36-3.54c1.55-0.14,2.5,0.13,3.29,0.26"/><path d="M14.38,39.54c1.52,0.38,4.3,0.45,5.82,0.38c15.8-0.64,45.05-3.99,68.11-4.14c2.53-0.02,4.05,0.18,5.31,0.38"/><path d="M51.63,8.38c0.57,0.32,1.77,2.38,1.89,3.02c0.11,0.64-0.07,36.87-0.19,40.85"/><path d="M23.03,53.57c0.03,0.48,0.06,1.25-0.05,1.94c-0.65,4.1-4.35,13.08-9.42,18.59"/><path d="M22.25,64.01c0.89,0.11,2,0.13,3.25,0.09c6.87-0.26,16.44-2.07,17.5-2.07c1.25,0,2.5,0,3.75,0.16"/><path d="M32.37,48.25c1.09,0.31,1.74,1.4,1.96,2.02c0.22,0.62,0,47.35-0.22,51.23"/><path d="M12,86.97c1.97,1.16,3.11,0.66,5.08-0.34c1.16-0.59,20.74-10.65,25.67-13.46"/><path d="M63.05,52.22c0.03,0.37,0.14,0.99-0.05,1.5c-1.5,4.03-5,10.78-9.86,16.33"/><path d="M62.78,61.93c0.8,0.24,2.26,0.29,3.06,0.24c9.8-0.65,13.61-1.62,22.41-2.45c1.32-0.12,2.13,0.11,2.8,0.23"/><path d="M49.13,78.76c1.2,0.33,3.4,0.39,4.6,0.33c12.48-0.56,23.73-3.84,41.95-3.97c2-0.01,3.2,0.16,4.2,0.33"/><path d="M72.82,46.88c0.47,0.28,1.48,2.07,1.57,2.63c0.1,0.55-0.06,47.28-0.16,50.74"/></svg>