<svg><path d="M22.75,25.5c0.03,0.67,0.15,1.75-0.05,2.69c-1.33,6.18-4.7,16.31-9.64,24.77"/><path d="M23.5,38c1.12,0.12,1.93,0.17,3.72-0.18c4.2-0.84,7.17-1.76,11.03-2.82c1.36-0.37,2.5-0.5,3.75-0.25"/><path d="M31.37,13c1.06,1.06,1.21,2.62,1.21,4c0,2.26-0.06,49.56-0.08,73.5c0,2.49,0,4.72,0,6.62"/><path d="M12,69.54c1.5,0.71,2.57,0.86,4.43-0.99C23,62,28.75,56.25,40,44.75"/><path d="M50,14.25c2.36,1.18,6.1,4.83,6.69,6.66"/><path d="M74.32,10.39c0.11,0.78-0.06,1.49-0.52,2.13c-1.25,2.58-3.28,5.15-6.8,9.23"/><path d="M44.87,26.37c2.13,0.38,4.34,0.13,5.84-0.1c6.55-1.01,19.93-2.65,27.04-3.3c1.89-0.17,3.97-0.47,5.84,0.02"/><path d="M63.49,25.9c0.81,0.81,1.27,1.85,1.27,2.99c0,0.63,0,9.49,0,13.86"/><path d="M48.15,35.04c1.22,0.54,3.81,0.45,5.09,0.28c5.57-0.75,16.49-2.4,22.64-2.96c1.57-0.14,3.57-0.12,5.12,0.29"/><path d="M42.77,45.74c1.69,0.66,4.34,0.58,6.09,0.33c10.67-1.48,24.26-3.45,35.62-4.32c2.31-0.18,4.54-0.3,6.82,0.24"/><path d="M55.75,48.75c0.12,1-0.2,1.82-0.89,2.61C52.58,54,48.3,56.72,40.7,59.92"/><path d="M39.29,65.29c3.04,1.07,6.76,0.35,9.84-0.14c9.59-1.53,24.7-3.99,36.02-5.47c3.03-0.39,6.07-0.53,9.06,0.1"/><path d="M53.35,56.19c0.79,0.79,1.29,2.19,1.29,3.8c0,12.51,0.04,29.57,0.04,32.53c0,7.6-4.33-0.07-5.58-0.82"/><path d="M39.25,82.17c1.25,0.95,2.39,0.95,4.19-0.16c1.06-0.65,14.2-8.77,18.71-11.91"/><path d="M68.68,48.7c1.12,1.06,1.73,2.6,1.99,4.88c2.01,17.77,8.51,32.97,19.26,41.77c5.07,4.16,5.7,3.03,4.74-5.29"/><path d="M84.03,66.52c0.09,1.23-0.02,2.16-0.41,3.04C81,75.5,74.62,85.25,62,93.75"/><path d="M78.62,48.04c2.1,1.14,5.46,3.73,6.44,5.68"/></svg>