<svg><path d="M39.29,17c0.07,0.53,0.31,1.56-0.14,2.13c-5.77,7.32-11.64,12.5-25.66,20.41"/><path d="M20.5,17.5C46.25,38.25,40,103,24,89"/><path d="M32.33,42c0.05,0.67,0.22,1.96-0.1,2.68c-4.05,9.19-8.16,15.68-17.99,25.62"/><path d="M46.75,38.5c1.2,0,3.24,0.4,5.59,0.25C64.4,38,77.42,36.5,93.59,35.25c2.34-0.18,3.91,0,5.41,0.5"/><path d="M77.77,12.83c1.23,0.92,2.17,2.49,2.26,5.52c0.4,14.55-0.26,67.66-0.26,72.62c0,8.78-7.21,0.5-8.71-0.75"/><path d="M79.29,36.5c-0.54,1.5-0.8,1.29-1.19,2.85c-2.29,9.17-15.46,29.28-33.48,41.59"/></svg>