<svg><path d="M33.37,16.5c0.94,0.94,1.46,3,1.46,4.25c0,0.85-0.11,46.62-0.11,67c0,3.92,0.03,6,0.03,7.87"/><path d="M14.75,30.5c3.53,1.85,8.12,6.62,10,10.5"/><path d="M11.25,73.14c1.5,0.99,3.37,0.36,4.54-0.96C19.21,68.34,21.5,66,26.75,59.5"/><path d="M43.88,47.11c2,0.64,4.9,0.47,6.62,0.26c8.75-1.08,24.18-3.39,31.96-4.29c1.79-0.21,4.41-0.21,6.19,0.17"/><path d="M63.01,16.5c1,0.99,1.42,2.66,1.49,4.82c1,29.68-2.75,57.56-21.72,72.43"/><path d="M64.25,46.25c4.35,11.11,15.58,29.31,22.97,38.03c1.53,1.81,3.66,4.35,6.03,6.1"/><path d="M78.31,19.5c4.56,3.52,6.56,6.95,7.98,10.25"/></svg>