<svg><path d="M38.54,13c0.07,0.67,0.34,1.96-0.15,2.68C32.23,24.86,25.97,31.36,11,41.29"/><path d="M15.69,15.5C47,37.25,36.19,103.25,24.41,90.1"/><path d="M30.33,43c0.05,0.67,0.23,1.97-0.1,2.7C25.9,54.97,21.5,61.52,11,71.54"/><path d="M41.25,38.42c1.67,0.6,4.73,0.76,6.39,0.6c11.87-1.2,29.61-3.02,42.53-3.24c2.78-0.05,4.44,0.28,5.83,0.58"/><path d="M64.54,13.5c0.71,1.5,1.18,2.25,1.18,3.72c0,19.06,0.53,63.03-27.56,78.2"/><path d="M69.98,45.87c1.02,1.38,1.37,2.82,1.4,4.81c0.13,8.89-0.34,27.03-0.34,33.07c0,11.75,1.46,13.02,11.53,13.02c11.18,0,12.32-1.27,12.32-10.41"/><path d="M78.25,17.25C82.4,18.88,88.96,23.96,90,26.5"/></svg>