<svg><path d="M37.8,16c0.07,0.58,0.31,1.7-0.14,2.32C32,26.29,26.25,31.93,12.5,40.54"/><path d="M15.08,18.5c31.42,22,21.57,84.02,7.1,71.42"/><path d="M30.32,44.5c0.05,0.63,0.25,1.83-0.11,2.51C25.67,55.63,21.05,61.72,10,71.04"/><path d="M48.01,21.25c0.32,0.67,1.35,2.14,1.5,2.96c1.52,8.41,3.49,23.11,4.17,35.58"/><path d="M50.05,22.74c12.66-1.38,32.23-3.25,40.94-3.8c3.2-0.2,5.1,1.25,4.94,4.06c-0.37,6.68-3.36,29.96-4.68,34.05"/><path d="M51.92,39.7c3.8-0.28,39.13-3.2,42.26-3.15"/><path d="M54.34,56.64c11.02-1.37,25.56-2.61,37.6-3.1"/><path d="M70.11,22.94c0.89,0.56,1.44,2.03,1.44,3.81c-0.03,8.98,0.3,70.04,0.3,72.97"/></svg>