<svg><path d="M39.8,16.5c0.07,0.54,0.31,1.58-0.14,2.16C34,26.06,28.25,31.29,14.5,39.29"/><path d="M19.37,16.5C48.5,41,36.5,104,22.93,88.13"/><path d="M31.84,43c0.05,0.67,0.21,1.96-0.09,2.68c-3.88,9.19-7.82,15.68-17.24,25.62"/><path d="M49.09,21.74c1.25,0.64,3.62,0.93,5.09,0.78c9.94-1.04,21.48-1.96,30.46-2.78c2.55-0.23,4.16,1.4,3.72,4.28c-1.61,10.73-5.4,48.31-7.31,65.08"/><path d="M65.36,25.66c0.96,0.54,1.91,3.47,1.73,4.56c-2.59,15.53-9.46,50.2-11.57,59.6"/><path d="M44.02,52.22c1.41,0.7,3.99,0.75,5.41,0.7c16.93-0.56,29.01-1.57,46.61-1.88c2.35-0.04,3.76,0.34,4.94,0.69"/><path d="M39.75,90.74c1.75,0.51,3.68,0.78,4.99,0.69c15.76-1.17,33.46-2.04,49.7-2.33c2.17-0.04,3.47,0.31,4.56,0.64"/></svg>