<svg><path d="M37.55,15c-0.02,1.25-0.38,2.36-1.07,3.33C30.12,27.12,24.25,34,12.75,42.54"/><path d="M16,19.75C45.75,35,33.88,107,23,90"/><path d="M30.58,44.75c-0.05,1.32-0.37,2.54-0.95,3.69c-4.51,8.94-8.4,13.99-17.38,24.11"/><path d="M84.05,12.75c-0.48,1.39-1.32,2.41-2.52,3.06c-7.04,4.48-13.2,6.88-30.16,12.82"/><path d="M47.58,25.63c0.89,0.89,1.16,2.12,1.16,3.66c0,26.09,1.51,46.34-11.43,62.68"/><path d="M62.22,27.93c0.99,0.99,1.15,2.44,1.15,3.81c0,6.12-0.11,41.94-0.11,51.88"/><path d="M50.18,88.01c0.72,0.58,2.62,0.95,4.12,0.32c7.95-3.34,11.33-4.51,19.82-8.21"/><path d="M72.51,71.64c3.24,4.11,6.11,11.7,6.71,16.12"/><path d="M75,21.38c2.88,15.25,6.5,35.12,13.32,56.15c1.82,5.6,4.93,11.73,7.68,15.87"/></svg>