<svg><path d="M38.8,18c0,1.12-0.52,2.12-1.32,2.96C31.38,27.38,26.5,32.25,13,39.79"/><path d="M18,17.25c27.75,18.5,19,87,4.5,70.75"/><path d="M31.83,43.75c0,1.5-0.42,2.61-0.99,3.67C26,56.25,22,62.25,11.75,71.79"/><path d="M52.71,22.09c0.85,0.85,1.18,1.78,1.18,3.06c0,1.03-0.02,60.37-0.02,63.22"/><path d="M55.05,23.73c2.07-0.09,19.36-2.5,23.69-3.05c2.63-0.33,4.68,1.86,4.68,4.87c0,6.19-0.04,51.07-0.04,60.89"/><path d="M54.88,43.9c7.76-1,20.45-1.94,27.27-2.25"/><path d="M55.09,64.11c6.06-0.36,19.82-1.76,26.83-1.81"/><path d="M41.54,90.07c3.21,0.82,6.4,0.59,9.71,0.34c12.74-0.97,28.76-2.29,39.13-2.5c2.69-0.05,5.85,0.17,8.5,0.61"/></svg>