<svg><path d="M40.81,13.75c-0.05,1.12-0.42,2.08-1.12,2.88C33.97,24.6,28.94,30.75,18,39.29"/><path d="M20.5,18.5c26.75,18.25,19.5,87.75,6.75,73.25"/><path d="M34.57,47.5c0,1-0.36,1.8-0.98,2.62c-5.46,7.25-10.34,13.25-21.09,21.17"/><path d="M72.99,15c0,1.12-0.13,2.1-0.36,2.84c-1.5,4.91-3.5,11.03-8.25,18.91"/><path d="M54.8,39.08c0.87,0.87,1.19,2.3,1.19,3.65c0,1.44-0.04,27.02-0.05,42.77c0,3.98-0.01,7.32-0.01,9.5"/><path d="M56.35,40.98c7.71-1.23,24.97-3.49,30.53-4.2c2.95-0.38,4.57,0.79,4.57,4.14c0,4.24-0.04,27.15-0.06,43.7c0,3.76-0.01,7.19-0.01,10"/><path d="M57.06,64.36c10.82-1.24,23.44-2.74,33.3-3.19"/><path d="M56.98,91.47c12.77-1.35,24.13-2.45,33.1-2.78"/></svg>