<svg><path d="M40.06,17.5c-0.05,1.29-0.4,2.47-1.09,3.51C33.62,29,29.24,35.51,17.5,45.04"/><path d="M21,20.5c24.5,18.25,18.5,82.75,3.5,67.5"/><path d="M33.82,47c-0.15,1.24-0.55,2.38-1.19,3.41C28.32,58,23.69,63.63,13.25,72.04"/><path d="M59.91,16.4c0,1.1-0.3,2.59-0.92,4.03C55.75,28,50.12,37.38,42.96,46.11"/><path d="M56.18,31.78c2.95,0.85,4.92,0.91,7.46,0.4c7.12-1.43,16.24-3.05,23.01-4.45c3.46-0.71,5.08,0.99,4.89,4.68c-0.67,13.6-3.25,35.7-8.9,53.26c-1.78,5.55-5.16,9.31-9.66,2.12"/><path d="M49.76,50.52c0.73,0.74,0.97,1.66,1.15,2.72c0.74,4.15,1.59,9,2.25,13.13c0.31,1.97,0.58,3.77,0.76,5.25"/><path d="M51.75,51.5c6.88-1.18,12.25-2.12,16.11-2.65c2.21-0.3,4.12,0.6,3.65,3.18c-0.7,3.81-1.46,8.53-2.47,14.4"/><path d="M54.74,68.94c3.49-0.38,7.27-0.97,11.65-1.57c1.37-0.19,2.81-0.38,4.31-0.56"/></svg>