<svg><path d="M38.8,18c0.14,1.15-0.24,1.97-0.9,2.86c-5.28,7-10.86,11.69-23.65,19.44"/><path d="M18.75,20c28.25,23.5,17.71,82.78,6,69.75"/><path d="M30.58,43.75c0.1,1.33,0.04,2.24-0.54,3.45c-3.87,8.08-8.21,13.37-17.55,22.35"/><path d="M47.25,32.23c1.87,0.75,4.69,0.55,6.62,0.25c8-1.23,20.55-2.84,27.22-3.66c2.13-0.26,4.05-0.2,6.15,0.31"/><path d="M46.75,40.25c2.29,1.98,5.9,8.16,6.48,11.25"/><path d="M83.28,35.69c0.07,0.86-0.02,1.69-0.3,2.51c-0.93,3.08-3.81,7.62-7.49,12.21"/><path d="M42.88,59.19c3,0.71,5.35,0.49,8.36,0.11c10.49-1.34,25.74-3.34,36.64-3.78c2.38-0.1,5.38,0.1,7.62,0.59"/><path d="M64.33,14c0.8,1,1.13,2.39,1.17,4.79c0.63,44.46-0.62,59.33-25.74,75.71"/><path d="M65.75,59.83c6.12,9.55,12.6,18.82,19.63,26.67c2.07,2.3,5.37,5.01,8.12,6.53"/></svg>