<svg><path d="M35.06,14.25c0.06,0.68,0.29,1.99-0.13,2.72C29.66,26.32,24.3,32.93,11.5,43.04"/><path d="M15.5,18.25c28.25,23.5,18.75,86.75,4.75,72"/><path d="M27.85,45c0.04,0.63,0.18,1.85-0.08,2.53c-3.32,8.7-6.7,14.85-14.77,24.26"/><path d="M60.8,14.75c0.04,0.68,0.23,1.8-0.09,2.73c-2.5,7.11-8.06,17.72-15.88,26.6"/><path d="M60.76,25.41c0.33,0.04,1.76,0,2.71-0.11c3.14-0.35,10.46-1.59,14.94-2.68c3.08-0.75,3.95,0.85,3.16,2.89c-4.31,11.13-21.81,35.68-41.15,43.02"/><path d="M55.15,33.58c5.02,4.78,27.78,22.93,34.55,27.29c2.02,1.3,3.65,1.93,5.62,2.32"/><path d="M50.33,70.01c0.36,0.44,0.73,0.8,0.89,1.35c1.25,4.34,3.25,17.31,4.11,25.1"/><path d="M51.58,71.64c6.67-0.64,25.43-2.72,31.4-3.52c2.18-0.29,3.49,1.74,3.18,3.46c-1.29,7.14-2.71,9.64-4.63,19.51"/><path d="M55.51,93.63c7.24-0.88,22.03-1.26,28.86-2.25"/></svg>