<svg><path d="M35.06,14.75c0.06,0.64,0.28,1.89-0.12,2.58C29.77,26.19,24.53,32.46,12,42.04"/><path d="M16.5,18.75c30.25,25.75,16.96,84.53,5.25,71.5"/><path d="M28.34,45c0.05,0.64,0.21,1.87-0.1,2.56c-3.94,8.78-7.93,14.99-17.49,24.48"/><path d="M52.32,19.44c2.3-0.13,22.64-3.8,24.73-3.96c1.74-0.13,2.75,1.45,2.73,2.25c-0.12,5.64-1.29,22.76-1.51,29.39"/><path d="M52.48,33.6c5.77-0.63,20.04-2.61,25.59-3.11"/><path d="M52.59,48.14c7.91-1.01,17.29-2.47,25.88-3.44"/><path d="M50.51,16.36c0.99,1.14,1.59,2.78,1.85,4.02c0.26,1.24,0.26,62.12,0.26,66.49c0,2.79,0.72,5.93,3.99,3.43c3.64-2.8,7.39-5.8,13.34-10.17"/><path d="M85.7,50.71c0.29,1.43,0.48,1.99-0.51,3.14c-1.92,2.23-7.72,7.38-10.35,9.38"/><path d="M59.38,54.84C65,55.25,76.25,75.75,86.35,83.43c4.39,3.33,6.38,4.45,8.72,5.12"/></svg>