<svg><path d="M36.31,15c0.06,0.63,0.27,1.85-0.12,2.53C31.2,26.23,26.13,32.39,14,41.79"/><path d="M18,21c28.75,24,15.75,81.5,5,69.5"/><path d="M29.83,43c0.05,0.66,0.22,1.94-0.1,2.65c-4.1,9.1-8.27,15.54-18.23,25.39"/><path d="M61.25,12.75c1.17,0.59,1.87,1.47,2.1,2.64c0.23,1.17,0.23,6.86,0.23,9.8"/><path d="M49.32,27.81c2.3-0.11,27.14-3.69,29.23-3.82c1.74-0.11,2.75,1.25,2.73,1.93c-0.12,4.83-3.04,19.83-4.01,24.63"/><path d="M49.98,40.44c5.77-0.54,23.04-2.67,28.59-3.1"/><path d="M49.59,53.42c7.91-0.87,21.29-2.12,29.88-2.95"/><path d="M47.01,25.73c1.31,0.53,2.09,2.39,2.35,3.45c0.26,1.06,0.26,57.87,0.26,60.52c0,3.05-0.18,5.34,2.99,3.23C57.75,89.5,58.75,89,67,84"/><path d="M86.17,52.05c0.33,1.43,0.53,2-0.57,3.15c-2.14,2.23-8.59,7.4-11.52,9.41"/><path d="M57.88,54.23c5.78,3.93,21.02,22.28,29.8,28.97c4.68,3.57,7.06,4.51,9.63,5.19"/></svg>