<svg><path d="M36.55,15.75c0.06,0.57,0.3,1.66-0.13,2.27c-5.44,7.81-10.96,13.33-24.17,21.77"/><path d="M16.5,19.5c27,22,18.75,85,5.5,69"/><path d="M28.34,44c0.05,0.64,0.21,1.87-0.1,2.56c-3.94,8.78-7.93,14.99-17.49,24.48"/><path d="M46.54,21.5c0.31,0.57,0.82,0.96,0.99,1.67c1.42,5.88,2.75,22.23,3.63,33.19"/><path d="M48.01,22.29c10.98-1.48,31.79-2.49,39.99-3.73c3.01-0.46,4.55,1.16,4.4,2.77c-0.57,5.93-2.97,22.07-4.34,31.97"/><path d="M49.55,37.49c3.58-0.58,37.49-2.32,40.44-2.56"/><path d="M51.22,53.27c7.9-0.63,24.91-1.77,35.82-2.8"/><path d="M67.83,22.13c1.17,1.12,1.57,3.35,1.6,4.36c0.39,12.89,0.16,57.85,0.16,62.51"/><path d="M49.72,70.67c0.8,0.38,2.27,0.42,3.08,0.38c8.36-0.44,23.26-2.3,33.61-2.38c1.34-0.01,2.14,0.18,2.81,0.37"/><path d="M40.38,90.23c1.3,0.54,3.68,0.63,4.98,0.54c13.52-0.91,33.62-2.77,49.72-2.73c2.17,0,3.46,0.26,4.55,0.53"/></svg>