<svg><path d="M38.55,17.25c0.07,0.57,0.3,1.68-0.13,2.3c-5.44,7.89-10.96,13.46-24.17,21.99"/><path d="M17.5,19.25c32.75,26.5,19.46,85.03,7.75,72"/><path d="M32.33,45.5c0.05,0.65,0.22,1.9-0.1,2.61c-4.1,8.94-8.27,15.27-18.23,24.94"/><path d="M53.46,16.23c0.37,0.31,0.75,0.57,0.92,0.95c1.29,3.06,2.84,12.52,3.72,18.02"/><path d="M55.28,18.29c9.12-1.29,25.33-2.97,30.03-3.41c1.72-0.16,2.75,1.6,2.51,2.53c-1.02,3.86-2.18,7.19-4.37,12.75"/><path d="M57.97,33.19c5.52-0.49,19.05-1.69,27.8-2.05"/><path d="M54.3,42.03c0.64,0.81,1.06,1.62,1.28,2.43s0.3,47.86,0.21,49.68"/><path d="M56.85,43.84c2.55-0.2,26.47-2.62,28.37-2.85c3.4-0.4,4.25,2.56,4.25,3.85c0,2.91-0.11,24.36-0.11,40.76c0,10.52-5.1,4.64-7.23,2.82"/><path d="M56.35,56.92c10.33-1.17,25-2.04,32.66-2.64"/><path d="M55.91,71.41c6.8-0.61,24.83-1.93,32.69-2.33"/></svg>