<svg><path d="M38.04,16.25c0.07,0.61,0.32,1.8-0.14,2.46C32.08,27.17,26.16,33.15,12,42.29"/><path d="M18,19.25c28.25,22.94,17.46,83.01,5.75,70.29"/><path d="M31.33,43.5c0.05,0.67,0.23,1.96-0.1,2.68c-4.16,9.19-8.38,15.68-18.48,25.62"/><path d="M63.6,15.96c0.04,0.22-0.63,1.64-0.9,1.87c-3.54,3.06-6.32,6.5-14.89,10.47"/><path d="M46.11,27.51c0.67,0.57,0.94,1.85,1.1,3.02c0.6,4.28,2.06,20.06,2.67,25.85"/><path d="M49.01,39.76c3.92-0.7,10.81-1.86,11.75-1.86s2.24,0,2.99,0"/><path d="M71.94,23.95c0.79,0.13,1.42,0.39,2.51,0.39c1.1,0,11.83-2.56,13.09-2.69s2.77,0.85,2.6,2.33c-0.96,8.18-2.98,29.6-3.14,30.12"/><path d="M71.62,37.06c0.79,0.13,1.42,0.39,2.52,0.39c1.1,0,12.9-1.54,14.16-1.67"/><path d="M50.04,53.72c3.93-0.26,34.87-2.14,37.23-2.27"/><path d="M59.66,58c0.05,0.83,0.07,2.15-0.1,3.35c-1.25,8.77-5.26,24.26-17.14,32.04"/><path d="M71.26,56.14c0.59,1.07,1.06,2.33,1.1,3.97c0.16,7.35-0.02,17.82-0.02,22.82c0,8.82,2.17,10.35,12.19,10.35c10.23,0,12.12-2.04,12.12-8.19"/></svg>