<svg><path d="M38.04,14.25c0.07,0.64,0.32,1.89-0.14,2.58C32.08,25.69,26.16,31.96,12,41.54"/><path d="M16.5,16.25c30.5,23,18.46,85.03,6.75,72"/><path d="M30.33,43.5c0.05,0.66,0.22,1.94-0.1,2.65C26.13,55.26,21.96,61.7,12,71.54"/><path d="M50.62,21.85c0.99,0.34,2.8,0.41,3.79,0.34c7.12-0.49,25.25-2.02,31.39-2.55c1.64-0.14,2.32-0.08,3.19-0.02"/><path d="M66.62,12.38c1.13,0.37,2.13,1.62,2.15,3.68c0.04,5.93,0.37,20.08,0.45,27.41"/><path d="M49.96,34.32c0.99,0.25,2.8,0.3,3.79,0.25c7.13-0.36,25.61-2.64,31.75-3.03c1.64-0.1,2.85-0.06,3.72-0.02"/><path d="M41.88,45.64c2.12,0.61,4.37,0.91,5.91,0.77c12.52-1.16,30.03-2.41,43.32-3.68c2.54-0.24,6.29,0.27,8.14,0.93"/><path d="M54.56,54.28c0.66,0.55,1.09,2.1,1.31,2.65c0.22,0.55,0.12,24.58,0.12,40.32"/><path d="M55.79,55.83c4.96-0.58,24.33-3.11,26.29-3.11c2.3,0,3.91,0.78,3.91,2.61c0,4.18-0.09,25.24-0.19,36.35c-0.09,9.82-4.42,3.82-6.3,1.73"/><path d="M69.69,56.36c1.03,0.39,0.92,1.67,0.92,2.64c-0.03,4.89-0.12,11.21-0.12,13.5"/><path d="M56.91,74.24c8.94-0.74,20.06-2.24,29.16-2.42"/></svg>