<svg><path d="M38.54,15.25c0.07,0.53,0.32,1.56-0.14,2.13c-5.88,7.32-11.86,12.49-26.15,20.41"/><path d="M16.5,15.25c28.25,23.5,18.75,89.75,5.75,74.5"/><path d="M29.83,43.5c0.05,0.68,0.22,2.01-0.1,2.75c-3.99,9.43-8.05,16.1-17.74,26.3"/><path d="M43.27,23.59c1.6,0.2,3.39,0.11,4.44,0.06C55,23.25,75,22,83.1,21.46c1.31-0.09,3.68,0.46,5.16,0.46"/><path d="M64.12,12c0.3,0.44,0.46,0.95,0.45,1.89C64.25,26.93,57.5,40.75,45.5,44"/><path d="M66,27.5c6.59,3.16,14.22,8.28,18.25,13"/><path d="M39.63,49.27c1.59,0.84,4.52,1.04,6.11,0.84c9.5-1.2,34.62-2.89,47.81-4c2.65-0.22,4.25,0.4,5.58,0.83"/><path d="M47.95,59.99c0.27,0.29,0.55,0.54,0.67,0.9c0.95,2.91,2.58,10.92,3.23,16.14"/><path d="M49.65,60.96c5.6-0.96,15.89-2.69,19.1-3.07c1.17-0.14,2.37,1.83,2.21,2.65c-0.69,3.39-2,7-3.03,11.69"/><path d="M51.98,74.98c3.76-0.43,12.95-1.68,18.11-2.34"/><path d="M82.21,48.47c0.77,1.05,1.66,1.78,1.74,5.2c0.4,16.42-0.25,32.95-0.25,38.54c0,9.59-7.14,1.69-8.63,0.28"/></svg>