<svg><path d="M37.8,18c0.13,1.07-0.47,2-1.11,2.78c-5.06,6.17-12.53,12.82-22.94,19.52"/><path d="M17.5,17.75c31,21.75,17.71,84.03,6,71"/><path d="M31.09,46c0.09,1.25,0.06,2.16-0.47,3.3c-3.67,7.99-7.77,13.4-16.62,22.24"/><path d="M50.84,18.15c2.06,1.05,4.96,1.11,7.21,0.74c5.21-0.87,15.83-2.85,19.24-3.46c2.67-0.48,4.69,1,2.26,3.2C76.5,21.38,73.68,23.97,66.25,30"/><path d="M62.78,29.51c7.35,4.24,8.82,17.99,7.13,25.77c-1.14,5.23-4.03,7.62-8.32,2"/><path d="M42.05,42.25c3.2,0.75,6.45,0.73,10.08,0.01c9-1.76,25.66-3.65,34.24-4.07c2.56-0.12,5.63,0.05,8.14,0.84"/><path d="M47.62,67.75c0.82,0.82,1.19,2.11,1.3,2.97c0.87,6.82,1.08,11.16,1.68,18.2"/><path d="M49.33,69.64c8.09-1.23,28.59-3.56,36.04-4.03c3.41-0.22,4.91,0.33,4.24,4.06c-0.79,4.42-2.55,11.78-3.76,17.02"/><path d="M60.38,70.52c0.74,0.74,0.93,1.64,1.01,2.46c0.48,4.9,0.79,9.16,1.3,14.87"/><path d="M74.07,69c0.4,0.78,0.52,1.86,0.46,2.86c-0.28,4.89-0.78,9.76-1.27,15.45"/><path d="M39.89,89.87c3.86,0.88,6.79,0.56,9.74,0.3c12-1.05,25.53-1.85,40.88-2.46c2.82-0.11,5.12,0.04,7.86,0.72"/></svg>