<svg><path d="M36.06,15.5c-0.06,1.12-0.21,1.99-0.63,2.72c-5.27,9.35-11.55,16.65-23.18,25.57"/><path d="M16.25,19.75C46.75,39.38,33.71,104.03,22,91"/><path d="M29.84,47.25c0.07,0.88-0.06,1.89-0.49,2.67C26,56,20.25,64.12,12,72.29"/><path d="M45.17,17.06c3.7,3.82,7.53,11.92,8.05,14.09"/><path d="M60.37,14.39c2.25,2.98,5.04,9.77,5.69,14.16"/><path d="M84.12,13.38c0.26,1.24-0.06,2.09-0.74,3.59c-1.5,3.28-5.5,9.9-8.82,14.14"/><path d="M47.05,38.3c0.83,0.83,1.13,2.08,1.19,3.5c1.25,25.83-2.37,40.96-11.5,52.33"/><path d="M49.16,40.42c0.94-0.2,2.07-0.45,3.35-0.66c9.62-1.52,22.37-3.52,26.76-3.92c2.38-0.22,3.81,1.19,3.51,3.72c-2.52,20.93-0.65,40.93,9.01,51.46c7.38,8.04,5.96,2.22,5.21-4.28"/><path d="M49.75,54.36c8.6-0.84,20.62-2.48,30.6-2.89"/><path d="M48.38,69.18c6.17-0.72,25.61-2.2,32.75-2.68"/><path d="M63.53,40.98c1.06,1.06,1.12,2.15,1.12,3.51c0,0.75,0.06,34.23,0.06,40.73c0,3.61-0.06,6.35-0.09,7.54"/></svg>