<svg><path d="M36.05,19.5c0.07,0.61-0.17,1.57-0.63,2.21C30,29.25,23.75,36.25,11.25,45.29"/><path d="M19,19.25c28.25,23.5,17.71,84.53,6,71.5"/><path d="M31.33,46.75c0.05,0.63-0.01,1.58-0.36,2.26c-4.44,8.62-8.69,14.71-19.47,24.03"/><path d="M42.25,32.18c2.75,0.45,4.5,0.33,6.63,0.07c12.24-1.5,29.24-3.12,40.87-3.86c2.16-0.14,4.37-0.17,6.49,0.26"/><path d="M55.26,17.76c0.99,0.99,1.55,2.3,1.67,3.39C58.1,31.32,59.11,41.3,59.44,45"/><path d="M79.98,16.5c0.65,1,0.77,1.88,0.58,3.07c-1.66,10.51-2.17,14.72-4.17,24.58"/><path d="M47.32,52.24c0.97,0.97,1.36,2.43,1.5,3.5c1.06,8.64,2.3,20.37,3.03,31.5c0.13,1.92,0.24,3.8,0.35,5.59"/><path d="M49.78,54.28c12.83-1.32,25.34-2.9,36.47-3.46c3.89-0.19,6.42,0.53,6.01,4.81c-0.62,6.5-2.2,19.8-3.89,30.68c-0.35,2.25-0.7,4.4-1.05,6.36"/><path d="M67.8,53.84c0.87,0.87,1.08,2.01,1.08,3.16c0,8-0.01,25.49-0.01,31.62"/><path d="M51.47,70.33c5.4-0.58,35.24-2.33,38.19-2.39"/><path d="M53.28,90.49c9.97-0.62,22.66-1,33.57-1.4"/></svg>