<svg><path d="M37.54,16.75c0.07,0.6,0.32,1.75-0.14,2.39c-5.83,8.21-11.75,14.02-25.9,22.9"/><path d="M15,18.75c30.25,23,22.25,84.75,8.75,70.5"/><path d="M29.33,44.5c0.05,0.65,0.22,1.9-0.1,2.61c-3.99,8.94-8.05,15.27-17.74,24.94"/><path d="M52.19,14.21c0.63,0.56,1.18,1.79,1.26,2.52c0.41,3.78,2.21,22.7,2.21,23.07"/><path d="M53.55,15.73c2.06-0.09,25.7-2.14,27.58-2.24c1.56-0.09,2.62,0.76,2.45,2.54c-0.38,4.03-1.72,12.47-2.63,21.94"/><path d="M66.17,24.43c0.36,0.54,0.68,1.75,0.73,2.48c0.24,3.24,0.54,11.71,0.54,12.07"/><path d="M67.5,24.95c2.06-0.09,12.73-1.06,14.6-1.3"/><path d="M44.73,39.44c0,3.73-2.24,13.52-3.02,16.01"/><path d="M45.36,40.78C55,40,86.27,37.67,91.8,37.31c8.64-0.55,1.33,6.68-0.82,8.65"/><path d="M55.08,50.62c0.5,0.7,0.84,1.4,1.01,2.1s0.24,43.01,0.17,44.58"/><path d="M57.09,51.32c2.02-0.17,19.51-2.65,21.01-2.85c2.69-0.35,3.7,2.27,3.36,3.32c-0.32,1.01-0.5,25.37-0.5,39.54c0,9.09-6.03,2.65-7.71,1.07"/><path d="M57.09,63.31c8.91-0.81,17.6-1.64,23.65-2.17"/><path d="M56.68,75.17c5.38-0.53,17.51-1.12,23.73-1.47"/></svg>