<svg><path d="M 23.447083,18.27625 c 0.04,0.33 0.07,0.85 -0.08,1.32 C 21.662292,22.840417 15.6575,29.992292 9.89,34.99125"/><path d="M 32.850625,15.133333 c 0.84,0.14 1.63,0.33 2.17,0.7 4.21875,5.133125 11.264167,11.561875 15.119375,15.177917 2,0.93 2.72,1.42 4.67,1.72"/><path d="M 17.6,33.85125 c0.74,0.3,3.04,0.38,3.78,0.3c4.96-0.53,13.53-2.27,19.69-3.1c1.22-0.16,2.6,0.15,3.22,0.3"/><path d="M15.66,48.89c0.46,0.62,0.63,2.1,0.63,2.93c0,0.82-0.3,44.29-0.3,44.7"/><path d="M17.06,51.05c2.6-0.1,28.48-4.28,30.85-4.4c1.97-0.1,3.38,0.99,3.38,3.32c0,1.3-0.27,35.59-0.27,44.63"/><path d="M27.18,35.24c0.76,1.08,0.51,2.56,0.52,4.04c0.09,14.54-0.5,26.59-7.71,32.99"/><path d="M36.05,34.34c0.53,1.07,0.95,2.33,0.98,3.98c0.1,5.24-0.23,15.3-0.28,21.78c-0.04,5.62,1.49,6.32,6.55,6.32c3.21,0,6.4-0.7,6.76-1.33"/><path d="M16.81,81.29c3.51,0,29.93-3.37,33.9-3.37"/><path d="M17,93.84c7.15-0.47,24.44-2.25,33.35-2.65"/><path d="M56.65,41.89c0.85,0.61,3.5,1.1,4.61,0.97c5.24-0.61,25.33-3.5,31.54-4.03c0.79-0.07,1.91-0.39,3.68,0.09"/><path d="M72.33,12.75c0.45,1.17,0.72,2.34,0.78,4.67c0.78,30.49-2.45,64.56-15.61,78.08"/><path d="M72.62,42c4.94,14.65,14.55,39.44,20.86,49.9c1.66,2.75,2.26,3.1,3.03,3.35"/><path d="M84.13,18.5c5.64,3.98,7.18,7.02,8.93,10.75"/></svg>