<svg><path d="M38.3,17.5c0.13,1.02-0.47,1.98-1.1,2.69c-4.83,5.56-10.87,11.33-23.7,18.85"/><path d="M19.25,17c28.25,23.5,17.71,83.28,6,70.25"/><path d="M31.08,45.75c0.1,1.09-0.15,1.86-0.7,2.82c-4.11,7.24-8.18,12.52-18.13,20.47"/><path d="M50.88,15.12c3.06,2.31,7.92,9.5,8.69,13.09"/><path d="M81.41,12.96c0.1,0.81,0.02,1.59-0.26,2.34c-1.08,3.67-3.17,8.48-6.88,13.93"/><path d="M42.84,33.93c1.84,0.83,4.98,0.64,6.93,0.48c10.14-0.84,30.88-3.21,40.73-4.11c1.92-0.17,4.02-0.54,5.91-0.02"/><path d="M48.71,48.89c0.89,0.89,0.99,1.86,0.99,3.43c0,0.62-0.05,22.93-0.05,35.18c0,3.84-0.02,6.65-0.02,6.75"/><path d="M50.59,50.8c6.16-0.55,32.94-3.53,35.7-3.65c2.3-0.1,3.93,1.24,3.93,3.57c0,1.07-0.04,23.16-0.04,35.53c0,2.81-0.03,5.2-0.02,6.85"/><path d="M61.92,35.74c0.92,0.96,1.11,2.53,1.12,3.86c0.11,12.97-0.91,23.53-9.59,29.92"/><path d="M72.87,34.59c0.89,0.89,1.09,2.08,1.09,3.73c0,3.42-0.01,12.05-0.06,18.53c-0.04,5.62,1.4,6.57,6.97,6.57c3.54,0,7.31-0.7,7.71-1.33"/><path d="M51.06,77.54c5.82-0.54,33.38-2.62,38.01-2.62"/><path d="M50.78,91.59c9.6-0.84,27.99-2.25,38.37-2.65"/></svg>