<svg><path d="M36.31,17.5c0.06,0.64,0.27,1.87-0.12,2.56C31.2,28.84,26.13,35.05,14,44.54"/><path d="M19,21c23.5,19.75,18.25,80.5,7.5,68.5"/><path d="M31.33,47.5c0.05,0.57,0.22,1.66-0.1,2.27c-4.05,7.81-8.16,13.33-17.99,21.77"/><path d="M45.46,19.42c0.22,0.31,0.45,0.56,0.55,0.95c0.77,3.06,3.22,11.02,3.74,16.51"/><path d="M46.78,20.03C54.75,19,81.75,16,85.51,16.23c0.96,0.06,3.24,1.53,2.98,3.25c-0.53,3.58-2.24,10.27-4.19,14.87"/><path d="M59.79,20.32c0.04,0.54,0.62,1.6,0.72,2.91c0.26,3.6,0.64,8.14,0.54,10.34"/><path d="M72.51,19.55c0.3,0.36,0.55,1.25,0.55,2.44c0,5.25-0.39,8.52-0.62,10.05"/><path d="M50.45,35.22c3.05-0.45,30.01-3.27,34.2-3.97"/><path d="M58.04,38.08c0.04,0.4,0.08,1.03-0.08,1.61c-0.98,3.39-6.59,10.83-14.27,15.39"/><path d="M57.7,44.46c0.99,0.62,2.34,0.68,3.94,0.41c5.75-0.96,21.63-3.34,25.57-3.54c3.94-0.21,5.03,1.02,4.64,5.35C90.75,59,89.5,76.5,82.88,92.93c-1.68,4.17-3.98,1.54-6.3-1.03"/><path d="M48.25,59.02c0.47,0.32,1.07,1.52,1.16,1.94c0.64,3.06,1.71,7.57,2.61,13.36"/><path d="M50.17,60.17c7.18-0.61,18.06-2.65,23.23-3.28c1.36-0.16,2.96,1.35,2.71,2.27c-0.86,3.14-1.36,6.83-2.41,12"/><path d="M52.28,72.12c5.78-0.62,13.09-2.02,21.17-2.6"/><path d="M60.55,51.07c0.71,0.96,1.21,2.98,1.21,3.93c0,4.7,0,22.62-0.23,28.34"/><path d="M46.35,86.3c0.7,0.67,2.11,1.01,2.81,0.84c0.69-0.17,23.05-6.91,27.35-8.25"/><path d="M69.84,74.69c2.92,1.62,7.55,6.68,8.28,9.2"/></svg>