<svg><path d="M14.25,19.67c0.23,0.26,0.48,0.48,0.58,0.81c0.81,2.61,1.79,9.82,2.35,14.51"/><path d="M15.71,20.95c5.54-1.45,10.66-2.37,13.41-2.71c1.01-0.12,1.61,0.74,1.47,1.48c-0.6,3.05-1.29,6.74-2.18,10.96"/><path d="M17.29,32.71c3.23-0.39,7.69-1.06,12.13-1.66"/><path d="M35.5,17.86c0.24,0.25,0.49,0.46,0.6,0.78c0.84,2.5,1.84,9.38,2.42,13.86"/><path d="M37.01,19.55c4.95-1.3,11.48-2.24,14.32-2.57c1.04-0.12,1.66,0.71,1.51,1.42c-0.61,2.92-1.83,5.94-2.74,9.97"/><path d="M38.63,30.31c3.33-0.37,7.92-1.01,12.5-1.58"/><path d="M16.44,40.1c0.24,0.33,0.75,1.56,0.89,1.97c1.11,3.41,2.65,13.02,3.33,19.38"/><path d="M18.08,41.56c8.58-0.86,23.28-2.82,29.68-3.54c2.35-0.27,3.56,1.17,3.44,2.11c-0.44,3.44-1.54,12.8-2.61,18.55"/><path d="M33.53,40.63c0.97,0.62,1.1,1.78,1.12,2.86c0.13,4.87,0.03,11.79,0.03,14.21"/><path d="M19.68,50.38c2.79-0.33,27.33-2.8,29.64-2.93"/><path d="M20.6,59.53c6.17-0.37,19.46-1.89,27.99-2.49"/><path d="M13.25,68.39c0.94,0.38,2.66,0.49,3.6,0.38c5.98-0.66,30.82-3.33,36.61-2.88c1.56,0.12,2.5,0.18,3.29,0.37"/><path d="M19.75,76.27c0.42,0.33,0.85,0.6,1.04,1.01C22.25,80.51,24,89.44,25,95.25"/><path d="M21.88,78.96c8.62-1.69,20.62-3.05,25.56-3.48c1.8-0.16,2.89,0.92,2.63,1.83c-1.07,3.78-2.32,7.35-3.91,12.57"/><path d="M25.2,92.41C31,91.93,40,91.1,47.96,90.36"/><path d="M57.31,43.46c0.57,0.25,2.51,0.56,3.61,0.41c5.75-0.76,22.15-3.28,29.08-3.81c0.79-0.06,1.92,0.1,3.68,0.53"/><path d="M70.19,15.75c0.55,1.08,0.88,2.16,0.95,4.32C72.11,48.25,68.14,79.75,52,92.25"/><path d="M70.85,45c5.65,16.5,12.9,35.25,21.09,45.21c1.9,2.32,2.29,2.8,3.06,3.04"/><path d="M79.43,18.25c6.43,4.63,8.2,8.16,10.19,12.5"/></svg>