<svg><path d="M52.11,13c1.51,1.51,1.98,3.25,1.98,5.16c0,4.45-0.09,8.02-0.09,12.34"/><path d="M15,33.86c3.27,0.24,6.08,0.54,9.37,0.22c13.33-1.3,44.68-3.68,60.99-4.66c3.07-0.18,6.26,0.08,9.14,0.74"/><path d="M51.59,35.12c0.37,1.31,0.35,2.62-0.43,3.97C47.75,45,42.88,51.12,37.51,56.92c-1.07,1.15-0.88,2.96,0.5,3.29c3.95,0.94,12.2,5.14,15.49,7.55"/><path d="M69.46,48.87c0.54,1.38,0.42,3.26-0.75,4.75C59.72,65.08,46.5,76,31.96,89.87c-1.67,1.59-1.03,3.1,1,2.75c12.29-2.12,29.04-4.87,42-7.25"/><path d="M68.71,75.12c4.15,3.66,10.71,15.05,11.75,20.75"/></svg>