<svg><path d="M11.27,21.73c0.61,0.4,3.93,0.45,4.55,0.37c4.71-0.55,13.81-1.85,20.56-3.19c1.33-0.26,3.87-0.54,5.67-0.15"/><path d="M25.79,23.71c0.94,0.94,1.12,2.29,1.12,3.81c0,6.51-0.04,40.86-0.04,47.73"/><path d="M11.9,48.1c2.1,0.53,4.71,0.27,6.24,0.06c5.61-0.78,13.45-2.47,17.32-3.33c0.63-0.14,2.42-0.45,3.92-0.32"/><path d="M11.12,82.1c0.88,1.15,2.38,1.52,4.08,0.64c5.76-2.98,11.8-6.62,21.95-12.33"/><path d="M60,15c0.07,0.91,0.3,2.4-0.13,3.67c-2.49,7.21-8.61,23.46-21.36,34.83"/><path d="M60.25,24.38c1.75,0.37,2.78,0.47,4.75,0.1c4.5-0.86,8.88-2.11,11.94-2.99c2.47-0.71,3.36,0.85,2.56,3.01c-7.62,20.75-21.25,51.12-49.5,69"/><path d="M67.5,53.25C70.88,60,79.88,74.38,87.38,84.63c2.12,2.89,5.08,5.8,7.87,8.12"/></svg>