<svg><path d="M12,22.75c1.75,0.62,4.63,0.53,6.01,0.29c4.49-0.79,11.74-1.76,17.12-2.36c1.78-0.26,3.57-0.32,5.37-0.17"/><path d="M26.82,24.52c1.08,1.08,1.23,2.11,1.23,3.48c0,5.95,0.1,37.62,0.1,42.32"/><path d="M12.75,46.25c1.25,0.38,3.39,0.59,5.01,0.37c6.36-0.87,12.99-2.37,17.48-2.94c0.69-0.09,3.22-0.66,4.25-0.31"/><path d="M12,78.25c1.5,1,2.78,0.8,4.25,0c7.12-3.88,15.5-9.12,23.5-13.88"/><path d="M50.59,21.11c2.34,0.36,4.71,0.4,7.05,0.05c7.73-1.16,12.98-2.16,22.85-3c2.19-0.19,4.33-0.34,6.48,0.07"/><path d="M45.13,44.56c3.55,0.66,7.1,0.37,10.64-0.37c10.13-1.78,20.23-2.93,30.6-3.77c2.97-0.24,5.93-0.19,8.88,0.31"/><path d="M59.36,46.94c0.64,1.31,0.56,2.78,0.3,4.33c-3.53,21.35-9.53,35.35-22.91,41.47"/><path d="M73.31,44.87c1.1,1.1,1.25,2.38,1.25,4.41c0,7.3-0.22,22.68-0.22,31.23c0,9.87,1.9,11.86,10.52,11.86C96.25,92.37,96,90.75,96,80.68"/></svg>