<svg><path d="M9.65,28.33c1.53,0.84,5.07,0.34,6.71,0.11c4.56-0.63,10.35-1.83,15.79-2.75c1.41-0.24,3.32-0.74,4.74-0.23"/><path d="M22.42,30.71c1.06,1.06,1.31,2.04,1.31,3.38c0,4.92,0.04,35.9-0.11,39.17"/><path d="M10.16,51.37c0.49,0.33,3.93,0.35,4.43,0.31C19,51.25,27.5,49.62,32.44,48.7c0.6-0.11,1.93-0.32,3.25-0.09"/><path d="M10.77,78.95c1.03,0.83,2.01,1.11,3.51,0.33c5.6-2.9,10.93-6,18-9.92"/><path d="M62.64,12.75c0.08,0.95,0.13,2.52-0.4,3.83C58.5,25.88,50.38,41.12,39,52.35"/><path d="M62.92,17.79c8.4,8.61,15.21,17.33,24.47,26.71c2.09,2.12,5.1,4.24,7.37,5.63"/><path d="M58.45,41.08c3.8,2.54,8.93,8.04,10.24,11.88"/><path d="M43.94,62.62c2.93,1.25,5.13,0.98,7.58,0.58c7.95-1.27,28.13-4.63,30.26-5c2.54-0.44,3.72,1.07,1.85,3.38C78.12,68.38,70.25,78,65.96,82.33"/><path d="M53.25,75.9c7.87,5.85,16.25,12.6,18.67,19.6"/></svg>