<svg><path d="M11,26.5c2.38,0.5,5.64,0.27,7.11,0.1c5.27-0.6,10.28-1.16,15.01-1.66c1.87-0.27,3.75-0.34,5.63-0.19"/><path d="M24.57,29.02c1.02,1.02,1.23,2.11,1.23,3.23c0,5.95,0.1,37.5,0.1,42.57"/><path d="M11.25,50.89c1.93,1.12,5.55,0.38,7.49,0.03C22.81,50.2,29,49,32.73,48.24c1.56-0.32,3.17-0.55,4.77-0.48"/><path d="M11,81.75c1.25,0.88,2.62,0.75,4,0c5.2-2.84,10.88-6,20-11"/><path d="M45.4,19.59c0.94,0.94,1.29,2.53,1.29,4.42c0,3.54,0.01,38.37,0.01,57.48c0,5.06,0,9.01,0,11"/><path d="M47.4,21.95c4.75-0.8,28.89-3.7,37.25-4.8c4.05-0.53,6.52-0.28,6.52,4.35c0,11.25-0.04,59.29-0.04,64c0,8.7-2.88,5.75-6.33,2.53"/><path d="M59.81,22.14c0.84,0.84,0.99,1.99,0.99,3.19c0,0.77-0.03,33.85-0.05,51.92c0,5.21-0.01,9.17-0.01,10.75"/><path d="M73.25,20.67c1.04,1.04,0.99,2.19,0.99,3.19c0,2.63,0.05,34.79,0.07,52.39c0.01,5.1,0.01,8.98,0.01,10.56"/><path d="M38,54.45c3.39,0.47,6.76,0.39,10.12-0.25c9.38-1.43,27.31-3.92,39.49-5.09c3.62-0.56,7.25-0.63,10.89-0.21"/></svg>