<svg><path d="M11,28.42c1.5,0.45,3.77,0.39,5.13,0.28c4.36-0.34,14.28-1.67,20.25-2.24c1.22-0.12,2.99-0.34,4.12-0.04"/><path d="M25.32,30.44c1,1,1.23,2.06,1.23,3.48c0,5.95-0.05,36.21-0.05,41.45"/><path d="M12.25,52.42c1.38,0.58,3.2,0.53,4.26,0.37c4.49-0.67,13.74-2.62,18.23-3.19c0.69-0.09,1.75-0.35,3-0.06"/><path d="M12.25,81.02c1.12,1.1,1.86,1.21,3.5,0.4c8-3.92,12.62-6.17,21-10.25"/><path d="M61.03,14.25c0.05,0.73,0.05,1.96-0.36,2.96C57.4,25.08,52,34.88,41.05,45.5"/><path d="M61.59,17.92c3.63,3.96,17.64,15.41,24.93,21.09c2.57,2,5.05,3.67,7.97,5.09"/><path d="M67.89,38.9c0.06,0.45-0.21,1.77-0.62,2.3C64,45.5,57.12,51.62,47.72,57.03"/><path d="M73.59,55.99c0.08,0.51-0.16,1.43-0.65,2.04c-4.47,5.5-10.81,11.1-26.01,18.78"/><path d="M82.68,70.96c0.12,0.62-0.04,1.72-0.73,2.46C76.23,79.62,63.38,91,41.47,96.97"/></svg>