<svg><path d="M10.65,28.02c1.98,0.48,4.11,0.32,5.48,0.17c3.89-0.42,10.69-1.58,16.27-2.58c1.18-0.21,2.74-0.62,3.9-0.13"/><path d="M22.59,30.08c0.92,0.92,1.38,1.92,1.38,3.15c0,5.39-0.1,28.38-0.1,39.02"/><path d="M10.98,50.35c1.23,0.87,4.32,0.29,5.62,0.1c4.63-0.68,9.85-1.59,14.54-2.62c1.22-0.27,2.48-0.46,3.86-0.28"/><path d="M11.5,77.65c0.88,0.6,1.93,0.97,3.51,0.11C21,74.5,26.12,71.62,34.34,66.84"/><path d="M50.53,22.49c0.05,0.96,0.07,1.88-0.26,2.8c-2.02,5.58-4.39,11.83-9.89,18.96"/><path d="M50.51,33.8c1.36,0.08,3.1-0.04,4.48-0.2c5.96-0.69,15.54-3.01,22.39-3.99c1.56-0.22,3.37-0.23,4.9,0.13"/><path d="M40.18,52.22c2.56,0.62,5,0.36,7.58,0.13c8.21-0.74,23.87-2.4,33.99-3.21c2.66-0.21,5.16-0.37,7.81,0.01"/><path d="M62.43,12c1.16,1.16,1.4,2.62,1.4,3.98c0,0.73-0.03,54.37-0.04,74.27c0,4.12,0,6.8,0,7.25"/><path d="M61.54,52.26c0,1.49-0.69,3.34-1.4,4.57C53.95,67.48,41.95,79.97,32.1,85.58"/><path d="M65.53,52.53c5.21,5.64,15.44,17.21,21.96,23.48c1.69,1.62,3.76,3.49,6.16,4.81"/></svg>