<svg><path d="M14.27,27.36c1.73,0.39,4.47,0.15,5.76,0c4.17-0.5,10.77-1.61,15.63-2.28c1.81-0.25,3.5-0.41,5.34-0.18"/><path d="M27.06,29.8c1,1,1.31,2.61,1.31,4.17c0,11.15-0.02,32.52-0.02,42.71"/><path d="M14.32,52.05c1.68,0.45,3.76,0.28,4.83,0.07c4.56-0.86,11.26-2,16.28-2.94c0.73-0.14,2.36-0.4,3.46-0.08"/><path d="M14.66,81.11c0.97,1.02,2.34,1.14,4.09,0.39c8.09-3.47,12-5.5,22.36-9.66"/><path d="M46.02,35.33c0.98,0.92,1.76,1.99,1.76,5.02c0,8.6-0.01,14.48-0.02,18.9c0,2.46-0.01,4.47-0.01,6.25"/><path d="M56.85,14.5c0.82,0.82,1.54,2.12,1.54,4.39C58.39,43.87,60,78,42.06,94.72"/><path d="M67.85,23.19c1.65,0.44,3.27,0.69,4.88,0.48c5.5-0.71,12.33-1.87,17.38-2.58c1.19-0.17,2.63-0.21,3.87,0.1"/><path d="M78.92,25.37c1.23,1.23,1.68,2.86,1.68,4.54c0,11.75-0.02,33.95-0.02,52.79"/><path d="M68.19,51.54c1.81,0.46,3.99,0.6,5.32,0.44c5.36-0.66,9.25-1.45,16.26-2.24c0.79-0.09,2.1-0.24,3.71-0.01"/><path d="M61.56,84.6c1.48,0.47,4.37,0.28,5.94,0.16c6.41-0.49,15.85-1.79,25.26-2.12c1.57-0.06,3.98,0.04,5.44,0.57"/></svg>