<svg><path d="M11.6,23.25c0.67,0.37,4.31,0.45,4.99,0.34c3.16-0.5,15.98-2.09,23.56-2.64c1.03-0.07,2.95-0.26,3.8,0.04"/><path d="M27.05,25.52c0.93,0.88,1.58,2.78,1.58,3.48c0,5.95,0.05,44.62-0.13,48.57"/><path d="M12.52,50.5c0.59,0.4,4.75,0.46,5.36,0.37c3.47-0.53,15.28-2.12,20.08-2.69c0.74-0.09,3.44-0.16,4.54,0.19"/><path d="M11.75,83.25c1.25,1,3.36,1.43,4.24,1c5.61-2.75,16.62-8.75,25.17-13.5"/><path d="M49.19,21.13c1.26,0.33,3.57,0.39,4.83,0.33c13.86-0.69,21.23-3.13,38.32-3.51c2.1-0.05,3.36,0.16,4.41,0.32"/><path d="M57.18,23.82c0.82,1.18,1.28,2.33,1.28,3.72c0,1.39-0.16,41.8-0.16,46.79"/><path d="M58.55,38.73c9.2-1.73,17.7-1.98,25.83-2.83"/><path d="M58.74,54.2c7.51-1.2,17.01-1.7,26.17-2.55"/><path d="M47.5,76.1c0.31,0.83,2.72,1.01,3.81,0.66c4.37-1.39,35.72-10.3,42.44-12.52"/><path d="M83.75,21.25c1,1.25,1.1,1.46,1.1,2.85s0.16,65.03,0.16,76.4"/></svg>