<svg><path d="M11.75,24.25c0.58,0.37,3.73,0.45,4.32,0.34c2.73-0.5,13.83-2.09,20.39-2.64c0.9-0.07,2.55-0.26,3.29,0.04"/><path d="M25.07,25.02c0.87,0.88,1.48,2.78,1.48,3.48c0,5.95,0.52,44.62,0.35,48.57"/><path d="M12.75,50.32c0.51,0.26,4.1,0.3,4.62,0.24c3-0.35,14.05-1.72,18.2-2.1c0.64-0.06,2.97-0.11,3.92,0.12"/><path d="M11.75,82.25c1.75,1,3.68,0.93,4.5,0.5C21.5,80,28,77,36,72.25"/><path d="M44,27.24c4.38,4.31,9.07,11.86,9.69,14.01"/><path d="M60.06,18.69c3.19,3.06,8.15,12.04,9.1,17.67"/><path d="M89.84,19.75c0.6,1.07,0.93,2.39-0.1,4.29C88,27.25,82.75,36.5,78.78,41.42"/><path d="M65.92,45.62c0.36,1.16,0.11,2.61-0.18,4.04c-1.39,7.04-6.32,17.61-11.25,25.41c-0.75,1.18-0.41,1.42,0.32,1.5C67.25,78,82.25,84,93,96.25"/><path d="M81.94,56.15c0.11,0.97,0.8,3.87,0.38,5.28c-3.45,11.41-13.4,27.58-38.05,36.08"/><path d="M41.21,63.31c1.02,0.39,2.89,0.44,3.91,0.39c8.63-0.45,25.36-2.61,47.04-4.03c1.7-0.11,4.63,0.37,6.01,1.05"/></svg>