<svg><path d="M15.25,25c1.36,0.89,4.16,0.74,5.71,0.52c3.76-0.52,11.34-1.92,16.56-2.47c1.24-0.13,3.23-0.31,4.48-0.06"/><path d="M28.32,28.02c1.02,1.02,1.23,1.98,1.23,3.73c0,5.95-0.05,37.68-0.05,43.88"/><path d="M16,51.12c1.31,0.77,4.05,0.33,5.5,0.1c3.64-0.58,11.5-2.07,15.76-2.83c1.5-0.27,2.49-0.53,3.99-0.11"/><path d="M14.25,82.25c1.2,1,2.47,1.27,4.52,0.25c6.51-3.25,11.55-6,20.98-11"/><path d="M65.25,13c1.06,1.06,1.3,1.88,1.3,3.37c0,3.06-0.05,8.97-0.05,11.26"/><path d="M43.69,30.78c3.19,0.59,5.86,0.2,9.09-0.24c8.55-1.18,22.81-3.4,31.85-4.15c2.62-0.22,5.34-0.52,7.93-0.01"/><path d="M63.69,32.25c0.31,1.25,0.06,2.34-0.8,3.4c-3.76,4.6-6.13,7.6-10.13,12.1c-2.39,2.69-1.92,3.38,1.5,2.5C63.81,47.79,68,46.5,80,43.5"/><path d="M75.16,35.6c3.81,2.76,9.85,11.33,10.8,15.62"/><path d="M51.53,61.89c0.85,0.85,0.9,1.86,0.9,3.52c0,15.38-4.56,24.34-13.37,30.8"/><path d="M64.02,56.62c0.75,0.75,1.26,1.88,1.26,4.02c0,3.71,0,16.12,0,24.61c0,3.21,0,5.85,0,7.25"/><path d="M78.6,55.37c1.08,1.08,1.12,2.38,1.12,4.43c0,8.19-0.03,19.14-0.03,24.7c0,9.62,1.03,10.28,9.67,10.28c6.51,0,7.39-0.9,7.39-8.62"/></svg>