<svg><path d="M11.25,26.22c1.5,0.4,3.81,0.35,5.14,0.22c4.15-0.39,11.88-1.81,17.41-2.25c0.82-0.07,2.33-0.23,3.01,0.04"/><path d="M24.2,28.48c0.85,0.85,1,1.77,1,3.08c0,5.27-0.08,33.96-0.08,41.43"/><path d="M12.22,51.62c1.66,0.51,3.98,0.63,5.3,0.4c4.06-0.7,11.26-1.99,15.55-2.96c0.57-0.13,1.68-0.43,2.84-0.08"/><path d="M11.11,81.07c1.1,1.15,2.39,1.05,3.74,0.15c4.9-3.25,11.02-7.47,19.77-13.59"/><path d="M43.58,23.28c2.54,0.72,5.09,0.36,7.31,0.04c7.93-1.15,22.41-3.46,32.22-4.09c2.49-0.16,5.39-0.1,7.49,0.59"/><path d="M65.1,24.24c0.13,1.12-0.56,2.29-1.15,3.19c-3.07,4.72-10.29,12.17-19.88,18.11"/><path d="M59.18,35.43c9.54,8.54,16.92,33.7,9.3,55.37c-3.08,8.74-7.02,1.06-7.93,0.06"/><path d="M61.59,42.29c0.14,1.23-0.06,2.28-0.56,3.41c-2.33,5.29-10.31,15.37-21.82,21.45"/><path d="M66.78,56.58c0.14,1.27,0.03,2.46-0.45,3.64c-2.54,6.24-12.92,18.09-27.2,25.76"/><path d="M86.89,34.98c-0.01,1.15-0.57,2.23-1.25,3.15c-2.39,3.24-5.42,6.82-13.14,12.62"/><path d="M69.84,51.29c3.03,3.36,13.11,17.89,19.73,25.01c2.05,2.2,4.05,4.45,7.1,6.13"/></svg>