<svg><path d="M19.36,17.27c1.49,0.38,3.71,0.6,5.21,0.57C28.25,17.75,39.5,16.5,44.16,16c0.99-0.11,1.98,0,2.98,0"/><path d="M32.51,19.28c0.99,1.22,1.48,2.58,1.48,3.76c0,1.17,0,17.78,0,20.37"/><path d="M21.09,31.15c1.24,0.19,3.22,0.38,4.71,0.19c1.49-0.19,17.37-2.4,17.37-2.4s1.98-0.19,2.73-0.19"/><path d="M17.62,46.12c1.13,1.63,3.09,2.02,4.72,1.39c5.17-2,14.92-4.75,22.33-7.81"/><path d="M57.51,15.93c0.99,0.07,2.85,0.61,3.41,0.52c2.59-0.41,18.39-2.18,24.65-2.5c0.85-0.04,1.62,0.06,2.33,0.31"/><path d="M70.83,17.39c1.12,1.39,1.12,2.23,1.12,3.35c0,7.81-0.01,6.55-0.01,19.06"/><path d="M57.61,28.09c0.6,0.33,2.6,0.16,3.22,0.15c7.92-0.23,14.01-1.75,21.58-2.34c0.76-0.06,2.42-0.13,3.54,0.16"/><path d="M54.84,41.71c0.42,0.23,2.58,0.09,3.29,0c8.37-0.97,23.62-2.22,31.22-2.67c1.13-0.07,2.49,0.38,3.06,0.74"/><path d="M29.25,67.88c5.98-0.37,12-1.69,17.21-2.32c1.53-0.18,2.5-0.18,3.29-0.07"/><path d="M25.5,55.59c1.07,0.67,1.51,1.38,1.51,2.3c0,2.51-0.34,28.41-0.34,32.31c0,3.28,0.83,3.55,2.83,2.38c5.12-3.01,12.75-8.07,18.17-11.51"/><path d="M84.33,54.97c0.29,0.74-0.15,2.95-1.25,3.76C77.25,63,70.11,67.46,61.42,71.48"/><path d="M57.5,50.5c1.25,0.7,1.83,2.33,1.83,3.22c0,2.35-0.36,25.24-0.36,28c0,12.88,5.53,12.1,17.78,12.1c14.75,0,16-0.56,16-8.82"/></svg>