<svg><path d="M12.1,25.25c0.67,0.37,4.31,0.45,4.99,0.34c3.16-0.5,14.48-2.09,22.06-2.64c1.03-0.07,2.95-0.26,3.8,0.04"/><path d="M27.05,27.52c0.93,0.88,1.58,2.78,1.58,3.48c0,5.95,0.05,44.62-0.13,48.57"/><path d="M13.52,52c0.59,0.4,4.75,0.46,5.36,0.37c3.47-0.53,15.28-2.62,20.08-3.19c0.74-0.09,3.44-0.16,4.54,0.19"/><path d="M13.75,85.25c1.25,1,3.86,0.93,4.74,0.5c5.61-2.75,14.12-7.25,22.67-12"/><path d="M47.07,16.03c0.35,0.43,0.76,1.19,0.96,1.73c1.57,4.44,3.14,16.56,4.11,24.84"/><path d="M48.67,17.57c11.39-1.14,31.73-2.07,40.23-3.02c3.12-0.35,3.96,1.84,3.8,3.09c-0.59,4.56-1.92,15.5-3.35,23.11"/><path d="M56.52,27c0.59,0.4,4.75,0.46,5.36,0.37c3.47-0.53,12.28-1.12,17.08-1.69c0.74-0.09,3.44-0.16,4.54,0.19"/><path d="M57.77,39.5c0.56,0.4,4.53,0.46,5.11,0.37c3.31-0.53,11.71-1.12,16.29-1.69c0.71-0.09,3.28-0.16,4.33,0.19"/><path d="M54.79,49.15c0.71,1.01,1.24,2.73,1.24,4.07c0,1.35-0.48,43.43-0.48,44.1"/><path d="M55.68,50.94c2.7-0.17,25.91-2.59,28.37-2.79c2.05-0.17,3.49,0.94,3.49,4.13c0,4.83-0.49,28.99-0.48,43.78"/><path d="M56.24,63.65c5.32-0.23,26.51-2.6,30.84-2.6"/><path d="M56.11,78.22c7.15-0.56,24.21-1.49,31.15-1.49"/><path d="M56.08,93.81c6.14-0.3,23.95-1.98,30.9-1.98"/></svg>