<svg><path d="M14.01,26.49c1.86,0.38,4.09,0.55,5.5,0.37c3.5-0.44,9.56-1.58,14.48-2.07c1.19-0.12,2.9-0.53,4.05-0.06"/><path d="M25.58,29.27c0.95,0.95,0.99,2.11,0.99,3.61c0,5.32-0.07,35.19-0.07,40.99"/><path d="M13.48,51.35c0.98,0.76,4.47,0.53,5.66,0.32c3.52-0.61,10.4-1.99,13.96-2.54c1.31-0.2,3.03-0.66,4.31-0.19"/><path d="M12.63,81.62c0.98,0.89,2.25,0.88,3.56,0.14c4.39-2.45,12.06-7.77,19.22-12.48"/><path d="M66.18,11c1.03,1.03,1.48,2,1.48,4.12c0,4.38-0.03,11.48-0.03,15.76"/><path d="M49.24,21.94c0.51,0.81,0.64,2.06,0.39,3.25c-0.5,2.43-0.88,4.31-1.72,7.92c-0.52,2.22,0.46,2.56,2.35,2.08c10.49-2.69,26.11-4.69,36.22-4.96"/><path d="M88.6,17.4c0.4,0.97,0.53,1.85,0.39,3.12c-0.28,2.65-0.66,5.22-1.16,9.23c-0.14,1.12-0.29,2.35-0.45,3.73"/><path d="M43.31,46.8c2.32,0.7,5.89,0.39,8.2,0.14c9.04-0.97,25.11-3.29,35.61-3.93c2.4-0.15,5.28-0.36,7.64,0.33"/><path d="M65.67,48.64c0.08,0.76-0.05,1.49-0.39,2.18c-0.97,2.26-3.57,5.3-6.73,8.97"/><path d="M45.2,61.87c0.96,0.96,0.99,2.66,0.99,4.34c0,4.11,0.02,15.55,0.04,23.16c0.01,3.08,0.01,5.54,0.01,6.62"/><path d="M46.85,63.28c14.53-1.78,30.54-3.51,40.14-4.46c4.51-0.45,6.14,0.72,6.05,4.93C92.92,68.9,92.5,85.78,92,90.64c-1,9.61-5.03,3.54-7.27,1.12"/><path d="M59.46,64.04c0.81,0.81,1.06,1.96,1.06,3.74c0,4.52-0.01,12.92-0.02,19.23c0,2.03,0,3.85,0,5.25"/><path d="M73.83,62.81c0.93,0.93,1.06,1.82,1.06,3.74c0,7.92,0,14.25,0,19.33c0,2.1,0,4,0,5.7"/></svg>