<svg><path d="M10.75,25.25c1.88,0.62,3.94,0.36,5.39,0.14c3.72-0.56,12.42-1.57,18.11-2.09c1.39-0.13,3.42-0.62,4.75-0.05"/><path d="M24.57,27.02c1.02,1.02,1.23,2.36,1.23,4.23c0,5.95-0.05,35.3-0.05,42.75"/><path d="M11,50.5c1.88,0.62,3.83,0.56,5.01,0.37c3.25-0.53,13.74-2.62,18.23-3.19c0.69-0.09,1.88-0.3,3-0.06"/><path d="M12.25,81.5c1,0.75,2.11,0.98,3.75,0c6.25-3.75,9.88-6.25,18.25-11.5"/><path d="M36.51,41.05c2.24,0.58,3.67,0.37,5.36,0.19c6.88-0.74,15.53-1.83,22.26-2.69c1.5-0.19,2.99-0.42,4.44-0.34"/><path d="M52.19,15.63c0.96,0.96,1.04,2.12,1.04,3.69c0,14.47-0.11,31.87-0.11,38.68"/><path d="M40.4,59.76c0.86,0.86,0.97,1.74,1.15,3.11c0.44,3.39,1.22,8.97,1.93,14.26c0.21,1.55,0.41,3.08,0.6,4.52"/><path d="M42.37,60.86c4.71-0.67,13.81-2.39,19.22-3.21c3.33-0.5,4.42,0.34,3.83,3.73c-0.69,4.01-1.42,7.37-2.6,13.05"/><path d="M44.99,77.97c3.38-0.28,10.68-1.38,16.13-2.05c1.43-0.18,2.73-0.32,3.8-0.42"/><path d="M74.51,19.63c0.8,0.8,1.14,1.87,1.16,2.82c1.2,42.8-0.92,56.67-12.82,67.92"/><path d="M76.59,21.21c1.82-0.24,12.81-2.7,14.17-2.96c2.43-0.47,4.29,0.63,4.29,3.71c0,3.04,0.04,46.66,0.04,65.82c0,9.1-5.62,2.16-7.52,0.26"/><path d="M76.88,40.75c5.93-0.89,11.89-1.74,17.1-2.05"/><path d="M76.75,59.57c4.97-0.5,11.33-1.69,17.08-1.83"/></svg>