<svg><path d="M21.5,17.68c3,2.13,6,7.88,6.25,11.31"/><path d="M49.65,16.37c0.77,0.52,0.41,2.44-0.29,3.25s-7.14,5.94-10.62,7.84"/><path d="M36.26,10.75c0.99,0.81,1,2.9,0.99,3.42C37,29,33.75,36.25,24.75,42.75"/><path d="M38.22,30.89c4.39,1.62,9.93,6.73,11.08,9.02"/><path d="M56.75,17.18c3.94,3.03,7.1,7.92,7.5,11.31"/><path d="M86.11,14.87c0.14,1.38-0.56,3.01-1.31,3.85c-0.75,0.84-8.04,5.03-11.81,6.99"/><path d="M71.34,9.75c0.91,0.69,0.91,2.04,0.91,2.49c0,14.76-4.75,22.76-13,28.26"/><path d="M73.47,29.14c4.49,1.93,10.15,8.04,11.33,10.77"/><path d="M19.91,47.19C19.79,50.64,17,59.69,16,61.75"/><path d="M19.72,51c3.53,0,49.75-5.25,67.47-5.25c12.06,0,3.81,5.75-0.69,9.5"/><path d="M29.94,60.87c0.98,0.44,4.16,0.54,5.15,0.45c12.57-1.07,18.34-1.88,37.4-3.45c1.5-0.12,2.88,0.09,4.13,0.46"/><path d="M52.74,61.47c0.69,0.83,1.38,1.65,1.38,3.04c0,4.68,0.34,25.04,0.17,29.71"/><path d="M29.16,76.43c0.91,0.41,3.91,0.63,4.84,0.54c9.19-0.99,28.79-2.39,38.21-2.97c1.13-0.07,3.63-0.17,5.32,0.19"/><path d="M18.24,95.62c0.83,0.28,4.04,0.3,5.45,0.23C40.25,95,70.75,93.49,86.39,93.4c2.27-0.01,4.99,0.47,6.13,0.92"/><path d="M66.3,80.49c4.88,1.72,9.06,5.37,10.11,7.51"/></svg>