<svg><path d="M10.1,23.98c2.27,0.64,4.98,0.39,6.64,0.21c4.94-0.53,11.19-1.67,17.54-2.75c1.41-0.24,3.34-0.44,4.67-0.17"/><path d="M24.3,26.02c1.09,1.09,1.33,2.36,1.33,3.98c0,5.95-0.01,40.3-0.01,48.38"/><path d="M10.52,51.75c2.36,0.88,4.87,0.66,6.5,0.35c4.37-0.85,12.81-2.39,16.57-3c1.36-0.22,3.32-0.85,4.66-0.26"/><path d="M10.25,86.91c1.38,0.96,2.5,1.21,4.33,0.04c5.44-3.48,13.1-8.84,21.33-14.95"/><path d="M50.95,11.58c2.97,1.96,7.68,8.07,8.43,11.12"/><path d="M81.06,8.52c0.09,1.08-0.11,2.11-0.6,3.09c-1.29,3.12-3.34,5.89-7.92,11.04"/><path d="M46.13,27.93c2.74,0.57,5.41,0.54,7.64,0.29c7.21-0.78,20.64-2.56,28.48-3.03c2.52-0.15,5.5-0.41,8,0.22"/><path d="M66.32,27.68c0.94,0.94,1.19,2.2,1.19,3.65c0,0.92,0.03,16.55,0.03,22.93"/><path d="M48.59,41.97c2.41,0.53,4.87,0.24,6.93,0.06C62.36,41.39,73.14,40,81,39.51c2.23-0.14,4.55-0.39,6.75,0.17"/><path d="M41.27,56.62c3.35,0.75,6.34,0.42,9.24,0.18c9.05-0.77,26.3-2.62,38.24-3.2c2.95-0.14,5.86-0.32,8.75,0.32"/><path d="M54.01,59.77c0.37,1.23,0.27,2.33-0.1,3.44c-2.66,7.92-8.53,21.54-18.59,30.94"/><path d="M54.53,70.11c2.09,0.64,4.15,0.45,5.96,0.19c4.87-0.69,15.6-1.98,22.02-2.59c2.06-0.2,4.16-0.54,6.15,0.22"/><path d="M68.78,71.79c0.83,1.09,0.83,2.25,0.83,3.12c0,6.11-0.11,12.39-0.11,17.59"/><path d="M45.5,94.32c2.49,0.91,5.83,0.62,8.38,0.42c12.61-1.02,23.69-1.89,34.37-2.29c2.75-0.1,6.18,0.2,8.75,1.29"/></svg>