<svg><path d="M11.25,21.24c2,0.64,4.28,0.38,5.88,0.17c4.05-0.55,14.19-1.47,20.5-2.03c1.57-0.14,3.61-0.5,5.12,0.15"/><path d="M26.01,23.96c1.2,1.2,1.37,2.16,1.37,4.05c0,6.5,0,40.8,0,48.48"/><path d="M12.25,49.75c2.25,0.75,5,0.38,6.62,0.12c5.55-0.88,12.68-1.78,16.9-2.27c1.87-0.22,3.89-0.36,5.72,0.26"/><path d="M12,84.86c1.5,0.89,2.82,1.01,4.64-0.12C23.5,80.5,30.25,75.66,38,70.5"/><path d="M88.96,11.14c-0.69,1.05-1.78,1.83-3.04,2.35c-6.42,2.63-16.42,5.63-36.03,9.33"/><path d="M47.88,31.75c3.14,2.65,8.12,10.9,8.91,15.02"/><path d="M63.75,28.25c3.25,2.61,8.4,10.72,9.21,14.78"/><path d="M93.77,24.44c0.07,0.95-0.18,2.11-0.57,3c-2.2,4.94-4.87,10.54-11.13,17.29"/><path d="M49.25,53.77c2.43,0.63,5.56,0.29,8,0.01c9.59-1.11,19.84-1.8,28.14-2.43c2.39-0.18,4.31-0.16,6.63,0.2"/><path d="M45.15,71.34c3.1,0.79,5.42,0.71,8.11,0.36c12.24-1.57,24.99-2.45,36.62-3.13c2.73-0.16,5.53-0.07,8.22,0.54"/><path d="M69.73,55.4c1.06,1.06,1.17,2.1,1.17,4.16c0,4.91,0.08,26.82,0.08,33.35"/><path d="M50.85,80.83c0.91,0.91,0.97,2.25,0.85,2.91c-0.63,3.61-1.17,6.06-2.09,10.37c-0.49,2.28,0.13,2.97,2.29,2.51c8.63-1.83,28.22-3.88,38.08-4.15"/><path d="M91.98,75.95c0.64,1.05,0.64,2.48,0.57,3.16c-0.44,3.88-0.86,8.77-1.21,12.78c-0.18,2.08-0.34,3.92-0.47,5.25"/></svg>