<svg><path d="M13.25,26.66c2.38,0.84,4.83,0.7,6.76,0.43c3.83-0.52,10.16-1.73,15.06-2.14c0.86-0.07,2.46-0.25,3.18,0.04"/><path d="M26.07,29.34c0.92,0.92,1.23,2.29,1.23,3.35c0,5.72-0.05,34.41-0.05,40.31"/><path d="M13,51.17c1.88,0.71,3.46,0.51,5.01,0.36C22,51.12,29.62,49.5,35,48.49c0.68-0.13,2.22-0.41,3.25-0.07"/><path d="M12.25,80.81c1.25,0.81,2.12,0.94,3.5,0.19c5.17-2.81,12-7.24,20-11.81"/><path d="M42.25,17.73c0.7,0.7,1.27,1.61,1.46,2.35c0.57,2.27,1.32,5.86,1.98,9.14c0.3,1.48,0.54,2.94,0.69,4.29"/><path d="M43.94,18.64c6.17-1.03,32.89-4.12,39.85-4.97c2.36-0.29,3.93,0.34,3.43,3.07c-0.43,2.35-1.19,5.36-2.07,8.61c-0.38,1.39-0.78,2.79-1.19,4.1"/><path d="M56.32,17.81c0.5,0.5,0.9,1.23,1.03,2.46c0.38,3.47,0.75,6.87,0.87,8.43"/><path d="M70.7,16.39c0.58,0.58,0.65,1.36,0.56,2.42c-0.3,3.65-0.76,6.57-1.06,8.98"/><path d="M47.11,31.47c9.26-1.34,27.01-3.59,36.21-4.16"/><path d="M42,40.89c2.38,0.61,5.02,0.22,7.12-0.05c8.47-1.09,25.94-3.49,33.77-3.92c1.99-0.11,4.16-0.13,6.12,0.34"/><path d="M47.5,48.84c0.77,0.77,1.25,1.44,1.4,2.36c0.81,2.29,1.42,5.64,2.12,9.05c0.29,1.39,0.54,2.75,0.76,3.97"/><path d="M49.52,50.27c8.99-1.24,22.38-3.65,28.48-4.31c3.13-0.34,4.63,1.41,4.06,3.33c-0.86,2.87-1.56,5.16-2.72,7.95"/><path d="M52.65,61.67c5.7-0.77,15.76-2.11,24.11-3.16c1.68-0.21,3.29-0.41,4.75-0.59"/><path d="M64.92,62.64c0.08,0.56-0.12,1.55-0.65,2.25c-4.03,5.35-12.4,14.73-25.92,21.07"/><path d="M62.79,70.29c0.84,0.84,1.06,2.01,1.05,3.47c-0.02,4.96-0.06,13.04-0.08,19.5c-0.01,2.09-0.01,3.98-0.01,5.5"/><path d="M82.27,65.75c0.09,0.71-0.26,1.43-0.73,1.91c-2.01,2.07-4.01,3.56-8.79,6.84"/><path d="M64.92,72.68c1.17,0.45,14.44,9.65,22.05,14.19c2.09,1.25,4.03,2.26,6.53,3.38"/></svg>