<svg><path d="M22.51,14.61c3.62,0.39,6.19,0.25,9.12,0.04c11.89-0.84,33.31-2.55,45.62-3.01c3.13-0.12,6.33-0.05,9.44,0.47"/><path d="M37.96,17.92c0.12,0.88-0.19,1.59-0.88,2.16c-3.71,3.05-8.58,6.18-18.8,10.49"/><path d="M72.5,16.5c5.81,1.5,15.01,6.16,16.46,8.49"/><path d="M25.85,29.32c1.04,1.04,1.48,2.43,1.48,3.79c0,2.29-0.03,18.03-0.04,26.89c-0.01,3.42-0.01,5.8-0.01,6"/><path d="M27.58,30.07c6.81-0.55,41.45-3.06,48.3-3.63c3.91-0.33,5.78-0.15,5.77,4.07c-0.02,6.2-0.13,25.58-0.13,28.62c0,9.12-3.39,4-5.03,2.4"/><path d="M53.17,15.63c0.92,0.92,1.23,1.93,1.23,3.29c0,2.72,0.1,26.66,0.03,39.59c-0.02,4.03-0.04,6.84-0.04,7.37"/><path d="M46.05,34.7c0.09,0.8-0.05,1.54-0.43,2.23c-1.39,3.02-5.52,8.25-11.5,11.58"/><path d="M36.5,38.43c3.93,0.73,9.15,4.46,10.68,7.03"/><path d="M46.1,51.57c0.1,0.87-0.03,1.68-0.41,2.46c-1.43,3.42-5.99,9.17-12.02,12.99"/><path d="M37,54.62c3.49,0.86,8.12,5.19,9.48,8.18"/><path d="M72.07,32.81c0.08,0.75-0.02,1.47-0.32,2.16c-1.12,3.02-4.71,8.34-9.46,11.71"/><path d="M61.92,36.77c4.06,0.79,9.45,4.76,11.03,7.51"/><path d="M72.63,50.6c0.09,0.78-0.03,1.52-0.34,2.22c-1.22,3.12-5.15,8.61-10.34,12.1"/><path d="M63.82,54.56c3.45,1.59,7.56,5.13,9.48,7.59"/><path d="M27.11,73.68c2.63,0.74,5.73,0.28,8.4,0.06c11.72-0.95,23.09-1.74,40.24-2.63c2.51-0.13,4.97-0.31,7.46,0.15"/><path d="M53.37,75.4c0.92,0.92,1.27,2.1,1.27,3.86c0,5.17-0.02,9.49-0.02,14.86"/><path d="M30.84,84.95c3.29,0.55,5.61,0.36,8.17,0.14c8.9-0.76,22.83-2.03,31.86-2.59c2.85-0.18,5.84-0.24,8.68,0.22"/><path d="M20.75,96.24c3.62,0.89,5.99,0.93,9.12,0.68c16.25-1.29,37.41-2.32,52.25-2.55c3.45-0.05,6.51,0.24,9.87,0.99"/><path d="M75.25,87.11c2.51,1,4.66,3.14,5.2,4.39"/></svg>