<svg><path d="M9.6,21.75c0.67,0.37,4.31,0.45,4.99,0.34c3.16-0.5,12.98-1.59,20.56-2.14c1.03-0.07,2.95-0.26,3.8,0.04"/><path d="M24.05,24.02c0.93,0.88,1.58,2.78,1.58,3.48c0,5.95,0.05,44.62-0.13,48.57"/><path d="M11.52,49c0.52,0.4,4.16,0.46,4.69,0.37c3.04-0.53,13.37-2.12,17.57-2.69c0.65-0.09,3.01-0.16,3.97,0.19"/><path d="M9.75,83.44c2,0.81,4.48,0.81,5.4,0.27c5.82-3.48,13.65-8.19,22.51-14.21"/><path d="M57.69,8c0.05,0.42,0.11,1.08-0.1,1.69c-1.24,3.55-8.35,11.35-18.09,16.12"/><path d="M55.36,14.3c2.64,0,17.52-1.8,21.64-2.61c2.35-0.46,2.19,1.41,1.22,2.33C76.13,16,72.62,21.25,69.6,25"/><path d="M43.93,26.81c0.78,0.57,1.38,1.97,1.48,2.72c0.87,6.22,1.34,9.47,1.77,14.35"/><path d="M45.45,27.99c11.87-1.09,34.82-3.71,43.41-4.13c3.35-0.16,3.69,1.77,3.17,4.14c-0.6,2.74-2.28,9.24-3.66,14.1"/><path d="M67.74,26.89c0.04,0.34,0.08,0.89-0.08,1.38c-0.97,2.91-6.54,9.29-14.17,13.19"/><path d="M68.6,32.08c5,1.35,12.92,5.54,14.17,7.63"/><path d="M50.96,48.2c0.36,0.84,0.89,1.46,0.89,2.58s0.22,20.28,0.22,20.84"/><path d="M51.74,48.78c2.06-0.14,28.65-2.12,30.53-2.29c1.56-0.14,2.66,1.27,2.66,2.31c0,5.95-0.29,15.7-0.29,21.33"/><path d="M52.43,56.02c4.06-0.19,28.59-2.23,31.89-2.23"/><path d="M52.59,62.98c5.45-0.47,26.19-2.13,31.48-2.13"/><path d="M52.51,70.32c4.68-0.25,26.12-2.2,31.41-2.2"/><path d="M58.66,72.25c0.05,0.42,0.11,1.09-0.1,1.7c-1.24,3.59-8.33,11.46-18.05,16.29"/><path d="M59.05,77.01c0.33,0.02,2.08,0.2,3.01,0.14c4.15-0.25,11.88-3.07,16.27-3.33c1.21-0.07,1.98,2,1.22,3.2C75.36,83.58,55.7,96.25,36.33,101"/><path d="M54.01,80.56c5.11,3.12,28.27,14.95,35.15,17.8c2.05,0.85,3.71,1.26,5.71,1.51"/></svg>