<svg><path d="M18.75,18.95c3.87,0.68,7.75,0.72,11.64,0.14c12.65-1.51,31.48-3.21,46.61-4.17c3.6-0.33,7.18-0.2,10.75,0.38"/><path d="M39.37,22.75c1.06,1.06,0.95,3.25,0.71,4.25C35.88,44.5,27.5,76.88,24.5,87"/><path d="M14.25,89.48c0.98,0.77,2.75,1.27,4.85,0.42c7.97-3.23,23.52-8.58,31.65-11.4"/><path d="M41,37.79c2.16,0.43,4.29,0.37,6.4-0.18c4.63-0.8,13.07-2.55,16.89-3.32c3.02-0.61,4.84,1.06,4.15,4.14c-1.45,6.48-6.84,25.84-8.23,35.88C57.75,92,63,95,76.33,95.12c8.98,0.08,15.9-0.61,16.15-10.35"/><path d="M41.52,53.58c4.16,2.05,10.23,7.79,11.79,11.88"/></svg>