<svg><path d="M11.55,18.75c1.12,0.57,3.17,0.7,4.28,0.57c8.91-1.05,25.32-2.64,32.29-2.89c1.86-0.07,2.98,0.27,3.91,0.56"/><path d="M 25.42,20.75 c 0.76,0.5 1.54,2.76 1.36,3.75 -1.45,7.75 -10.96125,56.475 -12.96125,64.705"/><path d="M 10.866667,89.88625 c 0.772187,0.3775 1.658992,0.07062 2.860624,-0.533125 5.752813,-2.890435 13.997292,-7.124792 19.647292,-9.944792"/><path d="M24.24,40.04c0.87,0.21,1.79,0.69,2.64,0.5c2.39-0.54,11.41-2.65,13.77-3.29c1.85-0.5,2.85,1,2.66,2.53c-0.57,4.49-1.5,18.73-2.24,31.51C40,89.75,41.25,93.82,71.73,93.82c23.52,0,25.25-3.07,25.25-12.54"/><path d="M24.85,53.83c3.15,2.36,8.15,9.71,8.94,13.38"/><path d="M84.6,11.42c0.09,0.41-0.68,2.57-1.17,3.01c-3.76,3.36-13.31,8.9-29.98,13.57"/><path d="M48.93,46.45c0.98,0.39,3.42,0.48,4.39,0.39c11.3-1.08,22.2-2.49,41.08-3.08c1.63-0.05,2.61,0.18,3.42,0.38"/><path d="M69.61,25.75c0.49,0.43,1.52,3.24,1.62,4.1c0.1,0.86-0.06,52.25-0.16,57.65"/></svg>