<svg><path d="M11.55,18.75 c 1.12,0.57 3.17,0.7 4.28,0.57 8.91,-1.05 20.437708,-2.185833 26.953542,-2.89 1.86,-0.07 2.98,0.27 3.91,0.56"/><path d="M 25.42,20.75 c 0.76,0.5 1.54,2.76 1.36,3.75 -1.45,7.75 -10.96125,56.475 -12.96125,64.705"/><path d="M 10.866667,89.88625 c 0.772187,0.3775 1.658992,0.07062 2.860624,-0.533125 5.752813,-2.890435 13.997292,-7.124792 19.647292,-9.944792"/><path d="M24.24,40.04c0.87,0.21,1.79,0.69,2.64,0.5c2.39-0.54,11.41-2.65,13.77-3.29c1.85-0.5,2.85,1,2.66,2.53c-0.57,4.49-1.5,18.73-2.24,31.51C40,89.75,41.25,93.82,71.73,93.82c23.52,0,25.25-3.07,25.25-12.54"/><path d="M26,53.83c3.15,2.36,8.15,9.71,8.94,13.38"/><path d="M 55.617291,18.964792 c 1.19,0.37 3.37,0.45 4.56,0.37 7.47,-0.53 13.319792,-1.296458 26.636042,-2.17 1.98,-0.1 3.17,0.18 4.17,0.36"/><path d="M71.81,20.92c0.26,0.43,0.3,0.95,0.24,1.33c-0.36,2.21-3.5,8.18-6.35,11.15"/><path d="M56.95,33.34c0.46,1.12,0.8,1.69,0.94,3.18c0.82,9.04,0.45,34.62,0.63,41.99"/><path d="M58.16,35.12c2.64-0.19,23.75-2.17,26.15-2.39c2-0.19,3.29,1.25,3.14,2.36c-0.31,2.24-0.61,30.39-0.86,42.32"/><path d="M58.77,54.34c10.73-0.84,21.27-1.83,27.6-1.71"/><path d="M59.29,76.01c8.67-0.74,18.9-1.39,27.05-1.41"/></svg>