<svg><path d="M11.55,18.75c1.12,0.57,3.17,0.7,4.28,0.57c8.91-1.05,25.32-2.64,32.29-2.89c1.86-0.07,2.98,0.27,3.91,0.56"/><path d="M 25.42,20.75 c 0.76,0.5 1.54,2.76 1.36,3.75 -1.45,7.75 -10.96125,56.475 -12.96125,64.705"/><path d="M 10.866667,89.88625 c 0.772187,0.3775 1.658992,0.07062 2.860624,-0.533125 5.752813,-2.890435 13.997292,-7.124792 19.647292,-9.944792"/><path d="M24.24,40.04c0.87,0.21,1.79,0.69,2.64,0.5c2.39-0.54,11.41-2.65,13.77-3.29c1.85-0.5,2.85,1,2.66,2.53c-0.57,4.49-1.5,18.73-2.24,31.51C40,89.75,41.25,93.82,71.73,93.82c23.52,0,25.25-3.07,25.25-12.54"/><path d="M24.85,53.83c3.15,2.36,8.15,9.71,8.94,13.38"/><path d="M81.11,14c0.08,0.36,0.36,1.04-0.17,1.46c-4.9,3.9-16.09,9.92-28.96,13.94"/><path d="M51.31,41.73c1.06,0.26,3.02,0.41,4.06,0.26C62,41,78,38,84.87,37.71c1.75-0.08,2.83,0.12,3.71,0.25"/><path d="M47.63,57.67c1.08,0.18,4.22,0.22,5.3,0.18c13.55-0.6,25.8-3.7,35.58-4.11c1.79-0.07,4.03,0.08,4.94,0.17"/><path d="M66.87,27.13c0.44,0.97,0.79,2.11,0.82,3.6c0.12,6.67-0.43,33.74-0.43,37.83c0,10.79,2.61,11.22,11.37,11.22c11,0,10.63-2.06,10.63-9.18"/></svg>