<svg><path d="M17.71,16.59c2.46,2.07,6.36,8.49,6.98,11.71"/><path d="M45.05,14.39c0.02,0.35,0.05,0.91-0.05,1.42c-0.58,2.99-3.62,8.19-8.29,13.8"/><path d="M15,35.24c1.87,0.51,3.89,0.32,5.63,0.06c5.9-0.89,16.62-2.79,23.62-3.67c2.06-0.26,4-0.38,5.87,0.21"/><path d="M10.75,56.69c0.98,0.5,2.78,0.6,3.76,0.5c10.6-1.14,25.81-3.83,37.06-3.82c1.63,0,2.61,0.24,3.43,0.49"/><path d="M25.17,37.62c0.92,0.92,1.11,1.86,1.11,3.86c0,18.29,0.59,38.89-13.44,53.8"/><path d="M39.91,35.53c0.84,0.84,1.01,1.97,1.01,3.24c0,0.76,0.13,34.66,0.02,50.61c-0.02,3.7-0.05,6.41-0.08,7.5"/><path d="M53.8,21.2c2.7,0.68,5.3,0.4,7.47,0.12c7.7-0.99,19-2.78,25.63-3.37c2.18-0.2,4.26-0.31,6.38,0.35"/><path d="M65.92,24.25c0.71,1.25,0.83,2.25,0.61,4c-1,7.82-9.4,52.38-12.03,61.73"/><path d="M51.5,91.48c1.51,0.96,3.06,0.52,4.52-0.33c5.54-3.23,12.84-6.33,18.49-9.15"/><path d="M66.99,41.54c1.33,0.32,2.63,0.07,3.92-0.24c3.04-0.74,9.44-2.27,12.21-3.06c1.65-0.47,3.45,0.54,3.19,2.55c-0.57,4.49-3.19,24.21-4.99,35.01c-3.07,18.46-2.07,19.83,7.2,19.83c8.86,0,9.46-1.37,9.46-9.85"/><path d="M67.88,56.38c2.44,1.96,6.3,8.05,6.91,11.09"/></svg>