<svg><path d="M11.55,18.75c1.12,0.57,3.17,0.7,4.28,0.57c8.91-1.05,25.32-2.64,32.29-2.89c1.86-0.07,2.98,0.27,3.91,0.56"/><path d="M 25.42,20.75 c 0.76,0.5 1.54,2.76 1.36,3.75 -1.45,7.75 -10.96125,56.475 -12.96125,64.705"/><path d="M 10.866667,89.88625 c 0.772187,0.3775 1.658992,0.07062 2.860624,-0.533125 5.752813,-2.890435 13.997292,-7.124792 19.647292,-9.944792"/><path d="M24.24,40.04c0.87,0.21,1.79,0.69,2.64,0.5c2.39-0.54,11.41-2.65,13.77-3.29c1.85-0.5,2.85,1,2.66,2.53c-0.57,4.49-1.5,18.73-2.24,31.51C40,89.75,41.25,93.82,71.73,93.82c23.52,0,25.25-3.07,25.25-12.54"/><path d="M24.85,53.83c3.15,2.36,8.15,9.71,8.94,13.38"/><path d="M65,16.74c0.28,0.8-0.06,1.69-0.39,2.68c-2.71,8.15-8.39,17.12-16.05,23.88"/><path d="M74.34,14.25C77.5,15,88.59,34.53,93.96,38.94c2.08,1.71,2.82,2.62,4.83,3.17"/><path d="M56.57,45.62c1.93,0.38,3.8,0.4,4.69,0.24c7.25-1.26,16.66-3.88,20.68-4.34c2.62-0.3,3.77,0.91,3.63,3.02C85,53.25,82,70.5,77.82,78.78c-2.93,5.8-6.36,0.74-7.53-0.89"/><path d="M68.71,47.66c0.06,0.71,0.25,1.9-0.12,2.86c-3.84,10.23-8.09,18.73-19.04,29.13"/></svg>