<svg><path d="M11.55,18.75c1.12,0.57,3.17,0.7,4.28,0.57c8.91-1.05,25.32-2.64,32.29-2.89c1.86-0.07,2.98,0.27,3.91,0.56"/><path d="M 25.42,20.75 c 0.76,0.5 1.54,2.76 1.36,3.75 -1.45,7.75 -10.96125,56.475 -12.96125,64.705"/><path d="M 10.866667,89.88625 c 0.772187,0.3775 1.658992,0.07062 2.860624,-0.533125 5.752813,-2.890435 13.997292,-7.124792 19.647292,-9.944792"/><path d="M24.24,40.04c0.87,0.21,1.79,0.69,2.64,0.5c2.39-0.54,11.41-2.65,13.77-3.29c1.85-0.5,2.85,1,2.66,2.53c-0.57,4.49-1.5,18.73-2.24,31.51C40,89.75,41.25,93.82,71.73,93.82c23.52,0,25.25-3.07,25.25-12.54"/><path d="M26,53.83c3.15,2.36,8.15,9.71,8.94,13.38"/><path d="M85.73,19.71c0.09,0.32-0.15,1.42-0.68,1.78C78.46,26,69.22,29.64,52.06,33.27"/><path d="M53.08,41.39c0.46,0.28,1.19,1.07,1.19,2.84c0,2.06-0.74,10.58-0.99,14.22c-0.13,1.88-0.49,3.19,1.71,2.65c7.99-1.95,19.26-3.35,31.42-4.12"/><path d="M86.55,37.32c0.4,0.39,1.25,1.66,1.19,2.51c-0.27,3.94-0.49,12.91-1.43,20.17"/><path d="M67.61,13.62c0.74,1.09,1.32,2.38,1.37,4.06c0.2,7.51-0.01,40.16-0.01,50.51s1.28,12.58,10.68,12.58C88.5,80.77,90,78.25,90,69.4"/></svg>