<svg><path d="M46.44,12.34c0.06,0.21,0.13,0.54-0.12,0.85c-1.53,1.79-10.28,5.71-22.26,8.11"/><path d="M19.32,30.42c0.61,0.14,2.25,0.37,3.87,0.42c4.49,0.14,15.18-1.46,26.39-2.17c1.63-0.1,2.04-0.14,3.06,0"/><path d="M37.08,20.49c0.29,0.25,1.26,1.98,1.31,2.48c0.06,0.5,0,27.5-0.06,30.62"/><path d="M37.56,30.9c-3.89,5.97-10.39,13.33-19.2,18.21"/><path d="M41.28,34.2c3.84,2.1,7.09,6.29,9.16,8.99"/><path d="M55.26,21.06c2.7,2.5,6.64,9.57,7.38,12.06"/><path d="M86.27,18.26c0.26,0.92,0.26,2.21-0.2,3.09c-0.46,0.88-4.95,6.86-7.24,8.91"/><path d="M71.14,12.39c0.2,0.9,0.58,1.89,0.59,2.56c0.29,17.22-2.57,31.39-17.35,38.13"/><path d="M72.38,32.01c5,8.63,11.99,15.96,16.26,19.32c1.24,0.98,1.44,0.93,2.41,1.19"/><path d="M20.3,60.11c1.93,0.61,5.47,0.7,7.39,0.61c14.81-0.72,42.05-1.93,54.09-2.2c3.21-0.07,5.14,0.29,6.75,0.6"/><path d="m 39.261667,60.615 c 0.08,1 -0.22,3.05 -0.45,3.59 -2.47,5.66 -11.063542,28.477292 -13.333542,33.067292"/><path d="m 19.018569,98.865909 c 1.035944,0.308484 2.43278,0.131632 3.283787,-0.03605 C 30.455824,97.223354 52.591667,92.865 60.591667,91.615"/><path d="M41.24,70.04c0.87,0.21,2.28,0.62,3.14,0.5C52,69.5,63.5,67.75,68.65,67.25c1.34-0.13,3.38,1.67,2.66,3.03C70,72.75,68,78.25,67.25,83.75c-1.42,10.4,2.75,12.5,12.5,12.5C91.5,96.25,93,95,93,86.75"/><path d="M45.1,75.08c3.15,1.39,8.15,5.72,8.94,7.88"/></svg>