<svg><path d="M10.88,21.79c1.07,0.3,3.04,0.34,4.12,0.3c11.18-0.5,21.27-2.02,33.32-2.29c1.79-0.04,2.86,0.14,3.76,0.29"/><path d="M25.71,31.15c0.24,0.29,0.49,0.54,0.59,0.91c0.84,2.92,1.84,10.98,2.41,16.23"/><path d="M26.79,32.58c5.76-1.12,15.44-2.43,18.74-2.88c1.21-0.16,1.93,0.97,1.76,1.93c-0.71,3.98-1.22,6.17-2.28,11.67"/><path d="M28.68,45.96c3.87-0.51,12.55-1.38,17.87-2.16"/><path d="M20.82,57.52c0.28,0.33,0.57,0.6,0.69,1.02c0.98,3.27,2.01,13.48,2.67,19.35"/><path d="M22.24,59.74c3.59-0.87,6.49-2.25,9.79-2.68c1.2-0.16,1.93,0.93,1.76,1.85c-0.71,3.82-1.21,10.53-2.28,15.82"/><path d="M24.13,75.93c3.87-0.49,7.95-1.25,9.43-1.15"/><path d="M39.21,55.52c0.28,0.36,0.57,0.66,0.69,1.11c0.98,3.56,1.76,12.92,2.43,19.32"/><path d="M40.3,57.02c4.45-1.02,7.78-1.54,11.08-2.01c1.2-0.17,1.93,1.01,1.76,2.02c-0.71,4.16-1.55,9.14-2.61,14.89"/><path d="M42.52,74.19c3.87-0.53,3.89-0.03,9.21-0.84"/><path d="M15.3,23.11c0,3.19-0.33,60.38-0.33,63.37c0,2.53,1.7,3.45,2.87,3.19c8.41-1.92,27.76-3.56,29.98-3.56c2.21,0,2.95,0.3,4.68,1.05"/><path d="M58.3,20.37c1.16,0.41,3.3,0.5,4.45,0.41c9.27-0.74,22.45-2.12,29.71-2.3c1.93-0.05,3.1,0.19,4.07,0.4"/><path d="m  67.92,24.25 c 0.76,0.5 1.531648,2.754692 1.36,3.75 -3.445793,19.980543 -4.673886,39.396905 -7.670417,57.713281"/><path d="m 57.400579,87.573634 c 0.420641,0.268828 1.216192,0.266992 2.165254,-0.355925 5.54,-3.23 13.543125,-7.578959 19.193125,-10.398959"/><path d="M71.24,37.04c0.87,0.21,1.79,0.69,2.64,0.5c2.39-0.54,8.44-2.04,10.77-2.79c1-0.32,2.85,1,2.66,2.53c-0.57,4.49-3.13,23.12-4.24,34.01c-1.82,17.95,0.43,21.2,8.2,20.83c4.74-0.23,6.23-2.87,6.71-9.35"/><path d="M69.6,55.08c2.89,2.05,7.46,8.44,8.19,11.63"/></svg>