<svg><path d="M20.5,17.27c1.81,0.53,3.91,0.63,5.72,0.53c16.61-0.96,37.55-1.96,56.7-2.03c3.01-0.01,4.82,0.25,6.33,0.51"/><path d="M39.12,8.5c1.25,1.02,1.64,1.33,1.78,1.96c1.24,5.87,1.24,11.41,1.6,13.54"/><path d="M67.49,8.19c0.27,0.77,0.63,1.34,0.33,2.28c-1.79,5.54-1.61,6.81-3.56,12.02"/><path d="M25.06,28.03c0.32,0.26,0.65,0.48,0.79,0.81c1.11,2.59,2.45,9.75,3.21,14.41"/><path d="M27.06,29.79c7.08-1.02,52.59-2.71,56.35-3.06c1.37-0.12,3.24,0.88,2.87,2.34c-0.77,3.04-2.66,8.27-4.71,12.61"/><path d="M44.94,29.84c0.56,0.66,1.21,1.44,1.41,2.65c0.53,3.2,0.37,6.54,0.53,7.96"/><path d="M63.25,29.26c0.44,0.31,0.67,1.1,0.76,2.14c0.28,3.11,0.33,7.45,0.01,8.75"/><path d="M30.07,41.84c4.42-0.39,45.95-1.78,52.01-2.37"/><path d="M17.91,49.13c0,3.48-3.03,13.05-4.41,15.37"/><path d="M18.24,50.8c9.73-1.2,61.67-3,69.56-3.46c12.34-0.71,2.12,7.2-0.96,9.77"/><path d="M28.8,58.45c1.71,0.54,4.86,0.67,6.56,0.54C49.03,58,59.33,57.5,70.03,57.26c2.85-0.06,4.57,0.26,6,0.53"/><path d="M  44.371042,60.160833 c 0.08,1 -0.22,3.05 -0.45,3.59 C 42.019037,69.409688 35.543541,88.750628 33.3125,95.115"/><path d="M 26.852944,96.708617 c 1.035944,0.308484 2.43278,0.131632 3.283787,-0.03605 C 38.290199,95.066062 52.591667,92.410833 61.5,90.479583"/><path d="M43.99,71.04c0.78,0.21,2.04,0.11,2.81,0c5.7-0.79,15.7-2.79,20.46-3.29c2.72-0.29,3.7,1.35,2.88,4.03c-1.89,6.22-4.39,11.93-4.19,17.47c0.3,8.25,3.07,10,12.69,10c12.36,0,13.2-1.77,13.36-11.5"/><path d="M45.35,77.33c3.24,1.44,8.38,5.9,9.19,8.13"/></svg>