<svg><path d="M 11.55,18.75 c 1.12,0.57 3.17,0.7 4.28,0.57 8.91,-1.05 18.280417,-2.072292 25.591042,-2.89 1.86,-0.07 2.98,0.27 3.91,0.56"/><path d="M 25.42,20.75 c 0.76,0.5 1.54,2.76 1.36,3.75 -1.45,7.75 -10.96125,56.475 -12.96125,64.705"/><path d="M 10.866667,89.88625 c 0.772187,0.3775 1.658992,0.07062 2.860624,-0.533125 5.752813,-2.890435 13.997292,-7.124792 19.647292,-9.944792"/><path d="M24.24,40.04c0.87,0.21,1.79,0.69,2.64,0.5c2.39-0.54,11.41-2.65,13.77-3.29c1.85-0.5,2.85,1,2.66,2.53c-0.57,4.49-1.5,18.73-2.24,31.51C40,89.75,41.25,93.82,71.73,93.82c23.52,0,25.25-3.07,25.25-12.54"/><path d="M26,53.83c3.15,2.36,8.15,9.71,8.94,13.38"/><path d="M52.22,22.69c1.17,0.55,3.31,0.58,4.48,0.55c9.25-0.19,22.06-2.49,29.88-2.35c1.94,0.04,3.11,0.26,4.09,0.54"/><path d="M54.51,23.62c0.03,1.32-0.05,2.4-0.05,4.3c0,16.29-1.46,34.58-9.1,51.29"/><path d="M60.44,33.77c0.18,0.35,0.19,0.59,0.29,1.03c0.82,3.61,2.34,13.9,2.85,20.64"/><path d="M61.28,34.26C69,33.5,78,32.5,83.36,31.81c1.75-0.22,3.63,1.71,3.54,2.7c-0.33,3.64-2.27,12.57-3.06,18.65"/><path d="M63.22,43.6c3.65-0.36,19.08-1.71,21.92-1.95"/><path d="M63.9,53.3c4.57-0.39,13.14-1.15,19.95-1.48"/><path d="M72.39,33.32c0.19,0.72,0.74,1.69,0.76,3.13c0.14,10.04,0.05,37.34,0.05,40.17"/><path d="M59.62,65.89c0.52,0.18,1.48,0.2,2,0.18c5.44-0.21,16.91-2.07,23.65-2.11c0.87,0,1.4,0.09,1.83,0.18"/><path d="M54.59,79.17c0.76,0.29,2.16,0.33,2.92,0.29c7.91-0.48,23.79-2.18,33.21-2.16c1.26,0,2.03,0.14,2.66,0.28"/></svg>