<svg><path d="M13.15,22.57c0.85,0.46,2.41,0.56,3.26,0.46c8.3-0.97,19.73-2.17,29.86-2.78c1.42-0.09,2.27,0.22,2.98,0.45"/><path d="M14.61,29.85c0.53,0.39,1.2,1.87,1.3,2.39c0.71,3.77,1.63,11.05,2.67,18.94"/><path d="M16.65,31.27c8.03-0.75,22.63-2.16,28.11-2.28c2.27-0.05,2.45,1.19,2.28,3.25c-0.33,4.06-2.3,10.46-3.65,17.77"/><path d="M18.98,40.1c6.05-0.2,14.19-1.93,25.59-1.93"/><path d="M18.62,50.01c7.03-0.78,15.59-1.71,24.75-1.71"/><path d="M30.07,13.5c0.44,0.47,1.17,1.36,1.17,4.42c0,0.94-0.06,35.95-0.14,41.77"/><path d="M16.2,62.02c0.44,1.05,1.56,1.61,2.17,1.54c2.04-0.25,22.21-6.27,26.01-7.33"/><path d="M39.96,52.41c3.57,1.68,9.21,6.92,10.1,9.53"/><path d="M11.63,73.12c1.15,0.49,3.24,0.56,4.4,0.49c12.47-0.8,22.12-2.48,32.33-3.22c1.91-0.14,3.06,0.23,4.02,0.47"/><path d="M41.77,61.43c0.05,0.39,0.76,2.02,0.76,4.47c0,16.54-0.15,22.14-0.15,26.16c0,9.76-4.53,1.44-5.84,0.2"/><path d="M22.39,77.79c2.59,1.24,6.7,5.09,7.34,7.02"/><path d="M55.8,21.7c1.05,0.54,2.99,0.67,4.04,0.54c8.41-0.99,23.91-3.49,30.5-3.73c1.76-0.06,2.81,0.26,3.69,0.53"/><path d="m 67.92,24.25 c 0.76,0.5 1.515295,2.75201 1.36,3.75 -3.047082,19.581832 -5.300888,40.023907 -8.351667,59.529948"/><path d="m 52.816406,91.668021 c 0.9425,0.349114 2.621198,0.146563 3.57026,-0.476354 5.54,-3.23 14.792084,-8.941459 20.442084,-11.761459"/><path d="M 68.716042,39.426458 c 0.87,0.21 1.79,0.69 2.64,0.5 C 73.746042,39.386458 81.82,37 84.15,36.25 c 1,-0.32 2.35,1.5 2.16,3.03 C 85.74,43.77 84,56.5 82.07,73.8 80,92.39 79.5,95.62 89.27,95.62 c 6.24,0 7.04,-1.61 7.21,-11.35"/><path d="M 70,55.08 c 2.89,2.05 7.46,8.44 8.19,11.63"/></svg>