<svg><path d="M11.37,19.62c1,0.19,2.83,0.24,3.83,0.19c6.37-0.33,27.97-2.41,34.14-2.19c1.66,0.06,2.66,0.09,3.5,0.19"/><path d="M14.66,30.12c0.25,0.36,0.5,0.66,0.61,1.1c0.86,3.55,1.89,14.33,2.47,20.71"/><path d="M16.2,31.87c6.06-1.49,29.48-3.65,32.64-3.63c1.41,0.01,2.83,1.85,2.67,2.93c-0.68,4.47-2.25,13.65-3.7,20.09"/><path d="M26.53,21.54c0.66,0.56,1.19,2.51,1.19,3.65c0,9.22,0.16,13.94,0.16,24.07"/><path d="M38.42,20.23c0.21,0.56,1.11,1.49,1.02,4.02c-0.17,4.52-0.52,16.58-0.95,25.01"/><path d="M17.99,50.49c3.67-0.16,25.2-1.98,29.86-2.14"/><path d="M16.3,67.61c0.93,0.4,2.64,0.5,3.57,0.4c7.49-0.82,17.24-2.45,25.87-2.85c1.55-0.07,2.48,0.19,3.26,0.39"/><path d="M31.62,54.62c0.1,0.31,1.43,2.15,1.43,4.14c0,5.05-0.29,16.6-0.29,25.17"/><path d="M14.75,89.39c0.76,1.25,2.65,1.53,3.4,1.25c12.6-4.64,20.6-8.14,31.29-13.1"/><path d="M59.3,21.2c1.05,0.54,2.99,0.67,4.04,0.54c8.41-0.99,22.41-2.99,29-3.23c1.76-0.06,2.81,0.26,3.69,0.53"/><path d="m 67.92,24.25 c 0.76,0.5 1.565481,2.761123 1.36,3.75 -4.068957,19.581832 -8.025888,40.705157 -12.212084,60.211198"/><path d="m 48.842448,91.327396 c 0.9425,0.349114 2.621198,0.146563 3.57026,-0.476354 C 57.952708,87.621042 71.86,80.32 77.51,77.5"/><path d="M70.74,38.54c0.87,0.21,2.29-0.31,3.14-0.5c2.39-0.54,7.44-2.04,9.77-2.79c1-0.32,2.85,1,2.66,2.53C85.74,42.27,84.25,59,82.57,72.8c-2.26,18.57-0.07,20.33,7.7,20.33c6.24,0,7.71-2.87,7.71-8.85"/><path d="M67.85,54.33c2.98,1.74,7.69,7.17,8.44,9.88"/></svg>