<svg><path d="M20.38,15.15c1.13,0.34,3.32,0.65,4.52,0.58c6.46-0.38,17.07-2.47,19.66-2.61c1.28-0.07,2.45,0.87,2.18,1.86c-0.67,2.45-1.54,5.2-2.6,10.64"/><path d="M22.42,27.35c3.24-0.11,15.07-1.12,23.42-1.59"/><path d="M22.49,15.75c0.52,0.41,0.81,1.27,0.64,2.63c-1.38,11.13-3.88,23.38-10.83,31.16"/><path d="M22.59,36.75c0.16,0.49,0.71,1.6,0.76,1.98c0.4,2.72,0.66,9.48,1.23,14.64"/><path d="M23.42,38c4.54-0.55,17.64-2.41,20.74-2.5c1.28-0.03,1.76,1.15,1.59,1.96c-0.7,3.22-2.43,7.17-3.11,11.29"/><path d="M24.83,50.71c3.76-0.23,15.31-1.26,19.82-1.56"/><path d="M66.5,8.59c1.26,0.82,1.88,0.82,1.88,2.73c0,1.91,0,3.54,0,6.05"/><path d="M53.61,19.49c0.94,0.25,2.04,0.29,2.98,0.25c5.31-0.21,18.4-1.57,26.43-1.75c1.57-0.04,2.51,0.12,3.29,0.24"/><path d="M58.58,22.41c2.34,2.77,3.41,5.6,3.62,7.42"/><path d="M78.46,20.29c0.61,0.33,0.2,1.56,0.03,1.8c-1.77,2.51-4.02,6.79-5.24,8.22"/><path d="M50.97,33.79c1.18,0.4,2.56,0.44,3.74,0.4c7.53-0.23,22.78-1.91,31.61-2.14c1.97-0.05,3.15,0.19,4.14,0.39"/><path d="M54.33,43.41c0.97,0.24,2.76,0.31,3.73,0.24c12.36-0.8,14.8-0.96,26.26-1.47c1.62-0.07,2.59,0.12,3.4,0.24"/><path d="M67.88,35.37c0.38,0.21,1.19,1.6,1.27,2.03c0.44,2.46-0.11,16.01-0.13,16.64"/><path d="M18.8,61.61c1.93,0.61,5.47,0.75,7.39,0.61c15.38-1.11,45.05-2.93,57.09-3.2c3.21-0.07,5.14,0.29,6.75,0.6"/><path d="M 42.100208,62.091042 c 0.08,1 -0.22,3.05 -0.45,3.59 -2.47,5.66 -8.90625,23.027292 -10.608542,27.390208"/><path d="M 24.355026,95.346117 c 1.035944,0.30848 2.43278,0.13163 3.283787,-0.0361 8.153468,-1.606504 30.289311,-5.964858 38.289311,-7.214858"/><path d="M42.24,72.04c0.87,0.21,2.27,0.05,3.14,0c8.87-0.54,20.12-2.29,26.27-3.29c1.33-0.22,3.25,1.6,2.66,3.03c-2.56,6.22-3.25,8.98-4.06,14.47c-1,6.75,1.25,11.5,12.5,11c9.24-0.41,11.75-1.5,11.75-9"/><path d="M47.85,77.83c2.71,1.17,7.01,4.81,7.69,6.63"/></svg>