<svg><path d="M53.75,9.25c1,1,1.5,2.25,1.5,4s0,5.38,0,7.75"/><path d="M29.5,23.7c2.38,0.55,4.54,0.3,6.75,0.11c8.76-0.76,28.51-2.9,39.13-3.61c2.64-0.18,5.25-0.31,7.87,0.13"/><path d="M39.75,27.75c3.12,4.5,5.88,9.88,7.5,14.75"/><path d="M70.91,24.5c0.47,0.75,0.44,1.91,0.37,2.4c-0.49,3.41-4.54,12.24-5.77,14.85"/><path d="M23.75,46.8c3.38,0.45,5.81,0.26,8.74-0.04c14.53-1.5,34.07-3.28,50.26-4.13c3.05-0.16,5.98-0.29,9,0.19"/><path d="M28.25,48.25c0.94,0.94,1.32,2.35,1.18,4.06c-1.8,21.19-8.18,36.44-17.93,46.44"/><path d="M45.01,54.12c0.36,0.93,0.36,1.77,0.18,2.77c-0.77,4.26-5.21,13.11-11.29,18.84"/><path d="M45.16,64.9c2.09,0.35,4,0.23,5.6,0.07c6.67-0.64,21.17-2.28,28.24-3.04c1.84-0.2,3.95,0,5.8,0.14"/><path d="M61.29,50.88c0.98,0.98,1.41,2.49,1.41,3.78c0,0.8-0.19,34.84-0.19,39.86"/><path d="M41.91,80.06c1.86,0.51,4.05,0.15,5.93,0c7.18-0.56,20.17-1.96,27.64-2.6c2.05-0.18,4.27-0.21,6.46,0.19"/><path d="M31.3,96.83c3.43,0.7,5.68,0.81,9.08,0.47c12-1.18,33.82-2.49,44.13-3.14c3.16-0.2,6.7,0.06,9.82,0.75"/></svg>