<svg><path d="M29,14.14c1.55,0.6,3.66,1.16,5.43,1.11c2.01-0.06,27.83-2.9,38.06-3.5c4.25-0.25,4.75,2.75,2,5.25C73,18.37,57.15,29.21,54.82,30.42"/><path d="M43.53,24.5c3.42,1.24,12.28,6.01,13.89,9.25"/><path d="M24.94,36.9c0.8,0.78,1.33,1.55,1.6,2.33s0.27,56.37,0.27,58.12"/><path d="M28.14,38.42c8.96-0.32,49.84-3.5,52.21-3.71c4.26-0.39,5.85,2.52,5.32,3.69c-0.51,1.12-0.8,37.5-0.8,53.23c0,11.37-8.32,1.67-10.01,1"/><path d="M28.14,55.87c11.87-0.68,46.09-2.94,55.67-3.52"/><path d="M27.75,72.25c8.51-0.58,46.95-3.01,56.79-3.4"/><path d="M53.23,39.41c1.05,0.37,1.69,1.68,1.9,2.43c0.21,0.75,0,50.47-0.21,55.15"/></svg>