<svg><path d="M19.82,23.74c0.09,1.18,0.09,2.37-0.18,3.51c-1.51,6.62-5.15,17.97-10.74,25.38"/><path d="M19.19,38.93c1.65,0.4,3.29,0.44,4.94,0.14c4.81-0.62,11.79-1.9,16.63-2.73c1.95-0.43,3.92-0.59,5.9-0.49"/><path d="M29.83,13.38c1.02,1.02,1.43,3.12,1.43,4.32c0,0.92,0.03,53.18,0.03,59.93"/><path d="M14.69,57.13c2.31,0.49,4.37,0.33,6.56,0.18c6.04-0.67,15.02-2.3,20.13-2.92c1.54-0.22,3.09-0.55,4.65-0.47"/><path d="M12.68,85.86c1.83,0.86,3.3,0.44,4.97-0.31c11.1-5.04,23.1-11.42,31.21-15.76"/><path d="M52.03,15.56c0.96,0.96,1.52,2.05,1.65,2.96c0.59,4.2,1.71,11.51,2.89,19.88c0.3,2.15,0.61,4.38,0.91,6.63"/><path d="M53.99,16.38c10.09-0.95,30.16-3.46,37.01-4.15c3.63-0.36,4.34,2.19,3.92,4.76c-0.88,5.34-2.06,12.68-3.43,19.22c-0.46,2.18-0.94,4.28-1.44,6.18"/><path d="M72.94,16.38c0.59,0.59,0.73,1.77,0.73,2.57c0,7.92,0.14,15.42,0.14,21.28"/><path d="M56.5,29.45c11-1.2,25.25-2.95,35.07-3.55"/><path d="M58.51,42.65c11.24-1.15,19.38-2.17,30.88-2.83"/><path d="M51.03,58.71c2.47,0.66,5,0.58,7.49,0.16c10.29-1.11,24.79-3.51,30.62-4.33c3.88-0.55,5.23,1.09,4.66,4.71c-1.99,12.74-4.62,23.49-10.08,33.93c-2.62,5.02-4.41,2.58-5.96-0.36"/><path d="M73.35,45.21c0.58,1.77,0.41,3.5-0.02,5.2c-3.07,14.16-7.33,29.65-24.94,42.99"/></svg>