<svg><path d="M20.5,27.7c2.93,1.05,7.07,0.58,10.13,0.31c10.95-0.96,34.42-3.19,48.5-3.78c3.21-0.14,6.46-0.36,9.62,0.32"/><path d="M27.1,41.61c0.96,0.96,1.18,2.14,1.18,3.45c0,0.62-0.02,29.73-0.02,44.69c0,3.71,0,6.55,0.01,7.87"/><path d="M29.21,43.3c9.41-1.02,36.84-3.35,45.05-4.06c4.62-0.4,7.02,0.01,7.02,5.01c0,6.75-0.03,36.13-0.03,45.13c0,11.98-6.09,2.63-7.39,1.91"/><path d="M29.46,57.86c12.79-1.23,40.68-3.16,50.66-3.58"/><path d="M29.19,73.54c9.31-0.91,40.44-3.29,50.85-3.66"/><path d="M52.2,10.3c1.25,1.25,1.57,2.7,1.57,4.35c0,1.02-0.01,51.42-0.01,73.1c0,4.05,0,7.09,0,8.63"/><path d="M68.75,9.5c3.44,1.32,8.89,5.44,9.75,7.5"/></svg>