<svg><path d="M11.25,30.5c1.12,1.12,1.5,2.12,1.65,3.26C13.69,39.98,13.97,58,14.54,71c0.08,1.89,0.16,2.49,0.23,4.25"/><path d="M13.75,32.29c7.37-0.79,21.04-2.87,25.07-3.05c2-0.09,3.01,1.91,2.9,3.93c-0.35,6.55-1.51,24.68-2.05,36.33c-0.07,1.5-0.18,2.62-0.43,3.75"/><path d="M25.31,31.8c0.94,0.95,1.48,2.28,1.47,3.7c-0.02,6.52,0.13,33.79,0.13,34.55"/><path d="M14.43,51.84c2.37-0.37,23.45-2.56,25.41-2.56"/><path d="M15.15,71.79c6.98-0.42,15.85-1.42,24.06-1.88"/><path d="M49,27.6c1.48,0.42,4.18,0.56,5.66,0.42c10.97-1.02,25.72-2.9,37.18-3.63c2.45-0.16,3.91-0.01,5.16,0.41"/><path d="M71.77,29.08c1.2,1.2,2,2.75,2,5.81c0,17.98,0,51.3,0,56.3c0,11.06-6.02,2.81-9.21-0.25"/></svg>