<svg><path d="M39.99,10.5c0.07,0.91,0.24,2.37-0.14,3.66C37.5,22,27.75,37,14.75,49.13"/><path d="M36.5,27.75c1.25,0.75,3,1,5,0.5s41.25-3.75,46.25-4S93.31,24.71,93,30c-0.5,8.5-4.75,42-14.5,64.25c-2.17,4.95-5.25,2.5-9-2.25"/><path d="M23.5,47.41c0.3,0.65,0.31,1.09,0.47,1.89c1.34,6.6,3.04,24.56,3.83,36.7"/><path d="M24.92,48.41c10.64-0.67,29.37-3.28,37.31-3.93c2.92-0.24,4.4,1.67,4.24,3.44c-0.58,6.48-2.59,24.12-3.19,34.26"/><path d="M44.9,47.22c-0.02,0.51-0.03,1.39-0.04,2.55c-0.04,7.65,0.19,27.27,0.19,30.05"/><path d="M26.82,64.82c3.47-0.32,34.41-3.24,37.27-3.24"/><path d="M28.36,82.79C38,81.5,53,80,63.38,79.14"/></svg>