<svg><path d="M14.24,31.04c0.21,0.76,1.21,1.76,1.33,2.69c0.94,7.64,1.32,28.19,1.9,42.24"/><path d="M15.72,32.72c7.26-0.59,20.21-2.09,25.63-2.7c1.99-0.23,3.01,2,2.91,4.04c-0.37,7.47-1.8,27.84-2.71,40.28"/><path d="M28.3,32.99c0.45,0.51,1.03,2.13,1.04,2.75c0.21,10.35,0.09,28.59,0.09,34.7"/><path d="M17.07,52.3c2.37-0.31,23.15-2.03,25.1-1.98"/><path d="M17.84,72.5c5.23,0.12,16.48-1.23,23.7-1.26"/><path d="M63.35,15.64c0.04,0.77,0.23,2.03-0.07,3.09c-1.92,6.78-7.13,22.14-13.78,31.52"/><path d="M59.72,37.97c0.03-0.22,1.79,0.63,2.42,0.57c6.58-0.65,17.84-2.98,27.89-4.02c1.13-0.12,1.82-0.03,2.11,0.11"/><path d="M78.76,44.43c0.59,1.24,0.91,2.13,0.29,4.4C73.46,69.43,60.74,87.85,42.37,95"/><path d="M54.75,54C61,57.99,79.72,83.75,90.27,92.18c2.03,1.62,3.32,1.89,4.98,2.07"/></svg>