<svg><path d="M11.24,24.73c0.19,0.89,1.12,2.08,1.23,3.17c0.87,9.02,1.22,33.25,1.76,49.82"/><path d="M12.6,26.21c6.72-0.7,17.66-1.77,22.71-2.19c3.18-0.27,3.79,1.86,3.69,4.27c-0.35,8.81-1.67,32.84-2.51,47.51"/><path d="M24.24,27.02c0.42,0.61,0.95,2.52,0.96,3.25c0.19,12.21,0.08,33.72,0.08,40.93"/><path d="M14.36,49.3c2.19-0.37,20.91-1.9,22.72-1.84"/><path d="M14.58,74.12c4.84,0.15,15.25-1.45,21.92-1.49"/><path d="M49.39,33.71c2.07,0.59,4.29,0.69,5.27,0.63c9.71-0.59,24.61-3.11,33.35-2.88c1.62,0.04,2.59,0.3,3.4,0.61"/><path d="M44.15,56.48c2.12,0.35,3.85,0.52,6.48,0.38c15.04-0.82,35.26-2.95,44.25-2.81c1.66,0.02,2.66,0.18,3.49,0.37"/><path d="M67.17,13.75c0.48,1.27,1.22,1.92,1.25,4.37c0.67,47.05-8.17,65.63-28.67,78.38"/><path d="M68.18,55.62c6.47,11.4,17.84,29.49,25.09,36.46c2.09,2.01,2.6,2.72,3.48,2.95"/></svg>