<svg><path d="M12.24,25.38c0.21,0.82,1.21,1.91,1.33,2.92c0.94,8.31,1.32,30.64,1.9,45.91"/><path d="M13.72,27.2c7.26-0.65,20.21-2.27,25.63-2.94c1.99-0.25,3.01,2.18,2.91,4.4c-0.37,8.12-1.3,30.26-2.21,43.78"/><path d="M26.3,27.5c0.45,0.56,1.03,2.32,1.04,2.99c0.21,11.25,0.09,31.08,0.09,37.72"/><path d="M15.07,48.49c2.37-0.34,23.15-2.21,25.1-2.15"/><path d="M15.84,70.45c5.23,0.14,16.98-1.34,24.2-1.37"/><path d="M68.81,9.25c0.06,0.96,0.22,2.53-0.13,3.88C66.5,21.47,57.52,39.9,45.5,50.25"/><path d="M68.5,15.5c5.22,7.79,18.13,22.98,24.85,29.2c1.49,1.37,3.23,2.13,4.65,2.55"/><path d="M58.68,48.75c0.59,1.33,1.42,2.38,1.42,4.04c0,15.2,0.53,34.94-17.54,45.43"/><path d="M79.62,48.25c1.09,0.5,1.74,2.25,1.96,3.25c0.22,1,0,41.25-0.22,47.5"/></svg>