<svg><path d="M26.73,16.38c0.9,0.87,1.17,2.03,1.34,3.11c0.99,6.39,2.32,13.98,3.48,21.86c0.23,1.54,0.45,3.09,0.66,4.65"/><path d="M28.9,17.18C41,16,65.39,13.24,74.75,12.73c3.52-0.2,5.24,1.12,4.76,4.53c-0.65,4.6-2.16,13.96-3.72,20.88c-0.4,1.79-0.81,3.41-1.2,4.75"/><path d="M52.43,16.78c0.7,0.84,0.71,2.12,0.71,3.06c-0.01,6.41-0.01,11.41-0.01,20.66"/><path d="M31.63,30.3c13.87-1.43,31.74-3.3,44.79-3.8"/><path d="M32.86,43.75C44.5,42.43,60.5,41,73.94,40.17"/><path d="M15.75,56.4c3,0.97,6.06,0.68,9.25,0.29c17.25-2.07,41.69-4.41,58.13-5.6c2.84-0.21,5.85-0.24,8.62,0.49"/><path d="M32.01,58.87c0.99,0.88,1.19,2.4,1.19,3.75c0,5.14-0.1,24.04-0.08,29.51c0.01,2.96,1,3.25,3.63,1.67c3.89-2.33,9.74-6.55,16.44-10.64"/><path d="M77.51,58.92c-0.01,1.45-0.5,2.38-1.61,3.49c-2.98,2.95-7.15,6.5-10.15,8.59"/><path d="M44.85,60.57c6.87,0.96,29.66,23.35,37.16,28.78c2.76,2,6.86,4.26,10.3,4.95"/></svg>