<svg><path d="m17.397158,16.422312c2.812077,0.394863,8.011385,0.327172,10.823462,0.112818,15.982307,-1.184589,35.201538,-2.876858,53.914999,-3.610175,4.673308,-0.180509,7.525846,-0.09025,9.872615,0.112818"/><path d="m20.431774,29.046643c1.638692,0.913826,2.893,2.120978,3.196461,3.192749,1.780308,3.023521,3.378539,6.960868,4.693539,11.315642,0.364153,1.173307,0.687846,2.391741,1.011538,3.621457"/><path d="m24.902774,30.874294c15.557461,-1.365097,37.770845,-3.249157,56.221307,-4.106574,7.485384,-0.349736,9.731,1.162025,7.687692,5.155781-1.638692,3.204031-3.419,5.223472-5.765769,9.205947"/><path d="m31.073158,45.314994c8.982462,-0.496399,33.320077,-1.906623,48.796615,-2.696349,2.852538,-0.146664,5.381385,-0.270763,7.485385,-0.361018"/><path d="m16.38562,58.796742c1.254308,0.699471,2.387231,1.861496,2.569308,2.651222,1.517307,7.062405,3.540384,17.983184,5.199307,28.373719,0.242769,1.477916,0.465308,2.944549,0.687846,4.377338"/><path d="m20.492466,60.601829c23.204692,-1.669706,48.452692,-3.339412,63.726922,-4.08401,8.132769,-0.394863,11.470846,0.473835,10.803231,5.246035-0.910385,6.385497-3.014385,16.460142-5.219538,25.248662-0.303462,1.229716-0.627154,2.436868-0.950847,3.598893"/><path d="m54.844312,60.714647c1.557769,0.868699,2.12423,2.493277,2.12423,4.151701,0,7.885977,0.161847,18.603684,0.161847,23.928692"/><path d="M23.931697,75.211756C39.914004,74.162549,81.62985,71.770808,90.875311,71.725681"/><path d="M26.844927,91.468826C44.951466,90.667818,69.228389,89.257594,86.970773,88.806322"/></svg>