<svg><path d="M15.54,28.46c0.88,0.88,0.96,1.79,1.11,3.03c0.85,6.97,0.97,22.67,1.38,36.5c0.06,1.98,0.12,3.92,0.2,5.76"/><path d="M17.64,29.92c8.71-1.41,19.21-2.72,25.64-3.48c2.92-0.35,5.12,0.53,4.92,3.95c-0.39,6.7-1.3,22.32-1.84,34.36c-0.09,2.02-0.17,3.94-0.24,5.69"/><path d="M30.61,30.44c1.16,1.16,1.23,2.18,1.22,3.59c-0.03,9.23-0.08,31.37-0.08,34.72"/><path d="M18.86,49.34c6.77-1.22,21.64-2.97,27.23-3.2"/><path d="M19.16,71.43c8.09-1.18,16.84-2.31,26.02-2.99"/><path d="M56,24.62c2.55,2.21,6.58,9.11,7.22,12.55"/><path d="M93.72,19.98c0.09,0.98-0.05,1.92-0.42,2.83c-1.92,3.56-4.37,7.79-8.21,12.69"/><path d="M56.87,45.9c2.09,0.69,4.13,0.5,6.28,0.27c6.02-0.63,17.47-2.39,26.1-2.78c1.88-0.09,3.31,0.09,5.12,0.45"/><path d="M53.58,63.26c2.79,0.62,4.6,0.46,6.79,0.17c8.12-1.06,19.87-2.43,30.75-2.99c2.23-0.11,4.11,0.06,6.29,0.55"/><path d="M73.15,12c1.05,1.05,1.42,2.38,1.42,3.68c0,0.85,0.08,50.98,0.05,71.82c-0.01,3.65-0.01,6.37-0.01,7.75"/></svg>