<svg><path d="M41.07,11.69c0,0.69-0.1,1.38-0.94,2.06c-4.01,3.25-8.68,6.14-14.99,9.14"/><path d="M21.12,23.1c0.77,0.77,1.32,1.4,1.32,2.59c0,0.81,0.15,17.07,0.15,20.95c0,3,0.66,3.62,3.43,1.91c4.93-3.04,13.1-8.41,18.3-11.81"/><path d="M40.78,29.37C45,34,48.38,39,50.81,44.65"/><path d="M57.94,17.74c1.12,0.41,2.53,0.36,3.51,0.22c7.98-1.14,20.44-4.34,24.87-4.76c2.88-0.27,4.31,1.17,4.19,4.27c-0.19,5.06-3.76,21.65-7.44,28.63c-2.37,4.49-4.26,1.86-6.41-0.87"/><path d="M69.43,20.25c0.32,0.75,0.39,1.79,0.17,2.74c-2.22,9.39-6.1,19.26-14.05,27.9"/><path d="M25.19,61.37c0.9,0.91,1.44,2.17,1.58,3.15C28,73.12,29,82.62,30.2,93.74c0.17,1.55,0.27,3.06,0.4,4.51"/><path d="M27.36,63.34c17.89-2.09,41.39-4.24,52.16-4.87c3.96-0.23,5.87,2.28,5.5,5.6c-0.78,7.05-2.12,17.31-4.09,27.66c-0.26,1.36-0.53,2.7-0.8,4"/><path d="M52.95,62.16c0.82,0.82,1.19,2.21,1.19,3.58c0,7.95,0.01,24.57,0.01,27.17"/><path d="M29.94,78.32C41,77.38,64.5,75,82.79,74.39"/><path d="M31.6,95.58c12.4-0.83,34.15-2.21,47.91-2.6"/></svg>