<svg><path d="M28.99,17.75c1,1,1.4,2.4,1.4,3.95s-0.01,9.28-0.01,12.67"/><path d="M8.2,37.86c2.37,0.47,4.92,0.38,7.32,0.02c7.69-1.16,20.01-3.31,28.25-4.15c2.18-0.22,4.67-0.7,6.79,0.09"/><path d="M13.74,49.96c0.9,0.9,1.36,1.92,1.39,3.41c0.12,7.76,0.87,30.13,1.08,36.89"/><path d="M16.14,51.91c8.99-1.55,17.77-3.29,25.36-4.22c3.21-0.39,5.16,0.44,4.95,3.94c-0.35,6.07-0.7,19.4-1.55,29.86c-0.17,2.05-0.34,4-0.51,5.75"/><path d="M29.34,52.37c0.71,0.71,1.09,2.29,1.09,3.63c0,9.75,0.06,23.04,0.06,28.07"/><path d="M16.74,68.38c5.51-0.88,20.63-3.26,27.89-3.7"/><path d="M17.16,86.98c9.47-1.35,17.71-2.2,26.24-2.92"/><path d="M65.98,17c0.14,1,0.01,2.08-0.33,3.3c-2.28,8.2-5.9,20.7-13.38,32.95"/><path d="M65.56,30.63c1.56,0.37,2.65,0.34,3.87,0.1c1.84-0.36,4.8-1.33,6.84-1.88c2.08-0.56,3.81-0.25,3.28,2.4c-2.61,13-12.93,44.5-29.81,58"/><path d="M72.27,57c4.35,7.12,10.85,16.62,17.8,24.89c1.5,1.78,3.42,4.23,6.42,6.61"/></svg>