<svg><path d="M12.74,28.54c0.21,0.76,1.21,1.76,1.33,2.69c0.94,7.64,1.32,38.69,1.9,52.74"/><path d="M14.22,30.22c7.26-0.59,19.21-2.09,24.63-2.7c1.99-0.23,3.01,2,2.91,4.04c-0.37,7.47-1.3,37.34-2.21,49.78"/><path d="M26.3,29.49c0.45,0.51,1.03,2.13,1.04,2.75c0.21,10.35,0.09,41.09,0.09,47.2"/><path d="M15.57,54.8c2.37-0.31,22.15-2.03,24.1-1.98"/><path d="M16.34,80.5c6.66-0.5,15.48-1.73,22.7-1.76"/><path d="M50.69,30.04c1.05,0.27,2.95,0.33,4.01,0.27c10.55-0.52,18.59-3.07,32.87-3.26c1.74-0.02,2.79,0.13,3.66,0.27"/><path d="M68.38,11.87c0.1,0.32,1.38,1.68,1.48,3.72c0.47,9.82-0.3,28.28-0.3,31.62"/><path d="M46.63,48.31c1.4,0.66,3.97,0.79,5.39,0.66c12.42-1.18,29.24-2.97,41.95-4.11c2.33-0.21,3.75,0.31,4.92,0.64"/><path d="M47.75,64.49c1.24,0.46,3.51,0.54,4.77,0.46C66.57,64,82,61.75,94.31,61.56c2.07-0.03,3.32,0.22,4.35,0.44"/><path d="M81.51,51.83c0.46,0.71,1.24,2.19,1.29,4.87c0.24,12.84-0.67,31.27-0.67,35.64c0,10.49-6.05,2.11-7.38,0.75"/><path d="M57.25,72.75c3.86,1.88,8.8,6.82,9.77,9.75"/></svg>