<svg><path d="M51.43,11.25c0.47,0.58,0.22,1.87-0.07,2.31c-2.36,3.69-5.88,9.72-11.08,13.76"/><path d="M32.31,28.19c0.73,0.68,1.46,1.52,1.46,2.42c0,0.9,2.72,19.64,3.78,25.64"/><path d="M34.21,29.29c5.29-0.54,35.38-3.62,39.13-3.82c2.38-0.12,3.35,0.74,3.34,2.17c-0.01,2.43-3.63,18.46-4.41,25.91"/><path d="M36.16,40.9c8.63-0.34,32.22-2.62,38.52-2.62"/><path d="M37.49,53.51c10.33-0.36,23.92-2.23,34.93-2.4"/><path d="M22.3,66.04c0.45,0.6,0.95,1.99,1.19,2.73c2.04,6.2,3.77,19.15,4.93,30.23"/><path d="M23.9,68.45c17.85-2.2,49.27-4.1,60.99-5.22c2.36-0.23,3.81,1.58,3.28,4.15c-1.42,6.87-3.17,17.37-6.48,29"/><path d="M52.97,67.78c0.78,0.72,0.95,1.28,0.94,2.34c-0.06,7,0.28,21.47,0.28,24.01"/><path d="M26.21,81.44c5.13-0.29,55.19-4.05,59.42-4.05"/><path d="M28.75,95.93c14.5-0.93,37-2.18,54.08-3.01"/></svg>