<svg><path d="M26.49,13.77c0.41,0.38,0.42,0.65,0.64,1.13c1.83,3.95,3.56,13.94,4.69,21.31"/><path d="M28.39,14.3c14.21-1,40.06-2.19,50.66-3.02c3.9-0.31,4.44,0.72,4.19,3.37c-0.38,4.04-2.54,12.84-4.33,19.5"/><path d="M53.98,13.22c0.51,5.14,0.25,16.36,0.25,19.79"/><path d="M31.04,24.52c4.63-0.39,46.28-2.74,50.11-2.9"/><path d="M32.56,35.13c11.69-0.88,32.24-2.2,46.36-2.89"/><path d="M14.25,52.2c1.85,0.54,5.25,0.68,7.1,0.54c19.73-1.49,47.77-4.74,68.42-4.73c3.09,0,4.94,0.26,6.48,0.53"/><path d="M30.25,42c1.67,1.21,2.2,1.58,2.38,2.33c1.66,6.99,2.65,13.63,3.12,16.17"/><path d="M77.91,39.25c0.65,1.09,1.48,2.31,1.04,3.69c-1.54,4.84-1.93,8.15-3.85,15.06"/><path d="M19,67.96c1.74,0.43,3.77,0.57,5.5,0.43c17.33-1.4,42.89-3.9,61.68-4.73c2.89-0.13,4.63,0.21,6.08,0.42"/><path d="M27.5,80.96c1.55,0.43,3.35,0.57,4.89,0.43c15.42-1.4,31.48-3.4,48.2-4.23c2.57-0.13,4.12,0.21,5.41,0.42"/><path d="M52.87,36.25c1.09,0.5,1.74,2.25,1.96,3.25c0.22,1,0,52.75-0.22,59"/></svg>