<svg><path d="M13.39,25.79c0.86,1.21,1.22,2.02,1.34,3.13c0.94,9.2,1.02,32.09,1.37,48.98"/><path d="M15.03,27.22c8.76-0.52,17.28-2.38,23.83-2.97c2.4-0.22,3.58,2.49,3.4,4.93c-0.64,8.96-1.27,31.89-2.68,46.8"/><path d="M27.28,25.9c0.47,0.85,1.01,3.01,1.01,3.86c0.03,12.76-0.14,37.32-0.3,44.61"/><path d="M16.17,50.27c2.86-0.31,21.43-1.81,23.79-1.71"/><path d="M16.59,75.54c6.3,0.29,13.38-1.54,22.08-1.38"/><path d="M49.14,22.26c1.6,0.27,3.39,0.62,4.44,0.58c14-0.59,19.84-1,33.63-1.82c1.32-0.08,3.54,0.23,5.16,0.44"/><path d="M68.73,10c0.31,0.47,0.48,1.01,0.46,2.03C68.87,25.98,62.5,40,50.12,43.75"/><path d="M71.62,27c6.86,3.04,14.81,7.96,19,12.5"/><path d="M47,49.01c1.56,0.51,4.42,0.63,5.98,0.51c9.29-0.72,27.42-1.63,40.32-2.3c2.59-0.13,4.16,0.24,5.46,0.5"/><path d="M51.82,60.15c0.31,0.34,0.63,0.61,0.77,1.03c1.09,3.33,2.38,13.43,3.12,19.4"/><path d="M52.77,61.76c6.41-1.09,13.68-2.44,17.35-2.87c1.34-0.16,2.14,0.95,1.95,1.88c-0.79,3.88-1.32,9.23-1.9,15.88"/><path d="M55.86,78.73c4.3-0.5,10.24-0.85,16.15-1.61"/><path d="M84.05,49.97c0.06,0.53,1.24,2.75,1.31,6.1c0.3,16.08-0.19,30.27-0.19,35.75c0,12.93-6.16,2.68-8.47,0.78"/></svg>