<svg><path d="M33.46,12.25c0.29,1.16,0.13,2.18-0.65,3.28c-2.56,3.63-5.25,7.8-8.9,12.46c-1.67,2.13-1.54,2.51,0.82,3.17c2.01,0.56,5.14,1.84,8.36,3.89"/><path d="M42.94,22.56c0.31,1.07,0.06,2.07-0.75,3.18C36.71,33.3,31.75,39,24.49,45.93c-1.65,1.58-0.61,3.19,1.43,2.5c4.31-1.46,10.21-3.18,16.83-5.43"/><path d="M40.7,36.8c2,1.84,5.41,7.58,5.91,10.45"/><path d="M73.32,11.25c0.06,1.62-0.4,2.59-1.14,3.64c-2.3,3.24-3.92,5.74-6.78,9.16c-1.25,1.49-1.16,2.34,0,2.77c1.63,0.61,4.98,2.18,7.54,3.49"/><path d="M85.2,16.81c0,1.32-0.63,2.39-1.25,3.18c-6.57,8.39-11.53,12.03-18.46,19.2c-1.59,1.64,0.39,2.59,1.43,2.25c4.34-1.4,12.26-3.34,17.83-4.68"/><path d="M82.7,31.8c2.34,2.07,6.57,8.22,7.16,11.45"/><path d="M16.5,59.23c4.11,0.84,8.09,0.22,12.26-0.39c18.5-2.71,36.66-4.66,53.5-5.87c4.32-0.38,8.65-0.34,12.99,0.1"/><path d="M21.49,70.45c1.09,1.09,1.36,2.04,1.51,3.33c1.12,4.83,2.25,12.84,3.47,20.43"/><path d="M23.46,71.26c8.58-1.67,18.6-3.64,24.28-4.59c2.08-0.35,4.36,1.13,4.15,3.2c-0.49,4.84-2.26,14.15-3.1,20.65"/><path d="M36.85,70.37c0.7,0.7,1.02,1.76,1.02,2.88c0,5.96-0.12,12.92-0.12,16.12"/><path d="M25.32,80.84c7.3-1.09,17.05-2.71,24.1-3.35"/><path d="M27.1,91.82c6.65-0.94,14.48-1.83,21.7-2.56"/><path d="M50.75,8.25c1.79,1.94,2.06,3.73,2.41,7.91C56,49.62,66.14,83.17,87.24,96.14c6.97,4.28,6.99,1.54,6.09-7.06"/><path d="M79.22,59.18c0.09,0.86-0.06,1.98-0.43,3.22c-2.2,7.32-12.91,24.77-30.23,34.6"/><path d="M74.25,43.53c1.96,1.1,5.09,3.61,6,5.5"/></svg>