<svg><path d="M9.74,23.2c0.19,0.87,1.13,2.03,1.24,3.1c0.88,8.81,1.23,34.48,1.77,50.67"/><path d="M11.12,25.13c6.78-0.69,18.86-2.4,23.92-3.12c1.86-0.26,2.81,2.31,2.72,4.66c-0.35,8.61-1.68,32.58-2.53,46.91"/><path d="M22.86,25.44c0.42,0.59,0.96,2.46,0.97,3.17c0.19,11.93,0.08,34.94,0.08,41.99"/><path d="M12.38,47.69c2.21-0.36,21.6-2.34,23.43-2.28"/><path d="M13.1,72.97c4.88,0.14,15.38-1.92,22.12-1.96"/><path d="M43.82,18.56c0.24,0.03,1.54,0.26,2.22,0.19c3.07-0.33,11.18-3.07,14.4-3.91c2.21-0.58,2.83,0.66,2.27,2.24C59.62,25.7,56,37.75,43,50"/><path d="M46.15,27.74C52.1,31.68,58.7,38.93,61.64,45.1"/><path d="M70.32,17.31c0.24,0.03,1.54,0.26,2.22,0.19c3.07-0.33,12.18-3.57,15.4-4.41c2.21-0.58,2.83,0.66,2.27,2.24c-3.09,8.63-9.96,23.93-22.71,32.43"/><path d="M71.39,26.74c7.58,4.22,16,12,19.74,18.61"/><path d="M43.07,60.06c0.24,0.03,1.54,0.26,2.22,0.19c3.07-0.33,11.68-2.57,14.9-3.41c2.21-0.58,2.83,0.66,2.27,2.24c-3.09,8.63-9.21,22.18-22.71,32.43"/><path d="M43.39,67.74c6.53,4.28,13.77,12.16,16.99,18.86"/><path d="M69.13,59.11c0.38,0.04,2.43,0.35,3.52,0.25c4.86-0.45,11.24-2.59,16.34-3.72c3.5-0.77,4.49,0.88,3.6,2.99c-4.9,11.52-12.12,26.28-32.34,37.63"/><path d="M67.75,65.75c3.78,4.8,20.92,23.03,26.02,27.42c1.52,1.31,2.75,1.94,4.23,2.33"/></svg>