<svg><path d="M27.85,13.89c0.82,0.82,0.95,2.23,1.15,3.24c1.87,9.5,2.71,14.21,3.78,22.85c0.17,1.38,0.32,2.74,0.45,4.03"/><path d="M30.08,16.45c17.04-2.2,35.29-3.95,46.87-4.72c2.43-0.16,3.68,1.77,3.17,4.29c-1.03,5.14-2.89,13.7-5.44,21.79c-0.35,1.1-0.71,2.21-1.09,3.3"/><path d="M53.18,15.8c0.95,0.95,1.2,2.33,1.2,3.45c0,6.99-0.02,12-0.02,19.76"/><path d="M32.39,29.18c8.23-1.06,37.73-3.68,44.31-3.82"/><path d="M34.42,41.86C46,40.5,64.25,39.5,73.21,39.02"/><path d="M26.35,56.7c2.32,0.64,4.71,0.14,7.04-0.11c9.12-0.96,29.62-3.21,40.24-4.12c2.41-0.21,4.86-0.24,7.25,0.15"/><path d="M41.22,49.55c0.8,0.8,1.02,2.23,1.02,2.79c0.01,5.66,0.01,12.16,0,19.21"/><path d="M66.24,45.5c0.76,0.76,1.01,1.88,0.94,2.93C66.4,58.71,66,62,65.36,69.74"/><path d="M15.73,74.13c3.15,0.85,6.58,0.35,9.78,0.07c13.13-1.14,44.37-4.17,58.36-4.92c3.01-0.16,5.92-0.25,8.9,0.24"/><path d="M39.41,81.33c0.09,0.92,0.02,1.92-0.86,3.06c-2.88,3.72-9.9,8.83-17.61,12.96"/><path d="M65.84,80.53C72.75,85,79.12,91.75,82.92,98.47"/></svg>