<svg><path d="M33.27,13.5c0.27,0.37,0.79,1.01,0.93,1.46c1.21,3.71,2.82,10.22,3.53,17.05"/><path d="M34.05,14.06c10.15-0.97,29.22-2.57,36.43-2.56c2.27,0,2.99,1.94,2.85,2.93c-0.53,3.64-1.63,10.42-3.42,16.24"/><path d="M51.84,13.49c0.76,0.8,1.32,1.64,1.31,2.3c-0.04,4.29,0.17,11.74,0.17,13.29"/><path d="M36.79,21.97c3.14-0.18,32.78-2.05,35.37-2.05"/><path d="M37.73,30.24c6.94,0,22.68-1.85,32.27-1.95"/><path d="M20.27,39.41c0.2,0.33,0.57,0.9,0.68,1.31c0.88,3.32,2.54,9.15,3.06,15.27"/><path d="M20.84,39.91c7.37-0.87,20.73-2.4,25.95-2.73c1.92-0.12,2.9,0.84,2.79,1.73c-0.38,3.26-1.41,9.76-2.71,14.98"/><path d="M34.62,39.4c0.55,0.71,0.95,1.47,0.95,2.06c-0.03,3.85-0.25,10.51-0.25,11.91"/><path d="M23.33,47c2.28-0.16,23.3-1.84,25.18-1.84"/><path d="M24.01,54.41c5.04,0,16.33-1.66,23.29-1.74"/><path d="M56.77,36.34c0.21,0.33,0.6,1.35,0.71,1.75c0.93,3.36,2.15,9.26,2.69,15.45"/><path d="M57.37,37.28c7.74-0.88,21.29-1.92,26.78-2.25c2.02-0.12,3.04,0.85,2.93,1.75c-0.4,3.29-2,9.87-3.37,15.15"/><path d="M71.32,36.76c0.58,0.72,1,1.49,1,2.08c-0.03,3.89-0.26,10.64-0.26,12.05"/><path d="M59.45,44.44c2.4-0.16,23.5-1.36,25.48-1.36"/><path d="M60.17,51.94c5.29,0,16.68-1.18,23.99-1.26"/><path d="M19.41,60.38c0,3.54-2.35,13.26-3.41,15.62"/><path d="M20.74,62.24c9.51-0.99,57.74-4.03,65.45-4.4c12.05-0.59,2.55,7.16-0.45,9.28"/><path d="M36.9,67.22c0.64,0.86,1.07,1.71,1.29,2.54c0.22,0.84,0.47,22.75,0.39,24.61"/><path d="M39.45,68.67c2.54-0.09,25.85-2.48,27.74-2.62c3.39-0.25,4.68,2.91,4.26,4.14c-0.4,1.17-0.2,4.91-0.32,21.68"/><path d="M39.54,77.76c8.68-0.83,22.87-2.02,30.5-2.28"/><path d="M40.05,86.09c6.78-0.3,21.61-1.46,29.44-1.5"/><path d="M18.23,96.25c1.41,0.4,3.99,0.46,5.4,0.4c14.66-0.66,37.91-3.47,64.88-3.58c2.35-0.01,3.76,0.19,4.93,0.39"/></svg>