<svg><path d="M10.72,24c1.2,0.5,2.9,0.76,4.15,0.5c9.67-2.05,13.75-3.25,20.75-4.9c3.33-0.79,5.21,0.92,2.48,3.75c-3.25,3.36-4.98,5.29-8.09,8.4"/><path d="M25.62,33c1,1,1.21,2.5,1.21,3.75c0,1.05,0.03,29.25,0.03,38"/><path d="M27.88,49.75c3.87-0.25,6.12-0.75,9.35-1.5c1.7-0.39,2.18-0.25,3.26,0"/><path d="M13.12,54.5c1,1,1.38,2.12,1.46,3.75c0.05,1.02,0.67,16,1.03,23.5"/><path d="M10,83.25c1.25,1.25,2.59,1.25,4.04,0.4C19.44,80.52,33.25,72,40.5,67.75"/><path d="M48.22,27.61c2.15,0.39,4.1,0.53,5.65,0.28c7.87-1.27,20.67-3.25,27.73-4.03c1.74-0.19,3.42-0.38,5.13,0.09"/><path d="M46.49,40.7c0.78,0.78,1.31,1.45,1.42,2.38c0.8,2.8,1.86,7.28,2.69,11.55c0.28,1.42,0.51,2.81,0.67,4.07"/><path d="M48.63,41.94c11.75-2.69,26.85-4.76,33.26-5.6c3.53-0.46,5.78,0.56,4.9,4.66c-1.04,4.87-1.54,6.49-2.38,11.2"/><path d="M52.41,56.56c7.33-1.01,20.09-2.81,29.1-3.72c1.76-0.18,3.35-0.32,4.69-0.42"/><path d="M65.5,12.75c1.25,1.25,1.75,2.62,1.75,4c0,0.69,0.03,52.85,0.02,74c0,5.21-0.01,8.54-0.02,8.75"/><path d="M64.67,55.82c0,1.68-0.54,2.96-1.53,4.67c-5.54,9.58-14.02,19.39-23.03,25.27"/><path d="M67.99,55.6C71.75,60.75,81,71.25,88.14,78.74c2.15,2.26,4.24,4.26,7.26,5.92"/></svg>