<svg><path d="M31.27,13.92c0.24,0.4,0.7,1.09,0.83,1.58c1.07,4.02,2.49,11.09,3.12,18.5"/><path d="M31.96,14.53c8.98-1.05,33.85-2.38,40.22-2.78c2.34-0.14,3.53,1.02,3.4,2.1c-0.47,3.95-2.82,11.31-4.41,17.63"/><path d="M52.19,13.91c0.68,0.86,1.16,1.78,1.16,2.49c-0.03,4.66,0.15,12.74,0.15,14.43"/><path d="M34.38,23.11c2.78-0.19,36.49-2.23,38.78-2.23"/><path d="M35.22,32.09c6.14,0,27.5-2.01,35.98-2.11"/><path d="M28.75,37c3.79,1.15,9.8,4.72,10.75,6.5"/><path d="M25,54.66c0.62,0.78,1.77,1.52,3.7,0.67c7.55-3.33,11.55-5.08,18.55-8.27"/><path d="M79.77,33.14c0.04,0.19,0.08,0.49-0.07,0.76c-0.87,1.61-5.84,5.15-12.64,7.31"/><path d="M59.5,45.75c8.12,1.28,20.97,5.26,23,7.25"/><path d="M20.91,59.63c0,3.48-3.03,13.05-4.41,15.37"/><path d="M20.74,62.74c9.51-0.99,57.74-4.03,65.45-4.4c12.05-0.59,2.55,6.66-0.45,8.78"/><path d="M37.9,68.22c0.64,0.86,1.07,1.71,1.29,2.54c0.22,0.84,0.47,22.75,0.39,24.61"/><path d="M40.45,69.17c2.54-0.09,25.85-1.98,27.74-2.12c3.39-0.25,4.68,2.91,4.26,4.14c-0.4,1.17-0.2,4.91-0.32,21.68"/><path d="M40.54,78.76c8.68-0.83,22.87-2.02,30.5-2.28"/><path d="M41.05,87.09c6.78-0.3,21.61-1.46,29.44-1.5"/><path d="M18.23,96.95c1.66,0.47,4.71,0.54,6.37,0.47c17.3-0.78,32.94-3.51,64.77-3.63c2.77-0.01,4.43,0.22,5.82,0.46"/></svg>