<svg><path d="M54.88,10.38c0.71,0.36,2.23,2.72,2.37,3.44c0.14,0.73,0.07,4.39-0.07,8.92"/><path d="M24.38,24.64c1.73,0.39,4.89,0.45,6.61,0.39c17.95-0.65,38.12-3.24,54.1-3.74c2.87-0.09,4.6,0.19,6.04,0.38"/><path d="M31.99,25.5c0,1.18,0,2.35-0.01,3.5c-0.27,32.91-4.43,51.74-17.42,65.72"/><path d="M14.75,38c2.74,1.63,7.07,6.71,7.75,9.25"/><path d="M11.17,66.01c1.46,0.72,1.91,0.51,3.2-0.37c5.2-3.55,8.2-5.82,12.13-8.89"/><path d="M38.75,44.08c1.76,0.56,5,0.75,6.76,0.56c9.48-0.99,31-2.49,41.07-3.48c2.92-0.29,4.7,0.27,6.17,0.55"/><path d="M65.52,45.49c0.73,0.92,1.75,2.5,1.75,5.56c0,21.45-0.25,35.05-0.25,40.05c0,10.15-6.06,2.43-7.46,1.25"/></svg>