<svg><path d="M55.31,12.13c0.76,0.38,2.36,2.88,2.51,3.65c0.15,0.77,0.08,4.15-0.07,8.96"/><path d="M25.63,26.33c1.6,0.44,4.54,0.51,6.14,0.44c16.67-0.73,40.67-3.66,55.5-4.24c2.67-0.1,4.27,0.21,5.61,0.43"/><path d="M31.99,27.5c0,1.1,0,2.18-0.01,3.25c-0.12,32.98-2.25,50.65-17.93,62.97"/><path d="M13.75,38.5c3.79,1.81,9.8,7.44,10.75,10.25"/><path d="M11.17,67.54c1.53,0.67,2.01,0.47,3.35-0.34c5.45-3.28,8.6-5.37,12.72-8.2"/><path d="M60.74,36c0.76,0.47,2.51,2.75,2.51,4.49c0,0.96-0.1,43.76-0.25,49.68"/><path d="M41.68,61.71c0.83,0.52,1.78,2.72,1.66,3.76c-0.55,4.63-1.55,13.25-3.19,24.51c-0.34,2.35,0.71,3.83,2.74,3.25c6.57-1.91,35.07-4.22,45.47-4.51"/><path d="M87.24,57.13c0.76,0.48,1.51,3.53,1.51,4.49C88.75,69,88.5,82,88.5,95.96"/></svg>