<svg><path d="M55.41,11.13c0.7,0.36,2.18,2.66,2.32,3.37c0.14,0.71,0.07,4.3-0.07,8.74"/><path d="M25.13,24.73c1.52,0.54,4.3,0.63,5.82,0.54c15.8-0.91,42.05-3.02,56.11-3.73c2.53-0.13,4.05,0.26,5.31,0.53"/><path d="M31.49,26.5c0,35.48-3.72,48.8-16.69,66.47"/><path d="M14.25,36.5c2.74,1.63,7.07,6.71,7.75,9.25"/><path d="M10.17,66.07c1.44,0.61,1.88,0.43,3.15-0.31c5.11-3,8.06-4.92,11.93-7.51"/><path d="M61.44,29.75c0.08,0.76,0.26,1.99-0.16,3.04C58.72,39.33,48.15,53.78,34,61.9"/><path d="M61.02,33.74c6.06,6.46,21.04,19.06,28.84,24.21c1.72,1.14,3.75,1.76,5.39,2.12"/><path d="M51,57.31c0.5,1.07,1.22,1.92,1.22,3.26C52.22,76,52.75,88,36.06,97.22"/><path d="M73.09,55.91c0.85,0.39,1.36,1.76,1.53,2.54c0.17,0.78,0,33.77-0.17,38.65"/></svg>