<svg><path d="M55.91,11.13c0.7,0.36,2.18,2.66,2.32,3.37c0.14,0.71,0.07,4.3-0.07,8.74"/><path d="M24.63,25.34c1.82,0.65,5.15,0.75,6.97,0.65c18.91-1.08,38.35-1.82,55.18-2.67c3.02-0.15,4.84,0.31,6.36,0.63"/><path d="M30.49,26.5c0,1.27-0.01,2.52-0.02,3.75C30.2,57.71,25,79.5,14.31,90.97"/><path d="M12.5,35.75c3.18,2.12,8.21,8.71,9,12"/><path d="M10.67,66.57c1.44,0.61,1.88,0.43,3.15-0.31c5.11-3,8.06-4.92,11.93-7.51"/><path d="M46.56,37.2c0.58,0.84,0.97,2.16,1.17,2.98c0.2,0.82,0.43,49.38,0.36,51.19"/><path d="M48.88,38.63c2.31-0.08,23.46-2.41,25.17-2.55c3.08-0.25,4.25,2.83,3.87,4.02c-0.37,1.14-0.18,32.5-0.29,48.82"/><path d="M48.96,55.74c7.88-0.81,20.75-1.47,27.67-1.72"/><path d="M48.42,72.58c6.15-0.29,22.1-1.42,29.21-1.46"/><path d="M27.81,93.15c1.79,0.56,5.07,0.65,6.86,0.56c18.62-0.94,22.67-2.57,56.95-2.72c2.98-0.01,4.77,0.27,6.26,0.55"/></svg>