<svg><path d="M57.81,11.38c0.97,0.97,1.51,2.37,1.51,3.9c0,0.79,0.08,3.65-0.07,8.46"/><path d="M28.63,26.23c2.91,1.04,6.39,0.6,9.39,0.31c14.86-1.42,30.65-2.99,43.37-3.82c2.91-0.19,5.63-0.27,8.49,0.35"/><path d="M30.74,27.25c0.88,0.88,1,2.19,0.99,3.5c-0.11,33.09-1.75,51.26-14.68,64.21"/><path d="M13.62,38.12c3.4,1.83,8.77,7.53,9.62,10.38"/><path d="M12.42,71.22c1.08,0.4,2.07,0.55,3.46-0.39C21.5,67,24.75,64.55,29,61.25"/><path d="M51.47,34c0.07,1.16-0.01,2.26-0.27,3.39c-1.28,5.56-5.32,14.49-11.24,20.73"/><path d="M52.37,45.15c1.34,0.09,4.42-0.38,5.35-0.55c3.47-0.63,12.1-2.02,18.04-3.15c1.54-0.29,3.36-0.58,4.97-0.31"/><path d="M36.64,64.88c2.85,0.96,5.95,0.56,8.87,0.28c13.9-1.31,30.27-3.1,39.98-3.75c2.73-0.18,5.42-0.22,8.11,0.37"/><path d="M63.48,47.33c0.28,0.78,0.57,1.51,0.56,3.03c-0.18,26.27-9.19,38.97-24.02,47.04"/><path d="M64.96,65.59C72,75,78.88,83.75,85.88,91.25c2.27,2.42,5.24,4.75,8.1,6.28"/></svg>