<svg><path d="M55.41,10.63c0.7,0.36,2.18,2.66,2.32,3.37c0.14,0.71,0.07,4.3-0.07,8.74"/><path d="M25.63,23.73c1.52,0.54,4.3,0.63,5.82,0.54c15.8-0.91,42.05-2.02,56.11-2.73c2.53-0.13,4.05,0.26,5.31,0.53"/><path d="M31.49,25c0,37.07-3.99,54.75-17.44,69.97"/><path d="M13.75,36.75c3.09,1.94,7.98,7.98,8.75,11"/><path d="M11.67,66.79c1.39,0.67,1.82,0.47,3.04-0.34c4.94-3.28,7.8-5.37,11.54-8.2"/><path d="M51.62,31c0.05,0.65,0.24,1.73-0.09,2.62C49.39,39.4,43.75,53,36.11,59.19"/><path d="M50.99,40.35c0.98,0.51,2.35,0.68,3.92,0.34c1.57-0.34,23.59-2.56,27.49-2.85c1.85-0.14,3.95,0.93,3.87,2.83C86,46.39,84,62,80.17,75.17c-1.45,4.99-4.46,1.77-6.77-0.35"/><path d="M45.03,52.86c1.72,0.64,2.86,0.66,4.75,0.52C55,53,66.42,51.17,67.58,51.07c1.54-0.13,2.75,0.86,2.2,2.88c-0.16,0.6-2.03,6.55-3.12,12.66"/><path d="M48.74,68.98c4.12-0.37,14.57-1.99,20.43-2.31"/><path d="M47.52,53.55c0.48,1.2,0.52,1.99,0.51,3.4c-0.03,4.51,0.14,23.18,0.14,27.12c0,8.55,2.39,10.12,23.07,10.12c19.51,0,21.4-1.94,21.4-11.21"/></svg>