<svg><path d="M53.91,11.13c0.7,0.36,2.18,2.66,2.32,3.37c0.14,0.71,0.07,4.3-0.07,8.74"/><path d="M25.38,24.73c1.82,0.54,5.15,0.63,6.96,0.54c18.9-0.91,33.36-2.52,50.18-3.23c3.02-0.13,4.84,0.26,6.36,0.53"/><path d="M29.99,26.5c-0.04,1.28-0.08,2.53-0.13,3.76c-1.04,29.14-3.35,45.78-14.81,64.46"/><path d="M14.75,39.5c2.38,1.19,6.15,4.9,6.75,6.75"/><path d="M10.67,67.13c1.29,0.52,2.7,0.87,3.83,0.24c4.6-2.55,6.26-4.17,9.75-6.37"/><path d="M53.98,31.5c0.05,0.65,0.11,1.69-0.1,2.63c-1.22,5.54-8.19,17.7-17.74,25.14"/><path d="M56.41,37.79c0.66-0.07,3.16-0.18,4.34-0.32c3.86-0.46,9.75-1.74,12.83-2.41c2.76-0.6,3.51,1.17,2.84,2.83C72,49,52.5,70,33.75,76.53"/><path d="M50.09,44.68c5.36,4.9,29.68,23.53,36.91,28c2.16,1.34,3.9,1.99,6,2.38"/><path d="M56.69,72.32c4.48,1.45,11.58,5.95,12.7,8.2"/><path d="M  45.029791,95.672291 C 60.08625,91.203333 69.695624,86.572084 84.161041,81.082292"/></svg>