<svg><path d="M57.06,14.63c1.09,1.09,1.26,2.37,1.26,3.65c0,0.79,0.08,4.65-0.07,9.46"/><path d="M27.13,29.98c2.87,1.02,6.3,0.62,9.25,0.32c15.12-1.54,33.18-3.15,46.24-4.04c3.08-0.21,5.97-0.34,9,0.31"/><path d="M29.75,31.38c1,1,1.24,2.12,1.24,3.37c0,30.69-2.24,45.5-17.18,58.47"/><path d="M13.5,37.75c2.82,1.94,7.29,7.98,8,11"/><path d="M10.42,67.32c1.2,0.55,2.07,0.48,3.41-0.31c5.92-3.51,8.3-4.89,12.92-7.51"/><path d="M44.8,45c0.85,0.85,0.94,2.12,0.84,4C44.62,69.12,42,83,30.62,92.59"/><path d="M46.74,47.3c13.51-2.68,25.26-4.18,33.63-4.63c8.29-0.45,3.38,4.58-0.12,8.12"/><path d="M62.93,34c0.91,0.91,1.15,2,1.15,3.32c0,0.81-0.06,15.57-0.06,23.67"/><path d="M50.44,64.11c1.28,0.28,2.52,0.33,5.08-0.1c2.56-0.43,18.79-4.09,20.55-4.51c2.12-0.51,3.58,1.11,2.4,3.12c-8.23,14.01-21.6,26.26-36.95,32.98"/><path d="M52.08,69.99c3.68,1.03,18.08,14.07,30.59,21.39c2.85,1.67,5.9,3.42,9.11,4.3"/></svg>