<svg><path d="M55.41,11.13c0.7,0.36,2.18,2.66,2.32,3.37c0.14,0.71,0.07,4.3-0.07,8.74"/><path d="M25.13,24.73c1.52,0.54,4.3,0.63,5.82,0.54c15.8-0.91,42.05-2.02,56.11-2.73c2.53-0.13,4.05,0.26,5.31,0.53"/><path d="M30.74,25.25c0,1.27-0.01,2.52-0.02,3.75c-0.28,31.57-4.31,48.5-17.17,66.47"/><path d="M12,35.75c3.71,2.12,9.57,8.71,10.5,12"/><path d="M11.17,67.02c1.36,0.7,1.79,0.5,2.99-0.36c4.86-3.46,7.66-5.67,11.34-8.66"/><path d="M46.19,39.51c0.42,0.93,0.79,1.9,0.85,3.15c0.21,4.09,1.86,36.24,2,37.49"/><path d="M48.24,41.42c2.39-0.16,23.6-2.99,25.78-3.18c1.82-0.16,2.99,1.72,2.84,2.65c-0.28,1.87-1.56,36.7-1.56,37.63"/><path d="M49.33,58.48c3.24,0,21.67-1.56,25.33-1.56"/><path d="M48.91,77.35c7.4-0.71,18.93-1.26,25.89-1.58"/><path d="M29.3,91.71c1.76,0.7,5,0.74,6.76,0.7c15.58-0.35,34.74-2.29,52.96-2.27c2.94,0,4.7,0.33,6.17,0.69"/></svg>