<svg><path d="M55.41,13.13c0.7,0.36,2.18,2.66,2.32,3.37c0.14,0.71,0.07,3.8-0.07,8.24"/><path d="M28.13,25.73c1.52,0.54,4.3,0.63,5.82,0.54c15.8-0.91,37.55-1.52,51.61-2.23c2.53-0.13,4.05,0.26,5.31,0.53"/><path d="M30.99,27c0,1.1,0,2.18-0.01,3.25c-0.24,33.26-4.38,49.18-16.67,62.72"/><path d="M14.25,36.75c2.91,2.12,7.52,8.71,8.25,12"/><path d="M10.67,64.98c1.63,0.76,2.13,0.54,3.56-0.38c5.79-3.74,7.63-4.62,12.01-7.85"/><path d="M59.43,31.5c0.07,0.7,0.25,1.84-0.14,2.81c-2.43,6.02-11.54,17.94-24.04,26.85"/><path d="M59.19,34.94c5.08,4.12,22.1,18.22,26.69,21.35c1.56,1.06,3.56,1.52,5.12,1.82"/><path d="M45.38,60.57c0.81,0.36,3.43,0.56,4.25,0.52C56.75,60.75,65.5,59,72.89,58.4c1.24-0.1,2.38,0.07,3.4,0.37"/><path d="M59.62,60.72c0.71,0.86,0.71,1.38,0.71,2.07c0,4.83,0.36,24.61,0.18,29.44"/><path d="M44,76.31c0.77,0.45,3.31,0.28,4.1,0.2c8.2-0.79,16.02-1.5,25.65-2.31c0.96-0.08,3.08-0.18,4.51,0.21"/><path d="M33.82,93.55c2.26,0.45,4.76,0.61,6.05,0.5c18.16-1.55,25.76-1.8,45.17-2.34c2.09-0.06,4.59,0.37,5.63,0.71"/></svg>