<svg><path d="M55.91,11.63c0.7,0.36,2.18,2.66,2.32,3.37c0.14,0.71,0.07,3.8-0.07,8.24"/><path d="M27.63,25.23c1.52,0.54,4.3,0.63,5.82,0.54c15.8-0.91,38.55-3.02,52.61-3.73c2.53-0.13,4.05,0.26,5.31,0.53"/><path d="M31.99,26c0,37.22-3.49,56.25-16.19,69.72"/><path d="M13.25,37.25c3.26,1.85,8.43,7.62,9.25,10.5"/><path d="M10.42,65.27c1.51,0.7,1.98,0.5,3.3-0.36c5.37-3.46,8.47-5.67,12.53-8.66"/><path d="M43.5,36.02c2,0.21,3.98,0.57,5.48,0.41C58,35.5,74.25,34,82.99,33.8c2.5-0.06,4.01,0.2,5.26,0.4"/><path d="M49.98,43.05c0.27,0.77,0.36,1.3-0.02,1.94c-2.21,3.79-3.61,7.36-7.96,11.4c-0.84,0.78-0.4,0.77,0,1.01c4.5,2.75,7.5,6.61,9.96,11.4"/><path d="M66.3,41.22c0.45,0.73,0.4,2.16-0.02,2.76c-2.23,3.24-3.5,6.29-7.69,10.07c-0.46,0.41-0.22,0.81,0.16,1.09C64,59,66.63,61.99,69.21,67.71"/><path d="M85.06,40.41c0.44,0.6,0.37,1.74-0.02,2.35c-2.04,3.21-4.79,6.19-8.66,10.16c-0.42,0.43-0.21,0.82,0.16,1.09c4.96,3.62,8.38,6.83,10.96,12.55"/><path d="M43.81,76.19c0.98,0.28,4.17,0.32,5.16,0.28c10.31-0.34,25.89-1.8,33.62-2.09c1.51-0.06,2.88,0.05,4.13,0.29"/><path d="M62.86,76.36c1.65,1.22,1.65,1.95,1.65,2.93c0,6.84-0.05,3.21-0.05,14.93"/><path d="M33,95.69c0.94,0.21,4.3,0.43,5.9,0.34c17.17-1.04,34.8-1.63,50.43-1.95c2.56-0.05,5.64,0.35,6.92,0.69"/></svg>