<svg><path d="M52.91,11.63c0.7,0.36,2.18,2.66,2.32,3.37c0.14,0.71,0.07,3.8-0.07,8.24"/><path d="M23.63,24.73c1.52,0.54,4.3,0.63,5.82,0.54c15.8-0.91,42.05-3.02,56.11-3.73c2.53-0.13,4.05,0.26,5.31,0.53"/><path d="M28.49,25.5c0,1.1,0,2.18-0.01,3.24c-0.15,34.27-2.84,49.74-14.18,65.23"/><path d="M11.5,37.5c3.18,1.9,8.21,7.8,9,10.75"/><path d="M9.67,67.47c1.39,0.78,1.82,0.55,3.04-0.39c4.94-3.83,7.8-6.27,11.54-9.58"/><path d="M33.38,47.06c0.62,0.22,2.49,0.19,4.14,0c5.79-0.66,10.11-1.7,16.31-2.14c1.65-0.12,2.89-0.22,3.93,0"/><path d="M43.89,32.17c1.33,0.39,2.13,1.76,2.4,2.54s0,59.16-0.27,64.04"/><path d="M46.28,49.42C43.1,59.3,33.62,75.87,27,81.46"/><path d="M49.91,56.43c3.15,2.12,6.52,6.35,8.31,10.06"/><path d="M64.31,44.04c0.44,0.14,1.4,0.22,2.58,0.14c4.15-0.29,15.27-1.29,23.38-2c1.17-0.1,2.2-0.14,2.94,0"/><path d="M73.33,29.5c1.33,0.39,2.13,1.76,2.39,2.54c0.27,0.78,0,60.77-0.27,65.65"/><path d="M75.46,45.03C72.33,56.76,62.58,73.09,55.31,79.1"/><path d="M75.99,47.44c5.11,11.69,13.28,26.69,17.42,31.3c1.18,1.31,1.84,2.22,2.83,2.66"/></svg>