<svg><path d="M52.41,11.13c0.7,0.36,2.32,1.37,2.32,3.37c0,0.72,0.07,3.3-0.07,7.74"/><path d="M25.13,23.73c1.52,0.54,4.3,0.63,5.82,0.54c15.8-0.91,39.55-4.02,53.61-4.73c2.53-0.13,4.05,0.26,5.31,0.53"/><path d="M28.99,24.5c0,1.19,0,2.35,0,3.5C28.9,62.74,27.3,78.28,13.81,94.22"/><path d="M11.5,36.25c3.18,2.12,8.21,8.71,9,12"/><path d="M10.67,68.18c1.29,0.85,1.7,0.61,2.83-0.43c4.6-4.2,7.26-6.88,10.75-10.5"/><path d="M34.51,45.62c0.51,0.21,2.03,0.18,3.38,0c4.73-0.63,12.13-1.68,17.2-2.11c1.35-0.11,2.36-0.13,3.21,0.08"/><path d="M45.7,29.93c0.96,0.42,1.54,1.89,1.73,2.74c0.19,0.84,0,58.32-0.19,63.58"/><path d="M38.22,54.64c0.53,1.35,0.61,2.04,0.52,3.18c-0.57,6.7-0.49,22.68-8.93,30.4"/><path d="M54.79,53.75c0.81,0.36,1.3,1.6,1.46,2.31c0.16,0.71,0,22.09-0.16,26.52"/><path d="M63.68,42.67c0.54,0.21,1.7,0.33,3.12,0.21c5.03-0.42,13.3-1.39,23.13-2.45c1.43-0.15,2.67-0.21,3.57,0"/><path d="M75.1,27.25c1.02,0.45,1.63,2,1.84,2.89c0.2,0.89,0,61.87-0.2,67.44"/><path d="M67.68,53.89c0.79,1.09,0.86,2.74,0.82,3.91c-0.25,8.2-1.5,21.95-7.7,30.66"/><path d="M84.49,51.37c0.95,0.71,1.7,1.74,1.72,3.36c0.07,7.26-0.18,17.13-0.18,22.07c0,8.78,0.97,10.23,6.1,10.23c5.42,0,6.52-1.17,6.52-8.1"/></svg>