<svg><path d="M54.41,11.13c0.7,0.36,2.18,2.66,2.32,3.37c0.14,0.71,0.07,3.8-0.07,8.24"/><path d="M24.13,24.23c1.52,0.54,4.3,0.63,5.82,0.54c15.8-0.91,42.05-3.02,56.11-3.73c2.53-0.13,4.05,0.26,5.31,0.53"/><path d="M29.49,25c0,1.1,0,2.18,0,3.25C29.45,62.05,27.5,76.5,13.81,92.47"/><path d="M11.75,34.5c3.44,2.25,8.89,9.25,9.75,12.75"/><path d="M9.17,62.57c1.44,0.61,1.88,0.43,3.15-0.31c5.11-3,8.06-4.92,11.93-7.51"/><path d="M75.25,29c0.09,0.23,0.19,0.61-0.18,0.94c-2.23,1.98-15.05,6.34-32.59,9"/><path d="M37.02,47.01c0.78,0.13,2.85,0.43,4.92,0.38c8.28-0.19,26.86-2.91,42.89-3.18c2.07-0.04,3.59,0.37,4.88,0.5"/><path d="M60.59,37.88c0.63,0.24,1.01,1.06,1.14,1.54c0.13,0.47,0,20.28-0.13,23.23"/><path d="M59.03,46.25c-5.6,6.95-15.89,15.01-26.73,18.48"/><path d="M62.07,46.64C66.25,50,79.25,57.5,85.78,59.52c1.63,0.51,2.74,0.73,4.22,0.97"/><path d="M57,63.67c0.38,0.82,0.21,1.88-0.19,2.87c-2.24,5.49-4.51,9.37-9.25,15.1c-1.03,1.25-0.96,2.04,0.95,2.08c11.11,0.25,28.01,8.15,35.59,14.15"/><path d="M75.06,67.56c0.1,0.74,0.2,2.54-0.21,3.6c-3.5,9.1-13.07,22.01-35.33,27.37"/><path d="M32.59,72.64c0.83,0.26,2.66,0.88,4.72,0.75c11.35-0.74,38.31-3.12,54.28-3.19c1.39-0.01,3.78,0.25,4.91,0.72"/></svg>