<svg><path d="M56.41,10.13c0.7,0.36,2.18,2.66,2.32,3.37c0.14,0.71,0.07,3.3-0.07,7.74"/><path d="M25.63,22.82c1.92,0.48,5.46,0.55,7.38,0.48c20.03-0.8,34.3-2.65,52.13-3.28c3.2-0.11,5.13,0.23,6.74,0.47"/><path d="M30.99,24c0,1.19,0,2.36-0.01,3.5c-0.12,35.01-2.24,50.77-17.43,66.72"/><path d="M12.5,37c3.71,1.98,9.57,8.16,10.5,11.25"/><path d="M11.17,66.46c1.86,0.79,2.46,0.58,4.08-0.4c4.24-2.56,5.47-3.89,10.49-7.26"/><path d="M49.73,30.2c0.28,0.57,0.46,0.86,0.56,1.61c0.68,5.24,1.4,11.67,2.68,21.17"/><path d="M50.76,31.5c4.77-0.65,19.38-2.39,25.49-2.83c1.06-0.08,1.7,1.78,1.66,2.28c-0.46,6.21-2.07,14.73-2.87,19.3"/><path d="M51.72,40.63c1.89,0,22.65-2.17,24.78-2.17"/><path d="M52.99,50.2c3.85-0.49,16.84-1.52,21.63-1.94"/><path d="M37.68,59.97c1.44,0.34,4.1,0.44,5.54,0.34c12.29-0.82,31.01-3.24,45.11-3.37c2.41-0.02,3.85,0.16,5.06,0.34"/><path d="M53.88,61.04c0.05,0.43,0.1,1.12-0.1,1.74c-1.16,3.67-10.11,11.82-17.54,14.74"/><path d="M53.6,67.32c0.79,0.38,1.9,0.51,3.17,0.25c1.27-0.25,24.92-1.9,28.09-2.03c3.17-0.12,3.8,1.26,3.33,3.91c-0.48,2.65-3.69,16.04-10.69,25c-1.85,2.37-4.25,1.79-6.65-1.44"/><path d="M58.54,70.29c0.05,0.35,0.13,0.92-0.09,1.42c-2.25,4.89-8.42,11.68-17.29,15.7"/><path d="M73.07,69.8c0.1,0.73,0.21,1.88-0.21,2.92c-2.48,6.15-13.15,17.33-26.69,23.99"/></svg>