<svg><path d="M54.91,10.13c0.7,0.36,2.18,2.66,2.32,3.37c0.14,0.71,0.07,3.8-0.07,8.24"/><path d="M26.63,22.92c1.87,0.67,5.31,0.78,7.19,0.67c19.51-1.12,33.39-1.99,50.75-2.87c3.12-0.16,5,0.32,6.56,0.65"/><path d="M29.99,24c0,1.27,0,2.52-0.01,3.75c-0.12,33.02-1.95,48.54-14.43,62.97"/><path d="M13,35.5c3.71,1.54,9.57,6.35,10.5,8.75"/><path d="M11.17,63.96c1.89,0.8,2.48,0.57,4.14-0.41c6.72-3.95,4.61-2.97,9.69-6.38"/><path d="M 60.813313,31.834057 c -0.499127,1.753402 -1.680564,3.26525 -2.608477,4.338626 -3.406509,4.993902 -12.418956,11.713536 -19.605535,15.896692"/><path d="M 53.766082,28.47779 c 3.345286,-0.283531 5.534206,0.515255 7.306942,1.557752 5.390869,4.037215 12.837465,10.050955 18.192565,14.963214 1.815626,1.665483 3.979444,2.767449 6.790562,3.139027"/><path d="M50.49,49.74c0.5,0.22,1.42,0.23,1.93,0.22c3.37-0.12,17.16-2.55,20.31-2.12c0.83,0.11,1.34,0.1,1.76,0.21"/><path d="M40.36,59.06c0.59,0.83,0.98,1.67,1.18,2.5s0.28,33.4,0.2,35.27"/><path d="M41.72,60.68c1.31-0.12,13.38-2.63,14.36-2.76c1.75-0.24,2.41,1.55,2.19,2.26c-0.21,0.69-0.33,20.59-0.33,30.23c0,8.53-3.9,2.14-5,1.07"/><path d="M47.06,67.1c2.19,0.77,5.67,3.17,6.22,4.37"/><path d="M47.68,78.04c2.05,0.97,5.29,3.99,5.81,5.5"/><path d="M71.84,56.44c0.3,0.95,1.14,2.57,0.69,3.87c-1.37,3.97-3.78,8.44-7.15,13.22c-0.99,1.41-0.01,2.13,0.3,2.39c5.03,4.34,9.01,9.69,11.54,19.08"/><path d="M85.23,56.48c0.3,0.95,1.14,2.57,0.69,3.87c-1.37,3.97-4.13,7.73-8.27,12.47c-1.14,1.3-0.01,2.13,0.3,2.39C82.98,79.56,87,84,90.86,93.29"/></svg>