<svg><path d="M54.91,8.13c0.7,0.36,2.18,2.66,2.32,3.37c0.14,0.71,0.07,5.3-0.07,9.74"/><path d="M26.13,22.23c1.52,0.54,4.3,0.63,5.82,0.54c15.8-0.91,40.05-1.52,54.11-2.23c2.53-0.13,4.05,0.26,5.31,0.53"/><path d="M30.99,23c0,1.28,0,2.53-0.01,3.75c-0.26,35.63-5.23,52.5-17.42,68.22"/><path d="M11.25,36.25c3.79,2.03,9.8,8.34,10.75,11.5"/><path d="M8.67,65.02c1.55,0.7,2.04,0.5,3.41-0.36C17.61,61.2,20.81,58.99,25,56"/><path d="M62.41,27.75c0.2,0.98,0.52,2.3,0.22,3.59c-2.78,12.06-12.4,28.3-29.88,34.75"/><path d="M61.25,36.79c4.51,4.65,23.97,19.83,28.95,23.24c1.69,1.16,3.86,1.65,5.55,1.98"/><path d="M37.96,35.84c0.36,0.11,1.03,0.1,1.4,0.11c3.45,0.02,10.01-2.29,12.25-2.16c0.6,0.03,0.97,0.05,1.27,0.1"/><path d="M36.38,45.93c0.4,0.14,1.13,0.14,1.53,0.14c3.79,0.02,9.87-2.53,12.34-2.37c0.66,0.04,1.07,0.07,1.4,0.14"/><path d="M73.12,33.88c0.36,0.11,1.03,0.1,1.4,0.11c3.45,0.02,13.51-2.29,15.75-2.16c0.61,0.03,0.97,0.05,1.27,0.1"/><path d="M75.35,43.09c0.36,0.11,1.03,0.1,1.4,0.11c3.45,0.02,12.01-1.79,14.25-1.66c0.61,0.03,0.97,0.05,1.28,0.1"/><path d="M48.64,60.47c0.57,0.72,0.95,1.45,1.14,2.17s0.27,34.08,0.19,35.71"/><path d="M50.92,60.91c2.28-0.18,22.73-2.33,24.42-2.54c3.04-0.36,4.18,2.35,3.8,3.44c-0.37,1.04-0.57,16.73-0.57,31.39c0,9.41-4.56,3.26-6.46,1.63"/><path d="M49.92,70.75c7.83-0.75,22.05-1.31,28.89-1.86"/><path d="M50.55,80.94c6.08-0.54,20.8-1.72,27.84-2.08"/></svg>