<svg><path d="M54.91,10.63c0.7,0.36,2.18,2.66,2.32,3.37c0.14,0.71,0.07,4.8-0.07,9.24"/><path d="M25.13,25.23c1.52,0.54,3.8,0.63,5.32,0.54c15.8-0.91,39.55-3.02,53.61-3.73c2.53-0.13,4.05,0.26,5.31,0.53"/><path d="M29.49,26c0.51,1.25,0.5,2.69,0.49,4c-0.23,32.83-3.47,48.08-15.67,62.72"/><path d="M15,37.75c2.65,1.41,6.84,5.81,7.5,8"/><path d="M10.17,65.07c1.44,0.61,1.88,0.43,3.15-0.31c5.11-3,8.06-4.92,11.93-7.51"/><path d="M59.75,29.58c0.89,0.75,1.58,1.63,1.58,4.11c0,4.83-0.02,5.4-0.02,9.46"/><path d="M61.26,35.98c5.4-0.63,10.91-1.45,16.37-1.95c1.8-0.17,2.91,0.15,3.81,0.31"/><path d="M41.78,43.33c0.28,1.06,0.77,2.35,0.61,4.13c-1.71,18.59-3.19,39.77-14.14,50.66"/><path d="M42.61,45.4c1.14,0.35,2.86,0.35,4.5,0.12c11.71-1.61,27.55-3.29,37.57-3.42c10.57-0.14,2.74,5.31,0.11,6.99"/><path d="M47.23,57.27c0.72,0.3,2.03,0.38,2.75,0.3c7.27-0.82,18.11-3.07,25.86-3.8c1.19-0.11,1.91,0.14,2.51,0.29"/><path d="M60.01,48.29c0.54,0.36,1.25,1.79,1.25,2.29c0,4.02-0.1,6.09-0.1,7.89c0,5.34,2.49,5.74,10.19,5.74c2.86,0,9.04,0,11.5-0.72"/><path d="M49.86,72.39c0.9,0.42,2.54,0.47,3.44,0.42c6.89-0.38,19.08-2.25,30.4-2.43c1.49-0.02,2.39,0.2,3.14,0.42"/><path d="M52.93,72.86c0.65,0.27,1.03,1.21,1.16,1.75c0.13,0.54-0.08,11.91-0.53,18.09c-0.15,2.02,0.2,3.8,2.72,3.37c10.75-1.83,18.22-2.82,28.02-2.93c1.93-0.02,3.55,0.54,4.3,0.67"/><path d="M40.36,84.2c1.45,0.61,4.12,0.73,5.57,0.61c12.32-1.05,29.57-3.05,44.66-3.49c2.41-0.07,3.87,0.29,5.09,0.6"/></svg>