<svg><path d="M55.91,10.13c0.7,0.36,2.18,2.66,2.32,3.37c0.14,0.71,0.07,4.3-0.07,8.74"/><path d="M25.63,23.73c1.52,0.54,4.3,0.63,5.82,0.54c15.8-0.91,40.55-2.02,54.61-2.73c2.53-0.13,4.05,0.26,5.31,0.53"/><path d="M29.49,24.5c0,1.19,0,2.36-0.01,3.51c-0.21,34.36-3.62,50.01-15.18,65.46"/><path d="M12,37c3.35,1.98,8.66,8.16,9.5,11.25"/><path d="M8.17,65.07c1.44,0.61,2.38,0.93,3.65,0.19c5.11-3,7.68-4.52,12.43-7.01"/><path d="M47.5,30.25c0.28,1,0.82,1.29,0.24,2.51c-0.9,1.88-1,3.16-5.13,8.67"/><path d="M38.09,41.89c1.05,1.07,1.32,2.95,1.32,4.3s0.26,16.06,0.26,18.48c0,12.34-5.92,28.34-12.3,32.96"/><path d="M39.5,43.63c3.4-0.54,9.28-1.51,12.35-2.04s2.91,1.07,2.91,2.94s-0.32,45.76-0.32,48.44c0,8.03-5.37,1.6-6.01,1.07"/><path d="M44.69,48.41c1.18,1.36,4.13,4.97,4.43,6.56"/><path d="M45.93,64.24c0.81,1.34,0.97,2.14,0.97,3.21c0,1.07,0,14.33-0.32,16.99"/><path d="M33.5,63.14c0.3,0.62,1.61,1,2.56,0.84c0.95-0.17,21.29-6.36,24.19-7.25"/><path d="M67.38,32.75c0.62,0.75,0.78,2.21,0.77,3c-0.1,8.14-1.17,17.51-4.31,20.92"/><path d="M68.1,35.08c1.88,0.24,7.64-2.03,10.05-2.51c1.98-0.39,2.82,0.36,2.63,1.98c-0.38,3.18-0.97,8.56-0.97,11.74c0,4.4-0.06,6.58,6.14,6.58c6.17,0,6.74-1.75,6.74-7.04"/><path d="M63.78,62.67c1.1,0.29,1.22,0.66,3.43,0.29c4.29-0.71,14.04-2.21,17.19-2.5c1.56-0.14,2.73,1.18,2.06,2.68C79.5,78.59,73,87.75,60.86,95.53"/><path d="M64.16,69.08c2.82,0.65,16.59,18.07,26.4,25.2c1.53,1.11,2.64,1.85,4.06,2.22"/></svg>