<svg><path d="M57.41,10.13c0.7,0.36,2.18,2.66,2.32,3.37c0.14,0.71,0.07,2.8-0.07,7.24"/><path d="M29.13,21.73c1.52,0.54,4.3,0.63,5.82,0.54c15.8-0.91,38.05-2.02,52.11-2.73c2.53-0.13,4.05,0.26,5.31,0.53"/><path d="M32.49,22.5c0,28.5-3.72,48.8-16.69,66.47"/><path d="M13.25,32c3.62,1.9,9.34,7.8,10.25,10.75"/><path d="M11.67,62.57c1.44,0.61,1.88,0.43,3.15-0.31c5.11-3,8.06-4.92,11.93-7.51"/><path d="M43.35,30.71c0.24,0.29,0.59,0.84,0.72,1.2c1.06,3.01,2.12,11.26,2.78,16.87"/><path d="M44.81,30.96c8.25-0.76,27.91-2.18,36-2.18c1.94,0,3.22,2.06,3.1,2.89c-0.42,3.03-1.47,8.9-3.08,15.39"/><path d="M61.63,30.63c0.43,0.55,1.13,1.45,1.16,2.1c0.17,4.29,0.05,10.7,0.05,12.96"/><path d="M46.2,38.89c2.69-0.29,33.34-2.12,35.56-2.24"/><path d="M46.94,47.31c5.94-0.32,25.69-1.67,33.9-2.2"/><path d="M58.82,46.91c0.37,0.93,0.64,1.69-0.18,2.63c-1.95,2.22-6.34,5.76-8.68,8.15c-0.62,0.63-0.74,2.16,0,2.32c2.53,0.55,7.53,0.86,9.46,2.06"/><path d="M73.95,49.46c0.42,0.53,0.17,2.08-0.42,2.64c-9.04,8.62-17.56,13.08-30.99,22.72c-1.46,1.05-0.84,1.76,0.84,1.41c7.03-1.47,31.06-4.39,40.1-5.8"/><path d="M74.06,62.22c4.77,2.43,12.32,9.97,13.51,13.75"/><path d="M62.1,76.07c0.06,0.16,0.87,0.83,0.93,1.85c0.3,4.89-0.19,20.92-0.19,22.58"/><path d="M49.14,82.88c0.27,0.6,0.23,2.56-0.27,2.99c-3.23,2.79-11.3,8.18-15.88,10.57"/><path d="M75.51,82.92c4.67,2.77,12.67,10.17,14.33,12.94"/></svg>