<svg><path d="M57.08,10.88c0.6,0.3,1.87,2.28,1.99,2.89c0.12,0.61,0.06,3.68-0.06,7.48"/><path d="M29.13,22.23c1.52,0.54,4.3,0.63,5.82,0.54c15.8-0.91,37.05-1.52,51.11-2.23c2.53-0.13,4.05,0.26,5.31,0.53"/><path d="M31.99,23c0,1.26-0.01,2.51-0.02,3.75c-0.3,28.59-4.23,49.78-16.67,66.72"/><path d="M13.5,34.5c3.71,1.9,9.57,7.8,10.5,10.75"/><path d="M11.67,65.07c1.44,0.61,1.88,0.43,3.15-0.31c5.11-3,8.06-4.92,11.93-7.51"/><path d="M61.51,26.5c0.8,0.89,1.2,0.89,1.2,2.95s0,1.87,0,5.63"/><path d="M41.96,36.8c1.42,0.39,3.08,0.51,4.49,0.39c8.29-0.69,25.04-2.44,35.34-2.86c2.36-0.09,3.78,0.19,4.96,0.39"/><path d="M51.6,38.97c1.89,2.14,2.92,4.42,3.09,5.82"/><path d="M75.71,37.19c0.36,0.28,0.4,0.42,0.36,0.66c-0.29,1.59-2.96,6.56-3.68,7.78"/><path d="M38.71,48.52c1.49,0.39,3.24,0.49,4.72,0.39c10.87-0.7,24.82-2.8,43.38-3.1c2.49-0.04,3.98,0.19,5.22,0.39"/><path d="M46,55.29c0.62,0.79,0.94,1.2,1.66,2.12c1.03,1.32,1.72,10.73,2.75,15.42"/><path d="M48.03,56.47c3.53-0.13,27.66-2.17,30.87-2.17c2.16,0,3.76,2.2,3.36,4.7c-0.21,1.33-1.11,6.72-3.07,12.59"/><path d="M50.06,64.53c7.33-0.82,23.48-1.7,30.47-1.94"/><path d="M50.65,71.58c9.16-0.86,23.77-1.88,28.18-1.88"/><path d="M36.28,82.37c1.52,0.35,4.32,0.42,5.83,0.35C55.86,82.18,76,80.5,88.17,80.07c2.53-0.09,4.06,0.17,5.32,0.35"/><path d="M64.38,72.92c0.33,0.29,1.01,2.19,1.08,2.77c0.06,0.59-0.04,19.9-0.11,23.55"/></svg>