<svg><path d="M56.41,9.63c0.7,0.36,2.18,2.66,2.32,3.37c0.14,0.71,0.07,4.3-0.07,8.74"/><path d="M26.13,23.23c1.52,0.54,4.3,0.63,5.82,0.54c15.8-0.91,41.05-3.02,55.11-3.73c2.53-0.13,4.05,0.26,5.31,0.53"/><path d="M30.49,24c0,1.19,0,2.35,0,3.5c-0.1,35-1.95,50.53-16.18,66.72"/><path d="M12.75,37.5c3.44,1.72,8.89,7.07,9.75,9.75"/><path d="M11.92,67.05c1.27,0.65,1.66,0.46,2.78-0.33c4.52-3.19,7.13-5.22,10.55-7.97"/><path d="M48.97,29c0.04,0.37,0.08,0.95-0.07,1.47c-0.87,3.1-5.84,9.91-12.66,14.07"/><path d="M45.94,36.95c1.4,0,10.47-2.4,11.94-2.58c1.26-0.15,1.55,1.35,1.02,2.12c-2.22,3.24-5.08,6.71-8.7,11.85"/><path d="M36.04,48.3c0.96,0.95,1.55,2,1.78,3.35c0.82,4.71,1.68,13.96,2.19,22.64"/><path d="M37.89,49.49c6.32-0.53,17.55-2.36,22.27-2.86c1.73-0.19,2.62,1.17,2.53,2.44c-0.33,4.63-2.2,15.05-3.52,23.95"/><path d="M48.38,48.35c0.72,0.65,1.26,2.59,1.29,4.08c0.1,6.6,0.02,15.43,0.02,18.7"/><path d="M39.07,60.6c2.06-0.25,20.54-1.74,22.24-1.75"/><path d="M40.34,72.1c4.55-0.04,12.04-1.16,18.33-1.33"/><path d="M34.15,81.22c0,4.92-5.13,12.17-6.46,13.58"/><path d="M41.07,80.3c1.28,2.55,2.5,9.56,2.83,13.53"/><path d="M49.95,78.97c1.54,2.22,3.97,9.13,4.36,12.58"/><path d="M59.79,78.89c1.96,1.73,5.07,7.11,5.55,9.8"/><path d="M66.8,28.69c2.47,1.89,6.39,7.77,7.01,10.72"/><path d="M88.33,27.67c0.02,0.32,0.04,0.83-0.03,1.3c-0.41,2.73-2.76,8.73-5.98,12.4"/><path d="M66.17,45.2c0.8,0.55,2.25,0.6,3.05,0.55c5.64-0.39,15.52-2.41,22.69-2.21c1.33,0.04,2.12,0.26,2.79,0.53"/><path d="M68.03,61.13c0.57,0.45,1.62,0.52,2.2,0.45C75,61,85.25,59,90.85,58.67c0.95-0.06,1.53,0.21,2.01,0.44"/><path d="M65.66,75.55c0.85,0.59,2.41,0.66,3.27,0.59c7.82-0.64,16.26-2.37,25.91-2.08c1.42,0.04,2.27,0.28,2.99,0.57"/><path d="M79.55,46.17c0.5,0.39,0.8,1.74,0.91,2.52c0.1,0.77,0,45.48-0.1,50.31"/></svg>