<svg><path d="M54.41,11.13c0.7,0.36,2.18,2.66,2.32,3.37c0.14,0.71,0.07,4.3-0.07,8.74"/><path d="M27.13,24.23c1.52,0.54,4.3,0.63,5.82,0.54c15.8-0.91,38.55-3.02,52.61-3.73c2.53-0.13,4.05,0.26,5.31,0.53"/><path d="M29.99,25.5c0,0.93,0,1.85,0,2.75c-0.07,33.54-1.55,48.51-14.18,65.72"/><path d="M13.5,38.5c3.35,1.72,8.66,7.07,9.5,9.75"/><path d="M10.67,66.57c1.44,0.61,1.88,0.43,3.15-0.31c5.11-3,8.06-4.92,11.93-7.51"/><path d="M56.13,31.81c0.11,0.14,0.17,0.56-0.1,0.78c-1.76,1.42-7.82,5.33-13.52,6.78"/><path d="M40.48,32c0.36,0.36,0.38,0.61,0.5,1.09c0.12,0.49,0.12,9.13,0.12,10.66c0,3.92,2.33,4.69,8.84,4.69c7.32,0,8.13-1.44,8.13-4.76"/><path d="M42.67,52.93c0.02,0.35,0.04,0.91-0.04,1.41c-0.46,2.97-2.74,8.29-6.26,12.99"/><path d="M42.59,60.77c3.91-0.02,8.33-0.72,11.91-1.42c0.94-0.19,1.54-0.25,2.02-0.14"/><path d="M32.61,74.52c0.55,0.09,2.57,0.17,3.17,0.13c10.07-0.67,13.69-2.25,21.42-2.57c0.76-0.03,1.85,0.03,3.56,0.2"/><path d="M46.83,63.12c0,0.77,0.48,0.94,0.38,1.88c-1.46,13.24-2.46,21.74-16.33,29.94"/><path d="M47.09,78.45c3.4,1.92,5.82,6.49,7.33,9.77"/><path d="M65.85,32.66c0.74,0.6,2.74,0.92,3.57,0.77c1.65-0.3,16-2.67,17.74-2.97c1.75-0.3,2.37,1,1.63,2.31c-0.73,1.3-9.4,10.93-10.5,12.14"/><path d="M71.56,40.82c2.34,1.01,8.9,5.33,10,7.98"/><path d="M64.07,55.26c1.29,0.27,2.54,0.21,3.84,0c7.43-1.24,12.95-1.5,21.44-3.25c5.13-1.06-1.55,7.01-2.32,7.73"/><path d="M76.22,55.55c0.55,0.27,0.89,1.24,1,1.79c0.11,0.55,0.25,23.24,0.14,26.67"/><path d="M80.5,71.12c3.63-0.41,5.41-0.83,10.88-1.65c0.88-0.13,1.11-0.14,1.66,0"/><path d="M67.74,63.76c0.03,0.71,0.07,1.83-0.06,2.85c-0.78,6.02-3.43,18.64-11.31,27.94"/><path d="M65.35,76.35c3.55,2.66,19.15,15.24,23.01,17.86c1.31,0.89,2.43,1.27,3.74,1.52"/></svg>