<svg><path d="M54.41,11.13c0.7,0.36,2.18,2.66,2.32,3.37c0.14,0.71,0.07,4.3-0.07,8.74"/><path d="M26.13,24.73c1.52,0.54,4.3,0.63,5.82,0.54c15.8-0.91,39.05-3.02,53.11-3.73c2.53-0.13,4.05,0.26,5.31,0.53"/><path d="M29.99,25.5c0,36.55-2.24,53.25-13.19,68.47"/><path d="M13,36.25c3.35,2.03,8.66,8.34,9.5,11.5"/><path d="M11.17,67c1.36,0.74,1.79,0.53,2.99-0.37c4.86-3.65,7.66-5.97,11.34-9.12"/><path d="M38.8,33.45c1.16,0.45,3.3,0.5,4.46,0.45c13.49-0.52,25.86-3.18,41.04-3.36c1.94-0.02,3.1,0.22,4.07,0.44"/><path d="M41.53,34.02c0.04,1.44-0.08,3.71-0.08,5.78c0,27.38-2.98,43.86-13.39,54.88"/><path d="M61.75,37.14c0.04,0.15,0.08,0.4-0.07,0.62c-0.89,1.31-5.98,4.18-12.94,5.94"/><path d="M45.31,50.22c0.23,0.1,1.14,0.35,1.75,0.29c2.74-0.29,11.55-1.22,16.19-1.48c0.61-0.03,1.37,0.11,1.75,0.21"/><path d="M55.91,43.4c0.27,0.19,0.43,0.86,0.49,1.25c0.05,0.38,0,18.75-0.05,21.14"/><path d="M56.12,49.64C54,54.75,50.65,59.89,45.6,62.77"/><path d="M58.01,52.51c2.75,1.14,5.91,3.29,7.17,5.83"/><path d="M84.54,35.27c0.03,0.15,0.07,0.4-0.06,0.62c-0.79,1.3-5.35,4.16-11.58,5.91"/><path d="M69.18,47.78c0.23,0.08,1.17,0.28,1.8,0.23c2.81-0.23,14.93-1.33,19.69-1.54c0.62-0.03,1.41,0.09,1.8,0.17"/><path d="M79.6,42.27c0.25,0.15,0.41,0.69,0.46,1c0.05,0.31,0,20.28-0.05,22.21"/><path d="M79.82,48.08c-2.65,4.55-8.39,10.57-13.07,13.87"/><path d="M80.39,49.3c1.93,1.78,10.73,10.19,12.83,11.93c0.71,0.59,1.32,0.85,2.03,1.02"/><path d="M66.86,68.46c0.8,0.39,1.28,1.75,1.44,2.52c0.16,0.78,0.43,16.12,0.27,20.97"/><path d="M68.67,77.66c6.12-0.39,12.43-1.3,18.87-1.57c1.5-0.06,1.87-0.13,2.81,0"/><path d="M51.96,72.96c0.76,0.37,1.22,1.67,1.37,2.41c0.15,0.74,0.32,12.93,0.17,17.57"/><path d="M37.41,93.33c0.75,0.24,2.75,0.78,4.75,0.72c10.98-0.28,32.19-3.04,48.06-3.07c2,0,5.48,0.48,6.62,0.72"/></svg>