<svg><path d="M27.5,19.97c1.62,0.66,3.12,0.76,5.5,0.21c4-0.92,6.25-1.55,10.99-3.18c3.82-1.31,4.79,0.53,3.51,3.87c-3,7.84-15.75,28.26-34,36.13"/><path d="M21.91,31.4c3.76,1.32,9.71,5.43,10.65,7.49"/><path d="M67.9,13.14c0.07,0.61-0.04,1.42-0.31,1.96c-1.47,2.9-3.22,4.9-7.84,8.52"/><path d="M49.25,20.26C57.5,26.25,81,48.75,89.96,53.82c2.4,1.36,4.09,2.38,6.29,2.86"/><path d="M79.41,24.65c0.03,0.25,0.06,0.65-0.06,1.01c-0.68,2.12-2.61,4.71-7.97,8.38"/><path d="M34.25,49.64c1.36,0.38,3.62,0.55,4.97,0.38c6.4-0.77,14.87-1.77,23.88-2.88c2.24-0.28,4.13-0.32,5.27-0.13"/><path d="M19.25,69.39c2.82,0.49,4.98,0.69,7.41,0.38c14.09-1.77,37.26-4.9,47.38-5.13c2.21-0.05,5.2,0.11,7.47,0.37"/><path d="M42.24,53.75c0.76,1,1.11,2.48,1.11,4.05c-0.1,18.95-7.72,33.2-25.68,40.12"/><path d="M58.24,50.87c1.2,1.2,1.52,2.59,1.52,4.43c0,11.58-0.14,22.14-0.14,27.7c0,10.12,2.01,12.03,13.06,12.03c12.7,0,13.96-1.28,13.96-9.62"/></svg>