<svg><path d="M28,18.29c1.5,0.65,2.07,0.53,4.5,0.22c6.31-0.81,6.25-1.02,12.99-2.06c3.99-0.61,4.79,0.56,3.51,4.08c-3,8.26-18.25,31.22-38,38.72"/><path d="M20.77,31.39c3.46,1.34,8.93,5.5,9.79,7.58"/><path d="M69.78,12.89c0.02,0.28,0.05,0.72-0.05,1.13c-0.59,2.37-4,7.58-8.67,10.77"/><path d="M50.75,20.04C54,22.25,83.98,50.51,90.47,55.8c2.2,1.8,4.08,2.57,6.28,3.08"/><path d="M80.77,24.04c0.03,0.26,0.06,0.68-0.06,1.06c-0.73,2.24-4.92,7.17-10.66,10.18"/><path d="M33.13,50.07c0.75,0.29,2.13,0.32,2.88,0.29c8.24-0.36,21.44-1.83,30.24-2.12c1.25-0.04,2,0.14,2.63,0.28"/><path d="M18.81,69.03c0.97,0.24,4.57,0.37,5.63,0.34c9.76-0.26,41.22-3.33,51.77-3.54c1.34-0.03,3.77,0.04,6.24,0.51"/><path d="M49.92,51.13c0.62,0.7,1.21,2.39,1.19,3.74c-0.24,23.37-12,35.7-31.36,42.88"/><path d="M50.1,67.89c7.99,6.64,25.29,22.28,33.26,26.73c2.71,1.51,3.66,1.74,4.89,1.88"/></svg>