<svg><path d="M54.41,11.13c0.7,0.36,2.18,2.66,2.32,3.37c0.14,0.71,0.07,3.3-0.07,7.74"/><path d="M26.63,23.73c1.52,0.54,4.3,0.63,5.82,0.54c15.8-0.91,39.55-2.52,53.61-3.23c2.53-0.13,4.05,0.26,5.31,0.53"/><path d="M30.99,24.5c0,36.82-3.16,50.64-14.19,68.97"/><path d="M13,36.5c3.88,2.07,10.03,8.53,11,11.75"/><path d="M11.67,66.52c1.34,0.7,1.76,0.5,2.94-0.36c4.77-3.46,7.53-5.67,11.14-8.66"/><path d="M41.92,30.23c0.38,0.2,0.54,0.91,0.27,1.32c-1.43,2.15-3.15,6.72-5.59,9.47c-0.47,0.53-0.19,0.48,0,0.69c2.35,2.58,5.67,4.05,6.66,7.54"/><path d="M50.73,30.12c0.38,0.2,0.5,0.91,0.27,1.32c-1.25,2.21-2.23,5.34-4.58,7.92c-0.26,0.28-0.13,0.57,0.09,0.74c2.48,1.91,4.21,3.54,5.65,7.43"/><path d="M61.14,28.84c0.38,0.2,0.49,0.9,0.27,1.32c-1.25,2.38-3.28,5.84-5.63,8.42c-0.26,0.28-0.11,0.54,0.09,0.74c2.35,2.4,4.7,3.81,6.15,7.7"/><path d="M38.72,53.46c0.17,0.18,0.34,0.33,0.41,0.56c0.58,1.8,1.27,6.27,1.66,9.5"/><path d="M39.76,54.42c3.8-0.76,13.86-1.95,15.8-2.19c0.71-0.09,1.64,0.51,1.54,1.02c-0.42,2.1-1.41,4.91-2.04,7.82"/><path d="M40.87,62.47c2.29-0.27,11.95-0.73,15.09-1.14"/><path d="M35.9,69.1c6.97-1.2,18.55-1.99,22.85-2.42c1.57-0.16,1.94,1.44,1.84,2.4c-0.36,3.67-1.37,6.27-2.07,8.97"/><path d="M47.19,67.72c0.34,0.24,0.68,1.8,0.68,2.29c0,3.05-0.11,6.86-0.11,8.71"/><path d="M36.48,79.93c2.34-0.27,20.65-1.35,23.32-1.62"/><path d="M35.2,67.11c0.37,0.73,0.67,1.59,0.69,2.71c0.1,5.01-0.19,10.77-0.19,14.16C35.7,91.75,36.25,94,47.5,94c11.96,0,13.25-1.75,13.25-6.72"/><path d="M72.91,29.5c0.11,1.32-0.03,3.05-0.37,4.18c-2.19,7.21-4.96,13.32-9.97,22.1"/><path d="M68,46.83c0.4,0.77,0.71,2.45,0.74,3.64c0.24,10.58-0.33,40.02-0.13,45.53"/><path d="M85.03,28.5c0.05,0.78-0.02,1.8-0.17,2.47c-0.98,4.26-2.21,7.55-4.44,12.74"/><path d="M68.62,46.06c7.38-0.56,22-1.4,24.01-1.94"/><path d="M81.37,46.69c0.23,0.39,0.41,0.93,0.41,1.6c0,6.86,0.03,31.43-0.11,42.24"/><path d="M69.75,60.58c4.42-0.83,19.85-1.73,21.75-2.18"/><path d="M69.22,75.02c4.66-0.7,20.42-2.11,22.42-2.49"/><path d="M68.71,91.82c5.37-0.32,24.79-1.4,26.79-1.95"/></svg>