<svg><path d="M50.72,9.5c0.54,0.57,0.24,2.3,0,2.77c-1.78,3.48-6.84,9-12.82,12.96"/><path d="M25.5,25.66c0.84,0.77,1.55,2.17,1.69,3.19c0.56,3.89,3.06,24.31,3.4,29.39"/><path d="M27.7,27.49c4.77-0.13,45.33-3.5,49.67-3.72c2.76-0.14,4.21,0.88,3.88,2.48c-0.74,3.51-3.99,22.01-5.87,30.21"/><path d="M29.14,41.76c10-0.39,41.57-2.92,48.87-2.92"/><path d="M31.1,55.77c11.97-0.42,32.18-2.41,44.95-2.6"/><path d="M42.5,59.5c0.07,0.9,0.15,2.34-0.14,3.63c-1.68,7.66-10.5,25.94-24.44,34.78"/><path d="M56.99,57.87c0.71,1.22,1.27,2.66,1.31,4.54c0.19,8.4,0,18.07,0,23.78c0,13.34,8.49,11.83,16.84,11.83c8.81,0,14.62-1.72,15.86-2.69c2.62-2.05,1.91-3.08,2.14-6.67"/></svg>