<svg><path d="M55.25,11.75c0.3,0.47,0.41,1.07,0.28,1.46c-1,2.85-4.11,8.21-7.46,11.45"/><path d="M27.83,25.61c0.7,0.65,1.23,1.99,1.41,2.84C29.75,31,31.75,45.5,32.48,52.5"/><path d="M29.65,27.14c3.96-0.11,42.45-2.51,46.05-2.7c2.29-0.12,3.22,1.21,3.21,2.58c-0.01,2.33-2.41,16.73-4.29,24.31"/><path d="M31.11,39.26c8.3-0.33,40.31-2.53,46.37-2.53"/><path d="M32.9,50.84c9.93-0.35,31.27-1.68,41.86-1.84"/><path d="M79.42,59.23c0.33,1.52-0.48,3.08-1.31,3.71C72.75,66.97,56,75.25,38,80.7"/><path d="M34.5,59c1.07,1.13,1.15,1.89,1.51,3.41c0.36,1.51-0.14,18.83-0.14,23.57c0,12.19,14.39,10.28,26.64,10.28c9.5,0,17.42-0.64,21-4.05c3.58-3.41,3.64-6.87,4-10.27"/></svg>