<svg><path d="M29.46,15.75c0.35,0.64,0.41,1.67,0.32,2.22c-0.49,3.27-4.77,11.11-8.65,15.51"/><path d="M14.25,35.72c0.89,0.89,1.19,2.18,1.19,3.68c0,2.11,0.91,25.66,1.17,36.84c0.05,1.93,0.07,3.49,0.07,4.51"/><path d="M15.72,37.36c3.41-0.52,16.99-3.12,22.54-3.97c3.29-0.5,5.26-0.07,5.25,3.61c-0.02,5.82-0.09,24.19-0.11,36.61c0,2.01-0.01,3.87-0.01,5.49"/><path d="M17.18,56.11c6.07-0.74,18.94-2.74,25.12-3.01"/><path d="M17.71,77.44c7.54-0.69,16.16-2.07,24.53-2.39"/><path d="M64.89,14.37c0.04,0.8,0.17,2.08-0.09,3.21c-1.55,6.8-6.05,19.3-14.54,29.21"/><path d="M62.32,33.03c1.18,0.47,2.77,0.42,4.2,0.19c4.61-0.73,16.98-2.6,22-3.5c3.41-0.61,5.99,0.75,5.47,5.41c-1.24,11.11-6.11,42.49-14.1,57c-2.72,4.94-5.76,1.98-8.53-0.61"/><path d="M60.38,53.93c3.35,2.26,8.65,9.31,9.49,12.84"/></svg>