<svg><path d="M27.5,31c5.62-0.75,9.25-1.5,18-3c1.48-0.25,3-0.25,4,0"/><path d="M25,14.89c0.87,0.87,1.26,2.11,1.26,3.8c0,6.81-0.01,27.43-0.01,31.81c0,3.14,0.75,3.62,3.75,1.68c6.31-4.09,8.83-5.85,13.25-8.43"/><path d="M87.07,18.9c0.18,1.35-0.24,2.19-1.28,3C80.5,26,75.5,29.25,66.03,32.93"/><path d="M61.25,12.25c1.06,1.06,1.59,2.38,1.59,4.14c0,7.11,0.01,21.82,0.01,24.23c0,8.38,1.15,9.71,14.93,9.71c14.47,0,15.76-1.58,15.76-8.32"/><path d="M52.72,49.5c0.28,0.88,0.16,1.88-0.59,3.09C49.7,56.54,48.88,58,45.5,62"/><path d="M34.51,63.47c1.01,1.01,1.22,2.26,1.28,3.9c0.17,4.5,0.74,17.84,1.14,25.36c0.1,1.82,0.17,3.32,0.22,4.27"/><path d="M36.11,64.73c5.52-0.48,33.1-2.81,36.26-2.98C75,61.61,76.5,63,76.5,65.54c0,1.5-2,15.47-3.65,25.69c-0.28,1.72-0.53,3.32-0.72,4.71"/><path d="M37.22,78.82c7.41-0.45,31.48-1.91,36.79-1.91"/><path d="M38.16,95.19c8.59-0.44,22.46-1.56,33.12-1.88"/></svg>