<svg><path d="M27.51,16c0.31,0.62,0.35,1.38,0.28,1.93c-0.43,3.2-4.15,10.87-7.53,15.17"/><path d="M13.5,33.97c0.47,1.12,0.94,1.68,0.94,3.18c0,1.5,1.31,38.48,1.5,45.85"/><path d="M14.72,36.11c2.64-0.19,17.24-3.04,19.65-3.26c2.01-0.19,3.3,1.25,3.14,2.36c-0.31,2.25-0.37,34.44-0.61,46.4"/><path d="M15.18,56.86c3.58,0,18.08-1.51,22.12-1.51"/><path d="M15.71,80.94c7.54-0.69,12.54-1.44,21.28-1.64"/><path d="M64.62,13c0.84,0.55,2.23,2.67,2.23,3.76c0,4.32-0.02,10.55-0.11,13.65"/><path d="M44,31.29c1.37,0.04,4.51,0.29,5.84,0.23c11.9-0.58,29.66-1.97,38.95-2.13c2.27-0.04,3.42,0.02,5.11,0.29"/><path d="M58.93,37.09c0.29,0.76-0.02,2.54-0.72,3.79c-2.78,4.93-7.8,10.27-13.46,14.57"/><path d="M75.27,37.73c6.94,4.54,12.67,9.78,16.13,15.29"/><path d="M79.51,49.91c0.57,1.08,0.73,2.98-0.18,4.93c-8.58,18.41-22.58,31.41-43.58,44.31"/><path d="M52.34,57.27c2.91,0.26,25.14,26.96,37.24,37.08c2.27,1.9,3.95,1.87,5.92,2.04"/></svg>