<svg><path d="M27.05,14c0.27,0.63,0.31,1.4,0.24,1.96c-0.37,3.25-3.6,11.03-6.53,15.4"/><path d="M16,32.77c0.52,1.25,1.05,1.88,1.05,3.55c0,1.67,1.46,39.05,1.67,47.29"/><path d="M17.36,34.11C20.31,33.9,32.31,32.6,35,32.35c2.24-0.21,3.68,1.4,3.51,2.64c-0.35,2.51-0.53,32.61-0.8,45.96"/><path d="M17.94,55.13c2.66,0,16.41-1.23,19.41-1.23"/><path d="M19.09,79c5.72-0.43,11.42-0.72,18.05-0.84"/><path d="M50.31,20.02c1.15,0.31,3.28,0.43,4.42,0.31c10.86-1.1,23.29-2.48,32.87-3.07c1.91-0.12,3.07,0.15,4.03,0.31"/><path d="M52.92,20.43c0.58,1.85,0.63,4.41,0.55,6.87c-0.81,24.72-2.96,51.95-16.24,66.4"/><path d="M56.45,39.94c1.3,0.35,1.46,0.88,4.05,0.35c2.59-0.53,19.8-3.08,21.58-3.61c1.78-0.53,3.53,1.41,2.93,3.36C78.75,60.5,72.25,81.75,47.35,95.76"/><path d="M56.24,46.38c3.73,1.2,21.23,31.99,34.22,45.12c2.02,2.04,3.49,3.4,5.38,4.08"/></svg>