<svg><path d="M15.51,28.39c0.47,0.2,3.25,0.34,4.5,0.26c5.36-0.34,19.76-1.69,28.37-2.7c1.25-0.15,2.92-0.2,3.71,0"/><path d="M35.41,13.5c0.84,0.27,1.84,1.78,1.84,3.02c0,3.32-0.11,40.23-0.28,43.55"/><path d="M36.83,27.98c-5.8,10.96-10.6,17.12-22.22,26"/><path d="M39.92,35.14c2.74,1.18,7.24,5,9.54,7.29"/><path d="M83.07,12.5c0.06,0.21,0.25,0.61-0.12,0.84c-5.04,3.06-11.48,5.38-22.1,8.02"/><path d="M59.19,20.29c1.17,1.1,1.15,2.15,1.15,3.35c0,17.35-4.09,28.1-11.2,32.07"/><path d="M60.34,33.84c0.41,0.11,2.46-0.09,3.53-0.22c5.93-0.7,20.39-2.31,28.86-3.47c1.06-0.15,2.96-0.11,3.64,0"/><path d="M77.05,34.13c0.88,0.35,1.4,1.58,1.57,2.29s0,18.18-0.17,22.58"/><path d="M56.59,57.5c0.29,0.33,0.39,0.74,0.26,1.01c-0.94,1.98-3.87,5.68-7.02,7.93"/><path d="M32.83,67.47c0.68,0.7,1.2,2.15,1.37,3.07c0.5,2.75,2.45,19.41,3.17,26.97"/><path d="M34.61,69.12C38.47,69,75.52,65.4,79.03,65.2c2.23-0.13,3.64,1.81,3.64,3.28c-0.01,2.52-2.36,18.57-4.19,26.75"/><path d="M36.03,81.71c8.1-0.35,39.33-3.73,45.24-3.73"/><path d="M37.78,95.21c9.69-0.38,30.51-2.31,40.84-2.49"/></svg>