<svg><path d="M27.48,17.25c0.02,1.12-0.01,2.09-0.44,3.02c-1.92,4.11-3.57,7.33-6.79,12.09"/><path d="M14.25,34.63c0.94,0.94,1.19,2.29,1.19,3.88c0,1.3-0.04,25.53-0.06,38.74c0,2.98-0.01,5.4-0.01,6.87"/><path d="M16.14,35.63c1.66-0.17,11.41-1.3,15.61-1.84c3.1-0.4,3.76,0.92,3.76,3.83c0.01,6.06,0.05,25.16,0.06,38.25c0,2.34,0,4.49,0,6.34"/><path d="M16.6,57.58c2.62,0,14.69-1.23,17.66-1.23"/><path d="M16.61,80.72c5.53-0.73,11.28-1.31,17.69-1.52"/><path d="M55.08,20.38c0.05,1.02,0.11,2.04-0.17,3.03C53.25,29.38,50,37.38,44.57,45.08"/><path d="M55.38,32.82c1.87,0.31,3.41,0.06,4.87-0.04c7.62-0.53,15.73-1.7,22.75-2.22c2.09-0.16,4.31-0.51,6.35,0.11"/><path d="M68.01,12.63c1.06,1.06,1.35,2.49,1.35,4.18c0,0.84-0.11,27.89-0.11,34.81"/><path d="M42.08,54.03c3.29,0.59,6,0.42,8.67,0.16c10.88-1.06,24.53-2.28,38.38-3.13c3.03-0.19,6.33-0.1,9.3,0.7"/><path d="M49.33,65.21c0.98,0.98,1.32,2.03,1.42,3.29c0.96,6.31,1.84,13.57,2.63,20.14c0.24,2.02,0.47,3.98,0.7,5.82"/><path d="M51.5,66.83c9.37-0.96,24.55-1.99,31.4-2.73c3.18-0.34,5.2,0.77,4.56,4.38c-1.03,5.79-2.33,12.39-3.85,20.75"/><path d="M54.85,91.87c7.33-0.51,17.64-1.17,25.65-1.61c1.92-0.11,3.72-0.2,5.3-0.28"/></svg>