<svg><path d="M48.99,9c0,1.12-0.24,2.05-0.96,3.07c-1.9,2.68-3.9,5.55-6.86,9.03"/><path d="M29.51,21.96c0.95,0.95,1.51,2.47,1.66,3.32c0.45,2.52,1.7,10.24,2.72,16.6c0.29,1.78,0.55,3.45,0.78,4.88"/><path d="M31.34,23.97C41.62,22.62,63,20.5,73.38,19.49c3.12-0.3,5.62,1.76,5.2,4.77c-0.45,3.21-2.19,9.18-3.8,15.15c-0.51,1.88-1.01,3.66-1.47,5.19"/><path d="M33.96,33.65c11-0.95,35.45-3.02,41.29-3.02"/><path d="M35.59,44.86C47,44,61.95,42.7,72.57,42.54"/><path d="M22,56.34c0.64,0.26,2.57,0.4,3.12,0.37c3.85-0.22,11.09-1.22,15.25-1.43c1.16-0.06,2.49-0.12,3.62,0.16"/><path d="M21.5,67.59c0.9,0.36,2.7,0.65,3.64,0.58c3.83-0.25,10.34-1.23,14.36-1.4c1.4-0.06,2.59-0.43,4-0.09"/><path d="M64,53.59c0.94,0.38,2.78,0.39,3.76,0.33c4.1-0.28,11.37-1.5,15.24-1.66c1.09-0.06,2.17-0.01,3.25,0.17"/><path d="M64,64.59c0.97,0.39,2.87,0.38,3.88,0.32c4.17-0.29,11.46-1.34,15.62-1.6c1.28-0.08,2.74-0.18,4,0.12"/><path d="M16.25,79.72c3.62,1.18,7.66,0.53,11.37,0.27c14.02-0.95,36.88-2.86,54.74-3.82c3.59-0.19,7.49-0.05,10.89,1.37"/><path d="M52.25,49c1.19,1.19,1.5,2.25,1.5,4c0,8.43,0,29.02,0,40.38c0,2.79,0,5.02,0,6.38"/></svg>