<svg><path d="M30.91,11.25c0.44,0.42,0.48,2.08,0.15,2.58C26.75,20.25,23.5,25,17.81,31.9c-1.55,1.88-1.88,3.05,0.88,2.52c8.56-1.66,18.69-3.53,28.1-5.41"/><path d="M39.02,21.26c3.98,2.31,10.28,9.52,11.28,13.12"/><path d="M25.81,35.86c0.03,0.41,0.17,1.1-0.07,1.66c-1.67,3.75-6.48,10.94-13.04,15.9"/><path d="M37.48,33.8c0.32,0.47,0.57,1.03,0.59,1.75c0.08,3.24-0.23,6.4-0.23,8.6c0,5.15,3.81,4.57,7.57,4.57c3.96,0,6.42-0.63,7.12-1.91"/><path d="M27.59,50.75c0.04,0.57-0.18,2.04-0.5,2.8c-2.26,5.37-6.61,14.03-15.06,21.55"/><path d="M25.81,60.06c0.45,0.44,2.54,0.5,3.19,0.41c2.13-0.29,9.62-2.86,12.65-3.75c2.08-0.61,3.33,1.27,2.64,2.85C39.34,71,27.89,88.75,13.67,95"/><path d="M22.06,69.18c5.17,1.63,17.05,12.54,19.75,17.8"/><path d="M59.3,32.37c0.58,1.09,0.53,2.58,0.44,4.85C59,56,56.5,77.25,45.62,91.13"/><path d="M56.1,31.51c1.65,0.24,2.87,0.45,3.88,0.34c9.78-1.1,25.05-1.71,29.48-2.02c8.48-0.59,3.29,6.41,0.34,8.78"/><path d="M71.96,14.75c1.4,0.5,2.24,2.25,2.53,3.25c0.28,1-0.1,22.5-0.1,32.75"/><path d="M61.78,51.17c1.1,0.33,1.3,0.57,3.54,0.38C72,51,82.2,50.25,86.88,49.48c1.56-0.26,3.29,1.43,2.56,3.11C82,69.75,72.25,83.5,55.68,95.14"/><path d="M63.11,58.37C66,63,80.9,82.79,91.42,92.43c1.64,1.51,2.83,2.5,4.36,3"/></svg>