<svg><path d="M14.51,15.36c-0.1,3.68-2.57,13.31-3.45,15.51"/><path d="M14.57,18.01c4.81-0.62,26.86-1.74,36.38-2.23c7.24-0.37-1,7.14-1.89,8.19"/><path d="M16.15,33.7c0.86,0.35,4.22,0.43,5.08,0.35c8.27-0.78,14.67-1.65,24.33-2.1c1.43-0.07,2.28,0.17,3,0.35"/><path d="M14.32,43.3c0.59,0.44,1.33,1.72,1.44,2.31c0.88,4.67,1.82,13.64,2.87,21.18"/><path d="M16.58,44.37c8.94-0.85,24.07-2.37,30.17-2.5c2.52-0.05,3.04,1.16,2.93,2.48c-0.37,4.55-1.18,10.4-2.8,19.43"/><path d="M19.29,53.97c6.74-0.22,16.24-1.81,28.93-1.81"/><path d="M19.29,64.49c7.83-0.88,17.41-2.03,27.61-2.03"/><path d="M11.87,77.56c1.28,0.73,3.6,0.85,4.9,0.73C26.8,77.41,34.19,75.25,47.9,75c2.13-0.04,3.41-0.24,4.48,0.12"/><path d="M30.81,22.82c0.55,0.55,1.82,1.93,1.82,4.75c0,1.11-0.07,63.65-0.18,70.56"/><path d="M57.25,26.7c0.75,0.55,1.41,2.02,1.4,4.55C58.54,59.75,57.5,79.5,47.87,92.8"/><path d="M59.01,30.08c12.24-2.83,24.26-4.44,28.94-4.81c8.24-0.65,4.05,4.47,0.83,8.8"/><path d="M71.46,12.75c1.37,0.56,2.18,2.5,2.45,3.61c0.27,1.11-0.1,21.04-0.1,32.42"/><path d="M61.63,49.97c1.38,0.36,2.15,0.24,4.93-0.08c7.94-0.89,14.72-2.17,20.57-3.02c1.95-0.28,3.42,2.12,2.57,4.01c-8.7,19.52-16.46,33.36-36.58,45.19"/><path d="M63.61,57.16C68.75,65.5,80,82,91.49,92.79c1.64,1.54,2.79,2.62,4.29,3.14"/></svg>