<svg><path d="M29.37,18.6c1.48,0.53,4.19,0.62,5.66,0.53c12.59-0.81,28.09-3.36,42.14-3.36c2.46,0,3.94,0.25,5.17,0.52"/><path d="M18.39,37.29c1.81,0.64,5.14,0.8,6.95,0.64c13.4-1.18,43.36-4.64,62.93-4.58c3.02,0.01,4.83,0.3,6.34,0.62"/><path d="M54.38,19.5c0.53,0.7,1.51,2.3,1.56,4.64c0.25,11.23-0.16,26.22-0.16,30.05c0,8.09-5.03,1.56-7.15-0.57"/><path d="M27.33,66.06c0.92,0.69,2.12,2.56,2.19,3.54c0.73,9.39,1.11,14.24,1.89,22.14"/><path d="M29.07,67.99c11.96-1.58,47.57-3.25,52.59-3.87c1.74-0.22,3.09,0.88,3.03,3.53c-1.03,5.22-3.08,15.25-4.12,21.68"/><path d="M46.61,68.74c0.28,0.73,0.64,1.34,0.69,2.27c0.46,8.5,0.21,13,0.72,20.38"/><path d="M62.75,66.82c0.44,0.73,0.9,1.79,0.83,2.75C63.16,75.7,63,82.25,62.97,90.79"/><path d="M15.17,93.38c1.98,0.71,5.61,0.9,7.59,0.71C41.75,92.25,73.5,90,90.41,90.16c3.3,0.03,5.28,0.83,6.93,1.19"/></svg>