<svg><path d="M21.31,18.7c1.44,0.51,4.08,0.63,5.51,0.51c10.76-0.89,42.02-3.46,57.82-4.4c2.39-0.14,3.83,0.25,5.03,0.5"/><path d="M57.46,19.05c0.12,0.76,0.01,2.11-0.74,3.04C51.75,28.25,36,40.75,14.02,51.23"/><path d="M52.79,30.03c0.98,0.45,1.56,2.02,1.76,2.92c0.2,0.9,0,22-0.2,27.61"/><path d="M64.97,31.76c9.22,3.4,20.58,11.64,26.13,19.29"/><path d="M26.84,69.6c0.67,0.6,1.54,1.75,1.69,2.27c1.13,4.08,1.55,8.86,2.32,21.63"/><path d="M29.07,71.38c12.08-0.84,46.78-3.98,52.07-4.37c1.93-0.14,2.6,1.84,2.32,2.68c-1.14,3.47-2.46,13.8-4.24,21.74"/><path d="M44.86,71.62c0.28,0.39,0.57,0.71,0.69,1.2c0.95,5.44,0.95,12.44,1.85,20.59"/><path d="M62.65,69.87c0.29,0.46,0.56,1.26,0.48,1.86c-0.84,5.95-1.38,13.03-2.39,20.92"/><path d="M14.88,94.98c1.52,0.54,4.3,0.63,5.82,0.54c15.8-0.91,41.03-3.08,70.11-3.23c2.53-0.01,4.05,0.26,5.31,0.53"/></svg>