<svg><path d="M28.13,23.25c0.98,0.39,2.78,0.43,3.76,0.39c8.61-0.39,31.86-2.39,44.8-2.98c1.63-0.07,2.62,0.19,3.43,0.38"/><path d="M52.42,11.25c0.12,0.3,1.77,1.56,1.77,3.46c0,9.79,0.14,17.1,0.14,21.94"/><path d="M17.38,39.1c1.52,0.55,4.31,0.69,5.82,0.55c18.55-1.65,47.05-3.9,62.11-4.34c2.53-0.07,4.05,0.26,5.31,0.54"/><path d="M50.8,40.25c0.38,0.88,0.15,2.14-0.33,2.64c-6.43,6.76-9.97,9.36-19.07,16.17c-2.56,1.91-3.26,3.59,0.98,2.94c11.25-1.71,26.8-5.02,43.11-7.66"/><path d="M65.27,44.33c5.57,3.11,14.4,12.79,15.79,17.63"/><path d="M28.52,72.15c0.67,0.57,1.53,1.19,1.67,1.67c1.12,3.84,1.52,14.48,2.29,21.37"/><path d="M31.72,74.36c11.92-0.8,43.71-3.82,48.04-3.71c1.87,0.04,2.49,0.85,2.73,2.29c0.16,0.97-1.99,13.06-2.73,20.14"/><path d="M46.82,75.11c0.28,0.37,0.68,1.65,0.68,2.13c0,5.76,0.25,9.26,0.32,16.64"/><path d="M62.43,73.43c0.51,0.44,0.94,1.18,0.91,1.75C63,80.75,63,87,62.48,93.42"/><path d="M15.89,95.61c1.42,0.51,4.02,0.59,5.43,0.51c14.74-0.85,42.96-2.88,70.09-3.01c2.36-0.01,3.78,0.24,4.96,0.49"/></svg>