<svg><path d="M22.79,22.24c1.31,0.35,3.71,0.39,5.01,0.35c10.19-0.32,34.87-5.43,46.65-5.9c2.18-0.09,3.49,0.17,4.58,0.34"/><path d="M43.63,10.18c1.7,0.65,2.98,2.08,3.34,3.48c2.98,11.71,13.33,22.15,34.19,26.52c6.69,1.4,6.58-0.24,4.89-5.86"/><path d="M68.3,22.54c-0.27,0.59-0.53,1.2-1.16,1.74c-5.5,4.71-19.64,12.16-43.09,17.05"/><path d="M55.83,9.12c2.82,0.72,7.33,2.38,8.65,3.62"/><path d="M22.79,54.2c1.31,0.35,3.72,0.53,5.01,0.35c13.19-1.85,38.37-6.3,50.15-6.78c2.18-0.09,3.49,0.17,4.58,0.34"/><path d="M43.13,40.13c1.99,0.7,2.69,2.29,3.27,3.74c5.09,12.58,15.66,24.36,40.07,29.05c7.84,1.51,6.73-1.7,5.73-4.79"/><path d="M72.29,54.5c0.14,0.44,0.29,1.14-0.28,1.78c-3.37,3.76-22.26,12.41-48.71,17.46"/><path d="M56.08,39.2c2.9,0.82,7.54,2.71,8.9,4.12"/><path d="M28.08,78.79c0.66,0.81,1.51,1.81,1.65,2.5c1.11,5.45,1.57,10.56,2.33,16.15"/><path d="M30.75,81c11.64-1.12,47.21-2.94,49.23-2.94s3.91,1.19,3.47,3.29s-2.51,10.34-3.53,14.89"/><path d="M46.87,81.68c0.27,0.52,0.55,0.95,0.67,1.6c0.93,5.06,0.46,8.92,0.69,13.91"/><path d="M64.04,80.68c0.43,0.52,0.88,1.27,0.81,1.95c-0.41,4.33-0.6,8.82-1.07,13.79"/><path d="M15.67,98.53c1.89,0.67,5.35,0.8,7.24,0.67C45,97.7,62.1,96.04,87.47,96.43c3.15,0.05,5.04,0.32,6.61,0.66"/></svg>