<svg><path d="M25.88,13.5c3.84,1.57,9.91,6.46,10.87,8.9"/><path d="M19.5,30.52c3.18,1.31,8.21,5.37,9,7.4"/><path d="M18,62.17c1.19,1.33,2.89,0.71,3.99-0.13c3.19-2.46,11.86-10.96,14.76-14.09"/><path d="M56.62,12.75c0.05,0.55,0.1,1.42-0.09,2.22c-1.12,4.67-7.53,14.92-16.31,21.2"/><path d="M54.72,24.14c1.04,0.28,3.01,0.72,4.58,0.48c1.91-0.3,26.65-3.38,28.47-3.39c6.27-0.04-2.66,8.45-6.53,12.14"/><path d="M61.72,31.52c0.06,0.77,0.19,2-0.12,3.1c-2.85,9.89-8.81,21.58-22.35,29.64"/><path d="M60.58,38.43c3.85,4.16,17.32,16.63,24.23,21.08c1.46,0.94,2.56,1.49,3.94,1.79"/><path d="M27.33,70.76c0.64,1,1.47,2.25,1.6,3.1c1.08,6.75,1.53,11.47,2.26,18.39"/><path d="M28.93,71.88c10.82-0.38,45.12-2.22,49.87-2.76c1.65-0.19,3.64,2.11,3.4,3.22c-0.97,4.57-2.44,12.67-3.43,18.3"/><path d="M44.64,72.1c0.27,0.64,0.54,1.18,0.65,1.98c0.91,6.27,0.51,11.18,1.15,17.85"/><path d="M62.33,70.86c0.42,0.64,0.85,1.57,0.79,2.41c-0.37,6.23-0.37,10.98-0.53,17.7"/><path d="M15.17,93.02c1.88,0.45,5.32,0.53,7.2,0.45c19.55-0.76,41.65-2.47,66.88-2.21c3.13,0.03,5.01,0.21,6.58,0.44"/></svg>