<svg><path d="M24.07,29.12c0.8,0.8,1.01,1.85,0.97,3.43C24.67,47.12,23.25,59.5,12.7,73.62"/><path d="M26.02,30.52c1.47,0.44,3.92,0.07,5.38-0.06c5.9-0.55,32.77-4.44,45.63-6.46c2.45-0.38,5.34-0.62,7.38-0.34"/><path d="M27.34,45.51c1.16,0.37,2.76,0.28,3.45,0.15c6.33-1.12,14.04-2.7,16.1-2.78c2.29-0.1,2.75,0.96,2.4,2.97s-3.82,14.6-8.53,20.34c-2.51,3.06-3.51,2.31-5.91,0.02"/><path d="M51.2,8.25c1.78,1.37,2.48,3,2.89,5.94C57.25,37,70,60.75,90.33,70.59c6.83,3.31,6,0.59,5.11-5.47"/><path d="M79.3,35.28c0.07,0.66,0.14,1.7-0.13,2.64c-1.56,5.56-10.37,17.25-22.64,24.73"/><path d="M66.5,9.75c2.69,1.19,7.01,3.9,8.26,5.94"/><path d="M27.08,76.51c0.89,0.89,1.47,2,1.6,2.85c1.08,6.75,1.28,10.22,2.01,17.14"/><path d="M29.43,78.13c10.01-1.22,36.29-3.55,45.86-3.98C78.5,74,81,75.75,80,79.13c-1.56,5.28-2.88,9.99-4.24,14.5"/><path d="M43.14,77.6c0.57,0.57,1.08,1.42,1.15,2.23c0.58,6.92,1.01,9.18,1.65,15.85"/><path d="M60.33,76.11c0.78,0.78,1.06,1.58,0.98,2.66c-0.36,4.85-0.43,9.1-0.96,15.95"/><path d="M14.67,97.52c2.47,0.88,6.02,0.64,8.58,0.48c14.34-0.89,42-2.88,59.62-3.5c2.91-0.1,5.62,0.09,8.46,0.7"/></svg>