<svg><path d="M53,9.74c0.88,0.88,1.03,2.13,1.03,4.04c0,1.97-0.03,5.59-0.03,7.87"/><path d="M16.45,24.35c2.93,0.65,5.75,0.5,8.8,0.22c12.27-1.13,40.53-3.42,55.26-4.03c3.07-0.13,6.34-0.52,9.3,0.49"/><path d="M31.63,26.83c0.77,0.77,0.83,1.93,0.83,2.99c0,0.93,0,2.43,0,3.53c0,6.03,1.3,7.79,23.92,7.79c12.88,0,20.38-0.39,27.85-1.88"/><path d="M32.68,51.72c1.05,1.05,1.22,2.11,1.22,3.54c0,1.13,0,24.45,0,36.49c0,3.11,0,5.47,0,6.5"/><path d="M34.41,53.41c5.68-0.49,31.54-2.63,39.59-3.09c2.87-0.16,5.13,0.3,5.13,3.73c0,4.01,0.19,22.18,0.07,34.69c-0.02,2.69-0.04,5.13-0.04,7.1"/><path d="M34.84,66.7c11.48-0.82,33.54-2.59,42.86-2.76"/><path d="M35.18,80.65c13.07-1.27,29.57-2.65,42.49-3.14"/><path d="M35.05,95.28c11.3-0.64,28.65-2.16,42.94-2.69"/></svg>