<svg><path d="M13.38,25.07c0.29,1.36,0.71,2.4,0.71,4.16c0,1.77-0.1,53.97,0,55.75"/><path d="M14.57,25.76c1.62-0.02,13.48-1.32,14.96-1.4c1.23-0.07,2.1,1.49,2.1,3.13c0,6.04-0.57,42.89-0.57,56.68"/><path d="M14.54,45.34c4.48-0.46,12.21-1.02,15.85-0.79"/><path d="M14.67,62.64c4.3-0.21,10.54-0.96,16.29-0.58"/><path d="M14.04,81.75c4.41-0.25,11.37-0.9,16.95-0.87"/><path d="M55.81,16.25c0.31,0.83,0.01,1.8-0.43,2.77c-2.58,5.76-10.08,18.6-17.63,24.73"/><path d="M66.58,11.25c1.16,0.27,2.26,0.63,3.01,1.35c6.8,6.58,15,20.23,21.44,24.35c2.78,1.78,3.77,2.73,6.47,3.3"/><path d="M47.27,43.25c0.82,0.29,2.31,0.32,3.12,0.29c6.31-0.26,21.25-1.94,30.31-2.33c1.36-0.06,2.17,0.14,2.85,0.28"/><path d="M57.75,45.05c0.34,0.78,0.54,1.79,0.07,2.92c-1.31,3.13-3.78,8.92-5.52,12.06c-0.99,1.78-0.32,3.42,2.06,2.91c4.33-0.93,18.49-2.57,23.88-3.43c2.79-0.44,4.9,0.31,3.84,4.44C79.25,75,74.05,86.07,68.19,92.81c-4.94,5.69-6.41,1.44-8.35-1.45"/></svg>