<svg><path d="M25.15,27.9c1.92,0.35,5.43,0.36,7.35,0.19c16.72-1.53,29.48-2.6,46.27-3.74c3.19-0.22,5.11,0.04,6.71,0.2"/><path d="M53.73,12.51c1.38,1.38,2.01,3.12,2.01,4.89c0,3.35,0.09,8.6,0.09,19.6"/><path d="M36.56,37.49c1.19,1.26,1.66,3.14,1.66,4.57c0,1.2,0.39,24.33,0.19,37.94c-0.02,1.46-0.04,2.82-0.07,4.01"/><path d="M39.52,39.91c8.14-0.78,28.45-3.08,30.99-3.25c2.46-0.17,3.99,1.59,4.19,4.16c0.11,1.44-0.12,22.29-0.19,36.93c-0.01,1.37-0.01,2.69-0.01,3.94"/><path d="M39.61,52.51c8.01-0.63,27.51-2.38,33.61-2.61"/><path d="M39.63,65.91c8.64-0.56,24.87-2.16,33.96-2.49"/><path d="M39.75,80.42c6.02-0.5,29.3-2.32,33.63-2.32"/><path d="M19.75,50.5c1,1.25,1.75,2.75,1.75,5.25s-1.12,29.88-1.75,35.75c-0.28,2.6,0.27,4.15,3.25,3.75c20.5-2.75,41.5-4,63.75-4c2.75,0,5.5,0.5,7.5,1.25"/></svg>