<svg><path d="M15.88,24.05c0.34,1.34,0.85,2.36,0.85,4.09c0,1.74-0.12,53.08,0,54.83"/><path d="M17.31,25.23c1.96-0.02,16.25-2.3,18.04-2.38c1.48-0.07,2.53,1.46,2.53,3.08c0,5.94-0.69,42.69-0.69,56.24"/><path d="M17.28,43.49c5.4-0.45,15.72-1.5,20.1-1.28"/><path d="M17.44,60.51c5.18-0.21,12.81-1.01,19.64-1.07"/><path d="M16.67,79.8c5.32-0.25,13.71-1.39,20.44-1.36"/><path d="M68.36,13.75c0.07,0.32,1.4,1.67,1.46,3.71c0.31,9.78-0.2,37.21-0.2,40.54c0,8.5-5.53,0.51-6.69-0.33"/><path d="M56.94,28.19c0.04,0.57,0.14,1.49-0.08,2.28c-1.58,5.67-7.26,15.96-12.7,21.19"/><path d="M81.43,27.73C87.82,31.6,96.4,41.56,98,47.59"/><path d="M88.77,47.22c0.14,1.15,0.51,3.06-0.28,4.61C81.5,65.5,61.5,87,39.22,96"/></svg>