<svg><path d="M27,17.25c1.75,1,4.13,1.17,6.26,1.02c10-0.73,33.87-3.64,45.24-4.38c3.3-0.22,6,0.87,5.5,4.12c-0.79,5.14-1,7-2.75,15"/><path d="M54.1,18.25c0.83,0.83,1.05,1.75,1.05,2.74c0,0.55-0.02,7.13-0.02,11.01"/><path d="M31,35c12.38-1.12,34.75-2.88,49.25-3.5"/><path d="M28.75,18.75c0.75,0.75,1,1.88,1,4c0,31.62-3,50.5-14,64"/><path d="M41.75,46.87c1,1,1.41,2.01,1.41,3.84c0,1.15-0.02,28.15-0.03,39.67c0,2.95,0,5.35,0,5.5"/><path d="M43.98,49.27c7.4-0.9,28.12-3.81,31.08-4.03c2.46-0.18,3.7,0.88,3.7,3.85c0,3.38-0.01,27.19-0.01,39.66c0,2.62,0,4.88,0,6.12"/><path d="M44.06,62.94c8.81-0.94,24.56-2.44,33.48-2.8"/><path d="M44.08,77.26c8.6-0.61,21.55-1.88,33.58-2.42"/><path d="M44.21,93.69c7.39-0.32,25.13-1.87,33.48-1.87"/></svg>