<svg><path d="M43.42,13.91c1.09,1.09,1.39,2.61,1.39,3.84c0,1.06,0,25.55,0,34.75c0,1.48,0,3.54,0,4.01"/><path d="M45.82,16.29c2.61-0.15,21.98-2.62,24.39-2.8c2.38-0.18,3.39,1.28,3.38,3.39c-0.02,5.77-0.12,25.48-0.16,33.87c-0.01,1.6-0.01,2.79-0.01,3.39"/><path d="M46.03,28.68c5.6-0.56,22.13-2.2,26.32-2.2"/><path d="M45.99,41.08c8.64-0.83,18.51-1.83,26.05-2.09"/><path d="M46.56,53.67c6.31-0.29,18.31-1.42,25.65-1.63"/><path d="M25.75,27c0.75,1,1.5,2.5,1.5,4.25S26,60.12,26,63.25c0,2.25,0.24,4.42,3,4.25c4.12-0.25,54.25-3.75,56.5-3.75s5.25,0.25,7,0.5"/><path d="M53.29,67.62c1.11,1.11,1.64,2.76,1.64,4.77c0,6.38-0.11,14.5-0.16,20.74c-0.01,1.81-0.02,3.47-0.02,4.88"/><path d="M37.13,77c0.14,1.04,0.03,1.92-0.62,2.75c-3.13,4-10.01,9.75-20.51,15.5"/><path d="M73.96,77.37C79.5,80.5,86.5,87,88.75,92"/></svg>