<svg><path d="M12.38,24.07c0.29,1.36,0.71,2.4,0.71,4.16c0,1.77-0.1,53.97,0,55.75"/><path d="M13.57,24.76c1.62-0.02,13.48-1.32,14.96-1.4c1.23-0.07,2.1,1.49,2.1,3.13c0,6.04-0.57,42.89-0.57,56.68"/><path d="M13.54,44.34c4.48-0.46,12.21-1.02,15.85-0.79"/><path d="M13.67,61.64c4.3-0.21,10.55-0.96,16.29-0.58"/><path d="M13.04,80.75c4.41-0.25,11.37-0.9,16.95-0.87"/><path d="M42.99,28.13c0,4.16-2.63,15.59-3.82,18.37"/><path d="M42.74,32.24C57,30,77,28.25,88.67,27.84c14.02-0.5,4.43,7.41-0.52,10.78"/><path d="M64.55,12c0.97,1.8,1.22,2.37,1.25,5.15c0.2,23.37-0.99,62.16-30.88,78.52"/><path d="M66.99,46.37c0.74,1.19,1.33,2.59,1.38,4.43c0.2,8.19-0.03,27.64-0.03,33.2c0,10,2.17,12.03,15.17,12.03c12,0,13.39-2.28,13.39-11.62"/></svg>