<svg><path d="M23.63,23.92c3.25,0.33,6.04,0.35,8.62,0.08c12-1.25,32.73-3.03,43.75-3.46c2.8-0.11,5.9-0.1,8.63,0.58"/><path d="M51.96,9c1.04,1,1.48,2.38,1.28,4.17C52.5,19.75,51.5,26.75,50.7,32.5"/><path d="M31.5,34.33c0.77,0.77,1.22,2.04,1.32,3.22c0.34,4.08,2.03,22.86,2.75,31.08c0.2,2.27,0.32,3.73,0.32,3.86"/><path d="M33.88,35.7c6.37-0.57,33.4-3.78,36.69-3.96c2.74-0.15,4.64,1.52,4.43,4.66c-0.5,7.35-1,16.35-1.81,30.22c-0.05,0.88-0.19,2.26-0.21,3.54"/><path d="M34.82,46.58C48.5,45.38,65,43.75,73.74,43.46"/><path d="M35.62,57.69c10.63-0.94,25.63-1.94,37.45-2.26"/><path d="M36.76,69.46c14.24-1.21,23.49-2.21,35.27-2.82"/><path d="M16.25,80.12c2.18,0.62,6.17,0.75,8.35,0.62c13.52-0.85,41.03-3.11,62.65-3.72c3.63-0.1,5.81,0.3,7.62,0.61"/><path d="M42,82.89c0.14,0.99,0.01,1.92-0.56,2.71c-2.82,3.9-9.19,10.02-18.38,15.37"/><path d="M67.88,83.75C74.12,86.43,84,94.79,85.56,98.97"/></svg>