<svg><path d="M14.12,25.37c0.88,0.88,1.06,2.27,1.06,3.76c0,1.2,0.11,37.19,0.05,52.12c-0.01,3.73-0.02,6.11-0.02,6.26"/><path d="M15.72,26.95c1.66-0.05,12.54-2.1,16.39-2.68c2.77-0.41,3.51,1.06,3.51,3.6c0,6,0.01,32.5,0.01,49.62c0,2.77-0.02,4.88-0.01,7"/><path d="M16.44,45.23c5.93-0.73,12.44-1.73,17.7-2.21"/><path d="M16.59,63c6.78-1,9.78-1.38,17.73-2.19"/><path d="M16.33,84.17c4.73-0.67,11.3-1.67,18.18-1.94"/><path d="M47.06,21.02c1.69,0.48,3.34,0.36,4.71,0.16c8.64-1.27,22.47-3.05,28.47-3.86c2.22-0.3,5.31-0.08,4.55,3.25c-1.09,4.73-1.94,8.18-2.97,11.41"/><path d="M50.45,37.06c5.92-0.94,22.88-2.92,29.7-3.72c1.07-0.12,3.46-0.33,4-0.16"/><path d="M48.25,21.85c0.95,0.95,1.13,2.23,1.13,4.31c0,2.08,0.08,56.66,0.08,59.89c0,3.58,0.9,3.57,3.19,0.98c2.81-3.16,7.85-9.02,11.78-12.48"/><path d="M52.88,53.32c1.99,0.43,3.48,0.24,5.85-0.2c9.9-1.87,18.4-3.49,28.16-4.55c1.85-0.2,3.86-0.31,5.38-0.05"/><path d="M68.23,37.56c0.85,0.85,1.55,2.56,1.67,3.88c1.85,21.94,9.85,39.31,23.66,49.58c5.55,4.12,3.86-2.91,3.86-5.41"/></svg>