<svg><path d="M13.38,21.09c0.37,0.91,0.85,2.5,0.85,4.34c0,1.84-0.12,58.7,0,60.55"/><path d="M14.81,22.82c1.96-0.02,16.25-1.38,18.04-1.46c1.48-0.07,2.53,1.55,2.53,3.26c0,6.29-0.69,44.66-0.69,59.01"/><path d="M14.78,41.71c5.4-0.48,15.72-2.06,20.11-1.82"/><path d="M14.44,59.72c5.18-0.22,11.56-1.22,20.14-1.6"/><path d="M14.17,81.61c5.32-0.26,13.21-1.44,19.94-1.41"/><path d="M66.1,13c1.27,0.57,3.35,2.8,3.35,3.94c0,4.21-0.17,8.06-0.17,12.38"/><path d="M43.5,31.38c1.42,0.07,4.66,0.48,6.04,0.38c11.15-0.81,28.28-3.02,44.18-3.58c2.34-0.08,3.53,0.03,5.28,0.49"/><path d="M62.52,33.9c0.41,1.44,0.67,2.59-0.21,4.08c-3.83,6.48-7.56,11.27-13.07,18.12c-0.68,0.84-0.32,3.34,0.5,3.6c5.76,1.8,13.01,2.05,18.29,5"/><path d="M82.06,42.31c0.64,1.65,0.16,4.44-0.58,5.45C70.25,63,64.25,71.63,47.8,89.62c-1.84,2.01-1.2,3.43,1.17,2.97c16.03-3.09,19.78-4.34,37.99-7.9"/><path d="M79.06,71.46c4.59,4.53,11.87,18.61,13.02,25.65"/></svg>