<svg><path d="M13.38,21.3c0.84,0.84,1.11,2.36,1.11,4.09c0,1.38,0,33.69,0,48.98c0,3.93,0,6.74,0,7.61"/><path d="M15.08,23.48c3.25-0.42,13.23-2.06,17.3-2.5c3.25-0.35,4.02,1.42,3.99,4.4c-0.06,7.57-0.16,32.7-0.18,47.99c0,2.82-0.01,5.31-0.01,7.29"/><path d="M15.54,41.49c5.46-0.45,14.33-1.12,19.82-1.03"/><path d="M15.7,58.76c5.24-0.21,12.42-0.88,19.36-1.07"/><path d="M15.68,78.05c5.38-0.25,11.2-0.92,19.42-1.11"/><path d="M67.7,9c0.05,1-0.25,2.41-0.66,2.94C61.38,19,54.5,25.75,47.77,31.66c-1.92,1.69-1.55,4.13,1.09,3.55c8.89-1.96,25.52-5.46,36.15-7.57"/><path d="M77.84,17.9c5.28,2.97,13.65,12.2,14.97,16.81"/><path d="M56.07,41.64c0.07,1.12-0.21,2.44-0.66,3.49c-2.16,4.99-5.44,10.56-11.07,17.61"/><path d="M56.23,51.17c2.4,0.46,4.18,0.29,5.89,0.19c7.18-0.42,15.34-0.81,23.27-1.25c1.97-0.11,4.01-0.21,5.92,0.43"/><path d="M43.75,69.73c3.12,0.77,6.87,0.36,9.74,0.21c10.26-0.56,22.64-1.06,37.64-1.83c2.63-0.13,5.31-0.04,7.88,0.71"/><path d="M68.45,37.13c0.9,0.9,1.48,2.37,1.48,4.25c0,3.83,0.04,32.37,0.06,48.49c0,4.36,0.01,7.82,0.01,9.62"/></svg>