<svg><path d="M37.73,13.14c0.05,0.44,0.11,1.13-0.11,1.76c-1.31,3.71-8.79,11.84-19.04,16.82"/><path d="M67.66,12.58c6.27,2.41,16.19,9.89,17.75,13.63"/><path d="M34.25,26.89c0.94,0.38,2.66,0.42,3.6,0.38C45.25,27,61.5,26,67.96,25.39c1.56-0.15,2.5,0.18,3.29,0.37"/><path d="M14.75,41.48c1.9,0.68,5.37,0.73,7.27,0.68c9.9-0.3,44.48-3.4,63.59-3.53c3.16-0.02,5.06,0.32,6.64,0.66"/><path d="M52.75,11.25c0.11,1.35,0.23,3.5-0.22,5.44C49.93,28.16,40,57.75,15,68.75"/><path d="M58.5,32c3,0.5,26.21,24.08,31.55,28.3c1.81,1.43,4.14,2.04,5.95,2.45"/><path d="M38.41,55.97c0.53,0.98,1.31,1.72,1.31,3.03s-0.35,38.96-0.35,39.62"/><path d="M39.54,57.24c3-0.16,27.43-2.05,30.17-2.25c2.28-0.16,3.88,0.51,3.88,3.13c0,1.56-0.53,32.9-0.53,38.84"/><path d="M40.04,70.14c5.92-0.22,27.85-2.08,32.66-2.08"/><path d="M39.79,83.36c7.95-0.55,25.34-1.97,33.06-1.97"/><path d="M39.98,95.6c6.83-0.29,25.04-1.47,32.77-1.47"/></svg>