<svg><path d="M14.66,18.14c0.46,1.49,1.14,2.64,1.14,4.58c0,1.63-0.11,43.59-0.05,58.29c0.01,2.84,0.03,4.66,0.05,4.98"/><path d="M16.2,20.4c0.43-0.01,1.45-0.08,2.81-0.2c4.71-0.4,13.38-1.28,14.72-1.35c1.44-0.07,2.46,1.63,2.46,3.44c0,6.05-0.56,40.67-0.65,58.21c-0.01,1.7-0.01,3.24-0.01,4.57"/><path d="M16.17,41.92c5.25-0.51,14.81-1.62,19.07-1.37"/><path d="M16.32,60.93c5.04-0.23,14.43-1.13,19.09-1.13"/><path d="M16.08,82.43c5.17-0.28,12.83-0.99,19.37-0.96"/><path d="M51.66,13c3.24,2.02,8.37,8.32,9.18,11.47"/><path d="M82.6,11c0.03,0.38,0.06,0.97-0.06,1.52c-0.65,2.79-4.02,8.48-8.78,12.73"/><path d="M47.93,30.04c1.17,1.07,3.25,1.31,4.75,1.19c6.07-0.48,32.63-3.67,35.61-4.26c2.98-0.59,2.72,2.15,2.19,4.05c-0.52,1.86-1.45,5.08-2.16,7.8c-0.43,1.65-0.78,3.11-0.91,3.99"/><path d="M51.25,45.75c2.18,0,32.59-2.5,34.14-2.5s3.11,0,4.36,0"/><path d="M50.23,44.42c0.89,0.79,0.76,2.95,0.18,4.21c-0.66,1.44-3.77,8.54-4.14,9.34c-1.29,2.78-0.94,4.69,0.95,4.38c1.8-0.29,40.07-3.03,44.84-3.62c4.77-0.6,3.6,3.99,3.26,5.42c-0.65,2.74-1.81,9.85-4.74,15.29c-4.09,7.59-5.3,0.55-6.66-0.98"/><path d="M67.62,30.91c0.95,0.89,0.96,3.23,0.96,4.34C68.6,44.5,68.76,78.79,68.83,94c0.02,3.9,0.03,3.27,0.03,4.5"/><path d="M67.68,61c0.08,0.7,0.16,1.31-0.17,2.32C65.58,69.26,53.65,85.02,38.5,93"/></svg>