<svg><path d="M13.13,24.98c0.31,1.2,0.75,2.11,0.75,3.67c0,1.56-0.1,55.02,0,56.58"/><path d="M14.4,25.59c1.73-0.02,14.41-1.16,15.99-1.24c1.31-0.06,2.24,1.31,2.24,2.75c0,5.32-0.61,44.26-0.61,56.4"/><path d="M14.37,44.83c4.79-0.41,13.04-1.4,16.93-1.19"/><path d="M14.51,63.06c4.59-0.18,11.27-0.85,17.4-0.51"/><path d="M13.83,82.88c4.71-0.22,12.15-1.29,18.12-1.27"/><path d="M42.75,22.21c1.17,0.47,3.31,0.57,4.48,0.47c8.27-0.65,31.98-3.76,39.19-3.21c1.94,0.15,3.11,0.23,4.09,0.46"/><path d="M46.07,33.87c1.75,0.21,2.59,0.57,4.2,0.43c9.8-0.86,27.19-2.8,34.89-2.8c2.27,0,3.35,1.08,3,3.23c-0.92,5.63-2.07,11.39-3.3,21.07"/><path d="M38.64,45.94c2.37,0.31,4.22,0.81,6.85,0.61c14.01-1.06,28.35-1.98,46.53-2.9c2.91-0.15,5.27,0.11,6.58,0.42"/><path d="M44.62,57.25c1.22,0.13,4.1,0.46,5.55,0.39c13.37-0.66,21.42-1.7,33.57-1.97c1.94-0.04,3.16,0,4.62,0.13"/><path d="M63.37,10.25c1.09,0.5,1.74,2.25,1.96,3.25c0.22,1,0.5,65.25,0.28,71.5"/><path d="M67.38,71c7.12-0.75,4.62-0.5,15.35-2c1.73-0.24,2.18-0.25,3.26,0"/><path d="M51.25,67.14c0.06,0.71,0.12,1.82-0.12,2.83c-1.43,5.97-9.62,18.72-20.82,26.74"/><path d="M46.75,79.25c4.39,0.65,24.28,12.48,39.91,16.1c2.23,0.52,4.46,0.68,6.59,0.9"/></svg>