<svg><path d="M36.08,12.63c1.08,1.08,1.14,1.99,1.14,3.59c0,3.78-0.09,11.41-0.09,14.66"/><path d="M37.22,20.13c1.48,0,3.19-0.1,7.51-0.7c1.55-0.21,2.23-0.04,3.15-0.15"/><path d="M13.5,34.29c1.98,0.66,3.89,0.34,5.89,0.05c6.62-0.94,17.59-2.59,25.86-3.42c1.67-0.17,4.15-0.49,5.81,0.1"/><path d="M36.49,34.61c0.7,0.7,0.97,2.02,0.97,3.17c0,3.1-0.08,8.38-0.08,11.22c0,6.46-4.14,0.86-5,0.14"/><path d="M26.6,40.74c0.13,0.83-0.06,1.57-0.57,2.23c-1.85,3.29-5.7,6.8-11.17,10.73"/><path d="M44.72,37.57c1.8,1.05,4.65,4.31,5.09,5.94"/><path d="M58.31,18.84c1.4,0.25,1.57,0.62,4.37,0.25c2.79-0.37,15.2-3.58,18.04-4.42c2.26-0.66,3.67,1.34,2.62,3.22C75.12,32.62,61.38,46,44.89,52"/><path d="M56.3,27.1c4.88,0,16.7,12.02,26.47,19.91c2.37,1.92,5.18,3.76,8.09,4.75"/><path d="M35.07,57.63c0.9,0.9,1.3,2.12,1.3,3.36c0,0.96-0.05,23.58-0.09,33.92c-0.01,2.99-0.02,4.96-0.02,5.1"/><path d="M37.41,59.08c2.73-0.12,26.1-1.84,34.09-2.26c2.83-0.15,4.19,1.18,4.19,3.68c0,3.59-0.02,22.52-0.05,32.75c-0.01,2.58-0.01,4.62-0.01,5.75"/><path d="M37.6,71.53c8.78-0.66,31.07-1.97,36.78-1.97"/><path d="M37.39,83.75c9.43-0.52,26.61-1.5,37.07-1.85"/><path d="M37.69,96.93c8.1-0.27,27.84-1.39,37-1.39"/></svg>