<svg><path d="M14.88,18.51c0.37,0.99,0.76,2.22,0.76,3.85c0,1.63-0.1,61.97,0,63.61"/><path d="M16.16,20.15c1.76-0.02,14.59-2.22,16.19-2.3c1.33-0.06,2.27,1.38,2.27,2.9c0,5.59-0.62,51.21-0.62,63.97"/><path d="M16.13,41.28c4.85-0.43,12.12-1.28,18.15-1.73"/><path d="M15.78,60.8c4.65-0.19,13.47-1.3,18.13-1.53"/><path d="M16.09,82.99c4.77-0.23,11.81-1.34,17.85-1.31"/><path d="M69.78,11.14c0.02,0.3,0.05,0.78-0.04,1.21c-0.56,2.56-3.78,8.17-8.18,11.61"/><path d="M46.02,25.59c0.37,0.55,0.37,0.94,0.58,1.63c1.65,5.73,2.21,15.56,3.24,26.24"/><path d="M47.37,26.97c10.74-1.23,29.48-2.15,37.5-3.18c2.95-0.38,4.09,0.66,3.88,3.25c-0.4,4.95-2.35,17.32-3.69,25.55"/><path d="M49.38,39.06c3.5-0.48,33.72-2.36,36.61-2.56"/><path d="M50.52,52.12c7.74-0.52,22.73-1.62,34.54-1.88"/><path d="M67.54,27.43c0.43,0.93,0.4,2.33,0.28,3.58c-1.13,12.54-2.58,26.5-14.07,34.25"/><path d="M43.25,72.81c0.89,0.25,3.26,0.93,5.61,0.75c15.88-1.24,28.81-2.32,43.9-2.56c2.36-0.04,4.27,0.07,5.74,0.32"/><path d="M74.37,55.25c1.09,0.5,1.74,2.25,1.96,3.25c0.22,1,0,33.25-0.22,39.5"/></svg>