<svg><path d="M13.18,27.55c0.83,0.83,1.13,2.13,1.13,3.76c0,1.3-0.08,33.81-0.05,47.44c0.01,3.42,0.02,5.68,0.05,6.01"/><path d="M14.41,28.3c1.74-0.17,12.98-2.36,17.48-3.07c3.19-0.5,4.22,0.8,4.15,3.89c-0.1,4.84,0.01,32.34,0.06,46.5c0.02,5.01,0.03,8.35,0.02,8.42"/><path d="M15.62,43.96c3.76-0.22,16.17-2.07,19.23-2.07"/><path d="M15.54,61.12c5.38-0.68,12.46-1.62,19.21-1.94"/><path d="M15.68,79.07c5.57-0.57,12.7-1.57,19.62-1.82"/><path d="M77.74,13.5c0,1-0.44,1.71-1.23,2.3c-4.9,3.7-11.56,6.2-23.67,9.25"/><path d="M46.81,36.9c2.82,0.47,5.42,0.13,7.32-0.13c10-1.4,19.88-2.77,31.13-3.54c2.16-0.15,4.43-0.41,6.54,0.26"/><path d="M43,55.77c3.2,0.62,6.43,0.29,9.62-0.14c11.12-1.51,25.88-2.76,37.38-3.5c2.8-0.18,5.87-0.26,8.33,0.39"/><path d="M52.17,44.25c0.98,0.98,1.55,2.17,1.61,3.09c0.35,5.03,0.72,13.41,1.16,20.16"/><path d="M86.51,40.75c0.49,1.12,0.46,2.26,0.24,3.68c-1.3,8.33-1.64,12.74-3.06,20.57"/><path d="M48.12,73.9c2.5,0.35,4.82,0.45,6.77,0.18c8.86-1.21,23.08-2.73,30.47-3.17c1.96-0.12,3.51-0.16,5.9,0.33"/><path d="M67.25,24.5c1,1,1.47,2.38,1.47,4c0,1.02-0.06,50.75-0.06,60.75"/><path d="M42.27,91.4c2.98,0.6,6.13,0.48,8.35,0.24C62.5,90.38,80.62,89,91.25,89c2.07,0,4.53,0.11,6.5,0.75"/></svg>