<svg><path d="M51.37,9.75c1.09,0.5,1.96,2.23,1.96,3.25c0,5.25,0.28,9.75,0.28,12.5"/><path d="M53.88,16c8.37-0.5,18.37-1.25,25.85-1.5c1.74-0.06,2.18-0.25,3.26,0"/><path d="M20.19,24.44c-0.16,4.05-4.05,14.65-5.44,17.06"/><path d="M21.18,27.9c3.51,0,48.44-3.71,66.06-3.71c11.98,0,3.78,5.69-0.69,9.4"/><path d="M30.75,34.55c0.86,0.24,2.43,0.21,3.29,0.24c5.46,0.21,34.15-2.2,39.45-1.93c1.43,0.07,2.29,0.11,3.01,0.23"/><path d="M37.26,42.64c0.05,0.36,0.1,0.93-0.09,1.45c-1.16,3.06-7.78,9.77-16.85,13.87"/><path d="M69.02,40.33c5.22,1.48,13.49,6.08,14.79,8.38"/><path d="M52.75,38.75c0.11,0.79,0.22,2.05-0.21,3.19C49.97,48.68,36.46,64.86,15,72.5"/><path d="M54.5,41.96c5.17,4.46,27.44,19.02,33.15,22.28c1.94,1.11,4.42,1.58,6.35,1.9"/><path d="M38.52,62.85c0.52,0.8,1.29,2.39,1.29,3.45c0,1.06-0.35,32.02-0.35,32.55"/><path d="M39.64,64.3c2.96-0.13,26.08-2.9,28.77-3.06c2.25-0.13,3.83,0.64,3.83,2.98c0,1.27,0.08,31.55-0.09,32.34"/><path d="M40.62,73.92c7.15-0.52,25.08-1.69,29.83-1.69"/><path d="M40.39,84.63c8.57-0.33,23.3-1.37,31.62-1.59"/><path d="M39.9,96.15c6.92-0.32,24.33-1.69,31.94-1.69"/></svg>