<svg><path d="M14.88,20.07c0.3,1.36,0.73,2.4,0.73,4.16c0,1.77-0.1,62.97,0,64.75"/><path d="M16.12,20.76c1.69-0.02,14.04-1.32,15.57-1.4c1.28-0.07,2.19,1.49,2.19,3.13c0,6.04-0.6,51.39-0.6,65.18"/><path d="M16.09,41.84c4.67-0.46,12.71-1.52,16.5-1.29"/><path d="M16.22,61.64c4.47-0.21,10.98-0.96,16.96-0.58"/><path d="M15.56,85.75c4.59-0.25,11.84-0.9,17.65-0.87"/><path d="M83.09,13.23c-0.29,0.62-0.57,0.94-1.17,1.21c-3.91,1.75-15.73,6.58-28.36,8.37"/><path d="M49.63,12.5c0.76,0.66,0.81,1.1,1.07,1.98c0.25,0.88-0.18,6.37-0.18,9.13c0,7.1,3.47,6.94,19.85,6.94s20.34-1.16,20.34-8.63"/><path d="M57.21,37.55c0.39,0.74,0.96,2.09,0.96,3.07s-0.13,30.21,0,31.19"/><path d="M58.81,39.6c2.2-0.12,20-2.35,22-2.32c0.92,0.02,1.83,0.49,1.83,2.07c0,1.18,0.03,30.48-0.1,31.21"/><path d="M58.26,49.75c4.34-0.17,20.36-2.04,23.89-2.04"/><path d="M58.6,59.67c5.83-0.41,17.96-1.45,23.63-1.45"/><path d="M58.29,69.72c4.38,0,18.31-1.55,23.97-1.55"/><path d="M45.94,46.86c0.5,0.93,1.17,1.63,1.17,3.27s-0.83,25.52-0.83,27.62s1.16,2.7,3,2.47c13.98-1.72,35.18-2.27,42.48-1.8c1.5,0.1,3.33,0.23,4.5,0.47"/><path d="M58.32,85.32c0.05,0.3,0.1,0.77-0.1,1.2c-1.16,2.52-7.81,8.06-16.92,11.45"/><path d="M75.39,84.07c6.3,2.47,16.28,10.16,17.86,14"/></svg>