<svg><path d="M13.88,18.99c0.29,1.22,0.71,2.15,0.71,3.73c0,1.58-0.1,63.41,0,65"/><path d="M15.07,20.11c1.62-0.02,13.48-2.19,14.96-2.26c1.23-0.06,2.1,1.33,2.1,2.81c0,5.42-0.57,53.47-0.57,65.83"/><path d="M15.04,42.18c4.48-0.41,11.96-0.93,16.85-1.21"/><path d="M15.17,62.19c4.3-0.19,9.33-0.69,16.29-1.02"/><path d="M15.04,84.33c4.41-0.23,10.87-0.81,16.45-0.78"/><path d="M39.07,24.87c1.32,0.47,3.75,0.55,5.07,0.47c6.91-0.43,33.39-3.17,47.92-3.38c2.2-0.03,3.53,0.23,4.63,0.46"/><path d="M54.01,14.19c0.89,0.35,1.42,1.6,1.6,2.31c0.18,0.71,1.5,18.57,1.32,23"/><path d="M78.35,11.25c0.89,0.35,1.42,1.6,1.6,2.31c0.18,0.71-1.42,15.84-1.95,22.4"/><path d="M56.93,37.26c3.37,0,20.26-1.29,23.3-1.45"/><path d="M41.25,47.27c1.25,1.23,1.93,2.96,2.11,4.68c1.06,10.25,1.81,36.96,1.81,41.57"/><path d="M44.06,49.71c9.87-0.96,41.96-3.26,48.17-4c2.01-0.24,3.7,0.97,3.63,3.61C95.5,62.75,94.75,76,92.74,90.67c-0.97,7.07-4.63,4.82-7.25,0"/><path d="M66.44,37.34c1.01,1.2,1.81,2.65,1.81,4.33c0,0.96-0.1,49.02-0.1,51.67"/><path d="M55.43,61.88c-0.96,3.35-3.44,8.09-5.42,9.99"/><path d="M51.3,56.9c0.46,0,0.88,0.4,1.1,0.69c3.66,4.83,7.82,9.79,11.21,13.21c0.38,0.39,0.75,0.53,1.16,0.63"/><path d="M79.87,61.55c-1.14,3.25-4.11,7.84-6.49,9.68"/><path d="M74.09,54.98c0.53,0,0.99,0.44,1.26,0.72C79.5,60,83.22,66.18,88.28,69.63c0.51,0.35,0.87,0.56,1.33,0.67"/></svg>