<svg><path d="M12.37,25.59c0.9,0.9,0.91,1.8,0.91,3.69c0,1.47,0.07,55.99,0.07,56.73"/><path d="M14.22,27.39c2.45-0.41,9.18-1.57,12.4-2.05c2.83-0.42,3.55,0.87,3.57,3.67c0.06,7.32,0.03,39.88,0.04,54.7"/><path d="M14.2,44.82c4.59-0.47,9.99-1.19,14.74-1.67"/><path d="M14.32,63.24c4.89-0.49,10.93-1.24,14.86-1.4"/><path d="M14.21,83.24c3.85-0.65,10.26-1.38,15.01-1.41"/><path d="M40.73,23.6c3.52,0.77,6.88,0.29,9.38-0.06c9.01-1.29,22.73-2.72,32.28-3.43c2.86-0.21,5.77-0.57,8.6,0.07"/><path d="M62.26,12.5c0.49,1,0.46,2.13,0.14,3.26C58.5,29.75,51.5,41.38,36.25,51.51"/><path d="M68.93,22.42c4.49,4.14,13.12,13.06,19.27,18.26C90.5,42.62,92.5,44,95,45.25"/><path d="M40.27,31.83c2.57,1.17,6.65,4.81,7.29,6.63"/><path d="M88.77,26.14c0.04,0.29,0.08,0.74-0.08,1.15c-0.49,1.29-2.22,3.4-4.82,5.58"/><path d="M47.74,46.32c0.72,0.72,1.13,1.43,1.38,2.58c0.85,3.9,1.82,8.69,2.68,13.37c0.3,1.62,0.58,3.22,0.85,4.77"/><path d="M49.87,47.53c7.72-0.87,21.49-2.26,28.63-3.1c3.66-0.43,5.24,0.69,4.69,3.95c-0.56,3.29-1.42,8.06-2.2,12.49c-0.29,1.64-0.56,3.23-0.8,4.68"/><path d="M51.7,56.1c2.75-0.37,27.95-2.35,30.22-2.5"/><path d="M53.59,65.54c6.09-0.41,16.66-1.42,25.86-1.8"/><path d="M66.36,67.37c0.95,0.95,1.27,2.38,1.27,4.23c0,11.82-0.01,16.88-0.01,20.9c0,9.14-5.55,0.73-6.77-0.29"/><path d="M52.95,74.68c0.13,1.02-0.09,1.95-0.68,2.79c-1.94,3.26-7.35,7.82-16.52,13.79"/><path d="M80.21,74.37C84.81,76.95,92.1,84.98,93.25,89"/></svg>