<svg><path d="M13.05,24.81c0.88,0.88,0.94,2.37,0.94,3.99c0,1.24-0.05,31.16-0.04,45.7c0,4.39,0.02,7.38,0.04,7.75"/><path d="M14.65,25.89c1.31-0.17,9.11-2.19,12.66-3.04c2.89-0.69,3.66,0.64,3.66,3.52c-0.01,6.31-0.04,32.88-0.06,45.88c0,3.58-0.01,6.13-0.01,6.94"/><path d="M15.18,43.19C19.38,42.25,26,41,29.75,40.62"/><path d="M15.31,58.26c4.22-0.68,8.94-1.38,14.25-2.18"/><path d="M14.82,76.07c4.81-0.69,9.18-1.69,14.9-2.31"/><path d="M77.41,10.89c-0.16,0.98-0.56,1.85-1.33,2.32c-4.95,3.04-15.74,7.68-31.59,10.89"/><path d="M43.77,29.68c3.01,1.51,7.77,6.21,8.53,8.55"/><path d="M58.75,25.7c2.85,1.69,7.36,6.94,8.08,9.56"/><path d="M85.55,20.81c0.11,1.01-0.03,1.98-0.41,2.91c-1.15,3.12-4.39,7.79-8.27,12.78"/><path d="M42.46,43.88c0,3.34-2.7,12.51-3.93,14.73"/><path d="M43.19,45.18c11.81-2.43,30.43-5.68,45.9-6.85c8.54-0.64,1.31,5.97-0.82,7.95"/><path d="M51.57,51.5c0.12,0.42,0.26,1.67-0.01,2.46c-2.06,6.16-6.25,15.08-12.59,21.6"/><path d="M52.34,59.92c1.08,0.17,1.93,0.11,3.02-0.1c1.69-0.33,2.88-1.03,5.27-1.68c3.01-0.81,4.04,1,3.06,3.68c-4.06,11.06-13.94,25.43-27.57,34.95"/><path d="M46.63,70.32c2.04,1.11,5.26,4.59,5.77,6.32"/><path d="M70.61,61.15c1.18,0.51,3.08,0.5,4.26,0.42c4.24-0.28,11.03-1.18,15.65-1.93c1.49-0.24,2.48-0.43,3.92-0.05"/><path d="M72.79,62.46c0.56,0.56,0.99,1.16,0.99,2.54c0,3.42-0.04,8.55-0.04,12.75"/><path d="M61.8,79.56c1.7,0.57,4,0.5,5.58,0.22c7.99-1.41,18.01-2.74,24.12-3.48c1.62-0.2,3.15-0.37,4.74,0.14"/><path d="M82.2,49.42c0.94,0.94,1.3,2.33,1.3,4.14c0,0.82,0,27.33,0,39.94c0,2.93,0,5.1,0,6"/></svg>