<svg><path d="M16.62,17.64c0.85,0.17,2.43,0.18,3.28,0.1c6.67-0.59,19.58-2.05,26.75-2.29c1.42-0.05,2.28,0.03,2.99,0.11"/><path d="M32.18,9.76c0.92,0.32,1.66,1.52,1.66,2.24c0,2.46-0.17,6.22-0.17,13.57"/><path d="M20.93,26.3c0.7,0.12,1.99,0.09,2.69,0.06c9.28-0.43,14.12-0.86,21.84-1.85c1.16-0.15,1.87,0.01,2.46,0.07"/><path d="M21.74,32.03c0.24,0.19,0.49,0.35,0.6,0.58c0.85,1.88,1.86,7.05,2.44,10.43"/><path d="M23.26,33.02c5.98-0.79,17.26-2.17,20.34-2.44c1.13-0.1,1.8,0.98,1.64,1.55c-0.67,2.36-1.12,3.55-2.55,6.96"/><path d="M25.02,41.79c3.62-0.3,15.39-2.11,19.99-2.41"/><path d="M22.27,46.47c1.78,1.14,4.6,4.66,5.04,6.43"/><path d="M42.04,43.29c0.01,0.2,0.02,0.53-0.02,0.82c-0.22,1.74-1.49,5.56-3.22,7.9"/><path d="M14.75,56.84c0.73,1.25,2.47,1.7,4.93,1.07c12.56-3.21,17.9-5.18,29.07-8.04"/><path d="M54.85,20.49c1.01,0.18,2.88,0.27,3.88,0.18c9.76-0.91,23.01-2.91,30.87-3.36c1.68-0.1,2.7,0.08,3.55,0.17"/><path d="M71.88,10.35c0.24,0.27,0.78,1.41,0.78,1.96c0,3.44-0.03,13.3-0.08,16.67"/><path d="M58.83,30.91c0.98,0.24,1.89,0.51,3.87,0.24c2.72-0.38,20.47-3.27,21.81-3.63c1.35-0.36,2,0.85,1.28,2.08c-7.06,11.94-17.99,20.79-30.54,25"/><path d="M60.13,35.52c5.3,0.65,17.61,13.47,28.03,18.79c1.62,0.83,2.8,1.38,4.31,1.66"/><path d="M35.87,59.96c0.55,0.86,1.35,1.51,1.35,2.66c0,1.15-0.37,35.71-0.37,36.28"/><path d="M37.04,62.05c3.1-0.14,30.77-2.18,33.59-2.35c2.35-0.14,3.2,1.78,3.01,2.82c-0.25,1.32-0.54,31.75-0.54,36.83"/><path d="M38.07,73.15c6.11-0.19,29.68-1.78,34.65-1.78"/><path d="M38.32,84.44c8.2-0.47,26.07-1.68,34.03-1.68"/><path d="M37.49,96.11c7.05-0.25,27.31-1.26,35.27-1.26"/></svg>