<svg><path d="M13.63,23.75c0.93,0.93,1.09,2.15,1.09,3.92c0,1.43,0,34.89,0,50.08c0,3.6,0,6.17,0,7.05"/><path d="M15.29,25.44c4.06-0.44,11.11-1.71,14.85-2.17c3.21-0.4,4.73,0.46,4.73,3.98c0,7.41,0.05,35.8,0.06,49.88c0,2.75,0,4.95,0,6.34"/><path d="M15.76,42.57c5.34-0.46,11.24-1.32,17.89-1.54"/><path d="M15.92,59.91c6.08-0.53,10.83-1.03,17.91-1.33"/><path d="M15.91,81.06c5.26-0.25,10.46-1.18,17.96-1.37"/><path d="M65.36,13c1.01,1.01,1.18,2.16,1.18,3.68c0,1.53,0,3.94,0,6.05"/><path d="M45.11,25.15c1.9,0.59,4.55,0.52,6.52,0.36c7.28-0.57,21.53-2.24,30.13-2.73c2.37-0.13,4.7-0.27,7.04,0.17"/><path d="M54.62,28.38c2.29,2.94,3.34,5.53,3.55,7.47"/><path d="M78.18,26.42c0.2,0.83-0.05,1.46-0.46,2.3c-1.41,2.94-2.75,5.18-3.85,6.66"/><path d="M41.22,39.39c2.63,0.78,5.84,0.43,8.54,0.18c11.77-1.1,24.43-2.13,37.25-2.78c3.09-0.16,5.75,0.11,8.77,0.65"/><path d="M47.19,48.01c0.9,0.9,1.18,1.87,1.48,3.59c0.71,4.11,1.72,10.04,2.54,14.89c0.28,1.63,0.53,3.14,0.75,4.42"/><path d="M48.72,49.01c9.68-1.05,21.65-2.26,31.54-3.14c3.06-0.27,6.35,0.56,5.66,4.29c-0.59,3.25-1.54,8.3-2.73,13.83c-0.32,1.47-0.65,2.97-1,4.48"/><path d="M51.01,58.65c8.11-0.65,22.61-2.15,32.61-2.46"/><path d="M52.78,68.95c8.47-0.95,17.59-1.57,28.67-2.27"/><path d="M65.86,49.38c0.56,0.54,1,1.57,1,2.91c0,10.59-0.11,35.61-0.11,38.34"/><path d="M48.08,79.58c2.04,0.66,4.08,0.5,6.18,0.3c8.11-0.76,18.59-1.68,26.86-1.96c2.47-0.08,4.33,0.18,6.7,0.64"/><path d="M40.49,92.29c2.66,1.11,5.07,0.87,7.88,0.68C58.79,92.25,77,90.75,88,90.45c2.71-0.07,5.36,0.22,7.97,0.88"/></svg>