<svg><path d="M14.88,19.17c0.3,1.57,0.74,2.76,0.74,4.8c0,2.04-0.1,62.21,0,64.26"/><path d="M16.13,20.47c1.71-0.02,13.72-2.02,15.28-2.12c1.3-0.08,2.71,1.21,2.71,3.11c0,6.96-0.6,49.94-0.6,65.82"/><path d="M16.1,42.54c4.73-0.53,12.88-1.17,16.71-0.91"/><path d="M15.74,61.98c4.53-0.24,13.26-1.23,17.68-1.16"/><path d="M15.57,84.5c4.65-0.29,12-1.04,17.88-1.01"/><path d="M49.42,17.67c0.32,0.19,0.95,0.62,1.05,1.08c0.72,3.34,1.6,8.57,2.61,14.89"/><path d="M51.22,19.24c8.12-0.67,25.32-2.13,31.2-2.39c2.29-0.1,3.08,0.65,2.8,2.96c-0.3,2.44-1.22,2.98-2.74,8.44"/><path d="M53.52,30.93c6.54-0.67,21.86-2.17,31-2.8"/><path d="M66.15,10c0.91,0.51,1.63,2.26,1.63,3.31c0,9.69,0,18.58-0.18,24.94"/><path d="M40.75,39.7c1.43,0.54,4.04,0.64,5.47,0.54c11.03-0.74,32.03-2.74,45.53-2.73c2.38,0,3.8,0.26,4.99,0.53"/><path d="M52.63,46.6c0.51,0.86,0.86,3.2,0.86,4.34c0,1.14,0.05,31.98,0.05,32.55"/><path d="M53.95,48.66c6.8-0.66,24.6-2.25,27.21-2.42c2.18-0.14,3.42,0.66,2.94,3.56c-0.54,3.28-0.63,32.56-0.63,33.42"/><path d="M54.67,59.58c6.58-0.58,23.79-2.03,28.39-2.03"/><path d="M53.9,70.52c5.7,0,21.45-1.85,28.82-1.85"/><path d="M53.72,81.94c5.7,0,22.37-1.35,29.74-1.35"/><path d="M58.42,86.5c0.46,1,0.28,1.64-0.5,2.51c-2.67,2.99-8.67,7.24-16.18,9.74"/><path d="M76.09,86.5c6.3,3.53,13.75,9.92,15.47,13"/></svg>