<svg><path d="M27.62,16.79c0.98-0.01,2.77-0.12,3.76-0.19c12.94-0.92,32.04-2.23,50.78-3.48c1.63-0.11,2.61-0.14,3.43-0.17"/><path d="M52.24,7.53c1.18-0.03,2.05,0.69,2.38,1.14c0.34,0.46-0.22,6.81,0.02,12.75"/><path d="M41.81,22.24c0.44,0.51,1.06,1.49,1.05,2.22c-0.01,0.72-0.22,15.28-0.32,22"/><path d="M43.8,23.73c2.7-0.18,22.97-2.3,25.45-2.49c1.94-0.15,3.52,0.9,3.38,1.55c-0.18,0.83-0.29,14.12-0.01,21.82"/><path d="M43.38,30.5c5.31-0.3,23.76-1.95,28.12-2.1"/><path d="M43.53,38.02c7.17-0.54,20.91-1.78,27.88-2.02"/><path d="M42.88,44.59c5.06-0.41,25.26-1.99,28.92-2.11"/><path d="M27.84,32.09c0.84,0.73,1.26,1.02,1.31,2.53c0.05,1.51,0.35,13.49-0.13,14.82c-0.56,1.53,1.45,2.31,3.92,2.14c19.93-1.44,29.42-1.92,48.67-2.9c2.24-0.12,4.15-0.15,5.94,0.04"/><path d="M16.77,63.26c0.68,0.22,1.94,0.18,2.62,0.12c9.06-0.8,16.22-1.74,29.33-2.52c1.14-0.08,1.82,0.03,2.4,0.12"/><path d="M35.01,56.68c0.45,0.18,0.74,0.97,0.85,1.42c0.11,0.45-0.37,5.88-0.54,11.09"/><path d="M26.02,68.74c0.12,0.5,0.29,1.38,0.29,2.04c0,0.67-0.03,15-0.08,21.21"/><path d="M26.15,70.44c1.76-0.09,15.01-1.47,16.63-1.57c1.27-0.08,2.27,0.98,2.16,1.61c-0.13,0.8-0.5,13.64-0.49,21.1"/><path d="M26.77,77.05c3.35-0.24,14.99-1.35,17.73-1.49"/><path d="M27.34,83.43c4.36-0.4,12.73-1.29,16.98-1.49"/><path d="M26.61,90.9c3.14-0.37,15.28-1.86,17.54-2.04"/><path d="M16.26,75.03c0.46,0.89,0.69,1.24,0.69,3.02c0,1.78-0.05,15.88-0.35,17.43c-0.35,1.78,0.77,2.78,2.17,2.67c11.31-0.89,16.69-1.58,27.62-1.96c1.27-0.04,2.35-0.01,3.36,0.29"/><path d="M58.02,60.22c0.61,0.21,1.73,0.17,2.33,0.11c8.06-0.75,19.97-1.63,31.64-2.37c1.01-0.07,1.62,0.03,2.14,0.11"/><path d="M73.86,53.81c0.66,0.12,1.12,0.84,1.29,1.25c0.18,0.42-0.36,5.63-0.43,10.6"/><path d="M66.52,66.46c0.48,0.54,0.8,1.89,0.8,2.55c0,0.67,0.02,15.06,0.05,21.29"/><path d="M67.99,67.08c1.98-0.1,14.87-1.55,16.69-1.66c1.43-0.09,2.55,1.04,2.43,1.7c-0.15,0.85-0.56,14.39-0.55,22.27"/><path d="M67.95,74.12c3.34-0.29,14.93-1.43,17.67-1.65"/><path d="M67.84,80.48c5.02-0.29,13.71-1.35,18.53-0.91"/><path d="M67.91,88.39c3.09-0.26,16.04-1.3,18.27-1.41"/><path d="M57.26,72.96c0.56,0.93,0.84,1.3,0.84,3.16c0,1.86-0.07,16.61-0.43,18.23c-0.42,1.86,0.94,2.91,2.64,2.8c13.74-0.93,20.77-1.63,34.03-2.02c1.55-0.04,2.85-0.02,4.07,0.29"/></svg>