<svg><path d="M14.14,17.62c0.68,0.36,3.58,0.98,4.76,0.76c2.34-0.44,19.85-2.57,22.33-3.02c2.48-0.44,3.32,1.88,1.84,3.33c-2.53,2.5-9.77,10.8-11.33,12.59"/><path d="M20.72,26.06c3.16,1.55,11.35,7.51,12.84,11.57"/><path d="M10.06,42.91c0.72,0.25,1.79,1.31,4.82,0.86c6.2-0.95,21.04-3.5,26.95-4.89c11.25-2.63,2.42,7.37-1.58,11.87"/><path d="M32.91,41.87c0,10.69,0.33,26.73,0.33,47.51c0,14.3-8.11,1.78-10.7,0.89"/><path d="M33.71,41.97c0.07,0.84,0.37,2.28-0.13,3.4c-4.01,9.05-9.85,20.5-22.91,32.57"/><path d="M68.29,12.83c0.07,1.02,0.27,2.7-0.15,4.11c-2.9,9.92-11.52,26.04-25.65,39.38"/><path d="M68.51,15.82C72.19,22.37,89.02,44.21,93.06,49c1.37,1.63,3.14,2.32,4.51,2.78"/><path d="M57.32,48.61c0.37,0.2,2.62,0.22,2.98,0.2c3.82-0.23,13.28-2.32,17.03-2.3c0.62,0,3.16,0.09,3.47,0.19"/><path d="M50.35,64.16c0.87,0.05,3.8,0.37,6.1,0.08c5.97-0.74,17.95-1.85,24.34-2.87c3.79-0.61,5.1,1.43,2.95,5.77c-5.99,10.61-9.24,18.61-15.94,29.67"/></svg>