<svg><path d="M13.64,18.57c0.61,0.93,1.03,2.4,1.03,4.16c0,1.77-0.04,58.97,0,60.75"/><path d="M14.74,21.26c1.62-0.02,12.5-1.64,13.96-1.9c1.97-0.35,3.1,0.99,3.1,2.63c0,6.04-0.57,46.89-0.57,60.68"/><path d="M14.71,39.62c4.48-0.32,12.21-1.2,15.85-1.04"/><path d="M14.84,57.95c4.3-0.14,10.54-1.16,16.29-0.9"/><path d="M15.71,80.22c4.02-0.14,10.36-1,15.45-0.99"/><path d="M43.38,13.61c1.59,0.67,3.44,0.85,5.15,0.78c10.86-0.45,36.91-1.59,40.59-2c2.43-0.28,3.02,1.05,2.53,3.52c-0.62,3.12-1.31,5.41-2.15,9.13"/><path d="M47.12,26.69c5.11,0,40.58-1.7,44.88-1.7"/><path d="M46.21,14.79c-0.13,4.45-0.21,15.71-0.19,20.5C46.17,59.35,42,79.5,30.48,93.93"/><path d="M70.74,28.52c0.07,0.72,0.11,1.56,0.05,3.93c-0.3,11.39-0.21,7.19-0.33,11.07"/><path d="M53.08,33.54c0.25,0.15,0.7,0.08,0.94,0.13c2.46,0.53,9.68-1.21,11.2-1.06c0.41,0.04,0.65,0.06,0.85,0.12"/><path d="M51.97,40.67c0.28,0.14,0.78,0.07,1.04,0.13c2.73,0.51,10.8-1.1,12.48-0.96c0.45,0.03,0.73,0.06,0.96,0.13"/><path d="M78.4,32.25c0.26,0.08,0.74,0.02,1,0.04c2.63,0.21,10.31-1.11,11.93-1.08c0.43,0.01,0.7,0.01,0.91,0.04"/><path d="M78.56,39.59c0.32,0.14,0.89,0.06,1.2,0.12c3.14,0.48,12.38-1.34,14.32-1.23c0.52,0.04,0.83,0.05,1.1,0.11"/><path d="M52.35,47.74c0.19,0.24,0.4,0.43,0.48,0.71c0.64,2.27,2.73,7.83,3.09,11.89"/><path d="M53.54,50.08c4.46-0.65,35.05-2.83,37.42-3.02c0.86-0.07,2.01,0.73,1.74,1.85c-0.55,2.32-1.84,6.42-3.23,9.71"/><path d="M65.93,49.37c0.1,1.27,0.24,5.57,0.81,8.86"/><path d="M78.59,48.15c-0.2,2.2-1.02,7.92-1.34,9.26"/><path d="M56.6,59.14c2.82-0.25,29.82-2.03,33.69-2.44"/><path d="M60.42,61.75c0.03,0.36,0.06,0.93-0.12,1.45c-1.09,3.03-7,9.58-14.95,13.47"/><path d="M59.75,67.56c0.85,0.43,2.02,0.5,3.41,0.37c5-0.49,23.33-3.3,26.76-3.33c3.42-0.04,3.91,1.44,3.46,4.25C92.21,76.27,91,86,85.34,97.39c-1.85,4.96-3.48,0.9-5.45-0.83"/><path d="M53.88,74.44c0.4,0.22,0.91,1.04,0.98,1.32c0.5,2.04,0.86,5.05,1.54,8.91"/><path d="M55.56,75.26c6.33-0.22,17.78-2.07,22.34-2.34c1.2-0.07,2.58,0.97,2.34,1.57c-0.82,2.06-0.98,3.14-2.33,6.55"/><path d="M56.69,83.22c5.1-0.26,14.81-1.75,21.94-1.92"/><path d="M66.07,69.37c0.19,0.65,0.3,1.98,0.28,2.61c-0.09,3.1-0.61,12.52-0.61,17.57"/><path d="M50.96,91.91c0.63,0.27,1.02,0.63,1.64,0.53c0.62-0.1,21.33-4.16,25.17-4.9"/><path d="M74.5,84.64c1.7,1.21,4.34,4.93,4.73,6.76"/></svg>