<svg><path d="M24.92,15.92c0.03,0.75,0.08,1.94-0.08,3.03C23.96,25.31,17.81,41,12.27,46.8"/><path d="M20.32,34.68c0.73,0.41,2.07,0.6,2.79,0.41c2.95-0.79,7.14-1.59,13.56-3.09c1.18-0.46,2.95,0.03,3.56,0.23"/><path d="M10.82,55.84c0.53,0.31,2.44,0.43,3.02,0.43c9.17-0.02,16.42-1.52,26.61-2.44c0.73-0.07,1.76-0.38,3.39,0.15"/><path d="M29.19,35.28c0,1.41,0.44,1.72,0.48,3.44C30.25,63,25.5,83.25,13.5,93.88"/><path d="M30.75,69.5c4.43,2.95,10.05,8.58,13,14.5"/><path d="M82.98,11.17c0.09,0.26,0.19,0.67-0.18,1.04c-2.22,2.2-14.98,7.03-32.46,9.98"/><path d="M47.69,33.92c0.58,0.12,2.11,0.41,3.64,0.36c6.13-0.18,30.65-3.72,42.53-3.98c1.53-0.04,1.92-0.12,2.87,0"/><path d="M70.24,21.28c0.42,0.31,0.67,1.37,0.75,1.99c0.08,0.62,0,27.27-0.08,31.1"/><path d="M69.19,33.26c-4.34,8.13-12.32,17.55-20.72,21.61"/><path d="M72.59,32.1c3.54,3.78,12.66,13.65,19.46,17.87c1.3,1.26,2.42,1.8,3.73,2.15"/><path d="M67.53,56.95c0.37,1.02,0.22,2.36-0.19,3.59c-2.21,6.87-4.45,11.73-9.11,18.9c-1.02,1.57-0.94,2.55,0.93,2.6c10.94,0.31,25.63,8.33,33.1,15.83"/><path d="M83.58,60.29c0.1,0.95,0.2,3.27-0.21,4.63c-3.49,11.69-11.63,28.33-35.27,35.16"/><path d="M45.79,69.5c0.71,0.36,2.29,1.17,4.06,0.99c9.78-0.98,32.99-4.12,46.75-4.22c1.19-0.01,3.26,0.33,4.23,0.95"/></svg>