<svg><path d="M26.34,15.5c0.42,1.28,0.23,2.55-0.16,3.77c-2.04,6.45-7.04,18.36-12.91,26.53"/><path d="M23.07,34.18c1.18,0.19,2.32,0.1,3.04-0.09c2.95-0.79,9.14-1.59,14.81-3.09c1.22-0.32,2.95-0.22,3.56-0.02"/><path d="M8.82,55.19c2.31,0.81,4.74,0.31,6.67,0.02c6.75-1.02,15.14-2.03,24.14-2.96c2.29-0.24,4.88-0.5,7.21-0.15"/><path d="M29.44,36.03c0.76,0.76,1.01,2.22,0.98,3.94C30,66.38,24.38,82.75,11,92.88"/><path d="M30.38,66.5c4.3,3.15,9.76,9.17,12.62,15.5"/><path d="M52.46,18.38c1.08,1.08,1.34,2.37,1.34,4.03c0,4.64,0.03,44.41,0.04,62.46c0,3.7,0,6.49,0,7.88"/><path d="M54.77,21.2c6.15-0.64,19.81-2.16,32-3.56c2.36-0.27,4.99-0.65,7.46-0.37"/><path d="M54.59,44.31c10.43-1.34,21.1-2.54,29.27-3.53c3.91-0.48,5.55,0.13,4.77,4.36c-0.78,4.19-2,9.98-3.21,15.86"/><path d="M55.02,64.7c4.58-0.34,18.83-1.67,27.36-2.42c2.6-0.23,4.68-0.4,5.78-0.48"/><path d="M54.77,90.6c6.26-0.55,21.11-1.48,35.48-2.53c2.38-0.17,5.12-0.32,7.5,0.33"/></svg>