<svg><path d="M50.42,8.75c0.08,0.75-0.02,2.13-0.38,2.77c-4.52,7.96-12.95,14.73-21.38,20.31c-2.67,1.77-2.67,3.66,1.23,3.27c8.2-0.83,33.8-5.65,46.12-6.53"/><path d="M64.87,18.47c5.6,3.09,14.47,12.7,15.87,17.5"/><path d="M36.32,39.48c0.04,0.6,0.09,1.56-0.09,2.42C35.14,47,28.3,59.57,21.5,64.23"/><path d="M35.92,50.41c1.97,0.05,5.01,0.07,6.37-0.03c5.59-0.43,21.74-2.07,30.35-2.81c2.27-0.19,3.71-0.26,4.86-0.15"/><path d="M13.95,70.29c1.84,0.43,5.72,0.53,6.9,0.42c20.17-1.8,54.01-4.52,68.34-4.81c1.52-0.03,3.69,0.12,7.09,0.63"/><path d="M53.34,52.51c0.42,0.77,0.84,1.48,0.82,2.97c-0.27,25.76-13.55,38.95-35.42,46.86"/><path d="M54.25,67.73c7.15,11.35,24.36,25.92,32.04,31.09c2.61,1.76,3.52,2.02,4.71,2.19"/></svg>