<svg><path d="M12.32,26.49c0.69,0.14,1.96,0.17,2.64,0.14c8.64-0.47,14.7-1.47,26.25-2.29c1.15-0.08,1.84,0.06,2.42,0.13"/><path d="M26.2,28.26c0.05,1.04,0.11,2.68-0.1,4.15c-1.31,8.77-8.82,27.98-19.09,39.77"/><path d="M21.41,54.69c0.29,0.48,0.59,0.88,0.71,1.49c1.01,4.78,1.73,18.97,2.42,27.57"/><path d="M22.73,55.92c8.02-1.42,15.04-2.48,18.52-3.22c1.27-0.27,2.03,1.6,1.85,3.18c-0.75,6.57-2.7,14.51-3.82,23.58"/><path d="M24.54,80.76c5.16-0.84,9.87-0.56,16.64-1.63"/><path d="M50.5,25.47c0.95,0.52,4.03,0.53,5,0.53c6.25,0,26.5-2.25,34-2.79c1.46-0.11,2.79,0.1,4,0.54"/><path d="M68.87,27.25c1.63,2.25,1.27,4.71,1.27,7.06c0,16.47-0.07,22.86-0.07,51.1"/><path d="M41.25,87.66c0.96,0.45,4.37,0.92,5.99,0.72c17.44-2.19,30.19-3.25,46.07-3.93c2.6-0.11,5.73,0.75,7.03,1.46"/></svg>