<svg><path d="M11.88,28.77c0.65,0.24,1.86,0.31,2.5,0.24c8.17-0.82,14.89-2.06,25.8-3.49c1.09-0.14,1.74,0.11,2.28,0.22"/><path d="M26.28,29.68c0.05,0.93,0.11,2.39-0.1,3.71c-1.26,7.82-7.91,25-17.69,35.52"/><path d="M21,54.29c0.28,0.42,0.56,0.77,0.68,1.3c0.96,4.17,2.12,17.67,2.78,25.16"/><path d="M21.73,55.14C29.5,53.5,36.34,53,39.6,52.33c1.19-0.24,1.9,1.45,1.73,2.87c-0.7,5.93-1.61,12.6-2.66,20.8"/><path d="M24.59,78.13c5.07-0.54,9.2-1.03,15.85-1.71"/><path d="M41.3,43.57c0.76,0.25,2.15,0.42,2.9,0.35c7.52-0.62,17.2-3.03,22.2-3.87c1.24-0.21,2.04-0.16,2.67-0.03"/><path d="M52.01,15.41c0.53,1.13,1.09,1.9,1.22,3.38c0.12,1.49-0.2,40.87-0.57,45.44c-0.44,5.5,1.56,8.91,5.16,9.08c3.96,0.19,5.94,0.28,9.75-0.37"/><path d="M65.99,24.06c1.24,0.94,2.87,0.91,4,0.66C80,23,87.08,22.2,92.2,21.55c3.33-0.43,4.7,1.98,4.32,6.06c-0.77,15.89-2.78,47.36-8.26,62.34c-4.4,11.98-7.49,0.05-8.77-1.29"/><path d="M79.07,27.01c0.18,1.74,0.38,2.57,0.1,4.83C78.25,55.75,70,80.75,58.84,92.35"/></svg>