<svg><path d="M18,26.85c1.91,0.56,4.4,0.52,6.37,0.25c4.87-0.67,13.43-2.33,18.26-2.93c2-0.25,3.65-0.26,5.62,0.08"/><path d="M27.03,29.65c0.6,0.98,0.72,2.08,0.42,3.34c-1.95,8.27-7.1,23.16-14.2,33.33"/><path d="M23.56,50.76c0.84,0.84,1.19,2.11,1.36,3.25c0.69,4.48,1.42,11.49,2.04,19.2c0.13,1.56,0.24,3.11,0.33,4.63"/><path d="M25.48,52.65c4.6-1.04,13.08-3.6,16.22-3.76c1.3-0.07,2.3,1.61,1.89,4.05c-0.71,4.16-1.33,9.06-2.33,17.81"/><path d="M27.5,74.25c2.78-0.4,8.15-1.62,12.51-2.41c1.41-0.25,2.77-0.46,3.99-0.59"/><path d="M70.96,13.25c0.83,0.83,1.26,2.12,1.26,3.58c0,14.17-0.01,40.95-0.01,44.4c0,8.52-7.21,1.04-8.71,0.17"/><path d="M60.19,34.17c0.07,1.27,0.04,2.35-0.42,3.55c-2.02,5.28-6.32,13.99-9.85,18.46"/><path d="M84.5,32.25c5.3,3.14,12.42,11.21,13.75,16.09"/><path d="M88.64,50.08c0.11,1.16-0.18,2.77-0.72,4.42c-4.5,13.61-22.08,34.6-39.67,43.74"/></svg>