<svg><path d="M11.88,28.72c0.69,0.15,1.97,0.19,2.65,0.15c8.67-0.52,14.75-1.63,26.33-2.54c1.15-0.09,1.85,0.07,2.42,0.14"/><path d="M26.12,29.97c0.05,0.91,0.11,2.34-0.1,3.64c-1.26,7.67-8.45,24.51-18.27,34.82"/><path d="M21.5,53.71c0.31,0.47,0.61,0.87,0.75,1.46c1.05,4.69,1.82,17.64,2.55,26.07"/><path d="M22.23,55.49c7.31-1.89,14.21-3.01,17.73-3.65c1.29-0.23,2.05,1.39,1.87,2.75c-0.76,5.68-2.73,14.55-3.87,22.4"/><path d="M24.59,78.77c5.28-0.78,9.59-0.98,16.52-1.96"/><path d="M52.4,46.58c3.64-0.4,8.35-0.67,11.52-1.35c0.93-0.2,2.47-0.19,2.95-0.08"/><path d="M50.37,16c0.74,1.4,1.38,2.88,1.38,4.8c0,5.22-0.2,59.35-0.2,67.11c0,4.76,2.18,4.19,4.01,2.43c5.12-4.93,6.7-6.09,10.43-9.26"/><path d="M96.22,32.27c0.24,1.03,0.31,3.4-0.85,4.57c-6.65,6.76-11.68,11.69-19.09,17.32"/><path d="M72.46,14.5c0.81,1.33,1.51,3.45,1.51,5.13c0,4.44-0.38,51.63-0.38,56.83c0,16.53,2.18,17.43,11.55,17.43c11.37,0,11.56-4.59,11.56-13.68"/></svg>