<svg><path d="M10.82,29.34c1.57,0.42,3.8,0.37,5.42,0.22c7.26-0.69,13.63-1.55,22.89-2.84c1.58-0.22,2.93-0.27,4.5-0.02"/><path d="M24.2,32.18c0.04,0.89,0.22,2.32-0.09,3.57C22,44.12,16.28,59.58,7.75,69.71"/><path d="M19.45,54.56c0.59,0.9,0.93,1.88,1.01,2.94c0.8,4.59,1.68,12.91,2.33,20.47c0.15,1.74,0.29,3.41,0.41,4.94"/><path d="M21.33,55.49c6.5-1.32,12.26-2.21,16.06-2.84c3.11-0.52,4.41,0.13,3.92,3.61c-0.8,5.67-2.15,13.15-3.21,20.62"/><path d="M24.35,79.5c4.2-0.79,6.17-0.86,11.16-1.4c1.33-0.14,2.79-0.3,4.47-0.49"/><path d="M65.5,12.12c0.35,1.26,0.4,2.22,0.24,3.5c-2.42,19.3-6.95,30.31-17.86,39.88"/><path d="M50.29,23.87c0.85,0.35,4.03,0.12,5.09,0c3.37-0.37,19.37-3.37,23.25-4.02c2.09-0.35,2.99,1.66,2.71,3.11c-0.59,3.04-1.55,9.91-1.55,14.88c0,8.02,1.46,9.41,8.64,9.41c7.07,0,8.53-1.11,8.53-5.79"/><path d="M46.88,67.18c2.1,0.84,5.21,0.56,7.39,0.28c12.48-1.59,25.11-2.71,36.23-3.33c2.39-0.13,5.03-0.07,7.38,0.5"/><path d="M69.52,49.82c0.95,0.95,1.23,2.24,1.23,3.93c0,0.67,0.18,24.84,0.09,37.25c-0.02,3.17-0.05,5.58-0.07,6.63"/></svg>