<svg><path d="M12.38,24.97c1.7,0.44,3.39,0.36,5.13,0.2c6.24-0.55,10.86-0.92,18.24-1.92c1.78-0.24,3.58-0.22,5.37-0.12"/><path d="M24.96,27.68c0.17,1.2,0.23,2.12-0.08,3.25C22.38,40,18.5,50.38,10.25,61"/><path d="M18.5,52.79c0.6,0.84,0.89,1.78,0.98,2.81c0.51,6.28,1.02,12.46,1.56,19.63c0.14,1.85,0.28,3.76,0.43,5.76"/><path d="M20.48,54.62c5.67-1.35,10.16-2.25,13.38-2.83c2.14-0.38,3.71,0.45,3.34,2.97C36.42,60.03,34.99,69.5,34,75.84"/><path d="M22.34,78.34c3.12-0.25,5.86-0.74,9.66-1.09c1.26-0.12,2.65-0.22,4.19-0.3"/><path d="M69.98,12.32c0.91,0.91,1.26,1.81,1.26,3.1c0,0.66,0.05,7.37-0.04,11.46"/><path d="M46.68,29.63c3.19,0.44,6.39,0.4,9.58-0.1c10.76-0.92,22.98-2.37,31.86-2.82c2.67-0.23,5.34-0.18,8,0.16"/><path d="M50.21,30.82c0.93,0.92,1.14,1.93,1.14,3.58c0,12.98,1.57,41.97-17.6,58.11"/><path d="M73.9,44.38c0,1.37-0.21,2.59-0.74,3.79C67.38,61.38,63.5,69,55.75,83.07c-1.87,3.4-0.06,4.39,2.78,3.53c7.78-2.36,20.71-6.61,31.34-9.85"/><path d="M82.3,62.33c4.77,4.39,12.58,18.3,13.77,25.13"/></svg>