<svg><path d="M11.99,27.14c1.69,0.49,3.17,0.42,4.9,0.23c6.73-0.71,12.49-1.87,21.5-3.53c1.84-0.34,3.65-0.5,5.49-0.18"/><path d="M25.4,30.3c0.35,1.2,0.21,2.38-0.09,3.81C23.38,43.25,17.91,59.98,9,71.49"/><path d="M19.8,55.22c0.93,0.93,1.21,1.78,1.44,3.17c0.75,4.39,1.29,11.69,1.91,18.12c0.18,1.92,0.35,3.77,0.5,5.44"/><path d="M21.73,56.75c6.14-1.47,12.83-3.11,17.24-4c3.38-0.68,4.8-0.13,4.25,3.64c-0.83,5.67-1.95,13.88-3.02,20.73"/><path d="M24.8,80c4.79-0.38,8.22-0.97,13.46-1.4c1.26-0.1,2.62-0.21,4.13-0.32"/><path d="M61.86,12.25c0.05,0.74,0.26,1.96-0.1,2.96c-2.34,6.52-8.43,18.51-17.15,28.02"/><path d="M57.74,29.18c2.51,0.69,4.76,0.48,6.74,0.19c5.51-0.83,18.23-2.86,23.27-3.48c3.96-0.49,5.65,0.99,5.42,5c-0.56,9.62-2.42,24.34-6.21,36.3c-1.62,5.12-3.51,5.28-7.06,1.36"/><path d="M53.28,44.99c1.84,0.88,3.75,0.75,5.6,0.45c3.58-0.59,10.15-1.84,13.39-2.41c2.45-0.44,4.74-0.09,4.01,3.17c-0.16,0.73-1.91,8.55-3.12,13.78"/><path d="M52,62c0.94,0.2,2.24,0.93,3.75,0.81c4.72-0.38,10.22-1.21,14.74-1.65c2.19-0.21,3.39-0.28,5.18,0.01"/><path d="M53.77,63.27C54.5,64,54.78,65,54.78,66.36c0,5.43-0.03,12.9-0.03,17.64c0,9.15,1.38,10.94,21.24,10.94c18.26,0,19.9-1.94,19.9-12.64"/></svg>