<svg><path d="M11.38,27.19c0.69,0.2,1.97,0.26,2.66,0.2c8.7-0.71,14.79-1.7,26.41-2.93c1.15-0.12,1.85,0.1,2.43,0.2"/><path d="M25.95,29.68c0.05,0.89,0.1,2.3-0.1,3.58c-1.17,7.55-6.1,24.5-17.1,34.25"/><path d="M20.5,54.79c0.28,0.42,0.56,0.77,0.68,1.3C22.15,60.26,23,73,23.46,80.75"/><path d="M21.23,55.12c7.77-1.37,15.61-2.08,18.87-2.63c1.19-0.2,1.9,1.19,1.73,2.36c-0.7,4.87-1.53,13.26-2.58,19.99"/><path d="M24.09,77.09c6.16-0.84,9.41-1.34,16.85-1.64"/><path d="M50.86,20.05c0.97,0.58,2.76,0.69,3.74,0.58c10.66-1.14,25.08-4.35,37.79-4.57c1.62-0.03,2.6,0.28,3.41,0.57"/><path d="M54.76,21.31c0.04,1.65-0.09,4.25-0.09,6.62c0,19.49-0.12,48.12-14.86,62.82"/><path d="M57.24,39.38c1.04,0.41,2.94,0.5,3.98,0.41c6.91-0.57,25.09-3.49,33.17-3.72c1.73-0.05,2.77,0.2,3.64,0.41"/><path d="M71.79,52.73c5.36,1.88,13.46,2.77,18.6,3.15c2.68,0.2,3.74,1.46,3.26,3.46c-3.31,13.73-5.41,21.91-10.16,32.01c-3.73,7.94-6.04,0.21-7.12-0.45"/><path d="M71.52,42.03c0.73,0.97,0.54,3.18,0.4,4.96C71,59,65.5,83.75,53.81,94.45"/></svg>