<svg><path d="M13.38,27.01c0.65,0.18,1.85,0.23,2.49,0.18c8.14-0.62,13.85-1.94,24.73-3.02c1.08-0.11,1.73,0.08,2.28,0.17"/><path d="M24.46,28.68c0.04,0.99,0.1,2.56-0.09,3.98c-1.13,8.4-7.63,26.81-16.52,38.1"/><path d="M19.17,53.12c0.25,0.49,0.51,0.89,0.61,1.5c0.87,4.82,1.91,18.13,2.51,26.79"/><path d="M21.4,56.07c5.85-1.07,15.94-2.99,17.27-2.91S41.5,54,41.5,56s-1.2,11.66-2.33,21.5"/><path d="M23.26,79.89c5.6-0.92,10.17-1.25,17.52-2.41"/><path d="M52.88,27.23c0.91,0.44,1.9,0.59,3.51,0.44c4.36-0.42,27.36-2.17,32.12-2.53c0.99-0.08,2.45,0.21,3.2,0.43"/><path d="M67.29,11.04c0.24,0.29,3.09,1.5,3.09,3.32c0,11.78,0.28,14.63,0.28,30.2"/><path d="M47.03,45.68c1.54,0.31,3.29,0.36,4.84,0.31c9.11-0.26,30.18-2.15,40.28-2.38c2.56-0.06,3.56,0.15,4.86,0.31"/><path d="M50.65,71.31c0.96,0.35,2.72,0.42,3.68,0.35c14.36-0.92,24.72-2.19,35.47-2.46c1.59-0.04,2.56,0.17,3.36,0.34"/><path d="M67.52,51.49c1.73,0.51,3.21,2.22,3.21,3.74s0.25,20.5,0.25,38.01"/><path d="M42.8,95.15c1.49,0.67,3.2,0.82,4.7,0.67c18.51-1.88,30.44-2.42,47-3.31c2.49-0.13,3.46,0.33,4.72,0.65"/></svg>