<svg><path d="M15.13,25.51c1.32,0.38,3.28,0.35,4.64,0.23c5.9-0.54,11.05-1.68,18.86-2.57c1.54-0.17,3.12-0.33,4.49-0.33"/><path d="M25.96,28.18c0.29,0.95,0.34,2.1,0.17,3.4c-1.02,7.7-7.62,25.33-15.62,35.68"/><path d="M21.25,53.14c0.74,0.74,1.03,1.6,1.11,2.59c0.7,3.18,1.2,8.55,1.8,13.5c0.24,1.96,0.46,3.85,0.64,5.52"/><path d="M23.15,54.25c6.11-1.17,12.19-2.29,16.23-2.93c3.2-0.5,4.69-0.05,3.8,3.57c-0.92,3.76-1.69,6.61-3.29,12.64"/><path d="M25.45,70.9c5.18-0.9,8.69-1.54,14.1-2.37c1.04-0.16,2.12-0.32,3.26-0.46"/><path d="M52.88,20.32c2.62,0.68,5.48,0.5,7.52,0.23c7.02-0.93,16.94-2.16,24.58-2.91c1.31-0.13,3.52-0.39,4.94-0.16"/><path d="M50.67,35.04c0.89,0.89,1.38,1.81,1.54,3.09c0.32,2.58,1.66,12.02,2.61,18.23c0.31,2.05,0.58,3.75,0.76,4.74"/><path d="M53.1,36.98c7.15-1.48,22.65-3.98,32.19-4.94c3.53-0.35,5.93,0.4,5.13,4.77c-0.69,3.76-1.78,9.53-3.41,15.7c-0.47,1.78-0.96,3.55-1.47,5.25"/><path d="M54.67,47.12c6.49-1.05,24.71-3.37,33.27-3.94"/><path d="M56.38,58.04c9.99-1.29,16.49-2.04,28.63-2.84"/><path d="M68.94,22.18c0.88,0.88,1.13,2.51,1.14,4.5c0.18,35.83-1.45,55.08-30.46,67.12"/><path d="M50.91,66.42c5.34,0,23.03,15.38,32.46,22.41c3.35,2.5,5.63,3.67,9.52,5.46"/></svg>