<svg><path d="M14.88,26.51c1.88,0.27,3.75,0.23,5.62-0.1c6.58-0.93,11.12-1.04,18.89-2.2c1.76-0.26,3.49-0.39,5.24-0.13"/><path d="M26.71,29.18c0.29,1.2,0,2.13-0.33,3.4C23.88,42,18.75,58.12,10.5,67.25"/><path d="M22.17,52.04c0.71,0.71,0.83,1.58,0.97,2.72c0.35,2.93,0.85,8.79,1.26,14.49c0.14,1.98,0.28,3.94,0.4,5.75"/><path d="M23.98,53.37c6.09-1.01,11.64-1.87,15.77-2.74c2.17-0.46,4.6-0.08,4.08,2.22c-1.21,5.4-1.96,9.77-3.58,17.24"/><path d="M26.09,72.34c4.45-0.44,6.96-0.7,10.9-1.03c1.29-0.11,2.74-0.23,4.45-0.36"/><path d="M53.44,17.69c0.81,0.81,1.34,2.19,1.34,3.48c0,1.04,0,22.24,0,34.7c0,4.34,0,7.62,0,8.62"/><path d="M55.52,18.86c2.25-0.16,17.75-2.56,22.53-3.21c2.37-0.32,4.49,1.15,4.48,3.6c-0.01,4.85-0.07,21.48-0.11,32.5c-0.02,4.84-0.03,8.6-0.03,9.81"/><path d="M55.98,33.92c4.64-0.54,20.27-2.54,25.38-2.85"/><path d="M55.94,47.32c8.81-0.82,17.31-1.95,25.63-2.35"/><path d="M55.84,60.69c8.66-0.94,17.54-2.06,25.63-2.35"/><path d="M60.24,69.5c0,1.62-0.49,2.4-0.98,3.51C55.88,80.12,49.78,88.72,39,95.25"/><path d="M71.86,61.97c0.84,0.84,1.11,1.78,1.11,3.86c0,4.7-0.09,11.76-0.09,17.18c0,9.58,0.62,11.37,11.87,11.37C96.5,94.37,97,93.25,97,85.66"/></svg>