<svg><path d="M11.13,30.29c1.77,0.48,3.69,0.57,5.51,0.39c5.85-0.58,12-1.65,17.88-2.6c1.68-0.27,3.36-0.58,4.86-0.5"/><path d="M24.7,32.29c0.42,0.71,0.42,1.54,0.16,2.66c-1.98,8.31-7.8,21.76-16.61,30.71"/><path d="M17.5,56.17c0.67,0.67,1.23,1.52,1.31,2.57c0.71,3.37,1.63,8.89,2.3,14c0.24,1.85,0.45,3.64,0.6,5.26"/><path d="M18.73,56.85c6.92-1.01,13.88-2.14,17.94-2.79c3.03-0.48,4.26-0.01,3.65,3.36c-0.74,4.09-1.64,7.85-2.57,13.38"/><path d="M22.59,74.29c3.65-0.58,7.18-1.11,11.92-1.74c1.63-0.22,3.24-0.43,4.93-0.45"/><path d="M65.08,13.01c1,1,1.3,2.28,1.3,3.12c0,3.06,0.07,8.38,0.07,11.79"/><path d="M43.69,30.78c2.94,0.34,5.27,0.27,7.93-0.09c8.76-1.22,24.66-3.69,34.01-4.39c2.19-0.16,4.58-0.46,6.69,0.33"/><path d="M63.45,31.75c0.3,1.25-0.06,2.53-0.38,2.99c-2.2,3.26-6.2,8.38-9.09,11.74c-2.47,2.87-1.47,3.86,1.46,3.08c7.98-2.12,14.83-4.03,24.43-6.18"/><path d="M74.12,35c4.18,2.91,10.79,11.95,11.83,16.47"/><path d="M51.74,62.14c0.62,0.62,0.73,1.86,0.69,3.04C52,78.62,49.5,88.88,38.56,95.97"/><path d="M64.02,56.37c1,1,1.26,2.26,1.26,4.02c0,6.82,0,18.41,0,25.74c0,3.57,0,6.13,0,6.62"/><path d="M78.6,55.37c0.95,0.95,1.12,2.25,1.12,4.18c0,8.19-0.03,19.89-0.03,25.45c0,9,1.06,9.78,8.17,9.78c8.14,0,8.89-1.28,8.89-9.12"/></svg>