<svg><path d="M13.18,25.24c0.63,0.22,1.81,0.3,2.43,0.26c7.99-0.56,13.62-1.99,24.3-3.03c1.06-0.11,1.7,0.13,2.23,0.24"/><path d="M26.45,27.73c0.05,0.95,0.11,2.46-0.1,3.82C25.04,39.6,18.63,57.3,8.5,68.13"/><path d="M19.17,55.67c0.31,0.49,0.61,0.89,0.75,1.5c1.03,4.74,1.82,18.07,2.55,26.79"/><path d="M21.23,57.1C27,56,35.42,55.39,39.06,54.71c1.33-0.25,2.12,1.48,1.93,2.93c-0.78,6.06-1.83,13.38-3,21.75"/><path d="M23.09,81.44c5.02-0.61,9.6-1.16,16.18-1.92"/><path d="M48.92,23.93c0.92,0.3,1.99,0.33,2.91,0.3c10.06-0.32,25.13-2.32,42.76-2.4c1.53-0.01,2.45,0.14,3.22,0.3"/><path d="M60.58,13.03c1.03,1.31,1.35,1.72,1.41,2.47c0.6,7.17,1.1,14.45,1.23,17.06"/><path d="M82.37,12.07c0.63,0.93,0.96,1.7,0.83,2.91c-0.84,7.13-1.19,10.62-2.15,17.34"/><path d="M64.03,39.83c0,1.49-0.63,3.77-1.26,5.05C58.66,53.2,50.51,63.64,45.1,69.15"/><path d="M58.27,57.64c0.81,1.19,0.64,2.36,0.67,3.58c0.18,9.13-0.6,29.85-0.13,34.33"/><path d="M94.66,47.3c0,1.36,0.03,2.87-1.05,3.97c-4.94,4.98-9.84,9.61-16.41,14.34"/><path d="M75.12,41.24c0.43,0.82,1,2.97,1,4.1c0,3.38-0.11,24.16-0.11,36.66s1.49,13.71,10.24,13.71s10.08-1.46,10.08-10.53"/></svg>