<svg><path d="M27.11,25.98c2.64,0.4,5.14,0.18,7.78-0.04c11.23-0.93,31.69-2.57,43.36-3.19c2.48-0.13,4.95-0.36,7.4,0.11"/><path d="M41.01,14.91c0.92,0.92,1.09,2.09,1.09,3.32c0,0.89-0.1,27.33-0.1,34.26"/><path d="M66.79,12.5c0.86,0.86,1.34,2.12,1.34,3.57c0,0.89-0.75,28.05-0.89,34.62"/><path d="M43.24,35.16C48.38,34.62,62,33.38,66.38,33"/><path d="M43.26,43.83c4.22-0.22,17.02-1.74,23.12-1.96"/><path d="M14.5,54.84c3.5,0.78,6.46,0.74,9.5,0.45C42.88,53.5,64.25,52,82.5,50.86c3.16-0.2,6.4-0.25,9.5,0.37"/><path d="M41.96,54.61c0.08,0.53-0.19,1.67-0.65,2.37c-3.59,5.43-11.58,13.75-26.23,19.74"/><path d="M64.5,53c3.5,3.12,13.67,10.68,20.19,15.41c2.26,1.64,4.18,2.96,6.81,4.09"/><path d="M39.88,68.27c1.35,0.39,3.35,0.41,4.74,0.24c7.26-0.88,15.19-1.76,22.01-2.35c1.77-0.15,3.49-0.39,5.25-0.08"/><path d="M49.17,68.93c0.08,0.61-0.02,1.6-0.4,2.44c-2.65,5.76-9.65,15.76-25.27,22.38"/><path d="M43.38,82.38c0.69,0.69,1.01,1.68,1.12,2.61c0.29,2.49,0.62,6.17,0.98,10.02c0.1,1.04,0.2,2.1,0.31,3.14"/><path d="M45.61,83.58c6.54-0.92,15.73-2.39,20.89-2.85c3.18-0.29,5.38,0.53,4.3,4.04c-0.83,2.69-1.55,5.61-2.25,9.2"/><path d="M46.86,96.36c3.93-0.24,12.77-0.93,19.4-1.25c1.71-0.08,3.27-0.14,4.57-0.16"/></svg>