<svg><path d="M10.63,24.68c0.69,0.13,1.97,0.17,2.66,0.13c8.7-0.47,14.79-1.46,26.41-2.27c1.15-0.08,1.85,0.06,2.43,0.13"/><path d="M25.45,26.68c0.05,0.86,0.1,2.22-0.1,3.46C24.16,37.43,17.34,53.45,8,63.25"/><path d="M18.48,51.79c0.26,0.51,0.53,0.93,0.64,1.56c0.9,5.02,1.49,18.87,2.1,27.89"/><path d="M20.23,52.62C27,51,33.84,50.04,37.1,49.49c1.19-0.2,1.9,1.19,1.73,2.36C38.13,56.72,37.05,69.27,36,76"/><path d="M21.59,78.09c4.91-0.84,9.41-1.59,16.35-1.64"/><path d="M59.31,11.5c0.69,0.93,0.71,2.72,0.35,4.19c-1.73,6.98-2.61,9.47-4.78,14.8c-0.6,1.49-0.78,2.88,1.48,2.73c6.69-0.46,11.56-1.32,22.02-1.9"/><path d="M59.53,19.36c2.97-0.18,17.38-2.27,20.09-2.48c2.26-0.17,3.18,1.01,2.81,2.28c-1.39,4.7-1.55,8.65-5.54,23.23"/><path d="M45.44,44.92c1.03,0.33,2.93,0.36,3.96,0.33c10.95-0.31,34.2-3.6,45.05-3.13c1.72,0.07,2.76,0.16,3.62,0.32"/><path d="M68.77,46.33c0.09,0.48,1.26,2.49,1.26,5.52c0,18.15-0.26,34.66-0.26,39.62c0,10.53-7.21,1.5-8.71,0.25"/><path d="M49.5,55.75c3,1.59,7.75,6.53,8.5,9"/><path d="M44,83.1c1.57,1.66,2.88,2.36,4.45,0.95c0.93-0.84,8.88-7.77,12.8-11.79"/><path d="M88.78,50.14c0.03,0.28,0.06,0.73-0.05,1.14c-0.66,2.41-4.46,7.7-9.66,10.93"/><path d="M71,59c3.5,6,16.5,22.5,22.36,27.65c1.41,1.23,2.36,1.96,3.64,2.35"/></svg>