<svg><path d="M13.38,24.96c1.58,0.5,3.87,0.36,5.5,0.24c6.66-0.49,11.8-1.24,20.87-2.29c1.47-0.17,2.68-0.26,4.12,0.02"/><path d="M27.7,27.64c0.3,0.99,0.22,1.99-0.09,3.19c-2.11,7.93-8.23,23.05-17.11,33.15"/><path d="M20,52.81c0.91,0.91,1.2,2.08,1.3,3.45c0.42,5.7,0.84,13.14,1.31,19.98c0.11,1.67,0.23,3.27,0.35,4.76"/><path d="M22.23,54.55c6.37-1.19,12.37-2.25,16.16-2.84c1.9-0.29,4.12,0.26,3.69,2.76c-1.08,6.4-2.33,13.03-3.83,21.08"/><path d="M23.84,78.35c3.41-0.47,6.91-0.85,12.92-1.59c1.28-0.16,2.67-0.19,4.18-0.29"/><path d="M69.29,10.64c0.02,0.33,0.04,0.84-0.03,1.31c-0.41,2.76-2.75,8.81-5.94,12.52"/><path d="M50.99,26.09c0.96,0.96,1.17,2,1.41,3.22c1.09,5.56,1.99,11.55,2.67,17.96c0.19,1.8,0.37,3.56,0.53,5.19"/><path d="M52.87,27.44c10.65-1.7,24.91-3.23,34.51-4c3.78-0.3,5.97-0.21,5.5,4.09c-0.44,4.01-1.81,11.3-2.84,17.48c-0.29,1.71-0.56,3.35-0.82,4.84"/><path d="M70.2,26.97c0.85,1.07,1.28,1.22,1.3,1.92c0.24,6.31,0.09,15.93,0.09,19.41"/><path d="M55.12,38.25c7.25-0.75,25.5-2.25,35.48-2.61"/><path d="M56.39,50.21c8.36-0.96,20.49-1.96,32.08-2.51"/><path d="M63.73,53.43c0.07,1.05-0.02,1.66-0.46,2.64c-1.85,4.1-4.32,8.24-8.65,13.81"/><path d="M48.25,70.81c2.29,0.88,5.62,0.65,8,0.32c12.62-1.75,24.92-3.21,35-3.75c2.67-0.14,5.14-0.16,7.75,0.44"/><path d="M78.62,51.75c1.13,1.13,1.46,2.38,1.46,3.75c0,0.59,0.04,23.8,0.05,36.38c0,4.42,0,7.52-0.01,7.88"/></svg>