<svg><path d="M15.38,31.01c1.65,0.2,3.29,0.17,4.91-0.09c6.94-1.13,11.54-1.9,18.07-3.44c1.58-0.37,3.18-0.42,4.78-0.14"/><path d="M26.95,32.93c0.28,0.89,0.45,2.08,0.15,3.35c-1.96,8.23-7.17,22.14-17.1,34.47"/><path d="M21,55.29c0.54,0.73,0.84,1.54,0.92,2.43c0.73,3.8,1.72,11.45,2.43,17.96c0.24,2.22,0.45,4.32,0.61,6.08"/><path d="M23.23,56.37c5.85-1.4,10.95-2.38,15.35-3.38c2.04-0.47,3.34,0.96,3,3.12c-0.77,4.86-1.28,11.01-2.33,17.74"/><path d="M25.09,77.09c3.76-0.64,7.28-1.23,11.62-1.95c1.32-0.22,2.72-0.45,4.23-0.69"/><path d="M58.13,15.5c0.15,1.69-0.04,3.91-0.51,5.36C54.64,30.1,50.85,37.93,44,49.18"/><path d="M52.19,36.9c0.73,0.73,1.15,2.45,1.15,4.16c0,8.95,0.14,28.09,0.08,41.14c-0.02,4.62-0.03,8.27-0.03,10.05"/><path d="M80.19,15c0.09,0.86-0.02,2-0.3,2.74c-1.75,4.72-3.98,8.37-8,14.12"/><path d="M53.66,34.41c7.36-0.47,23.03-1.65,31.71-2.51c3.5-0.35,6.11-0.65,7.01-0.83"/><path d="M72.48,35.83c0.83,1.05,1.21,2.19,1.13,3.42c-0.01,8.51-0.17,33.89-0.17,46.05"/><path d="M54.64,52.07c6.33-0.45,21.49-1.31,30.06-1.93c2.96-0.21,5.13-0.4,5.89-0.53"/><path d="M54.3,67.29c6.15-0.31,22.08-0.94,31.1-1.42c3.09-0.17,5.37-0.31,6.16-0.42"/><path d="M54.3,87.18c6.92-0.37,25.43-1.21,35.58-1.87c3.38-0.22,5.83-0.42,6.62-0.58"/></svg>