<svg><path d="M12.38,29.51c0.61,0.18,1.74,0.23,2.34,0.18c7.66-0.62,15.03-1.94,25.26-3.02c1.02-0.11,1.63,0.08,2.14,0.17"/><path d="M26.49,30.5c0.05,0.89,0.11,2.3-0.1,3.57c-1.24,7.53-8.38,24.06-18.14,34.18"/><path d="M20,54.29c0.28,0.42,0.56,0.77,0.68,1.3c0.96,4.17,2.12,18.17,2.78,25.66"/><path d="M21.73,55.13c8.02-1.38,14.39-2.5,17.95-3.14c1.3-0.23,2.08,1.38,1.9,2.75c-0.77,5.67-2.27,13.51-3.41,21.35"/><path d="M23.59,78.2c5.24-0.54,9.52-1.02,16.41-1.69"/><path d="M57.07,13.25c0.15,1.05,0.45,1.78,0.14,2.67C55.25,21.5,54,25.5,47.23,33.77c-0.91,1.11-0.46,0.8,0,1.11C53.75,39.25,55.75,43,59.44,50"/><path d="M73.9,11.87c0.52,1.12,0.73,2.56,0.54,3.4c-1.18,5.23-3.66,10.56-10.03,16.29c-0.62,0.55-0.3,0.76,0.28,1.09c6.73,3.77,10.61,8.46,13.71,15.02"/><path d="M91.51,11.46c0.4,0.8,0.36,1.68,0.18,2.47c-1.01,4.37-4.1,9.91-10.76,16.61c-0.57,0.58-0.25,0.74,0.26,1.11c7.32,5.28,12.29,10.56,14.99,16.51"/><path d="M69.52,48.39c0.04,0.34,0.07,0.87-0.07,1.36c-0.81,2.86-4.99,8.13-11.39,11.97"/><path d="M49.49,60.6c0.3,0.58,0.8,1.98,0.97,2.71c1.34,6.01,3.6,23.69,4.43,34.89"/><path d="M50.88,63.56c11.25-1.56,32.21-2.7,40.61-4c3.08-0.48,4.67,1.21,4.51,2.91c-0.58,6.23-3.1,24.7-4.51,35.1"/><path d="M80.75,64.5c0.06,0.61,0.12,1.57-0.11,2.44c-1.36,5.14-9.19,16.41-19.89,23.31"/><path d="M60.75,70.25c7.94,3.04,20.51,12.52,22.5,17.25"/><path d="M54.93,96.72c8.14-0.18,23.52-1.59,36.41-1.68"/></svg>