<svg><path d="M19,19.33c2.25,0.8,4.62,0.57,6.5,0.27c4.1-0.65,12.09-1.78,17.76-2.34c1.41-0.14,3.63-0.69,5-0.1"/><path d="M32.32,21.52c0.89,0.89,1.23,2.11,1.23,3.73c0,5.95-0.05,16.43-0.05,22.5"/><path d="M19.75,33.37c2.12,0.76,4.23,0.9,6.24,0.57c4.18-0.69,11.28-2.17,15.39-2.76c1.42-0.2,2.94-0.53,4.36-0.14"/><path d="M18.5,52.37c1.12,1,2.38,1,3.43,0.64c5.59-1.9,15.57-5.89,25.07-9.77"/><path d="M72.26,9.5c0.24,1.12-0.26,1.88-0.72,2.79c-1.22,2.43-2.91,4.96-5.59,8.19"/><path d="M55.5,22.05c0.85,0.85,1.21,1.83,1.4,3.19c0.44,3.24,1.58,10.94,2.28,16.37c0.29,2.28,0.5,4.15,0.55,5.13"/><path d="M57.51,23.46c5.87-0.82,19.1-2.47,24.75-3.04c2.79-0.28,5.2-0.21,4.91,3.09c-0.29,3.29-1.44,11.01-2.64,17.39c-0.32,1.71-0.64,3.33-0.95,4.74"/><path d="M59.22,33.68c7.28-0.8,21.6-2.36,25.78-2.36"/><path d="M60.77,44.47c8.1-0.72,14.23-1.22,22.64-1.73"/><path d="M23.98,59.31c2.98,0.78,6.86,0.5,9.9,0.2C49,58,65.49,56.63,82.5,55.65c3.04-0.18,6.11-0.02,9.13,0.46"/><path d="M46.92,61.12c-0.17,1.13-0.99,2.38-1.59,3.3C41.06,70.94,29.11,82.77,14,90.62"/><path d="M40.12,74.74c0.82,0.82,1.13,1.63,1.34,2.88c0.55,3.39,1.52,9.19,2.4,15.48c0.25,1.77,0.49,3.58,0.72,5.39"/><path d="M42.01,76.4c12.76-1.55,23.34-2.96,33.49-3.79c3.7-0.3,5.29,0.8,4.44,4.57c-0.9,3.99-2.31,9.58-3.94,15.3"/><path d="M45.56,95.76c5.77-0.36,17.36-1.39,26.83-1.85c2.31-0.11,4.43-0.19,6.22-0.21"/></svg>