<svg><path d="M14.53,25.27c0.67,0.14,1.9,0.18,2.55,0.14c8.35-0.5,14.21-1.55,25.37-2.42c1.11-0.09,1.78,0.06,2.33,0.14"/><path d="M26.81,26.75c0.05,0.98,0.11,2.54-0.1,3.94c-1.28,8.31-8.64,26.54-18.7,37.72"/><path d="M19.71,53.91c0.26,0.47,0.53,0.87,0.64,1.46c0.91,4.69,2.01,17.62,2.63,26.05"/><path d="M21.26,55.57c6.99-1.32,16.34-2.54,19.9-3.19c1.3-0.24,2.07,1.4,1.89,2.78c-0.76,5.74-2.26,13.69-3.4,21.62"/><path d="M24.29,79.61C29.64,78.62,33,78,42.03,77.5"/><path d="M68.73,11.55c0.52,0.7,1.52,3.2,1.77,5.28c0.02,0.9-0.01,14.18-0.03,19.8"/><path d="M71.14,22.22c4.11-0.47,17.35-1.95,19.04-1.95c1.69,0,2.54,0,3.8,0"/><path d="M53.08,36.51c0.58,0.99,1.43,2.21,1.43,3.55c0,1.34,0.26,34.86-0.42,40.52"/><path d="M54.48,38.08c3.3-0.29,29.46-1.93,32.46-2.25c2.51-0.26,3.84,0.78,3.84,2.03c0,3.07-0.74,39.74-0.74,40.75"/><path d="M54.57,51.31c6.17-0.63,30.1-1.9,35.4-2.11"/><path d="M54.84,64.53c9.31-1.1,25.29-1.72,35.17-2.26"/><path d="M54.41,77.93c9.31-0.92,27.1-1.07,35.59-1.4"/><path d="M61.86,84.73c0.47,1.05,0.07,2.27-0.87,3.08c-2.85,2.47-10.77,7.69-16.48,10.71"/><path d="M80.24,84.56c5.81,3.37,12.67,9.64,14.26,12.73"/></svg>