<svg><path d="M37.07,10.25c0.33,0.96,0.96,1.25,0.28,2.43c-1.05,1.82-1.18,3.05-6,8.37"/><path d="M26.53,22.12c0.94,0.77,1.18,2.12,1.18,3.08c0,0.96,0.13,6.65,0.24,8.38c0.47,7.57-2.2,20.67-10.99,28.46"/><path d="M28.3,23.37c4.95-1.12,13.94-2.94,17.29-3.33c3.35-0.38,3.17,0.77,3.17,2.12c0,1.35-0.35,30.5-0.35,32.43c0,5.77-4.76,1.15-5.47,0.77"/><path d="M34.55,26.15c1.17,1.21,4.08,4.42,4.38,5.83"/><path d="M36.45,37.29c0.88,0.96,1.06,1.54,1.06,2.31c0,0.77,0,10.31-0.35,12.23"/><path d="M17.44,40.55c0.38,0.68,2.08,1.09,3.31,0.91c1.23-0.18,27.56-6.93,31.31-7.9"/><path d="M63.43,14.71c0.17,0.47,0.34,1.49,0.33,2.18c-0.13,7.1-1.44,15.27-5.29,18.25"/><path d="M64.31,16.66c2.05,0.18,9.14-1.61,11.5-2.81c1.19-0.61,3.08,0.26,2.87,1.43c-0.41,2.29-1.56,8.66-1.56,10.95c0,3.17-0.97,5.46,5.79,5.46c6.73,0,7.85-1.62,7.85-5.43"/><path d="M60.51,41.07c0.94,0.2,1.06,0.49,2.93,0.2c1.88-0.29,13.91-3.91,15.2-4.2c1.29-0.29,2.34,1.13,1.76,2.15c-5.95,10.45-13.62,16.37-24.89,21.22"/><path d="M58.16,46.23c3.32,0.35,19.56,9.79,31.13,13.66c1.8,0.6,3.12,1,4.79,1.21"/><path d="M25.69,67.64c1.05,0.25,3.39,0.32,4.43,0.25C43.26,67,63.2,64.43,78.95,64.29c1.75-0.02,2.8,0.12,3.67,0.25"/><path d="M43.23,68.49c0.07,0.6,0.16,1.54-0.15,2.4c-1.8,5.06-12.16,16.17-26.32,22.98"/><path d="M39.5,79.16c0.5,0.36,1.13,1.81,1.23,2.29c0.67,3.45,0.91,10.03,1.86,16.55"/><path d="M40.42,81.46c7.58-0.69,29.75-3.49,34.92-3.6c2.14-0.04,2.51,1.78,2.26,2.81c-0.8,3.31-2.23,6.62-3.33,12.49"/><path d="M42.57,95.85c6.06-0.35,25.54-2.01,33.27-2.12"/></svg>