<svg><path d="M12.38,25.06c0.68,0.12,1.94,0.15,2.62,0.12c8.56-0.41,14.55-1.29,25.99-2.01c1.13-0.07,1.82,0.06,2.39,0.12"/><path d="M25,27c0.05,0.82,0.11,2.13-0.1,3.31C23.65,37.29,16.52,52.62,6.75,62"/><path d="M18,51.25c0.32,0.51,0.65,0.93,0.79,1.57c1.11,5.03,2.45,18.9,3.21,27.93"/><path d="M18.79,52.82c7.4-2.11,16.08-2.11,19.64-2.82c1.3-0.26,2.08,1.55,1.9,3.08c-0.77,6.34-1.18,13.41-2.33,22.18"/><path d="M23.59,78.9c5.15-0.56,9.34-1.06,16.1-1.76"/><path d="M69.33,12.25c0.42,0.32,1.31,2.37,1.4,3c0.08,0.63-0.05,13.44-0.14,17.39"/><path d="M53.07,19.97c0.41,0.3,0.88,1.59,0.82,2.2c-0.27,2.71-0.1,4.84-1.21,10.35c-0.27,1.36-0.21,2.73,0.81,2.54c3.66-0.68,31.61-4.34,36.75-4.51"/><path d="M90.35,17.35c0.42,0.29,0.91,2.17,0.84,2.75c-0.42,3.56-0.47,6.49-1.17,13.12"/><path d="M52.23,46.66c0.76,0.17,2.14,0.19,2.91,0.17c7.89-0.2,19.81-2.99,34.33-3.03c1.27,0,2.02,0.08,2.66,0.17"/><path d="M53.85,56.01c0.44,0.32,1,0.56,1.09,0.98c0.6,3.04,0.96,10.22,2.31,16.26"/><path d="M56.15,57.41c6.63-0.62,25.59-3.18,30.11-3.28c1.87-0.04,3.14,0.81,2.72,2.61c-0.75,3.23-1.97,7.42-3.41,12.02"/><path d="M57.86,71.87c4.74,0,23.95-2.45,30.49-2.54"/><path d="M55.74,78.64c2.82,2.18,6.8,7.97,7.51,11.36"/><path d="M86.25,75.25c0.02,0.38,0.05,0.97-0.04,1.51c-0.56,3.19-3.79,10.2-8.2,14.49"/><path d="M43.39,95.1c1.37,0.63,3.87,0.77,5.24,0.63C65.71,94,79.19,92.3,94.33,91.86c2.28-0.07,3.65,0.3,4.79,0.62"/></svg>