<svg><path d="M19,18.34c0.83,0.1,2.35,0.58,3.18,0.53c8.62-0.47,17.57-1.38,27.18-2.2c1.38-0.12,2.21,0,2.9,0.04"/><path d="M33.2,10c1.2,0.33,1.92,1.96,2.16,2.61c0.24,0.65,0.01,11.28-0.22,15.39"/><path d="M23.5,28.86c0.62,0.12,1.75,0.07,2.37,0.02c8.18-0.62,10.09-1.06,21.94-1.75c1.03-0.06,1.65-0.02,2.17,0.03"/><path d="M19.12,36.79c0.56,0.1,1.98,0.54,3.87,0.4c6.95-0.54,22.87-1.84,24.3-2.08c3.46-0.58,5.1,0.58,3.95,3.68c-0.62,1.68-2.3,6.56-2.96,7.92"/><path d="M35.34,38.01c0,2.17,0.17,7.19,0.17,8.36"/><path d="M23,49.64c2-0.12,23.83-2.23,28-2.48"/><path d="M21.87,37.51c0.72,0.62,1.04,0.78,1,1.56C22.25,52.25,21,59,14,67.21"/><path d="M61.96,14c0.21,0.5,0.41,1.6,0.4,2.34c-0.15,7.61-1.72,16.39-6.33,19.58"/><path d="M62.59,16.58c1.93,0.17,13.51-1.86,14.81-2.21c1.93-0.52,2.9,1.1,2.7,2.24c-0.38,2.24-1.58,6.02-1.58,8.26c0,3.1,1.96,5.34,8.33,5.34c7.52,0,7.83-0.34,7.83-6.71"/><path d="M62.25,37.21c1.13,0.22,1.27,0.55,3.52,0.22c2.25-0.33,11.65-2.29,13.19-2.62c1.55-0.33,2.8,1.27,2.11,2.41C73.95,48.93,65.25,55.56,51.75,61"/><path d="M60.17,43.14c3.15,0.38,18.55,10.65,29.53,14.86c1.71,0.66,2.95,1.09,4.54,1.31"/><path d="M23,68.36c1.21,0.17,3.91,0.22,5.12,0.17c15.17-0.61,38.18-2.39,56.37-2.49c2.02-0.01,3.23,0.08,4.24,0.17"/><path d="M44.43,68.55c0.07,0.6,0.16,1.55-0.15,2.41C42.44,76.03,31.91,87.18,17.5,94"/><path d="M40.7,78.34c0.4,0.4,0.92,2.01,0.99,2.54c0.55,3.82,1.55,11.13,2.32,18.37"/><path d="M41.65,80.58c9.11-0.71,30.35-3.1,36.56-3.21c2.57-0.05,3.02,1.84,2.72,2.91c-0.96,3.43-2.69,7.89-4.01,13.97"/><path d="M45.35,96.64c6.63-0.38,23.03-1.66,31.49-1.77"/></svg>