<svg><path d="M13.25,21.15c0.59,0.12,1.68,0.15,2.27,0.12c7.42-0.43,12.62-1.33,22.53-2.07c0.98-0.07,1.58,0.06,2.07,0.12"/><path d="M24.99,21.5c0.05,0.88,0.1,2.28-0.1,3.55C23.68,32.53,16.75,48.95,7.25,59"/><path d="M16.5,46.75c0.24,0.55,0.49,1,0.59,1.69c0.84,5.41,1.84,20.34,2.41,30.06"/><path d="M17.75,50.75c7.04-2.19,14.14-2.01,17.53-2.75c1.24-0.27,1.98,1.61,1.8,3.2c-0.73,6.59-1.24,15.2-2.33,24.31"/><path d="M20.09,77.98c5.08-0.79,9.23-1.49,15.91-2.48"/><path d="M51.41,16.74c1.04,0.65,1.44,0.53,3.12,0.22c4.37-0.81,4.83-1.45,9.5-2.49c2.77-0.62,3.32,0.56,2.43,4.09C64.38,26.85,55.14,48.54,42.75,56"/><path d="M45.02,27.32c3.7,1.84,9.55,7.57,10.48,10.43"/><path d="M86.49,13.5c0.02,0.26,0.05,0.66-0.05,1.03c-0.65,2.18-4.4,6.33-9.51,9.26"/><path d="M67.75,16.5c5.04,4.12,22.29,27.92,26.71,32.71c1.5,1.62,2.79,2.32,4.29,2.79"/><path d="M95.23,24.5c0.04,0.24,0.06,0.62-0.06,0.97c-0.72,2.04-4.81,6.04-10.42,8.78"/><path d="M58.26,46.94c0.64,0.27,1.81,0.35,2.44,0.27c6.82-0.86,11.99-1.71,17.31-2c1.06-0.06,1.7,0.13,2.23,0.27"/><path d="M53.48,55.73c0.55,0.36,1.25,0.64,1.35,1.12c0.74,3.48,2.78,11.67,3.91,18.09"/><path d="M55.58,58.38c6.41-0.66,22.1-3.62,26.48-3.72c1.81-0.04,3.03,1.87,2.62,3.79c-0.73,3.45-1.6,7.24-2.83,11.74"/><path d="M59.49,73.07c6.22-0.69,18.74-2.59,23.71-2.87"/><path d="M57.08,80.07c2.29,2.44,5.85,8.65,6.42,12.43"/><path d="M83.21,78.67c0.02,0.32,0.04,0.83-0.04,1.29c-0.48,2.71-3.19,8.66-6.92,12.29"/><path d="M42.03,95.44c1.05,0.41,2.97,0.48,4.02,0.41c10.9-0.69,37.34-2.64,48.94-2.93c1.74-0.04,2.79,0.2,3.67,0.41"/></svg>