<svg><path d="M11.13,25.05c0.65,0.1,1.85,0.13,2.49,0.1c8.15-0.35,13.85-1.09,24.73-1.7c1.08-0.06,1.73,0.05,2.28,0.1"/><path d="M23.5,27.75c0.04,0.85,0.09,2.2-0.09,3.43C22.34,38.41,16.18,54.28,7.75,64"/><path d="M18.84,51.29c0.14,0.51,0.28,0.94,0.35,1.58c0.49,5.06,1.07,19.03,1.4,28.13"/><path d="M19.23,51.84C26.25,51,32.88,49.76,35.79,49c1.06-0.28,1.7,1.65,1.55,3.29c-0.63,6.77-2.26,14.95-3.19,24.31"/><path d="M21,79.43c5.25-0.93,9.5-1.93,15-2.36"/><path d="M49.18,20.68c0.99,0.29,2.79,0.32,3.78,0.29c10.44-0.32,18.83-2.19,31.59-2.45c1.64-0.03,2.63,0.14,3.45,0.29"/><path d="M65.17,10.12c0.83,0.63,1.51,1.22,1.51,2.71c0,1.67,0.29,10.92,0.29,17.88"/><path d="M44.1,32.63c1.17,0.41,3.32,0.5,4.49,0.41c14.51-1.14,27.76-2.92,40.74-3.45c1.95-0.08,3.13,0.19,4.1,0.4"/><path d="M44.75,46.38c0.46,0.31,1.37,0.32,1.83,0.29c3.05-0.2,12.39-1.13,15.66-1.62c0.76-0.12,1.6-0.15,1.98,0.01"/><path d="M51.67,38c1.2,0.5,2.17,2.23,2.17,3.25c0,7.25,0.04,4.75,0.04,15.5"/><path d="M43.84,60.66c0.54,0.58,1.63,1.41,3.25,0.64c4.51-2.13,12.64-5.42,17.15-7.55"/><path d="M69.61,44.53c0.64,0.32,1.81,0.33,2.45,0.32c5.93-0.11,14.2-1.61,20-1.71c1.06-0.02,1.7,0.15,2.23,0.31"/><path d="M80.71,35.62c0.07,0.23,1.09,1.22,1.09,2.71c0,1.67-0.22,10.92-0.22,17.88"/><path d="M66.77,57.73c0.74,0.3,2.48,0.37,3.22,0.3c6.61-0.54,17.53-1.54,24.16-1.95c1.23-0.08,1.98,0.15,2.59,0.3"/><path d="M44.52,70.25c0.96,0.4,2.71,0.44,3.67,0.4c6.67-0.29,34.11-3.52,43.21-3.52c1.59,0,2.55,0.19,3.35,0.39"/><path d="M59.29,72c0.06,0.66,0.11,1.71-0.12,2.67c-1.62,6.57-8.68,20.7-21.75,25.5"/><path d="M71.09,70.41c0.57,1.14,1.06,2.49,1.06,4.25c0,2.36-0.02,5.9-0.02,11.25c0,9.37,2.63,11.08,12.82,11.08c10.19,0,11.83-2.19,11.83-9.73"/></svg>