<svg><path d="M12.63,29.01c1.74,0.42,3.64,0.49,5.38,0.23c7.62-1.12,12.4-1.43,21.62-2.31c1.98-0.19,3.55-0.13,5.5,0.15"/><path d="M26.69,31.43c0.31,0.95,0.36,2.1,0.14,3.4c-1.29,7.7-8.7,24.58-18.84,34.93"/><path d="M20.47,54.65c0.62,0.98,0.94,2.05,0.98,3.21c0.67,4.53,1.34,12.65,1.84,19.63c0.13,1.78,0.24,3.49,0.34,5.04"/><path d="M22.01,56.03c6.37-0.78,11.78-1.39,15.49-1.95c3-0.45,4.38,1.17,3.74,4.17c-1.1,5.2-2.7,11.92-3.8,18.75"/><path d="M24.32,79.27c4.16-0.65,6.95-0.67,11.71-1.27c1.15-0.15,2.22-0.38,3.95-0.25"/><path d="M60.14,15.25c0.17,1.49-0.3,2.93-0.83,4.21c-3.4,8.12-7.96,15.24-15.75,25.12"/><path d="M55.4,32.15c0.85,0.85,1.2,1.89,1.2,3.11c0,7-0.05,23.49-0.09,32.87c-0.01,3.67-0.02,6.26-0.02,6.75"/><path d="M78.16,15.99c0.07,0.74,0.04,1.74-0.24,2.36C76.5,21.5,74.75,25.62,72,30"/><path d="M57.67,33.61c5.36-0.61,20.75-1.75,29.84-2.69c2.85-0.29,4.93-0.52,5.65-0.62"/><path d="M73.94,34.71c0.34,0.31,0.99,2.7,0.99,3.24c0,5.5,0.04,22.04-0.17,30.7"/><path d="M57.61,46.55c5.11-0.51,20.45-1.77,28.65-2.48c2.44-0.21,4.23-0.38,4.88-0.46"/><path d="M57.8,57.96c5.46-0.44,20.43-1.58,28.95-2.32c2.41-0.21,4.16-0.36,4.82-0.43"/><path d="M57.8,70.49c8.7-0.74,23.41-1.69,32.99-2.34c2.69-0.18,4.62-0.33,5.29-0.42"/><path d="M49.09,81.45c0,4.91-4.56,12.15-5.58,13.55"/><path d="M62.12,80.38c1.43,2.62,2.79,9.83,3.15,13.9"/><path d="M77.62,79.88c1.97,2.25,5.09,9.24,5.58,12.74"/><path d="M91.38,78.5c3.42,2.71,8.83,11.15,9.68,15.36"/></svg>