<svg><path d="M12.25,25.08c0.59,0.16,1.69,0.21,2.28,0.16c7.46-0.57,12.68-1.79,22.64-2.78c0.99-0.1,1.59,0.08,2.08,0.16"/><path d="M23.75,25c0.04,0.88,0.09,2.27-0.09,3.52c-1.09,7.43-7.35,23.74-15.91,33.73"/><path d="M16.71,53.27c0.25,0.52,0.51,0.95,0.62,1.6c0.83,5.12,1.71,17.22,2.2,26.4"/><path d="M17.23,54.02C25,52.5,29.93,52,33.46,51.25c1.29-0.27,2.06,1.62,1.87,3.23c-0.76,6.65-1.73,14.68-2.87,23.87"/><path d="M20.59,79.71c4.81-0.78,8.73-0.48,15.05-1.46"/><path d="M52.05,11.82c3.07,1.75,7.93,7.2,8.7,9.93"/><path d="M80.49,9.75c0.02,0.3,0.05,0.77-0.05,1.2c-0.59,2.53-4.01,8.1-8.68,11.5"/><path d="M47.06,25.49c0.62,0.11,1.75,0.16,2.36,0.11c2.49-0.22,31.88-2.64,37.42-2.6C87.87,23,88.49,23.05,89,23.1"/><path d="M66.53,25.96c0.68,0.3,1.08,1.36,1.22,1.97c0.14,0.61,0,12.21-0.14,16"/><path d="M50.55,36.49c0.63,0.23,1.8,0.34,2.42,0.23c2.56-0.45,27.06-3.4,32.76-3.31c1.05,0.02,1.68,0.11,2.21,0.23"/><path d="M43.5,46.65c0.99,0.23,2.82,0.34,3.8,0.23c4.01-0.45,35.36-3.12,46.23-3.59c1.65-0.07,2.64,0.11,3.47,0.23"/><path d="M64.5,50.25c0.06,0.27,0.21,0.75-0.11,1.09C61.84,54.08,55.84,58.2,45,61.75"/><path d="M40.72,69.27c1.34,0.33,3.8,0.48,5.12,0.33c5.41-0.64,32.14-4.53,46.98-5.26c2.22-0.11,3.56,0.16,4.68,0.32"/><path d="M59.05,56.15c0.09,0.29,1.27,1.49,1.36,3.31c0.44,8.73-0.28,30.6-0.28,33.57c0,3.02-1.65,3.62-4.3,2.4c-2.06-0.94-3.53-1.5-5.16-2.25"/><path d="M43.16,82.9c1.14,1.72,2.02,2.54,3.96,1.58c1.14-0.56,17.3-9.53,22.14-12.23"/><path d="M73.75,50.25c0.96,0.99,1.34,1.28,1.57,3.4c1.93,17.86,9.98,35.1,21.12,42.48c3.82,2.53,3.26,0.42,2.78-3.97"/><path d="M91.36,67.37c0.07,0.63,0.14,1.65-0.13,2.56C89.65,75.32,80.92,87.75,68.5,95"/><path d="M83.5,50.25C86.93,51.8,92.4,55.34,94,58"/></svg>