<svg><path d="M13.71,21.78c0.6,0.07,1.7,0.1,2.28,0.07c7.48-0.26,12.72-1.31,22.7-1.76c1-0.05,1.59,0.03,2.09,0.07"/><path d="M24.96,24.52c0.04,0.85,0.1,2.19-0.09,3.41c-1.13,7.18-7.53,22.94-16.28,32.58"/><path d="M18,50.93c0.24,0.5,0.48,0.91,0.58,1.54c0.82,4.95,1.81,18.61,2.38,27.5"/><path d="M18.73,52.42c6.02-1.42,13.76-2.06,16.81-2.82c1.12-0.28,1.78,1.64,1.62,3.26C36.5,59.58,35.29,66.71,34.31,76"/><path d="M22.09,78.25c4.38-0.76,7.94-1.43,13.69-2.38"/><path d="M69.48,11.44c0.76,0.26,2.34,1.98,2.5,2.51c0.16,0.53,0.08,5.15-0.08,8.45"/><path d="M47.66,23.51c1.2,0.27,3.38,0.28,4.57,0.22c12.4-0.65,28.94-1.43,40.96-1.97c1.98-0.09,3.17,0.09,4.17,0.22"/><path d="M50.73,23.75c0.35,1.51,0.66,4.25,0.57,6.62c-0.59,15.89-4.55,49.37-20.83,62.84"/><path d="M56.33,35.49c0.82,0.25,2.33,0.29,3.15,0.25c10.05-0.54,21.72-2.68,30.83-3.21c1.37-0.08,2.19,0.12,2.88,0.24"/><path d="M64.07,28.73c0.47,0.22,1.46,1.64,1.48,2.09c0.14,3.01,0.95,6.93,1.99,14.34"/><path d="M79.84,26.22c0.94,0.21,2.12,1.89,2.01,2.45c-0.71,3.38-1.25,7.1-2.38,13.38"/><path d="M67.65,44.05c2.14,0,11.48-1.39,13.88-1.39"/><path d="M52.95,51.61c0.98,0.44,2.79,0.53,3.76,0.44c9.09-0.88,25.21-3.03,36.27-3.2c1.64-0.03,2.62,0.21,3.44,0.43"/><path d="M53.88,60.21c0.85,0.37,2,1.94,2.08,2.43c0.54,3.74,3.32,13.05,4.29,20.28"/><path d="M56.02,62.26C66.5,61,83.97,59.79,89.79,59.67c2.41-0.05,3.29,1.53,3.16,2.6c-0.47,3.94-1.86,11.65-4.4,20.1"/><path d="M72.08,51.64c1.09,0.34,2.02,2.1,2.02,2.52c0.02,7.09,0.23,23.89,0.23,25.79"/><path d="M58.35,71.99c2.83-0.2,29.96-3.06,32.29-3.06"/><path d="M61.03,81.99c7.85-1.42,18.07-2.17,27.31-2.68"/><path d="M63.72,85.76c0.05,0.3,0.12,0.78-0.12,1.21c-1.39,2.55-9.31,7.26-20.18,10.68"/><path d="M81.21,84.82c5.13,2.26,13.26,9.31,14.55,12.84"/></svg>