<svg><path d="M10.88,28.01c0.61,0.18,1.74,0.23,2.34,0.18c7.66-0.62,15.03-1.44,25.26-2.52c1.02-0.11,1.63,0.08,2.14,0.17"/><path d="M23.45,29.68c0.04,0.9,0.09,2.33-0.09,3.63C22.27,40.95,16.04,57.73,7.5,68"/><path d="M18.5,53.79c0.28,0.42,0.56,0.77,0.68,1.3c0.96,4.17,1.62,17.17,2.28,24.66"/><path d="M19.73,54.12c6.77-1.62,13.61-2.08,16.87-2.63c1.19-0.2,1.9,1.19,1.73,2.36c-0.7,4.87-1.53,15.26-2.58,21.99"/><path d="M21.59,77.59c4.91-0.84,9.16-1.34,15.85-1.64"/><path d="M45.16,17.82c1.3,0.56,3.69,0.65,5,0.56c13.56-0.93,31.09-3.1,43.16-3.84c2.17-0.13,3.47,0.27,4.56,0.55"/><path d="M49.63,18.64c0,1.67-0.01,3.28-0.02,4.86c-0.28,35.3-3.78,47.91-13.3,68.28"/><path d="M53.78,31.06c0.81,0.44,1.75,0.53,2.56,0.44c7.45-0.81,29.35-3.77,37.94-3.83c1.35-0.01,2.16,0.21,2.84,0.43"/><path d="M63.89,22.86c1.1,1.21,1.45,1.58,1.57,2.32c1.09,6.96,1.41,7.79,1.72,10.32"/><path d="M82.22,19.89c0.7,0.84,1.17,2.13,0.94,3.38c-0.7,3.8-1.67,7.13-2.69,11.98"/><path d="M57.6,41.28c0.24,0.37,0.24,0.62,0.37,1.08c1.06,3.79,2.97,12.54,3.59,19.59"/><path d="M58.72,42.16c8.41-0.76,24.98-3.12,31.26-3.78c2.31-0.24,2.83,0.65,2.64,3c-0.4,4.96-1.31,8.82-2.76,16.74"/><path d="M59.9,50.49c2.74-0.31,29.69-2.79,31.96-2.89"/><path d="M61.68,59.76c8.59-1.31,19.39-1.94,27.74-2.42"/><path d="M53.52,66.69c0.69,0.35,1.18,1.38,1.23,2.07c0.24,3.4,1.01,22.74,1.5,27.76"/><path d="M55.25,69.3c5.48-0.81,39.01-4.17,40.1-4.23c1.65-0.08,3.09,1.08,3.04,3.21c-0.13,5.64-2.85,20.34-4.61,25.46c-1.85,5.39-4.24,2.2-6.28-0.84"/><path d="M73.87,41.86c0.36,0.62,0.92,1.22,0.92,2.35c-0.01,4.92,0.15,32.66,0.15,34.17"/><path d="M62.22,80.88c1.12,0.78,2.36,1.19,3.35,0.86c2.79-0.91,14.27-5.08,20.12-6.75"/><path d="M82.94,71.55c2.43,1.7,6.27,7.11,6.88,9.86"/></svg>