<svg><path d="M29.08,14.12c3.93,2.24,8.13,6.21,11.5,10.12"/><path d="M15.36,39.25c1.04,0.45,3.14,0.91,4.93,0.7c5.75-0.69,20.57-4.37,22.55-4.95c2.59-0.75,4.09,1.26,2.51,3.5C39.91,46.25,26.38,64.38,14.5,74"/><path d="M35,54.86c0.88,0.88,1.52,2.27,1.52,4.14c0,8.67-0.01,23.85-0.02,31.75c0,2.35,0,4.05,0,4.75"/><path d="M39.2,56.5c3.71,2.41,7.69,6.03,10.88,10.25"/><path d="M67.24,17.37c1.01,1.01,1.49,2.88,1.49,4.43c0,8.19-0.13,49.14-0.13,54.7c0,9.88,2.15,12.03,12.96,12.03C93,88.53,94.89,87,94.89,78.9"/></svg>