<svg><path d="M30.08,13.5c3.33,1.82,6.42,5.5,8.25,9.75"/><path d="M14.83,36.5c1.01,0.45,3.29,0.72,5.01,0.45c3.67-0.57,18.24-4.45,20.74-5.2s4.02,1.01,2.5,3.25c-5.25,7.75-19,24.25-27.75,32"/><path d="M31.25,52.61c0.88,0.88,1.27,2.02,1.27,3.89c0,7.86,0.03,19.81,0.04,29c0.01,3.67,0.01,6.89,0.01,9.25"/><path d="M35.33,49.25c3.64,2.82,7.05,6.06,10.17,11"/><path d="M81.41,14.42c-0.16,0.83-0.57,1.74-1.11,2.36c-5.49,6.28-11.43,9.99-22.96,15.52"/><path d="M54.31,33.21c0.86,0.87,1.16,2.16,1.16,3.9c0,14.26,1.03,34.76-9.41,51.77"/><path d="M57.85,46.28c1.46-0.02,2.81-0.11,4.27-0.3c7.48-0.95,19.8-2.49,27.5-3.62c2.13-0.31,4.49-0.86,6.63-0.35"/><path d="M77.97,46.42c1,0.99,1.6,2.46,1.6,4.38c0,4.23,0.04,25.2,0.04,38.2c0,3.14,0,5.93,0,8.08"/></svg>