<svg><path d="M20.92,17.55c0.9,0.36,2.54,0.4,3.44,0.36c5.63-0.25,14.67-1.3,20.37-1.64c1.49-0.09,2.39,0.17,3.14,0.35"/><path d="M14.67,35.65c1.37,0.19,3.85,0.1,5.2,0c8.5-0.58,21.42-2,31.21-2.76c2.24-0.17,3.61-0.05,4.74,0.02"/><path d="M35.08,36.43c0.61,0.44,0.98,1.97,1.1,2.85c0.12,0.88,0,51.24-0.12,56.72"/><path d="M23.61,47.75c0.57,1.55,0.56,2.35,0.56,3.66c0,9.6-1.11,22.76-9.61,35.05"/><path d="M46.54,44.75c1.19,0.46,1.91,2.05,2.15,2.97c0.24,0.91,0,28.41-0.24,34.11"/><path d="M62.67,19.31c0.94,0.09,2.62,0.65,3.83,0.46c5.22-0.85,16.54-2.74,19.29-3.59c3.38-1.05,6.54,0.92,5.26,3.48c-1.79,3.59-7.46,19.35-10.09,22.84"/><path d="M81,43.5c19,13.25,18.25,44.5,2.73,33.66"/><path d="M66.33,20c0.22,1,0,70.25-0.22,76.5"/></svg>