<svg><path d="M17.48,17.55c1.38,0.34,2.77,0.44,4.16,0.3c4.55-0.3,10.94-1.08,15.62-1.47c1.42-0.2,2.83-0.12,4.24,0.25"/><path d="M11.91,35.65c1.99,0.13,3.98,0.09,5.96-0.1c7.02-0.59,16.8-1.76,24.75-2.5c1.98-0.23,3.96-0.28,5.96-0.14"/><path d="M29.59,36.93c0.95,1.79,1.28,3.69,1.01,5.69c0.04,8.29-0.01,32.64-0.08,45.75c-0.02,4.04-0.04,7.01-0.06,8.12"/><path d="M19.88,48.75c0.4,1.69,0.59,3.4,0.49,5.12c-0.61,10.5-2.36,22.38-8.56,32.59"/><path d="M41.3,45.75c0.95,1,1.42,3.03,1.42,3.97c0,4.53-0.21,22.16-0.21,31.61"/><path d="M67.52,12.5c0.25,1.54,0.07,3.01-0.54,4.4c-2.51,7.15-8.3,18.89-17.24,28.35"/><path d="M63.36,31.8c1.8,0.27,3.6,0.32,5.4,0.15c10.67-0.65,16.55-2.86,24.61-3.54c1.87-0.2,3.75-0.14,5.62,0.18"/><path d="M66.89,33.71c1.19,1.23,1.57,2.79,1.57,4.17c0,10.16-0.06,37.44-0.08,52.63c0,3.52-0.01,6.4-0.01,8.25"/><path d="M71.32,51.19c6.93-0.69,11.25-1.13,17.29-1.72c1.63-0.16,3.23-0.3,4.86,0.01"/><path d="M70.98,68.63c4.08-0.46,12.42-1.48,21.64-2.46c1.61-0.24,3.23-0.22,4.86,0.05"/></svg>