<svg><path d="M14.5,18.32c0.83,0.38,2.35,0.42,3.19,0.38c5.22-0.26,13.6-1.35,18.89-1.7c1.38-0.09,2.22,0.18,2.91,0.37"/><path d="M11.88,36.14c1.12,0.4,3.16,0.39,4.27,0.32c6.98-0.47,17.62-1.59,25.66-2.28c1.85-0.16,2.97,0.13,3.9,0.32"/><path d="M27.15,37.43c0.48,0.42,0.77,1.89,0.87,2.74c0.1,0.84,0,49.82-0.1,55.08"/><path d="M17.51,49.39c0.5,1.4,0.49,2.12,0.49,3.3c0,8.64-0.98,20.47-8.44,31.53"/><path d="M38.82,45.75c0.65,0.41,1.04,1.86,1.17,2.69c0.13,0.83,0,25.73-0.13,30.89"/><path d="M66.25,31.75c1.61,6.95,4.84,12.07,5.68,6.01"/><path d="M86.62,20.68c0.38,1.06,0.79,1.83,0.28,4.23C83.25,42,70.5,74.5,41.71,92.72"/><path d="M55.68,35.62c0.56,1.16,1.45,2.31,1.65,3.44c5.5,30.85,11.99,45.76,31.13,51.66c10.01,3.08,10.98-0.26,4.35-9.9"/><path d="M51.26,48.57c0.28,3.24-2.77,17.57-4.99,22.98"/><path d="M87.56,45.42c5.05,3.27,11.04,9.96,12.94,16.33"/></svg>