<svg><path d="M16.5,19.89c0.71,0.53,2,0.59,2.71,0.53c4.44-0.36,11.56-1.91,16.06-2.4c1.18-0.13,1.89,0.25,2.48,0.52"/><path d="M10.62,36.59c1.07,0.58,3.03,0.64,4.1,0.58c6.73-0.38,16.98-2.14,24.74-2.76c1.78-0.14,2.85,0.28,3.74,0.57"/><path d="M27.73,37.75c1.01,0.44,0.51,2.17,0.71,3.05c0.2,0.88,0,49.95-0.2,55.45"/><path d="M17.68,48.89c0.57,1.4,0.56,2.12,0.56,3.3c0,8.65-1.13,20.49-9.75,31.56"/><path d="M38.12,48c0.99,0.4,1.59,1.79,1.78,2.59c0.2,0.8,0,24.77-0.2,29.74"/><path d="M51,35.89c0.91,0.38,2.59,0.46,3.5,0.38c5.98-0.52,31.42-3.83,37.05-3.38c1.52,0.12,2.43,0.18,3.2,0.37"/><path d="M64.6,14c0.72,1.16,1.48,1.65,1.39,3.77C65.09,37.37,61.46,64.68,43,85.25"/><path d="M83.75,47.75c0.08,1.12,0.13,3.18-0.17,4.5C80.1,67.77,68.95,84.61,51.5,95.79"/><path d="M60.25,54.25c4.41,7.96,20.31,31.15,30.37,37.78c2,1.32,3.01,2.47,4.63,2.97"/><path d="M76,14.5c4.32,1.76,11.17,7.25,12.25,10"/></svg>