<svg><path d="M21.83,13.62c4.01,2.21,8.31,5.51,11.75,9.38"/><path d="M12.58,36.36c2.19,1.04,4.71,1.24,7.06,0.69c6.11-1.43,13.86-4.06,17.21-5.04c2.67-0.78,4.39,1.2,2.7,3.68C31.5,47.5,22.88,59,11.87,69"/><path d="M29,53.61c0.88,0.88,1.02,2.14,1.02,4.14c0,6.58,0.03,22.39,0.05,31.5c0.01,3.28,0.01,5.69,0.01,6.5"/><path d="M33.62,55c3.48,2.35,7.21,5.88,10.2,10"/><path d="M68.4,14c0.62,1.15,0.87,2.25,0.62,4.32c-2.06,17-11.76,41.91-23.52,57.18"/><path d="M46.75,37.03c3,0.85,6.26,0.62,9.38,0.13c10.37-1.66,25.56-3.65,34.36-4.29c2.55-0.19,5.02-0.31,7.51,0.41"/><path d="M56.5,63.69c0.97,0.97,1.56,2.3,1.79,3.7c0.94,5.64,2.01,13.05,2.79,19.11c0.22,1.71,0.41,3.32,0.58,4.75"/><path d="M58.82,65.81c8.8-1.42,24.11-3.77,29.81-4.27c3.21-0.28,5.02,1.05,4.36,4.36c-1.01,5.03-2.99,12.98-4.14,19.24"/><path d="M62.76,88.45c6.65-0.77,17.36-1.89,24.72-2.57c1.77-0.16,3.35-0.3,4.63-0.4"/></svg>