<svg><path d="M23.62,16c3.74,2.12,7.75,5.29,10.95,9"/><path d="M12.08,40.5c1.8,0.63,3.79,0.72,5.51,0.45C21.12,40.38,31,37.88,35.33,37c2.56-0.52,4.3,1.38,3,3.75C33.25,50,21.38,64.75,11.83,74"/><path d="M28.75,57.36c0.76,0.76,1.27,2.01,1.27,3.39c0,6.63,0.03,20.43,0.05,28.38c0.01,2.77,0.01,4.83,0.01,5.62"/><path d="M32.25,54.88c4.04,2.5,8.36,6.25,11.83,10.62"/><path d="M49.61,22.6c0.83,0.83,1.49,1.77,1.66,2.85c0.55,3.6,1.95,10.18,3.51,18.29c0.28,1.48,0.57,3.01,0.86,4.58"/><path d="M52.18,24.24c6.73-1.36,20.82-3.49,29.72-4.55c2.98-0.35,5.62,0.88,4.52,4.36c-1.72,5.49-3.04,10.69-5.01,17.38"/><path d="M56.27,44.59c8.24-0.96,17.77-1.66,24.49-2.33c0.91-0.09,1.76-0.18,2.55-0.25"/><path d="M62.48,48.01c0.52,0.99,0.58,2.52,0.39,3.92c-1.38,9.94-8.12,27.56-19.76,37.81"/><path d="M72.99,46.25c0.88,0.88,1.1,2.37,1.1,3.85c0,6.32-0.14,22.27-0.14,31.27c0,8.75,2.17,10.08,11.92,10.08c9.13,0,10.4-2.33,10.4-10.71"/></svg>