<svg><path d="M25.83,13.5c3.59,2.41,7.43,6.03,10.5,10.25"/><path d="M11.58,38c2.49,1.11,4.21,1.12,6.73,0.44C25,36.62,32.62,34.5,36.83,33c2.46-0.88,4.69,1.21,3.25,3.5c-5.45,8.63-15.95,21.75-25.75,30.75"/><path d="M29,53.61c0.12,0.29,1.77,1.52,1.77,3.39c0,9.08,0.18,22.85,0.27,31.75c0.02,2.61,0.04,4.85,0.04,6.5"/><path d="M32.58,52.5c3.67,1.82,7.6,4.56,10.75,7.75"/><path d="M53.42,14.46c3.46,2.16,8.95,8.86,9.81,12.22"/><path d="M87.04,12.89c0.07,0.9,0.08,1.6-0.36,2.38C84,20,81.12,23.38,75.63,28.9"/><path d="M51.29,33.73c2.21,0.39,4.53,0.37,6.35,0.14c8.87-1.12,21.44-1.86,28.13-2.36c1.74-0.13,3.5-0.32,5.2,0.18"/><path d="M53.27,50.17c1.98,0.33,3.83,0.27,5.36,0.16c6.85-0.52,18.59-1.69,25.12-1.99c1.72-0.08,3.64-0.29,5.31,0.27"/><path d="M44.28,66.99c2.47,0.63,4.78,0.63,6.97,0.43c10.79-1,26.98-2.34,38-2.78c2.5-0.1,4.75-0.02,7.47,0.36"/><path d="M69.47,34.1c0.84,0.84,0.99,2.02,0.99,3.42c0,4.57-0.08,34.35-0.08,49.97c0,2.38,0,5.62,0,9.25"/></svg>