<svg><path d="M28.5,15.64c2.44,0.78,4.88,0.62,7.38,0.42c8.7-0.7,25.9-2.6,34.5-3.25c2.45-0.19,4.88-0.19,7.25,0.19"/><path d="M24,29.69c0.84,0.55,1.35,1.32,1.51,2.31c1.05,3.12,2.19,8.57,3.04,13.2c0.2,1.06,0.38,2.08,0.54,3.02"/><path d="M26.54,31.03c11.21-1.4,41.58-4.53,55.08-5.32c3.31-0.19,6.16-0.08,5.05,3.95c-0.92,3.33-1.95,6.79-3.64,11.64c-0.37,1.08-0.78,2.22-1.22,3.45"/><path d="M41.37,19c1,1,1.82,2.24,1.96,3.25c0.42,3,1.92,14.12,2.67,21.5"/><path d="M65.12,17c0.63,1.12,0.75,3,0.38,4.75c-0.86,4.03-2.25,11.38-4.5,20.5"/><path d="M30,46.37c12-1,40-3.37,51.45-3.63"/><path d="M38.34,56.34c1.13,0.35,3.21,0.44,4.34,0.35c7.21-0.6,16.2-2.19,23.84-2.52c1.88-0.08,3.02,0.17,3.96,0.34"/><path d="M19.5,70.11c2.01,0.49,5.69,0.67,7.69,0.49c16.69-1.48,38.81-4.1,56.06-5c3.34-0.17,5.35,0.23,7.02,0.48"/><path d="M53.77,70.72c1.07,1.07,1.74,2.41,1.74,4.2C55.51,82,55.5,88.11,55.5,93c0,6.75-3.81,2.81-6.34,0.29"/><path d="M34.3,79.32c0.04,0.37-0.05,1.26-0.33,1.75C32,84.5,26.3,90.14,18.75,94.38"/><path d="M73.9,78.17c5.06,2.48,12.35,9.08,14.6,13.76"/></svg>