<svg><path d="M18.73,18.67c0.91,0.35,2.56,0.39,3.47,0.35c5.68-0.24,9.8-1.27,15.56-1.6c1.51-0.09,2.42,0.17,3.17,0.35"/><path d="M10.87,34.11c1.2,0.41,3.39,0.45,4.59,0.41C23,34.25,34.5,33,43.19,32.55c1.99-0.1,3.19,0.2,4.19,0.4"/><path d="M28.2,36.43c0.96,0.42,1.54,1.89,1.73,2.74c0.19,0.84,0,50.82-0.19,56.08"/><path d="M18.32,48.64c0.44,1.38,0.43,2.09,0.43,3.25c0,8.52-0.86,20.18-7.44,31.08"/><path d="M41.17,45.75c0.95,0.41,1.52,1.86,1.7,2.69c0.19,0.83,0,22.73-0.19,27.89"/><path d="M53.5,18.9c1,0.25,3.06,0.54,4.82,0.34c13.18-1.49,31.34-2.18,32.42-2.49c2.67-0.76,4.01,1.78,4.01,3.05s-0.17,63.26-0.17,69.1c0,9.65-3.67,6.35-6.34,3.3"/><path d="M55.75,36.7c0.98,0.31,2.77,0.4,3.75,0.31c6.23-0.54,16.33-2.49,23.06-2.79c1.63-0.07,2.61,0.15,3.42,0.31"/><path d="M56.4,48.29c0.25,0.36,0.51,0.67,0.62,1.13c0.87,3.62,2.08,13.43,2.67,19.93"/><path d="M57.97,49.53c8.53-1.53,17.88-2.01,21.04-2.52c1.16-0.19,1.85,1.88,1.69,2.99c-0.69,4.55-0.97,7.92-2.44,14.49"/><path d="M59.94,67.01c3.72-0.58,12.31-1.26,20.08-1.95"/></svg>