<svg><path d="M28.58,15c3.33,2.06,6.9,5.15,9.75,8.75"/><path d="M15.08,38c1.01,0.45,2.59,1.2,4.26,0.7c2.05-0.61,17.24-3.45,19.74-4.2s5.02,1.01,3.5,3.25C37.33,45.5,26.08,60.25,17.33,68"/><path d="M31,54.61c0.12,0.29,1.65,1.53,1.77,3.39c0.57,8.93,0.06,33.7,0.06,36.75"/><path d="M33.83,55c3.76,2.18,7.78,5.44,11,9.25"/><path d="M65.03,15.64c0.05,0.8,0.2,2.08-0.09,3.2c-1.79,6.75-7.47,21.54-16.18,30.59"/><path d="M60.98,37.24c1.48,0.08,2.61,0.01,3.54-0.04c12.24-0.69,19.04-2.47,25.34-2.85c1.53-0.09,2.46,0.18,3.23,0.37"/><path d="M71.62,38.69c0.07,0.4,0.99,2.11,1.06,4.67c0.34,12.32-0.22,40.77-0.22,44.97c0,9.52-6.1,1.27-7.37,0.21"/><path d="M57.15,56.38c0.03,0.57,0.07,1.47-0.07,2.28c-0.79,4.82-5.35,15.38-11.6,21.85"/><path d="M84.3,55.81c4.15,4.03,10.72,16.57,11.76,22.84"/></svg>