<svg><path d="M16.23,18.91c0.78,0.45,2.21,0.5,3,0.45c4.9-0.3,12.76-2.1,17.72-2.52c1.3-0.11,2.08,0.21,2.73,0.44"/><path d="M13.25,35.41c1.04,0.38,2.95,0.42,3.99,0.38c6.56-0.25,16.56-1.42,24.11-1.83c1.73-0.1,2.78,0.18,3.64,0.38"/><path d="M27.7,36.43c0.96,0.45,1.54,2.03,1.73,2.93c0.19,0.9,0,52.74-0.19,58.38"/><path d="M17.3,47.64c0.46,1.53,0.45,2.31,0.45,3.61c0,9.45-0.9,22.4-7.75,34.5"/><path d="M38.3,44.75c1.6,0.41,2.56,1.86,2.87,2.69c0.32,0.83,0,25.73-0.32,30.89"/><path d="M49.75,28.34c1.55-0.05,3.51-0.05,4.35-0.09c7.7-0.38,29.43-2.36,38.89-2.68c1.4-0.05,2.24,0.09,2.93,0.19"/><path d="M58.82,15.53c0.85,0.5,1.36,2.24,1.53,3.24c0.17,1,0,46.63-0.17,52.86"/><path d="M80.65,11.5c1.46,0.5,2.34,2.25,2.64,3.25c0.29,1,0,48.72-0.29,54.97"/><path d="M60.75,42.18c3.2-0.19,17.31-1.45,20.3-1.64"/><path d="M61,56.3c3.57-0.14,16.45-1.3,20.61-1.59"/><path d="M48.75,72.02c1.42,0.03,2.83,0.03,3.84,0c5.75-0.19,32.62-2.02,43.15-2.09c1.67-0.01,2.67,0.11,3.51,0.21"/><path d="M62.49,79.5c0.05,0.42,0.12,1.08-0.11,1.68c-1.34,3.54-9.07,11.31-19.63,16.07"/><path d="M77.5,78.75c6.51,3.31,16.81,13.59,18.44,18.73"/></svg>