<svg><path d="M23.58,16.5c2.82,2.06,5.84,5.15,8.25,8.75"/><path d="M12.58,35.5c1.01,0.45,2.59,1.19,4.26,0.7c4.92-1.44,17.24-4.45,19.74-5.2s4.52,1.01,3,3.25C34.33,42,22.08,56.75,13.33,64.5"/><path d="M27,51.61c0.12,0.29,1.65,1.53,1.77,3.39c0.57,8.93,0.06,35.7,0.06,38.75"/><path d="M31.08,51c3.41,1.82,7.07,4.56,10,7.75"/><path d="M48.06,24.4c0.89,0.37,2.53,0.35,3.42,0.37c7.77,0.23,26.4-3.26,34.88-3.26c1.49,0,2.38,0.18,3.12,0.36"/><path d="M49.59,36.45c0.91,0.33,2.57,0.4,3.48,0.33c6.66-0.46,24.6-3.08,31.08-3.4c1.51-0.07,2.42,0.16,3.17,0.33"/><path d="M41.9,49.26c1.19,0.43,3.37,0.51,4.56,0.43c9.79-0.69,33.51-3.44,47.51-4.12c1.98-0.1,3.17,0.2,4.17,0.42"/><path d="M66.51,12.5c0.71,1.43,1.15,2.79,0.84,4.82c-4.1,26.93-10.1,47.93-29.4,69.97"/><path d="M39.63,64.81c1.34,0.67,3.78,0.73,5.15,0.67C56,65,76.79,61.55,93.18,60.53c2.23-0.14,3.58,0.32,4.7,0.65"/><path d="M80.95,49.83c0.07,0.45,1.1,2.33,1.1,5.17c0,19.11,0.21,31.19,0.21,35.84c0,11.27-6.14,2.14-8.06,0.7"/><path d="M58.06,70.12c3.33,1.68,8.61,6.89,9.44,9.5"/></svg>