<svg><path d="M23.33,13.41c4.35,2.14,9.02,5.34,12.75,9.08"/><path d="M14.33,38.25c2.31,1.03,4.51,0.85,6.93,0.28c5.04-1.2,15.08-3.68,17.07-4.28c2.5-0.75,4.02,1.01,2.5,3.25c-5.25,7.75-15.2,22-26.25,32.25"/><path d="M29.25,55.86c0.94,0.94,1.27,2.02,1.27,3.89c0,8.14,0.03,22.5,0.04,31c0.01,3.51,0.01,6.11,0.01,7"/><path d="M33.49,53.91c3.78,2.45,7.84,6.13,11.08,10.42"/><path d="M66.33,11.63c1.27,1.27,1.49,2.37,1.49,4.12c0,0.98,0.05,16,0.05,20.63"/><path d="M70.8,25.25C75,24.62,83.5,23,86.94,22.5c1.56-0.23,2.37,0,3.55,0"/><path d="M52.91,38.01c0.85,0.85,1.1,1.94,1.1,3.27c0,1.07,0.06,20.8,0.09,32.84c0.01,2.92,0.01,5.4,0.01,7.04"/><path d="M54.92,39.32c2.73-0.26,21.59-2.49,27.98-3.24c3.45-0.41,5.52-0.25,5.53,3.55c0.01,5.58,0.03,23.09,0.04,32.5c0,3.51,0.01,5.89,0.01,6.11"/><path d="M55.07,51.92c9.93-1.04,24.81-2.17,32.31-2.42"/><path d="M55.07,64.52c10.18-0.77,20.8-1.52,32.12-1.98"/><path d="M55.17,77.79c8.77-0.91,24.02-1.3,32.02-1.63"/><path d="M62.36,84.53c0,1.09-0.43,2.12-1.37,2.97c-2.84,2.58-10.22,7.53-15.9,10.68"/><path d="M79.15,83.54c5.98,3.38,13.05,9.67,14.69,12.77"/></svg>