<svg><path d="M25.06,15.25c2.88,2,5.97,5,8.45,8.5"/><path d="M14.83,37.75c1.98,1.15,4.38,0.6,6.43,0.05c3.69-0.98,14.64-3.85,16.81-4.55c2.36-0.75,4.23,1.01,2.8,3.25C35.92,44.25,27,57,15.5,68.75"/><path d="M31.21,52.61c0.84,0.84,1.42,2.52,1.42,4.39c0,8.54,0.03,22.54,0.04,30.87c0,2.65,0.01,4.73,0.01,5.87"/><path d="M34.62,52c3.14,2.23,6.51,5.58,9.2,9.5"/><path d="M50.75,17.89c2.25,0.49,4.56,0.33,6.49,0.12c6.83-0.73,20.56-2.12,28.02-2.52c2.02-0.11,4.01-0.21,5.99,0.27"/><path d="M54.03,30.87c0.64,0.51,1.02,1.16,1.15,1.95c0.88,2.95,1.83,8.4,2.55,13.04c0.17,1.1,0.32,2.15,0.46,3.11"/><path d="M56.11,32.43c7.3-1.16,21.71-3.08,27.78-3.74c2.79-0.3,4.24,1.31,3.77,3.22c-0.83,3.39-1.35,6.83-3.15,11.97"/><path d="M58.52,46.93c4.09-0.41,16.79-1.56,24.62-2.22c1.64-0.14,3.07-0.26,4.16-0.34"/><path d="M50.61,60.29c0.92,0.92,1.36,2.14,1.58,3.47c0.95,5.74,1.65,15.66,2.25,24.61c0.12,1.85,0.25,3.66,0.36,5.38"/><path d="M52.49,62.45c12.33-1.78,27.58-3.55,36.02-4.29c3.74-0.33,6.73,0.05,6.18,4.48c-0.67,5.49-2.25,15.99-3.87,24.86c-0.28,1.52-0.55,2.99-0.83,4.38"/><path d="M71.14,62.28c0.85,0.85,1.21,2.11,1.21,3.72c0,8.12,0.19,18.12,0.19,22.88"/><path d="M54.58,76.19c6.04-0.81,31.92-3.31,37.96-3.55"/><path d="M55.6,91.18c9.41-0.91,27.15-2.68,33.74-2.76"/></svg>