<svg><path d="M17.66,26.85c0.7,0.17,2.82,0.4,4.69,0.25c6.56-0.52,13.28-1.6,20.36-2.47c1.86-0.23,3.28-0.27,4.45-0.09"/><path d="M34.57,13.38c0.9,0.9,1.36,2.12,1.36,3.24c0,6.41,0.01,20.05,0.01,28.01c0,2.14,0,3.87,0,4.94"/><path d="M34.74,27.47c0,1.16-0.49,2.01-1.13,3.1c-3.85,6.46-11.04,14.52-16.62,18.74"/><path d="M39.75,32.25c2.79,1.66,6.28,4.76,8.72,7.37"/><path d="M54.02,24.35c2.12,0.64,3.96,0.4,6.14,0.11c6.22-0.84,14.87-1.98,23.16-2.66c1.52-0.12,2.84-0.17,3.79,0"/><path d="M68.56,10.5c0.97,0.97,1.61,2.38,1.61,3.74c0,4.4,0,20.66-0.12,29.26c-0.03,2.19-0.07,3.88-0.12,4.75"/><path d="M68.99,24.9c0,0.97-0.66,2.13-1.13,3.03c-3.3,6.42-10.83,15.35-17.72,20.96"/><path d="M70.59,26.41c6.04,5.78,12.73,12.17,17.6,16.07c1.65,1.32,3.35,2.65,5.35,3.43"/><path d="M37.78,55.56c1.84,0.44,3.87,0.26,5.72,0.06c5.35-0.58,13.67-1.58,18.88-1.87c1.72-0.1,3.42-0.14,5.11,0.23"/><path d="M19.28,68.91c3.22,0.71,7.38,0.52,10.71,0.19c12.5-1.23,34.67-3.03,49.89-3.66c3.29-0.13,6.58-0.34,9.83,0.28"/><path d="M53.52,69.69c1.02,1.02,1.51,2.43,1.51,4.2c0,7.11-0.01,14.21-0.01,18.65c0,9.45-3.77,4.39-7.96,1.22"/><path d="M33.27,77.85c0.13,1.06,0,2.09-0.57,2.99C30,85.12,25,89.75,18.5,94.99"/><path d="M72.5,78.1c4.42,2.76,11.64,11.03,12.75,15.33"/></svg>