<svg><path d="M67.02,10.5c0.11,0.35,0.23,0.91-0.22,1.42c-2.68,2.99-18.03,9.56-39.05,13.58"/><path d="M15.75,33.52c0.76,0.23,3.79,0.84,5.81,0.69c9.09-0.69,48.23-3.97,63.63-4.61c2.02-0.08,4.54,0.27,5.81,0.5"/><path d="M52.72,21.5c0.89,0.46,1.42,2.05,1.6,2.97c0.18,0.91,0,24.58-0.18,30.28"/><path d="M50.25,32.18C44,42.75,30.5,54.75,12.25,59.75"/><path d="M54.25,31.96c5.22,3.3,29.08,18.91,34.76,22.16c1.92,1.1,3.57,1.57,5.49,1.89"/><path d="M42,59c0.75,1,0.85,2.84,0.87,4.18C43,73.25,38.5,92.25,18.92,98.42"/><path d="M61.99,58.37c1.51,0.63,1.6,2.63,1.64,4.48c0.17,8.29-0.44,16.35-0.44,21.99c0,10.65,4.06,11.68,14.6,11.68c11.47,0,15.6-1.78,15.6-9.24"/></svg>