<svg><path d="M16.61,16.05c0.71,0.36,2.02,0.4,2.73,0.36c4.47-0.25,11.65-1.3,16.18-1.64c1.19-0.09,1.9,0.17,2.5,0.35"/><path d="M11.65,34.15c1.09,0.19,3.05,0.1,4.13,0c6.75-0.58,17.01-2,24.78-2.76c1.78-0.17,2.87-0.05,3.77,0.02"/><path d="M27.85,34.93c0.48,0.44,0.77,1.97,0.87,2.85c0.1,0.88,0,51.24-0.1,56.72"/><path d="M18.75,46.25c0.45,1.55,0.44,2.35,0.44,3.66c0,9.6-0.88,22.76-7.63,35.05"/><path d="M36.95,43.25c0.95,0.46,1.52,2.05,1.71,2.97c0.19,0.91,0,28.41-0.19,34.11"/><path d="M51.06,18.71c1.1,0.37,3.12,0.43,4.23,0.37c9.47-0.5,20.97-2.21,30.85-3.05c1.82-0.15,2.94,0.18,3.86,0.36"/><path d="M67.68,10c0.66,0.34,1.06,1.54,1.19,2.23c0.13,0.69,0.38,9.78,0.25,14.07"/><path d="M54.48,27.52c0.84,0.25,2.37,0.3,3.2,0.25c6.57-0.37,17.07-2.33,24.71-2.75c1.39-0.08,2.23,0.12,2.93,0.25"/><path d="M42.87,37.94c1.14,0.5,3.42,1.07,5.48,0.64c12.4-2.59,34.4-5.53,42.49-5.94c9.11-0.46,2.31,6.54,0.04,8.61"/><path d="M51.05,43.78c0.66,0.38,2.82,0.42,3.5,0.38c6.94-0.33,20.9-2.44,26.15-2.83c1.02-0.08,1.96,0.08,2.8,0.39"/><path d="M68.09,43.62c0.37,0.61,0.37,0.97,0.37,1.46c0,3.4-0.01,2.02-0.01,7.84"/><path d="M49.64,54.07c0.62,0.28,2.82,0.48,3.87,0.44c9.74-0.38,18.62-2.42,28.88-2.84c1.68-0.07,3.61-0.24,5.11-0.09"/><path d="M44,65.07c1.28,0.59,3.64,0.25,4.93,0.13c8.19-0.81,33.08-4.59,45.07-4.73c2.14-0.03,3.43,0.28,4.5,0.58"/><path d="M45.79,74.28c0.25,0.28,0.51,0.52,0.62,0.87c0.87,2.79,1.91,9.02,2.5,14.03"/><path d="M47.35,76.17c5.13-1.46,12.37-3.07,15.31-3.43c1.07-0.13,1.72,0.79,1.56,1.58c-0.64,3.26-1.38,6.71-2.32,11.22"/><path d="M49.03,87.71c3.45-0.42,9.71-1.13,14.44-1.77"/><path d="M70.24,74.68c0.84,0.48,2.37,0.55,3.23,0.48c6.03-0.45,17.28-2.41,22.92-3.06c1.39-0.16,2.24-0.26,2.94-0.02"/><path d="M87.73,65.95c0.05,0.39,0.74,2.02,0.74,4.49c0,16.59-0.15,19.25-0.15,23.29c0,9.79-4.44,1.45-5.74,0.2"/><path d="M73.34,80.63c1.87,1.19,4.84,4.89,5.31,6.74"/></svg>