<svg><path d="M26.77,15.42c0.38,0.54,0.38,0.9,0.58,1.57c1.67,5.48,3.67,20.17,4.65,30.27"/><path d="M28.53,16.75c13.26-0.55,37.48-2.98,47.38-3.52c3.64-0.2,5.58,0.52,5.29,3.86c-0.48,5.41-2.2,16.66-4.35,27.23"/><path d="M30.4,30.81c4.32-0.27,45.26-2.86,48.82-2.86"/><path d="M32.2,44.83c13.55-1.33,31.59-2.22,44.77-2.37"/><path d="M20.78,56.39c0.72,0.86,2.45,2.57,2.61,3.8C24.25,66.75,28,92.25,28.98,99"/><path d="M23.35,59.79c8.65-0.96,58.1-4.96,59.8-5.3c3.64-0.72,6.05,1.76,5.92,3.88C88.75,63.5,85,85.5,82.13,92c-3.58,8.12-4.88,5-8.1-0.06"/><path d="M52.44,16.59C53,17.5,53.89,18.4,53.88,20c-0.01,7.03,0.24,50.84,0.24,53"/><path d="M38,77.25c1.5,1.25,3.17,1.94,4.5,1.5C46.25,77.5,61.15,72.25,69,70"/><path d="M64.77,63.33c3.02,2.71,7.79,11.16,8.54,15.38"/></svg>