<svg><path d="M 52.75,9 c 0.11,0.85 -0.1,2.27 -0.72,3.41 C 48,19.75 33.25,35.5 12,44.75"/><path d="M 53.38,13 c 5.38,4.88 21,15.75 30.04,22.24 3.29,2.37 6.7,4.64 10.58,5.76"/><path d="M 52.97,25 c 0.83,0.83 1.04,2.02 1.04,2.75 0,2.67 -0.01,4.88 -0.01,7.5"/><path d="M 32.75,37.45 c 2.66,0.52 5.44,0.35 8.11,0.06 C 49,36.62 60.09,35.69 68,35.19 c 2.52,-0.22 5.02,-0.1 7.5,0.36"/><path d="M 62.8,38.93 c -0.08,1.18 -0.43,2.23 -1.21,3.02 C 55.62,48 48.5,53 39.34,56.19"/><path d="M 42.39,43.09 C 50.5,44.7 62.16,49.7 66.4,53.54"/><path d="M 32.32,43.22 c 0.85,0.85 0.74,1.74 0.62,2.86 -0.5,4.53 -1,8.76 -1.27,10.93 -0.28,2.34 0.71,3.99 3.22,3.77 C 48.12,59.62 61,58.49 75,58.25"/><path d="M 76.31,39.74 c 0.72,0.72 0.66,1.63 0.66,2.5 0,0.29 -0.27,6.82 -0.5,13.12 -0.07,1.92 -0.14,3.82 -0.2,5.52"/><path d="M 24.77,67.95 c 1.08,1.08 1.29,2.71 1.41,3.65 0.44,3.56 1.13,12.68 1.74,21.03 0.18,2.5 0.36,4.93 0.51,7.12"/><path d="M 26.89,70.54 c 7.97,-0.5 44.64,-3.2 53,-3.89 4.61,-0.38 6.57,0.9 5.86,5.75 -0.9,6.2 -3.37,17.35 -5.4,23.01 -2.38,6.64 -4.56,3.82 -7.57,-0.05"/><path d="M 53.63,62 c -0.13,1.38 -0.57,2.21 -1.13,3.2 -1.848221,5.99726 -3.36499,10.535808 -4.993047,15.264519"/><path d="M 43.29,82.84 C 50,81.5 56,80.38 65.75,78.62"/><path d="M 61.54,71.34 c 3.72,2.36 9.12,9.96 10.05,13.63"/></svg>