<svg><path d="M65.04,8.25c0,1-0.88,1.88-1.61,2.44c-4.86,3.75-14.4,7.94-30.18,9.82"/><path d="M21.75,31.87c2.46,0.82,6.23,0.13,8.76-0.15c11.52-1.31,34.14-3.24,46-4.25c2.28-0.19,4.74-0.27,6.99,0.18"/><path d="M52.97,19.66c0.87,0.87,1.1,1.84,1.1,3.1c0,0.69-0.06,12.62-0.06,21.24c0,2.58,0.04,4.86-0.01,6.13"/><path d="M46.25,30.78c0,0.97-0.67,2.18-1.59,3.51C38.73,42.83,30.8,50.74,18.25,57.1"/><path d="M58.25,30.31c3.61,2.6,16.46,12.23,24.58,18.01c3.37,2.4,6.29,3.93,9.92,5.49"/><path d="M47.81,60.14c0.19,0.98,0.16,1.92-0.27,3.08c-3.29,8.9-10.66,20.9-25.96,31.38"/><path d="M28.91,58.69c2.25,0.78,4.93,0.54,7.24,0.19c10.61-1.62,24.68-4.3,33.25-5.9c3.23-0.6,3.73,1.27,2.28,3.26C56.73,76.74,55,74.5,75.57,70.68c2.84-0.53,4.43,1.2,3.29,3.76c-3.54,7.93-7.48,15.31-14.47,22.13c-4,3.9-6.68,1.5-8.16-0.6"/></svg>