<svg><path d="M39.62,15.38c-0.12,1.25-0.96,2.35-1.7,2.99c-5.2,4.45-12.22,8.98-23.42,13.39"/><path d="M8.74,43.6c0.75,0.21,2.75,0.47,4.74,0.37c7.21-0.34,16.66-1.97,27.75-3.64c1.97-0.3,3-0.46,4.24-0.25"/><path d="M29.08,28.16c1.01,1.01,1.42,2.59,1.42,4.09c0,6.99-0.05,40.67-0.05,55.5c0,2.25-0.03,4.04-0.04,5"/><path d="M29.43,42.97c0,1.53-0.82,3.59-1.12,4.4c-3.6,9.6-8.94,20.27-16.31,27.88"/><path d="M34,52c3.3,1.92,6.1,5.77,7.88,8.25"/><path d="M51,41c1.92,2.82,4.72,10.81,5.25,13.62"/><path d="M87,35.75c0.25,1.38-0.09,2.6-0.94,4.18c-1.52,2.81-5.43,9.2-9.56,13.07"/><path d="M66.46,16.75c1.17,1.12,1.83,2.7,1.86,3.92C69.38,59.88,62,78.5,41.75,91.5"/><path d="M67.32,55.54c6.72,12.87,16.04,24.3,22.59,30.72c1.95,1.91,3.71,3.68,6.34,4.48"/></svg>