<svg><path d="M43,12.75c-0.12,1-0.61,1.87-1.27,2.56c-3.07,3.27-13.91,8.58-26.61,12.44"/><path d="M13.37,42.85c2.26,0.4,5.11-0.01,6.67-0.19c6.53-0.78,17.81-2.81,24.6-3.87c1.39-0.22,3.43-0.43,4.84,0.04"/><path d="M33.33,23.91c0.7,0.7,1.16,2.22,1.16,3.2c0.06,0.79,0.02,43.22-0.03,62.02c-0.01,4.47-0.03,7.63-0.04,8.62"/><path d="M33.43,41.47c0,1.53-0.3,2.63-0.72,3.62c-4.52,10.68-11.6,23.18-20.96,31.66"/><path d="M37.25,50.75c3.56,2.33,6.58,7,8.5,10"/><path d="M72.11,15.25c1.01,1.01,1.46,2.25,1.46,3.96c0,10.67-0.2,33.54-0.2,37.04c0,8.5-5.53,0.51-6.69-0.33"/><path d="M61.7,33.69c0.03,0.45,0.13,1.18-0.07,1.81c-1.4,4.49-6.41,12.65-11.21,16.79"/><path d="M86.68,30.98c4.47,2.95,10.46,10.53,11.57,15.12"/><path d="M86.55,48.47c0.1,1.15,0.07,2.99-0.46,4.61c-4.46,13.67-19.71,33.54-37.61,43.67"/></svg>