<svg><path d="M40.25,15c0,0.75-0.5,1.82-1.25,2.48c-4.25,3.77-11.25,8.27-23.5,14.02"/><path d="M13.12,45.1c2.51,0.28,3.96,0.29,5.86-0.01c6.24-1,18.56-3.66,24.8-4.75c1.02-0.18,2.23-0.34,3.46-0.26"/><path d="M32.83,27.16c1.2,1.2,1.41,2.84,1.41,4.69c0,4.26,0,38.49-0.04,55.15c-0.01,4.45-0.02,7.66-0.04,8.75"/><path d="M33.68,43.72c0,1.66-0.75,3.66-1.39,5.15c-4.17,9.76-10.42,18.51-17.54,26.64"/><path d="M36.5,51.25c3.56,2.45,6.58,7.35,8.5,10.5"/><path d="M61.04,24.5c2.33,5.88,5.74,9.83,6.65,4.34"/><path d="M81.96,22.67c0.54,1.08,0.65,2.25,0.29,4.62c-2.5,16.46-12,51.83-35.57,66.67"/><path d="M57.95,38.47C62.75,70.88,70.04,86.2,89,90.94c6.99,1.75,8.75-0.44,2.46-10.3"/><path d="M53.12,55.62c0.29,2.69-2.89,14.59-5.2,19.08"/><path d="M89.44,48.68c3.15,3.14,6.88,9.57,8.06,15.69"/></svg>