<svg><path d="M40.25,15.75c-0.13,0.88-0.45,1.9-1.33,2.55c-4.04,2.95-10.54,6.95-22.17,11.45"/><path d="M12.87,42.58c2.13,0.67,4.49,0.51,6.14,0.34c5.59-0.55,17.84-2.04,24.04-2.9c1.13-0.16,2.71-0.28,4.19-0.09"/><path d="M32.08,26.66c1.13,1.13,1.41,2.34,1.41,4.19c0,4.25,0,37.59-0.03,54.4c-0.01,4.58-0.02,7.89-0.04,9"/><path d="M32.68,42.97c0,1.78-0.91,4.4-1.87,6.43C25.88,59.87,18.7,70.91,9.5,79"/><path d="M36.75,52.25c3.56,2.04,6.58,6.12,8.5,8.75"/><path d="M54.52,24.98c1,1,1.41,2.14,1.41,3.65c0,0.98,0.43,57.8,0.35,59.92"/><path d="M56.81,26.81c6.06-0.81,22.2-2.82,23.86-2.99c2.98-0.29,4.49,1.17,4.49,4.71c0,3.83-0.03,40.33-0.03,57.15"/><path d="M57.14,46.6c7.62-0.95,20.08-2.31,26.78-2.6"/><path d="M57.59,65.95c5.95-0.34,19.22-1.92,26.1-1.96"/><path d="M43.04,89.34c2.96,0.53,5.97,0.59,8.71,0.41c11.47-0.75,28.29-2.4,39.75-2.7c2.71-0.07,5.46,0.05,8.13,0.59"/></svg>