<svg><path d="M41.5,13.75c0.15,1.14-0.46,2.36-1.32,3.14C37.23,20.43,29.51,26,18.75,29.75"/><path d="M11.07,41.45c0.77,0.23,2.84,0.53,4.9,0.43c7.51-0.38,19.55-2.63,28.91-3.78c2.04-0.25,3.08-0.23,4.37,0"/><path d="M34.64,25.62c1.12,1.12,1.51,2.38,1.51,4.08c0.1,1.06,0.03,43.06-0.06,59.54c-0.02,3-0.03,5.13-0.05,6"/><path d="M35.53,41.63c0,1.62-1.18,4.33-1.89,5.8c-5.39,11.24-15.02,24.53-22.39,32.19"/><path d="M38.25,46.75c3.46,1.67,8.94,6.87,9.81,9.47"/><path d="M59.5,21.5c3.18,1.5,8.2,6.17,9,8.5"/><path d="M56.25,41.25c3.62,1.23,9.34,5.08,10.25,7"/><path d="M45.88,64.25c1.53,0.5,3.58,0.8,6.14,0.5c11.73-1.38,26.73-4.5,41.16-5.5c2.58-0.18,4.45-0.25,6.07,0"/><path d="M77.87,13.25c1.13,1.13,1.96,3,1.96,4.75c0,0.87,0.05,53.4-0.12,73.5c-0.03,3.57-0.06,6.06-0.1,7"/></svg>