<svg><path d="M39.75,17c0.08,0.35,0.16,0.91-0.16,1.42C37.7,21.41,26.85,27.98,12,32"/><path d="M10.37,45.65c0.36,0.13,1.33,0.35,2.29,0.4c2.65,0.13,24.39-1.99,31.03-2.65c0.96-0.1,1.21-0.13,1.81,0"/><path d="M30.89,28.41c0.43,0.43,0.69,1.93,0.78,2.78c0.09,0.86,0,59.71-0.09,65.06"/><path d="M31.5,47C27.14,57.73,19.87,70.97,10,79.75"/><path d="M33.25,50.75c4.3,2.74,7.94,8.22,10.25,11.75"/><path d="M47.68,34.57c1.21,0.34,3.42,0.4,4.63,0.34c6.11-0.31,29.86-2.66,36.96-2.81c2.01-0.04,3.22,0.16,4.23,0.33"/><path d="M49.67,54.49c0.83,0.19,3.06,0.22,5.28,0.19c12.65-0.22,20.66-1.82,31.51-2.15c2.22-0.07,2.78-0.19,4.17,0"/><path d="M65.94,13.25c0.92,0.47,1.46,2.11,1.65,3.05c0.18,0.94,0,74.84-0.18,80.7"/><path d="M68,54.25c-5.2,10.73-18.7,25.92-29.5,32"/><path d="M68,54.25c3.85,4.22,20.76,24.19,24.94,28.34C94.36,83.99,95.58,84.6,97,85"/></svg>