<svg><path d="M38.5,16c0,1.25-0.53,2.14-1.38,2.79c-5,3.84-13.37,7.46-23.12,10.96"/><path d="M10.37,42.83c2.13,0.67,5.24,0.63,7.05,0.25c5.6-1.17,17.36-4.43,23.58-5.7c1.13-0.23,2.87-0.38,3.98-0.2"/><path d="M30.33,26.91c1.13,1.13,1.41,2.59,1.41,3.94c0,0.67,0.02,37-0.03,53.4c-0.01,3.8-0.03,6.53-0.04,7.5"/><path d="M30.68,41.97c0,1.28-0.33,3.05-0.94,4.63C25.94,56.49,21,67.5,13,75.25"/><path d="M34,46.25c2.94,1.4,5.42,4.2,7,6"/><path d="M55.37,25.58c0.06,1.1-0.04,1.99-0.33,3.06c-1.42,5.17-4.5,11.55-9.4,17.81"/><path d="M54.66,38.49c1.34,0.26,2.66,0.32,3.72,0.19c8.12-1.05,15.33-2.86,22.49-4.1c1.08-0.19,3.75-0.6,4.3-0.45"/><path d="M42.57,58.58c2.67,0.28,4.92,0.34,7.58-0.03c9.3-1.3,28.24-4.31,36.1-4.9c2.05-0.15,4.78-0.4,6.76,0.26"/><path d="M65.9,14c0.92,0.92,1.07,2.13,1.11,3.89C68.12,64.12,64.25,76.5,41.5,92.5"/><path d="M66.64,58.38c7.48,10.88,14.06,20.15,20.83,26.78c2.13,2.09,3.65,3.72,6.03,5.37"/></svg>