<svg><path d="M39.75,16.75c0.07,0.3,0.14,0.77-0.13,1.21c-1.6,2.54-10.79,8.13-23.37,11.54"/><path d="M15.37,45.92c0.47,0.12,1.72,0.3,2.97,0.35c3.44,0.12,15.93-2.22,24.54-2.8c1.25-0.08,1.56-0.11,2.35,0"/><path d="M31.83,27.5c0.37,0.43,0.58,1.92,0.66,2.78c0.07,0.85,0,60.63-0.07,65.97"/><path d="M32.25,50C28.15,60.08,21.29,72.51,12,80.75"/><path d="M35,53.75c4.3,2.51,7.94,7.53,10.25,10.75"/><path d="M52.54,22.76c0.97,0.44,1.56,1.97,1.75,2.85c0.2,0.88,0,61.51-0.2,67"/><path d="M 46.878524,22 C 53.568524,24.15 78.42,22.51 86.3,21.68 c 2.33,-0.25 3.78,-0.15 4.96,0.02"/><path d="M55,45.83c15.27-1.56,17.72-1.56,28.33-2.4c2.6-0.21,4.02,1.42,3.46,4.07c-0.88,4.19-1.92,11.52-3.02,16.5"/><path d="M54.4,67.29c4.67-0.22,20.19-1.74,27.6-2.16c1.84-0.1,3.89,0.33,4.98,0.32"/><path d="M42.26,93.01c2.67,0.15,3.74,0.43,6.16,0.16c8.22-0.91,28.19-2.44,43.84-2.99c2.85-0.1,4.57,0.29,5.99,0.53"/></svg>