<svg><path d="M39.99,14.75c0.07,0.34,0.15,0.87-0.15,1.35c-1.79,2.84-12.05,9.08-26.09,12.9"/><path d="M12.6,44.12c0.38,0.12,1.4,0.33,2.41,0.37c2.79,0.12,21.11-1.41,28.09-2.03c1.01-0.09,1.27-0.12,1.9,0"/><path d="M30.33,27.25c0.37,0.45,0.58,2.01,0.66,2.91c0.07,0.9,0,61.99-0.07,67.59"/><path d="M30.75,46.25C26.54,57.06,19.52,70.4,10,79.25"/><path d="M32.25,52.5c4.72,2.68,8.71,8.05,11.25,11.5"/><path d="M46.75,35.75c1,0.3,2.84,0.36,3.84,0.3c6.56-0.41,34.47-2.98,40.65-2.63c1.67,0.09,2.67,0.14,3.51,0.29"/><path d="M63.59,11.75c0.85,1.29,1.26,1.84,1.14,4.2C63.67,37.83,58.5,76,38.5,90.75"/><path d="M84.5,45.25c0.1,1.18,0.15,3.34-0.21,4.74C80.06,66.31,69.25,86.5,46.25,95.29"/><path d="M61,49.25c4.34,8.84,20.02,34.59,29.93,41.95c1.97,1.46,2.97,2.75,4.57,3.3"/><path d="M76.27,14.08c3.79,1.84,9.79,7.56,10.73,10.42"/></svg>