<svg><path d="M40.25,15.25c0.13,0.74-0.32,1.62-0.74,2.19C37.28,20.54,28.93,26.35,17.75,30"/><path d="M13.62,42.85c2.38,0.4,4.07,0.4,6.02,0.21c9.24-0.93,16.12-2.05,22.99-3.18c1.05-0.17,2.63-0.37,3.86-0.3"/><path d="M33.08,26.66c0.82,0.82,1.16,2.31,1.16,3.51c0,1.03-0.05,43.66-0.07,60.83c0,2.95,0,5.14,0,6.25"/><path d="M33.43,42.22c0,1.53-0.65,3.05-1.01,3.97C28.75,55.66,22.75,65.91,15,75.25"/><path d="M37.38,52.5c3.51,1.88,6.48,5.09,8.38,7.5"/><path d="M68.5,12.42c0.53,0.88,0.22,1.95-0.14,2.88C66.8,19.3,61.25,28.12,53.1,34.07"/><path d="M69.04,20.99c1.1,0.09,2.26-0.06,3.34-0.22c2.92-0.43,7.84-1.86,10.86-2.77c2.41-0.73,3.38,0.88,2.75,2.57c-3.07,8.1-18.87,27.92-34.32,32.28"/><path d="M61.38,31.5c2.12,1.3,5.57,5.42,6.17,7.5"/><path d="M74.42,45c0.45,1.25,0.09,2.39-0.4,3.33c-3.41,6.5-10.38,15.8-23.9,24.27"/><path d="M74.33,54.44c0.29,0.03,1.51-0.02,2.33-0.12c2.68-0.32,9.43-1.33,12.96-2.45c2.99-0.95,4.23,0.88,2.48,3.92C82.12,73.12,67.25,89.38,47.25,98"/><path d="M64,66.5c2.8,1.73,7.33,7.22,8.12,10"/></svg>