<svg><path d="M39.24,14.5c-0.12,1-0.37,1.73-1.16,2.46C34.72,20.05,25.35,24.69,12.75,28"/><path d="M9.12,42.85c1.02,0.57,3.9,0.18,5.02,0.09c4.77-0.4,16.86-3.06,24.49-4.81c1.02-0.23,2.62-0.38,4.1-0.3"/><path d="M29.33,25.66c0.88,0.88,1.66,2.72,1.66,3.94c0,0.68,0.02,41.47-0.03,59.4c-0.01,3.99-0.03,6.81-0.04,7.75"/><path d="M28.93,41.47c0,1.66-0.57,3.52-1.17,5.13c-3.5,9.4-8.27,20.78-15.02,28.65"/><path d="M33.5,47.38c3.88,2.42,7.16,7.26,9.25,10.38"/><path d="M51.75,18.62c3.12,2.71,8.07,11.13,8.85,15.34"/><path d="M80.53,13.46c0.06,1.07,0.01,2.07-0.31,3.11C78.88,21,76.27,26.93,71.73,33.4"/><path d="M50.37,38.99c0.88,0.88,1.49,2.41,1.55,3.63c0.56,3.39,1.29,8.97,1.91,13.87c0.2,1.59,0.41,2.89,0.62,4.33"/><path d="M52.57,40.7c8.45-1.59,19.02-3.11,26.32-4.02c3.2-0.4,5.4,1.22,4.66,4.74c-0.92,4.37-2.12,9.1-3.3,14.56"/><path d="M54.88,58.69c5.13-0.33,15.04-1.29,22.91-1.95c1.21-0.1,2.38-0.2,3.47-0.28"/><path d="M60.24,64.21c0.26,0.91,0.11,2.03-0.11,3.02c-1.31,5.84-7.76,19.14-19.06,26.01"/><path d="M73.1,60c0.83,0.83,1.36,2.5,1.36,3.92c0,5.03,0,12.71,0,19.1c0,10.68,1.58,12.03,12.27,12.03c9.86,0,11.59-2.21,11.59-9.31"/></svg>