<svg><path d="M38,12.5c0,1.12-0.32,2.27-1.14,3.08c-3.24,3.17-9.64,8.14-20.36,13.67"/><path d="M10.37,43.85c1.76,0.28,4.09,0.08,5.27-0.03c6.59-0.58,21.68-2.59,28.24-3.56c1.2-0.18,2.62-0.39,3.85-0.19"/><path d="M32.19,24.16c1.02,1.02,1.42,2.36,1.42,3.79c0,1.21-0.17,46.28-0.22,64.31c-0.01,3.26-0.02,4.19-0.02,5.37"/><path d="M32.43,42.97c0,1.28-0.97,4.21-1.68,5.74c-4.5,9.66-9.24,18.72-19.5,30.29"/><path d="M37.25,50.75c3.98,2.57,7.35,7.7,9.5,11"/><path d="M52.26,19.41c0.97,0.97,1.71,2.41,1.8,3.69c0.87,3.74,1.68,10.23,2.6,16.87c0.19,1.33,0.39,2.7,0.61,4.09"/><path d="M54.81,21.06c9.63-1.1,24.46-2.49,30.7-3.15c2.87-0.3,4.62,1.1,3.94,4.1c-0.99,4.4-1.57,5.84-3.35,15.32"/><path d="M57.93,40.63c5.17-0.55,18.17-1.54,26.6-2.3c1.47-0.13,2.82-0.25,3.96-0.35"/><path d="M55.26,55.61c1.62,0.26,4.34,0.03,5.76-0.13c5.04-0.55,15.76-1.7,23.61-2.32c1.87-0.15,3.74-0.29,5.57,0.14"/><path d="M71.4,56.65c0.79,0.79,1.33,2.05,1.33,3.07c0,7.16,0,22.41,0,30.72"/><path d="M54.46,73.12c1.89,0.42,3.86,0.21,5.78,0.04c7.69-0.68,16.83-2.26,25.64-2.94c1.64-0.13,3.54-0.33,5.12,0.12"/><path d="M45.75,92.99c2.62,0.51,5.33,0.32,7.51,0.12c17.36-1.62,27.86-2.48,40.24-2.67c2.42-0.04,5.37,0.06,7.24,0.74"/></svg>