<svg><path d="M40.01,13.75c0.07,0.34,0.16,0.87-0.15,1.35C38.06,17.94,27.69,24.18,13.5,28"/><path d="M10.87,43.93c0.53,0.15,1.94,0.39,3.36,0.45c3.88,0.15,21.15-2.24,30.86-2.99c1.41-0.11,1.76-0.15,2.65,0"/><path d="M31.83,24c0.37,0.45,0.58,2.01,0.66,2.91c0.07,0.9,0,63.49-0.07,69.09"/><path d="M32.5,44.75c-4.66,11.63-12.44,25.99-23,35.5"/><path d="M35.5,50.25c3.88,2.27,7.16,6.83,9.25,9.75"/><path d="M53.49,16.02c0.27,0.47,0.27,0.8,0.42,1.4c1.21,4.91,1.82,17.33,2.57,26.49"/><path d="M54.22,17.25c8.16-0.98,24.71-2.15,30.8-2.97c2.24-0.3,2.69,1.73,2.58,2.8c-0.42,3.92-2.15,18.48-3.17,25.04"/><path d="M55.81,28.75c2.62-0.38,26.65-2.18,30.17-1.87"/><path d="M57.18,41.12c7.48-1.07,19.33-1.18,27.36-1.86"/><path d="M53.5,53.9c0.71,0.38,3.15,0.41,3.86,0.34c4.9-0.45,21.54-1.52,29.9-2.26c1.18-0.1,3.65,0.33,4.24,0.52"/><path d="M44.99,70.39c1.47,0.35,4.19,0.51,5.65,0.39c15.11-1.29,28.14-2.74,44.23-2.88c2.46-0.02,3.93,0.2,5.15,0.38"/><path d="M70.33,55.22c0.42,0.48,1.38,1.97,1.38,4.53c0,0.96-0.05,33.02-0.14,39"/></svg>