<svg><path d="M38.25,14.25c0.07,0.39,0.15,1-0.14,1.56C36.42,19.1,26.74,26.33,13.5,30.75"/><path d="M10.12,45.39c0.36,0.21,1.34,0.56,2.31,0.64c2.67,0.21,24.55-3.19,31.23-4.26c0.97-0.15,1.21-0.21,1.82,0"/><path d="M29.82,26.66c0.38,0.43,0.61,1.93,0.68,2.79c0.08,0.86,0,60.93-0.08,66.3"/><path d="M29.93,46.97C26.4,57.05,20.5,69.5,12.5,77.75"/><path d="M34,52.25c3.56,2.33,6.58,7,8.5,10"/><path d="M69.78,11.14c0.02,0.32,0.05,0.83-0.04,1.28c-0.53,2.71-3.55,8.65-7.68,12.29"/><path d="M50.49,27.09c0.29,0.43,0.3,0.73,0.46,1.27c1.33,4.46,3.08,16.52,3.9,24.85"/><path d="M51.87,28.19c10.29-1.12,30.73-2.96,38.42-3.9c2.82-0.35,3.92,0.6,3.72,2.96c-0.38,4.52-2.75,15.32-4.04,22.84"/><path d="M54.29,39.23c3.35-0.44,34.8-3.16,37.57-3.34"/><path d="M55.39,52.21c7.41-0.48,24.35-2.48,34.58-3.26"/><path d="M 70.7,28.3 c 0.59,1.07 0.55,2.68 0.39,4.12 -0.1875,14.790625 1.7625,25.568751 -14.407708,34.340625"/><path d="M43.75,71.81c0.72,0.25,2.64,0.43,4.54,0.25c12.87-1.24,34.32-3.82,46.55-4.06c1.91-0.04,3.46,0.07,4.65,0.32"/><path d="M76.87,54.25c1.09,0.5,1.74,2.25,1.96,3.25c0.22,1,0,35.25-0.22,41.5"/></svg>