<svg><path d="M51.39,8c0.78,0.42,2.05,2.04,2.05,2.87c0,3.07-0.25,4.46-0.1,7.06"/><path d="M20.67,19.21c1.67,0.33,3.13,0.6,5.05,0.46c12.53-0.92,43.91-2.5,57.2-3.17c1.96-0.1,2.96,0.04,4.41,0.58"/><path d="M28.41,26.8c0.7,0.63,0.81,1.31,0.95,2.11c0.98,5.41,2.85,13.25,4.28,23.84"/><path d="M30.5,27.61c12.63-0.7,39.7-3.11,48.15-3.11c1.93,0,2.67,1.06,2.45,2.33c-1.05,6.04-1.95,15.28-4.05,23.44"/><path d="M43.07,34.3c0.21,0.17,0.42,0.31,0.51,0.51c0.72,1.65,1.95,7.28,2.57,10.25"/><path d="M44.37,35c4.25-0.86,17.42-1.81,19.85-2.03c0.89-0.08,1.43,0.47,1.3,0.94c-0.53,1.93-1.14,4.76-1.93,7.43"/><path d="M45.78,42.9c3.08-0.42,14.78-0.95,18.7-1.33"/><path d="M34.31,51.48c11.69-0.73,29.92-1.82,42.24-2.41"/><path d="M73.01,55c0.12,0.22,0.25,0.56-0.24,0.87c-2.88,1.85-19.41,5.9-42.02,8.38"/><path d="M17.25,75c0.75,0.23,3.76,0.84,5.75,0.68c9-0.68,48.75-3.43,64-4.07c2-0.08,4.5,0.27,5.75,0.5"/><path d="M52.71,64c0.89,0.46,1.42,2.05,1.6,2.97s0,28.58-0.18,34.28"/><path d="M53.75,74.18c-8.75,9.07-22,18.57-37.5,24.32"/><path d="M54.5,73.46c5.12,3.3,28.54,18.91,34.11,22.16c1.89,1.1,3.5,1.57,5.39,1.89"/></svg>