<svg><path d="M37.25,15.25c-0.12,1.08-0.6,1.96-1.45,2.66c-3.14,3.16-11.68,8.03-22.8,11.34"/><path d="M11.87,42.58c2.13,0.67,4.07,0.66,5.67,0.47c5.21-0.64,14.64-2.16,20.09-2.97c1.06-0.16,3.04-0.49,4.1-0.14"/><path d="M27.83,26.91c1.01,1.01,1.41,2.22,1.41,3.69c0,0.67-0.05,38.29-0.06,56.15c0,4.39-0.01,7.59-0.01,8.75"/><path d="M28.93,42.72c0,1.91-0.78,4.49-1.35,5.99C23.97,58.2,18.8,67.9,11.25,77.5"/><path d="M32.5,52.25c3.25,3.12,6.5,7.38,7.5,10.25"/><path d="M49.44,24.63c1.54,0.59,3.97,0.35,5.56,0.17c7.24-0.85,17.09-2.48,24.49-2.96c2.02-0.13,3.63-0.36,5.58,0.09"/><path d="M65.18,13.12c0.98,0.98,1.44,2.23,1.44,3.74c0,4.75-0.04,11.54-0.04,18.69"/><path d="M47.01,38.06c2.74,0.57,5.21,0.3,7.24,0.05c9.79-1.2,21.14-2.99,30.25-3.79c2.46-0.22,4.85-0.54,7.25,0.17"/><path d="M57.39,40.58c0.09,0.92-0.03,1.8-0.38,2.65c-1.29,3.82-4.51,9.15-11.48,14.53"/><path d="M71.6,38.46c0.91,0.91,1.02,2.04,1.02,3.55c0,1.36,0,3.61,0,5.09c0,3.51,2.13,4.7,10.1,4.7c5.16,0,8.8-0.93,9.53-1.32"/><path d="M61.5,53.75c0.14,1.34-0.04,2.04-0.69,3.23c-2.56,4.75-7.32,12.52-16.61,19.78"/><path d="M60,63.32c1.93,0.21,3.51,0.06,5.41-0.38c3.46-0.78,7.09-1.95,11.13-3.17c2.94-0.89,4.68,0.66,3.09,3.79c-4.47,8.84-19.51,24.82-38.06,32.69"/><path d="M55.13,67.82C62,73.38,76.89,85.06,85.74,91.03c2.93,1.97,5.26,3.1,9.18,4.45"/></svg>