<svg><path d="M36.75,14c-0.08,1.01-0.47,1.86-1.19,2.57C31.75,19.88,24.5,24.28,12.5,29.5"/><path d="M9.12,42.33c1.63,0.55,3.45,0.48,4.88,0.3c6.13-0.76,15.5-2.29,21.01-3.12c1.09-0.16,2.64-0.45,3.73-0.08"/><path d="M26.58,26.41c1.07,1.07,1.41,2.47,1.41,3.69c0,0.68,0,42.01-0.04,59.78c-0.01,3.92-0.02,6.69-0.03,7.62"/><path d="M27.18,42.22c0,1.41-0.49,3.11-0.89,4.42c-3.45,11.2-8.54,22.26-16.04,33.11"/><path d="M30.75,51.5c3.67,2.57,6.77,7.7,8.75,11"/><path d="M63.67,11.25c0.06,0.76,0.24,2.01-0.13,3.06C61,21.7,53.96,33.45,41.58,43.39"/><path d="M64.5,15c4.31,3.7,15.4,13.5,22.33,18.57c2.3,1.68,4.55,3.43,7.84,4.77"/><path d="M57,36.3c1,0.49,3.32,0.37,4.26,0.2c3.48-0.62,7.12-1.51,10.16-2.09c1.48-0.28,3.32-0.66,4.73-0.48"/><path d="M48.34,49.15c2.41,0.6,4.8,0.33,6.9-0.11c8.64-1.8,18.89-3.48,23.32-4.28c3.1-0.57,4.62,1.46,2.59,4.01c-4.27,5.37-7.02,8.47-10.93,12.19"/><path d="M45.66,76.83c0.26,2.34-2.61,12.67-4.7,16.58"/><path d="M52.32,71.51c5.55,13.31,16.43,22.08,32.94,22.08c6.74,0,7.72-2.42,3.41-6.92"/><path d="M65.68,70.99C67.5,76,70.75,79,71.61,74.07"/><path d="M85.81,65.66c4.31,3.21,7.94,6.34,10.35,12.32"/></svg>