<svg><path d="M38.5,14.88c0.18,0.82-0.34,1.79-0.91,2.32C34.58,19.95,27.13,23.54,15,27.75"/><path d="M10.99,41.6c1.84,0.4,4.17,0.37,6.04,0.2c6.32-0.58,18.3-2.14,23.98-2.97c1.03-0.15,2.32-0.21,2.97,0"/><path d="M30.08,24.16c1.01,1.01,1.41,2.47,1.41,3.94c0,0.67,0,41.86-0.04,60.15c-0.01,4.26-0.02,7.27-0.03,8.25"/><path d="M30.18,41.47c0,1.41-0.42,2.71-0.79,3.58C25.05,55.32,17.72,67.09,10,75.5"/><path d="M34,46.5c3.98,2.62,7.35,7.88,9.5,11.25"/><path d="M80.12,13.62c-0.06,1.07-0.54,1.81-1.29,2.31c-3.48,2.33-11.91,6.51-26.81,9.59"/><path d="M46.42,33.74c2.58,0.51,4.98,0.37,7.44,0.09c9.02-1.01,25.15-2.69,34.41-3.52c2.42-0.22,4.59-0.31,6.98,0.17"/><path d="M49.85,43.81c0.85,0.85,1.52,2.06,1.7,3.25c0.56,3.87,1.5,10.58,2.47,18.29c0.16,1.31,0.33,2.64,0.49,4"/><path d="M52.43,45.45c11.42-1.5,25.46-3.16,33.2-3.89c3.65-0.34,5.25,0.45,4.77,4.08c-0.51,3.93-1.4,10.01-2.5,15.73c-0.28,1.46-0.57,2.89-0.88,4.26"/><path d="M53.64,55.96C62,54.75,80.62,53,88.19,52.89"/><path d="M55.41,66.9c10.63-1.4,20.94-2.19,30.88-2.61"/><path d="M68.9,23.36c0.74,0.74,1.18,2.01,1.18,3.34c0,1.03-0.19,55.79-0.19,64.76"/><path d="M51.27,78.88c2.23,0.49,3.94,0.48,5.75,0.25c7.93-1.01,18.91-1.96,26.35-2.6c1.8-0.16,3.42-0.4,5.17,0.16"/><path d="M43.48,93.62c3.64,0.76,6.16,0.52,9.03,0.3c11.87-0.89,23.55-2.15,36.36-2.52c2.98-0.09,5.88-0.25,8.78,0.49"/></svg>