<svg><path d="M38.01,16.75c0.15,0.97-0.11,1.94-0.83,2.67C33.38,23.25,27,27.5,16.25,32.25"/><path d="M13.62,43.08c1.88,0.55,3.3,0.5,4.76,0.33c4.63-0.52,13.59-2.01,18.99-2.87c1.12-0.18,2.39-0.3,3.87-0.12"/><path d="M30.33,29.16c1.01,1.01,1.16,2.34,1.16,3.69c0,0.68,0.02,37.27-0.03,53.65c-0.01,3.67-0.03,6.3-0.04,7.25"/><path d="M30.43,43.47c0,1.78-1.23,5.13-1.93,6.89C24.9,59.28,20.62,66,13,76.75"/><path d="M34,51.5c3.46,2.1,6.39,6.3,8.25,9"/><path d="M66.3,14.25c0.85,0.85,1.18,2.29,1.15,3.53c-0.07,3.91-0.07,6.63-0.08,10.19"/><path d="M48.88,28.38c0,3.17-1.76,11.91-2.56,14.03"/><path d="M49.97,31.32c9.03-1.57,33.29-4.12,37.62-4.41c8.9-0.59,0.83,5.91-0.25,6.56"/><path d="M53.14,42.64c1.87,0.6,4.32,0.45,6.24,0.16c5.57-0.84,12.74-1.79,17-2.26c1.8-0.2,3.57-0.19,5.37-0.29"/><path d="M67.02,44.59c-0.02,1.16-0.58,2.02-1.36,2.81c-3.79,3.85-7.92,7.47-17.78,13.63"/><path d="M63.58,50.79c7.92,4.96,13.29,21.83,6.29,39.37c-2.24,5.62-6.55,0.84-7.5,0.05"/><path d="M65.56,56.79c0.13,0.98-0.2,1.83-0.83,2.59c-3.49,4.25-8.36,8.87-18.45,14.32"/><path d="M69.08,65.83c0.14,1.05-0.22,2.02-0.86,2.92c-3.6,5-11.1,12.75-23.42,19.7"/><path d="M86.48,48.83c0,0.8-0.39,1.77-1.01,2.49c-2.72,2.93-5.06,5.21-11.59,9.43"/><path d="M72.12,61.12c2.81,2.48,12.06,12.56,17.74,18.51c2.26,2.37,3.51,3.62,6.33,5.38"/></svg>