<svg><path d="M38.25,17.25c0.07,0.34,0.14,0.87-0.14,1.35C36.48,21.44,28,25.5,14.25,30.5"/><path d="M12.87,44.77c0.32,0.13,1.19,0.34,2.05,0.38c2.37,0.13,21.77-1.92,27.7-2.56c0.86-0.09,1.08-0.13,1.62,0"/><path d="M29.82,27.16c0.37,0.42,0.6,1.91,0.67,2.76c0.08,0.85,0,60.27-0.07,65.58"/><path d="M30.43,46.47C26.9,57.29,21,70.65,13,79.5"/><path d="M33,53.75c3.77,2.33,6.97,7,9,10"/><path d="M49,18.64c0.27,0.42,0.28,0.7,0.43,1.21c1.21,4.24,2.8,13.83,3.52,21.64"/><path d="M50.28,19.28c9.64-0.43,27.65-2.15,34.85-2.56c2.64-0.15,3.99,1.08,3.84,2.21C88.45,23.1,87,33,85.54,40.01"/><path d="M67.88,18.17c-0.02,0.33-0.03,0.9-0.03,1.64c-0.03,4.92,0.17,17.54,0.17,19.33"/><path d="M52.5,29.16c3.14-0.21,30.71-1.44,33.31-1.44"/><path d="M53.45,40.4c6.94,0,22.6-1.45,32.18-1.56"/><path d="M60.01,43c0.07,0.39,0.07,1-0.13,1.57C58.07,49.57,55.74,53.4,48,58.25"/><path d="M74.25,41c0.91,0.77,1.18,1.68,1.18,2.87c0,1.6-0.27,5.1-0.27,6.24c0,3.11,3.1,4.39,9.03,4.39c5.36,0,9.31,0,11.58-1.01"/><path d="M61.98,54.25c0.05,0.59,0.1,1.52-0.09,2.37c-1.15,5-7.72,15.97-16.71,22.69"/><path d="M60.75,62.75c1.5,0.5,3.15,0.97,4.83,0.77C70,63,76.33,61.6,79.98,60.83c2.5-0.53,3.22,0.6,2.58,2.04C79.05,70.72,62.5,90.75,44.75,96.5"/><path d="M56.24,67.71c4.66,4.36,25.77,20.94,32.05,24.92c1.87,1.19,3.39,1.77,5.21,2.12"/></svg>