<svg><path d="M39.5,17c-0.25,1.12-1.03,1.99-2.01,2.6c-5.24,3.27-10.74,6.52-22.24,10.65"/><path d="M11.62,44.42c2.14,0.77,4.36,0.92,6.65,0.43c5.62-0.65,15.11-2.24,20.74-3.08c1.57-0.18,3.15-0.25,4.73-0.22"/><path d="M30.38,27.5c0.74,0.74,1.07,1.59,1.07,2.94c0,0.68,0.16,39.72,0.15,56.81c0,3.83-0.01,6.55-0.03,7.5"/><path d="M31.43,45.72c-0.18,1.41-0.56,3.56-1.15,4.98c-3.91,9.42-10.1,18.79-18.03,27.8"/><path d="M34.75,52.25c3.67,2.45,6.27,6.35,8.25,9.5"/><path d="M48.05,25.59c2.35,0.36,4.71,0.41,7.08,0.12c7.17-0.88,20-2.61,28.87-3.23c2.84-0.37,5.67-0.35,8.5,0.06"/><path d="M64.71,12.5c0.49,0.96,0.66,1.96,0.59,3c-0.55,8.5-4.8,20.88-16.63,27.17"/><path d="M71.35,25.41c0.62,0.62,0.78,1.49,0.78,2.37c0,2.85-0.05,5.22-0.05,7.89c0,4.09,2.29,5.52,10.06,5.52c3.52,0,10.31,0.76,10.75-4.37"/><path d="M76.54,10.96c2.73,1.03,6.8,4.47,7.48,6.06"/><path d="M80.48,46.3c0,1.2-0.98,2.03-2.29,2.59C72,51.5,63.73,54.08,53.43,55.65"/><path d="M52.48,44.75c0.63,0.63,1.07,1.75,1.07,2.85c0,2.25-0.07,1.99-0.07,6.48c0,7.03,2.62,7.67,18.94,7.67c16.7,0,18.08-2.01,18.08-6.56"/><path d="M52.46,70.78c0.88,0.88,1.04,1.72,1.13,3.34c0.03,0.55,1.13,11.15,1.77,17.39c0.26,2.54,0.44,4.36,0.44,4.47"/><path d="M54.57,71.81c4.48-0.49,23.42-2.36,29.28-2.86c2.9-0.25,4.51,1.39,4.04,4.06c-0.7,3.99-2,11.75-2.86,17.08c-0.51,3.14-0.87,5.44-0.87,5.62"/><path d="M55.51,82.37c7.12-0.74,21.24-1.99,30.25-2.34"/><path d="M57.1,95.18c6.84-0.42,17.62-1.29,26.14-1.65"/></svg>