<svg><path d="M42.5,19.25c0,1-0.49,1.96-1.41,2.51C34.12,26,26.5,29.88,16.75,33.75"/><path d="M12.37,43.85c2.13,0.78,4.17,0.75,6.15,0.5c7.86-0.97,20.48-3.51,26.87-4.5c1.04-0.16,2.49-0.22,3.6-0.02"/><path d="M33.18,30.41c0.89,0.89,1.41,2.59,1.41,4.47c0,1.21-0.05,34.87-0.08,53.75c0,2.51-0.01,4.75-0.01,6.62"/><path d="M33.68,43.22c0,2.91-0.61,4.94-2.1,7.82C27,59.88,22.38,67.62,14.25,76.75"/><path d="M37.5,51.75c3.98,2.33,7.35,7,9.5,10"/><path d="M83.78,15.89c-0.16,0.98-0.8,1.7-1.45,2.19c-4.08,3.05-12.83,7.8-27.59,11.89"/><path d="M53.52,35.83c2.16,2.1,5.58,8.62,6.12,11.88"/><path d="M65.44,32.33c2.71,1.96,7.01,8.08,7.69,11.13"/><path d="M92.77,30.39c0.09,0.92-0.22,1.84-0.65,2.65c-2,3.83-5,8.41-10.26,13.42"/><path d="M54.75,55.17c0.85,0.85,1.22,2.08,1.22,3.39c0,1.08-0.04,21.78-0.05,31.81c0,2.1,0,3.74,0,4.62"/><path d="M68.79,54.49c0.92,0.92,1.2,2.6,1.2,3.8c0,1.03-0.03,19.36-0.02,30.83c0,1.96,0.01,3.71,0.01,5.12"/><path d="M70.87,55.28c1.87-0.12,13.81-1.57,18.4-2.11c2.69-0.31,3.95,0.82,3.95,2.95c0,7.01-0.07,22.96-0.09,32.5c0,1.69-0.01,3.17-0.01,4.38"/><path d="M71.2,71.2c5.16-0.42,17.46-1.5,20.82-1.5"/><path d="M71.12,90.67c6.17-0.26,13.7-1.16,20.7-1.2"/></svg>