<svg><path d="M40,15c0.07,0.34,0.15,0.88-0.14,1.37C38.15,19.26,28.38,25.61,15,29.5"/><path d="M12.37,42.94c0.47,0.1,1.73,0.37,2.98,0.3c8.14-0.49,17.15-1.5,25.78-2c1.25-0.07,1.57-0.1,2.35,0"/><path d="M30.3,27c0.53,0.43,0.84,1.94,0.94,2.8c0.11,0.86,0,60.07-0.1,65.45"/><path d="M30.93,45.47c-4.04,10.74-10.78,24-19.93,32.78"/><path d="M31.25,48.25c4.4,3.03,8.13,9.1,10.5,13"/><path d="M83.51,11.75c0.09,0.27,0.2,0.68-0.19,1.06c-2.3,2.24-15.5,7.17-33.57,10.19"/><path d="M53.62,29.34c0.02,0.39,0.05,1-0.05,1.55c-0.59,3.27-3.96,10.46-8.57,14.85"/><path d="M66.5,27.75c3.26,1.59,8.43,6.53,9.25,9"/><path d="M82.96,23.07c4.6,2.85,11.89,11.74,13.04,16.18"/><path d="M53.54,49.03c0.45,0.78,0.75,2.03,0.6,3.43c-0.15,1.4,0.15,40.95,0.15,43.29"/><path d="M54.6,50.19c4.45-0.66,28.83-3.08,29.71-3.32c1.87-0.5,3.25,1.21,3.04,1.99C87,50.19,87,87.54,87,91.35c0,10.4-5,2.77-6.55,1.5"/><path d="M68.26,40.68c0.08,0.18,1.24,0.92,1.24,2.05c0,7.27,0.1,20.29,0.1,29.9"/><path d="M54.76,62.98c8.68-0.79,22.59-1.92,32-2.55"/><path d="M42.34,75.77c1,0.39,2.83,0.48,3.82,0.39c12.34-1.1,38.27-3.63,49.31-4.15c1.66-0.08,2.66,0.19,3.49,0.38"/></svg>