<svg><path d="M39.25,15.25c0,1-0.94,2.03-1.66,2.6C34.12,20.62,27.62,23.5,16,27"/><path d="M9.87,43.85c2.01,0.65,3.57,0.62,5.3,0.41c6.13-0.73,19.18-3.09,24.71-3.93c0.99-0.15,1.99-0.21,2.61,0"/><path d="M30.33,25.16c0.82,0.82,1.41,1.97,1.41,3.19c0,5.06-0.05,45.46-0.07,61.53c0,3.06,0,5.24,0,6.12"/><path d="M30.18,43.47c0,1.16-0.26,2.43-0.53,3.17c-3.59,9.66-9.4,20.37-17.4,29.87"/><path d="M34.5,48.38c4.09,2.3,7.55,6.91,9.75,9.88"/><path d="M55.04,21.04c1.96,0.46,3.66,0.26,5.22,0.09c5.79-0.64,16.82-2.1,22.49-2.76c1.63-0.19,3.25-0.2,4.89-0.06"/><path d="M69.77,11.38c0.92,0.92,1.41,2.24,1.41,3.54c0,6.58-0.18,18.71-0.18,24.7"/><path d="M55.77,31.79c1.74,0.57,3.87,0.27,5.62-0.02c8.36-1.39,19.63-2.72,23.44-3.03c1.19-0.1,2.31-0.05,2.94-0.01"/><path d="M48.56,42.06c3.06,0.44,5.41,0.47,8.07,0.13C67,40.88,79.25,40.12,89.5,39.64c3.26-0.16,5.75-0.26,8.07,0.29"/><path d="M57.04,49.79c0.77,0.77,1.21,1.79,1.21,2.78c0,0.77-0.05,19.1-0.07,27.3c-0.01,2.29-0.01,3.79-0.01,3.9"/><path d="M58.82,51.09c6.43-0.72,25.13-2.8,26.08-2.85c2.12-0.12,3.6,1.01,3.61,3.36c0.01,3.15-0.08,15.43-0.07,26.31c0,1.12-0.17,3.11-0.17,3.85"/><path d="M59.53,60.29C64.5,60,82.5,58.25,86.88,58.03"/><path d="M59.25,70.14c7.62-0.39,20.25-1.39,27.79-1.73"/><path d="M59.97,80.64c6.41-0.25,19.9-1.52,26.79-1.73"/><path d="M63.78,87.13c0.09,0.87-0.25,1.96-1,2.65c-2.29,2.09-7.41,6.09-13.15,8.96"/><path d="M81.75,87c5.19,2.93,11.33,8.24,12.75,10.81"/></svg>