<svg><path d="M38,15.5c-0.13,1-0.47,1.75-1.3,2.33c-3.82,2.67-11.2,7.05-22.2,10.8"/><path d="M11.87,43.58c1.44,0.81,3.69,0.67,5.25,0.47c5.27-0.67,15.43-2.5,21.03-3.45c1.16-0.2,2.91-0.56,4.09-0.17"/><path d="M29.08,26.41c0.76,0.76,1.16,1.97,1.16,3.44c0,0.67,0.02,40.7-0.03,58.9c-0.01,4.38-0.03,7.5-0.04,8.5"/><path d="M29.43,43.72c0,1.41-0.55,3.99-1.43,5.89c-4,8.64-9.18,17.84-15.5,25.64"/><path d="M33,51.38c3.25,2.3,6,6.91,7.75,9.88"/><path d="M47.13,25.11c2.37,0.76,5.09,0.34,7,0.08c7.3-0.96,20.94-2.63,27.87-3.02c1.99-0.11,4.26-0.27,6.19,0.36"/><path d="M47.14,36.97c0.88,0.88,1.23,1.53,1.43,2.58c0.75,4,1.6,10.41,2.51,18.2c0.2,1.69,0.41,3.44,0.64,5.24"/><path d="M49.46,38.88c9.92-1.38,22.92-3.25,33.17-3.98c4.03-0.29,6.6-0.24,5.89,4.48c-0.59,3.95-1.46,10.15-2.58,15.56c-0.43,2.08-0.9,4.01-1.41,5.58"/><path d="M51.24,49.68c3.21-0.39,29.26-3.18,35-3.37"/><path d="M52.77,61.15c8.12-0.73,20.61-1.78,31-2.31"/><path d="M66.04,12.32c1.13,1.13,1.54,2.88,1.54,4.43c0.03,15.3-0.07,37.95-0.07,41.94"/><path d="M45.88,79.62c0.18,1.92-1.83,10.41-3.3,13.61"/><path d="M53.91,72.75C61.12,88.38,69,96,85.67,96.68c6.48,0.27,6.4-2.81,2-7.7"/><path d="M68.92,71.75c2.33,6.25,5.33,7.75,5.68,2.46"/><path d="M86.6,68.98c4.54,2.62,8.02,6.27,11.38,12.86"/></svg>