<svg><path d="M21.53,22.65c1.72,0.22,3.63,0.23,4.98,0.07c6.77-0.78,13.87-1.85,19.96-2.72c1.3-0.19,2.35-0.12,3.01,0.03"/><path d="M35.64,11c0.68,0.68,1.12,1.5,1.12,2.73c0,3.27,0.1,10.77,0.1,17.89"/><path d="M22.98,34c1.53,0.35,3.1,0.19,4.63-0.02c6.51-0.86,10.63-1.48,17.66-2.5c1.2-0.17,2.47-0.17,3.09-0.08"/><path d="M17.5,43.38c0,3.48-2.58,13.05-3.75,15.38"/><path d="M19.24,44.74C30,42,39.75,40.25,48.7,39.09c7.57-0.98,2.55,6.16-0.45,8.28"/><path d="M39.51,48.25c-0.01,1-0.56,2.21-1.39,2.87c-3.25,2.63-7.45,5.32-16.62,9.13"/><path d="M14.62,69.85c2.13,0.53,4.2,0.31,6.02-0.02c7.24-1.32,18.66-3.54,25.6-4.73c1.31-0.22,3.92-0.45,5.24-0.02"/><path d="M35.33,57.66c0.82,0.82,1.16,2.22,1.16,3.44c0,0.67,0.02,20.33-0.03,30.9c-0.01,2.53-0.03,4.5-0.04,5.5"/><path d="M34.68,68.22c0,1.41-0.65,3.33-1.46,4.67c-4.16,6.91-8.85,12.61-17.97,19.86"/><path d="M39.62,73c3.72,1.81,6.87,5.42,8.88,7.75"/><path d="M64.09,17.22c0.53,0.53,0.95,1.66,0.95,2.93c0,10.91-1.92,22.69-7.62,27.55"/><path d="M66.12,19.77c5.76-1.65,9.13-2.77,11.9-3.46c2.06-0.51,2.42,0.53,2.22,2.38c-0.39,3.63-1.33,9.52-1.33,13.15c0,6.9,1.09,8.66,7.63,8.66c5.96,0,7.38-1.25,7.38-9.14"/><path d="M60.36,53.5c1.36,0.4,2.78,0.49,5.49-0.1c2.71-0.59,13.94-4.29,15.82-4.83c2.83-0.81,4.64,1.33,3.54,4.1C77.25,72.88,65.79,87.08,49.5,96.92"/><path d="M59.59,61.37c3.79,0.46,14.79,16.01,26.45,27.24c2.17,2.09,4.46,4.52,6.81,6.01"/></svg>