<svg><path d="M44.57,16.55c0,1.2-0.92,2.4-2.12,3.11c-3.98,2.37-8.69,4.84-16.94,7.59"/><path d="M21.25,15c0.63,0.63,0.9,1.42,0.9,2.4c0,1.43,0.09,15.28,0.09,16.96c0,7.82,6.58,6.74,12.54,6.74c10.01,0,11.99-0.76,11.99-4.75"/><path d="M46.69,47.23c-0.35,1.16-1.36,1.88-2.46,2.43c-4.5,2.26-11.83,4.4-22.98,6.34"/><path d="M15.37,67.33c2.3,0.44,4.6,0.51,6.89,0.2c6-0.6,16.04-2.02,22.23-2.83c1.65-0.34,3.31-0.47,4.99-0.39"/><path d="M34.08,56.91c0.74,0.74,0.98,1.8,0.92,2.89c0.03,3.73,0.01,18.65-0.03,28.28c-0.02,3.8-0.04,6.78-0.05,7.92"/><path d="M33.93,67.23c-0.1,1.15-0.66,2.36-1.31,3.45c-4.17,6.98-10.86,14.54-18.87,19.97"/><path d="M37.75,73.09c4.3,1.78,7.94,5.34,10.25,7.63"/><path d="M55.55,17.33c2.49,0.4,4.97,0.47,7.45,0.2c7.43-0.66,18.21-1.62,24.61-2.09c2.15-0.32,4.29-0.21,6.41,0.32"/><path d="M72.73,20.16c0.06,0.78-0.03,1.54-0.27,2.28c-0.74,2.47-2.87,6-4.61,8.76"/><path d="M57.74,33c0.98,0.98,1.2,2.36,1.2,3.38c0,1.09,0,22.38,0,34.31c0,4.16,0,7.18,0,7.82"/><path d="M59.75,34.46c2.76-0.18,23.73-2.93,26.25-3.15c2.09-0.18,3.57,1.15,3.57,3.39c0,1.78,0.01,23.35,0.02,35.77c0,4.29,0,7.5,0,8.4"/><path d="M59.71,48.32c5.29-0.33,23.06-1.73,28.96-2.12"/><path d="M60.18,62.69c10.55-1.04,20.92-1.83,28.45-2.34"/><path d="M60.64,76.86c6.36-1.09,19.68-1.55,27.7-2.11"/><path d="M66.45,82.08c0,0.94-0.22,1.91-1,2.86c-2.35,2.87-9.91,9.42-14.6,12.81"/><path d="M81.24,83.2c5.17,3.7,11.27,10.41,12.68,13.65"/></svg>