<svg><path d="M39.24,14.75c0.07,0.32,0.15,0.83-0.15,1.3c-1.77,2.74-11.94,8.76-25.85,12.45"/><path d="M11.6,41.46c0.49,0.24,1.82,0.64,3.15,0.75c3.65,0.3,17.61-1.64,26.78-2.6c1.33-0.14,1.66-0.19,2.49,0.05"/><path d="M28.83,26.16c0.37,0.44,0.58,1.99,0.66,2.87c0.07,0.88,0,61.19-0.07,66.72"/><path d="M29.5,42.5c-3.7,13.03-9.87,29.1-18.25,39.75"/><path d="M31.25,51c4.4,2.63,8.13,7.88,10.5,11.25"/><path d="M48.67,15.82c1.43,0.71,3.09,0.84,4.61,0.71c9.67-0.85,30.69-2.54,33.96-3.13c2.16-0.39,3.22,0.57,2.84,3.36c-0.47,3.51-0.69,5.79-1.34,9.99"/><path d="M52.82,30.38c4.37-0.23,34.26-3.47,38.81-3.7"/><path d="M52.17,17.61c0,3.95-0.22,15.95-0.58,19.63c-2.01,20.92-3.48,37.49-13.34,52.5"/><path d="M72.95,31.48c0.78,0.87,1.33,1.9,1.39,4.79c0.32,13.89-0.02,8.77-0.02,13.51"/><path d="M56.67,38.02c0.2,0.11,0.55,0.07,0.74,0.11c1.94,0.44,7.71-0.79,8.91-0.66c0.32,0.04,0.52,0.05,0.68,0.11"/><path d="M56.48,47.56c0.2,0.11,0.57,0.07,0.77,0.11c2,0.44,7.95-0.79,9.18-0.66c0.33,0.04,0.53,0.05,0.7,0.11"/><path d="M83.5,36.35c0.19,0.11,0.53,0.07,0.72,0.11c1.88,0.44,7.44-0.79,8.6-0.66c0.31,0.04,0.5,0.05,0.66,0.11"/><path d="M82.52,45.2c0.24,0.12,0.67,0.08,0.9,0.12c2.36,0.48,9.36-0.88,10.81-0.74c0.39,0.04,0.63,0.06,0.82,0.12"/><path d="M61.52,54.77c0.02,0.39,0.05,1-0.04,1.56c-0.53,3.29-3.57,10.5-7.73,14.92"/><path d="M60.64,65.2c0.62,0.19,1.75,0.23,2.37,0.19c7.57-0.52,21.04-2.52,27.84-3.19c1.02-0.1,1.65,0.09,2.16,0.19"/><path d="M54.11,78.11c0.83,0.15,2.36,0.17,3.2,0.15c8.68-0.25,24.74-1.91,37.4-1.96c1.39-0.01,2.22,0.07,2.92,0.14"/><path d="M74.05,55.5c0.4,0.22,1.24,1.64,1.32,2.08c0.08,0.44-0.05,37.43-0.13,40.17"/></svg>