<svg><path d="M52.68,10c1.24,0.36,2.5,2.62,2.47,3.65c-0.09,3.26-0.09,5.6-0.1,8.57"/><path d="M19.17,20.01c0,4.19-3.48,15.7-5.06,18.49"/><path d="M19.03,24.7c1.7-0.11,3.81-0.25,6.24-0.41c17.89-1.16,52.63-3.27,60.75-3.18c11.94,0.13,2.19,8.36-0.78,10.13"/><path d="M42.27,26c0.17,1.25-0.14,2.28-0.87,3.35c-3.25,4.8-9.34,9.64-18.4,14.15"/><path d="M61.34,23.87c0.44,0.47,0.81,1.02,0.81,1.74c0,1.91-0.31,5.25-0.31,7.43c0,5.1,6.34,4.52,11.52,4.52c5.46,0,10.15-0.66,10.91-1.03"/><path d="M27.52,47.18c1.34,0.89,2.62,1.2,4.39,1.12c1.77-0.07,40.1-2.98,43.64-3.27c3.54-0.3,4.05,2.19,3.28,3.57c-1.2,2.17-1.52,5.05-3.08,8.64"/><path d="M31.25,60.75c2.74,0,39.07-2.5,41.03-2.5c1.96,0,3.91,0,5.47,0"/><path d="M30.33,59.3c0.67,1.45,0.42,3.2-0.25,5.17c-0.77,2.23-1.71,7.66-2.09,8.35c-0.38,0.69,0.01,2.94,2.66,2.23c2-0.54,45.28-2.7,50.79-3.3c1.71-0.19,3,1.15,2.43,3.66C83,79.24,76.35,91.22,72.64,95.31c-3.78,4.17-6.39,3.19-11.47-1.49"/></svg>