<svg><path d="M52.29,11c1.17,1.17,1.7,2.5,1.7,4.2c0,3.09-0.08,4.02-0.08,6.83"/><path d="M27.25,24.38c0,2.87-3.51,11.81-4.82,13.72"/><path d="M28.15,26.3c17.1-2.42,40.97-5.17,52.45-5.31c9.9-0.12,3.15,5.39-0.32,7.6"/><path d="M41.51,31.76c0.13,1.22-0.12,2.31-0.75,3.26c-3.02,5.18-6.8,9.44-15.01,15.24"/><path d="M59.76,29.23c0.94,0.76,1.49,2.27,1.49,3.59c0,5.25,0,2.68,0,6.18c0,4.75,1.75,6.5,11.25,6.5c7.25,0,11.25-0.25,12.5-1.75"/><path d="M47.61,46.88c1.14,1.38,1.25,3.25,1.08,5.1c-2.19,24.27-9.31,37.15-29.11,46.7"/><path d="M26.67,65.42c1.95,0.46,4.08,0.58,6.6,0.03c6.86-1.49,27.34-7.61,29.72-8.38c2.89-0.94,4.76,0.18,4.11,3.8c-1.45,8.01-3.22,14.73-3.22,22.88c0,9.75,1.88,12.64,14.88,12.64c14.12,0,14.54-1.13,14.78-9.17"/></svg>