<svg><path d="M52.29,12.75c1.04,1.04,1.45,2.12,1.45,3.45c0,3.09-0.08,3.77-0.08,6.58"/><path d="M20.62,24.38c0,4.23-2.2,15.86-3.2,18.68"/><path d="M21.57,27.61c16.18-2.36,43.06-5.11,61.29-5.58c14.41-0.37,4.39,6.72,0.99,8.73"/><path d="M38.51,35.51c0.09,0.52-0.07,1.37-0.43,2.09C34.86,44.05,31,50.38,22.5,55.62"/><path d="M60.26,31.98c0.94,0.94,1.18,1.91,1.24,3.09c0.25,5.25,0,2.43,0,5.93c0,4.75,1,6.25,10.5,6.25c7.25,0,11-0.25,12.25-1.75"/><path d="M25.23,67.43c3.14,0.69,6.06,0.41,8.62,0.13c13.28-1.48,29.6-3.33,41.65-4.14c2.76-0.19,5.48-0.35,8.21,0.22"/><path d="M50.97,49.28c0.51,0.68,0.78,1.46,0.76,2.93C51.38,76.88,40.62,89.5,19.5,99"/><path d="M52.29,67.33c7.61,7.06,19.56,18.06,27.96,24.18c2.62,1.91,5.39,3.58,8.25,5.11"/></svg>