<svg><path d="M53.35,10.25c0.95,0.95,1.51,2,1.51,3.51c0,3.11-0.09,5.88-0.1,8.71"/><path d="M23.51,23.78c0,4.26-2.7,15.96-3.93,18.8"/><path d="M24.35,26.06c16.78-1.81,39.78-4.81,59.91-5.5c11.46-0.39,2.99,6.44-0.93,8.95"/><path d="M43.9,31.42c0.12,0.95-0.07,1.82-0.57,2.62c-1.87,3.55-7.58,9.73-16.62,14.38"/><path d="M61.87,28.4c0.8,0.8,0.88,1.85,0.88,3.23c0,3.2,0.03,3.6,0.03,5.77c0,5.08,5.69,4.5,11.29,4.5c5.91,0,9.8-0.66,10.63-1.02"/><path d="M14,68.68c1.83,0.43,4.04,0.46,5.88,0.22c7.64-1.01,18.39-3.72,24.28-4.87c1.57-0.3,2.82-0.34,4.27-0.14"/><path d="M27.82,56.06c1,1,1.31,2.44,1.31,3.72c0,0.91,0.09,17.22,0.09,25.42c0,3.93,0.77,5.22,6.89,5.22c5.24,0,8.88-0.54,12.62-1.49"/><path d="M54.85,58.64c2.99,0.96,5.62,0.82,8.67,0.34c11.86-1.86,16.74-2.74,25.03-3.86c4.86-0.66,6.41,1.51,5.49,5.91c-2.41,11.58-6.91,24.58-12.7,33.33c-4.84,7.3-7.08,1.63-9.19-0.49"/><path d="M71.83,62c0.42,1.25,0.29,2.67-0.13,3.8c-4.45,11.95-11.58,22.45-22.17,30.38"/></svg>