<svg><path d="M52.51,10.25c1.06,1.06,1.33,2.5,1.33,3.7c0,3.05-0.09,5.24-0.09,8.02"/><path d="M19.93,25.26c0,4.3-3.05,16.12-4.44,18.99"/><path d="M20.82,26.9c21.06-2.53,39.06-4.78,65.03-5.84c12.8-0.52,2.71,6.86-0.48,8.88"/><path d="M41.77,30.5c0.13,1.06-0.33,2.04-0.89,2.94c-3,4.06-7.1,8.05-15.46,14.48"/><path d="M60.74,25.37c0.7,0.7,0.76,1.5,0.76,2.52c0,2.82-0.12,4.45-0.12,6.36c0,3.62,2.38,5.31,13,5.31c6.81,0,11.3-0.83,12.26-1.15"/><path d="M46.6,40.25c0.08,0.74-0.1,2.02-0.65,2.98c-4.7,8.15-14.08,20.02-27.11,28.49"/><path d="M42.82,53.39c2.56,0.45,5.12,0.22,7.69-0.19c10.59-0.94,24-2.85,33.25-3.97c2.96-0.46,5.93-0.66,8.92-0.61"/><path d="M52.69,56.36c0.92,0.92,1.04,2.02,1.04,3.22c0,0.7-0.06,19.59-0.08,31.68c-0.01,4.02-0.02,7.28-0.02,8.88"/><path d="M56.51,65.71c7.74-0.96,13.12-1.71,23.18-2.88c1.76-0.21,3.5-0.24,5.24,0.02"/><path d="M55.82,78.68C62.62,77.87,71.25,77,80.88,76c2.08-0.22,4.11-0.48,6.16-0.19"/></svg>