<svg><path d="M52.76,10.25c0.99,0.99,1.58,2.25,1.58,3.7c0,3.05-0.09,4.49-0.09,7.27"/><path d="M24.44,22.38c0,4.1-1.86,15.38-2.71,18.12"/><path d="M25.07,26.24c17.68-3.12,40.18-5.99,56.02-6.63c10.79-0.44,2.29,6.66-0.4,8.55"/><path d="M40.02,31.5c0.1,1.1-0.08,1.79-0.54,2.8c-1.93,4.27-5.95,9.64-12.57,14.62"/><path d="M61.99,26.62c0.63,0.63,1.08,1.75,1.08,2.95c0,3.14-0.07,4.31-0.07,6.82c0,3.61,1.13,4.42,10.38,4.42c5.56,0,9.23-0.64,10.01-1.01"/><path d="M51.75,42.25c0.38,1.25-0.06,2.17-0.77,3.08c-4.98,6.42-7.86,9.55-14.43,16c-1.77,1.74-1.9,2.99,0.92,2.24c10.65-2.82,20.03-5.44,29.52-7.65"/><path d="M62.08,50.55c3.54,2.19,9.15,9.01,10.03,12.42"/><path d="M24.75,78.12c0.35,2.49-3.46,13.48-6.23,17.62"/><path d="M32.5,76.21c9.88,17.17,23.25,23.17,44.96,22.29c9.05,0.25,8.8-4.25,3.33-7.73"/><path d="M50.03,70.12c1.6,4.26,5.15,8.87,6.13,4.78"/><path d="M76.1,71.34c4.06,1.52,8.15,3.91,10.9,7.62"/></svg>