<svg><path d="M52.48,10.75c0.99,0.34,2.4,1.98,2.38,2.95c-0.07,3.05-0.07,6.74-0.08,9.52"/><path d="M18.75,23.75c0,3.96-3.01,14.86-4.38,17.5"/><path d="M19.37,27.05c12.8-1.81,58.5-5.04,67.84-4.94c12.09,0.13,2.56,6.33-0.45,8.05"/><path d="M40.76,29c0.06,0.4,0.22,1.07-0.11,1.6c-3.05,4.92-9.46,10.59-19.42,15.32"/><path d="M61.59,24.87c0.43,0.53,0.8,1.15,0.8,1.96c0,2.15-0.31,5.92-0.31,8.38c0,5.75,6.28,5.1,11.4,5.1c5.4,0,10.04-0.74,10.79-1.16"/><path d="M42.6,44c0.72,0.55,2.12,3.05,2.15,4c0.22,6.75-0.25,8.39-0.25,15c0,19.78-10.23,31.83-23.5,37.75"/><path d="M21.5,52.25C26.26,54.23,33.8,60.41,35,63.5"/><path d="M16.5,79.25c1,1.25,3.31,0.96,4.48,0.38c1.61-0.81,12.7-6.99,19.02-10.88"/><path d="M58.82,44.12c0.85,0.83,1.52,1.82,1.57,3.1c0.23,5.73-0.03,38.79-0.03,42.69c0,9.11,7.55,8,17.58,7.93c12.56-0.09,16.12-2.59,16.12-8.89"/><path d="M81.5,49.25c0.04,0.31,0.08,0.81-0.08,1.25c-0.96,2.64-6.43,8.45-13.92,12"/><path d="M67,69.25c5.12,2.43,13.22,9.98,14.5,13.75"/></svg>