<svg><path d="M52.57,11.25C53.72,12.4,54,13.5,54,14.55c0,2.89-0.12,3.31-0.12,5.95"/><path d="M26.85,21.93c0,3.4-2.82,12.75-4.1,15.02"/><path d="M27.43,25.01c18.87-2.65,36.07-4.38,53.16-5.14c9.78-0.43,1.57,5.58-0.87,7.38"/><path d="M45.13,26.45c-0.36,1.23-0.88,2.38-1.74,3.28c-2.89,3.02-6.36,5.72-12.36,8.69"/><path d="M60.82,23.23c0.73,0.73,0.67,1.77,0.67,2.84c0,1.47-0.01,2.54-0.01,4.23c0,3.21,2.02,3.98,9.5,3.98c4.5,0,7.65-0.4,8.99-1.29"/><path d="M24.63,44.5c3.75,1.25,9.18,5.15,10.12,7.09"/><path d="M20.25,59.75c3.62,1.28,9.09,5.26,10,7.25"/><path d="M22,94c1.62,0.52,2.64-0.19,3.68-1.76c3.03-4.57,4.82-7.86,9.07-14.74"/><path d="M45.83,50.04c2.13,0.36,4.26,0.35,6.42,0.09c7.4-0.89,16.55-2.28,23.62-2.67c1.68-0.21,3.36-0.16,5.02,0.15"/><path d="M63,39.62c0.88,0.88,1.04,2.01,1.04,3.23c0,8.78,0.08,5.92,0.08,17.53"/><path d="M41.44,63.04c2.77,0.51,5.54,0.53,8.31,0.05c11.6-1.52,21.17-2.3,30.88-2.72c2.61-0.37,5.19-0.22,7.74,0.47"/><path d="M45.47,78.82c2.5,0.4,5.02,0.4,7.54,0c7.6-0.84,17.05-1.56,24.49-1.96c2.14-0.28,4.26-0.25,6.37,0.11"/><path d="M63.88,67.25c0.75,0.75,1.05,1.87,1.05,3.23c0,8.78-0.15,9.44-0.15,21.04"/><path d="M39.61,94.63c3.33,0.51,6.02,0.49,10.03-0.13c11.48-1.77,20.61-3.01,31.99-3.63c3.54-0.1,7.05,0.17,10.52,0.81"/></svg>