<svg><path d="M51.98,7.75c0.99,0.34,2.4,1.98,2.38,2.95c-0.07,3.05-0.07,5.24-0.08,8.02"/><path d="M19.98,18.76c0,3.28-2.88,12.3-4.18,14.49"/><path d="M19.87,21.24c12.8-1.99,58.5-3.99,67.84-3.88c12.09,0.14,2.56,6.41-0.45,8.3"/><path d="M43.19,23c0.06,0.37,0.23,0.98-0.12,1.47c-3.19,4.51-9.9,9.7-20.33,14.03"/><path d="M62.09,20.87c0.4,0.43,0.75,0.94,0.75,1.61c0,1.77-0.29,3.87-0.29,5.89c0,4.73,5.86,4.19,10.64,4.19c5.05,0,9.37-0.61,10.08-0.95"/><path d="M39.45,35.95c0.25,0.33,0.33,0.75,0.22,1.03c-0.8,2.01-3.31,5.79-6.01,8.08"/><path d="M23.25,44.32c0.44,0.49,0.88,0.73,0.88,1.38c0,0.65,2.29,15.63,2.47,18.84"/><path d="M24.4,45.47c2.49-0.08,24.07-1.89,26.33-2.03c1.44-0.09,2.02,0.54,2.02,1.56c0,1.75-2.29,12.67-2.75,18.04"/><path d="M25.87,54.34c5.21-0.25,20.67-2.03,24.48-2.03"/><path d="M26.86,63.3c6.23-0.26,16.57-1.89,23.22-2.01"/><path d="M36.61,65.25c0.52,0.28,1.37,1.36,1.37,1.92c0,2.05-0.16,3.4-0.07,5.14"/><path d="M14.84,73.41c1.36,0.05,2.88,0.36,4.2,0.29c10.67-0.61,24.44-1.5,32.76-2.38c2.2-0.23,3.31-0.13,4.98,0.22"/><path d="M38.13,78.42c2.62,0.83,6.54,1.73,9.64,2.01c1.57,0.14,1.99,1.5,1.85,2.71c-0.46,3.92-6.53,13.07-8.67,15.55c-2.25,2.61-3.96-0.46-5.19-1.76"/><path d="M36.23,74.74c0.06,0.52,0.15,1.34-0.12,2.08c-1.96,5.48-8.02,14.22-20.89,19.86"/><path d="M69.52,38.39c0.04,0.62,0.22,1.65-0.07,2.51c-1.82,5.5-5.91,16.36-12.2,23.97"/><path d="M67.76,51.32c0.66,0.4,1.87,0.45,2.53,0.4c7.88-0.53,12.69-1.45,22.2-2.12c1.18-0.08,1.9-0.02,2.21,0.08"/><path d="M82.02,53.63c0.5,1.19,0.78,2.04,0.25,4.21C77.47,77.55,67,95,50.73,102"/><path d="M60.4,67.03c2.73,0.64,20.56,24.6,29.41,31.09c1.71,1.25,2.79,1.46,4.18,1.59"/></svg>