<svg><path d="M24.46,17c1.04,0.95,1.57,2.21,1.57,3.2c0,2.24,0,9.27,0,15.35"/><path d="M9.82,37.84c1.04,0.02,2.25-0.06,3.27-0.15c5.81-0.56,16.78-1.9,24.67-2.75c1.71-0.18,2.75-0.17,3.61-0.18"/><path d="M13.25,47.4c5.66,10.2,8.23,20.63,8.75,27.35"/><path d="M35.89,41.75c0.99,1.28,0.56,3.96,0.35,4.99c-2.19,10.54-6.78,27.45-8.73,32.92"/><path d="M11,87.52c0.94,1.24,3.05,1.21,3.98,0.72c10.27-5.37,18.67-10.32,27.77-14.74"/><path d="M69.4,11.5c0.64,0.43,1.56,1.53,1.54,2.77c-0.05,3.9-0.05,8.54-0.05,12.08"/><path d="M49.73,25.63c0,3.37-3.03,13.62-4.09,15.87"/><path d="M49.25,29.09c6.25-1.09,38.89-3.08,42.66-3.51c10.62-1.23,2.03,7.05,0.66,8.54"/><path d="M46.47,49.72c1.39,0.39,3.94,0.57,5.33,0.47c9.5-0.62,29.63-3.01,42.09-2.93c2.32,0.02,3.71,0.25,4.87,0.46"/><path d="M72.21,51.11c0.07,0.39,1,2.01,1,4.46c0,14.13-0.2,32.55-0.2,36.56c0,11.36-6.79,0.41-7.99-0.6"/></svg>