<svg><path d="M52.72,8.65c1.19,0.36,1.9,2.34,1.87,3.08c-0.12,2.82-0.22,3.67-0.09,6.07"/><path d="M26.5,21.05c0.89,0.1,2.94,0.59,3.8,0.49c3.54-0.39,36.7-3.3,48.1-3.6c1.47-0.04,2.36-0.03,3.1,0.01"/><path d="M39,24.55c3.69,3.87,4.45,7.44,4.98,10.05"/><path d="M67.14,22.03c1.09,0.61,1.02,1.57,0.87,1.92c-1.53,3.53-3.96,9.51-5.1,11.51"/><path d="M15.75,39.14c1.57,0.14,3.93,0.18,5.42,0.08c14.08-0.97,49.33-4.22,64.82-4.6c2.58-0.06,5.45,0.21,7.01,0.72"/><path d="M32.05,47.6c0.58,0.64,1.45,2.15,1.58,3c0.61,3.9,4.12,21.97,4.12,22.39"/><path d="M33.1,48.9c3.29-0.09,38.93-3.08,41.83-3.49c2.9-0.42,4.41,2.4,4.26,3.47C78,57.25,77,61.75,74.75,70.52"/><path d="M35.69,59.93c4.45,0.01,36.47-2.47,41.49-2.46"/><path d="M37.61,71.26c6.58,0.02,28.68-1.77,37.19-1.74"/><path d="M44.46,74.35c0.06,0.59,0.13,1.54-0.12,2.39c-1.5,5.05-9.38,17.09-21.83,22.92"/><path d="M60.46,72.87c0.65,1.04,1.16,2.26,1.2,3.86c0.17,7.13,0.04,6.56,0.04,11.41c0,11.32,7.76,10.04,15.39,10.04c8.06,0,13.36-1.46,14.49-2.29c2.4-1.74,1.74-2.61,1.96-5.66"/></svg>