<svg><path d="M27.81,14c1.09,1,1.66,2.33,1.66,3.37c0,2.36,0,9.77,0,16.17"/><path d="M11,34.91c1.16,0.3,2.53,0.35,3.68,0.3c6.57-0.26,20.57-1.97,29.49-2.58c1.93-0.13,3.1,0.14,4.07,0.3"/><path d="M17.25,45.25c5.18,10.25,7.53,20.74,8,27.5"/><path d="M40.18,39.98c0.88,1.26,0.5,3.9,0.31,4.9c-1.94,10.36-6.01,26.99-7.74,32.37"/><path d="M12,87.32c0.97,1.2,3.14,1.17,4.1,0.7c10.59-5.19,19.25-9.99,28.65-14.27"/><path d="M69.81,13.63c0.76,0.43,2.36,3.26,2.51,4.13c0.15,0.87-0.25,34.62-0.25,47.37"/><path d="M74.82,42.68c8.41-1.07,16.72-2.82,17.9-2.88s3.28-0.17,4.23-0.02"/><path d="M52.66,65.55c0.49,0.53,0.98,0.97,1.19,1.63c1.68,5.22,3.2,20.11,4.35,29.48"/><path d="M54.21,67.62c11.68-2,32.99-3.13,38.53-3.89c2.02-0.28,3.24,2.8,2.95,4.43c-1.2,6.77-2.7,14.26-4.35,22.84"/><path d="M59.38,94.68c7.68-0.44,24.25-1.53,34.35-1.98"/></svg>