<svg><path d="M24.46,17c1.04,0.95,1.57,2.21,1.57,3.2c0,2.24,0,9.27,0,15.35"/><path d="M10,37.73c1.06,0.38,2.3,0.44,3.35,0.38c5.98-0.33,17.81-1.85,25.94-2.62c1.76-0.17,2.82,0.18,3.71,0.37"/><path d="M14.25,49.15c4.69,10.05,6.82,20.33,7.25,26.95"/><path d="M36.18,42.98c0.88,1.23,0.5,3.81,0.31,4.79c-1.94,10.13-6.01,26.38-7.74,31.64"/><path d="M12.75,88.68c0.96,1.36,3.09,1.33,4.04,0.79C27.22,83.57,35.75,78.11,45,73.25"/><path d="M63.24,16.75c0.32,0.95-0.07,2.02-0.45,3.2C59.7,29.69,53.23,40.42,44.5,48.5"/><path d="M70.75,10.25c7.42,3.44,16.41,24.67,22.59,30.17c2.39,2.13,3.25,3.27,5.56,3.96"/><path d="M53.35,47.77c1.07,0.75,2.52,0.87,3.55,0.8c8.4-0.55,22.85-1.87,27.46-1.87c3.01,0,4.1,1.76,3.57,4.52c-1.42,7.27-6.82,32.99-11.68,41.02c-4.34,7.16-6.71-0.43-7.75-2.75"/><path d="M67.51,50.75c0.09,1.02,0.29,2.68-0.18,4.09C62.06,70.6,54.74,83.72,37.5,96.5"/></svg>