<svg><path d="M26.6,13.25c0.69,1.01,1.04,2.36,1.04,3.41c0,2.39,0,9.9,0,16.38"/><path d="M10.28,34.89c1.2,0.17,2.6,0.15,3.79,0.08c6.74-0.39,20.06-1.63,29.22-2.33c1.98-0.15,3.19-0.01,4.19,0.06"/><path d="M16.25,44.5c4.85,10.72,7.06,21.68,7.5,28.75"/><path d="M38.68,38.98c0.88,1.28,0.5,3.96,0.31,4.99c-1.94,10.55-6.01,27.47-7.74,32.94"/><path d="M10.5,86.56c1.06,1.12,3.42,1.09,4.47,0.65c11.52-4.84,20.96-9.32,31.18-13.31"/><path d="M87.71,15c-0.2,0.98-0.56,2.02-1.17,2.43c-5.71,3.86-17.79,8.85-32.79,12.82"/><path d="M51,45.45c1.11,0.3,3.16,0.39,4.27,0.3c11.57-0.94,26.9-3.17,36.47-3.87c1.83-0.13,2.97,0.14,3.9,0.29"/><path d="M46.76,63.73c1.11,0.21,4.32,0.27,5.42,0.21c13.88-0.71,32.74-4.4,42.77-4.88c1.84-0.09,4.13,0.1,5.05,0.2"/><path d="M69.5,28.75c0.57,1.24,1.03,2.7,1.06,4.6C70.71,41.87,70,76.46,70,81.69c0,13.79,3.38,14.34,14.73,14.34c14.26,0,13.78-2.63,13.78-11.73"/></svg>