<svg><path d="M52.44,11c1.22,1.22,1.44,2.54,1.44,4.54c0,3.18,0,3.46,0,6.62"/><path d="M29.82,24.83c1.9,0.53,4.5,0.41,6.46,0.22c8.53-0.82,27.56-2.89,36.73-3.51c2.19-0.15,4.36-0.04,6.54,0.33"/><path d="M38.5,28c3.51,4.94,5.74,10.88,6.06,14.14"/><path d="M68.37,25.54c0.13,0.84,0.05,1.89-0.11,2.34c-1.63,4.62-4.49,10.36-5.77,12.85"/><path d="M16.33,46.32c3.05,0.82,6.69,0.43,9.79,0.16c15.18-1.3,39.37-3.48,55.63-4.36c3.42-0.19,6.77-0.19,10.17,0.36"/><path d="M29.03,56.78c0.78,0.78,1.09,1.85,1.3,3.23c0.87,5.88,2.29,13.08,3.14,20.25c0.16,1.38,0.32,2.71,0.46,3.95"/><path d="M30.69,58.15c14.94-1.65,32.94-3.52,43.81-4.36c2.64-0.2,4.8,1.66,4.36,4.33c-0.65,4.03-2.17,11.45-3.7,18.17c-0.36,1.58-0.69,3.1-0.97,4.51"/><path d="M33,69.83c5.88-0.7,35.88-3.2,42.76-3.47"/><path d="M35.07,81.7c9.95-0.69,26.33-2.12,38.06-2.7"/><path d="M52.74,58.62c0.82,0.82,0.88,2.09,0.88,3.93c0,4.08-0.03,16.14-0.03,21.7c0,11.38,1.29,13.28,18.92,13.28c16.75,0,18.64-1.53,18.64-10.37"/></svg>