<svg><path d="M51.75,9.25c1,0.75,1.5,1.75,1.5,3.5s0,1.5,0,6.25"/><path d="M28,21.95c2.75,0.3,5.21,0.19,7.75-0.07c9.16-0.93,24.63-2.66,37.25-3.61c2.64-0.2,5.13-0.38,7.75,0.06"/><path d="M38.5,25.38c3.09,3.71,4.77,7.68,5.05,10.12"/><path d="M67.97,23c0.16,0.88,0.15,1.85-0.19,2.6c-1.15,2.53-3.64,6.64-4.77,8.15"/><path d="M14.75,40.05c3.29,0.72,6.75,0.69,10.08,0.37c17.66-1.68,40.01-4.68,59.92-5.34c3.3-0.11,6.48-0.19,9.75,0.25"/><path d="M30.54,47.49c1.08,0.76,1.96,2,2.31,3.43c1.15,4.61,2.38,10.7,3.49,16.44c0.23,1.21,0.46,2.41,0.69,3.57"/><path d="M33.07,48.74c6.12-0.89,30.74-3.63,38.55-4.17c3.58-0.25,6.02,1.01,5.39,5.08c-0.21,1.36-1.41,7.01-3.16,13.05c-0.4,1.4-0.84,2.81-1.3,4.21"/><path d="M35.85,58.04C45,57,64.38,55,74.48,54.19"/><path d="M37.58,68.09c12.3-1.46,26.3-3.09,34.27-3.51"/><path d="M20.13,81.17c3.25,0.58,7.99,0.64,11.76,0.24C45.12,80,66.75,77.75,81.67,77.1c4.1-0.18,7.46-0.35,10.09,0.38"/><path d="M53.21,68.5c1.02,1.02,1.35,2,1.35,3.51c0,3.86-0.08,15.44-0.11,23.24c-0.01,2.53-0.02,4.66-0.02,6"/></svg>