<svg><path d="M25.96,15.75c1.04,0.84,1.57,1.96,1.57,2.82c0,1.98,0,12.61,0,17.97"/><path d="M11.5,37.79c1.05,0.41,2.28,0.47,3.33,0.41c5.93-0.35,17.68-2.46,25.74-3.28c1.75-0.18,2.8,0.19,3.68,0.4"/><path d="M14.5,48.4c5.34,11.13,7.76,22.51,8.25,29.85"/><path d="M38.8,43.75c1.13,1.31,0.64,4.05,0.4,5.1C36.7,59.62,31.98,76.41,29.75,82"/><path d="M12,91.44c0.99,1.36,3.19,1.33,4.17,0.79C26.92,86.33,35.71,80.87,45.25,76"/><path d="M46.46,19.99c1.42,0.41,4.04,0.55,5.46,0.41c12.84-1.22,23.26-2.69,41.64-3.53c2.37-0.11,3.8,0.2,4.99,0.4"/><path d="M70.85,20.88c0.33,0.61,0.39,1.35,0.3,1.89c-0.47,3.14-4.53,11.64-8.22,15.85"/><path d="M52.49,38.15c0.57,1.41,1.27,2.23,1.27,4.19c0,19.91,0.44,46.16,0.44,55.41"/><path d="M54.34,40.3c3.41-0.24,30.69-3.06,33.8-3.34c2.59-0.24,4.26,1.6,4.06,3.02c-0.41,2.87-1.44,40.72-1.76,56.01"/><path d="M54.28,64.63c14.22-0.81,27.22-2.01,35.45-1.93"/><path d="M56,93.24c10.93-0.73,22.56-1.44,32.84-1.88"/></svg>