<svg><path d="M17.64,15.65c0.32,1,0.85,2.56,0.96,3.06c0.11,0.5,0.47,37.46,0.41,40.61"/><path d="M18.71,17.85c3.44-0.44,19.21-3.2,27.2-3.74c1.21-0.08,1.94-0.16,2.55-0.04"/><path d="M32.51,16.58c0.53,0.24,0.85,1.12,0.96,1.62c0.11,0.5,0.15,6.82,0.09,9.98"/><path d="M19.07,29.97c8.22-1.09,18.72-2.21,24.43-2.96c2.31-0.3,2.97,0.73,2.66,2.09c-0.55,2.48-1.84,6.03-2.4,9.01"/><path d="M19.25,41.33c3.43-0.44,22.48-2.3,25.71-2.59"/><path d="M32.68,40.19c0.53,0.24,0.85,1.12,0.96,1.62c0.11,0.5,0.18,9.09,0.12,12.25"/><path d="M19.2,56.23c3.43-0.44,17.3-2.49,25.29-3.03c1.21-0.08,1.94-0.16,2.55-0.03"/><path d="M55.08,19.28c1.06,0.25,1.19,0.61,3.31,0.25c2.12-0.37,20.06-4.71,21.51-5.07c1.46-0.37,2.51,1.34,1.99,2.69c-6.23,15.89-17.22,27.63-29.15,33.62"/><path d="M54.71,25.44c3.51,0.65,20.65,17.9,32.87,24.98c1.9,1.1,3.29,1.83,5.06,2.2"/><path d="M53.23,55.5c0.62,0.62,1.54,2.01,1.54,3.6c0,2.52,0,2.07,0,8.9"/><path d="M28.5,69.79c1.93,0.22,3.89,0.28,4.89,0.24c5.65-0.21,37.03-2.85,45.57-3.03c1.67-0.03,3.96,0.12,4.79,0.24"/><path d="M37.5,72.5c3.18,6.63,5.21,14.63,5.5,19"/><path d="M69.18,71.5c0.49,0.6,0.37,1.59,0.16,2.18C67.71,78.27,62.64,90.36,61,93.5"/><path d="M16.25,95.8c1.75,0.45,5.17,0.51,6.62,0.39c17.38-1.44,47.88-2.19,66.28-3c2.43-0.11,5.35,0.05,7.1,0.88"/></svg>