<svg><path d="M52.75,10.25c1,0.75,1.5,2,1.5,3.75s0,2.5,0,7.25"/><path d="M30.62,23.7c1.82,0.33,3.97,0.5,5.78,0.33c9.72-0.91,25.6-2.53,35.34-2.77c3.04-0.07,4.86,0.16,6.38,0.32"/><path d="M39.25,27.5c2.91,3.82,4.23,7.73,4.5,10.25"/><path d="M66.86,24.5c0.3,0.97,0.21,2.26-0.22,3.19c-1.5,3.25-4.29,8.02-5.39,9.56"/><path d="M14.5,41.85c2.48,0.45,5.4,0.42,7.85,0.2c21.14-1.82,38.61-3.44,61.21-4.23c4.13-0.14,6.61,0.22,8.68,0.44"/><path d="M31.41,49.35c0.75,0.75,1.39,1.6,1.51,2.08c1.25,5.01,2.54,11.82,3.71,18.45c0.19,1.08,0.38,2.15,0.56,3.21"/><path d="M34.18,50.85c13.44-1.35,29.69-3.23,39.52-3.87c3.14-0.21,5.11,1.92,4.57,4.29c-0.82,3.63-2.63,10.84-4.2,15.55c-0.36,1.09-0.71,2.04-1.03,2.79"/><path d="M36.06,60.65c5.81-0.52,34.19-2.65,39.47-2.76"/><path d="M37.53,70.31c8.22-0.41,23.41-1.85,34.77-2.52"/><path d="M53,50.82c1,0.81,1.61,2.02,1.65,4.06c0.2,11.24,0.06,37.64,0.06,40.42"/><path d="M33.5,82.06c1.39,0.37,3.95,0.48,5.34,0.37c11.65-0.93,22.53-2.06,33.69-2.26c2.32-0.04,3.72,0.18,4.88,0.36"/><path d="M17.32,96c2.29,0.64,6.5,0.74,8.79,0.64c23.85-1.07,29.37-1.36,57.94-2.1c3.82-0.1,6.11,0.3,8.02,0.63"/></svg>