<svg><path d="M27.1,21.25c0.95,0.95,1.07,2.16,1.07,3.7s0,6.88,0,11.06"/><path d="M12.04,38.78c1.57,0.44,3.27,0.24,4.85,0.04c5.08-0.65,13.93-2.37,20.23-3.46c1.79-0.31,3.66-0.73,5.48-0.42"/><path d="M17.64,45.15c3.86,8.05,5.61,16.29,5.96,21.59"/><path d="M37.14,39.5c0.49,0.87,0.61,1.87,0.44,2.6c-1.95,8.28-3.33,13.9-5.45,21.4"/><path d="M13.54,75.96c1.08,0.66,2.4,0.46,3.26-0.08c9.07-5.59,10.75-6.43,22.29-12.95"/><path d="M66.79,12c1.1,1.1,1.28,2.25,1.28,3.68c0,6.07,0.05,11.44,0.05,17.28"/><path d="M51.5,23.86c0.61,0.36,0.89,1.91,0.72,2.63c-0.6,2.51-1.39,5.33-1.96,7.8c-0.45,1.98-0.1,3.36,2.4,2.81c9.47-2.1,25-4.4,32.67-4.6"/><path d="M89.28,18.21c0.47,1.04,0.47,1.91,0.22,3.18c-0.57,2.98-1.13,4.73-2.28,9.42c-0.39,1.61-0.97,3.23-1.44,4.94"/><path d="M47.29,49.05c2.83,0.58,5.07,0.25,7.33-0.01c7.69-0.88,21.03-2.86,30.12-3.56c2.58-0.2,5.25-0.48,7.79-0.16"/><path d="M66.97,50.31c0.06,0.71,0.06,1.45-0.33,2.05c-1.4,2.14-2.52,3.82-6.56,8.19"/><path d="M46,63.32c0.9,0.9,1.16,2.3,1.16,4.23c0,1.6,0.09,14.16,0.07,22.2c-0.01,3.05-0.02,5.38-0.02,6.07"/><path d="M47.91,64.5c12.84-1.87,35.71-4.62,41.58-5.13c2.66-0.23,4.26,1.02,4.26,3.05c0,6.71-0.12,22.59-0.15,28.04c-0.03,7.63-3.23,4.17-5.99,1.02"/><path d="M60.26,65.68c1.03,1.03,1.4,2.35,1.4,4.4c0,7.79,0.14,11.1,0.08,16.69c-0.02,1.93-0.03,4.01-0.03,6.44"/><path d="M74.39,63.22c0.94,0.94,1.4,2.15,1.4,3.9c0,8.02,0,13.93-0.03,18.84c-0.01,2.21-0.02,4.26-0.02,6.29"/></svg>