<svg><path d="M30.75,12.5c0.12,1.03,0.02,2.03-0.42,2.95C28,20.38,23.75,26.38,16.5,32.25"/><path d="M29.23,24.29c1.06,0,2.72-0.17,4.68-0.42c3.56-0.46,8.11-1.19,11.83-1.66c2.14-0.27,4.01-0.46,5.25-0.46"/><path d="M34.52,26.58c1.43,1.57,4.19,6.45,4.54,8.88"/><path d="M63.74,12c0,1.38-0.26,2.23-0.68,3.15C61.46,19.7,57.63,25.49,53,30.75"/><path d="M63.98,21.91c1.04,0,2.68,0.09,4.66-0.16c4.97-0.62,12.1-1.93,17.36-2.65c2.24-0.31,4.14-0.51,5.38-0.51"/><path d="M74.28,24.25c0.05,0.61,0.02,1.21-0.23,1.77c-1.42,3.11-2.79,5.36-5.04,8.23"/><path d="M27.42,45.77c2.44,1.23,7.17,0.46,9.6,0.05C47.75,44,61.88,42.5,74.25,41.59c2.98-0.22,6.92-1.02,9.87-0.13"/><path d="M13.13,65.14c4.34,0.83,8.62,0.48,13.01-0.01C43,63.25,63,61.5,81.62,60.82c4.36-0.16,8.7-0.06,13.01,0.57"/><path d="M53.64,46.38c0.8,0.8,1.12,2.24,1.12,3.92c0,2.92-0.08,27.75-0.11,40.94c-0.01,3.71-0.02,6.51-0.02,7.63"/></svg>