<svg><path d="M28.74,15.05c1.11,0.64,1.92,1.68,1.92,3.41c0,1.73,0,4.21,0,8.91"/><path d="M15.28,29.38c1.13,0.14,2.48,0.19,3.61,0.06c4.97-0.56,15.5-1.96,20.99-2.5c1.32-0.13,2.68-0.26,4-0.19"/><path d="M21.35,33.28c1.65,1.84,3.56,6.17,3.83,8.58"/><path d="M38.78,30.39c0.35,0.61,0.49,1.5,0.35,1.91c-1.25,3.58-2.92,6.05-4.12,8.37"/><path d="M11.03,45.82c1.59,0.31,3.24,0.54,4.84,0.32c8.25-1.14,17.4-2.55,24.98-3.4c1.47-0.16,3.14-0.24,4.6-0.03"/><path d="M16.86,53.72c0.96,0.79,1.5,1.81,1.79,3.02c0.57,2.36,1.03,4.91,1.87,8.61c0.18,0.79,0.37,1.63,0.59,2.53"/><path d="M18.7,54.69c6.02-0.93,16.13-2.77,20.42-3.41c1.47-0.22,2.82,1.13,2.54,2.49c-0.71,3.45-1.16,4.23-2.66,8.65"/><path d="M21.68,65.46c3.78-0.24,10.32-1.49,15.97-2.15c0.99-0.12,1.95-0.21,2.86-0.28"/><path d="M24.53,70.55c0.04,0.55,0.08,1.42-0.07,2.22C23.55,77.45,18.71,88.39,11.25,94"/><path d="M34.06,66.88c1.03,1.03,1.43,2.13,1.45,3.51c0.08,4.81-0.26,11.86-0.26,17.11c0,3,0.52,3.75,2.5,1.25c2.38-3,5.88-7.12,11.75-13"/><path d="M67.91,12.92c0.9,0.9,1.33,2.2,1.33,3.67c0,2,0,1.48,0,6.89"/><path d="M53.42,26.13c1.33,0.16,2.78,0.15,4.1-0.03c5.34-0.7,17.87-2.49,24.25-3.26c1.68-0.2,3.36-0.17,5.05-0.09"/><path d="M59.62,29.62c2.04,2.25,3.83,6.54,4.18,8.74"/><path d="M79.95,26.64c0.3,0.61,0.42,1.61,0.16,2.41c-0.95,2.85-3.3,6.8-4.62,9.12"/><path d="M50.78,41.82c2,0.19,4,0.08,5.98-0.12c9.82-0.99,20.76-2.65,31.23-3.47c1.91-0.15,4-0.1,5.72,0.24"/><path d="M55.48,50.87c0.9,0.63,1.36,1.9,1.44,2.96c0.5,2.49,1.33,5.99,2.03,9.66c0.22,1.19,0.43,2.4,0.61,3.59"/><path d="M57.21,51.94c6.31-0.98,17.9-2.16,23.43-2.91c2.97-0.4,4.65,0.84,3.65,3.87c-0.77,2.35-1.96,5.37-2.85,8.18"/><path d="M60.42,63.98c5.44-0.6,12.6-1.21,18.84-1.7c1.31-0.1,2.58-0.2,3.78-0.29"/><path d="M63.38,70c0.04,0.58,0.05,1.5-0.09,2.34c-1.09,6.63-6.63,18.4-15.54,22.41"/><path d="M72.68,66.2c0.93,0.93,1.29,2.31,1.29,3.87c0,5.93,0.03,10.55,0.03,15.81c0,7.38,1.51,8.47,11.76,8.47c8.37,0,9.63-1.22,9.63-7.23"/></svg>