<svg><path d="M30.2,16.43c0.17,0.95,0.19,2.1-0.09,3.24c-1.74,7.09-7.28,22.56-15.48,31.74"/><path d="M24.48,43.58c6.14,0.04,14.59-2.46,21.58-3.72c1.9-0.34,3.43-0.56,4.32-0.56"/><path d="M35.21,45.61c0.96,0.96,1.55,2.39,1.55,4.13c0,10.53-0.09,29.94-0.24,40.26c-0.04,3.02-0.07,4.71-0.07,5.62"/><path d="M68.7,11.68c0.43,1.2,0.21,2.55-0.1,3.79C66.25,24.75,59.75,38,51.14,49.4"/><path d="M64.48,36.08c8.14,0.04,20.64-3.08,28.54-4.71c2.1-0.43,3.83-0.57,4.86-0.57"/><path d="M76.77,37.83c1.08,1.08,2.01,2.79,2.01,5.02c0,14.56-0.01,42.16-0.01,47.12c0,11.03-4.89,4.66-7.96,1"/></svg>