<svg><path d="M30.25,11.75c0,1.62-0.23,2.62-0.73,3.83c-2.27,5.54-6.65,13.19-14.02,20.67"/><path d="M28.73,24.79c0.7,0,1.83-0.12,3.24-0.33c4.23-0.61,10.94-1.91,15.8-2.66c2.16-0.33,3.95-0.3,4.99-0.3"/><path d="M33.52,27.08c2.31,1.83,5.97,7.53,6.54,10.38"/><path d="M64.23,11c0,1.12-0.16,2.37-0.69,3.45c-2.66,5.43-6.79,11.8-12.79,17.05"/><path d="M63.48,21.91c1.39,0.22,2.4,0.12,4.15-0.1c5.18-0.63,13.03-2.08,18.51-2.8c1.96-0.26,3.61-0.42,4.74-0.42"/><path d="M74.02,24.75c0.05,0.55-0.04,1.08-0.29,1.57c-0.8,1.93-1.99,3.8-4.86,6.43"/><path d="M42.65,46.21c0.85,1.29,0.78,2.87,0.37,4.58C39,67.38,33.12,86.25,16.14,97.23"/><path d="M28.83,43.79 c 2.82,0.83 6.17,0.95 9,0.37 9.42,-1.91 15.710998,-3.140249 23.410998,-4.710249 2.94,-0.6 5.80289,-0.739835 5.036029,3.133471 -0.579316,3.440709 -1.880476,9.342185 -3.007196,15.819501"/><path d="M  41.43235,58.443638 c 14.850532,0.76008 15.886649,1.027238 32.285093,-0.970748 2.92,-1.01 4.49,0.35 3.14,2.91 -8.15,15.41 -22.15,34.43 -48.95,41.93"/><path d="M  51.384615,61.466279 C 56.348879,70.717033 66.616215,82.788346 77.61,91.42 c 4.04,3.23 8.5,5.69 13.39,7.37"/></svg>