<svg><path d="M29.49,11c0.04,0.56,0.09,1.46-0.09,2.27C28.35,18.06,22.29,28.57,14,35"/><path d="M28.73,23.29C33,23.5,47.34,21,51.5,21"/><path d="M35.02,24.83c2.66,1.79,6.88,7.35,7.54,10.13"/><path d="M64.73,9.5c0.03,0.5,0.15,1.29-0.07,1.99c-1.67,5.2-6.29,12.62-12.41,19.01"/><path d="M63.98,20.66c5.02-0.16,23.58-2.57,28.9-2.57"/><path d="M74.27,22.75c0.02,0.28,0.05,0.73-0.04,1.14c-0.53,2.39-3.57,7.65-7.73,10.86"/><path d="M35,35c0.06,0.67,0.11,1.73-0.11,2.7c-1.31,5.69-8.84,18.16-19.15,25.8"/><path d="M34.5,45.46c1.31,0.56,3.07,0.35,5.17,0.2c5.58-0.4,37.77-4.95,42.92-5.36c5.14-0.41,6.27,1.77,5.66,6.06c-0.6,4.29-5,36.4-14.5,50.9c-2.67,4.07-5.75-0.5-8.5-2.25"/><path d="M46.49,48.75c0.08,0.82,0.22,2.13-0.15,3.28C42.75,63.34,34.18,74.12,20,83.41"/><path d="M66.02,46c0.11,1.24,0.3,3.21-0.21,4.97C62.75,61.5,50,85.5,29.5,98.5"/></svg>