<svg><path d="M32,9.25c0.05,0.6,0.1,1.55-0.1,2.41c-1.14,5.09-7.69,16.25-16.66,23.09"/><path d="M29.73,23.79c3.71,0,18.61-2.29,22.77-2.29"/><path d="M35.52,26.33c2.47,1.62,6.37,6.65,6.98,9.17"/><path d="M65.23,9.5c0.03,0.55,0.15,1.43-0.07,2.2c-1.67,5.76-6.29,13.98-12.41,21.05"/><path d="M64.73,22.32c4.28,0,23.34-3.14,28.15-3.14"/><path d="M76.71,24.29c0.03,0.23,0.07,0.61-0.07,0.94c-0.8,1.99-4.88,6.85-11.14,9.52"/><path d="M27.07,43.89c3.58,0.92,3.79,0.86,6.14,0.74c14.32-0.74,32.88-3.76,43.97-4.13c3.32-0.11,4.12,1.29,3.61,3.13c-1.34,4.82-2.55,16.77-4.34,25.06"/><path d="M14.7,58.04c2.26,0.3,4.03,0.87,6.53,0.59c21.85-2.38,51.45-4.44,68.79-5.34c2.77-0.14,5.02,0.59,6.28,0.89"/><path d="M26.5,71.72c1.23,0.27,3.46,0.97,4.93,0.82c13.56-1.36,30.3-3.04,42.63-3.59c1.97-0.09,3.21,0,4.69,0.27"/><path d="M52.97,45.01c0.93,0.94,1.41,2.06,1.41,3c0,20.49-2.13,41.24-26.38,52.49"/></svg>