<svg><path d="M28,10.25c0.04,0.58,0.08,1.51-0.08,2.34C26.98,17.53,21.61,28.36,14.25,35"/><path d="M26.98,21c4.22,0,17.78-1.95,22.52-1.95"/><path d="M32.5,22.75c2.4,1.94,6.21,7.96,6.81,10.97"/><path d="M60.24,9.5c0.03,0.46,0.13,1.2-0.06,1.84C58.71,16.17,54.64,23.07,49.25,29"/><path d="M60.5,18.45c5.29,0,24.69-1.94,30.63-1.94"/><path d="M74.96,22.15c0.03,0.28,0.06,0.72-0.05,1.12c-0.65,2.36-4.34,7.56-9.41,10.73"/><path d="M48.05,34.88c0.76,0.54,1.86,1.71,1.82,2.69C48.75,65.75,39.75,86.75,18,97.5"/><path d="M22.25,50.75c2,0.25,3.5,0.25,5.5,0c5.3-0.66,42.23-6.7,43.09-6.75c1.93-0.11,3.86,0.88,3.28,3.46c-0.87,3.8-3.26,22.28-3.5,31.74C70.25,94,74.25,97.5,85.11,97.24c9.13-0.22,10.13-2.99,10.13-11.82"/><path d="M33,62c8.31,3.13,21.48,12.86,23.56,17.72"/></svg>