<svg><path d="M28,12c0.04,0.56,0.09,1.46-0.08,2.27C26.93,19.06,21.26,29.57,13.5,36"/><path d="M28.23,23.79c3.71,0,18.61-2.29,22.77-2.29"/><path d="M33.52,24.83c2.66,1.79,6.88,7.35,7.54,10.13"/><path d="M65.75,10.25c0.04,0.55,0.18,1.43-0.09,2.2c-2.01,5.76-7.56,13.98-14.92,21.05"/><path d="M64.98,21.6c7.02-0.1,22.08-2.72,27.4-2.72"/><path d="M77.54,23.11c0.02,0.25,0.05,0.65-0.05,1.01c-0.58,2.12-3.92,6.78-8.49,9.63"/><path d="M23.25,43.24c1.5,0.45,4.24,0.5,5.75,0.45c9.02-0.32,37.75-3.05,51.26-2.88c2.5,0.03,4,0.21,5.25,0.44"/><path d="M14.25,64.22c1.53,0.33,4.35,0.34,5.87,0.33c10.13-0.05,59.71-3.47,70.27-3.38c2.55,0.02,4.08,0.16,5.36,0.32"/><path d="M40.33,45.12c0.92,0.88,1.17,1.78,1.17,2.96c0,1.19,0.5,2.76,0.5,12.84S35.84,92.16,20.25,97.5"/><path d="M65.51,43.28c1.13,0.78,1.99,2.55,1.99,3.33s0,49.57,0,51.9"/></svg>