<svg><path d="M29.5,14.5c0.25,1,0.18,1.85-0.08,2.71c-1.92,6.41-5.92,15.41-13.67,24.04"/><path d="M27.98,29.04c3.02,0,12.52-1.79,18.14-2.81c1.3-0.24,2.91-0.12,3.63,0.02"/><path d="M31.5,31.62c2.33,2.23,6.39,7.28,6.81,9.34"/><path d="M67.5,13c0.11,0.94-0.05,1.84-0.46,2.69c-1.5,4.02-5.82,10.86-10.54,15.81"/><path d="M65.48,25.66c6.39-0.03,15.89-1.28,22.64-2.4c1.19-0.2,3-0.26,4,0.08"/><path d="M77.12,28.12c0.12,1-0.12,2-0.54,2.78c-1.07,1.99-3.46,4.85-6.46,8.1"/><path d="M23.5,59.69c1.09,1.09,1.73,2.15,1.9,3.02c1.55,8,3.53,19.32,5.54,32.52c0.23,1.49,0.46,3,0.68,4.52"/><path d="M26.2,60.95c15.67-2.7,39.8-5.45,52.68-6.37c3.56-0.26,6.14,1.57,5.7,5.18c-0.92,7.52-3.09,21.4-4.93,32.13c-0.24,1.41-0.48,2.76-0.71,4.04"/><path d="M51.88,37.96c1.02,1.02,1.73,2.41,1.73,3.92c0,12.09,0.2,48.69,0.2,51.85"/><path d="M29.2,78.4c14.92-2.02,39.55-4.9,52.34-5.69"/><path d="M32.39,96.83c14.23-1.58,31.37-3.03,45.93-3.84"/></svg>