<svg><path d="M30.75,14c0.04,0.55,0.08,1.43-0.07,2.23C29.78,20.92,24.65,30.69,17.62,37"/><path d="M30.48,26.29c2.95,0,12.23-2.33,17.78-3.18c1.42-0.22,2.86-0.35,3.99-0.1"/><path d="M36.77,28.83c2.13,1.79,5.51,7.35,6.04,10.13"/><path d="M65.25,14c0.03,0.44,0.14,1.15-0.06,1.77c-1.5,4.64-5.67,11.27-11.18,16.98"/><path d="M64.73,24.91c3.8,0,14.86-2.14,21.91-2.99c1.72-0.21,2.86-0.29,4.24-0.08"/><path d="M76.27,26.75c0.03,0.26,0.06,0.67-0.05,1.04c-0.54,1.79-3.17,5.31-6.95,8.14"/><path d="M63,38.62c-0.12,0.75-0.6,1.51-1.13,1.98c-4.49,3.9-16.64,8.61-31.86,11.96"/><path d="M18.24,63.34c3.64,0.79,7.25,0.65,10.62,0.29c14.01-1.5,36.64-3.5,50.77-4.09c3.08-0.13,6.25-0.29,9.83,0.45"/><path d="M53.03,49.17c0.53,0.65,1.06,1.9,1.04,3.3C53.82,76.74,40,90.62,19.87,97.25"/><path d="M54.51,62.75c6.56,6.61,19.9,21.16,28,27.86c2.09,1.73,4.24,3.52,7.11,4.52"/></svg>