<svg><path d="M29,12.75c0.04,0.55,0.08,1.41-0.08,2.2C27.97,19.59,22.49,29.77,15,36"/><path d="M28.23,24.29c3.71,0,18.11-2.79,22.27-2.79"/><path d="M35.52,26.33c2.13,1.97,5.51,8.08,6.04,11.13"/><path d="M63.5,11.75c0.03,0.44,0.15,1.15-0.07,1.77C61.76,18.17,57.13,24.79,51,30.5"/><path d="M63.48,21.66c4.82,0,24.99-3.07,30.4-3.07"/><path d="M77.99,23.75c0.03,0.28,0.06,0.73-0.06,1.14c-0.72,2.39-4.82,7.65-10.43,10.86"/><path d="M18.25,51.9c0.86,0.12,3.66,0.98,5.94,0.85c13.56-0.76,45.56-4.01,62.61-4.34c2.28-0.04,3.94,0.09,5.94,1"/><path d="M53.4,35.75c0.69,0.49,1.11,2.21,1.25,3.19c0.14,0.98-0.5,54.67-0.64,60.81"/><path d="M53,51.5C45.83,64.08,30.5,81.25,12.75,89"/><path d="M54.5,51c5.56,6.28,27,27.5,35.05,32.95c2.14,1.45,3.7,2.34,5.7,2.8"/><path d="M36.33,83.14c1.23,0.02,3.48-0.08,4.71-0.17c6.46-0.47,21.71-1.97,28.2-1.95c2.05,0.01,3.28-0.14,4.3-0.15"/></svg>