<svg><path d="M31,14.75c0.07,0.98,0.05,1.77-0.31,2.7c-1.98,5.09-5.61,11.73-12.94,19.3"/><path d="M30.23,25.29c2.92,0,12.44-2.42,18.27-3.54c1.56-0.3,2.87-0.49,3.75-0.49"/><path d="M37.52,27.33c1.6,1.44,4.14,5.9,4.54,8.13"/><path d="M64.99,10.5c0.07,0.93-0.02,1.62-0.36,2.49c-1.67,4.3-5.57,10.6-10.62,15.63"/><path d="M64.23,21.16c3.65,0,13.43-2.12,20.5-3.09c2.11-0.29,3.92-0.48,5.14-0.48"/><path d="M72.78,23.75c0.11,0.62-0.02,1.43-0.38,1.94c-1.16,2.43-2.54,4.63-5.14,7.81"/><path d="M37.96,40.5c0.18,1.47-0.05,2.89-0.64,4.14c-3.76,8.01-10.15,18.6-18.76,28.34"/><path d="M32.05,59.69c1.07,1.07,1.22,2.45,1.22,3.81c0,6.6,0.04,19.53,0.06,29c0,2.39,0.01,4.54,0.01,6.25"/><path d="M45.88,54.67c2.77,0.75,5.48,0.39,8.25-0.05c8.49-1.34,19.19-2.99,31.24-4.12c2.62-0.25,5.64-0.26,8.01,0.31"/><path d="M77.25,36.58c1.21,1.21,1.65,2.67,1.65,4.8c0,13.33,0.02,45.43,0.02,49.97c0,8.5-5.96,1.63-7.97,0.23"/><path d="M52.79,67.11c2.97,1.94,7.68,7.99,8.42,11.01"/></svg>