<svg><path d="M30.74,10.75c0.04,0.58,0.09,1.49-0.08,2.32c-1.02,4.89-6.88,15.61-14.91,22.18"/><path d="M29.73,23.5c3.38,0,18.97-1.72,22.77-1.72"/><path d="M36.02,24.83c2.4,1.83,6.19,7.53,6.79,10.38"/><path d="M64.48,10.5c0.04,0.54,0.15,1.4-0.07,2.15c-1.7,5.63-6.42,13.67-12.66,20.6"/><path d="M64.25,21.44c4.82-0.08,24.96-3.04,30.37-3.13"/><path d="M77,24.25c0.02,0.32,0.05,0.82-0.05,1.28c-0.6,2.69-4.02,8.6-8.7,12.22"/><path d="M17.25,53.16c0.88,0.75,2.14,0.93,3.05,0.92c7.37-0.14,27.07-3.6,31.1-3.39c2.62,0.14,2.8,2.28,2.27,4.88C51.63,65.6,48.9,85.14,42.75,94c-5.74,8.27-7.13-0.98-8-2"/><path d="M36.72,40.25c0.22,0.31,0.26,1.66,0.15,3.21C35.84,57.83,30.75,83.25,15,95.75"/><path d="M61.65,48.88c0.4,0.84,1.37,3.05,1.44,4.09c0.66,10.53,1.58,29.21,1.77,43.85"/><path d="M62.66,50.3C71.1,49.14,80,48,87.28,47.67c2.56-0.11,3.47,1.08,3.11,3.61C89.2,59.75,88.25,75,87,92.5"/><path d="M65.07,93.64c6.52-0.33,15.9-0.72,24.43-1.14"/></svg>