<svg><path d="M29.5,11.75c0.03,0.55,0.08,1.43-0.07,2.22c-0.87,4.69-5.85,14.98-12.68,21.28"/><path d="M28.23,24.79c3.71,0,18.11-3.79,22.27-3.79"/><path d="M34.52,26.83c1.6,1.61,4.14,6.63,4.54,9.13"/><path d="M63.24,10.5c0.03,0.5,0.13,1.31-0.06,2.01c-1.44,5.26-5.41,12.77-10.68,19.24"/><path d="M62.48,21.66c4.73,0,22.08-3.57,27.4-3.57"/><path d="M75.27,23.75c0.02,0.24,0.04,0.61-0.04,0.95c-0.43,2-2.88,6.37-6.24,9.05"/><path d="M66.26,38c0.09,0.29-0.7,1.8-1.21,2.11c-3.88,2.36-13.75,6.26-30.97,9.54"/><path d="M15.6,61.93c1.46,0.34,5.11,0.5,6.55,0.34c11.07-1.23,48.01-6.27,65.4-6.47c2.43-0.03,3.89,0.16,5.1,0.34"/><path d="M52.77,47.99c0.56,0.31,1.74,2.32,1.85,2.94c0.21,1.15-0.07,19.6-0.18,23.59"/><path d="M31.62,75.65c0.31,0.41,0.64,0.74,0.77,1.25c1.09,4.02,3.39,15.12,4.14,22.34"/><path d="M33.29,78.11c6.19-1.23,40.95-5.46,44.45-5.84C80.25,72,82.81,73,82.5,75.24c-0.62,4.53-4.34,11.46-5.46,17.7"/><path d="M36.49,95.99c5.76-0.49,34.01-2.74,41.23-3.13"/></svg>