<svg><path d="M29.49,12.25c0.04,0.61,0.09,1.57-0.09,2.44C28.31,19.82,22.06,31.1,13.5,38"/><path d="M27.48,25.48c3.99,0,19.54-2.93,24.02-2.93"/><path d="M32.75,27.25c2.76,2.07,7.12,8.5,7.81,11.72"/><path d="M66.49,10c0.03,0.43,0.13,1.12-0.06,1.73C65.03,16.25,61.14,22.7,56,28.25"/><path d="M64.48,22.58c4.53,0,22.56-3.42,27.65-3.42"/><path d="M78.99,24c0.03,0.33,0.06,0.85-0.06,1.32C78.22,28.12,74.12,34.25,68.5,38"/><path d="M51.25,32.75c0.11,0.88,0.42,2.32-0.22,3.55C47.04,43.9,33.35,60.06,11.5,70.25"/><path d="M51.25,37.33c6.71,4.3,29.18,19.02,35.25,22.28c2.06,1.11,4.7,1.58,6.75,1.9"/><path d="M35.5,61.45c0.8,0.28,3.39,0.6,4.2,0.52c3.74-0.37,20.33-1.89,29.35-2.18c1.23-0.04,2.34,0.05,3.36,0.28"/><path d="M52.6,62.88c1.18,0.96,1.18,1.54,1.18,2.31c0,5.4,0.59,23.04,0.3,28.44"/><path d="M34.5,78.04c0.92,0.64,3.96,0.31,4.91,0.28C50,78,60.59,76.71,72.12,75.58c1.15-0.11,3.68-0.26,5.4,0.3"/><path d="M20.35,97.08c0.81,0.47,5.02,0.16,6.4,0.01c19.5-2.09,38.91-3.49,59.44-4.66c2.21-0.12,4.86,0.8,5.96,1.55"/></svg>