<svg><path d="M29.42,13.69c0.09,1.24-0.08,2.27-0.54,3.44c-1.8,4.57-7.58,12.61-13.63,17.49"/><path d="M28.14,25.82c2.88,0,10.52-1.91,15.98-2.87c1.82-0.32,3.4-0.53,4.47-0.53"/><path d="M33.18,27.92c1.66,1.48,4.29,6.1,4.7,8.41"/><path d="M61.79,13.13c0.06,0.98-0.03,1.75-0.33,2.69c-1.5,4.57-4.96,10.72-9.46,16.06"/><path d="M62.04,24.35c3.92,0,18-2.93,25.69-4.01c1.93-0.27,3.55-0.19,4.65-0.19"/><path d="M73.45,26.47c0.06,0.64-0.05,1.25-0.33,1.83c-0.91,2.23-3.37,5.33-6.75,8.26"/><path d="M23.34,41.15c0.69,0.69,0.9,1.85,0.95,3.09c1.08,25.25-2.3,40.63-11.55,51.2"/><path d="M25.18,44.35c4.07-0.98,13.82-2.9,15.98-3.19c2.22-0.29,4.09,1.08,4.09,4.06c0,3.28,0.02,30.2,0.02,44.31c0,9.06-6.28,0.96-7.74-0.43"/><path d="M25.61,56.39c5.76-0.77,11.14-1.89,18.51-2.64"/><path d="M24.63,69.28c7.99-0.91,13.24-1.66,19.58-2.31"/><path d="M56.66,52.27c2.09,0.35,4.02,0.42,5.58,0.15c8.32-1.4,23-4.26,26.22-4.45c3.57-0.21,3.87,1.75,3.65,4.44c-0.85,10.33-4.73,26.83-9.67,36.96c-4.25,8.71-8.3,3.37-9.77,1.32"/><path d="M73.44,38.68c0.81,1.32,0.92,2.91,0.61,4.8c-2.31,13.97-7.8,40.82-24.66,51.43"/></svg>