<svg><path d="M31.75,11.25c0.08,1.09-0.02,1.81-0.46,2.82C29.36,18.45,24.34,26.08,18.25,31"/><path d="M29.23,22.04c2.94,0,11.09-1.69,16.52-2.28c1.42-0.16,2.62-0.13,3.75,0"/><path d="M37.14,23.96c1.74,1.45,4.48,7.5,4.92,9.76"/><path d="M65.99,10c0.03,0.37,0.14,0.97-0.06,1.49c-1.5,3.9-4.16,8.22-9.67,13.01"/><path d="M64.98,19.66c6.02-0.03,14.27-1.16,19.9-2.11c1.56-0.26,2.87-0.17,4,0.04"/><path d="M72.5,21.75c0.09,0.61-0.01,1.43-0.32,1.95c-1.23,2.89-3.19,5.51-5.68,8.05"/><path d="M29.11,43.3c3.02,0.58,5.08,0.27,7.5-0.03c8.3-1.05,26.12-3.19,36.02-3.78c2.17-0.13,4.36-0.27,6.51,0.11"/><path d="M52.4,29.87c0.87,0.87,1.22,2.13,1.22,3.29c0,7.84-0.11,18.87-0.11,20.93"/><path d="M16.88,57.94c2.75,0.43,5.94,0.33,8.87,0.03C44.31,56.1,67,53.62,83.12,52.83c3.16-0.16,6.36,0.07,9.5,0.55"/><path d="M24.5,71.57c2.75,0.43,6.47,0.32,9.37,0.09c12.62-0.97,35.73-3.39,47.13-4c2.54-0.14,5.06-0.21,7.58,0.25"/><path d="M65.97,56.89c0.88,0.88,1.59,2.23,1.59,3.55c0,10.03-0.14,30.11-0.14,33.53c0,8.4-5.54,1.65-7.82-0.33"/><path d="M41.61,76.66c2.33,1.51,6.03,6.23,6.61,8.59"/></svg>