<svg><path d="M29.08,12.17c0.08,1.18-0.06,2.21-0.41,3.34c-1.49,4.75-5.86,12.65-12.3,17.99"/><path d="M29.23,23.29c2.78,0,9.92-1.57,15.2-2.35c1.76-0.26,3.07-0.44,4.32-0.19"/><path d="M32.25,25.75c2.29,1.76,5.93,7.26,6.5,10"/><path d="M65.59,11.33c0.12,1.01-0.09,1.96-0.62,2.84c-1.59,3.58-4.84,8.18-8.97,12.2"/><path d="M63.98,22.16c3.8,0,15.47-1.56,22.26-2.46c1.66-0.22,3-0.19,4.13,0.14"/><path d="M75.08,24.08c0.06,0.8-0.08,1.56-0.43,2.28c-0.92,2.38-3.15,6.01-6.02,8.39"/><path d="M51.41,31.58c0.1,0.89-0.11,2.88-0.7,4.08c-4.85,9.78-14.34,21.24-33.33,33.83"/><path d="M52.5,34.25c5.35,3.93,21.23,16.97,33.57,25.51c3.02,2.09,5.79,3.54,9.43,4.24"/><path d="M39.43,60.93c1.45,0.44,2.84,0.5,4.98,0.21C53,60,59.25,59.25,64.52,58.72c1.24-0.12,3.05-0.15,3.67-0.04"/><path d="M34.57,74.92c0.6,0.57,1.33,1.92,1.49,2.67c1.68,8.04,2.08,12.98,2.79,18.65c0.15,1.17,0.3,1.89,0.49,3.21"/><path d="M37.02,76.14c11.35-1.57,27.42-2.85,34.41-3.64c2.93-0.33,4.69,2.2,4.26,4.13c-1.42,6.56-2.39,9.4-4.57,16.29"/><path d="M40.37,96.12c8.38-0.49,17.89-1.17,28.65-1.75c1.32-0.07,2.65-0.14,3.98-0.21"/></svg>