<svg><path d="M27.75,10.5c0.03,0.48,0.07,1.25-0.07,1.94C26.88,16.53,22.29,25.5,16,31"/><path d="M27.23,20.59c3.89,0,16.4-1.79,20.77-1.79"/><path d="M31.5,22.75c2.23,1.54,5.75,6.33,6.31,8.72"/><path d="M59.74,8.5c0.03,0.42,0.12,1.11-0.06,1.7c-1.3,4.46-4.91,10.82-9.69,16.3"/><path d="M59.98,18.19c4.32,0,20.67-3.46,25.52-3.46"/><path d="M69.77,20.75c0.02,0.22,0.05,0.58-0.05,0.9c-0.58,1.9-3.91,6.06-8.47,8.6"/><path d="M43.7,30.93c0.06,0.6,0.21,1.58-0.11,2.4c-2.18,5.58-9.16,16.14-19.84,22.92"/><path d="M42.39,39.17c2.89-0.58,17.12-2.44,20.13-3.22c2.58-0.67,3.27,1.27,2.33,2.22c-3.97,3.97-6.38,8.25-10.39,13.34"/><path d="M30.93,54.92c2.39,0.13,3.54,0.44,5.73,0.23c13.36-1.27,27.92-3.22,38.13-4.27c3.08-0.32,4.78,0.88,4.32,3c-1.19,5.54-2.87,11-4.86,20.62"/><path d="M14.75,68.48c2.26,0.15,4.03,0.51,6.52,0.23c21.78-2.48,52.42-5.55,69.71-6.78c2.76-0.2,5.02,0.28,6.27,0.46"/><path d="M28.65,78.92c1.29,0.1,3.61,0.39,5.15,0.26c14.13-1.22,26.95-3.36,39.8-4.09c2.05-0.12,3.34-0.12,4.89-0.02"/><path d="M53.62,55.86c0.82,0.8,1.39,1.74,1.46,4.39c0.33,12.72-0.21,31.65-0.21,35.98c0,8.33-6,1.31-7.25,0.22"/></svg>