<svg><path d="M29.25,11c0.04,0.56,0.08,1.46-0.08,2.27C28.21,18.06,22.74,28.57,15.25,35"/><path d="M26.5,24.07c4.5,0,18.95-2.62,24-2.62"/><path d="M34.77,25.33c2.29,1.97,5.91,8.1,6.48,11.17"/><path d="M61.73,10.75c0.03,0.49,0.14,1.27-0.07,1.96c-1.6,5.14-6.04,12.47-11.91,18.79"/><path d="M60.25,21.82c5.4,0,25.19-2.64,31.25-2.64"/><path d="M75.99,22.75c0.03,0.31,0.06,0.79-0.05,1.23c-0.66,2.59-4.47,8.29-9.68,11.77"/><path d="M28.57,48.75c0.56,1.33,0.87,1.94,0.82,3.6c-0.43,15.26-2.4,30.83-16.33,45.12"/><path d="M25.75,47.74c1.56,0.56,4.43,0.65,6,0.56c8.94-0.51,37.01-3.08,48.53-3.84c2.6-0.17,4.17,0.27,5.47,0.55"/><path d="M29.01,66.24c0.99,0.26,1.65,0.24,2.58,0.1c5.93-0.9,14.18-2.05,16.02-2.02c2.13,0.03,2.47,1.3,1.99,3.64C49.12,70.31,47.14,86.8,42.13,93c-2.99,3.7-5,0.1-6.2-3.12"/><path d="M56.25,34.5c1.61,1.33,2.31,1.69,2.62,4.56c2.32,21.88,11.88,46.69,32.4,55.81c6.33,2.82,5.43,0.57,4.63-5.31"/><path d="M83.96,56.14c0.1,0.98,0.21,2.53-0.2,3.94c-2.48,8.31-16.5,29.17-35.5,37.67"/><path d="M78.75,32c4.32,1.8,11.23,5.91,13.25,9"/></svg>