<svg><path d="M29.49,9.75c0.05,0.58,0.1,1.49-0.09,2.32c-1.14,4.89-7.69,15.61-16.65,22.18"/><path d="M27.73,22.29c3.71,0,18.61-2.29,22.77-2.29"/><path d="M33.02,23.83c2.66,1.79,6.88,7.35,7.54,10.13"/><path d="M61.98,9.5c0.04,0.52,0.16,1.35-0.07,2.08c-1.7,5.45-6.42,13.22-12.66,19.92"/><path d="M62.98,18.85c4.49,0,22.36-2.72,27.4-2.72"/><path d="M74,21.75c0.03,0.26,0.06,0.67-0.06,1.04c-0.7,2.19-4.71,7.01-10.2,9.96"/><path d="M81.26,31.25c0.09,0.35,0.36,1-0.19,1.4c-6.8,4.9-16.85,9.4-34.57,13.35"/><path d="M66.06,44.96c0.19,0.31,1.34,2.89,1.34,3.51c0,3.03,0,28.19-0.04,32.06"/><path d="M68.95,59.02c5.28-0.24,10.33-0.79,15.88-0.95c1.29-0.04,1.62-0.08,2.42,0"/><path d="M49.03,55.16c0.84,0.33,1.31,1.4,1.46,2.01c0.15,0.61-0.26,17.38-0.26,18.53c0,1.8,2.25,4.58,5.6,4.74C67.25,81,74.25,80.5,86,79.5c1.7-0.14,4.17-0.14,5.14,0.04"/><path d="M16.25,44.01c1.01,0.61,2.62,1.02,4.03,0.61c1.41-0.41,8.76-2.75,11.58-3.57c2.82-0.82,2.88,0.92,2.01,2.1c-1.61,2.19-8.66,16.17-11.48,21.07"/><path d="M22.73,63.97c3.51-0.72,10.54-3.29,12.94-3.47c2.4-0.18,4.71-0.58,3.88,2.57C36.25,75.5,29.25,89,14.25,98.85"/><path d="M16.5,74.09c6.01-0.16,33.25,17.66,65.9,23.13c4.02,0.67,8.08,1.01,11.1,1.28"/></svg>