<svg><path d="M27.49,12c0.04,0.56,0.09,1.44-0.08,2.25c-1,4.74-6.77,15.14-14.66,21.5"/><path d="M25.5,22.8c4.36,0,18.35-1.85,23.25-1.85"/><path d="M32.02,24.58c2.64,1.88,6.82,7.74,7.48,10.67"/><path d="M62.5,10.75c0.03,0.52,0.14,1.37-0.07,2.1C60.83,18.36,56.39,26.23,50.5,33"/><path d="M61,20.67c4.99,0,23.28-3.01,28.88-3.01"/><path d="M74.74,21.5c0.03,0.33,0.06,0.85-0.06,1.32C73.95,25.62,69.75,31.75,64,35.5"/><path d="M24.72,41.56c0.29,1,0.7,1.72,0.71,3.08c0.06,10.23,0.07,34.92-0.09,54.47"/><path d="M25.88,43.59c15.73-1.92,45.84-3.89,56.38-4.38c2.4-0.11,3.1,1.64,3.06,3.8c-0.2,11.3-0.82,38.06-0.37,53.99"/><path d="M62.76,44.5c0.07,0.26,0.14,0.67-0.13,1.04c-1.57,2.19-10.57,7.01-22.89,9.96"/><path d="M35.39,63.56c0.51,0.08,1.89,0.2,3.26,0.23c3.78,0.08,23.83-2.47,33.27-2.85c1.37-0.05,1.72-0.08,2.58,0"/><path d="M54.96,52.56c0.25,0.23,0.41,1.04,0.46,1.5c0.05,0.46,0,31.81-0.05,34.69"/><path d="M55.04,62.99C50.5,71.5,42.25,80.5,33.25,85.5"/><path d="M59.25,68.5C65.16,71.82,70.31,75.52,75,81"/><path d="M26.6,96.44c11.02-0.54,42.63-2.55,57.85-3.59"/></svg>