<svg><path d="M30.5,12.75c0.03,0.46,0.07,1.2-0.07,1.87C29.58,18.56,24.69,27.21,18,32.5"/><path d="M28.73,23.85c4.36,0,18.37-2.67,23.27-2.67"/><path d="M36.77,25.83c1.87,1.61,4.83,6.63,5.29,9.13"/><path d="M63.75,12.5c0.03,0.4,0.11,1.04-0.05,1.61c-1.27,4.21-4.79,10.22-9.44,15.39"/><path d="M63.48,22.16c4.73,0,22.08-3.07,27.4-3.07"/><path d="M76.77,23.75c0.02,0.22,0.04,0.56-0.04,0.88c-0.46,1.85-3.11,5.9-6.74,8.37"/><path d="M25.41,37.75c4.09,1.58,10.57,6.52,11.59,8.98"/><path d="M21,55.12c3.51,1.39,9.07,5.72,9.95,7.88"/><path d="M20.25,91.72c1.64,0.99,3.62,1.03,4.65-0.19c3.01-3.57,6.02-7.93,8.76-12.48"/><path d="M67,39.25c0.5,0.61,0.69,1.38,0.46,1.88c-1.66,3.69-6.82,10.6-12.38,14.79"/><path d="M50.71,55.29c0.59,1.04,1.19,2.78,1.19,4.17c0,1.39,1.69,29.95,1.69,38.29"/><path d="M52.26,57.34c3.35-0.17,29.52-2.87,32.57-3.11c2.92-0.23,3.73,1.14,3.72,3.33c-0.01,3.75-1.53,27.17-2.16,38.64"/><path d="M53.22,75.21c7.02-0.52,28.88-2.85,34-2.85"/><path d="M54.39,95.49c8.4-0.56,22.84-1.89,31.8-2.15"/></svg>