<svg><path d="M30,11.25c0.03,0.46,0.07,1.2-0.07,1.87C29.1,17.06,24.31,25.71,17.75,31"/><path d="M29.73,21.79C33.44,21.79,46.84,19,51,19"/><path d="M35.77,22.33c2.04,1.35,5.28,5.54,5.79,7.63"/><path d="M62.25,10c0.03,0.4,0.11,1.04-0.05,1.61c-1.2,4.21-4.53,10.22-8.95,15.39"/><path d="M63.48,18.16c4.73,0,22.08-3.07,27.4-3.07"/><path d="M72.77,21.25c0.02,0.18,0.04,0.47-0.04,0.73C72.27,23.53,69.62,26.92,66,29"/><path d="M25,45.62c1.02,0.31,3.89,0.36,4.9,0.31c12.85-0.68,39.35-3.77,51.53-4.19c1.7-0.06,2.72,0.15,3.57,0.3"/><path d="M39.37,35.88c1.09,0.43,1.74,1.94,1.96,2.81c0.22,0.86,0,33.5-0.22,38.89"/><path d="M65.37,33.5c1.09,0.43,1.74,1.94,1.96,2.81c0.22,0.86,0,33.66-0.22,39.05"/><path d="M41.75,55.98c4-0.22,21.75-2.16,25.5-2.37"/><path d="M41.5,65.57c4.5-0.22,19-1.73,25.5-1.94"/><path d="M16.25,77.48c1.52,0.47,4.3,0.99,5.82,0.97c13.93-0.2,47.68-2.95,64.61-4.01c2.53-0.16,4.05,0.22,5.31,0.46"/><path d="M42.08,84.47c0.06,0.37,0.23,1-0.12,1.49c-2.72,3.83-9.5,10.04-20.57,14.26"/><path d="M65.27,83.38c6.1,2.76,15.77,11.33,17.29,15.62"/></svg>