<svg><path d="M27.49,10.75c0.04,0.58,0.08,1.49-0.08,2.32c-0.97,4.89-6.54,15.61-14.16,22.18"/><path d="M27.25,24.26c4.45,0,18.75-2.81,23.75-2.81"/><path d="M34,25.75c1.96,1.36,5.07,5.6,5.56,7.72"/><path d="M62.99,10.25c0.04,0.51,0.16,1.34-0.08,2.06C61.14,17.69,56.24,25.38,49.75,32"/><path d="M60.98,21.36c5.08,0,23.19-3.97,28.9-3.97"/><path d="M75.02,22.75c0.02,0.21,0.05,0.55-0.04,0.85c-0.53,1.8-3.57,5.74-7.73,8.15"/><path d="M22.27,40.23c0.73,0.81,1.22,1.62,1.46,2.44c0.24,0.81,0.19,13.1,0.19,14.93c0,13.2-2.68,31.41-11.04,38.9"/><path d="M24.62,41.41c2.73-0.2,14.31-1.95,16.35-2.17c3.64-0.39,4.06,2.48,4.06,3.74c0,4.77-0.1,31.7-0.1,47.66c0,9.86-4.67,3.86-7.07,1.27"/><path d="M25.37,55.68c9.65-0.98,10.31-1.38,17.87-1.97"/><path d="M23.43,70.15c6.85-0.37,12.92-1.34,20.95-1.7"/><path d="M56.8,37.65c1.95,0.35,3.83,0.34,5.21,0.17c5.52-0.69,17.27-2.2,18.99-2.34c-0.63,0.05,3.75-0.23,3.23,3.38c-0.5,3.5-1.2,7.84-2.8,10.57c-3.44,5.87-3.68,2.57-6.81,0.03"/><path d="M58.19,38.86c0.34,0.38,0.54,1.71,0.6,2.48c0.07,0.76,0,52.4-0.07,57.16"/><path d="M59.65,63.25c2.05,0.74,4.78,0.62,6.52,0.25c1.74-0.37,15.17-3.19,16.37-3.55c2.21-0.66,3.95,0.54,3.53,1.9C81.43,76.84,75,88.25,64.08,96.31"/><path d="M63.44,65.28c2.91,0.75,17.11,20.81,27.23,29.03c1.58,1.28,2.72,2.13,4.19,2.56"/></svg>