<svg><path d="M27,12c0.1,0.87,0.02,1.72-0.22,2.54c-2.03,4.71-5.5,10.93-11.78,17.21"/><path d="M27.73,20.29c1.14,0.16,2.27,0.18,3.4,0.05c3.73-0.32,9.42-1.25,13.62-1.72c1.66-0.21,3.32-0.25,5-0.12"/><path d="M35.52,22.83c1.96,1.35,5.05,5.54,5.54,7.63"/><path d="M62.24,9.5c0,0.88-0.25,1.78-0.66,2.59c-1.64,4.13-5.2,9.3-10.08,14.16"/><path d="M61.98,18.16c1.56,0.13,3.11,0.12,4.65-0.04c5.3-0.5,13.39-1.74,19.11-2.35c1.95-0.22,3.91-0.28,5.88-0.18"/><path d="M72.52,20.75c0,0.75-0.27,1.24-0.64,1.75c-1.51,2.12-2.88,4-6.88,7"/><path d="M34.86,33.36c2.94,1.64,7.34,6.24,8.08,8.8"/><path d="M71.51,31.75c0.04,0.77-0.39,1.45-0.82,2.04c-1.45,2.24-3.7,5.21-6.38,7.39"/><path d="M15.88,46.89c2.67,0.46,5.34,0.55,8.01,0.28c17.2-1.68,35.82-3.54,59.61-4.55c3.41-0.17,6.81-0.01,10.21,0.48"/><path d="M24.61,55.02c0.75,0.75,0.89,1.86,0.89,3.02c0,0.48,0,22.17,0,33.46c0,3.06,0,5.35,0,6.25"/><path d="M26.89,56.11c1.54-0.13,13.77-2.02,17.88-2.63c3.55-0.53,4.1,1.27,4.1,4.39c0,6.62-0.08,26.6-0.08,36.87c0,7.01-4.29,2.26-6.78-0.17"/><path d="M 31.759167,65.03 c 2.63,1.08 9.525,7.85625 10.185,9.53625"/><path d="M 31.759167,77.860208 c 2.63,1.08 9.525,7.85625 10.185,9.53625"/><path d="M64.96,55.11c0.71,0.71,0.96,2.14,0.96,3.57c0,6.61,0,13.88,0,19.45c0,2.93,0,5.39,0,7.04"/><path d="M81.94,49.66c0.89,0.89,1.21,2.47,1.21,4.12c0,11.73,0,34.01,0,37.93c0,9.55-3.4,5.3-8.38,1.82"/></svg>