<svg><path d="M32.5,9.75c0.04,0.45,0.08,1.17-0.08,1.82C31.46,15.41,25.99,23.84,18.5,29"/><path d="M29.73,19.79c3.71,0,17.61-3.29,21.77-3.29"/><path d="M34.77,21.58c1.87,1.3,4.83,5.36,5.29,7.38"/><path d="M61.25,9c0.02,0.36,0.1,0.94-0.05,1.44c-1.07,3.78-4.03,9.17-7.96,13.81"/><path d="M61.98,17.16c4.73,0,22.08-3.57,27.4-3.57"/><path d="M74.27,17.75c0.02,0.22,0.04,0.58-0.04,0.9c-0.45,1.9-3,6.06-6.49,8.6"/><path d="M23.99,35.77c3.49,3.1,7.23,8.52,7.73,10.07"/><path d="M45.52,32.9c1.8,1.82,6.11,6.6,6.83,9.56"/><path d="M80.01,29.25c0.46,0.59,0.95,1.93,0.19,2.88c-1.7,2.12-6.2,8.37-10.41,12.02"/><path d="M28.17,51.82c0.34,0.4,1.34,2.18,1.53,2.68c1.52,4.14,2.44,11.9,3.4,19.58"/><path d="M29.73,52.48c12.63-1.39,38.98-3.77,47.68-4.48c3.19-0.26,5.12,0.56,5.03,2.3c-0.22,4.14-3.75,17.68-4.32,19.41"/><path d="M32.88,61.16c3.79-0.33,44.02-3.11,47.15-3.22"/><path d="M33.68,72.31c10.99-1.32,32.5-3.03,44.53-3.84"/><path d="M17.98,83.57c1.38,0.56,3.92,0.69,5.31,0.56c9.21-0.88,49.38-4.61,66.63-5.37c2.3-0.1,3.69,0.27,4.84,0.54"/><path d="M54.47,51.75c0.58,0.3,0.94,1.14,0.95,2.17c0.04,5.2,0.17,45.9,0.19,47.6"/></svg>