<svg><path d="M32.25,12c0.03,0.46,0.14,1.22-0.07,1.87c-1.43,4.51-6.88,12.59-13.43,17.88"/><path d="M30.73,23.54c2.83,0,12.39-1.41,17.02-2.18c1.76-0.29,3.27-0.11,4.25-0.11"/><path d="M35.89,25.96c1.65,1.55,4.26,6.35,4.67,8.76"/><path d="M65.25,10.75c0.03,0.4,0.11,1.04-0.05,1.61c-1.24,4.21-4.41,10.22-8.94,15.39"/><path d="M64.98,21.16c3.76,0,14.82-2.25,21.89-3.18c1.84-0.24,3-0.35,4.51-0.14"/><path d="M76.27,23c0.02,0.26,0.05,0.67-0.05,1.04c-0.49,1.77-2.84,5.26-6.22,8.09"/><path d="M52.04,30c0.92,0.92,1.45,2.12,1.45,3.27c0,2.84-0.08,2.76-0.08,5.34"/><path d="M22.48,40.78c0,3.38-3.63,13.91-4.85,16.17"/><path d="M23.76,42.84c18.87-2.47,42.76-5.33,62.49-6.26c9.88-0.46,2.88,5.91-0.67,8.36"/><path d="M37.87,50.74c1.07,1.07,1.46,2.26,1.46,3.75c0,0.74,0.02,28.57,0.03,41.39c0,2.24,0,4.03,0,5.12"/><path d="M40.25,52.54c8.3-1.17,20.67-2.87,26.38-3.51c2.45-0.27,4.4,0.08,3.62,2.88c-1,3.58-1.91,6.44-3.34,11.24"/><path d="M40.25,67.75C46.88,67,57.18,65.62,65,64.76c1.32-0.14,2.56-0.27,3.71-0.38"/><path d="M40.5,80.59c8.56-1.11,20.19-2.65,26.25-3.33c4.19-0.47,5.2,0.67,4.5,3.28c-1,3.75-2.16,7.13-3.59,12.38"/><path d="M40.5,96.75c4.95-0.46,16.27-1.68,25.13-2.46c1.53-0.13,2.99-0.25,4.33-0.35"/></svg>