<svg><path d="M26.5,12.25c0.03,0.49,0.07,1.28-0.06,1.99c-0.77,4.19-5.17,13.38-11.19,19.01"/><path d="M27.73,21.29C31.44,21.29,44.84,18,49,18"/><path d="M34.27,22.83c2.04,1.7,5.28,6.99,5.79,9.63"/><path d="M60.75,10c0.02,0.36,0.1,0.94-0.05,1.44c-1.07,3.78-4.03,9.17-7.96,13.81"/><path d="M60.98,17.66c4.73,0,24.08-3.57,29.4-3.57"/><path d="M71.78,18.75c0.01,0.26,0.03,0.68-0.03,1.06c-0.34,2.24-2.31,7.17-5,10.19"/><path d="M33,42.6c0.77,0.26,2.19,0.3,2.96,0.26c8.79-0.42,23.04-3.4,31.71-3.58c1.29-0.03,2.06,0.12,2.71,0.25"/><path d="M51.92,31.37c0.12,0.23,1.65,1.21,1.77,2.68C54.26,41.11,54,51.99,54,54.4"/><path d="M15.75,58.79c1.75,0.37,4.44,0.69,6.01,0.55c8.74-0.77,58.24-6.62,68.37-6.79c2.61-0.04,4.18,0.26,5.49,0.54"/><path d="M81.59,31.52c0.17,1.04,0.93,2.94-0.34,4.17C64.84,51.49,46,66.25,17.81,79.4"/><path d="M59.5,58.75c2.84,1.19,7.35,4.87,8.06,6.72"/><path d="M42.77,69.73c0.45,0.71,0.91,1.06,0.91,2c0,0.94,1.2,25.88,1.2,26.35s0.15,0.47,0.3,1.41"/><path d="M44.43,71.35c4.09-0.19,31.44-4.45,32.25-4.5c1.94-0.12,3.19,1.31,3.04,2c-0.31,1.41-0.46,16.24-0.45,26.59c0,1.06-0.15,1.53-0.15,2.23"/><path d="M44.88,84.1c4.12-0.6,29.28-4.03,33.19-4.03"/><path d="M46.22,96.86c7.05-0.51,23.06-1.86,31.84-2.29"/></svg>