<svg><path d="M27,9.75c0.03,0.56,0.07,1.44-0.07,2.25c-0.8,4.74-5.4,15.13-11.69,21.5"/><path d="M26.64,20.59c4.34,0.23,18.48-2.8,23.36-2.54"/><path d="M32.77,23.08c3.08,1.97,7.96,8.1,8.73,11.17"/><path d="M60.75,10.25c0.03,0.48,0.14,1.26-0.06,1.94c-1.5,5.08-5.67,12.32-11.19,18.56"/><path d="M61.5,19.19c5.42,0,25.29-3.8,31.38-3.8"/><path d="M73.78,20.37c0.02,0.18,0.04,0.46-0.04,0.72c-0.5,1.52-3.34,4.86-7.24,6.9"/><path d="M28.26,44.44c0.04,1.17-0.04,3.02-0.08,4.7c-0.34,15.73-4.49,38.37-13.37,45.68"/><path d="M25.4,44.05c1.48,0.31,4.22,0.34,5.69,0.31c7.66-0.12,36.15-2.75,51.97-3.03c2.47-0.04,3.96,0.15,5.2,0.31"/><path d="M33.9,56.46c1.18,0.34,3.35,0.47,4.53,0.34c4.17-0.46,10.63-1.09,14.45-1.4c1.95-0.16,3.64-0.28,4.63-0.11"/><path d="M35.2,66.68c0.27,0.4,0.56,0.73,0.68,1.23c0.95,3.94,1.6,12.02,2.26,19.09"/><path d="M37.08,68.7c8.32-1.44,13.63-2.08,18.4-2.56c1.74-0.18,2.79,1.04,2.54,2.07c-1.03,4.27-1.75,7.79-3.29,13.7"/><path d="M37.88,84.64C43.1,84.09,49.83,84,57,83.17"/><path d="M61,32c1.39,1.44,1.88,1.84,2.26,4.93c2.99,24.32,11.24,47.32,28.28,59.73c5.07,3.69,4.12-0.36,3.42-6.72"/><path d="M85.92,52.25c0.11,1.04,0.22,2.68-0.21,4.16C83.14,65.19,68.91,85.2,48.75,97"/><path d="M76.5,27.75c3.34,1.35,8.69,4.44,10.25,6.75"/></svg>