<svg><path d="M29.25,9.25c0.04,0.51,0.08,1.32-0.08,2.06C28.2,15.65,22.63,25.17,15,31"/><path d="M27.48,21.91c4.6,0,19.36-3.28,24.52-3.28"/><path d="M36.02,22.33c2.29,1.35,5.91,5.56,6.48,7.67"/><path d="M65.22,8.75c0.04,0.48,0.17,1.26-0.08,1.94c-1.84,5.08-6.92,12.32-13.65,18.56"/><path d="M63.98,19.08c5.27,0,23.1-3.58,29.02-3.58"/><path d="M77.52,18.5c0.02,0.18,0.05,0.46-0.04,0.71c-0.55,1.5-3.68,4.78-7.97,6.79"/><path d="M37.25,32c1,1.03,0.93,2.17,0.75,4c-0.25,2.5-1.75,4.75-2.55,7.57c-0.46,1.62,0.41,2.02,2.7,1.67C47.63,43.76,54,43,68.88,41.44"/><path d="M39.82,35.18c4.33-0.29,23.89-2.32,27.83-2.62c3.28-0.25,3.51,1.59,3.15,2.69c-1.8,5.5-1.55,6.5-4.3,13.75"/><path d="M16.25,52.59c1.47,0.7,4.17,0.76,5.64,0.7c15.59-0.65,51.52-5.75,66.96-4.77c2.45,0.15,3.92,0.33,5.15,0.68"/><path d="M51.66,53.76c0.09,0.32,0.18,0.83-0.18,1.29c-2.13,2.72-14.36,8.68-31.1,12.33"/><path d="M49.69,57.2c6.58,6.31,9.87,23.05,6.29,38.14c-1.56,6.58-6.68,0.74-7.54,0.04"/><path d="M50.25,63.5c0.08,0.39,0.18,1-0.17,1.56C48.04,68.35,36.31,75.58,20.25,80"/><path d="M53.27,72.96c0.1,0.54,0.21,1.4-0.2,2.18C50.63,79.74,36.64,89.83,17.5,96"/><path d="M76.51,56c0.04,0.3,0.09,0.78-0.09,1.21C75.36,59.75,69.3,65.33,61,68.75"/><path d="M56,68.5c4.58,3.09,24.69,17.7,29.67,20.74c1.69,1.03,3.14,1.47,4.83,1.76"/></svg>