<svg><path d="M28.25,8.75c0.04,0.58,0.09,1.5-0.08,2.34c-0.99,4.94-6.66,15.77-14.42,22.41"/><path d="M27.75,21.07c4.27,0,18.96-2.23,23.75-2.23"/><path d="M35.75,23.25c1.96,1.76,5.07,7.23,5.56,9.97"/><path d="M61.98,8c0.04,0.54,0.16,1.41-0.08,2.18C60.13,15.87,55.24,24,48.75,31"/><path d="M61.73,19.1C67.39,19.1,88.64,16,95,16"/><path d="M77.49,20.5c0.03,0.24,0.07,0.62-0.06,0.97c-0.77,2.04-5.16,6.53-11.17,9.28"/><path d="M34.26,33.68c0.23,1.81-0.06,4.18-0.81,5.74c-4.76,9.89-10.79,19.18-21.7,31.22"/><path d="M26.94,55.73c0.55,0.46,0.65,1.47,0.71,2.42c0.52,8.8-0.49,35.62-0.04,41.03"/><path d="M47.9,37.8c0.65,0.59,2.33,0.82,2.87,0.79c6.3-0.39,18.71-2.35,22.62-2.6c1.3-0.08,2.72,1.3,2.37,2.24c-1.31,3.53-1.26,5.51-2.01,9.01"/><path d="M38,51.32c1.36,0.31,3.87,0.45,5.23,0.31c13.52-1.38,31.96-3.79,46.25-3.99c2.27-0.03,3.64,0.15,4.77,0.3"/><path d="M54,54c0.03,0.45,0.06,1.16-0.06,1.81c-0.73,3.82-4.19,9.94-9.94,16.69"/><path d="M51.36,63.02c0.98,0.23,2.78,0.33,3.74,0.23c3.95-0.44,19.99-2.51,26.07-3.26c1.6-0.2,2.62-0.26,3.43-0.15"/><path d="M36.53,78.14c0.73,0.2,3.41,0.35,4.2,0.27c15.02-1.42,38.16-3.86,47.7-4.05c1.01-0.02,2.45,0.08,4.72,0.41"/><path d="M64.63,63.82c0.62,0.75,0.34,1.84,0.15,2.89c-3.03,16.54-11.03,26.54-27.03,33.54"/><path d="M64.74,76.25c7.51,8.25,19.73,18.6,26.1,22.39c2.17,1.29,2.92,1.48,3.91,1.61"/></svg>