<svg><path d="M29.5,12c0.03,0.46,0.15,1.22-0.07,1.87C27.88,18.5,23.75,25.62,17,32.25"/><path d="M29.48,21.54c3.03,0,12.44-1.44,18.15-1.88c1.28-0.1,2.62-0.03,3.37,0.09"/><path d="M35.02,24.33c1.6,1.44,5.14,6.9,5.54,9.13"/><path d="M64,10c0.03,0.4,0.11,1.04-0.05,1.6c-1.22,4.2-5.73,11.86-10.2,17.02"/><path d="M64.48,19.91c3.77,0,15.31-2.04,22.63-2.77c1.86-0.19,3.51-0.14,4.77-0.05"/><path d="M75.26,22.25c0.03,0.37,0.07,0.97-0.07,1.51c-0.48,1.87-2.67,5.61-5.69,9.24"/><path d="M21.01,41.69c1.36,1.18,4.48,1.15,6.35,0.94c5.56-0.62,15.62-1.58,19.9-2.06c2.93-0.33,4.62,0.13,4.4,3.43c-0.31,4.49-1.5,12.46-2.36,18.88c-0.24,1.79-0.45,3.46-0.61,4.9"/><path d="M23.95,54.55c5.43-0.54,19.3-2.05,25.67-2.36"/><path d="M24.16,66.4c7.45-0.87,15.22-1.77,23.71-2.19"/><path d="M21.51,41.94c0.83,0.84,1.21,2.18,1.21,3.27c0,1.11,0.25,43.93,0.25,46.63c0,3.15,0.42,4.2,3.37,2.31c2.95-1.9,12.41-7.91,19.16-11.83"/><path d="M40.81,73.96c3.61,2.6,9.59,11.03,11.24,17.78"/><path d="M61.25,41.26c1.25,0.49,2.52,0.78,3.98,0.64c6.7-0.68,18.88-2.54,20.65-2.68c3.41-0.26,5.84,0.63,5.54,4.41c-1.02,12.81-2.86,25.13-5.39,34.21c-2.42,8.7-5.4,3.79-7.61,0.49"/><path d="M62.87,42.25c1.07,1.06,1.46,2.88,1.46,3.75c0,3.09,0.02,34.6,0.03,48.88c0,2.47,0,4.43,0,5.62"/></svg>