<svg><path d="M28.75,9.75c0.04,0.53,0.09,1.37-0.09,2.13C27.59,16.37,21.43,26.22,13,32.25"/><path d="M27.73,19.57c3.89,0,18.4-1.85,22.77-1.85"/><path d="M33.5,22.25c1.52,1.67,3.93,6.87,4.31,9.47"/><path d="M61.2,9.16c0.03,0.38,0.11,0.99-0.05,1.52c-1.2,3.99-4.51,9.67-8.9,14.57"/><path d="M61.23,18.71c5.45,0,25.4-2.54,31.52-2.54"/><path d="M76.78,20.89c0.03,0.22,0.07,0.57-0.07,0.89c-0.82,1.87-5.52,5.97-11.96,8.48"/><path d="M46.78,27.14c0.02,0.22,0.04,0.57-0.04,0.88c-0.49,1.86-3.32,5.94-7.18,8.44"/><path d="M22.99,36.1c0.24,0.37,0.64,1.26,0.77,1.72c1.07,3.82,2.47,13.77,3.13,20.88"/><path d="M23.88,37.91c11.87-1.16,47.7-2.58,55.46-3.85c2.85-0.47,4.31,1.18,4.16,2.84c-0.54,6.06-1.36,9.06-2.66,19.18"/><path d="M61.74,38.39c0.06,0.35,0.13,0.9-0.12,1.4c-1.53,2.96-10.3,9.45-22.31,13.42"/><path d="M39.77,42.08c8.4,1.61,21.69,6.63,23.79,9.13"/><path d="M26.93,57.57C34.41,56.93,69,55,80.84,54.68"/><path d="M27.88,76.38c7.31-0.38,13.67-1.72,20.04-2.35c1.87-0.19,3.06-0.18,4.02-0.07"/><path d="M26.5,64.66c1,0.63,1.37,1.78,1.37,2.64c0,2.34-0.32,26.49-0.32,30.13c0,3.06-0.16,4.36,4.03,1.75c5.92-3.68,11.67-6.68,17.06-9.21"/><path d="M82.21,65.94c0.26,0.63,0.54,1.94-0.28,2.79C80,70.75,68.96,77.46,61.12,80.89"/><path d="M57.78,61.5c1.18,0.58,1.69,2.59,1.69,3.33c0,1.94-0.27,23.04-0.27,25.32c0,6.85,2.79,9.18,16.77,9.18c14.53,0,16.04-3.08,16.04-10.97"/></svg>