<svg><path d="M30.51,11.75c0.03,0.48,0.06,1.23-0.06,1.92C29.71,17.7,25.51,26.57,19.75,32"/><path d="M29.73,21.79c3.71,0,16.11-2.29,20.27-2.29"/><path d="M36.52,23.83c1.6,1.44,4.14,5.9,4.54,8.13"/><path d="M61.76,10.5c0.02,0.29,0.08,0.75-0.04,1.16c-0.9,3.03-3.41,7.36-6.72,11.09"/><path d="M61.98,18.66c4.73,0,20.08-2.57,25.4-2.57"/><path d="M73.78,20.25c0.01,0.24,0.03,0.61-0.03,0.95c-0.36,2-2.42,6.37-5.25,9.05"/><path d="M52.44,27.75c0.78,0.63,1.94,2.04,1.94,3.65c0,2.55,0,3.28,0,5.82"/><path d="M31.07,38.76c0.91,0.21,1.98,0.24,2.88,0.21c5.13-0.18,34.9-2.75,42.66-2.9c1.52-0.03,2.43,0.1,3.18,0.2"/><path d="M37.68,40.41c3.98,4.14,6.51,9.12,6.87,11.84"/><path d="M66.62,39.32c0.13,0.68,0.21,2.2,0.14,2.58c-0.51,2.62-3.74,8.43-5.02,10.43"/><path d="M19.83,55.22c1.4,0.3,3.04,0.4,4.43,0.3C40,54.41,68.1,51.85,85.77,51.23c2.33-0.08,3.73,0.14,4.9,0.29"/><path d="M29.78,63.98c0.33,0.36,0.34,0.62,0.53,1.07c1.51,3.78,2.93,14.14,3.86,21.19"/><path d="M31.35,64.48c11.69-0.95,36.67-3.17,45.4-3.96c3.21-0.29,4.38,2.06,4.21,3.1c-0.6,3.81-3.51,12.96-4.98,19.32"/><path d="M33.53,74.25c3.81-0.37,41.26-3.2,44.41-3.35"/><path d="M34.78,84.4c9.86-0.78,29.59-2.61,41.21-3.27"/><path d="M53.99,62.99c0.26,1.01,0.33,2.58,0.38,4.05c0.25,8.35-0.03,17.45-0.03,20.23c0,7.97,4.67,9.26,20.67,9.26c17.75,0,20.39-2.79,20.39-8.63"/></svg>