<svg><path d="M26.5,10.25c0.03,0.51,0.07,1.32-0.07,2.06C25.6,16.65,20.81,26.17,14.25,32"/><path d="M25,21.16c4.55,0,20.14-3.16,25.25-3.16"/><path d="M34.52,23.08c2.13,1.57,5.51,6.45,6.04,8.88"/><path d="M61.49,9.5c0.03,0.46,0.14,1.2-0.06,1.84c-1.5,4.83-5.66,11.72-11.17,17.66"/><path d="M60.98,18.21c5.17,0,24.1-2.68,29.9-2.68"/><path d="M74.49,19c0.03,0.28,0.06,0.73-0.05,1.14c-0.68,2.4-4.58,7.65-9.93,10.86"/><path d="M34,33.28c0.02,0.23,0.07,0.61-0.03,0.93c-0.93,3.04-2.85,6.02-5.97,9.29"/><path d="M20.33,42.95c0.78,0.48,1.25,2.17,1.41,3.14c0.16,0.97,0,47.68-0.16,53.72"/><path d="M21.87,45.84c7.66-1.19,20.02-2.77,23.97-3.17c1.44-0.15,2.31,1.48,2.1,2.35c-0.86,3.59-2.2,6.15-3.67,13.42"/><path d="M22.01,60.21c11.08-0.76,20.27-1.48,25.5-1.76"/><path d="M22.44,74.66c10.06-0.91,19.31-2.35,23.87-2.84c1.68-0.18,2.69,1.8,2.45,2.85C47.77,79.02,47.25,84.25,46,91"/><path d="M21.89,93.36c5.02-0.38,20.26-1.59,26.64-1.97"/><path d="M56.05,37.91c0.84,0.28,2.37,0.35,3.21,0.28c5.33-0.48,25.4-3.13,30.57-2.8c1.39,0.09,2.23,0.13,2.93,0.27"/><path d="M56.43,49.79c0.53,0.33,1.66,2.5,1.77,3.16c0.11,0.67-0.06,28.64-0.18,32.8"/><path d="M59,52.59c2.69-0.25,25.92-3.13,27.92-3.28c2.36-0.18,3.87,2.08,3.78,3.67c-0.43,8.02-0.57,17.25-0.57,26.52c0,9.01-6.13,1.24-7.03,0.01"/><path d="M72.05,39.45c0.31,0.31,0.97,2.32,1.04,2.94c0.06,0.62-0.04,54-0.1,57.87"/></svg>