<svg><path d="M31.75,9.25c0.04,0.52,0.09,1.35-0.08,2.11c-1.02,4.44-6.39,13.18-14.41,19.14"/><path d="M30,18.7c4.03,0,16.97-1.91,21.5-1.91"/><path d="M37.27,20.83c1.87,1.17,4.83,4.81,5.29,6.63"/><path d="M62.52,8.25c0.03,0.42,0.11,1.09-0.05,1.68C61.26,14.32,57.92,20.6,53.5,26"/><path d="M63.23,16.52c5.01,0,23.89-3.08,29.52-3.08"/><path d="M77,19c0.02,0.17,0.05,0.43-0.04,0.66c-0.56,1.4-3.79,4.46-8.2,6.34"/><path d="M28.99,32.27c0.29,0.33,0.3,0.56,0.46,0.98c1.32,3.43,2.56,12.58,3.37,18.96"/><path d="M30.5,33c13.21-1.15,36.77-3.2,46.64-4.14c3.62-0.35,4.65,1.56,4.46,3.92c-0.28,3.6-2.14,12.49-3.68,18.45"/><path d="M54.48,30.97c0.51,4.81,0.25,15.33,0.25,18.54"/><path d="M32.09,41.89c4.42-0.29,44.26-2.9,47.92-3.07"/><path d="M33.56,51.24c11.04-0.72,31.45-1.78,44.79-2.35"/><path d="M15.5,63.17c1.49,0.46,4.23,0.58,5.72,0.46c15.88-1.26,53.19-4,69.82-3.99c2.48,0,3.97,0.22,5.22,0.45"/><path d="M34.65,56c0.81,0.92,1.08,1.2,1.16,1.76c0.81,5.29,1.3,10.31,1.53,12.24"/><path d="M72.6,54.5c0.41,0.82,0.93,1.74,0.65,2.78c-0.97,3.65-1.21,5.76-2.43,10.97"/><path d="M27.75,74.38c1.5,0.31,3.25,0.42,4.74,0.31c14.94-1.01,28.82-2.47,45.02-3.07c2.48-0.09,3.99,0.15,5.24,0.31"/><path d="M20.25,85.14c1.58,0.25,3.43,0.34,5,0.25c15.76-0.83,43.89-2.31,60.97-2.81c2.63-0.08,4.21,0.12,5.53,0.25"/><path d="M53.4,52.75c0.66,0.38,1.06,1.72,1.19,2.48c0.13,0.76,0,41.25-0.13,46.02"/></svg>