<svg><path d="M27.5,9.75c0.04,0.48,0.08,1.23-0.07,1.92C26.54,15.7,21.46,24.57,14.5,30"/><path d="M27.48,19.42c4.27,0,19.48-2.55,24.27-2.55"/><path d="M33.75,21c2.38,1.85,6.16,7.62,6.75,10.5"/><path d="M62.48,8.25c0.03,0.47,0.15,1.21-0.07,1.87C60.78,15.01,56.25,21.99,50.25,28"/><path d="M60.98,17.69c5.27,0,24.6-2.98,30.52-2.98"/><path d="M78.76,19.05c0.03,0.22,0.07,0.56-0.06,0.87c-0.77,1.83-5.17,5.86-11.2,8.33"/><path d="M55,29.5c0.05,0.41,0.18,1.07-0.09,1.65c-1.74,3.67-7.54,10.52-15.94,15.78"/><path d="M56.16,34.13c0.29,0.02,2.05,0.39,2.87,0.32c2.68-0.21,12.21-1.62,16.04-2.29c2.63-0.46,2.37,1.52,1.7,2.76C73.09,41.7,54.9,53.76,38.5,57.25"/><path d="M52.73,38.06c3.85-0.02,26.67,12.55,32.96,15.09c1.87,0.76,3.39,1.12,5.21,1.35"/><path d="M47.27,60.26c0.86,0.23,2.43,0.28,3.29,0.23c9.92-0.63,19.25-1.39,27.52-2c1.42-0.1,2.29,0.11,3,0.22"/><path d="M46.36,68.82c0.9,0.27,3.18,0.34,4.08,0.27c10.47-0.75,19.4-1.77,28.14-2.49c1.5-0.13,2.41,0.13,3.17,0.26"/><path d="M40.08,77.63c1.63,0.41,4.62,0.45,6.26,0.41c10.29-0.26,24.84-1.88,38.29-2.56c2.71-0.14,4.35,0.19,5.71,0.4"/><path d="M63.81,53c0.38,0.42,1.26,2.4,1.26,3.99c0,8.81-0.15,20.96-0.15,32.26"/><path d="M20.52,33.12c3.52,1.17,9.1,4.81,9.98,6.62"/><path d="M18.02,46.88c3.24,1.12,8.38,4.62,9.19,6.36"/><path d="M14.89,62.71c2.41,0.54,3.93-0.01,4.94-0.31c1.02-0.3,6.46-3.44,7.97-4c1.51-0.55,3.99,0.58,3.07,1.87c-0.92,1.29-5.31,5.95-5.99,7.01c-0.68,1.06-2.04,2.13-0.35,3.35c1.7,1.21,4.08,5.52,4.98,6.62c0.9,1.1,1,2.08-0.45,3.23c-1.45,1.14-7.53,6.42-9.05,6.97"/><path d="M13.99,88.98c2.91-0.31,8.68-0.76,13.08-0.44c6.44,0.47,29.62,4.95,33.9,5.78c11.62,2.24,20.58,3.4,29.3,2.31"/></svg>