<svg><path d="M28.75,8.75c0.04,0.5,0.09,1.29-0.08,2.01C27.66,15,21.89,24.3,14,30"/><path d="M28,18.18c4.12,0,17.37-1.6,22-1.6"/><path d="M34.75,20c1.68,1.37,4.33,5.62,4.75,7.75"/><path d="M60.24,9c0.03,0.41,0.12,1.06-0.06,1.63C58.85,14.9,55.15,21,50.25,26.25"/><path d="M59.25,16.78c5.03,0,23.48-2.97,29.13-2.97"/><path d="M74.52,17.75c0.02,0.18,0.05,0.47-0.05,0.73c-0.6,1.55-4.03,4.94-8.72,7.02"/><path d="M26.5,32.48c1.3,0.45,3.66,0.5,4.95,0.42c12.94-0.8,30.02-2.88,48.15-3.31c2.15-0.05,3.44,0.19,4.52,0.41"/><path d="M53.41,33.21c0.06,0.2,0.79,1.02,0.85,2.27c0.27,6-0.17,13.82-0.17,15.86"/><path d="M55.11,40.89c0.43,0.09,15.17-0.99,23.36-1.29c0.71-0.03,1.14,0.01,1.5,0.05"/><path d="M36.6,39.22c0.04,0.14,0.49,0.72,0.52,1.6c0.17,4.23,0.34,9.68,0.34,11.11"/><path d="M17.82,52.75c1.45,0.26,4.58,0.64,5.95,0.57c12.32-0.63,45.35-3.12,63.84-3.5c2.33-0.05,4.35,0.38,5.56,0.77"/><path d="M37.57,62.1c0.6,0.11,26.8-1.33,43.46-2.21c1.41-0.07,2.27,0.08,2.98,0.16"/><path d="M38.69,53.71c0.43,0.29,1.01,1.9,0.89,2.39c-1.36,5.65-4.04,11.77-5.48,14.98c-0.58,1.29,0.12,3.27,2.36,2.74c4.95-1.17,40.85-3.22,48.26-3.89c4.82-0.43,6.27,3.03,5.42,5.99C88.29,82.4,86,89,83.41,95.3c-3.4,8.27-7.29,2.1-9.36-0.42"/><path d="M25.03,81.96c-0.73,5.43-2.51,11.33-6.03,14.4"/><path d="M39.05,81.44c1.91,2.41,3.73,9.05,4.2,12.81"/><path d="M54.5,79.75c1.9,2.16,4.9,8.88,5.37,12.25"/><path d="M69.5,77.75c2.12,1.72,5.47,7.07,6,9.75"/></svg>