<svg><path d="M28.5,9.5c0.04,0.58,0.09,1.51-0.08,2.34c-1.01,4.94-6.77,15.77-14.67,22.41"/><path d="M27.73,21.27c4.27,0,18.98-2.99,23.77-2.99"/><path d="M34,23.25c2.23,1.76,5.75,7.23,6.31,9.97"/><path d="M61.99,9.25c0.03,0.47,0.13,1.21-0.06,1.87C60.53,16.01,56.65,22.99,51.5,29"/><path d="M61.98,18.64c5.34,0,24.9-3.29,30.9-3.29"/><path d="M78.24,20.5c0.03,0.24,0.06,0.61-0.05,0.95c-0.63,2-4.24,6.37-9.19,9.05"/><path d="M30.67,33.25c0.55,0.43,1.46,2.1,1.46,2.96c0,3.16-0.17,6.31-0.07,8.99"/><path d="M11.5,47.97c1.22-0.08,3.19,0.04,4.14,0.04C23.25,48,39.75,46,48.62,45.27c1.6-0.13,2.1-0.16,3.62,0.15"/><path d="M32.83,58.26c3.87,1.13,4.65,0.79,8.73,1.18c2.1,0.2,3.18,1.67,2.8,3.91C43,71.25,38,88.75,32.75,95.75c-2.29,3.05-4.5,0-6.25-3.5"/><path d="M30.16,49.75c0.06,1.13,0.33,2.96-0.06,4.56C27,67.25,21.5,81,9.25,93.75"/><path d="M61.9,33.14c0.03,0.59,0.07,1.51-0.06,2.35c-0.76,4.96-5.12,15.84-11.08,22.5"/><path d="M61.25,43.38c1.31,0.32,3.74,0.11,5.03-0.04c5.31-0.62,11.95-1.51,18.6-2.2c2.16-0.23,3.52-0.37,4.62-0.21"/><path d="M63.67,50.06c0.03,0.46,0.07,1.19-0.06,1.86c-0.77,3.92-5.24,13.56-10.07,17.13"/><path d="M61.55,59.86c0.95,0.23,2.7,0.33,3.63,0.23c3.84-0.44,11.65-1.59,18.49-2.72c1.54-0.25,2.54-0.26,3.33-0.15"/><path d="M47.71,76.54c0.68,0.22,3.16,0.35,3.89,0.31c7.83-0.42,29.02-3.78,38.88-4.14c0.94-0.03,2.27,0.08,4.37,0.46"/><path d="M70.4,62.13c0.44,0.26,0.69,1.09,0.64,2.19C70.25,83,59,93.75,43.96,99.17"/><path d="M70.47,75.25C77,83.75,85,92,92.28,96.39c1.89,1.14,2.45,1.45,3.27,1.57"/></svg>