<svg><path d="M26.75,8c0.04,0.52,0.08,1.34-0.08,2.08C25.7,14.47,20.13,24.1,12.5,30"/><path d="M26.5,19.1c4.31,0,18.16-2.46,23-2.46"/><path d="M32.27,20.83c2.47,1.88,6.37,7.74,6.98,10.67"/><path d="M61.73,7.5c0.04,0.4,0.15,1.04-0.07,1.61c-1.67,4.21-6.29,10.22-12.41,15.39"/><path d="M60.25,17.17c5.49,0,25.59-3.31,31.75-3.31"/><path d="M74.99,19.25c0.03,0.24,0.06,0.61-0.06,0.95c-0.72,2-4.82,6.37-10.43,9.05"/><path d="M27.31,36.47c1.37,0.11,3.89,0.14,5.27,0.13c9.91-0.09,36.78-2.48,45.33-2.59c2.28-0.03,3.23-0.01,4.44,0.02"/><path d="M53.28,27.12c0.44,0.2,1.47,1.83,1.47,2.21c0,5.21,0.21,16.42,0.25,22.27"/><path d="M26.66,45.01c1.12,0.26,3.17,0.35,4.3,0.32c8.08-0.19,37.61-2.17,44.58-2.4c1.86-0.06,3.23,0.01,4.22,0.07"/><path d="M17.81,53.13c1.31,0.19,3.7,0.3,5,0.23c12.1-0.62,51.96-2.85,64.08-3.13c2.16-0.05,3.84-0.19,5.36,0.01"/><path d="M32.15,58.71c0.55,0.63,1.35,1.09,1.35,1.94s-0.19,26.61-0.01,27.45"/><path d="M34.45,60.61c3.95-0.14,34.92-2.44,38.52-2.44c2.27,0,3.61,0.84,3.61,3.18c0,5.19-0.77,23.93-0.77,24.54"/><path d="M34.64,67.78c5.61-0.06,35.13-1.26,41.42-1.33"/><path d="M34.95,76.4c7.8-0.08,30.67-1.15,40.78-1.26"/><path d="M35.75,84.5c7.86-0.06,26.04-0.43,38.44-0.85"/><path d="M43.55,89c-0.3,2-1.18,3.13-2.43,3.82c-3.79,2.08-13.06,5.25-20.64,7.65"/><path d="M63,88.46c8.96,3.47,19.56,9.63,22,12.54"/></svg>