<svg><path d="M29.75,10c0.04,0.49,0.09,1.28-0.09,1.99C28.64,16.18,23.28,24.37,15.25,30"/><path d="M29.23,19.93c3.57,0,17.52-2.68,21.52-2.68"/><path d="M34.25,22.25c2.31,1.45,5.98,5.96,6.56,8.22"/><path d="M61.26,9.25c0.03,0.34,0.14,0.87-0.07,1.35c-1.5,3.53-5.67,8.57-11.19,12.9"/><path d="M60.77,17.6c4.92-0.08,22.44-3.2,27.97-3.29"/><path d="M76.01,19.3c0.03,0.23,0.07,0.59-0.06,0.92C75.2,22.16,70.9,26.4,65,29"/><path d="M52.15,27c0.87,0.32,2.3,1.53,2.3,2.16c0,2.31-0.28,3.06-0.11,5.01"/><path d="M25.49,36.57c1.57,0.49,3.74,0.54,4.85,0.45c8.98-0.75,38.99-3.64,51.18-3.73c1.88-0.01,2.84,0.06,4.24,0.56"/><path d="M29,45.27c1.29,0.53,2.8,0.63,4.1,0.53C45,44.83,65,42.5,78.72,41.76c2.16-0.12,3.45,0.25,4.53,0.51"/><path d="M14.75,56.68c1.76,0.43,3.81,0.51,5.57,0.43c16.17-0.78,51.14-4.85,69.77-4.91c2.93-0.01,4.69,0.2,6.16,0.42"/><path d="M40.34,47.5c0.35,1.21,0.46,1.58,0.5,2.32c0.37,6.97-0.31,12.15-0.2,14.68"/><path d="M71.69,44.9c0.35,0.88,0.73,1.52,0.7,2.68c-0.17,6.84-0.7,8.24-1.06,14.71"/><path d="M27.01,65.89c1.37,0.52,2.96,0.62,4.33,0.51c12.55-1.02,33.65-4.11,48.12-4.25c2.28-0.02,3.65,0.23,4.78,0.49"/><path d="M50.71,66.75c0.12,0.51-0.04,1.35-0.73,2.03c-4.45,4.42-16.73,14.47-38.73,19.47"/><path d="M37.97,79.42c0.5,0.44,1.04,0.88,1.04,1.65c-0.03,9.72-0.34,14.63-0.34,16.27c0,1.64,1.23,2.58,2.78,1.35C43,97.45,58.43,87.49,60.5,86.25"/><path d="M78.02,68.75c0.03,0.24,0.36,1.16,0.16,1.48c-1.27,1.98-5.23,4.82-11.68,8.77"/><path d="M54.98,72.88c2.14-0.12,3.55,1.29,5.55,3.03c6.32,5.48,22.02,18.46,26.45,21.52c1.66,1.15,3.09,1.65,4.76,1.98"/></svg>