<svg><path d="M26.76,10.25c0.04,0.56,0.08,1.44-0.08,2.25c-0.95,4.74-6.43,15.13-13.93,21.5"/><path d="M25.98,21.98c4.36,0,18.37-1.93,23.27-1.93"/><path d="M33.5,23.75c2.47,1.98,6.38,8.16,7,11.25"/><path d="M60.75,10.5c0.04,0.54,0.16,1.4-0.08,2.15c-1.81,5.63-6.81,13.67-13.43,20.6"/><path d="M61.21,19.75c4.95,0,23.11-3.35,28.67-3.35"/><path d="M74.26,21.5c0.04,0.33,0.07,0.85-0.07,1.32c-0.82,2.79-5.51,8.92-11.94,12.68"/><path d="M22.46,39.11c0.53,0.91,1.22,2.33,1.18,3.95c-0.07,2.51-0.12,4.83-0.43,16.65C22.86,72.94,21.5,87,13.26,95.6"/><path d="M25.41,42.29c4.03-0.59,26.16-3.57,26.96-3.55c1.49,0.03,2.29,1.65,2.26,3.24c-0.03,1.68-0.78,45.81-0.85,49.68c-0.12,6.05-1.21,6.1-4.51,1.93"/><path d="M29.28,54.3c0.65,0.2,1.83,0.14,2.49,0.12c3.51-0.11,11.13-1.51,13.72-1.6c1.08-0.04,1.73,0.03,2.27,0.13"/><path d="M27.96,65.03c0.65,0.08,1.85,0.02,2.5,0.01C36,65,43.44,62.62,47.7,62.49c1.09-0.03,1.74-0.01,2.28,0.02"/><path d="M37.29,46.53c0.54,0.18,0.86,0.86,0.97,1.25c0.11,0.39,0.01,18.47-0.1,20.96"/><path d="M29.02,73.12c0.23,0.21,0.47,0.39,0.57,0.66c0.81,2.13,1.8,9.23,2.36,13.07"/><path d="M30.13,74.75c4.07-0.67,13.63-2.09,15.73-2.2c0.77-0.04,1.17,1.05,1.03,1.6c-0.57,2.28-1.73,5.92-2.87,9.18"/><path d="M32.75,84.74c3.29-0.46,11.03-1.25,13.47-1.32"/><path d="M84.89,33.4c0.07,0.54,0.28,1.48-0.14,2.17c-2.56,4.2-11.25,15.19-24,19.94"/><path d="M90.25,50.75c0.08,0.54,0.29,1.47-0.16,2.17c-3.1,4.74-14.84,16.33-28.41,20.74"/><path d="M94.66,67.4c0.13,0.68,0.43,1.79-0.1,2.74C90.94,76.65,78.25,91.5,60.75,97"/></svg>