<svg><path d="M32.5,9.75c0.04,0.45,0.08,1.17-0.08,1.82C31.46,15.41,25.99,23.84,18.5,29"/><path d="M29.73,19.79c3.71,0,17.61-3.29,21.77-3.29"/><path d="M34.77,21.58c1.87,1.3,4.83,5.36,5.29,7.38"/><path d="M61.25,9c0.02,0.36,0.1,0.94-0.05,1.44c-1.07,3.78-4.03,9.17-7.96,13.81"/><path d="M61.98,17.16c4.73,0,22.08-3.57,27.4-3.57"/><path d="M74.27,17.75c0.02,0.22,0.04,0.58-0.04,0.9c-0.45,1.9-3,6.06-6.49,8.6"/><path d="M24.14,33.87c0.4,0.23,0.85,0.42,0.98,0.73c1.13,2.7,2.56,8.38,3.69,12.35"/><path d="M26.6,35.46c7.31-0.57,13.59-1.71,20.33-2.29c1.69-0.14,2.71,0.67,2.47,1.32c-1.01,2.73-1.38,4.34-3.17,8.88"/><path d="M29.63,45.54c5.45-0.35,11.32-1.29,18.8-1.83"/><path d="M56.64,32.51c0.35,0.25,0.75,0.45,0.86,0.78c0.99,2.88,2.75,7.22,3.75,11.45"/><path d="M57.81,33.51c6.44-0.61,17.48-1.78,23.42-2.4c1.49-0.15,2.39,0.71,2.18,1.41c-0.89,2.91-2.16,4.6-3.74,9.44"/><path d="M60.97,43.22c4.8-0.37,14.1-0.67,20.69-1.24"/><path d="M28.17,51.82c0.34,0.4,1.34,2.18,1.53,2.68c1.52,4.14,2.44,11.9,3.4,19.58"/><path d="M29.73,52.48c12.63-1.39,38.98-3.77,47.68-4.48c3.19-0.26,5.12,0.56,5.03,2.3c-0.22,4.14-3.75,17.68-4.32,19.41"/><path d="M32.88,61.16c3.79-0.33,44.02-3.11,47.15-3.22"/><path stroke" d="M33.68,72.31c10.99-1.32,32.5-3.03,44.53-3.84"/><path stroke" d="M17.98,83.57c1.38,0.56,3.92,0.69,5.31,0.56c9.21-0.88,49.38-4.61,66.63-5.37c2.3-0.1,3.69,0.27,4.84,0.54"/><path stroke" d="M54.47,51.75c0.58,0.3,0.94,1.14,0.95,2.17c0.04,5.2,0.17,45.9,0.19,47.6"/></svg>