<svg><path d="M28.49,9c0.04,0.5,0.08,1.29-0.08,2.01C27.49,15.25,22.22,24.55,15,30.25"/><path d="M27.23,19.38c4.04,0,16.99-2.47,21.52-2.47"/><path d="M33.25,21.5c2.23,1.58,5.75,6.51,6.31,8.97"/><path d="M60.26,8.25c0.03,0.38,0.14,0.98-0.06,1.51c-1.51,3.96-5.68,9.62-11.2,14.49"/><path d="M58.73,17.37c4.97,0,23.19-2.62,28.77-2.62"/><path d="M74.25,19.25c0.03,0.23,0.06,0.59-0.05,0.92c-0.67,1.95-4.48,6.21-9.69,8.83"/><path d="M51.96,26.75c0.8,0.45,2.1,2.19,2.1,3.08c0,3.29-0.25,3.37-0.1,6.15"/><path d="M25.49,37.9c1.62,0.59,3.88,0.63,5.03,0.51c9.29-1.02,38.79-3.78,51.41-4.02c1.95-0.04,2.94,0.05,4.39,0.64"/><path d="M34.8,44.37c0.36,0.41,0.72,0.75,0.88,1.27c1.24,4.07,2.72,14.31,3.57,21.61"/><path d="M36.33,45.89c10.51-1.08,29.9-2.75,35.31-3.05c1.98-0.11,3.06,1.9,2.78,2.94c-1.2,4.53-1.76,11.04-3.92,18.46"/><path d="M14.52,56.77c1.48,0.28,4.18,0.3,5.65,0.21c14.22-0.8,50.79-4.35,68.9-4.64c2.45-0.04,3.93,0.08,5.16,0.21"/><path d="M39.45,65.61c10.53-0.94,26.05-2.32,31.13-2.68"/><path d="M50.52,66.75c0.11,0.51-0.08,1.35-0.71,2.03C45.75,73.2,30.75,84,11.75,88.25"/><path d="M38.5,80.5c0.49,0.47,1.02,0.93,1.02,1.74c-0.03,10.3-0.33,13-0.33,14.74c0,1.74,1.21,2.73,2.74,1.42c1.53-1.31,16.54-10.6,18.58-11.91"/><path d="M76.78,66.5c0.04,0.28,0.38,1.33,0.17,1.69c-1.35,2.28-5.57,5.53-12.45,10.06"/><path d="M52.58,69.18c7.88,6.88,27.45,23.16,32.98,27c2.07,1.45,3.86,2.07,5.94,2.48"/></svg>