<svg><path d="M30.5,11.75c0.07,1.02,0,1.77-0.4,2.72C28.48,18.33,24.25,24.5,17.75,31"/><path d="M28.48,22.79c2.95,0,11.72-1.77,17.28-2.49c1.43-0.19,2.64-0.3,3.49-0.3"/><path d="M35,24.75c1.96,1.23,5.07,5.06,5.56,6.97"/><path d="M66.74,10c0.08,0.95-0.04,1.58-0.43,2.46c-1.74,4.01-5.69,9.38-10.81,14.04"/><path d="M65.48,20.41c3.89,0,16.07-2.17,23.32-3.02c1.56-0.19,2.89-0.3,3.83-0.3"/><path d="M76.78,22.5c0.05,0.5,0.04,1-0.2,1.44c-1.08,1.94-2.95,4.56-5.08,6.31"/><path d="M21.39,39.18c0.84,0.84,1.09,2.19,1.09,3.21c0,0.58-0.16,34.48-0.16,48.36c0,2.55-0.05,4.33-0.07,5"/><path d="M22.66,40.28c2.28-0.07,18.79-2.85,20.88-2.94c1.73-0.07,2.46,1.29,2.47,2.77c0,1.65-0.69,8.8-1.12,13.66c-0.19,2.16-0.33,3.72-0.33,3.86"/><path d="M23.57,49.79c7.93-1.29,13.81-2.17,20.96-3.04"/><path d="M23.66,58.65c6.34-1.15,14.21-2.03,19.69-2.64"/><path d="M61.36,34.79c0.74,0.74,1.04,1.84,1.04,3.05c0,0.35,0,9.54,0,15.16c0,1.43,0,2.63,0,3.39"/><path d="M63.05,36c2.21-0.07,20.08-3.02,22.08-3.26c1.99-0.24,3.07,1.43,3.07,3.51c0,6.75,0.12,48.25,0.12,57.28c0,8.6-6.45,1.35-7.48,0.66"/><path d="M63.44,45.24c7.94-1.11,18.81-2.24,23.4-2.68"/><path d="M63.55,54.55c5.58-0.55,17.33-1.8,23.53-2.28"/><path d="M41.39,64.74c0.74,0.74,0.99,2.18,0.99,3.01c0,2.26,0.02,12.18,0.03,19.75c0,1.62,0,3.08,0,4.25"/><path d="M42.99,65.85c1.84-0.09,13.99-1.86,18.13-2.34c2.46-0.28,3.61,0.43,3.49,2.87c-0.13,2.61-0.05,12-0.02,19.38c0.01,1.73,0.01,3.36,0.01,4.75"/><path d="M43.61,76.87c4.09-0.47,15.14-1.75,19.77-1.83"/><path d="M43.49,89.29c5.13-0.67,15.21-1.47,20.14-1.87"/></svg>