<svg><path d="M29.5,9c0.04,0.49,0.08,1.26-0.08,1.96C28.5,15.1,23.22,24.19,16,29.75"/><path d="M28.75,19.07c4.31,0,18.16-2.14,23-2.14"/><path d="M35.27,20.83c1.6,1.17,4.14,4.81,4.54,6.63"/><path d="M61.25,8.25c0.02,0.37,0.1,0.95-0.05,1.47c-1.14,3.84-4.29,9.32-8.46,14.03"/><path d="M60.98,17.16c4.73,0,24.08-3.07,29.4-3.07"/><path d="M75.74,18c0.03,0.19,0.06,0.5-0.05,0.78c-0.63,1.65-4.24,5.26-9.19,7.47"/><path d="M29.75,34.57c0.31,0.13,0.92,0.44,1.02,0.77c0.7,2.38,1.55,6.09,2.54,10.59"/><path d="M31.88,35.18c10.97-0.4,36.36-3.5,44.3-3.44c1.83,0.01,2.63,1.34,2.29,2.88c-0.33,1.47-0.97,2.69-3.02,5.98"/><path d="M33.38,44.8c8.97-0.55,31.99-2.73,44.54-3.25"/><path d="M52.4,27c0.88,0.37,1.59,1.63,1.59,2.39c0,7.01,0,15.96-0.18,20.56"/><path d="M14.52,52.49c1.52,0.48,4.32,0.65,5.83,0.51c12.97-1.2,50.57-4.18,69.31-4.48c2.54-0.04,4.06,0.25,5.32,0.49"/><path d="M33.42,57.93c0.39,0.71,0.67,2.66,0.67,3.6c0,0.95,0.04,28.02,0.04,28.49"/><path d="M35.33,59.14c7.92-0.64,33.48-2.52,36.97-2.66c2.9-0.12,3.93,0.96,3.93,3.45c0,4.32-0.84,26.5-0.84,27.21"/><path d="M34.75,67.92c7.03-0.45,32.76-2.2,38.96-2.2"/><path d="M34.5,77.44c7.7,0,30.82-2.35,40.79-2.35"/><path d="M36.06,86.73c7.19,0,28.85-1.92,38.15-1.92"/><path d="M42.14,91.49c-0.14,1.01,0.09,1.62-1,2.26c-3.33,1.96-11.51,6.2-18.14,8.5"/><path d="M64.55,90.27c8.42,2.98,18.36,8.38,20.66,10.98"/></svg>