<svg><path d="M29.24,10.75c0.04,0.56,0.09,1.46-0.09,2.27c-1.06,4.79-7.11,15.29-15.4,21.73"/><path d="M27.75,21.48c4.31,0,18.16-2.22,23-2.22"/><path d="M32.5,22.25c2.91,1.85,7.52,7.62,8.25,10.5"/><path d="M63.24,10.25c0.03,0.37,0.11,0.97-0.05,1.49c-1.27,3.9-4.78,9.47-9.44,14.26"/><path d="M62.75,19.92c5.34,0,24.89-3.01,30.88-3.01"/><path d="M78.01,22c0.03,0.26,0.07,0.67-0.06,1.04c-0.77,2.19-5.17,7.01-11.2,9.96"/><path d="M52.73,30c0.11,0.76,0.49,2.05-0.22,3.07C47.99,39.59,35.18,53.3,13.75,62.5"/><path d="M53,33.72c5.46,4.29,29.01,18.31,35.04,21.45c2.04,1.07,4.67,1.52,6.71,1.83"/><path d="M39.75,53.87c0.67,0.17,1.88,0.17,2.55,0.17c5.11-0.04,20.27-2.34,24.37-2.15c1.1,0.05,1.77,0.08,2.33,0.16"/><path d="M26,63c0.31,0.26,0.62,0.48,0.76,0.8c1.06,2.58,2.81,9.71,3.54,14.35"/><path d="M27.27,64.57c8.71-1.1,16.13-2.29,20.16-2.61c1.47-0.12,2.36,0.69,2.15,1.37c-0.87,2.82-1.89,6.95-3.19,10.85"/><path d="M30.47,76.9c4.45-0.39,11.09-1.01,17.21-1.57"/><path d="M57.16,62.75c0.3,0.24,0.6,0.44,0.73,0.74c1.03,2.39,2.26,8.97,2.96,13.26"/><path d="M57.82,63.04c7.67-1.01,16.66-1.61,20.96-1.96c1.57-0.13,2.52,0.75,2.29,1.5c-0.93,3.08-2.02,7.24-3.41,11.5"/><path d="M61.5,75.9c4.18-0.35,9.94-0.95,15.67-1.48"/><path d="M38.27,80.75c0.21,0.86,0.13,1.69-0.15,2.25c-2.45,4.89-8.07,11.36-18.13,17.25"/><path d="M37.75,87.5c3.62,1.74,8.24,6.37,10,10.75"/><path d="M69.26,80c0.19,0.92,0.12,1.8-0.13,2.39c-2.25,5.21-7.4,12.09-16.62,18.36"/><path d="M68.75,88c6.42,2.06,14.62,7.55,17.75,12.75"/></svg>