<svg><path d="M30.5,11.25c0.07,1,0.04,1.68-0.41,2.6C27.86,18.32,22.21,25.49,16,30.5"/><path d="M28.73,21.29c4.27-0.04,12.02-1.66,17.79-3.17c1.37-0.36,2.61-0.37,3.48-0.37"/><path d="M35.52,23.58c1.87,1.3,4.83,5.36,5.29,7.38"/><path d="M62,10c0.11,0.81,0,1.58-0.34,2.31c-1.43,3.77-5.53,9.14-9.17,13.44"/><path d="M62.98,17.16c3.86,0,13.39-1.91,20.28-3.5c1.53-0.35,2.89-0.32,3.87-0.32"/><path d="M73,17.88c0.04,0.28,0.09,0.72-0.08,1.12c-0.62,1.42-1.99,3.35-5.54,5.75"/><path d="M23.38,33.88c3.46,1.18,8.94,4.83,9.81,6.66"/><path d="M17,49.62c3.77,1.15,9.73,4.72,10.67,6.5"/><path d="M18.56,92.4c1.15,0.45,2.55-0.26,3.09-1.41c2.88-6.06,3.98-8.5,6.63-14.53"/><path d="M49.1,36.32c1.98,0.61,4.37,0.34,6.4,0.18c6.85-0.52,16.5-1.63,22.67-2.76c1.65-0.3,2.69-0.1,3.53,0.05"/><path d="M46.2,45.23c0.53,0.48,0.97,1.99,1.05,2.49c0.38,2.18,1.57,10.36,2.23,15.76c0.2,1.64,0.33,3.08,0.33,4.08"/><path d="M48.06,47.27c6.63-1.08,26.23-3.66,32.95-4.43c3.59-0.41,5.62,0.35,4.95,4.3c-0.39,2.29-0.98,6.32-2.53,12.39c-0.33,1.3-0.71,2.7-1.13,4.2"/><path d="M49.81,55.73c9.07-0.98,24.57-3.11,34.21-3.47"/><path d="M50.72,65.26c8.53-1.14,24.29-2.62,30.78-2.86"/><path d="M64.21,29.25c0.96,0.95,1.26,2.37,1.26,3.51c0,0.79-0.1,24.86-0.1,29.74"/><path d="M83.34,27.5c2.69,1.3,6.96,5.36,7.63,7.39"/><path d="M36.12,76.48c2.16,0.93,5.39,0.63,7.64,0.35c12.62-1.58,31.15-2.96,43.61-3.73c2.73-0.17,4.92-0.2,7.55,0.48"/><path d="M73.91,65.98c0.93,0.93,1.1,1.77,1.1,3.46c0,11.88,0.08,21.81,0.08,24.69c0,7.99-5.09,1.24-6.58-0.1"/><path d="M50.46,83.08c2.27,1.15,5.87,4.75,6.44,6.54"/></svg>