<svg><path d="M27.49,9c0.04,0.55,0.19,1.46-0.08,2.22C25.75,16,21.5,24,13,32.5"/><path d="M26.73,20.22c4.36,0,20.37-3.16,25.27-3.16"/><path d="M34.52,21.83c2.55,1.22,6.6,5.02,7.23,6.92"/><path d="M62.73,9c0.04,0.51,0.15,1.32-0.07,2.03c-1.67,5.32-6.29,12.92-12.41,19.47"/><path d="M63.48,17.67c5.6,0,22.61-2.85,28.9-2.85"/><path d="M73.73,19.5c0.03,0.24,0.07,0.61-0.06,0.95c-0.8,2-5.39,6.37-11.67,9.05"/><path d="M21.24,37.21c0.22,0.24,0.65,1.31,0.73,2.24c0.55,6.07,1.78,12.33,2.25,16.33"/><path d="M21.8,38.62c8.07-0.91,21.79-1.98,28.17-2.77c2.03-0.25,3.2,1.31,2.94,3.06c-1.04,6.96-2.15,10.61-3.36,14.9"/><path d="M12.24,46.32c1.19,0.46,3.37,0.54,4.57,0.46c12.55-0.84,27.94-2.03,40.37-3.17c1.98-0.18,3.18,0.22,4.17,0.45"/><path d="M24.58,53.67c4.97-0.4,20.12-1.41,25.11-1.61"/><path d="M21.46,60.25c0.48,0.45,0.75,1.48,0.99,2.22c0.66,2.08,1.59,6.4,1.92,9.31"/><path d="M23.39,61.71c6.69-0.72,20.79-2.31,26.08-2.94c1.69-0.2,2.25,0.33,2,2.04c-0.19,1.35-1.21,3.98-1.62,5.95"/><path d="M25.58,69.27c1.67-0.2,24.21-1.31,26.35-1.51"/><path d="M35.66,31.23c1.07,0.4,1.71,1.81,1.92,2.61c0.21,0.8,0,29.14-0.21,34.17"/><path d="M35.11,71.28c0.24,0.75-0.01,1.65-0.28,2.55c-1.35,4.38-7.4,10.37-11.19,15.28c-0.82,1.07-0.23,1.37,0.34,1.36c9.7-0.17,22.27,4.54,27.82,10.27"/><path d="M47.75,75.5c0.1,0.64,0.32,2.22-0.19,3.11c-4.44,7.71-11.01,18.04-32.06,23.64"/><path d="M12.63,81.1c1.27,0.57,2.63,0.42,3.24,0.38C27.36,80.83,42.49,79.2,56,78.31c1.1-0.07,2,0.19,3.26,0.3"/><path d="M71.1,32.39c0.04,0.68,0.23,1.78-0.07,2.71c-1.92,5.94-7.13,19.42-13.78,27.65"/><path d="M69.97,45.81c0.03-0.14,1.62,0,2.2-0.04c5.96-0.42,10.46-1.94,19.56-2.62c1.02-0.08,1.65-0.02,1.92,0.07"/><path d="M83.66,48.56c0.44,1.19,0.68,2.04,0.22,4.22C79.69,72.57,70.15,90.24,56.37,97.1"/><path d="M62.75,60c2.83,0.22,19.84,28.65,28.95,35.56c1.75,1.33,2.87,1.55,4.3,1.69"/></svg>