<svg><path d="M27.75,9.25c0.04,0.56,0.09,1.46-0.08,2.27c-0.99,4.79-6.66,15.29-14.42,21.73"/><path d="M27,19.87c4.27,0,19.46-2.92,24.25-2.92"/><path d="M35.02,21.83c2.49,1.79,6.42,7.35,7.04,10.13"/><path d="M62.23,9.5c0.03,0.44,0.14,1.15-0.07,1.77c-1.6,4.64-6.04,11.27-11.91,16.98"/><path d="M61.98,18.65c5.81,0,26.12-3.56,32.65-3.56"/><path d="M75.99,20.5c0.02,0.19,0.05,0.5-0.05,0.78c-0.58,1.65-3.9,5.26-8.45,7.47"/><path d="M16.66,40.63c0.65,0.18,2.92,0.49,3.57,0.46c5.46-0.26,21.33-2.28,27.19-2.46c1.08-0.03,2.81,0.08,3.35,0.17"/><path d="M17.82,50c0.31,0.3,0.62,0.56,0.75,0.94c1.05,3.03,2.9,9.96,3.62,15.4"/><path d="M18.66,51.8c7.31-0.84,26.54-2.82,29.39-2.95c1.78-0.08,2.76,2.08,2.19,3.76c-1.52,4.5-1.94,6-3.14,9.43"/><path d="M22.16,65.18c9.05-0.67,20.19-2.46,26.99-2.96"/><path d="M33.42,32.25c0.83,0.39,1.32,1.75,1.49,2.53c0.16,0.78,0,60.1-0.16,64.97"/><path d="M34.5,64.25c-4.14,9.14-13.75,21-23.5,27.25"/><path d="M37.25,70c5.85,2.89,10.55,8.58,13.5,14.35"/><path d="M57.14,33.77c1.33,0.44,2.92,0.66,5.04,0.55c4.26-0.23,22.39-2.83,24.73-3.03c1.52-0.13,1.94,0.57,1.86,1.46c-0.22,2.35-4.55,11.02-6.9,12.62c-2.2,1.49-3.71,0.76-4.59-0.63"/><path d="M69.51,34c0.03,0.3,0.08,0.79-0.06,1.23c-1.03,3.24-4.2,8.43-10.94,11.77"/><path d="M60.25,52.04c0.45,0.76,1.1,1.33,1.1,2.32c0,0.99-0.3,29.68-0.3,30.17"/><path d="M62.1,53.7c2.54-0.04,23.55-2.48,25.87-2.55c1.93-0.06,2.31,0.97,2.31,2.46c0,1.23-0.57,30.19-0.57,30.96"/><path d="M62.06,62.68c4.39-0.24,21.94-0.99,27.34-1.04"/><path d="M61.94,72.47c9.08-0.15,20.27-0.51,27.16-0.58"/><path d="M61.63,82.92c7.38-0.36,19.62-1.03,26.88-1.33"/><path d="M66.96,87.75c0.42,1,0.32,1.51-0.39,2.31c-2.35,2.61-8.61,6.53-15.06,9.2"/><path d="M81.46,87.47C86.61,90.2,93.1,96.22,94.5,98.5"/></svg>