<svg><path d="M28.75,9.5c0.04,0.49,0.08,1.26-0.08,1.96c-0.95,4.14-6.43,13.22-13.92,18.79"/><path d="M26.73,19.88c4.32,0,19.17-1.97,24.02-1.97"/><path d="M33.25,21.75c2.56,1.59,6.61,6.53,7.25,9"/><path d="M60.24,10.25c0.03,0.42,0.12,1.11-0.06,1.7c-1.3,4.46-4.91,10.82-9.69,16.3"/><path d="M61,18.45c4.92,0,22.97-1.95,28.5-1.95"/><path d="M76.52,20.75c0.02,0.15,0.05,0.4-0.05,0.61c-0.58,1.3-3.91,4.14-8.47,5.89"/><path d="M20.08,36.27c0.68,0.79,1.13,1.98,1.36,2.75c0.23,0.77,0.2,21.54-0.52,27.97c-1.03,9.15-0.24,15.25-9.26,28.88"/><path d="M21.7,38.56c2.05-0.05,11.85-2.92,13.37-3.02c2.73-0.19,3.41,1.07,3.41,2.19c0,2.65-0.04,37.54-0.04,52.6c0,10.35-5.76,2.92-7.5,1.67"/><path d="M23.5,53.99c3.69-0.18,10.42-0.79,13.66-0.8"/><path d="M22.75,70.02c3.01-0.04,10-0.4,14.08-0.61"/><path d="M56.62,33.84c0.03,0.26,0.05,0.68-0.05,1.06c-0.62,2.23-4.19,7.11-9.07,10.1"/><path d="M77,32c4.59,1.63,11.85,6.71,13,9.25"/><path d="M53.89,45.32c0.83,0.07,2.36,0.09,3.18,0.06c5.29-0.15,16.85-1.86,21.97-1.79c1.38,0.02,2.21,0.03,2.9,0.06"/><path d="M44.69,56.2c1.31,0.48,3.71,0.47,5.03,0.45c9.49-0.15,27.58-2.5,41.77-3.29c2.18-0.12,3.5,0.2,4.59,0.44"/><path d="M67.03,32.75c0,0.7,0.2,1.37,0.17,2.64C67.03,43.09,59,63.25,44.5,70"/><path d="M69.27,45.17c3.57,4.35,18.97,18.55,22.92,21.74c1.34,1.08,3.05,1.54,4.39,1.85"/><path d="M66.8,58.66c0.29,0.56,0.37,0.91-0.04,1.64c-1.51,2.69-3.26,4.94-6.35,8.04c-0.42,0.42-0.44,1.36,0.08,1.45c2.72,0.43,4.22,2.24,6.59,3.18"/><path d="M78.48,62.23c0.02,1.02-0.43,2.44-0.85,2.85C71.46,71.05,63.47,75.9,54.78,81.6c-1.99,1.31,0.67,1.74,2.01,1.4c5.61-1.44,17.97-3.72,25.21-5.25"/><path d="M78.75,72.5c2.47,1.72,6.38,7.07,7,9.75"/><path d="M68.28,83.25c0.07,0.13,0.89,0.65,0.95,1.44c0.31,3.8-0.19,13.76-0.19,15.06"/><path d="M58.38,89.41c0.18,0.51,0.15,1.5-0.18,1.86c-2.11,2.36-7.41,6.91-10.41,8.94"/><path d="M78.65,87.73c5.05,2.07,8.93,6.89,10.1,8.77"/></svg>