<svg><path d="M28.25,10.25c0.04,0.51,0.09,1.31-0.08,2.03c-0.99,4.29-6.66,13.7-14.41,19.47"/><path d="M25.23,21.1c4.46,0,20.27-2.67,25.27-2.67"/><path d="M34.77,22.08c2.13,1.48,5.51,6.08,6.04,8.38"/><path d="M60.75,10c0.03,0.4,0.11,1.04-0.05,1.61c-1.27,4.21-4.79,10.22-9.44,15.39"/><path d="M60.25,18.98c5.42,0,24.79-2.88,30.88-2.88"/><path d="M75.02,21.05c0.02,0.17,0.04,0.44-0.04,0.68c-0.48,1.44-3.23,4.59-6.99,6.52"/><path d="M30.26,31c0.26,0.24,0.27,0.72,0.18,1.2C29.5,37.25,27,41.5,20,46.75"/><path d="M30.13,37.98c2.4,1.06,5.46,3.86,6.62,6.52"/><path d="M48.74,31.75c0.23,0.22,0.25,0.68,0.16,1.12c-0.9,4.63-2.15,8.38-9.15,13.63"/><path d="M48.75,38.75c2.47,0.97,5.61,3.56,6.81,6.01"/><path d="M16.1,51.43c1.78,0.49,5.03,0.65,6.81,0.49c15.59-1.42,47.34-4.42,64.32-4.71c2.96-0.05,4.74,0.24,6.22,0.48"/><path d="M34.57,53.5c0.23,0.28,0.36,1.26,0.41,1.83c0.05,0.56,0,31.41-0.05,34.92"/><path d="M44.7,52.25c0.33,0.28,0.52,1.25,0.59,1.8c0.07,0.55,0,29.1-0.06,32.56"/><path d="M18.11,62.35c0.47,0.1,1.34,0.1,1.81,0.1c3.85-0.01,9.38-1.17,12.89-1.25c0.79-0.02,1.15-0.04,1.65-0.04"/><path d="M18.97,71.7c0.47,0.04,1.32-0.02,1.79-0.06c3.79-0.3,8.94-0.83,12.38-1.17c0.77-0.08,1.13-0.12,1.63-0.16"/><path d="M18.37,81.38c0.48,0.08,1.36,0.01,1.83-0.03c3.88-0.32,9.1-1.02,12.85-1.75c0.77-0.15,1.16-0.14,1.66-0.18"/><path d="M45.78,59.67c0.65-0.03,0.61-0.04,1.09-0.1c3.11-0.4,7.22-1.01,10.19-1.37c0.81-0.1,1.31,0,1.72,0.05"/><path d="M47,68.08c0.62,0,0.58-0.01,1.05-0.05c2.99-0.29,7.18-0.78,10.03-1.05c0.78-0.07,1.25,0.08,1.64,0.16"/><path d="M46.37,77.72c0.65-0.06,0.6-0.06,1.08-0.14c3.07-0.5,7.9-1.3,10.84-1.77c0.8-0.13,1.3-0.05,1.71-0.03"/><path d="M19,94.46c1.21,1.25,4.16,0.74,5.1,0.4C39,89.5,47.81,87.61,60.25,82.75"/><path d="M63.75,32.75c1.3,1.39,1.51,1.78,1.79,4.77c2.27,25.03,10.56,49.48,26.47,58.81c5.11,3,4.38,0.6,3.73-5.56"/><path d="M84.5,55.25c0.09,0.97,0.18,2.5-0.17,3.89c-2.07,8.21-13.96,27.14-30.24,38.17"/><path d="M75.25,31c3.51,1.85,9.11,6.08,10.75,9.25"/></svg>