<svg><path d="M15.19,25.89c2.65,2.26,6.65,8.65,7.31,12.16"/><path d="M46.26,22.47c0.02,0.31,0.04,0.81-0.04,1.26c-0.51,2.66-3.42,8.49-7.4,12.06"/><path d="M12.6,46.35c0.55,0.27,2,0.95,3.46,0.8c5.21-0.53,20.68-3.2,26.57-4.06c1.45-0.21,1.82-0.27,2.73,0"/><path d="M30.02,14.46c0.88,0.45,1.41,2.03,1.59,2.94s0,72.74-0.18,78.39"/><path d="M31.02,45.46C27.76,55.95,19.83,70.67,12.5,76.73"/><path d="M33.62,51.57c5.3,3.03,9.19,6.53,11.15,11.65"/><path d="M55.02,23.74c1.33,0.81,4.5,0.6,5.67,0.44c10.5-1.43,23.55-2.59,28.81-3.42c3.42-0.54,4.97,1.63,4.75,5.42C93.5,39,88.75,69.75,81.75,84.1c-3.95,8.1-6,5.15-9.41,1.26"/><path d="M68.88,26.06c0.12,1.44,0.67,3.15,0.36,5.15c-3.2,20.04-7.73,40.29-24.48,58"/><path d="M53.5,32.5c4.56,13.14,23.3,33.87,35.49,42.44c2.39,1.68,5.05,2.76,7.26,3.31"/></svg>