<svg><path d="M15.25,27.12c2.81,2.03,7.05,7.77,7.75,10.93"/><path d="M47.51,21.22c0.07,0.8,0.01,1.58-0.31,2.31c-1.69,3.85-4.07,7.47-8.12,11.76"/><path d="M14.85,46.27c2.02,0.36,3.77,0.17,5.41-0.08c5.6-0.83,14.49-2.44,20.63-3.73c1.28-0.27,2.67-0.52,3.97-0.19"/><path d="M30.77,15.96c1.01,1.01,1.34,2.66,1.34,3.94c0,2.46-0.13,50.44-0.17,67.85c-0.01,2.75-0.01,4.7-0.01,5.54"/><path d="M31.27,46.46c0,1.54-0.39,2.61-0.92,3.96C26.41,60.53,19.88,70.88,12,79.48"/><path d="M35,51.38c4,2.75,7.65,6.49,9.28,9.84"/><path d="M62.77,21.52c0.23,1.23,0,2.08-0.39,3.12c-3.13,8.36-8,17.48-15.78,25.61"/><path d="M68.84,18.5c4.36,0,13.13,15.53,19.33,21.71c1.76,1.76,3.86,3.88,5.98,5.17"/><path d="M53.98,54.12c2.02,0.51,3.64,0.55,5.39,0.29c6.05-0.86,16.17-2.88,21.12-3.68c4.49-0.73,5.81,0.81,5.25,5.15c-1.02,7.86-5,25.77-8.4,31.9c-2.5,4.5-5.71,1.21-7.58-0.24"/><path d="M66.79,56.5c0.05,0.76-0.03,2.01-0.36,3.04c-3.31,10.58-9.56,23.33-17.99,31.21"/></svg>