<svg><path d="M13.19,25.89c2.83,2.17,7.1,8.29,7.81,11.66"/><path d="M45.26,23.47c0.02,0.31,0.04,0.81-0.04,1.26c-0.51,2.66-3.42,8.49-7.4,12.06"/><path d="M11.1,45.77c0.53,0.23,1.94,0.8,3.35,0.68c5.05-0.45,22.05-2.7,27.76-3.42c1.4-0.18,1.76-0.23,2.65,0"/><path d="M28.52,13.96c0.88,0.45,1.41,2.03,1.59,2.94s0,74.24-0.18,79.89"/><path d="M30.02,44.96C26.67,56.79,18.53,73.4,11,80.23"/><path d="M32.62,51.07c4.58,2.9,7.95,6.25,9.65,11.15"/><path d="M77.28,16c0.07,0.43-0.69,2.23-1.15,2.73c-4.3,4.62-13.11,10.76-24.39,15.52"/><path d="M48.5,50.39c0.99,0.35,2.81,0.45,3.79,0.35c10.29-1.1,24.36-4.27,32.87-5.08c1.63-0.15,2.64,0.16,3.46,0.34"/><path d="M44.13,70c1.05,0.31,4.1,0.51,5.13,0.31c11.99-2.31,31-6.48,40.49-7.19c1.74-0.13,3.91,0.15,4.79,0.3"/><path d="M64.99,31.87c0.59,1.14,1.06,2.49,1.1,4.25c0.16,7.87-0.58,39.83-0.58,44.66c0,12.74,3.5,13.24,15.24,13.24C95.5,94.03,95,91.6,95,83.19"/></svg>