<svg><path d="M43.99,9.75c-0.04,1.31-0.42,2.49-1.13,3.52c-4.13,6.74-10.24,14.11-23.62,21.35"/><path d="M43.25,18.55c1.85,0.21,3.73,0.11,5.53-0.3c4.97-1.12,10.77-2.35,14.48-3.19c2.64-0.59,3.86,0.97,2.58,3.44c-4.68,9.08-28.89,28.73-52.6,34.45"/><path d="M58.88,30.25c4.3,2.63,18.16,12.53,26.15,17.65c3.47,2.23,5.25,3.21,8.22,4.35"/><path d="M32.02,52.83c3.35,1.94,8.4,6.9,9.23,9.92"/><path d="M75.53,48.39c0.1,1.01-0.1,1.97-0.59,2.87C73,54.5,69.76,58.65,67.12,61.5"/><path d="M18.75,67.47c3.83,0.72,7.61,0.35,11.51,0c14.61-1.34,36.86-2.84,49.61-3.39c3.71-0.16,7.42-0.03,11.13,0.4"/><path d="M53,44.5c1.25,1.25,1.5,2.62,1.5,4.25c0,1.03,0,44.75,0,52.25"/><path d="M52.5,66.25c-0.25,1.38-1.81,2.87-2.8,4.13c-6.93,8.8-20.56,19.07-36.2,24.87"/><path d="M57.25,67.38c3.84,2.7,15.4,12.16,23.67,18.09c3.67,2.53,7.53,4.7,11.58,6.53"/></svg>