<svg><path d="M14.19,26.14c2.65,2.21,6.65,8.47,7.31,11.91"/><path d="M44.26,22.47c0.02,0.31,0.04,0.81-0.04,1.26c-0.51,2.66-3.42,8.49-7.4,12.06"/><path d="M11.35,45.2c0.56,0.19,2.05,0.66,3.53,0.56c5.33-0.37,21.15-2.21,27.18-2.81c1.48-0.15,1.86-0.19,2.79,0"/><path d="M29.02,16.46c0.88,0.45,1.41,2.03,1.59,2.94s0,69.74-0.18,75.39"/><path d="M30.52,44.96C26.69,56.45,17.37,72.59,8.75,79.23"/><path d="M33.37,51.32c4.46,2.97,7.74,6.39,9.4,11.4"/><path d="M53.23,47.28c4.49-0.31,7.83-0.91,11.75-1.44c1.15-0.15,3.05-0.15,3.64-0.06"/><path d="M51.87,16.83c0.69,1.12,1.29,2.3,1.29,3.84c0,4.17,0.28,58.33,0.28,64.53c0,3.8,1.57,4.55,3.28,3.14c4.79-3.94,6.54-6.34,9.76-8.6"/><path d="M94.57,32.44c0.21,0.93,0.27,3.03-0.73,4.08c-5.68,6.03-9.99,10.44-16.32,15.47"/><path d="M73.29,15.5c0.8,1.18,1.49,3.06,1.49,4.55c0,3.93-0.37,57.04-0.37,61.65c0,10.54,2.34,11.55,11.39,11.55c12.2,0,10.89-2.26,10.89-12.57"/></svg>