<svg><path d="M16.44,26.39c2.75,2.35,6.37,9,7.06,12.66"/><path d="M48.26,21.97c0.02,0.31,0.04,0.81-0.04,1.26c-0.51,2.66-3.42,8.49-7.4,12.06"/><path d="M13.1,46.27c0.53,0.23,1.94,0.8,3.35,0.68c5.05-0.45,23.55-4.7,29.26-5.42c1.4-0.18,1.76-0.23,2.65,0"/><path d="M32.52,14.46c0.88,0.45,1.41,2.03,1.59,2.94s0,70.74-0.18,76.39"/><path d="M34.02,44.46C30.76,54.95,21.5,70.5,13.5,79.73"/><path d="M36.62,53.32c5.06,3.1,8.77,6.67,10.65,11.9"/><path d="M71.91,17.5c0.5,1.02,0.68,2.31,0.46,3.15c-1.63,6.18-7.71,18.27-13.18,25.31"/><path d="M53.8,46.26c0.59,1.14,1.19,3.03,1.19,4.55c0,1.51,1.69,32.6,1.69,41.69"/><path d="M55.85,48c3.35-0.19,28.57-3.04,31.62-3.39c3.03-0.35,4.23,1.24,4.22,3.63c-0.01,4.08-2.03,30.62-2.66,43.12"/><path d="M56.31,67.97c7.03-0.57,28.92-3.11,34.05-3.11"/><path d="M56.98,90.03c8.41-0.61,22.88-2.56,31.85-2.84"/></svg>