<svg><path d="M26.75,15.47c1.69,0.82,4.55,0.67,6.39,0.52c9.71-0.83,30.34-2.99,40.1-3.62c2.45-0.16,4.6-0.64,7.01,0.06"/><path d="M22.75,29.19c0.92,0.63,1.47,1.51,1.64,2.63c1.01,3.84,1.68,6.89,2.51,10.64c0.29,1.31,0.6,2.71,0.94,4.25"/><path d="M25.29,30.53c11.86-1.77,47.02-5.52,55.84-6.38c2.94-0.28,4.64,0.67,3.89,3.73c-0.65,2.65-1.33,5.49-2.31,8.88c-0.41,1.4-0.87,2.88-1.4,4.49"/><path d="M41.12,18.75c0.81,0.81,1.33,2.23,1.46,3.25C43.12,26.38,44,34.25,45,41.25"/><path d="M64.37,16c0.5,1.12,0.38,2.88,0.13,4.25c-1.29,7.12-2.25,13-3.5,19.5"/><path d="M28.5,44.12c13-1.38,32.75-3.62,52.2-4.63"/><path d="M31.38,51.5c2.85,1.77,7.16,6.75,7.88,9.5"/><path d="M75.53,46.14c0.08,1.02-0.1,1.85-0.64,2.81c-2,3.58-4.96,6.62-8.08,9.76"/><path d="M17.5,68.06c2.99,0.82,5.93,0.82,8.98,0.42c16.77-2.23,38.39-4.61,56.77-5.77c3.1-0.2,5.94,0.03,9,0.54"/><path d="M53.25,47.75c1.12,1.12,1.5,2.62,1.5,4c0,0.87,0,29.19,0,42.38c0,2.37,0,4.25,0,5.38"/><path d="M50,66.25c0,1.12-1.06,2.68-2.15,3.96c-7.08,8.3-19.12,17.34-33.1,22.54"/><path d="M55.5,66.25C62.25,72,70.88,78.88,82.65,86.28c3.01,1.89,6.23,3.47,9.1,4.22"/></svg>