<svg><path d="M18.15,26.29c2.88,2.1,7.23,8.05,7.96,11.33"/><path d="M50.77,21.61c0.13,0.8,0.01,1.55-0.35,2.26c-1.47,3.85-3.82,7.49-7.64,12.31"/><path d="M15.16,46.2c1.76,0.7,4.31,0.39,6.1,0.04c6.53-1.29,18.43-3.25,25.24-4.2c1.71-0.24,4.04-0.51,5.75-0.1"/><path d="M35.37,14.46c1.02,1.02,1.08,2.16,1.08,3.64c0,0.7,0.05,51.41,0.05,70.51c0,4.31,0,7.02-0.01,7.17"/><path d="M35.1,45.37c0,1.13-0.42,2.58-1.43,4.43c-5.42,9.96-11.8,19.58-19.94,29.14"/><path d="M39.14,52.78c2.98,2.35,7.36,7.35,9.11,11.92"/><path d="M70.81,16.63c1.34,1.34,1.51,2.87,1.51,4.5c0,0.91,0,33.87,0,47"/><path d="M73.25,43.75c7.27-0.75,15.35-2,16.36-2c1.01,0,2.83,0,3.64,0.25"/><path d="M54.91,69.3c0.9,0.9,1.29,1.79,1.41,2.93c1.05,5.27,2.14,11.86,3,18.51c0.23,1.83,0.45,3.58,0.64,5.17"/><path d="M56.96,70.44c10.68-1.17,24.61-2.1,31.07-2.75c3.07-0.3,5.18,0.89,4.53,4.2c-1.08,5.48-2.42,10.9-3.89,17.87"/><path d="M60.86,92.41c6.21-0.33,15.6-0.97,24.67-1.44c2.1-0.11,4.12-0.2,6.01-0.25"/></svg>