<svg><path d="M13.94,25.89c2.92,2.26,7.33,8.65,8.06,12.16"/><path d="M45.01,21.47c0.03,0.37,0.05,0.96-0.05,1.49c-0.6,3.15-4.02,10.06-8.71,14.29"/><path d="M11.95,45.47c0.56,0.17,2.06,0.59,3.55,0.5c5.36-0.33,20.74-2.7,26.8-3.23c1.49-0.13,1.87-0.17,2.81,0"/><path d="M29.52,15.46c0.88,0.47,1.41,2.1,1.59,3.04c0.18,0.94,0,73.15-0.18,79"/><path d="M31.02,45.46C27.54,56.71,19.08,72.51,11.25,79"/><path d="M31.87,53.07c5.52,3.24,9.58,6.97,11.63,12.43"/><path d="M68.21,13.25c0.83,0.45,1.33,1.12,1.5,2.02c0.17,0.9,0.17,7.17,0.17,9.42"/><path d="M56.61,27.45c2.28-0.05,25.52-3.07,27.6-3.15c1.73-0.07,2.69,1.34,2.65,2.04c-0.25,4.92-1.78,24.54-2.86,27.91"/><path d="M57.23,40.56c5.32-0.41,23.23-2,28.34-2.32"/><path d="M56.85,53.7c7.68-0.44,17.76-1.06,26.11-1.5"/><path d="M53.51,25.73c1.46,0.58,2.34,2.63,2.64,3.81c0.29,1.17,0.62,59.49,0.29,62.4c-0.29,2.63-0.9,7.52,2.23,4.66c4.16-3.82,8.19-7.48,13.28-12.46"/><path d="M91.38,57.55c0.37,1.48,0.08,2.53-1.15,3.75C87,64.5,82.37,68.93,79,71"/><path d="M64.38,54.48C69.02,59.16,81.27,81,88.33,88.97c3.76,4.25,5.67,5.37,7.74,6.17"/></svg>