<svg><path d="M15.5,21.56c0.53,0.08,2.52,0.09,3.05,0.08c5.1-0.06,16.32-0.73,20.32-0.83c0.88-0.02,2.43,0.04,2.88,0.08"/><path d="M16.25,46.03c0.79,0.72,2.37,1.1,4.74,0.15c6.58-2.63,13.43-5.06,20.01-7.69"/><path d="M57.01,8.5c0.05,0.6,0.1,1.54-0.1,2.39c-1.19,5.04-8.04,16.09-17.41,22.86"/><path d="M55.64,20.57c0.98,0.33,2.83,0.89,4.35,0.73c1.85-0.18,24.81-3.28,26.55-3.18c5.99,0.32-1.05,6.77-4.97,10.16"/><path d="M63.01,26.25c0.06,0.59,0.29,1.6-0.13,2.37C59.5,34.75,51.75,45,40.24,51.25"/><path d="M61.87,30.93c3.78,3.47,16.99,13.87,23.77,17.58c1.43,0.78,2.51,1.25,3.86,1.5"/><path d="M25.27,53.08c3.98,1.8,9.99,6.87,10.98,9.67"/><path d="M76.01,52c0.03,0.32,0.18,0.86-0.06,1.28c-2.27,4.1-6,8.57-9.95,12.22"/><path d="M15.49,69.82c0.88,0.16,3.23,0.57,5.58,0.5c13.38-0.42,54.49-3.37,67.73-3.63c2.35-0.05,3.99,0.21,5.46,0.37"/><path d="M53.15,50.75c0.82,0.47,1.32,2.12,1.48,3.06c0.17,0.94,0,39.79-0.17,45.69"/><path d="M52.75,68.5c-6.78,9.31-23.26,22.38-38.5,27.75"/><path d="M55,69.25c5.02,3.43,27.02,19.66,32.47,23.04c1.85,1.14,3.43,1.63,5.28,1.96"/></svg>