<svg><path d="M14.44,25.89c2.56,2.26,6.42,8.65,7.06,12.16"/><path d="M44.51,23.25c0.06,0.78-0.04,1.54-0.32,2.27c-0.89,2.77-3.37,7.34-6.61,10.27"/><path d="M12.1,45.35c1.67,0.44,3.36,0.56,5.05,0.36c5.83-0.46,17.37-2.1,23.77-2.71c1.48-0.17,2.96-0.21,4.45-0.13"/><path d="M29.02,16.71c1.07,1.07,1.59,2.64,1.59,4.19c0,0.76,0.05,44.03,0.07,64.63c0,4.23,0.01,7.51,0.01,9.26"/><path d="M30.52,45.46C26.6,57.04,16.59,72.04,8.25,79.98"/><path d="M33.37,51.82c4.46,2.84,7.74,6.11,9.4,10.9"/><path d="M52.17,22.4c1.04,1.04,1.69,3.29,1.58,4.96c-0.07,7.27,0.01,40.96-0.05,57.73c-0.02,4.1-0.02,7.21-0.02,8.69"/><path d="M54.3,24.33c5.79-0.93,34.39-3.55,35.66-3.7C95.25,20,95,23,94.81,27.4c-0.1,2.33,0.15,57.35,0.15,62.71c0,9.39-4.57,6.29-7.64,1.88"/><path d="M61.13,39.79c0.68,0.35,1.93,0.39,2.61,0.35c7.09-0.4,15.18-2.19,19.36-2.19c1.14,0,1.82,0.17,2.39,0.34"/><path d="M62,52.27c0.7,0.65,1.33,2.06,1.49,3.02c0.92,5.54,1.55,8.95,2.18,13.13c0.16,1.06,0.32,2.17,0.49,3.38"/><path d="M64.21,54.37c7.29-1.12,14.08-2.07,17.72-2.58c1.33-0.19,2.13,1.1,1.94,2.18c-0.79,4.5-1.46,7.14-2.64,13.36"/><path d="M66.81,70.38c2.4-0.29,8.65-1.14,12.68-1.7c1.82-0.25,3.18-0.44,3.54-0.49"/></svg>