<svg><path d="M13.19,26.14c3.1,2.44,8.03,9.81,8.81,13.6"/><path d="M44.26,22.97c0.02,0.33,0.04,0.84-0.04,1.31c-0.51,2.76-3.42,8.81-7.4,12.51"/><path d="M9.46,46.37c0.6,0.17,2.22,0.6,3.82,0.51c5.77-0.33,22.39-2.19,28.91-2.74c1.6-0.13,2.01-0.17,3.02,0"/><path d="M28.71,15.01c1.19,0.71,1.79,3.1,1.86,5.09c0.03,0.72,0.18,43.94,0.1,65.71c-0.01,4.13-0.03,7.42-0.03,9.44"/><path d="M30.45,48.31C26.93,59.54,17.13,74.26,9.38,82.24"/><path d="M32.62,50.82c5.16,3.43,8.96,7.39,10.88,13.18"/><path d="M52.32,24.3c0.88,0.23,2.5,0.26,3.38,0.23c6.78-0.24,27.9-2.09,37.51-2.21c1.47-0.02,2.35,0.11,3.08,0.22"/><path d="M73.5,28c0.02,0.36,0.04,0.93-0.04,1.45c-0.46,3.06-3.12,9.77-6.75,13.87"/><path d="M52.21,46.32c0.29,1.21,0.65,1.63,0.72,3.83c0.08,2.47,0.08,25.01,0.08,36.5c0,3.21,0,5.56,0,6.36"/><path d="M54.57,48.02c10.28-0.95,37.6-3.14,38.74-3.2c2.33-0.12,3.66,1.2,3.57,3.01c-0.2,4.1-1.33,33.64-1.67,40.48c-0.56,11.46-3.84,5.51-6.44,2.64"/><path d="M65.78,47.22c0.48,0.98,0.85,2.13,0.85,5.37c0.01,9.9-0.24,19.76-0.28,30.36c-0.01,2.15-0.01,4.33,0.01,6.55"/><path d="M79.13,47.39c0.49,0.92,0.93,2,0.91,5.05c-0.05,9.19,0,20.34,0.03,29.44c0.01,2.72,0.01,5.25,0.01,7.5"/></svg>