<svg><path d="M13.69,25.14c2.83,2.39,7.1,9.14,7.81,12.86"/><path d="M43.76,24.22c0.02,0.28,0.04,0.73-0.04,1.14c-0.44,2.4-2.99,7.67-6.48,10.89"/><path d="M10.95,46.12c0.59,0.16,2.16,0.58,3.71,0.49c5.6-0.32,21.68-2.65,28.01-3.17c1.55-0.13,1.96-0.16,2.93,0"/><path d="M29.02,16.46c0.88,0.45,1.41,2.03,1.59,2.94s0,69.24-0.18,74.89"/><path d="M30.52,46.96C26.47,58.21,16.62,74.01,7.5,80.5"/><path d="M33.37,52.82c4.7,2.45,8.16,5.27,9.9,9.4"/><path d="M49.99,22.37c1.19,0.36,3.38,0.47,4.57,0.33c10.73-1.17,23.93-2.62,39.29-3.48c1.98-0.11,3.18,0.15,4.17,0.33"/><path d="M70.98,23.79c0.23,0.51,0.27,1.12,0.21,1.57c-0.33,2.6-3.14,9.65-5.69,13.15"/><path d="M54.55,39.39c0.72,1.34,1.45,2.02,1.45,3.81C56,56,56.5,84,56.14,94.23"/><path d="M56.2,41.08c3.19-0.22,29.16-2.78,32.06-3.04c2.42-0.22,3.98,1.49,3.79,2.81c-0.38,2.67-1.34,38.43-1.64,52.66"/><path d="M57.11,63.61c13.94-1.25,24.14-2.11,33.78-2.71"/><path d="M56.79,90.62c11.06-1.06,22.82-1.98,33.22-2"/></svg>