<svg><path d="M23.75,11.5c3.97,1.59,10.26,6.53,11.25,9"/><path d="M16.75,26.76c3.97,1.14,10.26,4.71,11.25,6.49"/><path d="M17,51.21c1.32,0.62,2.92,0.65,3.75-0.12c2.43-2.24,15.85-14.98,18.06-17.84"/><path d="M48.53,15.1c1.08,0.4,2.95,0.84,3.89,0.7c7.7-1.16,22.62-2.21,26.89-2.65c2.78-0.28,4.02,0.78,3.88,2.66c-0.38,4.96-4.36,20.7-9.48,27.66c-3.7,5.03-4.33,2.84-6.43,0.16"/><path d="M65.25,17.75c0.05,0.66,0.08,1.7-0.12,2.65c-1.9,9.3-5.66,19.2-19.39,27"/><path d="M52.5,26c-1,3.44-4,7.9-7.25,10.27"/><path d="M86.5,29.92c2.91,1.99,7.52,8.18,8.25,11.27"/><path d="M31.75,54.5c3.28,1.59,8.22,6.07,9.04,8.54"/><path d="M76.99,52.25c0.02,0.3,0.04,0.77-0.04,1.21C76.44,56,73.51,61.58,69.5,65"/><path d="M17.4,69.94c0.98,0.13,3.59,0.35,6.2,0.41c7.18,0.15,52.54-3.13,63.97-2.85c2.61,0.07,4.26,0.37,5.89,0.51"/><path d="M53.17,51.25c1.1,0.29,1.25,1.79,1.47,2.37c0.22,0.57,0,41.29-0.22,44.88"/><path d="M51.74,69.14c-6.38,8.2-21.88,19.72-36.23,24.45"/><path d="M56.1,69.86c4.67,3.25,25.16,18.6,30.23,21.79c1.72,1.08,3.2,1.55,4.92,1.86"/></svg>