<svg><path d="M32.31,10.63c0.69,0.62,1.5,2.4,1.6,2.78c0.1,0.38-0.06,15.63-0.16,17.97"/><path d="M34.5,18.66c5.73-0.31,12.09-1.65,12.89-1.65s2.23,0,2.86,0.1"/><path d="M24.74,25.89c0.11,0.33,0.32,1.31,0.21,1.96c-0.69,3.86-4.88,12.21-10.25,17.4"/><path d="M26.72,32.87c0.25,0.02,1.29,0,1.99-0.07c2.3-0.23,12.56-1.93,15.62-2.82c2.2-0.64,2.89,0.56,2.32,1.91c-3.15,7.35-19.05,25.83-33.11,29.62"/><path d="M23.44,39.4c3.28,1.15,8.47,4.74,9.29,6.53"/><path d="M59.58,19.05c1.13,0.21,1.27,0.52,3.51,0.21c2.25-0.31,18.41-3,19.95-3.31c1.55-0.31,2.67,1.14,2.11,2.28C78.54,31.68,66.88,41.93,54.24,47"/><path d="M58.25,24.02c3.4,0.6,20.02,16.78,31.86,23.41c1.84,1.03,3.19,1.72,4.9,2.06"/><path d="M32.71,55.08c3.02,1.66,7.58,6.34,8.34,8.92"/><path d="M76.34,51.14c0.02,0.34,0.05,0.87-0.05,1.36c-0.57,2.86-3.85,9.13-8.33,12.97"/><path d="M18.31,69.62c0.81,0.13,3.49,0.52,5.65,0.38c7.79-0.5,49.54-2.75,61.38-3.05c2.17-0.05,3.41,0.04,5.06,0.5"/><path d="M52.98,52.5c0.98,0.39,1.58,1.75,1.77,2.53c0.2,0.78,0,39.61-0.2,44.47"/><path d="M51.72,68.75c-6.42,8.72-22.03,20.97-36.47,26"/><path d="M55.03,68c4.98,3.57,26.82,20.45,32.23,23.96c1.83,1.19,3.41,1.7,5.24,2.04"/></svg>