<svg><path d="M16.12,26.62c2.67,2.03,6.71,7.77,7.38,10.93"/><path d="M45.27,21.47c0.23,0.91-0.03,1.89-0.38,2.76c-1.18,2.91-2.93,6.53-5.57,10.06"/><path d="M11.35,45.27c2.02,0.48,4.56,0.32,6.28,0.16c6.52-0.61,17.23-2.04,22.08-2.65c1.4-0.18,2.41-0.15,3.65,0"/><path d="M30.52,14.96c0.94,0.94,1.59,2.41,1.59,3.69c0,7.35,0.05,50.74-0.09,70.1c-0.03,3.75-0.06,6.37-0.08,7.29"/><path d="M30.27,44.96c0,2.16-0.51,3.73-1.25,5.64c-3.65,9.44-9.38,20.99-17.27,28.87"/><path d="M35.37,50.82c3.5,2.68,7,6.31,9.15,10.4"/><path d="M52.53,23.1c2.1,0.27,3.74,0.08,5.48-0.12c6.19-0.68,16.94-2.38,22.86-3.08c1.64-0.19,3.53-0.15,5.17-0.03"/><path d="M67.46,12.38c1.02,1.02,1.57,2.62,1.57,4.18c0,5.93-0.18,17.83-0.11,25.16"/><path d="M53.64,32.82c1.69,0.49,3.68,0.42,5.36,0.09c6.62-1.28,15.6-2.15,20.99-2.72c1.64-0.17,3.27-0.26,4.92-0.17"/><path d="M48.38,44.39c2.58,0.52,5.03,0.28,7.6-0.08c10-1.42,22.6-2.86,34.15-3.57c2.23-0.14,4.87,0.02,6.62,0.43"/><path d="M54.6,51.78c0.87,0.87,1.24,2.35,1.24,3.65c0,12.83-0.01,20.2-0.01,35.83c0,2.3-0.07,4.12-0.07,6"/><path d="M56.83,53.33c6.92-0.95,14.8-1.95,22.51-2.86c3.29-0.39,4.87,0.91,4.87,3.36c0,10.54-0.02,29.78-0.08,36.92c-0.09,9.82-4.38,4.12-6.3,1.91"/><path d="M57.08,64.36c8.67-0.86,16.92-1.61,25.94-2.22"/><path d="M56.94,76.49C64,76,74.62,75,83.1,74.57"/></svg>