<svg><path d="M12.19,24.64c2.47,2.3,6.19,8.79,6.81,12.36"/><path d="M40.76,20.75c0.02,0.34,0.03,0.87-0.03,1.35c-0.4,2.85-2.73,9.11-5.9,12.94"/><path d="M10.85,44.75c0.51,0.14,1.87,0.48,3.22,0.4c4.85-0.27,19.77-2.21,25.25-2.64c1.35-0.11,1.69-0.14,2.54,0"/><path d="M26.02,14.96c0.88,0.45,1.41,2.03,1.59,2.94s0,73.24-0.18,78.89"/><path d="M27.52,44.46C24.7,55.88,17.84,71.91,11.5,78.5"/><path d="M28.5,51.75c5.12,3.38,7.75,7,10.78,12.96"/><path d="M47,26.63c0.98,0.25,2.77,0.33,3.75,0.28c7.2-0.33,28.86-2.08,41.32-2.42c1.63-0.05,2.61,0.15,3.42,0.27"/><path d="M56.3,14.89c0.83,0.5,1.34,2.17,1.51,3.13c0.17,0.96,0.28,38.78,0.16,43.68"/><path d="M78.83,11.77c0.86,0.51,1.38,2.24,1.55,3.23c0.17,0.98,0.36,40.1,0.24,45"/><path d="M58.45,38.82c2.68-0.32,19.67-1.35,21.56-1.3"/><path d="M58.48,49.88c4.09-0.09,18.12-1.41,21.9-1.51"/><path d="M44.75,62.55c1.38,0.26,3.92,0.33,5.3,0.31c14.39-0.24,29.29-2.35,43.36-2.61c2.3-0.04,3.69,0.16,4.84,0.3"/><path d="M65.13,64.64c0.37,1.11,0.32,2.06,0.23,2.65c-0.73,4.78-3.11,9.21-9.28,15.92"/><path d="M74.65,62.68c0.66,0.96,1.22,2.1,1.22,3.56c0.01,2.11-0.15,3.94-0.14,7.66c-0.08,4.84,0.72,6.16,7.63,6.3c4.87,0.12,9.02-0.82,9.84-1.7"/><path d="M50.37,62.86c0.67,0.92,0.47,2.97,0.47,6.22c0,3.07-0.06,4.52-0.06,13.2c0,8.68-0.28,10.35,22.37,10.35c15.1,0,18.32-1.51,20.83-2.56"/></svg>