<svg><path d="M12.44,25.39c3.1,2.54,7.78,9.71,8.56,13.66"/><path d="M44.01,22.72c0.02,0.3,0.04,0.77-0.04,1.19c-0.49,2.51-3.3,8.01-7.15,11.38"/><path d="M8.85,46.22c0.59,0.11,2.18,0.4,3.75,0.34c5.66-0.22,21.9-1.86,28.29-2.22c1.57-0.09,1.97-0.11,2.96,0"/><path d="M28.52,14.96c0.88,0.45,1.41,2.03,1.59,2.94s0,73.24-0.18,78.89"/><path d="M30.02,45.96C26.5,57.37,17.93,73.39,10,79.98"/><path d="M31.25,52.25c4.63,3.38,8.03,7.29,9.75,13"/><path d="M52.49,14.91c0.76,0.59,3.01,1.34,3.98,1.25c4.28-0.41,26.09-2.71,28.11-3c2.02-0.29,2.71,1.2,1.51,2.13c-2.07,1.6-11.55,8.56-12.83,9.7"/><path d="M63,21.25c2.94,1.04,9.87,5.03,11.25,7.75"/><path d="M47.99,32.67c0.62,0.22,2.48,0.97,4.48,0.81c13.88-1.09,27.94-2.45,37.17-2.83c9.86-0.41,0.2,7.79-2.89,10.59"/><path d="M73.02,33.15c0,6.45-0.03,10.64-0.03,14.66c0,4.85-4.52,1.27-6.29-0.25"/><path d="M67.25,32.75c0.06,0.45,0.22,1.19-0.12,1.81c-2.62,4.8-8.36,11.5-21.49,17.3"/><path d="M46.56,66.35c1.35,0.28,2.88,0.36,4.43,0.26c7.88-0.52,31.06-1.78,42.98-2.4c1.53-0.08,2.5,0.03,4.04,0.22"/><path d="M70.42,56.33c0.7,0.99,1.23,2.19,1.23,3.2c0,10.35,0,33.3-0.18,39.46"/><path d="M68.25,66c-4.1,9.08-16.61,20.89-27.75,24.75"/><path d="M72.35,65.95c2.95,3.01,16.83,18.12,20.04,21.08c1.09,1,2.02,1.43,3.11,1.72"/></svg>