<svg><path d="M13.69,25.89c2.29,1.84,5.74,7.05,6.31,9.91"/><path d="M42.01,21c0.02,0.32,0.04,0.82-0.04,1.28c-0.42,2.7-2.84,8.63-6.15,12.26"/><path d="M11.85,45.1c0.49,0.17,1.8,0.59,3.11,0.5c4.69-0.33,19.14-2.25,24.44-2.78c1.3-0.13,1.64-0.16,2.46,0"/><path d="M26.98,14.96c0.93,0.48,1.49,2.15,1.68,3.11s0,72.74-0.19,78.72"/><path d="M28.52,45.46C25.04,57.21,16.58,73.72,8.75,80.5"/><path d="M30,52.25c5,4,9.08,7.71,11.03,12.96"/><path d="M65.84,13.25c0.76,0.34,1.84,1.23,1.82,2.21c-0.06,3.11-0.06,9.18-0.06,12.02"/><path d="M48.91,24.98c0,3.46-1.84,11.95-2.94,14.25"/><path d="M48.64,28.75c0.9,0.07,35.03-2.36,39.6-2.49c9.51-0.26,0.88,6.91-0.26,7.63"/><path d="M53.06,41.23c0.94,0.26,2.68,0.39,3.61,0.26c6.7-0.91,19.34-1.83,23.36-2.14c1.56-0.12,2.33-0.03,3.29-0.07"/><path d="M67.57,41.89c0.06,0.38,0.13,0.99-0.12,1.55c-1.52,3.26-10.25,10.43-22.2,14.81"/><path d="M62.1,49.41c9.15,3.84,14.15,23.59,7.32,41.52c-2.14,5.61-6.54,0.34-7.49-0.45"/><path d="M65.46,54.26c0.06,0.45,0.13,1.15-0.12,1.79c-1.44,3.79-9.74,12.11-21.08,17.2"/><path d="M68.5,64.34c0.07,0.56,0.15,1.45-0.15,2.26c-1.79,4.77-12.06,16.24-26.11,22.65"/><path d="M86.3,47.27c0.04,0.3,0.08,0.78-0.08,1.21c-0.97,2.54-6.55,8.13-14.18,11.55"/><path d="M72.84,62.22c3.32,3.08,17.91,17.18,21.52,20.22c1.22,1.03,2.27,1.47,3.5,1.76"/></svg>