<svg><path d="M14.69,26.14c2.47,2.12,6.19,8.11,6.81,11.41"/><path d="M44.26,22.72c0.02,0.32,0.03,0.82-0.03,1.28c-0.41,2.7-2.76,8.62-5.98,12.25"/><path d="M13.1,46.78c0.55,0.14,2.01,0.5,3.46,0.42c5.21-0.28,20.17-2.29,26.07-2.74c1.45-0.11,1.82-0.14,2.73,0"/><path d="M29.35,15.96c0.8,0.62,1.28,2.79,1.44,4.02c0.16,1.24,0,68.56-0.16,76.3"/><path d="M30.52,45.96c-3.48,11.33-11.94,27.25-19.77,33.79"/><path d="M32.62,52.82c4.46,3.23,7.74,6.95,9.4,12.4"/><path d="M51.75,24.44c1.21,0.33,2.62,0.39,3.83,0.33c11.13-0.6,23.35-2.16,36.18-2.21c2.02-0.01,3.23,0.16,4.24,0.32"/><path d="M58.92,13.5c1.33,1.11,1.81,1.44,1.9,2.13c0.94,7.55,1.44,11.92,2.34,18.12"/><path d="M80.78,13.75c0.34,0.58,0.85,1.56,0.77,2.14c-0.86,6.03-1.21,11.2-2.35,17.61"/><path d="M48.64,40.5c0.98,0.33,2.79,0.38,3.78,0.32c10.25-0.56,28.17-1.16,40.19-1.98c1.64-0.11,2.62,0.16,3.45,0.32"/><path d="M52.5,41.5c0.5,1.25,0.46,3.09,0.42,4.52C52.5,64.5,49,82.75,38.25,94.54"/><path d="M58.34,49.9c0.66,1.1,1.02,2.79,1.02,4.85c0.04,9.33,0.04,38.42,0.04,39.5"/><path d="M59.3,52.42c4.78-0.24,28.24-2.06,29.5-2.22c2.27-0.29,3.12,1.87,2.84,2.73c-0.27,0.83-0.43,25.3-0.43,36.95c0,8.97-4.44,1.24-5.34,0.74"/><path d="M60.05,63.76c6.31-0.39,25.6-2.06,30.7-2.39"/><path d="M59.45,75.51c4.54-0.31,26.36-2.05,31.59-2.18"/><path d="M73.57,54.15c0.68,0.29,1.08,1.29,1.21,1.86c0.13,0.57,0,35.07-0.14,38.65"/></svg>