<svg><path d="M32.88,14.42c0.34,1.34,0.22,2.78-0.67,4.05c-5.2,7.4-8.33,11.65-13.3,17.47c-0.97,1.13-1.03,2.68,0.5,3.35c3.52,1.55,6.63,3.11,9.72,5.56"/><path d="M43.8,25.68c0.2,1.32-0.05,2.82-0.75,3.84c-6.4,9.35-15.74,19.93-23.73,28.19c-1.83,1.89-0.95,3.54,1.15,3.09c5.14-1.1,16.87-4.49,23.29-6.03"/><path d="M40,47.25c2.74,2.34,7.07,9.61,7.75,13.25"/><path d="M31.64,61.12c0.87,0.87,1.23,2.26,1.23,3.84c0,6.16-0.06,19.24-0.1,26.42c-0.01,2.63-0.02,4.47-0.02,4.88"/><path d="M21.35,71.1c0.16,0.94-0.12,2.79-0.41,3.47c-1.87,4.39-6.05,11.6-8.7,15.37"/><path d="M41.38,68.38c3.49,4.8,5.59,12.07,6.3,16.35"/><path d="M59.37,22.25c0.94,0.94,1.21,2.38,1.21,3.75c0,1.02,0.03,31.62,0.03,40.5"/><path d="M52,67.75c2.09,0.91,4.96,0.59,7.15,0.3C67.26,66.96,81,64.5,91.5,63.81c1.6-0.11,3.44-0.21,5,0.19"/><path d="M81.62,12.25c1.07,1.06,1.21,2.5,1.21,4c0,8.75,0.08,50.22,0.04,72.25c-0.01,3.99-0.01,7.06-0.01,8.75"/></svg>