<svg><path d="M27.88,14.92c0.34,1.34,0.5,2.4-0.17,3.8c-2.83,5.9-6.7,12.15-11.05,18.47c-1.2,1.75-0.74,3.14,0.5,3.6c3.6,1.34,5.47,1.95,8.97,3.56"/><path d="M39.55,23.93c0.47,1.56,0.02,2.91-0.8,4.2c-6.13,9.5-15.42,22.81-23.18,30.83c-1.83,1.89-0.95,3.54,1.4,2.84c5.03-1.5,16.03-5.43,23.29-7.78"/><path d="M36.88,46.88c2.43,2.18,6.27,8.96,6.87,12.35"/><path d="M29.39,60.62c0.87,0.87,1.23,2.01,1.23,3.84c0,8.34-0.02,16.54,0,23.49c0,2.46-0.12,4.34-0.12,6.67"/><path d="M20.6,70.35c0.27,1.28,0.27,2.28-0.16,3.47c-1.61,4.49-6.55,12.85-9.2,16.62"/><path d="M39.18,67.54c2.87,3.18,5.08,10.56,5.74,13.44"/><path d="M67.68,15.7c0.87,0.87,1.44,1.8,1.44,3.44c0,3.95-0.02,11.32-0.07,14.15"/><path d="M45.5,35.46c2.87,0.32,5.45,0.31,8.37,0.03c8.92-0.87,24.94-2.85,34.25-3.54c2.35-0.17,5.62-0.2,7.79,0.35"/><path d="M81.97,37.22c0.46,1.21,0.57,2.3-0.02,4.55C76.5,62.75,64.5,83.25,44.81,91.3"/><path d="M52.57,49.51C58.25,50,71.12,70.96,82.71,82.79c2.11,2.15,5.54,5.21,9.04,7.15"/></svg>