<svg><path d="M30.4,14.5c0.31,1.21,0.5,2.19-0.16,3.44c-3.99,7.56-7.45,13.82-10.82,17.79c-1.17,1.39-1.05,2.89,0.5,3.29c3.37,0.87,5.83,1.98,9.64,4.22"/><path d="M41.03,26.44c0.34,0.93,0.12,2.35-0.25,2.94C35.25,38,28,48.25,19.65,57.86c-1.64,1.89-0.07,3.08,1.07,2.72C25.47,59.05,34,57,41.95,54.84"/><path d="M38.38,48.12c2.43,2.1,6.27,8.61,6.88,11.88"/><path d="M30.83,60.76c0.71,0.71,1.03,2.12,1.03,3.78c0,6.42-0.09,18.89-0.13,26.09c-0.02,2.5-0.03,4.36-0.03,5.12"/><path d="M21.72,69.5c0.29,0.98,0.29,1.82-0.14,3.14c-1.34,4.1-5.93,12.2-8.33,15.61"/><path d="M39.88,70c2.94,3.13,5.19,10.41,5.88,13.25"/><path d="M64.35,14.5c0.27,1,0.07,2.31-0.34,3.5C61.25,26.12,57,37,48.75,48.29"/><path d="M58.96,37.97c1.91,0.53,3.08,0.51,4.56,0.23c3.1-0.58,20.46-5.03,24.38-5.77c3.59-0.68,5.84,1.44,5.6,5.75c-0.48,8.43-3.88,37.82-12.32,52.4c-2.34,4.05-5.34,1.81-7.45-1.21"/><path d="M61.52,54.28c3.22,2.23,8.33,9.17,9.13,12.64"/></svg>