<svg><path d="M30.65,14c0.31,1.21,0.25,2.44-0.41,3.69C27,23.88,22.5,30.62,18.17,34.99c-1.03,1.04-1.05,2.39,0.5,3.04c3.21,1.34,7.59,2.24,10.39,4.47"/><path d="M44.03,23.19c0.34,0.93,0.12,2.35-0.25,2.94C38.25,34.75,26.25,48,18.65,55.86c-1.74,1.8-0.9,3.01,1.57,2.47c6.68-1.47,16.87-4.02,22.98-5.49"/><path d="M40.75,47c2.38,2.12,6.15,8.71,6.75,12"/><path d="M31.08,59.26c0.83,0.83,1.28,1.98,1.28,3.78c0,8.28-0.08,20.02-0.13,27.34c-0.02,3.15-0.03,5.49-0.03,6.37"/><path d="M19.75,70c0.12,0.85,0.05,2.5-0.12,3.13c-1.13,4.12-3.75,10.12-7.13,15"/><path d="M41.38,68.25c3.69,3.25,6.52,12.3,7.38,15.25"/><path d="M53.76,26.93c1.74,0.82,2.85,0.92,5.12,0.59c5.07-0.74,19.27-2.65,23.64-3.21c3.1-0.4,4.51,1.26,3.86,4.46c-0.2,0.96-2.19,7.86-3.49,17.12"/><path d="M54.44,48.9c1.83,0.6,3.45,0.85,5.32,0.66c6.1-0.62,12.37-1.56,21.27-2.5c1.21-0.13,2.35-0.44,3.59-0.29"/><path d="M55.49,49.65c0.81,0.81,1.27,1.98,1.27,3.67c0,7.43,0.1,13.31,0.1,20.06c0,16.87,1.14,17.97,18.07,17.97c18.08,0,18.83-1.59,18.83-11.07"/></svg>