<svg><path d="M26.65,16c0.31,1.21,0.17,2.4-0.41,3.69C23,27,19.56,33.04,16.67,36.99c-0.92,1.26-0.8,2.89,0.75,3.54c3.21,1.34,5.2,1.98,8.64,4.22"/><path d="M38.03,25.94c0.22,1.18,0.16,2.48-0.5,3.44C31,38.88,23.75,49.5,16.4,58.36c-1.6,1.93-1.03,3.14,1.57,2.47c4.84-1.25,12.83-3.54,20.41-5.58"/><path d="M36.25,49.75c2.38,2.12,5.65,7.71,6.25,11"/><path d="M27.58,61.51c0.89,0.89,1.03,2.23,1.03,4.03c0,4.93-0.06,14.86-0.09,22.21c-0.01,2.67-0.02,5-0.02,6.62"/><path d="M18.51,70.75c0.11,0.84-0.17,2.23-0.36,2.83C17,77.38,15,83,11.88,88.38"/><path d="M36.75,69c3,3.25,5.3,10.8,6,13.75"/><path d="M46.25,37.87c2.75,0.63,5.68,0.44,8.11,0.16c9.48-1.08,23.57-3.12,32.38-3.65c2.48-0.15,5.06-0.13,7.5,0.48"/><path d="M68.14,15c0.36,1.75,0.59,3.08,0.38,5.09C66,44,58.88,73.38,45.5,89.24"/><path d="M75.65,52c0.37,0.73-0.01,2.6-0.32,3.48c-3.48,10.04-9.34,20.46-14.58,30.57c-1.63,3.14-1.08,4.06,2.01,3.24c6.19-1.64,17.37-4.91,26.1-6.96"/><path d="M82.5,71.56c4.18,3.29,10.8,13.53,11.84,18.65"/></svg>