<svg><path d="M25.75,17.75c0.3,1.18,0.15,2.34-0.4,3.59c-2.6,5.91-5.6,11.41-9.34,16.6c-0.49,0.68-0.59,2.73,0,2.95c3.13,1.18,7.06,1.65,9.75,3.81"/><path d="M37.79,26.83C38,28,38,29.25,37.04,30.68c-5.53,8.23-13.81,21.36-21.11,29c-1.67,1.75,0.42,3.75,1.5,3.4c4.56-1.49,16.11-5.69,21.97-7.12"/><path d="M36.02,48.81c2.29,2.06,6.9,8.46,7.48,11.66"/><path d="M27.65,61.81c0.83,0.83,1.45,2.19,1.5,3.93c0.18,6.16,0.01,18.31-0.09,25.75C29.03,94.21,29,96.24,29,97"/><path d="M18.38,71.97c0.49,1.28,0.52,2.41,0.22,3.7c-0.98,4.21-3.35,9.33-6.85,14.83"/><path d="M38.12,69.12c2.56,2.75,4.53,9.13,5.12,11.62"/><path d="M79.5,15c0,1.12-0.73,2.38-1.64,3.04C71.62,22.5,61.38,28,52.41,31.75"/><path d="M50.16,32c1.42,1.42,2.25,3.25,2.25,5.5s-0.66,46.25-0.66,49.75s-0.25,4.5,3,2S67.41,80,69.41,78.5"/><path d="M55.04,51.38c1.71,0.24,4.01-0.03,5.58-0.34c8.5-1.67,15.5-3.17,26.29-4.8c2.66-0.4,4.32-0.05,5.66,0.15"/><path d="M67.91,27.75c1.34,1.69,1.86,3.7,2.02,5.74C71.75,56.25,79.31,80.13,93.25,91c6.2,4.83,4.53-4.81,4.53-7.84"/></svg>