<svg><path d="M28.4,17.25c0.31,1.21,0.59,2.24-0.16,3.44c-3.26,5.27-8.21,13.46-11.32,16.29c-0.64,0.58-0.62,2.81,0,3.04c3.26,1.21,7.84,2.74,10.64,4.97"/><path d="M39.53,25.69c0.29,0.55,0.38,2.35,0,2.94C34,37.25,22.75,51.25,15.15,59.11c-1.74,1.8,0.43,2.83,1.57,2.47c4.75-1.53,14.78-4.58,22.23-6.74"/><path d="M37,48.5c2.47,2.25,6.38,9.25,7,12.75"/><path d="M29.33,61.76c0.05,0.29,0.73,1.48,0.78,3.28c0.25,8.64-0.16,26.77-0.16,29.71"/><path d="M20.01,71.75c0.11,0.83,0.09,2.47-0.11,3.06c-1.3,3.88-4.56,11.36-6.4,14.69"/><path d="M39,69c3,3.01,5.3,10.02,6,12.75"/><path d="M52.78,26.64c1.23,0.57,2.58,0.84,4.03,0.7c9.79-0.94,18.6-3.12,27.44-3.85c2.51-0.21,3.66,1.61,3.18,4.2C85.5,38.25,82,68.75,80.76,87.49"/><path d="M65.71,28.82c0.72,0.5,1.35,3.22,1.29,4.25c-0.58,10.75-6.83,47.76-8.41,56.51"/><path d="M51.33,55.35c1.15,0.52,3.26,0.64,4.41,0.52c8.51-0.88,26.01-2.63,36.4-2.62c1.92,0,3.07,0.25,4.02,0.51"/><path d="M45.73,89.86c1.28,0.58,3.63,0.66,4.92,0.57c16.1-1.18,25.88-2.74,41.87-3c2.14-0.03,3.42,0.28,4.49,0.57"/></svg>