<svg><path d="M27.88,16.17c0.34,1.34,0.23,2.38-0.42,3.8c-2.7,5.9-6.08,11.28-10.55,17.22c-0.78,1.04-1.15,2.43,0.5,3.1c3.56,1.45,5.1,1.83,8.97,3.56"/><path d="M39.3,25.68c0.24,1.48-0.07,2.5-0.92,3.67c-6.74,9.27-15.17,20.83-23.06,29.36c-1.79,1.93-0.67,3.27,1.65,2.59c5.78-1.68,14.78-4.18,22.04-6.28"/><path d="M36.13,48.13c2.34,2.36,6.04,9.69,6.62,13.35"/><path d="M28.39,60.87c0.81,0.81,0.98,2.26,0.98,4.09c0,8.47-0.02,18.55,0,25.61c0.01,2.56-0.12,4.21-0.12,6.05"/><path d="M20.1,69.85c0.16,0.94,0.09,2.28-0.16,2.97c-1.82,5.19-5.32,12.06-9.2,17.12"/><path d="M36.43,68.29c3,3.24,5.3,10.75,5.99,13.69"/><path d="M59.66,21.75c0.39,1.13,0.27,2.3-0.18,3.3c-2.81,6.17-7.62,14.33-14.73,21.2"/><path d="M67.99,15c5.67,1.09,13.47,15.72,20.05,22.58c2.03,2.11,4.17,4.14,6.71,5.67"/><path d="M50.98,53.12c2.15,0.76,4.04,0.83,6.3,0.4c6.33-1.22,18.23-3.46,23.25-4.28c4.06-0.67,5.33,0.6,4.9,4.66c-0.96,9.04-4.13,24.92-9.88,35.65c-3.19,5.96-5.94,3.08-7.76,1.01"/><path d="M63.74,56c0.05,0.74,0.21,1.97-0.1,2.97C60,70.88,56.12,78.75,47.12,89.25"/></svg>