<svg><path d="M28.9,12.42c0.36,1.42,0.38,2.47-0.18,4.01c-2.46,6.81-8.96,13.06-13.78,18.51c-0.67,0.75-0.72,3.27,0,3.54c3.81,1.42,9.64,3.28,12.91,5.88"/><path d="M40.3,25.18c0.3,0.58,0.37,2.46,0,3.09C34.5,38,24.81,49.94,16.82,58.21c-1.83,1.89,0.46,2.98,1.65,2.59c5-1.61,16.87-4.49,23.29-6.03"/><path d="M36.25,46c3.18,2.65,8.21,10.88,9,15"/><path d="M29.14,60.87c0.07,0.36,0.91,1.85,0.98,4.09c0.31,10.79-0.2,28.79-0.2,32.46"/><path d="M20.85,71.1c0.16,0.94,0.13,2.79-0.16,3.47c-1.87,4.39-6.55,12.85-9.2,16.62"/><path d="M37.93,69.54c3.5,3.47,6.18,11.54,6.99,14.69"/><path d="M53.5,45.29c3.9-0.17,7.8-0.51,11.2-0.8c1-0.08,2.65-0.08,3.16-0.03"/><path d="M50.37,17.08c0.69,1.35,1.29,2.77,1.29,4.62c0,5.01,0.28,57.52,0.28,64.98c0,4.57,1.57,5.47,3.28,3.78c4.79-4.74,8.34-7.57,11.29-9.96"/><path d="M95.3,31.44c0.25,0.88,0.17,2.74-0.84,3.88c-3.96,4.44-9.71,9.94-18.93,14.68"/><path d="M72.79,15c0.78,1.29,1.46,3.36,1.46,5c0,4.31-0.35,49.81-0.35,54.87c0,19.38,1.2,20.37,11.15,20.37s11.64-1.49,11.64-13.81"/></svg>