<svg><path d="M27.9,12.42c0.36,1.42,0.38,2.47-0.18,4.01c-2.46,6.81-7.96,14.06-12.78,19.51c-0.67,0.75-0.72,3.27,0,3.54c3.81,1.42,8.64,3.28,11.91,5.88"/><path d="M39.3,25.68c0.3,0.58,0.37,2.46,0,3.09c-5.8,9.73-15.49,22.18-23.48,30.44c-1.83,1.89,0.46,2.98,1.65,2.59c5-1.61,16.87-4.49,23.29-6.03"/><path d="M34,47.5c3.62,2.6,9.35,10.7,10.25,14.75"/><path d="M28.14,61.87c0.07,0.36,0.91,1.85,0.98,4.09c0.31,10.79-0.2,28.79-0.2,32.46"/><path d="M20.35,72.1c0.16,0.94,0.13,2.79-0.16,3.47c-1.87,4.39-6.55,12.85-9.2,16.62"/><path d="M37.43,69.54c3.5,3.47,6.18,11.54,6.99,14.69"/><path d="M52.49,21.52c1.83,0.17,4.54,0.18,5.05,0.14c6.59-0.55,18.32-1.29,24.34-1.61c0.83-0.04,4.46,0.07,4.88,0.14"/><path d="M44,46.08c1.02,0.26,4.79,0.33,5.81,0.27c9.44-0.59,26.19-1.84,40.61-2.45c1.7-0.07,3.98,0.13,4.83,0.26"/><path d="M66.67,48.96c0.26,1.37,0.46,3.2-0.21,4.79C61.25,66,56.61,77.58,50.62,88.93c-1.63,3.08-0.72,4.52,1.84,3.89c5.38-1.31,23.41-4.74,35.54-8.07"/><path d="M76.13,67.33c6.17,4.99,15.12,20.38,16.66,28.14"/></svg>