<svg><path d="M15.76,22.37c1.1,0.36,2.35,0.47,3.61,0.36c6.44-0.58,21.11-2.13,30.84-2.81c1.25-0.09,2.04,0.06,3.3,0.31"/><path d="M36.54,10.75c0.78,0.35,1.41,1.56,1.41,2.29c0,7.38,0,26.97-0.16,31.36"/><path d="M37.35,22.33c-4.14,6.95-15.24,17.56-23.85,21.49"/><path d="M40.33,25.92c6.42,3.08,9.69,5.7,11.5,8.32"/><path d="M62,9.57c0.76,0.77,1.55,2.28,1.58,3.89c0.16,7.19-0.42,12.05-0.42,16.94c0,9,2.85,10.12,16.39,10.12c10.96,0,12.35-2.22,12.35-8.01"/><path d="M49.52,39.5c0.48,1.25-0.03,2.52-1.26,3.6c-5.39,4.74-8.01,7.65-13.5,11.22c-0.99,0.64-1.02,2.53,0,2.73c5.39,1.09,7.79,1.42,12.41,3.42"/><path d="M64.28,45.65c0.47,0.49,0.12,2.62-0.5,3.14c-9.13,7.76-20.57,14.81-33.12,21.88c-2.88,1.62-1.29,3.05,0.59,2.72c7.85-1.38,39.33-4.5,49.41-5.82"/><path d="M69.61,58.4C75.4,61.15,84.55,69.68,86,73.95"/><path d="M53.61,71.76c0.09,0.26,1.2,1.33,1.29,2.95c0.41,7.78-0.26,24.14-0.26,26.79"/><path d="M39.62,81.05c0.36,0.78,0.3,2.31-0.36,2.87C34.94,87.55,24.12,94.56,18,97.67"/><path d="M69.02,80.55c10.08,3.69,17.81,12.28,20.15,15.62"/></svg>