<svg><path d="M25.7,13.27c0.83,0.83,1.31,1.73,1.62,2.96c1.18,4.76,2.87,12.56,4.03,19.75c0.31,1.92,0.57,3.78,0.76,5.48"/><path d="M27.77,14.43c12.48-1.18,37.85-3.18,50.86-4c3.45-0.22,6.13,0.52,5.29,4.73c-0.92,4.59-1.98,10.17-3.59,17.15c-0.44,1.93-0.91,3.93-1.37,5.97"/><path d="M53.13,14.91c0.92,0.92,1.14,2.22,1.14,3.75c0,6.64,0.08,14.03,0.08,17.54"/><path d="M30.46,26.18c3.82-0.46,37.42-2.8,50.53-3.21"/><path d="M32.96,39.19C43.5,38.25,63,36.62,78.21,36.04"/><path d="M47.91,41c0.09,1.38-0.11,2.47-0.98,3.75C45,47.62,41,52,38.08,54.95c-0.77,0.78-0.67,2.67,0.25,2.87c3.17,0.68,4.92,1.31,7.83,2.67"/><path d="M66.17,44.41c0,1.22-0.42,2.22-1.46,3.12c-8.8,7.6-18.44,14.39-31.23,23.33c-3.09,1.73-2.86,2.86,0.64,2.16c8.73-1.75,30.36-5.68,39.82-7.14"/><path d="M68.25,58.88C72.22,61.1,78.5,68.03,79.5,71.5"/><path d="M53.26,72c0.87,0.87,1.16,2.03,1.16,3.29c0,4.83-0.05,13-0.05,19.21c0,1,0.06,3,0.06,5"/><path d="M36.99,80.79c0.01,1.21-0.54,2.2-1,2.66c-3.05,2.94-9.24,7.93-14.74,11.4"/><path d="M70.42,79.85c5.27,3.19,14.29,11.7,16.17,14.9"/></svg>