<svg><path d="M30.47,16.5c0.29,1.27,0.3,2.6-0.4,3.85c-3.03,5.51-7.49,12.35-11.23,16.54c-1.1,1.23-0.85,2.36,0.5,2.93c3.03,1.28,5.11,2.64,7.71,4.97"/><path d="M40.29,27.75c0.34,1.25,0.32,2.11-0.5,3.19c-7.41,9.81-14.41,17.93-23.7,27.85c-1.14,1.21-0.13,3,1.13,2.6c5.28-1.67,18.46-4.69,25.25-6.29"/><path d="M38.5,48.25c2.65,2.34,6.34,9.11,7,12.75"/><path d="M30.19,60.45c0.68,0.68,1.14,1.74,1.19,3.26c0.16,5.28,0.01,17.33-0.08,25.04c-0.03,2.92-0.06,5.07-0.06,5.75"/><path d="M20.89,69.5c0.37,1.03,0.46,2.17-0.16,3.91c-1.89,5.33-5.31,12.12-7.73,15.51"/><path d="M39.25,69c2.2,3.05,5.96,11.19,6.75,14.25"/><path d="M52.5,36.59c1.02,1.02,1.75,2.42,1.86,3.61c1.02,11.92,1.02,26.96,1.58,41.55c0.06,1.64,0.13,3.23,0.2,4.75"/><path d="M55.02,38.49c10.16-0.97,27.78-3.28,34.38-4c2.8-0.31,4.22,2.17,4.07,4.47c-0.5,7.61-1.33,27.22-1.9,40.55c-0.06,1.4-0.12,2.73-0.17,3.98"/><path d="M71.27,39.4c0.92,0.92,1.46,2.35,1.46,4.35c0,8.59,0.18,35.76,0.18,36.48"/><path d="M56.43,59.6c9.57-1.23,26.2-2.85,35-3.16"/><path d="M57.18,82.78c9.32-0.65,22.57-1.78,33.06-2.14"/></svg>