<svg><path d="M29.88,14.17c0.34,1.34,0.16,2.73-0.67,4.05c-4.33,6.9-6.39,10.32-11.55,16.72c-1.15,1.43-1.03,2.93,0.25,3.35c3.65,1.2,6.13,2.11,9.22,4.56"/><path d="M41.3,25.18c0.2,1.07-0.05,2.45-0.75,3.34c-7.25,9.28-16.49,19.68-24.48,27.94c-1.83,1.89-0.82,3.29,1.4,2.84c5.15-1.04,17.12-4.49,23.54-6.03"/><path d="M38.63,47.38c2.43,2.22,6.27,9.14,6.87,12.6"/><path d="M29.39,59.87c0.75,0.75,0.98,1.88,0.98,3.84c0,5.73-0.05,18.69-0.09,26.54c-0.02,3.68-0.03,6.29-0.03,6.62"/><path d="M20.36,69.35c0.14,0.94,0.14,2.07-0.39,3.47c-1.84,4.81-5.78,13.1-8.22,16.87"/><path d="M38.68,67.79c2.87,3.95,5.08,13.11,5.74,16.69"/><path d="M45.86,39.02c2.49,0.88,5.34,0.43,7.89,0.19c9.36-0.87,23.92-2.38,37.38-3.39c2.41-0.18,4.63-0.24,7.01,0.27"/><path d="M57.92,19.87c0.98,0.98,1.43,2.38,1.43,3.67c0,0.68-0.07,45.32-0.09,63.46c-0.01,4.2-0.01,6.96-0.01,7.38"/><path d="M82.87,16.75c0.88,0.88,1.18,2.12,1.18,3.17c0,0.66,0.05,47.24,0.04,65.83c0,4.47,0,7.32-0.01,7.52"/><path d="M60.01,62.84c6.24-0.59,18.74-1.71,22.98-1.93"/><path d="M60.26,90.65c7.12-0.53,16.83-1.71,22.73-1.95"/></svg>