<svg><path d="M29.36,13.5c0.53,2,0.21,3.32-0.93,5.03C24.81,24,20.5,30.75,16.47,35.03c-0.64,0.68-0.72,2.22,0.5,2.7c3.54,1.39,7.51,2.92,10.58,5.26"/><path d="M41.28,23.94c0.59,2.06,0.34,3.18-1.2,5.12c-6.78,8.53-16.25,19.61-23.43,27.05c-1.74,1.8-0.65,3.01,1.57,2.47c5.67-1.39,15.12-4.02,21.23-5.49"/><path d="M37.75,46.5c2.38,2.12,6.15,8.71,6.75,12"/><path d="M29.85,59.01c0.9,1.24,1.16,3.24,1.16,4.7c0,13.05,0,20.59-0.22,27.55c-0.07,2.26-0.12,4.02-0.12,5"/><path d="M19.63,69.88c0.19,1.31,0.29,2.26-0.19,3.46c-1.54,3.79-4.88,10.28-6.69,13.17"/><path d="M39.5,67.5c2.75,3.61,4.86,11.98,5.5,15.25"/><path d="M54.21,21.59c0.97,0.97,1.43,2.53,1.43,4.06c0,0.89,0.12,45.52,0.12,59.34c0,2.23,0,3.66-0.01,3.97"/><path d="M56.8,23.76c6.84-0.85,22.52-3.05,23.81-3.19c3.03-0.31,4.81,1.67,4.81,3.73c0,2.82-0.2,36.53-0.27,57.44c0,1.47-0.01,2.87-0.02,4.19"/><path d="M56.88,45.15c7.76-1,20.45-2.19,27.27-2.5"/><path d="M57.34,65.11c7.54-0.86,18.41-1.73,26.33-2.06"/><path d="M43.79,90.07c1.99,0.43,5.39,0.32,7.37,0.18c12.34-0.88,27.34-2.13,41.51-2.41c3.31-0.07,5.3,0.21,6.96,0.42"/></svg>