<svg><path d="M28.13,15.92c0.34,1.34,0.36,2.34-0.17,3.8c-2.33,6.45-6.74,13.07-11.3,18.22c-0.63,0.71-0.43,3.1,0.25,3.35c3.6,1.34,6.38,2.36,9.47,4.81"/><path d="M38.05,30.43c0.32,1.2,0.2,2.57-0.5,3.59c-6.4,9.35-13.49,16.18-21.48,24.44c-1.83,1.89-0.7,3.29,1.65,2.59c5.03-1.5,13.78-4.18,21.29-6.28"/><path d="M36,47.63c2.29,2.45,5.92,10.05,6.5,13.85"/><path d="M28.64,60.87c0.81,0.81,0.98,2.01,0.98,3.84c0,8.54-0.12,19.58-0.12,30.04"/><path d="M20.85,70.1c0.16,0.94-0.12,2.29-0.41,2.97c-1.87,4.39-6.55,12.85-9.2,16.62"/><path d="M36.68,68.29c3.12,3.65,5.52,12.13,6.24,15.44"/><path d="M66.31,13.5c1.28,1.28,1.62,2.38,1.62,4.4c0,2.97-0.05,6.72-0.05,9.22"/><path d="M44.94,29.54C48,30,50.67,29.88,53.52,29.6c10.98-1.1,25-2.27,36.12-3.05c2.2-0.15,5.12-0.55,7.18,0.05"/><path d="M65.64,31.3c0.29,1.31,0.48,2.36-0.14,3.71c-2.71,5.89-8.19,13.69-12.51,19.03c-0.99,1.21-0.86,3.21,0.75,3.78c3.14,1.09,7.26,2.31,12.37,5.52"/><path d="M81.45,40.26c0.43,1.38,0.12,3.08-0.9,4.73C74.12,55.5,60.89,73.81,49.32,87.63c-1.33,1.59-0.95,2.99,1.55,2.49c9.81-1.96,26.6-5.49,35.15-7.48"/><path d="M79.88,71.38c3.91,3.97,10.69,16.32,11.67,22.49"/></svg>