<svg><path d="M28.9,12.92c0.36,1.42,0.38,2.47-0.18,4.01c-2.46,6.81-8.46,13.56-13.28,19.01c-0.67,0.75-0.72,3.27,0,3.54c3.81,1.42,9.64,3.28,12.91,5.88"/><path d="M40.3,26.18c0.3,0.58,0.37,2.46,0,3.09C34.5,39,24.31,50.44,16.32,58.71c-1.83,1.89,0.46,2.98,1.65,2.59c5-1.61,16.87-4.49,23.29-6.03"/><path d="M38.38,48.13c2.34,2.36,6.04,9.69,6.62,13.35"/><path d="M30.64,61.37c0.07,0.36,0.91,1.85,0.98,4.09c0.31,10.79-0.2,28.79-0.2,32.46"/><path d="M21.84,71.1c0.17,0.95,0.15,2.83-0.17,3.51c-2.07,4.44-7.24,13.01-10.17,16.82"/><path d="M39.43,70.04c3.5,3.47,6.18,11.54,6.99,14.69"/><path d="M50.73,28.18c0.28,0.5,0.29,0.85,0.45,1.48c1.28,5.2,2.24,19.35,3.03,29.05"/><path d="M52.06,28.88c9.94-1.31,28.22-2.6,35.66-3.08c1.73-0.11,2.67,1.52,2.48,4.02c-0.39,5.26-1.12,16.88-3.4,25.65"/><path d="M52.92,42.82c3.24-0.51,33.2-2.21,35.87-2.42"/><path d="M54.73,56.22c7.16-0.56,22.58-1.29,32.46-2.2"/><path d="M63.01,11c1.37,1.81,1.7,2.32,1.89,6.22c1.86,38.03,11.14,65.54,27.94,77.72c5.39,3.91,4.63,0.78,3.94-7.26"/><path d="M87.75,63.62c0.1,0.72,0.22,1.85-0.2,2.88c-2.48,6.08-16.71,20.09-36.19,28.25"/></svg>