<svg><path d="M26.4,12.92c0.36,1.42,0.38,2.47-0.18,4.01c-2.46,6.81-7.46,12.56-12.28,18.01c-0.67,0.75-0.72,3.27,0,3.54c3.81,1.42,7.64,3.28,10.91,5.88"/><path d="M36.86,24.18c0.29,0.58,0.36,2.46,0,3.09C31.28,37,21.48,49.94,13.8,58.21c-1.76,1.89,0.44,2.98,1.58,2.59c4.8-1.61,16.21-4.49,22.39-6.03"/><path d="M32.5,47.25c2.91,2.34,7.52,9.61,8.25,13.25"/><path d="M26.14,60.87c0.07,0.36,0.91,1.85,0.98,4.09c0.31,10.79-0.2,29.79-0.2,33.46"/><path d="M17.85,71.1c0.16,0.94,0.13,2.79-0.16,3.47c-1.87,4.39-6.55,12.85-9.2,16.62"/><path d="M34.93,70.04c3.5,3.47,6.18,11.54,6.99,14.69"/><path d="M57.39,16.25c0.04,0.52,0.2,1.46-0.08,2.1c-2,4.54-7.25,12.43-14.57,20.1"/><path d="M60.43,35.52c0.05,0.64,0.17,1.73-0.09,2.55c-2.06,6.58-8.19,15.5-16.59,24.42"/><path d="M52.76,56.12c0.23,0.25,0.81,2.17,0.86,2.68c0.05,0.51,0,34.55-0.05,37.7"/><path d="M67.59,26.09c0.66,0.31,3.48,0.85,4.14,0.74c5.11-0.86,17.29-3.1,20.33-2.97c1.1,0.05,1.76,0.15,2.31,0.3"/><path d="M64.59,46.77c0.78,0.28,2.21,0.34,3,0.28c10.02-0.76,19.6-2.68,30.3-2.56c1.3,0.01,2.08,0.13,2.74,0.27"/><path d="M82.69,47.66c0.06,0.47,0.83,2.46,0.89,5.46c0.29,14.41-0.18,36.27-0.18,41.17c0,7.95-6.11-0.99-7.18-2.23"/></svg>