<svg><path d="M30.13,14.17c0.34,1.34,0.44,2.37-0.17,3.8c-2.33,5.4-5.6,12.42-10.3,18.22c-0.65,0.81-0.9,2.18,0.5,2.6c3.68,1.1,5.97,1.83,9.22,3.31"/><path d="M41.8,23.68c0.2,1.07,0.2,1.95-0.5,3.09c-5.9,9.68-14.8,21.36-23.48,31.44c-1.72,2-0.95,3.92,1.4,3.09c4.96-1.74,14.03-4.93,21.03-7.18"/><path d="M36.38,46.13c2.6,2.09,6.72,8.6,7.37,11.85"/><path d="M30.14,59.62c1,1,1.23,2.51,1.23,3.84c0,6.82-0.06,19.98-0.1,27.42c-0.01,2.88-0.02,4.91-0.02,5.37"/><path d="M19.62,71.6c0.12,0.89,0.1,2.66-0.12,3.29c-1.47,4.17-5.16,12.21-7.25,15.79"/><path d="M40.43,68.79c2.12,3.29,3.75,10.95,4.24,13.94"/><path d="M67.12,14.5c1.19,1.19,1.48,2.62,1.48,4.26c0,4.32-0.1,6.83-0.1,10.36"/><path d="M49.25,31.76c2.37,0.49,4.34,0.53,6.74,0.19c8.84-1.25,22.66-3.3,30.13-3.91c2.05-0.17,4.25-0.17,6.04,0.25"/><path d="M58.96,41.84c0.22,0.73,0.07,2.48-0.54,3.63c-2.67,5.03-5.89,9.85-10.17,13.98"/><path d="M77.52,38.73c5.65,3.5,10.31,7.54,13.13,11.79"/><path d="M77.9,51.41c0.38,0.86,0.21,2.09-0.37,3.65C73.5,66,62,81.12,48.25,89.9"/><path d="M56.59,58.27c2.15,0.18,16.41,15.1,28.08,26.68c2.82,2.8,5.85,5.13,8.1,6.91"/></svg>