<svg><path d="M28.57,12c0.35,1.21,0.17,3.1-0.43,4.44C25.12,23.25,21,31.25,16.79,37.24c-0.89,1.26-1.17,2.26,0.25,2.79c3.64,1.35,5.96,1.23,10.89,4.22"/><path d="M40.58,24.44c0.42,1.31,0.29,2.68-0.5,3.94c-5.69,9-15.06,20.94-23.23,29.23C14.5,60,15.5,61.5,17.88,60.83c5.38-1.52,17.51-5.52,24.42-6.99"/><path d="M38,47.38c2.91,2.32,7.52,9.52,8.25,13.12"/><path d="M29.48,60.51c0.94,0.94,1.38,2.23,1.38,4.03c0,7.21-0.09,19.56-0.15,26.96c-0.02,2.83-0.03,4.94-0.03,5.75"/><path d="M19.19,70.5c0.18,1.12,0.18,2.38-0.14,3.45c-1.35,4.49-5.91,12.8-8.3,16.55"/><path d="M40.75,70.75c3.25,3.15,5.75,10.48,6.5,13.33"/><path d="M48.92,35.5c1.54,0.47,4.39,0.52,5.92,0.29C66.62,34,83.38,32.12,92.6,31.75c2.57-0.1,4.71,0.08,5.99,0.3"/><path d="M71.69,13.51c1.15,1.15,1.94,2.62,1.94,3.89c0,1.01,0.01,29.06-0.2,35.3"/><path d="M53.63,55.12c2.37,0.5,4.61,0.41,6.62,0.1C68,54,77.5,52.88,89.26,52.01c2-0.15,4.04-0.37,6.03-0.03"/><path d="M55.32,69.49c0.83,0.79,1.26,1.76,1.43,2.89c0.79,5.22,1.5,11.23,2.2,17.12c0.19,1.58,0.38,3.16,0.57,4.71"/><path d="M57.67,70.79c9.63-1.04,22.99-2.2,29.58-2.96c3.87-0.45,5.37,1.05,4.63,3.95c-1.4,5.48-2.67,11.64-3.79,16.75"/><path d="M60.43,91.23c6.3-0.41,17-1.02,26.57-1.52c1.55-0.08,3.06-0.16,4.52-0.23"/></svg>