<svg><path d="M27.4,10.92c0.36,1.42,0.38,2.47-0.18,4.01c-2.46,6.81-8.46,14.56-13.28,20.01c-0.67,0.75-0.72,3.27,0,3.54c3.81,1.42,8.64,3.28,11.91,5.88"/><path d="M38.8,25.68c0.3,0.58,0.37,2.46,0,3.09C33,38.5,22.81,49.94,14.82,58.21c-1.83,1.89,0.46,2.98,1.65,2.59c5-1.61,16.87-4.49,23.29-6.03"/><path d="M34.5,46.25c3.09,2.65,7.98,10.88,8.75,15"/><path d="M27.14,60.87c0.07,0.36,0.91,1.85,0.98,4.09c0.31,10.79-0.2,30.79-0.2,34.46"/><path d="M18.85,71.1c0.16,0.94,0.13,2.79-0.16,3.47c-1.87,4.39-6.55,12.85-9.2,16.62"/><path d="M36.93,69.29c3.5,3.77,6.18,12.52,6.99,15.94"/><path d="M53.03,14.34c3.26,2.37,8.41,9.73,9.22,13.41"/><path d="M86.75,12.5c0.02,0.4,0.04,1.03-0.04,1.59c-0.53,3.36-3.58,10.75-7.76,15.26"/><path d="M49.69,34.31c1,0.17,2.84,0.21,3.84,0.17c7.41-0.25,29.63-2.57,39.16-2.56c1.67,0,2.67,0.08,3.51,0.17"/><path d="M47.75,57.57c1.14,0.38,3.23,0.46,4.37,0.38c12.33-0.88,29.25-2.81,42.64-3.26c1.9-0.06,3.04,0.18,3.99,0.38"/><path d="M62.36,35.93c0.54,1.67,1.32,2.99,1.32,5.08c0,19.11,1.44,44.79-17.42,56.49"/><path d="M80.66,34.75c0.64,0.46,1.02,2.09,1.15,3.02c0.13,0.93,0,53.18-0.13,58.98"/></svg>