<svg><path d="M27.4,15.25c0.31,1.21,0.47,2.18-0.16,3.44c-2.02,4.1-6.11,11.68-11.32,17.79c-0.95,1.11-1.17,2.01,0.5,3.04c2.97,1.82,6.34,4.24,9.14,6.47"/><path d="M38.03,26.44c0.22,0.93,0.38,2.6,0,3.19c-5.53,8.62-14.78,20.62-22.38,28.48c-1.74,1.8,0.43,2.83,1.57,2.47c4.75-1.53,15.12-4.27,21.23-5.74"/><path d="M34.75,47.75c2.38,2.12,5.65,8.71,6.25,12"/><path d="M26.58,60.51c0.71,0.71,1.28,1.98,1.28,3.78c0,7.76-0.09,19.56-0.13,26.34c-0.02,2.36-0.03,4.11-0.03,4.88"/><path d="M17.75,70.5c0.12,0.76,0.08,2.25-0.12,2.8C16,77.75,13.5,83,10.5,86.75"/><path d="M36.25,68.25c2.62,3.43,4.64,11.39,5.25,14.5"/><path d="M64.92,12.75c0.06,1.04,0.05,2.79-0.35,4.19C61.81,26.71,56,43.62,44.44,57.06"/><path d="M65.58,16.58c3.51,6.02,17.15,23.89,23.56,31.76c2.11,2.59,4.23,4.41,6.79,5.97"/><path d="M55.05,51.64c1.13,0.56,3,0.26,4.21,0.13c5.3-0.59,10.63-1.43,15.25-1.98c1.12-0.13,2.25-0.21,3.35,0.11"/><path d="M50.34,67.08c0.9,1.14,1.56,2.19,1.78,3.64c1.29,8.32,2.31,14.41,3.23,21.17c0.15,1.11,0.3,2.23,0.44,3.39"/><path d="M52.81,68.34c10.94-1.59,23.12-2.77,28.58-3.54c1.99-0.28,3.19,1.92,2.91,3.57c-1.18,6.85-1.89,12.24-4.32,21.83"/><path d="M57,93.31c5.65-0.77,13.64-1.43,21.89-2.02c1.11-0.08,2.22-0.16,3.33-0.23"/></svg>