<svg><path d="M31.37,9.67c0.29,0.55,0.81,1.44,0.62,2.21c-0.94,3.77-7.54,17.84-11.17,22.14c-0.74,0.88,0.25,1.35,0.65,1.38C30.82,36.2,39,40,43.75,44.75"/><path d="M42.07,16.5c0.21,0.89,0.53,2.39,0.25,3.54c-2.19,9.29-8.91,22.79-24.57,29.71"/><path d="M12,24.67c0.7,0.65,1.62,1.11,3.48,0.96c2-0.17,22.73-3,34.09-4.64"/><path d="M56.62,18.33c0.71,0.36,1.64,1.06,1.74,1.59c1.11,5.96,2.38,12.58,3.71,20.08"/><path d="M59.57,20.14c9.26-1.1,18.4-2.24,23.15-2.96c1.73-0.27,3.81,0.7,3.62,1.65c-0.8,3.9-1.83,10.72-2.74,17.03"/><path d="M62.26,37.93c6.99-0.56,14.87-1.33,23.81-1.88"/><path d="M53.46,39.84c0.12,1.69,0.05,2.97-1.33,4.19C46.5,49,42.06,53.68,36.69,56.43c-1.1,0.56-0.71,3.3,0.27,3.38c6.05,0.44,5.8,1.21,11.3,1.94"/><path d="M69.88,47.18c0.6,0.56-0.21,3.12-1.08,3.72c-11.95,8.3-19.21,11.04-39.86,23.38c-1.95,1.16-1.68,2.57,0.63,2.12c9.66-1.92,37.23-4.96,49.67-6.89"/><path d="M71.62,62.25c5.25,2.6,13.57,10.7,14.88,14.75"/><path d="M53.98,75.67c0.05,0.19,0.74,1.02,0.79,2.26c0.26,5.95-0.16,20.54-0.16,22.57"/><path d="M39.26,82.75c0.33,0.72,0.27,3.07-0.32,3.58c-3.9,3.35-13.65,9.8-19.18,12.67"/><path d="M66.52,82.09C73.1,85.18,84.4,93.41,86.75,96.5"/></svg>