<svg><path d="M29.13,13.92c0.34,1.34,0.57,2.43-0.17,3.8c-3.7,6.78-7.49,12.56-12.05,17.72c-1.15,1.31-1.15,2.68,0.5,3.35c3.56,1.45,4.6,1.83,8.47,4.31"/><path d="M40.8,22.93c0.32,0.95,0.07,2.2-0.75,3.34c-6.62,9.2-16.3,20.98-24.73,30.19c-1.78,1.94,0.46,2.98,1.65,2.59c5-1.61,15.87-4.49,22.29-6.03"/><path d="M36.63,46.63c2.16,2,5.58,8.24,6.12,11.35"/><path d="M27.15,58.41c0.87,0.87,1.23,2.01,1.23,3.84c0,8.45,0.02,18.61,0.03,25.5c0.01,2.73,0.01,5.1,0.01,6.92"/><path d="M19.13,69.6c0.12,0.96,0.1,2.11-0.12,2.8c-1.42,4.5-4.63,12.85-7.51,17.53"/><path d="M35.75,68.5c3.34,3.42,5.9,11.37,6.67,14.47"/><path d="M62.54,14.25c0.05,0.66,0,1.74-0.35,2.63c-2.69,6.87-8.69,15.87-17.37,25.44"/><path d="M62.51,22.16c0.33,0.04,1.78,0.11,2.71-0.11c4.4-1.05,9.71-2.34,14.19-3.43c3.08-0.75,3.95,1.1,3.16,3.14c-4.31,11.13-21.56,37.68-40.9,45.02"/><path d="M56.9,29.83c4.23,4.35,19.57,18.66,28.51,25.67c2.69,2.11,5.58,3.96,8.65,5.45"/><path d="M54.58,68.76c0.75,0.8,1.17,1.75,1.25,2.85c0.79,5.52,1.55,11.56,2.19,17.92c0.19,1.94,0.38,3.79,0.56,5.43"/><path d="M56.83,70.97c8.68-1.25,19.36-2.46,24.94-3.07c3.57-0.39,5.31,0.18,4.26,4.12C84.5,77.75,83.25,83,81.57,90"/><path d="M59.51,92.13c5.49-0.38,12.9-0.94,20.03-1.5c1.8-0.14,3.34,0,4.84,0"/></svg>