<svg><path d="M28.88,13.67c0.34,1.34,0.1,2.45-0.67,3.8c-3.08,5.4-7.53,12.53-12.05,17.72c-1.03,1.18-0.68,2.35,0,2.6c3.6,1.34,5.97,2.33,9.97,5.06"/><path d="M39.8,25.93c0.27,1.14-0.11,2.45-0.8,3.33c-7.88,10.12-15.83,19.82-23.68,27.95c-1.83,1.89-1.03,3.46,1.15,2.84c7.28-2.05,15.87-4.74,22.29-6.28"/><path d="M34.38,46.38c3.22,2.27,8.32,9.32,9.12,12.85"/><path d="M28.39,59.87c1.06,1.06,1.23,2.51,1.23,4.09c0,6.92,0.09,20.75-0.04,27.88c-0.04,2.4-0.08,4.24-0.08,5.16"/><path d="M21.6,69.35c0.16,0.99-0.37,2.68-0.66,3.39c-1.87,4.61-5.95,12.89-9.7,17.19"/><path d="M37.8,68.54c2.56,3.89,4.52,12.91,5.12,16.44"/><path d="M60.52,12.5c0.05,0.77,0.01,1.77-0.34,2.84c-2.67,8.16-9.3,20.16-16.42,29.54"/><path d="M54.53,33.5c2.22,0.5,5.3,0.41,7.83-0.09c6.43-1.28,20.85-4.06,24.92-4.41c2.97-0.25,5.27,0.45,5.25,5.75C92.5,41,90.38,72,83.03,92c-2.13,5.81-5.05,1.88-8-1.25"/><path d="M52.77,45.12c0.81,0.81,1.02,1.97,1.02,3.13c-0.01,3.84-0.05,17.5-0.03,25c0,2.81,0.01,4.75,0.04,5"/><path d="M54.97,46.93c1.21-0.1,10.57-1.4,14.68-1.96c2.49-0.33,3.59,0.18,3.54,2.9c-0.07,3.63-0.02,15.73-0.02,23.38c0,3.68-0.04,6.34-0.04,6.56"/><path d="M55,60.63c1.86,0,14.67-1.6,16.77-1.6"/><path d="M55.14,75.06c3.74-0.4,11.97-0.76,16.62-1.11"/></svg>