<svg><path d="M29.9,14.25c0.31,1.21,0.01,2.7-0.66,3.94C26,24.25,20.53,32.65,17.42,35.49c-0.64,0.58-0.62,2.81,0,3.04c3.26,1.21,6.84,2.74,9.64,4.97"/><path d="M38.53,28.69C39,30,38.64,31.49,37.9,32.6c-5.59,8.36-14.43,17.44-21.75,25.01c-1.74,1.8,0.43,2.83,1.57,2.47c4.75-1.53,12.62-2.77,18.73-4.24"/><path d="M34.75,49.25c2.38,2.12,6.15,9.21,6.75,12.5"/><path d="M26.33,60.26c0.64,0.64,1.28,1.99,1.28,3.28c0,6.41,0.01,20.11-0.1,27.47c-0.04,2.57-0.06,4.49-0.06,5.25"/><path d="M18,70.25c0.2,1.28,0.04,2.45-0.47,3.62c-1.62,3.7-4.88,9.8-6.78,12.63"/><path d="M36,68.75c2.25,2.75,5.25,10,5.5,13.75"/><path d="M67.28,14c0.13,1.76,0.07,2.9-0.62,4.57C63.14,27.07,57,40,46,51.06"/><path d="M67.97,19.81C74.25,28.25,87,42.5,93.17,47.23c1.53,1.17,3.01,2.1,4.33,2.52"/><path d="M56.6,52.22c0.7,0.2,3.01,0.29,3.7,0.2c5.57-0.67,11.57-2.05,15.69-2.33c1.16-0.08,2.89,0.1,3.47,0.2"/><path d="M47.75,67.36c1.5,0.25,4.27,0.41,5.75,0.25c10.37-1.11,23.5-2.86,33.77-3.3c2.5-0.11,4,0.12,5.25,0.25"/><path d="M65.12,69.57c0.57,1.59,0.18,3.19-0.75,4.52c-2.33,3.31-5.46,7.64-10.84,13.68c-1.68,1.89-1.19,3.21,1.59,2.85c5.86-0.76,18.47-4.88,28.01-6.66"/><path d="M78.5,76.25c3.44,2.96,8.89,12.15,9.75,16.75"/></svg>