<svg><path d="M29.92,10.92c0.33,1.31,0.35,2.28-0.17,3.71c-2.25,6.3-7.2,13-11.61,18.03c-0.61,0.7-0.66,3.03,0,3.27c3.48,1.31,8.83,3.03,11.81,5.43"/><path d="M43.4,21.68c0.28,0.61,0.35,2.6,0,3.26C38,35.21,25.97,50.34,18.53,59.06c-1.71,2,0.42,3.14,1.54,2.74c4.66-1.7,19.45-6.17,25.44-7.8"/><path d="M39.88,45.88c3.31,2.54,8.54,10.43,9.37,14.37"/><path d="M32.64,60.87c0.07,0.36,0.91,1.85,0.98,4.09c0.31,10.79-0.2,30.79-0.2,34.46"/><path d="M22.82,71.1c0.21,1.15,0.17,3.43-0.21,4.26c-2.46,5.39-8.63,15.78-12.12,20.4"/><path d="M41.5,70.25c4.25,3.13,7.51,10.41,8.5,13.25"/><path d="M72.79,12.25c0.33,1.3,0.35,2.26-0.17,3.67c-2.27,6.23-7.28,12.36-11.73,17.33c-0.62,0.69-0.66,2.99,0,3.24c3.51,1.3,9.41,4,12.42,6.37"/><path d="M88.78,22.43c0.35,0.58,0.44,2.46,0,3.09c-6.88,9.73-20.86,24.68-30.33,32.94c-2.17,1.9,0.04,3.48,1.46,3.09c5.92-1.61,21-5.49,28.61-7.03"/><path d="M83.25,47c3.53,2.65,9.12,10.88,10,15"/><path d="M74.37,61.37c0.05,0.36,0.74,1.85,0.79,4.09C75.41,76.25,75,95.75,75,99.42"/><path d="M64.54,72.85c0.26,1.04,0.22,3.08-0.26,3.83C61.17,81.51,53.4,90.85,49,95"/><path d="M83.18,72.79c6.03,3.89,10.67,12.93,12.07,16.46"/></svg>