<svg><path d="M27.4,11.92c0.36,1.42,0.38,2.47-0.18,4.01c-2.46,6.81-6.96,12.56-11.78,18.01c-0.67,0.75-0.72,3.27,0,3.54c3.81,1.42,8.64,3.28,11.91,5.88"/><path d="M38.3,24.68c0.3,0.58,0.37,2.46,0,3.09c-5.8,9.73-15.49,22.18-23.48,30.44c-1.83,1.89,0.46,2.98,1.65,2.59c5-1.61,15.87-4.49,22.29-6.03"/><path d="M33.88,47.38c2.69,2.22,6.95,9.14,7.62,12.6"/><path d="M27.14,60.87c0.07,0.36,0.91,1.85,0.98,4.09c0.31,10.79-0.2,30.29-0.2,33.96"/><path d="M18.86,71.6c0.14,0.91,0.12,2.69-0.14,3.34c-1.67,4.23-5.86,12.37-8.23,16"/><path d="M35.43,70.04c3.5,3.47,6.18,11.54,6.99,14.69"/><path d="M83.88,11.14c0.1,0.22,0.2,0.57-0.19,0.89C81.36,13.9,68,18,49.71,20.5"/><path d="M53.56,28.11c0.03,0.47,0.06,1.2-0.05,1.87c-0.64,3.95-4.31,12.61-9.34,17.91"/><path d="M66.22,27.55c3.09,2.37,7.99,9.73,8.77,13.41"/><path d="M82.35,23.42c4.5,2.88,11.63,11.85,12.76,16.33"/><path d="M67.41,45.62c0.34,1.27,0.31,2.95-0.17,4.43c-2.69,8.21-7.25,16.92-11.55,25.78c-0.94,1.93-0.19,2.3,0.52,2.32c9.98,0.21,28.33,9.2,33.49,19.11"/><path d="M84.34,51.43c0.11,1.1,0.33,3.85-0.23,5.39c-5.86,16.11-13.38,32.81-37.5,41.44"/><path d="M46.63,62.18c1.61,0.32,3.32,0.46,4.09,0.37c16.24-1.8,27.73-3.05,43.24-3.3c1.28-0.02,3.5,0.35,4.54,1"/></svg>