<svg><path d="M28.15,14c0.31,1.21,0.27,2.7-0.41,3.94c-3.24,5.96-6.52,11.14-11.06,16.22c-1.42,1.59-1.01,3.39,0.57,3.98c3.18,1.19,6.13,2.42,9.82,4.35"/><path d="M39.53,24.94c0.47,1.18,0.47,2.31-0.25,3.44c-5.48,8.65-15.53,19.87-23.13,27.73c-1.74,1.8,0.43,2.83,1.57,2.47c4.75-1.53,15.62-4.27,21.73-5.74"/><path d="M35.12,46.12C37.55,48.04,41.39,54.01,42,57"/><path d="M28.83,58.76c0.64,0.64,1.28,2.12,1.28,3.53c0,6.26-0.08,19.82-0.13,27.96c-0.02,3.11-0.03,5.44-0.03,6.25"/><path d="M19.25,69.38c0.5,0.96,0.5,1.91,0.13,3.33c-1.05,4.02-5.08,11.34-7.13,14.67"/><path d="M39.25,69c2.38,3.43,4.2,11.39,4.75,14.5"/><path d="M50.17,27.15c2.14,0.55,4.31,0.29,6.46,0.02c7.25-0.92,17.9-2.53,24.88-3.23c2.19-0.22,4.23-0.29,6.41,0.05"/><path d="M66.7,11.25c1.21,1.21,1.64,2.5,1.64,3.73c0,4.27,0.16,17.65,0.16,23.02"/><path d="M54.47,40.33c1.8,0.37,3.48,0.17,5.28-0.09c6.08-0.85,13.56-1.89,18.38-2.6c1.74-0.26,3.46-0.63,5.19-0.1"/><path d="M49.62,51.62c-0.1,3.15-2.59,11.4-3.48,13.28"/><path d="M51.32,53.36c10.81-1.98,27.93-4.44,37.56-4.66c8.62-0.2,0.65,6.11-0.47,7.08"/><path d="M60.34,63c0.41,0.75,0.54,2.1,0.42,3.27C59.67,76.74,54.25,89,45.52,96.66"/><path d="M73.74,59.67c0.92,0.92,1.36,1.96,1.36,3.77c0,4.48-0.14,12.99-0.14,19.56c0,10.5,1.54,11.78,10.76,11.78c9.53,0,10.57-1.65,10.57-7.37"/></svg>