<svg><path d="M28.91,13.25c0.38,1.2,0.39,2.09-0.19,3.4c-2.55,5.76-7.78,13.9-12.77,18.5c-0.69,0.64-0.75,2.77,0,3c3.94,1.2,5.8,2.61,10.05,5.61"/><path d="M40.07,25.18c0.3,0.51,0.37,2.15,0,2.7c-5.75,8.52-16.34,20.42-24.25,27.66c-1.81,1.66,0.45,2.61,1.63,2.27c4.95-1.41,16.71-3.93,23.07-5.28"/><path d="M36.88,45.63c2.34,2.36,6.04,9.69,6.62,13.35"/><path d="M28.14,57.87c0.07,0.36,0.91,1.85,0.98,4.09c0.31,10.79-0.2,30.29-0.2,33.96"/><path d="M18.35,69.1c0.16,0.88,0.13,2.63-0.16,3.26C16.33,76.49,11.65,84.46,9,88"/><path d="M36.75,67.5c2.5,3.25,4.42,10.8,5,13.75"/><path d="M53.7,21.17c1.26,0.51,2.84,0.38,3.96,0.28c9.96-0.9,24.5-3.45,29.49-3.97c3.24-0.34,4.69,1.03,4.51,3.42c-0.48,6.32-3.83,24.56-8.26,31.83c-3.21,5.28-5.08,3.58-7.5,0.16"/><path d="M68.64,22.98c0.05,0.72,0,1.86-0.1,2.91c-1.08,11.93-6.34,19.69-16.76,29.57"/><path d="M55.12,34.35c6.61,1.48,17.07,6.52,18.73,8.82"/><path d="M50.62,71.8c0.2,2.22-2.01,12-3.62,15.7"/><path d="M56.88,66.61c6.76,15.19,12.28,27.17,31.78,26.97c7.59-0.08,6.59-3.83,2.21-7.16"/><path d="M68.05,63.69c1.95,3.72,6.56,10.04,7.78,4.78"/><path d="M87.25,65c4.49,2.15,7.85,4.6,11.5,11.25"/></svg>