<svg><path d="M27.63,12.67c0.34,1.34,0.5,2.4-0.17,3.8c-2.83,5.9-5.3,10.52-10.05,16.72c-0.9,1.18-1.03,2.43,0.25,3.1c3.41,1.79,6.88,4.11,9.97,6.56"/><path d="M39.3,26.43c0.45,1.2,0.23,2.51-0.5,3.59c-6.93,10.23-15.49,20.93-23.48,29.19c-1.83,1.89,0.46,2.98,1.65,2.59c5-1.61,16.37-4.99,22.79-6.53"/><path d="M35.38,48.75c2.34,2.11,6.04,8.69,6.62,11.98"/><path d="M27.14,61.62c0.75,0.75,0.98,1.76,0.98,3.34c0,6.11-0.06,18.72-0.08,26.92c0,1.79-0.01,3.37-0.01,4.62"/><path d="M19.37,71.35c0.13,0.9-0.14,2.43-0.38,3.08c-1.57,4.21-5.51,12.34-7.74,15.95"/><path d="M36.68,71.54c2.37,3,4.19,9.97,4.74,12.69"/><path d="M58.94,28.92c2.06,2.27,5.18,8.7,5.69,12.24"/><path d="M89.64,24.85c0.09,0.98-0.24,1.72-0.68,2.6c-1.71,3.43-3.74,7.07-7.43,11.42"/><path d="M57.31,47.22c2.69,0.53,4.31,0.58,6.44,0.4c5.95-0.49,17.2-1.84,23.62-2.22c1.81-0.1,3.75-0.29,5.8-0.05"/><path d="M72.51,16c0.99,0.99,1.41,2.38,1.41,4.12c0,0.68,0.04,40.61,0.04,56.38c0,3.72,0,6.09-0.01,6.25"/><path d="M72.83,47.97c0,1.66-1.11,4.13-2.38,6.39C66.12,62,61.88,67.88,55.81,73.59"/><path d="M77.29,57.58c4.84,2.71,13.46,9.4,14.81,13.47"/><path d="M49.52,20.5c1.18,1.18,1.31,2.5,1.31,4c0,1.11-1.01,55.38-1.01,62.95c0,3.05,0.43,4.3,3.97,4.02c5.23-0.42,26.01-2.28,34.96-2.69c2.96-0.14,6.12-0.15,8.5,0.59"/></svg>