<svg><path d="M27.65,12.67c0.36,1.42,0.38,2.47-0.18,4.01C25,23.5,21,28.25,16.18,33.69c-0.67,0.75-0.72,3.27,0,3.54c3.81,1.42,7.64,2.78,10.91,5.38"/><path d="M38.55,23.93c0.3,0.58,0.37,2.46,0,3.09c-5.8,9.73-15.49,21.18-23.48,29.44c-1.83,1.89,0.46,2.98,1.65,2.59c5-1.61,16.87-4.49,23.29-6.03"/><path d="M35.38,44.38c2.78,2.71,7.18,11.14,7.87,15.35"/><path d="M28.89,58.62c0.07,0.34,0.91,1.75,0.98,3.87c0.31,10.2-0.2,31.21-0.2,34.69"/><path d="M18.6,68.35c0.17,0.93,0.08,2.73-0.17,3.42c-1.68,4.73-5.68,11.98-9.93,16.41"/><path d="M36.68,67.04c3,3.53,5.3,11.74,5.99,14.94"/><path d="M50.58,17.07c0.45,1.23,1.06,3.16,1.06,5.4c0,3.45,0.01,6.66,0.01,22.95c0,18.22-0.33,41.72-8.64,49.83"/><path d="M51.49,19.46c5.92-0.94,37.99-3.71,39.18-3.71c2.2,0,3.43,2.25,3.43,4.48c0,2.36,0.16,64.27,0.16,69.69c0,8.48-3.12,7.08-8.09,1.34"/><path d="M58.98,34.47c0.94,0.37,2.66,0.26,3.6,0.22c5.08-0.19,16.12-2.27,19.88-2.44c1.57-0.07,2.51,0.06,3.29,0.23"/><path d="M57.56,47.65c0.98,0.19,2.78,0.19,3.76,0.1c5.36-0.5,16.26-2.25,22.66-2.4c1.63-0.04,2.61,0.02,3.43,0.1"/><path d="M71.26,23.39c0.61,0.33,0.97,1.61,1.09,2.34c0.12,0.74,0.01,25.14-0.11,29.8"/><path d="M59.92,60.93c0.2,0.36,0.4,0.66,0.49,1.11c0.69,3.55,2.02,12.34,2.49,18.72"/><path d="M60.7,62.69c5.79-1.19,17.92-2.34,20.9-2.52c1.09-0.06,2.66,1.88,2.47,2.86c-0.81,4.07-2.03,8.54-3.65,14.36"/><path d="M63.59,78.91c6.66-0.16,14.9-1.3,18.83-1.41"/></svg>