<svg><path d="M14.88,14.12c0.62,0.2,2.42,0.22,3.04,0.2c6.46-0.24,17.54-1.59,25.37-2c1.03-0.05,2.32,0.09,2.84,0.19"/><path d="M17.65,24.12c0.74,0.22,1.86,0.63,3.31,0.46c7.55-0.84,16.8-1.94,21.54-2.34c1.28-0.11,2.57,0.75,2.09,2.39c-0.85,2.91-1.12,5.09-2.25,10.02"/><path d="M19.5,38.34c0.77,0,18.45-1.88,24.64-1.88"/><path d="M19.57,25.25c0.03,0.78,0.2,1.43,0.21,2.56c0.08,14.15-3.44,24.89-10.02,29.94"/><path d="M64.54,9.64c0.04,0.45,0.19,1.19-0.07,1.82C62.61,16.05,58.43,23.81,52,29.35"/><path d="M63.02,20.88c0.97,0.02,2.75-0.2,3.27-0.25c5.38-0.55,13.68-2.13,21.89-2.97c0.92-0.1,1.49-0.12,1.73-0.1"/><path d="M80.27,22c0.4,0.57,0.34,2.09-0.3,3.01C74.25,33.25,67,40,55.5,45.5"/><path d="M57.58,26.32c7.04,4.88,19.99,14.32,29.4,18.95c1.73,0.85,3.57,1.42,5.02,1.5"/><path d="M48.37,42.25c0.38,0.83-0.4,1.97-1.19,2.86c-3.45,3.88-9.36,9.93-13.2,11.87c-0.79,0.4-0.76,1.92,0,2.08c4.03,0.83,8.44,2.22,11.9,3.74"/><path d="M64.97,48.33c0.03,1.17,0.2,2.23-0.49,2.7c-10.59,7.19-23.65,15.73-37.19,23.5c-1.63,0.94-0.98,1.47,0.99,1.17c8.24-1.23,40.89-6.03,51.48-7.2"/><path d="M69.83,59.6c5.54,2.99,14.32,12.31,15.7,16.97"/><path d="M53.02,74.75c0.08,0.19,1.06,0.98,1.13,2.17c0.36,5.72-0.23,22.13-0.23,24.08"/><path d="M39.17,81.37c0.33,0.75-0.23,3.23-0.83,3.77c-3.91,3.51-13.18,10.29-18.72,13.31"/><path d="M66,80.75c6.27,3.32,17.01,12.18,19.25,15.5"/></svg>