<svg><path d="M31.88,15.67c0.34,1.34,0.34,2.69-0.42,4.05c-3.33,5.9-5.7,9.53-11.05,15.72c-0.73,0.85-0.78,2.43,0.25,2.85c3.56,1.46,6.88,2.61,9.97,5.06"/><path d="M42.3,27.93c0.2,1.2-0.06,2.4-0.75,3.34C35,40.25,26.81,49.69,18.82,57.96c-1.83,1.89,0.46,2.98,1.65,2.59c5-1.61,15.37-4.99,21.79-6.53"/><path d="M38.38,47.63c2.16,2.18,5.58,8.96,6.12,12.35"/><path d="M30.64,60.37c0.87,0.87,1.23,2.13,1.23,3.59c0,9.47,0.02,19.92,0.04,26.1c0.01,2.63,0.01,4.67,0.01,5.86"/><path d="M22.35,69.85c0.16,0.94,0.08,2.28-0.16,2.97c-1.7,4.94-5.7,12.31-9.2,16.87"/><path d="M39.93,69.54c3.12,3.35,5.52,11.15,6.24,14.19"/><path d="M60.65,17.25c0.15,1.65-0.29,3.32-0.78,4.73C56.75,31,52.29,38.64,45.12,49.62"/><path d="M53.11,40.06c0.86,0.86,1.18,2.27,1.18,3.53c0,10.66-0.02,31.91-0.02,45.03c0,2.91,0,5.16,0.07,6.38"/><path d="M81.17,16.25c0.08,0.99-0.22,2.3-0.53,3.12c-1.89,5-3.22,7.8-6.98,14.36"/><path d="M53.76,38.27c6.93-0.76,23.17-2.25,32.55-3.48c2.9-0.38,5.04-0.68,5.83-0.82"/><path d="M73.58,38.2c0.93,0.93,1.18,2.43,1.18,4.07c0,7.81,0.06,37.23,0.06,44.32"/><path d="M55.66,54.83c5.69-0.72,20.99-1.91,29.46-2.65c2.57-0.23,4.46-0.41,5.2-0.53"/><path d="M55.51,70.44c6-0.61,21.38-1.74,30.33-2.54c2.73-0.25,4.74-0.44,5.52-0.54"/><path d="M55.41,88.95c6.84-0.45,25.07-1.43,34.35-2.21c2.19-0.18,3.77-0.34,4.41-0.46"/></svg>