<svg><path d="M27.65,12.17c0.36,1.42,0.38,2.47-0.18,4.01C25,23,20,30.25,15.18,35.69c-0.67,0.75-0.72,3.27,0,3.54c3.81,1.42,8.14,2.28,11.41,4.88"/><path d="M37.55,25.43c0.3,0.58,0.37,2.46,0,3.09c-5.8,9.73-13.99,20.68-21.98,28.94c-1.83,1.89,0.46,2.98,1.65,2.59c5-1.61,16.87-4.49,23.29-6.03"/><path d="M35.38,46.38c2.6,2.45,6.72,10.05,7.37,13.85"/><path d="M28.73,60.12c0.07,0.37,0.97,1.92,1.04,4.26c0.33,11.23-0.21,29.97-0.21,33.8"/><path d="M20.6,70.35c0.16,0.94,0.13,2.79-0.16,3.47c-1.87,4.39-6.55,12.85-9.2,16.62"/><path d="M37.18,68.79c3.75,3.71,6.62,12.33,7.49,15.69"/><path d="M45.72,28.31c0.94,0.34,2.67,0.39,3.61,0.34c7.33-0.32,26.76-2.99,35.24-3.46c1.57-0.09,2.51,0.17,3.29,0.34"/><path d="M59.06,10.25c1.33,0.88,1.93,2.15,2.21,4.05c2.32,15.92,10.77,31.45,27.01,37.39c5.21,1.91,5.13-0.32,3.81-6.6"/><path d="M81.68,30.95c-0.19,0.6-0.36,1.23-0.79,1.78C77.11,37.56,67.1,44.5,51.32,50.2"/><path d="M72.17,11.18c3.26,1.5,8.46,4.93,9.99,7.5"/><path d="M48.02,67.38c0.96,0.44,2.73,0.57,3.69,0.44c8.42-1.12,29.01-3.33,37.68-3.93c1.6-0.11,2.57,0.21,3.37,0.43"/><path d="M60.51,52.92c1.43,0.96,2.04,1.71,2.34,3.78c2.5,17.36,10.72,34.3,28.2,40.78c5.61,2.08,5.7-0.73,4.1-7.36"/><path d="M83.4,71.53c0.1,0.57,0.22,1.46-0.21,2.28c-2.51,4.8-16.63,15.87-36.39,22.32"/><path d="M72.17,51.12c2.77,1.45,7.19,4.77,8.49,7.25"/></svg>