<svg><path d="M27.15,15.5c0,1.25-0.24,2.2-0.91,3.44c-2.9,5.43-5.92,10.21-8.99,14.93c-1.13,1.74-2.47,4.07,0.09,5.1c2.84,1.14,5.34,2.3,8.48,4.27"/><path d="M37.28,25.94c0,1.18-0.39,2.09-0.75,2.69C30.04,39.47,24.65,47.58,16.3,58.51c-1.77,2.31-0.81,3.93,1.98,2.96c4.99-1.72,10.59-3.72,17.09-6.1"/><path d="M32.25,47.5c2.56,2.07,6.61,8.77,7.25,12"/><path d="M27.58,60.76c0.77,0.77,1.03,1.87,1.03,3.28c0,5.75-0.02,17.12-0.07,24.96c-0.02,3.96-0.04,7.01-0.04,8"/><path d="M18.5,72.5c0.25,1,0.12,1.83-0.12,2.44c-2.88,7.43-4.5,11.06-7.13,15.81"/><path d="M36.25,69.75c2.5,3.49,4.67,11.34,5.25,14.5"/><path d="M74.24,14.64c0,0.86-0.6,1.91-1.47,2.51C69.25,19.62,61.38,24,50.96,27.28"/><path d="M48.79,31.56c1.71,1.53,4.92,5.81,5.35,8.2"/><path d="M63.1,27.95c1.58,1.45,4.84,6.22,5.24,8.48"/><path d="M86.56,23.54c0.05,1.1-0.26,2.05-0.88,2.87c-2.55,3.34-4.8,5.84-9.73,10.8"/><path d="M48.34,44.92c-0.11,3.49-2.1,11.45-3.07,13.6"/><path d="M49.47,46.56c14.91-2.56,21-3.3,37.05-5.18c6.48-0.76,6.23,2.24,0.83,7.93"/><path d="M54,59.51c2.38,0.47,4.24,0.29,6.62-0.29c4.44-1.08,12.68-3.38,15.6-4.13c2.79-0.72,4.16,1.22,2.77,3.6C69.8,74.45,58.92,85.05,43.11,93.33"/><path d="M53.02,66.04c3.94,0.39,16.86,12.46,29.37,22.24c3.47,2.71,7.3,4.75,11.46,6.16"/></svg>