<svg><path d="M28.15,13.75c0.31,1.21,0.09,2.49-0.66,3.69c-3.26,5.27-9.2,14.21-12.07,17.29c-1.17,1.26-1.15,2.34,0.25,3.04c4.2,2.1,7.09,3.74,9.89,5.97"/><path d="M39.03,26.44c0.09,1.43-0.24,2.58-1.08,3.74C31.97,38.47,23,48.88,15.4,57.11c-1.7,1.84-0.88,3.25,1.32,2.72c5.53-1.33,13.12-3.52,19.23-4.99"/><path d="M33,46c2.56,2.56,6.61,10.52,7.25,14.5"/><path d="M26.33,60.26c0.83,0.83,1.03,2.23,1.03,4.03c0,2.71-0.05,16.29-0.09,25.09c-0.01,3.67-0.02,6.51-0.02,7.38"/><path d="M18.25,71.5c0.12,0.82-0.17,2.18-0.37,2.77C16.25,79,13.5,84.5,10.75,88.75"/><path d="M34.88,67.5c2.81,3.25,4.97,10.8,5.62,13.75"/><path d="M66.58,10.65c0.07,0.87,0.06,1.8-0.38,3c-3.07,8.22-9.82,22.22-22.96,33.48"/><path d="M66.37,16.13c4.23,3.92,15.29,16.9,21.73,23.77c2.49,2.65,4.4,4.23,7.67,6.17"/><path d="M54.41,45.1c1.53,0.62,3.97,0.44,5.59,0.28c4.61-0.45,11.36-0.96,16.12-1.33c1.71-0.13,3.35-0.27,5.04,0.14"/><path d="M47.57,56.88c0.84,0.84,1.19,1.99,1.19,3.53c0,4.61-0.01,18.46-0.01,27.71c0,3.2,0,5.85,0,7.38"/><path d="M49.79,58.71c6.31-0.51,34.23-2.37,35.49-2.4c3.1-0.06,4.4,1.19,4.4,3.92c0,6.76-0.06,17.71-0.06,29.76c0,7.96-3.03,4.35-6.4,1.57"/><path d="M50.03,74.23c5.06-0.43,34.96-2.19,38.51-2.4"/><path d="M60.25,60.52c0.99,0.99,1.32,2.23,1.32,3.85c0,8.54-0.01,16.9-0.01,22.74c0,2.8,0,5.02,0,6.41"/><path d="M72.61,59.17c1.05,1.05,1.31,2.2,1.31,3.85c0,8.44-0.01,17.12-0.01,23.22c0,3.03,0,5.42,0,6.85"/></svg>