<svg><path d="M26.65,11.17c0.36,1.42,0.38,2.47-0.18,4.01C24,22,20.5,27.75,15.68,33.19c-0.67,0.75-0.72,3.27,0,3.54c3.81,1.42,6.57,2.27,11.41,4.38"/><path d="M37.55,23.43c0.3,0.58,0.37,2.46,0,3.09c-5.8,9.73-15.49,22.68-23.48,30.94c-1.83,1.89,0.46,2.98,1.65,2.59c5-1.61,14.85-3.76,21.28-5.3"/><path d="M31.63,46.38c3.31,2.67,8.54,10.97,9.37,15.12"/><path d="M26.39,60.12c0.07,0.36,0.91,1.85,0.98,4.09C27.68,75,27.17,93,27.17,96.67"/><path d="M18.12,70.85c0.14,0.88,0.11,2.62-0.14,3.25C16.36,78.21,12.3,86.15,10,89.68"/><path d="M33.75,68.5c3.21,3.54,5.68,11.77,6.42,14.97"/><path d="M64.56,11.63c0.76,0.29,2.36,2.18,2.51,2.76c0.15,0.58,0.4,16.36,0.25,19.99"/><path d="M67.49,22.72c1.95,0.03,11.92-1.06,17.62-1.58c2.04-0.19,2.94-0.05,4.16-0.09"/><path d="M46.66,34.42c0.84,1.17,1.96,1.54,2.22,3.11c0.73,4.28,3.29,19.63,3.33,23.22"/><path d="M48.61,36.26c3.89-0.18,36.04-2.98,39.55-2.53c1.39,0.18,2.73,1.57,2.2,3.36c-0.88,2.95-2.14,15.39-4.11,21.9"/><path d="M51.39,47.04c6.62-0.21,30.45-1.34,36.38-1.34"/><path d="M53.13,58.4C62.68,58,80.15,57.15,85,57.15"/><path d="M42.88,73.82c1.04,0.29,2.96,0.37,3.99,0.29c9.01-0.68,39.63-2.8,48.11-2.77c1.74,0,2.78,0.14,3.65,0.28"/><path d="M67.48,60c0.44,0.55,1.38,3.13,1.47,4.24c0.09,1.1-0.06,27.12-0.15,34.01"/></svg>