<svg><path d="M25.4,15.25c0.31,1.21,0.42,2.16-0.16,3.44c-2.74,6.06-6.71,15.46-9.82,18.29c-0.64,0.58-0.62,2.81,0,3.04c3.26,1.21,5.84,2.24,8.64,4.47"/><path d="M34.53,26.19c0.29,0.55,0.38,2.35,0,2.94C29,37.75,22.25,50.25,14.65,58.11c-1.74,1.8,0.43,2.83,1.57,2.47c4.75-1.53,11.62-3.77,17.73-5.24"/><path d="M30.5,49.25c2.12,1.94,5.47,7.98,6,11"/><path d="M25.33,60.26c0.05,0.29,0.73,1.48,0.78,3.28c0.25,8.64-0.16,28.77-0.16,31.71"/><path d="M16.02,68.25c0.09,0.85,0.08,2.54-0.09,3.15c-1.1,3.99-3.86,11.68-5.43,15.1"/><path d="M33.5,66.75c2.5,3.67,4.42,12.18,5,15.5"/><path d="M41.32,19.56c0.24,0.03,1.54,0.26,2.22,0.19c3.07-0.33,11.68-3.07,14.9-3.91c2.21-0.58,2.83,0.66,2.27,2.24C57.62,26.7,52.25,37,39.5,45.5"/><path d="M42.9,26.74C48.75,30,55.25,36,58.14,41.1"/><path d="M69.32,18.31c0.24,0.03,2.54,0.26,3.22,0.19c3.07-0.33,11.68-3.07,14.9-3.91c2.21-0.58,2.83,0.66,2.27,2.24c-3.09,8.63-12.46,23.43-25.21,30.43"/><path d="M71.14,26.49c7.1,3.6,14.99,10.22,18.49,15.86"/><path d="M42.07,59.06c0.24,0.03,1.54,0.26,2.22,0.19c3.07-0.33,10.68-2.07,13.9-2.91c2.21-0.58,2.83,0.66,2.27,2.24c-3.09,8.63-8.21,21.68-21.71,31.93"/><path d="M42.14,66.99c6.62,3.77,13.98,10.71,17.24,16.61"/><path d="M68.63,55.61c0.38,0.04,2.43,0.35,3.52,0.25c4.86-0.45,11.74-2.59,16.84-3.72c3.5-0.77,4.58,0.92,3.6,2.99C86.75,67.5,78,81,59.75,91.75"/><path d="M68.75,62.25c3.56,4.64,19.71,22.26,24.51,26.5c1.43,1.27,2.59,1.88,3.99,2.25"/></svg>