<svg><path d="M26.4,13.75c0.31,1.21,0.47,2.18-0.16,3.44c-2.49,5.06-7.71,13.46-10.82,16.29c-0.64,0.58-0.62,2.81,0,3.04c3.26,1.21,7.34,3.74,10.14,5.97"/><path d="M36.03,25.19c0.29,0.55,0.38,2.35,0,2.94c-5.53,8.62-14.78,22.12-22.38,29.98c-1.74,1.8,0.43,2.83,1.57,2.47c4.75-1.53,15.62-5.77,21.73-7.24"/><path d="M33.25,47.5c2.56,2.07,6.61,8.52,7.25,11.75"/><path d="M26.33,59.26c0.05,0.29,0.73,1.48,0.78,3.28c0.25,8.64-0.16,30.27-0.16,33.21"/><path d="M16.26,69.75c0.74,1,1.09,2.78,0.9,3.45C15.9,77.57,11.77,86,10,89.75"/><path d="M34.25,68c3.12,3.37,5.52,11.2,6.25,14.25"/><path d="M66.66,12.92c0.71,0.8,1.93,2.8,1.91,3.9c-0.07,3.46-0.07,8.98-0.07,12.13"/><path d="M50.21,27.91c0,3.09-3.17,11.58-4.61,13.64"/><path d="M51.12,31.64c9.38-1.64,28.7-4.38,37.53-4.78c8.1-0.36,2.56,4.83,0.04,6.97"/><path d="M50.82,47.46c2.07,0.42,4.07,0.33,6.17,0c4.97-0.78,23.21-3.4,26.5-3.4c2.84,0,1.83,0.12,4.11,0.12"/><path d="M66.41,47.45c0.81,0.42,1.46,1.89,1.46,2.75c0,5.55-0.29,24.05-0.29,33.87"/><path d="M68.28,65.56c5.97-0.55,8.34-1.11,17.35-2.22c1.45-0.18,1.82-0.18,2.74,0"/><path d="M54.04,60.96c0.04,0.81,0.09,2.1-0.09,3.27C52.9,71.13,50,85,38.56,94.17"/><path d="M51.69,75.8c4.81,2.45,26.4,14.87,36.82,17.92c2.18,0.64,3.89,1.27,5.99,1.53"/></svg>