<svg><path d="M30.63,13.17c0.37,1.2,0.36,2.34-0.17,3.8c-2.52,6.97-6.84,13.42-11.3,19.47c-0.78,1.06-0.65,2.06,0.75,2.6c3.58,1.4,5.63,2.86,8.72,5.31"/><path d="M41.3,24.18c0.32,1.07,0.18,2.31-0.5,3.34c-7.3,11.11-14.43,20.61-22.98,30.69c-1.7,2.01-0.84,3.63,1.65,2.84C26,59,34.84,56.56,41.27,55.02"/><path d="M38.5,47.5c2.21,2.11,5.7,8.69,6.25,11.98"/><path d="M29.64,60.87c0.87,0.87,1.23,2.38,1.23,4.09c0,8.85-0.12,16.68-0.12,22.92c0,2.75,0,6.42,0,7.5"/><path d="M21.61,71.85c0.14,0.94-0.14,2.54-0.39,3.22c-2.1,5.69-4.85,11.81-7.72,16.62"/><path d="M38.43,68.54c2.62,2.82,4.63,9.38,5.24,11.94"/><path d="M51.64,19.89c1.11,1.11,1.21,2.61,1.21,4.78c0,5.13-0.12,43.81-0.07,59.83c0.01,3.75,0.02,6.32,0.02,7"/><path d="M53.61,22.04c9.02-1.67,30.89-5.17,35.59-5.55c2.84-0.23,4.83,1.76,4.87,3.88c0.05,2.63,0.05,62.88,0.05,69.13c0,11-4.87,2.5-7.82-0.06"/><path d="M60,28c2.58,2.03,6.67,8.34,7.32,11.49"/><path d="M81.45,26.69c0.1,0.95-0.05,1.86-0.39,2.74c-1.43,3.69-2.6,5.95-6.31,11.49"/><path d="M56.88,45.64c1.75,0.36,3.84,0.39,5.24,0.18c5.43-0.83,16.13-2.24,21.99-3.06c1.71-0.24,3.27-0.38,5-0.25"/><path d="M71.09,47.5c0.77,0.77,1.02,1.88,1.02,2.88c0,0.56-0.1,15.12-0.1,20.37"/><path d="M61.89,54.85c0.8,0.92,0.61,2.69,0.53,3.77c-0.27,3.27-1.1,8.25-1.83,13.94c-0.2,1.58,0.71,2.27,1.61,1.97c6.44-2.16,14.69-4.03,20.37-4.54"/><path d="M82.66,51.04c0.84,0.84,1.04,2.08,1.04,3.65c0,5.17,0,10.43,0,16.06c0,1.51,0,3.02,0,4.5"/></svg>