<svg><path d="M28.38,14.67c0.34,1.34,0.1,2.7-0.67,4.05c-3.83,6.65-7.99,12.82-12.55,17.97c-1.06,1.2-0.57,2.89,0.77,3.39c3.34,1.24,6.08,2.49,8.95,4.78"/><path d="M37.55,28.68c0.32,1.2,0.07,2.2-0.75,3.34c-6.68,9.29-13.71,17.09-21.37,25.05c-2.44,2.53-0.91,4.23,2.3,3.27c5.58-1.66,15.19-4.17,21.03-5.57"/><path d="M35.13,48.38c2.78,2.14,7.18,8.78,7.87,12.1"/><path d="M27.64,60.37c0.81,0.81,1.23,2.01,1.23,4.09c0,9.42-0.12,27.12-0.12,33.17"/><path d="M19.36,67.85c0.27,1.4,0.26,2.4-0.15,3.78c-1.83,6.13-5.46,13.75-8.71,19.56"/><path d="M35.5,67.38c3.46,4.22,6.12,14.02,6.92,17.85"/><path d="M61.62,15.45c0.84,0.84,1.07,1.8,1.09,3.13C63.5,72.12,64,78.75,48.06,93.5"/><path d="M45.05,33.12c1.56,0.19,3.02,0.03,4.57-0.2c3.09-0.46,7.13-1.02,10.51-1.67"/><path d="M45.21,49.01c1.66,0.39,3.26,0.23,4.9-0.01c3.11-0.45,5.39-0.87,10.14-1.99"/><path d="M44,69.45c1.9,0.72,3.07,0.51,4.73-0.34c2.9-1.49,6.09-2.99,11.71-6.07"/><path d="M75.89,13.25c1.18,1.18,1.34,2.12,1.34,3.88c0,0.81-0.08,50.8-0.1,71.5c0,4.15-0.01,7.12-0.01,8.25"/><path d="M78.74,29.86c2.41-0.28,10.44-1.44,14.31-2.11c1.37-0.24,2.81-0.36,4.2-0.36"/><path d="M78.75,47.71c2.64-0.31,9.67-1.27,13.02-1.85c1.6-0.28,2.72-0.15,4.32-0.15"/><path d="M78.41,68.04c2.57-0.3,10.38-1.19,15.48-1.69c1.82-0.18,3.24-0.35,4.87-0.05"/></svg>