<svg><path d="M24.29,16.5c0.28,1.26,0.52,2.32-0.14,3.57c-2.91,5.46-7.76,14.43-10.53,17.36c-0.57,0.6-0.55,2.91,0,3.15c2.91,1.26,6.09,2.86,8.59,5.16"/><path d="M35.3,24.69c0.27,0.6,0.35,2.58,0,3.22c-5.23,9.44-14,21.35-21.18,29.96c-1.65,1.97,0.41,3.1,1.48,2.7c4.49-1.68,11.93-3.04,17.7-4.65"/><path d="M29.75,47.5c2.65,2.21,6.84,9.07,7.5,12.5"/><path d="M24.47,60.79c0.05,0.28,0.72,1.45,0.77,3.21c0.25,8.46-0.16,30.61-0.16,33.5"/><path d="M16.75,70.75c0.12,0.83,0.1,2.47-0.12,3.06c-1.45,3.88-5.08,11.36-7.13,14.69"/><path d="M30.75,65.25c2.62,2.19,4.64,7.27,5.25,9.25"/><path d="M58.74,17.75c0.04,0.27,0.14,0.76-0.07,1.06C56.08,22.55,52.25,25.98,45.5,29"/><path d="M43.45,26.75c0.57,0.53,0.91,2.38,1.02,3.44c0.11,1.06,0,58.45-0.11,65.06"/><path d="M45.25,42.49c4.53-0.5,11.4-1.9,12.23-1.98c0.94-0.09,1.68,0,2.52,0.16"/><path d="M44.89,56.97c4.61-0.49,12.63-1.89,13.48-1.96c0.96-0.09,1.71,0,2.56,0.16"/><path d="M35.25,79.81c0.88,1.38,2.6,1.7,4.22,0.77C40.42,80.02,56.94,70.4,61,67.75"/><path d="M68.41,20.25c0.44,0.47,0.78,1.89,0.79,2.68c0.05,7.57,0.3,16.57-5.45,21.32"/><path d="M69.83,21.23c2.6-0.29,9.32-2,11.6-2.34c1.83-0.27,2.2,1.06,2.01,3.13c-0.33,3.61-0.9,9.7-0.9,13.31c0,4.99,0.97,7.6,6.51,7.6c4.33,0,6.62-1.42,6.62-6.48"/><path d="M67.25,54.75c1.5,0.5,2.32,0.46,4.93,0.06c5.32-0.81,13.14-2.18,14.92-2.69c1.79-0.51,3.09,0.91,2.44,2.75C83,73.23,74,82.75,58.5,93.25"/><path d="M66.75,60.25c2.75,0.77,16.2,21.41,25.78,29.87c1.49,1.32,2.58,2.19,3.97,2.63"/></svg>