<svg><path d="M35.74,10.75c0.29,0.42,0.33,0.93,0.26,1.3c-0.4,2.16-3.87,7.32-7.02,10.21"/><path d="M15.48,23c0.46,0.96,0.74,1.45,0.93,2.71c0.59,4.04,2.6,14.54,3.34,22.15"/><path d="M16.68,24.76c2.62-0.16,27.08-2.99,29.46-3.19c1.98-0.16,3.18,0.53,3.11,2.89c-0.07,1.96-2,13.79-3.23,21.01"/><path d="M19.87,35.14c7.17-0.56,21.77-2.08,28.23-2.3"/><path d="M20.21,46.11c9.41-1.08,18.1-1.77,25.33-2.28"/><path d="M14.37,56.4c1.38,1.1,1.79,2.57,1.83,3.15c0.55,8.95,1.84,21.51,1.98,29.75"/><path d="M16.25,58.79c2.75-0.26,26.37-3.26,28.42-3.42c2.41-0.19,3.74,1.24,3.84,2.92c0.48,7.96,0.24,11.78-1.03,21.62c-1.24,9.59-4.12,3.82-5.28,1.77"/><path d="M30.67,48.74c0.62,0.37,1.94,2.75,2.06,3.49c0.12,0.74-0.08,41.81-0.21,46.4"/><path d="M88.83,9.64c0.08,0.28,0.18,0.71-0.17,1.11C86.58,13.08,76,19,58.31,21.33"/><path d="M72.99,19.17c0.29,1.1,0.53,2.02-0.15,3.12c-2.47,4.02-9.59,11.21-14.31,15.98c-0.57,0.58-0.12,2.22,0.5,2.26c3.73,0.22,8.23,1.47,12.2,3.42"/><path d="M86.98,25.09c0.39,0.61,0.53,2.58,0,3.24C79,38.25,69.64,46.95,58.98,57.63c-1.28,1.29-0.78,2.94,0.78,2.54c6.48-1.69,22.2-4.33,30.53-5.95"/><path d="M84.03,45.89c3.61,2.87,9.32,11.79,10.22,16.25"/><path d="M73.8,59.96c0.09,0.25,1.26,1.27,1.35,2.82c0.43,7.44-0.27,33.43-0.27,35.97"/><path d="M63.51,72.23c0.49,1.27,0.46,3.17,0.1,3.76c-2.35,3.79-8.03,11.91-11.36,15.16"/><path d="M85.25,71.98c4.42,3.77,9.28,13.67,10.5,17.53"/></svg>