<svg><path d="M26.2,14c0.38,1.47,0.4,2.56-0.19,4.17c-2.6,7.08-7.46,14.61-12.54,20.27c-0.7,0.78-0.76,3.4,0,3.68c4.02,1.47,6.6,1.93,10.04,4.63"/><path d="M34.46,28.18c0.27,0.52,0.33,2.21,0,2.77c-5.18,8.73-13.83,19.88-20.96,27.29c-1.63,1.7,0.41,2.67,1.47,2.33c4.46-1.45,15.06-4.03,20.79-5.41"/><path d="M31.5,47.25c2.56,2.38,6.61,9.79,7.25,13.5"/><path d="M25.89,60.62c0.07,0.33,0.91,1.71,0.98,3.79c0.31,10-0.2,26.68-0.2,30.09"/><path d="M17.6,70.85c0.16,0.86,0.13,2.55-0.16,3.17c-1.87,4.01-6.55,11.73-9.2,15.17"/><path d="M32.75,67c2.87,2.96,5.08,9.82,5.75,12.5"/><path d="M48.25,32.25c0.03,1.39-0.04,2.09-0.07,4.1C47.89,55.08,48.25,80,36.25,92.25"/><path d="M44.75,31.62c1.21,0.24,3.44,0.36,4.63,0.24c4.89-0.47,25.78-1.81,39.15-2.34c2.01-0.08,3.22-0.13,4.23-0.01"/><path d="M53,49.05c1.33,0.15,3.2,0.06,4.02-0.04c2.89-0.33,7.19-0.78,9.83-1c1.35-0.11,2.52-0.2,3.2-0.08"/><path d="M52.53,60.36c0.35,0.35,0.71,0.64,0.86,1.08c1.21,3.47,2.04,10.59,2.86,16.81"/><path d="M54.11,61.72c5.64-0.72,10.16-1.59,13.07-2.07c1.06-0.18,1.7,1.05,1.54,2.08c-0.63,4.29-1.2,6.8-2.13,12.74"/><path d="M57.4,76.37c3.02-0.3,6.12-0.68,10.27-1.13"/><path d="M67.5,12.75c1.37,1.73,2.01,2.21,2.23,5.94c1.76,29.21,8.79,58.1,22.61,73.65c4.44,5,4.56,1.38,3.88-6.29"/><path d="M90.5,43.25c0.09,1.18,0.19,3.06-0.18,4.76C88.09,58.04,75.77,80.89,58.3,94.37"/><path d="M80.65,12.87c3.11,1.81,8.1,5.94,9.55,9.04"/></svg>