<svg><path d="M29.88,15.42c0.34,1.34,0.48,2.39-0.17,3.8c-3.2,6.9-6.33,11.4-10.55,17.22c-0.56,0.77-0.43,2.6,0.25,2.85c3.6,1.34,5.13,2.61,8.22,5.06"/><path d="M40.05,26.18c0.45,1.57-0.02,2.9-0.93,4.2C32.17,40.2,24.4,50.61,16.57,58.71c-1.83,1.89-1.32,3.42,0.9,2.84c5.08-1.31,15.1-4.26,21.53-5.8"/><path d="M36.38,49.75c2.51,2.03,6.5,8.33,7.12,11.48"/><path d="M29.14,61.12c0.75,0.75,1.23,2.13,1.23,3.84c0,6.26-0.06,20.2-0.09,27.54c-0.01,2.82-0.02,4.73-0.02,5"/><path d="M21.36,71.1c0.15,0.95-0.13,2.58-0.4,3.26C19,79.38,15.51,87.37,13,91.18"/><path d="M37.5,70.25c2.96,3.36,5.23,11.18,5.92,14.22"/><path d="M51.83,29.48c1.22,0.64,3.64,0.64,4.92,0.51c5.62-0.55,13.45-1.75,18.62-2.1c1.19-0.08,2.33-0.19,3.49,0.18"/><path d="M65.88,13.87c1,1,1.18,2.2,1.18,3.97c0,4.79-0.05,21.54-0.05,26.06"/><path d="M43.74,47.21c2.51,0.95,5.42,0.79,8.02,0.36c10.99-1.81,25.87-4.31,39.25-5.27c2.31-0.17,4.94-0.21,7.13,0.62"/><path d="M88.68,20.49c0.12,1.18-0.13,2.85-0.98,4.25C76.82,42.76,66.15,55.39,46.28,72.04"/><path d="M60.54,60.66c0.65,0.65,0.84,1.52,0.82,2.61c-0.04,1.98-0.04,17.1-0.04,26.49c0,1.89,0,3.55,0,4.83"/><path d="M62.41,60.64c1.54,0.01,14.66-1.54,18.6-1.84c2.33-0.18,3.51,0.45,3.51,3.45c0,6.3,0.08,16.87,0.1,26.25c0,1.81,0.01,3.59,0.01,5.29"/><path d="M62.43,75.33C68,75,78.62,74.38,83.14,74.28"/><path d="M62.76,91.49c4.77-0.17,14.62-0.79,20.56-0.78"/></svg>