<svg><path d="M27.92,12.42c0.33,1.35,0.34,2.35-0.16,3.83c-2.21,6.5-7.55,14.92-11.88,20.12c-0.6,0.72-0.65,3.12,0,3.38c3.42,1.35,7.12,2,12.1,3.61"/><path d="M38.82,25.43c0.3,0.55,0.37,2.36,0,2.96c-5.75,9.33-16.34,22.26-24.25,30.18c-1.81,1.82,0.45,2.86,1.63,2.49c4.95-1.54,15.71-4.3,22.07-5.78"/><path d="M33,47.75c3.26,2.47,7.43,10.14,8.25,13.98"/><path d="M26.89,61.12c0.07,0.36,0.98,1.84,0.98,4.09c0,15.29-0.2,29.79-0.2,33.46"/><path d="M18.62,71.85c0.14,0.88,0.11,2.62-0.14,3.25c-1.62,4.12-5.68,12.05-7.98,15.58"/><path d="M35.68,69.79c3.28,3.6,5.81,11.95,6.57,15.21"/><path d="M52.69,16.34c8.72-0.85,28.9-2.5,33.14-2.83c1.55-0.12,2.55,1.22,2.26,1.92c-1.06,2.55-1.84,7.33-2.84,9.07"/><path d="M53.75,28.36c5.2-0.49,23.54-2.15,29.52-2.56c0.94-0.06,1.5,0.09,1.98,0.18"/><path d="M50.5,14.71c1.14,0.42,1.57,1.95,1.57,3.2c0,1.25-0.14,34.11-0.14,36.06s0.39,3.08,2.5,2.11C59,54,65.86,51.09,67,50.25"/><path d="M52.5,39.5c8.05-0.81,28.82-2.66,38.02-4.24c1.02-0.18,1.68,0.1,2.2,0.21"/><path d="M69.75,28.75c0.3,0.39,1.3,1.97,1.48,2.7c3.02,12.3,10.02,22.8,20.74,28.78c4.68,2.61,4.27-0.98,3.75-4.07"/><path d="M52.46,64.94c0.51,0.82,1.02,1.72,1.02,2.81s1.46,28.91,1.62,30"/><path d="M54.44,66.32c2.2-0.13,25.91-3.17,27.92-3.33c1.67-0.13,3.24,1.95,3.11,2.72c-0.26,1.57-1.52,30.73-1.52,31.51"/><path d="M55.33,79.98c2.97,0,25.36-2.81,28.72-2.81"/><path d="M55.19,94.31c6.06-0.56,20.31-1.56,27.85-2.04"/></svg>