<svg><path d="M27.96,13c0.35,1.4,0.66,2.59-0.18,3.97c-3.68,6.07-10.3,15.94-13.8,19.21c-0.72,0.67-0.69,3.24,0,3.5c3.67,1.4,8.2,2.74,11.35,5.3"/><path d="M35.78,27.44c0.29,0.55,0.38,2.35,0,2.94C30.25,39,22.5,48.5,14.9,56.36c-1.74,1.8,0.43,2.83,1.57,2.47c4.75-1.53,15.17-3.61,21.28-5.08"/><path d="M34,46.25c2.47,2.21,6.38,9.07,7,12.5"/><path d="M26.86,57.01c0.08,0.29,1.09,1.48,1.17,3.28c0.37,8.64-0.24,34.27-0.24,37.21"/><path d="M18.73,69.25c0.16,0.85,0.14,2.54-0.16,3.15C16.62,76.39,11.75,84.08,9,87.5"/><path d="M35.75,67.75c2.88,3.13,5.08,10.41,5.75,13.25"/><path d="M42.25,28.78c1.46,0.33,4.16,0.51,5.62,0.33C61.25,27.5,73.5,26,91.12,24.63c2.43-0.19,4.13,0.12,5.63,0.83"/><path d="M64.49,13.5c0.39,0.3,1.12,1.83,1.2,2.42c0.08,0.59-0.18,22.42-0.26,26.12"/><path d="M79.8,11.5c0.67,0.31,1.08,1.41,1.21,2.03c0.13,0.63-1.29,18.35-1.68,24.92"/><path d="M67.54,39.89c2.48,0,12.84-1.25,14.24-1.25"/><path d="M50.75,15.82c0.67,0.31,1.08,2.41,1.21,3.03s0,19.83-0.48,27.02c-0.15,2.35-0.24,4.12,2.32,3.91c10.87-0.88,21.19-2.04,31.91-2.35c2.02-0.06,3.71,0.13,4.49,0.28"/><path d="M42.99,65.87c1.69,0.68,3.61,0.83,5.55,0.68c10.21-0.8,27.32-2.25,42.29-3.55c1.93-0.17,3.14,0.11,5.07,0.59"/><path d="M66.28,53.25c1.03,0.42,1.86,1.86,1.86,2.72c0,8.79,0,38.55-0.21,43.78"/><path d="M67.85,65.73C62.92,74.71,49.7,88.42,39.44,93.5"/><path d="M68.43,66.34c3.46,3.31,19.73,19.9,23.49,23.15c1.27,1.1,2.37,1.57,3.64,1.89"/></svg>