<svg><path d="M27.13,14.92c0.34,1.34,0.36,2.34-0.17,3.8c-2.33,6.45-5.57,10.24-10.05,15.47c-1.06,1.24-0.94,2.91,0.25,3.35c3.6,1.34,6.6,2.95,9.47,4.81"/><path d="M37.8,25.68c0.62,1.19,0.23,2.71-0.41,3.77c-5.75,9.56-13.27,20.18-21.07,28.26c-1.83,1.89-0.7,3.29,1.65,2.59c5.03-1.5,14.87-4.49,21.29-6.03"/><path d="M36,47.12c2.21,2.05,5.7,8.42,6.25,11.61"/><path d="M29.14,59.87c0.07,0.36,0.98,1.84,0.98,4.09c0,8.86,0.02,18.33-0.04,25.29c-0.02,2.7-0.04,5.06-0.04,6.92"/><path d="M20.35,70.1c0.27,1.28,0.13,2.54-0.16,3.22c-1.87,4.39-6.55,13.1-9.2,16.87"/><path d="M37.88,69c3.02,3.66,5.34,12.16,6.05,15.47"/><path d="M67.02,12.84c1.07,1.07,1.41,2.13,1.41,4.21c0,3.29,0-1.56,0,7.38"/><path d="M48.79,26.67c1.85,0.64,4.11,0.38,5.99,0.16c7.2-0.86,21.97-2.97,29.86-3.73c2.15-0.21,4.3-0.2,6.43,0.24"/><path d="M57.75,30.5c2.41,3.7,3.94,8.16,4.16,10.6"/><path d="M80.42,26.62c0.2,0.75,0.24,1.54,0.09,1.88c-1.77,4.21-4.05,9.64-5.15,11.56"/><path d="M49.07,43.35c-0.06,3.54-1.45,12.78-1.95,14.89"/><path d="M49.82,45.83c8.31-1.33,29.49-4.92,40.41-4.92c7.43,0,2.35,4.49-0.43,7.42"/><path d="M54.27,60.28c0.91,0.91,1.19,1.97,1.19,3.46c0,2.84-0.07,10.75-0.07,17.25c0,2.76,0.02,4.81-0.01,6.01"/><path d="M55.85,61.74c2.4-0.19,22.45-3.2,28.42-3.96c2.93-0.38,4.32,0.97,4.32,4c0,6.92,0,12.13-0.57,17.85c-0.51,5.2-1.85,6.78-5.04,1.92"/><path d="M69.57,48.01c0.83,0.83,1.19,2.12,1.19,3.46c0,3.46,0.07,28.73,0.09,40.78c0.01,3.27,0.01,5.58,0.01,6.25"/></svg>