<svg><path d="M25.02,15c0.3,1.35,0.31,2.35-0.15,3.82c-2.02,6.49-7.34,14.89-11.28,20.07c-0.55,0.72-0.59,3.12,0,3.37c3.12,1.35,6.9,1.62,9.57,4.09"/><path d="M33.77,28.18c0.25,0.52,0.32,2.21,0,2.77c-4.96,8.73-13.22,19.88-20.04,27.29c-1.56,1.7,0.39,2.67,1.41,2.33c4.27-1.45,13.13-3.68,18.62-5.06"/><path d="M28.25,47.25c3.26,2.38,8.43,9.79,9.25,13.5"/><path d="M24.89,60.62c0.07,0.34,0.91,1.74,0.98,3.85c0.31,10.15-0.2,27.08-0.2,30.53"/><path d="M17.26,68.75c0.15,0.94,0.12,2.78-0.15,3.45C15.36,76.57,10.98,85,8.5,88.75"/><path d="M31.75,67.25c3.37,3.25,5.96,10.8,6.75,13.75"/><path d="M39.25,20.98c0.43,0.16,1.21,0.19,1.63,0.16c5.86-0.42,14.87-1.68,22.02-1.88c0.71-0.02,1.14,0.07,1.49,0.15"/><path d="M49.81,24c0.25,0.45,0.33,1.85,0.15,2.37c-2.16,6.04-5.63,9.98-8.61,15.8c-0.96,1.88-1.03,3.14,0.51,2.59c3.6-1.29,12.03-4.74,17.7-6.88"/><path d="M56.25,33c2.47,1.98,6.38,8.16,7,11.25"/><path d="M40.25,64.18c0.76,0.08,2.25,0.18,2.67,0.16c4.87-0.24,12.36-1.97,16.85-2.51c0.69-0.08,2.18,0.08,2.53,0.16"/><path d="M51.18,45.77c0.06,0.4,0.86,2.1,0.86,4.67c0,12.88,0.03,26.47,0.03,30.66"/><path d="M40,87.3c0.9,0.81,2.48,0.58,3.19,0.12c7.15-4.64,13.25-7.79,23.07-14.22"/><path d="M76.49,15.39c0.04,0.89,0.19,2.33-0.07,3.57c-1.89,8.98-6.13,24.2-12.67,35.04"/><path d="M75.5,35.61c0.94,0.19,2.69,0,3.2-0.03c5.28-0.31,9.42-1.63,14.91-2.46c0.9-0.14,1.46-0.01,1.7,0.05"/><path d="M86.16,40.76c0.48,1.29,0.75,2.22,0.24,4.58c-4.59,21.47-13.32,39.32-29.65,47.91"/><path d="M69.19,52.48c0.95,0,1.51,0.99,2.27,2.34C76.58,64,86,81.73,92.85,90.43c1.26,1.6,2.59,2.67,3.65,2.82"/></svg>