<svg><path d="M25.79,13.75c0.3,1.32,0.31,2.29-0.15,3.73c-2.02,6.33-7.35,14.07-11.3,19.13c-0.55,0.7-0.59,3.04,0,3.29c3.12,1.32,6.73,2.69,9.41,5.1"/><path d="M34.96,25.18c0.27,0.57,0.33,2.44,0,3.07C29.78,37.91,21.13,49.77,14,57.98c-1.63,1.88,0.41,2.96,1.47,2.58c4.46-1.6,15.06-4.46,20.79-5.99"/><path d="M31.5,45.75c3.18,2.6,8.21,10.7,9,14.75"/><path d="M27.21,60.12c0.06,0.36,0.8,1.85,0.85,4.09C28.33,75,27.89,94.5,27.89,98.17"/><path d="M19.01,70.25c0.14,0.88,0.12,2.6-0.14,3.22c-1.7,4.08-5.96,11.95-8.37,15.46"/><path d="M35.25,68.5c2.37,3.66,4.2,12.18,4.75,15.5"/><path d="M45.25,19.5c0.5,1.49,1.23,2.63,1.23,4.57c0,1.94-0.17,59.25,0,61.2"/><path d="M47.07,21.3c1.39-0.02,10.55-1.59,11.82-1.59c1.61,0,2.8,1.59,2.8,3.34c0,6.45-0.49,47.33-0.49,62.04"/><path d="M47,42.08c3.64-0.24,10.58-0.81,13.53-0.69"/><path d="M47.5,60.97c3.44-0.08,8.5-0.38,13.03-0.4"/><path d="M47.5,82.94c2.93-0.16,7.55-0.9,11.25-0.88"/><path d="M79.5,13.39c0.08,0.31,1.65,1.62,1.73,3.59c0.36,9.46-0.23,36.01-0.23,39.23c0,8.22-5.53,0.49-6.89-0.32"/><path d="M73.25,29.25c0.02,0.52,0.08,1.36-0.04,2.08c-0.85,5.18-3.88,14.59-6.78,19.36"/><path d="M88.7,28.52c3.49,3.75,8.18,13.39,9.05,19.23"/><path d="M92.81,51.25c0.1,1.02,0.37,2.72-0.2,4.1c-5.04,12.15-17.36,30.9-35.55,39.26"/></svg>