<svg><path d="M25.68,11.67c0.31,1.35,0.32,2.35-0.15,3.83c-2.09,6.5-6.59,12.92-10.68,18.12c-0.56,0.72-0.61,3.13,0,3.38c3.23,1.35,7.17,2.13,9.94,4.61"/><path d="M36.55,23.43c0.3,0.58,0.44,2.5,0,3.09C28.75,37,23.06,46.19,15.07,54.46c-1.83,1.89,0.46,2.98,1.65,2.59c5-1.61,12.85-2.51,19.28-4.05"/><path d="M32.5,45.75c2.29,2.2,5.93,9.05,6.5,12.48"/><path d="M26.39,58.12c0.07,0.36,0.91,1.85,0.98,4.09c0.31,10.79-0.2,30.29-0.2,33.96"/><path d="M17.61,68.85c0.15,0.98,0.13,2.9-0.15,3.6C15.63,77,11.08,85.77,8.5,89.68"/><path d="M33.68,66.04c3.37,3.18,5.96,10.56,6.74,13.44"/><path d="M81.25,12.25c0.02,0.31,0.04,0.81-0.04,1.26c-0.5,2.65-3.58,8.94-7.46,12.49"/><path d="M66.92,27.25c0.49,0.48,0.79,2.14,0.89,3.09c0.1,0.95,0,44.48-0.1,50.41"/><path d="M68.5,29.81c6.67-1.39,19.24-2.82,22.67-3.29c1.26-0.17,2.01,1.73,1.83,2.74c-0.75,4.18-1.59,7.28-3.19,13.3"/><path d="M67.97,45.57c9.98-0.8,18.57-1.88,23.28-2.17"/><path d="M67.92,59.24c7.08-0.74,19.84-1.82,23.2-2.3c1.23-0.17,1.97,1.78,1.8,2.83c-0.73,4.31-2.06,9.01-3.62,15.22"/><path d="M68.13,77.15c3.66-0.37,18.97-1.4,23.62-1.77"/><path d="M45.71,15.5c3.89,1.54,9.04,5.25,11.04,8.25"/><path d="M44.25,35c3.35,1.24,8.66,5.08,9.5,7"/><path d="M44.25,55.5c1.82,0.88,3.04,1.42,3.85,1.2c0.81-0.22,6.67-2.51,7.88-2.96c1.22-0.44,2.54,0.11,1.73,1.43c-0.81,1.33-4.59,8.47-5.2,9.58c-0.61,1.11-0.96,2.95,0.25,4.5c1.21,1.55,1.97,2.97,3,4c1.5,1.5,1.71,3.64,0.5,4.75c-1.21,1.11-9.29,6.81-10.5,7.25"/><path d="M42.16,86.28c2.08-0.4,6.25-1.4,9.38-0.6c3.12,0.8,20.89,5.37,23.96,6.4c8.34,2.8,14.76,2.8,21.01,1.4"/></svg>