<svg><path d="M26.88,14.42c0.34,1.34,0.06,2.18-0.67,3.55c-2.95,5.53-7.08,11.9-11.8,17.72c-0.6,0.74-0.95,2.28,0.5,2.85c3.35,1.33,5.22,1.83,8.97,4.06"/><path d="M36.05,24.43c0.32,1.2,0.17,2.24-0.25,2.84c-6.55,9.36-14.05,20.86-21.98,29.94c-1.73,1.99-0.57,3.04,1.65,2.34c5.01-1.57,13.28-4.43,19.79-6.28"/><path d="M32.38,46.75c2.34,2.11,6.04,8.69,6.62,11.98"/><path d="M25.64,59.12c0.75,0.75,0.98,1.88,0.98,3.59c0,9.14-0.01,20.61-0.07,27.37C26.52,93.33,26.5,95.8,26.5,97"/><path d="M17.13,72.85c0.11,0.78-0.16,1.81-0.36,2.36c-1.28,3.62-4.47,10.61-6.28,13.72"/><path d="M34.55,68.04c2.43,3,4.3,9.97,4.87,12.69"/><path d="M47.33,16.5c0.83,1.04,1.06,1.83,1.28,3.13c1.12,6.46,1.88,11.79,2.77,19.07c0.2,1.65,0.39,3.26,0.56,4.76"/><path d="M49.47,17.61C61.76,16.46,74.88,15.5,85,14.79c3.38-0.24,4.75,1.21,4.42,3.66c-0.4,2.98-1.83,11.78-3.06,17.55c-0.33,1.55-0.65,2.88-0.93,3.83"/><path d="M51.26,28.69C60,28,80.75,26.25,86.99,26.26"/><path d="M52.82,40.46c9.68-1.09,19.43-1.59,32.1-2.09"/><path d="M45.83,51.88c0.96,0.96,1.19,1.93,1.34,2.99c0.84,6.01,1.51,13.02,2.28,20.89c0.17,1.72,0.33,3.39,0.5,4.95"/><path d="M47.97,53.59C61.25,52,74.88,51,88,50.04c3.38-0.25,4.75,1.32,4.42,3.98c-0.51,4.15-1.68,11.96-2.94,19.28c-0.26,1.54-0.53,3.06-0.8,4.51"/><path d="M49.51,65.42c9.36-1.17,34.99-2.91,41.23-2.9"/><path d="M50.57,78.72c9.68-0.85,24.43-2.1,37.35-2.8"/><path d="M66.49,18.39c1.06,1.06,1.41,2.61,1.41,3.78c0,6.98,0.05,57.01,0.05,61.76c0,8.7,1.67,9.83,14.45,9.83c14.22,0,15.48-1.39,15.48-7.78"/></svg>