<svg><path d="M25.63,12.92c0.34,1.34,0.42,2.36-0.17,3.8c-1.7,4.15-4.7,10.28-9.05,16.47c-0.55,0.78-0.43,2.35,0.25,2.6c3.6,1.34,6.1,2.33,9.22,4.31"/><path d="M37.3,22.93c0.32,0.95,0.32,2.2-0.25,3.09c-6.11,9.54-13.3,19.48-21.23,28.44c-1.75,1.97-0.57,3.42,1.4,2.84c5.04-1.46,12.53-3.68,19.79-5.78"/><path d="M33.88,45.13c2.43,1.96,6.27,8.05,6.87,11.1"/><path d="M26.39,58.37c0.81,0.81,1.23,2.01,1.23,3.59c0,8.46-0.22,20.06-0.21,27.05c0.01,2.75,0.01,5.06,0.01,6.67"/><path d="M17.37,67.85c0.38,1.15,0.5,2.4,0.13,3.68c-1.37,4.69-4.91,13.9-7,17.9"/><path d="M35.68,66.54c2.12,3.65,4.07,11.46,4.24,15.44"/><path d="M51.87,16.75c1.88,0.38,3.06,0.48,4.95,0.25c8.3-1,12.68-1.75,19.91-2.5c2.67-0.28,4.02,1.12,3.63,3.5c-0.78,4.72-2.36,12.25-3.8,19.75"/><path d="M52.5,28.96c1.99,0.34,3.34,0.39,5.37,0.1c9.75-1.43,15.04-2.44,19.22-2.65"/><path d="M41.56,41.74c2.25,0.87,5.17,0.37,7.45,0.06c12.48-1.68,27.48-3.43,39.85-4.6c2.39-0.23,4.85-0.37,7.18,0.18"/><path d="M66.69,42.95c0.15,0.99-0.17,1.96-0.75,2.68C63,49.25,55.91,55.08,45.91,59.09"/><path d="M61.24,51.57c7.26,4.68,14.66,25.51,8.7,42.3c-2.54,7.16-6.59,0.85-7.54,0.04"/><path d="M63.05,58.69c0.14,0.98-0.26,1.92-0.9,2.65c-2.65,3.03-8.4,8.03-17.1,12.68"/><path d="M66.97,67.46c0.14,1.21-0.18,2.32-0.82,3.36C63,75.88,54.83,84.64,42.45,90.8"/><path d="M86.89,48.44c0.11,0.83-0.25,1.55-0.75,2.18c-2.24,2.83-6.84,6.31-15.48,10.94"/><path d="M71.41,62.64c2.84,3.17,13.43,15.81,19.17,22.4c1.92,2.21,4.05,3.96,6.02,5.35"/></svg>