<svg><path d="M26.24,13.5c0.34,1.32,0.35,2.29-0.17,3.73c-2.31,6.33-6.9,14.57-11.42,19.63c-0.63,0.7-0.68,3.04,0,3.29c3.57,1.32,7.04,2.55,10.1,4.96"/><path d="M36.05,27.11c0.27,0.52,0.34,2.21,0,2.77c-5.32,8.74-15.21,20.92-22.53,28.35c-1.68,1.7,0.42,2.68,1.51,2.33c4.58-1.45,14.97-4.06,23.36-6.42"/><path d="M32.75,46.5c2.82,2.34,7.29,9.61,8,13.25"/><path d="M26.05,61.62c0.06,0.34,0.85,1.78,0.91,3.95c0.29,10.42-0.19,27.8-0.19,31.35"/><path d="M17.61,70.85c0.15,0.91,0.12,2.7-0.15,3.35c-1.77,4.24-6.2,12.42-8.71,16.05"/><path d="M33.5,68.75c2.87,2.9,5.08,9.62,5.75,12.25"/><path d="M50.25,30.75c0.04,1.42-0.04,3.65-0.08,5.69c-0.33,19.04-3.35,41.63-11.36,53.27"/><path d="M45.87,29.18c1.2,0.28,3.39,0.35,4.59,0.28c6.64-0.38,28.52-2.47,39.12-3.24c1.98-0.15,3.19,0.13,4.19,0.28"/><path d="M52.25,42.61c0.94,0.36,2.66,0.5,3.59,0.36c3.31-0.49,8.44-1.54,11.47-1.86c1.55-0.17,2.89-0.3,3.67-0.12"/><path d="M60.64,48.15c0.23,0.72,0.65,1.89,0.53,2.92c-0.59,5.09-3.79,14.07-6.38,20.02c-0.53,1.22,0.22,1.77,0.53,1.81c4.48,0.6,11.75,3.7,14.93,9.85"/><path d="M69.77,54.71c0.06,0.84,0.11,2.87-0.12,4.08c-1.85,9.79-7.18,23.68-20.4,30.97"/><path d="M52.87,59.13c0.45,0.76,0.62,1.47,1.82,1.29C56,60.23,66.22,57.59,74,56"/><path d="M72,13.25c0.96,1.71,1.4,2.17,1.56,5.85c1.23,28.77,8.52,60.15,19.85,71.53c3.74,3.76,3.19,1.36,2.71-6.2"/><path d="M91.5,42c0.07,1.16,0.15,2.99-0.15,4.65C89.59,56.46,80.25,81,66,92"/><path d="M80.87,11.25c2.73,1.7,7.09,5.59,8.36,8.5"/></svg>