<svg><path d="M28.63,15.17c0.34,1.34,0.47,2.38-0.17,3.8c-2.83,6.28-5.95,11.78-10.55,17.97c-0.57,0.76-0.78,2.31,0.5,2.85c3.54,1.51,5.6,2.33,8.97,4.06"/><path d="M39.8,26.68c0.2,1.07,0.07,1.95-0.5,2.84c-6.11,9.54-14.99,20.43-22.98,28.69c-1.83,1.89,0.43,2.89,1.65,2.59c6.4-1.55,15.37-3.99,21.79-5.53"/><path d="M36.62,49c2.34,2.2,6.54,9.05,7.12,12.48"/><path d="M29.14,61.12c1,1,0.98,2.26,0.98,3.84c0,7.63-0.1,19.86-0.1,26.79c0,1.75-0.02,3.92-0.02,5"/><path d="M21.35,72.1c0.16,0.94-0.12,2.04-0.41,2.72C19.08,79.2,15.25,86.5,12,91.18"/><path d="M37.5,70.25c2.84,2.89,5.01,9.61,5.67,12.22"/><path d="M49.38,24.68c2.08,0.73,4.73,0.37,6.88,0.23c7.42-0.48,21.42-2.08,28.14-2.87c1.98-0.23,3.69-0.3,5.65,0.11"/><path d="M49.7,34.33c0.99,0.99,1.3,2.17,1.58,3.41c0.56,2.47,1.81,10.45,2.5,16.73c0.23,2.06,0.35,2.66,0.62,5.09"/><path d="M51.87,36.42c6.22-1.17,24.51-4.04,33.88-4.93c3.57-0.34,5.59,1.08,4.95,5.13c-0.4,2.54-0.96,7.24-2.66,14.89c-0.34,1.56-0.74,3.22-1.18,5"/><path d="M53.87,46.09c9.38-1.34,28.28-3.1,34.74-3.51"/><path d="M55.59,57.63c6.91-1,24.07-2.85,30.7-3.13"/><path d="M68.86,12.51c1.06,1.06,1.3,2.37,1.3,3.92c0,8.82,0.06,31.44,0.06,38.81"/><path d="M86.39,11.5c3.03,1.29,7.83,5.29,8.58,7.3"/><path d="M46.87,70.23c2.26,0.39,4.58,0.16,6.75-0.07c11.05-1.19,26.67-2.84,38.63-3.61c2.29-0.15,4.44-0.3,6.68,0.28"/><path d="M79.16,57.98c0.87,0.87,1.35,2.15,1.35,3.71c0,11.88,0.08,26.56,0.08,29.44c0,7.01-5.09,1.04-6.58,0.15"/><path d="M57.46,76.58c2.36,1.55,6.1,6.38,6.69,8.79"/></svg>