<svg><path d="M25.9,14.25c0,1.25-0.11,1.89-0.66,3.19C22.5,24,19.5,28.75,16.17,34.24c-0.95,2.06-0.57,3.22,1.12,3.47c3.13,1.23,5.33,2.3,8.52,4.29"/><path d="M37.53,24.94c-0.04,1.46-0.49,2.74-1.34,3.85c-5.35,8.28-12.69,17.46-20.45,26.45c-1.98,2.29-0.93,3.86,2.23,2.84c4.75-1.53,11.16-3.46,18.28-5.71"/><path d="M34,45.75c2.47,2.21,6.38,9.07,7,12.5"/><path d="M27.08,57.76c0.77,0.77,1.03,1.74,1.03,3.28c0,6.02-0.05,18.61-0.09,26.84C28.01,91.47,28,94.23,28,95.25"/><path d="M18.25,68.25c0.22,1.32,0.14,2.6-0.29,3.81C15.88,77.88,14.02,82.07,11.5,87"/><path d="M36,67.75c3.12,3.55,5.02,11.29,5.75,14.5"/><path d="M69.87,12.23c0.95,0.95,1.22,1.89,1.22,3.18c0,3.41-0.08,4.71-0.08,8.38"/><path d="M47.64,26.32c2.62,0.46,5.25,0.51,7.89,0.13c8.34-1.03,23.48-2.88,32.6-3.55c2.39-0.28,4.79-0.27,7.18,0.03"/><path d="M55.8,36.39c0.83,0.56,1.32,1.35,1.46,2.35c0.64,2.03,1.12,4.96,1.58,8.01c0.25,1.63,0.5,3.29,0.76,4.86"/><path d="M57.9,37.38c6.81-1.35,17.81-2.83,23.21-3.42c2.88-0.31,4.67,0.62,3.85,3.69c-0.73,2.78-1.21,4.56-2.45,8.69"/><path d="M60.54,49.54c5.37-0.64,13.33-1.36,19.47-1.92c1.4-0.13,2.71-0.25,3.87-0.36"/><path d="M48,60.69c1.22,1.22,1.78,2.52,1.86,4.59c0.2,5.43,0.52,12.8,0.85,20.72c0.12,2.79,0.24,5.65,0.35,8.51"/><path d="M50.08,61.94c6.04-0.4,32.41-2.96,39.45-3.75c5.16-0.58,6.69,0.71,6.03,6.9c-0.73,6.8-2.09,16.66-3.57,23.78c-1.96,9.43-3.99,8.63-7.48,3.78"/><path d="M60.21,71.25c0.71,0.71,1.03,1.5,1.13,2.14c0.45,2.91,0.77,4.65,1.21,7.14c0.2,1.13,0.43,2.42,0.7,4.05"/><path d="M62.36,72.17c4.52-0.65,11.23-1.54,14.54-2.05c2.39-0.36,3.91,0.76,3.22,3.29c-0.99,3.62-1.67,6.01-2.2,8"/><path d="M64.38,83.36c2.77-0.32,6.67-0.65,11-1.09c1.36-0.14,2.76-0.29,4.18-0.45"/></svg>