<svg><path d="M17.91,14.07c0.6,1.05,0.99,2.63,1.19,3.65c0.2,1.02,0.17,28.62-0.46,37.16c-0.9,12.15-0.21,20.25-8.14,38.37"/><path d="M19.7,15.87c1.93-0.06,11.18-1.54,12.61-1.68c2.58-0.25,3.22,1.42,3.22,2.9c0,3.51-0.04,49.27-0.04,69.22c0,13.72-5.43,3.87-7.08,2.22"/><path d="M19.5,37.87c4.02-0.16,11.37-0.71,14.9-0.72"/><path d="M19.39,59.7c3.19-0.07,10.59-0.66,14.92-1.01"/><path d="M55.5,13.75c0.04,0.34,0.16,0.92-0.07,1.37c-1.32,2.6-7.55,10.04-13.18,13.13"/><path d="M77.25,12.5c5.58,2.29,14.42,9.41,15.82,12.97"/><path d="M49,27.54c0.82,0.33,2.33,0.42,3.15,0.33c5.24-0.56,24.44-3.28,29.52-2.9c1.36,0.1,2.19,0.16,2.88,0.32"/><path d="M42.1,40.75c1.36,0.52,3.87,0.7,5.23,0.52c7.34-0.95,29.69-2.38,44.45-3.08c2.27-0.11,3.63,0.25,4.77,0.51"/><path d="M65.75,11c0,0.87,0.21,1.71,0.18,3.28C65.76,23.87,55.5,47,41.25,57.25"/><path d="M68.94,26.31c3.34,5.06,17.76,21.58,21.45,25.29c1.25,1.26,2.86,1.79,4.11,2.15"/><path d="M65.13,44.5c0.29,0.7,0.05,2.3-0.65,3c-3.07,3.05-7.19,7.01-10.12,8.66c-0.6,0.34-0.58,1.63,0,1.76c3.07,0.7,6.44,1.88,9.07,3.17"/><path d="M77.49,48c0.32,0.45-0.08,2.42-0.5,2.9c-6.15,7.04-16.87,14.8-25.32,21.22c-1.94,1.47,0.48,2.31,1.74,2.02C58.7,72.88,78.21,70.2,85,69"/><path d="M77.83,61.1c4.03,2.53,10.41,10.42,11.42,14.36"/><path d="M67.57,72.87c0.05,0.2,0.68,1.03,0.73,2.28c0.23,6.02-0.15,21.79-0.15,23.84"/><path d="M56.8,80.98c0.23,0.63,0.2,1.88-0.24,2.33c-2.81,2.95-9.83,8.65-13.82,11.19"/><path d="M78.42,81.74C85.71,84.75,91.31,91.77,93,94.5"/></svg>