<svg><path d="M25.63,15.42c0.34,1.34,0.51,2.4-0.17,3.8c-2.95,6.03-5.02,9.47-9.55,15.22c-1.03,1.31-1.15,2.56,0,3.1c3.48,1.65,4.88,2.61,7.97,5.06"/><path d="M35.3,23.68c0.32,0.82,0.37,2.23-0.25,3.34C29.38,37.12,22.62,47,14.82,56.21c-1.7,2.01,0.46,2.98,1.65,2.59c5-1.61,12.37-3.99,18.79-5.53"/><path d="M32,46c2.38,2.03,6.15,8.33,6.75,11.48"/><path d="M25.64,59.12c0.86,0.88,1.48,2.63,1.48,4.59c0,5.65-0.06,17.49-0.08,24.79c-0.01,2.52-0.02,4.5-0.02,5.5"/><path d="M17.88,68.1c0.37,1.15,0.1,2.98-0.12,3.7c-1.4,4.68-4.26,12.83-6.89,17.71"/><path d="M32.93,68.04c2.12,3.24,3.75,10.75,4.24,13.69"/><path d="M53.73,17.2c0.07,0.81-0.23,1.8-0.61,2.49C51,23.64,46.5,29.75,40.32,35.24"/><path d="M55.36,36.03c0.08,1.21-0.15,2.35-0.6,3.47c-2.53,6.25-8.84,17.67-16.83,26.05"/><path d="M49.33,54.04c0.82,0.82,1.25,2.21,1.25,3.71c0,4.11,0,18.79-0.03,28.5c-0.01,4.46-0.03,7.87-0.05,8.75"/><path d="M63.49,21.52c2.31,2.35,5.98,9.68,6.56,13.34"/><path d="M87,16.64c0.62,0.86,0.46,2.17,0.15,3c-2.65,7.11-5.65,14.11-10.86,22.99"/><path d="M59.28,46.31c2.09,0.32,3.78,0.36,5.35,0.12c6.87-1.05,19.08-2.31,25.5-3.02c1.71-0.19,4-0.16,5.65,0.05"/><path d="M75.72,46.87c0.89,0.89,1.42,2.01,1.42,3.23c0,3.9-0.02,25.97-0.02,33.15"/><path d="M77.98,64.33c4.26-0.57,5.4-0.71,12.68-1.51c1.04-0.12,2.05,0.06,2.7,0.25"/><path d="M64.5,61.56c0.38,1.07,0.56,2.55,0.45,3.55c-0.7,6.14-2.95,17.14-9.03,26.22"/><path d="M62.87,75.85c3.77,2.1,17.3,10.56,24.67,14.71c1.37,0.77,5.21,2.56,7.71,3.44"/></svg>