<svg><path d="M29.15,11.67c0.36,1.42,0.38,2.47-0.18,4.01C26.5,22.5,21.5,29.75,16.68,35.19c-0.67,0.75-0.72,3.27,0,3.54c3.81,1.42,8.14,2.78,11.41,5.38"/><path d="M40.05,24.43c0.3,0.58,0.37,2.46,0,3.09c-5.8,9.73-14.99,21.68-22.98,29.94c-1.83,1.89,0.46,2.98,1.65,2.59c5-1.61,16.87-3.99,23.29-5.53"/><path d="M36.88,44.63c3.13,3.02,8.09,12.42,8.87,17.12"/><path d="M29.12,60.62c0.05,0.36,0.74,1.85,0.79,4.09c0.25,10.79-0.16,28.79-0.16,32.46"/><path d="M19.77,70c0.18,0.88,0.15,2.61-0.18,3.24c-2.1,4.1-7.37,12-10.35,15.51"/><path d="M38.68,68.29c2.75,3.59,4.85,11.93,5.49,15.19"/><path d="M53.83,14.15c0.25,0.44,0.85,1.73,0.9,2.3c0.52,5.8,2.23,15.23,2.94,23.75"/><path d="M55.17,15.91c7.31-0.96,20.92-3.08,26.38-3.88c2.01-0.3,3.1,0.97,2.93,3.29c-0.29,3.84-1.03,16.76-1.94,23.16"/><path d="M56.5,26.51c2.32-0.21,25.11-2.24,27.03-2.32"/><path d="M57.66,38c5.3-0.46,17.06-1.83,24.37-2.59"/><path d="M49.53,46.25c0.27,0.26,0.54,0.48,0.66,0.81c0.93,2.6,1.92,10.27,2.56,14.94"/><path d="M50.5,48.33c5.09-0.96,39.32-4.03,42.03-4.35c0.99-0.12,2.33,0.83,2.07,2.22c-0.55,2.89-2.41,9.85-3.89,13.97"/><path d="M64.17,47.25c0.16,1.52,0.6,8.95,0.75,10.66"/><path d="M78.32,45.41C78.16,48.15,77.7,53.95,77.4,57"/><path d="M52.86,60.76c3.13-0.27,33.34-1.95,37.64-2.36"/><path d="M55.03,69.34c1.33,0.27,1.5,0.68,4.15,0.27c2.66-0.41,20.54-3.5,22.37-3.91c1.83-0.41,3.13,1.61,1.77,3.46C72.34,84.1,60.26,93.37,44.02,99"/><path d="M53.5,73.5c3.84,0.6,22.59,16.59,35.95,23.15c2.08,1.02,3.6,1.7,5.53,2.04"/></svg>