<svg><path d="M27.13,12.5c0.33,1.38,0.62,2.55-0.17,3.91c-3.46,5.98-10.22,17.21-13.51,20.43c-0.67,0.66-0.65,3.19,0,3.45c3.46,1.38,7.24,2.18,10.21,4.71"/><path d="M36.77,26.69c0.3,0.58,0.39,2.48,0,3.1C31,38.89,22.86,50.42,14.93,58.72c-1.82,1.9,0.45,2.99,1.64,2.61c4.96-1.62,13.18-3.93,19.55-5.48"/><path d="M32.5,46.5c3,2.47,7.75,10.16,8.5,14"/><path d="M26.08,60.51c0.05,0.29,0.73,1.48,0.78,3.28C27.11,72.43,26.7,95.06,26.7,98"/><path d="M18.48,71c0.15,0.82,0.12,2.43-0.15,3.02c-1.75,3.83-6.12,11.2-8.59,14.48"/><path d="M35.25,70c3.12,3.43,5.52,11.39,6.25,14.5"/><path d="M56.75,15.25c0.04,0.41,0.19,1.15-0.08,1.66c-1.9,3.58-7.61,12.2-13.18,15.84"/><path d="M57.51,34.75c0.05,0.71,0.23,1.97-0.09,2.84C55.1,43.72,48.7,55.5,40.5,64.25"/><path d="M51.51,52.75c0.18,0.26,0.53,1.69,0.56,2.21c0.03,0.52,0,38.03-0.04,41.29"/><path d="M71.33,14.74c0,0.61,0.02,1.09-0.07,1.82c-0.47,3.79-4.93,16.45-8.75,22.06"/><path d="M70.35,27.21c1.99,1.58,4.54,5.8,5.51,9.79"/><path d="M87.69,15.24c0,0.63,0.02,1.13-0.07,1.89C87.1,21.06,82.2,34.18,78,40"/><path d="M85.62,27.21c3.3,2.03,7.52,7.42,9.12,12.54"/><path d="M77.28,46.75c0.3,0.43,1,2.34,1,3.21c0,5.89,0.28,27.43,0.21,32.83"/><path d="M94,60.08c-0.79,0-1.74,0.01-2.75,0.18c-4.75,0.81-11.16,1.8-11.94,1.8"/><path d="M66.12,53.81c0.05,0.99,0.39,2.54,0.26,3.99c-1.09,12.51-2.01,23.35-9.8,35.41"/><path d="M64.44,72.72c7.62,4.6,20.67,18.41,25.64,20.78c1.58,0.75,2.89,1.45,4.42,1.75"/></svg>