<svg><path d="M24.65,13.17c0.36,1.42,0.38,2.47-0.18,4.01C22,24,17.5,30.25,12.68,35.69c-0.67,0.75-0.72,3.27,0,3.54c3.81,1.42,7.64,3.28,10.91,5.88"/><path d="M34.55,24.93c0.3,0.58,0.37,2.46,0,3.09c-5.8,9.73-12.99,21.18-20.98,29.44c-1.83,1.89,0.46,2.98,1.65,2.59c5-1.61,16.87-4.49,23.29-6.03"/><path d="M34.13,46.13c2.69,2.31,6.95,9.5,7.62,13.1"/><path d="M27.39,59.62c0.07,0.36,0.91,1.85,0.98,4.09c0.31,10.79-0.2,29.79-0.2,33.46"/><path d="M19.6,69.85c0.16,0.94,0.13,2.79-0.16,3.47c-1.87,4.39-6.55,12.85-9.2,16.62"/><path d="M34.68,67.29c3.5,3.47,6.18,11.54,6.99,14.69"/><path d="M40,15.71c1.06,0.56,1.96,0.49,3.51,0.37c4.49-0.33,14.65-0.91,15.61-0.96c2.16-0.13,2.97,0.85,2.7,1.25c-0.26,0.38-0.41,23.5-0.41,28.81"/><path d="M53.52,18.89c0.04,0.34,0.07,0.87-0.07,1.35c-0.85,2.86-5.72,9.13-12.39,12.97"/><path d="M58.76,28.64c0.04,0.4,0.08,1.02-0.08,1.59c-0.99,3.36-6.64,10.72-14.38,15.23"/><path d="M69.55,15.25c1.04,0.56,1.92,0.41,3.46,0.37c4.24-0.12,14.17-1.34,15.12-1.4c2.13-0.13,2.93,0.85,2.66,1.24c-0.26,0.38-0.4,26.67-0.4,31.97"/><path d="M80.53,18.14c0.03,0.25,0.06,0.66-0.06,1.02c-0.68,2.16-4.58,6.9-9.91,9.8"/><path d="M87.02,26.14c0.04,0.3,0.08,0.76-0.07,1.19c-0.87,2.51-5.84,8.01-12.64,11.38"/><path d="M68.47,45c0.07,0.51,0.31,1.38-0.14,2.03c-3.16,4.62-10.54,12.37-24.62,19.47"/><path d="M67,49.25c4.06,3.18,21.54,13.57,26.01,15.9c1.52,0.79,3.47,1.13,4.99,1.35"/><path d="M69.56,59.25c0.06,0.38,0.22,1.03-0.12,1.52c-2.22,3.24-9.68,9.56-20.66,14"/><path d="M78.49,68.02c0.08,0.4,0.28,1.08-0.15,1.59c-2.9,3.48-12.38,10.44-26.6,15.24"/><path d="M85.76,77.38c0.11,0.48,0.23,1.22-0.21,1.91c-2.57,4.01-17.3,12.82-37.46,18.21"/></svg>