<svg><path d="M26.02,12.25c0.33,1.33,0.35,2.31-0.17,3.76c-2.27,6.38-8.27,13.18-12.71,18.28c-0.62,0.71-0.66,3.07,0,3.32c3.51,1.33,8.9,3.07,11.91,5.51"/><path d="M36.72,24.61c0.28,0.57,0.34,2.41,0,3.03c-5.36,9.55-14.32,21.76-21.7,29.87c-1.69,1.86,0.42,2.92,1.52,2.54c4.62-1.58,15.59-4.41,21.53-5.92"/><path d="M33.88,45.63c2.78,2.75,7.18,11.32,7.87,15.6"/><path d="M27.39,60.12c0.07,0.36,0.91,1.85,0.98,4.09C28.68,75,28.17,93,28.17,96.67"/><path d="M18.26,69.25c0.16,0.98,0.14,2.91-0.16,3.61c-1.95,4.57-6.83,13.39-9.6,17.32"/><path d="M35.75,67c2.96,3.72,5.23,12.35,5.92,15.72"/><path d="M69.16,12.42c0.35,0.34,1.17,1.77,1.17,3.21c0,0.69-0.05,11.37-0.12,15.61"/><path d="M51.38,19.89c0.46,0.41,0.98,2.14,0.91,2.97c-0.3,3.65-0.61,4.66-1.16,8.11c-0.29,1.83-0.23,3.68,0.91,3.42c4.08-0.91,33.85-5.25,39.59-5.48"/><path d="M91.92,16.8c0.5,0.36,1.07,2.65,1.01,3.36c-0.38,4.54-0.57,9.66-1.05,13.68"/><path d="M48.55,44.78c0.64,0.66,0.89,2.15,0.89,2.84c0,5.82,0.21,8.58,0.21,15.98c0,11.17-3.66,24.67-9.65,31.64"/><path d="M49.99,45.91c2.09-0.17,10.82-1.73,12.38-1.92c2.79-0.35,2.79,1.51,2.79,2.62c0,5.94-0.14,29.5-0.14,42.53c0,9.08-3.04,3.6-4.79,2.03"/><path d="M49.99,59.26c2.87-0.36,9.61-1.73,13.49-1.91"/><path d="M49.15,71.82c5.4-0.54,8.8-1.19,15.04-1.55"/><path d="M76.37,41.62c0.5,0.67,0.65,2.21,0.65,2.92c0,3.15,0.16,12.09,0.16,16.61c0,12.15-2.97,27.01-7.43,31.86"/><path d="M77.85,44.12c1.64-0.18,13.23-2.57,14.44-2.77c2.18-0.35,2.18,1.54,2.18,2.66c0,6.03-0.41,32.76-0.41,45.99c0,9.22-2.45,4.26-3.82,2.66"/><path d="M77.88,58.32c2.42-0.33,12.46-1.6,15.74-1.76"/><path d="M76.68,71.61c4.35-0.63,10.94-1.4,15.97-1.82"/></svg>