<svg><path d="M26.9,19.25c0.31,1.21,0.48,2.18-0.16,3.44c-2.99,5.93-7.99,12.93-11.07,16.79c-0.54,0.67-0.37,2.31,0.25,2.54c3.26,1.21,5.2,1.85,8.14,3.47"/><path d="M34.28,30.44c0.47,1.06,0.34,2.31-0.25,3.19c-5.71,8.5-11.41,16.12-19.13,24.98c-1.65,1.89-0.96,3.58,1.32,2.72c5.53-2.08,10.66-3.71,17.98-6.24"/><path d="M31.75,49.5c2.38,2.12,6.15,8.71,6.75,12"/><path d="M26.58,61.26c0.64,0.64,1.28,1.73,1.28,3.53c0,6.34-0.34,16.09-0.34,23.46c0,2.67-0.07,4.69-0.07,5.5"/><path d="M18.75,71.5c0.25,1,0.25,2-0.12,3.05C17.03,79.11,14.05,84.95,12,88"/><path d="M34.38,69.5c2.44,3.25,4.59,9.08,4.88,13.75"/><path d="M53.05,13.75c0.66,0.66,1.23,1.75,1.23,2.89c0,3.36-0.06,6.74-0.06,10.17"/><path d="M41.56,28.5c0.59,0.08,2.91,0.44,3.49,0.42c5.62-0.27,11.59-1.36,17.71-2.31c1.17-0.18,2.32-0.38,3.51-0.35"/><path d="M45.66,36c2.54,3.4,4.06,7.67,4.43,10.06"/><path d="M63.32,30.25c0.55,1,0.52,1.9,0.11,3c-1.93,5.25-3.65,9.79-4.77,12.5"/><path d="M38,49.53c2.12,0.35,4.26,0.52,6.63,0.24c16.12-1.9,30.12-4.4,44.24-5.53c2.16-0.17,5.38-0.24,7.38,0.25"/><path d="M45.69,60.59c0.67,0.67,1.06,1.79,1.06,3.02c0,0.67,0.02,14.77,0.04,21.77c0,2.24,0.01,3.75,0.01,3.85"/><path d="M47.28,61.82c4.22-0.69,12.97-2.57,16.42-3c1.64-0.21,2.3,0.31,2.3,2.09c0,0.89-0.01,15.38-0.02,22.22c0,1.71,0,2.95,0,3.37"/><path d="M47.59,73.92c4.28-0.67,12.66-1.92,17.54-2.25"/><path d="M48.03,86.43c4.47-0.68,12.31-1.48,16.9-1.78"/><path d="M71.99,12.25c1.07,1.79,1.71,2.28,1.74,6.15C74,54.12,82.57,84.45,95.01,95.46c4.23,3.75,4.37,0.16,3.33-7.17"/><path d="M91.25,54.15c0.12,1.67,0.1,3.23-0.58,4.77c-3.18,7.2-8.43,18.95-18.37,27.19"/><path d="M83.95,22.26c2.09,1.8,5.43,5.91,6.41,9"/></svg>