<svg><path d="M25.64,13.42c0.37,1.23,0.39,2.15-0.19,3.5c-2.55,5.93-6.77,12.75-11.75,17.49c-0.69,0.66-0.74,2.85,0,3.09c3.94,1.23,6.97,2.86,10.35,5.12"/><path d="M35.14,24.43c0.28,0.58,0.35,2.46,0,3.09c-5.46,9.73-14.08,22.18-21.61,30.44c-1.72,1.89,0.43,2.98,1.55,2.59c4.71-1.61,14.88-4.49,20.93-6.03"/><path d="M30.88,47.63c3.04,2.44,7.36,9.54,8.12,13.33"/><path d="M25.21,60.62c0.06,0.36,0.8,1.85,0.85,4.09c0.27,10.79-0.18,30.79-0.18,34.46"/><path d="M17.86,69.85c0.14,0.96,0.12,2.84-0.14,3.52C16,77.83,11.69,86.42,9.25,90.25"/><path d="M33.25,69c3.34,3.66,5.9,12.16,6.67,15.47"/><path d="M43.21,23.1c0.89,0.21,3.27,0.47,5.16,0.37c12.79-0.64,29.06-1.63,40.54-1.94c1.97-0.05,3.56-0.03,5.34,0.14"/><path d="M65.85,10.5c0.33,0.56,0.36,1.68,0.12,2.86c-3.04,14.93-9.5,28.87-22.22,37.89"/><path d="M72.18,22.92c4.77,6.13,15.89,21.74,20.65,25.84c1.62,1.39,2.18,1.6,2.92,1.73"/><path d="M43.77,32.83c2.57,1.26,6.65,5.18,7.29,7.13"/><path d="M90.03,27.64c0.02,0.18,0.04,0.48-0.04,0.74c-0.51,1.56-3.43,4.99-7.43,7.08"/><path d="M51.49,47.84c0.25,0.38,0.25,0.65,0.39,1.13c1.12,3.95,2.18,11.44,2.88,18.82"/><path d="M52.16,48.37c7.87-0.91,20.82-2.4,26.69-3.17c2.16-0.28,3.76,2.21,3.65,3.21c-0.41,3.65-1.36,11.61-2.35,17.71"/><path d="M53.78,56.61c2.62-0.33,25.66-2.75,27.82-2.89"/><path d="M55.17,66.01c5.63-0.43,17.3-1.75,25.08-2.46"/><path d="M66.38,67.87c0.08,0.38,1.23,1.96,1.23,4.36c0,4.53,0.25,13.99,0.25,17.9c0,11.87-5.04,3.19-6.51,2.2"/><path d="M53.76,74c0.04,0.44,0.08,1.14-0.07,1.77c-0.9,3.74-6.09,11.95-13.18,16.98"/><path d="M78.46,74.12C83.15,77.1,90.58,86.37,91.75,91"/></svg>