<svg><path d="M30.18,12.17c0.31,1.22,0.33,2.13-0.16,3.47c-2.13,5.88-9.25,13.64-13.41,18.34c-0.58,0.65-0.62,2.83,0,3.06c3.29,1.22,8.34,2.83,11.16,5.07"/><path d="M39.67,24.68c0.28,0.55,0.34,2.34,0,2.94c-5.35,9.26-15.78,21.6-23.15,29.47c-1.69,1.8,0.42,2.84,1.52,2.47c4.61-1.53,15.55-4.27,21.48-5.74"/><path d="M34.75,45.25c2.82,2.6,7.29,10.7,8,14.75"/><path d="M28.89,59.62c0.07,0.36,0.91,1.85,0.98,4.09c0.31,10.79-0.2,28.79-0.2,32.46"/><path d="M19.34,69.35c0.18,0.92,0.15,2.72-0.18,3.38c-2.12,4.28-7.41,12.53-10.42,16.2"/><path d="M36.18,66.54c3.03,3.89,5.36,12.93,6.07,16.46"/><path d="M46,15.14c0.23,0.28,1.42,1.91,1.52,2.26c0.78,2.79,2.2,9.09,2.73,14.1"/><path d="M48.96,16.36c9.5-1.09,41.31-3.02,44.19-3.38c1.05-0.13,2.48,0.94,2.2,2.5c-0.59,3.26-2.03,7.89-3.6,12.54"/><path d="M62.08,16.5c0.16,1.65,1.3,8.89,1.46,10.75"/><path d="M77.92,15.75c-0.13,2.93-0.79,9.7-1.05,11.5"/><path d="M51.4,29.25c6-0.34,30.14-2.41,40.64-2.68"/><path d="M51.82,40.7c0.89,0.26,2.51,0.33,3.39,0.26c11.36-0.89,22.17-2.6,33.61-2.83c1.47-0.03,2.36,0.12,3.09,0.25"/><path d="M70.04,32.5c0.08,0.35,1.26,1.81,1.26,4.03c0,14.4-0.14,9.85-0.14,13.47"/><path d="M47.38,52.3c1.24,0.4,3.51,0.53,4.74,0.4c14.13-1.45,20.34-2.7,42.18-3.42c2.06-0.07,3.3,0.19,4.33,0.39"/><path d="M59.16,53.98c1.74,1.72,4.51,7.08,4.94,9.75"/><path d="M82.72,53c0.01,0.24,0.03,0.63-0.03,0.98c-0.32,2.07-2.12,6.6-4.6,9.37"/><path d="M48.96,68.33c0.94,0.38,4.16,0.41,5.1,0.34c6.48-0.45,26.03-2.83,37.08-3.58c1.55-0.1,4.83,0.33,5.6,0.52"/><path d="M50.99,80.81c1.35,0.57,3.84,0.72,5.18,0.57c9.28-1.07,23.16-2.95,33.85-3.33c2.25-0.08,3.6,0.27,4.73,0.56"/><path d="M70.74,68.74c0.24,0.4,0.75,2.23,0.8,3.04c0.05,0.81-0.03,23.43-0.08,28.47"/></svg>