<svg><path d="M26.4,15.75c0.31,1.21,0.51,2.2-0.16,3.44C23,25.25,18.53,32.65,15.42,35.49c-0.64,0.58-0.62,2.81,0,3.04c3.26,1.21,6.84,3.24,9.64,5.47"/><path d="M36.53,26.19c0.29,0.55,0.38,2.35,0,2.94C31,37.75,21.75,50.25,14.15,58.11c-1.74,1.8,0.43,2.83,1.57,2.47c4.75-1.53,14.62-4.27,20.73-5.74"/><path d="M32.75,47.5c2.38,2.34,6.15,9.61,6.75,13.25"/><path d="M25.33,60.26c0.05,0.29,0.73,1.48,0.78,3.28c0.25,8.64-0.16,30.27-0.16,33.21"/><path d="M17.01,69.75c0.11,0.82,0.09,2.43-0.11,3.02c-1.3,3.83-4.56,11.2-6.4,14.48"/><path d="M33.5,68.25c2.25,2.96,3.98,9.82,4.5,12.5"/><path d="M68.75,12.13c0.54,0.38,1.7,2.85,1.8,3.61s0.06,2.62-0.05,7.37"/><path d="M44.8,25.19c1.17,0.42,3.3,0.49,4.47,0.42c12.14-0.7,29.65-3.89,41.41-4.44c1.94-0.09,3.11,0.2,4.08,0.41"/><path d="M49.43,25.83c0.03,1.59,0.07,4.1-0.06,6.38C48.59,45.65,50,77.25,38.51,92.76"/><path d="M57.6,31.54c0.21,0.3,0.71,1,0.83,1.38c0.95,3.09,2.34,10.9,2.92,16.66"/><path d="M59.08,33.55c8.61-1.28,20.17-3.2,26.13-3.73c2.19-0.2,3.22,0.73,3.2,2.68c-0.04,2.61-1.43,9.99-2.43,14.25"/><path d="M60.59,40.38c2.39-0.26,24.96-2.64,26.93-2.75"/><path d="M61.37,47.88c5.28-0.28,17.51-1.95,24.8-2.4"/><path d="M73.12,33.4c0.21,0.5,0.81,1.18,0.83,2.19C74.1,42.62,74,59.78,74,61.76"/><path d="M58.73,55.45c0.54,0.21,1.53,0.23,2.08,0.21c5.63-0.23,18.03-2.3,25-2.34c0.9-0.01,1.44,0.1,1.89,0.2"/><path d="M54.14,63.82c0.83,0.34,2.35,0.4,3.19,0.34c8.65-0.58,25.34-3.34,35.63-3.32c1.38,0,2.22,0.16,2.91,0.33"/><path d="M66.89,66.39c0.03,0.3,0.07,0.77-0.07,1.2c-0.84,2.54-5.25,8.6-12.22,11.53"/><path d="M82.08,63.52c0.32,0.36,0.58,0.78,0.6,1.32c0.09,2.45-0.23,4.82-0.23,6.49c0,3.88,3.89,3.44,7.73,3.44c4.04,0,6.71-0.5,7.27-0.78"/><path d="M57.3,83.54c0.6,0.29,1.7,0.37,2.3,0.29c7.72-0.99,21.19-2.59,28.97-2.84c1-0.03,1.6,0.14,2.1,0.28"/><path d="M74.34,74.35c0.07,0.22,0.98,1.16,0.98,2.58c0,4.3,0.16,9.36,0.16,16.72"/><path d="M51.23,94.94c0.92,0.41,2.59,0.5,3.51,0.41c9.33-0.86,31.54-2.45,41.68-2.99c1.52-0.08,2.44,0.2,3.2,0.4"/></svg>