<svg><path d="M27.49,15c0.38,1.2,0.4,2.09-0.19,3.39c-2.61,5.76-6.98,13.4-12.08,18c-0.71,0.64-0.76,2.77,0,3c4.03,1.2,7.7,2.27,11.16,4.47"/><path d="M36.48,28.69c0.27,0.5,0.34,2.14,0,2.68c-5.31,8.45-15.66,19.76-22.97,26.94c-1.67,1.65,0.42,2.59,1.51,2.25c4.57-1.4,15.43-3.9,21.3-5.24"/><path d="M32,48.75c2.56,2.29,6.61,9.43,7.25,13"/><path d="M25.89,60.62c0.07,0.34,0.91,1.78,0.98,3.95c0.31,10.42-0.2,27.8-0.2,31.35"/><path d="M18.62,70.6c0.14,0.85,0.11,2.53-0.14,3.13c-1.62,3.97-5.68,11.62-7.98,15.02"/><path d="M34.25,68.25c3.34,3.72,5.4,11.85,6.17,15.22"/><path d="M66.36,10.75c0.38,0.41,0.99,2.01,0.99,2.83c0,3.03-0.12,4.42-0.05,6.98"/><path d="M43.38,23c1.52,0.3,2.86,0.51,4.62,0.41c10.7-0.58,31.06-3.2,43.22-3.79c1.79-0.09,2.7,0.04,4.04,0.53"/><path d="M57,25.25c2.47,1.63,6.38,6.71,7,9.25"/><path d="M74.33,23.13c0.01,0.31,0.03,0.79-0.03,1.24c-0.34,2.61-2.3,8.33-4.97,11.84"/><path d="M66.38,39.25c0.5,0.35,0.86,0.76,0.9,1.93c0.21,5.58-0.01,13.54-0.01,15.45"/><path d="M43.7,38.37c0.35,0.21,1.1,0.18,1.4,0.11c2.49-0.58,11.48-1.61,12.86-1.82c0.9-0.14,1.19,0.63,1.1,1.59c-0.52,5.34-3.09,11.14-4.67,15.2c-0.83,2.13-2.29,0.95-2.89-0.71"/><path d="M50.25,38.5c0.02,0.35,0.06,0.91-0.05,1.41c-0.78,3.72-4.09,8.97-8.31,13.49"/><path d="M88.74,26.5c0.03,0.22,0.07,0.58-0.06,0.9C87.92,29.3,83.92,33.45,78,36"/><path d="M75.92,35.6c0.33,0.52,0.58,1.21,0.58,1.99c0,0.78-0.08,12.23-0.08,13.44c0,1.21,0.08,1.56,1.16,0.69c1.08-0.86,6.73-5.22,7.39-5.74"/><path d="M83.69,34.22c1.82,4.25,5.07,10.33,9.43,14.85c1.05,1.09,2.5,1.8,3.88,2.44"/><path d="M50.9,59.17c0.8,0.53,1.09,1.87,1.09,2.45c0,3.1-0.15,13.06-0.24,14.25c-0.53,6.83-2.57,16.1-10.5,21.88"/><path d="M52.14,66.82c3.52-0.37,32.49-2.01,34.98-2.17"/><path d="M51.91,78.37c3.19-0.11,31.08-1.45,35.34-1.62"/><path d="M86.51,55.18c0.78,0.5,1.06,2.41,1.06,3.39c0,3.9-0.02,35.16-0.1,37.96"/></svg>