<svg><path d="M26.28,15.25c0.28,1.33,0.29,2.31-0.14,3.76c-1.89,6.38-5.88,11.18-9.58,16.28c-0.51,0.71-0.55,3.07,0,3.32c2.92,1.33,7.91,2.57,10.41,5.01"/><path d="M36.96,25.18c0.27,0.57,0.33,2.41,0,3.02C31.78,37.73,23.13,50.92,16,59.01c-1.63,1.86,0.41,2.92,1.47,2.54c4.46-1.58,15.06-5.4,20.79-6.91"/><path d="M35.38,47.63c2.6,2.4,6.72,9.87,7.37,13.6"/><path d="M28.39,60.62c0.07,0.36,0.91,1.85,0.98,4.09c0.31,10.79-0.2,28.79-0.2,32.46"/><path d="M20.11,69.85c0.14,1,0.12,2.98-0.14,3.69c-1.72,4.68-6.03,13.7-8.47,17.71"/><path d="M35.93,67.54c3.25,4.06,5.74,13.5,6.49,17.19"/><path d="M45.81,21.78c0.65,0.14,1.85,0.16,2.49,0.14c4.45-0.17,10.7-0.67,16.62-1.33c1.07-0.12,1.73,0.07,2.27,0.14"/><path d="M43.75,31.62c0.56,0.1,1.6,0.09,2.15,0.1c4.1,0.03,14.33-2.1,19.39-2.06c0.94,0.01,1.5,0.05,1.96,0.09"/><path d="M57.51,13.25c0.25,0.49,0.34,0.95,0.34,1.89C57.91,29.65,53.5,40,43.37,45.25"/><path d="M56.29,32.38c4.02,1.7,8.4,7.01,9.96,9.62"/><path d="M72.68,19.9C73.29,20,74.4,20,75,20c5.86,0.06,11.11-0.81,17.27-1.27c1-0.07,1.62,0.05,2.13,0.1"/><path d="M71.62,29.34c0.6,0.07,1.7,0.1,2.29,0.07c7.5-0.29,15.14-1.42,20.95-1.86c0.98-0.07,1.59,0.04,2.09,0.07"/><path d="M82.95,13c0.22,0.45,0.3,0.88,0.3,1.76C83.25,29,80,36.25,70.55,42.75"/><path d="M81.31,30.17c3.1,3.5,8.85,9.73,12.02,11.18c1.07,0.49,1.25,0.83,1.67,0.9"/><path d="M53.59,48.62c0.53,0.78,0.8,2.36,0.8,3.41c0,1.04-0.35,30.66-0.35,31.18"/><path d="M54.74,50.59c2.96-0.12,26.51-2.87,29.21-2.85c1.56,0.01,2.33,1.17,2.33,2.11c-0.02,2.9-0.54,30.17-0.54,30.91"/><path d="M56.19,59.63c4.01,0,23.78-1.72,28.28-1.72"/><path d="M56.41,69.27C62.36,69.27,78.3,68,86,68"/><path d="M55.85,80.1c5.84,0,21.45-1.56,29-1.56"/><path d="M60.45,85.62c-0.2,1.13-0.22,1.54-1,2.41c-2.45,2.72-9.11,7.24-14.79,9.72"/><path d="M77.42,85.27C83.36,88.72,90.38,94.98,92,98"/></svg>