<svg><path d="M28.3,15.25c0.3,1.26,0.31,2.2-0.15,3.58c-2.02,6.07-8.85,14.04-12.81,18.89c-0.55,0.67-0.59,2.92,0,3.16c3.12,1.26,7.41,2.92,10.09,5.24"/><path d="M37.19,28.11c0.25,0.48,0.32,2.04,0,2.56C32.25,38.76,22.5,50.1,15.7,56.96c-1.56,1.57,0.39,2.48,1.4,2.15c4.25-1.34,14.36-3.73,19.83-5.01"/><path d="M33,47c3.09,2.38,7.98,9.78,8.75,13.48"/><path d="M27.89,59.25c0.07,0.35,0.91,1.82,0.98,4.03c0.31,10.63-0.2,28.35-0.2,31.97"/><path d="M19.86,69.35c0.14,0.92,0.12,2.73-0.14,3.39C18,77.03,13.69,85.32,11.25,89"/><path d="M34.68,67.54c3.87,3.89,6.84,12.91,7.74,16.44"/><path d="M44.13,17.61c0.38,0.14,0.6,1.47,0.68,1.78c0.07,0.31,0,23.63-0.08,25.6"/><path d="M42.75,15.99c0.74,0,1.69-0.04,2.77-0.1c5.1-0.31,13.31-1.24,18.53-1.54c0.95-0.06,1.52-0.1,2-0.06"/><path d="M54.5,15.75c0.38,0.15,0.6,0.73,0.68,1.06c0.08,0.33,0.05,4.56-0.03,6.68"/><path d="M45.04,26.29c5.94-0.84,13.77-1.78,17.9-2.36c1.67-0.23,2.13,0.36,1.9,1.18c-0.42,1.48-1.04,3.99-1.47,5.77"/><path d="M45.31,33.41C47.7,33.19,61.5,32.16,63.75,32"/><path d="M54.71,33.75c0.31,0.12,0.49,0.57,0.55,0.83c0.06,0.26,0.04,4.78-0.02,6.45"/><path d="M44.62,43.4c2.29-0.42,13.35-1.57,18.68-2.18c0.81-0.09,1.29-0.17,1.7-0.1"/><path d="M76.89,12.21c0.08,0.72-0.02,1.66-0.26,2.27c-1.56,3.92-3.54,7.24-7.13,12.02"/><path d="M75.4,18.92c0.51,0.02,1.51,0.13,2.41,0.11c4.2-0.12,11.25-0.79,14.04-0.91c0.78-0.03,1.51,0.04,1.9,0.08"/><path d="M73.68,26.02c0.49,0.03,1.44,0.17,2.3,0.14C80,26.01,86.75,25.15,89.4,25c0.75-0.04,1.45,0.05,1.82,0.11"/><path d="M70.95,33.07c0.15,0.15,0.31,0.27,0.37,0.45c0.52,1.44,1.15,5.4,1.5,7.98"/><path d="M71.64,32.82c2.86-0.71,21.26-2.6,22.78-2.84c0.56-0.09,1.31,0.61,1.16,1.64c-0.31,2.13-1.07,5.79-1.9,8.83"/><path d="M79.1,32.57c0.09,1.13,0.72,6.66,0.81,7.94"/><path d="M87.57,31.5c-0.09,1.88-0.54,6.81-0.72,7.96"/><path d="M72.9,41.62c1.76-0.31,18.27-2.23,20.68-2.7"/><path d="M53.69,48.8c0.14,0.58,0.35,1.48,0.35,2.26c0,0.78-0.17,24.07-0.12,24.85"/><path d="M54.46,50.04c1.36-0.1,26.88-2.43,28.12-2.55c1.04-0.1,1.77,0.43,1.77,1.88c0,2.25-0.48,24.54-0.48,25.14"/><path d="M54.75,58.02c1.84,0,26.31-2.29,28.37-2.29"/><path d="M54,65.14c2.63,0,25.55-2.28,28.96-2.28"/><path d="M55.06,73.98c2.57,0,24.58-1.02,27.9-1.02"/><path d="M60.76,77c0.04,0.42,0.1,1.1-0.09,1.7C59.56,82.29,53.72,90.86,44.5,95"/><path d="M71.9,76.4c0.47,0.6,0.85,1.32,0.87,2.25c0.13,4.15,0.03,3.66,0.03,9.75c0,6.09,3.96,5.85,11.79,5.85c9.89,0,12.21-2.02,12.21-9.05"/></svg>