<svg><path d="M24.68,12.17c0.31,1.36,0.33,2.37-0.16,3.86c-2.13,6.55-6.25,12.53-10.41,17.77c-0.58,0.72-0.62,3.15,0,3.41c3.29,1.36,7.34,3.16,10.16,5.65"/><path d="M34.64,21.93c0.28,0.62,0.35,2.63,0,3.3c-5.46,10.41-13.08,22.71-20.61,31.54c-1.72,2.03,0.43,3.19,1.55,2.77c4.71-1.72,14.38-3.8,20.43-5.45"/><path d="M31,46.5c2.65,2.47,6.75,9.75,7.5,14"/><path d="M24.21,59.75c0.06,0.38,0.8,1.94,0.85,4.3c0.27,11.34-0.18,30.26-0.18,34.12"/><path d="M16.63,69.1c0.11,0.85,0.1,2.53-0.11,3.13c-1.38,3.97-4.82,11.62-6.76,15.02"/><path d="M31.5,66.25c3.12,3.43,5.52,11.39,6.25,14.5"/><path d="M52.73,13.75c0.45,0.48,1.19,2.33,1.19,3.29c0,3.77-0.01,7.47-0.06,10.18"/><path d="M39.41,29.48c0.67,0.05,2.2,0.31,2.86,0.28c7.87-0.42,14.85-1.39,22.33-2.05c1.1-0.1,1.67,0.02,2.5,0.35"/><path d="M49,37c0.19,0.57-0.01,1.9-0.45,2.84c-1.76,3.69-4.95,7.69-8.54,10.91"/><path d="M57.83,35.61c3.94,3.75,7.2,7.58,9.17,12.14"/><path d="M59.98,48c0.33,0.98,0.45,2.71-0.1,4.46C54.75,68.79,45.53,83.18,34.25,92"/><path d="M45.25,55c5.68,2.79,13.42,13.88,18.25,25"/><path d="M67.35,17.39c1.08,0.31,3.07,0.36,4.15,0.31c8.94-0.36,15.53-1.62,22.49-1.77c1.8-0.04,2.89,0.15,3.79,0.31"/><path d="M83.5,19.75c0.01,0.32,0.03,0.82-0.02,1.28c-0.3,2.7-3.25,8.63-5.59,12.27"/><path d="M72.73,33.55c0.28,1.05,0.69,1.84,0.69,3.24c0,1.41-0.18,41.01-0.18,41.71"/><path d="M73.57,34.98c1.92-0.18,16.09-2.36,17.85-2.58c1.46-0.18,2.62,1.99,2.49,3.32c-0.16,1.69-0.53,26.28-0.53,42.92"/><path d="M73.69,48.41c2.43,0,14.96-1.66,18.6-2"/><path d="M73.24,61.81c6.52-0.42,14.21-1.35,19.21-1.79"/><path d="M73.46,76.72c4.77-0.64,13.27-1.22,18.43-1.66"/><path d="M76.61,81.75c0.41,1.23,0.18,1.96-0.46,2.93c-2.31,3.55-8.74,8.82-15.65,12.07"/><path d="M87.28,83.37c4.37,3.49,9.53,9.82,10.72,12.88"/></svg>