<svg><path d="M25.77,14.54c0.37,0.6,0.91,1.04,0.91,1.83s0.17,21.21-0.27,24.54"/><path d="M27.3,15.1c2.03-0.09,17.46-1.25,19.3-1.36c1.54-0.09,2.36,0.5,2.36,1.18c0,1.66-0.45,22.58-0.45,23.12"/><path d="M26.73,22.28c3.61-0.17,17.62-1.2,20.72-1.2"/><path d="M26.9,30.3c5.78-0.3,15.69-0.91,21.82-0.97"/><path d="M26.63,38.58c5.59-0.31,16.28-1.15,21.37-1.15"/><path d="M31.5,43.25c0.3,0.94-0.23,1.87-0.83,2.55c-1.81,2.07-6.56,6.5-10.18,8.95"/><path d="M42.67,41.88c3.7,2.2,8.07,6.2,9.08,8.12"/><path d="M62.08,13.1c0.36,0.59,0.88,1.02,0.88,1.8c0,0.78,0.17,20.83-0.26,24.1"/><path d="M63.54,13.7c2.09-0.1,17.98-1.34,19.88-1.46c1.58-0.1,2.43,0.54,2.43,1.27c0,1.78-0.47,24.21-0.47,24.79"/><path d="M62.99,21c3.77-0.14,18.38-1.01,21.62-1.01"/><path d="M63.15,28.57c5.69-0.31,15.45-0.94,21.47-1"/><path d="M63.14,37.16c5.62-0.21,16.36-0.78,21.49-0.78"/><path d="M67.38,43.01c0.28,0.78-0.21,1.54-0.76,2.1c-1.67,1.71-6.04,5.36-9.37,7.38"/><path d="M78.77,42.28c4.27,2.81,9.31,7.9,10.48,10.35"/><path d="M38.52,50c0.04,0.42,0.08,1.09-0.07,1.7c-0.87,3.59-5.87,11.47-12.7,16.3"/><path d="M35.13,60.23c0.88,0.32,2.49,0.4,3.38,0.32c10.81-0.89,27.22-3,36.92-4.13c1.46-0.17,2.35,0.15,3.08,0.32"/><path d="M16.01,73.48c1.73,0.42,4.92,0.48,6.65,0.42c18.05-0.7,40.18-4.24,66.52-4.4c2.89-0.02,4.62,0.2,6.07,0.4"/><path d="M52.83,61.63c0.46,0.73,0.98,1.26,0.98,2.26c0,3.51-0.05,25.02-0.12,27.99"/><path d="M29.25,80.25c0.73,0.24,1.76,2.26,1.75,2.75c-0.07,3.01-1,5.75-2.54,10.64c-0.33,1.05-0.33,2.38,1.45,2.01c7.83-1.65,40.45-4.8,49.64-4.93"/><path d="M79.67,76.88c0.35,0.26,1.26,2.42,1.2,2.95c-0.35,3.16-0.37,9.42-0.78,15.67"/></svg>