<svg><path d="M34.52,12.46c0.22,0.32,0.64,0.88,0.76,1.28c0.99,3.24,2.29,8.95,2.87,14.92"/><path d="M35.28,13.01c9.97-0.95,28.7-2.16,35.77-2.51c2.6-0.13,3.92,0.92,3.78,1.9c-0.52,3.57-1.82,8.88-3.58,14.6"/><path d="M52.75,12.45c0.75,0.69,1.29,1.43,1.29,2C54,18.19,54.2,24.66,54.2,26.02"/><path d="M37.97,20.22c3.08-0.14,32.18-1.64,34.73-1.64"/><path d="M38.9,27.66c6.82,0,22.76-1.11,32.17-1.17"/><path d="M18.98,35.98c0.17,0.29,0.48,0.79,0.57,1.14c0.74,2.9,2.14,8.01,2.57,13.35"/><path d="M19.59,36.44c7.37-0.78,21.23-2.17,26.45-2.47c1.92-0.11,2.9,0.76,2.79,1.57c-0.38,2.95-1.41,8.83-2.71,13.56"/><path d="M32.9,35.98c0.38,0.65,0.66,1.33,0.65,1.86c-0.02,3.48-0.17,9.51-0.17,10.78"/><path d="M22.08,42.85c2.28-0.15,23.8-1.66,25.68-1.66"/><path d="M22.76,49.56c5.04,0,16.83-1.5,23.79-1.58"/><path d="M58.95,33.66c0.16,0.28,0.45,1.14,0.53,1.48c0.69,2.84,1.61,7.84,2.02,13.08"/><path d="M59.62,34.51c7.74-0.79,22.79-2.19,28.28-2.49c2.02-0.11,3.04,0.77,2.93,1.58c-0.4,2.98-2.5,8.93-3.87,13.71"/><path d="M73.29,34.04c0.47,0.65,0.82,1.35,0.81,1.88c-0.02,3.52-0.21,9.62-0.21,10.9"/><path d="M61.7,40.99c2.4-0.15,25-1.68,26.98-1.68"/><path d="M62.42,47.78c5.29,0,17.68-1.52,24.99-1.6"/><path d="M37.8,52.64c0.05,0.42,0.1,1.09-0.1,1.69c-1.2,3.56-8.06,11.38-17.45,16.17"/><path d="M36.29,61.22c0.88,0.34,2.5,0.42,3.38,0.34c10.83-0.94,27.27-3.18,36.99-4.38c1.46-0.18,2.35,0.16,3.09,0.33"/><path d="M18.13,73.78c1.38,0.41,3.91,0.48,5.29,0.41c14.35-0.68,41.82-4.16,62.76-4.32c2.3-0.02,3.68,0.19,4.83,0.4"/><path d="M51.86,60.87c1.14,0.75,2.45,1.3,2.45,2.34c0,3.64-0.12,25.93-0.3,29.01"/><path d="M26.25,80.75c0.63,0.28,1.26,1.47,1.25,2.04c-0.06,3.52-0.06,4.93,0,11.6c0.01,1.29-0.31,2.55,1.24,2.35c4.28-0.56,45.16-3.66,53.01-3.82"/><path d="M83.19,76.82c-0.26,0.26-0.57,1.92-0.53,2.44c0.26,3.15-0.1,11.12,0.33,16.99"/></svg>