<svg><path d="M21.5,14.5c0,3.91-4.13,14.65-6,17.25"/><path d="M21.25,18.28c10-0.78,52.25-4.28,62.81-4.27c12.27,0.02,6.63,3.78,0.76,9.24"/><path d="M43.48,19.75c0.12,0.56,0.25,1.49-0.25,2.24C38.25,29.5,34,35.25,21,41.5"/><path d="M60.76,17.72c1.09,0.85,1.45,2.34,1.52,3.64c0.29,5.82-0.87,11.01,2.33,13.09c3.06,1.99,20.36,0.42,24.14-0.42"/><path d="M27.92,48.96c1,0.33,4.46,0.36,5.47,0.3c6.94-0.39,31.63-2.86,43.47-3.51c1.67-0.09,5.17,0.29,6.01,0.45"/><path d="M18.13,66.77c2.02,0.29,5.74,0.37,7.75,0.29c19.02-0.78,37.85-2.51,59.92-2.78c3.37-0.04,5.39,0.14,7.08,0.28"/><path d="M52.06,49.88c0.54,0.51,2.29,2.12,2.29,4.83c0,5.29-0.07,37.56-0.18,43.92"/></svg>