<svg><path d="M20.93,15.07c0.23,0.27,0.46,0.49,0.56,0.82c0.79,2.64,3.46,10.87,4,15.61"/><path d="M21.72,16.25c8.78-1.25,59.51-4.14,62.17-4.52c0.97-0.14,2.29,0.98,2.03,2.6c-0.54,3.39-2.66,10.66-4.32,14.54"/><path d="M42.76,15.86c0.15,1.76,1.23,9.86,1.39,11.83"/><path d="M63.29,13.79c-0.15,2.86-1.42,11.33-1.73,13.09"/><path d="M25.75,30.33c-1.51,0.31,47.5-3.83,56.67-3.78"/><path d="M15.5,50.54c1.01,0.24,3.71,0.88,6.38,0.71c10.98-0.71,48.37-3.75,66.33-4.24c2.69-0.07,5.36,0.26,7.04,0.5"/><path d="M52.7,33.75c0.87,0.53,1.57,2.35,1.57,3.43c0,18.48,0,23.97-0.17,30.57"/><path d="M28.77,67.84c0.48,1.16,1.71,3.14,1.82,3.89C31.4,77.13,33.7,87.79,34.84,98"/><path d="M30.35,70.3c12.01-1.09,37.99-3.39,46.19-3.56c3.39-0.07,4.46,1.76,3.92,4.71c-1.15,6.29-2.8,12.62-4.63,20.98"/><path d="M35.88,95.27c10.15-0.28,30.18-1.09,42.37-1.45"/></svg>