<svg><path d="M20.5,17c0.75,1.25,1.25,3.25,1,5.5s0.25,68.5,0.25,72.25"/><path d="M21.5,19.5c9.5-1,60.1-5,62-5c2.75,0,4.5,0.75,4.5,3c0,4.75-0.25,65.75-0.25,71.5c0,9.25-4.25,4.75-7.25,1.5"/><path d="M35.02,22.35c3.98,2.32,10.28,9.53,11.27,13.13"/><path d="M69.53,19.37c0.03,0.4,0.05,1.03-0.05,1.6c-0.61,3.37-4.08,10.75-8.84,15.27"/><path d="M27,40.79c1.03,0.42,2.91,0.53,3.94,0.42c6.55-0.72,40.86-4.74,47.21-4.25c1.71,0.13,2.74,0.2,3.6,0.41"/><path d="M51.95,41.52c0.81,0.44,2.06,2.42,2.06,3.29c0,3.2-0.17,7.87-0.02,10.58"/><path d="M30.06,56.88c1.02,0.07,3.36,0.5,4.36,0.4c8.05-0.83,32.5-3.11,42.72-3.32c1.69-0.04,2.55,0.03,3.81,0.5"/><path d="M34.01,59.17c0.7,0.64,1.05,2.47,1.05,3.36c0,7.9,0.13,8.39,0,11.37c-0.31,7.1,3.19,7.71,19.94,7.71c6.21,0,19.29-0.83,20.99-1.24"/></svg>