<svg><path d="M21.75,21.53c0.03,0.55,0.06,1.41-0.06,2.2c-0.7,4.63-4.71,14.8-10.19,21.02"/><path d="M20.41,33.93c0.64,0.31,1.8,0.4,2.44,0.31c4.98-0.66,11.22-2.31,15.32-2.79c1.06-0.12,1.7,0.15,2.23,0.31"/><path d="M10.99,51.36c0.94,0.46,2.66,0.57,3.59,0.46c8.05-0.96,22.76-4.36,28.64-4.84c1.56-0.12,2.5,0.22,3.28,0.45"/><path d="M26.79,36.17c0.45,1.11,0.97,1.92,0.97,3.45c0,5.37-0.05,35.76-0.12,40.3"/><path d="M14.4,61.13c0.62,0.42,1.25,2.19,1.24,3.04c-0.06,5.24-0.47,10.25-0.82,16.9c-0.1,1.92,0.51,2.87,2.05,2.57c4.24-0.82,16.49-5.89,24.13-7.89"/><path d="M40.4,57.75c0.85,0.45,1.7,3.3,1.69,4.21C42,67.75,41.75,78.75,41.75,83"/><path d="M44.56,23.72c1.22,0.33,2.63,0.4,3.85,0.33c11.19-0.61,32.09-3.77,44.98-3.81c2.03-0.01,3.25,0.16,4.26,0.32"/><path d="M56.78,14.53c1.08,0.86,1.43,1.12,1.55,1.65c1.08,4.96,2.01,10.58,2.32,12.38"/><path d="M80.99,12.56c0.16,0.62,0.36,1.08,0.19,1.84c-1.04,4.46-1.51,8.69-2.64,12.88"/><path d="M48.75,33.5c0.31,0.21,0.63,0.38,0.77,0.64c1.08,2.05,2.37,7.69,3.11,11.37"/><path d="M51.31,34.89c5.34-1.11,11.84-1.89,14.9-2.17c1.12-0.1,1.79,0.61,1.63,1.21c-0.66,2.49-1.44,5.05-2.42,8.49"/><path d="M53.08,44.21c3.65-0.34,9.74-1.42,14.75-1.94"/><path d="M75.3,31.87c0.2,0.19,0.4,0.35,0.49,0.59c0.69,1.88,1.51,7.31,1.98,10.69"/><path d="M77.79,33.15c5.19-1.15,11.5-1.97,14.47-2.26c1.09-0.11,1.74,0.63,1.58,1.25c-0.64,2.58-1.4,4.33-2.35,7.9"/><path d="M79.48,41.76c3.49-0.33,8.3-0.9,13.09-1.4"/><path d="M60.79,48.82c0.13,0.93-0.04,2.14-0.46,2.93c-2.7,5.06-6.13,9.34-12.33,15.5"/><path d="M56.19,59.75c0.27,0.53,0.48,1.7,0.5,2.52c0.16,7.33-0.22,30.94-0.09,34.76"/><path d="M76.86,47.5c0.04,0.47-0.01,1.1-0.15,1.5c-0.89,2.59-2.02,4.59-4.06,7.75"/><path d="M58.64,59.03c6.79-0.76,33.6-2.97,36.52-3.38"/><path d="M73.27,59.98c0.24,0.3,0.42,0.7,0.42,1.22c0,5.22,0.03,21.92-0.12,30.14"/><path d="M57.25,70.25c6.54-0.76,30.21-3.07,33.02-3.49"/><path d="M56.75,80.98c7.18-0.68,32.92-2.22,36-2.59"/><path d="M58.77,93.08c6.96-0.76,35.74-2.24,38.73-2.66"/></svg>