<svg><path d="M21.25,16.34c0.83,0.83,1.57,2.09,1.81,3.27c0.94,4.64,1.53,7.63,2.26,11.88c0.32,1.84,0.6,3.57,0.81,5.01"/><path d="M23.44,18.27c16.81-2.02,55.81-5.27,61.74-5.54c1.51-0.07,3.8,1.59,3.39,3.4c-0.65,2.91-2.27,7.72-3.89,12.24c-0.49,1.35-0.99,2.68-1.51,3.93"/><path d="M42.42,17.47c0.74,0.74,1.08,1.78,1.14,2.77c0.27,3.98,0.68,7.26,0.96,10.52"/><path d="M63.54,15.63c0.6,0.6,0.87,1.61,0.76,2.66c-0.44,4.19-1.77,9.14-2.15,10.86"/><path d="M26.74,33.74c6.51-0.99,47.26-4.37,56.74-4.69"/><path d="M42.83,39.09c0.91,0.91,1.43,2.41,1.46,3.67C45,73.62,44.75,85.12,30.23,96"/><path d="M20.63,51.36c1.39,0,3.02,0.17,4.41,0c1.39-0.17,13.46-1.36,18.18-1.93"/><path d="M19.96,66.02c1.29,0.23,3.48,0.16,4.74,0c3.18-0.4,11.43-1.65,18.61-2.51"/><path d="M14.25,81.47c0.77,0.77,2.48,0.83,4.57,0.15c4.56-1.49,12.31-3.49,23.19-7.11"/><path d="M62.6,37c0.76,0.76,1.15,2,1.15,3.12c0,7.5,0.03,40.37-0.09,53.14c-0.03,3.46-0.06,5.91-0.1,6.73"/><path d="M64.95,48.91c3.3-0.24,15-1.86,20.05-2.51c1.35-0.17,2.37-0.15,3.76-0.07"/><path d="M65.02,64.01c3.18-0.23,14.44-1.68,19.86-2.33c1.49-0.18,2.87-0.14,4.37-0.14"/><path d="M64.91,78.75c3.01-0.22,15.96-1.56,22.84-2.22c1.89-0.18,3.74-0.53,5.75-0.24"/></svg>