<svg><path d="M21.93,13.57c0.23,0.27,0.46,0.49,0.56,0.82c0.79,2.64,2.96,11.37,3.5,16.11"/><path d="M23.72,15.36C32.75,14,77,11,83.61,10.73c2.15-0.09,3.64,1.02,3.55,3.38c-0.12,3.14-2.4,9.35-3.86,13.77"/><path d="M42.42,14.61c0.2,1.72,1.62,9.65,1.82,11.58"/><path d="M64.81,12.79c-0.1,2.86-0.58,10.33-0.77,12.09"/><path d="M27.36,28c3.08-0.43,49.89-3.75,56.81-3.76"/><path d="M51.38,30.13c1.1,0.23,1.93,2.71,2.15,3.17c0.22,0.46,0.08,9.65-0.14,12.5"/><path d="M53.66,37.35c2.4,0,14.54-0.88,21.55-1.81c2.51-0.33,3.62-0.15,5.12-0.23"/><path d="M30.16,46.83c0.66,0.9,1.54,1.19,1.75,2.4c0.57,3.3,3.09,15.75,3.11,18.52"/><path d="M32.59,47.87c4.58-0.15,39.52-3.28,43.66-2.91c1.64,0.15,2.84,1.69,2.59,3.27C78,53.5,76.87,60.04,74.72,65"/><path d="M33.26,55.69c7.82-0.33,35.99-2.1,43-2.1"/><path d="M35.82,65.15c11.12-0.67,32.03-2.14,37.68-2.14"/><path d="M17.13,79.88c1.76,0.3,5,0.46,6.74,0.3c18.38-1.68,47.29-2.95,61.6-2.93c2.93,0,4.69,0.15,6.16,0.3"/><path d="M52.98,65.5c0.44,0.51,0.88,2.34,0.97,3.37c0.09,1.03-0.06,25.22-0.15,31.63"/></svg>