<svg><path d="M21.89,14.07c0.19,0.27,0.88,1.49,0.96,1.82c0.64,2.64,2.5,10.37,2.94,15.11"/><path d="M23.72,15.31c5.79-0.82,57.28-3.96,59.93-4.32c0.97-0.13,2.28,0.94,2.02,2.49c-0.54,3.24-1.87,9.27-3.31,13.9"/><path d="M43.76,14.86c0.15,1.76,0.73,9.86,0.89,11.83"/><path d="M63.95,13.29c-0.19,2.86-1.16,10.33-1.54,12.09"/><path d="M26.15,29.39c3.07-0.47,51.05-3.34,55.27-4.06"/><path d="M23.5,39.25c1.29,0.39,3.48,0.83,6.24,0.6c13.01-1.1,41.35-3.66,47.18-4.09c2.51-0.18,4.12,1.88,3.66,2.94c-1.71,3.92-2.83,6.79-3.67,10.65"/><path d="M27.1,54.46c8.65-0.95,37.65-3.72,47.61-4.52c1.56-0.13,4-0.33,4.79-0.15"/><path d="M26.5,40.25c0.25,2.5,0.23,4.24,0.23,6c0,1.76-0.25,44.83-0.25,47.57c0,2.74,0.25,3.52,3.47,1.57c3.23-1.96,25.31-11.58,27.29-12.75"/><path d="M28,66.5c12.46-1.05,43.09-3.41,57.34-5.44c1.58-0.23,4.41-0.56,6.41,0.27"/><path d="M52.5,52.5c0.5,0.59,1.46,2.18,1.66,3.3C57.28,73.7,65.5,91,87.3,98.17c8.44,2.78,5.7-3.17,5.48-6.6"/></svg>