<svg><path d="M18.7,13.29c0.25,0.29,0.51,0.53,0.62,0.9c0.87,2.88,2.69,11.88,3.28,17.06"/><path d="M20.65,15.24c6.41-0.86,62.33-4.13,65.26-4.51c1.07-0.14,3.02,1.48,2.73,3.1c-0.6,3.38-3.07,9.17-4.66,14"/><path d="M40.46,14.15c0.04,0.43,0.66,1.3,0.87,2.55c0.55,3.4,1.52,8.77,1.65,10.38"/><path d="M64.46,12.93c0.54,0.82,0.9,1.58,0.81,2.6c-0.32,3.75-1.39,8.61-1.66,10.12"/><path d="M23,28.64c3.44-0.43,56.66-2.62,61.38-3.27"/><path d="M20.33,48c0,5.65-4.23,13.98-5.33,15.59"/><path d="M35.9,45.91c1.95,1.42,5.05,5.86,5.53,8.08"/><path d="M27.43,36.02c1,0.41,1.59,1.84,1.79,2.66c0.2,0.82,0,56.22-0.2,61.32"/><path d="M58.44,32.6c0.15,1.55-0.04,3.58-0.53,4.9c-3.14,8.46-7.12,15.61-14.32,25.91"/><path d="M52.22,50.38c0.66,0.74,1.16,2.38,1.21,3.53c0.39,10.28-0.21,38.38-0.21,45.97"/><path d="M77.2,32.25c0.06,0.79-0.02,1.82-0.21,2.49c-1.26,4.3-2.86,7.62-5.75,12.85"/><path d="M53.24,49.81c9.13-0.84,37.39-3.59,40.67-4.12"/><path d="M71.5,50.47c0.37,0.38,1.55,1.5,1.55,3.15c0,6.67,0.04,27.74-0.18,38.24"/><path d="M54.26,64.45c7.2-0.8,33.25-2.44,36.33-2.87"/><path d="M53.38,77.59c7.6-0.67,36.53-2.05,39.78-2.42"/><path d="M53.38,93.69c7.63-0.97,38.84-1.62,42.12-2.15"/></svg>