<svg><path d="M23.62,12.94c0.78,0.78,1.13,1.56,1.5,2.65c0.88,2.61,1.89,6.58,2.74,10.58c0.3,1.39,0.55,2.7,0.72,3.83"/><path d="M25.85,14.83c12.5-1.6,43.09-3.8,53.78-4.28c3.04-0.13,5.15,0.44,4.21,3.88c-0.69,2.52-1.79,5.86-3.06,9.08c-0.4,1.02-0.81,2.02-1.23,2.98"/><path d="M42.55,14.28c0.59,0.59,0.94,1.37,1.12,2.49c0.52,3.28,1.15,6.92,1.31,8.48"/><path d="M62.15,12.87c0.55,0.55,0.62,1.47,0.52,2.42c-0.4,3.61-0.92,6.46-1.23,9.06"/><path d="M29.33,27.74c9.54-0.86,42.54-2.99,50.23-3.36"/><path d="M31.5,40.85c1.6,0.53,4.07,0.46,5.75,0.34c8.87-0.63,21.25-2.19,29.17-2.66c1.29-0.08,2.06,0.12,2.71,0.25"/><path d="M51.17,28.12c0.67,0.67,1.27,1.88,1.27,3.18c0,7.58-0.19,17.08-0.19,23.1"/><path d="M16.5,57.79c3.65,0.77,7.08,0.45,10.75,0.11c13.07-1.21,42.37-4.02,58-4.66c3.41-0.14,6.76-0.12,10.12,0.59"/><path d="M81.59,34.02c0,0.98-0.57,2.44-1.84,3.67c-16.41,15.81-36,30.19-63.44,42.21"/><path d="M39.02,69.98c0.75,0.75,1.16,1.81,1.16,2.75c0,3.85,0,15.42,0,23.39c0,1.64,0,3.14,0,4.38"/><path d="M40.93,70.85c2.56-0.12,27.67-2.61,30-2.75c1.94-0.12,3.04,0.65,3.04,2.5c0,1.88-0.03,15.55-0.05,23.15c0,2.07-0.01,3.7-0.01,4.5"/><path d="M41.13,83.85c7.62-0.6,25.62-2.1,31.94-2.28"/><path d="M41.22,97.11c7.05-0.51,22.81-1.36,31.59-1.79"/></svg>