<svg><path d="M20,16.39c0.85,0.61,1.59,1.69,1.72,2.74c0.91,3.25,1.68,6.79,2.38,10.64c0.29,1.59,0.55,3.12,0.77,4.48"/><path d="M22.06,17.68c12.19-1.43,40.43-3.83,63.19-4.94c2.24-0.11,3.37,1.39,3.07,3.45c-0.41,2.82-1.02,5.35-2.38,9.94c-0.37,1.26-0.81,2.64-1.32,4.15"/><path d="M41.38,17c0.69,0.69,1.04,1.66,1.31,3.04c0.72,3.7,1.36,7.57,1.57,9.21"/><path d="M64.62,15.38c0.56,0.56,0.59,1.61,0.46,2.84c-0.39,3.6-1.03,8.39-1.34,9.79"/><path d="M25.55,31.62c11.08-1.12,37.08-2.74,58.67-3.9"/><path d="M30.25,37.62c2.53,1.04,6.53,4.3,7.16,5.92"/><path d="M16.14,51.06c1.8,0.64,3.64,0.65,5.5,0.5c8.31-0.7,18.15-1.99,25.88-2.99c1.64-0.21,3.23-0.37,4.86-0.02"/><path d="M24.03,60.92c1.11,0.42,2.33,0.43,3.49,0.33c4.57-0.38,13.06-1.88,16.11-2.2c1.21-0.13,2.77-0.41,3.96-0.15"/><path d="M23.78,70.45c1.04,0.4,2.66,0.41,3.72,0.32c4.41-0.36,12.17-1.56,15.88-2.09c1.28-0.18,2.63-0.28,3.91,0.01"/><path d="M23.39,80.4c0.68,0.54,0.95,1.77,1.15,2.56c0.72,2.74,1.17,6.46,1.82,10.53c0.21,1.32,0.41,2.61,0.61,3.77"/><path d="M25.41,81.1c7.02-1.41,13.99-2.45,19.95-3.16c2.61-0.31,3.51,0.93,2.97,2.92c-0.89,3.25-1.31,6.61-2.5,10.63"/><path d="M27.64,94.98c4.26-0.36,10.65-1.45,16.62-2.02c1.05-0.1,2.09-0.2,3.12-0.3"/><path d="M65.02,43.33c1.08,1.08,1.51,2.67,1.51,5.02c0,10.52-0.01,20-0.02,26.4c0,2.66,0,4.79,0,6.25"/><path d="M85.57,36.33c1.24,1.24,1.37,2.42,1.37,3.89c0,13.47,0.01,45.62,0.01,50.21c0,9.69-6.2,2.07-8.05,0.23"/></svg>