<svg><path d="M35.64,15.4c3.28,2.07,8.47,8.53,9.29,11.76"/><path d="M70,11.82c0.03,0.32,0.12,0.85-0.06,1.29c-1.32,3.33-3.19,6.58-8.94,11.58"/><path d="M29.5,30.21c2.61,0.49,4.98,0.28,7.09,0.03c7.38-0.89,28.24-2.94,36.17-3.44c1.94-0.12,3.96-0.26,5.87,0.28"/><path d="M52.49,29.82c0.86,0.5,1.55,2.24,1.55,3.25c0,6-0.04,12.25-0.04,20.25"/><path d="M31.75,42.71c1.88,0.49,4.73,0.29,6.71,0.02c7.22-0.98,21.44-2.77,30.92-3.56c2.09-0.17,4.13-0.23,6.37,0.16"/><path d="M26,55.77c3.19,0.43,6.1,0.21,9.04-0.15c8.29-0.99,29.45-3,37.93-3.74c2.86-0.25,6.06-0.44,8.9,0.23"/><path d="M13.25,71.93c2.84,0.73,6.21,0.84,9.28,0.52c18.2-1.88,42.94-4.54,62.13-5.82c3.39-0.22,7.2-0.37,10.22,0.19"/><path d="M52.93,57.82c0.32,1.12,0.29,2.29,0.06,3.54c-3.62,19.58-16.49,33.21-34.74,38.71"/><path d="M54,69.57c7.37,5.33,22.27,16.99,31.51,22.55c2.65,1.6,5.59,3.38,8.74,3.7"/></svg>