<svg><path d="M22.93,12.57c0.23,0.27,0.46,0.49,0.56,0.82c0.79,2.64,2.96,10.37,3.5,15.11"/><path d="M24.72,14.36c5.87-0.79,56.48-3.78,59.16-4.13c0.98-0.13,3.3,1.39,3.04,2.88c-0.55,3.1-1.89,8.35-3.35,12.77"/><path d="M43.76,13.36c0.15,1.76,1.23,9.86,1.39,11.83"/><path d="M64.79,11.79c-0.15,2.86-0.92,10.33-1.23,12.09"/><path d="M27.36,27.11c3.15-0.39,48.14-3.61,56.56-3.49"/><path d="M12.34,41.45c0.94,0.47,2.66,0.53,3.6,0.47c5.81-0.41,20.81-1.91,31.27-3.05c1.56-0.17,2.51,0.22,3.29,0.46"/><path d="M22.63,33.58c0.39,0.25,0.63,1.12,0.71,1.62c0.08,0.5,1.54,10.93,1.96,16.58"/><path d="M40.03,32.25c0.24,0.24,0.96,1.57,0.93,2.06c-0.17,2.6-0.18,7.24-0.82,13.95"/><path d="M25.28,51.19c2.48,0,13.59-1.65,15.82-1.85"/><path d="M17.35,59.06c0.27,0.31,0.54,0.56,0.66,0.95c0.93,3.04,1.25,7.19,1.88,12.66"/><path d="M20.26,59.81c7.58-1.1,21.5-2.87,24.78-2.83c1.71,0.02,3.2,0.93,2.99,1.83c-0.43,1.85-1.6,6.96-2.53,10.19"/><path d="M19.97,71.81C24.05,71.27,40.82,69.54,46,69"/><path d="M12.75,82.35c0.72,0.4,2.03,0.43,2.75,0.4c5.5-0.25,25-2.75,31.73-3.46c1.19-0.13,1.91,0.19,2.51,0.39"/><path d="M31.5,52.75c0.5,0.38,0.81,1.72,0.91,2.48c0.1,0.76,0,38.75-0.1,43.52"/><path d="M56.52,38.48c1.61,0.54,3.4,0.25,4.47,0.15C68,38,79.5,36.75,86.05,36.09c1.35-0.14,3.71-0.11,5.2-0.11"/><path d="M71.54,29.75c0.18,0.33,0.29,0.72,0.28,1.43C71.62,41.06,67.75,49.5,61,55"/><path d="M72.75,41.27c5,1.73,11.49,6.68,14.75,10.48"/><path d="M54.38,58.17c1.06,0.3,3.02,0.37,4.08,0.3c6.34-0.43,25.76-2.46,34.57-2.85c1.77-0.08,2.84,0.15,3.72,0.29"/><path d="M56.17,69.06c0.3,0.25,0.6,0.46,0.73,0.78c1.04,2.5,2.28,8.96,2.98,13.45"/><path d="M57.65,70.35c4.45-0.83,10.65-2.34,13.2-2.67c0.93-0.12,2.49,1.21,2.36,1.92c-0.55,2.94-1.71,6.14-2.91,10.49"/><path d="M60.4,81.92c3.5-0.34,7.29-0.59,12.1-1.1"/><path d="M84.5,58.5c0.89,0.87,1.48,2.55,1.48,5.38c0,14.62-0.2,25.27-0.2,29.89c0,7.93-6.75-0.6-7.95-1.77"/></svg>