<svg><path d="M19.5,13.39c0.87,0.63,1.35,1.49,1.46,2.58c0.85,2.94,1.86,7.98,2.55,11.78c0.31,1.69,0.58,3.07,0.81,4.5"/><path d="M21.79,14.68c8.46-0.8,48.84-3.18,61.74-3.78c4.32-0.2,6.21,1.18,4.79,5.7c-0.4,1.3-1.55,4.78-2.56,7.69c-0.68,1.95-1.29,3.65-1.57,4.24"/><path d="M41.76,14.5c0.75,0.75,1.22,1.53,1.43,2.8c0.49,3,0.81,5.2,1.54,9.45"/><path d="M64.76,13.25c0.49,1,0.53,1.76,0.34,3.26c-0.48,3.79-1.1,6.74-1.57,9.74"/><path d="M25.24,29.37c9.64-0.99,50.51-2.87,58.53-2.9"/><path d="M31.88,34.42c0.34,1.16-0.17,2.13-0.92,3.28c-2.08,3.17-5.24,6.15-9.8,10.6c-0.63,0.62-0.68,2.18,0,2.39c3.6,1.16,5.1,1.8,8.85,4.05"/><path d="M43.05,41.03c0.32,1.34-0.31,2.42-0.75,2.91c-5.8,6.55-15.24,14.8-23.23,21.93c-1.83,1.63-0.95,3,1.4,2.49c5.07-1.1,13.87-3.62,20.29-4.96"/><path d="M38.62,57.12c1.99,2.21,5.13,9.09,5.62,12.53"/><path d="M29.64,68.42c0.78,0.78,0.98,1.95,0.98,3.28c0,9.54-0.01,17.52,0,23.62c0,2.08-0.12,3.66-0.12,5.55"/><path d="M21.09,76.96c0.17,0.92-0.13,2.46-0.42,3.13c-2.17,5.04-5.92,11.42-9.92,15.95"/><path d="M39.18,76.15c3,3.07,5.3,10.21,5.99,12.99"/><path d="M62.65,33.59c0.15,1.21-0.04,2.8-0.54,3.84c-3.13,6.63-7.11,12.24-14.29,20.31"/><path d="M54.86,51.01c0.88,0.87,0.95,1.96,0.95,3.23c0,4.76-0.01,33.76-0.01,39.26c0,4.06,0.04,5.5,0.04,7.13"/><path d="M80.17,33.67c0.07,0.77-0.02,1.77-0.24,2.43c-1.43,4.2-3,6.69-6.27,11.8"/><path d="M56.51,51.13c6.86-0.63,21.95-1.9,31.49-2.81c3.31-0.32,5.77-0.57,6.64-0.7"/><path d="M73.33,51.31c0.87,0.87,1.18,1.94,1.18,3.32c0,8.1,0.06,33.66,0.06,37.04"/><path d="M56.91,64.73c5.35-0.57,19.13-1.49,27.86-2.12c3.37-0.24,5.91-0.44,6.79-0.56"/><path d="M57.01,78.11c5.98-0.51,21.55-1.42,30.52-2.1c2.76-0.21,4.8-0.37,5.59-0.46"/><path d="M56.91,93.87c6.22-0.59,26.08-1.41,35.87-1.92c2.58-0.14,4.44-0.25,5.14-0.34"/></svg>