<svg><path d="M33.89,11.71c3.06,2.03,7.9,8.35,8.67,11.51"/><path d="M69.9,10.64c0.03,0.38,0.12,1.25-0.06,1.79C68.5,16.25,65,21,59.78,25.95"/><path d="M26.5,31.64c2.88,0.44,5.74,0.25,8.63,0.01c11-0.9,27.5-3.4,39.36-3.89c2.52-0.1,5.16-0.34,7.64,0.25"/><path d="M28.25,49.64c2.38,0.61,4.96,0.67,7.14,0.34c11.36-1.73,26.36-3.23,36.74-3.73c2.43-0.12,5.23-0.07,7.62,0.51"/><path d="M13.75,68.95c3.96,0.68,8.72,0.42,12.73,0.13c15.53-1.16,37.11-3.35,55.58-3.77c4.08-0.09,8.3-0.28,12.32,0.49"/><path d="M52.75,32.75c1,1,1.5,2.5,1.5,3.5c0,0.89,0,41.12,0,58.12c0,2.72,0,4.85,0,6.12"/></svg>