<svg><path d="M22.93,13.07c0.23,0.27,0.46,0.49,0.56,0.82c0.79,2.64,2.46,10.87,3,15.61"/><path d="M25.22,14.81c5.79-0.82,56.78-3.96,59.43-4.32c0.97-0.13,2.28,0.94,2.02,2.49c-0.54,3.24-1.87,9.27-3.31,13.9"/><path d="M43.28,14.36c0.12,1.76,0.96,9.86,1.08,11.83"/><path d="M64.78,12.79c-0.15,2.86-0.91,10.33-1.21,12.09"/><path d="M27.36,27.61c3.09-0.39,48.64-3.36,56.06-2.99"/><path d="M31.53,33.75c0.35,0.96,0.6,1.83-0.18,2.71c-3.36,3.79-7.23,8-11.94,11.68c-0.65,0.51-0.7,2.21,0,2.39c3.72,0.96,7.36,1.86,10.55,3.61"/><path d="M42.65,40.35c0.33,0.48,0.41,2.05,0,2.57C36.22,51.02,25,59.8,16.15,66.69c-2.03,1.58,0.5,2.48,1.83,2.16c5.53-1.34,20.91-4.31,28.03-5.6"/><path d="M40.88,54.42c2.78,2.69,7.18,11.04,7.87,15.22"/><path d="M31.75,69.15c0.05,0.31,0.73,1.58,0.79,3.5c0.25,9.22-0.16,23.46-0.16,26.6"/><path d="M22.5,76c0.16,0.82,0.13,2.43-0.16,3.02c-1.9,3.82-6.65,11.2-9.34,14.47"/><path d="M40.5,74.75c4.09,3.66,7.22,12.15,8.17,15.46"/><path d="M58.66,34.41c0.24,0.22,0.48,0.41,0.58,0.69c0.82,2.23,1.8,9.09,2.36,13.09"/><path d="M60.42,35.27c7.66-0.87,22.13-2.01,26.08-2.31c1.45-0.11,2.31,1.08,2.11,1.71c-0.86,2.61-1.84,5.2-3.67,8.96"/><path d="M61.73,46.02c4.67-0.55,18.21-1.89,25.6-2.3"/><path d="M57.49,54.43c0.61,0.68,1.01,1.37,1.21,2.05s0.29,39.45,0.2,40.98"/><path d="M59.91,55.18c2.45-0.17,25.41-1.79,27.23-1.98c3.26-0.34,4.49,2.22,4.08,3.24c-0.39,0.99-0.11,20.12-0.11,33.95c0,8.87-4.9,3.07-6.94,1.54"/><path d="M59.91,65.31c9.35-0.4,21.72-0.7,28.64-0.91"/><path d="M59.02,76.29c6.48-0.28,23.64-0.88,31.13-1.06"/></svg>