<svg><path d="M32.18,14.9c3.45,2.25,9.5,9.25,10.36,12.75"/><path d="M70.32,12.14c0.03,0.32,0.05,0.83-0.05,1.3c-0.63,2.74-5.52,10.31-10.23,14.5"/><path d="M19.7,33.65c1.29,0.31,3.66,0.38,4.95,0.31c12.73-0.67,46.84-4.41,58.49-4.3c2.15,0.02,3.45,0.15,4.52,0.3"/><path d="M51.97,32.15c1.22,0.43,2.2,1.91,2.2,2.81c0,7.36-0.01,19.37-0.01,27.08"/><path d="M26.12,47.77c1.43,0.31,4.05,0.36,5.48,0.31c14.98-0.53,31.92-3.12,46.02-3.45c2.38-0.06,3.81,0.15,5,0.3"/><path d="M16.54,64.45c1.71,0.4,4.85,0.52,6.54,0.4c11.67-0.85,45.19-3.48,63.91-4.29c2.84-0.12,4.55,0.19,5.97,0.39"/><path d="M24.25,77.95c0,6.45-6.34,15.96-8,17.8"/><path d="M40.77,74.61c3.15,3.91,6.15,14.66,6.94,20.74"/><path d="M62.37,74.58c2.54,3.6,6.55,14.81,7.18,20.41"/><path d="M81.02,74.61c4.16,3.72,10.75,15.31,11.79,21.1"/></svg>