<svg><path d="M33,11.5c3.76,1.86,10.35,7.64,11.29,10.53"/><path d="M68,8.5c0.03,0.31,0.05,0.81-0.05,1.25c-0.6,2.64-4.54,9.47-9.25,13.02"/><path d="M28.25,27.61c0.86,0.31,2.44,0.38,3.3,0.31c7.7-0.67,38.23-3.38,45.98-3.26c1.43,0.02,2.29,0.15,3.01,0.3"/><path d="M52.2,26.72c1.05,0.78,2.06,3.03,2.06,4.94c0,6.4,0,9.86,0,16.57"/><path d="M28.36,38.66c0.86,0.29,2.44,0.31,3.3,0.29c6.84-0.19,37.09-2.83,45.57-3.14c1.43-0.05,2.29,0.14,3.01,0.28"/><path d="M16.09,50.22c1.61,0.39,4.57,0.5,6.17,0.39c11.96-0.81,45.87-3.21,63.52-4c2.67-0.12,4.29,0.18,5.63,0.38"/><path d="M34.49,53.14c0.06,0.96,0.14,2.47-0.13,3.84c-1.57,8.1-10.56,25.88-22.86,36.76"/><path d="M35.7,63.99c1.37,0.32,2.87,1.01,4.48,0.89C52,64,65.51,62.9,75.28,61.74c1.97-0.24,3.11,1.97,2.72,3.51c-1.5,6-3.4,22.1-5.5,30.5"/><path d="M53.05,66.74c0.52,0.26,0.98,1.68,0.94,2.21c-0.42,5.6-4.6,23.85-5.75,28.41"/><path d="M30.32,80.6c1.32,0.55,3.76,0.68,5.08,0.55c15.86-1.52,38.11-3.04,54.64-3.28c2.21-0.03,3.53,0.26,4.64,0.54"/><path d="M28.73,97.58c1.29,0.49,3.65,0.97,4.94,0.89c16.83-0.97,37.04-2.3,53.09-2.51c2.15-0.03,3.43,0.23,4.51,0.48"/></svg>