<svg><path d="M15.04,20.09c3.32,2.38,8.59,9.8,9.43,13.52"/><path d="M40.51,16.75c0.02,0.41,0.05,1.06-0.05,1.66c-0.55,3.49-3.71,10.09-7.96,15.84"/><path d="M12.71,39.86c0.89,0.3,2.52,0.33,3.42,0.3c6.32-0.21,16.12-1.66,24.11-3.24c1.46-0.29,3.38-0.36,4.12-0.21"/><path d="M14.5,53.73c0.78,0.31,2.21,0.32,2.99,0.31C23.5,54,35.5,51.75,41.11,50.68c1.28-0.24,2.58-0.35,3.23-0.2"/><path d="M11.75,72.52c0.68,1.12,1.94,1.32,2.62,1.12c5.26-1.53,21.13-9.6,29.63-13.39"/><path d="M30.18,40.31c0.96,0.39,0.73,2.23,0.73,3.04c0,32.4-2.92,44.9-12.92,56.9"/><path d="M82.99,11.25c0.08,0.38,0.16,0.97-0.16,1.51c-1.9,3.17-10.8,9.42-25.58,14.74"/><path d="M51.75,27.25c0.98,1.31,1.86,3.34,1.86,5.81s-0.15,42.85-0.15,46.69c0,3.84,1.19,3.53,3.65,1.19C61,77.25,68.5,71.75,71.5,70"/><path d="M54,47.52c0.67,0.13,1.9-0.13,2.57-0.18c14.59-1.08,21.62-2.59,33.25-3.94c1.1-0.13,3.87-0.24,4.43-0.18"/><path d="M70,25.5c0.47,0.46,1.41,2.78,1.46,3.67c1.19,20.05,8.46,50.21,21.86,62.59c4.95,4.57,3.26-3.28,3.26-6.09"/><path d="M46.75,93.08c1.1,0.18,3.11,0.71,4.21,0.68c7.79-0.26,21.04-2.01,28.69-2.33c1.83-0.08,2.93,0.08,3.85,0.17"/></svg>