<svg><path d="M15.79,16.09c3.41,2.12,8.82,8.72,9.68,12.02"/><path d="M40.64,13.14c0.02,0.38,0.04,0.99-0.04,1.54c-0.53,3.25-3.54,10.39-7.67,14.76"/><path d="M14.96,34.21c0.71,0.35,2,0.39,2.71,0.35c5-0.25,18.66-2.94,24.98-3.79c1.17-0.16,1.88,0.17,2.47,0.34"/><path d="M14.93,47.95c0.62,0.34,2.76,0.4,3.39,0.34c5.24-0.46,17.31-3.07,23.59-4.16c1.03-0.18,1.66,0.16,2.18,0.33"/><path d="M12,64.89c0.66,0.77,1.88,0.9,2.54,0.77c5.09-1.05,20.48-6.57,28.71-9.16"/><path d="M29.78,35.06c0.97,0.94,1.14,2.29,1.14,3.12C30.92,74.25,28.25,86,15,97"/><path d="M67.02,14c0.07,0.92,0.29,2.4-0.13,3.69C64.24,25.76,55.84,42.28,46,52.1"/><path d="M67.25,18c4.63,4.66,21.48,23.51,25.39,27.38c1.33,1.31,3.03,1.88,4.36,2.25"/><path d="M64.5,43.5c3.97,1.9,10.26,7.8,11.25,10.75"/><path d="M49.7,64.22c1.14,0.75,3.54,1.12,4.83,0.92c5.73-0.89,29.66-4.07,32.36-4.45c2.7-0.37,3.88,1.88,1.94,3.86c-4.54,4.65-17.67,16.78-19.37,18.28"/><path d="M56.25,74.25c5.05,2.85,18.12,13.8,20.5,21.25"/></svg>