<svg><path d="M35.03,11.7c3,1.77,7.51,7.01,8.27,9.75"/><path d="M68.38,9.89c0,0.73-0.26,1.18-0.45,1.75C66.25,15,65.12,16.75,61.2,21"/><path d="M23.64,26.1c2.91,0.29,5.84,0.47,8.75,0.13c12.86-1.49,33.76-2.96,45.12-3.44c2.76-0.12,5.49-0.18,8.06,0.19"/><path d="M53.05,25.69c0.94,0.94,1.14,1.93,1.14,2.89c0,5.17-0.06,7.15-0.06,16.92"/><path d="M28.36,36.61c2.63,0.45,5.24,0.27,7.91,0.03c9.98-0.89,26.41-2.2,36.11-2.66c2.78-0.3,5.55-0.23,8.3,0.2"/><path d="M16.13,48.36c3.87,0.64,7.71,0.29,11.63,0c13.4-0.98,40.18-2.31,55.62-3.19c3.59-0.5,7.17-0.45,10.74,0.14"/><path d="M22.95,55.5c3.72,0.83,9.37,3.68,10.3,4.98"/><path d="M17.86,69.1c3.53,0.98,8.86,4.26,9.74,5.78"/><path d="M20.75,97.73c1.75,0.27,3.06-0.77,4.01-1.93c2.76-3.4,5.76-7.05,8.27-11.38"/><path d="M56.41,49.75c0,1-0.24,2.01-0.58,2.61c-3.08,5.39-6.08,10.39-13.6,17.01"/><path d="M54.01,58.48c1.54,0.45,3.08,0.3,4.62,0.05c3.65-0.41,18.5-1.91,24-2.3c7.04-0.5,3.6,4.75-1.76,9.14"/><path d="M64.57,64.62c0,1.26-0.15,2.17-0.4,3.4C62.38,76.5,54,92.12,36.54,99.75"/><path d="M63,76.5c3.51,3.32,12.39,11.32,19.79,16.6c2.81,2.04,5.8,3.79,8.96,5.28"/></svg>