<svg><path d="M17.22,22.63c2.17,0.85,3.59,0.8,5.91,0.5c7.87-1.01,15.97-2.18,21.24-2.63c2.03-0.18,3.38,1.75,3.13,3.38c-0.69,4.54-2.68,13.37-3.77,21.07"/><path d="M11.24,35.64c1.41,0.17,2.52,0.54,4.07,0.34c11.86-1.47,21.69-2.86,33.78-3.84c1.73-0.14,3.03-0.02,4.17,0.26"/><path d="M15.05,48.26c1.91,0.42,3.23,0.53,5.2,0.28c7.35-0.91,14.47-2.61,21.25-3.07c1.44-0.1,2.87-0.16,4.29,0.1"/><path d="M29.25,24.31c0.9,0.93,1.1,2.48,0.93,3.67C27.5,45.75,24,60.5,9.05,73.78"/><path d="M22.04,61.75c0.86,0.86,1.33,1.88,1.42,2.74c0.46,4.48,1.13,9.47,1.89,15.61c0.15,1.24,0.31,2.53,0.47,3.87"/><path d="M23.72,62.54c7.04-1.22,13.63-2.15,17.8-2.83c3.83-0.62,5.11,0.07,4.34,4.06c-0.79,4.06-1.69,7.69-2.83,14.89"/><path d="M26.88,81.28c3.72-0.49,9.47-1.12,14.61-1.66c1.2-0.13,2.37-0.25,3.47-0.36"/><path d="M59.42,17.63c2.63,1.96,6.8,8.07,7.46,11.12"/><path d="M87.27,12.64c0.23,0.73-0.06,1.98-0.3,2.61c-1.84,4.62-5.22,10.5-10.06,16.52"/><path d="M57.69,36.67c2.06,0.45,4.19,0.21,5.96-0.04c5.93-0.83,18.59-2.69,24.97-3.01c1.54-0.08,3.16-0.17,4.67,0.25"/><path d="M57.03,51.06c1.84,0.32,3.37,0.3,4.86,0.11c5.39-0.68,17.5-2.37,23.99-2.7c1.54-0.08,3.16-0.17,4.66,0.25"/><path d="M53.28,66.44c2.35,0.43,4.97,0.42,7.22,0.19c6.77-0.68,20.39-2.15,30.87-2.69c2.24-0.12,4.41-0.23,6.61,0.31"/><path d="M73.12,38.31c0.85,0.85,1.1,1.94,1.1,3.19c0,0.71-0.12,34.01-0.16,49.01c-0.01,2.88-0.01,5.08-0.01,6.25"/></svg>