<svg><path d="M13.75,13.75c3.7,2.87,9.57,11.79,10.5,16.25"/><path d="M40.51,13.25c0.02,0.4,0.04,1.02-0.04,1.59C39.95,18.18,37.02,25.51,33,30"/><path d="M12.71,34.02c0.75,0.25,2.11,0.25,2.86,0.25c6.18-0.02,19.75-2.1,26.43-2.7c1.24-0.11,1.99,0.12,2.61,0.24"/><path d="M14.43,49.97c0.62,0.25,1.75,0.29,2.38,0.25c5.22-0.34,18.21-2.21,24.45-3c1.02-0.13,1.65,0.12,2.17,0.24"/><path d="M13.5,71.45c0.67,0.95,1.91,1.12,2.58,0.95c5.18-1.3,20.8-8.18,29.17-11.4"/><path d="M30.16,34.56c1.09,1.19,1,2.78,1,3.61c0,38.93-2.17,46.08-14.92,58.58"/><path d="M66.94,10.75c0.76,0.43,2.01,2.09,2.01,2.95c0,3.15-0.24,4.38-0.1,7.05"/><path d="M47.54,23.42c1.56,0.28,2.92,0.59,4.71,0.38c13.25-1.56,25.74-2.9,38.14-3.45c1.83-0.08,2.76,0.03,4.12,0.49"/><path d="M51.03,31.93c0.65,0.48,0.74,1.01,0.88,1.63c0.9,4.22,2.1,11.1,3.42,19.36"/><path d="M52.65,33.01c9.17-0.98,28.09-3.68,34.23-3.74c1.87-0.02,3.44,2.34,3.28,3.49c-0.76,5.46-2.68,12.38-4.2,19.78"/><path d="M61.77,37.32c0.28,0.15,0.61,0.24,0.69,0.46c0.98,2.63,1.42,5.31,2.25,8.05"/><path d="M63.36,37.87c4.84-0.42,10.83-1.21,13.36-1.5c0.92-0.1,1.48,0.36,1.35,0.77c-0.55,1.72-0.78,4.19-1.59,6.56"/><path d="M64.7,45.16c3.3-0.49,8.65-1.11,12.86-1.59"/><path d="M56,51.83c8.11-0.66,19.81-1.54,29.5-1.79"/><path d="M54.6,60.86c0.3,0.54,0.6,0.8,0.61,1.54c0.01,0.74,1.9,20.81,2.01,21.54"/><path d="M55.17,61.46c2.33-0.16,25.81-2.86,27.94-3.04c1.77-0.15,2.48,1.86,2.43,2.42c-0.29,3.3-1.89,21.54-1.88,22.09"/><path d="M57.25,71.07c3.06-0.07,23.38-2.19,26.84-2.27"/><path d="M57.27,81.7c4.83-0.07,20.05-1.36,26.3-1.45"/><path d="M45.79,93c1.28,0.67,3.64,0.71,4.93,0.67c11.35-0.33,29.01-2.68,42.29-2.66c2.14,0,3.43,0.32,4.5,0.65"/></svg>