<svg><path d="M18.5,25.25c1.75,0.75,3.75,0.75,6.32,0.34c5.22-0.84,14.87-2.97,16.46-3.1c3.58-0.29,4.48,0.39,4.48,3.55c0,3.6-0.17,48.23-0.17,60.15c0,9.08-7.72,1.06-8.61,0.32"/><path d="M21.77,41.08c3.02,1.3,6.48,4.29,8.54,7.38"/><path d="M17,72c2.12,0.62,3.25,0.25,4.75-1.25c0.88-0.88,7.5-7.75,11.25-12"/><path d="M56.75,22.25C58.5,22.88,60,23,62.57,22.59c5.22-0.84,18.89-3.55,20.46-3.85c2.47-0.48,4.48,1.27,4.48,3.55c0,3.85-0.17,51.73-0.17,63.65c0,8.58-7.72,1.06-8.61,0.32"/><path d="M61.77,39.58c3.02,1.3,6.98,4.92,8.54,7.38"/><path d="M56.75,71c1.88,0.5,3.25,0.25,4.75-1.25c1.51-1.51,8.7-9.55,12.25-13.75"/></svg>