<svg><path d="M18.75,15.75c1,0.25,3.25,0.75,5.75,0.5c7.85-0.79,16.67-2.9,18.79-2.95c1.71-0.05,3.29,1.41,3.37,2.23c0.09,0.91-0.39,19.07-0.39,21.97c0,3.06-4.26,0.26-5.76-1.24"/><path d="M36.52,17c0.05,0.28,0.1,0.73-0.09,1.14c-1.19,2.4-7.97,7.67-17.26,10.9"/><path d="M43.01,21.75c0.07,0.42,0.15,1.08-0.14,1.68c-1.72,3.54-11.6,11.31-25.12,16.07"/><path d="M56.25,14.5c2.88,0.34,4,0.5,6.5,0c8.42-1.68,18.64-3.98,21.27-3.99c2.73-0.01,3.14,1.9,3.14,2.83c0,1.5-0.62,17.14-0.62,20.34C86.54,41,82,35.5,80.5,34"/><path d="M77.73,14.18c0.06,0.28,0.12,0.72-0.11,1.12c-1.36,2.36-9.16,7.54-19.83,10.71"/><path d="M83.24,20.75c0.07,0.33,0.14,0.85-0.13,1.33c-1.62,2.8-10.87,8.93-23.55,12.69"/><path d="M52.42,39.38c0.3,0.62,0.56,1.28,0.5,1.76C51.25,54.25,43,65.5,30.25,72"/><path d="M25.25,52.75c2,0.5,4.47,0.33,5.5,0.25c1.03-0.08,35.01-5.98,35.94-6c2.07-0.04,2.43,1.04,2.15,2.09c-0.58,2.16-1.21,5.48-1.21,8.81c0,5.38,2.11,6.98,10.36,6.98c8.91,0,10.28-1.63,10.28-6.39"/><path d="M17.16,80.29c1.4,0.45,3.97,0.56,5.37,0.45c17.79-1.46,51.9-4.15,64.17-4.32c2.33-0.03,3.73,0.21,4.9,0.44"/><path d="M52.64,66.14c0.5,0.29,1.64,2.14,1.64,2.72c0,8.39-0.06,26.69-0.16,30.27"/></svg>