<svg><path d="M26.14,16.25c1.13,0.77,1.72,1.8,1.72,2.6c0,1.82,0,9.99,0,14.94"/><path d="M11.5,34.97c1.01,0.48,2.2,0.55,3.2,0.48c5.71-0.41,17-2.32,24.76-3.28c1.68-0.21,2.7,0.23,3.54,0.47"/><path d="M15,43c3.88,10.63,5.65,21.49,6,28.5"/><path d="M37.77,38.23c1.13,1.19,0.64,3.69,0.4,4.64c-2.48,9.81-7.7,25.54-9.92,30.63"/><path d="M12,81.05c0.88,1.06,2.83,1.04,3.7,0.62C25.23,77.06,33.04,72.8,41.5,69"/><path d="M42.75,23.54c1.79,0.9,2.1,0.9,4.74,0.6c5.35-0.61,11.56-2.76,13.19-2.89c1.85-0.15,2.92,0.7,2.98,3.15c0.07,2.71-0.69,54.22-0.69,62.83c0,9.1-7.22,0.52-8.22-0.81"/><path d="M55.45,26.08c0.04,0.49,0.08,1.27-0.07,1.98c-0.91,4.17-6.1,13.33-13.21,18.93"/><path d="M59.75,44c0.06,0.82,0.13,2.11-0.12,3.29c-1.5,6.93-10.11,22.15-21.88,31.46"/><path d="M70.76,22.01c2.26,0.93,1.87,0.93,5.19,0.62c6.75-0.62,12.72-2,14.78-2.15c3.03-0.22,3.93,1.1,3.93,3.68c0,4.13-0.49,55.55-0.49,64.38c0,9.38-6.44,1.19-7.6,0.64"/><path d="M85.74,24.5c0.04,0.5,0.09,1.29-0.09,2.01c-1.12,4.24-7.07,13.54-15.9,19.24"/><path d="M91,41.75c0.06,0.69,0.13,1.79-0.12,2.79c-1.5,5.89-10.1,18.8-21.88,26.71"/></svg>