<svg><path d="M18.23,20c1.77,1,3.22,1,5.76,0.59c5.16-0.84,13.96-2.41,15.54-2.6c2.85-0.36,4.18,0.39,4.18,2.8c0,4.35,0.03,18.56,0.03,29.32c0,8.19-5.62,0.96-6.27,0.29"/><path d="M21.88,27.75c3.02,1.1,7.79,4.51,8.55,6.22"/><path d="M17.19,48.81c1.25,0.62,2.41,0.72,3.74-0.07c1.05-0.63,9.46-6.21,13.9-9.23"/><path d="M57.08,17c1.55,0.62,3.22,0.75,5.76,0.34c5.17-0.84,16.2-3.25,17.75-3.6c2.67-0.61,4.18,1.14,4.18,2.8c0,3.26-0.01,22.25-0.01,32.29c0,7.22-6.1,0.89-6.81,0.27"/><path d="M61.05,25.08c2.81,1.08,7.25,4.45,7.95,6.13"/><path d="M57.03,45.06c1.39,0.83,2.63,1.07,4.08,0.21c1-0.6,9.9-6.07,13.29-8.76"/><path d="M52.25,51.75c1,0.75,1.5,2.25,1.5,4s0,3.5,0,8.25"/><path d="M28.5,66.96c2.2,0.62,5.14,0.42,7.39,0.18c8.66-0.92,25.94-3.26,35.62-4.07c2.67-0.22,5.33-0.19,7.99,0.26"/><path d="M38.5,74.5c3.25,3.63,5.38,7.5,6.5,11.75"/><path d="M68.75,67c0.62,1.38,0.5,2.75,0,4.25c-2.85,8.55-4.75,13-7.25,19.5"/><path d="M16.75,94.3c2.89,0.77,6.67,0.66,9.62,0.34c17.03-1.83,38.84-3.78,56.5-4.31c3.63-0.11,7.28,0.17,10.88,0.75"/></svg>