<svg><path d="M12.75,31.78c1.5,0.47,3.58,0.73,4.3,0.66C21.25,32,32,30.25,38.94,29.29c1.21-0.17,1.95,0.07,2.56,0.15"/><path d="M25.67,15.38c1,0.47,2.32,2.37,2.32,4.44c0,0.96-0.13,23.96-0.33,29.81"/><path d="M14.42,51.78c1.11,0.4,2.2,0.76,4.47,0.4c5.86-0.93,17-3.61,18.61-3.93c2.5-0.5,4.56,1.16,3.75,3.25c-8,20.5-18,32-32,41.5"/><path d="M16,58.75c7.5,0,24,22.5,53.47,34.35c3.46,1.39,10.85,3.6,14,4.12"/><path d="M46.75,24.37c1.75,0.74,2.05,0.74,4.62,0.49c5.22-0.49,10.28-2.24,11.87-2.35c1.8-0.12,3.35,0.48,3.41,2.47c0.06,2.21-0.17,44.75-0.17,51.76c0,7.42-6.15,0.19-7.04-0.25"/><path d="M58.76,27c0.04,0.38,0.08,0.97-0.07,1.51c-0.89,3.19-6.01,10.19-13.01,14.48"/><path d="M63.24,40.25c0.07,0.67,0.14,1.74-0.13,2.71c-1.58,5.71-10.66,18.24-23.08,25.91"/><path d="M73.01,23.01c1.79,0.78,1.55,1.19,4.1,0.52C82,22.25,88.27,20.3,89.9,20.22c3.66-0.18,3.51,0.93,3.51,3.1c0,3.47-0.39,47.24-0.39,54.68c0,7.89-6.28,1-7.19,0.54"/><path d="M85.75,25.13c0.03,0.34,0.07,0.89-0.07,1.38c-0.84,2.92-5.63,9.32-12.18,13.23"/><path d="M89.61,40.57c0.05,0.56,0.1,1.44-0.09,2.24C88.4,47.53,82,57.91,73.25,64.25"/></svg>