<svg><path d="M39.93,12.87c0.32,1-0.07,2.03-0.61,2.79c-3.66,5.14-9.79,10.15-20.57,16.09"/><path d="M60.97,9c4.11,0.71,13.76,9.35,21.21,14.09c3.36,2.13,5.06,3.41,9.06,4.81"/><path d="M52.92,20.23c0.08,0.9-0.17,1.65-0.76,2.36c-4.66,5.6-6.56,7.38-13.01,13.06c-1.57,1.39-1,4.01,1.51,3.48c7.02-1.46,17.72-4.13,28.26-6.26"/><path d="M63.88,26.38c3.52,2.05,9.11,8.44,9.99,11.62"/><path d="M18.75,53.07c1.67,0.83,3.1,0.83,5.56,0.56c4.98-0.56,17.45-3.36,18.97-3.49C45,50,46.3,51.25,46.3,53.5c0,6-0.05,32.44-0.05,38.25c0,8.4-6,0.88-6.97-0.28"/><path d="M21.17,62.88c3.41,1,8.81,4.12,9.66,5.67"/><path d="M19.42,85.17c1.06,0.65,2.05,0.75,3.17-0.08c0.89-0.65,8.03-6.47,11.79-9.61"/><path d="M55.79,49.15c1.67,0.86,3.12,0.97,5.56,0.58c6.16-0.98,20.02-4.62,21.54-4.76c2.37-0.22,4.03,1.28,4.03,3.68c0,3.85-0.03,35.61-0.03,43.85c0,8.75-6.48-0.76-7.33-1.27"/><path d="M59.12,59.75c4.2,1.17,10.84,4.81,11.89,6.63"/><path d="M60.38,82.65c1.1,0.6,2.12,0.72,3.3-0.02c0.9-0.57,8.87-5.75,11.91-8.31"/></svg>