<svg><path d="M12.38,19.95c1.62,0.55,3.12,0.43,5.34-0.01c3.41-0.68,8.15-1.69,9.06-1.8c2.3-0.27,2.88,0.86,2.88,3.06c0,2.55-0.43,15.84-0.43,26.75c0,5.3-3.88,2.74-5.54,0.8"/><path d="M 23.65,23.52 c0.03,0.28,0.06,0.72-0.06,1.12c-0.71,2.36-4.81,7.54-10.41,10.71"/><path d="M 26.07,35.75 c0.04,0.35,0.08,0.92-0.08,1.43c-0.97,3.01-6.52,9.61-14.13,13.65"/><path d="M36.56,19.7c2.02,0.56,3.99,0.59,5.92,0.07c2.75-0.6,6.24-1.26,7.9-1.46c2.79-0.34,3.64,0.5,3.64,3.47c0,2.71-0.43,15.25-0.43,26.17c0,5.8-3.58,2.05-5.54,0.3"/><path d="M48.27,23.98c0.02,0.19,0.05,0.49-0.05,0.76c-0.59,1.61-4,5.15-8.67,7.31"/><path d="M48.77,35.88c0.03,0.27,0.07,0.69-0.06,1.07c-0.77,2.26-5.15,7.22-11.15,10.25"/><path d="M34.91,52.5c0.03,1.11-0.3,2.04-0.99,2.78c-1.47,1.85-3.37,4.16-7.16,7.82"/><path d="M18.08,64.76c0.83,0.83,1.1,1.87,1.18,2.85c0.35,4.55,1.09,13.13,1.61,20.01c0.21,2.79,0.39,5.29,0.49,7.13"/><path d="M20.28,66.5c8.72-1,16.59-2.25,24.95-3.31c1.97-0.25,2.7,1.08,2.46,4.06c-0.28,3.65-0.84,12.6-1.32,20.38c-0.15,2.35-0.29,4.59-0.42,6.54"/><path d="M21.39,78.73c9.99-1.1,15.74-1.85,24.76-2.57"/><path d="M22.12,91.64c6.12-0.26,15-1.01,22.94-1.57"/><path d="M62.73,21.98c1.92,0.37,3.84,0.37,5.77,0.13c6.24-0.74,8.12-1.24,15.25-2.01c1.92-0.21,3.8-0.26,5.68,0.12"/><path d="M57.75,44.4c2.6,0.64,5.12,0.09,7.73-0.29c8.4-1.23,15.21-2.37,23.28-3.57c2.58-0.59,5.19-0.7,7.82-0.32"/><path d="M68.11,47.93c0.52,1.07,0.67,2.54,0.5,3.96C67,65.75,65,80.38,55.5,90.75"/><path d="M79.19,44.98c1.04,1.04,1.17,2.64,1.17,4.18c0,7.33-0.1,25.74-0.1,34.32c0,7.89,1.41,9.65,7.76,9.65c8.41,0,8.23-2.13,8.23-10.23"/></svg>