<svg><path d="M44.32,12.32c0.43,0.68,1,2.02,1,2.55c0,3.63,0.11,4.31,0.08,12.05C45.35,37.32,41.5,46,30.46,51.25"/><path d="M17.79,21.52c1.89,0,4.09,0.14,5.98,0c1.89-0.13,18.18-0.94,20.39-1.35"/><path d="M17.39,30.67c1.73,0,3.76,0.22,5.49,0c1.73-0.22,16.94-1.51,21.56-2.18"/><path d="M15.75,41.79c1.57,1.68,3.22,1.7,5.81,0.66c1.53-0.61,13.19-4.52,19.68-7.46"/><path d="M60.81,11c0.41,0.22,0.65,0.97,0.73,1.4c0.08,0.43,0,33.57-0.08,36.26"/><path d="M61.99,18.93c5.44-0.16,21.4-1.37,25.48-1.64c1.49-0.1,0.45-0.05,3.02-0.05"/><path d="M62.29,28.72c5.3-0.18,20.48-1.28,24.45-1.59c1.45-0.11,0.44-0.06,2.94-0.06"/><path d="M62.19,38.68c4.99-0.07,23.8-1,27.54-1.13c1.36-0.04,0.41-0.02,2.77-0.02"/><path d="M16.48,58.44c2.54,0.89,3.04,1.28,6.71,0.6c7.86-1.46,18.47-3.25,20.78-3.38c2.62-0.15,4.14,1.19,4.22,3.6c0.09,2.67-0.85,24.71-0.85,33.22c0,8.99-5.77,0.41-7.03-0.83"/><path d="M35.01,59.25c0.06,0.37,0.12,0.95-0.11,1.47c-1.36,3.11-9.12,9.95-19.76,14.13"/><path d="M43.51,63.75c0.08,0.61,0.43,1.68-0.16,2.46C38.25,73,29.25,82.25,14.5,89.75"/><path d="M55.32,54.89c2.43,1,2.01,1,5.57,0.67c7.24-0.67,17.04-2.24,19.25-2.34c4.97-0.23,4.76,1.18,4.76,3.96c0,4.43-0.52,23.27-0.52,32.76c0,10.08-7.03,0.75-8.27,0.16"/><path d="M74.25,55.75c0.05,0.39,0.27,1.11-0.11,1.58C71.25,61,65,67,54.5,72.5"/><path d="M80,62.75c0.08,0.56,0.28,1.51-0.14,2.26C76.75,70.5,68,79.75,54.16,87.19"/></svg>