<svg><path d="M11.68,30.13c1.81,0.26,3.64,0.42,5.45,0.11c6.61-1.12,14.62-2.15,20.25-2.77c2.06-0.4,4.12-0.44,6.17-0.11"/><path d="M25.95,13.88c0.9,0.9,1.17,1.99,1.17,2.74c0,0.48-0.12,20.5-0.12,24.51"/><path d="M13.52,42.91c0.48,1.07,0.71,1.61,1.26,2.86c0.79,1.79,2.09,12.61,2.87,17.26"/><path d="M15.08,43.41c3.35-0.44,16.31-2.22,22.42-2.92c3.25-0.37,4.42,0.81,4.08,3.63c-0.45,3.75-1.6,10.9-2.87,16.97"/><path d="M17.24,52.38c5.39-0.63,17.14-2.25,22.49-2.75"/><path d="M18.7,61.56c6.8-0.81,14.18-1.69,19.23-2.14"/><path d="M10.49,77.32c2.21,0.49,4.42,0.45,6.62-0.11c6.35-0.92,14.71-2.32,20.51-2.88c1.8-0.3,3.59-0.26,5.38,0.14"/><path d="M26.57,62.99c0.72,0.72,1.07,1.89,1.07,2.99c0,0.58-0.01,14.36-0.01,24.02c0,3.46,0,6.39,0,8"/><path d="M68.08,12.75c0,1.38-0.3,2.99-0.98,4.32c-3.98,7.8-9.61,19.18-21.03,29.18"/><path d="M68.5,18.38c4.62,4.5,11.07,11.24,17.13,16.73c2.97,3.02,6.4,5.31,10.29,6.89"/><path d="M48.59,49.73c1.54,0.52,2.69,0.61,4.22,0.33c2.39-0.45,6.78-1.38,9.12-1.82c3.5-0.67,4.04,0.07,4.04,2.88c0,7.32-0.08,33.13-0.08,40.88c0,6.27-4.6,0.73-5.13,0.22"/><path d="M 59.697393,52.392699 c 0.05,0.37 0.09,0.97 -0.08,1.51 -1.03,3.18 -4.677024,9.164233 -12.757024,13.434233"/><path d="M 62.324418,66.257163 c 0.06,0.56 0.213465,1.468592 -0.11,2.24 -2.139371,5.102026 -6.05842,11.498512 -15.266886,17.532653"/><path d="M71.72,48.87c1.9,0.38,3.51,0.47,5.19,0.06c3.91-0.95,6.46-1.43,9.87-2.44c2.18-0.65,3.52,1.02,3.5,3.01c-0.05,7.27-0.04,34.9-0.04,42.37c0,5.84-4.7,0.89-5.24,0.39"/><path d="M 84.180046,51.104187 c 0.03,0.37 0.07,0.97 -0.07,1.5 -0.84,3.17 -4.392791,9.124233 -10.972791,13.374233"/><path d="M 86.734233,66.000093 c 0.05,0.52 0.1,1.33 -0.09,2.08 -0.911029,4.757163 -4.080257,9.084002 -13.234095,14.596839"/></svg>