<svg><path d="M18.84,23.08c1.02,0.38,2.89,0.44,3.91,0.38c3.49-0.21,15.24-1.71,19.95-1.86c1.7-0.05,2.72,0.18,3.57,0.37"/><path d="M32.18,13.04c0.07,0.23,1.04,1.2,1.04,2.66c0,1.65-0.35,8.77-0.35,15.61"/><path d="M15.2,32.68c0.89,0.48,2.53,0.56,3.43,0.48C26.75,32.5,37,31,47.13,29.81c1.48-0.17,2.38,0.23,3.13,0.47"/><path d="M13.69,45.24c0.4,0.36,1.17,0.38,1.57,0.34c2.62-0.24,10.62-0.81,13.42-1.4c0.66-0.14,1.37-0.17,1.7,0.01"/><path d="M22.25,38.32c0.53,0.45,0.96,1.99,0.96,2.9c0,6.46,0.02,4.24,0.02,13.82"/><path d="M13.3,58.27c0.45,0.53,1.83,0.83,3.18,0.13c3.75-1.95,10.52-4.95,14.27-6.9"/><path d="M33.76,42.29c0.44,0.25,1.24,0.26,1.68,0.25c4.07-0.08,9.31-1.29,13.71-1.83c0.72-0.09,1.17,0.12,1.53,0.25"/><path d="M42.11,34.69c0.06,0.21,0.81,1.09,0.81,2.42c0,1.49-0.16,11.24-0.16,17.44"/><path d="M32.27,55.41c0.55,0.27,1.84,0.33,2.39,0.27c4.9-0.48,10.5-1.37,15.42-1.74c0.91-0.07,1.47,0.13,1.92,0.27"/><path d="M13.22,66.5c1,0.6,2.85,0.67,3.85,0.6c7-0.45,20.93-2.85,29.6-3.82c1.66-0.19,2.68,0.29,3.52,0.59"/><path d="M26.73,68.63c0.02,0.87,0.56,1.72,0.4,2.69C25.75,80,22.25,89.75,10.5,96.5"/><path d="M38.72,64.46c1.35,1.29,0.99,1.81,0.99,3.79c0,2.66-0.05,9.15-0.05,15.17c0,11.32,1.09,12.49,30.72,12.49c24.02,0,27.9-2.47,27.9-10.96"/><path d="M53.72,22.58c1.42,0.86,1.66,0.86,3.75,0.57c4.23-0.57,9.14-2.6,10.43-2.73c1.46-0.14,2.31,1.14,2.35,3.45c0.05,2.56-0.54,50.77-0.54,58.91c0,8.6-4.98,0.21-5.71-0.29"/><path d="M63.49,25.25c0.03,0.44,0.2,1.18-0.06,1.77C61.5,31.5,58.25,37.75,52.75,44"/><path d="M65.25,44c0.04,0.7,0.21,1.85-0.08,2.83C63,54,57.75,64.5,49.79,73.89"/><path d="M75.4,19.81c1.61,0.84,1.33,0.84,3.69,0.56c4.8-0.57,8.69-1.87,10.16-1.96c3.3-0.2,3.16,1,3.16,3.34c0,3.75-0.35,50.46-0.35,58.48c0,8.52-5.65,1.08-6.48,0.58"/><path d="M84.71,23.43c0.02,0.39,0.05,1-0.05,1.55c-0.56,3.27-3.77,10.45-8.16,14.84"/><path d="M88.26,43c0.04,0.62,0.25,1.64-0.08,2.48c-2.43,6.27-5.43,13.27-12.43,22.27"/></svg>