<svg><path d="M27.75,26.47c0.77,0.21,2.19,0.23,2.96,0.21c8.79-0.33,25.79-2.72,33.21-3.17c1.28-0.08,2.06,0.1,2.71,0.2"/><path d="M47.17,12.12c0.12,0.18,1.65,0.96,1.77,2.13c0.57,5.61,0.31,20.95,0.31,22.86"/><path d="M13.5,40.79c1.57,0.43,4.46,0.62,6.01,0.43c16.24-1.97,47.24-5.97,69.37-8.01c2.6-0.24,4.18,0.21,5.49,0.43"/><path d="M79.34,14.88c0.18,1.01-0.05,2.85-1.35,4.05C61.31,34.26,41.25,49.96,13.56,61.71"/><path d="M71.84,41.5c0.4,0.35,0.72,1.43-0.37,1.93c-7.7,3.48-20.6,8.07-31.47,10.09"/><path d="M37.85,44.92c0.9,0.36,0.96,0.59,1.26,1.07c0.3,0.47,0.3,6.38,0.3,7.87c0,6.39,11.99,5.22,22.2,5.22c11.14,0,19.89-0.58,19.93-5.64"/><path d="M36.52,68.69c0.39,0.78,1.28,2.18,1.28,3.22c0,1.04,2.87,25.29,3,26.34"/><path d="M38.44,70.32c2.2-0.13,32.91-3.17,34.92-3.33c1.67-0.13,3.74,2.45,3.61,3.22c-0.26,1.57-3.52,26.23-3.52,27.01"/><path d="M39.33,81.98c2.97,0,32.36-2.31,35.72-2.31"/><path d="M42.19,95.31c6.06-0.56,22.81-1.06,30.35-1.54"/></svg>