<svg><path d="M35,24.52c1.5,0.27,4.25,0.38,5.76,0.27c9.12-0.64,17.37-2.13,24.11-2.52c2.49-0.14,4.01,0.13,5.26,0.26"/><path d="M52.17,10.87c0.98,0.98,1.77,2.38,1.77,3.89c0,6.96,0.13,18.42,0.08,23.5"/><path d="M13.25,42.28c2.79,0.69,7.32,0.7,10.11,0.44c22.93-2.1,39.09-4.6,63.81-5.43c4.63-0.16,7.14,0.08,9.46,0.43"/><path d="M81.59,14.23c0.19,1.38-0.08,3.39-1.47,5.03C63,39.62,46.88,55.25,14.62,72.75"/><path d="M76.26,48.75c-0.26,1.12-0.94,2.24-2.61,3.04C68.75,54.12,62,56.38,54.5,58.5"/><path d="M53.25,50.25c0.5,1.25-0.22,3.1-1.73,5.58c-1.77,2.92-4.76,6.83-5.26,7.45c-2.01,2.47-1.51,4.36,1.14,4.25c3.47-0.15,23.72-2.52,29.51-3.24c3.35-0.42,4.84,1.97,3.93,4.6c-2.3,6.72-7.79,21.33-12.08,26.38c-2.52,2.98-5.27,0.73-7.54-2.57"/></svg>