<svg><path d="M29.75,22.26c0.88,0.19,2.5,0.22,3.39,0.19c10.04-0.31,23.46-2.5,31.94-2.92c1.47-0.07,2.36,0.09,3.09,0.18"/><path d="M50.67,11.12c1.08,0.63,1.77,1.26,1.77,2.2c0,8.18-0.19,16.75-0.19,18.28"/><path d="M17,34.86c1.44,0.37,4.09,0.53,5.51,0.37c14.88-1.67,43.55-4.98,64.59-6.28c2.38-0.15,3.83,0.18,5.03,0.36"/><path d="M77.25,13.5c0.17,0.86,0.34,2.38-0.83,3.46C61.25,31,45,44.25,18.56,52.96"/><path d="M73.26,36c-0.01,1.25-0.8,2.55-1.86,3.09c-7.44,3.77-17.9,7.74-28.4,9.93"/><path d="M40.75,39.25c0.89,0.37,0.95,0.61,1.24,1.1c0.3,0.49,0.3,5.57,0.3,7.1c0,6.58,11.88,5.38,22,5.38c18.71,0,20.75-1.33,20.75-8.31"/><path d="M69.99,55.25c0.13,0.25,0.01,1.17-0.75,1.51C61.5,60.25,43,65,26.57,65.89"/><path d="M21.5,74.77c1.47,0.56,4.19,0.73,5.65,0.56c15.31-1.78,37.35-5.82,50.44-7.72c2.42-0.35,2.93-0.24,4.16,0.04"/><path d="M16.75,87.03c1.5,0.48,5.86,0.78,7.33,0.48c20.67-4.26,48.28-9.11,61.83-10.2c2.48-0.2,5.59-0.27,6.84-0.03"/><path d="M51.09,65.27c0.77,0.63,1.38,1.37,1.42,2.35c0.21,4.34,0.25,17.95,0.25,20.62c0,7.02,3.54,9.3,18.76,9.3c16.98,0,18.98-3.84,18.98-8.48"/></svg>