<svg><path d="M44.23,19.66c-0.23,0.84-0.2,1.5-0.65,1.89c-5.58,4.88-12.89,9.81-27.57,12.2"/><path d="M14.22,42.18c0.48,0.31,3.67,0.87,4.15,0.84c4.95-0.36,17.94-1.88,25.79-3.15c0.79-0.13,2.2-0.35,2.6-0.19"/><path d="M11.34,55.14c0.44,0.28,3.21,0.82,4.37,0.82c6.05,0.01,19.79-2.29,29.64-3.39c1.15-0.13,2.18-0.19,2.91,0.08"/><path d="M30.11,13.5c1.05,0.45,1.89,3.35,1.89,4.3c0,3.62,0.35,74.05,0.14,79.7"/><path d="M31.25,55.75c-3.53,9.5-12.66,23.9-20.01,29.27"/><path d="M34,60c5.14,2.59,8.91,6.58,12,11.05"/><path d="M54.65,18.34c0.81,0.7,1.29,3.17,1.45,4.58c0.16,1.41,0,63.77-0.16,72.58"/><path d="M56.25,21c9.5-1.25,26.47-2.13,31.11-2.82c1.64-0.24,3.62,1.93,3.38,3.35c-0.97,5.87-2.07,12.41-4.15,20.87"/><path d="M56.17,45.27c13.51-1.37,25.8-1.75,32.17-2.25"/><path d="M56.25,64.46c8.5-0.74,25-2.22,32.39-3.44c3.11-0.51,4.34,1.23,3.8,4.19C91,73,90.45,79.97,88.29,91.29"/><path d="M56.81,92.63c7.76-0.53,24.59-0.99,34.37-1.6"/></svg>