<svg><path d="M16.3,29.85c1.61,0.65,4.03,0.7,5.71,0.46c6.74-0.99,12.98-2.28,19.25-3.15c1.58-0.22,3.26-0.71,4.86-0.36"/><path d="M18.81,42.33c1.78,0.57,3.88,0.22,5.68-0.03c5.12-0.73,12.26-2.58,16.64-3.39c1.38-0.25,2.62-0.24,4-0.22"/><path d="M12.03,55.29c2.61,0.73,4.88,0.92,7.61,0.47c7.1-1.17,18.06-3.52,22.98-4.53c1.7-0.35,3.44-0.67,5.18-0.38"/><path d="M31.95,13.25c0.96,0.96,1.14,2.38,1.14,3.66c0,0.81,0.02,55.09,0.02,74.59c0,2.95-0.05,4.99-0.08,5.75"/><path d="M31.8,54.36c0,1.27-0.32,2.73-0.97,4.05C25.81,68.55,18.38,78.88,8.55,86.74"/><path d="M35.62,59.25c2.04,1.83,6.68,8.27,8.46,11.88"/><path d="M78.28,14c-0.28,1.25-0.64,1.91-1.62,2.81C71.88,21.16,62.72,26.81,52,31"/><path d="M53.25,48.01c2.88,0.74,4.81,0.38,6.89-0.2c8.24-2.31,15.49-4.43,23.23-5.72c1.84-0.31,3.75-0.52,5.51,0.03"/><path d="M49.88,65.92c2.15,1.31,6.16,0.87,8.41,0.21C69,63,80.59,59.48,88.47,58.04c2.38-0.43,4.69-0.62,7.06-0.04"/><path d="M65.74,27.87c1.01,1.01,1.35,2.38,1.35,4.43c0,8.19-0.08,42.18-0.08,47.2c0,11.92,1.91,13.78,14.99,13.78c13.42,0,14.26-1.86,14.26-11.28"/></svg>