<svg><path d="M76.96,17.25c0.04,1.25-0.97,2.22-2.24,2.69c-6.97,2.56-18.97,8.31-41.97,10.36"/><path d="M27.63,42.27c0.88,0.28,2.49,0.31,3.37,0.28c9.16-0.32,36-2.8,49.14-3.23c1.47-0.05,2.35,0.13,3.08,0.27"/><path d="M16.94,56.75c0.89,0.25,3.27,0.82,5.64,0.75c8.92-0.25,44.17-3.25,62.91-3.5c2.37-0.03,4.47,0.25,5.95,0.5"/><path d="M51.16,11.5c1.48,0.5,2.67,3.71,2.67,4.75c0,4,0.5,75.75,0.2,82"/><path d="M53.5,56.25C46.71,66.79,29.13,82.78,15,88.75"/><path d="M54.25,56c5,6.36,26.14,24.53,33.59,29.84c1.86,1.33,3.35,2,5.16,2.41"/></svg>