<svg><path d="M13.82,21.12c2.43,0.76,4.86,0.32,6.82,0.06c7.19-0.94,19.6-2.79,27.75-3.49c2.06-0.18,4.16-0.43,6.15,0.26"/><path d="M33.56,23.45c0.03,0.44,0.06,1.14-0.06,1.77c-0.51,2.59-2.68,7.33-5.87,11.66"/><path d="M14,39.82c1.15,1.15,1.09,2.43,1.09,3.78C15.09,50,15,69.14,15,80.18c0,2.87,0,4.95,0,5.7"/><path d="M15.38,41.25c7.72-1.21,25.87-3.66,32.14-4.49C50.86,36.32,53,36.6,53,40.5c0,6.8-0.03,32.25-0.03,38.59c0,11.41-3.21,5.66-5.67,2.94"/><path d="M27.06,42.22c0.98,0.98,1.04,2.65,1.04,4.82c0,9.34,0.04,17.34-0.04,25.46c-0.02,2.07-0.04,4.16-0.04,6.31"/><path d="M38.09,40.13c1.01,1.01,1.29,2.24,1.29,4.07c0,10.97,0.08,20.13,0.03,27.52c-0.02,2.58-0.03,5.07-0.03,7.54"/><path d="M59.81,41.23c2.59,0.6,4.59,0.47,7.2,0.06c7.24-1.12,18.17-3.07,26.12-4.02c1.94-0.23,4.37-0.4,6.12,0.22"/><path d="M83.21,14.08c0.98,0.98,1.56,2.29,1.56,4.6c0,19.79,0.03,66.39,0.03,71.2c0,11.67-6.32,1.73-8.16,0.24"/><path d="M63.88,55.38c2.47,1.92,6.38,7.89,7,10.87"/></svg>