<svg><path d="M36.99,19.91c0.07,0.32,0.3,0.97-0.13,1.29C30,26.25,21,30.75,12.5,33"/><path d="M10.68,41.42c0.44,0.26,3.4,0.73,3.84,0.7c4.58-0.3,14.78-1.5,22.04-2.57c0.73-0.11,2.03,0.13,2.4,0.26"/><path d="M9.84,54.47c0.36,0.25,2.65,0.74,3.61,0.75c4.99,0.01,16.35-2.09,24.48-3.08c0.95-0.12,1.8,0.25,2.4,0.5"/><path d="M25.2,10.75c0.71,0.47,1.27,3.47,1.27,4.44c0,3.74,0.24,76.96,0.1,82.81"/><path d="M26.53,55.86C23.7,64.83,16.38,78.42,10.5,83.5"/><path d="M29,61.5c4.71,3.22,8.17,8.19,11,13.75"/><path d="M46.81,23.05c0.29,0.96,0.49,1.91,0.59,2.84c0.1,0.94,0.22,57.66,0.18,59.73"/><path d="M47.48,24.61c1.17-0.1,11.85-2.27,12.72-2.43c1.55-0.28,2.64,1.75,2.45,3.12c-0.18,1.31-0.09,32.25-0.15,50.97"/><path d="M48.02,44.25C52,43.5,56.86,43.07,62,42.15"/><path d="M48,61.39c4.28-0.9,8.78-1.63,13.84-2.23"/><path d="M39,87.93c1.25,0.82,2.64,1.41,4.98,0.28c1.66-0.8,17.8-8.31,24.77-12.71"/><path d="M67.5,38.25c0.79,0.74,4.26,0.62,5,0.5c7.5-1.25,17.67-3.17,20.87-3.93c2.08-0.49,4.13,0.71,3.98,4.16c-0.6,14.26-6.03,43.93-8.94,50.32c-3.16,6.94-5.16,5.19-7.5,1.76"/><path d="M83.95,14.5c0.39,0.64,0.42,4.49,0.46,7.04C84.73,41.92,76.74,79.2,61.25,95"/></svg>