<svg><path d="M9.53,21.35c0.83,0.53,2.34,0.6,3.18,0.53c6.57-0.5,19.64-3.93,29.39-4.86c1.38-0.13,2.21,0.25,2.9,0.52"/><path d="M18.25,24.32c0.25,1.18,0.97,2.33,0.97,3.72c0,1.39,0.38,40.8,0.38,45.79"/><path d="M20.55,38.23c6.99-1.73,8.89-1.98,15.07-2.83"/><path d="M20.31,52.7c5.71-1.2,7.99-2.2,14.95-3.05"/><path d="M10.25,77.49c0.76,0.51,2.15,0.64,2.79,0.27C15.61,76.29,32.06,65.96,36,63.59"/><path d="M35.14,21.25c0.76,1.25,0.84,1.46,0.84,2.85s0.12,60.03,0.12,71.4"/><path d="M50.91,35.38c0,3.65-2,13.68-2.91,16.12"/><path d="M51.24,38.15c11.69-2.51,28.5-5.04,36.86-5.88c11.22-1.13,3.55,6.81-0.42,9.89"/><path d="M68.22,13c0.84,1.73,1.05,2.27,1.08,4.95c0.17,22.46-0.85,59.74-26.63,75.47"/><path d="M70.99,53.37c0.62,1.2,1.11,2.61,1.14,4.45c0.17,8.24-0.02,18.25-0.02,23.86c0,13.08,5.75,10.59,13.05,10.59c11.87,0,10.73-3.3,10.73-10.19"/></svg>