<svg><path d="M12.75,18.48c0.82,0.42,2.33,0.47,3.16,0.42c6.53-0.39,20.02-2.62,29.71-3.35c1.37-0.1,2.2,0.2,2.88,0.41"/><path d="M21.09,20.07c0.24,1.18,0.96,2.33,0.96,3.72c0,1.39-0.12,41.3-0.12,46.29"/><path d="M22.3,34.98c8.15-1.73,10.87-1.48,18.08-2.33"/><path d="M22.49,48.95c6.94-1.2,13.01-1.95,18.17-2.55"/><path d="M11.75,75.01c0.83,0.49,2.36,0.61,3.06,0.26C17.63,73.86,35.67,64,40,61.75"/><path d="M40.08,19.5c0.88,1.31,0.97,1.54,0.97,2.99s0.14,63.06,0.14,75.01"/><path d="M46.7,34.25c3.32,3.42,8.76,14.83,9.67,18.25"/><path d="M90.06,28.5c0.83,0.95,0.75,2.69,0,4.15c-0.75,1.47-9.04,13.43-12.81,16.85"/><path d="M68.01,13.5c0.86,0.8,1.04,2.92,1.04,4.25c-0.17,52.81-8.15,64.75-21.8,77.75"/><path d="M67.75,52c7.5,18.5,19.45,34.54,24.95,41.68c1.73,2.25,2.13,2,3.55,2.57"/></svg>