<svg><path d="M10.55,20.72c0.76,0.43,2.14,0.48,2.91,0.43c6.02-0.4,17.79-1.9,24.89-3.39c1.24-0.26,2.52-0.3,3.15-0.08"/><path d="M18.62,24.57c0.38,0.93,0.75,2.24,0.75,3.57c0,1.33-0.09,37.65-0.09,42.44"/><path d="M19.75,39.25c7.07-1.84,9-2.11,15.25-3"/><path d="M19.46,52.45c5.79-1.2,8.11-1.7,15.18-2.55"/><path d="M11.25,73.6c0.7,0.39,1.98,0.5,2.56,0.21c2.36-1.14,17.45-9.14,21.07-10.96"/><path d="M34.51,22c0.77,1.25,0.85,1.96,0.85,3.35s0.12,59.03,0.12,70.4"/><path d="M58.76,13.25c0.03,0.27,0.1,0.76-0.05,1.06c-1.86,3.74-5.21,6.94-10.46,11.19"/><path d="M46.37,28.26c0.54,0.48,1.81,2.69,1.92,3.66c0.11,0.96-0.23,30.89-0.35,33.28c-0.11,2.17,0.04,5.27,1.32,3.58c1.28-1.69,7.24-6.96,11.94-10.89"/><path d="M61.05,24.68c0.88,0.91,1.6,2.23,1.6,4.55c0,24.28,3.53,54.03-15.86,64.68"/><path d="M73.54,22.99c0.58,0.21,2.23,0.43,3.4,0.28c4.31-0.53,10.94-2.64,12.39-2.85c1.45-0.21,4.21,0.32,4.21,3.07c0,10.26,0.71,26.51,0.02,40.38c-0.63,12.61-6.82,2.57-7.26,2.14"/><path d="M75.7,25.11c0.2,0.93,0,65.34-0.2,71.14"/></svg>