<svg><path d="M9.3,18.5c0.87,0.4,2.46,0.45,3.33,0.4c6.9-0.37,20.6-2.45,30.83-3.15c1.44-0.1,2.32,0.19,3.04,0.39"/><path d="M19,21.5c0.75,1,1.24,2.38,1.24,3.8c0,1.42-0.09,43.19-0.09,48.28"/><path d="M21.21,36.72c7.67-1.43,9.76-1.63,16.54-2.32"/><path d="M21.25,52.92c6.68-0.95,9.35-1.74,17.5-2.42"/><path d="M11.75,75.75c0.75,0.5,2.59,0.39,3.21,0.17c2.49-0.9,17.96-7.22,21.79-8.66"/><path d="M38.01,20c0.77,1.25,0.85,1.46,0.85,2.85s0.12,64.03,0.12,75.4"/><path d="M87.5,14.5c0,1.25-0.8,2.57-1.44,2.95C80,21,71.6,25.67,51,30.25"/><path d="M45.5,46.11c1.1,0.24,3.84,0.31,4.93,0.24c9.46-0.53,30.4-3.74,43.48-3.89c1.83-0.02,2.93,0.12,3.84,0.24"/><path d="M69.75,27.75c0.36,0.4,1.13,2.97,1.2,3.77c0.13,1.48-0.04,30.63-0.12,35.73"/><path d="M52.25,67.08c0.6,0.45,1.39,1.78,1.48,2.38C55,77.5,55.75,84,57.25,95.75"/><path d="M54.62,69.45c11.17-1.45,27.02-3.21,33.3-3.81c2.3-0.22,2.96,2.22,2.63,3.51c-1.36,5.33-3.25,14.63-4.21,22.86"/><path d="M57.01,93.79C64.34,93.28,76,92.5,88.5,92.11"/></svg>