<svg><path d="M16.69,18.5c1.76,0.56,4.46,0.5,6.32,0.25c8.37-1.12,18.24-3.02,26.1-3.78c2.2-0.21,4.5-0.2,6.64,0.2"/><path d="M25.93,22.07c0.88,0.88,1.03,2.33,1.03,3.72c0,3.96-0.08,21.38-0.08,27.84"/><path d="M28.05,29.73c7.57-1.48,12.57-2.11,19.33-3.08"/><path d="M27.74,41.7C34,40.5,40.62,39,48.41,37.9"/><path d="M14,57.39c1,0.86,2.41,0.97,3.45,0.63c6.43-2.14,17.68-5.64,29.43-9.67"/><path d="M47.75,18.5c0.62,0.62,1.1,1.71,1.1,3.1c0,1.22-0.13,18.68-0.1,30.65c0,1.62,0.01,3.14,0.01,4.5"/><path d="M62.89,28.15c0.92,0.92,1.41,1.79,1.44,2.83c0.8,3.58,1.9,9.07,2.77,13.95c0.24,1.34,0.46,2.63,0.65,3.82"/><path d="M65.31,29.11C75.25,27.5,83,26.2,91.18,25.13c2.05-0.26,3.45,0.87,3,2.71c-1.24,5.07-1.79,6.93-3.96,15.38"/><path d="M68.72,46.8c3.9-0.44,12.19-1.38,18.8-2.07c1.54-0.16,2.98-0.32,4.22-0.48"/><path d="M30.5,63.97c2.33,0.58,4.79,0.53,7.12,0.25c6.96-0.84,25.07-2.77,35.26-3.39c2.07-0.12,4.13-0.29,6.12,0.42"/><path d="M53.86,65.25c0.88,0.88,1.23,2.12,1.23,3.69C55.09,74,55.08,84,55.08,89"/><path d="M32.5,77.25c2.2,0.47,4.41,0.3,6.62,0.09c9.47-0.93,23.5-2.46,33.14-2.98c2.52-0.13,4.86-0.24,6.99,0.14"/><path d="M22.25,92.19c3.75,0.56,7.56,0.39,11,0.03c16.73-1.73,31.92-3.35,49.76-4.06c2.98-0.12,7.62,0.22,9.74,0.81"/></svg>