<svg><path d="M10.25,20.77c0.83,0.47,2.36,0.53,3.2,0.47c6.63-0.44,19.8-3,29.62-3.82c1.39-0.12,2.23,0.22,2.92,0.46"/><path d="M19.86,24.07c0.39,1.18,1.01,2.4,1.01,3.82c0,1.43-0.12,42.48-0.12,47.61"/><path d="M21.96,38.53c5.29-1.03,9.61-1.45,16.29-2.28"/><path d="M22.71,53.49c5.79-0.74,8.11-1.36,15.18-1.88"/><path d="M11.75,78.84c0.72,0.41,2.05,0.51,2.65,0.22c2.44-1.18,18.09-9.42,21.85-11.3"/><path d="M38.01,21.5c0.77,1.25,0.85,2.46,0.85,3.85s0.12,59.03,0.12,70.4"/><path d="M49.25,24c0.75,0.59,1.33,1.19,1.5,1.71c1.43,4.21,2.66,13.79,3.5,21.54"/><path d="M51.75,24.75c10-1.5,27.53-4.24,35.07-4.62c2.77-0.14,3.81,2,3.66,3.06c-0.55,3.88-2.72,14.53-4.46,20.91"/><path d="M67.7,11.75c0.97,0.44,1.55,2.07,1.55,2.65c0.03,5.71,0.18,26.59,0.18,28.08"/><path d="M53.99,34.53c3.18-0.41,30.99-3.8,33.62-3.8"/><path d="M54.88,45.36c10.37-1.11,21.18-2.55,31.12-2.7"/><path d="M46.29,56.51c1.22,0.37,3.45,0.42,4.67,0.37c9.43-0.34,27.98-3.79,41.53-4.31c2.03-0.08,3.25,0.18,4.26,0.37"/><path d="M62.54,57.77c0.3,0.59,0.47,1.34,0.06,2.18c-1.14,2.34-2.93,7.17-4.45,9.52c-0.86,1.33-0.28,2.56,1.79,2.18c3.76-0.69,17.37-3.2,22.03-4.06c4.52-0.83,4.49,1.67,3.93,4.82c-1.18,6.67-4.74,15.3-9.04,21.19c-3.76,5.15-5.96,1.65-7.73-1.21"/></svg>