<svg><path d="M11.07,20.19c2.18,0.56,4.41,0.32,6.31,0.14c7.14-0.68,16.02-1.93,24.88-2.51c1.94-0.13,3.85-0.32,5.74,0.24"/><path d="M19.76,22.91c0.85,0.85,1.07,2.2,1.07,3.52c0,1.31-0.08,38.98-0.08,43.7"/><path d="M22,37.01c3.75-0.51,12.25-1.26,15.83-1.42"/><path d="M21.99,52.58c3.56-0.33,11.14-1.08,15.58-1.41"/><path d="M10.5,72.62c0.88,0.88,2.23,1.05,3.14,0.72c4.99-1.83,23.17-6.85,28.87-8.8"/><path d="M38.05,20.73c0.98,0.98,0.92,2.14,0.92,3.45c0,1.09-0.07,41.08-0.09,60.57c0,3.89-0.01,6.96-0.01,8.75"/><path d="M60.79,18.67c0.08,1.08-0.1,2.39-0.43,3.2c-1.82,4.53-4.9,9.83-9.92,15.34"/><path d="M72.78,14.5c2.91,1.31,12.46,13.55,17.06,17.65c1.79,1.6,3.04,2.72,4.96,3.83"/><path d="M68.49,32.84c0.38,1.03,0.31,2.19-0.26,3.17c-3.42,5.91-7.45,11.24-12.43,17.54c-2,2.53-1.77,4.52,1.89,3.63c7.43-1.8,14.93-3.68,22.24-5.27"/><path d="M77,45.62c3.92,2.14,10.14,8.8,11.12,12.12"/><path d="M50.21,75.82c0.19,2.28-1.88,12.36-3.39,16.17"/><path d="M57.07,72.75c5.68,10.38,11.5,20.55,28.68,20.68c8.29,0.07,8.83-2.93,1.92-7.94"/><path d="M67.7,65.5c1.44,5.25,3.79,10.75,5.33,2.71"/><path d="M86.09,64.98c3.08,2.07,6.66,6.14,8.9,11.61"/></svg>