<svg><path d="M10.05,18.31c0.78,0.35,2.21,0.39,3,0.35c6.2-0.32,18.53-2.56,27.72-3.16c1.3-0.09,2.08,0.17,2.73,0.34"/><path d="M16.87,20.57c0.25,1.18,0.99,2.33,0.99,3.72c0,1.39-0.12,45.8-0.12,50.79"/><path d="M18.71,36.48c5.54-0.98,8.79-0.98,16.3-1.83"/><path d="M17.96,52.95c5.79-1.2,9.11-1.7,16.18-2.55"/><path d="M10.25,77.19c0.93,0.56,2.62,0.71,3.4,0.3c3.13-1.63,16.18-8.04,20.98-10.65"/><path d="M34.01,19c0.77,1.25,0.85,1.46,0.85,2.85s0.12,64.03,0.12,75.4"/><path d="M64.91,11.67c0.71,0.8,1.93,2.8,1.91,3.9c-0.07,3.46-0.07,6.98-0.07,10.13"/><path d="M47.48,26.66c0,3.43-3.54,12.86-5.15,15.14"/><path d="M47.87,28.76c11.77-2.11,31.12-3.63,42.19-4.14c10.17-0.47,3.22,6.21,0.05,8.96"/><path d="M50.07,43.21c2.21,0.42,4.34,0.28,6.58,0c7.49-0.95,21.04-2.4,24.56-2.4c3.03,0,1.96,0.12,4.39,0.12"/><path d="M65.66,42.7c0.81,0.42,1.3,1.9,1.46,2.75c0.16,0.85,0.37,29.08,0.21,34.37"/><path d="M67.53,61.35c7.08-0.51,9.9-1.03,20.59-2.06c1.72-0.17,2.17-0.17,3.25,0"/><path d="M53.29,53.21c0.04,1.02,0.08,2.64-0.07,4.1C52.3,65.98,49,84,39.81,94.92"/><path d="M51.94,69.55C60.5,75.75,79,88.5,87.68,93c2.08,1.08,3.78,1.66,5.81,2"/></svg>