<svg><path d="M10.5,23.38c0.74,0.41,2.08,0.46,2.82,0.41c5.84-0.39,16.45-2.06,25.11-2.78c1.22-0.1,1.96,0.2,2.58,0.4"/><path d="M18.11,26.16c0.24,1.15,0.96,2.26,0.96,3.61c0,1.35-0.12,37.6-0.12,42.45"/><path d="M19.39,40.66c4.86-0.91,9.26-1.43,15.35-2.24"/><path d="M19.66,54.21c3.84-0.71,8.37-1.64,15.24-2.46"/><path d="M11.99,74.17c0.68,0.34,1.93,0.43,2.51,0.18c2.31-1,17.08-7.97,20.62-9.57"/><path d="M34.27,23.67c0.75,1.21,0.82,1.42,0.82,2.77c0,1.35,0.12,58.29,0.12,69.33"/><path d="M53.29,13.12c0.25,0.92,0.28,1.55-0.12,2.61c-1.69,4.46-6.9,13.18-9.62,16.23c-0.46,0.52-0.29,1.62,0.21,1.79c2.62,0.92,6.62,3.4,10.19,5.12"/><path d="M63.95,20.95c0.25,0.46,0.09,2.17-0.21,2.71c-3.62,6.68-12.69,20.63-18.68,28.15c-0.81,1.01-0.01,2.24,1,1.99c5.43-1.32,11.02-2.98,16.39-4.21"/><path d="M59.88,43.9c2.29,2.02,5.91,8.29,6.48,11.42"/><path d="M80.79,13.37c0.25,0.92,0.28,1.55-0.12,2.61c-1.69,4.46-6.9,13.18-9.62,16.23c-0.46,0.52-0.29,1.62,0.21,1.79c2.62,0.92,5.62,2.9,9.19,4.62"/><path d="M91.95,19.2c0.25,0.46,0.09,2.17-0.21,2.71c-3.62,6.68-12.69,20.13-18.68,27.65c-0.81,1.01-0.51,2.24,0.5,1.99c5.43-1.32,13.02-3.48,18.39-4.71"/><path d="M88.13,40.9c2.38,2.06,6.14,8.47,6.73,11.67"/><path d="M42.13,72.93c1.27,0.51,3.59,0.6,4.86,0.51c13.19-0.86,29.95-3.57,46.7-4.01c2.11-0.06,3.38,0.25,4.44,0.5"/><path d="M58.44,61.78c0.37,0.8,0.78,1.64,0.75,2.81C58.86,75.55,59.25,88.25,48.2,96.7"/><path d="M79.65,59.88c0.72,0.88,1.25,1.97,1.25,3.73c0,5.92,0,28.02-0.14,33.5"/></svg>