<svg><path d="M11.05,18.73c0.76,0.43,2.14,0.48,2.91,0.43c6.02-0.4,17.97-2.65,26.89-3.39c1.26-0.1,2.02,0.2,2.65,0.42"/><path d="M19.37,20.58c0.25,1.18,0.99,2.33,0.99,3.72c0,1.39-0.12,25.8-0.12,30.79"/><path d="M20.71,31c4.79-0.75,9.02-0.98,15.3-1.83"/><path d="M20.96,41.46c5.79-1.2,8.11-1.2,15.18-2.05"/><path d="M12.75,57.48c0.62,0.27,1.75,0.34,2.26,0.14c2.08-0.78,15.42-6.26,18.62-7.52"/><path d="M35.51,19.01c0.77,1.25,0.85,1.46,0.85,2.85c0,1.56,0.12,64.51,0.12,75.9"/><path d="M13.83,63.98c0.34,0.19,2.22,0.23,2.56,0.17c1.62-0.25,8.22-1.06,12.11-1.33c0.53-0.04,1.52-0.13,1.96,0.02"/><path d="M22.14,65.45c0.48,0.4,0.82,1.26,0.82,1.58c0,2.69,0.29,17.04,0.19,18.83"/><path d="M14.39,75.59c0.31,0.18,2.45,0.21,2.76,0.17c1.79-0.24,7.9-1.64,10.38-1.9c0.38-0.04,1.77-0.07,2.34,0.09"/><path d="M12.25,89.51c0.35,0.12,1.75,1,2.29,0.78c3.44-1.42,8.34-3.49,13.58-5.95"/><path d="M46.48,22.76c0.88,0.31,2.49,0.39,3.37,0.31c11.17-1.02,28.74-3.98,36.45-4.11c1.46-0.02,2.34,0.15,3.08,0.31"/><path d="M64.64,11.13c0.4,0.32,1.25,2.4,1.33,3.04c0.08,0.64-0.05,13.71-0.13,17.71"/><path d="M47.5,34.39c0.21,0.3,0.43,0.55,0.53,0.93c0.74,3,3.13,10.78,3.64,16.17"/><path d="M48.83,35.43c4.72-1.18,36.59-4.8,39.1-5.19c0.92-0.14,2.16,1.02,1.91,2.7c-0.51,3.52-2.27,10.06-3.64,15.09"/><path d="M61.27,33.75c0.14,2,1.15,11.75,1.3,14"/><path d="M74.32,32.5c-0.14,3.25-0.87,11.75-1.15,13.75"/><path d="M52.34,49.37c2.95-0.45,30.16-3.22,34.2-3.9"/><path d="M50,61.14c1.02,0.11,3.01,0.74,4.79,0.48c7.71-1.12,22.39-3.47,27.92-3.98c1.56-0.14,3,0.18,3.79,0.37"/><path d="M50.35,78.96c0.26,1.96-2.64,10.61-4.75,13.87"/><path d="M56.34,73.12C61.5,84.25,67.25,93.5,84.29,94.68c8.06,0.56,8.61-3.06,1.87-8.28"/><path d="M69.94,72.25c1.41,4.58,4.56,8,5.98,3.15"/><path d="M86.74,67.98c3.8,1.96,6.65,3.74,9.74,9.8"/></svg>