<svg><path d="M32.23,10.25c0.61,0.38,1.54,1.22,1.54,2.18c0,1.32,0,2.09,0,4.18"/><path d="M16.17,17.92c0.66,0.19,2.95,0.21,3.61,0.19c3.75-0.16,25.07-2.25,30.73-2.38c1.11-0.03,1.77,0.09,2.32,0.18"/><path d="M23.91,20.32c2.26,2.42,3.29,4.91,3.49,6.5"/><path d="M44.21,18.14c0.53,0.27,0.59,1.02,0.53,1.24c-0.42,1.54-4.82,6.13-5.88,7.31"/><path d="M11.81,29.32c0.8,0.26,1.73,0.29,2.53,0.26c9.5-0.38,28.66-2.9,38.74-3.43c1.33-0.07,2.13,0.12,2.8,0.25"/><path d="M21.75,34.48c0.47,0.38,0.78,0.77,0.94,1.15c0.15,0.38,0.22,21.83,0.15,22.69"/><path d="M23.62,35.36c1.87-0.1,19.55-1.71,20.94-1.82c2.5-0.19,3.43,1.24,3.12,1.82c-0.3,0.55-0.47,10.27-0.47,18.02c0,6.87-2.38,3.86-5.81,1.78"/><path d="M23.62,41.92c6.4-0.57,17.35-1.13,22.97-1.42"/><path d="M24.09,48.87c4.99-0.29,16.42-1.15,22.19-1.34"/><path d="M64.52,12.96c4.59-0.32,14.98-1.52,20.17-2.12c1.18-0.13,1.92,0.09,2.52,0.18"/><path d="M61.53,7.89c1.34,0.65,1.72,2.22,1.74,3.13c0.04,1.91-0.2,6.36-0.33,8.99c-0.03,0.57,0.27,1.27,2.71,1c5.38-0.59,14.21-1.35,20.14-2.13c3.35-0.44,3.45,0.49,2.92,1.48c-1.02,1.89-1.66,4.64-2.7,7.95"/><path d="M63.57,30.34c4.59-0.32,14.72-2.02,21.12-2.31"/><path d="M61.87,28.38c0.71,0.72,1.28,1.58,1.33,2.7c0.19,4.99-0.01,15.52-0.01,18.92c0,7.93,8.58,7.03,17.04,7.03c13.5,0,14.35-1.69,14.35-5.56"/><path d="M64.31,36.8c4.59-0.32,15.94-1.22,21.14-1.81c1.18-0.13,1.92,0.09,2.52,0.18"/><path d="M64.07,42.57c4.59-0.32,16.39-0.92,21.58-1.51c1.18-0.13,1.92,0.09,2.52,0.18"/><path d="M63.59,48.67c4.59-0.32,17.83-0.72,23.03-1.31c1.18-0.13,1.92,0.09,2.52,0.18"/><path d="M25.52,65.4c1.09,0.28,3.09,0.33,4.18,0.28C42.75,65,58.12,63.82,80.02,63c1.81-0.07,2.91,0.13,3.82,0.27"/><path d="M35.42,67.14c0.95,0.41,1.45,1.5,1.45,2.61c0,1.12,0.21,17.22,0.21,21.23"/><path d="M37.37,73.33c4.31,0,24.79-1.66,32.16-1.66"/><path d="M36.93,81.04c5.32,0,24.68-2.02,32.44-2.02"/><path d="M19.41,90.35c0.59,0.9,2.67,2.13,4.33,1.93c6.66-0.78,49.66-5.44,59.89-6.68"/><path d="M68.59,64.93c0.44,0.55,1.11,1.24,1.11,1.93c0,0.69,0.22,28.97,0.22,34.64"/></svg>