<svg><path d="M20.75,21.92c0.72,1.55,0.41,2.22,0.41,3.76c0,1.55,0.24,33.5,0.24,35.82"/><path d="M17.5,20.92c0.65,0.2,3.44,0.46,4.08,0.44c3.54-0.15,12.05-2.52,16.66-2.58c1.07-0.01,3.47,0.24,4.01,0.34"/><path d="M22.5,34.72c3.25-0.47,10.96-1.83,13.58-2.3c0.99-0.18,2.24-0.11,3,0.17"/><path d="M22.25,47.75c3.25-0.53,11.04-1.64,13.67-2.17c0.99-0.2,2.57,0.19,3.33,0.5"/><path d="M9.08,62.75c0.7,0.3,3.47,0.55,4.17,0.5c7.24-0.51,20.12-3.93,30-4.33c1.16-0.05,2.59,0.51,3.17,0.67"/><path d="M24.58,64.58C25,66,25,67,24.42,68.08c-3.71,6.89-5.41,9.17-11.63,16.31c-1.56,1.79-0.77,3.69,1.91,2.96c7.69-2.1,14.35-5.39,23.8-8.35"/><path d="M33.92,69.92c3.46,3.36,7.3,11.77,8.17,17"/><path d="M51.42,23.75c1.08,0.75,4.39,1.08,6.16,0.86c7.42-0.86,18.63-2.72,26.34-3.19c2.5-0.15,4.21,1.51,3.84,3.89c-0.58,3.76-1.32,10.2-2.67,20.78"/><path d="M45.42,35.58c1.33,0.67,3.83,1.42,6.17,1.33c6.45-0.23,28.17-3.42,40.5-4.67c1.86-0.19,4.92-0.5,6.83-0.33"/><path d="M51.92,48.58c1.58,0.67,3.59,1.09,4.83,1c8.25-0.58,14-1.33,25.5-2.17c1.66-0.12,3.75-0.25,5,0"/><path d="M51.75,61.42c0.9,0.29,2.93,0.7,3.83,0.67c9.37-0.33,24.38-2.29,33.53-2.92c1.5-0.1,2.4,0.14,3.15,0.28"/><path d="M46.25,75.58c1.03,0.79,3.8,1.01,4.83,0.83c12.42-2.17,31.16-3.66,40.5-4.33c1.71-0.13,4.48-0.07,5.33,0.33"/><path d="M67.75,9.08c0.81,0.49,1.91,2.87,2.08,3.85c0.16,0.98-0.24,80.19-0.4,86.31"/></svg>