<svg><path d="M40.58,18.42c0.17,0.22-1.06,1.33-1.5,1.67c-2.85,2.2-11.62,7.1-20.83,9.35"/><path d="M15.25,14.58c0.57,0.39,1.31,1.65,1.5,2.17c0.19,0.52,0.15,14.66,0.15,16.29c0,5.96,2.35,7.04,14.25,7.04c12.1,0,13.1-1.58,13.1-6.83"/><path d="M23.42,43.75c0.03,0.47,0.15,1.98-0.08,2.62C21.75,51,18.5,59,14.19,63.61"/><path d="M23.42,53.08c1.06,0.07,2.77,0.47,3.5,0.33c3.01-0.58,11.52-2.17,16.17-3.17c1.22-0.26,2.88-0.15,3.5,0"/><path d="M12.92,69.58c0.74,0.45,4.18,0.73,4.67,0.67c7.17-1,20.71-3.37,26.5-3.67c0.62-0.03,3.46-0.37,4.83,0.17"/><path d="M29.55,55.49c0.22,0.66,0.51,1.27,0.42,2.54C28.42,80.42,23.5,91.75,9.92,98.75"/><path d="M30.25,76.92c5.96,3.87,13.25,11.33,15.9,18.27"/><path d="M52.42,24.75c1.08,1,3.43,1.08,5.24,0.86c8.27-1,19.54-2.86,27.41-3.33c2.56-0.15,4.31,1.15,3.94,3.53c-0.59,3.76-2.38,11.37-3.76,21.95"/><path d="M50.42,37.25c1.08,0.75,3.68,1.28,5.33,1.17c6-0.42,26.46-3.91,37.84-4.69c1.82-0.13,4.16-0.16,4.99,0.1"/><path d="M53.75,50.92c0.94,0.24,3.1,1.01,4.24,0.95c6.76-0.37,16.48-1.86,25.93-3.04c1.5-0.19,3.7,0.02,4.83,0.26"/><path d="M52.92,63.19c0.89,0.26,3.94,0.83,4.83,0.8c9.24-0.3,22.16-2.34,31.17-2.91c1.48-0.09,3.09,0.06,3.83,0.19"/><path d="M47.25,76.75c1.02,0.53,3.51,0.93,6,0.67C66.5,76,81,75.25,91.92,74.25c1.7-0.16,4.65-0.27,5.5,0"/><path d="M68.85,11.42c0.75,0.49,1.85,1.54,2,2.52c0.15,0.98-0.37,78.19-0.52,84.31"/></svg>