<svg><path d="M25.25,21c2,0.5,3.7,1.16,6,1c14-1,33.75-3.5,46-4.25c3.24-0.2,4.5,1.75,4,4.25c-1.31,6.54-2.25,10-2.5,16.5"/><path d="M16.5,32.25c2.25,0.25,4.01,0.73,6.5,0.5c21.75-2,47.25-4.5,64.5-5.25c2.76-0.12,5,0.5,6.25,0.75"/><path d="M27.75,42.43c1.25,0.15,3.51,0.54,5,0.46C46.5,42.13,64,39.41,76.5,39.11c2-0.05,3.25,0,4.75,0.15"/><path d="M52,11c1.25,0.5,2,2.25,2.25,3.25s0,76.75-0.25,83"/><path d="M26.34,49.42c0.35,1.37,0.84,2.44,0.84,4.15c0,15.61,1.42,38.11-10.37,46.15"/><path d="M40.74,48.51c0.67,0.59,1.2,1.28,1.2,3.23c0,2.51-0.02,7.52-0.02,10.71"/><path d="M27.56,60.73c3.21-0.16,11.16-1.13,14.08-1.13"/><path d="M64.73,47.87c0.89,0.41,1.51,0.9,1.59,2.27c0.11,2.05-0.2,4.49-0.47,6.64c-0.09,0.68,0.16,1.71,1.48,1.6C72,58,76.5,57,81.92,56.7"/><path d="M80.18,46.08c1.15,0.59,1.95,1.28,2.05,3.23c0.47,9.36-0.02,46.25-0.02,49.44"/><path d="M27.06,72.13C36,71,75.57,66.86,82,66.86"/><path d="M26.81,82.12C32.5,81,34.5,80,38.42,79.17c3.16-0.67,3.8,0.96,3.8,1.93s-0.58,14.83-0.58,15.79"/><path d="M64.05,78.17c0.95,0.08,1.58,0.36,2.7,0.26c4.89-0.42,12.26-1.08,15.59-1.21"/><path d="M68.86,78.97c0,4.92-0.02,13.56-0.02,16.74"/></svg>