<svg><path d="M18.71,19.97c0.85,0.85,0.98,2.09,1,3.01c0.54,37.27-3.55,53.97-10.21,67.41"/><path d="M20.71,22.01c3.08-0.63,8.54-2.01,12.45-2.62c2.68-0.42,3.88,0.34,3.88,3.23c0,6.85,0,43.98,0,61.03c0,12.77-4.63,5.58-7.23,2.5"/><path d="M20.71,40.41c5.36-0.69,10.18-1.42,15.22-2.04"/><path d="M19.4,57.12c4.6-0.37,11.55-1.01,16.44-1.42"/><path d="M55.22,18.5c1.14,1.14,1.34,2.25,1.36,4.25C56.88,51.12,57.75,78,42.2,91.25"/><path d="M57.7,20.75c3.75-0.75,12.5-2.5,15.5-3.25s4.75,0.5,4.75,3.25c0,3.82,0,58.75,0,61.5c0,6.58,1.38,8.5,9.3,8.5c7.25,0,8.45-1.33,8.45-9.75"/></svg>