<svg><path d="M18,19.5c0.75,1,1.26,2.46,1.26,3.45c0,4.3,0.17,24.4-0.44,32.57c-0.86,11.63-1.58,23.23-9.33,38.23"/><path d="M19.25,20.75c4.25-1,14.88-3.02,16.63-3.15c3.13-0.23,3.41,1.81,3.41,3.17c0,3.23-0.09,46.22-0.09,64.55c0,12.61-4.7,4.97-6.7,3.46"/><path d="M21.32,40.41c4.23-0.23,11.96-1.33,15.68-1.35"/><path d="M19.78,59.3c3.96-0.08,12.15-1.35,17.52-1.8"/><path d="M46.75,26.5c0.87,0.7,4.38,1.31,6,1.25C59,27.5,79.96,25.3,87.5,24.5c1.47-0.16,3.78-0.15,5,0.5"/><path d="M66.17,27c2.41,2.83,2.41,4.53,2.41,6.8c0,15.86-0.07,22.01-0.07,49.2"/><path d="M45.25,85c2,0.5,3.76,1.18,6.41,0.92c11.59-1.17,25.55-2.4,38.59-2.92c2.14-0.08,5,0.75,7,1.25"/></svg>