<svg><path d="M19.41,17.74c0.8,0.8,1.2,2.01,1.2,3.55c0,40.46-1.61,53.46-9.61,67.1"/><path d="M21.56,19.56c4.73-1.14,12.33-2.99,16.57-3.55c3.21-0.43,4.16,0.95,4.16,3.99c-0.01,8.26-0.1,44.7-0.1,61.55c0,12.95-3.66,6.17-6.78,3.04"/><path d="M21.81,37.2c7.44-1.08,13.44-1.95,19.49-2.58"/><path d="M21,55.16c6-0.66,14.28-1.53,20.15-1.95"/><path d="M55.87,21.16c2.25,0.47,4.39,0.2,6.13-0.01c5.43-0.66,15.22-1.92,21.76-2.53c1.9-0.18,3.85-0.29,5.71,0.25"/><path d="M49.63,44.48c2.32,0.74,4.9,0.23,7.25-0.01c9.72-0.98,24.58-2.42,33.51-3.08c2.22-0.16,4.3-0.3,6.49,0.12"/><path d="M72.06,22.63c1.09,1.09,1.54,2.62,1.54,4.33c0,2.92-0.06,45.71-0.08,62.29c0,3.5-0.01,5.83-0.01,6.38"/></svg>