<svg><path d="M18.97,19.74c0.52,0.95,0.88,1.88,1.05,2.8c0.17,0.92,0.15,25.9-0.41,33.63c-0.8,11-1.61,22.08-9.11,34.72"/><path d="M21.07,20.81c2.1-0.06,12.65-2.34,14.21-2.46c2.8-0.23,3.5,1.31,3.5,2.67c0,3.23-0.53,46.22-0.53,64.55c0,12.61-5.91,3.55-7.7,2.04"/><path d="M21.07,40.7c4.61-0.35,13.03-1.54,17.08-1.57"/><path d="M20.01,58.65c3.79-0.08,13.14-0.78,18.29-1.2"/><path d="M46.53,39.83c0.93,0.51,2.61,0.54,3.54,0.47c7.68-0.55,32.22-4.86,43.66-5.83c1.53-0.13,2.46,0.22,3.23,0.47"/><path d="M77.64,14.33c0.09,0.48,1.26,2.49,1.26,5.52c0,20.4-0.26,63.16-0.26,68.12c0,12.03-5.89,4.53-9.21,1.25"/><path d="M55.08,52.62c3.18,2.29,8.21,9.43,9,13"/></svg>