<svg><path d="M29.38,17.51c2.62,0.49,5.62,0.47,8.14,0.22c8.65-0.86,21.48-2.61,33.61-3.49c2.48-0.18,5.04-0.26,7.5,0.21"/><path d="M29.85,29.13c1.65,0.62,3.64,0.8,5.9,0.53c11.75-1.4,33.14-3.48,40.5-4.15c1.99-0.18,4.07,0.77,3.25,3.5c-0.75,2.5-1.75,5.25-3.25,9.25"/><path d="M31.5,43.25c12.75-1.12,24.53-2.36,39.25-3.45c3.53-0.26,6.51-0.46,8.5-0.55"/><path d="M31.68,30.43c0.32,0.82,0.39,2.07,0.16,3.76C29.5,51.25,25,67.25,12.75,80.5"/><path d="M40.57,53.88c0.84,0.84,1.06,2.25,1.06,3.58c0,3.45,0,21.47,0,33.66c0,2.08,0,3.99,0,5.62"/><path d="M42.95,55.99c2.63-0.21,24.55-2.99,28.43-3.34c2.39-0.22,4.38,1.35,4.38,4.09c0,6.76,0.09,17.4,0.09,34.84c0,11.19-5.25,3.88-7.45,1.94"/><path d="M42.7,67.06c9.8-0.81,22.55-1.94,32.03-2.62"/><path d="M42.85,78.57c7.65-0.69,23.83-1.33,31.94-1.76"/></svg>