<svg><path d="M18.75,20c1,1,1.13,2.7,1.32,3.66c0.19,0.96,0.17,25-0.44,33.05C18.77,68.17,17.25,81,9.75,93.89"/><path d="M20.5,21.25c3.5-0.5,12.12-1.77,13.64-1.9c2.72-0.23,3.4,1.33,3.4,2.71c0,3.28-0.51,47.5-0.51,66.14c0,6.25-0.79,5.68-6.03,1.05"/><path d="M20.57,41.07c4.47-0.22,12.15-1.28,16.08-1.29"/><path d="M20.76,59.9c3.74-0.08,11.46-1.28,16.54-1.7"/><path d="M49,29.75c0.5,1.04,1.72,3.18,1.56,5.05c-0.17,1.87,0.17,57.84,0.17,60.95"/><path d="M50.94,32.34c8.06-0.84,38.8-3.6,39.98-3.87c2.52-0.58,4.09,0.53,4.09,2.82c0,5.46-0.47,50.01-0.47,54.46c0,10.3-5.01,4.16-7.3,2.07"/><path d="M72.25,40.25C69.12,50.23,61,64.85,54.5,70.5"/><path d="M63,12.25c0.88,0,2.28,1.46,2.54,2.73c4.46,22.27,10.25,36.77,21,50.5c0.95,1.22,2.94,3.1,3.71,3.52"/></svg>