<svg><path d="M18.83,18.91c0.82,0.82,1.25,2.31,1.26,3.23C20.75,61.5,20,77.5,9,92"/><path d="M21.1,21.07c1.52-0.23,14.01-2.57,15.15-2.83c2.03-0.46,3.54,1.13,3.54,3.33c0,5.68-0.13,45.86-0.13,64.31c0,11.84-5.91,3-7.32,1.55"/><path d="M21.35,39.11c6.65-0.86,9.9-1.36,17.3-2.1"/><path d="M20.99,56.85c5.96-0.59,12.82-1.22,17.67-1.69"/><path d="M51.75,26.75c0.84,0.25,2.55,0.54,4.75,0.21c10.43-1.58,22.79-2.99,30.25-3.62c2.84-0.24,5.27,0.76,4.9,4.13c-0.53,4.77-1.65,9.86-3.05,17.24c-0.3,1.56-0.61,3.22-0.93,5"/><path d="M70.27,27.93c0.9,0.9,1.34,2.32,1.34,3.58c0,6.49-0.11,7.24,0.01,17.61"/><path d="M55.2,51.4c3.78-0.45,26.55-2.4,31.49-2.4"/><path d="M52.88,27.66c0.73,0.73,1.36,2.09,1.36,3.53C54.24,39.57,54,63.75,54,71c0,18,3.05,18.32,20.08,18.32c18.92,0,21.16-2.07,21.16-11.17"/></svg>