<svg><path d="M52.61,11.07c1.03,1.03,1.48,2.71,1.48,3.91c0,1.76,0.1,5.26,0.1,8.15"/><path d="M12.75,27.18c3.44,0.57,6.26,0.89,9.26,0.55c21.74-2.48,42.23-4.98,64.56-5.7c3.59-0.12,6,0.05,8.68,0.7"/><path d="M49.66,27.5c0.09,1.25-0.03,2.5-0.91,3.5c-3.62,4.12-8.12,8.5-14,12.75c-2.28,1.65-1.26,4.6,2.25,3.75c8.25-2,23-5.5,35-8.75"/><path d="M65.25,32.38c4.59,2.4,11.85,9.88,13,13.62"/><path d="M39.24,53.98c0.96,0.95,1.51,2.15,1.51,4.07c0,5.7,0.26,24.4,0.24,35.45c0,2.8-0.01,4.66-0.03,4.94"/><path d="M40.99,55.18c7.31-0.87,26.57-3.35,28.07-3.48c2.19-0.2,4.21,1.3,4.21,3.38c0,6.42-0.13,25.16-0.13,37.46c0,8.96-5.38,3.21-8.63-0.04"/><path d="M42.01,67.02c8.62-0.91,22.46-2.03,30.03-2.48"/><path d="M42.14,78.27c6.73-0.46,21.95-2.07,29.73-2.38"/></svg>