<svg><path d="M19.57,17.76c0.52,0.96,0.77,2.14,0.78,3.09C20.75,57,19.5,74.38,11,90.87"/><path d="M21.38,19.84c4.87-0.84,12.43-2.37,13.97-2.5c2.75-0.23,3.44,1.32,3.44,2.7c0,3.27-0.02,46.09-0.02,64.67c0,11.37-5.8,3.6-7.56,2.07"/><path d="M21.38,40.01c5.49-0.88,10.37-1.63,16.77-1.85"/><path d="M20.83,57.45c5.05-0.57,12.18-1.04,17.23-1.47"/><path d="M69.38,12.75c1.12,1.12,1.52,2.5,1.52,4.16c0,3.34-0.1,6.09-0.1,8.4"/><path d="M46,28.61c2.64,0.28,5.26,0.19,7.88-0.08c9.31-0.97,27.06-2.87,37-3.44c2.18-0.12,4.75-0.21,6.63,0.32"/><path d="M51.15,46.5c0.99,0.99,1.34,2.5,1.34,4.11c0,0.58,0,12.57-0.08,20.4c-0.03,2.49-0.05,4.57-0.08,5.71"/><path d="M52.43,48.96c3.01-0.27,31.68-3.47,33.93-3.59c2.39-0.13,4.12,1.35,4.12,3.09c0,8.29,0.02,17.04-0.61,23.17c-0.77,7.45-3.12,4.11-5.9,1.52"/><path d="M69.34,32.63c0.95,0.95,1.34,2.37,1.34,3.86c0,3.42-0.05,41.08-0.06,55.13c0,2.43,0,4.16,0,4.88"/></svg>