<svg><path d="M67.84,10.65c0,0.98-0.36,2-1.38,2.88C56.75,22,44.88,28,26.55,33.42"/><path d="M34.54,17.02C55,19.25,65.59,24.18,76.69,31.35"/><path d="M53.15,31.18c0.1,0.95-0.16,1.98-0.71,3.31C48,45.25,38,59.25,15.64,71.2"/><path d="M13,43.08c4.16,0.73,8.31,0.65,12.51,0.19C41.5,41.5,68.25,39,85.38,38.2c3.74-0.17,7.43-0.19,11.12,0.43"/><path d="M42.98,53.65c0.87,0.87,1.19,2.1,1.19,3.19c0,0.52,0.05,24.83,0.07,36.66c0.01,3.4,0.01,5.78,0.01,6.25"/><path d="M44.86,54.64c4.82-0.77,20.13-2.66,25.27-3.31c3.42-0.43,5.03,0.83,5.03,4.67c0,6.5,0.06,25.42,0.06,36.6c0,12.39-6.95,1.76-7.75,0.95"/><path d="M45.11,65.99c8.14-0.97,21.93-2,29.07-2.49"/><path d="M45.21,77.33c6.35-0.48,21.49-1.94,28.83-2.26"/></svg>