<svg><path d="M22.07,20.76c0.9,0.9,1.28,2.14,1.28,3.09c0,34.6-1.35,53.65-10.1,68.53"/><path d="M24.38,22.09c4.33-0.97,10.77-2.28,13.24-2.65c3.23-0.49,4.17,1.04,4.17,3.94c0,7.98-0.01,45.13-0.01,62.34c0,11.37-5.8,3.6-7.56,2.07"/><path d="M24.38,41.01c4.53-0.36,11.12-1.26,16.02-1.6"/><path d="M23.58,58.45C28.5,58,35.5,57.41,40.56,56.98"/><path d="M71.8,15.75c0.45,1.62,0.41,2.93-0.52,4.81C66,31.25,61.5,38.75,54.91,49.51c-2.44,3.99-2.06,4.29,1.29,3.47c11.05-2.72,20.3-4.72,33.36-8.04"/><path d="M81.77,34.13c4.71,3.37,12.18,13.86,13.36,19.1"/><path d="M55.41,66.59c0.84,0.89,1.32,1.95,1.43,3.17c1.06,4.56,2.21,12.47,3.06,19.51c0.19,1.58,0.37,3.09,0.52,4.49"/><path d="M57.3,67.81c13.12-1.54,22.96-2.37,29.61-3.22c3.11-0.4,5.78,0.58,4.9,4.21c-1.54,6.36-2.38,11.63-3.86,19.54"/><path d="M61.51,91.85c7.53-0.55,16.49-1.48,23.51-1.94c1.52-0.1,3.1-0.08,4.76-0.08"/></svg>