<svg><path d="M25.58,19.92c0.54,0.67,1.54,2.25,1.67,2.83c1.03,4.82,2.39,14.97,3,23.83"/><path d="M27.42,21.42c17.95-1.08,40.97-3.67,52.33-3.67c2.75,0,4.25,1.5,4,4.33c-0.38,4.31-2.05,14.84-4.67,21.83"/><path d="M52.45,8.36c1.05,0.89,1.45,2.73,1.45,3.39c0.04,6.55,0.23,28.48,0.23,30.19"/><path d="M29.42,32.08c4.86-0.45,48.48-3.83,52.5-3.83"/><path d="M30.58,43.92c11.93-0.64,30.98-2.88,48.17-3.17"/><path d="M34.58,54.08c1.14,0.67,2,2.17,2,3.83c0,6.33,0.32,41.39,0.17,42.94"/><path d="M37.08,55.58c3.01-0.21,31.58-2.5,33.83-2.5c2.33,0,3.73,1.42,3.73,3.8c0,2.46-0.23,23.71-0.23,36.87c0,10.54-5.16,2.3-6.17,1.5"/><path d="M36.92,67.75c10.32-1.14,27.93-2.04,37-2.67"/><path d="M36.75,79.75c7.91-0.43,28.69-1.84,37.83-2.17"/></svg>