<svg><path d="M22.42,26.82c1.51,0.3,2.66,0.25,4.14-0.05c3.19-0.64,10.94-2.64,13.18-3.16"/><path d="M40.36,11.68c1.1,1.1,1.32,2.32,1.32,3.56c0,3.26,0.19,20.54,0.19,22.58"/><path d="M19.54,44.52c2.26,1.35,3.99,1.43,5.65,0.75c9.98-4.06,20.68-8.26,25.95-10.52"/><path d="M89,13.31c0.16,0.23,0.22,0.87-0.15,1.25c-3.59,3.64-12.47,8.98-20.25,10.88"/><path d="M65.39,9.25c0.8,0.8,1.32,2.11,1.32,3.38c0,0.85,0.02,14.84,0.02,17.42c0,7.45,1.4,9,13.98,9c11.92,0,13.79-1.92,13.79-8.77"/><path d="M39.84,46.65c0.88,0.88,1.5,2.35,1.5,3.72c0,0.65,0.09,27.25,0,40.38c-0.03,3.95-0.05,6.68-0.08,7.11"/><path d="M41.89,48.51c2.56-0.16,26.52-3.19,28.42-3.38c3.41-0.35,4.22,2.66,4.22,3.96c0,7.41-0.14,25.66-0.14,43.03c0,10.62-5.02,4.38-7.25,1.71"/><path d="M42.5,63.24c8.74-1.07,23.27-2.4,30.94-2.88"/><path d="M42.5,77.14c6.82-0.49,22.99-2.06,30.87-2.33"/></svg>