<svg><path d="M23.43,14.17c0.83,0.83,1.55,2.08,1.68,2.75c1.35,7.15,2.48,15.22,4.13,24.83c0.21,1.24,0.44,2.51,0.67,3.81"/><path d="M25.97,16.4C43,14.5,65,12.24,79.19,11.77c4.44-0.15,6.65,1.27,5.92,5.37c-0.82,4.62-2.3,10.93-4.31,19.12c-0.28,1.15-0.57,2.34-0.88,3.56"/><path d="M52.72,14.58c1.17,1.17,1.65,2.63,1.65,4.38c0,8.04-0.12,12.07-0.12,20.54"/><path d="M28.45,29.52c10.43-1.15,42.68-4.27,53.66-4.72"/><path d="M30.45,42.39c14.18-1.26,33.4-3.15,48.61-3.92"/><path d="M34.26,52.21c0.83,0.83,1.27,1.86,1.27,3.2c0,2.9,0.07,27.11,0.09,37.96c0.01,2.54,0.01,4.34,0.01,4.98"/><path d="M36.28,53.83c3.02-0.21,31.73-3.48,33.98-3.62c3.25-0.21,5.06,1.01,5.05,4.3c-0.01,5.16-0.08,25.54-0.08,37.81c0,10.69-7.22,1.75-8.23,0.94"/><path d="M36.83,66.51c11.3-1.51,26.92-3.38,37.01-4.01"/><path d="M36.63,80.01c9.74-1.26,28.19-3.11,37.5-3.58"/></svg>