<svg><path d="M18.92,21.42c0.9,0.9,1.33,2.83,1.33,4.67c0,36.29-3.5,54.17-10.83,64.83"/><path d="M20.25,22.58c2.04-0.06,13.81-2.83,15.33-2.83c1.67,0,3.29,1.29,3.29,2.63c0,3.16-0.01,45.53-0.01,63.49c0,12.35-5.54,3.87-7.28,2.39"/><path d="M21.58,40.58c4.52-0.26,12.36-1.73,16.33-1.75"/><path d="M20.18,58.27c4.69-0.39,12.37-1.46,17.62-1.94"/><path d="M59.44,23.33c0.11,0.96-0.05,1.85-0.48,2.7c-1.65,3.79-6.58,9.85-13.79,14.8"/><path d="M80.75,22.17c6.02,2.42,15.49,10.48,17,14.25"/><path d="M52.25,46c1.66,0.58,3.53,0.54,5.25,0.38c8.68-0.79,20.5-2.41,28.26-3.01c2.3-0.17,3.78,0,5.99,0.46"/><path d="M47.33,64.25c1.96,0.86,3.97,0.84,6.04,0.64c9.54-0.95,29.83-3.07,37.87-3.56c2.27-0.14,4.88,0.05,6.5,0.59"/><path d="M70.08,12.42c1.19,1.19,1.69,2.83,1.69,4.7c0,0.86-0.01,50.27-0.02,72.14c0,4.58,0,7.96,0,9.42"/></svg>