<svg><path d="M18.42,20.58c0.88,0.87,0.99,2.75,1.17,3.67c0.17,0.92-0.5,21-0.5,30c0,11.03-1.83,27.25-8.67,39.17"/><path d="M19.25,22.25c1.88-0.06,12.43-2.02,13.82-2.15c2.5-0.23,3.13,1.31,3.13,2.67c0,3.23-0.47,46.22-0.47,64.55c0,12.61-4.72,3.95-6.32,2.44"/><path d="M20.49,42.16c4.71-0.34,10.29-1.22,14.43-1.24"/><path d="M20.08,60.75c3.42-0.07,10.36-1.14,15-1.5"/><path d="M85.92,12.92c0.1,0.39-0.33,1.69-0.83,2.17c-3.33,3.17-13.52,9.63-32.07,15.13"/><path d="M50.58,28.58c1.11,1.16,1.6,2.83,1.6,5c0,2.17-0.17,38.32-0.17,41.7s0.17,4.34,2.44,1.93c2.27-2.41,17.23-12.68,18.63-14.13"/><path d="M53.61,45.5c0.68,0.17,1.93-0.17,2.61-0.24c14.83-1.45,21.52-3.01,35.84-4.79c1.12-0.14,3.94-0.33,4.5-0.24"/><path d="M70.57,26.49c0.49,0.47,1.96,3.02,2.01,3.93c1.13,18.9,7.72,48.91,20.33,60.5c5.08,4.66,4.83-4.8,4.83-7.67"/><path d="M47.92,91.42c0.75,0.38,3.87,0.69,4.63,0.6c6.71-0.77,21.04-2.58,26.21-2.44c1.25,0.03,2.38,0.31,3,0.5"/></svg>