<svg><path d="M20.97,18.34c2.03,0.41,3.46,0.6,6.28,0.33c16-1.5,35.97-4.67,53.69-4.67c6.06,0,4.06,4-0.69,6.84"/><path d="M51.62,16.67c1.09,0.33,1.74,1.5,1.96,2.17c0.22,0.67,0,15.22-0.22,19.39"/><path d="M54.13,28.37c7.12-0.5,9.12-0.5,19.85-1.5c1.73-0.16,2.18-0.17,3.26,0"/><path d="M34.5,23.79c0.05,0.59,0.11,1.52-0.11,2.37c-1.29,5-8.7,15.67-18.84,22.39"/><path d="M32.75,32.3c7.77,2.19,41.87,12.54,50.32,14.7c2.86,0.73,5.32,1.04,8.18,1.25"/><path d="M34.5,53.5c0.75,1,1.25,2,1.5,3s0.35,40.5,0.25,42.75"/><path d="M37,55c3-0.25,31.52-2.97,33.75-3.25c4-0.5,5.09,2.17,5,3.75C75.5,59.75,75,69.75,75,90c0,13-3.5,6.5-6,4.25"/><path d="M36.5,66.25c11.03-1,29.06-2.5,38.75-3"/><path d="M36.25,77.55c9.04-0.61,28.3-2.44,38.75-2.84"/></svg>