<svg><path d="M18.65,21.81c0.77,0.77,0.99,2.19,0.99,3.9c0,33.18-0.52,45.67-9.71,64"/><path d="M20.14,23.69c3.61-0.44,11.99-1.81,14.74-2.2c2.1-0.29,2.73,1.87,2.48,3.2c-0.24,1.27-0.37,43-0.37,60.88c0,11.48-5.49,2.3-6.71,0.99"/><path d="M20.64,40.69C25.75,40,31,39.5,35.74,39.22"/><path d="M20.01,58.14c3.97-0.66,11.39-1.15,15.98-1.59"/><path d="M59.1,16c0.09,1.37,0,2.36-0.5,3.65c-2.29,5.89-6.5,13.56-14.81,22.73"/><path d="M56.35,29.78c1.78,0.6,4.08,0.72,5.96,0.23c1.89-0.48,23.31-3.59,28.03-3.83c4.71-0.24,6.91,1.14,6.45,6.24C95,52.38,92.12,73.12,85.34,91.09c-1.83,4.84-6.01,2.06-8.79-0.96"/><path d="M71.12,40.68c0.24,0.65,0.3,1.68-0.13,2.8c-3.12,8.15-7.74,16.77-15.72,23.39"/><path d="M56.83,45.25c5.73,3.97,11.8,10.87,15.08,18.69"/><path d="M48.32,48.4c0.77,0.77,1.18,1.97,1.06,3.42C49,56.19,48,66.5,47.26,73.95c-0.13,1.32,0.81,1.83,1.51,1.67c9.85-2.24,26.28-3.44,30.05-3.66"/><path d="M81.14,42.84c0.88,0.88,1.28,2.16,1.21,3.35c-0.34,5.56-1.37,16.1-2.18,25.19c-0.26,2.95-0.47,5.14-0.54,5.76"/></svg>