<svg><path d="M32.94,13.25c0.43,0.88,0.15,1.93-0.15,2.5C29.12,22.62,24.38,29,19.31,35.48c-1.41,1.8-1.28,2.92,0.97,2.44c6.6-1.42,17.98-3.79,26.78-5.6"/><path d="M41.97,24.63c3.12,2.53,8.06,10.4,8.84,14.33"/><path d="M21.83,46.65c0.83,0.83,1.17,2.1,1.19,3.43c0.04,2.91-0.18,29.86-0.14,40.92c0.01,3.16,0.03,5.02,0.04,4.66"/><path d="M24.21,48.79C26.1,48.63,42.9,46,44.28,45.73c1.84-0.36,3.14,1.14,3.14,3.31c0,0.98,0.03,27.46,0.03,40.98c0,8.37-5.02,3.15-6.59,1.7"/><path d="M24.21,61.18c6.44-0.96,16.46-1.66,22.11-2.14"/><path d="M24.18,73.64c5.03-0.48,16.02-1.68,21.83-2"/><path d="M85.72,19.7c0,1.05-0.97,2.05-2.07,2.84c-3.72,2.69-10.97,6.23-21.63,10.04"/><path d="M58.84,14c0.89,0.89,1.39,2.12,1.39,3.26c0,0.7-0.06,19.65-0.04,21.75c0.06,7.11,1.56,9.06,15.77,9.06c13.29,0,14.51-2.19,14.51-8.32"/><path d="M87.97,62.7c-0.09,1.18-1.09,2.55-2.24,3.22c-4.54,2.66-11.36,5.96-21.71,9.41"/><path d="M60.59,56.5c0.64,0.64,1.39,2,1.39,3.26c0,3.12-0.04,22.65-0.04,24.75c0,8.12,2.06,10.06,16.02,10.06c13.04,0,14.51-2.57,14.51-7.32"/></svg>