<svg><path d="M16.25,18.58c1.5,0.92,1.7,2.71,1.83,3.67c0.13,0.95,0.33,24.95-0.1,32.95c-0.61,11.38-1.23,23.3-8.23,36.55"/><path d="M18.42,19.92c1.8-0.06,11.33-2.04,12.67-2.17c2.39-0.23,3.45,1.41,3.45,2.78c0,3.25-0.45,46.53-0.45,64.98c0,12.69-5.81,4.42-7.34,2.9"/><path d="M19.75,39.92c3.73-0.25,9.72-1.48,13-1.5"/><path d="M19.76,58.34c3.23-0.06,8.94-1.26,13.32-1.59"/><path d="M54.25,10.83c6.51,2.82,12.05,7.53,14,11.42"/><path d="M48.08,31.42c0.02,0.12,2.67,0.98,4.67,0.67c3.68-0.57,9.5-1.83,13.67-2.67c1.86-0.37,3.5,1.08,3.5,2.83c0,14-0.48,51.85-0.48,56.47c0,8.53-6.59,1.03-7.86-0.13"/><path d="M42.75,51.75c1.01,0.24,2.78,0.86,3.83,0.5c2.92-1,7.42-2.5,10.39-3.08c1.9-0.37,3.17,0.79,2.52,2.89c-3.75,12.19-10.75,22.02-18.08,27.85"/><path d="M90.98,36.85c0.09,0.36,0.15,0.97-0.17,1.44c-3.07,4.42-9.91,10.29-15.45,12.59"/><path d="M69.83,48c5.6,9.83,15.3,23.34,21.56,29c1.32,1.19,2.81,2.01,4.02,2.42"/></svg>