<svg><path d="M16,20c0.88,0.88,1.24,2.25,1.25,3.25C17.62,58.62,17.5,71.62,10,92"/><path d="M18.25,22.5c3.53-0.73,9.19-2.11,12.25-2.88c3.14-0.78,4.54-0.09,4.46,3.25C34.78,30.92,35,66.12,35,85.25c0,13-6,4.5-8.5,2.25"/><path d="M18.5,41.75c3.75-0.5,9.5-1.5,15.25-2"/><path d="M18.25,59.25c5-0.5,10.25-1.25,15.5-1.5"/><path d="M71.32,13.25c0.05,0.5-0.23,1.46-0.6,1.99C66.07,21.9,61.62,26.41,51.75,34"/><path d="M48.74,34.78c0.99,0.99,1.42,2.3,1.42,4.26c0,17.91,2.09,38.45-10.35,51.7"/><path d="M81.09,26.75c-0.02,0.85-0.39,1.76-0.88,2.44c-2.96,4.06-8.46,8.56-14.09,12.06"/><path d="M62.62,41.75c0.88,0.88,1.21,2.25,1.21,3.5c0,0.87,0.02,29.46,0.03,43.38c0,2.53,0,4.57,0,5.88"/><path d="M87.61,41.5c0.08,0.73-0.31,1.64-0.74,2.17c-2.37,2.96-4.62,5.08-9.5,8.71"/><path d="M71.75,45.5c3.75,10.48,11.97,27.75,18.29,36.39c1.39,1.9,2.96,4.36,4.71,5.99"/></svg>