<svg><path d="M35,19.21c1.76,0.41,3.42,0.58,5.25,0.35c6.96-0.9,19.69-3.25,24.87-3.97c3.14-0.44,4.5,0.55,3.69,3.23c-1.43,4.71-3.03,7.86-7.06,12.69c-2.94,3.52-4.25,0.75-5.5-1.25"/><path d="M56.09,8.43c0.09,1.17,0.01,1.93-0.5,3c-2.63,5.56-7.48,12.18-14.37,18.56"/><path d="M14.02,41.43c2.19,0.65,3.87,0.54,6.11,0.25c6.04-0.8,17.98-2.62,22.75-3.2c2.76-0.34,3.39,1.72,2.57,3.93c-1.31,3.52-4.24,8.22-7.22,12.04c-2.26,2.9-3.74,1.31-4.85-0.21"/><path d="M33.69,32.27c0.05,0.65-0.03,1.7-0.35,2.6c-2.84,8.01-8.46,18.01-18.45,24.34"/><path d="M56.6,38.5c1.48,0.58,3.94,0.58,5.5,0.35c7.46-1.12,21.69-3.22,24.82-3.54c2.27-0.23,3.26,1.61,2.77,3.15c-1.43,4.54-2.93,9.29-6.57,13.8c-3.1,3.85-4.87,1.24-6.04-0.35"/><path d="M76.81,27.4c0.09,1.22,0.03,2.21-0.41,3.36c-2.66,6.99-7.54,14.8-17.32,22.56"/><path d="M40,58.6c0.89,0.89,1.02,1.9,1.02,3.13c0,2.59-0.01,22.18-0.02,32.65c0,3.38,0,5.83,0,6.5"/><path d="M42.29,60.14c2.55-0.2,25.4-3.05,27.3-3.27c3.39-0.4,4.24,2.51,4.24,3.77c0,5.36-0.08,23.03-0.08,33.61c0,10.32-5.4,3.03-7.52,1.24"/><path d="M42.29,70.43C54,69.25,62.25,68.5,72.85,67.85"/><path d="M42.18,81.36c6.79-0.6,22.64-1.63,30.49-2.03"/></svg>