<svg><path d="M17.92,19.75c0.48,0.96,1.5,2.25,1.5,4.33c0,2.92,0.02,24.83-0.5,32.67c-0.73,11.15-1.5,22.07-8.42,34.89"/><path d="M19.25,20.42c2.04-0.06,13.37-2.94,14.89-3.07c2.72-0.23,3.4,1.3,3.4,2.66c0,3.22-0.29,45.64-0.29,63.91c0,12.57-5.1,5.67-6.83,4.17"/><path d="M20.08,39.42c4.61-0.21,12.45-1.48,16.5-1.5"/><path d="M19.75,57.92c3.85-0.08,10.77-1.08,16-1.5"/><path d="M45.92,19.08c1.83,0.42,4,0.73,5.17,0.67c8.5-0.46,25.67-1.75,36.33-2.5c1.94-0.14,5.03,0.29,6,0.5"/><path d="M54.08,26.92c0.25,0.98,0.17,2.19-0.17,3c-1.99,4.81-3.45,5.77-7.38,10.9c-0.76,0.99-0.36,0.97,0,1.28c4.07,3.49,6.32,5.96,9.22,11.99"/><path d="M72.25,24.75c0.45,0.9,0.25,2.09-0.17,2.83c-2.23,4.01-5.22,6.81-9.41,11.49c-0.46,0.51-0.25,1.06,0.16,1.35c5,3.62,7.41,7.82,9.25,13.15"/><path d="M88.58,23.42c0.41,0.68,0.52,1.97,0.17,2.67c-1.87,3.66-5.1,7.85-8.64,12.36c-0.39,0.5-0.2,0.93,0.15,1.25c4.54,4.12,7.13,6.71,9.49,13.23"/><path d="M48.92,63.08c0.69,0.27,5.97,0.58,6.67,0.5c3.25-0.37,24.86-2.38,30.33-2.67c1.07-0.05,4.12,0.44,5,0.67"/><path d="M68.61,63.4c1,1,1.15,2.53,1.15,3.79c0,8.84-0.05,6.74-0.05,21.9"/><path d="M45.08,90.25c0.71,0.4,3.95,0.62,5.17,0.5c10-1,28.65-1.91,40.5-2.5c1.94-0.1,5.86,0.71,6.83,1.33"/></svg>