<svg><path d="M18.75,20.92c0.5,0.83,1.19,2.68,1.19,3.65c0,4.19,0.16,25.31-0.41,33.31c-0.81,11.38-1.64,22.86-9.27,35.94"/><path d="M19.75,21.92c1.94-0.06,10.22-1.54,11.67-1.67c2.58-0.23,3.79,1.48,3.79,2.83c0,3.2-0.48,44.8-0.48,62.96c0,12.49-4.32,4.87-5.97,3.37"/><path d="M21.08,42.58c3.84-0.25,9.94-1.03,13.32-1.05"/><path d="M19.42,60.75c3.34-0.09,10.46-0.85,15-1.33"/><path d="M44.25,27.25c1.1,0.61,4.53,1.35,5.63,1.25c9.02-0.86,26.62-2.5,39.71-3.75c1.82-0.17,4.58-0.04,5.5,0.26"/><path d="M47.75,39.25c1.25,0.75,2.12,2.7,2.12,3.5c0,6.25-0.23,45.52-0.21,52.45"/><path d="M49.58,41.25c6.58-0.3,38.25-3.67,39.83-3.67s3.16,2,3.16,3.34c0,4.83-0.66,34.77-0.66,46.3s-5.27,3.23-6.66,2.53"/><path d="M50.08,56.08c8.13-0.47,35.27-2.43,41.83-2.83"/><path d="M50.75,70.58c6.08-0.49,32.97-2.51,40-2.83"/><path d="M67.08,13.08c1.03,0.56,2.01,2.15,2.21,3.27c0.2,1.12,0,69.37-0.21,76.36"/><path d="M76.58,11.92c4.98,1.19,11.42,4.15,12.67,6"/></svg>