<svg><path d="M32.25,15c0.24,2.17-0.32,4.26-1.1,6.12C26.19,32.98,19.89,44.61,8.5,59.04"/><path d="M23.78,42.5c1.17,1.17,1.5,2,1.5,3.98c0,9.87-0.02,28.41-0.03,39.77c0,3.03,0,5.54,0,7.25"/><path d="M36.52,30.33c1.2,1.2,1.51,2.67,1.51,5.02c0,10.82-0.01,27.5-0.02,37.52c0,3.46,0,6.1,0,7.38"/><path d="M60.1,12.39c0.12,1.38-0.09,2.43-0.78,3.7c-2.42,4.51-7.01,12-13.32,17.07"/><path d="M58.22,24.12c1.91,0.25,3.41,0.13,5.67-0.07c5.78-0.5,12.73-1.43,21.37-2.69c2.01-0.29,3.89-0.32,5.88,0.03"/><path d="M78.54,25.38c0,1.25-0.63,2.27-1.47,3.27C69.75,37.38,62.25,44,45.12,51.25"/><path d="M54,29.45c3.46,1.45,17.65,10.35,30.73,17.09c2.04,1.05,6.02,2.83,9.52,3.91"/><path d="M52.85,54.03c0.87,0.87,1.13,1.85,1.13,3.19c0,0.47-0.04,21.88-0.06,33.28c0,3.09-0.01,5.44-0.01,6.44"/><path d="M54.87,55.66c2.26-0.14,23.01-2.43,24.7-2.43c2.06,0,3.52,1.15,3.52,3.43c0,2.34-0.07,23.01-0.07,34.42c0,9.17-4.64,2.67-6.41,0.77"/><path d="M55.12,67.01c7.73-0.85,20.36-1.86,27.15-2.29"/><path d="M55.18,78.14c7.69-0.89,19.73-1.94,26.71-2.22"/></svg>