<svg><path d="M26.75,14.92c1.37,0.41,4.13,1.09,5.5,1c11.11-0.77,35.57-2.98,41.5-3.33c2.28-0.13,5.69,0.29,6.83,0.5"/><path d="M29.3,16.92c0.05,1.57-0.09,4.04-0.09,6.29c0,14.5-3.58,36.39-15.45,50.68"/><path d="M40.08,23.58c0.85,0.34,3.03,0.8,3.88,0.71c5.43-0.58,20.21-1.84,25.62-2.38c1.41-0.14,3.62-0.34,4.33-0.17"/><path d="M32.58,32.42c0.77,0.27,4.39,0.83,5.17,0.83c6.25,0,34.68-3.42,40-3.5c1.29-0.02,5.19,0.03,5.83,0.17"/><path d="M40.25,32.92c1.17,0.91,0.42,0.74,0.42,2.04c0,6.15-0.26,14.58-0.26,15.63c0,1.04,0.87,2.11,2.5,1.33c1.63-0.78,10.09-5.25,12.26-6.04"/><path d="M75.78,34.54c0.02,0.16,0.05,0.41-0.05,0.64c-0.56,1.34-3.76,4.29-8.14,6.1"/><path d="M51,32.23c6.55,1.57,25.13,17.19,30.25,20.19c1.74,1.01,3.5,0.44,5.24,0.73"/><path d="M38.25,58.92c0.67,0.52,1.84,2.08,1.84,3.79c0,0.58,0.25,34.01,0.16,35.21"/><path d="M40.1,60.67c6.65-0.42,28.31-2.79,30.29-2.97c3.54-0.32,4.44,0.56,4.44,3c0,2.04-0.07,20.37-0.07,31.32c0,10.74-6.61,2.4-7.49,1.74"/><path d="M41.46,71.39c9.07-0.93,23.88-2.33,31.84-2.84"/><path d="M42.16,81.46c7.12-0.55,23.36-2.29,31.59-2.71"/></svg>