<svg><path d="M19.57,20.01c0.84,0.84,1.02,1.89,1.03,2.84C21,49,21.38,78.12,11.5,92.87"/><path d="M21.38,21.34c2.68-0.42,10.69-1.84,13.48-2.17c2.91-0.35,4.19,0.74,4.17,3.57c-0.05,7.04-0.01,44.73-0.01,62.22c0,11.37-5.8,3.6-7.56,2.07"/><path d="M21.88,41.98c4.21-0.41,11.92-1.79,15.62-1.82"/><path d="M20.88,60.23c5.62-0.8,11.82-1.49,16.93-1.98"/><path d="M53.56,17.58c2.58,2.14,6.65,8.8,7.3,12.13"/><path d="M82.27,12.39c0.08,1.02-0.02,2.03-0.29,3.01c-2.1,5.22-3.97,9.72-7.98,15.57"/><path d="M50.24,35.56c0.79,0.79,1.18,1.7,1.27,2.79c0.66,3.58,1.95,10.54,2.97,16.11c0.27,1.46,0.51,2.88,0.71,4.19"/><path d="M52,36.6c9.19-1.12,23.85-2.48,30.75-3.38c3.51-0.46,5.68,0.75,4.84,4.56c-0.95,4.32-2.17,8.79-3.37,14.34"/><path d="M55.63,55.96c5.25-0.33,17.47-1.7,26.12-2.5c1.45-0.13,2.75-0.33,4.26-0.09"/><path d="M62.54,62c0.05,0.74-0.05,1.92-0.35,2.96c-1.94,6.8-7.07,19.67-17.38,28.55"/><path d="M72.81,57.35c0.8,0.8,1.17,1.81,1.2,3.6c0.08,4.95,0,15.04,0,21.17c0,9.38,1.25,10.92,10.95,10.92c10.3,0,10.8-1.55,10.8-7.91"/></svg>