<svg><path d="M15.75,17.08c1.25,0.67,1.69,1.67,1.69,3.31c0,0.97,0.14,26.88-0.37,34.89c-0.73,11.41-1.82,21.46-8.32,36.02"/><path d="M17.92,19.25c1.86-0.06,11.45-2.04,12.83-2.17c2.48-0.22,3.29,0.79,3.29,2.12c0,3.16,0.04,45.17,0.04,63.09c0,14.21-5.24,5.6-6.82,4.12"/><path d="M18.99,38.84c3.94-0.26,11.13-1.48,14.58-1.5"/><path d="M17.6,58.07c3.49-0.06,10.71-1.03,15.45-1.37"/><path d="M45.25,25.92c1.25,0.83,2.13,2.73,2.13,4.05c0,1.32,1.7,36.29,1.7,36.95"/><path d="M47.58,28.25c2.85-0.59,37.09-3.28,39.6-3.63c1.42-0.2,3.11,0.77,2.94,3.08c-0.26,3.54-1.8,21.5-2.54,36.39"/><path d="M58.08,12.42c0.64,0.41,1.97,3.16,1.99,4.01c0.4,18.24,0.84,41.23,1.28,48.9"/><path d="M74.08,12.08c0.53,0.38,1.67,1.92,1.67,4.17c0,23-0.26,32.55-1,48.5"/><path d="M48.68,46.05c2.4,0,37.2-2.89,39.92-2.89"/><path d="M40.08,67.58c1.11,0.32,2.92,0.67,5.33,0.5c8.56-0.59,34.72-3.03,47.83-3.17c1.85-0.02,3.75-0.17,5.67,0.67"/><path d="M58.98,74.06c0.05,0.47,0.1,1.23-0.1,1.91c-1.19,4.02-7.99,12.85-17.31,18.25"/><path d="M75.42,74.2c5.96,3.77,15.41,15.51,16.9,21.38"/></svg>