<svg><path d="M19.91,14.19c0.7,0.7,0.95,1.78,0.95,2.48c0,0.33-0.06,16.62-0.08,26.21c-0.01,2.87-0.01,5.15-0.01,6.2"/><path d="M21.73,15.21c5.77-0.71,14.96-1.89,23.02-2.48c1.56-0.14,3.13-0.2,4.7-0.17"/><path d="M34.41,14.93c0.58,0.58,0.7,1.44,0.7,2.07c0,0.42-0.11,3-0.11,5.75"/><path d="M21.83,25.29c7.51-0.81,16.76-2.32,22.55-2.99c2.66-0.31,3.5,1.08,2.95,3.15c-0.8,3.03-1.2,4.56-2.04,6.19"/><path d="M21.51,34.75c2.41-0.25,12.68-1.21,19.61-1.83c2.87-0.26,5.17-0.46,6.11-0.53"/><path d="M33.82,34.07c0.68,0.68,0.95,1.81,0.95,2.82c0,2.62-0.02,3.44-0.02,6.49"/><path d="M21.46,45.42c3.2-0.34,15.75-1.38,23.79-1.87c1.34-0.1,2.68-0.14,4.02-0.11"/><path d="M58.8,15.25c1.77,0.23,3.55,0.28,5.33,0.15c4.49-0.64,14.3-2.16,17.89-2.78c2.39-0.41,3.92,0.54,2.79,3.08c-6.11,13.86-18.58,23.18-29.75,28.47"/><path d="M58.19,21.16c2.89,0.47,14.56,10.84,24.87,18c3.19,2.21,6.62,3.9,10.33,5.01"/><path d="M36.45,52.95c0.86,0.86,1.12,2.05,1.12,3c0,2.2-0.01,25.46-0.02,36.8c0,3.09,0,5.24,0,5.75"/><path d="M38.44,54.28c11.18-1.16,21.18-2.28,29.74-3.1c3.67-0.35,5.08,1.19,5.08,4.1c0,3.97,0.06,22.09,0.06,36.13c0,11.9-5.49,4.12-7.78,2.06"/><path d="M38.44,64.9c11.06-1.15,24.06-2.28,33.96-2.62"/><path d="M38.63,76.99c8.74-1.36,24.85-2.5,33.32-2.96"/></svg>