<svg><path d="M54.18,8.5c1.09,1.09,1.25,2.25,1.25,3.44c0,0.63-0.05,2.24-0.05,4.56"/><path d="M22.74,19.43c2.82,1.02,5.99,0.82,8.88,0.52c15.25-1.57,33.25-3.7,48.62-4.43c2.9-0.14,5.77,0.06,8.63,0.68"/><path d="M26.09,20.84c1.1,1.1,1.23,2.47,1.16,4.7C26.75,42,24.75,69.5,12.06,87.35"/><path d="M45.45,25.38c0.16,0.98-0.1,2.22-0.56,3.09c-2.88,5.4-7.51,12.04-15.02,18.53"/><path d="M41.35,39.78c0.4,0.72,0.75,1.82,0.75,3.19c0,3.1,0.08,7.35,0.02,13.77c-0.01,1.4-0.02,2.91-0.02,4.53"/><path d="M52.45,34.5c2.42,0.38,4.86,0.18,6.92-0.12c6.61-0.98,16.45-2.56,26.02-3.21c1.89-0.13,3.88-0.34,5.74,0.16"/><path d="M76.96,21.97c0.91,0.91,1.18,1.93,1.18,3.84c0,7.06,0.06,23.19,0.06,27.62c0,6.04-4.32,1.41-5.95,0.41"/><path d="M60.18,40.77c2.03,1.25,5.25,5.15,5.76,7.1"/><path d="M33,66.89c0.93,0.93,1.14,2.36,1.14,3.87c0,4.3,0.03,14.94,0,22.74c-0.01,3.06-0.02,5.57-0.02,6.88"/><path d="M35.74,68.54c7.01-0.67,41.86-3.85,43.02-3.85c2.23,0,3.78,1.81,3.78,4.05c0,1.01-0.04,23.63-0.04,27.63c0,5.12-3.69,1.06-5.78-1.03"/><path d="M56.79,56.86c0.33,0.89,0.25,1.89,0.06,2.64C55.12,66.25,51.5,76,43.07,80.96"/><path d="M56.12,70.75c4.86,1.56,12.57,6.41,13.78,8.83"/><path d="M56.76,77.81c0.12,1.07-0.27,1.96-0.68,2.69c-2.14,3.79-5.97,8.31-12.7,13.45"/><path d="M57.12,85.25c3.76,1.52,9.72,6.25,10.66,8.61"/></svg>