<svg><path d="M17.92,20.92c1.08,0.58,1.35,2.38,1.35,3.29c0,3.79,0.15,24.18-0.4,31.69c-0.78,10.69-1.59,21.46-8.96,33.74"/><path d="M19.99,21.83c1.96-0.06,10.83-2.78,12.29-2.9c2.23-0.18,3.76,1.77,3.76,3.09c0,3.14-0.49,44.96-0.49,62.8c0,12.27-5.3,4.57-6.96,3.09"/><path d="M20.32,39.95c4.11-0.38,11.63-2.21,15.25-2.24"/><path d="M19.93,57.23c3.53-0.09,10.83-1.4,15.62-1.86"/><path d="M63.58,14.25c0.82,0.4,3.5,3.26,3.66,4.05c0.16,0.79,0.08,4.78-0.08,9.73"/><path d="M45.75,29.85c1.07,0.35,3.56,0.65,4.63,0.59c11.09-0.59,32.37-3.44,41.5-4.38c1.77-0.18,3.32,0.42,4.21,0.59"/><path d="M49.96,30.76c0.03,1.34,0.06,3.46-0.06,5.39c-0.71,11.37-2.3,38.94-9.92,51.19"/><path d="M66.25,35.75c0.14,1.36-0.15,2.27-0.61,3.43c-2.89,7.42-6.83,16.76-13.45,25.79"/><path d="M59.25,58.58c0.75,0.67,1.15,1.76,1.21,2.9c0.42,8.85-0.51,27.1-0.21,32.43"/><path d="M67.25,51.54c0.89,0.23,3.1,0.42,4,0.35c5.25-0.42,15.83-2.39,24.33-2.66c1.49-0.05,2.92,0.23,3.67,0.34"/><path d="M83.92,32.42c0.83,0.83,1.83,2.83,1.83,3.83c0,10.49-0.24,48.75-0.24,52.32c0,6.68-4.98,1.28-6.66,0.18"/><path d="M68.42,59.67c3.02,2.33,7.68,9.14,8.44,12.76"/></svg>