<svg><path d="M18.58,16.42c1.67,1.33,1.64,3.32,1.83,4.33c0.19,1.02,0.18,27.47-0.43,36.01c-0.87,12.16-1.75,24.41-9.9,38.38"/><path d="M20.08,17.58c1.94-0.06,11.95-2.68,13.39-2.82c2.58-0.25,3.23,1.4,3.23,2.87c0,3.48-0.48,49.26-0.48,69c0,13.57-5.48,6.24-7.14,4.61"/><path d="M20.42,38.58c3.8-0.25,11.66-1.82,15-1.83"/><path d="M19.77,59.4c3.61-0.1,10.93-1.44,15.82-1.99"/><path d="M54.92,13.25c0.12,0.96-0.21,3.21-0.5,4c-1.95,5.26-3.65,8-8.57,13.57c-0.8,0.91-0.8,1.51-0.43,1.76c5.31,3.66,7.02,6.17,9.82,13.17"/><path d="M71.08,13.08c0.44,1.05-1.23,4.42-1.5,5.17c-1.33,3.67-2.67,5-7.48,11.11c-0.46,0.58-0.25,0.72,0.24,1.03c5.75,3.56,9.07,7.51,11.71,13.69"/><path d="M88.25,13.42c0.31,0.73-0.72,2.98-1,3.67c-1.5,3.67-2.79,3.73-7.83,9.83c-0.43,0.53-0.89,1.33-0.5,1.67c5.54,4.81,8.3,10.07,10.35,15.49"/><path d="M66.69,43.06c0.03,0.33,0.06,0.86-0.05,1.33c-0.67,2.81-4.54,8.97-9.83,12.74"/><path d="M47.92,58.75c1.08,1,2.11,3.14,2.23,3.95c1.02,6.68,2.64,22.58,3.27,35.05"/><path d="M50.92,60.58c9.44-1.65,28.45-3.29,35.5-4.67c2.59-0.51,3.63,2.87,3.5,4.67c-0.49,6.59-1.82,24.66-3,35.67"/><path d="M77.33,60.98c0.06,0.65,0.12,1.69-0.11,2.62c-1.35,5.53-9.12,17.68-19.75,25.12"/><path d="M57.1,66.08C65,69.74,77.5,81.11,79.47,86.8"/><path d="M54.08,95.58c7.48-0.64,20.49-2.02,32.33-2.33"/></svg>