<svg><path d="M17.42,20.08c0.83,0.92,1.67,2.54,1.67,3.5c0,4.17,0.5,23.35-0.04,31.27c-0.77,11.28-1.56,24.65-8.8,37.62"/><path d="M19.42,21.08c3.83-1.08,11.97-2.36,13.45-2.49c2.67-0.23,3.33,1.29,3.33,2.64c0,3.19-0.5,45.19-0.5,63.32c0,12.47-5.08,4.69-6.79,3.2"/><path d="M19.82,39.5c4.11-0.28,12.14-1.63,15.75-1.65"/><path d="M18.93,57.09c3.27-0.07,12.02-1.18,16.45-1.58"/><path d="M47.75,17.08c0.6,0.55,1.85,2.04,1.95,2.82c0.3,2.35,3.65,21.41,3.88,22.18"/><path d="M49.79,18.43c3.49-0.28,29.94-3.56,33.12-3.84c2.65-0.24,4.66,0.91,3.94,4.44c-1.31,6.41-2.08,13.57-3.61,20.89"/><path d="M52.74,28.62c4.32-0.29,26.77-2.5,31.66-2.83"/><path d="M53.81,40.8c6.79-0.37,20.33-2.24,29.11-2.72"/><path d="M53.92,47.92c0.03,0.48,0.03,1.32-0.1,2c-0.72,4.03-5.41,13.09-11.07,18.5"/><path d="M54.42,58.08c0.66,0.31,4.34,0.4,5,0.33c4.76-0.44,20.83-2.42,26-3.17c1.57-0.23,3.75,0.45,4.33,0.5"/><path d="M67.42,43.58c0.69,0.51,1.99,1.67,1.99,4.14c0,1.02-0.09,35.19-0.23,41.55"/><path d="M52.75,72.58c0.71,0.48,3.45,0.9,4.17,0.83c7.58-0.67,21.89-2.44,26.33-3.17c1.19-0.19,4.2,0.26,4.83,0.33"/><path d="M44.58,90.58c1.08,0.43,3.78,0.43,4.86,0.34c7.8-0.62,31.3-2.42,40.97-2.5c1.8-0.02,3.58,0.08,5.67,1"/></svg>