<svg><path d="M17.5,21c0.75,0.75,0.98,1.97,1,3c0.5,32.38-1.62,52.5-8.75,66"/><path d="M19.5,22.75c4-1,12.04-2.84,14.25-3.25c2-0.38,3.5,0.88,3.5,3c0,6.75,0,42,0,62.25c0,10.75-4.75,5.25-7.5,2.25"/><path d="M19.5,40c6.25-1,10.5-1.75,16.75-2.5"/><path d="M18.75,57.75C24,57,30,56,36.25,55.5"/><path d="M48.89,19.64c2.86,0.48,5.36,0.31,7.35-0.04c6.18-1.09,19.66-2.98,26.78-3.72c2.02-0.21,4.51-0.31,6.49,0.35"/><path d="M48.48,33.34c0.66,0.65,1.02,1.44,1.09,2.37c0.65,2.69,1.33,7.06,1.88,11.02c0.2,1.42,0.37,2.79,0.53,4.01"/><path d="M50.23,34.36c12.9-2.61,27.77-4.61,37.05-5.63c3.5-0.38,5.05,0.79,4.21,4.57c-0.52,2.36-1.44,6.08-2.25,9.01c-0.38,1.36-0.78,2.76-1.22,4.19"/><path d="M60.44,21.36c0.85,0.85,1.02,2.1,1.09,3.05C62,30.88,62.38,35.62,63,45.28"/><path d="M75.59,18.73c0.79,0.89,1.14,1.89,1.02,3.45c-0.49,6.57-0.99,16.2-1.15,21.18"/><path d="M52.75,47.78c9.78-1.59,27.1-3.93,35.13-4.66"/><path d="M65.38,51.78c0.35,1.18,0.27,2.44-0.17,3.87c-1.71,5.48-4.13,11.82-8.51,20.06c-0.95,1.79-0.21,2.53,0.51,2.55c4.78,0.13,15.67,3.62,23.11,8.16c4.08,2.49,7.43,5.56,9.19,8.66"/><path d="M80.58,60.04c0.17,1.21,0.19,2.63-0.19,3.84C77.25,74,69.62,88.5,49.37,96"/><path d="M43.9,65.28c2.52,1.03,5.61,0.52,8.23,0.23c9.69-1.07,27.58-3.39,39.62-3.89c2.36-0.1,5.29-0.47,7.48,0.69"/></svg>