<svg><path d="M16.96,18.99c0.84,0.84,0.96,2.01,0.96,3.05C17.88,58.75,17.38,79,9.25,91.89"/><path d="M18.62,19.81c3.53-0.69,9.45-1.72,12-2.09c3.1-0.45,4.18,1.08,4.16,3.9c-0.05,7.71-0.22,47.78-0.22,64.94c0,12.61-5.63,3.55-7.25,2.04"/><path d="M18.62,38.95c4.19-0.35,10.76-1.45,15.05-1.82"/><path d="M18.07,58.15c3.45-0.08,10.84-1.28,15.53-1.7"/><path d="M66.23,12c0,1.12-0.3,1.96-0.81,2.75c-1.92,3-2.85,4.42-5.92,8.12"/><path d="M47.84,25.22c0.97,0.97,1.13,2.1,1.46,3.39c0.94,3.74,2.36,10.51,3.27,15.63c0.37,2.08,0.66,3.88,0.81,5.1"/><path d="M49.28,25.77c3.78-0.48,27.59-3.27,33.46-3.86c3.7-0.37,4.82,1.26,4.24,4.71c-0.47,2.8-1.49,8.92-2.77,15.25c-0.36,1.78-0.74,3.58-1.14,5.32"/><path d="M52.14,36.24c9.73-0.99,24.11-2.36,32.94-2.92"/><path d="M54.19,47.41c9.47-1,19.84-1.9,27.95-2.31"/><path d="M66.65,51.42c1.09,1.09,1.27,2.7,1.27,4.38c0,12.21-0.04,31.05-0.04,35.2c0,6.5-3.62,4-7.2-0.29"/><path d="M43,64.39c1.18,0.18,2.54,0.38,3.75,0.11c2.25-0.5,8.2-2.33,10.17-3.05s3.62,1.07,2.96,2.67c-2.66,6.49-7.13,17.63-18.38,25.38"/><path d="M89.5,53.75c0,1-0.36,1.89-0.86,2.59C85.12,61.25,82.2,64.1,77,68"/><path d="M69.62,64c5.75,7.75,11.88,15,17.74,20.39c2.54,2.34,4.01,3.86,7.69,5.44"/></svg>