<svg><path d="M15.42,17.92c1.08,1.08,1.4,2.2,1.54,3.16c0.14,0.96,0.12,27-0.33,35.05C15.98,67.58,15.5,80.5,9.25,92.31"/><path d="M16.75,19.58c1.9-0.06,12.71-2.02,14.12-2.15c2.53-0.23,3.16,1.31,3.16,2.69c0,3.25-0.47,46.53-0.47,64.98c0,12.69-5.36,4.67-6.98,3.15"/><path d="M17.15,39.06c4.52-0.28,12.78-1.6,16.75-1.62"/><path d="M17.76,59.45c3.34-0.08,10.25-1.23,14.79-1.63"/><path d="M46.58,18.58c0.32,0.49,1.35,2.41,1.43,3.06c0.67,5.43,2.55,15.94,3.25,26.94"/><path d="M48.51,19.94c11.39-1.46,27.86-3.08,34.57-3.69c2.69-0.25,4.08,1.82,3.83,4c-0.78,6.89-1.97,17.63-3.49,25.98"/><path d="M67.92,21.25c0.09,0.44,0.48,2.32,0.33,3c-0.38,1.71-10.06,15.62-13.08,17.11"/><path d="M68.42,29.58c3.55,1.16,9.34,6.14,10.22,8.4"/><path d="M52.63,45.83c7.11,0,20.13-1.91,29.95-2.08"/><path d="M46.14,59.83c0.7,0.79,1.29,1.75,1.44,2.42c1.17,5.29,1.93,18.47,2.73,27.98"/><path d="M47.87,61.54c9.26-1.09,34.48-3.49,37.84-3.72c2.11-0.14,3.28,1.04,3.07,3.2c-0.31,3.05-1.44,23.11-2.52,27.23"/><path d="M59.9,62.54c0.23,0.51,0.96,1.43,1.06,2.06c0.79,5.01,0.87,16.17,1.41,25.17"/><path d="M74.13,61.5c0.37,0.6,0.71,1.63,0.65,2.41c-0.6,7.71-0.46,14.6-1.2,24.48"/><path d="M39.92,91.08c1.02,0.52,4.01,1.31,5.03,1.22c10.59-0.88,30.05-3.05,47.13-3.39c1.7-0.03,5.48,0.24,6.33,0.5"/></svg>