<svg><path d="M19.58,18.75c0.56,0.95,0.81,1.91,1,2.83c0.19,0.92,0.01,26.41-0.59,34.17c-0.75,9.77-4.45,26.5-9.75,34.88"/><path d="M20.82,20.18c1.88-0.06,10.86-2.29,12.25-2.41c2.5-0.22,3.13,1.28,3.13,2.61c0,3.16-0.47,45.28-0.47,63.24c0,15.39-5.39,6.12-6.98,4.64"/><path d="M21.15,40.68c3.62-0.29,10.75-1.58,13.93-1.6"/><path d="M19.92,59.42c3.57-0.1,10.33-1.44,15.17-2"/><path d="M56.85,13.41c0.03,0.44,0.13,1.27-0.07,1.76c-2.52,6.19-6.17,12.18-12.83,17.74"/><path d="M56.42,22.25c1.33,0.25,3.21,0.39,3.92,0.25c4.49-0.85,18.26-2.63,23.25-3.42c1.17-0.19,3.91-0.25,4.5,0"/><path d="M52.75,29.92c1,0.58,1.91,1.64,2,2.17c0.62,3.68,2.59,16.1,2.67,16.63"/><path d="M54.92,31.42c4.65-0.6,19.86-3.02,25.81-3.42c1.04-0.07,1.66,1.63,1.62,2.08c-0.45,5.67-0.83,12.67-2.26,17.51"/><path d="M56.92,39.08c1.95,0,22.13-2.5,24.33-2.5"/><path d="M57.72,47.66c3.96-0.42,17.6-2.22,22.53-2.58"/><path d="M44.92,56.08c1.04,0.43,3.84,0.85,5.83,0.67c10.75-1,28.97-3.33,39.17-3.5c1.74-0.03,3.79,0.12,4.67,0.33"/><path d="M57.56,59.05c0.04,0.4,0.2,1.08-0.07,1.6c-1.91,3.71-6.74,9.33-13.11,14.27"/><path d="M57.75,65.42c0.7,0.44,1.72,0.79,2.83,0.5c1.12-0.29,24.41-2.52,27.19-2.67c2.79-0.14,3.34,1.46,2.93,4.51c-0.42,3.05-5.15,18.7-11.28,26.99c-1.84,2.49-5.02,0.65-6.67-1.17"/><path d="M62.53,68.64c0.04,0.34,0.13,0.9-0.09,1.38c-2.07,4.77-7.75,11.39-15.92,15.3"/><path d="M75.01,66.72c0.09,0.74,0.32,1.96-0.17,2.98c-3.11,6.42-9.65,16.07-22.33,24.49"/></svg>