<svg><path d="M15.75,17.08c1.33,0.67,2.38,2.08,2.53,3.06c0.15,0.98,0.13,27.6-0.35,35.84c-0.69,11.72-1.39,23.53-7.85,37"/><path d="M18.99,18.42c1.9-0.06,10.97-2.36,12.39-2.49c2.53-0.23,3.16,1.32,3.16,2.7c0,3.27-0.47,46.74-0.47,65.28c0,12.75-4.02,7.21-5.64,5.68"/><path d="M19.32,39.25c3.84-0.25,10.87-1.47,14.25-1.49"/><path d="M18.93,58.48c3.45-0.08,8.96-0.81,13.65-1.23"/><path d="M45.58,15.92c0.83,0.83,1.39,1.69,1.41,3.6c0.1,14.42,0.1,48.53-0.21,76.06"/><path d="M48.07,17.43C61,16.5,83.4,15.25,91.58,15.25c1.86,0,2.62,1.01,2.58,4.05C94,35.18,93.49,72.48,93.83,94.92"/><path d="M51.75,36.08c0.71,0.34,4.46,1.64,5.17,1.5c5.47-1.11,21.59-2.86,28-3.33c1.19-0.09,3.24,0.49,3.83,0.67"/><path d="M51.92,46.08c0.18,0.35,1.78,1.54,1.83,2c0.5,4.08,1.12,12.65,1.62,18.64"/><path d="M54.58,47.58c3.84-0.79,8.27-0.92,11.81-1.72c0.89-0.2,1.43,0.92,1.3,1.83c-0.53,3.76-0.84,8.29-1.78,14.56"/><path d="M55.82,65.03c3.04-0.39,7.67-1.07,11.85-1.67"/><path d="M53.42,77.8c0.48,0.67,2.15,1.1,3.58,0.22c3.97-2.45,11.11-6.82,15.08-9.27"/><path d="M70.75,20.92c0.63,1.24,2,2.34,2.17,5c1.54,24.24,3.41,45.47,12.25,54.63c2.5,2.58,3.4,2.18,3.08-3.29"/><path d="M86.25,40.58c0.06,1.04,0.14,2.04-0.12,3.54C83.1,60.91,76.5,76.25,62.99,85.05"/><path d="M79.25,20.42c1.68,1.3,7.21,5.93,8,8.17"/><path d="M47.42,92.26c8.73,0,33.45-1.93,45.5-2.35"/></svg>