<svg><path d="M17.75,18.42c0.52,1.01,0.83,2.02,1,3c0.17,0.98,0.34,27.43-0.21,35.64c-0.78,11.69-1.59,23.48-8.96,36.92"/><path d="M19.75,20.25c1.78-0.06,10.34-1.85,11.66-1.98c2.37-0.23,2.96,1.33,2.96,2.72c0,3.29-0.44,47.16-0.44,65.86c0,12.86-3.83,5.96-5.34,4.41"/><path d="M19.65,40.43c3.75-0.2,10.47-1.33,13.76-1.34"/><path d="M18.92,60.58c3.12-0.05,9.41-0.98,13.63-1.25"/><path d="M47.75,18.42c1.18,0.22,4.09,0.74,5.17,0.67c5.08-0.33,20.59-1.93,30.33-2.83c1.49-0.14,3.8,0.03,5.17,0.33"/><path d="M44.11,25.6c-0.23,4.86-2.2,10.19-3.67,15.09"/><path d="M44.42,29.02c1.22,0.32,37.74-3.81,49.17-3.94c7.67-0.08-0.62,7.23-1.67,8.33"/><path d="M66.36,18.17c0.82,0.7,1.48,1.96,1.48,2.52c0,0.56,0.07,31.85,0.07,33.39"/><path d="M49.92,35.73c3.27,0.94,7.74,3.77,9.52,5.34"/><path d="M48.52,47.81c3.28,0.94,8.34,4.39,10.13,5.96"/><path d="M76.19,35.31c3.84,1.3,8.2,3.89,9.74,4.97"/><path d="M77.38,47.29c3.16,1.06,7.47,4.25,9.19,6.02"/><path d="M48.25,63.08c2.38,1.36,4.52,1.18,6.09,1c9.54-1.09,20.3-2.5,27.8-2.5c2.21,0,3.79,0.68,3.53,3.4c-0.87,9.41-0.36,19.18-1.41,29.93"/><path d="M42.56,77.47c1.39,0.34,3.89,1.21,5.55,1.02c15.26-1.7,29.27-3.06,43.14-3.74c2.22-0.11,5.34,0.66,7,1"/><path d="M49.42,92.32c0.78,0.28,5.51,0.93,6.45,0.78c8.59-1.39,15.23-1.47,23.05-2.03c1.25-0.09,3.74-0.12,4.67,0.16"/></svg>