<svg><path d="M 17.65,17.77 c 0.85,0.85 0.99,2.07 1,3.1 0.6,45.88 -1.93,62.23 -9.1,76.24"/><path d="M 19.58,19.37 c 2.92,-0.49 10.73,-2.39 12.11,-2.52 2.47,-0.23 3.09,1.34 3.09,2.73 0,3.31 0.04,49.31 0.04,68.08 0,11.34 -4.97,3.89 -6.55,2.34"/><path d="M 19.58,39.21 C 23.65,38.85 30.25,38 34.66,37.59"/><path d="M 19.54,57.59 C 23.88,57.25 29.82,56.53 34.36,56.1"/><path d="M 39.550982,24.16 c 0.81,0.32 2.29,0.84 3.09,0.69 6.29,-1.1 17.85,-1.85 24.61,-2.3 1.34,-0.09 2.15,0.06 2.82,0.2"/><path d="M 53.790982,11.26 c 1.14,0.52 2.05,2.49 2.05,3.69 0,4.05 0.17,10.55 0.17,22.64"/><path d="M 41.96953,38.531534 c 0.58,0.21 1.64,0.12 2.23,0.11 7.87,-0.14 14.25,-1.14 22.2,-2.26 0.96,-0.14 1.55,0.02 2.04,0.12"/><path d="M 43.96,49.22 c 0.66,0.66 0.92,1.53 1.2,2.52 0.56,1.96 1.36,4.49 1.76,7.24 0.2,1.41 0.64,2.79 0.79,3.98"/><path d="M 45.83,50.44 c 4.56,-0.82 13.22,-2.71 17.45,-3.39 2.12,-0.34 3.64,0.17 3.11,2.72 -0.52,2.56 -0.96,4.19 -2.13,7.96"/><path d="M 48.67,60.94 c 2.48,-0.28 8.44,-1.02 13.34,-1.65 1.55,-0.2 2.93,-0.36 3.93,-0.45"/><path d="M 44.75,70.12 c 1.99,1.7 5.14,7 5.63,9.64"/><path d="M 65.52,66.89 c 0.12,0.92 0,1.81 -0.34,2.66 -1.22,3.87 -3.02,8.12 -7.06,14.07"/><path d="M 43.18,89.15 c 0.51,1.15 1.73,1.58 3.43,0.98 C 52.65,88 59.62,85.12 68.13,82"/><path d="M 92.21,16.5 c 0.09,0.86 0.11,1.53 -0.41,2.23 C 89,22.5 84.38,27.5 75.83,32.92"/><path d="M 94.05,42.43 c 0.13,1 0.02,1.64 -0.55,2.48 -2.8,4.11 -10.98,11.48 -20.52,15.99"/><path d="M 97.29,68.59 c 0.1,0.67 -0.06,2.19 -0.62,3.07 C 92.94,77.51 81.88,88.5 63.44,97"/></svg>