<svg><path d="M17.92,17.58c1.08,0.67,1.16,2.2,1.33,3.17c0.17,0.97-0.33,27.92-0.87,36.05c-0.77,11.56-1.56,23.22-8.8,36.51"/><path d="M19.82,19.56c1.84-0.06,10.62-2.33,11.99-2.46c2.45-0.23,3.06,1.3,3.06,2.66c0,3.22-0.46,46.11-0.46,64.4c0,12.58-3.26,5.77-4.83,4.26"/><path d="M19.65,39.38c3.93-0.21,11.13-1.24,14.58-1.25"/><path d="M19.26,57.83c3.23-0.07,9.9-1.18,14.29-1.56"/><path d="M41.42,25.75c1.01,0.44,4.11,0.75,5.13,0.7c8.21-0.45,32.26-2.2,41.37-3.2c1.68-0.18,4.49,0.11,5.33,0.33"/><path d="M43.58,34.08c0.89,0.08,3.23,0.26,4.12,0.24c5.43-0.12,7.75-0.37,15.21-0.9c1.47-0.11,2.76-0.04,3.5,0"/><path d="M40.25,42.42c0.99,0.44,3.77,0.67,4.75,0.58c5.5-0.5,12.25-1,21.08-2.08c1.66-0.2,4.34-0.05,5.17,0.17"/><path d="M45.75,49.08c1,0.92,1.62,2.03,1.62,3.35s0.14,22.21-0.22,27.73"/><path d="M47.88,50.67c1.69-0.16,14.55-2.2,16.09-2.39c1.28-0.16,1.97,0.88,1.97,2.07c0,2.91-0.38,27-0.38,27.95"/><path d="M48.57,59.18c2.9-0.17,14.12-1.21,16.6-1.21"/><path d="M47.87,68.41c4.63-0.55,12.57-1.67,17.48-1.79"/><path d="M47.32,77.38c4.37-0.29,12.72-1.05,16.7-1.05"/><path d="M52.87,82.21c0.32,0.95-0.24,1.89-0.88,2.58c-1.93,2.1-6.99,6.57-10.85,9.05"/><path d="M60.16,81.18c3.95,3.05,8.63,8.57,9.71,11.24"/><path d="M71.25,11.42c1.25,1.33,2.56,1.83,2.72,5.5c1.32,29.48,4.89,56.57,18.94,71.5c3.92,4.17,4.33,1.08,4.33-5.32"/><path d="M82.55,10.25c3.92,1.43,10.2,4.69,12.03,7.14"/></svg>