<svg><path d="M19,18.75c1.25,1,1.43,2.64,1.43,3.6c0,7.65,0.17,24.51-0.46,32.42c-0.89,11.25-1.81,23.6-10.22,36.53"/><path d="M20.82,20.25c1.94-0.06,11.21-2.36,12.65-2.49c2.58-0.23,3.23,1.32,3.23,2.69c0,4.09-0.48,47.45-0.48,65.13c0,12.72-5.65,5.19-7.3,3.67"/><path d="M21.65,40.73c3.76-0.25,10.8-1.29,14.1-1.31"/><path d="M20.26,59.5c3.49-0.08,10.41-1.15,15.15-1.58"/><path d="M61.76,10.5c0.06,0.43,0.11,1.11-0.11,1.73C60.37,15.87,53.04,23.86,43,28.75"/><path d="M59.58,18.13c5.18-0.34,13.74-1.43,18.9-2.81c1.49-0.4,2.6,0.61,1.55,2.11c-2.97,4.24-6.96,8.05-9.61,12.16"/><path d="M48.08,31.01c1.48,0.42,4.53,0.78,6,0.62c8.67-0.89,24.48-2.18,35-3.12c2.45-0.22,5.44,0.29,6.67,0.5"/><path d="M51.59,32.08c0.03,1.42,0.06,3.18-0.06,5.22c-0.74,12.07-0.78,41.44-10.39,54.33"/><path d="M62.79,32.92c0.12,0.68,0.25,0.95,0.19,1.53c-0.45,4.41-1.97,10.34-5.65,13.31"/><path d="M75.33,31.08c0.72,0.65,1.34,1.42,1.34,2.43c0,1.35-0.21,3.89-0.21,4.86c0,3.64,0.79,3.64,7.18,3.72c4.26,0.06,7.4,0,9.21-0.85"/><path d="M67.04,43.17c2.75,1.41,6.6,5.28,7.29,7.47"/><path d="M55.58,56.08c0.78,0.2,3.17,1.04,5.45,0.86C69.5,56.25,84,54.5,88.95,53.95c1.29-0.14,3.05-0.2,4.64,0.25"/><path d="M59.75,64.2c1.25,0.8,3.03,1.03,3.59,1.02c5.89-0.15,11.44-1.33,17.23-1.58c2.12-0.09,4.03,0.06,4.5,0.13"/><path d="M60.08,72.75c0.42,0.12,1.42,0.75,3.33,0.67c4.33-0.19,12.36-1.26,16.6-1.73c1.73-0.19,2.48-0.19,4.23,0.39"/><path d="M56.25,81.08c0.36,0.29,1.42,1.62,1.53,2c1.02,3.33,1.22,8.92,2.3,14.33"/><path d="M58.58,82.25c6.02-0.81,21.36-2.05,26.91-2.86c1.39-0.2,2.7,0.94,2.5,1.86c-0.83,3.84-1.77,5.1-3.25,11.5"/><path d="M60.25,94.75c4.46-0.38,20.55-1.59,26.67-2.17"/></svg>