<svg><path d="M19.44,19.24c0.49,0.95,0.97,1.87,0.98,2.8c0.58,44.21-2.3,55.09-8.92,68.35"/><path d="M21.4,20.56c2.8-0.6,9.35-2.11,11.97-2.58c2.92-0.52,4.18,0.78,4.16,3.52c-0.05,7.46,0.01,48.8,0.01,66.06c0,12.61-6.04,3.55-7.71,2.04"/><path d="M21.9,40.7c4.83-0.69,10.72-1.58,14.76-1.82"/><path d="M21.35,58.65c4.15-0.4,10.15-1.28,14.98-1.7"/><path d="M54.59,13.32c2.48,1.83,6.41,7,7.04,9.85"/><path d="M80.02,10.64c0,1.11-0.27,1.86-0.53,2.63c-1.87,3.6-3.25,6.47-6.84,10.88"/><path d="M49.75,29.31c2.47,0.22,4.94,0.2,7.4-0.17c7.61-1.14,17.71-2.52,25.73-3.08c2.22-0.16,4.37-0.36,6.52,0.13"/><path d="M52.72,39.76c2.17,0.52,4.31,0.26,6.54-0.02c6.99-0.87,14.94-2.03,21.5-2.67c1.98-0.21,3.94-0.1,5.89,0.32"/><path d="M48.19,49.95c2.92,0.45,5.81,0.49,8.69,0.12c9.1-1.04,21.36-2.32,29.87-2.91c2.47-0.2,4.92-0.05,7.33,0.46"/><path d="M68.44,29.68c0.81,0.81,1.25,2.2,1.25,3.49c0,1.01-0.07,25.57-0.07,32.46"/><path d="M52.42,56.89c2.16,1.52,5.59,5.49,6.13,7.84"/><path d="M85.67,51.96c0.05,0.74,0.02,1.49-0.27,2.17c-1.64,3.75-2.77,5.37-4.89,8.62"/><path d="M43.88,69.2c3.09,0.72,6.12,0.39,9.26,0c10.3-1.28,26.92-3.47,38.48-4.04c2.91-0.16,5.83-0.11,8.74,0.15"/><path d="M54.36,77.97c0.77,0.77,0.96,1.51,1.16,2.65c1.03,6,1.7,9.57,2.2,12.38c0.32,1.82,0.58,3.32,0.81,4.96"/><path d="M56.31,78.95c8.68-1.36,24.31-2.89,28.78-3.35c1.64-0.17,2.62,1.68,2.39,2.67c-0.97,4.07-1.98,8.22-3.66,14.57"/><path d="M58.87,95.63c4.19-0.42,14.85-1.27,22.38-1.87c1.91-0.15,3.61-0.29,4.96-0.39"/></svg>