<svg><path d="M16.39,18.04c0.56,0.96,0.94,1.91,1.13,2.87c0.19,0.96,0.27,22.8,0.19,24.95c-0.38,10.28-0.95,31.9-8.45,45.54"/><path d="M17.74,20.38c1.26-0.23,11.29-2.13,12.22-2.38c1.68-0.46,3.82,1,3.6,2.38c-0.55,3.37-0.31,47.46-0.31,66.16c0,12-4.49,3.21-6.06,1.58"/><path d="M17.74,39.59c4.29-0.49,11.31-1.11,15.08-1.02"/><path d="M18.05,59.38c3.35,0,10.7-0.88,14.56-1.21"/><path d="M57.6,20.55c1.25,0.17,2.5,0.34,3.62,0.26c9.82-0.72,19.05-1.62,31.28-2.38c1.72-0.11,2.62-0.11,4.02,0.22"/><path d="M72.06,12.25c0.1,0.57,0.17,1.6-0.01,2.24c-3.17,10.93-8.25,19.7-15.93,25.8"/><path d="M69.75,28.01c0.41,0.2,2.37,0.24,2.79,0.21c3.12-0.25,12.21-1.04,16.82-1.67c0.63-0.09,2.13,0.04,2.66,0.21"/><path d="M77.28,27.97c0.85,0.62,1.16,1.47,1.16,1.96c0,2.35,0.03,4.4,0.03,6.86"/><path d="M64.29,37.7c0.56,0.16,2.24,0.26,3.18,0.25C75.5,37.83,83.46,36,93,36.11c1.52,0.02,2.73,0.26,3.49,0.5"/><path d="M66.43,45.09c0.48,0.56,0.79,1.12,0.95,1.67c0.16,0.55,0.22,35.56,0.16,36.78"/><path d="M68.34,46.27c1.9-0.05,17.36-1.95,18.77-2.04c2.54-0.15,3.49,1.92,3.17,2.72c-0.31,0.77-0.48,18.6-0.48,29.58c0,9.73-2.85,3.99-4.98,1.82"/><path d="M68.34,56.43c6.5-0.51,15.13-1.66,20.83-1.81"/><path d="M67.57,65.88c5.07-0.17,14.83-1.15,22.11-1.73"/><path d="M42.35,15.75c3.73,1.5,9.63,6.18,10.56,8.52"/><path d="M40.1,36.25c3.81,1.15,9.85,4.73,10.81,6.52"/><path d="M38.25,60.78c1.84,0.7,3.06,0.35,3.88,0.17s6.53-2.45,7.75-2.8c1.22-0.35,3.06,0.87,2.24,1.92c-0.82,1.05-2.26,4.57-2.88,5.44c-0.61,0.87-0.41,2.45,0.82,3.67c1.22,1.22,3.24,2.62,3.86,3.67c0.61,1.05,0.61,1.92-0.61,2.8c-1.22,0.87-5.56,5.09-9.07,7.12"/><path d="M38.61,84.93c2.06-0.39,6.17-1.36,9.25-0.58c3.08,0.77,20.62,5.97,23.65,6.97c8.23,2.71,14.57,3.48,20.74,2.13"/></svg>