<svg><path d="M17.92,20.08c0.58,1.17,0.98,1.72,1.17,2.67c0.18,0.95,0.01,27.32-0.57,35.28c-0.75,10.29-3.4,25.66-9.43,35.78"/><path d="M19.25,21.58c1.78-0.06,11-1.53,12.33-1.65c2.37-0.23,2.96,1.29,2.96,2.64c0,3.19-0.44,45.19-0.44,63.32c0,12.47-3.66,5.86-5.18,4.36"/><path d="M19.65,41.67C23.5,41.39,30.53,40.02,33.9,40"/><path d="M18.58,61.58c3.27-0.06,10.4-1.16,14.83-1.5"/><path d="M64.68,10.5c0.07,0.77,0.27,2.07-0.14,3.1C61.61,20.87,53.27,32.9,40,43.27"/><path d="M65.51,13.42c4.38,4.75,22.7,19.73,27.53,23.21c1.64,1.18,3.74,1.68,5.38,2.02"/><path d="M53.25,36.08c0.76,0.25,2.47,0.76,3.23,0.71c4.99-0.34,14.23-2.13,19.27-2.21c1.27-0.02,4.03,0.54,4.67,0.67"/><path d="M44.75,45.25c0.36,0.67,1.68,1.45,1.83,2.33c0.42,2.43,2.13,12.94,2.86,16.58"/><path d="M46.58,46.58c3.74-0.75,40.28-3.86,41.83-4c1.3-0.12,3.24,0.89,3.12,1.59c-0.56,3.23-2.48,14.21-3.29,18.07"/><path d="M66.27,46.25c0.83,0.65,1.06,0.94,1.08,2.16c0.05,3.64,0.18,10.11,0.18,11.75"/><path d="M54.26,49.64c2.17,1.44,5.61,5.91,6.16,8.14"/><path d="M81.16,47.49c0.02,0.24,0.04,0.62-0.03,0.96c-0.42,2.02-2.83,6.46-6.13,9.17"/><path d="M50.5,62.14c4.84-0.53,33.52-2.56,37.2-2.56"/><path d="M51.75,69.25c0.22,0.5,1.38,1.21,1.5,1.83c1,5.12,1.86,16.95,2.48,26.41"/><path d="M53.85,70.62c7.97-0.65,21.64-2.21,27.6-2.81c2.19-0.22,2.91,1.47,2.8,2.77c-0.41,4.78-1.17,17.87-2.17,25.83"/><path d="M55.75,82.42c2.33-0.26,24.58-1.96,26.5-2"/><path d="M56.42,95.58c6.58-0.55,18.12-1.22,24.5-1.67"/></svg>