<svg><path d="M17.47,20.74c0.52,0.95,0.88,1.88,1.05,2.8c0.17,0.92,0.15,25.91-0.41,33.63c-0.8,11-0.86,19.83-8.11,34.72"/><path d="M18.57,22.81c4.18-1.06,11.15-2.34,12.71-2.46c2.8-0.23,3.5,1.31,3.5,2.67c0,3.23-0.53,46.22-0.53,64.55c0,12.61-5.91,3.55-7.7,2.04"/><path d="M18.57,41.2c4.61-0.35,11.53-1.54,15.58-1.57"/><path d="M18.01,60.65c3.79-0.08,10.64-0.78,15.79-1.2"/><path d="M48.31,21.55c0.27,0.51,0.83,1.79,1.02,2.44c0.94,3.26,3.56,17.23,3.65,17.91"/><path d="M50.25,22.5c2.52-0.32,33.39-3.65,35.61-3.74c2.25-0.1,2.84,1.39,2.6,3.14c-0.48,3.45-2.76,10.1-4.71,17.08"/><path d="M59.1,11.89c0.79,0.46,1.74,2.05,1.81,2.98c0.39,5.63,0.86,16.63,1.49,24.76"/><path d="M73.07,11.23c1.08,0.46,1.52,2.05,1.41,2.98c-1.01,8.9-1.12,18.53-1.92,23.72"/><path d="M51.35,30.63c2.09,0,32.8-3.1,35.16-3.1"/><path d="M53.6,40.69c4.26-0.33,24.92-2.68,30.22-2.96"/><path d="M48.76,49.54c1.08,0.41,3.05,0.5,4.13,0.41c8.73-0.77,27.66-2.99,32.32-3.34c1.79-0.13,1.96,0.22,3.77,0.4"/><path d="M51.47,50.14c0,22.74-5.13,35.07-12.41,41.74"/><path d="M58.01,58.25c0.67,0.29,1.89,0.37,2.56,0.29c4.25-0.5,15.01-2.47,19.24-2.94c1.1-0.12,1.78,0.14,2.33,0.28"/><path d="M52.41,68.22c0.67,0.29,1.89,0.37,2.56,0.29c4.25-0.5,27.78-3.49,32.37-3.58c1.11-0.02,3.2,0.14,3.75,0.28"/><path d="M58.39,70.57c1.06,1.32,0.99,1.89,0.99,3.78c0,8.94-0.07,19.44-0.71,20.9c-0.58,1.33,0.78,2.87,2.26,1.73c1.48-1.13,9.65-9.08,11.62-10.21"/><path d="M86.01,70.74c0.02,0.22,0.04,0.56-0.03,0.87c-0.4,1.83-2.68,5.86-5.8,8.32"/><path d="M67.31,71.69c5.38,1.67,20.85,17.21,25.06,20.4c1.43,1.08,2.65,1.54,4.07,1.85"/></svg>