<svg><path d="M17.75,19.75c0.55,0.99,0.98,3.04,1.17,4c0.18,0.97,0.34,23.52-0.25,31.63C17.83,66.92,16.5,79.5,9.08,93.31"/><path d="M19.92,21.25c1.76-0.06,11.05-2.36,12.36-2.49c2.34-0.22,2.93,1.29,2.93,2.62c0,3.18-0.44,45.48-0.44,63.53c0,12.41-4.69,5.99-6.18,4.5"/><path d="M19.99,41.07c3.94-0.25,11.13-1.45,14.58-1.47"/><path d="M19.43,59.79c3.34-0.07,9.95-0.84,14.49-1.21"/><path d="M65.58,11.25c0.42,0.42,1.45,1.8,1.45,2.64c0,3.09-0.13,5.5-0.05,8.12"/><path d="M42.42,22.58c2.08,0.92,3.96,0.96,5.33,0.83c10.25-0.92,32-2.67,43-3.17c1.4-0.06,3.29,0.27,4.33,0.67"/><path d="M58.57,24.83c2.07,1.29,5.34,5.3,5.86,7.3"/><path d="M74.01,24.23c0.02,0.22,0.04,0.57-0.04,0.89c-0.42,1.88-2.79,6-6.05,8.52"/><path d="M65.58,35.92c0.36,0.33,1.84,1.39,1.87,2.48c0.15,5.26-0.01,11.81-0.01,13.6"/><path d="M41.42,33.92c0.41,0.21,2.08,0.73,2.44,0.65c2.94-0.6,12.45-1.69,14.07-1.91c1.06-0.14,1.41,0.65,1.29,1.65c-0.61,5.54-1.88,11.04-3.74,15.25c-0.98,2.21-3.02,1.24-3.73-0.48"/><path d="M49.25,35.27c0.02,0.35,0.05,0.9-0.04,1.39c-0.73,3.68-3.8,8.87-7.73,13.34"/><path d="M88.54,24.14c0.02,0.18,0.05,0.47-0.04,0.72c-0.55,1.52-4.22,5.26-8.56,7.31"/><path d="M75.92,32.42c0.31,0.46,1.62,0.85,1.62,1.54c0,0.69-0.08,10.42-0.08,11.5s0.08,1.38,1.08,0.61c1-0.77,6.26-4.19,6.88-4.65"/><path d="M83.8,31.78c1.91,3.99,5.32,9.7,9.88,13.93c1.1,1.02,2.62,1.69,4.06,2.29"/><path d="M50.83,54.57c0.83,0.56,1.13,1.99,1.13,2.6c0,3.3-0.16,13.9-0.25,15.17c-0.55,7.26-2.66,17.13-10.89,23.29"/><path d="M53.02,61.13c3.52-0.28,29.47-1.49,31.96-1.61"/><path d="M53.46,72.4c3.04-0.08,27.27-1.5,31.33-1.63"/><path d="M83.5,51c1,1,1.92,3,1.92,4.08c0,4.27-0.02,38.91-0.07,41.98"/></svg>