<svg><path d="M20.58,12.75c1.85,0.39,3.55,0.43,5.83,0.33c7.86-0.32,18.19-2.77,21.35-2.89c1.56-0.06,2.25,0.71,2.25,1.56c0,1.44-1.23,4.61-2.43,7.66"/><path d="M23.58,22.25c4.14-0.13,21.51-2.03,25.83-2.17"/><path d="M23.73,13.36c0,2.12-0.61,10.07-0.65,12.06c-0.2,9.56-8.59,23.41-11.58,25.91"/><path d="M25.58,32.11c0.38,0.08,3.12,0.54,3.5,0.5c1.54-0.15,14.6-1.86,18.21-1.86c0.63,0,2.31,0.45,2.63,0.49"/><path d="M29.99,26.02c0.38,0.16,1.38,2.07,1.42,2.4c0.4,2.7,0.15,7.17,0.33,10"/><path d="M40.58,24.92c0.29,0.15,1.51,1.69,1.5,2c-0.15,4.11,0.03,5.68-0.83,11"/><path d="M21.92,40.1c0.59,0.16,2.83,1.15,4.67,1c3.89-0.31,17.2-2.73,22.17-2.88c0.99-0.03,2.67,0.17,3.17,0.25"/><path d="M31.16,44.8c0.03,0.25,0.07,0.63-0.07,0.98c-0.83,2.07-6.26,6.06-12.07,9.38"/><path d="M40.44,42.75c2.65,1.46,6.85,6,7.51,8.28"/><path d="M59.92,12.08c0.83,0.67,1.58,1.26,1.57,1.83c-0.15,5.83-1.68,12.55-6.19,15"/><path d="M61.08,12.92c1.75,0.17,11.66-1.49,12.83-1.83c1.75-0.52,2.52,0.2,2.34,1.34c-0.35,2.24-0.94,5.46-0.94,7.7c0,4.8,3.33,5.13,9.1,5.13c4.96,0,6.83-2.87,6.83-6.33"/><path d="M58.25,32.92c1.5,0.33,2.87,0.84,4.75,0.58c1.87-0.26,13.45-2.74,14.75-2.92c2.5-0.33,3,1.42,2,2.83c-6.28,8.9-13.11,12.93-24.35,17.18"/><path d="M58.9,36.8c3.18,0.36,18.7,10.01,29.77,13.96c1.72,0.62,2.98,1.03,4.58,1.23"/><path d="M36.25,54.92c1.06,0.92,1.15,2.08,1.5,3c0.35,0.92,0.08,38.26-0.07,40.33"/><path d="M37.58,56.75c2.77-0.23,29.83-2.58,31.89-2.84c3.69-0.47,4.7,2.03,4.61,3.51c-0.23,3.97-0.69,14.32-0.69,33.26c0,12.16-4.5,6.01-6.81,3.91"/><path d="M38.58,66.75c9.52-0.89,26.81-1.72,35.17-2.17"/><path d="M38.58,77.75c7.71-0.5,25.25-1.83,34.17-2.17"/></svg>