<svg><path d="M17.25,19.75c1.75,1,1.7,4.26,1.52,3.31c-0.25-1.32,0.31,21.81-0.43,31.89c-0.84,11.41-1.7,24.91-9.59,38.02"/><path d="M18.75,21.42c1.8-0.06,11.46-2.19,12.79-2.32c2.39-0.22,2.99,1.28,2.99,2.61c0,5.95-0.45,44.58-0.45,63.24c0,12.35-4.14,6.12-5.67,4.64"/><path d="M19.82,41.78c3.75-0.18,10.62-1.03,13.92-1.05"/><path d="M18.75,61.58c3.27-0.07,10.07-0.64,14.5-1"/><path d="M63.92,11.92c0.82,0.88,2,1.24,2,4.17c0,5.7,0,6.21,0,11"/><path d="M66.28,19.22c5.11-0.75,11.79-1.05,16.97-1.64c1.71-0.19,3.64-0.02,4.5,0.17"/><path d="M47.08,27.05c0.48,0.59,0.67,3.84,0.53,5.96c-1.47,22.24-2.17,43.75-10.66,61.15"/><path d="M47.75,28.92c0.94,0.14,3.15,0.38,4.67,0.17c10.81-1.49,28.12-2.88,37.37-3c9.75-0.13,2.72,4.11,0.29,5.67"/><path d="M52.58,37.19c1.17,0.31,2.17,1.1,4.22,0.98c7.69-0.42,16.92-2.16,23.94-2.58c1.08-0.06,2.79,0.09,3.33,0.18"/><path d="M65.08,29.92c0.44,0.4,1.18,1.63,1.18,2.19c0,4.44-0.08,5.64-0.08,7.62c0,5.9,2.43,5.45,8.71,5.45c2.34,0,8.14-0.46,10.15-1.25"/><path d="M53.92,51.75c0.25,0.4,1.53,2.68,1.67,3.17c1.09,4.04,1.63,8.62,2.28,16.05"/><path d="M55.25,53.42c9.7-1.14,25.15-2.84,31.14-2.72c1.46,0.03,2.35,1.31,2.35,2.52c0,5.57-1.15,10.37-2.32,15.7"/><path d="M70.58,53.43c0.67,0.82,1.2,2.2,1.2,2.8c-0.02,3.98,0.11,10.43,0.11,11.87"/><path d="M57.58,61.25c2.5-0.17,28.15-2.27,30.22-2.27"/><path d="M58.75,69.08c5.68,0,19.32-1.41,27.17-1.5"/><path d="M52.42,75.25c0.56,0.83,1.75,1.95,1.83,2.67c0.5,4.33,0.46,6.56,1.33,14"/><path d="M54.92,77.42c8.19-0.95,30.19-2.63,33.17-2.5c1.28,0.05,2.49,1.58,2.32,3.38c-0.25,2.66-1.04,8.2-1.99,11.79"/><path d="M65.11,77.43c0.29,0.43,0.72,1.78,0.72,2.33c0,3.86,0.78,8.68,0.78,12.22"/><path d="M76.73,76.84c0.4,0.5,0.75,1.34,0.72,1.99C77.25,83,76.89,87,76.89,90.69"/><path d="M44.42,91.92c1,0.37,3.33,1.33,5.7,1.24c10.4-0.43,23.54-2.32,42.66-2.17C95,91,96.75,91.5,98.58,92.25"/></svg>