<svg><path d="M16.48,20.05c0.8,0.8,0.9,2.2,0.9,3.17c0,33.53,0.25,51.78-6.88,67.38"/><path d="M18.28,21.67c3.34-0.67,11.14-2.44,12.49-2.57c2.41-0.24,3.01,1.36,3.01,2.78c0,3.37,0.05,59.37,0.05,64.91c0,11.71-5.58,3.71-7.12,2.13"/><path d="M18.28,40.62c4.47-0.74,9.97-1.37,14.2-1.89"/><path d="M17.99,58.08c4.64-0.58,10.51-1.33,14.94-1.77"/><path d="M41,25.57c2.25,0.56,4.39,0.35,6.24,0.16c9.47-1.01,24.02-2.73,37.27-3.86c2.34-0.2,4.75,0.01,7.02,0.35"/><path d="M53.49,15.08c0.84,0.84,1.4,1.61,1.51,2.26c1.06,6.02,2.22,11.73,2.52,13.92"/><path d="M75.35,13c0.4,0.88,0.43,1.94,0.22,2.77c-1.22,4.91-1.78,6.62-3.11,11.24"/><path d="M45.03,38.72c0.88,0.88,1.37,1.87,1.33,3.88C46,60.62,45.62,75.5,38.94,92"/><path d="M46.08,39.77c1.42,0.48,3.92,0.11,5.78-0.14c8.8-1.19,23.77-2.59,32.26-3.27c1.88-0.15,3.88-0.23,5.7,0.01"/><path d="M52.39,48.91c0.87,0.87,1.18,1.96,1.18,2.85c0,0.41,0.02,23.14-0.04,33.24c-0.01,2.23-0.04,3-0.04,4.38"/><path d="M54.16,49.89c2.5-0.37,9.84-1.64,15.24-2.33c0.88-0.11,1.41-0.12,1.85,0.01"/><path d="M63.54,50.09c0.5,0.5,0.78,1.25,0.79,2.15c0.02,2.53-0.07,4.5-0.07,7.78"/><path d="M54.81,62.71C60.2,61.9,65.7,60.69,69.78,60c2.54-0.42,3.59,0.07,3.09,2.75c-0.41,2.24-0.94,4.87-1.33,7.42"/><path d="M54.58,73.04c2.2-0.32,8.04-0.92,14.42-2c1.5-0.25,2.83-0.14,3.8-0.23"/><path d="M64.05,73.71c0.5,0.5,0.78,1.35,0.79,2.04c0.02,2.07-0.07,5.5-0.07,9.37"/><path d="M54.66,87.88c2.3-0.34,10.04-1.61,15.97-2.13c0.95-0.08,2.4-0.39,3.36-0.1"/><path d="M74.82,31.17c0.82,0.82,1.51,2.45,1.64,4.59c1.3,22.75,8.3,45.62,19.87,56.97c3.41,3.35,3.92-0.1,2.89-5.06"/><path d="M91.38,48.99c0.24,0.88,0.2,2.51-0.09,3.89c-3.04,14.12-7.54,27-17.68,38.08"/><path d="M89.13,27.21c2.08,1.46,5.4,4.81,6.37,7.32"/></svg>