<svg><path d="M12.63,23.33c0.83,0.84,1.18,1.83,1.18,2.98c0,0.61-0.04,39.05-0.05,59.95c0,2.49,0,4.73,0,6.62"/><path d="M14.67,24.66c6.96-1.28,14.33-2.41,24.21-3.61c0.97-0.12,3.51-0.16,4.54,0.21"/><path d="M28.44,24.59c0.74,0.74,0.93,1.78,0.93,2.73c0,0.85,0.01,9.38,0.01,14.68"/><path d="M15.18,45.49c7.89-1.31,14.93-2.52,22.6-3.79c2.64-0.44,3.84,0.62,3.47,3.38c-0.56,4.15-1.51,8.42-2.69,14.09"/><path d="M15.28,64.04c2.64-0.57,14.43-2.61,21.24-3.69c1.86-0.3,3.11-0.37,3.97-0.37"/><path d="M27.92,63.93c0.76,0.76,0.93,1.94,0.93,2.98c0,2.34-0.09,12.59-0.09,18.09"/><path d="M15.25,87.88c5.5-0.62,13.34-1.94,21-2.84c1.54-0.18,3.75-0.39,5.47-0.39"/><path d="M59.28,13.14c0.32,1.23,0.25,2.25-0.14,3.4c-2.03,5.9-5.75,13.96-10.58,21.67"/><path d="M57,29.64c2.25,0.11,4.24-0.17,6.13-0.46c6.87-1.05,13.49-3.05,20.01-4.43c1.9-0.4,3.46-0.45,5.36,0.01"/><path d="M52.27,42.5c0.87,0.87,1.41,2.05,1.58,3.26c0.78,5.11,1.06,7.84,1.85,12.96c0.16,1.05,0.33,2.08,0.51,3.06"/><path d="M54.22,43.52c10.6-1.51,21.41-3.2,27.53-3.79c3.02-0.29,4.61,0.85,3.73,4.14c-1.02,3.79-1.67,7.39-3.34,12.63"/><path d="M57.45,59.98c5.98-0.47,14.45-1.74,22.82-2.61c1.21-0.13,2.42-0.24,3.61-0.35"/><path d="M45.75,72.45c0.84,0.83,1.12,1.55,1.29,2.81c0.59,4.51,1.1,10.08,1.61,15.5c0.12,1.26,0.25,2.51,0.4,3.74"/><path d="M48.21,73.82c6.27-0.83,10.94-1.22,14.8-1.57c2.94-0.27,4.13,0.57,3.55,3.64c-0.8,4.17-1.57,9.15-2.77,14.66"/><path d="M49.97,92.64c4.26-0.49,5.74-0.42,12.29-1.01c0.96-0.09,2.01-0.18,3.17-0.29"/><path d="M74.25,69.45c0.84,0.84,1.09,1.68,1.26,2.77c0.86,5.4,1.6,10.32,2.31,17.03c0.14,1.3,0.27,2.56,0.39,3.75"/><path d="M76.43,71.3c6.37-1.22,12.64-1.98,16.73-2.52c3.29-0.43,4.81-0.15,4.13,3.6c-0.82,4.52-2.05,10.1-3.1,15.97"/><path d="M78.94,90.37c1.07-0.09,8.48-0.84,13.81-1.4c0.91-0.1,1.91-0.19,3.01-0.27"/></svg>