<svg><path d="M13.41,21.44c1.14,1.14,1.21,2.56,1.21,4.21c0,0.84,0,61.65-0.11,66.86"/><path d="M14.74,22.26c7.63-1.26,17.63-2.14,26.51-3.23c2.07-0.25,4.5-0.28,6.25-0.02"/><path d="M29.44,21.85c0.86,0.86,0.96,2.02,0.96,2.96c0,3.82-0.04,10.32-0.04,16.19"/><path d="M15.7,43.5c9.05-1.3,17.44-2.51,23.3-3.5c2.58-0.44,4.1,0.37,3.66,3.37c-0.6,4.06-2.03,9.12-2.84,13.28"/><path d="M15.74,61.23c3.65-0.49,15.04-1.97,22.27-2.92c1.72-0.23,3.2-0.42,4.29-0.57"/><path d="M28.31,61.78c0.71,0.71,0.97,1.72,0.97,2.71c0,3.02-0.02,12.77-0.02,18.14"/><path d="M15.74,84.7c5.26-0.33,12.93-1.12,21.02-1.72c1.48-0.16,2.96-0.2,4.45-0.11"/><path d="M64.47,15.75c1.03,1.25,1.21,2.38,1.1,4.97C64.75,39.5,59,75.88,38,93.33"/><path d="M63.5,46.38C68.75,56,78.21,72.61,86.07,82.54c2.78,3.81,6.26,6.79,10.43,8.96"/></svg>