<svg><path d="M26.84,19.01c1.24,0.5,3.5,0.48,4.74,0.46c12.42-0.24,28.9-1.58,45.27-2.91c2.06-0.17,3.29,0.09,4.32,0.32"/><path d="M52.46,9.51c0.62,0.8,1.83,2.13,1.83,2.95c0,5.15-0.19,10.79-0.19,13.94"/><path d="M32.91,27.8c0.95,0.14,2.7,0.12,3.66,0.07C44.75,27.5,60,26,72.92,25.49c1.59-0.06,2.54,0.02,3.34,0.08"/><path d="M33.71,34.89c0.23,0.17,0.46,0.31,0.56,0.52c0.78,1.67,1.72,6.29,2.26,9.3"/><path d="M35.12,35.47c5.54-0.7,34.49-3.12,37.35-3.36c1.05-0.09,1.67,0.87,1.52,1.38c-0.62,2.11-1.33,3.92-2.65,6.96"/><path d="M36.75,43.61c3.36-0.27,32.37-2.62,36.63-2.89"/><path d="M20.66,49.44c-0.16,3.81-4.03,13.79-5.41,16.06"/><path d="M19.97,52.75c3.53,0,48.75-4.75,66.47-4.75c12.06,0,3.81,5.75-0.69,9.5"/><path d="M28.69,59.01c0.86,0.31,2.45,0.34,3.31,0.31c11.25-0.32,28.61-2.39,43.08-2.78c1.44-0.04,2.3,0.15,3.02,0.31"/><path d="M48.87,60.59c0.13,0.45,0.19,1.24-0.2,1.59c-4.45,4.05-9.06,7.67-15.21,11.57c-1.98,1.26-2.05,2.51,1.06,1.73c8.97-2.24,25.81-6.18,37.5-7.61"/><path d="M64.68,61.45c5.24,2.52,13.53,10.36,14.83,14.28"/><path d="M29.16,83.92c0.99,0.26,2.81,0.32,3.79,0.26c10.19-0.64,32.36-2.03,41.63-2.03c1.65,0,2.64,0.12,3.46,0.25"/><path d="M52.64,74.23c0.1,0.2,1.53,1.02,1.5,2.28c-0.17,7.16-0.03,16.69-0.03,18.74"/><path d="M18.72,95.98c1.29,0.37,3.65,0.38,4.94,0.37c11.34-0.09,38.95-2,63.61-2.09c2.15-0.01,3.43,0.17,4.51,0.35"/></svg>