<svg><path d="M41.85,20.42c0.05,0.29-0.28,1.43-0.59,1.74c-4.21,4.15-8.14,7.28-17.75,10.59"/><path d="M22.36,31.98c0.83,0.86,1.17,2.78,1.38,4.54c0.75,6.43,3.13,19.96,3.89,28.65"/><path d="M25.67,44.43c4.11-0.39,15-2.03,15.98-2.03c0.98,0,2.35,0,3.13,0"/><path d="M27.75,62.12c4.11-0.39,14-2.03,14.98-2.03c0.98,0,2.35,0,3.13,0"/><path d="M63.47,25.36c0.98,0.19,1.76,0.59,3.13,0.59c1.37,0,14.88-2.35,16.45-2.54c1.57-0.2,2.86,0.97,2.74,2.15c-1.17,11.34-4.91,36.9-5.1,37.68"/><path d="M61.87,40.55c0.98,0.19,1.76,0.59,3.13,0.59c1.37,0,15.47-0.99,17.04-1.19"/><path d="M61.77,58.44c0.98,0.19,1.76,0.59,3.13,0.59c1.37,0,14.47-0.99,16.04-1.19"/><path d="M53.25,11.25c1.25,2,0.78,2.92,0.78,5.99c0,52.01-3.04,65.51-38.79,83.76"/><path d="M52.75,56.75c5.64,11.3,19.5,31.19,32.86,38.71c2.32,1.31,4.45,2.54,6.39,3.04"/></svg>