<svg><path d="M22.35,20.88c2.28,0.62,4.94,0.57,7.02,0.39c14.38-1.27,32.6-2.94,47.76-3.6c2.44-0.11,4.85-0.29,7.25,0.23"/><path d="M47.89,23.25c0.23,1-0.19,2.39-0.64,3c-5.25,7-9.75,11.25-17,18c-2.34,2.17-1.88,3.88,1.25,3.25c10.24-2.05,28.25-5.38,43.54-8.22"/><path d="M65.62,29.62C71.4,32.69,80.55,42.23,82,47"/><path d="M30.13,67.95c1.92,0.59,4.61,0.5,6.59,0.33c9.87-0.8,27.11-2.63,36.53-2.95c2.13-0.07,4.27-0.15,6.38,0.24"/><path d="M53.17,46.62c0.86,0.86,1.27,2.21,1.27,3.69c0,8.32-0.07,32.95-0.07,37.32"/><path d="M15.88,90.36c2.76,0.78,6.27,0.89,9.12,0.66c19.89-1.62,35.95-3.16,61.51-3.36c2.9-0.02,6.01,0.16,8.88,0.65"/></svg>