<svg><path d="M30.11,20c0.07,0.76-0.26,1.57-0.66,2.17C26.88,26,24.62,28.5,19,32.92"/><path d="M16.62,32.75c1.09,0.5,1.74,2.25,1.96,3.25c0.22,1,3.17,24.38,4.67,33.5"/><path d="M20.75,42.75c3.68-0.77,7.02-1.66,9.47-2.14c1.13-0.22,2.32-0.36,3.03-0.36"/><path d="M22.5,56.5c3.37-0.75,7-2.2,9.64-2.88c0.88-0.23,1.68-0.37,2.36-0.37"/><path d="M39.51,19.09c0.82,0.82,1.13,2.12,1.13,3.56c0,2.48,0.1,40.6,0.1,44.67"/><path d="M41.6,20.23c2.85-0.5,14.34-3.21,19.53-4.36c2.92-0.65,4.65-0.36,4.65,3c0.01,5.96,0.1,42.64,0.1,46.08"/><path d="M45.33,31.08c0.8,0.17,2.19,0.14,3.05-0.04c2.62-0.54,5.26-1.21,7.22-1.64c1.1-0.24,2.24-0.4,3.35-0.09"/><path d="M45.97,42.05c0.62,0.62,1.16,1.33,1.26,2.18c0.28,2.28,0.69,5.75,1.04,8.92c0.11,0.96,0.21,1.9,0.29,2.76"/><path d="M48.14,43.03c3.29-0.8,6.31-1.68,8.53-2.19c2.58-0.6,3.06,0.08,2.67,2.56c-0.43,2.72-0.92,5.15-1.53,8.84"/><path d="M49.62,54.43c2.53-0.24,4.15-0.59,6.51-0.88c0.67-0.08,1.4-0.16,2.23-0.23"/><path d="M74.6,23.98c1.53,0.27,2.64,0.56,4.23,0.37c3.93-0.48,6.68-0.98,8.59-1.25c2.09-0.29,3.08,0.58,2.6,2.75C88.62,32.12,83.88,57.88,83,64.5"/><path d="M73.5,36.5c1,0.38,2.08,0.6,3.25,0.42c4.38-0.67,8-1.04,10.25-1.42"/><path d="M72.5,49c0.69,0.15,1.45,0.55,2.24,0.46c4.01-0.46,7.39-1.09,9.76-1.21"/><path d="M11.75,70.7c4.5,0.8,8.75,0.3,14.75-0.46c14.84-1.87,39.62-4.37,58.38-4.72c3.89-0.07,8.32,0.2,12.12,1.02"/><path d="M39.24,76.39c0.19,1.33-0.19,2.12-0.97,3.24c-3.02,4.34-10.93,10.27-22.21,16.08"/><path d="M66.27,75.46c8.36,4.17,19.36,13.17,22.29,19.01"/></svg>