<svg><path d="M52.75,9.75c0,1.04,0.11,1.86-0.32,3.11c-2.25,6.47-22.36,30.06-40.68,39.64"/><path d="M52.5,15c9.5,7.5,34.54,28.51,37.73,30.13c3.25,1.66,4.31,1.96,5.77,2.12"/><path d="M35.52,41.85c0.7,0.23,3.5,0.8,4.21,0.73c3.31-0.31,15.08-1.75,28.81-2.57c1.08-0.06,2.07,0.05,2.97,0.24"/><path d="M21.55,58.95c1.2,0.39,5.15,0.6,6.37,0.51c7-0.51,28.01-2.86,50.78-3.75c1.5-0.06,4.78-0.16,7.01,0.18"/><path d="M52.22,43.57c0.89,0.85,0.89,2.76,0.89,3.43c0,4.75,0.44,22.07,0.22,26.82"/><path d="M31.25,74.24c0.5,0.46,1.02,0.83,1.24,1.41c1.75,4.51,3.34,16.46,4.54,24.57"/><path d="M34.39,76.29c13.11-1.04,32.17-3.38,38.55-4.02c2.33-0.23,3.73,2.35,3.4,3.73c-1.38,5.68-1.46,10.58-4.42,18.77"/><path d="M37.54,97.73C45.5,97,62.5,95.75,73.75,95.47"/></svg>