<svg><path d="M45.63,12.21c0.05,0.21-0.75,1.56-1.07,1.78c-4.2,2.92-6.52,5.23-16.67,9.02"/><path d="M26.33,23.16c0.81,0.61,1.14,1.99,1.34,3.24c0.73,4.6,2.54,18.63,3.27,24.84"/><path d="M29.28,34.24c4.3-0.6,14.66-2.99,15.68-2.99c1.02,0,2.46,0,3.27,0"/><path d="M59.08,17.06c0.95,0.14,1.71,0.42,3.04,0.42c1.33,0,15.42-2.68,16.94-2.82c1.52-0.14,3.35,0.91,3.14,2.5c-1.16,8.79-2.66,22.29-3.8,29c-0.16,0.97,0,1.54-0.19,2.1"/><path d="M59,31.06c0.95,0.14,1.71,0.42,3.04,0.42c1.33,0,16.95-1.6,18.47-1.74"/><path d="M31.12,48.87c4.75-0.28,43.48-3.26,46.33-3.4"/><path d="M16.63,67.23c1.52,0.54,4.3,0.63,5.82,0.54C38.25,66.86,68,64,88.06,63.54c2.53-0.06,4.05,0.26,5.31,0.53"/><path d="M41.3,52.75c0.69,1.07,1.39,2.18,1.39,3.74c0,17.18-0.4,33.71-20.44,42.76"/><path d="M65.62,49.5c1.13,1,1.96,2.25,1.96,4.25c0,6.75,0,39.25-0.22,45.5"/></svg>