<svg><path d="M23.42,23.42c1.09,0.37,4.24,0.7,5.33,0.67c14.42-0.44,33.56-2.2,47.67-2.67c1.82-0.06,4.17,0.17,6,0.5"/><path d="M26.92,36.25c0.94,0.3,4.38,0.37,5.33,0.33c9.83-0.34,27.17-1.67,42-2.5c1.57-0.09,5.05,0.02,5.83,0.17"/><path d="M14.42,50.25c1.49,0.39,6.02,0.29,7.5,0.17c18.5-1.5,45.57-4.19,64.5-4.17c2.48,0,5.93,0.47,7.17,0.67"/><path d="M50.25,11.75c1,1.67,1.08,2.76,0.67,5c-2.44,13.24-15.23,53.36-38.67,60.92"/><path d="M59.67,35.67c5,6.93,24.09,28.9,29.61,33.97c1.87,1.72,4.27,2.46,6.14,2.95"/><path d="M49.08,59.58c0.04,0.24-0.4,1.4-0.67,1.67c-3.56,3.44-6.96,5.77-15.07,8.51"/><path d="M30.42,69.92c0.75,0.52,1.65,2.26,1.83,3.33c0.68,3.92,2.49,19.03,3.17,24.33"/><path d="M35.29,80.46c3.06-0.33,11.51-1.66,12.24-1.66c0.73,0,2.31,0.44,2.9,0.44"/><path d="M57.92,65.58c0.76,0.13,1.82,0.5,2.89,0.5c1.06,0,11.68-1.26,12.89-1.39c1.21-0.13,2.22,0.64,2.12,1.42c-0.91,7.5-2.12,21.98-3.04,28.18c-0.13,0.9-0.05,1.93-0.2,2.45"/><path d="M57.25,78.42c0.82,0.2,2.02,1,3.17,1s12.89-0.92,14.2-1.12"/><path d="M36.85,95.32c2.05,0,33.51-2.08,35.87-2.24"/></svg>