<svg><path d="M31,15.24c0,0.79,0.06,1.42-0.17,2.37C29.68,22.56,18.7,39.06,9.3,46.38"/><path d="M31.81,20.71C35.02,22.28,43.48,31.24,45,35.08"/><path d="M17.42,43.58c1.33,0.67,3.08,0.67,4.67,0.5c4.74-0.5,9.12-0.54,14.67-1.33c1.75-0.25,2.25-0.25,4-0.17"/><path d="M12.75,59.42c0.64,0.42,3.33,0.55,3.98,0.48c5.88-0.64,17.99-2.76,25.52-2.98c0.8-0.02,2.98,0.13,4.17,0.5"/><path d="M28.37,44.44c1.39,0.81,1.39,2.63,1.39,3.28c0,4.53,0.14,20.48-0.21,25.01"/><path d="M15.42,74.42c0.41,0.37,1.08,1.49,1.25,1.96c1.41,3.7,3.11,12.9,4.08,19.54"/><path d="M17.58,76.08c9.21-1.59,18.39-2.72,22.7-3.18c1.57-0.17,2.43,0.97,2.29,1.97c-0.66,4.88-1.77,9.93-3.16,15.54"/><path d="M20.42,93.75c5.06-0.58,13.72-1.44,20.67-2.33"/><path d="M49.25,30.92C51,31.25,53.5,32,56.5,31.75c8.22-0.69,26.02-2.91,37.25-3.5c1.66-0.09,4.67-0.34,5.5,0"/><path d="M53.75,42.75c0.56,0.74,1.15,1.76,1.33,2.5c0.19,0.74,0.15,44.03,0.17,50.67"/><path d="M54.92,44.42c6.01-0.27,33.84-3.7,35.43-3.88c2.86-0.33,3.92,2.14,3.57,3.13c-0.04,2.22-0.61,27.73-0.61,42.81c0,13.27-5.79,3.75-7.06,3.11"/><path d="M55.42,57.75c7.74-0.64,31.75-2.78,38-3.33"/><path d="M55.58,71.75c5.83-0.55,30.76-2.47,37.5-2.83"/><path d="M70.42,12.75c1.29,0.56,2.33,1.75,2.33,4c0,1.16,0.09,71.44-0.17,78.5"/><path d="M81.83,14.33c3.53,1.68,8.53,6.31,9.42,8.92"/></svg>