<svg><path d="M34.85,16.64c0,1.36-0.09,2.39-0.57,3.75C30.5,31,24.25,44.75,13.08,57.56"/><path d="M34.91,28.11c1.45,0.43,2.89,0.46,4.34,0.1c2.82-0.38,5.86-0.9,9.26-1.8c4.34-1.14,5.7,0.58,4.27,4.66C42.88,59.25,28.38,81,10,91"/><path d="M24.46,48.93c3.63,2.1,9.14,8.39,10.05,11.66"/><path d="M58.25,36.64c2.47,0.54,4.88,0.26,7.39-0.1c6.64-0.96,12.86-1.79,22.74-2.79c2.31-0.23,4.6-0.16,6.88,0.26"/><path d="M59,45c0.62,1.5,0.51,3.31,0,5c-0.64,2.13-1.86,8.14-2.64,10.75c-0.98,3.24-0.69,3.82,2.51,3.24c10.39-1.91,28.87-2.97,33.63-3.2c2.93-0.15,5.85,0.09,8.75,0.71"/><path d="M78.62,12.25c1,1,1.21,2.5,1.21,3.75c0,0.81,0.02,47.89,0.03,70.63c0,6.01,0,10.32,0,11.62"/></svg>