<svg><path d="M32.87,12c0.44,1.22,0.44,2.44,0.01,3.71c-0.58,1.72-2.89,6.32-6.82,12.38"/><path d="M18.52,29.57c0.83,1.28,1.22,3.02,1.29,4.62C21.5,75,17.38,87.38,9.79,95"/><path d="M20.44,31.67c4.36-0.64,15.62-2.88,19.57-3.52c3.95-0.64,3.74,1.28,3.74,3.52c0,2.24-0.17,53.55-0.17,56.75c0,8.83-3.16,3.81-6.44,1.28"/><path d="M28.25,38.38c1.34,1.51,4.68,5.55,5.02,7.32"/><path d="M30.35,56.15c0.81,0.81,1,2.06,1,3.34c0,1.02-0.11,10.79-0.15,16.88c-0.01,1.53-0.02,2.83-0.02,3.7"/><path d="M9.5,59.51c0.88,0.99,2.24,1.22,3.65,0.76C15.5,59.5,39.5,50.75,49,47.96"/><path d="M72.18,13.5c0.97,0.97,1.65,2.38,1.65,3.91c0,4.46,0.13,6.08,0.13,9.65"/><path d="M51.52,30.11c2.24,0.52,4.54,0.41,5.89,0.3c12.62-1.03,19.55-2.41,33.75-3.2c2.28-0.13,3.72,0.05,5.15,0.45"/><path d="M61.71,44.5c0.83,0.83,1.27,2.63,1.31,4.4c0.48,22.23-3.77,39.98-15.52,47.35"/><path d="M63.87,46.75c4.55-1,10.33-1.99,14.88-3.25c3.62-1,5.69,0.89,4.99,4.55c-1.99,10.45-2.71,21.7-2.71,32.45c0,9.75,2.59,11.53,9.54,11.53c7.29,0,8.06-1.53,8.06-8.12"/></svg>