<svg><path d="M27.58,12.42c1.07,1.69,0.22,2.38-0.14,3.73c-0.36,1.35-2.45,4.1-6.28,9.44"/><path d="M16.58,26.25c0.81,1.31,3,2.7,3,4.33c0,1.64,0.09,19.13,0.19,22.08c0.53,16.81-3.52,34.59-10.02,40.59"/><path d="M19.42,28.18c3.66-0.62,13.5-2.41,16.81-3.04c3.31-0.62,3.14,1.24,3.14,3.42c0,2.17-0.35,54.96-0.35,58.06c0,3.11-0.38,4.57-2.44,4.04c-1.57-0.4-3.3-1.46-3.99-2.08"/><path d="M26.36,35.11c1.16,1.91,4.05,6.99,4.34,9.22"/><path d="M27.75,55.58c0.75,1.61,0.73,2.88,0.73,4.17c0,2.2,0.24,17.24,0,19.83"/><path d="M11.42,55.25c1.33,1,2.29,0.83,3.5,0.5C16.13,55.42,44.49,45.33,46,45.33"/><path d="M52.25,43.58c1.67,1.17,1.9,3.47,2,4.5c0.85,8.46,1.83,26.75,2.33,42.33"/><path d="M54.77,45.47c12.5-2.22,26.57-3.02,34.48-3.89c2.91-0.32,5.82,1.45,5.67,3.83c-0.58,8.73-3.17,30.33-5.5,44.17"/><path d="M69.92,14.92c2.08,1.33,2.5,3.57,2.5,5c0.04,14.16,0.33,63.47,0.33,67.17"/><path d="M55.92,65.08c3.35-0.32,32.9-2.83,35.67-2.83"/><path d="M57.08,88.25c6.12-0.4,17.57-1.54,32.17-1.83"/></svg>