<svg><path d="M34.07,13.38c0.17,1.06-0.04,2.17-0.72,3.36c-0.8,1.41-4.39,7.83-8.61,13.39"/><path d="M19.31,31.97c0.92,0.92,1.27,2.66,1.33,4.43c0.87,29.47-0.01,49.72-10.38,59.85"/><path d="M21.75,33.06c3.84-0.58,12.78-2.7,17.23-3.54c4.34-0.83,4.74,0.9,4.71,4.61c-0.05,8.47-0.07,52.69-0.07,55.63c0,9.05-5.47,2.1-6.27,1.47"/><path d="M28.03,38.52c2.47,2.48,4.85,5.98,5.85,8.72"/><path d="M30.3,58.39c1.09,1.09,1.2,1.99,1.2,3.81c0,1.27,0.1,12.3,0.1,18.21"/><path d="M11,60.25c1,1,2.65,1.23,4,0.75c6.38-2.25,30.5-11.75,34.25-13.25"/><path d="M71.61,13.5c1.07,1.07,0.98,2.75,0.98,4.38c0,3.75-0.09,7.87-0.09,10.25"/><path d="M53,30.73c2.77,0.57,5.48,0.24,8.28-0.16c7.47-1.06,18.47-2.31,27.08-2.94c2.96-0.22,5.78-0.59,8.63,0.09"/><path d="M71.59,32.78c0.28,1.47-0.1,2.66-0.93,4.14c-3.79,6.77-6.67,11.04-12.49,17.99c-1.35,1.61-1.82,3.13,0.53,3.96c4.69,1.64,8.3,3.13,12.8,5.44"/><path d="M85.96,42.84c0,1.66-0.38,3-1.25,4.31C75.12,61.52,70.72,68.65,57,85.73c-2.41,3.01-2.24,4.47,1.89,3.59C69.88,87,70.12,87,86.88,83"/><path d="M81.71,71.1c4.32,4.02,11.17,16.51,12.25,22.76"/></svg>