<svg><path d="M29.58,12.08c1.2,1.99,0.2,3.01-0.48,4.5C28,19,26.25,21.5,22.5,26.75"/><path d="M18.58,28.58c0.9,1.33,1.5,3.17,1.5,4.83s-0.25,23.56-0.15,26.55c0.59,17.42-7.22,30.47-11.02,36.11"/><path d="M19.92,30.25c3.48-0.62,13.33-2.66,16.47-3.28c3.14-0.62,2.98,1.23,2.98,3.38c0,2.15-0.33,51.91-0.33,54.99c0,14.65-5.04,5.9-6.45,4.07"/><path d="M25.36,36.02c1.69,2.03,5.92,7.44,6.34,9.8"/><path d="M27.86,57.14c1.18,1.62,1.42,2.6,1.42,3.89c0,1.3,0,17.4-0.47,20.63"/><path d="M8.42,58.08c1.33,1.42,3.51,0.87,4.83,0.5c1.32-0.37,31.26-10.75,32.92-10.75"/><path d="M46.58,24.08c1.06,0.49,4.17,0.92,6.67,0.5c6.25-1.04,29.58-3.62,38.33-4.17c2.67-0.17,5.62,0.75,6.5,1"/><path d="M50.75,40.58c0.35,0.46,1.35,1.92,1.5,2.5c1.2,4.56,2.01,18.15,2.83,26.33"/><path d="M53.42,42.75c5.67-1,13.52-2.16,17.01-2.78c1.27-0.23,1.96,1.33,1.86,2.69c-0.48,5.98-1.2,11.56-1.7,20.59"/><path d="M55.25,65.92c4.27-0.42,10.97-1.03,16.83-1.67"/><path d="M85.92,23.58c0.07,0.44,2.32,2.72,2.39,5.52c0.32,13.44-0.2,55.14-0.2,59.71c0,11.93-5,3.26-6.18,2.1"/></svg>