<svg><path d="M33.2,13.5c0.42,1.12,0.44,2.21,0,3.72c-0.96,3.28-2.46,6.16-4.46,9.78"/><path d="M19.4,29.72c1.19,1.19,1.69,3,1.75,4.59C22.5,71.5,17.5,87.75,11.5,95"/><path d="M22.02,31.15c4.96-0.93,14.89-2.67,17.83-3.09c3.02-0.44,4.1,1.19,4.1,4c0,2.22-0.4,55.71-0.4,58.89c0,7.8-4.05,3.3-6.7,1.02"/><path d="M30.28,39.52C32.25,42,33,44.5,33.62,46.49"/><path d="M30.55,56.64c1.09,1.09,1.7,3.04,1.7,4.31c0,4.3-0.17,10.67-0.17,16.55c0,1.75,0.02,3,0.02,4.41"/><path d="M10,56.5c0.88,1.25,2.35,1.31,3.75,1s28.5-7,35.5-8.75"/><path d="M64.75,25c0.62,1.12,0.5,2.62-0.03,4.13c-1.89,5.41-7.1,17.24-10.72,22.49"/><path d="M72.5,19.75c5.37,0.38,12,18.38,19.46,25.45c2.12,2.01,3.66,2.93,5.41,3.8"/><path d="M57.1,63.97c1.09,1.09,1.66,2.35,1.86,3.72c0.91,6.06,1.91,11.61,2.8,18.73c0.17,1.39,0.34,2.76,0.49,4.07"/><path d="M59.25,64.99c9.25-1.24,22.91-2.59,28.18-2.76c2.15-0.07,3.45,1.4,3.07,3.22c-0.96,4.71-3.25,12.3-4.87,19.58"/><path d="M63.33,87.53c7.3-0.53,13.64-0.86,21.43-1.2c1.09-0.05,2.19-0.09,3.3-0.14"/></svg>