<svg><path d="M29.59,10.58c0.41,0.92,0.52,2.4-0.11,3.6C28,17,27.33,18.71,23.42,24.33"/><path d="M18.25,24.92c0.78,1.31,1.67,3.03,1.67,4.67c0,1.64-0.23,20.63-0.15,23.58c0.67,22.51-4.52,34.59-10.19,41.25"/><path d="M19.92,27.26c3.3-0.64,10.35-1.87,13.33-2.51s4.67,1.44,4.67,3.67c0,2.23-0.36,55.58-0.36,58.77c0,3.18-0.34,4.68-2.19,4.14c-1.41-0.41-3.98-1.94-4.61-2.58"/><path d="M25.78,32.94c1.18,2.04,4.13,7.5,4.43,9.88"/><path d="M27.08,55.92c1.17,1.17,1.44,2.14,1.44,3.47c0,2.28,0.2,17.35,0,20.03"/><path d="M9.92,55.58c1.08,1.17,2.96,1.17,4.17,0.83c1.21-0.33,28.49-9.83,30-9.83"/><path d="M83.01,11.29c-0.01,0.96-0.61,1.46-0.93,1.8c-1.87,2-11.39,6.95-25.55,8.73"/><path d="M53.75,25.25c0.03,0.37,0.11,2.13,0,2.67c-0.62,3.16-3.6,9.43-8.52,13.67"/><path d="M65.02,24.74c2.68,1.88,6.91,7.74,7.58,10.67"/><path d="M80.03,21.84c5.24,2.65,13.54,10.89,14.85,15.01"/><path d="M52.08,45.08c0.78,0.23,3.31,1.14,4.5,1c4.92-0.58,25.47-3.67,26.83-3.67c1.37,0,2.2,1.15,0.83,2.5c-1.37,1.35-12.02,8.22-15.5,10.67"/><path d="M66.92,56.58c14.08,9.47,9.49,49.14-1.67,35.33"/><path d="M46.25,66.42c0.95,0.52,3.5,1.08,6,0.83c7.99-0.8,31.64-3.65,39.33-3.5c1.58,0.03,6.54,0.57,7.33,0.83"/></svg>