<svg><path d="M30.77,13.25c0.23,0.97,0.14,1.55-0.39,2.55c-1.97,3.69-2.83,5.46-5.98,9.73"/><path d="M18.97,27.21c1.04,1.04,1.1,2.66,1.15,4.32C21,60.75,19.75,84.75,11.4,96.47"/><path d="M20.66,28.62c3.37-0.59,11.05-2.24,15.19-3.13c3.47-0.74,4.62-0.15,4.62,3.38c0,2.33,0.04,58.68,0.04,62c0,10.26-6.63,1.74-7.35,1.08"/><path d="M27.24,36.69c1.01,1.56,3.52,5.72,3.77,7.54"/><path d="M28.31,57.89c1.09,1.09,1.08,2.41,1.08,3.74c0,1.02,0.03,7.68-0.01,13.74c-0.01,1.83-0.02,3.56-0.02,5.01"/><path d="M10,61.73c1.25,0.89,2.57,0.5,3.79,0C15.01,61.23,40.62,48.5,44,46.85"/><path d="M88.78,17.14c0.08,0.62-0.39,1.37-0.91,1.73c-1.96,1.99-7.56,5.59-15.7,7.65"/><path d="M68.06,45.9c1.81,0.56,3.95,0.47,5.82,0.21c7.12-0.99,14.42-2.23,20.49-2.71c1.98-0.16,3.71-0.14,5.63,0.22"/><path d="M82.57,25.59c0.98,0.98,1.15,2.03,1.15,3.71c0,4.2-0.07,32.2-0.07,40.03"/><path d="M70.83,71.05c1.51,0.62,3.39,0.39,4.95,0.24c4.88-0.46,10.6-1.04,17.73-1.87c1.52-0.18,3-0.07,4.5,0.3"/><path d="M47.92,26.35c1.7,0.4,2.83,0.52,4.66,0.18c3.69-0.69,5.82-1.03,8.38-1.94s3.54-0.23,2.08,3.05c-1.34,3.01-9.66,21.09-12.22,26.53"/><path d="M51.35,54.2C55,53,57,52.38,60.28,51.29c2.21-0.73,3.5,0.69,3.08,3.52C61.5,67.5,57.25,84.38,46.62,93.6"/><path d="M45.6,65.66c3.68-0.17,23.25,17.32,36.58,25.24c3.77,2.24,8.14,4.46,12.47,5.35"/></svg>