<svg><path d="M29.75,11.08c1.12,1.86,0.87,2.51,0.5,4c-0.37,1.49-1.85,3.68-7.08,10"/><path d="M19.58,27.08c1.04,1.36,1.33,2.47,1.33,4.17c0,1.69,0.06,24.13,0.18,27.18c0.82,21.08-10.06,33.2-12.85,36.82"/><path d="M20.92,28.57c3.25-0.62,12.02-2.17,15-2.6c1.59-0.22,2.79,1.23,2.79,3.39c0,2.16-0.31,54.55-0.31,57.63c0,10.75-5.19,3.2-5.81,2.58"/><path d="M27.4,36.36c1.14,1.68,3.98,6.17,4.26,8.13"/><path d="M28.08,54.92c0.57,1.67,1.67,3.17,1.67,4.5c0,1.33-0.27,18.19-0.5,21.5"/><path d="M11.08,55.08c1.17,0.67,2.17,1.17,4.51,0.49c1.24-0.36,28.68-10.24,30.24-10.24"/><path d="M46.58,24.42c0.83,0.4,2.68,1.06,5.53,0.81C63.5,24.25,80,22.75,88.75,22.08c1.39-0.11,4.25-0.33,6.33-0.33"/><path d="M48.42,33.58c0.24,0.61,1.43,2.69,1.5,3.5c0.22,2.68,2.63,22.1,2.71,22.92"/><path d="M50.25,35.58c2.88-0.37,37.12-3.29,39.67-3.17c1.34,0.07,3.09,1.68,3,3.67c-0.23,5.04-2.73,20.53-3.33,21.67"/><path d="M60.58,14.08c0.63,0.38,2.09,1.17,2.09,3.27c0,17.02,0.91,31.57,1.08,39.07"/><path d="M76.75,12.75c0.59,0.38,1.75,1.5,1.67,3.5c-0.94,22.76-1.43,22.79-2.25,38.59"/><path d="M52.34,46.29c5.03-0.46,36.61-2.48,39.31-2.48"/><path d="M52.75,57.92c4.87-0.38,29.43-1.84,35.5-2.17"/><path d="M52.75,67.25c0.73,0.7,2,2.08,2,3c0,0.92,2.83,26.04,2.83,26.5"/><path d="M54.92,68.25c2.42-0.08,26.96-2.27,29.17-2.37c1.84-0.09,3.91,1.12,3.83,3.04c-0.06,1.4-3.83,25.31-3.83,26"/><path d="M56.75,80.08c2.97,0.05,25.47-1.89,28.83-1.83"/><path d="M57.92,93.25c6.06-0.42,17.62-1.18,25.17-1.5"/></svg>