<svg><path d="M29.42,9.75c0.33,1.25,0.53,2.1-0.3,3.5c-2.36,4-3.36,6.5-6.28,10.16"/><path d="M18.42,25.08c0.79,1.36,1,2.46,1,4.17s-0.07,22.44,0.02,25.5c0.54,18.58-2.44,31-9.69,39.5"/><path d="M19.25,26.08c3.32-0.65,12.21-2.21,15.27-2.44c1.98-0.15,3.34,0.8,3.34,3.08c0,2.28-0.32,57.09-0.32,60.35c0,10.92-6,3.65-6.63,3"/><path d="M24.36,31.69c1.38,2.2,4.83,8.07,5.17,10.63"/><path d="M26.16,55.3c1.37,1.51,1.64,2.42,1.64,3.63c0,1.21-0.22,15.98-0.22,19.48"/><path d="M9.42,55.42c0.38,1.34,2.86,2.18,4.07,1.82c1.2-0.36,28.68-11.07,30.18-11.07"/><path d="M65.69,10.75c0.87,0.47,1.39,2.11,1.56,3.05s0,39.18-0.17,45.04"/><path d="M58.77,18.87c0.03,0.16-0.66,1.3-0.85,1.48c-2.48,2.33-4.29,3.59-9.93,5.45"/><path d="M45.42,25.08c1.58,0.92,2.35,2.39,2.5,3.83c0.53,5.26,1.97,14.21,2.5,21.33"/><path d="M49.42,36.08c2.9-0.32,7.14-1.33,7.83-1.33c0.69,0,3.28,0.17,3.83,0.17"/><path d="M 50.92,47.75 c 3.46,-0.56 7.353309,-0.632083 10.379018,-0.672083"/><path d="M74.76,20.27c0.62,0.15,2.79,0.65,3.66,0.65c0.86,0,7.71-2.01,8.7-2.16c0.99-0.15,1.81,0.75,1.73,1.66c-0.74,8.77-3.64,26.23-3.76,26.83"/><path d="M73.58,32.75c0.69,0.16,2.2,0.83,3.17,0.83s8.23-1.01,9.33-1.17"/><path d="M 73.008675,46.920028 c 0.516596,0.102843 1.031831,0.242231 1.466875,0.248099 0.969911,0.01308 8.00417,-0.485705 9.10417,-0.645705"/><path d="M49.25,60.58c1.43,0.28,2.62,1.17,5.5,0.83c5.75-0.67,22.54-4.08,24.5-4.5c1.96-0.42,3.79,2.67,2.95,4.08C72.03,77.97,57.95,89.63,41.91,96.5"/><path d="M50.75,66.58c3.92,0.11,28.9,22.22,39.38,27.85c2.24,1.21,3.88,2.01,5.97,2.41"/></svg>