<svg><path d="M27.68,10.75c1.17,1.86,0.68,2.79-0.1,4.11C26,17.5,23.5,21.5,20.17,25.25"/><path d="M17.42,27.08c0.91,1.27,1.17,2.41,1.17,4c0,1.59,0.58,22.79,0.68,25.65C19.72,69.25,15.5,86,8.08,91.25"/><path d="M18.5,28.64c3.6-0.64,12.69-2.86,15.95-3.5c3.26-0.64,3.09,1.27,3.09,3.5c0,2.22-0.34,56.21-0.34,59.39c0,9.97-6.25,2.36-6.94,1.72"/><path d="M24.7,34.19c1.43,2.03,4.99,7.44,5.34,9.8"/><path d="M26.25,54.92c1,1.61,1.33,2.55,1.33,3.83c0,2.2,0.32,18.24,0,20.83"/><path d="M10.58,54.58c0.38,1.24,2.88,0.83,4.08,0.49c1.21-0.33,28.32-9.74,29.83-9.74"/><path d="M66.08,11.42c0.79,0.72,1.67,1.82,1.67,3.5c0,1.67,0,2.45,0,7"/><path d="M48.25,23.19c0.89,0.22,3.51,0.88,6.5,0.69c8-0.52,23-2.05,30.5-2.68c2.49-0.21,4.59,0.46,5.33,0.57"/><path d="M55.85,26.37c3.12,3.63,4.54,6.83,4.83,9.23"/><path d="M80.58,23.25c0.35,0.32,0.77,1.57,0.73,1.83c-0.28,1.81-2.88,7.56-3.58,8.95"/><path d="M44.75,39.08c1.11,0.31,3.25,0.67,6.17,0.33C63.33,38,76.8,36.47,90.75,36.08c3-0.08,5.25,0.18,6.17,0.33"/><path d="M51.08,47.58c0.26,0.33,1.02,1.91,1.17,2.33c1.19,3.47,2.26,15.53,3,22"/><path d="M53.43,49.16c9.2-0.92,25.48-2.45,32.35-3.22c2.52-0.28,4.22,2.16,4.09,3.16c-0.47,3.67-1.68,13.36-3.45,21.15"/><path d="M54.58,59.25c3-0.34,30.02-2.36,32.5-2.5"/><path d="M55.75,70.42c6.63-0.37,20.85-1.73,30-2.33"/><path d="M69.13,50.04c0.46,0.53,0.78,1.52,0.8,2.82c0.16,9.48,0.05,36.22,0.05,38.86"/><path d="M51.58,79.78c0.65,0.25,4.34,0.84,5,0.81c6.8-0.28,19.42-1.71,27.83-1.76c0.35,0,3.43,0.05,5,0.41"/><path d="M46.25,92.97c0.86,0.29,4.76,0.86,5.62,0.81c5.32-0.29,22.05-2,37.88-2c1.43,0,5.62,0.3,6.33,0.45"/></svg>