<svg><path d="M30.25,12.75c0.75,1.25,0.56,2.29-0.33,3.67c-1.67,2.58-2.42,4.33-7.08,10.5"/><path d="M18.58,27.58c0.81,1.27,1.33,2.74,1.33,4.33c0,1.59-0.08,20.95,0.02,23.81c0.41,12.52-3.68,32.02-10.02,38.02"/><path d="M20.17,29.69c3.35-0.62,11.55-2.49,14.58-3.11c3.03-0.61,3,2.18,3,4.33c0,2.15-0.2,53.19-0.2,56.26c0,12.07-5.83,2.85-6.46,2.24"/><path d="M23.7,35.19c1.52,1.79,5.3,6.55,5.68,8.63"/><path d="M27.25,54.97c0.94,1.58,1.12,2.53,1.12,3.79c0,1.26,0,16.93-0.38,20.07"/><path d="M11.58,54.86c0.34,0.91,1.86,0.98,2.96,0.74c1.1-0.25,26.25-7.52,27.62-7.52"/><path d="M63.01,11.58c0.05,0.46,0.11,1.19-0.1,1.85c-1.21,3.89-7.16,11.93-16.67,17.16"/><path d="M61.42,18.42c1.92,0,13.83-1.77,15.84-1.96c1.73-0.16,1.57,2.01,0.82,2.79c-3.17,3.33-4.29,5.6-7.5,10.17"/><path d="M50.25,31.07c0.4,0.36,1.11,1.06,1.33,1.52c1.82,3.75,3.04,11.86,4.33,19.82"/><path d="M52.75,32.58c9.94-0.92,27.08-2.73,34.5-3.5c2.72-0.28,3.18,0.81,3,3.33c-0.36,5.12-3.36,14.03-4.33,18.83"/><path d="M69.64,31.2c0.37,4.96,0.19,15.81,0.19,19.11"/><path d="M54.58,41.75c3.39-0.37,30.2-2.85,33-3"/><path d="M55.95,50.87c7.49-0.41,20.13-1.45,30.47-2.12"/><path d="M50.62,56.35c0,3.89-4.57,9.62-5.76,10.74"/><path d="M59.64,55.81c2.18,1.84,4.25,6.89,4.8,9.75"/><path d="M72.71,55.28c2.1,1.52,5.41,6.24,5.94,8.59"/><path d="M87.03,55.28c2.84,1.74,7.34,7.15,8.05,9.86"/><path d="M54.75,69.92c0.45,0.69,1.34,1.63,1.5,2.5c0.67,3.67,3.56,22.88,3.71,23.78"/><path d="M56.75,71.92c3.72-0.63,25.4-3.48,27.23-3.49c1.52-0.01,2.13,1.44,2.11,3.49c-0.01,1.41-2.87,22.54-2.87,23.23"/><path d="M58.4,82.68c5.42-0.18,20.42-2.4,25.85-2.43"/><path d="M61.08,93.75c6.5-0.33,14-1.17,21.33-1.17"/></svg>