<svg><path d="M31.01,16.87c1.49,1.01,3.85,0.87,6.74,0.46c8.19-1.17,21.42-3.12,27.25-3.7c3.15-0.31,6.03,1.05,5.81,4.25C70.28,25.27,68.5,40.25,67.25,47"/><path d="M34.25,32.5c9.5-1.38,27.81-3.48,34.75-4"/><path d="M34.36,47.79C44.25,46.75,56,45.5,66.75,44.5"/><path d="M32.26,17.87c0.81,0.81,0.94,2.01,0.94,3c0,3.26-0.08,66.92-0.08,71.51c0,4.11,1.22,5.28,4.75,2.25c5.54-4.75,10.88-9,15.32-12.71"/><path d="M75.26,50.92c-0.01,1.08-0.41,2.18-1.1,2.84c-4.79,4.61-7.04,7.11-10.67,10.11"/><path d="M42.35,53.57c4.62,0,23.79,18.52,34.32,27.52c3.64,3.12,8.83,6.91,13.89,8.46"/></svg>