<svg><path d="M45.25,13.25c0.17,1.43-0.1,2.57-0.83,3.84c-3.13,5.47-13.88,15.19-21.17,20.16"/><path d="M45,18.63c1,0.37,2.33,0.44,4.03,0.25c5.6-0.63,11.85-1.63,15.41-1.89c2.57-0.19,3.31,1.14,1.81,2.76C61.69,24.69,55.75,32.25,51,39"/><path d="M26.86,42.28c1.64,1.35,5.23,0.67,6.68,0.46c14.93-2.18,31.33-4.39,39.68-5.21c2.79-0.27,3.92,1.73,3.69,3.81c-0.4,3.68-1.02,8.04-1.65,13.54c-0.12,1.09-0.38,2.12-0.38,3.5"/><path d="M50.66,42.39c0.91,0.91,1.62,2.37,1.45,3.91c-0.6,5.45-0.85,7.45-1.1,11.7"/><path d="M30.1,61.37c4.1-0.3,32.05-3.82,43.4-5.11"/><path d="M28.11,43.28c0.64,0.72,0.97,1.42,0.97,2.95c0,9.03-0.08,27.91-0.08,33.28c0,14.5,3.25,15.87,29.84,15.87c29.16,0,30.18-2.62,30.18-13.12"/></svg>