<svg><path d="M16.85,35.91c0.9,0.46,2.3,1.71,2.3,4.41c0,3.13-0.15,17.8-0.65,23.3c-0.26,2.84-0.98,4.69,3.31,4.16c8.44-1.03,14.44-2.16,25.7-3.42"/><path d="M46.73,34.5c0.77,0.62,1.8,2.25,1.8,3.91c0,5.98-0.29,18.71-1.23,29.08"/><path d="M33.22,14.87c0.71,0.87,1.36,2.61,1.36,4.02c0,12.12,0.03,16.43-0.11,27.74C34.23,66.82,30,85.24,17.81,94.34"/><path d="M58.35,34.16c0.9,0.46,2.3,1.71,2.3,4.41c0,3.13-0.15,17.8-0.65,23.3c-0.26,2.84-0.98,4.69,3.31,4.16c8.44-1.03,17.94-2.16,29.2-3.42"/><path d="M91.23,31.75c0.77,0.62,1.8,2.62,1.8,3.91c0,6.59,0.21,20.21-0.73,30.58"/><path d="M73.54,13.62c0.89,0.87,1.7,2.61,1.7,4.02c0,12.12,0.04,68.44-0.13,79.74"/></svg>