<svg><path d="M17.75,26.25c1.32,0.64,5.68,0.58,7,0.46c12.1-1.17,47.55-4.2,61.5-4.29c2.19-0.01,6.07,0.51,7.17,0.83"/><path d="M35.58,11.42c1.17,1.08,2.17,2.04,2.3,2.96c1.37,9.62,2.39,16.66,3.04,19.71"/><path d="M67.92,9.42c1.12,1,1.94,2.6,1.58,4.08c-1.25,5.25-1.5,11.25-2.92,18.75"/><path d="M35.58,35.08c0.06,0.72,0.14,2.76-0.33,3.7c-3,5.96-12.11,21.38-20.09,26.96"/><path d="M34.92,46.08c1.24,0.58,5.6,0.7,7.67,0.5c9.69-0.93,34.23-4.49,39.2-4.68s5.98,1.98,5.13,6.02c-1.17,5.58-5.86,40.18-12,45.67c-3.54,3.16-5.92,0.67-8.2-1.22"/><path d="M35.92,60.16c7.01,3.45,17.61,13.69,19.36,19.06"/></svg>