<svg><path d="M22.59,25.34c2.78,0.41,5.58,0.37,8.03,0.14c12.12-1.15,34.64-3.71,47.76-4.31c2.92-0.13,5.91-0.33,8.78,0.37"/><path d="M37.1,12.37c1.19,1.28,1.58,2.42,1.7,3.21c1.19,7.38,1.71,13.98,2.05,16.67"/><path d="M70.07,11.5c0.27,0.96,0.38,2.18,0.07,3.36c-1.78,6.94-2.59,9.42-4.53,15.95"/><path d="M29.51,41.53c2.37,0.47,4.6,0.29,6.74,0.05c7.53-0.83,22.83-2.52,32-3.31c2.47-0.21,5.2-0.3,7.62,0.3"/><path d="M15.75,59.49c2.93,1.13,6.94,0.7,10,0.41c13.31-1.23,41.85-4.12,57.62-4.54c3.13-0.08,6.3-0.21,9.38,0.5"/><path d="M53.58,42.83c1.23,1.23,1.73,3.04,1.73,5.13c0,14.24,0.05,37.76,0.05,42.61c0,10.26-7.23,0.68-8.55-0.73"/></svg>