<svg><path d="M14.5,29.45c2.88,0.68,6.63,0.76,9.52,0.34c15.11-2.17,40.04-4.68,54.86-5.36c3.29-0.15,6.64-0.38,9.88,0.41"/><path d="M31.15,14.25c1.05,1.05,1.57,2.53,1.78,3.49c1.94,8.98,3.86,17.74,4.42,21.01"/><path d="M68.25,11.75c0.42,1.18,0.77,2,0.5,3.5c-1.25,7-3,13.25-5,21.75"/><path d="M49.4,38.25c1.11,1.11,1.42,2.12,1.42,4.27c0,3.9-0.06,7.06-0.06,10.6"/><path d="M23.08,58.5c2.92,0.75,5.83,0.5,8.55-0.12c13-3,27-6,36.2-8.13c6.85-1.59,8.89,1.28,3.25,6c-14.33,12-26.45,18.88-42.83,27.5"/><path d="M13.25,84.25c2.88-0.38,5.21-0.13,7.13,0.06c19.77,2,37.62,6.82,54.95,10.07c6.9,1.3,9.08,1.38,15.92,1.62"/></svg>