<svg><path d="M15.28,26.97c2.11,0.61,4.56,0.73,6.68,0.61c19.38-1.11,41.05-4.65,63.39-4.73c3.51-0.01,5.62,0.29,7.38,0.59"/><path d="M35.69,13.69c1.81,0.81,2.66,2.05,2.77,3.05c1.05,9.52,1.49,15.44,2.05,18.77"/><path d="M68.25,10.75c1.25,1.11,2.07,2.8,1.66,4.43c-1.25,4.98-2.08,13.29-3.88,19.66"/><path d="M51.81,33.86c0.86,0.46,2.18,2.56,2.17,3.48c0,3.39-0.18,8.86-0.02,11.73"/><path d="M 21.72717,51.17 c 1.6,0.11 5.25,0.78 6.81,0.62 12.58,-1.3 40.90283,-3.64 56.87283,-3.97 2.64,-0.06 3.99,0.05 5.95,0.79"/><path d="M 19.54809,50.025164 c 0.96,0.88 1.44,3.4 1.44,4.62 0,10.87 0,25.894836 0,30.004836 0,4.58 0.61,9.69 11.36,10.36 11.65,0.72 41.49191,-0.15 44.13191,-0.24 4.56,-0.16 8.45,-0.64 10.78,-1.2"/></svg>