<svg><path d="M20,26.77c1.29,0.53,2.8,0.63,4.1,0.53C36,26.33,71,23.33,84.72,23.26c2.16-0.01,3.45,0.25,4.53,0.51"/><path d="M37.75,14c1.75,1.43,2.31,1.87,2.5,2.75C42,25,42.5,32,43,35"/><path d="M67.25,12.25c0.42,1.18,0.83,2.02,0.5,3.5c-1,4.5-2,10.5-3.5,16.75"/><path d="M82.25,35.5c0.1,0.17-1.29,0.94-1.74,1.03C66.95,39.12,48.59,41.71,30,43"/><path d="M29.5,40.5c0.25,1,0.52,1.92,0.38,4.03c-1.79,27.51-5.63,41.72-16.38,55.22"/><path d="M29.86,52.52c12.89-1.02,38.3-3.71,46.16-4.27c2.13-0.15,4.27,1.05,3.47,3.36c-1.42,4.09-1.94,7.47-3.81,14.4"/><path d="M26.75,69.75c8.75,0.25,38-2.75,52-3.75"/></svg>