<svg><path d="M21,25.52c3.44,0.74,6.85,0.69,10.38,0.23c15.5-2,32.62-3.13,48.25-4.11c3.39-0.21,6.77,0.11,10.12,0.63"/><path d="M37.75,14.25c1.25,1.25,1.62,2.36,1.75,3.25c1.38,9.25,2,12,2.5,17"/><path d="M67.75,11.25c0.5,1.38,0.52,3,0.25,4.5c-1.25,7-2.12,11.38-3.25,16.75"/><path d="M53.49,31.75c0,1.75-0.61,3.21-1.46,4.64c-4.39,7.88-17.76,22.7-35.28,31.26"/><path d="M54.38,35.88c5.83,5.29,17.99,14.42,27.5,20.5c3.77,2.34,7.57,4.55,11.88,5.63"/><path d="M41.75,58.24c1,1,1.02,2.13,1.02,4.01C42.75,78,39.75,91,29.23,96.47"/><path d="M66.41,54.84c0.94,0.94,1.1,2.04,1.1,3.6c0,4.46,0.02,19.96,0.04,30.81c0,4.19,0.01,7.69,0.01,9.59"/></svg>