<svg><path d="M17.75,25.63c1.36,0.56,2.95,0.67,4.32,0.56c12.55-1.02,49.44-4.75,63.9-4.83c2.28-0.01,3.64,0.27,4.78,0.55"/><path d="M37.75,13c1.5,1.42,1.98,1.85,2.14,2.72c1.5,8.15,1.43,15.07,1.86,18.03"/><path d="M66,10.5c1.12,1,1.87,2.52,1.5,4C66.38,19,65.62,26,64,31.75"/><path d="M27.84,40.75c1.35,0.23,4.32,0.81,5.67,0.73c15.23-0.98,27.16-1.98,42.23-2.6c2.25-0.09,3.6,0.11,4.72,0.22"/><path d="M17.38,57.36c1.76,0.41,4.99,0.48,6.76,0.41c18.34-0.7,39.12-3.52,62.58-4.01c2.94-0.06,4.7,0.2,6.17,0.41"/><path d="M45.29,59.2c-0.05,0.95,0.1,2.41-0.16,3.76C43.2,72.95,36.75,91,17.25,99"/><path d="M61.7,58c0.6,1.66,1.08,3.61,1.12,6.16c0.1,7.16-0.43,8.99-0.43,17.47c0,12.25-0.19,15.62,15.14,15.62c14.23,0,15.62-1.25,15.62-11.19"/></svg>