<svg><path d="M19.75,28.74c3.62,0.73,6.69,0.31,9.75,0.05c13.23-1.13,37.51-3.26,51.75-3.88c3.55-0.16,7.27-0.52,10.75,0.34"/><path d="M39.25,17.97c1,1,1.56,2.12,1.75,3c1.75,8.25,2.75,15.25,3.25,18.25"/><path d="M68.3,15.47c0.56,1.25,0.52,2.26,0.22,3.75c-1.57,8-1.8,9.5-3.15,16.5"/><path d="M73.99,35.97c-0.36,1.38-1.5,2.21-2.55,2.65c-8.57,3.6-20.64,6.95-38.19,10.39"/><path d="M29.68,47.21c0.7,1.01,1.02,2.4,1.02,4.02c0,25.87-4.82,39.62-14.89,48.23"/><path d="M33.5,62.7c2.5,0.39,5.14-0.02,7.75-0.21c11.58-0.85,31.59-2.3,43.12-3.17c2.81-0.21,5.82-0.61,8.62-0.19"/><path d="M63.62,63.64c1.1,1.1,1.07,2.21,1.07,3.66c0,0.84-0.02,17.99-0.03,29.67c0,3.39,0,6.31,0,8.25"/></svg>