<svg><path d="M38.26,8.25c0.06,0.55,0.12,1.42-0.11,2.21c-1.35,4.66-9.07,14.9-19.65,21.17"/><path d="M34.75,19.67c1.18,0.71,2.78,0.65,4.72,0.47c5.19-0.47,36.11-3.98,40.83-4.22s5.44,1.08,4.96,5.32c-0.57,4.97-4.76,18.51-8.55,24.97c-2.58,4.4-4.77,1.77-7.55-1.18"/><path d="M33.99,26.83c0.44,0.22,1.12,0.83,1.12,2.14c0,1.52-1.56,5.15-1.8,7.83c-0.12,1.38-0.38,2.7,1.61,2.02c6.84-2.31,25.54-4.51,31.01-5.12"/><path d="M66.03,22.7c0.37,0.3,1.17,1.27,1.12,1.9c-0.26,2.9-0.87,7.55-1.33,12.59"/><path d="M49.8,22.63c0.57,0.49,1.09,1.46,1.09,2.25c0,6.78,0.61,17.12-8.99,24.2"/><path d="M33.27,47.25c0.05,0.51,0.09,1.32-0.09,2.05c-1.09,4.31-7.35,13.78-15.93,19.58"/><path d="M30.75,58.67c1.18,0.71,2.78,0.65,4.72,0.47c5.19-0.47,38.61-3.99,43.33-4.22s5.45,1.08,4.96,5.32C83,66.75,78,88,70.71,96.71c-3.28,3.92-4.77,1.77-7.55-1.18"/><path d="M28.08,67.76c0.49,0.25,1.25,0.93,1.25,2.39c0,1.7-2.24,7.26-2.51,10.25c-0.14,1.54-0.43,3.01,1.8,2.26C36.26,80.08,54,78,63.78,77.94"/><path d="M64.9,63.15c0.42,0.33,1.31,1.42,1.25,2.12c-0.29,3.24-0.9,8.73-2.48,15.58"/><path d="M47.25,63.07c0.64,0.54,0.8,2.13,0.72,3.02c-0.72,8.41-4.22,24.41-16.55,32.55"/></svg>