<svg><path d="M19.5,27.52c2.4,0.98,5.13,0.44,7.61,0.24c12.74-1.01,38.67-3.21,53.01-3.66c3.04-0.1,6.14-0.31,9.12,0.42"/><path d="M38.25,14.5c1.25,0.75,2.02,1.87,2.25,3.25C42,26.88,42.38,31.25,43,36"/><path d="M70.25,13c0.42,1.18,0.77,2,0.5,3.5c-1.38,7.62-2.12,11.12-3.75,18"/><path d="M31.25,45.2c2.04,0.75,4.68,0.78,6.76,0.64c9.81-0.66,21.41-1.71,31.61-2.37c2.38-0.15,4.78-0.41,7.13,0.11"/><path d="M16.75,61.63c3.34,0.89,6.89,0.51,10.26,0.22c15.33-1.33,42.06-3.21,56.98-3.53c3.25-0.07,6.53-0.18,9.76,0.33"/><path d="M50.74,63.68c0.38,1.32,0,3.46-1.13,4.82C43.62,75.75,38.62,81,30.9,88.73c-3.96,3.96-3.15,5.39,1.93,4.28c15.22-3.33,25.67-5.27,43.92-9.27"/><path d="M68.25,74.5c6.5,4,14.25,13.5,16.31,19.97"/></svg>