<svg><path d="M17,29.77c3,0.73,6.35,0.54,9.37,0.29c16.22-1.35,36.31-4.64,56.76-4.79c2.4-0.02,4.77,0.04,7.12,0.51"/><path d="M32.25,16c1.25,0.5,2.25,1.62,2.5,2.75c1.33,5.97,4.86,19.92,5,20.75"/><path d="M71.25,12.5c0.42,1.18,0.47,3.05,0,4.5c-2.19,6.77-6.14,19.12-6.75,20.75"/><path d="M38.25,48.25c0.25,1.75-0.37,3.31-0.98,4.44C33.25,60,24.8,69.67,19.5,74.5"/><path d="M30.75,65.5c0.75,1,1.12,1.97,1.12,3c0,6.64-0.08,16.47-0.11,24c-0.01,1.96-0.01,3.82-0.01,5.5"/><path d="M84.25,50.25c-0.12,1.62-0.84,2.87-2,3.75c-4.62,3.5-11,6.75-19,9.75"/><path d="M58.25,43.75c1.06,1.06,1.5,2.5,1.5,4.75c0,2.96-0.22,20.59-0.22,31.25C59.53,93,63,94.15,77,94.15c16.25,0,18-2.65,18-11.15"/></svg>