<svg><path d="M18.5,26.27c3.06,0.62,6.14,0.69,9.26,0.33c14.87-1.72,37.73-4.11,52.12-4.85c3.9-0.25,7.77-0.08,11.62,0.53"/><path d="M35.75,14.5c1.06,1.06,1.31,2.12,1.5,3C39,25.75,40,32.25,40.5,35.25"/><path d="M69.5,11c0.38,1.5,0.28,2.25,0,3.75C68.12,22.12,67.38,25.5,66,32"/><path d="M46.31,43.34c0.19,1.66,0.17,3.25-0.74,5.38c-8.82,20.65-16.45,34.03-32.36,45.01"/><path d="M22.48,54.13C34.5,60,45.85,72.17,51.74,81.56"/><path d="M64.21,44c0.79,0.74,1.17,2.63,1.17,4.3c0,8.55,0,17.65,0,24.08c0,3.22,0,5.77,0,7.25"/><path d="M82.16,33.7c0.79,0.74,1.17,2.18,1.17,4.3c0,12.25,0.04,51.5,0.04,55.5c0,10.6-6.31,1.21-7.52,0.2"/></svg>