<svg><path d="M16.5,22.74c1.41,0.56,3.04,0.67,4.45,0.56c12.93-1.01,50.97-4.71,65.87-4.78c2.34-0.01,3.75,0.26,4.92,0.54"/><path d="M36.25,11c1.75,1.43,2.31,1.87,2.5,2.75C40.5,22,40,29,40.5,32"/><path d="M67.25,8.75c1.12,1,1.87,2.52,1.5,4c-1.12,4.5-1.88,11.5-3.5,17.25"/><path d="M52.13,27.5c0.11,0.9,0.49,2.36-0.22,3.62c-4.49,7.93-18.73,24.16-35.41,33.8"/><path d="M52.6,30.57c6.44,4.56,29.9,23.01,35.34,26.8c1.85,1.29,4.22,1.84,6.06,2.2"/><path d="M47.67,48.26c4.42,1.71,11.42,7.02,12.52,9.67"/><path d="M29.15,66.46c1.28,0.73,3.97,1.09,5.43,0.9c2.88-0.37,38.71-4,41.75-4.36c3.04-0.37,3.3,1.36,1.12,3.31c-5.11,4.56-20.98,18.95-22.9,20.41"/><path d="M40.26,77.5c5.69,2.75,20.41,13.31,23.09,20.5"/></svg>