<svg><path d="M20.25,26.02c2.19,0.89,5.19,0.69,7.5,0.51c13.05-1.01,40.02-3.34,54-3.71c2.6-0.07,5.2,0.09,7.75,0.71"/><path d="M38.5,13.75c0.88,0.88,1.41,1.85,1.5,2.75c0.5,5,1.75,11.25,2.25,18.25"/><path d="M67.25,11.5c0.42,1.18,0.5,2,0.25,3.5c-0.5,3-2,11.25-3.5,18.75"/><path d="M34.75,38.39c0.17,0.55,0.14,1.98-0.16,3.05c-2.08,7.31-7.46,19.93-16.24,29.25"/><path d="M35.3,48.01c0.27,0.04,1.4,0,2.16-0.12c2.49-0.39,6.42-1.26,9.69-2.08c2.54-0.64,3.14,0.95,2.51,3.22C46.24,61.45,28.75,92.35,13.5,98.75"/><path d="M26.62,64.5c3.04,1.43,7.86,5.9,8.62,8.12"/><path d="M57.25,45.51c1.77,0.35,3.48,0.35,5.27,0.19c5.31-0.47,13.56-1.89,15.06-2.27c2.51-0.64,4.13,1.13,4.03,3.72C81.44,51.52,78,63,74.71,69.97c-2.4,5.09-5.21,1.4-6,0.12"/><path d="M58.24,46.45c0.84,0.84,0.98,1.92,0.98,3.45c0,14.09-0.05,22.54-0.05,29.71c0,13.74,1.17,14.85,15.82,14.85c16.52,0,16.91-1.21,16.91-11.75"/></svg>