<svg><path d="M16.92,24.92c1.3,0.49,3.84,1.09,7.17,0.83C40,24.5,67.5,23,83.58,22.08c3.68-0.21,6.42,0.17,8.33,0.83"/><path d="M37.25,12.75c1.25,1,1.9,1.93,2,2.83c1,9.17,1.5,14.42,2,18.5"/><path d="M67.92,11.58c0.33,0.92,0.9,3,0.55,4.38c-1.22,4.78-2.47,9.28-4.39,16.12"/><path d="M32.75,39.25c1,1.75,1.17,3.05,1.17,4.83c0,1.78-0.08,52.27-0.08,53.17"/><path d="M34.42,41.25c3.83-0.22,35.34-2.57,38.83-2.83c2.91-0.22,4.54,1.14,4.3,2.78c-0.31,2.1-0.67,47.6-0.67,55.67"/><path d="M34.58,57.08c6.67-0.31,36.24-2.5,41.67-2.5"/><path d="M34.58,74.92c8.97-0.75,32.46-2.33,41.17-2.33"/><path d="M34.75,94.25c7.7-0.39,32.46-1.83,41.17-1.83"/></svg>