<svg><path d="M15.75,22.75c1.29,0.53,5,0.75,8.33,0.5c11.91-0.89,46.67-3.19,60.39-3.24c3.28-0.01,7.54,0.47,8.61,0.74"/><path d="M34.42,11.08c1.58,0.67,3.16,2.82,3.33,3.67c1.64,7.93,1.7,14.95,2.17,17.83"/><path d="M68.75,9.25c1,1,1.74,2.83,1.33,4.33c-1.23,4.57-2.22,12.16-4,18"/><path d="M26.58,39.42c2.17,0.83,3.21,3.08,3.21,5.87c0,1.99,0.16,47.9,0.16,51.21"/><path d="M29.75,42.42c6.71-0.88,44.66-3.37,45.98-3.68c2.82-0.66,4.9,1.61,4.59,2.65c-0.53,1.76-0.56,43.13-0.56,48.2c0,8.16-5.17,2.86-7.5,1.17"/><path d="M51.25,26.75c1.25,0.25,2.69,2.14,2.69,4c0,12-0.19,21.96-0.19,37.83"/><path d="M30.75,56.25c13.11-1.05,33.81-2.5,48-3.33"/><path d="M13.92,71.08c2.58,0.67,6.58,0.67,9.5,0.5c17.99-1.03,50.24-2.74,66.33-3.17c2.42-0.06,5.5,0.08,7.33,1"/></svg>