<svg><path d="M18,24.74c1.93,0.56,4.17,0.67,6.1,0.56c17.71-1.01,40.24-3.71,60.66-3.78c3.21-0.01,5.14,0.26,6.74,0.54"/><path d="M38,11.75c1.75,1.43,2.31,1.87,2.5,2.75c1.75,8.25,1.25,13.75,1.75,18.75"/><path d="M68,11c1.12,1,1.87,2.52,1.5,4c-1.12,4.5-1.38,11-3,16.75"/><path d="M51.51,31.5c0.99,0.87,2.49,2.82,2.49,5.04c0,3.53,0,3.09,0,12.66"/><path d="M23.25,50.66c2.68,0.31,4.75,0.48,6.76,0.34c10.74-0.75,38.81-2.67,50.62-2.91c2.3-0.05,5.47,0.16,6.62,0.33"/><path d="M33.75,57.68c4.92,10.58,8.05,23.33,8.5,30.3"/><path d="M73.75,53.02c0.75,1.08,0.57,2.85,0.25,3.9c-2.5,8.23-8.75,27.9-11.25,33.53"/><path d="M15,93.83c2.5,0.92,4.25,1.14,7.84,0.9c25.41-1.73,39.45-1.76,61.25-2.59c2.88-0.11,6.34,0.55,8.42,1.4"/></svg>