<svg><path d="M19,25.81c1.33,0.54,2.87,0.65,4.2,0.54c12.2-0.99,48.09-4.57,62.15-4.65c2.21-0.01,3.54,0.26,4.65,0.53"/><path d="M37.25,13c1.75,1.43,2.31,1.87,2.5,2.75C41.5,24,42,31,42.5,34"/><path d="M66.75,10.75c1.12,1,1.37,2.52,1,4c-1.12,4.5-1.88,12.5-3.5,18.25"/><path d="M52.18,32.5c0.07,1.5,0.17,3.1-1.17,4.37c-8.62,8.11-12.88,11.89-20.74,19c-3.1,2.8-2.82,3.47,1.35,2.59c8.99-1.9,31.78-4.79,46.6-7.21"/><path d="M68.78,42.12c5.99,3.09,15.48,12.72,16.97,17.53"/><path d="M30.41,68.59c0.59,0.5,1.19,0.91,1.45,1.52c2.05,4.9,4.49,18.41,5.89,27.21"/><path d="M32.18,70.14c16.11-2.26,32.25-3.39,42.12-4.37c3.37-0.33,5.24,2.19,4.92,3.7C77.5,77.5,76.25,84,74.74,90.94"/><path d="M37.84,94.83C43.5,94.25,69,92.5,76.69,91.99"/></svg>