<svg><path d="M15.5,31.68c2.72,0.96,6.3,0.74,9.13,0.41c14.92-1.74,42.04-4.07,57.62-4.63c3.49-0.12,7.05-0.11,10.5,0.62"/><path d="M36.7,15.56c0.8,1.19,1.2,2.17,1.32,3.32c1.1,10.71,2.04,21.21,2.35,25.11"/><path d="M72.68,13c0.26,1.53,0.25,2.69-0.19,4.54c-2.24,9.46-3.74,14.21-6.42,25.05"/><path d="M22.75,54c1,1,1.47,2.1,1.73,4.09c1.14,8.78,2.52,19.9,3.61,31.35c0.22,2.29,0.42,4.52,0.61,6.63"/><path d="M24.93,55.74c18.69-2.49,41.69-4.74,55.03-5.28c4.12-0.17,6.19,1.63,5.7,5.55c-0.83,6.61-2.52,19.36-4.64,30.28c-0.58,2.98-1.17,5.82-1.75,8.37"/><path d="M53.12,55.04c0.98,0.98,1.22,2.09,1.22,3.57c0,9.35-0.04,25.86-0.09,32.51"/><path d="M27.8,73.67c15.2-1.54,40.32-3.79,54.89-4.53"/><path d="M29.48,93.64c12.02-0.89,34.75-2.3,49.49-2.73"/></svg>