<svg><path d="M16.08,24.42c2.32,0.94,5.96,0.75,8.5,0.5c14.67-1.42,46.17-4.33,59.89-4.41c2.55-0.01,5.3,0.58,6.62,0.91"/><path d="M36.08,12.25c1.67,0.75,2.72,2.11,2.83,3c1.08,8.25,1.5,16,2,19"/><path d="M66.25,10.08c1.25,1.42,1.62,2.44,1.25,3.92c-1.12,4.5-2.12,12-3.75,17.75"/><path d="M23.92,39.92C25,41,26.13,42.5,26.13,43.36c0,0.72,0,48.69-0.23,52.94"/><path d="M26.09,41.93c11.28-0.64,36.66-3.18,53.82-4.18c3.94-0.23,5.08-0.25,7.5,0.67"/><path d="M26.42,58.58c25.09-1.34,29.06-2.1,46.45-3.61c2.64-0.23,4.89,0.77,4.72,2.77c-0.34,4.16-1.33,9.33-2.5,14"/><path d="M27.08,75.42c10.14-0.81,42.3-3.33,51.83-3.83"/><path d="M25.92,96.08c11.49-0.6,27.79-2.9,54.5-3.5c4.05-0.09,10.67,0.5,12.83,1.83"/></svg>