<svg><path d="M17.25,23.92c1.29,0.53,6.8,0.73,8.1,0.63c11.9-0.96,45.68-4.06,59.4-4.13c2.16-0.01,6.25,0.9,7.33,1.17"/><path d="M37.75,12.25c1,1,2.57,2.75,2.67,3.67c1.08,10.58,1.62,15.95,2.17,19"/><path d="M66.08,10.25c1.12,1,1.82,2.15,1.67,3.67c-0.5,5-2.38,14.08-4,19.83"/><path d="m21.591369,40.667301c1.09,0.5,2.28,1.72,2.46,3.25,1.67,14.37,3.67,31,4.92,39.75"/><path d="m15.280894,90.593896c2.25,1.32,3.9,0.34,6.32,-1.32,1.61,-1.11,14.59,-10.49,21.43,-15.82"/><path d="m42.400494,42.083327c4.3,4.16,11.11,17.12,12.18,23.59"/><path d="M75.75,39c1.25,1.75,1.9,3.26,1.5,5.25C72.87,66.2,66.5,85.5,48.06,98.32"/><path d="M72.1,72.17C78.44,76.6,88.48,90.4,90.06,97.3"/></svg>