<svg><path d="M18.17,21.79c1.34,0.55,3.59,0.87,6.23,0.71c12.86-0.75,47.2-3.27,61.44-3.34c2.24-0.01,5.17,0.34,6.92,1.06"/><path d="M37.92,10.75c1.58,1,2.81,2.62,3,3.5c1.75,8.25,1.83,13.33,2.33,16.33"/><path d="M67.92,9.42c1.33,1.08,1.21,2.66,1,4.17c-0.92,6.58-2.04,11.35-3.5,16.5"/><path d="M39.86,33.84c0.29,1.67-0.08,3.86-1.03,5.29c-6.07,9.13-14.35,20.63-28.24,31.74"/><path d="M31.19,52.31c0.45,0.85,1.19,2.62,1.22,3.8c0.33,11.14,0.5,37.14,0.33,43.31"/><path d="M38.42,52.58c2.58,0.92,5.95,1.12,7.33,1c10-0.83,28.61-3.01,41.67-3.83c2.28-0.14,5.52,0.66,6.67,1"/><path d="M74.75,34.08C75.5,35,77,35.75,77.08,37.92c0.4,10.42-0.29,50.05-0.3,53.6c-0.03,9.49-4.7,0.83-6.86-0.26"/><path d="M48.17,62.81c4.02,2.63,10.4,10.8,11.41,14.89"/></svg>