<svg><path d="M16.75,24.42c1.6,0.65,3.45,0.78,5.05,0.65c14.66-1.19,47.46-4,64.37-4.09c2.66-0.01,4.25,0.31,5.58,0.63"/><path d="M36.5,12.25c1.75,1.43,2.31,1.87,2.5,2.75c1.75,8.25,1.75,14.75,2.25,17.75"/><path d="M67.5,10c1.12,1,1.87,2.52,1.5,4c-1.12,4.5-1.88,11.5-3.5,17.25"/><path d="M34.14,39.19c0.78,0.91,1.31,1.81,1.57,2.7c0.26,0.89-0.06,49.37-0.15,51.34"/><path d="M37.25,40.63c3.11-0.09,29.49-3.4,31.8-3.55c4.15-0.27,5.21,1.49,5.21,4.4c0,8.18-0.25,31.07-0.39,48.89"/><path d="M36.73,56.72c10.62-0.88,27.74-2.92,37.07-3.19"/><path d="M37.35,74.17c13.23-1.87,23.76-2.64,36.41-3"/><path d="M16.62,93.99c1.7,0.5,4.83,0.58,6.53,0.5c17.72-0.84,33.58-3.22,66.19-3.36c2.84-0.01,4.54,0.24,5.96,0.49"/></svg>