<svg><path d="M18.08,23.75c1.29,0.53,4.47,0.9,5.77,0.8c11.9-0.96,46.68-3.56,60.4-3.63c2.16-0.01,4.76,0.74,5.83,1"/><path d="M35.92,10.75c2.17,0.83,3.01,1.9,3.13,2.79c1.1,8.52,1.23,15.5,1.54,18.54"/><path d="M66.25,9.75c0.75,1,1.64,2.58,1.24,4.13c-1.23,4.74-2.05,11.64-3.83,17.7"/><path d="M48.38,29.42c0.09,0.65,0.19,1.67-0.18,2.6C46,37.5,35.38,50.82,18.1,58.18"/><path d="M46.75,38.6c0.77-0.07,2.36,0.47,3.67,0.34c5.12-0.52,11.24-1.68,15.5-2.69c2.15-0.51,4.28,1.59,3.33,3.5c-4.73,9.57-28.45,32.27-51.67,37.17"/><path d="M41.08,44.25c6.26,4.25,34.59,23.23,43,27.17c3.92,1.83,7.17,2.58,10.5,3"/><path d="M48.97,67.91c5.7,1.93,13.71,7.43,15.14,10.42"/><path d="M43.25,96.25c0.87,0.9,2.4,2.01,5,0.83c7.23-3.28,21.19-9.26,28.42-12.54"/></svg>