<svg><path d="M17.58,22.25c1.34,0.53,5.04,0.44,6.39,0.33c12.33-0.96,43.67-4.09,57.88-4.17c2.24-0.01,5.62,0.4,6.73,0.67"/><path d="M36.25,11.42c1.5,0.83,2.75,2.22,2.88,3.04c1.14,7.61,1.8,15.2,2.12,17.96"/><path d="M66.58,9.75c1.17,1.5,1.24,3.2,0.88,4.61c-1.21,4.72-2.07,10.91-4.38,16.22"/><path d="M47.19,33.25c-0.19,1-0.25,1.4-0.63,1.76c-4.64,4.41-10.99,7.96-23.08,11.52"/><path d="M19.08,45.25c0.88,0.37,1.65,1.97,1.65,2.74c0,5.76,0.37,26.54,0.18,28.39c-0.18,1.67-1.59,4.83,0.53,3.53c2.12-1.3,17.17-8.83,24.48-12.66"/><path d="M45.08,43.92c1.29,0.71,2.17,2.85,2.17,4.67c0,14.18,2.41,37.43-22.78,49.49"/><path d="M59.75,36.92c0.75,0.21,2.9,1.28,4.42,1.17c4.58-0.33,18.23-2.12,20.11-2.33c1.88-0.21,4.7-0.42,4.89,4.02c0.09,2.12-0.8,25.25-2.75,34.97c-2.26,11.25-6.58,3.06-7.14,2.64"/><path d="M63.03,38.61c0.02,0.14,0.53,2.18,0.54,3.89c0.07,11.17-0.06,50.96-0.19,56.58"/></svg>