<svg><path d="M15,22.14c3.1,1.09,6.66,0.94,9.88,0.58c14.33-1.58,39.21-3.71,54.37-4.33c3.86-0.16,7.85,0.01,11.67,0.81"/><path d="M36.69,10.95c0.99,0.99,1.53,2.14,1.61,3.06c0.83,10.49,1.38,14.66,1.61,18.24"/><path d="M67.35,8.92c0.35,1.19,0.4,2.25,0.17,3.77c-0.84,5.37-2.51,13.33-3.73,18.28"/><path d="M18,42.45c3.45,1.23,7.72,0.81,11.26,0.37c12.77-1.58,36.1-3.49,47.74-4.24c3.69-0.24,7.63-0.32,11.26,0.46"/><path d="M26.5,57c2.79,0.93,6.65,0.21,9.52-0.1c10.64-1.16,24.36-2.65,37.74-3.29c3.35-0.16,6.27,0,9.49,0.64"/><path d="M52.75,28.5c1.12,1.12,1.5,2.38,1.5,4c0,0.85,0,38.37,0,57.5c0,4.15,0,7.42,0,9.25"/><path d="M51.5,56.12c0,0.88-0.48,2.04-1.33,3.36C42.8,70.9,30.11,84.24,13.75,91.75"/><path d="M54.75,56.75c6,6.25,16.75,17.12,25.48,25.36c2.64,2.49,5.58,4.51,9.27,6.64"/></svg>