<svg><path d="M21.75,25.27c3.12,0.48,6.44,0.33,9.25,0.09c12.78-1.1,35.97-3.16,49.64-3.71c3.27-0.13,6.65-0.16,9.86,0.63"/><path d="M39.25,12.25c0.81,0.81,1.67,1.87,1.8,2.75c1.26,8.25,1.59,16,1.95,19"/><path d="M68.31,11.5c0.82,1,0.78,2.53,0.52,3.78c-1.5,7.36-2.19,10.04-3.83,16.97"/><path d="M36.77,40.8c2.34,0.37,4.72,0.38,7.08,0.06c4.93-0.68,15.39-2.4,19.65-3.08c3.15-0.5,5.65,1.39,2.96,4.79C56.5,55.12,41.38,66,19.57,72.75"/><path d="M35.8,47.03c4.95,0.1,23.08,11.47,40.27,20.6c3.78,2.01,8.55,3.94,12.76,4.81"/><path d="M32.93,77.88c1.86,0.73,4.65,0.44,6.57,0.24c8.91-0.94,18.29-2.15,27.25-2.59c2.09-0.1,4.2-0.28,6.26,0.2"/><path d="M52.46,64.87c0.84,0.84,1.29,2.26,1.29,3.69c0,5.19-0.06,19.44-0.06,23.89"/><path d="M21.17,95.3c2.65,0.95,6.5,0.67,9.22,0.39C45.38,94.12,61,92.62,77.5,92.01c3.33-0.12,6.83,0.24,10.09,0.94"/></svg>