<svg><path d="M15.58,22.58c2.26,0.92,5.74,1.25,8.83,1c11.9-0.96,47.45-4.76,61.17-4.83c2.16-0.01,6.09,1.24,7.17,1.5"/><path d="M38.42,11.08c2.17,0.83,2.59,3.31,2.63,4.1c0.45,9.07,0.7,11.57,0.87,15.07"/><path d="M66.58,8.58c0.92,1.17,1.36,2.49,1.17,4c-0.67,5.17-1.33,11.83-2.83,17.83"/><path d="M23.52,36.5c4.24,1.32,10.94,5.41,12,7.46"/><path d="M17.8,54.66c3.99,1.34,10.31,5.53,11.3,7.62"/><path d="M18.58,92.92c2.67,0.58,4.35-0.26,5.9-2.83c4.51-7.48,9.02-16.62,13.13-26.15"/><path d="M44.75,42.75c1.75,1,4.51,1.82,6.33,1.67c7.11-0.58,24-3.43,26.2-3.98c3.61-0.9,6.39,1.62,5.81,5.21c-1.04,6.38-2.17,15.23-6.14,25.36c-2.85,7.27-7.53,0.25-8.2-0.09"/><path d="M49.92,44.53c0.95,0.82,0.81,1.96,0.81,3.02c0,12.34,0.27,24.37,0.23,32.92c-0.09,15.09,1.32,16.57,19.62,16.57c17.37,0,18.48-2.61,18.48-10.99"/></svg>