<svg><path d="M18,22.17c1.29,0.53,4.5,1.83,7.6,1.63c11.91-0.78,45.02-4.72,58.73-4.8c2.16-0.01,4.92,0.57,6,0.83"/><path d="M38.33,11.5c2.17,1,2.88,2.57,3,3.33c1.14,7.1,1,13,1.33,15.67"/><path d="M66.68,10.25c1.07,1,1.61,3.12,1.32,4.42c-0.83,3.83-1.72,9.38-3.42,14.33"/><path d="M26.83,39c1.75,0.27,5.42,0.5,8.17,0.33c11.8-0.71,30.79-3.41,37.33-3.67c4.25-0.17,4.67,1.83,4.28,4.21C76.11,42.99,72.8,51.94,67,55.5c-4.21,2.58-5.5,0.67-7.33-1.67"/><path d="M49.04,39.02c0.08,0.47,0.11,1.21-0.17,1.89c-1.75,4.23-12.4,14.04-27.99,19.19"/><path d="M17.33,69.17c0.98,0.34,4.11,0.83,6.17,0.5c7.25-1.17,17.31-2.98,21.17-3.33c2.51-0.23,3.9,0.89,3.76,2.49c-0.37,4.21-3.34,20.68-6.76,25.51c-2.48,3.51-3.63,2.61-5.5,0.33"/><path d="M33.38,68.82c0.06,0.62,0.08,1.6-0.11,2.49C31.77,78.24,21.57,91.83,14,96.63"/><path d="M56.5,66c0.97,0.36,3.75,0.5,6.07,0.23c6.96-0.8,18.75-3.37,22.59-3.73c2.5-0.24,3.07,1.42,2.93,3.08c-0.37,4.37-3.54,22.59-6.95,27.61c-2.47,3.65-4.77,2.01-6.64-0.35"/><path d="M70.82,65.39c0.05,0.69,0.07,1.79-0.11,2.79c-1.5,8.41-9.23,22.03-16.8,27.84"/></svg>