<svg><path d="M18.58,22.92c1.23,0.66,6.43,0.3,7.67,0.17c11.33-1.21,44.78-3.91,57.83-4c2.05-0.01,5.97,0.67,7,1"/><path d="M37.25,11.58c2.33,1,2.22,3.04,2.33,3.83c1.08,7.42,1.36,13.47,1.67,16.17"/><path d="M66.58,10.08c0.92,0.92,1.29,2.94,0.92,4.42c-1.12,4.5-1.38,10.5-3,16.25"/><path d="M48.31,26.83c0.08,0.66,0.3,1.7-0.16,2.66c-3.9,8.25-11.65,19-27.28,25.98"/><path d="M46.08,35.42c0.36,0.03,2.47,1.42,3.5,1.33c3.4-0.28,12.36-1.36,17.21-2.23c3.33-0.6,3.15,1.28,2.29,2.9c-7.84,14.93-28.58,31.86-53.5,38.83"/><path d="M41.62,42.51c6.36,4.78,34.89,23.37,43.46,27.74c2.56,1.3,4.9,1.51,7.39,1.89"/><path d="M36.42,73.25c1.33,0.75,1.72,1.96,1.83,2.5c1.17,5.67,2.17,15.33,3.17,23"/><path d="M39.39,75.54c11.2-1.22,26.03-2.48,30.7-2.95c1.7-0.17,2.9,1.96,2.83,3c-0.33,5-1.5,11.86-3,17.67"/><path d="M41.92,95.58c6.06-0.48,21.17-0.93,29.5-1.67"/></svg>