<svg><path d="M17,23.33c1.29,0.53,5.54,1.1,6.83,1c11.9-0.96,46.78-3.43,60.5-3.5c2.16-0.01,6.09,0.4,7.17,0.67"/><path d="M37,11.33c2.33,0.67,2.8,2.16,3,3c1.83,7.87,1.98,14.47,2.5,17.33"/><path d="M66,10c1.62,0.91,2.24,2.07,2,3.5c-0.83,5-1.83,10.67-3.83,16.33"/><path d="M38.31,33.33c0.18,0.99,0.31,2.22-0.16,3.43C35.17,44.42,25.05,57.62,11.17,68"/><path d="M27.67,55c1.58,0.75,2.33,2.87,2.33,3.83c0,9.91-0.17,32.18-0.17,38.83"/><path d="M37,53c2,0.75,5,1.25,8,1c7.9-0.66,30.99-2.5,40.5-2.5c2.5,0,4.74,0.82,7.17,1.33"/><path d="M61.81,34.33c0.74,0.89,1.4,2.12,1.5,3.89c1.3,23.05-3.56,49.78-25.9,59.03"/><path d="M64.71,57.86c5.27,10.54,15.53,28.38,22.26,35.9c1.77,1.98,2.42,2.23,3.23,2.41"/><path d="M72.25,37c7.21,3.33,9.18,5.88,11.42,9"/></svg>