<svg><path d="M20.33,26.17c1.25,0.53,4.67,0.83,7.83,0.67C39.69,26.23,67,23.5,83,23.17c2.26-0.05,6.12,0.57,7.17,0.83"/><path d="M36,14c2.17,0.5,2.72,1.44,2.82,2.38c0.93,8.87,1.96,15.98,2.51,19.12"/><path d="M71.4,11.75c0.6,0.75,1.37,2.49,0.8,3.94c-1.73,4.43-2.38,11.32-4.87,16.98"/><path d="M20.97,39.5c4.25,1.35,10.97,5.56,12.03,7.67"/><path d="M16.67,56.76c4,1.16,10.33,4.77,11.33,6.58"/><path d="M16.42,90.33c3.33,1.17,4.73-0.69,6.16-3.13c4.16-7.11,4.92-8.7,10.09-17.87"/><path d="M63.71,37.94c0.91,0.42,1.8,1.56,1.8,3.66c0,3.08-0.19,8.05-0.02,10.66"/><path d="M38.83,53.67c1.67,0.33,4.42,0.83,6.83,0.83c7.19,0,32.95-3.08,42-3.33c1.5-0.04,5.08-0.42,7,0"/><path d="M45.5,55.67c0.81,0.78,0.64,4.74,0.64,5.82c0,9.6,0,18.7,0,22.33c0,4.04,0.51,8.56,9.55,9.15c9.8,0.64,26.11-0.13,28.32-0.21c3.84-0.14,6.19-0.95,8.15-1.45"/></svg>