<svg><path d="M16.67,24.33c2.08,0.67,5.08,0.67,8,0.33c11.86-1.35,44.12-3.53,57.83-3.83c3.75-0.08,8.42,0.9,9.5,1.17"/><path d="M35.67,11.17c1.83,0.83,3.55,2.93,3.68,3.77c1.15,7.73,1.82,13.23,1.99,16.4"/><path d="M68,10.33c0.75,1.17,1.25,2.67,1,4.17c-1,6-1.04,9.08-2.67,14.83"/><path d="M39.67,36c0.25,0.26,2.22,2.29,2.33,2.61c0.88,2.56,2.07,8.8,2.67,13.39"/><path d="M41.5,37.5c8.46-0.8,24.14-2.9,28.5-3.17c1.6-0.1,3.23,2.08,3,2.67c-0.95,2.41-2,6-3,9.67"/><path d="M45.13,50.05c4.87-0.57,20.52-1.98,26.7-2.55"/><path d="M28.17,44.17c1.23,0.77,1.48,2.92,1.5,4c0.04,2.28-0.04,6.69-0.17,9.83c-0.03,0.68-0.08,2.82,2.17,2.5c4.95-0.7,36.44-3.63,42-3.83c4.95-0.18,3.56,1.68,3.33,2.83c-0.67,3.33-1,6.33-1.67,10.67"/><path d="M17.5,74.33c2.25,0.42,5.5,0.67,10.83,0.5c17.41-0.54,39.42-2.33,56.5-3.67c4.7-0.37,6.92,0.11,9.33,0.5"/><path d="M52.45,62.08c0.59,0.52,0.89,1.61,0.88,2.73c-0.29,19.32-15.08,30.94-35.66,34.94"/><path d="M55.5,74.67c8.17,8.17,14.5,15.08,28.17,21.67c2.4,1.16,4.08,1.47,5.17,1.58"/></svg>