<svg><path d="M21,23.27c1.29,0.53,2.8,0.63,4.1,0.53c11.9-0.96,46.4-4.46,60.12-4.53c2.16-0.01,3.45,0.25,4.53,0.51"/><path d="M38.25,12c1.75,1.43,2.41,1.85,2.5,2.75C41.5,22.25,42.5,29,43,32"/><path d="M67.25,10.25c1.12,1,1.87,2.52,1.5,4c-1.12,4.5-1.88,10.5-3.5,16.25"/><path d="M28.17,39.63c1.08,0.44,3.07,0.57,4.16,0.44c12.92-1.57,26.76-3.25,48.54-4.56c1.8-0.11,2.89,0.21,3.79,0.43"/><path d="M39,41.11c0.94,0.66,1.45,2.39,1.45,4.17c0,1.78,0.21,31.66,0.21,38.06"/><path d="M40.93,51.58c4.28,0,22.67-2.15,30-2.15"/><path d="M40.99,64.47c5.29,0,22.07-1.93,29.78-1.93"/><path d="M24.59,86.6c1.66,0.9,3.05,1.02,4.59,0.59c6.17-1.74,41.34-12.17,50.82-14.95"/><path d="M69.99,38.09c0.44,0.88,1.1,1.98,1.1,3.09c0,1.1,0.22,48.79,0.22,57.83"/></svg>