<svg><path d="M18,23.67c1.29,0.53,5.5,0.83,8.83,0.5c11.88-1.19,44.97-3.8,58.67-4.5c3.25-0.17,6.25,0.9,7.33,1.17"/><path d="M37.33,11.83c2.33,1,3.44,2.54,3.6,3.35c1.53,7.55,2.46,13.91,2.9,16.65"/><path d="M70,10.67c1.18,0.92,1.5,2.1,1.33,3.5c-0.5,4.17-1.72,10.73-3.42,16"/><path d="M36.94,32.42c0.04,0.54,0.16,1.56-0.08,2.17c-3.05,7.61-7.56,14.6-15.52,20.74"/><path d="M33.83,45.33c0.83,0.33,4.16,0.7,5,0.67c8.65-0.38,27.31-2.91,37.83-4c1.38-0.14,4.31,0.17,5,0.33"/><path d="M15.5,61.5c2.5,0.75,4.5,1.25,9,1c10.27-0.57,40.57-2.9,58.33-4.33C88,57.75,91.25,58.25,93.5,59"/><path d="M52.33,29c1.62,0.42,2.56,2.65,2.56,3.54c0,4.21,0,62.09-0.32,67.29"/><path d="M52.38,62c-9.09,12.55-22.89,24.17-39.52,30.42"/><path d="M56.65,61.65c4.82,5.75,25.17,22.19,32.35,27c1.79,1.2,3.23,1.81,4.97,2.18"/></svg>