<svg><path d="M21.5,21.27c4.38,0.61,9.04,0.46,13,0.03c15.4-1.65,31.63-2.55,47.25-3.4c3.37-0.18,6.69-0.21,10,0.37"/><path d="M39.5,10.5c1.12,1.12,1.63,2.36,1.75,3.25c1.25,9,1.75,13,2.25,16.75"/><path d="M70.75,9.5c0.42,1.18,0.34,2.77,0,4.25c-1.25,5.5-2.12,9.62-3.5,15.75"/><path d="M20.82,40c2.4,0.39,4.79,0.38,7.21,0.11c6.47-0.73,15.65-2.08,21.59-2.53c2.16-0.3,4.31-0.26,6.45,0.12"/><path d="M15.04,60.76c3.06,0.48,6.14,0.44,9.21-0.12c7.48-0.86,19-2.4,26.75-2.91c2.92-0.19,5.74-0.56,8.6-0.09"/><path d="M30.71,42.57c0.89,1.34,1.07,2.68,1.07,4.69c0,28.23-4.16,38.36-16.9,48.45"/><path d="M45.89,40.87c0.98,1.12,1.15,2.37,1.01,3.75c0.04,6.67,0.03,30.14,0,43.12c-0.01,4.93-0.02,8.34-0.03,8.75"/><path d="M69.55,40.49c0.85,0.85,1.05,2.14,1.05,3.84c0,8-0.01,19.6-0.01,27.54c0,3.85,0,6.84,0,8.16"/><path d="M87.7,33.58c1.17,1.17,1.3,2.67,1.3,4.09c0,11.87,0,50.28,0,54.32c0,10.37-6.84,1.35-8.16,0.33"/></svg>