<svg><path d="M22.5,24.22c3,0.78,6.26,0.59,9,0.37c12.92-1.04,36.88-3.11,50.13-3.5c2.8-0.08,5.63-0.24,8.38,0.44"/><path d="M36.36,13.1c0.89,0.89,1.42,2.04,1.57,2.76c1.45,6.79,2.44,13.03,2.86,15.49"/><path d="M72.52,11.39c0.37,0.96,0.36,1.92-0.06,3.1c-2.43,6.92-4.21,11.01-6.44,16.14"/><path d="M32.79,37.92c1.15,1.15,1.49,2.58,1.49,4.65c0,10.38,0.08,30.6,0.08,49.47c0,2.8-0.12,4.22-0.12,6.96"/><path d="M18.05,50.09c3.11,1.61,8.04,6.62,8.82,9.13"/><path d="M14,82.46c1.5,0.79,2.84,0.65,3.94-0.13c2.56-1.83,6.31-4.7,9.97-7.24"/><path d="M44.1,62.28c2.65,0.84,5.56,0.84,7.77,0.62c9.86-1.01,25.15-2.03,35.01-2.65c2.38-0.15,4.67-0.24,7,0.41"/><path d="M65.76,40.83c1.26,1.26,1.76,2.79,1.76,4.89c0,6.53-0.02,25.34-0.02,42.41"/><path d="M48.09,89.93c1.93,0.63,4.32,0.31,6.3,0.18c9.24-0.6,18.36-1.23,27.49-1.87c2.04-0.14,4.13-0.14,6.15,0.25"/></svg>