<svg><path d="M21.5,25.5c2.96,0.41,5.91,0.28,8.89,0.03c13.74-1.16,34.74-2.66,50.36-3.43c3.01-0.15,6.25,0.02,9,0.46"/><path d="M39.25,12.5c0.81,0.81,1.36,2.11,1.5,3c1,6.25,2.25,15,2.75,18"/><path d="M69.5,11.5c0.42,1.18,0.44,2.29,0,3.75c-1.5,5-2,9.25-4,15.75"/><path d="M40.6,39.27c0,0.98-0.31,1.99-1.07,2.63c-5.62,5.84-11.1,9.74-24.78,16.17"/><path d="M21.83,40.27c24.67,20.98,18.08,65.18,4.22,53.3"/><path d="M32.53,60.42c-0.1,1.25-0.52,2.36-1.25,3.34c-3.9,6.33-7.53,9.49-17.28,17.76"/><path d="M49.44,49.9c2.06,3.73,4.56,11.73,4.81,16.01"/><path d="M87.1,48.47c0,0.9-0.49,2.03-1.2,2.95c-0.7,0.92-7.74,7.87-11.25,10.03"/><path d="M66.32,39.5c0.93,1,1.19,2.36,1.19,3.32C67.62,80,55.88,91,41.28,98.25"/><path d="M67.62,67.75C75.5,78.5,81,85.62,87.01,91.74c2.43,2.48,4.86,4.38,7.99,5.81"/></svg>