<svg><path d="M16.67,23c1.29,0.53,4.08,1,7.43,0.8c11.92-0.73,46.9-4.46,60.62-4.53c2.16-0.01,5.7,0.64,6.78,0.91"/><path d="M38.17,11.33c1.08,0.42,2.37,1.87,2.5,2.67c1.19,7.48,1.33,14.11,1.67,16.83"/><path d="M65.67,9.83c1.18,0.86,1.24,2.19,1,3.5C66,17,65,23,63.58,28.5"/><path d="M28.17,36.83c1.62,0.36,3.83,0.42,7.17,0c12.99-1.62,32.42-3.79,38.83-4.17c4.17-0.24,5.23,2.13,5,3.83c-0.61,4.48-5.32,21.68-11,26.83c-4.13,3.74-5.67,0.17-7-1.33"/><path d="M53.22,36.05c0.08,0.72,0.19,1.86-0.16,2.88c-3.49,10.19-10.1,19.48-26.7,29.26"/><path d="M34.28,44.04c9,1.56,23.25,6.43,25.5,8.86"/><path d="M24.07,77.75c0.5,2.47-5.05,13.37-9.09,17.48"/><path d="M35.96,71.97C42.99,86.48,57.05,95.29,76.67,97c8.58,0.75,7.58-3,2.67-8.67"/><path d="M56.22,74.79c1.81,2.72,6.55,8.8,7.68,4.96"/><path d="M78.86,72.94c5.1,1.92,8.93,3.67,13.08,9.61"/></svg>