<svg><path d="M14.67,21.83c2.08,0.42,3.83,0.92,9.17,0.67c11.93-0.56,46.95-3.09,60.67-3.17c2.16-0.01,7.09,0.74,8.17,1"/><path d="M35,11.17c2.5,0.83,3.02,2.47,3.17,3.33c1.39,8.06,1.77,14.24,2.17,17.17"/><path d="M69.81,10.75c1.44,0.89,1.14,2.17,0.92,3.54C70,18.67,68.58,24.74,66.5,29.83"/><path d="M35.84,32.8c0.27,1.83-0.08,4.22-0.94,5.78c-5.53,9.97-12.53,19.33-25.2,31.47"/><path d="M26.87,54.97c0.63,1.03,1.26,2.8,1.31,4.77c0.3,11.65-0.5,29.96-0.07,36.01"/><path d="M58.17,33.17c2,0.5,2.83,2.55,2.83,4c0,1.45,0.21,9.66,0.21,13.6"/><path d="M37.17,51.83c2.58,0.92,4.55,0.85,7.67,0.67c8.67-0.5,30.92-2.75,39.5-3.17c2.42-0.12,5.26,0.7,6,0.83"/><path d="M42.88,57.87c6.73,10.82,9.79,21.88,10.4,29.01"/><path d="M78.33,54.83c1.14,1.13,0.81,3.1,0.5,4C76,67,70.3,82.96,68.02,87.87"/><path d="M34,92.83c2,0.92,3.32,0.95,6.83,0.83C53,93.25,73.3,91.88,86.5,91c3.75-0.25,6.96,0.84,7.83,1"/></svg>