<svg><path d="M16.75,22.28c3.31,0.86,7.16,0.56,10.52,0.25c15.88-1.48,40.98-3.03,56.62-3.74c3.18-0.14,6.49-0.04,9.53,0.78"/><path d="M37.69,11.2c1.05,1.05,1.52,1.97,1.59,2.8C40,22.88,40.25,25.75,40.66,31"/><path d="M68.32,9.42c0.37,1.12,0.69,1.89,0.44,3.32c-0.89,5.07-2.01,11.14-3.48,17.48"/><path d="M48.74,30.79c-0.36,1.59-1,2.25-2.08,2.89c-6.29,3.7-13.04,7.2-25.94,11.32"/><path d="M15.12,55.02c1.74,0.98,4.48,0.84,6.38,0.7c7.02-0.52,20.57-2.07,27.48-2.91c1.51-0.18,3.01-0.31,4.79,0.16"/><path d="M36.61,42.61c0.95,0.95,1.37,2.27,1.37,4.03c0,4.02-0.08,30.37-0.1,44.37c-0.01,3.2-0.01,5.75-0.01,7.25"/><path d="M36.75,55.85c0,0.65-0.66,2.18-1.31,3.43c-4.96,9.64-12.44,20.08-22.17,27.62"/><path d="M41.77,63.88c4.52,2.73,8.34,8.18,10.77,11.69"/><path d="M65.45,41.54c1.01,1.01,1.16,2.21,1.16,4.02c0,3.36-0.01,14.63-0.01,22.19c0,2.97,0,5.38,0,6.5"/><path d="M83.64,31.11c1.12,1.12,1.41,2.39,1.41,4.02c0,11.68,0.04,52.06,0.04,56.03c0,11.83-6.88,0.7-8.08-0.3"/></svg>