<svg><path d="M18,26.33c1.56,0.55,3.37,0.65,4.93,0.55c14.33-1,44.84-4.12,61.36-4.2c2.6-0.01,4.16,0.26,5.46,0.53"/><path d="M36.75,13.5c1.75,1.43,2.35,1.86,2.5,2.75C40,20.75,41.5,30,42,33"/><path d="M66.25,11.75c1.12,1,1.37,2.52,1,4c-1.12,4.5-2.38,10.5-4,16.25"/><path d="M38.24,36.72c0.88,1,1.44,2.71,1.44,3.88c0,11.27-0.03,52.69-0.03,56.52"/><path d="M21.26,39.06c0.86,0.4,1.19,1.37,1.27,2.7c0.11,1.99-0.47,9.89-0.73,11.97c-0.09,0.66,0.17,1.8,1.44,1.55c4.43-0.89,11.52-2.03,16.02-2.02"/><path d="M16.25,70.03c1.46,0.1,1.76,0.4,3.46,0.33c7.28-0.3,14.61-2.41,19.69-2.57"/><path d="M25.72,72.81c0.02,0.51-0.04,1.31-0.04,2.06c0,6.3-1.29,13.3-7.48,19.67"/><path d="M46,57.32c0.93,0.22,2.81,0.43,4.73,0.28c9.49-0.74,27.32-2.44,38.57-2.68c1.45-0.03,2.79,0.13,3.51,0.27"/><path d="M66.22,37.25c0.13,0.32,1.93,1.65,1.93,3.68c0,7.07,0.11,40.57,0.11,46.98"/><path d="M48.67,89.51c0.86,0.21,2.45,0.25,3.32,0.21c10.72-0.58,26.72-1.74,36.31-2.01c1.44-0.04,2.31,0.1,3.03,0.2"/></svg>