<svg><path d="M17.33,23.67c1.29,0.53,3.92,0.58,7.17,0.5c11.94-0.3,44.95-3.76,58.67-3.83c2.16-0.01,6.25,0.9,7.33,1.17"/><path d="M38.67,12.33c1.83,0.67,1.97,2.52,2.08,3.42C41.83,24.33,41.83,31,41.67,34"/><path d="M66.5,11.33c0.75,0.92,1.12,1.94,0.75,3.42c-1.12,4.5-1.79,11.33-3.42,17.08"/><path d="M22,41c1.25,1,1.43,3.09,1.5,3.83c0.07,0.74,0.68,43.3,0.66,44.94"/><path d="M23.58,42.31c1.74-0.07,17.73-2.04,19.02-2.15c2.32-0.21,3.21,2.39,2.92,3.4c-0.28,0.97-0.14,22.63-0.22,36.41"/><path d="M25,55.83c8.24-1.22,12.41-1.31,18.83-2"/><path d="M25.17,69.83c5.29-1.02,12.57-1.65,18.83-2.33"/><path d="M15.17,91.17c1.5,1.69,2.23,1.4,5.5,0.33c2.32-0.76,26.32-9.13,36.06-13.3"/><path d="M54.17,48.67C56.25,49,57.5,49,59.83,48.83c8.23-0.59,22.1-2.88,26-3.5c2.54-0.4,3.96,1.54,3.85,4.37C89.37,57.51,83.75,84,79,92.5c-2.29,4.1-6,0-7.17-1.5"/><path d="M72.33,33.83c0.43,0.49,1.12,1.86,1.17,3.83c0.31,14.16-13.25,48.08-24.18,58.29"/></svg>