<svg><path d="M16.17,22.83c1.29,0.53,3.83,0.67,7.17,0.5c11.43-0.57,43.92-3.08,60.38-3.57c3.04-0.09,6.87,0.14,7.95,0.41"/><path d="M35.17,11.17c2.33,0.67,2.67,1.85,2.84,2.73c1.58,8.19,2.04,14.63,2.49,17.6"/><path d="M69,9.17c1,1.08,1.7,2.78,1.33,4.17c-1.11,4.22-2.56,10.77-4.17,16.17"/><path d="M51.84,26.17c0.11,0.84,0.72,2.31,0,3.43c-5.01,7.76-16.99,21.38-37.68,32.3"/><path d="M52.57,28.36C58.19,33.77,82.4,51.44,88.6,55.4c2.1,1.34,4.8,1.92,6.9,2.3"/><path d="M39,49.67c0.38,0.21,4.46,1.02,4.83,1c3.92-0.24,15.31-2.02,19.17-2c1.06,0.01,4.75,0.31,5.33,0.5"/><path d="M31.67,60c1.38,0.39,5.11,1.1,7.33,0.83c5.79-0.7,21.65-2.1,27.83-3c3.67-0.53,4.67,2.04,2.17,4.5c-4.5,4.42-5.17,6-9,10.17"/><path d="M29.5,75.33c0.4,0.4,2.23,1.81,2.33,2.33c1.42,7.33,3.06,14.87,4,22"/><path d="M32,77.17c11.22-1.73,36.22-3.08,42-3.67c2.12-0.21,3.74,2.43,3.33,3.67c-1.58,4.83-2.5,8.5-5,16.83"/><path d="M36.83,97.5c6.28-0.54,29.7-1.79,37.67-2.33"/></svg>