<svg><path d="M19.5,23.17c1.29,0.53,4.5,0.58,7.17,0.33C38.56,22.39,70.3,20.37,84,19.67c3.25-0.17,5.92,0.4,7,0.67"/><path d="M35.67,11.17c1.83,0.58,3.16,1.7,3.29,2.58C40.15,22,41.83,30,42.17,33"/><path d="M67.17,11.83c1.5,0.83,1.62,2.62,1.33,3.83c-0.86,3.71-1.58,10.1-2.83,14.83"/><path d="M24.67,38.5c1.83,0.15,4.33,0.25,7,0.17c9.98-0.31,31.58-2.67,45.5-3.17c3.33-0.12,5.33,0,7.5,0.33"/><path d="M38.29,43.17c0.29,0.73,0.25,2.06-0.15,2.67c-2.36,3.61-5.18,6.65-9.83,10.49c-0.9,0.74-0.42,0.73,0,0.96c4.81,2.62,8.94,7.97,11.19,12.38"/><path d="M57.83,41.83c0.46,0.66-0.81,3.07-1.17,3.67c-2,3.33-4.19,6.03-8.51,9.43c-0.47,0.37-0.2,0.68,0.17,0.98c4.43,3.59,8.18,7.59,10.35,12.59"/><path d="M78.33,40.67c0.35,0.58-0.2,2.24-0.5,2.83c-1.67,3.33-5,6.83-8.18,10.24c-0.37,0.39-0.2,0.83,0.13,1.05c4.72,3.21,9.01,7.35,11.06,12.87"/><path d="M29,75.17c0.82,0.24,2.5,0.33,5.17,0.33c3.85,0,32.88-1.92,39.33-2.17c2.25-0.08,4.79,0.47,5.83,0.67"/><path d="M52.29,75.42c1.94,1.07,1.94,1.71,1.94,2.57c0,5.99-0.06,4.56-0.06,14.83"/><path d="M19.67,93.83c1.83,0.92,5.04,1.02,8.17,0.83c16.67-0.99,39.83-2.49,55-2.83c3.67-0.08,7.76,0.68,9,1"/></svg>