<svg><path d="M20.25,24.02c3.25,0.73,6.23,0.44,9.11,0.1c15.89-1.87,38.03-3.71,51.76-4.24c3.12-0.12,6.31-0.1,9.38,0.65"/><path d="M38.62,12.12c1,0.75,1.64,1.61,1.92,3.12c1.15,6.35,2.13,12.7,2.46,15.01"/><path d="M67.58,10.5c0.42,1,0.5,1.96,0.26,2.99c-1.41,6.05-2.05,8.57-3.59,14.26"/><path d="M52.76,28.5c0.93,0.93,1.27,2.25,1.27,3.47c0,1.16-0.03,4.13-0.03,5.53"/><path d="M25.6,38.52c0,3.41-2.22,10.36-4.51,15.07"/><path d="M26.35,41.6c13.03-1.1,39.65-4.35,55.31-5.31c9.83-0.6-0.32,8.25-1.86,9.1"/><path d="M37.32,52.18c2.03,0.5,4.02,0.42,6.05,0.14c6.68-0.9,13.25-1.95,19.38-2.58c1.91-0.2,3.64-0.28,5.54,0"/><path d="M28.08,66.67c2.92,0.58,5.97,0.26,8.68-0.06c8.66-1,23.17-3.18,33.61-3.99c2.86-0.22,5.72-0.5,8.54,0.11"/><path d="M44.99,69.5c0.14,1.34-0.02,2.54-0.5,3.8c-2.4,6.27-11.26,18.78-24.83,25.12"/><path d="M59.99,66.87c0.95,0.95,1.12,2.59,1.12,4.43c0,3.7-0.03,9.45-0.03,13.45c0,9,1.17,11.28,16.17,11.28c14.75,0,16.39-1.53,16.39-8.87"/></svg>