<svg><path d="M15,22.83c1.29,0.53,5.75,0.92,8,0.83c11.93-0.44,49.28-4.59,63-4.67c2.16-0.01,5.92,1.07,7,1.33"/><path d="M36.33,12.17c1.17,0.58,2.67,2.08,2.88,3.35c1.29,7.51,1.32,13.07,1.62,15.82"/><path d="M67.67,11c1.33,0.82,1,2.81,0.57,4.01C66.9,18.69,66,22.75,64.58,28.5"/><path d="M47.38,30.62c0.08,0.34-0.19,1.44-0.66,1.88c-3.75,3.48-11.05,8.19-26.96,12.7"/><path d="M16.71,55.95c1.5,0.37,4.26,0.54,5.74,0.37c6.06-0.71,49.47-5.4,65.67-5.9c2.49-0.08,3.99,0.17,5.24,0.36"/><path d="M36.33,40.67c0.07,0.38,3.36,2.11,3.43,4.5c0.35,11.45-0.22,41.42-0.22,45.32c0,13.52-6.24,3-7.54,2.02"/><path d="M16.33,78.88c1.72,1.02,2.8,1.18,4.52,0.31c1.01-0.51,26.46-12.93,30.76-15.4"/><path d="M60.17,31c2,1.33,2.8,2.99,3.03,6.08C65.25,64.75,72.75,87,90.41,96.66c5.41,2.96,4.6-0.32,3.93-6.66"/><path d="M82.5,57c0.67,1.17,0.92,2.39,0.5,3.67c-2.49,7.54-15.72,24.95-35.28,35.08"/><path d="M73.33,34.01c3.4,2.09,8.83,6.86,10.41,10.44"/></svg>