<svg><path d="M18,20.77c1.29,0.53,2.8,0.63,4.1,0.53c11.9-0.96,51.4-4.46,65.12-4.53c2.16-0.01,3.45,0.25,4.53,0.51"/><path d="M39.5,10.75c0.98,1.1,1.29,1.43,1.4,2.11C41.88,19.18,42.72,25.7,43,28"/><path d="M66.7,9.25c0.16,0.74,0.37,1.29,0.19,2.2c-1.05,5.35-1.53,8.02-2.68,13.05"/><path d="M72.51,26.46c0.12,0.24,0.32,0.65-0.23,0.95c-5.67,3.07-18.03,7.9-41.77,9.12"/><path d="M17.13,44.84c1.14,0.2,4.18,0.22,7.22,0.14c10.51-0.25,40.69-4.01,61.58-5.01c3.03-0.14,3.8-0.2,5.7,0"/><path d="M53.22,34.46c0.89,0.36,1.42,1.63,1.6,2.35c0.18,0.72,0,18.99-0.18,23.51"/><path d="M50.25,43.34c-7.02,8.41-17.54,16.64-34.5,22.84"/><path d="M54.5,42.75c5.12,2.81,28.54,16.1,34.11,18.86c1.89,0.94,3.5,1.34,5.39,1.61"/><path d="M48.53,66.87c0.48,0.67,0.68,1.75,0.24,2.8C45.12,78.5,37.88,89,21.83,98.92"/><path d="M32.41,64.78c1.3,0.37,3.16,0.45,4.45,0.37c10.02-0.62,21.89-2.12,31.29-3.58c2.39-0.37,3.12,1.28,2.28,2.28c-2.6,3.1-5.55,7.98-8.15,11.21c-0.51,0.64-0.18,1.75,1.3,1.49c4.27-0.74,11.41-1.78,15.49-2.27c2.22-0.27,2.81,2.32,2.54,3.1c-2.48,7.13-4.98,13.13-11.97,20c-3.7,3.63-6.68,1.24-8.16-0.5"/></svg>