<svg><path d="M21,23.77c1.29,0.53,2.8,0.63,4.1,0.53C37,23.33,71,20.33,84.72,20.26c2.16-0.01,3.45,0.25,4.53,0.51"/><path d="M37.75,12.5c1.75,1.43,2.31,1.87,2.5,2.75C42,23.5,42.5,30.5,43,33.5"/><path d="M68.25,10.75c0.42,1.18,0.87,2.02,0.5,3.5C67,21.25,66.25,25,64.25,32"/><path d="M31.52,39.9c0.52,0.53,1.44,2.3,1.54,3c0.7,5.35,2.66,17.43,2.66,17.78c0,0.35,0.17,0.35,0.34,1.06"/><path d="M33.91,41.49c7.84-0.99,36.93-4.14,39.59-4.25c2.21-0.09,3.56,2.46,3.47,3C76.25,44.5,74,55,72.79,59.38"/><path d="M34.43,50.06c3.95,0,36.19-2.9,40.66-2.9"/><path d="M36.24,60.26c8.04-0.38,26.31-1.89,36.33-2.22"/><path d="M18.38,74.61c1.62,0.39,3.45,0.21,4.51,0.11c19.86-1.97,50.86-4.22,66.36-5.14C90.59,69.5,93,69.5,94.5,69.5"/><path d="M54.11,61c-0.11,1.25,0.54,1.13,0.38,2.23C51.75,82,39.95,92.8,16.5,98.75"/><path d="M54,71.5c7.85,6.09,24.85,20.45,32.69,24.53c2.67,1.39,3.59,1.59,4.81,1.72"/></svg>