<svg><path d="M17.33,25.83c1.29,0.53,4.67,1.17,7.5,0.83c11.86-1.39,46.78-4.09,60.5-4.17c2.16-0.01,5.75,0.9,6.83,1.17"/><path d="M34.33,14c1.17,0.5,1.99,1.22,2.17,2c1.69,7.29,3.52,15.85,4,18.5"/><path d="M67.17,10.67c2,1,2,2.36,1.83,3.83c-0.5,4.33-1.8,12.76-3.5,18.33"/><path d="M21.17,44c3.08,0.5,5.33,0.5,9.5,0.33c8.72-0.35,39.58-3.58,48-3.67c2.27-0.02,6.87,0.22,8,0.5"/><path d="M32,49.5c0,0.64,0.25,2.04,0.04,2.78c-1.96,6.97-5.81,14.64-14.4,22.33"/><path d="M32.89,60.01c3.39,2.02,7.71,7.38,9.36,12.47"/><path d="M75.6,47.56c0,0.46,0.08,0.86-0.08,1.39c-1.47,4.52-5.65,12.58-10.63,17.14"/><path d="M72.81,57.01c6.81,3.92,12.04,8.84,16.11,14.8"/><path d="M53,29.17c0.57,0.96,1.17,1.94,1.17,4c0,38.32-6.67,53.58-35.75,66"/><path d="M52.75,58.01C65.86,77.3,70.32,85.23,87.4,95.89c2.76,1.73,3.5,2.23,4.68,2.41"/></svg>