<svg><path d="M20,21.77c1.29,0.53,2.8,0.63,4.1,0.53c11.9-0.96,47.4-3.96,61.12-4.03c2.16-0.01,3.45,0.25,4.53,0.51"/><path d="M36.25,10.5c1.75,1.43,2.31,1.87,2.5,2.75C40.5,21.5,41,26,41.5,29"/><path d="M68.97,8.75c0.98,0.88,1.64,2.21,1.31,3.5c-0.98,3.94-1.64,10.5-3.06,15.53"/><path d="M22.79,39.4c1.16,0.4,3.29,0.49,4.45,0.4c13.01-1.04,42.78-4.32,54.78-4.53c1.93-0.03,3.09,0.19,4.06,0.38"/><path d="M32,46.47c2.08,1.47,5.23,5.64,5.75,7.93"/><path d="M75.27,42.52c0.03,0.3,0.05,0.77-0.05,1.19c-0.63,2.51-4.26,8.02-9.22,11.4"/><path d="M13.87,61.72c0.92,0.22,3.41,0.86,5.86,0.65c10.3-0.87,60.22-4.78,71.02-4.34c2.46,0.1,3.08-0.22,4.63,0"/><path d="M51.92,25.5c1.35,0.43,2.43,2.41,2.43,3.32c0,3.93,0,66-0.27,71.43"/><path d="M52.92,60.48c-6.54,11.02-22.45,26.5-37.17,32.85"/><path d="M53.75,62.29C60.5,67.75,80,85.75,87.08,89.43c2.05,1.07,3.52,1.89,5.42,2.27"/></svg>