<svg><path d="M16.83,23.33c2.42,0.92,4.18,1.31,8,1c11.9-0.96,43.95-4.15,57.67-4.5c3.25-0.08,7.92,0.24,9,0.5"/><path d="M37.25,12.67c1.81,1.33,2.39,1.74,2.58,2.56c1.81,7.67,1.32,14.15,1.84,16.94"/><path d="M65.67,10.33c0.58,1.17,1.27,2.96,1.07,4.43c-0.74,5.28-1.48,9.99-3.15,16.07"/><path d="M52.44,27.5c0.02,0.26-0.19,1.32-0.32,1.66c-1.78,4.43-3.8,6.15-8.9,9.3"/><path d="M24.67,40.83c0.42,0.44,1.04,1.91,1.22,2.46c1.46,4.35,2.77,12.06,3.78,19.88"/><path d="M27.12,43.15c12.99-1.82,45.39-4.68,52.09-5.29c2.45-0.22,3.92,2.26,3.57,3.59c-1.45,5.47-2,9.35-5.11,17.23"/><path d="M29.9,60.38c13.99-1.63,34.5-2.63,48-2.88"/><path d="M53.17,43c0.83,1.5,1.27,1.96,0.83,3.83C48.86,69.14,41,85.75,17.58,98"/><path d="M58,59.83c0.71,1.19,1.08,2.81,1.12,4.65c0.19,8.22-0.5,14.71-0.5,20.3c0,9.72,2.38,12.58,18.75,12.58c15.38,0,17.47-2.11,17.47-14.03"/><path d="M70.17,70.42c3.49,2.34,9.02,9.61,9.9,13.25"/></svg>