<svg><path d="M20,21.64c3.51,0.7,7.04,0.65,10.62,0.32C46.5,20.5,66.75,19,82.12,18.47c3.48-0.12,6.94,0.15,10.38,0.68"/><path d="M37,11c1,1,1.36,2.07,1.5,2.94C40,23,40.75,28.32,41.25,31.25"/><path d="M71.5,10.25c0.62,1.25,0.62,3.02,0.25,4.5c-1.12,4.5-2,7.5-5,15.25"/><path d="M52.79,29.75c0.98,0.98,1.2,2.38,1.2,3.4c0,2.67-0.08,3.85-0.08,6.28"/><path d="M21.78,40.66c0,3.93-2.25,15.9-3.39,18.52"/><path d="M22.49,43.86C45.62,41,60.62,39,84.15,38.21c12.6-0.42,3.6,6.04-0.1,9.12"/><path d="M36.12,51.98c1.01,1.01,1.21,2.27,1.21,3.33c0,3.74,0.02,24.2,0.03,36.69c0,4.01,0,7.2,0,8.75"/><path d="M38.25,54.23c9.12-1.6,20.49-3.57,29.15-4.18c4.23-0.3,6.06,0.92,4.98,5.11c-1.12,4.35-1.5,4.97-2.71,8.54"/><path d="M38.25,67.33c6.68-0.86,17.65-1.99,26.5-2.72c2.24-0.19,4.35-0.35,6.22-0.47"/><path d="M38.5,80.78c10.12-1.66,18.75-2.78,30.01-3.84c3.27-0.31,7.35,0.67,6.12,4.97c-1.13,3.96-1.59,6.13-2.97,10.89"/><path d="M38.25,96.67c6.5-0.92,23.62-2.54,34.71-3.12"/></svg>