<svg><path d="M16.5,21c1.37,0.53,4,1.25,7,1.17c12.59-0.35,48.99-4.33,63.47-4.41c2.28-0.01,5.23,0.47,6.37,0.74"/><path d="M36.17,10.67c1.58,0.83,2.17,1.72,2.33,2.5c1.68,8.24,1.75,13.33,2.5,17"/><path d="M66.5,9.17c1.28,0.86,1.47,3.21,1.24,4.53c-0.99,5.55-1.99,8.3-3.49,14.3"/><path d="M27.5,33.67c1,0.83,1.79,2.26,1.83,3c0.17,2.58,2.83,21.63,2.83,22"/><path d="M29.67,35.17c3.03-0.09,40.57-3.22,43.33-3.33c2.3-0.09,4.31,2.12,4.05,4.28c-0.13,1.14-1.92,12.78-4.22,20.72"/><path d="M32.06,45.68c9.19-0.5,38.42-2.85,43.6-2.85"/><path d="M33.35,56.88c9.34-0.43,28.02-2.01,39.65-2.38"/><path d="M28.5,75c4.93-0.78,14.85-1.82,19-2.33c1.54-0.19,4.2-0.02,5.5,0.5"/><path d="M25.83,63.33c1.13,0.58,1.78,3.33,1.83,4.17c0.32,5.26-0.19,19-0.19,28.04c0,3.12-0.58,3.84,4.08,1.64C39.33,93.5,42.17,91.67,50,88"/><path d="M86.67,63.17c0.33,1.08-0.28,2.93-1,3.33C77.45,71.08,74.5,72.67,64,77.67"/><path d="M59.33,60.33c1.17,0.92,2.05,3.37,2.03,4.15c-0.15,4.4-0.31,21.83-0.31,24.19c0,6.82,1.45,9.5,16.88,9.5c12.82,0,15.74-0.93,15.74-11.68"/></svg>