<svg><path d="M17.5,23.38c2.59,1.05,6.14,0.67,8.87,0.44c13.32-1.1,38.15-3.16,52.88-3.68c3.32-0.12,7-0.12,10.25,0.67"/><path d="M37.25,11.25c1,1,1.62,2.11,1.75,3c1.25,8.5,1.75,13.12,2.5,18.5"/><path d="M69.65,10.38c0.38,1.16,0.2,2.26-0.22,3.68C66.96,22.41,66.07,26.09,64.5,31"/><path d="M31.26,38.48c0.95,0.87,1.4,1.69,1.67,3c1.13,5.38,2.3,11.14,3.34,16.27c0.29,1.44,0.57,2.84,0.83,4.16"/><path d="M33.57,39.52c10.74-1.15,26.82-2.22,35.82-3c3.79-0.33,6.69-0.43,5.86,4.11c-0.65,3.58-2.16,9.84-3.71,15.28c-0.44,1.54-0.88,3-1.31,4.33"/><path d="M35.73,49.09c10.52-0.96,26.64-2.09,37.06-2.3"/><path d="M37.7,59.53c10.68-0.66,21.69-1.1,31.91-1.65"/><path d="M25.31,69.14c0.93,0.79,1.02,1.82,1.27,2.97c1.13,5.23,2.61,14.58,3.61,20.76c0.29,1.77,0.53,3.27,0.72,4.34"/><path d="M27.24,70.42c15.51-1.3,38.63-2.8,50.9-3.55c3.38-0.21,4.84,1.38,4.31,4.51c-0.76,4.47-2.12,12.25-3.68,19.26c-0.43,1.93-0.85,3.77-1.25,5.41"/><path d="M29.8,81.91c14.32-0.91,35.95-2.41,50-2.89"/><path d="M31.65,94.02c12.6-0.52,34.85-1.27,45.16-1.32"/></svg>