<svg><path d="M15.33,23.83c1.38,0.6,5.17,1.17,8.17,1c12.73-0.71,49.44-4.66,64.08-4.74c2.3-0.01,4.77,0.44,5.92,0.74"/><path d="M36.67,13.33c1.33,0.67,2.38,1.83,2.53,2.62c1.36,7.35,1.75,14.04,2.14,16.71"/><path d="M68.33,11.5c1.12,1,1.54,2.36,1.17,3.83c-1.12,4.5-2.54,9.75-4.17,15.5"/><path d="M15.67,50.5c0.34,0.18,2.33,1.25,4.67,1c3.86-0.41,19.12-1.89,25.34-2.78c0.9-0.13,4.09,0.27,4.66,0.44"/><path d="M35.5,33.83c0.84,0.36,2.33,2.42,2.33,4.67c0,0.74,0.17,54.18,0,58.67"/><path d="M36.92,52.31c-8.26,15.14-14.67,25.44-24.65,34.78"/><path d="M40.8,58.93c2.26,1.69,5.99,7.16,7.9,10.43"/><path d="M61.74,35.18c0.21,0.73,0.47,2.09,0.19,2.97c-2.04,6.32-5.89,15.17-12.08,21.29"/><path d="M71.05,32.53C75.5,33.5,85.02,50.5,90.63,54.52c2.17,1.55,2.95,2.39,5.05,2.89"/><path d="M68.17,57.67c0.41,0.62,1,2.53,0.66,3.28c-4.51,10.14-7.62,17.28-14.04,27.38c-1.56,2.46-1.05,4.73,1.5,3.97C64,90,77.28,86.01,84.83,84.5"/><path d="M78.08,73.12c4.9,4.14,12.1,16.45,13.33,22.89"/></svg>