<svg><path d="M20,23.77c3,0.73,5.69,0.73,8.38,0.39c13.24-1.66,36.13-4.18,49.74-4.78c2.96-0.13,5.97-0.32,8.87,0.4"/><path d="M37,12.75c0.88,0.88,1.84,2.11,2,3C40.12,22,41.25,27.5,41.75,30.5"/><path d="M68.75,9c0.42,1.18,0.8,2.51,0.5,4C68.5,16.75,67,21.75,65,27.5"/><path d="M58.62,28.5c0,0.6-0.33,1.49-0.77,1.93c-2.09,2.07-11.28,6.33-26.11,9.16"/><path d="M30.77,45.83c2.13,1.51,6.01,6.71,6.54,9.06"/><path d="M48.71,41.78c1.98,1.43,5.1,5.89,5.59,8.12"/><path d="M75.35,35.75c0.05,0.43-0.06,1.14-0.35,1.74c-1.62,3.29-5.43,7.94-11.62,12.44"/><path d="M22.75,65.43c1.35,0.3,4.65,0.64,8.22,0.3c11.66-1.11,33.16-3.73,45.68-4.47c3.57-0.21,5.99,0,8.23,0.3"/><path d="M52.75,53.75c0.94,0.94,1.75,2.5,1.75,4c0,2.04,0.08,24.26,0.02,36.38c-0.01,2.75-0.02,4.99-0.02,6.37"/><path d="M51.25,64.25c0,1.25-0.52,2.39-1.46,3.51C42.36,76.75,28.89,87.27,17.25,92"/><path d="M55.5,65c4.13,3.01,20.22,15.6,28.09,21.35c2.58,1.89,4.91,3.27,8.29,4.27"/></svg>