<svg><path d="M22.25,23.27c2.47,1.01,5.9,0.63,8.51,0.41c12.98-1.11,36.06-3.05,49.12-3.37c2.48-0.06,4.95-0.13,7.38,0.47"/><path d="M38.75,11c1.12,1.12,1.48,2.43,1.6,3.22c1.12,7.43,1.83,13.58,2.15,16.28"/><path d="M71,10.25c0.42,1.18,0.28,2.58-0.25,4c-2.25,6-3.25,8.75-5.5,14"/><path d="M30.77,34.69c0.83,0.83,1.42,1.81,1.53,2.61c0.58,4.2,1.84,12.93,2.73,18.7c0.31,2.01,0.51,3.36,0.51,3.46"/><path d="M32.94,36.51c3.53-0.53,30.05-3.29,39.45-4.26c4.85-0.5,7.4,1.14,6.46,5.68c-0.71,3.46-2.03,9.8-3.39,14.88c-0.36,1.34-0.7,2.5-1.01,3.34"/><path d="M34.58,47.25c7.79-0.88,34.17-4,41.97-4.21"/><path d="M36.44,57.57c7.31-0.88,29.56-2.96,37.6-3.35"/><path d="M16.25,69.48c3.2,0.86,6.28,0.75,9.5,0.43c13.03-1.28,43.58-3.9,59.38-4.54c2.77-0.11,5.39,0.06,8.12,0.51"/><path d="M53.5,36.4c0.93,0.93,1.25,2.33,1.25,3.88c0,8.33,0.08,36.36,0.1,52.1c0,2.24,0,4.23,0,5.88"/><path d="M50.75,68.22c0,0.91-0.57,1.94-1.54,2.97C41.94,78.89,28.23,88.27,17,92.31"/><path d="M59,68c3.75,3.12,13.15,11.7,20.65,17.09c2.31,1.66,4.98,3.66,8.85,5.16"/></svg>