<svg><path d="M20.25,22.02c2.34,0.95,5.55,0.66,8,0.44c12.57-1.14,35.45-3.59,49-4.1c2.84-0.11,5.71-0.01,8.5,0.67"/><path d="M39.25,11c0.81,0.81,1.51,2.18,1.6,2.97C42,23.75,42.12,27.75,42.5,31"/><path d="M67.75,9.5c0.42,1.18,0.53,2.26,0.25,3.75C67,18.5,66.5,20.5,65.25,28"/><path d="M26,37.96c2.62,0.41,5.02,0.47,7.24,0.19c10.28-1.29,26.9-3.44,37.78-4.39c2.71-0.24,5.31-0.57,7.98,0.08"/><path d="M13.5,53.2c3.08,1.1,7.18,0.67,10.37,0.37c16.46-1.51,45.9-4.1,62.62-4.51c3.18-0.08,6.38-0.2,9.5,0.48"/><path d="M28.75,45.25c1.12,0.75,2.01,1.89,2.2,2.55c2.17,7.58,3.01,11.72,3.55,13.95"/><path d="M77.41,39.25c0.65,1.09,0.73,2.56,0.29,3.94c-1.54,4.84-2.18,7.4-4.1,14.31"/><path d="M27.5,67.96c2.05,0.83,4.84,0.49,6.98,0.24c10.14-1.18,26.34-3.07,37.14-3.96c2.83-0.23,5.12-0.32,7.88,0.35"/><path d="M23,82.46c2.48,0.83,5.56,0.52,8.11,0.28c12.62-1.21,34.06-3.15,47.52-4.04c3-0.2,6.18-0.2,9.12,0.39"/><path d="M53.37,38c1,1,1.46,2.38,1.46,3.5c0,4.03,0.04,38.23,0.04,53.12c0,4.03,0,6.65-0.01,6.88"/></svg>