<svg><path d="M16.5,23.83c4.36,0.73,8.67,0.26,13.12-0.15c14.88-1.38,35.75-2.67,49.62-3.22c4.17-0.2,8.34-0.03,12.51,0.51"/><path d="M37.5,12.5c1.06,1.06,1.65,2.35,1.75,3.25C40,22.5,40.5,27.12,41,31.12"/><path d="M67.62,11.5c0.56,1.38,0.46,2.73,0.03,4.2C66,21.5,64.88,25,63.06,31.5"/><path d="M19.85,40.73c2.2,0.67,4.38,0.65,6.53-0.05c4.63-0.89,9.76-1.85,14.6-2.81c2.52-0.5,3.05,1.23,1.66,2.98c-1.77,2.2-6.94,6.73-13.17,12.77"/><path d="M26.21,54.91c9.29,3.84,14.26,21.73,9.13,37.2c-2.77,8.33-8.15,1.75-9.32,1.07"/><path d="M14.62,71.96c1.89,0.89,3.61,0.88,5.16-0.04c9.54-4.65,14.6-7.57,22.55-11.53"/><path d="M79.47,31.75c-0.09,1.25-0.4,1.98-1.29,2.56c-4.93,3.94-9.03,6.56-21.93,11.06"/><path d="M51.9,44.27c0.85,0.85,1.13,1.85,1.11,3.26C52.75,67.25,50,87.25,39.31,97.22"/><path d="M64.07,45.79c0.82,0.82,1.02,2.22,1.02,3.24c0,5.21-0.09,28.89-0.09,37.34"/><path d="M54.08,89.53c1.32,1,2.61,1.19,3.85,0.59c6.64-2.47,9.3-3.58,16.57-6.37"/><path d="M73.63,77.64c3,3.29,5.32,9.08,6,13.72"/><path d="M73.87,40.48c0.24,0,1,0.51,1.27,1.55c2.89,11.29,7.73,35.27,17.76,49.33c1.53,2.14,3.15,3.46,4.23,4.16"/></svg>