<svg><path d="M17.5,21.17c1.29,0.53,5.01,0.83,8.5,0.5c12.5-1.17,46.29-3.39,60-4c3.75-0.17,7.42,1.07,8.5,1.33"/><path d="M36.83,11.33c1.75,1.21,2.31,2.25,2.5,3C41.08,21.3,41,26.97,41.5,29.5"/><path d="M68.17,9.67c1.12,0.88,1.95,2.96,1.58,4.26c-1.12,3.95-2.38,9.03-4,14.07"/><path d="M43.5,34c1,1,1.54,2,1.54,3.9c0,5.1,0.15,9.54,0.1,22.08c-0.06,16.86-2.9,31.76-19.65,39.43"/><path d="M17.83,43.33c1.5,1.17,2.8,1.5,4.5,1.33c1.7-0.17,18.85-1.19,20.83-1.69"/><path d="M17.17,59.17c1.5,1.33,4.83,1.19,6.33,1C25,59.97,40,58.58,44,58"/><path d="M15.67,80.83c2.08,0.67,3.55,0.87,5.97-0.25c1.43-0.66,14.64-6.58,20.7-9.75"/><path d="M61.33,32.33C62.5,33,63.67,35,63.67,36.17c0,3.83,0.03,57.08,0.03,62.67"/><path d="M64.33,42.17c5.3-0.4,17.69-1.99,21.67-2.67c1.45-0.25,4.17-0.83,6.33,0.33"/><path d="M65,57.17c4.5-0.29,16.29-1.01,19.67-1.5c1.6-0.23,3.33-0.17,6.17,0.5"/><path d="M65,75.83c4.47-0.24,19.65-1.61,23-2c1.22-0.14,3.33,0,5.5,0.5"/></svg>