<svg><path d="M16.67,24.33c1.29,0.53,6.63,0.57,7.93,0.46C36.5,23.83,70.95,21,84.67,21c3.33,0,8.09,0.9,9.17,1.17"/><path d="M35.33,13.5c1.83,0.83,3.06,2.45,3.25,3.29c1.75,7.87,2.08,13.18,2.58,16.04"/><path d="M67.67,11.33c1.08,0.92,1.37,3.52,1,5c-1.12,4.5-2.54,8.75-4.17,14.5"/><path d="M32.17,32c1.42,0.49,1.83,2.25,1.83,3.67c0,0.41,0.38,16.42,0.27,18.9"/><path d="M34.75,43.04c1.77,0,8.49-1.36,13.67-1.89c1.85-0.19,2.7-0.36,3.78-0.13"/><path d="M13.83,56.5c1.89,0.74,4.18,0.39,7.67,0c9-1,18.4-2.41,27-2.67c2.75-0.08,5.52-0.24,6.5,0.17"/><path d="M33.04,56.45c0.46,1.05,1.04,1.87,1.04,4.15c0,11.93-0.11,25.53-0.11,29.25c0,8.46-4.83,1.92-5.48,0.98"/><path d="M22.14,65.34c0.03,0.56,0.06,1.43-0.06,2.23c-0.67,4.7-4.53,15.02-9.8,21.33"/><path d="M42.82,65.62c3.59,3.2,9.28,13.15,10.18,18.12"/><path d="M58.33,41.83c1.18,0.39,2.47,0.75,4.83,0.17c2.36-0.58,16.08-3.25,19-3.33c2.2-0.06,3.44,2.04,2.83,4.17c-8,27.92-16.75,41.42-38.5,54.33"/><path d="M59.42,47.49c5.33,8.76,17.33,32.26,30.25,44.84c1.97,1.92,3.31,3.68,5.1,4.33"/></svg>