<svg><path d="M17.17,20.33c1.29,0.53,4.08,1.17,6.93,0.96c11.91-0.85,46.02-3.69,59.74-3.96c4.17-0.08,7.25,0.9,8.33,1.17"/><path d="M37.33,9.5c1.42,0.5,2.21,1.66,2.33,2.33c1.14,6.33,1.17,12.53,1.5,14.83"/><path d="M66.67,7.5c1.33,0.75,1.35,2.5,1.12,3.82c-0.71,4.02-1.18,8.71-2.2,13.85"/><path d="M28.83,30.83C31.5,32.17,33.57,32,36,32c1.33,0,36.94-3.28,39.07-3.47c2.13-0.19,3.44,1.9,3.09,3.3C76.83,37.17,75.25,42,74.33,47"/><path d="M16.17,41.33c1.33,0.42,2.84,1.06,6.17,0.83C39.25,41,60,39,85.83,37.5c2.35-0.14,7.33,0.52,8.51,0.79"/><path d="M31.33,50c0.81,0.28,5.02,0.52,5.83,0.5c10.71-0.33,19.58-2.25,34.33-3c1.35-0.07,4.71,0.06,5.39,0.19"/><path d="M22.77,55.94c-0.17,4.4-4.17,15.89-5.59,18.51"/><path d="M23.94,59.14c3.28,0,5.07-0.19,7.71-0.4c19.55-1.6,35.04-2.75,51.52-3.41c14.58-0.58,4.05,7.29,2.5,8.33"/><path d="M30.17,68.33c0.58,0.22,1.88,2.06,2,2.5c0.12,0.44,1.95,19.9,1.83,22.67"/><path d="M32,70.17c3.64-0.17,41.37-3.8,44.08-3.91c3.19-0.12,3.2,2.32,3.08,3.41c-0.58,5.46-1.53,13.3-3.67,18.67c-3.25,8.17-5.62,0.34-6.83-0.5"/><path d="M52.5,59c0.59,0.23,2.24,2,2.24,3.84c0,0.47-0.29,36.47-0.41,39.33"/></svg>