<svg><path d="M18.5,20.67c1.29,0.53,5,0.58,8,0.5c11.94-0.33,42.8-3.3,56.5-4c3.25-0.17,6.59,0.57,7.67,0.83"/><path d="M36.17,10.33c1.83,0.5,2.74,2.19,2.79,3.08c0.29,5.08,1.37,14.08,1.71,17.08"/><path d="M68.5,9c1.18,0.93,1.61,2.41,1.5,3.83c-0.34,4.2-1.67,10.33-3,16.33"/><path d="M16.83,39c1.22,0.64,4.42,1.25,9.83,1c17.56-0.81,39.5-2.86,55.19-3.78c2.7-0.16,7.38-0.39,9.81,0.11"/><path d="M49.93,24.25c0.41,1.1-0.06,2.73-0.56,3.99C43.75,42.25,26,60.75,12.25,68.46"/><path d="M63.97,38.47C70,46.5,75,52.75,88.09,60.12c1.92,1.08,2.55,1.34,3.41,1.46"/><path d="M29.67,57.5c0.37,0.52,1.19,2.85,1.29,3.59c0.29,2.16,2.58,21.84,2.71,22.57"/><path d="M31.67,59.67c3.46-0.36,35.85-3.14,39-3.5c2.62-0.3,3.41,2.55,3.17,4.33c-0.5,3.64-1.78,11.46-3.33,20.17"/><path d="M34.26,68.88c4.65-0.28,32.98-2.9,38.24-3.21"/><path d="M34.17,80.83c7.66-0.74,30.15-2.74,36.17-3.17"/><path d="M51.5,43.83c1.5,0.67,1.63,2.39,1.67,4.17c0.18,7.94-0.43,36.96-0.43,42.36c0,9.22,4.52,9.5,19.21,9.5c13.51,0,15.41-1.97,15.41-10.79"/></svg>