<svg><path d="M17.5,23c1.29,0.53,4.25,1.25,7.33,1c11.9-0.96,46.17-4.2,59.89-4.24c3.78-0.01,7.04,1.14,8.12,1.41"/><path d="M34.67,12.5c1.83,0.75,2.78,1.88,2.99,2.68c1.92,7.55,2.46,13.91,3.01,16.65"/><path d="M66.5,10.17c1.67,0.67,2.2,2.36,1.83,3.83c-1.12,4.5-2.46,10.75-4.08,16.5"/><path d="M23.3,33.82c3.68,1.12,9.5,4.59,10.42,6.33"/><path d="M17.66,53.25c3.94,0.89,10.18,3.67,11.17,5.06"/><path d="M18.58,92.78c2.17,0.72,3.73-0.01,4.43-1.55C27.25,82,30.8,75.08,34.33,65.81"/><path d="M44.17,37.5c0.77,0.28,2.84,0.38,5.17,0.17c7.42-0.67,25.11-3.06,34.17-3.33c2.75-0.08,4.86,0.19,5.5,0.33"/><path d="M53.98,45.07c0.04,0.45,0.09,1.15-0.08,1.79c-0.99,3.77-6.65,12.05-14.39,17.11"/><path d="M76.5,44.26c6.08,3.41,12.79,10.58,14.32,15.89"/><path d="M38.83,69.33c2.42,0.17,5.92,0.42,9.17,0c12.39-1.59,23.09-2.42,39.17-3.17C90.75,66,95,66.44,96,66.67"/><path d="M64.6,38.32c0.58,0.37,1.81,2.8,1.93,3.54c0.12,0.75-0.07,52.6-0.19,57.27"/></svg>