<svg><path d="M19.5,23.77c1.35,0.53,2.92,0.63,4.28,0.53c12.42-0.96,48.93-4.46,63.25-4.53c2.25-0.01,3.6,0.25,4.73,0.51"/><path d="M32.75,12c1.75,1.43,2.31,1.87,2.5,2.75C37,23,37.5,28.5,38,31.5"/><path d="M67.75,11.25c1.12,1,1.87,2.52,1.5,4c-1.12,4.5-2.38,9.5-4,15.25"/><path d="M44.31,29.75c0.06,0.5,0.13,1.3-0.12,2.03c-1.45,4.27-9.78,13.65-21.19,19.4"/><path d="M39.99,38.82c1.01,1.18,4.05,1.72,6.04,1.45c4.93-0.67,28.05-3.74,34.02-4.41c4.77-0.54,7.64,0,7.5,3.8c-0.67,17.42-2.73,33.94-8.61,53.89c-1.68,5.71-4.93,3.71-7.88-0.45"/><path d="M39.02,46.1c0.03,0.37,0.06,0.94-0.06,1.47c-0.7,3.09-4.69,9.88-10.16,14.03"/><path d="M34.63,55.72c0.66,0.25,1.87,0.31,2.53,0.25c8.1-0.69,14.89-2.33,22.16-3.21c1.09-0.13,1.76,0.12,2.31,0.25"/><path d="M20.57,68.01c0.97,0.35,2.74,0.41,3.7,0.35c10.05-0.59,29.3-3.59,43.97-3.73c1.61-0.01,2.58,0.17,3.38,0.34"/><path d="M45.14,57.77c0.59,0.72,1.27,1.25,1.27,2.24c0,3.48-0.06,22.57-0.16,25.51"/><path d="M28.46,75.34c0.48,0.24,1.29,1.91,0.95,3.21c-0.7,2.69-1.41,5.7-1.55,8.89c-0.05,1.11,0.42,2.27,1.55,1.97c10.84-2.86,20.92-4.93,34.57-5.99"/><path d="M64.34,72.11c0.48,0.28,1.03,2.05,0.95,2.6c-0.47,3.36-0.45,6.81-1.23,13.07"/></svg>