<svg><path d="M17.17,20.67c1.29,0.53,3.83,1.33,7,1.17c11.92-0.63,46.95-3.59,60.67-3.67c2.16-0.01,7.42,0.74,8.5,1"/><path d="M36.83,9.83c2.67,0.67,3.54,2.28,3.67,3c1.14,6.71,2.01,13.06,2.33,15.5"/><path d="M66.83,8.33c2,0.67,2.29,2.44,1.92,3.92c-1.12,4.5-1.96,8.33-3.58,14.08"/><path d="M33.67,31c1.58,0.75,2.31,2.79,2.31,3.91s0.31,24.98,0.31,26.65"/><path d="M35.67,33.17c15.83-0.67,35.23-3,38.67-3c2.7,0,4.64,0.16,6.67,0.5"/><path d="M36.58,41.59C49.91,41.4,66.04,38.83,69,38.83c2.32,0,4.77-0.06,6.5,0.33"/><path d="M36.67,51.85c13.33-0.68,26.12-1.86,31-2.18c2.28-0.15,5.76,0.05,7.5,0.33"/><path d="M14.5,63.5c1.35,0.33,5.26,0.88,8.33,0.67C40,63,65.3,61.2,84.5,60c4-0.25,7.37,0.5,8.5,0.67"/><path d="M34.75,65.99c1.5,1.6,1.39,2.28,1.39,4.57c0,10.79-0.45,23-0.45,24.83c0,1.83,1.65,2.86,3.74,1.49c2.09-1.37,17-10.4,19.78-11.77"/><path d="M77.7,67.32c0.03,0.24,0.38,1.15,0.16,1.47c-1.34,1.97-5.53,4.79-12.36,8.71"/><path d="M47.08,66.81C53.25,71,74.25,89.75,85.01,94.67c1.97,0.9,3.2,1.18,5.33,1.65"/></svg>