<svg><path d="M15.5,21.71c2.92,0.88,6.62,0.64,9.62,0.35c15.46-1.5,41.23-3.31,56.38-3.75c3.47-0.1,6.98-0.3,10.42,0.32"/><path d="M36.94,10.95c1.31,0.92,1.73,1.92,1.88,2.74c1.18,6.43,2.05,11.81,2.84,16.06"/><path d="M68.25,9.92c0.42,1.01,0.53,1.96,0.25,3.25c-1,4.58-2,8.46-4.22,15.55"/><path d="M19,42.39c0.8,0.8,1.03,1.73,1.03,3.04c0,3.26,0,22.18,0,32.44c0,2.91,0,5.13,0,6.09"/><path d="M20.93,44.76c3.67-0.65,13.93-2.23,18.32-2.81c2.89-0.38,4.21,0.65,4.21,3.68c0,5.5,0.01,25.25,0.01,30.88c0,2.8,0.03,5.07,0.03,6.38"/><path d="M21.07,61.87c4.81-0.49,15.56-1.99,21.27-2.11"/><path d="M21.18,81.24c7.7-0.87,13.57-1.74,20.95-2.12"/><path d="M59.22,34.74c0.9,0.9,0.95,2.01,0.99,3.41c0.92,34.6-0.83,45.48-15.46,59.36"/><path d="M61.2,37.04c1.98-0.2,17.68-2.54,20.79-2.81c2.66-0.23,4.04,0.52,4.04,3.57c0,4.45,0.01,37.87,0.01,54.14c0,8.84-6.41,1.11-7.37,0.31"/><path d="M61.45,52.67c6.2-0.4,16.05-1.54,23.43-1.86"/><path d="M60.73,69.38C66,68.78,77.38,68,85.05,67.68"/></svg>