<svg><path d="M21.25,23.27c2.08,0.85,4.95,0.78,7.14,0.53c15.86-1.8,39.27-3.51,53.35-3.96c2.69-0.09,5.37,0.05,8,0.69"/><path d="M38.5,11.5c0.88,0.88,1.35,2.11,1.5,3c1,5.75,2,11.5,2.5,14.5"/><path d="M69.88,10.75c0.29,1.28,0.27,2.24,0.01,3.53c-1.11,5.62-1.77,8.35-2.89,12.97"/><path d="M62.52,28.75c-0.14,1.12-1.21,1.74-1.8,2.05c-3.89,2.08-14.14,5.41-27.47,7.56"/><path d="M20,46.06c3.18,0.62,6.8,0.38,9.99-0.07c12.38-1.74,36.59-3.79,52.13-4.6c2.98-0.16,5.91-0.28,8.88,0.07"/><path d="M53.47,36.76c0.89,0.89,1.1,2.12,1.1,3.36c0,3.96-0.04,11.63-0.06,17c-0.01,1.58-0.01,2.97-0.01,4"/><path d="M50.25,44.73c0,1-1.44,2.01-2.84,3.14c-7.61,6.11-19.17,11.77-32.16,15.62"/><path d="M58,45.25c5.48,3.01,16.75,7.98,24.73,10.93c2.98,1.1,6.09,2.35,9.27,2.74"/><path d="M49.34,62.06c0.2,1.5-0.13,3.04-0.87,4.36c-3.21,5.63-6.1,10.01-10.24,14.9c-1.85,2.18-1.98,3.45,1.03,3.65c11.87,0.78,22.87,3.53,32.37,7.94c3.49,1.62,6.49,3.58,8.88,5.61"/><path d="M68.26,68.33c0.24,1.29-0.07,2.53-0.5,3.63C64.12,81.12,53.25,94,25.25,99.75"/><path d="M18.88,73.38c2.54,0.84,5.92,0.6,8.5,0.3c16.5-1.93,40.08-4.16,56.5-4.61c2.89-0.08,6.38-0.44,9.12,0.74"/></svg>