<svg><path d="M21.17,22.5c1.28,0.39,4.08,0.65,7,0.5C42.5,22.25,71.08,19.88,84,19.83c2.13-0.01,5.94,0.64,7,0.83"/><path d="M35.17,11.67c2.33,1,2.81,2.3,2.95,3.08c1.31,7.23,2.18,13.63,2.55,16.26"/><path d="M69.5,10.5c0.75,1,0.92,2.67,0.5,4c-1.27,4.05-1.83,10.16-3.67,15.33"/><path d="M52.17,27c0.76,0.24,2.54,1.75,2.54,3.7c0,2.18-0.05,4.4-0.06,6.39"/><path d="M23.04,39.01c0,3.94-3.76,14.78-5.46,17.41"/><path d="M23.83,41.5c14.92-1.75,43.67-4.25,57.83-4.17c14.36,0.08,7,6.32,2,9.17"/><path d="M36.33,49.5c1.17,1,1.42,2.37,1.42,3.06c0,4.44-0.04,39.14-0.11,40.62"/><path d="M38,51.17c2.7-0.07,27-2.39,29-2.5c3.6-0.2,4.63,0.9,4.63,3.06c0,6.07-0.17,26.05-0.3,39.28"/><path d="M38,65.83c8.38-0.65,25.9-2.2,33.26-2.4"/><path d="M38.17,78.67c11.17-1.5,21.07-2.29,32-2.67"/><path d="M18.83,95.17c1.24,0.4,4.92,0.83,7.83,0.67c12.86-0.73,32.66-3.43,56.33-4c3.5-0.08,6.5,0.42,8,1.33"/></svg>