<svg><path d="M16.17,26.5c1.38,0.68,4.83,1.5,7.67,1.17C36.45,26.18,68.75,23,85,22.5c3.26-0.1,7.35,0.66,8.5,1"/><path d="M37.17,14.67c2.17,0.5,3.29,1.99,3.5,2.83c1.97,7.87,2.1,14.31,2.67,17.17"/><path d="M64,11.5c1.67,0.67,2.39,2.44,2.33,4c-0.17,4.5-1.05,12.65-2.17,18.67"/><path d="M23.67,40.17c1.08,0.58,1.99,2.53,2,3.33c0.08,7.25,0.06,8.5,0.06,15.9c0,12.87-3.06,30.41-10.54,38.44"/><path d="M26.21,42.45c3.18-0.19,16.43-2.73,18.79-2.95c4.24-0.39,4.27,2,4.27,3.23c0,6.59-0.21,32.76-0.21,47.22c0,10.08-5.24,3.8-7.89,2.05"/><path d="M31.77,49.92c3.19,1.58,8.24,6.51,9.04,8.97"/><path d="M30.77,68.08c3.63,1.74,9.38,7.17,10.29,9.88"/><path d="M60.5,38.33c0.75,0.92,1.83,2.37,1.83,3.17c0,3.58,0.26,14.43,0.26,19.56c0,13.8-2.19,29.18-6.98,34.69"/><path d="M63,39.83c4.25-0.58,19.71-3.13,21.51-3.35c3.22-0.39,3.22,1.7,3.22,2.94c0,6.66-0.6,35.68-0.6,50.29c0,15.28-6.44,4.38-8.46,2.62"/><path d="M69.02,46.75c3.63,1.86,9.38,7.65,10.29,10.55"/><path d="M68.43,64.92c3.6,1.77,9.31,7.29,10.21,10.05"/></svg>