<svg><path d="M16.5,21.83c1.29,0.53,4,0.92,8.33,0.5c11.89-1.14,44.29-3.62,58-4.17c4.17-0.17,8.92,0.24,10,0.5"/><path d="M36.17,11.17c2,1,2.52,2.27,2.63,2.94c1.08,6.33,1.73,11.92,2.04,14.22"/><path d="M67.17,10.17c0.83,1.33,0.98,2.46,0.57,3.65c-1.23,3.64-2.55,8.7-4.33,13.35"/><path d="M27.5,33.33c1.25,0.67,1.42,1.58,1.5,2.17c1,7.25,2.41,16.02,3.3,24.64"/><path d="M29.83,34.5c12.38-0.93,35.09-3.2,44.33-4c3.4-0.3,5.66,1.04,5.39,3.91c-0.45,4.65-1.38,11.97-3.39,21.09"/><path d="M31.33,46.17c4.38-0.37,42.72-3.38,46.33-3.5"/><path d="M32.5,57.17c13.73-1.56,29.98-2.44,43.33-3"/><path d="M20.67,66.33c0.83,0.92,1.42,2.71,1.5,3.67c0.41,4.67,1.18,23.3,1.83,28.5"/><path d="M22.33,69.17c9.03-1.04,60.03-5.26,61.83-5.33c2.72-0.11,6.29,0.57,6.21,3.31C90.15,74.41,89.33,83,87,90.17c-2.35,7.22-4.33,6.17-8.83,3.17"/><path d="M52.33,34.5c0.57,0.74,1.54,2.6,1.54,3.93C53.86,44.26,54,80.04,54,81.83"/><path d="M37.67,84.83c1.33,0.92,3.09,1.37,4.5,1c3.96-1.03,20.55-5.28,28.83-7.17"/><path d="M66.89,72.32c3.11,2.27,8.02,9.52,8.8,13.2"/></svg>