<svg><path d="M15.25,23.21c3.15,0.93,6.93,0.35,10.13,0.04c17.12-1.63,40.71-3.67,56.37-4.37c3.91-0.17,8.25-0.02,11.42,0.75"/><path d="M37.94,12.95c0.92,0.55,1.43,1.59,1.54,2.36c0.93,6.94,1.36,10.06,1.93,15.69"/><path d="M68.19,10.42c0.46,1.12,0.45,2.17,0.05,3.58c-1.74,6.13-3.08,11.6-4.71,16.28"/><path d="M39.52,36.47c-0.02,0.91-0.57,1.85-1.32,2.47c-3.58,2.94-9.58,6.56-20.14,11.04"/><path d="M12.62,60.81c2,0.92,4.58,0.43,6.64,0.09c8.62-1.4,18.94-3.57,25.49-4.67c1.42-0.24,3.38-0.86,4.83-0.46"/><path d="M33.19,46.89c1.02,1.02,1.1,2.24,1.1,3.63c0,0.53-0.03,26.86-0.04,40.23c0,3.18,0,5.64,0,6.88"/><path d="M33.53,59.55c0,1.07-0.91,2.82-1.68,4.25c-4.23,7.86-10.25,15.14-19.96,22.37"/><path d="M37.46,65.71c3.78,2.2,6.79,5.91,9.01,9.44"/><path d="M54.68,49.5c1.89,2.66,4.64,10.19,5.16,12.85"/><path d="M91.83,45.06c0.29,1.07-0.02,2.32-0.8,3.47c-2.16,3.22-5.79,7.97-11.17,12.78"/><path d="M70.93,35.11c0.94,1.02,1.25,2.5,1.26,3.51c0.41,26.06-3.82,47.76-25.24,59.17"/><path d="M71.5,62.12c7.66,12.11,13.12,19.75,18.89,26.85c1.73,2.13,3.61,3.77,6.11,5.22"/></svg>