<svg><path d="M21,24.31c3.49,0.51,6.95,0.31,10.47-0.06C47,22.62,65.25,20.88,80.75,20.2c3.22-0.14,6.38-0.04,9.5,0.78"/><path d="M39,12.5c0.94,0.94,1.49,1.85,1.63,2.62c1.49,8.01,2.14,12.8,2.62,15.38"/><path d="M67.75,11c0.62,1.25,0.53,2.57,0.25,3.81c-1,4.44-1.75,7.69-3.25,13.19"/><path d="M52.99,28.93c1.12,1.12,1.26,2.38,1.26,3.57c0,3.17,0.07,1.85,0.07,4.73"/><path d="M25.74,38.37c0,3.33-3.18,12.74-4.51,14.96"/><path d="M26.92,40.98C46.12,38.75,65,36.88,82.95,36c10.6-0.52,2.08,6.32-0.37,8.04"/><path d="M36.25,50.23c2.27,0.23,4.53,0.18,6.77-0.13c5.92-0.69,15.94-1.84,22.1-2.25c2.27-0.28,4.52-0.23,6.76,0.16"/><path d="M33.65,61.47c1,1,1.1,1.78,1.31,3.2c0.16,1.02,1.53,9.5,2.61,16.09c0.32,1.95,0.61,3.73,0.84,5.11"/><path d="M35.43,62.47c6.57-0.72,29.58-3.11,36.2-3.67c3.75-0.31,4.76,1.18,4.46,3.69c-0.45,3.74-1.24,9.22-2.02,14.13c-0.38,2.4-0.76,4.67-1.1,6.54"/><path d="M37.29,72.61c10.46-0.99,23.96-2.36,36.73-3.02"/><path d="M39,83.31c10.25-1.18,24.13-2.58,33.53-2.96"/><path d="M20.38,94.75c4.49,0.62,8.99,0.65,13.5,0.09c13.92-1.26,33.49-2.47,47.74-2.47c3.54,0,7.05,0.18,10.52,0.87"/></svg>