<svg><path d="M17,21.27c1.42,0.53,3.07,0.63,4.5,0.53c13.06-0.96,51.47-4.46,66.53-4.53c2.37-0.01,3.79,0.25,4.97,0.51"/><path d="M36.75,11.5c1.75,1.43,2.31,1.87,2.5,2.75C41,22.5,40.5,26.5,41,29.5"/><path d="M67.75,9.25c1.12,1,1.87,2.52,1.5,4c-1.12,4.5-1.38,8-3,13.75"/><path d="M34.59,32.84c0.05,0.45,0.25,1.25-0.1,1.79c-2.5,3.88-10.03,13.22-17.37,17.17"/><path d="M35.6,47.92c0.06,0.63,0.31,1.77-0.13,2.54C32.39,55.96,23.89,66.97,13,74.82"/><path d="M27.72,63.89c0.36,0.2,1.07,1.26,1.15,1.65c0.07,0.39,0,29.98-0.07,32.42"/><path d="M47.13,39.72c2.08,0.27,2.08,0.56,3.99,0.38c8.73-0.8,21.68-2.78,29.99-3.16c2.7-0.12,4.05,0.92,3.65,2.82c-0.62,3-2.87,10.82-4.32,19.26"/><path d="M44.28,51.08c1.87,0.19,3.33,0.17,5.4,0c18.07-1.5,25.76-2.98,40.1-3.54c2.29-0.09,4.15-0.01,5.19,0.18"/><path d="M46.96,61.47c1.04,0.19,2.91,0.29,4.16,0.19c11.43-0.94,17.56-1.38,27.95-2.32c1.65-0.15,2.7,0,3.95,0.19"/><path d="M43.19,71.73c0.95,0.29,2.69,0.32,3.65,0.29c9.9-0.33,26.19-2.16,35.84-2.79c1.58-0.1,2.54,0.14,3.33,0.28"/><path d="M38.72,83.09c1.26,0.41,3.58,0.53,4.84,0.41c14.79-1.52,36.38-3.7,47.86-4.04c2.1-0.06,3.36,0.19,4.42,0.4"/><path d="M62.55,31.5c1.01,0.38,1.61,1.69,1.82,2.44c0.2,0.75,0,59.37-0.2,64.06"/></svg>