<svg><path d="M23.5,21.77c2.37,0.96,5.65,0.71,8.14,0.44c11.23-1.21,34.09-3.15,47.49-3.6c3.04-0.1,6.14-0.06,9.12,0.67"/><path d="M39.25,10.25c1,1,1.38,2.11,1.5,3C42,22.75,42.5,25.5,43,28.5"/><path d="M68.25,8c0.75,1.38,0.62,2.52,0.25,4c-1.12,4.5-1.75,7.5-3.25,14"/><path d="M33.31,32.46c1.06,1.06,1.37,2.84,1.65,4.3c0.57,3.01,1.15,7.61,1.69,11.38c0.3,2.1,0.58,3.95,0.84,5.13"/><path d="M35.03,33.81c5.11-0.43,29.59-2.89,36.72-3.45c3.85-0.3,5.18,0.73,4.41,4.64c-0.9,4.52-1.83,8.03-2.98,12.1c-0.36,1.27-0.74,2.59-1.15,4.02"/><path d="M36.96,42.32c10.79-1.19,26.42-2.69,37.35-3.05"/><path d="M38.41,51.55c10.21-1.17,23.23-2.3,33.16-2.61"/><path d="M43.37,54.04c0,1.46-0.73,2.93-1.57,3.87c-5.18,5.83-14.31,13.46-25.6,20.1"/><path d="M42.4,62.16c2.15,0.92,4.63,0.25,6.86,0.04c7.75-0.75,29.44-2.91,33.12-3.23c2.68-0.23,4.55,1.23,4.09,4.49c-1.59,11.27-2.53,19.35-8.41,32c-2.69,5.8-5.28,5.28-8.13,0.66"/><path d="M55.87,67.07c-0.12,1.31-0.37,2.31-0.89,3.3c-2.45,4.63-6.6,9.26-13.88,14.45"/><path d="M57,74.57c3.63,1.34,8.27,4.91,10.04,8.3"/><path d="M34.98,69.59c0.84,0.84,1.08,1.91,1.08,3.77c0,3.11-0.02,7.64-0.02,14.21c0,1.61,0.6,2.62,2.63,2.45c4.72-0.42,19.19-1.11,27.46-1.65c1.21-0.08,3.5-0.24,5.41,0.12"/></svg>