<svg><path d="M16.83,24.17c1.29,0.53,4.42,0.83,7.77,0.63C36.52,24.07,70.95,21,84.67,21c3.33,0,7.25,0.74,8.33,1"/><path d="M36.08,12.83c1.92,0.67,2.9,2.11,3.02,2.94c1.15,8.48,1.9,13.23,2.23,16.9"/><path d="M67.82,11.58c1.78,0.78,1.75,2.49,1.52,3.79c-0.74,4.23-1.87,10.47-3.5,15.79"/><path d="M16.33,51.83c0.42,0.28,4.27,0.9,7.67,0.67c7.17-0.5,20.75-2.5,27.17-3c1.13-0.09,3.96-0.11,4.67,0.17"/><path d="M36.5,35c1.25,0.75,2.14,2.47,2.14,3.16c0,12.23,0.05,27.87-0.14,31.67"/><path d="M21.83,70.17c0.67,0.83,1.56,1.85,1.65,2.42c0.64,4.13,2.57,15.52,3.48,23.34"/><path d="M23.17,71.83c6.7-0.85,22.43-3.04,27-3.17c1.89-0.06,2.83,1.37,2.67,2.67c-0.62,4.9-1.98,12.49-3,19"/><path d="M27,93.5c5.19-0.24,18.27-2.02,24.5-2.33"/><path d="M65,35.83c1,0.67,1.56,2.52,1.67,3.33c0.21,1.55-0.17,19.78-0.17,22.17c0,12.17-5.75,30.67-11.06,34.58"/><path d="M66.89,37.02c1.73-0.15,16.32-2.34,17.61-2.52c2.31-0.32,4.45,2.6,4.15,3.69c-0.29,1.05,0.05,35.16,0.05,49.94c0,12.11-4.45,5.36-6.2,3.03"/><path d="M67,54c5.36-0.57,15.8-1.68,20.5-1.83"/><path d="M67.17,70.33c4.54-0.17,14.43-1.35,19.67-1.33"/></svg>