<svg><path d="M16,21.06c1.68,0.68,3.64,0.82,5.33,0.68c15.47-1.25,47.96-2.85,65.78-2.94c2.8-0.02,4.49,0.33,5.89,0.67"/><path d="M35.25,11.5c1.75,1.43,2.31,1.87,2.5,2.75C39.5,22.5,40,28.5,40.5,31.5"/><path d="M66.25,9.25c1.12,1,1.87,2.52,1.5,4c-1.12,4.5-1.38,10.5-3,16.25"/><path d="M18.38,39.86c1.16,0.26,4.14,0.4,5.42,0.36c14.54-0.43,30.48-2.66,58.7-3.65c1.61-0.06,3.9,0.1,7.5,0.55"/><path d="M50.17,26.25c0,1.09-0.18,1.92-0.68,3.15C42.75,46,28.25,62.75,15.25,70.52"/><path d="M60,39.69c6.91,6.44,21.87,21.62,28.77,25.93c2.35,1.47,3.16,1.68,4.23,1.82"/><path d="M45.75,51.74c3.97,1.85,10.26,7.63,11.25,10.51"/><path d="M27.83,70.74c0.64,1.11,1.47,2.49,1.6,3.43c1.08,7.47,1.53,13.79,2.26,21.45"/><path d="M28.93,72.08C41,71.25,73.04,68.97,77.8,68.37c1.65-0.21,2.64,1.23,2.4,2.45c-0.97,5.06-2.44,16.23-3.43,22.46"/><path d="M45.64,71.82c0.27,0.71,0.54,1.3,0.65,2.19c0.91,6.93,0.51,13.87,1.15,21.25"/><path d="M61.83,70.96c0.42,0.71,0.85,1.74,0.79,2.67c-0.4,5.93-0.06,12.79-1.03,20.58"/><path d="M16.67,95.78c1.82,0.72,5.16,0.82,6.99,0.72c18.86-1.03,39.31-2.42,63.79-2c3.04,0.05,4.86,0.34,6.38,0.7"/></svg>