<svg><path d="M20.5,23.27c1.29,0.53,2.8,0.56,4.1,0.53c11.9-0.3,45.4-2.46,59.12-2.53c2.16-0.01,3.45,0.25,4.53,0.51"/><path d="M37.5,13.25c1.5,1.25,1.98,1.63,2.14,2.4c1.5,7.19,1.43,13.74,1.86,16.35"/><path d="M66.75,11.25c1.12,1,1.37,2.52,1,4c-1.12,4.5-2.38,7.5-4,13.25"/><path d="M74.38,28.42c0.12,0.31-0.94,1.96-1.63,2.29c-5.25,2.56-18.25,7.54-41.86,10.35"/><path d="M19.75,48.27c1.52,0.42,4.31,0.55,5.82,0.42c8.93-0.77,42.43-4.06,58.61-4.44c2.53-0.06,4.05,0.2,5.31,0.41"/><path d="M30.19,55.51c0.38,0.33,0.39,0.57,0.6,0.99c1.72,3.47,3.33,13.35,4.39,19.82"/><path d="M31.96,56.38c13.29-0.87,33.58-2.07,43.51-2.8c3.65-0.27,4.01,2.68,3.83,3.64c-0.69,3.5-2.88,11.12-4.55,16.96"/><path d="M33.44,65.13C39.5,65,72.82,63.29,76.4,63.15"/><path d="M34.86,74.35c10.89-0.85,26.17-1.24,39.39-1.84"/><path d="M52.25,39.62c1.25,0.39,2.25,2.7,2.25,3.52c0,10.61,0,46.64-0.25,51.49"/><path d="M30.41,84.97c0.92,0.25,2.6,0.28,3.53,0.25c9.58-0.29,31.06-1.69,41.5-2.27c1.53-0.08,2.45,0.12,3.22,0.24"/><path d="M20.14,95.92c1.49,0.35,4.22,0.41,5.71,0.35c15.49-0.59,43.41-2.62,60.32-2.93c2.48-0.05,3.97,0.17,5.21,0.35"/></svg>