<svg><path d="M18.5,21.27c1.29,0.53,2.8,0.63,4.1,0.53c11.9-0.96,47.9-3.96,61.62-4.03c2.16-0.01,3.45,0.25,4.53,0.51"/><path d="M37.25,11.5c1.75,1.43,2.31,1.87,2.5,2.75C41.5,22.5,41,24,41.5,27"/><path d="M66.75,9.25c1.12,1,1.87,2.52,1.5,4c-1.12,4.5-2.38,7-4,12.75"/><path d="M32.31,31.84c0.55,0.23,1.18,0.37,1.35,0.69c1.58,2.96,2.38,8.78,3.69,12.78"/><path d="M34.44,33.75c11.24-1.16,28.68-3.2,35.12-3.24c1.44-0.01,2.75,1.63,2.43,2.26c-0.74,1.48-1.99,4.48-4.1,7.96"/><path d="M37.61,42.97c7.56-0.33,22.2-1.8,32.59-2.31"/><path d="M24.05,52.62c1.5,0.29,4.26,0.37,5.77,0.29c14.23-0.77,28.8-4.14,49.17-4.47c2.5-0.04,4.01,0.14,5.26,0.28"/><path d="M36.58,53.28c0.88,0.53,1.96,2.42,1.96,3.36S38.3,83.41,38.3,86.78"/><path d="M38.48,63.5c14.08-1.17,17.9-1.34,30.34-1.91"/><path d="M39,75.19c11.49-0.81,16.08-1.65,30.11-2.22"/><path d="M21,89.98c0.47,0.64,2.62,1.54,4.27,1.28C31.9,90.19,69.81,82.73,80,81.03"/><path d="M67.36,52.05c1.53,0.84,1.68,2.26,1.68,3.2s0.24,37.11,0.24,44.78"/></svg>