<svg><path d="M18.5,23.77c1.29,0.53,2.8,0.63,4.1,0.53c11.9-0.96,46.9-4.46,60.62-4.53c2.16-0.01,3.45,0.25,4.53,0.51"/><path d="M37.75,13.5c2.09,1.03,2.75,1.35,2.98,1.98C42.81,21.43,43.4,26.84,44,29"/><path d="M66.23,10.75c1.02,0.91,1.7,2.29,1.36,3.63c-1.02,4.09-1.7,10.9-3.18,16.12"/><path d="M39.31,32.5c0.04,0.52,0.09,1.35-0.09,2.11c-1.05,4.44-6.81,13.19-14.72,20.14"/><path d="M39.86,39.44c0.92,0.31,2.22,0.41,3.69,0.21c1.48-0.21,31.08-4.07,34.77-4.17c3.69-0.1,3.62,1.79,3.41,4.01c-0.66,6.85-2.48,19.28-9.18,29c-3.14,4.55-5.53,0.31-7.25-1.72"/><path d="M50.59,42.04c0.05,0.51,0.14,1.33-0.1,2.06c-2.36,7.09-7.98,13.85-17.28,19.67"/><path d="M65.31,40.33c0.06,0.73,0.13,1.87-0.12,2.91c-1.47,6.13-9.41,19.6-20.93,27.84"/><path d="M38.06,48.4C48.14,50.74,64.1,58,66.62,61.64"/><path d="M24.01,82.27c0.44,2.06-4.41,11.14-7.93,14.57"/><path d="M32.12,75.6c7.34,11.48,16.63,22.97,42.6,22.09c13.22-0.45,14.6-4.17,3.56-8.72"/><path d="M54.32,78.01c2.05,4.21,5.03,8.42,7.23,1.97"/><path d="M81.75,73.48c5.85,2.5,10.23,4.77,14.99,12.51"/></svg>