<svg><path d="M17.5,21.17c1.3,0.37,4.25,0.83,7.17,0.67c13.03-0.74,47.02-2.67,59.83-3c3.25-0.08,6,0.17,8,0.83"/><path d="M36.17,10.83c2,0.83,2.72,2.29,2.83,3c1.1,6.66,1.69,13.24,2,15.67"/><path d="M68.67,10.83c0.33,0.67,0.83,1.92,0.5,3.5c-1.07,5.1-1.64,6.97-3.25,11.67"/><path d="M52.17,24.33c1.16,0.5,1.99,1.88,1.99,3.15c0,2.02,0,0.5,0,6"/><path d="M22.33,35.33C23.43,35.68,26.75,36,29.5,36c6.18,0,40.33-3.25,49.67-3.5c1.82-0.05,7.59-0.51,8.5-0.33"/><path d="M36.34,37.49c2.93,3.14,4.8,6.92,5.07,8.99"/><path d="M71.56,35.82c0.19,0.93-0.27,2.03-0.41,2.26c-1.67,2.82-3.34,5.45-4.38,6.74"/><path d="M19.83,48.77c-0.16,3.64-4.04,13.15-5.41,15.31"/><path d="M19.89,51.07c3.49,0,47.3-4.32,64.86-4.32c11.94,0,7.75,4.75,2.25,8.42"/><path d="M31.17,61.5c0.57,0.33,1.33,2.33,1.33,3c0,4.32,0.28,24.04,0.17,28.17"/><path d="M32.83,64.5c3.69-0.23,41.25-3.85,44-4c3.23-0.17,3.95,1.97,3.83,3.5C80,72.5,79.25,78,77.5,87c-1.4,7.22-5.13,0.69-6.67-1.17"/><path d="M52.83,50.83c0.7,0.3,1.78,1.67,1.78,3.64c0,0.61,0.03,41.49-0.11,45.19"/></svg>