<svg><path d="M20.75,21.27c3.51,0.68,7.03,0.62,10.61,0.29C44,20.38,62.12,19.25,75.25,18.9c3.88-0.1,7.69-0.25,11.5,0.38"/><path d="M39,11.75c1.06,1.06,1.68,2.35,1.75,3.25c0.62,8.12,0.75,12.12,1,16"/><path d="M66.25,9.75c0.62,1.25,0.37,2.52,0,4c-1.12,4.5-2.38,9.5-4,15.25"/><path d="M34.41,33.68c1.2,1.2,1.66,2.82,1.66,4.24c0,0.67,0.02,32.44,0.03,50.46c0,5.49,0.01,9.71,0.01,11.37"/><path d="M17.7,44.07c3.02,1.98,7.79,8.14,8.54,11.22"/><path d="M15.5,82.51c1.75,0.86,2.54,0.51,3.69-0.59c3.34-3.23,7.66-7.18,10.7-11.31"/><path d="M80.68,27.89c-0.34,1.12-1,1.93-1.97,2.42c-4.31,2.61-14.51,6.59-28.12,9.3"/><path d="M45.93,46.6c2.47,1.96,6.62,8.08,7.24,11.14"/><path d="M60.34,43.95c2.04,1.74,5.27,6.9,5.78,9.6"/><path d="M85.45,37.93c0.1,0.96-0.29,1.89-0.75,2.74c-2.07,3.84-5.12,7.81-10.75,12.83"/><path d="M42.42,69.02c3.48,0.67,6.89,0.09,10.45-0.2c9.5-0.77,21.38-1.73,31.25-2.33c3.33-0.23,6.68-0.21,10.02,0.07"/><path d="M79.51,57.08c1.52,1.52,1.24,2.8,1.24,5.17c0,16.32-0.18,28.81-0.18,31.51c0,6.24-5.23,0.98-6.75,0.14"/><path d="M54.22,76.86c2.79,1.57,6.96,6.43,7.65,8.87"/></svg>