<svg><path d="M17.83,20.5c1.29,0.53,6.7,0.94,8,0.83c11.9-0.96,46.67-3.5,60.39-3.57c2.16-0.01,5.54,0.81,6.62,1.07"/><path d="M38.5,10.5c1,0.5,2.1,1.85,2.17,2.67c0.67,7.83,1,13.67,1,16.33"/><path d="M67,9.17c1.25,1.58,1.4,2.12,1,3.5c-1.17,4-2.17,9-3.92,15.83"/><path d="M21,32.66c0,3.44-3.44,12.9-5,15.19"/><path d="M21.41,35.96c9.93-0.86,55.46-3.51,62.59-3.8c14.75,0,5.11,7.7,2.33,9.33"/><path d="M24.5,46.67c1.5,0.83,3.8,1.15,4.17,1.17C33,48,41.14,46.56,46.17,46.17c0.6-0.05,3.2,0.56,3.5,0.67"/><path d="M15.83,60.17c0.67,0.32,4.5,1.22,5.17,1.17c6.97-0.54,14.83-1.83,27.17-2.33c1.12-0.04,4.94,0.17,5.5,0.33"/><path d="M29.58,63.28c0.55,0.82,0.75,2.07,0.67,3.25C29.5,78.5,24.73,90.76,14.17,97.67"/><path d="M42.28,61.73c0.71,1.51,1.28,3.3,1.32,5.63c0.11,6.22-0.26,11.38-0.26,18.94c0,10.45,1.54,11.35,24.35,11.35c23.81,0,25.98-1.4,25.98-12.65"/><path d="M56.17,54.17c0.63,0.31,3.69,0.7,4.33,0.67c7-0.33,19.33-1.53,27-2c1.05-0.06,5.14,0.18,5.67,0.33"/><path d="M76.83,39.5c0.05,0.27,1.8,2.22,1.8,3.93c0,11.47-0.17,37.99-0.17,40.78c0,6.77-5.89,0.82-7.3-0.04"/><path d="M60.2,64.13c2.47,1.89,6.37,7.79,6.99,10.74"/></svg>