<svg><path d="M18.75,20.95c3.37,0.89,7.24,0.83,10.64,0.44c14.49-1.65,37.25-3.21,51.11-3.75c3.41-0.13,6.87-0.08,10.25,0.46"/><path d="M38,11c0.88,0.88,1.11,1.88,1.2,2.66c0.67,5.71,1.71,14.2,2.05,16.84"/><path d="M66.37,9.5c0.34,1.18,0.46,2.27,0.16,3.75c-1.02,5-2.41,12-3.02,15.25"/><path d="M17.04,40.71c0.94,0.94,1.16,2.26,1.16,3.6s0,32.07,0,40.7"/><path d="M19.03,42.09c1.55-0.14,10.48-1.54,14.39-2.11c2.96-0.44,4.32,0.16,4.31,3.4c-0.01,8.66-0.1,40.17-0.1,41.12"/><path d="M19.62,61.22c3.88-0.65,14.01-1.78,16.65-1.78"/><path d="M19.49,82.73c6.51-0.98,9.76-1.11,17.32-1.77"/><path d="M52.44,39.78c1.41,0.65,3.94,0.71,5.45,0.57c6.45-0.56,15.96-1.72,23.49-2.19c1.78-0.11,3.63-0.29,5.85-0.08"/><path d="M67.34,30.62c0.83,0.83,1.09,2.13,1.09,3.5c0,7.26-0.06,15.79-0.06,18.26"/><path d="M44.88,54.85c2.5,0.4,6.26,0.18,8.89-0.08c8.65-0.84,22.36-2.14,32.62-2.74c2.73-0.16,5.57-0.56,8.24,0.19"/><path d="M44.25,67.24c2.37,0.64,5.81,0.5,8.12,0.27c10.62-1.01,24-2.26,35.5-2.86c2.78-0.14,5.82-0.44,8.54,0.34"/><path d="M78.32,55.83c1.11,1.11,1.21,2.54,1.21,4.06c0,14.06,0.09,29.18,0.09,31.48c0,9.83-5.86,2.01-7.1,0.75"/><path d="M57.25,74.25c2.48,1.54,5.9,6.35,6.52,8.75"/></svg>