<svg><path d="M21.5,23.77c1.65,0.53,3.56,0.63,5.21,0.53c15.13-0.96,43.04-3.05,59.28-4.53c2.73-0.25,4.39-0.25,5.76,0.01"/><path d="M38.4,11.75c1.65,1.35,2.18,1.76,2.35,2.59c1.65,7.77,2.12,14.83,2.59,17.66"/><path d="M67.75,10.75c1.12,1,1.87,2.52,1.5,4c-1.12,4.5-1.88,8.5-3.5,14.25"/><path d="M28.96,34c1.04,0.77,1.57,1.79,1.57,2.58c0,1.81,0,6.49,0,11.4"/><path d="M15.25,49.44c1.01,0.4,2.2,0.46,3.2,0.4c5.71-0.34,17-1.94,24.76-2.74c1.68-0.17,2.7,0.19,3.54,0.39"/><path d="M19.5,58.4c4.21,8.62,6.12,17.44,6.5,23.12"/><path d="M40,51.49c0.77,1.06,0.43,3.26,0.27,4.1c-1.7,8.67-5.25,22.58-6.77,27.08"/><path d="M14.5,91.08c0.9,0.89,2.89,0.87,3.78,0.52c9.75-3.85,17.72-7.4,26.37-10.57"/><path d="M60.89,33.35c0.04,0.66,0.21,1.72-0.07,2.63c-2.07,6.77-6.07,16.77-12.61,25.14"/><path d="M60.62,45.55c0.73,0.57,1.76,0.76,2.93,0.38c1.17-0.38,21.01-3.4,23.92-3.9c2.2-0.38,4.59,1.32,4.58,3.99C92.01,56.64,87,80.61,81.03,94.43c-1.95,4.52-5.17,2.8-7.6-0.95"/><path d="M53.99,59.65c0.25,0.31,0.5,0.57,0.61,0.96c0.85,3.07,2.46,15.78,3.04,21.29"/><path d="M54.94,61.36C62,60,69.48,58.91,72.9,58.45c1.25-0.17,2.08,0.79,1.82,2.38c-0.66,4.11-2.43,10.04-3.41,16.67"/><path d="M57.48,78.83c4.02-0.52,10.66-0.91,16.18-1.71"/></svg>