<svg><path d="M18.5,19.8c1.76,0.72,3.81,0.86,5.57,0.72c16.18-1.31,43.37-4.39,62.02-4.48c2.93-0.02,4.69,0.34,6.16,0.7"/><path d="M37.27,9.75c1.4,1.15,1.85,1.5,2.01,2.21c1.4,6.62,1.8,12.64,2.21,15.04"/><path d="M69.37,7.5c0.93,0.83,1.05,2.09,0.74,3.31c-0.93,3.72-2.05,9.93-3.4,14.69"/><path d="M52.75,22.5c0.6,0.51,1.51,1.66,1.51,2.97c0,2.08,0-0.22,0,5.42"/><path d="M25.5,33.28c1.35,0.38,2.94,0.44,4.29,0.38c7.64-0.33,36.68-3.51,48.23-3.79c2.25-0.05,3.61,0.18,4.74,0.37"/><path d="M37.94,35.56c2.93,2.98,4.8,6.57,5.06,8.53"/><path d="M68.61,33.71c0.18,0.82,0.33,1.49,0.19,1.71c-1.4,2.21-3.8,6.4-4.8,7.76"/><path d="M21.02,46.33c-0.15,3.62-3.75,13.09-5.02,15.25"/><path d="M20.71,49.31c10.02-1,46.29-4.6,65.79-5.03c11.93-0.26,3.77,5-0.69,8.92"/><path d="M51.9,50.7c0.9,0.41,2.38,1.99,2.38,2.8c0,2.99-0.28,4.79-0.12,7.33"/><path d="M23.97,63.38c1.32,0.08,4.35,0.54,5.63,0.43c10.4-0.9,37.61-2.68,51.75-3.3c2.18-0.1,3.3,0.04,4.92,0.55"/><path d="M53.46,68.19c3.64,1.05,11.79,2.31,16.81,2.82c2.39,0.24,3.32,0.94,2.92,2.27c-1.94,6.46-6.43,16.28-12.09,23.08c-3.85,4.63-7.85,1.38-9.37-2.06"/><path d="M52.18,64.9c0.44,0.89,0.35,1.88-0.17,2.88c-3.59,6.87-13.99,20.76-30.14,27.26"/></svg>