<svg><path d="M18,20.83c2.75-0.08,5.71,0.4,7,0.33c11.79-0.65,43.5-2.92,57.17-3.5c2.83-0.12,5.93,0.66,7,0.83"/><path d="M38.17,11.33c1.28,0.99,2.36,1.56,2.5,2.17c1.28,5.68,1.8,11.1,2.17,13.17"/><path d="M65.5,9.67c1,0.83,2.05,2.92,1.85,3.86c-1.15,5.52-1.26,6.95-2.52,12.14"/><path d="M34.55,26.17c0.04,0.47,0.08,1.21-0.08,1.89c-0.97,3.98-6.52,12.71-14.12,18.06"/><path d="M34,32.17c1.15,0.52,3.44,0.63,5.33,0.5c5.08-0.35,34.55-3.81,39.17-4c4-0.17,5.48,1.7,5,4.83c-0.56,3.68-2.8,13.56-6.5,18.33c-2.53,3.26-4.44,1.68-7.17-0.5"/><path d="M36.67,37.83c0.42,0.19,1.24,1.32,1.24,2.44c0,1.3-0.58,3.6-1.07,6.06c-0.23,1.16,1.26,2.07,3.17,1.5c6.56-1.98,22.21-3.5,27.46-4.02"/><path d="M66.83,34.83c0.33,0.22,1.32,2.38,1.33,2.83c0.08,3.08-0.76,5.32-1.17,9"/><path d="M51.5,35.14c0.54,0.43,1.03,1.29,1.03,2c0,6.01,0.57,15.17-8.44,21.45"/><path d="M35.79,53.67c0.05,0.54,0.11,1.4-0.1,2.19c-1.24,4.61-8.36,14.72-18.11,20.91"/><path d="M31.17,64.33c1.16,0.55,4.14,0.25,6.04,0.11c5.09-0.37,37.33-2.76,41.96-2.95c4.63-0.18,5.84,0.5,5.36,3.8c-0.25,1.73-2.77,24.01-7.36,28.37c-3.21,3.06-3.93,1.97-6.67-0.33"/><path d="M32.83,71.33c0.92,0.67,1.33,1.6,1.33,2.87c0,1.47-0.09,5.87-0.33,8.46c-0.12,1.34,0.14,2.41,2.17,2c8.17-1.67,21.17-3.17,29.57-3.71"/><path d="M65.67,68.67c1,0.67,2.05,1.73,2,2.33c-0.26,2.81,0.06,6.06-1.33,12"/><path d="M51.55,68.23c0.65,0.5,0.81,1.98,0.73,2.8c-0.73,7.81-0.26,22.1-16.27,30.22"/></svg>