<svg><path d="M21.5,20.42c1.59,0.38,3.45,0.46,5.04,0.38c14.64-0.7,39.25-3.24,56.13-3.29c2.66-0.01,4.25,0.18,5.58,0.37"/><path d="M37.75,10.5c1.75,1.43,2.31,1.87,2.5,2.75C42,21.5,42,22,42.5,25"/><path d="M67.75,9.25c0.75,0.75,0.87,2.02,0.5,3.5c-1.12,4.5-1.88,6.5-3.5,12.25"/><path d="M47.87,27.32c0.04,0.22,0.09,0.57-0.08,0.89c-1.04,1.87-6.97,5.98-15.08,8.49"/><path d="M69.95,25.39c0.05,0.24,0.09,0.61-0.09,0.96c-1.14,2.01-7.62,6.43-16.5,9.14"/><path d="M23.49,43.07c1.67,0.51,4.73,0.62,6.39,0.51c11.2-0.72,34.31-4.12,50.98-5.14c2.77-0.17,4.44,0.24,5.83,0.5"/><path d="M30.95,50.82c1.79,0.19,2.77,0.6,5.11,0.39c12.77-1.17,26.24-3.11,37.73-3.7c2.29-0.12,3.58,1.36,3.06,3.31C75.51,55.91,74.5,62,73.89,67.19"/><path d="M20.14,60.54c2.22,0.19,3.95,0.57,6.4,0.39c21.43-1.55,42.62-3.23,59.86-4.41c2.71-0.19,4.93,0.39,6.16,0.58"/><path d="M31.21,69.95c1.3,0.1,3.66,0.38,5.21,0.29c11.52-0.69,23.54-2.25,35.13-2.93c2.07-0.12,3.39,0,4.95,0.1"/><path d="M44.26,34.24c1.02,0.42,1.63,1.9,1.83,2.75c0.2,0.85,0,57.55-0.2,62.84"/><path d="M59.97,35.97c0.51,0.42,0.81,1.9,0.92,2.75c0.1,0.85,0,55.77-0.1,61.06"/><path d="M44.86,70.21C39.85,78.96,28,91.25,16.38,96.3"/><path d="M60.88,68.6c4.16,3.5,22.41,20.06,26.93,23.5c1.53,1.17,2.84,1.67,4.38,2"/></svg>