<svg><path d="M18.25,22.94c2.19,0.77,5.11,0.63,7.39,0.45c12.18-1.01,37.17-3.31,51.74-4c3.33-0.16,7.01-0.17,10.29,0.52"/><path d="M34.94,12.95c0.99,0.99,1.37,2.09,1.49,2.86c1.2,8.06,1.99,11.94,2.23,14.94"/><path d="M67.75,9.92c0.42,1.01,0.78,1.71,0.5,3c-1,4.58-2.62,10.71-3.97,16.05"/><path d="M51.25,26.5c0.2,1.63-0.41,3.11-1.31,4.42C44.5,38.88,34.5,51.5,13.5,62.41"/><path d="M52,30.21c5.31,3.84,20.83,14.93,29.91,20.82c2.24,1.45,7.09,4.09,10.59,5.49"/><path d="M41.83,45.79c1.67,0.33,2.96,0.12,4.43-0.04c3.41-0.36,8.36-0.88,12.34-1.57c1.49-0.26,2.78-0.31,4.46-0.01"/><path d="M38.03,54.92c2.35-0.14,27.61-3.01,29.76-3.16c3.07-0.22,3.54,1.42,3.12,4.03c-0.66,4.09-1.2,6.75-2.1,11.48c-0.14,0.74-0.78,3.27-0.87,3.74"/><path d="M36.75,63.16c4.75-0.28,24.37-2.53,32.3-2.87"/><path d="M34.73,71.92c6.51-0.51,24.57-2.22,32.66-2.72"/><path d="M36.3,52.6c0.8,0.8,1,2.15,0.89,3.83c-0.57,8.7-6.94,30.66-19.94,38.03"/><path d="M37.5,81.01c0.99,0.99,1.53,1.95,1.7,3.09c0.98,4.24,1.84,8.14,2.59,11.91c0.25,1.25,0.49,2.5,0.71,3.73"/><path d="M39.25,82c8.6-1.01,24.88-2.21,31.87-2.8c3.3-0.28,5.18-0.13,4.13,3.62c-0.99,3.54-2.13,7.05-3.52,11.36"/><path d="M43.2,97.38c5.2-0.41,15.89-1.29,25.92-1.92c1.68-0.11,3.36-0.21,4.99-0.32"/></svg>