<svg><path d="M16.5,20.64c1.78,0.73,3.86,0.87,5.65,0.73c16.4-1.33,44.46-3.58,63.36-3.68c2.97-0.02,4.76,0.34,6.24,0.71"/><path d="M36.36,10c1.55,1.27,2.04,1.65,2.21,2.43C40.12,19.72,40.56,26.35,41,29"/><path d="M67.21,9.25c0.92,0.82,1.53,2.06,1.22,3.26c-0.92,3.67-1.53,9.79-2.86,14.49"/><path d="M24.48,33.91c1.42,0.4,4.01,0.44,5.43,0.4c18.71-0.48,34.85-2.31,49.07-3.53c2.36-0.2,3.78,0.19,4.96,0.39"/><path d="M26.95,42.8c1.31,0.54,3.71,0.59,5.03,0.54c13.66-0.61,29.57-2.54,45.13-3.39c2.18-0.12,3.5,0.25,4.59,0.52"/><path d="M15.78,54.09c1.67,0.52,4.74,0.61,6.41,0.52c17.4-0.88,43.93-3.63,65.8-3.59c2.79,0.01,4.46,0.25,5.85,0.51"/><path d="M51.27,22.75c0.42,1.14,1.01,1.72,0.67,3.53c-3.21,16.79-14.75,36.71-35.43,49.83"/><path d="M59.98,41.64c4.58,5.63,22.08,23.49,27.13,27.61c1.71,1.4,3.91,2,5.63,2.39"/><path d="M66.14,55.94c0.08,0.27,0.18,0.68-0.17,1.06c-2.04,2.25-13.76,7.17-29.79,10.18"/><path d="M27.31,75.66c0.64,0.19,3.2,0.7,4.89,0.58c7.66-0.58,31.48-2.75,44.46-3.29c1.7-0.07,3.83,0.23,4.89,0.43"/><path d="M53.37,65.81c0.84,0.37,1.34,1.69,1.51,2.44c0.17,0.75,0,27.81-0.17,32.5"/><path d="M54.7,75.38c-8.2,7.85-19.19,16.13-33.99,21.59"/><path d="M58.74,79.01c8.61,1.52,24.45,11.08,29.5,16.16"/></svg>