<svg><path d="M20.25,22.19c3.74,1.31,8.18,0.45,12,0.02c13.87-1.58,34.42-3.01,47.25-3.55c3.62-0.15,6.93,0.07,10.16,0.75"/><path d="M34.94,12.2c1.06,0.8,1.58,1.85,1.74,2.61c1.2,5.69,1.95,10.19,2.98,14.94"/><path d="M69.63,10.17c0.33,0.97,0.61,1.64,0.39,2.88c-0.78,4.4-2.34,11.12-3.49,15.17"/><path d="M52.78,26.41c1.09,1.09,1.3,2.21,1.3,3.88c0,2.53-0.07,3.1-0.07,5.08"/><path d="M20,36.88c0,3.22-3.61,12.07-5.25,14.21"/><path d="M20.51,39.61c15.74-1.73,40.87-4.11,64.16-5.22c11.6-0.55,2.46,6.4-0.43,8.43"/><path d="M39.58,44.73c0.17,1.34-0.51,2.18-1.27,3.17c-2.67,3.53-7.4,7.98-15.07,12.48"/><path d="M63.46,43.01c6.27,2.85,13.92,8.28,16.06,11.2"/><path d="M53.38,50.25c-0.12,1.62-0.97,2.92-1.78,3.92c-6.47,8.08-16.68,16.81-34.84,25.94"/><path d="M53.23,53.09c8.68,5.88,20.59,13.85,28.78,18.6c2.48,1.44,4.73,2.56,8.39,3.63"/><path d="M35.27,75.82c0.91,0.71,1.44,1.63,1.57,2.78c0.85,4.62,1.63,10.11,2.35,15.16c0.26,1.81,0.51,3.56,0.75,5.2"/><path d="M37.81,77.45c12.91-1.84,21.19-2.7,30.44-3.6c3.5-0.34,5.8,0.62,4.91,3.95c-1.66,6.2-2.27,9.7-3.88,16.29"/><path d="M40.86,97.21c8.47-0.52,16.99-1.01,26.39-1.73c1.58-0.12,3.19-0.25,4.82-0.39"/></svg>