<svg><path d="M21.75,22.02c3.4,0.72,6.77,0.68,10.25,0.28c13.53-1.54,32.12-2.57,46.88-3.18c3.58-0.15,7.36-0.2,10.88,0.4"/><path d="M38.25,11c0.94,0.94,1.43,2.33,1.52,3.08c0.85,6.67,1.48,10.42,1.98,15.42"/><path d="M70.38,8.75c0.84,1.38,0.65,2.6,0.32,4.02c-1.57,6.73-2.19,9.6-3.91,15.98"/><path d="M29.63,39.34c2.74,0.41,5.49,0.43,8.25,0.08c9.59-1.08,21.8-2.2,32-2.69c3.09-0.39,6.18-0.12,9.25,0.31"/><path d="M52.42,27.25c0.98,0.98,1.27,2.28,1.27,3.84c0,8.03,0.14,13.28,0.14,17.25"/><path d="M18.63,51.69c3.7,0.67,7.36,0.44,11.1,0.09c16.85-1.57,37.1-2.97,51.02-3.54c3.47-0.34,7.18,0.02,10.63,0.59"/><path d="M50.55,52.79c0,1.21-0.85,2.26-1.33,2.66c-4.84,4.05-8.34,6.05-15.32,10.76c-2.49,1.68-2.78,3.04,0.98,2.41c12.62-2.09,19.74-3.13,37.61-6.5"/><path d="M66.02,55.14c4.78,2.11,12.35,8.68,13.54,11.97"/><path d="M29.27,75.88c0.93,0.93,1.48,1.84,1.62,2.8c0.98,6.7,1.61,10.3,2.36,16.7"/><path d="M31.63,77.42c14.3-1.13,35.56-3.14,46.02-4.31c2.04-0.23,4.1,0.9,3.69,3.17C80.5,81,79.79,85.57,78,92.88"/><path d="M46.06,78.37c0.72,0.72,0.86,1.63,0.91,2.72c0.27,6.03,0.52,7.41,0.81,12.95"/><path d="M63.74,76.56c0.38,0.82,0.48,1.6,0.38,2.12C63,84.62,62.75,86,61.54,93.62"/><path d="M15.89,96.63c4.56,0.82,9.09,0.63,13.74,0.25C50,95.25,62.88,94.75,85,93.79c3.73-0.07,7.44,0.18,11.12,0.75"/></svg>