<svg><path d="M20.5,23.27c1.29,0.53,2.8,0.63,4.1,0.53c11.9-0.96,46.9-3.96,60.62-4.03c2.16-0.01,3.45,0.25,4.53,0.51"/><path d="M35.25,12.5c1.75,1.43,2.31,1.87,2.5,2.75C39.5,23.5,40,28,40.5,31"/><path d="M69.25,11.25c1.12,1,1.87,2.52,1.5,4c-1.12,4.5-1.88,9.5-3.5,15.25"/><path d="M52.75,26.61c0.73,0.37,2.28,2.78,2.42,3.52c0.15,0.74,0.08,3.48-0.07,8.12"/><path d="M24.23,40.15c1.46,0.52,4.15,0.61,5.61,0.52c15.22-0.87,36.66-2.67,54.06-3.59c2.43-0.13,3.9,0.25,5.12,0.51"/><path d="M27.95,41.32c0.05,1.32,0.1,3.4-0.1,5.29c-1.2,11.14-2.48,38.48-16.79,50.18"/><path d="M43.88,46.8c0,0.53,0.06,0.97-0.09,1.59c-1.4,5.76-5.6,12.92-11.75,19.28"/><path d="M41.33,56.02c3.61,1.83,8.22,6.68,9.98,11.29"/><path d="M74.01,44.7c0,0.52,0.08,0.97-0.08,1.55c-1.47,5.07-5.67,14.11-10.67,19.23"/><path d="M73.24,52.97c5.76,3.49,10.18,7.87,13.62,13.16"/><path d="M56.06,45.06c0.1,0.23,1.42,1.22,1.42,2.71c0,9.59,0.11,32.43,0.11,45.11"/><path d="M36.58,78.02c0.9,0.35,2.55,0.44,3.44,0.35c11.54-1.19,28.91-2.75,40.54-3.06c1.5-0.04,2.39,0.17,3.14,0.34"/><path d="M28.16,94.37c1.21,0.43,3.44,0.53,4.65,0.43c15.02-1.21,42.79-2.31,56.22-2.88c2.02-0.08,3.23,0.21,4.25,0.42"/></svg>