<svg><path d="M20,21.27c1.29,0.53,2.8,0.63,4.1,0.53C36,20.83,70,17.33,83.72,17.26c2.16-0.01,3.45,0.25,4.53,0.51"/><path d="M36.5,10.75c1.5,1.15,1.98,1.5,2.14,2.21C40.14,19.58,40.57,25.59,41,28"/><path d="M67.22,9.25c0.94,0.84,1.57,2.12,1.26,3.36c-0.94,3.78-1.57,9.57-2.94,14.39"/><path d="M52.25,24.75c0.78,0.42,2.06,2.04,2.06,2.88c0,3.08-0.25,4.08-0.1,6.68"/><path d="M24.68,36.73c1.65,0.55,3.92,0.51,5.09,0.46c10.97-0.44,39.25-4.06,52.02-4.31c1.97-0.04,2.98,0.04,4.45,0.59"/><path d="M35.77,44.62c0.4,0.36,0.8,0.66,0.98,1.11c1.38,3.57,2.75,14.52,2.97,21.99"/><path d="M38.24,45.42c9.72-1.5,26.21-2.89,31.22-3.4c1.83-0.18,2.9,1.85,2.67,2.95c-0.96,4.74-2.11,13.3-3.87,21.07"/><path d="M15.11,56.49c1.46,0.42,4.15,0.5,5.61,0.42c14.14-0.77,49.55-4.84,67.55-4.83c2.44,0,3.9,0.2,5.12,0.41"/><path d="M40.11,65.86c5.89-0.57,20.88-2.4,28.35-2.97"/><path d="M46.48,68.44c0.09,0.52-0.15,1.88-0.67,2.57c-3.36,4.51-13.79,12.73-30.61,19.85"/><path d="M39.55,80.59c0.4,0.38,0.84,0.76,0.84,1.42c-0.03,8.43-0.27,12.67-0.27,14.1c0,1.42,0.99,2.23,2.25,1.17c1.26-1.07,9.88-8.01,11.55-9.08"/><path d="M75.18,69.61c0.03,0.22,0.28,1.07,0.12,1.37c-1,1.84-4.11,4.46-9.2,8.12"/><path d="M55.32,72.93c2.15-0.11,3.56,1.15,5.57,2.68c6.34,4.85,22.09,16.34,26.54,19.05c1.67,1.02,3.1,1.46,4.78,1.75"/></svg>