<svg><path d="M17.5,21.77c1.77,0.53,3.83,0.63,5.61,0.53c16.29-0.96,43.66-2.96,62.44-3.03c2.95-0.01,4.73,0.25,6.2,0.51"/><path d="M36.5,10.25c1.33,1.32,1.76,1.72,1.9,2.53c1.33,7.58,1.71,14.47,2.1,17.22"/><path d="M67.75,9.75c1.12,1,1.37,2.52,1,4c-1.12,4.5-1.88,8.5-3.5,14.25"/><path d="M50.04,26c0.01,0.17,0.03,0.45-0.02,0.69c-0.31,1.46-2.06,4.67-4.46,6.63"/><path d="M23.99,33.84c0.23,0.39,0.63,1.33,0.76,1.83c1.05,4.05,2.44,14.6,3.09,22.15"/><path d="M24.87,35.75C36.59,34.52,68.5,33,79.14,32.17c2.85-0.22,4.26,1.25,4.11,3.01c-0.53,6.43-0.75,11.32-2.63,19.84"/><path d="M62.74,35.25c0.06,0.38,0.13,0.98-0.12,1.52c-1.48,3.21-9.96,10.25-21.57,14.55"/><path d="M43.27,39.94c7.69,1.79,19.87,7.35,21.79,10.13"/><path d="M27.88,56.61c7.39-0.68,41.05-2.73,52.74-3.07"/><path d="M27.88,73.73c7.31-0.38,12.67-1.22,19.04-1.85c1.87-0.19,3.06-0.18,4.02-0.07"/><path d="M26,62.01c1,0.63,1.37,1.78,1.37,2.64c0,2.34-0.32,25.99-0.32,29.63c0,3.06-0.16,4.36,4.03,1.75c5.92-3.68,11.67-6.68,17.06-9.21"/><path d="M83.96,63.29c0.25,0.61-0.45,1.87-1.23,2.69c-1.87,1.96-12.54,8.44-20.11,11.76"/><path d="M57.78,58.86c1.18,0.58,1.69,2.59,1.69,3.33c0,1.94-0.27,24.04-0.27,26.32c0,6.85,2.79,8.68,16.77,8.68c14.53,0,16.04-3.08,16.04-10.97"/></svg>