<svg><path d="M19.75,21.77c3.62,0.73,6.15,0.46,9.01,0.11c13.13-1.63,36.68-3.55,50.61-4c3.5-0.11,6.71-0.19,10.12,0.65"/><path d="M38.75,11.25c0.88,0.88,1.17,1.81,1.3,2.54C41.31,20.67,42.14,27.5,42.5,30"/><path d="M70.65,9c0.35,0.75,0.43,1.96,0.22,2.99c-1.23,6.05-1.8,9.07-3.14,14.76"/><path d="M45.37,40.46c2.06,0.76,5.12,0.24,7.25-0.01c8.29-0.98,17.08-2.1,25.15-2.72c2.17-0.17,4.32-0.49,6.47-0.01"/><path d="M46.18,48.82c0.75,0.75,1.19,1.56,1.39,2.7c0.79,4.55,1.67,8.77,2.51,13.59c0.27,1.57,0.55,3.2,0.81,4.92"/><path d="M48.11,49.66c9.01-1.05,23.22-2.57,30.26-2.95c3.15-0.17,5.18,0.09,4.76,3.66c-0.34,2.89-1.13,6.82-2.09,11.13c-0.41,1.84-0.85,3.75-1.31,5.67"/><path d="M50.08,58.35c8.55-0.72,19.42-2.01,30.78-2.46"/><path d="M51.7,67.8c7.54-0.72,17.55-1.8,27.48-2.37"/><path d="M41.89,77.2c2.74,0.55,5.61,0.35,7.86,0.11C62,76,70.38,75.62,82.5,74.83c2.49-0.16,5.13-0.21,7.87,0.43"/><path d="M63.63,30.63c1.12,1.12,1.42,2.37,1.42,4.05c0,0.7-0.04,31.78-0.05,47.07c0,3.42,0,6.05,0,7.38"/><path d="M20.46,34.89c3.63,1.62,9.38,6.66,10.29,9.18"/><path d="M14.5,58.81c2.06,0.77,3.93,0.31,6.01-0.15c2.99-0.66,7.04-1.89,9.99-3.01c2.38-0.9,3.19,0.75,2.25,2.07c-9.38,13.16-9.25,8.66-1.5,17c1,1.08,0.73,2.28-0.75,3.37c-3.12,2.29-7.25,5.29-9.75,6.62"/><path d="M14.75,87.44c3.5-0.94,9.03-1.25,13.45-0.59c6.93,1.03,29.37,6.25,33.73,7.14C74.12,96.5,80.5,97.25,90,97.17"/></svg>