<svg><path d="M20.5,21.77c1.29,0.53,2.8,0.63,4.1,0.53c11.9-0.96,47.4-3.96,61.12-4.03c2.16-0.01,3.45,0.25,4.53,0.51"/><path d="M38,11.5c1.5,1.2,1.98,1.56,2.14,2.3c1.5,6.91,1.93,13.19,2.36,15.7"/><path d="M71.41,9c1.3,0.79,1.67,2.5,1.24,3.67c-1.3,3.57-2.17,8.52-4.06,13.08"/><path d="M56.96,26.75c0.05,0.48,0.18,1.25-0.09,1.92c-1.78,4.28-7.2,11.76-15.8,17.89"/><path d="M55.51,32.64c0.32,0.02,2.33,0.38,3.25,0.32c3.04-0.21,10.27-2.75,14.64-3.27c1.6-0.19,2.83,1.02,2.07,2.25C71.29,38.67,58.75,52,41.97,56.11"/><path d="M50.88,38.2c4.18-0.02,28.91,11.64,35.71,13.99c2.03,0.7,3.67,1.04,5.65,1.25"/><path d="M50.7,59.21c0.97,0.29,2.75,0.42,3.71,0.29c5.34-0.75,14.59-2.5,20.6-3.01c1.6-0.14,2.58,0.14,3.39,0.28"/><path d="M48.81,68.15c0.97,0.29,3.4,0.35,4.37,0.29c11.21-0.79,14.26-2.33,23.61-3.09c1.6-0.13,2.58,0.14,3.39,0.28"/><path d="M42.86,77.64c1.47,0.57,4.14,0.63,5.61,0.57c9.23-0.37,22.27-2.62,34.34-3.57c2.43-0.19,3.9,0.27,5.12,0.55"/><path d="M64.25,49.5c0.61,0.32,2.03,1.85,2.03,3.07c0,6.78-0.25,29.2-0.25,37.9"/><path d="M20.71,28c3.63,1.61,9.38,6.61,10.29,9.11"/><path d="M13.96,45.25c4.34,0.92,11.21,3.77,12.29,5.2"/><path d="M11,63.98c2.64,0.79,4.4,0.39,5.58,0.2c1.17-0.2,9.39-2.76,11.15-3.15c1.76-0.39,4.4,0.98,3.23,2.17c-1.17,1.18-4.7,5.71-5.58,6.69c-0.88,0.98-0.59,2.76,1.17,4.13s3.23,2.95,4.11,4.13c0.88,1.18,0.88,2.16-0.88,3.15c-1.76,0.99-10.57,6.5-12.33,6.89"/><path d="M13.75,89.37c2.89-0.38,8.65-1.33,12.98-0.57c4.33,0.76,28.91,5.9,33.18,6.82c7.59,1.63,18.84,3.13,27.59,3.13"/></svg>