<svg><path d="M20.5,20.77c1.29,0.53,2.8,0.63,4.1,0.53c11.9-0.96,43.4-3.96,57.12-4.03c2.16-0.01,3.45,0.25,4.53,0.51"/><path d="M36.62,12c1.51,1.23,2.01,1.6,2.15,2.37c0.73,3.88,1.94,10.55,2.37,13.13"/><path d="M66.7,9.75c0.87,0.77,1.32,2.42,1.16,3.58c-0.61,4.17-2.44,8.24-3.7,12.67"/><path d="M27.75,32.91c0.3,0.25,0.6,0.46,0.73,0.78c1.02,2.49,2.25,10.37,2.95,14.85"/><path d="M29.59,34.6c6.51-0.98,47.9-4.57,51.36-4.9c1.26-0.12,2.98,0.84,2.64,2.24c-0.71,2.92-1.84,7.56-3.33,13.12"/><path d="M45.04,33.2c0.96,0.3,1.14,1.01,1.27,1.83c0.47,3.02,1.36,8.33,1.52,9.8"/><path d="M62.74,32.17C63,33,63.7,33.29,63.55,34.54c-0.36,3.24-1.08,7.7-1.41,9.05"/><path d="M32.36,47.18c4.06-0.37,42.28-3.67,47.86-4.24"/><path d="M29.06,61.79c0.04,0.86-0.04,2.21-0.07,3.45c-0.31,11.52-4.11,28.12-12.23,33.47"/><path d="M25.8,60.91c1.5,0.51,4.27,0.61,5.77,0.51c7.12-0.46,37.11-4.01,53.16-4.47c2.51-0.07,4.01,0.24,5.27,0.5"/><path d="M33.04,75.91c0.71-0.01,1.55-0.02,2.46-0.04c2.12-0.04,4.6-0.1,6.75-0.17c1.24-0.04,2.37-0.08,3.25-0.12"/><path d="M58.22,48c1.56,1.1,2.28,1.4,2.53,3.78c2,18.59,12.2,38.86,30.55,46.22c6.06,2.43,5.17,0.88,4.4-4.01"/><path d="M80.67,66.33c0.1,0.63,0.2,1.64-0.19,2.55C78.13,74.26,67,87.07,48.57,94.3"/><path d="M70.37,47.79c2.08,0.95,5.41,3.14,6.38,4.77"/></svg>