<svg><path d="M16.5,21.89c1.95,0.79,4.22,0.95,6.18,0.79c17.94-1.45,41.56-3.72,62.24-3.83c3.25-0.02,5.21,0.38,6.83,0.77"/><path d="M36.74,12.5c1.43,1.17,1.88,1.52,2.04,2.24C40.2,21.45,40.6,27.56,41.01,30"/><path d="M67.2,11.25c0.87,0.77,1.36,1.93,1.16,3.08c-0.86,4.92-1.44,9.74-2.7,14.17"/><path d="M31.16,31.71c1.14,0.46,3.01,2.22,3.01,3.13c0,3.34-0.36,6.67-0.15,9.5"/><path d="M14.75,44.58c2.25,0.67,3.83,1,4.82,1.04C22.25,45.75,36,44,44.72,43.34c1.67-0.13,2.19-0.18,3.78,0.18"/><path d="M32.94,50.83c3.31,1.42,5.81,1.95,9.61,2.05c1.95,0.05,3.31,1.57,2.84,3.92c-1.39,7-6.28,29.38-10.89,35.14c-2.25,2.81-4.5,1.81-6.51-0.99"/><path d="M32.87,46.86c0.04,1.11,0.13,2.89-0.17,4.46C30.25,64,25,79.25,17.33,89.9"/><path d="M58.78,29.39c0.02,0.5,0.05,1.29-0.05,2c-0.54,4.23-3.66,13.5-7.93,19.18"/><path d="M59.42,40.31c1.48,0.32,4.21,0.11,5.67-0.04c5.99-0.62,13.47-1.52,20.96-2.22c2.44-0.23,3.97-0.37,5.2-0.21"/><path d="M61.6,46.18c0.03,0.44,0.06,1.15-0.06,1.79c-0.7,3.77-4.77,13.03-9.16,16.46"/><path d="M61.57,54.31c0.92,0.27,2.62,0.4,3.53,0.27c3.73-0.53,12.83-1.41,19.48-2.77c1.5-0.31,2.47-0.31,3.24-0.18"/><path d="M48.3,70.09c0.67,0.21,3.1,0.28,3.82,0.29c8.62,0.12,27.12-1.88,37.68-2.36c0.92-0.04,2.23,0.08,4.29,0.43"/><path d="M68.66,56.51c0.36,0.29,0.54,1.24,0.53,2.49c-0.17,21.62-8.32,33.02-22.45,39.66"/><path d="M69.12,71.14c6.13,9.11,15.2,19.39,20.12,23.53c1.67,1.41,2.26,1.62,3.02,1.75"/></svg>