<svg><path d="M20,20.27c1.65,0.53,3.56,0.63,5.21,0.53c15.14-0.96,40.58-3.46,58.02-3.53c2.75-0.01,4.39,0.25,5.76,0.51"/><path d="M35.56,10.5c1.55,1.27,2.04,1.65,2.21,2.43c1.55,7.29,1.99,13.92,2.43,16.57"/><path d="M68.16,8c0.6,0.85,0.99,2.15,0.8,3.4c-0.6,3.83-1.5,10.21-2.36,15.1"/><path d="M51.27,22.75c0.08,0.93-0.11,1.7-0.35,2.05c-3.36,4.93-6.01,7.91-9.94,11.72c-1.3,1.26-1.17,2.99,0.8,2.55c6.44-1.43,14.48-4.15,21.46-5.73"/><path d="M59.19,28.77c2.74,1.61,7.07,6.64,7.75,9.15"/><path d="M30.22,39.75c0.23,0.31,0.37,1.3,0.23,1.71c-1.72,5.02-6.3,10.15-9.5,13.67c-1.01,1.12-0.02,2.83,1.4,2.21c4.87-2.12,13.19-5.83,18.88-8.02"/><path d="M37.76,45.2c2.4,1.29,6.2,5.29,6.8,7.29"/><path d="M75.65,34.18c0.27,0.23-0.07,0.98-0.23,1.29c-1.99,3.79-7.16,10.12-10.88,12.78c-1.18,0.84-0.64,2.09,1.04,1.73c5.41-1.15,14.16-3.37,20.53-4.58"/><path d="M81.36,40.01c3.51,1.94,9.07,7.98,9.94,11"/><path d="M52.76,46.93c0.1,0.74,0.45,2.04-0.21,2.98C46,59.25,34.75,70.75,15.5,78.43"/><path d="M54,49.81c5.04,4.25,26.75,18.11,32.31,21.22c1.89,1.05,4.31,1.5,6.19,1.8"/><path d="M60.37,61.29c0.1,0.51,0.37,1.39-0.21,2.06c-3.8,4.39-17.54,12.95-35.42,18.94"/><path d="M69.74,70.3c0.12,0.51,0.44,1.39-0.24,2.04c-4.67,4.45-19.28,14.58-42.82,19.5"/><path d="M79.89,78.92c0.16,0.56,0.32,1.45-0.3,2.26c-3.66,4.75-24.67,15.18-53.42,21.57"/></svg>