<svg><path d="M17.5,21.55c1.88,0.68,4.06,0.78,5.95,0.68c13.3-0.73,46.8-3.23,60.47-3.41c3.13-0.04,5.01,0.32,6.58,0.66"/><path d="M39.24,12c1.43,1.17,1.88,1.52,2.04,2.24c1.42,6.72,1.83,12.82,2.24,15.26"/><path d="M66.72,10.5c0.96,0.85,1.59,2.15,1.28,3.4c-0.96,3.83-1.6,10.21-2.98,15.1"/><path d="M34.46,27.5c0.05,0.6,0.1,1.54-0.1,2.4c-1.2,5.07-8.14,15.18-17.12,23"/><path d="M34.42,35.47c1.26,0.64,2.97,0.56,5.03,0.43c6.3-0.4,38.23-2.65,43.26-2.87c5.03-0.21,5.44,1.68,5.28,6.22c-0.48,13.25-2.23,33-6.88,53.42c-1.07,4.68-3.95,4.18-7.72,0.12"/><path d="M31.76,45.55c1.04,0.31,2.95,0.4,3.99,0.31c6.63-0.54,18.69-2.06,26.4-2.15c1.73-0.02,2.77,0.15,3.64,0.31"/><path d="M32.62,53.54c0.27,0.23,0.56,0.42,0.68,0.7c0.95,2.25,2.09,8.45,2.74,12.49"/><path d="M34.33,54.57c6.73-0.85,25.47-2.71,28.94-3c1.27-0.1,2.03,1.06,1.85,1.68c-0.75,2.56-1.61,4.36-3.22,8.05"/><path d="M36.31,64.13c4.07-0.33,22.1-1.77,27.27-2.1"/><path d="M29.14,72.53c0.28,0.46,0.77,1.74,0.92,2.31c1.25,4.71,2.86,15.49,3.6,24.16"/><path d="M30.89,74.27c12.3-1.36,27.75-2.4,34.77-2.81c2.58-0.15,3.89,1.07,3.75,2.2c-0.51,4.14-1.88,14.56-3.24,22.68"/><path d="M47.64,73.6c1.01,0.33,1.78,0.95,1.78,2.07c-0.01,5.18,0.17,16.05,0.17,17.73"/><path d="M32.52,85.05c3.06-0.2,32.24-2.34,34.77-2.34"/><path d="M33.9,95.96c11.06-0.82,20.89-1.28,32.35-2.03"/></svg>