<svg><path d="M20.5,23.27c3.11,0.69,6.18,0.36,9.38,0.1c13.52-1.1,37.12-2.75,52.25-3.49c3.23-0.3,6.43-0.17,9.62,0.4"/><path d="M39.99,11.5c0.94,0.81,1.42,1.76,1.47,2.87c0.81,7.67,1.28,13.66,1.55,16.13"/><path d="M69.89,10.75c0.33,0.92,0.27,2.11-0.1,3.24c-2.17,6.66-2.66,9.24-5.04,15.51"/><path d="M21,38.53c1.97,0.74,3.97,0.94,5.98,0.61c7.87-1.1,17.43-2.76,22.89-3.83c2.16-0.42,3.31,0.62,2.74,2.47c-0.68,2.17-1.97,6.61-2.59,9.77"/><path d="M25.12,51.1c3.4-0.16,15.44-1.84,22.36-2.68c2.1-0.26,3.73-0.43,4.5-0.47"/><path d="M24.3,39.9c0.7,0.7,0.79,1.9,0.72,3.08c-1.28,22.6-4.75,40.11-15.37,51.01"/><path d="M29.95,59.63c2.05,0.37,3.73,0.25,5.56-0.1c3.17-0.5,7.35-1.22,10.37-1.68c1.49-0.27,2.99-0.35,4.51-0.23"/><path d="M26.42,69.53c1.71,0.34,3.41,0.33,5.11-0.03c6.04-0.81,14.36-2.36,19.58-3.02c1.84-0.27,3.69-0.29,5.56-0.05"/><path d="M40.11,70.34c0.8,0.8,1.18,1.69,1.18,3.67c0,11.65-0.14,16.32-0.14,19.21c0,6.13-3.09,2.2-5.96,0.15"/><path d="M30.19,76.93c0.1,0.91-0.02,1.78-0.37,2.62c-1.8,3.64-4.68,8.41-11.27,13.98"/><path d="M49.46,76.27c3.08,2.29,8.12,9.17,8.89,12.74"/><path d="M60.06,51.75c2.5,0.32,4.97,0.25,7.43-0.19c6.77-0.97,14.56-2.6,21.77-3.34c2.48-0.32,4.97-0.07,7.46,0.24"/><path d="M80.17,34.28c1.09,1.09,1.47,2.21,1.47,4.6c0,16.09,0.05,49.64,0.05,53.2c0,8.63-5.79,1.28-7.47,0.18"/><path d="M64.85,61.62c2.39,1.96,6.18,8.04,6.78,11.09"/></svg>