<svg><path d="M24.25,20.94c2.59,0.91,6.05,0.56,8.75,0.38c11.91-0.82,32.19-2.43,45.25-2.76c3.41-0.09,6.57-0.1,9.92,0.6"/><path d="M38.69,11.45c0.93,0.93,1.35,1.92,1.49,3.36c0.57,6.06,0.95,9.44,1.23,14.44"/><path d="M69.25,10.17c0.42,1.01,0.53,2.21,0.25,3.5c-1,4.58-2.25,9.58-3.72,13.8"/><path d="M52.99,27.43c0.03,0.71,0.01,1.43-0.25,2.1c-0.86,2.22-1.37,3.36-3.48,6.52"/><path d="M34.78,38.15c0.85,0.85,1.05,1.97,1.05,3.49c0,5.31,0.03,24.36,0.03,33.6"/><path d="M36.39,39.57c5.86-0.7,29.36-3.32,32.67-3.64c2.75-0.26,4.54,1.11,3.98,3.82c-0.42,2.04-1.4,6.65-2.52,11.12c-0.45,1.81-0.92,3.6-1.39,5.18"/><path d="M36.72,47.91c7.66-0.78,28.53-2.91,34.34-3.11"/><path d="M36.85,56.64c8.78-0.89,21.53-2.14,31.75-2.47"/><path d="M36.89,65.26c9.46-0.9,27.5-2.43,36.13-3.18c2.79-0.24,6.01-0.8,8.8-0.3"/><path d="M36.87,74.9c16.5-2.53,38-4.78,47.28-5.38c4.4-0.29,6.39,2.12,5.6,4.85C87.56,81.99,83.12,89,79.74,94.15c-3.15,4.79-5.24,2.1-7.5-1.05"/><path d="M21.94,84.75c0.46,4.41-0.33,9.74-1.69,12.5"/><path d="M34.75,82.74c2.48,1.77,4.83,6.64,5.45,9.4"/><path d="M47,81.5c1.96,1.53,5.06,6.3,5.55,8.69"/><path d="M60.48,79.38c1.95,1.32,5.04,5.45,5.53,7.51"/></svg>