<svg><path d="M18.5,22.66c3.14,0.39,6.27,0.39,9.38,0c14.45-1.58,38.13-3.18,52.87-4.01c3.33-0.19,6.62-0.02,10,0.5"/><path d="M38.25,11.5c0.88,0.88,1.14,1.89,1.25,2.66c1.05,7.24,1.95,13.7,2.25,16.34"/><path d="M70,9c0.42,1.18,0.35,2.27,0,3.75c-1,4.25-1.62,7.12-3.25,14.75"/><path d="M17.87,37.29c1.41,0.75,2.7,0.83,4.25,0.71c4.5-0.36,9.59-0.95,13.14-1.78c2.96-0.69,4.35,1.09,3.05,3.04c-1.3,1.96-6.82,11.88-9.1,14.67"/><path d="M29.22,53.93C41,63.58,38.5,87.75,28.89,80.24"/><path d="M18.87,38.29c0.79,0.79,0.91,1.96,0.91,3.22c0,0.72,0.03,35.35,0.04,51.61c0,3.18,0,5.61,0,6.91"/><path d="M62.47,29.79c0.14,1.35,0.06,2.33-0.63,3.5C58.12,39.5,52,47,40.34,55.22"/><path d="M65.62,33.88c4.79,3.55,16.43,11.19,23.43,15.86c2.45,1.64,4.45,2.51,7.8,3.89"/><path d="M55.3,49.3c1.62,0.14,3.23,0.08,4.82-0.19c3.62-0.55,9.37-1.69,12.51-2.04c1.24-0.14,2.93-0.29,4.18,0"/><path d="M48.36,58.24c2.01,0.51,3.91,0.44,6.03,0.15c5.26-0.7,16.04-2.36,20.85-3.13c3.12-0.51,4.01,1.62,2.78,3.47c-2.13,3.21-3.86,5.57-5.17,8.14"/><path d="M49.67,69.77c2.03,0.62,4.06,0.78,6.1,0.47c7.12-0.73,13.16-1.66,19.87-2.42c1.69-0.19,3.16-0.55,4.87-0.2"/><path d="M44.22,80.4c2.44,0.56,5.45,0.42,7.9,0.13c10.5-1.28,24.9-3,34.5-3.37c2.3-0.09,4.62-0.15,6.91,0.17"/><path d="M59.46,82.88c0.04,1.3-0.34,2.4-1.14,3.29c-2.53,3.33-4.84,5.84-8.03,9.46c-2.41,2.74-2.41,4.24,1.72,3.27c8.88-2.09,17.22-4.24,25.99-6.4"/><path d="M73.9,85.37c4.44,2.62,10.87,10.72,11.97,14.81"/></svg>