<svg><path d="M19,22.27c1.29,0.53,2.8,0.63,4.1,0.53C35,21.83,70,19.33,83.72,19.26c2.16-0.01,3.45,0.25,4.53,0.51"/><path d="M37.75,12c1.75,1.43,1.88,1.86,2,2.75C40.25,18.5,41,27,41.5,31"/><path d="M67.25,10.25c0.5,1.75,0.87,2.52,0.5,4c-1.12,4.5-2.88,10-4.5,15.75"/><path d="M30.93,31.38c0.39,0.33,1.22,2.46,1.3,3.12c0.08,0.66-0.13,11-0.13,17.7"/><path d="M23.71,35.19c0.04,0.36,0.07,0.92-0.07,1.43c-0.86,3.01-5.78,9.6-12.51,13.64"/><path d="M39.7,35.47c3.59,1.76,9.28,7.25,10.18,9.99"/><path d="M15.81,53.06c0.45,0.39,0.9,2.91,0.99,3.69c0.09,0.78-0.06,35.53-0.15,40.38"/><path d="M16.7,55.11c2.75-0.27,27.67-4.53,29.72-4.7c2.41-0.2,2.89,2,2.84,3.78c-0.31,10.91,0.24,30.43-0.68,39.22c-0.67,6.38-4.62,1.87-5.77-0.3"/><path d="M32.34,57.07c0.1,0.36,1.47,1.88,1.47,4.17c0,11.26-0.3,27.25-0.3,30.99"/><path d="M26.98,66.27c0.02,0.46,0.03,1.18-0.03,1.84c-0.39,3.87-2.63,12.37-5.7,17.57"/><path d="M40.21,67.45c1.07,2.26,2.77,9.3,3.04,12.82"/><path d="M68.8,32.38c0.04,0.66,0.19,1.73-0.07,2.65c-1.86,6.67-6.04,17.98-12.48,26.04"/><path d="M67.52,47.4c0.85,0.29,2.44,0,2.9-0.04c4.78-0.47,12.21-3.47,19.52-4.22c0.82-0.08,1.33-0.02,1.54,0.08"/><path d="M81.77,48.86c0.41,1.1,0.27,2.91-0.35,4.79c-6.42,19.27-11.19,30.74-24.87,42.64"/><path d="M63.73,58.84c1.17,0,1.86,0.87,2.79,2.05c6.29,8.02,17.85,23.54,26.25,31.15c1.55,1.4,3.18,2.33,4.48,2.47"/></svg>