<svg><path d="M17,19.82c1.77,0.55,3.83,0.66,5.61,0.55c16.29-1.01,43.66-3.12,62.44-3.2c2.95-0.01,4.73,0.26,6.2,0.54"/><path d="M36.84,9.5c1.22,1,1.61,1.3,1.74,1.92c1.22,5.76,1.57,10.99,1.92,13.08"/><path d="M67.19,8.25c0.79,0.7,1.31,2.27,1.05,3.3c-0.79,3.16-0.99,7.45-1.95,11.95"/><path d="M23.89,30.36c1.79,0.56,5.08,0.69,6.87,0.56c10.08-0.75,39.66-3.06,50.18-3.27c2.98-0.06,4.78-0.36,6.27-0.08"/><path d="M22.25,38.97c0.52,0.57,1.17,1.04,1.28,1.77c0.27,1.8,2.35,7.24,2.61,10.14"/><path d="M23.42,40.32c10.68-0.93,56.4-3.69,61.91-4c2.01-0.11,2.94,1.13,2.94,1.82c0,1.88-2.17,6.64-3.39,9.74"/><path d="M42.59,30.76c0.69,0.42,1.15,1.87,1.24,2.73c0.78,7.39,1.39,7.01,1.86,15.02"/><path d="M65.51,31.17c0.38,0.29,0.54,1.35,0.54,2.7c-0.01,5.4-1.04,8.39-1.66,13.32"/><path d="M26.15,49.63c3.88-0.12,54.25-3.33,59.31-3.31"/><path d="M30.28,56.22c0.43,0.97,0.65,1.45,1.15,2.57c0.72,1.61,1.92,16.57,2.6,18.02"/><path d="M30.92,57.21c2.45-0.15,45.43-3.12,47.65-2.73c0.88,0.15,1.72,1.35,1.39,2.89c-0.63,2.89-1.29,12.21-2.44,17.38"/><path d="M32.89,65.87c3.32,0,41.19-2.71,44.94-2.71"/><path d="M33.99,75.04c4.91,0,40.59-1.93,43.65-1.93"/><path d="M16.05,85.93c1.99,0.42,5.65,0.54,7.63,0.42c17.22-1.01,49.55-3.18,65.75-3.15c3.32,0.01,5.31,0.2,6.97,0.42"/><path d="M54.54,75.69c0.32,0.35,0.99,2.62,1.06,3.32c0.06,0.7-0.04,18.1-0.1,22.48"/></svg>