<svg><path d="M17.5,25.27c3.77,0.74,7.53,0.53,11.39,0.1c15.58-1.76,34.99-3.74,47.99-4.39c3.84-0.19,7.36-0.1,11.12,0.54"/><path d="M34.75,12.5c1,1,1.31,1.87,1.5,2.75C38,23.5,39.5,30.5,40,33.5"/><path d="M68.75,10.5c0.62,1.5,0.37,2.77,0,4.25c-1.12,4.5-2.62,9.88-4.5,17"/><path d="M29.97,42.57c0.33,2.25-3.22,11.68-6.39,15.67"/><path d="M38.73,40c4.97,10.73,12.82,20.05,31.98,20.18c9.24,0.07,9.84-2.86,2.14-7.75"/><path d="M55.25,39.75c1.54,4.65,3.78,9.31,5.42,2.18"/><path d="M74.26,35.23c4.67,1.97,8.49,4.89,11.97,9.86"/><path d="M17.7,79.57c0.26,2.14-2.87,11.1-4.96,14.67"/><path d="M23.98,73.25c3.35,12.73,8.4,23.77,21.32,23.93c6.23,0.08,6.64-2.39,1.44-8.19"/><path d="M33.47,74.75c1.72,4.26,4.22,8.51,6.05,2"/><path d="M46.8,69.98c2.51,1.62,4.39,3.1,6.43,8.11"/><path d="M61.25,78.07c0.2,1.97-2.26,10.39-3.87,13.67"/><path d="M65.55,73.75c3.42,12.59,8.82,23.53,21.99,23.68c6.35,0.08,6.77-2.36,1.47-8.09"/><path d="M75.59,75.75c1.48,4.45,3.64,8.91,5.23,2.09"/><path d="M87.42,69.48c3.34,2.12,5.85,4.05,8.57,10.61"/></svg>