<svg><path d="M21.5,19.77c3.17,0.72,6.68,0.16,9.88-0.04c12.51-0.77,33.84-2.4,46.99-2.85c3.46-0.12,6.7-0.06,10.12,0.41"/><path d="M37.75,10.9c0.86,0.86,1.26,1.67,1.4,2.34c1.33,6.27,2.47,12.23,2.85,14.51"/><path d="M69.43,9c0.16,0.89,0.36,1.79,0.19,2.88c-1.03,6.4-1.74,9.1-2.86,15.12"/><path d="M36.57,30.5c0.21,1.25-0.31,2.63-0.99,3.7c-4.34,6.82-9.83,12.59-19.77,20.89"/><path d="M32.18,41.74c0.92,0.92,1.25,2.01,1.25,3.88c0,5.22-0.01,18.85-0.02,27.88c0,2.87,0,5.28,0,6.8"/><path d="M59.98,27.47c0.07,0.69-0.02,1.59-0.25,2.18c-1.17,2.98-2.59,5.42-4.82,8.58"/><path d="M33.93,42.36c7.22-0.58,29.72-1.86,40.96-2.59c3.07-0.2,5.3-0.35,6.14-0.44"/><path d="M54.73,43.64c0.82,0.82,0.8,1.86,0.8,3.23c0,5.06,0.03,21.76,0.03,27.53"/><path d="M34.4,52.95c6.6-0.4,26.62-1.38,37.35-1.95c3.32-0.18,5.75-0.31,6.62-0.38"/><path d="M34.1,64.42c6.92-0.39,26.81-1.36,37.79-1.94c3.54-0.18,6.15-0.33,7.11-0.4"/><path d="M34.6,76.08c7.82-0.25,31.41-0.89,44.65-1.37c4.58-0.17,7.92-0.31,8.94-0.42"/><path d="M24.55,84.99c0,4.71-6.63,11.42-8.05,12.76"/><path d="M38.75,83.84c1.98,2.73,3.86,10.25,4.36,14.51"/><path d="M58.98,82.92c2.55,2.49,6.6,10.24,7.24,14.11"/><path d="M78.15,81.22c3.94,2.79,10.17,11.47,11.16,15.81"/></svg>