<svg><path d="M19,22.27c1.87,0.53,4.05,0.63,5.93,0.53c17.22-0.96,38.92-3.46,58.77-3.53c3.12-0.01,5,0.25,6.56,0.51"/><path d="M37.5,11.57c1.5,1.23,1.98,1.6,2.14,2.36C41.14,21,40.57,26.43,41,29"/><path d="M68.21,11.75c0.92,0.82,0.92,2.04,0.72,3.26c-0.69,4.24-1.53,8.79-2.86,13.49"/><path d="M52.37,26c0.88,0.41,1.42,1.83,1.59,2.64c0.18,0.81,0.5,14.19,0.32,19.27"/><path d="M54.42,35.91c6.35-0.46,15.95-1.37,22.19-1.83c1.55-0.11,1.94-0.15,2.91,0"/><path d="M34.49,32.4c0.89,0.41,1.42,1.83,1.59,2.64c0.18,0.81,0,8.8-0.18,13.88"/><path d="M21.37,49.76c0.69,0.17,2.55,0.56,4.39,0.5c9.96-0.33,43.32-3.32,55.99-3.32c1.85,0,5.07,0.33,6.12,0.5"/><path d="M31.83,57.25c0.95,0.44,1.52,1.97,1.71,2.84c0.19,0.87,0.5,23.99,0.31,29.46"/><path d="M34.46,71.07c4.04-0.53,10.15-1.58,14.12-2.11c0.99-0.13,1.24-0.18,1.85,0"/><path d="m18.589737,67.546387c0.95,0.434005,1.51,1.96246,1.7,2.839905,0.19,0.877446,0,18.303709-0.19,23.766517"/><path d="m11.223238,97.716308c0.559878,0.05183,2.057357,0.13064,3.502528,-0.213818,7.765102,-1.838527,22.267146,-6.978851,32.189526,-8.928364,1.452469,-0.285376,4.00664,-0.474341,4.853659,-0.479279"/><path d="M70.28,53.25c0.97,0.48,1.56,2.14,1.75,3.1c0.19,0.95,0,32.35-0.19,38.31"/><path d="M72.54,72.21c4.63-0.52,11.63-1.56,16.17-2.08c1.13-0.13,1.42-0.17,2.12,0"/><path d="M57.45,67.21c0.95,0.46,1.51,2.08,1.7,3.01c0.19,0.93,0,19.4-0.19,25.19"/><path d="M46,96.33c0.64,0.16,2.36,0.53,4.08,0.47c9.24-0.31,26.74-2.58,38.49-2.58c1.72,0,4.7,0.31,5.68,0.47"/></svg>