<svg><path d="M17.5,21.2c1.75,0.71,3.78,0.85,5.53,0.71c16.07-1.3,43.07-4.67,61.6-4.77c2.91-0.02,4.66,0.34,6.12,0.69"/><path d="M37,9.25c1.17,1.25,1.54,1.63,1.67,2.4c1.17,7.19,1.5,13.74,1.83,16.35"/><path d="M66.2,9.25c0.87,0.77,1.44,1.94,1.16,3.08c-0.87,3.47-1.44,9.24-2.7,13.67"/><path d="M15.86,43.64c1.16,0.53,2.47,0.52,3.81,0.53c7.83,0.08,17.69-1.02,28.31-2.05c1.32-0.13,2.47,0.09,3.15,0.47"/><path d="M15.62,53.9c0.74,0.61,1.55,1.61,1.74,2.72c0.24,1.46,2.38,12.13,2.38,13.98"/><path d="M17.27,55.08c5.93-0.28,28.74-3.69,29.79-3.9c2.25-0.45,3.04-0.05,2.89,2.18c-0.2,2.83-0.37,8.17-1.72,11.33c-2.26,5.27-2.39,2.84-4.07,0.9"/><path d="M31.64,31.79c0.82,0.43,1.31,1.93,1.48,2.79c0.16,0.86,0,59.82-0.16,65.18"/><path d="M32.95,67.73c-3.94,8.12-14.5,20.52-22.7,25.12"/><path d="M35.23,71.81c5.07,2.4,8.87,6.19,11.72,11.58"/><path d="M56.8,41.39c1.09,0.49,2.33,0.57,3.6,0.49c9.36-0.63,20-2.44,30.04-3.38c1.25-0.12,2.34,0.08,2.98,0.43"/><path d="M56.62,51.37c0.45,0.62,1.36,1.61,1.52,2.72c0.21,1.46,2.02,12.12,2.02,13.97"/><path d="M57.72,52.83C65,52,87.53,49.15,88.41,48.91c1.89-0.5,4.03,0.37,3.9,2.86c-0.17,3.17-1.15,7.47-2.29,11c-1.9,5.89-3.96,2.32-5.38,0.14"/><path d="M72.36,29c1.22,0.43,1.95,1.93,2.2,2.79s0,62.39-0.24,67.75"/><path d="M74.48,63.3c-4.92,9.4-18.11,23.77-28.35,29.08"/><path d="M74.79,64.8c2.77,3.45,15.78,20.78,18.79,24.18c1.02,1.15,1.89,1.65,2.91,1.97"/></svg>