<svg><path d="M21.25,20.27c2.98,0.68,5.93,0.43,8.98,0.11c13.08-1.39,35.19-3.12,48.9-3.7c3.56-0.15,7.11,0.05,10.62,0.6"/><path d="M39.25,10.5c0.94,0.94,1.31,1.87,1.5,2.75C42.5,21.5,43,24,43.5,27"/><path d="M68.04,8.75c0.59,1.25,0.53,2.61,0.26,3.86c-0.92,4.27-1.67,6.64-2.69,10.89"/><path d="M67.9,25.73c-0.28,1.15-1.18,1.81-2.71,2.3c-6.07,1.97-17.67,4.59-33.7,5.92"/><path d="M21.51,42.88c3.42,0.43,6.84,0.4,10.26-0.08c13.53-1.55,30.61-3.43,45.11-4.17c3.79-0.32,7.58,0.03,11.35,0.53"/><path d="M51.2,33.8c0.09,1.26-0.49,2.31-1.24,3.15c-9.24,11.33-16.58,17.68-31.38,26.62"/><path d="M62.5,41.25c5.32,3.3,14.09,9.43,21.18,13.39c3.32,1.86,5.44,2.98,8.49,3.97"/><path d="M39.65,50.84c0.76,0.82,1.23,1.75,1.42,2.79c0.56,2.46,0.94,4.61,1.31,6.87c0.2,1.23,0.39,2.5,0.6,3.87"/><path d="M41.74,51.46c7.51-0.83,13.63-1.46,19.28-2.3c4.91-0.74,5.52,0.43,4.6,3.06c-0.71,2.01-1.23,3.74-2,7.08"/><path d="M43.99,62.28c4.29-0.43,10.85-1.2,17.13-1.87c1.41-0.15,2.81-0.3,4.17-0.44"/><path d="M27.62,69.68c0.79,0.79,0.92,1.79,1,2.73c0.28,3.29,0.96,14.44,1.44,21.97c0.17,2.67,0.31,4.88,0.4,6.12"/><path d="M29.25,71.17c9.12-0.92,42.5-3.55,49.6-4.1c4.09-0.32,5.22,1.19,4.89,4.86c-0.22,2.5-1.56,16.21-4.69,24.32c-1.11,2.89-4.05,4.99-7.09-0.71"/><path d="M42.07,78.35c0.79,0.79,1.05,1.52,1.33,2.55c0.57,2.1,1.05,4.87,1.58,7.54c0.21,1.05,0.43,2.08,0.66,3.04"/><path d="M44.17,79.31c7.7-0.93,13.9-1.71,17.83-2.38c2.46-0.42,3.32,0.76,2.9,2.49c-0.41,1.71-0.91,3.46-2.33,7.42"/><path d="M46.42,89.56c3.66-0.55,9.15-1.13,14.2-1.64c1.34-0.14,2.65-0.27,3.89-0.39"/></svg>