<svg><path d="M17,21.72c1.77,0.63,3.83,0.76,5.61,0.63c16.29-1.16,43.66-3.56,62.44-3.64c2.95-0.01,4.73,0.3,6.2,0.62"/><path d="M38.35,11.5c1.39,1.13,1.83,1.48,1.98,2.17c1.38,6.52,1.78,12.45,2.17,14.83"/><path d="M67.21,10.25c0.89,0.79,1.31,1.97,1.19,3.17C68,17.5,67.25,22,66.62,27.5"/><path d="M37.56,30.75c0.06,0.49,0.27,1.44-0.12,1.97c-4.94,6.75-9.95,11.52-21.94,18.83"/><path d="M19.5,32.25c26.67,19.76,16.48,71.49,5.43,60.54"/><path d="M32.09,51.75c0.04,0.67,0.21,1.95-0.09,2.68c-3.88,9.19-7.82,15.68-17.24,25.62"/><path d="M55.9,30.96c0.04,0.37,0.21,1.02-0.07,1.49c-2.08,3.55-6.08,8.8-12.56,14.27"/><path d="M70.15,28.48c2.21,0.41,12.99,11.5,20.67,16.05c1.2,0.71,2.07,1.18,3.18,1.42"/><path d="M50.84,45.93c0.98,0.44,2.77,0.48,3.76,0.44C63.5,46,70.25,45,77.73,43.85c1.61-0.25,2.62,0.21,3.43,0.43"/><path d="M47.71,55.33c0.5,0.58,0.68,1.99,0.68,2.77c0,0.78,0.17,39.53,0.17,39.92"/><path d="M49.22,57.37c2.81-0.1,30.79-3.11,33.35-3.22c2.13-0.1,3.65,0.93,3.65,3.14c0,1.23-0.3,31.85-0.29,40.41"/><path d="M59.48,48.74c0.48,0.7,0.32,1.66,0.33,2.62c0.06,9.43-0.32,17.25-4.86,21.41"/><path d="M69.37,46.84c0.59,0.89,1.05,1.93,1.09,3.3c0.11,4.34-0.26,10.19-0.31,15.55c-0.04,4.66,1.65,5.23,7.22,5.23c3.54,0,7.06-0.58,7.46-1.1"/><path d="M48.96,82.68c3.8,0,32.36-2.72,36.66-2.72"/><path d="M49.16,95.48c7.73-0.44,26.43-1.63,36.06-2.01"/></svg>