<svg><path d="M18.5,19.5c1.71,0.7,3.7,0.83,5.42,0.7c15.74-1.27,42.69-2.76,60.84-2.85c2.85-0.02,4.57,0.33,5.99,0.68"/><path d="M36.25,11c1.75,1.43,2.31,1.87,2.5,2.75C40.5,22,40.5,24.5,41,27.5"/><path d="M67.7,9.75c0.84,0.77,0.9,1.94,0.62,3.08C67.48,16.3,66.92,21.57,65.7,26"/><path d="M32.11,32.65c1.01,0.28,2.87,0.31,3.89,0.28c10.74-0.31,21.3-1.6,34.42-1.85c1.69-0.03,2.7,0.13,3.55,0.27"/><path d="M52.93,23.62c0.09,0.2,1.31,1.06,1.31,2.35c0,1.45-0.12,8.17-0.12,14.2"/><path d="M24.91,41.66c1.46,0.49,4.13,0.6,5.58,0.49c18.03-1.37,31.75-2.01,47.87-2.65c2.43-0.1,3.89,0.23,5.1,0.48"/><path d="M17.94,55.54c0.75,0.33,2.22,0.35,2.97,0.31c4.96-0.22,20.12-1.2,25.43-1.73c1.24-0.12,2.6-0.16,3.22,0.01"/><path d="M32.68,47.48c1.08,0.43,1.94,1.93,1.94,2.82c0,6.28,0.03,4.12,0.03,13.43"/><path d="M16.93,67.71c0.76,0.49,2.29,1.18,4.58,0.54c6.36-1.79,17.81-4.55,24.17-6.33"/><path d="M56.51,52.15c0.82,0.28,2.33,0.29,3.15,0.28c7.64-0.09,18.3-1.39,25.78-1.48c1.37-0.02,2.19,0.13,2.88,0.27"/><path d="M70.82,43.92c0.1,0.2,1.4,1.06,1.4,2.35c0,1.45-0.29,9.47-0.29,15.5"/><path d="M55.85,63.09c0.95,0.26,3.2,0.32,4.16,0.26c8.52-0.47,19.59-0.83,28.15-1.19c1.59-0.07,2.55,0.13,3.34,0.26"/><path d="M23.91,75.52c1.72,0.44,4.86,0.57,6.58,0.44C44,75,64.25,73.25,80.27,72.75c2.86-0.09,4.58,0.21,6.01,0.43"/><path d="M42.22,77.95c0.07,0.56,0.03,1.42-0.13,2.24c-1.33,6.55-7.33,19.3-23.6,21.47"/><path d="M58.71,75.57c0.71,0.99,1.31,2.16,1.31,3.69c0,2.04-0.03,5.11-0.03,9.75c0,8.12,3.26,9.6,15.88,9.6c12.62,0,14.66-1.9,14.66-8.43"/></svg>