<svg><path d="M19.5,22.69c3.25,0.56,5.85,0.65,8.63,0.38c13.87-1.32,38.1-2.89,52.13-3.27c3.25-0.09,6.23-0.07,9.41,0.6"/><path d="M37.69,12.2c0.93,0.93,1.38,2.09,1.49,2.86c1.2,8.56,1.45,10.06,2.23,15.19"/><path d="M68.74,10.42c0.43,1.02,0.55,1.98,0.25,3.3c-1.03,4.65-2.07,9.59-3.58,15"/><path d="M20.25,38.62c0.9,0.89,1.06,1.8,1.35,2.98c0.72,2.97,1.48,7.52,2.07,11.53c0.18,1.22,0.34,2.38,0.49,3.44"/><path d="M21.97,40.14c7.73-1.44,15.1-2.27,19.8-3c3.23-0.51,4.48,1.49,3.84,4.27c-0.79,3.45-1.55,6.9-2.7,10.97"/><path d="M25.34,55.38c4.28-0.38,9.21-0.98,14.76-1.58c1.45-0.16,2.94-0.31,4.48-0.47"/><path d="M32.87,57.29c0.86,0.86,0.96,2.09,0.96,3.64c0,5.19,0.03,22.44,0.03,29.27"/><path d="M35.26,69.7c3.15-0.63,5.37-1.33,8.94-2.17c1.59-0.38,2.79-0.32,3.8,0"/><path d="M20.87,66.89c0.93,0.93,1.15,2.23,1.21,3.14c0.42,6.21,1.17,17.96,1.78,25.67"/><path d="M18.25,97.3c1,0.7,2.29,0.88,3.07,0.47c9.43-4.9,14.43-7.52,23.93-12.72"/><path d="M62,33.98c0.08,1.15,0.01,2.09-0.37,3.19c-2,5.71-5.5,13.33-13.76,21.59"/><path d="M63.39,40.95c1.85,0.19,3.09-0.1,4.9-0.52c3.96-0.93,5.92-1.58,8.73-2.19c2.86-0.62,3.52,1.29,2.45,3.49C75.1,50.7,64,66,45.19,75.17"/><path d="M58.24,48.36c2.86,1,17.93,13.48,26.29,19.67c2.58,1.91,5.12,3.3,7.97,4.72"/><path d="M53.12,76.75c0.81,0.81,1.45,2.06,1.68,3.36c0.79,4.63,1.55,9.04,2.27,13.75c0.25,1.67,0.51,3.37,0.75,5.13"/><path d="M54.98,78.34c7.76-1.09,19.64-2.43,24.9-3.05c2.93-0.34,3.94,0.42,3.39,3.37c-0.81,4.29-1.74,9.88-2.9,15.27"/><path d="M58.23,96.57c4.98-0.37,12.86-1.03,20.01-1.41c1.49-0.08,2.95-0.15,4.35-0.2"/></svg>