<svg><path d="M21,24.17c1.22,0.5,2.64,0.59,3.86,0.5c11.21-0.91,44.19-4.2,57.12-4.27c2.03-0.01,3.25,0.24,4.27,0.48"/><path d="M35.75,13c1.75,1.43,2.31,1.87,2.5,2.75C40,24,40,29.5,40.5,32.5"/><path d="M66.25,10.75c1.12,1,1.87,2.52,1.5,4c-1.12,4.5-2.38,9.5-4,15.25"/><path d="M23.3,39.7c1.46,0.42,4.15,0.49,5.62,0.42c15.25-0.71,35.92-4.03,50.7-4.59c2.44-0.09,3.91,0.2,5.13,0.42"/><path d="M26.55,40.31c0.48,1.17,0.49,1.49,0.41,3.41c-0.65,15.37-2.34,39.82-12.66,52.9"/><path d="M32.69,45.74c2.31,1.39,5.98,5.7,6.56,7.85"/><path d="M51.97,43.02c0.02,0.29,0.04,0.75-0.04,1.16c-0.53,2.44-3.59,7.81-7.78,11.09"/><path d="M29.23,57.38c0.79,0.24,2.25,0.26,3.04,0.24c6.46-0.17,17.32-2.44,22.22-2.16c1.32,0.08,2.12,0.12,2.78,0.24"/><path d="M31.94,64.84c0.64,0.33,1.36,1.71,1.28,2.38c-0.49,3.92-2.14,6.25-2.29,10c-0.06,1.5-0.29,2.38,1.27,2.01c8.63-2.07,11.85-2.28,20.99-3.46"/><path d="M53.17,62.75c0.64,0.28,1.36,2.11,1.28,2.67c-0.71,5.16-0.45,7.81-1.52,13.09"/><path d="M41.99,60.25c0.6,1.04,0.92,2.31,0.92,3.61c0,13.57,0.01,26-16.9,34.98"/><path d="M68.6,41.91c0.03,0.55,0.05,1.42-0.05,2.21c-0.6,4.66-4.03,14.88-8.73,21.14"/><path d="M68.36,54.73c0.73,0.28,2.12,0.73,3.23,0.48c1.35-0.3,13.65-2.84,14.93-2.86c4.42-0.05,1.2,3.08-2.71,6.8"/><path d="M67.57,61.11c0.87,0.77,1.35,1.84,1.22,3.1C67.5,76.25,64,90.5,48.45,98.75"/><path d="M67.22,74.49c3.69,4.41,16.62,17.66,23.25,22.37c1.4,1,2.46,1.59,3.78,1.9"/></svg>