<svg><path d="M22,22.27c1.29,0.53,2.8,0.63,4.1,0.53c11.9-0.96,43.4-3.96,57.12-4.03c2.16-0.01,3.45,0.25,4.53,0.51"/><path d="M38.75,11.5c1.75,1.43,2.39,1.86,2.5,2.75C42,20.25,42.5,27.5,43,30.5"/><path d="M67.72,9.5c0.98,0.87,1.63,2.21,1.31,3.49c-0.98,3.93-2.14,10.48-3.56,15.51"/><path d="M23.88,34.32c3.48,1.3,9,5.34,9.87,7.37"/><path d="M17.5,52.79c3.71,1.14,9.57,4.67,10.5,6.43"/><path d="M16.75,90.64c1.5,1.06,3.31,1.11,4.25-0.21c2.75-3.82,5.5-8.49,8-13.36"/><path d="M48.3,33.85c0.35,0.28,0.98,0.78,1.08,1.46c0.71,4.77,3.88,19.62,3.98,20.31"/><path d="M50.09,34.68c5.58-0.68,21.71-2.48,28.86-2.94c1.24-0.08,1.99,1.84,1.95,2.36c-0.54,6.43-3.36,19.35-3.36,19.87"/><path d="M51.2,44.13c2.22,0,25.53-2.66,28.04-2.66"/><path d="M53.69,54.04c4.51-0.51,17.73-1.98,23.35-2.42"/><path d="M38,62.03c1.17,0.31,3.33,0.44,4.5,0.31c11.76-1.33,38.76-3.97,48.63-4.17c1.96-0.04,3.13,0.15,4.11,0.3"/><path d="M53.66,63.53c-0.02,0.4-0.08,1.04-0.34,1.62c-1.51,3.4-9.35,10.65-17.63,15.07"/><path d="M52.69,71.01c0.73,0.42,1.82,0.58,3.11,0.34c1.3-0.23,27.05-2.95,30.22-3c3.17-0.05,3.18,1.33,2.73,4.16c-0.62,3.9-3.26,17.72-10.13,25.98c-2.08,2.5-3.2-0.46-4.83-2.15"/><path d="M57.95,74.36c-0.01,0.34-0.02,1.66-0.28,2.14c-2.55,4.67-8.61,10.31-16.52,13.99"/><path d="M73.91,72.56c-0.03,0.74-0.12,1.91-0.67,2.95c-3.22,6.19-12.74,16.24-27.7,24.28"/></svg>