<svg><path d="M18,20.27c1.9,0.53,4.11,0.63,6.01,0.53c17.46-0.96,40.46-2.46,60.59-2.53c3.17-0.01,5.07,0.25,6.65,0.51"/><path d="M38.75,10.6c1.42,1.16,1.87,1.51,2.02,2.23c1.42,6.68,1.32,13.25,1.73,15.68"/><path d="M65.71,9.75c0.89,0.79,0.98,2,0.69,3.17c-0.89,3.57-1.49,9.52-2.78,14.08"/><path d="M27.72,32.87c1.62,0.18,4.28,0.64,5.75,0.51c8.89-0.79,28.39-1.74,41.86-2.48c2.06-0.11,3.77-0.15,5.67,0.1"/><path d="M20.86,40.51c-0.32,5.41-3.09,11.4-5.14,16.86"/><path d="M21.65,43.47c21.05-2.14,49.15-3.99,65.26-3.99c8.34,0,3.01,4.92-1.31,8.7"/><path d="M52.28,34.37c1.28,0.65,1.83,2.26,1.83,2.78c0,0.52-0.29,23.9-0.29,25.34"/><path d="M33.51,46.76c3.04,0.76,7.18,3.04,8.84,4.3"/><path d="M30.75,55.12c3.02,0.76,7.7,3.54,9.35,4.8"/><path d="M66.86,45.77c4,1.41,8.54,4.23,10.14,5.4"/><path d="M66.34,55.48c3.55,1.09,8.39,4.36,10.33,6.18"/><path d="M26.96,67.9c0.39,0.51,0.4,0.87,0.62,1.52c1.77,5.35,2.97,19.82,4.06,29.79"/><path d="M28.31,69.58c13.7-1.35,38.67-2.67,48.9-3.8c3.76-0.42,4.68,2.55,4.49,4.02c-0.71,5.39-2.41,19.85-5.62,28.6"/><path d="M52.04,68.59c0.98,0.27,1.56,1.98,1.6,3.14c0.27,7.63,0.09,19.12,0.09,23.14"/><path d="M30.38,82.94c4.46-0.52,45.61-2.44,49.29-2.65"/><path d="M31.86,97.27c9.87-0.57,29.36-1.4,44.72-1.98"/></svg>