<svg><path d="M20,21.49c1.69,0.69,3.65,0.82,5.35,0.69c15.52-1.25,42.6-2.71,60.5-2.8c2.81-0.02,4.5,0.33,5.91,0.67"/><path d="M40.17,11.25c1.45,1.18,1.91,1.54,2.06,2.27c1.44,6.81,1.86,13,2.27,15.48"/><path d="M69.22,10c0.98,0.87,1.13,2.21,0.81,3.49c-0.98,3.93-2.14,9.98-3.56,15.01"/><path d="M30.99,29.25c0.05,0.5,0.17,1.33-0.09,2.02c-1.73,4.57-7.35,13.62-15.92,19.35"/><path d="M29.33,36.93c1.61,0,13.56-2.04,15.26-2.28c1.45-0.21,2.34,1.35,1.68,2.35C44.25,40,41,44.25,39.24,49"/><path d="M22.22,50.26c0.24,0.43,0.77,2.16,0.9,2.71c1.07,4.5,2.69,14.82,3.35,23.21"/><path d="M23.33,51.34c8.3-1.13,21.46-3.38,27.72-3.53c2.7-0.06,3.95,0.94,3.82,3.12c-0.25,4.55-1.88,14.46-3.7,22.95"/><path d="M37.22,50.58c0.94,0.56,1.66,2.39,1.69,3.84c0.12,6.41,0.03,15.49,0.03,18.67"/><path d="M24.88,62.47c2.7-0.44,26.46-2.23,28.69-2.41"/><path d="M26.37,74.06c5.98-0.48,16.94-1.52,25.2-2.31"/><path d="M20.94,84.32c0,4.95-4.02,12.27-5.07,13.68"/><path d="M30.6,83.33c1.56,2.32,3.04,8.69,3.44,12.29"/><path d="M41.98,81.44c1.54,1.98,3.97,8.14,4.36,11.21"/><path d="M53.3,79.87c1.83,1.9,4.74,7.82,5.2,10.78"/><path d="M69.27,38.58c0.85,0.76,1.52,1.64,1.52,4.14c0,15.28-0.52,29.96-0.52,34.05"/><path d="M86.96,30.33c0.88,0.78,1.5,1.7,1.57,4.3c0.36,12.46-0.23,54.49-0.23,58.73c0,11.25-6.46,1.28-7.8,0.21"/></svg>