<svg><path d="M21,23.49c1.59,0.65,3.43,0.77,5.02,0.65c14.59-1.18,40.1-3.13,56.92-3.22c2.65-0.01,4.23,0.31,5.55,0.63"/><path d="M37.75,13c1.75,1.3,2.31,1.69,2.5,2.49C42,22.98,42.5,29.78,43,32.5"/><path d="M66.75,9.75c1.12,1,1.87,2.52,1.5,4c-1.12,4.5-2.88,11.5-4.5,17.25"/><path d="M26.33,38.65c0.99,0.39,4.24,0.52,5.24,0.4c4.68-0.53,39.33-2.59,47.19-3c1.54-0.08,2.93,0.08,4.2,0.41"/><path d="M52.29,27.5c1.89,1.68,1.89,2.68,1.89,4.03c0,9.4-0.06,12.56-0.06,28.66"/><path d="M37.82,42.82c0.14,0.38,0.1,1.2-0.09,1.62c-1.88,4.1-4.84,9.44-10.64,13.36"/><path d="M36.37,49.08c2.83,1.35,6.44,4.93,7.82,8.33"/><path d="M70.74,40.19c0.14,0.39,0.11,1.24-0.09,1.68c-1.91,4.25-4.91,9.78-10.78,13.84"/><path d="M70.84,47.51c3.2,1.31,7.27,4.79,8.83,8.09"/><path d="M15.87,63.34c0.89,0.21,4.08,0.42,5.59,0.33c16.28-1.01,49.53-3.92,64.35-4.22c2.43-0.05,5.34,0.34,6.56,0.67"/><path d="M28.13,71.08c0.81,0.66,0.93,1.37,1.1,2.21c1.13,5.67,3.83,14.38,5.49,25.47"/><path d="M30.29,72.62c13.83-1.15,38.87-3.47,47.53-3.39c2.93,0.02,4.32,1.79,4.01,3.9c-1.08,7.38-3.01,16.72-5.16,25.1"/><path d="M42.81,78.76c0.32,0.21,0.64,0.38,0.78,0.64c1.1,2.05,2.12,7.1,3.06,10.78"/><path d="M44.78,79.62c6.48-1.07,15.46-2.32,19.17-2.59c1.36-0.1,2.17,0.58,1.98,1.16c-0.8,2.39-1.29,5.71-2.48,9.02"/><path d="M46.83,88.73c4.69-0.53,11.98-0.75,17.96-1.22"/><path d="M35.14,96.78c9.88-0.26,29.59-1.08,41.77-1.78"/></svg>