<svg><path d="M18.5,21.37c1.37,0.56,2.96,0.67,4.34,0.56c10.49-0.85,47.49-3.71,64.12-3.8c2.28-0.01,3.65,0.26,4.79,0.54"/><path d="M39.67,10.75c1.45,1.18,1.91,1.54,2.06,2.27c1.44,6.81,1.86,13,2.27,15.48"/><path d="M66.75,10.25c1.12,1,1.37,2.52,1,4c-1.12,4.5-2.38,8-4,13.75"/><path d="M22,37.23c1.9,1.17,4.77,4.49,5.25,6.31"/><path d="M48.31,34.9c0.01,0.16,0.03,0.42-0.03,0.66c-0.35,1.39-2.32,4.43-5.03,6.29"/><path d="M17.25,50.61c2.25,0,3.02-0.07,4.67,0c4.54,0.19,21.83-3.41,26.99-3.41c1.65,0,2.06-0.19,3.09,0"/><path d="M35.49,33.75c0.86,0.44,1.38,2,1.55,2.89c0.17,0.89,0,24.98-0.17,30.54"/><path d="M36,49.22c-3.6,7.39-11.4,14.07-19.5,18.6"/><path d="M39.25,53.61c3.42,1.34,8.56,5.09,11,8.84"/><path d="M31.25,68.52c0.38,0.67,0.62,1.78,0.38,2.74c-1.13,4.5-2.88,8.25-6.75,15.2c-0.7,1.26,0.37,1.66,0.88,1.7c7.4,0.56,17,4.56,20.75,9.01"/><path d="M44.39,73.66c0.61,0.84-0.02,2.77-0.3,3.64C41.82,84.4,35.26,94.47,19,99.75"/><path d="M14.25,78.78C15,79.4,15.5,80.04,17.5,79.9c2.15-0.16,25.84-3.88,34.75-5.45"/><path d="M68,34.03c0.04,0.81,0.14,2.1-0.08,3.23c-1.42,7.45-5.87,18.42-13.17,28.24"/><path d="M66.92,47.96c0.54,0.36,1.54,0.4,2.09,0.36c5.67-0.41,15.74-3.07,20.99-3.7c0.97-0.12,1.57-0.02,1.82,0.07"/><path d="M81.98,49.72c0.45,1.17,0.69,2.01,0.22,4.16c-4.25,19.48-12.45,33.87-27.94,43.65"/><path d="M61.25,56.9c6.24,6.64,21.57,28.35,30.86,35.82c1.79,1.44,2.93,1.68,4.39,1.83"/></svg>