<svg><path d="M23,21.27c1.54,0.53,3.33,0.63,4.88,0.53c14.17-0.96,37.39-2.96,53.72-3.03c2.57-0.01,4.11,0.25,5.4,0.51"/><path d="M38.34,12.5c1.22,1,1.61,1.3,1.74,1.92C41.3,20.17,41.65,24.91,42,27"/><path d="M65.71,10c0.88,0.78,1.46,1.97,1.17,3.13c-0.88,3.52-2.46,7.88-3.74,12.37"/><path d="M27.99,31.98c0.28,0.23,0.57,0.42,0.69,0.7c0.97,2.26,3.63,8.5,4.3,12.56"/><path d="M29.73,33.02c6.17-0.89,47.34-3.24,50.62-3.53c1.2-0.11,2.82,0.77,2.5,2.04c-0.67,2.65-2.32,7.21-4.1,10.99"/><path d="M46.82,31.75c0.19,1.51,0.51,8.85,0.69,10.55"/><path d="M64.02,30.81c-0.19,2.45-1.13,8.85-1.51,10.36"/><path d="M33.86,43.52c3.85-0.34,40.05-2.42,45.33-2.94"/><path d="M21.24,49.89c0,3.25-2.84,12.2-4.13,14.36"/><path d="M22.95,52.92c8.89-0.92,56.32-4.23,63.53-4.58c11.27-0.55,2.39,6.7-0.42,8.67"/><path d="M28.62,62.13c1.42,0.31,4.04,0.94,5.44,0.81C44.5,62,61,60,72.55,59.35c2.36-0.13,3.79,0.15,4.97,0.3"/><path d="M38.72,66.02c0.22,0.3-0.17,1.8-0.57,2.3C35,72.25,27.5,79.25,18.04,83.78"/><path d="M36.87,73.39c0.23,0.02,2.19,0,2.84-0.06c2.13-0.2,7.91-0.32,10.74-1.1c2.04-0.56,3.25,0.25,2.56,1.68c-3.13,6.43-19.51,22.59-34.81,26.1"/><path d="M29.13,80.49c2.18,1.26,5.64,5.17,6.19,7.13"/><path d="M83.32,68.9c0.14,0.21,0.13,0.8-0.13,1.17c-2.15,3.07-9.43,8.03-17.68,10.2"/><path d="M60.17,63.22c1.08,1.28,1.76,2.34,1.76,3.09c0,0.7,0.21,22.39,0.21,24.54c0,6.14,1.37,7.16,15.29,7.16c11.83,0,13.6-1.27,13.6-8.22"/></svg>