<svg><path d="M16.25,22.52c3.25,0.69,6.61,0.33,9.88,0.05c13.04-1.08,36.66-3.21,50.99-3.86c3.83-0.17,7.75-0.22,11.62,0.56"/><path d="M35.25,12c1.4,1.18,1.85,1.54,2,2.26c1.4,6.78,2.6,13.77,3,16.24"/><path d="M68.33,10c0.3,0.92,0.68,1.61,0.35,2.74c-1.94,6.66-2.82,9.99-4.93,16.26"/><path d="M50.11,27.75c0.17,0.32,0.19,0.71,0.15,0.98c-0.2,1.39-1.69,4.42-3.27,6.64"/><path d="M38.5,38.34c0.95,0.95,1.67,2.17,1.79,2.97c0.37,2.65,1.08,9.74,1.73,15.06c0.16,1.33,0.32,2.55,0.46,3.56"/><path d="M40.52,39.27c3.48-0.65,13.68-2.36,19.08-3.22c2.64-0.42,5.39,0.7,5.22,3.82c-0.2,3.48-0.39,9.83-0.54,14.88c-0.04,1.48-0.09,2.84-0.12,3.99"/><path d="M42.16,48.45c4.96-0.57,15.96-1.95,21.41-2.4"/><path d="M43.63,58.07c6.37-0.57,12.12-1.45,19.35-1.85"/><path d="M19.75,38c3.71,1.34,9.57,5.49,10.5,7.57"/><path d="M16.42,62.85c1.29,0.64,3.03,0.63,3.88,0c1.96-1.47,8.45-5.67,11.81-8.35"/><path d="M82.95,31.45c0.03,0.25,0.06,0.64-0.05,0.99c-0.65,2.09-4.4,6.69-9.52,9.5"/><path d="M73.75,50.4c5.5,2.23,11,5.85,13.25,9.21"/><path d="M16.78,74.82c3.45,0.7,6.99,0.49,10.47,0.22c15-1.17,37.13-4.04,54.5-5c3.72-0.21,6.8-0.07,10.45,0.38"/><path d="M53.2,63.13c0.83,0.83,1.36,2.24,1.36,3.51c0,0.4,0,20.12-0.09,29.23c-0.02,2.21-0.05,3.81-0.09,4.38"/><path d="M51.75,73.13c0,1.12-0.87,2.26-1.91,3.33C42.56,83.99,28.49,92.98,18,96.83"/><path d="M56.01,74.23c4.15,2.44,20.41,12.71,28.22,17.31c2.61,1.54,5.1,2.9,8.14,3.36"/></svg>