<svg><path d="M21.01,23.51c3.12,0.74,5.64,0.45,8.25,0.17c13.46-1.49,37.16-3.31,50.62-3.68c2.95-0.08,5.97-0.04,8.86,0.67"/><path d="M38.14,13.66c0.86,0.72,1.4,1.59,1.53,2.68c0.84,6.91,1.42,11.02,1.79,13.16"/><path d="M68.75,11c0.5,1,0.4,2.27,0.21,3.17c-1.12,5.27-1.63,7.16-2.86,12.12"/><path d="M60.95,27.17c-0.32,0.83-1.07,1.21-2.18,1.86c-3.48,2.05-11.38,4.83-24.39,7.31"/><path d="M17.19,42.17c3.31,0.83,7.04,0.8,9.92,0.37C40.5,40.5,66.5,37.5,83.13,36.72c3.11-0.15,6.4-0.14,9.43,0.61"/><path d="M30.53,48.22c0.81,0.81,1.22,1.78,1.41,2.55c0.9,3.86,1.83,7.04,2.47,11.2c0.24,1.54,0.47,3.03,0.69,4.35"/><path d="M32.4,49.63c14.27-1.8,32.48-3.92,43.34-4.35c3.45-0.14,5.37,0.67,4.35,4.49c-0.63,2.38-1.49,5.3-2.58,8.63c-0.41,1.25-0.82,2.49-1.19,3.66"/><path d="M34.31,56.23c9.94-0.98,35.06-3.35,44.07-3.54"/><path d="M35.93,64.23c14.32-1.73,27.14-3.07,39.88-3.59"/><path d="M53.35,34.63c1.07,1.08,1.31,2.5,1.31,4.04c0,0.74-0.03,35-0.03,39.83"/><path d="M35.77,70.9c2.36,0.48,4.55,0.31,6.48,0.1c8.06-0.87,19.06-1.96,26.88-2.54c1.92-0.14,4.09-0.38,5.97,0.04"/><path d="M25.46,80.87c3.17,0.5,6.2,0.5,9.05,0.21c14-1.45,32.2-2.72,45.87-3.35c2.78-0.13,5.5-0.26,8.24,0.32"/><path d="M23.9,87.67c-1.02,4.83-3.65,8.58-6.4,11.58"/><path d="M40.12,86.6c2.43,2.11,4.74,7.91,5.35,11.19"/><path d="M61.26,85.83c2.56,2.03,6.61,8.35,7.25,11.51"/><path d="M82.09,86.01c3.34,2.1,8.63,8.63,9.47,11.9"/></svg>