<svg><path d="M23.25,20.33c2.75,0.79,6.05,0.62,8.64,0.31c12.86-1.52,34.15-3.46,46.5-3.95c2.71-0.11,5.71-0.04,8.36,0.61"/><path d="M39.77,11.4c1.04,1.04,1.27,2.23,1.39,3.83c0.47,6.27,0.87,9.4,1.09,11.31"/><path d="M67.79,9.21c0.58,1.17,0.62,2.14,0.44,3.13c-1.06,5.77-1.79,7.41-2.94,12.85"/><path d="M53.72,23.97c1.15,1.15,1.45,1.9,1.45,4.08c0,0.72-0.04,1.55-0.04,2.57"/><path d="M24.34,33.43c2.78,0.69,5.89,0.64,8.66,0.33c14.87-1.64,30.25-3.44,47.25-3.87c2.74-0.07,5.43-0.11,8.13,0.46"/><path d="M27.88,34.5c1.06,1.06,1.26,2.38,1.11,4.46C28,53,26.25,81.75,11.56,95.38"/><path d="M34.19,44.14c1.95,0.61,3.59,0.69,5.62,0.52c15.43-1.29,35.48-2.85,39.4-3.11c2.93-0.19,3.97,0.9,3.44,3.09c-0.98,4.04-1.4,4.98-2.07,7.52"/><path d="M46.33,37.92c0.88,0.88,1.17,2.08,1.29,3.12c0.09,0.82,0.66,7.24,1.14,12.84"/><path d="M64.19,35.78c0.68,0.85,0.93,1.85,0.79,3.12c-0.4,3.6-0.93,8.18-1.66,13.78"/><path d="M32.94,55.72c2.81,0.53,5.03,0.21,7.31-0.01c8.52-0.83,26.78-2.15,35.63-2.54c2.31-0.1,4.62-0.17,7,0.02"/><path d="M46.25,65.39c0.94,0.38,2.66,0.2,3.6,0.13c6.72-0.46,17.56-1.86,25.16-2.78c2.19-0.26,4.08-0.5,6.24,0.02"/><path d="M43.9,59.86c0.47,1.14,0.22,2.26-0.51,4.25c-0.52,1.41-2.35,5.45-3.43,7.73c-0.9,1.88-1.35,4.02,1.65,3.65c3.92-0.48,32.74-2.86,43.65-3.69c4.04-0.3,6.39,0.52,5.15,5.08c-1.66,6.1-4.79,14.85-9.12,20.6c-3.86,5.11-5.69,0.61-7.56-1.5"/><path d="M31.88,84.12c0,3.71-3.47,9.18-4.38,10.24"/><path d="M42.73,83.1c1.77,1.79,3.45,6.73,3.89,9.52"/><path d="M55.52,81.22c1.67,1.49,4.31,6.14,4.73,8.47"/><path d="M69.17,79.95c1.73,1.18,4.46,4.85,4.89,6.69"/></svg>