<svg><path d="M18.75,22.69c3.16,1.11,7.5,0.59,10.75,0.23c15-1.67,36.01-2.8,49.74-3.3c3.61-0.13,7.36-0.21,10.92,0.54"/><path d="M38.19,12.2c0.93,0.93,1.36,1.84,1.49,2.61c1.45,8.69,1.7,10.94,2.48,14.94"/><path d="M68.17,10.67c0.36,1.01,0.34,1.98,0,3.25c-1.63,6.08-2.61,8.83-3.88,13.05"/><path d="M23.41,37.47c1.06,1.06,1.08,1.91,1.08,3.65c0,6.25-0.04,25.25-0.12,27.32"/><path d="M24.81,37.94c3.77-0.12,13.35-1.73,20.32-2.36c1.66-0.15,3.69-0.55,5.35-0.21"/><path d="M36.53,38.06c0.58,0.58,0.93,1.19,0.93,2.36c0,2.01-0.08,2.21-0.08,5.08"/><path d="M25.99,47.81c6.66-0.68,13.73-1.82,18.64-2.36c2.62-0.29,3.42,0.23,2.8,2.79c-0.46,1.93-1.03,3.79-1.44,5.65"/><path d="M25.77,56.86c2.17-0.21,11.15-0.98,17.49-1.57c1.9-0.18,3.24-0.3,4.76-0.16"/><path d="M36.84,56.83c0.67,0.67,0.68,1.29,0.68,2.52c0,2.25-0.01,2.6-0.01,5.02"/><path d="M25.56,66.73c4.84-0.46,13.93-1.59,20.81-2.16c1.4-0.12,3.02-0.44,4.41-0.15"/><path d="M67.27,32.75c0.1,1.43-0.09,1.97-0.79,3.31c-2.41,4.61-6.35,11.02-11.73,16.83"/><path d="M65,43.57c2.12,0.43,3.74,0.22,5.13,0.13c4.21-0.26,8.93-1.28,12.78-2.01c2.04-0.38,3.83-0.44,5.83,0.04"/><path d="M61,58.52c1.88,0.61,4,0.57,5.88,0.37c4.22-0.46,8.26-0.99,13.71-1.47c1.37-0.25,2.65-0.32,3.9-0.03"/><path d="M28.21,74.33c0.7,0.92,1.03,1.79,1.11,2.67c0.63,7,0.73,9.5,1.29,17.56"/><path d="M30.1,76.23c10.6-0.94,38.89-3.16,47.27-3.74c3.05-0.21,5.26,0.08,4.53,3.77c-0.91,4.62-1.63,9.01-3.12,15.96"/><path d="M44.86,76.69c0.51,0.68,0.76,1.31,0.91,2.31c0.74,5.01,1.41,8.72,2.07,14.92"/><path d="M63.54,75.26c0.46,0.86,0.59,1.86,0.44,2.99c-0.76,5.69-0.82,7.11-1.83,14.38"/><path d="M14.5,95.3c3.95,1.16,8.19,0.87,12.25,0.61c13.96-0.89,39.38-2.16,58.27-2.85c3.93-0.14,7.76,0.43,11.59,1.07"/></svg>