<svg><path d="M17.5,21.39c1.71,0.41,3.71,0.49,5.43,0.41c15.75-0.75,42.92-3.49,61.08-3.54c2.86-0.01,4.57,0.2,6,0.4"/><path d="M37.75,10.5c1.58,1.13,2.09,1.48,2.26,2.17c1.58,6.52,2.04,12.45,2.49,14.83"/><path d="M66.58,10c0.9,0.8,1.5,2.02,1.2,3.2c-0.9,3.6-1.5,9.59-2.8,14.19"/><path d="M37.62,28.96c0.06,0.37,0.24,1.07-0.12,1.49C33.05,35.69,26.48,40.5,14.9,44.72"/><path d="M18.75,46.42c1.78,1.33,4.59,5.49,5.04,7.57"/><path d="M29.7,40.26c1.88,0.98,4.84,4.03,5.31,5.56"/><path d="M43.49,40.03c0.07,0.9-0.16,1.94-0.64,2.5c-6.37,7.53-13.94,13.19-27.27,19.36"/><path d="M32.1,54.72c8.62,6.05,13.06,23.87,6.62,38.76c-3.76,8.69-7.5,0.8-8.47,0.04"/><path d="M34.14,59.7c0.05,0.35,0.1,0.9-0.1,1.4c-1.18,2.95-7.97,9.44-17.25,13.41"/><path d="M37.84,68.31c0.06,0.52,0.27,1.4-0.13,2.07c-2.94,4.97-10.91,13.29-22.25,19.85"/><path d="M69.42,27.75c0.26,0.42,0.12,1.68,0,2.02c-0.86,2.54-3.31,6.57-6.21,9.46"/><path d="M51.83,40.35c0.53,0.61,0.98,1.71,1.08,2.51c0.35,3.06,2.84,18.65,3.06,22.64"/><path d="M53.22,41.78c3.03-0.1,27.69-3.2,30.45-3.36c2.83-0.17,4.58,1.58,4.46,3.94c-0.14,2.79-2.99,15.28-4.18,21.73"/><path d="M54.59,52.11c6.35-0.31,26.4-2.29,31.03-2.29"/><path d="M56.28,63.55c7.6-0.33,19.99-1.89,28.09-2.04"/><path d="M61.45,66.91c0.05,0.76,0.02,1.97-0.1,3.08C60.5,78,55.5,93.75,44.22,99.42"/><path d="M71.8,64.96c0.51,1.04,0.91,2.27,0.94,3.88c0.14,7.17,0,15.41,0,20.28c0,8.63,1.27,9.16,11.52,9.16c8.75,0,9.88-1.83,9.88-8.05"/></svg>