<svg><path d="M18.5,20.08c1.71,0.7,3.7,0.81,5.42,0.7C36,20,66.11,16.86,84.26,16.77c2.85-0.02,4.57,0.33,5.99,0.68"/><path d="M37.48,11c1.26,1.03,1.67,1.35,1.8,1.98c1.26,5.95,1.62,11.35,1.98,13.52"/><path d="M67.27,9c0.88,0.78,1.46,1.97,1.17,3.13c-0.88,3.52-1.47,9.38-2.74,13.87"/><path d="M47.88,27.9c0.06,0.2,0.13,0.52-0.13,0.8c-1.53,1.7-10.29,5.41-22.28,7.69"/><path d="M17.12,42.74c0.33,0.08,3.65,0.26,4.53,0.23c6.1-0.22,18.85-2.2,25.77-2.73c0.88-0.07,1.98,0.09,2.53,0.17"/><path d="M37.36,35.43c0.29,0.39,0.85,1.36,0.9,2.14c0.05,0.62-0.37,15.33-0.43,20.66"/><path d="M36.54,41.56c-3.45,4.58-9.46,11.29-17.04,13.99"/><path d="M40.5,44.65c2.78,1.7,4.32,3.4,5.25,5.78"/><path d="M61.93,28.01c0.02,0.33,0.05,0.84-0.04,1.31c-0.54,2.76-3.64,8.82-7.89,12.53"/><path d="M61.95,34.52c0.6,0.29,2.44,0.38,3.4,0.19C66.3,34.52,82.7,32.09,85.1,32c2.4-0.1,2.71,0.94,2.52,2.97c-0.37,3.9-1.62,10.79-5.16,17.3c-1.09,2-3.92,1.22-5.34,0.02"/><path d="M71.78,34.99c0.02,0.34,0.05,0.88-0.05,1.37c-0.56,2.89-3.77,9.25-8.17,13.14"/><path d="M53.75,46.93c0.11,0.7-0.07,1.99-0.7,2.82c-5.07,6.7-17.34,20.21-37.55,26.97"/><path d="M54.5,49.74c5.17,4.2,27.44,17.91,33.15,20.98c1.94,1.04,4.42,1.49,6.35,1.79"/><path d="M54.59,60.72c0.07,0.32,1.49,1.67,1.49,3.71c0,12.2-0.2,25.87-0.2,29.2c0,7.08-5.7,1.01-6.88,0.17"/><path d="M36,71.02c3.88,1.28,10.03,5.25,11,7.23"/><path d="M27.5,92.36c1.25,0.64,2.11,1.52,4.08,0.61c1.16-0.54,12-5.34,16.92-7.93"/><path d="M72.03,67.49c0.03,0.21,0.05,0.55-0.05,0.86c-0.58,1.83-3.89,5.83-8.42,8.28"/><path d="M63.75,81.25C68,82.7,79.62,89.69,83.32,95.13"/></svg>