<svg><path d="M19.5,19.77c1.29,0.53,2.8,0.63,4.1,0.53c11.9-0.96,46.9-2.96,60.62-3.03c2.16-0.01,3.45,0.25,4.53,0.51"/><path d="M38.75,10.05c1.42,1.16,1.9,1.51,2.02,2.23C41.75,18,42.25,22.5,43,26.95"/><path d="M68.01,9c0.75,0.67,1.25,1.68,1,2.67c-0.75,3-1.25,8-2.33,11.83"/><path d="M19.53,33.55c0.72,0.19,2.05,0.24,2.77,0.19c3.95-0.28,18.11-1.48,22.55-1.46c1.21,0.01,1.93,0.09,2.53,0.18"/><path d="M33.32,27.04c0.08,0.15,1.08,0.8,1.15,1.76c0.37,4.65-0.23,10.41-0.23,12"/><path d="M16.69,42.31c0.99,0.28,2.81,0.39,3.79,0.28c8.79-0.93,18.79-2.39,26.32-3.09c1.64-0.15,2.63,0.13,3.46,0.28"/><path d="M27.53,44.53c0.05,0.26,0.05,0.65-0.09,1.03c-1.25,3.28-2.85,5.78-8.19,8.96"/><path d="M38.48,42.27c0.5,0.42,0.92,0.91,0.92,1.56c0,0.87-0.15,2.5-0.15,3.13c0,1.7,1.69,2.39,4.92,2.39c2.92,0,5.07,0,6.31-0.55"/><path d="M20.97,58.31c1.5,0,1.02,0.22,2.51,0.2c8.19-0.11,14.92-1.43,20.11-1.91c1.48-0.14,1.86-0.16,2.8,0"/><path d="M32.51,49.99c0.99,0.36,1.58,1.64,1.78,2.37c0.2,0.73,0.45,8.92,0.26,13.47"/><path d="M17.98,68.42c1.17,0.72,1.41,2.19,4.68,0.95c4.21-1.6,16.01-4.51,23.14-6.86"/><path d="M67,28c0.3,0.31,0.66,1.53,0.64,2.09c-0.68,20.1-4.87,28.99-13.23,34.53"/><path d="M55.51,39.12c0.82,0.38,3.9,0.13,4.93,0c1.03-0.13,10.81-2.65,15.98-3.56c4.14-0.73,3.78-0.34,3.04,2.63C77,48,77.96,60.75,83.5,65c7.5,5.75,7.75,3.25,6.93-5.45"/><path d="M57.4,46.56c5.39,2.1,13.92,8.65,15.27,11.92"/><path d="M37.69,70.48c0.76,0.28,2.14,0.31,2.9,0.28c7.15-0.26,18.96-2.01,28.47-2.22c1.26-0.03,2.02,0.13,2.65,0.27"/><path d="M21.07,80.94c1.3,0.27,3.69,0.37,4.98,0.27c13.56-1.04,44.45-3.42,57.34-3.41c2.17,0,3.46,0.13,4.55,0.26"/><path d="M45.73,82.14c0.22,0.49,0.28,1.14-0.18,1.73c-3.44,4.4-6.13,8-11.18,12.09c-1.37,1.11-1.48,2.04,0.68,1.81c4.54-0.47,30.7-6.02,39.34-7.6"/><path d="M65.73,83.52C71.47,86.26,79.78,94.73,81.22,99"/></svg>