<svg><path d="M20,20.1c1.67,0.67,3.6,0.8,5.27,0.67c15.3-1.22,41.02-3.89,58.65-3.98c2.78-0.01,4.44,0.32,5.83,0.65"/><path d="M37.25,11.5c1.75,1.17,2.31,1.52,2.5,2.24C41.5,20.45,42,26.56,42.5,29"/><path d="M67.52,9c1.01,0.9,1.68,2.26,1.34,3.59c-1.01,4.03-1.68,10.76-3.14,15.91"/><path d="M53.88,24.75c0.17,0.29,0.19,0.66,0.15,0.91c-0.23,1.52-2.25,5.16-4.08,7.2"/><path d="M45.5,33.54c0.38,0.64,0.92,1.84,0.92,2.67s0.4,20.44,0.51,24.49"/><path d="M46.69,35.54c1.5-0.1,12.43-2.22,13.79-2.34c1.14-0.1,1.87,0.69,1.78,1.3c-0.18,1.23-0.43,18.27-0.57,24.83"/><path d="M47.11,46.61c2.03,0,12.51-1.93,14.8-1.93"/><path d="M47.37,58.15c3,0,10.16-0.87,14.03-0.87"/><path d="M28.41,30.09c0.24,0.91,0.46,1.69-0.12,2.59c-2.54,3.96-4.78,7.74-7.2,9.87c-0.5,0.44-0.48,2.11,0,2.28c2.54,0.91,5.16,1.41,8.51,2.78"/><path d="M36.99,37.93c0.24,0.4,0.32,1.7,0,2.11c-4.74,6.19-9.99,12.14-16.8,18.93c-0.84,0.83-0.48,1.74,0.48,1.47c4.05-1.1,12.17-3.44,17.37-4.49"/><path d="M35.32,50.76c2.07,1.84,5.35,7.56,5.87,10.43"/><path d="M76.66,27.68c0.24,0.88,0.46,1.62-0.12,2.48c-2.54,3.8-4.78,7.85-7.2,9.89c-0.5,0.42-0.48,2.03,0,2.19c2.54,0.88,5.33,1.34,7.51,2.94"/><path d="M84.24,35.52c0.24,0.37,0.3,1.57,0,2c-3.99,5.73-10.09,12.41-16.3,18.94c-0.78,0.82,0.02,2.17,0.98,1.92c4.05-1.04,9.32-3.12,15.87-6.33"/><path d="M81.32,48.6c2.69,1.91,6.95,7.87,7.62,10.85"/><path d="M20.28,71.71c1,0.17,3.68,0.69,6.33,0.5c11.93-0.85,38.26-3.19,56.59-4.02c2.66-0.12,5.33-0.17,7,0"/><path d="M52.45,62.35c0.9,0.38,1.43,1.7,1.61,2.46c0.18,0.76,0,31.71-0.18,36.44"/><path d="M52.75,71.06c-5.5,8.33-18.5,18.44-36.25,24.4"/><path d="M54.76,71.52C63,77.25,75.25,86.5,85.79,92.78c1.78,1.06,3.22,1.54,4.96,1.85"/></svg>