<svg><path d="M18.25,21.94c2.77,0.97,6.91,0.36,9.76,0.02c13.99-1.71,35.12-3.61,48.73-4.31c3.43-0.18,6.83,0.05,10.17,0.76"/><path d="M35.44,11.2c0.93,0.93,1.38,1.84,1.49,2.61c1.07,8.06,1.74,11.44,1.98,14.44"/><path d="M64.75,8.67c0.42,1.01,0.77,1.7,0.5,3c-1.25,5.96-1.75,8.46-3.22,13.8"/><path d="M18.94,39.55c0.94,0.94,0.94,1.83,0.97,3.37c0.46,23.83-0.79,41.96-8.16,53.47"/><path d="M20.64,40.46c1.45-0.05,10.53-2.48,11.61-2.58c1.93-0.19,3.25,1.5,3.25,4c0,4.37,0.05,40.62,0.05,50.01c0,9.49-5.27,1.79-6.51,0.51"/><path d="M21.14,55.55c4.95-0.66,8.99-1.55,13.33-1.99"/><path d="M20.5,70.95c5.13-0.7,8.42-1.18,13.97-1.53"/><path d="M47.81,35.25c2.25,1.21,5.81,4.96,6.37,6.84"/><path d="M78.17,31.42c0.02,0.23,0.04,0.6-0.04,0.93c-0.5,1.96-2,4.65-6.02,8.88"/><path d="M47.54,48.91c1.95,0.61,4.13,0.28,6.1,0.03c5.42-0.67,13.57-2.08,19.74-2.7c2.35-0.24,4.65-0.42,6.98,0.02"/><path d="M41.23,59.33c2.59,0.81,6.03,0.59,8.65,0.15c9.5-1.6,24.01-3.09,32.5-3.79c2.82-0.23,5.77-0.46,8.57,0.07"/><path d="M63.57,32.5c0.43,1.25,0.68,2.62,0.38,4.05c-2.33,11.08-7.58,30.2-22.22,38.48"/><path d="M66.67,51.48C69.35,51.6,80.75,63,87.9,68.5c2.05,1.57,3.97,2.88,6.6,3.95"/><path d="M63.5,66.33c0.9,0.89,1.2,2.17,1.2,3.91c0,5.01-0.07,21.4-0.07,25.13c0,7.94-4.8,2.22-5.93,1.27"/><path d="M49.36,75.68c2,0.93,5.16,3.83,5.65,5.28"/><path d="M45.1,93.39c1.25,1.15,2.3,1.15,3.55,0.16c0.74-0.58,6.19-5.01,9.32-7.81"/><path d="M77.95,70.71c0.06,0.74-0.12,1.42-0.53,2.05c-0.86,1.58-2.68,3.53-6.04,6.55"/><path d="M71.01,84.98C75.32,87.04,82.7,92.1,85.51,96"/></svg>