<svg><path d="M21.5,21.71c1.76,0.72,3.81,0.86,5.58,0.72c16.19-1.31,37.6-4.21,56.26-4.31c2.94-0.02,4.7,0.34,6.16,0.7"/><path d="M37.67,11.25c1.45,1.18,1.91,1.54,2.06,2.27c1.45,6.81,1.86,13,2.27,15.48"/><path d="M66.75,10c0.88,0.78,1.46,1.97,1.17,3.13c-0.88,3.52-2.46,9.38-3.74,13.87"/><path d="M18.45,41.26c0.65,0.28,2.92,0.75,3.57,0.71c5.46-0.38,18.38-2.36,24.24-2.62c1.08-0.05,2.81,0.13,3.35,0.27"/><path d="M17.61,50.54c0.26,0.3,0.53,0.55,0.64,0.93c0.9,2.98,2.49,9.81,3.11,15.17"/><path d="M18.74,51.67c7.82-1.29,25.69-3.26,28.75-3.56c1.9-0.19,3.11,1.93,2.6,3.66c-1.35,4.63-1.68,6.67-2.74,10.21"/><path d="M21.49,64.88c9.39-0.74,20.43-2.37,27.48-2.93"/><path d="M33.19,32.25c0.77,0.42,1.23,1.91,1.38,2.76c0.15,0.85,0,58.41-0.15,63.71"/><path d="M33.65,64.52C29.8,73.3,19.78,85.73,11.77,90.7"/><path d="M38.21,70.97c5.37,2.76,9.68,8.18,12.39,13.69"/><path d="M55.1,33.29c1.58,0.43,3.52,1.48,6.01,1.04c6.14-1.08,23.18-3.8,25.97-3.99c1.81-0.13,2.32,0.57,2.22,1.45c-0.26,2.32-3.79,10.71-7.13,13.46c-2.32,1.91-4.42,0.75-5.47-0.63"/><path d="M68.95,33.48c0.04,0.31,0.09,0.8-0.07,1.24C67.71,38,64.12,44.73,56.49,48.11"/><path d="M59.59,52.48c0.44,0.86,1.08,1.51,1.08,2.63c0,1.12-0.29,30.79-0.29,31.35"/><path d="M61.4,53.89c2.48-0.04,23.98-1.94,26.24-2.01c1.88-0.06,2.25,0.95,2.25,2.41c0,1.2-0.55,28.57-0.55,29.32"/><path d="M61.35,62.76c4.32-0.4,22.61-1.68,27.92-1.76"/><path d="M61.24,72c8.94-0.22,20.97-1.26,27.74-1.37"/><path d="M60.91,82.65c7.35-0.29,20.53-1.08,27.75-1.2"/><path d="M65.4,86.79c0.42,1.06,0.32,1.6-0.39,2.45c-2.32,2.78-8.53,6.94-14.92,9.77"/><path d="M79.99,86.75c5.49,2.9,12.4,9.33,13.9,11.77"/></svg>