<svg><path d="M20.5,21.98c1.51,0.62,3.27,0.74,4.79,0.62c13.91-1.12,43.13-4.05,59.16-4.13c2.52-0.01,4.04,0.29,5.3,0.6"/><path d="M39.25,11.5c1.75,1.43,2.31,1.87,2.5,2.75C43.5,22.5,43,24.5,43.5,27.5"/><path d="M67.25,10.25c1.12,1,1.87,2.52,1.5,4c-1.12,4.5-0.88,6-2.5,11.75"/><path d="M32.79,30c0.99,0.37,1.6,1.71,1.8,2.48c0.2,0.77,0.35,15.55,0.19,20.37"/><path d="M35.27,41.36c6.47-0.65,3.52-0.79,10.33-1.25c1.58-0.11,1.98-0.22,2.97-0.03"/><path d="M21.21,36.63c0.99,0.37,1.6,1.71,1.8,2.48c0.2,0.77,1.15,10.27,0.99,15.09"/><path d="M14.4,54.45c0.62,0.11,2.29,0.96,3.94,0.82c9.41-0.77,16.91-2.52,27.96-3.8c1.65-0.19,3.76,0.2,4.7,0.31"/><path d="M33.81,52.68c0.08,0.21,1.07,1.09,1.15,2.42c0.37,6.4-0.23,16.07-0.23,18.26c0,6.23-2.1,3.69-5.29,0.71"/><path d="M24.75,62.06c0.03,0.43,0.1,1.12-0.06,1.71c-1.15,4.27-6.02,12.49-9.98,16.42"/><path d="M49.17,61.2c0.08,0.82,0.34,2.2-0.17,3.3c-4.27,9.1-15.8,23.01-30.69,32.01"/><path d="M54.12,31.58c1.08,0.4,3.05,0.46,4.13,0.4c13.88-0.68,18.54-2.15,28.88-2.68c1.8-0.09,4.1,0.19,5,0.4"/><path d="M70.23,34.62c0.01,0.19,0.03,0.49-0.03,0.77c-0.35,1.62-2.38,5.16-5.15,7.33"/><path d="M57.42,43.45c0.45,0.93,1.1,1.63,1.1,2.87c0,1.24-0.3,37.36-0.3,37.98"/><path d="M59.26,44.22c5.36-0.47,22.43-2.52,24.74-2.71c1.92-0.16,3.43,1.73,3.27,2.88c-0.21,1.46-0.43,37.18-0.43,38.12"/><path d="M59.22,55.98c7.73-0.93,21.36-2.11,26.77-2.45"/><path d="M59.42,68.36c8.87-0.58,18.7-1.85,25.61-2.29"/><path d="M58.6,81.17c8.95-0.73,19.73-1.26,27.09-1.73"/><path d="M64.34,85.66c0.4,1.13,0.18,1.76-0.45,2.72c-1.9,2.88-8.65,8.38-15.15,11.04"/><path d="M77.61,86.07c5.62,3.4,12.27,9.58,13.81,12.56"/></svg>