<svg><path d="M17,20.26c1.89,0.52,4.09,0.63,5.99,0.52c17.4-0.96,40.33-3.94,60.38-4.02c3.16-0.01,5.05,0.25,6.62,0.51"/><path d="M37.18,9c1.47,1.2,1.94,1.56,2.09,2.3c1.46,6.91,1.38,12.69,1.8,15.2"/><path d="M66.2,8.25c0.87,0.77,1.44,1.94,1.16,3.08c-0.87,3.47-1.44,9.24-2.7,13.67"/><path d="M34.23,31.28c0.23,1.6-2.27,8.67-4.09,11.34"/><path d="M42.44,30.13c3.87,8.58,9.49,14.02,24.42,14.13c7.2,0.05,7.67-2.29,1.66-6.19"/><path d="M54.32,29.45c1.2,3.31,2.94,6.63,4.22,1.55"/><path d="M70.88,28.48c4.13,1.05,7.22,2.01,10.58,5.27"/><path d="M20.49,52.88c0.17,1.47-1.71,7.94-3.08,10.39"/><path d="M25.76,50.12c2.69,7.66,6.95,14.31,17.32,14.41c5.01,0.05,5.33-1.44,1.16-4.93"/><path d="M33.59,51.03c1.38,2.56,3.39,5.12,4.86,1.2"/><path d="M45.04,50.66c2.7,1.18,4.72,2.25,6.92,5.88"/><path d="M62.23,53.37c0.23,1.18-2.31,6.41-4.17,8.38"/><path d="M68.28,50.92c2.8,7.05,7.22,13.17,18.01,13.26c5.2,0.04,5.54-1.32,1.2-4.53"/><path d="M77.01,51.07c1.22,2.18,3,4.36,4.31,1.02"/><path d="M86.65,48.1c3.37,1.43,5.9,2.73,8.63,7.14"/><path d="M18.25,74.84c2.25,0.73,4.82,0.97,7.4,0.73c13.2-1.2,40.13-0.92,60.09-2.33c2.57-0.18,4.18,0.13,6.76,0.64"/><path d="M52.92,64.75c1.06,0.42,1.91,1.88,1.91,2.76c0,8.92,0,28.43-0.21,33.74"/><path d="M51.75,75.25c-6.34,6.46-23.32,16.34-36.5,20"/><path d="M56,75c4.21,2.54,24,15.3,28.57,17.8c1.55,0.85,2.88,1.21,4.43,1.45"/></svg>