<svg><path d="M18,19.3c1.56,0.5,3.38,0.6,4.95,0.5c14.36-0.91,44.53-4.22,61.09-4.29c2.6-0.01,4.17,0.24,5.47,0.49"/><path d="M39,11c1.12,0.92,1.48,1.2,1.6,1.77c1.12,5.32,2.08,10.79,2.4,12.73"/><path d="M65.13,9c0.19,0.73,0.43,1.27,0.22,2.17c-1.22,5.26-1.77,7.89-3.1,12.83"/><path d="M22.23,33.28c1.01,0.28,2.96,0.52,4.03,0.47c5.77-0.31,17.25-2.41,19.56-2.52c1.14-0.05,2.19,0.71,1.95,1.51c-0.6,1.99-1.82,5.03-2.77,9.45"/><path d="M25.84,45.3c2.9-0.09,13.68-1.72,21.13-2.1"/><path d="M25.77,34.06c0,1.35,0.33,3.82,0.29,5.09c-0.3,8.85-4.48,20.73-12.76,26.59"/><path d="M26.44,53.75c0.13,0.44,0.55,1.42,0.59,1.76c0.31,2.43,1.29,8.45,1.73,13.05"/><path d="M27.08,54.86c3.53-0.49,16.72-2.15,19.13-2.23c1-0.03,1.37,1.02,1.24,1.75c-0.54,2.87-2.39,6.39-2.92,10.06"/><path d="M28.96,67.19c2.92-0.21,13.13-1.63,16.64-1.89"/><path d="M69.27,24.09c1.12,0.82,1.68,0.82,1.68,2.73c0,1.91,0,3.54,0,6.05"/><path d="M55.7,34.2c0.91,0.43,1.98,0.5,2.89,0.43c5.15-0.37,17.85-2.71,25.63-3.03c1.52-0.06,2.43,0.21,3.19,0.42"/><path d="M61.47,35.91c2.82,3.33,4.1,6.73,4.35,8.92"/><path d="M79.85,34.79c0.53,0.32,0.18,1.52,0.03,1.76c-1.53,2.44-3.47,6.62-4.52,8.02"/><path d="M55.9,47.79c1.05,0.4,2.29,0.44,3.34,0.4c6.73-0.23,19.9-2.91,27.79-3.14c1.76-0.05,2.82,0.19,3.7,0.39"/><path d="M56.66,58.41c0.87,0.24,2.46,0.31,3.33,0.24c11.04-0.8,16.24-2.46,26.48-2.97c1.44-0.07,2.32,0.12,3.04,0.24"/><path d="M70.29,48.87c0.39,0.25,1.23,1.86,1.31,2.36c0.46,2.85-0.11,16.33-0.13,17.06"/><path d="M17.75,76.32c1.94,0.38,4.15,0.51,6.38,0.38c11.37-0.63,44.36-2.82,61.55-3.57c2.21-0.09,3.6,0.07,5.82,0.34"/><path d="M52.25,65.25c1.25,0.5,2.25,2.22,2.25,3.25c0,10.5,0,26.25-0.25,32.5"/><path d="M52.25,75.25C45.75,84,32.5,94,18.25,98.5"/><path d="M54.5,76.5c4.62,2.77,26.36,16.69,31.38,19.42c1.7,0.92,3.16,1.32,4.87,1.58"/></svg>