<svg><path d="M18,24.81c1.7,0.54,3.68,0.65,5.38,0.54c15.63-0.99,41.9-4.08,59.92-4.15c2.83-0.01,4.54,0.26,5.95,0.53"/><path d="M38.8,12.75c1.57,1.28,2.21,2.66,2.24,3.46C41.25,22.75,41.5,28,41.5,31"/><path d="M69.43,10.25c0.83,0.9,1.22,2.26,0.63,3.59c-1.82,4.03-3.83,10.76-6.32,15.91"/><path d="M36.51,34.5c0.06,0.34,0.12,0.88-0.12,1.37c-1.42,2.9-9.6,9.26-20.79,13.16"/><path d="M13.34,59.41c0.91,0.59,2.6,1.04,3.76,0.97c5.65-0.37,14.72-1.84,22.71-2.62c1.16-0.11,1.45-0.16,2.18,0"/><path d="M29.53,45.85c0.46,0.5,0.73,2.28,0.82,3.29c0.09,1.01,0,44.29-0.09,50.61"/><path d="M29.77,60.09c-2.94,9.72-7.86,21.7-14.52,29.65"/><path d="M33.3,68.96c3.66,2.01,6.76,6.03,8.73,8.61"/><path d="M60.41,34.5c0.04,0.51,0.08,1.31-0.07,2.03c-0.87,4.29-5.85,13.7-12.67,19.46"/><path d="M61.79,40.45C66.75,40,71,39,75.33,37.71c1.59-0.48,2.5,2.1,1.81,3.07c-2.89,4.08-3.61,5.56-6.66,11.06"/><path d="M53.28,53.79c0.26,0.45,0.26,0.76,0.4,1.33c1.16,4.66,2.25,16.43,2.97,25.13"/><path d="M54.48,54.42c8.98-1.17,24.36-2.17,31.06-3.15c2.46-0.36,3.72,0.92,3.6,2.2c-0.46,4.7-1.61,16.5-2.73,24.35"/><path d="M71.65,53.14c0.32,6.06,0.16,19.29,0.16,23.33"/><path d="M56.16,66.47c2.92-0.46,28.61-2.82,31.03-3.01"/><path d="M57.12,77.98c6.46-0.5,20.37-1.59,29.29-2.41"/><path d="M53.91,88.18c0,4.28-3.1,10.6-3.91,11.82"/><path d="M62.37,86.37c2.37,2.01,4.62,7.55,5.21,10.68"/><path d="M74.65,86.1c2.29,1.81,5.92,7.43,6.5,10.24"/><path d="M87.72,83.53c2.94,1.96,7.6,8.08,8.33,11.13"/></svg>