<svg><path d="M15.75,19.07c3.62,0.55,7.02,0.36,10.27,0.02c15.23-1.6,37.56-3.42,51.99-4.1c3.62-0.17,7.6,0.03,11.16,0.78"/><path d="M34.94,9.7c1.06,0.8,1.45,1.44,1.74,3.11C37.75,19,38,21.25,38.66,25.25"/><path d="M67,8.92c0.42,1.01,0.53,1.96,0.25,3.25c-1,4.58-2.25,7.33-3.72,11.55"/><path d="M20.66,32.27c1.04,1.03,1.24,2.16,1.24,3.44c0,0.59,0.03,34.58,0.05,51.04c0,3.92,0.01,6.8,0.01,7.94"/><path d="M22.82,33.92c3.45-0.48,12.24-1.84,15.57-2.17c2.71-0.27,3.52,1,3.34,3.38c-0.16,2.1-0.74,7.87-1.11,11.62c-0.19,1.87-0.32,3.24-0.32,3.39"/><path d="M23.42,42c6.33-1.12,11.33-1.62,17.1-2.12"/><path d="M22.82,51.44c6.65-0.89,10.55-1.56,16.42-1.97"/><path d="M64.88,29.51c0.68,0.68,0.95,1.66,0.95,2.9c0,1.88,0,7.42,0,12.09c0,1.77,0,3.34,0,4.41"/><path d="M66.16,30.67c5.09-0.42,11.84-1.54,17.09-2.01c2.8-0.25,3.7,0.85,3.7,3.47c0,6-0.08,54.63-0.08,61.37c0,8.88-4.64,2.93-6.5,0.45"/><path d="M66.51,38.76c2.67,0,16.45-1.34,19.46-1.34"/><path d="M66.16,47.63c3.94,0,14.48-1.2,19.58-1.2"/><path d="M41.66,55.13c1.45,0.58,2.84,0.46,4.35,0.34c4.91-0.39,10.83-1.56,15.76-2.19c1.11-0.14,2.73-0.4,3.81-0.26"/><path d="M37,61.62c0.71,0.93,0.97,1.74,1.17,2.89c0.68,3.89,2.19,12.91,2.28,13.37"/><path d="M38.86,63.19c3.89-0.61,23.25-3.41,28.74-4.03c2.57-0.29,3.83,0.96,3.21,3.35c-0.91,3.53-1.69,7.24-3.25,12.56"/><path d="M40.05,69.08c4.87-0.45,25.9-2.67,28.82-2.67"/><path d="M41.23,76.11c6.65-0.74,18.84-2.17,25.39-2.42"/><path d="M52.68,46.25c0.85,0.85,1.11,2,1.11,3.18c0,0.49-0.03,28.25-0.04,41.32c0,3.24,0,5.58,0,6.38"/><path d="M50.39,76.06c0,1.19-0.39,1.96-1.06,2.99c-3.32,5.08-8.6,10.73-16.74,14.58"/><path d="M56.88,80.38c4.89,1.69,9.87,5.51,13.12,9.88"/></svg>