<svg><path d="M20.5,21.01c1.61,0.65,3.48,0.78,5.1,0.65c14.81-1.2,40.19-3.69,57.26-3.78c2.68-0.01,4.3,0.31,5.64,0.64"/><path d="M37.23,11.5c1.43,1.17,1.88,1.52,2.04,2.24c1.42,6.72,1.83,12.82,2.24,15.26"/><path d="M66.21,9c0.9,0.8,1.5,2.03,1.21,3.22c-0.91,3.62-1.51,9.66-2.82,14.28"/><path d="M29.4,29.17c0.36,1.1,0.38,1.91-0.18,3.11c-2.46,5.28-5.21,9.22-9.78,14.61c-0.57,0.68-0.72,2.54,0,2.74c3.81,1.1,6.64,2.04,9.91,4.05"/><path d="M42.3,37.44c0.3,0.45,0.37,1.91,0,2.39c-5.8,7.54-17.49,20.18-25.48,26.58c-1.83,1.47-1.32,3.09,1.15,2.51c5.01-1.18,16.87-3.98,23.29-5.17"/><path d="M38.88,57.1c1.98,2,5.13,8.23,5.62,11.34"/><path d="M30.14,68.97c0.07,0.28,0.91,1.43,0.98,3.17c0.31,8.36-0.2,23.79-0.2,26.64"/><path d="M21.61,75.39c0.15,0.95,0.13,2.83-0.15,3.5c-1.82,4.44-5.87,12.99-8.45,16.8"/><path d="M37.93,74.16c2.75,3.1,4.85,10.31,5.49,13.12"/><path d="M52.78,33.08c0.25,0.3,0.25,0.5,0.39,0.88c1.12,3.09,2.17,11.3,2.87,17.07"/><path d="M53.94,33.9c8.68-0.78,24.82-2.91,31.3-3.57c2.38-0.24,3.68,0.79,3.48,2.68c-0.34,3.13-2.4,10.79-3.49,15.99"/><path d="M55.56,41.49c2.83-0.3,29.36-2.53,31.69-2.66"/><path d="M56.49,49.38c6.25-0.33,20.12-1.31,28.74-1.85"/><path d="M50.65,57.03c0.23,0.23,0.46,0.42,0.56,0.72c0.79,2.33,2.14,8.8,2.68,13.01"/><path d="M51.75,58.17c5.04-1.05,37.38-3.85,40.05-4.23c0.98-0.14,2.3,0.74,2.04,2.07c-0.55,2.78-1.89,7.55-3.35,11.53"/><path d="M64.42,56.51c0.16,1.56,0.6,9.2,0.75,10.96"/><path d="M78.57,55.16c-0.15,2.55-0.62,7.96-0.92,10.81"/><path d="M54.61,69.05c3.14-0.43,31.93-2.88,36.25-3.53"/><path d="M54.78,77.35c1.26,0.2,1.42,0.51,3.95,0.2c2.53-0.31,21.95-3.84,23.69-4.15c1.74-0.3,2.97,1.2,1.68,2.57C73.66,87.07,61.7,94.32,46.27,98.5"/><path d="M57.57,80.62c3.32,0.41,19.55,11.31,31.12,15.78c1.8,0.69,3.11,1.16,4.79,1.39"/></svg>