<svg><path d="M52.27,10.83c0.98,0.92,1.26,2.42,1.26,4.27c0,5.9-0.02,8.94-0.02,13.9"/><path d="M55.1,20.02c4.65-0.77,9.9-1.77,14.61-2.38c1.55-0.2,2.5,0.18,3.29,0.37"/><path d="M29.75,32.43c1.16,1.16,1.15,2.71,1.09,4.78C30.12,58.5,24.62,84.38,12.5,96.5"/><path d="M31.49,33.74c2.01-0.24,3.77-0.63,5.64-0.97c13.24-2.39,23.99-4.02,42.81-5.18c12.05-0.75,2.55,6.16-0.45,8.28"/><path d="M38,48.44c2.62,0.56,4.56,0.29,6.48-0.13c7.07-1.55,17.18-3.55,24.53-4.61c1.98-0.28,3.78-0.56,5.74-0.01"/><path d="M50.34,33.16c0.91,0.91,1.04,1.95,1.04,3.34c0,4.98,0.06,10.16,0.06,12.39c0,6.61,1.44,7.61,10.48,7.61c5.83,0,9.46-0.38,11.58-1.39"/><path d="M49.72,66.47c0.06,0.73,0.2,1.92-0.11,2.95C47.25,77.38,41.25,89,29.87,97.17"/><path d="M63.96,64c0.59,1.02,1.1,2.22,1.1,3.78c0,3.59-0.06,13-0.06,17.72c0,8.62,1.75,10.69,13.55,10.69c14.33,0,15.13-2.32,15.13-7.8"/></svg>