<svg><path d="M53.02,11.08C54,12,54.77,13.07,54.77,16.1c0,5.9-0.02,13.19-0.02,18.15"/><path d="M56.35,22.77C63,22,70,20.75,75.46,20.39c1.56-0.1,2.5,0.18,3.29,0.37"/><path d="M29.2,35.18c0.8,0.57,0.99,2.73,0.88,4.82C29,62,25.25,83.75,9.64,98.65"/><path d="M30.24,37.24c1.16,0.19,2.75-0.06,4.64-0.22c15.62-1.27,36.87-4.27,44.31-4.18c12.07,0.14,2.55,7.16-0.45,9.28"/><path d="M30.5,69.13c1.26,0.42,3.58,0.61,4.82,0.42c12.37-1.89,34.93-5.8,48.53-6.83c2.09-0.16,3.35,0.2,4.4,0.41"/><path d="M52.75,45.18c0.81,1,1.63,1.67,1.9,3.01c0.27,1.34-0.15,27.31-0.15,32.31c0,14.25-0.75,16.25,15.5,16c4.36-0.07,13.75,0,17.5-2"/></svg>