<svg><path d="M50.31,10.08c1.21,1.13,2.16,2.44,2.16,6.18c0,7.26-0.03,6.39-0.03,12.49"/><path d="M53.35,18.48C60,18,66.65,16.91,73.49,16.19c2.25-0.24,3.63-0.29,4.76-0.06"/><path d="M26.9,29.18c0.63,0.6,0.69,2.85,0.69,5.02c0,26.05-3.53,47.12-14.1,61.55"/><path d="M27.74,31.74c1.16,0.19,3.25,0.01,5.14-0.22c14.37-1.77,40.37-5.02,51.81-5.18c12.07-0.17,3.55,5.66,0.55,7.78"/><path d="M35.25,43.21c1.18,0.35,4.09,0.51,5.25,0.35c11.58-1.57,18.14-3.37,30.88-4.23c1.95-0.13,3.14,0.17,4.12,0.34"/><path d="M51.25,32.18c0.66,0.54,1.54,2.67,1.54,3.42c0,6-0.12,5.1-0.12,7.78c0,4.87,1.08,7.37,13.14,7.37c3.52,0,12.92,0,15.95-1.07"/><path d="M54.99,55.25c0.68,0.33,1.79,1.58,1.79,2.22c0,2.55-0.02,5.05-0.09,6.88"/><path d="M33,66.82c1.26,0.05,3.64,0.33,4.87,0.29c10.28-0.27,30.45-3.42,43.91-3.58c2.08-0.02,3.14,0.03,4.69,0.37"/><path d="M67.53,67.97c0.54,0.7,0.29,1.57-0.23,2.96C63.5,81,51,93.5,24.75,99.25"/><path d="M43.34,71.07c10.41,6.43,24.27,17.57,36.61,24.28c2.32,1.26,5.03,2.24,7.04,2.35"/></svg>