<svg><path d="M53.77,9.33c0.98,0.92,1.51,2.42,1.51,4.52c0,5.9-0.02,13.44-0.02,18.4"/><path d="M58.35,21.65c4.65-0.65,7.9-1.25,12.61-1.77c1.55-0.17,2.5,0.15,3.29,0.32"/><path d="M28.96,35.68c0.81,0.81,1.14,2.32,1.14,3.67C30.1,59,27.25,79.25,15.25,92"/><path d="M30.24,38.21c1.25-0.26,2.68-0.51,4.23-0.85c14.28-3.11,32.4-5.74,46.14-6.15c11.72-0.35,2.48,6.22-0.44,8.28"/><path d="M35.75,50.53c2.5,0.35,5.22,0.08,7.76-0.48c8.49-1.9,14.86-3.3,25.02-4.85c2.43-0.37,4.57-0.5,6.97,0.15"/><path d="M53.75,37.18c0.52,0.42,1.2,2.1,1.2,2.68c0,4.71-0.1,8.14-0.1,11.41c0,5.6,0.89,6.73,9.81,6.73c2.76,0,8.21-0.25,10.58-1.09"/><path d="M42.46,69.82c1.48,0.77,3.71,0.54,5.28,0.41c6.53-0.53,20.03-2.04,28.76-2.6c2.26-0.15,4.83-0.55,7.04,0.14"/><path d="M45.45,83.39c6.48-0.4,21.62-1.96,33.32-3.34c1.98-0.23,4.23-0.54,6.28-0.13"/><path d="M43.37,70.5c0.75,0.75,1.04,1.71,1.04,2.39c0,2.99-0.16,12.86-0.54,21.55c-0.11,2.47,0.52,3.77,2.96,3.36c14.42-2.41,22.84-3.46,33.35-2.96c2.14,0.1,3.94,0.66,4.76,0.82"/></svg>