<svg><path d="M53.02,11.58c0.98,0.92,1.26,2.29,1.26,4.02c0,5.9-0.02,7.94-0.02,12.9"/><path d="M55.6,20.77c4.74-0.58,9.76-1.35,14.14-1.94c1.59-0.22,3.17-0.46,4.76-0.07"/><path d="M27.36,29.93c0.85,0.85,1.21,2.49,1.23,4.57c0.16,23.25-4.72,47.13-16.09,60"/><path d="M29.63,32.27c1.31-0.2,2.78-0.4,4.36-0.6c14.5-1.84,35.51-3.67,48.96-3.83c12.07-0.15,2.8,6.91-0.2,9.03"/><path d="M36.25,46.72c3,0.78,5.53,0.31,7.89-0.17c6.84-1.37,20.49-3.43,25.74-4.11c2.08-0.27,3.82-0.36,5.87,0.2"/><path d="M52.25,34.93c0.91,0.91,1.29,1.95,1.29,3.34c0,4.98-0.04,8.63-0.04,10.86c0,4.62,1.75,6.12,12.17,6.12c2.95,0,9.8-0.5,12.33-1.39"/><path d="M50.69,62.33c0.8,0.75,1.43,2.42,1.43,4.08c0,11.84-0.12,20.46-0.12,25.21"/><path d="M64.69,61.08c0.99,0.99,1.43,2.17,1.43,4.08c0,12.71-0.12,21.43-0.12,25.46"/><path d="M33.75,71.5c2.58,2.33,6.66,9.59,7.31,13.22"/><path d="M84.78,65.64c0.08,0.96,0.02,1.9-0.3,2.79c-1.6,4.44-4.35,9.44-9.22,15.31"/><path d="M28,93.32c3.13,1.14,7.23,0.69,10.49,0.39c13.66-1.24,30.93-2.36,44.14-2.55c3.54-0.05,7.14-0.24,10.62,0.52"/></svg>