<svg><path d="M50.02,9.58c0.98,0.92,1.76,1.99,1.76,5.02c0,5.9-0.02,5.19-0.02,10.15"/><path d="M52.35,16.98c6.74-0.9,14.8-2.07,21.64-2.79c2.25-0.24,3.63-0.29,4.76-0.06"/><path d="M25.4,26.68c0.63,0.6,0.75,2.85,0.69,5.02c-0.6,23.05-4.03,46.62-14.6,61.05"/><path d="M26.24,29.24c1.16,0.19,3.25,0.01,5.14-0.22C45.75,27.25,72.25,23,83.7,22.84c12.07-0.17,3.55,5.66,0.55,7.78"/><path d="M33.25,40.21c0.87,0.35,3.02,0.51,3.88,0.35c8.56-1.57,26.41-4.37,35.82-5.23c1.44-0.13,2.32,0.17,3.04,0.34"/><path d="M50.75,29.18c0.59,0.51,1.37,2.53,1.37,3.24c0,5.69-0.11,5.3-0.11,7.84c0,7.55,3.28,6.98,11.74,6.98c3.15,0,11.54,0,14.25-1.02"/><path d="M41.48,50.75c0.14,0.77,0.51,1.82,0.32,2.83c-1.11,5.96-7.47,19.05-16.17,27.06"/><path d="M40.54,61.23c0.19,0.03,1.02,0,1.58-0.09c1.82-0.28,6.1-1.49,10.75-2.2c1.79-0.6,3.24,0.73,2.67,2.45c-3.12,9.4-18.87,32.71-32.79,37.55"/><path d="M34.24,70.98C40.75,71.5,67.5,93.5,83.81,97.02c3.07,0.66,5.66,0.86,8.44,1.23"/><path d="M65.48,55.67c0.32,0.79,0.78,1.42,0.78,2.42c0,9.08,0.16,17.15-5.89,22.34"/><path d="M66.44,57.26c1.82-0.28,10-1.85,11.45-2.12c1.46-0.27,3.03,0.27,2.67,1.65s-0.24,18.48-0.24,19.48s0.8,5.02,6.38,5.02c6.55,0,6.49-4.97,6.49-7.07"/></svg>