<svg><path d="M23.64,36.26c0.8,0.8,1.49,1.74,1.7,2.54c1.23,4.63,2.06,10.62,3.38,18.66c0.25,1.52,0.51,3.11,0.78,4.78"/><path d="M25.76,38.04c14.91-1.35,45.03-4.16,53.74-4.54c3.84-0.17,4.01,1.78,3.63,4.25c-0.68,4.46-2.51,12.12-4.07,17.32"/><path d="M30,60c9.65-0.99,29.67-2.45,44.76-3.49c2.03-0.14,3.98-0.27,5.79-0.4"/><path d="M52.51,16.12c1,1,1.67,2.84,1.67,3.99c0,5.39,0.08,62.61,0.04,63.63"/><path d="M22.75,89.75c1.31,1.31,3,1.5,4.25,1.25s47-10.5,54.75-12.5"/><path d="M74.96,69.87c5.12,3.62,12.42,14.38,14.5,20.5"/></svg>