<svg><path d="M22.25,23c2.5,0.5,4.99,0.61,6.52,0.38c13.4-2.01,40.14-5.63,43.73-5.63c4,0,5.82,0.94,5.5,4.75c-1.75,20.75-1.58,50.2,9.5,66.25c7.25,10.5,7.25,1,7-6"/><path d="M60.98,27c0.1,0.41,0.21,1.05-0.2,1.63c-2.42,3.44-16.29,11-35.28,15.62"/><path d="M24.98,53.12c0.63,0.37,1.43,1.65,1.54,2.14c0.85,3.54,1.72,7.21,2.92,13.92"/><path d="M26.99,53.91c9.55-0.71,29.75-4.01,36.66-4.28c2.69-0.11,3.94,1.01,3.6,2.07c-1.15,3.64-1.35,6.09-3.21,12.14"/><path d="M29.79,67.25c7.68-0.71,24.73-2.89,35.48-3.55"/><path d="M45.19,40.75c0.65,0.47,1.04,2.11,1.17,3.06c0.13,0.94,0,35.52-0.13,41.4"/><path d="M23.05,89.33c0.95,0.84,2.52,1.39,3.47,1.18c0.95-0.21,36.2-9.06,39.04-10.11"/><path d="M58.25,72.6c4.02,3.23,12.25,12.35,13.61,16.56"/></svg>