<svg><path d="M12.76,37.4c0.46,0.51,1.02,1.4,1.12,2.06c0.87,5.79,1.87,13.29,3.12,21.93"/><path d="M14.72,39.35c6.76-0.94,21.05-3.21,25.94-3.57c1.91-0.14,2.79,1.33,2.55,2.75c-0.81,4.82-1.93,9.04-3.25,17.05"/><path d="M17.19,58.68c5.44-0.95,17.5-2.4,25.1-3.28"/><path d="M25.92,17.25c1.08,1,2.26,2.75,2.26,4.47c0,4.78-0.2,43.78-0.2,57.16"/><path d="M12.57,86.2c0.56,1.24,2.3,1.19,2.86,0.88C16,86.77,37.9,74.09,41.38,71.62"/><path d="M35.75,63.5c3.46,2.89,8.94,11.89,9.81,16.39"/><path d="M50.75,27.89c1.1,0.38,3.11,0.92,4.21,0.88c8.94-0.27,28.23-1.77,35.2-2.38c1.82-0.16,2.93,0.18,3.84,0.37"/><path d="M52,46.74c1.35,0.43,3.81,1,5.16,0.93c8.34-0.42,22.34-1.99,30.88-2.68c2.23-0.18,3.59,0.2,4.71,0.42"/><path d="M48,67.51c1.26,0.44,3.55,0.48,4.82,0.44c10.23-0.31,32.31-2.03,40.29-2.73c2.08-0.18,3.35,0.21,4.4,0.43"/><path d="M69.87,12.25c1.09,0.5,1.74,2.25,1.96,3.25c0.22,1,0,77.25-0.22,83.5"/></svg>