<svg><path d="M12.76,34.4c0.46,0.51,1.02,1.4,1.12,2.06c0.72,4.83,1.54,12.59,2.52,20.05c0.19,1.48,0.4,2.95,0.6,4.38"/><path d="M14.22,36.48c0.96-0.14,2.09-0.29,3.32-0.45c7.64-1.01,19.49-2.43,23.81-2.75c1.96-0.14,2.86,1.38,2.62,2.83c-0.67,3.97-1.85,8.51-2.99,14.39c-0.29,1.48-0.57,3.06-0.85,4.72"/><path d="M17.26,57.93c4.75-0.83,14.07-1.68,21.55-2.48c1.31-0.14,2.55-0.28,3.71-0.41"/><path d="M25.92,16.25c1.08,1,2.26,2.75,2.26,4.47c0,4.21-0.15,35.25-0.19,51.78c0,2.27-0.01,4.26-0.01,5.88"/><path d="M13.57,84.78c0.55,1.14,2.26,1.1,2.82,0.81c0.55-0.28,22.58-12.44,26-14.72"/><path d="M37.5,63c2.84,2.72,7.35,11.17,8.06,15.39"/><path d="M50.35,20.13c1.29,0.66,2.65,1.16,3.72,0.98c5.17-0.86,16.25-3.3,18.4-3.79c2.15-0.49,3.06,0.74,2.65,2.15c-0.61,2.12-1.66,8.27-2.38,12.82c-0.31,1.95-0.56,3.6-0.7,4.52"/><path d="M57.75,38.75c2.18,0,11.09-1.5,12.64-1.5s3.11-0.5,4.36-0.5"/><path d="M56.09,36.73c0.43,0.97,0.55,1.86,0.43,3.14c-0.27,2.89-4.91,15.82-5.05,16.79c-0.14,0.96,1,2.38,2.14,1.9s14.52-2.38,16.79-3.1c2.28-0.72,3.44,1.39,3.27,3.12c-0.85,8.93-4.57,22.77-8.04,31.45c-3.38,8.48-7.19,1.45-8.76-0.96"/><path d="M90.32,14.25c0.92,0.62,1.47,2.8,1.65,4.05c0.16,1.06,0.05,48.32-0.11,73.31c-0.03,4.27-0.05,5.26-0.08,6.39"/></svg>