<svg><path d="M14.26,35.4c0.46,0.51,1.02,1.4,1.12,2.06c0.87,5.79,1.87,13.29,3.12,21.93"/><path d="M16.22,37.48c6.93-0.97,21.61-3.83,26.63-4.2c1.96-0.14,2.86,1.38,2.62,2.83c-0.83,4.98-1.98,9.84-3.33,18.12"/><path d="M18.76,57.43c5.58-0.98,17.96-2.48,25.76-3.39"/><path d="M27.42,15.75c1.08,1,2.26,2.75,2.26,4.47c0,4.78-0.2,44.78-0.2,58.16"/><path d="M13.57,84.77c0.6,1.16,2.46,1.11,3.06,0.82c0.6-0.29,23.04-12.65,26.76-14.97"/><path d="M37.5,62.75c3.2,3.03,8.26,11.94,9.06,16.64"/><path d="M59,20.25c4.24,1.81,10.94,7.44,12,10.25"/><path d="M54.25,41.25c4.15,1.59,10.71,6.53,11.75,9"/><path d="M50.75,67.75c0.65,0.25,2.4,0.93,4.13,0.75c7.12-0.75,30.62-7,40.85-7c1.74,0,2.18-0.25,3.26,0"/><path d="M79.83,11c1.13,0.52,1.81,2.34,2.03,3.37s0,78.64-0.23,85.13"/></svg>