<svg><path d="M26.85,19.14c2.13,0.35,2.39,0.86,6.64,0.35c4.25-0.52,34.31-6,37.24-6.52c2.92-0.52,5.15,1.96,3.99,3.79C60,40,38.17,55.76,14.25,64.21"/><path d="M49.7,21.38c2.42,1.27,6.26,5.23,6.87,7.21"/><path d="M32.28,19.77c5.87,1.03,34.56,28.65,55,39.96c3.18,1.76,5.5,2.93,8.47,3.52"/><path d="M25.45,33.63c3.39,1.85,8.77,7.59,9.62,10.46"/><path d="M34.06,62.98c0.64,0.38,1.09,1.31,1.21,1.8c0.86,3.59,1.75,8.33,2.96,15.14"/><path d="M35.74,64.43c9.69-0.72,29.9-2.79,36.92-3.07c2.73-0.11,2.86,1.15,2.59,2.75c-0.63,3.71-1.51,5.86-3.4,11.99"/><path d="M38.59,78.47c7.8-0.72,24.09-1.84,35-2.51"/><path d="M52.84,50.22c0.78,0.27,1.25,1.23,1.4,1.78c0.16,0.55,0,35.72-0.16,39.15"/><path d="M27.78,95.04c1.01,0.72,3.12,1.12,4.13,0.94c1.01-0.18,37.86-7.94,44.13-9.38"/><path d="M70.85,82.34c4.62,2.6,11.92,10.69,13.07,14.74"/></svg>