<svg><path d="M11.76,37.76c0.43,0.6,0.96,1.64,1.05,2.42c0.81,6.79,1.75,15.58,2.92,25.71"/><path d="M13.59,39.7c6.49-1.14,19.72-2.99,24.42-3.43c1.83-0.17,2.68,1.61,2.45,3.32c-0.78,5.83-2.35,12.53-3.62,22.23"/><path d="M14.97,64.09c5.32-0.6,15.78-1.59,24.11-2.47"/><path d="M24.42,17.25c1.08,1,2.26,2.75,2.26,4.47c0,4.78-0.2,49.78-0.2,63.16"/><path d="M10.57,91.27c0.6,1.16,2.46,1.11,3.06,0.82c0.6-0.29,22.04-11.15,25.76-13.47"/><path d="M34,69.5c3.2,2.89,8.26,11.89,9.06,16.39"/><path d="M62.61,13c0.05,0.81,0.25,2.16-0.09,3.26c-2.27,7.19-8.43,20.71-16.91,31.22"/><path d="M58.49,31.18c0.98,0.61,2.35,0.82,3.92,0.41s23.59-4.78,27.49-5.14c1.85-0.17,3.95,1.12,3.87,3.41c-0.27,6.89-2.52,26.14-8.6,39.21c-1.84,3.95-3.96,1.53-6.27-1.02"/><path d="M53.53,45.24c1.28,0.94,2.37,0.94,4.25,0.63c3.81-0.63,15.64-2.27,16.8-2.39c1.54-0.16,2.75,1.03,2.2,3.47C76.62,47.68,75,54,73.16,60.48"/><path d="M56.74,62.85c4.12-0.45,12.57-1.79,18.43-2.18"/><path d="M55.52,46.52c-0.02,1.73,0.52,2.39,0.51,4.09C56,56.04,55.67,79.86,55.67,84.6c0,10.3,1.39,11.08,22.07,11.08c17.28,0,19.4-0.94,19.4-12.39"/></svg>