<svg><path d="M12.26,37.9c0.46,0.51,1.02,1.4,1.12,2.06c0.87,5.79,1.87,13.29,3.12,21.93"/><path d="M14.22,40.48c6.93-0.97,19.61-2.83,24.63-3.2c1.96-0.14,2.86,1.38,2.62,2.83c-0.83,4.98-1.98,9.84-3.33,18.12"/><path d="M16.76,60.43c6.24-0.68,15.96-1.48,23.76-2.39"/><path d="M25.42,19.25c1.08,1,2.26,2.75,2.26,4.47c0,4.78-0.2,42.28-0.2,55.66"/><path d="M11.57,86.25c0.57,1.18,2.32,1.13,2.89,0.84c0.57-0.29,23.16-12.86,26.68-15.22"/><path d="M36.5,65.25c2.84,2.5,7.35,10.26,8.06,14.14"/><path d="M46.86,36.52c1.62,0.46,4.6,0.57,6.22,0.46c11.94-0.84,20.3-2.73,39.88-3.83c2.7-0.15,4.33,0.22,5.68,0.45"/><path d="M57.17,17.37c1.07,0.49,1.71,2.19,1.93,3.17c0.21,0.98,0,68.12-0.21,74.21"/><path d="M82.12,15.5c1.07,0.49,1.71,2.19,1.93,3.17c0.21,0.98,0,67.51-0.21,73.6"/><path d="M59.76,61.34c5.49-0.34,20.28-1.93,23.23-1.93"/><path d="M59.76,91.65c6.4-0.24,17.08-1.71,22.98-1.95"/></svg>