<svg><path d="M12.76,35.65c0.44,0.51,0.98,1.4,1.08,2.06c0.71,4.92,1.14,10.06,2.29,18.09c0.2,1.43,0.43,2.95,0.68,4.59"/><path d="M14.91,37.48c6.07-0.89,17.66-2.06,23.34-2.58c3.08-0.28,4.27,0.76,3.77,3.85c-0.71,4.43-1.31,8.09-2.51,15.72"/><path d="M17.81,57.93c5.94-0.68,12.9-1.53,20.17-2.24c1.5-0.15,2.96-0.28,4.34-0.4"/><path d="M26.42,17.25c1.16,1.17,1.51,2.62,1.51,4.72c0,4.78,0.05,48.03,0.05,54.91"/><path d="M11.32,85.52c1.06,0.98,2.38,1.49,3.81,0.57c5.37-3.46,21.29-13.4,25.01-15.72"/><path d="M37,63.75c2.67,2.98,7.39,10.76,8.06,15.39"/><path d="M70.73,14.74c1.08,1.08,1.32,2.38,1.32,3.97c0,3.66-0.04,7.9-0.04,11.16"/><path d="M52.38,32.49c0,3.62-1.85,11.09-2.92,13.51"/><path d="M53.17,33.86c12.58-2.11,31.08-4.61,39.79-4.59c7.04,0.02-0.51,6.19-2.26,7.87"/><path d="M90.53,48.26c0,1.11-0.63,2.15-1.22,2.78c-3.32,3.6-11.1,9.64-22.01,14.83"/><path d="M63,41.88c0.93,0.93,1.23,2.43,1.23,3.8c0,4.57-0.09,32.07-0.09,37.13c0,10.57,1.11,11.46,16.4,11.46c13.96,0,15.26-1.77,15.26-13.53"/></svg>