<svg><path d="M12.76,39.4c0.44,0.51,0.98,1.4,1.08,2.06c0.83,5.79,1.29,11.54,2.97,22.43"/><path d="M14.16,41.48c6.65-0.97,20.23-2.83,25.04-3.2c1.88-0.14,2.74,1.38,2.51,2.83c-0.8,4.98-1.4,9.34-2.7,17.62"/><path d="M17.06,61.93c5.35-0.98,16.19-2.68,24.26-3.39"/><path d="M25.92,20.25c1.08,1,2.26,2.75,2.26,4.47c0,4.78-0.2,42.28-0.2,55.66"/><path d="M11.57,88.77c0.6,1.16,2.46,1.11,3.06,0.82c0.6-0.29,22.04-13.65,25.76-15.97"/><path d="M37.25,66.75c2.42,3.03,6.7,10.93,7.31,15.64"/><path d="M67.15,12.5c0.07,1.01,0.3,2.66-0.14,4.07C64.25,25.5,55.5,43.75,45.25,54.6"/><path d="M67.17,17.29c4.53,5.36,21,27.04,24.82,31.5c1.3,1.51,2.96,2.16,4.26,2.59"/><path d="M62.2,41.83c4.14,2.1,10.71,8.62,11.74,11.88"/><path d="M51.19,61.87c1.07,0.88,3.33,1.31,4.55,1.08c2.41-0.44,27.75-4.31,30.29-4.75c2.54-0.44,3.18,1.04,1.35,3.38c-4.28,5.48-16.57,20.49-18.18,22.25"/><path d="M57.25,76.9c4.35,2.62,15.62,12.73,17.67,19.6"/></svg>