<svg><path d="M14.26,36.9c0.46,0.51,1.02,1.4,1.12,2.06c0.87,5.79,1.37,13.29,2.62,21.93"/><path d="M16.22,38.48c6.93-0.97,19.11-2.33,24.13-2.7c1.96-0.14,2.86,1.38,2.62,2.83c-0.83,4.98-1.98,10.34-3.33,18.62"/><path d="M18.26,59.43c5.58-0.98,15.96-1.48,23.76-2.39"/><path d="M26.92,16.75c1.08,1,2.26,2.75,2.26,4.47c0,4.78-0.2,44.78-0.2,58.16"/><path d="M13.57,85.77c0.6,1.16,2.46,1.11,3.06,0.82c0.6-0.29,21.54-11.65,25.26-13.97"/><path d="M37.75,64.5c2.4,2.81,6.21,11.53,6.81,15.89"/><path d="M48.05,42.71c0.74,0.27,2.73,0.94,4.71,0.8c11.33-0.85,25.75-3.26,36.53-3.69c1.98-0.08,3.48,0.23,4.72,0.5"/><path d="M68.15,15c1.43,0.66,2.58,2.93,2.58,4.28c0,22.97-0.29,37.47-0.29,47.33"/><path d="M52.54,66.39c0.35,0.86,0.77,1.45,0.89,2.1c0.88,4.75,2.84,17.52,4.07,26.51"/><path d="M54.56,68.69c8.39-0.89,27.24-3.67,32.96-3.81c2.37-0.06,3.14,1.76,2.93,3.12c-0.78,5.13-2.3,15.37-3.58,22.18"/><path d="M57.7,93.47c6.94-0.38,23.39-2.15,31.72-2.63"/></svg>