<svg><path d="M25.14,19.43c4.98,4.74,10.31,13.04,11.02,15.41"/><path d="M49.16,15.32c2.14,3.02,7.04,10.93,7.89,15.83"/><path d="M83.69,13.47c0,0.91-0.07,1.91-0.67,2.95c-1.38,2.42-7.9,11.08-12.08,15.06"/><path d="M21.08,41.3c0,3.17-3.48,12.37-4.83,14.48"/><path d="M21.89,42.85c18.86-2.1,45.48-4.85,63.61-5.58c9.52-0.38,8.13,3.1,0.38,8.69"/><path d="M28.39,60.35c0.86,0.65,1.44,1.95,1.7,3.17c0.67,3.08,1.24,7.1,2.14,11.74c0.27,1.4,0.56,2.89,0.86,4.48"/><path d="M30.59,62c12.05-1.15,36.96-3.11,47.3-3.92c3.6-0.28,4.49,1.17,3.69,4.21c-0.93,3.53-1.41,4.82-3.49,11.13"/><path d="M33.52,77.59c7.72-0.67,27.22-2.3,40.98-3.18c2.39-0.15,4.62-0.29,6.59-0.4"/><path d="M53.13,46.22c1.08,1.08,1.28,2.65,1.28,3.91c0,6.62-0.04,30.03-0.04,41"/><path d="M26.98,96.5c1.02,1,2.27,1.2,3.38,1.01c1.11-0.19,41.32-8.61,48.2-10.12"/><path d="M72.85,81c4.98,2.99,12.86,12.31,14.11,16.96"/></svg>