<svg><path d="M11.26,39.4c0.46,0.51,1.02,1.4,1.12,2.06c0.87,5.79,2.37,14.29,3.62,22.93"/><path d="M13.22,41.48c6.93-0.97,21.61-2.83,26.63-3.2c1.96-0.14,2.86,1.38,2.62,2.83c-0.83,4.98-2.48,9.84-3.83,18.12"/><path d="M16.26,62.43c5.58-0.98,16.96-2.48,24.76-3.39"/><path d="M25.42,21.25c1.08,1,2.26,2.75,2.26,4.47c0,4.78-0.2,41.78-0.2,55.16"/><path d="M10.57,89.14c0.58,1.32,2.36,1.26,2.94,0.93c0.58-0.33,23.56-14.32,27.13-16.95"/><path d="M36,66.25c2.84,2.76,7.35,11.35,8.06,15.64"/><path d="M55.46,20.09c0.59,1.03,0.98,2.05,1.18,3.06c0.2,1.01,0.43,64.08,0.36,66.31"/><path d="M57.8,21.23c2.27-0.1,21.12-2.98,22.81-3.16c3.03-0.31,4.18,3.51,3.81,4.98c-0.36,1.41-0.18,42.21-0.29,62.39"/><path d="M57.88,42.9c7.76-1,18.45-1.94,25.27-2.25"/><path d="M58.34,61.86c6.06-0.36,17.32-1.76,24.33-1.81"/><path d="M41.54,90.32c1.47,0.54,4.16,0.63,5.63,0.54c15.27-0.91,30.96-3.63,46.33-3.63c2.45,0,3.92,0.26,5.14,0.53"/></svg>