<svg><path d="M13.76,33.4c0.86,0.86,1.08,1.39,1.12,2.06c0.49,7.41,0.99,11.29,1.37,22.93"/><path d="M15.97,35.48c6.42-0.9,16.21-2.13,21.65-2.6c3.29-0.29,4.09,1.26,3.73,3.39c-0.82,4.88-1.68,10.04-2.97,17.96"/><path d="M17.26,56.93c5.71-0.56,10.52-0.74,17.62-1.11c1.59-0.08,3.29-0.17,5.14-0.28"/><path d="M25.92,14.25c1.23,1.23,1.51,2.75,1.51,4.47c0,4.78,0.05,44.78,0.05,58.16"/><path d="M11.57,83.77c1.48,1.14,2.84,1.23,4.09,0.29c4.4-2.32,17.71-9.55,22.97-12.56"/><path d="M35,62.25c2.67,2.5,6.75,9.38,8.06,13.89"/><path d="M49.34,19.59c3.05,0.75,6.03,0.27,9.17-0.03c9.62-0.94,19.4-2.2,29.24-2.64c2.32-0.29,4.25-0.17,6.88,0.19"/><path d="M52.72,20.96c1.03,1.03,0.92,2.16,0.93,4.13c0.1,25.9-0.9,50.65-12.1,63.11"/><path d="M55.44,40.86c1.19,0.14,3.59,0.03,4.58-0.1c7.74-1.01,17.11-1.76,29.48-3.22c2.06-0.24,4.05-0.58,6.12-0.27"/><path d="M74.44,49.27c5.34,1.78,8.31,2.46,13.56,3.51c3.62,0.72,4.24,2.53,3.49,5.06c-3.46,11.66-6.74,21.79-10.51,30.6c-2.96,6.93-4.98,5.31-8.69,1.9"/><path d="M72.92,43.04c0.58,1.21,0.7,2.58,0.39,4.14c-2.06,10.32-9.18,32.07-20.03,42.23"/></svg>