<svg><path d="M13.76,35.4c0.46,0.51,1.02,1.4,1.12,2.06c0.87,5.79,1.87,14.29,3.12,22.93"/><path d="M15.22,37.98c6.93-0.97,20.61-2.83,25.63-3.2c1.96-0.14,2.86,1.38,2.62,2.83c-0.83,4.98-1.98,9.84-3.33,18.12"/><path d="M18.26,58.43c5.58-0.98,16.46-1.98,24.26-2.89"/><path d="M26.92,16.75c1.08,1,2.26,2.75,2.26,4.47c0,4.78-0.2,43.78-0.2,57.16"/><path d="M13.07,85.77c0.6,1.16,2.46,1.11,3.06,0.82c0.6-0.29,21.04-12.65,24.76-14.97"/><path d="M36.75,63c2.58,2.81,6.66,11.53,7.31,15.89"/><path d="M86.25,14.25c0.09,0.4-0.71,2.52-1.23,2.95c-3.95,3.29-14,8.73-31.52,13.3"/><path d="M47.33,47.66c1.02,0.34,3.58,0.43,4.6,0.34c8.82-0.75,29.71-3.77,41.91-3.97c1.71-0.03,2.73,0.16,3.58,0.34"/><path d="M69.42,27.5c0.55,0.38,1.72,2.87,1.83,3.64c0.21,1.43-0.07,30.06-0.18,35"/><path d="M52.25,66.08c0.72,0.46,1.65,2.3,1.78,2.93c1.72,8.49,2.97,15.9,3.71,25.74"/><path d="M54.37,68.56c11.33-1.33,26.39-3.38,32.76-3.93c2.33-0.2,3,2.02,2.67,3.2c-1.38,4.85-2.79,15.42-3.77,22.92"/><path d="M58.01,92.82c7.48-0.62,20.35-1.18,30.62-2.13"/></svg>