<svg><path d="M13.26,37.4c0.42,0.51,0.93,1.4,1.02,2.06c0.79,5.79,1.7,13.79,2.85,22.43"/><path d="M15.05,39.48c6.32-0.97,19.71-3.83,24.28-4.2c1.78-0.14,2.61,1.38,2.39,2.83c-0.76,4.98-1.8,10.34-3.04,18.62"/><path d="M17.36,59.93c5.09-0.98,16.38-2.48,23.5-3.39"/><path d="M25.42,16.75c1.08,1,2.26,2.75,2.26,4.47c0,4.78-0.2,43.28-0.2,56.66"/><path d="M12.07,85.3c0.55,1.12,2.24,1.08,2.79,0.79c0.55-0.28,22.38-12.23,25.77-14.48"/><path d="M36,63.75c2.67,2.5,6.89,10.26,7.56,14.14"/><path d="M67.51,14.5c0.93,0.61,2.46,2.95,2.46,4.15c0,4.77-0.03,8.33-0.12,11.76"/><path d="M46,32.1c1.23,0.06,4.03,0.45,5.23,0.35c8.71-0.72,29.52-3.2,40.61-3.23c2.03-0.01,3.06,0.03,4.57,0.44"/><path d="M59.95,36.09c0.25,0.75-0.01,2.51-0.6,3.73C57.01,44.68,52.78,49.95,48,54.2"/><path d="M77.77,36.98c6.5,4.32,11.88,9.3,15.13,14.54"/><path d="M79.82,45.91c0.49,1.11,0.53,3.03-0.15,5.08C73.43,69.7,59.93,86.7,42.5,96.65"/><path d="M57.84,52.27c3.66,4.98,17.98,26.22,27.84,37.37c1.85,2.1,3.83,3.85,6.33,5.75"/></svg>