<svg><path d="M12.26,37.4c0.46,0.51,1.02,1.4,1.12,2.06c0.87,5.79,2.37,12.79,3.62,21.43"/><path d="M14.22,39.48c6.93-0.97,20.61-3.33,25.63-3.7c1.96-0.14,2.86,1.38,2.62,2.83c-0.83,4.98-1.48,9.34-2.83,17.62"/><path d="M17.26,58.93c5.58-0.98,16.96-1.98,24.76-2.89"/><path d="M25.42,19.25c1.08,1,2.26,2.75,2.26,4.47c0,4.78-0.2,42.28-0.2,55.66"/><path d="M12.07,86.15c0.58,1.3,2.38,1.24,2.96,0.92c0.58-0.32,22.75-13.61,26.35-16.2"/><path d="M36.25,63.25c3.11,2.76,8.03,11.35,8.81,15.64"/><path d="M49.75,23.75c1,0.75,1.28,3.08,1.28,4.98c0,13.02,1.05,38.27,1.05,63.27"/><path d="M50.94,25.15c11.81-1.4,33.36-3.4,40.63-4.15c1.11-0.11,2.45,0.75,2.45,3.5c0,14-0.21,45.75-0.21,65"/><path d="M60.62,41.14c0.26,0.52,0.53,0.96,0.64,1.62c0.91,5.19,2.46,18.17,3.23,27.5"/><path d="M61.73,42.78c6.27-1.03,14.25-2.43,17.02-2.79c1.81-0.24,2.47,1.11,2.32,2.21c-0.6,4.55-2.08,17.55-2.96,23.85"/><path d="M64.81,68.25c4.76-0.5,10.54-1.75,15.65-1.64"/><path d="M53.51,89.01C61.45,88.5,80,87.5,92.64,87"/></svg>