<svg><path d="M11.76,36.9c0.46,0.51,1.02,1.4,1.12,2.06c0.87,5.79,1.87,13.79,3.12,22.43"/><path d="M13.72,38.98c6.93-0.97,19.11-3.33,24.13-3.7c1.96-0.14,2.86,1.38,2.62,2.83c-0.83,4.98-1.98,10.34-3.33,18.62"/><path d="M16.26,59.43c5.58-0.98,15.46-1.98,23.26-2.89"/><path d="M24.42,16.25c1.08,1,2.26,2.75,2.26,4.47c0,4.78-0.2,44.28-0.2,57.66"/><path d="M10.57,85.27c0.6,1.16,2.46,1.11,3.06,0.82c0.6-0.29,22.04-12.15,25.76-14.47"/><path d="M35.25,64c2.4,2.45,6.21,10.08,6.81,13.89"/><path d="M55,23.36c0.02,0.45,0.09,1.28-0.05,1.79c-1.72,6.27-4.26,12.03-8.73,17.09"/><path d="M53.49,35c0.67,0.27,2.41,0.3,3.08,0.27c7.01-0.31,18.48-3.2,27.01-4.1c1.12-0.12,1.8,0.13,2.36,0.27"/><path d="M46.89,52.5c0.68,0.24,2.5,0.38,4.32,0.23c9.04-0.73,24.88-2.12,37.39-3.34c1.81-0.18,3.42,0.24,4.56,0.49"/><path d="M64.48,13.75c1.14,0.49,1.82,2.2,2.05,3.17s0,73.97-0.23,80.08"/><path d="M66.25,54.04c-4.91,10.94-17.6,27.52-27.8,33.71"/><path d="M66.85,54.81C70.3,61.02,84.86,78.76,90,83.95c1.28,1.3,2.31,1.96,3.55,2.35"/></svg>