<svg><path d="M12.76,38.4c0.46,0.51,1.02,1.4,1.12,2.06c0.87,5.79,1.87,13.29,3.12,21.93"/><path d="M14.72,40.48c6.93-0.97,19.11-3.83,24.13-4.2c1.96-0.14,2.86,1.38,2.62,2.83c-0.83,4.98-1.98,10.34-3.33,18.62"/><path d="M17.26,60.43c5.58-0.98,15.46-1.98,23.26-2.89"/><path d="M25.42,18.75c1.08,1,2.26,2.75,2.26,4.47c0,4.78-0.2,44.78-0.2,58.16"/><path d="M11.57,87.77c0.6,1.16,2.46,1.11,3.06,0.82c0.6-0.29,24.04-12.65,27.76-14.97"/><path d="M37.5,65.75c2.75,2.63,7.12,10.81,7.81,14.89"/><path d="M45.25,22.16c0.79,0.4,2.24,0.47,3.03,0.4c10.86-1.07,28.54-3.27,41.77-3.76c1.32-0.05,2.11,0.19,2.77,0.39"/><path d="M63.71,24.15c0.46,0.55,0.63,2.29,0.28,2.94C59.92,34.56,56.62,39.37,51,46.57c-1.81,2.32-1.94,3.89,0.97,3.2c6.79-1.6,22.69-5.87,33.39-8.51"/><path d="M79.31,32.16c3.9,3.06,10.08,12.59,11.05,17.35"/><path d="M51.21,68.4c0.76,0.33,2.16,0.4,2.92,0.33c7.84-0.8,26.41-3.68,33.54-3.68c1.27,0,2.03,0.15,2.66,0.32"/><path d="M68.11,52.06c0.09,0.25,1.4,1.29,1.37,2.87c-0.15,9.02-0.07,30.77-0.07,33.34"/><path d="M43.38,91.33c1.18,0.46,3.34,0.55,4.52,0.46c12.86-1.04,24.05-3.77,46.61-3.89c1.96-0.01,3.14,0.22,4.12,0.45"/></svg>