<svg><path d="M11.26,38.98c0.44,0.53,0.98,1.45,1.08,2.14c0.83,6.01,1.79,13.8,3,22.77"/><path d="M13.14,41.14c6.66-1.01,21.24-3.48,26.06-3.86c1.88-0.15,2.75,1.43,2.51,2.94c-0.8,5.17-2.4,9.72-3.7,18.31"/><path d="M15.58,61.86c5.36-1.01,16.24-1.58,23.73-2.52"/><path d="M24.42,20.25c1.08,1,2.26,2.75,2.26,4.47c0,4.78-0.2,44.78-0.2,58.16"/><path d="M10.57,88.77c0.6,1.16,2.46,1.11,3.06,0.82c0.6-0.29,24.04-12.65,27.76-14.97"/><path d="M36.5,66.5c2.84,2.89,7.35,11.89,8.06,16.39"/><path d="M65.92,17.5c0.06,0.89-0.21,2.37-0.63,3.57c-2.92,8.3-9.28,23.26-21.72,33.62"/><path d="M66.58,20.58c3.84,5.9,20.39,25.16,24.62,29.48c1.44,1.47,3.28,2.09,4.72,2.51"/><path d="M56.05,51.39c0.48,0.24,2.71,0.26,3.19,0.24c4.99-0.27,11.13-2.16,18.26-2.2c0.8-0.01,1.96,0.11,2.36,0.23"/><path d="M52.09,66.33c0.47,0.59,1.53,2.01,1.65,2.79c1.56,10.15,1.74,14.95,2.8,23.41"/><path d="M54.81,67.34c10.94-1.59,23.12-2.52,28.58-3.29c1.99-0.28,3.19,1.67,2.91,3.32c-1.18,6.85-1.89,10.74-4.32,20.33"/><path d="M56.75,90.31c6.41-0.87,17.82-1.11,27.22-1.75"/></svg>