<svg><path d="M25,25.05c1.5,0.36,4.25,0.89,5.74,0.86c8.95-0.2,34.26-2.41,48.78-3.3c2.49-0.15,3.99,0.17,5.24,0.35"/><path d="M39.87,12.75c1.09,0.48,1.94,2.16,1.96,3.15c0.17,7.03,0.67,15.85,0.92,24.84"/><path d="M66.12,11.5c1.09,0.55,2.01,2.44,1.96,3.56c-0.33,7.69-1.33,16.44-2.33,24.04"/><path d="M17.25,42c1.89,0.35,5.36,0.45,7.25,0.35c12.36-0.65,45.35-3.9,61.14-4.22c3.15-0.06,5.04,0.17,6.62,0.35"/><path d="M41.48,42.68c0.08,0.58,0.38,1.61-0.15,2.31c-3.58,4.75-13.77,15.31-26.52,23.15"/><path d="M67.77,42.45c5.89,5.89,12.65,12.23,19.04,17.17c1.44,1.11,2.86,2.16,4.25,3.1"/><path d="M31.95,63c0.84,0.61,1.43,2.11,1.59,2.91c1.13,5.8,0.76,4.9,2.36,15.89"/><path d="M34.16,64.54c12.72-1.23,30.08-3.05,39.29-3.52c3.59-0.18,4.01,2.02,3.4,4.68c-0.87,3.73-1.65,6.14-2.8,10.8"/><path d="M36.37,79.45c10.23-1.23,26.5-2.03,40.82-3.18"/><path d="M52.26,47.25c1.23,0.48,1.97,2.15,2.22,3.11c0.25,0.96,0.5,35.87,0.25,41.85"/><path d="M28.6,95.91c1.05,0.55,1.68,1.24,2.72,1.1c1.05-0.14,40.21-6.48,46.7-7.58"/><path d="M70.36,82.25c5.03,2.87,12.99,11.78,14.25,16.24"/></svg>