<svg><path d="M53.6,10.02c0.94,0.94,1.22,2.11,1.22,3.7c0,2.16-0.06,3.75-0.06,6.04"/><path d="M22.05,22.21c2.87,0.91,5.77,0.49,8.7,0.23c11.8-1.06,38.45-3.13,52.76-3.69c3.27-0.13,6.39-0.4,9.5,0.77"/><path d="M46.96,25.01c0.54,0.84,0.71,2,0.55,3.04c-1.76,11.7-6.01,21.45-15.32,27.44"/><path d="M62.93,22.99c0.78,0.73,1.4,1.58,1.4,3.99c0,9.52-0.08,15.32-0.08,19.27c0,8.27-5.24,1.19-6.43,0.2"/><path d="M32.1,33.25c0.11,0.99-0.22,1.71-0.8,2.54c-2.88,4.15-8.17,9.6-15.5,14.54"/><path d="M73.62,31.73c4.89,2.25,12.62,9.25,13.85,12.75"/><path d="M30.8,61.71c1.06,1.06,1.32,2.05,1.58,3.17c0.74,3.24,1.67,6.89,2.55,12.14c0.26,1.57,0.54,3.25,0.83,5.05"/><path d="M32.95,62.99c13.37-1.96,32.74-3.92,41.8-4.43c3.25-0.18,5.58,0.5,4.3,4.27c-1.67,4.92-2.55,8.04-3.92,12.54"/><path d="M36.41,79.27c7.63-0.77,23.44-2.03,35.59-2.96c1.86-0.14,3.62-0.27,5.25-0.38"/><path d="M53.08,52.5c0.84,0.84,1.27,2.25,1.27,3.44c0,0.7-0.1,30.73-0.1,36.68"/><path d="M26.75,97.04c0.98,0.98,2.07,1.13,3.06,0.98c0.98-0.15,44.48-7.46,50.58-8.68"/><path d="M74.74,83.61c5.11,2.7,13.19,11.1,14.46,15.29"/></svg>