<svg><path d="M11.76,37.9c0.46,0.51,1.02,1.4,1.12,2.06c0.87,5.79,3.37,13.79,4.62,22.43"/><path d="M13.72,39.98c6.93-0.97,21.61-3.33,26.63-3.7c1.96-0.14,2.86,1.38,2.62,2.83c-0.83,4.98-1.98,9.34-3.33,17.62"/><path d="M17.76,59.43c5.58-0.98,15.96-1.98,23.76-2.89"/><path d="M25.92,18.25c1.08,1,2.26,2.75,2.26,4.47c0,4.78-0.2,44.78-0.2,58.16"/><path d="M13.57,88.19c0.68,0.81,3.09,1.21,3.6,0.89c0.51-0.31,19.81-13.69,22.97-16.21"/><path d="M36.5,64.5c3.2,2.63,8.26,10.81,9.06,14.89"/><path d="M49.7,17.68c1.1,0.46,3.6,0.98,4.85,0.84C59.25,18,76,15.75,83.11,14.49c2.97-0.52,3.31,1.7,1.95,3.1c-1.02,1.05-12.31,10.28-13.96,11.2"/><path d="M59.52,24.28c3.51,1.47,12.59,7.1,14.24,10.93"/><path d="M52.07,39.02c0.55,0.68,0.91,1.36,1.09,2.05c0.18,0.68,0.18,52.5,0.18,54.03"/><path d="M54.26,40.36c6.28-0.28,34.91-3.07,36.58-3.26c2.98-0.34,4.1,2.22,3.73,3.24c-0.36,0.98-0.56,34.93-0.56,48.74c0,9.99-6.83,0.97-8.02,0.38"/><path d="M54.26,55.68c8.31-0.6,32.29-3.08,39-3.59"/><path d="M53.99,70.06c5.96-0.51,32.89-3.14,39.78-3.48"/><path d="M71.41,41.23c0.72,0.33,1.15,1.48,1.3,2.14c0.14,0.66,0,44.31-0.14,48.42"/></svg>