<svg><path d="M13.26,39.4c0.46,0.51,1.02,1.4,1.12,2.06c0.87,5.79,1.87,13.29,3.12,21.93"/><path d="M15.22,41.48c6.93-0.97,20.61-3.33,25.63-3.7c1.96-0.14,2.86,1.38,2.62,2.83c-0.83,4.98-1.98,9.34-3.33,17.62"/><path d="M17.76,61.43c5.58-0.98,16.96-2.48,24.76-3.39"/><path d="M25.92,17.75c1.08,1,2.26,2.75,2.26,4.47c0,4.78-0.2,44.28-0.2,57.66"/><path d="M12.07,85.77c0.6,1.16,2.46,1.11,3.06,0.82c0.6-0.29,23.04-12.15,26.76-14.47"/><path d="M38.5,65.25c2.67,2.94,6.89,12.08,7.56,16.64"/><path d="M69.49,10.5c0.12,0.38,1.67,1.95,1.67,4.34c0,8.16,0.09,21.01,0.09,24.91"/><path d="M 63.980835,22.69875 c 0.03,0.46 0.07,1.19 -0.07,1.85 -0.84,3.9 -8.543334,12.404375 -14.495834,15.796042"/><path d="M 77.085,24.078125 c 5.65375,2.62 11.303334,8.125208 15.268959,14.238958"/><path d="M56.53,39.94c0.62,0.93,1.04,1.85,1.24,2.78s0.29,51.02,0.21,53.1"/><path d="M 58.24625,41.37 c 2.49,-0.23 23.816458,-2.68 25.676458,-2.94 3.32,-0.46 4.15,2.94 4.15,4.4 0,9.99 -0.62,30.4 -0.62,49.17 0,11.25 -5.59,2.58 -7.46,0.96"/><path d="M 58.24625,56.19 c 8.5,-1.39 22.316458,-2.58 29.776458,-3.28"/><path d="M 58.62625,70.86 c 6.63,-0.7 20.906458,-1.82 28.576458,-2.28"/></svg>