<svg><path d="M11.9,37.27c0.79,0.79,1.15,1.59,1.33,2.78c0.88,5.96,1.53,10.45,2.24,16.22c0.21,1.68,0.42,3.48,0.64,5.45"/><path d="M14.05,38.9c7.19-0.83,18.03-2.27,23.8-3.04c3.35-0.44,4.54,0.97,4.17,3.27c-0.9,5.62-1.44,8.33-2.65,16.12"/><path d="M17.11,58.49c4.49-0.53,12.49-1.52,19.14-2.12c1.98-0.18,3.84-0.33,5.45-0.42"/><path d="M26.31,19c0.91,0.91,1.13,1.8,1.13,2.63c0,3.81-0.07,50.11-0.07,55.74"/><path d="M11.28,86.24c1,0.76,2.24,1.25,3.64,0.33c4.3-2.81,19.82-13.04,23.07-15.2"/><path d="M35.84,62.63c2.91,3.87,6.53,10.74,7.83,16.05"/><path d="M65.87,16.64c0,0.86-0.66,1.91-1.28,2.55C61,22.88,57.88,25.12,48,31"/><path d="M46.61,43.7c3.45,0.47,6.12,0.44,9.51-0.09c9.25-1.48,23.54-3.34,33.1-4.32c2.76-0.49,5.52-0.51,8.27-0.05"/><path d="M60.32,28.33c1.05,1.05,1.14,2.54,1.14,4.27c0,14.56,0.01,50.91-0.01,55.87c-0.04,9.28-5.57,1-7.07-0.25"/><path d="M46.73,69.59c1.65,0.91,2.79,0.78,4.56-0.51C55.5,66,61.88,60.62,68.94,54.5"/><path d="M73.82,14.75c1.21,1.21,1.46,2.69,1.52,6.41c0.53,32.09,6.87,62.3,18.08,71.61c3.87,3.21,3.17,0.99,2.7-6.64"/><path d="M93.11,49.14c-0.18,1.51-0.7,2.88-1.54,4.1C87.19,60.58,79.12,70.85,69.5,80"/><path d="M82.86,19.5c3.01,2.5,7.82,8.21,9.22,12.5"/></svg>