<svg><path d="M10.26,38.86c0.46,0.5,1.02,1.37,1.12,2.02c0.87,5.68,1.87,13.04,3.12,21.51"/><path d="M11.72,40.4c6.93-0.95,21.61-3.26,26.63-3.62c1.96-0.14,2.86,1.35,2.62,2.78c-0.83,4.88-2.48,10.15-3.83,18.27"/><path d="M14.76,59.97c5.58-0.96,16.96-1.43,24.76-2.32"/><path d="M23.42,17.25c1.08,1,2.26,2.75,2.26,4.47c0,4.78-0.2,45.28-0.2,58.66"/><path d="M11.57,85.77c0.6,1.16,2.46,1.11,3.06,0.82c0.6-0.29,20.04-11.65,23.76-13.97"/><path d="M34.25,65.25c2.75,2.76,7.12,11.35,7.81,15.64"/><path d="M65.05,15.21c0.05,0.36,0.23,1-0.11,1.45c-2.68,3.59-11.43,10.09-19.85,13.92"/><path d="M44.87,45.53c0.28,0.11,1.01,0.29,1.75,0.33c2.02,0.11,19.04-2.58,24.09-3.14c0.73-0.08,0.92-0.11,1.38,0"/><path d="M59.49,26.73c0.58,0.46,1.03,3.52,1.03,4.45c0,5.46,0,58.52-0.11,64.34"/><path d="M60.28,46.43c-2.79,7.32-7.46,16.35-13.79,22.34"/><path d="M62.93,52.3c3.79,2.07,7,6.2,9.04,8.86"/><path d="M78.5,23.62c0.64,0.87,1.08,1.9,1.14,4.79c0.26,13.88-0.01,42.8-0.01,47.53"/><path d="M93.71,15.83c1.01,0.88,1.72,1.91,1.8,4.83c0.41,14.01-0.26,64.49-0.26,69.26c0,11.34-6.89,1.45-8.43,0.24"/></svg>