<svg><path d="M11.26,34.37c0.46,0.62,1.02,1.7,1.12,2.52c0.87,7.06,1.87,16.21,3.12,26.76"/><path d="M12.72,36.4c6.93-1.19,21.11-2.68,26.13-3.13c1.96-0.18,2.86,1.68,2.62,3.46c-0.83,6.07-1.98,12.01-3.33,22.1"/><path d="M15.76,61.25C23,60,30.25,60,40.52,59.11"/><path d="M24.42,15.75c1.08,1,2.26,2.75,2.26,4.47c0,4.78-0.2,50.78-0.2,64.16"/><path d="M12.07,89.77c1.18,0.73,2.96,0.61,3.56,0.32c0.6-0.29,20.54-10.65,24.26-12.97"/><path d="M34.25,68.75c2.93,2.67,7.57,10.99,8.31,15.14"/><path d="M53.19,17.27c0.48,1.09,1.18,1.9,1.18,3.35c0,1.45-0.16,42.42,0,43.88"/><path d="M55.17,18.74c2.71-0.18,23.39-3.03,25.86-3.25c2.06-0.18,3.68,1.02,3.51,2.36c-0.22,1.71-0.96,43.8-0.96,44.89"/><path d="M55.12,33.06c3.88,0,22.99-2.95,27.34-2.95"/><path d="M55.34,46.97c7.87-0.52,20.16-2.22,27.8-2.68"/><path d="M56.04,61.84c5.39,0,19.82-2.18,26.8-2.18"/><path d="M62.24,65.75c0.06,0.74,0.14,1.92-0.13,2.98C60.53,75.01,52.25,90,39,97.25"/><path d="M72.36,61.97c0.43,1.1,0.8,2.4,0.8,4.11c0,5.93,0.18,11.32,0.18,16.69c0,10.99,1.42,12.34,10.66,12.34c10.25,0,11.75-1.36,11.75-9.45"/></svg>