<svg><path d="M11.76,35.25c0.46,0.53,1.02,1.46,1.12,2.16c0.87,6.07,1.87,13.93,3.12,22.98"/><path d="M13.72,36.93c8.03-0.93,20.11-2.51,25.13-2.9c1.96-0.15,2.86,1.44,2.62,2.97c-0.83,5.22-1.98,10.31-3.33,18.98"/><path d="M16.26,58.34c5.58-1.02,16.46-1.6,24.26-2.55"/><path d="M24.92,17.25c1.08,1,2.26,2.75,2.26,4.47c0,4.78-0.2,43.28-0.2,56.66"/><path d="M11.07,86.15c1.18,0.85,4.2,0.24,4.74-0.08c0.54-0.32,20.99-13.61,24.32-16.2"/><path d="M35,62.75c2.84,2.41,7.35,9.9,8.06,13.64"/><path d="M84.91,11.54c0.1,0.29,0.2,0.76-0.2,1.18c-2.37,2.48-16.66,9.05-34.59,11.26"/><path d="M54.17,28.34c0.02,0.39,0.05,1-0.05,1.56c-0.6,3.29-4.03,10.51-8.72,14.93"/><path d="M65.77,27.49c2.26,2.09,5.85,8.59,6.41,11.84"/><path d="M81.86,23.76c4.74,3.06,12.25,12.58,13.43,17.34"/><path d="M53.17,46.62c0.85,0.26,2.45,0.67,3.73,0.44c1.56-0.28,28.43-3.56,29.91-3.56c1.48,0,2.19,0.78,0.7,2.34c-1.48,1.56-14.81,9.99-18.57,12.82"/><path d="M65.93,60.04c16.19,7.85,9.59,46.67-0.27,32.48"/><path d="M46.75,68.72c1.12,0.52,3.17,0.6,4.3,0.52c9.47-0.65,33.91-3.47,43.02-3.32c1.87,0.03,2.99,0.25,3.93,0.51"/></svg>