<svg><path d="M21.5,13.77c0.34,0.32,0.69,0.58,0.84,0.98c1.19,3.15,3.61,11.84,4.42,17.5"/><path d="M23.63,15.91c7.55-1.23,56.62-4.51,60.63-4.92c1.46-0.15,3.45,1.07,3.06,2.83c-0.82,3.69-2.83,10.04-5.02,15.31"/><path d="M43.72,14.15c0.23,2.1,1.28,11.6,1.08,14.69"/><path d="M64.89,12.84c-0.23,3.41-1.38,12.33-1.85,14.43"/><path d="M27.85,30.53c4.71-0.47,48.53-3.38,55-4.09"/><path d="M39.53,32.75c0.07,0.64,0.15,1.65-0.14,2.56c-1.71,5.4-11.52,17.25-24.95,24.5"/><path d="M36.59,44.57c1.19,0.64,2.82,0.71,4.74,0.43c6.92-1,39.28-3.56,44.02-3.77c4.74-0.21,5.48,2.11,4.98,6.63C89,59.75,86.75,78.5,77.2,94.58c-2.46,4.14-4.79,1.61-7.59-1.07"/><path d="M28.37,56.65c0.57,0.33,1.29,1.59,1.4,2.03c0.77,3.19,2.06,7.89,3.14,13.93"/><path d="M30.69,57.86c8.64-0.64,27.45-2.79,33.67-3.44c1.64-0.17,3.56,1.41,3.26,2.36c-1.04,3.27-1.22,4.48-2.91,9.93"/><path d="M33.23,70.32c6.95-0.64,23.88-2.63,33.6-3.23"/><path d="M46.64,46.25c0.86,1,1.45,3.11,1.45,4.1c0,4.9,0,27.69-0.27,33.65"/><path d="M26.69,88.11c0.84,0.7,1.34,1.57,2.17,1.4c0.83-0.17,32.1-8.23,37.29-9.62"/><path d="M60.52,72.97c2.99,2.34,7.71,9.61,8.46,13.25"/></svg>