<svg><path d="M11.01,37.4c0.43,0.51,0.97,1.4,1.07,2.06c0.83,5.79,1.78,13.29,2.97,21.93"/><path d="M12.88,39.48c6.6-0.97,18.57-3.83,23.35-4.2c1.86-0.14,2.72,1.38,2.49,2.83c-0.79,4.98-1.88,9.84-3.17,18.12"/><path d="M15.29,59.43c5.31-0.98,15.1-2.48,22.53-3.39"/><path d="M23.42,15.75c1.08,1,2.26,2.75,2.26,4.47c0,4.78-0.2,46.78-0.2,60.16"/><path d="M10.57,86.27c0.6,1.16,2.46,1.11,3.06,0.82c0.6-0.29,21.04-10.15,24.76-12.47"/><path d="M34.25,67.5c2.4,2.19,6.21,8.99,6.81,12.39"/><path d="M61.32,9.75c0.04,0.57,0.09,1.48-0.08,2.3c-1.03,4.84-6.92,15.46-14.98,21.97"/><path d="M61.22,16.7c0.78,0.3,2,0.5,2.81,0.4c2.67-0.32,10.71-2.03,14.52-3.03c2.61-0.69,3.36,0.78,2.69,2.65c-3.67,10.23-19.49,27.03-35.97,33.53"/><path d="M55.53,23.57c5.09,4.07,28.14,19.51,35,23.23c2.04,1.11,3.7,1.65,5.69,1.98"/><path d="M53.3,54.65c0.81,0.37,2.29,0.46,3.1,0.37c9.35-1.02,17.1-1.77,24.9-2.76c1.34-0.17,2.16,0.18,2.83,0.36"/><path d="M51.3,67.4c0.81,0.37,2.29,0.46,3.1,0.37c9.35-1.02,20.6-2.27,28.4-3.26c1.34-0.17,2.16,0.18,2.83,0.36"/><path d="M47.3,80.25c1.35,0.62,3.82,0.67,5.17,0.62c9.77-0.37,25.27-3.12,36.92-3.95c2.25-0.16,3.6,0.29,4.72,0.61"/><path d="M67.58,43.5c0.67,0.39,2.21,2.25,2.21,3.74c0,8.26,0.28,42.51,0.28,53.11"/></svg>