<svg><path d="M11.26,37.4c0.46,0.51,1.02,1.4,1.12,2.06c0.87,5.79,2.37,13.29,3.62,21.93"/><path d="M13.22,38.98c6.93-0.97,20.11-2.83,25.13-3.2c1.96-0.14,2.86,1.38,2.62,2.83c-0.83,4.98-1.98,8.84-3.33,17.12"/><path d="M16.26,58.93c5.58-0.98,15.96-2.48,23.76-3.39"/><path d="M24.42,17.75c1.08,1,2.26,2.75,2.26,4.47c0,4.78-0.2,44.78-0.2,58.16"/><path d="M11.57,86.27c0.56,1.16,2.3,1.11,2.86,0.82c0.56-0.29,21.97-12.15,25.45-14.47"/><path d="M34.5,64.75c3.02,2.32,7.8,9.54,8.56,13.14"/><path d="M65.82,11.5c0.07,0.84,0.28,2.24-0.15,3.39c-2.68,7.19-6.59,21.14-20.7,32.43"/><path d="M66.04,14.49c3.77,5.21,21.38,22.92,25.1,26.81c1.26,1.32,2.88,1.88,4.14,2.26"/><path d="M54.5,44.76c0.81,0.33,2.28,0.39,3.09,0.33c7.79-0.56,17.33-1.42,23.87-1.86c1.21-0.08,1.94,0.16,2.54,0.32"/><path d="M47.49,60.79c1.04,0.64,2.97,0.82,4.03,0.68c10.8-1.42,28.77-3.09,39.02-3.53c1.99-0.08,3.19,0.2,4.18,0.41"/><path d="M68.04,47.3c0.71,0.45,1.71,2.95,1.71,4.8c0,18.93-0.25,31.76-0.25,36.52c0,10.8-5.96,1.92-7.4,0.72"/><path d="M55.71,69.75c0.05,0.5,0.2,1.36-0.09,2.01c-2.12,4.81-7.58,11.96-16.24,19.25"/><path d="M80.62,69.24c4.8,3.48,12.4,14.3,13.59,19.71"/></svg>