<svg><path d="M9.76,37.4c0.46,0.51,1.02,1.4,1.12,2.06c0.87,5.79,1.87,13.29,3.12,21.93"/><path d="M11.72,38.98c6.93-0.97,19.11-3.33,24.13-3.7c1.96-0.14,2.86,1.38,2.62,2.83c-0.83,4.98-1.98,10.34-3.33,18.62"/><path d="M14.26,59.43c5.58-0.98,15.46-1.98,23.26-2.89"/><path d="M22.42,16.75c1.08,1,2.26,2.75,2.26,4.47c0,4.78-0.2,43.28-0.2,56.66"/><path d="M8.57,85.28c0.56,1.14,2.28,1.1,2.84,0.81c0.56-0.28,22.77-12.44,26.23-14.72"/><path d="M32.5,63.5c2.67,2.54,6.89,10.44,7.56,14.39"/><path d="M89.87,16c0.06,0.32,0.22,0.92-0.11,1.28c-4.15,4.5-10.28,8.63-21.09,12.26"/><path d="M79.96,28c0.57,0.36,0.91,1.63,1.02,2.36c0.11,0.73,0,40.32-0.11,44.85"/><path d="M81.27,47.81c4.43-0.54,8.67-1.81,13.32-2.18c1.08-0.08,1.35-0.18,2.03,0"/><path d="M68,43.18c0.57,0.36,0.91,1.63,1.02,2.36c0.11,0.73,0.19,25.2,0.25,26.58s0.5,2.78,2.8,3.13c6.43,1,12.37,0.87,20.19,0.87c1.14,0,3.25-0.62,4.78-0.96"/><path d="M42.18,21.37c0.9,0.65,2.33,1.08,3.59,0.65c1.26-0.43,8.26-1.94,10.77-2.81c2.51-0.86,2.57,0.98,1.79,2.23C56.9,23.75,46.62,42.07,44.1,47.25"/><path d="M44.52,47.83c2.34-0.88,11.55-3.62,13.15-3.84c1.6-0.22,3.03-0.15,2.59,3.74C58.54,63.11,49.5,85,36.86,93.75"/><path d="M43,56.75c4-0.26,25.13,29.96,43.86,38.14c2.67,1.17,5.38,1.66,7.39,2.11"/></svg>