<svg><path d="M51.15,8.54c1.31,0.38,3.18,2.42,3.15,3.66c-0.09,3.92-0.09,5.6-0.09,9.17"/><path d="M22.12,21.1c0,3.5-3.01,13.25-4.38,15.63"/><path d="M23.94,24.63c9.45-1.38,53.88-5,61.55-5.69c11.98-1.08,2.54,7.1-0.44,9.35"/><path d="M46.94,30.7c1.14,2.09,4.12,6.76,4.83,3.81"/><path d="M65.8,28.31c0.11,0.73,0.13,1.87-0.21,2.95C62.78,40,43.06,56.37,21.25,63.5"/><path d="M33.74,30.66C41.06,43.92,49.1,53.35,75.5,53.09c9.31-0.09,7.04-3.27,3.18-6.05"/><path d="M27.84,36.29c0.19,1.74-1.88,9.43-3.38,12.33"/><path d="M75.19,32.97c4.51,1.85,9.87,5.64,11.56,9.25"/><path d="M30.14,64.54c0.52,0.34,0.89,1.18,0.99,1.63c0.71,3.25,1.44,7.54,2.43,13.69"/><path d="M31.51,66.85c7.95-0.65,41.85-4.53,47.6-4.77c2.24-0.1,2.34,1.04,2.12,2.48c-0.52,3.36-1.33,4.8-2.88,10.34"/><path d="M33.85,78.55c6.4-0.65,37.59-3.16,46.53-3.77"/><path d="M52.46,55.61c0.88,0.34,1.4,1.53,1.58,2.21c0.18,0.68,0,29.43-0.17,33.68"/><path d="M25.32,95.34c1.12,0.71,2.8,1.6,3.92,1.42c1.12-0.18,42.15-8.35,49.11-9.77"/><path d="M73.01,81.97c4.37,2.77,11.28,11.38,12.37,15.68"/></svg>