<svg><path d="M44.53,11.38c0.72,0.88,1.12,2.22,1.39,2.76c0.11,0.23,0.13,6.73,0.09,15.51c-0.05,11.81-0.8,20.3-17.27,27.61"/><path d="M20.06,21.95c1.36,0,2.94,0.15,4.3,0c1.36-0.15,19.49-1.52,21.08-1.95"/><path d="M20.11,32.39c1.36,0,2.94,0.15,4.3,0c1.36-0.15,17.81-1.31,21.44-1.74"/><path d="M17.73,45.59c1.36,1,2.22,1.11,4.47,0.49c1.33-0.36,16.9-5.82,22.52-7.57"/><path d="M60.77,11.25c0.85,0.43,1.36,1.92,1.53,2.78c0.17,0.86,0,33.75-0.17,39.1"/><path d="M62.57,19.62c5.13-0.22,21.33-1.86,25.18-2.23c1.4-0.14,0.43-0.07,2.85-0.07"/><path d="M63,29.39c5.13-0.22,19.4-1.56,23.25-1.93c1.4-0.14,0.43-0.07,2.85-0.07"/><path d="M62.86,41.31c5.13-0.22,22.96-1.56,26.81-1.93c1.4-0.14,0.43-0.07,2.85-0.07"/><path d="M27.95,63.31c0.82,0.53,1.4,1.85,1.55,2.55c1.11,5.09,1.25,6.29,2.8,15.93"/><path d="M30.11,65.36c12.44-1.02,37.67-2.95,46.67-3.34c3.51-0.15,3.92,1.68,3.32,3.88c-0.85,3.1-1.6,6.1-2.72,9.97"/><path d="M32.77,79.24c10.01-1.02,32.71-2.6,46.71-3.56"/><path d="M52.39,52.25c1.1,0.43,1.75,1.91,1.97,2.76c0.22,0.85,0,31.88-0.22,37.2"/><path d="M25.35,95.9c1.12,0.68,1.79,1.53,2.9,1.36c1.12-0.17,42.85-7.97,49.77-9.33"/><path d="M69.11,81.75c5.82,2.69,15.05,11.05,16.5,15.24"/></svg>