<svg><path d="M82.49,10c0.01,1-0.18,1.79-0.67,2.1C75.85,15.94,68,18.97,52.4,22.08"/><path d="M69.15,20.44c0.69,0.39,1.11,1.74,1.25,2.51c0.14,0.77,0,17.06-0.14,21.89"/><path d="M70.75,29.94c5.75-0.43,11.25-1.42,17.29-1.7c1.41-0.07,1.76-0.14,2.64,0"/><path d="M55.16,27.08c0.69,0.24,1.11,1.1,1.25,1.59c0.14,0.49,0.38,12.11,0.3,13.04c-0.21,2.55,1.54,3.27,3.42,3.61c6.62,1.19,17.62,1.19,24.62-0.28c1.36-0.29,3.81-0.26,4.61-0.13"/><path d="M18.56,15.91c1.09,0.4,2.85,0.66,4.38,0.4c1.53-0.27,10.65-2.78,13.64-3.65c1.42-0.41,2.64,1.6,1.69,2.37c-1.75,1.42-9.91,11.84-12.98,15.03"/><path d="M25.69,30.42c2.86-0.54,9.31-2.17,14.55-3.47c1.29-0.32,3.57,1.02,2.66,3.3C39,40,32.25,50.5,20.78,56"/><path d="M19.34,37.05c5.45-0.14,34.23,15.78,59.75,20.08c3.64,0.62,7.33,0.87,10.06,1.11"/><path d="M29.45,65.31c0.82,0.53,1.4,1.85,1.55,2.55c1.11,5.09,0.75,3.29,2.3,12.93"/><path d="M31.61,67.36c12.44-1.02,36.67-2.95,45.67-3.34c3.51-0.15,3.92,1.68,3.32,3.88C79.75,71,79,72,77.88,75.87"/><path d="M33.77,78.74c10.01-1.02,30.73-2.24,46.21-3.06"/><path d="M52.98,54.25c1,0.39,1.6,1.75,1.8,2.52c0.2,0.78,0,30.09-0.2,34.94"/><path d="M23.85,94.98c1.17,0.52,1.87,1.16,3.04,1.03c1.17-0.13,44.89-6.05,52.13-7.08"/><path d="M68.86,82c6.62,2.91,17.1,11.96,18.75,16.49"/></svg>