<svg><path d="M13.76,33.9c0.46,0.51,1.02,1.4,1.12,2.06c0.87,5.79,1.62,14.54,2.62,22.93"/><path d="M15.22,35.98c6.93-0.97,20.11-2.83,25.13-3.2c1.96-0.14,2.86,1.38,2.62,2.83c-0.83,4.98-1.98,9.84-3.33,18.12"/><path d="M17.26,56.43c5.58-0.98,16.46-1.48,24.26-2.39"/><path d="M25.92,15.25c1.08,1,2.26,2.75,2.26,4.47c0,4.78-0.2,43.78-0.2,57.16"/><path d="M13.07,83.7c0.55,1.24,2.24,1.19,2.79,0.88c0.55-0.31,22.38-13.48,25.77-15.96"/><path d="M37,61.25c2.49,2.41,6.43,9.9,7.06,13.64"/><path d="M51.64,17.24c0.44,1.15,1.03,2.95,1.03,5.03c0,3.22-0.35,6.21,0.01,21.38c0.58,24.6-1.42,43.1-13.42,53.42"/><path d="M52.53,19.07C58.14,18.15,89.48,15,90.6,15c2.08,0,3.25,2.2,3.25,4.37c0,2.3,0.15,62.68,0.15,67.97c0,12.17-6,3.67-8.75,1.27"/><path d="M60.1,32.76c0.89,0.36,2.52,0.25,3.41,0.22c4.82-0.19,13.27-2.2,16.83-2.37c1.49-0.07,2.37,0.06,3.12,0.22"/><path d="M57.35,44.62c0.93,0.18,2.63,0.68,3.56,0.6c5.07-0.49,15.77-2.18,21.83-2.33c1.55-0.04,2.48,0.02,3.25,0.1"/><path d="M70.78,22.96c0.57,0.32,0.92,1.57,1.03,2.29c0.12,0.72,0.01,22.02-0.11,26.56"/><path d="M61.48,57.54c0.19,0.35,0.38,0.64,0.46,1.08c0.65,3.48,2.94,12.46,3.38,18.68"/><path d="M62.72,59.76C68.5,59,77.75,57,80.5,56.81c1.26-0.09,2.39,1.83,2.23,2.79c-0.68,3.97-2.07,8.28-3.43,13.96"/><path d="M65.52,75.03c5.03-0.65,12.08-1.26,15.81-1.36"/></svg>