<svg><path d="M12.26,34.26c0.46,0.6,1.02,1.64,1.12,2.42c0.87,6.79,1.87,15.58,3.12,25.71"/><path d="M13.72,35.7c6.93-1.14,21.11-2.49,26.13-2.93c1.96-0.17,2.86,1.61,2.62,3.32c-0.83,5.83-2.48,12.04-3.83,21.74"/><path d="M16.76,59.59C24.5,58.75,32,58.5,41.02,57.62"/><path d="M25.42,14.75c1.08,1,2.26,2.75,2.26,4.47c0,4.78-0.2,46.78-0.2,60.16"/><path d="M10.57,86.27c0.6,1.16,2.46,1.11,3.06,0.82C14.23,86.8,32,78.5,38.88,75.12"/><path d="M33.5,67.25c3.2,2.76,8.26,11.35,9.06,15.64"/><path d="M55.15,15.91c1.1,1.34,1.78,2.92,1.83,3.79c0.26,4.69,2.37,23.39,2.51,24.27"/><path d="M58.16,17.45c2.33-0.11,22.37-2.83,24.49-2.96c1.77-0.11,2.83,2.59,2.77,3.26c-0.42,4.94-1.25,13.02-2.75,24.08"/><path d="M58.91,30.07c8.2-0.84,19.91-2.24,25.35-2.49"/><path d="M60.17,42.3c6.77-0.91,16.47-1.84,22.81-2.28"/><path d="M62.09,47.7c0.04,0.46,0.17,1.23-0.08,1.86c-1.6,3.9-8.1,12.46-15.03,17.76"/><path d="M61.88,56.57c0.81,0.45,1.95,0.6,3.25,0.3c1.3-0.3,22.33-2.85,25.57-3c3.24-0.15,4.01,1.52,3.41,4.65C92,69.5,90,81.5,83.81,93.42C80.93,98.97,78,97,75.12,91.67"/><path d="M66.69,59.56c0.05,0.52,0.23,1.4-0.09,2.1C62.75,70,57.75,75.5,50.81,81.78"/><path d="M80.1,58.15c0.07,0.82,0.26,2.14-0.13,3.28C77.25,69.25,69,82.25,57.66,92.76"/></svg>