<svg><path d="M10.26,34.31c0.51,0.61,1.13,1.66,1.25,2.46c0.96,6.9,2.08,15.83,3.47,26.13"/><path d="M11.44,36.28c7.71-1.16,18.53-3.07,24.11-3.51c2.17-0.17,3.18,1.64,2.91,3.38c-0.93,5.93-2.2,12.22-3.7,22.08"/><path d="M15.26,60.56C22,60,27.5,59.25,36.91,58.52"/><path d="M22.92,16.25c1.08,1,2.26,2.75,2.26,4.47c0,4.78-0.2,49.28-0.2,62.66"/><path d="M12.07,88.27c0.6,1.16,2.46,1.11,3.06,0.82c0.6-0.29,18.04-8.65,21.76-10.97"/><path d="M31.5,69.25c3.02,2.85,7.8,11.71,8.56,16.14"/><path d="M63.83,13.5c0.87,0.33,2.12,1.98,2.1,2.95c-0.06,3.05-0.06,7.75-0.07,10.52"/><path d="M47.08,25.99c0,3.56-2.35,13.37-3.42,15.75"/><path d="M47.19,29.6c6.3-0.77,37.38-4.17,42.5-4.32c9.81-0.28,0.35,6.59-1.64,8.24"/><path d="M53.89,37.42c0.16,0.49,0.58,1.98,0.3,2.94c-1.87,6.51-7.49,16.99-15.05,26.07"/><path d="M53.81,48.7c1.19,0.05,1.71,0.1,2.81-0.12c2.88-0.57,4.28-0.87,6.92-1.06c2.19-0.16,2.88,1.02,2.11,3.19C61,63.75,51.5,82.25,38.5,95"/><path d="M45.84,61.35c2.94,1.71,7.59,7.03,8.33,9.68"/><path d="M70.75,44.75C72,45.5,73,45.54,74.09,45.53c3.66-0.03,13.39-1.2,14.79-1.63c2.1-0.64,3.47,1.12,3.38,3.68c-0.14,4.35-1.98,15.81-4.3,22.89c-2.22,6.78-4.47,2.28-6.2-0.14"/><path d="M72.64,45.67c0.64,1.74,0.53,2.26,0.53,4.65c0,13.97-0.26,21.1-0.26,28.2c0,14.28,1.33,14.72,12.28,14.72c8.8,0,11.2-1.75,11.2-10.15"/></svg>