<svg><path d="M13.77,40.46c0.61,0.55,1.05,1.92,1.16,2.65c0.83,5.27,1.68,12.22,2.84,22.2"/><path d="M15.38,41.58c9.29-1.06,15.63-3.09,22.35-3.5c2.62-0.16,2.74,1.68,2.48,4.03c-0.6,5.44-0.97,10.09-2.78,19.08"/><path d="M18.11,63.68c7.48-1.06,10.06-1.2,20.52-2.18"/><path d="M25.71,18.25c0.75,0.4,1.2,1.81,1.34,2.61c0.15,0.8,0,55.55-0.15,60.57"/><path d="M14.75,88.34c0.55,0.89,2.38,0.5,2.93,0.27c0.55-0.22,18.68-10.93,22.1-12.7"/><path d="M35.07,69.17c2.96,2.55,7.64,10.5,8.38,14.47"/><path d="M48.64,18.5c3.39,2.98,7.03,8.18,7.51,9.67"/><path d="M62.53,14.96c2.21,2.15,7.52,7.78,8.41,11.27"/><path d="M88.54,12.4c0.44,0.77,0.38,2.28-0.34,3.6c-1.78,3.29-5.79,10.75-7.32,13.07"/><path d="M51.55,39.21c0.59,0.75,0.99,1.49,1.19,2.24c0.2,0.75,0.2,19.7,0.2,21.38c0,14.01-4.1,27.11-9.44,32.52"/><path d="M53.35,42.15c7.69-1.66,26.67-4.95,29.47-4.95c1.57,0,3.57,0.95,3.49,3.55C85.75,59.5,84,73.5,93.56,89.14c4.77,7.81,5.69,3.36,4.69-2.84"/><path d="M53.2,56.19c8.57-0.86,23.91-2.48,31.94-2.48"/><path d="M52.83,71.88c6.14-0.74,25.23-3.03,32.33-3.53"/><path d="M68.16,41.44c0.76,0.47,1.22,2.13,1.37,3.08c0.15,0.95,0,44.28-0.15,50.2"/></svg>