<svg><path d="M11.76,33.74c0.4,0.59,0.9,1.62,0.99,2.4c0.76,6.73,1.64,15.45,2.75,25.5"/><path d="M13.49,36.16c6.1-1.13,18.51-3.46,22.93-3.89c1.72-0.17,2.52,1.6,2.3,3.29c-0.73,5.79-1.74,12.44-2.93,22.06"/><path d="M15.72,59.36c7.53-0.86,13.03-1.61,22.17-1.94"/><path d="M23.42,13.75c1.08,1,2.26,2.75,2.26,4.47c0,4.78-0.2,49.78-0.2,63.16"/><path d="M11.57,86.77c0.6,1.16,2.46,1.11,3.06,0.82c0.6-0.29,17.37-9.34,23.26-11.97"/><path d="M32.5,67.25c3.2,3.03,8.26,12.44,9.06,17.14"/><path d="M62.26,12.25c0.05,0.3,0.12,0.77-0.11,1.21C60.8,16,53.08,21.58,42.5,25"/><path d="M40.44,41.12c0.47,0.16,1.71,0.42,2.95,0.48c3.41,0.16,11.76-1.69,20.29-2.49c1.24-0.12,1.55-0.16,2.33,0"/><path d="M53.64,24.12c0.56,0.63,1.4,2.83,1.51,4.08c0.11,1.26,0,64.88-0.11,70.54"/><path d="M54.53,42.13c-2.29,8.6-7.73,20.01-11.78,26.25"/><path d="M57,48.5c3.02,1.98,7.8,8.14,8.56,11.22"/><path d="M69.75,21.5C73.37,23,79.09,27.67,80,30"/><path d="M67,44.5c4.06,1.28,10.48,5.26,11.5,7.25"/><path d="M62.25,68.98c0.81,0.22,2.97,0.82,5.11,0.66c8.79-0.66,15.54-3.39,27.61-5.3c2.1-0.33,2.69-0.22,4.03,0"/><path d="M85.37,12.75c1.09,0.5,1.74,2.25,1.96,3.25c0.22,1,0,75.75-0.22,82"/></svg>