<svg><path d="M11.76,35.4c0.51,0.62,1.14,1.72,1.25,2.54c0.97,7.12,2.09,16.34,3.49,26.96"/><path d="M13.22,37.48c6.93-0.97,21.61-2.83,26.63-3.2c1.96-0.14,2.86,1.38,2.62,2.83c-0.83,4.98-1.98,13.84-3.33,22.12"/><path d="M16.26,61.16c5.25-0.53,16.91-1.36,24.26-1.85"/><path d="M24.92,13.25c1.08,1,2.26,2.75,2.26,4.47c0,4.78-0.2,52.28-0.2,65.66"/><path d="M13.07,88.77c0.6,1.16,2.46,1.11,3.06,0.82c0.6-0.29,20.54-11.15,24.26-13.47"/><path d="M36.25,68.5c2.75,2.72,7.12,11.17,7.81,15.39"/><path d="M68.56,10.5c0.3,0.49,0.35,1.08,0.28,1.51c-0.43,2.51-4.11,8.51-7.46,11.88"/><path d="M49.05,24.44c0.7,0.7,1.22,1.99,1.4,2.89c1.05,5.17,4.07,18.99,4.35,23.56"/><path d="M50.87,26.08c9.72-1.25,33.66-4.02,37.24-4.47c1.72-0.22,2.84,1.84,2.46,3.76c-0.84,4.25-2.23,14.6-3.9,22.76"/><path d="M53.81,37.09c8.84-1.71,29.28-3.55,35.32-3.55"/><path d="M54.97,48.32c10.09-0.79,23.13-2.62,31.46-2.86"/><path d="M52.5,59.63c0.86,0.51,3.64,0.02,4.52,0.03c6.48,0.09,18.73-1.16,29.27-2.22c1.32-0.13,2.52,0.1,3.62,0.53"/><path d="M69.61,60.65c1.29,2.08,1.29,3.33,1.29,5c0,11.67-0.07,11.45-0.07,25.97"/><path d="M53.25,75.08c0.72,0.57,3.58,0.78,4.32,0.75c7.93-0.33,18.37-0.94,27.35-1.95c0.9-0.1,2.87-0.23,4.21,0.26"/><path d="M43.34,93.42c0.85,0.38,5.31,0.82,6.75,0.63c13.66-1.8,30.41-3.05,40.01-2.78c3.64,0.1,5.32,0.31,7.8,0.49"/></svg>