<svg><path d="M11.26,35.9c0.48,0.6,1.08,1.64,1.19,2.43c0.92,6.81,1.98,15.64,3.31,25.82"/><path d="M12.72,37.98c6.93-0.97,19.61-2.83,24.63-3.2c1.96-0.14,2.86,1.38,2.62,2.83c-0.83,4.98-1.98,12.84-3.33,21.12"/><path d="M15.76,61.43c5.58-0.98,14.96-1.48,22.76-2.39"/><path d="M23.42,14.25c1.08,1,2.26,2.75,2.26,4.47c0,4.78-0.2,48.78-0.2,62.16"/><path d="M11.07,85.27c0.6,1.16,2.46,1.11,3.06,0.82c0.6-0.29,21.04-9.65,24.76-11.97"/><path d="M34,65.75c2.31,2.41,5.98,9.9,6.56,13.64"/><path d="M47.55,15.76c0.95,0.49,3.16,0.83,4.11,0.8c9.79-0.34,29.4-2.56,38.01-2.9c1.57-0.06,2.51,0.14,3.29,0.29"/><path d="M48.48,30.91c1.23,0.15,2.76,0.26,4.5,0.17c11.49-0.6,28.66-3.07,36.23-3.82c1.64-0.16,4.15,0.37,3.23,3.51c-1.37,4.68-2.41,6.43-3.85,11.99"/><path d="M51.11,47.25c6.06,0,30.1-3.25,40.74-3.75"/><path d="M50.66,31.18c0.3,1.3,0.5,2.96,0.52,5.18C51.33,64.3,47.57,83.43,35.25,94"/><path d="M52.93,60.71c0.41,0.64,0.53,2.16,0.55,3.31c0.03,2.97,2.6,31.55,2.6,33.47"/><path d="M53.84,61.99c5.19-0.51,38.35-4.38,39.38-4.56c2.18-0.38,3.18,2.35,3.18,3.03c0,6.78-2.94,28.64-3.98,31.33c-3.67,9.45-5.32,2.43-6.96,0.77"/><path d="M54.62,77.56c5.93-0.4,27.35-3.26,40.31-3.52"/><path d="M66.08,63.5c0.77,0.27,1.22,1.2,1.38,1.73c0.15,0.53,0,26.33-0.15,29.66"/><path d="M77.54,61.07c0.77,0.27,1.22,1.2,1.38,1.73c0.15,0.53,0,28.63-0.15,31.96"/></svg>