<svg><path d="M11.26,35.54c0.39,0.54,0.87,1.49,0.96,2.2c0.74,6.18,1.6,14.18,2.67,23.4"/><path d="M12.94,37.76c5.94-1.04,17.5-2.59,21.79-2.99c1.67-0.15,2.45,1.47,2.24,3.02c-0.71,5.31-1.69,11-2.85,19.83"/><path d="M15.11,59.05c6.64-0.55,13.14-1.05,20.55-1.62"/><path d="M22.42,15.75c1.08,1,2.26,2.75,2.26,4.47c0,4.78-0.2,46.78-0.2,60.16"/><path d="M10.57,85.27c0.6,1.16,2.46,1.11,3.06,0.82c0.6-0.29,19.04-9.65,22.76-11.97"/><path d="M31,65.5c2.67,2.45,6.89,10.08,7.56,13.89"/><path d="M53.09,15.78c0.54,0.48,1.42,2.36,1.42,3.32c0,3.55-0.17,9.18-0.07,12.19"/><path d="M40.57,32.16c0.73,0.04,2.4,0.25,3.11,0.2c5.75-0.42,17.07-1.51,21.61-1.79c1.2-0.07,2.18-0.07,3.53-0.07"/><path d="M54.85,41.38c3.1,0.8,3.73,1.12,7.58,1.49c1.65,0.16,2.86,2.27,2.64,4.38c-1.57,15.5-4.94,31.54-9.04,39.58c-3.28,6.42-5.53,3.42-8.34,0.05"/><path d="M53.7,35.12c0.61,0.8,1.15,2.54,0.94,4.3c-1.55,13.03-6.34,33.85-16.51,47.26"/><path d="M79.11,14.89c0.02,0.57,0.04,1.48-0.04,2.3c-0.53,4.85-3.55,15.5-7.68,22.02"/><path d="M77.57,31.91c0.68,0.08,2.23,0.55,2.89,0.44c5.34-0.92,8.86-1.34,13.08-1.95c1.11-0.16,2.03-0.15,3.28-0.15"/><path d="M73.78,45.54c0.64,0.21,1.85,0.55,2.81,0.36c1.17-0.23,12.74-2.83,13.86-2.83c1.12,0,2.33,0.64,1.21,1.91S82.4,55.69,79.57,58"/><path d="M79.06,58.2C82.25,62,88,75.25,83.32,88.78c-1.8,5.21-5.07,2.97-6.59,0.58"/><path d="M67.78,65.54c0.8,0.33,2.87,0.44,4.31,0.36c5.03-0.29,16.16-2.4,22.73-3.37c1.43-0.21,2.71,0.11,3.67,0.44"/></svg>