<svg><path d="M12.26,36.4c0.46,0.51,1.02,1.4,1.12,2.06c0.87,5.79,1.87,13.29,3.12,21.93"/><path d="M14.22,38.48c6.93-0.97,19.61-3.33,24.63-3.7c1.96-0.14,2.86,1.38,2.62,2.83c-0.83,4.98-1.98,9.84-3.33,18.12"/><path d="M16.76,58.43c5.58-0.98,15.46-1.98,23.26-2.89"/><path d="M24.92,16.75c1.08,1,2.26,2.75,2.26,4.47c0,4.78-0.2,42.28-0.2,55.66"/><path d="M12.07,83.77c0.6,1.16,2.46,1.11,3.06,0.82c0.6-0.29,21.54-12.65,25.26-14.97"/><path d="M36.25,62c2.75,2.89,7.12,11.89,7.81,16.39"/><path d="M54.63,14.47c0.26,0.73,0.44,1.11,0.53,2.08c0.65,6.77,1.32,14.07,2.53,26.35"/><path d="M55.3,15.5c5.07-0.88,18.63-3.23,25.13-3.83c1.13-0.1,2.81,2.41,2.77,3.09c-0.49,8.4-2.17,20.22-3.02,26.4"/><path d="M56.82,27.36c2.01,0,23.1-2.94,25.38-2.94"/><path d="M58.17,41.3c4.1-0.66,16.92-2.06,22.03-2.63"/><path d="M44.35,50.57c1.27,0.33,3.6,0.41,4.87,0.33C63,50,80,47.5,90.93,46.74c2.11-0.15,3.39,0.16,4.45,0.32"/><path d="M59.45,52.9c0.04,0.45,0.17,1.19-0.07,1.81C57.75,58.75,51.5,66,46.25,70"/><path d="M58.62,61.3c0.82,0.46,1.97,0.62,3.29,0.31c1.31-0.31,25.93-3.94,29.22-4.09c3.29-0.15,3.94,1.54,3.45,4.79c-0.49,3.25-3.7,22.45-10.66,31.47c-4.42,5.72-6.67,1.47-8.84-2.37"/><path d="M63.87,64.1c0.05,0.42,0.15,1.09-0.1,1.67c-2.43,5.78-9.08,13.8-18.66,18.54"/><path d="M77.37,62.39c0.1,0.9,0.21,2.32-0.2,3.61c-2.46,7.61-12.54,21.94-25.96,30.18"/></svg>