<svg><path d="M11.26,36.4c0.4,0.59,0.9,1.63,0.99,2.41c0.77,6.75,2.15,15.5,3.25,25.59"/><path d="M12.22,38.48c6.93-0.97,20.11-2.83,25.13-3.2c1.96-0.14,2.86,1.38,2.62,2.83c-0.83,4.98-1.98,13.84-3.33,22.12"/><path d="M15.76,62.43c5.58-0.98,14.46-1.48,22.26-2.39"/><path d="M23.42,16.25c1.08,1,2.26,2.75,2.26,4.47c0,4.78-0.2,50.28-0.2,63.66"/><path d="M11.57,88.77c0.6,1.16,2.46,1.11,3.06,0.82c0.6-0.29,21.04-9.15,24.76-11.47"/><path d="M34.25,69.25c2.75,3.03,7.12,12.44,7.81,17.14"/><path d="M56.86,13c0.03,0.46,0.12,1.31-0.06,1.83c-2.27,6.41-5.63,12.3-11.54,17.47"/><path d="M56.75,20.97c0.69,0.28,1.94,0.35,2.63,0.28c4.37-0.48,17.62-2.75,24.47-3.83c1.13-0.18,1.51-0.06,2.42-0.03"/><path d="M53.36,31.65c0.49,0.54,0.98,0.8,0.98,1.52c0,0.71,2.96,20.86,3.12,21.58"/><path d="M54.19,32.49c4.06-0.74,26.41-3.64,28.42-3.75c1.67-0.09,2.74,1.98,2.61,2.5c-0.26,1.06-3.02,20.11-3.02,20.64"/><path d="M56.58,42.56c6.92-1.06,20.67-2.31,26.72-2.9"/><path d="M58.44,52.26c6.06-0.38,15.31-1.39,22.85-1.72"/><path d="M61.83,57.25c0.04,0.53,0.08,1.38-0.07,2.15c-0.9,4.52-6.06,14.45-13.12,20.53"/><path d="M64.22,61.48c0.25,0.03,1.84,0,2.57-0.08c2.39-0.26,8.82-1.23,12.23-2.03c2.34-0.55,3.18,0.71,2.41,2.13C73.75,75.5,64,90,46.5,97"/><path d="M58.4,69.06c4.48,4.58,24.8,21.98,30.84,26.17c1.8,1.25,3.26,1.85,5.01,2.23"/></svg>