<svg><path d="M10.76,36.4c0.51,0.62,1.14,1.72,1.25,2.54c0.97,7.12,2.09,16.34,3.49,26.96"/><path d="M11.72,38.48c6.93-0.97,21.11-3.33,26.13-3.7c1.96-0.14,2.86,1.38,2.62,2.83c-0.83,4.98-2.48,14.84-3.83,23.12"/><path d="M15.26,62.93c5.58-0.98,15.96-1.48,23.76-2.39"/><path d="M23.42,14.25c1.08,1,2.26,2.75,2.26,4.47c0,4.78-0.2,52.78-0.2,66.16"/><path d="M12.07,89.27c0.6,1.16,2.46,1.11,3.06,0.82c0.6-0.29,16.37-7.34,22.26-9.97"/><path d="M32.75,71.5c2.75,2.81,7.12,11.53,7.81,15.89"/><path d="M54.2,16.3c0.52,1.15,1.41,3.03,1.55,5.11c0.52,7.6,0.4,19.74,0.92,29.18"/><path d="M55.75,17.79c7.01-0.96,26.54-3.28,29.67-3.79c1.48-0.24,2.95,0.76,2.58,2.87c-0.74,4.31-2.21,23.46-2.95,30.17"/><path d="M69.52,27.74c0.76,0.46,1.22,2.07,1.37,2.99c0.15,0.92,0.6,13.45,0.44,19.21"/><path d="M71,29.66c2.45-0.23,11.83-1.34,15.33-1.8"/><path d="M47.66,49.09c0.52,1.15,1.66,3.01,1.9,5.07c0.35,3,1.69,33.34,1.65,40.09"/><path d="M49.06,51.9c6.64-0.92,41.78-3.71,43.09-4.03c2.8-0.69,4.09,1.62,4.19,2.76c0.35,3.92-2.13,31.99-3.22,37.09c-1.92,8.98-5.97,4.38-8.07,1.38"/><path d="M59.64,61.12c0.29,0.31,0.58,0.57,0.71,0.96c1,3.09,2.85,10.83,3.54,16.39"/><path d="M61.1,63.33c6.57-1.42,12.69-1.88,17.84-2.5c1.88-0.23,3.01,1.34,2.74,2.68c-1.12,5.52-1.57,6.26-2.66,11.25"/><path d="M64.02,76.66c3.96-0.46,11.29-0.75,16.73-1.46"/></svg>