<svg><path d="M13.01,35.48c0.43,0.53,0.96,1.45,1.06,2.14c0.82,6.01,1.76,13.8,2.95,22.77"/><path d="M14.86,37.64c6.55-1.01,20.4-2.98,25.13-3.36c1.85-0.15,2.7,1.43,2.47,2.94c-0.79,5.17-1.87,9.22-3.14,17.81"/><path d="M17.26,58.36c5.27-1.01,16.95-2.58,24.32-3.52"/><path d="M25.42,16.25c1.08,1,2.26,2.75,2.26,4.47c0,4.78,0.3,43.28,0.3,56.66"/><path d="M11.07,84.77c0.6,1.16,2.46,1.11,3.06,0.82c0.6-0.29,23.54-12.65,27.26-14.97"/><path d="M37.25,64c2.75,2.63,7.12,10.81,7.81,14.89"/><path d="M49.33,18c0.35,0.44,0.86,1.25,1.05,1.8c1.59,4.57,2.58,14.13,3.56,22.66"/><path d="M50.47,19.61C60.25,18,75.82,16.51,85,15.54c3.37-0.36,4.75,1.21,4.42,3.66c-0.62,4.61-1.7,11.67-3.24,19.38"/><path d="M52.76,29.44C61.5,28.75,81.5,26,87.74,26.01"/><path d="M54.07,39.71c10.43-1.46,19.89-2.54,32.11-3.34"/><path d="M48.83,51.63c0.35,0.48,0.94,1.34,1.05,1.96c1.12,6.16,2.08,18.09,3.06,27.37"/><path d="M49.97,53.34c13.78-2.09,29.35-4.25,38.53-5.3c3.37-0.39,4.75,1.32,4.42,3.98c-0.62,5.02-1.92,13.73-3.24,22.3"/><path d="M51.76,65.17C63,63.5,85,60.51,91.24,60.52"/><path d="M53.07,77.47c8.93-1.22,24.43-4.22,36.1-4.05"/><path d="M68.49,19.64c0.63,1.01,1.13,2.21,1.16,3.78c0.17,6.98-0.45,57.26-0.45,62.01c0,11.09,7.54,9.83,14.95,9.83c9.34,0,12.98-1.26,12.98-7.78"/></svg>