<svg><path d="M10.01,38.15c0.46,0.51,1.02,1.4,1.12,2.06c0.75,5.02,1.23,8.5,2.48,16.44c0.19,1.22,0.4,2.54,0.64,4"/><path d="M11.47,39.48c6.08-0.85,16.95-2.77,22.92-3.48c3.31-0.39,5.29,0.18,4.59,3.92c-0.81,4.35-1.85,9.21-2.85,14.31"/><path d="M15.25,58.5c4.41-0.7,11.94-1.72,18.64-2.5c1.43-0.17,2.82-0.32,4.13-0.46"/><path d="M23.42,17.75c1.08,1,1.26,2.5,1.26,4.22c0,4.78,0.05,40.53,0.05,53.91"/><path d="M10.07,82.52c1.43,1.52,3.06,0.83,4.53,0.02c4.85-2.67,15.77-8.78,22.02-12.16"/><path d="M33.75,62.5c2.49,2.94,6.43,12.08,7.06,16.64"/><path d="M42.75,29.38c2.97,1.07,7.11,0.11,10.14-0.17c9.56-0.9,25.26-2.94,35.24-3.75c2.8-0.23,5.15-0.34,7.88,0.26"/><path d="M64.64,13.25c0.87,0.87,1.4,1.57,1.46,2.78c0.21,4.21,0.57,14.57,0.84,21.84c0.07,1.96,0.14,3.69,0.2,5.02"/><path d="M80.55,11.75c0.85,0.85,1.03,1.87,0.96,2.78c-0.52,7.34-1.27,16.72-1.93,23.92"/><path d="M68.54,40.89c2.4-0.17,5.6-0.53,8.34-0.83c1.64-0.18,3.11-0.34,4.14-0.43"/><path d="M50.75,18.32c1.03,1.03,1.25,2.31,1.28,3.42c0.15,4.67-0.05,18.13-0.05,25.38c0,2.87,0.89,3.87,3.32,3.66c9.99-0.85,18.95-1.82,28.82-2.25c2.34-0.1,4.76-0.28,7.08,0.19"/><path d="M43.24,65.15c2.67,0.88,5.54,0.6,8.27,0.38c8.8-0.69,23.49-2.03,36.12-2.73c2.97-0.16,6.1,0.2,9.02,0.8"/><path d="M66.82,54.75c1.16,1.15,1.29,2.12,1.29,4c0,5.19-0.06,21.98-0.09,32.63C68,94.45,68,97,68,98.62"/><path d="M65.1,65.23c0,1.39-0.49,2.44-1.29,3.76c-4.44,7.33-12.3,16.07-18.62,19.76"/><path d="M69.88,65.75c4.41,4.81,13.5,13.5,19.74,18.77c2.25,1.9,4.26,3.11,7.45,4.61"/></svg>