<svg><path d="M11.76,37.56c0.41,0.61,0.91,1.66,1,2.46c0.78,6.9,1.67,15.83,2.8,26.13"/><path d="M13.52,39.03c6.21-1.16,17.86-2.07,22.36-2.51c1.75-0.17,2.56,1.64,2.34,3.38c-0.75,5.93-1.77,12.22-2.98,22.08"/><path d="M15.79,63.81c4.96-0.56,14.59-0.96,21.58-2.04"/><path d="M22.92,13.25c1.08,1,2.26,2.75,2.26,4.47c0,4.78-0.2,53.78-0.2,67.16"/><path d="M10.57,90.27c0.6,1.16,2.46,1.11,3.06,0.82c0.6-0.29,20.54-10.65,24.26-12.97"/><path d="M33.5,71.5c2.84,2.72,7.35,11.17,8.06,15.39"/><path d="M43.5,43.25c0.27,0.21,1.8,0.32,3.92,0C54,42.25,62,41.5,67.19,41c0.71-0.07,2.58,0.04,3.03,0.25"/><path d="M53.94,15.13c0.85,0.58,1.53,2.58,1.53,3.77c0,20.3,0,35.79-0.17,43.03"/><path d="M44.45,62.79c0.19,0.63,0.41,1.06,0.47,1.54c0.47,3.47,2.51,14.04,3.17,20.62"/><path d="M45.4,63.8c5.26-0.7,16.47-2.47,20.06-2.58c1.48-0.05,2.28,0.98,2.15,2.04c-0.49,4-2.44,11.53-3.25,16.84"/><path d="M48.38,82.17c4.35-0.29,12.33-1.17,17.56-1.55"/><path d="M76.34,19.25c0.33,0.95,0.55,1.89,0.66,2.83c0.11,0.94-0.12,25.63-0.12,27.74c0,7.68-0.63,28.93-11.98,40.18"/><path d="M77.68,20.22c1.35-0.19,13.75-2.77,14.76-3.01c1.8-0.41,2.46,3.12,2.22,4.52c-0.23,1.34-0.75,45.13-0.75,64.1c0,12.17-4.49,5.17-6.31,3.42"/><path d="M77.44,40.19c4.7-0.89,12.38-2.16,16.5-2.4"/><path d="M77.61,58.31c3.67-0.29,11.69-1.52,15.92-1.5"/></svg>