<svg><path d="M14.1,17.87c1.32,0.71,3.84,0.53,5.29,0.4c6.59-0.56,16.53-1.61,24.1-2.35c1.74-0.17,3.92-0.46,5.63,0.09"/><path d="M17.09,29.15c0.61,0.56,0.97,1.25,1.07,2.09c0.68,2.29,1.53,5.89,2.07,8.98c0.21,1.19,0.39,2.37,0.55,3.5"/><path d="M18.95,30.53c5.48-0.91,16.53-2.57,22.06-3.23c2.53-0.3,4.81,0.11,4.06,3.13c-0.74,2.99-1.7,5.32-2.93,8.87"/><path d="M21.68,42.72c3-0.31,11.61-1.35,17.81-2.01c2.01-0.22,3.77-0.39,5-0.5"/><path d="M15.42,52.52c0.84,0.84,0.85,2.36,0.73,4.16c-0.09,1.39,0.09,19.49,0.09,29.07c0,2.5-0.11,5.43-0.11,6.12"/><path d="M17.15,53.77c5.09-0.66,22.21-2.7,27.87-3.09c2.61-0.18,4.07,0.94,4.07,3.53c0,3.11-0.09,29.05-0.09,33.66c0,7.42-3.8,2.9-5.24,0.29"/><path d="M28.07,54.84c0.18,0.91-0.18,1.61-0.55,2.36c-1.64,3.38-3.64,6.06-7.35,9.38"/><path d="M34.85,52.94c0.67,0.67,0.93,1.54,0.95,2.62c0.07,4.85,0.05,2.69,0.05,4.46c0,2.98,0.78,3.67,4.64,3.67c2.56,0,4.5-0.53,4.86-0.83"/><path d="M23.19,72.7c0.88,0.51,2.46,0.63,3.43,0.55c3.15-0.28,8.66-1.24,12.53-1.9c0.74-0.12,2.18-0.57,3.03-0.28"/><path d="M31.21,73.57c0.49,0.88,0.82,1.93,0.82,3.29c0,2.64,0.01,3.41-0.02,7.59c-0.01,1.2-0.02,2.6-0.02,4.31"/><path d="M54.25,37.8c0.79,0.79,1.25,1.8,1.36,2.49c0.63,3.94,1.34,7.87,2.27,14.44c0.24,1.7,0.48,3.51,0.71,5.44"/><path d="M56.55,39.04c10.05-1.84,24.56-3.68,32.09-4.31c3.9-0.33,5.74,0.89,4.45,5.19c-1.34,4.46-2.21,9.58-3.45,14.47"/><path d="M59.67,58.42c5.96-0.83,17.61-2.03,27.13-2.95c1.94-0.19,3.79-0.36,5.48-0.52"/><path d="M73.03,16c1.17,1.17,1.39,2.25,1.39,3.65c0,0.84,0.04,55.1,0.04,61.18"/><path d="M57.31,85.58c1.14,1.13,2.57,1.04,3.95,0.59c4.94-1.58,25.21-8.22,29.21-9.5"/><path d="M85.97,65.74c3.59,3.7,9.28,15.19,10.17,20.94"/></svg>