<svg><path d="M10.76,33.4c0.46,0.51,1.02,1.4,1.12,2.06c0.87,5.79,1.37,17.79,2.62,26.43"/><path d="M12.72,34.98c6.93-0.97,18.11-2.33,23.13-2.7c1.96-0.14,2.86,1.38,2.62,2.83c-0.83,4.98-2.48,13.84-3.83,22.12"/><path d="M14.76,59.93c5.58-0.98,13.96-1.98,21.76-2.89"/><path d="M22.42,13.25c1.08,1,2.26,2.75,2.26,4.47c0,4.78-0.2,50.78-0.2,64.16"/><path d="M11.57,86.27c1.43,1.23,3.46,0.61,4.06,0.32c0.6-0.29,18.04-9.65,21.76-11.97"/><path d="M33.5,66.75c2.31,2.94,5.98,12.08,6.56,16.64"/><path d="M48.67,18.32c0,3.55-3.15,13.31-4.58,15.68"/><path d="M48.06,22.17c8.94-1.17,37.83-4,43.04-4.34c8.91-0.58,1.23,7.11-0.8,8.76"/><path d="M53.21,32.86c0.15,0.27,0.5,1.3,0.75,2.34c1.05,4.46,2.04,16.69,2.69,25.01"/><path d="M54.68,34.49c8.15-1.12,22.42-3.01,28.5-3.95c2.24-0.35,3.88,1.38,3.76,2.61c-0.42,4.5-1.38,15.75-3.54,24.3"/><path d="M56.2,46.51c2.66-0.44,27.1-3.08,29.3-3.26"/><path d="M56.69,57.53c5.87-0.48,18.47-1.44,26.57-2.22"/><path d="M68.54,61.5c0.51,0.43,1.36,2.11,1.36,2.97c0,3.42-0.01,2.76-0.07,5.21"/><path d="M44.54,71.45c1.04,0.1,3.4,0.62,4.41,0.55c11.55-0.75,32.3-3.25,45.35-3.87c1.71-0.08,2.58,0.05,3.86,0.7"/><path d="M62.77,76.49c0.42,0.88,0.22,3.19-0.5,4.24c-3.93,5.69-9.25,10.33-17.4,15.28"/><path d="M79.8,77.86c6.07,5.18,11.08,11.16,14.11,17.45"/></svg>