<svg><path d="M18.5,19.18c2.76,1.94,5.52,7.18,5.75,10.31"/><path d="M47.33,16.87c0.45,0.41,0.24,1.89-0.17,2.52c-0.4,0.63-4.15,4.6-6.17,6.07"/><path d="M33.56,12.25c0.69,0.75,0.7,2.67,0.69,3.15C34,32.25,28.47,39.02,22,43.25"/><path d="M35.47,29.89c4.29,1.8,9.7,7.48,10.83,10.02"/><path d="M55,16.43c3.28,2.83,5.92,7.4,6.25,10.56"/><path d="M84.24,13.37c0.6,0.56,0.32,2.63-0.23,3.5c-0.54,0.88-6.54,5.79-9.27,7.83"/><path d="M68.86,10.25c0.89,0.78,0.89,1.74,0.89,2.24c0,12.26-2.94,24.1-11.25,28.51"/><path d="M72.72,28.39c4.39,1.71,9.93,7.11,11.08,9.52"/><path d="M20.46,47.94c-0.12,3.4-2.95,12.29-3.96,14.31"/><path d="M21.51,49c3.37,0,47.02-4.75,63.96-4.75c11.52,0,3.64,5.75-0.66,9.5"/><path d="M28.95,63.81c0.82,0.53,1.4,1.85,1.55,2.55c1.11,5.09,1.25,4.29,2.8,13.93"/><path d="M30.61,65.36c12.44-1.02,38.17-3.95,47.17-4.34c3.51-0.15,3.92,1.68,3.32,3.88c-0.85,3.1-1.6,5.6-2.72,9.47"/><path d="M33.77,78.24c10.01-1.02,32.21-3.1,46.21-4.06"/><path d="M52.98,52.75c1,0.39,1.6,1.75,1.8,2.52c0.2,0.78,0,32.09-0.2,36.94"/><path d="M25.85,95.9c1.09,0.68,1.74,1.53,2.83,1.36s41.83-7.97,48.59-9.33"/><path d="M71.36,81c4.5,3.17,11.63,13.05,12.75,17.99"/></svg>