<svg><path d="M44.26,11.5c0.06,0.48,0.13,1.24-0.12,1.93c-1.47,4.06-9.88,12.98-21.38,18.44"/><path d="M45.86,16.65c1.39,0.1,2.24,0.32,3.92,0.15c5.4-0.53,12.36-1.99,16.33-2.65c2.39-0.4,3.09,1.12,2.17,2.59c-5,8.07-30.23,24.33-52.53,28.48"/><path d="M40.29,20.38c6.09,3.32,33.69,15.94,41.89,18.97c2.45,0.91,4.43,1.35,6.81,1.61"/><path d="M49,36.97c3.35,0.99,8.66,4.06,9.5,5.59"/><path d="M45,49.73c4.32,1.33,11.17,5.45,12.25,7.52"/><path d="M17.49,65.8c0.48,0.33,0.83,1.14,0.92,1.58c0.65,3.14,1.82,7.78,2.74,13.73"/><path d="M18.76,67.07c7.33-0.63,22.88-2.94,28.18-3.18c2.07-0.09,2.16,1,1.96,2.4c-0.48,3.25-0.77,4.62-2.19,9.98"/><path d="M20.92,78.84c5.9-0.63,18.98-2.11,27.23-2.7"/><path d="M32.11,55.5c0.68,0.24,1.08,1.09,1.22,1.58c0.14,0.49,0,31.41-0.13,34.45"/><path d="M16.25,95.12c0.77,0.57,2.24,1.29,3.01,1.15c0.77-0.14,20.24-6.51,26.99-8.38"/><path d="M42.74,81.72c2.46,2.16,6.35,8.89,6.97,12.25"/><path d="M56.49,62.82c0.55,0.33,0.95,1.16,1.05,1.6c0.75,3.19,1.02,7.89,2.08,13.93"/><path d="M57.95,64.11c8.42-0.64,23.35-2.48,29.44-2.72c2.38-0.09,2.48,1.02,2.25,2.44c-0.55,3.29-0.88,5.2-2.52,10.64"/><path d="M59.93,76.57c6.77-0.64,19.8-1.63,29.28-2.23"/><path d="M72.11,51c0.68,0.29,1.08,1.31,1.22,1.9c0.14,0.58,0,33.73-0.13,37.39"/><path d="M57,93.34c0.75,0.71,1.7,1.59,2.45,1.42c0.75-0.18,23.62-6.46,28.3-7.88"/><path d="M82.74,79.97c3.7,2.91,9.54,11.97,10.47,16.5"/></svg>