<svg><path d="M11.76,33.4c0.46,0.51,1.02,1.4,1.12,2.06c0.87,5.79,1.37,13.79,2.62,22.43"/><path d="M13.22,34.98c6.93-0.97,18.61-2.33,23.63-2.7c1.96-0.14,2.86,1.38,2.62,2.83c-0.83,4.98-1.98,10.84-3.33,19.12"/><path d="M15.76,56.43C21.34,55.46,28,55,37.52,54.54"/><path d="M23.92,13.25c1.08,1,2.26,2.75,2.26,4.47c0,4.78-0.2,46.78-0.2,60.16"/><path d="M11.07,84.77c0.6,1.16,2.46,1.11,3.06,0.82c0.6-0.29,18.04-9.65,21.76-11.97"/><path d="M31.75,64.5c2.67,3.25,6.89,13.35,7.56,18.39"/><path d="M51.72,20.1c0.36,0.26,1.03,1.42,1.16,2.41c0.8,6.52,1.51,14.75,2.21,19.05"/><path d="M53.04,21.39c9.68-1.02,24.17-1.71,31.83-2.59c2.44-0.28,3.84,1.47,3.53,3.44c-1.24,7.81-3.13,12.38-3.84,16.72"/><path d="M44.46,30.1c1.5,0.64,4.24,0.78,5.74,0.64c9.02-0.86,28.13-2.2,41.5-2.68c2.49-0.09,3.8-0.57,5.74-0.37"/><path d="M55.45,40.15c2.49-0.24,25.21-2.17,28.4-2.41"/><path d="M52.14,46.37c0.28,0.44,0.78,1.03,0.91,2.01c0.49,3.61,1.22,8.16,1.74,11.49"/><path d="M53.28,48.42c9.18-0.89,23.98-2.35,31.24-3.12c2.32-0.25,3.65,1.28,3.35,2.99c-0.36,2-1.57,4.85-2.13,7.26"/><path d="M55.16,57.96c2.49-0.24,28.83-1.67,32.03-1.91"/><path d="M68.67,12.25c0.77,0.48,1.24,2.17,1.39,3.13s0,34.85-0.15,40.87"/><path d="M67.7,59.27c0.35,0.86,0.11,1.95-0.18,3.02c-1.39,5.25-7.35,12.5-11.8,18.54c-0.97,1.31-0.2,1.57,0.53,1.58c10.32,0.14,27.73,7.61,33.07,14.36"/><path d="M81.82,65.63c0.1,0.74,0.16,2.54-0.19,3.62c-2.84,8.7-9.23,21.81-31.37,27.5"/><path d="M42.63,68.22c2.08,0.57,4.29,0.9,5.29,0.87c15.64-0.55,25.08-1.33,45.2-2.79c1.66-0.12,4.53-0.15,5.88,0.5"/></svg>