<svg><path d="M10.76,36.26c0.42,0.6,0.94,1.64,1.03,2.42c0.8,6.79,1.22,15.58,2.37,25.71"/><path d="M12.56,37.7c6.38-1.14,17.88-2.49,22.49-2.93c1.8-0.17,2.63,1.61,2.41,3.32c-0.77,5.83-1.82,11.54-3.06,21.24"/><path d="M14.4,62.09c5.13-1.14,15.02-1.91,22.2-2.97"/><path d="M21.92,16.75c1.08,1,2.26,2.75,2.26,4.47c0,4.78-0.2,49.28-0.2,62.66"/><path d="M11.57,88.27c0.6,1.16,2.46,1.11,3.06,0.82c0.6-0.29,18.54-10.15,22.26-12.47"/><path d="M33,69.25c2.49,2.76,6.43,11.35,7.06,15.64"/><path d="M65.57,11.12c0.13,0.28,1.92,1.45,1.89,3.22c-0.2,10.17-0.33,15.82-0.33,18.71"/><path d="M46.57,18.22c3.07,1.92,7.92,7.88,8.69,10.87"/><path d="M84.61,14.54c0.02,0.38,0.04,0.98-0.04,1.52c-0.45,3.21-3.36,9.66-6.87,13.97"/><path d="M46.68,32.75c-0.12,3.72-2.17,12.43-3.18,14.64"/><path d="M46.36,35.84c2.2-0.34,31.67-3.83,44.62-4.46c7.69-0.37,0.7,6.53-0.51,7.89"/><path d="M52.05,45c0.21,0.23,0.46,0.41,0.53,0.71c0.61,2.64,2.11,11.67,2.72,15.54"/><path d="M53.38,46.84c3.98-0.52,26.33-2.98,30.01-3.51c0.92-0.13,1.84,0.59,1.61,2.15c-0.4,2.69-0.94,6.2-1.9,11.54"/><path d="M55.75,59.54c5.11-0.68,24.41-1.8,28.46-2.27"/><path d="M51.19,75.21c1.1,0.26,3.1,0.28,4.2,0.26c8.86-0.16,20.11-1.74,29.45-2.06c1.83-0.06,2.93,0.12,3.84,0.25"/><path d="M67.3,63.87c0.08,0.27,1.09,1.39,1.17,3.09c0.34,7.31-0.04,22.35-0.04,25.95"/><path d="M40.77,94.49c1.36,0.67,3.86,0.8,5.23,0.67C60.75,93.75,78,92.7,93.36,92.21c2.27-0.07,3.64,0.32,4.77,0.66"/></svg>