<svg><path d="M11.76,37.4c0.46,0.51,1.02,1.4,1.12,2.06c0.87,5.79,1.37,14.29,2.62,22.93"/><path d="M13.22,39.05c6.57-1,20.51-2.4,25.26-2.78c1.85-0.15,2.71,1.41,2.48,2.9c-0.79,5.1-1.88,10.08-3.16,18.55"/><path d="M15.76,60.43c5.58-0.98,15.96-1.48,23.76-2.39"/><path d="M24.42,17.25c1.08,1,2.26,2.75,2.26,4.47c0,4.78-0.2,44.28-0.2,57.66"/><path d="M10.57,86.77c0.6,1.16,2.46,1.11,3.06,0.82c0.6-0.29,20.54-12.15,24.26-14.47"/><path d="M33.75,64.75c2.58,2.94,6.66,12.08,7.31,16.64"/><path d="M81.06,11.39c0.09,0.26,0.12,0.62-0.17,1.04c-2.38,3.39-16.23,7.9-30.6,9.3"/><path d="M50.96,25.28c2.28,1.5,5.71,5.74,6.28,8.08"/><path d="M85.74,20.54c0.03,0.3,0.14,0.81-0.05,1.22c-1.55,3.28-4.04,7.13-9.15,11.64"/><path d="M47.42,37.22c0.8,0.33,2.95,0.46,5.09,0.32c8.04-0.55,28.23-3.29,37.04-3.73c2.14-0.11,2.68-0.32,4.02,0"/><path d="M66.69,20.8c0.98,0.47,1.56,2.13,1.76,3.07s0,32.87-0.2,38.78"/><path d="M67.69,36.9C62.75,45.5,56.5,53,45.5,58.87"/><path d="M70.62,38.39c2.81,2.66,15.12,15.27,18.18,17.89c1.03,0.89,1.92,1.27,2.96,1.52"/><path d="M49.76,76.56c0.29,2.14-2.94,11.58-5.3,15.15"/><path d="M55.43,66.11c4.73,16.66,12.2,31.11,30.43,31.32c8.79,0.1,9.37-1.94,2.03-9.52"/><path d="M70.66,70.8c1.9,5.3,4.66,10.59,6.69,2.48"/><path d="M85.12,67.31c4.23,1.92,10.4,6.18,13.83,12.13"/></svg>