<svg><path d="M11.76,36.4c0.43,0.57,0.96,1.56,1.05,2.3c0.82,6.45,1.76,14.81,2.94,24.45"/><path d="M13.22,38.98c6.93-0.97,17.11-2.83,22.13-3.2c1.96-0.14,2.86,1.38,2.62,2.83c-0.83,4.98-1.98,11.84-3.33,20.12"/><path d="M15.76,60.93c7.74-0.68,11.99-1.18,20.76-1.89"/><path d="M22.92,18.25c1.08,1,2.26,2.75,2.26,4.47c0,4.78-0.2,45.28-0.2,58.66"/><path d="M11.07,87c0.49,0.89,2.01,0.86,2.5,0.63c0.49-0.22,20.03-9.73,23.07-11.51"/><path d="M32,68c3.02,2.81,7.8,11.53,8.56,15.89"/><path d="M42.21,24.1c1.23,0.67,2.66,0.8,3.9,0.67c11.31-1.22,32.89-3.89,45.93-3.98c2.05-0.01,3.28,0.32,4.31,0.65"/><path d="M53.51,13.5c1.31,1.43,1.73,1.87,1.87,2.75c1.31,8.25,0.86,12,1.06,15.75"/><path d="M77.87,12.25c0.84,1,1.4,2.52,1.12,4c-0.84,4.5-0.91,8.5-2.12,14.25"/><path d="M44.37,40.11c1.4,0.39,3.08,0.77,4.88,0.61c13.57-1.22,27.62-3.22,38.48-4.14c1.87-0.16,3.37-0.08,5.06,0.42"/><path d="M65.95,28.25c0.24,1.21,0.24,1.95-0.11,2.93c-5.54,15.3-13.87,26.23-24.62,33.32"/><path d="M70.81,39c5.13,4.44,17.09,15.77,22.21,18.74c1.74,1.01,2.35,1.16,3.14,1.26"/><path d="M44.88,69.98c1.14,0.54,3.22,0.63,4.36,0.54c11.84-0.91,28.26-2.27,41.91-3.23c1.89-0.13,3.03,0.26,3.98,0.53"/><path d="M60.72,57.5c0.41,0.85,0.83,1.74,0.83,2.99c0,16.01-1.3,28.26-14.15,36.76"/><path d="M78.7,55.25c0.52,0.72,1.47,1.75,1.47,3.25c0,6.75,0,33.75-0.16,40"/></svg>