<svg><path d="M11.76,32.64c0.39,0.57,0.87,1.56,0.96,2.3c0.74,6.45,2.1,14.82,3.17,24.45"/><path d="M12.94,33.96c5.94-1.08,18.5-2.27,22.79-2.69c1.67-0.16,2.45,1.54,2.24,3.16c-0.71,5.55-1.69,11.97-2.85,21.2"/><path d="M16.11,57.21c6.64-0.46,13.14-1.21,21.05-1.78"/><path d="M22.92,12.75c1.08,1,2.26,2.75,2.26,4.47c0,4.78-0.2,46.78-0.2,60.16"/><path d="M13.57,82.27c1.18,0.98,3.46,0.61,4.06,0.32c0.6-0.29,15.54-7.65,19.26-9.97"/><path d="M33,65.25c2.49,2.85,6.43,11.71,7.06,16.14"/><path d="M66.99,11.87c0.1,0.24,1.37,1.23,1.47,2.73c0.47,7.21,0.29,12.38,0.29,14.84"/><path d="M49.38,16.08c3.01,1.77,7.77,7.27,8.52,10.02"/><path d="M87.45,15.09c0.02,0.25,0.04,0.65-0.04,1.01c-0.51,2.13-3.42,6.8-7.41,9.66"/><path d="M46.72,30.73c-0.12,3.37-2.21,11.28-3.24,13.29"/><path d="M48.12,32.14c6.19-1.08,31.23-2.71,43.66-3.54c7.64-0.51,0.68,7.25-0.49,8.4"/><path d="M53.59,41.58c0.25,0.19,0.54,0.34,0.62,0.59c0.72,2.18,2.09,11.62,2.81,14.82"/><path d="M55.16,42.85c4.65-0.46,22.85-2.6,27.14-3.07c1.08-0.11,2.84,1.57,2.38,2.9c-0.75,2.17-2.25,6.98-3.52,9.92"/><path d="M57.55,54.95c6.02-0.63,19.37-1.74,25.61-2.08"/><path d="M49.92,66.45c0.33,1.02,1.13,2.6,1.22,3.29c0.1,0.7,0.31,17.05,0.22,21.39"/><path d="M52.07,67.96c2.87-0.23,32.01-3.27,34.15-3.41c2.52-0.17,3.97,1.45,3.97,3.91c0,4.08,0.12,13.11-0.58,16.54c-1.09,5.33-4.78,1.24-5.99-0.6"/><path d="M67.97,56.45c0.41,0.29,1.36,2.2,1.36,2.8c0,6.76-0.05,37.56-0.13,41.25"/></svg>