<svg><path d="M13.51,40.09c0.42,0.49,0.94,1.36,1.03,2c0.8,5.62,1.72,12.91,2.87,21.3"/><path d="M15.31,42.11c6.38-0.94,19.88-3.72,24.49-4.08c1.8-0.14,2.63,1.34,2.41,2.75c-0.77,4.83-1.82,9.56-3.06,17.6"/><path d="M17.65,61.49c5.13-0.95,16.52-2.41,23.7-3.29"/><path d="M25.42,18.25c1.08,1,2.26,2.75,2.26,4.47c0,4.78-0.2,42.78-0.2,56.16"/><path d="M12.57,83.77c0.6,1.16,2.46,1.11,3.06,0.82c0.6-0.29,21.04-10.15,24.76-12.47"/><path d="M36.25,64.25c2.75,3.11,7.12,12.8,7.81,17.64"/><path d="M48,14.06c0.31,0.29,0.66,0.51,0.75,0.89c0.87,3.3,2.47,8.92,3.34,13.77"/><path d="M49.91,15.62c5.65-0.7,10.52-1.71,15.73-2.42c1.31-0.17,2.1,0.81,1.91,1.62c-0.78,3.34-1.07,4.86-2.46,10.41"/><path d="M52.74,27.43c4.22-0.42,8.27-1.13,14.06-1.79"/><path d="M73.79,12.7c0.27,0.31,1.07,1.45,1.15,1.86c0.77,3.57,1.13,7.6,1.91,12.85"/><path d="M75.19,13.99c6.38-0.83,13.55-1.86,18.16-2.62c1.16-0.19,1.85,0.88,1.69,1.75c-0.69,3.61-2.49,6.96-3.4,10.86"/><path d="M76.64,25.53c4.9-0.29,9.81-0.96,17.03-1.08"/><path d="M51.74,36.26c0.27,0.52,0.76,1.43,0.91,2.08c1.21,5.34,2.75,15.6,3.52,25.51"/><path d="M53.49,38.28c10.1-1.79,26.79-3.16,33.75-4.08c2.56-0.34,4.1,0.72,4.02,2.97c-0.18,5.34-2.91,21.87-3.37,24.1"/><path d="M55.02,49.68c3.04-0.43,30.57-3.46,34.8-3.17"/><path d="M56.54,62.23c10.42-1.43,21.8-2.04,31.42-3.08"/><path d="M48.94,75.38c1.2,0.51,3.41,0.6,4.62,0.51c6.69-0.46,26.02-3.27,41.04-3.97c2.01-0.09,3.21,0.25,4.22,0.5"/><path d="M70.39,37.99c0.53,0.36,0.86,1.36,0.87,2.58c0.03,6.19,0.16,56.92,0.17,58.94"/></svg>