<svg><path d="M11.76,36.52c0.43,0.54,0.96,1.48,1.05,2.18c0.81,6.12,1.75,14.05,2.92,23.19"/><path d="M13.6,38.72c6.49-1.03,17.72-2.55,22.42-2.94c1.83-0.15,2.68,1.46,2.45,3c-0.78,5.26-1.85,10.41-3.12,19.16"/><path d="M15.97,59.82c5.22-1.03,14.31-1.12,21.61-2.08"/><path d="M23.42,18.25c1.08,1,2.26,2.75,2.26,4.47c0,4.78-0.2,45.28-0.2,58.66"/><path d="M12.07,85.77c0.6,1.16,2.46,1.11,3.06,0.82C15.73,86.3,30.5,79,36.38,76.12"/><path d="M32.75,68.25c2.58,2.58,6.66,10.62,7.31,14.64"/><path d="M61.01,12.75c0.06,0.41,0.11,1.06-0.11,1.66c-1.3,3.49-8.73,11.15-18.9,15.84"/><path d="M59.5,18.37c6-0.37,15-1.12,20.99-2.64c1.73-0.44,2.44,1.21,1.21,2.87c-3.45,4.65-5.2,6.65-8.27,11.15"/><path d="M47.63,32.73c1.52,0.54,3.3,0.62,4.82,0.54c10.55-0.52,28.8-3.52,39.61-4.73c2.51-0.28,4.05,0.26,5.31,0.53"/><path d="M51.5,34c0.03,1.43,0.07,3.69-0.07,5.74c-0.85,12.1-2.75,41.45-11.88,54.48"/><path d="M65.29,33.75c0.22,0.72,0.46,1,0.35,1.59c-0.83,4.61-3.63,10.81-10.39,13.91"/><path d="M77.25,32c0.74,0.83,1.38,1.81,1.38,3.09c0,1.72-0.22,2.95-0.22,4.18c0,3.35,2.54,4.73,7.38,4.73c4.38,0,7.62,0,9.47-1.08"/><path d="M69.13,43.75c2.16,1.29,5.58,5.3,6.12,7.3"/><path d="M54.37,55.51c0.88,0.21,3.69,0.26,4.57,0.21C70.5,55,81.75,54,90.22,53.18c1.45-0.14,3.64,0.1,4.37,0.2"/><path d="M59.23,64.18c0.53,0.1,3.78,0.11,4.31,0.1c5.53-0.11,13.64-1.72,19.08-1.71c0.88,0,4.58,0.05,5.02,0.1"/><path d="M58.23,72.96c0.49,0.12,2.52,0.13,3.02,0.12c5.15-0.14,17-1.33,22.11-2.14c0.81-0.13,4.26,0.06,4.68,0.12"/><path d="M56.64,80.87c0.36,0.29,0.77,0.53,0.89,0.91c1.03,3.39,2.34,10.5,3.38,15.47"/><path d="M58.89,82.86c6.68-0.72,22.82-2.25,28.99-2.97c1.55-0.18,3,0.83,2.78,1.66c-0.92,3.42-1.21,5.5-2.84,11.19"/><path d="M60.62,95c4.99-0.44,21.9-1.17,28.75-1.84"/></svg>