<svg><path d="M10.26,33.9c0.48,0.58,1.08,1.58,1.19,2.34c0.92,6.57,1.48,15.59,2.81,25.4"/><path d="M11.72,36.48c6.93-0.97,17.61-2.83,22.63-3.2c1.96-0.14,2.86,1.38,2.62,2.83c-0.83,4.98-1.98,13.34-3.33,21.62"/><path d="M14.26,59.93c5.58-0.98,13.46-1.48,21.26-2.39"/><path d="M21.92,15.25c1.08,1,2.26,2.75,2.26,4.47c0,4.78-0.2,46.78-0.2,60.16"/><path d="M11.57,84.77c0.6,1.16,2.46,1.11,3.06,0.82c0.6-0.29,16.04-8.15,19.76-10.47"/><path d="M29.75,67c2.93,3.07,7.57,12.62,8.31,17.39"/><path d="M40.07,17.32c1.11,0.22,3.14,0.29,4.25,0.22c10.49-0.6,11.58-1.06,21.8-1.58c1.84-0.09,2.96,0.11,3.88,0.22"/><path d="M47.18,18.55c0.22,1.09,0.87,2.15,0.87,3.44c0,1.28-0.11,22.91-0.11,27.52"/><path d="M49,28.25c4.5-0.75,7.73-0.8,13.25-1.57"/><path d="M48.74,37.84C53.5,37.5,57,36.75,62.12,36.6"/><path d="M41.75,50.86c0.18,0.54,1.52,0.79,2.16,0.57c2.57-0.89,14.98-5.41,18.94-6.84"/><path d="M61.83,18.68c0.68,1.15,0.75,1.35,0.75,2.63c0,1.28,0.11,25.2,0.11,35.69"/><path d="M70.22,24.16c0.28,0.36,0.59,0.65,0.68,1.12c0.78,4.17,2.17,12.94,2.96,19.07"/><path d="M71.94,25.61c6.99-1.06,13.44-1.39,19.89-2.46c1.62-0.26,2.59,1.23,2.36,2.44c-0.96,5.04-1.3,6.37-3.01,14.76"/><path d="M74.43,42.67c3.79-0.54,13.15-1.45,18.34-2.28"/><path d="M85.1,52c0.09,0.32,0.19,0.83-0.18,1.28c-2.23,2.71-15,8.65-32.47,12.29"/><path d="M47.38,73.71c0.86,0.44,3.72,0.71,4.6,0.69c10.51-0.16,23.8-1.92,34.62-2.71c1.08-0.08,3.46-0.18,5.07,0.21"/><path d="M69.22,62.29c1.17,1.9,1.17,3.04,1.17,4.55c0,5.19-0.01,19.94-0.01,25.07"/><path d="M42.52,93.06c0.65,0.21,4.05,0.56,5.15,0.5C63.5,92.75,78,91.25,94.52,90.34c1.77-0.1,3.91,0.34,4.79,0.66"/></svg>