<svg><path d="M9.72,36.4c0.45,0.56,1.01,1.54,1.11,2.28c0.86,6.39,1.86,14.67,3.1,24.22"/><path d="M11.05,37.48c6.49-0.97,19.72-2.33,24.41-2.7c1.83-0.14,2.68,1.38,2.45,2.83c-0.78,4.98-1.85,12.34-3.12,20.62"/><path d="M13.92,60.49c4.84-0.65,15.58-1.65,22.36-2.25"/><path d="M22.03,14.75c1.01,1,2.12,2.75,2.12,4.47c0,4.78-0.18,50.78-0.18,64.16"/><path d="M10.07,88.5c0.51,0.89,2.1,0.86,2.62,0.63c0.51-0.22,21-9.73,24.18-11.51"/><path d="M31.33,67.75c2.99,3.03,7.73,12.44,8.47,17.14"/><path d="M43,17.58c0.5,0.7,0.57,1.15,0.78,2.06c0.73,3.12,2.16,10.37,2.87,14.47"/><path d="M43.98,19.19c6.86-1.44,39.52-3.94,45.27-4.54c1.63-0.17,2.57,1.93,2.34,3.14c-0.94,4.97-2.09,9.22-3.15,13.2"/><path d="M46.87,32c2.05,0,12.67-1.75,14.34-1.75"/><path d="M72.76,29.5c3.72-0.5,13.71-1.25,15.95-1.25"/><path d="M 70.68,16.25 c 0.81,0.5 1.3,2.25 1.46,3.25 0.16,1 0,68.289583 -0.16,74.539583"/><path d="M60.83,17.37c0.55,1.19,1.02,2.59,1.02,4.43c0,12.45,0.15,54.14-0.02,59.7c-0.34,10.75,3.41,13.53,18.01,13.53c16.57,0,17.8-1.78,17.8-11.12"/><path d="M 46.338959,47.902084 C 53.00288,47.783357 54.589308,47.27321 60.401875,47.267083"/><path d="M44.12,47.25c0.81,0.5,1.29,2.25,1.46,3.25c0.5,3,0.3,20.25,1.05,29.5"/><path d="M 46.668333,61.558958 c 1.9,0 13.241667,-1.38 14.791667,-1.38"/><path d="M46.81,77.98c1.92,0,12.89-1.72,14.46-1.72"/><path d="M72.79,45.69c6.86-1.44,13.11-2.59,17.46-3.54c1.6-0.35,2.44,0.9,2.34,2.14c-0.56,6.72-3.37,25.97-4.02,32.7"/><path d="M72.95,58.75C75,58.75,88.48,58,90.15,58"/><path d="M72.64,75c2.05,0,13.67-1.25,15.34-1.25"/></svg>