<svg><path d="M9.76,32.4c0.32,0.65,0.72,1.77,0.79,2.62c0.61,7.36,1.32,16.89,2.2,27.87"/><path d="M10.72,34.48c6.93-0.97,18.11-2.83,23.13-3.2c1.96-0.14,2.86,1.38,2.62,2.83c-0.83,4.98-2.46,15.14-3.33,24.12"/><path d="M12.76,60.43c6.74-0.43,14.46-1.48,22.26-2.39"/><path d="M20.92,13.75c1.08,1,2.26,2.75,2.26,4.47c0,4.78-0.2,50.78-0.2,64.16"/><path d="M10.07,87.43c0.48,0.97,1.97,0.93,2.45,0.69c0.48-0.24,19.64-10.56,22.62-12.5"/><path d="M29.5,68c3.2,2.81,8.26,11.53,9.06,15.89"/><path d="M42.4,18.43c2.69,1.8,5.38,6.66,5.61,9.56"/><path d="M63.24,16.87c0.47,0.37,0.25,1.72-0.17,2.3c-0.42,0.57-4.33,4.2-6.44,5.54"/><path d="M54.24,11.75c0.69,0.72,0.69,2.56,0.69,3.02c0,12.89-3.5,20.48-8.75,25.23"/><path d="M55.39,30.89c3.45,1.71,7.81,7.11,8.72,9.52"/><path d="M69.17,16.93c2.72,2.43,4.9,6.34,5.18,9.06"/><path d="M91.4,15.87c0.02,1.04-0.14,1.93-0.64,2.58c-0.5,0.64-5.54,4.26-8.03,5.76"/><path d="M80.1,12.25c0.77,0.69,0.77,1.54,0.77,1.99c0,12.51-4.01,21.76-9.71,25.26"/><path d="M81.15,29.89c3.92,1.62,8.86,6.74,9.89,9.02"/><path d="M45.28,46.13c-0.15,3.45-3.66,12.46-4.91,14.52"/><path d="M45.43,47.99c2.56,0,33.08-3.39,45.97-3.39c8.77,0,2.77,4.95-0.5,8.18"/><path d="M46.28,63.2c1.24,0.48,2.64,0.63,4.07,0.48c7.25-0.78,27.28-2,38.24-2.92c1.41-0.12,2.3,0.08,3.71,0.42"/><path d="M67.58,50.25c0.74,0.46,1.33,2.72,1.33,3.68c0,9.73,0,39.28-0.15,45.07"/><path d="M68.22,62.81C63.1,71.9,52.14,83.82,38.74,90.95"/><path d="M69.07,62.13c3.41,3.4,19.44,20.48,23.14,23.82c1.26,1.13,2.33,1.62,3.59,1.94"/></svg>