<svg><path d="M10.05,34.31c0.42,0.61,0.93,1.66,1.02,2.46c0.79,6.9,1.7,15.83,2.85,26.13"/><path d="M11.33,36.28c6.32-1.16,17.21-2.57,21.78-3.01c1.78-0.17,2.61,1.64,2.39,3.38c-0.76,5.93-1.8,11.22-3.04,21.08"/><path d="M14.15,59.56c7.1-0.81,12.1-1.06,20.49-2.04"/><path d="M20.7,16.25c1.08,1,2.26,2.75,2.26,4.47c0,4.78-0.2,46.78-0.2,60.16"/><path d="M10.85,84.77c0.6,1.16,2.46,1.11,3.06,0.82c0.6-0.29,14.84-7.59,20.76-10.47"/><path d="M30.78,67c2.67,2.98,6.89,12.26,7.56,16.89"/><path d="M48.5,17.14c1.33,0.05,3.29,0.29,4.58,0.15c9.92-1.04,21.42-2.54,30.95-3.15c1.81-0.12,3.32-0.14,4.99,0.1"/><path d="M44.7,25.83c-0.16,5.22-1.56,9.99-2.59,15.26"/><path d="M45.06,28.03c5.54-1.21,35.16-4.27,46.92-4.27c6.82,0,0.87,7.49-0.21,9.39"/><path d="M66.6,17.93c0.65,1.4,0.94,2.32,0.95,3.69c0.01,0.49-0.2,24.85-0.2,26.2"/><path d="M52.21,33.38c2.42,0.9,5.73,3.6,7.05,5.09"/><path d="M49.31,42.23c2.62,0.98,6.67,4.6,8.1,6.24"/><path d="M75.49,29.76c3.15,1.34,6.71,4.01,7.97,5.12"/><path d="M75.34,40.13c3.42,1.13,8.09,4.54,9.96,6.43"/><path d="M44.28,55.33c1.32,0.47,3.73,0.6,5.05,0.47c8.39-0.81,32.5-3.45,40.63-2.91c2.19,0.15,3.51,0.22,4.61,0.46"/><path d="M67.14,56.36c0.01,0.2,0.03,0.53-0.03,0.82c-0.32,1.73-2.17,5.51-4.71,7.83"/><path d="M48.06,65.86c0.43,1.12,1.65,2.92,1.41,4.92C49,74.75,49.49,92,49.49,97.05"/><path d="M49.52,68.58c5.45-0.9,38.57-3.95,39.64-4.27c2.3-0.67,3.63,0.86,3.59,3.85c-0.08,7.28,0.82,15.03-0.5,22.71c-1.34,7.78-4.2,3.56-5.92,0.65"/><path d="M61.91,69.7c0.52,0.74,1.18,2.18,1.24,3.28c0.17,3.65-0.3,19.68-0.3,21.32"/><path d="M75.49,67.43c0.62,1.69,0.88,2.81,0.9,4.46c0.08,6.39-0.53,17.16-0.88,22.96"/></svg>