<svg><path d="M12.26,35.4c0.46,0.51,1.02,1.4,1.12,2.06c0.84,5.59,2.3,12.85,3.62,21.93"/><path d="M14.22,36.98c6.93-0.97,19.11-3.33,24.13-3.7c1.96-0.14,2.86,1.38,2.62,2.83c-0.83,4.98-1.98,9.84-3.33,18.12"/><path d="M17.26,57.43c5.58-0.98,14.46-2.48,22.26-3.39"/><path d="M24.42,16.75c1.08,1,2.26,2.75,2.26,4.47c0,4.78-0.2,41.78-0.2,55.16"/><path d="M12.07,80.77c0.6,1.16,2.46,1.11,3.06,0.82c0.6-0.29,17.62-8.09,23.76-10.97"/><path d="M34.75,64.75c2.23,1.97,5.75,8.09,6.31,11.14"/><path d="M45.03,17.82c1.21,0.56,3.43,0.65,4.64,0.56c12.59-0.93,28.51-3.6,39.72-4.34c2.01-0.13,3.23,0.27,4.24,0.55"/><path d="M51.11,18.64c0,39.31-1.86,56.11-13.8,73.64"/><path d="M56,33.07c0.95,0.45,2.06,0.54,3.01,0.45c8.75-0.82,23.49-3.77,30.65-4.35c1.58-0.13,2.54,0.21,3.33,0.44"/><path d="M65.31,24.86c1.02,1.21,1.34,1.58,1.45,2.32c1.02,6.96,0.31,8.79,0.6,11.32"/><path d="M79.88,22.39c0.65,0.84,1.09,2.13,0.87,3.38c-0.65,3.8-1.09,6.63-2.04,11.48"/><path d="M57,43.9c0.31,0.47,0.32,0.79,0.49,1.38c1.4,4.83,2.6,10.19,3.42,19.17"/><path d="M58.51,45.69c7.5-0.69,23.35-3.72,28.95-4.31c2.06-0.22,2.52,1.49,2.35,3.61c-0.27,3.43-1.75,9.72-2.96,16.45"/><path d="M60.56,53.66c2.44-0.28,25.61-2.97,27.63-3.06"/><path d="M61.26,62.48c7.67-1.19,18.19-2.65,25.65-3.08"/><path d="M54.65,70.69c0.64,0.35,1.09,1.38,1.14,2.07c0.22,3.4-0.14,18.24-0.14,22.76"/><path d="M55.79,71.8c5.09-0.81,35.4-4.17,36.42-4.23c1.53-0.08,2.87,1.08,2.82,3.21C94.9,76.41,94.75,86,93.6,91.24c-1.21,5.53-4.6,2.26-6.94,0.16"/><path d="M72.62,46.36c0.33,0.62,0.85,1.22,0.85,2.35c0,4.92,0.64,29.16,0.64,30.67"/><path d="M62.12,82.99c1.03,0.69,2.17,1.06,3.08,0.77c2.56-0.81,13.1-4.52,18.47-6.02"/><path d="M80.63,73.55c2.28,1.44,5.88,6.03,6.44,8.36"/></svg>