<svg><path d="M26.25,18.74c1.34,0.31,3.91,0.59,5.25,0.51c17.27-1.07,30.75-2,44.36-2.8c2.24-0.13,3.58,0.15,4.71,0.31"/><path d="M53.27,10.75c0.13,0.3,1.34,1.59,1.34,3.53c0,3.22,0.12,6.72,0.12,12.63"/><path d="M30.47,28.22c1.38,0.49,3.92,0.57,5.3,0.49C48,28,62.25,27,71.74,26.45c2.3-0.13,3.69-0.27,4.84-0.02"/><path d="M19.91,35.63c0,3.48-3.03,13.05-4.41,15.37"/><path d="M20.24,38.24c9.51-0.99,60.24-4.53,67.95-4.9c12.05-0.59,2.55,7.16-0.45,9.28"/><path d="M28.92,43.98c1.28,0.21,4.13,0.26,5.4,0.21c11.48-0.41,28.23-1.92,39.34-2.54c2.13-0.12,3.41,0.1,4.47,0.21"/><path d="M43.25,44.05c0.07,0.4,0.15,1.04-0.15,1.62c-1.77,3.43-11.43,10.45-25.34,15.06"/><path d="M40,51.08c0.35,0.21,0.8,1.08,0.87,1.36c0.48,2.04,1.35,5.95,2.02,9.81"/><path d="M41.36,51.85c5.35-0.41,28.33-2.77,31.99-2.84c1.51-0.03,1.77,1.06,1.6,1.67c-0.57,1.96-1.58,4.52-2.35,8"/><path d="M42.88,60.97c4.28-0.21,25.36-1.9,30.82-1.96"/><path d="M18.12,71.61c0.43,0.26,0.75,0.91,0.83,1.25c0.59,2.49,1.65,7.36,2.47,12.08"/><path d="M19.27,72.62c6.62-0.5,22.6-1.94,27.39-2.12c1.87-0.08,1.95,0.8,1.77,1.9c-0.43,2.57-0.69,4.06-1.98,8.31"/><path d="M21.21,82.74c5.32-0.5,19.63-1.67,27.08-2.14"/><path d="M31.74,62.12c1.22,0.44,1.95,1.97,2.19,2.85C34.18,65.85,34.19,87,34.19,93"/><path d="M16,95.73c0.76,0.4,2.21,0.9,2.97,0.8c0.76-0.1,19.95-4.52,26.61-5.82"/><path d="M42.13,86.15c2.67,1.97,6.9,8.1,7.56,11.16"/><path d="M56.37,71.11c0.43,0.26,0.75,0.91,0.83,1.25c0.59,2.49,1.65,7.36,2.47,12.08"/><path d="M57.52,72.12c6.62-0.5,24.6-1.94,29.39-2.12c1.87-0.08,1.95,0.8,1.77,1.9c-0.43,2.57-0.69,4.06-1.98,8.31"/><path d="M59.46,82.24c5.32-0.5,21.63-1.67,29.08-2.14"/><path d="M69.99,62.62c1.22,0.44,1.95,1.97,2.19,2.85c0.24,0.87,0.26,22.03,0.26,28.03"/><path d="M57.25,95.73c0.76,0.4,2.21,0.9,2.97,0.8c0.76-0.1,19.95-4.52,26.61-5.82"/><path d="M83.63,86.15c3.46,2.24,8.95,9.18,9.81,12.66"/></svg>