<svg><path d="M33.63,11.08c0.04,0.52,0.17,1.4-0.07,2.1c-1.7,4.97-6.54,14.09-13.26,20.09"/><path d="M14.58,33.83c0.55,0.54,1.41,2.24,1.49,2.93c0.67,5.43,1.6,35.1,2.06,44.85"/><path d="M17.18,36.76c7.08-1.12,26.62-4.55,29.21-4.59c1.85-0.03,2.65,1.44,2.44,2.96c-0.43,3.09-2.26,32.38-3.08,36.63"/><path d="M26.69,35.18c0.16,0.52,0.74,1.43,0.77,2.08c0.35,10.3,0.35,30.95,0,40.96"/><path d="M36.88,34.19c0.01,0.44,0.75,2.02,0.75,2.78c0.01,8.53-0.33,27.3-0.46,37.47"/><path d="M10.63,82.38c0.75,1.48,2.68,1.24,3.43,1c10.46-3.27,24.77-8.6,37.27-12.73"/><path d="M54.58,21.59c1.32,0.88,2.96,0.6,4.12,0.47c8.38-0.9,20.84-3.91,26.05-4.8c3.38-0.58,6.39,2.25,6.2,6.33c-0.5,10.78-5.46,49.4-12.59,65.1c-3.97,8.73-8.62,3.31-10.82,0.28"/><path d="M72.39,22.67c0.08,1.54,0.12,3.98-0.17,6.2C69.36,50.57,61.5,77.5,43,91.91"/><path d="M54.42,35.43c7.65,10.19,26.74,38.42,35.89,46.31c2.23,1.92,3.7,3.33,5.69,4"/></svg>