<svg><path d="M32.12,17c0.05,0.42,0.24,1.18-0.1,1.7c-2.4,3.67-8.72,10.05-17.54,16.26"/><path d="M32.42,37.27c0.06,0.64,0.21,1.75-0.12,2.58c-2.58,6.65-10.27,15.66-20.8,24.68"/><path d="M25.45,56.12c0.27,0.24,0.93,2.09,0.98,2.58c0.05,0.49,0,32.27-0.05,35.3"/><path d="M44.38,17.75c3.66,1.65,9.45,6.78,10.37,9.34"/><path d="M43,41.25c3.53,1.63,9.12,6.71,10,9.25"/><path d="M41.75,83.23c1.71,1.27,3.78,1.32,4.86-0.25c3.14-4.57,6.29-10.16,9.14-15.99"/><path d="M68.09,20.38c0.65,0.18,3.41,0.49,4.06,0.43c5.01-0.49,15.97-1.99,18.96-1.92c1.08,0.03,1.72,0.09,2.26,0.17"/><path d="M65.09,41.92c0.62,0.17,1.77,0.2,2.39,0.17c7.98-0.46,20.93-1.96,29.46-1.89c1.04,0.01,1.66,0.08,2.18,0.16"/><path d="M82.25,42.66c0.07,0.45,0.99,2.37,1.06,5.25c0.34,13.85-0.22,36.8-0.22,41.51c0,7.65-6.1-0.48-7.37-1.67"/></svg>