<svg><path d="M32.49,12c-0.12,1-0.45,1.9-1.1,2.62C28.29,18.06,22.2,22.6,12.5,28"/><path d="M36.5,31.75c0.07,0.73,0.08,2.28-0.39,3.18C32.12,42.5,23.83,52.5,11,62.75"/><path d="M25.57,51.75c0.9,0.9,1.23,2.25,1.23,3.26c0,0.72,0.04,24.47-0.07,35.49c-0.02,2.19-0.04,3.87-0.07,4.75"/><path d="M50.5,18.45c1.44,0.35,3.81,0.52,5.23,0.35c7.14-0.8,16.01-2.43,24.49-3.06c2.38-0.18,3.83-0.06,5.02,0.11"/><path d="M43.13,41.42c1.5,0.38,4.27,0.58,5.76,0.38c12.86-1.67,28.86-4.05,41.85-5.38c2.49-0.26,4.01,0.18,5.26,0.37"/><path d="M71.52,41.33c1.26,1.26,1.76,2.79,1.76,5.27c0,14.56-0.26,38.66-0.26,43.62c0,8.03-7.21-0.5-8.71-1.75"/></svg>