<svg><path d="M30.13,16.5c0.05,0.38,0.23,1.06-0.09,1.53c-2.27,3.31-8.23,9.07-16.55,14.67"/><path d="M30.42,35.27c0.06,0.71,0.2,1.93-0.11,2.84c-2.46,7.32-9.78,17.24-19.81,27.17"/><path d="M25.45,52.12c0.27,0.24,0.93,2.09,0.98,2.58c0.05,0.49,0,38.27-0.05,41.3"/><path d="M37.94,18.42c1.06,0.33,4.09,0.71,5,0.61c5.81-0.63,15.14-1.92,20.88-2.62c1.5-0.18,2.44,0.03,3.2,0.11"/><path d="M50.73,20.88c0.27,1.12,0.72,2.28,0.62,2.69c-0.98,3.98-7.25,22.82-8.27,25.33"/><path d="M36.38,34.55c0.73,0.37,2.66,0.48,3.27,0.42c7.61-0.73,16.37-3.4,22.4-4.08c1.39-0.16,2.98,1.14,2.98,2.71c0,2.69-2.56,9.31-3.68,15.21"/><path d="M32.2,52.22c0.85,0.23,2.98,0.24,3.82,0.07c3.45-0.7,16.9-2.17,33.3-3.68c1.42-0.13,2.83-0.02,3.53,0.08"/><path d="M37.99,64.3c0.41,0.38,0.82,0.7,1,1.18c1.41,3.79,3.09,14.22,4.06,21.02"/><path d="M39.13,65.99C48,64.5,57.09,62.63,62.5,62.11c1.98-0.19,3.17,1.13,2.88,2.25c-1.17,4.63-2.04,11.23-3.78,17.63"/><path d="M43.22,84.08c6.36-0.59,11.63-1.65,20.85-2.08"/><path d="M75.34,20.8c0.62,0.36,3.25,0.99,3.86,0.86c4.76-1,12.18-2.03,15.02-1.88c1.02,0.06,1.64,0.17,2.15,0.35"/><path d="M72.59,42.21c0.61,0.36,1.74,0.44,2.36,0.36c7.87-1,14.13-2.78,22.53-2.62c1.02,0.02,1.64,0.17,2.15,0.35"/><path d="M87.75,43.66c0.07,0.45,0.99,2.37,1.06,5.25c0.34,13.85-0.22,35.3-0.22,40.01c0,9.58-6.1,1.02-7.37-0.17"/></svg>