<svg><path d="M26.88,14.5c0,0.88-0.31,2.04-0.76,2.7c-2.34,3.44-7.12,8.3-14.49,14.3"/><path d="M28.03,32c0.05,0.68-0.01,1.87-0.35,2.72C24.62,42.38,18.75,51,10,61"/><path d="M22.71,49c0.71,0.71,1.06,2.25,1.06,3.41c0,0.39-0.02,24.09-0.02,34.09c0,4.15-0.03,7.21-0.04,8"/><path d="M36.4,36.5c1.85,0.38,2.94,0.53,4.48,0.39c4.57-0.42,12.75-1.76,18.88-3.09c1.22-0.26,2.74-0.3,4.06-0.01"/><path d="M48.77,14.5c0.8,0.8,1.51,2.12,1.51,3.38c0,4.99,0.14,45.74,0.14,65.37c0,3.99-0.13,7.54-0.17,8.5"/><path d="M40.37,46.75c0.13,0.75,0.3,2.26,0.21,3.15C39.5,60,37.38,69.62,32.5,79.79"/><path d="M58.52,49.08c1.87,4.52,5.08,18.35,5.54,25.38"/><path d="M58.02,15.33c2.31,1.7,5.96,6.99,6.54,9.63"/><path d="M73.07,23.3c1.68,0.2,3.19-0.07,4.59-0.31c3.2-0.54,7.36-1.7,10.08-2.17c1.41-0.24,2.9-0.3,4.31-0.05"/><path d="M67.63,40.92c1.37,0.21,3.52,0.25,5.02-0.01c6.84-1.18,15.37-3.28,21.72-4.03c1.6-0.19,3.2-0.39,4.75,0.16"/><path d="M84.33,41.08c0.79,0.79,1.36,2.67,1.36,4.02c0,14.56,0.08,39.41,0.08,44.37c0,8.03-6.67,0.25-7.7-1"/></svg>