<svg><path d="M30.62,15c0.05,0.5,0.23,1.39-0.09,2.01c-2.3,4.33-8.35,11.87-16.8,19.2"/><path d="M32.41,34.77c0.06,0.69,0.21,1.88-0.12,2.77c-2.67,7.14-10.64,16.81-21.54,26.49"/><path d="M22.95,56.12c0.27,0.24,0.93,2.09,0.98,2.58c0.05,0.49,0,34.77-0.05,37.8"/><path d="M38.19,16.13c0.2,0.63,0.5,1.1,0.5,1.94c0,0.84-0.13,25.46-0.13,25.88"/><path d="M39.12,16.94c1.15-0.1,9.28-1.63,10.33-1.76c0.87-0.1,1.56,0.59,1.48,1.37c-0.09,0.99-0.2,22.68-0.2,26.49"/><path d="M39.5,25.8c2.26-0.14,9.25-1.33,11.09-1.33"/><path d="M39.6,33.81c3.04-0.35,7.91-1.26,10.86-1.26"/><path d="M39.29,42.57c2.61-0.19,8.37-0.94,11.32-0.94"/><path d="M57.75,13.71c0.2,0.65,0.48,1.14,0.48,2.01S58.1,41.56,58.1,42"/><path d="M58.17,14.56c1.1-0.11,9.91-1.69,10.92-1.82c0.84-0.11,1.5,0.61,1.43,1.41c-0.09,1.02-0.19,23.48-0.19,27.43"/><path d="M58.54,22.76c2.18-0.15,9.88-1.38,11.65-1.38"/><path d="M58.62,32.03c2.93-0.36,8.59-1.3,11.43-1.3"/><path d="M58.33,41.06c2.51-0.19,9.03-0.97,11.87-0.97"/><path d="M42.19,47.3c0.13,0.99-0.04,2.29-0.47,3.13c-2.76,5.41-6.26,9.99-12.58,16.57"/><path d="M38.85,59.43c0.59,0.54,1.04,1.71,1.08,2.54c0.35,7.4-0.48,26.93-0.19,30.78"/><path d="M57.14,46.75c0.05,0.5-0.01,1.15-0.16,1.57c-0.94,2.71-2.14,4.8-4.29,8.1"/><path d="M39.26,58.86c5.62-0.91,29.53-3.36,31.94-3.83"/><path d="M53.61,58.62c0.33,0.27,0.59,0.65,0.59,1.12c0,4.8,0.04,19.97-0.16,27.53"/><path d="M40.01,68.31c5.31-0.78,25.01-3.3,27.29-3.7"/><path d="M40.37,77.52c5.6-0.71,26.25-3.02,28.65-3.38"/><path d="M39.37,89.41c5.62-0.91,29.08-3.63,31.49-4.1"/><path d="M75.84,18.8c0.62,0.36,3.23,0.91,3.86,0.86c5.3-0.41,12.18-2.03,15.02-1.88c1.02,0.06,1.64,0.17,2.15,0.35"/><path d="M75.09,40.71c0.61,0.36,1.74,0.42,2.36,0.36c3.8-0.33,14.3-1.08,20.03-1.62c1.02-0.1,1.64,0.17,2.15,0.35"/><path d="M86.25,43.16c0.07,0.45,0.99,2.37,1.06,5.25c0.34,13.85-0.22,38.8-0.22,43.51c0,7.65-6.1-0.48-7.37-1.67"/></svg>