<svg><path d="M52.11,13.25c1.38,1.38,1.98,2.88,1.98,4.66c0,2.34-0.15,8.59-0.15,11.15"/><path d="M13.25,33.11c3.25,0.64,5.81,0.6,8.88,0.32c15.74-1.42,41.74-4.55,58.12-5.85c2.9-0.23,6.38-0.33,9.5,0.33"/><path d="M46.72,33.89c0,1.11-0.14,2.25-0.68,3.39C42.56,44.65,30,59,13.81,69.72"/><path d="M37.5,53.75c0.88,0.88,1.25,2.12,1.25,3.5c0,11.82,0.18,31.19,0.18,33.19c0,2.81,1.01,3.02,3.31,1.05c4.38-3.74,13.64-11.39,15.47-12.76"/><path d="M77,38.89c0.25,1.11-0.04,1.96-0.75,2.86c-3.5,4.38-8,8.25-18.19,15.22"/><path d="M46.25,50.75c3.73,0.63,25.49,21.06,36.59,28.66c3.29,2.25,6.3,4.07,10.16,5.34"/></svg>