<svg><path d="M30,23.9c3,0.47,6.01,0.11,8.76-0.22c8.42-1.02,22.68-2.69,31.62-3.38c2.87-0.22,5.78-0.55,8.62,0.07"/><path d="M52.37,9.75c1.09,0.5,1.74,2.25,1.96,3.25c0.22,1,0.5,27.25,0.28,33.5"/><path d="M32.25,35.64c3.25,0.36,5.53,0.16,8-0.13c7.56-0.91,21.31-2.59,29.75-3.53c3-0.33,6-0.6,8.75-0.21"/><path d="M16.25,49.7c3.62,0.68,7.5,0.39,11.01,0.02c13.06-1.36,39.13-4.27,54.49-5.38c3.64-0.26,7.16-0.57,10.75,0.2"/><path d="M44.72,51.64c0.09,0.82-0.16,2.32-0.93,3.29C36.8,63.81,28.35,72.41,13.25,80.5"/><path d="M37.5,65.75c0.81,0.81,1.25,1.88,1.25,3c0,12.12-0.07,19.71-0.07,22.19c0,2,1.43,2.89,2.93,1.39s13.6-12.09,15.6-13.59"/><path d="M77.25,52.14c0.12,0.98-0.18,2.05-0.5,2.61c-2,3.5-5,6.5-11.5,11.25"/><path d="M50.75,60.75C54.5,61,75.96,78.82,85.14,85.86c2.79,2.14,5.36,3.76,8.49,4.76"/></svg>