<svg><path d="M24.83,14c3.07,2.53,6.37,6.32,9,10.75"/><path d="M15.7,36.36c0.94,0.39,2.41,1.55,3.96,1.11c1.9-0.54,16.87-4.83,19.19-5.49c2.33-0.66,4.58,0.83,3.26,2.85C34.36,46.65,23.9,60.02,12.5,69"/><path d="M30.5,52.11c0.12,0.29,1.65,1.53,1.77,3.39c0.57,8.93,0.06,38.2,0.06,41.25"/><path d="M44.75,46.39c0.2,0.85,0.4,1.08,0,1.7c-1.2,1.87-4.9,6.45-7.3,8.66"/><path d="M35.33,57.25c3.16,3,6.54,7.5,9.25,12.75"/><path d="M82.8,13.5c0.06,0.53,0.24,1.45-0.13,2.15c-2.46,4.58-10.92,13.6-22.95,19.76"/><path d="M87.99,33.86c0.09,0.76,0.33,2.08-0.18,3.06c-3.53,6.68-16.77,21.13-32.37,29.25"/><path d="M92.79,59.5c0.11,0.84-0.07,2.75-0.72,3.87C87.75,70.75,74,84.25,53.32,95"/></svg>