<svg><path d="M22.33,15c3.41,2.41,7.07,6.03,10,10.25"/><path d="M14.2,37.86c0.94,0.39,4.36,0.29,5.96,0.11c4.09-0.47,14.37-3.83,16.69-4.49c2.33-0.66,4.58,0.83,3.26,2.85C32.36,48.15,24.25,59,11.5,71"/><path d="M29,54.11c0.12,0.29,1.65,1.53,1.77,3.39c0.57,8.93,0.06,38.2,0.06,41.25"/><path d="M43.31,46.89c0.15,0.87,0.3,1.1,0,1.74c-0.92,1.91-3.76,6.61-5.61,8.87"/><path d="M34.33,59.5c2.82,2.35,5.84,5.88,8.25,10"/><path d="M50.35,32.32c0.64,1.02,1.57,2.64,1.36,4.47c-0.21,1.83,0.21,56.66,0.21,59.71"/><path d="M52.37,34.34c5.92-0.79,35.92-3.69,37.09-3.97c2.49-0.6,4.33,1.45,4.05,2.38c-0.47,1.59-0.47,49.82-0.47,54.39c0,10.56-5.46,4.76-7.73,2.62"/><path d="M71.46,40.15c0.03,0.9,0.01,1.59-0.22,2.42c-2.67,9.45-5.99,18.18-13.05,26.82"/><path d="M65.24,12.25c0.71,0,1.85,1.4,2.04,2.64c3.47,22.77,8.24,37.54,16.89,50.83c0.77,1.18,1.16,2.03,1.78,2.44"/></svg>