<svg><path d="M52.43,8.5c0.1,0.75,0.5,2.02-0.21,3.02c-4.86,6.97-14.88,19.12-34.97,28.93"/><path d="M54.41,10.73c5.22,5.18,27.68,22.1,33.43,25.89c1.95,1.29,4.46,1.84,6.41,2.2"/><path d="M42.73,31.9c0.38,0.13,2.71,0.14,3.1,0.13c3.97-0.15,13.8-1.99,17.71-1.98c0.63,0,3.29,0.06,3.61,0.13"/><path d="M29.5,41.9c1.5,0.37,4.07,0.81,6.5,0.55c6.31-0.67,26.75-2.48,33.49-3.33c3.99-0.51,4.98,1.13,3.01,4.15c-3.25,4.98-5.25,8.48-8.25,12.73"/><path d="M52.1,50.75c0.8,0.43,2.13,1.94,2.13,2.94c0,1.65-0.11,7.42-0.11,9.23"/><path d="M19.5,65.25c2.25,0.5,4.64,0.4,6.02,0.33c15.35-0.7,43.13-4.67,58.24-4.85c2.33-0.03,3.52,0.03,5.26,0.43"/><path d="M45.92,66.66c0.09,0.46,0.36,1.22-0.18,1.84c-3.48,4.01-17.5,14-32.19,17.64"/><path d="M39.22,78.17c0.45,0.31,0.94,1.62,0.94,2.16c-0.03,6.85-0.3,15.67-0.3,16.83c0,1.16,1.11,1.82,2.52,0.95C43.78,97.24,53.5,90,61.21,85.87"/><path d="M74.52,67.12c0.02,0.21,0.26,0.99,0.11,1.26c-0.91,1.69-3.74,4.11-8.35,7.47"/><path d="M53.04,68.83c1.96,0.17,5.28,2.65,5.73,3c6.72,5.19,20.73,17.42,26.59,20.51c1.82,0.96,4.17,2.65,5.88,2.98"/></svg>