<svg><path d="M24.58,15.25c2.82,2.59,5.84,6.47,8.25,11"/><path d="M13.91,37.86c1,0.39,2.53,0.85,4.22,0.61C25,37.5,35.5,35,41.11,32.97c2.41-0.87,3.88,0.83,2.47,2.85C35.32,47.65,24.16,61.02,12,70"/><path d="M30,55.61c0.12,0.29,1.65,1.53,1.77,3.39c0.57,8.93,0.06,34.2,0.06,37.25"/><path d="M45.31,46.39c0.15,0.91,0.29,1.16,0,1.82c-0.88,2-3.6,6.92-5.36,9.29"/><path d="M34.83,59.25c3.33,1.94,6.9,4.85,9.75,8.25"/><path d="M54.27,19.73c0.46,1.74,0.91,2.64,0.91,4.89c0,2.24-0.15,66.86,0,69.13"/><path d="M54.94,22.23c2.58,0.06,29.62-3.99,31.97-4.01c1.96-0.02,3.21,2.03,3.06,3.67c-0.31,3.32-0.6,69.39-0.6,71.07"/><path d="M55.39,54.65C61,54.5,82.75,51.5,89.31,51.39"/><path d="M55.23,91.08c7.1-0.26,25.22-1.83,34.06-1.68"/></svg>