<svg><path d="M53.31,12c1.1,1.1,1.41,2.12,1.41,3.61c0,3.6-0.09,3.09-0.09,6.14"/><path d="M21.18,24.9c3.29,1.09,6.88,0.63,10.23,0.29c11.76-1.2,33.23-3.42,46.85-4.11c3.26-0.16,7.18-0.21,10.32,0.96"/><path d="M32.96,36.23c0.97,0.97,1.55,1.77,1.69,3.02c1.1,5.76,1.86,9.84,2.8,15.47c0.29,1.74,0.56,3.43,0.79,5"/><path d="M34.6,36.91c10.23-1.58,28.32-3.79,36.15-4.65c3.63-0.4,5.89,0.61,5.09,4.64c-0.76,3.85-1.41,7.54-2.54,12.86c-0.33,1.54-0.69,3.21-1.11,5.07"/><path d="M15,47.45c4.25,0.8,7.84,0.48,11.38,0.08c16.73-1.89,41.25-4.51,58.27-5.13c4.01-0.15,8.15-0.2,12.1,0.65"/><path d="M38.95,56.7c6.88-0.67,22.67-2.7,32.13-2.97"/><path d="M48.26,59.38c0.09,0.69,0.19,1.65-0.43,2.53C43.25,68.38,34,76.25,16.31,87.06"/><path d="M40.97,72.67c0.81,0.81,0.98,1.7,0.98,3.17c0,9.85-0.07,14.81-0.07,16.48c0,1.67,1.16,2.61,2.62,1.36c1.47-1.25,10.25-8.68,13.25-10.62"/><path d="M80.2,60.67c0.14,1.02-0.19,1.71-0.88,2.4c-2.86,2.85-5.32,4.12-12.98,8.66"/><path d="M54.98,66.13c3.31,0.3,20.05,15.63,28.77,22.87c2.33,1.94,5.37,3.96,8.25,4.91"/></svg>