<svg><path d="M21.83,14.5c3.07,2.53,6.37,6.32,9,10.75"/><path d="M12.2,36.36c0.94,0.39,2.89,0.99,4.46,0.61c6.09-1.47,17.37-3.83,19.69-4.49c2.33-0.66,4.58,0.83,3.26,2.85C31.86,47.15,24.5,57.25,13.5,68.5"/><path d="M28,52.61c0.12,0.29,1.65,1.53,1.77,3.39c0.57,8.93,0.06,38.2,0.06,41.25"/><path d="M42.25,46.89c0.2,0.85,0.4,1.08,0,1.7c-1.2,1.87-4.9,6.45-7.3,8.66"/><path d="M32.83,57.75c3.16,3,6.54,7.5,9.25,12.75"/><path d="M84.89,11.5c0.1,0.52,0.41,1.53-0.19,2.08C76.5,21,66.25,26.75,49.01,33.49"/><path d="M45.04,55.3c1.25,0.78,3.55,0.9,4.81,0.78c13.05-1.3,30.16-4.57,42.74-5.3c2.08-0.12,3.34,0.37,4.39,0.76"/><path d="M69.89,28.11c0.85,0.48,1.37,2.16,1.54,3.11c0.17,0.96,0,52.18-0.17,58.17"/><path d="M50.2,91.19c1.13,0.58,3.2,0.66,4.33,0.58C65.5,91,81.25,88.25,91.66,88c1.88-0.04,3.01,0.27,3.96,0.56"/></svg>