<svg><path d="M19.75,14.62c3.44,2.5,7.13,6.25,10.08,10.62"/><path d="M10.45,34.11c2.43,1.02,3.98,1.15,6.46,0.53c5.13-1.29,17.53-5.87,19.44-6.41c2.33-0.66,3.58,1.33,2.26,3.35C30.86,43.4,22,56,10.25,66.25"/><path d="M26.5,51.36c0.82,0.82,1.02,1.89,1.02,3.39c0,6.94,0.03,25.47,0.05,34.88c0,2.73,0.01,4.69,0.01,5.37"/><path d="M38.63,46.12c0.18,0.73-0.11,1.62-0.47,2.16c-1.1,1.61-4.5,5.56-6.7,7.47"/><path d="M30.58,56.62c2.99,2.38,6.19,5.96,8.75,10.12"/><path d="M65.08,16.25c0.07,0.91-0.15,2.17-0.63,3.39C60.62,29.25,53.88,41.75,41.1,54.5"/><path d="M65.38,20.88c3.25,4.97,15.27,19.14,22.23,26.64c2.77,2.99,4.52,4.61,7.55,6.29"/><path d="M54.48,47.51c1.17,0.55,3.55,0.17,4.76,0.05c3.99-0.4,10.08-1.29,13.39-2.02c1.26-0.28,3-0.59,4.27-0.23"/><path d="M46.75,62.5c2.27,0.57,4.17,0.69,6.5,0.35c6.55-0.96,18.09-2.91,24.49-4.05c3.99-0.71,5.51,0.94,3.51,4.69c-4.67,8.75-11,21.5-16.75,31"/></svg>