<svg><path d="M36.72,13.21c0.21,1.35-0.06,3.11-0.72,4.26c-4.23,7.35-8.05,13.92-17.75,22.87"/><path d="M30.22,29.33c0.85,0.85,1.31,2.05,1.31,3.22c0,6.48,0.02,12.12,0.03,17.45c0,1.83,0.01,3.51,0.01,4.97"/><path d="M44.41,29.48c2.16,0.52,4.93,0.41,7.11-0.1c6.98-1.63,16.8-3.66,25.24-4.96c2.31-0.35,4.72-0.6,7.04-0.15"/><path d="M55.08,10.54c1.62,0.88,2.45,2.23,3.13,4C63.62,28.75,69.5,40,86.75,50.09c5.67,3.32,5.45,0.38,4.65-3.5"/><path d="M78.6,11.46c2.99,1.19,7.77,3.93,9.17,5.97"/><path d="M53,48.45c1.15,1.15,1.5,2.67,1.5,3.68c0,1.88,0,3.22,0,5.75"/><path d="M22.75,61.64c3.38,0.61,6.64,0.31,10.13-0.17c13.24-1.84,31.03-3.83,43.98-4.48c2.78-0.14,6.18-0.7,8.89,0.2"/><path d="M49.14,60.42c0,1.53-0.8,2.6-1.67,3.76c-4.8,6.44-14.59,17.57-27.92,24.39"/><path d="M40.62,77.2c0.84,0.84,0.95,1.88,0.94,2.66c-0.03,9.84-0.06,15.29-0.06,16.95s1.12,2.61,2.53,1.36c1.42-1.25,13.05-9.36,14.94-10.61"/><path d="M73.86,63.96c0.03,0.24-0.15,1.17-0.34,1.48c-1.18,1.99-4.87,4.84-10.89,8.81"/><path d="M48.51,67.91c2.86,0.72,21.75,15.27,31.81,21.86c3.15,2.06,6.93,4.23,9.93,5.15"/></svg>