<svg><path d="M18.08,13c4.01,2.41,8.31,6.03,11.75,10.25"/><path d="M10.2,35.86c0.94,0.39,4.41,1.05,5.96,0.61c1.9-0.54,15.37-4.83,17.69-5.49c2.33-0.66,4.08,1.33,2.76,3.35C28.86,46.15,23.25,55.25,11.5,66.5"/><path d="M25.5,52.61c0.12,0.29,1.65,1.53,1.77,3.39c0.57,8.93,0.06,38.2,0.06,41.25"/><path d="M40.28,45.89c0.17,0.93,0.34,1.18,0,1.86c-1.04,2.05-4.25,7.08-6.33,9.5"/><path d="M31.08,60c2.73,2.35,5.66,5.88,8,10"/><path d="M46.51,34.07c1.22,0.72,2.63,1.3,4.48,1.21c5.51-0.28,26.36-3.36,28.77-3.86c1.99-0.42,3.85,0.55,3.24,3.33c-1.5,6.85-2,13.25-3.62,19.5"/><path d="M39.38,57.53c0.79,0.42,2.81,0.65,3.68,0.59C52,57.5,77.4,54.58,90.64,54.17c1.09-0.03,2.65,0.16,5.09,0.89"/><path d="M63.09,13.75c0.55,1,1.6,2.09,1.6,4.18c0,8.92-0.29,17.67-0.19,24.41c0.42,27.11-9.78,44.13-25.3,53.16"/><path d="M63.51,59.46C72,71.75,82,84.25,92.15,92.62c2.43,2,3.25,2.29,4.35,2.47"/></svg>