<svg><path d="M17.79,24.72c1.65,0.66,3.79,0.44,5.46,0.18c6.43-1,18.11-2.83,22.99-3.51c3.44-0.48,4.64,0.57,4.01,4c-1.06,5.74-3.58,15.62-7.15,21.21C40,51.5,37.25,46.5,36.25,45.5"/><path d="M35.45,12.52c0.43,1.23,0.37,2.36,0.28,3.11c-1.19,9.87-7.13,27.59-19.19,34.44"/><path d="M58.62,21.75c0.88,0.88,1.37,2.13,1.66,3.49c0.79,3.69,1.62,9.52,2.28,14.78c0.23,1.87,0.45,3.66,0.63,5.26"/><path d="M60.44,22.97c9.81-1.34,18.65-2.62,23.76-2.84c3.6-0.16,4.29,1.4,3.79,3.79c-1.28,6.03-2.15,9.17-3.56,16.81"/><path d="M64.25,43.31c5.41-0.28,11.09-0.89,17.75-1.33c1.32-0.09,2.67-0.17,4.08-0.23"/><path d="M52.22,47.73c1.03,1.03,1.12,2.02,1.12,3.57c0,3.55-0.09,4.69-0.09,6.95"/><path d="M15.75,61.95c3.38,0.67,6.84,0.76,10.25,0.28c17-2.36,40.06-4.23,54.63-4.96c3.46-0.17,6.88-0.15,10.12,0.72"/><path d="M46.62,60.91c0.23,1.44-0.6,2.76-1.43,3.77c-4.56,5.55-17.32,16.07-32.14,21.84"/><path d="M38.62,74.63c0.87,0.87,0.94,1.75,0.94,3.14c0,11.16-0.06,13.9-0.06,15.79s1.27,2.61,2.78,1.29c2.7-2.35,12.45-10.1,15.44-12.1"/><path d="M74.38,63.42c0,0.71-0.26,1.58-0.87,2.46c-1.81,2.6-4.77,5.5-8.21,8.37"/><path d="M51.01,65.31c2.24,0.46,17.61,14.44,27.33,22.11c3.16,2.5,4.78,3.58,8.66,5.32"/></svg>