<svg><path d="M29.67,23.17c0.94,0.38,2.66,0.42,3.61,0.38c7.47-0.3,30.22-3.55,43.47-4.38c1.57-0.1,2.51,0.18,3.3,0.37"/><path d="M52.71,11.62c0.12,0.29,1.59,1.53,1.7,3.39c0.54,8.93,0.15,14.32,0.15,17.36"/><path d="M18.88,36.23c1.46,0.54,4.14,0.76,5.59,0.54c18.29-2.77,42.79-5.02,62.32-6.23c2.42-0.15,3.88,0.26,5.1,0.53"/><path d="M33.75,43.64c0.6,0.3,1.37,0.53,1.48,0.93c0.82,2.88,1.8,9.98,2.95,15.44"/><path d="M36.07,45.13c10.68-1.38,27.68-3.88,35.73-4.14c2.58-0.08,2.97,1.76,2.75,2.69c-0.79,3.32-1.57,5.73-2.57,10.29"/><path d="M40,58.25c8.08-1.03,23-3,33.12-3.85"/><path d="M49.47,59.89c0.09,0.59,0.41,1.66-0.18,2.37c-4.54,5.48-14.79,13.23-32.23,22.7"/><path d="M40.25,73.86c0.44,0.31,0.93,0.61,0.92,1.15c-0.03,6.8-0.3,18.51-0.3,19.66s1.09,1.8,2.48,0.94c1.39-0.86,11.15-9.37,13.9-11.37"/><path d="M80.09,58.42c0.04,0.35,0.42,1.67,0.18,2.13c-1.5,2.86-6.18,6.95-13.8,12.65"/><path d="M55.75,65.48c1.66,0.79,4.31,3.03,4.76,3.37c6.77,5,23.24,17.76,27.81,20.7c1.72,1.11,3.2,1.59,4.92,1.9"/></svg>