<svg><path d="M20.33,12.75c3.41,2.82,7.07,7.06,10,12"/><path d="M13.2,36.36c0.94,0.39,3.35,0.73,4.96,0.61c2.84-0.22,16.37-3.33,18.69-3.99c2.33-0.66,4.58,0.83,3.26,2.85C32.36,47.65,23.4,60.52,12,69.5"/><path d="M29,52.11c0.12,0.29,1.65,1.53,1.77,3.39c0.57,8.93,0.06,38.2,0.06,41.25"/><path d="M42.78,45.89c0.17,0.91,0.34,1.16,0,1.82c-1.04,2-4.25,6.92-6.33,9.29"/><path d="M34.58,58.25c3.07,2.41,6.37,6.03,9,10.25"/><path d="M54.56,19.16c0.69,1.09,1.15,2.72,1.51,4.16c1.42,5.68,1.83,51.34,2,52.83"/><path d="M56.42,20.85c2.86-0.19,23.08-2.38,25.68-2.6c2.17-0.19,3.56,2.06,3.39,3.16c-0.34,2.23-0.67,51.89-0.67,53"/><path d="M57.42,45.39c3.86,0,22.86-1.86,27.23-1.86"/><path d="M57.92,73.6c8.83-0.85,18.58-2.1,26.9-2.49"/><path d="M44.3,91.56c1.11,0.45,3.16,0.47,4.27,0.45c9.85-0.22,31.95-2.95,43.47-2.94c1.86,0,2.97,0.21,3.9,0.43"/></svg>