<svg><path d="M23.83,16.5c3.42,2.59,7.07,6.22,10,10.75"/><path d="M13.2,39.86c2.56,0.86,5.01,0.55,7.62-0.12c5.81-1.49,15.04-4.02,16.79-4.51c3.39-0.96,4.06,1.62,2.69,3.71C32.6,50.62,22.75,64,11.5,74"/><path d="M30,56.11c0.88,0.88,1.27,2.01,1.27,3.64c0,6.56,0.03,21.2,0.05,29.75c0.01,3.12,0.01,5.43,0.01,6.25"/><path d="M43.08,51.39c0,0.74-0.13,1.37-0.46,1.98c-1,1.88-1.7,3.8-3.17,5.63"/><path d="M35.08,60c3.5,2.18,6,4.19,9,8"/><path d="M50.5,47.33c1.02,1.02,1.38,2.12,1.5,3.15c1.2,10.31,2.32,20.21,3.68,33.01c0.34,3.21,0.7,6.6,1.08,10.22"/><path d="M52.52,49.6c14.83-1.89,28.85-3.48,37.48-4.34c4.04-0.4,5.43,1.79,5.13,5.5c-0.7,8.82-2.13,26.37-4.12,40.07"/><path d="M70.86,15.86c1.33,1.33,1.85,2.77,1.85,4.1c0,14.16-0.04,64.55-0.04,68.58"/><path d="M55.04,68.87c13.09-1.74,23.84-2.49,37.97-3.53"/><path d="M57.36,90.61c13.52-0.98,21.68-1.8,33-2.02"/></svg>