<svg><path d="M21.33,14c3.24,2.41,6.72,6.03,9.5,10.25"/><path d="M13.2,35.86c0.94,0.39,2.41,1.05,3.96,0.61c1.9-0.54,16.37-4.33,18.69-4.99c2.33-0.66,4.58,0.83,3.26,2.85C31.36,46.15,21.9,59.02,10.5,68"/><path d="M26,53.61c0.12,0.29,1.65,1.53,1.77,3.39c0.57,8.93,0.06,35.7,0.06,38.75"/><path d="M40.28,46.89c0.17,0.81,0.34,1.03,0,1.62c-1.04,1.78-4.25,6.14-6.33,8.24"/><path d="M31.33,58.25c3.33,2.53,6.9,6.32,9.75,10.75"/><path d="M59.55,15.64c0.03,0.69,0.15,1.81-0.07,2.77c-1.33,5.85-5.53,18.67-11.98,26.52"/><path d="M55.48,37.74c1.48,0.08,2.61,0.01,3.54-0.04c12.24-0.69,22.54-2.97,28.84-3.35c1.53-0.09,2.46,0.18,3.23,0.37"/><path d="M69.62,40.69c0.07,0.4,0.99,2.11,1.06,4.67c0.34,12.32-0.22,40.77-0.22,44.97c0,9.52-6.1,1.27-7.37,0.21"/><path d="M54.66,56.38c0.03,0.63,0.06,1.63-0.06,2.54c-0.71,5.36-4.78,17.13-10.36,24.34"/><path d="M83.05,57.31c4.41,4.12,11.4,16.93,12.51,23.34"/></svg>