<svg><path d="M40.17,11.88c0.08,1.12,0.12,3.28-0.43,4.84c-3.49,9.79-4.55,16.26-8.68,23.48c-1.26,2.2-1.37,3.22,2.12,3.18C46.62,43.22,66,45,81.92,49.09"/><path d="M40.82,14.98c0.75-0.1,2.69-0.21,3.35-0.28c6.71-0.7,24.38-3.71,28.25-4.28c2.82-0.42,4.1,0.44,3.87,2.45c-1.23,10.81-2.79,26.88-8.13,38.37c-2.09,4.5-5.44,0.97-6.54,0"/><path d="M50.41,18.34c2.12,0.85,5.47,3.49,6,4.81"/><path d="M49.87,33.78c2.69,1.04,6.94,4.3,7.61,5.92"/><path d="M15.39,31c1.69,0.64,4.78,0.75,6.47,0.64c21.74-1.36,28.96-3.72,63.85-4.16c2.82-0.04,4.5,0.3,5.91,0.62"/><path d="M52.29,49.25c0.66,0.35,1.75,1.59,1.75,2.42c0,1.35-0.09,6.77-0.09,8.26"/><path d="M19,63.04c1.62,0.05,5.33,0.42,6.91,0.29C39.5,62.25,68.5,59,82.99,58.24c2.67-0.14,4.04,0.02,6.04,0.37"/><path d="M50.93,61.16c0.09,0.57-0.15,1.52-0.67,2.29c-3.37,4.98-17.5,17.3-31.2,23.44"/><path d="M40.72,77.17c0.45,0.31,0.94,1.62,0.94,2.16c-0.03,6.85-0.3,15.67-0.3,16.83c0,1.16,1.11,1.82,2.52,0.95c1.41-0.87,11.38-8.11,17.84-11.74"/><path d="M77.98,64.12c0.03,0.28,0.32,1.33,0.14,1.69c-1.12,2.27-4.63,5.52-10.34,10.04"/><path d="M53.54,62.83c1.54,0.91,4.02,3.47,4.44,3.86c6.31,5.72,21.66,20.34,25.93,23.71c1.6,1.27,2.98,1.81,4.59,2.18"/></svg>