<svg><path d="M18.08,13.75c3.5,2.94,7.25,7.35,10.25,12.5"/><path d="M10.72,37.72c0.8,0.38,2.99,0.74,4.37,0.59C18,38,31.92,34.6,33.9,33.97c1.98-0.64,3.89,0.8,2.77,2.75C30.08,48.16,21.19,61.07,11.5,69.75"/><path d="M27,52.61c0.12,0.29,1.65,1.53,1.77,3.39c0.57,8.93,0.06,38.2,0.06,41.25"/><path d="M40.84,47.39c0.13,0.95,0.25,1.21,0,1.9c-0.76,2.09-3.11,7.23-4.64,9.71"/><path d="M31.83,60.25c3.16,2.65,6.54,6.62,9.25,11.25"/><path d="M57.64,16.89c0.09,1.16,0.16,2.62-0.08,4.04c-1.52,9.02-6.68,24.56-13.75,36.78"/><path d="M53.47,43c0.41,0.61,0.53,1.97,0.53,3.23c0,13.02-0.2,38.65-0.2,47.4"/><path d="M59.35,40.69c0.56,0.36,2.43,0.66,3.52,0.6c4.88-0.28,20.4-2.39,27.15-3.14c0.77-0.09,2.37-0.36,4.09,0.26"/><path d="M73.6,14.75c0.49,1.14,0.78,2.28,0.85,4.56c0.86,29.75,0.3,61.44-17.04,76.19"/><path d="M74.7,42.5C79,61,85.75,79.5,93.96,88.89c1.96,2.24,2.59,2.88,3.29,3.11"/><path d="M83.16,20.5c5.04,4.17,6.42,7.34,7.98,11.25"/></svg>