<svg><path d="M19.83,14c3.07,2.53,6.37,6.32,9,10.75"/><path d="M10.7,35.36c0.94,0.39,2.35,0.7,3.96,0.61c4.09-0.22,18.37-3.83,20.69-4.49c2.33-0.66,4.08,1.33,2.76,3.35C30.36,46.65,24,56,12,67.5"/><path d="M27.5,52.11c0.12,0.29,1.15,1.53,1.27,3.39c0.57,8.93,0.06,38.2,0.06,41.25"/><path d="M40.75,45.39c0.2,0.85,0.4,1.08,0,1.7c-1.2,1.87-4.9,6.45-7.3,8.66"/><path d="M31.33,56.25c3.16,3,6.54,7.5,9.25,12.75"/><path d="M60.64,17c0.04,0.39,0.19,1.08-0.08,1.56c-1.93,3.36-7,9.21-14.08,14.9"/><path d="M61.93,34.27c0.05,0.66,0.17,1.78-0.1,2.63c-2.15,6.77-8.56,15.95-17.33,25.13"/><path d="M55.45,51.62c0.27,0.24,0.93,2.09,0.98,2.58c0.05,0.49,0,35.77-0.05,38.8"/><path d="M70.34,20.8c0.62,0.36,3.23,0.38,3.86,0.36c6.3-0.16,15.18-2.53,18.02-2.38c1.02,0.06,1.64,0.17,2.15,0.35"/><path d="M65.59,43.5c0.87,0.52,2.46,0.6,3.33,0.52c7.58-0.76,18.58-2.76,26.91-3.01c1.45-0.04,2.32,0.24,3.04,0.5"/><path d="M83.25,43.66c0.07,0.45,0.99,2.37,1.06,5.25c0.34,13.85-0.22,36.8-0.22,41.51c0,7.65-6.1-0.48-7.37-1.67"/></svg>