<svg><path d="M25.08,13.25c2.99,2.59,6.19,6.47,8.75,11"/><path d="M12.25,34.8c0.95,0.41,2.89,0.8,4.53,0.64c4.47-0.44,18.15-4.02,20.51-4.7c2.36-0.69,4.65,0.87,3.31,2.98C32.72,46.1,22.09,60.1,10.5,69.5"/><path d="M28,51.11c0.12,0.29,1.65,1.53,1.77,3.39c0.57,8.93,0.06,38.2,0.06,41.25"/><path d="M42.25,45.39c0.2,0.85,0.4,1.08,0,1.7c-1.2,1.87-4.9,6.45-7.3,8.66"/><path d="M32.83,56.25c3.16,3,6.54,7.5,9.25,12.75"/><path d="M65.84,11.38c0.57,0.36,1.76,2.72,1.87,3.44c0.11,0.73-0.07,20.71-0.19,25.25"/><path d="M67.7,26.22c2.39-0.22,17.34-2.61,18.65-2.61c1.3,0,3.06,0,4.13,0.22"/><path d="M44.61,42.73c1.29,0.29,3.67,0.36,4.96,0.29c11.24-0.63,23.33-2.7,42.66-3.62c2.15-0.1,3.45,0.14,4.52,0.28"/><path d="M44.75,57.74c0.76,0.13,3.88,0.62,5.19,0.5c12.81-1.24,27.2-3.32,40.72-3.98c1.56-0.08,3.77,0.17,5.34,0.5"/><path d="M66.95,58.75c0.96,1.09,1.09,2.87,1.09,4.92c0,10.79-0.3,22.25-0.3,35.83"/><path d="M71.08,65.42c5.64,1.64,15.19,8.45,17.92,16.21"/></svg>