<svg><path d="M39.31,12.75c0.84,0.84,1.25,2.12,1.25,3.5c0,4.48-0.04,18.2-0.06,29.13c0,1.9,0,3.71,0,5.38"/><path d="M23.02,19.42c3.02,1.31,7.79,5.37,8.55,7.4"/><path d="M21,45.13c1.38,0.74,1.98,0.56,3.1-0.11c3.27-1.94,7.05-4.55,10.02-7.02"/><path d="M49.21,26.86c2.17,0.39,4.34,0.38,5.91,0.13c8.25-1.36,21.88-2.61,28.89-2.95c1.86-0.09,3.61-0.28,4.95,0"/><path d="M66.49,12.4c0.8,0.8,1.23,1.85,1.23,3c0,4.73,0.06,13.42,0.06,25.13"/><path d="M51.9,42.93c1.73,0.32,3.61,0.36,5.23,0.18c7.62-0.86,15.32-1.68,23.62-2.35c1.64-0.13,3.32-0.12,4.93,0.25"/><path d="M52.68,49.23c0.92,0.92,1.45,2.15,1.45,3.47c0,2.91-0.1,3.67-0.1,5.19"/><path d="M18.75,61.18c2.75,0.57,5.77,0.55,8.88,0.21c12.75-1.39,39.82-3.59,54.62-4.18c2.96-0.12,6.38-0.09,9,0.29"/><path d="M48.63,59.91c0,0.72-0.3,1.7-0.93,2.47C43,68.12,32.5,78.5,15.8,85.77"/><path d="M39.62,74.66c0.92,0.92,1.19,2.21,1.19,3.64c0,3.2-0.06,12.95-0.06,16.04c0,1.89,1.03,2.62,2.53,1.29C46,93.25,55.25,87,58.74,85.03"/><path d="M75.63,63.42c0,0.71-0.13,1.21-0.62,1.85c-2.07,2.75-4.64,4.98-9.21,8.22"/><path d="M52.25,68.25c3.25,0,21.38,14.38,31.58,21.81c1.57,1.15,3.92,2.56,6.42,3.43"/></svg>