<svg><path d="M23.2,24.41c1.32,0.37,3.73,0.42,5.04,0.37c14.01-0.52,40.32-4.71,52.82-4.71c2.19,0,3.51,0.18,4.6,0.36"/><path d="M53.58,11.58c0.06,0.32,0.79,1.67,0.84,3.71c0.27,9.79-0.17,24.54-0.17,27.87c0,7.58-4.25,1.58-5.36,0.17"/><path d="M28.75,30.23c3.21,1.13,8.29,4.64,9.1,6.39"/><path d="M22.02,49.48c2.08,1.58,3.81,0.7,5.89-0.65c1.22-0.8,9.87-6.03,16.28-10.17"/><path d="M74.73,25.55c0.07,0.22,0.13,0.59-0.14,0.87c-2.53,2.68-7.81,5.72-12.78,7.63"/><path d="M59.12,35.51C68,38.5,76.75,43.75,81.65,48.88"/><path d="M66.18,9.33c3.62,1.04,9.36,4.27,10.26,5.89"/><path d="M52.29,53.75c0.66,0.35,1.75,1.59,1.75,2.42c0,1.35-0.09,5.27-0.09,6.76"/><path d="M21.5,65.77c1.69,0.06,5.54,0.49,7.18,0.32C41.5,64.75,68.5,61,82,60.49c2.78-0.11,4.2,0.03,6.27,0.41"/><path d="M52.42,63.16c0.1,0.57,0.38,1.52-0.19,2.29C48.53,70.44,35,81.25,18.05,87.4"/><path d="M42.22,78.67c0.45,0.31,0.94,1.62,0.94,2.16c-0.03,6.85-0.3,15.67-0.3,16.83c0,1.16,1.11,1.82,2.52,0.95c1.41-0.87,10.88-8.86,16.34-12.74"/><path d="M77.04,66.62c0.02,0.22,0.22,1.07,0.09,1.37c-0.77,1.84-3.18,4.46-7.11,8.12"/><path d="M55.54,64.83c1.47,0.84,3.84,3.18,4.22,3.57c6.49,6.6,17.99,18.1,24.63,21.91c1.67,0.96,2.83,1.68,4.36,2.01"/></svg>