<svg><path d="M20.33,13.5c3.33,2.12,6.9,5.29,9.75,9"/><path d="M11.7,33.86c2.14,0.9,4.3,0.91,6.48,0.36c4.95-1.26,14.77-4.2,16.67-4.74c2.33-0.66,4.08,0.83,2.76,2.85C29.86,44.15,21.15,56.77,9.75,65.75"/><path d="M27.25,49.36c0.76,0.76,1.02,2.14,1.02,3.64c0,8.33,0.05,30.38,0.05,36.5c0,2.85,0.01,5.2,0.01,6.75"/><path d="M39.22,45.89c0,0.74-0.29,1.73-0.75,2.28c-1.4,1.69-4.47,4.33-7.27,6.33"/><path d="M30.75,56c2.76,1.88,5.71,4.7,8.08,8"/><path d="M56.98,16.48c0.11,0.86-0.22,1.7-0.65,2.43c-2.21,3.84-4.96,8.21-12.18,13.84"/><path d="M73.75,15.88c6.05,3.02,13.41,8.79,15.48,11.88"/><path d="M65.38,32.5c0.07,0.82-0.19,2.19-0.63,3.29C61,45,52.5,58.25,41.17,67.25"/><path d="M65.46,36.08c7.03,6.58,16.44,14.87,23.2,19.56c2,1.39,4.23,3.07,6.6,3.75"/><path d="M49.84,67.41c0.75,0.75,1.25,1.9,1.36,3.07c0.93,4.15,1.94,11.43,2.74,17.99c0.27,2.21,0.51,4.33,0.72,6.23"/><path d="M52.15,69.61c10.67-1.97,19.47-2.97,25.95-3.82c3.15-0.41,6.42-0.02,5.45,4.07c-1.5,6.3-2.66,11.34-4.08,19.14"/><path d="M55.69,92.09c7.02-0.53,13.19-1.17,21.32-1.72c1.75-0.12,3.6-0.24,5.56-0.37"/></svg>