<svg><path d="M23.13,10.5c3.48,1.31,9,5.39,9.87,7.43"/><path d="M16.88,23c3.75,1.44,9.69,5.91,10.62,8.15"/><path d="M19.75,48.53c1.75,0.72,3.37,0.27,4.54-1.24c3.42-4.37,6.85-9.71,9.96-15.29"/><path d="M64.95,9.5c0.06,0.24,0.86,1.28,0.93,2.83c0.3,7.47-0.19,18.88-0.19,21.43c0,7.22-4.96,1.51-6.06,0.87"/><path d="M53.92,17.37c0.1,1.1-0.07,1.79-0.59,2.79c-2.23,4.34-8.36,11.35-13.42,14.86"/><path d="M77.75,16.63c6.37,3.25,14.91,11.62,16.5,16.68"/><path d="M80.88,26.31c0.12,0.6-0.06,1.64-0.74,2.43C73.5,36.5,56.63,47.75,37.5,52.5"/><path d="M54.94,49.25c0.97,0.97,1.19,2,1.19,3.38c0,1.47-0.01,4.25-0.01,5.87"/><path d="M17.56,62.36c3.09,0.21,5.84,0.5,8.95,0.23c13.47-1.18,36.83-4.38,51.36-5.3c3.49-0.22,7.75-0.6,11.13,0.62"/><path d="M48.72,62.75c0.21,1.31-0.85,2.45-1.65,3.31c-5.28,5.62-15.65,14.12-33.45,23.23"/><path d="M39.69,76.08c0.71,0.71,0.93,1.9,0.93,3.05c0,10.63,0.1,15.23,0.1,17.03c0,1.8,1.1,2.82,2.5,1.47s13.35-10.66,15.22-12.01"/><path d="M76.56,64.57c0.08,0.77-0.37,1.67-0.78,2.28c-1.39,2.08-3.11,3.93-8.04,7.73"/><path d="M55.33,67.39c1.55,0.09,17.41,14.29,26.5,21.17c2.48,1.88,5.42,3.95,8.6,5.3"/></svg>