<svg><path d="M20.83,12.25c3.76,2.47,7.78,6.18,11,10.5"/><path d="M12.7,33.86c0.94,0.39,2.36,0.82,3.96,0.61c7.34-0.97,16.87-2.83,19.19-3.49c2.33-0.66,4.58,0.83,3.26,2.85C31.36,45.65,23,57,11.5,68"/><path d="M25.5,55.61c0.12,0.29,1.65,1.53,1.77,3.39c0.57,8.93,0.06,35.2,0.06,38.25"/><path d="M41.75,49.89c0.2,0.85,0.4,1.08,0,1.7c-1.2,1.87-4.9,6.45-7.3,8.66"/><path d="M31.08,61c3.24,2.24,6.72,5.59,9.5,9.5"/><path d="M48.62,21.36c3.11,1.07,3.29,1,5.33,0.86C66.39,21.36,74.78,19,84.56,19c2.89,0,4.42,0.5,3.94,4.23c-0.74,5.71-2.58,15.98-4.14,25.64"/><path d="M42.75,37.09c2,0.21,3.57,0.67,5.77,0.43c16.81-1.84,28.35-3.73,43.67-4.37c2.45-0.1,4.44,0.43,5.55,0.64"/><path d="M49.26,51.95c1.11,0.21,3.12,0.76,4.44,0.64c12.22-1.07,18.55-2.3,29.65-2.73c1.77-0.07,2.89,0,4.22,0.21"/><path d="M65.34,21.77c1.08,1.13,2.16,2.98,1.55,5.55c-5.04,21.42-8.01,41.93-28.21,61.12"/><path d="M55.88,69.83c0.44,0.48,1.24,2.8,1.3,3.43c0.66,6.76,1.74,15.16,2.64,23.7"/><path d="M58.61,71.45c12.39-1.2,24.28-3.06,29.82-3.73c2.03-0.24,3.24,2.46,2.95,3.89c-1.2,5.93-2.25,10.23-4.05,20.35"/><path d="M60.26,94.86c6.5-0.75,20.84-1.4,29.09-2.16"/></svg>