<svg><path d="M43.99,9.89c0.89,0.26,1.58,1.62,1.59,2.16c0.91,31.2-3.84,35.7-13.46,42.7"/><path d="M17.76,22.8c2.24,0.2,4.17,0.66,6.09,0.5c1.92-0.16,17.49-1.62,19.73-2.1"/><path d="M17.35,33.17c1.91,0,4.14,0.21,6.05,0c1.91-0.21,16.41-2.37,21.5-2.99"/><path d="M17.81,43.82c1.22,0.88,2.89,0.92,4.92,0.38c1.19-0.32,16.1-4.92,21.15-6.47"/><path d="M61.1,10.25c0.89,0.26,1.42,1.15,1.59,1.66c0.18,0.51,0,36.76-0.18,39.95"/><path d="M63.08,18.45c6.12-0.19,21.26-1.6,25.85-1.92c1.67-0.12,0.51-0.06,3.4-0.06"/><path d="M62.88,29.21c5.5-0.29,19.72-2.02,23.85-2.5c1.5-0.17,0.46-0.1,3.06-0.1"/><path d="M62.78,41.84c5.31-0.28,23.73-1.95,27.71-2.41c1.45-0.17,0.44-0.09,2.95-0.09"/><path d="M52.29,46.75c0.66,0.35,1.75,1.59,1.75,2.42c0,1.35-0.09,8.77-0.09,10.26"/><path d="M17,62.27c1.69,0.06,5.54,0.38,7.18,0.32c18.3-0.67,41.3-5.42,59.32-5.6c2.78-0.03,4.2,0.03,6.28,0.41"/><path d="M50.93,60.16c0.09,0.65-0.16,1.74-0.71,2.62c-3.53,5.71-18.33,18.08-32.67,25.11"/><path d="M39.72,77.67c0.45,0.31,0.94,1.62,0.94,2.16c-0.03,6.85-0.3,14.17-0.3,15.33c0,1.16,1.11,1.82,2.52,0.95C44.28,95.24,55,88,62.21,83.87"/><path d="M76.52,62.62c0.02,0.28,0.26,1.36,0.11,1.73c-0.91,2.32-3.74,5.63-8.35,10.25"/><path d="M54.04,64.33c1.6,0.83,4.16,3.15,4.6,3.5c6.54,5.19,22.43,18.46,26.85,21.51c1.66,1.16,3.09,1.65,4.75,1.98"/></svg>