<svg><path d="M23.08,13.25c2.73,2.18,5.42,5,7.75,9.25"/><path d="M11.45,33.86c2.23,0.94,4.36,0.75,6.67,0.11c5.5-1.52,17.37-4.96,19.23-5.49c2.33-0.66,3.83,0.83,2.51,2.85C32.11,43.15,21.5,58,9.75,69.25"/><path d="M28,51.11c0.94,0.94,1.27,2.14,1.27,3.39c0,9.91,0.03,25.78,0.04,35c0.01,3.57,0.01,6.15,0.01,7"/><path d="M41.28,45.14c0.17,0.83,0.09,1.8-0.25,2.41c-1.04,1.82-4,5.8-6.08,7.95"/><path d="M32.08,57.25c2.99,2.24,6.19,5.59,8.75,9.5"/><path d="M47.01,14.94c0.97,0.97,1.24,1.81,1.45,3.07c0.1,0.64,1.6,11.31,2.6,18.24c0.37,2.54,0.72,4.87,0.83,5.75"/><path d="M48.58,15.89c8.17-0.97,28.94-2.59,35.8-3.03c2.87-0.18,5.67,0.81,4.91,4.27c-0.42,1.91-2.7,11.63-4.12,17.76c-0.67,2.9-1.16,5-1.16,5.07"/><path d="M51.12,28.27c5.76-0.77,29.13-3.02,35.17-3.26"/><path d="M52.86,40.22c5.76-0.72,23.51-1.72,30.44-1.97"/><path d="M43.85,53.97c2.26,0.76,4.82,0.59,7.15,0.35c8.85-0.91,26.11-2.65,36.85-3.33c2.56-0.16,5.03-0.4,7.55,0.11"/><path d="M66.23,17c1.08,1.07,1.14,2.25,1.14,3.75c0,0.85,0.05,49.08-0.1,68.5c-0.03,3.67-0.02,5.25-0.02,7.75"/><path d="M65.61,53.75c0,1.62-0.91,3.4-1.95,4.98C57.62,67.88,49.5,77.62,38.25,86.5"/><path d="M68.11,54.25c4.76,6,13.32,16.29,19.77,23.24c2.19,2.36,4.59,4.39,7.36,6.01"/></svg>