<svg><path d="M19.08,15.75c3.5,2.59,7.25,6.47,10.25,11"/><path d="M10.2,36.86c0.94,0.39,2.37,0.85,3.96,0.61c4.84-0.72,17.37-3.83,19.69-4.49c2.33-0.66,4.58,0.83,3.26,2.85C29.36,47.65,23,57.5,11.5,69"/><path d="M26.5,53.61c0.12,0.29,1.65,1.53,1.77,3.39c0.57,8.93,0.06,36.2,0.06,39.25"/><path d="M39.31,49.39c0.15,0.79,0.29,1,0,1.58c-0.88,1.73-3.6,5.99-5.36,8.04"/><path d="M30.83,59.75c2.65,2.41,5.48,6.03,7.75,10.25"/><path d="M45.47,21.43c1.39,0.44,2.32,0.7,3.7,0.65c6.23-0.2,23.87-3.7,36.83-4.44c1.85-0.11,3.25-0.13,5.33,0.31"/><path d="M46.25,37.77c0.14,0.69,1.11,3.78,1.11,5.18c0,14.3-0.19,46.46-0.19,51.07"/><path d="M47.56,40.21c9.87-0.96,35.96-4.26,42.17-5c2.01-0.24,3.7,0.97,3.63,3.61C93,52.25,93.24,72.24,93.24,86.17c0,8.83-5.13,5.32-7.75,0.5"/><path d="M66.94,20.34c1.01,1.2,1.81,2.65,1.81,4.33c0,0.96-0.1,65.52-0.1,68.17"/><path d="M57.93,55.88c-1.35,4.69-4.86,11.33-7.67,13.99"/><path d="M53.8,46.65c0.36,0,0.68,0.59,0.85,1.02c2.85,7.16,5.57,14.01,8.21,19.07c0.3,0.57,1.08,1.28,1.4,1.44"/><path d="M81.12,53.8c-1.63,4.67-5.85,11.28-9.24,13.93"/><path d="M74.59,43.73c0.49,0,0.91,0.6,1.16,1.04c3.75,6.47,8,13.97,11.39,19.55c0.36,0.59,1.8,1.3,2.23,1.46"/></svg>