<svg><path d="M20.58,15.25c3.33,2.35,6.9,5.88,9.75,10"/><path d="M10.7,34.86c1.8,0.64,4.41,1.05,5.96,0.61c1.9-0.54,15.37-4.83,17.69-5.49c2.33-0.66,4.58,0.83,3.26,2.85C29.86,44.65,23,55,10,67"/><path d="M25.5,51.11c0.12,0.29,1.65,1.53,1.77,3.39c0.57,8.93,0.06,38.2,0.06,41.25"/><path d="M38.31,46.89c0.15,0.77,0.3,0.98,0,1.53c-0.92,1.69-3.76,5.83-5.61,7.83"/><path d="M30.08,56.75c2.9,2.18,6.01,5.44,8.5,9.25"/><path d="M44.21,35.72c0.51,0.25,2.45,0.3,2.96,0.25c5.08-0.47,11.83-1.72,18.83-2.93c0.84-0.14,1.36,0.12,1.79,0.25"/><path d="M55.48,21c0.09,0.24,1.36,1.27,1.36,2.83c0,10.02,0.11,12.46,0.11,25.72"/><path d="M43.61,50.48c0.86,0.42,2.44,0.51,3.29,0.42c6.1-0.65,12.35-1.65,21.57-3.26c1.41-0.25,1.79-0.3,2.51-0.09"/><path d="M43.16,68.44c0.48,0.26,2.36,0.3,2.85,0.26c6.6-0.6,14.33-2.17,20.58-2.99c0.79-0.1,1.28,0.12,1.69,0.25"/><path d="M55.59,56c0.07,0.23,1,1.2,1,2.67c0,9.46,0.08,10.9,0.08,23.4"/><path d="M42.29,86.54c1.23,0.85,2.33,0.95,3.08,0.62c10.34-4.52,15.24-6.77,24.99-10.94"/><path d="M78.43,14.05c0.6,0.43,1.86,3.23,1.98,4.09c0.12,0.86-0.08,73.84-0.2,79.24"/><path d="M82,45.75c5.73,2.78,14.74,10.18,16.25,15.75"/></svg>