<svg><path d="M21.33,13c3.07,2.65,6.37,6.62,9,11.25"/><path d="M10.7,34.36c0.94,0.39,2.88,0.91,4.46,0.61c3.84-0.72,16.87-3.33,19.19-3.99c2.33-0.66,4.02,0.79,2.76,2.85C29,47,23,56.25,11,68.5"/><path d="M26.5,51.11c0.12,0.29,1.65,1.53,1.77,3.39c0.57,8.93,0.06,39.2,0.06,42.25"/><path d="M41.26,44.89c0.19,0.93,0.38,1.18,0,1.86c-1.16,2.05-4.74,7.08-7.06,9.5"/><path d="M31.33,57.25c3.33,2.41,6.9,6.03,9.75,10.25"/><path d="M48.47,14.41c-0.12,3.61-2.99,13.07-4.01,15.23"/><path d="M48.17,17.91c5.73-0.77,29.29-3.08,40.61-3.68c8.61-0.46,1.34,7.64,0.28,8.93"/><path d="M50.12,33.32c1.08,0.46,3.06,0.53,4.15,0.46c8.48-0.54,22.23-2.29,30.75-3.44c1.79-0.24,2.89,0.22,3.79,0.45"/><path d="M48.23,42.85c0.58,0.46,1.32,1.79,1.43,2.4c0.87,4.85,2.8,13.67,3.84,21.51"/><path d="M50.46,43.98c8.83-0.88,31.21-3.5,37.23-3.63c2.49-0.06,3.5,1.7,3.4,3.07c-0.37,4.72-1.77,12.46-3.74,20.2"/><path d="M51.54,53.44C60.75,52.5,81,51,89.64,50.53"/><path d="M53.54,64.88c7.74-0.91,24.23-3.14,34.3-3.14"/><path d="M43.18,75.32c1.54,0.75,4.35,0.87,5.91,0.75c12.67-1.03,29.92-2.75,43.85-3.38c2.57-0.12,4.11,0.35,5.39,0.73"/><path d="M67.17,21.43c0.54,0.56,2.29,2.57,2.29,5.35c0,1.13-0.07,63.3-0.18,70.35"/></svg>