<svg><path d="M52.71,8.5C53.85,9.65,54,11,54,12.21c0,2.17,0,4.1,0,6.42"/><path d="M20.5,21.62c3.12,0.63,6.11,0.55,9.38,0.15c14.5-1.77,36.29-3.53,49.87-4.13c3.09-0.14,6.05-0.37,9,0.74"/><path d="M36.49,27.54c0,1.08-0.41,2.23-1.18,3.32c-4.94,7.02-9.56,13.89-21.05,23.34"/><path d="M29.52,41.57c0.77,0.77,0.94,1.93,0.94,3.06c0,5.61,0,13.87,0,19c0,2.08,0,3.73,0,4.63"/><path d="M50.1,27.35c0.76,0.55,1.2,1.3,1.33,2.25c0.66,2,1.33,4.82,1.88,7.63c0.23,1.16,0.44,2.32,0.62,3.42"/><path d="M52.11,28.5c7.85-1.01,19.74-2.56,24.78-3.11c2.65-0.29,3.74,0.41,2.86,3.11c-0.7,2.14-1.33,3.89-2.26,7.06"/><path d="M55.08,39.05c3.49-0.3,12.9-1.29,19.94-1.96c1.71-0.16,3.21-0.31,4.37-0.42"/><path d="M43.24,46.81c2.01,0.56,4.24,0.63,6.4,0.48c7.62-0.52,24-1.83,33.74-2.53c2.31-0.17,4.53-0.42,6.83-0.02"/><path d="M65.76,40.73c0.81,0.81,1.12,2.02,1.12,3.33c0,2.14,0.06,11.08,0.07,16.81c0.01,2.61,0.01,4.56,0,4.88"/><path d="M56.01,52.89c0,0.73-0.36,1.34-0.88,1.85c-1.85,2.36-7.25,6.32-14.33,8.85"/><path d="M77.02,51.46c4.16,1.68,10.75,6.9,11.79,9.51"/><path d="M52.44,65.63c0,1.12-0.77,2.32-1.58,3.1c-6.08,5.93-16.57,13.72-37.05,23.22"/><path d="M38.75,81.74c0.88,0.88,1,1.89,1,3.25c0,2.76,0,7.33,0,10.51c0,2,1.11,3.06,2.61,1.56s14.6-10.09,16.6-11.59"/><path d="M80.64,68.38c0.09,0.85-0.16,1.66-0.72,2.28c-2.2,2.44-5.68,5.4-10.1,8.55"/><path d="M56.5,73.49c3.17,0,19.14,12.32,30.11,18.8c2.69,1.59,3.89,2.34,6.64,3.45"/></svg>