<svg><path d="M21.83,10c3.41,2.29,7.07,5.74,10,9.75"/><path d="M9.2,33.36c0.94,0.39,2.38,0.93,3.96,0.61c3.59-0.72,20.37-4.33,22.69-4.99c2.33-0.66,3.58,0.83,2.26,2.85C30.36,43.65,21.4,55.02,10,64"/><path d="M28,49.11c0.12,0.29,1.65,1.53,1.77,3.39c0.57,8.93,0.06,40.7,0.06,43.75"/><path d="M42.25,42.39c0.2,0.85,0.4,1.08,0,1.7c-1.2,1.87-4.9,6.45-7.3,8.66"/><path d="M32.58,53.25c3.59,2.18,7.43,5.44,10.5,9.25"/><path d="M49.55,13.03c3.07,4.03,6.36,11.09,6.8,13.11"/><path d="M64.27,8.14c1.7,2.81,5.79,10.19,6.47,14.75"/><path d="M89.17,10.41c0.59,0.86,1.19,1.73,0.89,3.45c-0.29,1.73-6.83,9.79-8.91,12.38"/><path d="M51.95,34.48c0.27,0.46,0.28,0.78,0.43,1.36c1.24,4.77,3.42,16.78,4.2,25.64"/><path d="M53.23,35.82c10.32-1.6,28.27-3.22,35.37-4.04c2.61-0.3,4.19,0.65,4.11,2.66c-0.18,4.78-4.48,21.02-4.94,23.01"/><path d="M55.8,47c3.1-0.38,32.38-4.17,34.94-4.29"/><path d="M57.06,59.29c8.99-1.52,20.96-2.34,30.79-3.28"/><path d="M45.92,75.04c1.38,0.52,3.92,0.73,5.29,0.52c10.72-1.65,29.09-3.75,43.8-5.12c2.28-0.21,3.68,0.25,4.83,0.51"/><path d="M71.02,35.56c0.52,0.35,0.84,1.32,0.85,2.5c0.03,6,0.15,59.84,0.17,61.79"/></svg>