<svg><path d="M20.83,11.5c4.1,3.12,8.49,7.79,12,13.25"/><path d="M12.7,34.36c0.94,0.39,2.36,0.76,3.96,0.61c5.09-0.47,17.37-4.33,19.69-4.99c2.33-0.66,4.58,0.83,3.26,2.85C31.86,44.65,22.25,58.25,9.5,70.5"/><path d="M27,52.11c0.12,0.29,1.65,1.53,1.77,3.39c0.57,8.93,0.06,38.2,0.06,41.25"/><path d="M41.78,44.39c0.18,0.83,0.36,1.05,0,1.66c-1.08,1.82-4.41,6.3-6.58,8.45"/><path d="M31.33,55.25c3.16,2.41,6.54,6.03,9.25,10.25"/><path d="M46.66,17.66c1.22,0.43,3.45,0.53,4.67,0.43c9.86-0.81,32.54-2.69,37.8-3.05c2.02-0.14,3.25,0.21,4.26,0.42"/><path d="M51.06,18.35c0.44,0.65,0.43,2.56,0.43,4c0,9.2-1.25,46.4-13.5,61.32"/><path d="M57.67,27.48c0.82,0.25,2.32,0.31,3.13,0.25c5.21-0.43,17.48-2.11,22.67-2.5c1.35-0.1,2.18,0.12,2.86,0.24"/><path d="M53.46,37.84c0.75,0.3,2.13,0.38,2.89,0.3c4.8-0.52,29.3-3.67,34.48-3.76c1.25-0.02,3.61,0.14,4.24,0.29"/><path d="M59.21,39.33c1.2,1.39,1.12,1.98,1.12,3.96c0,9.36-0.36,13.19-0.36,14.77s1.32,2.48,3,1.29s6.79-5.11,12.01-7.7"/><path d="M86.79,39.96c0.02,0.19,0.05,0.49-0.04,0.77c-0.54,1.62-3.62,5.18-7.85,7.36"/><path d="M66.88,42.12c4.95,1.3,19.17,13.36,23.04,15.83c1.31,0.84,2.43,1.2,3.75,1.44"/><path d="M51.4,70.4c1.19,0.7,3.36,0.78,4.57,0.7C65.25,70.5,83.75,69,93.9,68.24c1.98-0.15,3.18-0.17,4.17,0.19"/><path d="M80.8,59.6c0.06,0.42,0.95,2.2,0.95,4.88c0,18.04,0.22,24.03,0.22,28.41c0,10.64-5.66,1.58-7.31,0.22"/><path d="M59.72,75.79c2.47,1.64,6.38,6.76,7,9.32"/></svg>