<svg><path d="M19.83,16.25c3.07,2.35,6.37,5.88,9,10"/><path d="M9.7,37.36c0.94,0.39,2.36,0.78,3.96,0.61c4.34-0.47,16.87-3.33,19.19-3.99c2.33-0.66,4.58,0.83,3.26,2.85C28.36,48.65,23.25,57,10.5,69.5"/><path d="M25,54.11c0.12,0.29,1.65,1.53,1.77,3.39c0.57,8.93,0.06,35.2,0.06,38.25"/><path d="M38.82,48.89c0.14,0.83,0.28,1.05,0,1.66c-0.84,1.82-3.44,6.3-5.12,8.45"/><path d="M29.58,58.25c3.42,2.77,7.07,6.91,10,11.75"/><path d="M82.52,11.25c0.09,0.34-0.66,1.97-1.17,2.35C75.02,18.36,64,22,49.82,25.54"/><path d="M46.28,25.25c0.38,1,0.94,3.23,0.94,5.49c0,20.63,0.94,43.13-11.52,59.48"/><path d="M67.76,23.58c0.65,0.77,1.15,1.66,1.15,4.21c0,4.94-0.01,5.36-0.01,9.52"/><path d="M69.44,29.78c4.73-0.65,10.07-1.48,14.87-2c1.58-0.17,2.55,0.15,3.34,0.31"/><path d="M56.35,37.61c0.5,0.48,0.55,2.28,0.55,4.01C56.9,62,54,79,44.25,91.36"/><path d="M56.92,39.65c0.76,0.16,2.12-0.17,3.36-0.35c5.72-0.8,20.93-3.04,28.41-3.18c7.89-0.14,1.67,5.58-0.29,7.35"/><path d="M59.51,50.11c0.95,0.22,2.69,0.31,3.62,0.22c9.29-0.97,13.87-2.58,19.7-3.51c1.55-0.25,2.52,0.1,3.31,0.21"/><path d="M69.11,41.51c0.46,0.37,1.06,1.86,1.06,2.38c0,4.17-0.08,4.92-0.08,6.78c0,5.54,2.12,5.96,8.64,5.96c2.43,0,7.67,0,9.76-0.75"/><path d="M66.75,63.28c0.04,0.72,0.41,1.85,0.42,2.9c0.08,7.08-1.92,20.08-14.73,27.74"/><path d="M77.07,62.63c0.39,0.85,0.7,1.86,0.72,3.17c0.1,5.86-0.28,13.56-0.28,17.55c0,5.66,1.48,8.26,9.26,8.26c7.72,0,8.4-1.6,8.4-6.54"/></svg>