<svg><path d="M19.83,16.21c3.07,2.53,6.87,6.32,9.5,10.75"/><path d="M12.45,38.07c0.94,0.39,2.41,1.05,3.96,0.61c1.9-0.54,14.87-3.83,17.19-4.49c2.33-0.66,4.58,0.83,3.26,2.85C29.11,48.87,21.9,62.24,10.5,71.22"/><path d="M26,54.33c0.12,0.29,1.77,1.52,1.77,3.39c0,14.88,0.06,37.2,0.06,40.25"/><path d="M40.25,48.61c0.2,0.85,0.4,1.08,0,1.7c-1.2,1.87-4.9,6.45-7.3,8.66"/><path d="M30.83,59.46c3.16,3,7.04,7.5,9.75,12.75"/><path d="M49.87,22.1c0.38,0.26,1.09,1.42,1.22,2.42c0.85,6.54,1.6,13.79,2.34,18.1"/><path d="M51.27,23.39c10.25-1.02,24.54-2.71,32.65-3.6c2.59-0.28,4.07,1.47,3.74,3.45C86.34,31.06,85.4,35.65,84.65,40"/><path d="M42.79,32.46c1.14,0.52,3.24,0.65,4.38,0.52c8.78-0.96,34.48-4.84,46.46-4.1c1.9,0.12,3.04,0.25,4,0.51"/><path d="M53.82,41.2c2.63-0.24,26.69-2.17,30.07-2.42"/><path d="M51.37,47.94c0.3,0.45,0.7,1.06,0.97,2.02c1.41,5.13,2.04,8.18,2.6,11.52"/><path d="M52.59,49.75c9.73-0.89,25.02-2.61,32.71-3.38c2.45-0.25,3.87,1.28,3.54,2.99c-0.38,2.01-1.38,5.37-1.98,7.79"/><path d="M55.32,59.81c2.63-0.24,29.7-2.42,33.08-2.67"/><path d="M67.82,12.22c0.82,0.48,1.31,2.17,1.47,3.14c0.16,0.97,0,36.96-0.16,43"/><path d="M69.07,61.38c0.33,0.87,0.1,1.95-0.17,3.03C67.6,69.67,61.04,75.95,56.89,82c-0.9,1.32-0.19,1.57,0.5,1.58c9.63,0.15,27.4,7.38,32.38,14.15"/><path d="M81.36,66.5c0.09,0.76,0.15,2.59-0.17,3.69c-2.58,8.86-12.64,21.73-32.75,27.53"/><path d="M45.63,71.33c1.6,0.55,3.3,0.88,4.06,0.84c12.01-0.53,29.38-2.7,44.8-2.94c1.28-0.02,3.47,0.34,4.51,0.97"/></svg>