<svg><path d="M25.08,15c2.65,2.18,5.48,5.44,7.75,9.25"/><path d="M14.08,36.5c2.58,0.51,5.31,0.36,7.69-0.45c4.58-1.36,12.65-3.82,15.06-4.55c2.5-0.75,4.67,0.95,3.25,3.25C31.75,48.25,24.5,57,12,69.25"/><path d="M29.11,54.9c0.87,0.87,1.16,2.1,1.16,3.35c0,7.17,0.05,21.74,0.05,31.51c0,3.21,0,5.88,0,7.54"/><path d="M43.25,46.64c0.04,1.06-0.1,1.83-0.5,2.45c-1.2,1.87-4.1,5.36-6.5,7.57"/><path d="M32.33,56.66c3.93,2.65,7.38,6.2,10.74,10.84"/><path d="M66.37,12.75c0.04,1.22-0.38,2.25-1.04,3.22c-2.33,3.41-4.13,5.63-8.54,9.46"/><path d="M50.47,27.42c0.87,0.87,1.07,1.92,1.03,3.54c-0.02,0.84,0.02,14.86,0.07,25.91c0.01,3.5,0.03,6.71,0.04,9.1"/><path d="M52.75,28.76c4.4-0.85,24.49-3.05,30.2-3.92c3.53-0.54,4.95,0.87,4.94,4.16c-0.02,5.72-0.02,20.47-0.02,29.25c0,3.21,0,5.62,0,6.5"/><path d="M 74.418907,30.289739 c -0.490858,0.607712 -0.811752,1.177878 -1.738427,1.644994 -1.876042,0.945671 -8.12312,3.135696 -10.707503,3.576398"/><path d="M 58.49,38.165436 c 1.52,0.88 3.348355,2.194922 4.19,3.464564"/><path d="M 78.29,38.493732 c 0.05,0.56 -0.04,1.09 -0.26,1.6 -0.730143,1.699213 -2.921216,4.337425 -5.04,5.554564"/><path d="M56.67,47.92c1.66,0.13,3.31,0.09,4.94-0.14c4.36-0.5,10.26-0.86,16.09-1.66c1.38-0.19,2.82-0.2,4.19-0.06"/><path d="M 68.4,36.503732 c 0.71,0.62 0.97,1.6 0.96,2.33 -0.07,4.16 -0.15,9.609415 -0.15,16.299415 0,2.19 0,4.2 0.02,5.81"/><path d="M 67.43,47.678296 c 0.01,0.85 -0.06021,1.527614 -0.5,2.19 -1.251703,1.885252 -6.50125,6.850945 -10.26,9.324851"/><path d="M 72.17,51.438296 c 2.481979,1.195156 7.747031,4.276049 9.110313,5.814851"/><path d="M43.19,72.76c2.73,0.61,5.46,0.75,8.19,0.42C62.12,72.22,76.79,71.19,87,70.8c3.16-0.21,6.31,0.06,9.43,0.78"/><path d="M68.2,64.42c0.55,1.2,0.65,2.34,0.38,3.51c-2.37,12.73-11.19,23.5-26.3,29.32"/><path d="M69.25,73.36c4.47,4.12,11.93,11.6,17.87,16.52c2.58,2.23,5.5,3.95,8.75,5.18"/></svg>