<svg><path d="M18.83,14c3.59,3,7.43,7.5,10.5,12.75"/><path d="M11.2,37.36c0.94,0.39,3.91,0.55,5.46,0.11c1.9-0.54,13.87-2.83,16.19-3.49c2.33-0.66,4.51,0.79,3.26,2.85C28.25,49.75,21,59.75,11,69.5"/><path d="M26,53.11c0.12,0.29,1.65,1.53,1.77,3.39c0.57,8.93,0.06,37.7,0.06,40.75"/><path d="M39.3,46.89c0.16,0.95,0.32,1.21,0,1.9c-0.96,2.09-3.93,7.23-5.85,9.71"/><path d="M30.83,59c3.16,2.59,6.54,6.47,9.25,11"/><path d="M52.46,12.26c0.63,0.56,0.94,2.53,0.94,3.96c0,1.44,0.01,5.82,0.01,9.72"/><path d="M40.66,26.94c0.51,0.11,2.61,0.6,3.13,0.53c5.21-0.72,13.96-2.22,20.19-2.97c0.85-0.1,1.37-0.03,1.8,0.02"/><path d="M46.26,31.06c2.41,4.85,2.86,8.13,3.08,11.43"/><path d="M61.69,28c0.39,0.46,0.43,0.71,0.39,1.12c-0.31,2.8-3.15,10.95-3.93,13.13"/><path d="M42.74,45.45c0.51,0.13,2.47,0.58,2.99,0.53c5.52-0.48,12.52-2.23,18.41-2.24c0.85,0,2.05-0.04,2.47,0.01"/><path d="M41.01,60.17c0.41,0.22,1.31,0.38,2.4,0.33c5.34-0.25,14.73-2,20.05-2.66c1.09-0.14,1.36-0.23,2.04,0"/><path d="M53.03,47.25c0.78,0.45,1.24,2.03,1.4,2.93c0.25,1.46,0,40.04-0.15,45.82"/><path d="M54.03,60.09C51.21,68.78,43.87,81.08,38,86"/><path d="M55.69,66.25c3.54,1.85,6.26,5.93,8.3,10"/><path d="M70.18,17.94c0.33,0.69,0.8,1.21,0.8,2.13s-0.11,45.5,0,46.43"/><path d="M71.52,18.87c1.84-0.12,15.88-2.25,17.55-2.39c1.4-0.12,2.5,0.65,2.38,1.5c-0.15,1.09-0.65,46.7-0.65,47.4"/><path d="M71.49,33.49c2.63,0,15.61-2.38,18.56-2.38"/><path d="M71.64,48.16c5.34-0.33,13.45-1.89,18.19-1.89"/><path d="M72.12,64.31c3.66,0,13.45-0.89,18.19-0.89"/><path d="M76.06,68.25c0.04,0.62,0.09,1.61-0.09,2.51c-1.08,5.29-6.23,17.49-15.69,23.99"/><path d="M82,66.97c0.3,1.1,0.53,2.4,0.55,4.11c0.05,4.77-0.21,9.23-0.21,14.68c0,6.75,2.17,8.84,7.91,8.84c5.01,0,6.51-1.59,6.51-7.93"/></svg>