<svg><path d="M19.33,14.5c3.07,2.53,6.37,6.32,9,10.75"/><path d="M11.2,36.86c0.94,0.39,2.38,0.91,3.96,0.61c5.09-0.97,16.37-3.83,18.69-4.49c2.33-0.66,4.08,0.83,2.76,2.85C28.86,47.65,23.25,55.75,11.5,68"/><path d="M25.5,52.61c0.12,0.29,1.65,1.53,1.77,3.39c0.57,8.93,0.06,37.2,0.06,40.25"/><path d="M38.33,46.89c0.13,0.81,0.26,1.03,0,1.62c-0.8,1.78-3.28,6.14-4.88,8.24"/><path d="M30.33,58.5c3.5,2.47,7.25,6.17,10.25,10.5"/><path d="M66.99,11.37c0.07,0.26,0.97,1.35,1.04,2.99c0.33,7.9,0.2,15.07,0.2,17.76"/><path d="M47.59,17.08c3.15,1.74,8.15,7.17,8.94,9.88"/><path d="M85.55,14.25c0.02,0.32,0.04,0.83-0.03,1.3c-0.4,2.74-2.7,8.74-5.85,12.42"/><path d="M47.83,30.92c-0.14,3.62-2.62,12.11-3.83,14.27"/><path d="M48.09,34.31C59.5,33,78.25,30.75,90.73,30.05c7.54-0.42,4.91,3.81-0.43,7.88"/><path d="M53.62,44.29c0.23,0.31,0.5,0.56,0.58,0.96c0.67,3.56,2.52,11.03,3.19,16.25"/><path d="M55.08,45.88c4.33-0.75,23.49-3.22,27.55-3.51c1.62-0.12,2.62,1.63,2.25,3.1c-0.88,3.5-1.78,6.07-2.96,10.88"/><path d="M57.88,59.19c6.73-0.44,20.62-1.94,25.99-2.12"/><path d="M49.15,69.06c0.28,0.5,0.79,1.83,0.94,2.43c1.25,5.01,2.76,16.52,3.49,25.75"/><path d="M50.2,70.5c11.04-1.04,30.98-3.03,38.39-3.52c2.72-0.18,3.72,2.06,3.57,3.4c-0.54,4.92-3.19,17.15-4.27,25"/><path d="M69.6,70.36c0.63,0.47,0.74,1.06,0.73,1.94c-0.04,5.81,0.17,19.55,0.17,21.66"/><path d="M52.36,82.57c4.89-0.32,34.68-2.49,37.35-2.49"/><path d="M53.71,95.05c8.1-0.66,24.79-1.9,34.65-2.04"/></svg>