<svg><path d="M18.83,15c3.07,2.53,6.37,6.32,9,10.75"/><path d="M10.7,37.86c0.94,0.39,2.38,0.94,3.96,0.61c4.59-0.97,14.37-4.33,16.69-4.99c2.33-0.66,4.45,0.75,3.26,2.85C28.25,47.5,23.5,55.25,11.5,69.5"/><path d="M24.5,53.11c0.12,0.29,1.65,1.53,1.77,3.39c0.57,8.93,0.06,38.2,0.06,41.25"/><path d="M38.06,48.64c0.15,0.83,0.29,1.05,0,1.66c-0.88,1.82-3.6,6.3-5.36,8.45"/><path d="M29.33,58.25c3.16,3,6.54,7.5,9.25,12.75"/><path d="M39.56,31.69c0.77,0.47,2.67,0.81,3.46,0.78c5.48-0.22,12.87-1.8,18.56-2.3c1.28-0.11,2.06,0.08,2.7,0.29"/><path d="M52.15,15.76c0.56,0.39,0.9,1.91,1.02,2.78c0.11,0.87,0.01,24.63-0.11,30.16"/><path d="M43.08,48.8c0.53,0.25,2,0.69,2.53,0.63c4.15-0.43,11.15-1.68,16.72-2.01c0.89-0.05,1.41,0.03,1.85,0.14"/><path d="M44.26,62.43c0.18,0.5,0.36,0.91,0.44,1.54c0.62,4.93,1.48,16.75,1.9,25.61"/><path d="M45.38,64.04c4.37-0.54,11.73-2.71,14.03-2.89c0.91-0.07,2.22,1.01,1.98,3.57c-0.58,6.18-2.45,13.61-2.95,19.37"/><path d="M46.79,86.72c3.16-0.52,8.6-1.29,13.13-1.87"/><path d="M64.85,19.33c0.98,0.58,2.78,0.66,3.75,0.58c8.09-0.67,17.08-2.87,23.37-3.15c1.63-0.07,2.61,0.28,3.43,0.57"/><path d="M80.02,21.73c0.01,0.26,0.02,0.67-0.01,1.04c-0.2,2.2-2.19,7.02-3.76,9.98"/><path d="M68.99,33.75c0.35,1.07,0.87,1.86,0.87,3.29c0,1.43-0.12,40.51,0,41.94"/><path d="M70.44,35.17c1.99-0.18,17.69-2.34,19.5-2.56c1.51-0.18,2.71,1.98,2.58,3.3c-0.16,1.68-0.34,39.42-0.34,40.49"/><path d="M70.41,48.66c2.85,0,17.21-1.41,21.47-1.8"/><path d="M70.57,62.17c7.1-0.48,15.12-1.53,20.56-2.04"/><path d="M71.08,76.39c5.99-0.53,14.76-0.99,20.56-1.53"/><path d="M73.57,81.48c0.37,1.29,0.27,2.14-0.48,3.08c-2.25,2.84-9.76,9.34-14.26,12.71"/><path d="M84.99,80.13c4.33,3.92,9.44,11.02,10.62,14.45"/></svg>