<svg><path d="M19.58,13.5c3.33,2.53,6.9,6.32,9.75,10.75"/><path d="M10.2,35.36c0.94,0.39,3.38,1.41,4.96,1.11c3.84-0.72,16.37-4.83,18.69-5.49c2.33-0.66,4.58,0.83,3.26,2.85C29.36,45.65,22.75,56,10,69"/><path d="M26,51.11c0.12,0.29,1.65,1.53,1.77,3.39c0.57,8.93,0.06,38.7,0.06,41.75"/><path d="M41.28,45.89c0.17,0.87,0.34,1.1,0,1.74c-1.04,1.91-4.25,6.61-6.33,8.87"/><path d="M31.58,58.25c2.9,2.29,6.01,5.73,8.5,9.75"/><path d="M48.5,17.2c1.3,0.04,3.21,0.2,4.47,0.12c6.8-0.44,26.6-2.88,32.67-2.96c1.77-0.02,3.25-0.12,4.87,0.08"/><path d="M46.2,25.33c-0.16,4.87-1.56,9.34-2.59,14.26"/><path d="M46.06,28.26c5.32-1.05,34.76-5.01,46.05-5.01c6.54,0-0.16,8-1.2,9.64"/><path d="M66.6,17.93c0.65,1.4,0.94,2.32,0.95,3.69c0.01,0.49-0.2,24.85-0.2,26.2"/><path d="M51.96,33.09c2.42,0.83,5.73,3.3,7.05,4.67"/><path d="M49.56,42.48c2.54,0.94,6.46,4.42,7.85,5.99"/><path d="M74.99,30.15c3.44,1.2,7.35,3.6,8.72,4.6"/><path d="M75.84,40.59c3.25,0.97,7.69,3.89,9.46,5.51"/><path d="M43.78,55.11c1.32,0.6,3.73,0.76,5.05,0.6c8.39-1.04,32.42-2.97,40.63-3.23c2.19-0.07,3.51,0.29,4.61,0.59"/><path d="M67.14,56.36c0.01,0.21,0.03,0.54-0.03,0.84c-0.34,1.78-2.29,5.67-4.96,8.06"/><path d="M47.56,66.63c0.46,0.93,0.85,2.4,0.97,4.08c0.17,2.46,0.11,20.79,0.11,26.09"/><path d="M49.1,68.48c5.79-0.74,39.44-3.93,40.58-4.19c2.44-0.56,3.85,0.71,3.82,3.19c-0.09,6.02-0.25,16.77-0.65,24.13c-0.36,6.59-4.46,2.52-6.28,0.11"/><path d="M62.23,69.99c0.55,0.61,1.26,1.81,1.31,2.71c0.18,3.02-0.32,20.05-0.32,21.41"/><path d="M76.65,68.02c0.65,1.4,1.05,2.33,0.95,3.69C77,80,76.11,89.67,75.73,94.48"/></svg>