<svg><path d="M37.07,9.64c0.78,0.78,0.95,1.85,0.95,2.92c0,1.46,0,2.21,0,3.12"/><path d="M22.76,17.63c1.38,0.54,3.33,0.18,4.76,0.03c4.38-0.45,13.95-1.35,19.11-1.79c1.43-0.12,2.89-0.3,4.3,0.03"/><path d="M28.06,20.41c1.44,2.36,2.1,4.77,2.23,6.32"/><path d="M45.19,18.87c0.18,0.77-0.01,1.48-0.34,2.13c-0.98,1.9-2.15,3.59-2.98,4.9"/><path d="M16.24,30.36c1.41,0.64,3.79,0.57,5.27,0.33c8.24-1.3,18.61-2.6,26.62-3.52c2.15-0.25,4.57-0.4,6.69,0.18"/><path d="M27.37,36.39c0.62,0.63,0.95,1.62,0.95,2.47c0,0.24-0.04,10.95-0.06,17.41c-0.01,2.31-0.01,4.08-0.01,4.62"/><path d="M28.76,37.05c1.08-0.08,8.79-1.69,12.76-2.34c3.17-0.52,4.37-0.23,4.37,3.05c0,4.79,0.02,11.62,0.02,18.21c0,7.3-2.51,4.1-5.06,1.89"/><path d="M29.51,44.06c4.75-0.61,11.02-1.45,15.19-1.76"/><path d="M29.36,51.45c4.51-0.55,10.39-1.43,15.37-1.92"/><path d="M62.76,16.89c3.23-0.29,11.08-1.27,15.87-1.93c1.41-0.19,2.62-0.37,4.02-0.09"/><path d="M60.33,9.55c0.82,0.82,1.17,1.84,1.17,3.26c0,1.97-0.12,6.37-0.12,9.2c0,1.75,0.37,2.54,3.27,2.15c4.09-0.55,9.97-1.23,14.37-1.93c2.68-0.43,3.48,0.66,2.7,3.14c-0.6,1.91-1.62,4.84-1.79,5.54"/><path d="M60.7,33c1.3,0.64,2.91,0.61,3.83,0.49c3.13-0.39,10.3-1.27,13.99-1.64c0.99-0.1,1.94-0.18,2.83-0.23"/><path d="M60.95,33.5c0.66,0.66,1.17,1.35,1.17,2.52c0,5.08,0,12.71,0,16.25c0,6.62,1.5,7.57,14.85,7.57c10.98,0,13.17-1.76,13.17-5.8"/><path d="M63.28,40.48c3.18-0.29,8.69-1.19,12.86-1.83c1.53-0.24,2.59-0.41,4.07-0.12"/><path d="M63.34,46.75c3.32-0.3,9.31-0.82,13.57-1.37c1.29-0.17,2.27-0.26,3.54-0.01"/><path d="M63.45,53.1c3.17-0.28,9.81-0.75,14.33-1.34c1.47-0.19,2.74-0.4,4.21-0.11"/><path d="M53.37,56.86c1.02,1.02,1.35,2.29,1.35,3.78c0,3.51-0.09,3.88-0.09,6.5"/><path d="M24.55,70.31c3.45,0.58,5.58,0.66,8.2,0.35c12.12-1.39,32.38-2.91,44.75-3.44c2.58-0.11,5.38-0.08,7.9,0.68"/><path d="M49.8,71.38c0,0.89-0.62,1.8-1.14,2.42c-3.4,4.03-12.67,10.8-26.56,16.69"/><path d="M41.58,83.04c0.76,0.76,1.04,1.85,1.04,3.08c0,3.78-0.01,8.86-0.01,10.44c0,2.6,0.64,2.96,2.9,1.35c2.85-2.03,9.36-7.51,11.86-9.33"/><path d="M76.07,73.48c0.09,0.86-0.28,1.62-0.83,2.28c-1.86,2.26-2.47,3.43-6.49,6.88"/><path d="M56.75,75.12c1.16,0.55,15.37,11.52,23.08,17.25c2.88,2.14,5.29,3.28,8.12,4.59"/></svg>