<svg><path d="M24.14,15.16c1.44,0.45,4.07,0.51,5.52,0.45C41.73,15.03,68,13,78.45,12.58c2.39-0.1,3.84-0.29,5.04-0.07"/><path d="M23.02,23.74c0.53,0.92,1.2,1.65,1.31,2.82c0.28,2.88,1.88,8.83,2.14,13.44"/><path d="M24.13,25.72c10.3-1.36,55.32-4.46,60.63-4.92c1.94-0.17,2.83,1.66,2.83,2.68c0,2.76-1.59,8.26-2.27,12.33"/><path d="M43.55,16.01c0.32,0.25,0.54,1.11,0.58,1.62c0.36,4.38,0.88,11.11,1.1,15.86"/><path d="M63.9,14.08c0.32,0.25,0.46,1.14,0.46,2.28c-0.01,4.56-0.61,8.14-1.07,15.02"/><path d="M45.26,32.42c3.74-0.17,14.49-0.92,19.63-0.9"/><path d="M34.91,34.7c0.18,0.3,0.24,0.68,0.16,0.93c-0.58,1.82-2.4,5.24-4.36,7.32"/><path d="M20.75,44.33c0.41,0.42,0.82,1.12,0.82,1.68c0,0.55,2.63,13.31,2.8,16.04"/><path d="M21.82,45.81c2.32-0.07,23.44-3.11,25.54-3.23c1.34-0.07,1.88,0.46,1.88,1.33c0,1.49-1.74,8.84-3.57,14.36"/><path d="M23.69,51.86c4.86-0.21,19.27-1.73,22.82-1.73"/><path d="M24.62,59.48c5.81-0.22,14.44-1.61,20.64-1.71"/><path d="M34.61,62.25c0.52,0.28,1.37,1.36,1.37,1.92c0,2.05-0.16,3.4-0.07,5.14"/><path d="M16.84,71.91c1.36,0.05,2.88,0.36,4.2,0.29c10.67-0.61,17.94-3,26.26-3.88c2.2-0.23,3.31-0.13,4.98,0.22"/><path d="M35.63,75.42c2.62,0.83,3.54,1.73,6.64,2.01c1.57,0.14,1.99,1.5,1.85,2.71c-0.46,3.92-6.53,13.07-8.67,15.55c-2.25,2.61-3.96-0.46-5.19-1.76"/><path d="M33.74,73.24c0.05,0.47,0.12,1.21-0.1,1.89c-1.61,4.98-6.59,12.93-17.17,18.05"/><path d="M64.52,36.39c0.04,0.62,0.22,1.65-0.07,2.51c-1.82,5.5-5.91,16.36-12.2,23.97"/><path d="M63.76,48.82c0.99,0.18,1.87-0.05,2.53-0.1c7.88-0.53,13.69-1.95,23.2-2.62c1.18-0.08,1.9-0.02,2.21,0.08"/><path d="M80.51,49.13c0.51,1.18,0.93,2.05,0.26,4.16C74.5,72.75,64.25,85.5,48.73,97"/><path d="M57.9,55.53c2.6,5.97,19.35,30.22,29.91,39.65c1.74,1.55,2.79,1.86,4.18,2.03"/></svg>