<svg><path d="M21,17.24c1.78,0.73,5.05,0.84,6.84,0.73c13.66-0.84,39.57-3.31,50.42-4c2.97-0.19,4.87-0.34,6.24-0.04"/><path d="M22.75,31.19c0.78,0.78,1.46,1.75,1.57,2.88c0.83,3.01,1.49,7.88,2.12,12.18c0.22,1.5,0.43,2.94,0.65,4.2"/><path d="M25.29,33.28c20.46-2.78,40.83-4.65,54.33-5.54c3.65-0.24,5.58,0.93,4.45,5.03c-0.81,2.92-1.86,6.35-3.15,9.87c-0.5,1.37-1.04,2.75-1.61,4.12"/><path d="M42.37,20c1.13,1.13,1.62,2.48,1.71,3.5c0.42,4.75,1.17,13,1.67,22.5"/><path d="M63.12,18c0.88,0.88,1.51,2.98,1.13,5.25c-1,6-1.25,10.5-3.25,21.75"/><path d="M28,48.38c15.63-1.25,32.25-2.38,50.7-3.13"/><path d="M47.28,52.87c0.51,1.25,0.28,2.87-0.26,4.39c-1.77,5-4.2,10.5-10.59,19.28c-1.39,1.91-0.3,2.61,0.74,2.71c11.31,1.13,23.41,4.23,32.95,10.94c3.18,2.24,6.07,4.88,8.56,7.98"/><path d="M69.62,57.75c0.25,1.5,0.22,3.35-0.26,4.77c-3.96,11.46-14.07,30.7-43.12,37.73"/><path d="M13.13,66.65c3,0.62,6.21,0.39,9.25,0.19c15.85-1.01,45.88-3.34,65.5-4c2.69-0.09,7.32,0.31,9.5,0.9"/></svg>