<svg><path d="M15.56,33.93c1.64,0.34,3.91,0.21,5.56,0.02c5.44-0.66,11.65-1.48,18.63-2.82c1.44-0.28,2.83-0.51,4.3-0.33"/><path d="M12.64,51.33c1.92,0.39,3.95,0.12,5.87-0.09c5.54-0.61,14.24-1.86,21.86-2.83c1.96-0.25,3.91-0.26,5.88-0.02"/><path d="M30.09,15.25c1.02,1.02,1.44,2.61,1.45,4.73C31.67,59.04,26.5,73.5,12.79,86.5"/><path d="M31.97,60.79c4.38,3.73,8.5,9.65,10.53,14.74"/><path d="M54.79,16.86c1.17,1.17,1.45,2.51,1.45,4.12c0,5.19,0,26.69,0,37.52c0,1.77,0,3.25,0,4.33"/><path d="M57.05,18.98c3.41-0.42,18.04-2.37,23.82-3.03c3.33-0.38,5.56-0.03,5.49,3.68c-0.11,6.17-0.17,26.15-0.19,36c-0.01,3.21-0.01,5.35-0.01,5.58"/><path d="M57.25,32.31c7.62-1.06,22.5-2.44,27.77-2.75"/><path d="M57.23,45.75c7.02-0.63,19.65-2.13,27.72-2.53"/><path d="M57.19,60.11c6.94-0.73,19.94-2.23,27.97-2.78"/><path d="M63.08,65.53c0.11,1.23-0.02,2.35-0.42,3.52c-1.96,5.71-9.18,16.7-19.44,23.45"/><path d="M71.27,62.04c1.1,1.1,1.37,2.47,1.4,4.23c0.1,4.71,0.03,11.49,0.03,16.98c0,10.38,1.18,11.63,13.56,11.63c9.74,0,10.27-1.13,10.27-8.46"/></svg>