<svg><path d="M22.08,15.25c3.41,2.12,7.07,5.29,10,9"/><path d="M10.83,39.25c2.21,0.98,4.59,0.88,6.92,0.37c5.93-1.3,16.96-4.23,19.08-4.87c2.5-0.75,4.45,1.22,3,3.5c-5.95,9.38-18,22.5-26.75,30.25"/><path d="M28.25,55.11c0.88,0.88,1.27,2.52,1.27,4.39c0,5.23,0.03,22.47,0.05,30.75c0,2.6,0.01,4.31,0.01,4.5"/><path d="M32.25,54.25c3.18,2.65,6.6,6.61,9.33,11.25"/><path d="M53.01,17.73c0.82,0.81,1.37,1.87,1.37,3.3c0,1.16,0,28.75-0.01,39.47c0,2.51,0,4.11,0,4.25"/><path d="M55.14,19.43c5.49-1.06,21.68-3.47,24.03-3.69c1.96-0.18,3.33,0.99,3.33,2.32c0,2.1-0.01,24.13-0.01,39.93c0,1.6,0,3.13,0,4.57"/><path d="M55.59,33.26c5.41-0.76,20.16-2.51,25.68-2.9"/><path d="M55.3,47.16c6.95-0.66,17.7-2.41,25.67-2.89"/><path d="M55.47,62.07c8.41-1.07,19.91-2.45,26.17-2.64"/><path d="M58.97,68.61c0.09,1.17,0.1,2.56-0.39,3.66c-2.33,5.23-7.19,14.75-17.74,22.23"/><path d="M70.77,63.89c1.04,1.04,1.64,2.36,1.64,4.46c0,4.26,0.02,9.73,0.02,14.89c0,9.62,1.57,11.14,12.32,11.14c10.12,0,11.16-1.77,11.16-6.44"/></svg>