<svg><path d="M30.5,16.5c3.5,3.23,7.25,8.88,7.75,10.5"/><path d="M49.25,13c1.64,2,5.59,7.25,6.25,10.5"/><path d="M78.06,10.25c0.44,1.12,0.29,2.02-0.33,3C76,16,71.16,21.75,69,24"/><path d="M22.67,33.25c-0.3,5.62-2.05,11.75-4.59,17.25"/><path d="M24,35.5c21.75-2.38,44.88-4.88,61.5-5.75c11.76-0.62,4.75,5.25,1.5,8"/><path d="M36.28,42.83c0.53,0.75,1.31,2.79,1.31,3.83c0,0.81,0,18.28,0,26.84c0,2.4,0,4.09,0,4.54"/><path d="M38.22,44.28c3-0.25,25.64-3.34,28.38-3.61c2.28-0.22,3.89,1.08,3.89,3.01c0,4.02-0.17,18.98-0.26,27.19c-0.03,2.76-0.05,4.75-0.05,5.32"/><path d="M38.92,54.45c3.8-0.43,23.46-2.57,31.02-3.11"/><path d="M39.16,64.17c6.71-0.67,22.7-2.71,30.42-3.04"/><path d="M38.94,74.82c6.94-0.7,22.45-2.22,30.17-2.54"/><path d="M46.76,78.4c0.07,0.52,0.23,1.38-0.14,2.08c-2.49,4.65-11.86,12.77-25.49,19.9"/><path d="M59.19,76.27c0.61,0.82,1.12,1.79,1.12,3.06c0,4.32-0.07,7.83-0.07,10.67c0,6,1.63,7.96,15.03,7.96c14.97,0,16.39-0.59,16.39-8.54"/></svg>