<svg><path d="M25.71,14.13c0.58,0.4,1.81,3.03,1.92,3.83c0.12,0.81-0.19,29.27-0.19,41.12"/><path d="M27.98,34.14c6.83-0.87,14.41-2.6,15.36-2.6c0.95,0,2.66,0,3.41,0.29"/><path d="M12.91,59.85c0.32,0.53,0.66,0.97,0.8,1.64c1.12,5.25,2.97,19.74,3.74,29.17"/><path d="M13.85,62.25c9.9-2,22.36-4.44,26.51-4.79c2.4-0.2,3.89,2.73,3.68,4.33c-0.89,6.61-2.99,13.94-4.22,22.33"/><path d="M17.27,87.6c6.11-0.47,16.48-2.1,25.85-3.24"/><path d="M55.19,16.28c0.48,1.09,1.17,1.91,1.17,3.37c0,1.46-0.16,44.14,0,45.6"/><path d="M57.15,17.76c2.69-0.18,23.2-3.55,25.65-3.77c2.04-0.18,3.65,1.02,3.48,2.37c-0.22,1.72-0.95,44.53-0.95,45.62"/><path d="M57.1,32.15c3.85,0,22.81-2.96,27.13-2.96"/><path d="M57.33,45.14C65.13,44.61,78,43,84.91,42.45"/><path d="M58.02,61.58c5.35,0,19.67-2.19,26.59-2.19"/><path d="M64.74,64.75c0.07,0.74,0.14,1.9-0.14,2.96C62.95,73.94,53.47,87.62,40.5,96"/><path d="M73.86,62.97c0.43,1.1,0.77,2.4,0.8,4.11c0.07,4.48-0.33,10.9-0.33,16.18C74.33,96,75.74,96.74,85,96.62s11.75-1.12,11.75-9.96"/></svg>