<svg><path d="M 33.563314,14.008016 c -0.04496,1.753402 -0.431606,2.697541 -0.962123,3.884459 -4.371612,8.740776 -10.772602,16.141661 -19.151368,23.560754"/><path d="M 28.048896,8.8918517 C 34.285301,10.255 41.921115,28.522174 45.543715,33.247194 c 2.810994,3.666429 4.239392,4.955045 6.393167,6.318194"/><path d="M 23.597291,39.11875 c 0.79,0.34 2.23,0.37 3.03,0.34 5.3,-0.2 9.885729,-0.663958 14.225729,-1.633958 1.28,-0.29 2.11,-0.34 2.77,-0.17"/><path d="M14.78,49.75c0.46,1,0.77,2,0.92,3c0.15,1,0.22,40,0.15,42.25"/><path d="M16.62,51.69c1.02-0.14,9.91-1.55,10.67-1.71C28.65,49.7,30,51,30,52.69c0,0.84-0.26,25.06-0.26,36.6c0,10.21-4.03,2.56-4.89,1.28"/><path d="M19.6,59.08c1.98,1.08,5.12,4.45,5.62,6.13"/><path d="M19.79,73.58c1.84,1.04,4.75,4.27,5.21,5.88"/><path d="M41.58,47.87c0.21,1.08,0.79,2.94,0.48,4.43c-0.95,4.54-3.55,11.46-7.81,17.06c-1.02,1.34-0.01,2.43,0.2,2.74c3.47,4.97,5.53,11.66,7.27,22.4"/><path d="M49.49,47.94c0.21,1.02,0.79,2.76,0.48,4.15c-0.96,4.25-3.37,11.96-6.26,17.04c-0.79,1.39-0.01,2.28,0.21,2.57c3.5,4.65,5.59,10.3,6.95,17.48"/><path d="M58.19,16.77c0.45,1.09,1.09,1.9,1.09,3.35c0,1.45-0.15,42.92,0,44.38"/><path d="M60.02,18.24c2.52-0.18,21.71-2.53,24-2.75c1.91-0.18,3.42,1.02,3.26,2.36c-0.2,1.71-0.89,44.3-0.89,45.39"/><path d="M59.98,33.56c3.6,0,21.34-2.45,25.38-2.45"/><path d="M60.19,47.47c7.3-0.52,18.4-1.68,24.88-1.68"/><path d="M60.34,62.34c6.91-0.59,18.9-2.18,25.38-2.18"/><path d="M66.76,64.75c0.04,0.73,0.08,1.88-0.08,2.93c-0.99,6.18-6.67,19.76-14.43,28.07"/><path d="M75.86,63.47c0.43,1.1,0.77,2.4,0.8,4.11c0.07,4.48-0.33,10.89-0.33,16.17c0,10.5,1.17,11.88,10.42,11.88s10.5-0.87,10.5-8.46"/></svg>