<svg><path d="M12.72,25.21c1.02,0.25,2.89,0.73,3.92,0.63c6.36-0.59,20.52-2.53,30.62-3.39c1.7-0.15,2.73,0.03,3.58,0.14"/><path d="M22.71,13.39c0.54,0.34,1.68,2.68,1.79,3.42c0.11,0.73,1.46,15.73,2.08,26.21"/><path d="M39.06,12.96c1.02,0.5,1.84,2.91,1.79,3.73c-0.34,6.57,0,13.07-0.66,24.57"/><path d="M14.84,35.14c1.02,0.22,2.88,0.23,3.9,0.12c4.52-0.51,19.77-2.76,28.51-3.87c1.68-0.21,2.71,0.02,3.56,0.12"/><path d="M11.54,45.05c1.08,0.43,3.06,0.47,4.13,0.27c6.86-1.25,23.48-3.65,36.57-5.2c1.79-0.21,2.87,0.08,3.77,0.28"/><path d="M19.72,53.44c0.3,0.74,0.94,2.44,0.84,3.78c-0.1,1.34,0.1,37.69,0.1,39.93"/><path d="M20.94,54.93c3.79-0.6,23.78-3.23,24.53-3.44c1.59-0.45,2.6,2.01,2.59,2.75c-0.08,4.58-0.3,32.43-0.3,35.86c0,9.15-4.74,1.54-6.05,0.39"/><path d="M32.85,45.29c0.07,0.2,1,1.03,1,2.29c0,8.11,0.08,14.31,0.08,25.04"/><path d="M20.69,64.91c7.4-0.71,18.87-2.66,26.88-3.23"/><path d="M11.66,75.09c1.12,0.37,3.17,0.45,4.29,0.37c13.84-1.03,24.49-3.31,36.86-3.79c1.86-0.07,2.98,0.17,3.91,0.36"/><path d="M61.69,16.79c0.45,1.1,1.09,1.92,1.09,3.39c0,1.47-0.15,42.85,0,44.32"/><path d="M63.52,17.78c2.52-0.18,19.71-2.07,22-2.29c1.91-0.18,3.42,1.03,3.26,2.38c-0.2,1.72-0.39,43.75-0.39,44.85"/><path d="M62.98,31.24c3.6,0,20.34-1.98,24.38-1.98"/><path d="M63.19,44.8c7.3-0.52,18.4-2.2,24.88-2.2"/><path d="M62.84,61.82c5.01,0,18.4-1.7,24.88-1.7"/><path d="M67.76,65.25c0.04,0.74,0.09,1.9-0.09,2.96C66.63,74.44,62,88.5,52.5,96.5"/><path d="M76.86,63.47c0.43,1.1,0.77,2.4,0.8,4.11c0.07,4.62-0.32,11.31-0.32,16.68C77.34,96,78.25,96.6,87.5,96.6c9,0,9.75-1.35,9.75-9.45"/></svg>