<svg><path d="M14.32,24.12c1.19,0.58,2.57,0.69,3.77,0.58c10.94-1.05,21.17-2.69,32-3.98c1.97-0.23,2.67-0.23,3.66,0.06"/><path d="M25.07,14.48c0.81,0.92,1.07,1.2,1.15,1.77c0.81,5.31,1.5,10.78,1.73,12.71"/><path d="M43.19,14.53c0.13,0.68,0.29,1.18,0.15,2.01c-0.83,4.88-1.21,7.32-2.12,11.91"/><path d="M16.66,33.17c0.22,0.19,0.44,0.35,0.53,0.59c0.75,1.89,1.65,7.11,2.16,10.51"/><path d="M18.01,34.45c4.42-0.99,9.8-1.67,12.33-1.92c0.93-0.09,1.48,0.54,1.35,1.07c-0.55,2.21-1.19,4.47-2,7.53"/><path d="M19.45,42.6c2.97-0.28,7.94-1.17,12.02-1.6"/><path d="M37.55,31.74c0.21,0.22,0.42,0.4,0.51,0.67c0.72,2.15,1.58,5.2,2.07,9.06"/><path d="M38.84,32.69c4.23-1.12,9.39-1.92,11.81-2.2c0.89-0.1,1.42,0.61,1.29,1.22c-0.52,2.51-1.14,4.22-1.92,7.69"/><path d="M40.22,40.58c2.85-0.32,6.77-0.87,10.68-1.36"/><path d="M25.98,45.54c0.13,1.03-0.04,2.39-0.46,3.27c-2.69,5.64-6.1,10.42-12.27,17.28"/><path d="M22.28,58.38c0.45,0.57,0.79,1.82,0.82,2.71c0.26,7.89-0.36,29.3-0.14,33.41"/><path d="M39.11,44.76c0.04,0.46-0.01,1.06-0.12,1.46c-0.73,2.52-1.65,4.46-3.31,7.52"/><path d="M22.97,57.06c5.17-0.74,25.86-2.91,28.08-3.31"/><path d="M35.45,57.53c0.25,0.29,0.45,0.69,0.45,1.19c0,5.12,0.03,23.44-0.12,31.5"/><path d="M23.66,67.77c4.88-0.62,22.17-2.41,24.27-2.75"/><path d="M23.49,78.67c5.15-0.52,22.91-3.08,25.12-3.36"/><path d="M23.07,91.94c5.17-0.74,24.33-2.68,26.55-3.08"/><path d="M60.19,17.69c0.45,1.05,1.09,1.83,1.09,3.23c0,1.4-0.15,43.93,0,45.33"/><path d="M61.52,19.61c2.52-0.17,19.21-2.41,21.5-2.62c1.91-0.18,3.42,0.98,3.26,2.28c-0.2,1.65-0.39,45.24-0.39,46.29"/><path d="M61.48,32.92c3.6,0,20.34-2.85,24.38-2.85"/><path d="M61.69,46.32c7.3-0.5,17.4-2.1,23.88-2.1"/><path d="M61.34,61.69c5.01,0,17.4-1.6,23.88-1.6"/><path d="M66.25,69.25c0.05,0.65,0.11,1.69-0.1,2.62C64.91,77.41,58.43,90.24,48,97"/><path d="M74.86,62.47c0.43,1.1,0.77,2.4,0.8,4.11c0.07,4.48-0.33,14.4-0.33,19.68c0,8.25-0.1,11.86,9.91,11.86S95.25,95,95.25,89.66"/></svg>