<svg><path d="M46.75,12c0.17,1.49-0.3,2.79-1.03,4.05c-2.8,4.87-10.7,12.82-20.47,17.95"/><path d="M49,16c5,0.25,14.12-1,19-2.25c3.06-0.79,3.88,1.41,2.5,3.25c-4.5,6-9.25,11.75-14,17.5"/><path d="M30.38,36.5c0.8,0.81,1.1,2.2,1.1,4.43c0,29.32,0.27,43.57-10.73,57.32"/><path d="M31.75,38.7c15.62-1.45,37.25-3.08,42.47-3.46c5.01-0.37,5.75,2.63,5.75,6.21c0,1.34-0.19,32.3-0.19,49.18c0,12.62-5.79,5.37-8.54,2.12"/><path d="M53.29,38.87c0.08,0.24,1.1,1.24,1.1,2.77c0,7.49,0.03,23.87,0.03,27.62"/><path d="M32.25,54.6c8.12-0.6,35.75-2.85,47-3.1"/><path d="M31.74,71.5c10.01-0.75,35.51-2.5,46.85-3"/></svg>