<svg><path d="M27.23,16.5c0.04,0.49,0.21,1.3-0.08,1.96c-1.9,4.29-8.4,15.04-16.15,22.29"/><path d="M25.39,22c2,0,10.61-1.25,14.32-2.25c2.16-0.58,3.29,1.14,2,2.75c-4.21,5.25-5.49,8.75-8.65,14.5"/><path d="M18.64,38.5c0.63,0.73,1.25,2.76,1.25,3.53c0.02,1.86-0.45,23.18-0.57,24.81C18.54,77.33,16.28,87.99,11,94.5"/><path d="M20.07,39.7c2.5-0.21,19.92-3.73,21.78-3.96c3.33-0.42,4.58,2.71,4.16,3.96c-0.4,1.2-0.62,30.55-0.62,47.43c0,12.12-4.39,3.37-6.68,1.62"/><path d="M31.92,40.37c0.05,0.24,0.68,1.25,0.73,2.77C32.88,50.42,32.5,66.52,32.5,69"/><path d="M20.07,54.85C30.5,53.5,35,53.25,45.2,52"/><path d="M19.57,70.75c6.68-0.5,15.93-2.25,25.69-3"/><path d="M82.25,15.36c0.06,0.37,0.13,0.96-0.13,1.5c-1.56,3.16-8.87,9.38-21.02,14.69"/><path d="M56.66,30.95c1.09,1.05,2.07,3.07,2.07,5.04c0,1.97-0.17,33.44-0.17,36.51c0,3.07,0.17,3.94,2.4,1.75c2.23-2.19,12.06-9.67,13.43-10.98"/><path d="M59.03,48.57c0.64,0.21,1.83-0.21,2.47-0.29c14-1.78,16.75-2.28,27.91-4.49c1.05-0.21,3.72-0.4,4.25-0.3"/><path d="M75.15,27.57c0.41,0.44,1.21,2.65,1.26,3.5c1.03,19.12,5.85,46.45,17.4,58.25c4.26,4.36,2.81-5.13,2.81-7.81"/><path d="M55.75,89.39c0.94,0.38,2.66,0.49,3.6,0.38c5.98-0.66,15.4-2.02,20.61-2.38c1.56-0.11,2.5,0.18,3.29,0.37"/></svg>