<svg><path d="M30.72,12.5c0.11,1.23-0.01,2.02-0.57,3.14c-2.59,5.25-7.93,12.06-15.91,18.86"/><path d="M27.89,20.75c4.11-0.12,9.86-1,14.82-2c2.19-0.44,3.29,1.14,2,2.75c-4.21,5.25-6.33,8.38-10.9,15"/><path d="M21.57,37c0.97,0.97,0.98,2.25,1,3.41c0.56,26.46-2.32,41.34-10.07,49.84"/><path d="M23.68,39.2c2.35-0.21,20.17-3.73,21.92-3.96c3.14-0.42,3.92,0.88,3.92,3.96c0,5.17-0.02,33.54-0.02,50.42c0,12.12-4.95,2.88-7.11,1.12"/><path d="M34.86,39.37c0.7,0.7,0.94,1.75,0.94,3.27c0,10.62-0.05,18.74-0.05,24.37"/><path d="M23.74,53.35c9.82-1.35,14.14-1.73,24.51-2.85"/><path d="M22.48,69c6.29-0.5,16.27-1.25,26.11-2"/><path d="M57.83,41c0.9,0.9,1.29,1.87,1.42,2.89c0.53,4.12,1.53,9,2.34,16.1c0.19,1.69,0.39,3.47,0.61,5.33"/><path d="M59.93,42.63c8.09-0.94,22.79-2.85,30.08-3.5c3.68-0.33,5.24,1.87,4.75,4.42c-0.8,4.17-1.6,6.6-3.13,14.34"/><path d="M63.02,62.01c7.23-0.76,16.53-1.59,25.72-2.53c1.84-0.19,3.61-0.36,5.26-0.52"/><path d="M75.62,14.5c0.94,0.94,1.47,2.38,1.47,3.76c0,0.88,0.03,62.74,0.03,68.49"/><path d="M56.93,92.54c0.8,0.82,1.82,1.1,3.33,0.64C70.75,90,86.88,85.25,93.38,83.12"/><path d="M89.49,75.22c3.38,3.78,7.38,10.91,9.27,16.82"/></svg>