<svg><path d="M30.38,14.5c2.78,1.9,7.18,7.8,7.87,10.75"/><path d="M13.87,36.08c0.63,0.23,3.04,0.27,3.67,0.23c7.8-0.42,22.97-4.67,28.64-4.87c1.05-0.04,2.64,0.11,3.16,0.23"/><path d="M22.23,47.06c0.38,0.12,2.71,0.13,3.1,0.12c3.97-0.14,10.3-2.56,14.21-2.55c0.63,0,3.29,0.06,3.61,0.12"/><path d="M22.23,59.13c0.43,0.14,3.07,0.15,3.5,0.14c4.49-0.16,11.8-2.5,16.22-2.49c0.72,0,3.72,0.07,4.08,0.13"/><path d="M21.89,72.41c0.38,0.38,0.82,0.68,0.95,1.17c1.09,4.36,3.48,12.52,4.58,18.92"/><path d="M23.28,73.46c9.22-1.96,15.19-3.16,21.73-4.09c1.64-0.23,2.63,1.07,2.4,2.14c-0.98,4.4-1.83,6.95-3.56,14.27"/><path d="M28.21,89.21c5.29-0.56,11.52-2.03,18.78-2.89"/><path d="M67.81,11.63c0.76,0.45,2.36,3.35,2.51,4.25c0.15,0.9-0.1,77.15-0.25,82.75"/><path d="M72.25,43.25c7.76,3.35,19.95,12.28,22,19"/></svg>