<svg><path d="M22.13,14c2.87,1.5,7.41,6.17,8.12,8.5"/><path d="M10.37,31.88c1.84,0.61,4.01,0.48,5.9,0.34c6.46-0.5,13.64-1.79,18.98-2.35c2.1-0.22,3.97-0.66,6.1-0.24"/><path d="M17.48,45.81c1.27,0.4,3.23,0.15,4.52,0.02c3.69-0.38,7.74-1.4,11.53-1.95c1.09-0.16,2.52-0.34,3.61-0.13"/><path d="M17.73,58.08c1.16,0.4,2.71,0.45,3.91,0.28c4.5-0.65,7.98-1.36,11.73-1.95c1.29-0.2,2.88-0.44,4.16-0.19"/><path d="M16.64,70.9c0.76,0.68,1.16,1.53,1.18,2.56c0.73,3.44,1.57,8.41,2.33,13.06c0.21,1.28,0.41,2.54,0.61,3.73"/><path d="M18.81,71.62c5.77-0.8,10.72-1.65,16.07-2.47c2.73-0.42,4.5-0.11,3.76,3.01c-0.87,3.65-1.54,6.69-2.96,13.06"/><path d="M21.47,87.8c3.8-0.43,7.59-0.79,12.28-1.33c1.24-0.14,2.54-0.3,3.92-0.47"/><path d="M46.75,21c2.32,0.77,4.9,0.4,7.28,0.02C63.38,19.5,74.55,17.5,77.75,17c4-0.62,5.08,1.22,4.5,5C78.88,43.88,77.12,71.38,91,89.75c6.18,8.18,6.25,3.5,6.5-3"/><path d="M44.25,51.42c2.25,0.71,4.74,0.33,6.26,0.2c5.01-0.44,11.71-1.08,18.49-1.73c1.33-0.13,2.75-0.14,5,0.11"/><path d="M60.09,26.78c1.19,1.19,1.53,2.43,1.53,4.65c0,20.32,0.63,45.81-18.06,62.31"/></svg>