<svg><path d="M27,13.75c2.71,1.68,7,6.89,7.68,9.5"/><path d="M12.12,32.83c1.7,0.56,4.01,0.25,5.76,0.14c7.65-0.5,17.35-1.91,23.87-2.9c1.92-0.29,3.62-0.54,5.6-0.15"/><path d="M20.68,45.81c1.26,0.36,2.89,0.16,4.2,0.09c4.05-0.2,9.13-1.06,13.23-1.65c1.23-0.18,2.68-0.46,3.91-0.25"/><path d="M21.55,58.08c1.16,0.35,2.74,0.15,3.95,0.07c3.76-0.24,9.21-1.03,13.13-1.44c1.22-0.13,2.49-0.21,3.71,0"/><path d="M20.76,71.07c0.85,0.78,1.06,1.99,1.28,3.05c0.73,3.42,1.42,8.69,2.22,13.59c0.24,1.46,0.47,2.83,0.69,4.04"/><path d="M22.9,72.48c6.85-0.98,11.94-2.18,17.5-3.04c3.41-0.53,4.72,1.19,4.1,3.48c-0.98,3.6-1.89,7.78-3.35,13.58"/><path d="M26.01,89.45c4.26-0.42,7.98-1.03,13.28-1.58c1.19-0.12,2.43-0.26,3.73-0.4"/><path d="M49.5,42.9c2.18,0.55,3.97,0.49,6.13,0.14c9.29-1.5,24.03-3.63,34.13-4.7c2.04-0.22,4.74-0.35,6.99,0.26"/><path d="M81.14,13.58c1.08,1.08,1.76,2.67,1.76,4.77c0,20.4-0.01,65.15-0.01,70.62c0,12.03-7.02,2.03-9.21,0.5"/><path d="M59.58,56.87c3.17,2.51,5.92,6.01,7.75,11"/></svg>