<svg><path d="M24.8,15.75c2.52,1.5,6.5,6.17,7.13,8.5"/><path d="M12.62,33.58c0.71,0.23,3.4,0.27,4.1,0.23c8.73-0.42,15.15-1.81,22.33-2.62c1.17-0.13,2.95-0.14,3.54-0.02"/><path d="M18.68,47.31c1.35,0.38,3.19,0.16,4.59,0.06c4.1-0.29,8.36-1.43,12.47-1.99c1.09-0.15,2.45-0.32,3.54-0.13"/><path d="M19.8,60.08c1.22,0.37,2.94,0.4,4.2,0.31c3.61-0.26,8.04-1.36,11.37-1.9c1.23-0.2,2.73-0.49,3.96-0.27"/><path d="M18.64,72.46c0.82,0.82,1.07,1.95,1.26,2.9c0.61,3.13,1.42,8.01,2.11,12.35c0.26,1.62,0.49,3.17,0.69,4.53"/><path d="M20.76,73.8c5.82-1.08,10.43-2,14.98-2.74c3.77-0.62,5.18-0.15,4.47,3.85c-0.57,3.2-1.52,6.81-2.74,11.91"/><path d="M23.47,90.14c5.15-1.09,8.2-1.63,12.31-2.18c1.1-0.15,2.29-0.3,3.65-0.46"/><path d="M79.03,16c0.08,0.52-0.15,1.54-0.65,2.09c-6.25,6.79-14.75,14.29-27.88,20.21"/><path d="M46,55.41c3.5,0.59,5.69,0.49,8.15-0.15c9.6-2.5,23.35-5.13,32.35-6.5c2.28-0.35,4.49-0.38,6.75,0.17"/><path d="M64.25,33.79c0.85,0.85,1.32,2.22,1.32,3.36c0,3.55-0.07,40-0.07,43.48c0,7.79,2.12,9.59,14.02,9.59c13.01,0,13.88-2.51,13.88-9.68"/></svg>