<svg><path d="M21.38,15c3.48,1.72,9,7.07,9.87,9.75"/><path d="M11.87,34.2c0.7,0.26,3.34,0.3,4.04,0.26c8.59-0.46,18.7-2.44,24.95-2.66c1.16-0.04,2.9,0.12,3.48,0.25"/><path d="M16.73,46.06c0.38,0.12,2.71,0.13,3.1,0.12c3.97-0.14,11.8-1.56,15.71-1.55c0.63,0,3.29,0.06,3.61,0.12"/><path d="M17.23,56.79c0.39,0.09,2.81,0.11,3.21,0.09c4.11-0.11,10.31-1.21,14.36-1.2c0.66,0,3.41,0.05,3.73,0.09"/><path d="M16.64,70.77c0.39,0.41,0.83,0.73,0.96,1.26c1.1,4.68,2.51,14.5,3.62,21.37"/><path d="M18.05,73.06c7.72-1.07,14.36-1.92,21.49-3c1.79-0.26,2.87,1.24,2.61,2.47c-1.06,5.09-1.99,7.95-3.88,16.43"/><path d="M22.02,90.94c5.34-0.6,11.12-1.14,18.45-2.07"/><path d="M50.17,21.62c0.8,0.43,3.56,0.46,4.36,0.38c5.54-0.5,23.84-2.66,33.29-3.5c1.33-0.12,4.13,0.37,4.79,0.58"/><path d="M44.88,51.92c1.36,0.33,3.87,0.42,5.23,0.33c12.84-0.89,28.1-3.37,42.99-3.68c2.27-0.05,3.64,0.16,4.78,0.32"/><path d="M68.31,22.63c0.54,0.51,2.29,2.12,2.29,4.83c0,5.29-0.07,62.56-0.18,68.92"/></svg>