<svg><path d="M25.5,14.25c3,1.59,7.75,6.53,8.5,9"/><path d="M13.37,33.72c0.67,0.28,3.21,0.33,3.88,0.28c8.25-0.52,16.75-1.75,24-3c1.1-0.19,3.79-0.36,4.34-0.22"/><path d="M21.23,47.01c1.14,0.37,2.02,0.24,3.1,0.18c3.97-0.23,10.1-1.54,13.96-2.06C39.25,45,40.75,45,41.65,45.3"/><path d="M21.73,59.64C22.62,60,24,59.91,25.08,59.8c4.17-0.42,8.79-1.17,14.09-2.29c0.82-0.17,2.45-0.26,3.36-0.1"/><path d="M19.64,72.65c0.86,0.6,1.25,1.66,1.36,2.15c0.82,3.5,1.32,8.43,2.2,14.17c0.19,1.23,0.38,2.42,0.55,3.53"/><path d="M22,73.74c5.78-0.95,14.6-2.33,19.74-3.12c1.49-0.22,2.39,1.05,2.18,2.08c-0.72,3.47-2.53,9.95-3.5,14.38"/><path d="M24.47,90.27c4.16-0.48,9.44-1.12,15.06-1.77c0.87-0.1,1.75-0.21,2.63-0.32"/><path d="M53.21,26.84c1.91,0.66,3.76,0.87,5.98,0.61C65,26.75,81.63,24.09,83,24c3.46-0.23,4.53,2.2,3.61,5.45C85.75,32.5,84,40.5,83.05,46.07"/><path d="M54.62,50c1.25,0.5,2.28,0.62,3.77,0.44c6.73-0.82,15.11-2.23,21.38-3.04c1.84-0.24,3.55-0.44,5.07-0.57"/><path d="M56.5,51c0.88,1,0.76,2.38,0.76,4.09c0,4.24-0.43,14.73-0.43,18.97c0,17.19-0.08,17.2,19.65,17.2c15.27,0,17.02-1.51,17.02-10.68"/></svg>