<svg><path d="M22.55,13.5c2.52,1.94,6.5,7.98,7.13,11"/><path d="M10.87,32.08c1.61,0.53,3.73,0.27,5.39,0.16c7.62-0.53,12.77-1.84,19.23-2.64c1.55-0.19,3.29-0.48,4.85-0.18"/><path d="M16.18,44.81c1.3,0.37,2.98,0.4,4.32,0.34c3.81-0.17,9-0.78,11.11-1.15c1.38-0.25,3.27-0.49,4.66-0.25"/><path d="M16.05,59.33c1.25,0.38,3.05,0.49,4.33,0.3c4.13-0.63,8.43-1.18,12-1.86c1.16-0.22,2.53-0.51,3.7-0.3"/><path d="M15.01,73.4c0.79,0.79,0.99,1.85,1.21,2.88c0.74,3.43,1.09,8.74,1.81,14.21c0.17,1.3,0.36,2.57,0.58,3.75"/><path d="M16.69,74.37c7.71-1.01,10.58-1.5,15.93-2.24c3.05-0.42,4.66-0.06,3.99,3.25c-0.78,3.84-1.37,7.75-2.81,14.34"/><path d="M19.42,92.3c4.56-0.46,7.95-0.84,13.61-1.45c1.01-0.11,2.08,0.02,3.2-0.1"/><path d="M65.13,13c0.05,0.75,0.07,1.74-0.36,2.75C61,24.62,56.12,33.38,45.15,44.5"/><path d="M65.44,17.17c3.3,3.78,14.23,13.55,21.04,19.25c2.65,2.21,5.55,4.31,8.61,5.93"/><path d="M70.48,37.4c0.17,1.41-0.27,2.18-1.15,3.32C65.25,46,59.9,51.15,49.07,57.53"/><path d="M78.42,51.49c0.19,1.33-0.4,2.53-1.22,3.59c-4.83,6.24-12.45,13.68-27.45,21.43"/><path d="M86.03,69.96c0.29,1.58-0.46,2.85-1.59,3.98c-6.53,6.57-23.01,16.62-40.37,23.16"/></svg>