<svg><path d="M24.38,15.5c2.43,1.46,6.02,5.98,6.62,8.25"/><path d="M12.12,33.33c1.99,0.52,3.99,0.57,6.02,0.31c6.98-0.91,13.23-2.01,18.73-2.6c1.57-0.12,3.51-0.16,4.98-0.11"/><path d="M17.98,47.06c1.21,0.13,2.43,0.23,3.64,0.1c4.75-0.53,8.85-1.18,12.66-1.89C35.63,44.99,37,44.9,38.4,45"/><path d="M19.23,59.83c1.25,0.34,2.5,0.45,3.77,0.31c3.39-0.26,8.4-1.43,11.63-1.93c1.29-0.22,2.59-0.3,3.9-0.24"/><path d="M17.89,72.15c0.73,0.73,1,1.71,1.14,2.67c0.54,3.65,1.27,8.11,1.99,12.45c0.25,1.52,0.5,3.03,0.73,4.48"/><path d="M19.81,73.37c6.67-1.23,10.91-2.09,16.09-2.96c2.41-0.4,4.33,0.48,3.69,3.21c-0.86,3.65-1.52,6.84-2.92,13.1"/><path d="M22.47,89.55c3.86-0.43,7.55-1.12,12.27-1.81c1.16-0.17,2.37-0.34,3.67-0.5"/><path d="M66.48,14.49c1.14,1.14,1.57,2.38,1.57,3.97c0,3.59-0.04,6.9-0.04,10.16"/><path d="M48.13,30.74c0,3.62-1.85,10.59-2.92,13.01"/><path d="M48.67,32.36c11.15-1.87,30.79-4.21,38.82-4.56c10.15-0.45,2.8,5.6,0.21,7.84"/><path d="M86.02,44.76c-0.02,0.99-0.44,1.91-0.93,2.46C81.85,50.81,72.62,58.5,61.75,63.5"/><path d="M57.5,40.13c0.93,0.93,1.07,2.24,1.07,3.55c0,1.38-0.07,32.32-0.07,36.57c0,10.25,1.21,12.02,17.89,12.02c14.37,0,16.91-1.64,16.91-13.53"/></svg>