<svg><path d="M26.8,12.25c2.43,1.59,6.27,6.53,6.88,9"/><path d="M11.12,29.83c1.7,0.56,4.01,0.26,5.76,0.13c7.78-0.54,17.78-2.01,23.73-2.81c1.78-0.24,3.89-0.53,5.23-0.23"/><path d="M17.68,43.81c1.41,0.4,3.25,0.4,4.68,0.23c4.46-0.52,9.29-1.49,13.26-2.04c1.53-0.21,3.36-0.51,4.89-0.25"/><path d="M18.8,56.33c1.31,0.4,3.25,0.38,4.58,0.28c3.7-0.27,8.74-1.3,12.76-1.89c1.38-0.2,3.06-0.5,4.44-0.25"/><path d="M17.01,68.9c0.92,0.92,1.3,1.92,1.53,2.96c0.71,3.22,1.52,8.39,2.28,13.12c0.36,2.27,0.72,4.45,1.05,6.26"/><path d="M19.5,70.62c7.02-1.37,14.77-2.54,18.74-3.2c2.64-0.44,3.91,0.85,3.44,3.52c-0.67,3.76-1.49,6.38-2.88,12.77"/><path d="M22.17,86.05c4.45-0.45,9.3-1.07,15.11-1.66c1.2-0.12,2.47-0.26,3.95-0.15"/><path d="M49.5,20.75c2.04,0.43,4.15,0.56,6.23,0.26c13.08-1.89,29.02-4.38,32.27-4.76c3.23-0.37,4.85,1.44,4.85,5.25c0,3-0.05,61.75-0.05,67.5c0,11.88-7.93,2.88-10.01,1.25"/><path d="M52.49,37.42c1.76,0.29,3.08,0.09,4.51-0.1c4.25-0.56,10.6-1.61,15.11-2.04c1.59-0.15,2.96-0.23,4.49,0.16"/><path d="M52.19,52.29c0.82,0.82,1.22,1.78,1.49,2.92c0.69,3,1.63,8.15,2.3,12.75c0.25,1.71,0.46,3.34,0.61,4.76"/><path d="M54.56,53.93c7.02-1.37,14.77-2.54,18.74-3.2c2.64-0.44,3.91,0.85,3.44,3.52c-0.67,3.76-1.49,6.38-2.88,12.77"/><path d="M56.85,69.79c3.09-0.42,9.52-1.04,15.15-1.72c1.43-0.17,2.88-0.28,4.06-0.28"/></svg>