<svg><path d="M26.85,16c2.92,1.72,7.54,7.07,8.27,9.75"/><path d="M13.62,35.4c2.42,0.32,4.84,0.33,7.25,0.04c7.13-0.62,14.62-1.57,20.88-2.4c2.12-0.28,4.2-0.62,6.34-0.45"/><path d="M20.83,47.31c1.69,0.17,3.37,0.18,5.05,0.02c4.14-0.41,8-0.71,12.01-1.41c1.54-0.27,3.66-0.44,5.18-0.17"/><path d="M21.43,59.83c1.57,0.16,3.13,0.15,4.69,0.01c4-0.35,8.22-0.71,12.38-1.46c1.5-0.27,3.13-0.39,4.65-0.42"/><path d="M21.17,73.65c0.52,0.52,1.02,1.21,1.2,2.13c0.81,4.17,1.6,8.64,2.39,13.11c0.32,1.79,0.63,3.58,0.95,5.35"/><path d="M22.82,74.62c6.62-0.83,13.03-1.94,19.17-2.81c2.18-0.31,3.98,1,3.45,3.3c-0.87,3.83-1.47,7.19-3.05,13.6"/><path d="M26,91.05c4.28-0.44,8.17-0.69,14.02-1.17c1.39-0.11,2.88-0.24,4.52-0.39"/><path d="M84.74,17.97c-0.34,1.31-0.99,2.42-1.94,3.32c-6.42,5.34-13.54,9.46-23.04,13.59"/><path d="M55.73,15c0.95,0.95,1.01,1.88,1.01,3.36c0,3.79-0.07,10.71-0.07,18.28c0,12.53,1.8,12.95,17.82,12.95c16.7,0,17.01-3.39,17.01-11.07"/><path d="M58.38,59.74c0.88,0.88,1.25,2.13,1.28,3.93c0.01,0.72,0.59,14.8,0.95,23.83c0.17,4.2,0.29,7.31,0.29,7.47"/><path d="M60.31,61.05c4.94-0.55,18.09-2.07,24.43-2.86c3.92-0.49,4.96,1.46,4.67,4.91c-0.44,5.19-1.28,16.01-1.84,23.52c-0.33,4.44-0.57,7.72-0.57,7.96"/><path d="M61.2,76.65c5.68-0.53,20.55-1.9,26.07-2.35"/><path d="M61.56,92.95c6.08-0.57,17.13-1.34,24.7-1.83"/></svg>