<svg><path d="M22.38,14c2.43,1.37,6.27,5.62,6.87,7.75"/><path d="M10.87,32.58c0.63,0.23,3.04,0.27,3.67,0.23c7.8-0.42,16.97-3.17,22.64-3.37c1.05-0.04,2.64,0.11,3.16,0.23"/><path d="M16.73,45.56c0.38,0.12,2.71,0.13,3.1,0.12c3.97-0.14,9.8-2.06,13.71-2.05c0.63,0,3.29,0.06,3.61,0.12"/><path d="M17.73,57.83c0.34,0.12,2.42,0.13,2.77,0.12c3.55-0.13,9.32-2.11,12.81-2.09c0.57,0,2.94,0.06,3.22,0.11"/><path d="M16.14,69.4c0.35,0.36,0.75,0.65,0.86,1.13c0.99,4.21,2.25,13.04,3.25,19.21"/><path d="M17.81,71.87c6.44-0.89,11.98-2.1,17.92-3c1.49-0.22,2.39,1.04,2.18,2.06c-0.89,4.25-1.16,6.72-2.74,13.78"/><path d="M20.97,87.55c4.8-0.54,9.1-1.47,15.69-2.31"/><path d="M66.62,12.5c0.82,0.37,1.99,2.21,1.97,3.29c-0.06,3.4-0.06,6.22-0.06,9.31"/><path d="M47.52,26.11c0,3.31-2.19,12.4-3.19,14.61"/><path d="M48.07,28.05c5.97-0.19,37.09-3.76,41.89-3.76c8.75,0,0.94,6.24-0.93,8.08"/><path d="M78.56,31.56c0.08,0.46-0.16,2.49-0.61,3.01c-5.62,6.44-13.48,11.19-28.14,16.39"/><path d="M44.13,64.88c1.06,0.38,3.01,0.56,4.06,0.38c10.4-1.73,34.21-6.32,44.23-7.46c1.75-0.2,2.82-0.2,3.7-0.01"/><path d="M64.34,47.88c0.54,0.95,1.27,2.99,1.27,4.28c0,4.02-0.27,25.22-0.27,29.17c0,10.49,2,11.91,15.49,11.91c10.92,0,12.49-3.01,12.49-9.75"/></svg>