<svg><path d="M21.05,15.25c3.22,1.77,8.32,7.25,9.13,10"/><path d="M10.37,33.58c1.94,0.64,4.53,0.56,6.51,0.35c7.61-0.81,13.78-1.12,19.37-2c1.71-0.27,3.88-0.6,5.59-0.27"/><path d="M16.68,46.06c1.2,0.34,3.08,0.28,4.32,0.08c4.59-0.72,8.11-1.13,12.01-1.66c1.08-0.15,2.17-0.16,3.26,0.02"/><path d="M15.05,58.33c1.28,0.39,3.42,0.18,4.71,0.02c4.1-0.51,9.26-1.33,12.87-1.79c1.33-0.17,2.62-0.33,3.95-0.1"/><path d="M14.51,72.03c0.8,0.78,1.04,2.08,1.24,3.1c0.73,3.94,1.58,8.95,2.34,13.36c0.27,1.61,0.54,3.14,0.77,4.51"/><path d="M16.37,73.4c7.58-1.16,12.03-2.01,17.48-2.79c3.32-0.47,4.35,0.17,3.69,3.5c-0.69,3.43-1.15,7.12-2.57,12.76"/><path d="M19.78,89.74c4.33-0.51,8.62-0.94,14-1.6c1.28-0.16,2.62-0.33,4.03-0.51"/><path d="M62.54,14c0.1,1.29-0.12,2.61-0.66,3.82c-3.12,6.93-8.39,16.68-18.37,26.3"/><path d="M58.7,30.75c2.29,0.93,4.5,0.72,6.84,0.37c5.35-0.8,17.01-2.87,22.35-3.63c4.67-0.66,6.3,1.27,6.06,5.02c-1.2,18.75-2.82,35.88-6.78,53.89c-2.54,11.61-5.8,8.86-9.87,3.5"/><path d="M51.24,45.59c1.02,1.02,1.54,2.75,1.63,4.16c0.31,4.88,0.72,14.68,0.96,21.75c0.08,2.39,0.15,4.48,0.18,5.95"/><path d="M53.44,47.26c1.2-0.09,10.9-1.83,15.43-2.42c2.55-0.33,3.42,0.67,3.26,3.41c-0.21,3.69-0.26,14.58-0.26,21.62c0,3.54,0,6.11,0,6.32"/><path d="M54.44,59.53c4.06-0.41,11.18-1.28,16.33-1.44"/><path d="M55.1,73.64c4.02-0.49,10.15-1.14,15.67-1.35"/></svg>