<svg><path d="M22.05,15.25c3.58,2.12,9.23,8.71,10.13,12"/><path d="M10.87,36.48c0.74,0.19,3.53,0.22,4.27,0.19c9.07-0.34,18.18-2.17,24.78-2.33c1.23-0.03,3.07,0.09,3.68,0.19"/><path d="M17.18,48.56c0.43,0.12,3.04,0.13,3.47,0.12c4.44-0.14,10.86-1.43,15.34-2.05c0.7-0.1,3.68,0.06,4.04,0.12"/><path d="M16.3,60.83c0.38,0.12,2.71,0.13,3.1,0.12c3.97-0.13,13.43-2.11,17.33-2.09c0.63,0,3.29,0.06,3.6,0.11"/><path d="M15.76,74.9c0.41,0.35,0.88,1.1,1.01,1.56c1.17,4.02,3.17,13.89,4.34,19.79"/><path d="M16.94,76.37c7.2-0.89,14.9-2.1,21.55-3c1.67-0.22,2.68,1.04,2.44,2.06c-0.99,4.25-1.86,8.22-3.62,15.28"/><path d="M20.92,93.05c5.37-0.54,10.68-0.97,18.06-1.81"/><path d="M84.34,13.89c0.08,0.4,0.17,1.04-0.17,1.62c-2.01,3.41-13.54,10.88-29.33,15.46"/><path d="M51.44,30.25c0.45,0.64,0.9,1.48,0.9,2.54c0,36.51-2.96,53.14-11.34,62.46"/><path d="M54.06,43.84c1.69,0.16,3.11,0.06,4.21-0.08c8.98-1.15,22.36-2.9,34.4-3.73c1.82-0.13,2.92,0.2,3.84,0.41"/><path d="M56.94,66.85c0.47,0.48,1.06,1.89,1.16,2.52c1.15,6.88,2.58,16.98,3.7,25.59"/><path d="M58.25,68.71c10.5-1.71,26-3.71,31.16-4.19c2.08-0.19,3.54,1.93,3.32,3.35c-0.94,5.87-2.52,13.93-4.53,22.4"/><path d="M61.73,92.88c7.02-0.63,22.52-2.13,29.92-2.38"/></svg>