<svg><path d="M27.55,13c2.78,1.37,7.18,5.62,7.88,7.75"/><path d="M12.12,31.52c2.63,0.36,5.01,0.5,7.26,0.27c9.52-1,16.91-2.25,24.61-3.32c1.36-0.19,3.42-0.12,4.1,0.02"/><path d="M21.43,43.31c1.29,0.37,3,0.16,4.33,0.08c3.93-0.24,7.93-1.03,11.89-1.64c1.44-0.22,3.18-0.5,4.62-0.25"/><path d="M21.3,56.08c1.18,0.36,2.87,0.17,4.09,0.05c3.67-0.35,8.78-1.59,12.88-2.16c1.26-0.17,2.81-0.48,4.07-0.26"/><path d="M19.51,70.05c0.83,0.79,1.03,2.02,1.29,3.06c0.85,3.33,2.09,8.46,2.96,13.1c0.29,1.54,0.56,3,0.79,4.29"/><path d="M21.36,71.19c6.8-1.19,12.06-2.54,17.53-3.33c2.91-0.42,4.38-0.02,3.74,3.11c-0.73,3.54-1.42,7.4-2.88,13.33"/><path d="M24.85,86.74c4.22-0.43,8.49-0.79,13.9-1.35c1.23-0.13,2.25-0.13,3.32-0.11"/><path d="M53.92,17.46c3.46,2.16,8.95,8.86,9.81,12.22"/><path d="M87.04,13.89c0.09,1.08-0.03,1.57-0.57,2.53c-2.44,4.34-5.35,8.95-10.59,14.98"/><path d="M53.04,36.98c2.59,0.39,4.57,0.42,6.33,0.1c9.5-1.71,20.11-3.02,26.39-3.57c1.67-0.15,3.33-0.3,4.96,0.18"/><path d="M56.02,50.92c2.23,0.45,4.17,0.32,5.73,0.09c6.54-0.96,16.06-2.4,21.5-2.69c1.57-0.08,3.29-0.23,4.81,0.28"/><path d="M49.78,65.74c3.22,0.51,4.88,0.37,7.11,0.12C67.9,64.62,79,63.5,90.39,62.64c2.37-0.18,4.77-0.32,7.08,0.36"/><path d="M71.97,38.6c0.96,0.96,0.99,2.4,0.99,4.17c0,4.97-0.05,34.79-0.07,48.1c0,3.34-0.01,5.65-0.01,6.25"/></svg>