<svg><path d="M24.99,14c2.36,1.5,6.1,6.17,6.7,8.5"/><path d="M11.37,32.83c1.41,0.42,3.07,0.29,4.51,0.17c8.29-0.7,16.95-1.9,23.59-2.81c1.28-0.17,3.22,0.11,3.87,0.23"/><path d="M17.78,47.06c1.05,0.32,2.15,0.35,3.23,0.29c4.11-0.23,10.69-1.59,14.43-1.97c1.31-0.13,2.68-0.13,4.04-0.13"/><path d="M18.58,59.33c1.2,0.36,2.8,0.13,4.04,0.08c3.71-0.16,8.38-0.79,12.92-1.36c1.43-0.18,2.85-0.34,4.3-0.08"/><path d="M17.4,71.9c0.81,0.68,1.33,1.82,1.49,2.87c0.73,4.61,1.4,8.31,2.2,13.18c0.22,1.33,0.43,2.62,0.63,3.8"/><path d="M19.64,73.54c6.67-1.14,13.31-2.75,19.46-3.66c1.85-0.27,2.96,1.26,2.7,2.51c-0.89,4.19-2.46,8.16-4.05,14.07"/><path d="M22.49,89.55c4.76-0.55,8.86-1.17,14.02-1.72c0.93-0.1,1.91,0.04,2.97-0.09"/><path d="M81.75,13.75c-0.12,1.25-0.79,2.39-1.66,3.06c-4.84,3.69-15.34,9.94-29.34,14.94"/><path d="M45.39,45.8c1.55,0.34,4.36,0.62,6.73,0.34C62.8,44.9,76.37,43.07,91,42.23c2.28-0.13,4.49-0.01,6.75,0.29"/><path d="M68.87,27.19c1.4,1.4,1.85,3.06,1.85,4.88c0,1.44-0.21,28.18-0.21,35.16"/><path d="M52.07,67.83c0.93,1.17,1.22,1.76,1.35,2.34c1.38,6.2,2.13,12.33,3.08,20.33c0.13,1.14,0.27,2.31,0.42,3.53"/><path d="M54.62,69.29c12.9-1.37,25.41-2.73,32.68-3.31c2.94-0.24,3.79,2.4,3.37,3.8c-1.47,4.87-3.03,11.64-5.04,18.35"/><path d="M56.64,91.74c7.5-0.57,16.99-1.13,27.14-1.93c1.37-0.11,2.75-0.22,4.13-0.34"/></svg>