<svg><path d="M23.55,14c2.52,1.5,6.5,6.17,7.13,8.5"/><path d="M12.12,32.33c1.84,0.6,4.15,0.47,6.01,0.24c7.75-0.98,13.22-1.84,19.32-2.93c1.52-0.27,3.11-0.53,4.65-0.22"/><path d="M18.18,45.81c1.41,0.4,3.39,0.24,4.82,0.05c4.62-0.61,7.15-1.34,11.73-2.23c1.12-0.22,2.15-0.33,3.29-0.13"/><path d="M19.05,58.08c1.19,0.36,2.85,0.15,4.08,0.07c3.64-0.24,8.54-1.14,12.24-1.68c1-0.14,2.2-0.43,3.21-0.25"/><path d="M17.26,70.65c0.85,0.79,1.08,2.01,1.3,3.08c0.73,3.52,1.31,8.66,2.17,13.47c0.22,1.23,0.43,2.42,0.64,3.54"/><path d="M19.19,71.87c7.31-1.38,10.62-2,16.3-2.79c3.4-0.48,4.18,0.54,3.52,3.78c-0.72,3.48-1.21,6.88-2.7,12.86"/><path d="M22.17,88.3c5.2-0.8,7.56-0.96,12.85-1.69c0.9-0.12,1.88-0.25,2.96-0.37"/><path d="M69.01,12.24c1.25,1.25,1.6,2.51,1.6,4.23c0,4.26-0.11,6.35-0.11,11.28"/><path d="M48,30.31c2.25,0.16,4.47,0.3,6.74,0.08c8.48-0.82,26.09-2.68,35.9-3.27c1.89-0.12,4.05-0.36,5.87,0.31"/><path d="M67.98,32.37c0.48,1.23-0.02,2.61-0.99,3.97c-3.48,4.91-4.82,7.05-10.05,12.94c-1.3,1.47-1.43,2.59,0.5,3.32c4.87,1.82,6.1,2.77,10.43,5.02"/><path d="M82.27,40c0.15,1.38-0.46,2.46-1.21,3.54C73.52,54.35,64.43,64.03,48.5,74"/><path d="M85.74,59c0.1,0.88-0.51,2.35-1.21,3.27c-9.04,12-19.9,23.48-38.53,33.48"/><path d="M76.25,76.88C82.51,79.98,92.43,89.66,94,94.5"/></svg>