<svg><path d="M28,14.25c3.61,3.23,7.48,8.88,8,10.5"/><path d="M47.75,12c1.64,2,5.59,7.25,6.25,10.5"/><path d="M75.12,10.25c0.13,1.12,0,2.12-0.65,3.1c-2.88,4.29-7.97,10.02-11.22,13.15"/><path d="M12,33.2c3.69,1.32,8.94,0.57,12.76,0.11c13.49-1.65,39.74-3.93,56.87-5.1c3.56-0.24,7.61-0.17,11.12,0.59"/><path d="M40.48,34.39c0.08,0.71-0.1,2.44-0.66,3.35c-4.06,6.51-14.06,18.01-28,26.73"/><path d="M61.75,31c3.4,2.96,16.38,15.22,23.97,21.94c2.56,2.26,6.24,4.54,8.53,5.81"/><path d="M50.38,39.75c2.25,1.32,5.81,5.44,6.37,7.5"/><path d="M33.37,54.9c2.23,0.79,4.68,0.83,7,0.66c9.88-0.71,20.62-2.82,28.26-3.52c1.4-0.13,3.51-0.11,4.21,0.04"/><path d="M39.48,64.06c1.39,0.6,3.41,0.48,4.9,0.34c5.52-0.51,11.91-1.85,18.38-2.67c1.52-0.19,3.12-0.45,4.64-0.23"/><path d="M39.83,72.83c1.42,0.36,3.08,0.41,4.55,0.33c4.75-0.25,13.53-1.54,18.88-2.4c1.6-0.25,3.45-0.54,5.06-0.29"/><path d="M35.39,81.64c0.8,0.8,0.98,1.63,1.13,2.44c0.73,3.92,1.55,6.71,2.39,10.93c0.2,1.02,0.4,2.02,0.59,2.98"/><path d="M37.56,83.94c7.04-0.86,21.71-2.72,28.7-3.6c3.06-0.39,4.36,0.05,3.41,3.27c-0.84,2.88-1.44,4.62-2.75,9.47"/><path d="M40.47,96.42c3.9-0.36,16.46-1.27,24.29-1.97c1.81-0.16,3.36-0.19,4.65-0.19"/></svg>