<svg><path d="M19.55,13.25c3.75,1.77,9.69,7.25,10.63,10"/><path d="M10.12,32.08c0.71,0.23,3.4,0.27,4.1,0.23c8.73-0.42,17.28-1.56,23.83-2.87c1.16-0.23,2.95,0.11,3.54,0.23"/><path d="M15.68,43.06c0.43,0.12,3.04,0.13,3.47,0.12c4.44-0.14,8.86-0.93,13.34-1.55c0.7-0.1,3.68,0.06,4.04,0.12"/><path d="M15.3,56.33c0.38,0.12,2.71,0.13,3.1,0.12c3.97-0.13,10.93-2.11,14.83-2.09c0.63,0,3.29,0.06,3.6,0.11"/><path d="M14.51,70.4c0.39,0.36,0.83,1.15,0.96,1.63c1.11,4.21,1.52,13.54,2.64,19.71"/><path d="M15.44,72.37c7.2-0.89,13.9-2.6,20.55-3.5c1.67-0.22,2.68,1.04,2.44,2.06c-0.99,4.25-2.36,9.72-4.12,16.78"/><path d="M18.92,89.55C24.3,89,29.6,88.57,36.98,87.74"/><path d="M84.08,17.75c0.25,0.91-0.39,2.08-0.67,2.29c-6.36,4.52-14.76,8.56-31.49,10.77"/><path d="M47.8,41.39c0.87,0.32,2.45,0.36,3.32,0.32c9.01-0.37,23.63-2.97,34.84-3.68c1.44-0.09,2.31,0.15,3.03,0.31"/><path d="M42.66,54.99c0.79,0.22,2.9,0.73,5.01,0.68c7.92-0.23,27.02-2.92,43.66-3.15c2.11-0.03,3.97,0.23,5.29,0.45"/><path d="M66.81,13.25c1.08,0.48,1.94,3.56,1.94,4.56c0,3.84,0.36,76.19,0.15,82.19"/><path d="M68.51,54.69c-4.72,9.96-16.94,25.05-26.76,30.69"/><path d="M69.06,54.45c3.32,5.91,17.33,22.78,22.27,27.72c1.23,1.23,2.22,1.86,3.42,2.23"/></svg>