<svg><path d="M17.05,15c3.75,1.99,9.69,8.16,10.63,11.25"/><path d="M8.12,34.08c0.71,0.23,3.4,0.27,4.1,0.23c8.73-0.42,17.48-2.17,23.83-2.37c1.18-0.04,2.95,0.11,3.54,0.23"/><path d="M12.68,46.06c0.43,0.12,3.04,0.13,3.47,0.12c4.44-0.14,8.86-1.43,13.34-2.05c0.7-0.1,3.68,0.06,4.04,0.12"/><path d="M13.3,58.33c0.38,0.12,2.71,0.13,3.1,0.12c3.97-0.13,10.36-1.7,14.83-2.09c0.63-0.06,3.29,0.06,3.6,0.11"/><path d="M12.01,73.19c0.38,0.33,0.8,1.04,0.92,1.47c1.07,3.77,2.9,13.05,3.97,18.59"/><path d="M13.39,74.51c6.92-0.8,13.33-2.33,19.71-3.14c1.6-0.2,2.57,0.93,2.34,1.85c-0.95,3.81-1.31,7.82-3,14.17"/><path d="M17.21,90.43c5.16-0.49,9.75-1.37,16.83-2.12"/><path d="M52.49,21.86c0.03,0.56,0.11,1.6-0.06,2.24c-2.06,7.85-5.1,15.06-10.46,21.39"/><path d="M50.99,34.78c0.8,0.36,2.86,0.4,3.67,0.36c8.34-0.41,19.59-2.89,29.73-4.07c1.33-0.16,2.14,0.17,2.8,0.35"/><path d="M40.39,54.28c0.8,0.29,2.94,0.49,5.06,0.27c8.45-0.86,28.47-2.56,43.12-3.99c2.12-0.21,4.01,0.29,5.34,0.57"/><path d="M63.98,14.25c1.14,0.49,1.82,2.2,2.05,3.17s0,73.97-0.23,80.08"/><path d="M65.75,52.54c-4.6,11.91-16.49,29.97-26.05,36.71"/><path d="M66.35,53.81c5.4,9.44,17.9,24.69,25.81,30.29c1.59,1.12,2.53,2.04,3.89,2.44"/></svg>