<svg><path d="M21.38,15.62c3.02,1.88,7.8,7.71,8.56,10.62"/><path d="M10.62,35.33c0.71,0.23,3.4,0.29,4.1,0.23c6.53-0.56,15.9-2.19,21.83-3.37c1.16-0.23,2.7-0.14,3.29-0.02"/><path d="M15.68,47.81c1.27,0.2,3.16,0.41,4.45,0.24c4.74-0.65,10.03-1.6,14.1-2.42c1.01-0.2,2.89-0.38,3.79-0.13"/><path d="M16.3,60.58c1.52,0.26,2.96,0.39,4.47,0.18c4.89-0.68,9.16-1.83,13.71-2.66c1.27-0.23,2.27-0.23,3.1-0.14"/><path d="M15.51,73.53c0.98,0.98,1.23,2.03,1.42,3.07c0.61,3.35,1.17,8.72,1.86,13.37c0.24,1.64,0.48,3.2,0.71,4.54"/><path d="M17.77,75.4C23.8,74.03,28.9,72.96,34,72.14c2.58-0.41,4.29-0.19,3.71,2.75c-0.72,3.64-1.36,7.2-2.77,13.23"/><path d="M19.77,91.02c3.94-0.42,8.94-1.03,14-1.59c1.01-0.11,2.06-0.23,3.14-0.36"/><path d="M47.59,33.27c2.53,0.6,5.03,0.39,7.29,0.08C64.88,32,76,30.62,86.63,29.8c2.02-0.16,4.16-0.12,6.14,0.3"/><path d="M67.12,11.25c1,1,1.36,2.39,1.36,3.81c0,5.28,0.06,27.19,0.06,34.53"/><path d="M50.91,51.51c1.9,0.58,4.27,0.3,6.21,0.09c9.27-1.03,18-2.22,27.25-2.86c1.52-0.1,3.04-0.05,4.54,0.22"/><path d="M48.75,74.5c0.26,2.71-2.64,14.66-4.75,19.18"/><path d="M54.93,67.65C61,87.38,72.88,93.5,90.68,94.49c5.39,0.3,5.35-2.15,2.42-6.23"/><path d="M68.61,64.94c2.14,4.93,5.02,6.01,5.93,2.4"/><path d="M85.78,60.11c4.59,3.52,8.09,7.27,10.97,12.46"/></svg>