<svg><path d="M26,15.25c2.82,1.41,7.29,5.8,8,8"/><path d="M12.37,32.97c1.25,0.28,2.88,0.66,4.36,0.53c7.02-0.59,17.78-1.75,25.95-3c1.52-0.23,3.57-0.38,5.16,0.03"/><path d="M18.73,45.76c0.38,0.18,2.71,0.2,3.1,0.18c3.97-0.21,9.79-1.19,14.46-2.31c1.67-0.4,2.71-0.38,3.86-0.08"/><path d="M18.73,58.89c0.89,0.23,1.89,0.36,3.35,0.15c3.89-0.54,10.71-1.51,14.85-2.29c0.7-0.13,1.82-0.26,2.61-0.1"/><path d="M17.14,71.9c0.63,0.62,1.12,1.65,1.23,2.57c0.63,5.03,1.51,10.28,2.23,15.59c0.14,1.03,0.27,2.02,0.41,2.93"/><path d="M19.37,73.6c5.67-0.94,15.47-2.73,20.36-3.48c1.49-0.22,2.39,1.05,2.18,2.08c-0.71,3.44-2.27,9.75-3.23,13.89"/><path d="M21.47,89.02c3.95-0.45,10.71-1.19,16.28-1.61c1.21-0.09,2.36-0.17,3.41-0.22"/><path d="M51.79,17.49c1.38,0.26,3.91,0.28,5.27,0.15C63.88,17,72.62,15.62,80,15.32c2.3-0.1,3.67,0.04,4.81,0.15"/><path d="M67.75,20.25c0.37,1.25,0.5,2.38,0.23,3.75c-0.75,3.78-6.03,23.83-7.96,31.58"/><path d="M52.18,36.96c1.82,0.66,4.17,0.95,5.84,0.66c8.48-1.5,16.13-3.06,22.74-4.1c2.49-0.39,4.05,1.27,3.71,2.93c-0.6,2.93-2.48,11.43-3.74,17.86"/><path d="M46.33,58.46c1.13,0.24,3.94,0.2,5.07,0.08c12.34-1.29,19.11-2.39,40.88-4.02c1.88-0.14,3.75-0.02,4.69,0.09"/><path d="M52.5,69.88c0.93,0.93,1.42,2.28,1.54,3.31c0.71,6.06,1.42,12.65,2.06,19.3c0.15,1.5,0.28,2.44,0.4,3.75"/><path d="M54.99,71.67c9.47-1.45,23.75-3.41,28.85-3.9c2.14-0.21,3.28,0.98,2.86,2.93c-0.84,3.88-3.08,12.57-4.39,17.58"/><path d="M57.2,91.49c5.94-0.55,14.67-1.24,23.54-1.76c1.3-0.08,2.63-0.13,3.97-0.2"/></svg>