<svg><path d="M19.3,14c2.52,1.5,6.5,6.17,7.13,8.5"/><path d="M7.62,32.83c1.48,0.48,3.37,0.31,4.9,0.15c6.6-0.68,15.1-2.23,21.14-3.15c1.43-0.22,3-0.44,4.44-0.16"/><path d="M13.68,46.06c1.32,0.38,3.01,0.2,4.35-0.04c4.52-0.82,8.16-1.6,12.2-2.27c1.25-0.21,2.54-0.22,3.79-0.01"/><path d="M14.3,58.08c1.13,0.35,3.02,0.18,4.2,0.05c3.5-0.38,8.2-1.29,11.62-1.66c1.22-0.13,2.63-0.35,3.96-0.25"/><path d="M13.01,70.51c0.87,0.87,1.24,2.12,1.39,2.86c0.71,3.4,1.37,8.69,2.03,13.32c0.2,1.38,0.37,2.68,0.52,3.82"/><path d="M14.76,71.62c5.75-0.76,11.54-1.95,16.88-2.78c2.59-0.41,3.86,0.17,3.3,2.9c-0.73,3.56-1.33,7.3-2.71,13.2"/><path d="M17.47,87.81c4.01-0.43,8.73-1.29,13.83-1.87c0.84-0.1,1.83-0.19,2.63-0.06"/><path d="M85.84,15.25c0.06,0.39-0.23,1.41-0.62,1.82c-4.84,5.06-9.47,8.81-21.51,14.48"/><path d="M77.17,28c0.79,0.79,1.22,1.75,1.22,2.86c0,1.03,0.11,30.8,0.11,37.89"/><path d="M79.48,46.06c4.05-0.5,7.06-1.14,11.14-1.57c1.02-0.11,2.23-0.38,3.24-0.11"/><path d="M65.7,47.93c0.87,0.87,1.22,2.12,1.22,2.86c0,2.46,0.04,13.09,0.04,18.83"/><path d="M62.02,70.71c1.73,0.29,3.61,0.29,5.09,0.15c8.26-0.74,18.56-1.9,24.6-2.24c1.22-0.07,3.33,0.11,4.03,0.29"/><path d="M38.21,36.12c1.07,0.56,3.04,0.44,4.55,0.06c1.5-0.38,5.16-1.98,8.38-4c1.48-0.93,2.86-0.43,2.15,1.69c-0.84,2.51-5.17,14.75-7.74,20.89"/><path d="M45.46,55.26C49,54,52.6,52.95,54.31,52.05c2.44-1.3,4.4-1.08,3.6,2.26C54.75,67.5,50,83,37.68,92.25"/><path d="M39.5,64.75c4.03-0.17,22.62,14.12,42.76,24.49c3.67,1.89,8.36,3.64,12.49,4.76"/></svg>