<svg><path d="M21.8,14.75c2.52,1.5,6.25,6.42,6.88,8.75"/><path d="M11.12,32.68c1.57,0.68,4.17,0.51,5.77,0.36c7.18-0.69,14.21-2.76,19.03-3.74c1.04-0.21,2.4-0.12,2.92,0.02"/><path d="M15.93,46.06c1.4,0.4,3.03,0.19,4.47,0c5.06-0.65,10.31-2.22,13.34-2.68c0.99-0.15,2.28-0.56,3.29-0.38"/><path d="M17.55,58.13c0.98,0.37,2.79,0.52,3.83,0.33c4.37-0.83,9.12-2.26,12.27-2.92c0.91-0.19,2.26-0.57,3.19-0.37"/><path d="M16.51,73.28c0.77,0.81,0.93,2.05,1.12,3.08c0.62,3.3,1.31,8.55,1.96,13.14c0.24,1.72,0.48,3.36,0.71,4.76"/><path d="M18.54,74.9c6.8-1.51,11.18-2.72,16.6-3.74c2.78-0.52,4.17,0,3.5,2.98c-0.78,3.51-1.59,7.58-2.98,13.46"/><path d="M20.83,91.27c3.74-0.4,8.04-1.34,12.88-2.11c1.35-0.21,2.75-0.42,4.19-0.59"/><path d="M79.8,11.75c-0.17,0.88-0.92,1.69-1.79,2.14c-5.57,2.89-14.3,5.81-25.41,8.55"/><path d="M45.61,33.29c1.64,0.68,5.01,0.3,6.78,0.05c8.85-1.25,23.86-3.59,34.38-4.73c2.09-0.23,4.53-0.24,6.57,0.27"/><path d="M68.07,20.7c0.87,0.87,1.2,1.93,1.2,3.16c0,0.61,0.07,11.66,0.07,19.16c0,2.32-0.06,4.29-0.09,5.48"/><path d="M66.6,31.32c0,0.81-0.64,2.63-1.53,3.87C60,42.25,54.53,48.63,45.23,53.86"/><path d="M71.62,32.12c2.58,1.82,10.41,8.31,16.12,12.32c1.87,1.31,3.51,2.31,6.02,3.1"/><path d="M65.01,58.27c0.41,0.76,0.4,2.01-0.04,3.2C61.25,71.5,56.25,84.5,42.85,95.17"/><path d="M54.1,54.95c1.7,0.78,4.38,0.74,6.19,0.39c6.96-1.34,11.21-2.22,18.1-3.56c1.81-0.35,2.21,1.48,1.71,2.74C72.5,73.75,69,69,88.07,65.62c2.66-0.47,3.43,1.63,2.9,3.73c-1.83,7.39-6.44,18.84-11.72,24.97c-3.15,3.65-5.63,2.3-7.87-0.85"/></svg>