<svg><path d="M16.75,24.5c2.03,0.24,3.97,0.38,6.01,0.11c7.36-0.98,13.49-1.98,22.51-3.19c1.26-0.17,2.48-0.14,3.65-0.33"/><path d="M35.15,11.08c1.07,1.07,1.21,2.42,1.21,3.84c0,8.07-0.11,24.07-0.11,28.2c0,10.64-5.01,3.24-6.26,2.2"/><path d="M12.25,41.34c1,0.79,2.55,1.25,4.75,0.2c6.88-3.29,15.25-7.16,25.25-12.29"/><path d="M81.36,8.75c-0.24,1.12-0.93,1.89-1.65,2.29c-3.69,2.04-6.97,4.01-16.67,7.17"/><path d="M58.68,18.05c0.76,0.76,1.08,1.71,1.08,2.67c0,10.15,0.25,19.03-3.25,26.19"/><path d="M62.82,26.61c1.28-0.09,2.69-0.21,4.19-0.34c8.65-0.77,19.26-1.9,26.59-2.64c1.17-0.12,3.21-0.18,3.95,0"/><path d="M79.2,27.88c0.9,0.9,1.21,2,1.21,3.26c0,4.55,0.12,7.46,0.08,12.87c-0.01,1.27-0.02,2.67-0.02,4.25"/><path d="M46.12,42.88c2.16,1.3,5.58,5.35,6.12,7.38"/><path d="M13.88,58.23c3.75,0.9,8.03,0.74,11.62,0.41c16.56-1.5,43.71-3.41,58.13-4.12c3.84-0.19,7.71-0.26,11.5,0.55"/><path d="M39.88,66.4c1.69,0.64,4.15,0.45,5.9,0.31c5.82-0.46,14.74-1.78,19.1-2.27c1.87-0.21,4.01-0.37,5.88,0.05"/><path d="M38.38,75.65c1.56,0.59,3.97,0.71,5.62,0.57c6.28-0.53,15.9-1.7,21.26-2.1C67,74,69.28,73.6,71.01,73.99"/><path d="M35.25,84.27c0.8,0.8,1.42,1.84,1.69,2.76c1.06,3.72,1.54,6.25,2.48,10.99c0.2,1.01,0.43,2.09,0.72,3.23"/><path d="M37.63,85.96c11.12-1.57,23.09-2.79,32.73-3.57c3.47-0.28,5.01,2.1,4.23,4.47c-1.04,3.17-1.72,4.56-3.7,9.27"/><path d="M41.12,98.77c6.83-0.26,18.13-1.08,28.14-1.48c1.76-0.07,3.48-0.14,5.13-0.21"/></svg>