<svg><path d="M22.8,14.5c2.16,1.41,5.59,5.8,6.13,8"/><path d="M10.12,32.83c1.44,0.47,3.3,0.33,4.79,0.15c8.15-0.93,15.89-2.25,22.15-3.04c1.17-0.15,2.95-0.14,3.54-0.02"/><path d="M16.18,46.06c1.31,0.37,2.88,0.14,4.19-0.1c3.96-0.72,7.85-1.36,11.63-1.94c1.61-0.25,3.4-0.55,5.02-0.27"/><path d="M16.8,58.33c1.13,0.35,2.66,0.17,3.83,0.04c3.92-0.45,8.84-1.36,12.25-1.89c1.43-0.22,2.52-0.52,3.96-0.26"/><path d="M15.76,70.67c0.78,0.78,1.24,1.92,1.45,2.93c0.65,3.2,1.27,8.19,1.89,12.88c0.19,1.46,0.28,2.83,0.5,4.05"/><path d="M18.05,71.74c6.63-1.03,10.77-1.72,16.05-2.46c2.51-0.35,3.91,0.12,3.32,2.83c-0.76,3.49-1.37,7.32-2.8,13.04"/><path d="M20.63,87.94c3.91-0.39,7.28-1.05,12.12-1.68c1.15-0.15,2.35-0.3,3.63-0.44"/><path d="M48.15,33.75c0.86,0.86,1.26,2.25,1.26,3.49c0,18.01,0.09,39.76-9.35,55.97"/><path d="M49.43,35.2c1.03,0.54,2.93,0.39,3.96,0.29c8.07-0.79,27.37-3.35,33.24-4.03c1.83-0.21,4.01-0.48,5.8,0.08"/><path d="M50.35,56.51c3.9-0.76,10.62-2.16,12.01-2.27c1.61-0.12,3.18,0.93,2.94,3.42c-0.21,2.17-1.59,16-4.23,24.05c-1.57,4.79-3.62,4.99-6.08,1.17"/><path d="M65.99,9.5c1.22,1.87,1.67,2.39,1.98,6.42C70.38,46.75,79,79.75,94.27,94.14c4.53,4.26,4.12,0.8,3.51-7.5"/><path d="M88.84,44.14c0.41,1.11,0.44,2.51,0.1,4.17c-2.31,11.44-8.69,34.81-26.59,45.65"/><path d="M81.88,13.12c2.45,1.77,6.38,5.83,7.52,8.88"/></svg>