<svg><path d="M20.8,16c3.13,1.72,8.09,7.07,8.88,9.75"/><path d="M9.62,35.08c0.71,0.23,3.4,0.27,4.1,0.23c8.73-0.42,17.48-3.17,23.83-3.37c1.18-0.04,2.95,0.11,3.54,0.23"/><path d="M16.18,48.56c0.43,0.12,3.04,0.13,3.47,0.12c4.44-0.14,9.86-1.43,14.34-2.05c0.7-0.1,2.68-0.44,3.04-0.38"/><path d="M15.8,61.33c0.38,0.12,2.71,0.13,3.1,0.12c3.97-0.13,10.36-1.2,15.33-2.09c0.62-0.11,2.79,0.06,3.1,0.11"/><path d="M15.01,74.69c0.36,0.33,0.76,1.04,0.87,1.47c1.01,3.77,2.75,12.55,3.77,18.09"/><path d="M16.31,76.01c6.56-0.8,13.6-3.33,19.65-4.14c1.52-0.2,2.43,0.93,2.22,1.85c-0.9,3.81-1.74,8.32-3.34,14.67"/><path d="M19.94,90.93c4.89-0.49,9.72-0.87,16.43-1.62"/><path d="M48.85,18.13c1.06,0.45,2.5,0.86,3.71,0.82c1.38-0.05,22.02-4.51,29.01-4.96c2.9-0.19,2.68,1.68,1.37,3.05c-0.99,1.03-11.69,10.2-15.45,12.99"/><path d="M59.02,24.03c2.89,1.57,10.38,7.58,11.74,11.68"/><path d="M49.07,40.02c0.55,0.68,0.91,1.36,1.09,2.05c0.18,0.68,0.18,51,0.18,52.53"/><path d="M50.26,41.36c6.28-0.28,36.91-4.57,38.58-4.76c2.98-0.34,4.1,2.22,3.73,3.24c-0.36,0.98-0.56,36.93-0.56,50.74c0,9.99-5.83,1.47-7.02,0.88"/><path d="M51.26,54.68c8.31-0.6,32.29-2.58,39-3.09"/><path d="M50.99,69.56c5.96-0.51,32.89-3.14,39.78-3.48"/><path d="M68.91,40.73c0.72,0.33,1.15,1.48,1.3,2.14c0.14,0.66,0,44.81-0.14,48.92"/></svg>