<svg><path d="M21.3,15c3.84,2.07,9.92,8.52,10.88,11.75"/><path d="M10.62,36.58c0.73,0.23,3.5,0.27,4.23,0.23c9-0.42,17.9-2.06,24.59-2.87c1.21-0.15,3.04,0.11,3.65,0.23"/><path d="M17.18,48.06c0.43,0.12,3.04,0.13,3.47,0.12c4.44-0.14,9.86-1.43,14.34-2.05c0.7-0.1,3.68,0.06,4.04,0.12"/><path d="M17.8,60.83c0.38,0.12,2.71,0.13,3.1,0.12c3.97-0.13,12.11-1.2,16.33-2.09c0.62-0.13,3.29,0.06,3.6,0.11"/><path d="M17.51,74.9c0.39,0.36,0.83,1.15,0.96,1.63c1.11,4.21,2.52,14.04,3.64,20.21"/><path d="M18.94,76.87c7.2-0.89,13.4-2.6,20.05-3.5c1.67-0.22,2.68,1.04,2.44,2.06c-0.99,4.25-0.86,9.22-2.62,16.28"/><path d="M22.42,94.05c5.37-0.54,10.68-0.97,18.06-1.81"/><path d="M57.58,16.88c0.03,0.64,0.05,1.65-0.05,2.57c-0.61,5.43-4.14,17.34-8.96,24.62"/><path d="M57.63,31.82c0.69,0.35,2.96,0.43,3.65,0.35c8.48-0.97,17.11-2.78,24.9-3.09c1.15-0.05,2.31-0.08,3.92,0.34"/><path d="M45.33,52.12c1.45,0.65,4.12,0.76,5.57,0.65c15.12-1.09,20.15-2.59,42.94-3.74c2.42-0.12,3.87,0.31,5.08,0.64"/><path d="M70.09,12.88c0.66,0.49,1.68,1.87,1.68,4.63c0,0.99-0.08,37.18-0.22,43.28"/><path d="M54.43,69.37c0.37,0.45,0.75,0.82,0.91,1.38c1.28,4.42,2.42,18.03,3.29,25.97"/><path d="M56,71.4c9.9-1.02,27.12-2.7,31.75-3.53c2-0.36,3.75,1.39,3.49,3.65c-0.65,5.62-2.06,11.73-4.23,19.75"/><path d="M59.37,93.26c8.58-0.6,23.55-1.24,29.71-1.78"/></svg>