<svg><path d="M21.55,14.75c3.05,1.94,7.87,7.98,8.63,11"/><path d="M9.62,33.08c0.71,0.23,3.4,0.27,4.1,0.23c8.73-0.42,16.98-2.17,23.33-2.37c1.18-0.04,2.95,0.11,3.54,0.23"/><path d="M15.18,46.06c0.43,0.12,3.04,0.13,3.47,0.12c4.44-0.14,9.86-0.93,14.34-1.55c0.7-0.1,3.68,0.06,4.04,0.12"/><path d="M15.8,60.33c0.38,0.12,2.71,0.13,3.1,0.12c3.97-0.13,10.61-1.45,14.83-2.09c0.63-0.1,3.29,0.06,3.6,0.11"/><path d="M13.51,73.9c0.39,0.36,0.83,1.15,0.96,1.63c1.11,4.21,2.52,11.54,3.64,17.71"/><path d="M14.94,75.87c9.56-1.87,12.9-3.1,19.55-4c1.67-0.22,2.68,1.04,2.44,2.06c-0.99,4.25-1.36,7.22-3.12,14.28"/><path d="M17.92,91.05c5.37-0.54,10.68-1.47,18.06-2.31"/><path d="M44.07,39.38c1.12,0.52,3.16,0.69,4.28,0.52c7.9-1.15,27.9-6.15,37.13-6.94c1.85-0.16,2.98,0.25,3.91,0.51"/><path d="M39.95,64.35c0.7,0.31,1.97,0.36,2.67,0.31c7.24-0.52,16.01-3.33,24.03-4.51c1.15-0.17,1.86,0.15,2.44,0.31"/><path d="M49.87,53.14c0.36,1.06,0.9,2.06,0.9,3.54C50.75,67.25,51,77,43.8,87.6"/><path d="M59.75,48.99c0.5,1.01,1.13,2.28,1.23,2.85c0.09,0.58,0,30.05-0.1,33.65"/><path d="M63.67,14.96c1.19,1.71,1.63,2.19,1.93,5.87C68,49.75,76.25,79.5,92.55,92.28c4.66,3.65,4.02,0.73,3.42-6.85"/><path d="M87.08,46.76c0.07,1.07,0.27,2.78-0.14,4.28C84,61.75,77.25,81.25,61.96,92.99"/><path d="M78.61,17.25c2.46,1.69,6.39,5.55,7.53,8.44"/></svg>