<svg><path d="M22.38,14.75c2.25,1.63,5.81,6.71,6.37,9.25"/><path d="M10.37,33.08c1.61,0.48,3.62,0.35,5.27,0.14c5.96-0.76,13.52-1.42,20.1-2.38c1.5-0.22,3.09-0.43,4.6-0.16"/><path d="M16.23,46.31c1.17,0.37,2.73,0.18,3.93-0.01c3.99-0.62,8.33-1.2,11.58-1.97c1.35-0.32,3.26-0.58,4.65-0.58"/><path d="M16.73,58.58c1.02,0.35,2.46,0.15,3.53,0.04c3.8-0.4,9.57-1.17,12.55-1.77c1.45-0.29,2.94-0.48,4.22-0.14"/><path d="M15.64,70.4c0.71,0.61,1.08,1.37,1.12,2.29c0.79,3.76,1.71,9.85,2.52,15.05c0.16,1.05,0.32,2.06,0.48,3"/><path d="M17.75,72.05c6.09-0.91,11.59-1.7,17.42-2.67c1.7-0.28,2.73,1.3,2.49,2.58c-0.85,4.46-1.61,6.91-2.88,12.78"/><path d="M20.47,88.3c4.06-0.46,7.76-1.19,12.79-1.92c0.92-0.13,1.88-0.26,2.9-0.39"/><path d="M46.37,26.71c2.31,0.59,4.67,0.42,7,0.15c9.97-1.14,21.82-2.23,29.77-3.06c2.36-0.25,4.38-0.21,6.71,0.14"/><path d="M65.76,13.25c1.06,1.06,1.59,2.08,1.59,3.25c0,8.5-0.07,17.03-0.19,20.46"/><path d="M52.53,38.58c2.22,0.42,4.15,0.3,5.98,0.08C64,38,71.21,37.1,78,36.47c1.61-0.15,3.63-0.29,5.23,0.04"/><path d="M46.14,48.1c-0.11,3.93-1.7,12-2.6,14.35"/><path d="M47,49.96c11.42-1.27,28-3.71,41.35-4.28c9.15-0.39,0.43,7.14-0.74,8.35"/><path d="M59.49,59.25c0.5,1.52,0.71,3.09,0.29,4.83c-2.76,11.61-6.54,22.94-15.26,30.61"/><path d="M71.64,56.26c1.11,1.24,1.65,2.67,1.69,4.37c0.11,4.62-0.13,16.99-0.13,24.62c0,9.5,0.8,10.52,11.3,10.52c11,0,11.38-1.02,11.38-7.31"/></svg>