<svg><path d="M22.88,16.75c3.13,1.41,8.09,5.8,8.87,8"/><path d="M11.37,35.58c0.63,0.23,3.04,0.27,3.67,0.23c7.8-0.42,18.97-3.17,24.64-3.37c1.05-0.04,2.64,0.11,3.16,0.23"/><path d="M18.73,49.52c0.36,0.12,2.58,0.13,2.95,0.12c3.78-0.13,9.32-1.96,13.04-1.95c0.6,0,3.13,0.05,3.43,0.11"/><path d="M19.23,63.33c0.34,0.12,2.42,0.13,2.77,0.12c3.55-0.13,9-1.45,13.31-2.59c0.55-0.15,2.94,0.06,3.22,0.11"/><path d="M15.64,76.9c0.35,0.36,0.75,0.65,0.86,1.13c0.99,4.21,2.75,12.04,3.75,18.21"/><path d="M17.81,78.87c6.44-0.89,12.48-2.6,18.42-3.5c1.49-0.22,2.39,1.04,2.18,2.06c-0.89,4.25-1.66,7.22-3.24,14.28"/><path d="M20.97,94.05c4.8-0.54,9.6-1.47,16.19-2.31"/><path d="M60.62,14.7c0.75,0.48,1.2,2.17,1.34,3.13c0.06,0.41,0.07,14.74,0.05,30.35C61.99,69.16,61.25,86,47.31,97.75"/><path d="M45.3,39.37c1.03,0,2.23,0.24,3.26,0c1.03-0.24,8.19-1.37,12.79-2.41"/><path d="M44.96,55.51c1.03,0,2.23,0.24,3.26,0c1.03-0.24,9.58-2.17,12.32-2.89"/><path d="M44.25,73.97c1.81,0.7,2.73,0.32,4.27-0.57c0.91-0.52,5.81-3.13,11.16-6.1"/><path d="M75.89,13c0.75,0.48,1.19,2.17,1.34,3.13c0.15,0.96,0,75.39-0.15,81.4"/><path d="M78.74,34.86c3.55-0.36,14.62-2.01,17.28-2.61c0.97-0.22,0.29-0.12,1.97-0.12"/><path d="M79,52.96c3.09-0.36,12.06-2.03,14.38-2.63c0.84-0.22,0.26-0.12,1.71-0.12"/><path d="M77.91,71.04c3.25-0.36,13.24-1.29,17.48-2.13c0.9-0.18,1.32-0.12,2.86-0.12"/></svg>