<svg><path d="M22.13,14.5c2.25,1.5,5.81,6.17,6.37,8.5"/><path d="M9.87,32.33c1.54,0.57,3.79,0.24,5.38,0.12c6.8-0.51,14.43-1.89,19.99-2.78c1.59-0.26,3.02-0.35,4.61,0"/><path d="M16.23,45.81c1.22,0.39,3.13,0.42,4.37,0.21c3.53-0.59,7.13-1.52,10.66-2.03c1.4-0.2,3.24-0.5,4.63-0.24"/><path d="M16.98,58.08c1.04,0.36,2.56,0.15,3.64,0.06c3.24-0.26,7.94-1,11.28-1.63c1.32-0.25,2.8-0.57,4.13-0.3"/><path d="M15.39,70.65c0.82,0.75,1.24,1.85,1.48,3.08c0.73,3.67,1.38,8.74,2.15,13.54c0.17,1.02,0.33,2.03,0.48,2.98"/><path d="M17.81,72.12c5.9-0.82,11.05-1.9,16.44-2.77c2.65-0.42,4.02,0.2,3.41,3.03c-0.79,3.62-1.56,6.45-2.98,12.83"/><path d="M20.47,88.05c4.06-0.46,7.75-1.19,12.78-1.91c0.92-0.13,1.89-0.26,2.92-0.39"/><path d="M46.01,18.16c0.98,0.98,1.29,2.31,1.42,3.26c0.6,4.7,1.8,14.44,2.71,22.82c0.15,1.34,0.29,2.65,0.41,3.9"/><path d="M48.54,20.2c6.7-0.61,27.77-2.83,34.21-3.34c3.31-0.26,5.12,1.26,4.41,4.64c-1.11,5.3-2.81,13.65-4.34,19.77c-0.37,1.48-0.73,2.83-1.08,3.98"/><path d="M49.81,32.5c9.69-1.13,25.94-2.75,34.51-3.3"/><path d="M51.53,45.13c4.88-0.48,23.63-1.96,29.72-2.38"/><path d="M42.02,58.19c3.11,0.56,5.04,0.57,7.73,0.31c10.11-0.96,25.31-1.98,36.13-2.49c2.25-0.1,4.19-0.21,6.36,0.33"/><path d="M64.78,20.35c0.87,0.87,1.23,2.15,1.23,3.14c0,3.13,0.04,48.6,0.05,66.51c0,2.91,0,5.1,0,6.25"/><path d="M62.65,58.49c0,1.14-0.26,2.01-0.7,2.92c-5.11,10.54-15.63,23.71-24.19,29.34"/><path d="M67.38,58.62c5.13,5.94,15.16,17.9,21.1,24.16c1.96,2.07,4.77,4.21,7.65,5.74"/></svg>