<svg><path d="M24.63,14.5c2.51,1.37,6.49,5.62,7.12,7.75"/><path d="M10.87,33.08c0.63,0.23,3.04,0.27,3.67,0.23c7.8-0.42,20.97-3.17,26.64-3.37c1.05-0.04,2.64,0.11,3.16,0.23"/><path d="M18.23,45.56c0.38,0.12,2.71,0.13,3.1,0.12c3.97-0.14,9.8-2.06,13.71-2.05c0.63,0,3.29,0.06,3.61,0.12"/><path d="M18.23,58.83c0.34,0.12,2.42,0.13,2.77,0.12c3.55-0.13,11.82-2.11,15.31-2.09c0.57,0,2.94,0.06,3.22,0.11"/><path d="M17.64,71.4c0.35,0.36,0.75,0.65,0.86,1.13c0.99,4.21,2.25,13.04,3.25,19.21"/><path d="M19.31,72.87c6.44-0.89,12.98-1.6,18.92-2.5c1.49-0.22,2.39,1.04,2.18,2.06c-0.89,4.25-1.66,7.22-3.24,14.28"/><path d="M22.97,89.05c4.8-0.54,9.1-1.47,15.69-2.31"/><path d="M58.63,16c0.17,1.71-0.05,3.94-0.59,5.4c-3.46,9.31-7.85,17.2-15.78,28.53"/><path d="M51.19,37.15c0.63,0.88,1.11,2.8,1.15,4.16c0.37,12.12-0.51,46.63-0.2,52.94"/><path d="M77.69,16.5c0.07,0.92-0.02,2.12-0.24,2.9c-1.44,5-3.26,8.87-6.56,14.96"/><path d="M52.16,37.91c8.84-1.16,35.09-4.46,38.22-5.09"/><path d="M71.98,37.83c0.35,0.45,0.63,1.06,0.63,1.83c0,7.86-0.17,34.08-0.17,45.88"/><path d="M53.14,52.82c6.89-0.94,32-3.19,34.95-3.71"/><path d="M52.3,68.79c7.27-0.8,32.65-3.41,35.77-3.85"/><path d="M52.8,87.68c7.3-1.14,37.56-3.32,40.7-3.95"/></svg>