<svg><path d="M23.38,15.25c2.43,1.52,6.27,6.23,6.87,8.58"/><path d="M10.37,33.77c0.82,0.23,3.19,0.32,4,0.23c7.62-0.75,17.75-2.12,23.37-2.9c1.35-0.19,3.42-0.14,4.1-0.02"/><path d="M17.23,46.63c0.89,0.25,1.75,0.17,2.72,0.12c4.79-0.25,9.29-1,14.54-1.82c0.96-0.15,2.66,0.06,3.02,0.12"/><path d="M17.48,59.27c0.87,0.23,2.01,0.21,3.14,0.12c4.75-0.39,8.88-1.14,13.49-1.87c0.91-0.14,2.49-0.28,3.66-0.14"/><path d="M16.39,72.2c0.8,0.74,1.71,2.17,1.72,3.28c0.79,3.77,1.52,8.81,2.27,13.65c0.12,0.8,0.25,1.59,0.37,2.38"/><path d="M18.56,73.19c6.44-0.9,12.23-1.87,18.17-2.77c1.49-0.22,2.64,1.3,2.43,2.33c-0.89,4.29-1.66,6.28-3.24,13.42"/><path d="M21.47,89.02c4.13-0.47,8.07-1.05,13.28-1.73c0.85-0.11,1.74-0.23,2.67-0.35"/><path d="M48.5,24.88c1.83,2,4.5,7.65,5,9.64"/><path d="M82.95,19c0.05,1-0.34,2.23-0.92,2.99c-1.91,2.51-4.78,4.85-7.69,6.62"/><path d="M63.64,11.25c0.93,0.93,1.16,2.49,1.13,3.19c-1.01,20.93-5.39,32.18-17.01,39.31"/><path d="M63.76,30.83C71.66,38.17,81,45.61,87.28,49.77c2.16,1.43,3.54,2.51,6.09,2.98"/><path d="M48.38,65.38c2.2,2,3.57,6.95,4.17,8.95"/><path d="M83.96,59.4c0.17,0.97-0.19,2.27-0.93,3.14c-1.53,1.83-4.78,4.7-8.5,7.18"/><path d="M64.19,51.38c0.97,0.97,1.34,2.75,1.32,4.06C65.12,78.62,52.38,91.5,38.43,96.5"/><path d="M63.64,71.46c10.74,9.66,18.11,16.29,25.27,21.11c1.95,1.31,3.71,2.18,5.65,2.86"/></svg>