<svg><path d="M21.13,16.25c3.57,2.03,9.23,8.34,10.12,11.5"/><path d="M10.12,37.75c0.68,0.24,3.27,0.28,3.95,0.24c8.39-0.44,18.26-2.77,24.37-2.98c1.14-0.04,2.84,0.12,3.4,0.24"/><path d="M16.73,49.06c0.38,0.12,2.71,0.13,3.1,0.12c3.97-0.14,9.3-1.56,13.21-1.55c0.63,0,3.29,0.06,3.61,0.12"/><path d="M16.23,61.83c0.34,0.12,2.42,0.13,2.77,0.12c3.55-0.13,11.32-1.61,14.81-1.59c0.57,0,2.94,0.06,3.22,0.11"/><path d="M15.14,74.91c0.39,0.4,0.83,0.72,0.96,1.24c1.1,4.62,2.51,15.32,3.62,22.1"/><path d="M16.55,76.71c7.4-1.01,13.77-2.32,20.6-3.34c1.71-0.25,2.75,1.18,2.5,2.34c-1.02,4.82-1.91,10.05-3.72,18.07"/><path d="M20.02,95.15c5.34-0.33,11.12-0.91,18.45-1.43"/><path d="M83.72,12.64c-0.47,1.36-1.32,2.58-1.91,2.87c-7.31,3.49-13.74,6-31.76,9.25"/><path d="M52.45,29.65c0.02,0.34,0.05,0.88-0.04,1.37c-0.54,2.88-3.66,9.21-7.93,13.08"/><path d="M63.53,26.02c2.46,2.12,6.36,8.73,6.98,12.03"/><path d="M79.38,22.27c5.38,2.89,13.9,11.88,15.25,16.37"/><path d="M49.82,43.98c1.43,0.23,2.65,0.61,4.3,0.46c10.04-0.92,21.89-3.27,31.39-3.95c2.33-0.17,2.87,1.6,2.51,3.89c-0.94,5.99-2.43,15.66-3.15,22.98"/><path d="M42.5,57.28c1.9,0.19,3.39,0.56,5.5,0.38c18.4-1.54,30.13-3.16,44.72-3.74c2.33-0.09,4.23,0.39,5.29,0.58"/><path d="M49.47,69.65c1.25,0.2,3.51,0.69,5.01,0.59c13.78-0.98,16.73-1.71,29.26-2.1c2-0.06,3.26,0,4.76,0.2"/><path d="M68.37,44.93c0.48,0.84,1.37,2.75,1.42,5.55c0.23,13.42-0.14,35.3-0.14,39.87c0,9.67-6.96,1.15-7.59,0.28"/></svg>