<svg><path d="M18.25,14.5c3.71,1.81,9.57,7.44,10.5,10.25"/><path d="M9.62,33.33c1.83,0.67,3.98,0.47,5.88,0.35c6.46-0.43,14.64-1.5,20.01-2.04c1.91-0.19,3.75-0.39,5.84-0.22"/><path d="M15.48,45.06c1.3,0.41,3.33,0.39,4.65,0.27c3.68-0.35,9.04-1.4,13.15-2.17c1.16-0.22,1.98-0.38,3.11-0.16"/><path d="M15.48,57.83c1.15,0.39,2.95,0.37,4.14,0.29c3.51-0.24,9.63-1.36,13.78-2.11c1.21-0.22,2.92-0.29,4.13-0.05"/><path d="M13.39,72.65c0.79,0.79,0.99,1.72,1.29,3.2c0.7,3.46,1.41,8.6,2.08,13.19c0.26,1.78,0.51,3.48,0.75,4.96"/><path d="M15.31,74.12c5.79-0.8,12.67-1.86,18.32-2.72c3.35-0.51,4.44,0.26,3.61,3.66c-0.85,3.49-1.47,5.9-2.81,11.91"/><path d="M18.22,89.8c3.81-0.34,9.19-0.87,14.54-1.4c1.4-0.14,2.79-0.28,4.15-0.41"/><path d="M66.29,11.34c0.93,0.93,1.34,2.03,1.34,3.67c0,3.13-0.01,3.4-0.01,6.23"/><path d="M44.63,23.05c3,0.7,5.34,1,8.12,0.73c9.75-0.91,24.23-2.5,34.24-3.18c2.18-0.15,4.63-0.49,7.01-0.17"/><path d="M53.08,32.25c0.88,0.57,1.36,1.4,1.46,2.49c0.57,3.07,1.14,5.79,1.65,8.38c0.24,1.22,0.47,2.41,0.69,3.6"/><path d="M54.92,33.45c7.64-0.89,18.97-2.51,24.68-3.13c2.45-0.26,5.11-0.17,4.06,2.98c-0.85,2.55-1.47,4.63-2.68,7.53"/><path d="M57.48,44.12c4.16-0.3,13.29-1.42,20.25-2.07c1.87-0.17,3.59-0.32,5.01-0.4"/><path d="M51.36,53.18c2.51,1.45,5.08,1.55,8.02,1.12c6.5-0.95,21.1-3.53,22.46-3.53c1.71,0,2.75,1.67,1.15,2.99C78,57.88,75,59.62,67.92,64.51"/><path d="M65.24,64.87c6.51,2.38,10.14,17.38,6.07,28.88c-2.38,6.72-6.22,1.16-7.51-0.25"/><path d="M43.39,73.3c3.24,0.95,6.41,0.55,9.23,0.32c9.22-0.76,27.69-2.47,37.63-2.98c2.84-0.15,6.06-0.54,8.76,0.61"/></svg>