<svg><path d="M22.88,16.75c2.25,1.5,5.81,6.17,6.37,8.5"/><path d="M10.37,35.08c0.63,0.23,3.04,0.27,3.67,0.23c7.8-0.42,15.47-2.67,21.14-2.87c1.05-0.04,2.64,0.11,3.16,0.23"/><path d="M16.73,48.06c0.38,0.12,2.71,0.13,3.1,0.12c3.97-0.14,9.8-2.06,13.71-2.05c0.63,0,3.29,0.06,3.61,0.12"/><path d="M17.73,60.33c0.34,0.12,2.42,0.13,2.77,0.12c3.55-0.13,9.32-2.11,12.81-2.09c0.57,0,2.94,0.06,3.22,0.11"/><path d="M15.64,72.4c0.35,0.36,0.75,0.65,0.86,1.13c0.99,4.21,2.25,13.04,3.25,19.21"/><path d="M16.81,73.87c6.44-0.89,13.48-2.1,19.42-3c1.49-0.22,2.39,1.04,2.18,2.06c-0.89,4.25-1.66,7.22-3.24,14.28"/><path d="M20.97,90.05c4.8-0.54,9.1-1.47,15.69-2.31"/><path d="M41.25,29.88c0.94,0.34,2.66,0.38,3.6,0.34c7.23-0.31,35.4-3.96,46.61-4.59c1.56-0.09,2.5,0.16,3.29,0.33"/><path d="M63.89,13c0.67,0.31,1.08,1.41,1.21,2.03s1.43,23.7,1.29,27.61"/><path d="M79.55,11.25c0.67,0.31,1.08,1.41,1.21,2.03c0.13,0.63-1.79,19.35-2.18,25.92"/><path d="M66.79,40.64c2.48,0,12.84-1.25,14.24-1.25"/><path d="M50,19.07c0.67,0.31,1.08,1.41,1.21,2.03s0.5,18.83,0.02,26.02c-0.15,2.35-0.24,4.12,2.32,3.91C64.42,50.16,75.25,49,85.97,48.7c2.02-0.06,3.71,0.13,4.49,0.28"/><path d="M42.49,65.65c1.36,0.45,2.91,0.59,4.47,0.45c7.96-0.73,31.58-2.28,43.62-3.14c1.55-0.11,2.53,0.08,4.08,0.39"/><path d="M66.32,54.5c0.72,0.29,1.29,1.29,1.29,1.88c0,6.09,0,38.49-0.14,42.12"/><path d="M65.1,64.73c-3.59,7.68-13.2,19.42-20.66,23.77"/><path d="M67.18,65.09c3.78,3.14,21.54,18.91,25.65,22c1.39,1.05,2.58,1.5,3.98,1.8"/></svg>