<svg><path d="M19.55,15.5c3.4,1.81,8.78,7.44,9.63,10.25"/><path d="M11.62,34.08c0.71,0.23,3.4,0.27,4.1,0.23c8.73-0.42,15.48-2.17,21.83-2.37c1.18-0.04,2.95,0.11,3.54,0.23"/><path d="M14.68,47.06c0.43,0.12,3.04,0.13,3.47,0.12c4.44-0.14,11.86-1.43,16.34-2.05c0.7-0.1,3.68,0.06,4.04,0.12"/><path d="M14.3,58.83c0.38,0.12,2.71,0.13,3.1,0.12c3.97-0.13,13.43-1.61,17.33-1.59c0.63,0,3.29,0.06,3.6,0.11"/><path d="M14.01,72.9c0.39,0.36,0.83,1.15,0.96,1.63c1.11,4.21,2.02,13.54,3.14,19.71"/><path d="M15.44,74.37c7.2-0.89,11.9-1.6,18.55-2.5c1.67-0.22,2.68,1.04,2.44,2.06c-0.99,4.25-1.36,8.22-3.12,15.28"/><path d="M18.42,91.55c5.37-0.54,9.18-0.47,16.56-1.31"/><path d="M45.05,16.6c1.19,0.51,3.37,0.57,4.56,0.51C62.01,16.53,77,14.25,87.3,13.1c1.98-0.22,3.18,0.24,4.17,0.5"/><path d="M48.48,30.88c1.52,0.37,2.97,0.78,4.53,0.64C64,30.5,82.58,28.39,89.33,27.75c1.46-0.14,3.7,0.32,2.89,3c-1.22,4-2.15,5.5-3.44,10.25"/><path d="M50.61,45.25c6.06,0,30.1-3.25,40.74-3.75"/><path d="M49.89,31.68c0.11,0.82,0.28,1.84,0.29,3.71c0.09,23.56-2.02,40.95-8.92,49.86"/><path d="M51.82,56.71c0.66,0.65,0.87,1.66,0.89,2.85c0.05,2.94,2.48,34.99,2.48,36.94"/><path d="M52.84,58.49c5.19-0.51,38.85-4.38,39.88-4.56c2.18-0.38,3.18,2.35,3.18,3.03c0,6.78-2.4,26.78-3.48,32.33c-1.52,7.79-4.32,2.43-5.96,0.77"/><path d="M54.12,74.06c5.93-0.4,27.38-2.31,40.31-3.52"/><path d="M65.58,57c0.77,0.3,1.22,1.35,1.38,1.95c0.15,0.6,0,29.69-0.15,33.44"/><path d="M78.04,56.07c0.77,0.3,1.22,1.36,1.38,1.97c0.15,0.61,0,29.69-0.15,33.48"/></svg>