<svg><path d="M21.38,15.12c3.31,1.7,8.55,6.98,9.38,9.62"/><path d="M11.87,35.58c1.6,0.59,4.02,0.23,5.65,0.1c6.16-0.51,11.98-1.78,17.85-2.83c1.39-0.25,3.78-0.49,5.22-0.18"/><path d="M17.98,48.31c1.33,0.42,3.44,0.14,4.77,0c3.55-0.35,8.39-1.33,11.75-1.78c1.09-0.14,2.55-0.49,3.64-0.28"/><path d="M17.48,62.08c1.45,0.5,3.68,0.33,5.16,0.16c3.54-0.43,8.59-1.62,11.85-2.16c1.21-0.2,2.8-0.61,4.04-0.36"/><path d="M14.64,75.65c0.83,0.7,1.03,1.63,1.25,2.72c0.99,4.88,2.04,10.97,2.86,15.63"/><path d="M16.56,77.69c6.95-1.3,11.94-2.44,18.92-3.06c3.14-0.28,4.33,0.15,3.52,3.38c-0.85,3.38-1.48,6.24-2.83,11.83"/><path d="M19.22,92.21c4.87-0.44,12.01-0.98,18.69-1.65"/><path d="M66.55,10.17c1.39,1.39,1.84,2.33,1.84,4.02c0,4.11-0.02,6.39-0.02,9.43"/><path d="M44.25,26.76c2.96,0.74,6.52,0.32,9.5-0.08c9.75-1.3,24-2.68,33.25-3.22c2.66-0.15,6.2-0.24,8.76,0.65"/><path d="M50.35,39.31c0.86,0.86,1.4,1.57,1.69,2.74c0.66,2.68,1.33,6.72,2.13,11.45c0.25,1.44,0.5,2.95,0.78,4.51"/><path d="M52.33,40.45c9.42-1.7,22.3-3.2,30.79-3.7c2.24-0.13,4,1.84,3.39,4.6c-0.88,4.03-1.13,5.65-2.59,11.81"/><path d="M55.81,56.69c8.62-1.03,16.25-1.64,25.84-2.47c1.47-0.13,2.99-0.26,4.57-0.4"/><path d="M68.38,58.61c0.82,0.82,1.4,2.14,1.4,4.06c0,4.5,0.02,24.99,0.02,28.86c0,8.28-5.86,0.71-7.23-0.44"/><path d="M56.76,69c0.08,1.22,0.04,2.31-0.51,3.42c-2.38,4.83-5.59,9.59-10.75,15.08"/><path d="M82.25,68.25c4.37,3.41,10.41,12.94,11.5,18.25"/></svg>