<svg><path d="M19.55,13.25c3.75,2.21,9.69,9.07,10.63,12.5"/><path d="M9.62,35.08c0.71,0.23,3.4,0.27,4.1,0.23c8.73-0.42,17.48-2.67,23.83-2.87c1.18-0.04,2.95,0.11,3.54,0.23"/><path d="M15.18,47.06c0.43,0.12,3.04,0.13,3.47,0.12c4.44-0.14,8.86-0.93,13.34-1.55c0.7-0.1,3.68,0.06,4.04,0.12"/><path d="M14.8,59.33c0.38,0.12,2.71,0.13,3.1,0.12c3.97-0.13,9.36-0.45,14.33-1.09c0.63-0.08,3.29,0.06,3.6,0.11"/><path d="M14.01,72.9c0.39,0.36,0.83,1.15,0.96,1.63c1.11,4.21,2.02,14.54,3.14,20.71"/><path d="M15.44,74.37c7.2-0.89,13.4-1.6,20.05-2.5c1.67-0.22,2.68,1.04,2.44,2.06c-0.99,4.25-1.36,8.22-3.12,15.28"/><path d="M18.42,92.05c5.37-0.54,12.18-0.97,19.56-1.81"/><path d="M61.57,23.18c0.04,0.25-0.21,1.21-0.46,1.47c-3.26,3.51-5.8,6.16-13.24,8.95"/><path d="M46.95,32.88c0.67,0.81,0.94,2.63,1.1,4.3c0.6,6.09,2.01,18.9,2.62,27.14"/><path d="M49.1,45.68c3.3-0.37,10.52-1.92,11.3-1.92c0.78,0,1.88,0,2.51,0"/><path d="M75.89,29.11c0.79,0.18,1.41,0.56,2.51,0.56c1.1,0,11.92-3.22,13.18-3.41s2.37,0.93,2.2,2.04C91.75,41,89.25,57.75,88.68,61.98"/><path d="M75.11,43.5c0.79,0.18,1.41,0.56,2.51,0.56c1.1,0,12.4-1.44,13.65-1.62"/><path d="M51.27,60.43c3.3-0.37,37.22-2.42,38-2.42"/><path d="M67.8,13.25c0.91,1.85,1,2.71,1.03,5.56c0.52,44.77-2.22,60.53-29.33,77.69"/><path d="M67.3,60.34C74.25,70.25,85,84.5,93.63,91.67c1.64,1.37,3.56,2.05,5.12,2.46"/></svg>