<svg><path d="M19.8,13.25c3.84,1.94,9.92,7.98,10.88,11"/><path d="M9.12,34.58c0.71,0.23,3.4,0.27,4.1,0.23c8.73-0.42,17.48-2.67,23.83-2.87c1.18-0.04,2.95,0.11,3.54,0.23"/><path d="M14.68,46.06c0.43,0.12,3.04,0.13,3.47,0.12c4.44-0.14,8.86-1.43,13.34-2.05c0.7-0.1,3.68-0.44,4.04-0.38"/><path d="M14.8,59.33c0.38,0.12,2.71,0.13,3.1,0.12c3.97-0.13,10.11-0.95,14.83-1.59c0.63-0.09,3.29-0.44,3.6-0.39"/><path d="M15.51,72.9c0.39,0.36,0.83,1.15,0.96,1.63c1.11,4.21,2.03,14.21,2.64,20.71"/><path d="M16.94,74.37c7.2-0.89,13.4-2.6,20.05-3.5c1.67-0.22,2.68,1.04,2.44,2.06c-0.99,4.25-1.86,10.22-3.62,17.28"/><path d="M19.42,93.05c5.37-0.54,10.68-0.97,18.06-1.81"/><path d="M49.75,15.71c-0.11,3.72-2.84,13.47-3.81,15.69"/><path d="M50.17,17.73c5.82-0.66,29.78-2.52,41.29-3.04c8.75-0.4,1.36,7.02,0.28,8.13"/><path d="M52.62,33.52c1.14,0.42,3.24,0.48,4.39,0.42c7.24-0.44,18.99-1.69,26.55-2.6c1.89-0.23,3.05,0.2,4,0.41"/><path d="M50.48,43.1c0.55,0.44,1.24,1.7,1.34,2.27c0.82,4.59,1.69,13.91,2.67,21.34"/><path d="M51.96,45.02c8.83-0.9,29.71-3.57,35.73-3.71c2.49-0.06,3,1.22,2.9,2.62c-0.37,4.81-0.77,12.7-2.74,20.58"/><path d="M53.04,54.17c6.66-0.23,24.06-2.98,36.6-2.98"/><path d="M55.54,64.3c7.74-0.93,21.23-2.71,31.3-2.71"/><path d="M46.18,75.64c1.3,0.64,3.67,0.69,4.99,0.64c14.09-0.54,28.09-1.54,41.11-2.37c2.17-0.14,4.47-0.19,5.55,0.13"/><path d="M69.17,20.05c0.54,0.57,1.68,4.3,1.79,5.45c0.11,1.15-0.07,64.46-0.18,71.64"/></svg>