<svg><path d="M24.63,13.75c2.34,1.32,6.04,5.44,6.62,7.5"/><path d="M12.37,33.08c0.63,0.23,3.04,0.27,3.67,0.23c7.8-0.42,17.97-3.17,23.64-3.37c1.05-0.04,2.64,0.11,3.16,0.23"/><path d="M18.23,46.06c0.38,0.12,2.71,0.13,3.1,0.12c3.97-0.14,9.8-2.06,13.71-2.05c0.63,0,3.29,0.06,3.61,0.12"/><path d="M18.73,58.83c0.34,0.12,2.42,0.13,2.77,0.12c3.55-0.13,10.82-2.11,14.31-2.09c0.57,0,2.94,0.06,3.22,0.11"/><path d="M17.64,70.9c0.35,0.36,0.75,0.65,0.86,1.13c0.99,4.21,2.25,12.54,3.25,18.71"/><path d="M18.81,71.87c6.44-0.89,13.48-2.1,19.42-3c1.49-0.22,2.39,1.04,2.18,2.06c-0.89,4.25-1.66,8.72-3.24,15.78"/><path d="M21.97,88.55c4.8-0.54,10.6-0.97,17.19-1.81"/><path d="M66.77,12.09c0.66,0.81,1.66,1.63,1.66,3.71c0,3.29,0-0.81,0,8.13"/><path d="M48.29,26.42c0.78,0.27,1.68,0.31,2.45,0.27c4.37-0.23,33.01-4.17,39.62-4.36c1.29-0.04,2.07,0.13,2.71,0.26"/><path d="M57.3,29.45c2.67,3.98,4.37,8.78,4.62,11.4"/><path d="M81.36,26.18c0.39,0.82,0.2,2.17,0.08,2.55c-1.48,4.59-4.9,10-5.82,12.09"/><path d="M48.32,43.85c-0.06,3.54-1.45,12.78-1.95,14.89"/><path d="M49.82,45.83c2.17,0,32.24-4.67,43.16-4.67c7.43,0,1.35,4.49-1.43,7.42"/><path d="M53.52,60.28c0.43,0.31,1.44,2.33,1.44,2.96c0,4.09-0.06,20.8-0.14,24.7"/><path d="M55.35,61.74c2.72-0.22,30.65-3.5,32.68-3.64c2.39-0.16,2.9,2.75,2.82,4.17c-0.43,7.17-0.24,14.29-1.63,21.32c-1,5.05-4.08,1.2-5.23-0.54"/><path d="M69.57,47.76c0.43,0.31,1.35,2.34,1.44,2.96C71.1,51.35,70.96,95.1,70.87,99"/></svg>