<svg><path d="M20.3,14.75c3.31,2.03,8.55,8.34,9.38,11.5"/><path d="M9.62,35.08c0.71,0.23,3.4,0.27,4.1,0.23c8.73-0.42,16.98-3.17,23.33-3.37c1.18-0.04,2.95,0.11,3.54,0.23"/><path d="M14.18,47.56c0.43,0.12,3.04,0.13,3.47,0.12c4.44-0.14,9.36-1.43,13.84-2.05c0.7-0.1,3.18-0.44,3.54-0.38"/><path d="M14.8,60.83c0.38,0.12,2.71,0.13,3.1,0.12c3.97-0.13,9.86-1.45,14.33-2.09c0.63-0.09,3.29-0.44,3.6-0.39"/><path d="M13.51,73.4c0.39,0.36,0.83,1.15,0.96,1.63c1.11,4.21,3.02,11.54,4.14,17.71"/><path d="M15.09,75.03c6.47-0.79,12.94-2.3,18.91-3.09c1.5-0.2,2.4,0.92,2.19,1.82c-0.89,3.76-1.22,7.71-2.8,13.96"/><path d="M18.42,90.05c5.37-0.54,10.18-1.47,17.56-2.31"/><path d="M46.43,26.55c1.03,0.67,2.77,1.03,4.55,0.97c8.31-0.3,24.33-2.09,32.16-3.3c1.93-0.3,3.75-0.06,5.47,0.52"/><path d="M46.25,38.22c0.27,0.42,0.55,0.77,0.67,1.3c0.94,4.17,2.84,14.48,4.2,22.63"/><path d="M47.76,40.08C57,39,85.34,36.23,88.53,35.84c1.98-0.24,3.02,1.39,2.71,3.72c-0.9,6.77-2.42,14.69-3.53,19.28"/><path d="M53.36,43.89c2.81,1.8,7.26,7.38,7.96,10.17"/><path d="M80.75,41.06c0.02,0.28,0.04,0.72-0.04,1.11c-0.44,2.35-2.98,7.5-6.46,10.65"/><path d="M50.9,59.79c8.88-0.94,28.65-3.25,36.95-3.71"/><path d="M66.66,12.5c0.88,0.49,1.41,2.2,1.59,3.18c0.18,0.98,0,76.19-0.18,82.32"/><path d="M68.05,58.26c-5.44,11.23-19.58,27.12-30.9,33.48"/><path d="M68.37,58.79C73,64.5,87.25,81,92.82,84.88c1.56,1.09,2.62,1.82,4.03,2.18"/></svg>