<svg><path d="M23.68,15.5c2.74,1.68,7.07,6.89,7.75,9.5"/><path d="M11.37,35.33c1.67,0.55,3.91,0.26,5.63,0.14c7.73-0.51,14.91-1.98,21.5-2.68c1.53-0.16,3.07-0.18,4.59,0.12"/><path d="M16.68,48.06c1.18,0.34,2.72,0.15,3.94,0.08c3.87-0.22,8.35-1.03,12.26-1.6c1.23-0.18,2.91-0.75,4.14-0.54"/><path d="M16.8,61.33c1.18,0.36,2.85,0.16,4.06,0.06c3.69-0.33,8.78-1.74,12.8-2.41c1.05-0.17,2.12-0.2,3.17-0.01"/><path d="M15.51,73.9c0.85,0.85,1.39,1.97,1.46,2.63c0.65,6.21,1.02,9.54,1.56,14.96c0.11,1.13,0.22,2.3,0.33,3.51"/><path d="M17.69,75.87c7.28-1.33,10.83-1.96,16.21-2.71c3.4-0.47,4.88-0.09,4.15,3.5c-0.74,3.66-1.22,7.45-2.75,13.56"/><path d="M19.92,93.05c4.44-0.45,8.72-0.82,13.81-1.41c1.07-0.12,2.22-0.25,3.5-0.4"/><path d="M48.21,19.72c3.59,1.86,9.27,7.64,10.16,10.53"/><path d="M44.26,54.33c1.11,0.67,2.67,0.23,3.49-0.34c0.96-0.67,6.79-5.96,10.47-9.38"/><path d="M72,13.75c0.05,0.99,0.07,1.96-0.24,2.9c-1.63,4.97-4.76,11.72-9.43,17.91"/><path d="M69.91,28.55c0.7,0.19,2.03,0.24,3.08,0.07c1.29-0.2,11.88-2.56,13.98-3.01c6.28-1.35,3.28,2.65-1.37,7.69"/><path d="M72.81,35.22c0.61,0.61,0.53,2.05,0.4,3.08c-0.83,6.4-5.33,18.08-16.25,25.71"/><path d="M73.38,44.25c2.81,2.53,9.98,8.89,15.6,12.77c1.81,1.25,3.4,2.23,5.27,3.17"/><path d="M53.96,71.11c0.71,0.71,1.04,1.57,1.15,2.74c1.13,6.27,1.53,11.5,2.26,17.88c0.2,1.74,0.39,3.41,0.57,4.92"/><path d="M56.21,73.07c8.55-1.3,19.87-2.97,25.93-3.9c3.49-0.54,5.79,0.14,5,3.57c-1.51,6.51-2.34,10.44-4.69,18.5"/><path d="M58.84,94.03c4.76-0.38,13.97-1,21.41-1.64c1.83-0.16,3.55-0.29,5.04-0.37"/></svg>