<svg><path d="M25.12,14c2.58,1.5,6.66,6.17,7.31,8.5"/><path d="M13.87,32.83c0.71,0.23,3.4,0.31,4.1,0.23C27.12,32,34,30.62,40.31,29.69c1.17-0.17,2.95-0.14,3.54-0.02"/><path d="M19.68,45.81c1.13,0.32,2.9,0.28,4.07,0.09c4.59-0.74,8-1.28,12.25-2.17c1.17-0.25,2.58-0.44,3.77-0.23"/><path d="M20.55,58.08c1.11,0.34,2.58,0.08,3.72,0c4.48-0.33,6.98-0.83,12.23-1.66c1.38-0.22,2-0.2,3.58-0.2"/><path d="M19.01,70.53c0.76,0.74,0.96,1.85,1.17,2.84c0.77,3.55,1.63,9.04,2.42,13.87c0.17,1.06,0.34,2.08,0.5,3.02"/><path d="M21.05,71.65c6.29-1.14,10.85-1.93,16-2.75c2.89-0.46,4.51-0.19,3.85,2.99c-0.75,3.61-1.36,7.33-2.77,13.22"/><path d="M23.88,87.77c3.97-0.42,7.41-1.02,12.37-1.56c1.08-0.12,2.2-0.25,3.38-0.39"/><path d="M49.5,15.02c0.68,0.68,1.09,1.63,1.17,2.99s1.36,14.46,1.98,20.22c0.21,1.96,0.36,3.3,0.39,3.51"/><path d="M51.44,16.12c3.81-0.55,20.84-2.91,26.43-3.48c3.21-0.33,4.81,0.62,4.41,3.87c-0.8,6.4-1.86,12.95-2.88,19.5c-0.23,1.51-0.47,2.54-0.69,4.09"/><path d="M52.58,27.97c8.79-1.35,20.54-2.6,27.47-3.03"/><path d="M53.94,39.86c6.93-0.86,15.18-1.73,24.1-2.32"/><path d="M58.1,43.25c0.08,0.88-0.2,1.73-0.54,2.53c-2.28,5.19-7.17,12.58-15.2,19.05"/><path d="M57.7,51.85c0.93,0.4,2.51,0.29,3.9,0.09c3.55-0.51,17.41-2.73,25.25-3.6c4.86-0.54,5.9,0,5.62,5.04c-0.47,8.74-2.9,29.81-10.8,42.2c-1.98,3.1-4.68,0.78-6.69-1.35"/><path d="M74.07,61.11c-0.19,0.89-0.64,1.59-1.53,2.21c-4.54,3.19-9.59,5.96-18.23,8.61"/><path d="M50.18,62.8c0.76,0.76,1.09,1.79,1.09,2.93s0.07,5.46,0.14,9.67c0.09,5.59,1.35,7.17,11.97,7.17s12.11-1.98,12.11-6.81"/></svg>