<svg><path d="M25.13,14.25c2.51,1.46,6.49,5.98,7.12,8.25"/><path d="M14.12,32.83c1.67,0.26,3.34,0.35,5,0.14c6.88-0.85,13.63-2.13,18.89-2.8c2.02-0.26,3.79-0.71,5.84-0.25"/><path d="M19.73,46.06c1.04,0.33,2.69,0.24,3.77,0.09c4.5-0.65,8.39-1.45,12.02-2.17c1.22-0.24,2.89-0.72,4.12-0.48"/><path d="M20.73,58.08c1.01,0.34,2.46,0.15,3.52,0.08c3.35-0.24,8.54-1.02,12.15-1.65c1.19-0.21,2.45-0.28,3.64-0.04"/><path d="M19.14,70.9c0.82,0.75,1.23,1.69,1.22,2.82c0.66,3.34,1.33,8,2,12.42c0.21,1.41,0.43,2.8,0.64,4.11"/><path d="M21.31,71.87c5.77-0.8,10.62-1.65,15.84-2.47c2.78-0.43,4.4-0.09,3.76,3.01c-0.75,3.6-1.65,8.09-2.48,12.05"/><path d="M23.97,87.8c4.09-0.44,7.82-1.14,12.91-1.83c0.88-0.12,1.81-0.24,2.78-0.35"/><path d="M49.38,18.5c0.87,0.87,1.14,2.07,1.32,3.13c1.1,6.45,1.71,13.18,2.62,20.98c0.16,1.41,0.34,2.85,0.53,4.33"/><path d="M51.24,19.65c11.63-1.77,26.63-3.15,35.55-3.88c2.8-0.23,4.36,1.17,4.06,3.85c-0.47,4.1-1.74,10.74-3.07,18.02c-0.3,1.65-0.61,3.34-0.91,5.04"/><path d="M68.69,18.92c0.76,0.76,1.1,2,1.1,3.67c0,7.65-0.04,11.23-0.04,19.29"/><path d="M53.31,32.13C62.25,30.62,78,29,88.32,28.38"/><path d="M54.89,44.61c9.86-1.36,20.7-2.5,30.82-3.23"/><path d="M55.13,53.41c0.79,0.8,0.95,2.09,0.95,3.4c0,3.55,0.02,21.46,0.02,31.32c0,2.83,0,5,0,5.98"/><path d="M57.08,54.5c2.38-0.21,24.11-2.83,25.88-3.05c3.25-0.39,3.98,1.92,3.97,4.55c-0.01,5.62-0.05,22.34-0.05,33.88c0,10.47-8.39,1.01-9.18,0.22"/><path d="M57.3,65.41c8.12-1.12,19.58-2.29,28.27-2.93"/><path d="M57.43,76.64c6.34-0.6,20.7-1.81,28.04-2.27"/></svg>