<svg><path d="M20.38,14.25c2.25,1.5,5.81,6.17,6.37,8.5"/><path d="M8.87,33.08c0.63,0.23,3.04,0.27,3.67,0.23c7.8-0.42,15.47-3.17,21.14-3.37c1.05-0.04,2.64,0.11,3.16,0.23"/><path d="M14.23,46.06c0.38,0.12,2.71,0.13,3.1,0.12c3.97-0.14,8.92-1.93,12.71-2.55c0.63-0.1,3.29,0.06,3.61,0.12"/><path d="M15.23,58.33c0.34,0.12,2.42,0.13,2.77,0.12c3.55-0.13,9.32-2.11,12.81-2.09c0.57,0,2.94,0.06,3.22,0.11"/><path d="M13.64,70.9c0.35,0.36,0.75,0.65,0.86,1.13c0.99,4.21,2.25,12.04,3.25,18.21"/><path d="M15.81,71.87c6.44-0.89,10.48-1.6,16.42-2.5c1.49-0.22,2.39,1.04,2.18,2.06c-0.89,4.25-1.66,6.72-3.24,13.78"/><path d="M18.47,87.55c4.8-0.54,7.6-0.97,14.19-1.81"/><path d="M58.08,26.05c2.5,2.11,6.29,8.09,6.91,11.38"/><path d="M90.85,22.61c0.02,0.33,0.04,0.86-0.04,1.34c-0.53,2.83-3.58,9.03-7.76,12.83"/><path d="M56.26,45.69c0.58,0.21,2.13,0.43,3.67,0.31c5.53-0.42,25.02-2.73,32.23-2.85c1.55-0.03,1.93-0.21,2.9,0"/><path d="M74.08,16.93c0.61,0.42,0.97,1.87,1.09,2.7c0.12,0.83,0,59.45-0.12,64.63"/><path d="M74.04,46.14c-2.71,7.68-9.29,18.46-15.37,22.89"/><path d="M77.7,53.27c6.1,4.65,11.38,10.2,15.96,18.94"/><path d="M46.03,15.5c2.56,1.74,6.6,7.17,7.24,9.88"/><path d="M41.28,38c3.05,0.99,7.89,4.09,8.65,5.63"/><path d="M40.25,59.94c1.58,0.85,2.64,0.43,3.34,0.21c0.7-0.21,5.63-2.99,6.69-3.42c1.06-0.43,2.64,1.07,1.94,2.35c-0.7,1.28-2.81,6.19-3.34,7.26c-0.53,1.07-0.35,2.99,0.7,4.48s1.94,3.2,2.46,4.48c0.53,1.28,0.53,2.35-0.53,3.42c-1.06,1.07-6.33,7.04-7.39,7.47"/><path d="M41.13,87.07c2.08-0.24,6.25-0.85,9.38-0.37c3.13,0.49,20.9,3.76,23.97,4.39c8.34,1.71,14.77,2.19,21.02,1.34"/></svg>