<svg><path d="M21.3,13.25c3.84,2.03,9.92,8.34,10.88,11.5"/><path d="M11.62,35.08c0.71,0.23,3.4,0.27,4.1,0.23c8.73-0.42,17.48-3.17,23.83-3.37c1.18-0.04,2.95,0.11,3.54,0.23"/><path d="M17.18,46.06c0.43,0.12,3.04,0.13,3.47,0.12c4.44-0.14,10.36-1.43,14.84-2.05c0.7-0.1,3.18,0.06,3.54,0.12"/><path d="M17.3,59.33c0.38,0.12,2.71,0.13,3.1,0.12c3.97-0.13,11.43-2.11,15.33-2.09c0.63,0,3.29,0.06,3.6,0.11"/><path d="M16.51,73.4c0.39,0.36,0.83,1.15,0.96,1.63c1.11,4.21,2.52,14.54,3.64,20.71"/><path d="M17.94,74.87c7.2-0.89,13.9-2.6,20.55-3.5c1.67-0.22,2.68,1.04,2.44,2.06c-0.99,4.25-1.36,8.72-3.12,15.78"/><path d="M21.42,92.55C26.8,92,32.1,91.07,39.48,90.24"/><path d="M53,17.14c0.27,0.42,0.28,0.7,0.43,1.21c1.21,4.24,2.81,15.33,3.52,23.14"/><path d="M54.28,17.78c9.64-0.43,25.65-2.15,32.85-2.56c2.64-0.15,3.99,1.08,3.84,2.21C90.45,21.6,89,31.5,87.54,38.51"/><path d="M70.88,18.17c0.87,0.33,0.98,1.37,0.97,2.64c-0.03,4.92,0.17,15.04,0.17,16.83"/><path d="M56.5,27.66c3.14-0.21,28.71-1.44,31.31-1.44"/><path d="M57.45,38.9c6.94,0,20.6-1.45,30.18-1.56"/><path d="M63.51,41.5c0.07,0.39,0.07,1-0.13,1.57c-1.81,5.01-4.13,8.68-11.88,14.68"/><path d="M76.75,38c0.91,0.77,1.18,1.68,1.18,2.87c0,1.6-0.27,7.6-0.27,8.74c0,3.11,1.09,4.39,8.03,4.39c5.36,0,8.81-0.5,11.08-1.51"/><path d="M64.99,54.25c0.04,0.51,0.08,1.31-0.08,2.04c-0.96,4.3-6.46,13.74-13.98,19.52"/><path d="M63.75,61.75c1.5,0.5,1.65,0.47,3.33,0.27c4.42-0.52,10.26-1.93,13.91-2.7c2.5-0.53,3.22,1.6,2.58,3.04C80.05,70.22,64,89.25,46.25,95"/><path d="M61.24,66.21c4.44,4.48,24.56,21.52,30.54,25.62c1.78,1.22,3.23,1.82,4.97,2.18"/></svg>