<svg><path d="M20.88,16c2.52,1.5,6.5,6.17,7.13,8.5"/><path d="M9.19,33.33c1.69,0.29,3.37,0.34,5.06,0.15c4.69-0.46,12.43-2.03,17.38-2.79c1.17-0.18,3.2-0.39,3.79-0.27"/><path d="M15.25,45.81c0.43,0.12,3.04,0.13,3.47,0.12c4.44-0.14,6.86-1.18,11.34-1.8c0.7-0.1,2.93-0.44,3.29-0.38"/><path d="M14.87,58.58c1.08,0.13,1.92,0.44,3,0.32c4.38-0.53,6.92-1.04,11.18-2.29c0.61-0.18,2.79-0.44,3.1-0.39"/><path d="M12.33,71c0.96,0.7,1.55,1.65,1.77,2.85c0.76,2.84,1.62,7.41,2.36,11.38c0.31,1.67,0.6,3.23,0.86,4.52"/><path d="M13.59,72.68c7.58-1.47,12.4-2.48,17.8-3.2c1.62-0.21,3.32,0.59,2.9,2.4c-0.73,3.14-1.37,6.39-2.79,11.6"/><path d="M17.59,86.52c3.68-0.34,7.02-1.18,11.39-1.74c1.24-0.16,2.56-0.32,4-0.46"/><path d="M55.48,12.02c0.4,1.1,0.41,2.18,0.03,3.24c-1.63,3.75-3.01,6.25-6.3,11.62"/><path d="M44.34,26.59c0.85,0.85,1.27,2.16,1.27,3.33c0,2.08-0.1,27.83-0.1,31.96"/><path d="M46.51,28.72c2.73-0.73,11.93-2.65,14.17-2.67c1.88-0.01,3.09,0.64,3.09,3.25c0,10.79-0.1,49.14-0.1,58.81c0,8.99-4.29,5.01-6.75,2.21"/><path d="M46.73,39.71c3.92-0.87,13.78-2.33,15.61-2.55"/><path d="M46.87,49.91c4.82-0.87,10.38-1.91,15.72-2.64"/><path d="M38.44,64.19c0.82,0.74,2.81,0.44,3.94-0.02c5.73-2.32,13.63-5.55,20.09-8.51"/><path d="M73.6,34.29c0,1.21-0.38,2.82-1,4.02c-8.1,15.82-20.98,35.44-37.07,49.27"/><path d="M73.73,47.08c1.28,0.47,2.86,0.43,4.14,0.29c5.36-0.6,10.17-1.8,16-2.2c1.38-0.09,2.65-0.19,4,0.11"/><path d="M88.07,12.56c0.94,0.94,1.54,3.07,1.54,4.76c0,17.58,0.04,70.06,0.04,74.33c0,10.37-6.23,1.54-8.05,0.22"/><path d="M75.52,60.19c2,1.41,5.17,5.79,5.67,7.99"/></svg>