<svg><path d="M24.12,14.12c2.76,1.39,7.12,5.71,7.81,7.88"/><path d="M11.62,32.33c1.73,0.57,4.52,0.52,6.27,0.29c5.23-0.7,12.39-2.45,19.23-3.71c1.83-0.34,3.38-0.6,5.22-0.23"/><path d="M19.68,44.51c1.24,0.41,3.16,0.16,4.44,0.04c3.29-0.32,6.56-1.35,9.87-1.97c1.15-0.22,2.61-0.51,3.78-0.28"/><path d="M18.55,57.83c1.15,0.39,3.03,0.14,4.2,0c3.13-0.37,7.35-1.45,10.39-2.02c1.33-0.25,3.1-0.61,4.44-0.34"/><path d="M18.01,71.67c0.78,0.78,1.33,2.01,1.58,3.05c0.74,2.96,1.7,7.51,2.64,11.72c0.43,1.95,0.82,3.79,1.12,5.3"/><path d="M20.37,73.47c8.35-2.04,11.12-2.94,16.64-4.04c2.69-0.54,4.34,0.17,3.66,3.11c-0.76,3.29-1.69,6.26-3.2,11.91"/><path d="M23.65,87.46c4.97-0.71,8.38-1.38,13.37-2c0.95-0.12,2.2-0.23,3.28-0.35"/><path d="M48.42,25.21c1.72,0.47,3.61,0.13,5.32-0.12c6.47-0.95,22.03-3.35,31.01-4.37c1.93-0.22,3.78-0.4,5.71-0.12"/><path d="M57.77,13.89c1.11,1.11,1.85,2.11,2.04,3.42c0.11,0.74,1.42,14.98,2.13,25.46"/><path d="M76.34,9.71c1.04,1.04,1.64,2.04,1.54,3.48C77.38,20.88,77,29.5,76.25,41"/><path d="M52.5,34.36c1.62,0.44,3.38,0.41,5,0.17c6.62-0.96,14.94-2.67,23-3.5c1.59-0.17,3.08-0.23,4.67,0"/><path d="M44.04,45.3c2.33,0.82,5.57,0.38,7.95,0.03c8.78-1.27,25.15-3.3,38-4.65c2.36-0.25,4.91-0.23,7.24,0.22"/><path d="M53.61,53.44c0.91,0.91,1.45,2.43,1.45,3.78c0,4.03-0.22,24.16-0.16,34.78c0.01,2.77,0.02,4.68,0.02,5.15"/><path d="M55.5,54.18c3.9-0.54,19.75-3.11,26.61-3.98c3.31-0.42,4.81,0.14,4.8,3.67c-0.01,7.31-0.09,36.25-0.09,39.47c0,8.9-5.9,1.79-7.4,0.64"/><path d="M68.77,46.54c0.97,0.97,1.39,2.33,1.39,3.79c0,8.11,0.09,13.06,0.09,23.79"/><path d="M55.97,64.91c9.91-1.41,20.51-3.16,29.64-3.73"/><path d="M46.06,77.09c2.69,0.53,5.46,0.25,7.82,0.01c11.17-1.11,27.27-3.22,37.49-3.99c2.24-0.17,4.25-0.49,6.59-0.09"/></svg>