<svg><path d="M21.55,14.25c3.93,1.94,10.15,7.98,11.13,11"/><path d="M11.12,33.58c0.71,0.23,3.4,0.27,4.1,0.23c8.73-0.42,17.98-1.67,24.33-1.87c1.18-0.04,2.95,0.11,3.54,0.23"/><path d="M16.18,46.06c0.43,0.12,3.04,0.13,3.47,0.12c4.44-0.14,10.36-0.93,14.84-1.55c0.7-0.1,3.68,0.06,4.04,0.12"/><path d="M16.3,59.33c0.38,0.12,2.71,0.13,3.1,0.12c3.97-0.13,11.93-2.11,15.83-2.09c0.63,0,3.29,0.06,3.6,0.11"/><path d="M16.51,73.4c0.39,0.36,0.83,1.15,0.96,1.63c1.11,4.21,2.28,13.46,2.64,21.21"/><path d="M17.44,74.87c7.2-0.89,11.9-2.6,18.55-3.5c1.67-0.22,2.68,1.04,2.44,2.06c-0.99,4.25-1.36,10.72-3.12,17.78"/><path d="M21.42,94.05c5.37-0.54,9.68-0.97,17.06-1.81"/><path d="M66.84,13.5c1.17,0.83,1.76,0.83,1.76,2.77c0,1.94,0,3.84,0,9.11"/><path d="M46.49,27.53c1.36,0.36,2.96,0.42,4.31,0.36c7.68-0.31,28.58-3.46,40.2-3.72c2.27-0.05,3.63,0.17,4.77,0.36"/><path d="M56.92,30.08c3.06,4.15,4.45,8.39,4.72,11.12"/><path d="M83.81,27.32c0.63,0.45,0.71,0.67,0.63,1.04c-0.51,2.54-5.2,10.6-6.47,12.54"/><path d="M49.01,43.72c0.47,0.85,0.78,2.21,0.63,3.75c-0.16,1.53,0.16,46.66,0.16,49.21"/><path d="M49.63,45.42c5.96-0.68,38.62-3.72,39.8-3.96c2.51-0.51,4.35,1.8,4.07,2.6c-0.47,1.36-0.47,42.55-0.47,46.47c0,8.82-3.72,2.21-5.6,0"/><path d="M55.76,58.11c0.37,0.12,1.34,0.44,2.31,0.35c3.97-0.35,21.2-2.33,26.92-2.33c0.97,0,1.22-0.12,1.82,0"/><path d="M68.87,48.27c1.23,1.11,1.55,3.71,1.55,3.81c0.05,6.78-0.1,10.42-0.1,17.46"/><path d="M59.12,70.48c0.18,0.43,0.38,0.73,0.44,1.05c0.44,2.38,2.01,10.96,2.63,15.47"/><path d="M60.04,71.18c4.95-0.48,16.46-2.72,19.84-2.79c1.4-0.03,2.15,0.67,2.03,1.4c-0.46,2.74-2.36,9.9-3.11,13.53"/><path d="M63.39,85.13c5.61-0.38,12.63-1.69,17.55-1.94"/></svg>