<svg><path d="M22.38,14.25c2.6,1.32,6.72,5.44,7.37,7.5"/><path d="M11.37,32.58c0.63,0.23,3.04,0.27,3.67,0.23c7.8-0.42,15.97-3.17,21.64-3.37c1.05-0.04,2.64,0.11,3.16,0.23"/><path d="M15.73,45.56c0.38,0.12,2.71,0.13,3.1,0.12c3.97-0.14,9.42-1.43,14.21-2.55c0.62-0.14,3.29,0.06,3.61,0.12"/><path d="M16.73,57.33c0.34,0.12,2.42,0.13,2.77,0.12c3.55-0.13,10.25-1.7,13.81-2.59c0.55-0.14,2.94,0.06,3.22,0.11"/><path d="M16.64,70.9c0.35,0.36,0.75,0.65,0.86,1.13c0.99,4.21,2.25,11.54,3.25,17.71"/><path d="M17.81,72.37c6.44-0.89,11.48-3.1,17.42-4c1.49-0.22,2.39,1.04,2.18,2.06c-0.89,4.25-1.66,7.72-3.24,14.78"/><path d="M20.97,88.05c4.28-1.05,8.1-1.47,14.69-2.31"/><path d="M 42.75,16.07 c 1.17,0.59 2.16,0.59 3.88,0.4 3.48,-0.4 13.4,-2.03 14.46,-2.1 2.39,-0.14 3.28,0.91 2.98,1.33 -0.29,0.4 -0.45,24.773958 -0.45,30.453958"/><path d="M 57.653643,17.964574 c 0.05,0.37 0.09,0.97 -0.08,1.51 -1.03,3.18 -4.677024,9.164233 -12.757024,13.434233"/><path d="M 60.763219,29.245965 c -0.167083,0.503229 -0.52304,1.227114 -1.103489,1.984531 -3.640081,4.74987 -7.534462,9.227679 -14.131469,12.763903"/><path d="M 70.55,14.14 c 1.17,0.59 2.16,0.59 3.88,0.4 3.48,-0.4 13.06,-2.51 14.13,-2.57 2.39,-0.14 3.28,0.91 2.98,1.33 -0.29,0.4 -0.45,26.843333 -0.45,32.513333"/><path d="M 84.974838,16.108354 c 0.03,0.37 0.07,0.97 -0.07,1.5 -0.84,3.17 -4.392791,9.124233 -10.972791,13.374233"/><path d="M 88.223458,27.107144 c -0.08159,0.983489 -0.08465,1.040145 -0.500579,1.889616 -2.110447,4.3103 -3.682861,8.402752 -12.921856,13.34788"/><path d="M69.21,45.25c0.07,0.5,0.15,1.29-0.14,2.01C67.35,51.5,58.32,61.69,43.96,66.5"/><path d="M69.92,47.34c3.22,3.16,17.11,13.46,20.66,15.78c1.21,0.79,2.75,1.12,3.96,1.34"/><path d="M73.3,60c0.07,0.37,0.25,1.01-0.14,1.5c-2.56,3.19-11.19,9.41-23.88,13.77"/><path d="M80.72,69.77c0.09,0.41,0.32,1.12-0.17,1.64c-3.36,3.58-14.34,10.75-30.81,15.69"/><path d="M88.75,80.63c0.12,0.46,0.25,1.18-0.23,1.83C85.67,86.33,69.28,94.81,46.84,100"/></svg>