<svg><path d="M19.8,15c2.96,1.54,7.64,6.35,8.38,8.75"/><path d="M9.12,35.08c0.71,0.23,3.4,0.27,4.1,0.23c8.73-0.42,16.48-2.67,22.83-2.87c1.18-0.04,2.95,0.11,3.54,0.23"/><path d="M16.68,47.56c0.43,0.12,3.04,0.13,3.47,0.12c4.44-0.14,8.86-1.43,13.34-2.05c0.7-0.1,2.18,0.06,2.54,0.12"/><path d="M16.3,60.83c0.38,0.12,2.71,0.13,3.1,0.12c3.97-0.13,10.93-2.11,14.83-2.09c0.63,0,2.29,0.06,2.6,0.11"/><path d="M15.29,73.67c0.35,0.32,0.74,1.02,0.85,1.45c0.99,3.73,2.68,12.9,3.67,18.38"/><path d="M16.56,74.97c6.39-0.79,12.78-2.31,18.68-3.11c1.48-0.2,2.38,0.92,2.16,1.83c-0.88,3.77-1.21,7.74-2.77,14.01"/><path d="M20.09,90.21c4.77-0.48,9.48-0.86,16.03-1.6"/><path d="M44.88,19.88c1.4,0.53,3.96,0.61,5.36,0.53c14.55-0.89,26.26-2.91,39.48-3.59c2.33-0.12,3.73-0.25,4.89,0.02"/><path d="M61.78,28.71c0.25,0.28,0.52,0.51,0.63,0.86c0.88,2.76,1.94,10.39,2.55,15.35"/><path d="M62.93,30.07c6.09-1.06,16.34-2.3,19.83-2.72c1.28-0.16,2.04,0.92,1.86,1.83c-0.75,3.77-1.29,5.83-2.41,11.04"/><path d="M64.93,42.73c4.1-0.48,13.28-1.31,18.91-2.04"/><path d="M55.08,57.89c0.34,0.36,0.69,0.66,0.84,1.12c1.18,3.59,2.43,14.79,3.23,21.24"/><path d="M56.3,59.32c4.34-0.95,8.66-3.02,12.65-3.49c1.46-0.17,2.33,1.02,2.12,2.04c-0.86,4.19-1.47,12.56-2.75,18.36"/><path d="M59.08,78.1c4.68-0.53,10.82-1.42,12.6-1.31"/><path d="M76.81,55.32c0.31,0.44,0.62,0.8,0.76,1.34c1.07,4.31,1.93,15.66,2.66,23.41"/><path d="M78.01,57.13c5.94-1.69,9.66-2.58,13.27-3.14c1.32-0.21,2.11,1.23,1.92,2.44c-0.78,5.04-1.2,11.18-2.36,18.15"/><path d="M80.43,77.94c4.24-0.64,6.41-0.64,12.23-1.63"/><path d="M49.41,21.11c0,3.5-0.4,64.64-0.4,67.92c0,2.78,1.33,3.71,2.77,3.5c10.48-1.53,29.98-3.28,40.57-3.86c2.67-0.15,3.57,0.33,5.66,1.16"/></svg>