<svg><path d="M23.55,15.5c2.52,1.5,6.5,6.17,7.13,8.5"/><path d="M10.62,34.33c0.71,0.23,3.4,0.27,4.1,0.23c8.73-0.42,17.78-2.06,24.33-2.87c1.17-0.15,2.95-0.14,3.54-0.02"/><path d="M17.68,47.92c1.21,0.3,2.94,0.24,4.19,0.08c4.28-0.57,7.26-0.87,11.64-1.83c1.6-0.35,3.39-0.76,5.01-0.52"/><path d="M18.55,60.58c1.12,0.34,2.66,0.16,3.83,0.08c3.54-0.26,7.5-0.79,11.75-1.52c1.38-0.24,3.34-0.42,4.71-0.17"/><path d="M16.51,73.01c0.93,0.93,1.19,2.18,1.36,3.24c0.76,4.75,1.54,8.15,2.29,12.51c0.28,1.61,0.55,3.14,0.8,4.49"/><path d="M18.4,74.62c8-1.25,11.99-2.03,17.61-2.79c3.17-0.43,4.28,0.3,3.48,3.49c-0.92,3.68-1.37,7.01-2.84,12.62"/><path d="M21.76,91.06c4.23-0.41,7.92-1.08,13.18-1.73c1.22-0.15,2.49-0.3,3.84-0.45"/><path d="M45.75,27.49c2.62,0.26,4.79,0.05,6.74-0.16c9.7-1.07,27.93-2.99,37.51-3.36c1.94-0.08,3.88-0.19,5.75,0.44"/><path d="M56.81,16.05c1.25,0.88,1.78,1.86,1.98,3.32c0.88,6.64,1.61,14.25,1.86,16.61"/><path d="M79.88,13.12c0.49,1.13,0.62,2.25,0.27,3.92c-1.48,7.04-2.39,11.07-3.99,17.7"/><path d="M50.12,41c0.85,0.7,1.32,1.61,1.39,2.75c0.86,4.25,1.33,7.3,1.89,11.33c0.2,1.45,0.39,2.85,0.58,4.1"/><path d="M52.37,42.73c8.16-1.1,24.79-2.55,32-3.11c2.93-0.23,5.62-0.11,4.64,3.54c-0.87,3.24-1.38,5.34-3.11,10.1"/><path d="M54.86,56.96c4.9-0.41,20.28-1.62,28.91-2.25c1.3-0.09,2.44-0.17,3.38-0.24"/><path d="M67.97,43.48c1.15,1.15,1.5,2.65,1.5,4.54c0,1.19,0,34.36,0,42.41"/><path d="M50.63,68.91c1.9,0.58,4.33,0.12,6.25-0.03c6.65-0.52,18.54-1.69,26.39-2.48c2.09-0.21,4.13-0.25,6.23,0.13"/><path d="M53.25,79.82c1.7,0.51,4.25,0.29,6,0.12c8.03-0.76,15.65-1.6,22.64-2.09c1.62-0.11,3.29-0.21,4.9,0.08"/><path d="M44.88,92.48c2.51,0.76,4.78,0.69,7.38,0.44c13.3-1.29,26.43-2.33,38.74-2.62c2.35-0.05,4.84,0.07,7.17,0.5"/></svg>