<svg><path d="M20.38,12.5c3.48,1.9,9,7.8,9.87,10.75"/><path d="M8.87,33.58c0.63,0.23,3.04,0.27,3.67,0.23c7.8-0.42,16.71-2.31,23.14-3.37c1.04-0.17,2.64,0.11,3.16,0.23"/><path d="M15.73,44.56c0.38,0.12,2.71,0.13,3.1,0.12c3.97-0.14,10.67-1.43,14.21-2.05c0.63-0.11,2.79,0.06,3.11,0.12"/><path d="M15.23,58.83c0.34,0.12,2.42,0.13,2.77,0.12c3.55-0.13,12-1.45,15.81-2.09c0.56-0.09,2.44,0.06,2.72,0.11"/><path d="M15.64,72.4c0.31,0.44,0.66,0.79,0.75,1.37c0.87,5.08,1.98,15.76,2.86,23.23"/><path d="M16.81,74.37c6.44-0.89,11.98-2.6,17.92-3.5c1.49-0.22,2.39,1.04,2.18,2.06c-0.89,4.25-2.16,11.72-3.74,18.78"/><path d="M18.97,94.05c4.8-0.54,10.1-0.97,16.69-1.81"/><path d="M48.88,16.59c1.16,0.55,1.6,0.44,3.48,0.18c4.87-0.68,6.39-1.21,11.59-2.08c3.08-0.52,3.7,0.47,2.71,3.42c-2.32,6.93-12.62,25.06-26.43,31.3"/><path d="M45.77,24.74c3.12,1.43,8.06,5.87,8.83,8.1"/><path d="M85.07,12.39c0.02,0.24,0.04,0.63-0.05,0.98c-0.56,2.06-3.75,5.99-8.1,8.76"/><path d="M67.64,17.19c4.7,3.28,20.77,22.21,24.88,26.02c1.4,1.29,2.6,1.85,3.99,2.22"/><path d="M93.9,21.5c0.04,0.23,0.06,0.59-0.05,0.91c-0.68,1.92-4.54,5.69-9.84,8.27"/><path d="M55.51,43.32c0.93,0.33,2.64,0.37,3.58,0.33c4.41-0.16,12.66-1.41,17.5-1.94c1.55-0.17,2.49,0.16,3.27,0.33"/><path d="M51.73,53.45c0.42,0.36,0.95,0.63,1.03,1.1c0.57,3.41,1.62,7.96,2.48,14.26"/><path d="M53.33,55.08c6.36-0.68,21.91-3.75,26.25-3.85c1.79-0.04,2.51,1.43,2.1,3.42c-0.72,3.57-1.08,4.98-2.3,9.64"/><path d="M55.99,66.55c6.54-0.66,20.23-1.98,25.46-2.24"/><path d="M53.33,74.21c2.15,2.47,5.51,8.79,6.05,12.63"/><path d="M78.98,71.03c0.02,0.43,0.03,1.11-0.03,1.73c-0.4,3.64-2.66,11.62-5.76,16.51"/><path d="M43.03,92.83c1.4,0.48,3.98,0.56,5.38,0.48c14.6-0.81,24.59-2.59,40.13-2.93c2.34-0.05,3.74,0.23,4.91,0.48"/></svg>