<svg><path d="M21.05,14.5c3.75,1.9,9.69,7.8,10.63,10.75"/><path d="M10.62,35.08c0.71,0.23,3.4,0.27,4.1,0.23c8.73-0.42,19.03-2.06,24.83-3.37c1.15-0.26,2.95,0.11,3.54,0.23"/><path d="M16.18,47.56c0.43,0.12,3.04,0.13,3.47,0.12c4.44-0.14,10.86-1.43,15.34-2.05c0.7-0.1,3.68,0.06,4.04,0.12"/><path d="M15.8,59.33c0.38,0.12,2.71,0.13,3.1,0.12C22.86,59.32,32,58,35.73,57.36c0.63-0.11,3.29,0.06,3.6,0.11"/><path d="M15.51,73.4c0.39,0.36,0.83,1.15,0.96,1.63c1.11,4.21,1.28,15.71,1.64,22.21"/><path d="M16.94,74.87c7.2-0.89,13.9-2.6,20.55-3.5c1.67-0.22,2.68,1.04,2.44,2.06c-0.99,4.25-1.86,10.22-3.62,17.28"/><path d="M18.42,93.55C23.8,93,31.6,92.57,38.98,91.74"/><path d="M85.47,10.43c0.09,0.29,0.2,0.73-0.19,1.14C83.03,13.98,68.25,21,51.36,22.5"/><path d="M53.66,26.93c0.03,0.4,0.06,1.02-0.06,1.59c-0.69,3.36-4.68,10.72-10.13,15.23"/><path d="M64.62,25.12c2.19,1.83,5.64,7.53,6.19,10.38"/><path d="M80.47,21.62c5,2.63,12.93,10.8,14.18,14.88"/><path d="M54.87,40.25c0.41,1.43,0.99,2.55,0.99,4.33c0,16.28-1.16,35.42-11.8,48.14"/><path d="M55.84,42.67c8.64-1.42,20.94-2.53,26.61-3.62c2.08-0.4,3.36,1.09,3.04,2.45c-0.71,3-2.28,7.5-2.81,10.25"/><path d="M55.84,54.42c8.64-1.42,24.21-1.53,29.88-2.62c2.08-0.4,3.36,1.09,3.04,2.45c-0.71,3-2.64,8-2.81,10.25"/><path d="M54.87,67.75c2.67,0,33.7-3,37.27-3c2.14,0,3.74,0.75,3.38,4.75c-0.47,5.26-2.99,17-5.48,24.75c-1.58,4.93-5.42,3.25-7.55,0.25"/><path d="M55.65,79.75c0.1,4.01-1.07,8.95-3.55,14.5"/><path d="M61.32,76.83c1.71,2.76,3.34,10.34,3.77,14.63"/><path d="M70.14,75.08c1.97,2.23,5.08,9.17,5.58,12.63"/><path d="M80.36,75.08c1.61,1.79,4.16,7.35,4.56,10.13"/></svg>