<svg><path d="M20.63,14c3.57,1.89,9.23,7.76,10.12,10.7"/><path d="M10.37,34.17c0.65,0.21,3.14,0.25,3.79,0.21c8.06-0.39,17.54-2.46,23.41-2.65c1.09-0.03,2.73,0.1,3.27,0.21"/><path d="M14.73,45.75c0.38,0.13,2.71,0.14,3.1,0.13c3.97-0.14,13.92-1.38,17.21-2.16c0.62-0.15,2.79,0.06,3.11,0.12"/><path d="M14.73,57.17c0.34,0.12,2.42,0.11,2.77,0.12c5,0.21,12.5-0.79,16.81-1.21c0.56-0.05,2.94,0.06,3.22,0.12"/><path d="M15.39,71.33c0.37,0.42,0.79,0.75,0.91,1.3c1.05,4.84,2.39,15.01,3.45,22.12"/><path d="M16.81,72.92c6.44-0.94,12.48-2.69,18.42-3.63c1.49-0.23,2.39,1.09,2.18,2.17c-0.89,4.47-1.16,11.05-2.74,18.49"/><path d="M19.97,91.93c4.8-0.57,10.6-1.05,17.19-1.93"/><path d="M51.54,14.82c0.36,0.29,0.73,0.53,0.89,0.89c1.25,2.87,2.2,10.48,3.06,15.63"/><path d="M53.41,16.75c7.4-1.49,22.24-3.38,26.48-3.76c1.55-0.14,2.48,1.09,2.26,1.9c-0.92,3.35-1.71,7.4-3.08,12.03"/><path d="M56.67,29.4c4.98-0.43,17.34-1.42,24.18-2.07"/><path d="M44.75,39.39c0.31,0.28,0.62,0.52,0.75,0.87c1.06,2.79,1.61,9.47,2.33,14.49"/><path d="M46.65,40.22c7.72-1.02,13.37-1.98,16.94-2.35c1.31-0.13,2.09,0.79,1.9,1.58c-0.77,3.26-1.68,7.47-2.83,11.98"/><path d="M47.98,52.83c4.2-0.42,9.14-0.38,16.96-0.99"/><path d="M72.92,37.7c0.26,0.3,0.53,0.56,0.65,0.94c0.91,3.01,1.45,8.78,2.08,14.19"/><path d="M74.56,39.26c8.49-0.99,14.5-2.2,18.42-2.56c1.44-0.13,2.3,0.77,2.09,1.54c-0.85,3.17-2.34,7.79-3.61,12.17"/><path d="M76.05,51.24c5.05-0.35,9.68-0.48,17.55-0.94"/><path d="M45.15,67.05c1.35,0.41,2.89,0.54,4.44,0.41c7.92-0.67,30.9-2.03,42.88-2.82c1.54-0.1,2.51,0.07,4.06,0.36"/><path d="M66.54,55.67c1.35,0.54,2.43,2.4,2.43,3.51c0,11.34,0,32.91-0.27,39.66"/><path d="M68.3,66.93c-4.78,8.3-17.6,20.97-27.55,25.67"/><path d="M69.79,66.75c3.25,3.04,18.51,18.29,22.04,21.28c1.2,1.01,2.22,1.45,3.42,1.74"/></svg>