<svg><path d="M20.88,14.65c1.13,0.34,3.32,0.65,4.52,0.58c6.46-0.38,18.57-2.47,21.16-2.61c1.28-0.07,2.45,0.87,2.18,1.86c-0.67,2.45-2.54,5.7-3.6,11.14"/><path d="M24.92,28.35c3.24-0.11,14.07-1.62,22.42-2.09"/><path d="M25.65,16c0,1.51-0.25,4.29-0.27,5.71c-0.18,10.25-3.97,23.26-12.33,29.83"/><path d="M26.59,36.3c0.13,0.51,0.57,1.67,0.62,2.06c0.33,2.84,1.34,9.88,1.8,15.26"/><path d="M27.26,37.6c3.66-0.57,14.22-2.52,16.72-2.6c1.03-0.04,1.42,1.2,1.28,2.04c-0.56,3.36-1.96,7.47-2.51,11.76"/><path d="M29.2,50.85c3.03-0.24,11.53-1.32,15.17-1.62"/><path d="M68.5,7.59c1.26,0.84,1.88,0.84,1.88,2.8c0,1.96,0,3.63,0,6.2"/><path d="M56.11,17.91c0.94,0.37,2.04,0.43,2.98,0.37c5.31-0.32,18.4-1.84,26.43-2.11c1.57-0.05,2.51,0.18,3.29,0.36"/><path d="M62.33,20.5c2.18,2.01,3.18,4.07,3.37,5.39"/><path d="M80.08,19.08c0.39,0.24,0.13,1.13,0.02,1.31c-1.13,1.82-2.57,4.94-3.34,5.98"/><path d="M52.97,28.92c1.18,0.41,2.56,0.45,3.74,0.41c7.53-0.23,22.78-1.98,31.61-2.22c1.97-0.05,3.15,0.2,4.14,0.4"/><path d="M54.83,39.33c0.97,0.25,2.76,0.31,3.73,0.25c12.36-0.82,16.8-2.01,28.26-2.53c1.62-0.07,2.59,0.12,3.4,0.24"/><path d="M70.26,30.04c0.44,0.25,1.38,1.91,1.47,2.42c0.51,2.93-0.13,20.84-0.15,21.59"/><path d="M50.75,47.5c2.56,1.46,6.61,5.99,7.25,8.25"/><path d="M15.38,63.99c1.77,0.63,5.03,0.81,6.8,0.63c21.08-2.12,49.59-4.69,64.25-4.94c2.95-0.05,4.73,0.3,6.2,0.62"/><path d="M35.88,70.15c0.6,0.23,2.7,0.25,3.3,0.23c6.25-0.26,25.57-2.38,29.22-2.6c1-0.06,3.6,0.11,4.1,0.22"/><path d="M36.38,78.15c0.6,0.23,2.7,0.25,3.3,0.23c6.25-0.26,24.82-2.63,29.22-2.6c1,0,3.6,0.11,4.1,0.22"/><path d="M37.25,86.5c0.52,0.41,1.06,0.75,1.28,1.27c1.22,2.98,1.47,8.98,2.18,13.23"/><path d="M38.98,87.77c12.52-1.52,22.77-2.52,31.6-3.53c2.21-0.25,3.48,1.15,3.24,2.32c-0.56,2.69-2.06,5.94-3.31,10.16"/><path d="M41.95,98.91c8.8-0.41,19.8-1.66,31.77-2.09"/></svg>