<svg><path d="M19.8,14c3.31,1.99,8.55,8.16,9.38,11.25"/><path d="M8.62,32.08c0.71,0.23,3.4,0.27,4.1,0.23c8.73-0.42,16.48-2.17,22.83-2.37c1.18-0.04,2.95,0.11,3.54,0.23"/><path d="M15.18,44.06c0.43,0.12,3.04,0.13,3.47,0.12c4.44-0.14,9.36-0.93,13.84-1.55c0.7-0.1,2.18,0.06,2.54,0.12"/><path d="M14.3,58.83c0.38,0.12,2.71,0.13,3.1,0.12c3.97-0.13,11.36-1.2,14.33-2.09c0.61-0.18,2.29,0.06,2.6,0.11"/><path d="M14.51,71.4c0.39,0.36,0.83,1.15,0.96,1.63c1.11,4.21,2.28,13.71,3.14,20.71"/><path d="M15.44,72.87c7.2-0.89,10.9-2.1,17.55-3c1.67-0.22,2.68,1.04,2.44,2.06c-0.99,4.25-1.36,8.72-3.12,15.78"/><path d="M18.42,89.55c5.37-0.54,8.68-0.47,16.06-1.31"/><path d="M62.89,18.56c0.21,0.13,0.63,0.93,0.7,1.24c0.48,2.27,1.06,5.3,1.73,9.59"/><path d="M64.08,19.28c6.19-1.08,21.05-2.64,24.95-2.81c1.52-0.07,2.27,0.49,1.86,2.18c-0.51,2.1-1.41,4.65-2.21,6.48"/><path d="M65.62,27.8c4.34-0.46,19.38-1.51,25.29-2.33"/><path d="M75.49,12c0.68,1,1.22,2.32,1.22,3.18c0,3.82,0.19,11.82,0.19,18.57"/><path d="M56.68,34.88c0.84,0.38,2.38,0.44,3.23,0.38c10.04-0.76,29.2-2.49,34.65-2.86c1.4-0.09,2.25,0.18,2.95,0.37"/><path d="M65.51,42.24c0.3,0.57,1.04,1.68,1.04,2.82c0,0.56,0.1,34.58-0.01,38"/><path d="M67.22,44.24c6.78-0.99,18.55-2.52,21.24-2.99c0.98-0.17,1.58,0.95,1.44,1.58c-0.57,2.6-1.73,7.35-2.96,11.12"/><path d="M66.67,55.88c8.08-0.63,18.46-1.13,22.47-1.74"/><path d="M66.65,65.99C76,65,88.37,63.63,89.47,63.43c1.11-0.2,1.78,1.13,1.63,1.87c-0.65,3.06-2.39,8.72-3.78,13.17"/><path d="M66.66,79.64c6.59-0.39,16.59-0.89,23.47-0.96"/><path d="M43.93,18.5c3.68,1.35,9.5,5.54,10.42,7.63"/><path d="M41.43,37.25c3.32,1.26,8.59,5.18,9.42,7.13"/><path d="M40,59.99c1.63,0.85,3.19,0.78,3.94,0.66c2.81-0.44,8.56-4.49,9.65-4.91c1.08-0.42,2.21,1.06,1.49,2.32s-4.39,8.68-4.94,9.74c-0.54,1.06-0.56,2.33,0.72,3.54c1.63,1.53,2.71,2.83,3.98,3.94c0.95,0.83,0.54,2.32-0.54,3.38c-1.08,1.06-11.46,6.92-12.54,7.34"/><path d="M39.18,86.76c2.16-0.36,6.4-0.99,9.71-0.54c7.14,0.98,18.35,4.12,24.81,5.74c10.28,2.58,15.28,2.81,21.76,1.55"/></svg>