<svg><path d="M20.38,14.75c4.19,1.94,10.82,7.98,11.87,11"/><path d="M11.37,35.08c0.63,0.23,3.04,0.27,3.67,0.23c7.8-0.42,16.97-2.67,22.64-2.87c1.05-0.04,2.64,0.11,3.16,0.23"/><path d="M16.73,47.06c0.38,0.12,2.71,0.13,3.1,0.12C23.8,47.05,30.5,46,34.54,45.13c0.62-0.13,3.29,0.06,3.61,0.12"/><path d="M17.23,59.33c0.34,0.12,2.42,0.13,2.77,0.12c3.55-0.13,12-1.45,15.31-2.09c0.56-0.11,2.94,0.06,3.22,0.11"/><path d="M18.17,73.9c0.42,0.41,0.89,0.74,1.02,1.29c1.18,4.77,1.58,14.3,2.77,21.31"/><path d="M20.31,74.86c5.48-1.06,10.2-1.41,15.25-2.48c1.27-0.26,2.04,1.24,1.85,2.46c-0.76,5.06-1.41,7.91-2.75,16.34"/><path d="M22.15,93.55c4.09-0.65,9.17-0.76,14.78-1.75"/><path d="M46.06,21.65c1.5,0.35,4.24,0.43,5.73,0.35c9.46-0.5,24.96-1.5,33.27-1.96c2.48-0.13,3.99-0.33,5.23-0.15"/><path d="M66.84,10.5c0.74,0.33,1.18,1.48,1.33,2.13c0.15,0.66,0,11.66-0.15,15.76"/><path d="M51.66,29.77c0.99,0.34,2.8,0.38,3.78,0.34c8.1-0.38,18.48-2.11,26.12-2.36c1.64-0.05,2.63,0.16,3.46,0.33"/><path d="M47.21,37.16c0.22,0.25,0.44,0.46,0.53,0.78c0.75,2.5,2.55,9.4,3.07,13.89"/><path d="M48.56,38.85c4.76-0.98,39.84-4.1,42.37-4.43c0.92-0.12,2.18,0.85,1.93,2.25c-0.52,2.93-1.43,8.42-2.8,12.61"/><path d="M63.55,39.31c0.04,0.2,0.05,0.52-0.08,0.82c-1.14,2.6-2.61,4.59-7.48,7.12"/><path d="M73.47,37.06c0.51,0.34,0.95,0.73,0.95,1.25c0,0.7-0.15,2.01-0.15,2.51c0,1.36,1.75,1.92,5.1,1.92c3.03,0,5.26,0,6.54-0.44"/><path d="M51.5,50.47c2.97-0.37,34.82-2.75,38.9-3.32"/><path d="M52.95,56.54c0.46,1.03,1.13,1.8,1.13,3.17s0.21,20.92-0.34,26.67"/><path d="M54.85,58.6c2.61-0.17,23.84-2.8,26.22-3c1.98-0.17,3.03,0.92,3.03,2.16c0,3.04-0.58,25.13-0.58,26.13"/><path d="M54.13,67.13c4.87-0.38,25.14-2.74,29.32-2.74"/><path d="M54.34,76.04c7.35-0.73,21.35-2.26,29.14-2.41"/><path d="M54.01,84.18c7.35-0.55,22.77-2.04,29.48-2.04"/><path d="M60.29,88.76c0.46,0.94-0.34,1.86-1.25,2.55c-2.72,2.07-9.88,6.49-15.33,8.93"/><path d="M76.44,86.61c7.22,3.12,14.52,9.87,16.33,12.94"/></svg>