<svg><path d="M40,13.39c0.07,0.27,0.25,0.8-0.14,1.1C36.25,17.25,25.75,22,13.32,24.5"/><path d="M16.76,27.53c0.02,0.35,0.05,0.9-0.04,1.41c-0.53,2.96-3.04,8.26-7.39,13.89"/><path d="M26.92,26.36c2.37,1.79,6.11,7.35,6.7,10.13"/><path d="M38.07,22.97c3.09,1.79,7.98,7.35,8.75,10.14"/><path d="M24.64,35.6c0.29,0.98,0.45,1.67-0.15,2.78c-1.14,2.12-3.34,4.54-5.26,7.34c-0.48,0.7-0.31,1.93,0.29,2.02c3.48,0.51,7.01,1.31,9.64,3.11"/><path d="M40.31,38.51c0.17,1.52-0.43,2.57-0.88,3.05c-6.14,6.71-14.5,13.3-21.4,20.39c-0.98,1.01-0.58,1.64,0.58,1.31c4.89-1.37,17.07-4.19,23.35-5.5"/><path d="M39.19,52.79c1.91,1.88,4.94,7.72,5.41,10.64"/><path d="M9.89,73.95c0.71,0.33,2.59,0.73,4.09,0.58c10.13-1,20.44-2.99,29.54-3.47c1.56-0.08,2.82-0.04,4.23,0.22"/><path d="M29.81,65.34c0.3,0.42,0.29,1.32,0.19,2.21c-1.65,13.51-8.16,23.72-18.75,28.24"/><path d="M29.76,77.96c6.63,2.81,13.96,10.56,16.43,15.47"/><path d="M65.23,15.48c0.03,0.45,0.07,1.17-0.07,1.82c-0.81,3.84-5.43,12.28-11.76,17.45"/><path d="M79.08,15.08C84.9,19,91.99,26.49,93.98,30.5"/><path d="M74.13,27.75c0.06,0.86,0.3,2.3-0.13,3.45c-3.58,9.68-10.25,23.55-22.59,33.05"/><path d="M73.96,34.33c5.08,8.4,14.55,20.4,19.21,24.86c1.16,1.11,2.49,1.83,3.58,2.2"/><path d="M59.59,66.86c0.31,0.46,0.62,0.84,0.75,1.41c1.06,4.53,1.83,18.04,2.55,26.18"/><path d="M61.02,68.75c9.23-1.25,18.61-2.14,23.71-3.04c1.74-0.31,2.81,2.08,2.54,3.43c-1.27,6.48-2.72,11.29-3.89,19.25"/><path d="M63.71,90.66c6.71-0.62,14.49-1.06,23.23-1.79"/></svg>