<svg><path d="M19.14,13.9c0.32,0.85,0.85,2.16,0.96,2.59c0.11,0.43,0.47,31.67,0.41,34.34"/><path d="M20.21,15.26c5.04-0.26,19.21-2.21,27.2-2.66c1.21-0.07,1.94-0.14,2.55-0.03"/><path d="M34.01,14.68c0.53,0.21,0.85,0.95,0.96,1.37c0.11,0.43,0.15,5.77,0.09,8.44"/><path d="M20.57,26.01c8.22-0.92,18.72-1.87,24.43-2.5c2.31-0.26,2.97,0.62,2.66,1.77c-0.55,2.1-1.84,5.1-2.4,7.62"/><path d="M20.75,35.61c3.43-0.37,23.98-1.94,27.21-2.19"/><path d="M34.18,34.64c0.53,0.21,0.85,0.95,0.96,1.37c0.11,0.42,0.18,7.69,0.12,10.36"/><path d="M20.7,48.21c3.43-0.37,18.3-2.11,26.29-2.56c1.21-0.07,1.94-0.13,2.55-0.03"/><path d="M59.58,16.08c1.06,0.21,1.69,0.53,3.81,0.21c2.12-0.32,18.56-3.58,20.01-3.9c1.46-0.32,2.51,1.17,1.99,2.33c-6.23,13.79-16.22,24.47-28.15,29.67"/><path d="M57.71,19.93c3.21,0.6,18.88,16.69,30.05,23.28c1.74,1.03,3.01,1.71,4.63,2.05"/><path d="M30.13,55.67c1.16,0.38,3.27,0.42,4.43,0.38c12.02-0.44,28.93-2.55,41.03-2.88c1.92-0.05,3.08,0.18,4.04,0.37"/><path d="M33.53,64.32c0.45,0.3,1.03,0.53,1.11,0.92c0.61,2.85,1.11,7.51,2.18,12.77"/><path d="M34.77,65.51c6.18-0.48,31.7-2.74,35.86-3.37c2.62-0.4,3.87,0.35,3.53,3.02c-0.32,2.58-0.88,3.95-3,8.72"/><path d="M36.83,77.05c6.11-0.25,32.18-2.61,37.36-2.67"/><path d="M38.5,82.67c2.05,1.71,5.3,7.05,5.81,9.72"/><path d="M69.62,79.81c0.02,0.31,0.03,0.81-0.03,1.26c-0.38,2.66-2.59,8.49-5.61,12.06"/><path d="M17.88,96.04c1.79,0.52,5.07,0.61,6.85,0.52c18.6-0.88,46.19-4.3,61.64-4.07c2.98,0.04,4.77,0.25,6.26,0.51"/></svg>