<svg><path d="M52.41,11.5c0.58,0.34,1.81,2.58,1.93,3.26c0.12,0.69-0.07,14.6-0.19,18.9"/><path d="M28.6,20.07c0.58,0.34,1.25,1.8,1.16,2.5c-0.38,3.07-0.86,4.92-2.42,11.17c-0.38,1.54-0.29,3.09,1.15,2.88C33.68,35.85,74,31.7,81.3,31.51"/><path d="M81.44,16.66c0.58,0.35,1.26,2.57,1.16,3.26c-0.58,4.23-0.65,7.71-1.61,15.58"/><path d="M24.63,48.43c1.13,0.46,3.19,0.51,4.32,0.46c11.72-0.52,29.43-3.93,50.99-4.06c1.88-0.01,3,0.22,3.94,0.45"/><path d="M34.58,57.8c0.52,0.29,1.18,0.52,1.27,0.91c0.7,2.81,1.12,9.46,2.7,15.05"/><path d="M35.57,59.28c7.87-0.56,29.18-3.8,34.54-3.89c2.22-0.04,3.72,0.74,3.22,2.37C72.44,60.7,71,64.5,69.3,68.68"/><path d="M38.97,71.83c5.82,0,25.12-2.48,33.15-2.57"/><path d="M37,77.92c1.87,2.2,4.84,9.05,5.31,12.47"/><path d="M69.61,74.56c0.03,0.44,0.05,1.13-0.05,1.76c-0.61,3.71-4.08,11.84-8.84,16.82"/><path d="M15.88,95.98c1.52,0.54,4.31,0.69,5.82,0.54c17.8-1.77,47.3-3.35,64.11-3.73c2.53-0.06,4.05,0.26,5.31,0.53"/></svg>