<svg><path d="M25.4,23c0.61,0.61,1.15,1.68,1.29,2.48C27.5,30,28.83,38.13,30.03,44.7c0.4,2.21,0.56,4.23,0.69,5.05"/><path d="M27.6,24.64c8.29-0.96,40.92-4.25,49.9-4.82c3.19-0.2,5.09,1.69,4.37,4.92c-0.78,3.47-2.56,11.33-4.2,16.8c-0.77,2.55-1.37,4.41-1.59,4.75"/><path d="M40.98,11.59c0.71,0.71,1.55,1.91,1.73,3.19c1.78,12.6,3.33,25.67,3.89,30.47"/><path d="M62.92,9.75c0.67,0.67,1.04,2.16,0.98,2.69c-1.57,15.72-2.03,20.81-3.59,31.91"/><path d="M29.68,35.82c8.32-0.95,41.19-3.95,49.35-4.12"/><path d="M31.88,47.7c8.62-0.95,36.08-2.53,43.75-2.86"/><path d="M18.63,57.67c2.87,0.7,5.6,0.59,8.25,0.35c15.75-1.4,36.84-2.74,55.5-3.72c2.92-0.15,5.89,0.01,8.75,0.72"/><path d="M31.92,66.1c0.8,0.8,1.41,2.22,1.52,2.76c0.71,3.29,1.26,6.01,2.23,11.37c0.18,0.99,0.36,2.08,0.56,3.28"/><path d="M34.06,67.51c10.94-1.26,32.13-3.5,38.56-3.62c2.66-0.05,3.46,1.52,2.86,3.79c-1.07,4.08-1.73,5.31-3.14,10.1"/><path d="M36.73,81.27c5.95,0,22.99-1.86,33.77-2.48c1.85-0.11,3.51-0.18,4.92-0.19"/><path d="M40,84.12c1.43,1.81,3.7,7.44,4.06,10.26"/><path d="M68,82.75c0.22,0.62,0.1,1.6-0.03,1.95c-0.95,2.73-1.83,4.98-4.25,8.93"/><path d="M14.88,97.36c2.22,0.67,6.3,0.78,8.53,0.67c23.15-1.13,37.81-1.8,62.44-2.27c3.7-0.07,5.93,0.32,7.78,0.66"/></svg>