<svg><path d="M10.63,23.89c1.87,0.11,1.79,0.42,4.2,0.25c7.03-0.5,10.92-0.55,20.53-1.53c0.86-0.09,2.49,0.11,2.92,0.22"/><path d="M12.02,36.28c0.31,0.34,0.7,1.36,0.76,1.81c0.42,3.24,1.57,9.43,2.51,15.89"/><path d="M13.21,37.6c4.7-0.65,20.62-3.34,23.83-3.44c1.33-0.04,2.22,0.85,1.92,2.74c-0.54,3.39-1.69,6.47-3.31,12.95"/><path d="M15.54,52.32c4.54-0.59,16.71-1.71,21.51-1.81"/><path d="M13.53,59.96c1.84,2.94,4.76,13.43,5.22,18"/><path d="M34.36,56.66c0.02,0.42,0.54,2.09,0.46,2.69c-0.43,3.57-5.33,15.15-8.84,21.18"/><path d="M11.36,88.11c1.05,1.12,2.1,0.57,3.72-0.11c6.91-2.9,14.13-5.86,23.58-9.45"/><path d="M67.83,12.5c0.87,0.33,2.12,1.98,2.1,2.95c-0.06,3.05-0.06,7.25-0.07,10.02"/><path d="M49.83,25.99c0,3.23-2.87,12.1-4.17,14.25"/><path d="M49.69,28.6c6.3-0.77,37.38-3.67,42.5-3.82c9.81-0.28,0.35,7.59-1.64,9.24"/><path d="M57.37,35.42c0.17,0.48,0.62,1.92,0.32,2.84c-2,6.29-7.99,16.41-16.05,25.17"/><path d="M56.31,48.2c0.22,0.04,1.17,0,1.81-0.12c2.09-0.39,6.28-2.37,8.92-2.56c2.19-0.16,2.75,0.98,2.11,3.19C65.5,61.25,54.5,82.75,40,93"/><path d="M49.09,60.1c2.5,1.66,6.46,6.85,7.08,9.43"/><path d="M72.99,44.21c0.52,0.12,2.54,0.54,3.6,0.32c3.66-0.78,13.39-2.2,14.79-2.63c2.1-0.64,3.47,1.12,3.38,3.68c-0.14,4.35-1.02,15.92-2.8,24.89c-1.39,7-5.47,4.28-6.7,1.36"/><path d="M75.64,45.17c0.56,1.52,0.53,2.31,0.53,4.65c0,13.97,0.24,22.1,0.24,29.2c0,12.72,2.33,14.72,11.28,14.72c9.55,0,11.2-1.2,11.2-11.65"/></svg>