<svg><path d="M30.39,14c0.73,0.31,1.77,1.36,1.77,3.37c0,2.82-0.05,7.31-0.06,9.88"/><path d="M13.43,28.63c0,2.52-3.15,12.22-4.14,13.9"/><path d="M13.44,29.75c0.85,0.06,31.38-3.85,35.69-4.1c7.51-0.43,2.12,5.6-0.95,8.04"/><path d="M41.6,35.67c0.06,0.2-0.12,0.85-0.48,1.09c-4.95,3.35-12.29,5.5-23.83,7.21"/><path d="M12.38,51.26c0.98,0.33,2.78,0.39,3.76,0.33c7.36-0.43,20.61-2.59,26.94-3.41c1.62-0.21,2.62,0.16,3.43,0.32"/><path d="M9.99,60.04c1,0.36,2.81,0.39,3.81,0.36c7.04-0.25,24.2-3.15,31.73-3.67c1.65-0.11,2.65,0.17,3.48,0.35"/><path d="M29.26,32.9c0.76,0.45,1.22,2.04,1.37,2.95c0.15,0.91,0.1,24.98-0.06,30.66"/><path d="M14.51,73.83c0.24,0.34,0.49,0.62,0.6,1.04c0.84,3.35,2,15.08,2.57,21.1"/><path d="M15.32,74.98c6.36-1.01,23.46-2.89,26.52-3.36c1.12-0.17,2.29,1.24,2.13,2.26c-0.66,4.21-1.92,10.26-3.34,16.33"/><path d="M17.41,92.7c4.61-0.48,20.47-1.88,25.03-2.42"/><path d="M67.6,17.48c0.03,0.38,0.07,0.97-0.07,1.52c-0.81,3.2-5.78,10.26-12.84,16.51"/><path d="M78.52,15.83c6.65,4.24,14.74,12.33,17.02,16.67"/><path d="M74.91,29.25c0.07,0.8,0.34,2.14-0.14,3.22c-4.02,9.01-13.16,21.98-25.35,30.78"/><path d="M74.72,34.33c5.25,8.48,15.03,20.59,19.83,25.09c1.19,1.12,2.57,1.85,3.7,2.22"/><path d="M57.47,66.91c0.36,0.47,0.73,0.86,0.88,1.45C59.6,73.01,61,86.5,61.44,95.2"/><path d="M58.65,68.86c10.35-1.61,21.28-1.72,27.29-2.65c2.05-0.32,3.3,2.13,2.99,3.52c-1.49,6.65-2.61,12.11-3.98,20.27"/><path d="M61.4,91.84c7.89-0.64,15.68-1.09,25.96-1.84"/></svg>