<svg><path d="M45,10.88c0.06,0.43,0.12,1.12-0.11,1.74C43.52,16.28,35.71,24.33,25,29.25"/><path d="M45.66,15c0.96,0.13,1.67,0.17,2.98,0.05c4.21-0.4,11.06-1.32,14.03-1.9c2.7-0.53,3.48,0.96,2.01,2.74c-3.81,4.61-6.7,9.42-9.93,13.86"/><path d="M25.58,34.83c0.92,0.42,1.63,1.18,1.85,2.02c1.13,4.32,1.64,6.45,2.44,9.43c0.31,1.17,0.67,2.48,1.13,4.11"/><path d="M28.42,35.91c10.71-1.79,30.73-4.17,43.09-5.54c3.7-0.41,6.63-0.18,5.45,4.39c-0.59,2.29-1.45,4.32-2.81,6.94c-0.48,0.93-1.03,1.93-1.65,3.04"/><path d="M51.24,34.58c0.72,0.72,0.9,1.54,0.9,2.58c0,1.96-0.01,4.84-0.01,6.59"/><path d="M31.46,47.27c9.04-1.15,31.29-3.77,40.75-4.21"/><path d="M48.4,47.68c0.1,0.4-0.17,1.39-0.69,1.86c-3.46,3.09-12.34,8.97-24.12,12.49"/><path d="M46.5,53.81C55.88,61,62.25,78,53.83,93.46c-2.19,4.03-5.96,2.29-9.39-0.46"/><path d="M48.25,58.31c0.09,0.46,0.18,1.19-0.17,1.85c-2,3.74-13.1,11.77-28.47,17.05"/><path d="M53.49,67.48c0.11,0.59-0.13,1.63-0.72,2.39c-4.15,5.38-16.53,15-38.03,22.88"/><path d="M77.5,50c0.12,0.81-0.22,1.9-0.64,2.29c-2.61,2.46-9,7.06-19.7,10.77"/><path d="M56.75,65.23C62,69.12,77.72,80.42,85.33,85.6c2.37,1.62,4.82,2.87,7.29,3.52"/></svg>