<svg><path d="M11.14,18.15c0.86,0.35,2.84,1.19,4.01,1.17c3.85-0.06,20.03-2.62,22.4-3.07c2.38-0.46,3.19,1.92,1.77,3.41C36.89,22.2,26.96,30.7,25.46,32.52"/><path d="M17.89,29.01c3.26,1.14,11.72,5.51,13.25,8.48"/><path d="M7.95,46.17c0.68,0.31,2.02,1.5,6.02,0.53c6.03-1.46,20.44-3.94,23.61-4.64c7.17-1.57-0.58,8.43-3.8,12.47"/><path d="M23.86,47.32c1.12,0.92,1.96,2.15,1.96,3.99c0,1.84-0.06,36.6-0.06,39.98c0,11.66-5.6,0.61-7.28-0.92"/><path d="M60.08,11.86c0.04,0.36,0.08,0.92-0.08,1.44c-0.99,3.03-8.25,10.2-14.92,14.74"/><path d="M58.78,18.65c2,0,14.79-2.28,16.89-2.47c1.8-0.16,2.73,1.76,1.97,2.58c-3.16,3.43-7.88,6.5-11.21,11.13"/><path d="M46.41,32.83c0.39,0.27,0.8,0.5,0.97,0.84c1.36,2.69,2,9.62,2.93,14.46"/><path d="M48.36,33.66c8.04-1.4,35.11-3.96,39.71-4.31c1.68-0.13,3.21,1.23,2.45,3.53c-1.03,3.13-2.28,5.88-4.3,10.88"/><path d="M67.64,32.83c0.44,0.47,0.74,1.02,0.78,2.58c0.18,7.48-0.01,5.79-0.01,8.34"/><path d="M50.49,45.77c5.41-0.4,28.92-3.09,36.35-3.71"/><path d="M63.37,47.18c0.06,0.32,0.12,0.84-0.11,1.3c-1.36,2.74-9.14,8.76-19.8,12.44"/><path d="M62.9,53.06c8.64,3.83,15.6,24.49,8.98,38.03c-2.9,5.92-7.46,0.78-8.54,0.04"/><path d="M64.91,56.56c0.06,0.46,0.13,1.18-0.13,1.84c-1.53,3.88-10.34,12.39-22.4,17.6"/><path d="M69.82,66.98c0.08,0.54,0.16,1.38-0.15,2.15c-1.86,4.54-12.55,14.5-27.17,20.6"/><path d="M89.3,53.23c0.04,0.28,0.09,0.72-0.09,1.12c-1.06,2.36-7.13,7.54-15.44,10.72"/><path d="M72.84,63.73c3.14,2.79,17.95,17.34,21.36,20.08c1.16,0.93,2.15,1.33,3.3,1.59"/></svg>