<svg><path d="M54.64,9.86c0.88,0.88,1.19,1.89,1.19,3.06c0,1.83-0.08,3.13-0.08,5.83"/><path d="M27.23,21.67c2.89,0.57,5.86,0.59,8.79,0.2c12.11-1.62,30.21-2.86,41.86-3.56c2.58-0.15,5.7-0.19,8.15,0.72"/><path d="M39.75,27.51c0.74,0.74,1.31,1.6,1.44,2.34c0.53,1.44,0.74,2.79,1.15,4.84c0.21,1.01,0.4,2.01,0.6,2.91"/><path d="M41.6,28.38c8.77-1.26,21.03-2.26,24.76-2.76c1.89-0.25,3.05,1.24,2.5,2.49c-0.61,1.38-1.48,3.26-2.23,5"/><path d="M44,36.15c3.49-0.23,13.29-1.42,20-1.94c1.77-0.14,3.33-0.25,4.5-0.31"/><path d="M24.88,42c0,3.68-3.69,13.8-5.12,16.25"/><path d="M26.24,46.24C47,43.75,67.25,41.38,83.2,40.59c12.05-0.6,2.55,7.16-0.45,9.28"/><path d="M34.1,53.01c1.88,0.73,3.94,1.02,5.9,0.81c8.33-0.89,18.05-2.16,26.63-3.22c1.72-0.21,3.86-0.35,5.62-0.07"/><path d="M53.04,55.47c-0.04,0.9-0.49,1.58-1.31,2.04c-2.93,2.51-10.9,6.64-21.65,9.3"/><path d="M51.76,60.34c5.99,4.66,9.49,21.53,4.96,35.14c-1.98,5.96-6.18,0.7-6.96,0.04"/><path d="M51.38,65c0,0.88-0.31,1.69-1.06,2.43c-3.07,3.07-11.9,8.2-23.47,11.49"/><path d="M53.96,74.44c0.18,1.05-0.24,1.9-1.01,2.62C48.88,80.88,38.75,87,24.89,92.05"/><path d="M73.79,57.28c-0.17,0.85-0.44,1.78-1.15,2.47c-1.96,2.49-5.49,4.82-12.33,8.37"/><path d="M58.43,70.72C61.94,72.91,73.39,80.83,81,85.69c2.94,1.87,5.5,3.31,9.28,4.42"/></svg>