<svg><path d="M38.39,13c0.07,0.46,0.28,1.34-0.14,1.87c-5.28,6.56-13.08,12.58-26.84,17.86"/><path d="M16.81,34.73c2.54,1.4,6.57,5.75,7.2,7.92"/><path d="M28.99,29.42c1.93,0.99,4.99,4.09,5.47,5.64"/><path d="M45.16,28.01c0.08,0.63,0.33,1.81-0.17,2.52c-6.22,8.84-15.42,16.95-31.64,24.08"/><path d="M34.94,43.92c9.93,5.83,15.33,28.89,8.02,46.93c-4.26,10.52-8.51,0.96-9.61,0.05"/><path d="M37.1,49.67c0.07,0.51,0.14,1.31-0.13,2.03c-1.6,4.29-10.81,13.7-23.42,19.46"/><path d="M42.38,61.14c0.08,0.63,0.34,1.72-0.16,2.54c-3.66,6.07-13.59,16.24-27.73,24.26"/><path d="M66.02,14c0.04,0.8,0.09,2.06-0.09,3.21c-1.04,6.76-7.01,21.59-15.18,30.67"/><path d="M60.5,36.87c0.85,0.67,3.48,0.68,4.89,0.45c6.61-1.07,23.08-4.6,26.47-4.82s4,1.75,3.9,6.5c-0.17,7.84-4.77,40.94-13.08,53.49C80.26,96.13,77,93,74.25,90.36"/><path d="M58.25,58.72c1.25,0.28,2.04,0.53,3,0.53c3.5,0,8-0.5,11-1c1.86-0.31,2.5-0.25,3.5-0.22"/></svg>