<svg><path d="M34.9,14c0.06,0.44,0.25,1.27-0.13,1.77C30.13,22,23.26,27.71,11.15,32.73"/><path d="M12.06,36.23c2.81,1.84,7.25,7.56,7.95,10.42"/><path d="M25.99,27.92c2.11,1.26,5.45,5.18,5.97,7.14"/><path d="M41.16,28.51c0.08,0.63,0.38,1.85-0.17,2.52c-7.24,8.72-13.74,14.72-31.14,24.58"/><path d="M29.44,45.42C40.25,54.75,42.25,77,36.96,91.85c-3.81,10.69-8.01,0.96-9.11,0.05"/><path d="M31.11,52.17c0.06,0.49,0.12,1.26-0.12,1.96c-1.4,4.14-9.44,13.22-20.44,18.78"/><path d="M35.39,63.14c0.07,0.62,0.3,1.7-0.14,2.51c-3.27,6.01-12.14,16.09-24.76,24.04"/><path d="M53.73,48.06c3.83-0.62,8.69-1.33,12.03-2.38c0.98-0.31,2.6-0.3,3.11-0.12"/><path d="M51.87,14.83c0.69,1.12,1.29,2.3,1.29,3.84c0,4.17,0.28,59.83,0.28,66.03c0,3.8,1.72,4.22,3.28,2.64c4.54-4.59,6.79-7.09,10.26-10.6"/><path d="M94.06,30.94c0.23,0.78,0.19,2.45-0.8,3.46c-5.51,5.61-10.5,10.34-17.48,14.6"/><path d="M73.29,13c0.8,1.18,1.49,3.06,1.49,4.55c0,3.93-0.37,55.04-0.37,59.65c0,13.79,1.09,14.55,11.39,14.55c8.95,0,10.39-1.26,10.39-12.57"/></svg>