<svg><path d="M39.89,12.5c0.07,0.46,0.28,1.34-0.14,1.87c-5.28,6.56-13.08,12.58-26.84,17.86"/><path d="M15.31,34.98c2.9,2.06,7.48,8.47,8.2,11.67"/><path d="M28.74,27.67c2.73,1.57,7.04,6.45,7.72,8.89"/><path d="M46.66,28.51c0.09,0.63,0.44,1.88-0.18,2.52C38,39.75,28.5,47.25,12.86,55.11"/><path d="M32.94,45.42c9.56,7.08,14.83,29.39,7.52,47.43c-4.26,10.52-9.01,0.96-10.11,0.05"/><path d="M36.1,50.17c0.07,0.49,0.29,1.35-0.14,1.98C33,56.5,23.25,65,10.8,71.16"/><path d="M39.39,62.14c0.07,0.58,0.32,1.57-0.15,2.32c-3.5,5.56-12.99,14.38-26.49,21.73"/><path d="M49.75,36c1.1,0,3,0.45,5.16,0.25c8.09-0.75,23.6-2.75,38.52-4c2.16-0.18,2.71-0.25,4.07,0"/><path d="M78.77,11.83c1.23,0.92,2.17,2.49,2.26,5.52c0.4,14.55-0.26,69.16-0.26,74.12c0,12.53-6.71,1-8.21-0.25"/><path d="M77.3,41.5c0.08,0.81,0.42,2.2-0.15,3.26C72.25,53.75,65,64,49.62,75.94"/></svg>