<svg><path d="M65.24,9c0.1,0.5,0.39,1.43-0.2,1.99c-7.43,6.99-18.42,13.41-37.79,19.05"/><path d="M35,29.5c3,2.21,7.75,9.07,8.5,12.5"/><path d="M53.75,21.5c2.65,1.76,6.84,7.26,7.5,10"/><path d="M75.2,20.5c0.13,0.74,0.51,2.13-0.26,2.96c-9.53,10.4-23.61,19.94-48.44,28.33"/><path d="M57.75,39C69,45.75,75.11,72.45,66.83,93.33c-4.83,12.17-9.64,1.12-10.89,0.06"/><path d="M60.75,44.75c0.09,0.59,0.19,1.53-0.18,2.38c-2.22,5.02-14.98,16.03-32.43,22.77"/><path d="M65.25,56.75c0.1,0.81,0.44,2.19-0.21,3.24C60.25,67.75,47.25,80.75,28.75,91"/></svg>