<svg><path d="M37.89,13c0.07,0.49,0.27,1.41-0.14,1.96c-5.13,6.89-12.72,13.21-26.1,18.77"/><path d="M14.81,35.98c2.54,1.88,6.57,7.74,7.2,10.67"/><path d="M27.99,27.67c2.29,1.39,5.9,5.72,6.47,7.89"/><path d="M42.66,29.01c0.08,0.63,0.41,1.87-0.17,2.52C34.75,40.25,27,47.25,10.86,55.61"/><path d="M30.44,45.42c9.06,8.08,14.33,28.89,7.02,46.93c-4.26,10.52-8.51,0.96-9.61,0.05"/><path d="M32.61,52.67c0.06,0.5,0.27,1.37-0.12,2.03C29.75,59.25,21.75,67,10.55,74.16"/><path d="M36.38,63.64c0.07,0.62,0.32,1.7-0.15,2.51c-3.5,6.01-12.99,16.09-26.49,24.04"/><path d="M65.25,10.25c0.06,0.74,0.34,1.95-0.13,2.96c-3.62,7.72-11.7,19.23-23.05,28.86"/><path d="M62.76,22.41c0.33,0.04,1.76,0,2.71-0.11c3.14-0.35,11.96-3.09,16.44-4.18c3.08-0.75,3.95,0.85,3.16,2.89c-4.31,11.13-21.31,34.68-40.65,42.02"/><path d="M56.65,27.08c4.93,5.06,27.26,24.28,33.9,28.9c1.98,1.38,3.58,2.05,5.51,2.46"/><path d="M52.33,66.71c0.42,0.5,0.85,0.92,1.03,1.55c1.45,4.97,1.61,20.26,2.6,29.19"/><path d="M53.44,68.46c11.76-1.68,27.72-3.19,32.62-3.85c1.79-0.24,2.87,1.42,2.61,2.82c-1.06,5.81-2.46,15.95-4.03,23.98"/><path d="M56.16,94.21c5.75-0.74,23.43-1.37,31.34-2.5"/></svg>