<svg><path d="M37.39,14.5c0.07,0.46,0.28,1.34-0.14,1.87C31.96,22.92,21.25,31,11.4,34.73"/><path d="M15.56,36.23c2.81,1.66,7.25,6.84,7.95,9.42"/><path d="M28.49,27.92c2.29,1.35,5.9,5.54,6.47,7.64"/><path d="M41.66,29.01c0.08,0.63,0.33,1.81-0.17,2.52c-6.22,8.84-15.42,16.95-31.64,24.08"/><path d="M30.25,43.92C40,51.25,45,72.25,38.07,90.49c-3.95,10.41-8.84,0.94-9.98,0.05"/><path d="M33.11,51.17c0.06,0.46,0.28,1.28-0.12,1.87C29.75,57.75,21,66.25,11.55,70.91"/><path d="M37.39,61.64c0.07,0.59,0.3,1.6-0.14,2.37c-3.27,5.67-12.14,15.18-24.76,22.68"/><path d="M45.46,20.81c1.58,0.64,4.49,0.83,6.08,0.64c13.6-1.57,19-1.83,39.46-3.16c2.64-0.17,4.23,0.31,5.55,0.63"/><path d="M71.34,22.88c0.34,0.57,0.4,1.26,0.31,1.75c-0.48,2.91-4.67,10.82-8.47,14.73"/><path d="M53.26,41.32c0.61,1.3,1.22,1.96,1.22,3.69c0,15.99-0.02,41.99-0.02,51.24"/><path d="M53.84,42.89c3.44-0.22,30.89-3.68,34.02-3.94c2.61-0.22,3.08,1.44,3.08,2.74c0,9.31,0.05,39.44-0.27,53.29"/><path d="M55.28,66.2C64,66,81.75,64,90.73,64.13"/><path d="M54.97,93.37c11.28-0.87,25.28-1.62,35.39-2.14"/></svg>