<svg><path d="M34.39,14c0.07,0.46,0.33,1.38-0.14,1.87C30.25,20,23.5,26.25,12.9,31.23"/><path d="M13.81,33.98c2.72,1.79,7.02,7.38,7.7,10.17"/><path d="M26.49,26.42c2.29,1.35,5.9,5.54,6.47,7.64"/><path d="M39.66,29.01c0.08,0.63-0.09,2.37-0.67,3.02C33.25,38.5,22,48.25,10.86,54.11"/><path d="M28.44,44.42C39.25,52.5,41,73.5,34.96,91.85c-3.55,10.78-8.51,0.96-9.61,0.05"/><path d="M31.61,50.17c0.06,0.44,0.3,1.23-0.12,1.75C28,56.25,20.75,63.5,11.05,68.66"/><path d="M35.4,61.14c0.07,0.6,0.3,1.62-0.14,2.39C32.06,69.26,23.37,78.87,11,86.44"/><path d="M64.96,15.21c0.03,0.2-0.48,1.52-0.68,1.74c-2.68,2.84-4.78,6.04-11.26,9.73"/><path d="M49.51,26.3c0.69,0.64,0.97,2.06,1.14,3.36C51.27,34.43,52,49.75,52.4,57"/><path d="M51.99,39.34c3.66-0.62,11.02-2.1,11.9-2.1c0.87,0,2.09,0,2.79,0"/><path d="M71.16,21.59c0.87,0.15,1.57,0.46,2.79,0.46c1.22,0,13.71-1.86,15.11-2.01c1.4-0.15,3.08,1.01,2.89,2.77c-1.07,9.73-4.48,31.72-4.66,32.34"/><path d="M72.78,35.99c0.81,0.14,2.46,0.43,3.6,0.43c1.13,0,12.37-1.16,13.67-1.3"/><path d="M52.56,54.54c4.05-0.29,32.45-2.38,34.88-2.53"/><path d="M61.95,57.25c0.06,0.94,0.09,2.42-0.12,3.78c-1.49,9.9-6.27,27.36-20.41,36.14"/><path d="M72.9,55.62c0.5,1.13,0.9,2.47,0.93,4.23c0.13,7.81,0.11,21.62-0.02,26.93c-0.22,9.55,1.21,11.01,11.16,11.01c10.45,0,10.67-2.17,10.67-8.71"/></svg>