<svg><path d="M35.4,12c0.06,0.49,0.25,1.43-0.13,1.98c-4.74,6.97-11.75,13.37-24.11,19"/><path d="M14.56,35.48c2.1,1.53,5.43,6.29,5.95,8.67"/><path d="M26.99,26.67c1.76,1.3,4.53,5.36,4.97,7.39"/><path d="M40.17,27.01c0.08,0.6,0.36,1.78-0.16,2.42C32.75,38.5,26.75,44,10.86,52.61"/><path d="M28.44,41.42C37,49,42.27,72.81,34.96,90.85c-4.26,10.52-8.51,0.96-9.61,0.05"/><path d="M31.62,49.67c0.06,0.45,0.28,1.25-0.11,1.8c-2.81,3.88-9.88,10.7-19.95,17.19"/><path d="M34.4,61.14c0.06,0.55,0.28,1.49-0.13,2.2c-3.01,5.28-11.17,14.12-22.78,21.1"/><path d="M59.52,13.5c0.18,2-0.05,4.62-0.64,6.33C55.12,30.75,50.36,41,41.75,54.29"/><path d="M51.02,45.5c0.12,0.91,0.72,2.56,0.78,3.86c0.57,12.13-0.56,36.55-0.56,48.39"/><path d="M56.14,39.83c0.62,0.25,3.29,0.88,4.94,0.74C67.75,40,83.5,38,92.25,37.75c1.66-0.05,3.07-0.25,4.11,0"/><path d="M73.93,15c1.04,0.49,1.66,2.22,1.87,3.2c0.21,0.99,0,73.14-0.21,79.3"/><path d="M74.43,39.57C70.83,53.06,63.22,71.37,55.75,79"/><path d="M76.37,39.58c3.2,9.71,12.29,30.48,18.18,37.69c1.36,1.67,2.08,2.92,3.21,3.51"/></svg>