<svg><path d="M31.75,17.8c1.16,1.16,1.68,2.84,1.68,4.63c0,1.49-0.18,33.31-0.18,48.31c0,3.5-0.07,3.62-0.07,6.5"/><path d="M33.82,19.85c7.3-0.73,30.8-3.48,37.67-4.11c2.94-0.27,4.51,1,4.51,3.66c0,3.09-0.5,32.69-0.74,47.84c-0.08,4.93-0.13,8.28-0.13,8.6"/><path d="M34.76,38.26c8.99-1.26,33.57-3.64,39.78-3.64"/><path d="M34.82,55.24c10.93-0.99,27.93-2.99,39.51-3.18"/><path d="M34.57,73.74C45.5,73,64.12,71.05,74.08,71.05"/><path d="M41.95,80.5c0.55,1.41-0.42,3.3-1.5,4.33C37.17,87.94,28.56,94.07,22,97.75"/><path d="M65.75,80C72.78,84.75,81.08,93.35,83,97.5"/></svg>