<svg><path d="M34.5,16.91c2.77,0.49,5.48,0.25,8.25-0.08c6.57-0.78,18.58-2.2,25.4-2.8c2.26-0.2,4.66-0.64,6.86,0.15"/><path d="M52.71,17.75c1.02,1.02,1.33,2.41,1.33,3.99c0,2.01-0.04,5.88-0.04,9.26"/><path d="M15,34.55c3.44,1.19,8.26,0.7,11.76,0.32C44,33,65.38,30.75,82.24,30.03c3.91-0.17,8.76-0.28,13.51,1.02"/><path d="M34.14,43.44c0.9,0.9,1.11,2.43,1.11,3.53c0,0.91,0,19.87,0,28.79c0,1.85,0,3.76,0,4.5"/><path d="M35.84,44.77c4.79-0.52,32.46-3.64,35.83-3.8c2.81-0.14,3.8,0.78,3.8,3.78c0,3.54-0.01,22.5-0.01,28.52c0,2.81-0.05,4.72-0.05,4.93"/><path d="M36.27,55.08c6.48-0.58,32.41-3.47,38.36-3.47"/><path d="M36.08,65.4c10.67-1.15,27.42-3.15,38.62-3.64"/><path d="M36.28,76.77C46.62,75.88,63,74,74.4,73.62"/><path d="M40.69,83.29c0,1.08-0.51,2.06-1.5,2.96c-2.99,2.7-11.46,8.33-17.44,11.52"/><path d="M66.08,82.72c7.2,3.29,15.71,9.25,17.67,12.12"/></svg>