<svg><path d="M19.2,21.18c0.81,0.81,0.99,2.04,0.99,3.6c0,8.22-0.07,30.89-0.06,42.47c0,1.95,0.01,3.4,0.04,4.14"/><path d="M20.86,21.67c2.29-0.19,19.22-2.69,21.3-2.92c1.74-0.19,2.96,1.08,2.96,2.53c0,5.85-0.1,27.22-0.1,42.97c0,2.22,0.04,3.88,0.04,5.71"/><path d="M21.32,36.87c8.93-1.24,17.8-2.24,22.55-2.66"/><path d="M21.01,51.95c8.74-0.95,13.24-1.7,22.84-2.59"/><path d="M21.35,68.98c7.15-0.98,14.4-2.23,22.59-2.84"/><path d="M27.2,75.98c0.29,1.09,0.09,1.88-0.5,2.67c-1.77,2.39-7.48,9.02-11.03,11.84"/><path d="M40.85,74.7c4.16,3.14,8.84,8.83,9.97,11.58"/><path d="M54.25,37c2.43,0.4,4.55,0.58,7.01,0.31c7.17-0.78,17.53-2.22,29.13-3.35c2.39-0.23,4.74-0.44,7.12,0.04"/><path d="M80.77,13.58c1.08,1.08,1.76,3.17,1.76,5.02c0,14.56-0.01,66.91-0.01,71.87c0,8.78-7.21,0.5-8.71-0.75"/><path d="M81.54,43.75c0.09,0.71,0.23,1.85-0.17,2.85c-2.5,6.27-13.5,18.02-29.63,27.52"/></svg>