<svg><path d="M25,22.06c1.04,0.26,2.97,0.37,4,0.26c5.64-0.64,11.74-0.76,18.85-1.5c1.73-0.18,2.78,0.12,3.65,0.25"/><path d="M15.25,36.18c1.95,0.56,5.52,0.71,7.46,0.56c13.37-1.03,45.42-5.19,62.97-6.48c3.23-0.24,5.19,0.27,6.81,0.55"/><path d="M25.61,47.24c0.39,0.88,0.95,1.53,0.95,2.7c0,1.17,0.18,26.21-0.28,31.11"/><path d="M27.2,48.76c2.18-0.15,18.27-3.52,20.26-3.69c1.65-0.15,2.54,0.81,2.54,1.9c0,2.67-0.49,31.79-0.49,32.67"/><path d="M26.6,59.1c4.07-0.33,19.36-2.37,22.86-2.37"/><path d="M26.78,68.68c6.15-0.64,16.19-2.45,22.7-2.58"/><path d="M26.5,78.75C32.64,78.27,43.88,76,49.48,76"/><path d="M31.28,84.67c0.34,1.05-0.26,2.07-0.92,2.83c-2.02,2.3-7.32,7.21-11.35,9.93"/><path d="M43.56,82.84c4.49,3.5,9.79,9.86,11.01,12.92"/><path d="M58.5,9.5c1.56,1.87,2.3,2.38,2.54,6.4C63,48.25,68.5,79.5,89.4,95.88c5.83,4.58,6.28-0.2,5.5-8.46"/><path d="M73.75,13c3.34,1.95,8.69,6.41,10.25,9.75"/></svg>