<svg><path d="M39.95,14.61c0,1.14-0.73,2.44-1.24,2.97c-5.21,5.38-14.85,12.33-22.96,15.99"/><path d="M56.69,9.75c8.18,0.62,17.31,12,26.83,18.64c3.13,2.18,4.48,3.24,7.73,4.68"/><path d="M38.1,29.41c1.83,0.37,3.45,0.33,5.28,0.14c7.3-0.75,19.81-2.57,23.69-2.72c2.47-0.1,3.17,0.92,2.92,2.79c-0.32,2.39-1.5,6.63-4.1,10.75c-2.44,3.87-3.65,3-6.07,0.31"/><path d="M48.5,32.87c0.07,0.52-0.17,1.68-0.65,2.34c-4.98,6.91-13.48,13.66-24.36,19.76"/><path d="M35.12,51.33c0.71,0.71,1.21,2.08,1.21,3.09c0,0.79-0.12,18.08-0.08,26.33c0.01,2.31,0.04,3.88,0.08,4.1"/><path d="M37.07,52.64c3.36-0.13,29.93-2.92,33-2.9c1.93,0.01,3.34,1.26,3.34,3.4c0,3.11-0.1,17.86-0.1,25.86c0,2.48-0.08,4.66-0.08,4.84"/><path d="M37.51,62.86c7.86-0.48,27.99-1.98,35.08-2.31"/><path d="M37.54,72.69c8.34-0.69,25.71-2.19,34.41-2.27"/><path d="M37.41,82.71c8.72-0.46,25.09-1.46,34.66-1.77"/><path d="M42.76,88.86c0,1.14-0.78,2.27-1.75,2.99c-2.92,2.19-10.17,6.06-16.01,8.65"/><path d="M63.54,88.25c6.6,3.01,14.4,8.47,16.2,11.11"/></svg>