<svg><path d="M16.95,20.18c0.87,0.87,1.13,1.79,1.13,3.35c0,1.34-0.04,32.07-0.02,43.47c0,1.82,0.01,3.18,0.03,3.89"/><path d="M18.67,21.92c2.29-0.46,12.92-2.25,17.22-2.93c2.69-0.42,4.24,0.24,4.23,3.26c-0.01,5.75-0.07,30.27-0.09,41.38c-0.01,2.79-0.01,4.74-0.01,5.32"/><path d="M19.14,36.87c7.11-1.12,15.86-2.24,19.88-2.41"/><path d="M19.3,52.45c7.75-0.95,11.77-1.45,20.28-2.34"/><path d="M19.08,68.23c4.8-0.48,13.67-1.73,19.84-2.09"/><path d="M22.45,75.23c0.29,1.09,0.09,2.13-0.5,2.92c-1.77,2.39-7.73,9.02-11.28,11.84"/><path d="M32.88,73.5c2.93,2.65,6.4,7.46,7.2,9.78"/><path d="M53.63,21.98c2.22,0.89,4.56,0.87,6.88,0.6c8.53-1.01,17.26-2.85,23.11-3.83c1.98-0.33,4.01-0.66,6-0.18"/><path d="M55.92,23c1.35,0.75,1.76,2.42,1.7,4.62C57,49.5,56.88,75.88,40.5,91"/><path d="M60.58,43.48c1.34,0.37,3.25,0.42,5.93-0.13c2.67-0.55,15.38-4.77,17.26-5.15c2.23-0.45,3.76,1.02,3.01,3.56C79.62,65.75,70,84,50.25,93.76"/><path d="M62,53.32c3.11,0.88,16.99,22.39,28.24,33.59c1.98,1.97,4.06,3.95,6.52,5.32"/></svg>