<svg><path d="M52.91,8c0.11,0.7,0.55,1.88-0.23,2.82C47.25,17.32,34.41,28.66,12,37.8"/><path d="M54.16,10.38C61,14.25,80.62,29.77,86.12,33.1c1.87,1.13,4.26,1.61,6.13,1.93"/><path d="M40.23,27.49c0.38,0.12,2.71,0.13,3.1,0.12c3.97-0.13,14.8-1.83,18.71-1.82c0.63,0,3.29,0.05,3.61,0.11"/><path d="M32,37.91c1.5,0.33,4.07,0.72,6.5,0.49c6.31-0.6,21.25-3.26,27.99-4.03c3.99-0.45,4.55,2.02,2.01,4.37c-3.25,3-5.5,6-9.75,10.25"/><path d="M34.24,52.8c0.57,0.75,1.4,1.8,1.4,2.82c0,1.02,0.08,24.63,0.08,31.08"/><path d="M36.59,54.62c3.22-0.22,30.3-3.33,33.21-3.8c1.95-0.32,3.45,0.93,3.75,2.55c0.43,2.3-0.72,31.26-0.72,32.02"/><path d="M35.7,63.93c6.02-0.47,31.88-2.42,37.05-2.57"/><path d="M35.96,74.11c9.09-0.82,27.19-1.92,36.82-2.31"/><path d="M36.05,84.68c9.09-0.68,28.45-1.79,36.74-2.03"/><path d="M42.2,89.4c0.54,1.01-0.41,2-1.47,2.74c-3.22,2.23-11.66,6.98-18.1,9.61"/><path d="M63.02,86.48c7.48,3.81,16.31,10.72,18.35,14.06"/></svg>