<svg><path d="m37.14,15.14c0.86,0.86,1.02,2.08,0.95,3.27-0.33,5.62-1.21,13.84-2.71,19.52-0.46,1.74-0.07,2.49,1.51,2.18,8.77,-1.74,17.74,-3.16,28.61,-3.69,2.28,-0.11,4.5,-0.17,7.75,0.33"/><path d="M39.4,17.1c9.85-1.1,26.98-3.48,33.08-4.09c1.76-0.18,2.85,1.09,2.46,2.94C73.75,21.5,72,30,70.75,35.5"/><path d="M54.25,17c0.81,0.81,0.83,2.13,0.72,3.3c-0.34,3.57-0.84,6.95-1.87,14.9"/><path d="M12.63,30.08c4.75,0.92,9.3,0.29,13.62-0.29c15.13-2.04,36.95-4.57,56.25-5.87c4.04-0.27,8.75-0.17,12.13,0.57"/><path d="M36.69,47.02c0.8,0.8,0.93,1.91,0.93,2.98c0,0.82-0.02,19.47,0.01,28.75c0.01,2.92,0.02,4.87,0.02,5"/><path d="M38.51,48.75c6.12-0.63,28.63-3.6,31.63-3.77c2.5-0.13,3.76,0.76,3.76,3.25c0,3.7,0.02,15.69,0.03,26.51c0,1.72,0,3.41,0.01,5.03"/><path d="M38.7,59.86C49.75,58.62,63,57,72.88,56.17"/><path d="M38.72,70.5C50,69,61,67.12,72.74,66.13"/><path d="M38.82,80.41c12.68-1.66,22.68-3.16,33.77-4.11"/><path d="M43.76,84.85c0,1.27-0.52,2.03-1.5,2.9C39.3,90.39,31.92,94.88,26,98"/><path d="M66.38,84.75c7.08,3.61,15.44,10.15,17.38,13.3"/></svg>