<svg><path d="M42.57,11.19c0,0.94-0.46,1.88-1.22,2.41c-3.85,2.65-7.07,4.98-15.45,8.79"/><path d="M22.37,22.85c0.64,0.64,1.07,1.78,1.07,3.09c0,0.81-0.1,12.57-0.1,15.7c0,2.75,1.28,3.74,3.94,2.03C31.62,40.88,39,36.5,44.32,33.48"/><path d="M41.03,26.62c3.22,3.5,5.97,8.13,7.27,13.03"/><path d="M59.94,19.58c1.39,0.37,3.67,0.34,5.07,0.17c7.2-0.87,18.09-2.65,21.69-3.05c1.81-0.2,3.11,0.68,2.82,2.77C88.88,24,86.75,33,83.38,38.44c-1.97,3.17-3.88,2.31-5.94,0.08"/><path d="M70.29,22.69c0.21,0.68-0.03,1.68-0.33,2.24C67.25,30,63.62,36.12,56.3,41.88"/><path d="M34.97,48.88c0.82,0.82,1.32,2.12,1.32,3.68c0,1.05,0.07,27.4,0.07,27.93c0,0.76-0.07,2.39-0.07,3.58"/><path d="M37.36,50.46c6.89-0.58,30.94-2.81,34.24-2.97c2.75-0.13,3.65,1.26,3.68,3.21c0.08,5.28,0.01,18.64-0.02,27.05c-0.01,2.06-0.01,3.8-0.01,5.04"/><path d="M37.55,60.81c7.2-0.56,30.66-2.13,36.46-2.13"/><path d="M37.6,70.98c9.9-0.48,26.28-1.73,36.49-2.08"/><path d="M37.53,82.13c10.59-0.88,26.47-1.76,36.49-2.33"/><path d="M44.67,85.66c0,0.97-0.43,1.97-1.5,2.93C39.38,92,32.12,96.75,23.75,100.5"/><path d="M67.25,86.38c6.52,3.57,14.22,10.04,16,13.16"/></svg>