<svg><path d="M12.75,32.2c1.52,0.54,4.31,0.69,5.82,0.54C29,31.75,69,27.75,82.69,26.51c2.52-0.23,4.05,0.26,5.31,0.53"/><path d="M24.95,41.1c0.99,0.09,2.35,0.4,3.34,0.38c6.04-0.14,8.37-1.22,16.67-1.84c1.64-0.12,2.64,0.04,3.46,0.09"/><path d="M20.5,49.18c1.16,0.29,3.3,0.28,4.46,0.29c6.79,0.04,17.54-1.96,25.47-2.79c1.93-0.2,3.1,0.14,4.07,0.28"/><path d="M23.11,57.74c0.45,0.88,1.1,1.53,1.1,2.7c0,1.17,0.21,19.71-0.33,24.61"/><path d="M24.96,58.76c2.53-0.15,21.79-2.02,24.1-2.19c1.92-0.15,2.95,0.81,2.95,1.9c0,2.67-0.57,24.79-0.57,25.67"/><path d="M24.26,66.6c4.73-0.33,23.06-2.37,27.11-2.37"/><path d="M24.47,75.18c7.13-0.64,19.37-1.95,26.93-2.08"/><path d="M24.14,82.75C31.27,82.27,44.9,81,51.4,81"/><path d="M32.28,86.17c0.34,1.05-0.26,2.07-0.92,2.83c-2.02,2.3-7.32,7.21-11.35,9.93"/><path d="M44.81,88.09c4.18,2.62,9.12,7.38,10.26,9.67"/><path d="M60.5,10.5c1.56,1.87,2.3,2.38,2.54,6.4C65,49.25,70.5,80.5,91.4,96.88c5.83,4.58,6.28-0.2,5.5-8.46"/><path d="M75.25,10.5c3.34,1.95,8.69,6.41,10.25,9.75"/></svg>