<svg><path d="M17.3,22.18c0.36,1.17,0.88,2.04,0.88,3.6c0,1.56-0.39,40.97-0.24,46.11"/><path d="M18.28,23.67c2.03-0.19,17.49-3.19,19.34-3.42c1.54-0.19,2.75,1.09,2.62,2.53c-0.17,1.83-0.22,34.97-0.6,46.67"/><path d="M18.24,37.62c7.85-0.76,19.14-2.66,20.89-2.66"/><path d="M17.91,53.45c7.75-0.95,13.02-1.45,21.54-2.34"/><path d="M18.43,69.48c4.03,0,15.88-2.34,21.1-2.34"/><path d="M23.62,77.73c0.26,1.18,0.52,1.5,0,2.36c-1.57,2.59-7.3,10.59-10.45,13.66"/><path d="M35.51,75.2c3.69,4.36,8.06,12.27,9.07,16.08"/><path d="M67.81,14.63c0.76,0.45,2.36,3.35,2.51,4.25c0.15,0.9-0.25,34.12-0.25,47.25"/><path d="M70.25,41.24c8.82-0.91,18.12-2.73,19.34-2.73c1.23,0,3.43,0,4.41,0.3"/><path d="M53.91,67.55c0.41,0.46,0.82,0.84,1,1.41c1.41,4.54,3.09,17.05,4.05,25.2"/><path d="M54.71,68.19c10.79-1.69,29.64-3.07,34.75-3.71c1.87-0.23,2.99,2.36,2.73,3.75c-1.11,5.71-3.49,14.04-5.02,21.28"/><path d="M58.86,91.66C66.5,91.25,79.5,90,89.54,89.72"/></svg>