<svg><path d="M16.91,23.17c1.32,0.56,3.74,0.62,5.07,0.56c10.16-0.51,49.55-5.66,66.24-5.9c2.2-0.03,3.52,0.27,4.62,0.55"/><path d="M50.43,11.13c0.89,0.41,1.42,1.83,1.59,2.64c0.18,0.81,0.22,14.98,0.04,20.06"/><path d="M69.85,10.5c0.88,0.41,1.63,1.81,1.59,2.64c-0.19,4.11-0.69,10.11-1.71,17.71"/><path d="M52.59,32.57c3.25,0,17.37-1.63,19.2-1.63"/><path d="M33.53,11.41c0.89,0.41,1.42,1.83,1.59,2.64c0.18,0.81-0.37,10.7-0.78,22.64c-0.1,3.05-0.34,5.31,2.55,5.08c14.27-1.13,28.86-3.77,42.76-3.55c2.65,0.04,4.88,0.81,5.89,1.02"/><path d="M36.24,49.3c0.57,0.75,1.4,1.3,1.4,2.32c0,1.02,0.26,27.28-0.42,31.58"/><path d="M38.59,50.12c3.22-0.22,27.8-3.33,30.71-3.8c1.95-0.32,3.45,0.93,3.75,2.55c0.43,2.3-0.72,31.76-0.72,32.52"/><path d="M37.7,60.43c6.02-0.47,29.38-2.92,34.55-3.07"/><path d="M37.96,70.61c9.09-0.82,24.69-2.42,34.32-2.81"/><path d="M37.55,81.18c9.09-0.68,26.45-2.29,34.74-2.53"/><path d="M42.7,85.9c0.54,1.14-0.41,2.25-1.47,3.07c-3.22,2.5-11.66,7.83-18.1,10.78"/><path d="M64.52,84.98C72,88.8,80.83,95.71,82.87,99.04"/></svg>