<svg><path d="M19.3,17.49c0.36,1.31,0.88,2.29,0.88,4.05c0,1.75-0.39,48.11-0.24,53.9"/><path d="M20.78,19.53c2.03-0.22,17.49-3.52,19.34-3.79c1.54-0.22,2.75,1.23,2.62,2.85c-0.17,2.06-0.22,41.11-0.6,54.28"/><path d="M20.24,36.92c6.37-0.69,18.64-3,21.89-3"/><path d="M20.41,52.68c7.75-1.07,13.02-1.63,21.54-2.63"/><path d="M20.43,72.78c4.03,0,16.38-2.13,21.6-2.13"/><path d="M25.07,78.38c0.3,1.46,0.42,1.78,0,2.93c-1.82,4.94-6.57,12.44-12.15,16.94"/><path d="M34.51,77.22c4.3,4.76,9.39,13.38,10.57,17.54"/><path d="M67.32,11.17c0.64,1.85,0.31,3.65-0.39,5.51C62.42,28.75,58.98,37,54.2,45.91c-2.03,3.78-0.65,4.76,1.92,4.19C65.5,48,75,46,90.67,42.4"/><path d="M81.17,28.83c5.15,4.17,13.3,17.15,14.58,23.63"/><path d="M53.12,64.71c0.49,0.52,0.99,0.96,1.2,1.61c1.69,5.18,3.14,20.72,4.29,30.02"/><path d="M55.09,66.43c13.91-1.68,25.53-2.85,32.58-3.67c2.41-0.28,3.83,0.74,3.51,3.11c-0.95,6.97-3.15,17.31-4.77,24.53"/><path d="M58.49,93.74c10.76-0.99,17.26-1.24,30.31-2.04"/></svg>