<svg><path d="M24.75,14.84c1.45,0.59,4.11,0.68,5.57,0.59c13.39-0.81,36.87-3.87,45.84-3.19c2.42,0.18,3.88,0.28,5.09,0.58"/><path d="M21.24,26.81c0.35,0.27,0.71,0.5,0.86,0.84c1.22,2.71,2.67,10.19,3.5,15.06"/><path d="M23.42,28.74C36.75,26.5,77.5,23,86.25,22.51c1.62-0.09,2.59,1.41,2.36,2.24c-0.96,3.41-2.99,9.36-5.04,14.28"/><path d="M39.37,15.25c1.28,0.48,2.13,2.13,2.29,3.09c0.49,2.85,1.66,14.5,2.84,21.16"/><path d="M62.88,13.25c1.06,0.49,1.38,2.63,1.1,4.85c-0.73,5.83-0.73,10.68-1.94,20.15"/><path d="M25.45,40.71c5.2-0.43,47.05-3.21,58.38-3.61"/><path d="M33.53,48.09c0.61,0.82,1.5,2.93,1.5,4.02c0,1.09,0.28,27.6-0.45,32.17"/><path d="M35.05,50.03c3.45-0.14,33.21-3.88,36.35-4.04c2.61-0.14,4.01,0.76,4.01,3.27c0,2.49-0.77,32.35-0.77,33.16"/><path d="M35.1,60.04c6.45-0.31,33.94-3.21,39.46-3.21"/><path d="M35.38,70.37c9.72-0.6,28.91-2.32,39.22-2.44"/><path d="M34.93,81.63C44.66,81.18,65.73,79,74.6,79"/><path d="M43.07,86.25c0.62,1.21-0.47,2.39-1.71,3.27c-3.73,2.66-13.54,8.33-21,11.48"/><path d="M63.54,84.45c7.78,4.25,16.98,11.94,19.1,15.65"/></svg>