<svg><path d="M14.7,20.35c0.36,1.13,0.89,1.97,0.89,3.48c0,1.5-0.39,40.6-0.24,45.57"/><path d="M16.19,21.82c2.05-0.19,17.67-2.6,19.53-2.82c1.56-0.19,2.78,1.05,2.65,2.45c-0.17,1.77-0.73,35.73-1.12,47.04"/><path d="M16.15,37.75c6.43-0.6,17.81-2.57,21.1-2.57"/><path d="M16.32,52.07c7.83-0.92,11.64-1.4,20.24-2.26"/><path d="M16.85,67.54c4.07,0,15.02-1.76,20.3-1.76"/><path d="M20.97,75.23c0.28,1.22,0.55,1.55,0,2.43c-1.66,2.68-7.72,10.92-11.05,14.08"/><path d="M31.1,73.7c4.06,4.09,8.86,11.5,9.97,15.08"/><path d="M60.29,13.25c0.05,0.65,0.24,1.72-0.09,2.61c-2.57,6.81-7.34,16.97-15.38,25.46"/><path d="M61.42,21.47c0.3,0.04,1.57,0,2.42-0.1c2.8-0.33,8.72-1.46,12.71-2.5c2.74-0.71,3.52,0.81,2.82,2.75c-3.84,10.61-19.44,35.92-36.68,42.92"/><path d="M55.15,32.08c5.21,5.06,28.82,24.28,35.84,28.9c2.09,1.38,3.79,2.05,5.83,2.46"/><path d="M49.83,69.51c0.36,0.44,0.73,0.8,0.89,1.35c1.25,4.34,3.25,15.81,4.11,23.6"/><path d="M52.08,71.47c10.17-1.47,25.59-3.29,29.83-3.86c1.55-0.21,2.48,1.23,2.25,2.46c-0.92,5.07-2.99,12.67-4.35,19.68"/><path d="M55.01,92.13c4.97-0.65,18.24-1.88,27.36-2.75"/></svg>