<svg><path d="M17.75,12.5c3.84,1.59,9.93,6.55,10.89,9.03"/><path d="M14.75,45.48c1.65,1.06,3.79,0.89,4.95,0c1.12-0.86,7.91-7.68,12.2-12.08"/><path d="M53.8,8.75c0.1,1.15-0.03,1.91-0.51,2.96c-2.33,5.05-6.75,11.06-15.92,17.26"/><path d="M52.89,18c1.1,0.16,2.95,0.12,4.57-0.23c5.42-1.15,10.92-2.53,18.65-4c5.84-1.12,3.4,4.23-4.76,11.3"/><path d="M57.29,23.91c0.15,1.24-0.22,2.51-0.66,3.64C54.84,32.16,49.49,39.4,38.99,43"/><path d="M58.19,27.39c4.39,2.95,18.47,10.99,27.62,15.14c2.46,1.12,4.19,2.1,6.69,2.83"/><path d="M32.66,46.48c0.87,0.87,1.3,2.95,1.3,4.06c0,1.11-0.17,29.5-0.17,30.05c0,0.55-0.08,2.41-0.08,4.41"/><path d="M34.76,48.32c10.62-0.94,23.87-2.19,33.7-2.83c3.3-0.21,4.61,0.89,4.61,4.05c0,3.46-0.06,16.82-0.05,29.02c0,1.25,0.04,2.94,0.04,4.88"/><path d="M34.95,59.28c15.68-1.41,26.18-2.41,36.89-2.75"/><path d="M34.99,70.23c11.51-1.11,26.76-2.48,37.18-2.91"/><path d="M34.66,81.5c8.59-0.63,28.02-2.16,37.18-2.16"/><path d="M41.82,85.22c0.05,1.03-0.25,2.33-1.27,3.26c-3.07,2.79-9.82,6.92-18.18,11.02"/><path d="M64.24,85.14c7.71,4.05,16.81,11.39,18.91,14.93"/></svg>