<svg><path d="M16.4,21.14c1.12,0.42,3.14,0.6,4.33,0.49c7.14-0.64,22.07-2.87,27.02-3.41c2.92-0.32,4.14,0.58,3.85,3.54c-0.43,4.44-1.9,11.18-6.18,17.54c-3.01,4.47-5.17,0.7-5.97,0.14"/><path d="M34.36,8.93c0.79,0.79,0.88,2.31,0.79,3.09c-1.28,11.11-5.4,25.48-18.03,35.25"/><path d="M60.36,16.61c1.14,0.64,1.6,2.06,1.9,3.39c0.76,3.3,1.6,8.15,2.36,14.35c0.15,1.24,0.3,2.53,0.45,3.88"/><path d="M62.54,17.64c9.21-1.14,17.33-2.39,22.65-2.84c3.29-0.28,4.56,0.96,3.97,4.04c-0.63,3.3-1.66,6.66-3.26,13.58"/><path d="M66.1,35.73c6.59-0.69,11.88-1.28,17.77-1.73c1.4-0.11,2.83-0.2,4.31-0.29"/><path d="M35.47,47.53c0.94,0.94,1.29,2.1,1.29,3.88c0,4-0.01,21.4-0.01,30.47c0,1.91,0,3.46,0.01,4.42"/><path d="M37.81,48.88c3.55-0.14,29.11-2.81,32.33-3.14c3.61-0.37,5.09,1.01,5.09,4.35c0.01,5.73,0,20.51,0,28.53c0,3.05,0,5.12,0,5.35"/><path d="M37.75,60.17c11-1.17,24.75-2.67,36.27-3.07"/><path d="M38.04,71.66c11.21-0.91,20.71-2.41,35.31-3.21"/><path d="M37.71,83.27c10.67-1.14,24.42-2.27,36.31-2.96"/><path d="M45.77,87.44c-0.02,1.18-0.36,2.03-1.31,2.83C40.62,93.5,34.5,97.62,26.5,101"/><path d="M67.69,88.93c6.87,3.35,15,9.41,16.87,12.34"/></svg>