<svg><path d="M52.96,10.37c0.9,0.9,1.51,2.35,1.51,3.99c0,3.14-0.01,8.77-0.01,14.76"/><path d="M30.88,15.12c3.24,1.83,8.37,7.5,9.18,10.34"/><path d="M74.76,14.25c0,0.75-0.1,1.6-0.3,2.02c-1.58,3.35-3.83,6.73-9.02,11.69"/><path d="M21.2,31.5c-0.13,4.04-2.35,13.52-3.45,15.94"/><path d="M22.24,33.18c12.89-1.3,43.89-4.43,64.05-5.12c11.21-0.38,0.4,7.44-1.15,8.7"/><path d="M37.64,39.13C38.5,40,39,40.94,39.16,41.74c0.56,2.82,0.9,4.36,1.23,5.75c0.23,1.02,0.46,1.95,0.74,3.26"/><path d="M39.6,40.07c4.6-0.47,21.97-2.29,28.66-3.02c2.7-0.29,4.36,0.04,3.38,3.08c-0.47,1.44-0.63,1.97-1.76,4.69"/><path d="M41.44,48.46c5.74-0.62,19.2-1.95,26.94-2.44c1.1-0.07,2.09-0.12,2.92-0.16"/><path d="M37.02,55.76c0.86,0.86,1.34,2.37,1.34,3.69c0,0.65,0.01,14.42,0.01,21.05c0,2.04,0,3.41,0,3.51"/><path d="M39,56.98c8.75-0.85,26.38-2.68,29.18-2.68c3.2,0,4.12,1.08,4.12,4.58c0,5.32-0.03,13.54-0.04,19.62c0,1.7-0.01,3.24-0.01,4.5"/><path d="M39.24,65.21c7.01-0.58,25.13-2.21,31.6-2.34"/><path d="M39.54,73.28c7.84-0.53,23.71-1.53,31.24-1.88"/><path d="M39.62,81.79c7.62-0.66,23.62-1.97,31.49-2.13"/><path d="M45.72,85.25c0,1.12-0.44,2.05-1.36,2.89c-3.9,3.56-7.63,6.53-18.11,10.73"/><path d="M63.11,86.13c7.04,3.51,15.36,9.88,17.28,12.96"/></svg>