<svg><path d="M16.04,23.75c0.79,0.79,1.1,1.95,1.1,3.44c0,0.93,0.04,27.34,0.03,39.94c0,3.9-0.03,4.5-0.03,6.07"/><path d="M17.72,25.54c3.77-0.74,12.45-2.45,16.57-3.2c3.17-0.57,4.3,0.13,4.3,3.53c0,7.51,0.07,27.59-0.03,38.47c-0.03,3.34-0.05,5.54-0.05,5.79"/><path d="M18.43,39.02c3.65-0.43,15.8-2.52,18.93-2.52"/><path d="M18.34,53.88c5.51-0.82,13.46-1.98,19.29-2.15"/><path d="M18.33,69.77c5.51-0.61,14.03-1.98,19.05-1.98"/><path d="M23.43,78.4c0.28,1.18,0.05,2-0.5,2.85c-1.65,2.59-6.25,8.44-9.55,11.5"/><path d="M35.43,76.98c2.83,4.02,6.17,11.29,6.94,14.81"/><path d="M69.35,16c1.14,1.14,1.39,2.12,1.39,3.5c0,1.75,0,5.75,0,10.5"/><path d="M51.38,31.7c2,0.61,4.33,0.59,6.38,0.46c7.55-0.48,20.04-2.34,28.11-3.25c1.84-0.21,3.41-0.17,5.22,0.16"/><path d="M57,38.75c3.49,4.47,5.08,9.05,5.4,12"/><path d="M82.45,34.25c0.42,1,0.15,1.97-0.03,2.46c-1.42,3.91-5.63,12.82-7.08,15.54"/><path d="M45.5,57.05c2.21,0.64,4.87,0.58,7.14,0.31c12.79-1.5,24.52-3.24,39.24-4.03c2.51-0.13,4.89,0.07,7.37,0.5"/><path d="M54.48,69.87c0.84,0.73,1.31,1.65,1.4,2.76c0.63,4.87,1.38,10.03,1.95,15.62c0.2,1.9,0.39,3.69,0.6,5.25"/><path d="M57.17,71.75c7.42-1.14,20.77-2.66,26.72-3.32c3.15-0.35,4.51,0.31,3.79,3.58c-1,4.54-2.69,10.29-4,15.84"/><path d="M59.37,91.35c4.66-0.5,15.72-1.3,23.41-2.08c1.21-0.12,2.85-0.11,3.84-0.11"/></svg>