<svg><path d="M23.54,15.08c0.69,0.69,0.9,1.54,0.9,2.58c0,4.97,0.03,20.05,0.03,28.58c0,1.89,0,3.9,0,4.82"/><path d="M25.28,16.09c6.34-0.84,13.72-1.81,20.99-2.55c1.59-0.16,3.1-0.33,4.7-0.08"/><path d="M37.34,15.89c0.63,0.63,0.9,1.36,0.9,2.08c0,2.03-0.07,3.89-0.11,6.53"/><path d="M25.66,27.47c7.01-1.06,15.05-2.29,20.36-3.06c2.37-0.34,4.25-0.5,3.56,2.36c-0.48,2-1.59,4.79-2.03,6.96"/><path d="M25.63,37.72c2.44-0.36,12.51-1.73,18.89-2.5c1.95-0.24,3.46-0.42,4.16-0.5"/><path d="M37.8,36.86c0.6,0.6,0.65,1.39,0.65,2.33c0,1.43-0.07,2.99-0.07,6.06"/><path d="M25.63,48.26c2.85-0.42,11.74-1.64,18.88-2.44c1.51-0.17,3.26-0.58,4.77-0.35"/><path d="M58.83,16.69c1.96,0.44,3.94,0.28,5.92-0.15c3.98-0.86,10.42-2.52,13.38-3.25c2.31-0.58,4.32,0.75,3.12,3.27c-5.5,11.56-13.87,21.69-24.75,27.91"/><path d="M57.52,23.04C60.47,23.56,72.25,35,82.55,42.62c2.07,1.53,3.92,2.74,6.2,3.9"/><path d="M37.34,51.85c0.78,0.78,1.08,1.85,1.08,2.88c0,3.38-0.07,16.96-0.1,25.02c-0.01,2.42-0.02,4.33-0.02,5.33"/><path d="M39.32,53.17c4.93-0.67,25.36-3.03,28.15-3.18c2.32-0.13,3.96,1.01,3.96,3.18c0,2.77-0.01,15.96-0.04,23.82c-0.01,3.04-0.01,5.17-0.01,5.39"/><path d="M39.52,63.31c9.86-1.06,24.11-2.69,30.57-3.09"/><path d="M39.52,73.05c8.9-1.04,20.48-2.05,30.71-2.8"/><path d="M39.56,83.24c9.44-0.99,21.32-2.12,30.71-2.55"/><path d="M43.05,86.72c0,0.91-0.48,1.92-1.25,2.6c-2.33,2.03-9.26,6.03-13.92,8.43"/><path d="M64.62,86.75c5.7,2.81,12.44,7.9,14,10.36"/></svg>