<svg><path d="M18.61,24.7c0.72,0.72,1.08,1.6,1.08,3.01c0,1.12,0.11,28.65,0.05,40.29c-0.02,3.08-0.03,5.09-0.03,5.23"/><path d="M20.51,26.89c3.53-0.65,12.61-2.77,16.38-3.43c2.66-0.46,3.78,0.4,3.78,3.16c0,6,0,25.88,0,37.63c0,1.86-0.01,3.64-0.01,5.29"/><path d="M20.97,41.05c4.78-0.8,14.15-2.67,18.78-3.12"/><path d="M20.88,55.03C27.75,54,33.5,53,39.52,52.42"/><path d="M20.88,69.76c5-0.51,12.25-2.01,18.64-2.62"/><path d="M24.23,78.14c0.32,1.3-0.12,2.4-0.75,3.35c-1.91,2.86-7.31,8.88-11.13,12.26"/><path d="M34.82,76.86c3.6,3.91,7.85,11,8.83,14.42"/><path d="M52.42,26.46c1.96,0.29,3.97,0.14,5.84-0.17c8.49-1.41,17.63-2.61,25.49-3.39c1.79-0.18,3.44-0.31,5.21-0.05"/><path d="M60.27,16.14c1.04,1.04,1.49,2.11,1.54,3.42c0.19,4.82,0.31,16.32,0.63,24.21"/><path d="M76.59,13.96c1.16,1.16,1.38,2.55,1.29,3.98c-0.51,8.82-1.01,15.69-1.39,24.32"/><path d="M52.5,36.11c1.74,0.48,3.65,0.12,5.39-0.13c6.61-0.94,16.39-2.65,24.36-3.56c2-0.23,3.91-0.43,5.91-0.14"/><path d="M47.54,46.05c2.58,0.57,5.12,0.3,7.48-0.04c9.61-1.39,21.32-2.7,33.85-4.06c2.4-0.26,5-0.25,7.37,0.2"/><path d="M54.11,55.94c0.91,0.91,1.32,2.19,1.21,3.53c-0.06,0.66-0.01,19.94,0.03,29.37c0.01,2.64-0.1,4.81-0.1,5.41"/><path d="M55.75,56.93c3.71-0.51,20.55-3.08,25.91-3.93c2.61-0.41,4.98,0.6,4.95,3.62c-0.07,6.69-0.03,31.24-0.03,34.47c0,8.15-3.83,2.65-6.4,0.39"/><path d="M69.02,46.29c0.91,0.91,1.14,2.08,1.14,3.54c0,8.11,0.09,15.56,0.09,26.29"/><path d="M56.22,67.41C66,66,76,64.75,85.61,63.93"/><path d="M45.81,79.34c2.56,0.53,5.89,0.23,8.32-0.02c10.87-1.11,25.77-3,35.74-3.7c2.32-0.16,4.56-0.36,6.84,0.16"/></svg>