<svg><path d="M30.51,13.3c0.54,0.27,1.43,1.29,1.43,1.82c0,2.09-0.02,7.18-0.07,8.68"/><path d="M15.75,25.51c0.68,0.04,2.22,0.26,2.88,0.24c5.52-0.22,16.92-2.15,23.24-2.44c1.12-0.05,1.49-0.06,2.82-0.06"/><path d="M40.77,26.87c0.31,0.49,0.19,1.4-0.35,2.25C35.25,37.25,26.75,44,16.35,49.04"/><path d="M22.42,32.13c8.02,2.41,16.65,7.81,20.79,11.45"/><path d="M52.11,17.14c0.65,0.16,1.83,0.2,2.48,0.16c3.54-0.22,10.1-1.2,12.66-1.25c1.08-0.02,0.36-0.01,1.04-0.01"/><path d="M50.49,25.09c0.86,0.18,2.44,0.27,3.29,0.18c3.47-0.35,26.49-3.67,36.06-4.08c1.43-0.06,2.29,0.09,3,0.18"/><path d="M62.1,28.19c0.56,0.21,0.9,0.96,1.02,1.39c0.14,0.55-0.16,9.25-0.28,11.95"/><path d="M63.41,32.62c3.69-0.32,4.66-0.79,8.54-1.01c0.9-0.05,1.13-0.11,1.69,0"/><path d="M53.1,33.04c-0.5-0.19,0.68,0.07,1.05,1.44c0.12,0.44,0.25,7.9,0.13,10.67"/><path d="M50.08,45.56c0.34,0.45,1.86,0.56,2.72,0.26c8.01-2.82,10.33-3.92,20.78-7.79"/><path d="M73.94,10.5c0.92,0.75,1.27,0.97,1.5,2.58c2.06,14.17,6.31,25.17,16.08,32.42c3.36,2.49,3-1.11,2.54-4.44"/><path d="M82.8,10.34c2.22,1.3,5.77,4.26,6.8,6.48"/><path d="M31.75,50.79c0.42,0.78,1.05,1.36,1.05,2.4s0.2,27.74-0.31,32.09"/><path d="M33.5,52.19c2.41-0.13,38.25-2.79,40.44-2.95c1.83-0.13,2.8,0.72,2.8,1.69c0,2.37-0.54,32.26-0.54,33.03"/><path d="M32.84,61.65c4.5-0.3,39.45-3.11,43.31-3.11"/><path d="M33.04,71.5c6.79-0.57,35.94-2.73,43.14-2.85"/><path d="M32.73,82.23c6.79-0.43,37.26-2.56,43.45-2.56"/><path d="M41.95,85.58c0.53,1.06-0.4,2.1-1.44,2.87c-3.16,2.33-11.45,7.3-17.76,10.05"/><path d="M65.25,86.76c7.43,3.28,16.22,9.21,18.25,12.08"/></svg>