<svg><path d="M17.55,17.6c1.02,0.22,2.88,0.25,3.9,0.22c7.23-0.25,17.89-1.69,24.89-1.81c1.7-0.03,2.71,0.1,3.56,0.21"/><path d="M31.98,8.52c0.09,0.17,1.31,1.38,1.31,2.44c0,6.95-0.14,11.15-0.14,12.9"/><path d="M11.56,26.31c1.25,0.35,3.54,0.41,4.79,0.35c11.9-0.66,21.9-1.16,33.11-2.2c2.08-0.19,3.33,0.16,4.38,0.34"/><path d="M21.39,28.63c1.41,1.03,3.64,4.24,3.99,5.84"/><path d="M41.99,27.53c0.01,0.16,0.02,0.41-0.02,0.64c-0.27,1.34-1.81,4.02-4.31,6.6"/><path d="M14.25,37.04c0.65,0.23,2.87,0.75,3.52,0.71C24.5,37.25,38,36,45.53,35.53c1.07-0.07,3.33-0.14,3.87-0.03"/><path d="M11.08,44.98c1.15,0.26,3.76,0.84,4.9,0.76c9.65-0.64,22.53-2.26,32.41-2.67c1.91-0.08,3.06,0.12,4.02,0.26"/><path d="M32.39,37.01c0.33,0.24,1.02,1.32,1.09,1.8c0.07,0.48-0.04,10.93-0.11,13.92"/><path d="M70.44,8.18c0.34,0.36,0.85,1.15,0.83,1.8c-0.87,20.58-5.01,32.27-15.66,40.37"/><path d="M56.46,20.61c0.83,0.38,3.09,0.63,4.12,0.5c1.04-0.13,17.09-3.3,20.35-4.06c2.39-0.56,3.23,0.72,2.6,2.15c-1.78,4.06-3.53,21.56,5.26,29.78c5.68,5.31,7.21,3.53,6.24-6.46"/><path d="M59.28,30.14c7.49,1.87,15.17,8.54,16.64,11.61"/><path d="M32.83,55.65c0.49,0.65,1.2,1.63,1.2,2.52c0,0.89,0.23,24.22-0.36,27.96"/><path d="M34.85,57.36c2.77-0.19,34.89-2.89,37.39-3.3c1.68-0.28,2.97,0.81,3.23,2.22c0.37,2-0.62,27.61-0.62,28.28"/><path d="M34.09,65.83c5.18-0.41,36.25-2.54,40.69-2.67"/><path d="M34.32,74.68c7.81-0.72,32.22-2.1,40.5-2.44"/><path d="M33.96,84.38c7.81-0.59,33.73-1.99,40.85-2.2"/><path d="M41.69,88.68c0.56,1.01-0.42,2-1.53,2.73c-3.34,2.22-12.11,6.96-18.79,9.59"/><path d="M64.77,87.56c8.8,3.4,19.2,9.55,21.6,12.52"/></svg>