<svg><path d="M19.82,16.64c0.86,0.19,2.45,0.21,3.31,0.19c6.62-0.21,13.62-1.26,21.66-1.8c1.43-0.1,2.3,0.09,3.02,0.18"/><path d="M32.53,9c0.11,0.14,1.56,0.74,1.56,1.65c0,5.83,0.18,3.54,0.18,11.25"/><path d="M15.41,23.94c1.34,0.26,3.79,0.29,5.13,0.26c4.21-0.09,21.21-2.55,27.12-2.66c2.23-0.04,3.57,0.12,4.68,0.26"/><path d="M32.8,26.36c0.67,0.23,1.78,1.14,1.78,1.6c0,1.71-0.21,2.67-0.09,4.12"/><path d="M15.5,34.09c0.9,0.15,2.79,0.2,3.62,0.21c7.13,0.1,22.13-2.15,29.96-2.64c1.4-0.09,2.12,0.02,3.17,0.27"/><path d="M32.93,37.91C36.27,38.97,41,39,44.74,38.98c0.63,0,1.25,0.96,1.14,1.66c-0.28,1.87-5.86,9.02-8.24,10.54c-2.59,1.65-3.89-0.68-4.58-1.79"/><path d="M32.06,35.44c0.25,0.48,0.2,1.02-0.1,1.56c-2.05,3.71-7.71,9.51-17.17,14.73"/><path d="M66.6,9.35c0.03,0.43,0.08,1.11-0.06,1.71C65.6,15.2,62.25,22,55.77,28.54"/><path d="M65.58,20.4c0.03-0.1,1.54,0.29,2.09,0.26c5.67-0.3,11.36-2.91,20.01-3.39c0.97-0.05,1.57-0.01,1.82,0.05"/><path d="M78.54,22.48c0.42,0.64,0.64,1.11,0.21,2.28c-3.94,10.71-12.92,20.27-25.87,23.99"/><path d="M61.24,29.04C67.25,31.75,79,42.5,89.11,46.92c1.66,0.73,2.76,0.78,4.14,0.85"/><path d="M37.15,55.79c0.52,0.69,1.28,1.19,1.28,2.12c0,0.94,0.24,24.99-0.38,28.92"/><path d="M39.3,57.21c2.95-0.2,26.96-2.48,29.63-2.9c1.79-0.28,3.16,0.84,3.44,2.28C72.75,58.65,71.7,85,71.7,85.69"/><path d="M38.49,66.44c5.52-0.42,28.41-2.11,33.14-2.25"/><path d="M38.73,75.54c8.32-0.74,24.11-1.66,32.93-2.01"/><path d="M38.35,85c8.32-0.61,25.73-1.55,33.31-1.77"/><path d="M43.56,89.32c0.51,0.96-0.39,1.9-1.4,2.59c-3.07,2.11-11.13,6.6-17.26,9.09"/><path d="M63.55,88.73c7.05,3.15,15.38,8.87,17.3,11.62"/></svg>