<svg><path d="M39.87,12.98c0.46,0.61,1.14,2.05,1.14,2.88c0,0.83,0.21,18.68-0.34,22.18"/><path d="M41.78,14.65c2.62-0.18,24.6-1.71,26.97-2.09c1.59-0.26,2.81,0.76,3.05,2.08c0.35,1.87-0.59,21.32-0.59,21.94"/><path d="M41.06,21.54c4.9-0.38,25.89-1.87,30.09-2"/><path d="M41.28,28.81c7.39-0.67,22.07-1.46,29.9-1.78"/><path d="M40.94,35.91c7.39-0.55,23.51-1.37,30.24-1.56"/><path d="M47.64,40.24c0.4,0.82-0.3,1.62-1.08,2.22c-2.37,1.8-8.6,5.66-13.34,7.79"/><path d="M63.62,39.5c5.16,2.56,11.26,7.19,12.67,9.43"/><path d="M22.46,53.79c0.4,0.69,1,1.19,1,2.12c0,0.94,0.19,24.99-0.3,28.92"/><path d="M23.63,56.04c2.29-0.2,18.26-2.05,20.33-2.48c1.39-0.29,2.45,0.85,2.67,2.34c0.3,2.1-0.51,26.58-0.51,27.29"/><path d="M23.5,63.99c4.28-0.43,18.89-1.67,22.56-1.81"/><path d="M23.69,73.31c6.46-0.75,15.55-1.71,22.4-2.07"/><path d="M23.39,82.5c6.46-0.62,16.8-1.6,22.69-1.82"/><path d="M28.03,87.32c0.46,0.96-0.35,1.9-1.25,2.59c-2.74,2.11-9.92,6.6-15.39,9.09"/><path d="M39.06,86.48c3.48,2.95,7.59,8.29,8.54,10.88"/><path d="M60.92,53.17c0.42,0.66,1.04,2.13,1.04,3.03s0.19,23.88-0.31,27.64"/><path d="M62.65,54.89c2.38-0.19,20.05-2.41,22.2-2.83c1.44-0.28,2.55,0.82,2.77,2.23c0.32,2.01-0.53,27.79-0.53,28.46"/><path d="M62.5,63.42c4.45-0.41,20.72-1.56,24.54-1.69"/><path d="M62.19,72.33c6.72-0.72,17.75-1.11,24.87-1.46"/><path d="M61.88,81.58c6.72-0.6,19.06-1.01,25.18-1.22"/><path d="M67.79,87.32c0.38,0.96-0.29,1.9-1.04,2.59c-2.28,2.11-8.28,6.6-12.85,9.09"/><path d="M80.41,86.98c5.48,3.08,11.95,8.68,13.44,11.38"/></svg>