<svg><path d="M15.3,22.54c0.28,1.23,0.69,2.15,0.69,3.79s-0.31,43.18-0.19,48.61"/><path d="M16.46,23.55c1.6-0.2,12.27-2.83,13.73-3.08c1.21-0.2,3.17,1.15,3.07,2.67C33.13,25.07,33.3,61.61,33,73.94"/><path d="M16.44,38.83c5.01-0.65,13.39-1.81,15.95-1.81"/><path d="M16.57,54.99c6.1-1,9.57-1.52,16.28-2.46"/><path d="M16.98,73.42c3.17,0,11.82-1.46,15.93-1.46"/><path d="M20.46,78.38c0.22,1.22,0.44,1.56,0,2.45c-1.32,2.69-6.14,10.99-8.78,14.17"/><path d="M27.45,79.22c3.11,3.54,6.78,9.94,7.62,13.04"/><path d="M50.6,31.44c0.45,0.87,0.73,2.36,0.73,3.39c0,24.87-0.29,45.83-9.98,57.07"/><path d="M48.8,31.23c1.26,0.54,3.08,0.68,4.34,0.54c11.37-1.27,25.62-3.27,37.15-4.73c2.09-0.26,2.86,0.26,3.92,0.53"/><path d="M41.02,33.93c0.51,0.39,0.7,0.86,0.74,2.16c0.06,1.96-0.27,10.6-0.43,12.65c-0.05,0.65,0.09,1.63,0.84,1.53c2.65-0.36,5.85-0.96,8.92-1.25"/><path d="M37.44,60.19c0.97,0.13,1.17,0.51,2.3,0.42c4.84-0.38,7.52-1.23,10.9-1.43"/><path d="M43.71,60.71c0.02,0.46,0.02,1.19-0.04,1.86c-0.42,4.79-1.63,12.98-7.2,17.8"/><path d="M57.31,42.08c0.53,0.27,0.85,1.2,0.95,1.73c0.1,0.53,0,36.52-0.11,39.85"/><path d="M57.88,42.41C61.37,42.01,67,40.75,69,40.5c1.22-0.15,1.97-0.13,2.58,0.02"/><path d="M65.57,42.19c0.53,0.27,0.85,1.2,0.95,1.73c0.11,0.53,0.07,5.85-0.04,9.18"/><path d="M58.59,55.81c3.12-0.51,9.1-1.75,12.48-2.07c2.15-0.21,2.74,0.74,2.44,2.02c-0.54,2.31-1.33,5.24-1.89,8.02"/><path d="M58.63,66.3c3.49-0.39,12.75-1.6,16.03-1.84"/><path d="M65.93,65.77c0.53,0.26,0.85,1.2,0.95,1.73c0.1,0.53,0.07,9.6-0.04,12.93"/><path d="M58.88,81.89c3.49-0.4,9.37-1.39,13.97-1.99c1.22-0.16,1.97-0.13,2.58,0.02"/><path d="M73.06,14c1.07,1.71,1.25,2.18,1.48,5.85c1.88,30.73,8.31,61.22,21.45,72.69c4.22,3.68,3.62,0.73,3.08-6.83"/><path d="M93.16,40.39c0.07,1.25,0.04,3.22-0.14,5.03c-1.13,11.5-9.61,38.13-24.69,49.29"/><path d="M81.95,12.75c2.78,1.65,7.22,5.42,8.51,8.25"/></svg>