<svg><path d="M16.26,28.42c0.81,0.38,3.28,0.92,4.09,0.88c6.4-0.3,18.9-2.55,23.83-2.88c1.34-0.09,2.15,0.18,2.82,0.37"/><path d="M30.41,12.45c1.26,0.85,2.51,2.39,2.51,4.71c0,6.93,0.15,17.65,0,23.85"/><path d="M11.13,43.56c0.92,0.5,3.43,0.53,4.35,0.5c7.52-0.3,20.77-3.05,33.69-4.4c1.52-0.16,2.44,0.24,3.21,0.48"/><path d="M26.61,45.39c0.65,0.98,1.43,4.1,1.3,5.75c-1.42,18.1-3.16,33.1-11.32,42.1"/><path d="M37.82,44.58c0.08,0.48,1.02,1.49,1.09,4.52c0.35,14.55,0.38,31.94,0.38,36.9c0,12.25-4.54,2.5-5.85,1.25"/><path d="M18.97,55.89c0.03,0.58,0.06,1.48-0.06,2.31c-0.69,4.87-4.17,13.3-9.03,20.8"/><path d="M44.12,54.33c2.26,3.46,5.84,14.24,6.4,19.63"/><path d="M55,15.75c0.75,0.75,2.45,1.37,3.75,1.32c7.75-0.32,22.99-2.58,28.19-3.08c2.14-0.21,3.43,1.22,3.12,2.43c-1.27,5.02-2.75,11.08-4.64,18.02"/><path d="M59.73,38.08c6.89-0.64,18.88-1.54,28.34-2.52"/><path d="M58.33,18.5c0.22,1,0,74.25-0.22,80.5"/><path d="M62.19,51.29c1.09,0.31,1.23,0.76,3.42,0.31c2.19-0.46,17.41-3.93,18.91-4.38s2.59,1.68,2.05,3.36C81.5,66.25,73.25,80.5,63,89.5"/><path d="M61.54,56.23c2.21,2.52,16.96,23.77,29,33.27c1.75,1.38,2.9,2.44,4.46,2.93"/></svg>