<svg><path d="M17.58,30.49c1.75,0.37,3.52,0.49,5.31,0.36c5.91-0.5,12.49-1.6,19.98-2.77c1.95-0.31,3.71-0.52,5.56-0.01"/><path d="M33.4,15.2c0.83,0.83,1.13,2.05,1.13,3.09c0,0.55,0,18.59,0,22.88"/><path d="M10.54,44.64c2.53,0.55,5.01,0.47,7.59,0.07c9.62-1.46,18.96-2.6,28-3.79c2.44-0.32,4.73-0.47,7.08,0.1"/><path d="M26.98,46.61c1.08,1.08,1.06,2.89,1.02,4.46C27.5,67,26.62,80.75,17,92.25"/><path d="M38.29,46.16c0.9,0.9,1.06,1.99,1.06,4.35s-0.09,30.7-0.09,37.74c0,9.01-4.59,2.31-5.98,0.53"/><path d="M18.87,57.36c0.03,0.59,0.14,1.53-0.06,2.36C17.12,66.88,15.5,72.88,10,80.5"/><path d="M44.25,56.25c1.81,2.92,4.18,12.03,4.63,16.58"/><path d="M56.08,28.99c2.29,0.34,4.61,0.58,6.92,0.33c9-0.95,16.75-1.7,26.13-2.69c1.82-0.19,3.53-0.5,5.3-0.06"/><path d="M74.4,13.2c0.89,0.89,1.13,2.05,1.13,3.09c0,0.55,0.08,22.48,0,25.88"/><path d="M53.04,45.64c2.33,0.49,4.62,0.33,6.97,0c8.99-1.27,21.49-2.14,32-3.01c2.69-0.22,5.32-0.37,7.95,0.14"/><path d="M68.66,47.86c0.99,0.99,1.12,2.82,1.08,4.37c-0.37,16.88-3.62,31.9-13.49,40.27"/><path d="M80.79,46.66c0.84,0.84,1.06,2.12,1.06,4.35s-0.09,30.57-0.09,37.61c0,9.01-4.84,2.93-6.23,1.16"/><path d="M60.86,57.36c0.14,1.29,0,2.54-0.43,3.75c-1.61,5.98-4.31,11.76-9.93,19.64"/><path d="M88.75,56.75c3.31,3.59,8.3,14,9.13,19.58"/></svg>