<svg><path d="M22.19,27.47c1.81,0.28,3.57,0.26,5.19,0.07C33.36,26.8,42.8,25,48.52,24.32c1.72-0.21,3.33-0.38,5.04,0.05"/><path d="M37.62,12.46c0.96,0.96,1.23,2.04,1.23,3.58c0,8.13-0.09,21.82-0.09,24.58"/><path d="M14.21,44.03c2.25,0.88,5.33,0.62,7.67,0.23c10.74-1.76,21.49-3.51,31.24-4.39c2.47-0.22,5.01-0.25,7.41,0.31"/><path d="M38.29,45.3c0.89,0.89,1.16,2.45,1.16,3.79c0,0.96-0.07,20.15-0.07,27.53"/><path d="M40.32,58.97c3.74-0.45,8.9-1.75,12.21-2.41c1.27-0.25,2.63-0.58,3.9-0.13"/><path d="M26.5,59.3c0.25,0.82,0.24,1.94-0.1,2.95C24,69.5,19.75,78.75,10,90.26"/><path d="M23.92,71.49c10.58,3.76,38.73,17.55,52.06,22.34c4,1.44,8.42,2.89,12.66,3.32"/><path d="M71.25,12.88c1.31,1.31,1.4,2.62,1.4,4.09c0,0.65,0.06,41.01,0.04,59.52c0,3.42,0,6.1,0,7.64"/><path d="M76.5,38.12c6.35,2.8,16.33,10.26,18,15.88"/></svg>