<svg><path d="M30.13,28.92c1.62,0.38,4.6,0.57,6.21,0.38C47.25,28,60.75,26,70.08,25.16c2.69-0.24,4.32,0.18,5.67,0.37"/><path d="M52.01,12.37c1.25,1.25,2.05,2.85,2.05,5.01c0,4.58-0.06,25.5-0.06,26.37"/><path d="M15.13,48.05c2.29,0.69,6.48,0.95,8.77,0.69c24.84-2.74,36-4.24,60.98-6.45c3.79-0.33,6.35,0.08,8.25,0.43"/><path d="M53.12,49c1.13,1.13,1.78,3.13,1.78,4.75c0,6.38-0.15,21.5-0.15,27"/><path d="M56.5,63.5c7.75-1,15.25-2.09,17.84-2.09c1.57,0,2.5,0.18,3.29,0.37"/><path d="M36.75,60.25c0.11,1.43-0.01,2.77-0.41,4.15c-2.01,6.95-8.97,19.48-20.84,28.1"/><path d="M33.75,73.5c10.2,2.44,40.07,16.59,49.72,18.89C86.44,93.1,90.1,93.73,93,94"/></svg>