<svg><path d="M33.33,27.84c1.08,0.36,3.06,0.46,4.14,0.36c10.88-0.97,23.29-3.24,35.9-4.16c1.79-0.13,2.88,0.17,3.78,0.35"/><path d="M52.57,11.38c0.13,0.31,1.89,1.63,1.89,3.62c0,12.81,0.12,25,0.12,29.41"/><path d="M17,46.78c1.91,0.57,5.43,0.72,7.33,0.57C42,46,68,43,86.46,41.8c3.18-0.21,5.1,0.27,6.7,0.56"/><path d="M33.69,54.68c3.74,2.49,9.38,9.53,10.31,13.41"/><path d="M71.3,50.68c0.12,0.83,0.53,2.31-0.23,3.33C64.75,62.5,52.75,74.75,31.2,85.9"/><path d="M18.75,88.13C22,87,27.26,86.5,31.52,87.14c4.26,0.65,28.45,4.94,32.63,5.84C77,95.75,85.25,95.5,91.25,95.77"/></svg>