<svg><path d="M18.69,30.41c1.53,0.65,2.98,0.48,4.58,0.33c5.41-0.52,13.44-1.73,18.24-2.25c1.24-0.13,2.24-0.24,3.55-0.11"/><path d="M32.9,13.83c1.02,1.02,1.23,2.16,1.23,3.42c0,8.38,0.02,22.77,0.02,25.62"/><path d="M14.46,46.12c1.67,0.76,4.17,0.45,5.92,0.17c7.19-1.16,14.94-2.3,21.38-3.11c1.93-0.24,4.24-0.31,6.03,0.04"/><path d="M33.29,46.55c0.83,0.83,1.16,2.08,1.16,3.29c0,0.96-0.07,20.77-0.07,27.78"/><path d="M35.57,61.34c3.94-0.47,8.26-1.69,9.96-1.69c1.03,0,1.64-0.08,2.16,0.1"/><path d="M22.02,56.8c0.48,1.07,0.32,2.29,0.18,3.57c-0.85,7.52-3.7,22.38-12.2,33.9"/><path d="M20.67,74.74C31.86,77.06,60.07,88.75,75,93.17c5.17,1.53,10.56,2.67,15.89,3.49"/><path d="M53.77,36.45c0.83,0.83,1.18,1.93,1.18,3.05c0,0.79-0.22,30.03-0.37,31.98c-0.13,1.76,0.68,2.41,2.14,0.97c4.78-4.7,7.4-7.2,12.68-11.82"/><path d="M51.59,35.57C53.5,36,55.31,35.89,57,35.76C67,35,75.38,33.5,83.51,31.58c1.34-0.32,3.61-0.54,4.96-0.13"/><path d="M63.41,11.21c1.29,1.51,1.71,2.94,2.02,6.18C68,43.81,75.46,66.29,88.66,78.73c5.59,5.27,6.59,4.65,5.75-4.29"/><path d="M87.28,41.17c0.06,0.88,0.13,2.28-0.12,3.55c-1.49,7.48-10.07,24.71-21.8,34.75"/><path d="M77.5,12.5c2.85,1.87,7.41,6.15,8.74,9.36"/></svg>