<svg><path d="M12.78,20.24c0.39,0.37,0.79,0.67,0.97,1.13c1.36,3.62,2.49,13.12,3.42,19.63"/><path d="M14.72,22.19c11.03-1.94,17.79-2.98,22.38-3.46c1.68-0.17,2.69,1.03,2.45,2.05c-1.11,4.71-1.78,10.32-3.14,15.7"/><path d="M18.34,39.32c5.4-0.54,12.34-0.97,19.74-1.8"/><path d="M26.37,40.24c1.09,0.5,1.96,2.23,1.96,3.25c0,5.51,0.28,34.01,0.28,44"/><path d="M28.88,62.74c3.37-0.49,5.87-1.24,9.35-1.5c1.74-0.13,2.18-0.25,3.26,0"/><path d="M13.37,58.49c1.09,0.5,1.74,2.25,1.96,3.25c0.22,1,0.42,21.01,0.42,32.76"/><path d="M10,95.07c0.34,0.8,2.5,1.68,5.2,0.4c8.44-4,16.24-8.47,25.3-13.48"/><path d="M47.89,36.47c2.02,0.42,4.2,0.54,5.14,0.45c9.48-0.9,23.71-2.92,32.56-3.54c1.57-0.11,2.53,0.21,3.32,0.44"/><path d="M43.15,55.98c2.09,0.35,5.41,0.5,6.39,0.38C60.5,55,84.81,51.91,93.67,52.05c1.64,0.02,2.62,0.18,3.44,0.37"/><path d="M66.68,13.25c0.48,1.29,1.19,1.96,1.24,4.45C69,70.25,56.25,88.25,39.5,97.5"/><path d="M67.18,54.12c6.3,12.05,17.37,31.17,24.43,38.54c2.04,2.12,2.53,2.88,3.39,3.11"/></svg>