<svg><path d="M15.28,21.24c0.39,0.37,0.79,0.67,0.97,1.13c1.36,3.62,2.49,15.12,3.42,21.63"/><path d="M17.22,23.19c9.28-1.94,17.79-2.98,22.38-3.46c1.68-0.17,2.69,1.03,2.45,2.05c-1.11,4.71-2.28,11.32-3.64,16.7"/><path d="M20.34,41.32c5.4-0.54,12.34-0.97,19.74-1.8"/><path d="M27.87,41.74c1.09,0.5,1.96,2.23,1.96,3.25c0,5.51,0.28,27.51,0.28,37.5"/><path d="M30.38,58.24c3.37-0.49,6.37-1.24,9.85-1.5c1.74-0.13,2.18-0.25,3.26,0"/><path d="M15.37,53.99c1.09,0.5,1.74,2.25,1.96,3.25c0.22,1,0.92,20.51,0.92,32.26"/><path d="M11,90.57c0.34,0.8,2.87,1.85,3.7,1.4C22.91,87.5,30.94,82.5,40,77.49"/><path d="M69.22,16.25c1.17,0.55,1.87,2.49,2.11,3.6c0.23,1.11,0,63.31-0.23,70.24"/><path d="M71.43,52.23c5.5-1.11,14.92-2.94,19.6-3.22c1.81-0.11,2.26-0.28,3.39,0"/><path d="M52.33,46.95c1.17,0.55,1.87,2.49,2.11,3.6c0.23,1.11,0,33.6-0.23,40.53"/><path d="M38.25,92.17c0.71,0.19,2.61,0.75,4.49,0.58c12.43-1.12,35.49-3.5,48.44-3.5c1.89,0,4.72,0.28,6.57,1.11"/></svg>