<svg><path d="M29.75,18.99c0.82,0.82,1.43,1.68,1.66,2.33c1.15,3.39,3.44,13.48,4.61,18.68c0.34,1.51,0.59,2.61,0.68,3"/><path d="M31.56,19.63c12.09-1.87,34.1-5.01,40.27-5.14c2.89-0.06,3.98,2.41,3.7,3.88c-0.73,3.84-3.94,15.23-4.51,17.27"/><path d="M37.25,40.74c7.07-0.43,20.75-2.48,31.53-3.73c1.71-0.2,3.34-0.14,4.86-0.32"/><path d="M52.75,41c0.81,0.81,1.4,1.75,1.4,3.62c0,5.11,0.37,32.49,0.35,33.88"/><path d="M55.75,59.25C56.94,59.25,66.25,57.75,73.54,56.53C75.08,56.27,76.53,56.25,77.75,56.25"/><path d="M36.49,55c0.13,1.5,0.14,3.05-0.2,4.35c-2.04,7.78-10.16,24.15-17.79,30.9"/><path d="M33.25,70.75C41.75,72.12,67,87.38,82,92.5c2.94,1,6.85,1.68,9.75,2"/></svg>