<svg><path d="M12.28,20.21c0.46,0.35,0.93,0.63,1.13,1.06C15,24.69,16.32,37.87,17.41,44"/><path d="M14.61,21.9c8.76-1.68,16.79-3,21.13-3.41c1.58-0.15,2.54,0.89,2.31,1.77c-1.04,4.06-2.15,13.85-3.43,18.5"/><path d="M18.06,40.69c5.09-0.46,11.65-1.34,18.64-2.05"/><path d="M25.87,41.74c1.09,0.5,1.96,2.23,1.96,3.25c0,5.51,0.28,28.01,0.28,38"/><path d="M28.38,60.24c3.37-0.49,4.87-1.74,8.35-2c1.74-0.13,2.18-0.25,3.26,0"/><path d="M14.87,55.99c1.09,0.5,1.74,2.25,1.96,3.25c0.22,1,0.42,18.51,0.42,30.26"/><path d="M12,90.44c0.33,0.87,2.77,1.01,3.57,0.52c7.93-4.85,15.18-9.78,23.93-15.22"/><path d="M56.12,22.58c0.03,0.5,0.14,1.3-0.05,2C54.25,31,49.71,42.04,44.64,47.7"/><path d="M55.66,35.79c0.73,0.27,2.06,0.33,2.8,0.27c10.11-0.78,19.59-3,26.41-3.49c1.21-0.09,4.18,0.13,4.79,0.27"/><path d="M45.07,56.41c1.76,0.14,4.04,0.34,4.74,0.29c8.83-0.73,36.72-4.51,42.93-4.4c1.15,0.02,3.94,0.14,4.51,0.28"/><path d="M67.9,12.5c0.44,1.2,0.53,2.32,0.61,4.64C70.25,70.5,59.75,81.75,41,95"/><path d="M68.39,54.59c7.42,12.2,17.48,30.11,24.87,36.82c2.15,1.96,3.6,2.91,4.49,3.15"/></svg>