<svg><path d="M12.78,18.74c0.39,0.37,0.79,0.67,0.97,1.13c1.36,3.62,2.49,17.62,3.42,24.13"/><path d="M14.72,21.92c8.63-1.81,16.53-3.24,20.8-3.69c1.56-0.16,2.5,0.96,2.27,1.91c-1.03,4.38-2.11,13.33-3.38,18.35"/><path d="M17.84,41.32c5.4-0.54,11.34-0.97,18.74-1.8"/><path d="M25.87,41.74c1.09,0.5,1.96,2.23,1.96,3.25c0,5.51,0.28,34.01,0.28,44"/><path d="M28.38,62.24c3.37-0.49,6.37-1.74,9.85-2c1.74-0.13,2.18-0.25,3.26,0"/><path d="M13.87,58.99c1.09,0.5,1.74,2.25,1.96,3.25c0.22,1-0.08,22.01-0.08,33.76"/><path d="M11,95.57c0.34,0.8,2.87,1.85,3.7,1.4C22.91,92.5,30.94,87,40,81.99"/><path d="M41.86,39.65c1.01,0.73,3.03,0.56,3.71,0.38c5.31-1.37,15.66-3.71,18.66-4.44c1.95-0.47,3.38,0.66,3.27,3.98c-0.28,8.76-1.25,36.93-6.3,48.77c-3.66,8.59-6.35,2.32-7.14,1.28"/><path d="M55.44,16.93c0.16,0.41,0.63,2.22,0.55,4.28c-0.75,19.17-5.24,53.54-15.84,70.23"/><path d="M74.94,31.95c0.23,0.95,0.97,1.74,1.07,2.94c0.81,9.43,1.27,39.94,1.82,56.88"/><path d="M76.23,33.93c6.97-1.36,13.08-2.84,16.99-3.03c1.67-0.08,2.98,1.03,2.85,3.23c-0.28,4.73-2.1,35.72-3.18,53.91"/><path d="M78.07,89.89c4.96-0.47,10.29-1.09,16.78-1.65"/></svg>