<svg><path d="M14.28,23.21c0.37,0.32,0.75,0.58,0.91,0.97c1.28,3.13,3.35,14.7,4.23,20.32"/><path d="M16.11,24.9c8.76-1.68,17.79-3,22.13-3.41c1.58-0.15,2.54,0.89,2.31,1.77c-1.04,4.06-2.15,11.35-3.43,16"/><path d="M20.06,42.19c5.09-0.46,11.65-1.84,18.64-2.55"/><path d="M26.87,42.74c1.09,0.5,1.96,2.23,1.96,3.25c0,5.51,0.28,25.01,0.28,35"/><path d="M30.38,58.74c3.37-0.49,5.87-1.24,9.35-1.5c1.74-0.13,2.18-0.25,3.26,0"/><path d="M15.37,57.99c1.09,0.5,1.74,2.25,1.96,3.25c0.22,1,0.42,14.01,0.42,25.76"/><path d="M10.5,88.57c1.5,1.43,3.37,1.35,4.2,0.9C22.91,85,30.44,80.5,39.5,75.49"/><path d="M52.75,29.37c0.62,1.09,1.04,4.07,1.03,6.35c-0.12,25.66-2.03,45.53-15.91,58.92"/><path d="M52.63,30.01c12.87-1.76,29.88-3.84,35.01-4.18c9.03-0.59,1.65,8.41,0.37,9.28"/><path d="M67.47,14.75c1.5,0.5,2.39,2.25,2.69,3.25s-0.11,21.5-0.11,31.75"/><path d="M55.86,51.83c1.34,0.34,1.64,0.91,4.31,0.4c5.72-1.1,17.78-3.94,23.47-4.74c1.9-0.27,3.41,2.03,2.51,3.77c-9.65,18.5-19.65,34.5-39.53,43.64"/><path d="M57.04,57.37c3.51,0.85,20.68,23.76,32.92,33.14c1.9,1.46,3.29,2.44,5.07,2.92"/></svg>