<svg><path d="M14.28,23.21c0.37,0.32,0.75,0.58,0.91,0.97c1.28,3.13,2.35,15.2,3.23,20.82"/><path d="M16.11,24.9c8.76-1.68,18.29-3,22.63-3.41c1.58-0.15,2.54,0.89,2.31,1.77c-1.04,4.06-2.15,12.35-3.43,17"/><path d="M19.06,43.19c5.09-0.46,13.15-1.34,20.14-2.05"/><path d="M26.87,44.24c1.09,0.5,1.96,2.23,1.96,3.25c0,5.51,0.28,27.01,0.28,37"/><path d="M29.38,60.74c3.37-0.49,6.37-1.74,9.85-2c1.74-0.13,2.18-0.25,3.26,0"/><path d="M15.87,59.49c1.09,0.5,1.74,2.25,1.96,3.25c0.22,1,0.42,16.51,0.42,28.26"/><path d="M11,92.57c1.75,1.18,3.37,0.85,4.2,0.4C23.41,88.5,30.94,84,40,78.99"/><path d="M50.82,19.94c1.68,0.06,2.24,0.29,3.95,0.02c6.52-1.03,23.62-3.35,25.28-3.48c1.74-0.13,2.75,1.45,2.73,2.25c-0.12,5.64-1.29,21.51-2.51,28.39"/><path d="M54.48,34.1c5.77-0.63,20.04-2.61,25.59-3.11"/><path d="M54.59,47.64c7.91-1.01,17.29-1.97,25.88-2.94"/><path d="M53.01,19.86c0.99,1.14,0.85,2.39,0.85,4.02c0,1.26,0.26,60.12,0.26,64.49c0,2.79,0.72,5.93,3.99,3.43C61.75,89,65.5,85,71.45,80.63"/><path d="M87.7,49.21c0.29,1.43-0.02,1.99-1.01,3.14c-1.92,2.23-9.72,8.38-12.35,10.38"/><path d="M60.13,55.59c5.82,0.4,17.46,20.44,27.91,27.95c4.54,3.26,6.61,4.35,9.02,5"/></svg>