<svg><path d="M13.78,20.71c0.37,0.32,0.75,0.58,0.91,0.97c1.28,3.13,2.35,15.2,3.23,20.82"/><path d="M15.61,22.4c8.76-1.68,17.79-3,22.13-3.41c1.58-0.15,2.54,0.89,2.31,1.77c-1.04,4.06-2.15,12.35-3.43,17"/><path d="M18.56,40.19c5.09-0.46,13.65-0.84,20.64-1.55"/><path d="M25.37,41.74c1.09,0.5,1.96,2.23,1.96,3.25c0,5.51,0.28,26.51,0.28,36.5"/><path d="M27.88,57.24c3.37-0.49,8.37-1.24,11.85-1.5c1.74-0.13,2.18-0.25,3.26,0"/><path d="M14.37,52.99c1.09,0.5,1.74,2.25,1.96,3.25c0.22,1,0.42,19.51,0.42,31.26"/><path d="M10,89.07c0.75,0.68,2.5,1.68,4.7,0.4C22.78,84.77,31.94,79,41,73.99"/><path d="M46.68,22.02c1.48,0.46,4.79,0.58,6.26,0.46C71.48,20.88,79.06,20,93.44,19.1c2.46-0.15,3.95,0.22,5.18,0.44"/><path d="M67.49,23.93c0.06,1.06,0.22,2.76-0.12,4.26C63.75,44,57.25,65.5,36.25,83.5"/><path d="M54.13,58.5c0.49,0.74,1.12,1.29,1.21,2.26c0.67,7.03,3.01,20.18,3.95,33.48"/><path d="M54.98,61.13c7.49-1.41,30.07-4.42,35.18-4.64c2.11-0.09,3.44,2.1,3.07,4.13c-1.29,7-3.33,16.41-4.42,28.39"/><path d="M59.15,91.81c5.99-0.71,25.11-2.01,32.75-2.22"/></svg>