<svg><path d="M14.78,20.21c0.37,0.32,0.75,0.58,0.91,0.97c1.28,3.13,2.35,15.7,3.23,21.32"/><path d="M16.61,21.9c8.76-1.68,17.29-2.5,21.63-2.91c1.58-0.15,2.54,0.89,2.31,1.77c-1.04,4.06-2.15,12.35-3.43,17"/><path d="M19.56,40.19c5.09-0.46,12.65-0.84,19.64-1.55"/><path d="M26.87,41.24c1.09,0.5,1.96,2.73,1.96,3.75c0,5.53,0.28,26,0.28,36"/><path d="M29.38,57.24c3.37-0.49,7.37-1.74,10.85-2c1.74-0.13,2.18-0.25,3.26,0"/><path d="M14.87,52.99c1.09,0.5,1.74,2.25,1.96,3.25c0.22,1,0.42,19.51,0.42,31.26"/><path d="M11,88.07c1.25,1.43,3.37,1.35,4.2,0.9C23.41,84.5,30.94,81,40,75.99"/><path d="M51.99,19.88c1.18,0.53,3.46,0.8,4.73,0.7c6.79-0.57,31.23-3.32,33.95-3.76c1.34-0.22,2.94,1.97,2.46,3.69c-1.4,5-1.43,6.25-2.5,11.03"/><path d="M54.47,34.78c4.83-0.33,32.53-3.03,37.38-3.11"/><path d="M54.08,21.46c0,1.29-0.01,7.04-0.01,9.44c0,20.1-1.83,41.85-15.58,57.85"/><path d="M54.29,48.65C55.53,49,56.62,49.1,58,48.95c8.75-0.95,27.44-2.82,31.75-3.7c4.91-1,5.44,2.25,5.26,5.75c-0.46,9.24-4.54,33.08-8.37,41.25c-3.4,7.25-7.14,0.34-8.42-0.75"/><path d="M55.46,61.47c0.22,0.3,0.45,0.55,0.54,0.93c0.76,3,1.68,12.26,2.2,17.65"/><path d="M56.83,62.5c7.42-1,16.58-1.91,19.36-2.33c1.02-0.16,1.63,1.56,1.49,2.47c-0.6,3.77-1.29,7.02-2.58,12.46"/><path d="M58.42,78.07c3.27-0.48,14.04-2.01,18.19-2.49"/></svg>