<svg><path d="M14.28,22.59c0.75,0.54,1.14,1.27,1.36,2.16c0.99,3.88,1.8,8.63,2.62,13.5c0.24,1.42,0.46,2.78,0.65,4"/><path d="M16.22,23.9c8.16-1.58,15.66-2.68,20.54-3.22c3.01-0.33,4.45,0.7,3.66,3.99c-0.91,3.78-1.71,7.96-3.01,12.71"/><path d="M19.34,39.98c4.39-0.41,10.05-1.3,15.91-1.94c1.34-0.15,2.7-0.29,4.08-0.43"/><path d="M29.12,40.99c1.01,1.01,1.21,2.13,1.21,3.5c0,1.02,0.03,24.01,0.03,32.25"/><path d="M31.63,54.99c3.49-0.74,5.62-1.24,8.35-1.75c1.65-0.31,2.64-0.24,3.51,0"/><path d="M17.62,57.24c1.07,1.07,1.21,2.26,1.21,3.75c0,1.02,0.03,16.13,0.03,23.75"/><path d="M12.75,86.07c1.12,0.8,2.54,0.75,3.57,0.15C25.38,81,32.25,77,41,71.99"/><path d="M58.74,18.36c1.01,1.01,1.15,2.14,1.17,3.98C60.38,60.25,58.5,78,41.15,92.18"/><path d="M45.16,35.24c2.81,1.56,6.49,5.99,7.2,8.42"/><path d="M42.86,63.91c0.97,0.49,1.94,0.16,2.67-0.4c1.02-0.77,6.4-5.68,10.4-9.41"/><path d="M70.53,16.69c0.97,1.02,1.24,2.21,1.24,3.8c0,8.02-0.01,54.45-0.01,58.64c0,8.88,1.75,10.9,11.94,10.9c11.06,0,12.31-1.69,12.31-8.37"/><path d="M88.4,27.21c0.07,0.77-0.02,1.24-0.38,1.93c-1.75,3.41-4.63,6.82-10.34,12.37"/><path d="M75.95,54.15c5.01,2.25,12.94,9.22,14.2,12.71"/></svg>