<svg><path d="M14.78,20.99c0.84,0.67,1.24,1.56,1.41,2.62C17.38,31,18.23,36.6,18.68,40c0.16,1.24,0.32,2.42,0.48,3.5"/><path d="M16.97,22.69c8.37-1.43,14.76-2.39,19.31-2.95c2.87-0.35,5.24-0.4,4.46,3.15c-0.98,4.45-1.85,10.22-3.08,15.1"/><path d="M19.84,41.32c4.51-0.45,10.09-1.17,16.12-1.88c1.19-0.14,2.4-0.28,3.62-0.42"/><path d="M29.12,41.99c1.01,1.01,1.21,2.38,1.21,3.5c0,4.88,0.03,25.88,0.03,36"/><path d="M31.38,55.24c3.37-0.49,5.37-0.74,8.85-1c1.74-0.13,2.18-0.25,3.26,0"/><path d="M17.62,57.99c1.01,1.01,1.16,2.39,1.21,4C19,67.75,19.62,76.12,20.25,87"/><path d="M12.75,89.82c0.88,0.93,2.16,1.12,3.82,0.15c9.18-5.34,15.18-8.47,23.93-13.48"/><path d="M47,31.06c2.19,0.57,5.08,0.15,7.25-0.38c5.55-1.35,14.01-2.68,20.14-3.53c1.89-0.26,3.48-0.51,5.37-0.09"/><path d="M48.33,44.38c2.15,0.57,3.79,0.64,5.92,0.12c8.75-2.13,14.5-3.25,21.78-4.29c1.83-0.26,3.34-0.34,5.11,0.07"/><path d="M45,59.41c2,0.59,4.25,0.34,7.02-0.27c7.25-1.61,20.73-4.64,31.62-6.31c2.1-0.32,4.35-0.52,6.48-0.32"/><path d="M57.99,13c1.13,1.13,1.8,2.83,2.27,6.75c4,33.88,13.87,57.38,30.5,71.94c6.22,5.45,6.26,0.78,5.33-7.29"/><path d="M83.58,59.99c0.1,0.83-0.15,1.94-0.7,3.07C79,71,67.75,85.38,47.15,95.37"/><path d="M76.88,13.38c3.57,1.53,9.29,5.02,10.95,7.64"/></svg>