<svg><path d="M14.03,19.92c0.84,0.84,1.13,1.64,1.34,2.58c0.64,2.86,1.75,8.52,2.52,12.6c0.44,2.34,0.77,4.16,0.84,4.65"/><path d="M16.15,21.57c8.2-1.25,14.84-2.3,19.35-2.86c3.37-0.42,4.66,0.11,3.89,3.58c-0.86,3.88-1.61,7.5-2.84,12.37"/><path d="M19.66,38.14c4.19-0.42,9.5-1.16,15.34-1.95c1.4-0.19,2.79-0.37,4.17-0.52"/><path d="M29.37,39.74c1.01,1.01,1.21,2.13,1.21,3.75c0,1.02,0.03,28.63,0.03,35.75"/><path d="M31.88,54.99c2.62-0.62,5.49-0.99,8.35-1.5c1.72-0.31,2.68-0.25,3.76,0"/><path d="M18.12,54.74c0.82,0.82,1.21,2.23,1.21,3.25c0,7.76,0.03,17.63,0.03,26.5"/><path d="M12.5,86.82c0.9,0.9,2.09,0.99,3.82,0.17c8.93-4.24,15.93-7.57,24.68-11.75"/><path d="M49.6,18.88c1.74,1.09,4.34,0.94,6.19,0.53c5.71-1.26,18.46-4.16,26.03-5.41c2.88-0.47,3.87,1.89,2.37,3.78c-2.56,3.22-9.8,11.18-13.06,14.85"/><path d="M62.27,28.53c2.4,1.2,8.61,5.8,9.74,8.93"/><path d="M50.07,40.77C50.9,41.6,51,42.75,51,44.12c0,2.88,0.09,28.71,0.1,42.62c0,4.03,0,6.75,0,7.09"/><path d="M52.26,42.61c7.29-0.78,30.68-3.86,35.86-4.41c2.96-0.31,4.2,0.9,4.2,3.89c0,3.17-0.06,32.93-0.06,46.74c0,9.99-5.83,1.47-7.02,0.88"/><path d="M52.01,56.93c10.86-1.18,30.36-3.05,39-3.59"/><path d="M51.99,71.31c7.88-0.81,32.39-2.89,39.28-3.23"/><path d="M69.41,43.73c0.93,0.93,1.05,2.02,1.05,3.14c0,0.52-0.05,23.89-0.05,36.64c0,2.12-0.02,4.09-0.02,6.12"/></svg>