<svg><path d="M14.78,20.21c0.37,0.32,0.75,0.58,0.91,0.97c1.28,3.13,2.35,15.2,3.23,20.82"/><path d="M16.61,21.9c8.76-1.68,16.79-3,21.13-3.41c1.58-0.15,2.54,0.89,2.31,1.77c-1.04,4.06-2.15,12.35-3.43,17"/><path d="M19.56,39.69c5.09-0.46,11.65-0.84,18.64-1.55"/><path d="M25.87,41.24c1.09,0.5,1.96,2.23,1.96,3.25c0,5.51,0.28,26.01,0.28,36"/><path d="M28.38,57.74c3.37-0.49,9.37-1.74,12.85-2c1.74-0.13,2.18-0.25,3.26,0"/><path d="M14.87,52.49c1.09,0.5,1.74,2.25,1.96,3.25c0.22,1,0.42,20.01,0.42,31.76"/><path d="M10.5,87.87c0.35,0.91,2.97,2.1,3.83,1.59c8.49-5.08,16.8-10.77,26.17-16.46"/><path d="M47.97,26.99c1.09,0.5,3.09,0.58,4.18,0.5c9.18-0.68,25.93-2.68,35.76-3.15c1.82-0.09,2.33-0.08,3.82-0.02"/><path d="M49.24,37.95c0.26,0.4,0.52,0.73,0.63,1.23c0.88,3.94,2.79,14.19,3.39,21.27"/><path d="M50.13,39.69c11.62-1.94,33.39-3.53,36.94-3.85c2.21-0.2,3.61,2.07,3.02,3.92c-1.57,4.96-2.09,9.98-3.18,13.95"/><path d="M53.16,56.81c10.09-0.56,28.86-2.04,37.05-2.64"/><path d="M66.75,13.25c1.25,0.5,2,2.25,2.25,3.25s0,76.75-0.25,83"/><path d="M68.92,55.32C63.5,66.78,49.39,83.01,38.11,89.5"/><path d="M68.99,55.1c3.52,4.39,18.63,25.73,22.45,30.04c1.29,1.46,2.41,2.09,3.7,2.51"/></svg>