<svg><path d="M12.78,20.75c0.37,0.32,0.75,0.59,0.91,0.99c1.28,3.19,2.35,15.52,3.23,21.26"/><path d="M14.61,22.47c8.64-1.22,17.29-2.57,21.63-2.99c1.58-0.15,2.54,0.91,2.31,1.81c-1.04,4.15-2.15,12.11-3.43,16.86"/><path d="M17.56,41.14c5.09-0.47,13.15-1.35,20.14-2.08"/><path d="M25.37,41.74c1.09,0.5,1.96,2.23,1.96,3.25c0,5.51,0.28,28.01,0.28,38"/><path d="M27.88,58.74c3.37-0.49,4.87-1.74,8.35-2c1.74-0.13,2.18-0.25,3.26,0"/><path d="M13.87,54.49c1.09,0.5,1.74,2.25,1.96,3.25c0.22,1-0.08,20.01-0.08,31.76"/><path d="M9.5,90.57c1.25,1.43,3.37,0.85,4.2,0.4C21.91,86.5,28,83,38.5,76.99"/><path d="M50.1,16.51c0.63,0.69,1.53,1.52,1.53,2.45c0,0.93,2.77,27.54,2.88,28.48"/><path d="M51.76,18.04c1.9-0.12,34.39-3.3,36.13-3.29c2.28,0.01,3.23,2.71,3.12,3.39c-0.23,1.4-3.02,26.38-3.02,27.08"/><path d="M53.39,31.62c2.57,0,33.33-2.94,36.23-2.94"/><path d="M55.29,45.29c5.22-0.5,25.83-2.31,32.34-2.74"/><path d="M44.26,58.88c0.76,0.25,2.78,0.88,4.79,0.76c10.45-0.65,29.8-2.51,45.93-3.02c2.02-0.06,2.52,0.25,3.78,0.51"/><path d="M69.62,18.42c0.96,0.53,1.54,2.38,1.73,3.44c0.19,1.06,0,70.29-0.19,76.89"/><path d="M69.8,58.59c-5.41,10.52-19.46,25.4-30.7,31.35"/><path d="M71.36,58.06c3.13,4.11,16.85,23.57,20.25,27.61c1.15,1.37,2.14,1.96,3.29,2.35"/></svg>