<svg><path d="M13.72,20.08c0.34,0.29,0.69,0.54,0.84,0.9c1.19,2.89,1.67,14.07,2.49,19.27"/><path d="M15.41,21.64c8.11-1.55,16.54-2.28,20.56-2.66c1.47-0.14,2.35,0.82,2.14,1.64c-0.97,3.76-2.49,10.43-3.68,14.73"/><path d="M17.65,38.11c4.72-0.43,11.78-1.27,18.25-1.93"/><path d="M25.37,39.24c1.09,0.5,1.96,2.23,1.96,3.25c0,5.51-0.22,30.01-0.22,40"/><path d="M27.38,58.74c3.37-0.49,3.87-1.24,7.35-1.5c1.74-0.13,2.18-0.25,3.26,0"/><path d="M14.87,52.49c1.09,0.5,1.74,2.25,1.96,3.25c0.22,1,0.42,21.01,0.42,32.76"/><path d="M10,89.68c1.25,1.07,3.42,1.22,4.27,0.8c8.35-4.16,16.02-8.32,25.23-12.99"/><path d="M52.13,16.21c0.04,0.72,0.08,1.85-0.07,2.88c-0.87,6.08-4.39,18.8-10.78,28.81"/><path d="M49.27,34c1.4,0,1.7,0.05,2.39,0c3.46-0.27,8.44-0.85,13.43-1.59c1.12-0.17,2.26-0.09,2.83-0.01"/><path d="M40.72,54.63c0.45,0.2,3.01,0.33,3.5,0.29c7.2-0.6,15.53-1.92,22.71-2.54c0.62-0.05,1.97-0.13,3.35,0.22"/><path d="M56.14,35.91c0.37,1.4,0.55,2.78,0.52,4.52c-0.41,26.83-8.41,44.33-22.43,55.26"/><path d="M55.88,70.5c5.05,4.75,9.58,12.89,10.45,18"/><path d="M72.79,29.94c0.71,1.31,1.03,1.9,1.14,3.2c0.9,10.28,1.48,38.64,2.09,57.11"/><path d="M73.99,31.5c7.51-0.75,13.78-1.75,18.94-2.59c1.39-0.23,3.22,1.66,3.02,3.08c-0.84,5.88-3.2,45.51-4.06,54.09"/><path d="M75.92,87.36c5.6-0.53,11.95-0.91,18.86-1.41"/></svg>