<svg><path d="M15.78,19.62c0.37,0.3,0.74,0.55,0.9,0.92c1.27,2.96,1.82,14.39,2.69,19.71"/><path d="M17.59,21.72c8.68-1.59,16.63-3.34,20.92-3.73c1.57-0.14,2.51,0.84,2.29,1.68c-1.03,3.85-2.13,11.69-3.4,16.09"/><path d="M20.01,38.06c5.04-0.44,12.53-0.79,19.45-1.47"/><path d="M26.37,39.74c1.09,0.5,1.96,2.23,1.96,3.25c0,5.51,0.28,28.01,0.28,38"/><path d="M28.38,57.24c3.37-0.49,6.37-1.49,10.35-2c1.73-0.22,2.18-0.25,3.26,0"/><path d="M15.37,52.49c1.09,0.5,1.74,2.25,1.96,3.25c0.22,1,0.42,21.01,0.42,32.76"/><path d="M11.5,88.57c1.25,0.68,2.33,1.85,4.2,0.9C24.5,85,28.5,83,41.5,76.49"/><path d="M51.44,16.32c1.05,0.66,2.96,0.72,4.17,0.72c7.89-0.04,27.62-3.27,30.11-3.6c2.49-0.33,2.61,1.11,1.56,2.54c-1.05,1.44-8.28,6.77-15.1,12.05"/><path d="M62.41,23.02c2.73,1.14,9.8,5.51,11.09,8.48"/><path d="M51.4,36.16c0.54,0.7,0.4,0.87,0.52,1.56c0.73,4.04,2.29,13.86,3.04,21.38"/><path d="M52.82,37.17c9.87-0.73,30.42-3.32,37.16-3.43c2.79-0.05,2.99,1.99,2.61,4.33c-0.64,3.98-2.02,10.38-3.71,18.81"/><path d="M70.08,37.36c0.36,0.52,1.07,2.07,1.08,2.94c0.03,6.13,0.14,13.39,0.14,15.12"/><path d="M54.49,47.45c5.73-0.81,32.23-3.4,36.9-3.44"/><path d="M55.49,57.55c9.56-1.39,22.59-2.13,33.84-2.63"/><path d="M47.82,70.59c2.68,0.16,5.23,0.33,6.12,0.2c7.28-1.02,32.45-4.34,36.48-4.72c2.62-0.25,3.12,1.65,2.82,3.34C91.5,79.25,90,85.5,83.93,94.95c-2.39,3.73-5.43,0.55-7.69-1.6"/><path d="M71.22,62.09c0.08,0.81,0.19,2.1-0.15,3.26c-2.55,8.59-10.32,22.91-25.93,32.09"/></svg>