<svg><path d="M14.28,19.71c0.37,0.32,0.75,0.58,0.91,0.97c1.28,3.13,1.85,15.2,2.73,20.82"/><path d="M16.11,21.4c9.89-1.15,16.29-2,20.63-2.41c1.58-0.15,2.54,0.89,2.31,1.77c-1.04,4.06-2.15,11.85-3.43,16.5"/><path d="M18.56,39.69c5.09-0.46,12.15-0.84,19.14-1.55"/><path d="M24.87,41.24c1.09,0.5,1.96,2.23,1.96,3.25c0,5.51,0.28,30.51,0.28,40.5"/><path d="M27.38,60.74c3.37-0.49,6.87-1.24,10.35-1.5c1.74-0.13,2.18-0.25,3.26,0"/><path d="M14.87,54.49c1.09,0.5,1.74,2.25,1.96,3.25c0.22,1,0.42,21.01,0.42,32.76"/><path d="M11,91.07c1,0.93,2.87,1.35,3.7,0.9C22.91,87.5,30.94,83.5,40,78.49"/><path d="M  64.9,10.431453 c -0.04496,1.753402 -0.431606,2.697541 -0.962123,3.884459 -4.88255,10.898068 -14.74656,24.25989 -22.614389,30.032629"/><path d="M 59.386395,5.3152892 C 65.6228,6.6784373 76.972627,26.238027 87.355432,36.625058 c 2.312306,2.313248 4.211007,4.188639 8.067907,6.233038"/><path d="M 53.464375,42.05 c 0.66,0.33 1.87,0.31 2.53,0.33 4.43,0.13 20.39,-1.38 25.15,-2.08 1.09,-0.16 1.76,0.16 2.31,0.32"/><path d="M46.02,52.25c0.61,1,1.02,2,1.22,3c0.2,1,0.29,40,0.2,42.25"/><path d="M48.46,54.19c1.36-0.14,13.33-2.55,14.34-2.71c1.81-0.28,2.77,1.77,2.77,3.21c0,2.31-0.34,23.56-0.34,35.1c0,10.21-5.03,2.06-6.16,0.78"/><path d="M53.18,61.33c2.19,0.95,5.66,3.91,6.21,5.38"/><path d="M53.58,73.83c1.94,1.08,5.02,4.45,5.51,6.13"/><path d="M79.89,50.12c0.29,1.04,0.58,2.84,0.16,4.27c-1.3,4.37-6.26,11.16-10.21,16.39c-1.08,1.43-0.01,2.34,0.28,2.64c4.79,4.79,7.12,11.23,9.53,21.59"/><path d="M91.35,52.12c0.29,1.06,0.6,2.88,0.17,4.33c-1.32,4.43-5.48,9.44-9.48,14.74c-1.09,1.45-0.01,2.38,0.29,2.68c4.85,4.85,8.68,11.39,11.01,21.89"/></svg>