<svg><path d="M13.78,19.71c0.37,0.32,0.75,0.58,0.91,0.97c1.28,3.13,2.35,15.2,3.23,20.82"/><path d="M15.61,20.9c7.89-1.15,16.79-2.5,21.13-2.91c1.58-0.15,2.54,0.89,2.31,1.77c-1.04,4.06-2.15,12.35-3.43,17"/><path d="M18.56,39.19c5.09-0.46,11.65-0.84,18.64-1.55"/><path d="M25.37,41.24c1.09,0.5,1.96,2.23,1.96,3.25c0,5.51,0.28,28.01,0.28,38"/><path d="M27.38,58.24c3.37-0.49,5.87-1.74,9.35-2c1.74-0.13,2.18-0.25,3.26,0"/><path d="M14.87,52.49c1.09,0.5,1.74,2.25,1.96,3.25c0.22,1,0.42,20.01,0.42,31.76"/><path d="M10.5,88.73c0.34,0.72,2.87,1.16,3.7,0.75c8.21-4.01,16.24-8,25.3-12.49"/><path d="M65.69,11.25c0.07,0.85,0.4,2.28-0.15,3.43C61.79,22.64,53.89,36.11,39.5,47.5"/><path d="M66.89,13.75c4.1,5.49,21.79,23.4,26.32,27.42c1.54,1.36,3.51,1.95,5.04,2.33"/><path d="M57.11,37.23c1.39,0.27,2.94,0.42,4.06,0.28c3.81-0.46,9.04-1.54,13.64-2.15c1.99-0.26,3.07,0.06,3.94,0.06"/><path d="M51.45,46.26c0.81,0.26,2.74,0.97,4.55,0.86c10.75-0.62,23.99-2.97,25.38-3.12c1.4-0.15,2.91,0.74,2.76,2.5c-0.25,2.78-2.01,8.37-3.08,16.57"/><path d="M53.45,56.84c2.48-0.1,26.53-3.3,29.33-3.41"/><path d="M52.36,66.63c5.11-0.6,24.57-2.63,30.91-3.23"/><path d="M53.62,47.5c0,2,0.29,2.28,0.18,3.83c-0.72,10.21-2.3,32.92-14.64,42.42"/><path d="M52.21,77.38c0.33,0.35,0.67,0.63,0.81,1.07c1.15,3.43,3.02,12.89,3.8,19.05"/><path d="M53.77,79.71c7.16-1.21,25.77-4.27,29.64-4.72c1.42-0.17,2.27,0.98,2.06,1.94c-0.84,4.01-2.82,10.35-4.07,15.89"/><path d="M56.99,95.49c4.55-0.51,21.1-1.39,27.34-2.17"/></svg>