<svg><path d="M14.78,21.74c0.39,0.37,0.79,0.67,0.97,1.13c1.36,3.62,2.99,12.12,3.92,18.63"/><path d="M16.72,23.69c9.28-1.94,17.79-3.48,22.38-3.96c1.68-0.17,2.69,1.03,2.45,2.05c-1.11,4.71-2.28,9.82-3.64,15.2"/><path d="M20.34,39.32c5.4-0.54,11.84-1.47,19.24-2.3"/><path d="M28.37,40.74c1.09,0.5,1.96,2.23,1.96,3.25c0,7.76,0.28,22.76,0.28,33.5"/><path d="M30.88,55.24c2.62-0.99,4.37-1.74,7.85-2c1.74-0.13,1.68-0.25,2.76,0"/><path d="M17.87,55.99c1.09,0.5,1.96,2.23,1.96,3.25c0,9.26-0.08,13.01-0.08,24.26"/><path d="M13.5,84.07c0.33,0.8,2.77,1.85,3.57,1.4C25,81,32.75,76,41.5,70.99"/><path d="M67.27,11.59c0.66,0.81,1.66,2.63,1.66,4.71c0,3.29,0-1.81,0,7.13"/><path d="M48.29,26.42c0.83,0.27,1.79,0.31,2.61,0.27c4.66-0.23,32.49-4.17,39.53-4.36c1.38-0.04,2.2,0.13,2.89,0.26"/><path d="M56.8,29.95c2.67,3.98,4.37,8.78,4.62,11.4"/><path d="M81.27,26.18c0.61,0.47,0.27,1.62,0.11,1.98c-1.98,4.43-4.53,10.14-5.76,12.16"/><path d="M47.82,43.35c-0.06,3.54-1.45,12.78-1.95,14.89"/><path d="M48.32,46.33c2.17,0,32.74-5.67,43.66-5.67c7.43,0,2.35,4.49-0.43,7.42"/><path d="M52.02,60.28c0.43,0.31,1.44,2.33,1.44,2.96c0,4.09-0.06,20.8-0.14,24.7"/><path d="M53.35,61.74c2.72-0.22,32.15-4,34.18-4.14c2.39-0.16,2.9,2.75,2.82,4.17c-0.43,7.17-0.24,14.79-1.63,21.82c-1,5.05-3.58,0.7-4.73-1.04"/><path d="M69.07,47.76c0.43,0.31,1.35,2.34,1.44,2.96C70.6,51.35,70.46,95.1,70.37,99"/></svg>