<svg><path d="M13.28,20.28c0.37,0.33,0.75,0.6,0.91,1.01c1.28,3.26,1.85,15.85,2.73,21.7"/><path d="M15.11,22.41c7.83-1.93,15-3.45,18.88-3.92c1.42-0.17,2.27,1.02,2.06,2.04c-0.93,4.67-1.92,14.19-3.07,19.53"/><path d="M17.56,41.09c5.09-0.48,10.15-0.87,17.14-1.62"/><path d="M24.37,42.74c1.09,0.5,1.96,2.23,1.96,3.25c0,5.51,0.28,30.01,0.28,40"/><path d="M26.88,60.24c3.37-0.49,5.37-1.24,8.85-1.5c1.74-0.13,2.18-0.25,3.26,0"/><path d="M13.87,56.49c1.09,0.5,1.74,2.25,1.96,3.25c0.22,1-0.08,20.01-0.08,31.76"/><path d="M10.5,91.36c0.32,0.65,2.67,1.5,3.45,1.13c7.64-3.63,15.12-7.68,23.55-11.75"/><path d="M42.64,16.66c0.55,0.45,0.97,2.38,1.08,3.27c0.11,0.89-0.07,71.78-0.18,77.34"/><path d="M43.88,18.12c1.85-0.1,14.98-3.13,16.66-3.25c1.4-0.1,2.13,0.9,2.2,1.69c0.1,1.21-1.67,19.06-1.67,19.65"/><path d="M44.2,27.28c4.53-0.58,12.97-2.09,17.33-2.72"/><path d="M43.88,36.74c6.14-1.14,11.28-2,16.71-2.52"/><path d="M73.73,14.8c0.32,0.53,0.63,1.65,0.63,2.36c0,0.7-0.11,18,0,18.7"/><path d="M74.43,16.23c1.79-0.09,15.82-1.88,17.45-1.99c1.36-0.09,2.14,0.96,2.13,1.49c-0.35,16.2-0.35,62-0.35,73.75c0,10.01-5,1.29-6.04,0.22"/><path d="M74.25,24.95c2.42,0,15.87-1.16,18.61-1.16"/><path d="M74.39,34.44c3.58,0,14.08-1.98,18.71-1.98"/><path d="M60.61,40.57c0.11,0.97-0.03,2.25-0.39,3.08c-2.29,5.32-5.19,9.82-10.44,16.3"/><path d="M55.14,53.68c0.44,0.5,0.78,1.59,0.81,2.36c0.26,6.86-0.36,26.12-0.14,29.69"/><path d="M71.76,39.65c0.04,0.55-0.01,1.26-0.16,1.73c-0.9,2.99-2.05,5.3-4.12,8.94"/><path d="M55.33,52.33c5.15-0.65,24.76-2.53,26.97-2.88"/><path d="M67.69,53.51c0.25,0.25,0.45,0.6,0.45,1.04c0,4.45,0.03,20.38-0.12,27.38"/><path d="M56.02,62.27c4.86-0.53,22.93-2.09,25.02-2.38"/><path d="M56.43,71.88c5.13-0.45,22.53-1.94,24.73-2.18"/><path d="M55.93,83.42c5.15-0.64,25.08-1.88,27.29-2.23"/></svg>