<svg><path d="M12.28,21.25c0.35,0.32,0.71,0.59,0.86,0.99c1.21,3.19,2.21,15.52,3.04,21.26"/><path d="M14,22.97c8.24-1.71,14.3-3.07,18.38-3.49c1.49-0.15,2.39,0.91,2.17,1.81c-0.98,4.15-2.02,12.61-3.23,17.36"/><path d="M16.78,41.14c4.79-0.47,9.96-0.85,16.53-1.58"/><path d="M24.87,41.24c1.09,0.5,1.96,2.23,1.96,3.25c0,5.51,0.28,28.01,0.28,38"/><path d="M27.38,59.74c3.37-0.49,5.87-1.24,9.35-1.5c1.74-0.13,2.18-0.25,3.26,0"/><path d="M14.87,55.99c1.09,0.5,1.74,2.25,1.96,3.25c0.22,1,0.42,17.51,0.42,29.26"/><path d="M12,89.8c0.3,0.68,2.55,0.56,3.29,0.18c7.29-3.78,13.42-7.51,21.46-11.75"/><path d="M47.98,17.96c0.03,0.29,0.05,0.75-0.05,1.16c-0.66,2.45-4.46,7.82-9.66,11.11"/><path d="M54.75,15c0.61,0.12,1.19,0.29,1.58,0.62c3.57,3.01,7.88,9.24,11.27,11.12c1.46,0.81,1.98,1.25,3.4,1.51"/><path d="M43.88,29.23c0.54,0.27,2.21,0.34,2.75,0.27c3.62-0.47,9.86-1.99,14.35-2.71c0.89-0.14,1.9,0.13,2.35,0.26"/><path d="M41.63,38.25c0.31,0.36,0.43,1.23,0.43,1.71c0,0.48-0.21,24.33-0.21,24.57"/><path d="M42.59,39.52c1.77-0.06,20.33-3.22,21.95-3.29c1.35-0.06,2.31,0.58,2.31,1.94c0,0.76-0.29,23.73-0.29,24.09"/><path d="M49.44,30.9c0.59,0.56,0.39,1.33,0.4,2.1c0.07,7.55-0.39,13.81-5.92,17.14"/><path d="M56.31,30.66c0.29,0.54,0.52,1.19,0.54,2.03c0.05,2.67-0.13,6.26-0.15,9.55c-0.02,2.86,0.81,3.21,3.57,3.21c1.75,0,3.48,0.14,3.68-0.18"/><path d="M42.07,54.45c2.4,0,21.68-2.27,24.39-2.27"/><path d="M42.2,61.91c4.89-0.26,17.92-1.99,24.02-2.21"/><path d="M37.35,72.83c0.62,0.36,2.26,0.79,3.57,0.63c8.85-1.08,18.97-2.74,26.92-3.26c1.37-0.09,2.47-0.04,3.7,0.24"/><path d="M53.69,64.75c0.28,0.42,0.52,0.91,0.42,1.81C52.75,78,46,90.25,36.15,95.29"/><path d="M54.18,77.99c5.51,2.97,11.41,8.38,15.15,15.1"/><path d="M73.57,18.95c1.06,0.13,2.14,0.31,3.19,0.12c7.24-1.31,10.49-1.81,14.46-2.37c2.89-0.41,4.2,1.41,3.1,4.12c-1.81,4.44-7.33,14.83-9.44,18.45"/><path d="M84.88,39.26c15.12,10.99,15.37,47.49,2.13,33.98"/><path d="M76.95,19.41c0,1.34,0.07,2.44,0.27,3.53s0,66.28-0.2,73.06"/></svg>