<svg><path d="M34.7,11c0.02,0.31,0.47,1.74,0.38,2.18c-0.55,2.6-4.1,7.27-8.33,10.57"/><path d="M22.6,24.92c0.66,0.53,1.05,2.23,1.18,3.2c0.1,0.77,0.15,19.06,0.08,29.38c-0.02,2.58-0.04,4.66-0.07,5.85"/><path d="M24.24,26.57c0.71-0.12,1.88-0.32,3.3-0.56c4.96-0.85,12.98-2.17,15.02-2.01c2.19,0.17,2.53,1.71,2.53,3.4c0,0.55-0.47,54.46-0.52,65.04c-0.03,6.26-4.72,0.6-5.26-0.14"/><path d="M24.45,38.46c4.58-0.56,17.57-2.05,19.71-2.11"/><path d="M24.85,49.4c4.13-0.6,15.43-1.98,19.25-1.89"/><path d="M16,65.46c1,1.54,2.83,1.29,4.48,0.59c7.77-3.3,16.27-6.55,23.93-9.53"/><path d="M52.03,45.69c0.32,1.13,0.13,2.77-1.02,4.37C42,62.5,26.25,79.75,11.1,87.61"/><path d="M59.08,20.27c1.17,0.98,3.59,0.76,4.97,0.51c1.38-0.25,21.51-2.53,24.27-3.29c2.76-0.76,4.02,1.31,3.19,3.33c-0.64,1.57-2.26,7.47-3.57,12.66c-0.37,1.48-0.72,2.9-1.01,4.16"/><path d="M65.25,40.75c2.18,0,18.59-2,20.14-2s3.11-0.5,4.36-0.5"/><path d="M64.48,38.67c0.7,0.92,0.41,3.37,0.14,4.87C64,47,62.25,54.75,60.45,59.59c-0.68,1.84,0.33,3.18,2.38,2.76c2.92-0.6,22.43-4.83,26.24-5.17c4.93-0.43,4.18,1.57,3.57,6.27c-1.2,9.22-6.39,23.55-12.55,31.24c-3.49,4.36-5.53-0.15-6.61-1.93"/></svg>