<svg><path d="M13.35,18.56c0.34,0.29,0.69,0.53,0.83,0.89c1.17,2.86,2.15,13.91,2.95,19.05"/><path d="M15.03,20.11c9.72-1.11,16.36-2.75,20.33-3.12c1.45-0.14,2.32,0.81,2.11,1.62c-0.96,3.72-1.97,11.3-3.14,15.55"/><path d="M17.73,36.38c4.66-0.43,12.16-0.76,18.55-1.42"/><path d="M24.87,36.74c1.09,0.5,1.96,2.23,1.96,3.25c0,5.51,0.28,32.01,0.28,42"/><path d="M26.63,56.16c3.03-0.44,5.28-1.12,8.42-1.35c1.57-0.12,1.96-0.23,2.94,0"/><path d="M14.37,53.99c1.09,0.5,1.74,2.25,1.96,3.25c0.22,1,0.42,18.51,0.42,30.26"/><path d="M10.5,88.23c0.32,0.72,2.67,1.66,3.45,1.25c7.64-4.01,15.12-8.5,23.55-12.99"/><path d="M47.94,15.91c1.06,0.28,3.01,0.3,4.08,0.28C61.5,16,76,14,86.71,13c1.76-0.16,2.83,0.13,3.72,0.27"/><path d="M56.4,16.24c0.73,0.71,1.12,2.58,1.12,4.5c0,1.92-0.22,13.22-0.22,20.13"/><path d="M58.67,24.43c3.32,0,16.03-1.76,21.71-1.76"/><path d="M57.81,32.32c6.5-0.6,15.23-1.97,23.09-2.53"/><path d="M45.55,41.84c0.35,0.55,2.22,1.32,3.43,1.09c4.86-0.91,32.32-5.88,39.78-7.34"/><path d="M80.04,14.44c0.34,0.95,0.85,2.14,0.85,3.33c0,1.19,0.17,21.63,0.17,31.38"/><path d="M42.44,54.86c0.81,0.27,2.29,0.36,3.11,0.27c3.7-0.38,15.7-2.13,18.82-2.66c1.33-0.22,2.16,0.13,2.84,0.26"/><path d="M47.9,56.58c0.41,0.41,0.62,1.47,0.62,2.56c0,1.09-0.12,20.22-0.12,24.16"/><path d="M48.8,64.09c2.65-0.37,8.69-1.74,12.77-2.08"/><path d="M48.61,72.63c2.28,0,9.71-1.95,13.03-1.95"/><path d="M41.5,85.3c0.53,0.59,1.27,0.91,1.83,0.67c2.24-0.94,14.65-6.14,18.08-7.65"/><path d="M61.39,54.41c0.19,0.54,0.47,1.22,0.47,1.9c0,0.68,0.1,35.94,0.1,41.5"/><path d="M70.92,52.58c0.92,0.28,2.61,0.31,3.53,0.28c3.79-0.13,13.8-1.61,20.08-2.7c1.51-0.26,2.46,0.13,3.22,0.27"/><path d="M77.09,54.39c0.42,0.42,0.64,1.51,0.64,2.64c0,1.13-0.13,19.4-0.13,23.45"/><path d="M78.38,61.64c1.89,0,9.12-1.67,12.35-1.67"/><path d="M78.18,69.98c2.33,0,8.85-1.54,12.25-1.54"/><path d="M71.81,83.26c0.17,0.58,2.09,0.89,2.68,0.65c2.37-0.96,16.72-7.22,20.35-8.75"/><path d="M90.53,52.15c0.19,0.6,0.49,1.34,0.49,2.09c0,0.75,0.1,36.76,0.1,42.88"/></svg>