<svg><path d="M26,26c2.85,0.69,6.1,0.14,8.98-0.1c11.09-0.93,25.8-2.64,38.89-3.51c2.68-0.18,5.22-0.16,7.88,0.23"/><path d="M27.5,37.92c0.81,0.5,1.83,2.39,1.98,3.05c0.85,3.73,1.83,11.31,2.95,18.54c0.32,2.09,0.41,3.2,0.75,5.24"/><path d="M30.36,39.49c14.52-1.61,36.14-4.11,47.63-4.5c3.46-0.12,4.17,1.57,4.03,3.08c-0.42,4.32-2.01,13.81-3.5,20.19c-0.21,0.89-0.51,1.87-0.76,3"/><path d="M32.5,51.25c13.75-1.5,34.25-3.75,47-4.25"/><path d="M34.25,63.25C46,61.62,65,59.75,77,59.25"/><path d="M16,77.86c3.62,0.89,7.38,0.77,10.63,0.39c18.51-2.14,39.85-4.55,57.12-5.45c3.05-0.16,6.5-0.05,9.5,0.63"/><path d="M52.5,11.51c1.36,1.36,2.06,2.78,2.14,6.02c0.03,1.07-0.07,48.79-0.19,70.7c-0.02,4.27-0.05,7.36-0.07,8.65"/></svg>