<svg><path d="M29.63,11.39c0.01,0.25,0.27,1.36,0.22,1.72c-0.3,2.1-2.66,7.79-5.04,10.61"/><path d="M18.67,25.25c0.59,0.5,0.95,2.25,1.07,3.25c0.12,1,0.27,29.25,0.15,35.5"/><path d="M19.64,26.96c2.39-0.62,11.76-1.97,13.73-1.98c1.65-0.01,2.05,0.75,2.05,2.97c0,9.17-0.3,53.69-0.3,61.91c0,11.63-3.11,6.63-8.95,2.09"/><path d="M19.88,38.89c3.45-0.44,13.72-1.42,15.33-1.53"/><path d="M20.28,49.64c4.22-0.38,9.52-0.84,14.42-1.03"/><path d="M11.66,65.35c0.63,0.88,1.73,1.18,3.61,0.44c3.84-1.5,12.62-4.87,17.04-6.79"/><path d="M41.62,49c0.25,0.87,0.69,2.38,0,3.81C36.85,62.67,20.19,79.98,10.03,85"/><path d="M47.96,21.03c1.09,0.22,3.1,0.25,4.19,0.22c11.39-0.36,27.2-2.3,41.48-2.39c1.82-0.01,2.92,0.1,3.83,0.21"/><path d="M52.08,22.16C52.11,23.8,52,26.37,52,28.73c0,26.76-4.52,51.73-12.2,62.37"/><path d="M66.95,29.14c0.09,0.77,0.16,1.75-0.08,2.7c-1.5,6.02-7.28,17.65-14.26,25.81"/><path d="M59.57,51.54c0.42,0.49,0.54,1.59,0.54,2.6c0,10.49-0.21,33.83-0.21,40.88"/><path d="M77.63,29.7c0.12,1.37-0.03,3.16-0.41,4.33c-2.41,7.48-5.48,13.81-11.01,22.91"/><path d="M71.16,48.97c0.43,0.74,0.75,2.37,0.78,3.52c0.25,10.23-0.35,36.7-0.13,42.02"/><path d="M89.21,29.48c0.04,0.8-0.01,1.86-0.15,2.55c-0.88,4.4-2.01,7.79-4.04,13.14"/><path d="M71.82,49.24c4.93-0.96,23.08-2.29,25.2-2.82"/><path d="M84.71,49.85c0.24,0.38,0.43,0.9,0.43,1.55c0,6.64,0.03,26.89-0.12,37.34"/><path d="M72.48,62.22c4.66-0.8,21.6-2.14,23.6-2.58"/><path d="M71.92,75.17c4.91-0.67,22.35-2.04,24.46-2.41"/><path d="M71.92,90.96c4.94-0.96,24.79-2.36,26.9-2.88"/></svg>