<svg><path d="M13.25,28.3c1.2,0.21,3.39,0.25,4.58,0.21c11.05-0.36,19.73-1.34,29.73-1.9c1.98-0.11,3.19,0.1,4.19,0.21"/><path d="M15.25,40.77c0.42,0.47,0.96,0.83,1.04,1.45c0.57,4.49,2.16,15.54,2.97,24.04"/><path d="M16.88,42.07c7.85-0.93,24.45-2.69,29.8-2.83c2.22-0.06,3.17,1.76,3.08,3.21c-0.33,4.97-1.02,13.8-2.47,21.28"/><path d="M18.32,53.09c8.06-0.66,21.73-2.07,29.66-2.6"/><path d="M19.32,65.1c6.88-0.96,19.49-2.1,27.98-2.84"/><path d="M12,78.54c1.47,0.77,4.15,0.33,5.64,0.27C25.5,78.5,39.65,77,47.5,76.25c2.44-0.23,4.27-0.13,5.5,0.25"/><path d="M30.56,12.63c0.76,0.6,2.01,2.62,2.01,5.66c0,1.2-0.1,72.63-0.25,80.09"/><path d="M66.99,13.5c0.68,1.19,1.23,2.59,1.26,4.43c0.18,8.19-0.49,53.14-0.49,58.7c0,16.12,0.74,17.5,13.74,17.5s13.89-1.63,13.89-16.1"/></svg>