<svg><path d="M31.39,13.64c0.02,0.26,0.32,1.44,0.26,1.81c-0.35,2.21-3.09,8.21-5.85,11.18"/><path d="M18.39,27.14c0.57,0.48,0.92,2.17,1.03,3.14c0.11,0.97,0.26,29.19,0.15,35.22"/><path d="M19.31,29.17c4.69-0.67,13.52-2.22,15.77-2.24c1.89-0.02,2.35,0.98,2.35,3.88c0,11.97-0.35,47.86-0.35,58.58c0,9.97-4.59,4.1-6.53,1.73"/><path d="M20.04,40.34c3.95-0.36,15.13-1.18,16.98-1.27"/><path d="M20.43,51.61c4.85-0.42,10.94-0.95,16.58-1.16"/><path d="M13.64,66.46c0.69,1.14,1.89,1.52,3.94,0.57c4.18-1.94,13.74-6.28,18.55-8.75"/><path d="M44.08,47.75c0.28,1,0.48,2.87-0.5,4.39C36.25,63.5,21.75,81,9.03,89.25"/><path d="M51.48,22.88c0.28,0.53,0.56,0.8,0.56,1.51c0,0.71,2.51,19.92,2.51,20.28s0.09,0.36,0.19,1.06"/><path d="M52.51,23.88c2.57-0.33,34.08-2.51,36.35-2.39c1.2,0.06,2.96,1.35,2.66,3.04c-0.59,3.28-3.75,19.05-4.28,20.07"/><path d="M62.63,13.42c0.58,0.23,1.36,1.89,1.4,2.35C64.94,26,64.96,38.5,64.96,43.4"/><path d="M77.3,12.75c0.58,0.23,1.08,2.01,1.05,2.47c-0.85,10.48-0.63,14.75-1.71,27.61"/><path d="M53.98,33.42c2.14,0,33.13-2.73,35.55-2.73"/><path d="M55.38,43.94c4.35-0.34,26.3-1.21,31.71-1.5"/><path d="M51,53.25c0.92,0.5,2.6,0.56,3.53,0.5c9.58-0.58,22.23-1.01,32.97-2.01c1.53-0.14,2.46,0.24,3.22,0.49"/><path d="M55.73,61.54c0.42,0.37,0.96,2.02,1.03,2.51c0.57,3.55,1.23,6.05,2.06,13.12"/><path d="M57.35,62.56c6.4-0.71,21.61-1.69,25.97-1.8c1.81-0.04,2.69,0.93,2.28,3c-0.73,3.71-1.51,5.02-2.47,9.38"/><path d="M59.17,74.86c4.73,0,19.53-1.83,26.06-1.93"/><path d="M58.5,81.59c1.95,1.77,5.04,7.26,5.53,10.01"/><path d="M81.98,77.14c0.02,0.32,0.53,1.93,0.47,2.39c-0.37,2.72-2.99,8.13-5.89,11.78"/><path d="M44.88,94.86c1.45,0.7,4.11,0.81,5.57,0.7C65.55,94.39,82,91.75,94.3,91.41c2.42-0.07,3.87,0.33,5.08,0.68"/></svg>