<svg><path d="M23.04,16.47c-0.13,4.46-3.19,16.12-4.29,18.78"/><path d="M24.08,18.83c10.17-1.45,43.09-4.17,58.76-4.83c11.91-0.5,1.6,8.57,0.13,9.97"/><path d="M32.89,30.7c2.12,0.82,4.7,0.29,6.88,0.07c8.06-0.82,18.34-2.19,27.37-2.79c2.36-0.16,4.66-0.37,6.98,0.17"/><path d="M28.32,40.89c0.77,0.77,1.47,2.12,1.62,2.77c0.88,4.03,1.73,12.72,2.86,20.73c0.19,1.37,0.4,2.72,0.61,4.02"/><path d="M30.74,42.67C44.17,41.18,66.42,38.8,75,38.53c3.55-0.11,4.92,0.84,4.42,4.36c-0.64,4.54-2.14,11.5-4,18.09c-0.34,1.19-0.69,2.37-1.04,3.53"/><path d="M32.71,53.94c10.54-1.06,27.91-2.56,44.27-3.17"/><path d="M34.21,65.69c10.11-0.98,25.29-2.57,39.67-2.92"/><path d="M16,78.79c3.38,0.71,7.04,0.58,10.25,0.34c21.13-1.56,35.62-3.36,56.5-4.22c3.38-0.14,6.7-0.4,10,0.47"/><path d="M52.42,19.13c1.16,1.16,1.86,2.74,1.86,4.54c0,1.02-0.07,51.4-0.18,69.57c-0.02,2.83-0.04,4.9-0.06,5.88"/></svg>