<svg><path d="M14.83,28.96c1.87,0.05,3.67,0.46,5.56,0.18c5.87-0.85,15.12-2.1,22.87-3c1.7-0.2,3.27-0.51,4.92,0.09"/><path d="M13.31,40.04c0.89,0.89,1.19,1.96,1.44,3.08c0.9,4.06,2.02,11.63,3.15,19.89c0.17,1.28,0.34,2.53,0.48,3.73"/><path d="M15.48,41.47C24.13,39.93,38.02,38,45,37.5c3.42-0.24,5.21,0.24,4.81,4c-0.49,4.56-1.94,11.39-3.61,17.85c-0.26,1-0.52,1.98-0.77,2.94"/><path d="M17.74,52.18c9.03-0.98,16.77-2.39,29.54-3.07"/><path d="M19.42,64.26C26.62,63,35.75,61.5,44.5,61"/><path d="M10.28,78.4c2.22,0.48,4.13,0.2,6.35-0.14c9.46-1.47,20.37-3,29-4.17c2.38-0.32,4.52-0.61,6.85,0.15"/><path d="M30.8,12.13c1.09,1.09,1.23,2.37,1.23,3.9c0,0.97,0.09,53.49,0.01,73.59c-0.02,3.54-0.03,6.07-0.04,7.13"/><path d="M66.93,16.75c0.32,1,0.33,1.63,0.17,2.81c-0.98,6.98-5.85,20.94-13.35,32.19"/><path d="M64.1,38.99c0.89,0.36,2.57,0.18,3.92-0.14c1.64-0.39,16-3.35,19.5-4.04C93.5,33.62,91.75,38.25,85,46"/><path d="M67.96,48c0.83,0.83,0.79,2.38,0.63,4.02c-0.96,10.23-6.34,32.48-20.34,43.73"/><path d="M68,62.5c3.62,5.17,12.73,18.24,20.05,25.66c2.02,2.05,3.83,3.72,6.45,5.34"/></svg>