<svg><path d="M15.87,27.09c1.26,0.28,2.75,0.29,3.74,0.22C26,26.88,37.25,25,45.34,23.42c1.61-0.31,2.6-0.18,3.42-0.02"/><path d="M15.2,39.78c0.76,0.76,1.42,1.84,1.58,2.86c0.6,3.83,1.38,11.25,2.25,18.6c0.13,1.09,0.26,2.18,0.39,3.26"/><path d="M17.29,40.85c11.46-2.35,21.96-4.6,29.91-5.61c3.12-0.4,3.8,2.07,3.7,3.46c-0.29,4.07-0.77,8.65-1.9,15.16c-0.2,1.17-0.41,2.39-0.62,3.69"/><path d="M18.97,50.81c11.28-2.56,19.28-3.81,29.82-5.1"/><path d="M20.22,61.37C30.25,59.5,37,58.25,47.62,56.88"/><path d="M12.75,76.05c1.75,0.7,4.36,0.61,6.37,0.16c7.9-1.78,18.7-4.06,26.38-5.16c2.31-0.33,4.88-0.42,6.75,0.12"/><path d="M31.66,12.7c1.19,1.19,1.68,2.56,1.68,3.73c0,2.23-0.05,55.54-0.13,74.32c-0.01,2.84-0.02,4.89-0.04,5.86"/><path d="M57.99,25.62c1.76,0.38,4.02,0.2,5.11,0.07c7.03-0.81,17.13-2.38,22.96-2.93c1.44-0.14,3.44-0.26,4.95,0.06"/><path d="M56.5,50.17c1.86,0.33,3.72,0.28,5.25,0.13c8.61-0.8,21.18-2.8,29.81-3.4c1.53-0.11,3.65-0.03,4.94,0.37"/><path d="M74.17,52.46c0.25,1.2,0.08,2.52-0.46,3.97c-3.96,10.74-9.3,20.01-15.11,29.99c-1.58,2.71-0.7,3.97,1.78,3.42c5.22-1.15,18.37-4.34,30.13-7.26"/><path d="M82.63,70.83c4.69,3.52,11.49,14.4,12.66,19.89"/></svg>