<svg><path d="M22.54,19.01c1.33,0.27,3.77,0.33,5.1,0.27c11.87-0.53,34.84-1.39,53.68-2.1c2.21-0.08,3.54,0.13,4.65,0.26"/><path d="M31.08,27.22c0.55,0.36,1.26,1.69,1.36,2.16c0.75,3.4,1.66,10.72,2.71,17.16"/><path d="M33.22,28.51c8.44-0.68,34.98-2.72,40.74-2.83c2.38-0.04,2.87,0.93,2.77,2c-0.35,3.66-2.21,10.67-4.1,16.68"/><path d="M35.21,37c6.36-0.18,27.65-2.15,39.63-2.15"/><path d="M35.21,45.48c7.39-0.71,27.79-2.33,37.42-2.33"/><path d="M15.47,54.15c1.51,0.35,4.27,0.43,5.8,0.35c19.37-1.04,48.9-2.4,66.72-2.63c2.52-0.03,4.03,0.16,5.29,0.34"/><path d="M52.79,10.25c0.53,0.35,1.64,2.62,1.74,3.32c0.11,0.7-0.07,48.81-0.17,53.18"/><path d="M27.5,64c4.59,1.73,11.85,7.1,13,9.79"/><path d="M21,95.23c1.54,0.53,3.04,0.45,4.12,0C26.16,94.79,43,84.85,47,82.63"/><path d="M80.59,62.14c0.05,0.3,0.1,0.78-0.09,1.21c-1.15,2.56-7.75,8.17-16.77,11.61"/><path d="M60.53,84c8.71,2.52,22.51,10.36,24.69,14.29"/></svg>