<svg><path d="M10.75,26c1.03,0.38,2.93,0.45,3.96,0.38c9.54-0.63,17.04-0.88,25.68-1.88c1.71-0.2,2.75,0.18,3.61,0.37"/><path d="M11.75,39.19c0.48,0.47,1.08,0.83,1.17,1.45c0.65,4.5,2.43,15.59,3.34,24.11"/><path d="M13.09,40.83c7.26-0.87,23.1-2.96,28.05-3.09c2.05-0.06,2.47,1.18,2.38,2.54c-0.3,4.66-1.02,13.22-2.67,22.43"/><path d="M14.8,51.62c7.45-0.62,19.7-2.37,27.03-2.87"/><path d="M16.3,62.9c6.36-0.9,16.2-1.4,24.05-2.09"/><path d="M10,75.54c1.47,0.77,4.15,0.93,5.64,0.77c9.86-1.06,18.01-1.81,25.86-2.56c2.44-0.23,4.27-0.13,5.5,0.25"/><path d="M25.06,13.13c0.76,0.6,2.51,2.87,2.51,5.66c0,1.2-0.1,72.63-0.25,80.09"/><path d="M49.25,33.58c1.14,0.29,4.24,0.64,5.37,0.52c7.63-0.8,26.94-3.04,37.03-3.31c1.9-0.05,3.04,0.14,3.99,0.29"/><path d="M47.5,53.63c0.46,0.33,1.98,0.39,2.45,0.33c3.9-0.47,9.42-2.47,18.31-2.98c0.72-0.04,1.37,0.07,1.96,0.34"/><path d="M58.25,54.12c0.82,1.38,0.82,2.21,0.82,3.32c0,7.74-0.06,15.56-0.06,23.33"/><path d="M45.75,87.08c1.1,1.23,3,0.79,4.02,0.23c8.05-4.42,9.23-6.56,20.83-13.28"/><path d="M71.04,9.5c1.46,1.91,2.22,2.42,2.38,6.54c1.1,28.32,4.33,61.21,21.28,78.47c3.73,3.8,4.54,6.48,4.2-6.62"/><path d="M82.82,13.49c3.49,1.63,8.57,5.37,10.2,8.17"/></svg>