<svg><path d="M10.25,24.5c1.03,0.38,2.92,0.37,3.96,0.38C22,25,32.75,24.5,41.39,23.5c1.71-0.2,2.75,0.18,3.61,0.37"/><path d="M12.75,36.69c0.37,0.49,0.84,0.87,0.91,1.52c0.5,4.72,1.39,15.35,2.1,24.29"/><path d="M14.09,38.33c7.26-0.87,22.6-2.46,27.55-2.59c2.05-0.06,3.47,2.18,3.38,3.54c-0.3,4.66-1.02,14.47-3.17,21.93"/><path d="M14.8,49.62c7.45-0.62,21.7-1.87,29.03-2.37"/><path d="M16.3,60.49c6.76-0.5,16.7-1.63,25.05-2.02"/><path d="M8.5,74.04c1.47,0.77,4.15,0.88,5.64,0.77C22,74.25,37.15,73,45,72.25c2.44-0.23,4.27-0.13,5.5,0.25"/><path d="M26.56,12.13c0.76,0.6,2.01,2.62,2.01,5.66c0,1.2-0.1,73.63-0.25,81.09"/><path d="M50.22,22.13c1.2,0.51,3.41,0.63,4.61,0.51c7.16-0.72,28.56-2.18,38.5-2.85c2-0.13,3.21,0.24,4.21,0.5"/><path d="M53.33,42.57c0.33,0.37,0.68,0.68,0.82,1.14c1.16,3.66,2.04,15.76,2.83,22.33"/><path d="M54.4,43.55c7.1-1.3,13.64-2.52,17.55-3c1.43-0.18,2.2,1.03,2.08,2.08C73.5,47.25,73,55,72.44,61.98"/><path d="M57.14,63.83c4.59-0.54,12.11-1.08,16.23-1.32"/><path d="M86.66,21.59c0.07,0.45,1.32,2.34,1.39,5.18c0.32,13.67-0.2,56.57-0.2,61.23c0,12-8.21,1.91-9.39,0.73"/></svg>