<svg><path d="M10,27.05c1.25,0.45,2.76,0.75,3.9,0.71c10.62-0.36,18.96-1.34,28.57-1.9c1.9-0.11,3.06,0.1,4.02,0.21"/><path d="M12.25,40.69c0.48,0.45,1.08,0.8,1.17,1.39c0.65,4.32,2.43,14.98,3.34,23.16"/><path d="M14.09,41.83c7.26-0.87,22.6-2.46,27.55-2.59c2.05-0.06,2.97,1.18,2.88,2.54C44.22,46.44,43,55,41.85,63.21"/><path d="M15.8,52.12c7.45-0.62,19.2-2.37,26.53-2.87"/><path d="M16.8,62.4c6.36-0.9,17.2-1.9,25.05-2.59"/><path d="M9,76.54c1.47,0.77,4.17,1.02,5.64,0.77c10.61-1.81,21.01-2.81,28.86-3.56c2.44-0.23,4.27-0.13,5.5,0.25"/><path d="M26.64,12.38c0.71,0.56,2.22,4.19,2.36,5.31c0.14,1.12-0.09,74.2-0.23,81.19"/><path d="M65.32,13.25c0.04,0.67,0.19,1.77-0.07,2.68c-1.99,6.99-6.43,17.42-12.67,26.14"/><path d="M67.26,21.91c0.33,0.04,1.76,0,2.71-0.11c3.14-0.35,9.96-1.59,14.44-2.68c3.08-0.75,3.95,0.85,3.16,2.89C83.28,33.14,67.5,57.75,47.94,66.53"/><path d="M60.65,29.08c4.52,5.66,25.01,27.18,31.11,32.36c1.82,1.54,3.29,2.29,5.06,2.75"/><path d="M55.33,69.17c0.36,0.49,0.73,0.9,0.89,1.51c1.25,4.85,2.25,18.8,3.11,27.52"/><path d="M57.08,70.87c10.17-1.64,23.59-2.12,27.83-2.75c1.55-0.23,2.48,1.38,2.25,2.75c-0.92,5.67-2.99,14.62-4.35,22.46"/><path d="M59.51,95.54c4.97-0.72,18.53-0.85,25.36-1.96"/></svg>