<svg><path d="M8.75,26.5c1.03,0.38,2.93,0.45,3.96,0.38C22.25,26.25,26.25,26,34.89,25c1.71-0.2,2.75,0.18,3.61,0.37"/><path d="M10.25,37.19c0.37,0.52,0.84,0.92,0.91,1.61c0.5,4.98,1.89,16.26,2.6,25.7"/><path d="M11.59,38.83c7.26-0.87,21.1-2.96,26.05-3.09c2.05-0.06,2.47,1.18,2.38,2.54c-0.3,4.66-1.27,14.97-2.17,23.93"/><path d="M12.8,50.12c7.45-0.62,18.7-1.87,26.03-2.37"/><path d="M13.3,61.99c6.63-0.5,16.37-1.63,24.55-2.02"/><path d="M9.5,74.19c1.31,0.63,3.71,0.78,5.03,0.63c5.89-0.67,15.22-1.57,23.56-2.85c2.16-0.33,3.31-0.61,4.41-0.29"/><path d="M23.06,13.13c0.76,0.6,2.51,2.87,2.51,5.66c0,1.2-0.1,71.13-0.25,78.59"/><path d="M40.84,18.47c1.27,0.45,3.6,0.52,4.87,0.45c14.78-0.83,29.61-2.39,43.35-2.58c2.12-0.03,3.39,0.22,4.44,0.44"/><path d="M49.61,18.76c0.32,0.94,1.26,1.84,1.26,2.94c0,1.1-0.15,47.34-0.15,51.29"/><path d="M50.94,36.88c3.56,0,9.56-1.4,12.51-1.4"/><path d="M51.14,51.8c2.11,0,8.86-1.05,12.6-0.97"/><path d="M41.27,76.63c1.6,1.13,2.78,1.28,3.66,0.75c3.53-2.15,12.79-7.55,18.22-10.98"/><path d="M62.78,18.23c0.98,0.99,1.08,1.16,1.08,2.25c0,1.2,0.15,67.27,0.15,76.27"/><path d="M68.99,34.86c1.17,0.28,1.28,0.49,3.64,0.28c4.36-0.39,14.65-1.1,16.25-1.52c1.6-0.42,3,0.98,2.69,2.61C87.75,56,82.25,79.75,67.45,90.28"/><path d="M72.09,42.44c2.43,1.94,13.41,34.28,22.37,45.21c1.38,1.68,2.24,3.2,3.44,3.85"/></svg>