<svg><path d="M10.75,27c1.75,1,2.93,1.45,3.96,1.38C24.25,27.75,30,27,39.39,26.5c1.72-0.09,2.75,0.18,3.61,0.37"/><path d="M11.25,40.28c0.48,0.41,1.08,0.73,1.17,1.27c0.65,3.96,2.43,13.71,3.34,21.2"/><path d="M13.09,41.77c7.26-0.79,21.1-2.66,26.05-2.79c2.05-0.05,2.47,1.08,2.38,2.32c-0.3,4.26-1.52,12.41-3.67,19.24"/><path d="M14.8,51.15c7.45-0.57,18.2-1.63,25.53-2.08"/><path d="M15.8,60.52c6.36-0.82,14.2-1.16,22.05-1.79"/><path d="M9.5,75c1.42,0.37,4.02,0.98,5.45,0.87C25.2,75,32,74,39.94,73.43c2.36-0.17,4.13-0.06,5.31,0.12"/><path d="M24.06,13.13c0.76,0.6,2.51,2.37,2.51,5.66c0,1.2-0.1,71.13-0.25,78.59"/><path d="M62.25,13.65c0.04,0.4,0.09,1.03-0.08,1.6c-0.98,3.37-6.6,13.98-14.82,20.34"/><path d="M60.16,21.36c4.91-0.42,17.85-2.45,19.65-2.69c1.54-0.2,2.2,2.3,1.38,3.16c-3.94,4.16-7.94,8.91-13.06,15.4"/><path d="M49.73,40.43c0.34,0.48,0.69,0.87,0.84,1.47c1.18,4.71,2.49,10.42,3.3,18.88"/><path d="M50.55,41.57c8.57-0.99,30.52-3.27,34.82-3.93c1.57-0.24,3.45,2.02,3.23,3.45c-0.93,5.93-2.32,10.75-3.86,16.56"/><path d="M54.55,58.75c3.37-0.5,25.73-1.94,29.44-2.2"/><path d="M67.75,42.66c0.5,1.08,0.53,2.71,0.33,4.55C66,66.75,59.75,88,36.67,96.92"/><path d="M70.83,60.15c0.96,0.64,1.4,2.46,1.43,4.21c0.13,7.78-0.35,13.44-0.35,18.73c0,9.67,1.83,11.43,12.71,11.43s11.63-2.02,11.52-9.67"/></svg>