<svg><path d="M10.25,28c1.03,0.38,2.93,0.45,3.96,0.38c9.54-0.63,17.04-0.88,25.68-1.88c1.71-0.2,2.75,0.18,3.61,0.37"/><path d="M10.75,39.19c0.48,0.45,1.08,1.8,1.17,2.39c0.65,4.32,2.43,13.98,3.34,22.16"/><path d="M12.09,41.33c7.26-0.87,22.6-2.46,27.55-2.59c2.05-0.06,2.47,1.18,2.38,2.54c-0.3,4.66-1.27,12.97-2.17,19.43"/><path d="M13.8,52.12c7.45-0.62,19.7-2.37,27.03-2.87"/><path d="M15.8,62.4c6.36-0.9,15.7-1.9,23.55-2.59"/><path d="M8.5,74.54c1.47,0.77,4.15,1.39,5.64,1.27C24.25,75,33.5,73.75,39.5,72.75c2.42-0.4,4.27-0.13,5.5,0.25"/><path d="M24.83,13.63c0.6,0.47,1.87,3.54,1.99,4.49c0.12,0.95-0.08,73.36-0.2,79.26"/><path d="M49.97,17.43c1.39,0.44,2.32,0.7,3.7,0.65c6.23-0.2,18.37-1.7,31.33-2.44c1.85-0.11,3.25-0.13,5.33,0.31"/><path d="M48.25,36.27c0.14,0.69,1.11,2.78,1.11,4.18c0,17.55,0.81,49.46,0.81,54.07"/><path d="M49.06,37.71c9.87-0.96,35.46-3.26,41.67-4c2.01-0.24,3.7,0.97,3.63,3.61C94,50.75,94.74,77,94.74,90.67c0,7.14-3.24,4.83-7.75,0"/><path d="M68.44,17.84c1.01,1.2,1.81,2.65,1.81,4.33c0,0.96-0.6,66.52-0.6,69.17"/><path d="M58.93,54.88c-0.87,3.02-3.12,7.28-4.92,8.99"/><path d="M55.05,48.15c0.37,0,0.7,0.38,0.87,0.66c2.92,4.66,6.22,9.46,8.92,12.75c0.31,0.37,0.6,0.51,0.92,0.61"/><path d="M81.62,54.3c-1.19,3.16-4.27,7.64-6.74,9.43"/><path d="M77.09,45.73c0.48,0,0.96,0.43,1.14,0.78c2.83,5.36,7.1,11.32,11.68,15.05c0.46,0.38,0.78,0.6,1.2,0.72"/></svg>