<svg><path d="M23.1,18.57c0.59,0.17,2.19,0.73,2.78,0.67c4.62-0.49,12.87-1.24,18.48-1.72c0.99-0.09,1.59,0.08,2.08,0.17"/><path d="M17.47,29.32c0.91,0.17,2.59,0.7,3.49,0.67c7.54-0.24,18.29-0.99,26.28-2.11c1.5-0.21,2.43,0.08,3.19,0.17"/><path d="M36.19,10c0.35,0.6,0.48,1.15,0.49,2.31C36.76,29.99,29.52,44.37,16.25,49"/><path d="M36.38,32.88c3.38,1.51,7.06,6.23,8.37,8.56"/><path d="M59.6,16.75c0.92,0.16,2.6,0.13,3.52,0.16C67,17,76,16.25,80.76,15.83c1.51-0.13,2.45,0.07,3.21,0.15"/><path d="M56.63,27.7c0.97,0.16,3.26,0.66,4.23,0.66c3.89,0,16.89-1.11,25.87-2.39c1.61-0.23,2.59,0.07,3.41,0.15"/><path d="M72.25,7.75c0.25,0.51,0.35,0.98,0.35,1.97c0,18.03-2.85,24.78-13.34,32.78"/><path d="M71.1,26.92c4.85,5.04,13.84,14.02,18.8,16.12c1.67,0.7,1.95,1.2,2.61,1.3"/><path d="M28.04,53.65c1.25,0.22,3.55,0.31,4.79,0.22c12.42-0.87,25.53-1.94,43.26-2.52c2.08-0.07,3.33,0.1,4.38,0.21"/><path d="M30.43,61.38c0.63,0.36,1.44,1.72,1.56,2.19c0.86,3.46,1.89,10.91,3.1,17.47"/><path d="M32.87,62.59c9.64-0.64,34.75-2.56,41.33-2.66c2.72-0.04,3.28,0.88,3.16,1.88c-0.4,3.45-1.88,10.09-4.04,15.74"/><path d="M35.15,70.57c7.27-0.17,26.95-2.49,40.64-2.49"/><path d="M35.15,78.54c8.45-0.67,27.68-2.66,38.68-2.66"/><path d="M19.97,87.93c1.59,0.54,4.48,0.67,6.09,0.54c20.34-1.63,38.95-2.75,57.67-3.11c2.65-0.05,4.24,0.26,5.56,0.53"/><path d="M52.66,44.25c0.6,0.4,1.89,3.01,2,3.82c0.12,0.81-0.08,48.65-0.2,53.68"/></svg>