<svg><path d="M11.58,24.3c1.83,0.2,3.84,0.42,4.92,0.36c8.13-0.42,19.26-0.67,25.45-1.18c1.3-0.11,2.08,0.17,2.73,0.35"/><path d="M11.81,37.27c0.46,0.48,1.06,0.84,1.14,1.47c0.63,4.58,2.37,15.85,3.25,24.51"/><path d="M13.6,38.85c7.07-0.84,23.68-2.34,28.51-2.47c2-0.05,2.41,1.14,2.32,2.46c-0.29,4.5-3.01,16.38-4.6,23.76"/><path d="M14.77,50.28c7.98-1.03,16.73-1.03,28-1.76"/><path d="M16.25,60.71c6.2-0.87,16-0.96,24.58-1.47"/><path d="M10.03,74.21c0.97,0,2.45,0.53,3.33,0.47c6.14-0.43,23.89-2.18,28.33-2.56c1.44-0.12,2.32,0.22,3.04,0.46"/><path d="M26.3,12.63c0.45,0.57,1.89,2.26,1.98,3.4c0.09,1.14-0.06,73.75-0.15,80.85"/><path d="M51.07,17.05c1.4,0.51,2.51,0.97,3.99,0.86c8-0.57,33.71-2.17,36.92-2.37c1.59-0.1,2.62,1.3,2.29,2.8c-0.6,2.65-1.7,8.02-3,12.02"/><path d="M53.68,32.62c4.85-0.12,32.08-2,39.89-2.25"/><path d="M53.48,18c0,35.2-0.73,58.25-13.23,77.5"/><path d="M56.79,49.23c0.8,0.34,2.27,0.9,3.08,0.84c8.38-0.58,24.38-2.08,30.94-2.5c1.33-0.08,2.14,0.16,2.81,0.33"/><path d="M63.91,36.75c0.87,0.5,1.4,2.25,1.57,3.25c0.17,1,1.5,16.25,1.33,22.5"/><path d="M81.64,35.75c0.71,0.54,1.35,2.42,1.28,3.52c-0.21,3.25-0.87,14.62-1.52,22.48"/><path d="M53.38,63.91c0.84,0.23,2.38,0.29,3.21,0.23c5.34-0.39,33.33-2.64,38.5-2.37c1.39,0.07,2.24,0.11,2.94,0.22"/><path d="M60.35,66.74c0.35,0.49,0.73,0.96,0.72,1.81c-0.02,10.67-0.24,23.56-0.24,25.37s0.58,2.55,1.94,1.48c2.72-2.14,9.22-8.14,12.84-10.05"/><path d="M88.18,67.39c0.02,0.21,0.24,1,0.1,1.27c-0.84,1.71-3.45,4.15-7.72,7.55"/><path d="M67.81,64.25C70.5,68.75,84.75,86,91.19,91.31c1.4,1.15,2.29,1.89,3.53,2.27"/></svg>