<svg><path d="M32.85,20c0.03,0.33,0.13,0.94-0.07,1.3c-2.37,4.58-5.87,8.79-12.04,12.49"/><path d="M19.37,33.25c1.09,0.5,1.74,2.25,1.96,3.25c0.22,1,2.42,27.25,3.42,35.75"/><path d="M22.75,44c3.29-0.49,7-1.42,9.81-1.99c1.46-0.3,2.67-0.51,3.44-0.51"/><path d="M23.5,56.8c3.2-0.4,6.4-1.3,8.96-1.78c1.05-0.2,1.99-0.33,2.79-0.33"/><path d="M41.34,25.61c0.5,0.23,1.41,0.31,1.9,0.23c4.01-0.6,14.89-2.07,21.93-2.69c0.83-0.07,1.32,0.11,1.74,0.23"/><path d="M42.44,33.3c0.36,0.31,0.81,1.46,0.88,1.87c0.48,2.95,1.57,9.8,2.25,15.38"/><path d="M43.82,34.42c5.45-0.59,17.59-2.86,21.31-2.95c1.54-0.04,1.85,0.81,1.79,1.73c-0.23,3.18-0.78,9.89-2,15.1"/><path d="M45.6,41.28c4.11-0.15,12.68-2.3,20.42-2.3"/><path d="M45.6,48.64c4.77-0.61,13.09-2.45,19.31-2.45"/><path d="M41.41,56.7c0.71,0.47,1.99,0.5,2.71,0.47C48,57,61,55,65.36,54.61c1.18-0.1,1.89,0.22,2.48,0.46"/><path d="M53.75,15c0.36,0.37,1.14,2.74,1.21,3.47c0.07,0.73-0.55,43.71-0.62,48.28"/><path d="M74.1,27.48c1.4,0.02,2.34,0.54,4.23,0.12c6.57-1.44,10.52-3.5,11.09-3.5c1.61,0,2.83,1.33,2.1,2.75C89.25,31.25,85,63.5,84,70"/><path d="M73,40c0.54,0.12,1.23,0.18,2.01,0.19C78.89,40.21,86.96,38.5,88,38.5"/><path d="M71.5,52.75c0.69,0.15,1.46,0.22,2.25,0.24c3.21,0.08,9.5-0.49,12.75-0.74"/><path d="M10.25,72.99c1.57,0.29,4.45,0.38,6.01,0.29c10.51-0.65,56.7-2.76,76.5-3.02c2.61-0.03,4.18,0.14,5.49,0.28"/><path d="M42.24,79.39c0.07,0.41,0.14,1.07-0.13,1.66c-1.63,3.51-10.99,11.2-23.8,15.91"/><path d="M68.02,80.08c6.63,2.85,17.13,11.71,18.79,16.13"/></svg>