<svg><path d="M10.58,27.3c1.17,0.2,2.72,0.88,3.34,0.86C21,28,28.75,26.75,39.54,25.99c1.02-0.07,1.62,0.17,2.13,0.35"/><path d="M11.81,38.27c0.46,0.49,1.06,0.87,1.14,1.52c0.63,4.71,2.37,16.31,3.25,25.22"/><path d="M14.6,39.85c7.07-0.84,18.68-2.34,23.51-2.47c2-0.05,2.41,1.14,2.32,2.46c-0.29,4.5-1.51,16.38-3.1,23.76"/><path d="M14.77,50.47c7.23-0.52,13.79-1.27,24-1.63"/><path d="M16.25,62.85c5.6-0.38,13.14-1.03,21.33-1.52"/><path d="M9.03,75.21c1.22,0.29,2.94,0.99,3.83,0.97c7.39-0.18,19.39-1.93,26.33-2.06c1.45-0.03,2.32,0.22,3.04,0.46"/><path d="M24.3,13.13c0.45,0.57,1.89,2.26,1.98,3.4c0.09,1.14-0.06,73.75-0.15,80.85"/><path d="M66.39,10.83c0.66,0.71,1.17,1.53,1.17,3.87c0,4.54-0.01,9.16-0.01,12.98"/><path d="M68.03,18.47c5.11-0.75,11.93-1.21,17.11-1.8c1.71-0.19,2.75,0.18,3.61,0.36"/><path d="M50.9,26.47c0.55,0.56,0.7,3.61,0.61,5.62C50.5,55.5,49,76,39.2,92.42"/><path d="M51.46,29.1c0.97,0.18,2.7,0.35,4.29,0.25c10-0.6,25.22-1.86,34.78-2.02c10.08-0.17,2.97,4.99,0.46,7.03"/><path d="M56.99,39.23c0.66,0.35,2.29,0.41,2.96,0.35c6.64-0.54,16.03-1.5,23.21-2.37c1.1-0.13,1.77,0.17,2.32,0.35"/><path d="M67.31,30.75c0.44,0.44,1.03,2.17,1.03,2.79c0,4.89-0.08,4.55-0.08,6.74c0,6.49,2.46,6,8.82,6c2.37,0,8.25-0.5,10.28-1.37"/><path d="M57.21,53.03c0.2,0.36,0.58,1.57,0.69,2.01c0.9,3.64,2.21,8.3,2.74,15.01"/><path d="M58.54,54.07c8.65-1.07,22.43-2.4,27.77-2.29c1.31,0.03,2.1,1.24,2.1,2.38c0,3.61-1.7,8.44-3.09,15.13"/><path d="M71.58,53.52c0.97,0.73,1.34,1.27,1.33,1.91c-0.03,4.22,0.13,11.06,0.13,12.59"/><path d="M59.82,61.46c2.33-0.18,25.06-1.73,26.99-1.73"/><path d="M61.02,69.12c5.15,0,16.88-1.28,23.99-1.38"/><path d="M54.04,76.12c0.45,0.76,1.04,1.58,1.14,2.23c0.76,5.13,0.83,8.89,1.13,14.97"/><path d="M55.53,77.73c8.12-1.06,29.9-2.63,32.85-2.49c1.27,0.06,2.03,0.19,1.86,2.21c-0.25,2.98-1.49,10.36-2.43,14.37"/><path d="M66,78.18c0.19,0.49,0.46,0.89,0.46,1.51c0,4.37,0.18,8.7,0.18,12.71"/><path d="M77.62,77.59c0.35,0.58,0.71,1.59,0.62,2.34c-0.52,4.37-0.69,8.5-0.91,12.18"/><path d="M44.87,93.67c1.33,0.2,3.76,0.23,5.09,0.2c13.81-0.33,19.4-1.37,44.83-1.42c2.21,0,3.54,0.09,4.65,0.19"/></svg>