<svg><path d="M41.63,22.94c1.32,0.29,2.65,0.33,3.99,0.13c5.26-0.76,11.66-1.17,17-1.6c1.51-0.36,3.01-0.36,4.5-0.02"/><path d="M41.93,30.7c0.61,0.88,0.96,1.85,1.05,2.9c0.42,2.33,0.9,4.95,1.45,8.39c0.2,1.26,0.41,2.63,0.63,4.14"/><path d="M43.31,31.08c4.35-0.48,13.04-1.88,18.19-2.46c3.59-0.41,5.12,0.75,4.58,4.41c-0.57,3.88-1.28,7.33-2.21,11.32"/><path d="M45.09,37.52c5.28-0.4,12.16-1.27,19.14-1.57"/><path d="M46.09,44.7c4.77-0.62,10.58-1.48,16.79-1.48"/><path d="M41.08,53.86c1.92,0.26,3.23,0.16,4.93,0.06c5.12-0.3,10.07-1.31,15.24-1.73c1.89-0.29,3.79-0.28,5.67,0.01"/><path d="M53.32,13.24c0.85,0.85,1.11,2.26,1.11,3.51c0,0.57-0.04,27.2-0.05,42.13c0,4.61-0.01,8.11-0.01,9.38"/><path d="M26.32,15.75c0,1-0.25,1.96-0.88,2.89c-2.32,3.48-5.57,7.98-8.1,11.24c-1.35,1.74-0.47,2.62,1.41,2.19c2.99-0.45,5.99-0.95,9.62-1.45"/><path d="M35.05,21.96c0.07,1.16-0.36,2.11-0.75,2.58c-5.68,6.83-9.29,11.22-15.3,18.44c-1.88,2.26-2.8,3.71,1.07,2.62c5.67-1.6,9.55-2.6,15.14-4.1"/><path d="M33.19,36.43c1.87,1.73,5.09,6.85,5.56,9.54"/><path d="M26.83,46.47c0.85,0.85,0.92,1.78,0.92,3.28c0,3.41,0.03,8.83,0.06,13.25c0.02,2.87,0.03,5.31,0.03,6.5"/><path d="M18.61,53.66c0.1,1.03-0.13,1.95-0.67,2.75c-1.5,2.56-3.97,6.43-6.17,9.36"/><path d="M33.79,52.34c1.56,2.01,4.73,6.87,5.29,8.88"/><path d="M81,14.75c0,1.12-0.04,2.02-0.63,3.06c-1.85,3.24-4.85,8.38-7,11.82c-1,1.61-0.75,2.5,1.27,2.14c2.85-0.51,5.36-0.89,8.98-1.64"/><path d="M92.37,18.36c0.01,0.89-0.39,1.95-0.77,2.48c-5.46,7.64-10.32,13.58-17.03,21.59c-1.41,1.68-1.83,3.09,1.22,2.44c5.22-1.12,10.34-2.12,16.2-3.37"/><path d="M89.06,35.13c1.99,1.84,5.89,8.05,6.39,10.91"/><path d="M82.08,47.04c0.88,0.88,0.92,2.07,0.92,3.23c0,3.43,0,8.31,0,12.23c0,2.62,0,4.82,0,5.88"/><path d="M74.21,53.16c0,1.09-0.4,2.07-0.65,2.47c-1.93,3.11-5.45,7.45-7.96,9.62"/><path d="M89.53,51.31c2.35,2.48,6.38,9.09,7.22,11.57"/><path d="M32.25,74.1c1.01,1.01,1.43,1.98,1.58,3.35c0.74,4.62,1.26,9.26,1.87,14.18c0.26,2.05,0.53,4.16,0.84,6.33"/><path d="M34.39,75.96c13.53-1.24,32.73-2.12,40.36-2.8c3.06-0.27,5.37,1.26,4.63,4.59c-1.15,5.22-1.89,8-3.47,15.02"/><path d="M37.54,95.38c7.12-0.2,21.4-0.89,33.09-1.35c2.82-0.11,5.49-0.21,7.88-0.28"/></svg>