<svg><path d="M52.81,12.5c1.28,1.28,1.87,3.25,1.87,5.35c0,3.05,0,3.65,0,7.65"/><path d="M29.25,28.45c2.19,0.62,5.12,0.5,7.4,0.27c8.67-0.91,26.08-3.46,36.1-4.24c2.68-0.21,5.33-0.35,8,0.1"/><path d="M38.25,33.25c2.91,4.85,4.24,9.81,4.5,13"/><path d="M68.26,28c0.37,1,0.12,1.75-0.24,2.77c-1.04,2.96-4.74,10.12-6.27,12.48"/><path d="M13.25,50.3c3.28,0.88,6.65,0.76,10,0.32c17-2.25,44.14-4.57,61.63-5.64c3.5-0.21,6.9-0.21,10.38,0.35"/><path d="M24.64,69.2c2.96,1.05,7.34,0.67,10.36,0.19c13.8-2.19,28.14-3.34,40.5-4.25c3.41-0.25,6.73-0.14,10.11,0.58"/><path d="M53.14,49.38c0.99,0.99,1.18,2.37,1.18,4.21c0,6.46,0.02,25.4,0.03,37.15c0,3.07,0,5.65,0,7.38"/></svg>