<svg><path d="M24.12,14.25c1.01,1.31,1.51,1.31,1.51,4.35c0,3.05,0,2.65,0,6.65"/><path d="M13.35,26.2c0.83,0.33,1.8,0.38,2.62,0.33c4.67-0.28,11.74-1.03,18.81-1.27c1.38-0.05,2.21,0.16,2.9,0.32"/><path d="M16.95,33.25c2.72,4.66,3.96,9.43,4.2,12.5"/><path d="M33.76,28.75c0.54,0.58,0.61,1.96,0.54,2.44c-0.43,3.32-4.09,12.77-5.17,15.31"/><path d="M12.5,51.3c1.04,0.39,2.25,0.93,3.29,0.89c5.71-0.19,13.96-1.69,20.08-2c1.73-0.09,2.77,0.19,3.63,0.38"/><path d="M13.18,71.6c0.6,0.56,1.71,0.7,2.31,0.56c7.65-1.81,17.09-4.71,22.91-6.39"/><path d="M26.32,54.13c0.47,0.52,1.03,1.91,1.05,2.96C27.5,65.25,24.5,88.75,16,98"/><path d="M47.38,12.75c2.6,1.5,6.72,6.17,7.37,8.5"/><path d="M41.87,29.08c0.63,0.23,3.04,0.27,3.67,0.23c7.8-0.42,10.97-1.67,16.64-1.87c1.05-0.04,2.64,0.11,3.16,0.23"/><path d="M44.73,41.06c0.38,0.12,2.72,0.65,3.1,0.62c2.67-0.18,7.42-0.43,9.71-0.55c0.63-0.03,2.29,0.06,2.61,0.12"/><path d="M44.23,54.83c0.34,0.12,2.42,0.13,2.77,0.12c3.55-0.13,6.25-0.2,10.31-0.59c0.56-0.05,2.94,0.06,3.22,0.11"/><path d="M42.14,70.9c0.35,0.36,0.75,0.65,0.86,1.13c0.99,4.21,2.25,13.04,3.25,19.21"/><path d="M43.31,72.37c6.44-0.89,9.48-1.1,15.42-2c1.49-0.22,2.39,1.04,2.18,2.06c-0.89,4.25-1.91,8.82-2.74,16.78"/><path d="M46.47,90.47c4.65-0.27,7.81-0.74,14.19-1.15"/><path d="M81.06,12.75c1.41,1.31,2.12,1.31,2.12,4.35c0,3.05,0,4.15,0,8.15"/><path d="M70.33,25.77c0.84,0.4,1.83,0.46,2.67,0.4c4.75-0.34,12.5-1.25,19.68-1.54c1.4-0.06,2.25,0.19,2.95,0.39"/><path d="M73.9,32.25c3.19,4.57,4.64,9.24,4.93,12.25"/><path d="M92.05,28.25c0.64,0.59,0.71,1.98,0.64,2.48c-0.51,3.36-4.8,12.95-6.07,15.52"/><path d="M66.5,49.73c1.19,0.24,2.58,0.29,3.77,0.24c6.23-0.23,17.73-1.23,24.31-1.56c1.98-0.1,3.17,0.12,4.17,0.24"/><path d="M67.38,67.69c0.97,0.38,2.76,0.93,3.74,0.88c6.68-0.34,17.32-0.56,24.39-0.95c1.62-0.09,2.6,0.18,3.41,0.37"/><path d="M81.64,51.63c0.66,0.52,1.68,2.62,1.68,4.96c0,6.05-0.19,40.24-0.22,41.79"/></svg>