<svg><path d="M25.62,12.25c1.01,1.31,1.51,1.31,1.51,4.35c0,3.05,0,5.65,0,9.65"/><path d="M11.85,28.7c0.83,0.33,1.8,0.38,2.62,0.33c4.67-0.28,17.74-3.03,24.81-3.27c1.38-0.05,2.21,0.16,2.9,0.32"/><path d="M17.45,31.5c3.37,5.69,4.9,11.5,5.2,15.25"/><path d="M35.76,29.25c0.54,0.54,0.61,1.82,0.54,2.27c-0.43,3.08-4.09,11.87-5.17,14.23"/><path d="M11,50.3c1.04,0.39,2.26,0.53,3.29,0.39C19.5,50,32.75,47.5,38.87,47.2c1.73-0.09,2.77,0.19,3.63,0.38"/><path d="M12.18,70.73c0.66,0.9,1.88,1.13,2.54,0.9C23.13,68.69,33.5,64,39.9,61.27"/><path d="M26.82,51.63c0.47,0.52,1.03,1.91,1.05,2.96C28,62.75,28.25,78.5,18.5,92"/><path d="M49.25,36c0.5,6-0.75,21-3.94,26.22"/><path d="M57.69,14.25c0.5,2.14,1.2,3.82,1.2,6.5c0,24.43,2.03,59.64-14.83,72.22"/><path d="M78.56,11.25c1.41,1.31,2.12,1.31,2.12,4.35c0,3.05,0,5.65,0,9.65"/><path d="M65.83,26.7c0.69,0.33,1.5,0.38,2.19,0.33c3.91-0.28,19.27-2.03,25.18-2.27c1.15-0.05,1.85,0.16,2.42,0.32"/><path d="M71.15,30.5c2.71,5.03,3.94,10.18,4.18,13.5"/><path d="M89.24,27.25c0.45,0.54,0.51,1.82,0.45,2.27c-0.36,3.08-3.42,11.87-4.33,14.23"/><path d="M64.25,47.8c0.87,0.39,1.88,0.47,2.75,0.39c7.25-0.69,19.75-2.69,27.72-2.5c1.45,0.04,2.31,0.19,3.04,0.38"/><path d="M66.38,65.95c0.78,0.47,2.21,0.53,3,0.47c5.37-0.42,18.12-1.92,23.79-2.4c1.3-0.11,2.09,0.22,2.74,0.46"/><path d="M79.14,48.13c0.66,0.52,1.68,2.62,1.68,4.96c0,6.05-0.19,42.74-0.22,44.29"/></svg>