<svg><path d="M25.62,12.25c1.01,1.31,1.51,1.31,1.51,4.35c0,3.05,0,6.65,0,10.65"/><path d="M12.35,29.2c0.83,0.33,1.8,0.38,2.62,0.33c4.67-0.28,16.24-2.53,23.31-2.77c1.38-0.05,2.21,0.16,2.9,0.32"/><path d="M17,32.25c3.46,5.69,5.04,11.5,5.35,15.25"/><path d="M35.26,30.25c0.54,0.54,0.61,1.82,0.54,2.27c-0.43,3.08-4.09,11.87-5.17,14.23"/><path d="M10,51.8c1.04,0.39,2.26,0.57,3.29,0.39C20,51,31.75,48.75,37.37,48.7c1.73-0.02,2.77,0.19,3.63,0.38"/><path d="M10.68,71.23c0.66,0.9,1.88,1.13,2.54,0.9C21.63,69.19,32,64,38.4,61.27"/><path d="M27.03,52.13c0.58,0.59,1.36,2.17,1.31,3.37C28,64,25.75,83.5,14.25,98"/><path d="M43.72,33.94c0.9,0.65,2,0.48,2.81,0.35c4.73-0.79,10.25-1.88,13.79-2.55c2.3-0.43,3.32,1.3,3.2,4.34C63,49,62.5,73.25,57.11,89.41c-2.24,6.71-5.36,3.59-7.82,0.21"/><path d="M50.34,37.06c0.41,1.19,0.56,2.17,0.42,3.94C49.42,58.29,46,77.75,36.5,92.22"/><path d="M79.06,11.25c1.41,1.31,2.12,1.31,2.12,4.35c0,3.05,0,5.65,0,9.65"/><path d="M67.33,26.7c0.69,0.33,1.5,0.38,2.19,0.33c3.91-0.28,17.27-2.03,23.18-2.27c1.15-0.05,1.85,0.16,2.42,0.32"/><path d="M72.03,30c3.03,5.22,4.41,10.56,4.69,14"/><path d="M89.69,27.75c0.5,0.51,0.56,1.71,0.5,2.13c-0.41,2.9-3.81,11.15-4.82,13.37"/><path d="M68.25,48.3c0.87,0.39,1.88,0.49,2.75,0.39c8.96-0.99,15.24-1.89,23.47-2.5c1.44-0.11,2.31,0.19,3.04,0.38"/><path d="M68.88,65.45c0.78,0.47,2.22,0.6,3,0.47C77.5,65,87.25,64,93.18,63.02c1.29-0.21,2.09,0.22,2.74,0.46"/><path d="M80.14,49.13c0.66,0.52,1.18,1.62,1.18,3.46c0,6.05-0.19,42.74-0.22,44.29"/></svg>