<svg><path d="M25.37,12c1.01,1.31,1.51,1.31,1.51,4.35c0,3.05,0,6.65,0,10.65"/><path d="M12.6,29.67c0.76,0.23,1.65,0.26,2.41,0.23c4.3-0.19,16.32-2.08,22.82-2.25c1.27-0.03,2.03,0.11,2.67,0.22"/><path d="M16.5,36c3.5,4.47,5.09,9.05,5.41,12"/><path d="M35.47,32.5c0.58,0.51,0.65,1.71,0.58,2.13c-0.46,2.9-4.38,11.15-5.55,13.37"/><path d="M10.5,53.26c0.98,0.28,2.13,0.37,3.1,0.28c4.92-0.49,17.94-2.26,23.72-2.47c1.63-0.06,2.61,0.13,3.43,0.27"/><path d="M12.25,72.29c0.61,0.67,1.74,0.84,2.36,0.67c7.81-2.19,17.45-5.67,23.39-7.71"/><path d="M25.72,52.38c0.62,0.57,1.36,2.09,1.39,3.24c0.17,8.91,0.14,29.88-12.36,40.88"/><path d="M55.16,14.5c0.29,1.31,0.55,2.43-0.15,3.72c-3.07,5.69-8.2,14.01-11.12,17.08c-0.6,0.63-0.58,3.03,0,3.28c3.07,1.31,6.44,2.5,9.07,4.91"/><path d="M62.26,28.75c0.28,0.51,0.37,2.18,0,2.72c-5.4,7.99-11.45,16.29-18.87,23.58c-1.7,1.67,0.42,2.63,1.53,2.29c4.64-1.42,10.83-2.07,16.79-3.43"/><path d="M58,44.25c3,2.74,7.75,11.24,8.5,15.5"/><path d="M52.92,58.01c0.07,0.29,1,1.48,1.07,3.28c0.34,8.64-0.22,31.27-0.22,34.21"/><path d="M45.45,67.5c0.2,1.03,0.17,3.06-0.2,3.8c-2.39,4.81-8.37,14.08-11.75,18.2"/><path d="M60.75,69.5c3.75,3.9,6.63,12.96,7.5,16.5"/><path d="M79.08,12c1.06,1.31,1.59,1.31,1.59,4.35c0,3.05,0,5.65,0,9.65"/><path d="M67.33,28.15c0.68,0.25,1.48,0.29,2.16,0.25c3.84-0.22,18.95-1.57,24.76-1.76c1.13-0.04,1.81,0.12,2.38,0.25"/><path d="M72,33.25c3.56,5.13,5.18,10.37,5.5,13.75"/><path d="M90.29,28.75c0.65,0.6,0.72,2.01,0.65,2.51c-0.52,3.41-4.89,13.13-6.19,15.74"/><path d="M68,51.61c0.77,0.19,1.67,0.23,2.44,0.19c6.44-0.33,17.54-1.79,24.61-1.7c1.29,0.02,2.05,0.09,2.7,0.18"/><path d="M67.13,68.17c0.98,0.43,2.78,0.49,3.77,0.43c6.74-0.39,15.69-1.07,22.83-1.51c1.64-0.1,2.62,0.21,3.44,0.42"/><path d="M79.39,51.63c0.66,0.49,1.68,2.47,1.68,4.69c0,5.71-0.19,40.36-0.22,41.81"/></svg>