<svg><path d="M44.98,10.89c0.07,0.23,0.15,0.58-0.15,0.91c-1.75,1.91-11.79,6.1-25.53,8.67"/><path d="M21.28,23.64c0.02,0.3,0.05,0.77-0.05,1.19c-0.59,2.51-4,8.02-8.67,11.38"/><path d="M30.02,22.58c1.96,1.35,5.05,5.54,5.54,7.63"/><path d="M41.27,19.08c3.37,1.61,8.7,6.63,9.54,9.13"/><path d="M20,36.15c0.89,0.35,2.1,0.72,3.12,0.64c2-0.17,19.43-3.45,21.55-3.62c2.12-0.17,2.83,1.58,0.95,2.83c-0.97,0.64-10.47,7.17-11.81,7.86"/><path d="M28.91,40.89c2.02,0.89,7.23,4.29,8.18,6.61"/><path d="M17.53,50.8c1.04,0.65,1.86,2.43,1.86,3.61c0,7.59,0.04,34.34,0.04,43.84"/><path d="M19.86,52.53C26,52,45.93,49.58,47.79,49c2.17-0.68,3.61,1.67,3.54,3.68c-0.19,4.87-0.64,29.82-0.64,38.93c0,8-2.43,5.39-6.34,1.44"/><path d="M33.86,52.25c0.28,0.32,0.24,0.98-0.12,1.49c-1.73,2.46-5.23,7.24-5.87,8.26c-0.63,1.02-0.21,1.79,1.48,1.37c1.88-0.46,7.64-2.62,11.6-3.79"/><path d="M39.05,56.64c1.54,1.03,3.97,4.25,4.35,5.85"/><path d="M27.12,71.11c0.76,0.16,0.86,0.41,2.38,0.16c1.52-0.24,11.46-2.35,12.51-2.59s1.87,0.92,1.43,1.78C38.5,80,33.5,87,25.5,92.5"/><path d="M30.56,76.83c3.9,1.3,9.14,4.54,12.22,8.47"/><path d="M72.24,10.75c1.19,1.1,1.78,1.1,1.78,3.65c0,2.56,0,4.74,0,8.1"/><path d="M57.83,24.2c1.2,0.33,2.6,0.38,3.8,0.33c6.77-0.28,16.56-2.53,26.8-2.77c2-0.05,3.2,0.16,4.2,0.32"/><path d="M62.4,29.75c3.52,4.94,5.12,9.99,5.43,13.25"/><path d="M85.11,25.25c0.58,0.58,0.65,1.96,0.58,2.44c-0.47,3.32-4.4,12.77-5.57,15.31"/><path d="M56.25,47.02c1.4,0.63,3.03,0.71,4.44,0.63c7.06-0.4,23.56-2.15,29.65-2.42c2.34-0.1,3.74,0.3,4.91,0.62"/><path d="M57.38,66.95c0.95,0.47,2.68,0.53,3.64,0.47c6.5-0.42,21.95-1.92,28.83-2.4c1.58-0.11,2.53,0.22,3.32,0.46"/><path d="M72.64,49.63c0.66,0.52,1.68,2.62,1.68,4.96c0,6.05-0.19,43.24-0.22,44.79"/></svg>