<svg><path d="M62.12,15.5c0.66,0.39,2.05,2.9,2.18,3.68c0.13,0.78-0.08,46.89-0.22,51.74"/><path d="M44.28,35.84c0.66,0.39,1.32,2.53,1.31,3.31c-0.09,5.35,0.16,22.1-0.67,31.42c-0.16,1.78-0.33,3.49,1.3,3.25c5.85-0.87,30.99-2.98,39.22-3.2"/><path d="M85.19,31.86c0.21,0.53,1.44,3.92,1.41,4.97c-0.2,6.43-0.41,25.43-0.74,37.42"/><path d="M21.71,16.5c3.63,1.74,9.38,7.17,10.29,9.88"/><path d="M14.96,39c4.34,0.99,11.21,4.09,12.29,5.63"/><path d="M13.5,60.94c2.25,0.85,3.75,0.43,4.75,0.21c1-0.21,8-2.99,9.5-3.42c1.5-0.43,3.75,1.07,2.75,2.35s-4,6.19-4.75,7.26c-0.75,1.07-0.5,2.99,1,4.48s2.75,3.2,3.5,4.48C31,77.59,31,78.66,29.5,79.73c-1.5,1.07-9,7.04-10.5,7.47"/><path d="M14.75,88.07c2.96-0.24,8.88-0.85,13.33-0.37c4.44,0.49,29.69,3.76,34.06,4.39C73.98,93.8,83.12,94.29,92,93.43"/></svg>