<svg><path d="M27.12,15.77c2.76,0.83,5.34,0.56,8.15,0.19c12.15-1.62,30.97-3.37,39.12-3.99c2.66-0.2,5.13-0.22,7.76,0.25"/><path d="M28.59,16.53c0.75,0.75,0.92,1.64,0.92,3.11c0,9.48-2.26,24.61-14.01,36.3"/><path d="M40.76,24.18c1.75,0.6,4.32,0.49,6.14,0.28c5.87-0.69,15.01-1.79,20.5-2.44c1.79-0.21,3.61-0.4,5.31-0.14"/><path d="M31.78,34.76c3.22,0.62,6.25,0.3,8.87,0.06c10.44-0.96,30.92-3.06,40.11-3.7c2.84-0.2,5.91-0.46,8.72,0.11"/><path d="M38.73,36.54c0.99,0.99,1.35,2.46,1.35,4.08c0,3.26-0.08,14-0.08,15.63c0,1.63,1.24,2.42,3.27,1.19c2.03-1.22,7.85-5.19,13.32-8.72"/><path d="M73.92,35.64c0.1,0.61-0.06,1.14-0.48,1.6c-1.17,1.92-2.67,3.57-5.41,6.04"/><path d="M53.71,38.89c4.09,0.49,17.48,10.84,25.66,15.91c3.13,1.94,5.25,3.07,9.13,4.45"/><path d="M17.19,70.35c3.56,0.9,7.41,0.81,10.58,0.51c16.85-1.6,38.23-2.73,56.49-3.66c3.6-0.18,7.61-0.07,10.56,0.59"/><path d="M66.42,54.58c1.25,1.25,1.39,2.54,1.39,4.53c0,18.57,0.02,29.61,0.02,34.13c0,10.96-6.59,1.62-8.59,0.23"/><path d="M42.33,76.9c2.67,1.78,6.89,7.33,7.56,10.11"/></svg>