<svg><path d="M37.5,46.4c1.43,0.37,4.05,0.32,5.49,0.37c6.81,0.23,31.9-2.26,45.5-2.26c2.39,0,3.82,0.18,5.01,0.36"/><path d="M19.46,16.5c4.25,1.74,10.98,7.17,12.04,9.88"/><path d="M14.21,36c4.25,1.52,10.98,6.26,12.04,8.63"/><path d="M12,58.44c2.25,0.85,3.75,0.43,4.75,0.21c1-0.21,9-2.99,10.5-3.42c1.5-0.43,3.75,1.07,2.75,2.35s-5,7.69-5.75,8.76c-0.75,1.07-0.5,2.99,1,4.48s3.25,2.7,4,3.98C30,76.09,30,77.16,28.5,78.23c-1.5,1.07-11,6.04-12.5,6.47"/><path d="M11.75,86.22c3.15-0.53,9.46-1.87,14.19-0.8c4.73,1.07,31.55,5.93,36.26,7.09C72.25,95,83.54,95.81,93,93.94"/></svg>