<svg><path d="M63.05,35.17c-0.05,1.95-0.48,3-1.07,4.32c-5.43,12.12-16.4,26.98-25.15,33.4"/><path d="M49.1,16.75c9.15,2,18.15,28.75,32.17,45.48c3.08,3.68,6.22,7.27,9.38,9.27"/><path d="M18.21,21.25c3.99,1.44,10.3,5.9,11.29,8.13"/><path d="M13.25,52.03c2.25,0.88,3.77,0.53,4.75,0.22c2.75-0.87,8.19-2.99,10.75-4.26c2.5-1.24,3.15,1.02,2.25,2.41c-7.5,11.6-8,6.85-0.75,16.92c0.89,1.23,1,2.66-0.5,3.76s-8,6.17-11,8.17"/><path d="M14.25,80.72c4.12-1.22,9.73-1.09,14.43-0.81c5.82,0.34,35.54,6.53,40.1,7.5c12.38,2.62,15.09,2.97,22.72,3.06"/></svg>