<svg><path d="M47.85,25.35c1.59,0.61,3.59,0.52,4.98,0.33c11.29-1.56,22.29-3.56,31.25-5.2c4.25-0.78,5.94,1.6,5.53,5.65c-0.92,8.92-4.55,31.4-9.45,41.38c-2.48,5.05-5.68,2.53-9.4-1.11"/><path d="M62.96,27.01c0.41,1.11,0.4,2.32,0.12,3.73c-2.34,12-9.34,29.75-21.84,40.79"/><path d="M19.21,19.5c3.81,1.52,8.92,5.62,10.79,8.63"/><path d="M14.75,49.25c1.62,0.75,3.8,0.4,4.75,0c2.38-1,6.42-3.28,9-4.5c2.12-1,4.01,0.26,2.25,3C22.25,61,22.12,56.62,30,65c1.15,1.22,0.83,2.86-0.75,4c-3.12,2.25-8.12,6-12.5,9.5"/><path d="M14.25,80c3.62-0.88,8.9-1.06,13.5-0.75c7.38,0.5,30.07,6.21,34.5,7.5c12,3.5,18.38,4.38,27,4"/></svg>