<svg><path d="M44.66,21.57c1.21,0.32,3.42,0.41,4.62,0.32c9.22-0.64,24.22-2.89,33.74-3.2c2.01-0.07,3.22,0.15,4.22,0.31"/><path d="M39.77,44.87c1.34,0.47,3.81,0.59,5.15,0.47c9.93-0.88,30.1-3.68,44.6-3.63c2.24,0.01,3.58,0.22,4.7,0.46"/><path d="M64.75,22.03c0.74,0.73,1.61,2.41,1.69,4.86c0.35,11.76-0.22,46.98-0.22,50.98c0,8.47-7.63,0.16-8.61-0.6"/><path d="M21.71,14c3.63,1.74,9.38,7.17,10.29,9.88"/><path d="M14.96,34c4.34,0.99,11.21,4.09,12.29,5.63"/><path d="M13.5,55.94c2.25,0.85,3.75,0.43,4.75,0.21c1-0.21,8-2.99,9.5-3.42c1.5-0.43,3.75,1.07,2.75,2.35s-4,6.19-4.75,7.26c-0.75,1.07-0.5,2.99,1,4.48s2.75,3.2,3.5,4.48C31,72.59,31,73.66,29.5,74.73c-1.5,1.07-9,7.04-10.5,7.47"/><path d="M15.25,83c3-0.5,9-1.75,13.5-0.75s30.07,7.71,34.5,9c12,3.5,21.25,4.5,30.25,2.75"/></svg>