<svg><path d="M59.15,16.05c0,0.95-0.55,1.42-1.1,1.99c-3.7,3.82-6.56,6.1-12.3,9.2"/><path d="M41.37,28.28c0.86,0.86,1.25,2.22,1.25,3.69c0,5.03-0.11,21.4-0.11,28.06c0,1.52,0.7,2.03,2.37,0.85c1.67-1.18,7.38-6.62,16.27-13.65"/><path d="M67.68,24.05c0.62,0.16,2.37,0.63,3.62,0.47c1.25-0.16,12.85-1.83,14.4-2.05c2.43-0.35,4.05,0.15,4.05,3.08c0.01,7.2-1,19.2-3,30.79c-1.25,7.25-5.92,0.81-6.39,0.49"/><path d="M68.02,24.73c0.75,0.75,1.05,1.77,1.05,3.11c0,6.78,0.03,31.8,0.02,44.67c0,4.36,0,7.26-0.01,7.49"/><path d="M19.96,21.5c3.46,1.52,8.93,6.25,9.79,8.61"/><path d="M13.75,52c2.05,0.93,3.42,0.46,4.34,0.23c0.91-0.23,8.05-2.49,9.42-2.95c1.37-0.46,3.28,1.07,2.51,2.54C23.25,64.75,24,58.75,28.79,68.4c0.69,1.38,0.68,2.54-0.69,3.7c-1.37,1.16-5.73,4.65-9.84,7.61"/><path d="M14.25,81.63c4.88-1.13,9.95-1.09,14.5-0.46c6.88,0.96,24,4.58,34.5,7.27c13.17,3.38,18.88,4.18,27,4.1"/></svg>