<svg><path d="M41.56,32.45c0.48,0.28,1.42,0.91,1.57,1.63c1.09,5.19,2.41,13.33,3.95,23.17"/><path d="M43.45,33.67c13.3-1.17,33.68-3.28,42.38-3.68c3.39-0.16,4.07,2.58,3.65,4.16c-1.44,5.41-2.08,8.57-4.42,17.57"/><path d="M47.72,54.55c11.28-0.8,25.53-1.8,39.62-2.44"/><path d="M63.26,11.25c1.1,0.45,1.76,2.02,1.98,2.91c0.22,0.9,0,67.74-0.22,73.34"/><path d="M17.21,14c3.99,1.74,10.3,7.17,11.29,9.88"/><path d="M12.71,33c4.43,1.61,11.44,6.63,12.54,9.13"/><path d="M11,55.94c2.25,0.85,3.75,0.43,4.75,0.21c1-0.21,7.5-2.49,9-2.92c1.5-0.43,3.75,1.07,2.75,2.35s-4,6.19-4.75,7.26c-0.75,1.07-0.5,2.99,1,4.48s2.75,3.2,3.5,4.48C28,73.09,28,74.16,26.5,75.23c-1.5,1.07-9,7.04-10.5,7.47"/><path d="M11.75,84.63c3.02-0.5,8.98-1.28,13.59-0.74c7.41,0.86,27.66,6.61,34.72,8.9c11.95,3.88,21.39,4.45,30.44,2.72"/></svg>