<svg><path d="M43.21,16.49c0.79,0.39,3.2,0.73,4.43,0.61c10.09-0.93,30.97-3.3,36.56-3.64c3.64-0.22,4.63,2.09,4.55,3.66c-0.25,5.15-4.74,17.02-8.61,23.29c-3.15,5.1-7.9,1.6-9.7-0.77"/><path d="M63.99,18.65c0.06,0.61,0.19,1.58-0.13,2.44c-3.23,8.76-9.03,16.1-21.97,24.79"/><path d="M47,54.21c0.38,0.4,0.76,0.73,0.92,1.23c1.3,3.96,2.86,17.94,3.75,25.05"/><path d="M48.34,55.87C58,55,75.75,53.02,82.73,52.5c2.31-0.17,5.02,1.79,4.34,4.28c-1.24,4.56-3.56,12.77-4.98,19.17"/><path d="M51.84,78.52c5.16-0.59,22.91-1.6,32.86-2"/><path d="M17.71,14.5c3.81,1.66,9.84,6.81,10.79,9.38"/><path d="M13.46,33.5c4.16,1.52,10.75,6.26,11.79,8.63"/><path d="M11,55.94c2.25,0.85,3.75,0.43,4.75,0.21c1-0.21,8-2.49,9.5-2.92c1.5-0.43,3.75,0.57,2.75,1.85s-4.5,6.69-5.25,7.76c-0.75,1.07-0.5,2.99,1,4.48s2.75,3.7,3.5,4.98C28,73.59,28,74.66,26.5,75.73c-1.5,1.07-9,6.54-10.5,6.97"/><path d="M11.25,84.61c3.08-0.49,9.23-1.7,13.85-0.73c4.61,0.97,30.84,7.47,35.38,8.73C72.78,96,82.27,96.97,91.5,95.28"/></svg>