<svg><path d="M65.39,14.07c0.24,0.93-0.06,1.75-0.33,2.36c-2.44,5.45-5.94,11.7-11.12,17.81"/><path d="M46.94,35.64c0.96,0.96,1.18,2.34,1.18,3.76c0,1.19,0.94,21.53,1.32,32.85c0.07,2.19,0.12,4.06,0.12,5.44"/><path d="M48.98,37.73c6.17-0.92,23.8-4.04,31.29-5.23c4.29-0.68,5.91,0.06,5.74,4.63c-0.21,5.62-1.11,20.95-1.75,32.12c-0.14,2.46-0.26,4.71-0.37,6.61"/><path d="M49.69,55.7C59.75,54,76,52.12,84.22,51.79"/><path d="M50.6,74.38c10.02-1.12,23.44-2.68,32.35-2.94"/><path d="M20.33,19.5c3.77,1.7,9.73,6.99,10.67,9.63"/><path d="M15.5,51.58c2.12,0.67,4.28,0.59,5.25,0.24c3-1.07,7.56-3.18,9.5-4.08c1.88-0.87,3.29,0.83,2.25,2.88c-7.25,14.25-7.5,7.87,0.25,17.93c0.99,1.28,0.75,2.63-0.75,3.83c-1.5,1.2-9.12,6.5-12,8.12"/><path d="M12.5,82.5c3.62-1.12,10.68-1.39,15.25-0.75c5.38,0.75,30.07,8.21,34.5,9.5c8.93,2.6,15.25,4.25,25.25,5.06"/></svg>