<svg><path d="M51.88,15.28c0.16,0.6,0.58,2.41,0.31,3.59c-1.69,7.38-6.66,23.26-15.45,31.83"/><path d="M53.46,27.62c0.24,0.04,1.25-0.07,1.95-0.13c2.59-0.24,6.25-0.77,9.94-2.13c1.65-0.61,2.95,1.35,2.46,2.9C63.52,41.79,50.79,70.23,37,77.12"/><path d="M45.36,45.52c2.68,1.43,6.91,5.88,7.58,8.11"/><path d="M74.74,12.63c0.54,0.39,1.67,2.92,1.78,3.7c0.11,0.78-0.07,62.93-0.18,67.8"/><path d="M79.34,40.7c5.97,2.8,15.42,11.51,16.91,15.87"/><path d="M17.46,14c3.9,1.74,10.07,7.17,11.04,9.88"/><path d="M12.96,33c4.34,1.61,11.21,6.63,12.29,9.13"/><path d="M11,55.94c2.25,0.85,3.75,0.43,4.75,0.21c1-0.21,8-2.99,9.5-3.42c1.5-0.43,3.75,1.07,2.75,2.35s-4.5,6.69-5.25,7.76c-0.75,1.07-0.5,2.99,1,4.48s2.75,3.7,3.5,4.98C28,73.59,28,74.66,26.5,75.73c-1.5,1.07-9.5,7.04-11,7.47"/><path d="M11.75,84.57c3.07-0.47,9.2-1.63,13.8-0.7c4.6,0.93,30.75,7.18,35.27,8.38c12.27,3.26,21.73,4.19,30.93,2.56"/></svg>