<svg><path d="M66.52,10.89c0.11,0.88-0.3,1.76-0.84,2.48c-2.21,2.98-7.7,7.79-13.53,11.05"/><path d="M49.29,24.75c0.73,0.73,1.21,1.88,1.21,3.25c0,0.93-0.18,32.42-0.21,45.5c0,1.31-0.01,4.66-0.01,5.5"/><path d="M51.64,30.09c6.42-1.02,17.83-2.89,23.11-3.6c3.1-0.42,4.25,0.61,3.43,3.8c-0.73,2.82-1.37,5.6-2.83,9.76"/><path d="M51.8,44.29c9.93-1.38,16.76-2.72,22.06-3.35c1.61-0.19,2.88-0.44,4.36-0.2"/><path d="M51.48,57.82c7.33-1.21,20.26-2.76,26.04-3.42c3.16-0.36,4.35,1.86,3.83,3.98c-0.83,3.34-1.18,5.61-2.63,11.61"/><path d="M51.42,74.21c4.08-0.43,16.64-2.19,24.71-3.02c1.86-0.19,3.24-0.31,4.65-0.19"/><path d="M17,19.38c3.79,1.24,9.8,5.08,10.75,7.01"/><path d="M14.75,53.86c1.5,0.26,3.12,0.27,4-0.26c1.62-0.98,6.55-3.7,8.5-5.11c2.25-1.62,3.81-0.41,2.5,2.15c-7.62,14.85-8,11.1-1,18.06c1.15,1.15,1.75,2.54-0.25,4.11c-1.51,1.19-8.62,7.06-11.25,8.93"/><path d="M14.25,83.5c3-0.5,9-1.75,13.5-0.75s30.07,6.71,34.5,8c12,3.5,21.25,3.5,30.25,1.75"/></svg>