<svg><path d="M41.11,35c2.14,0.5,4.51,0.46,6.79,0.09C57,33.62,70.75,32,80.14,31.14c1.48-0.14,3.78-0.27,5.22,0.15"/><path d="M61.87,13.5c1,1,1.8,2.5,1.8,3.88c0,0.78,0.09,34.87,0.09,51.74c0,3.88-0.04,5.38-0.04,7.88"/><path d="M50.58,44.5c0.42,0.88,0.4,2.16,0.24,2.9c-1.94,9.1-6.07,17.85-12.32,25.39"/><path d="M75.37,46.08C79.25,51,84.5,62.75,85.95,70.22"/><path d="M75.44,14.33c4.06,2.29,8.19,6.17,10.12,9.13"/><path d="M18.71,18c3.92,2.5,8.42,6.62,10.29,9.88"/><path d="M12.5,53.86c1.62,0.26,3.53,0.64,5,0.23c2.5-0.71,7.25-2.65,8.75-3.1s3.42,0.93,2.75,2.47c-5,11.41-6.62,7.16,0,14.08c1.07,1.11,0.9,2.6-0.5,3.85C24.12,75.25,19,78.88,16,81.5"/><path d="M12.75,83c3-0.5,8.9-1.08,13.5-0.75c6.88,0.5,30.07,6.71,34.5,8c12,3.5,19.12,4.25,28.75,4.5"/></svg>