<svg><path d="M37.45,21.15c1.05,0.47,4.7,0.51,5.74,0.47c13.82-0.55,27.58-3.05,44.07-3.32c1.74-0.03,3.37,0.22,4.24,0.45"/><path d="M39.57,36.46c0.72,0.79,1.64,3.35,1.77,4.4c0.98,7.56,1.72,24.73,3.09,39.05"/><path d="M41.48,38.52C52.91,37,78.38,34.84,86.18,34.6c3.23-0.1,4.68,2.69,4.28,6.4C89.5,50,88.76,64.74,85.7,78.14"/><path d="M57.29,22.93c0.41,1.03,0.77,3.3,0.69,4.73C57.27,40.53,58.25,55.25,47.6,62"/><path d="M69.21,21.74c0.64,0.98,1.19,2.15,1.19,3.66c0,13.28-0.31,22.79-0.31,26.81c0,5.16,0.72,6.65,5.6,6.65c4.12,0,6.84-1.04,7.07-1.35"/><path d="M44.53,77.02c9.21-0.49,30.21-1.52,41.41-1.73"/><path d="M16.71,13.75c4.16,1.52,10.75,6.26,11.79,8.63"/><path d="M12.96,33.25c4.34,1.57,11.21,6.45,12.29,8.88"/><path d="M10,55.88c2.25,0.9,3.75,0.45,4.75,0.23c1-0.23,8-3.17,9.5-3.62c1.5-0.45,3.75,1.13,2.75,2.49c-1,1.36-4,6.56-4.75,7.69s-0.5,3.17,1,4.75c1.5,1.58,2.75,3.39,3.5,4.75s0.75,2.49-0.75,3.62s-9,7.46-10.5,7.92"/><path d="M11.25,84.68c3-0.51,8.93-1.41,13.5-0.77c6,0.84,30.07,7.42,34.5,8.75c12,3.6,21.25,5.12,30.25,3.33"/></svg>