<svg><path d="M44.32,24.39c3.24,2.4,8.12,9.18,8.93,12.91"/><path d="M85.76,21.47c0.08,0.82,0.04,1.63-0.35,2.35c-1.66,3.06-4.79,7.33-8.84,11.48"/><path d="M40.35,47.23c2.15,0.39,4.7,0.36,6.9,0.03c10.19-1.5,27.19-3.32,36.64-4.23c2.47-0.24,5.03-0.35,7.47,0.27"/><path d="M64.77,11.96c0.88,0.88,1.34,2.29,1.34,3.69c0,5.22-0.08,55.47-0.08,60.6c0,4.36-0.06,7.48-0.1,8.54"/><path d="M62.27,46.71c0,0.91-0.35,1.92-1.19,3.47c-4.94,9.08-13.79,19.5-21.83,24.3"/><path d="M70.62,51.32c7.61,5.13,14.2,11.26,19.9,20.9"/><path d="M18.21,20.25c3.63,1.74,9.38,7.17,10.29,9.88"/><path d="M12.5,56.25c1.62,0.5,3.77,0.54,4.75,0.23c3.12-0.98,7.79-3.53,10-4.49c2-0.87,3.48,0.05,2.25,2.57c-6.5,13.31-7.88,7.56-0.25,17.01c1,1.24,1,2.82-0.5,3.99s-6.88,5.56-10.25,7.93"/><path d="M13.5,85.25c3-0.5,9.17-0.78,13.75-0.25c7.5,0.88,30.07,6.96,34.5,8.25c12,3.5,18.38,3.88,26,4.25"/></svg>