<svg><path d="M61.98,12.25c0.82,0.49,2.17,2.37,2.17,3.33c0,3.56-0.26,7.01-0.11,10.03"/><path d="M37.56,27.56c1.23,0.1,4.04,0.66,5.24,0.52c9.68-1.1,32.59-3.37,44.87-3.65c2.03-0.05,3.07,0.04,4.58,0.67"/><path d="M56.57,29.59c0.51,1.29,1.23,2.3,1.23,3.91c0,14.71-1.3,33.75-13.11,43.5"/><path d="M72.43,28.23c0.85,0.81,1.52,1.75,1.52,4.42c0,15.56-0.22,38.49-0.22,42.86c0,9.16-6.24,1.32-7.54,0.22"/><path d="M46.61,43.49c0.03,0.45,0.09,1.19-0.06,1.82C45.5,50,43,56,36.81,62.76"/><path d="M82.73,43.99c3.47,3.63,8.95,14.92,9.82,20.57"/><path d="M17.71,14c3.81,1.57,9.84,6.45,10.79,8.88"/><path d="M12.96,33.25c4.34,1.57,11.21,6.45,12.29,8.88"/><path d="M11,56.02c2.15,0.88,3.59,0.44,4.54,0.22c0.96-0.22,7.65-3.06,9.09-3.5c1.43-0.44,3.59,1.09,2.63,2.41c-0.96,1.31-3.83,6.35-4.54,7.44s-0.48,3.07,0.96,4.6c1.43,1.53,2.63,3.28,3.35,4.6c0.72,1.31,0.72,2.41-0.72,3.5c-1.43,1.1-8.61,7.22-10.04,7.66"/><path d="M11.75,84.59c3.08-0.47,9.23-1.66,13.85-0.71c4.61,0.95,30.84,7.33,35.38,8.55C73.28,95.75,82.77,96.7,92,95.04"/></svg>