<svg><path d="M77.93,12.89c0.08,0.32,0.17,0.84-0.16,1.3c-1.99,2.74-13.39,8.76-29,12.45"/><path d="M45.86,24.96c0.41,0.5,0.83,1.17,0.83,2c0,28.74-2.72,41.83-10.43,49.17"/><path d="M50.46,38.52c1.09,0.41,3.09,0.42,4.19,0.41c9.53-0.12,23.29-1.8,35.28-2.62c1.82-0.12,2.91,0.2,3.82,0.4"/><path d="M52.36,55.04c0.38,0.46,0.84,1.79,0.93,2.39c0.91,6.52,3.05,15.61,3.94,23.78"/><path d="M53.38,57.61C61,56.5,80.99,54.7,85.75,54.05c1.74-0.23,2.78,2.37,2.53,3.76c-1.03,5.72-2.21,12.66-4.41,20.91"/><path d="M57.6,79.94c5.58-0.27,21.33-1.46,28.41-1.73"/><path d="M16.71,18c4.87,1.66,12.58,6.81,13.79,9.38"/><path d="M12.46,37c4.69,1.44,12.12,5.9,13.29,8.13"/><path d="M11,58.11c2.25,0.9,3.75,0.45,4.75,0.22c1-0.22,9-3.14,10.5-3.59c1.5-0.45,3.75,1.12,2.75,2.47s-3.5,6-4.25,7.13c-0.75,1.12-0.82,3.53,1,4.71c2.25,1.45,2.75,2.36,3.5,3.71C30,74.1,30,75.23,28.5,76.35c-1.5,1.12-10.5,8.9-12,9.35"/><path d="M12.75,86.94c2.89-0.41,8.58-0.72,12.98-0.61c7.27,0.18,28.92,5.79,33.18,6.84C70.45,96.02,79.34,97.33,88,95.9"/></svg>