<svg><path d="M46.39,15.81c3.2,2.12,7.61,7.07,9.07,11.99"/><path d="M78.53,13.29c0.06,0.85-0.13,1.76-0.48,2.53c-1.75,3.89-4.84,8.5-9.94,14.25"/><path d="M40.75,35.39c2.75,0.49,4.9,0.32,7.14-0.06c9.36-1.58,26.25-3.84,34.63-4.84c2.13-0.25,4.4-0.49,6.48,0.02"/><path d="M47.05,46.58c0.75,0.75,0.98,2.19,0.75,3.63c-0.67,4.16-1.21,9.87-1.39,11.85c-0.14,1.54,0.24,2.63,1.79,2.25c10.56-2.57,22.56-4.82,33.29-5.47"/><path d="M82.85,39.91c0.81,0.81,1.03,1.84,1,2.86c-0.08,2.35-0.55,9.08-1,14.73c-0.17,2.12-0.33,4.09-0.47,5.62"/><path d="M64.53,35.62C65.39,36.48,66,38,66,39.38c0,27.37-1.75,34.75-10.52,44.21"/><path d="M16.5,20.62c4.45,1.82,9.88,5.5,12,9.16"/><path d="M11.25,54.97c2.25,0.93,4.25,0.72,5.25,0.48c1-0.23,9.25-4.51,10.75-4.98c1.5-0.47,3.08,0.56,2.25,2.06c-7.25,13.22-7.88,9.09,0.75,17.46c1.14,1.11,0.75,2.56-0.75,3.73C28,74.89,20,80.25,17,81.88"/><path d="M13,83.13c3-0.39,8.95-0.96,13.5-0.58c7,0.58,28,5.21,34.5,7c11.86,3.28,20.5,4.2,29,4.14"/></svg>