<svg><path d="M64.49,10.2c0.12,0.33,1.67,1.73,1.67,3.85c0,7.23,0.09,17.61,0.09,21.06"/><path d="M53.18,17.14c0.06,0.44,0.12,1.12-0.12,1.75c-1.43,3.69-8.36,9.5-16.18,13.58"/><path d="M77.06,15.99c7.09,2.9,16.05,9.9,17.82,14.42"/><path d="M48.86,35.2c0.66,0.83,1.1,1.66,1.32,2.49c0.22,0.83,0.31,46.6,0.22,48.47"/><path d="M50.49,37.03c2.64-0.21,28.38-2.3,30.34-2.53c3.52-0.42,4.39,2.64,4.39,3.95c0,8.97-0.66,25.49-0.66,42.33c0,10.1-5.43,2.32-7.41,0.86"/><path d="M50.49,50.98c10.01-1.04,21.76-1.29,34.63-2"/><path d="M50.83,64.2c7.67-0.25,24.42-1.25,33.41-1.5"/><path d="M18.21,15.2c4.52,1.74,11.66,7.17,12.79,9.88"/><path d="M13.71,36.2c4.6,1.52,11.89,6.26,13.04,8.63"/><path d="M12,60.14c2.25,0.85,3.75,0.43,4.75,0.21c1-0.21,8-2.99,9.5-3.42C27.75,56.51,30,58,29,59.28s-4,6.19-4.75,7.26c-0.75,1.07-0.5,2.99,1,4.48s2.75,3.2,3.5,4.48c0.75,1.28,0.75,2.35-0.75,3.42c-1.5,1.07-9,7.04-10.5,7.47"/><path d="M11.25,88.59c4.75-0.89,14.46-1.27,19-0.39c6.5,1.25,25.13,5.8,29.61,6.8c12.15,2.72,21.52,3.5,30.64,2.14"/></svg>