<svg><path d="M51.5,17.82c8.45-1.47,16.9-2.84,21.77-3.41c2.48-0.29,4.73,1.34,4.39,3.72c-0.7,5.04-2,14.91-2.88,20.42c-0.27,1.71-0.52,3.03-0.71,3.72"/><path d="M51.65,29.88c6.72-0.88,18.76-2.4,23.81-2.82"/><path d="M51.59,42.87c8.28-1.37,13.83-1.83,21.66-2.65"/><path d="M48.54,16.69c1.33,1.06,1.89,2.94,1.89,4.98c0,3.84-0.01,47.81-0.01,50.48c0,4.23,2.11,4.47,4.58,2.1c3-2.88,6.88-6.12,10.19-8.81"/><path d="M83.12,42.62c0,1.01-0.32,2.25-1.27,3.19c-4.35,4.31-6.97,6.56-11.37,10.04"/><path d="M64.25,53c6,3.5,13.5,9.5,21.54,21.79"/><path d="M20,18.88c3.97,1.85,10.26,7.62,11.25,10.51"/><path d="M13.25,50.5C15.5,51.5,17,51,18,50.75s9.25-3.5,10.75-4s3.64,1.18,2.75,2.75c-8,14-8,10.25-0.25,19.25c1.09,1.27,0.75,2.75-0.75,4S21.5,81,20,81.5"/><path d="M15.5,83.5c3-0.5,8.91-1.16,13.5-0.75c8.5,0.75,30.03,7.88,34.5,9c12.5,3.12,15.75,3.62,24.75,4"/></svg>