<svg><path d="M54.79,21.21c0.94,0.94,1.14,2.16,1.14,3.65c0,17.88,3.2,40.52-10.96,51.89"/><path d="M39.67,33.37c3.21,1.59,8.29,6.55,9.09,9.03"/><path d="M38.32,60.51c1.09,0.54,2.19,0.47,3.02-0.14c1.15-0.85,7.17-6.14,11.68-10.23"/><path d="M69.7,17.37c0.9,0.9,0.97,1.87,1,3.19c0.15,5.89-0.02,39.87-0.02,43.88c0,8.07,1.82,9.66,10.88,9.66c8.45,0,10.26-1.84,10.26-7.32"/><path d="M84.84,25.85c0.08,0.64-0.08,1.21-0.5,1.72c-1.58,1.55-5.1,4.69-10.47,7.44"/><path d="M74.52,46.14C78.62,49,84,56.12,85.86,60.28"/><path d="M17.5,23.12c4.06,1.32,10.48,5.42,11.5,7.47"/><path d="M12,54c2.5,0.5,3.83,0.19,4.75-0.27c4-1.98,7.62-3.61,10.25-4.68c1.45-0.6,2.62,0.94,2,2.53c-5.5,14.17-5.75,8.42,2.25,17.74c1.02,1.19,1,2.28-0.5,3.43c-1.5,1.15-11.25,7-14,9.06"/><path d="M13.75,83.19c4.25-0.94,9.41-0.78,14-0.69c6.12,0.12,30.07,6.6,34.5,7.79c12,3.22,20,3.96,29.75,3.53"/></svg>