<svg><path d="M42,15.28c1.66,0.19,3.3,0.45,4.55,0.39c9.09-0.42,24.43-2.59,37.33-2.58c2.08,0,3.33,0.19,4.37,0.38"/><path d="M49.48,23.32c0.27,0.93,0.36,1.57-0.02,2.34c-2.21,4.59-3.11,7.4-7.46,12.29c-0.84,0.94-0.4,0.93,0,1.22c4.5,3.33,8.25,7.83,11.46,13.58"/><path d="M66.8,20.87c0.45,0.83,0.4,2.46-0.02,3.15c-2.23,3.7-3.5,7.18-7.69,11.5c-0.46,0.47-0.25,0.98,0.16,1.25c5,3.34,7.88,7.04,10.46,13.57"/><path d="M84.5,20.77c0.31,0.66,0.26,1.92-0.01,2.59C83.04,26.9,80.8,29.63,78.06,34c-0.3,0.48-0.18,0.94,0.11,1.2C82.57,39.2,85.25,44,87,48.34"/><path d="M45.31,59.26c0.97,0.38,4.13,0.48,5.11,0.39c6.71-0.64,24.81-2.27,32.47-2.66c1.49-0.08,2.85,0.08,4.09,0.39"/><path d="M63.86,58.81c1.65,1.48,1.65,2.36,1.65,3.54c0,8.27-0.05,0.8-0.05,14.98"/><path d="M39,78.61c0.78,0.26,3.55,0.46,4.87,0.41c12.88-0.52,31.75-1.79,44.66-2.18c2.12-0.06,4.66,0.43,5.72,0.83"/><path d="M16.71,13.75c4.16,1.52,10.75,6.26,11.79,8.63"/><path d="M12.71,33.75c4.43,1.48,11.44,6.08,12.54,8.38"/><path d="M10.5,55.94c2.25,0.85,3.75,0.43,4.75,0.21c1-0.21,8-2.99,9.5-3.42c1.5-0.43,3.75,1.07,2.75,2.35s-4,7.19-4.75,8.26c-0.75,1.07-0.5,2.99,1,4.48s2.75,2.2,3.5,3.48C28,72.59,28,73.66,26.5,74.73c-1.5,1.07-10,8.04-11.5,8.47"/><path d="M11.75,84.68c3.01-0.51,9.03-1.8,13.54-0.77c4.51,1.03,30.17,7.92,34.61,9.25c12.04,3.6,21.32,4.62,30.35,2.82"/></svg>