<svg><path d="M38.55,35.02c1.7,0.61,3.16,0.48,4.83,0.37c5.87-0.38,9.87-0.88,15.88-1.43c1.03-0.09,1.98-0.01,2.82,0.02"/><path d="M51.13,16.38c1.06,1.06,1.47,2.5,1.47,4.26c0,11.25-0.1,50.4-0.1,54.23c0,9.88-5.65,0.87-6.7-0.09"/><path d="M38.25,57.73c1.05,0.76,1.74,1.15,3.31,0.37c1.22-0.6,12.25-7.54,17.28-10.82"/><path d="M86.63,16.42c0.14,0.94-0.3,1.77-1,2.44c-2.88,2.76-6.23,5.56-14.25,9.63"/><path d="M67.49,28.68c1.04,1.04,1.14,2.32,1.12,3.77c-0.36,21.67-2.86,34.42-9.31,43.29"/><path d="M70.31,41.98c0.33,0.15,2.22-0.09,3.11-0.19c4.58-0.48,12.42-1.16,17.68-2.03c1.55-0.26,3.35-0.54,4.94-0.11"/><path d="M82.08,43.47c0.79,0.79,1.29,1.9,1.29,3.34c0,0.77,0.04,20.77-0.06,31.68c-0.03,2.67-0.03,4.96-0.05,6.12"/><path d="M20.12,18.88c3.93,1.85,10.14,7.62,11.12,10.51"/><path d="M13,50.5c2.25,1,4.29,0.62,5.25,0.25c3.88-1.5,6.9-2.55,10-3.75c2.25-0.88,3.43,0.34,2.25,2.75c-6.88,14-6.5,9,0.5,19c0.96,1.37,1.25,2.75-0.25,4s-7.88,6.5-11.25,8.75"/><path d="M15.25,83.25c3-0.5,8.43-1.13,13-0.5c7.25,1,30.02,7.16,34.5,8.25c12.88,3.12,19.88,4.38,25.88,4.88"/></svg>