<svg><path d="M76.73,12c-0.11,0.93-0.77,1.54-1.18,1.88c-5.08,4.2-14.18,7.5-25.56,10.76"/><path d="M46.05,23.62c0.85,0.85,0.93,2,0.91,3.7c-0.33,24.55-0.04,32.6-8.04,46.13"/><path d="M51.06,33.88c1.69,0.24,3.49-0.02,5.08-0.22c7.98-1.03,17.98-2.41,27.49-4.22c1.85-0.35,3.61-0.51,5.46-0.03"/><path d="M50.48,44.9c1.65,0.35,3.69-0.02,5.14-0.18c6.53-0.72,20.78-2.31,28.75-3.5c1.94-0.29,3.59-0.66,5.52-0.16"/><path d="M54.67,54.82c1.07,1.07,1.21,2.18,1.21,3.96c0,2.64,0,8.08,0,12.35c0,2.34,0,4.25,0,4.99"/><path d="M56.86,56.19c2.47-0.21,22.17-2.54,27.77-3.02c2.85-0.24,3.8,0.95,3.82,3.7c0.04,6.53-0.04,8.99-0.54,15.01c-0.66,7.99-4.16,2.37-5.54,0.61"/><path d="M69.64,24.07c1.02,1.02,1.16,2.05,1.16,3.84c0,0.58,0.11,34.08,0.02,49.46c-0.02,3.6-0.04,6.17-0.06,7"/><path d="M20.46,19.62c3.81,1.63,9.84,6.72,10.79,9.26"/><path d="M13,50.5c2.25,1,3.75,0.5,4.75,0.25S27,47.5,28.5,47s3.33,1.15,2.5,2.75c-7.75,15-7.25,9.25,0.25,19.25c1.01,1.34,0.75,2.75-0.75,4s-7.25,6.12-11,9"/><path d="M15.25,83.25c3-0.5,8.92-1.06,13.5-0.5c9.25,1.12,30.07,7.21,34.5,8.5c12,3.5,17.5,4,27,4.5"/></svg>