<svg><path d="M41.08,17.85c2.3,0.4,4.77,0.27,6.67,0.01c7.19-1.01,19.91-3.23,28.88-3.89c2.28-0.17,4.61-0.39,6.85,0.22"/><path d="M60.89,18.62c-0.14,0.88-0.33,1.49-0.88,2.25c-3.25,4.53-9.15,10.56-20.92,16.25"/><path d="M56.71,29.56C69,41.5,73.59,55.25,66.7,72.73c-3.95,10.02-10.17,2.64-11.23,1.8"/><path d="M57.61,34.48c0.05,0.45,0.12,1.18-0.11,1.83c-1.33,3.86-8.93,11.83-19.34,17.02"/><path d="M63.06,43.91c0.06,0.55,0.21,1.45-0.13,2.22c-2.31,5.25-10.95,14.97-23.41,21.26"/><path d="M82.16,26.64c0.08,0.69-0.11,1.51-0.51,2.06c-3.03,4.17-4.9,6.55-13.71,12.35"/><path d="M69.75,44.88c8.12,5.25,14.88,12,19.34,21.13"/><path d="M17.75,17.75c4.15,1.44,10.71,5.9,11.75,8.13"/><path d="M11,50.39c2.45,0.91,4.08,0.45,5.16,0.23c1.09-0.23,9.2-2.67,10.83-3.12c1.63-0.45,3.16,1.27,2.24,2.74C21.25,63,21.25,60.25,28.71,65.7c1.28,0.93,1.57,2.24-0.06,3.37S21.25,75,16.48,78.5"/><path d="M11.5,80.5c3-0.5,9.23-1.33,13.75-1c6.88,0.5,30.07,7.46,34.5,8.75c12,3.5,21,5.25,30.25,6"/></svg>