<svg><path d="M51.46,16.26c1.4,0.54,3.48,0.41,4.93,0.3c4.88-0.4,12.73-1.4,16.87-1.84c1.78-0.19,3.74-0.43,5.51-0.02"/><path d="M40.38,29.5c2.63,0.96,5.71,0.62,8.4,0.35c11.53-1.15,24.42-3.02,34.98-3.92c2.78-0.24,5.37-0.45,8.12,0.15"/><path d="M52.21,41.01c1.43,0.56,3.58,0.66,5.05,0.51c5.11-0.52,13.21-1.89,16.98-2.36c1.42-0.18,3.36-0.54,4.77-0.21"/><path d="M51.71,53.35c1.59,0.62,3.53,0.49,5.18,0.24c5.18-0.79,12.52-1.7,16.75-2.1c1.91-0.18,3.76-0.65,5.7-0.2"/><path d="M49.38,65.85c1.22,0.8,1.26,1.02,1.69,2.63c0.78,2.94,1.4,7.3,2.06,11.29c0.23,1.4,0.47,2.75,0.72,3.98"/><path d="M51.77,66.93c9.23-1.43,18.87-2.59,26.37-3.48c2.85-0.34,5.35-0.39,4.36,3.17c-0.99,3.51-1.63,5.82-3.03,10.69"/><path d="M54.55,80.73c4.8-0.42,14-1.09,21.58-1.75c1.65-0.14,3.22-0.29,4.66-0.43"/><path d="M22.21,15.5c3.63,1.74,9.38,7.17,10.29,9.88"/><path d="M15.46,38c4.34,0.99,11.21,4.09,12.29,5.63"/><path d="M14,59.94c2.25,0.85,3.75,0.43,4.75,0.21c1-0.21,8.75-3.24,10.25-3.67c2.31-0.66,3.12,1.01,2,2.6c-7.04,9.93-7,6.54-0.25,16.23c0.85,1.22,0.9,2.47-0.5,3.67C27.88,81,23.12,84.25,19.5,86.2"/><path d="M15.25,87.07c2.96-0.24,8.88-0.85,13.33-0.37c4.44,0.49,29.69,3.76,34.06,4.39c11.85,1.71,20.98,2.19,29.86,1.34"/></svg>