<svg><path d="M60.66,13c0.07,0.78,0.13,1.86-0.4,2.88c-3.88,7.5-11.26,18.87-25.8,30.42"/><path d="M61.02,17.36c3.67,3.66,17.71,14.53,24.96,19.68c1.89,1.34,4.27,2.97,7.56,4.38"/><path d="M49.92,39.59c1,0.5,3,0.67,4.08,0.56c4.78-0.46,12.98-1.27,17.77-1.71c1.44-0.13,2.86-0.38,4.26,0.05"/><path d="M43.15,54.25c1.74,0.77,3.91,0.26,5.71,0.06c7.9-0.88,21.61-2.67,29.39-3.32c2.03-0.17,4.38-0.18,6.35,0.34"/><path d="M62.41,42.44c0.95,0.95,1.35,2.31,1.35,3.88c0,16.54,0.08,28.06,0.08,32.21c0,9.43-4.45,1.68-5.46,0.63"/><path d="M49.5,63.04c0.08,0.83,0.02,1.41-0.38,2.15c-1.68,3.1-6.9,9.62-12.05,13.93"/><path d="M74.62,63c4.26,2.32,11,9.54,12.06,13.14"/><path d="M18.46,23c3.81,1.61,9.84,6.63,10.79,9.13"/><path d="M12.25,56.45c2.12,0.92,3.8,0.76,4.72,0.48c2.28-0.68,8.32-2.64,9.7-3.18c2.2-0.87,3.1,0.79,2.34,2.28c-6.26,12.23-7.14,7.48-0.99,15.49c0.94,1.23,0.87,2.69-0.46,3.93c-2.2,2.05-5.82,6.43-8.89,9.55"/><path d="M14.75,85.72c2.98-0.37,8.89-0.63,13.41-0.31c10.09,0.72,20.96,2.97,34.28,6.24c11.85,2.92,20.31,3.97,28.81,3.81"/></svg>