<svg><path d="M42.26,16.34c2.02,1.05,3.83,1.18,6.02,0.82c4.89-0.81,17.88-2.68,24.07-3.87c5.4-1.04,5.65,0.21,2.48,3.24c-1.27,1.22-10.89,9.19-12.62,10.4"/><path d="M53.25,24.5c2.46,0.84,8.84,4.06,10,6.25"/><path d="M42.91,33.72c1,1,1.06,2.28,1.08,3.53c0.1,5.12,0.12,25.25,0.12,34.75c0,2.93,0,4.9,0,5.18"/><path d="M45.08,35.4c9.66-1.15,31.03-4.16,32.28-4.28c2.39-0.24,4.44,1.51,4.44,3.58c0,2.68-0.02,28.32-0.02,40.41c0,6.64-3.78,3.39-6.48,0.77"/><path d="M45.23,48.8c10.02-1.55,28.02-3.55,35.12-3.88"/><path d="M45.23,61.89c8.02-1.14,28.9-3.34,35.27-3.64"/><path d="M60.46,35.46c1.04,1.04,1.51,2.54,1.51,4.04c0,5.06,0,24.15-0.09,34c-0.02,2.63-0.05,4.53-0.08,5.22"/><path d="M15.21,18.75c3.81,1.32,9.84,5.44,10.79,7.5"/><path d="M10.75,52c2.25,1,3.75,0.5,4.75,0.25s6-3.5,8.75-5.25c2.2-1.4,4.55-0.71,1.75,4c-5.5,9.25-5.72,9.46,0.75,14.75c4.12,3.38,3.99,4.09,0.25,6.5c-3.88,2.5-8,5.25-12.5,8.5"/><path d="M10.75,83.91c4.5-1.66,9.53-1.34,14.17-1.19c8.83,0.28,30.46,6.62,34.94,7.81c12.15,3.23,21.52,4.15,30.64,2.54"/></svg>