<svg><path d="M56.13,11.85c0.04,0.43,0.22,1.15-0.08,1.71c-2.3,4.19-8.3,11.44-14.77,16.36"/><path d="M74.51,10.83c6.04,3.87,13.39,11.26,15.46,15.21"/><path d="M66.42,21.44c0.07,0.81,0.35,2.17-0.15,3.25c-4.25,9.12-13.89,22.23-26.75,31.14"/><path d="M65.48,27.26c8.27,8.24,17.77,17.99,26.06,24.14c1.53,1.13,3.38,1.78,4.86,2.13"/><path d="M49.53,55.96c0.36,0.43,0.72,0.8,0.88,1.34c1.24,4.3,3.23,15.67,4.07,23.4"/><path d="M51.21,57.76c9.29-1.01,22.2-1.48,28.19-2.34c2.04-0.29,3.29,1.97,2.98,3.25c-1.49,6.15-2.1,10.16-3.47,17.71"/><path d="M55.45,78.05c7.86-0.59,14.62-0.51,24.86-1.2"/><path d="M20.71,12.5c4.52,1.83,11.66,7.53,12.79,10.38"/><path d="M17.21,33c4.78,1.44,12.35,5.9,13.54,8.13"/><path d="M13.5,55.44c2.25,0.85,3.75,0.43,4.75,0.21c1-0.21,8-2.99,9.5-3.42c1.5-0.43,3.75,1.07,2.75,2.35s-4,6.19-4.75,7.26c-0.75,1.07-0.5,2.99,1,4.48s2.25,2.7,3,3.98c0.75,1.28,0.75,2.35-0.75,3.42c-1.5,1.07-10.25,6.52-13,8.47"/><path d="M11.75,83.81c2.98-0.57,12.22-1.46,16.75-0.56c6.25,1.25,26.55,8.51,30.94,9.99c11.92,4,21.11,5.14,30.06,3.14"/></svg>