<svg><path d="M48.45,21.46c1.68,0.41,3.03,0.48,4.63,0.32c9.04-0.9,16.29-1.78,27.19-2.76c2.96-0.27,3.79,1.19,3.45,3.42c-0.9,5.82-1.47,9.8-2.67,19.78"/><path d="M39.38,34.97c2.62,0.28,5.42,0.16,8.22-0.15c13.68-1.52,27.33-2.69,40.03-3.88c3.2-0.3,6.56-0.53,9.73-0.01"/><path d="M48.96,45.92c2.18,0.26,4.11,0.14,6.29-0.09c7.41-0.79,12.88-1.83,23.92-2.34c1.39-0.06,2.24-0.2,3.27-0.12"/><path d="M64.98,9.83c1.16,1.16,1.58,2.29,1.58,4.31c0,12.69,0.02,56.65,0.02,60.97c0,10.39-3.58,4.39-5.77,1.47"/><path d="M46.06,52.53c2.92,1.13,7.53,4.64,8.26,6.4"/><path d="M42.15,74.98c1.12,0.77,2.31,0.59,3.44-0.06c0.66-0.39,9.36-6.08,12.17-7.95"/><path d="M82.19,48.89c0.08,0.72-0.13,1.34-0.65,1.86c-2.29,2.25-5.04,4.38-10.32,7.41"/><path d="M75.81,64.33C81,66.5,86.62,72,89.73,77.27"/><path d="M21.83,15.5c3.24,1.57,8.36,6.45,9.17,8.88"/><path d="M12.75,50.75c2.25,1,3.75,0.5,4.75,0.25s9.02-2.69,10.5-3.25c2-0.75,2.9,0.77,1.75,2.75c-8.5,14.62-8.25,10-0.5,16.5c1.29,1.08,1.5,2.5,0,3.75s-8.38,6.88-13,10.25"/><path d="M12.5,83.55c3.62-0.93,10.56-1.05,15.17-0.62c6.08,0.57,29.71,5.87,34.19,6.94c12.15,2.89,17.89,4.13,27.89,3.77"/></svg>