<svg><path d="M44.79,24.29c1.96,0.59,3.74,0.31,5.47,0.16c8.42-0.77,23.24-2.57,31-2.96c1.79-0.09,3.44-0.29,5.21,0.16"/><path d="M44.3,34.99c0.79,0.79,1.4,1.52,1.6,2.45c0.93,4.19,2.76,13.02,4.06,20.8c0.23,1.4,0.45,2.76,0.64,4.06"/><path d="M46.56,35.94c10.77-1.22,28.9-3.5,36.82-3.93c3.68-0.2,5.22,0.53,4.71,4.37c-0.58,4.41-1.92,12.26-3.57,19.06c-0.31,1.26-0.62,2.49-0.95,3.65"/><path d="M49.4,47.67c9.85-0.92,23.48-2.8,36.2-3.51"/><path d="M51.4,59.64c8.69-0.94,20.1-2.14,31.42-2.74"/><path d="M41.75,71.47c2.32,0.62,4.8,0.45,7.14,0.21c11.18-1.12,26.08-2.74,38.61-3.32c2.41-0.11,4.75-0.12,7,0.34"/><path d="M64.41,10.38c1.29,1.29,2.03,3.12,2.03,4.79c0,0.94-0.06,45.9-0.15,64.45c-0.02,3.55-0.04,6.14-0.06,7.26"/><path d="M20.38,19c3.84,1.83,9.92,7.53,10.88,10.38"/><path d="M13,50.75c2.25,0.62,4.16,0.22,6.3-0.48c2.8-0.92,8.29-2.82,9.45-3.27c2.25-0.88,3.4,0.45,2.25,2.75c-7.38,14.75-7.62,8.75,0.25,19c1.02,1.33,0.68,2.67-0.75,4C28.62,74.5,23.12,79,20.25,81.5"/><path d="M15.5,83.5c3-0.5,9-1.75,13.5-0.75s30.32,7.71,34.75,9c12,3.5,19.12,4.5,28,4"/></svg>