<svg><path d="M56.37,10.9c0.11,1.05,0.04,2.21-0.47,3.16c-2.65,5.06-7.53,12.31-18.02,19.56"/><path d="M55.36,21.01c1.14-0.01,2.82-0.13,3.97-0.33c4.35-0.77,10.54-2.55,12.21-3.04c2.21-0.64,2.96,0.73,1.57,2.33c-3.28,3.79-6.68,7.96-11.91,14"/><path d="M42.97,36.16c0.75,0.75,1.23,1.56,1.52,2.82c0.87,3.69,1.34,5.95,2.01,10.53c0.21,1.41,0.7,3.1,0.9,4.68"/><path d="M45.15,37.3c8.62-1.53,26.49-3.45,33.61-4.28c3.28-0.38,5.32,0.87,4.54,4.4c-0.68,3.06-1.38,5.16-2.37,7.89c-0.42,1.16-0.89,2.39-1.44,3.78"/><path d="M61.18,36.13c0.78,0.78,1.19,1.86,1.19,2.95c0,4.13,0,7.95,0,9.69"/><path d="M47.67,51.62c6.08-1,25.83-3.5,31.3-4.04"/><path d="M55.84,56.9c0.1,1.07-0.04,2.02-0.38,3.04c-1.62,4.88-7.06,14.7-16.72,19.19"/><path d="M66.81,52.41c0.82,0.82,1.18,1.84,1.18,3.09c0,6.17-0.11,12.66-0.11,16.86c0,6.77,1.61,8.43,11.67,8.43c11.19,0,12.49-1.41,12.49-6.62"/><path d="M20.96,18.75c3.63,1.88,9.38,7.71,10.29,10.63"/><path d="M13,50.5c1.62,0.88,3.78,0.61,4.75,0.25c2.38-0.88,9.5-3.5,11-4s3.09,0.91,2.25,2.5c-7.25,13.75-7.75,10,0.25,19.25c1.1,1.27,0.75,2.75-0.75,4s-4.75,4.5-9.25,8.25"/><path d="M15.25,82.64c2.99-0.45,9.47-1.58,13.96-0.68c4.49,0.9,29.93,7.16,34.39,8.13c12.78,2.78,17.9,3.4,27.15,3.23"/></svg>