<svg><path d="M45.79,23.39c1.12,0.38,3.16,0.49,4.28,0.38c6.09-0.59,23.98-2.72,30.84-2.67c1.86,0.01,2.97,0.18,3.9,0.38"/><path d="M63.2,11.37c0.1,0.22,1.52,1.16,1.52,2.59c0,8.8-0.31,15.8-0.31,21.99"/><path d="M39.22,37.39c1.31,0.41,3.71,0.57,5.01,0.41C55.84,36.43,78.06,35.3,88,34.28c2.16-0.22,3.48,0.2,4.57,0.4"/><path d="M53.99,39.9c0.07,0.43-0.05,1.07-0.15,1.73C53,47.25,49,53.25,41.25,56.2"/><path d="M71.01,36.84c0.82,0.8,1.51,1.74,1.51,2.97c0,1.65-0.23,4.76-0.24,5.94c-0.04,4,1.46,4.55,8.13,4.55c4.83,0,8.38,0,10.42-1.04"/><path d="M45.86,63.65c2.56,0,1.75,0.55,4.29,0.33c14.34-1.24,19.16-1.99,30.3-2.2c2.54-0.05,3.18-0.27,4.78,0"/><path d="M62.79,49.41c1.31,0.53,2.36,2.37,2.36,3.47c0,6.87-0.16,14.37-0.16,24.75"/><path d="M39.5,78.63c1.5,0.53,3.81,0.9,5.75,0.78c10.5-0.62,27-2.56,41.1-2.97c1.81-0.05,4.4,0.09,6.83,0.53"/><path d="M16.71,13.75c4.16,1.52,10.75,6.26,11.79,8.63"/><path d="M13.46,33.5c4.16,1.52,10.75,6.26,11.79,8.63"/><path d="M11,55.94c2.25,0.85,3.75,0.43,4.75,0.21c1-0.21,8-2.99,9.5-3.42c1.5-0.43,3.75,1.07,2.75,2.35s-4.5,7.19-5.25,8.26c-0.75,1.07-0.5,2.99,1,4.48s2.75,2.7,3.5,3.98C28,73.09,28,74.16,26.5,75.23c-1.5,1.07-9.5,7.54-11,7.97"/><path d="M11.75,84.63c3.07-0.5,12.12-0.72,16.8-0.24c5.95,0.61,27.75,7.12,32.27,8.4c12.27,3.46,21.73,4.45,30.93,2.72"/></svg>