<svg><path d="M47.26,17.04c1,0.33,2.84,0.42,3.85,0.33c6.39-0.57,19.64-2.62,27.38-3.48c1.66-0.19,2.68,0.16,3.51,0.32"/><path d="M47.23,28.41c0.36,0.27,0.72,0.49,0.88,0.83c1.24,2.65,2.72,9.97,3.56,14.73"/><path d="M49.45,30.26c8.74-1.11,25.36-3.5,29.86-3.88c1.65-0.14,2.64,1.38,2.4,2.19c-0.98,3.34-2.09,6.22-4.18,11.03"/><path d="M52.03,42.22c5.29-0.42,22.04-2.28,28.75-2.71"/><path d="M44.11,53.56c0.3,0.51,0.87,1.84,0.97,2.48c0.92,6.46,2.53,16.15,3.31,25.71"/><path d="M45.52,55.06c13.82-1.68,31.74-3.12,39.62-3.63c2.9-0.19,4.37,1.32,4.22,2.71c-0.58,5.1-2.11,14.61-4.72,25.79"/><path d="M64.33,53.62c1.13,0.4,2.01,1.17,2,2.55c-0.01,6.38,0.19,19.75,0.19,21.82"/><path d="M47.91,66.65c3.44-0.25,36.23-3.05,39.08-3.05"/><path d="M48.94,80.54c12.43-1.02,22.92-1.66,35.79-2.59"/><path d="M22.71,16.5c3.63,1.74,9.38,7.17,10.29,9.88"/><path d="M15.96,39c4.34,0.99,11.21,4.09,12.29,5.63"/><path d="M14.5,60.94c2.25,0.85,3.75,0.43,4.75,0.21c1-0.21,8-2.99,9.5-3.42c1.5-0.43,3.75,1.07,2.75,2.35s-4,6.19-4.75,7.26c-0.75,1.07-0.5,2.99,1,4.48s2.75,3.2,3.5,4.48C32,77.59,32,78.66,30.5,79.73c-1.5,1.07-9,7.04-10.5,7.47"/><path d="M15.75,88.07c2.96-0.24,8.88-0.85,13.33-0.37c4.44,0.49,29.69,3.76,34.06,4.39C74.98,93.8,84.12,94.29,93,93.43"/></svg>