<svg><path d="M48.17,14.34c0.22,0.44,0.23,0.74,0.35,1.29c1,4.54,2.59,14.94,3.21,23.42"/><path d="M48.89,16.26c6.87-0.97,22.66-2.34,29.01-2.97c1.89-0.19,2.27,1.72,2.17,2.78c-0.35,3.89-2.62,15.63-3.48,22.14"/><path d="M50.82,27.03c3.94-0.34,25.48-1.83,27.48-1.93"/><path d="M52.27,37.38c7.01-0.44,15.57-1.35,22.61-1.55"/><path d="M56.79,40.45c0.05,0.4,0.22,1.07-0.09,1.62C54.34,46.22,47.5,53.75,40,57.6"/><path d="M56.25,48.34c0.76,0.42,1.82,0.56,3.04,0.28c1.22-0.28,22.11-2.5,25.14-2.84c1.87-0.21,3.18,1.11,2.86,4.05c-1.11,10.18-2.74,22.76-7.58,32.27c-1.87,3.68-4.52,2.97-6.51-1.2"/><path d="M63.47,53.82c0.23,0.23-0.03,1.44-0.19,1.88c-1.56,4.43-3.12,8.15-8.71,13.48"/><path d="M62.77,60c2.88,1.25,6.55,4.56,7.95,7.71"/><path d="M47.7,56.18c0.55,0.38,0.89,1.73,1,2.5c0.1,0.7-0.39,6.97-0.39,13.79c0,1.57,0.45,2.57,1.97,2.4c3.54-0.41,13.47-2.36,22.08-1.9c1.35,0.07,2.43,0.32,3.1,0.32"/><path d="M19.46,14.75c4.07,1.61,10.52,6.63,11.54,9.13"/><path d="M14.96,34.5c4.34,1.26,11.21,5.18,12.29,7.13"/><path d="M12,56.94c2.25,0.85,3.75,0.43,4.75,0.21c1-0.21,10.5-2.49,12-2.92c1.5-0.43,3.75,1.07,2.75,2.35s-5.5,6.69-6.25,7.76c-0.75,1.07-0.5,2.99,1,4.48s2.25,3.2,3,4.48C30,74.59,30,75.66,28.5,76.73c-1.5,1.07-9.5,6.54-11,6.97"/><path d="M12.25,84.52c3.04-0.45,9.11-1.56,13.67-0.67c4.56,0.89,30.46,6.88,34.94,8.03c12.15,3.12,21.52,4.02,30.64,2.45"/></svg>