<svg><path d="M45.97,15.68c1.58,0.57,4.15,0.42,5.79,0.28c7.28-0.6,19.39-2,26.25-2.58c1.88-0.16,3.76-0.39,5.62,0.01"/><path d="M46.26,28.31c1.49,0.44,2.71,0.6,4,0.47c8.74-0.9,22.43-2.46,29.75-3.53c2.35-0.34,5.67-0.36,4.91,3.23c-0.84,4-1.93,5.6-3.04,9.51"/><path d="M49.61,42.38c5.39-0.63,18.93-2.16,29.24-3.15c2.04-0.2,3.88-0.36,5.4-0.48"/><path d="M47.48,29.21c0.91,0.91,1.41,2.38,1.42,3.85c0.13,18.53-4.78,31.87-13.02,39.68"/><path d="M49.65,53.47c0.81,0.81,1.05,1.78,1.05,3.1c0,0.78-0.09,11.53-0.01,19.05c0.03,3.27-0.06,4.89-0.06,5.38"/><path d="M51.57,54.8c6.18-0.86,25.31-3.33,32.45-4.19c3.29-0.39,5.66,0.64,5.66,3.75c0,6.39-0.05,19.14-0.05,22.51c0,7.63-3.89,3.13-5.25,1.82"/><path d="M52,66.75c6.75-0.88,25.75-3.38,36.55-3.85"/><path d="M61.68,55.79c0.7,0.7,0.89,1.71,0.89,2.79c0,0.31,0.06,10.94-0.03,17.67c-0.04,2.52,0.01,3.44-0.04,4.12"/><path d="M73.5,54.23c0.76,0.76,1.14,1.64,1.14,2.54c0,0.22,0.07,11.11,0.09,17.72c0.01,2.77,0.01,4.79,0,4.98"/><path d="M16.71,21.5C20.69,22.98,27,27.58,28,29.88"/><path d="M12.75,50.39c2.25,0.91,3.78,0.56,4.75,0.23c2.5-0.87,8.62-3.49,10.75-4.37c1.45-0.6,3,1.38,2,2.74C20,62.88,19.62,57,30,66.2c1.16,1.03,1,2.74-0.5,3.88S18,78.5,13.5,81.75"/><path d="M10.25,82.96c4.12-0.83,8.7-0.67,14.41-0.22c9.72,0.76,26.89,5.9,36.81,8.65C74.5,95,78,95.5,89,96.53"/></svg>