<svg><path d="M61.96,11.88c0.55,0.43,1.72,2.72,1.83,3.58c0.11,0.86-0.07,11.05-0.18,16.43"/><path d="M63.81,21.35c3.29-0.25,16.45-1.62,18.2-1.62c1.75,0,2.63,0,3.95,0"/><path d="M49.53,31.23c0.51,0.86,1.25,2.49,1.25,3.67c0,1.18-0.03,26.85,0.13,35.52"/><path d="M51.62,33.17c2.87-0.26,24.23-2.07,26.84-2.35c2.18-0.23,3.34,0.68,3.34,1.78c0,2.69-0.64,36.28-0.64,37.17"/><path d="M50.83,44.76c5.36-0.55,25.66-2.04,30.26-2.22"/><path d="M51.07,56.86c8.09-0.97,21.48-1.95,30.06-2.42"/><path d="M51.2,68.1c8.09-0.8,22.55-1.37,29.93-1.66"/><path d="M58.55,74.19c0.36,0.8,0.05,1.72-0.67,2.35c-2.17,1.88-8.21,5.85-12.55,8.15"/><path d="M73.78,74.75c5.52,3,12.04,8.56,13.55,11.31"/><path d="M19.21,15c4.69,1.57,12.12,6.45,13.29,8.88"/><path d="M15.21,34.25c4.96,1.48,12.8,6.08,14.04,8.38"/><path d="M14.5,57.44c2.25,0.85,3.75,0.43,4.75,0.21c1-0.21,9-2.49,10.5-2.92c1.5-0.43,3.75,1.07,2.75,2.35s-5.5,6.69-6.25,7.76c-0.75,1.07-0.5,2.99,1,4.48s2.25,3.2,3,4.48C31,75.09,31,76.16,29.5,77.23c-1.5,1.07-9,5.54-10.5,5.97"/><path d="M13.75,85.15c4-1.4,11-2.15,16.63-1.26c6.55,1.04,27.36,8.27,31.83,9.57c12.12,3.53,21.45,4.54,30.54,2.77"/></svg>