<svg><path d="M46.52,12.03c0.98,0.98,1.67,2.22,1.67,3.82c0,3.55-0.07,7.4-0.07,10.44"/><path d="M33.25,28.91c1.88,0.23,2.82,0.46,4.77,0.1c4.86-0.89,12.05-2.34,16.36-3.07c1.73-0.29,3.37-0.44,5.12-0.44"/><path d="M47.27,39.88c3.1,0.8,4.98,1.87,8.83,2.24c1.65,0.16,3.05,2.3,2.64,4.38c-1.5,7.75-7.17,22.8-9.29,26.83c-2.21,4.17-4.46,1.55-6.09-1.7"/><path d="M46.35,31.12c0.47,0.51,0.92,1.89,0.72,3.01c-1.7,9.36-6.7,24.99-16.2,35.11"/><path d="M71.28,11.39c0.35,0.73,0.4,1.66,0.2,2.41c-1.6,5.95-4.48,13.32-10.17,20.66"/><path d="M71.25,23.66c0.75,0.09,2.15,0.32,2.89,0.19c5.34-0.92,10.36-2.09,14.58-2.7C89.83,20.99,90.75,21,92,21"/><path d="M68.21,37.29c1.17,0.21,2.84,0.28,3.81,0.11c4.48-0.78,10.36-2.15,14.86-3.58c1.72-0.54,2.33,0.88,1.21,2.16C86.12,38.25,82.25,42.5,77.74,47"/><path d="M76.74,47.45c6.63,8.05,8.13,19.3,3.34,30.16c-2.11,4.77-5.46-0.34-6.18-0.89"/><path d="M62.21,56.54c2.1,0.83,4.87,0.38,7.05,0.14c5.9-0.65,16.43-2.37,22.99-2.62c1.89-0.07,4.09-0.19,5.93,0.41"/><path d="M15.38,18.62c3.4,1.72,8.78,7.08,9.62,9.76"/><path d="M11,47c2.25,1,3.75,0.5,4.75,0.25S25,44,26.5,43.5s3.41,1.62,2.25,3c-11.88,14.12-11.5,11.38-3.75,18c1.82,1.56,1.5,3.5-0.5,5.25c-2.39,2.1-5.5,4.88-8.5,7.75"/><path d="M11.5,79c3-0.5,8.5-1.75,13-0.75s30.07,7.71,34.5,9c12,3.5,19.88,5.5,31.25,7"/></svg>