<svg><path d="M60.35,9.75c0.4,1.25,0.17,2.95-0.54,4.12C56.26,19.7,50,27,39.11,33.98"/><path d="M59.94,15.97c1.31,0.38,2.31,0.38,4.21,0.48c4.39,0.22,10.98-1.07,13.96-1.72c2.39-0.52,3.43,0.71,2.17,2.48c-5.53,7.71-21.03,26.29-42.01,33.2"/><path d="M56.22,24.29c0.94,0.46,4.72,3.22,6.6,5.98"/><path d="M46.26,33.38c1.34,0.86,5.35,4.54,6.46,6.49"/><path d="M59.45,40.96c0.03,0.34,0.07,0.88-0.06,1.38c-0.78,2.9-4.88,9.41-11.32,14.66"/><path d="M59.37,48.21c0.67,0.2,1.89,0.25,2.56,0.2c8.18-0.56,12.61-2.25,19.96-2.96c1.1-0.11,1.78,0.1,2.33,0.2"/><path d="M39.63,62.31c1.08,0.29,3.06,0.34,4.13,0.29c11.22-0.48,30.71-4.23,47.09-4.34c1.8-0.01,2.88,0.14,3.77,0.28"/><path d="M64.72,48.8c0.67,0.73,1.43,1.26,1.43,2.27c0,3.53-0.07,25.16-0.18,28.15"/><path d="M48.6,68.75c0.54,0.24,1.08,1.25,1.08,1.74c-0.05,3-0.68,4.97-1.5,10.16c-0.17,1.09-0.25,2.26,1.07,2c11.51-2.26,28.91-3.91,35.66-4.04"/><path d="M85.17,65.32c0.54,0.24,1.11,1.78,1.08,2.27c-0.24,3.91-0.49,8.87-0.95,14.98"/><path d="M16.71,16c4.16,1.44,10.75,5.9,11.79,8.13"/><path d="M13.96,39.75c4.34,0.99,11.21,4.09,12.29,5.63"/><path d="M12,62.19c2.25,0.85,3.75,0.43,4.75,0.21c1-0.21,8.5-2.99,10-3.42c1.5-0.43,3.75,0.57,2.75,1.85s-4.5,6.69-5.25,7.76c-0.75,1.07-0.5,2.99,1,4.48s3.25,2.7,4,3.98C30,78.34,30,79.41,28.5,80.48c-1.5,1.07-9,7.04-10.5,7.47"/><path d="M12.75,89.32c2.96-0.24,8.88-0.85,13.33-0.37c4.44,0.49,29.69,3.76,34.06,4.39c11.85,1.71,20.98,2.19,29.86,1.34"/></svg>