<svg><path d="M49.38,14.88c2.61,1.78,6.73,7.3,7.38,10.06"/><path d="M77.25,12.5c0.06,0.84-0.03,1.66-0.37,2.42c-1.38,3.08-3.38,6.7-6.63,10.2"/><path d="M42.06,32.6c1.75,0.45,4.97,0.38,6.7,0.2c9.99-1.05,25.86-2.93,36.82-3.2c2.91-0.07,4.8,0.15,6.12,0.44"/><path d="M64.26,33.62c0.25,0.1-0.23,1.75-0.39,2.04c-1.03,1.93-2.08,4.55-4.5,7.09"/><path d="M51.06,43.52c0.77,0.77,1.13,1.71,1.13,2.82c0,0.9-0.1,22.98-0.06,31.9c0.01,2.08,0.03,3.45,0.06,3.66"/><path d="M53.01,45.09c6.24-0.71,22.66-2.75,24.6-2.88c1.96-0.14,3.35,0.55,3.35,2.81c0,1.08-0.57,23.4-0.8,32.24c-0.05,2-0.09,3.28-0.12,3.43"/><path d="M52.9,55.9c6.1-0.4,20.85-2.15,26.64-2.34"/><path d="M53.11,67.65c6.85-0.47,19.47-1.75,26.13-1.75"/><path d="M53.36,79.25c5.14,0,18.66-1.07,25.31-1.07"/><path d="M19.75,20c3.38,1.75,8,6.12,9.5,8.75"/><path d="M13,51.53c2.25,0.86,3.75,0.43,4.75,0.22s9-3.47,10.5-3.9c2.96-0.85,4.22,0.21,2.44,3.03c-6.56,10.38-6.81,8.5-0.11,14.4c2.39,2.1,2.15,3.52-0.57,5.48C25.5,74,21.75,76.25,17.5,79.04"/><path d="M12.5,81.71c3.11-0.47,9.22-0.87,13.97-0.71c7.15,0.25,31.13,8.25,35.71,9.46C74.61,93.76,81.62,95.5,91,96.05"/></svg>