<svg><path d="M48.18,21.38c1.2,0.3,3.67,0.24,4.86,0.05c4.89-0.81,14.39-2.56,20.19-3.4c1.98-0.29,3.46-0.11,4.46,0.04"/><path d="M61.98,9.87c0.92,0.92,1.77,2.27,1.77,4.14c0,6.12,0.14,12.5,0.14,17.11"/><path d="M37.43,34.73c2.75,0.52,4.98,0.25,6.71,0.04C58.57,33,68.7,31.12,84.43,29.79c2.9-0.25,4.92,0.01,6.38,0.28"/><path d="M52.7,36.6c1.68,1.27,4.35,5.4,4.77,7.52"/><path d="M75,32.85c0.31,0.52,0.33,1.58,0.22,1.89c-0.79,2.26-1.79,4.63-4.39,8.53"/><path d="M45.39,48.03c1.17,0.21,3.3,0.28,4.47,0.12c8.33-1.15,20.7-3.52,28.28-3.84c1.94-0.08,3.11,0.03,4.08,0.13"/><path d="M46.56,59.82c1.4,0.28,3.99,0.38,5.38,0.16c9.52-1.48,13.4-2.73,23.03-3.76c2.32-0.25,3.75-0.21,4.92-0.08"/><path d="M39.79,71.77c1.54,0.3,4.36,0.34,5.9,0.15c12.25-1.54,27.25-3.92,39.63-4.86c2.55-0.19,4.1,0.03,5.38,0.16"/><path d="M63.47,49.05c1.02,1.02,1.3,2.47,1.3,3.51c0,3.62,0.05,18.16,0.07,27.2c0,1.75,0.01,3.29,0.01,4.5"/><path d="M15.43,20.12c4.1,1.63,10.6,6.72,11.62,9.26"/><path d="M12.06,57.42c2.25,0.91,3.75,0.46,4.75,0.23s8-4.48,9.33-5.31c1.33-0.83,3.37,0.25,2.17,2.33c-7.75,13.33-7.62,8.21,0.25,15.58c1.64,1.53,1.08,3.25-0.75,5.26c-1.27,1.39-6,5.49-9.5,7.99"/><path d="M14.56,85c3-0.5,8.33-0.8,13.75-0.5c6.88,0.38,29.98,5.08,34.5,6c13.5,2.75,18.38,3.75,27.75,4.25"/></svg>