<svg><path d="M79.39,13.14c-0.33,1.37-1.47,2.24-2.58,2.94c-4.4,2.78-14.93,7-28.5,9.77"/><path d="M47.5,33c2.08,1.71,5.36,7.02,5.88,9.67"/><path d="M61.68,28.47c2.02,1.58,5.23,6.51,5.73,8.98"/><path d="M86.45,24.79c0.08,0.77-0.03,1.51-0.34,2.21c-1.61,3.13-4.92,7.52-9.98,12.26"/><path d="M45.2,49.59c2.02,0.75,5.27,0.7,7.32,0.41c9.11-1.26,19.72-2.59,27.37-3.54c1.89-0.23,4.09-0.55,5.98-0.13"/><path d="M40.07,62.33c2.51,0.77,5.65,0.32,8.2,0.02c11.35-1.31,23.85-2.22,38.11-3.46c2.71-0.24,5.62-0.29,8.3,0.21"/><path d="M65.3,50.58c0.87,0.87,1.08,1.77,1.08,3.55c0,3.97,0.18,21.38,0.08,24.73"/><path d="M48.7,69.84c0.67,0.67,0.92,1.53,0.75,2.45c-0.56,2.92-1.26,4.65-2.1,8.14c-0.47,1.97,0.27,2.38,2.04,2.03c7.81-1.52,21.48-3.34,34.83-4.01"/><path d="M84.98,65.78c0.75,0.75,0.77,1.6,0.75,2.8c-0.05,3.65-0.63,11.95-0.63,13.56"/><path d="M18.25,26.12c3.35,1.68,8.66,6.9,9.5,9.51"/><path d="M14.25,56.25c2.25,1,3.75,0.5,4.75,0.25s7.5-2.25,9-2.75c2.7-0.9,4.12,0.25,2.75,2.75c-7.25,13.25-8.5,8.75,0.5,16.75c1.25,1.11,1.45,2.44,0,3.75C27.5,80.38,22,85.75,18.5,88.75"/><path d="M13.5,89.73c3.75-0.98,8.8-0.53,13.24-0.4c6.01,0.17,25.26,3.05,33.84,4.59c11.73,2.1,20.84,2.42,29.67,1.48"/></svg>