<svg><path d="M37.85,15.26c2.79,2.21,7.21,9.08,7.91,12.52"/><path d="M60.11,12.64c0.02,0.38,0.04,0.98-0.04,1.53c-0.5,3.22-3.37,10.29-7.3,14.62"/><path d="M34.25,32.89c0.65,0.21,1.85,0.23,2.5,0.21c5.32-0.15,22.46-3,26.49-2.75c1.08,0.07,1.74,0.1,2.28,0.21"/><path d="M38.91,43.15c0.55,0.39,1.16,2.04,1.09,2.82c-0.42,4.66-2.1,7.07-2.22,11.53c-0.05,1.79-0.27,2.68,1.08,2.39c5.55-1.2,13.64-2.65,23.13-2.78"/><path d="M62.62,39.96c0.55,0.39,1.13,2.9,1.09,3.69c-0.23,5.53-1.21,9.6-2.4,15.88"/><path d="M50.14,34.02c0.34,1.23,0.83,2.2,0.83,3.73c0,14.04,0.73,30.33-10.22,41.5"/><path d="M70.68,16.58c0.7,0.84,1.16,1.67,1.39,2.51c0.23,0.84,0.23,20.87,0.23,22.75c0,15.43-3.48,30.74-10.45,38.08"/><path d="M72.22,18.53C78,17,86.3,15.65,87.91,15.42c2.89-0.4,3.97,2.61,3.61,3.81c-0.35,1.16-0.54,40-0.54,56.24c0,12.13-4.75,5.04-6.56,3.24"/><path d="M74,35.98c4.34-0.43,11.38-1.52,16.62-2.17"/><path d="M72.18,53.83c5.78-0.65,11.9-1.3,18.58-1.74"/><path d="M16.21,13.5c3.63,1.74,9.38,7.17,10.29,9.88"/><path d="M10.96,30.5c4.34,0.99,11.21,4.09,12.29,5.63"/><path d="M9.5,52.44c2.25,0.85,3.75,0.43,4.75,0.21c1-0.21,8-2.99,9.5-3.42c1.5-0.43,3.75,1.07,2.75,2.35s-4,6.19-4.75,7.26c-0.75,1.07-0.5,2.99,1,4.48s2.75,3.2,3.5,4.48C27,69.09,27,70.16,25.5,71.23c-1.5,1.07-9,7.04-10.5,7.47"/><path d="M11.75,79.63c3.18-0.56,9.55-1.95,14.32-0.84c4.77,1.12,31.9,8.6,36.59,10.04c12.73,3.9,22.54,5.02,32.09,3.07"/></svg>