<svg><path d="M64.52,9.08c0.98,0.85,1.76,1.85,1.76,4.67c0,5.48-0.02,5.68-0.02,10.29"/><path d="M66.6,16.16c7.51-0.69,10.4-1.14,14.31-1.69c1.23-0.17,3.43-0.12,4.84,0.1"/><path d="M47.45,24.73c0.46,0.49,0.55,2.34,0.51,4.12c-0.45,19.4-3.45,38.9-11.2,51.07"/><path d="M48.24,27.23c1.51-0.23,2.58-0.11,4.07-0.34c12.66-1.98,27.78-3.19,33.88-3.42c9.56-0.36,2.49,5.51,0.11,7.28"/><path d="M52.5,36.5c0.81,0.14,2.3,0.17,3.1,0.14c8.12-0.33,12.72-2.3,21.81-3.13c1.33-0.12,2.16,0.06,2.83,0.13"/><path d="M64.75,29.37c0.58,0.24,0.32,0.87,0.52,1.2c0.19,0.32-0.11,5.25-0.11,6.45c0,3.43,1.69,5.16,11.08,5.16c6.81,0,9.83-0.88,12.51-1.36"/><path d="M52.2,49.89c0.9,0.15,2.56,0.17,3.47,0.15c10-0.25,16.27-1.65,27.56-2.09c1.49-0.06,2.41,0.07,3.17,0.14"/><path d="M68.81,52.53c0.05,0.27,0.22,0.78-0.1,1.09c-2.96,2.88-7.46,6.13-17.65,10.42"/><path d="M65.83,57.04C70.5,63.5,73,73.5,69.92,84.61c-0.89,3.2-4.17,0.39-5.34-0.97"/><path d="M66.62,61.47c0.05,0.3,0.11,0.77-0.1,1.2c-1.26,2.53-8.46,8.08-18.33,11.48"/><path d="M68.47,70c0.06,0.29,0.24,0.79-0.12,1.15c-2.68,2.7-9.75,7.73-21.12,10.98"/><path d="M85.41,54.39c0.03,0.23,0.07,0.59-0.06,0.91c-0.75,1.92-5.09,6.14-11.02,8.73"/><path d="M70.44,62.41c5,5.38,9.45,9.22,16.62,15.43c2.5,2.17,3.96,2.77,6.18,3.37"/><path d="M18.71,13.75c4.16,1.88,10.75,7.71,11.79,10.63"/><path d="M14.21,36.25c4.43,1.39,11.44,5.72,12.54,7.88"/><path d="M12.5,60.44c2.25,0.85,3.75,0.43,4.75,0.21c1-0.21,8-2.99,9.5-3.42c1.5-0.43,3.75,1.07,2.75,2.35s-3.5,7.69-4.25,8.76c-0.75,1.07-0.5,2.99,1,4.48s2.75,2.7,3.5,3.98c0.75,1.28,0.76,2.37-0.75,3.42c-4,2.77-7.5,6.02-11.5,7.97"/><path d="M11.75,89.22c2.99-0.31,9.44-1.29,13.96-0.97c7.04,0.5,29.48,4.3,33.89,5.1c11.96,2.18,20.65,3.14,30.15,2.71"/></svg>