<svg><path d="M44.86,19.21c0.59,0.59,1.08,1.25,1.32,2.28c0.49,2.14,0.79,4.44,1.4,7.71c0.24,1.31,0.25,1.94,0.51,3.39"/><path d="M47.18,20.37c8.94-0.87,25.52-2.92,31.5-3.15c2.33-0.09,3.81,0.78,2.85,3.57c-0.72,2.1-1.29,3.09-2.53,5.95"/><path d="M48.78,30.65c5.81-0.53,18.82-2.01,28.22-2.75c1.36-0.11,2.65-0.2,3.83-0.27"/><path d="M61.37,10.5c0.75,0.75,1.41,2,1.41,3.48c0,8.73,0.06,17.27,0.06,23.86"/><path d="M37.24,40.7c2.76,0.68,5.6,0.24,8.02,0c10.86-1.07,28.61-2.57,40.86-3.58c2.17-0.18,4.26-0.17,6.38,0.38"/><path d="M47.91,47.02c0.66,0.66,1.11,1.73,1.11,2.95c0,0.61,0.02,13.05,0.04,19.52c0,2.41,0.01,4.1,0.01,4.22"/><path d="M49.98,48.54c6.4-0.92,24.22-3.13,26.82-3.25c2.17-0.1,2.68,0.93,2.68,3.13c0,2.03-0.06,12.01-0.08,19.59c-0.01,2.08-0.01,3.99-0.01,5.5"/><path d="M50.19,55.85c5.19-0.61,23.43-2.35,28.25-2.72"/><path d="M50.17,63.42c8.33-0.92,19.33-2.17,28.18-2.85"/><path d="M50.25,71.85c9.5-0.97,17.87-1.85,27.84-2.6"/><path d="M57.17,74.6c0.08,0.77-0.11,1.53-0.75,2.12c-1.95,1.79-7.44,5.42-11.33,7.53"/><path d="M70.95,74.93c5.07,3,11.07,8.44,12.46,11.07"/><path d="M20.25,18.75c3.88,1.88,10.03,7.71,11,10.63"/><path d="M13.25,50.5c1.75,0.75,3.74,0.45,4.75,0.25c2.5-0.5,9.25-3.5,10.75-4s3.59,0.66,2.75,2.25c-8.25,15.62-7.62,8.75-0.25,20c0.92,1.4,1,2.75-0.5,4s-6.38,5.12-10,8"/><path d="M15.75,83c3.62-0.75,10.25-1.25,14.75-0.25S59.32,90.71,63.75,92c12,3.5,19.75,4.25,29,4.25"/></svg>