<svg><path d="M46.79,10.5c0.04,0.55,0.08,1.41-0.08,2.19c-0.91,4.62-6.13,14.76-13.27,20.97"/><path d="M44.92,18.96c1.47,0,9.32-1.06,12.05-1.91c1.59-0.5,2.42,0.97,1.47,2.34c-3.1,4.47-6.26,9.15-8.59,14.04"/><path d="M39.78,32.77c0.51,0.6,1.01,2.29,1.01,2.93c0.01,1.55-0.37,19.25-0.46,20.61C39.7,65.02,38.27,73.05,34,78.46"/><path d="M41.66,33.72c1.84-0.18,15.78-2.17,17.15-2.37c2.46-0.35,3.38,2.31,3.07,3.37c-0.29,1.02-0.46,26.83-0.46,41.19c0,10.31-4.24,3.37-5.92,1.88"/><path d="M50.52,33.44c0.04,0.2,0.5,1.06,0.54,2.35c0.17,6.21-0.11,20.75-0.11,22.87"/><path d="M40.92,46.62c7.68-1.15,15.58-1.62,20.36-1.85"/><path d="M40.42,59.46c5.11-0.24,13.33-1.08,20.79-1.43"/><path d="M68.08,17.03c0.85,0.26,2.42,0.23,3.16,0.14c6.06-0.73,17.76-3.39,21.12-3.66c2.19-0.17,2.79,1.8,2.67,3.03c-0.32,3.23-2.71,10.72-5.2,14.93c-3.33,5.62-3.88,1.58-5.09,0.16"/><path d="M77.67,19.13c0.03,0.34,0.05,0.88-0.07,1.37c-1.14,4.81-4.9,9.94-10.19,13.62"/><path d="M72.81,39.3c0.02,0.35,0.04,0.91-0.03,1.41c-0.41,2.98-2.75,9.98-5.96,13.98"/><path d="M73.09,46.74c0.44,0.21,2.36,0.25,2.81,0.21c5.44-0.57,10.3-1.45,15.3-1.63c0.74-0.03,2.29,0.1,2.66,0.2"/><path d="M67.09,60.5c0.85,0.29,2.41,0.4,3.25,0.29c9.07-1.11,16.98-1.74,24.6-2.02c1.41-0.05,2.26,0.14,2.97,0.29"/><path d="M80.33,36.11c0.36,0.24,1.12,1.83,1.19,2.32c0.07,0.49-0.05,43.77-0.12,46.82"/><path d="M19.71,15c3.63,1.74,9.38,7.17,10.29,9.88"/><path d="M13.46,35c4.34,1.7,11.21,6.99,12.29,9.63"/><path d="M11.5,57.44c2.25,0.85,3.75,0.43,4.75,0.21c1-0.21,8.5-3.49,10-3.92c1.5-0.43,3.75,1.07,2.75,2.35s-4.5,7.69-5.25,8.76c-0.75,1.07-0.5,2.99,1,4.48s2.25,2.7,3,3.98c0.75,1.28,0.75,2.35-0.75,3.42c-1.5,1.07-9,5.04-10.5,5.47"/><path d="M12.25,84.18c2.88-0.51,9-1.93,13.44-1.27c4.39,0.65,28.32,7.92,32.57,9.25c11.5,3.6,18.74,4.6,27.49,4.32"/></svg>