<svg><path d="M39.78,17.77c1.36,0.65,2.94,0.71,4.32,0.65c9.8-0.42,27.8-2.07,42.25-2.16c2.27-0.01,3.64,0.31,4.77,0.63"/><path d="M53.89,10.36c1.1,1.21,1.44,1.58,1.57,2.32c0.8,4.56,0.61,7.24,1.22,12.32"/><path d="M72.72,9.89c0.7,0.84,1.17,2.13,0.94,3.38c-0.61,3.32-1.41,6.24-2.19,9.48"/><path d="M46.6,29.78c0.24,0.37,0.24,0.62,0.37,1.08c1.06,3.79,1.97,13.54,2.59,20.59"/><path d="M47.72,30.66c8.41-0.76,25.48-2.62,31.76-3.28c2.31-0.24,3.33,1.65,3.14,4c-0.3,3.8-1.4,10.77-2.76,18.24"/><path d="M48.9,40.49c2.74-0.31,30.19-2.79,32.46-2.89"/><path d="M49.68,49.26c8.82-0.51,21.89-1.44,30.24-1.92"/><path d="M42.02,57.69c0.69,0.35,1.18,1.38,1.23,2.07c0.24,3.4,0.76,17.49,1,22.76"/><path d="M43.25,59.8c5.48-0.81,42.01-4.17,43.1-4.23c1.65-0.08,3,1.08,3.04,3.21c0.12,5.97-1.13,15.22-2.11,22.96c-0.71,5.66-4.24,1.7-6.28-1.34"/><path d="M63.87,31.36c0.36,0.62,0.92,1.22,0.92,2.35c-0.01,4.92,0.15,34.16,0.15,35.67"/><path d="M54.22,72.42c1.02,0.75,2.16,1.14,3.07,0.83c2.55-0.88,13.05-4.89,18.4-6.51"/><path d="M71.94,64.3c2.78,1.4,7.19,5.85,7.88,8.11"/><path d="M16.46,11.25C21.24,13.04,28.81,18.6,30,21.38"/><path d="M16.46,31.25c4.52,1.48,11.67,6.08,12.79,8.38"/><path d="M14.5,54.83c2.25,0.95,3.75,0.48,4.75,0.24c1-0.24,8.5-2.84,10-3.32c1.5-0.48,3.75,1.19,2.75,2.63c-1,1.43-4.36,5.21-6.75,7.62c-1.75,1.76-1.5,3.01,1,5.01c1.75,1.41,4.25,3.08,5,4.51C32,72.95,32,74.15,30.5,75.34c-1.5,1.2-9,8.38-10.5,8.86"/><path d="M15.25,85.55c2.86-0.46,8.49-1.07,12.85-0.68c7.15,0.64,28.63,7.03,32.85,8.21c11.42,3.19,16.05,3.68,25.3,4.51"/></svg>