<svg><path d="M10.09,27.22c0.94,0.47,4.05,0.69,5.02,0.61c8.7-0.71,21.26-3.08,32.4-3.33c1.18-0.03,3.77-0.19,5.52,0.22"/><path d="M15.6,40.63c0.45,0.29,1.15,1.07,1.15,2.75c0,1.95-0.58,14.63-0.83,18.06c-0.13,1.77-0.5,2.81,1.66,2.6c6.31-0.62,24.29-3.23,29.94-4.01"/><path d="M48.13,35.75c0.38,0.39,1.21,1.64,1.15,2.44c-0.27,3.72-1.4,18.07-1.87,24.55"/><path d="M30.87,11.51c0.85,0.46,1.36,2.07,1.53,2.99c0.15,0.83-0.1,63.22-0.1,71.37c0,2.16,1.04,2.07,2.02,1.36C37.77,84.77,47.5,78,52,74.25"/><path d="M64.67,16.56c0.85,0.09,2.36,0.7,3.45,0.49c4.71-0.91,15.42-2.44,17.9-3.35c3.05-1.12,6.11,1.12,4.75,3.73s-8.63,19.49-11,23.22"/><path d="M79.76,40.71C100.5,54,95.25,87.5,80.54,75.85"/><path d="M66.89,18.55c0.22,1.12,0,74.2-0.22,81.2"/></svg>