<svg><path d="M41.59,15.11c0.16,0.83-0.34,1.75-1.03,2.31c-3.93,3.21-9.71,6.97-21.62,12.88"/><path d="M16.5,29.45c1.09,1.09,1.32,2.32,1.32,4.29c0,1.97,0.03,36.19,0.03,39.26c0,3.07,0.5,3.41,3.15,1.75c5.38-3.38,12-7.62,15.22-9.73"/><path d="M18.87,46.59c0.53,0.15,1.51-0.11,2.03-0.21c6.67-1.25,18.59-3.62,26.1-5.02c1.79-0.33,3.45-0.75,5.25-0.45"/><path d="M34.25,26.07c0.84,0.84,1.14,1.8,1.25,3C37,46,42.72,68.16,54.18,78.27c4.23,3.73,2.79-2.68,2.79-4.98"/><path d="M19.09,90.2c1.66,0.67,3.59,0.27,5.29,0.07c5.41-0.64,14.99-1.85,20.61-2.09c1.69-0.07,3.44-0.12,5.09,0.28"/><path d="M63.67,22.67c1.21,0.33,2.31,0.54,3.4,0.44c4.81-0.48,13.06-2.35,18.35-3.94c3.03-0.91,4.67,1.7,3.42,4.08c-1.83,3.5-7.08,13.12-10.08,18"/><path d="M78.5,41.75c17.25,12.5,18.75,40.75,3.23,33.41"/><path d="M66.33,24c1.21,1.21,1.32,2.5,1.32,4.25c0,12.13,0.08,52.5,0.08,60.25c0,4.29-0.06,6.74-0.1,7.88"/></svg>