<svg><path d="M38.42,12.43c0.07,1.16,0.06,2.03-0.4,3.66C34.5,28.5,27.38,48.25,14.88,58.91"/><path d="M9.87,31.58c2.51,0.8,5.57,0.5,7.76,0.21c10.87-1.41,26.54-3.89,36.75-4.57c2.47-0.17,5.11-0.46,7.5,0.38"/><path d="M29.04,45.91c0.77,0.77,0.93,1.59,0.93,2.9c0,0.55-0.07,22.39-0.07,34.93c0,4.16-0.01,7.08-0.02,7.48"/><path d="M30.9,46.31c4.1-0.81,18.4-3.17,19.78-3.37c2.48-0.36,3.1,0.94,3.1,3.4c0,3.03,0.04,27.35,0.04,41.87c0,10.24-4.31,3.29-6.76,1.61"/><path d="M30.9,58.18c6.48-0.93,15.35-1.8,21.54-2.26"/><path d="M31.11,71.11c4.95-0.46,15.54-1.83,21.27-2.13"/><path d="M67.67,26.42c1.46,0.46,3.21,0.31,5.32,0.1c5.39-0.52,12.26-2.22,16.43-3.1c3.09-0.65,4.5,1.5,3.17,3.83c-1.33,2.33-8.25,15.17-10.58,18.5"/><path d="M82,45.75c17.38,12.88,16.88,37.5,2.48,30.53"/><path d="M68.83,27.5c1.02,1.02,1.31,2.2,1.31,3.51c0,12.19-0.01,50.99-0.01,58.37c0,3.25,0,5.85,0,7.5"/></svg>