<svg><path d="M19.97,19.8c1.41,0.32,3.01,0.62,4.72,0.5c10.44-0.75,18.43-2.05,25.95-2.55c2.42-0.16,3.99,1.5,3.23,4.68C52,30.25,51.25,34,49.72,42.3"/><path d="M13.83,34.04c2.43,0.27,4.46,0.12,6.93-0.12c9.49-0.92,22.37-2.8,32.38-3.67c2.51-0.22,5.06-0.32,7.54,0.17"/><path d="M17.74,46.47c1.77,0.36,3.45,0.34,5.24,0.17c8.23-0.79,16.1-2.2,25.57-3.04c1.49-0.13,2.42-0.25,3.54-0.06"/><path d="M33.77,22.48c0.55,0.57,0.86,2.23,0.8,2.79C32.62,41.75,27.5,61.12,11.6,75"/><path d="M26.15,61.23c0.37,0.41,1.03,2.44,1.09,2.99c0.63,5.41,1.35,10.77,2.07,16.92c0.14,1.18,0.27,2.38,0.39,3.58"/><path d="M27.44,61.89c8.9-1.57,15.92-2.79,20.58-3.45c2.11-0.3,4.75,0.25,4.18,3.16c-1.01,5.16-1.89,8.84-3.4,17.64"/><path d="M30.07,82.38c4.54-0.54,11.21-1.45,17.31-2.12c1.24-0.14,2.46-0.26,3.62-0.37"/><path d="M64.88,21.12c1.36,0.39,3.09,0.77,4.62,0.72c6.25-0.22,12.15-1.53,15.05-2.4c3.72-1.11,5.98,1.12,4.79,3.97c-2.84,6.84-5.09,11.34-8.59,20.45"/><path d="M80.75,43.86c16.87,10.64,14.62,45.51,0.07,33.08"/><path d="M66.62,22.25c0.69,0.69,1.21,1.73,1.21,2.75c0,4.49,0.02,44.73,0.03,63.88c0,2.69,0,4.95,0,6.62"/></svg>