<svg><path d="M34.85,12c1.14,1.13,1.3,2.38,1.3,4.06c0,1.19-0.13,4.31-0.13,6.24"/><path d="M15.3,25.17c2.2,0.33,4.26,0.22,6.59-0.06c6.94-0.81,19.37-2.39,27.6-3.07c2.16-0.18,4.62-0.65,6.71,0.13"/><path d="M22.59,33.18c0.74,0.74,1.27,1.39,1.36,2.21c0.57,2.02,1.06,5.09,1.68,8.03c0.24,1.14,0.45,2.26,0.61,3.29"/><path d="M24.87,34.26c5.98-0.86,16.05-2.55,21.11-3.24c2.64-0.36,4.45-0.1,3.72,3c-0.56,2.4-0.92,4.43-2.35,8.16"/><path d="M27.28,44.87c3.44-0.31,12.1-1.64,18.21-2.24c1.41-0.14,2.67-0.25,3.68-0.32"/><path d="M23.32,54.87c2.02,0.47,4.09,0.32,6.08-0.05c5.23-0.97,15.11-3.2,18.67-3.57c1.52-0.16,2.28,1.06,0.8,2.34c-2.49,2.16-6.59,6.65-11.92,11.18"/><path d="M35.12,63.91C39.5,67.75,45.62,79.62,40,91.6c-3.15,6.7-6.18,1.12-7.75,0.56"/><path d="M15.75,79.42c1,0.83,2.12,0.96,4.19,0.01C27.28,76.06,39.5,71,50.5,66"/><path d="M65.17,25.8c1.3,0.21,2.71,0.48,4.08,0.18c8-1.73,14.38-2.94,17.33-3.8c3.57-1.04,5.01,1.96,3.56,4.47c-2.02,3.48-7.64,11.86-10.86,16.43"/><path d="M79.28,43.07C96.75,53.62,92.62,88,81.01,73.73"/><path d="M66.37,26.5c1,1,1.46,2.12,1.46,3.5c0,0.72,0.02,45.38,0.03,62.25c0,3.31,0,5.57,0,6.25"/></svg>