<svg><path d="M37.21,10.48c0.06,0.58,0.2,1.52-0.12,2.32C34.75,18.75,26.75,27.25,16.4,35"/><path d="M41.08,16.83c6.21,3.22,13.78,9.37,15.91,12.67"/><path d="M39.6,30.75c0.08,0.83,0.38,2.22-0.16,3.33C34.95,43.43,24.76,56.87,11.17,66"/><path d="M40.21,37.33C48.17,42.35,55.17,48.58,59,55.17"/><path d="M21.09,64.91c0.39,0.47,0.78,0.86,0.95,1.45c1.34,4.65,2.95,17.49,3.86,25.84"/><path d="M22.4,66.36C32.75,65,43.83,64.14,50.3,63.21c2.21-0.32,3.56,2.13,3.22,3.52c-1.61,6.65-2.81,11.61-4.29,19.77"/><path d="M25.94,89.34C35,88.25,40.75,87.75,51.82,87"/><path d="M66.67,17.56c0.85,0.09,2.36,0.7,3.45,0.49c4.71-0.91,17.92-2.94,20.4-3.85c3.05-1.12,6.11,1.12,4.75,3.73s-9.13,17.49-11.5,21.22"/><path d="M82.76,40.21C101.5,55.75,96,92,82.54,75.85"/><path d="M69.39,18.55c0.02,0.12,0.04,1.08,0.06,2.7c0.12,13.42-0.08,72.25-0.28,78.5"/></svg>