<svg><path d="M25.47,18.62c0.28,1.01,0.31,2.33-0.42,3.79c-2.68,5.34-7.1,12.84-10.77,17.27c-0.62,0.75-0.39,2.35,0.28,2.61c3.53,1.34,5.69,2.58,10.13,5.54"/><path d="M34.03,31.4c0.35,1.1,0.1,2.23-0.46,3.18c-3.81,6.5-12.8,20.38-18.85,27.8c-0.81,1,0,2.76,1,2.46C22,63,25.62,61.88,31.79,60.2"/><path d="M33.52,50.25c0.35,1,0.52,2.33,0.42,3.63c-0.69,8.37-4.44,27.37-15.02,35.28"/><path d="M42.87,22.01c1.88,0.99,2.78,1.06,4.92,0.7c3.51-0.6,8.93-1.4,11.98-1.83c3.62-0.52,5.29-0.14,4.74,3.88c-0.71,5.3-1.32,11.97-2.16,18.51c-0.2,1.59-0.42,3.18-0.66,4.77"/><path d="M45.46,35.53c5.17-0.66,12.29-2.03,17.03-2.66"/><path d="M45.62,48.1c4.11-0.43,9.38-1.23,15.46-1.97"/><path d="M42.87,22.01c0.85,0.46,1.53,2.05,1.53,2.99c0,4,0.17,45.5,0.17,51.22c0,2.08,0.77,2.89,2.81,1.28c2.04-1.61,12.38-8.75,16.62-11.25"/><path d="M59.88,57.12C62.3,60.05,66.11,67.83,67.5,74"/><path d="M73.42,23.67c0.99,0.34,2.14,0.73,3.32,0.53c5.51-0.95,8.51-1.57,11.93-2.28c3.1-0.64,4.96,1.11,3.92,3.58c-1.58,3.75-5.83,12.75-8.83,18"/><path d="M83.75,43.5c13.62,8.62,14.5,37.25,1.92,29"/><path d="M74.62,24.5c0.88,0.88,1.21,1.73,1.21,2.75c0,8.25-0.12,37.75-0.12,61c0,3.08-0.07,5.29-0.1,6.25"/></svg>