<svg><path d="M20.68,27.91c1.04,0.36,3.12,0.38,4.18,0.25C30.25,27.5,37.25,26.88,43,26.3c1.41-0.14,3.62-0.34,5-0.05"/><path d="M34.63,11.67c1.04,1.04,1.45,2.37,1.54,4.05c0.41,8.04,0.22,21.42,0.22,24.16"/><path d="M10.25,43.27c2.55,0.38,4.97,0.14,7.51-0.08c9.37-0.82,26.46-2.77,35.48-3.53c2.39-0.2,4.57-0.43,6.89,0.33"/><path d="M55.13,17.1c0.11,1.16-0.12,2.78-0.98,4.15C43,39.12,31.12,54.88,13.42,68.52"/><path d="M28.12,56.89c0.31,0.76,0.62,1.89,0.62,2.9c0,0.78,0.13,16.5,0.07,24.7c-0.02,2.44-0.03,4.06-0.03,4.18"/><path d="M30.02,55.52c1.54-0.11,14.72-1.61,19.11-2.09c2.37-0.26,3.43,0.55,3.33,2.94c-0.14,3.26-0.22,16.07-0.24,26c0,1.87-0.01,3.63,0,5.21"/><path d="M29.83,69.75c4.3-0.5,17.17-2,21.06-2.22"/><path d="M29.97,84.6c4.85-0.55,15.12-1.5,21.16-1.97"/><path d="M66.52,22.39c1.35,0.48,2.84,0.61,4.12,0.44c5.23-0.7,11.6-2.33,14.94-3.11c3.26-0.76,5.42,0.53,3.92,4.53c-1,2.66-6.38,14.46-8.85,17.98"/><path d="M80.65,42.48c18.23,12.39,17.6,39.27,2.4,32.13"/><path d="M67.87,23.64c0.87,0.87,1.57,2.23,1.57,3.44c0,0.92,0.01,45.03,0.02,64.29c0,3.47,0,6.13,0,7.59"/></svg>