<svg><path d="M14.67,16.45c0.25,0.32,0.84,1.54,0.95,1.94c0.86,3.17,1.51,9.41,2.1,15.1"/><path d="M15.72,17.6c7.03-1.85,13.15-2.22,14.38-2.4c1.07-0.15,1.71,0.9,1.55,1.8c-0.63,3.7-1.37,8.17-2.31,13.29"/><path d="M17.39,32.23c3.43-0.47,9.2-0.78,13.91-1.51"/><path d="M37.96,15.56c0.29,0.32,0.59,0.59,0.71,0.99c1,3.17,1.97,9.33,2.66,15.03"/><path d="M39.16,16.68C43,16,49.03,15.15,52.42,14.74c1.24-0.15,1.99,0.9,1.81,1.8c-0.74,3.7-0.94,7.72-2.03,12.84"/><path d="M41.47,30.34c3.99-0.47,8.28-0.84,12.86-1.01"/><path d="M18.28,41.81c1.14,0.66,3.72,0.72,4.87,0.66c8.08-0.38,19.1-1.48,25.91-2.07c1.9-0.16,3.04,0.31,3.99,0.64"/><path d="M10.5,55.38c1.26,0.59,3.57,0.61,4.83,0.59c8.81-0.11,27.16-1.77,41.01-2.58c2.09-0.12,3.36,0.28,4.41,0.58"/><path d="M28.45,55.66c0.91,1.43,1.34,2.34,0.62,3.85c-0.57,1.21-3.75,6.34-4.12,6.93c-1.47,2.36-0.5,2.97,1.44,2.99c1.22,0.02,16.1-2.26,19.22-2.91c2.43-0.51,4.12,0.77,3.48,3.28c-1.84,7.2-7.34,19.95-13.12,25.31c-3.93,3.65-4.7-1.21-5.5-2.46"/><path d="M64.17,16.06c0.85,0.09,2.35,0.61,3.45,0.49c7.13-0.8,15.13-2.8,19.9-3.85c3.18-0.7,6.11,1.12,4.75,3.73s-9.63,18.99-12,22.72"/><path d="M80.26,39.71C99.75,51.5,95.75,94,81.54,75.35"/><path d="M67.39,17.05c0.22,1.12,0,74.2-0.22,81.2"/></svg>