<svg><path d="M17.59,16.35c0.47,0.34,0.95,0.62,1.15,1.05c1.62,3.38,3.06,11.7,4.17,17.77"/><path d="M19.5,18.14c9.56-1.76,22.2-2.71,27.68-3.16c2-0.16,3.2,0.96,2.92,1.92c-1.19,3.95-1.07,8.22-2.83,13.68"/><path d="M23.13,33.21c6.43-0.5,17.3-1.37,26.13-2.14"/><path d="M34.61,35.39c0.62,0.6,1.63,2.4,1.63,3.58c0,4.36-0.19,3.61-0.08,7.3"/><path d="M10.39,48.33c1.53,0.28,2.88,0.59,4.64,0.39c10.49-1.17,27.79-3.34,40.02-3.9c1.8-0.08,2.72,0.03,4.06,0.5"/><path d="M15.39,57.81c0.93,0.99,1.06,2.08,1.26,3.36c1.29,8.71,2.61,23.33,3.62,29.91"/><path d="M16.54,59.37c10.01-1.24,28.82-4.36,35.53-4.37c1.93,0,3.12,2.33,2.94,3.79c-0.83,6.94-2.44,20.92-4.11,30.32"/><path d="M27.52,67.48c0.27,0.2,0.58,0.32,0.66,0.62c0.94,3.54,1.36,7.14,2.16,10.82"/><path d="M29.19,68.28c5.47-1.31,9.41-1.84,12.54-2.25c1.15-0.15,1.83,0.51,1.67,1.1c-0.68,2.44-1.47,5.4-2.48,8.78"/><path d="M30.49,77.45c3.97-0.7,6.89-0.59,11.95-1.28"/><path d="M20.54,88.86c10.71-1.11,19.73-2.18,30.87-2.69"/><path d="M64.67,17.56c0.85,0.09,2.35,0.61,3.45,0.49c5.13-0.55,19.42-2.94,21.9-3.85c3.05-1.12,5.11,1.62,3.75,4.23s-11.13,19.99-13.5,23.72"/><path d="M80.26,42.21C99.25,56,94.25,91,81.54,77.35"/><path d="M67.39,18.55c0.02,0.13,0.04,1.18,0.06,2.95c0.11,13.87-0.08,73.04-0.28,79.25"/></svg>