<svg><path d="M21.59,17.03c2.24,1.4,5.61,5.35,6.17,7.52"/><path d="M54.59,13.5c0.02,0.27,0.05,0.69-0.05,1.08c-0.64,2.27-4.3,7.25-9.32,10.3"/><path d="M16.75,32.02c0.74,0.15,2.72,0.6,4.69,0.45c6.31-0.47,26.59-2.91,35.22-2.61c1.97,0.07,2.46-0.15,3.7,0"/><path d="M37.15,11.5c0.82,0.3,1.32,1.35,1.48,1.96c0.16,0.6,0.5,34.78,0.33,38.54"/><path d="M38.15,31.81c-3.7,6.06-12.7,14.57-21.02,18.07"/><path d="M39.27,31.21c3.73,2.58,16.61,12.3,20.67,14.84c1.37,0.86,2.55,1.23,3.93,1.48"/><path d="M24.28,53.56c0.13,0.33,0.39,1.29,0.25,1.94c-0.83,3.82-5.91,12.06-12.43,17.18"/><path d="M24.99,60.86c0.21,0.03,1.11,0,1.72-0.08c1.98-0.26,5.99-1.52,8.64-2.53c1.9-0.73,2.5,0.64,2,2.17c-2.72,8.36-14.59,26.84-27.09,33.12"/><path d="M18.32,70.19c1.9,1.56,4.91,6.43,5.38,8.86"/><path d="M41.17,63.27c0.72,0.2,2.04,0.24,2.75,0.2c4.83-0.22,13.6-1.88,18.54-1.8c1.2,0.02,1.92,0.1,2.51,0.2"/><path d="M42.355517,68.284266C42.717124,69.159123,42.652968,70.214783,42.355517,71.200454C41.982245,72.44275,41.270695,75.948008,40.81577,77.470258C40.244197,79.359947,40.413336,79.698225,42.279696,79.359947C48.339534,78.245963,59.117764,77.627732,61.893974,77.493587C63.60286,77.406101,65.305914,77.546078,66.997303,77.907686"/><path d="M52.68,50.75c0.83,0.39,1.33,1.76,1.5,2.54c0.17,0.78,0,41.59-0.17,46.46"/><path d="M70.67,20.67c0.83,0.08,2.32,0.62,3.4,0.44c4.63-0.81,15.67-2.62,18.1-3.44c3-1,5,2,3.67,4.33c-1.33,2.33-8,16.67-10.33,20"/><path d="M85.5,42.5C102.75,55,99,89.25,86.73,74.66"/><path d="M74.83,21.5c0.22,1,0,69.75-0.22,76"/></svg>