<svg><path d="M26,19.15c3.5,0.85,7.61,0.17,10.63-0.11c9.79-0.92,27.93-2.28,38.61-2.81c3.29-0.16,7.01-0.07,10.26,0.64"/><path d="M23.77,38.69c1.08,1.08,1.1,2.43,1.1,4.22c0,0.83-0.02,32.82-0.03,46.46c0,3.62,0,5.95,0,6.06"/><path d="M26.19,40.82c6.56-0.45,49.06-3.6,53.16-3.83c4.27-0.24,5.86,0.76,5.86,4.22c0,1.4-0.04,30.21-0.04,46.16c0,3,0,5.55,0,7.37"/><path d="M45.5,21c1.25,1.25,1.33,2.96,1.34,4.68C47,42.5,45.88,56.5,34,65.75"/><path d="M60,19.75c1,1,1.49,2.8,1.49,4.78c0,4.84-0.11,22.59-0.11,27.09c0,6.62,0.88,7.9,7.63,7.9c6.12,0,7.62-0.9,8.76-2.6"/><path d="M25.99,76.98c13.89-0.98,43.64-2.6,57.82-3.06"/><path d="M26.21,92.56c16.67-1.06,42.11-2.31,57.58-2.79"/></svg>