<svg><path d="M13.54,21.41c1.67,0.79,4.31,0.67,6.1,0.53c8.6-0.68,23.57-2.7,26.89-2.95c1.99-0.14,4.22-0.62,5.92-0.13"/><path d="M13.49,36.32c0.91,0.91,1.2,2.36,1.2,3.61c0,0.55-0.04,30.67-0.06,43.07c0,3.21-0.01,5.23-0.01,5.25"/><path d="M15.68,38.93c4.44-0.56,28.42-3.34,31.01-3.62c2.7-0.28,4.29,1.05,4.29,3.52c0,0.91,0,27.82,0,41.03c0,4,0,6.72,0,7.05"/><path d="M26,23.49c0.82,0.82,1.09,2.07,1.06,3.56C26.75,40.75,26,51.25,20.79,59.2"/><path d="M35.8,22.66c0.83,0.83,1.24,2.34,1.24,3.65c0,6.06,0.02,15.98-0.03,22.73c-0.04,5.86,0.99,6.32,5.42,6.32c3.81,0,5.06-0.24,6.18-0.86"/><path d="M15.69,68.88c5.81-0.5,23.81-2.25,33.97-2.58"/><path d="M15.51,85.31c10.49-1.06,24.05-2.22,33.88-2.62"/><path d="M72.79,16.25c0.21,1,0.03,2.01-0.28,3.1C70.75,25.5,64.62,39,56.68,49.28"/><path d="M67.02,38.35c1.85,0.27,3.77,0.07,5.75-0.37c4.03-0.89,14.24-3.29,16.86-3.48c2.99-0.21,5.4,1.18,4.77,5.66C92.62,52.88,89.12,76.88,80.75,90c-3.43,5.37-6,3.25-8.9-1.23"/><path d="M64.62,55.38c3.51,2.16,8.69,8.89,9.24,12.26"/></svg>