<svg><path d="M12.22,23.18c1.96,0.5,3.86,0.52,6.2,0.35c7.12-0.53,18.75-1.82,25.66-2.55c2.2-0.23,4.21-0.23,5.31,0.09"/><path d="M14.27,39.86c0.75,0.75,1.11,2.01,1.11,3.26c0,0.85-0.03,34.89-0.04,44.75c0,1.79,0.04,3.58,0.04,5.38"/><path d="M15.6,41.15c2.48-0.12,27.36-3.69,29.63-3.84c1.89-0.12,3.23,1.19,3.23,3.98c0,1.46-0.67,32.48-0.75,45.45c-0.01,1.44-0.16,2.88-0.16,4.31"/><path d="M25.12,25.9c0.74,0.74,1.02,1.79,0.96,3.42C25.5,45.75,24,53,19.14,61.93"/><path d="M33.87,24.47c0.65,0.65,0.82,1.78,0.82,3.27c0,5.83-0.27,15.62-0.27,22.01c0,6.38,1.2,7.03,5.85,7.03c1.96,0,4.03-0.22,5.48-0.78"/><path d="M16.54,75.78c5.33-0.41,24.08-2.03,30.04-2.65"/><path d="M16.39,90.48c7.99-0.6,21.9-1.95,30.43-2.4"/><path d="M56.95,21.39c0.8,0.36,2.94,0.95,4.92,0.68c5.88-0.81,23.3-3.61,24.51-3.83c2.62-0.48,4.49,0.77,3.79,3.85c-0.24,1.05-2.17,11.29-3.86,21.17"/><path d="M57.42,46c1.45,0.62,2.8,0.77,4.63,0.56c7.2-0.81,15.99-1.62,22.67-2.2c1.73-0.15,3.15-0.11,4.54-0.11"/><path d="M58.49,46.62c0.76,0.76,1.32,2,1.32,3.78c0,8.25-0.46,16.21-0.46,22.6c0,15.13,1.29,16.5,20.26,16.5C94.38,89.5,96,88,96,77.5"/></svg>