<svg><path d="M10.24,20.14c0.63,0.41,3.81,1.01,4.46,0.95c6.66-0.58,24.25-2.29,27.05-2.57c1.59-0.16,3.38-0.67,4.75-0.15"/><path d="M13.47,34.84c0.43,0.74,0.59,2.52,0.59,3.51c0,0.99-0.14,51.41,0,52.39"/><path d="M14.26,36.88c2.41-0.12,24.79-2.28,26.98-2.59c2.27-0.32,4.15,1.19,4.15,3.98c0,1.56-0.35,50.65-0.35,51.39"/><path d="M23.94,23.22c0.67,1.18,1.08,2.8,0.98,4.42c-0.9,14.98-2.76,23.7-6.75,30.95"/><path d="M32.71,22.04c0.43,1.21,0.77,2.65,0.8,4.52c0.08,5.94-0.19,13.5-0.23,20.84c-0.03,6.37,1.86,7.69,4.88,7.69c3.06,0,5.18-0.22,5.47-0.94"/><path d="M14.69,70.51c3.27,0,26.2-1.69,29.89-1.69"/><path d="M14.54,87.44c6.65-0.53,21.75-1.45,30.03-1.9"/><path d="M60.42,17.35c0.02,0.71-0.02,1.82-0.05,2.84c-0.21,10.56-2.92,22.46-8.59,27.17"/><path d="M60.85,18.28c2.38,0.28,12.8-1.84,14.39-2.4c2.38-0.84,3.57,1.77,3.33,3.62c-0.48,3.62-1.71,12.75-1.71,16.37c0,5.01,1.19,8.64,9.03,8.64c7.6,0,8.53-1.26,8.53-9.36"/><path d="M54.65,54.8c1.55,0.38,1.75,0.95,4.84,0.38c3.1-0.57,22.29-3.12,24.43-3.69c2.13-0.57,3.86,2.2,2.9,4.17c-9.82,20.31-22.47,31.82-41.07,41.25"/><path d="M56.48,60.9c3.64,0.84,21.4,23.24,34.06,32.42c1.97,1.43,3.41,2.38,5.24,2.86"/></svg>