<svg><path d="M10.29,19.62c0.6,0.37,3.59,0.91,4.2,0.86c6.27-0.53,24.01-1.48,28.48-1.24c1.51,0.08,3.19-0.11,4.48,0.37"/><path d="M12.77,35.86c0.46,0.76,0.63,2.61,0.63,3.63c0,1.02-0.15,51,0,52.02"/><path d="M13.55,38.25c2.27-0.11,24.37-2.43,26.43-2.71c2.14-0.29,3.91,1.08,3.91,3.61c0,1.42-0.33,50.13-0.33,50.8"/><path d="M22.71,23.41c0.6,1.22,0.98,2.88,0.89,4.55c-0.82,15.44-2.5,23.39-6.11,30.87"/><path d="M31.47,22.34c0.41,1.1,0.73,2.4,0.75,4.1c0.08,5.39-0.18,16.02-0.21,22.68c-0.03,5.78,1.75,6.97,4.6,6.97c2.88,0,4.88-0.2,5.16-0.85"/><path d="M13.46,71.21c3.08,0,26.7-1.9,30.18-1.9"/><path d="M13.81,87.75c6.27-0.48,20.5-1.27,28.31-1.68"/><path d="M54.85,30.88c0,3.65-2.25,13.68-3.28,16.12"/><path d="M54.74,33.84c11.26-0.59,27.5-1.47,35.57-2.05c10.83-0.78,4.19,5.21,0.09,8.82"/><path d="M69.84,14c0.74,1.73,0.94,2.28,0.95,4.97c0.15,22.53-0.75,59.93-23.63,75.7"/><path d="M72.99,48.87c0.74,1.19,1.33,2.59,1.38,4.43c0.2,8.19-0.03,25.14-0.03,30.7c0,9.5,1.17,11.03,11.67,11.03c10,0,10.39-2.03,10.39-10.62"/></svg>