<svg><path d="M12.74,20.14c0.63,0.41,3.81,1.01,4.46,0.95c6.66-0.58,24.25-2.29,27.05-2.57c1.59-0.16,3.38-0.67,4.75-0.15"/><path d="M15.47,34.84c0.43,0.74,0.59,2.52,0.59,3.51c0,0.99-0.14,51.41,0,52.39"/><path d="M16.26,36.88c2.41-0.12,24.29-2.28,26.48-2.59c2.27-0.32,4.15,1.19,4.15,3.98c0,1.56-0.35,50.65-0.35,51.39"/><path d="M25.44,23.22c0.67,1.18,1.08,2.8,0.98,4.42c-0.9,14.98-2.76,23.7-6.75,30.95"/><path d="M34.71,22.04c0.43,1.21,0.77,2.65,0.8,4.52c0.08,5.94-0.19,13.5-0.23,20.84c-0.03,6.37,1.86,7.69,4.88,7.69c3.06,0,5.17-0.22,5.47-0.94"/><path d="M16.69,70.51c3.27,0,25.7-1.69,29.39-1.69"/><path d="M16.54,87.94c6.65-0.53,21.25-1.95,29.53-2.4"/><path d="M71.41,10.12c0.36,1.08,0.61,1.94-0.18,3.07c-4.23,6.06-7.98,10.06-13.24,15.6c-0.62,0.66,0.27,1.84,1,1.71c7.01-1.25,13.26-2,19.21-2.62"/><path d="M87.97,17.99c0.36,0.54,0.05,2.86-0.5,3.39C79.88,28.79,70.25,36,58.39,44.46c-1.36,0.97-0.72,2.81,0.72,2.45c6.05-1.51,27.15-4.7,34.93-6.15"/><path d="M88.57,33.63c3.67,2.29,9.48,9.41,10.4,12.97"/><path d="M59.77,53.57c0.54,0.95,0.91,2.38,1.09,3.3c0.18,0.92,0.16,34.41-0.42,42.13"/><path d="M61.95,55.15c2.18-0.06,23.59-2.84,25.21-2.96c2.9-0.23,3.63,1.3,3.63,2.67c0,3.23-0.04,18.22-0.04,36.55c0,12.61-4.49,6.1-7.97,2.04"/><path d="M61.45,68.04c4.78-0.35,24.5-2.04,28.7-2.07"/><path d="M60.89,80.48c3.93-0.08,24.06-1.28,29.39-1.7"/></svg>