<svg><path d="M11.24,20.59c0.62,0.4,3.7,0.98,4.33,0.92c6.47-0.57,21.58-1.23,24.31-1.5c1.55-0.15,3.37-0.51,4.62-0.14"/><path d="M12.88,36.88c0.41,0.72,0.57,2.46,0.57,3.42c0,0.96-0.14,49.99,0,50.95"/><path d="M13.65,38.87c2.35-0.12,24.11-2.21,26.23-2.52c2.21-0.31,4.04,1.15,4.04,3.87c0,1.52-0.34,49.26-0.34,49.98"/><path d="M23.56,23.58c0.65,1.22,1.05,2.9,0.95,4.57c-0.88,15.52-2.68,24.55-6.56,32.07"/><path d="M31.59,23.44c0.42,1.18,0.75,2.57,0.77,4.39c0.08,5.78-0.18,14.13-0.22,21.26c-0.03,6.2,1.81,7.48,4.75,7.48c2.98,0,5.03-0.21,5.32-0.91"/><path d="M14.06,71.57c3.18,0,25.48-1.65,29.07-1.65"/><path d="M13.92,88.03c6.47-0.52,21.15-1.41,29.2-1.85"/><path d="M55.01,17.16c0.41,0.41,0.83,0.75,1.01,1.27c1.42,4.08,1.97,10.46,3.5,20.14"/><path d="M57.06,18.56c10.44-1.31,25.67-1.97,30.83-2.55c1.89-0.21,3.02,2.13,2.75,3.37c-1.12,5.13-0.9,3.86-2.8,13.95"/><path d="M59.43,35.88c6.07-0.65,22.61-1.25,30.31-1.9"/><path d="M86.27,40.75c0.08,0.35,0.33,1.01-0.17,1.4c-6.17,4.92-15.28,9.43-31.35,13.39"/><path d="M52.46,70.27c1.03,0.58,4.44,0.35,5.5,0.25c11.01-1.02,18.62-1.57,31.55-2.61c1.29-0.1,2.8-0.24,4.73,0.28"/><path d="M71.74,52.65c1.11,1.71,1.11,2.74,1.11,4.11c0,9.58,0,24.25,0,34.93"/><path d="M48.25,93.74c0.76,0.32,4.73,0.12,6.02,0.01c10.98-1,25.98-2.25,38.37-2.88c2.07-0.11,4.57,0.54,5.61,1.05"/></svg>