<svg><path d="M10.43,22.53c0.55,0.38,3.29,0.95,3.86,0.9c5.76-0.55,21.49-1.67,23.92-1.93c1.38-0.15,2.8-0.25,4.11-0.14"/><path d="M12.72,37.92c0.37,0.7,0.51,2.39,0.51,3.32c0,0.93-0.12,49.08,0,50.01"/><path d="M13.41,39.85c2.09-0.12,21.46-2.15,23.35-2.44c1.97-0.3,3.59,1.12,3.59,3.76c0,1.48-0.31,47.86-0.31,48.56"/><path d="M22,25.69c0.6,1.16,0.97,2.74,0.88,4.33c-0.82,14.68-2.49,23.23-6.09,30.34"/><path d="M30.13,25.33c0.34,1.18,0.61,2.58,0.64,4.4c0.06,5.8-0.15,13.67-0.18,20.82c-0.03,6.21,1.48,7.5,3.89,7.5c2.44,0,4.12-0.21,4.36-0.91"/><path d="M13.77,73.63c2.83,0,22.68-2.1,25.87-2.1"/><path d="M13.65,88.62c5.76-0.5,18.82-1.37,25.99-1.8"/><path d="M46.75,38.69c0.58,0.28,2.34,1.22,3.88,1c3.12-0.44,8.62-0.94,12.67-1.38c1.55-0.17,2.72-0.28,3.69,0"/><path d="M55.5,16c1.25,0.5,2,2.25,2.25,3.25s0,70.25-0.25,76.5"/><path d="M57.75,39.75c-2.5,14-8.5,28.75-15,36.75"/><path d="M60,51c3.22,1.95,6.66,5.84,8.5,9.25"/><path d="M71.25,38.39c0.39,0.17,1.74,0.77,2.77,0.67c3.66-0.34,12.98-1.55,20.13-2.41c1.04-0.12,1.94-0.17,2.59,0"/><path d="M78.75,13.5c1.25,0.5,2,2.25,2.25,3.25s0,72.75-0.25,79"/><path d="M80.75,40c-2.57,12.91-10.55,30.88-16.5,37.5"/><path d="M80.75,37.75c4.5,17,10.49,32.02,13.76,37.55c0.93,1.58,1.45,2.66,2.24,3.2"/></svg>