<svg><path d="M9.29,19.62c0.6,0.37,3.59,0.91,4.2,0.86c6.27-0.53,23.33-1.99,25.98-2.24c1.5-0.14,3.19-0.61,4.48-0.13"/><path d="M10.95,35.36c0.55,0.67,0.76,2.29,0.76,3.19c0,0.89,0,45.71,0,50.21"/><path d="M12.05,36.75c2.27-0.11,23.87-3.43,25.93-3.71c2.14-0.29,3.91,1.08,3.91,3.61c0,1.42-0.33,48.63-0.33,49.3"/><path d="M21.07,22.41c0.7,1.19,1.14,2.82,1.03,4.46c-0.95,15.11-2.91,22.9-7.11,30.22"/><path d="M28.97,21.34c0.41,1.1,0.73,2.4,0.75,4.1c0.08,5.39-0.18,13.52-0.21,20.18c-0.03,5.78,1.75,6.97,4.6,6.97c2.88,0,4.88-0.2,5.16-0.85"/><path d="M11.96,68.21c3.08,0,25.2-2.4,28.68-2.4"/><path d="M11.81,85.75c6.27-0.48,21.5-1.77,29.31-2.18"/><path d="M54.94,13.76c0.38,0.74,0.64,1.12,0.76,2.09c0.71,6.06,3.8,25.87,3.8,26.36"/><path d="M56.32,15.25c2.13-0.12,23.15-2.36,25.09-2.5c1.62-0.12,3.09,1.51,3.03,3.09c-0.11,3.22-1.45,13.53-2.74,24.11"/><path d="M57.38,27.18c2.88,0,22.93-2.17,26.19-2.17"/><path d="M59.61,39.42c5.87-0.53,14.77-1.44,22.08-1.9"/><path d="M48.86,52.39c1.03,0.48,2.92,0.58,3.95,0.48c6.74-0.65,27.51-3.72,37.48-3.71c1.72,0,2.75,0.23,3.61,0.47"/><path d="M69.46,52.25c0.92,0.47,1.48,2.1,1.66,3.04c0.18,0.93,0.5,25.62,0.31,31.46"/><path d="M71.43,68.25c5.83-0.72,13.82-1.89,16.74-1.76c1.16,0.05,1.85,0.17,2.43,0.35"/><path d="M57.91,62.19c0.59,1.06,0.59,2.18,0.42,3.39c-1.03,7.16-4.07,23.16-14.99,32.48"/><path d="M55.77,78.74C60.77,79.47,72.12,90,91.49,96c1.94,0.6,3.88,0.75,5.72,1"/></svg>