<svg><path d="M11.24,19.14c0.55,0.41,3.33,0.98,3.9,0.95c6.86-0.34,21.24-1.29,23.7-1.57c1.4-0.16,2.96-0.67,4.16-0.15"/><path d="M14.07,36.34c0.37,0.74,0.52,2.52,0.52,3.51c0,0.99-0.12,49.91,0,50.89"/><path d="M14.26,38.55c2.21-0.12,22.71-2.21,24.71-2.5c2.08-0.31,3.8,1.15,3.8,3.86c0,1.51-0.32,49.05-0.32,49.77"/><path d="M23.74,23.22c0.58,1.18,0.95,2.8,0.86,4.42c-0.79,14.98-2.42,23.7-5.91,30.95"/><path d="M30.92,22.04c0.38,1.21,0.67,2.65,0.7,4.52c0.07,5.94-0.17,14-0.2,21.34c-0.03,6.37,1.63,7.69,4.28,7.69c2.68,0,4.53-0.22,4.79-0.94"/><path d="M15.13,73.01c2.86,0,23.45-1.69,26.68-1.69"/><path d="M14.5,87.44c5.82-0.53,19.05-1.45,26.3-1.9"/><path d="M68.64,12c0.49,0.47,1.3,2.26,1.3,3.19c0,3.41-0.16,9.69-0.06,12.57"/><path d="M48.96,29.01c0.84,0.05,2.75,0.33,3.57,0.26c6.59-0.55,29.99-2.83,38.36-2.97c1.38-0.02,2.09,0.02,3.12,0.34"/><path d="M61.61,35.99c0,0.49,0.03,0.87-0.09,1.46c-0.62,3.04-6.49,13.18-11.51,17.68"/><path d="M59.8,43.21c3.16,1.42,7.19,5.2,8.73,8.79"/><path d="M83.35,32.99c0,0.49,0.03,0.87-0.08,1.46c-0.54,3.04-5.67,13.18-10.06,17.68"/><path d="M81.11,41.46c4.45,2.15,10.12,7.87,12.29,13.29"/><path d="M48.5,70.06c0.95,0.34,2.7,0.43,3.65,0.34c12.09-1.12,34.94-2.86,43.28-3c1.58-0.03,2.53,0.16,3.33,0.34"/><path d="M69.14,57c0.67,0.56,2.08,4.19,2.21,5.3c0.13,1.12-0.09,28.21-0.22,35.2"/></svg>