<svg><path d="M11.29,20.55c2.07,0.93,4.14,0.89,6.35,0.69c6.08-0.55,14.34-1.51,19.35-1.87c1.98-0.17,3.97-0.17,5.95,0"/><path d="M13.08,35.76c0.77,0.77,1.02,2.11,1.02,3.4c0,0.71,0,27.33,0,41.58c0,4.9,0,8.33,0,8.75"/><path d="M15.03,37.01c1.86-0.1,16.48-1.69,21.36-2.28c3.97-0.48,5.08,1.51,5.08,5.28c-0.01,8.46-0.06,48.11-0.06,48.76"/><path d="M23.06,23.29c0.57,0.84,0.7,1.6,0.61,3.25c-0.8,15.28-1.92,23.84-5.95,31.55"/><path d="M30.1,22.64c0.82,0.82,0.95,2.36,0.95,3.62c0,5.76,0.05,16.93,0.05,24.04c0,4.82,0.97,5.7,4.31,5.7c2.7,0,4.56-0.21,4.82-0.91"/><path d="M15.15,70.33c2.88,0,22.09-1.09,25.35-1.09"/><path d="M15.27,86.04c5.86-0.51,17.73-0.79,24.97-0.83"/><path d="M51.89,18.06c0.78,0.78,1.14,1.75,1.28,2.45c0.51,2.68,1.81,11.03,2.68,16.62c0.34,2.21,0.61,3.98,0.75,4.82"/><path d="M54.04,18.79c2.99-0.23,23.73-2.24,29.95-2.82c4.12-0.38,5.64,1.05,4.88,5.27c-0.99,5.52-0.98,11.71-2.32,17.9"/><path d="M55.33,29.3c5.42-0.55,25.8-2.3,31.83-2.2"/><path d="M57.56,39.12c7.69-0.62,19.6-1.5,28.17-1.93"/><path d="M58.55,49.43c0,1.07-0.23,1.91-0.42,2.84C56,58,53.25,64.12,48.47,71.6"/><path d="M57.92,60.68c1.74,0.21,3.48,0.4,5.22,0.25c5.98-0.55,16.35-1.8,22.34-2.42c1.74-0.18,3.41-0.4,5.11-0.06"/><path d="M70.28,44.39c1.1,1.1,1.32,2.61,1.32,4.33c0,1.02-0.1,35.25-0.1,41.65"/><path d="M55.04,75.66c1.96,0.47,3.95,0.7,5.96,0.54c6-0.45,15.5-1.08,21.5-1.58c1.78-0.15,3.51-0.31,5.25,0.01"/><path d="M47.88,92.3c2.94,0.62,5.87,0.51,8.87,0.23C66.38,91.65,78,91,86.38,90.76c3.73-0.11,7.44,0.28,11.12,1.06"/></svg>