<svg><path d="M11.54,22.06c2.19,1,4.37,0.82,6.74,0.59c6.84-0.65,13.34-1.78,19.83-2.47c1.77-0.19,3.54-0.13,5.33-0.07"/><path d="M12.68,39.83c0.87,0.87,0.99,2.05,0.99,3.42c0,0.45-0.02,22.51-0.02,36.88c0,6.9,0,12.03,0.02,12.12"/><path d="M14.59,40.83c2.03-0.12,20.34-2.67,22.18-2.97c2.58-0.42,3.49,0.6,3.49,3.87c0,1.03-0.01,22.45-0.01,36.52c0,6.8,0,11.89,0,12.12"/><path d="M22.91,24.06c0.77,0.77,0.9,2.19,0.9,3.31c0,16.33-2.68,28.14-6.17,34.11"/><path d="M29.43,24.16c0.77,0.77,0.92,1.97,0.92,3.39c0,5.78-0.07,16.82-0.1,23.95c-0.03,6.2,1.22,7.37,3.77,7.37c2.57,0,4.35,0.04,4.6-0.66"/><path d="M14.45,74.51c8.8-0.89,16.92-1.64,24.88-2.11"/><path d="M14.82,89.28c5.59-0.52,16.3-1.78,24.5-2.09"/><path d="M46,38.29c1.75,0.25,3.52,0.3,5.25-0.02c4.87-0.9,9-1.4,13.49-2.35c1.7-0.36,3.13-0.3,5.01-0.26"/><path d="M55.76,12.63c0.87,0.86,1.09,2.19,1.09,3.31c0,19.19-0.11,35.81-0.11,43.06"/><path d="M47.06,59.65c0.91,1.06,1.15,2.27,1.27,3.61c0.4,4.14,0.99,10.77,1.48,17c0.17,2.24,0.33,4.42,0.47,6.42"/><path d="M48.61,61.17c4.8-0.6,11.55-1.82,15.15-2.18c1.6-0.46,2.59,0.37,2.97,2.49c-0.41,5.06-1.73,12.13-2.89,19.42"/><path d="M51.26,83.41c2.63-0.26,6.67-0.73,10.37-1.14c1.43-0.16,2.81-0.32,4.04-0.45"/><path d="M75.18,18.7c0.94,0.94,1.12,2.47,1.13,3.46c0.56,42.09-0.69,55.72-10.24,68.94"/><path d="M76.98,19.22c1.06-0.16,7.97-1.79,11.27-2.59c3.25-0.79,4.69,0.87,4.66,4.12c-0.08,8.24-0.28,49.55-0.28,68.13c0,10.92-5.73,2.74-7.49,0.91"/><path d="M77.5,38.35c4.75-0.72,10.23-1.51,14.22-1.76"/><path d="M76.9,55.54c3.55-0.3,10.56-1.33,14.66-1.32"/></svg>