<svg><path d="M10.79,19.95c0.51,0.38,3.07,0.94,3.59,0.89c5.37-0.54,19.47-2.58,21.73-2.84c1.29-0.15,2.73-0.63,3.83-0.14"/><path d="M12.8,36.12c0.34,0.69,0.47,2.36,0.47,3.28c0,0.92-0.11,48.18,0,49.1"/><path d="M13.44,37.56c1.95-0.12,20.5-3.03,22.26-3.32c1.83-0.3,3.35,1.11,3.35,3.72c0,1.46-0.29,48.47-0.29,49.16"/><path d="M22.21,22.33c0.56,1.21,0.91,2.88,0.83,4.54c-0.76,15.42-2.33,23.36-5.69,30.82"/><path d="M28.92,21.22c0.35,1.37,0.62,2.98,0.64,5.08c0.06,6.69-0.15,11.82-0.18,20.08c-0.03,7.18,1.5,8.66,3.94,8.66c2.47,0,4.18-0.24,4.41-1.05"/><path d="M13.78,69.96c2.63,0,21.63-2.99,24.61-2.99"/><path d="M13.66,84.91c5.36-0.5,18.04-1.82,24.72-2.25"/><path d="M50.87,18.12c0.98,0.51,1.38,0.63,2.93,0.17c2.61-0.77,6.56-1.3,9.81-2.34c2.55-0.82,3.12,0.44,2.29,3.21c-1.96,6.5-12.87,25.92-22.16,29.34"/><path d="M48.09,28.07c2.69,1.11,6.95,4.58,7.62,6.31"/><path d="M83.02,13.89c0.02,0.26,0.04,0.67-0.04,1.03c-0.53,2.18-3.56,6.97-7.7,9.9"/><path d="M66.73,18.26c5.45,4.51,20.96,21.45,26.87,25.26c1.58,1.02,2.7,1.79,4.15,2.15"/><path d="M94.97,21.65c0.03,0.26,0.06,0.66-0.05,1.03c-0.65,2.17-4.39,6.94-9.5,9.85"/><path d="M51.78,48.93c0.96,0.36,2.72,0.46,3.68,0.36c6.12-0.62,20.36-2.13,26.72-3.17c1.58-0.26,2.56-0.3,3.36-0.12"/><path d="M46.62,67.39c0.75,0.38,3.74,0.43,4.5,0.38c7.88-0.52,35.42-3.83,40.08-3.38c1.25,0.12,3.62,0.18,4.25,0.37"/><path d="M61.49,51.5c0.56,0.96,1.08,2.63,1,4.13C61.5,73.25,56.35,89.48,43.6,95.17"/><path d="M74.25,50.37c0.61,0.63,1.19,2.59,1.22,4.43c0.12,8.19-0.31,21.64-0.31,27.2c0,13,2.59,12.03,10.5,12.03c11.1,0,11.22-2.53,11.22-9.62"/></svg>