<svg><path d="M10.49,20.19c0.57,0.42,3.41,1.03,3.99,0.97c5.97-0.6,21.74-1.35,24.26-1.63c1.43-0.16,3.03-0.69,4.26-0.15"/><path d="M12.88,37.75c0.38,0.76,0.53,2.59,0.53,3.6c0,1.01-0.13,52.65,0,53.66"/><path d="M13.6,39.83c2.16-0.13,22.23-2.33,24.19-2.65c2.04-0.33,3.72,1.22,3.72,4.08c0,1.6-0.32,51.88-0.32,52.63"/><path d="M22.66,23.35c0.67,1.27,1.09,3.02,0.99,4.77c-0.91,16.19-2.78,25.61-6.8,33.45"/><path d="M30.64,22.64c0.38,1.34,0.69,2.93,0.71,5c0.07,6.58-0.17,14.95-0.21,23.07c-0.03,7.06,1.67,8.51,4.38,8.51c2.74,0,4.64-0.24,4.9-1.04"/><path d="M13.98,76.78c2.93,0,23.49-1.73,26.8-1.73"/><path d="M13.84,91.61c5.96-0.55,19.5-0.98,26.92-1.45"/><path d="M68.77,10.75c0.61,0.38,1.61,1.85,1.61,2.6c0,2.78-0.19,4.95-0.08,7.31"/><path d="M48.7,22.16c1,0.06,3.3,0.39,4.27,0.31c7.89-0.66,29.42-2.35,39.43-2.52c1.66-0.03,2.5,0.03,3.74,0.4"/><path d="M64.86,23.09c-0.11,0.91,0.12,1.98-0.15,2.33c-3.29,4.48-4.3,4.19-8.57,8.57c-2.17,2.22-1.39,2.47,1.38,1.9c7.53-1.56,18.93-3.17,27.99-4.75"/><path d="M79.85,26.85c3.56,1.75,9.19,7.18,10.08,9.89"/><path d="M56.73,43.53c0.14,0.31,0.28,1.12,0.25,1.75C56.75,51.75,54,57.5,48.56,61.72"/><path d="M67.89,41.61c0.07,0.3,0.92,1.58,0.99,3.5c0.32,9.22-0.2,11.07-0.2,14.21"/><path d="M80.97,38.85c0.54,0.6,0.96,1.31,0.99,2.24c0.14,4.15-0.38,8.19-0.38,11.01c0,4.9,1.67,5.85,7.34,5.85c7.58,0,8.58-1.2,8.58-4.63"/><path d="M53.33,66.19c0.48,0.77,1.1,1.61,1.21,2.27c0.81,5.2,1.47,18.25,2.02,27.59"/><path d="M54.79,68.32c8.64-1.08,30.98-2.81,34.11-2.67c1.36,0.06,2.15,0.71,1.98,1.75c-0.48,2.98-2.15,22.07-3.15,26.14"/><path d="M65.37,68.48c0.2,0.49,0.4,0.91,0.49,1.53c0.69,4.91,0.71,16.29,1.18,25.11"/><path d="M77.48,68.38c0.37,0.59,0.72,1.6,0.66,2.37c-0.6,7.59-0.46,13.84-1.21,23.57"/><path d="M46.63,95.93c1.31,0.48,3.72,0.56,5.03,0.48c13.65-0.8,19.76-2.22,44.88-2.35c2.19-0.01,3.5,0.23,4.59,0.47"/></svg>