<svg><path d="M9.79,20.91c1.43,0.94,3.72,0.9,5.34,0.75c6.55-0.58,19.2-1.93,21.55-2.17c1.43-0.14,2.95-0.12,4.27,0.12"/><path d="M11.42,37.07c0.88,0.88,1.25,2.18,1.25,3.61c0,0.71,0.09,31.78,0.03,44.32c-0.01,2.99-0.02,4.87-0.02,4.95"/><path d="M13.35,38.18c3.01-0.26,15.83-1.6,20.67-2.16c2.72-0.31,4.79-0.05,4.79,3.32c0,1.21-0.14,30.12-0.18,43.91c0,2.01-0.01,3.7-0.01,4.92"/><path d="M20.58,23.99c0.78,0.78,0.99,1.94,0.95,3.34c-0.28,11.41-0.78,22.16-6.28,30.91"/><path d="M27.82,22.16c0.89,0.88,1.19,2.18,1.22,3.9c0.07,5.47,0.08,14.73,0.05,21.48c-0.03,5.86,1.19,7.07,3.92,7.07c2.75,0,4.2-0.2,4.46-0.86"/><path d="M13.96,71.88c4.41-0.25,18.66-1.75,23.35-1.83"/><path d="M13.84,87.56c5.7-0.47,16.63-1.22,23.72-1.62"/><path d="M64.39,11c1.05,1.05,1.35,2.25,1.35,3.59c0,2.77-0.09,4.41-0.09,6.93"/><path d="M46.12,23.85c2.41,0.48,4.95,0.2,7.4-0.1c8.6-1.04,22.2-2.91,31.12-3.52c1.93-0.13,4.12-0.23,5.75,0.29"/><path d="M57.52,27.14c0.09,0.73-0.07,1.41-0.46,2.03c-1.28,2.48-4.87,6.45-9.76,10.05"/><path d="M75.75,26.5c4.96,1.27,12.82,5.24,14.06,7.22"/><path d="M51.75,42.77c1.78,0.72,4.45,0.53,6.27,0.35c6.95-0.69,18.4-2.18,24.73-2.76c1.18-0.11,1.9-0.11,2.5,0.03"/><path d="M59.12,37.5c1,1,1.46,2.38,1.46,4c0,1.02,0.03,13.75,0.03,21"/><path d="M75.87,33.25c0.88,1,1.09,2.47,0.96,4C76,46.88,75.62,50.25,75,61"/><path d="M50,53.27c1.95,0.79,4.75,0.5,6.77,0.3c7.64-0.75,21.76-2.39,27.98-2.97c1.18-0.11,1.9-0.11,2.5,0.03"/><path d="M45.25,63.89c2.38,0.74,4.88,0.68,7.01,0.42c10.15-1.21,28.32-2.79,36.1-3.14c2.09-0.09,4.34-0.16,6.39,0.34"/><path d="M63.77,65.64c0.06,0.47,0.1,1.33-0.37,1.89c-4.03,4.72-11.9,11.59-20.9,16.58"/><path d="M56.34,78.45c0.73,0.73,1.16,1.8,1.16,3.06c0,5.51,0.02,9.45,0.03,11.74c0.01,2.98,0.72,3.62,2.97,2c3.04-2.18,7.75-6.38,10.62-8.72"/><path d="M83.15,67.69c0.02,0.23-0.18,1.14-0.39,1.39c-1.5,1.8-3.07,3.78-7.47,7.49"/><path d="M67.75,73.25c1.17,0.67,12.62,10.5,20.44,17.07c2.09,1.76,3.81,2.68,6.61,3.59"/></svg>