<svg><path d="M43.75,12.14c0.08,0.3-0.23,1.37-0.65,1.72C37.5,18.5,29,21.5,16.47,24.26"/><path d="M16.67,31.19c2.37,1.97,5.95,7.55,6.54,10.62"/><path d="M48.19,25.3c0.02,0.37,0.13,0.99-0.05,1.49c-1.38,4.01-3.6,8.73-8.17,14.24"/><path d="M11.5,47.45c0.59,0.35,2.18,0.73,3.75,0.54c6.51-0.83,21.52-2.59,31.29-2.63c1.58-0.01,1.97-0.35,2.96,0"/><path d="M31.91,23.29c0.7,0.49,1.12,2.2,1.25,3.17c0.14,0.98,0,65.18-0.14,71.28"/><path d="M32.66,46.65C28.43,58.84,18.15,75.96,8.64,82.99"/><path d="M36.31,54.61c3.08,1.53,9.92,9.5,11.11,12.75"/><path d="M55.25,41.85c0.72,1.29,1.29,2.62,1.45,3.74c1.39,9.23,2.02,31.63,2.84,48.63"/><path d="M57.68,44.34c13-2.31,27.08-2.53,35.3-3.43c3.02-0.33,4.15,2.34,3.99,4.81c-0.6,9.06-2.92,31.45-4.82,46.38"/><path d="M73.36,16.36c1.16,1.09,1.85,2.66,1.85,4.1c0.04,14.16,0.21,65.88,0.21,69.58"/><path d="M58.64,65.96c3.59-0.45,33.45-2.65,36.42-2.65"/><path d="M60.12,91.9c9.08-0.65,21.19-2.03,32.13-2.27"/></svg>