<svg><path d="M27.75,13.57c0.78,0.78,1.14,1.76,1.3,2.41c0.41,1.72,2.33,11.48,3.37,17c0.42,2.18,0.7,3.7,0.7,3.79"/><path d="M30.12,14.9c6.13-0.52,40.64-3.5,45.53-3.91c2.84-0.24,4.59,1.38,4.09,4.26c-0.5,2.85-1.54,7.35-3.13,14.77c-0.24,1.12-0.49,2.31-0.76,3.57"/><path d="M31.02,24.75c10.11-1,38.11-3.12,46.62-3.33"/><path d="M34.12,34.34c10.88-0.84,26.5-2.21,41.09-2.66"/><path d="M12.25,45c2.69,0.5,7.66,0.28,10.33,0c20.17-2.12,49.05-4,66.2-4.74c4.47-0.19,7.35-0.01,9.59,0.24"/><path d="M30.08,52.15c0.7,0.7,1.03,1.56,1.21,2.47c0.93,4.66,1.66,11.79,2.41,17.75c0.14,1.08,0.27,2.11,0.41,3.09"/><path d="M32.3,53.41c15.33-1.41,32.45-2.89,44.97-3.63c2.61-0.16,3.73,1.72,3.4,4.04c-0.47,3.29-2.05,9.5-3.65,15.22c-0.28,1-0.56,1.99-0.83,2.94"/><path d="M33.8,63.24c6.83-0.49,38.45-3.36,44.66-3.52"/><path d="M35.12,73.43c11.63-0.93,25.92-2.36,40.56-3.03"/><path d="M53.83,54.87c0.84,0.84,1.2,2,1.2,3.63c0,11.18,0.06,33.73,0.06,36.48"/><path d="M33.88,84.21c2.14,0.41,4.34,0.3,6.5,0.14c10.18-0.78,19.75-2.1,30.25-2.66c2.2-0.12,4.31-0.1,6.5,0.15"/><path d="M16.38,97.45c2.32,0.54,6.59,0.7,8.91,0.54c20.59-1.36,40.96-2.61,60.46-3.11c3.87-0.1,6.2,0.26,8.13,0.53"/></svg>