<svg><path d="M12.5,18.54c1.25,0.96,1.45,2.21,1.62,3.18c0.98,5.66,2.66,16.78,3.4,25.76c0.08,1,0.15,1.98,0.21,2.93"/><path d="M15.03,20.17c10.69-1.68,25.59-3.93,31.58-4.62c2.5-0.29,3.63,1.82,3.4,3.34c-0.89,5.98-2.33,16.31-3.89,25.13c-0.23,1.31-0.45,2.06-0.65,3.21"/><path d="M16.74,34.44c2.97-0.38,29.08-3.9,31.53-3.98"/><path d="M17.7,48.43c6.57-0.22,18.7-2.92,27.77-3.37"/><path d="M30.97,19.87c0.78,1.13,1.06,1.76,1.08,3.13c0.21,12.86,0.06,50.65,0.06,55.01"/><path d="M15.75,62.75c1.72,0.5,3.79,0.44,4.95,0.25c7.75-1.25,14.9-3.05,23.1-4.25c1.7-0.25,3.83-0.25,5.45,0"/><path d="M12.25,82.31c1.38,1.19,3.39,1.61,6.09,0.69c5.53-1.87,21.25-7.06,30.16-10"/><path d="M57.51,16.84c2.11,0.66,4.23,0.51,6.25,0.19c7.36-1.16,19.6-3.31,21.94-3.78c2.6-0.52,3.74,1.71,2.19,3.42c-2.66,2.94-12.79,14.29-14.43,16.39"/><path d="M63.88,28.5c2.86,1.21,10.28,5.85,11.62,9"/><path d="M54.42,43.13c1.71,0.62,3.32,0.59,5.58,0.12c4.83-0.99,24.38-4.62,28.75-5.5c10.94-2.19,3.5,5.25-0.75,10.5"/><path d="M73.51,48c1.12,1.12,1.57,2.38,1.57,4.41c0,2.04-0.31,35.1-0.31,38.84c0,10.75-7.08,1.18-9.5-0.52"/></svg>