<svg><path d="M71.68,10.89c0.13,0.41,0.17,1-0.25,1.67C68,18,48,25.25,27.25,27.5"/><path d="M28.5,32.5c2.63,1.96,6.59,7.48,7.25,10.52"/><path d="M78.75,24.5c0.04,0.47,0.2,1.26-0.07,1.89C76.5,31.5,73,37.5,65.81,44.52"/><path d="M14.75,50.67c0.75,0.25,2.75,0.65,4.75,0.74c5.5,0.25,60.75-6.44,69.5-5.95c2,0.11,2.5-0.25,3.75,0"/><path d="M52.25,25.25c1.25,0.5,2,2.23,2.25,3.22c0.25,0.99,0,63.09-0.25,69.28"/><path d="M52.25,48.69C45.69,61.57,29.75,79.66,15,87.09"/><path d="M57,50.18c5.02,4.76,27.02,27.28,32.47,31.96c1.85,1.59,3.43,2.27,5.28,2.72"/></svg>