<svg><path d="M67.25,11.17c-0.38,1.08-1,2.08-2.99,2.89c-5.43,2.22-16.96,5.78-36,8.72"/><path d="M12.75,33.95c4.38,0.93,7.82,0.32,11.49-0.04c13.33-1.33,41.94-3.94,58.24-4.86c3.86-0.22,7.64-0.42,11.52,0.25"/><path d="M28.69,44.28c0.7,0.7,1.01,1.67,1.1,2.22c1.05,6.49,2.41,14.8,3.44,22.11c0.16,1.12,0.31,2.23,0.45,3.29"/><path d="M30.46,46.36c14.66-1.86,35.83-4.17,45.76-5.07c3.65-0.33,5.01,2.6,4.83,3.78c-0.57,3.56-2.1,10.62-3.88,17.07c-0.38,1.39-0.78,2.74-1.17,4.03"/><path d="M32.44,56.97c12.18-1.72,34.81-3.84,45.95-4.44"/><path d="M33.61,68.24c15.14-1.99,29.42-3.64,42.64-4.39"/><path d="M52.5,21.25c1.19,1.19,2,2.75,2,4.25c0,2.88-0.25,59-0.25,67.5"/><path d="M31.41,80.64c1.97,0.48,4.36,0.39,6.34,0.16c10.25-1.18,24.22-2.59,33.98-3.53c2.2-0.21,4.77-0.4,6.42,0.04"/><path d="M17.14,96.06c3.49,0.56,6.96,0.41,10.24,0.19c14.34-0.96,35.76-3.23,51.12-3.97c3.48-0.17,6.93-0.13,10.37,0.51"/></svg>