<svg><path d="M24.83,19.94c0.93,0.93,1.42,2.06,1.66,3.15c1.53,6.96,3,17.79,4.16,28.14c0.16,1.43,0.31,2.82,0.46,4.14"/><path d="M27.51,22.11c15.08-1.48,37.74-4.36,51.76-5.05c4.06-0.2,6.23,1.44,5.9,4.24c-0.86,7.17-2.71,17.2-5.09,26.29c-0.38,1.45-0.76,2.87-1.15,4.26"/><path d="M30.05,36.97c8.7-0.97,38.08-3.47,51.66-3.99"/><path d="M32.12,53.04C44,52,63.25,50.62,78.43,49.8"/><path d="M52.33,21.63c1.21,1.21,1.62,2.88,1.66,5.12c0.3,15.62,0.1,56.86,0.1,61.25"/><path d="M27.38,70.45c1.92,0.46,5.43,0.69,7.34,0.46c11.03-1.29,28.41-2.9,37.21-3.61c3.18-0.26,5.36-0.03,6.95,0.2"/><path d="M15.38,90.31c2.43,0.69,6.89,0.88,9.31,0.69C45.75,89.38,66,87.62,84,87.54c4.05-0.02,6.48,0.33,8.5,0.68"/></svg>