<svg><path d="M35.18,9.89c0.01,0.17,0.06,0.5-0.16,0.69c-2.84,2.41-5.81,4.62-12.62,6.56"/><path d="M20.59,16.04c1.07,0.27,1.71,1.22,1.77,1.78C23,23.75,24.25,31,24.98,36.53"/><path d="M23.32,22.15c5.14-0.4,11.37-1.34,13.66-1.33"/><path d="M24.12,29.79c4.65-0.54,11.44-1.02,14.24-1.01"/><path d="M43.28,11.94c0.71,0.89,1.18,1.25,0.94,2.85c-0.24,1.6,0.24,19.37,0.24,22.05"/><path d="M44.35,12.75c3.63-0.31,20.08-2.39,20.82-2.39c1.61,0,2.1,0.56,2.1,1.35s-2.4,21.18-2.4,22.98"/><path d="M48.58,18.44c0.38,0.09,1.08,0.1,1.46,0.09c3.96-0.1,5.75-0.8,8.08-0.8c0.63,0,1.01,0.04,1.33,0.09"/><path d="M44.64,24.55c4.36-0.3,11.54-1.2,13.74-1.37c0.81-0.06,1.29,0.37,1.17,0.74c-0.48,1.53-1.04,3.14-1.74,5.26"/><path d="M44.4,30.71c2.59-0.2,11.16-1.03,14.72-1.33"/><path d="M72.97,12.51c1.28-0.01,2.44,0.53,4.31,0.16c3.47-0.67,9.45-1.16,10.04-1.22c1.63-0.15,2.21,1.3,2.03,2.28c-0.6,3.26-3.74,18.34-4.23,20.35"/><path d="M72.56,20.14c0.77,0.02,2.41,0.47,3.71,0.39c4.44-0.3,10.37-1.57,11.36-1.66"/><path d="M72.78,27.85c0.76,0.02,2.11-0.02,2.99-0.09c3.38-0.27,6.82-0.99,8.69-0.95"/><path d="M17.09,37.46c0,3.06-2.81,11.5-4.09,13.54"/><path d="M17,38.87c10.34-0.84,65.53-4.36,73.93-4.68c13.12-0.5,3.78,5.61,0.51,7.42"/><path d="M29.15,43.56c1.2,0.09,3.4,0.57,4.58,0.48c7.02-0.54,28.78-2.99,40.14-3.37c1.99-0.07,3.19-0.04,4.18-0.01"/><path d="M26.53,49.74c0.47,0.76,1.31,1.96,1.31,2.35c0,0.39,1.97,19.17,1.97,19.37"/><path d="M29.76,51.23c3.91-0.22,44.89-3.59,48.46-3.68c1.78-0.05,2.58,1.72,2.58,2.79c0,0.6-0.8,15.17-1.46,19.42"/><path d="M45.14,43.13c1.28,0.4,0.96,1.04,0.87,1.65c-1,6.47-6.5,12.47-12.89,14.61"/><path d="M57.85,43.61c0.7,0.43,1.25,0.95,1.29,1.66c0.14,2.25,0.21,3.22,0.15,6.02c-0.05,2.43,2.71,3.68,9.41,3.68c5.05,0,8.38-1.08,8.85-1.38"/><path d="M30.47,63.68c5.29-0.24,42.42-2.93,48.39-3.2"/><path d="M30.24,69.88c10.77-0.69,35.21-2.33,48.62-3.11"/><path d="M40.45,72.79c0.4,0.41-0.09,0.86-0.56,1.36c-3.91,4.15-14.93,10.38-23.14,12.15"/><path d="M62.19,71.5c8.25,1.33,16.5,9.79,23.37,11.92c2.66,0.82,3.61,1.26,6.19,1.53"/><path d="M35.1,82.29c1.13,0.29,2.56,0.26,3.55,0.16c8.08-0.8,24.56-1.81,29.05-2.11c2.91-0.19,3.93,1.62,3.55,2.92c-1.25,4.25-3.49,8.8-7.09,13.06c-3.94,4.66-6.03,1.73-9.27-0.29"/><path d="M48.26,81.69c0.06,0.41,0.21,1.07-0.13,1.64c-3.84,6.31-9.8,11.57-22.38,16.69"/></svg>