<svg><path d="M51.75,11.88c0.25,1.52-0.22,3.57-0.8,4.84C47.73,23.79,33.13,47.1,14.5,58"/><path d="M52.25,18.25c9.5,7.5,34.14,30.88,37.21,32.67c3.12,1.82,4.14,2.66,5.54,2.83"/><path d="M34.02,47.08c1.69,0.65,3.85,0.36,5.6,0.21c6.91-0.6,14.33-1.69,23.99-2.64c2.07-0.2,4.1-0.4,6.15,0.12"/><path d="M30.18,64.96c1.95,0.67,4.47,0.31,6.47,0.12c9.24-0.87,17.42-1.58,31.35-2.53c2.3-0.16,4.68-0.36,6.96,0.08"/><path d="M51.47,48.82c0.89,0.85,0.89,3.76,0.89,4.43c0,3.64,0.27,38.71,0.22,39.82"/><path d="M31,74.75c3.25,3,7.48,9.27,8.5,12"/><path d="M73.01,72.11c0.24,1.14,0.11,2.46-0.54,3.51C70.38,79,66.44,83.22,63,86"/><path d="M18.5,94.86c2.88,1.01,6.41,0.4,9.37,0.15c16.55-1.42,32.95-2.12,51.51-3c3.13-0.15,6.32-0.27,9.38,0.59"/></svg>