<svg><path d="M34.75,14.24c0,1.34-0.07,2.55-0.49,3.84c-2.15,6.56-12.08,23.06-20.29,30.55"/><path d="M36.64,20.46c5.86,2.29,10.61,5.79,15.11,10.29"/><path d="M26,42.5c1.5,0,2.19,0.15,2.67,0.06c4.83-0.93,10.08-2.06,13.44-2.75c0.72-0.15,0.9-0.05,2.15-0.05"/><path d="M15.59,56.81c2.16,0.44,4.54,0.29,6.16,0.04c6.73-1.07,18.55-3.78,26.04-5.52c1.11-0.26,2.09-0.2,3.49-0.1"/><path d="M34.45,43.94c0.93,0.93,1.49,2.18,1.49,3.39c0,4.35,0.06,27.42,0.06,34.23"/><path d="M18,67.5c4.6,3.54,6.85,7.38,7.79,9.45"/><path d="M50.09,60.05c0.16,0.7,0.04,1.7-0.31,2.37c-1.16,2.21-3.03,5.33-8.11,10.86"/><path d="M14.5,90.25c1,0.75,2.42,0.68,3.5,0.25c1.25-0.5,21.25-9.75,34.25-15.75"/><path d="M56.44,46.72c1.91,0.83,4.91,0.58,6.92,0.34c9.2-1.1,22.47-3.46,30.52-4.82c1.6-0.27,3.03-0.2,4.63-0.01"/><path d="M75.12,12.75c0.94,0.94,1.46,2.38,1.46,3.75c0,0.72,0.02,55.68,0.03,75.12c0,3.28,0,5.55,0,6.38"/></svg>