<svg><path d="M33.25,12.49c0,0.92,0.06,1.66-0.17,2.77c-1.2,5.78-12.6,25.06-22.35,33.61"/><path d="M34.89,20.71C39.36,22.7,45.07,27.99,47.25,33"/><path d="M22.5,41.5c1.5,0,2.18,0.09,2.67,0.06C29.5,41.24,35,40.03,40.1,39.8c0.74-0.03,0.9-0.05,2.15-0.05"/><path d="M14.59,54.81c0.59,0.33,2.56,0.48,3.17,0.43c5.49-0.49,16.74-1.74,23.78-2.67c0.74-0.1,2.38-0.13,3.49,0.15"/><path d="M29.45,42.69c1.24,0.78,1.24,2.52,1.24,3.14c0,4.35,0.31,33.67,0.31,38.98"/><path d="M14.89,65.76c4.08,5.41,6.07,11.28,6.9,14.44"/><path d="M44.15,60.55c0.34,0.87,0.38,1.76,0.1,2.45c-1,2.5-2.75,5.74-6.58,11.28"/><path d="M13,89.75c0.52,0.23,2.5,1.75,5,0.75c1.25-0.5,13.25-5.25,26.25-11.25"/><path d="M54.25,30.5c1.75,0.75,3.94,0.54,5.48,0.4C73,29.75,80,29.5,89.5,28.5c2.98-0.31,5.35,2,5.25,4.5c-0.5,12.75-2.75,41.75-7,56.75c-3.17,11.19-7.75,2.75-9.5,0.75"/><path d="M71.44,33.18c0.31,1.07,0.49,2.64,0.36,4.4C70.5,55.5,63,81.25,48.5,97"/></svg>