<svg><path d="M20.98,20.68c0.88,0.16,2.48,0.25,3.36,0.16c5.41-0.59,18.16-1.84,24.07-2.08c1.46-0.06,2.34,0.07,3.06,0.15"/><path d="M15.27,32.14c0.8,0.19,2.68,0.64,4.79,0.39c6.44-0.78,17.94-1.78,27.78-2.68c2.12-0.2,2.67-0.19,4,0"/><path d="M36.22,9.75c0.8,0.28,1.28,1.26,1.44,1.81s0,33.95-0.16,37.44"/><path d="M37.45,29.13c-3.64,6.01-12.62,14.51-20.2,17.92"/><path d="M40.64,35.82c2.95,1.19,7.97,4.25,10.08,6.71"/><path d="M65.6,10.64c0.03,0.5,0.15,1.32-0.06,2.01c-1.5,5.08-4.87,13.67-10.04,19.8"/><path d="M66.32,21.03c0.96,0.19,2.75,0,3.27-0.03c5.39-0.3,13.77-2.25,22-2.74c0.93-0.05,1.49-0.01,1.73,0.05"/><path d="M81.25,23.12c0.39,0.55,0.7,0.98,0.2,1.94C77,33.5,68.75,40.75,57.03,45.75"/><path d="M61.35,27.2c1.04,0,1.66,0.42,2.49,1c5.61,3.92,15.93,11.5,23.42,15.22c1.38,0.68,2.84,1.14,4,1.21"/><path d="M25.7,53.59c1.58,0.37,4.47,0.42,6.05,0.37c18.49-0.53,28.79-2.28,49.37-2.43c2.63-0.02,4.2,0.18,5.52,0.37"/><path d="M28.29,54.51c0.04,1.05,0.09,2.71-0.08,4.21c-0.99,8.88-2.46,30.78-13.91,40"/><path d="M36.58,60.21c0.26,0.31,0.27,0.53,0.42,0.92c1.19,3.25,2.31,10.94,3.05,16.99"/><path d="M37.87,61.59c8.22-0.73,34.3-2.47,40.43-3.08c2.25-0.23,3.41,1.07,3.29,1.86c-0.42,2.92-1.47,10.86-2.5,15.73"/><path d="M39.4,69.07c2.68-0.28,38.19-2.37,40.4-2.49"/><path d="M40.28,76.83c5.92-0.31,30.65-1.61,38.82-2.11"/><path d="M56.92,61.95c0.31,0.6,1.18,1.42,1.21,2.62c0.22,8.41,0.07,29.3,0.07,31.67"/><path d="M36.12,86.12c1,0.3,2.84,0.33,3.84,0.3c10.43-0.34,26.56-1.9,39.47-1.96c1.67-0.01,2.67,0.14,3.51,0.29"/><path d="M27.25,97.74c1.6,0.29,4.53,0.38,6.12,0.29C47,97.25,72,95.5,87.41,95.71c2.66,0.04,4.26,0.14,5.59,0.29"/></svg>