<svg><path d="M32.75,13.49c0,0.85,0.06,1.54-0.17,2.56C31.42,21.4,20.4,39.22,10.97,47.13"/><path d="M35.14,20.71C41.25,24.25,45,28.75,48.25,34"/><path d="M21,41c1.75,0,2.55,0.09,3.12,0.06c5.06-0.31,10.91-1.53,16.87-1.75c0.86-0.03,1.05-0.05,2.51-0.05"/><path d="M15.09,54.31c0.68,0.33,2.93,0.48,3.63,0.43c6.29-0.49,15.75-2.49,23.81-2.67c0.85-0.02,2.73-0.13,4,0.15"/><path d="M29.95,43.19c1.24,0.78,1.24,2.52,1.24,3.14c0,4.35,0.31,31.67,0.31,36.98"/><path d="M14.64,65.51c4.22,4.76,6.29,9.91,7.15,12.69"/><path d="M43.79,60.05c0.23,0.71,0.35,1.75,0.26,2.35c-0.23,1.54-2.8,6.11-6.63,10.88"/><path d="M13.5,88.75c1.75,1.5,3.42,1.18,4.5,0.75c1.25-0.5,12.75-5.75,25.75-11.75"/><path d="M54.91,41.47c1.07,0.68,2.4,0.51,3.36,0.36c8.98-1.33,27.43-3.34,31.71-3.59c4.27-0.24,4.52,2.03,4.37,5.19c-0.4,8.34-6.1,38.56-11.55,46.59c-4.2,6.19-6.23,0.31-7.34-0.68"/><path d="M71.98,15.18c0.27,1.07,0.38,2.21,0.44,3.99C73,37.5,63.75,81.5,45.39,94.9"/></svg>