<svg><path d="M32.5,14.49c0,0.79,0.05,1.42-0.14,2.37c-1.01,4.94-10.89,21.94-19.13,29.26"/><path d="M34.14,20.21c4.74,2.15,10.8,7.87,13.11,13.29"/><path d="M22,41c1.41,0,2.72,0.07,4.13-0.08c3.99-0.43,10.08-1.72,14.5-2.04c1.12-0.08,2.25-0.13,3.38-0.13"/><path d="M14.34,56.06c2.29,0.44,4.02,0.36,5.7,0.14c6.09-0.77,13.84-1.83,22.25-2.88c0.74-0.09,2.09-0.1,3.49-0.1"/><path d="M31.95,42.94C33,44,33.19,45,33.19,46.58c0,4.35,0.06,28.29,0.06,36.23"/><path d="M19.14,67.76c2.6,4.01,3.87,8.35,4.4,10.69"/><path d="M45.02,61.42c0.25,0.69,0.29,1.74,0.01,2.27c-1.02,1.92-2.26,4.21-5.11,8.59"/><path d="M15.75,88.5c0.94,0.94,2.28,1.19,3.75,0.5c7.25-3.38,11.75-5.25,24.75-11.25"/><path d="M64.27,15.5c0.48,1,0.21,1.98-0.06,3.04c-1.95,7.59-6.33,18.34-12.45,29.06"/><path d="M61.69,33.46c1.94,0.41,3.75,0.44,5.04,0.23c4.9-0.8,14.54-2.37,19.29-2.97c4.36-0.56,7.23,0.12,7,5.19C92.38,49.5,88.88,71.38,83.88,87c-3.89,12.16-7.75,6.88-11.03,2.16"/><path d="M58.79,52.17c4.05,2.83,10.45,11.65,11.46,16.06"/></svg>