<svg><path d="M32.75,12.24c0,0.93,0.06,1.67-0.17,2.79c-1.16,5.82-12.18,25.23-21.61,33.84"/><path d="M34.14,20.46c4.92,2.11,11.21,7.72,13.61,13.04"/><path d="M21.5,41.5c1.62,0,2.35,0.09,2.88,0.06c4.67-0.31,10.06-1.53,15.56-1.75c0.8-0.03,0.97-0.05,2.31-0.05"/><path d="M14.09,54.81c0.59,0.33,2.56,0.45,3.17,0.43C23,55,34.5,52.75,41.54,52.58c0.75-0.02,2.38-0.13,3.49,0.15"/><path d="M29.45,43.69c1.24,0.78,1.24,2.52,1.24,3.14c0,4.35,0.62,32.63,0.31,36.98"/><path d="M14.64,65.51c4.22,5.32,6.29,11.08,7.15,14.19"/><path d="M44.12,60.05c0.37,0.93,0.56,2.29,0.41,3.08c-0.37,2.02-3.26,5.71-7.36,11.65"/><path d="M13,90.32c1.3,0.9,2.87,0.67,4.7,0.22C19.05,90.21,29.43,85.38,43,80"/><path d="M86.79,12.5c0.07,0.33,0.29,0.98-0.14,1.34c-5.92,4.91-13.48,8.63-25.95,12.85"/><path d="M57.09,26.33c0.85,1.79,0.83,3.49,0.83,5.44c0,19.23-0.42,43.98-12.12,57.5"/><path d="M58.09,44.38c0.49,0.18,2.4,0.28,3.69,0.1c8.97-1.23,24.73-2.68,32.84-3.24c1.3-0.09,3.56-0.18,4.37,0"/><path d="M79.68,45.48c0.94,0.63,1.5,2.84,1.69,4.1c0.19,1.26,0,41.54-0.19,49.42"/></svg>