<svg><path d="M32.75,12.24c0,0.92,0.06,1.66-0.16,2.77c-1.13,5.78-11.9,25.06-21.11,33.61"/><path d="M34.64,21.21c3.84,1.83,8.74,6.68,10.61,11.29"/><path d="M22,41.5c1.5,0,2.18,0.09,2.67,0.06C29,41.24,35,40.03,40.1,39.8c0.74-0.03,0.9-0.05,2.15-0.05"/><path d="M13.59,55.81c0.64,0.33,2.76,0.48,3.41,0.43c5.91-0.49,17.25-1.99,24.52-3.17c0.79-0.13,2.56-0.13,3.75,0.15"/><path d="M29.45,43.69c1.24,0.78,1.24,2.52,1.24,3.14c0,4.35,0.62,32.63,0.31,36.98"/><path d="M15.14,66.01c3.93,5.13,5.85,10.69,6.65,13.69"/><path d="M44.2,60.05c0.3,0.84,0.46,2.06,0.34,2.76c-0.3,1.81-2.71,6.13-6.12,11.47"/><path d="M13.5,90.31c1.27,0.92,2.8,0.69,4.58,0.23c1.32-0.34,12.95-5.78,26.17-11.29"/><path d="M50.03,25.45c1.58,0.5,3.72,0.42,6.95,0c5.27-0.69,25.38-3.45,27.63-3.94c3.39-0.75,5.22,1.27,3.97,5.46C78.5,60.75,63,84.75,41.5,94.97"/><path d="M61.15,33.85c4.12,1.98,10.64,8.15,11.67,11.24"/><path d="M50.17,35.14c4.29,1.4,25.23,38.94,40.15,54.32c2.32,2.39,4.02,3.99,6.18,4.79"/></svg>