<svg><path d="M32.75,13.24c0,0.87,0.05,1.57-0.16,2.62c-1.12,5.46-11.76,23.68-20.87,31.76"/><path d="M34.89,21.46c4.47,2.03,10.18,7.42,12.36,12.54"/><path d="M21.5,42.5c1.5,0,2.18,0.09,2.67,0.06c4.33-0.31,9.33-1.53,14.44-1.75c0.74-0.03,0.9-0.05,2.15-0.05"/><path d="M15.59,56.31c0.59,0.33,2.56,0.48,3.17,0.43c5.49-0.49,16.49-1.74,22.78-2.67c0.74-0.11,2.38-0.13,3.49,0.15"/><path d="M29.95,44.19c1.24,0.78,1.24,2.52,1.24,3.14c0,4.35,0.62,32.63,0.31,36.98"/><path d="M14.89,66.26c4.08,4.85,6.07,10.11,6.9,12.94"/><path d="M43.7,61.05c0.3,0.84,0.46,2.06,0.34,2.76c-0.3,1.81-2.71,5.13-6.12,10.47"/><path d="M14.5,90.75c1.25,1,2.75,0.75,4.5,0.25c1.29-0.37,11.25-5.75,24.25-11.75"/><path d="M63.3,13.75c0.04,0.79,0.07,2.04-0.07,3.18c-0.86,6.71-5.76,21.43-12.48,30.45"/><path d="M61.04,32.42c1.46,0.33,3.12,0.27,4.6-0.04c4.36-0.89,20.54-3.41,24.14-3.64c3.6-0.23,5.12,0.3,4.78,5.19c-0.79,11.29-3.75,44.6-9.24,58.98C83,99,79.75,97,77.56,90.76"/><path d="M54.59,53.08c0.49,0.24,2.13,0.36,2.63,0.32c4.56-0.37,13.07-1.87,18.91-2c0.62-0.01,1.97-0.1,2.9,0.11"/><path d="m54.52,73.85c1.12,0.32,2.37,1.26,4.31,0.38,5.41,-2.45,15.7,-7.52,21.11,-9.96"/></svg>