<svg><path d="M30.25,12.74c0,0.84,0.05,1.5-0.16,2.51C28.97,20.47,18.33,37.9,9.22,45.63"/><path d="M30.89,20.46C35.9,22.65,42.31,28.48,44.75,34"/><path d="M16.5,43.5c1.83,0,2.66,0.09,3.26,0.06c5.29-0.31,11.39-1.53,17.62-1.75c0.9-0.03,1.09-0.05,2.62-0.05"/><path d="M12.09,56.81c0.67,0.33,2.86,0.48,3.55,0.43c6.15-0.49,17.61-2.49,25.49-2.67c0.83-0.02,2.66-0.13,3.9,0.15"/><path d="M27.45,46.19c1.24,0.78,1.24,2.52,1.24,3.14c0,4.35,0.62,32.63,0.31,36.98"/><path d="M13.39,69.26c3.78,4.48,5.63,9.32,6.4,11.94"/><path d="M41.2,63.05c0.3,0.84,0.65,2.12,0.34,2.76c-1.29,2.69-2.71,5.13-6.12,10.47"/><path d="M12,93.25c1.25,1,2.75,0.75,4.5,0.25c1.29-0.37,11.25-5.75,24.25-11.75"/><path d="M52.22,17.32c1.16,0.77,3.41,1.45,4.64,1.29c6.64-0.85,21.45-2.5,24.1-2.97c2.28-0.4,4.02,1.44,3.67,3.69C83.85,24.25,83.5,31,81.27,41.75"/><path d="M55.61,44.25c3.33-0.26,24.81-2.01,28.28-2.26"/><path d="M55.84,19.62c0,4.45-0.35,13.49-0.85,23C53.66,68.19,52,76.12,44.25,91"/><path d="M63.28,45c6.34,7.5,18.86,34.56,28.54,42.27c1.93,1.54,3.6,2.9,5.18,3.48"/></svg>