<svg><path d="M30,14.24c0,1.14-0.05,2.19-0.42,3.28c-1.92,5.7-11.22,20-19.61,28.6"/><path d="M32.39,20.21C37.38,22.75,42.5,26.12,46,31.25"/><path d="M19.75,39.75c1.41,0,2.22,0.08,3.63-0.08c3.72-0.42,9.05-1.41,14.01-2.24c1.22-0.2,2.62-0.18,3.86-0.18"/><path d="M12.59,54.81c1.49,0.82,3.72,0.64,5.31,0.45c5.45-0.67,14.01-2.19,20.35-3.02c1.5-0.2,3.27-0.65,4.77-0.26"/><path d="M28.7,41.44c0.99,0.99,1.24,1.81,1.24,3.14c0,4.35,0.06,28.92,0.06,37.98"/><path d="M16.14,68.26c2.9,3.82,4.31,7.96,4.9,10.19"/><path d="M42.48,62.8c0.28,0.69,0.1,1.77-0.18,2.29c-1.29,2.41-2.04,3.78-5.63,8.69"/><path d="M12.75,88.27c1.24,1.24,2.12,1.48,4.18,0.74c1.29-0.47,12.32-4.63,24.82-9.76"/><path d="M67.9,13c0.07,1.01-0.2,2.16-0.64,3.57C64.5,25.5,55.75,44,45.5,54.85"/><path d="M68.17,17.79c3.99,4.43,15.65,19.54,21.95,26.96c1.93,2.27,4.04,3.86,6.38,5.62"/><path d="M63.75,41c3.6,2.11,9.29,8.68,10.19,11.97"/><path d="M50.69,62.37c2.43,1.18,4.95,1.01,7.44,0.55c7.5-1.38,25.27-4.34,27.39-4.71c2.54-0.44,3.68,1.04,1.85,3.38c-4.28,5.48-16.32,20.49-17.93,22.25"/><path d="M58.25,76.9c4.48,2.52,13.25,10.22,18.17,18.35"/></svg>