<svg><path d="M31.75,15.24c0,0.77,0.05,1.39-0.16,2.32c-1.12,4.83-11.76,20.93-20.87,28.07"/><path d="M32.39,21.46c4.47,2.03,11.18,8.42,13.36,13.54"/><path d="M19,42.5c1.71,0,2.49,0.09,3.05,0.06c4.95-0.31,10.67-1.53,16.5-1.75c0.84-0.03,1.02-0.05,2.45-0.05"/><path d="M13.09,56.81c0.59,0.33,2.56,0.48,3.17,0.43c5.49-0.49,17.74-1.99,25.28-2.67c0.74-0.07,2.38-0.13,3.49,0.15"/><path d="M29.45,45.19c1.24,0.78,1.24,2.52,1.24,3.14c0,4.35,0.62,32.63,0.31,36.98"/><path d="M14.39,67.51c4.67,4.76,6.95,9.91,7.9,12.69"/><path d="M43.51,62.55c0.45,0.74,0.33,1.88,0.01,2.45c-1.27,2.25-3.53,4.55-8.6,9.28"/><path d="M13.5,92.25c1.25,1,2.75,0.75,4.5,0.25c1.29-0.37,11.25-5.75,24.25-11.75"/><path d="M52,24.73c0.3,1.13,1.23,2.93,1.28,4.33c0.57,14.07,1.28,39.95,1.7,62.69"/><path d="M53.39,26.84c10.37-1.26,28.39-3.53,36.2-4.09c3.41-0.25,4.79,2.16,4.64,5.5C93.66,40.48,92,72,90.78,90.15"/><path d="M70.45,26.2c0.65,0.61,1.09,2.42,1.08,4.44c-0.05,13.27,0.25,51.53,0.25,56.35"/><path d="M54.42,55.86c3.4-0.55,35.27-2.86,38.08-2.86"/><path d="M55.12,88.78c7.5,0,25.17-2,35.53-2.3"/></svg>