<svg><path d="M29.75,13.74c0,0.87,0.05,1.57-0.16,2.62c-1.12,5.46-11.76,23.68-20.87,31.76"/><path d="M30.39,20.46c4.47,2.03,12.18,8.92,14.36,14.04"/><path d="M19,42.09c1.88,0,2.73,0.11,3.34,0.07c5.43-0.39,9.82-1.16,16.22-1.44c0.93-0.04,1.12-0.07,2.69-0.07"/><path d="M12.09,56.81c0.68,0.33,2.93,0.48,3.63,0.43c6.29-0.49,17.52-1.99,25.57-2.17c0.85-0.02,2.72-0.13,3.99,0.15"/><path d="M28.95,43.69c1.24,0.78,1.24,2.52,1.24,3.14c0,4.35,0.31,33.92,0.31,40.48"/><path d="M14.89,68.01c4.08,5.32,6.07,11.08,6.9,14.19"/><path d="M43.65,63.55c0.34,0.77,0.52,1.9,0.38,2.55c-0.34,1.67-3.04,4.75-6.87,9.67"/><path d="M13.5,92.75c1.25,1,2.75,0.75,4.5,0.25c1.29-0.37,13.25-6.25,26.25-12.25"/><path d="M47.36,40.52c1.29,0.46,3.67,0.57,4.96,0.46c9.52-0.84,26.18-1.23,41.79-2.33c2.15-0.15,3.45,0.22,4.53,0.45"/><path d="M56.67,15.37c1.07,0.49,1.71,2.19,1.93,3.17c0.21,0.98,0,71.62-0.21,77.71"/><path d="M83.62,14c1.07,0.49,1.71,2.19,1.93,3.17c0.21,0.98,0,72.51-0.21,78.6"/><path d="M58.76,66.34c5.49-0.34,23.78-1.43,26.73-1.43"/><path d="M58.76,94.65c6.4-0.24,20.58-1.21,26.48-1.45"/></svg>