<svg><path d="M32,15.74c0.11,1.3-0.34,2.3-0.84,3.49c-3.41,6.39-11.45,18.16-20.43,26.89"/><path d="M33.14,22.46C38.5,26,42.88,30.12,46.25,36"/><path d="M18.25,43c1.51,0.36,3.02,0.4,4.53,0.12c4.06-0.47,9.9-1.9,14.35-2.41c1.37-0.15,2.74-0.22,4.11-0.22"/><path d="M11.59,56.81c2.5,0.54,5.01,0.51,7.56,0.2c6.35-0.76,14.84-1.83,20.89-2.79c1.97-0.48,3.97-0.56,5.99-0.24"/><path d="M28.95,45.44c0.87,0.87,0.99,2.06,0.99,3.39c0,4.35,0.06,29.29,0.06,34.98"/><path d="M14.64,68.01c3.63,4.85,5.66,9.36,6.4,12.19"/><path d="M43.73,61.55c0,1.08-0.23,1.83-0.96,2.75c-1.75,2.21-3.25,4.4-8.6,9.23"/><path d="M13.25,90.42c1.67,0.96,3.22,1.04,4.64,0.24c4.96-2.26,9.93-4.6,23.86-10.91"/><path d="M49.63,24.18c2.88,0.5,5.75,0.43,8.64,0.01c9.11-1.32,17.48-2.57,27.23-3.1c2.83-0.16,5.6-0.42,8.38,0.06"/><path d="M70.21,25.37c0.9,0.9,1.26,2.51,1.26,4.54c0,14.62-0.01,53.37-0.01,58.34"/><path d="M73.28,53.48 C77.25,53.12 81.63,52.37 88.52,51.67 C89.92,51.53 91.26,51.3 92.63,51.55 "/><path d="M54.29,46.62c0.86,0.86,1.08,2.01,1.08,3.67c0,7.72-0.12,35.72-0.12,39.22"/><path d="M39.75,90.5c3.62,1.22,7.23,1.02,11,0.66c13.62-1.29,21.88-1.79,36.13-2.1c4.5-0.1,8.95,0.31,13.37,1.44"/></svg>