<svg><path d="M32.35,16.75c0,0.8,0.05,1.44-0.16,2.41C31.1,24.17,22.62,39.62,12,48.25"/><path d="M34.47,22.82c4.83,1.77,10.65,6.06,13.57,10.61"/><path d="M22.52,42.58c1.54,0,2.93,0.06,4.48-0.09c3.59-0.35,7.79-1.06,11.73-1.71c1.26-0.21,2.27-0.28,3.55-0.27"/><path d="M16.56,55.89c2.19,0.49,4.29,0.32,6.17,0.06c5.4-0.76,13.52-2.35,19.53-3.33c1.57-0.26,3.4-0.72,4.99-0.33"/><path d="M30.71,44.44c1.23,1.23,1.48,3.06,1.48,4.69c0,4.06-0.06,23.61-0.06,30.6"/><path d="M18.58,67.38c3.18,3.57,4.72,7.43,5.37,9.51"/><path d="M44.25,58.84c0.23,0.67,0.24,1.68,0,2.19c-1.13,2.46-1.81,4.07-4.41,8.3"/><path d="M16,86.63c1.1,0.63,2.61,0.68,3.67,0.22c1.22-0.53,11-6.05,23.71-12.36"/><path d="M72.48,17.32c0.85,0.85,1.51,2.06,1.51,3.35c0,0.66,0.05,9.12-0.04,13.21"/><path d="M55.43,36.96c1.94,0.54,4.49,0.37,6.45,0.08c9.05-1.38,19.69-3.83,27.25-4.52c2.11-0.19,4.5-0.14,6.5,0.27"/><path d="M56.47,37.57c0.86,0.86,1.29,2.35,1.17,4.13c-1.14,17.05-3.89,34.55-12.89,48.31"/><path d="M77.58,48.63c0.4,0.93,0.21,3.71-0.24,4.82c-4.59,11.42-8.21,19.67-14.9,31.71c-1.43,2.58-0.83,4,1.29,3.36c6.77-2.03,16.75-5.4,27.02-8.53"/><path d="M85.3,69.08c3.71,3.82,9.59,15.69,10.52,21.63"/></svg>