<svg><path d="M32.75,12.49c0,0.82,0.05,1.48-0.16,2.47C31.5,20.1,21.11,37.27,12.22,44.88"/><path d="M34.14,18.71c4.74,2.15,10.8,7.87,13.11,13.29"/><path d="M21,40.71c1.83,0,2.66,0.11,3.26,0.07c5.29-0.39,11.39-1.91,17.62-2.19c0.9-0.04,1.09-0.07,2.62-0.07"/><path d="M15.09,54.64c0.7,0.53,3,0.78,3.72,0.7c6.44-0.8,16.94-2.83,25.38-4.33c0.86-0.15,1.79-0.22,3.09,0.25"/><path d="M31.45,42.69c1.24,0.78,1.24,2.52,1.24,3.14c0,4.35,0.62,32.63,0.31,36.98"/><path d="M17.14,66.26c3.93,4.29,5.85,8.93,6.65,11.44"/><path d="M44.29,58.55c0.23,0.71,0.49,1.79,0.26,2.35c-1.3,3.11-3.05,5.36-5.63,9.88"/><path d="M14,88.75c1.25,1.5,3.42,1.68,4.5,1.25c3.75-1.5,10.75-3.75,26.25-10.25"/><path d="M71.91,9.99c0.39,0.46-0.09,2.17-0.38,2.72c-3.84,7.25-10.81,13.85-16.1,19.12c-1.68,1.67-1.65,2.25,0.77,1.67c6.55-1.56,26.26-5.1,35.05-6.55"/><path d="M83.59,17.65c4.05,3.05,10.46,12.56,11.47,17.31"/><path d="M59.83,44.39c0.02,0.44,0.05,1.15-0.05,1.78c-0.59,3.76-4.01,12.02-8.69,17.07"/><path d="M59.73,53.17c0.69,0.38,1.95,0.42,2.64,0.38c9.13-0.55,17.88-3.3,28.28-3.88c1.16-0.06,1.84,0.18,2.41,0.37"/><path d="M49.5,71.48c1.11,0.54,4.16,0.63,5.27,0.54c11.59-0.91,23.66-4.02,40.58-4.23c1.86-0.02,2.97,0.26,3.9,0.53"/><path d="M72.7,40.38c0.56,0.45,1.48,1.62,1.48,4.25c0,4.87-0.07,49.52-0.18,55.12"/></svg>