<svg><path d="M31,14.74c0,0.78,0.05,1.4-0.15,2.33c-1.04,4.87-9.6,19.67-18.88,28.55"/><path d="M32.39,21.21c4.11,2.04,8.73,6.54,11.36,11.04"/><path d="M20.25,41.75c1.37,0,2.65,0.08,4.02-0.07c3.79-0.41,8.22-1.36,12.6-1.99c1.07-0.16,2.05-0.19,3.13-0.19"/><path d="M13.59,56.31c1.29,0.44,3.58,0.4,5.03,0.24c5.42-0.62,14.18-1.99,20.64-2.77c1.71-0.21,3.5-0.28,5.27-0.05"/><path d="M30.2,44.19c0.93,0.93,1.24,2.43,1.24,3.89c0,5.79,0.06,27.17,0.06,33.48"/><path d="M18.14,68.26c2.6,4.01,3.87,8.35,4.4,10.69"/><path d="M43.54,60.8c0,0.7-0.24,1.54-0.49,2.1C41.62,66,41,67.25,38.42,71.78"/><path d="M13.5,88.75c1,0.88,2.42,0.68,3.5,0.25c1.25-0.5,12.5-5.62,26.25-11.75"/><path d="M50.42,21.9c0.91,0.91,1.36,2.23,1.36,3.73c0,1.74-0.19,44.45-0.12,60.62c0.01,3.38,0.02,5.67,0.02,6.27"/><path d="M52.55,23.33c6.95-0.71,34.14-3.58,35.41-3.7c2.79-0.26,4.85,0.87,4.85,3.26c0,2.33-0.1,60.85-0.1,66.21c0,9.39-3.32,6.54-6.39,2.13"/><path d="M59.13,39.04c1.74,0.33,3.41,0.31,4.89,0.18c5.42-0.48,11.51-1.51,15.61-1.88c1.62-0.15,3.49-0.34,4.86-0.04"/><path d="M60,53.47c0.58,0.58,1,1.53,1.24,2.53c0.69,2.84,1.51,7.39,2.12,11.47c0.2,1.35,0.39,2.65,0.55,3.82"/><path d="M62.21,54.87c5.93-1.07,12.49-2,16.42-2.59c2.77-0.42,4.08,0.04,3.45,2.99c-0.73,3.41-1.83,5.84-2.88,10.57"/><path d="M65.06,68.42c2.44-0.28,7.56-1.05,12.47-1.43c1.08-0.08,2.34-0.25,3.76-0.17"/></svg>