<svg><path d="M29,18.99c0,1.02-0.04,1.71-0.36,2.68c-1.69,5.17-10,18.84-17.17,24.98"/><path d="M30.77,24.19c4.33,1.76,9.87,6.46,11.98,10.9"/><path d="M19.5,43.65C20.75,44,21.83,44,23,43.88c3.92-0.41,8.92-1.74,13.63-2.49c1.07-0.17,2.04-0.2,3.12-0.2"/><path d="M12.34,56.1c1.46,0.78,4.34,0.56,5.91,0.37c6.05-0.75,15.56-2.63,21.79-3.55c0.74-0.11,2.09-0.29,3.49-0.1"/><path d="M27.7,45.55c0.82,0.82,1.24,1.7,1.24,3.07c0,4.24,0.06,29.01,0.06,35.61"/><path d="M14.64,66.53c3.63,4.38,5.41,9.13,6.15,11.68"/><path d="M41.43,62.45c0.32,0.79,0.45,2.02,0.11,2.6c-1.79,3.07-2.82,4.84-6.37,9.86"/><path d="M13.5,89.04c1.12,0.96,2.47,1.14,4,0.46c4.25-1.88,10-4.25,23.75-10.22"/><path d="M68.33,17.49c1.09,1.09,1.46,2.38,1.46,3.84c0,3.57-0.04,5.21-0.04,9.66"/><path d="M48.85,33.81c2.5,0.17,4.65,0.37,7.15-0.04c9.25-1.51,23.13-2.92,32.13-3.58c1.99-0.15,4.09-0.47,6.02,0.23"/><path d="M68.09,35.85c0.28,1.03,0.06,1.93-0.6,2.77C62.88,44.5,59,48.12,53.76,52.83c-1.87,1.67-1.93,3.33,0.9,2.85c6.89-1.17,18.93-4.29,28.51-6.25"/><path d="M78,42.88c3.59,2.35,9.28,9.66,10.18,13.31"/><path d="M61.36,58.27c0.68,0.68,0.71,2.09,0.64,3.28c-0.5,7.95-8.75,24.95-20.88,32.18"/><path d="M73.39,54.81c0.84,0.84,1.34,2.44,1.34,3.88c0,8.56-0.07,20.61-0.07,26.43c0,8.02,1.09,9.55,10.51,9.55c9.33,0,10.5-1.16,10.5-8.78"/></svg>