<svg><path d="M31.88,16.62c0.09,1.21-0.06,2.37-0.46,3.49c-2.02,5.97-11.23,20.64-19.19,27.51"/><path d="M33.89,22.96c4.29,1.91,9.77,6.98,11.86,11.79"/><path d="M20.14,43.37c1.4,0.38,2.79,0.43,4.16,0.13c3.91-0.66,7.79-1.31,12.65-1.88c1.43-0.25,2.86-0.2,4.29,0.13"/><path d="M13.59,59.06c1.86,0.37,3.71,0.38,5.53,0.01c6.83-1.12,13.65-2.24,21.31-3.13c1.81-0.26,3.64-0.25,5.47,0.04"/><path d="M30.19,44.94c0.68,0.77,1.18,2.18,1.18,3.61c0,4.3-0.08,27.08-0.08,35.02"/><path d="M15.25,68.88c4.01,3.78,5.97,7.87,6.79,10.07"/><path d="M43.67,62.92c0.23,1.04,0.06,1.95-0.5,2.72c-1.63,2.68-3.53,5.9-5.25,7.89"/><path d="M15,91c1.7,0.77,3.22,0.71,4.56-0.18c5.59-2.95,13.54-6.92,25.69-14.07"/><path d="M53.19,21.84c1.81,0.79,4.98,0.86,6.42,0.59c5.21-0.99,12.18-2.18,16.36-2.88c2.8-0.47,4.28,0.83,4.15,3.21c-0.26,4.63-1.23,13.89-2.04,19.9c-0.09,0.67-0.68,4.48-0.83,5.11"/><path d="M56.11,36c4.82-0.55,17.25-2.73,21.89-3.17"/><path d="M56.26,48.89c7.36-1.52,12.97-2.15,20.15-3"/><path d="M53.44,22.34c0.98,0.98,1.46,2.46,1.46,3.59c0,5.32-0.03,57.86-0.03,60.61c0,5.08,0.62,5.83,4.12,2.33c2.3-2.3,6.75-7.52,8.94-10"/><path d="M85.1,49.19c0,1.13-0.53,2.62-1.56,3.54C81.12,54.88,72.75,61,70,62.5"/><path d="M57.19,57.81c4.45,0,22.55,21.18,30.17,26.32c3.74,2.52,5.69,3.46,8.14,4.03"/></svg>