<svg><path d="M29.5,14.74c0.13,0.88,0.05,1.48-0.14,2.47c-1.01,5.14-10.89,22.31-19.13,29.92"/><path d="M31.25,20.88C35.41,23,40.73,28.65,42.75,34"/><path d="M18.75,42.25c1.21,0.18,2.42,0.17,3.63-0.03c3.62-0.36,8.6-1.31,12.89-1.91c1.4-0.19,3.22-0.31,4.22-0.06"/><path d="M13.34,57.31c2.04,0.56,4.19,0.34,5.93,0.16c4.83-0.49,10.65-1.71,18.52-2.9c0.74-0.11,2.38-0.38,3.49-0.1"/><path d="M29.2,44.19c1.06,1.06,1.24,2.31,1.24,3.64c0,4.35,0.06,30.17,0.06,36.73"/><path d="M14.62,67.75c4.09,4.86,6.08,10.12,6.92,12.95"/><path d="M43.04,62.3c0.23,0.71,0.3,1.56,0.01,2.1c-1.43,2.61-2.68,5.73-4.63,8.38"/><path d="M13.5,91.25c1,1,2.44,0.97,3.5,0.5c7.25-3.25,10.25-4.75,23.75-11"/><path d="M54.61,22c0.27,0.75,0.12,1.63-0.1,2.54C53,30.88,49.38,40.38,45.17,47"/><path d="M54.92,34.79c1.33,0.09,3.08-0.16,3.61-0.22c4.48-0.5,15.15-1.74,21.49-2.63c1.84-0.26,3.77-0.61,5.61-0.04"/><path d="M65.81,12.63c1.28,1.28,1.51,2.62,1.51,4.25c0,0.91,0.08,29.52-0.07,35.12"/><path d="M46.38,54.26c2.75,0.49,4.71,0.26,6.88,0.03c7.77-0.84,20.37-2.66,32.5-3.66c2.19-0.18,4.72-0.43,6.87,0.17"/><path d="M60.41,56.18c0.59,1.07,0.62,2.09,0.38,3.39c-1.42,7.68-8.29,24.81-20.35,35.34"/><path d="M70.27,55.12c1.05,1.05,1.38,2.38,1.38,4.06c0,5.2-0.03,14.05-0.03,20.2c0,10.76,1.38,13.4,10.89,13.4c12.61,0,13.73-2.28,13.73-9.91"/></svg>