<svg><path d="M28.14,13.5c0.04,0.5,0.19,1.39-0.08,2.01c-1.9,4.33-6.88,11.87-13.83,19.2"/><path d="M32.42,31.27c0.06,0.68,0.31,1.89-0.11,2.72c-4.06,8-11.66,18.52-21.56,28.03"/><path d="M22.95,51.62c0.27,0.24,0.93,2.09,0.98,2.58c0.05,0.49,0,39.27-0.05,42.3"/><path d="M53.75,13.24c0,0.87,0.05,1.57-0.16,2.62c-1.12,5.46-11.76,23.68-20.87,31.76"/><path d="M54.39,21.96C59.4,23.91,65.81,29.09,68.25,34"/><path d="M41.5,43c1.77,0,2.58,0.09,3.15,0.06c5.12-0.31,11.03-1.53,17.06-1.75c0.87-0.03,1.06-0.05,2.54-0.05"/><path d="M34.59,57.31c0.68,0.33,2.93,0.48,3.63,0.43c6.29-0.49,18.02-2.49,26.07-2.67c0.85-0.02,2.72-0.13,3.99,0.15"/><path d="M50.95,44.19c1.24,0.78,1.24,2.52,1.24,3.14c0,4.35,0.62,32.63,0.31,36.98"/><path d="M37.64,67.26c3.63,4.85,5.41,10.11,6.15,12.94"/><path d="M65.7,62.05c0.3,0.84,0.46,2.06,0.34,2.76c-0.3,1.81-2.71,5.13-6.12,10.47"/><path d="M36,91.25c1.25,1,2.75,0.75,4.5,0.25c1.29-0.37,11.25-5.75,24.25-11.75"/><path d="M72.34,20.7c0.62,0.22,3.28,0.6,3.9,0.53c4.81-0.61,15.34-1.85,18.21-1.75c1.03,0.03,1.66,0.11,2.17,0.22"/><path d="M70.59,42.71c0.82,0.36,2.31,0.41,3.13,0.36c5.78-0.33,18.03-2.08,24.3-2.12c1.36-0.01,2.18,0.17,2.86,0.35"/><path d="M85.71,44.16c0.08,0.47,1.02,2.44,1.1,5.41c0.35,14.27-0.22,37.9-0.22,42.76c0,7.88-6.29-0.49-7.6-1.71"/></svg>