<svg><path d="M32.25,14.24c0,0.81,0.06,1.46-0.17,2.43c-1.16,5.06-12.18,21.96-21.61,29.45"/><path d="M33.39,21.71c5.01,2.07,11.42,7.57,13.86,12.79"/><path d="M19.75,41.5c1.68,0,2.44,0.09,2.98,0.06c4.84-0.31,10.42-1.53,16.12-1.75c0.82-0.03,1-0.05,2.4-0.05"/><path d="M12.34,56.95c0.69,0.29,2.97,0.42,3.68,0.38c6.38-0.43,18.28-2.18,26.45-2.33c0.87-0.02,2.76-0.12,4.05,0.13"/><path d="M29.95,44.19c1.24,0.78,1.24,2.52,1.24,3.14c0,4.35,0.31,34.17,0.31,39.48"/><path d="M15.89,67.26c4.08,4.85,6.07,10.11,6.9,12.94"/><path d="M43.6,62.55c0.38,0.84,0.33,2.16-0.07,2.76c-1.78,2.69-2.87,5.13-7.11,10.47"/><path d="M15,91.81c1.28,0.92,2.82,0.69,4.62,0.23c1.33-0.34,11.54-5.28,24.88-10.79"/><path d="M87.75,16.75c0.09,0.39-0.66,2.48-1.19,2.86C81.75,23,72.99,28.06,56,32.5"/><path d="M50.33,49.16c1.02,0.34,3.58,0.43,4.6,0.34c8.82-0.75,27.71-2.27,39.91-2.47c1.71-0.03,2.73,0.16,3.58,0.34"/><path d="M71.92,31.5c0.55,0.38,1.72,2.87,1.83,3.64c0.21,1.43-0.07,28.06-0.18,33"/><path d="M55.25,68.58c0.48,0.41,1.06,0.73,1.18,1.27c1.31,5.9,2.31,15.9,2.81,24.65"/><path d="M57.37,70.06c10.88-0.81,26.89-2.38,33.26-2.93c2.33-0.2,2.85,1.99,2.67,3.2c-1.04,6.92-2.04,12.67-3.27,19.92"/><path d="M59.51,92.45c7.84-0.5,22.36-0.87,33.12-1.64"/></svg>