<svg><path d="M32.25,13.74c0,1.32-0.1,2.44-0.57,3.69c-2.36,6.28-12.66,22.5-21.43,30.69"/><path d="M33.88,20.88c4.02,1.68,9.17,6.14,11.12,10.38"/><path d="M21.75,40.5c0.88,0.12,1.88,0.11,2.67,0.06c4.33-0.31,9.71-1.43,15.44-2c0.74-0.07,0.9-0.05,2.15-0.05"/><path d="M15.59,55.56c1.91,0.56,3.6,0.4,5.04,0.26c6.24-0.6,14.88-2.08,20.28-2.78c1.51-0.2,3.59-0.46,5.12-0.07"/><path d="M30.95,42.19c1.24,0.78,1.24,2.52,1.24,3.14c0,4.35,0.62,32.63,0.31,36.98"/><path d="M17.14,67.14c3.93,4.24,5.85,8.84,6.65,11.31"/><path d="M43.54,61.55c0.23,0.71,0.27,1.8,0.01,2.35c-1.05,2.23-2.68,6.11-4.63,8.88"/><path d="M14.75,90c1.12,0.88,2.34,1.17,4.12,0.38c5.88-2.62,13.5-6.6,25.38-13.12"/><path d="M50.89,32.27c2.73,0.48,4.62,0.09,6.75-0.32c5.24-0.99,15.66-3.08,22.11-4.06c1.67-0.25,4.37-0.39,5.75-0.14"/><path d="M52.07,45.1c1.92,0.74,4.57,0.56,6.56,0.18c6.16-1.17,14.45-3.34,20.36-4.21c1.67-0.25,3.59-0.58,5.26-0.07"/><path d="M49.25,58.7c1.66,0.57,4.72,0.59,6.36,0.32c5.2-0.85,22.78-4.52,32.27-5.39c1.79-0.16,4.13-0.55,5.88,0.13"/><path d="M57.77,11.5c1.64,1.83,2.31,2.33,2.66,6.26c3.07,34.36,11.2,61.49,30.27,75.67c6.04,4.49,5.28,0.78,4.46-7.31"/><path d="M86.95,60.63c0.1,0.8-0.04,2.07-0.45,3.22c-2.4,6.78-15.26,22.53-34.95,31.52"/><path d="M72.87,13.03c2.91,1.5,7.06,4.44,8.41,7.02"/></svg>