<svg><path d="M31.75,13.74c0,0.8,0.05,1.44-0.15,2.41c-1.08,5.02-11.34,21.79-20.12,29.22"/><path d="M33.64,20.96c4.2,2.03,9.57,7.42,11.61,12.54"/><path d="M20,41.5c1.5,0,2.18,0.09,2.67,0.06C27,41.24,33.5,40.53,38.6,40.3c0.74-0.03,0.9-0.05,2.15-0.05"/><path d="M13.09,56.81c0.66,0.33,2.83,0.48,3.5,0.43c6.06-0.49,17.66-1.24,24.59-2.17c0.82-0.11,2.63-0.13,3.85,0.15"/><path d="M29.45,44.19c1.24,0.78,1.24,2.52,1.24,3.14c0,4.35,0.62,33.63,0.31,37.98"/><path d="M14.89,67.51c3.78,4.94,5.63,10.3,6.4,13.19"/><path d="M44.12,63.55c0.37,0.8,0.56,1.98,0.41,2.66c-0.37,1.74-3.26,4.94-7.36,10.07"/><path d="M12,90.89c1.25,0.79,2.75,0.6,4.5,0.2c1.29-0.29,13.25-5.07,26.25-9.84"/><path d="M70.49,12.5c0.12,0.36,1.67,1.87,1.67,4.16c0,7.82,0.09,22.15,0.09,25.89"/><path d="M61.2,23.68c0.04,0.44,0.09,1.12-0.1,1.75c-1.13,3.7-6.57,9.52-12.71,13.59"/><path d="M82.81,22.21c5.4,2.85,12.22,9.73,13.57,14.18"/><path d="M54.86,43.24c0.66,0.9,1.1,1.8,1.32,2.7c0.22,0.9,0.31,48.66,0.22,50.68"/><path d="M56.49,44.64c2.64-0.22,27.38-3.08,29.34-3.33c3.52-0.45,4.39,2.85,4.39,4.28c0,9.71-0.66,27.09-0.66,45.33c0,10.93-5.93,2.51-7.91,0.93"/><path d="M56.49,59.07c9.01-1.35,25.22-2.03,33.13-2.7"/><path d="M57.33,72.34c7.03-0.67,24.29-2.25,32.42-2.7"/></svg>