<svg><path d="M30.25,13.99c0,0.78,0.05,1.4-0.15,2.33c-1.04,4.87-10.92,21.1-19.38,28.3"/><path d="M32.39,20.46C36.5,22.25,41.75,27,43.75,31.5"/><path d="M17.5,42.14c1.75,0,2.55,0.12,3.12,0.07c5.06-0.41,10.91-2.01,16.87-2.3c0.86-0.04,1.05-0.07,2.51-0.07"/><path d="M12.59,57.31c0.59,0.33,2.56,0.48,3.17,0.43c5.49-0.49,16.24-2.99,22.78-4.17c0.73-0.13,2.38-0.13,3.49,0.15"/><path d="M28.45,43.69c1.24,0.78,1.24,2.52,1.24,3.14c0,4.35,0.31,33.42,0.31,39.48"/><path d="M14.14,69.26c3.93,4.1,5.85,8.54,6.65,10.94"/><path d="M42.1,62.05c0.38,0.79,0.57,1.94,0.43,2.61c-0.38,1.71-3.37,4.84-7.61,9.87"/><path d="M13,91.75c0.52,0.23,2.42,1.18,3.5,0.75c1.25-0.5,11.75-4.75,24.75-10.75"/><path d="M64.32,10.25c0.05,0.62,0.09,1.6-0.09,2.49c-1.06,5.24-7.15,16.74-15.48,23.78"/><path d="M63.22,19.7c0.29,0.03,1.5,0,2.31-0.1c2.67-0.32,9.71-2.03,13.52-3.03c2.61-0.69,3.59,0.88,2.69,2.65C76.5,29.5,65.25,44.25,48.78,52.25"/><path d="M58.53,26.07c4.62,3.7,25.55,17.77,31.77,21.16c1.86,1.01,3.36,1.5,5.17,1.8"/><path d="M56.8,57.15c0.81,0.37,2.29,0.46,3.1,0.37c9.35-1.02,14.6-2.27,22.4-3.26c1.34-0.17,2.16,0.18,2.83,0.36"/><path d="M54.3,67.9c0.81,0.37,2.29,0.46,3.1,0.37c9.35-1.02,21.1-2.77,28.9-3.76c1.34-0.17,2.16,0.18,2.83,0.36"/><path d="M47.8,79.75c1.35,0.62,3.83,0.75,5.17,0.62C65,79.25,81.5,76.75,91.4,76.42c2.25-0.07,3.6,0.29,4.72,0.61"/><path d="M69.08,47c0.67,0.39,2.21,2.25,2.21,3.74c0,8.26,0.28,38.01,0.28,48.61"/></svg>