<svg><path d="M30.75,13.99c0,0.78,0.05,1.4-0.15,2.33c-1.04,4.87-8.97,19.92-18.88,28.05"/><path d="M32.89,20.21c4.23,2.54,7.23,5.79,9.86,9.79"/><path d="M21.25,38.66c1.16,0.35,2.32,0.36,3.5,0.21c3.63-0.49,6.31-1.12,10.21-2.25c1.3-0.38,2.69-0.54,4.04-0.54"/><path d="M13.84,51.81c2.01,0.44,4.03,0.56,6.07,0.36c5.03-0.63,11.03-1.99,16.83-2.82c1.66-0.29,3.34-0.42,5.03-0.37"/><path d="M27.7,41.94c0.93,0.93,0.99,2.18,0.99,3.64c0,4.35,0.06,27.42,0.06,35.23"/><path d="M14.39,61.51c3.78,5.13,5.48,10.24,6.15,13.69"/><path d="M40.42,56.8c0,1.08-0.53,1.95-0.88,2.5c-1.91,3.08-2.54,4.45-6.12,8.73"/><path d="M13.25,88.62c1.62,1.13,2.9,0.69,3.93,0.12c4.07-2.24,9.82-5.86,22.57-13.99"/><path d="M48.24,21.29c0.86,0.86,1.03,1.84,1.03,2.97c0,0.9,0.01,54.76-0.02,56.75"/><path d="M50.05,22.55c2.58-0.55,5.93-1,8.74-1.65c2.74-0.63,4.05,0.12,4.05,3.77c0,2.71-0.09,42.11-0.09,49.08"/><path d="M50.09,39.83c2.66-0.33,7.41-1.2,11.67-1.46"/><path d="M50.3,58.57c3.2-0.32,7.2-1.19,11.29-1.67"/><path d="M40,84.81c1.25,0.69,2.6,0.59,4.28-0.25C48.38,82.5,60,76.5,66.82,72.64"/><path d="M69.13,39.57c1.88,0.69,3.79,0.81,5.72,0.35c4.79-1.27,11.9-3.54,15.15-4.29c3.55-0.82,5.26,0.91,5.1,4.6C94.62,51.72,92,67.5,87.59,83.53c-4.66,16.93-8.11,10.13-9.57,6.03"/><path d="M81.42,16.42c0.77,0.77,0.97,2,0.87,4.41c-0.92,23.42-7.67,54.92-20.41,71.45"/></svg>