<svg><path d="M30.75,14.99c0,0.8,0.05,1.44-0.14,2.41c-0.97,5.02-10.22,21.79-18.14,29.22"/><path d="M33.14,21.96c4.74,1.87,10.8,6.83,13.11,11.54"/><path d="M19.25,43.66c1.77,0,2.58,0.15,3.15,0.09c5.12-0.51,11.03-2.5,17.06-2.86c0.87-0.05,1.06-0.09,2.54-0.09"/><path d="M14.09,58c0.69,0.57,2.98,0.84,3.69,0.75c6.39-0.86,17.72-3.75,25.19-5.16c0.85-0.16,2.77-0.23,4.06,0.27"/><path d="M29.95,44.69c1.24,0.78,1.24,2.52,1.24,3.14c0,4.35,0.62,32.63,0.31,36.98"/><path d="M17.14,69.51c3.63,5.32,5.41,11.08,6.15,14.19"/><path d="M44.04,61.55c0.43,0.88,0.39,2.77-0.02,3.42c-1.77,2.78-3.31,4.92-8.11,10.56"/><path d="M14,91.75c1,1,2.92,1.18,4,0.75c1.25-0.5,12.25-4.75,25.25-10.75"/><path d="M52.75,30.95c1.02,0.48,2.88,0.56,3.9,0.48C65,30.75,79,27.75,90.44,27.33c1.69-0.06,2.71,0.23,3.56,0.46"/><path d="M54.16,42.36c0.53,0.73,0.88,1.47,1.06,2.2c0.17,0.74-0.21,47.44-0.19,54.06"/><path d="M55.27,45.3c5.92-0.31,33.9-3.81,35.47-4.01c2.81-0.37,3.86,2.39,3.51,3.49c-0.04,2.48-0.6,29.89-0.6,46.69c0,11.98-4.66,2.78-6.03,1.07"/><path d="M56.27,59.36c7.83-0.64,30.43-2.78,36.75-3.33"/><path d="M56.43,73.79C62.05,73.24,87,71,93.5,70.63"/><path d="M70.35,13.8c1.24,0.59,1.99,2.67,2.24,3.85s0,70.07-0.25,77.48"/><path d="M83,12.25c3,1.55,7.25,5.83,8,8.25"/></svg>