<svg><path d="M32.5,16.24c0,0.78,0.05,1.4-0.15,2.33c-1.04,4.87-11.67,20.85-20.13,28.05"/><path d="M34.39,21.46C38.5,23.25,43.75,28,45.75,32.5"/><path d="M21,41.75c1.37,0,2.65,0.17,4.01-0.08c4.57-0.84,9.88-2.27,14.36-2.94c1.16-0.18,2.2-0.23,3.38-0.23"/><path d="M14.09,56.81c0.59,0.33,3.06,0.48,3.67,0.43C23.25,56.75,36,54,43.04,53.08c0.74-0.1,2.38-0.13,3.49,0.15"/><path d="M31.45,43.19c0.93,0.93,1.24,1.81,1.24,3.14c0,4.35,0.06,31.42,0.06,36.73"/><path d="M16.62,65.5c3.79,4.86,5.64,10.12,6.42,12.95"/><path d="M45.54,60.3c0.23,0.71,0.32,1.82,0.01,2.35c-1.68,2.86-2.8,4.61-5.63,8.63"/><path d="M16.25,89.5c0.88,0.88,2.19,0.72,3.25,0.25c5.38-2.38,12.25-5.5,25.25-11.5"/><path d="M54.25,20.38c2.49,2.18,6.43,8.96,7.06,12.34"/><path d="M82.28,15.14c0.08,0.98-0.02,1.94-0.3,2.88c-1.61,3.97-4.86,10.35-9.17,15.69"/><path d="M52.95,39.58c0.8,0.8,1.4,2.03,1.49,3.16c0.58,3,1.45,7.59,2.04,12.23c0.17,1.35,0.34,2.67,0.52,3.93"/><path d="M54.79,40.49c6.65-1.07,20.05-2.61,26.38-3.5c3.03-0.42,5.41,0.33,4.65,3.89c-0.84,3.91-1.95,7.23-3.04,12.44"/><path d="M58.15,57.11c4.62-0.31,14.81-1.63,22.37-2.47c1.32-0.15,2.56-0.27,3.68-0.36"/><path d="M64.38,60c0.24,0.88,0.45,1.79,0.14,2.9c-2.15,7.61-8.6,21.9-19.47,29.86"/><path d="M73.83,58.35C74.86,59.39,75,61,75,62.21c0,5.17-0.1,13.38-0.1,19.51c0,9.66,1.23,10.58,11.72,10.58c9.01,0,10.39-1.8,10.39-8.91"/></svg>