<svg><path d="M29.75,13.74c0,0.82,0.05,1.48-0.15,2.47c-1.05,5.14-11.06,22.31-19.63,29.92"/><path d="M32.39,21.46c4.47,2.03,10.18,7.42,12.36,12.54"/><path d="M18.5,42c1.66,0,2.41,0.09,2.94,0.06c4.78-0.31,10.8-1.03,16.44-1.25c0.81-0.03,0.99-0.05,2.37-0.05"/><path d="M12.09,57.31c0.68,0.33,2.91,0.48,3.6,0.43c6.24-0.49,17.88-2.49,25.87-2.67c0.85-0.02,2.7-0.13,3.96,0.15"/><path d="M28.45,43.19c1.24,0.78,1.24,2.52,1.24,3.14c0,4.35,0.62,38.13,0.31,42.48"/><path d="M13.39,68.26c5.26,5.79,7.83,12.06,8.9,15.44"/><path d="M42.54,63.55c0.43,0.82,0.65,2.02,0.48,2.71c-0.43,1.78-3.81,5.04-8.61,10.27"/><path d="M12.5,93.49c1.29,0.65,2.85,0.49,4.66,0.16C18.5,93.41,28.8,89.91,42.25,86"/><path d="M49.53,28.49c1.26,0.31,2.73,0.37,3.99,0.31c11.59-0.56,26.68-2.35,40.04-2.39c2.1-0.01,3.36,0.15,4.41,0.3"/><path d="M59.3,14.97c1.42,1.47,1.94,1.9,2.02,2.81c0.76,8.78,1.09,17.25,1.49,20.32"/><path d="M82.59,13.75c0.91,1.02,1.36,2.56,1.21,4.09c-0.56,5.66-1.06,11.41-1.83,19.15"/><path d="M70.58,36.58c0.63,0.43,1.59,2.36,1.59,3.21c0,3.13-0.13,7.18-0.01,9.83"/><path d="M50.8,50.57c1.17,0.11,3.83,0.66,4.97,0.57c8.48-0.64,25.7-1.86,37.36-2.17c1.93-0.05,2.91,0.05,4.35,0.73"/><path d="M55.65,51.37c0.7,0.81,1.05,3.14,1.05,4.27c0,10.03,0,22.04,0,25.84c0,9.03,0.05,9.79,19.31,9.79c8.49,0,18.27-1.05,19.97-1.57"/></svg>