<svg><path d="M30.25,13.99c0,0.79,0.05,1.42-0.15,2.37c-1.03,4.94-10.53,21.44-18.88,28.76"/><path d="M32.64,20.46c4.02,1.95,9.15,7.13,11.11,12.04"/><path d="M20.5,40c1.5,0,2.18,0.09,2.67,0.06C27.5,39.74,33,38.53,38.1,38.3c0.74-0.03,0.9-0.05,2.15-0.05"/><path d="M12.84,55.31c1.49,0.82,4.46,0.56,6.06,0.33c5.61-0.8,14.23-2.02,20.14-2.82c0.74-0.1,2.38-0.13,3.49,0.15"/><path d="M29.45,42.19c1.06,1.06,1.24,2.43,1.24,3.89c0,4.35,0.06,26.29,0.06,34.98"/><path d="M17.14,67.01c2.6,4.01,3.87,8.35,4.4,10.69"/><path d="M42.04,60.8c0.23,0.71,0.25,1.54,0.01,2.1C41.12,65,40,67.25,37.42,71.78"/><path d="M14,87.5c1.25,1.12,2.39,0.99,4.25,0.25c1.25-0.5,11.5-5,24.5-11"/><path d="M50.56,25.65c2.94,0.35,5.07,0.22,7.33-0.07c6.73-0.86,17.81-2.55,25.5-3.12c2.5-0.19,5.13-0.45,7.59,0.16"/><path d="M53.09,36.39c2.41,0.49,4.2,0.29,6.07,0.07c6.13-0.72,16.38-2.22,22.34-2.84c1.9-0.2,3.7-0.38,5.57,0.14"/><path d="M47.4,49.26c2.85,0.61,5.41,0.23,7.72-0.06c8.86-1.11,23.6-2.68,34.37-3.41c2.43-0.17,4.75-0.38,7.14,0.2"/><path d="M68.89,12.25c1.05,1.05,1.09,2.41,0.97,4.56c-1.61,27.44-3.74,55.44-24.9,73.48"/><path d="M47.63,66.56c3.62,0.69,5.87,0.26,8.62-0.02c12.63-1.3,21.75-2.42,36.13-3.78c2.86-0.27,5.5-0.39,8.25,0.17"/><path d="M82.7,53.33c1.11,1.11,1.1,2.29,1.1,4.42c0,19.11-0.04,29.69-0.04,34.34c0,11.27-5.64,2.14-7.56,0.7"/><path d="M63.38,74.25c2.7,1.43,6.96,5.89,7.63,8.12"/></svg>