<svg><path d="M29.25,16.99c0,0.82,0.05,1.47-0.14,2.45c-0.95,5.1-9.94,22.13-17.64,29.69"/><path d="M31.64,22.46C36.2,24.25,42.03,29,44.25,33.5"/><path d="M20,45c1.5,0,2.18,0.09,2.67,0.06C27,44.74,33.75,42.75,39.1,41.8c0.73-0.13,0.9-0.05,2.15-0.05"/><path d="M14.09,59.31c0.59,0.33,2.56,0.48,3.17,0.43c5.49-0.49,18.49-3.49,25.28-4.67c0.74-0.13,1.38-0.13,2.49,0.15"/><path d="M29.45,46.19c1.24,0.78,1.24,2.52,1.24,3.14c0,4.35,0.62,32.63,0.31,36.98"/><path d="M16.39,70.01c3.19,4.76,4.75,9.91,5.4,12.69"/><path d="M43.29,64.05c0.23,0.71,0.35,1.75,0.26,2.35c-0.23,1.54-3.55,7.36-6.13,11.88"/><path d="M14,91.25c1,1,3.42,1.68,4.5,1.25c1.25-0.5,11.75-4.75,24.75-10.75"/><path d="M81.61,15c0.06,0.34-0.23,2.02-0.61,2.37c-5.32,4.86-10.03,7.3-20.66,12.09"/><path d="M55.92,28.75c1.07,1.51,1.35,2.95,1.47,4.59c0.46,6.06,1.86,29.16,2.41,37.15"/><path d="M58.38,45.13c7.84-1.12,22.15-3.17,31.66-4.58c1.42-0.21,3.91-0.18,4.8,0"/><path d="M81.67,44.81c0.4,1.18,0.67,2.42,0.61,3.8C82,55.25,81.75,58,80.6,68.49"/><path d="M49.31,71.46c1.07,0.29,3.06,0.43,4.12,0.29c4.35-0.57,29.56-3.2,41.01-3.73c1.79-0.08,2.86,0.14,3.76,0.29"/><path d="M63.43,77.84c0.05,0.45,0.21,1.29-0.11,1.79c-3.99,6.3-9.89,12.08-20.29,17.16"/><path d="M80.19,78.68c5.01,2.8,12.95,11.52,14.21,15.88"/></svg>