<svg><path d="M31.25,12.24c0,0.92,0.06,1.65-0.17,2.75c-1.2,5.74-12.6,24.89-22.35,33.38"/><path d="M32.39,21.46C36.5,23.25,41.75,28,43.75,32.5"/><path d="M19.5,41.5c1.5,0,2.18,0.09,2.67,0.06c4.33-0.31,10.33-1.53,15.44-1.75c0.74-0.03,0.9-0.05,2.15-0.05"/><path d="M12.09,54.81c0.59,0.33,3.06,0.98,3.67,0.93c5.49-0.49,16.74-2.99,23.78-3.17c0.75-0.02,2.38-0.13,3.49,0.15"/><path d="M27.45,43.19c1.24,0.78,1.24,2.52,1.24,3.14c0,4.35,0.62,32.63,0.31,36.98"/><path d="M13.64,65.76c3.63,5.23,5.41,10.89,6.15,13.94"/><path d="M40.73,62.62c0.28,0.77,0.42,1.89,0.32,2.54c-0.28,1.66-2.49,4.72-5.63,9.62"/><path d="M11,90.31c1.26,0.92,2.77,0.69,4.54,0.23C16.84,90.2,26.89,85.26,40,79.75"/><path d="M85.97,11.14c0.04,1.13-0.83,2.25-1.37,2.56c-2.93,1.64-13.82,5.36-31.3,8.26"/><path d="M53.95,26.59c0.02,0.34,0.05,0.88-0.05,1.37c-0.59,2.89-3.9,8.29-8.67,13.13"/><path d="M66.28,26.11c2.37,1.96,6.13,8.06,6.73,11.11"/><path d="M82.88,22.52c4.68,2.43,12.08,9.99,13.25,13.78"/><path d="M51.32,44.42c1.52,0.24,2.81,0.63,4.56,0.48c10.64-0.95,21.65-1.86,31.72-2.57c2.46-0.17,3.04,1.67,2.66,4.05c-0.99,6.23-2.08,12.78-2.84,20.39"/><path d="M46.5,56.98c1.85,0.24,3.3,0.69,5.35,0.48c17.9-1.9,29.81-3.28,44.01-4c2.27-0.11,4.11,0.48,5.14,0.71"/><path d="M50.97,69.01c0.9,0.15,2.51,0.51,3.58,0.44c9.86-0.73,22.83-2.31,31.79-2.6c1.43-0.05,2.33,0,3.41,0.14"/><path d="M69.87,44.95c0.48,0.87,1.37,2.86,1.42,5.77c0.23,13.95-0.14,36.7-0.14,41.45c0,10.05-6.96,1.19-7.59,0.29"/></svg>