<svg><path d="M30,17.49c0,0.78,0.05,1.41-0.14,2.35c-1,4.9-8.98,18.53-18.38,28.28"/><path d="M31.62,24.25c3.66,1.62,8.34,5.92,10.12,10"/><path d="M19.75,43.75c1.24,0,2.52,0.1,3.76-0.05c3.74-0.45,7.37-1.2,11.87-2.05c1.12-0.21,2.49-0.16,3.62-0.16"/><path d="M13.59,58.31c2.04,0.81,4.47,0.57,6.27,0.35c5.16-0.61,11.58-1.92,17.17-3.09c0.73-0.15,2.38-0.38,3.49-0.1"/><path d="M27.7,46.44c0.99,0.99,1.24,2.06,1.24,3.64c0,4.35,0.06,19.79,0.06,32.98"/><path d="M15.14,69.26c3.04,3.73,4.53,7.76,5.15,9.94"/><path d="M40.79,62.8c0.23,0.71,0.27,1.8,0.01,2.35c-1.3,2.73-2.43,4.73-5.63,8.88"/><path d="M14,90c1,1.25,2.21,0.93,3.5,0.25c11-5.75,12.25-6.5,23.25-12.5"/><path d="M78.78,13.75c-0.16,1.25-0.79,1.93-1.76,2.54c-5.9,3.71-10.65,5.84-22.72,9.5"/><path d="M48.43,35.9c2.32,0.6,4.69,0.36,6.59,0.17c7.86-0.8,22.27-2.67,29.74-3.32c2.12-0.19,4.38-0.44,6.44,0.24"/><path d="M45.74,55.52c2.76,0.48,5.34,0.36,7.65,0.04c10.69-1.49,27.31-3.06,37.24-3.79c2.27-0.17,4.37-0.27,6.96,0.26"/><path d="M52.67,44c0.92,0.92,1.52,2.42,1.57,3.34C54.75,57.5,55,60,55.61,67"/><path d="M86.32,40.25c0.8,1.12,0.7,2.26,0.48,3.68c-1.49,9.83-2.05,13.7-3.22,20.07"/><path d="M48.72,73.9c2.65,0.6,4.75,0.35,6.67,0.17c7.86-0.75,22.33-2.39,29.49-2.89c1.94-0.14,3.96-0.3,5.83,0.31"/><path d="M67.34,25c1.08,1.08,1.18,2.25,1.18,3.25c0,6.12-0.02,50.12-0.02,60.12"/><path d="M44.02,90.15c1.98,0.72,4.8,0.74,6.98,0.56c9.01-0.74,30.75-3.09,39.38-2.65c2.05,0.1,5.71,0.29,7.65,0.93"/></svg>