<svg><path d="M32.25,14.24c0,0.85,0.05,1.54-0.15,2.56c-1.04,5.34-10.92,23.17-19.38,31.07"/><path d="M34.39,21.96c4.36,2.79,9.11,7.29,12.36,12.54"/><path d="M22,42c1.5,0,2.18,0.09,2.67,0.06C29,41.74,36,41.03,41.1,40.8c0.74-0.03,0.9-0.05,2.15-0.05"/><path d="M16.09,56.81c0.59,0.33,2.56,0.48,3.17,0.43c5.49-0.49,15.99-1.74,22.78-2.67c0.74-0.1,2.38-0.13,3.49,0.15"/><path d="M29.95,43.69c1.24,0.78,1.24,2.52,1.24,3.14c0,4.35,0.31,34.92,0.31,40.98"/><path d="M16.64,67.26c3.93,5.23,5.85,10.89,6.65,13.94"/><path d="M43.7,62.55c0.3,0.84,0.46,2.06,0.34,2.76c-0.3,1.81-3.21,6.13-6.62,11.47"/><path d="M15.5,92.79c1.27,0.94,2.8,0.7,4.58,0.24c1.32-0.35,11.45-5.4,24.67-11.03"/><path d="M51.72,30.45c0.91,0.44,2.59,0.5,3.5,0.44c7.11-0.41,18.47-3.85,26.7-4.46c1.52-0.11,2.43,0.21,3.2,0.43"/><path d="M58.56,13c1.3,0.8,1.89,1.95,2.16,3.67C63,31.07,71.26,45.13,87.14,50.5c5.1,1.72,5.01-0.29,3.73-5.97"/><path d="M82.43,33.2c-0.18,0.6-0.36,1.23-0.78,1.78c-3.71,4.82-13.56,11.76-29.07,17.47"/><path d="M69.92,11.18c2.93,1.35,7.62,4.44,8.99,6.75"/><path d="M52.77,68.13c0.96,0.44,2.73,0.57,3.69,0.44c8.42-1.12,23.51-3.33,32.18-3.93c1.6-0.11,2.57,0.21,3.37,0.43"/><path d="M63.76,55.67c1.29,0.84,1.84,1.48,2.11,3.28c2.25,15.07,9.65,29.77,25.39,35.39c5.05,1.8,4.34,0.36,3.69-3.35"/><path d="M85.66,72.28c0.09,0.54,0.2,1.39-0.19,2.16C83.22,79,70.54,89.51,52.8,95.64"/><path d="M72.42,52.62c2.93,1.3,7.62,4.27,8.99,6.5"/></svg>