<svg><path d="M28,15.24c0,1.38-0.3,2.29-0.77,3.34c-2.6,5.79-9.1,16.29-16.51,23.04"/><path d="M30.64,19.96C36,23,40.12,25.25,42.75,30.25"/><path d="M17,40.53c1.5,0.14,3,0.13,4.5-0.05c4.18-0.41,8.66-1.32,13.75-2.07c1.57-0.23,3.16-0.21,4.75-0.21"/><path d="M14.59,55.06c2.08,0.46,4.18,0.37,6.29,0.08c5.5-0.77,9.25-1.39,15.92-2.32c2.6-0.36,4.58-0.7,6.23-0.59"/><path d="M27.95,42.19c0.99,0.99,1.24,2.18,1.24,3.64c0,4.35-0.06,32.23-0.06,38.79"/><path d="M15.89,66.51c3.49,4.1,4.69,8.54,5.4,10.94"/><path d="M42.2,61.8c0.3,0.77,0.18,1.73-0.16,2.3c-1.79,3.02-2.71,4.75-6.12,9.67"/><path d="M13.75,89.02c1.25,1.48,2.79,1.39,3.89,0.99C25,87.38,29.62,85.5,42.25,80.5"/><path d="M56.15,14.34c0.94,0.94,1.2,1.88,1.32,3.28c0.46,5.63,0.9,11.56,1.36,17.01c0.19,2.31,0.39,4.52,0.58,6.6"/><path d="M58.78,16.33c4.6-0.62,19.46-2.31,24.47-2.73c2.5-0.21,4.7,0.84,4.42,3.23c-0.57,4.91-1.23,11.3-1.9,17.03c-0.27,2.35-0.55,4.59-0.81,6.57"/><path d="M59.59,28.03c8.84-0.8,20.21-2.13,26.08-2.37"/><path d="M60.45,39.88c7.3-0.86,16.51-1.5,23.34-1.91"/><path d="M66.83,41.95c-0.05,1.01-0.37,1.93-0.93,2.76c-3.28,4.91-8.4,11.66-16.68,17.61"/><path d="M61.38,54.07c2.25,0.44,4.5,0.4,6.74-0.13c6.86-0.89,16.65-2.15,21.38-2.63c5.25-0.53,6.25,1.29,5.15,6.19c-1.8,8-4.72,20.96-11.45,30.88c-3.46,5.11-6.66,8.58-11.83,2.79"/><path d="M66.95,57.06c0,0.94-0.22,1.73-0.82,2.4c-3.75,5.91-8.14,9.98-14.06,14.57"/><path d="M81.09,55.65c0.08,0.79-0.13,2.13-0.65,3.18c-4.31,8.67-12.06,20.42-26.77,30.43"/></svg>