<svg><path d="M31.75,15.99c0,0.76,0.05,1.36-0.15,2.28c-1.08,4.75-11.34,20.58-20.12,27.61"/><path d="M33.39,22.96C37.5,24.75,43.25,30,45.25,34.5"/><path d="M21.5,43.5c1.5,0,2.18,0.09,2.67,0.06c4.33-0.31,10.33-1.53,15.44-1.75c0.74-0.03,0.9-0.05,2.15-0.05"/><path d="M14.59,58.31c0.59,0.33,2.56,0.48,3.17,0.43c5.49-0.49,17.49-2.24,24.28-3.67c0.73-0.15,2.38-0.13,3.49,0.15"/><path d="M29.45,46.19c1.24,0.78,1.24,2.52,1.24,3.14c0,4.35,0.31,27.42,0.31,35.48"/><path d="M17.39,69.01c2.6,4.01,3.87,8.35,4.4,10.69"/><path d="M42.79,63.55c0.23,0.71,0.35,1.75,0.26,2.35c-0.23,1.54-2.05,4.36-4.63,8.88"/><path d="M13.5,89.02c1.25,0.98,3.55,1.36,4.68,0.99c1.31-0.43,11.25-4.4,24.82-9.51"/><path d="M51.5,34.68c1.01,0.35,2.18,0.41,3.2,0.35c9.28-0.63,30.07-3.91,40.77-3.96c1.68-0.01,2.69,0.16,3.53,0.34"/><path d="M60.51,17.26c1.17,1.77,1.55,2.3,1.67,3.39c1.17,10.17,2.67,23.65,3,27.35"/><path d="M83.07,15c0.93,1.25,1.69,2.89,1.45,4.98C83.25,31,82.75,35.25,80.89,46.65"/><path d="M53.82,55.29c0.29,0.63,0.8,2.06,0.96,2.84c1.3,6.44,2.47,24.06,3.22,35.96"/><path d="M55.71,57.25c10.42-0.85,27.25-2.79,35.03-3.57c2.86-0.29,4.31,1.56,4.15,3.29c-0.58,6.36-2.39,24.03-3.31,35.7"/><path d="M72.55,56.85c0.67,0.37,1.01,1.84,1.03,2.89c0.18,9.01-0.06,23.96-0.09,28.88"/><path d="M57.05,73.42c3.4-0.38,33.16-2.37,35.96-2.42"/><path d="M58.55,91.4c7.5-0.14,23.17-1.42,33.53-1.79"/></svg>