<svg><path d="M28.75,14.24c0,0.83,0.05,1.49-0.16,2.49c-1.12,5.18-11.76,22.48-20.87,30.15"/><path d="M29.39,19.46c4.47,2.03,10.18,7.42,12.36,12.54"/><path d="M18,40.07c1.62,0,2.35,0.1,2.88,0.06c4.67-0.33,10.06-1.65,15.56-1.89c0.8-0.04,0.97-0.06,2.31-0.06"/><path d="M12.09,53.81c0.59,0.33,2.56,0.48,3.17,0.43c5.49-0.49,14.74-2.49,21.78-2.67c0.75-0.02,2.38-0.13,3.49,0.15"/><path d="M26.95,40.19c1.24,0.78,1.24,2.52,1.24,3.14c0,4.35,0.62,37.13,0.31,41.48"/><path d="M14.64,63.51c3.34,5.32,4.97,11.08,5.65,14.19"/><path d="M39.2,59.05c0.3,0.84,0.46,2.06,0.34,2.76c-0.3,1.81-2.71,5.13-6.12,10.47"/><path d="M11.5,89.39c1.24,0.79,2.73,1.1,4.46,0.7c1.28-0.29,11.15-4.57,24.04-9.34"/><path d="M46.6,22.23c0.22,0.03,1.4,0.25,2.03,0.18c2.8-0.31,10.72-1.37,13.66-2.16c2.02-0.54,2.59,0.62,2.07,2.09c-2.82,8.07-7.27,17.7-18.92,25.65"/><path d="M51.29,29.7c5.25,3.33,11.09,9.46,13.68,14.68"/><path d="M72.18,20.59c0.22,0.03,1.4,0.25,2.03,0.18c2.8-0.31,11.59-1.4,14.53-2.19c2.01-0.54,2.59,0.62,2.07,2.09c-2.82,8.07-8.77,18.2-20.42,26.15"/><path d="M74.1,29.46C81.46,33,89.62,39.51,93.25,45.05"/><path d="M47.28,59.17c0.22,0.03,1.4,0.25,2.03,0.18c2.8-0.31,11.68-1.4,14.62-2.19c2.01-0.54,2.59,0.62,2.07,2.09c-2.82,8.07-11.5,22.5-24.25,31.83"/><path d="M48.06,67.09c6.53,3.98,13.79,11.3,17.01,17.54"/><path d="M72.56,56.94c0.35,0.04,2.22,0.33,3.22,0.23c4.44-0.42,8.73-1.43,13.39-2.48c3.2-0.72,4.11,0.83,3.29,2.79c-4.48,10.78-11.53,27.14-30.01,37.76"/><path d="M73.16,63.66c3.01,5.06,16.66,24.28,20.72,28.9c1.21,1.38,2.19,2.05,3.37,2.46"/></svg>