<svg><path d="M32.25,12.24c0,0.92,0.06,1.66-0.17,2.77c-1.17,5.78-12.32,25.06-21.86,33.61"/><path d="M32.14,19.96c5.29,2.11,12.04,7.72,14.61,13.04"/><path d="M21,41.5c1.64,0,2.38,0.09,2.91,0.06c4.73-0.31,10.18-1.53,15.75-1.75c0.81-0.03,0.98-0.05,2.34-0.05"/><path d="M12.59,54.81c0.59,0.33,2.56,0.48,3.17,0.43c5.49-0.49,18.24-1.49,25.28-2.67c0.74-0.12,2.38-0.13,3.49,0.15"/><path d="M28.95,43.19c1.24,0.78,1.24,2.52,1.24,3.14c0,4.35,0.31,32.42,0.31,37.98"/><path d="M14.89,66.01c3.78,5.13,5.63,10.69,6.4,13.69"/><path d="M43.7,60.05c0.3,0.84,0.46,2.06,0.34,2.76c-0.3,1.81-2.71,5.13-6.12,10.47"/><path d="M12.5,90.28c1.33,0.96,2.92,0.72,4.77,0.24C18.65,90.16,29.21,85,43,79.25"/><path d="M51.75,18.78c0.49,1.36,1.19,2.38,1.2,4.19c0.09,13.57,0.09,46.64-0.2,72.53"/><path d="M53,21.49c12.75-1.24,32.16-2.99,39.98-2.99c1.78,0,3.3,0.87,3.27,3.73c-0.16,14.97-0.65,50.75-0.33,71.9"/><path d="M59.23,42.31c0.38,0.18,1.4,0.67,2.41,0.54c4.86-0.6,19.17-2.33,25.13-2.33c1.01,0,1.27-0.18,1.9,0"/><path d="M72.34,26.24c0.71,0.5,1.28,2.24,1.28,3.27c0,17.58,0,24.91-0.14,31.19"/><path d="M61.58,61.15c0.29,0.59,0.62,1,0.72,1.46c0.72,3.29,2.31,11.41,3.32,17.65"/><path d="M62.87,62.21c5.16-0.73,18.01-2.09,21.53-2.21c1.46-0.04,2.24,1.03,2.11,2.14c-0.48,4.19-2.42,9.01-3.2,14.56"/><path d="M65.8,77.9c6.2-0.15,12.7-1.15,19.45-1.14"/><path d="M53.37,90.66c8.46,0,30.37-2,42.06-2.39"/></svg>