<svg><path d="M31.5,16.49c0,1.16-0.05,2.22-0.43,3.32c-1.92,5.63-10.9,19.05-18.85,25.81"/><path d="M33.64,22.21c5.73,2.66,10.98,6.41,14.61,11.54"/><path d="M21.5,42.75c1.5,0.38,2.71,0.32,4.12,0.18c4.1-0.4,9.13-1.28,14.23-2.13c0.73-0.12,0.9-0.05,2.15-0.05"/><path d="M15.59,58.06c1.91,0.69,3.92,0.72,5.55,0.49c7.61-1.06,14.73-2.06,21.9-3.23c0.74-0.12,2.38-0.13,3.49,0.15"/><path d="M30.95,44.44c0.99,0.99,1.24,2.18,1.24,3.39C32.19,52.18,32,77,32,84.06"/><path d="M15.25,69c4.01,3.54,5.97,7.38,6.79,9.45"/><path d="M43.99,62.05c0.27,0.85,0.35,1.65,0.05,2.32c-1.3,2.89-2.38,5.23-5.38,10.66"/><path d="M13.25,88.92c1.12,1.08,2.15,1.16,3.92,0.59C21.88,88,28,85.88,44.5,80"/><path d="M53.38,34.31c2.37,0.56,4.46,0.39,6.14,0.2c6.8-0.77,20.33-2.2,26.87-2.65c1.69-0.12,3.42-0.31,5.06,0.25"/><path d="M61.2,19.63c0.8,0.51,1.28,2.3,1.44,3.33c0.16,1.02,0.56,16.38,1.11,26.1"/><path d="M80.84,16.25c0.96,0.96,1.04,2.38,0.94,3.58c-0.08,1.03-2.58,17.19-3.69,27.68"/><path d="M49.97,50.55c3.03,0.58,5.21,0.5,7.54,0.2c10.32-1.35,22.57-2.42,32.5-2.81c2.28-0.09,4.57-0.28,6.78,0.38"/><path d="M57.08,61.64c0.71,0.7,1.13,2.05,1.13,3.06c0,0.83,0,15.71,0,24.81c0,2.03,0,3.77,0,5"/><path d="M58.81,62.92c1.73-0.11,16.56-1.93,22.32-2.58c3.35-0.38,4.43,0.43,4.43,3.79c0,3.15-0.03,15.34-0.05,22.88c-0.01,3.54-0.02,6.06-0.02,6.12"/><path d="M59.18,76.86c4.82-0.48,19.95-2.23,25.41-2.55"/><path d="M59.55,91.41c5.65-0.54,15.83-1.41,24.78-2.05"/></svg>