<svg><path d="M30.25,14.74c0,0.72,0.05,1.29-0.14,2.15C29.14,21.38,19.96,36.36,12.1,43"/><path d="M32.89,20.21c4.36,2.16,8.61,5.16,11.61,10.04"/><path d="M19.75,40.5c1.38,0.25,2.39,0.02,3.63-0.07c4.12-0.3,8.87-0.93,14.5-1.8c0.96-0.15,1.89-0.13,2.87-0.13"/><path d="M15.34,55.56c2.04,0.56,3.8,0.38,5.41,0.2c5.75-0.63,14.46-1.88,21.28-2.69c0.74-0.09,2.38-0.38,3.49-0.1"/><path d="M29.7,43.19c0.93,0.93,0.99,2.18,0.99,3.64c0,4.35,0.06,28.67,0.06,37.73"/><path d="M16.64,66.26c3.04,4.57,4.53,9.52,5.15,12.19"/><path d="M43.54,62.05c0.23,0.71,0.25,1.54,0.01,2.1c-0.8,1.86-2.05,4.11-4.63,8.63"/><path d="M15.5,90c1.06,1.06,2.19,1.42,3.75,0.75c6.12-2.62,14.88-6.62,23.5-10.5"/><path d="M70.41,14.42c1.15,1.15,1.41,2.21,1.41,3.9c0,3.46-0.07,5.81-0.07,10.31"/><path d="M55,30.38c0,3.1-2.59,11.61-3.77,13.68"/><path d="M55.62,32.64C65,31,80.82,28.01,89.65,27.61c8.1-0.36,2.56,4.83,0.04,6.97"/><path d="M57.32,47.96c2.07,0.42,4.07,0.33,6.17,0c4.97-0.78,18.71-2.9,22-2.9c2.84,0,1.83,0.12,4.11,0.12"/><path d="M72.16,49.2c1.01,1.01,1.21,2.42,1.21,4c0,6.55-0.04,25.17-0.04,31.12"/><path d="M74.53,65.97c3.47-0.6,8.09-1.6,13.65-2.54c1.28-0.22,2.12-0.21,2.93,0"/><path d="M60.78,61.46c0.04,0.79-0.03,2.06-0.34,3.17c-2.07,7.37-8,20.06-16.63,29.04"/><path d="M57.5,76.62c4.66,2.23,19.52,10.89,27.92,15.04c2.5,1.24,5.58,2.58,8.32,3.08"/></svg>