<svg><path d="M29,13.99c0.25,1.01-0.02,1.99-0.39,2.89c-2.24,5.62-9.24,19.87-17.64,28.74"/><path d="M30.89,19.46c4.98,2.41,9.48,5.91,13.11,11.04"/><path d="M19.5,39.75c1.37,0,2.64,0.08,4.01-0.07c3.74-0.41,8.39-1.41,12.61-2.27c1.11-0.23,2.5-0.16,3.63-0.16"/><path d="M12.59,55.06c2.29,0.69,4.59,0.6,6.55,0.39c5.98-0.65,15.03-2.09,20.15-2.88c0.74-0.11,2.38-0.38,3.49-0.1"/><path d="M28.45,41.19c1.06,1.06,0.99,2.18,0.99,3.89c0,4.35,0.06,31.42,0.06,36.98"/><path d="M15.38,67.5c3.35,4.2,4.98,8.75,5.67,11.2"/><path d="M41.23,61.8c0.28,0.71,0.34,1.8,0.07,2.35C40,66.75,38.75,69,35.67,73.03"/><path d="M13.5,88.25c1.38,1.12,2.7,0.98,3.75,0.5c7.12-3.25,11.88-5.25,24.25-11"/><path d="M48.46,26.17c2.54,0.46,5.06,0.03,7.19-0.2c7.07-0.76,16.42-2.18,24.6-2.82c2.29-0.18,4.67-0.48,6.92,0.15"/><path d="M47.66,38.64c1.04,1.04,1.33,2.22,1.51,3.62c0.4,3.12,1.54,10.85,2.27,16.01c0.37,2.64,0.76,5.11,0.87,5.97"/><path d="M49.4,39.39c5.44-0.57,27.93-3.12,34.22-3.76c2.66-0.27,4.54,1.17,4.19,4.02c-0.7,5.53-1.32,10.31-2.57,17.64c-0.22,1.3-0.46,2.7-0.73,4.22"/><path d="M51.61,50.59c5.99-0.71,24.64-2.84,33.94-3.2"/><path d="M53.52,61.57c6.46-0.46,22.4-2.15,30.45-2.55"/><path d="M65.69,12c1.09,1.09,1.47,2.5,1.47,4.25c0,3.88,0.01,56.88,0.01,74.5c0,4.24-0.01,6.96-0.04,8"/><path d="M65.19,61.5c0,1.25-0.45,2.4-1.72,4.48C57.5,75.69,47.77,86.54,39.5,91.5"/><path d="M68.19,61.5c5.97,7.11,14.09,16.83,19.57,22.12c2,1.93,4.37,4.38,6.99,5.88"/></svg>