<svg><path d="M28.75,15.74c0,0.83,0.05,1.49-0.16,2.49c-1.12,5.18-11.76,22.48-20.87,30.15"/><path d="M29.39,21.71c4.29,1.91,9.77,6.98,11.86,11.79"/><path d="M18.5,41.5c1.5,0,2.18,0.09,2.67,0.06c4.33-0.31,10.33-2.03,15.44-2.25c0.74-0.03,0.9-0.05,2.15-0.05"/><path d="M12.59,55.81c0.59,0.33,2.56,0.48,3.17,0.43c5.49-0.49,15.49-2.24,22.28-3.17c0.74-0.1,2.38-0.13,3.49,0.15"/><path d="M26.45,42.19c1.24,0.78,1.24,2.52,1.24,3.14c0,4.35,0.62,35.63,0.31,39.98"/><path d="M12.64,66.01c3.63,4.94,5.41,10.3,6.15,13.19"/><path d="M39.7,60.05c0.3,0.84,0.46,2.06,0.34,2.76c-0.3,1.81-2.71,5.13-6.12,10.47"/><path d="M12,91.28c1.17,0.96,2.58,0.72,4.23,0.24C17.44,91.16,26.79,86,39,80.25"/><path d="M44.97,25.01c1.48,0.46,3.21,0.52,4.69,0.46C59.75,25,83.75,22,91.46,22.6c2.46,0.19,3.96,0.22,5.19,0.45"/><path d="M57.41,13.75c0.86,1.36,1.14,1.77,1.23,2.61c0.86,7.82,1.59,12.82,1.84,15.67"/><path d="M79.72,11.91c0.22,1.15,0.5,2,0.26,3.41c-1.44,8.28-1.59,7.9-3.16,15.69"/><path d="M62.91,40.55c0,1.57-0.64,3.96-1.28,5.3c-4.18,8.73-12.45,19.69-17.96,25.46"/><path d="M55.96,59.17c0.56,1.19,0.95,2.35,0.97,3.57c0.12,9.11-0.42,28.8-0.09,33.26"/><path d="M93.32,47.67c0,1.25,0.03,2.65-0.97,3.66c-4.56,4.6-9.07,8.87-15.11,13.24"/><path d="M73.31,40.3c0.45,0.79,1.05,2.87,1.05,3.96c0,3.34,0.15,38.54,0.15,39.22c0,9.27,1,10.5,10.75,10.5c9.5,0,10.25-1.24,10.25-11.17"/></svg>