<svg><path d="M30,13.74c0,0.81,0.05,1.45-0.15,2.42c-1.03,5.04-10.34,21.87-18.73,29.34"/><path d="M32.53,20.3c4.47,2.57,8.72,6.95,11.22,12.2"/><path d="M21,40c1.38,0.12,2.41,0.09,3.63-0.03c3.87-0.36,8.52-1.25,12.76-1.8c1.05-0.14,2.04-0.17,3.1-0.17"/><path d="M12.59,55.23c1.91,0.52,4.11,0.53,5.79,0.36c7.37-0.72,13.79-1.61,20.52-2.76c1.22-0.21,2.72-0.21,3.87-0.07"/><path d="M29.45,40.94c0.99,0.99,1.24,2.18,1.24,3.39c0,4.17,0.06,31.79,0.06,36.98"/><path d="M16.38,65.62c2.9,4.43,4.32,9.24,4.92,11.82"/><path d="M41.54,60.3c0.23,0.71,0.35,1.75,0.26,2.35c-0.23,1.54-2.05,4.36-4.63,8.88"/><path d="M14.25,88c1,0.62,2.42,0.68,3.5,0.25c1.25-0.5,12-6,25-12"/><path d="M50.53,17.5c1.97,0.5,3.37,0.69,5.46,0.5c8.27-0.75,18.02-1.88,24.19-2.25c1.82-0.11,3.25,1.5,2.8,4c-1.19,6.54-1.8,11-3.39,22.25"/><path d="M52.25,30.75c2.38,0.62,3.64,0.63,5.91,0.5c4.34-0.25,16.21-2,21.91-2.25"/><path d="M45.39,45.68c2.15,0.29,4.21,0.24,6.37,0.04c10.69-1.02,26.35-2.88,37.12-3.31c2-0.08,3.99-0.13,5.98,0.1"/><path d="M67.27,46.58c0.89,0.89,1.26,2.42,1.26,4.52c0,14.56-0.01,33.41-0.01,38.37c0,13.03-5.71,4-7.21,2.75"/><path d="M49.75,58.25c2.74,1.63,7.07,6.71,7.75,9.25"/><path d="M43.64,87.14c1.1,0.83,2.14,0.96,3.31-0.1c0.93-0.84,8.38-8.27,12.3-12.29"/><path d="M87.78,51.64c0.1,1.04-0.32,2.08-0.98,3C84.38,58,83,59.5,78.06,63.72"/><path d="M74.25,70.25c1.9,0.63,10.89,10.8,15.64,15.74c1.53,1.59,3.36,3.26,4.73,4.01"/></svg>