<svg><path d="M29.75,17.49c0,0.78,0.05,1.4-0.15,2.33c-1.04,4.87-10.92,21.1-19.38,28.3"/><path d="M31.89,22.71c4.47,1.91,10.18,6.98,12.36,11.79"/><path d="M21,43c1.5,0,2.18,0.09,2.67,0.06C28,42.74,33,41.53,38.1,41.3c0.74-0.03,0.9-0.05,2.15-0.05"/><path d="M14.59,55.81c0.59,0.33,2.56,0.48,3.17,0.43c5.49-0.49,15.74-2.49,22.78-2.67c0.75-0.02,2.38-0.13,3.49,0.15"/><path d="M28.45,43.69c1.24,0.78,1.24,2.52,1.24,3.14c0,4.35,0.62,32.63,0.31,36.98"/><path d="M14.89,66.26c3.78,5.04,5.63,10.5,6.4,13.44"/><path d="M43.17,60.55c0.33,0.85,0.5,2.09,0.37,2.82c-0.33,1.85-2.93,5.23-6.62,10.66"/><path d="M12.5,89.83c1.5,1.42,3.13,1.09,4.28,0.68c1.34-0.48,11.55-5.01,25.47-10.75"/><path d="M71.52,15.13c0.53,0.35,1.64,2.63,1.75,3.34c0.11,0.7,0.05,3.75-0.05,8.14"/><path d="M51.62,28.41c1.05,0.49,2.99,0.57,4.04,0.49c10.98-0.83,23.32-2.93,35.52-3.81c1.75-0.13,2.81,0.24,3.69,0.48"/><path d="M54,29.94c0.25,1.31,0.52,4.74,0.44,6.83C53.81,52.87,56.5,76,40.96,91.59"/><path d="M58.24,42.13c1.01,0.4,2.86,0.47,3.87,0.4c5.26-0.36,23.09-3.05,28.59-3.27c1.68-0.07,2.69,0.19,3.53,0.39"/><path d="M66.32,33.63c0.83,0.37,1.33,1.66,1.49,2.4c0.17,0.74,1.2,11.48,1.72,17.42"/><path d="M81.52,31.71c0.83,0.37,1.33,1.66,1.49,2.4c0.17,0.74-1.48,9.76-1.98,16.6"/><path d="M69.53,52.17c3.22-0.42,8.22-1.17,13.22-1.49"/><path d="M63.25,61.91c1.2,0.23,1.35,0.58,3.75,0.23c2.4-0.35,16.89-2.29,18.54-2.64c1.65-0.35,2.98,1.35,2.25,2.56C79,76.75,65.15,87.42,51.79,92.5"/><path d="M62.19,66.23c3.35,0.62,19.72,17.21,31.39,24.01c1.82,1.06,3.14,1.76,4.83,2.12"/></svg>