<svg><path d="M29.5,15.99c0,0.73,0.05,1.32-0.14,2.2c-0.97,4.59-10.22,19.89-18.14,26.68"/><path d="M31.12,22.5c3.3,1.7,7.52,6.22,9.12,10.5"/><path d="M19.25,40.5c1.5,0,2.18,0.13,2.67,0.06c4.58-0.68,8.46-1.18,13.69-2c0.73-0.11,1.52-0.05,2.4-0.05"/><path d="M13.84,54.31c2.04,0.31,3.79,0.39,5.27,0.19c5.3-0.72,11.85-2.39,16.93-3.42c0.73-0.15,2.38-0.38,3.49-0.1"/><path d="M26.7,42.94c0.99,0.99,1.24,1.81,1.24,3.14c0,4.35,0.06,28.17,0.06,36.23"/><path d="M14.62,65c3.5,4.86,5.2,10.12,5.92,12.95"/><path d="M39.04,58.55c0.23,0.71,0.27,1.8,0.01,2.35c-1.18,2.48-2.05,4.36-4.63,8.88"/><path d="M14.75,90.44c1.12,0.81,2.83,0.71,3.72,0.03c4.66-3.6,8.51-6.31,19.78-14.97"/><path d="M61.06,15.5c0.09,0.85,0.09,1.45-0.39,2.14c-2.17,3.11-5.29,6.48-10.55,10.36"/><path d="M47.03,28.5c0.86,0.86,1.1,2,1.1,3.5c0,0.63,0.08,38.31,0.1,54.62c0,4.28,0.01,7.1,0,7.38"/><path d="M49.52,42.47c4.66-0.67,9.74-2.06,10.6-2.16c0.97-0.12,1.98,0,2.84,0.22"/><path d="M49.25,57c4.38-0.5,9.66-1.54,10.46-1.62c0.91-0.09,1.62,0,2.43,0.17"/><path d="M41.25,79.37c0.66,0.93,1.81,0.99,3.02,0.35c0.71-0.37,13.4-6.7,16.42-8.49"/><path d="M70.37,22.37c0.69,0.69,0.89,1.89,0.82,2.81C70.38,35.38,69.5,42,65.2,48.21"/><path d="M71.95,23.09c1.95-0.22,6.54-1.23,9.21-1.8c2.27-0.48,3.21,0.13,2.98,2.56c-0.29,3.21-0.8,8.4-0.8,11.61c0,5.74,1.1,7.16,6.27,7.16c4.09,0,5.17-1,5.17-6.17"/><path d="M66.81,53.74c1.97,0.54,3.64,0.19,5.61-0.31c2.66-0.67,9.36-2.16,11.95-2.83c2.2-0.58,4.23,0.76,3.28,3.32c-5.9,15.96-16.4,29.71-30.05,38.5"/><path d="M66.29,60.03C68.94,60.7,79.12,73.5,89.6,85.79c1.83,2.15,4.4,4.34,7.55,5.87"/></svg>