<svg><path d="M26.25,16.49c0.09,1.34-0.1,2.62-0.57,3.87c-2.14,6.15-10.62,20.32-17.96,27.02"/><path d="M28.25,22.38c3.88,2.62,6.25,5.25,9,9.62"/><path d="M16.75,42c1.44,0.16,2.89,0.2,4.29-0.15c3.46-0.85,6.58-1.48,10.59-2.22c1.12-0.1,2.25-0.14,3.37-0.14"/><path d="M10.09,56.31c2.21,0.5,4.43,0.58,6.67,0.23c4.87-0.76,10.72-1.94,15.99-2.71c1.74-0.31,3.5-0.43,5.28-0.35"/><path d="M24.7,42.69c0.93,0.93,0.99,2.18,0.99,3.64c0,4.35,0.06,28.42,0.06,39.23"/><path d="M13.14,68.01c2.6,4.01,4.37,9.35,4.9,11.69"/><path d="M37.23,61.05c0.27,1.2-0.1,2.17-0.43,2.82c-1.04,2.01-2.24,4.73-5.38,10.16"/><path d="M11.75,91.25c1,1,2.45,0.99,3.5,0.5c6.75-3.12,10.75-5,24-11.5"/><path d="M63.09,16c0,1-0.39,1.69-1.08,2.47c-3.38,3.78-8.88,7.65-17.99,12.28"/><path d="M39.24,45.48c1.9,0.56,3.78,0.37,5.77,0.14c4.52-0.51,11.08-1.61,15.02-2.21c1.14-0.1,2.28-0.15,3.42-0.13"/><path d="M53.89,29.2c0.89,0.89,1.15,1.68,1.15,2.83c0,0.68,0,36.11-0.02,53.85c-0.01,4.82-0.02,8.34-0.03,9.5"/><path d="M54.08,45.36c-0.2,1.76-0.67,3.6-1.47,5.42C48.25,60.62,44,68.5,37.16,76.7"/><path d="M57.75,53.75c3.34,2.4,5.88,6.25,7.81,9.79"/><path d="M65.67,36.81c1.78,2.95,4.38,11.32,4.87,14.27"/><path d="M94.7,31.14c0,1.36-0.23,2.27-0.84,3.54c-1.74,3.57-4.36,8.95-7.64,13.93"/><path d="M76.78,14.8c0.63,0.78,0.95,2.4,0.96,3.71C77.99,52.17,78,78.75,61.97,95.11"/><path d="M78.75,50.88c4.21,12.56,8.86,23.41,13.15,31.11c2.24,4.02,4.02,6.99,7.47,10.19"/></svg>