<svg><path d="M28.25,14.99c0,0.82,0.05,1.48-0.14,2.46c-0.97,5.13-10.17,22.25-18.06,29.84"/><path d="M30.39,22.96C34.5,24.75,39.75,29.5,41.75,34"/><path d="M18.5,42c1.5,0,2.18,0.09,2.67,0.06C25.5,41.74,30,40.03,35.1,39.8c0.74-0.03,0.9-0.05,2.15-0.05"/><path d="M11.59,56.31c0.59,0.33,2.56,0.48,3.17,0.43c5.99-0.49,14.24-2.24,21.78-3.17c0.74-0.09,2.38-0.13,3.49,0.15"/><path d="M26.95,43.69c1.24,0.78,1.24,2.52,1.24,3.14c0,4.35,0.62,32.63,0.31,36.98"/><path d="M13.14,65.76c3.93,5.04,5.85,10.5,6.65,13.44"/><path d="M39.7,61.55c0.3,0.9,0.46,2.21,0.34,2.97c-0.3,1.95-2.71,5.52-6.12,11.26"/><path d="M12.5,87.75c1.5,1.5,3.92,2.18,5,1.75c1.25-0.5,11.25-5.75,23.25-11.75"/><path d="M79.89,15.64c0.02,0.27,0.04,0.7-0.04,1.09c-0.47,2.29-3.4,7.74-7.09,10.82"/><path d="M67.96,27.25c0.68,0.5,1.09,2.25,1.23,3.25s0,45.25-0.14,51.5"/><path d="M69.57,30.09c4.59-1.16,17.26-2.69,19.63-3.08c0.87-0.14,2.39,1.44,2.26,2.29c-0.51,3.48-2.1,9.99-3.2,15.01"/><path d="M69.54,46.04c9.21-1.04,13.21-1.54,20.71-1.8"/><path d="M68.99,59.32c6.41-1.37,18.51-2.67,21.81-3.14c1.21-0.17,1.93,1.7,1.76,2.7C91.85,63,90.53,69.04,89,74.98"/><path d="M69.46,77.21c3.14-0.52,17.31-1.44,21.29-1.96"/><path d="M47.09,17.91c3.63,1.74,9.38,7.17,10.29,9.88"/><path d="M45.96,39c4.34,0.99,11.21,4.09,12.29,5.63"/><path d="M 43.1125,57.306667 c 1.377562,0.738191 3.326806,0.174393 4.466146,-0.187396 0.920877,-0.292418 4.650521,-2.706146 6.150521,-3.136146 1.5,-0.43 3.75,1.07 2.75,2.35 -1,1.28 -4,6.19 -4.75,7.26 -0.75,1.07 -0.5,2.99 1,4.48 1.5,1.49 2.75,3.2 3.5,4.48 0.75,1.29 0.75,2.36 -0.75,3.43 -1.5,1.07 -9,7.04 -10.5,7.47"/><path d="M44.49,83.78c2.03-0.51,6.1-1.79,9.15-0.77c3.05,1.02,20.37,6.86,23.37,8.18c8.13,3.58,14.4,3.58,20.49,1.79"/></svg>