<svg><path d="M34.25,16.49c0,1.15-0.08,2.15-0.51,3.23c-2.16,5.43-11.8,18.75-19.77,24.9"/><path d="M36.5,22.5c4.63,1.9,11.5,6.96,13.75,11.75"/><path d="M21,42.76c1.79,0,3.46,0.11,5.25-0.09c4.5-0.51,8.98-1.7,14.64-2.88c1.61-0.34,3.24-0.32,4.87-0.32"/><path d="M15.84,57.06c2.29,0.56,5.04,0.23,6.8-0.03c5.77-0.88,14.94-2.86,21.75-4.23c1.55-0.31,3.08-0.73,4.64-0.33"/><path d="M32.7,44.19c0.87,0.87,1.24,2.06,1.24,3.89c0,4.35,0.06,25.67,0.06,34.73"/><path d="M18.14,66.76c4.67,4.57,6.95,9.52,7.9,12.19"/><path d="M47.42,61.3c0.33,0.84,0.23,1.89-0.13,2.51c-1.79,3.06-3.18,5.13-6.87,10.47"/><path d="M17,90.75c1,0.75,2,0.75,3.75,0c5.04-2.16,12.75-6.5,25-12.5"/><path d="M72.21,12.87c0.9,0.9,1.26,2.56,1.26,3.99c0,11.14-0.01,19.07-0.01,21.76"/><path d="M54.02,20.41c3.21,2.22,8.29,9.13,9.09,12.58"/><path d="M90.76,17.47c0.07,1.02,0.04,1.76-0.38,2.7c-1.75,3.89-3.81,7.4-8.63,12.52"/><path d="M57.86,38.86c0.89,0.89,1.42,2.25,1.42,3.39c0,0.89,0.02,18.05,0.07,27.74c0.01,2.79-0.1,6.26-0.1,6.39"/><path d="M60.08,40.35c2.33-0.12,17.98-2.06,23.81-2.7c2.95-0.32,4.94-0.01,4.93,3.35c-0.02,5.06,0.16,18.42,0.01,29.5c-0.03,2.24-0.05,4.39-0.04,6.36"/><path d="M60.29,51.19c6.84-0.56,21.59-2.19,27.48-2.57"/><path d="M60.51,62.71C67.5,62.12,79.75,61,87.7,60.5"/><path d="M60.95,74.86c6.92-0.49,18.17-1.36,26.94-1.72"/><path d="M63.63,79.9c0.37,1.1,0.01,2.19-0.75,3.31c-2.29,3.36-8.86,11.11-13.44,15.08"/><path d="M81.12,81c5.78,4.03,12.62,11.34,14.19,14.86"/></svg>