<svg><path d="M29.25,13.74c0,0.73,0.05,1.32-0.15,2.2c-1.05,4.59-11.06,19.89-19.63,26.68"/><path d="M30.89,20.21C35,22.12,40.25,27.19,42.25,32"/><path d="M18,39.5c1.5,0,2.18,0.09,2.67,0.06C25,39.24,30.5,38.53,35.6,38.3c0.74-0.03,0.9-0.05,2.15-0.05"/><path d="M12.09,54.81c0.59,0.33,2.56,0.48,3.17,0.43c5.49-0.49,15.74-2.49,22.78-2.67c0.75-0.02,2.38-0.13,3.49,0.15"/><path d="M26.45,42.19c1.24,0.78,1.24,2.52,1.24,3.14c0,4.35,0.12,34.63-0.19,38.98"/><path d="M12.39,64.51c3.78,4.38,5.63,9.13,6.4,11.69"/><path d="M40.2,59.05c0.3,0.84,0.46,2.06,0.34,2.76c-0.3,1.81-2.71,5.13-6.12,10.47"/><path d="M11.5,89.75c1.25,1,2.75,0.75,4.5,0.25c1.29-0.37,11.25-5.75,24.25-11.75"/><path d="M61.65,14.89c0.04,0.45,0.08,1.17-0.08,1.82c-0.95,3.83-7.03,12.24-14.51,17.39"/><path d="M71.13,10.81C73.09,11.21,85,26.65,90.77,30.1c2.23,1.33,3.04,2.05,5.2,2.48"/><path d="M54.52,34.05c1.13,0.4,3.19,0.45,4.32,0.4c5.26-0.2,14.88-0.7,20.22-1.17c1.86-0.16,3.01-0.31,3.95-0.11"/><path d="M61.54,44.69c0.29,0.59-0.04,1.25-0.41,1.98c-2.4,4.76-11.41,15.24-16.89,17.68"/><path d="M71.38,40.31c2.02,0.36,14.29,14.02,20.24,17.08c2.3,1.18,3.13,1.81,5.36,2.2"/><path d="M49.96,65.79c0.56,0.75,1.87,2.58,1.91,3.22c0.39,7.24,0.89,18.24,0.86,26.63"/><path d="M52.23,67.36c10.05-1.04,31.68-2.19,35.31-2.51c1.33-0.12,2.26,1.23,1.94,3.05c-1.03,5.79-1.92,18.6-2.87,25.17"/><path d="M62.33,68.58c0.23,0.48,0.57,1.97,0.57,2.58c0,7.43,0.32,13.8,0.32,23.52"/><path d="M74.51,67.8c0.58,1.42,0.89,2.28,0.83,3.47C75,79,75.52,85.25,75.52,94.53"/><path d="M39.14,97c1.47,0.4,4.18,0.47,5.65,0.4c15.33-0.67,31.4-2.77,50.08-2.58c2.46,0.03,3.93,0.19,5.16,0.39"/></svg>