<svg><path d="M26.75,15.24c0,0.75,0.05,1.35-0.14,2.26c-0.96,4.71-10.08,20.41-17.89,27.38"/><path d="M27.14,21.96c3.66,1.87,8.33,6.83,10.11,11.54"/><path d="M16.5,41c1.5,0,2.18,0.09,2.67,0.06c4.33-0.31,8.33-1.03,13.44-1.25c0.74-0.03,0.9-0.05,2.15-0.05"/><path d="M9.59,54.31c0.59,0.33,2.56,0.48,3.17,0.43c5.49-0.49,15.74-1.99,22.78-2.17c0.75-0.02,2.38-0.13,3.49,0.15"/><path d="M23.95,42.19c1.24,0.78,1.24,2.52,1.24,3.14c0,4.35,0.62,35.63,0.31,39.98"/><path d="M9.89,64.01c4.08,5.69,6.07,11.86,6.9,15.19"/><path d="M37.65,60.05c0.34,0.8,0.52,1.98,0.38,2.66c-0.34,1.74-3.04,4.94-6.87,10.07"/><path d="M9.5,90.42c1.1,0.75,2.42,0.57,3.95,0.19c1.14-0.28,9.88-4.33,21.3-8.86"/><path d="M52.06,14.75c0.95,0.61,2.52,2.96,2.52,4.16c0,4.45-0.3,8.88-0.12,12.65"/><path d="M42.49,33.11c1.07-0.11,2.79,0.1,3.65,0.05c6.35-0.41,9.51-1.91,16.77-2.2c1.42-0.06,1.85-0.2,3.19,0.2"/><path d="M52.13,43.5c1.37,1,4.37,2.25,7.66,3.11c1.68,0.44,2.95,1.74,2.53,4.36C61.08,58.75,56,80,49.91,87.25c-3.14,3.74-4.41,2.5-5.35,0.01"/><path d="M52.58,36.25c0.05,1.28,0.31,3.35-0.11,5.16C49.25,55.25,44.75,71.25,34.33,86"/><path d="M76.96,13.89c0.03,0.66,0.06,1.69-0.05,2.63c-0.64,5.55-4.35,17.73-9.41,25.19"/><path d="M75.67,30.85c0.97,0.19,2.78,0.06,3.74-0.03c3.95-0.37,8.88-0.91,13.82-1.33c1.61-0.14,2.62-0.22,3.43-0.13"/><path d="M77.53,38c0.03,0.49,0.06,1.26-0.06,1.96c-0.7,4.13-4.76,14.28-9.15,18.04"/><path d="M77.78,48.44c0.64,0.15,1.83,0.22,2.46,0.15c2.6-0.29,8.25-1.06,12.89-1.82c1.04-0.17,1.73-0.17,2.26-0.1"/><path d="M66.27,65.41c0.69,0.23,3.2,0.37,3.95,0.32c7.14-0.47,17.52-1.97,24.65-2.28c0.95-0.04,2.31,0.09,4.44,0.48"/><path d="M81.83,51.2c0.34,0.29,0.51,1.24,0.5,2.48c-0.09,18.57-7.85,32.87-21.17,39.48"/><path d="M81.53,66.43c3.51,9.28,11.64,19.83,15.41,24.05c1.28,1.44,1.73,1.65,2.31,1.79"/></svg>