<svg><path d="M30.25,13.74c0,0.82,0.05,1.48-0.15,2.47c-1.04,5.14-10.92,22.31-19.38,29.92"/><path d="M30.64,20.21c4.2,1.74,9.56,6.39,11.61,10.79"/><path d="M20,40.5c1.5,0,2.18,0.09,2.67,0.06C27,40.24,32,39.03,37.1,38.8c0.74-0.03,0.9-0.05,2.15-0.05"/><path d="M12.09,54.31c0.64,0.33,2.76,0.51,3.41,0.43c5.75-0.74,16.75-1.49,24.52-2.67c0.79-0.12,2.56-0.13,3.75,0.15"/><path d="M27.95,40.69c1.24,0.78,1.24,2.52,1.24,3.14c0,4.35,0.62,37.63,0.31,41.98"/><path d="M13.89,65.51c3.78,5.13,5.63,10.69,6.4,13.69"/><path d="M40.67,60.55c0.33,0.8,0.5,1.98,0.37,2.66c-0.33,1.74-2.93,4.94-6.62,10.07"/><path d="M11.5,91.35c1.25,0.86,2.75,0.64,4.5,0.21c1.29-0.32,11.25-4.92,24.25-10.06"/><path d="M52.31,20.75c0.36,0.27,1.04,1.44,1.17,2.44C54.28,29.81,55.5,37.64,56.2,42"/><path d="M53.65,21.55c9.77-1.04,24.37-0.75,32.09-1.65c2.46-0.29,3.87,1.49,3.56,3.49c-1.25,7.92-2.15,11.56-2.87,15.96"/><path d="M45.47,30.41c1.09,0.43,3.08,0.49,4.17,0.43c8.11-0.41,35.61-2.04,44.98-2.56c1.81-0.1,2.9,0.21,3.8,0.42"/><path d="M56.07,39.57c2.51-0.24,26.42-1.2,29.64-1.44"/><path d="M53.74,47.25c0.3,0.42,0.81,0.98,0.95,1.91c0.51,3.42,1.78,6.77,2.32,9.93"/><path d="M54.94,48.24c9.6-0.84,22.98-2.23,30.57-2.95c2.42-0.23,3.82,1.21,3.5,2.82c-0.37,1.89-1.12,5.54-1.7,7.82"/><path d="M57.4,58.21c2.6-0.23,28.08-2.05,31.42-2.28"/><path d="M69.4,12.75c0.78,0.49,1.25,2.2,1.4,3.18c0.16,0.98,0,34.89-0.16,41"/><path d="M67.99,59.48c0.37,0.88,0.11,1.98-0.19,3.06c-1.46,5.33-6.73,12.69-11.42,18.81c-1.02,1.33-0.21,1.59,0.56,1.6c10.86,0.15,28.65,6.71,34.27,13.56"/><path d="M81.64,62.92c0.1,0.81,0.17,2.77-0.2,3.93c-3.02,9.46-12.69,23.65-33.34,29.9"/><path d="M44.63,71.36c1.52,0.42,3.14,0.66,3.87,0.64c11.43-0.4,31.53-2.74,46.21-2.92c1.22-0.01,3.31-0.24,4.3,0.23"/></svg>