<svg><path d="M27.75,14.24c0,0.81,0.05,1.46-0.15,2.43c-1.08,5.06-11.34,21.96-20.12,29.45"/><path d="M30.39,19.96c3.93,1.87,8.95,6.83,10.86,11.54"/><path d="M16.5,41.21c1.73,0,2.52,0.11,3.08,0.07c5.01-0.39,10.79-1.91,16.69-2.19c0.85-0.04,1.04-0.07,2.48-0.07"/><path d="M12.09,55.31c0.59,0.33,2.56,0.48,3.17,0.43c5.49-0.49,15.74-2.24,22.28-3.17c0.74-0.1,2.38-0.13,3.49,0.15"/><path d="M25.95,41.69c1.24,0.78,1.24,2.52,1.24,3.14c0,4.35,0.62,35.13,0.31,39.48"/><path d="M13.64,65.51c3.93,5.13,5.85,10.69,6.65,13.69"/><path d="M38.74,59.55c0.27,0.92,0.41,2.25,0.3,3.02c-0.27,1.98-2.38,5.62-5.38,11.46"/><path d="M11,89.35c1.27,0.86,2.8,0.64,4.58,0.21c1.32-0.32,11.45-4.92,24.67-10.06"/><path d="M86.33,12.25c0.1,0.26,0.13,0.63-0.19,1.04c-2.64,3.4-16.94,6.61-33.92,9.35"/><path d="M52,27.84c3.3,1.58,8.28,6.02,9.11,8.47"/><path d="M87.79,22.62c0.02,0.3,0.12,0.79-0.04,1.2c-1.3,3.22-3.38,7.01-7.65,11.44"/><path d="M45.59,40.05c0.66,0.15,2.42,0.4,4.18,0.46c4.84,0.15,36.08-3.97,43.78-3.66c1.76,0.07,2.2-0.15,3.3,0"/><path d="M68.11,19.88c1.16,0.32,2.09,1.91,2.09,2.6c0,4.07,0,33.51-0.23,37.57"/><path d="M68.51,38.91c-4.6,8.88-15.56,20.34-25.91,25.47"/><path d="M70.87,38.75c3.43,2.64,19.91,16.39,23.64,18.99c1.26,0.88,2.35,1.26,3.61,1.51"/><path d="M50.4,65.46c0.32,0.57,0.33,0.94,0.5,1.64c1.44,5.75,3.24,20.56,4.08,31.14"/><path d="M52.25,67.01c12.5-1.26,28.4-2.93,35.98-3.48c2.79-0.2,4.21,1.42,4.06,2.93c-0.63,6.21-0.48,20.75-2.61,30.3"/><path d="M70.04,67.41c0.6,1.06,0.82,1.49,0.81,2.97c-0.02,6.98,0.18,21.52,0.18,23.79"/><path d="M54.06,79.96c3.31-0.27,33.49-1.76,36.22-1.76"/><path d="M55.51,95.34c8.79-0.36,24.04-1.5,34.14-1.65"/></svg>