<svg><path d="M28.75,16.24c0,0.78,0.05,1.4-0.15,2.33c-1.04,4.87-10.67,21.1-19.13,28.3"/><path d="M30.62,22.62c4.3,1.68,9.78,6.14,11.88,10.38"/><path d="M19,41.5c1.17,0,2.23,0.13,3.39-0.08c4.44-0.83,8.91-1.61,13.37-2.25c1.02-0.15,1.96-0.17,2.99-0.17"/><path d="M13.34,56.06c1.54,0.44,4.23,0.36,5.67,0.2c5.64-0.64,14.37-1.69,20.52-2.94c0.73-0.15,2.38-0.38,3.49-0.1"/><path d="M27.7,42.19c1.18,1.18,1.49,2.43,1.49,4.14c0,4.35,0.06,30.67,0.06,36.48"/><path d="M15.64,67.26c2.6,3.73,3.87,7.76,4.4,9.94"/><path d="M41.15,60.55c0.1,0.83,0,1.79-0.36,2.47c-1.54,2.86-2.79,5.52-6.62,11.26"/><path d="M13.25,87.98c0.75,0.89,2.02,0.94,3.11,0.53c3.64-1.38,10.02-3.76,24.39-9.26"/><path d="M66.11,13.5c0.95,0.95,1.18,2.12,1.18,3.93c0,1.53,0,4.07,0,6.05"/><path d="M51.11,25.94c1.87,0.59,4,0.23,5.9,0.02c6.31-0.69,17.85-2.22,24.99-2.72c1.87-0.13,3.7-0.19,5.55,0.16"/><path d="M57.5,29.62c2.38,2.84,3.46,5.34,3.67,7.22"/><path d="M80.43,26.92c0,0.71-0.14,1.51-0.21,1.8c-0.44,1.94-2.23,4.83-3.32,6.31"/><path d="M45.47,40.26c3.03,0.37,5.36,0.16,7.79-0.12c10.88-1.24,23.21-2.95,35.13-3.72c2.5-0.16,4.91-0.3,7.39,0.14"/><path d="M51.7,48.03c0.82,0.82,1.31,2.09,1.51,3.33c1.04,6.4,1.45,9.02,2.11,13.88c0.19,1.37,0.35,2.7,0.49,3.91"/><path d="M53.68,49.24c11.07-1.74,24.48-3.32,31.35-4.05c2.52-0.27,3.6,1.18,3.34,3.51c-0.31,2.85-0.87,8-2.27,13.81c-0.33,1.35-0.66,2.74-0.99,4.14"/><path d="M55.4,58.22c3-0.34,25.6-2.72,30.81-3.03"/><path d="M56.88,68.07c7.62-0.95,18.33-2.22,27.48-2.83"/><path d="M69.11,49.79c0.8,0.8,1,2.02,1,3.32C70.11,63,70,86.73,70,89.38"/><path d="M53.83,78.77c1.51,0.7,3.71,0.24,5.29,0.11c6.51-0.52,16.18-1.99,23.5-2.29c1.64-0.07,3.35-0.22,4.95,0.22"/><path d="M42.24,91.55c2.24,0.91,5.69,0.57,8.02,0.39c10.8-0.85,27.05-2.37,40.11-2.64c2.44-0.05,5.21,0.04,7.6,0.63"/></svg>