<svg><path d="M29.25,13.24c0,0.82,0.05,1.47-0.16,2.45C28,20.79,17.61,37.82,8.72,45.38"/><path d="M30.64,20.21c4.74,2.15,10.8,7.87,13.11,13.29"/><path d="M19.5,39.86c1.56,0,2.27,0.06,2.77,0.04c4.5-0.21,9.7-1.05,15-1.21c0.77-0.02,0.93-0.04,2.23-0.04"/><path d="M11.09,55.31c0.68,0.33,2.91,0.48,3.6,0.43c6.24-0.49,17.88-1.99,25.87-2.17c0.85-0.02,2.7-0.13,3.96,0.15"/><path d="M26.95,40.69c1.24,0.78,1.24,2.52,1.24,3.14c0,4.35,0.62,39.13,0.31,43.48"/><path d="M12.39,66.26c4.08,5.6,6.07,11.67,6.9,14.94"/><path d="M41.53,63.05c0.44,0.8,0.17,1.98,0,2.66c-0.44,1.74-3.42,4.94-8.35,10.07"/><path d="M11.5,92.11c1.24,0.84,2.73,0.63,4.46,0.21c1.28-0.31,11.15-4.81,24.04-9.82"/><path d="M48.52,18.1c0.97,0.41,2.74,0.46,3.71,0.41c9.67-0.57,26.41-2.12,37.63-2.1c1.61,0,2.58,0.19,3.39,0.4"/><path d="M63.1,20.4c0.53,0.54,0.95,1.44,0.95,2.39c0,2.17-0.01,6.06-0.01,9"/><path d="M54.04,33.43c1.48-0.15,10.77-1.34,11.98-1.49"/><path d="M52.81,32.18c0.58,0.63,1.01,1.27,1.02,2.16c0.02,1.86-0.08,9.05-0.14,11.62c-0.01,0.56,0.1,1.16,1.17,0.98c2.41-0.43,6.5-0.95,8.99-1.48c0.62-0.13,1.26,0.45,1.26,1.44c0,2.74-0.09,7.53-0.09,12.88"/><path d="M75.88,17.21c0.58,0.63,1.01,1.27,1.02,2.16c0.02,1.86-0.35,8.06-0.41,10.63c-0.01,0.56,0.1,1.16,1.17,0.98c2.41-0.43,9.98-0.69,12.49-1.07c1.48-0.23,1.49,0.48,1.26,1.44c-0.44,1.84-1.52,9.47-1.97,12.69"/><path d="M77.85,45.02c1.48-0.15,11.81-0.34,13.02-0.49"/><path d="M76.41,43.58c0.53,0.54,0.95,1.44,0.95,2.39c0,2.17-0.01,9.9-0.01,12.85"/><path d="M50.5,60.45c0.82,0.3,2.31,0.3,3.12,0.3c7.78,0,28.11-2.53,36.02-2.52c1.36,0,2.17,0.14,2.85,0.29"/><path d="M50.13,76.57c0.2,2-1.97,10.83-3.55,14.17"/><path d="M56.11,69.75c4.54,13.79,11.73,25.76,29.25,25.93c8.45,0.08,9-3.68,1.95-9.95"/><path d="M72.1,72.25c1.51,5.25,3.7,10.5,5.31,2.46"/><path d="M88.24,69.48c4.29,2.62,7.51,5,11,13.11"/></svg>