<svg><path d="M28.25,16.74c0,0.7,0.04,1.26-0.13,2.11c-0.92,4.39-9.66,19.03-17.15,25.53"/><path d="M29.64,21.96c4.02,1.46,9.15,5.35,11.11,9.04"/><path d="M18,43c1.5,0,2.18,0.09,2.67,0.06C25,42.74,30,41.03,35.1,40.8c0.74-0.03,0.9-0.05,2.15-0.05"/><path d="M12.09,57.31c0.59,0.33,2.56,0.48,3.17,0.43c5.49-0.49,15.74-2.99,22.78-3.17c0.75-0.02,2.38-0.13,3.49,0.15"/><path d="M26.45,45.19c1.24,0.78,1.24,2.52,1.24,3.14c0,4.35,0.62,33.63,0.31,37.98"/><path d="M12.89,67.26c4.08,4.85,6.07,10.11,6.9,12.94"/><path d="M40.7,61.55c0.3,0.84,0.46,2.06,0.34,2.76c-0.3,1.81-2.71,5.13-6.12,10.47"/><path d="M11.5,91.79c1.25,0.94,2.75,0.7,4.5,0.24c1.29-0.35,11.25-5.4,24.25-11.03"/><path d="M46.63,28.5c0.73,0.21,2.06,0.25,2.8,0.21c5.1-0.3,11.79-1.77,16.58-2.22c1.21-0.11,1.95,0.1,2.55,0.2"/><path d="M57.07,14.51c0.08,0.28,1.23,1.47,1.23,3.27c0,11.59,0.1,5.31,0.1,20.63"/><path d="M42.38,39.92c1.05,0.29,2.99,0.39,4.03,0.29c14.4-1.37,35.87-4.1,47.51-4.48c1.75-0.06,2.8,0.14,3.68,0.29"/><path d="M47.25,47.63c0.31,0.26,0.62,0.47,0.76,0.79c1.06,2.54,2.34,9.53,3.06,14.08"/><path d="M49.16,49.46c6.27-1.37,13.91-2.88,17.51-3.23c1.31-0.13,2.1,0.75,1.91,1.49c-0.78,3.07-1.69,6.77-2.84,11.01"/><path d="M51.21,60.78c4.22-0.39,10.04-1.06,15.83-1.66"/><path d="M50.02,68.28c1.67,2.23,4.32,9.15,4.74,12.61"/><path d="M65.79,64.64c0.02,0.45,0.04,1.16-0.04,1.8c-0.43,3.81-2.87,12.16-6.22,17.27"/><path d="M45,88.96c0.7,0.79,2.11,1.2,4.22,0.17c5.86-2.88,16.42-8.01,22.28-10.88"/><path d="M72.72,14.5c0.93,1.68,1.69,2.14,1.81,5.75c0.98,30.5,5.23,59,18.41,70.9c3.89,3.51,3.14,0.72,2.67-6.71"/><path d="M90.88,44.72c0.07,1.09,0.23,2.83-0.14,4.37c-2.4,9.9-10.24,30.01-23.67,42.38"/><path d="M83.93,20.09c2.61,1.79,6.78,5.87,8,8.93"/></svg>