<svg><path d="M31.25,15.24c0,0.73,0.05,1.32-0.15,2.2c-1.08,4.59-11.34,19.89-20.12,26.68"/><path d="M31.89,21.46c4.47,1.62,10.18,5.94,12.36,10.04"/><path d="M19,41.28c1.62,0,2.35,0.11,2.88,0.07c4.67-0.37,10.06-1.82,15.56-2.08c0.8-0.04,0.97-0.06,2.31-0.06"/><path d="M13.09,54.81c0.62,0.33,2.69,0.48,3.33,0.43c5.77-0.49,16.55-2.49,23.94-2.67c0.78-0.02,2.5-0.13,3.67,0.15"/><path d="M27.45,43.19c1.24,0.78,1.24,2.52,1.24,3.14c0,4.35,0.62,36.63,0.31,40.98"/><path d="M14.14,67.01c3.63,5.69,5.41,11.86,6.15,15.19"/><path d="M41.64,60.55c0.35,0.93,0.54,2.29,0.4,3.08c-0.35,2.02-3.15,5.71-7.12,11.65"/><path d="M13,92.31c1.25,0.92,2.75,0.69,4.5,0.23c1.29-0.34,11.25-5.28,24.25-10.79"/><path d="M61.1,12.47c0.16,1.28-0.04,2.96-0.57,4.05c-3.35,6.99-7.6,12.91-15.28,21.41"/><path d="M54.29,27.5c0.64,0.51,1.14,1.64,1.18,2.44c0.38,7.1-0.52,22.36-0.2,26.06"/><path d="M78.73,11.55c0.04,0.59-0.01,1.36-0.14,1.86c-0.84,3.21-1.9,5.69-3.83,9.59"/><path d="M55.29,26.66c7.48-0.67,38.73-2.1,41.93-2.47"/><path d="M73.07,25.73c0.36,0.26,0.65,0.62,0.65,1.07c0,4.61,0.04,18.56-0.18,25.82"/><path d="M56.29,35.87c7.05-0.55,34.07-2.17,37.1-2.47"/><path d="M55.43,44.75c7.44-0.47,35.43-1.95,38.62-2.2"/><path d="M55.43,54.6c7.48-0.67,38.61-2.5,41.82-2.87"/><path d="M51.56,64.63c0.35,0.25,1.08,1.89,1.15,2.4c0.07,0.51-0.11,31.97-0.11,32.6"/><path d="M52.55,66.25c1.67-0.25,8.81-2.36,11.15-2.75c1.5-0.25,2.5,0,2.5,2.5s0,8,0,9.75s-0.5,3,1,2.75c1.5-0.25,13.55-1.25,13.33-1.75"/><path d="M79.66,61.94c0.32,0.96,0.64,1.45,0.64,2.73c0,1.29,0.24,10.86,0.24,11.51"/><path d="M81.01,63.6c3.98-0.64,11.44-1.85,13.07-2.28c1.05-0.28,1.64,0.77,1.64,2.75c-0.01,6.98,0.11,17.75-0.3,28.99c-0.26,7.12-4.86,1.46-6.91-0.94"/></svg>