<svg><path d="M27.75,15.74c0,0.7,0.04,1.26-0.12,2.11c-0.87,4.39-9.1,19.03-16.15,25.53"/><path d="M31.89,20.46c4.47,2.03,10.18,7.42,12.36,12.54"/><path d="M18.5,41c1.5,0,2.18,0.09,2.67,0.06C25.5,40.74,32,38.53,37.1,38.3c0.74-0.03,0.9-0.05,2.15-0.05"/><path d="M12.09,54.81c0.59,0.33,2.56,0.48,3.17,0.43C20.75,54.75,33,52,40.04,51.08c0.74-0.1,2.38-0.13,3.49,0.15"/><path d="M26.45,43.19c1.24,0.78,1.24,2.52,1.24,3.14c0,4.35,0.12,34.13-0.19,38.48"/><path d="M12.89,64.51c3.49,5.88,5.19,12.25,5.9,15.69"/><path d="M40.7,59.05c0.3,0.84,0.46,2.06,0.34,2.76c-0.3,1.81-2.71,5.13-6.12,10.47"/><path d="M11.5,90.29c1.25,0.94,2.75,0.7,4.5,0.24c1.29-0.35,11.25-5.4,24.25-11.03"/><path d="M69.29,11.67c0.07,0.25,0.9,1.28,0.96,2.84c0.31,7.49,0.19,14.29,0.19,16.85"/><path d="M51.05,16.56c2.85,1.72,7.37,7.08,8.08,9.76"/><path d="M89.87,13.86c0.03,0.29,0.06,0.75-0.05,1.16c-0.64,2.45-4.29,7.82-9.3,11.1"/><path d="M49.74,30.69C49.6,34.23,47.19,42.53,46,44.64"/><path d="M50.97,34.01c2.12,0,30.98-3.53,41.62-4.17c7.35-0.44,4.79,3.73-0.42,7.71"/><path d="M57.03,41.52c0.26,0.3,0.55,0.54,0.64,0.93c0.74,3.43,1.67,10.12,2.42,15.15"/><path d="M58.25,42.52c4.03-0.71,20.98-2.14,24.69-2.86c0.93-0.18,2.02,0.88,1.63,2.94c-0.65,3.36-1.19,5.81-2.29,10.37"/><path d="M60.92,55.67c6.26-0.41,18.22-1.34,23.21-1.52"/><path d="M50.54,66.79c0.29,0.55,0.79,1.42,0.95,2.1c1.28,5.58,2.33,19.02,3.08,29.3"/><path d="M51.61,68.45c11.32-1.16,30.76-2.82,38.36-3.37c2.79-0.2,3.82,2.29,3.67,3.79c-0.56,5.48-2.75,18.54-3.86,27.3"/><path d="M70.51,68.29c0.64,0.53,0.75,1.18,0.75,2.16c-0.04,6.47-0.32,21.78-0.32,24.13"/><path d="M53.32,81.39c3.31-0.27,35.58-3.27,38.31-3.27"/><path d="M54.71,95.81c8.31-0.74,25.44-2.12,35.55-2.27"/></svg>