<svg><path d="M19.37,13.79c0.48,0.25,0.76,1.62,0.86,2.12c0.09,0.5,0,36.04-0.1,39.16"/><path d="M20.33,14.92c3.14-0.36,17.97-2.68,25.27-3.02c1.11-0.05,1.77-0.12,2.33,0.02"/><path d="M33.5,14.59c0.48,0.25,0.76,1.13,0.86,1.62c0.09,0.5,0.06,6.12-0.03,9.24"/><path d="M20.52,27.4c7.52-0.89,17.43-1.81,22.64-2.42c2.11-0.25,2.7,0.78,2.41,2.13c-0.53,2.43-1.32,6.54-1.86,9.46"/><path d="M20.55,38.74c3.14-0.36,21.3-1.79,24.25-2.01"/><path d="M32.83,37.91c0.48,0.25,0.76,1.12,0.86,1.62c0.09,0.5,0.06,8.98-0.03,12.1"/><path d="M20.83,53.84c3.14-0.36,15.79-1.9,23.09-2.24c1.11-0.05,1.77-0.11,2.33,0.02"/><path d="M62.79,9.96c0.11,1.05-0.03,2.42-0.39,3.31c-2.28,5.72-5.17,10.56-10.4,17.51"/><path d="M60.98,18.93c0.8,0.08,2.36,0.45,3.78,0.36c6.58-0.39,17.65-2.65,22.01-3.03c1.23-0.11,2.37,0.14,2.98,0.28"/><path d="M59.48,30.02c0.72,0.07,2.13,0.36,3.4,0.3c5.93-0.32,15.89-2.16,19.81-2.47c1.11-0.09,2.13,0.11,2.69,0.23"/><path d="M56.75,38.8c0.18,0.22,0.36,0.4,0.43,0.67c0.61,2.17,1.84,8.14,2.26,12.03"/><path d="M57.85,40.27c3.88-0.85,29.37-3.1,31.43-3.38c0.75-0.1,1.78,0.73,1.57,1.95c-0.42,2.54-1.46,6.9-2.58,10.52"/><path d="M68.16,39.06c0.12,1.44,0.95,8.47,1.07,10.1"/><path d="M79.31,38.16c-0.12,2.34-0.71,8.47-0.95,9.92"/><path d="M60,50.32C62.42,50,85.22,48,88.55,47.51"/><path d="M53.5,50c0,0.67,0.11,1.2-0.3,2c-2.11,4.16-20.51,19.63-37.7,25.79"/><path d="M53.25,53.05c8.75,4.7,31.64,16.31,34.44,17.24c2.85,0.95,3.79,1.12,5.06,1.21"/><path d="M39.27,69.64c0.67,0.25,2.85,0.29,3.53,0.26c3.2-0.14,15.7-2.39,22.38-3.79c1.01-0.21,1.97,0.05,2.83,0.26"/><path d="M25.8,80.42c1.04,0.51,4.49,0.79,5.55,0.67c6.1-0.67,24.91-3.62,44.75-4.79c1.3-0.08,4.16-0.21,6.11,0.24"/><path d="M52.97,70.43c0.89,0.69,0.89,2.23,0.89,2.78c0,3.84,0.44,19.35,0.22,23.19"/><path d="M34.75,86.4c3.69,2.85,5.5,5.94,6.25,7.61"/><path d="M72.15,79.76c0.3,0.83,0.45,2.04,0.33,2.74c-0.3,1.8-4.74,7.85-7.23,10.39"/><path d="M20.5,98.26c0.73,0.23,4.39,0.86,6,0.72c7.83-0.67,32.31-3.82,55.32-3.82c2.19,0,4.83,0.29,5.93,0.56"/></svg>