<svg><path d="M26.25,13.74c0,0.81,0.05,1.46-0.14,2.44c-0.96,5.09-10.08,22.07-17.89,29.61"/><path d="M27.39,20.3c4.65,1.73,10.6,6.33,12.86,10.68"/><path d="M16,41.09c1.5,0,2.18,0.09,2.67,0.06C23,40.83,30.25,39.5,34.6,38.37c0.72-0.19,0.9-0.05,2.15-0.05"/><path d="M11.59,54.62c0.59,0.33,2.56,0.49,3.17,0.43c5.49-0.5,13.49-2.05,20.78-3.7c0.73-0.17,2.38-0.13,3.49,0.16"/><path d="M24.45,42.81c1.24,0.79,1.24,2.56,1.24,3.19c0,4.4,0.62,33.07,0.31,37.48"/><path d="M12.89,64.96c2.6,5.19,3.87,10.8,4.4,13.83"/><path d="M37.26,59.93c0.26,0.81,0.39,2,0.29,2.69c-0.26,1.76-2.27,5-5.13,10.19"/><path d="M11,90.48c0.52,0.24,2.42,1.21,3.5,0.77c1.25-0.51,11.25-5.83,24.25-11.91"/><path d="M62.96,19.42c0.23,0.15,0.7,1.09,0.77,1.46c0.53,2.66,1.17,6.22,1.92,11.26"/><path d="M64.28,20.27c6.86-1.27,21.14-3.1,25.47-3.3c1.69-0.08,2.52,0.58,2.07,2.56C91.25,22,90.25,25,89.37,27.15"/><path d="M65.98,30.28c4.81-0.54,19.29-1.78,25.84-2.73"/><path d="M75.99,10c0.68,1,1.22,2.32,1.22,3.18c0,3.82,0.19,16.82,0.19,23.57"/><path d="M54.68,38.88c0.84,0.38,2.38,0.44,3.23,0.38c10.04-0.76,33.2-2.99,38.65-3.36c1.4-0.09,2.25,0.18,2.95,0.37"/><path d="M65.01,45.24c0.3,0.57,1.04,1.68,1.04,2.82c0,0.56,0.1,32.08-0.01,35.5"/><path d="M66.72,47.24c6.78-0.99,20.55-2.52,23.24-2.99c0.98-0.17,1.58,0.95,1.44,1.58c-0.57,2.6-1.23,5.85-2.46,9.62"/><path d="M66.17,57.88c8.08-0.63,20.96-1.63,24.97-2.24"/><path d="M66.15,67.49c9.35-0.99,21.71-2.36,22.81-2.56c1.11-0.2,1.78,1.13,1.63,1.87c-0.65,3.06-2.39,8.72-3.78,13.17"/><path d="M66.16,81.64c6.59-0.39,16.59-1.39,23.47-1.46"/><path d="M42.5,20.3c2.88,1.48,7.45,6.08,8.17,8.38"/><path d="M40,39c4.34,0.99,11.21,4.09,12.29,5.63"/><path d="M 42.5,58.66 c 1.377562,0.738191 3.326806,0.174393 4.466146,-0.187396 0.920877,-0.292418 4.650521,-2.706146 6.150521,-3.136146 1.5,-0.43 3.75,1.07 2.75,2.35 -1,1.28 -4,6.19 -4.75,7.26 -0.75,1.07 -0.5,2.99 1,4.48 1.5,1.49 2.75,3.2 3.5,4.48 0.75,1.29 0.75,2.36 -0.75,3.43 -1.5,1.07 -9,7.04 -10.5,7.47"/><path d="M39.68,85.87c2.12-0.41,6.29-1.14,9.54-0.62c7.01,1.13,18.02,4.75,24.37,6.62c10.1,2.97,15.01,3.23,21.37,1.79"/></svg>