<svg><path d="M27.75,13.74c0,0.82,0.05,1.47-0.15,2.45c-1.04,5.1-10.92,22.13-19.38,29.69"/><path d="M30.14,20.46c4.02,1.79,9.15,6.54,11.11,11.04"/><path d="M17.5,40.86c1.66,0,2.41,0.1,2.94,0.06c4.78-0.35,10.3-1.72,15.94-1.97c0.81-0.04,0.99-0.06,2.37-0.06"/><path d="M11.59,55.31c0.59,0.33,2.56,0.48,3.17,0.43c5.49-0.49,15.74-2.99,22.78-3.17c0.75-0.02,2.38-0.13,3.49,0.15"/><path d="M25.95,43.19c1.24,0.78,1.24,2.52,1.24,3.14c0,4.35,0.62,32.63,0.31,36.98"/><path d="M13.64,65.51c3.63,5.13,5.41,10.69,6.15,13.69"/><path d="M38.74,59.55c0.27,0.92,0.41,2.25,0.3,3.02c-0.27,1.98-2.38,5.62-5.38,11.46"/><path d="M11,89.32c1.25,0.9,2.75,0.67,4.5,0.22c1.29-0.33,11.25-5.16,24.25-10.54"/><path d="M66.74,13.08c0.82,0.88,1.47,1.92,1.47,4.85c0,5.7-0.02,5.46-0.02,10.25"/><path d="M68.53,19.97c5.11-0.75,11.43-2.21,16.61-2.8c1.71-0.19,2.75,0.18,3.61,0.36"/><path d="M49.9,26.97c0.55,0.56,1.11,3.61,1.11,5.62C51.01,55,51,78.75,38.7,93.42"/><path d="M50.96,30.1c0.97,0.18,2.71-0.08,4.29-0.25c13-1.35,26.22-2.86,35.78-3.02c10.08-0.17,2.97,4.99,0.46,7.03"/><path d="M55.49,39.73c0.66,0.35,2.29,0.41,2.96,0.35c6.64-0.54,17.03-2.5,24.21-3.37c1.1-0.13,1.77,0.17,2.32,0.35"/><path d="M67.31,32.83c0.44,0.38,1.03,1.87,1.03,2.4c0,4.2-0.08,3.92-0.08,5.8c0,5.58,2.46,5.16,8.82,5.16c2.37,0,8.25-0.43,10.28-1.18"/><path d="M57.21,54.03c0.22,0.36,0.64,1.57,0.77,2.01c0.99,3.64,1.89,9.3,2.47,16.01"/><path d="M58.68,55.07c9.55-1.07,24.26-2.9,30.17-2.79c1.44,0.03,2.31,1.24,2.31,2.38c0,3.61-0.87,8.44-2.41,15.13"/><path d="M72.43,54.52c1.07,0.73,1.48,1.27,1.47,1.91c-0.03,4.22,0.14,11.06,0.14,12.59"/><path d="M60.09,61.96c2.57-0.18,27.67-2.23,29.8-2.23"/><path d="M60.86,70.12c7.14-0.37,19.69-2.28,27.54-2.38"/><path d="M54.79,77.62c0.48,0.76,1.1,1.58,1.21,2.23c0.81,5.13,0.96,7.18,1.7,13.97"/><path d="M56.37,79.23c8.61-1.06,31.21-4.13,34.33-3.99c1.35,0.06,2.15,0.19,1.97,2.21c-0.26,2.98-1.58,10.36-2.58,14.37"/><path d="M67.99,78.68c0.2,0.49,0.49,0.89,0.49,1.51c0,4.37,0.19,8.7,0.19,12.71"/><path d="M79.24,77.59c0.37,0.58,0.75,1.59,0.65,2.34c-0.55,4.37-0.73,8.5-0.96,12.18"/><path d="M46.87,94.39c1.31,0.47,3.72,0.55,5.04,0.47C65.59,94.07,80.5,92,96.58,91.93c2.19-0.01,3.5,0.23,4.6,0.46"/></svg>