<svg><path d="M27.75,14.24c0,0.79,0.05,1.42-0.15,2.37c-1.08,4.94-11.34,21.44-20.12,28.76"/><path d="M29.89,19.96C34,21.83,39.25,26.8,41.25,31.5"/><path d="M17.5,40.78c1.6,0,2.32,0.11,2.84,0.07c4.61-0.37,9.94-1.82,15.37-2.08c0.79-0.04,0.95-0.06,2.29-0.06"/><path d="M11.59,55.31c0.59,0.33,2.56,0.48,3.17,0.43c5.49-0.49,16.49-2.49,23.28-3.17c0.74-0.07,2.38-0.13,3.49,0.15"/><path d="M25.95,41.69c1.24,0.78,1.24,2.52,1.24,3.14c0,4.35,0.62,35.13,0.31,39.48"/><path d="M13.89,65.51c3.49,5.13,5.19,10.69,5.9,13.69"/><path d="M38.76,59.55c0.26,0.87,0.39,2.13,0.29,2.87c-0.26,1.88-2.27,5.33-5.13,10.86"/><path d="M11,89.32c1.26,0.9,2.77,0.67,4.54,0.22C16.84,89.21,26.89,84.38,40,79"/><path d="M68.85,10.25c0.08,0.63,0.3,1.72-0.15,2.55C65.43,18.84,55.91,29.27,41,37.25"/><path d="M68.95,12.38c3.71,3.54,19.65,15.46,23.75,18.05c1.39,0.88,3.17,1.26,4.56,1.51"/><path d="M56.15,30.69c0.67,0.33,1.9,0.37,2.57,0.33c4.82-0.27,14.77-1.52,20.22-1.88c1.12-0.07,1.79,0.16,2.35,0.32"/><path d="M45.76,39.83c0.22,0.28,0.48,0.51,0.55,0.88c0.63,3.25,1.44,8.58,2.07,13.35"/><path d="M47.15,41.24c4.1-0.69,6.64-1.24,10.42-1.93c0.95-0.17,1.52,0.8,1.39,1.59c-0.57,3.28-1.06,4.8-2.06,10.26"/><path d="M48.85,53.35c3.06-0.42,5.4-0.6,9.5-0.78"/><path d="M63.95,38.55c0.2,0.27,0.43,0.48,0.5,0.84c0.58,3.11,1.31,9.64,1.89,14.21"/><path d="M64.72,39.87c3.75-0.66,6.97-0.68,10.43-1.35c0.87-0.16,1.39,0.77,1.27,1.52c-0.52,3.14-0.97,4.6-1.88,9.82"/><path d="M66.77,51.96c3.73-0.21,5.23-0.71,9.14-0.71"/><path d="M81.61,38.05c0.22,0.27,0.46,0.48,0.53,0.84c0.61,3.11,1.4,9.64,2.01,14.2"/><path d="M82.46,39.87c3.99-0.66,6.41-1.18,10.09-1.85c0.92-0.16,1.48,0.77,1.35,1.52c-0.55,3.14-1.03,4.6-2,9.82"/><path d="M84.61,51.46c3.14-0.21,4.63-0.09,8.71-0.71"/><path d="M47.67,62.1c0.4,0.7,0.89,1.8,0.95,3.04c0.33,6.69-0.39,26.9,0.08,33.7"/><path d="M48.29,63.17c5.13-0.3,39.54-3.75,40.56-3.75c1.9,0,3.44,2.08,3.44,4.36c0,7.28,0.06,16.15-0.03,29.12c-0.06,8.57-3.7,4.16-6.42,1.03"/><path d="M48.6,77.05c10.44-0.37,32.54-2.61,43.51-2.6"/><path d="M62.23,63.91c0.59,0.88,1.02-0.64,1.05,2.19c0.15,13.61-0.2,26.76-0.23,31.38"/><path d="M75.41,61.88c0.59,0.88,1.01,0.89,1.04,3.72c0.15,13.6-0.2,26.88-0.23,31.5"/></svg>