<svg><path d="M25.68,10.76c0.84,1.02,1.43,2.02,1.43,2.84c0,2.53,0.08,4.61,0.08,8.4"/><path d="M33.91,9.75c0.84,1.2,1.01,1.92,1.01,2.88c0,0.96,0.08,4.38,0.08,8.74"/><path d="M14.6,12.75c2.21,1.07,5.7,4.41,6.25,6.08"/><path d="M45.78,11.34c0.02,0.19,0.03,0.49-0.03,0.76c-0.38,1.6-2.54,5.12-5.49,7.28"/><path d="M13.02,23.12c1.02,0.28,2.88,0.35,3.89,0.28c9.56-0.67,22.63-2.84,31.26-3.21c1.69-0.07,2.71,0.13,3.55,0.27"/><path d="M23.91,23.59c0.88,0.9,2.26,3.68,2.48,5.07"/><path d="M40.02,23.8c0.01,0.16,0.03,0.4-0.02,0.63c-0.29,1.32-1.98,4.21-4.29,5.98"/><path d="M16.3,31.95c0.86,0.28,2.42,0.32,3.28,0.28c6.8-0.29,16.39-1.37,22.63-2.22c1.41-0.19,2.28,0.13,2.99,0.27"/><path d="M14.48,37.78c0.94,0.32,2.67,0.35,3.62,0.32c6.17-0.18,21.12-2.16,29.78-3.16c1.55-0.18,1.97-0.18,2.76-0.02"/><path d="M30.01,33.32c0.91,0.38,1.64,1.68,1.64,2.45c0,5.47,0.03,9.62,0.03,17.73"/><path d="M25.1,40.97c0.02,0.12,0.1,0.35-0.05,0.48c-1.99,1.7-4.31,3.21-8.85,4.56"/><path d="M15.67,45.39c0.57,0.27,0.8,0.87,0.95,1.43c0.52,2.02,2.65,9.93,3.17,12.67"/><path d="M18.35,50.57c2.26-0.12,6.5-1.1,7.04-1.1c0.54,0,1.29,0,1.72,0"/><path d="M37.45,41.68c0.54,0.06,0.97,0.18,1.72,0.18c0.75,0,6.22-1.23,7.08-1.29s1.57,0.3,1.51,0.66c-0.65,3.51-2.15,15.34-2.26,15.58"/><path d="M37.17,48.22c0.54,0.06,0.97,0.18,1.72,0.18s6.5,0.02,7.36-0.04"/><path d="M20.03,57.46c1.4,0,23.92-1.79,25.53-1.85"/><path d="M62.42,12.56c0.21,0.39,0.42,1.23,0.4,1.8c-0.15,5.86-1.76,12.61-6.47,15.07"/><path d="M63.3,13.76c1.63,0.17,11.13-1.85,12.22-2.19c1.62-0.51,2.44,1.08,2.28,2.21c-0.32,2.21-1.49,5.95-1.49,8.16c0,3.06,1.31,4.77,6.68,4.77c6.34,0,8.18-2.21,8.18-6.63"/><path d="M59.05,34.27c0.98,0.2,1.1,0.5,3.05,0.2c1.95-0.3,15.33-1.65,16.67-1.95c1.34-0.3,2.53,1.23,1.83,2.22C76,41.25,69,47.75,58.75,51.67"/><path d="M59.48,39.39c2.99,0.36,17.58,9.87,27.98,13.77c1.62,0.61,2.8,1.01,4.31,1.21"/><path d="M53.5,54c0,0.59,0.12,1.05-0.34,1.76C50.8,59.44,30.22,73.1,11,78.53"/><path d="M52.75,57.05c8.99,2.8,33.04,15.42,35.96,16.3c2.98,0.9,3.95,1.06,5.29,1.15"/><path d="M40.27,71.66c0.67,0.25,2.85,0.33,3.53,0.26c3.15-0.34,6.32-0.91,19.38-1.79c1.03-0.07,1.97,0.05,2.83,0.26"/><path d="M30.3,80.11c0.83,0.31,3.58,0.44,4.43,0.41c8.02-0.27,27.02-1.77,38.85-3.14c1.04-0.12,3.33-0.13,4.88,0.15"/><path d="M52.97,71.46c0.89,0.69,0.89,2.23,0.89,2.78c0,3.84,0.44,17.85,0.22,21.69"/><path d="M34.5,84.67c4.73,3.32,7.04,6.92,8,8.86"/><path d="M69.65,82.28c0.3,0.72,0.45,1.77,0.33,2.38c-0.3,1.56-4.74,6.81-7.23,9.01"/><path d="M23.5,96.29c0.73,0.23,4.39,0.8,6,0.72c10-0.5,31.81-1.82,54.82-1.82c2.19,0,4.83,0.29,5.93,0.56"/></svg>