<svg><path d="M17.41,15.04c0.72,0.46,2.25,3.42,2.39,4.34c0.15,0.91-0.09,72.05-0.24,77.76"/><path d="M20.02,16.58c2.44-0.1,17.77-2.16,19.99-2.28c1.85-0.1,2.81,0.91,2.9,1.71c0.14,1.23-2.04,25.32-2.04,25.92"/><path d="M20.45,28.89c5.99-0.59,15.12-1.62,20.88-2.26"/><path d="M20.02,41.98c8.11-1.15,12.89-1.53,20.06-2.06"/><path d="M64.44,14.01c0.44,0.55,0.88,1.74,0.88,2.48c0,0.74,0.35,23.04,0.5,23.78"/><path d="M66.05,15.16c2.49-0.11,19.21-2.79,21.49-2.92c1.9-0.11,2.98,1.15,2.97,1.8c-0.49,19.46-0.5,61.79-0.5,75.9c0,11.81-6.45,2.66-7.9,1.36"/><path d="M66.49,26.22c3.38,0,18.59-2.24,22.4-2.24"/><path d="M66.05,37.76c4.99,0,16.09-2.06,22.55-2.06"/><path d="M32.96,51.07c1.35,0.32,3.54,0.54,4.35,0.48c10.54-0.8,24.44-3.3,37.17-4.05c0.96-0.06,3.1,0.48,4.06,0.8"/><path d="M53.79,52.55c0.6,0.69,0.68,1.8,0.68,3.08c0,6.76-0.19,31.85-0.19,40.37"/><path d="M59.02,61.49c2.6,1.44,10.79,7.44,11.92,9.93"/></svg>