<svg><path d="M17.39,14.79c0.73,0.46,2.28,3.48,2.43,4.4c0.15,0.93-0.09,72.64-0.24,78.44"/><path d="M19.52,17.08c2.44-0.1,18.27-2.66,20.49-2.78c1.85-0.1,2.81,0.91,2.9,1.71c0.14,1.23-2.04,28.82-2.04,29.42"/><path d="M19.95,30.89c5.99-0.59,15.62-1.62,21.38-2.26"/><path d="M20.52,45.98c8.11-1.15,12.39-2.03,19.56-2.56"/><path d="M64.44,14.51c0.44,0.55,0.88,1.74,0.88,2.48c0,0.74,0.21,26.31,0.21,26.67"/><path d="M65.55,15.16c2.49-0.11,19.71-2.79,21.99-2.92c1.9-0.11,2.98,1.15,2.97,1.8c-0.49,19.46-0.5,64.29-0.5,78.4c0,10.56-6.95,0.16-8.4-1.14"/><path d="M65.99,27.22c3.38,0,20.09-1.74,23.9-1.74"/><path d="M66.05,40.76c4.99,0,17.59-1.56,24.05-1.56"/><path d="M32.25,64.21c1.08,0.34,3.06,0.34,4.14,0.34c7.86-0.05,29.61-2.3,36.58-2.94c1.79-0.16,2.88,0.16,3.78,0.33"/></svg>