<svg><path d="M18.64,14.79c0.91,0.91,1.18,2.09,1.18,3.4c0,0.69-0.11,51.55-0.2,70.68c-0.02,4.55-0.04,7.4-0.04,7.51"/><path d="M20.76,16.84c5.55-0.57,18.96-2.45,20.76-2.54c1.85-0.1,2.9,0.83,2.9,2.21c0,1.24-0.31,12.26-0.64,20.51c-0.04,0.91-0.14,2.31-0.14,2.91"/><path d="M20.95,27.89c5.99-0.59,16.37-2.12,22.13-2.76"/><path d="M20.77,39.48c8.11-1.15,14.64-2.03,21.81-2.56"/><path d="M62.94,13.26c0.78,0.77,1.13,1.61,1.13,2.73c0,0.74-0.29,20.31-0.29,20.67s0.04,1.21,0.04,1.86"/><path d="M65.03,14.83c5.74-0.74,19.94-3.24,21.76-3.34c1.9-0.11,2.97,1.65,2.97,2.3c0,19.46-0.25,65.71-0.25,78.15c0,9.94-6.45,2.16-7.9,0.86"/><path d="M65.24,24.72c5.13-0.47,18.51-1.59,23.15-1.99"/><path d="M65.05,36.01c6.57-0.51,16.2-1.51,23.3-1.81"/><path d="M35.63,51.67c2.25,0.46,4.51,0.09,6.76-0.14c5.36-0.53,16.39-1.77,23-2.46c1.92-0.2,3.82-0.4,5.74-0.04"/><path d="M29.88,67.17c2.42,0.69,5.04,0.4,7.51,0.19c9.41-0.83,22.74-2.17,33.62-2.82c2.38-0.14,4.65-0.15,7,0.25"/><path d="M44.53,54.75c0.92,0.92,1.42,2.3,1.43,3.46c0.17,16.04-3.2,25.79-12.79,30.71"/><path d="M60.37,52c0.88,0.88,1.46,2.38,1.46,3.75c0,3,0.06,19.2-0.1,29.38c-0.04,2.21-0.08,4.01-0.11,5.12"/></svg>