<svg><path d="M18.39,15.29c0.73,0.46,1.28,3.48,1.43,4.4c0.15,0.93-0.09,71.64-0.24,77.44"/><path d="M20.02,17.08c2.44-0.1,17.77-2.66,19.99-2.78c1.85-0.1,2.81,0.91,2.9,1.71c0.14,1.23-2.04,25.32-2.04,25.92"/><path d="M20.45,28.89c5.99-0.59,15.12-1.62,20.88-2.26"/><path d="M20.02,41.98c8.11-1.15,12.89-2.03,20.06-2.56"/><path d="M64.44,13.51c0.44,0.55,0.88,1.74,0.88,2.48c0,0.74,0.21,23.81,0.21,24.17"/><path d="M66.05,15.16c2.49-0.11,19.71-2.79,21.99-2.92c1.9-0.11,2.98,1.15,2.97,1.8c-0.49,19.46-0.5,63.29-0.5,77.4c0,12.06-7.95,1.66-9.4,0.36"/><path d="M65.99,26.22c3.38,0,20.59-1.74,24.4-1.74"/><path d="M65.55,37.76c4.99,0,18.59-1.06,25.05-1.06"/><path d="M52.88,42c0.61,0.38,1.91,2.87,2.03,3.64c0.12,0.77-0.08,31.13-0.2,35.93"/><path d="M35.68,57.07c0.61,0.38,1.32,2.01,1.23,2.78c-0.65,5.4-0.4,13.8-1.62,22.11c-0.25,1.74,0.5,2.71,2.02,2.4C44,83,63.75,80.75,73.35,79.68"/><path d="M73.73,52.94c0.61,0.38,1.22,2.86,1.22,3.64c0,5.97-0.7,15.39-1.51,26.89"/></svg>