<svg><path d="M18.39,14.79c0.73,0.46,1.28,2.98,1.43,3.9c0.15,0.93-0.09,73.14-0.24,78.94"/><path d="M20.02,17.08c2.44-0.1,17.27-2.66,19.49-2.78c1.85-0.1,2.81,0.91,2.9,1.71c0.14,1.23-1.54,25.82-1.54,26.42"/><path d="M20.45,29.39c5.99-0.59,15.12-2.12,20.88-2.76"/><path d="M20.52,41.98c8.11-1.15,13.39-2.03,20.56-2.56"/><path d="M64.44,14.01c0.44,0.55,0.88,1.74,0.88,2.48c0,0.74-0.15,23.04,0,23.78"/><path d="M66.05,15.16c2.49-0.11,19.71-2.79,21.99-2.92c1.9-0.11,2.98,1.15,2.97,1.8c-0.49,19.46-0.48,63.79-0.5,77.9c-0.01,10.31-7.45,2.16-8.9,0.86"/><path d="M66.49,26.22c3.38,0,19.09-1.74,22.9-1.74"/><path d="M65.55,37.76c4.99,0,18.59-1.06,25.05-1.06"/><path d="M52.49,39.25c0.69,0.38,1.82,1.85,1.82,2.61c0,2.79,0.28,5.72,0.41,8.09"/><path d="M30.06,52.29c1.16,0.06,3.79,0.43,4.92,0.34c9.09-0.72,28.08-3.7,40.42-3.89c1.91-0.03,2.88,0.03,4.3,0.44"/><path d="M36.36,62.76c0.42,0.24,1.32,1.79,1.41,2.26c0.08,0.48,0.44,19.17,0.36,22.15"/><path d="M37.64,63.93c2.65-0.17,31.12-3.59,33.1-3.69c2.33-0.12,2.69,2.1,2.74,3.19c0.3,5.82,0.56,14.21-0.69,19.04c-1.3,5.03-4.23,0.04-5.11-0.8"/><path d="M52.91,53.31c0.42,0.24,1.32,1.79,1.4,2.26c0.09,0.48,0.2,39.08,0.11,42.06"/></svg>