<svg><path d="M18.39,15.29c0.73,0.46,1.28,3.48,1.43,4.4c0.15,0.93-0.09,71.64-0.24,77.44"/><path d="M20.02,17.08c2.44-0.1,17.27-2.66,19.49-2.78c1.85-0.1,2.81,0.91,2.9,1.71c0.14,1.23-1.54,25.82-1.54,26.42"/><path d="M20.45,28.89c5.99-0.59,14.62-1.62,20.38-2.26"/><path d="M20.02,41.98c8.11-1.15,12.39-2.03,19.56-2.56"/><path d="M64.44,14.01c0.44,0.55,0.88,1.74,0.88,2.48c0,0.74-0.15,22.54,0,23.28"/><path d="M66.05,15.16c2.49-0.11,19.71-2.79,21.99-2.92c1.9-0.11,2.98,1.15,2.97,1.8c-0.49,19.46-0.5,64.29-0.5,78.4c0,6.88-3.14,5.32-5.31,3.25c-1.78-1.7-3.14-2.59-4.59-3.89"/><path d="M66.49,26.22c3.38,0,19.09-2.24,22.9-2.24"/><path d="M66.05,37.76c4.99,0,17.59-1.06,24.05-1.06"/><path d="M52.59,42c0.56,0.37,1.48,1.78,1.48,2.5c0,2.88-0.02,7.69-0.08,9.75"/><path d="M31.71,56.02c0.99,0.08,2.86,0.47,3.83,0.42c8.09-0.4,27.33-3.76,37.92-3.99c1.64-0.03,2.47,0.04,3.69,0.54"/><path d="M62.62,56.48c0.4,0.8,0.92,1.44,0.2,2.84C56,72.5,44.75,85,31.04,92.5"/><path d="M39.86,57.47c8.09,7.64,19.65,22.05,29.24,30.02c1.8,1.5,3.13,1.48,4.7,1.61"/></svg>