<svg><path d="M18.89,15.54c0.85,0.85,1.18,2.21,1.18,4.15c0,4.56,0.04,49.8,0.02,69.18c0,3.94-0.01,6.58-0.01,7.26"/><path d="M20.52,16.83c2.04-0.08,13.53-1.73,18.48-2.32c2.65-0.32,4.91-0.33,4.95,2.87c0.04,3.05,0.01,10.42-0.01,16.63c-0.01,2.02-0.01,3.91-0.01,5.49"/><path d="M20.95,27.39c7.05-1.14,16.62-2.12,22.38-2.76"/><path d="M21.27,38.98c8.11-1.15,14.39-2.03,21.56-2.56"/><path d="M63.69,13.26c0.84,0.84,0.88,1.86,0.88,2.73c0,0.43,0.01,11.09,0.01,18.26c0,1.67,0,3.16,0,4.27"/><path d="M65.3,14.66c2.86-0.44,14.7-2.24,19.96-2.91c3.25-0.42,5.24-0.27,5.24,3.38c0,21.94,0,62.05,0,76.81c0,11.31-5.95,2.16-7.4,0.86"/><path d="M65.74,24.72c5.38-0.47,19.84-1.74,23.65-1.74"/><path d="M66.05,36.01c6.94-0.35,15.45-1.38,23.3-1.81"/><path d="M33.49,57.58c2.38,0.42,4.02,0.17,6.01-0.06c6.48-0.75,20.17-2.7,28.12-3.6c2.09-0.24,3.52-0.24,5.52,0.15"/><path d="M52.16,41.75c1.11,1.11,1.38,2.12,1.38,3.6c0,2.54,0,26.48-0.02,38.9c0,4.26-0.01,7.17-0.02,7.38"/><path d="M51.28,56.86c0,1.27-1.24,3.25-2.2,4.85c-4.92,8.16-13.6,17.36-20.58,21.55"/><path d="M54,57c2.79,2.55,11.96,12.62,17.84,18.29c1.78,1.71,4.41,3.96,6.66,4.96"/></svg>