<svg><path d="M18.39,15.29c0.73,0.46,1.28,3.48,1.43,4.4c0.15,0.93-0.09,70.64-0.24,76.44"/><path d="M20.02,16.58c2.44-0.1,17.27-2.16,19.49-2.28c1.85-0.1,2.81,0.91,2.9,1.71c0.14,1.23-1.54,25.82-1.54,26.42"/><path d="M20.45,28.89c5.99-0.59,14.62-2.12,20.38-2.76"/><path d="M20.02,41.98c8.11-1.15,12.39-2.03,19.56-2.56"/><path d="M64.44,13.51c0.44,0.55,0.88,1.74,0.88,2.48c0,0.74,0.21,24.31,0.21,24.67"/><path d="M66.05,15.16c2.49-0.11,19.71-2.79,21.99-2.92c1.9-0.11,2.98,1.15,2.97,1.8c-0.49,19.46-0.5,62.79-0.5,76.9c0,12.31-6.51,3.31-8.4,1.36"/><path d="M66.49,26.22c3.38,0,19.09-1.74,22.9-1.74"/><path d="M66.05,37.76c4.99,0,16.59-1.56,23.05-1.56"/><path d="M33.66,48.68c0.26,0.4,0.7,1.26,0.83,1.75c1.31,4.99,3.06,14.3,3.75,21.71"/><path d="M35.32,50.14c10.08-0.92,26.56-2.78,33.5-3.17c2.55-0.14,4.08,0.71,3.99,2.38c-0.22,3.97-2.33,18.43-3.33,20.87"/><path d="M37.4,59.91c3.03-0.19,31.67-2.5,34.17-2.5"/><path d="M38.73,70.26c8.78-0.9,21.65-1.76,31.25-2.14"/><path d="M52.6,50.2c0.66,0.36,1.07,1.32,1.06,2.48c-0.02,5.84,0.22,42.64,0.22,44.54"/></svg>