<svg><path d="M18.39,15.29c0.73,0.46,1.28,3.48,1.43,4.4c0.15,0.93-0.09,71.64-0.24,77.44"/><path d="M20.02,17.58c2.44-0.1,18.27-2.66,20.49-2.78c1.85-0.1,2.81,0.91,2.9,1.71c0.13,1.21-1.54,21.82-1.54,22.42"/><path d="M20.45,27.89c5.99-0.59,15.62-2.12,21.38-2.76"/><path d="M20.02,38.98c8.11-1.15,13.39-2.03,20.56-2.56"/><path d="M64.44,14.01c0.44,0.55,0.88,1.74,0.88,2.48c0,0.74-0.15,21.04,0,21.78"/><path d="M66.05,15.16c2.49-0.11,19.71-2.79,21.99-2.92c1.9-0.11,2.98,1.15,2.97,1.8c-0.49,19.46-0.5,64.29-0.5,78.4c0,11.31-6.95,2.66-8.4,1.36"/><path d="M66.49,25.22c3.38,0,19.09-1.74,22.9-1.74"/><path d="M66.05,35.76c4.99,0,18.09-1.56,24.55-1.56"/><path d="M33.28,49.96c0.97,0.35,2.76,0.49,3.72,0.35c7.46-1.11,22.39-2.61,31.13-3.08c1.62-0.09,2.59,0.17,3.4,0.34"/><path d="M32.73,58.58c0.22,0.23,0.48,0.42,0.55,0.72c0.63,2.69,1.94,9.29,2.58,13.23"/><path d="M34.11,60.16c4.11-0.57,10.57-1.66,14.37-2.24c0.95-0.14,1.53,0.66,1.39,1.32c-0.57,2.71-1.06,5.57-2.07,10.08"/><path d="M36.32,70.63c3.07-0.34,8.23-0.94,12.44-1.47"/><path d="M31.33,83.85c0.53,0.53,1.58,0.81,3.16,0.11c4.39-1.95,12.3-5.42,16.69-7.36"/><path d="M54.19,37.5c1.1,1.1,1.68,1.4,1.79,3.77c0.82,18.09,6.78,35.98,17.61,45.06c3.77,3.16,3.71,0.47,3.16-4.4"/><path d="M71.01,56.74c0.06,0.71,0.13,1.82-0.12,2.83c-1.49,5.98-10.02,19.76-21.71,27.79"/><path d="M72.05,41.07c1.88,0.91,4.89,2.98,5.77,4.54"/></svg>