<svg><path d="M18.39,15.29c0.73,0.46,1.28,2.98,1.43,3.9c0.15,0.93-0.09,72.64-0.24,78.44"/><path d="M20.02,17.08c2.44-0.1,18.77-2.16,20.99-2.28c1.85-0.1,2.81,0.91,2.9,1.71c0.14,1.23-2.04,21.32-2.04,21.92"/><path d="M20.45,27.89c5.99-0.59,16.12-2.12,21.88-2.76"/><path d="M20.02,38.98c8.11-1.15,14.89-2.03,22.06-2.56"/><path d="M64.44,13.51c0.44,0.55,0.88,1.74,0.88,2.48c0,0.74-0.15,21.04,0,21.78"/><path d="M66.05,15.16c2.49-0.11,19.71-2.79,21.99-2.92c1.9-0.11,2.98,1.15,2.97,1.8c-0.49,19.46-0.5,64.29-0.5,78.4c0,10.81-6.45,2.66-7.9,1.36"/><path d="M66.49,25.22c3.38,0,20.09-1.74,23.9-1.74"/><path d="M65.55,35.76c4.99,0,18.59-1.56,25.05-1.56"/><path d="M49.97,38.68c0.05,0.51,0.22,1.37-0.1,2.06c-2.36,5.01-8.35,13.87-18.08,19.71"/><path d="M50.02,47.05c0.45,0.18,1.06,0.2,1.78,0.12c3.94-0.42,8.69-1.42,12.51-2.35c1.73-0.42,2.14,0.6,1.87,1.87c-0.27,1.27-1.43,6.32-4.93,11.23c-0.91,1.28-2.56,0.28-3.9-0.87"/><path d="M49.65,58.62c0.03,0.22,0.14,0.66-0.06,0.9c-2.64,3.21-5.71,6.08-11.71,8.63"/><path d="M35.69,66.49c0.56,0.48,0.79,1.55,0.93,2.54c0.51,3.6,2.11,17.67,2.62,22.54"/><path d="M37.92,77.88c2.78-0.22,10.79-1.24,11.45-1.24c0.66,0,1.59,0,2.12,0"/><path d="M57.08,65.75c0.66,0.11,1.19,0.33,2.12,0.33c0.93,0,10.71-1.31,11.76-1.42c1.06-0.11,1.93,0.54,1.85,1.21c-0.79,6.35-2.64,24.57-2.77,25.01"/><path d="M57.34,75.87c0.66,0.11,1.19,0.33,2.12,0.33c0.93,0,11.15-0.88,12.2-0.99"/><path d="M39.37,89.71c1.72,0,28.15-1.42,30.13-1.53"/></svg>