<svg><path d="M18.39,15.29c0.7,0.44,1.18,2.82,1.32,3.7c0.14,0.89-0.09,72.37-0.23,77.91"/><path d="M19.9,16.95c2.32-0.1,18.88-2.06,21-2.18c1.76-0.1,2.68,0.87,2.76,1.63c0.13,1.17-1.01,12.17-1.33,20.04"/><path d="M20.31,26.76c5.71-0.56,16.35-1.52,21.85-2.13"/><path d="M19.9,36.77c7.73-1.1,14.23-1.93,21.06-2.44"/><path d="M64.94,14.01c0.44,0.55,0.88,1.74,0.88,2.48c0,0.74-0.29,19.31-0.29,19.67"/><path d="M66.8,15.16c2.49-0.11,19.21-2.79,21.49-2.92c1.9-0.11,2.98,1.15,2.97,1.8c-0.49,19.46-0.5,64.29-0.5,78.4c0,10.31-6.95,1.66-8.4,0.36"/><path d="M66.49,24.72c3.38,0,18.59-1.74,22.4-1.74"/><path d="M66.05,34.76c4.99,0,17.59-2.06,24.05-2.06"/><path d="M34.89,48.13c0.67,0.27,1.9,0.3,2.57,0.27c7.63-0.43,16.98-2.47,24.51-2.65c1.12-0.03,1.79,0.13,2.35,0.26"/><path d="M51.64,36.62c0.07,0.17,0.95,0.87,1.02,1.93c0.33,5.08,0.18,17.51,0.18,19.23"/><path d="M29.29,59.06c1.56,0.39,3.95,0.73,5.35,0.58c7.77-0.82,31.75-3.6,40.77-3.78c2.33-0.05,3.72,0.28,4.88,0.57"/><path d="M71.81,39.33c0.12,0.85,0.22,2.03-0.62,3.03C60.33,55.27,50.25,66.5,30.25,76.79"/><path d="M60.27,61.75c1.41,0.57,3.63,2.34,3.98,3.23"/><path d="M44.95,70.27c0.26,0.61,0.52,0.92,0.52,1.74c0,0.82-0.17,23.87-0.17,24.27"/><path d="M45.91,71.79c1.47-0.1,19.13-2.27,20.47-2.39c1.12-0.1,1.84,1.13,1.75,1.73c-0.17,1.22-0.26,14.79-0.26,23.77"/><path d="M45.75,82.28c4.54,0,19.6-2.13,21.85-2.13"/><path d="M45.66,93.79c5.46,0,15.76-1.4,21.93-1.42"/></svg>