<svg><path d="M18.39,14.79c0.73,0.46,1.28,2.98,1.43,3.9c0.15,0.93-0.09,73.14-0.24,78.94"/><path d="M20.02,17.58c2.44-0.1,18.77-2.66,20.99-2.78c1.85-0.1,2.81,0.91,2.9,1.71c0.14,1.23-1.06,11.76-1.39,20.01"/><path d="M20.45,26.89c5.99-0.59,16.12-2.12,21.88-2.76"/><path d="M20.02,36.98c8.11-1.15,13.89-2.03,21.06-2.56"/><path d="M64.44,14.01c0.44,0.55,0.88,1.74,0.88,2.48c0,0.74,0.21,19.31,0.21,19.67"/><path d="M66.05,15.16c2.49-0.11,19.71-2.79,21.99-2.92c1.9-0.11,2.98,1.15,2.97,1.8c-0.49,19.46-0.5,64.29-0.5,78.4c0,10.81-4.01,5.56-7.4,1.86"/><path d="M66.49,24.72c3.38,0,20.09-1.74,23.9-1.74"/><path d="M66.05,34.26c4.99,0,18.09-1.56,24.55-1.56"/><path d="M39.92,43.73c0.27,0.23,0.57,1.51,0.57,1.91c0,4.06-0.47,22.02-0.64,28.42"/><path d="M41.29,45.45c6.74-0.8,21.96-2.46,24.85-2.9c1.01-0.15,2.72-0.33,3.23-0.21"/><path d="M53.31,45.71c0.27,0.23,0.49,0.55,0.49,0.95c0,4.06,0.03,17.79-0.14,24.19"/><path d="M40.49,54.98c6.74-0.8,19.76-2.35,22.65-2.79c1.01-0.15,2.72-0.33,3.23-0.21"/><path d="M40.64,63.56c6.73-0.8,19.76-2.35,22.65-2.79c1.01-0.15,2.72-0.33,3.23-0.21"/><path d="M40.61,74.19c7.87-1.43,25.57-3.37,29.93-3.9c2.84-0.34,4.44,1.57,4.1,3.95c-0.93,6.53-2.17,13.34-4.35,17.57c-3.05,5.9-4.02,3.18-6.9-0.03"/><path d="M32.11,79.61c0.37,4.14-0.26,9.15-1.35,11.73"/><path d="M40.51,79.85c1.41,1.39,2.75,5.2,3.1,7.35"/><path d="M50.71,78.63c1.15,1.13,2.98,4.67,3.26,6.44"/><path d="M59.73,76.98c1.37,1.13,3.54,4.65,3.89,6.41"/></svg>