<svg><path d="M17.2,15.29c0.55,0.46,1.71,3.48,1.82,4.4c0.11,0.93-0.07,72.14-0.18,77.94"/><path d="M19.02,17.48c2.44-0.08,19.27-2.33,21.49-2.43c1.85-0.08,2.81,0.77,2.9,1.45c0.14,1.04-1.54,19.34-1.54,19.85"/><path d="M19.45,26.6c5.99-0.5,16.62-1.79,22.38-2.33"/><path d="M19.02,36.73c8.11-0.97,14.39-1.71,21.56-2.16"/><path d="M64.44,13.51c0.44,0.55,0.88,1.74,0.88,2.48c0,0.74,0.21,19.81,0.21,20.17"/><path d="M66.05,15.16c2.49-0.11,19.71-2.79,21.99-2.92c1.9-0.11,2.98,1.15,2.97,1.8c-0.49,19.46-0.5,63.79-0.5,77.9c0,12.31-6.45,2.66-7.9,1.36"/><path d="M65.99,24.72c3.38,0,19.59-1.74,23.4-1.74"/><path d="M66.05,34.26c4.99,0,16.59-1.56,23.05-1.56"/><path d="M29.23,46.65c0.84,0.34,2.46,0.65,3.35,0.58c4.79-0.38,13.66-1.97,15.59-2.11c0.95-0.07,1.82,0.87,1.62,1.86c-0.5,2.45-1.52,6.2-2.3,11.64"/><path d="M32.73,61.02c2.41-0.09,9.7-1.09,15.89-1.44"/><path d="M32.89,48c0,1.56,0.32,3.94,0.31,5.41c-0.14,10.61-3.53,24.08-9.89,30.88"/><path d="M31.23,73.87c0.1,0.54,0.46,1.75,0.49,2.17c0.26,2.99,2.07,9.91,2.44,15.58"/><path d="M31.76,75.24c3.49-0.6,13.56-2.65,15.95-2.75c0.98-0.04,1.36,1.26,1.22,2.15c-0.54,3.54-1.87,7.87-2.39,12.39"/><path d="M34.81,88.7c2.89-0.25,9.81-0.89,13.28-1.21"/><path d="M64.56,39.59c0.93,0.92,1.4,0.92,1.4,3.05c0,2.14,0,2.46,0,5.27"/><path d="M53.87,49.41c0.76,0.4,1.64,0.47,2.39,0.4c4.26-0.35,14.78-2.56,21.22-2.85c1.26-0.06,2.01,0.19,2.64,0.4"/><path d="M57.23,53.01c2.19,3.16,2.69,5.9,2.89,7.98"/><path d="M74.15,50.68c0.44,0.33,0.15,1.56,0.02,1.81c-1.28,2.51-2.9,6.8-3.78,8.23"/><path d="M50.54,64.31c1.02,0.45,2.21,0.49,3.23,0.45c6.5-0.25,19.24-3.25,26.87-3.52c1.7-0.06,2.72,0.22,3.57,0.44"/><path d="M54.67,75.31c0.72,0.27,2.05,0.34,2.76,0.27c9.17-0.89,11.32-2.2,19.82-2.77c1.2-0.08,1.92,0.13,2.52,0.27"/><path d="M65.23,63.57c0.33,0.28,1.03,2.09,1.09,2.64c0.38,3.2-0.09,29.26-0.11,30.08"/></svg>