<svg><path d="M16.75,18.25c0.54,0.6,2.35,1.09,4,0.8c6-1.05,12.98-2.58,15.23-3.37c2.97-1.05,4.93,2.05,3.62,4.5c-1.32,2.45-9.42,14.85-11.73,18.35"/><path d="M27.21,38.53c15.85,10.09,16.04,43.22,2.48,33.62"/><path d="M18.36,19.84c0.39,1.16,0.22,2.86,0.44,3.91c0.21,1.05,0,64.93-0.21,71.5"/><path d="M83.48,12.17c0.1,0.42-0.77,2.67-1.32,3.13c-4.26,3.49-15.09,9.26-33.99,14.11"/><path d="M43.25,47.33c1.32,0.47,4.61,0.6,5.92,0.47c12.58-1.3,28.33-3.05,42.97-4c2.19-0.14,3.51,0.22,4.61,0.46"/><path d="M66.62,26.25c0.48,0.52,1.5,3.89,1.6,4.93c0.1,1.04-0.06,59.83-0.16,66.32"/></svg>