<svg><path d="M15.87,19.16c1.17,0.23,2.51,0.51,3.88,0.3c6-0.95,11.5-1.66,14.39-2.75c3.06-1.15,6.12,1.15,4.76,3.83c-1.36,2.68-9.13,15.71-11.51,19.55"/><path d="M27.38,40.09C43.5,50.75,38.5,82,28.58,71.93"/><path d="M17.04,19.53c0.46,1.22,0.78,2.59,1,3.74c0.22,1.15,0,66.8-0.22,73.99"/><path d="M48.17,21.87c0.99,0.41,2.8,0.45,3.8,0.41c10.31-0.47,16.33-2.13,30.15-2.86c1.65-0.09,2.64,0.19,3.47,0.4"/><path d="M40.28,42.52c1.47,0.48,4.17,0.6,5.64,0.48c12.32-1.05,31.78-3.39,44.45-3.62c2.45-0.05,3.92,0.23,5.15,0.47"/><path d="M57.02,45.97c0.69,1.18,1.06,3,0.84,4.69C56.12,64.41,54.5,85.25,34,95.5"/><path d="M71.36,43.57c1.42,1.42,2.19,2.21,2.23,4.83c0.11,7.5-0.46,25.97-0.46,34.75c0,9.35,2.38,11.46,11.88,11.46c8.25,0,10.5-1.61,10.5-10.5"/></svg>