<svg><path d="M14.87,17.66c1.08,0.22,2.25,0.49,3.39,0.28c6.24-1.18,11.94-1.31,14.38-2.23c3.06-1.15,6.12,1.15,4.76,3.83c-1.36,2.68-8.63,15.21-11.01,19.05"/><path d="M26.38,38.59c13.59,9.58,11.37,42.66,1.7,33.34"/><path d="M16.54,19.03c0.21,0.72,0.5,2.47,0.5,3.74c0,1.17,0,67.8-0.22,74.99"/><path d="M45.85,18.86c1.14,0.52,3.22,0.63,4.35,0.52c13.31-1.23,26.4-3.39,41.22-3.59c1.89-0.03,3.03,0.25,3.97,0.51"/><path d="M49.59,19.54c0.04,1.72-0.11,4.44-0.09,6.93C49.75,48.75,49,78.5,34.56,92.22"/><path d="M61.79,38.12c0.7,0.13,2.07,0.01,3.48-0.2c6.24-0.92,15.75-2.04,17.46-2.47c2.81-0.7,4.63,1.23,4.52,4.04c-0.19,4.76-2.56,19.81-4.38,25.94c-1.74,5.88-5.11,2.32-7.11-0.1"/><path d="M59.25,36.37c0.71,1.74,1.27,3.79,1.31,6.48c0.19,11.98-0.5,26.13-0.5,34.28C60.06,93.5,64.58,94,76.9,94c15.85,0,19.49-1.5,19.49-12.86"/></svg>