<svg><path d="M18,21.5c1.12,0.5,2.21,0.87,3.48,0.7C28.75,21.25,34,20,38.64,18.93c3.25-0.75,4.58,1.55,3.17,4.01c-1.41,2.46-9.13,14.41-11.59,17.92"/><path d="M29.97,41.15C46.62,50,45.5,77.38,31.73,71.72"/><path d="M20.12,22.75c0.88,0.88,1.21,2.25,1.21,4c0,5.9,0.05,45.49,0.04,62c0,4.14,0,6.78-0.01,7"/><path d="M53.46,22.09c1.03,1.03,1.18,2.16,1.18,3.56c0,1.03-0.02,56.12-0.02,62.84"/><path d="M55.55,23.73c2.27-0.1,22.12-2.98,23.81-3.16c3.03-0.31,4.56,1.17,4.56,4.48c0,4.82-0.04,52.82-0.04,59.89"/><path d="M55.88,44.88c7.73-0.72,20.36-2,27.15-2.22"/><path d="M55.84,65.61c6.06-0.36,19.82-2.01,26.83-2.06"/><path d="M41.54,89.57c2.62,0.97,5.9,0.6,8.59,0.42c11.43-0.76,29.43-2.34,40.75-2.6c2.59-0.06,5.21,0.06,7.75,0.63"/></svg>