<svg><path d="M14.87,17.97c1.26,0.66,2.66,0.57,3.91,0.45c4.47-0.42,11.85-1.92,16.35-3c3.85-0.92,5.45,1.01,3.3,4.86C36,24.62,30.5,33.08,28.04,36.06"/><path d="M28.04,36.06c14.71,11.06,11.08,34.81-0.75,28.19"/><path d="M16.04,18.78c0.91,0.91,1.25,2.07,1.25,3.24c0,5.24,0.08,44.69,0.04,66.24c-0.01,4.18-0.01,7.51-0.01,9.5"/><path d="M67.61,12c1,1.01,1.73,2.38,1.73,3.91c0,4.45,0.1,8.84,0.1,12.9"/><path d="M42,32.34c2.75,0.54,4.8,0.46,7.39,0.15c9.72-1.17,30.12-4.15,41.99-4.79c2.36-0.13,4.86-0.4,7.12,0.45"/><path d="M67.5,44.75c7,3.25,12.12,5,18.24,6.36C89.09,51.86,89,54,88,57.75c-1.8,6.74-10.24,28.91-15.13,34.08c-5.12,5.42-6.71-0.74-8.09-1.57"/><path d="M68.5,33.5c0.5,1.25,0.48,2.72-0.19,4.37C62.75,51.62,54.5,70.12,34.75,85"/></svg>