<svg><path d="M16.92,20.42c1.58,0.83,3.41,0.54,4.96,0.18c4.25-0.97,8.82-2.69,11.04-3.43c3-1,4.7,0.6,3.67,3.08C35.12,23.75,31.5,33,29,38"/><path d="M29,38.5c10.11,7.7,9.62,29.62,1.01,25.29"/><path d="M18.87,21.5c1.06,1.06,1.21,2.25,1.21,3.75c0,3.66,0.02,44.29,0.03,61.38c0,2.75,0,4.88,0,6.12"/><path d="M42.5,22.73c3.75,0.65,6.73,0.43,9.77-0.01c8.9-1.28,22.52-3.61,32.72-4.96c3.2-0.42,5.86-0.37,9.02,0.31"/><path d="M46.37,39.76c0.85,0.61,1.34,1.44,1.46,2.47c0.91,3.41,1.48,9.45,2.35,14.74c0.25,1.51,0.48,2.97,0.68,4.28"/><path d="M48.75,41.49c7.23-1.6,11.66-2.6,15.88-3.21c3.32-0.47,5.46-0.07,4.59,3.74c-0.96,4.17-2.08,9.58-3.44,14.66"/><path d="M51.57,59.53c4.7-0.44,7.64-1.14,12.92-1.84c1.24-0.16,2.59-0.33,4.1-0.48"/><path d="M83.08,21.08c1.17,1.17,1.51,2.92,1.51,4.77c0,14.56-0.01,56.94-0.01,61.9c0,10.38-5.96,2-7.46,0.75"/></svg>