<svg><path d="M12.5,21c1.62,0.5,3.38,0.62,5.08,0.35c5.02-0.8,10.17-2.23,13.5-3.17c3.02-0.85,4.41,1.31,3.1,3.77c-1.31,2.46-6.89,14.43-9.19,17.95"/><path d="M24.99,39.91c13.51,9.47,10.63,35.72-0.17,27.66"/><path d="M13.79,21.85c0.93,0.93,1.43,2.27,1.43,3.43c0,0.89,0.31,42.56,0.15,60.96c-0.04,3.95-0.07,6.83-0.11,8"/><path d="M55.69,13.25c0.05,0.51,0.1,1.32-0.09,2.05c-1.11,4.33-7.46,13.83-16.15,19.65"/><path d="M58.43,16.24c0.94,0.14,1.9,0.08,2.63-0.09c2.81-0.65,8.7-1.85,12.22-2.73c2.41-0.61,3.94,0.62,2.98,2.84c-4.14,9.62-18.64,29.12-35.52,35.73"/><path d="M53.03,25.59c3.41,0.61,24.1,15.26,32.98,20.89c2.47,1.56,5,2.87,7.74,3.9"/><path d="M46.75,57c2,0.38,3.96,0.26,5.65,0.13c6.48-0.51,18.13-2.13,24.61-2.62c1.89-0.14,3.88-0.31,5.74,0.14"/><path d="M50.41,57.87c0.74,0.74,1.09,1.88,1.02,2.93c-0.35,5.45-0.31,9.21-0.65,13.46"/><path d="M39.25,75.64c3.12,0.49,5.26,0.35,7.65,0.05c11.35-1.44,29.62-3.5,38.58-4c2.39-0.13,4.63-0.21,7.02,0.32"/><path d="M66.62,45.75c0.94,0.94,1.27,2.5,1.27,4.17c0,2.75-0.13,29.08-0.13,41.83c0,2.58-0.06,4.53-0.1,5.5"/></svg>