<svg><path d="M16.5,19.75c1.11,0.25,2.29,0.6,3.47,0.44c5.03-0.69,12.61-1.66,15.17-2.51c3.06-1.02,5.12,1.52,3.76,3.91c-1.36,2.38-8.13,13.46-10.51,16.86"/><path d="M28.38,38.44c14.12,9.81,12.12,35.81,1.7,30.12"/><path d="M18.04,20.79c0.71,0.71,1,3.27,1,4.32c0,4.14,0,66.01-0.22,72.39"/><path d="M67.94,12.93c0.06,1.05,0.3,2.76-0.12,4.23c-3.56,12.35-9.31,28.6-21.7,40.45"/><path d="M40.31,29.53c1.09,0.43,3.08,0.5,4.17,0.43c11.51-0.71,40.1-4.18,51.7-4.17c1.81,0,2.9,0.21,3.81,0.42"/><path d="M61.46,43.71c0.52,0.73,0.87,1.45,1.04,2.18c0.17,0.73,0.25,47.45,0.17,49.08"/><path d="M63.54,44.88c2.08-0.18,21.15-3.72,22.69-3.92c2.77-0.36,3.81,2.36,3.46,3.45c-0.33,1.05-0.52,29.25-0.52,43.96c0,10.38-3.93,4.88-6.89,1.63"/><path d="M63.54,58.93c9.21-0.68,16.71-0.93,24.95-1.8"/><path d="M64.06,71.9c7.44-0.65,17.67-1.18,24.08-1.54"/></svg>