<svg><path d="M15.75,17c0.77,0.34,1.59,0.73,2.47,0.7c5.53-0.2,12.83-2.52,15.42-3.49c3.06-1.15,4.62,1.65,3.26,4.33c-1.36,2.68-7.63,15.21-10.01,19.05"/><path d="M26.88,37.59C41.25,50.5,37,79.25,27.08,69.43"/><path d="M17.04,18.03c0.71,1.22,0.28,2.59,0.5,3.74c0.22,1.15,0,69.8-0.22,76.99"/><path d="M64.87,10.99c1.51,0.44,2.43,2.01,2.74,2.91c0.31,0.9,0.53,21.81,0.29,27.45"/><path d="M68.14,26.48C73.5,26,81,24.75,85.86,23.51c2.34-0.6,3.01-0.25,4.52-0.04"/><path d="M48.73,21.86c1.51,0.44,2.43,2.01,2.74,2.91c0.31,0.9,0.99,11.62,0.75,17.25"/><path d="M38.61,42.89c0.71,0.13,2.6,0.45,4.48,0.38c10.15-0.37,35.57-2.6,48.44-2.97c1.89-0.05,4.27,0.23,5.35,0.36"/><path d="M65.68,45.07c0.12,0.25,1.75,1.28,1.75,2.84c0,6.84,0.14,17.82,0.14,20.38c0,7.29-2.7,4.32-7.55,0.83"/><path d="M52.89,53.89c0.04,0.46,0.13,1.21-0.07,1.85c-1.46,4.61-7.63,13.5-12.65,17.74"/><path d="M87.42,53.52c0.13,1.06,0.53,2.83-0.26,4.25C80.63,69.49,63.75,89,40.25,99.01"/></svg>