<svg><path d="M14.37,16.66c0.74,0.44,1.84,0.56,3.13,0.64c3.5,0.21,12-1.79,15.14-2.08c3.25-0.31,4.62,1.15,3.26,3.83c-1.36,2.68-8.13,15.21-10.51,19.05"/><path d="M25.38,38.09c13.59,9.16,10.87,42.91,0.7,31.87"/><path d="M15.54,18.03c0.46,0.72,0.28,2.59,0.5,3.74c0.22,1.15,0,68.3-0.22,75.49"/><path d="M40.75,30.65c1.42,0.44,4.04,0.56,5.46,0.44c9.08-0.76,34.76-4.02,43.55-3.52c2.37,0.14,3.8,0.21,4.99,0.43"/><path d="M51.01,40.74c0,0.59,0.05,1.09-0.08,1.78c-1.16,6.45-4.62,14.48-9.71,21.6"/><path d="M48.89,53.71c2.48,1.74,5.65,6.39,6.86,10.79"/><path d="M84.27,37.24c0,0.63,0.08,1.17-0.08,1.88c-1.34,6.14-5.17,17.06-9.72,23.26"/><path d="M81.14,51.71c4.91,3.39,8.68,7.64,11.61,12.79"/><path d="M64.25,11.25c0.48,1.17,1.18,2.52,1.25,5.04C66.75,62.75,62,80.75,34.75,97"/><path d="M64.25,54c5.58,12.03,17.85,33.38,25.41,40.29c2.12,1.94,2.68,2.5,3.59,2.71"/></svg>