<svg><path d="M12.17,21.67c1.12,0.14,2.26,0.34,3.33,0.13c6.75-1.3,11.37-2.5,13.92-3.13c3.71-0.92,5.09,1.67,3.92,4.08C31.75,26,26.33,36.17,24,39.5"/><path d="M24,39.5c13.33,8.33,12.25,36,1.67,28.5"/><path d="M13.37,22c0.88,0.88,1.46,2.12,1.46,3.25c0,0.88,0.05,47.33-0.13,64.25c-0.03,2.83-0.06,4.86-0.09,5.75"/><path d="M62.28,13.92c0.96,0.96,1.44,2.38,1.42,3.5c-0.06,3.51-0.06,5.73-0.06,8.93"/><path d="M43.51,28.14c-0.01,4.65-1.62,10.71-3.13,14.23"/><path d="M45,29.25C59,27,77.81,24.5,85.52,24.47c6.73-0.02-0.6,7.57-1.77,8.35"/><path d="M51.98,41.59c1.09,0.2,3.09,0.3,4.19,0.2c5.67-0.54,10.33-1.54,14.08-1.89c1.79-0.17,2.92-0.16,3.83-0.06"/><path d="M42.08,56.82c1.56,0.31,4.17,0.5,5.72,0.31c9.69-1.13,24.94-3.76,33.57-4.1c2.59-0.1,4.16,0.15,5.46,0.31"/><path d="M57,59.5c0.62,1,0.64,2.54,0.38,3.67C55.38,72,51.38,85.12,37.67,94"/><path d="M67.44,57.87c1.03,1.03,1.51,2.38,1.54,4.06c0.15,7.52-0.15,15.82-0.15,20.93c0,7.88,1.17,10.58,13.44,10.58c11.48,0,13.37-1.7,13.37-8.38"/></svg>