<svg><path d="M14.87,19.51c0.77,0.16,2.55,0.35,3.33,0.26c6.55-0.77,11.76-1.11,14.43-2.07c3.06-1.1,5.62,1.11,4.26,3.68c-1.36,2.58-8.13,14.1-10.51,17.78"/><path d="M26.38,39.16C41.5,51,37.75,75.25,28.08,67.19"/><path d="M16.54,20.44c0.71,1.56,0.28,3.49,0.5,4.59c0.22,1.1,0,64.56-0.22,71.47"/><path d="M46.56,23.9c1,0.37,2.84,0.45,3.84,0.37c6.98-0.52,28.54-3.76,38.07-3.76c1.67,0,2.67,0.18,3.51,0.36"/><path d="M48.59,34.39c1.1,0.38,3.13,0.45,4.23,0.38c8.11-0.52,23.24-2.02,31.13-2.38c1.84-0.08,2.94,0.18,3.86,0.37"/><path d="M42.9,47.76c1.42,0.43,4.02,0.51,5.44,0.43c11.97-0.69,26.4-2.94,43.08-3.62c2.36-0.1,3.78,0.2,4.97,0.42"/><path d="M67.64,11.5c0.61,1.5,0.89,2.91,0.72,5.06C66.5,40,61.25,71.25,40.96,88.04"/><path d="M43.13,65.31c1.34,0.67,3.79,0.84,5.15,0.67c14.87-1.86,26.52-3.43,42.91-4.45c2.23-0.14,3.58,0.32,4.7,0.65"/><path d="M80.95,52.33c0.07,0.45,1.1,2.33,1.1,5.17c0,19.11-0.29,29.19-0.29,33.84c0,11.27-6.14,2.14-8.06,0.7"/><path d="M62.56,73.12c2.27,1.59,5.88,6.53,6.44,9"/></svg>