<svg><path d="M14.87,15.97c0.77,0.25,1.55,0.57,2.36,0.54c6.52-0.26,10.77-1.76,14.88-2.78c3.49-0.87,6.25,0.75,4.75,3.66c-1.5,2.91-6.36,16.11-9.5,22.7"/><path d="M26.88,40.09c13.59,9.58,11.62,45.66,0.2,33.84"/><path d="M16.04,17.53c0.21,1.47,0.28,2.59,0.5,3.74c0.22,1.15,0,68.8-0.22,75.99"/><path d="M43.34,18.75c0.93,0.33,2.62,0.38,3.55,0.33c10.79-0.6,32.34-3.24,42.37-3.39c1.54-0.02,2.47,0.16,3.24,0.32"/><path d="M47.11,20.26c0.32,0.94,1.26,1.84,1.26,2.94c0,1.1-0.15,47.84-0.15,51.79"/><path d="M48.44,37.38c3.56,0,10.56-1.4,13.51-1.4"/><path d="M48.14,53.8c2.11,0,9.86-1.05,13.6-0.97"/><path d="M38.27,77.32c1.73,0.93,3,1.05,3.95,0.62c3.82-1.76,13.81-6.21,19.67-9.03"/><path d="M60.78,18.23c0.98,0.99,1.08,1.16,1.08,2.25c0,1.2,0.15,69.27,0.15,78.27"/><path d="M68.49,34.36c1.17,0.28,1.28,0.49,3.64,0.28c4.36-0.39,14.65-2.1,16.25-2.52c1.6-0.42,3.09,1,2.69,2.61C86.25,54,80.75,75.75,66.95,89.28"/><path d="M68.09,40.44c2.57,2,14.19,35.33,23.67,46.59c1.46,1.73,2.37,3.3,3.64,3.96"/></svg>