<svg><path d="M17.42,21.67c1.54,0.74,3.21,0.56,4.75,0.26c5.34-1.05,8.71-1.8,13-2.76c3.09-0.69,4.38,1.44,3.17,3.83c-1.83,3.62-6.21,11.25-8.58,15.5"/><path d="M29.75,38.5c14.5,11.25,9.88,35.88-0.34,26.27"/><path d="M18.62,22.75c1,1,1.21,2,1.21,3.75c0,3.84,0.02,43.8,0.03,60.62c0,4.27,0,7.05,0,7.38"/><path d="M68.21,16c1.04,1.01,1.57,2.37,1.57,3.42c0,2.39,0,3.91,0,10.4"/><path d="M51.25,31.75c1.9,0.53,3.94,0.67,5.87,0.44c8.75-1.06,18.88-2.43,29.05-3.33c1.93-0.17,3.1-0.1,4.07,0.07"/><path d="M56.38,39c3.96,4.4,5.76,8.9,6.12,11.8"/><path d="M82.46,34.26c0.41,0.99,0.38,1.72,0.04,2.62c-1.88,4.99-4.5,10.87-7,14.65"/><path d="M45.75,57.26c2.72,0.72,5.4,0.31,8.14,0c11.32-1.32,21.81-3.11,37.12-3.92c2.62-0.14,5.14,0.09,7.74,0.5"/><path d="M54.5,69.61c0.85,0.67,1.33,1.55,1.44,2.63c0.69,4.39,1.27,9.57,1.84,15.24c0.17,1.72,0.33,3.42,0.49,5.03"/><path d="M57,71.19c7.17-1.03,19.58-2.76,26.01-3.55c4.25-0.52,5.67,0.27,4.64,4.65c-1.03,4.38-2.56,9.96-3.78,14.78"/><path d="M59.21,90.45c4.73-0.47,14.11-1.32,23.03-1.87c1.49-0.09,2.95-0.17,4.35-0.23"/></svg>