<svg><path d="M15.92,18.17c1.46,0.71,3.08,0.72,3.84,0.62c5.12-0.66,9.74-1.41,12.91-2.12c3.09-0.69,4.27,1.63,3.17,4.08C34.38,24,30.5,32.38,28,37"/><path d="M27.75,37.5c14.12,9.75,9.12,35.5-0.58,26.75"/><path d="M17.12,18.75c0.63,0.63,1.21,1.73,1.21,2.75c0,2.84,0.02,48.88,0.03,67.12c0,3.44,0,5.88,0,6.88"/><path d="M50.82,15.51c0.84,0.84,1.43,1.62,1.56,2.83c0.57,5.28,1.27,10.88,2.38,18.91c0.1,0.77,0.21,1.56,0.33,2.37"/><path d="M52.57,16.66c4.86-0.65,18.44-2.69,26.08-3.46c3.1-0.31,4.54,1.08,4.15,3.69c-0.92,6.11-2.27,12.97-3.63,18.15c-0.24,0.92-0.47,1.78-0.69,2.56"/><path d="M54.65,26.85c3.72-0.48,18.6-2.35,25.91-2.68"/><path d="M55.85,37.78c4.37-0.55,16.64-1.95,22.08-2.42"/><path d="M42.84,49.6c2.8,0.45,5.65,0.52,8.92,0.02c8.87-1.37,25.62-3.12,35.85-3.88c2.56-0.19,5.23-0.32,7.77,0.17"/><path d="M56.88,52.12c-0.04,0.49-0.07,1.29-0.43,1.97c-1.96,3.64-8.75,12.41-18.01,17.74"/><path d="M57.3,59.95c0.99,0.57,2.77,0.66,3.76,0.6c2.81-0.18,24.14-2.57,27.72-2.68c3.58-0.11,4.23,2.57,3.28,5.82c-1.41,4.82-4.02,17.2-11.36,28.36c-3.13,4.75-5.36,5.45-9.33,1.18"/><path d="M61.76,63.86c-0.02,0.41-0.04,1.06-0.38,1.63c-3.33,5.6-11.15,13.36-21.25,17.89"/><path d="M77.03,62.32c-0.05,0.86-0.16,2.22-0.77,3.45c-3.57,7.25-14.39,20.38-30.19,28.08"/></svg>