<svg><path d="M15.67,20.67c1.58,0.83,3.51,0.63,4.56,0.45c4.68-0.82,10.28-1.87,13.94-2.95c3.03-0.9,4.25,1.5,2.92,3.83C35.75,24.33,31,33,27,39.25"/><path d="M27,39.75c13.33,8.33,11.02,33.81,0.42,26.75"/><path d="M17.12,21.75C18,22.63,18.33,24,18.33,25.5c0,0.7,0.02,45.95,0.03,63.25c0,3.67,0,6.06,0,6.5"/><path d="M62.63,12.25c0.12,1.29,0.17,2.43-0.43,3.59c-3.95,7.54-10.98,17.5-23.8,26.49"/><path d="M63.82,15.33c4.53,4.21,16.39,14.58,22.97,19.77c1.31,1.03,5.21,3.52,7.56,4.63"/><path d="M52.46,34.57c1.41,0.18,2.98,0.06,4.07-0.08c3.41-0.43,9.35-1.42,12.59-1.75c1.18-0.12,2.93-0.31,4.12,0"/><path d="M47.65,45.93c1.35,0.2,2.55,0.32,4.22,0.09c4.34-0.59,18.33-2.49,22.96-3.24c2.75-0.45,3.74,1.22,2.17,3.46c-4.12,5.88-5.62,8.25-9.06,13"/><path d="M47.45,61.2c1.65,0.55,3.63,0.31,5.3,0.14c6.8-0.7,15.12-1.87,21.62-2.17c1.5-0.07,3.01-0.18,4.48,0.12"/><path d="M38.02,73.56c2.5,0.67,5.66,0.38,8.22,0.13c10.86-1.07,28.48-2.94,39.02-3.38c2.57-0.11,5.17-0.22,7.72,0.18"/><path d="M59.92,74.93c0.24,0.65,0.14,2.05-0.45,2.77c-4.97,6.05-7.77,8.76-12.3,13.1c-2.05,1.96-1.62,2.92,0.75,2.63c4.99-0.62,24.5-3.94,32.62-5.38"/><path d="M73.35,79.79c4.55,2.6,11.15,10.63,12.29,14.68"/></svg>