<svg><path d="M16.62,23.62c0.59,0.3,2.23,0.73,2.91,0.62c5.22-0.87,10.26-1.95,12.88-2.83c3.71-1.24,5.4,1.03,3.67,4.58c-1.46,3-7.25,13.67-9.58,17"/><path d="M26.5,43c13.33,8.33,12.75,34.5,0.75,27"/><path d="M18.62,25c0.88,0.88,1.21,2.12,1.21,3.5c0,0.87,0.02,39.79,0.03,58c0,3.29,0,5.91,0,7.5"/><path d="M48.44,17.33c2.24,1.87,5.79,7.67,6.36,10.58"/><path d="M76.23,13.18c0.03,0.41,0.14,1.07-0.06,1.63c-1.18,3.31-3.8,8.68-7.89,14.07"/><path d="M42.43,34.19c1.8,0.39,5.11,0.39,6.9,0.14c10.42-1.46,21.79-3.33,35.61-4.79c2.97-0.31,4.8-0.06,6.29,0.13"/><path d="M61.38,34.25c0.07,0.43,0.21,1.14-0.14,1.72c-2.12,3.49-7.78,8.21-18.86,13.66"/><path d="M57.95,43.06c8.42,4.81,17.3,28.56,8.91,47.19c-2.18,4.83-6.17,0.89-7.06,0.05"/><path d="M60.11,47.97c0.05,0.41,0.1,1.06-0.09,1.64c-1.12,3.46-7.56,11.06-16.38,15.72"/><path d="M64.3,58.83c0.07,0.6-0.01,1.59-0.39,2.42C61.38,66.75,53,76.25,39,84.14"/><path d="M83.55,41.66c0.04,0.34-0.08,1.16-0.32,1.62C81.19,47.03,78.76,49.98,70.5,56"/><path d="M70.23,58.47c3.71,2.55,14.18,13.61,19.81,18.85c1.87,1.74,3.58,3.42,6.21,4.51"/></svg>