<svg><path d="M14.87,18.16c0.83,0.23,1.66,0.6,2.46,0.45c7.42-1.36,11.14-1.89,13.81-2.9c3.06-1.15,6.12,1.15,4.76,3.83c-1.36,2.68-6.63,16.21-9.01,20.05"/><path d="M26.88,39.59C39.75,51,39,82.25,26.08,70.43"/><path d="M16.04,19.53c0.46,1.47,0.28,2.59,0.5,3.74c0.22,1.15,0,67.3-0.22,74.49"/><path d="M67.21,10.25c0.4,0.51,0.46,1.15,0.36,1.59c-0.56,2.65-5.34,8.99-9.7,12.55"/><path d="M46.55,24.2c0.71,0.76,1.28,2.16,1.44,3.15c0.85,5.53,3.14,18.81,3.43,23.79"/><path d="M48.41,25.99c9.97-1.37,32.46-2.88,36.13-3.38c1.77-0.24,3.41,1.01,3.03,3.1c-0.86,4.64-2.29,14.43-4,23.32"/><path d="M49.39,36.5c11.11-1.25,30.01-2.37,36.21-2.37"/><path d="M52.08,48.75c10.35-0.86,22.7-1.36,31.25-1.62"/><path d="M44.75,62.63c1.03,0.51,4.41,0.18,5.45,0.03c4.86-0.7,25.12-2.19,36.84-2.72c1.6-0.07,3.05,0.1,4.37,0.53"/><path d="M66.11,63.15c1.29,2.08,1.29,3.33,1.29,5c0,4.6-0.07,17.6-0.07,24.47"/><path d="M46.25,76.08c0.83,0.57,3.56,0.31,4.41,0.25c8.59-0.58,22.76-0.94,33.12-1.95c1.03-0.1,3.31-0.23,4.85,0.26"/><path d="M37.84,93.73c0.7,0.31,4.35,0.62,5.54,0.52c14.23-1.28,28.24-1.19,46-2.19c2.98-0.17,5.22-0.15,7.26,0"/></svg>