<svg><path d="M15.42,21.67c1.52,0.6,2.99,0.67,4.61,0.28c5.48-1.32,8.6-2.07,12.64-3.03c3.08-0.73,4.27,1.13,3.17,3.58c-1.46,3.25-5.21,10.62-8.58,16.75"/><path d="M27.25,39.25c12.5,9.38,10.25,32.25-1.33,25.25"/><path d="M17.37,23c0.75,0.75,0.96,1.75,0.96,3.5c0,3.12,0.02,42.97,0.03,61.5c0,5.2,0,8.65,0,9"/><path d="M59.79,13.25c0.08,1-0.17,1.88-0.6,2.77c-2.7,5.58-6.6,12.85-15.12,20.46"/><path d="M60.08,20.14c1.39,0.14,2.95,0.16,4.3-0.1c3.65-0.7,8.29-2.34,11.26-3.02c2.42-0.55,3.61,0.61,2.74,2.63c-3.5,8.18-17.63,25.48-35.13,32.1"/><path d="M53.89,27.94c6.33,3.93,21.42,14.08,30.6,19.68c3.27,2,6.27,3.5,10.27,4.9"/><path d="M54.22,54.35c0.05,0.95,0.07,1.71-0.3,2.59c-1.8,4.31-4.42,9.39-9.21,15.87"/><path d="M54.12,64.29c1.75,0.54,3.87,0.13,5.64-0.05c5.3-0.55,14.07-2.2,19.25-2.79c1.9-0.21,3.62-0.45,5.36,0.17"/><path d="M65.38,50.13c1,1,1.33,1.99,1.33,3.28c0,0.6-0.08,33.07-0.08,37.59"/><path d="M50.37,78.08c1.93,0.56,4.58,0.21,6.52-0.12c6.52-1.1,17.32-1.91,22.87-2.31c1.86-0.13,3.49-0.03,5.09,0.29"/><path d="M37.15,92.22c3.12,0.49,5.82,0.68,8.98,0.48c10.95-0.69,28.25-1.58,39.12-2.03c3.09-0.13,6.72,0.14,9.73,0.89"/></svg>