<svg><path d="M15.06,19.17c1.31,0.58,3.58,0.46,5.35,0.17c5.09-0.84,10.34-1.84,12.84-2.42c3.71-0.87,4.05,1.98,2.76,4.28c-1.84,3.29-7.63,12.73-9.65,15.8"/><path d="M26.35,37c13.52,8.5,11.77,35.75,0.57,30"/><path d="M16.62,20c0.81,0.81,1.1,2.12,1.1,3.25c0,1.02,0,64-0.21,70.25"/><path d="M46.31,16.98c0.73,0.73,1.16,1.89,1.33,3.37c0.71,6.3,1.53,13.06,2.18,19.51c0.24,2.41,0.46,4.77,0.63,7.06"/><path d="M48.62,18.12c9.6-0.93,25.33-2.62,33.38-3.27c3.1-0.25,6.1,1.02,5.47,4.41c-1.35,7.23-3.22,17.35-5.23,25.95"/><path d="M65.25,18.79c0.91,0.91,1,2.08,1,3.33c0,5.91,0.05,19.41,0.05,21.55"/><path d="M50.26,31.61c11.87-1.36,21.49-1.98,34.28-2.65"/><path d="M51.47,45.16c8.4-0.66,20.62-1.85,30.35-1.98"/><path d="M41.5,57.16c3.62,0.71,7.1,0.36,10.62-0.06c12.42-1.2,22.9-2.15,34.51-3c2.64-0.19,5.27-0.15,7.89,0.21"/><path d="M49.41,59.08c0.94,0.94,1.13,2.55,1.13,4.08c0,4.94,0.04,23.22-0.24,26.34c-0.26,2.82-0.34,4.79,2.72,2.6c3.06-2.2,7.62-6.53,12.86-10.46"/><path d="M82.74,59.85c0,1.15-0.38,2.14-1.48,3.09c-3.26,2.81-6.17,5.49-8.71,7.22"/><path d="M56.35,61.67c4.89,0.95,17.28,13.76,27.67,22.7c3.12,3.02,6.72,5.34,10.8,6.95"/></svg>