<svg><path d="M13.67,18.92c1.33,0.33,3.43,0.4,4.44,0.22c4.73-0.82,9.84-1.65,12.31-2.47c3.55-1.18,5.74,1.24,4.09,4.4C32.38,25.12,28.07,33.04,26,36"/><path d="M26,36.5c12.25,9.25,9.67,32.83-2.33,28.5"/><path d="M15.12,19.75c1,1,1.21,2.23,1.21,3.25c0,4-0.07,46.19-0.09,65.62c0,3.65-0.01,6.5-0.01,8.14"/><path d="M44.83,19.23c0.97,0.97,1.42,2.02,1.71,3.19c1.06,4.24,2.45,11.33,3.88,19.51c0.27,1.53,0.54,3.1,0.81,4.7"/><path d="M46.73,20.2c11.52-1.95,30-4.23,37.86-4.72c2.89-0.18,3.93,0.98,3.7,4.03c-0.31,3.98-1.27,11.56-2.76,18.5c-0.37,1.7-0.76,3.37-1.19,4.93"/><path d="M49.71,32.07c11.92-1.32,28.67-3.32,36.25-3.62"/><path d="M52.14,44.15c10.86-1.53,18.61-2.53,31.78-3.42"/><path d="M41.07,55.24c1.09,1.09,1.33,2.6,1.47,3.73c0.7,5.53,2.14,19.95,3.14,29.28c0.26,2.44,0.49,4.46,0.65,5.74"/><path d="M43.51,57.61c6.86-0.88,44.62-4.61,47.32-4.85c2.95-0.27,4.8,1.74,4.7,4.55C95.36,62,93.5,80.5,91.27,88.59c-2.11,7.67-4.13,5.08-6.68,0.45"/><path d="M65.45,19.71c0.92,0.92,1.15,1.99,1.15,3.53C66.59,30,66.54,71.4,66.54,73.48"/><path d="M52.99,77.82c1.19,1.2,2.76,0.87,3.82,0.44c2.98-1.2,16.95-5.99,23.18-8.15"/><path d="M75.88,63.5c3.31,2.5,8.56,10.29,9.39,14.18"/></svg>