<svg><path d="M14.87,20.66c0.73,0.13,2.55,0.32,3.39,0.16c5.74-1.07,10.28-2.13,12.88-3.11c3.06-1.15,6.12,1.15,4.76,3.83c-1.36,2.68-6.63,13.71-9.01,17.55"/><path d="M26.38,40.09C38.75,51,36.5,76.75,26.08,66.29"/><path d="M16.54,22.03c0.21,1.47,0.28,2.59,0.5,3.74c0.22,1.15,0,62.8-0.22,69.99"/><path d="M54.14,18.39c0.04,0.42,0.08,1.08-0.08,1.68C53.09,23.6,46.91,31.36,39.3,36.1"/><path d="M67.13,15.31c2.05,0.37,14.56,14.57,20.63,17.74c2.35,1.23,3.19,1.88,5.46,2.28"/><path d="M51.52,34.62c1.03,0.51,2.92,0.56,3.96,0.51c4.82-0.25,14.26-1.38,19.16-1.97c1.71-0.21,2.76-0.39,3.62-0.13"/><path d="M54.05,45.69c0.26,0.58-0.04,1.24-0.36,1.96c-2.12,4.7-10.1,15.05-14.95,17.45"/><path d="M65.38,42.31c2.23,0.4,15.82,15.84,22.41,19.29c2.55,1.33,3.46,2.05,5.93,2.48"/><path d="M42.09,67.08c0.58,0.64,1.92,2.21,1.98,2.76c0.68,5.91,1.29,14.68,1.96,22.4"/><path d="M44.96,68.43c10.46-0.89,35.57-2.31,39.35-2.58c1.38-0.1,2.35,1.06,2.01,2.62c-1.07,4.96-2.51,15.94-3.5,21.57"/><path d="M56.52,69.04c0.24,0.41,0.6,1.69,0.6,2.21c0,6.37,0.83,11.83,0.83,20.15"/><path d="M70.23,68.3c0.6,1.22,0.93,1.95,0.87,2.98c-0.34,5.7-0.01,11.8-0.88,19.51"/><path d="M32.89,92.24c1.51,0.29,4.29,0.34,5.81,0.29c15.76-0.49,33.08-1.8,52.28-1.67c2.53,0.02,4.04,0.14,5.3,0.28"/></svg>