<svg><path d="M15.42,20.17c1.08,0.33,2.47,0.4,3.6,0.15c5.49-1.19,11.25-2.85,13.65-3.65c3-1,5,1.5,3.67,3.83C35,22.83,30.25,33,27.5,38.25"/><path d="M27.5,38.25c13.33,8.33,9.5,36.25-0.83,27.5"/><path d="M16.62,20.75c0.75,0.75,1.21,1.98,1.21,3c0,5.25-0.12,50-0.12,64.5c0,2.97-0.06,5.09-0.09,6"/><path d="M64.25,10.5c0.75,0.75,1.21,2.02,1.21,3.57s0,1.51,0,6.06"/><path d="M45.54,22.89c2.46,0.36,4.46,0.45,6.22,0.23c7.77-0.94,20.14-2.45,30.25-3.24c2.34-0.18,4.88-0.17,7.19,0.29"/><path d="M53.25,26.12c2.96,3.67,4.57,7.6,4.84,10.02"/><path d="M77.47,23.42c0.4,0.58,0.22,1.35-0.08,2.24c-1.14,3.33-3.18,8-3.95,9.47"/><path d="M38.23,40.2c3.15,0.42,5.65,0.22,8.37-0.08c10.2-1.1,28.68-3.08,41.4-3.69c2.53-0.12,5.02-0.23,7.52,0.25"/><path d="M47.84,49.08c0.79,0.79,1.62,1.76,1.92,3.06c0.86,3.73,1.92,9.61,2.93,15.83c0.22,1.32,0.42,2.53,0.6,3.53"/><path d="M49.64,50.01c6.94-1.02,25.53-3.5,31.6-4c3.32-0.27,4.37,1.07,3.93,4.39c-0.18,1.39-1.27,7.81-2.84,14.11c-0.24,0.98-0.5,1.96-0.77,2.92"/><path d="M52.19,58.9c7.4-0.99,23.68-2.86,30.73-3.16"/><path d="M54.04,68.53c7.96-1.28,22.34-2.65,26.67-2.88"/><path d="M36.28,81.26c2.55,0.71,5.5,0.58,8.09,0.33c12.38-1.21,30.88-2.96,44.89-3.31c2.64-0.07,5.38,0.04,7.99,0.48"/><path d="M65.88,69.48c0.82,0.82,1.34,2.14,1.34,3.35c0,0.54,0,11.48-0.06,19.42c-0.02,2.46-0.04,4.46-0.05,5.5"/></svg>