<svg><path d="M15.87,17.66c0.83,0.26,1.66,0.63,2.46,0.5c6.93-1.16,10.43-2.41,14.81-2.95c3.24-0.4,6.12,1.15,4.76,3.83c-1.36,2.68-7.63,15.21-10.01,19.05"/><path d="M27.88,38.09c14.37,11.66,11.87,44.41,0.7,32.84"/><path d="M17.04,18.53c0.21,1.47,0.28,2.59,0.5,3.74c0.22,1.15,0,67.8-0.22,74.99"/><path d="M47.69,14.99c0.31,0.32,0.63,0.59,0.76,0.99c1.08,3.19,2.36,10.83,3.1,16.55"/><path d="M49.12,16.65c8.18-1.05,29.87-2.5,33.77-2.92c1.42-0.15,2.28,0.91,2.07,1.8c-0.84,3.72-1.83,8.08-3.08,13.22"/><path d="M51.7,30.81c4.58-0.27,23.27-1.94,32.47-2.09"/><path d="M49.35,39.19c0.55,0.88,1.34,2.04,1.34,3.22c0,1.18-0.18,35.03,0,36.21"/><path d="M51.6,40.55c3.09-0.15,27.15-2.53,29.96-2.71c2.35-0.15,3.83,1.41,4,3.41c0.12,1.4-0.59,34.38-0.59,35.27"/><path d="M51.55,51.98c9.96-0.73,26.69-1.89,31.65-1.89"/><path d="M51.8,63.3c6.14,0,23.08-1.26,31.03-1.26"/><path d="M51.1,76.29c6.14,0,25.58-1.27,33.53-1.27"/><path d="M59.36,82.96c0.5,1.17,0.48,1.99-0.5,2.84c-2.98,2.58-10.61,8.44-17.64,11.44"/><path d="M74.53,81.67c6.82,4.43,14.88,12.46,16.74,16.34"/></svg>