<svg><path d="M38.27,10.25c0.22,1.29-0.06,2.98-0.76,4.09c-4.46,7.06-9.89,12.53-20.08,22.12"/><path d="M32.06,25.71c0.87,0.87,0.9,2.17,0.9,3.83c0,5.59,0,17.15,0.01,24.72c0,2.61,0,4.75,0,6"/><path d="M59.18,9.75c0.06,0.69-0.02,1.59-0.22,2.18c-1.29,3.76-2.17,5.42-5.12,9.99"/><path d="M33.49,26.12c6.55-0.52,27.56-2.48,39.53-3.61c4.18-0.4,7.26-0.69,8.24-0.79"/><path d="M54.67,26.14c0.78,0.78,1.02,1.73,1.02,3.13c0,4.87-0.06,21-0.06,25.97"/><path d="M34.18,36.35c6.39-0.45,26.1-2.14,36.57-3.05c3.19-0.28,5.51-0.48,6.35-0.56"/><path d="M34.16,46.23c6.64-0.37,25.65-1.75,36.21-2.51c3.44-0.25,5.98-0.44,6.91-0.5"/><path d="M34.16,57.6c6.63-0.53,29.4-1.95,41.96-2.67c4.19-0.24,7.25-0.43,8.19-0.52"/><path d="M15.38,72.98c4,0.77,7.56,0.38,11.11,0.07c17.04-1.5,42.08-3.23,56.39-3.82c3.83-0.16,7.97-0.22,11.75,0.59"/><path d="M53.09,59.63c0.95,0.95,0.98,2.12,0.98,3.62c0,0.55-0.04,18.95-0.06,29.5C54,95.86,54,98.29,54,99.38"/></svg>