<svg><path d="M39.98,10.75c0.3,1.99-0.08,4.59-1.04,6.29C32.81,27.89,25.04,37.08,11,50.29"/><path d="M27.03,36c0.97,1,1.71,3.19,1.77,4.75c0.57,13.82-0.79,50.31-0.31,57.5"/><path d="M64.3,10.75c0.1,1.1-0.03,2.55-0.33,3.49C62,20.27,59.51,24.92,55,32.25"/><path d="M28.53,36.3c11.22-1.3,53.9-5.09,58.72-5.8"/><path d="M56.68,34.5c0.54,0.51,0.97,1.21,0.97,2.09c0,8.96,0.06,41.05-0.27,55.16"/><path d="M30.03,53.3c10.58-1.08,49.93-4.21,54.47-4.8"/><path d="M28.75,71.5c11.17-0.91,52.46-2.75,57.25-3.25"/><path d="M28.75,94.75c11.22-1.3,56.94-3.79,61.75-4.5"/></svg>