<svg><path d="M14.37,15.75c1.12,0.59,2.24,1.26,3.34,1.08c6.54-1.08,10.54-2.33,14.43-3.11c3.21-0.65,5.62,1.18,4.26,3.93c-1.36,2.75-7.63,17.09-10.01,21.02"/><path d="M26.38,38.66c12.37,11.09,9.62,46.09-0.8,32.65"/><path d="M16.04,16.58c0.21,0.67,0.5,2.67,0.5,3.83c0,1.2,0,69.49-0.22,76.84"/><path d="M51.73,11.75c0.73,0.84,1.82,2.72,1.82,4.86c0,2.95,0,4.64,0,9.3"/><path d="M38.7,26.94c0.55,0.29,2.44,0.33,2.99,0.29c3.1-0.25,18.77-2,23.46-2.21c0.92-0.04,1.47,0.14,1.93,0.28"/><path d="M44.25,29.94c1.52,4.24,2.21,8.58,2.35,11.38"/><path d="M61.71,28.28c0.41,0.38,0.46,1.41,0.41,1.72c-0.33,2.13-3.79,8.47-4.62,10.1"/><path d="M36,44.93c0.81,0.4,1.76,0.45,2.58,0.4c9.68-0.6,16.4-2.24,26.67-3.06c1.35-0.11,2.17,0.19,2.85,0.39"/><path d="M41.82,54.24c0.39,0.6,0.65,1.19,0.78,1.79c0.13,0.6,0.18,39.45,0.13,40.79"/><path d="M43.37,54.84c1.55-0.15,14.28-2.16,15.44-2.33c2.07-0.3,2.84,1.94,2.59,2.83c-0.25,0.86-0.39,22.23-0.39,34.3c0,10.7-2.8,6.01-5.64,2.77"/><path d="M43.37,65.83c5.3-0.89,12.46-1.26,17.12-1.71"/><path d="M43.76,76.66c4.14-0.45,11.69-1.29,16.47-1.59"/><path d="M76.1,20.45c3.95-0.5,12.05-1.37,16.52-2.29c1.02-0.21,1.66,0.14,2.17,0.28"/><path d="M74.02,12.23c1.16,1.01,1.49,2.46,1.5,3.87c0.04,2.98-0.17,11.24-0.29,15.34c-0.03,0.89,0.23,1.98,2.33,1.56c4.63-0.92,8.32-1.4,13.49-2.32c2.44-0.43,4.19,0.57,3.52,3.3c-0.73,2.99-1.43,6.5-2.33,11.66"/><path d="M73.86,48.24c4.67-0.31,14.49-1.48,21.02-1.76"/><path d="M72.89,47.25c0.62,1.13,1.11,2.46,1.14,4.2c0.17,7.77,0.06,28.9,0.06,34.19c0,8.86,1.65,10.95,13.18,10.95c9.98,0,11.37-2.64,11.37-8.66"/><path d="M75.06,59.31c3.95-0.5,10.94-1.06,16.35-1.82c1.03-0.14,1.65,0.14,2.17,0.28"/><path d="M74.36,69.8c3.95-0.5,11.14-1.3,16.6-1.84c1.04-0.1,1.66,0.14,2.17,0.28"/><path d="M74.44,81.29c3.95-0.5,12.06-1.54,17.84-2.32c1.03-0.14,1.65,0.14,2.17,0.28"/></svg>