<svg><path d="M13,27.43c1.83,0.65,4.4,0.38,6.26,0.06c7.51-1.3,15.93-2.4,22.49-3.09c1.96-0.21,3.8-0.38,5.75,0.04"/><path d="M31.97,13.42c1,1,1.34,2.08,1.34,3.66c0,4.17,0.05,13.55,0.05,18.78"/><path d="M18.29,38.51c1.58,0.48,3.36,0.14,4.96-0.04c6.25-0.71,13.24-2.1,17.75-2.72c1.49-0.21,2.74-0.29,4.21-0.02"/><path d="M18.25,49.2c1.39,0.57,3.7,0.36,5.16,0.19c4.75-0.58,12.09-1.87,16.61-2.48c1.27-0.17,2.8-0.05,4.05,0.26"/><path d="M11.58,61.87c2.18,0.78,5.34,0.29,7.54-0.05c6.07-0.92,16.25-2.77,23.88-3.3c2.04-0.14,4.12-0.29,6.13,0.14"/><path d="M31.22,62.44c0.99,0.99,1.23,2.06,1.23,3.82c0,4.75,0.05,19.82,0.05,23.7c0,8.24-3.53,2.96-6.81,0.2"/><path d="M20.52,72.5c0.09,1.08-0.03,2.14-0.37,3.17c-2.02,4.33-4.9,9.08-9.9,15.33"/><path d="M40.75,69.25c1.84,1.54,4.83,6.14,5.29,8.52"/><path d="M54.86,26.59c2.39,0.79,4.13,0.91,6.26,0.62c7.64-1.08,13.72-1.87,22.05-2.94c2.74-0.35,3.52,1.4,3.2,3.55c-0.83,5.61-1.6,8.65-2.71,18.27"/><path d="M51.67,38.62c2.83,0.5,4.6,0.23,7.09-0.08c12.57-1.59,22.55-3,31.89-4.37c2.3-0.34,4.65-0.31,6.93,0.08"/><path d="M55.58,50.43c2.06,0.25,3.89,0.23,5.93-0.12C69,49,73.84,48.48,79.9,47.71c1.99-0.25,3.76-0.39,5.76-0.22"/><path d="M68.73,11.33c1.16,1.16,1.33,2.67,1.33,4.56c0,12.69,0.02,70.65,0.02,74.97c0,9.77-5.08,2.39-6.52,0.72"/><path d="M53.75,62.25c2.23,1.18,5.76,4.85,6.32,6.68"/><path d="M50.15,84.35c0.99,0.9,2.06,0.78,3.04,0.01c0.58-0.45,7.86-7.46,10.32-9.64"/><path d="M88.17,55.39c0.05,0.33-0.29,1.17-0.59,1.59c-1.7,2.4-3.33,3.9-7.28,6.77"/><path d="M76.4,67.48c1.62,0.38,8.48,9.02,14.61,15.28c1.4,1.42,2.75,2.23,4.49,3.19"/></svg>