<svg><path d="M28,26.25c1.75,0.25,3.7,0.66,6,0.5c14-1,31.02-2.1,42-2.75c4.25-0.25,5.5,1.75,5,4.25c-1.31,6.54-2.5,9-4.25,20.25"/><path d="M13.75,39.5c2.25,0.25,4.01,0.73,6.5,0.5c21.75-2,51.25-4.5,68.5-5.25c2.76-0.12,5,0.5,6.25,0.75"/><path d="M28,50.71c1.25,0.2,3.51,0.72,5,0.61c13.75-1.02,29.25-2.23,41.75-2.64c2-0.06,3.25,0,4.75,0.2"/><path d="M52.27,11.83c0.09,0.48,1.67,2.49,1.76,5.52c0.4,14.55-0.26,68.16-0.26,73.12c0,12.78-7.71,1.5-9.21,0.25"/><path d="M26.75,58.25c3.44,1.85,8.89,7.62,9.75,10.5"/><path d="M18.5,90.23c1.64,1.53,3.01,2.18,4.65,0.87C24.12,90.33,37.9,77.96,42,74.25"/><path d="M77.28,54.64c0.03,0.28,0.06,0.73-0.05,1.14c-0.66,2.41-4.46,7.7-9.66,10.93"/><path d="M56.25,61.75c3.93,1.2,25.59,23.6,30.75,27.65c1.75,1.37,3.25,1.96,5,2.35"/></svg>