<svg><path d="M52.96,10c1.08,1.06,1.53,2.3,1.34,3.75c0,6.13-0.05,19.42-0.05,21.13c0,6.38-5,1.38-6.75-0.36"/><path d="M34.17,22.72c0.03,1.24-0.27,2.36-0.9,3.36c-2.52,4.4-8.66,10.93-13.61,14.36"/><path d="M73.5,17.95c6.37,2.69,13.88,8.43,16.5,13.81"/><path d="M69.09,24.83c0.15,1.01-0.29,2.79-1.31,4.06C58.25,40.75,39,57.5,14.25,67.5"/><path d="M36.96,57.05c0.87,0.87,1.22,2.08,1.22,3.47c0,4.79,0,19.48,0,29.98c0,4.25,0,7.81,0,9.75"/><path d="M64.82,43.5c0.05,0.52-0.02,1.21-0.19,1.66c-1.1,2.86-1.74,4.11-4.26,7.59"/><path d="M37.96,56.24c6.93-0.61,27.78-2.36,39.44-3.39c3.97-0.35,6.9-0.62,7.91-0.73"/><path d="M60.75,56.36c0.84,0.84,1.06,2.06,1.06,3.26c0,8,0.03,23.11,0.03,31.06"/><path d="M39.25,67.88c6.69-0.51,25.21-1.78,35.25-2.51c3.1-0.23,5.4-0.4,6.28-0.49"/><path d="M39.14,79.76c6.92-0.42,25.29-1.74,35.75-2.5c3.52-0.26,6.14-0.45,7.14-0.53"/><path d="M39.39,92.81c7.87-0.42,30.32-1.68,42.73-2.48c2.71-0.17,5.43-0.37,8.14-0.59"/></svg>