<svg><path d="M34.01,11.5c0.22,1.39-0.06,3.2-0.77,4.39c-4.55,7.57-10.31,13.97-20.74,23.18"/><path d="M25.03,26.84c0.97,0.49,1.71,1.56,1.77,2.32c0.57,6.75-0.79,24.58-0.31,28.09"/><path d="M63.06,12c0.08,0.59-0.02,1.36-0.26,1.87c-1.54,3.22-3.5,5.71-7.04,9.64"/><path d="M26.53,26.98c11.22-0.64,57.9-2.99,62.72-3.33"/><path d="M54.18,26.1c0.54,0.25,0.97,0.59,0.97,1.02c0,4.38,0.06,18.55-0.27,25.45"/><path d="M28.03,35.29c10.58-0.53,50.93-2.56,55.47-2.85"/><path d="M26.75,44.18c11.17-0.44,52.96-2.35,57.75-2.59"/><path d="M26.75,53.54c11.22-0.64,59.44-2.85,64.25-3.2"/><path d="M21.83,61.13c0.52,0.25,1.62,1.89,1.73,2.4c0.1,0.51-0.17,34.97-0.17,35.6"/><path d="M24,63.75c2.5-0.25,11.99-1.86,15.5-2.25c2.25-0.25,3.75,0,3.75,2.5s0,8.5,0,10.25s-0.75,3,1.5,2.75s17.75-2.25,20-2.25"/><path d="M64.68,59.94c0.48,0.96,0.96,1.45,0.96,2.73c0,1.29-0.32,14.36-0.32,15.01"/><path d="M66.08,61.65c5.67-0.65,16.3-1.89,18.61-2.33c1.5-0.29,2.34,0.79,2.33,2.8C87,69.25,86,82,83.18,93.23c-0.98,3.89-3.68,1.27-5-0.93"/></svg>