<svg><path d="M24.97,20.28c3.51,0.58,7.02,0.54,10.55,0.11c16.73-2.02,25.86-2.77,39.98-3.82c3.84-0.29,7.59-0.63,11.38-0.01"/><path d="M27.9,21.42c1.03,1.03,1.14,2.59,1.14,5.02c0,27.58-5.79,52.56-18.48,65.53"/><path d="M46.03,28.52c0.1,0.91-0.08,2.05-0.34,3.17c-1.61,7.06-8.61,20.47-16.13,30.04"/><path d="M38.43,51.27c0.71,0.71,0.99,1.92,0.99,2.99c0,8.13-0.02,21.93-0.03,31.62c0,3.47-0.01,6.42-0.01,8.38"/><path d="M60.81,27.25c0.15,1.58-0.29,3.14-0.79,4.49c-3.14,8.6-6.93,15.17-14.14,25.64"/><path d="M54.04,45.69c0.82,0.82,1.06,1.81,1.06,2.95c0,8.08-0.1,26.37-0.15,37.6c-0.02,3.75-0.03,6.72-0.03,8.25"/><path d="M77.87,26c0.07,0.83-0.02,2.18-0.25,2.89c-1.49,4.56-2.86,7.36-5.36,11.61"/><path d="M55.44,44.18c5.37-0.5,20.11-2,28.72-2.98c3.13-0.36,5.45-0.65,6.22-0.79"/><path d="M71.05,44.77c0.77,0.77,1.08,1.98,1.08,3.47c0,8.27,0.09,29.88,0.09,40.68"/><path d="M56.33,59.44c5.35-0.48,17.2-1.28,24.79-1.88c3.29-0.26,5.78-0.48,6.6-0.62"/><path d="M56.31,74.13c5.84-0.38,18.77-1.36,26.33-2.01c2.71-0.23,4.72-0.42,5.48-0.52"/><path d="M56.31,90.77c5.38-0.28,19.71-1.12,28.81-1.8c3.9-0.29,6.83-0.54,7.7-0.71"/></svg>