<svg><path d="M13.5,36.39c1.92,0.78,4.33,0.81,6.36,0.54c6.17-0.84,15.96-2.68,21.02-3.75c1.57-0.33,3.24-0.55,4.87-0.41"/><path d="M31.31,17.75c0.19,1,0.18,1.92-0.12,4.08C28,45,22.75,66.5,9.5,87.79"/><path d="M36.19,52.25c0.31,1.12,0.18,1.75-0.19,2.9c-3.06,9.62-6.88,19.25-11.51,26.02c-1.46,2.14-0.63,2.9,1.43,2.14C31.88,81.12,34,80,42.09,76.93"/><path d="M39.8,69.48c2.3,2.82,5.93,11.6,6.51,15.98"/><path d="M62.12,14.5c0.19,1.69-0.05,2.91-0.65,4.36c-3.83,9.24-8.94,17.82-17.72,29.07"/><path d="M55.19,37.4c1,1,0.9,2.55,0.9,3.91c0,3.94,0.06,33.36-0.01,45.94C56.06,90.6,56,91.12,56,94.62"/><path d="M78.19,17.25c0.07,0.92,0.04,2.13-0.24,2.9c-1.95,5.35-3.32,9.1-6.56,14.96"/><path d="M57.16,38.16c6.55-0.86,20.6-2.37,29.35-3.48c3.05-0.39,5.31-0.69,6.12-0.85"/><path d="M73.23,38.83c0.79,1,0.88,2.23,0.88,3.42C74.1,52.23,74,81.66,74,87.12"/><path d="M57.39,54.07c5.41-0.74,20.48-2.13,28.16-2.95c2.11-0.22,3.66-0.4,4.3-0.52"/><path d="M57.3,69.54c5.42-0.59,18.83-1.67,27.23-2.49c2.86-0.28,4.99-0.5,5.79-0.61"/><path d="M57.3,89.43c8.32-0.8,23.94-1.97,33.21-2.89c2.38-0.24,4.1-0.43,4.74-0.56"/></svg>