<svg><path d="M38.12,10c0.17,1.3-0.05,3.01-0.61,4.12c-3.56,7.11-8.08,13.13-16.24,21.79"/><path d="M32.52,24.58c0.76,0.76,1.25,1.67,1.25,3.05c0,6.52,0.13,20.5,0.19,28.75c0.02,2.37,0.03,4.27,0.03,5.38"/><path d="M58.54,8.75c0.07,0.97-0.07,1.9-0.35,2.82c-1.14,3.72-2.61,6.73-5.17,11.35"/><path d="M34.41,25.41c6.53-0.58,29.58-2.93,40.74-3.94c2.79-0.25,4.77-0.44,5.47-0.52"/><path d="M52.74,25.16c1.3,1.3,1.46,2.96,1.46,4.41c0,4.97,0.06,17.68,0.06,25.57"/><path d="M34.86,36.09c6.06-0.47,26.31-2.11,36.27-2.95c2.7-0.23,4.64-0.39,5.35-0.46"/><path d="M34.93,46.67c6.7-0.42,27.83-2.21,37.32-2.97c2.01-0.16,3.46-0.28,4.07-0.33"/><path d="M35.07,57.56c6.59-0.58,32.53-2.41,44.08-3.3c2.74-0.21,4.67-0.37,5.34-0.44"/><path d="M14.25,71.5c3.25,0.62,7.57,0.46,10.89,0.16C43.62,70,67,68.25,85.36,67.56c2.87-0.11,6.31-0.04,9.14,0.44"/><path d="M53,58.25c1,1,1.5,2.38,1.5,3.5c0,0.83,0,22.09,0,33.75c0,2.78,0,4.08,0,5.5"/><path d="M51.5,70.66c0,0.84-0.6,1.93-1.25,2.68c-7.17,8.27-21.58,18.5-33.5,22.91"/><path d="M56.5,71.25c5.56,4.78,18.32,13.7,27.32,18.82c2.79,1.58,5.43,3.27,8.43,4.05"/></svg>