<svg><path d="M29.79,14.38c0.71,1,0.87,2.61,0.74,3.51c-2.66,17.87-7.91,27.37-16.66,36.51"/><path d="M15.19,30.52c1.44,0.48,3.35,0.38,4.58,0.03c4.99-1.42,19.16-5.52,19.61-5.55c1.2-0.06,2.4,0.46,2.03,1.79c-0.54,1.97-2.29,8.13-2.85,13.01c-0.81,7.06,0.62,8.12,4.46,8.12c5.48,0,7.09-0.43,7.22-5.21"/><path d="M12.28,62.71c1.85,0.54,4.95,0.4,6.35,0.26c6.03-0.59,18.08-1.96,25.12-2.83c1.9-0.24,4.01-0.52,6.02-0.28"/><path d="M31.49,50.25c0.94,0.94,1.54,2.62,1.54,3.83c0,0.58-0.02,25.97-0.14,38.17c-0.03,2.84-0.06,4.92-0.08,5.75"/><path d="M31.94,63.28c0,1.47-0.55,3.54-1.32,4.74c-4.99,7.73-10.52,13.94-20.51,22.32"/><path d="M37.22,69.15c3.38,1.63,8.06,7.22,10.91,10.39"/><path d="M65.35,17.27c0.14,1.46-0.04,3.34-0.5,4.55c-2.93,7.73-5.76,13.82-12.47,23.05"/><path d="M58.22,37.89c0.69,0.69,0.93,2.12,0.93,3.87c0,13.49-0.1,35.99-0.1,48.74c0,2.87-0.06,5.06-0.06,6.75"/><path d="M82.64,17.1c0.07,0.95-0.02,2.18-0.25,2.98c-1.43,5.1-3.23,9.01-6.49,15.15"/><path d="M58.66,38.03c5.42-0.61,21.17-2.19,29.89-3.14c2.83-0.31,4.92-0.55,5.68-0.67"/><path d="M76.48,38.86c0.77,0.77,1.37,2.27,1.37,3.95c0,8.22,0,31.94,0,46.29"/><path d="M59.91,55.18c5.14-0.47,19.13-1.47,26.86-2.08c2.46-0.2,4.29-0.36,4.99-0.45"/><path d="M60.06,71.81c5.6-0.35,20.87-1.82,28.7-2.59c2.17-0.21,3.76-0.37,4.43-0.43"/><path d="M59.96,91.6c5.79-0.65,25.07-1.82,33.81-2.4c2.09-0.14,3.6-0.26,4.19-0.36"/></svg>