<svg><path d="M27.37,11c0.13,1.28-0.04,2.96-0.47,4.06c-2.77,7-6.29,12.92-12.65,21.44"/><path d="M22.75,26.92c0.46,0.53,0.82,1.69,0.85,2.5c0.28,7.29-0.38,29.04-0.15,32.83"/><path d="M42.6,12.3c0.05,0.63-0.01,1.45-0.19,1.99c-1.11,3.43-2.53,6.08-5.08,10.25"/><path d="M23.48,27.38c6.52-0.7,24.78-2.38,27.1-2.76"/><path d="M37.12,28.33c0.26,0.27,0.47,0.64,0.47,1.1c0,4.73,0.03,20.05-0.13,27.49"/><path d="M24.19,37.24c5.09-0.57,21.77-2.22,23.95-2.53"/><path d="M23.58,46.54c5.36-0.48,22.98-1.75,25.28-2.01"/><path d="M23.58,58.5c5.39-0.69,26.61-2,28.92-2.37"/><path d="M64.88,11c0.11,1.19-0.03,2.74-0.39,3.75C62.19,21.22,59.27,26.7,54,34.58"/><path d="M60.68,25.63c0.52,0.52,0.91,1.65,0.95,2.45c0.31,7.14-0.42,27.46-0.16,31.17"/><path d="M80.96,10.77c0.06,0.58-0.01,1.33-0.2,1.83c-1.18,3.16-2.68,5.59-5.38,9.44"/><path d="M61.48,25.08c7.25-0.68,27.56-2.33,30.13-2.7"/><path d="M76.1,25.03c0.29,0.26,0.52,0.62,0.52,1.08c0,4.63,0.03,20.61-0.14,27.9"/><path d="M62.28,34.74c5.65-0.56,24.2-2.18,26.62-2.48"/><path d="M61.59,43.85c5.96-0.47,25.55-1.72,28.11-1.97"/><path d="M61.59,55.56c5.99-0.67,29.59-1.96,32.16-2.32"/><path d="M34,67.96c1.89,0.27,2.13,0.67,5.92,0.27c3.79-0.4,25.51-3.37,28.11-3.77s4.11,2.05,3.05,3.44C58.75,84,42.25,91.75,19.51,99.5"/><path d="M33.48,74.9C42,74.5,66.79,89.99,85.32,96.15c2.88,0.96,4.99,1.6,7.67,1.92"/></svg>