<svg><path d="M 33.04,13.53 c 0.84,0.84 1.09,2 1.09,3.22 0,2.37 0.08,4.38 0.08,6.23"/><path d="M 12.42,26.15 c 2.46,0.48 5.1,0.31 7.58,-0.02 7.52,-1 19.19,-2.67 27.13,-3.41 2.27,-0.21 4.87,-0.35 7.19,0.04"/><path d="M 39.17,29.93 c 0.08,0.95 -0.04,1.63 -0.58,2.43 -3.71,5.52 -7.65,10.01 -13.91,14.89"/><path d="M 27.36,34.87 c 4.55,1.33 11.09,5.67 13.47,8.84"/><path d="M 19.06,34.84 c 0.44,0.91 0.44,2.03 0.37,2.95 -0.15,1.99 -1.21,8.65 -1.87,12.22 -0.53,2.84 -0.23,3.41 2.7,2.75 6.75,-1.51 16.62,-3.26 26.85,-4.1"/><path d="M 47.97,30.3 c 0.68,0.68 0.87,1.7 0.87,2.7 0,0.28 -0.6,9.75 -0.6,12.75 0,1.89 -0.13,3.72 -0.2,5.32"/><path d="M 15.51,65.73 c 0.94,0.94 1.11,2.25 0.98,3.8 -0.09,1.14 -0.1,14.38 -0.04,22.47 0.02,3 -0.08,4.67 -0.08,5.37"/><path d="M 17.49,66.96 c 3.91,-0.59 21.02,-3.93 26.96,-4.93 3,-0.5 5.1,0.6 5.02,3.85 -0.14,5.43 -0.34,18.49 -1.09,23.77 -1.14,7.96 -4.26,3.42 -5.5,1.78"/><path d="M 33.48,54 c 0.52,1.12 0.74,2.03 0.33,3.33 -1.288384,7.365808 -3.231125,13.166933 -4.809346,20.401288"/><path d="M 23.236278,82.064008 c 4.65,-2.45 8.743558,-4.398875 14.483558,-6.998875"/><path d="M 36.76,70.56 c 2.07,1.57 4.74,5.94 5.87,8.91"/><path d="M 66.89,17.5 c 0.13,1.75 -0.04,2.55 -0.46,4.05 -2.67,9.57 -6.81,18.7 -12.93,29.32"/><path d="M 60.44,39.43 c 0.87,0.87 0.9,1.82 0.9,3.13 0,9.03 0,39.94 0,47.94 0,4.5 -0.09,5.88 -0.09,7.5"/><path d="M 84.2,17.72 c 0.06,0.95 0.02,2.2 -0.21,2.99 -1.24,4.28 -3.03,8.91 -5.85,15.2"/><path d="M 61.41,38.94 C 67.77,38.11 80.3,36.7 88,35.74 c 3,-0.37 5.26,-0.68 6.14,-0.85"/><path d="M 78.73,38.61 c 0.83,0.83 0.88,2.11 0.88,3.26 C 79.6,50.98 79.5,74.72 79.5,87"/><path d="M 62.39,55.45 c 5.99,-0.7 17.35,-1.81 24.62,-2.55 2.59,-0.27 4.55,-0.48 5.33,-0.62"/><path d="M 62.68,70.89 c 6.2,-0.64 18.68,-2.1 25.71,-2.91 2.01,-0.23 3.51,-0.42 4.19,-0.54"/><path d="M 62.55,89.97 c 7.7,-0.72 20.75,-2.07 29.2,-2.85 2.47,-0.23 4.29,-0.42 5,-0.56"/></svg>