<svg><path d="M25.75,22.37c1.87,0.4,4.47,0.62,6.32,0.4c11.68-1.39,28.28-3.77,41.25-4.64c2.49-0.17,4.37-0.12,7.18,0.28"/><path d="M15.5,41.25c1.25,1.5,1.66,3.26,1.89,5.19c1.24,10.69,2.19,26.61,2.66,36.31c0.13,2.7,0.2,5,0.2,6"/><path d="M18.25,44.25c1.42-0.09,62.76-5.33,69.5-6c2.5-0.25,4.61,1,4.5,3.75c-0.5,12.75-1.77,28.11-6,44.75c-1.88,7.38-5.38,1.88-8.5-1.25"/><path d="M52.25,23.5C53.31,24.56,54,26.25,54,28c0,0.82-0.25,37.8-0.43,53c-0.04,3.43-0.07,5.74-0.07,6.25"/><path d="M31,53.5c4.21,1.24,8.95,3.94,11.25,6"/><path d="M30.5,68.75c3.8,1.26,9.68,5.89,11.75,8"/><path d="M66.88,48.88c4.98,1.99,10.63,5.97,12.62,7.62"/><path d="M67.25,66.5c2.75,1,9,5.5,11,7.75"/></svg>