<svg><path d="M23.702746,8.7364473C30.303167,9.3985416,36.95679,8.4421679,43.545028,8.2069691C55.710071,7.542974,67.873473,6.7120307,80.128161,6.521968C81.671178,6.5360379,83.208758,6.6091029,84.735659,6.7092812"/><path d="M12.276493,18.401317C15.158746,20.197008,14.438074,22.581192,15.18393,24.6751C16.28618,30.678057,17.186413,36.694879,17.571585,42.717066"/><path d="M15.342073,19.937049C41.513116,18.945324,67.675672,17.865654,93.838364,16.853587C97.938147,16.811935,98.295813,18.952002,97.686529,20.339122C96.894944,27.742344,94.984864,35.163405,90.731938,42.326241C89.498521,44.65358,84.72311,42.901549,82.989845,41.695835C82.557226,41.47856,82.122573,41.261992,81.670078,41.053357"/><path d="M53.24379,9.3149057C56.359748,10.83954,54.814961,13.070199,55.147933,14.940642C55.008324,23.943602,54.870531,32.946633,54.637236,41.9492"/><path d="M29.555217,24.672221C34.084575,25.326342,38.441318,26.345086,42.096226,27.743684"/><path d="M28.997839,32.478856C33.928616,33.370747,38.241486,34.932126,42.096226,36.57414"/><path d="M69.552673,22.307195C74.619245,23.280889,79.308633,24.654468,83.620902,26.207952"/><path d="M69.965136,31.327057C74.497487,32.286694,78.666653,33.695432,82.227457,35.294364"/><path d="M24.006363,50.93573C32.708553,51.62386,41.414838,50.386985,50.113659,50.148507C62.208545,49.605772,74.306918,48.693658,86.418115,48.838061C87.189772,48.869223,87.961023,48.909847,88.731906,48.956234"/><path d="M13.923755,64.632828C22.227458,65.463877,30.535474,64.07783,38.832726,63.745104C56.388768,62.655156,73.959338,61.431875,91.555005,61.380319C93.386856,61.424836,95.217594,61.519588,97.043755,61.67109"/><path d="M47.673756,64.505714C49.008042,67.809111,44.258965,69.646452,42.583755,71.936271C39.003525,73.63317,42.076448,76.99805,45.031977,75.59343C53.899183,74.441985,62.722993,72.905652,71.588541,71.798935C77.124372,71.686822,73.728048,78.095511,72.022948,80.619765C68.939521,85.494605,65.357691,90.274781,60.680713,93.720168C56.688831,96.199346,51.881496,94.422316,48.173755,92.311713"/></svg>