<svg><path d="M34.21,18.07c1.59,0.18,3.65,0.3,5.08,0.14c0.35-0.04,0.72-0.08,1.1-0.12c6.92-0.75,18.73-2.14,27.81-2.95c2.01-0.18,3.69-0.15,5.54,0.1"/><path d="M24.54,29c-0.17,5.3-1.64,10.11-2.73,15.47"/><path d="M26.02,31.17c16.23-2.04,39.36-4.54,56.48-5.42c11.49-0.59,3.75,5.75,0.75,8"/><path d="M52.48,19.59c0.91,0.91,1.57,2.41,1.57,3.82c0,0.3,0.04,13.99,0.05,21.84c0,2.18,0.01,3.93,0.01,4.84"/><path d="M34.72,36.98c2.67,0.69,6.32,3,7.78,4.15"/><path d="M32.72,46.88c2.5,0.75,6.12,3.01,7.49,4.26"/><path d="M65.93,33.77c3.53,1.3,7.53,3.9,8.94,4.98"/><path d="M65.7,45.19c2.85,0.8,6.74,3.22,8.3,4.56"/><path d="M36.5,59.2c1.42,0.27,3.8,0.4,5.21,0.27c9.21-0.84,15.69-1.84,25.2-2.31c2.36-0.12,4.03,0.13,5.21,0.26"/><path d="M17.5,72.41c3.6,0.44,7.19,0.47,10.76,0.05c16.62-1.96,36.6-3.48,53.89-4.17c4.75-0.19,7.6-0.06,9.98,0.13"/><path d="M51.43,73.28c0.07,1.22-0.47,2.87-1.36,3.87C45.75,82,40.5,87,34.78,91.61c-1.97,1.59-2.11,3.21,1.01,2.48C42.5,92.5,61.58,89,72.5,87.5"/><path d="M66.46,79.93C71,82.58,76.88,89.62,79.31,95"/></svg>