<svg><path d="M29.11,14.81c2.68,0.37,5.31,0.57,8.04,0.3c8.47-0.86,23.33-2.52,34.23-3.32c2.32-0.17,4.67-0.4,6.98-0.01"/><path d="M16.89,29.74c-0.23,5.73-2.27,12.08-3.78,17.87"/><path d="M17.67,31.45C39.5,29,71.45,25.73,88.16,25.73c8.64,0,4.17,3.66-0.3,7.99"/><path d="M53.24,16.31c0.91,0.91,1.14,1.94,1.14,3.43c0,0.46-0.01,17.39-0.01,27.02c0,2.89-0.01,5.61-0.01,5.99"/><path d="M32.77,37.25c3.15,0.87,7.45,3.47,9.16,4.92"/><path d="M31.21,47.39c3.14,0.87,7.98,4.05,9.69,5.5"/><path d="M67.61,34.04c4.76,1.34,7.91,3.92,9.49,5.07"/><path d="M66.81,44.94c3.59,1.04,8.49,4.18,10.45,5.93"/><path d="M25.49,63.5c0.94,0.94,1.29,2.56,1.44,3.64c1.19,8.36,2.38,17.05,3.17,25.63c0.15,1.63,0.3,3.21,0.47,4.69"/><path d="M27.64,65.49c14.21-1.4,37.48-3.49,50.66-3.69c4.54-0.07,4.84,1.53,4.32,5.46c-0.72,5.55-1.99,14.68-3.99,22.09c-0.45,1.68-0.94,3.27-1.47,4.72"/><path d="M52.23,65.72c0.9,0.9,1.16,1.91,1.16,3.5c0,7.92,0.09,18.58,0.09,22.75"/><path d="M29.79,79.07c11.96-1.07,40.83-3.2,51.11-3.27"/><path d="M31.31,94.45c10.23-0.59,29.69-1.7,45.61-2.3"/></svg>