<svg><path d="M30.91,12.56c1.59,0.44,4.27,0.78,5.72,0.65c7.79-0.71,27.91-2.47,34.92-2.56c2.05-0.03,2.63-0.14,4.51,0.1"/><path d="M19.18,22.42c-0.26,5.08-2.57,10.71-4.28,15.84"/><path d="M19.35,24.32c7.4-1.02,52.34-4.84,68.05-4.84c9.1,0,1.17,6.33-0.28,7.93"/><path d="M52.92,14.32c0.91,1.36,1.31,2.26,1.33,3.6c0.01,0.48-0.27,23.77-0.27,25.09"/><path d="M33.75,28.44c3.42,0.76,8.09,3.05,9.96,4.31"/><path d="M30,38.01c4.05,0.96,10.31,4.48,12.52,6.07"/><path d="M67.25,26.3c3.96,1.46,8.44,4.37,10.03,5.58"/><path d="M66.04,35.48c3.59,1.1,8.49,4.38,10.45,6.21"/><path d="M84.48,43.89c0.08,0.26,0.17,0.68-0.16,1.06c-1.97,2.24-13.28,7.15-28.76,10.15"/><path d="M50.13,65.79c1.39,0.54,3.93,0.67,5.31,0.54c8.26-0.77,25.83-3.27,34.33-3.24c2.31,0.01,3.7,0.26,4.85,0.53"/><path d="M70.9,53.33c0.62,0.33,1,1.48,1.12,2.13s0.25,21.16,0.12,25.25"/><path d="M55.5,81.35c1.18,0.24,3.34,0.28,4.53,0.24c7.18-0.24,16.83-1.56,26.72-1.69c1.97-0.03,3.15,0.12,4.13,0.24"/><path d="M18.25,52.33c1.25,0.45,3.25,0.75,5,0.45c1.75-0.3,8-2.01,11.5-2.61c3.5-0.6,4.5,0.02,2.5,2.19C35.41,54.36,28,63.25,24.5,68"/><path d="M24.75,69.1c4-1.16,10.25-3.15,14.25-4.16c3.04-0.76,4.51,0.38,3.75,3.06C40.25,76.78,32.5,89.1,16,97.67"/><path d="M22,75.95c5.06-0.14,33,15.3,51.36,20.09c2.64,0.69,5.89,1.21,9.89,1.97"/></svg>