<svg><path d="M30.16,12.22c1.53,0.06,4.35,0.2,5.85,0.17c7.74-0.14,29.02-2.32,36.2-2.43c2.09-0.03,2.69-0.16,4.61,0.11"/><path d="M18.18,21.42c-0.26,5.08-2.57,10.71-4.28,15.84"/><path d="M18.35,23.82c7.4-1.02,52.34-4.34,68.05-4.34c9.1,0,1.17,6.33-0.28,7.93"/><path d="M52.92,13.32c0.91,1.36,1.31,2.26,1.33,3.6c0.01,0.48-0.27,22.77-0.27,24.09"/><path d="M32.5,26.94c4.03,0.76,9.51,3.05,11.71,4.31"/><path d="M29.5,34.26c3.08,1,7.84,4.66,9.52,6.32"/><path d="M66.75,25.22c4.16,1.11,8.86,3.32,10.53,4.24"/><path d="M66.04,32.73c3.59,1.32,8.49,5.27,10.45,7.46"/><path d="M21.63,44.79c3.04,1.27,7.86,5.22,8.62,7.2"/><path d="M14.75,57.28c3.79,1.21,9.8,4.99,10.75,6.88"/><path d="M15.25,92.08c1.65,1.1,3.64,1.15,4.68-0.21c3.03-3.98,6.06-8.84,8.82-13.91"/><path d="M38.75,52.26c1.16,0.09,3.81,0.6,4.94,0.48c9.12-1,35.86-3.77,48.25-4.03c1.91-0.04,2.89,0.04,4.31,0.61"/><path d="M43.67,62.62c0.84,0.37,2.14,2.38,2.3,3.12c0.17,0.74,1.39,22.85,1.22,27.49"/><path d="M45.99,65.3c3.68-0.24,37.96-4.08,40.69-4.32c2.32-0.2,3.95,1.45,3.81,3.02c-0.74,8.25-1.74,14-2.95,22.21c-1.05,7.15-4.07,2.77-6.4,0.04"/><path d="M 65.07,39.723958 c 0.5,0.29 1.66,1.7 1.66,2.78 0,0.59 0.23,54.476042 0.13,58.136042"/></svg>