<svg><path d="M31.16,13.15c1.44,0.06,4.1,0.3,5.5,0.16c7.49-0.76,27.32-2.65,34.07-2.76c1.97-0.03,2.53-0.15,4.33,0.1"/><path d="M18.93,21.92C18.71,27,16.8,32.63,15.4,37.77"/><path d="M19.35,23.32c7.4-1.02,52.34-4.84,68.05-4.84c9.1,0,1.17,6.33-0.28,7.93"/><path d="M53.42,14.82c0.91,1.36,1.31,2.26,1.33,3.6c0.01,0.48-0.27,17.77-0.27,19.09"/><path d="M34.5,27.93c2.99,0.68,7.08,2.21,8.71,3.33"/><path d="M30.5,35.01c3.08,0.72,7.84,3.37,9.52,4.57"/><path d="M66.5,23.75c3.66,1.22,7.81,3.67,9.28,4.69"/><path d="M66.29,32.48c3.33,0.92,7.88,3.68,9.7,5.21"/><path d="M53,41.75c0.13,0.28,1.93,1.46,1.93,3.24c0,6.08,0.11,11.16,0.11,14.06"/><path d="M38.95,45.78c0.06,0.43,0.14,1.11-0.14,1.73c-1.68,3.64-9.78,9.38-18.92,13.4"/><path d="M67.83,45.02c8.68,2.67,19.63,9.09,21.81,13.24"/><path d="M32.37,60.47c0.64,0.7,1.07,1.4,1.28,2.1c0.21,0.7,0.3,36.26,0.21,37.84"/><path d="M34.93,61.17c2.56-0.17,36.11-3.28,38.01-3.47c3.41-0.35,4.27,2.22,4.27,3.32c0,7.55-0.64,17.44-0.64,31.62c0,8.5-7.26,0.95-9.18-0.28"/><path d="M34.43,71.73c8.74-1.05,34.03-2.57,41.71-3.1"/><path d="M34.29,82.43c6.82-0.52,34.11-3.25,42-3.6"/></svg>