<svg><path d="M32.26,16.82c2.45,0.31,4.7,0.35,7.13,0.03C46.46,15.9,57.5,14.41,67,13.63c2.64-0.21,5.35-0.54,7.99-0.13"/><path d="M20.16,27.75c-0.07,5.44-0.69,11.47-1.14,16.97"/><path d="M21.81,30.13C41.81,27.25,71.77,24,86.72,24c7.74,0,3.73,4.5-0.27,8.25"/><path d="M53.02,17.34c0.95,0.95,1.21,2.16,1.21,3.57c0,2.26,0.01,12.3,0.01,18.59c0,2.64,0,4.62,0,5.09"/><path d="M35.75,34c2.45,0.61,5.78,2.42,7.11,3.42"/><path d="M34.45,41.88c2.35,0.59,5.98,2.77,7.26,3.76"/><path d="M66.12,30.25c3.07,1.08,6.54,3.23,7.76,4.13"/><path d="M67.4,39.43c2.33,0.59,5.52,2.37,6.79,3.35"/><path d="M14.89,61.52c2.24,0.6,4.54,0.61,6.74,0.44c6.94-0.53,15.37-2.36,22.89-3.47c1.98-0.29,4.17-0.85,6.15-0.35"/><path d="M33.78,50.75c0.86,0.86,1.19,2,1.19,3.27c0,0.43,0.01,24.19,0.02,35.98c0.01,3.71-0.12,5.69-0.12,6.12"/><path d="M34.22,60.9c0,1.47-0.37,2.45-1.36,4.03c-4.73,7.57-8.61,12.95-15.53,19.96"/><path d="M37.78,67.27c4.09,1.29,7.69,4.41,10.82,8.08"/><path d="M58.68,53.7c0.87,0.87,1.04,2.3,1.04,3.48c0,0.88-0.08,20.98-0.06,32.08c0.01,3.88,0.02,6.59,0.06,6.9"/><path d="M60.43,54.81c2.08-0.13,15.03-1.63,20.08-2.07c3.04-0.27,4.68,0.76,4.68,3.38c0,4.88-0.06,27.75-0.06,32.88c0,2.12,0.07,4.7,0.04,4.92"/><path d="M60.89,65.87c4.73-0.2,19.32-1.63,23.17-1.63"/><path d="M60.83,78.28c6.35-0.49,17.02-1.77,23.19-1.77"/><path d="M61.34,92.1c7.04-0.6,15.29-1.35,22.41-1.57"/></svg>