<svg><path d="M30.66,13.25c1.56,0.06,4.43,0.25,5.94,0.17C44.25,13,66,11,72.88,10.44c2.12-0.17,2.73-0.16,4.68,0.11"/><path d="M19.18,22.17c-0.26,4.68-2.57,9.86-4.28,14.59"/><path d="M19.35,24.82c7.4-1.02,52.84-4.84,68.55-4.84c9.1,0,1.17,6.33-0.28,7.93"/><path d="M52.42,15.32c0.91,1.36,1.31,2.26,1.33,3.6c0.01,0.48-0.27,23.77-0.27,25.09"/><path d="M32.5,28.95c2.99,0.85,7.08,3.38,8.71,4.79"/><path d="M29.75,37.26c3,0.92,7.63,4.29,9.27,5.82"/><path d="M66.75,26.01c3.96,1.28,8.44,3.84,10.03,4.91"/><path d="M65.79,34.73c2.99,0.96,7.07,3.86,8.7,5.46"/><path d="M20.63,47.27c3.57,1.13,9.22,4.63,10.12,6.39"/><path d="M14.75,62.54c3.62,1.21,9.34,4.98,10.25,6.87"/><path d="M14.25,95.41c1.38,0.95,3.04,0.99,3.9-0.18c2.53-3.41,8.05-13.57,10.35-17.92"/><path d="M82.95,41.89c0.11,0.25,0.23,0.65-0.22,1.02c-2.63,2.14-17.74,6.83-38.43,9.71"/><path d="M46.28,57.34c0.03,0.32,0.17,0.86-0.06,1.27c-1.74,3.14-4.71,7.46-10.42,12.15"/><path d="M60.27,54.54c2.31,1.56,5.96,6.41,6.54,8.83"/><path d="M77.02,51.08c6.28,3.05,16.22,12.56,17.79,17.31"/><path d="M82.54,63.11c0.1,0.26,0.4,0.76-0.21,1.06c-7.58,3.73-18.79,7.15-38.55,10.16"/><path d="M35.18,83.81c1.25,0.5,3.53,0.58,4.78,0.5c12.96-0.84,35.68-3.82,50.51-3.78c2.08,0,3.32,0.24,4.36,0.49"/><path d="M63.69,72.24c0.56,0.76,1.75,2.61,1.75,3.12c0,5.69,0,17.86-0.19,20.98"/><path d="M42.07,98.63c0.93,0.36,2.64,0.39,3.58,0.36c12.34-0.43,28.62-2.55,41.65-2.51c1.56,0,2.49,0.17,3.27,0.35"/></svg>