<svg><path d="M30.66,12.08c1.84,0.67,4.36,0.8,5.85,0.66c7.96-0.77,28.52-2.66,35.7-2.77c2.09-0.03,2.69-0.15,4.61,0.1"/><path d="M16.68,20.1c-0.2,4.81-1.97,10.13-3.28,14.99"/><path d="M16.85,22.39c7.4-0.97,55.34-4.02,71.05-4.02c9.1,0,0.17,6.99-1.28,8.5"/><path d="M52.92,14.59c0.91,1.29,1.31,2.14,1.33,3.4c0.01,0.45-0.27,19.6-0.27,20.85"/><path d="M33.25,26.14c3.77,0.84,8.9,3.36,10.96,4.76"/><path d="M29.25,32.51c3.65,0.92,9.28,4.29,11.27,5.83"/><path d="M68.25,24.07c3.56,1.1,7.6,3.31,9.03,4.22"/><path d="M64.54,31.82c4.11,1.1,9.71,4.39,11.95,6.22"/><path d="M37.67,42.25c0.06,0.33,0.24,0.94-0.13,1.31c-4.59,4.6-11.38,8.82-23.35,12.53"/><path d="M18.2,57.72c2.41,1.23,6.23,5.05,6.83,6.96"/><path d="M30.91,51.35c1.7,1.16,4.39,4.76,4.81,6.55"/><path d="M44.63,52.09c0.07,0.43,0.29,1.24-0.15,1.73c-5.47,6.09-13.56,11.68-27.81,16.59"/><path d="M36.27,62.04C43,70.5,44.5,84.75,40.2,94.01c-3.26,7.02-6.83,0.64-7.71,0.03"/><path d="M36.54,66.51c0.06,0.35,0.12,0.9-0.12,1.4c-1.41,2.95-9.51,9.43-20.59,13.4"/><path d="M39.68,74.91c0.07,0.43,0.3,1.18-0.14,1.75c-3.22,4.18-11.95,11.19-24.37,16.71"/><path d="M52.29,44.82c0.26,0.41,0.77,1.69,0.92,2.21c1.2,4.25,2.75,14.61,3.49,22.53"/><path d="M54.03,46.39c9.29-1.07,24.22-2.39,32.91-2.78c2.56-0.12,4.35,1.84,4.22,3c-0.48,4.28-2.51,13.94-3.67,21.09"/><path d="M55.76,56.65c3.03-0.42,30.02-2.76,32.52-2.93"/><path d="M57.18,68.04c6.69-0.46,21.08-1.64,30.31-2.38"/><path d="M70.01,46.66c1.03,0.77,1.38,2.31,1.41,3c0.34,8.88,0.14,40.57,0.14,43.78"/><path d="M54.21,79.69c0.78,0.29,2.21,0.32,3,0.29c8.14-0.33,20.44-2.29,30.51-2.35c1.3-0.01,2.09,0.14,2.74,0.28"/><path d="M49.24,94.63c1.14,0.37,3.24,0.43,4.38,0.37c11.89-0.62,23.32-1.59,37.47-1.57c1.9,0,3.05,0.18,4,0.36"/></svg>