<svg><path d="M28.66,12.01c1.84,0.49,4.62,0.8,6.2,0.66c8.44-0.75,29.72-2.12,37.32-2.23c2.22-0.03,2.85-0.15,4.88,0.1"/><path d="M19.18,22.92C18.91,28,16.6,33.63,14.9,38.77"/><path d="M18.85,24.82c7.4-1.02,54.34-3.84,70.05-3.84c9.1,0,1.17,6.33-0.28,7.93"/><path d="M53.42,13.82c0.91,1.47,1.31,2.43,1.33,3.87c0.01,0.52-0.27,23.4-0.27,24.82"/><path d="M33,29.19c3.51,0.8,8.3,3.21,10.21,4.55"/><path d="M29,36.76c2.76,0.76,7.02,3.55,8.52,4.82"/><path d="M67.25,26.48c4.35,1.17,9.29,3.49,11.03,4.46"/><path d="M65.54,34.73c3.59,0.96,8.49,3.85,10.45,5.46"/><path d="M14.9,49.34c0.67,0.29,1.89,0.34,2.55,0.29c3.48-0.27,26.44-2.47,33.77-2.59c1.11-0.02,1.78,0.14,2.33,0.29"/><path d="M24.79,42.64c0.49,0.24,0.79,1.09,0.89,1.57c0.1,0.48,1.3,9.15,1.82,14.63"/><path d="M44.36,41.75c0.49,0.24,0.45,2.08,0.39,2.57c-0.35,2.62-0.4,4.79-1.71,11.56"/><path d="M27.42,57.19c1.87,0,15.22-0.9,16.9-1.01"/><path d="M19.86,64.03c0.26,0.3,0.54,0.56,0.65,0.94c0.92,3.01,1.23,7.11,1.86,12.52"/><path d="M20.98,66.07c7.78-1.1,24.12-2.92,27.46-3.35c1.22-0.15,2.26,0.94,2.04,1.84c-0.44,1.86-1.62,5.08-2.58,8.32"/><path d="M22.63,75.85c3.92-0.48,22.52-2.02,27.5-2.5"/><path d="M15.75,84.41c0.8,0.35,2.25,0.38,3.05,0.35c6.2-0.26,24.16-2.9,33.17-3.05c1.33-0.02,2.12,0.17,2.78,0.34"/><path d="M34.41,58.36c0.57,0.32,0.91,1.45,1.03,2.1c0.11,0.64,0,37.02-0.11,41.05"/><path d="M62.75,46.27c0.49,0.65,0.82,1.3,0.99,1.95c0.17,0.65,0.17,15.01,0.17,16.47c0,9.06-2.65,25.06-9.9,32.44"/><path d="M64.72,47.57c1.97-0.16,19.56-1.9,21.03-2.09c2.63-0.32,3.62,2.11,3.29,3.09c-0.32,0.94-0.49,32-0.49,45.15c0,8.45-3.94,2.92-5.59,1.46"/><path d="M64.72,60.58c6.74-0.97,17.25-1.44,23.17-1.92"/><path d="M65.21,72.91c5.26-0.49,16.26-0.95,22.34-1.27"/></svg>