<svg><path d="M14.88,25.43c0.9,0.32,3.04,0.89,3.94,0.82c6.46-0.46,20.19-2.8,25.76-3.3c1.49-0.13,2.11-0.07,2.9-0.02"/><path d="M29.58,13.13c0.57,0.22,1.91,2.54,1.91,2.99c0,5.56-0.23,22.84-0.18,29.72"/><path d="M16.62,35.71c0.82,0.24,3.32,0.29,4.14,0.24c6.96-0.44,15.99-1.95,21.59-2.28c1.36-0.08,2.36-0.05,3.08-0.01"/><path d="M12.55,47.58c1,0.23,2.83,0.35,3.82,0.23c8.1-0.98,18.83-2.3,27.43-3.37c1.65-0.21,4.07-0.19,5.26,0.37"/><path d="M19.32,56.67c0.51,0.51,0.85,1.96,1.02,2.47c0.17,0.51,0.09,22.92,0.09,37.61"/><path d="M20.28,58.12c3.86-0.54,17.9-2.86,19.42-2.86c1.79,0,3.03,0.73,3.03,2.43c0,3.9-0.07,23.5-0.15,33.87c-0.07,9.16-3.43,3.56-4.89,1.62"/><path d="M30.57,57.69c0.8,0.36,0.72,1.55,0.71,2.46c-0.02,4.56-0.09,10.52-0.09,12.66"/><path d="M21.15,74.42c6.94-0.69,14.58-2.09,21.65-2.26"/><path d="M82.79,10.14c0.04,1.21-0.68,2.41-1.12,2.74c-2.4,1.76-11.3,5.73-25.61,8.83"/><path d="M59,25.59c0.02,0.31,0.04,0.81-0.04,1.25c-0.5,2.64-3.34,8.45-7.23,12"/><path d="M68.14,22.61c2.27,2.14,5.86,8.79,6.43,12.11"/><path d="M80.46,20.77c4.38,2.47,11.31,10.18,12.41,14.03"/><path d="M55.58,42.16c1.26,0.21,2.32,0.52,3.77,0.43C69.25,42,79,39.75,86,38.32c2-0.41,3.01,1.5,2.7,3.65c-0.82,5.62-1.63,18.18-2.26,25.05"/><path d="M50.79,54.57c1.6,0.31,2.83,0.81,4.61,0.62c13.1-1.43,25.68-3.76,37.92-4.68c1.96-0.15,3.54,0.12,4.43,0.43"/><path d="M56.27,68.05c0.79,0.13,2.2,0.46,3.14,0.39c8.64-0.65,16.57-3.09,24.43-3.35c1.26-0.04,2.04,0,2.98,0.13"/><path d="M71.02,42.45c0.46,0.87,0.8,2.86,0.84,5.77c0.21,13.95-0.13,39.2-0.13,43.95c0,10.05-6.58,1.19-7.18,0.29"/></svg>