<svg><path d="M42.12,14.75c0.75,0.75,1.43,2.23,1.46,3.25c1.55,50.38-0.2,64.5-14.08,80.75"/><path d="M20.75,35.75c1.75,0.38,3.23,0.36,4.75,0.25c3.38-0.25,9.25-1.25,15-2.5"/><path d="M20.25,52.5c1.38,0.25,3.24,0.19,4.75,0c3-0.38,11.12-2.12,16-3.5"/><path d="M14.25,72.66c0.98,0.98,2.35,1.24,3.83,0.65c4.17-1.68,17.34-6.63,21.55-8.18"/><path d="M64.37,12.25c1,1,1.46,2.5,1.46,4c0,0.85-0.11,51.5-0.11,73.25c0,4.36-0.07,7.43-0.11,8.5"/><path d="M69.25,30c4.5-0.38,14.5-2.25,18.25-3.25c1.21-0.32,2.75-0.38,4.25-0.12"/><path d="M69.12,47c4.38-0.12,14.62-2.12,18-2.75c1.23-0.23,2.62-0.38,4-0.12"/><path d="M69,67.88c4.5-0.38,18.62-2.62,22-3.25c1.23-0.23,2.62-0.38,4-0.12"/></svg>