<svg><path d="M22.31,23.86c2.25,0.8,5.69,0.66,8.07,0.38c12.88-1.5,35.75-3.5,50.13-4.42c2.49-0.16,4.98,0.01,7.44,0.54"/><path d="M38.08,12.38c1.02,1.02,1.55,2.18,1.69,2.94c0.48,2.68,1.72,9.47,2.83,17.42c0.25,1.76,0.47,3.47,0.65,5.01"/><path d="M69.23,10.75c0.52,1.12,0.69,2.51,0.44,3.69c-1.17,5.56-1.79,9.72-3.71,17.55"/><path d="M44.08,34.94c3.67-0.31,13.71-1.07,19.68-1.53c1.83-0.14,2.99-0.16,4.04-0.04"/><path d="M26.5,46.85c0.89,0.89,1.38,2.08,1.49,2.7c1.01,5.57,1.38,8.32,2.61,14.68c0.3,1.56,0.44,1.98,0.69,3.73"/><path d="M28.64,48.71c14.86-1.71,43.42-4.53,49.8-5.19c2.33-0.24,4.05,1.7,3.65,3.1c-0.84,2.88-1.96,6.63-3.92,12.65"/><path d="M32.04,63.88c6.54-0.65,30.59-2.55,42.95-3.52c1.78-0.14,3.31-0.26,4.51-0.35"/><path d="M16.75,78.2c3.38,0.93,6.33,0.73,9.39,0.43C38.64,77.4,69.24,74.67,86,74.1c3.03-0.1,6.02-0.2,9,0.44"/><path d="M53.87,37.25c0.81,0.81,0.96,2.48,0.96,3.5c0,4.25-0.11,35.62-0.11,51.75c0,3.14-0.07,5.46-0.11,6.5"/></svg>