<svg><path d="M51.46,8.63c0.81,0.4,2.02,2.52,2.18,3.32c0.16,0.81,0.08,1.87-0.08,6.9"/><path d="M21.78,21.45c1.62,0.57,4.59,0.73,6.2,0.57C43.25,20.5,65,17.5,81.65,16.57c2.69-0.15,4.31,0.27,5.66,0.55"/><path d="M25.46,22.35c0.05,1.54,0.11,3.99-0.1,6.21C24.09,41.64,23,74.25,7.56,87.47"/><path d="M31.33,34.72c0.51,0.21,2.04,0.62,3.41,0.5c5.52-0.47,10.77-1.72,15.86-2.58c1.35-0.23,2.38-0.13,3.24,0.08"/><path d="M41.78,26.68c0.76,0.3,1.22,1.34,1.37,1.94c0.15,0.6,0,20.33-0.15,24.07"/><path d="M35.34,41.17c0.02,0.29,0.03,0.75-0.03,1.17c-0.37,2.46-2.52,7.86-5.46,11.16"/><path d="M50.62,37.8c0.63,0.25,1.01,1.11,1.13,1.6c0.13,0.49,0,7.93-0.12,11.01"/><path d="M58.21,32.3c0.52,0.21,1.64,0.33,3.01,0.21c4.85-0.42,12.81-1.87,22.28-2.92c1.37-0.15,2.57-0.21,3.43,0"/><path d="M71.43,22.53c0.91,0.36,1.46,1.62,1.65,2.33c0.18,0.72,0,21.17-0.18,25.66"/><path d="M64.31,37.95c0.02,0.28-0.03,0.73-0.03,1.14c-0.02,2.9-1.02,7.65-6.15,10.94"/><path d="M81.08,34.97c0.77,0.27,1.37,1.75,1.38,2.37c0.05,2.73-0.15,5.81-0.15,7.67c0,3.3,2.48,3.86,4.92,3.85c3.37-0.02,5.65-0.44,5.65-3.04"/><path d="M47.69,55.82c0.91,0.26,0.96,2.17,1.14,2.7c0.08,0.22,0.09,2.44,0.06,10.9C48.86,80.78,48.34,92.96,37.02,100"/><path d="M29.42,63.79c1.5,0.21,3.13,0.61,4.58,0.5c1.45-0.11,12.77-1.29,14.45-1.63"/><path d="M27.57,76.16c1.05,0,2.77,0.61,3.81,0.5s14.22-2.02,17.01-2.36"/><path d="M24.03,89.4c1.05,0.78,2.48,1.26,4.21,0.78c1.02-0.28,11.94-4.59,16.28-5.96"/><path d="M61.35,53.75c0.92,0.27,1.46,1.23,1.65,1.78c0.18,0.55,0,41.46-0.18,44.88"/><path d="M63.4,61.57c4.9-0.24,17-2.04,20.68-2.44c1.34-0.15,0.41-0.08,2.72-0.08"/><path d="M63.81,74.81c4.9-0.24,14.55-1.71,18.22-2.12c1.34-0.15,0.41-0.08,2.72-0.08"/><path d="M63.68,87.91c4.9-0.24,19.4-1.21,23.07-1.62c1.34-0.15,0.41-0.08,2.72-0.08"/></svg>