<svg><path d="M9.06,17.68c1.28,0.35,3.63,0.35,4.91,0.35c8.54-0.03,18.78-1.28,32.36-2.52c2.12-0.19,3.42,0.17,4.48,0.34"/><path d="M29.29,17.64c0.02,0.37,0.04,0.96-0.03,1.5c-0.41,3.16-2.77,10.09-5.99,14.33"/><path d="M11,33.88c0.55,1.08,1.27,2.39,1.37,3.81c1.09,14.94,0.96,34.92,1.72,54.56"/><path d="M12.41,35.75c9.02-1.45,27.37-2.69,33.12-3.01c2.38-0.13,3.63,0.95,3.45,4.04c-0.72,12.77-0.95,37.99-2.66,53.27"/><path d="M23.34,36.07c0.55,0.91,1.1,2.43,1.1,3.64c0,1.21-0.26,48.86-0.26,48.86"/><path d="M35.53,35.62c0.37,1.47,0.74,2.36,0.74,3.54c0,1.18-0.86,45.99-0.86,48.93"/><path d="M24.75,50.79c1.2,0,9.83-0.53,11.03-0.53"/><path d="M25.12,66.92c2.08-0.26,9.07-0.27,10.79-0.4"/><path d="M14.31,89.51c4.94-0.01,29.56-1.54,31.39-1.54"/><path d="m66.519044,16.857119c0.583095,0.883025,0.716721,1.931617,0.716721,3.237758,0,1.030196,0.04252,25.230602-0.01215,36.121244-0.01215,2.869832-0.01215,4.792251,0.01215,5.058998"/><path d="m67.824933,18.411611c5.606211,-1.168169,13.502282,-2.437517,18.889832,-3.357335,1.816096,-0.312738,2.587482,0.929016,2.587482,3.265353,0,2.299545-0.06074,25.828483-0.08503,35.8361-0.0061,2.67667-0.01215,4.369135-0.01215,4.405928"/><path d="m67.940337,31.243069c4.4218,-0.551891,15.202974,-2.741057,20.590524,-3.108984"/><path d="m67.952485,43.688203c5.174964,-0.579485,14.662397,-2.308742,20.493342,-2.869831"/><path d="M67.861376,57.513064C73.807725,56.905985,82.2383,55.526258,88.354718,55.093944"/><path d="m72.283176,64.034572c0.157922,1.379727,0.0061,2.750255-0.24903,3.716064-1.639953,6.282356-8.400205,19.159804-17.255952,25.635321"/><path d="m79.875553,59.085953c0.649907,0.984205,0.807828,2.382328,0.838198,4.074792,0.121478,7.533308,0.02429,5.702871,0.02429,16.740684,0,9.308556,0.74709,10.605499,11.261013,10.605499,11.425016,0,12.032396,-1.407321,12.032396,-9.308556"/></svg>