<svg><path d="M10.4,25.23c0.87,0.37,2.46,0.44,3.33,0.37c4.54-0.34,20.76-1.6,30.68-3.24c1.43-0.24,2.32,0.18,3.04,0.36"/><path d="M17.35,15.46c0.47,0.33,1.25,1.98,1.34,2.64c0.81,5.9,1.23,10.94,1.73,18.4"/><path d="M36.05,11c0.52,0.37,1,1.63,0.93,2.37c-0.72,7.6-0.36,10.44-1.73,20.65"/><path d="M22.33,35.75c1.77,0,13.68-1.23,15.27-1.37"/><path d="M12.12,45.05c0.3,0.51,0.61,0.93,0.74,1.56c1.05,5.01,1.93,8.09,2.65,17.1"/><path d="M13.4,46.23c8.9-1.83,24.79-3.25,28.6-3.96c1.4-0.26,2.58,1.56,2.33,3.07c-0.5,3.1-1.85,7.36-2.94,12.75"/><path d="M15.28,61.47c4.48-0.8,20.11-2.06,27.51-2.59"/><path d="M9.75,75.7c0.86,0.54,2.92,0.49,3.79,0.54c4.71,0.26,19.46-1.99,30.45-3.73c1.41-0.22,2.29,0.26,3.01,0.53"/><path d="M27.96,37.25c0.36,1,0.54,2.23,0.54,3.25c0,8.5,0,52.25-0.12,58.5"/><path d="M47.93,31.4c1.08,0.49,3.05,0.58,4.13,0.49c5.44-0.45,33.03-3.86,39.36-4.07c1.79-0.06,2.87,0.23,3.77,0.48"/><path d="M51.42,49.69c0.66,0.28,2.44,0.42,4.21,0.28c9.36-0.73,24.39-2.64,33.93-3.21c1.77-0.11,2.22-0.28,3.32,0"/><path d="M68.3,12c1.2,0.48,1.92,2.15,2.15,3.11s0,77.9-0.24,83.89"/><path d="M70.16,48.8c-4.88,12.96-17.57,31.31-27.72,38.65"/><path d="M70.34,53.06c3.55,4.6,19.13,26.36,22.99,30.88c1.31,1.53,2.43,2.19,3.74,2.63"/></svg>