<svg><path d="M10.9,24.88c0.62,0.27,1.77,0.31,2.4,0.27c3.27-0.24,24.84-2.71,31.72-2.83c1.04-0.02,1.67,0.13,2.19,0.26"/><path d="M18.35,15.46c0.47,0.33,0.75,1.48,0.84,2.14C20,23.5,20.42,28.54,20.92,36"/><path d="M37.06,12.75c0.46,0.33,0.9,1.47,0.84,2.14c-0.65,6.86-0.33,9.42-1.57,18.63"/><path d="M21.33,34.75c1.77,0,15.68-1.23,17.27-1.37"/><path d="M13.26,44.6c0.29,0.47,0.58,0.86,0.7,1.45c0.99,4.66,1.83,8.03,2.5,16.41"/><path d="M14.48,46.21c8.4-1.71,24.92-3.03,28.52-3.69c1.32-0.24,2.43,1.45,2.2,2.85c-0.47,2.88-1.75,8.38-2.78,13.4"/><path d="M16.75,61.88c4.23-0.75,20.5-2.38,27.48-2.88"/><path d="M11,75.28c1.17,0.47,3.3,0.52,4.47,0.47c6.78-0.26,17.03-1.26,28.45-3.26c1.9-0.33,3.11,0.23,4.08,0.46"/><path d="M28.96,36.25c0.36,1,0.54,2.23,0.54,3.25c0,8.5,0,50.75-0.12,57"/><path d="M53.25,39.28c0.43,0.87,0.72,2.25,0.57,3.81C53.68,44.65,53.97,91.4,53.97,94"/><path d="M53.82,40.6c5.46-0.69,35.39-3.22,36.46-3.47c2.3-0.52,3.98,1.27,3.73,2.08c-0.43,1.39-0.43,45.24-0.43,49.23c0,9.22-4.57,3.72-6.66,1.85"/><path d="M72.13,42.86c-2.54,9.15-9.16,22.57-14.45,27.74"/><path d="M64.17,15.5c0.79,0,2.07,1.35,2.28,2.54c3.87,21.92,9.2,36.13,18.85,48.93c0.86,1.13,1.29,1.96,1.98,2.35"/></svg>