<svg><path d="M9.48,25.31c1.09,0.38,3.11,0.41,4.2,0.38c7.32-0.2,21.57-2.2,32.87-4.06c1.8-0.3,2.92,0.18,3.84,0.38"/><path d="M20.27,15.11c0.53,0.38,0.86,1.7,0.96,2.46c0.93,6.77,1.56,13.63,2.13,22.18"/><path d="M38.24,12c0.53,0.38,1.03,1.69,0.96,2.46c-0.74,7.87-0.37,10.81-1.8,21.38"/><path d="M24.56,37.24c2.03,0,13.4-1.41,15.23-1.58"/><path d="M14.76,48.7c0.3,0.49,0.61,0.89,0.74,1.51c1.05,4.84,2.43,7.81,3.15,16.5"/><path d="M16.04,49.85c8.88-1.77,24.76-3.14,28.57-3.82c1.39-0.25,2.57,1.5,2.33,2.96c-0.5,2.99-1.35,5.62-2.44,10.83"/><path d="M18.42,64.55c4.48-0.77,20.59-3.47,27.97-3.99"/><path d="M10.25,75.99c1.04,0.66,2.96,0.81,4.01,0.66c8.47-1.21,21.44-2.73,32.09-4.54c1.72-0.29,2.79,0.31,3.66,0.65"/><path d="M30.46,38.25c0.36,1,0.54,2.23,0.54,3.25c0,8.5,0,50.75-0.12,57"/><path d="M57.15,24.4c1.49,0.83,3.35,0.65,4.66,0.45c10.18-1.6,19.21-3.74,25.09-4.59c3.83-0.55,5.53,1.66,5.32,5.55c-0.56,10.25-1.98,50.44-9.98,64.41c-4.65,8.12-5.99,5.81-8.85,0.26"/><path d="M71.42,27.33c0.07,1.44,0.1,3.72-0.14,5.8C68.9,53.43,62.5,77.5,47,92.11"/><path d="M53.77,39c1.4,0,2.37,0.42,2.88,1.27C64.25,53,80.25,72.25,91.91,80.29c2.26,1.56,3.63,2.88,5.59,3.46"/></svg>