<svg><path d="M11.15,25.82c0.87,0.37,2.46,0.43,3.33,0.37c6.51-0.44,19.26-1.94,29.68-3.43c1.44-0.21,2.82-0.32,3.54-0.14"/><path d="M19.85,16.46c0.47,0.33,0.75,1.48,0.84,2.14c0.81,5.9,0.73,11.94,1.23,19.4"/><path d="M38.06,13.75c0.46,0.33,0.9,1.47,0.84,2.14c-0.65,6.86-1.33,9.42-2.57,18.63"/><path d="M22.83,36.25c1.77,0,14.68-1.73,16.27-1.87"/><path d="M15.26,46.33c0.29,0.51,0.58,0.94,0.7,1.58c0.99,5.07,1.83,8.69,2.5,17.8"/><path d="M16.48,47.53c9.02-1.03,22.92-2.79,26.52-3.51c1.32-0.26,2.43,1.58,2.2,3.1c-0.47,3.13-1.25,7.44-2.28,12.9"/><path d="M18.25,63.45c4.23-0.81,19-2.09,25.98-2.63"/><path d="M10.75,76.2c1.25,0.55,2.92,1.09,3.79,1.04c9.21-0.49,19.71-2.24,29.95-3.73c1.42-0.21,2.29,0.26,3.01,0.53"/><path d="M29.46,37.25c0.36,1,0.54,2.23,0.54,3.25c0,8.5,0,50.75-0.12,57"/><path d="M53.15,22.42c1.24,0.66,3.49,0.77,4.75,0.66c7.45-0.66,23.1-2.33,31.82-3.43c2.05-0.26,3.81-0.18,4.84,0.15"/><path d="M53.19,40.61c0.47,0.76,1.45,3.34,1.45,4.73c0,11.15,0.11,40.15,0.23,49.98"/><path d="M54.37,42.51c5.9-0.61,33.75-4.35,34.88-4.46c2.64-0.26,4,1.69,4.07,4.61c0.21,8.92-0.32,36.84-1.3,46.98c-0.49,5.12-5.27,3.11-6.58,1.03"/><path d="M71.79,24.44c0.36,0.64,0.9,1.62,0.8,3.36C71.75,42.75,68.75,60,60.13,71.19"/><path d="M71.94,51.64C77.08,54.5,85.22,63.4,86.5,67.84"/></svg>