<svg><path d="M11.9,23.88c0.62,0.27,1.77,0.31,2.4,0.27c3.27-0.24,24.84-2.71,31.72-2.83c1.04-0.02,1.67,0.13,2.19,0.26"/><path d="M18.35,15.46c0.47,0.33,0.75,1.48,0.84,2.14c0.81,5.9,1.73,12.44,2.23,19.9"/><path d="M37.56,13.75c0.46,0.33,0.9,1.47,0.84,2.14c-0.65,6.86-0.83,9.42-2.07,18.63"/><path d="M21.33,36.25c1.77,0,15.18-1.23,16.77-1.37"/><path d="M13.76,47.1c0.29,0.47,0.58,0.86,0.7,1.45c0.99,4.66,1.83,7.53,2.5,15.91"/><path d="M14.98,48.21c8.4-1.71,23.92-3.03,27.52-3.69c1.32-0.24,2.43,1.45,2.2,2.85c-0.47,2.88-1.75,7.38-2.78,12.4"/><path d="M17.25,62.88c4.23-0.75,19-1.88,25.98-2.38"/><path d="M8.75,75.33c0.93,0.44,2.63,0.54,3.56,0.44c7.52-0.81,22.94-2.84,33.44-3.03c1.55-0.03,2.47,0.21,3.25,0.43"/><path d="M28.82,37.75c0.53,1,0.81,2.23,0.81,3.25c0,8.5,0,50.75-0.19,57"/><path d="M71.49,12c0.12,0.38,1.67,1.95,1.67,4.34c0,8.16,0.09,21.01,0.09,24.91"/><path d="M61.95,18.35c0.04,0.52,0.08,1.35-0.08,2.1c-0.95,4.44-5.55,11.42-10.74,16.31"/><path d="M80.81,17.58c5.1,3.17,11.54,10.81,12.82,15.74"/><path d="M56.86,41.94c0.62,0.93,1.04,1.85,1.24,2.78s0.29,49.02,0.21,51.1"/><path d="M59.34,43.37c2.49-0.23,26.38-3.18,28.24-3.44c3.32-0.46,4.15,2.94,4.15,4.4c0,9.99-0.62,25.9-0.62,44.67c0,11.25-5.59,2.58-7.46,0.96"/><path d="M59.34,57.19c8.5-1.39,23.88-2.08,31.34-2.78"/><path d="M58.72,71.36c6.63-0.7,23.47-2.32,31.14-2.78"/></svg>