<svg><path d="M11.4,23.84c0.88,0.38,2.5,0.44,3.38,0.38c4.6-0.34,21.97-2.22,30.6-2.99c1.47-0.13,2.35,0.18,3.09,0.37"/><path d="M19.35,13.46c0.47,0.33,0.75,1.48,0.84,2.14c0.81,5.9,1.73,11.44,2.23,18.9"/><path d="M37.56,12.25c0.46,0.33,0.9,1.47,0.84,2.14c-0.65,6.86,0.17,8.42-1.07,17.63"/><path d="M22.33,33.25c1.77,0,14.68-1.23,16.27-1.37"/><path d="M14.26,43.6c0.29,0.47,0.58,0.86,0.7,1.45c0.99,4.66,1.83,7.53,2.5,15.91"/><path d="M15.48,44.71c9.52-1.21,24.92-3.03,28.52-3.69c1.32-0.24,2.43,1.45,2.2,2.85c-0.47,2.88-1.75,7.38-2.78,12.4"/><path d="M17.25,59.38c4.23-0.75,20.5-1.88,27.48-2.38"/><path d="M12.25,74.7c0.86,0.54,2.43,0.63,3.29,0.54C24.75,74.25,35,73,44.99,72.01c1.43-0.14,2.29,0.26,3.01,0.53"/><path d="M29.96,35.25c0.36,1,0.54,2.23,0.54,3.25c0,8.5,0,53.75-0.12,60"/><path d="M71.82,11.58c0.55,0.53,0.93,1.44,0.98,3.19c0.22,8.41-0.14,34.15-0.14,37.01c0,5.66-4.19,0.02-5.03-0.7"/><path d="M50.25,29.73c0.99,0.14,2.1,0.36,3.13,0.28c3.62-0.26,9.11-1.92,10.76-2.48c1.65-0.57,3.12,0.5,2.47,1.71c-3.36,6.27-7.36,12.02-12.87,16.98"/><path d="M89.94,17.86c0.06,0.29-0.11,1.12-0.32,1.5c-1.99,3.55-6.22,7.92-9.82,9.77"/><path d="M74.16,28.12c4.66,5.92,12.48,13.92,17.69,17.33c1.1,0.72,2.14,1.08,3.15,1.33"/><path d="M55.49,63.48c0.33,0.5,0.86,2.32,0.95,2.98c0.95,7.04,1.68,20.31,2.62,30"/><path d="M57.06,64.67c12.69-1.92,21.69-2.67,30.49-3.12c3.24-0.17,4.36,2.02,4.2,3.45c-0.61,5.24-2.1,20.5-3.57,29.25"/><path d="M57.91,78.11c3.82-0.51,29.63-2.26,32.78-2.47"/><path d="M59.66,93.54c8.44-0.56,21.34-1.79,28.02-2.29"/></svg>