<svg><path d="M10.15,24.34c0.95,0.41,2.7,0.48,3.66,0.41c4.98-0.37,22.19-2.5,31.06-3.05c1.59-0.1,2.55,0.19,3.34,0.4"/><path d="M18.85,14.46c0.47,0.33,0.75,1.48,0.84,2.14c0.81,5.9,1.73,12.44,2.23,19.9"/><path d="M36.56,12.75c0.46,0.33,0.9,1.47,0.84,2.14c-0.65,6.86,0.17,9.42-1.07,18.63"/><path d="M22.33,35.25c1.77,0,14.18-1.23,15.77-1.37"/><path d="M14.26,44.6c0.29,0.47,0.58,0.86,0.7,1.45c0.99,4.66,1.83,9.03,2.5,17.41"/><path d="M15.48,46.71c8.4-1.71,22.92-3.03,26.52-3.69c1.32-0.24,2.43,1.45,2.2,2.85c-0.47,2.88-1.75,7.88-2.78,12.9"/><path d="M17.25,61.38c4.23-0.75,19-1.88,25.98-2.38"/><path d="M10.75,74.2c0.86,0.54,2.42,0.57,3.29,0.54c7.46-0.24,20.23-1.99,29.95-2.23c1.43-0.04,2.29,0.26,3.01,0.53"/><path d="M29.46,36.75c0.36,1,0.54,2.23,0.54,3.25c0,8.5,0,52.25-0.12,58.5"/><path d="M61.95,12.5c0.04,0.65,0.09,1.68-0.08,2.61c-1,5.51-6.75,17.61-14.62,25.01"/><path d="M58.33,27.6c1.21,0.81,2.9,1.08,4.83,0.54c1.93-0.54,22.49-4.17,27.27-4.89c3.32-0.5,5.07,1.25,4.57,5.36c-0.68,5.67-1.11,45.78-6.41,63.95c-2.1,7.19-4.6,3.69-7.2-0.43"/><path d="M61.13,34.25c2.51,1.19,6.49,4.9,7.12,6.76"/><path d="M49.87,46.83c0.72,0.2,3.45,0.23,4.17,0.2c8.86-0.36,19.27-2.28,25.71-2.45c1.2-0.03,2.99,0.1,3.59,0.2"/><path d="M56.23,55.93c0.38,0.1,2.71,0.11,3.1,0.1c3.97-0.12,9.8-1.26,13.71-1.25c0.63,0,3.29,0.05,3.61,0.1"/><path d="M56.23,65.91c0.34,0.1,2.42,0.11,2.77,0.1c3.55-0.11,11.32-1.8,14.81-1.79c0.57,0,2.94,0.05,3.22,0.1"/><path d="M53.14,75.37c0.35,0.31,0.75,0.56,0.86,0.97c0.99,3.59,1.5,10.41,1.75,16.41"/><path d="M54.81,76.56c7.32-0.79,13.62-1.42,20.37-2.22c1.69-0.2,2.72,0.92,2.48,1.83c-1.01,3.77-1.89,5.51-3.68,11.78"/><path d="M56.47,89.87c4.8-0.46,13.1-0.26,19.69-0.97"/></svg>