<svg><path d="M8.63,24.38c0.6,0.27,1.7,0.31,2.3,0.27c3.14-0.24,23.84-3.71,30.44-3.83c1-0.02,1.6,0.13,2.1,0.26"/><path d="M15.78,13.46c0.45,0.33,1.22,1.48,1.3,2.14c0.78,5.9,1.64,12.44,2.12,19.9"/><path d="M33.73,10.75c0.45,0.33,0.87,1.47,0.8,2.14c-0.62,6.86-0.31,10.42-1.5,19.63"/><path d="M21.04,33.75c1.7,0,11.21-1.23,12.74-1.37"/><path d="M11.87,44.36c0.26,0.52,0.52,0.95,0.63,1.6c0.89,5.13,1.65,8.28,2.26,17.5"/><path d="M12.97,45.58c7.58-1.88,21.13-3.33,24.38-4.06c1.19-0.26,2.2,1.6,1.99,3.14c-0.43,3.17-1.57,7.02-2.51,12.54"/><path d="M14.57,61.17c3.82-0.82,17.14-2.62,23.44-3.17"/><path d="M10,74.24c1,0.01,2.89,0.08,3.56,0.01c4.69-0.5,16.03-2.77,23.6-3c1.11-0.03,1.78,0.24,2.34,0.5"/><path d="M25.48,35.75c0.34,1,0.52,2.23,0.52,3.25c0,8.5,0,54.25-0.12,60.5"/><path d="M64.34,12.25c0.05,0.38,0.11,0.99-0.1,1.54c-1.25,3.25-8.42,10.38-18.22,14.75"/><path d="M43.99,43.21c0.22,0.15,0.8,0.4,1.38,0.46c1.59,0.15,15-2.3,18.99-3.07c0.58-0.11,0.72-0.15,1.09,0"/><path d="M54.89,26.08c0.25,0.46,1.1,2.09,1.15,3.02c0.05,0.93,0,63.6-0.05,69.4"/><path d="M55.83,44.42c-3.63,12.54-9.69,28.01-17.92,38.27"/><path d="M58.59,50.7c3.34,2.56,6.17,7.69,7.96,10.99"/><path d="M68.17,36.34c1.78,3.15,4.38,12.09,4.87,15.24"/><path d="M95.4,31.89c0.58,0.82,1.22,1.9,0.7,3.17c-0.52,1.27-6.27,11.2-8.88,14.16"/><path d="M80.14,12.31c0.72,0.82,1.08,3.03,1.09,4.4c0.29,35.17-3.1,65.75-18.02,79.5"/><path d="M80.25,54.85c5.19,16.76,12.45,31,16.87,37.52c1.29,1.9,1.5,1.8,2.5,2.31"/></svg>