<svg><path d="M9.9,24.88c0.62,0.27,2.27,0.31,2.9,0.27c3.27-0.24,24.34-2.71,31.22-2.83c1.04-0.02,1.67,0.13,2.19,0.26"/><path d="M18.35,14.96c0.47,0.33,1.25,1.48,1.34,2.14C20.5,23,20.42,28.54,20.92,36"/><path d="M36.56,12.25c0.46,0.33,0.9,1.47,0.84,2.14c-0.65,6.86-0.33,9.42-1.57,18.63"/><path d="M21.33,34.75c1.77,0,15.68-1.23,17.27-1.37"/><path d="M12.26,45.1c0.29,0.47,0.58,0.86,0.7,1.45c0.99,4.66,2.53,10.69,3,16.91"/><path d="M13.48,46.21c8.4-1.71,24.92-2.53,28.52-3.19c1.32-0.24,2.43,1.45,2.2,2.85c-0.47,2.88-2.25,7.88-3.28,12.9"/><path d="M15.75,61.88c4.23-0.75,20.5-1.88,27.48-2.38"/><path d="M9.75,76.2c0.86,0.54,2.43,0.64,3.29,0.54c6.71-0.74,20.73-2.49,30.45-2.73c1.43-0.04,2.29,0.26,3.01,0.53"/><path d="M27.96,36.75c0.36,1,0.54,2.23,0.54,3.25c0,8.5,0,53.75-0.12,60"/><path d="M52.14,24.68c1.21,0.37,2.61,0.4,3.83,0.37c8.44-0.2,28.03-2.55,37.27-3.2c2.01-0.14,3.23,0.17,4.23,0.36"/><path d="M59.75,12.89c1.25,1.47,1.71,1.9,1.78,2.82c0.71,8.71,1.57,9.54,2.34,17.62"/><path d="M82.19,11c0.56,1.25,0.98,2.05,0.86,3.59C82.5,21.25,82,25.5,81.58,32.36"/><path d="M70.82,30.12c0.07,0.83,0.42,2.25-0.14,3.33C66.5,41.5,59.25,53.5,46.49,65.29"/><path d="M71.59,33.73c3.39,4.61,18.01,19.67,21.75,23.04c1.27,1.15,2.9,1.63,4.17,1.96"/><path d="M60.14,59.21c0.46,0.19,2.57,0.21,3.03,0.19c4.73-0.22,12.06-2.23,18.82-2.26c0.76,0,1.86,0.09,2.24,0.19"/><path d="M55.57,69.94c0.46,0.58,1.01,1.96,1.13,2.71c1.54,9.88,1.68,15.89,2.71,24.13"/><path d="M56.59,71.8c12.66-1.05,23.16-1.8,29.75-2.16c1.98-0.11,3.13,1.63,2.85,3.24c-1.16,6.67-2.96,12.26-4.15,19.71"/><path d="M59.8,94.62c7.24-0.65,18.63-1.08,27.86-1.7"/></svg>