<svg><path d="M11.9,25.88c0.62,0.27,1.77,0.31,2.4,0.27c3.27-0.24,23.34-3.21,30.22-3.33c1.04-0.02,1.67,0.13,2.19,0.26"/><path d="M19.35,15.46c0.47,0.33,0.75,1.48,0.84,2.14c0.81,5.9,2.23,11.44,2.73,18.9"/><path d="M38.06,12.75c0.46,0.33,0.9,1.47,0.84,2.14c-0.65,6.86-0.33,9.42-1.57,18.63"/><path d="M23.33,34.75c1.77,0,14.18-1.23,15.77-1.37"/><path d="M14.26,44.8c0.29,0.51,0.58,0.93,0.7,1.56c0.99,5.01,1.83,8.1,2.5,17.1"/><path d="M15.48,45.98c8.4-1.83,23.42-3.25,27.02-3.96c1.32-0.26,2.43,1.56,2.2,3.07c-0.47,3.1-1.25,7.86-2.28,13.25"/><path d="M17.25,61.22c4.23-0.8,19.5-1.56,26.48-2.09"/><path d="M11.25,74.7c0.86,0.54,2.42,0.57,3.29,0.54C22,75,36.75,72.25,45.99,72.01c1.43-0.04,2.29,0.26,3.01,0.53"/><path d="M29.96,36.75c0.36,1,0.54,2.23,0.54,3.25c0,8.5,0,52.75-0.12,59"/><path d="M53.25,23.77c1.28,0.53,2.77,0.63,4.05,0.53c11.77-0.96,19.64-2.46,33.21-2.53c2.14-0.01,3.42,0.25,4.48,0.51"/><path d="M60.92,14c1.33,1.43,1.81,1.86,1.9,2.75c0.94,9.75,1.44,13.75,2.34,21.75"/><path d="M81.1,12.25c0.4,0.75,0.94,2,0.9,2.75c-0.5,7.75-0.5,13.5-1.82,22"/><path d="M51.39,39.05c1.17,0.42,3.3,0.48,4.47,0.42c12.13-0.7,23.89-1.71,38.11-2.75c1.94-0.14,3.11,0.2,4.08,0.41"/><path d="M55.35,40.5c0.03,1.23,0,3.52-0.06,4.92C54.5,64,53.25,78.25,43.25,92.54"/><path d="M61.78,50.15c0.47,0.6,1.04,1.63,1.07,4.35c0.11,10.1,0.11,40.12,0.11,41.26"/><path d="M62.8,52.04c5.74-0.25,25.4-2.68,26.92-2.84c2.73-0.3,3.75,1.93,3.41,2.82c-0.33,0.86-0.51,27.68-0.51,39.71c0,9.27-5.33,1.28-6.41,0.76"/><path d="M63.3,63.62c7.6-0.52,23.01-1.75,29.14-2.19"/><path d="M63.46,76.2c5.45-0.45,22.64-1.85,28.95-2.15"/><path d="M75.57,52.15c0.68,0.29,1.08,1.29,1.21,1.86c0.13,0.57,0,36.57-0.14,40.15"/></svg>