<svg><path d="M9.4,24.88c0.62,0.27,1.77,0.31,2.4,0.27c3.27-0.24,21.84-3.21,28.72-3.33c1.04-0.02,1.67,0.13,2.19,0.26"/><path d="M17.85,13.96c0.47,0.33,0.75,1.48,0.84,2.14c0.81,5.9,1.23,11.94,1.73,19.4"/><path d="M35.06,11.75c0.46,0.33,0.9,1.47,0.84,2.14c-0.65,6.86-0.33,9.42-1.57,18.63"/><path d="M20.83,34.25c1.77,0,14.18-1.73,15.77-1.87"/><path d="M11.76,43.86c0.29,0.52,0.58,0.95,0.7,1.6c0.99,5.13,1.83,8.28,2.5,17.5"/><path d="M12.98,45.08c9.02-1.58,23.42-2.83,27.02-3.56c1.32-0.26,2.43,1.6,2.2,3.14c-0.47,3.17-1.25,8.02-2.28,13.54"/><path d="M15.25,61.67c4.23-0.82,19-2.12,25.98-2.67"/><path d="M9.75,75.2c0.86,0.54,2.43,0.67,3.29,0.54c6.96-0.99,22.21-3.49,29.45-3.73c1.43-0.05,2.29,0.26,3.01,0.53"/><path d="M26.96,36.25c0.36,1,0.54,2.23,0.54,3.25c0,8.5,0,52.25-0.12,58.5"/><path d="M47.51,20.55c1.49,0.2,2.65,0.3,3.88,0.21c9.83-0.75,28.6-2.01,41.06-2.82c2.04-0.13,3.27,0.34,4.3,0.69"/><path d="M57.86,11.9c1.01,1.18,1.35,1.53,1.45,2.26c0.49,3.71,1.8,10.08,2.09,12.55"/><path d="M80.6,10.25c0.58,0.74,0.89,2.31,0.78,3.42c-0.41,3.98-2.15,7.87-2.99,12.1"/><path d="M49.64,31.53c0.23,0.21,0.46,0.39,0.56,0.66C51,34.3,51.95,40.99,52.5,44.8"/><path d="M51.07,32.96c5.05-0.83,37.16-3.38,39.84-3.66c0.98-0.1,2.31,0.72,2.05,1.91c-0.55,2.48-1.42,5.92-2.58,10.64"/><path d="M63.06,31.78c0.74,0.25,0.88,0.85,0.98,1.55c0.37,2.56,1.06,7.08,1.18,8.32"/><path d="M76.79,30.9c0.2,0.71,0.74,0.95,0.63,2.01c-0.28,2.75-0.84,6.54-1.09,7.69"/><path d="M53.22,43.64c3.15-0.31,32.8-2.62,37.13-3.1"/><path d="M53.77,59.46c0.03,0.92-0.04,2.36-0.07,3.69c-0.3,12.33-3.93,30.1-11.7,35.83"/><path d="M50.08,58.62c1.01,0.49,2.87,0.58,3.88,0.49c4.79-0.44,24.98-2.83,35.77-3.27c1.69-0.07,2.7,0.23,3.55,0.47"/><path d="M56.98,70.96c2.84,1.2,8.01,5.78,10.6,10.57"/><path d="M74.4,46.29c1.05,1.05,1.42,1.35,1.7,3.61c2.15,16.85,6.48,36.67,17.06,46.15c3.84,3.45,3.48-4.16,2.96-8.83"/><path d="M89.47,62.3c0.09,0.75,0.2,1.95-0.19,3.03C87,71.71,76.13,86.94,58.15,95.51"/><path d="M82.82,44.84c2.62,1.36,6.82,4.47,8.04,6.81"/></svg>