<svg><path d="M49.08,9.5c0.33,0.23,0.86,1.02,0.74,1.53c-1.18,4.9-4.34,16.04-5.57,19.11"/><path d="M30.76,18.58c1,0.65,2.39,0.93,3.22,0.87c13.28-0.95,35.68-2.56,36.89-2.56c2.01,0,3.08,1.47,2.82,2.54c-1.01,4.12-2.09,6.24-2.89,8.85"/><path d="M16.47,32.01c1.03,0.28,3.59,0.42,4.6,0.28c4.15-0.55,48.2-3.49,67.95-4.19c1.71-0.06,3.4,0.14,4.26,0.28"/><path d="M32.35,38.5c0.39,0.41,0.8,0.76,0.97,1.27C34.68,43.86,35,46.75,36.25,54"/><path d="M33.73,39.84c9.1-1.1,33.97-2.5,39.05-3.09c1.86-0.22,3.24,1.37,2.71,2.56c-0.99,2.2-3.24,8.2-4.03,10.92"/><path d="M37.44,51.91C45.5,51.5,67,50.25,74.5,50"/><path d="M31.23,62.69c0.92,0.26,3.6,1.28,4.51,1.26c9.01-0.2,27.76-1.45,43.8-2.29c1.52-0.08,2.44,0.12,3.21,0.26"/><path d="M35.24,64.8c0,4.18-0.26,11.44-0.26,15.21"/><path d="M16.37,81.9c1.48,0.37,4.21,0.53,5.68,0.37c15.16-1.62,42.68-3.37,65.41-3.92c2.47-0.06,3.95,0.18,5.18,0.36"/><path d="M59.75,53.46c0.53,0.41,1.64,3.1,1.74,3.93c0.11,0.83-0.07,36.81-0.17,41.99"/></svg>