<svg><path d="M28.44,10.27c0.4,0.38,1.06,1.69,0.91,2.56c-1.45,8.32-3.09,13.67-4.88,20.32"/><path d="M14.58,20.53c0.73,0.62,1.73,0.8,2.34,0.78c9.33-0.3,21.94-2.47,22.81-2.5c1.46-0.05,2.24,1.38,2.05,2.44c-0.73,4.12-1.52,8.75-2.11,11.35"/><path d="M8.19,34.72c0.75,0.26,2.59,0.24,3.34,0.16c5.71-0.63,20.54-1.21,34.9-2.43c1.24-0.1,2.47,0.05,3.09,0.16"/><path d="M15.73,42.99c0.2,0.34,0.4,0.62,0.49,1.06c0.69,3.43,1.7,5.87,2.33,11.98"/><path d="M16.43,44.1c6.27-0.79,20.84-2.39,23.47-2.64c1.91-0.18,2.49,1.09,2.22,2.1c-0.5,1.89-1.64,6.09-2.04,8.42"/><path d="M19.16,53.66c4.08-0.53,16.94-1.15,22.89-1.52"/><path d="M14.51,64.63c0.56,0.27,2.6,0.33,3.16,0.32c5.47-0.08,16.84-1.96,24.9-2.97c0.92-0.12,1.48,0.15,1.95,0.29"/><path d="M19.2,65.78c0,4.15-0.17,8.82-0.17,12.57"/><path d="M10.12,79.7c0.9,0.39,2.55,0.49,3.45,0.44C23.99,79.5,30.82,78,44.91,77.11c1.5-0.09,2.4,0.22,3.15,0.43"/><path d="M32.15,55.89c0.35,0.4,1.09,3.04,1.16,3.86c0.07,0.82-0.04,35.46-0.12,40.6"/><path d="M86.51,9.93c0.09,0.34,0.19,0.87-0.19,1.36c-2.23,2.86-15.04,9.14-32.57,12.99"/><path d="M57.37,27.64c0.03,0.45,0.05,1.16-0.05,1.81c-0.6,3.81-4.07,12.18-8.82,17.3"/><path d="M67.95,24.97c3.5,2.99,9.04,12.3,9.92,16.95"/><path d="M83.5,22.82c5.29,3.19,13.68,13.13,15,18.1"/><path d="M66.94,47.11c0.04,0.34,0.15,0.98-0.07,1.34c-2.85,4.79-6.18,9.05-12.67,12.86"/><path d="M52.53,60.32c0.65,0.72,0.91,2.33,1.08,3.8c0.59,5.38,2.44,25.42,3.04,32.7"/><path d="M55.11,75.87c3.21-0.33,12.09-2.64,12.85-2.64s1.84,0,2.45,0"/><path d="M75.8,56.21c0.83,0.16,1.49,0.49,2.65,0.49s13.41-1.96,14.74-2.13c1.33-0.16,2.42,0.81,2.32,1.8c-0.99,9.49-4.81,37.98-4.98,38.64"/><path d="M76.6,71.58c0.84,0.16,1.51,0.49,2.68,0.49s13.24-1.31,14.58-1.47"/><path d="M56.8,94.03c1.99,0,31.59-2.13,33.88-2.29"/></svg>