<svg><path d="M52.97,12.5c0.77,0.77,1.62,2.12,1.62,3.64c0,3.86-0.09,4.61-0.09,9.17"/><path d="M29.12,28c1.5,0.5,2.75,0.62,4.61,0.42c11.39-1.29,25.05-3.48,38.89-4.79c2.63-0.25,5.63-0.25,7.38,0.12"/><path d="M37.12,35.38c4.15,3.73,5.01,7.31,5.6,9.93"/><path d="M67.79,27.5c0.46,0.9,0.57,2.02,0.23,3.14c-1.33,4.34-3.46,10.57-4.64,12.99"/><path d="M12.75,50.5c3.65,0.66,7.11,0.39,10.76-0.01c20.16-2.21,40.45-4.53,63.37-5.41c3.4-0.13,7.17-0.48,10.5,0.47"/><path d="M34.55,59.11c0.58,0.74,1.08,2.24,1.08,3.25c0,1.02,0.12,28.46,0.12,28.97c0,0.51,0,2.04,0,3.54"/><path d="M36.1,60.79c9.52-1.16,26.02-3.04,32.08-3.68c2.95-0.31,4.26,0.27,4.26,3.22c0,0.98-0.11,17.98-0.17,27.68c-0.02,3.04-0.03,5.36-0.03,6.25"/><path d="M36.69,74.75c5.44-0.5,29.72-2.64,34.74-2.85"/><path d="M37.11,90.41c6.58-0.27,25.43-2.25,33.94-2.6"/></svg>