<svg><path d="M20.84,26.93c1.12,1.12,1.57,2.5,1.57,4.56c0,26.64,1.21,43.89-8.78,57.67"/><path d="M33.25,24.88c0.94,0.94,1.16,2.37,1.16,3.9c0,0.56-0.09,22.62-0.12,34.59c-0.01,3.37-0.02,5.94-0.02,7.01"/><path d="M44.81,20.13c1.03,1.03,1.51,2.49,1.51,4c0,0.76,0,42.21,0,59.12c0,3.33,0,5.71,0,6.63"/><path d="M57.38,17.48c2.18,0.4,3.78,0.51,5.98,0.33c6.96-0.58,19.3-1.83,26.39-2.37c1.91-0.15,4.01-0.47,5.88,0.1"/><path d="M77.42,19.52c0.07,0.78-0.21,1.82-0.59,2.51c-1.83,3.34-3.08,5.84-7.27,10.34"/><path d="M62.09,32.55c0.74,0.74,1.12,2.05,1.12,3.42c0,6.53-0.04,25.45-0.05,34.4c0,1.53,0,2.77,0,3.61"/><path d="M64.22,34.67c5.13-0.82,18.55-3.23,23.15-3.81c2.88-0.36,4.62,1.14,4.62,3.27c0,2.62-0.05,19.46-0.01,34.12c0,1.82,0.01,3.58,0.01,5.25"/><path d="M64.43,46.5c7.82-1.25,17.32-2.5,26.51-3.49"/><path d="M64.14,58.9C70.75,58,82,56.5,90.22,55.89"/><path d="M64.55,71.8c6.2-0.55,18.84-1.69,26.33-2.21"/><path d="M71.38,77.75c0.12,1.12-0.37,2.34-1.2,3.27c-2.5,2.8-10.22,9.67-15.23,12.98"/><path d="M83.93,77.15c5.49,4.35,11.97,12.23,13.46,16.04"/></svg>