<svg><path d="M25.08,21.19c0.35,1.16,0.08,2.26-0.3,3.36c-2.48,7.12-6.4,14.95-14.51,23.84"/><path d="M35.79,20.75c3.7,2.64,10.63,14.09,12.89,22.15"/><path d="M30.18,50.68c0.32,1.32,0.13,2.93-0.25,3.84c-3.67,9.01-6.73,17.61-12.01,26.61c-1.78,3.04-0.07,4.48,2.96,3.27c6.32-2.53,13.24-5.28,22.48-8.52"/><path d="M39.38,67.62c3.89,3.29,10.05,13.51,11.02,18.62"/><path d="M54.6,17.9c3.03,0.85,5.67,0.51,8.04,0.22c9.28-1.14,18.1-1.88,26.36-2.44c2.05-0.14,3.91-0.23,5.91,0.34"/><path d="M73.32,20.43c0.06,0.74,0.04,1.49-0.27,2.16c-1.55,3.29-3.22,6.99-5.06,9.61"/><path d="M58.87,33.11c0.95,0.95,1.16,1.94,1.16,3.36c0,1.09,0,21.69,0,33.79c0,3.67,0,6.46,0,7.55"/><path d="M60.58,34.39c4.26-0.46,21.02-1.81,26.31-2.13c3.12-0.19,3.89,0.95,3.85,3.99c-0.04,3.73-0.07,22.18-0.09,32.5c0,3.96-0.01,6.73-0.01,7"/><path d="M61.28,46.91c4.66-0.46,22.32-1.57,28.04-1.56"/><path d="M61.15,60.43c6.17-0.46,21.04-1.32,28.35-1.31"/><path d="M61.31,75.23c6.17-0.62,20.32-1.56,28.11-1.54"/><path d="M66.8,81.29c0,0.96-0.31,2.16-1.18,3.1c-3.25,3.49-8.5,7.36-16.16,11.61"/><path d="M84.58,81.55c4.43,2.98,10.02,9.78,11.23,12.39"/></svg>