<svg><path d="M28.43,10.75c0.91,0.61,2.4,2.96,2.4,4.16c0,4.45-0.29,8.88-0.12,12.65"/><path d="M9.52,29.43c1.24,0.12,4.06,0.33,5.27,0.19c7.96-0.87,23.21-2.87,32.29-3.88c2.03-0.23,3.09,0.05,4.61,0.81"/><path d="M20.4,40.5c0.28,0.96,0.62,3.24,0.65,5.06c0.07,3.89,0.07,3.69,0.04,10.94c-0.1,18.8-4.82,33.36-9.59,37.5"/><path d="M21.37,42c4.55-1,9.33-1.49,13.88-2.75c3.62-1,4.75,2.01,4.49,4.55c-0.99,9.95-0.96,27.14-0.96,32.7c0,10.75,1.51,12.03,6.29,12.03c4.92,0,6.31-1.53,6.31-8.12"/><path d="M52.45,15.85c1.56,0.5,4.42,0.57,5.99,0.5c12.9-0.58,24.97-2.08,35-2.32c2.6-0.06,4.16,0.24,5.46,0.49"/><path d="M74.73,16.43c0.01,0.34,0.03,0.87-0.02,1.36c-0.3,2.87-3.28,9.16-5.64,13.01"/><path d="M60.16,32.8c0.45,1.08,1.11,1.88,1.11,3.32c0,1.44-0.15,40.34,0,41.78"/><path d="M62.03,34.23c2.56-0.18,23.74-2.86,26.08-3.08c1.94-0.18,3.48,1.99,3.31,3.32c-0.21,1.69-0.9,41.75-0.9,42.83"/><path d="M61.99,46.82c3.66,0,22.65-1.42,28.14-1.81"/><path d="M62.19,59.44c9.13-0.48,19.97-1.05,26.97-1.55"/><path d="M61.86,75.29c7.14,0.21,20.51-0.5,27.96-1.04"/><path d="M66.08,81.98c0.46,1.23-0.09,2.56-1,3.46c-2.77,2.71-9.83,8.31-17.12,11.56"/><path d="M80.07,80.87c6.51,4.39,14.21,12.37,15.98,16.21"/></svg>