<svg><path d="M10.2,28.38c1.94,0.76,5.27,0.49,7.31,0.27c7.08-0.74,16.92-1.78,23.25-2.5c2.07-0.24,4.62-0.52,6.55-0.25"/><path d="M30.55,30.06c0.88,0.88,1.38,2.44,1.38,4.52c0,13.24,0.02,48.34,0.02,52.85c0,10.21-6.64,0.46-7.99-0.67"/><path d="M49.98,19.08c2.77,0.54,5.05,0.52,7.14,0.24c9.49-1.25,22.9-2.61,31.63-3.3c2.04-0.16,4.78-0.38,6.78,0.21"/><path d="M69.99,20.81c0.07,0.74,0.04,1.48-0.32,2.13c-1.42,2.56-3.34,5.6-7.11,9.33"/><path d="M54.14,33.71c0.89,0.89,1.29,2.32,1.29,3.7c0,0.96-0.05,23.17-0.06,36.21c0,1.83,0,3.49,0,4.88"/><path d="M56.06,35.09c2.98-0.17,27.19-3.06,29.9-3.26c2.26-0.17,3.85,1.04,3.85,3.21c0,2.83-0.1,21.67-0.12,36.96c0,1.84,0,3.61,0,5.25"/><path d="M56.26,48.05c6.36-0.8,26.18-2.9,32.55-3.27"/><path d="M56.51,61.07c8.49-0.82,23.8-2.3,31.94-2.79"/><path d="M56.53,75.1c8.72-1.1,23.52-1.97,32.19-2.49"/><path d="M63.64,80.24c0.42,1.31-0.17,2.42-1,3.37C60.14,86.5,53.2,92.59,48.2,96"/><path d="M79.27,80.01c6.16,4.31,13.43,12.12,15.11,15.89"/></svg>