<svg><path d="M38.6,16.75c-0.1,1-0.75,1.96-1.24,2.58c-2.79,3.6-9.45,8.45-21.18,14.97"/><path d="M38.27,39.12c0.13,1.03-0.42,2.08-1.02,2.86c-3.66,4.71-9.11,10.5-18.65,16.37"/><path d="M39.01,66.23c0.14,1.15,0.12,2.23-0.5,3.2C35.12,74.75,27.62,83.12,16.5,90"/><path d="M50.63,17.92c2.87,0.71,5.73,0.55,8.39,0.24c9.24-1.08,16.76-2.37,24.99-2.85c2.55-0.15,4.75-0.06,7.37,0.26"/><path d="M69.77,20.41c0.05,0.69,0.02,1.38-0.24,2.01c-1.16,2.82-2.01,4.43-4.28,7.95"/><path d="M53.69,32.86c0.97,0.97,1.25,2.16,1.25,3.59c0,1.12-0.04,23.24-0.06,35.06c0,3.24-0.01,5.7-0.01,6.75"/><path d="M55.55,33.85c4.56-0.52,21.66-2.98,27.57-3.66c2.74-0.32,4.37,0.1,4.37,3.22c0,1.27-0.06,23.98-0.1,35.97c-0.01,4.12-0.02,6.98-0.02,7.25"/><path d="M56,46.43c5.02-0.61,24.36-2.58,30.53-2.74"/><path d="M56.11,60.29c6.64-0.66,22.45-2.77,30.32-2.98"/><path d="M56.24,74.43C65,73.5,77.92,72.44,86.31,72.2"/><path d="M60.67,82.7c-0.05,1.17-0.3,2.13-1.16,2.97c-3.14,3.07-8.51,7.01-15.26,10.19"/><path d="M79.62,82.12c4.94,3.55,11.17,11.45,12.51,14.45"/></svg>