<svg><path d="m41,33 c 0.17,0.25-0.78,2.07-1.22,2.46c-2.85,2.53-11.58,8.42-20.8,11.01"/><path d="M17,18c1,1,1.25,2.25,1.25,3.59c0,2.88-0.13,32.53-0.13,36.58c0,11.15,1.35,13.62,11.47,13.62c9.76,0,10.43-1.4,10.97-9.6"/><path d="M43.44,17.24c3.68,0.79,7.3,0.34,11.07,0c9.94-0.9,23.12-1.99,32.76-2.78c3.34-0.28,6.86-0.46,10.11,0.36"/><path d="M66.95,20.13c0.06,0.66-0.02,1.31-0.22,1.94c-1.23,2.94-3.1,6.31-6.18,9.85"/><path d="M53.01,33.51c0.93,0.93,0.93,1.99,0.93,3.51c0,1.05,0.01,21.75,0.01,34.1c0,5.15,0,8.84,0,9.06"/><path d="M55.26,34.38c7.9-0.8,19.38-2.13,25.1-2.7c3.42-0.34,4.96,1.58,4.9,4.83c-0.09,4.59,0.05,19.82,0.09,33.25c0.01,3.37,0.01,6.63,0,9.57"/><path d="M54.66,48.07c8.71-0.82,23.44-2.18,29.34-2.2"/><path d="M55.08,62.28c9.67-0.53,21.42-1.91,28.96-1.94"/><path d="M54.99,77.6c6.36-0.69,20.94-1.68,28.96-1.72"/><path d="M60.76,83.94c0,1.31-0.58,2.03-1.77,2.98C55.4,89.77,46.5,96,37.88,98.94"/><path d="M76.11,82.53c7.1,4.45,15.74,12.28,17.66,15.95"/></svg>