<svg><path d="M16.39,20.4c1.76,0.72,3.71,0.48,5.51,0.15c5.18-0.97,18.28-3.65,20.4-4.05c2.38-0.46,3.19,1.92,1.77,3.41c-2.44,2.55-10.11,11.05-11.61,12.87"/><path d="M25.64,29.76c2.22,1.14,7.96,5.51,9,8.48"/><path d="M11.95,43.17c1.43,0.58,3.95,0.8,6.77,0.28c5.9-1.08,25.63-5,28.86-5.39c6.79-0.82-1.83,8.68-4.55,11.97"/><path d="M33.11,43.07c0.97,0.97,1.46,2.4,1.46,4.24c0,1.84-0.06,38.1-0.06,41.48c0,11.66-6.1,0.61-7.78-0.92"/><path d="M54.26,17.63c1.76,0.37,3.32,0.48,5.12,0.35c10.35-0.75,22.14-2.19,30.24-2.82c1.87-0.15,3.8-0.23,5.62,0.33"/><path d="M73.79,20.15c0.11,0.84-0.04,1.89-0.44,2.64c-1.03,2.83-2.64,6.79-5.58,10.85"/><path d="M58.74,34.01c0.87,0.87,1.21,2.24,1.21,3.58c0,1.09-0.05,24.09-0.07,34.66c0,2.33-0.01,4.08-0.01,4.89"/><path d="M61.02,35.84c2.79-0.17,23.74-2.88,26.28-3.08c2.12-0.17,3.61,0.99,3.61,3.08c0,2.45-0.06,19.39-0.07,33.41c0,1.92,0,3.79,0,5.56"/><path d="M61.23,48.74c9.65-1.49,22.31-2.76,28.28-3.12"/><path d="M61.21,61c7.29-1,20.88-2.2,28.5-2.67"/><path d="M61.17,73.73c8.83-0.98,20.89-1.83,29-2.33"/><path d="M67,79.88c0.39,1.26,0.02,2.1-0.75,3.02c-2.33,2.77-9.63,8.22-15.71,11.85"/><path d="M82,79.88c5.87,4.25,12.81,11.95,14.41,15.67"/></svg>