<svg><path d="M17.27,25.2c2.43,0.48,4.33,0.21,6.78-0.26c5.09-0.98,15.01-3.01,18.56-3.75c3.22-0.67,4.61,0.32,3.03,3.61C38.1,40.53,25.2,52.5,11.25,58.5"/><path d="M20.42,32.52c8.83,1.98,21.33,9.73,27.46,17.91"/><path d="M16.75,68.64c2.07,0.33,4.16,0.39,6.25,0.2c5.17-0.53,14.69-1.68,20-2.25c1.83-0.26,3.66-0.34,5.5-0.22"/><path d="M31.87,52.5c1,1,1.46,2.5,1.46,3.62c0,5.85,0.03,26,0.03,29.68"/><path d="M18.5,91.23c1.51,0.59,3.36,0.83,5.22-0.16c6.33-2.86,18.26-8.1,24.28-10.82"/><path d="M53.08,19.82c2.92,0.59,6.07,0.19,9.03-0.18c8.14-1.02,17.82-1.96,24.63-2.57c2.72-0.45,5.42-0.39,8.12,0.16"/><path d="M72.25,22.1c0,1.02-0.22,1.52-0.55,2.21c-1.33,2.81-2.78,5.33-5.2,8.06"/><path d="M58.87,33.05c0.85,0.85,0.89,2.06,0.89,3.29c0,3.23,0,18.96,0,29.29c0,4.62,0,8.15,0,9.01"/><path d="M60.88,35c2.39-0.15,19.9-2.29,24.76-2.82C88.4,31.89,90,33.28,90,36c0,4.01-0.05,17.71-0.09,27.38c-0.02,4.81-0.03,8.63-0.03,9.75"/><path d="M60.99,46.84c9.01-0.72,22.13-1.97,27.73-2.33"/><path d="M60.95,59.69c9.8-0.94,20.63-1.92,27.78-2.38"/><path d="M60.88,72.5c9-1,20.42-2.04,28.03-2.54"/><path d="M67.21,78.83c0.04,1.29-0.55,2.23-1.5,3.19C61.75,86,55,91.12,48.25,94.75"/><path d="M80.35,79c5.98,4.29,13.29,12.07,14.92,15.83"/></svg>