<svg><path d="M27.87,25.08c0.01,1.04,0.02,2.05-0.43,3c-3.53,7.5-9.74,15.92-16.24,20.73"/><path d="M36.98,23C42,26.25,49.5,37.5,52.02,44.42"/><path d="M18.33,50.29c1.92,0.33,3.51,0.4,5.06,0.08c6.45-1.33,14.86-3.14,18.21-3.58c2.42-0.32,3.5,0.96,3.37,3.19C44.62,55.88,41,76.5,36.49,84.4c-4.18,7.32-5.99,2.98-7.46,0.77"/><path d="M29.25,53.27c0.05,0.69,0.16,1.82-0.1,2.78c-2.86,10.7-7.4,20.32-16.15,28.05"/><path d="M55.19,18.34c1.49,0.86,4.32,0.79,5.95,0.53c10.12-1.62,17.62-2.24,26.24-2.78c2.31-0.14,5.19-0.35,7.41,0.43"/><path d="M74.68,20.4c0.11,0.71-0.01,1.38-0.37,2c-0.99,2.5-1.87,4.96-4.65,9.24"/><path d="M60.03,33.39c0.98,0.98,1.18,2.07,1.18,3.46c0,1.1-0.03,26.52-0.03,37.4c0,2.83-0.04,4.66-0.04,4.8"/><path d="M61.75,35.03c7.5-1.16,23.81-3.31,26.28-3.52c2.06-0.17,3.68,1.93,3.51,3.22c-0.17,1.28,0.14,26.12,0.07,37.27c-0.02,3.06-0.03,5.1-0.03,5.32"/><path d="M62.21,48.74c8.29-1.04,22.16-2.38,27.96-2.76"/><path d="M62.18,62.29c7.09-1.04,20.81-2.3,28.21-2.79"/><path d="M62.13,75.83c8.58-1.02,20.58-1.94,28.47-2.46"/><path d="M67.25,81.13c0.25,1.24-0.11,2.05-1,2.94C63.58,86.75,56,91.75,49.3,95.25"/><path d="M83.62,81.88c5.21,3.43,11.36,9.66,12.78,12.67"/></svg>