<svg><path d="M13.75,28.89c0.94,0.38,2.66,0.38,3.6,0.38C24,29.25,38,27,45.96,25.89c1.55-0.22,2.5,0.18,3.29,0.37"/><path d="M14.5,37.75c2.29,2,5.9,8.24,6.48,11.35"/><path d="M48.77,33.64c0.03,0.38,0.06,0.98-0.06,1.52c-0.68,3.21-4.6,10.27-9.97,14.58"/><path d="M9.88,58.14c1.47,0.35,3.12,0.22,4.08,0.1c10.04-1.32,26.75-4.01,37.82-4.16C52.98,54.06,52.9,54,54.25,54"/><path d="M30.62,11.25c0.34,1.17,0.88,2.52,0.88,5.04c0,46.84-1.12,64.57-21.99,80.21"/><path d="M32.25,64.75c4.62,1.96,14,12.7,17.07,19.13"/><path d="M54.95,18.82c1.15,0.53,3.26,0.61,4.41,0.53c9.5-0.62,27.63-3.81,35.02-4.06c1.92-0.07,3.07,0.26,4.02,0.52"/><path d="M73.73,20.93c0.01,0.24,0.02,0.61-0.02,0.96c-0.26,2.02-2.85,6.45-4.89,9.16"/><path d="M59.91,33.2c0.5,1.03,1.23,1.8,1.23,3.17c0,1.38-0.17,38.14,0,39.51"/><path d="M61.98,34.58c2.83-0.17,25.18-3.22,27.77-3.43c2.15-0.17,3.85,1.91,3.67,3.18c-0.23,1.62-1,38.05-1,39.08"/><path d="M61.93,47.1c4.05,0,23.98-2.32,30.05-2.69"/><path d="M61.66,59.21c10.11-0.46,21.5-1.98,29.25-2.46"/><path d="M61.9,73.4c6.54-1.02,21.5-1.89,29.75-2.41"/><path d="M67.66,79.98c0.39,1.44,0.28,2.33-0.5,3.37C64.8,86.51,56.93,93.77,52.21,97.5"/><path d="M83.07,78.37c6.31,4.67,13.76,13.13,15.48,17.21"/></svg>