<svg><path d="M10.31,33.81c1.1,0.48,3.13,0.45,4.23,0.29c11.48-1.63,24.15-2.38,32.29-2.89c1.84-0.12,2.94,0.08,3.86,0.3"/><path d="M29.77,13.26c0.81,0.41,1.29,1.97,1.46,2.87c0.16,0.9,0.01,27.98-0.15,33.68"/><path d="M13.91,51.97c0.76,0.26,2.15,0.21,2.9,0.14c10.02-0.94,15.87-2.19,30.38-3.1c1.26-0.08,2.02,0.03,2.65,0.14"/><path d="M16.68,62.81c0.33,0.55,0.68,1,0.82,1.69c1.15,5.44,2.74,17.94,3.53,27.71"/><path d="M18.75,64.57c8.91-1.45,20.79-3.54,25.06-3.74c1.69-0.08,3.19,1.67,2.74,4.49c-1.08,6.83-2.69,14.47-3.61,20.82"/><path d="M21.36,89.61c5.84-0.58,15.92-1.98,24.32-2.61"/><path d="M52.95,17.85c1.18,0.5,3.33,0.57,4.51,0.5c9.72-0.58,28.27-3.08,35.83-3.32c1.96-0.06,3.13,0.24,4.12,0.49"/><path d="M73.23,19.93c0.01,0.27,0.03,0.69-0.02,1.08c-0.29,2.27-3.13,7.24-5.39,10.29"/><path d="M58.16,32.3c0.48,1.08,1.19,1.88,1.19,3.32c0,1.44-0.16,39.84,0,41.28"/><path d="M60.15,33.73c2.73-0.18,24.25-2.36,26.73-2.58c2.07-0.18,3.71,1.99,3.53,3.32c-0.22,1.69-0.46,38.75-0.46,39.83"/><path d="M60.11,45.82c3.9,0,23.59-1.42,29.43-1.81"/><path d="M60.33,58.94c9.74-0.48,20.72-1.55,28.18-2.05"/><path d="M61.03,74.29c8.22-0.54,20.23-1,28.18-1.54"/><path d="M67.66,79.48c0.39,1.31,0.28,2.17-0.5,3.13c-2.36,2.89-10.23,9.48-14.95,12.89"/><path d="M81.07,79.12c5.9,4.6,12.87,12.94,14.48,16.96"/></svg>