<svg><path d="M  13.43,19.93 c 0.32,1.06 0.41,2.55 0.65,3.97 0.24,1.42 -0.44,58.808586 -0.44,64.308586"/><path d="M10.25,19.44c1.13,0.46,3.18,0.52,4.32,0.46C23.22,19.44,34.4,18,45.22,17c1.87-0.17,3.9,0.22,4.83,0.45"/><path d="M23.5,38.61c0.48,0.83,1.19,2.44,1.19,3.37c0,10.34-0.51,16.56-0.51,22.87"/><path d="M 32.518711,20.734927 c 1.01975,0.679834 1.459674,0.769329 1.359668,2.039502 -0.352313,4.474716 -0.302681,9.355436 -0.679834,13.596673 -0.145451,1.635658 0.920351,2.249084 2.492723,2.039501 4.314117,-0.575032 5.343838,-0.765858 9.291061,-1.586279 1.685291,-0.350284 2.741802,0.341819 2.606028,1.81289 -0.442104,4.790069 -2.832639,18.128898 -2.832639,18.128898"/><path d="M34.45,58.92c2.6-0.35,7.89-1.73,12.58-2.29"/><path d="M 32.33,56.56 c 0.95,0.44 1.52,1.97 1.71,2.84 0.19,0.87 0,18.008854 -0.19,23.468854"/><path d="M 13.85,85.0 c 0.497149,0.222398 3.07430999,0.161878 3.51573499,0.141038 7.4685751,-0.684994 20.2100001,-2.12927 31.7500001,-2.74927 1.22,-0.07 3.514287,0.317138 4.084287,0.527138"/><path d="M54.95,16.5c1.14,0.38,3.22,0.43,4.36,0.38c9.39-0.44,27.31-2.69,34.62-2.87c1.89-0.05,3.03,0.18,3.98,0.37"/><path d="M74.23,18.43c0.01,0.29,0.02,0.75-0.02,1.17c-0.23,2.47-2.56,7.88-4.39,11.2"/><path d="M60.66,31.8c0.48,1.08,1.19,1.88,1.19,3.32c0,1.44-0.32,42.41-0.32,43.13"/><path d="M62.65,33.23c2.73-0.18,24.24-1.86,26.73-2.08c2.07-0.18,3.71,1.99,3.53,3.32c-0.22,1.69-0.96,41.25-0.96,42.33"/><path d="M62.61,46.32c3.9,0,23.09-0.92,28.93-1.31"/><path d="M62.83,60.44c9.74-0.48,20.22-1.05,27.68-1.55"/><path d="M62.53,75.79c6.29-1.07,20.73-1,28.68-1.54"/><path d="M67.15,81.48c0.41,1.25-0.2,2.59-1,3.5c-2.43,2.75-7.9,8.02-14.93,11.77"/><path d="M81.07,79.87c6.51,4.39,14.21,12.37,15.98,16.21"/></svg>