<svg><path d="M44.49,15.5c0.07,0.22,0.16,0.57-0.15,0.88c-1.82,1.86-12.28,5.94-26.59,8.44"/><path d="M13.87,35.55c0.5,0.21,1.83,0.55,3.17,0.63c3.67,0.21,21.03-3.14,30.2-4.19c1.33-0.15,1.67-0.21,2.5,0"/><path d="M33.16,25.38c0.54,0.46,0.86,2.07,0.97,2.99c0.11,0.92,0,22.62-0.11,28.38"/><path d="M33.93,34.12C29.69,40.88,22.61,49.21,13,54.74"/><path d="M38,41.22c5.03,2.19,9.29,6.57,12,9.38"/><path d="M24.07,62.13c0.36,0.73,0.63,2.33,0.68,3.4C25.25,77.25,23,89.5,13.88,94.03"/><path d="M25.37,63.31c3.88-0.56,11.16-2.04,12.57-2.66c2.11-0.92,3.68,0.46,3.46,2.5c-0.65,5.84-1.15,18.59-1.15,22.59c0,5.54,1.25,4.5,3.54,2.24c2.4-2.36,5.96-6.74,8.03-9.51"/><path d="M54.45,19.85c1.26,0.5,3.58,0.57,4.84,0.5c10.44-0.58,24.57-3.08,32.69-3.32c2.1-0.06,3.37,0.24,4.42,0.49"/><path d="M73.23,21.93c0.02,0.28,0.04,0.72-0.03,1.12c-0.39,2.37-4.29,7.56-7.38,10.74"/><path d="M59.66,34.8c0.45,1.08,1.11,1.88,1.11,3.32c0,1.44-0.3,38.41-0.3,39.13c0,0.72,0.15,0.72,0.3,2.15"/><path d="M61.53,36.23c2.56-0.18,23.24-2.36,25.58-2.58c1.94-0.18,3.48,1.99,3.31,3.32c-0.21,1.69-0.4,41.75-0.4,42.83"/><path d="M61.49,48.82c3.66,0,22.15-1.42,27.64-1.81"/><path d="M60.69,62.44c9.13-0.48,21.47-1.05,28.47-1.55"/><path d="M60.36,77.79c7.39,0,22.01-0.5,29.46-1.04"/><path d="M66.12,83.48c0.43,1.21-0.15,2.54-1,3.42c-2.58,2.66-8.12,7.35-15.9,11.35"/><path d="M81.32,83.62c5.8,3.78,12.65,10.65,14.23,13.96"/></svg>