<svg><path d="M34.63,13.27c0.07,0.9,0.32,2.4-0.13,3.61C31.37,25.19,23.95,39.69,11,51.38"/><path d="M35.17,21.45C43,26,49.25,33,53.1,39.65"/><path d="M26.14,42.06c0.28,0.16,1.97,0.17,2.24,0.16c2.88-0.18,10.59-2.32,13.42-2.3c0.46,0,2.38,0.07,2.61,0.15"/><path d="M17.59,51.74c1.09,0.45,2.95,0.98,4.71,0.67c4.57-0.81,17.85-2.91,22.73-3.95c2.89-0.62,3.89,0.47,1.82,3.23C44.75,54.5,39.5,61.75,35.5,66.5"/><path d="M18.08,70.99c0.35,0.44,0.72,0.8,0.87,1.35c1.23,4.34,3.35,15.3,4.19,23.1"/><path d="M19.49,73.26C28.5,72,42,69.25,46.88,69.1c1.53-0.05,2.57,2.24,2.21,3.46C47.6,77.7,46.82,81.5,45.24,90"/><path d="M23.2,91.82c4.7-0.44,18.5-1.52,24.47-1.97"/><path d="M54.45,20.34c1.25,0.58,3.55,0.77,4.78,0.58c7.77-1.18,24.28-2.93,32.3-3.21c2.08-0.07,3.33,0.28,4.37,0.57"/><path d="M73.73,21.68c0.01,0.27,0.02,0.69-0.02,1.07c-0.26,2.26-2.85,7.23-4.89,10.27"/><path d="M60.16,33.67c0.45,1.01,1.11,1.76,1.11,3.11c0,1.35-0.3,39.98-0.3,40.65"/><path d="M62.03,35.51c2.56-0.17,22.74-3.15,25.08-3.35c1.94-0.17,3.48,1.87,3.31,3.11c-0.21,1.58-0.4,39.23-0.4,40.24"/><path d="M61.99,47.27c3.66,0,21.65-1.77,27.14-2.14"/><path d="M61.69,59.63c9.13-0.45,20.97-0.95,27.97-1.42"/><path d="M61.86,75.01c5.9-1,20.51-1.84,27.96-2.35"/><path d="M68.16,79.74c0.39,1.23-0.22,2.56-1,3.46c-2.36,2.7-9.73,8.35-14.45,11.55"/><path d="M82.07,79.72c5.08,4.15,11.1,11.67,12.48,15.3"/></svg>