<svg><path d="M19.02,15.84c0.89,0.89,1.4,2.05,1.4,2.98c0,0.71,1.73,13.95,2.59,20.55c0.26,2.02,0.45,3.42,0.47,3.64"/><path d="M20.96,17.2c1.54-0.1,14.79-2.19,20.06-2.94c2.74-0.4,4.23,1.61,4.09,3.64c-0.25,3.54-1.04,11.35-1.89,19.13c-0.12,1.08-0.24,2.15-0.35,3.22"/><path d="M22.8,28.8c4.57-0.67,16.82-2.3,20.49-2.75"/><path d="M24.23,40.14c5.65-0.76,10.9-1.51,17.76-2.26"/><path d="M10.75,51.58c1.47,0.43,4.17,0.59,5.63,0.43c7.87-0.88,20.74-3.2,28.35-3.88c2.43-0.22,3.92,0.2,5.14,0.42"/><path d="M32.57,51.88c0.84,0.84,1.12,2.1,1.12,3.07c0,2.56,0.01,16.56,0.01,24.06"/><path d="M34.35,64.52C38.62,64,43,63.75,45.71,63.39c1.55-0.21,3-0.32,3.79-0.13"/><path d="M21.38,60.75c0.03,0.66,0.06,1.71-0.06,2.67C20.5,70,16.38,82.5,10.56,88.97"/><path d="M20.75,75.75c7,0.38,35.25,15.12,58.33,19.65c3.36,0.66,6.12,1.34,9.42,1.6"/><path d="M54.5,17.51c2.25,0.37,4.16,0.4,5.62,0.24c9.13-0.99,16.76-1.99,27.12-2.7c2.44-0.17,3.91-0.02,5.13,0.23"/><path d="M70.61,19.58c0.05,0.67,0.04,1.59-0.22,2.21c-1.02,2.46-2.55,5.47-4.33,8.06"/><path d="M57.62,31.19c0.84,0.84,1.36,1.96,1.36,3.27c0,1.05-0.03,23.3-0.04,32.54c0,2.23,0,3.66,0,3.79"/><path d="M59.73,32.49c2.55-0.16,21.85-2.75,24.18-2.75c2.34,0,3.79,1.01,3.79,3.02c0,1.39-0.54,19.11-0.5,32.61c0,1.54,0.01,3.02,0.01,4.42"/><path d="M60.19,43.64c5.94-0.64,20.28-2.2,25.73-2.55"/><path d="M60.39,55.41c6.86-0.54,18.35-1.65,25.31-2.11"/><path d="M60.55,67.88c6.32-0.63,17.9-1.52,25.31-2.01"/><path d="M67.8,70.68c0.2,0.94-0.32,2.28-1,3.02c-2.06,2.22-5.92,5.55-11.25,9.05"/><path d="M79,72.5c4.89,3.29,10.67,9.25,12,12.12"/></svg>