<svg><path d="M14.89,18.94c0.26,0.53,0.6,1.4,0.74,2.05c1.16,5.36,0.94,22.38,1.63,32.26"/><path d="M15.79,20.28c7.46-0.78,23.85-2.03,30.74-2.55c2.53-0.19,3.15,2.9,3.01,4.34c-0.5,5.27-1.54,18.69-3.23,29.25"/><path d="M31.91,20.09c0.33,0.77,0.63,1.99,0.62,3.33c-0.05,7.41,0.04,24.5,0.04,26.7"/><path d="M16.81,35.51c2.98-0.09,28.38-2.05,30.84-2.05"/><path d="M17.77,50.93c7.73-0.68,22.53-1.09,29.05-1.52"/><path d="M15.84,72.54c0.25,2.52-2.44,13.67-4.39,17.87"/><path d="M21.24,62.92c3.93,15.81,11.49,28.57,25.19,28.65c4.76,0.03,3.48-1.84,0.7-7.25"/><path d="M31.57,65c1.38,3.55,4.25,9.63,5.11,4.62"/><path d="M45.63,64.25c3.67,2.69,6.64,5.04,8.87,9.22"/><path d="M55.95,16.04c1.1,0.34,3.13,0.39,4.23,0.34c9.12-0.4,26.52-2.46,33.61-2.63c1.84-0.04,2.94,0.17,3.86,0.34"/><path d="M75.73,18.43c0.01,0.29,0.02,0.74-0.02,1.15c-0.26,2.42-2.85,7.72-4.89,10.97"/><path d="M60.16,31.3c0.49,1.08,1.2,1.88,1.2,3.32c0,1.44,0.17,42.91,0.17,43.63"/><path d="M62.18,32.73c2.77-0.18,24.62-2.36,27.15-2.58c2.1-0.18,3.77,1.99,3.59,3.32c-0.22,1.69-0.32,27.12-0.31,42.92"/><path d="M61.64,45.82c3.96,0,24.94-1.42,30.88-1.81"/><path d="M61.36,59.44c9.89-0.48,23.03-1.05,30.61-1.55"/><path d="M62.08,75.29c6.67-0.54,22.04-1,30.11-1.54"/><path d="M68.16,80.98c0.39,1.42,0.28,2.3-0.5,3.33c-2.36,3.11-10.23,10.26-14.95,13.94"/><path d="M83.07,80.87c5.29,4.12,11.54,11.6,12.98,15.21"/></svg>