<svg><path d="M18.18,21.28c1.69,0.34,3.79,0.18,5.08,0.04c7.28-0.76,17.96-1.79,24.99-2.17c1.85-0.1,3.87-0.28,5.75,0.13"/><path d="M19.87,22.16c0.67,0.67,0.95,1.72,0.94,2.7c-0.18,20.02-2.18,43.02-10.33,56.74"/><path d="M38.87,23.12c0.27,0.45,0.33,1.03,0.28,1.44c-0.22,2.15-1.6,7.24-3.72,10.9"/><path d="M26.77,37.3c0.84,0.84,1.4,1.96,1.5,2.74c0.18,1.39,1.57,11.79,2.23,17.71c0.15,1.36,0.27,2.48,0.32,3.21"/><path d="M29.13,38.73c2.11-0.31,19.25-2.85,21.19-3.03c2.3-0.21,3.19,1.17,2.99,4.03c-0.27,3.9-0.68,9.36-1.75,16.15c-0.17,1.08-0.36,2.19-0.56,3.34"/><path d="M30.59,48.73c2.86-0.29,17.63-1.88,20.86-2.21"/><path d="M31.91,59.31c6.59-0.81,13.71-1.43,18.48-1.86"/><path d="M38.67,61.02c0.84,0.84,1.28,1.96,1.32,3.56c0.16,6.76-0.1,24.62-0.1,26.92c0,6.99-4.89-0.01-6.14-1.46"/><path d="M27.41,69.68c0.23,0.96,0.14,1.72-0.05,2.27c-1.28,3.66-4.94,10.72-10.49,17.01"/><path d="M48.67,69.29c2.24,2.44,5.54,10.05,6.1,13.84"/><path d="M59.26,18.81c2.49,0.31,4.56,0.18,6.76-0.02c8.93-0.82,16.2-2.11,24.11-2.48c2.09-0.1,4.07-0.13,6.12,0.37"/><path d="M75.22,20.97c0.05,0.65,0.04,1.3-0.18,1.91c-1.05,2.99-2.55,6.36-4.68,9.96"/><path d="M62.02,34.58c0.76,0.76,1.12,2.08,1.12,3.45c0,1.12-0.04,26.27-0.05,35.72c0,2.09,0,3.41,0,3.54"/><path d="M63.91,35.77c2.3-0.06,18.24-2.38,23.46-3.02c3.2-0.39,4.78,1.28,4.62,4.38c-0.22,4.39-0.19,22.05-0.18,35.24c0,1.35,0,2.66,0,3.9"/><path d="M64.36,48.76c7.51-0.64,20.61-2.2,26.15-2.34"/><path d="M64.07,61.6c8.8-0.6,19.39-1.98,26.46-2.17"/><path d="M64.74,75.44c8.76-0.81,18.38-1.81,26.21-2.11"/><path d="M69.72,81.38c0.39,1.31,0.02,2.17-0.75,3.09C66.64,87.22,60.66,92.31,56,95.5"/><path d="M84,81.5c5.09,3.6,11.1,9.99,12.49,13.02"/></svg>