<svg><path d="M46.12,12.75c-0.3,0.74-0.59,1.12-1.21,1.44c-4.01,2.09-16.15,7.85-29.12,9.99"/><path d="M13.81,12.5c0.76,0.71,0.81,1.19,1.06,2.15c0.25,0.95-0.18,5.35-0.18,8.34c0,7.68,11.87,6.45,20.52,6.45c12.55,0,18.44-1.26,18.44-9.33"/><path d="M23.44,37.22c0.32,0.74,0.79,2.1,0.79,3.1s-0.1,30.97,0,31.96"/><path d="M24.76,39.28c1.81-0.12,16.99-2.37,18.64-2.34c0.76,0.02,1.5,0.49,1.5,2.09c0,1.19,0.03,31.75-0.08,32.49"/><path d="M24.3,49.01c3.45-0.16,6.91-0.69,10.34-1.09c1.06-0.12,2.11-0.24,3.12-0.36"/><path d="M24.17,59.01c3.42-0.3,7.33-0.75,10.75-1.14c0.98-0.11,1.96-0.22,2.91-0.31"/><path d="M24.33,69.65c3.59,0,15.61-2.07,20.26-2.07"/><path d="M11.31,45.23c0.49,1.01,1.14,1.77,1.14,3.53c0,1.77-1.53,26.77-1.95,30.09c-0.29,2.26,1.88,2.56,3.66,2.25c11.58-1.99,28.1-3.01,35.96-3.03c1.46,0,3.25,0.25,4.38,0.5"/><path d="M24.28,85.02c0.04,0.32,0.09,0.82-0.08,1.27c-1,2.68-6.76,8.57-14.64,12.17"/><path d="M39.49,84.21c3.83,2.02,9.9,8.32,10.86,11.47"/><path d="M57.45,18.35c1,0.5,2.84,0.57,3.85,0.5c8.3-0.58,24.63-3.08,31.09-3.32c1.67-0.06,2.68,0.24,3.51,0.49"/><path d="M75.23,20.43c0.01,0.31,0.03,0.8-0.02,1.24c-0.31,2.62-3.42,8.36-5.88,11.87"/><path d="M60.66,33.8c0.45,1.08,1.11,1.88,1.11,3.32c0,1.44-0.65,41.84-0.5,43.28"/><path d="M63.03,35.23c2.56-0.18,23.24-2.86,25.58-3.08c1.94-0.18,3.48,1.99,3.31,3.32c-0.21,1.69-0.9,43.75-0.9,44.83"/><path d="M61.99,49.32c4.62,0,9.29-0.62,13.89-1.01c1.54-0.13,3.08-0.27,4.59-0.4"/><path d="M61.69,63.44c5.18-0.27,10.36-0.64,15.53-1.02c1.34-0.1,2.66-0.19,3.94-0.29"/><path d="M61.86,77.79c6.39-0.54,21.01-1.5,28.46-2.04"/><path d="M68.16,82.48c0.39,1.31,0.28,2.67-0.5,3.63C65.3,88.99,59,94.5,52.71,98.5"/><path d="M84.32,84.62c4.78,3.51,10.43,9.89,11.73,12.96"/></svg>