<svg><path d="M12.67,25.09c0.8,0.51,2.26,0.58,3.06,0.51c9.89-0.93,26.95-3.24,33.96-3.44c1.33-0.04,2.13,0.24,2.8,0.49"/><path d="M32.92,13.75c0.32,0.29,1.1,2.15,1.08,2.73c-0.17,4.27-1,9.77-1.66,16.4"/><path d="M19.68,33.95c0.35,0.64,1.04,1.49,1.1,2.61c0.3,5.01-0.08,33.66-0.08,34.22"/><path d="M21.03,36.3c2.54-0.14,20.62-2.92,22.93-3.08c1.93-0.14,3.28,0.73,3.29,3.76c0,4.93-0.01,19.4-0.58,32.74"/><path d="M21.47,46.24c9.26-0.8,19.62-2.47,25.76-2.75"/><path d="M20.86,56.18c6.73-0.48,17.42-1.85,25.71-2.17"/><path d="M21.31,67c5.69-0.75,16.79-1.63,25.06-2.21"/><path d="M9.59,78c0.91,0.35,2.58,0.43,3.48,0.35c5.64-0.48,27.36-3.22,37.65-3.22c1.51,0,2.42,0.17,3.18,0.34"/><path d="M25.93,84.1c0.04,0.33,0.08,0.86-0.07,1.34c-0.91,2.82-6.11,9-13.23,12.78"/><path d="M39.4,82.48c3.69,2,9.53,8.23,10.46,11.35"/><path d="M57.45,18.35c1,0.5,2.84,0.57,3.85,0.5c8.3-0.58,24.63-3.08,31.09-3.32c1.67-0.06,2.68,0.24,3.51,0.49"/><path d="M75.23,20.43c0.01,0.31,0.03,0.8-0.02,1.24c-0.31,2.62-3.42,8.36-5.88,11.87"/><path d="M60.66,33.8c0.45,1.08,1.11,1.88,1.11,3.32c0,1.44-0.65,41.84-0.5,43.28"/><path d="M63.03,35.23c2.56-0.18,23.24-2.86,25.58-3.08c1.94-0.18,3.48,1.99,3.31,3.32c-0.21,1.69-0.9,43.75-0.9,44.83"/><path d="M61.99,49.32c3.66,0,23.65-1.92,29.14-2.31"/><path d="M61.69,63.44c9.13-0.48,22.47-1.55,29.47-2.05"/><path d="M61.86,77.79c6.39-0.54,21.01-1.5,28.46-2.04"/><path d="M68.16,82.48c0.39,1.31,0.28,2.67-0.5,3.63C65.3,88.99,59,94.5,52.71,98.5"/><path d="M84.32,84.62c4.78,3.51,10.43,9.89,11.73,12.96"/></svg>