<svg><path d="M12,19.23c0.86,0.35,1.87,0.42,2.74,0.35c7.95-0.64,25.82-2.48,34.99-2.53c1.44-0.01,2.31,0.17,3.03,0.34"/><path d="M23.21,10.7c0.94,0.96,1.24,1.25,1.34,1.84c0.94,5.51,1.74,11.19,2,13.19"/><path d="M41.19,10.28c0.15,0.73,0.74,1.75,0.68,2.66c-0.37,5.32-1.12,7.82-1.48,11.79"/><path d="M13.25,29.48c0.25,0.22,0.5,0.41,0.61,0.69c0.86,2.22,1.9,8.34,2.49,12.33"/><path d="M14.8,30.99c5.1-1.16,11.31-1.96,14.23-2.25c1.07-0.11,1.71,0.63,1.56,1.26c-0.63,2.59-1.37,5.25-2.31,8.84"/><path d="M16.47,40.55c3.43-0.33,9.66-1.37,14.37-1.88"/><path d="M36.25,27.57c0.24,0.24,0.48,0.45,0.59,0.75c0.83,2.42,1.32,7.09,1.88,11.43"/><path d="M37.74,29.21c4.88-1.26,11.32-2.16,14.11-2.47c1.02-0.12,1.63,0.69,1.49,1.37c-0.61,2.83-1.31,4.74-2.21,8.64"/><path d="M39.33,38.63c3.28-0.36,8.31-0.98,12.81-1.53"/><path d="M25.18,43.5c0.15,1.13-0.04,2.61-0.51,3.58c-3,6.18-6.8,11.41-13.67,18.92"/><path d="M20.42,56.76c0.52,0.6,0.92,1.91,0.96,2.84c0.31,8.26-0.43,34.85-0.17,39.15"/><path d="M39.09,45.25c0.03,0.47-0.01,1.08-0.11,1.48c-0.64,2.55-1.46,4.52-2.93,7.62"/><path d="M21.23,56.88c6.07-0.73,29.16-2.87,31.76-3.27"/><path d="M35.38,56.87c0.28,0.3,0.51,0.72,0.51,1.25c0,5.36,0.03,26.53-0.14,34.97"/><path d="M22.02,68.14c5.51-0.65,25.02-2.05,27.38-2.4"/><path d="M21.83,80.01c5.81-0.54,25.85-2.18,28.35-2.47"/><path d="M21.35,94.88C27.19,94.1,49.5,92.55,52,92.13"/><path d="M56.95,14.12c1.07,0.28,3.03,0.32,4.1,0.28c8.84-0.33,26.72-2.52,33.6-2.65c1.78-0.03,2.85,0.14,3.75,0.28"/><path d="M76.23,15.43c0.01,0.31,0.03,0.8-0.02,1.24c-0.31,2.62-3.42,8.36-5.88,11.87"/><path d="M61.16,30.8c0.45,1.08,1.11,1.88,1.11,3.32c0,1.44-0.3,45.41-0.3,46.13"/><path d="M63.03,32.23c2.56-0.18,22.74-1.86,25.08-2.08c1.94-0.18,3.48,1.99,3.31,3.32c-0.21,1.69-0.76,29.12-0.75,44.92"/><path d="M62.99,45.82c3.66,0,21.65-1.42,27.14-1.81"/><path d="M63.19,60.94c9.13-0.48,18.97-1.05,25.97-1.55"/><path d="M62.36,78.29c7.64-0.29,20.01-1,27.46-1.54"/><path d="M68.16,83.98c0.41,1.35-0.24,2.69-1.05,3.68c-2.44,2.98-10.03,9.32-14.9,12.84"/><path d="M82.57,85.87c6.1,3.99,13.32,11.22,14.98,14.71"/></svg>