<svg><path d="M21.33,17.93c1.63,0.47,4.26,0.79,5.23,0.7c12.68-1.16,38.17-4.51,53.97-4.51c1.16,0,3.72,0.7,4.88,1.16"/><path d="M51.66,16.26c0.74,0.84,0.84,2.21,0.84,3.8c0,8.33-0.23,8.21-0.23,18.69"/><path d="M55.28,22.77c4.55,0.76,18.88,3.92,20.86,5.23"/><path d="M27.26,40.45c0.39,1.53,0.95,2.74,0.95,4.65c0,12.65,1.69,36.42-11.72,51.65"/><path d="M29.54,41.93C41.02,40.41,69.25,36.5,75.85,36c4.16-0.31,5.51,1.8,5.14,5.12C78.5,63.5,81,82.5,91.77,91.79c8.67,7.48,6.23-0.54,5.73-6.11"/><path d="M64.38,43.33c0.07,0.25,0.15,0.63-0.14,0.98c-1.74,2.07-11.71,6.62-25.35,9.4"/><path d="M36.66,61.15c0.52,0.29,1.19,1.5,1.28,1.88c0.71,2.71,1.43,6.24,2.43,11.38"/><path d="M38.32,61.76c7.93-0.54,25.23-3.45,30.97-3.66c2.24-0.08,2.77,1.77,2.49,2.58c-0.95,2.78-1.12,3.66-2.67,8.29"/><path d="M40.66,72.35c6.38-0.55,21.55-2.5,30.48-3.01"/><path d="M53.05,52.72c0.64,0.22,1.02,1.97,1.15,2.41c0.13,0.43,0,29.16-0.13,31.86"/><path d="M34.22,91.48c0.66,0.6,3.05,0.85,3.71,0.7c0.66-0.15,29.47-9,31.44-9.75"/><path d="M65.1,76.21c3.46,2.98,10.55,11.39,11.72,15.28"/></svg>