<svg><path d="M22.21,17.5c1.04,1.01,1.57,2,1.57,3.42c0,2.39,0,6.16,0,12.65"/><path d="M8.75,36.25c1.81,0.5,4.03,0.49,5.89,0.17c7.02-1.21,13.04-2.24,19.5-2.94c1.86-0.2,3.75-0.38,5.61-0.07"/><path d="M13.5,43.45c4.04,9.92,5.88,20.06,6.25,26.6"/><path d="M34.02,37.26c0.36,1.36,0.38,2.62,0.01,4.18c-2.53,10.68-4.78,20.93-6.53,27.59"/><path d="M10,76.82c0.95,1.2,2.38,1.43,4,0.7c10.54-4.74,13.13-5.9,23.9-10.56"/><path d="M44.43,17.61c1.17,1.17,1.38,2.39,1.38,4.54c0,22.7,2.19,51.6-12.56,70.6"/><path d="M46.42,19.97C56.5,18.25,77.22,15,80.15,15c2.93,0,4.3,1.05,4.03,5.11c-1.43,21.39-1.61,51.38,9.92,68.32c5.31,7.8,5.77,3.57,5.4-3.73"/><path d="M73.85,22.34c-0.22,1.04-0.64,1.92-1.46,2.56c-4.26,3.35-9.26,6.23-19.42,10.69"/><path d="M49.88,47c0.81,0.81,1.25,1.75,1.51,2.88c0.71,3.03,1.43,7.27,2.11,11.98c0.17,1.2,0.34,2.44,0.51,3.69"/><path d="M51.73,47.72c5.41-0.67,17.82-2.34,23.16-2.84c2.57-0.24,3.9,0.41,3.34,3.12c-0.71,3.47-1.73,6.32-2.78,11.98"/><path d="M54.97,63.31c3.87-0.6,11.39-1.23,17.65-1.82c1.45-0.14,2.84-0.27,4.09-0.4"/><path d="M63.34,33.47c0.78,0.78,1.11,2.03,1.11,3.32c0,0.57-0.08,39.79-0.08,44.71"/><path d="M48.54,86.17c0.99,1.21,2.41,0.82,3.61,0.42c4.98-1.68,17.36-5.96,23.76-8.33"/><path d="M73.01,69.98c3.11,3.52,7.69,12,8.57,16.09"/></svg>