<svg><path d="M16.36,19.02c1.14,1.23,1.26,3.69,1.26,6.27c0,23.58,1.28,57.57-9.37,69.71"/><path d="M18.14,21.62c11.95-1.92,28.03-4.37,32.38-4.37c2.24,0,3.61,1.49,3.48,4.22c-2.49,51.78,1.75,72.6,34.99,72.6c5.27,0,8.52-1.32,7.02-9.8"/><path d="M43.64,25.85c0.05,0.28,0.11,0.73-0.1,1.13c-1.23,2.39-8.29,7.62-17.96,10.83"/><path d="M24.12,47.57c0.33,0.47,0.75,0.83,0.81,1.45c0.45,4.49,1.9,10.41,2.53,18.91"/><path d="M25.17,48.57c5.01-0.9,16.11-2.48,19.73-2.82c1.41-0.13,2.06,1.27,1.89,2.62c-0.6,4.61-1.71,7.72-2.68,15.38"/><path d="M27.64,66.12c4.03-0.9,12.47-1.69,18.11-2.53"/><path d="M34.62,35.39c0.45,0.33,0.71,1.49,0.8,2.15c0.09,0.66,0,42.19-0.09,46.33"/><path d="M21.66,87.66c0.53,0.64,1.77,1,2.3,0.84c0.53-0.16,20.01-7.22,21.61-8.01"/><path d="M42.14,72c2.3,3.28,7.03,12.53,7.81,16.8"/><path d="M64.87,15.18c0.31,0.63,0.9,1.45,0.96,2.56c0.26,4.9,0.87,41.79,0.87,42.35"/><path d="M66.48,16.68c2.2-0.14,15.6-2.35,17.61-2.51c1.67-0.14,2.85,0.72,2.85,3.68c0,4.82-0.01,25.84-0.5,38.9"/><path d="M65.99,26.88c8.03-0.78,15.6-1.91,20.93-2.18"/><path d="M66.33,37.58c5.83-0.47,12.82-1.81,20.02-2.12"/><path d="M66.72,48.15c8.68-1.14,12.28-1.08,19.46-1.65"/><path d="M59.94,59.87c1.08,0.37,3.07,0.45,4.15,0.37c6.72-0.51,24.16-2.74,28.63-2.91c1.8-0.07,2.89,0.18,3.79,0.36"/><path d="M70.95,65.53c0.02,0.22,0.05,0.57-0.04,0.88c-0.55,1.87-3.72,5.96-8.05,8.46"/><path d="M83.16,64.54c3.27,2.12,8.46,8.7,9.27,11.99"/></svg>