<svg><path d="M17.82,20.02c0.33,1.98,0.8,3.53,0.8,6c0,22.57,1.35,55.1-9.87,66.73"/><path d="M18.64,21.62c11.95-1.92,26.53-3.87,30.88-3.87c2.24,0,3.61,1.49,3.48,4.22c-2.49,51.78,0.75,72.89,33.99,72.6c8.52-0.07,9.27-0.82,9.02-9.8"/><path d="M43.14,24.85c0.05,0.31,0.11,0.79-0.1,1.23c-1.23,2.58-8.29,8.26-17.96,11.73"/><path d="M24.12,46.66c0.33,0.5,0.75,0.88,0.81,1.55c0.45,4.8,1.9,11.13,2.53,20.22"/><path d="M25.17,47.73c5.01-0.96,15.61-2.11,19.23-2.48c1.41-0.14,2.06,1.36,1.89,2.8c-0.6,4.93-0.71,8.26-1.68,16.45"/><path d="M27.64,66.49c4.03-0.97,11.97-1.27,17.61-2.17"/><path d="M34.62,35.89c0.45,0.33,0.71,1.49,0.8,2.15c0.09,0.66,0,46.19-0.09,50.33"/><path d="M21.66,91.02c0.58,0.74,1.93,1.16,2.52,0.97c0.58-0.18,21.89-8.34,23.65-9.26"/><path d="M43.14,73.75c2.6,3.43,7.93,13.09,8.81,17.55"/><path d="M74.43,12.67c0.67,1.51,0.32,2.98-0.4,4.49c-4.71,9.84-5.8,11.56-10.79,18.82c-2.12,3.08-0.59,4.1,2,3.41c7.18-1.91,12.56-3.75,24.06-7.09"/><path d="M84.31,25.93c3.33,2.5,8.6,10.28,9.44,14.17"/><path d="M63.74,50.81c0.31,0.39,0.63,0.72,0.77,1.21c1.08,3.89,2.51,14.57,3.25,21.56"/><path d="M65.2,52.44c9.3-0.94,17.57-2.11,22.8-2.89c1.78-0.27,2.84,0.7,2.6,2.94c-0.7,6.59-2.46,9.65-3.67,16.48"/><path d="M68.59,71.6c7.98-0.94,9.7-0.65,19.38-1.41"/></svg>