<svg><path d="M10.43,18.32c0.88,0.44,2.48,0.54,3.37,0.44c8.69-1.01,20.44-3.01,26.07-2.93c1.47,0.02,2.35,0.21,3.08,0.43"/><path d="M10.93,28.55c0.21,0.27,0.43,0.5,0.52,0.84c0.74,2.68,2.48,10.59,2.99,15.41"/><path d="M12.25,29.47c5.2-1.13,26.5-3.8,29.18-4.19c0.98-0.14,2.57,1.9,2.43,2.72c-0.58,3.38-2,10.27-3.25,15.14"/><path d="M20.85,20.39c0.57,0.43,0.95,1.9,1.02,2.76c0.22,2.55,1.24,13.11,1.76,19.06"/><path d="M31.55,18.92c0.57,0.43,0.65,2.32,0.59,4.25C32,27.5,31.75,35,31.3,41.8"/><path d="M14.65,43.52c3.15-0.43,22.42-2.15,26.42-2.58"/><path d="M15.95,52.49c0.94,0.36,2.66,0.5,3.6,0.36c3.96-0.6,12.21-1.35,15.71-1.91c1.55-0.25,2.5,0.17,3.29,0.35"/><path d="M9.85,63.3c0.77,0.47,2.18,0.54,2.95,0.47c5.72-0.57,20.28-2.39,28.64-2.99c1.28-0.09,2.06,0.22,2.7,0.46"/><path d="M27.22,65.11c0.53,0.89,1.43,2.39,1.43,4.63c0,8.62-0.01,14.27-0.01,20.22c0,8.21-5.21,3.04-7.33,0.35"/><path d="M17.7,71.77c0.02,0.45,0.04,1.15-0.03,1.79c-0.43,3.78-3.18,9.45-7.53,14.97"/><path d="M34.91,70.17c2.21,2.12,5.82,8.48,6.38,11.78"/><path d="M51.85,16.2c0.36,2.14,0.87,3.82,0.87,6.48c0,24.38,2.03,53.57-12.72,70.41"/><path d="M52.85,18.41C63.27,16.72,80.8,14,83.87,14c3.07,0,4.42,1.1,4.22,5.42c-1.2,25.86-3.09,51.33,8.3,71.05c4.24,7.34,4.86,3.49,4.61-3.42"/><path d="M78.83,24.2c0.06,0.28,0.12,0.73-0.11,1.13c-1.35,2.38-9.1,7.62-19.7,10.82"/><path d="M58.26,45.27c0.34,0.58,0.77,1.05,0.83,1.72c0.46,4.81,1.43,10.59,2.07,19.66"/><path d="M59.34,46.58C66,45.5,74,44.25,78.58,43.93c1.46-0.1,2.12,1.85,1.94,3.22c-0.62,4.68-1.73,8.46-2.73,16.24"/><path d="M61.35,64.79c4.14,0.06,12.4-0.79,18.6-1.42"/><path d="M68.34,34.93c0.52,0.32,0.83,1.43,0.93,2.06s-1,44.72-1.1,48.68"/><path d="M56.06,88.45c0.55,0.7,2.89,1.07,3.44,0.9c0.56-0.17,18.26-6.88,19.93-7.76"/><path d="M76.27,72.53c2.27,3.6,6.92,13.75,7.69,18.44"/></svg>