<svg><path d="M30.79,13.5c0.06,0.73,0.23,1.95-0.12,2.93C27.79,24.57,20.25,35.5,10.75,43.5"/><path d="M32.5,19.25c5.56,3.31,9.9,6.84,14.25,11.25"/><path d="M30.79,32.26c0.85,0.85,1.28,2.11,1.28,3.32c0,0.93-0.07,4.37-0.07,6.67"/><path d="M18.87,44.76c1.63,0.49,3.54,0.26,5.33-0.06c4.23-0.75,11.07-2.05,14.19-2.61c2.91-0.53,4.65,0,4.21,3.3c-0.67,4.98-1.12,10.62-1.69,15.63c-0.19,1.64-0.39,3.22-0.62,4.68"/><path d="M21.71,55.03c3.42-0.41,12.54-1.91,19.03-2.66"/><path d="M21.62,65.85c4.11-0.43,11.38-1.23,17.71-1.97"/><path d="M19.62,45.51c0.75,0.75,1.03,1.49,1.03,2.49c0,0.93-0.02,39.28-0.02,43.25c0,2.08,0.66,2.69,2.7,1.08c2.04-1.61,10.3-8.58,16.43-13.58"/><path d="M36.38,72c2.59,2.25,6.65,8.25,8.12,13"/><path d="M57.86,25.82c0.84,0.84,1.45,1.93,1.45,3.78c0,19.84,0.69,45.9-11.49,60.4"/><path d="M60.16,28.86c5.59-1.73,10.47-2.98,13.98-3.86c2.82-0.71,4.72,0.44,4.72,4.1c0,4.16-0.07,51.87-0.07,54.52c0,6.51,1.47,8.72,8.74,8.72c6.47,0,7.28-1.33,7.28-9.42"/></svg>