<svg><path d="M30.79,15c0.06,0.73,0.23,1.95-0.12,2.93c-2.88,8.14-11.44,19.55-20.42,26.57"/><path d="M32,19.75c5.25,2.38,11.5,7.38,14.25,11.25"/><path d="M30.79,32.01c0.91,0.91,1.28,2.24,1.28,3.32c0,0.93-0.08,4.91-0.08,7.2"/><path d="M19.45,45.01c1.18,0.61,2.93,0.77,4.03,0.51c4.65-1.14,12.43-2.7,15.69-3.31c3.19-0.6,4.04,1.22,3.63,4.04c-0.76,5.22-1.8,12.08-2.53,16.64c-0.22,1.37-0.41,2.53-0.56,3.38"/><path d="M21.71,56.53c4.67-0.91,13.79-2.53,18.78-3.16"/><path d="M21.62,67.6c5.26-0.85,12.63-2.43,17.21-3.22"/><path d="M19.12,45.26c1,1,1.53,2.25,1.53,3.49c0,0.93-0.08,36.68-0.08,38.97c0,4.28,0.81,4.16,3.44,2.16C26.06,88.3,34.5,82,38.75,79.5"/><path d="M35.62,73.25c1.74,2.03,5.63,7.46,6.62,11.75"/><path d="M51.63,24.98c1.35,0.54,3.07,0.67,4.41,0.54c9.34-0.89,20.96-3.02,27.13-3.98c2.22-0.35,3.59-0.24,4.71,0.03"/><path d="M53.99,26c1.01,0.75,1.42,2.12,1.4,3.64C55,55.62,55.5,78.38,41.25,95.5"/><path d="M58.83,45.98c1.34,0.37,2.5,0.42,5.18-0.13c4.74-0.97,14.36-3.72,18.26-5.15c2.78-1.02,4.26,0.74,3.26,3.81C77.67,68.47,69.12,84.38,50,94.76"/><path d="M61.12,55.19c3.24,0.91,18.43,24.26,29.71,34.21c1.76,1.55,3.04,2.58,4.67,3.1"/></svg>