<svg><path d="M 33.825625,13.64 c 0.06,0.64 0.27,1.71 -0.11,2.57 -2.44,5.65 -9.46,16.71 -19.41,25.04"/><path d="M 36.06,19.5 c 4.52,1.8 12.36125,7.523542 14.399583,10.22"/><path d="M 28.044792,33.66 c 0.36,0.15 1.02,0.19 1.39,0.15 2.3,-0.25 9.959583,-2.17 12.189583,-2 0.6,0.05 0.96,0.07 1.27,0.14"/><path d="M 20.814792,41.44 c 0.39,0.78 0.78,1.66 0.78,2.7 0,1.04 -0.13,54.33 0,55.37"/><path d="M 21.734792,43.05 c 2.2,-0.13 19.479583,-2.15 21.479583,-2.31 1.67,-0.13 2.75,1.44 2.62,2.2 -0.26,1.56 -1.92,17.89 -2.47,21.33"/><path d="M 22.124792,53.12 c 2.98,0 18.919583,-1.79 22.289583,-1.79"/><path d="M 21.994792,64.36 c 6.07,-0.56 13.919583,-1.54 21.469583,-2.02"/><path d="M 21.934792,76.75 c 3.73,-0.25 17.569583,-2.64 21.189583,-2.47 0.97,0.04 1.56,0.07 2.05,0.14"/><path d="M 22.434792,89.88 c 3.73,-0.25 18.069583,-2.15 21.689583,-1.98 0.97,0.04 1.56,0.07 2.05,0.14"/><path d="M73.38,14.41c0.24,1.5-0.13,2.51-1,4.29c-6.5,13.29-10,20.42-15.89,30.86c-2.04,3.62-1.63,4.69,2.39,3.71c10.09-2.46,19.63-4.4,33.48-7.78"/><path d="M83.49,31c4.68,3.93,12.09,16.14,13.26,22.25"/><path d="M57.34,67.01c1.1,1.1,1.24,2.53,1.54,3.96c1.05,5.01,2.3,13.59,3.29,20.69c0.23,1.62,0.42,3.17,0.57,4.59"/><path d="M59.44,68.58c9.24-1.33,22.06-3.1,29.19-4.15c3.83-0.56,5.56,1.17,4.7,4.97c-1.49,6.59-2.49,12.11-3.9,20.17"/><path d="M64.05,93.49c7.31-0.57,13.28-1.24,22.47-2.26c1.7-0.19,3.51-0.39,5.47-0.6"/></svg>