<svg><path d="M30.04,12.25c0.06,0.69,0.22,1.84-0.11,2.77C27.19,22.7,19.12,33.88,10.5,41.5"/><path d="M32.5,17.88c5.29,2.27,11.51,6.57,14.5,11.38"/><path d="M30.54,31.01c0.85,0.85,1.53,2.38,1.53,3.32c0,3.54-0.08,4.66-0.08,6.95"/><path d="M18.45,43.51c1.3,0.49,2.51,0.54,4.11,0.27c5.35-0.92,17.36-2.57,18.4-2.72c2.29-0.32,2.98,1.17,2.77,2.63c-0.7,4.88-1.7,14.61-2.21,19.78c-0.2,2.03-0.32,3.39-0.32,3.55"/><path d="M21.46,54.78c4.54-0.41,14.17-1.91,19.78-2.41"/><path d="M21.62,66.6c4.11-0.43,12.76-1.73,18.71-2.47"/><path d="M18.87,44.01c0.87,0.87,1.53,2.24,1.53,3.49c0,0.93,0.17,36.93,0.17,39.22c0,6.78,0.34,6.65,4.56,3.66C29.88,87,34,84,39.25,80.75"/><path d="M35,73.12c2.94,2.62,7.57,9.6,9.25,15.12"/><path d="M53.5,22.98c2.45,0.64,4.7,0.53,7.14,0.1c10.16-1.81,24.08-4.2,25-4.33c3.36-0.49,5.31,1.13,5.31,4.54c0,5.84,0.15,59.18,0.15,64.59c0,9.13-4.35,5.63-9.47,1.56"/><path d="M55.25,39.29c1.87,0.21,3.11,0.1,4.54-0.12c3.99-0.61,10.83-1.85,14.96-2.39c1.51-0.2,2.98-0.37,4.49-0.07"/><path d="M55.15,52.37c0.8,0.8,1.23,2.15,1.37,3.11c0.72,4.9,1.22,7.7,1.62,12.05c0.09,1.02,0.18,2.02,0.27,2.97"/><path d="M57.06,53.99c5.17-0.89,10.19-1.86,15.57-2.71c2.52-0.4,3.99,0.6,3.57,3.03c-0.72,4.09-1.07,5.64-2.4,11.56"/><path d="M59.39,68.59c2.77-0.43,8.52-0.8,13.65-1.51c1.37-0.19,1.96-0.33,3.05-0.21"/></svg>