<svg><path d="M30.76,13.64c0.06,0.64,0.27,1.71-0.11,2.57c-2.44,5.65-9.46,16.71-19.41,25.04"/><path d="M33,19.5c4.52,1.8,11.68,7.41,12.81,10.22"/><path d="M27.25,33.66c0.36,0.15,1.02,0.19,1.39,0.15c2.3-0.25,8.37-2.17,10.6-2c0.6,0.05,0.96,0.07,1.27,0.14"/><path d="M20.02,41.44c0.39,0.78,0.78,1.66,0.78,2.7c0,1.04-0.13,54.33,0,55.37"/><path d="M20.94,43.05c2.2-0.13,17.89-2.15,19.89-2.31c1.67-0.13,2.75,1.44,2.62,2.2c-0.26,1.56-1.92,17.89-2.47,21.33"/><path d="M21.33,53.12c2.98,0,17.33-1.79,20.7-1.79"/><path d="M21.2,64.36c6.07-0.56,12.33-1.54,19.88-2.02"/><path d="M21.14,76.75c3.73-0.25,15.98-2.64,19.6-2.47c0.97,0.04,1.56,0.07,2.05,0.14"/><path d="M21.64,89.88c3.73-0.25,16.48-2.15,20.1-1.98c0.97,0.04,1.56,0.07,2.05,0.14"/><path d="M54.46,14.59c2.99,2.15,7.73,8.85,8.48,12.21"/><path d="M86.05,10.39c0.02,0.46,0.12,1.2-0.05,1.84c-1.25,4.76-4.25,11.51-8.54,17.62"/><path d="M53.2,34.49c1.05,0.5,2.98,0.61,4.03,0.5c7.78-0.79,23.55-4.68,33.56-4.68c1.75,0,2.8,0.24,3.68,0.49"/><path d="M48.25,58.7c1.25,0.59,3.53,0.71,4.77,0.59C66.5,57.95,80,56,94.64,55.31c2.07-0.1,3.32,0.28,4.36,0.57"/><path d="M62.42,36.43c0.56,1.61,1.36,2.89,1.36,4.9c0,18.44,1.48,43.21-17.94,54.5"/><path d="M79.41,34.23c0.7,0.42,1.12,1.91,1.26,2.76c0.14,0.85,0,56.69-0.14,62"/></svg>