<svg><path d="M29.76,11.14c0.06,0.69,0.27,1.83-0.11,2.75c-2.49,6.06-9.67,17.9-19.84,26.82"/><path d="M32.52,16.58c4.34,1.88,11.21,7.72,12.29,10.63"/><path d="M23.25,31.16c0.36,0.15,1.02,0.19,1.39,0.15c2.3-0.25,8.87-1.67,11.1-1.5c0.6,0.05,0.96,0.07,1.27,0.14"/><path d="M18.77,39.94c0.39,0.78,0.78,1.68,0.78,2.72c0,1.04-0.13,55.79,0,56.84"/><path d="M19.69,41.57c2.2-0.13,17.41-2.17,19.42-2.33c1.67-0.13,2.74,1.45,2.61,2.22c-0.26,1.57-2.47,19.04-3.02,22.51"/><path d="M20.08,52.23c2.97,0,16.86-2.31,20.22-2.31"/><path d="M19.94,64.06C26,63.5,31.25,62.5,38.79,62.02"/><path d="M19.89,77.06c3.73-0.25,15.46-2.67,19.07-2.49c0.97,0.04,1.56,0.07,2.05,0.14"/><path d="M20.39,90.81c3.73-0.25,16.46-2.17,20.07-1.99c0.97,0.04,1.56,0.07,2.05,0.14"/><path d="M85.88,11.64c0.09,0.31,0.19,0.8-0.19,1.24c-2.24,2.62-15.12,8.36-32.74,11.87"/><path d="M56.07,30.11c0.02,0.42,0.05,1.08-0.05,1.68c-0.57,3.55-3.85,11.34-8.34,16.1"/><path d="M68.72,29.8c2.92,2.41,7.54,9.92,8.27,13.66"/><path d="M84.35,26.42c4.33,2.97,11.18,12.21,12.26,16.83"/><path d="M69.41,46.62c0.34,1.27,0.31,2.95-0.17,4.43c-2.69,8.21-7.75,18.92-12.05,27.78c-0.94,1.93-0.19,2.26,0.52,2.32C68.25,82,83,87.75,90.69,97.75"/><path d="M83.85,56.93c0.1,1.02,0.31,3.56-0.21,4.98C78.2,76.8,71.23,91.78,48.86,99.75"/><path d="M46.13,63.74c1.68,0.33,3.48,0.48,4.29,0.39c17.02-1.89,29.07-3.2,45.33-3.46c1.35-0.02,3.67,0.37,4.76,1.05"/></svg>