<svg><path d="M29.76,10.64c0.06,0.67,0.27,1.8-0.11,2.71c-2.46,5.95-9.55,17.6-19.59,26.37"/><path d="M32.02,17.08c4.16,1.79,10.75,7.35,11.79,10.13"/><path d="M22.75,31.66c0.36,0.15,1.02,0.19,1.39,0.15c2.3-0.25,9.37-2.17,11.6-2c0.6,0.05,0.96,0.07,1.27,0.14"/><path d="M18.27,40.44c0.39,0.78,0.78,1.68,0.78,2.72c0,1.04-0.13,55.29,0,56.34"/><path d="M19.19,41.57c2.2-0.13,17.91-2.17,19.92-2.33c1.67-0.13,2.74,1.45,2.61,2.22c-0.26,1.57-2.47,19.54-3.02,23.01"/><path d="M19.58,52.73c2.97,0,16.86-2.31,20.22-2.31"/><path d="M18.94,64.06C25,63.5,31.25,62.5,38.79,62.02"/><path d="M18.89,77.06C22.61,76.8,34.5,75,38.45,74.56c0.97-0.11,1.56,0.07,2.05,0.14"/><path d="M20.39,90.81c3.73-0.25,16.46-2.17,20.07-1.99c0.97,0.04,1.56,0.07,2.05,0.14"/><path d="M49.22,28.95c0.91,0.44,2.59,0.5,3.5,0.44c7.11-0.41,19.53-3.65,27.7-4.96c1.5-0.24,2.43,0.21,3.2,0.43"/><path d="M60.81,14c1.33,0.88,1.93,2.15,2.21,4.05C65.35,33.97,73.8,48.5,90.04,54.44c5.21,1.91,5.13-0.32,3.81-6.6"/><path d="M81.43,31.2c-0.18,0.6-0.36,1.23-0.78,1.78C76.93,37.81,67,46.25,51.57,50.45"/><path d="M75.42,12.68c3.58,1.25,9.31,4.11,10.99,6.25"/><path d="M46.77,66.63c0.96,0.44,2.72,0.48,3.69,0.44c9.79-0.32,26.04-4.07,34.18-6.43c1.54-0.45,2.57,0.21,3.37,0.43"/><path d="M61.26,53.67c1.43,0.94,2.04,1.67,2.34,3.69c2.5,16.98,11.22,32.55,28.7,38.88c5.61,2.03,5.45-2,4.1-7.77"/><path d="M83.16,68.78c0.09,0.6,0.19,1.54-0.19,2.39c-2.24,5.05-14.82,16.68-32.43,23.46"/><path d="M69.42,51.62c2.77,0.9,7.19,2.96,8.49,4.5"/></svg>