<svg><path d="M36.12,9.53c0.93,0.93,1.08,2.35,1.08,3.35c0,0.36,0.01,9.56-0.07,11.75"/><path d="M38.18,16.65c3.06-0.58,7.39-1.25,9.89-1.74c1.43-0.38,2.87-0.46,4.33-0.23"/><path d="M28.97,21.03c-0.04,1.31-0.33,2.54-0.88,3.69c-2.34,3.78-5.59,8.53-11.37,13.17"/><path d="M30.72,25.57c1.26,0.03,2.51-0.03,3.76-0.18c2.65-0.25,8.11-0.72,10.81-1.33c2.63-0.59,3.59,0.72,1.94,3c-5.99,8.3-17.1,18.33-29.71,23.54"/><path d="M26.99,32.42c2.71,1.13,5.75,3.41,6.43,5.17"/><path d="M62.15,16.07c1.66,0.35,3.31,0.37,4.94,0.05c3.11-0.47,11.89-1.95,15.55-2.53c2.58-0.41,4.01,1.18,2.49,3.57c-5.76,9.11-13.42,15.17-22.88,19.87"/><path d="M62.1,23.38c12.9,4,19.78,7.37,26.03,16.03"/><path d="M52.55,35.25c-0.16,1.29-0.63,2.42-1.41,3.38C45.48,46.31,29.97,57.73,14,64.14"/><path d="M53.5,39.38c6,3.5,18.89,10.74,27.64,15.09c3.53,1.64,7.15,3.07,10.86,4.27"/><path d="M 46.85,52.2 c 0.36,0.15 1.02,0.19 1.39,0.15 2.3,-0.25 9.959583,-2.17 12.189583,-2 0.6,0.05 0.96,0.07 1.27,0.14"/><path d="M38.43,58.31c1.94,0.81,3.82,0.78,5.56,0.62c5.97-0.55,17.16-1.74,21.13-2.08c1.82-0.16,3.76,0.56,3.76,2.66c0,4.24-0.01,11.14-0.01,17.24"/><path d="M41.69,68.06C51.25,67,60.5,66,67.94,65.42"/><path d="M41.8,76.78C51.12,76,58.62,75,67.53,74.53"/><path d="M39.43,59.31c0.88,0.88,0.94,1.81,0.94,2.89c0,3.29,0.12,28.43,0.12,32.42c0,3.5,0.5,4,3.62,2.12c2.74-1.64,7.62-4.75,11.12-6.94"/><path d="M77.53,77.35c-0.28,1.15-0.84,1.9-1.51,2.53c-2.14,2-3.51,3.62-6.31,5.71"/><path d="M52.31,80.01c3.09,0,15.44,9.49,22.53,14.6c2.84,2.04,5.85,3.65,9.28,4.51"/></svg>