<svg><path d="M29.76,11.14c0.06,0.67,0.27,1.78-0.11,2.68c-2.46,5.9-9.55,17.45-19.59,26.14"/><path d="M32.27,16.83c4.43,1.83,11.44,7.53,12.54,10.38"/><path d="M22.25,31.66c0.36,0.15,1.02,0.19,1.39,0.15c2.3-0.25,9.87-2.17,12.1-2c0.6,0.05,0.96,0.07,1.27,0.14"/><path d="M18.27,39.97c0.39,0.82,0.78,1.75,0.78,2.84c0,1.09-0.13,56.6,0,57.69"/><path d="M19.19,41.67c2.2-0.14,17.91-2.77,19.92-2.93c1.67-0.14,2.74,1.51,2.61,2.31c-0.26,1.64-2.47,19.28-3.02,22.91"/><path d="M19.58,52.26c2.97,0,17.36-2.4,20.72-2.4"/><path d="M19.44,64.08c6.06-0.59,11.81-1.65,19.35-2.15"/><path d="M19.39,77.1c3.73-0.26,15.96-2.78,19.57-2.6c0.97,0.05,1.56,0.07,2.05,0.15"/><path d="M19.89,90.92c3.73-0.26,16.46-2.26,20.07-2.08c0.97,0.05,1.56,0.07,2.05,0.15"/><path d="M49.87,23.33c2.71,2.52,6.65,9.67,7.38,12.19"/><path d="M87,18.53c0.54,0.55,0.14,2.77-0.35,3.62c-0.49,0.85-4.86,5.98-7.3,7.96"/><path d="M67.28,12.25c0.99,0.42,1.55,2.48,1.49,3.18C66.92,35.86,64.17,45.55,48,54.5"/><path d="M67.76,28.83C74.81,37.69,83.35,46.7,88,50.39c1.46,1.16,1.8,1.03,3,1.33"/><path d="M49,61.25c4.51,2.47,7.31,8.6,8.54,11.08"/><path d="M88.71,57.15c0.54,1.33-0.06,2.95-0.68,4.11c-0.62,1.16-4.92,5.51-8,8.21"/><path d="M68.58,51c0.67,0.75,1.09,2.62,1.06,3.41C68.5,81.25,56.5,91.25,43.18,97.5"/><path d="M69.39,68.71c7.71,10.63,17.06,21.44,22.15,25.87c1.6,1.39,1.97,1.24,3.28,1.59"/></svg>