<svg><path d="M27.27,11.14c0.05,0.67,0.26,1.78-0.1,2.68c-2.34,5.9-9.07,17.45-18.61,26.14"/><path d="M29.52,15.83c4.34,2.01,11.21,8.26,12.29,11.38"/><path d="M20.75,31.16c0.36,0.15,1.02,0.19,1.39,0.15c2.3-0.25,8.87-1.67,11.1-1.5c0.6,0.05,0.96,0.07,1.27,0.14"/><path d="M16.77,39.97c0.39,0.81,0.78,1.74,0.78,2.83c0,1.09-0.13,55.87,0,56.96"/><path d="M17.69,41.66c2.2-0.14,16.41-2.26,18.42-2.42c1.67-0.14,2.74,1.5,2.61,2.31c-0.26,1.63-2.97,19.21-3.52,22.82"/><path d="M18.08,52.71c2.97,0,15.86-2.4,19.22-2.4"/><path d="M17.94,63.97c6.06-0.58,10.31-1.64,17.85-2.14"/><path d="M17.89,76.95c3.73-0.26,13.96-2.27,17.57-2.09c0.97,0.05,1.56,0.07,2.05,0.15"/><path d="M17.89,91.2c3.73-0.26,15.46-2.25,19.07-2.07c0.97,0.05,1.56,0.07,2.05,0.15"/><path d="M43.75,38.35c0.29,0.13,1.93,0.32,4.25,0.32c4.31,0,13.75-1.42,18.15-2.09c0.76-0.12,2.8,0.03,3.28,0.16"/><path d="M54.6,12.13c0.79,0.54,1.41,2.4,1.41,3.5c0,18.87,0,36.56-0.16,43.3"/><path d="M44.95,59.29c0.25,0.75,1.05,1.76,1.13,2.33c0.62,4.13,1.52,15,2.4,22.83"/><path d="M46.1,60.8c5.21-0.7,15.32-2.47,18.87-2.58c1.47-0.05,2.26,0.98,2.13,2.04c-0.48,4-2.93,14.03-3.73,19.34"/><path d="M48.56,81.17c4.31-0.29,11.7-1.17,16.88-1.55"/><path d="M75.01,16.25c1.24,1,1.24,1.75,1.39,2.88c0.15,1.12-0.16,29.41-0.16,31.92c0,13.96-3.49,36.21-14.83,46.71"/><path d="M76.59,17.72c1.34-0.19,13.63-2.77,14.63-3.01c1.79-0.41,3.43,2.12,3.2,3.52c-0.22,1.34-0.24,55.63-0.24,74.6c0,9.17-5.93,2.67-7.74,0.92"/><path d="M76.85,40.69c4.66-0.89,13.27-1.66,17.35-1.9"/><path d="M76.01,63.31c3.63-0.29,13.58-1.52,17.78-1.5"/></svg>