<svg><path d="M27.77,10.14c0.05,0.7,0.25,1.88-0.1,2.82c-2.25,6.21-8.71,18.36-17.86,27.5"/><path d="M29.52,17.33c4.34,2.01,11.21,8.26,12.29,11.38"/><path d="M21,32.16c0.39,0.15,1.11,0.19,1.5,0.15c2.5-0.25,10.7-2.17,13.12-2c0.65,0.05,1.05,0.07,1.37,0.14"/><path d="M18.27,41.94c0.36,0.78,0.72,1.68,0.72,2.72c0,1.04-0.12,54.29,0,55.34"/><path d="M19.12,43.57c2.02-0.13,17.37-2.17,19.21-2.33c1.53-0.13,2.52,1.45,2.4,2.22C40.48,45.03,38.49,59.5,38,62.98"/><path d="M19.47,53.23c2.73,0,16.86-1.81,19.95-1.81"/><path d="M19.35,63.56c5.56-0.56,11.3-1.06,18.23-1.54"/><path d="M19.29,77.06c3.42-0.25,14.65-2.17,17.97-1.99c0.89,0.04,1.43,0.07,1.88,0.14"/><path d="M19.25,91.31c3.42-0.25,15.11-2.17,18.43-1.99c0.89,0.04,1.43,0.07,1.88,0.14"/><path d="M66.09,12.19c0.04,0.32,0.15,0.91-0.08,1.27c-2.8,4.47-6.94,8.57-14.24,12.18"/><path d="M48.87,25.6c0.53,0.38,0.85,1.7,0.96,2.45c0.11,0.75,0.22,18.92,0.11,20.8c-0.11,1.7,0.54,2.9,1.82,1.58c1.28-1.32,10.26-8.81,15.03-11.92"/><path d="M60.63,29.12c4.15,3.63,6.8,9,8.39,14.28"/><path d="M72.38,20.74c0.96,0.41,2.66,0.36,3.5,0.22c6.83-1.14,14.41-1.84,18.19-2.26c2.46-0.27,3.08,2.36,2.94,4.27c-0.36,5.04-3.5,20.09-6.86,25.88c-2.43,4.21-3.85,2.86-5.69,0.13"/><path d="M83.69,21c0.04,0.67,0.27,1.79-0.1,2.67C81,30,76.25,42.75,67.33,50.88"/><path d="M51.61,63.45c0.29,0.6,0.29,1,0.45,1.74c1.29,6.1,2.09,21.32,2.85,32.55"/><path d="M52.62,65.37c11.6-1.51,29.64-2.04,37.26-2.64c2.8-0.22,4.23,0.97,4.08,4.13c-0.3,6.02-2.21,19.14-4.29,29.32"/><path d="M70.89,64.28c0.56,0.56,1.03,1.69,1.02,3.16c-0.02,7.55,0.18,24.51,0.18,26.99"/><path d="M54.44,80.06c3.33-0.3,34.68-1.99,37.43-1.99"/><path d="M55.44,95.72c8.78-0.79,23.66-1.81,33.82-1.97"/></svg>