<svg><path d="M27.76,12.14c0.05,0.69,0.26,1.83-0.1,2.75c-2.37,6.06-9.19,17.91-18.85,26.82"/><path d="M30.27,18.33c4.96,1.92,12.8,7.9,14.04,10.88"/><path d="M21.75,33.52c0.38,0.17,1.08,0.21,1.46,0.17c2.42-0.29,10.37-2.44,12.71-2.24c0.63,0.05,1.01,0.08,1.33,0.16"/><path d="M16.77,41.94c0.39,0.78,0.78,1.68,0.78,2.72c0,1.04-0.13,53.29,0,54.34"/><path d="M17.69,43.57c2.2-0.13,18.91-2.67,20.92-2.83c1.67-0.13,2.74,1.45,2.61,2.22c-0.26,1.57-1.97,18.54-2.52,22.01"/><path d="M18.08,53.73c2.97,0,18.36-2.31,21.72-2.31"/><path d="M17.94,65.06C24,64.5,31.25,63.5,38.79,63.02"/><path d="M17.39,77.56c3.73-0.25,15.96-2.17,19.57-1.99c0.97,0.04,1.56,0.07,2.05,0.14"/><path d="M17.89,89.81c3.73-0.25,15.96-2.17,19.57-1.99c0.97,0.04,1.56,0.07,2.05,0.14"/><path d="M52.31,21.06c0.4,0.49,0.9,1.82,1,2.46c0.86,5.34,2.25,16.16,3.14,26.98"/><path d="M53.7,22.33c11-1.41,27.98-2.73,34.46-3.33c2.6-0.24,3.08,1.2,2.84,3.31c-0.75,6.66-3.25,18.69-5.08,25.95"/><path d="M70.92,24.35c0.06,0.38,0.24,1.21,0.13,1.79c-0.63,3.46-4.3,10.1-9.26,15.69"/><path d="M70.45,31.83c3.79,1.17,9.33,5.85,10.27,8.13"/><path d="M56.48,47.7c7.04,0,19.72-1.17,29.44-1.31"/><path d="M51.47,62.34c0.5,0.78,1.15,1.62,1.26,2.28c0.85,5.23,1.53,18.87,2.11,28.28"/><path d="M53.01,63.99c9.02-1.08,33.09-2.96,36.35-3.19c2.05-0.14,3.2,1.03,2.99,3.18c-0.3,3.03-2.33,23.32-3.38,27.41"/><path d="M65.06,64.15c0.21,0.5,0.42,0.91,0.51,1.54c0.72,4.94,0.76,17.91,1.25,26.78"/><path d="M78.26,62.54c0.38,0.6,0.75,1.62,0.68,2.38c-0.63,7.65-1,16.45-1.78,26.24"/><path d="M43.42,93.72c1.6,0.45,4.54,0.58,6.14,0.45C60.5,93.25,80,92.25,92.98,91.99c2.67-0.05,4.27,0.21,5.6,0.44"/></svg>