<svg><path d="M27.27,11.64c0.05,0.69,0.24,1.83-0.1,2.75c-2.21,6.06-8.59,17.9-17.62,26.82"/><path d="M29.27,18.83c4.96,1.92,12.8,7.9,14.04,10.88"/><path d="M21.25,33.66c0.36,0.15,1.02,0.19,1.39,0.15c2.3-0.25,9.87-2.17,12.1-2c0.6,0.05,0.96,0.07,1.27,0.14"/><path d="M18.02,41.68c0.36,0.77,0.72,1.64,0.72,2.66c0,1.02-0.12,53.14,0,54.16"/><path d="M18.88,43.77c2.04-0.13,17.56-2.63,19.42-2.78c1.55-0.13,2.55,1.42,2.43,2.17c-0.24,1.54-2.76,17.16-3.26,20.57"/><path d="M19.24,52.71c2.76,0,17.05-1.76,20.17-1.76"/><path d="M19.11,63.81c5.62-0.55,11.43-1.52,18.43-1.99"/><path d="M19.06,77.03c3.46-0.25,14.82-2.61,18.17-2.44c0.9,0.04,1.45,0.07,1.9,0.14"/><path d="M19.02,90c3.46-0.25,15.28-2.62,18.63-2.45c0.9,0.04,1.45,0.07,1.9,0.14"/><path d="M46.25,23.56c1.46,0.34,3.15,0.44,4.61,0.34c9.39-0.65,28.14-3.4,38.21-3.43c2.43-0.01,3.88,0.16,5.1,0.33"/><path d="M53.94,12.95c1.47,1.25,2,2.11,2.09,2.89C57,24.25,57.75,31.5,58.41,35.5"/><path d="M78.79,11.17c0.21,0.83,0.95,2.18,0.79,3.46C79,19.15,77.84,27.56,77,31.71"/><path d="M58.5,33.76c7.06-0.74,13.5-1.51,20.87-1.87"/><path d="M48,42.71c0.38,0.29,0.78,0.53,0.95,0.89c1.33,2.86,2.43,10.23,3.34,15.37"/><path d="M49.96,45.07c9.12-1.09,32.68-3.44,37.38-3.81c1.72-0.13,2.76,1.35,2.51,2.15c-0.82,2.62-2.03,7.87-3.04,10.84"/><path d="M52.67,57.07c5.7-0.46,28.97-2.42,36.2-2.87"/><path d="M66.37,33.25c1.09,0.5,1.74,2.25,1.96,3.25c0.22,1,0.5,49.25,0.28,55.5"/><path d="M48.5,67.33c1.11,0.43,3.14,0.49,4.25,0.43c9-0.51,22-2.26,31.87-2.37c1.85-0.02,2.96,0.21,3.88,0.42"/><path d="M49.75,79.83c1.11,0.43,3.13,0.47,4.25,0.43c7.5-0.26,23.5-2.01,31.37-2.37c1.84-0.08,2.96,0.21,3.88,0.42"/><path d="M44.25,93.83c1.32,0.43,3.75,0.55,5.08,0.43c8.44-0.74,37-2.37,45.17-1.87c2.2,0.13,3.53,0.21,4.63,0.42"/></svg>