<svg><path d="M28.26,10.64c0.05,0.65,0.26,1.74-0.11,2.61c-2.43,5.75-9.43,17-19.35,25.46"/><path d="M30.02,14.83c4.34,2.01,11.21,8.26,12.29,11.38"/><path d="M21.25,30.66c0.36,0.15,1.02,0.19,1.39,0.15c2.3-0.25,9.87-2.17,12.1-2c0.6,0.05,0.96,0.07,1.27,0.14"/><path d="M17.27,39.94c0.39,0.78,0.78,1.68,0.78,2.72c0,1.04-0.13,54.29,0,55.34"/><path d="M18.19,41.57c2.2-0.13,16.41-2.17,18.42-2.33c1.67-0.13,2.74,1.45,2.61,2.22c-0.26,1.57-1.47,18.54-2.02,22.01"/><path d="M18.58,52.23c2.97,0,15.86-2.31,19.22-2.31"/><path d="M18.44,64.06C24.5,63.5,29.25,62,36.79,61.52"/><path d="M18.39,76.06c3.73-0.25,14.96-2.17,18.57-1.99c0.97,0.04,1.56,0.07,2.05,0.14"/><path d="M18.39,90.31c3.73-0.25,14.96-2.17,18.57-1.99c0.97,0.04,1.56,0.07,2.05,0.14"/><path d="M55.07,15.25c0.24,0.97,0.45,1.8-0.12,2.76c-2.48,4.22-4.54,9.07-6.9,11.35c-0.48,0.46-0.47,2.25,0,2.44c1.36,0.53,4.63,1.24,7.33,3.51"/><path d="M62.22,25.31c0.29,0.52,0.38,2.24,0,2.79c-5.52,8.2-7.39,10.19-14.9,18.98c-1.55,1.81,0.43,2.7,1.57,2.35c4.75-1.46,7.6-2.18,13.7-3.58"/><path d="M59.63,40.05c1.69,1.8,4.37,7.4,4.8,10.2"/><path d="M82.71,14.25c0.22,1.11,0.42,2.05-0.11,3.14c-2.32,4.8-3.07,7.32-5.28,9.91c-0.45,0.53-0.48,2.69,0,2.77C80,30.5,83.5,32,86.17,33.55"/><path d="M92.8,20.56c0.2,0.5,0.27,2.15,0,2.68c-3.93,7.86-9.21,14.53-14.61,21.7c-1.24,1.64,0.31,2.59,1.12,2.25c3.38-1.4,8.97-3.53,13.31-4.87"/><path d="M90.52,37.8c1.37,1.93,3.85,7.44,4.19,10.45"/><path d="M44.29,61.56c1.08,0.27,3.08,0.39,4.15,0.27c4.38-0.52,35.15-3.46,45.77-4.06c1.8-0.1,2.89,0.13,3.79,0.26"/><path d="M52.99,65.43c0.03,0.71,0.51,1.34,0.38,2.34C52.01,77.84,50.5,88,41.31,96"/><path d="M56.13,75.03c2.37,0.99,6.67,4.79,8.82,8.75"/><path d="M66.4,11c1.13,1.88,1.65,2.39,1.84,6.44c1.45,31.69,10.88,66.5,26.11,78.27c4.69,3.63,4.41,1.49,3.84-6.83"/><path d="M89.36,65.68c0.08,0.65,0.17,1.69-0.16,2.63c-1.96,5.54-11.26,18.75-26.65,26.2"/><path d="M81.16,50.53c1.8,0.8,4.67,2.63,5.51,4"/></svg>