<svg><path d="M26.21,10.12c0.34,0.8,0.38,1.35-0.17,2.26c-2.33,3.87-6.75,7.81-10.5,10.46c-0.64,0.45-0.4,1.4,0.29,1.56c3.61,0.8,4.8,1.32,10.11,3.61"/><path d="M36.28,17.4c0.25,0.3,0.09,1.4-0.21,1.75c-3.65,4.32-11.8,12.35-17.85,17.22c-0.81,0.65-0.02,1.77,1,1.61c5.48-0.85,10.15-1.25,15.57-2.04"/><path d="M35.74,28.41c0.24,0.32,0.56,1.48,0.44,2.31c-0.73,5.32-4.47,17.08-15.77,22.11"/><path d="M53.75,5.5c0.01,0.13,0.03,0.35-0.03,0.54c-0.31,1.13-2.53,4.19-4.97,5.71"/><path d="M45.02,12.2c0.34,0.5,0.67,1.06,0.67,1.72s-0.11,34.67,0,35.33"/><path d="M45.82,13.24c1.9-0.08,15.43-1.37,17.16-1.47c1.44-0.08,2.37,0.92,2.26,1.41c-0.23,0.99-1.66,11.41-2.13,13.61"/><path d="M46.16,19.66c2.57,0,14.95-1.14,17.86-1.14"/><path d="M46.04,26.83c5.23-0.36,10.63-0.99,17.15-1.29"/><path d="M45.99,34.74c3.22-0.16,13.79-1.69,16.91-1.58c0.84,0.03,1.35,0.04,1.77,0.09"/><path d="M46.42,43.12c3.22-0.16,14.22-1.37,17.34-1.26c0.84,0.03,1.35,0.04,1.77,0.09"/><path d="M73.56,14.38c1.31,0.52,2.63,0.34,3.44,0.26c4.54-0.44,7.89-1.38,10.04-1.82c2.53-0.52,5.07,0.52,3.94,1.73c-1.13,1.21-5.91,7.88-7.88,9.61"/><path d="M83.5,24.16c13.5,6.84,10.25,24.09,0.67,18"/><path d="M74.87,14.89c0.63,0.86,0.46,2.44,0.46,3.13c0,5.98,0,28.13-0.22,32.23"/><path d="M52,47.5c0.11,0.58,0.44,1.55-0.22,2.34c-5.39,6.5-21.45,16.83-38.28,22.44"/><path d="M51.75,51.1c5.63,3.04,29.88,12.96,36.08,15.18c2.11,0.75,4.81,1.08,6.92,1.29"/><path d="M50.25,59.16c1.25,0.51,2,1.27,2.25,2.29s0.25,4.33,0.25,6.87"/><path d="M38.19,70.12c2.2-0.06,28.41-3.02,30.42-3.1c1.67-0.06,2.39,0.48,2.11,2.07c-0.14,0.79-1.72,8.3-1.89,12.89c-0.02,0.57-0.13,0.82-0.13,1.19"/><path d="M38.58,76.42c2.97,0,27.56-2.34,30.92-2.34"/><path d="M38.44,83.73c6.06-0.27,21.81-1.99,29.35-2.22"/><path d="M36.5,69.47c0.75,0.53,1,1.35,1.25,1.95C38,72.02,38.28,95.82,38,97.31c-0.25,1.35-2.25,3.9,0.75,2.85c3-1.05,12-5.31,14.5-6.66"/><path d="M75.52,81.79c0.36,1.02-0.36,2.8-1.27,3.24c-2,0.97-5.98,3.89-9.25,5.32"/><path d="M50,87c3.75,0,23.41,10.5,26.47,11.29c4.41,1.13,5.07,1.13,7.28,1.38"/></svg>