<svg><path d="M30.76,12.64c0.06,0.71,0.28,1.91-0.11,2.87c-2.56,6.31-9.91,18.66-20.34,27.95"/><path d="M32.77,18.58c4.43,1.88,11.44,7.72,12.54,10.63"/><path d="M24.75,33.66c0.36,0.15,1.02,0.19,1.39,0.15c2.3-0.25,9.87-2.17,12.1-2c0.6,0.05,0.96,0.07,1.27,0.14"/><path d="M21.27,42.94c0.39,0.78,0.78,1.68,0.78,2.72c0,1.04-0.13,52.29,0,53.34"/><path d="M22.19,44.07c2.2-0.13,17.41-2.67,19.42-2.83c1.67-0.13,2.74,1.45,2.61,2.22c-0.26,1.57-2.47,19.04-3.02,22.51"/><path d="M22.58,54.23c2.97,0,16.86-1.81,20.22-1.81"/><path d="M22.44,66.06c6.06-0.56,11.31-1.56,18.85-2.04"/><path d="M22.39,78.56c3.73-0.25,15.46-2.17,19.07-1.99c0.97,0.04,1.56,0.07,2.05,0.14"/><path d="M22.89,91.81c3.73-0.25,14.96-1.67,18.57-1.49c0.97,0.04,1.56,0.07,2.05,0.14"/><path d="M56.72,21.76c0.88,0.54,2.48,0.59,3.36,0.54c9.28-0.59,13.69-2.37,25.03-2.84c1.46-0.06,2.34,0.26,3.07,0.52"/><path d="M70.39,12.62c0.06,0.23,0.92,1.22,0.92,2.71c0,1.67,0.27,7.92,0.27,14.88"/><path d="M53.13,31.59c0.99,0.43,2.82,0.53,3.81,0.43c12.31-1.21,22.45-2.61,33.47-3.18c1.66-0.09,2.65,0.21,3.48,0.42"/><path d="M50.69,46.14c0.53,0.38,1.57,0.4,2.1,0.36c3.51-0.25,10.24-1.89,14-2.5c0.88-0.14,1.84-0.18,2.28,0.01"/><path d="M58.62,38.5C59.39,39,60,40.73,60,41.75c0,7.25,0.02,3.25,0.02,14"/><path d="M50.24,58.19c0.54,0.56,1.62,1.36,3.24,0.62c4.5-2.06,11.1-4.25,15.61-6.31"/><path d="M72.49,43.53c0.58,0.32,1.65,0.33,2.23,0.32c5.41-0.11,12.45-1.61,17.75-1.71c0.97-0.02,1.55,0.15,2.04,0.31"/><path d="M82.12,35.12c0.07,0.23,0.99,1.22,0.99,2.71c0,1.67-0.2,10.92-0.2,17.88"/><path d="M70.9,57.23c0.68,0.3,2.27,0.37,2.94,0.3C79.87,57,89.83,56,95.89,55.59c1.13-0.08,1.8,0.15,2.37,0.3"/><path d="M52,68.9c1.16,0.37,3.29,0.41,4.45,0.37c8.09-0.27,24.3-2.77,32.58-3.26c1.93-0.11,3.1,0.18,4.07,0.36"/><path d="M64.58,71.5c0.05,0.6,0.09,1.56-0.1,2.43c-1.35,5.99-8.23,18.57-18.08,23.74"/><path d="M74.76,69.41c0.5,1.14,0.93,2.49,0.93,4.25c0,2.36-0.02,5.9-0.02,11.25c0,10.59,0.84,11.58,11.24,11.58c10.59,0,10.88-1.74,10.88-10.23"/></svg>