<svg><path d="M35.25,17.5c2.93,1.85,7.58,7.59,8.31,10.47"/><path d="M69.97,13.68c0.53,0.82,0.4,2.07-0.14,3.35c-1.42,3.32-4.2,8.22-7.83,12.22"/><path d="M15.63,36.23c2.06,0.54,5,0.65,7.88,0.29c19.56-2.42,45.12-5.14,62.68-6.23c3.42-0.21,5.48,0.01,7.19,0.28"/><path d="M52.77,35.67c0.23,0.83,0.12,2.01-0.05,2.45c-1.22,3.12-2.97,7.1-6.42,10.77"/><path d="M35.56,49.74c0.85,0.85,1.23,2.02,1.23,3.38c0,1.11-0.03,27.21-0.04,37.26c0,2.25,0,3.69,0,3.88"/><path d="M37.77,51.46c8.43-1.02,29.5-3.93,32.01-4.09c2.59-0.17,4.41,1.13,4.41,3.45c0,1.62-0.51,22.71-0.5,37.61c0,1.53,0.05,3.07,0.05,4.72"/><path d="M37.99,64.27c7.76-0.64,27.51-2.64,34.59-2.9"/><path d="M38.27,77.93c10.11-1.05,24.61-2.8,34.16-3.28"/><path d="M38.34,91.88c8.28-0.5,25.03-2,33.85-2.52"/></svg>