<svg><path d="M16.24,17.62c0.76,0.88,0.99,3.46,0.99,4.63c-0.05,9.56-0.29,36.83-0.98,39.5"/><path d="M16.98,18.9c0.8-0.02,2.75-0.01,3.79-0.13C27.25,18,39,16.5,44.04,16.59c0.95,0.02,2.53-0.25,3-0.03"/><path d="M30.81,19.32c0.25,0.38,0.96,0.88,0.95,1.49c-0.02,6.17-0.06,27.96-0.25,37.66"/><path d="M17.66,33.09c6.26-0.58,20.75-2.6,23.44-2.99c0.94-0.14,2.53-0.24,3-0.02"/><path d="M17.76,46.12c6.26-0.59,21.25-3.6,23.94-3.99c0.94-0.14,2.53-0.25,3-0.03"/><path d="M16.99,61.65c6.17-1.41,22-4.31,25.43-4.63c2.83-0.26,4.19,1.31,3.95,4.95C45.7,72.31,42.46,85.3,39.25,92c-2.75,5.75-5.32,0.41-6.21-0.86"/><path d="M11.18,72.58c0.31,5.89-0.64,11.07-0.97,12.24"/><path d="M18.68,71.2c1.27,2.43,2.35,5.48,2.64,9.81"/><path d="M26.12,68.23c0.72,1.14,3.31,4.92,3.63,8.65"/><path d="M33.29,65.5c1.46,2.29,3.87,4.66,4.4,7.7"/><path d="M54.72,21c1.42,0.5,3.01,0.32,5.92,0c4.6-0.5,19.06-4.22,21.12-4.5c3.73-0.5,5.05,1.21,4.15,5.5C80.5,48,68,76.5,45.5,92.5"/><path d="M51.21,31.5c1.54,0,4.04,1.5,5.01,3.2c6.08,10.71,20.83,39.2,31.48,52.55c2,2.5,3.45,4.17,5.31,5"/></svg>