<svg><path d="M14.24,18.12c0.76,0.38,2.02,2.34,2.05,3.38c0.28,9.32-0.84,37.05-1.53,39.75"/><path d="M16.48,18.9c0.8-0.02,2.74-0.06,3.79-0.13c7.82-0.52,17.4-2.33,19.76-2.67c0.94-0.14,2.53-0.25,3-0.03"/><path d="M28.31,18.82c0.25,0.38,0.96,0.88,0.95,1.49c-0.02,6.17-0.06,27.96-0.25,37.66"/><path d="M16.16,32.59c6.26-0.58,19.75-1.6,22.44-1.99c0.94-0.14,2.53-0.24,3-0.02"/><path d="M16.26,45.62c6.26-0.59,20.25-2.1,22.94-2.49c0.94-0.14,2.53-0.25,3-0.03"/><path d="M15.49,60.65c6.17-1.41,21.54-4.04,24.93-4.63c4.33-0.76,4.19,2.81,3.95,6.45C43.7,72.81,41.96,84.3,38.75,91c-2.75,5.75-5.32,0.41-6.21-0.86"/><path d="M9.29,74.5c0.28,6.41-0.57,12.04-0.87,13.32"/><path d="M17.5,73c1.08,2.1,2,4.75,2.25,8.5"/><path d="M25.94,69.22c0.56,1.03,2.56,4.42,2.81,7.78"/><path d="M33.25,66.25c1.25,2.01,3.3,4.09,3.75,6.75"/><path d="M47,52.06c2,1.19,3.5,1.44,5.39,0.89C61.89,50.19,87.56,38.22,92,36c2.5-1.25,4.01,1.5,3.76,2.86c-1.01,5.39-6.26,23.39-8.26,27.39c-3.25,6.5-5.25,3.75-6.75,0"/><path d="M72,15.25c1.25,0.5,2,2.25,2.25,3.25s0,47.75-0.25,54"/><path d="M56.24,26.37c0.67,1.17,1.21,2.56,1.25,4.37c0.12,5.49-0.41,44.7-0.41,50.68c0,7.83,4.17,10.33,19.84,10.33c15.58,0,19.47-3.25,19.47-9.16"/></svg>