<svg><path d="M16.24,20.62c-0.02,5.16-0.21,38.63-0.99,41.63"/><path d="M13.98,20.4c0.8-0.02,2.74-0.06,3.79-0.13c7.82-0.52,19.4-2.83,21.76-3.17c0.94-0.14,2.53-0.25,3-0.03"/><path d="M28.31,19.82c0.25,0.38,0.96,0.88,0.95,1.49c-0.02,6.17-0.06,27.96-0.25,37.66"/><path d="M16.66,33.59c6.26-0.58,17.75-2.6,20.44-2.99c0.94-0.14,2.53-0.24,3-0.02"/><path d="M16.76,46.12c6.26-0.59,17.75-2.6,20.44-2.99c0.94-0.14,2.53-0.25,3-0.03"/><path d="M15.49,62.15c6.17-1.41,21.54-4.04,24.93-4.63c4.33-0.76,4.19,2.81,3.95,6.45C43.7,74.31,41.46,85.3,38.25,92c-2.75,5.75-5.32,0.41-6.21-0.86"/><path d="M12.24,75.5c0.33,6.41-0.99,10-2.03,13.32"/><path d="M19,74.5c1.08,2.1,2,4.75,2.25,8.5"/><path d="M25.59,70.47c0.7,1.06,3.2,4.56,3.51,8.03"/><path d="M32.25,65.75c1.25,2.01,3.3,4.09,3.75,6.75"/><path d="M83.97,14.14c0.09,0.75,0.41,2.03-0.18,3C79.75,23.75,68.75,36,51.54,45.83"/><path d="M53.88,22.74c13.27,2.02,30.92,12.25,36.09,19.32"/><path d="M84.53,47.59c0.59,1.18,0.48,3.28-0.07,4.6C76.5,71.25,65,83.5,47.5,95.25"/><path d="M55.52,51.21c0.92,0.42,2.03,1.43,2.33,1.95c7.36,12.87,22.16,29.89,34.16,38.2c2.21,1.53,3.5,1.9,5.24,2.07"/></svg>