<svg><path d="M18.24,19.12c1.01,0.63,1,2.33,0.99,3.38c-0.05,9.32,0.22,37.56-0.48,40.26"/><path d="M19.27,20.26c9.11-0.52,23.76-2.83,26.52-3.17c1.09-0.14,2.94-0.25,3.49-0.03"/><path d="M32.81,19.82c0.25,0.38,0.96,0.88,0.95,1.49c-0.02,6.17-0.06,27.96-0.25,37.66"/><path d="M19.16,35.09c6.26-0.58,19.75-2.1,22.44-2.49c0.94-0.14,2.53-0.24,3-0.02"/><path d="M19.76,47.12c6.26-0.59,20.25-2.6,22.94-2.99c0.94-0.14,2.53-0.25,3-0.03"/><path d="M19.49,62.15C26.75,61,40.01,59,43.42,58.51c3.58-0.51,4.92,0.83,4.45,4.45C46.5,73.5,45,83.75,39.75,93c-3.15,5.54-5.32,0.41-6.21-0.86"/><path d="M13.26,71.55c0.27,6.38-0.55,12-0.84,13.27"/><path d="M19.45,70.95c1.63,2.18,3.52,6.34,3.89,10.23"/><path d="M27.02,68.68c0.91,1.22,4.17,5.23,4.57,9.21"/><path d="M34,65.5c1.96,2.52,5.18,5.12,5.88,8.45"/><path d="M71.96,13.17c0.73,1.64,0.35,3.23-0.44,4.88c-5.11,10.68-9.51,17.99-14.93,25.87c-2.3,3.35-0.64,4.46,2.17,3.71c7.79-2.08,17.23-4.13,31.63-7.7"/><path d="M82.92,30.58C87.27,34,94.16,44.64,95.25,49.96"/><path d="M57.62,63.71c0.42,0.42,0.85,0.76,1.04,1.28c1.46,4.11,3.21,21.46,4.21,28.85"/><path d="M59.09,65.43C71,64,81.62,62.58,88.67,61.76c2.41-0.28,3.83,0.74,3.51,3.11c-0.95,6.97-2.15,14.81-3.77,22.03"/><path d="M63.99,90.24C74.75,89.25,78.25,89,91.3,88.2"/></svg>