<svg><path d="M15.24,18.12c0.76,1.13,0.99,1.85,0.98,3.38c-0.06,10.15,0.2,36.64-0.47,39.25"/><path d="M17.27,18.76c8.73-1.01,22.4-3.33,24.76-3.67c0.94-0.14,2.53-0.25,3-0.03"/><path d="M28.31,18.32c0.25,0.38,0.96,0.88,0.95,1.49c-0.02,6.17-0.06,27.96-0.25,37.66"/><path d="M16.66,33.2c6.26-0.99,20.75-3.7,23.44-4.36c0.94-0.23,2.53-0.41,3-0.04"/><path d="M17.26,45.12c6.26-0.59,21.25-3.1,23.94-3.49c0.94-0.14,2.53-0.25,3-0.03"/><path d="M16.49,60.15c6.17-1.41,21.54-4.54,24.93-5.13c4.33-0.76,4.19,2.81,3.95,6.45C44.7,71.81,40.96,84.8,37.75,91.5c-2.75,5.75-5.32,0.41-6.21-0.86"/><path d="M10.96,73.04c0.26,6.87-0.52,12.91-0.79,14.28"/><path d="M17.53,71.72c1.76,2.6,3.25,5.88,3.66,10.51"/><path d="M25.22,68.63c0.73,1.14,3.36,4.9,3.68,8.63"/><path d="M31.47,65.5c1.71,2.6,4.52,5.28,5.13,8.72"/><path d="M50.5,20.47c0.69,1.38,1.76,3.88,1.89,5.7c0.93,13.21,0.56,40.82,1.88,65.83"/><path d="M51.85,22.67c10.65-1.67,32.3-4.01,39.46-4.42c2.96-0.17,3.49,1.82,3.19,5.76c-1.01,13.39-1.5,44.01-3.05,67.04"/><path d="M65.38,23.49c0.87,1.01,0.85,2.91,0.9,4.58C66.75,43.5,66,63.75,57.67,68.05"/><path d="M77.28,22.47c1.22,1.28,0.88,2.31,0.91,4.65c0.07,5.6,0.05,28.37,0.05,32.64c0,6.25,1.01,7.02,5.51,7.02c1.62,0,6.22-0.46,6.56-1.35"/><path d="M54.83,88.97c9.17-0.72,26-2.1,36.71-2.5"/></svg>