<svg><path d="M15.94,18.71c1.06,0.79,0.99,2.68,0.99,4.04c-0.05,10.12-0.27,37.59-0.9,40.31"/><path d="M18.36,19.85c7.23-0.54,19.36-1.89,21.55-2.25c0.87-0.14,2.34-0.25,2.77-0.03"/><path d="M28.56,19.41c0.23,0.39,0.88,0.9,0.88,1.53c-0.02,6.35-0.06,28.77-0.23,38.76"/><path d="M17.33,34.07c5.79-0.6,18.27-2.14,20.75-2.55c0.87-0.14,2.34-0.25,2.77-0.03"/><path d="M17.42,46.48c5.79-0.6,18.73-2.16,21.21-2.56c0.87-0.14,2.34-0.25,2.77-0.03"/><path d="M16.7,62.44c5.71-1.45,19.85-3.82,23.02-4.27c3.03-0.42,4.87,1.39,4.65,5.14c-0.62,10.65-2.73,23.46-5.7,30.36c-2.54,5.92-4.92,0.42-5.75-0.88"/><path d="M11.65,76.7c0.47,6.35-0.95,11.94-1.45,13.21"/><path d="M18.12,73.9c1.31,2.47,2.43,5.58,2.73,10"/><path d="M25.14,70.51c0.71,1.09,3.26,4.69,3.57,8.25"/><path d="M31.93,66.21c1.37,2.22,3.63,4.51,4.12,7.45"/><path d="M69.15,12c0.91,0.59,2.4,2.88,2.4,4.05c0,4.66-0.03,8.13-0.12,11.48"/><path d="M48.66,28.87c0.93,0.08,3.11,0.74,4.88,0.53c5.71-0.65,30.64-2.09,38.4-2.46c1.89-0.09,2.86,0.05,4.26,0.68"/><path d="M61.43,35.73c0.24,0.79-0.01,2.63-0.58,3.91c-2.26,5.09-6.34,10.61-10.95,15.06"/><path d="M80.66,35.32c6.94,4.29,12.68,9.24,16.15,14.45"/><path d="M83.98,48.73c0.47,1.05,0.65,2.9-0.15,4.78C76.75,70.25,64.5,85.75,47.64,96.5"/><path d="M58.35,50.88c5.15,1.87,13.9,25.87,30.9,40.37c2.95,2.52,6.14,5.45,7.86,5.65"/></svg>