<svg><path d="M15.74,17.06c0.51,0.94,0.99,2.63,0.99,3.94c-0.05,10.27-0.29,38.94-0.97,41.77"/><path d="M17.27,18.19c7.98-0.69,21.4-2.97,23.76-3.34c0.94-0.15,2.53-0.26,3-0.03"/><path d="M29.31,17.75c0.25,0.4,0.96,0.93,0.95,1.58c-0.02,6.55-0.06,29.67-0.25,39.97"/><path d="M17.16,32.36c6.26-0.62,18.75-3.2,21.44-3.61c0.94-0.15,2.53-0.26,3-0.03"/><path d="M17.26,46.19c6.26-0.62,18.75-2.73,21.44-3.14c0.94-0.15,2.53-0.26,3-0.03"/><path d="M16.49,62.13c6.76-1.38,21.04-3.28,24.43-3.92c4.33-0.81,5.85,0.99,5.45,4.85C45.25,73.75,41.75,86,37.75,94.34c-2.89,6.04-6.32,0.43-7.21-0.91"/><path d="M12.64,74.65c0.37,6.29-1.25,11.81-1.64,13.07"/><path d="M18.6,72.07c1.26,2.61,2.33,5.89,2.62,10.54"/><path d="M27.1,70.71c0.62,1.04,2.83,4.49,3.1,7.9"/><path d="M33.08,66.83c1.45,2.6,3.84,5.29,4.36,8.74"/><path d="M68.51,9.74c1.08,0.58,2.85,2.83,2.85,3.98c0,4.26-0.34,8.97-0.14,12.58"/><path d="M48.5,27.83c1.32,0.09,3.25,0.67,5.6,0.51c10.36-0.74,25.28-3.53,40.02-4.26c2.17-0.11,3.27,0.04,4.89,0.65"/><path d="M67.98,29.37c0.48,1.23,0.16,2.57-0.74,3.97c-2.98,4.66-4.73,8.41-9.8,14.44c-0.74,0.88-0.95,2.83,0,3.07c5.06,1.23,11.6,2.27,15.93,4.52"/><path d="M85.02,35.5c0.09,1,0.42,2.95-0.18,4c-7.71,13.61-17.66,25.75-34.09,38.25"/><path d="M89.47,55.5c0.11,1.05,0.46,3.07-0.23,4.22C81,73.5,68.5,89.5,45.5,100.75"/><path d="M78.52,79.83c6.26,3.29,16.17,13.54,17.73,18.67"/></svg>