<svg><path d="M14.89,14.71c0.86,0.54,1,3.29,0.99,4.3c-0.05,9.44-0.26,38.26-0.93,41.05"/><path d="M15.85,16.35c7.44-0.54,21.42-1.89,23.67-2.25c0.89-0.14,2.41-0.25,2.86-0.03"/><path d="M27.86,16.41c0.24,0.39,0.91,0.9,0.91,1.53c-0.02,6.35-0.06,28.77-0.24,38.76"/><path d="M16.29,30.07c5.96-0.6,18.81-1.64,21.36-2.05c0.89-0.14,2.41-0.25,2.86-0.03"/><path d="M16.38,42.98c5.96-0.6,19.28-2.16,21.84-2.56c0.89-0.14,2.41-0.25,2.86-0.03"/><path d="M15.65,59.44c5.88-1.45,20.99-3.65,24.22-4.27c4.12-0.79,3.99,2.39,3.76,6.14c-0.64,10.65-4.3,22.46-7.35,29.36c-2.62,5.92-6.56,0.92-7.42-0.38"/><path d="M10.55,69.2c0.3,6.59-0.61,12.39-0.93,13.71"/><path d="M17.3,68.65c1.29,2.66,2.38,6,2.68,10.75"/><path d="M24.77,66.01c0.66,1.22,3.05,5.26,3.34,9.25"/><path d="M31.85,63.96c1.41,2.29,3.73,4.66,4.24,7.7"/><path d="M55.33,16.49c0.9,0.47,3.58,0.56,4.31,0.44c5.85-0.93,22.87-3.08,24.06-3.32c1.19-0.24,2.53,0.69,2.39,2.36c-0.68,7.93-2.09,16.35-2.54,20.12"/><path d="M46.84,27.65c1.35,0.69,3.82,0.81,5.17,0.69c14.05-1.16,23.62-2.32,39.24-3.81c3.29-0.31,4.23-0.17,6.49,0.15"/><path d="M55.77,38.26c0.8,0.52,2.27,0.6,3.08,0.52c7.57-0.79,15.16-2.03,23.17-2.42c0.79-0.04,2.24-0.17,3.46,0.17"/><path d="M53.65,48.24c-0.14,4.41-2.27,13.56-3.5,16.19"/><path d="M53.9,50.92c9.6-1.32,26.1-3.24,38.16-4.13c10.73-0.8,1.8,6.99,0.8,8.1"/><path d="M58,62.2c1.41,0.24,1.58,0.6,4.39,0.24c2.81-0.36,17.49-3.14,19.42-3.5c1.93-0.36,3.33,1.32,2.64,2.64C76.2,77.15,61.62,90.37,45.82,96.24"/><path d="M54.94,67.04c4.81,0.71,21.62,18.78,34.41,26.2c1.99,1.16,3.44,1.93,5.3,2.31"/></svg>