<svg><path d="M15.24,18.12c0.76,0.88,0.99,3.09,0.99,4.37c-0.06,9.61-0.29,35.62-0.97,38.27"/><path d="M16.77,19.76c8.48-1.51,19.23-3.26,23.76-3.67c0.94-0.09,2.53-0.25,3-0.03"/><path d="M28.81,18.32c0.25,0.38,0.96,0.88,0.95,1.49c-0.02,6.17-0.06,27.96-0.25,37.66"/><path d="M16.66,32.59c6.26-0.58,16.75-2.6,19.44-2.99c0.94-0.14,2.53-0.24,3-0.02"/><path d="M16.76,44.62c6.26-0.59,18.25-2.1,20.94-2.49c0.94-0.14,2.53-0.25,3-0.03"/><path d="M15.49,59.65c6.26-0.9,21.04-2.54,24.43-3.13c4.33-0.76,4.19,2.81,3.95,6.45C43.2,73.31,41.46,84.3,38.25,91c-2.75,5.75-5.32,0.41-6.21-0.86"/><path d="M13.04,72.75c0.37,6.53-1.25,12.27-1.64,13.57"/><path d="M18.77,70.45c1.4,2.55,3.08,5.76,3.4,10.3"/><path d="M25.9,68.48c0.72,1.14,3.3,4.91,3.62,8.64"/><path d="M32.88,66.75c1.34,1.84,3.55,3.75,4.03,6.2"/><path d="M51.1,42c-0.01,5.29-1.51,9.07-3.29,13.38"/><path d="M55.91,18.93c1.59,1.32,1.62,3.13,1.62,5.34c0,21.73,1.98,55.23-13.97,68.72"/><path d="M63.52,43.42c1.63,2.08,4.22,8.56,4.63,11.8"/><path d="M72.2,19.63c0.45,0.38,1.41,2.86,1.5,3.62c0.09,0.76-0.06,62.11-0.15,66.88"/><path d="M79.76,43.17c1.9,1.95,4.9,8.02,5.38,11.05"/><path d="M88.94,13.13c0.68,0.4,2.12,3.01,2.26,3.81c0.14,0.8-0.09,74.66-0.22,79.69"/></svg>