<svg><path d="M15.24,18.12c0.51,0.38,0.99,2.96,0.99,4.13c-0.05,9.7-0.29,37.82-0.98,40.5"/><path d="M17.77,19.76c8.73-1.26,20.4-2.83,22.76-3.17c0.94-0.14,2.53-0.25,3-0.03"/><path d="M28.81,19.32c0.25,0.38,0.96,0.88,0.95,1.49c-0.02,6.17-0.06,28.96-0.25,38.66"/><path d="M16.66,35.09c6.26-0.58,19.75-2.6,22.44-2.99c0.94-0.14,2.53-0.24,3-0.02"/><path d="M16.76,47.62c6.26-0.59,19.75-2.6,22.44-2.99c0.94-0.14,2.53-0.25,3-0.03"/><path d="M15.49,62.15c6.17-1.41,20.54-3.04,23.93-3.63c4.33-0.76,4.19,2.81,3.95,6.45C42.7,75.31,39.96,85.8,36.75,92.5c-2.75,5.75-5.32,0.41-6.21-0.86"/><path d="M11.79,71.74c0.31,5.93-0.64,11.15-0.98,12.33"/><path d="M17.54,71.36c1.45,2.33,2.69,5.27,3.02,9.43"/><path d="M24.07,70c0.81,1.17,3.72,5.05,4.09,8.89"/><path d="M30.8,67c1.68,2.19,4.43,4.45,5.03,7.36"/><path d="M50.13,29.47c1.87,0.28,3.92,0.38,4.98,0.27c9.71-0.97,23.44-2.62,35.36-3.44c1.76-0.12,2.82,0.23,3.7,0.48"/><path d="M59.32,15.78c0.85,0.48,1.36,2.15,1.53,3.11c0.17,0.96,0,48.77-0.17,54.74"/><path d="M81.47,12c0.85,0.48,1.36,2.15,1.54,3.11c0.17,0.96,0,50.64-0.17,56.61"/><path d="M61.18,42.37c3.13-0.24,17.44-1.39,20.37-1.63"/><path d="M60.99,56.77c3.53-0.24,17.76-1.15,21.88-1.63"/><path d="M49.23,74.47c1.9,0.08,3.78,0.1,5.14,0c7.7-0.55,26.38-2.23,40.46-2.45c2.23-0.03,3.57,0.3,4.69,0.62"/><path d="M63.73,79.21c0.04,0.34,0.09,0.88-0.08,1.38c-1.02,2.9-7.64,10.16-16.39,15.66"/><path d="M78.75,79.75c4.92,3.13,12.71,12.86,13.94,17.73"/></svg>