<svg><path d="M16.49,17.62c0.76,0.76,1.25,1.82,1.24,3.38c-0.02,7.37-0.07,24.26-0.17,34.5c-0.02,2.35,0.07,3.75-0.56,5.75"/><path d="M18.02,19.51c7.48-1.26,17.66-2.93,22.01-3.17c1.59-0.09,2.96-0.21,4-0.03"/><path d="M28.81,20.57c1,1,1.45,2.18,1.45,3.49c0,6.17-0.06,24.21-0.25,33.91"/><path d="M18.16,33.34c6.26-0.58,16.75-2.85,19.44-3.24c0.94-0.14,2.53-0.24,3-0.02"/><path d="M18.26,45.62c6.26-0.59,15.75-2.35,18.44-2.74c0.94-0.14,2.53-0.25,3-0.03"/><path d="M17.74,60.65c6.17-1.41,18.79-4.07,22.18-4.63c3.08-0.51,4.58,1.49,4.2,6.45C43.33,72.8,41.55,84.12,38.75,91c-2.43,5.96-5,2.12-6.71-0.86"/><path d="M10.54,74.75c0.37,6.29-0.75,11.82-1.14,13.07"/><path d="M16.62,71.25c1.38,2.54,2.5,6.88,2.88,10.25"/><path d="M23.8,68.47c1.45,2.28,2.82,5.53,3.33,8.03"/><path d="M30.5,64.5c1.75,1.75,4.36,4.24,4.96,7"/><path d="M66.48,11.5c0.06,0.71,0.27,1.89-0.11,2.87c-2.69,6.92-9.61,18.97-20.22,27.5"/><path d="M66.9,14.12c2.71,4.05,15.43,16.09,20.95,21.39c1.79,1.73,3.39,3.23,5.77,3.86"/><path d="M56.48,40.4c1.52,0.23,2.76,0.31,3.79,0.12c5.48-1.01,10.48-1.76,15.14-2.2c1.18-0.11,3.34-0.18,4.63,0.01"/><path d="M50.39,52.87c0.78,0.6,1.24,1.38,1.37,2.35c0.95,3.27,1.88,9.24,2.62,14.27c0.18,1.23,0.36,2.41,0.52,3.48"/><path d="M52.77,54.03c10.35-1.28,26.78-2.78,31.61-3.26c1.77-0.17,2.83,1.76,2.57,2.79c-1.05,4.26-1.71,5.44-3.48,13.57"/><path d="M55.28,69.97c4.64-0.44,17.59-1.68,26.08-2.41c1.89-0.16,3.56-0.3,4.87-0.4"/><path d="M66.72,42.5c0.9,1.25,1.35,2.83,1.37,4.63c0.41,26.49-4.84,39.12-23.95,49.62"/><path d="M68.15,69.87c2.67,4.03,15.45,15.9,21.14,21.32c1.88,1.79,3.43,3.34,5.96,4.06"/></svg>