<svg><path d="M16.24,19.34c0.84,0.84,1,2.44,0.99,3.66c-0.02,7.64-0.07,23.47-0.17,33.63c-0.02,2.32-0.18,3.88-0.56,5.69"/><path d="M17.98,20.37c4.14-0.62,15.17-1.86,21.54-2.65c1.72-0.21,3.85-0.35,5.51,0.09"/><path d="M29.31,20.79c0.76,0.76,1.2,1.96,1.2,3.22c0,6.11,0,24.86,0,35.06"/><path d="M18.41,33.43c5.36-0.5,14.87-1.67,19.24-2.24c1.21-0.16,3.23-0.56,4.7-0.25"/><path d="M18.51,46.59c5.19-0.48,15.2-1.94,19.98-2.65c1.4-0.21,3.51-0.57,5.2-0.35"/><path d="M17.74,61.72c6.38-1.09,14.89-2.85,21.79-3.6c5.92-0.64,5.63,2.91,5.24,7.65c-0.8,9.82-2.68,19.9-5.01,26.52c-1.75,4.96-5.32,0.4-6.21-0.85"/><path d="M13.9,75.77c0.39,5.59-0.8,10.51-1.21,11.62"/><path d="M20.46,73.52c1.19,2.29,2.2,5.16,2.48,9.23"/><path d="M27.5,72.38c0.61,0.94,2.81,4.04,3.08,7.11"/><path d="M34.1,69.77c1.15,1.23,2.77,3.6,3.15,5.94"/><path d="M54.94,20.02c2.06,0.45,4.09,0.39,6.2,0.02c4.59-0.81,13.56-2.81,17.23-3.57c2.73-0.57,4.57,0.64,2.82,3.64C72.5,34.97,61.73,44.94,50.15,52.82"/><path d="M55.73,27.19c3.35,0.51,17.77,11.44,30.82,19.71c2.69,1.7,5.08,2.85,8.56,3.98"/><path d="M54.37,60.29c0.73,0.73,1.13,1.59,1.32,2.42c0.63,2.77,1.12,5.55,1.82,10.25c0.21,1.44,0.44,2.96,0.68,4.58"/><path d="M56.08,60.85c10.72-1.15,23.74-2.79,30.17-3.21c3.42-0.23,4.98,0.67,3.87,4.19c-0.92,2.94-1.21,4.29-2.63,9.83"/><path d="M59.23,75.31c5.41-0.6,16.25-1.82,25.04-2.6c1.88-0.17,3.66-0.32,5.27-0.44"/><path d="M70.42,48.75c0.98,0.98,1.28,2.4,1.28,3.41c0,6.09,0,26.34,0,37.07"/><path d="M52.94,93.54c0.69,0.96,1.33,1.42,3,0.97c10.31-2.76,13.31-3.89,31.6-8.88"/><path d="M83.54,79.18c3.68,2.87,9.51,11.78,10.43,16.24"/></svg>