<svg><path d="M16.74,19.12c-0.02,5.16-0.21,39.63-0.99,42.63"/><path d="M14.48,18.9c0.8-0.02,2.74-0.06,3.79-0.13c7.82-0.52,20.4-2.33,22.76-2.67c0.94-0.14,2.53-0.25,3-0.03"/><path d="M29.31,18.82c0.25,0.38,0.96,0.88,0.95,1.49c-0.02,6.17-0.06,28.46-0.25,38.16"/><path d="M17.16,32.59c6.26-0.58,19.75-1.6,22.44-1.99c0.94-0.14,2.53-0.24,3-0.02"/><path d="M17.26,45.62c6.26-0.59,20.25-2.1,22.94-2.49c0.94-0.14,2.53-0.25,3-0.03"/><path d="M16.49,61.15c6.17-1.41,20.04-3.54,23.43-4.13c4.33-0.76,4.69,2.31,4.45,5.95C43.7,73.31,41.46,84.8,38.25,91.5c-2.75,5.75-5.32,0.41-6.21-0.86"/><path d="M11.74,73.5c0.01,5-0.74,9.75-2.53,12.82"/><path d="M17.11,72.25c1.22,2.78,2.75,5.79,3.03,10.75"/><path d="M24.59,70.72c0.7,1.03,3.2,4.42,3.51,7.78"/><path d="M32.25,67.25c1.25,2.01,3.3,4.09,3.75,6.75"/><path d="M50.05,15.53c3.3,3.42,6.83,9.4,7.3,11.11"/><path d="M64.02,12.89c2.03,2.29,6.91,8.29,7.72,12"/><path d="M89.17,11.41c0.59,0.86,1.17,1.89,0.39,3.45c-1.81,3.63-6.33,9.79-8.41,12.38"/><path d="M50.7,32.98c0.29,0.46,0.29,0.78,0.45,1.36c1.29,4.77,3.56,16.78,4.38,25.64"/><path d="M52.04,34.32c10.76-1.6,29.48-3.22,36.89-4.04c2.73-0.3,4.37,0.65,4.29,2.66c-0.19,4.78-4.17,21.02-4.65,23.01"/><path d="M54.71,45.5c3.23-0.38,33.77-3.17,36.44-3.29"/><path d="M56.02,57.79c9.37-1.52,22.36-2.34,32.61-3.28"/><path d="M49.42,70.74c1.27,0.35,3.61,0.49,4.87,0.35c9.88-1.1,26.79-2.5,40.35-3.42c2.1-0.14,3.39,0.17,4.45,0.34"/><path d="M71.52,34.06c0.52,0.35,0.84,1.32,0.85,2.5c0.03,6,0.15,59.84,0.17,61.79"/></svg>