<svg><path d="M15.24,19.62c0.76,0.38,0.99,1.72,0.98,3.14c-0.06,10.06-0.29,37.86-0.97,40.49"/><path d="M16.77,20.76c7.82-0.52,21.4-3.33,23.76-3.67c0.94-0.14,2.53-0.25,3-0.03"/><path d="M28.81,20.32c0.25,0.38,0.96,0.88,0.95,1.49c-0.02,6.17-0.06,28.46-0.25,38.16"/><path d="M16.66,34.59c6.26-0.58,18.75-2.6,21.44-2.99c0.94-0.14,2.53-0.24,3-0.02"/><path d="M16.26,48.12c6.26-0.59,20.25-3.1,22.94-3.49c0.94-0.14,2.53-0.25,3-0.03"/><path d="M15.99,63.15c6.17-1.41,23.04-4.04,26.43-4.63c4.33-0.76,4.19,2.81,3.95,6.45C45.7,75.31,43.46,85.3,40.25,92c-2.75,5.75-5.32,0.41-6.21-0.86"/><path d="M13.12,73.93c0.43,7.16-2.37,13.47-2.83,14.9"/><path d="M18.61,71.28c1.57,2.88,2.89,6.51,3.25,11.66"/><path d="M26.72,70.26c0.75,1.32,3.43,5.68,3.76,9.99"/><path d="M33.91,67.5c1.42,2.54,3.76,5.16,4.27,8.53"/><path d="M50.88,20.29c1.18,0.48,3.34,0.56,4.52,0.48c12.27-0.81,23.35-3.3,36.58-3.73c1.96-0.06,3.14,0.23,4.12,0.47"/><path d="M65.42,30.63c0.27,0.32,0.56,0.58,0.68,0.98c0.95,3.14,2.59,11.8,3.25,17.43"/><path d="M66.66,32.67c6.56-1.2,18.09-2.61,21.84-3.09c1.37-0.18,2.2,1.04,2,2.08c-0.81,4.28-1.38,6.63-2.59,12.54"/><path d="M69.31,47.04c4.41-0.54,14.3-1.48,20.36-2.32"/><path d="M60.5,60.87c0.31,0.34,0.63,0.61,0.76,1.03c1.08,3.32,2.22,13.67,2.96,19.63"/><path d="M62.06,62.12c3.96-0.88,8.33-1.79,11.97-2.23c1.33-0.16,2.13,0.95,1.94,1.88c-0.79,3.88-1.84,11.68-3.01,17.04"/><path d="M64.15,79.54c4.28-0.49,9.88-1.27,11.52-1.18"/><path d="M81.95,59.28c0.27,0.37,0.55,0.68,0.67,1.14c0.94,3.66,2.19,13.29,2.83,19.87"/><path d="M82.99,60.32c4.76-1.07,8.92-1.61,12.09-2.09c1.16-0.18,1.85,1.04,1.69,2.07c-0.69,4.28-1.49,9.41-2.51,15.33"/><path d="M85.62,78.48c3.72-0.54,5.68-0.54,10.79-1.38"/><path d="M54.21,21.19c0,3.57-0.38,65.93-0.38,69.27c0,2.83,0.77,3.68,2.13,3.57c7.76-0.67,36.18-1.93,38.7-1.93c2.52,0,3.37,0.33,5.33,1.18"/></svg>