<svg><path d="M14.24,17.12c1.01,0.88,1,2.91,0.99,3.88c-0.02,7.23-0.07,23.51-0.17,34c-0.02,2.35-0.03,3.25-0.81,6.25"/><path d="M16.77,18.26c7.82-0.52,20.4-2.33,22.76-2.67c0.94-0.14,2.53-0.25,3-0.03"/><path d="M27.81,18.32c0.25,0.38,0.96,0.88,0.95,1.49c-0.02,6.17-0.06,28.46-0.25,38.16"/><path d="M15.66,33.09c6.26-0.58,19.75-3.1,22.44-3.49c0.94-0.14,2.53-0.24,3-0.02"/><path d="M15.76,45.12c6.26-0.59,19.75-1.6,22.44-1.99c0.94-0.14,2.53-0.25,3-0.03"/><path d="M14.99,60.65c6.17-1.41,20.04-4.04,23.43-4.63c4.33-0.76,4.19,2.81,3.95,6.45C41.7,72.81,39.81,84.23,36.75,91c-3.5,7.75-5.32,0.41-6.21-0.86"/><path d="M9.79,71.5c0.28,6.41-0.57,12.04-0.87,13.32"/><path d="M17,71.5c1.08,2.1,2,4.75,2.25,8.5"/><path d="M23.94,69.22c0.56,1.03,2.56,4.42,2.81,7.78"/><path d="M30.75,66.25c1.25,2.01,3.3,4.09,3.75,6.75"/><path d="M82.58,11.48c0.08,0.21,0.16,0.54-0.16,0.86c-2.72,2.7-13.77,5.88-28.98,8.21"/><path d="M48.3,29.5c0.83,0.2,2.97,0.3,3.89,0.27c6.06-0.22,27.81-3.81,36.41-4c1.16-0.03,2.8,0.08,5.38,0.41"/><path d="M67.6,20.19c0.3,0.43,0.79,1.07,0.44,1.85C62.13,34.96,56.01,42.75,48,49.55"/><path d="M74.72,28.02c4.77,4.09,15.1,13.74,19.86,16.48c1.62,0.93,2.18,1.07,2.92,1.16"/><path d="M58.84,40.66c0.29,0.18,0.66,0.3,0.72,0.58c0.64,3.15,1.66,9.28,2.39,12.96"/><path d="M60.67,42.3c6.07-1.23,15.55-3.07,18.98-3.71c1.25-0.24,2.71,1.16,2.53,1.78c-0.74,2.56-1.17,5.57-2.03,9.92"/><path d="M61.76,52.08c7.49-0.58,14.71-1.46,19.64-1.62"/><path d="M50,60.25c0.5,0.57,1.78,2.39,1.61,3.41c-0.17,1.02,2.82,29.89,2.82,31.59"/><path d="M51.25,62.25c6.38-0.45,37.8-4.22,39.02-4.23c3.98-0.02,4.27,1.3,4.37,5.34c0.11,4.39-1.39,19.14-3.69,28.71c-0.78,3.23-1.6,5.02-6.79-0.23"/><path d="M63.17,70.65c0.29,0.18,0.65,0.29,0.71,0.58c0.62,3.1,1.62,9.14,2.34,12.76"/><path d="M64.96,71.39c5.94-1.22,11.42-2.08,14.77-2.78c2.09-0.44,2.7,0.78,2.47,2.64c-0.38,3.07-0.95,5.77-1.98,9.39"/><path d="M66.03,82.22c3.95-0.73,9.22-1.47,15.42-1.92"/></svg>