<svg><path d="M18.97,18.82c1.66,0.31,3.05,0.19,4.4,0.02c6.62-0.86,20.11-2.89,27.26-3.45c1.62-0.13,3.34-0.33,4.92,0.17"/><path d="M29.27,11.35c0.75,0.77,0.99,1,1.07,1.48c0.75,4.43,1.64,8.94,1.85,10.56"/><path d="M44.64,8.8c0.09,0.59,0.21,1.02,0.11,1.75c-0.61,4.24-1.55,7.49-2.21,11.48"/><path d="M27.32,24.84c0.1,0.91-0.07,1.76-0.49,2.57c-1.31,2.92-4.63,7.31-10.21,12.34"/><path d="M28.69,29.23c1.69,0.27,3.39,0.09,4.62-0.14c3.87-0.73,11.13-2.1,14.22-2.72c3.46-0.69,5.15,0.71,4.59,4.26c-0.65,4.16-1.9,9.74-4.05,14.1c-1.45,2.93-3.01,3.82-5.23,0.82"/><path d="M24.28,36.2c0.55,0.55,0.9,1.3,1.08,2.03c0.37,1.46,0.81,3.47,1.25,5.39c0.17,0.72,0.3,1.39,0.37,1.96"/><path d="M25.79,37c3.21-0.69,7.76-1.69,10.59-2.19c2.04-0.36,3.41-0.42,2.69,2.12c-0.47,1.66-0.91,2.89-1.48,5.17"/><path d="M27.83,44.78c2.54-0.66,5.66-1.14,8.63-1.73c0.82-0.16,1.62-0.3,2.38-0.38"/><path d="M67.15,10.33c0.06,1,0.02,1.79-0.3,2.74c-1.52,4.53-4.61,12.5-9.22,18.18"/><path d="M66.74,21.27c1.51-0.02,2.94-0.07,3.51-0.16c4.01-0.66,8.38-1.61,13.78-3.06c1.18-0.32,3.05-0.61,4.28-0.2"/><path d="M80.06,22.56c0.32,0.94-0.05,1.86-0.56,2.95c-4,8.49-11.37,16.62-22.68,22.06"/><path d="M62.49,28.04c4.57,1.87,13.14,9.34,22.38,15.36c2.86,1.86,5.14,3.23,7.84,4.12"/><path d="M35.84,52.43c0.74,0.74,1,1.69,1,2.58c0,2.42-0.05,13.52-0.08,20.61c-0.01,2.55-0.02,4.58-0.02,5.5"/><path d="M37.87,54.3c7.41-0.83,21.21-2.76,27.4-3.68c2.05-0.31,4.44-0.94,6.51-0.64"/><path d="M54.14,53.7c0.83,0.83,1.14,1.93,1.14,2.9c0,6.78,0.07,14.88,0.07,21.1"/><path d="M37.57,62.78c7.67-0.86,20.85-2.67,26.3-3.42c1.82-0.25,3.97-0.8,5.82-0.53"/><path d="M37.85,71.06c7.67-0.86,21.23-2.47,26.78-3.18c1.84-0.23,3.99-0.79,5.84-0.52"/><path d="M36.95,80.18c10.93-1.65,37.42-4.36,43.51-4.79c4.08-0.29,4.97,1.49,4.43,5.11c-0.79,5.31-1.63,8.12-3.68,14.57c-2.2,6.93-5.08,5.18-8.1,1.69"/><path d="M26.78,86.47c-0.53,4.53-2.3,9.4-4.06,12.08"/><path d="M36.5,86.62c1.92,1.91,3.78,7.29,4.28,10.34"/><path d="M50.5,85.5c1.74,1.54,4.53,6.41,4.98,8.87"/><path d="M63.25,83.5c1.98,1.27,5.13,5.29,5.64,7.32"/></svg>