<svg><path d="M13.74,16.38c1.01,1.12,1,3.4,0.99,4.86c-0.05,10.36-0.29,39.9-0.98,42.8"/><path d="M15.27,18c7.82-0.57,21.4-2.52,23.76-2.9c0.94-0.15,2.53-0.27,3-0.03"/><path d="M27.31,18.06c0.25,0.41,0.96,0.95,0.95,1.61c-0.02,6.69-0.06,30.3-0.25,40.82"/><path d="M15.16,32.48c6.26-0.63,18.25-2.73,20.94-3.16c0.94-0.15,2.53-0.26,3-0.03"/><path d="M14.76,45.61c6.26-0.64,18.75-2.77,21.44-3.2c0.94-0.15,2.53-0.27,3-0.03"/><path d="M14.49,63.39c6.17-1.53,22.03-3.92,25.43-4.52c2.08-0.37,4.19,0.54,3.95,4.49C43.2,74.57,40,87.75,35.75,95.28c-3.35,5.93-5.32,0.44-6.21-0.93"/><path d="M12.49,75.65c0.42,5.86-1.36,10.52-1.81,11.69"/><path d="M19,73.28c1.08,2.28,2,5.15,2.25,9.21"/><path d="M25.94,70.68c0.56,1.11,2.56,4.79,2.81,8.43"/><path d="M32.75,66.96c1.25,2.18,3.3,4.43,3.75,7.32"/><path d="M46.13,19.62c1.35,0.55,2.91,0.66,4.26,0.55c12.37-1.01,28.63-3.86,42.9-3.93c2.24-0.01,3.59,0.26,4.71,0.54"/><path d="M60.11,11.48c0.93,0.96,1.23,1.25,1.33,1.85c0.93,5.54,0.73,11.25,1,13.26"/><path d="M81.26,10.28c0.16,0.81,0.38,1.41,0.2,2.41c-1.08,5.85-1.07,7.28-2.24,12.78"/><path d="M48.67,31.43c0.27,0.24,0.54,0.44,0.66,0.74c0.93,2.37,2.04,8.92,2.68,13.18"/><path d="M50.34,33.03c5.49-1.24,12.17-2.1,15.31-2.41c1.15-0.11,1.84,0.68,1.68,1.34c-0.68,2.77-1.48,5.61-2.49,9.45"/><path d="M52.14,43.26c3.69-0.35,9.86-1.47,14.93-2.01"/><path d="M72.75,28.22c0.26,0.26,0.53,0.48,0.65,0.8c0.91,2.57,2.01,8.6,2.63,13.22"/><path d="M74.39,29.96c5.39-1.34,13.96-2.29,17.04-2.63c1.13-0.12,1.81,0.73,1.65,1.46c-0.67,3-1.45,5.04-2.44,9.19"/><path d="M76.16,39.98c3.63-0.38,11.13-1.04,16.11-1.63"/><path d="M60.77,47.3c0.13,1.12-0.04,2.6-0.44,3.56C57.73,57,54.44,62.2,48.5,69.67"/><path d="M55.6,59.64c0.59,0.64,1.05,2.04,1.09,3.03C57.04,71.5,56.2,95.41,56.5,100"/><path d="M78.28,46.34c0.04,0.51-0.01,1.17-0.16,1.61c-0.94,2.77-2.14,4.91-4.3,8.28"/><path d="M56.52,59.83C63.4,59,92.1,56.58,95.06,56.13"/><path d="M73.79,58.68c0.33,0.32,0.6,0.77,0.6,1.33c0,5.73,0.04,26.21-0.16,35.23"/><path d="M57.44,70.76c6.5-0.69,31.51-3.26,34.3-3.63"/><path d="M57.22,83.38c6.86-0.58,32.5-2.83,35.44-3.14"/><path d="M56.65,97.16c6.89-0.83,38.38-2.55,41.34-3.01"/></svg>