<svg><path d="M34.77,12.12c0.81,0.81,1.43,1.88,1.43,3.15c0,2.62-0.06,19.72-0.06,24.05"/><path d="M36.97,13.97c3.71-0.42,24.17-2.89,30.16-3.35c3.24-0.25,4.6,0.68,4.58,3.5c-0.04,4.33-0.21,13.5-0.21,21.27"/><path d="M52.27,24.37c0.74,0.74,0.93,2,0.93,3.15c0,4.72-0.06,7.6-0.06,10.3"/><path d="M53.97,24.97c3.9-0.72,14.39-1.96,16.78-2.22"/><path d="M18.25,39c0,3.67-2.06,13.3-3,15.75"/><path d="M18.74,42.74c23.38-3.11,46.51-5.36,65.7-6.15C96.5,36.09,87,44,84,46.11"/><path d="M39.2,48.52c0.76,0.76,1.1,1.98,1.1,3.44c0,0.54-0.02,26.73-0.03,40.79c0,1.81,0,3.42-0.01,4.75"/><path d="M41.15,49.75c4.48-0.63,17.85-2.38,23.21-2.98c2.04-0.23,3.66,0.97,3.66,3.48c0,2.75-0.15,26.68-0.15,41.5c0,9.51-4.39,3.29-6.22,1.65"/><path d="M41.4,62.84c7.5-1.1,18.1-2.09,25.59-2.54"/><path d="M41.45,76.29c5.85-0.55,18.66-1.69,25.43-2.06"/></svg>