<svg><path d="M17.62,17.2c0.25,0.48,1.46,2.54,1.49,3.17c0.14,2.88,1.59,18.34,1.59,18.66"/><path d="M19.31,18.63C20.72,18.6,34,16.5,40.59,15.06c1.41-0.31,2.91,1.19,2.68,2.39c-0.66,3.41-2.25,11.52-2.91,19.72"/><path d="M28.57,25.62c0.25,0.48,0.96,1.54,0.99,2.17c0.15,2.81,0.32,10.48,0.31,10.79"/><path d="M29.98,26.41c1.41-0.03,9.95-1.47,11.23-1.64"/><path d="M13.4,38.62c-0.02,3.14-1.52,11.31-2.04,13.38"/><path d="M13.69,41.26c5.8-1.18,28.14-4.59,31.94-4.79c5.94-0.32,0.23,4.8-1.25,6.74"/><path d="M20.31,50.12c0.37,0.7,0.62,1.4,0.74,2.1c0.12,0.7,0.18,43.01,0.12,44.58"/><path d="M21.79,51.32c1.49-0.17,15.14-2.65,16.25-2.85c1.98-0.35,2.73,2.27,2.48,3.32c-0.24,1.01-0.37,26.87-0.37,41.04c0,9.09-3.98,3.15-5.22,1.57"/><path d="M21.79,63.81c5.08-1.05,13.73-2.14,18.2-2.67"/><path d="M21.49,75.67c3.97-0.53,13.67-1.62,18.26-1.97"/><path d="M59.42,18.35c0.58,0.65,0.98,1.73,0.95,2.7c-0.21,10.04,0.88,20.45-7.09,26.81"/><path d="M60.35,19.28C66,18,75.1,15.75,76.75,15.39c1.75-0.39,3.57,0.77,3.33,2.62c-0.48,3.62-1.71,12.75-1.71,16.37c0,8.12,1.19,8.64,9.03,8.64c7.6,0,8.03-3.01,8.03-7.86"/><path d="M53.75,56.69c1.53,0.37,1.72,0.92,4.79,0.37c3.06-0.55,21.07-3.52,23.17-4.07c2.1-0.55,3.8,2.14,2.87,4.06C77.25,72.25,61.75,87.75,47,94.17"/><path d="M54.48,62.4c3.64,0.75,21.4,20.77,34.06,28.97c1.97,1.28,3.41,2.13,5.24,2.56"/></svg>