<svg><path d="M18.12,16.2c0.25,0.48,0.96,2.54,0.99,3.17c0.14,2.88,1.09,18.84,1.09,19.16"/><path d="M19.31,17.63c1.42-0.03,14.19-1.13,20.79-2.57c1.41-0.31,2.91,1.19,2.68,2.39c-0.66,3.41-2.25,11.02-2.91,19.22"/><path d="M29.07,24.62c0.25,0.48,0.46,1.54,0.49,2.17c0.15,2.81,0.82,10.98,0.81,11.29"/><path d="M29.98,26.41c1.41-0.03,9.45-1.47,10.73-1.64"/><path d="M12.04,37.62c-0.02,3.02-1.35,10.89-1.81,12.88"/><path d="M12.19,40.76c5.8-1.18,29.64-3.59,33.44-3.79c5.94-0.32,0.23,5.3-1.25,7.24"/><path d="M20.31,48.12c0.37,0.7,0.62,1.9,0.74,2.6c0.12,0.7,0.18,44.01,0.12,45.58"/><path d="M21.79,49.32c1.49-0.17,14.14-1.65,15.25-1.85c1.98-0.35,2.73,2.27,2.48,3.32c-0.24,1.01-0.37,24.37-0.37,38.54c0,9.09-4.98,2.65-6.22,1.07"/><path d="M21.79,60.81c5.08-1.05,12.73-1.14,17.2-1.67"/><path d="M21.49,73.17c3.97-0.53,12.67-1.12,17.26-1.47"/><path d="M55.25,22.54c0.34,0.26,0.99,1.41,1.11,2.4c0.77,6.49,2.45,13.67,3.12,17.94"/><path d="M56.52,23.82c9.28-1.02,22.7-2.69,30.03-3.57c2.34-0.28,3.68,1.46,3.38,3.42c-1.19,7.76-2.18,12.83-3.72,17.62"/><path d="M48.9,31.81c1.03,0.52,2.93,0.64,3.96,0.52c7.94-0.95,30.17-3.8,41-3.07c1.72,0.12,2.75,0.25,3.61,0.51"/><path d="M59.82,41.48c2.38-0.24,23.14-2.15,26.2-2.39"/><path d="M55.11,48.66c0.27,0.44,0.75,1.03,0.87,2c0.47,3.59,1.67,7.62,2.17,10.93"/><path d="M56.21,49.71c10.29-0.46,23.55-1.34,30.51-2.1c2.22-0.24,3.5,1.27,3.21,2.97c-0.34,1.99-2.02,5.82-2.56,8.21"/><path d="M58.5,59.68c2.38-0.24,28.18-0.66,31.25-0.89"/><path d="M70.99,13.75c0.74,0.48,1.18,2.15,1.33,3.11c0.15,0.96,0,36.13-0.15,42.12"/><path d="M68.58,61.99c0.3,0.86,0.39,2.05-0.15,3C64.75,71.5,62.25,76,57.47,80.92c-1.07,1.1-0.17,1.57,0.45,1.57c11.83,0.01,25.83,7.01,31.48,13.78"/><path d="M81.94,68.06c0.09,0.7,0.16,2.39-0.19,3.4c-2.83,8.16-9.19,20.46-31.23,25.79"/><path d="M47.63,71.5c1.75,0.48,3.62,0.76,4.47,0.73c13.19-0.46,24.51-2.56,41.45-2.77c1.4-0.02,3.82,0.29,4.96,0.84"/></svg>