<svg><path d="M18.12,17.2c0.25,0.48,0.96,2.54,0.99,3.17c0.14,2.88,1.09,19.34,1.09,19.66"/><path d="M19.31,18.63C20.72,18.6,33.5,17,40.09,15.56c1.41-0.31,2.91,1.19,2.68,2.39c-0.66,3.41-1.75,10.02-2.41,18.22"/><path d="M28.07,25.62c0.68,0.88,0.96,2.04,0.99,2.67c0.15,2.81,0.82,9.48,0.81,9.79"/><path d="M29.48,26.91c1.41-0.03,9.45-1.47,10.73-1.64"/><path d="M13.58,38.62c-0.02,3.14-1.6,11.31-2.15,13.38"/><path d="M13.69,41.26c5.8-1.18,28.14-4.59,31.94-4.79c5.94-0.32,0.23,5.3-1.25,7.24"/><path d="M20.31,49.12c0.37,0.7,0.62,1.4,0.74,2.1c0.12,0.7,0.18,44.01,0.12,45.58"/><path d="M21.79,51.32c1.49-0.17,15.14-3.15,16.25-3.35c1.98-0.35,2.73,2.27,2.48,3.32c-0.24,1.01,0.13,25.87,0.13,40.04c0,9.09-4.48,3.15-5.72,1.57"/><path d="M21.79,63.31c5.71-0.56,13.73-1.64,18.2-2.17"/><path d="M21.49,76.17c3.97-0.53,13.67-1.62,18.26-1.97"/><path d="M70.28,11.14c0.02,0.31,0.04,0.81-0.04,1.26c-0.48,2.66-3.2,8.49-6.94,12.06"/><path d="M54.49,25.71c0.29,0.44,0.3,0.75,0.46,1.31c1.31,4.62,2.55,16.58,3.36,25.19"/><path d="M55.85,26.84c10.16-1.16,24.89-3.08,32.48-4.05c2.79-0.36,3.87,1.62,3.67,4.07c-0.38,4.67-1.72,15.37-2.99,23.15"/><path d="M57.75,38.27c3.31-0.45,28.9-3.28,31.64-3.47"/><path d="M58.83,50.14c7.32-0.5,20.57-2.05,30.68-2.86"/><path d="M73.47,28.43c0.51,0.96,0.48,2.4,0.34,3.7c-1.35,12.96-7.57,27.63-16.81,35.38"/><path d="M48.25,71.81c0.65,0.25,2.4,0.93,4.14,0.75c11.72-1.24,31.25-3.82,42.38-4.06c1.74-0.04,3.15,0.07,4.24,0.32"/><path d="M76.87,52.75c1.09,0.5,1.74,2.25,1.96,3.25c0.22,1,0,37.75-0.22,44"/></svg>