<svg><path d="M52.47,11.75c1.08,1.08,1.48,2.25,1.48,4.22c0,1.53-0.12,4.28-0.12,5.45"/><path d="M22.9,25.7c2.68,0.3,4.96,0.26,7.47-0.04c14.76-1.78,35.83-4.16,49.3-5.17c2.89-0.22,4.99-0.12,6.81,0.33"/><path d="M36.25,34.75c1,0.63,1.5,1.5,1.78,2.89c0.72,3.59,1.36,7.37,2.05,11.85c0.2,1.3,0.17,1.82,0.44,3.01"/><path d="M39.05,36.33c9.95-1.71,23.99-3.65,29.61-4.1c2.96-0.23,3.83,1.02,3.14,3.31c-0.88,2.93-2.17,7.01-3.32,10.2"/><path d="M41.28,49.94c6.57-0.42,16.36-1.87,25.72-2.71c1.3-0.12,2.59-0.22,3.85-0.31"/><path d="M21,60.25c1.31,1.31,1.9,2.76,2.21,5c0.79,5.62,2.21,18.19,3.16,26.99c0.15,1.39,0.28,2.67,0.38,3.76"/><path d="M24.06,64c16.08-1.51,58.63-6.55,60.19-6.75c3.75-0.5,6,1.5,5.25,6.25c-1.49,9.45-2.62,19.62-5.25,28.25c-2.05,6.75-5.38,2.5-7.8,0"/><path d="M41.5,71.68c0.66,0.66,1.16,1.63,1.31,2.47c0.89,2.82,1.58,7.24,2.39,11.81c0.21,1.16,0.4,1.78,0.56,2.79"/><path d="M44.02,73.08c6.79-1.36,17.1-2.86,20.92-3.35c1.81-0.23,3.31,1.02,3.13,2.5c-0.35,2.92-1.96,8.31-3.12,11.75"/><path d="M46.44,87.05c4.61-0.4,11.01-1.31,17.32-1.94c0.88-0.09,1.77-0.17,2.65-0.26"/></svg>