<svg><path d="M25.5,13.06c1.39,1.02,1.39,1.19,1.39,2.21s0.46,23.57,0.46,25.1"/><path d="M28.44,15.08C34,14.25,40.5,13,46.6,12.28c1.44-0.17,2.32,0.12,3.05,0.25"/><path d="M27.02,24.39c4.22-0.36,14.11-2.16,17.52-2.52c1.28-0.13,2.58-0.09,3.57,0.12"/><path d="M27.78,32.38c4.22-0.36,14.11-1.66,17.52-2.02c1.28-0.13,2.58-0.09,3.57,0.12"/><path d="M12.88,41.52c0.79,0.21,2.25,0.24,3.05,0.21c8.27-0.35,25.49-3.72,36.77-3.99c1.32-0.03,2.12,0.1,2.78,0.2"/><path d="M29.21,42.62c0.06,0.51-0.27,1.25-0.46,1.51c-2.53,3.45-3.26,5.53-6.75,9.38c-0.87,0.97-0.42,2.57,1.07,2.09c5.76-1.85,16.67-5.35,23.24-7.75"/><path d="M42.34,42.98c2.82,1.65,7.28,6.79,7.99,9.35"/><path d="M81.99,11c0.05,0.3,0.24,0.82-0.12,1.21c-2.78,2.96-8.95,7.25-20.07,11.11"/><path d="M84.64,24.78c0.06,0.28,0.28,0.8-0.11,1.14c-2.96,2.6-9.95,7.63-20.45,10.94"/><path d="M91.08,36.29c0.08,0.34,0.31,0.89-0.16,1.35c-3.18,3.11-13.16,9.05-28.49,12.86"/><path d="M36.32,57.01c1.01,0.28,1.62,1.78,1.82,2.34c0.2,0.57,0.43,24.78,0.43,30.88"/><path d="M38.65,72.02c4.5-0.43,7.82-1.78,12.24-2.2c1.1-0.11,1.38-0.14,2.06,0"/><path d="M21.45,68.45c1.01,0.28,1.82,1.76,1.82,2.34C23.25,75.25,24,88.5,24.53,95.27"/><path d="M16.1,97.1c0.43,0.64,2.42,0.89,3.51,0.48C29,94,43.7,89.34,53.29,85.7"/><path d="M88.56,60.9c0.17,0.26-0.23,1.53-0.66,1.93c-2.77,2.62-11.77,9.35-20.72,12.04"/><path d="M62.46,54.75c1,0.68,1.4,1.07,1.4,2.03c0,3.47,0.11,26.44,0.11,32.57c0,6.14,3.28,8.15,15.57,8.15c13.63,0,14.36-4.71,14.36-9.01"/></svg>