<svg><path d="M43.25,12.2c1.97,1.3,4.95,4.97,5.44,6.98"/><path d="M64.51,11.65c0.02,0.15-0.17,0.79-0.03,0.6c1.16-1.6-2.61,4.13-5.23,5.7"/><path d="M41.86,25.17c0.38,0.14,1.4,0.5,2.42,0.43c3.65-0.28,15.71-1.2,19.83-1.65c1.01-0.11,1.27-0.14,1.91,0"/><path d="M53.11,9.91c0.67,0.26,1.08,1.15,1.21,1.66c0.14,0.51,0,31.46-0.13,34.66"/><path d="M54.1,26.3c-2.54,5.13-8.73,12.33-14.45,15.29"/><path d="M56.08,30.27c4.47,2.4,7.76,5.16,9.42,9.2"/><path d="M18.83,13.25c0.9,0.23,2.86,0.3,3.71,0.2c0.69-0.08,12.33-1.92,14.19-2.23c1.71-0.28,1.92,0.69,1.25,1.46c-0.68,0.76-2.76,7.9-3.22,9.02"/><path d="M22,23.04c1.65,0,10.28-0.75,11.46-0.75s2.35-0.44,3.29-0.44"/><path d="M21.5,22.2c0.5,0.38-0.17,2.65-0.5,3.25c-0.37,0.69-1.8,5.72-2.13,6.08c-0.91,1.01-0.62,2.42,1.52,2.21c1.12-0.11,8.88-2.09,12.73-2.26c2.74-0.12,2.33,2.56,2.14,3.25c-1,3.51-2.26,5.73-5.59,10.17c-2.54,3.39-5.17,0.56-6.58-1.36"/><path d="M72.5,12.01c0.58,0.28,1.93,0.58,2.84,0.46c0.74-0.09,11.75-1.65,13.75-2.02c1.84-0.34,2.08,0.82,1.34,1.73c-0.73,0.91-2.05,6.41-2.54,7.74"/><path d="M76.5,21.43c1.65,0,10.28-1.38,11.46-1.38s2.35-0.34,3.29-0.34"/><path d="M76,19.95c0.25,1,0.08,2.18-0.24,2.76c-0.36,0.66-3.08,5.84-3.4,6.18c-0.9,0.98-1.46,2.47,1.46,2.17c3.81-0.4,10.43-1.36,14.2-1.52c2.68-0.12,1.79,1.98,1.6,2.64c-0.98,3.38-2.62,8.27-5.84,12.25c-2.59,3.2-5.54,0.02-6.45-1.82"/><path d="M27.12,53.69c1.44,0.19,4.07,0.24,5.5,0.2c14.77-0.5,25.63-1.69,40.83-2.5c2.39-0.13,3.83,0.09,5.02,0.19"/><path d="M34.38,60.07c0.26,0.2,0.52,0.37,0.63,0.62c0.89,1.98,1.95,7.12,2.56,10.68"/><path d="M36.7,61.32c9.4-1.01,27.56-2.74,32.4-3.08c1.77-0.12,2.84,1.25,2.58,1.99c-1.05,3.03-0.54,3.92-1.94,7.22"/><path d="M38.25,69.52c5.68-0.36,26.45-1.77,33.66-2.13"/><path d="M22.72,74.8c0.46,0.55,1.14,1.42,1.11,2.42c-0.08,2.73,1.65,21.08,1.65,22.73"/><path d="M24.32,76.5c8.3-0.44,58.75-2.55,60.39-2.66c2.04-0.14,3.75,1.98,3.75,3.46c0,1.62-1.7,12.15-2.62,15.97c-1.84,7.68-5.59,1.93-6.83,0.64"/><path d="M42.81,78.06c0.48,0.62,0.55,0.68,0.42,1.06c-0.95,2.83-4.46,6.87-13.74,9.83"/><path d="M63.75,74.95c0.43,0.35,0.27,2.26,0.3,2.8c0.12,2.41,0.08,2.18,0.08,3.06c0,2.06,3.37,2.32,8.72,2.32c4.56,0,7.57-1.27,8.21-1.41"/><path d="M40.53,89.8c0.41,0.14,1.51,0.36,2.61,0.41c3.02,0.14,12.87-1.35,21.89-2.17c1.31-0.12,1.64-0.16,2.46,0"/><path d="M52.75,89.7c0.54,0.5,0.9,0.8,0.9,1.29c0,1.91-0.13,6.4-0.13,10.71"/></svg>