<svg><path d="M30.86,13.25c0.03,0.31,0.1,0.9-0.05,1.25c-1.88,4.4-4.66,8.44-9.56,12"/><path d="M13.14,27.37c0.28,0.56,0.28,0.93,0.43,1.62c1.24,5.65,2.77,17.18,3.5,27.59"/><path d="M14.93,29.95C25,28.5,37.5,26.96,43.7,26.42c2.28-0.2,3.21,1.58,2.96,3.87c-0.57,5.38-2.16,15.21-3.52,22.84"/><path d="M29.2,28.9c0.69,0.69,1.25,1.64,1.26,2.75c0.03,5.51,0.12,16.88,0.12,20"/><path d="M15.91,41.57c2.7-0.27,25.95-3.32,29.73-3.87"/><path d="M17.57,54.14c10.18-1.39,15.93-1.89,25.64-2.88"/><path d="M23.62,60.25c0.17,0.67,0.42,1.95,0.25,3.05C22.5,72,19.25,84.75,10.5,94"/><path d="M32.99,55.37c0.74,1.19,1.33,2.59,1.38,4.43c0.2,8.19-0.42,18.14-0.42,23.7c0,13,10.06,12.53,31.97,12.53c27.34,0,28.84-4.28,28.84-10.12"/><path d="M44.55,58.72c0.2,0.44,0.05,2.39-0.06,2.95c-1.47,7.07-2.24,10.58-4.71,17.38c-0.61,1.68-0.83,2.11,0.4,1.57c4.29-1.87,6.28-2.99,10.44-4.95"/><path d="M48.81,71.57c1.1,1.46,3.51,7.24,3.78,9.51"/><path d="M53.63,19.64c1.14,0.48,1.9,0.77,3.05,0.72c5.13-0.22,20.45-3.52,31.11-4.34c1.52-0.12,2.67-0.14,4.38,0.34"/><path d="M54.75,34.3c0.75,0.95,1.08,2.8,1.21,4.42c0.68,8.75,1.34,40.6,1.34,44.54"/><path d="M56.09,35.73c6.33-0.82,29.46-3.91,33.44-4.55c1.29-0.21,2.37,0.82,2.33,3.08c-0.23,11.46-0.86,32.48-2.1,44.05c-0.64,5.97-2.76,4.18-5.64,1"/><path d="M72.04,20.64c0.64,1.03,1.16,2.26,1.16,3.7c0,0.82-0.39,56.14-0.39,58.41"/><path d="M64.41,53.47c-0.88,2.95-3.16,7.13-4.99,8.81"/><path d="M60.55,44.44c0.3,0,0.58,0.47,0.72,0.82c2.41,5.75,5.13,11.65,7.36,15.71c0.25,0.46,0.49,0.63,0.76,0.75"/><path d="M81.45,50.77c-0.99,3.4-3.06,7.22-5.12,9.15"/><path d="M77.54,42.02c0.36,0,0.71,0.46,0.85,0.85c2.1,5.8,5.27,12.25,8.66,16.3c0.34,0.41,0.58,0.65,0.89,0.78"/></svg>