<svg><path d="M31.63,16.25c0.08,0.75-0.01,1.48-0.25,2.19C29.5,22.75,28.5,24.88,25.75,29"/><path d="M14.83,30.12c0.84,0.84,1.22,1.87,1.38,3.08C17,39,18.03,46.68,18.64,54.87c0.09,1.24,0.18,2.48,0.25,3.7"/><path d="M16.43,31.95c9.04-1.51,19.56-3.09,26.2-3.8c4.13-0.44,5.67,0.66,5.12,5.01c-0.6,4.75-1.66,12.24-2.74,18.62c-0.21,1.25-0.42,2.46-0.63,3.61"/><path d="M30.5,31c0.69,0.69,1.25,1.64,1.26,2.75c0.03,5.51,0.12,16.88,0.12,20"/><path d="M18.66,44.07c3.71-0.69,18.34-2.69,26.98-3.37"/><path d="M19.82,56.64C30,55.25,33.75,55,43.46,54.02"/><path d="M25.62,64c0.5,0.88,0.7,1.95,0.5,3.05C24.38,76.75,20.19,88.88,10,96"/><path d="M34.74,58.37c0.95,0.95,1.38,2.59,1.38,4.43c0,8.33-0.11,12.39-0.11,17.95c0,11,1.82,12.53,27.66,12.53s27.59-3.53,27.59-9.37"/><path d="M47.94,60.22c0.21,0.35,0.06,1.93-0.07,2.38c-1.55,5.71-3.42,9.03-6.31,13.04c-0.92,1.27,0.17,2.57,1.42,2.02c4.02-1.79,4.62-2.2,9.02-3.79"/><path d="M51,70c1.04,1.11,3.33,5.5,3.59,7.22"/><path d="M57.8,31.8c1.68,0.51,3.76,0.48,5.45,0.19c6.38-1.11,14.02-1.97,20.26-2.69c1.65-0.19,3.54-0.19,5.17,0.11"/><path d="M53.21,47.91c1.96,0.62,4.28,0.35,6.31,0.1c6.76-0.83,19.84-2.67,28.24-3.55c2.4-0.25,4.63-0.51,7.03-0.06"/><path d="M71.8,15.25c1.04,1.04,1.36,2.25,1.36,3.82c0,2.52,0.03,41.86,0.03,58.06c0,4.11,0,6.73-0.01,6.88"/><path d="M72.22,46.98c0,1.4-0.46,2.38-1.25,3.94c-3.82,7.55-9.72,15.46-15.72,20.21"/><path d="M74,47.27c3.12,4.11,9.93,11.58,15.13,17.12c1.87,1.99,3.75,3.49,6.52,5.35"/></svg>