<svg><path d="M42.59,14c0.08,0.32,0.17,0.82-0.16,1.28c-1.92,2.7-12.96,8.62-28.06,12.24"/><path d="M13.4,34.84c0.49,0.13,1.81,0.43,3.13,0.38c5.27-0.19,21.33-2.43,31.53-2.7c1.31-0.04,1.65-0.13,2.47,0"/><path d="M30.89,25.03c0.54,0.3,0.87,1.34,0.98,1.94c0.11,0.6,0,21.13-0.11,24.87"/><path d="M31.05,35.24C26.7,42.01,18.71,49.85,10.3,53.22"/><path d="M34.26,38.17c5.24,2.58,11.24,7.33,15.58,12.28"/><path d="M30.37,55.89c0.24,0.93,0.13,2.13-0.12,3.24c-1.4,6.21-3.75,12.62-7.79,18.08c-0.92,1.25-0.59,2.24,0.59,2.35c7.2,0.69,16.2,5.19,21.04,13.31"/><path d="M41.91,62.89c0.09,0.81,0.17,2.8-0.18,3.97C38.77,76.88,30.68,91.1,11.86,97"/><path d="M10.81,67c0.62,0.28,1.98,0.92,3.52,0.78c8.47-0.77,23.09-2.73,35.01-2.81c1.04-0.01,2.82,0.26,3.67,0.74"/><path d="M72.47,11.5c0.02,0.36,0.09,1.04-0.05,1.44c-1.66,5.07-4.12,9.72-8.45,13.81"/><path d="M55.42,27.89c0.24,0.53,0.25,0.89,0.38,1.54c1.09,5.39,2.93,15.39,3.57,25.31"/><path d="M56.57,28.69c8.64-0.54,23.53-2.9,29.98-3.43c2.37-0.19,3.34,1.54,3.08,3.79c-0.6,5.27-0.8,15.4-2.89,24.83"/><path d="M72.2,28.9c0.69,0.69,1.25,1.64,1.26,2.75c0.03,5.51,0.12,16.88,0.12,20"/><path d="M58.11,40.54c2.81-0.26,27.01-2.74,30.94-3.28"/><path d="M59.82,52.85c8.93-0.85,15.93-1.1,26.68-1.79"/><path d="M65.06,57.75c0.26,0.82,0.62,2.4,0.37,3.74C63.5,72,55.75,90.75,41.75,97.25"/><path d="M72.91,54.37c0.66,1.19,1.18,2.59,1.22,4.43c0.18,8.19,0.03,15.51-0.29,26.61s3.67,10.8,12.15,10.8c8.52,0,12.52-1.2,12.52-8.44"/><path d="M85.74,59.72c0.22,0.42,0.14,2.33-0.07,2.84c-1.92,4.68-3.37,11.46-6.42,16.23c-0.97,1.51,0.08,3.03,1.45,2.51c3.72-1.41,5.76-2.13,11.43-4.44"/><path d="M89.27,71.68c1.65,1.5,5.27,7.45,5.68,9.79"/></svg>