<svg><path d="M19.34,13.93c1.75,0.43,4.95,0.5,6.7,0.43c18.19-0.72,38.76-3.32,56.39-3.88c2.91-0.09,4.66,0.2,6.12,0.42"/><path d="M22.57,15.08c0.47,1.64,0.48,2.08,0.4,4.76c-0.64,21.45-2.29,55.57-12.41,73.83"/><path d="M31.76,19.79c0.27,0.27,0.46,0.7,0.53,1.06c0.26,1.21,2.2,10.52,2.2,10.7"/><path d="M32.73,20.49c1.5-0.05,17.62-1.92,18.99-1.98c1.14-0.04,1.88,1.36,1.79,1.62c-0.18,0.54-1.06,9.66-1.06,9.93"/><path d="M33.39,25.45c2.03,0,16.93-1.8,19.23-1.8"/><path d="M35.11,30.55c4.87-0.15,11.84-1.34,16.54-1.42"/><path d="M31.46,37.52c0.29,0.29,0.58,0.81,0.58,1.1c0,2.02,0.1,16.01,0.1,18.24"/><path d="M32.61,37.81c1.15-0.07,18.86-1.93,19.72-2.01c1.54-0.15,2.11,0.94,1.92,1.37c-0.19,0.42-0.29,8.91-0.29,14.76c0,4.95-2.79,1.73-4.3,0.65"/><path d="M32.61,43.28c3.62-0.14,17.51-1.72,20.97-1.94"/><path d="M32.34,48.24c3.08-0.22,17.49-1.53,21.05-1.67"/><path d="M57.68,30.1c0.52,0.18,2.29,0.39,3.29,0.29c5.25-0.54,19-1.4,25.32-1.77c0.72-0.04,1.75,0.07,3.36,0.37"/><path d="M71.09,18.2c0.3,0.47,0.58,0.94,0.51,1.87C70.75,32.5,69,44.5,60.78,51.84"/><path d="M71.04,30.12c4.03,6.44,11.88,17.34,17.03,21.93c1.35,1.21,1.85,1.36,2.47,1.47"/><path d="M78.19,17.84c4.54,1.83,5.79,3.23,7.19,4.95"/><path d="M54.37,56.75c0.02,0.15,0.06,0.43-0.03,0.6c-1.12,2.11-2.77,4.04-5.68,5.74"/><path d="M33.2,64.76c0.22,0.32,0.22,0.53,0.34,0.92c0.96,3.21,2.64,9.75,3.21,15.66"/><path d="M34.22,65.53c7.63-0.32,37.16-3.32,42.85-3.64c2.09-0.12,2.95,0.92,2.72,2.25c-0.53,3.13-2.09,10.07-3.94,15.68"/><path d="M 55.350416,65.1142 c 0.67,0.83 0.79,1.58 0.79,2.67 0,2.05 -0.09,6.823971 -0.09,9.943971"/><path d="M36.08,72.38c2.48-0.16,38.84-2.72,42.32-3.04"/><path d="M37.14,79.71C46,79,67.44,77.82,75.7,76.95"/><path d="M47.38,82.68c0.13,0.68-0.15,1.42-0.62,1.96C43.48,88.35,35.58,95,20.75,99"/><path d="M57.86,80.21c0.7,0.61,1.26,1.33,1.3,2.26c0.19,4.19,0.19,2.9,0.19,8.59c0,6.68,2.82,7.28,17.99,7.28S94.25,97,94.25,89.27"/><path d="M72.15,81.94c0.24,0.21,0.15,1.19-0.08,1.45c-2.05,2.4-2.13,4.08-5.38,6.52c-1.03,0.77,0.08,1.55,1.54,1.29c5.09-0.92,9.38-1.82,14.32-2.78"/><path d="M79.78,85.16c1.37,0.86,4.39,4.27,4.73,5.62"/></svg>