<svg><path d="M48,13c0.14,1.21-0.07,2.22-0.59,3.32C45.08,21.29,37,30.31,26.25,36"/><path d="M49,19.13c1.25,0.37,2.35,0.4,3.8,0.24c4.73-0.53,10.95-1.37,14.14-2.13c2.5-0.6,3.69,1.64,2.06,3.51c-4.94,5.7-9.5,11.12-14.25,17.25"/><path d="M27.49,40.98c1.2,1.2,1.88,2.4,2.11,3.82c0.85,5.2,2.43,14.61,3.41,22.71c0.17,1.36,0.32,2.69,0.47,3.96"/><path d="M30.27,42.78C45.25,40.62,67,37.75,78.41,37.3c3.85-0.15,5.83,1.46,5.59,3.95c-0.5,5.12-1.85,15.04-3.39,23.73c-0.2,1.15-0.41,2.25-0.61,3.27"/><path d="M53.75,41.5c1,0.75,1.12,1.88,1.16,2.98C55.13,50.39,55,65.45,55,66.25"/><path d="M32.47,55.61C43.5,54.38,69.88,52,81.21,51.64"/><path d="M34.2,69.54c12.92-1.29,30.42-3.04,45.8-3.79"/><path d="M26.25,81c0,5.25-5.75,13-7.25,14.5"/><path d="M42.52,79.08c3.15,2.76,6.15,10.84,6.94,15.13"/><path d="M62.37,77.83c3.15,2.76,8.15,11.34,8.93,15.63"/><path d="M84.27,78.58c4.16,2.63,10.75,10.8,11.79,14.88"/></svg>