<svg><path d="M25.99,11.75c0.05,0.59,0.24,1.57-0.1,2.38c-2.39,5.62-8.64,14.12-17.15,22.74"/><path d="M22.89,19.88c1.93,0,12.32-1.94,14.35-2.23c1.74-0.25,2.13,2.17,1.41,3.4c-3.05,5.19-5.48,7.16-10.45,15.4"/><path d="M14.22,38.06c0.19,0.53,0.2,0.89,0.31,1.55c0.88,5.41,1.82,19.95,2.36,29.9"/><path d="M15.13,40.01c6.82-0.46,18.43-2.3,23.52-2.77c1.87-0.17,2.83,1.4,2.73,2.85c-0.35,5.29-0.54,18.15-2.04,27.96"/><path d="M26.48,39.45c0.77,0.76,1.36,2.99,1.39,4.7c0.1,7.56,0.02,18.24,0.02,21.98"/><path d="M16.83,52.8c2.22-0.23,21.72-3.06,23.56-3.04"/><path d="M17.24,67c4.91,0.06,15.15-1.51,21.92-1.57"/><path d="M13.36,78.82c0,5.32-2.33,13.16-2.67,14.68"/><path d="M19.37,76.83c1.77,2.55,3.95,9.57,4.39,13.54"/><path d="M28.98,74.94c1.54,2.33,3.97,9.09,4.36,12.71"/><path d="M37.3,72.37c1.66,1.9,4.28,7.82,4.7,10.78"/><path d="M68.75,12.25c1.13,0.7,1.94,2.88,1.94,4.27c0,5.13-0.36,10.18-0.15,14.52"/><path d="M45.88,33.14c1.62,0.36,3.45,0.66,4.77,0.52c10.66-1.1,29.45-4.17,43.93-4.93c2.23-0.12,2.38,0.04,4.04,0.67"/><path d="M70.52,39.32c5.76,2.04,12.09,4.38,17.43,5.24c3.02,0.48,4.19,1.56,3.72,3.89c-1.33,6.5-12.49,41.09-16.29,46.17c-4.13,5.51-8.12-1.12-9.62-3.45"/><path d="M69.61,34.25c0.38,1.59,0.3,3.38-0.14,5.17c-3.08,12.33-11.98,37.25-25.79,48.91"/></svg>