<svg><path d="M28.99,13.25c0.05,0.59-0.27,1.57-0.59,2.38C26,21.75,20,30.5,12.74,38.12"/><path d="M25.64,23.13c5.8-0.8,11.57-1.77,17.35-2.73c1.73-0.29,2.84,1.82,1.91,2.9c-3.39,3.95-8.14,9.7-13.2,16.65"/><path d="M16.47,41.48c0.78,0.78,1.42,2.06,1.67,3.4c0.87,4.71,1.98,13.37,2.66,20.87c0.13,1.45,0.25,2.86,0.34,4.19"/><path d="M18.56,42.9c7.37-1.11,18.9-2.91,26.81-3.83c3.17-0.37,5.83-0.49,5.37,3.43c-0.54,4.58-2.06,13.44-3.91,20.09c-0.5,1.81-1.03,3.46-1.57,4.82"/><path d="M32.91,42.05c0.77,0.77,0.87,1.82,0.9,3.38c0.12,6.9,0.03,16.41,0.03,19.83"/><path d="M20.88,54.88c4.62-0.88,22.38-3.12,27.73-3.4"/><path d="M22.31,68.1c5.84-0.52,14.27-1.94,22.33-2.78"/><path d="M16.53,77.32c0,6.4-2.75,15.85-3.47,17.68"/><path d="M24.71,77.83c1.71,2.83,3.33,10.63,3.76,15.04"/><path d="M34.62,76.69c1.85,2.37,4.77,9.77,5.23,13.46"/><path d="M45.1,75.12c2.26,2.3,5.83,9.46,6.4,13.03"/><path d="M70.01,15.13c1.12,1.12,1.45,2.62,1.45,4.75c0,3.99,0.03,38.99,0.03,46.5"/><path d="M72.52,40.25C80.41,39.5,89.17,38,90.27,38s2.36-0.12,3.94,0"/><path d="M55.66,67.99c0.82,0.82,1.29,1.91,1.56,2.99c1.04,4.21,2.38,12.15,3.33,19.02c0.29,2.09,0.55,4.1,0.75,5.91"/><path d="M57.65,69.16c10.3-1.28,25.29-2.81,31.72-3.62c2.41-0.3,4.88,0.57,4.32,3.64c-1.07,5.88-2.66,12.65-4.14,20.12"/><path d="M62.18,92.56c6.07-0.56,16.39-1.38,24.57-2.05c2.04-0.17,3.88-0.33,5.36-0.48"/></svg>