<svg><path d="M28.99,11.75c0.05,0.59,0.26,1.58-0.09,2.38C25.75,21.25,20.75,29,12.49,36.87"/><path d="M25.09,22.41c1.77,0,13.71-2.74,15.58-3.01c1.6-0.23,2.46,1,1.79,2.13c-2.81,4.77-5.84,8.85-10.41,16.43"/><path d="M15.22,40.68c0.23,0.49,1.23,1.83,1.36,2.45c1.02,5.1,3.11,17.53,3.75,27.05"/><path d="M16.78,41.95c7.92-1.29,23.01-4.05,28.92-5.13c2.17-0.4,3.29,1,3.17,2.41c-0.41,5.15-1.79,18.65-3.53,28.29"/><path d="M31.06,40.47c0.9,0.64,1.58,2.71,1.61,4.36c0.12,7.28,0.03,17.58,0.03,21.19"/><path d="M19.76,54.56c2.58-0.5,25.26-4.18,27.39-4.39"/><path d="M20.23,68.22c5.71-0.55,17.61-2.33,25.49-3.23"/><path d="M15.07,79.07c0,5.59-1.66,13.83-2.09,15.43"/><path d="M23.14,79.33c1.41,2.41,2.75,9.04,3.11,12.79"/><path d="M31.07,75.19c1.83,2.37,5.23,9.77,5.69,13.46"/><path d="M39.8,72.12c2.36,2.48,6.11,10.18,6.7,14.03"/><path d="M55.5,18.42c0.69,0.23,3.05,0.25,3.74,0.21c4.75-0.27,21.78-3.45,29.88-3.91c1.14-0.06,3.54,0.2,4.11,0.32"/><path d="M63.24,29.23c0.02,0.43,0.05,1.11-0.04,1.73c-0.56,3.65-5.26,14.17-9.65,19.08"/><path d="M82.21,27.17c6.05,3.87,12.74,11.99,14.25,18"/><path d="M52,57.59c1.05,0.5,2.98,0.57,4.02,0.5c10.94-0.77,24.99-2.96,39.04-4.67c1.74-0.21,2.8,0.24,3.68,0.49"/><path d="M73.21,19.32c0.36,0.47,1.11,3.49,1.18,4.42c0.07,0.93-0.05,69.07-0.12,74.89"/></svg>