<svg><path d="M27.49,10.25c0.04,0.56,0.22,1.49-0.08,2.26C25.25,18,19.5,28.25,11.74,35.62"/><path d="M24.89,18.88c1.93,0,12.32-1.94,14.35-2.23c1.74-0.25,2.13,2.17,1.41,3.4c-3.05,5.19-5.64,8.45-9.95,16.9"/><path d="M15.55,37.89c0.25,0.5,0.26,0.86,0.4,1.49c1.14,5.24,2.34,19.03,3.05,28.8"/><path d="M16.28,40.02c7.92-1.19,18.51-2.71,24.42-3.71c2.17-0.37,3.29,0.93,3.17,2.23C43.47,43.31,42,57.5,41.34,67.22"/><path d="M28.56,38.23c0.9,0.59,1.58,2.51,1.61,4.04c0.12,6.73,0.03,20.27,0.03,23.6"/><path d="M17.76,52.23c2.58-0.46,22.76-2.37,24.89-2.56"/><path d="M19.23,66.9c5.71-0.51,14.11-1.62,21.99-2.45"/><path d="M15.7,79.82c0,5.04-2.85,12.49-3.59,13.93"/><path d="M22.95,77.83c0.91,2.36,1.77,8.87,1.99,12.54"/><path d="M32.12,76.44c1.17,2.07,3.03,8.5,3.32,11.71"/><path d="M40.3,73.37c1.66,1.9,4.28,7.82,4.7,10.78"/><path d="M66.06,10.67c0.05,0.74,0.1,1.92-0.09,2.98c-1.14,6.28-6.47,18.85-14.36,28.52"/><path d="M65.06,20.73c3.26-0.34,13.44-1.62,18.1-2.68c3.19-0.73,3.62,1.34,2.78,3.3C79.25,37,65.75,61.75,48.48,70.17"/><path d="M63.58,25.9C70.02,35.55,82.5,52,90.5,60.79c1.86,2.04,3.75,2.72,5.77,3.26"/><path d="M66,64c4.76,1.77,12.31,7.26,13.5,10"/><path d="M58,86c12.25,2.25,20,7.25,25.75,14"/></svg>