<svg><path d="M27.99,14.25c0.05,0.57,0.1,1.48-0.09,2.31c-1.11,4.86-7.46,15.53-16.16,22.06"/><path d="M26.39,23.38c1.93,0,13.82-3.44,15.85-3.73c1.74-0.25,2.13,2.17,1.41,3.4c-3.05,5.19-5.48,10.16-10.45,18.4"/><path d="M16.22,43.5c0.23,0.47,0.23,0.8,0.36,1.39c1.02,4.87,2.61,18.2,3.25,27.29"/><path d="M17.28,45.19c7.92-1.23,22.51-3.35,28.42-4.37c2.17-0.38,3.29,0.96,3.17,2.3c-0.41,4.92-1.79,17.32-3.53,26.52"/><path d="M31.06,44.32c0.9,0.61,1.58,2.59,1.61,4.17c0.12,6.95,0.03,15.79,0.03,19.24"/><path d="M19.76,57.27c2.58-0.48,25.26-4,27.39-4.19"/><path d="M20.23,69.83c5.71-0.52,17.61-2.71,25.49-3.56"/><path d="M15.95,80.82c0,5.5-2.46,13.61-3.1,15.18"/><path d="M23.14,80.33c1.87,2.36,3.64,8.87,4.11,12.54"/><path d="M31.88,78.94c2.05,1.98,5.3,8.14,5.81,11.21"/><path d="M42.05,75.37c2.1,1.81,5.42,7.46,5.95,10.28"/><path d="M68.26,14.5c0.04,0.85,0.2,2.22-0.08,3.41c-1.81,7.65-6.65,21.54-14.38,32.59"/><path d="M63.36,36.5c0.84,0.15,2.4,0.29,3.23,0.15c11.66-1.91,19.91-3.41,28.09-4.34c1.54-0.18,2.57,0.02,3.78,0.18"/><path d="M70.16,36.46c0.85,0.48,1.36,2.17,1.53,3.13c0.17,0.96,0,51.64-0.17,57.66"/><path d="M72.07,53.69C78,53,84.75,51.75,90.61,50.81c1.38-0.22,1.89-0.31,3.37,0.18"/><path d="M71.99,72.63c4.36-0.51,11.89-1.67,21.86-2.76c0.89-0.1,3.18,0.1,3.63,0.2"/></svg>