<svg><path d="M28.99,11.75c0.04,0.56,0.09,1.45-0.08,2.26c-1,4.76-8.77,17.21-16.67,23.61"/><path d="M27.89,20.88c1.93,0,13.82-2.44,15.85-2.73c1.74-0.25,2.13,2.17,1.41,3.4c-3.05,5.19-7.48,10.16-12.45,18.4"/><path d="M16.2,41.65c0.23,0.48,0.74,1.31,0.87,1.91c1.05,4.92,2.17,18.27,2.83,27.37"/><path d="M17.79,43.39c8.11-0.79,22.53-2.62,28.59-3.32c2.22-0.26,3.36,1.14,3.25,2.47c-0.42,4.88-1.32,17.17-3.1,26.26"/><path d="M31.4,42.79c0.92,0.66,1.62,2.68,1.65,4.25c0.13,6.94,0.04,16.75,0.04,20.18"/><path d="M19.82,55.54c2.64-0.33,25.86-2.59,28.05-2.67"/><path d="M20.31,68.6c5.84-0.21,18.53-1.73,26.6-2.15"/><path d="M17.36,81.82c0,5.32-2.9,13.16-3.66,14.68"/><path d="M24.28,77.58c1.63,2.98,3.18,11.16,3.58,15.79"/><path d="M32.96,76.94c2.34,2.42,6.05,9.95,6.64,13.71"/><path d="M42.55,74.62c3.33,2.65,8.61,10.91,9.45,15.03"/><path d="M87.57,18.06c0.12,1.13,0.02,1.83-0.5,2.3c-5.42,4.92-14.93,9.6-26.27,12.43"/><path d="M58.23,12.75c0.74,0.55,1.04,2.42,1.04,3.27c0,3.98-0.57,11.5-0.57,19.45c0,12.45,0.55,13.09,18.45,13.09c17.28,0,17.6-3.06,17.6-11.11"/><path d="M61.65,57.55c0.49,0.98,1.28,2.35,1.28,3.52c0,1.17,1.33,34.82,1.33,35.41"/><path d="M63.26,59.69c2.09-0.14,23.25-2.47,25.15-2.64c1.59-0.14,2.61,1.58,2.49,2.43c-0.25,1.72-0.67,35.14-0.67,36"/><path d="M63.63,75.67c2.83,0,22.71-1.42,26.92-1.57"/><path d="M64.41,93.44c6.39-0.16,17.67-0.83,25.63-0.97"/></svg>