<svg><path d="M26.99,13.25c0.04,0.56,0.13,1.46-0.08,2.26C25,22.5,19.14,32.72,11.24,39.12"/><path d="M24.89,21.38c6.36-0.13,12.82-1.44,14.85-1.73c1.74-0.25,3.13,2.17,2.41,3.4c-3.05,5.19-5.48,8.66-10.45,16.9"/><path d="M17.72,39.97c0.26,0.53,0.27,0.9,0.41,1.56c1.19,5.49,2.45,19.91,3.19,30.14"/><path d="M18.95,42.62c9.21-1.38,15.56-2.39,22.44-3.55c2.52-0.43,3.82,1.08,3.69,2.59C44.6,47.2,44,57.75,42.97,69.07"/><path d="M29.5,42.21c0.99,0.66,1.76,2.79,1.79,4.47c0.13,7.46,0.03,18.03,0.03,21.73"/><path d="M21.25,55.65c5-1.15,20.34-2.5,22.82-2.72"/><path d="M21.8,69.29c6.63-0.59,16.45-1.29,21.11-1.51"/><path d="M17.01,83.07c0,5.23-2.99,12.94-3.76,14.43"/><path d="M25,80.83c1.24,2.41,2.41,9.04,2.72,12.79"/><path d="M33.63,79.19c1.25,2.07,3.22,8.5,3.53,11.71"/><path d="M41.94,76.87c1.61,1.9,4.16,7.82,4.56,10.78"/><path d="M53.25,26.95c1.02,0.48,2.88,0.56,3.9,0.48c8.35-0.67,18.85-2.67,30.29-3.09c1.69-0.06,2.71,0.23,3.56,0.46"/><path d="M53.35,39.86c0.6,0.8,1,1.61,1.2,2.41c0.2,0.8-0.24,48.1-0.22,55.35"/><path d="M55.1,41.8c6.14-0.31,34.63-2.81,36.26-3.01c2.92-0.37,4.01,2.39,3.65,3.49c-0.04,2.48-0.62,30.89-0.62,47.69c0,11.98-6,1.79-7.29,1.07"/><path d="M55.1,56.86c8.13-0.64,32.57-1.78,39.13-2.33"/><path d="M55.27,72.79c5.83-0.55,32.21-1.79,38.96-2.16"/><path d="M70.7,11.8c1.29,0.59,2.06,2.67,2.32,3.85c0.26,1.19,0,74.07-0.26,81.48"/><path d="M84.25,13.5c4.59,1.41,11.1,5.3,12.25,7.5"/></svg>