<svg><path d="M22.88,11.45c3.48,1.31,9,5.39,9.87,7.43"/><path d="M14.5,26.71c4.06,0.55,10.48,2.27,11.5,3.13"/><path d="M17.75,49.94c1.41,0.59,3.1,0.61,3.99-0.11c2.58-2.11,11.16-13.19,13.51-15.88"/><path d="M64.2,8.95c0.06,0.24,0.86,1.28,0.93,2.83c0.3,7.47-0.19,15.38-0.19,17.93c0,7.22-4.96,1.51-6.06,0.87"/><path d="M54.17,16.32c0.04,0.38,0.14,1-0.08,1.53c-1.61,3.8-8.41,11.13-13.93,14.63"/><path d="M76.5,16.08c6.37,3.15,14.91,11.27,16.5,16.18"/><path d="M79.37,23.25c0.12,0.56,0.36,1.47-0.25,2.27c-5.07,6.6-24.58,17.74-44.37,22.18"/><path d="M53.99,43.7c0.08,0.41,0.16,1.05-0.15,1.64c-1.82,3.45-12.27,11.01-26.59,15.65"/><path d="M52,48.94c4.5,0.01,13.75-1.74,17.83-2.79c1.99-0.51,3.1,1.55,2.25,2.26c-3.59,3.01-7.59,6.32-11.38,10.38"/><path d="M33.49,61.2c0.37,0.34,0.38,0.57,0.59,1c1.69,3.5,2.28,12.85,3.32,19.39"/><path d="M34.74,62.17c13.08-0.88,37-3.88,46.77-4.62c3.59-0.27,3.93,2.69,3.74,3.65c-0.68,3.53-2.75,12.49-4.48,17.56"/><path d="M58.3,60.21c0.47,4.55,0.24,14.5,0.24,17.54"/><path d="M37.18,70.23c4.26-0.34,41.69-2.87,45.21-3.01"/><path d="M38.58,79.64c9.42-0.38,28.17-2.69,42.69-2.56"/><path d="M26.5,86.34c0,4.47-6.74,11.08-8.5,12.36"/><path d="M41.27,86.25c2.58,2.3,5.04,8.62,5.69,12.2"/><path d="M59.37,86.38c2.8,2.27,7.23,9.36,7.93,12.9"/><path d="M77.02,84.85c5.49,2.58,14.17,10.61,15.54,14.62"/></svg>