<svg><path d="M26.24,13.25c0.09,1.04,0.07,2.02-0.4,2.95c-2.35,4.68-6.75,11-14.61,17.92"/><path d="M24.64,20.63c3.61-0.5,13.34-2.1,15.35-2.48c2.14-0.4,3.14,1.1,1.66,2.9c-3.83,4.65-8.39,9.57-12.2,15.4"/><path d="M14.47,38.37c0.83,0.83,1.07,1.98,1.15,2.58c0.62,4.96,1.32,10.98,2.08,17.43c0.17,1.42,0.33,2.85,0.51,4.3"/><path d="M16.48,40.14C24.68,38.22,35.04,36.81,41.14,35.87C44.58,35.34,46.41,36.54,45.93,40.38C45.45,44.25,44.09,50.41,42.8,55.67C42.43,57.18,42.07,58.61,41.73,59.9"/><path d="M29.59,39.26c0.75,0.47,1.31,2.01,1.34,3.23c0.1,5.39,0.02,13.02,0.02,15.69"/><path d="M17.89,50.03c6.61-1.16,18.86-2.78,26.33-3.52"/><path d="M19.34,60.82c7.66-1.07,13.03-1.82,22-2.45"/><path d="M13.11,75.07c0,5.32-0.61,12.06-1.67,14.68"/><path d="M21.12,73.75c1.68,1.91,3.27,7.15,3.69,10.12"/><path d="M30.02,72.19c1.69,1.4,4.35,5.78,4.78,7.96"/><path d="M39.5,69c1.85,1.53,4.79,6.28,5.25,8.65"/><path d="M52.16,24.91c1.03,1.03,0.97,1.84,1.22,3.21c0.85,4.6,1.94,12.81,2.67,20.25c0.19,1.9,0.35,3.76,0.49,5.53"/><path d="M54.36,27.1c9.32-2.04,20.96-3.48,29.51-4.14c3.6-0.28,6.07,0.01,5.6,4.18c-0.53,4.75-1.73,12.82-2.71,19.85c-0.22,1.57-0.42,3.09-0.61,4.5"/><path d="M56.29,39.05c6.96-0.93,25.21-2.93,30.46-3.18"/><path d="M57.63,51.39c7.37-0.76,18.12-1.89,27.65-2.36"/><path d="M69.17,26.2c0.82,0.82,1.02,2.05,1.02,3.53c0,18.52-0.06,50.65-0.06,54.52"/><path d="M52.33,68.19c2.05,0.43,4.11,0.25,5.81,0.07c6.99-0.72,18.18-2.25,25.86-2.73c1.81-0.11,3.97-0.31,5.74,0.21"/><path d="M43.18,86.79c3.07,0.58,5.75,0.63,8.3,0.4c10.9-0.96,26.98-2.67,39.02-2.99c2.44-0.07,4.93-0.2,7.32,0.42"/></svg>