<svg><path d="M28.49,13.75c0.04,0.56,0.23,1.5-0.08,2.26c-2.02,4.87-7.78,13.24-15.67,21.11"/><path d="M27.39,20.38c1.93,0,13.1-1.79,15.1-2.23c2.39-0.52,3.18,1.46,1.91,3.15c-3.89,5.2-8.14,10.07-13.95,18.65"/><path d="M16.47,42.14c0.88,0.88,1.3,2.34,1.41,3.46c0.74,5.4,1.54,12.49,2.11,19.67c0.12,1.53,0.23,3.02,0.33,4.41"/><path d="M18.53,43.77c8.86-1.62,16.84-3.52,25.96-4.66c3.86-0.48,5.31,0.99,4.94,4.76c-0.45,4.55-1.59,10.48-2.71,17.38c-0.28,1.73-0.6,3-1.13,4.97"/><path d="M32.56,42.23c0.98,0.98,1.08,2.01,1.11,3.54c0.12,6.73,0.03,15.02,0.03,18.35"/><path d="M20.26,54.98c4.74-0.86,20.12-2.73,26.64-3.06"/><path d="M21.23,67.15c7.14-0.9,15.86-2.37,23.74-3.2"/><path d="M14.72,81c0,5.25-1.58,13-2,14.5"/><path d="M22.95,79.58c0.91,2.36,1.77,8.87,1.99,12.54"/><path d="M32.62,77.44c1.63,3.06,3.03,8.5,3.32,11.71"/><path d="M41.8,74.87c2.45,2.5,4.28,7.82,4.7,10.78"/><path d="M72.89,13.17c0.97,0.97,1.61,2.35,1.61,4.08c0,4.42,0.1,5.5,0.1,9.29"/><path d="M53.24,29.25c2.39,0.38,4.92,0.26,7.64-0.08c10.36-1.3,22.44-2.49,30.38-2.97c1.9-0.11,3.98-0.47,5.74,0.44"/><path d="M60.06,42.07c0.74,0.74,1.06,1.68,1.34,2.7c0.8,3,1.23,6.59,1.99,11.71c0.19,1.26,0.38,2.59,0.57,4.02"/><path d="M62.27,43.86c7.61-1.11,19.14-3,23.65-3.61c1.87-0.25,3.58,0.75,3.35,3c-0.35,3.34-1.84,7.5-3.02,12"/><path d="M64.77,58.03c6.96-0.43,13.26-0.94,19.73-1.47c1.41-0.12,2.83-0.22,4.26-0.31"/><path d="M73.95,59.58c0.92,0.92,1.34,2.17,1.34,4.52c0,4.9,0.08,23.52,0.08,27.87c0,8.78-4.69,1.22-6.87-0.97"/><path d="M61.53,69.25c0.07,0.95,0.06,2.04-0.31,2.94c-1.84,4.56-5.47,11.06-11.23,17.31"/><path d="M88.44,70c3.31,3.09,7.88,11.7,8.71,16.5"/></svg>