<svg><path d="M25.49,12.25c0.04,0.56,0.16,1.47-0.08,2.26c-1.66,5.24-8.27,17.21-16.17,23.61"/><path d="M23.89,19.88c1.93,0,10.82-1.94,12.85-2.23c1.74-0.25,2.13,2.17,1.41,3.4c-3.05,5.19-4.89,8.2-9.45,16.9"/><path d="M15.22,39.89c0.23,0.46,0.23,0.77,0.36,1.35c1.02,4.72,2.11,20.64,2.75,29.45"/><path d="M16.28,41.02c7.92-1.19,17.51-2.71,23.42-3.71c2.17-0.37,3.29,0.93,3.17,2.23c-0.41,4.76-0.79,19.76-2.53,28.67"/><path d="M27.06,40.23c0.9,0.59,1.58,2.51,1.61,4.04c0.12,6.77,0.03,19.62,0.03,23.1"/><path d="M18.26,54.23c2.58-0.46,20.26-2.87,22.39-3.06"/><path d="M18.73,68.4c5.71-0.51,13.61-1.12,21.49-1.95"/><path d="M14.5,79.57c0,6.13-2.73,15.18-3.45,16.93"/><path d="M21.44,77.83c1.6,2.65,3.11,9.93,3.51,14.04"/><path d="M30.67,76.69c1.32,2.02,3.41,8.32,3.74,11.46"/><path d="M39.3,74.87c1.66,1.9,4.28,7.82,4.7,10.78"/><path d="M66.18,13.21c0.03,0.23-0.51,1.73-0.72,1.98c-2.85,3.23-5.09,6.88-11.99,11.08"/><path d="M51.19,25.81c0.6,0.69,0.84,2.23,0.99,3.63c0.54,5.15,1.85,19.34,2.4,26.3"/><path d="M53.34,37.67c3.18-0.67,10.08-2.27,10.84-2.27c0.76,0,1.82,0,2.43,0"/><path d="M73.35,20.42c0.7,0.16,1.27,0.47,2.25,0.47c0.99,0,12.56-2.38,13.68-2.54c1.13-0.16,2.49,1.02,2.33,2.8C90.75,31,88.6,53.28,88.45,53.91"/><path d="M73.22,35c0.71,0.16,1.27,0.47,2.26,0.47c0.99,0,13.36-1.25,14.48-1.41"/><path d="M55.21,54.05c3.52-0.31,30.36-2.58,32.48-2.73"/><path d="M64.27,57.25c0.06,0.96,0.09,2.48-0.13,3.87c-1.6,10.14-6.75,28.05-21.98,37.05"/><path d="M74.98,55.62c0.46,1.12,0.83,2.43,0.85,4.15c0.12,7.67,0.1,21.23-0.02,26.45c-0.21,9.38,1.12,10.81,10.26,10.81c9.61,0,9.81-2.14,9.81-8.56"/></svg>