<svg><path d="M24.24,13.25c0.08,1.08,0.12,2.26-0.35,3.26c-3.15,6.74-7.29,13.73-14.66,20.61"/><path d="M20.89,25.38c1.69,0,10.82-1.88,14.25-2.54c2.45-0.46,3.42,0.66,1.77,2.76c-3.66,4.65-7.16,9.78-9.72,13.85"/><path d="M10.97,41.09c0.53,0.78,0.96,1.71,1.07,2.75c0.81,4.94,1.88,14.92,2.53,23.07c0.13,1.59,0.24,3.11,0.33,4.51"/><path d="M12.97,42.57c7.49-1.26,16.65-2.2,26.41-3.5c2.07-0.28,3.11,1.73,3,3.1c-0.33,4.27-1.99,16.09-3.38,23.6c-0.25,1.35-0.49,2.55-0.71,3.56"/><path d="M26,42.4c0.61,0.61,0.77,1.73,0.77,2.76c0,7.11,0.02,18.19,0.02,21.71"/><path d="M14.84,55.42c6.53-1.04,15.78-1.67,24.65-2.29"/><path d="M16.04,69.03c5.39-0.54,12.21-1.65,21.35-1.89"/><path d="M12.51,81.57c0,5.13-3.94,12.72-4.97,14.18"/><path d="M18.95,80.08c1.64,2.55,3.21,9.57,3.62,13.54"/><path d="M28,77.69c2.18,2.42,5.64,9.95,6.19,13.71"/><path d="M36.3,75.12c2.63,2.34,6.79,9.64,7.45,13.28"/><path d="M68.12,10c0,1-0.24,2-0.85,2.92c-3.67,5.59-6.52,9.2-12.27,15.33c-1.48,1.58-1.15,3.13,1.29,2.55C63.88,29,74.42,26.39,83,24.22"/><path d="M78,17.5c3.33,2.07,8.6,8.52,9.43,11.74"/><path d="M49.3,41.88c2.08,0.34,3.85,0.33,5.94,0.07c11.52-1.38,22.54-3.36,33.63-4.07c1.86-0.12,3.75-0.13,5.57,0.14"/><path d="M69.46,30.98c0.17,1.13-0.05,2.45-0.41,3.51C64,49.25,55.25,61.25,44.25,68.73"/><path d="M71.62,41.25c4.45,4.41,13.21,13.79,19.12,18.89c1.81,1.56,3.76,2.86,6.51,4.03"/><path d="M71.73,55.89c0,0.86-0.45,1.86-0.98,2.62c-2.47,3.5-8.16,8.27-17.57,13.67"/><path d="M78.48,66.1c0,0.9-0.21,1.75-1.09,2.8C74.31,72.57,66.79,78.2,56,83.23"/><path d="M85.89,76.57c0,1.3-0.75,2.47-1.58,3.35c-4.46,4.7-15.48,12.8-33.15,18.57"/></svg>