<svg><path d="M26.49,12.75c0.04,0.56,0.16,1.47-0.09,2.26C25,19.5,18.5,29.5,10.74,36.62"/><path d="M23.39,21.38c1.93,0,10.82-1.94,12.85-2.23c1.74-0.25,2.63,1.17,1.91,2.4c-3.05,5.19-5.64,8.95-8.95,16.4"/><path d="M14.6,39.34c0.21,0.54,0.2,0.91,0.31,1.57c0.87,5.51,2.11,19.41,2.51,29.61"/><path d="M15.58,41.29c7.66-0.89,18.8-3.02,24.53-3.8c2.1-0.29,3.14,1.27,3,2.76c-0.51,5.47-1.15,19.3-3.04,29.49"/><path d="M27.91,40.48c0.85,0.74,1.46,2,1.45,3.75c-0.05,7.78-0.37,19.27-0.45,23.12"/><path d="M16.71,54.34c2.5-0.38,23.43-2.43,25.49-2.52"/><path d="M17.87,68.92c5.51-0.24,15.03-1.96,22.64-2.43"/><path d="M13.83,81.57c0,5.23-2.07,12.94-2.61,14.43"/><path d="M22.2,79.33c1.13,2.27,2.21,8.51,2.49,12.04"/><path d="M30.44,77.69c1.39,1.93,3.6,7.95,3.95,10.96"/><path d="M39.05,75.87c2.1,1.9,5.42,7.82,5.95,10.78"/><path d="M69,12.25c0,1.25,0.05,1.65-0.17,2.04c-2.08,3.71-4.43,8.17-8.45,11.6"/><path d="M52.05,26.01c0.68,0.71,1.21,2.03,1.36,2.96c0.81,5.19,2.97,20.49,3.25,25.17"/><path d="M53.81,27.69c9.42-1.28,31.15-4.12,34.62-4.58c1.67-0.22,2.75,1.89,2.39,3.85c-0.81,4.36-2.16,14.96-3.78,23.32"/><path d="M55.21,38.97c8.56-1.75,28.37-3.64,34.22-3.64"/><path d="M56.33,50.49c9.78-0.81,22.41-2.69,30.48-2.93"/><path d="M51.75,61.63c0.95,0.51,4.06,0.15,5.03,0.03c5.46-0.66,21.79-2.69,32.6-3.22c1.47-0.07,2.81,0.1,4.03,0.53"/><path d="M70.11,60.65c1.29,2.08,1.29,3.33,1.29,5c0,11.67-0.07,11.45-0.07,25.97"/><path d="M53.75,77.58c0.72,0.57,3.09,0.34,3.82,0.25c7.65-0.99,18.87-1.94,27.85-2.95c0.9-0.1,2.87-0.23,4.21,0.26"/><path d="M45.34,94.23c0.7,0.31,4.35,0.62,5.54,0.52c14.23-1.28,22.74-2.19,40.5-3.19c2.98-0.17,5.36,0.19,7.26,1"/></svg>