<svg><path d="M25,14.25c0.04,0.57,0.08,1.47-0.08,2.28c-0.94,4.81-6.31,15.37-13.68,21.84"/><path d="M22.89,23.88c1.93,0,13.32-3.44,15.35-3.73c1.74-0.25,2.13,2.17,1.41,3.4c-3.05,5.19-4.48,10.66-9.45,18.9"/><path d="M13.72,43.39c0.23,0.46,0.23,0.77,0.36,1.35c1.02,4.72,2.61,18.64,3.25,27.45"/><path d="M14.78,45.02c7.92-1.19,22.51-3.21,28.42-4.21c2.17-0.37,3.29,0.93,3.17,2.23c-0.41,4.76-1.79,17.76-3.53,26.67"/><path d="M28.56,43.73c0.9,0.59,1.58,2.51,1.61,4.04c0.12,6.73,0.03,16.27,0.03,19.6"/><path d="M17.26,56.73c2.58-0.46,25.26-3.87,27.39-4.06"/><path d="M17.73,69.9c5.71-0.51,17.61-2.62,25.49-3.45"/><path d="M15.57,81.57c0,5.23-3.05,12.94-3.84,14.43"/><path d="M22.65,79.83c1.86,2.36,3.62,8.87,4.09,12.54"/><path d="M32.34,78.69c1.9,2.11,4.92,8.68,5.4,11.96"/><path d="M41.8,77.87c1.83,1.81,4.74,7.46,5.2,10.28"/><path d="M61.4,17.61c0.03,0.42,0.07,1.08-0.07,1.68c-0.81,3.54-5.5,11.33-11.9,16.09"/><path d="M70.66,13.75c4.37,0.85,17.88,14.07,21.29,16.37c1.16,0.78,2.15,1.11,3.3,1.34"/><path d="M58.13,33.94c0.9,0.45,2.53,0.55,3.43,0.45c7.93-0.91,15.84-2.64,20.76-2.88c1.49-0.07,2.39,0.22,3.13,0.44"/><path d="M55.06,46.97c0.73,1.07,1.01,3.64,1.01,5.06c0,1.42,0.04,44.14,0.04,44.56"/><path d="M56.25,48.67c2.76-0.18,28.8-3.25,31.15-3.37c1.96-0.1,3.47,1.76,3.47,4.11c0,1.31-0.79,36.5-0.78,45.6"/><path d="M66.23,34.15c0.26,1.34,0.6,2.5,0.61,3.94C67,53.25,66.5,62.5,60.34,70.25"/><path d="M75.45,34.99c0.49,1.03,0.88,2.24,0.91,3.82c0.09,5.03-0.21,14.3-0.26,20.51c-0.04,5.39,1.37,6.06,6.03,6.06c2.95,0,5.88-0.67,6.22-1.28"/><path d="M56.38,79.98c3.39,0,30.05-2.07,33.88-2.07"/><path d="M56.44,93.42c6.84-0.28,24.74-1.7,33.26-1.94"/></svg>