<svg><path d="M25.99,14.75c0,1.25-0.36,2.3-0.91,3.28C21.62,24.12,18,30.38,9.99,37.12"/><path d="M24.75,22.62c0.57,0,1.86,0.06,3.41-0.19c2.57-0.43,5.77-1.06,7.48-1.37c2.52-0.46,3.11,1.51,1.81,3.13c-1.95,2.43-4.82,5.93-8.82,11.31"/><path d="M13.97,38.19c0.73,0.73,1.15,1.69,1.28,2.48c0.55,3.31,1.28,9.98,2.02,17.22c0.22,2.2,0.45,4.45,0.67,6.67"/><path d="M15.82,39.93c6.5-1.41,14.23-2.56,20.57-3.47c2.46-0.35,4.62,0.29,4.38,3.18c-0.32,3.81-1.26,10.01-2.25,15.98c-0.32,1.95-0.65,3.88-0.96,5.69"/><path d="M27.06,39.59c0.8,0.8,1.04,2.04,1.04,3.43c0,6.13,0.02,13.57,0.02,16.61"/><path d="M17.65,50.39c2.06-0.42,19.4-2.78,21.11-2.95"/><path d="M18.77,61.98c5.73-0.86,12.05-1.89,18.34-2.64"/><path d="M13.3,74.57c0,5.95-2.61,14.73-3.29,16.43"/><path d="M19.45,72.83c0.91,2.36,1.77,8.87,1.99,12.54"/><path d="M25.12,69.38c2.12,1.81,5.47,7.44,6,10.25"/><path d="M32.3,66.37c2.01,1.37,5.2,5.65,5.7,7.78"/><path d="M62.84,15.5c-0.21,1.25-0.76,2.3-1.45,2.88c-5.01,4.24-7.64,6.49-16.88,11.27"/><path d="M44.99,45.8c1.8,0.37,3.59,0.38,5.37,0.02c3.44-0.49,7.98-1.24,11.14-1.79c1.14-0.21,2.28-0.35,3.44-0.41"/><path d="M54.89,27.12c0.87,0.87,1.15,1.63,1.15,2.81c0,2.24,0,34.67-0.02,52.57c-0.01,5.71-0.02,9.94-0.03,11.25"/><path d="M55.58,45.43c0,1.57-0.7,4.22-1.23,5.76c-3.7,10.7-9.24,22.26-16.43,30.6"/><path d="M58.59,54.52c3.55,2.27,6.16,5.73,7.96,9.23"/><path d="M67.67,32.92c1.83,3.83,3.58,11.83,3.37,15.93"/><path d="M94.83,28.53c0,1.35-0.51,2.31-1.25,3.36c-2.46,3.49-6.08,7.86-9.36,11.01"/><path d="M78.48,15.05c0.66,0.77,0.99,2.83,1,4.11c0.27,36.09,0.39,58.59-16.77,74.46"/><path d="M80.25,52.5c3.9,11.7,7.67,21.69,11.54,28.98c1.34,2.52,4.09,7.89,7.84,10.72"/></svg>