<svg><path d="M26.49,12.25c0.04,0.56,0.09,1.45-0.08,2.26c-1,4.76-6.77,15.21-14.67,21.61"/><path d="M24.39,19.88c1.93,0,14.82-2.94,16.85-3.23c1.74-0.25,2.63,1.17,1.91,2.4C40.09,24.24,36,30,31.69,38.95"/><path d="M14.22,42.39c0.21,0.46,0.21,0.77,0.33,1.35c0.95,4.72,3.46,17.14,4.05,25.95"/><path d="M15.21,43.52c7.37-1.19,20.97-3.21,26.47-4.21c2.02-0.37,4.06,1.43,3.95,2.73c-0.38,4.76-2.67,16.26-4.29,25.17"/><path d="M29.02,41.73c0.83,0.59,1.47,2.51,1.5,4.04c0.11,6.73,0.02,16.27,0.02,19.6"/><path d="M18.05,55.23c2.4-0.46,23.49-2.87,25.48-3.06"/><path d="M18.99,68.4c5.31-0.51,13.88-1.62,21.21-2.45"/><path d="M15.14,80.82c0,5.32-2.15,13.16-2.72,14.68"/><path d="M24.14,79.83c1.3,2.36,2.54,8.87,2.87,12.54"/><path d="M32.84,77.94c1.9,2.07,4.92,8.5,5.4,11.71"/><path d="M43.05,76.37c2.28,2.08,5.88,8.55,6.45,11.78"/><path d="M49.67,17.45c0.25,0.32,0.84,1.54,0.95,1.94c0.86,3.17,2.51,9.41,3.1,15.1"/><path d="M51.22,18.6c7.03-1.85,14.15-2.22,15.38-2.4c1.07-0.15,1.71,0.9,1.55,1.8c-0.63,3.7-1.37,8.17-2.31,13.29"/><path d="M54.39,32.73c3.43-0.47,8.7-0.78,13.41-1.51"/><path d="M75.46,15.06c0.29,0.32,0.59,0.59,0.71,0.99c1,3.17,2.47,10.83,3.16,16.53"/><path d="M76.66,16.68c6.95-1.73,12.87-2.03,16.26-2.44c1.24-0.15,1.99,0.9,1.81,1.8c-0.74,3.7-1.94,7.72-3.03,12.84"/><path d="M79.47,30.34c3.99-0.47,7.88-0.28,13.36-1.01"/><path d="M55.28,42.57c0.78,0.42,2.21,0.49,2.99,0.42c6.59-0.6,23.97-3.64,28.79-3.14c1.3,0.13,2.08,0.2,2.73,0.41"/><path d="M50,53.83c1.11,0.52,3.14,0.64,4.25,0.52c11.08-1.19,26.95-2.62,39.12-3.33c1.84-0.11,2.95,0.25,3.88,0.51"/><path d="M63.45,54.16c0.91,1.43,1.34,2.34,0.62,3.85c-0.57,1.21-4.75,7.34-5.12,7.93c-1.47,2.36-0.5,2.97,1.44,2.99c1.22,0.02,21.1-3.26,24.22-3.91c2.43-0.51,3.74,0.71,3.48,3.28c-0.73,7.11-5.84,20.2-12.12,27.81c-3.41,4.13-4.7-1.21-5.5-2.46"/></svg>