<svg><path d="M23.5,12.75c0.04,0.6,0.08,1.54-0.08,2.4c-0.9,5.06-6.09,16.17-13.19,22.97"/><path d="M22.39,21.88c1.93,0,13.32-3.44,15.35-3.73c1.74-0.25,2.63,1.67,1.91,2.9c-3.05,5.19-6.98,11.16-11.95,19.4"/><path d="M12.72,42.68c0.23,0.49,0.23,0.83,0.36,1.45c1.02,5.1,2.11,19.03,2.75,28.55"/><path d="M13.78,43.95c7.92-1.29,20.51-2.05,26.42-3.13c2.17-0.4,3.29,1,3.17,2.41c-0.41,5.15-1.79,17.65-3.53,27.29"/><path d="M27.06,42.97c0.9,0.64,1.58,2.72,1.61,4.36c0.12,7.28,0.03,17.58,0.03,21.19"/><path d="M15.76,56.56c2.58-0.5,23.76-2.18,25.89-2.39"/><path d="M16.23,70.22c5.71-0.55,16.11-1.83,23.99-2.73"/><path d="M13.59,80.57c0,5.23-2.49,12.94-3.13,14.43"/><path d="M20.78,79.58c1.63,2.32,3.18,8.69,3.58,12.29"/><path d="M29.11,78.19c1.98,2.11,5.11,8.68,5.61,11.96"/><path d="M38.3,76.62c2.19,1.95,5.65,8,6.2,11.03"/><path d="M52.23,19.73c5.47-1.2,10.1-1.78,15.81-2.74c1.43-0.24,2.3,1.11,2.09,2.2c-0.85,4.54-2.56,15.03-3.11,20.07"/><path d="M51.9,42.32c4.62-0.58,12.77-1.95,17.02-2.5"/><path d="M50.14,17.1c0.83,0.9,1.68,2.47,1.79,3.88c0,17.05,0,67.92-0.24,76.47"/><path d="M51.9,59.64c3.68-0.46,9.13-1.24,13.54-2.02c1.13-0.2,2.15,0.17,3.02,0.06"/><path d="M52.13,77.5c3.68-0.46,10.13-1.24,14.54-2.02c1.13-0.2,2.15,0.17,3.02,0.06"/><path d="M77.77,18.83C79,19,80.29,19.41,81.31,19.1c4.44-1.35,7.69-1.85,12.12-2.98c1.41-0.36,2.3,1.11,2.1,2.2c-0.85,4.54-2.56,14.32-3.59,19.89"/><path d="M75.95,39.78c1.23,0.22,1.95,0.27,3.17,0.09c3.83-0.57,9.88-1.62,15.21-1.59"/><path d="M72.22,53.34c1.13,0.31,1.22,0.4,3.53,0.31c4-0.15,14.17-1.98,15.72-2.45c1.55-0.47,2.68,1.72,2.12,3.45c-6.64,20.39-18.35,33.91-31.06,41.6"/><path d="M73.42,60.26c1.56,4.88,12.52,23.43,19.93,32.69c1.15,1.44,2,2.4,3.07,2.88"/></svg>