<svg><path d="M26.49,11.75c0.04,0.56,0.09,1.45-0.08,2.26c-1,4.76-6.91,16.74-14.67,24.61"/><path d="M23.89,20.88c1.93,0,15.82-2.44,17.85-2.73c1.74-0.25,2.13,2.17,1.41,3.4c-3.05,5.19-6.98,11.16-11.95,19.4"/><path d="M13.72,43.39c0.23,0.46,0.23,0.77,0.36,1.35c1.02,4.72,2.11,17.14,2.75,25.95"/><path d="M14.78,44.52c7.92-1.19,22.01-2.71,27.92-3.71c2.17-0.37,3.29,0.93,3.17,2.23c-0.41,4.76-1.79,17.76-3.53,26.67"/><path d="M28.56,44.23c0.9,0.59,1.58,2.51,1.61,4.04c0.12,6.73,0.03,16.27,0.03,19.6"/><path d="M16.76,56.23c2.58-0.46,25.26-2.37,27.39-2.56"/><path d="M17.23,68.9c5.71-0.51,17.61-1.12,25.49-1.95"/><path d="M15.29,80.82c0,5.32-3.19,13.16-4.02,14.68"/><path d="M22.06,78.58c1.71,2.79,2.84,10.46,3.27,14.79"/><path d="M31.07,77.19c1.83,2.29,4.73,9.41,5.19,12.96"/><path d="M40.55,75.12c2.1,2.21,5.42,9.09,5.95,12.53"/><path d="M61.36,13c0.03,0.51,0.11,1.46-0.06,2.04c-2.12,7.16-5.26,13.73-10.8,19.5"/><path d="M60.75,23.47c0.69,0.28,1.94,0.35,2.63,0.28c4.37-0.48,20.12-3.25,26.97-4.33c1.13-0.18,1.51-0.06,2.42-0.03"/><path d="M56.27,33.9c0.38,0.58,0.65,1.38,0.77,2.14c0.46,2.71,3.35,19.44,3.48,20.21"/><path d="M57.18,34.63c4.02-0.81,26.72-4.53,28.7-4.64c1.65-0.1,2.72,2.16,2.59,2.73c-0.26,1.16-2.99,21.46-2.99,22.04"/><path d="M60.06,44.03c6.86-1.16,21-3.07,27-3.71"/><path d="M61.91,54.08c7.34-0.83,16.18-2.52,23.67-2.88"/><path d="M64.33,59.25c0.04,0.48,0.08,1.24-0.07,1.93c-0.9,4.07-6.06,13.02-13.12,18.49"/><path d="M66.22,63.98c0.25,0.03,1.84,0,2.57-0.08c2.39-0.26,11.82-1.23,15.23-2.03c2.34-0.55,3.14,0.69,2.41,2.13C81.25,74.25,63.75,93,45,98.5"/><path d="M62.4,69.06c4.04,4.78,22.38,22.95,27.83,27.32c1.63,1.3,2.94,1.94,4.52,2.32"/></svg>