<svg><path d="M25.99,12.25c0.04,0.56,0.21,1.49-0.08,2.26C23.75,20.25,19,28.5,10.74,37.12"/><path d="M22.89,21.88c1.93,0,12.82-2.44,14.85-2.73c1.74-0.25,2.13,2.17,1.41,3.4c-3.05,5.19-5.48,8.66-10.45,16.9"/><path d="M15.52,40.2c0.2,0.54,0.2,0.91,0.31,1.59c0.87,5.56,1.76,20.1,2.28,30.4"/><path d="M15.94,41.67c6.95-0.9,18.8-2.56,23.98-3.36c1.9-0.29,2.87,1.28,2.77,2.79c-0.38,5.52-0.65,18-2.22,28.28"/><path d="M28.03,41.34c0.78,0.75,1.38,3.02,1.39,4.8c0.07,7.85-0.06,17.95-0.07,21.84"/><path d="M18.12,55.35c2.26-0.38,22.14-2.97,24.01-3.06"/><path d="M18.48,70.06c5-0.24,15.44-1.98,22.34-2.46"/><path d="M14.07,80.82c0,5.32-1.66,13.16-2.09,14.68"/><path d="M21.89,79.33c1.08,2.36,2.1,8.87,2.37,12.54"/><path d="M29.75,77.94c1.61,2.07,4.16,8.5,4.57,11.71"/><path d="M37.3,73.87c2.01,1.81,5.2,7.46,5.7,10.28"/><path d="M54.16,34.03c0.03,1.35-0.03,3.47-0.06,5.41c-0.24,18.1-3.21,44.17-9.55,52.59"/><path d="M51.79,32.94c1.1,0.49,3.12,0.61,4.23,0.49c6.48-0.68,21.05-2.18,33.27-3.27c1.83-0.16,2.94-0.26,3.86-0.02"/><path d="M58.6,47.73c1.36,0.27,3.28,0.1,4.11-0.07c2.95-0.59,5.3-0.89,8-1.28c1.38-0.2,2.58-0.36,3.28-0.14"/><path d="M58.29,58.05c0.31,0.39,0.62,0.72,0.75,1.21c1.06,3.9,1.79,11.91,2.51,18.92"/><path d="M60.2,59.7c3.3-0.7,7.21-1.28,10.8-1.8c1.31-0.19,2.1,1.11,1.91,2.21c-0.78,4.56-0.87,7.76-2.02,14.06"/><path d="M61.37,75.93c4.13-0.43,8.63-1.19,11.82-1.19"/><path d="M74.54,12.25c1.08,1.76,1.57,2.24,1.75,6.03c1.38,29.65,6.39,59.49,17.22,75.27c3.48,5.07,4.08-1.6,3.54-9.39"/><path d="M91.67,43.37c0.07,1.11,0.14,2.86-0.13,4.44c-1.63,9.37-10.68,30.72-23.5,43.3"/><path d="M85.39,16.62c2.61,1.46,6.77,4.79,7.99,7.29"/></svg>