<svg><path d="M24.5,12.25c0.04,0.56,0.08,1.45-0.08,2.26c-0.95,4.76-6.43,15.21-13.93,21.61"/><path d="M22.39,20.38c1.93,0,14.32-1.94,16.35-2.23c1.74-0.25,2.63,1.67,1.91,2.9C37.59,26.24,33.5,32,29.69,39.95"/><path d="M13.72,41.21c0.23,0.5,0.23,0.84,0.36,1.46c1.02,5.14,2.11,18.67,2.75,28.26"/><path d="M14.59,42.62c7.79-0.46,19.62-2.78,25.44-3.24c2.13-0.17,3.22,1.39,3.11,2.82c-0.42,5.23-1.32,16.94-3.06,26.63"/><path d="M27.06,41.99c0.9,0.65,1.58,2.74,1.61,4.39c0.12,7.33,0.03,17.71,0.03,21.35"/><path d="M16.5,55.27c2.54-0.23,22.81-2.05,24.91-2.03"/><path d="M16.92,68.81c6.58-0.56,15.3-2,23.04-2.05"/><path d="M13.8,79.07c0,5.41-2.82,13.39-3.56,14.93"/><path d="M20.6,78.33c1.34,2.36,2.61,8.87,2.94,12.54"/><path d="M30.75,76.69c1.61,1.93,4.16,7.95,4.57,10.96"/><path d="M39.3,75.87c1.66,1.9,4.28,7.82,4.7,10.78"/><path d="M50.15,19.63c0.38,0.2,1.07,0.22,1.45,0.2c2.36-0.14,14.55-2.24,16.88-2.01c0.63,0.06,1,0.09,1.32,0.19"/><path d="M45.55,35.76c0.68,0.22,1.92,0.26,2.59,0.22c4.78-0.31,13.88-2.42,20.98-2.12c1.13,0.05,1.8,0.1,2.37,0.21"/><path d="M58.79,34.83c0.13,0.4,0.88,1.59,0.88,4.14c0,11.52,0.11,50.27,0.11,57.99"/><path d="M50.8,49.39c0.45,0.86,0.45,1.67,0.48,2.6C51.5,59,50.5,67.5,47.5,75.5"/><path d="M67.29,48.33c0.08,0.33,1.11,1.7,1.19,3.77c0.38,9.94,0.26,23.98,0.26,27.37"/><path d="M74.82,34.5c0.31,1.01,0.4,1.68,0.47,2.94c0.45,7.32,1.95,26.32,2.21,32.17"/><path d="M75.58,35.88c7.17-1.13,15.86-2.3,20.51-2.88c1.71-0.21,2.57,1.5,2.48,3.09c-0.34,5.83-0.05,23.42-1.42,32.66"/><path d="M76.88,51.67c2.03-0.29,18.93-1.84,20.6-1.84"/><path d="M77.99,67.88c5.75-0.76,12.52-1.2,19.32-1.75"/><path d="M86.05,13.5c0.63,0.48,1,2.17,1.13,3.13c0.12,0.96-0.13,67.9-0.13,81.87"/></svg>