<svg><path d="M26.5,11.25c0.04,0.62,0.09,1.59-0.08,2.47c-0.97,5.21-6.54,16.65-14.18,23.65"/><path d="M24.39,20.38c1.93,0,10.93-2.52,12.85-3.23c1.77-0.65,2.63,1.17,1.91,2.4c-3.05,5.19-4.98,9.16-9.95,17.4"/><path d="M16.22,36.73c0.19,0.54,0.19,0.91,0.3,1.58c0.85,5.52,2.25,21.36,2.78,31.51"/><path d="M17.1,38.72c6.57-0.53,18.24-2.52,23.15-3.04c1.8-0.19,2.72,1.41,2.63,2.88c-0.34,5.41-1.48,19.58-2.93,29.61"/><path d="M28.02,39.03c0.74,0.77,1.31,3.04,1.34,4.79c0.1,7.72,0.02,18.64,0.02,22.46"/><path d="M18.74,51.77c2.14-0.26,20.94-1.79,22.71-1.79"/><path d="M19.63,67.26c4.73,0.02,14.1-1.16,20.63-1.29"/><path d="M15.43,79.32c0,5.32-1.82,13.16-2.3,14.68"/><path d="M22.29,78.08c1.27,2.22,2.48,8.33,2.8,11.79"/><path d="M30.48,76.19c1.54,2.02,3.97,8.32,4.36,11.46"/><path d="M38.55,73.62c1.75,1.77,4.51,7.28,4.95,10.03"/><path d="M50.62,17.45c1.01,0.36,2.85,0.46,3.86,0.36c6.42-0.62,28.59-3.6,34.81-3.18c1.68,0.11,2.69,0.17,3.53,0.35"/><path d="M49.07,27.76c0.29,0.3,0.59,0.55,0.71,0.93c1.01,2.99,2.71,11.24,3.4,16.61"/><path d="M50.38,29.28c7.11-1.25,37.57-3.8,41.23-4.22c1.34-0.15,2.14,1.56,1.95,2.47c-0.79,3.76-1.56,8.82-3.26,14.25"/><path d="M62.33,17.11c0.58,0.47,0.97,2.12,1.04,3.08c0.22,2.84,0.76,14.99,1.29,21.62"/><path d="M77.98,16.29c0.44,0.47,0.65,2.6,0.45,4.73c-0.36,3.81-0.9,12.55-1.8,19.65"/><path d="M52.98,42.82c4.3-0.48,32-2.45,37.46-2.93"/><path d="M56.44,52.26c0.93,0.33,2.62,0.39,3.55,0.33c5.26-0.33,16.06-1.81,22.85-1.89c1.54-0.02,2.47,0.16,3.24,0.32"/><path d="M47.88,63.8c1.23,0.47,3.49,0.54,4.72,0.47c9.13-0.57,26.38-2.39,39.73-2.99c2.05-0.09,3.28,0.22,4.31,0.46"/><path d="M71.21,65.11c0.1,0.45,1.42,2.33,1.42,5.16c0,6.71,0.17,16.55-0.01,21.18c-0.37,9.56-5.14,1.87-7.25-0.23"/><path d="M58.88,73.02c0.04,0.42,0.08,1.09-0.07,1.7c-0.89,3.58-6.56,12.53-15.68,19.06"/><path d="M83.69,73.67c4.99,3.11,13.12,12.44,14.37,17.28"/></svg>