<svg><path d="M17.87,17.25c0.8,0.29,2.27,0.34,3.08,0.29c6.15-0.33,15.37-1.2,22.83-2.05c1.33-0.15,2.14,0.14,2.81,0.29"/><path d="M30.82,9.5c0.11,0.21,1.61,1.08,1.61,2.4c0,5.1,0.36,8.85,0.36,12.4"/><path d="M13.78,25.12c1.24,0.47,3.52,0.51,4.76,0.47c3.91-0.15,23.06-2.36,28.55-2.55c2.07-0.07,3.31,0.22,4.35,0.46"/><path d="M30.9,26.07c0.63,0.34,1.66,1.64,1.66,2.31c0,3.12-0.08,3.37-0.08,4.43"/><path d="M13.9,33.74c0.83,0.24,2.59,0.36,3.37,0.33c7.24-0.31,21.95-1.78,29.22-2.55c1.3-0.14,1.97,0.03,2.94,0.42"/><path d="M31.31,38.5c1.69,0.75,3.69,1,6.57,1.66c0.61,0.14,1.22,0.56,1.12,1.43c-0.27,2.3-6.72,11.7-9.06,13.57c-2.53,2.02-4.43-0.4-4.98-1.85"/><path d="M30.06,34.61c0.25,0.54,0.2,1.15-0.1,1.76c-2.02,4.19-7.85,12.66-16.92,16.62"/><path d="M64.08,9.81c0.03,0.54,0.11,1.4-0.06,2.15C62.75,17.75,59,27,53.29,33.89"/><path d="M63.17,19.95c0.03-0.11,1.8,0.32,2.44,0.29c6.62-0.33,14.46-2.1,24.58-2.62c1.14-0.06,1.83-0.01,2.13,0.05"/><path d="M78.61,22.12c0.14,1.13,0.23,2.11-0.33,3.12C74.25,32.5,67.25,41.5,57.11,46.5"/><path d="M59.32,25.25C66,31,77.51,41.08,87.86,48.46c1.63,1.16,3.93,2.05,5.39,2.15"/><path d="M46.92,44.75c0.06,0.47,0.13,1.22-0.13,1.91c-1.54,4.02-10.39,12.83-22.51,18.23"/><path d="M44.83,51.06c2.57,0,19-1.19,21.7-1.36c2.31-0.15,2.51,1.64,1.54,2.39C64,55.27,62.25,56.75,59,61"/><path d="M30.86,62.83c0.36,0.34,0.41,0.57,0.57,1.02c1.32,3.9,2.32,14.15,3.17,20.78"/><path d="M32.54,63.31c12.6-0.9,36.69-2.62,46.11-3.18c2.09-0.13,3.84,1.62,3.55,3.69c-0.51,3.63-2.76,12.43-4.34,18.45"/><path d="M55.25,62.33c0.45,4.65,0.23,14.81,0.23,17.91"/><path d="M34.9,72.56c4.11-0.35,42.17-2.43,45.56-2.58"/><path d="M35.24,82.16c9.07-0.38,30.1-0.99,42.63-1.61"/><path d="M26.78,88.02c0,4.34-6.38,10.74-8.05,11.98"/><path d="M42.72,87.55c2.96,2.32,5.77,8.7,6.51,12.31"/><path d="M64.15,87.01c2.58,2.24,6.67,9.21,7.32,12.7"/><path d="M82.92,86.99c3.85,2.16,9.94,8.87,10.9,12.22"/></svg>