<svg><path d="M24.49,13.75c0.04,0.56,0.09,1.45-0.08,2.26c-1,4.76-6.77,15.21-14.67,21.61"/><path d="M22.39,21.88C27.25,21,35.5,20,38.23,19.15c1.68-0.52,3.13,1.67,2.41,2.9c-3.05,5.19-5.48,10.16-10.45,18.4"/><path d="M12.72,42.89c0.23,0.46,0.73,2.27,0.86,2.85c1.02,4.72,2.11,17.14,2.75,25.95"/><path d="M13.78,44.52c7.92-1.19,21.51-2.71,27.42-3.71c2.17-0.37,3.29,1.43,3.17,2.73c-0.41,4.76-1.79,17.76-3.53,26.67"/><path d="M27.06,43.23c0.9,0.59,1.58,2.01,1.61,3.54c0.12,6.73,0.03,18.27,0.03,21.6"/><path d="M15.26,56.73c2.58-0.46,25.26-2.87,27.39-3.06"/><path d="M16.73,69.4c5.71-0.51,16.61-1.62,24.49-2.45"/><path d="M14.44,80.63c0,5.75-3.18,14.23-4.01,15.87"/><path d="M19.75,79.5c2.11,2.83,4.11,10.6,4.64,15"/><path d="M29.94,77.82c2.07,2.45,5.34,10.07,5.86,13.87"/><path d="M38.09,75.87c2.97,2.41,7.67,9.92,8.41,13.67"/><path d="M67.1,12.25c0.08,0.88-0.11,1.61-0.35,1.93c-3.44,4.66-5.63,7.95-9.64,11.54c-1.33,1.19-1.71,2.35,0.3,1.93c6.57-1.35,18.36-4.87,25.5-6.35"/><path d="M78.4,16.53c3.77,1.83,9.73,7.53,10.67,10.38"/><path d="M58.78,31.85c0.18,0.25,0.28,1.05,0.18,1.37c-1.3,4.05-5.03,8.98-7.47,11.82c-0.77,0.9-0.4,1.87,0.68,1.38c3.71-1.71,10.92-3.51,15.25-5.27"/><path d="M65.32,37.02c1.37,1.46,3.53,6.02,3.87,8.3"/><path d="M83.99,28.79c0.21,0.3-0.06,1.27-0.18,1.66c-1.58,4.89-2.5,8.56-5.44,11.99c-0.93,1.09-0.51,2.7,0.83,2.23c4.28-1.49,10.2-2.86,15.24-4.42"/><path d="M90.81,35.12c2.3,1.93,5.94,7.95,6.51,10.96"/><path d="M71.4,48.25c0.07,0.47,0.31,1.31-0.13,1.89c-2.69,3.48-14.1,13.55-24.02,18.04"/><path d="M71.98,51.09c3.37,3.34,17.9,14.26,21.62,16.71c1.26,0.83,2.88,1.19,4.14,1.42"/><path d="M75.75,61.02c0.06,0.32-0.27,1.36-0.63,1.78c-2.35,2.72-10.34,7.52-21.39,11.23"/><path d="M81.9,72.15c0.08,0.3-0.21,1.33-0.66,1.71c-3.06,2.65-12.14,8.18-27.57,11.1"/><path d="M90.39,79.92c0.11,0.44-0.27,1.63-0.71,2.26C87.1,85.88,72.76,93.52,52.45,98.5"/></svg>