<svg><path d="M26.49,12.5c0.12,1.12,0.15,2.26-0.28,3.29c-2.42,5.8-7.21,14.7-14.97,22.08"/><path d="M24.39,20.88c1.93,0,14.82-2.94,16.85-3.23c1.74-0.25,2.63,2.17,1.91,3.4c-3.05,5.19-8.48,11.66-13.45,19.9"/><path d="M14.22,42.48c0.62,0.62,0.72,1.45,0.81,2.62c0.34,4.28,1.11,13.16,1.69,20.05c0.19,2.21,0.35,4.21,0.48,5.79"/><path d="M15.99,43.93c7.62-1.24,20.4-2.57,26.09-3.61c2.09-0.38,3.16,0.97,3.05,2.32c-0.32,4.07-1.27,13.17-2.53,21.44c-0.28,1.82-0.57,3.6-0.87,5.28"/><path d="M28.98,43.04c0.86,0.62,1.02,2.12,1.05,3.71c0.13,8.27,0.02,17.46,0.02,19.68"/><path d="M16.89,55.37c8.48-1.12,20.23-2.37,26.33-2.73"/><path d="M18.09,69.06c5.48-0.53,15.18-1.23,22.75-2.1"/><path d="M15.35,79.82c0,5.59-4.29,13.83-5.41,15.43"/><path d="M22.01,77.83c1.19,3.12,2.32,11.69,2.62,16.54"/><path d="M30.61,75.94c1.98,2.68,5.11,11.04,5.61,15.21"/><path d="M39.3,74.87c2.72,2.61,7.02,10.72,7.7,14.78"/><path d="M56.79,14.63c0.64,0.64,0.95,1.44,1.13,2.35c0.7,3.69,1.79,9.9,2.49,15.36c0.24,1.83,0.43,3.58,0.55,5.12"/><path d="M58.53,16.16c6.93-0.96,19.83-2.08,25.01-2.88c1.9-0.3,2.94,0.97,2.78,3.29c-0.21,2.94-1.23,8.57-2.08,13.92c-0.26,1.63-0.51,3.24-0.71,4.74"/><path d="M60.33,25.48c2.26-0.37,22.46-2.11,24.32-2.27"/><path d="M61.82,35.17c4.99-0.41,14.07-1.11,20.96-1.77"/><path d="M53.48,44.66c0.51,0.66,0.79,1.42,0.83,2.27c0.52,2.47,1.18,6.46,1.67,10.08c0.19,1.42,0.36,2.79,0.47,3.99"/><path d="M55.23,46.02c5.58-0.62,27.47-2.57,34.33-3.56c2.67-0.39,3.81,1.77,3.51,3.24c-0.66,3.19-1.2,5.59-1.96,8.66c-0.24,0.98-0.51,2.02-0.8,3.18"/><path d="M66.05,45.99c0.54,0.54,0.85,1.13,0.92,2.5c0.18,3.39,0.41,6.84,0.51,8.31"/><path d="M79.3,45.35c0.5,0.49,0.53,1.22,0.38,2.18c-0.56,3.74-0.74,5.76-0.96,8.4"/><path d="M57.1,58.77c10.21-1.05,21.92-2.45,32.27-2.82"/><path d="M55.13,68.55c1.72,0.19,3.43,0.13,5.12-0.17c5.66-0.72,14.71-1.6,22.14-2.68c2.84-0.41,4.64,0.79,2.71,3.77C77,82.05,62.75,90.72,49.02,96.5"/><path d="M58.2,73.91c5.06,0.61,16.37,11.64,27.68,18.14c2.76,1.71,5.71,3,8.85,3.89"/></svg>