<svg><path d="M25.99,12.25c0.04,0.54,0.09,1.39-0.09,2.16c-1.04,4.56-7,14.58-15.17,20.71"/><path d="M24.89,19.38c1.93,0,12.82-2.94,14.85-3.23c1.74-0.25,2.13,1.67,1.41,2.9c-3.05,5.19-8.48,10.66-13.45,18.9"/><path d="M13.72,40.39c0.2,0.46,0.2,0.77,0.31,1.35c0.89,4.72,1.83,19.14,2.38,27.95"/><path d="M14.64,42.02c6.88-1.19,19.6-2.71,24.74-3.71c1.88-0.37,2.85,0.93,2.75,2.23c-0.36,4.76-2.05,17.76-3.57,26.67"/><path d="M26.6,41.73c0.78,0.59,1.38,2.51,1.4,4.04c0.1,6.73,0.02,16.27,0.02,19.6"/><path d="M15.86,53.73c2.24-0.46,22.42-2.37,24.27-2.56"/><path d="M16.77,67.4c4.95-0.51,15.28-1.12,22.12-1.95"/><path d="M13.27,78.07c0,5.23-2.56,12.94-3.23,14.43"/><path d="M19.45,76.83c0.91,2.36,1.77,8.87,1.99,12.54"/><path d="M27.62,74.94c1.17,2.07,3.03,8.5,3.32,11.71"/><path d="M35.8,73.12c1.31,1.86,3.37,7.64,3.7,10.53"/><path d="M53.09,15.78c2.42,1.72,6.07,6.59,6.67,9.27"/><path d="M86.6,14.5c0.02,0.25,0.04,0.65-0.04,1.01c-0.47,2.12-3.16,6.77-6.84,9.62"/><path d="M47.75,30.02c0.49,0.15,1.81,0.4,3.13,0.45c3.62,0.15,33.25-2.91,39.01-2.61c1.31,0.07,1.64-0.15,2.47,0"/><path d="M69.15,12c0.82,0.3,1.32,1.35,1.48,1.96c0.16,0.6,0,34.28-0.17,38.04"/><path d="M69.15,30.31c-3.79,5.98-13,14.37-21.52,17.82"/><path d="M71.27,31.21c3.24,2.03,17.43,11.65,20.94,13.65c1.19,0.68,2.21,0.97,3.4,1.16"/><path d="M54.78,52.06c0.13,0.32,0.4,1.26,0.26,1.89C54.19,57.67,49,65.69,42.36,70.68"/><path d="M53.49,59.36c0.21,0.03,1.11,0,1.72-0.08c1.98-0.26,5.99-0.52,8.64-1.53c1.9-0.73,2.5,0.64,2,2.17c-2.72,8.36-16.45,28.81-28.59,33.12"/><path d="M47.57,67.44c2.16,1.43,5.59,5.88,6.13,8.11"/><path d="M71.17,63.27c0.72,0.2,2.04,0.26,2.75,0.2c4.58-0.35,15.1-2.38,20.04-2.3c1.2,0.02,1.92,0.1,2.51,0.2"/><path d="M73.87,63.7c0.12,0.78,0.07,13-0.1,14.11"/><path d="M63.52,78.27c0.81,0.08,1.9,0.18,3.17,0.08c9.55-0.75,26.22-2.43,27.43-2.43c1.39,0,3.31,0,4.88,0.2"/><path d="M84.64,50.25c0.88,0.28,1.41,1.27,1.59,1.84s0,42.87-0.18,46.41"/></svg>