<svg><path d="M25.49,12.25c0.04,0.56,0.09,1.45-0.08,2.26c-1,4.76-7.16,16.49-15.67,24.11"/><path d="M23.39,20.88c1.93,0,11.82-1.94,13.85-2.23c1.74-0.25,3.13,1.17,2.41,2.4c-3.05,5.19-5.89,10.95-9.95,19.9"/><path d="M13.53,42.32c0.22,0.48,0.22,0.8,0.35,1.4c0.99,4.89,2.02,18.61,2.61,27.62"/><path d="M14.57,44.07c7.79-0.54,20.65-2.41,26.47-2.92c2.14-0.19,3.23,1.22,3.11,2.54c-0.42,4.81-0.82,17.4-2.56,26.32"/><path d="M27.12,42.91c0.88,0.68,1.55,2.69,1.57,4.24c0.09,6.86-0.03,16.54-0.04,19.94"/><path d="M16.48,55.64c2.54-0.25,24.84-1.79,26.94-1.8"/><path d="M16.9,69.06c5.61-0.03,17.32-2.17,25.07-2.34"/><path d="M13.8,81.32c0,5.14-2.61,12.71-3.29,14.18"/><path d="M21.45,80.83c0.91,2.36,1.77,8.87,1.99,12.54"/><path d="M29.98,78.94c1.54,2.15,3.97,8.86,4.36,12.21"/><path d="M38.8,76.12c2.01,2.3,5.2,9.46,5.7,13.03"/><path d="M51.71,21.69c0.28,0.55,0.56,0.82,0.56,1.55c0,0.73,3.51,20.49,3.51,20.85c0,0.37,0.09,0.37,0.19,1.1"/><path d="M52.73,22.71c2.58-0.34,34.62-4.1,36.9-3.99c1.2,0.06,2.97,1.38,2.66,3.13c-0.6,3.37-4.25,20.09-4.79,21.14"/><path d="M62.37,13.45c0.58,0.23,1.36,1.94,1.4,2.41c0.91,10.52,2.53,22.1,2.93,26.41"/><path d="M78.56,12.25c0.58,0.23,1.11,2.04,1.05,2.52c-0.6,4.98-1.26,14.72-2.22,26.43"/><path d="M54.71,32.02c2.14,0,33.17-2.8,35.59-2.8"/><path d="M56.61,43.35c4.36-0.35,25.33-2.27,30.75-2.57"/><path d="M54.92,52.25c0.89,0.52,2.51,0.58,3.4,0.52c9.23-0.6,19.43-2.27,29.84-2.65c1.48-0.05,2.37,0.25,3.1,0.51"/><path d="M56.8,59.35c0.42,0.36,0.96,1.96,1.04,2.43c0.57,3.44,1.73,5.85,2.57,12.69"/><path d="M58.43,60.82c6.42-0.69,22.19-3.08,26.57-3.19c1.81-0.04,2.7,0.9,2.29,2.9c-0.73,3.59-1.52,5.34-2.48,9.56"/><path d="M60.75,72.72c4.74,0,19.61-2.25,26.16-2.36"/><path d="M59.73,79.6c2.09,1.91,5.4,7.87,5.92,10.84"/><path d="M83.67,75.04c0.02,0.34,0.48,2.03,0.42,2.52c-0.33,2.86-2.66,8.54-5.24,12.38"/><path d="M49.38,94.48c1.35,0.53,3.82,0.62,5.17,0.53c14.02-0.89,24.7-2.31,39.62-2.68c2.24-0.06,3.59,0.25,4.72,0.52"/></svg>