<svg><path d="M23.5,13c0.04,0.59,0.08,1.53-0.07,2.38c-0.87,5.01-5.86,16.01-12.69,22.74"/><path d="M20.89,23.38c4.86-0.63,12.61-1.88,16.85-4.23c1.53-0.85,2.13,2.17,1.41,3.4c-3.05,5.19-5.98,10.16-10.95,18.4"/><path d="M12.22,42.18c0.22,0.49,0.22,0.82,0.34,1.43c0.98,5.01,2.01,18.06,2.62,27.3"/><path d="M13.73,43.98c7.55-0.59,20.98-2.59,26.62-3.15c2.07-0.21,3.13,1.24,3.03,2.58c-0.39,4.93-1.21,16.36-2.87,25.52"/><path d="M26.37,42.71c0.86,0.69,1.51,2.75,1.54,4.34c0.11,7.03,0.02,16.97,0.02,20.45"/><path d="M15.12,55.83c2.46-0.27,24.08-1.97,26.11-2"/><path d="M15.57,68.57c5.44-0.06,16.79-1.3,24.3-1.51"/><path d="M12.1,80.32c0,5.14-1.91,12.71-2.4,14.18"/><path d="M20.26,79.83c0.96,2.65,1.88,9.93,2.12,14.04"/><path d="M29.79,78.69c1.76,2.29,4.54,9.41,4.98,12.96"/><path d="M39.05,76.87c2.1,2.17,5.42,8.91,5.95,12.28"/><path d="M55.36,13.36c2.44,1.71,6.29,7.04,6.9,9.7"/><path d="M79.87,11.89c0.01,0.23,0.03,0.6-0.03,0.93c-0.34,1.96-2.31,6.26-5.01,8.89"/><path d="M50.39,25.1c0.76,0.16,2.16,0.21,2.92,0.16c7.35-0.45,26.34-2.2,34.28-2.77c1.26-0.09,2.03,0.08,2.67,0.16"/><path d="M68.14,26.78c0.71,0.42,1.13,1.88,1.27,2.71c0.14,0.83,0,8.64-0.14,13.85"/><path d="M52.15,35.24c0.67,0.19,1.89,0.26,2.55,0.19c5.03-0.5,23.64-1.96,30.99-2.54c1.1-0.09,1.78,0.09,2.33,0.19"/><path d="M46.59,44.82c0.88,0.23,2.51,0.31,3.39,0.23c6.26-0.6,33.55-2.69,43.49-3.19c1.47-0.07,2.35,0.11,3.09,0.22"/><path d="M59.8,44.78c0.04,0.48,0.16,1.27-0.08,1.91c-2.04,5.31-8.11,13.74-14.46,18.32"/><path d="M77.5,44.89c3.06,2.55,13.47,13.54,16.2,15.86c0.93,0.79,2.12,1.13,3.04,1.35"/><path d="M61.88,52.54c0.85,0.24,1.55,0.6,2.34,0.49c3.41-0.49,7.68-0.57,11.43-1.48c0.71-0.17,1.43,0.16,2.14,0.05"/><path d="M59.67,60.64c1.81-0.07,18.15-2.52,19.8-2.6c1.37-0.07,2.23,0.52,2.15,2.03c-0.18,3.16-2.1,14.84-2.1,15.24"/><path d="M59.99,67.92c2.44,0,17.42-2.32,20.18-2.32"/><path d="M59.88,75.73c4.97-0.29,12.7-1.95,18.89-2.19"/><path d="M57.73,59.79c0.9,0.35,1.44,1.58,1.62,2.29c0.18,0.7,0.18,29.88,0.18,31.64c0,2.58-0.77,5.06,1.39,3.83c2.16-1.23,8.8-6.12,10.6-7.7"/><path d="M85.62,75.33c0.18,0.88,0.12,2.38-0.49,2.91c-2.09,1.78-4.81,4.22-6.44,5.46"/><path d="M68.04,78.59c3.11,0,19.4,15.92,21.94,17.1c3.66,1.71,4.21,1.71,6.03,2.09"/></svg>