<svg><path d="M26.64,16.12c0.99,0.99,1.13,2,1.13,3.6c0,39.86-4.69,57.36-17.51,70.27"/><path d="M12.25,38.92c1.89,0.76,4.42,0.78,6.37,0.19c4.23-1.29,14.68-4.58,18.51-5.72c3.05-0.91,4.08-0.14,3.55,3.1C39.5,43.75,38,55.38,37.31,63.66c-1.15,13.79-0.43,15.47,6.42,15.47c5.52,0,7.11-0.48,7.25-8.18"/><path d="M72.63,11.18c0.07,0.88-0.02,1.75-0.43,2.53c-1.46,2.79-3.36,6.01-6.82,9.79"/><path d="M59.04,25.32c0.89,0.94,0.9,1.93,0.9,3.56c0,7.32-0.05,22.85-0.06,34.5c0,2.26,0,4.37,0,6.25"/><path d="M60.88,26.72c6.37-1.22,17.99-3.47,23.1-4.23c2.37-0.35,3.27,2,3.11,3.74c-0.34,3.65-1.46,11.15-2.81,20.02"/><path d="M60.9,36.44c5.98-0.94,15.35-2.69,24.18-3.13"/><path d="M61.05,46.78c6.07-0.91,17.28-2.38,22.46-2.7"/><path d="M60.78,57.8c7.49-1.11,22.8-2.87,29.45-3.88c2.24-0.34,5.03-1.15,7.28-0.52"/><path d="M60.27,69.15c9.16-1.32,21.36-3.15,29.32-3.65c3.55-0.22,5.33,2.08,4.69,5.5c-1.76,9.5-3.05,15.96-5.93,22c-2.74,5.75-4.89,3.25-7.82,0.25"/><path d="M55.29,83.5c0.38,4.41-1.53,8.99-2.66,11.75"/><path d="M60.96,80.75c1.72,1.56,3.35,5.87,3.78,8.3"/><path d="M69.21,76.75c1.59,1.41,4.1,5.8,4.5,8"/><path d="M77.97,72.75c1.93,1.41,4.99,5.8,5.48,8"/></svg>