<svg><path d="M53.93,8.68c0.02,0.2,0.04,0.53-0.04,0.82c-0.45,1.73-3.01,5.54-6.51,7.87"/><path d="M30.58,18.78c0.39,0.27,0.71,1.64,0.71,2.11c0,4.76,0.04,23.04-0.19,30.54"/><path d="M31.78,20.6c1.83-0.07,40.67-3.53,42.46-3.53c2.64,0,3.93,1.76,3.69,3c-0.14,0.76-0.93,5.18-1.64,13.79"/><path d="M32.07,27.4c2.24,0,42.39-2.78,44.93-2.78"/><path d="M31.97,35c4.57-0.27,38.61-2.42,44.3-2.66"/><path d="M32.22,42.72c9.65-0.93,43.03-2.72,48.83-2.98c1.46-0.07,3.9,0.12,4.63,0.25"/><path d="M31.1,51.58c10.65-0.58,48.3-2.04,54.26-2.59c3.87-0.36,5.86,1.67,5.16,4.12c-1.94,6.81-3.51,13.1-6.67,17.43c-3.01,4.12-3.85,1.21-5.61-1.32"/><path d="M23.61,58.52C22.96,63.33,20.91,68.6,17.96,71"/><path d="M36.4,56.57c1.8,1.88,3.5,7.06,3.95,10"/><path d="M50.74,56.6c1.57,1.58,4.06,6.52,4.45,8.99"/><path d="M66.82,54.94c2.04,1.5,5.26,6.18,5.77,8.52"/><path d="M38.78,71.41c0.97,1.34,1.08,1.89,1.09,2.86C40,85.25,35,97,19.25,100.5"/><path d="M40,74.27c5.25-0.02,17.22-1.78,21.5-1.78c2.25,0,3.5,1.26,3.5,3.25c0,4.26,0,13.48,0,16.08c0,4.18,2.25,7.79,12.75,7.79c14.25,0,14.5-1.61,14.5-9.21"/></svg>