<svg><path d="M49.72,10.68c0.03,0.27,0.07,0.7-0.06,1.08c-0.76,2.28-5.15,7.3-11.15,10.37"/><path d="M32.88,23.32c0.96,0.8,1.57,2.55,1.57,3.69c0,6.86,0.02,24.01-0.12,35.24c-0.03,2.27-0.06,4.3-0.11,5.95"/><path d="M35.8,25.86c9.2-1.73,23.7-4.36,29.64-4.87c3.06-0.26,4.32,2.26,4.04,3.99c-0.15,0.92-1.49,7.58-3.2,14.78c-0.26,1.09-0.52,2.18-0.78,3.24"/><path d="M35.86,35.44c3.64-0.69,26.27-4.19,30.87-4.38"/><path d="M35.49,45.53c7.01-1.03,21.26-3.53,29.23-4.2"/><path d="M35.78,56.05c11.22-1.3,37.15-4.84,41.97-5.55c1.68-0.25,4.53-0.28,5.38-0.1"/><path d="M34.75,68.27c15.75-2.64,42-5.64,49.75-6.27c4.51-0.36,6.81,2.33,6,5.75c-2.25,9.5-5.82,18.96-9.5,25C77.5,98.5,74.75,96,71,93"/><path d="M20.81,80.25c0.44,6-0.31,13.25-1.6,17"/><path d="M34.38,78.38c2.97,1.96,5.79,7.37,6.54,10.43"/><path d="M48.88,75.12c2.34,1.57,6.04,6.44,6.62,8.88"/><path d="M62.88,72c2.69,1.68,6.95,6.89,7.62,9.5"/></svg>