<svg><path d="M50.22,8.68c0.02,0.25,0.04,0.64-0.04,0.99c-0.51,2.09-3.43,6.69-7.43,9.5"/><path d="M31.13,20.35c0.46,0.31,0.82,1.75,0.82,2.29c0,5.54,0.05,26.32-0.23,35.04"/><path d="M32.52,21.81c2.13-0.08,32.61-3.27,34.67-3.03c1.82,0.22,3.44,1.45,3.29,2.91C70.25,24,69.5,31.75,68.25,38.65"/><path d="M32.86,29.72c2.61,0,33.42-2.74,36.37-2.74"/><path d="M32.74,39.56c5.31-0.31,28.87-2.32,35.48-2.59"/><path d="M32.03,48.04c13.4-1.09,44.65-3.8,50.42-4.13c2.79-0.16,5.41,0.05,6.42,0.21"/><path d="M31.73,57.85c12.48-1.74,47.85-4.2,54.77-4.85c4.5-0.42,5.31,1.45,4.5,4.3c-2.25,7.93-4.32,14.82-8,19.86c-3.5,4.8-6.5,1.83-8.5-1.79"/><path d="M36.51,67.77c0.66,0.9,1.11,2.11,1.11,3.24c0,10.31-3.67,24.9-20.87,30.49"/><path d="M37.67,70.06c2.88-0.67,14.58-2.56,17.8-3.08c2.37-0.38,4.79,0.67,4.22,4.03c-0.58,3.36,0.15,17.25,0.12,19.71c-0.06,4.78,3.44,7.89,15.4,7.89c14.04,0,17.36-4.08,17.36-9.23"/></svg>