<svg><path d="M13.17,38.73c0.93,0.93,1.5,1.9,1.62,2.77c0.92,3.74,1.68,10.13,2.44,16.01c0.18,1.37,0.34,2.72,0.48,4"/><path d="M15.29,40.19c6.83-1.31,15.8-3.06,19.14-3.7c1.94-0.37,3.32,1.01,2.9,3.16c-0.89,4.51-1.58,8.97-3.28,15.48"/><path d="M17.86,58.94c3.8-0.48,9.58-1.5,14.88-2.26c1.29-0.19,2.59-0.37,3.87-0.55"/><path d="M64.2,9.62c0.08,0.79-0.07,1.54-0.43,2.25c-1.1,2.6-4.06,6.73-7.91,9.27"/><path d="M49.06,20.86c0.85,0.85,1.42,1.76,1.42,3.23c0,6.34-0.18,29.3-0.87,42.42c-0.1,1.81-0.2,3.45-0.32,4.86"/><path d="M51.81,23.72c6.73-0.87,22.73-3.18,24.02-3.1c2.51,0.16,3.73,2.15,3.51,4.01c-0.12,0.99-0.84,7.61-1.91,15.86c-0.17,1.32-0.35,2.68-0.54,4.06"/><path d="M51.22,34c4.03-0.37,23.87-2.75,26.28-2.6"/><path d="M51.12,45.51c6.25-0.63,18.88-2.01,24.74-2.5"/><path d="M51.36,57.22c10.98-0.84,30.89-3.61,35.6-4.14c1.65-0.18,4.68-0.35,5.52-0.1"/><path d="M49.3,71.59c11.95-2.09,35.4-4.92,41.04-5.41c3.67-0.32,6,1.99,4.9,5.55c-2.62,8.51-5.62,16.76-9.01,22.7C83.92,98.52,80.5,98,76.5,93.5"/><path d="M32.9,81.88c-0.52,5.37-2.07,10.78-4.38,13.57"/><path d="M44.62,79.75c2.08,2.35,4.06,8.54,4.58,12"/><path d="M59,78.38c1.94,1.75,5.01,7.04,5.5,9.62"/><path d="M72.5,74.88c2.29,1.72,5.92,6.86,6.5,9.38"/></svg>