<svg><path d="M29.91,39c0.08,1.49-0.05,1.93-0.31,2.92C25.63,56.99,16.67,76.6,9.75,84.75"/><path d="M21.73,13c0.92,0,2.72,1.76,3.18,3.19C32,38.25,37.47,62.34,46.2,77.55c0.88,1.54,1.49,2.45,2.3,2.95"/><path d="M71.54,9.66c0.02,0.29,0.05,0.75-0.04,1.16c-0.53,2.42-3.54,7.61-7.66,10.63"/><path d="M57.3,22.92c0.33,0.43,0.6,1.02,0.6,1.73c0,7.23,0.04,32.51-0.17,43.88"/><path d="M58.31,24.27c1.72,0,22.74-3.43,24.42-3.33c2.48,0.15,3.7,2.01,3.47,3.76c-0.13,1.07-1.82,13.85-3.42,22.06"/><path d="M58.59,35.32c3.91-0.57,21.66-3.07,25.79-3.4"/><path d="M58.49,46.62c4.3-0.13,18.91-2.79,24.27-2.81"/><path d="M58.69,57.86c8.18-0.84,30.29-3.86,33.8-4.38c1.22-0.19,3.3-0.35,3.92-0.11"/><path d="M57.74,68.75c9.1-1.63,28.13-3.92,33.17-4.4c3.28-0.31,4.97,0.89,4.38,4.57c-1.64,10.24-4.79,19.82-9.43,26.75c-3.86,5.77-5.97,0.04-7.3-1.24"/><path d="M53.89,78.98c0.62,5.22-0.45,11.49-2.27,14.69"/><path d="M60.57,77.99c1.04,2.23,2.03,8.09,2.29,11.37"/><path d="M68.72,73.79c1.51,1.87,3.89,7.51,4.27,10.26"/><path d="M76.66,71.73c1.89,1.85,4.88,7.42,5.36,10.14"/></svg>