<svg><path d="M15.78,29.38c0,3.76-2.5,14.11-3.64,16.62"/><path d="M15.49,33.22c10.76-1.97,22.67-3.26,29.61-3.97c9.31-0.95,2.95,5.75-0.35,8.36"/><path d="M30.45,13.5c0.66,1.74,0.83,2.29,0.84,5c0.13,22.67-0.17,59.8-20.38,75.67"/><path d="M32.99,48.37c0.74,1.19,1.33,2.59,1.38,4.43c0.2,8.19-0.11,19.7-0.11,28.95c0,2,1.29,3.35,3.5,1.25C42.5,78.5,45,76,50.5,70.25"/><path d="M70.63,10.66c0.02,0.3,0.03,0.79-0.03,1.21c-0.34,2.52-2.3,7.93-4.99,11.08"/><path d="M58.71,23.92c0.35,0.43,0.63,2.02,0.63,2.73c0,7.23-0.46,32.51-0.68,43.88"/><path d="M59.27,26.17c1.63,0,23.07-2.83,24.66-2.74c2.35,0.14,3.5,1.92,3.29,3.59c-0.13,1.03-1.97,13.47-3.74,20.14"/><path d="M59.53,36.58c2,0.13,23.71-2.74,25.97-2.59"/><path d="M59.44,47.62c4.07-0.14,19.45-2.48,24.52-2.5"/><path d="M59.17,59.31c9.21-1.05,29.58-3.57,33.53-4.23c1.38-0.23,3.72-0.44,4.41-0.13"/><path d="M58.67,70.75c9.83-1,28.46-2.92,33.76-3.4c3.45-0.31,5.22,0.89,4.6,4.57c-1.73,10.24-3.29,16.46-6.28,22.75c-3.01,6.33-6.27,1.04-7.67-0.24"/><path d="M53.34,82.23c0.42,3.71-0.84,10.27-3.03,12.94"/><path d="M60.06,80.49c2.05,2.13,3.99,7.74,4.5,10.87"/><path d="M69.89,79.04c1.67,1.83,4.32,7.32,4.74,10.01"/><path d="M80.03,76.73c1.98,1.58,5.11,6.33,5.6,8.64"/></svg>