<svg><path d="M21.13,17.73c1.52,0.54,4.3,0.65,5.82,0.54c17.8-1.27,36.8-4.02,56.61-4.23c2.53-0.03,4.05,0.26,5.31,0.53"/><path d="M25,18.5c0.03,1.71,0.07,4.42-0.07,6.88c-0.81,14.51-2.64,49.71-11.38,65.34"/><path d="M46.51,23.64c0.11,0.8,0.2,1.81-0.1,2.8c-1.9,6.24-9.25,18.31-18.1,26.78"/><path d="M36.53,46c0.59,0.61,0.76,1.97,0.76,3.23c0,13.02-0.29,38.65-0.29,47.4"/><path d="M67.25,20.66c0.02,0.29,0.04,0.76-0.04,1.17c-0.44,2.43-2.98,7.65-6.44,10.68"/><path d="M53.16,32.88c0.35,0.34,0.63,0.8,0.63,1.35c0,5.67,0.04,27.43-0.17,36.34"/><path d="M54.22,33.91c1.62,0,21.95-3.48,23.53-3.4c2.34,0.12,3.48,1.69,3.27,3.15C80.9,34.56,80.31,44,78.8,50.87"/><path d="M53.98,43.08c1.99,0.1,23.58-3.15,25.83-3.03"/><path d="M53.89,51.62c4.05-0.11,19.85-2.45,24.89-2.46"/><path d="M54.11,60.71c8.56-0.66,27.98-3.74,31.65-4.15c1.28-0.15,3.45-0.28,4.1-0.08"/><path d="M53.62,70.74c9.52-1.28,29.31-3.68,34.59-4.05c3.43-0.25,5.07,0.68,4.58,3.58c-1.54,8.98-3.25,16-6.25,22.57c-3.04,6.67-5.29,2.92-7.63-0.19"/><path d="M49.19,81.52c-0.19,4.48-2,8.63-4.07,11.18"/><path d="M55.25,79.66c1.92,1.93,3.75,7.01,4.22,9.84"/><path d="M65.54,77.57c1.58,1.52,4.07,6.09,4.46,8.33"/><path d="M75.13,75.51c2.06,1.51,5.31,6.07,5.83,8.29"/></svg>