<svg><path d="M25.29,8.91c0.02,0.32,0.04,0.83-0.03,1.28c-0.42,2.67-2.85,8.4-6.17,11.72"/><path d="M13.3,20.88c0.33,0.42,0.6,1.99,0.6,2.68c0,7.05,0.04,34.64-0.17,45.72"/><path d="M14.31,23.67c1.55,0,21-3.09,22.51-2.98c2.24,0.15,3.33,2.1,3.13,3.92c-0.12,1.12-1.45,12.65-2.08,20.92"/><path d="M14.56,34.7c1.9,0.13,21.6-2.67,23.75-2.53"/><path d="M14.47,46.45c3.88-0.13,17.55-2.42,22.38-2.44"/><path d="M14.19,57.38c8.18-0.82,20.29-2.78,23.8-3.3c1.22-0.18,3.3-0.34,3.92-0.1"/><path d="M13.74,69.5c9.1-1.59,22.63-3.33,27.67-3.8c3.28-0.31,4.97,0.87,4.38,4.46c-1.64,9.98-4.08,19.46-6.93,25.59c-2.86,6.17-5.97,1.02-7.3-0.23"/><path d="M10.26,79.67c0.25,3.62-0.18,7.96-0.91,10.18"/><path d="M15.32,78.72c1.84,1.65,3.58,5.97,4.04,8.39"/><path d="M24.2,76.81c1.34,1.38,3.46,5.54,3.8,7.57"/><path d="M32.16,74.06c1.71,1.32,4.43,5.28,4.86,7.21"/><path d="M51.75,32.07c1.1,0.72,2.38,1.45,4.03,1.21c1.65-0.24,26.67-2.93,28.85-3.36c3.67-0.72,4.89,0.33,3.92,4.33c-1.06,4.35-2.8,14.75-3.2,19"/><path d="M47.12,56.91c0.94,0.33,3.34,0.49,4.38,0.45c8.7-0.28,28.74-2.87,42.02-4.19c2.57-0.26,3.22,0.08,4.57,0.68"/><path d="M68.11,10.75c0.5,1.06,1.45,2.22,1.45,4.44c0,9.46-0.17,11.75-0.17,18.91c0,32.16-9.64,53.16-22.97,63.41"/><path d="M68.8,55.96c5.95,11.29,17.45,31.54,24.26,38.75c2.13,2.25,2.76,2.67,3.69,2.89"/></svg>