<svg><path d="M33.15,13c0.07,0.95,0.3,2.5-0.14,3.83c-2.76,8.4-11.51,25.56-21.76,35.76"/><path d="M32.67,20.04c7.64,2.9,17.07,12.28,19.14,18.05"/><path d="M28.45,40.83c3.7,1.74,9.57,7.17,10.49,9.88"/><path d="M14.69,58.87c1.07,0.88,3.33,1.31,4.55,1.08c2.41-0.44,25.25-4.31,27.79-4.75c2.54-0.44,3.18,1.04,1.35,3.38c-4.28,5.48-16.07,20.99-17.68,22.75"/><path d="M20.75,72.4c4.23,2.83,15.18,13.7,17.17,21.1"/><path d="M70.54,11.16c0.02,0.3,0.04,0.79-0.04,1.21c-0.48,2.52-3.2,7.93-6.92,11.08"/><path d="M57.8,23.42c0.33,0.43,1.1,2.02,1.1,2.73c0,7.23,0.04,32.01-0.17,43.38"/><path d="M59.31,25.75c1.55,0,22-3.17,23.51-3.06c2.24,0.16,3.33,2.15,3.13,4.02c-0.12,1.15-1.64,13.19-3.08,21.96"/><path d="M59.56,36.08c1.9,0.13,22.6-2.74,24.75-2.59"/><path d="M59.47,48.12c3.88-0.14,18.55-2.48,23.38-2.5"/><path d="M59.69,58.86c8.18-0.84,26.29-2.86,29.8-3.38c1.22-0.19,3.3-0.35,3.92-0.11"/><path d="M58.74,69.75c9.1-1.63,27.13-3.42,32.17-3.9c3.28-0.31,4.97,0.89,4.38,4.57C93.65,80.66,92.25,88,87.86,94.67c-3.81,5.8-6.47,1.04-7.8-0.24"/><path d="M52.77,78.98c0.62,5.58-0.95,12.77-2.78,16.19"/><path d="M59.57,78.49c1.95,2.62,3.8,9.52,4.29,13.37"/><path d="M68.99,77.04c1.76,1.83,4.54,7.32,4.98,10.01"/><path d="M78.16,75.73c1.89,1.67,4.88,6.69,5.36,9.14"/></svg>