<svg><path d="M27.54,10.66c0.02,0.31,0.04,0.8-0.04,1.24c-0.48,2.58-3.2,8.09-6.92,11.3"/><path d="M14.3,22.92c0.33,0.43,0.6,1.02,0.6,1.73c0,7.23,0.04,31.01-0.17,42.38"/><path d="M15.31,25.25c1.55,0,20.5-3.17,22.01-3.06c2.24,0.16,3.33,2.15,3.13,4.02c-0.12,1.15-1.64,11.69-3.08,20.46"/><path d="M15.56,35.08c1.9,0.13,21.1-2.74,23.25-2.59"/><path d="M15.47,46.62c3.88-0.14,17.05-2.48,21.88-2.5"/><path d="M15.69,56.36c8.18-0.84,26.79-2.86,30.3-3.38c1.22-0.19,3.3-0.35,3.92-0.11"/><path d="M14.74,67.25c9.1-1.63,26.63-3.42,31.67-3.9c3.28-0.31,4.97,0.89,4.38,4.57c-1.64,10.24-4.65,18.96-7.5,25.25c-2.86,6.33-5.97,1.04-7.3-0.24"/><path d="M12.77,79.73c0.4,3.71-0.29,8.16-1.46,10.44"/><path d="M19.82,77.49c1.84,1.84,3.58,6.67,4.04,9.37"/><path d="M28.7,75.79c1.34,1.42,3.46,5.68,3.8,7.76"/><path d="M36.16,72.48c1.71,1.35,4.43,5.41,4.86,7.39"/><path d="M70.98,12.99c0.86,0.4,2.09,2.33,2.07,3.47c-0.06,3.59-0.06,7.7-0.07,10.96"/><path d="M54.63,29.24c0,3.62-1.85,11.09-2.92,13.51"/><path d="M54.67,30.11c12.83-1.86,33.46-3.56,38.79-3.34c7.04,0.29-0.51,6.19-2.26,7.87"/><path d="M90.52,44.51c0.19,0.42,0.31,1.63-0.18,2.27c-3.2,4.15-14.19,15.59-24.54,19.84"/><path d="M63,39.38c0.7,1.02,0.75,1.7,0.98,3.05c0.23,1.36-0.09,39.13-0.09,43.38c0,9.19,1.61,11.71,16.65,11.71c6.17,0,10.66-1.08,12.99-4.13c2.33-3.05,2.04-6.6,2.27-9.65"/></svg>