<svg><path d="M14.74,27.29c0.86,0.86,1.25,2,1.33,2.94c0.63,8.09,1.62,21.99,2.36,35.02c0.2,3.51,0.38,6.96,0.54,10.21"/><path d="M17.22,28.97c6.72-0.55,19.18-2.08,25.29-2.8c2.64-0.31,4.4,0.87,4.25,3.89c-0.29,5.8-1.19,20.78-2.02,33.32c-0.24,3.62-0.48,7.03-0.69,9.96"/><path d="M29.8,29.24c0.8,0.8,1.04,1.51,1.04,2.75c0,10.35-0.09,31.77-0.09,37.89"/><path d="M18.32,49.3c6.8-0.8,18.55-2.05,26.35-2.23"/><path d="M19.84,72c8.53-0.75,16.23-1.73,23.45-1.76"/><path d="M70.09,9.41c0.07,0.69-0.17,1.39-0.48,2c-1.74,3.34-3.49,5.84-6.74,9.59"/><path d="M56.23,22.94c0.85,0.85,0.9,1.81,0.9,3.08c0,5.12,0.04,20.3,0.06,31.85c0,3.4,0.01,6.24,0.01,8.66"/><path d="M57.83,24.16c8.18-1.24,18.6-2.74,23.17-3.18c3.42-0.33,5.25,1.47,4.75,4.9c-0.36,2.47-1.14,8.28-2.09,14.11c-0.27,1.67-0.56,3.34-0.85,4.93"/><path d="M58.1,34.47c10.28-1.09,16.15-1.72,25.52-2.13"/><path d="M58.25,45.29c7.5-0.54,16.25-1.54,23.53-1.79"/><path d="M58.24,55.27c7.19-0.62,21.58-1.72,29.76-2.3c2.94-0.26,5.88-0.4,8.83-0.4"/><path d="M58.21,66.25c12.13-1.28,25.76-2.49,32.04-2.97c4.75-0.36,6.68,0.89,5.71,5.74c-1.65,8.3-4.31,17.62-8.42,24.14c-3.04,4.82-5.54,5.47-8.94,1.31"/><path d="M51.08,77.44C51,82.25,49.75,86,47.49,89.76"/><path d="M59.38,76.59c1.65,1.98,2.47,6.93,2.88,9.84"/><path d="M68.77,74.78c1.81,1.57,4.66,6.55,5.12,8.86"/><path d="M78.44,72.66c1.68,1.69,4.35,6.79,4.77,9.27"/></svg>