<svg><path d="M29,16.25c3.5,3,7.25,8.25,7.75,9.75"/><path d="M48,11c1.71,2.1,5.82,7.6,6.5,11"/><path d="M78.54,10.75c0,1.25-0.41,2.25-1.05,3.2c-1.74,2.55-6.52,7.1-8.74,9.3"/><path d="M22.75,31.75c0,3-2.25,11.75-3.5,13.75"/><path d="M24.25,34.5c21.25-2.88,44.77-4.81,60.25-5.75c8.25-0.5,6,4.25,0.5,9"/><path d="M49.48,35.76c0.06,0.65-0.05,1.28-0.35,1.87c-0.8,1.86-2.79,4.29-5.38,6.46"/><path d="M35.63,45.16c0.46,0.27,0.82,1.71,0.82,2.18c0,3.62,0.03,15.13-0.08,23.66c-0.03,2.61-0.08,4.93-0.15,6.67"/><path d="M37.02,47.06c1.83-0.06,22.63-2.35,29.84-3.07c4.29-0.43,5.83,0.55,4.89,5.01c-0.46,2.17-1.5,6.75-2.5,11.3"/><path d="M37.36,54.34c8.14-0.84,24.52-2.59,32.37-3.01"/><path d="M37.24,61.89c5.31-0.27,24.37-2.37,30.98-2.6"/><path d="M37.53,69.56c8.92-0.74,28.9-2.64,39.12-3.64c3.57-0.45,7.22-0.66,10.48-0.31"/><path d="M36.23,77.82c11.72-1.4,37.44-3.77,46.27-3.96c5.24-0.11,5.88,1.3,4.65,5.23c-1.94,6.18-6.1,12.93-9.16,17.76c-2.91,4.6-5.5,1.59-7.5-0.9"/><path d="M24.82,84.66c-0.45,4.96-1.89,9.25-4.5,12.01"/><path d="M34.5,83.78c1.32,2.01,2.58,7.53,2.91,10.65"/><path d="M48,83.05c1.68,1.6,4.33,6.59,4.75,9.08"/><path d="M62.75,81.68c1.24,1.45,3.19,5.94,3.5,8.19"/></svg>