<svg><path d="M11.5,22.49c0.88,0.88,1.38,2.04,1.47,2.84c0.86,7.84,1.78,17.64,2.7,28.05c0.18,2.09,0.37,4.22,0.55,6.37"/><path d="M13.69,24.37c8.22-1.4,20.54-2.6,26.96-3.27c3.55-0.37,4.79,1.29,4.48,4.78c-0.52,5.81-1.36,15.68-2.04,23.14c-0.3,3.27-0.56,6.08-0.75,7.87"/><path d="M15.48,40.18c7.64-1.06,22.63-2.37,27.41-2.8"/><path d="M17.14,56.96c8.11-1.08,15.82-2.1,24.13-2.72"/><path d="M27.36,24.44c1.16,1.16,1.44,2.28,1.44,4.06c-0.02,6.82,0.02,40.35,0.04,57.38c0.01,5.4,0.01,9.14,0.01,9.84"/><path d="M70.03,10.66c0.08,0.94-0.06,1.84-0.57,2.64c-1.84,2.95-3.72,5.07-7.88,8.9"/><path d="M57.55,24.17c0.76,0.76,0.98,1.91,0.85,2.95c0,6.43,0.02,20.75-0.06,32c-0.02,3.56-0.06,7.56-0.1,10.16"/><path d="M58.81,24.75c8.31-1.25,16.69-2.62,24.01-3.31c2.23-0.21,3.33,2.15,3.13,4.02c-0.1,0.9-1.02,6.98-1.89,13.68c-0.24,1.83-0.47,3.7-0.69,5.53"/><path d="M59.56,34.33c5.06-0.46,15.31-1.71,24.5-2.34"/><path d="M59.72,44.87c5.53-0.49,17.8-1.73,22.63-1.75"/><path d="M59.44,56.36c6.67-0.69,22.31-2.11,29.71-2.75c2.51-0.22,5-0.28,7.52-0.24"/><path d="M58.24,69.5c9.1-1.63,26.88-3.42,31.92-3.9c3.28-0.31,4.97,0.89,4.38,4.57c-1.66,10.37-3.92,17.57-7.68,23.75c-3.61,5.93-5.97,1.04-7.3-0.24"/><path d="M50.02,80.48c0.4,3.71-0.29,8.91-1.46,11.19"/><path d="M59.57,77.99c1.84,1.84,3.58,6.67,4.04,9.37"/><path d="M69.7,76.29c1.34,1.42,3.46,5.68,3.8,7.76"/><path d="M78.41,73.48c1.71,1.35,4.43,5.41,4.86,7.39"/></svg>