<svg><path d="M29.02,13c0.79,0.43,1.59,2.7,1.58,3.94c-0.06,3.91-0.06,8.56-0.06,12.12"/><path d="M13.67,28.75c0,3.74-1.76,14.01-2.56,16.5"/><path d="M13.78,31.75c2.53-0.5,29.5-4.26,33.04-4.5c7.44-0.5,3.94,5,0.25,8"/><path d="M25.25,46.99c0.23,1.1,0.29,2.36,0.18,3.69C24.75,59,20.25,79.25,10.5,87.47"/><path d="M29.24,36.25c6,4.46,10.75,33.25,15.75,40.38C46.93,79.38,48.1,81,50,82.75"/><path d="M73.54,10.16c0.02,0.31,0.03,0.79-0.03,1.23c-0.37,2.55-2.51,8.01-5.43,11.19"/><path d="M61.8,22.53c0.33,0.42,0.6,0.98,0.6,1.67c0,6.99,0.04,33.84-0.17,44.83"/><path d="M62.81,25.35c1.49,0,20.18-2.85,21.63-2.75c2.15,0.14,3.2,1.93,3.01,3.61c-0.12,1.03-1.58,11.86-2.96,19.75"/><path d="M63.06,35.24c1.9,0.13,21.1-2.65,23.25-2.51"/><path d="M62.97,46.39c3.88-0.13,16.55-2.4,21.38-2.41"/><path d="M62.69,56.71c8.61-0.86,27.66-2.93,31.35-3.47c1.29-0.19,3.48-0.36,4.13-0.11"/><path d="M62.24,69.25c9.1-1.58,26.13-3.3,31.17-3.77c3.28-0.3,4.97,0.86,4.38,4.42c-1.64,9.9-4.58,18.79-7.43,24.88c-2.86,6.11-6.47,0.01-7.8-1.23"/><path d="M56.77,80.07c0.47,4.57-0.34,10.04-1.73,12.84"/><path d="M63.82,78.13c1.61,2.07,3.14,7.51,3.54,10.56"/><path d="M72.73,75.99c1.68,1.73,4.32,6.95,4.75,9.5"/><path d="M81.41,74.5c1.8,1.53,4.66,6.15,5.11,8.39"/></svg>