<svg><path d="M11.55,22.54c0.85,0.24,2.41,0.33,3.26,0.24C22.5,22,34.5,20.75,44.03,20c1.41-0.11,2.27,0.12,2.97,0.24"/><path d="M19.22,25.5c0.63,0.75,0.96,2.71,0.96,4.73c0,2.02-0.19,39.26-0.19,46.52"/><path d="M20.16,41c2.84,0,13.71-2,18.57-2"/><path d="M20.37,56.25c3.51,0,13.81-2.25,18.92-2.25"/><path d="M12,78c0.29,0.75,2.05,1.37,3.05,1c5.45-2,13.7-6.75,21.86-10.25"/><path d="M38.44,23.5c0.29,1,0.73,2.25,0.73,3.5s0.15,59.75,0.15,70"/><path d="M69.54,9.66c0.02,0.32,0.04,0.82-0.03,1.26c-0.41,2.63-2.74,8.26-5.93,11.53"/><path d="M56.8,24.42c0.33,0.43,0.6,1.02,0.6,1.73c0,7.23,0.04,32.51-0.17,43.88"/><path d="M57.81,25.75c1.55,0,21.5-3.17,23.01-3.06c2.24,0.16,3.26,1.64,3.13,3.52c-0.2,3.05-0.95,11.05-2.58,21.46"/><path d="M58.06,36.58C62.5,36,78.5,34.25,82.81,33.99"/><path d="M57.97,47.62c3.88-0.14,18.55-2.48,23.38-2.5"/><path d="M57.69,58.8c9.16-1.11,29.41-3.75,33.34-4.44c1.37-0.24,3.7-0.46,4.39-0.14"/><path d="M57.24,70.25c9.1-1.63,28.13-4.42,33.17-4.9c3.28-0.31,4.97,0.89,4.38,4.57c-1.64,10.24-4.29,19.57-7.43,24.25c-3.87,5.76-6.47,1.04-7.8-0.24"/><path d="M51.81,79.48c0.64,5.58-0.96,12.27-2.86,15.69"/><path d="M60.07,79.74c1.73,2.18,3.36,7.92,3.79,11.12"/><path d="M68.49,76.54c1.76,1.92,4.54,7.69,4.98,10.51"/><path d="M77.66,75.23c2.07,1.67,5.34,6.69,5.86,9.14"/></svg>