<svg><path d="M32.11,13.5c0.05,0.5,0.27,1.39-0.11,2.01c-2.74,4.33-9.95,11.87-20.01,19.2"/><path d="M33.91,31.77c0.07,0.68,0.23,1.85-0.13,2.72c-2.86,7.01-11.37,16.52-23.03,26.03"/><path d="M23.95,52.12c0.27,0.24,0.93,2.09,0.98,2.58c0.05,0.49,0,38.27-0.05,41.3"/><path d="M53.27,11.69c0.02,0.27,0.04,0.69-0.03,1.06c-0.41,2.21-2.77,6.94-5.99,9.71"/><path d="M41.85,24.41c0.3,0.37,0.54,0.88,0.54,1.49c0,6.25,0.03,30.28-0.15,40.12"/><path d="M42.77,25.55c1.41,0,18.62-2.84,20-2.75c2.03,0.12,3.03,1.84,2.85,3.46c-0.11,0.99-1.49,9.69-2.8,17.28"/><path d="M43,34.49c1.73,0.11,19.17-2.47,21.13-2.35"/><path d="M42.92,44.46c3.52-0.14,15.49-2.23,19.88-2.26"/><path d="M43.12,55.12c7.44-0.77,24.8-3.03,27.99-3.51c1.11-0.17,3-0.32,3.57-0.11"/><path d="M42.26,66.21c8.27-1.46,23.23-3.54,27.82-3.98c2.98-0.29,4.51,2.48,3.98,5.66c-1.49,8.86-3.86,17.63-6.3,23.17c-2.32,5.28-4.14,2.81-6.63-0.17"/><path d="M36.11,76.09c0.42,4.52-1.3,9.93-2.52,12.7"/><path d="M42.6,74.46c1.63,2.19,3.17,7.98,3.58,11.21"/><path d="M52.62,73.76c1.26,1.59,3.26,6.42,3.57,8.77"/><path d="M59.49,70.49c1.64,1.56,4.23,6.24,4.64,8.53"/><path d="M72.84,20.3c1.66,0.45,2.74,0.46,3.36,0.36c6.05-0.91,15.18-2.53,18.02-2.38c1.02,0.06,1.64,0.17,2.15,0.35"/><path d="M72.09,39.71c0.61,0.36,1.74,0.43,2.36,0.36c5.8-0.58,15.8-2.08,24.03-2.62c1.02-0.07,1.64,0.17,2.15,0.35"/><path d="M87.75,41.66c0.07,0.45,1.06,2.37,1.06,5.25c0,17.09-0.22,39.8-0.22,44.51c0,10.33-5.6,1.52-6.87,0.33"/></svg>