<svg><path d="M12.52,26.45c0.68,0.27,2.91,0.35,3.6,0.28c3.21-0.36,26.99-2.45,32.38-2.73c1.05-0.05,2.01,0.05,2.88,0.28"/><path d="M30.53,25.75c1.02,2.62,1.02,4.2,1.02,6.3c0,14.7-0.03,23.75-0.03,48.95"/><path d="M20.73,37.49c0.13,0.68,0.1,2.15-0.08,2.91c-1.8,7.36-3.9,17.6-10.18,23.98"/><path d="M18.72,51.36c2.86,1.58,6.51,5.76,7.9,9.73"/><path d="M45.18,36.24c0.11,0.6,0.08,1.91-0.07,2.58c-1.41,6.54-3.62,15.06-7.96,21.3"/><path d="M43.83,50.96c3.21,1.52,6.16,5.45,7.37,9.46"/><path d="M12.35,87.18c0.47,0.68,2.14,1.39,2.93,1.09C23.82,84.93,41.65,77.14,49.5,74"/><path d="M70.39,11.41c0.02,0.27,0.03,0.7-0.03,1.08c-0.37,2.25-2.5,7.06-5.42,9.86"/><path d="M58.62,24.55c0.35,0.41,0.62,0.96,0.62,1.64c0,6.85,0.04,32.66-0.17,43.43"/><path d="M59.67,25.81c1.62,0,21.33-3.5,22.9-3.4c2.33,0.15,3.46,2.04,3.25,3.81c-0.13,1.09-1.71,12.49-3.21,20.81"/><path d="M59.93,36.99c4.82-0.74,22.46-3.1,24.7-2.96"/><path d="M59.83,47.92c4.03-0.13,17.75-2.35,22.77-2.37"/><path d="M59.56,58.52c8.51-0.8,28.33-3.21,31.99-3.71c1.27-0.18,3.44-0.33,4.08-0.1"/><path d="M59.08,69.83c9.46-1.55,27.66-4.24,32.91-4.69c3.42-0.3,5.17,0.85,4.55,4.33c-1.71,9.7-4.24,19.4-7.21,25.37c-2.98,5.99-6.21,0.99-7.59-0.23"/><path d="M54.84,82.91c0.64,4.67-0.46,10.28-2.37,13.14"/><path d="M63.95,79.01c1.8,2.13,3.5,7.74,3.95,10.88"/><path d="M72.19,76.89c1.83,1.8,4.72,7.21,5.18,9.85"/><path d="M80.73,74.7c1.96,1.55,5.06,6.22,5.55,8.5"/></svg>