<svg><path d="M27.88,16.14c0.05,0.36,0.2,0.99-0.1,1.45c-2.38,3.66-7.97,9.16-18.07,13.9"/><path d="M9.75,40.52c0.83,0.27,2.38,0.4,3.2,0.27c3.38-0.53,27.59-4.01,36.62-4.38c1.39-0.06,2.23,0.13,2.92,0.27"/><path d="M21.97,28.83c0.93,0.96,1.75,2.61,1.83,5.78c0.39,15.25-0.23,50.45-0.25,55.65c-0.04,9.72-5.16,1.05-6.62-0.26"/><path d="M9.23,67.11c1.71,1.24,3.65,1.06,5.36-0.01c1.01-0.63,13.28-8.33,17.56-11.35"/><path d="M34.14,10.25c0.61,1.74,0.89,2.21,0.99,5.98C36,47.25,39.94,80.07,47.25,89.5c2.52,3.25,2.06,0.75,1.76-6.98"/><path d="M48.53,43.89c0.05,0.8,0.11,2.06-0.1,3.2c-1.26,6.75-8.22,22.33-18.14,31.4"/><path d="M43.18,18.5c2.21,1.9,5.74,6.24,6.76,9.5"/><path d="M70.54,9.16c0.02,0.31,0.04,0.8-0.04,1.24c-0.46,2.58-3.08,8.09-6.67,11.3"/><path d="M58.8,23.42c0.33,0.43,0.6,2.02,0.6,2.73c0,7.23,0.04,32.01-0.17,43.38"/><path d="M59.81,24.75c1.55,0,21-3.67,22.51-3.56c2.24,0.16,3.33,2.15,3.13,4.02c-0.12,1.15-2.14,12.19-3.58,20.96"/><path d="M60.06,35.58c1.9,0.13,21.6-2.74,23.75-2.59"/><path d="M59.97,47.12c3.88-0.14,17.55-2.48,22.38-2.5"/><path d="M60.19,58.3c8.97-1.11,28.82-3.75,32.67-4.44c1.34-0.24,3.62-0.46,4.3-0.14"/><path d="M59.24,69.75c9.1-1.63,27.13-3.92,32.17-4.4c3.28-0.31,4.97,0.89,4.38,4.57c-1.64,10.24-4.08,20.46-6.93,26.75c-2.86,6.33-5.97,1.04-7.3-0.24"/><path d="M55.42,79.6c1.33,4.65,1.93,10.9,1.67,14.07"/><path d="M61.98,78.04c2.18,2.43,4.26,8.83,4.8,12.41"/><path d="M71.07,76.04c2.03,1.74,5.22,6.97,5.73,9.53"/><path d="M80.12,72.98c1.99,1.74,5.15,6.98,5.65,9.53"/></svg>