<svg><path d="M15.08,18.98c0.91,0.91,1.2,1.9,1.22,3.16C17.25,68.38,14.88,83.12,10,93"/><path d="M17.53,20.42c1.09-0.18,4.53-1.18,6.6-1.77c2.26-0.64,3.89-0.54,3.89,2.24c0,8.25-0.02,47-0.02,65.11c0,12.62-3,5.5-5.44,3.67"/><path d="M18.28,38.1c2.6-0.22,5.87-0.7,8.65-0.94"/><path d="M17.43,56.51c2.57-0.38,5.03-0.72,9.49-1.21"/><path d="M35.87,16.98c0.83,0.83,0.96,1.93,0.97,2.91c0.66,45.24-0.59,57.86-4.56,68.61"/><path d="M37.57,18.15c2.3-0.53,4.68-1.15,7.96-1.93c2.93-0.7,3.47,0.3,3.47,3.17c0,8.25,0.14,52.61,0.14,65.6c0,9.52-2.89,5.89-5.13,3.89"/><path d="M38.25,37c2.75-0.5,6.25-1.13,9.91-1.62"/><path d="M38.21,55.57c2.79-0.32,5.23-0.72,9.69-1.21"/><path d="M72.08,9.93c0.07,0.65,0.04,1.29-0.21,1.88C70.5,15,68,19,63.71,23.25"/><path d="M58.5,22.57c0.71,0.71,1.05,1.56,1.05,2.8c0,5.02-0.09,24.37-0.13,35.88c-0.01,3.72-0.02,6.62-0.02,7.95"/><path d="M60.44,24.72c7.94-1.47,15.56-2.56,21.2-3.25c2.56-0.32,4.96,0.01,4.76,3.26c-0.21,3.28-0.77,9.48-1.56,16.03c-0.24,1.99-0.5,4.01-0.78,5.99"/><path d="M60.42,34.94c6.21-0.82,18.71-2.32,24.21-2.88"/><path d="M60.84,46.03c3.58-0.38,17.74-1.38,22.19-1.7"/><path d="M60.54,56.8c8.01-0.68,22.97-2.15,30.22-2.66c2-0.14,4.24-0.52,6.83,0.01"/><path d="M60.25,67.88c11.12-1,25-2.25,31.26-2.88c3.06-0.3,4.58,2.33,4.04,5.75c-1.52,9.5-3.92,16.71-6.4,22.75c-2.36,5.75-4.21,3.25-6.73,0.25"/><path d="M56.83,78.5c0.39,4.94-0.78,10.91-1.94,14"/><path d="M63.01,77.38c1.55,2.11,3.02,7.9,3.4,11.18"/><path d="M71.2,75.75c1.54,1.54,3.97,6.35,4.36,8.75"/><path d="M80.5,72.88c1.56,1.43,4.03,5.89,4.42,8.12"/></svg>