<svg><path d="M 22.96,18.760833 c 0.1,1.2 0.04,2.41 -0.4,3.52 -2.06,5.16 -4.612292,8.701458 -8.642292,14.711458"/><path d="M23.26,30.32c1.87,0.18,3.18,0.17,4.63-0.25c4.35-0.77,9.55-1.77,13.87-2.38c1.64-0.47,3.26-0.48,4.86-0.03"/><path d="M14.83,46c2.22,0.58,4.4,0.32,6.69,0.04c7.23-0.89,13.86-1.64,22.36-2.55c2.5-0.27,4.89-0.53,7.3,0.08"/><path d="M 32.12,14.68 c 0.84,0.84 1,1.87 1,2.69 0,0.73 0.14,33.535417 0.07,38.065417"/><path d="M20.57,62.59c0.6,0.89,0.93,1.87,0.99,2.94c0.77,4.68,1.37,9.5,1.96,14.45c0.23,1.89,0.45,3.8,0.68,5.73"/><path d="M22.2,64.01c5.8-0.77,13.65-2.1,18.17-2.88c3.71-0.64,4.71,0.48,4.29,2.95c-0.86,5.14-1.36,8.73-2.92,16.17"/><path d="M25.23,83.44c4.72-0.56,9.52-1.24,13.5-1.78c1.83-0.25,3.49-0.46,4.89-0.62"/><path d="M70.59,12.16c0.06,0.88,0,1.77-0.33,2.6c-1.39,3.5-2.14,4.87-3.76,7.62"/><path d="M57.07,24.03c0.83,0.82,0.91,2.21,0.91,3.47c0,6.85-0.06,21.94-0.09,33.63c-0.01,3.66-0.01,6.99-0.01,9.62"/><path d="M58.43,25.81c3.25-0.29,13.58-1.98,22.81-3.03c3.93-0.45,5.36,1.15,5.05,3.71C86.16,27.6,84.88,39,83.91,46.97"/><path d="M58.95,35.74C65.38,34.88,77,33.38,85,32.98"/><path d="M58.86,46.89C66,46,77,44.88,83.89,44.47"/><path d="M59.09,58.22c6.84-0.62,19.96-2.36,27.57-2.7c3.47-0.15,6.5-0.48,9.66-0.42"/><path d="M58.55,70.75c9.27-1.47,23.87-3.24,30.34-3.89c4.76-0.48,6.81,0.88,5.86,5.79c-1.35,7.04-2.92,12.28-4.93,17.08c-2.63,6.27-4.62,8.31-9.89,3.82"/><path d="M50.18,82.57c0.6,4.21-0.93,9.26-2.7,11.84"/><path d="M58.24,80.13c2.02,1.78,4.43,6.45,4.93,9.06"/><path d="M68.98,76.49c1.47,1.37,3.54,5.49,3.91,7.5"/><path d="M79,75c1.44,1.08,3.72,4.32,4.07,5.89"/></svg>