<svg><path d="M13.38,32.31c1.1,0.39,3.12,0.5,4.22,0.39c7.01-0.68,19.49-3.36,28.24-3.47c1.83-0.02,2.93,0.19,3.85,0.38"/><path d="M22.2,16.38c0.8,0.51,1.28,2.3,1.44,3.33c0.16,1.02,1.31,20.63,1.86,30.35"/><path d="M37.84,14.25c0.8,0.51,1.28,2.3,1.44,3.33C39.44,18.6,39,37,38.59,48.01"/><path d="M9.97,50.8c1.16,0.49,3.3,0.66,4.46,0.49C24.75,49.75,35,49,48.21,47.59c1.93-0.21,3.1,0.23,4.07,0.48"/><path d="M17.83,62.2c0.33,0.8,1.04,2.15,1.04,3.21c0,1.06,3,24.24,3,31.33"/><path d="M19.43,63.82c1.89-0.13,21.01-2.79,22.73-2.95c1.44-0.13,2.36,1.47,2.25,2.26c-0.23,1.59-1.44,31.23-1.44,32.03"/><path d="M20.26,78.2c2.56,0,20.03-2.42,22.93-2.42"/><path d="M22.65,94.26c5.21-0.57,13.04-1.64,19.54-2.13"/><path d="M73.54,10.41c0.02,0.3,0.04,0.78-0.04,1.2c-0.48,2.49-3.2,7.83-6.92,10.94"/><path d="M60.3,23.99c0.33,0.41,0.6,0.96,0.6,1.63c0,6.81,0.04,32.97-0.17,43.68"/><path d="M61.31,25.23c1.55,0,21.5-2.98,23.01-2.88c2.24,0.15,3.33,2.03,3.13,3.78c-0.12,1.08-1.64,12.42-3.08,20.68"/><path d="M61.56,35.85c1.9,0.13,22.1-2.58,24.25-2.44"/><path d="M61.47,46.71c3.88-0.13,18.05-1.84,22.88-1.85"/><path d="M61.69,57.75c8.18-0.79,28.79-2.69,32.3-3.19c1.22-0.17,3.3-0.33,3.92-0.1"/><path d="M60.74,69.5c9.1-1.54,28.13-3.22,33.17-3.67c3.28-0.3,4.97,0.84,4.38,4.3c-1.64,9.64-3.04,17.37-7.93,26.22c-3.19,5.79-6.47,0.48-7.8-0.73"/><path d="M53.94,78.73c0.57,4.78-0.91,11.51-2.6,14.44"/><path d="M60.07,77.74c2.41,2.48,4.69,8.98,5.29,12.62"/><path d="M69.75,76.29c2.01,1.78,5.19,7.14,5.69,9.76"/><path d="M79.41,74.48c1.98,1.71,5.11,6.88,5.61,9.39"/></svg>