<svg><path d="M13.94,27.71c0.81,0.38,2.3,0.49,3.1,0.38C25,27,37.5,25.25,45.23,24.76c1.35-0.09,2.16,0.18,2.84,0.37"/><path d="M13.2,38.51c0.27,0.33,1.1,1.34,1.1,2.12c0,0.79,3.02,19.79,3.02,20.18c0,0.39,0.12,0.39,0.23,1.18"/><path d="M14.89,39.42c5.16-0.58,27.94-3.65,29.75-3.76c1.51-0.1,2.93,1.89,2.86,2.48c-0.74,6.33-1.83,13.15-3.39,22.69"/><path d="M16.13,49.31c5.07-0.64,27.18-3.63,30.21-3.63"/><path d="M18.38,59.78c5.47-0.42,18.96-2.41,25.77-2.77"/><path d="M28.91,13c1.08,0.49,1.73,2.22,1.94,3.2c0.22,0.99,0,75.64-0.22,81.8"/><path d="M30.63,60.8C27.16,69.7,20,81.25,10.88,87.33"/><path d="M33.08,66.24c5.04,2.37,9.71,7,11.88,11.52"/><path d="M69.04,11.16c0.02,0.31,0.03,0.81-0.03,1.26c-0.37,2.61-2.51,8.22-5.43,11.47"/><path d="M57.3,25.75c0.33,0.4,0.6,0.95,0.6,1.61c0,6.75,0.04,33.21-0.17,43.83"/><path d="M58.31,27.99c1.55,0,21-3.96,22.51-3.86c2.24,0.15,3.33,2.01,3.13,3.75c-0.12,1.07-1.14,12.32-2.58,20.52"/><path d="M58.56,38.02c3.94-0.27,21.6-3.06,23.75-2.92"/><path d="M58.47,49.29c3.88-0.13,18.05-2.32,22.88-2.33"/><path d="M58.19,60.58c9.22-1.18,29.6-4,33.56-4.74c1.38-0.26,3.72-0.49,4.42-0.15"/><path d="M57.74,71.42c9.1-1.62,29.13-4.4,34.17-4.88c3.28-0.31,5.17,0.93,4.38,4.55C94,81.5,92.5,88.25,88.36,95.19c-3.54,5.94-5.97,1.04-7.3-0.24"/><path d="M53.6,81.58c0.15,5.17-0.93,9.88-2.69,12.63"/><path d="M62.32,79.35c1.84,2.07,3.58,7.52,4.04,10.57"/><path d="M71.97,77.4c1.59,1.68,4.11,6.75,4.51,9.22"/><path d="M80.41,75.11c1.98,1.8,5.11,7.21,5.61,9.85"/></svg>