<svg><path d="M42.19,12.15c-0.19,1.35-0.93,2-1.83,2.68c-4.49,3.42-13.12,7.8-27.54,12.41"/><path d="M17.25,33.25c1.95,1.81,4.53,7.43,5.02,10.24"/><path d="M30.38,28.25c1.88,1.66,4.32,6.82,4.79,9.4"/><path d="M49.55,24.42c0.12,0.88,0.02,1.73-0.29,2.54c-1.43,4.73-4.62,11.77-6.58,14.34"/><path d="M15.59,53.83c1.3,0.52,3.67,0.43,5.03,0.29c6.03-0.66,16.63-2.12,23.87-3.53c1.42-0.28,2.75-0.34,4.18,0"/><path d="M11.5,69.59c1.58,0.62,4.29,0.37,5.89,0.1c9.01-1.53,23.44-3.91,29.74-4.3c1.3-0.08,2.63-0.12,3.9,0.18"/><path d="M32.05,43.42c0.35,0.79,0.55,1.53,0.49,3.06C31.5,74.5,24.75,86.75,11.75,95.99"/><path d="M31.5,73.88c5.38,4.62,9.25,8.5,11.75,16.12"/><path d="M71.54,10.16c0.08,0.62,0,1.21-0.24,1.78c-0.84,2.57-1.93,4.88-4.97,8.51"/><path d="M58.05,22.67c0.89,0.89,1.1,2.2,1.1,3.58c0,7.5-0.02,24.38-0.02,37.63c0,2.19,0,4,0,6.88"/><path d="M60,23.62c2.44-0.42,15.6-2.14,20.39-2.58c3.15-0.29,5.16,1.25,4.73,4.6c-0.29,2.22-1.71,9.08-2.73,15.88c-0.25,1.68-0.51,3.34-0.77,4.9"/><path d="M60.31,35.58c4.31-0.58,15.94-2.21,22.25-2.59"/><path d="M60.22,47.12c6.4-0.74,14.53-1.99,20.38-2.25"/><path d="M60.44,58.86c6.8-0.7,19.95-2.04,26.21-2.77c1.88-0.22,4.86-0.47,6.77-0.22"/><path d="M59.49,70.5c9.35-1.67,25.62-3.44,30.42-3.9c3.28-0.31,4.97,0.89,4.38,4.57c-1.64,10.24-3.42,18.45-7.18,25.25c-3.36,6.07-6.22,1.04-7.55-0.24"/><path d="M52.3,82.62c-0.17,3.25-0.8,6.88-2.36,10.3"/><path d="M60.12,81.25c1.59,1.84,3.09,6.66,3.49,9.36"/><path d="M68.88,79.88c1.37,1.31,3.53,5.25,3.88,7.17"/><path d="M77.41,76.73c1.71,1.35,4.43,5.41,4.86,7.39"/></svg>