<svg><path d="M21.25,16.93c3.36,1.71,6.72,6.31,7,9.06"/><path d="M47.24,12.87c0.62,0.42,0.33,1.94-0.23,2.59s-5.72,4.74-8.51,6.25"/><path d="M35.9,11.25c0.85,0.63,0.88,2.24,0.85,2.65C36,24.25,32,32,26,36"/><path d="M37.22,23.89c4.39,1.62,9.93,6.73,11.08,9.02"/><path d="M55.5,15.68c1.97,2.23,3.55,5.82,3.75,8.31"/><path d="M80.73,12.37c0.02,0.88-0.16,2.61-0.74,3.31c-0.57,0.7-6.38,4.14-9.24,5.78"/><path d="M67.4,9.25c0.35,1,0.86,1.92,0.85,2.33C68,24.75,64.5,29,57.5,34.25"/><path d="M69.47,24.14c4.09,1.48,9.25,6.18,10.33,8.27"/><path d="M18.41,38.94c-0.12,3.87-2.92,14-3.91,16.31"/><path d="M18.22,41.5c3.53,0,49.75-4.75,67.47-4.75c12.06,0,3.81,5.75-0.69,9.5"/><path d="M49.4,42.18c0.02,0.17,0.05,0.44-0.05,0.69c-0.61,1.46-4.1,4.65-8.87,6.61"/><path d="M35.35,51.01c0.4,0.25,0.72,0.59,0.72,1.02c0,4.38,0.04,21.18-0.2,28.07"/><path d="M36.56,51.76c1.86-0.06,28.52-3.29,30.33-3.29c2.68,0,3.49,1.16,3.25,2.3c-0.15,0.7-0.64,6.98-1.69,12.71"/><path d="M36.86,58.01c2.28,0,28.75-2.56,31.32-2.56"/><path d="M36.76,64.99c4.64-0.25,25.9-2.23,31.67-2.44"/><path d="M37.01,72.09c9.79-0.86,37.15-3.69,41.35-4.16c1.47-0.17,3.95-0.35,4.69-0.23"/><path d="M35.88,80.23c10.89-1.37,37.84-3.71,43.88-4.22c3.93-0.33,5.94,1.54,5.24,3.79c-1.96,6.26-5.08,12.5-8.29,16.48c-3.05,3.79-5.46,2.14-8.73,0.17"/><path d="M22.71,86.79c0.5,4.04-0.36,8.93-1.83,11.46"/><path d="M34.18,85.89c2.29,1.81,4.46,6.8,5.03,9.62"/><path d="M49.21,84.58c1.95,1.37,5.03,5.64,5.52,7.77"/><path d="M62.71,83.1c2.16,1.02,5.57,4.18,6.11,5.77"/></svg>