<svg><path d="M23.64,12.03c0.61,0.24,2.71,1.16,3.77,1.01c2.1-0.3,17.7-3.23,19.92-3.53s2.98,1.26,1.65,2.24c-2.27,1.68-9.21,7.58-10.61,8.78"/><path d="M32.05,18.1c1.73,0.56,6.19,2.71,7.01,4.18"/><path d="M17.73,25.85c0.72,0.2,1.79,1.06,4.82,0.69c6.2-0.75,19.54-2.81,25.45-3.91c11.25-2.1,3.25,5.13-0.5,8.79"/><path d="M39.26,26.59c0,3.58,0.09,8.95,0.17,15.91c0.07,6.5-5.18,0.25-6.9-0.7"/><path d="M36.75,24.63c0.05,0.43,0.3,1.15-0.1,1.72c-3.22,4.57-7.91,10.36-18.39,16.45"/><path d="M67.9,9.08c0.03,0.52,0.2,1.39-0.07,2.11c-1.69,4.63-5.49,13.76-11.33,20.16"/><path d="M67.75,17.05c0.48,0.25,1.36,0.28,1.85,0.25c5.01-0.29,14.16-2.3,19.12-3.37c0.84-0.18,1.39-0.01,1.61,0.05"/><path d="M81.06,19.51c0.36,0.63,0.29,1.69-0.32,2.74C74.75,32.5,69.75,38.75,58.9,45.31"/><path d="M62.33,23.94c4.55,1.03,18,14.76,25.76,18.91c1.49,0.8,2.44,0.93,3.67,1.01"/><path d="M49.23,43.68c0.01,0.17,0.03,0.43-0.03,0.67c-0.33,1.42-2.2,4.54-4.76,6.45"/><path d="M33.79,52.39c0.38,0.26,0.69,0.62,0.69,1.07c0,4.57,0.04,21.61-0.19,28.8"/><path d="M34.95,53.18c1.78-0.07,35.96-2.91,37.69-2.91c2.56,0,3.31,1.71,3.08,2.9c-0.14,0.73-1.38,6.64-3.03,12.25"/><path d="M35.23,59.7c2.18,0,36.65-2.67,39.11-2.67"/><path d="M35.13,66.99c4.43-0.26,32.01-2.33,37.54-2.55"/><path d="M35.38,73.9c12.43-0.79,41.45-2.92,46.78-3.35c1.86-0.15,5.02-0.32,5.96-0.21"/><path d="M34.3,82.4c10.42-1.44,44.69-3.38,50.47-3.91c3.76-0.34,5.55,1.57,5.01,3.96c-1.53,6.8-1.87,8.36-3.93,13.2c-2.59,6.1-4.34,4.6-8.35,0.17"/><path d="M25.24,87.3c-0.49,4.7-2.56,9.31-4.84,11.95"/><path d="M34.6,87.85c2.17,1.78,4.23,6.67,4.77,9.43"/><path d="M48.79,86.71c2.14,1.63,5.52,6.71,6.05,9.25"/><path d="M63.02,84.89c2.24,1.68,5.79,6.91,6.34,9.52"/></svg>