<svg><path d="M13.35,26.92c0.9,0.33,2.39,0.41,3.91,0.21c10.23-1.38,19.43-2.53,26.18-3.41c1.66-0.22,3.22-0.04,4.71,0.38"/><path d="M13.32,37.71c0.2,0.44,0.41,0.81,0.5,1.36c0.7,4.37,2.9,14.83,3.38,22.68"/><path d="M14.07,39.19C21,38,43.44,35.65,45.81,35.24c1.48-0.25,2.75,0.96,2.52,3.41c-0.67,7.1-2.8,16.4-3.63,21.22"/><path d="M20.73,45.53c1.57,1.44,4.05,5.94,4.44,8.18"/><path d="M40.98,41.8c0.01,0.24,0.03,0.61-0.03,0.95c-0.32,2-2.13,6.39-4.6,9.08"/><path d="M17.04,59.84c6.62-0.99,21.58-2.38,27.76-2.87"/><path d="M29.15,11.75c0.87,0.5,1.39,2.25,1.56,3.25c0.17,1,0,75.75-0.17,82"/><path d="M31.13,58.25C27.5,67.73,18.06,81.14,10.5,86.5"/><path d="M33.89,67c3.83,2.27,8.48,7.47,9.87,10.03"/><path d="M69.54,11.16c0.02,0.35,0.04,0.91-0.04,1.41c-0.48,2.94-3.2,9.22-6.92,12.88"/><path d="M56.8,25.92c0.33,0.43,0.6,1.02,0.6,1.73c0,7.23,0.04,32.51-0.17,43.88"/><path d="M57.81,28.25c1.55,0,22.5-3.67,24.01-3.56c2.24,0.16,3.3,2.15,3.13,4.02c-0.2,2.3-1.7,14.8-3.58,20.46"/><path d="M58.06,38.08c1.9,0.13,23.1-2.74,25.25-2.59"/><path d="M57.97,49.62c3.88-0.14,19.05-2.48,23.88-2.5"/><path d="M58.19,60.8c9.09-1.11,29.71-3.75,33.62-4.44c1.36-0.24,3.67-0.46,4.36-0.14"/><path d="M57.24,71.75c11.01-1.25,28.13-3.92,33.17-4.4c3.28-0.31,4.97,0.89,4.38,4.57C93.15,82.16,92,88.75,86.86,95.67c-4.14,5.58-6.47,0.54-7.8-0.74"/><path d="M52.44,80.23c0.57,4.96-0.91,10.9-2.6,13.94"/><path d="M62.07,80.24c1.5,1.99,2.92,7.2,3.29,10.12"/><path d="M71,77.54c1.93,1.83,4.97,7.32,5.46,10.01"/><path d="M80.16,75.23c1.71,1.85,4.43,7.42,4.86,10.14"/></svg>