<svg><path d="M10.85,21.86c0.82,0.56,2.61,0.52,3.42,0.42c4.92-0.57,8.6-2.7,11.55-3.41c1.63-0.39,2.49-0.24,2.02,1.57c-0.48,1.81-1.76,9.89-2.91,13.81"/><path d="M15,36.72c1.31,0,8.19-1.39,9.13-1.39s1.87-0.35,2.62-0.35"/><path d="M14.33,35.64c0.42,1.11,0.21,2.96-0.03,4.39c-0.27,1.64-2.02,6.95-2.68,10.51c-0.45,2.42,0.21,2.59,1.36,2.25c4.27-1.29,11.34-2.69,13.35-2.84c1.64-0.13,2.46,1.19,2.3,4.3c-0.51,9.82-0.63,21.5-3.23,33.52c-0.89,4.1-3.9,6.48-7.21,3.07"/><path d="M21.16,56.42c0.03,0.35,0.13,0.95-0.06,1.4c-1.8,4.31-5.05,8.75-9.8,13.39"/><path d="M25.55,66.23c0.04,0.43,0.22,1.18-0.08,1.73c-2.61,4.74-8.18,11.33-14.48,16.53"/><path d="M34.1,20.03c1.35,0.79,2.62,0.58,3.42,0.42c2.83-0.57,8.91-2.3,10.5-2.98c1.58-0.68,2.49-0.24,2.02,1.57c-0.47,1.81-2.12,7.32-3.56,14.27"/><path d="M37.5,35.64c1.26,0,7.84-1.62,8.74-1.62s1.79-0.41,2.51-0.41"/><path d="M36.62,34.21c0.37,0.91,0.71,1.46,0.47,2.89c-0.27,1.64-1.86,6.56-2.65,11.04c-0.2,1.11,0.24,2.64,1.36,2.25c4.7-1.64,9.85-3.22,11.87-3.38c1.64-0.13,2.45,1.2,2.3,4.3C49.25,66.5,49,77.25,46.28,88.7c-0.96,4.05-4.28,2.8-6.35,1.6"/><path d="M42.28,54.05c0.03,0.34,0.06,0.88-0.05,1.37c-0.65,2.89-3.98,7.83-9.42,13.12"/><path d="M47.05,64.8c0.04,0.43,0.18,1.17-0.09,1.74c-2.35,5.01-7.93,11.75-15.39,17.14"/><path d="M70.54,11.91c0.02,0.27,0.04,0.7-0.03,1.07c-0.41,2.24-2.74,7.02-5.93,9.81"/><path d="M59.3,24.25c0.33,0.42,0.6,0.98,0.6,1.67c0,6.97,0.04,32.75-0.17,43.71"/><path d="M60.31,25.52c1.55,0,22-3.05,23.51-2.95c2.24,0.15,3.33,2.07,3.13,3.87c-0.12,1.11-2.64,12.21-4.08,20.67"/><path d="M60.56,35.92c1.9,0.13,21.6-2.64,23.75-2.5"/><path d="M60.47,48.03c6.03-0.78,17.55-2.9,22.38-2.91"/><path d="M60.69,58.76c8.73-1.07,28.04-3.61,31.79-4.28c1.31-0.23,3.53-0.44,4.18-0.13"/><path d="M59.74,69.83c9.1-1.57,26.13-3.79,31.17-4.26c3.28-0.3,4.97,0.86,4.38,4.41c-1.64,9.87-4.08,19.24-6.93,25.3c-2.86,6.1-5.97,1.01-7.3-0.23"/><path d="M55.77,80.37c0.47,3.93-0.34,8.65-1.73,11.06"/><path d="M62.57,78.44c1.5,2.02,2.92,7.32,3.29,10.28"/><path d="M71.24,75.79c1.84,1.77,4.76,7.12,5.22,9.73"/><path d="M80.41,74.07c1.8,1.62,4.66,6.5,5.11,8.87"/></svg>