<svg><path d="M23.96,18.41c0.03,0.42,0.06,1.09-0.06,1.7c-0.73,3.59-5.4,11.47-11.15,16.29"/><path d="M31.65,14.82c1.49,0.35,10.55,13.6,14.94,16.56c1.7,1.15,2.31,1.76,3.96,2.13"/><path d="M18.88,36.94c0.65,0.35,1.84,0.39,2.5,0.35c3.05-0.17,12.99-1.93,16.09-2.35c1.08-0.14,1.74-0.27,2.29-0.09"/><path d="M23.38,46.92c0.2,0.55-0.03,1.17-0.29,1.84c-1.67,4.43-7.93,14.19-11.74,16.46"/><path d="M32.23,43.08c1.42,0.31,10.05,12.18,14.24,14.84c1.62,1.03,2.2,1.58,3.77,1.91"/><path d="M16.05,68.06c0.45,0.59,1.42,2.06,1.52,2.56c0.75,3.98,0.87,12.1,1.38,19.25"/><path d="M17.86,69.31c9.39-1.81,21.69-4.14,24.58-4.4c1.06-0.09,1.8,0.98,1.54,2.43c-0.82,4.6-1.42,7.77-2.18,12.98"/><path d="M26.08,67.87c0.19,0.38,0.46,1.57,0.46,2.05c0,5.9,0.26,8.96,0.26,16.67"/><path d="M34.68,66.15c0.46,1.13,0.71,1.81,0.66,2.76c-0.26,5.28-0.39,7.44-1.05,14.57"/><path d="M12.39,89.9c0.67,1.12,2.41,1.3,3.08,1.12c7.01-1.87,24.78-10.27,31.95-12.2"/><path d="M71.03,10.16c0.03,0.28,0.05,0.72-0.05,1.11c-0.58,2.32-3.88,7.29-8.41,10.18"/><path d="M58.3,22.92c0.33,0.43,0.6,1.02,0.6,1.73c0,7.23,0.04,33.51-0.17,44.88"/><path d="M59.31,24.25c1.55,0,23-3.17,24.51-3.06c2.24,0.16,3.33,2.15,3.13,4.02c-0.12,1.15-1.64,13.19-3.08,21.96"/><path d="M59.56,35.58c1.9,0.13,23.6-2.74,25.75-2.59"/><path d="M59.47,47.12c3.88-0.14,19.55-2.48,24.38-2.5"/><path d="M59.19,57.84c9.28-0.95,29.8-3.21,33.78-3.81c1.39-0.21,3.75-0.4,4.45-0.12"/><path d="M58.74,69.75c9.1-1.63,27.13-3.92,32.17-4.4c3.28-0.31,4.97,0.89,4.38,4.57c-1.64,10.24-3.58,18.46-6.43,24.75c-2.86,6.33-5.97,1.04-7.3-0.24"/><path d="M53.27,77.73c0.32,5.14-0.23,11.29-1.18,14.44"/><path d="M60.84,78.24c1.59,2.28,3.1,8.27,3.5,11.62"/><path d="M69.23,76.79c1.68,1.96,4.32,7.87,4.75,10.76"/><path d="M79.16,74.73c1.54,1.94,3.97,7.79,4.36,10.64"/></svg>