<svg><path d="M43.9,11.75c-0.26,0.73-0.52,1.09-1.06,1.41c-3.52,2.05-14.18,7.69-25.56,9.79"/><path d="M15.54,11.5c0.67,0.7,0.71,1.17,0.93,2.1c0.22,0.93-0.15,5.24-0.15,8.17c0,7.52,10.42,6.32,18.01,6.32c11.02,0,16.18-1.23,16.18-9.14"/><path d="M23.99,35.71c0.28,0.73,0.69,2.06,0.69,3.03c0,0.97-0.09,30.34,0,31.31"/><path d="M25.15,37.74c1.59-0.12,14.91-2.32,16.36-2.29c0.66,0.02,1.32,0.48,1.32,2.04c0,1.17,0.02,31.11-0.07,31.83"/><path d="M24.75,47.27c3.13-0.17,15.17-2.01,17.72-2.01"/><path d="M24.63,57.06c4.2-0.41,13.81-1.92,17.89-1.92"/><path d="M24.77,67.48c3.15,0,13.7-2.02,17.78-2.02"/><path d="M13.34,43.56c0.43,0.99,1,1.73,1,3.46c0,1.73-1.34,26.23-1.71,29.48c-0.25,2.21,1.65,2.5,3.21,2.2C26,76.75,40.5,75.75,47.4,75.74c1.28,0,2.85,0.25,3.85,0.49"/><path d="M24.73,82.55c0.04,0.31,0.08,0.8-0.07,1.25c-0.88,2.63-5.93,8.4-12.85,11.92"/><path d="M38.08,81.75c3.36,1.98,8.69,8.15,9.53,11.24"/><path d="M73.54,9.16c0.02,0.35,0.04,0.9-0.04,1.39c-0.49,2.88-3.31,9.06-7.17,12.65"/><path d="M59.8,24.42c0.33,0.43,0.6,2.02,0.6,2.73c0,7.23,0.04,29.51-0.17,40.88"/><path d="M60.81,25.75c1.55,0,23-3.17,24.51-3.06c2.24,0.16,3.33,2.15,3.13,4.02c-0.12,1.15-1.64,10.19-3.08,18.96"/><path d="M61.06,35.58c1.9,0.13,23.6-2.74,25.75-2.59"/><path d="M60.97,46.62c3.88-0.14,19.55-2.48,24.38-2.5"/><path d="M60.69,56.36c8.91-0.84,29.13-2.86,32.95-3.38c1.33-0.19,3.6-0.35,4.27-0.11"/><path d="M60.24,68.25c9.1-1.63,27.13-3.42,32.17-3.9c3.28-0.31,4.97,0.89,4.38,4.57c-1.64,10.24-2.54,16.57-5.43,24.25c-2.45,6.5-5.97,1.04-7.3-0.24"/><path d="M55.35,79.16c0.42,4.63-0.3,10.18-1.54,13.02"/><path d="M62.35,75.98c1.94,2.29,3.78,8.32,4.26,11.68"/><path d="M71.97,73.86c1.68,1.76,4.33,7.08,4.75,9.68"/><path d="M82.14,71.98c1.81,1.68,4.67,6.75,5.12,9.21"/></svg>