<svg><path d="M12.9,22.45c0.88,0.52,2.48,0.61,3.36,0.52C25.39,22.09,35.5,21,44.52,19.9c1.47-0.18,3.22-0.28,3.95-0.02"/><path d="M24.54,30.36c0.21,0.29,0.43,0.54,0.53,0.91c0.74,2.91,1.63,10.94,2.14,16.17"/><path d="M25.51,31.79c5.11-1.12,13.71-2.42,16.63-2.87c1.07-0.16,1.71,0.97,1.56,1.92c-0.63,3.97-1.08,6.15-2.02,11.63"/><path d="M27.18,45.12c3.44-0.5,11.14-1.38,15.86-2.15"/><path d="M20.2,56.64c0.25,0.33,0.51,0.6,0.62,1.01c0.87,3.26,1.78,13.43,2.37,19.28"/><path d="M21.46,58.85c3.18-0.86,5.76-2.25,8.69-2.67c1.07-0.16,1.71,0.93,1.56,1.85c-0.63,3.81-1.08,10.5-2.02,15.76"/><path d="M23.14,74.98c3.44-0.48,7.06-1.24,8.37-1.15"/><path d="M36.53,54.64c0.25,0.36,0.51,0.66,0.62,1.11C38.01,59.3,38.71,68.63,39.3,75"/><path d="M37.5,56.14c3.95-1.02,6.9-1.54,9.83-2c1.07-0.17,1.71,1.01,1.56,2.01c-0.63,4.14-1.37,9.11-2.32,14.83"/><path d="M39.46,73.25c3.44-0.53,3.45-0.03,8.18-0.84"/><path d="M15.14,23.8c0,3.58,0,58.09,0,61.44c0,6.03,0.57,3.69,1.59,3.57c5.77-0.67,23.3-3.39,25.17-3.39s3.46-0.31,4.62,0.14"/><path d="M68.38,9.91c0.02,0.28,0.04,0.72-0.03,1.1c-0.42,2.3-2.85,7.23-6.16,10.09"/><path d="M56.62,21.58c0.35,0.43,0.62,1.01,0.62,1.71c0,7.17-0.46,35.22-0.67,46.49"/><path d="M57.67,22.89c1.62,0,21.83-3.14,23.4-3.03c2.33,0.16,3.46,2.13,3.25,3.98c-0.13,1.14-1.71,13.08-3.21,21.78"/><path d="M57.93,34.12c1.98,0.13,22.46-2.72,24.7-2.57"/><path d="M57.83,46.06c4.03-0.14,18.25-2.46,23.27-2.48"/><path d="M58.06,58.2c8.51-0.83,27.33-2.83,30.99-3.35c1.27-0.18,3.44-0.35,4.08-0.1"/><path d="M56.58,70c9.46-1.62,30.16-3.89,35.41-4.37c3.42-0.31,5.17,0.88,4.55,4.53c-1.71,10.15-4.24,19.79-7.21,26.03c-2.98,6.27-6.21,1.04-7.59-0.24"/><path d="M52.41,81.63c0.46,4.13-0.33,9.07-1.7,11.6"/><path d="M59.7,80.15c1.91,1.82,3.72,6.61,4.2,9.29"/><path d="M69.93,78.46c1.39,1.4,3.6,5.63,3.95,7.7"/><path d="M79.23,76.17c1.78,1.34,4.6,5.37,5.05,7.33"/></svg>