<svg><path d="M19.96,15.72c0.92,0.29,2.6,0.33,3.53,0.29c6.54-0.33,16.02-1.76,21.73-2.38c1.52-0.17,2.46,0.14,3.22,0.28"/><path d="M32.9,8.57c0.08,0.16,1.17,0.81,1.17,1.8c0,6.42-0.13,10.26-0.13,11.87"/><path d="M15.35,23.23c1.3,0.38,3.7,0.47,5,0.38c8.4-0.61,17.4-1.61,27.74-2.43c2.17-0.17,3.48-0.32,4.57-0.13"/><path d="M24.26,24.21c1.49,0.95,3.84,3.92,4.21,5.4"/><path d="M43.24,21.78c0.01,0.17,0.03,0.43-0.03,0.67c-0.32,1.41-2.17,4.23-5.16,6.94"/><path d="M14.97,32.67c0.69,0.25,3.04,0.28,3.73,0.23c10.54-0.9,17.86-1.86,29.48-2.38c1.14-0.05,3.53-0.16,4.11-0.03"/><path d="M18.66,40.2c0.95,0.24,2.69,0.31,3.63,0.24c7.95-0.6,13.55-1.59,21.69-1.97c1.57-0.07,2.52,0.11,3.31,0.24"/><path d="M33.1,31.91c0.35,0.27,1.11,1.49,1.18,2.03c0.07,0.54-0.05,10.12-0.12,13.49"/><path d="M70.31,8.09c0.33,0.31,0.83,1.48,0.8,2.04C70.5,24.5,64.25,37,56.9,44.3"/><path d="M57.46,20.21c0.85,0.3,3.17,0.1,4.24,0s16.99-2.71,20.33-3.32c2.46-0.44,2.04,1.65,1.68,2.91c-0.97,3.45-2,8.49-2.1,14.09c-0.12,6.86,0.63,9.06,7.5,9.06c5.88,0,6.41-1.2,6.41-3.92"/><path d="M60.27,27.95c6.07,1.23,12.31,5.61,13.5,7.62"/><path d="M50.73,41.43c0.02,0.21,0.04,0.55-0.04,0.85c-0.44,1.8-2.97,5.75-6.44,8.17"/><path d="M32.13,50.79c0.46,0.26,0.82,1.61,0.82,2.05c0,4.51-0.45,21.84-0.73,28.94"/><path d="M33.02,53.07C35.15,53,70.61,49.7,72.68,49.7c3.07,0,4.07,2.2,3.79,3.37c-0.17,0.72-1.75,7.05-3.73,12.59"/><path d="M33.36,59.51c2.61,0,38.42-2.64,41.37-2.64"/><path d="M33.24,66.71c5.31-0.26,32.87-2.3,39.48-2.52"/><path d="M33.53,74.02c8.48-0.67,37.22-2.52,47.22-3.27c1.68-0.13,4.53-0.36,5.38-0.24"/><path d="M32.23,81.92C44.71,80.5,77.08,78.59,84,78.07c4.5-0.34,4.38,1.98,4,4.41c-0.75,4.78-3,11.53-5,14.99c-2.62,4.54-4.75,1.28-7-1.33"/><path d="M23.14,85.59c-0.89,4.16-4.17,11.2-6.9,13.66"/><path d="M33.25,87.44c1.89,1.71,3.69,6.42,4.16,9.09"/><path d="M46,85.39c2.21,1.76,5.7,7.26,6.25,10"/><path d="M60.25,84.92c2.29,1.5,5.93,6.16,6.5,8.49"/></svg>