<svg><path d="M52.45,9.13c0.96,0.96,1.29,2.37,1.29,3.89c0,0.68-0.07,1.85-0.07,3.63"/><path d="M23.47,19.78c3.14,1.06,6.98,0.19,10.19-0.14c14.72-1.52,29.97-3.14,46.7-4.43c2.93-0.23,5.87-0.23,8.77,0.36"/><path d="M25.4,20.92c0.84,0.84,0.95,1.96,0.91,3.94C25.88,44.5,22.88,62,10.81,76.97"/><path d="M44.22,22.6c0.16,0.81,0.05,1.55-0.33,2.23c-1.77,3.81-6.91,9.7-13.33,14.42"/><path d="M39.77,32.89c0.8,0.8,0.97,1.36,0.97,2.63c0,3.16-0.01,8.06-0.02,11.98c0,1.64-0.01,3.11-0.01,4.2"/><path d="M59.07,20.33c0.19,1.04-0.31,1.87-0.84,2.7c-2.05,3.16-4.52,6.04-9.1,10.13"/><path d="M56.29,28.53c0.84,0.84,0.9,1.59,0.9,2.77c0,3.24-0.03,8.87-0.05,13.2c-0.01,1.82-0.01,3.41-0.01,4.5"/><path d="M74.73,18.67c0.02,0.72-0.15,1.39-0.51,2.01c-0.8,1.78-1.08,2.22-2.99,4.64"/><path d="M58.05,28.65c4.2-0.62,17.37-2.47,25.09-3.59c2.83-0.41,4.93-0.71,5.59-0.83"/><path d="M70.44,28.44c0.64,0.57,0.75,1.18,0.75,2.43c0,4.92-0.06,12.48-0.06,14.63"/><path d="M58.07,34.62c4.05-0.56,16.22-2.1,23.07-2.99c2.3-0.3,4-0.53,4.59-0.62"/><path d="M57.42,40.96c4.28-0.53,17.29-1.83,24.57-2.59c2.43-0.25,4.22-0.45,4.83-0.53"/><path d="M57.42,48.08c4.25-0.63,19.92-2.11,28.73-3c3.06-0.31,5.3-0.55,5.93-0.66"/><path d="M52.42,49.68c0.02,0.24,0.04,0.63-0.04,0.98c-0.3,1.17-1.38,3.12-3,5.09"/><path d="M36.83,57.65c0.69,0.69,0.76,1.6,0.76,3.11c0,2.62-0.05,12.18-0.08,18.73c-0.01,2.69-0.02,4.88-0.02,5.88"/><path d="M38.37,58.79c5.09-0.7,28.99-3.18,35.75-3.75c1.9-0.16,4.34,0.77,3.66,3.33c-0.16,0.59-2.41,8-3.92,11.34"/><path d="M38.93,64.58c3.69-0.33,33.79-2.92,36.52-2.92"/><path d="M38.82,70.99c4.92-0.21,28.15-2.39,34.27-2.57"/><path d="M38.85,77.5c10.6-0.97,31.72-2.84,40.15-3.59c2.54-0.22,5.13-0.79,7.68-0.46"/><path d="M38.65,84.65c17.73-2.15,32.23-3.52,46.24-4.44c3.81-0.25,5.82,1.99,4.22,5.08c-2.11,4.08-3.98,7.33-7.14,11.7C79.28,100.68,77,99,75.2,96.13"/><path d="M28.2,89.76c0.4,3.35-0.29,7.4-1.48,9.49"/><path d="M41.93,87.78c2.12,1.56,4.62,6.1,5.15,8.53"/><path d="M55.04,85.5c1.53,1.49,3.94,6.14,4.33,8.47"/><path d="M68.02,83.82c1.5,1,3.86,4.09,4.24,5.63"/></svg>