<svg><path d="M15,15.6c0.2,0.65,0.5,1.14,0.5,2.01c0,0.87,0.09,23.21-0.15,26.84"/><path d="M15.84,16.36c1.15-0.11,9.89-1.5,10.93-1.63c0.87-0.11,1.34,0.6,1.34,1.41c0,1.99-0.26,26.99-0.26,27.64"/><path d="M15.52,25.53c2.14-0.25,10.46-1.76,12.3-1.76"/><path d="M15.62,33.77c3.24-0.48,8.79-1.45,12.22-1.55"/><path d="M15.47,42.75c3.24-0.36,9.42-1.3,12.37-1.3"/><path d="M17.91,47.58c0.19,0.81-0.15,1.6-0.53,2.19c-1.15,1.78-4.17,5.57-6.47,7.68"/><path d="M25.39,46.58c1.6,1.97,3.48,5.54,3.92,7.27"/><path d="M35.96,14.85c0.21,0.64,0.52,1.12,0.52,1.97c0,0.85,0.1,22.81-0.16,26.39"/><path d="M36.84,15.59c1.21-0.11,10.39-1.47,11.49-1.6c0.92-0.11,1.4,0.59,1.4,1.39c0,1.95-0.27,26.53-0.27,27.17"/><path d="M36.51,24.61c2.25-0.25,11-1.74,12.93-1.74"/><path d="M36.6,32.71c3.4-0.47,9.24-1.42,12.84-1.52"/><path d="M36.45,41.54c3.4-0.35,9.9-1.28,13-1.28"/><path d="M40.31,46.1c0.17,0.73-0.13,1.44-0.47,1.97c-1.03,1.6-3.73,5.01-5.78,6.9"/><path d="M46.27,45.6c1.96,2.23,4.27,6.27,4.81,8.22"/><path d="M29.07,58.86c0.3,1.11,0.26,2.62-0.15,3.88c-2.23,6.81-4.67,9.26-9.16,14.73c-1.19,1.45-0.17,1.98,0.45,2.03C29.24,80.25,39,86,45.15,95.76"/><path d="M42.31,62.05c0.08,0.81,0.14,2.79-0.16,3.98c-2.46,9.56-9.33,24.12-27.12,30.22"/><path d="M10.38,66.06c1.28,0.42,2.64,0.71,3.26,0.64c12.93-1.33,24.65-3.24,37-3.42c1.02-0.02,2.78,0.26,3.61,0.74"/><path d="M74.54,9.16c0.02,0.28,0.04,0.72-0.03,1.11c-0.41,2.32-2.74,7.29-5.93,10.18"/><path d="M61.3,22.42c0.33,0.43,0.6,1.02,0.6,1.73c0,7.23,0.04,34.01-0.17,45.38"/><path d="M62.31,23.75c1.55,0,21-3.17,22.51-3.06c2.24,0.16,3.33,2.15,3.13,4.02c-0.12,1.15-1.14,12.19-2.58,20.96"/><path d="M62.56,34.08c1.9,0.13,21.6-2.24,23.75-2.09"/><path d="M62.47,45.62c3.88-0.14,18.05-1.48,22.88-1.5"/><path d="M62.19,56.9c8.73-0.68,28.04-2.32,31.79-2.75c1.31-0.15,3.53-0.29,4.18-0.09"/><path d="M61.74,69.75c12.51-1.75,26.13-3.42,31.17-3.9c3.28-0.31,4.97,0.89,4.38,4.57C95.65,80.66,93,88.5,88.36,95.17c-3.96,5.7-5.97,1.04-7.3-0.24"/><path d="M53.77,81.73c0.4,3.71-0.29,8.16-1.46,10.44"/><path d="M61.82,78.99c1.38,1.94,2.7,7.03,3.04,9.87"/><path d="M71.2,76.29c1.34,1.69,3.46,6.78,3.8,9.26"/><path d="M79.16,73.73c2.07,1.76,5.34,7.06,5.86,9.64"/></svg>