<svg><path d="M51.45,9.38c0.67,0.43,2.1,3.24,2.24,4.1c0.14,0.87,0.41,16.74,0.28,22.15"/><path d="M54.25,23.75c3.68-0.25,27.5-3.5,31.4-4c1.99-0.26,4.71,0,6.35,0.25"/><path d="M22.95,35.99c0.68,1.3,1.67,2.28,1.69,4.01c0.13,12.99,0.13,33.2-0.28,58"/><path d="M26.11,38.11c18.64-1.36,53.89-4.36,56.76-4.36c3.13,0,4.23,2.27,4.18,5c-0.23,14.33-0.91,36.72-0.46,56.97"/><path d="M69.94,39.34c0.63,1.2,1.01,2.79-0.19,4.75C58,63.25,47.5,76.25,30.97,88.23"/><path d="M35.73,49.13c15.22,7.92,31.96,22.97,40.01,34.92"/><path d="M48.98,42.63c3.43,2.19,7.2,6.36,9.01,9.67"/><path d="M31.48,59.88c3.43,2.36,7.2,6.86,9.01,10.42"/><path d="M69.98,57.88c4.09,2.93,8.6,8.5,10.76,12.92"/><path d="M52.48,78.13c3.81,2.42,8,7.02,10.01,10.67"/><path d="M25.22,95.28c11.89,0,44.96-1.91,61.38-2.29"/></svg>