<svg><path d="M25.78,14.16c1.03,1.03,1.32,2.34,1.32,3.51c0,0.75-0.05,16.71-0.05,21.7"/><path d="M27.95,25.7c1.54-0.17,9.96-1.31,14.07-1.86c1.73-0.42,3.47-0.45,5.23-0.09"/><path d="M12.2,39.93c0.94,0.94,1.11,2.2,1.11,3.68c0,9.2-0.09,26.44-0.13,40.89c-0.01,3.64-0.02,7.11-0.02,10.22"/><path d="M14.06,41.74c7.52-0.92,20.06-2.36,25.92-2.99c3.16-0.33,4.48,0.36,4.48,4.03c0,9.32,0.01,23.59,0.01,37.46c0,4.3,0,8.53,0,12.53"/><path d="M36.46,45.04c0,1.21,0.03,2.17-0.6,3.7c-6.16,14.92-11.16,24.55-19.82,33.88"/><path d="M19.98,53.67C28.25,60,34.07,68.82,38.19,79.05"/><path d="M24.25,45.36c1.66,1.37,3.48,3.71,4.36,5.78"/><path d="M17.81,62.37c1.56,1.29,3.78,3.98,4.61,5.92"/><path d="M36.24,61.4c1.62,1.37,2.9,3.24,3.75,5.31"/><path d="M27.54,78.48c1.57,1.5,2.79,4.36,3.62,6.63"/><path d="M14.36,91.15c8.14-0.9,20.74-1.63,29.13-1.96"/><path d="M68.74,12.25c0.05,0.76,0.09,2.04-0.36,3.05C64.75,23.5,59.38,34,49.9,43.75"/><path d="M70.62,17.25C73.83,21.17,81,29.38,86.42,34.59c2.82,2.71,5.15,5.29,8.69,6.79"/><path d="M58.98,42.4c1.57,0.25,3.13,0.51,4.66,0.21c6.23-1.23,11.4-1.76,14.5-2.24c1.53-0.24,3.1-0.01,4.64,0.2"/><path d="M52.89,55.62c0.68,0.68,0.98,1.51,1.19,2.3c0.64,2.47,1.2,5.89,1.79,9.81c0.25,1.67,0.51,3.42,0.78,5.24"/><path d="M54.52,57.03c8.33-1.26,22.18-3.07,28.6-3.8c3.49-0.39,5.16,0.88,4.08,4.42c-0.8,2.63-1.58,5.35-2.73,9.73"/><path d="M57.53,71.47c4.68-0.44,16.27-1.87,24.22-2.66c1.69-0.17,3.22-0.31,4.48-0.4"/><path d="M68.92,44.5c0.98,0.98,1.14,2.1,1.17,3.92c0.53,27.2-4.84,40.2-20.45,50.33"/><path d="M71,71.88c2.88,4.62,10.38,14,15.8,19.56c2.34,2.4,4.58,4.71,7.55,6.19"/></svg>