<svg><path d="M45.99,9c0.08,0.55,0.33,1.51-0.15,2.2C42,16.75,35.25,25.25,19.5,33.25"/><path d="M43.5,18.56c1.32,0.08,2.95,0.29,4.65,0.01c9.6-1.58,16.63-3.21,19.53-3.34c3.17-0.15,2.64,2.36,1.48,3.33C66.25,21,63.25,22.75,59.5,25"/><path d="M51.77,30.63c0.69,0.3,1.8,2.27,1.8,2.89c0,1.48-0.07,4.23-0.07,6.2"/><path d="M22.2,41.68c1.74,0.43,4.95,0.59,6.69,0.43c17.36-1.61,36.09-3.15,52.13-3.98c2.9-0.15,4.65,0.2,6.11,0.42"/><path d="M26.2,42.69c0.04,1.26,0.09,3.24-0.08,5.05c-0.98,10.65-3.2,36.47-13.81,47.94"/><path d="M31.69,54.52c1.83,0.5,3.38,0.83,5.28,0.63c13.09-1.38,37.77-3.9,41.45-4.11c2.75-0.16,3.73,1.34,3.23,3.12c-0.92,3.28-2.14,6.53-3.38,10.06"/><path d="M42.76,46.48c0.8,0.33,1.29,2.04,1.45,2.7c0.16,0.66,0.62,12.7,1.07,17.25"/><path d="M62.69,44.56c0.8,0.33,1.49,2.03,1.45,2.7c-0.2,2.94-1.57,12.8-2.26,17.35"/><path d="M29.42,67.64c1.32,0.46,3.75,0.59,5.08,0.46c8.44-0.81,32.05-4.35,41.52-4.18c2.21,0.04,3.53,0.22,4.64,0.46"/><path d="M35.42,81.98c4.55-0.23,9.79-1.61,13.75-2c1.16-0.12,1.9-0.11,2.5-0.04"/><path d="M33.93,73.5c0.82,0.42,1.52,2.15,1.52,2.72c0,1.54-0.26,17.21-0.26,19.17c0,2.18,1.66,2.35,3.29,1.66c4.27-1.79,7.26-3.23,12.38-6.06"/><path d="M81.38,73.16c-0.13,1.09-0.12,1.94-0.82,2.39C76.75,78,70.53,80.97,64.12,83.3"/><path d="M60.03,70.67c0.93,0.45,1.29,1.39,1.29,2.51c0,1.48,0.43,15.84,0.4,17.58C61.6,97.08,63,98.8,76.04,98.8c13.71,0,14.74-1.8,14.74-10.11"/></svg>