<svg><path d="M51.6,8.13c0.77,0.29,2.39,2.18,2.54,2.77c0.15,0.58,0.08,2.27-0.07,5.92"/><path d="M19.96,19.19c1.54,0.41,4.35,0.48,5.89,0.41c15.98-0.69,44.33-3.99,58.45-4.79c2.56-0.14,4.1,0.2,5.38,0.4"/><path d="M22.87,19.66c0.05,1.2,0.41,2.6,0.41,4.34c0,12.26-2.28,35.26-10.77,46.41"/><path d="M30.19,29.11c1.83,0.34,3.38,0.57,5.28,0.43c13.09-0.94,42.29-4.34,45.95-4.81c1.83-0.23,2.73,1.91,2.23,3.13c-0.92,2.24-1.64,4.64-2.88,7.05"/><path d="M44.76,22.46c0.8,0.22,1.29,1.4,1.45,1.84c0.16,0.45,0.62,9.02,1.07,12.12"/><path d="M64.19,21.15c0.8,0.22,1.49,1.39,1.45,1.84c-0.2,2.01-0.57,9.27-1.26,12.38"/><path d="M29.92,38.12c1.21,0.26,3.42,0.33,4.63,0.26c7.69-0.45,36.25-3.54,44.88-3.44c2.01,0.02,3.22,0.12,4.23,0.25"/><path d="M36.92,47.55c4.55-0.16,10.79-1.6,14.75-1.87c1.16-0.08,1.9-0.08,2.5-0.03"/><path d="M34.93,41.94c0.82,0.29,1.52,1.13,1.52,1.52c0,1.06-0.26,11.12-0.26,12.46c0,1.49,1.66,1.26,3.29,0.79c4.27-1.22,7.26-2.2,12.38-4.14"/><path d="M81.38,40.4c0.21,0.29,0.54,0.78,0.18,1.29c-0.51,0.72-11.03,4.04-17.45,5.63"/><path d="M61.5,40.42c0.87,0.28,1.2,0.89,1.2,1.6c0,0.94-0.07,5.94-0.1,7.05c-0.1,4.04,3.01,4.82,13.39,4.82c9.71,0,12.78-1.13,12.78-6.4"/><path d="M47.65,60.44c0.3,0.19,0.62,0.34,0.75,0.58c1.06,1.86,1.32,6.98,2.04,10.32"/><path d="M49.55,61.08c7.46-0.78,21.03-1.8,24.87-2.07c1.41-0.1,2.25,0.97,2.05,1.53c-0.83,2.34-1.29,3.85-3.07,7.23"/><path d="M50.75,70.11c4.52-0.3,19.04-1.75,24.77-2.04"/><path d="M32.49,63.56c1.24,0.56,1.6,1.94,1.61,2.72c0.04,1.67-0.18,8.92-0.31,11.22c-0.03,0.5,0.7,1.37,2.95,1.14c4.98-0.51,35.66-3.17,41.23-3.68c2.27-0.21,2.52,1.36,2.21,2.35c-0.69,2.19-0.82,3.98-1.79,6.86"/><path d="M20.38,87.42c1.29,0.34,4.75,0.86,7.49,0.59C47.75,86,70.82,84.48,87.49,84c2.87-0.08,5.17-0.04,7.76,0.22"/><path d="M56.16,77.44c0.56,0.34,1.06,0.78,0.83,1.48C52.5,92.5,38.75,100,21.25,102.5"/><path d="M56.5,86.03c6.27,3.27,20.9,11.61,27.16,13.8c2.13,0.74,2.87,0.86,3.84,0.93"/></svg>