<svg><path d="M15.66,24.05c0.7,0.17,2.82,0.15,4.69,0c6.56-0.52,17.83-2.88,24.86-3.22c1.87-0.09,2.28,0.48,3.45,0.66"/><path d="M32.07,12.32c0.68,0.62,1.61,2.01,1.61,2.74c0,8.14,0,21.64-0.23,25.95"/><path d="M33.24,22.91c-3.1,6.27-12.32,16.79-18.75,20.34"/><path d="M35.86,26.48c2.92,1.32,6.56,3.76,9.11,5.84"/><path d="M55.02,20.29c0.57,0.17,1.33,0.45,2.85,0.52c4.18,0.17,15.73-2.21,26.19-3.07c1.52-0.12,2.84-0.17,3.79,0"/><path d="M69.06,9.44c1.17,0.34,2.11,2.51,2.11,3.24c0,5.51,0,21.71-0.23,26.01"/><path d="M70.99,19.34c-2.19,4.82-9.02,11.52-14.1,13.99"/><path d="M71.37,19.14c4.76,5.34,12.39,12.18,16.25,14.29c1.1,0.6,1.72,1.01,2.64,1.22"/><path d="M51.77,35.57c0.69,0.27,2.16,2.02,2.3,2.56c0.14,0.54,0.07,2.56-0.07,5.93"/><path d="M19.7,47.19c1.58,0.47,4.49,0.55,6.08,0.47c16.5-0.79,44.21-4.03,58.8-4.95c2.64-0.17,4.23,0.23,5.55,0.46"/><path d="M25.2,48.68c0.04,1.19,0.07,3.07-0.07,4.78c-0.84,10.07-2.74,34.51-11.82,45.36"/><path d="M28.19,58.77c1.83,0.44,3.38,0.73,5.28,0.56c13.09-1.22,42.77-4.95,46.45-5.14c2.75-0.14,3.73,1.18,3.23,2.76c-0.92,2.9-1.64,5.66-2.88,8.78"/><path d="M43.76,49.6c0.8,0.29,1.29,1.81,1.45,2.39c0.16,0.58,0.29,10.21,0.07,15.7"/><path d="M63.69,47.4c0.8,0.29,1.49,1.79,1.45,2.39c-0.2,2.6-1.57,12.65-2.26,16.68"/><path d="M26.42,70.32c1,0.37,2.84,0.47,3.84,0.37c6.38-0.63,41.73-5.04,48.89-4.91c1.67,0.03,2.67,0.17,3.51,0.36"/><path d="M35.42,82.17c5.32-0.26,11.45-1.78,16.08-2.21c1.36-0.13,2.23-0.12,2.92-0.05"/><path d="M33.43,72.83c0.82,0.37,1.52,1.46,1.52,1.96c0,1.37-0.26,20-0.26,21.73c0,1.92,1.66,1.64,3.29,1.03c4.27-1.58,7.26-2.86,12.38-5.36"/><path d="M86.78,72.17c0.22,1.27,0.07,2.2-0.76,2.78c-2.52,1.75-13.48,6.63-21.9,9.44"/><path d="M60.53,70.39c1.03,0.45,1.41,1.4,1.41,2.53c0,1.49-0.08,16.49-0.11,18.25c-0.12,6.38,3.54,8.11,15.75,8.11c11.42,0,15.21-2.67,15.21-8.16"/></svg>