<svg><path d="M30.6,13.13c0.44,0.38,1.38,2.88,1.46,3.65c0.09,0.77,0.05,2.65-0.04,7.46"/><path d="M13.56,26.41c0.87,0.37,2.48,0.43,3.35,0.37c9.09-0.62,20.86-2.92,32.17-3.24c1.46-0.04,2.33,0.18,3.06,0.36"/><path d="M17.3,27.5c0.16,0.96,0.26,2.01,0.26,4.2c0,17.37-0.71,40.87-8.25,60.02"/><path d="M19.8,39.62c1.17,0.63,2.14,0.95,3.37,0.8c9.33-1.17,20.84-4.21,23.18-4.48c1.75-0.2,2.37,1.69,2.06,3.94c-0.59,4.15-1.05,5.88-1.84,10.33"/><path d="M28.07,31.37c0.51,0.41,0.82,1.87,0.92,2.7c0.1,0.83,0.09,12.18,0.38,17.93"/><path d="M37.96,30.09c0.51,0.42,0.95,1.85,0.92,2.7c-0.13,3.71-0.31,12.71-0.74,18.46"/><path d="M19.9,53.39c0.57,0.38,1.62,0.49,2.19,0.38c3.63-0.66,20.1-3.52,24.18-3.38c0.95,0.03,1.52,0.18,2,0.37"/><path d="M23.5,70.29c3.38-1.54,6.04-2.33,8.56-2.82c0.74-0.14,1.21-0.14,1.59-0.06"/><path d="M22.35,58.7c0.52,0.53,0.97,2.08,0.97,2.8c0,1.95-0.16,23-0.16,28.32c0,2.67-0.16,2.94,2.1,1.47c3.23-2.1,5.46-3.79,8.71-6.59"/><path d="M50.27,60.33c0.14,0.54-0.03,2.29-0.58,2.89c-2.83,3.04-6.33,6.98-10.42,9.92"/><path d="M37.76,56.5c0.47,0.58,0.65,1.81,0.65,3.28c0,1.93-0.04,21.37-0.05,23.64c-0.05,8.27,0.86,10.16,6.45,10.16c5.22,0,6.98-0.86,6.98-7.99"/><path d="M55.63,29.84c1.62,0.16,3.09,0.42,3.83,0.34c6.79-0.68,23.04-2.68,31.37-3.25c1.23-0.08,1.97,0.16,2.58,0.33"/><path d="M63.32,13.28c0.85,0.48,1.36,2.15,1.53,3.11c0.17,0.96,1.5,47.77,1.33,53.74"/><path d="M82.97,13c0.85,0.48,1.36,2.15,1.54,3.11c0.17,0.96,0,45.64-0.17,51.61"/><path d="M65.68,41.87c3.13-0.24,15.44-1.39,18.37-1.63"/><path d="M65.99,55.77c3.53-0.24,14.26-1.65,18.38-2.13"/><path d="M52.23,71.18c1.52,0.07,3.03,0.08,4.11,0c6.16-0.44,27.41-2.19,38.67-2.36c1.79-0.03,2.86,0.24,3.75,0.49"/><path d="M67.23,77.71c0.04,0.46,0.22,1.25-0.08,1.87C64.5,85,60.25,90.75,52.25,97.5"/><path d="M80.5,77.5c5.18,3.53,13.39,14.5,14.69,19.98"/></svg>