<svg><path d="M 14.46,25.24 c 1.31,0.4 2.8,0.43 4.31,0.4 7.98,-0.14 17.32,-1.93 28.94,-2.7 1.5,-0.1 2.44,0.07 3.94,0.35"/><path d="M 22.13,29.52 c 0,0.45 0.05,0.83 -0.08,1.36 -1.19,4.92 -4.73,11.04 -9.93,16.47"/><path d="M 21.6,38.51 c 1.78,1.02 4.06,3.74 4.93,6.31"/><path d="M 46.29,29.11 c 0,0.38 0.06,0.7 -0.06,1.13 -1.03,3.69 -3.99,10.27 -7.5,14"/><path d="M 45.81,36.85 c 2.67,2.19 4.72,4.94 6.32,8.27"/><path d="M 31.94,12.25 c 1.1,0.44 1.99,1.96 1.99,2.87 0,9.27 -0.22,37.40454 -0.22,45.90454"/><path d="M 31.43,48.7 C 31.25,49.75 31.2,50.14 30.76,50.9 26.41,58.5 17.03,65.59 10,69.56"/><path d="M 34.12726,52.91 c 5.68,1.99 13.93,7.93 18.34,12.23"/><path d="M 29.88,61 c 0.05,0.53 0.1,1.37 -0.09,2.13 -1.15,4.5 -7.25,14.88 -16.28,20.92"/><path d="M 29.57,67.27 c 0.26,0.03 1.68,0.32 2.42,0.2 3.01,-0.47 6.22,-0.71 9.72,-1.62 2.4,-0.63 3.22,0.77 2.47,2.44 C 39.5,78.75 29.5,90.75 14.36,98"/><path d="M 24.39,73.78 c 8.25,4.04 42.11,19.22 55.77,22.61 3.39,0.84 6,1.64 9.23,1.97"/><path d="M 59.06,31.96 c 0.87,0.16 2.45,0.18 3.32,0.16 4.7,-0.14 16.02,-2.7 24.63,-3.51 1.43,-0.13 2.31,0.08 3.04,0.15"/><path d="M 54.39,51.51 c 0.99,0.18 2.81,0.24 3.8,0.18 6.5,-0.35 23.14,-3.8 33.85,-4.18 1.65,-0.06 2.64,0.09 3.47,0.18"/><path d="M 75.1,12 c 0.31,1.08 0.43,2.09 0.44,4.18 C 75.66,54.84 69.75,72 56.79,82.25"/><path d="M 74.97,59.29 c 8.55,6.46 16.58,16.68 20.53,25.49"/></svg>