<svg><path d="M14.46,24.24c1.31,0.4,2.8,0.43,4.31,0.4c7.98-0.14,17.32-1.93,28.94-2.7c1.5-0.1,2.44,0.07,3.94,0.35"/><path d="M22.13,31.52c0,0.37,0.05,0.68-0.07,1.11c-1.1,4.02-4.37,9.02-9.19,13.47"/><path d="M20.1,38.26c1.96,0.9,4.47,3.29,5.43,5.56"/><path d="M46.3,28.61c0,0.28,0.05,0.52-0.05,0.83c-0.86,2.72-3.33,7.55-6.26,10.29"/><path d="M45.81,35.35c2.67,1.93,4.72,4.34,6.32,7.27"/><path d="M31.94,12.75c1.1,0.44,1.99,1.96,1.99,2.87c0,9.27-0.22,30.88-0.22,39.38"/><path d="M33.43,40.2C29.71,47.91,19.74,59.7,12,64.06"/><path d="M36.32,44.91c4.98,1.82,12.22,7.28,16.09,11.23"/><path d="M28.38,57.5c0.04,0.53,0.09,1.37-0.09,2.13c-1.05,4.5-7.06,14.38-15.29,20.42"/><path d="M30.07,64.27c0.26,0.03,1.67,0.29,2.42,0.2c3.34-0.36,7.72-1.71,11.22-2.62c2.4-0.63,3.08,0.72,2.47,2.44c-3.36,9.39-19.32,28.38-34.32,33.21"/><path d="M23.39,69.78c8.38,4.29,46.34,20.58,57.63,24.49c3.37,1.17,6.09,1.74,9.37,2.08"/><path d="M68.36,13.5c0.04,0.68,0.19,1.81-0.07,2.73c-1.67,6.03-6.2,17.36-12.44,26.17"/><path d="M66.48,28.19c0.74,0.49,1.78,0.65,2.97,0.33c1.19-0.33,17.88-3.41,20.84-3.7c1.4-0.13,3.09,0.9,2.93,2.72C92,41.25,90.62,53.1,86.1,64.92c-1.85,4.83-4.1,1.83-5.25-0.81"/><path d="M61.85,41.2c0.97,0.75,1.8,0.75,3.22,0.5c2.89-0.51,11.22-2.61,12.11-2.7c1.17-0.12,2.08,0.82,1.67,2.77c-0.12,0.58-2.23,9.02-3.62,14.19"/><path d="M62.39,57.24c3.12-0.36,10.04-1.43,14.48-1.74"/><path d="M60.72,39.89c0.62,0.88,1.15,1.91,1.14,3.26c-0.02,4.33,0.1,23.77,0.1,27.55c0,8.21,1.81,9.24,17.48,9.24c13.09,0,14.7-2.45,14.7-10.28"/></svg>