<svg><path d="M21.1,23.02c1.76,0.6,3.77,0.79,5.8,0.6c10.33-0.98,40.33-4.39,55.96-5.54c2.01-0.15,3.28,0.1,5.29,0.52"/><path d="M34.22,27.67c0,0.49,0.07,0.9-0.12,1.47c-1.76,5.31-6.99,11.93-14.69,17.8"/><path d="M34.32,36.2c3.09,1.2,7.04,4.39,8.55,7.41"/><path d="M73.6,24.85c0,0.36,0.08,0.68-0.08,1.09c-1.41,3.57-5.44,9.92-10.24,13.52"/><path d="M71.37,33.38c4.6,2.58,8.13,5.82,10.88,9.74"/><path d="M52.67,11.75c0.83,0.33,1.49,1.47,1.49,2.16c0,6.97,0,31.94-0.17,36.09"/><path d="M54,36.8c-6.23,9.12-22.93,23.06-35.89,28.23"/><path d="M54.16,37.63c5.03,3.25,28.71,19.53,34.18,22.72c1.85,1.08,3.45,1.54,5.3,1.85"/><path d="M50.64,53.25c0.07,0.66,0.15,1.71-0.14,2.66c-1.76,5.62-11.87,17.94-25.7,25.48"/><path d="M49.2,63.38c0.23,0.03,1.46,0.25,2.12,0.18c2.92-0.32,14.65-4,17.72-4.8c2.1-0.55,2.8,0.67,2.17,2.13C66,73,53,89.5,31.76,99"/><path d="M42.92,74.89c9.9,3.02,20.45,10.42,26.45,17.6"/></svg>