<svg><path d="M12.98,24.82c0.98,0.23,2.76,0.26,3.74,0.23c10.16-0.26,19.71-2.3,28.64-2.64c1.63-0.06,2.6,0.11,3.42,0.22"/><path d="M30.43,11.75c0.91,0.5,1.45,2.25,1.64,3.25c0.18,1-0.18,24.5-0.18,35.5"/><path d="M17.48,37.07c0.68,0.23,1.93,0.26,2.62,0.23c7.11-0.26,16.9-1.55,23.04-2.64c1.12-0.2,1.82,0.11,2.39,0.22"/><path d="M12.34,51.82c0.95,0.23,3.2,0.83,4.15,0.73c12.44-1.3,19.26-2.3,28.93-3.64c1.57-0.22,2.54,0.11,3.33,0.22"/><path d="M29.53,54.25c0.05,0.62,0.1,1.61-0.1,2.51c-1.18,5.29-7.93,16.89-17.18,23.99"/><path d="M28.3,65c0.95,0.25,2.29,0.29,3.23,0.08c3.43-0.74,6.98-2.33,10.22-3.45c2.16-0.74,3.69,1.08,2.71,3.47c-3.77,9.2-13.95,24.64-32.54,34.27"/><path d="M25.61,71.25C34.74,75.19,65.65,91.77,76.9,96c3.36,1.26,6.08,1.88,9.35,2.25"/><path d="M59.06,30.43c0.8,0.17,2.28,0.2,3.08,0.17c4.36-0.15,14.86-1.85,22.85-2.71c1.33-0.14,2.15,0.08,2.81,0.17"/><path d="M56.14,50.08c0.91,0.16,2.59,0.21,3.5,0.16c5.99-0.31,21.31-2.44,31.18-2.77c1.52-0.05,2.43,0.08,3.2,0.16"/><path d="M72.17,10c0.33,0.75,0.87,2.12,0.87,4.24c0,44.51-1.54,56.01-16,67.01"/><path d="M73.72,56.54c8.65,6.77,16.78,17.5,20.78,26.74"/></svg>