<svg><path d="M53.46,9.63c0.81,0.4,2.02,2.52,2.18,3.32c0.16,0.81,0.08,1.87-0.08,6.9"/><path d="M24.28,20.45c1.62,0.57,4.58,0.6,6.2,0.57C45,20.75,66.25,19.5,82.65,18.07c2.69-0.23,4.31,0.27,5.66,0.55"/><path d="M27.47,21.35c0.05,1.56,0.1,4.03-0.09,6.28c-1.13,13.24-3.17,45.84-15.32,60.1"/><path d="M32.33,33.22c0.51,0.21,2.55,0.68,3.91,0.5c4.77-0.63,11.74-1.17,16.86-1.58c1.36-0.11,2.38-0.13,3.24,0.08"/><path d="M44.46,26.68c0.57,0.3,0.91,1.34,1.03,1.94c0.11,0.6,0,23.83-0.11,27.57"/><path d="M37.84,41.67C37.85,42,37.87,42.53,37.8,43c-0.41,2.81-2.75,8.97-5.96,12.74"/><path d="M52.12,38.8c0.63,0.25,1.01,1.11,1.13,1.6c0.13,0.49,0,7.93-0.12,11.01"/><path d="M62.71,31.8c0.52,0.21,1.64,0.33,3.01,0.21c4.85-0.42,8.81-0.87,18.28-1.92c1.37-0.15,2.57-0.21,3.43,0"/><path d="M72.65,24.03c0.69,0.36,1.1,1.62,1.24,2.33c0.13,0.72-0.14,15.88-0.14,22.66"/><path d="M65.3,38.95c0.02,0.31,0.04,0.8-0.04,1.24c-0.47,2.61-3.18,8.34-6.89,11.84"/><path d="M81.33,35.97c0.98,0.29,1.25,1.88,1.27,2.54c0.07,2.93-0.19,4.23-0.19,6.22c0,3.54,2.16,4.64,5.28,4.62c4.29-0.02,6.21-0.97,6.21-3.76"/><path d="M71.38,54.5c0.1,0.27,0.43,0.78-0.2,1.1c-5.97,2.93-19.58,7.46-35.24,10.48"/><path d="M30.09,72.86c1.36,0.32,3.86,0.42,5.21,0.32c14.14-1.02,33.49-3.97,45.18-4.72c2.24-0.14,3.63,0.15,4.76,0.31"/><path d="M26.13,83.55c1.24,0.19,4.85,0.29,6.09,0.19c17.78-1.49,42.75-5,54-5.43c2.06-0.08,4.64,0.09,5.67,0.18"/><path d="M55.78,63.39c0.78,0.59,0.91,1.79,0.95,2.7c0.21,4.07-0.27,20.09-0.27,22.59c0,7.07,1.13,9.35,16.67,9.35c16.62,0,18.37-2.03,18.37-8.11"/></svg>