<svg><path d="M54.31,10.63c1.09,1.09,1.26,2.24,1.26,3.65c0,0.79,0.08,3.4-0.07,8.21"/><path d="M23.38,24.98c3.37,0.77,6.86,0.25,10.25,0c13.7-0.98,31.58-2.81,46.73-3.83c3.81-0.26,7.5-0.64,11.26,0.17"/><path d="M26.24,26c0.94,0.94,0.97,2.06,0.91,4.33c-0.65,24.04-4.77,47.42-15.84,61.88"/><path d="M33.38,36.84c0.49,0.16,2.48,0.64,3.79,0.5c4.6-0.48,10.08-1.59,15.75-2.48c1.3-0.2,2.3-0.35,3.12-0.19"/><path d="M44.19,30.04c0.76,0.76,1.1,1.84,1.1,3.33c0,3.42,0.02,9.35,0.04,13.76c0.01,1.89,0.01,3.5,0.01,4.52"/><path d="M44.71,36.77c0,0.86-0.26,1.6-0.76,2.48c-2.87,5.04-8.23,11.61-12.15,14.07"/><path d="M48.25,40.38c2.47,1.13,5.11,3.4,6.52,5.38"/><path d="M62.5,34.97c1.29,0.41,3.56,0.38,4.86,0.27c5.06-0.41,8.44-1.63,17.05-2.73c1.32-0.17,2.48-0.16,3.31,0"/><path d="M73.66,27.36c0.74,0.74,0.85,1.39,0.85,2.58c0,3.67,0.03,9.77,0.04,14.94c0,1.61,0.01,3.12,0.01,4.45"/><path d="M72.95,34.69c0,1.06-0.4,2.02-1.03,3.09c-2.95,5.05-8.28,10.74-12.42,13.1"/><path d="M75.37,35.98c3.87,3.5,8.72,7.41,12.45,10.1c1.81,1.3,3.18,2.18,5,2.8"/><path d="M39,56.38c1.17,0.64,1.75,1.32,2.09,2.6c0.86,3.18,1.38,6.18,1.99,9.16c0.21,1.03,0.43,2.05,0.68,3.08"/><path d="M41.28,57.53c8.96-0.85,26.53-2.68,33.73-3.26c2.58-0.21,5.17,0.45,4.11,3.72c-0.84,2.59-1.37,4.38-2.92,8.1"/><path d="M44.43,69.24c5.97-0.62,20.44-1.88,29.57-2.46c1.87-0.12,3.52-0.21,4.83-0.25"/><path d="M55.55,70.97c0.08,1.03-0.08,1.91-0.74,3c-0.5,0.81-2.55,3.91-4.19,5.65"/><path d="M36.5,81.12c1.06,1.06,1.41,1.86,1.68,3.3c0.67,3.51,1.15,6.75,1.68,9.93c0.22,1.3,0.44,2.59,0.69,3.88"/><path d="M38.35,82.03C53.5,80.5,74.07,78.6,79.69,78.4c2.97-0.11,3.7,1.68,2.97,4.12c-1.28,4.24-2.05,7.22-3.03,10.51"/><path d="M41.33,96.46c9.23-0.61,23.37-1.88,35.04-2.59c1.97-0.12,3.88-0.22,5.68-0.3"/></svg>