<svg><path d="M40.75,10.5c0.2,0.79-1.32,1.83-1.77,2.15c-2.96,2.11-9.53,4.99-18.26,7.06"/><path d="M13.87,26.72c1.76,0.51,3.68,0.89,5.51,0.7c4.67-0.5,16.57-2.43,23.38-3.19c1.37-0.15,2.84-0.42,4.2-0.19"/><path d="M32.96,18.81c0.8,0.8,0.96,1.69,0.96,2.94c0,4.47-0.02,14.24-0.03,22.13c0,2.25,0,4.35,0,6.13"/><path d="M32.54,26c0,0.63-0.49,1.62-1.17,2.58C27.3,34.25,21.55,40.43,13,45.16"/><path d="M37.12,31.38c4.83,2.39,7.12,5.5,8.62,7.88"/><path d="M64.92,8.51c0.08,0.96,0.04,2.03-0.37,2.92c-2.17,4.69-6.17,11.19-13.3,17.49"/><path d="M62.2,21.05c2.43,0.57,3.82,0.49,5.55,0.18c4.01-0.71,14.31-2.65,18.37-3.18c3.05-0.4,4.24,0.4,4,3.56c-0.34,4.53-2.49,13.01-7.05,20.65c-1.62,2.71-3.63,2.89-5.95,0.44"/><path d="M72.02,22.64c0.1,1.02-0.03,2-0.39,2.95C69.38,29.88,66,35.88,59.62,42.12"/><path d="M52.5,41c0,1.5-0.72,2.74-1.64,3.83C45.31,51.4,33.31,62.44,14,69.5"/><path d="M54.5,44.9c6.09,3.83,20.18,13,27.87,17.48c2.8,1.63,5.85,3.19,8.88,4.35"/><path d="M53.59,55.58c0.98,0.98,1.49,2.17,1.49,4.11c0,14.34-0.08,29.76-0.08,33.68c0,8.32-5.7,1.19-6.88,0.2"/><path d="M35.25,65.5c3.35,1.76,8.66,7.26,9.5,10"/><path d="M23.25,90.92c1.97,1.34,3.61,1.16,5.58,0.01c1.16-0.68,10.5-6.44,15.42-9.69"/><path d="M71.52,63.14c0.08,0.76-0.13,1.43-0.67,2c-2.1,2.23-4.1,4.1-9.29,7.32"/><path d="M63,78.5c4.25,1.75,15.87,10.21,19.57,16.78"/></svg>