<svg><path d="M18.88,19.92c3.32,0.99,5.94,1.11,9.38,0.87c14.44-0.98,31.87-3.42,50.99-4.39c3.44-0.18,6.47-0.31,9.88,0.3"/><path d="M39.78,5.22c1.43,1.43,1.97,2.78,2.16,4.5c0.5,4.35,1.1,10.03,1.83,16.9c0.23,2.17,0.47,4.47,0.73,6.88"/><path d="M66.6,4.13C67.38,5.5,67.5,7,67.24,8.88c-0.58,4.2-1.74,11.37-3.08,19.66"/><path d="M45.23,31.27c4.45-0.63,10.75-1.26,15.53-1.57c1.96-0.13,3.66-0.2,4.87-0.2"/><path d="M8.88,43.27c5.12,1.85,8.95,2.07,14,1.31c17-2.58,41.89-5.29,64-5.36c4.66-0.02,8.94,0.3,13.5,1.1"/><path d="M26.34,52.84c1.16,1.16,1.34,2.14,1.64,3.35c1.1,4.51,2.75,11.17,4.41,18.18c0.44,1.84,0.87,3.7,1.3,5.55"/><path d="M28.98,56.17C42.5,55,67.65,51.29,76.42,51.16c3.65-0.06,5.1,1.61,4.43,4.99c-0.7,3.55-2.34,9.66-4.12,16c-0.57,2.03-1.16,4.09-1.74,6.1"/><path d="M52.41,44.03c1.03,1.03,1.46,2.22,1.46,3.6c0,8.19-0.07,25.18-0.07,27.37"/><path d="M31.83,66.96c11.67-2.21,36.42-4.33,46.71-4.59"/><path d="M34.38,77.82c13.25-2.19,26.07-3.32,40.73-3.91"/><path d="M40.99,83.25c0,1.5-1.08,2.77-2.21,3.7c-3.77,3.13-11.82,7.32-22.04,10.55"/><path d="M64.5,81.25c8.21,3.09,21.2,12.73,23.25,17.54"/></svg>