<svg><path d="M15.41,16.21c0.75,0.75,1.27,2.09,1.46,3.04c1.12,5.62,2.08,11.64,2.94,18.49c0.15,1.2,0.28,2.38,0.38,3.51"/><path d="M17.36,17.66c8.14-1.29,20.06-2.51,27.26-3.4c3.56-0.44,6.23,0.02,5.85,4.12c-0.33,3.52-1.13,9.49-2.17,14.92c-0.33,1.75-0.69,3.44-1.07,4.98"/><path d="M19.69,28.51C22.44,28.12,43,25.5,48.1,25.37"/><path d="M21.34,39.35c7.04-0.97,16.4-1.87,24.79-2.56"/><path d="M32.99,18.2c0.94,0.94,1.01,2.06,1.01,3.43c0,9.62,0.05,36.97,0.05,40.36"/><path d="M17.92,50.64c1.54,0.75,3.85,0.55,5.47,0.41c5.5-0.47,13.34-2.03,20.24-3.03c1.49-0.22,2.62-0.26,4.28-0.04"/><path d="M15.38,66.54c1.07,1.17,2.56,1.13,3.88,0.76c9.07-2.54,19.68-5.66,30.83-8.52"/><path d="M56.15,34.58c1.53,0.8,4.79,0.87,6.47,0.65c6.29-0.83,14.77-2.1,20.99-2.83c1.54-0.18,2.86-0.4,4.38-0.04"/><path d="M69.65,13.5c0.6,0.78,1.02,1.56,1.05,3.12C71.12,35.62,66,58.62,49.32,68.75"/><path d="M70.75,35.62c4.38,7.75,11.51,17.78,17.66,24.73c1.17,1.32,2.88,3.53,5.52,5.4"/><path d="M79.93,16.35c2.7,1.9,5.5,5.25,6.83,8.04"/><path d="M20.44,80.75c-1.19,6-6.9,13-8.44,14.5"/><path d="M37.88,79.62c1.77,2.75,4.39,10.07,3.88,14.62"/><path d="M60.75,78.75c2.75,2.56,6.75,9.98,6.75,14.5"/><path d="M83.33,78.08c3.43,2.93,8.86,12.07,9.72,16.63"/></svg>