<svg><path d="M34.38,11.36c0.21,1.31-0.11,2.74-0.74,3.89c-3.52,6.44-8.48,13.78-18.4,22.47"/><path d="M26.83,27.26c0.74,0.74,1.08,1.56,1.08,2.82c0,3.73,0.01,9.31,0.02,13.87c0,2.16,0.01,4.09,0.01,5.5"/><path d="M36.15,26.67c2.33,0.46,4.91,0.13,7.24-0.17c6.58-0.85,21.56-3.26,32.39-4.54c2.61-0.31,5.35-0.23,7.94,0.18"/><path d="M51.2,9.7c1.74,0.78,2.88,2.13,3.58,3.68C60,24.95,68.75,37.2,86.84,45.16c6.39,2.81,6.41,0.28,5.01-4.88"/><path d="M66.62,9.07c3.18,1.35,8.27,4.44,9.76,6.75"/><path d="M31.96,47.02c0.92,0.92,1.47,2.54,1.68,3.38c0.96,3.93,1.54,6.92,2.22,10.45c0.28,1.45,0.58,3,0.93,4.74"/><path d="M33.66,47.86c14.72-1.29,31.83-2.86,40.27-3.49c3.1-0.23,4.07,1.7,3.78,3.6c-0.33,2.2-1.43,6.86-2.52,11.03c-0.4,1.53-0.79,2.99-1.15,4.24"/><path d="M35.52,56.07c3.69-0.29,35.48-3.13,40.12-3.3"/><path d="M37.73,64.53c9.52-0.96,24.43-2.34,35.68-2.86"/><path d="M53.29,48.36c0.96,0.96,1.15,2.21,1.15,3.72c0,8.58-0.07,22.05-0.07,27.49"/><path d="M32.01,72.54c1.85,0.53,4.11,0.29,5.99,0.12c8.69-0.75,18-1.59,31.63-2.66c2.57-0.2,5.36-0.27,7.9,0.17"/><path d="M20.61,82.15c2.94,0.73,6.41,0.42,9.39,0.15c14.73-1.35,33.88-2.35,52.88-3.12c3.29-0.13,6.67-0.18,9.94,0.3"/><path d="M28.24,88.79c-0.98,4.92-5.71,10.67-6.99,11.9"/><path d="M43.47,87.94c2.37,2.01,5.53,7.01,5.97,11.18"/><path d="M62.27,86.46c2.85,2.36,5.73,6.11,7.52,10.93"/><path d="M80.57,85.08c3.79,2.14,9.79,8.79,10.74,12.11"/></svg>