<svg><path d="M26.75,14.4c0.88,0.53,1.4,2.39,1.57,3.45c0.17,1.06-0.06,9.56-0.06,16.47"/><path d="M37.82,11.5c0.83,0.55,1.33,2.48,1.5,3.58c0.17,1.1-0.06,8.54-0.06,17.09"/><path d="M14.12,20.05c2.47,1.86,6.39,7.67,7.01,10.57"/><path d="M51.26,15.88c0.02,0.26,0.04,0.68-0.04,1.06c-0.54,2.23-3.62,7.13-7.83,10.13"/><path d="M12.25,35.81c0.9,0.56,2.54,0.63,3.44,0.56c8.06-0.62,24.41-4.2,34.67-4.41c1.5-0.03,2.39,0.27,3.14,0.54"/><path d="M23.25,40.57c0.03,0.31,0.07,0.8-0.07,1.24c-0.82,2.62-5.5,8.35-11.91,11.87"/><path d="M41.41,38.64c4.08,1.77,10.54,7.27,11.56,10.02"/><path d="M15.68,54.82c0.93,1.11,1.25,2.87,1.25,4.88c0,3.32,0.31,31.48,0.31,34.8"/><path d="M17.3,56.21c5.55-0.94,28.13-4.13,29.25-4.13c1.46,0,2.92,1.18,2.92,3.77c0,3.77-0.15,27.42-0.15,32.84c0,8.72-4.57,3.55-6.65,0.88"/><path d="M32.5,36.39c0.82,1.18,1.1,3.05,1.1,5.18c0,3.53-0.27,48.45-0.27,51.99"/><path d="M26.66,64.15c0.01,0.6,0.58,1.56,0.48,2.42c-0.64,5.19-1.39,11.19-4.66,17.1"/><path d="M40.72,62.92c0.53,0.49,0.71,1.27,0.71,2.17c0,1.48,0.18,13.98,0.18,15.46"/><path d="M55.71,38.89c0.86,0.38,2.43,0.46,3.3,0.38c5.63-0.52,27.59-4.33,32.9-3.88c1.43,0.12,2.29,0.18,3.01,0.37"/><path d="M67.33,14.75c0.4,1.2,0.83,1.71,0.78,3.91c-0.5,20.36-3.04,48.21-13.41,69.56"/><path d="M86.28,46c0.07,1.17,0.11,3.31-0.14,4.69c-2.91,16.17-12.23,33.7-26.82,45.35"/><path d="M65.52,52.25c4,8.3,18.42,32.49,27.53,39.4c1.81,1.38,2.73,2.58,4.2,3.1"/><path d="M80.22,18.33c3.11,1.74,8.02,7.17,8.8,9.88"/></svg>