<svg><path d="M18.82,17.38c0.8,0.33,2.25,0.38,3.05,0.33c6.1-0.37,16.24-1.34,23.65-2.28c1.32-0.17,2.12,0.16,2.79,0.32"/><path d="M31.53,10c0.11,0.14,1.56,1.24,1.56,2.15c0,5.83-0.32,3.54-0.32,11.25"/><path d="M13.91,24.33c1.34,0.69,3.81,0.76,5.16,0.69c4.24-0.23,23.36-2.76,29.31-3.05c2.24-0.11,3.59,0.33,4.71,0.68"/><path d="M32.25,25.36c0.34,0.23,0.89,1.14,0.89,1.6c0,1.71-0.11,2.67-0.04,4.12"/><path d="M13.75,32.26c0.89,0.22,2.77,0.29,3.6,0.31c7.08,0.14,23.47-1.69,31.25-2.42c1.39-0.13,2.11,0.03,3.15,0.4"/><path d="M33.29,36.38c2.19,0.87,9.82,1.69,12.26,2.12c0.41,0.07,0.82,0.38,0.75,0.96c-0.18,1.54-4.51,7.86-6.08,9.11c-1.7,1.36-3.23,0.17-4.34-1.24"/><path d="M31.08,33.94c0.22,0.48,0.17,1.02-0.08,1.56c-1.78,3.71-6.94,11.22-14.95,14.73"/><path d="M64.09,11.35c0.04,0.54,0.1,1.4-0.08,2.16c-1.26,5.21-4.51,13.24-9.99,19.53"/><path d="M62.83,20.56c0.03-0.12,1.8,0.34,2.44,0.3c6.63-0.35,14.47-2.24,24.6-2.79c1.14-0.06,1.83-0.01,2.13,0.06"/><path d="M80.58,21.98c0.38,0.64,0.27,1.68-0.31,2.76C74.75,35,68.5,42.5,57.37,48"/><path d="M59.74,24.29C65.75,30,76.5,38.5,85.08,44.05c1.48,0.96,3.61,1.38,4.92,1.46"/><path d="M22.22,54.05c0.66,0.7,0.83,1.13,1.05,2.06c0.73,3.14,1.23,6.39,1.69,8.97"/><path d="M23.54,55.66c9.21-1.44,52.24-3.59,58.08-4.54c2.15-0.35,3.7,1.02,3.13,2.14c-1.01,1.99-2.26,4.49-2.88,6.7"/><path d="M25.25,62.97c2.75,0,18.5-1.75,20.75-1.75"/><path d="M61.5,59.97c5-0.5,18.25-1.25,21.25-1.25"/><path d="M59.83,53.47c0.22,1,0,33.75-0.22,40"/><path d="M47.36,55.77c0,12.45-0.03,24.14-0.03,29.7c0,13,1.92,13.53,23.17,13.53c22.25,0,23.89-1.78,23.89-11.12"/><path d="M20.75,72.5c2.75,0,23.5-2.25,25.75-2.25"/><path d="M18.87,71.25c1.09,0.5,1.74,2.25,1.96,3.25c0.67,3,1.67,13,2.42,18"/><path d="M22.75,81c2.75,0,22-2.25,24.25-2.25"/><path d="M24.5,89.75c2.75,0,20-1.25,22.25-1.25"/><path d="M60.04,69.66c9.21-1.44,20.74-1.59,26.58-2.54c2.15-0.35,3.28,0.9,3.13,2.14c-0.76,6.71-1.51,11.96-2.38,18.7"/><path d="M60.25,78.22c2.75,0,26-1.75,28.25-1.75"/><path d="M60.5,87.47c2.75,0,24.5-1.75,26.75-1.75"/></svg>