<svg><path d="M31.43,11c0.39,0.23,1.22,1.75,1.3,2.22c0.08,0.47-0.05,10.58-0.13,13.51"/><path d="M25.27,15.15c0.03,0.24,0.07,0.62-0.06,0.97c-0.76,2.04-5.15,6.51-11.15,9.24"/><path d="M39.77,14.1c3.19,1.19,8.24,4.89,9.04,6.73"/><path d="M18.31,26.49c0.45,0.28,1.4,2.07,1.49,2.62c0.09,0.55-0.06,15.18-0.15,18.64"/><path d="M20.2,29.01c2.75-0.19,21.17-3.08,23.22-3.2c2.41-0.14,2.89,1.42,2.84,2.69c-0.31,7.77,0.24,10.49-0.68,16.75c-0.67,4.54-3.62,0.62-4.77-0.93"/><path d="M32.46,29.77c0.02,0.12,0.33,0.64,0.35,1.43c0.11,3.76-0.07,14.13-0.07,15.41"/><path d="M27.48,33.61c0.01,0.25,0.03,0.63-0.02,0.99c-0.31,2.08-2.06,6.65-4.46,9.45"/><path d="M37.21,32.53c1.43,1.36,3.69,5.59,4.04,7.71"/><path d="M64.8,11.78c0.03,0.43,0.17,1.13-0.07,1.74C62.99,17.9,59.05,25.31,53,30.6"/><path d="M63.77,21.98c1,0.23,2.85,0,3.39-0.03c5.58-0.37,14.25-2.78,22.78-3.38c0.96-0.07,1.55-0.02,1.79,0.06"/><path d="M77.79,23.15c-0.04,0.85,0.25,1.95-0.32,2.89c-5.86,9.62-10.2,14.85-22.67,20.8"/><path d="M60.48,28.33c1.14,0,1.8,0.38,2.7,0.89c6.1,3.49,17.32,10.23,25.47,13.53c1.5,0.61,3.09,1.01,4.35,1.07"/><path d="M24.72,52.55c0.66,0.7,0.92,1.11,1.05,2.06c0.48,3.64,0.98,5.64,1.69,9.47"/><path d="M25.54,53.33c9.32-1.24,51.88-4.4,57.79-5.23c2.17-0.31,3.67,0.14,3.17,2.35c-0.98,4.37-1.53,4.74-2.42,7.75"/><path d="M27.25,61.47c2.75,0,18.5-1.75,20.75-1.75"/><path d="M62.5,58.97c5-0.5,19.75-1.25,22.75-1.25"/><path d="M61.83,50.47c0.22,1,0,35.75-0.22,42"/><path d="M48.36,51.77c0,12.45-0.03,28.64-0.03,34.2c0,13,2.92,13.53,24.17,13.53c22.25,0,22.89-1.78,22.89-11.12"/><path d="M39.8,65.73c0.04,0.16,0.17,0.48-0.08,0.66c-3.34,2.33-7.24,4.42-14.86,6.27"/><path d="M22.53,71.05c0.62,0.44,1.37,1.92,1.52,2.83c0.56,3.29,2.32,16.17,2.88,20.62"/><path d="M25.48,80.38c3.05-0.2,14.47-2.5,15.2-2.5c0.73,0,1.74,0,2.32,0"/><path d="M27.23,91.38c3.05-0.2,13.47-2,14.2-2c0.73,0,1.74,0,2.32,0"/><path d="M62.54,66.66c9.71-0.91,14.24-1.09,20.08-2.04c2.15-0.35,3.28,0.9,3.13,2.14c-0.76,6.71-0.51,14.96-1.38,21.7"/><path d="M62.75,76.72c2.75,0,19.5-1.75,21.75-1.75"/><path d="M63,86.97c2.75,0,19-1.75,21.25-1.75"/></svg>