<svg><path d="M11.62,28.41c2.23,0.69,4.89,0.11,7.14-0.17c8.72-1.07,19.42-2.82,27.12-3.49c2.17-0.19,4.35-0.36,6.51,0"/><path d="M31.68,12.01c1.03,1.03,1.15,2.37,1.15,3.94c0,4.05-0.02,17.05-0.02,22.64"/><path d="M15.43,41.18c1.83,0.51,4.12,0.25,5.96,0.05c6.5-0.72,14.49-2.1,20.37-2.79c1.86-0.22,3.79-0.37,5.66-0.09"/><path d="M18.49,51.42c0.67,0.67,0.95,1.22,1.06,2.02c0.76,2.5,1.46,6.06,2.38,10.28c0.29,1.31,0.37,2.6,0.52,3.74"/><path d="M20.47,52.65c5.91-1.01,16.55-2.5,21.55-3.14c2.62-0.33,4.13,0.31,3.46,3.26c-0.63,2.77-1.2,4.65-2.64,9.09"/><path d="M22.72,65.88c3.26-0.35,12.32-1.89,18.56-2.63c1.65-0.2,3.1-0.35,4.19-0.45"/><path d="M17.62,72.88c2.36,1.79,6.09,7.36,6.68,10.14"/><path d="M44.54,67.14c0.11,0.8,0.02,1.58-0.29,2.31c-1.16,3.68-3.09,7.82-5.94,13.01"/><path d="M14.52,91.1c0.98,1.4,2.52,1.45,4.56,0.64C32.38,86.5,37.25,85,48.75,81"/><path d="M53.35,39.09c1.78,0.56,4.34,0.43,6.14,0.13c9.5-1.59,18.36-2.56,25.13-3.43c2.02-0.26,4.27-0.3,6.27,0.08"/><path d="M70.97,14.63c1.07,1.07,1.34,2.62,1.34,4.22c0,5.65,0.04,28.03,0.04,35.03"/><path d="M56.86,56.96c1.21,0.37,2.31,0.39,4.78,0.12c3.68-0.4,15.91-3.16,20.17-4.25c2.24-0.57,4.36,0.57,2.91,3.37C75.5,74,62.38,87.25,47,94.53"/><path d="M56.38,63.99c6.04,0.93,18.12,16.14,30.29,26.73c2.46,2.14,4.82,4.16,8.05,5.51"/></svg>