<svg><path d="M43.84,13.46c0.05,0.27,0.2,0.79-0.09,1.09c-3.79,3.87-10,7.7-16.35,10.4"/><path d="M24.87,23.75c0.79,0.5,1.12,1.61,1.31,2.63c0.72,3.73,3.49,15.82,4.21,20.86"/><path d="M28.02,33.88c4.98-1.13,13.78-3.13,14.72-3.13s2.25,0,2.99,0"/><path d="M57.65,18.95c0.94,0.11,1.68,0.34,2.99,0.34s16.16-2.36,17.65-2.48c1.5-0.11,2.74,0.56,2.62,1.25c-1.12,6.58-2.62,19.29-3.74,24.74"/><path d="M58.03,29.29c0.94,0.11,1.68,0.34,2.99,0.34c1.31,0,14.78-0.91,16.28-1.02"/><path d="M30.08,44.82C40.5,43.5,65,40.25,77.24,39.73"/><path d="M26.37,52.51c0.85,0.46,1.36,2.07,1.53,2.99c0.15,0.83-0.1,28.72-0.1,36.87c0,2.16,1.04,2.07,2.02,1.36c3.44-2.47,10.93-9.24,16.68-12.49"/><path d="M35.75,52.25c2.56,1.01,6.61,4.17,7.25,5.75"/><path d="M36.75,68.75c2.56,1.01,6.61,4.17,7.25,5.75"/><path d="M50.87,47.01c0.85,0.46,1.36,2.07,1.53,2.99c0.15,0.83-0.1,34.72-0.1,42.87c0,2.16,1.04,2.07,2.02,1.36C57.77,91.77,67.17,83.5,71,81.25"/><path d="M59.25,51.75c2.56,1.01,6.61,4.17,7.25,5.75"/><path d="M59.5,67c2.82,1.32,7.29,5.44,8,7.5"/><path d="M72.5,46.75c1.07,1,1.63,1.27,1.75,3.42c0.81,14.84,6.86,35.75,18.48,43.81c5.78,4.01,5.53,1.01,4.59-9"/></svg>