<svg><path d="M33.59,11.5c0.65,0.51,1.17,2.25,1.17,3.29c0,5.31,0.17,12.92,0.17,17.98"/><path d="M35.39,22.89c4.24-0.76,7.84-1.02,12.3-1.53c1.04-0.12,1.3-0.25,1.94,0"/><path d="M20.99,18.08c0.65,0.51,1.04,2.28,1.17,3.29c0.13,1.01,0,6.34-0.13,12.67"/><path d="M10.75,34.04c0.49,0.25,1.8,0.85,3.1,0.76c7.03-0.51,29.93-2.55,36.58-2.55c1.31,0,3.57,0.01,4.32,0.26"/><path d="M27.97,38.56c0.1,0.19-0.05,1.93-0.12,2.34c-0.79,4.55-2.86,12-5.8,16.28"/><path d="M27.27,46.66c1.86,0.95,4.23,3.49,5.13,5.89"/><path d="M41.09,39.06c0.13,0.19-0.07,1.98-0.17,2.4c-1.12,4.67-4.01,12.31-8.14,16.7"/><path d="M40.4,47.4c2.04,1.24,4.64,4.52,5.63,7.64"/><path d="M16.91,64.63c2.1,0,31.57-3.29,33.53-3.29"/><path d="M28.96,68.42c0.13,0.2-0.07,2-0.17,2.44c-1.13,4.73-4.06,12.48-8.24,16.93"/><path d="M28.02,76.76c1.37,0.87,3.11,3.18,3.78,5.37"/><path d="M41.69,67.9c0.15,0.21-0.08,2.19-0.19,2.66c-1.27,5.16-4.57,13.61-9.26,18.47"/><path d="M39.45,77.73c2.2,1.4,5.01,5.12,6.08,8.65"/><path d="M15.8,42.26c0.46,0.45,1.32,1.89,1.21,4.3c-0.04,0.92-0.26,45.15-0.3,46.53c-0.04,1.38,0.39,2.54,1.29,2.42c9.79-1.29,23.77-2.3,32.94-2.81"/><path d="M50.16,38.71c0.28,0.45,0.89,3.39,0.94,4.3s-0.12,32.25-0.09,53.38"/><path d="M91.51,30.56c0.21,0.45,0.35,1.77-0.2,2.46C87.75,37.52,75.52,49.9,64,54.5"/><path d="M62,14.25c1.07,1.19,1.15,1.99,1.51,3.57c0.36,1.59,0.36,60.16,0.36,65.14c0,12.79,2.88,13.29,15.13,13.29c15,0,16.5-1,16.5-11.05"/></svg>