<svg><path d="M30.09,11.5c0.65,0.51,1.17,2.25,1.17,3.29c0,5.31,0.17,13.92,0.17,18.98"/><path d="M31.39,23.07c5.13-0.92,9.49-1.74,14.89-2.35c1.25-0.14,1.57-0.31,2.35,0"/><path d="M17.99,17.58c0.65,0.51,1.04,2.28,1.17,3.29c0.13,1.01,0,7.84-0.13,14.17"/><path d="M8.25,35.04c0.49,0.25,1.8,0.85,3.1,0.76c7.03-0.51,29.15-3.05,36.58-4.05c1.29-0.17,3.57,0.01,4.32,0.26"/><path d="M24.47,38.06c0.1,0.19-0.05,1.93-0.12,2.34c-0.79,4.55-2.86,12-5.8,16.28"/><path d="M24.27,49.66c1.86,0.95,4.23,3.49,5.13,5.89"/><path d="M39.09,38.56c0.13,0.19-0.07,1.98-0.17,2.4c-1.12,4.67-4.01,12.31-8.14,16.7"/><path d="M37.4,48.4c2.04,1.24,4.64,4.52,5.63,7.64"/><path d="M13.91,63.63c2.1,0,31.57-3.29,33.53-3.29"/><path d="M24.97,68.42c0.12,0.2-0.06,2-0.15,2.44c-0.96,4.73-3.46,12.48-7.02,16.93"/><path d="M24.79,77.51c1.62,0.99,3.7,3.63,4.48,6.12"/><path d="M38.69,66.4c0.13,0.22-0.07,2.29-0.17,2.79c-1.1,5.41-3.96,14.26-8.04,19.34"/><path d="M36.95,78.23c2.2,1.4,5.01,5.12,6.08,8.65"/><path d="M12.8,41.76c0.46,0.45,1.32,1.89,1.21,4.3c-0.04,0.92-0.26,45.65-0.3,47.03c-0.04,1.38,0.39,2.54,1.29,2.42c9.79-1.29,23.77-2.3,32.94-2.81"/><path d="M46.66,37.71c0.28,0.45,0.89,3.39,0.94,4.3s-0.12,33.25-0.09,54.38"/><path d="M71.17,12.5c0.05,0.88,0.23,2.31-0.1,3.54c-2.13,7.76-8.9,23.63-16.82,33.05"/><path d="M71.92,17.29C75.9,21.9,90.39,40.57,93.75,44.4c1.14,1.3,2.61,1.86,3.75,2.23"/><path d="M68.45,43.58c3.7,2.05,9.57,8.44,10.49,11.63"/><path d="M55.7,62.87c1.07,0.88,3.33,1.31,4.54,1.08c2.41-0.44,24.75-3.81,27.29-4.25c2.54-0.44,3.18,1.04,1.35,3.38c-4.28,5.48-15.57,20.49-17.18,22.25"/><path d="M61.5,78.4c4.66,2.49,16.73,12.08,18.92,18.6"/></svg>