<svg><path d="M32.09,12c0.65,0.51,1.17,2.25,1.17,3.29c0,5.31,0.17,11.92,0.17,16.98"/><path d="M33.39,22.89c5.06-0.76,9.35-1.02,14.67-1.53c1.24-0.12,1.55-0.25,2.32,0"/><path d="M19.99,18.08c0.65,0.51,1.04,2.28,1.17,3.29c0.13,1.01,0,5.84-0.13,12.17"/><path d="M11,33.54c0.61,0.25,2.23,0.85,3.85,0.76c8.73-0.51,24.76-2.55,33.03-2.55c1.62,0,4.44,0.01,5.37,0.26"/><path d="M27.97,39.06c0.11,0.19-0.06,1.93-0.14,2.34c-0.93,4.55-3.34,12-6.77,16.28"/><path d="M26.77,46.41c2.04,0.99,4.64,3.64,5.63,6.14"/><path d="M41.59,39.56c0.15,0.18-0.07,1.87-0.19,2.28c-1.22,4.42-4.37,11.67-8.87,15.83"/><path d="M39.15,49.15c1.76,1.11,4.02,4.08,4.88,6.89"/><path d="M15.91,64.13c2.1,0,31.07-1.79,33.03-1.79"/><path d="M28.46,69.42c0.14,0.17-0.07,1.77-0.18,2.16c-1.2,4.18-4.3,11.03-8.72,14.97"/><path d="M27.02,77.26c1.37,0.87,3.11,3.18,3.78,5.37"/><path d="M40.19,68.9c0.15,0.2-0.08,2.01-0.19,2.44c-1.27,4.73-4.57,12.48-9.26,16.94"/><path d="M38.2,77.48c1.93,1.28,4.39,4.68,5.33,7.9"/><path d="M14.8,41.26c0.46,0.45,1.32,1.89,1.21,4.3c-0.04,0.92-0.26,45.15-0.3,46.53c-0.04,1.38,0.39,2.48,1.29,2.42c11-0.76,22.77-1.3,31.94-1.81"/><path d="M48.16,37.71c0.28,0.45,0.89,3.39,0.94,4.3s-0.12,33.25-0.09,54.38"/><path d="M62.04,18.65c0.85,0.26,2.41,0.19,3.27,0.15c5.91-0.26,19.2-1.55,24.91-2.15c1.42-0.15,2.28,0.04,2.99,0.15"/><path d="M74.25,20.25c0.37,0.29,0.48,2.34,0.34,3.05c-1.34,6.84-7.19,23.63-8.6,27.95"/><path d="M59.93,33.71c0.79,0.4,2.88,0.51,3.53,0.46c9.05-0.67,13.3-1.67,19.81-2.4c1.5-0.17,3.21,1.23,3.21,2.93c0,2.91-1.27,8.67-2.48,15.05"/><path d="M54.33,52.46c1.15,0.24,3.99,0.18,5.14,0.08c6.29-0.54,27.8-2.29,34.24-2.52c1.92-0.07,3.8-0.02,4.76,0.09"/><path d="M60.27,64.88c0.36,0.51,0.72,0.94,0.88,1.58c1.24,5.09,2.72,19.14,3.57,28.28"/><path d="M61.86,67.29C73.25,66,83,65.58,88.84,65.02c2.14-0.21,3.42,1.22,3.11,2.43c-1.27,5-2.96,15.3-4.63,22.96"/><path d="M64.7,92.24C71.57,91.61,81,91,90.96,90.53"/></svg>