<svg><path d="M31.01,10.61c0.68,0.54,1.23,2.41,1.23,3.51c0,5.67,0.18,12.8,0.18,18.2"/><path d="M32.9,21.94c5.27-0.96,9.75-1.29,15.3-1.93c1.29-0.15,1.61-0.32,2.42,0"/><path d="M19.21,15.14c0.74,0.59,1.19,2.65,1.33,3.82c0.15,1.18,0,7.37-0.15,14.72"/><path d="M9,33.69c0.51,0.27,1.89,0.88,3.26,0.81C21.75,34,42,32,50.71,31.27c1.37-0.11,3.76,0.01,4.54,0.28"/><path d="M27.1,39.02c0.12,0.19-0.06,1.93-0.15,2.35c-0.97,4.56-3.49,12.01-7.07,16.3"/><path d="M27.12,45.16c1.86,1.1,4.24,4.02,5.14,6.79"/><path d="M41.4,38.54c0.14,0.21-0.07,2.11-0.18,2.57C40.04,46.1,37,54.26,32.67,58.95"/><path d="M39.67,48.45c2.14,1.32,4.87,4.83,5.92,8.16"/><path d="M14.98,65.86c2.21,0,33.18-2.01,35.24-2.01"/><path d="M27.15,70.41c0.13,0.17-0.07,1.78-0.17,2.16c-1.09,4.2-3.91,11.08-7.93,15.03"/><path d="M27.16,76.81c1.61,0.93,3.68,3.4,4.47,5.74"/><path d="M40.51,69.85c0.17,0.2-0.09,2.05-0.22,2.5c-1.43,4.84-5.16,12.77-10.46,17.32"/><path d="M38.92,78.61c2.22,1.38,5.06,5.03,6.14,8.49"/><path d="M13.31,40.46c0.48,0.48,1.38,2.02,1.27,4.59c-0.04,0.98,0.23,46.73,0.18,48.21c-0.05,1.48,0.91,2.68,1.86,2.58c10.63-1.1,24.48-1.46,34.12-2"/><path d="M49.43,37.67c0.57,0.58,1.43,2.63,1.49,3.59c0.06,0.97-0.13,34.44-0.1,57.01"/><path d="M62.82,17.44c2.3-0.13,19.14-2.8,21.23-2.96c1.74-0.13,2.75,1.45,2.73,2.25C86.67,22.37,85,39.5,84.77,46.12"/><path d="M63.48,31.1c5.77-0.63,16.54-1.61,22.09-2.11"/><path d="M63.09,45.64c7.91-1.01,12.79-1.47,21.38-2.44"/><path d="M61.01,14.86C62,16,62.6,17.64,62.86,18.88c0.26,1.24,0.26,64.12,0.26,68.49c0,5.88,0.21,6.33,3.99,3.43C70.75,88,74.5,85,80.45,80.63"/><path d="M91.7,50.21c0.29,1.43,0.48,1.99-0.51,3.14c-1.92,2.23-7.72,7.38-10.35,9.38"/><path d="M68.88,53.84c3.37,2.41,13.8,24.16,22.06,33.04c3.59,3.85,5.22,5.14,7.13,5.92"/></svg>