<svg><path d="M30.62,12.25c0.61,0.62,1.53,2,1.53,3.58c0,2.17,0,3.42,0,6.85"/><path d="M14.6,24.83c0.66,0.3,2.94,0.35,3.6,0.3c3.74-0.26,25-3.69,30.65-3.91c1.1-0.04,1.77,0.14,2.32,0.3"/><path d="M22.32,28.77c2.25,3.98,3.28,8.05,3.48,10.67"/><path d="M42.57,25.18c0.53,0.45,0.59,1.67,0.53,2.04c-0.42,2.53-4.81,10.05-5.86,11.98"/><path d="M10.75,42.71c0.8,0.42,1.72,0.47,2.52,0.42c9.48-0.63,28.09-3.94,38.15-4.81c1.33-0.11,2.13,0.2,2.79,0.41"/><path d="M20.17,51.99c0.47,0.63,0.78,1.26,0.93,1.88c0.16,0.63,0.22,41.54,0.16,42.95"/><path d="M22.03,52.61c1.87-0.16,19-2.81,20.39-2.98c2.49-0.31,3.42,2.04,3.11,2.98c-0.3,0.91-0.47,23.41-0.47,36.12c0,11.27-3.38,6.33-6.79,2.91"/><path d="M22.03,64.19c6.38-0.94,16.81-1.85,22.41-2.32"/><path d="M22.5,75.59c4.98-0.47,15.88-1.88,21.64-2.2"/><path d="M66.25,23.25c4.76-0.52,14.5-2.5,19.89-3.47c1.23-0.22,1.99,0.14,2.61,0.3"/><path d="M63.14,12.49c1.39,1.06,1.79,3.65,1.81,5.13c0.05,3.13-0.2,12.88-0.34,17.21c-0.03,0.93,0.28,2.08,2.81,1.64c5.58-0.97,13.71-2.21,19.85-3.49c3.48-0.72,3.58,0.81,3.03,2.42c-1.05,3.1-1.72,8.43-2.8,13.85"/><path d="M64.75,51.75c4.76-0.53,14.75-2.5,21.39-2.97"/><path d="M62.99,49.37c0.74,1.19,1.33,2.59,1.38,4.43c0.2,8.19-0.53,24.64-0.53,30.2c0,13,8.9,11.53,17.67,11.53c14,0,14.89-2.78,14.89-9.12"/><path d="M65,61.54c4.76-0.53,15.5-2,20.89-2.97c1.23-0.22,1.99,0.14,2.61,0.3"/><path d="M64.75,71c4.76-0.53,17-1.5,22.39-2.47c1.23-0.22,1.99,0.14,2.61,0.3"/><path d="M64.25,81c4.76-0.53,18.5-2,23.89-2.97c1.23-0.22,1.99,0.14,2.61,0.3"/></svg>