<svg><path d="M42,11c0.07,0.45,0.14,1.16-0.13,1.8C40.3,16.59,31.31,24.91,19,30"/><path d="M39,17.53c4.75-0.28,18.62-1.67,22.94-3.29c3.31-1.24,4.81,0.26,2.31,3.13C62.04,19.91,60,22,56,26.75"/><path d="M26.22,29.05c0.62,0.62,0.71,1.02,0.98,1.83c0.93,2.79,1.55,7.12,1.99,10.97"/><path d="M27.46,30.48c8.64-1.28,46.5-4.52,51.98-5.37c2.01-0.31,3.23,0.82,2.94,1.91c-1.18,4.41-1.88,5.41-2.71,8.51"/><path d="M30.47,39.98c2.58,0,15.95-1.56,18.06-1.56"/><path d="M60.57,37.87c4.69-0.44,18.53-2.11,21.34-2.11"/><path d="M60.41,27.65c0.2,0.89,0,58.44-0.2,63.99"/><path d="M49.34,28.58c0,11.07-0.03,51.45-0.03,56.4C49.31,96.53,52.05,97,71.98,97c20.87,0,22.41-1.58,22.41-9.89"/><path d="M20.94,47.92c1.56,0.58,1.76,1.04,3.14,0.8c5.66-0.97,8.16-1.72,15.01-2.47c1.15-0.13,2.34,1.26,2.04,2.78c-0.79,3.97-1.37,5.42-2.43,12.25"/><path d="M16.69,55.17c1.56,0.58,1.75,0.9,3.14,0.8c8.5-0.61,57.83-7.47,64.51-7.47c1.97,0,3,1.73,3.04,3.28c0.12,4.72-1.87,21.92-2.93,28.75"/><path d="M21.36,63.37c0.76,0.09,2.14,0.4,3.04,0.28c10.61-1.4,14.92-2.39,15.83-2.3"/><path d="M19.94,72.92c1.52,0.15,2.26,0.48,3.64,0.3C29.25,72.5,33.5,71,39.1,70.25c1.96-0.26,2.34,0.76,2.04,2.28c-0.79,3.97-1.37,10.42-2.43,17.25"/><path d="M15.92,81.58c1.33,0.42,3.44,0.94,4.95,0.8c13.21-1.21,51.39-4.63,64.18-5.8"/><path d="M19.86,91.37c0.76,0.09,2.13,0.33,3.04,0.28c6.36-0.4,14.36-1.15,17.45-1.39"/><path d="M78.02,53.64c0.03,0.45,0.07,1.16-0.07,1.8c-0.8,3.81-5.38,12.16-11.65,17.27"/><path d="M67.02,58.58C71.27,60.9,78,68.11,79.06,71.72"/></svg>