<svg><path d="M50.25,9.75c0.11,0.78,0.41,2.1-0.21,3.12C45.5,20.25,32.25,33,11.5,42.75"/><path d="M51,12.38c5.83,4.4,30.9,19.21,37.33,22.43c2.18,1.09,4.98,1.56,7.17,1.87"/><path d="M37.25,33.19c0.82,0.33,2.31,0.37,3.13,0.33c5.87-0.27,17.37-2.02,24.01-2.38c1.36-0.07,2.18,0.16,2.86,0.32"/><path d="M23.39,42.34c0.27,0.29,0.58,0.53,0.67,0.92c0.77,3.4,1.75,10.55,2.52,15.55"/><path d="M25.07,44.33c5-0.72,9.29-1.3,13.91-2.02c1.16-0.18,1.85,0.84,1.69,1.67c-0.69,3.44-1.29,5.03-2.51,10.75"/><path d="M27.14,57.02c3.73-0.44,7.06-1.19,12.18-1.87"/><path d="M46.14,41.55c0.25,0.27,0.53,0.48,0.61,0.84c0.7,3.11,1.6,9.64,2.31,14.21"/><path d="M47.68,43.37c4.56-0.66,8.49-1.18,12.7-1.85c1.05-0.16,1.69,0.77,1.54,1.52c-0.63,3.14-1.18,4.6-2.29,9.82"/><path d="M49.56,54.96c3.4-0.4,6.45-1.09,11.12-1.71"/><path d="M67.64,40.05c0.26,0.27,0.56,0.48,0.65,0.84c0.75,3.11,1.7,9.64,2.45,14.2"/><path d="M69.27,41.87c4.85-0.66,9.03-1.18,13.5-1.85c1.12-0.16,1.8,0.77,1.64,1.52c-0.67,3.14-1.25,4.6-2.44,9.82"/><path d="M71.28,53.46c3.62-0.4,6.85-1.09,11.82-1.71"/><path d="M23.82,63.97c0.53,0.67,1.17,1.73,1.26,2.94c0.49,6.55-0.27,26.44,0.4,33.09"/><path d="M24.64,65c6.67-0.54,52.12-4.47,53.43-4.65c2.81-0.4,3.83,2.81,3.86,4.14c0.15,7.14-0.46,13.43-0.46,26.17c0,8.41-2.17,4.66-5.74,1.72"/><path d="M25.16,78.61c13.59-0.86,42.34-4.11,56.63-4.63"/><path d="M42.78,63.59c0.78,0.84,1.33-0.68,1.39,2.1c0.32,13.35-0.02,26.28-0.02,30.83"/><path d="M60.59,61.92c0.78,0.84,1.33,0.82,1.39,3.6c0.32,13.35-0.02,26.4-0.02,30.95"/></svg>