<svg><path d="M13.88,24.62c3.99,1.97,10.31,8.11,11.31,11.18"/><path d="M12.6,84.79c1.46,0.67,3,0.19,3.94-1.07c1.21-1.62,8.56-14.38,13.21-22.6"/><path d="M61.04,12.25c0.08,0.98,0.12,2.59-0.4,3.93C56.5,26.88,48,41.5,34.5,54.35"/><path d="M60.85,16.24c5.4,5.39,20.25,21.5,27.55,28.74c2.1,2.08,4.13,4.02,6.85,5.24"/><path d="M49.6,45.1c1.76,0.72,3.84,0.36,5.65,0.14c5.4-0.66,13.08-1.76,18.48-2.24c1.88-0.17,3.54-0.23,5.37,0.21"/><path d="M50.7,54c0.61,0.15,3,1,4.21,0.87c3.29-0.37,17.99-4.02,19.51-4.17c1.52-0.15,4.28-0.29,3.95,2.89c-0.43,4.17-2.68,16.92-6,23.84c-1.89,3.94-3.18,3.45-6.23,0.46"/><path d="M57.9,55c0.87,0.87,1.8,2,1.8,3.5c0,7.36-0.04,24.53-0.1,34.13c-0.02,3.3-0.05,5.71-0.08,6.51"/></svg>