<svg><path d="M49.62,13.25c0.11,0.94,0.38,2.48-0.22,3.77c-4.15,8.86-15.15,25.23-36.65,37.08"/><path d="M50.54,16.55c6.13,4.35,24.99,20.22,33.98,27.33c3.22,2.54,5.6,4.12,9.73,5.37"/><path d="M 38.590625,42.910833 c 1.76,0.72 3.84,0.36 5.65,0.14 5.4,-0.66 13.08,-1.76 18.48,-2.24 1.88,-0.17 3.54,-0.23 5.37,0.21"/><path d="M 31.464375,53.641042 c 0.61,0.15 3,1 4.21,0.87 10.329583,-0.937708 28.549375,-2.998125 38.130833,-4.17 1.516086,-0.185427 4.278829,-0.290121 3.95,2.89 -0.431171,4.169879 -2.680149,16.919928 -6,23.84 -1.890149,3.939928 -3.18,3.45 -6.23,0.46"/><path d="M 44.769166,53.809375 c 0.87,0.87 1.8,2 1.8,3.5 0,7.36 -0.04,24.53 -0.1,34.13 -0.02,3.3 -0.05,5.71 -0.08,6.51"/></svg>