<svg><path d="M9.65,28.33c1.53,0.84,5.07,0.34,6.71,0.11c4.56-0.63,10.35-1.83,15.79-2.75c1.41-0.24,3.32-0.74,4.74-0.23"/><path d="M22.42,30.71c1.06,1.06,1.31,2.04,1.31,3.38c0,4.92,0.04,35.9-0.11,39.17"/><path d="M10.16,51.37c0.49,0.33,3.93,0.35,4.43,0.31C19,51.25,27.5,49.62,32.44,48.7c0.6-0.11,1.93-0.32,3.25-0.09"/><path d="M10.77,78.95c1.03,0.83,2.01,1.11,3.51,0.33c5.6-2.9,10.93-6,18-9.92"/><path d="M62.64,12.75c0.08,0.95,0.13,2.52-0.4,3.83C58.5,25.88,50.38,41.12,39,52.35"/><path d="M62.92,17.79c8.4,8.61,15.21,17.33,24.47,26.71c2.09,2.12,5.1,4.24,7.37,5.63"/><path d="M50.9,46.1c1.76,0.72,3.84,0.36,5.65,0.14c5.4-0.66,13.08-1.76,18.48-2.24c1.88-0.17,3.54-0.23,5.37,0.21"/><path d="M51.4,54.6c0.61,0.15,3,1,4.21,0.87c3.29-0.37,17.99-4.02,19.51-4.17c1.52-0.15,4.28-0.29,3.95,2.89c-0.43,4.17-2.68,16.92-6,23.84c-1.89,3.94-3.18,3.45-6.23,0.46"/><path d="M58.58125,55.567708 c 0.87,0.87 1.8,2 1.8,3.5 -0.219826,13.545146 0.202719,23.466557 -0.18,37.006667"/></svg>