<svg><path d="M 14.75,38.79 c 0.92,0.92 1.1,1.79 1.23,2.85 0.97,5.21 1.92,12.07 2.82,19.13 0.29,2.24 0.57,4.5 0.85,6.74"/><path d="M 16.08,40.22 c 8.84,-1.95 15.7,-3.23 20.2,-3.96 2.28,-0.37 4.33,0.78 3.91,3.5 -0.85,5.36 -2.16,12.15 -3.57,20.35"/><path d="M 19.82,63.3 c 4.04,-0.59 8.86,-1.21 14.67,-2.01 1.58,-0.22 3.24,-0.45 4.97,-0.7"/><path d="M 43.310675,48.910552 C 62.2921,46.474323 91.969682,34.210287 97.628221,30.638119"/><path d="M 57.95501,14.13 c 1.25,1.25 1.26,3.12 1.26,4.72 0,2.12 -0.17,54.56 -0.12,61.13 0.1,13.52 5.144683,14.74 17.01499,14.74 16.55,0 19.68,-2.8 19.68,-14.52"/></svg>