<svg><path d="M50.18,12.4c-0.18,1.6-1.05,2.8-2.03,3.64C41.7,21.61,35.12,26.05,20,33.25"/><path d="M17.76,34.01c0.99,1.45,1.33,2.95,1.64,5.92c1.34,12.82,3.72,36.82,5.3,53"/><path d="M22.62,57.5c4.91-0.66,13.38-2,20.78-2.78c1.16-0.12,2.8,0,3.74,0"/><path d="M25.59,89.85c5.66-0.6,15.78-1.47,19.53-1.78c1.16-0.09,2.8,0,3.74,0"/><path d="M60.25,26.72c1.8,0.51,3.1,1.07,5.03,0.9c3.99-0.35,16.17-2.17,20.52-2.74c2.45-0.32,5.26,0.21,4.84,3.42c-2.89,21.83-6.51,48.45-8.25,61.88"/><path d="M59.38,54.04c1.25,0.38,2.5,0.78,4.23,0.64c3.64-0.3,15.52-1.18,22.64-2.05"/><path d="M58.92,86.21c1.88,0.32,3.55,0.62,5.47,0.53C69.12,86.52,75.75,86,82,85.85"/></svg>