<svg><path d="M13.77,40.46c0.61,0.55,1.05,1.92,1.16,2.65c0.83,5.27,1.68,12.22,2.84,22.2"/><path d="M15.38,41.58c9.29-1.06,15.63-3.09,22.35-3.5c2.62-0.16,2.74,1.68,2.48,4.03c-0.6,5.44-0.97,10.09-2.78,19.08"/><path d="M18.11,63.68c7.48-1.06,10.06-1.2,20.52-2.18"/><path d="M25.71,18.25c0.75,0.4,1.2,1.81,1.34,2.61c0.15,0.8,0,55.55-0.15,60.57"/><path d="M14.75,88.34c0.55,0.89,2.38,0.5,2.93,0.27c0.55-0.22,18.68-10.93,22.1-12.7"/><path d="M35.07,69.17c2.96,2.55,7.64,10.5,8.38,14.47"/><path d="M60.25,13.46c0.03,0.27,0.14,0.79-0.06,1.09c-2.67,3.87-7.05,7.7-11.53,10.4"/><path d="M46.87,23.75c0.56,0.5,0.79,1.61,0.93,2.63c0.51,3.73,2.46,15.82,2.97,20.86"/><path d="M69.99,18.95c0.66,0.11,1.19,0.34,2.11,0.34s11.4-2.36,12.45-2.48c1.06-0.11,1.93,0.56,1.85,1.25c-0.79,6.58-1.85,19.29-2.64,24.74"/><path d="M49.09,33.88c3.51-1.13,9.72-3.13,10.38-3.13c0.66,0,1.58,0,2.11,0"/><path d="M70.26,29.29c0.66,0.11,1.19,0.34,2.11,0.34c0.92,0,10.43-0.91,11.48-1.02"/><path d="M50.54,44.82c7.35-1.32,24.63-4.57,33.27-5.09"/><path d="M47.92,52.51c0.6,0.46,0.96,2.07,1.08,2.99c0.11,0.83-0.07,28.72-0.07,36.87c0,2.16,0.73,2.07,1.43,1.36c2.43-2.47,7.71-9.24,11.76-12.49"/><path d="M54.54,52.25c1.8,1.01,4.66,4.17,5.11,5.75"/><path d="M55.25,68.75c1.8,1.01,4.66,4.17,5.11,5.75"/><path d="M65.21,47.01c0.6,0.46,0.96,2.07,1.08,2.99c0.11,0.83-0.07,34.72-0.07,42.87c0,2.16,0.73,2.07,1.42,1.36c2.43-2.47,9.06-10.73,11.76-12.99"/><path d="M71.12,51.75c1.8,1.01,4.66,4.17,5.11,5.75"/><path d="M71.29,67c1.99,1.32,5.15,5.44,5.64,7.5"/><path d="M80.46,46.75c0.76,1,1.15,1.27,1.23,3.42c0.57,14.84,4.84,35.75,13.03,43.81c4.07,4.01,3.9,1.01,3.24-9"/></svg>